<svg xmlns="http://www.w3.org/2000/svg" viewBox="0 0 875.27 654.81"><defs><style>.cls-1{fill:#de5128;}.cls-1,.cls-2,.cls-3,.cls-4,.cls-5,.cls-6,.cls-7{fill-rule:evenodd;}.cls-2{fill:#e16f4b;}.cls-3{fill:#e79924;}.cls-4{fill:#efdd5b;}.cls-5{fill:#a3d732;}.cls-6{fill:#89e1fe;}.cls-7{fill:#5892fb;}.cls-8{fill:none;}</style></defs><title>Mesa de trabajo 2</title><g id="ARTBOARD_1" data-name="ARTBOARD 1"><path class="cls-1" d="M121.28,656.08C110.92,614.82,101.41,571,91.84,526.43,81.5,477.66,73.57,430.47,74,385.23q.08-8.49.57-16.89C77.09,317,90,267.5,122.64,223.51q5.06-7.67,10.62-15.15C195.09,124.22,309.66,56.75,439.07,61.44c67.88,1.93,133.05,23.24,187.38,55,6.06,3.52,12,7.16,17.89,10.91,59,29.75,96.63,75,121.15,120.31q4.57,7.34,8.61,14.71t7.53,14.82c13.39,31.5,20,62.83,22.62,94.89q.57,6.87.9,13.78c-.38,45.61-10.27,91.72-18.53,140.49Q784.84,534,783,541.56c-7.49,30.38-15.45,60.38-23.77,89.33l17.16-.65c9.17-33.51,18.5-68.36,27.46-104,1.27-5.09,2.52-10.21,3.73-15.33,8.7-40.49,15.75-80.63,19.6-120.08q.19-6.4.08-12.76c-.54-33.9-7.69-67.11-19.56-100.3-1.85-4.61-3.86-9.12-6-13.61s-4.44-8.94-6.87-13.39q-4.1-7.51-8.73-15c-23.71-47.34-67.94-90.68-124.82-126q-9.15-6.18-18.76-12C585,62.53,514.35,37.16,439,34.83c-152.74-5.2-277.64,83.39-337.06,175.05q-5.09,7.78-9.64,15.69c-21.59,36.56-33.09,76-37.62,115.94q-.89,8.66-1.3,17.43c-2.6,52.58,7.7,108.55,21.22,168,10.31,45,20,88.6,29.75,129.78Z"/><path class="cls-2" d="M138.49,654.15c-11.07-41.06-20.64-84.75-29.69-129.48C99.53,478.25,93,433.19,94.32,390c.16-5.4.44-10.78.79-16.15-.68-51.36,15.5-98,47.24-137.71,3.3-4.83,6.68-9.6,10.2-14.28,26.18-34.77,60.77-65.71,102.07-89.49q8.85-5.08,18.09-9.7C297,111.1,324.3,97.58,352,94.32q10.5-2.37,21.24-4.09a351.94,351.94,0,0,1,65.92-4.28c63.18,1.67,124,20.72,174.95,49.75,5.69,3.22,11.27,6.55,16.85,10,53,28.42,93.56,67.86,114.53,112.32q4.36,7,8.25,14T761,286c14.31,29.58,20.75,60.51,23.41,91.36.37,4.41.67,8.81.83,13.23-1.3,49.3-10.91,100.14-19.13,150.19q-1.82,7.64-3.72,15.23c-6.34,25.29-13.19,50.17-20.58,74.33l17.4-.66c8.39-28.94,16.41-58.93,24-89.3,1.25-5.06,2.48-10.14,3.66-15.21,8.08-47.66,18.4-95.21,18.79-140.63q-.32-7-.87-13.84c-2.57-32.18-9.2-63.45-22.7-94.73q-3.5-7.46-7.54-14.82t-8.61-14.73c-20.34-47-64.4-89.68-121.3-120.51-5.88-3.75-11.83-7.4-17.89-10.93C572.3,83.2,507,61.84,439.07,59.9c-129.59-4.72-244.27,63-306.16,147.25q-5.56,7.48-10.63,15.16C91.69,267.37,74.82,315.5,74.17,367.17q-.49,8.39-.56,16.88c-.44,45.21,7.54,92.37,18,141.14,9.64,44.54,19.25,88.38,29.69,129.63Z"/><path class="cls-3" d="M155.83,653.48c-11.77-40.87-21.35-84.37-29.83-129.32-8.08-43.38-13.21-85.63-11.42-126.19.25-5.79.65-11.55,1-17.3.66-48,14.54-92.69,46.3-130.41,3.63-5.1,7.26-10.12,11.06-15a311.08,311.08,0,0,1,64.33-61.93q7.49-5.38,15.38-10.38c43.85-22,92.36-44.28,145.77-50q10.06-1,20.26-1.3t20.48-.08c59.32,1.44,116.41,18.83,164.45,45.83,5.36,3,10.61,6.1,15.85,9.3,49.1,25.21,84.12,63.06,107.08,104.9q4.63,7.39,8.69,14.86c2.71,5,5.22,10,7.54,15.09,9.26,24.3,16.65,48.85,20.52,74q1,6.28,1.64,12.62c-1.18,50.2-7.1,101.37-15.94,153.18q-1.77,7.68-3.65,15.3c-6.27,25.4-13.3,50.3-21.12,74.5l17.53-.67c7.39-24.15,14.23-49,20.57-74.32q1.9-7.59,3.72-15.22c8.22-50.07,17.83-100.91,19.13-150.2-.16-4.42-.46-8.83-.83-13.24-2.66-30.86-9.11-61.78-23.42-91.34Q757.58,279,753.7,272t-8.25-14c-21-44.49-61.55-83.94-114.53-112.3-5.58-3.43-11.16-6.76-16.85-10-51-29-111.76-48-174.94-49.72a351.63,351.63,0,0,0-65.91,4.28Q362.49,92,352,94.41c-27.68,3.19-53,16.56-79.54,26.37-6.18,3.09-11.9,8.28-17.79,11.67-41.29,23.8-75.88,54.75-102,89.51-3.53,4.69-6.9,9.45-10.21,14.28-31.78,39.61-48,86.21-47.26,137.64-.35,5.36-.63,10.73-.79,16.14-1.3,43.2,5.19,88.24,14.46,134.66,9,44.73,18.62,88.42,29.69,129.48Z"/><path class="cls-4" d="M173.32,652.8c-12.57-40.66-22.23-84-30.17-129.15-7.12-41.05-11.09-81.13-8.65-119.6.35-5.49.82-10.95,1.33-16.4,1.2-46.15,15-87.47,45.25-123.07,3.41-4.78,6.85-9.47,10.44-14.07a285.84,285.84,0,0,1,39.35-41q7.33-6.26,15.14-12.11a302.22,302.22,0,0,1,46.24-25.91q8.2-3.73,16.68-7.07c23.08-9.25,48.14-15.73,71.27-21q9.25-2,18.62-3.6t18.82-3q10.74-.49,21.63-.22a331.71,331.71,0,0,1,116.11,24.1q9,3.62,17.67,7.71,7.39,3.62,14.65,7.53T602,184c39.65,22.78,74.86,51.14,95.84,85.89,3.2,4.59,6.32,9.19,9.27,13.82q4.74,7.45,8.87,15t7.67,15.2a274,274,0,0,1,20.05,70.75q.89,6,1.57,12.11c2,42.75-5.08,87-10.07,129.5-1,5.17-2.07,10.34-3.23,15.48a861.21,861.21,0,0,1-25.41,90l17.67-.68c7.82-24.19,14.85-49.09,21.12-74.49q1.88-7.62,3.65-15.3c8.54-50.35,14.7-103,15.94-153.19q-.66-6.34-1.64-12.62c-3.87-25.12-11.26-49.67-20.52-73.95-2.32-5.1-4.83-10.11-7.54-15.08s-5.61-9.93-8.69-14.86c-23-41.88-58-79.73-107.08-104.88-5.24-3.2-10.49-6.31-15.85-9.3-48-27-105.12-44.37-164.44-45.81q-10.28-.27-20.48.08T398.46,113c-53.41,5.64-101.93,27.91-145.75,50q-7.89,5-15.37,10.38A311.4,311.4,0,0,0,173,235.35c-3.8,4.93-7.43,9.95-11.07,15-31.79,37.58-45.67,82.3-46.31,130.34-.4,5.75-.79,11.51-1,17.29-1.8,40.53,3.32,82.75,11.41,126.13,8.48,45,18.06,88.45,29.83,129.32Z"/><path class="cls-5" d="M190.85,652.12c-13.35-40.07-23.16-83.69-30.56-129-6.11-37.93-9.06-75-6.38-110.7q.67-8.91,1.83-17.7a195.44,195.44,0,0,1,44-115.7q5.35-7.65,11.22-14.93a267.11,267.11,0,0,1,36.89-37.41c4.56-3.78,9.27-7.43,14.18-10.91q8.23-3.86,16.52-7.72t16.66-7.68c37.26-18.32,79.31-32.87,124.81-38q9.55-1,19.3-1.35,10.69.23,21.27,1.19A310.37,310.37,0,0,1,518,173q9.25,2.65,18.25,5.83A285.69,285.69,0,0,1,596.66,207q7,4.33,13.76,9c22.8,14.6,41.78,33.6,58.57,53.8,3.55,4.35,7,8.79,10.35,13.32a250.76,250.76,0,0,1,26.51,45.14q3.49,7.71,6.38,15.54a196.2,196.2,0,0,1,13.48,53.28q.58,5.5.85,11.06c4.43,38.58-3.59,78.62-8.35,118.36q-1.52,7.85-3.22,15.63a697.56,697.56,0,0,1-26.09,90.24l17.7-.68a860.44,860.44,0,0,0,25.4-90c1.15-5.15,2.26-10.32,3.23-15.48,5-42.53,12.1-86.76,10.07-129.5q-.68-6.1-1.57-12.11a273.15,273.15,0,0,0-20.06-70.73q-3.54-7.65-7.67-15.2t-8.87-15c-2.95-4.63-6.07-9.23-9.27-13.82C679,233.57,641.35,208.48,602.5,184.3q-7-4.28-14.38-8.27T573,168.41q-8.68-4.08-17.67-7.7a331.85,331.85,0,0,0-116.1-24.08q-10.87-.26-21.62.23-9.45,1.36-18.82,3t-18.62,3.58c-23.13,5.24-48.2,11.72-71.27,21q-8.47,3.35-16.68,7.08a300.37,300.37,0,0,0-46.22,26q-7.81,5.84-15.14,12.11a286.11,286.11,0,0,0-39.34,41c-3.59,4.6-7,9.29-10.44,14.07-28.6,35.35-44.12,76.79-45.27,123-.51,5.45-1,10.9-1.33,16.39-2.45,38.43,1.51,78.49,8.63,119.54,7.94,45.19,17.6,88.48,30.17,129.15Z"/><path class="cls-6" d="M208.74,651.42c-14.4-39.82-24.45-83.16-31.36-128.76-6.2-41.58-8-82.18-2.25-120.73q1.24-8.26,2.92-16.39c6.65-33.08,17.93-65.85,39.77-91.92q5-7.1,10.52-13.85a249.07,249.07,0,0,1,34.47-34.57c4.25-3.47,8.63-6.83,13.29-10,5.08-2.11,10.17-4.27,15.26-6.62,42.76-25.7,93.19-44.11,148-43.48q9.82.18,19.54,1a289.56,289.56,0,0,1,52.77,9.57q8.53,2.38,16.83,5.26c56.35,18.65,105.27,51.61,132.93,95.71q5.06,6.81,9.54,13.78C693.26,345,704.67,382,708,420.83q.63,7.28.89,14.64c.59,24.56-.34,50-5.05,75.57q-1.24,8-2.7,15.91a584,584,0,0,1-30.27,106.17l18.06-.7A697.31,697.31,0,0,0,715,542.19q1.7-7.78,3.22-15.63c4.75-39.76,12.78-79.8,8.34-118.35q-.26-5.56-.85-11.07a195.32,195.32,0,0,0-13.48-53.26q-2.89-7.83-6.38-15.54a250.86,250.86,0,0,0-26.51-45.13c-3.32-4.53-6.8-9-10.34-13.33-16.79-20.24-35.78-39.23-58.58-53.82q-6.73-4.68-13.76-9a284.53,284.53,0,0,0-60.42-28.17q-9-3.18-18.25-5.83a310.62,310.62,0,0,0-57.38-10.72q-10.57-1-21.26-1.19-9.47.6-18.9,1.75c-43.9,6.52-88.33,15.35-125.78,37.06q-8.36,3.85-16.51,7.83t-16.07,8.14c-4.91,3.48-9.62,7.13-14.18,10.91A267.33,267.33,0,0,0,211,264.27q-5.87,7.28-11.21,14.93c-25.57,33.23-42.15,72.94-44.05,115.63q-1.16,8.77-1.83,17.68c-2.7,35.62.26,72.71,6.36,110.64,7.41,45.27,17.21,88.89,30.56,129Z"/><path class="cls-7" d="M226.76,650.71c-15.49-39.19-25.87-82.75-32.3-128.54-10.86-77.72-3.47-152.32,40.83-213.9A231.23,231.23,0,0,1,267.53,272q6-5.49,12.45-10.58c4.52-2.85,9.14-5.62,13.83-8.48,38.6-31.27,92-47.69,145.64-44.41,6,.28,12,.6,17.9,1.09a268.25,268.25,0,0,1,37.83,5.88q9.25,2.12,18.27,4.88c55.4,16.12,102.23,48.08,130.77,90,3.08,4.2,6.07,8.46,8.89,12.78,36.92,56.23,43.22,120.27,33.51,188.1a497.4,497.4,0,0,1-33.93,122.55l18.16-.71A583.46,583.46,0,0,0,701.12,527q1.46-7.91,2.7-15.91c4.71-25.59,5.64-51,5.05-75.56q-.27-7.36-.89-14.64c-3.32-38.78-14.72-75.82-37-110.35q-4.48-7-9.54-13.77C633.8,252.6,584.89,219.64,528.53,201q-8.31-2.87-16.83-5.25a289.71,289.71,0,0,0-52.76-9.56q-9.71-.84-19.54-1c-54.84-.71-105.28,17.7-148.07,43.5-5.06,2.36-10.13,4.53-15.21,6.65-4.66,3.15-9,6.5-13.29,10a249.44,249.44,0,0,0-34.46,34.58q-5.51,6.74-10.52,13.85c-20.25,25.85-33.17,58.7-39.78,91.86q-1.67,8.13-2.92,16.38c-5.78,38.51-4,79.08,2.23,120.66,6.91,45.6,17,88.94,31.36,128.76Z"/><rect class="cls-8" x="150.12" y="-25.41" width="800" height="800"/></g></svg>