<svg xmlns="http://www.w3.org/2000/svg" xmlns:xlink="http://www.w3.org/1999/xlink" width="272.612mm" height="108.474mm" viewBox="0 0 772.759 307.484">
  <defs>
    <linearGradient id="a" x1="-835.078" y1="271.542" x2="1467.952" y2="392.444" gradientUnits="userSpaceOnUse">
      <stop offset="0" stop-color="#edb169"/>
      <stop offset="0.019" stop-color="#d79a5c"/>
      <stop offset="0.054" stop-color="#b57647"/>
      <stop offset="0.086" stop-color="#9c5d38"/>
      <stop offset="0.116" stop-color="#8d4d2f"/>
      <stop offset="0.139" stop-color="#88482c"/>
      <stop offset="0.798" stop-color="#6a3d2f"/>
    </linearGradient>
  </defs>
  <title>башмаг</title>
  <g>
    <g>
      <path d="M567.481,444.143c-36.941,15.216-47.783,39.109-265.03,39.109-217.271,0-249.844-4.354-256.367-32.6-10.028-43.411,45.621-60.811,102.11-67.31,56.491-6.525,182.461-32.641,249.834-119.516s63.016-82.534,63.016-82.534l99.918,86.879H689.135s67.355-47.775,91.251-56.491c0,0,63.01,67.37,10.868,269.412h-197.7Z" transform="translate(-39.152 -180.057)" fill="url(#a)"/>
      <g opacity="0.7">
        <g>
          <g opacity="0.7">
            <path d="M48.509,433.069l-5.235-1.259C49.7,405.121,84.9,387.916,147.887,380.671c40.227-4.645,177-26.924,248.015-118.492,57.31-73.93,62.369-81.38,62.8-82.122l4.8,2.431c-1.333,2.77-35.185,46.659-63.351,82.99-72.3,93.23-210.9,115.835-251.653,120.541C106.9,390.8,55.789,402.854,48.509,433.069Z" transform="translate(-39.152 -180.057)" fill="#db8347"/>
          </g>
          <g opacity="0.678">
            <path d="M48.745,433.143l-5.209-1.354c6.633-25.465,42.3-41.91,106-48.873,35.893-3.859,126.99-18.241,197.631-68.256a247.991,247.991,0,0,0,52.22-48.946c41.7-53.461,61.607-79.6,62.651-82.269l5.068,1.819c-.662,1.854-1.569,4.4-63.478,83.767a253.529,253.529,0,0,1-53.351,50.027c-71.673,50.74-163.855,65.308-200.16,69.215C89.728,394.871,54.673,410.386,48.745,433.143Z" transform="translate(-39.152 -180.057)" fill="#d88247"/>
          </g>
          <g opacity="0.657">
            <path d="M48.982,433.22,43.8,431.762c6.833-24.241,42.962-39.917,107.381-46.593,36.522-3.664,129.006-17.521,199.011-66.945,20.879-14.682,38.6-31.157,52.678-48.973,53.8-68.1,61.736-79.969,62.632-82.7l5.118,1.684c-1.129,3.43-6.961,12.772-63.527,84.362-14.4,18.22-32.5,35.055-53.8,50.031-71.047,50.162-164.63,64.2-201.566,67.9C89.728,396.951,55.157,411.315,48.982,433.22Z" transform="translate(-39.152 -180.057)" fill="#d68148"/>
          </g>
          <g opacity="0.635">
            <path d="M49.214,433.3l-5.149-1.571c7.074-23.165,43.667-38.076,108.768-44.315,37.3-3.577,131.483-17.126,200.379-65.625,21.118-14.782,38.992-31.269,53.138-49,52.9-66.316,61.364-79.165,62.632-83.176l5.136,1.623c-1.446,4.571-7.4,14.508-63.557,84.913-14.467,18.137-32.721,34.976-54.256,50.049-69.943,49.238-165.235,62.964-202.96,66.576C90.627,398.791,55.592,412.427,49.214,433.3Z" transform="translate(-39.152 -180.057)" fill="#d38048"/>
          </g>
          <g opacity="0.613">
            <path d="M49.444,433.39,44.331,431.7c7.382-22.275,43.411-36.023,110.15-42.036,37.987-3.425,133.692-16.544,201.751-64.305,21.341-14.868,39.372-31.365,53.6-49.029,49.515-61.467,60.848-77.9,62.632-83.663l5.144,1.589c-1.726,5.583-7.888,16.318-63.583,85.451-14.551,18.063-32.958,34.907-54.709,50.067-66.626,46.754-156.633,60.954-204.355,65.256C91.486,400.745,55.984,413.651,49.444,433.39Z" transform="translate(-39.152 -180.057)" fill="#d17f47"/>
          </g>
          <g opacity="0.591">
            <path d="M49.672,433.481l-5.066-1.823c7.582-21.042,44.06-34.039,111.518-39.744,38.565-3.26,135.557-15.923,203.136-62.994,21.662-15.086,39.849-31.591,54.06-49.055,49.079-60.334,60.535-77.277,62.637-84.157l5.149,1.571c-2.006,6.572-8.381,18.094-63.609,85.981-14.526,17.859-33.084,34.707-55.159,50.079-66.177,46.094-157.319,59.847-205.758,63.941C92.342,402.711,56.373,414.892,49.672,433.481Z" transform="translate(-39.152 -180.057)" fill="#ce7e49"/>
          </g>
          <g opacity="0.57">
            <path d="M49.894,433.585l-5.014-1.971c7.775-19.791,44.7-32.042,112.892-37.451,48.758-3.872,140.163-17.03,204.512-61.679,21.89-15.185,40.233-31.7,54.52-49.085,48.653-59.213,60.229-76.665,62.641-84.648L484.6,200.3c-2.744,9.082-14.035,26.147-63.639,86.515-14.6,17.768-33.31,34.621-55.61,50.093C299.964,382.277,207.5,395.618,158.2,399.529,93.179,404.691,56.742,416.147,49.894,433.585Z" transform="translate(-39.152 -180.057)" fill="#cc7c48"/>
          </g>
          <g opacity="0.548">
            <path d="M50.111,433.689l-4.949-2.119c8.061-18.793,44.366-29.967,114.255-35.159,49.6-3.686,142.312-16.427,205.89-60.364,22.129-15.294,40.629-31.821,54.981-49.112,48.222-58.089,59.919-76.048,62.645-85.143l5.157,1.546c-3,10-14.692,28.052-63.659,87.036-14.667,17.672-33.529,34.529-56.064,50.1-64.625,44.661-158.4,57.581-208.551,61.31C93.08,406.74,57.193,417.18,50.111,433.689Z" transform="translate(-39.152 -180.057)" fill="#c97b49"/>
          </g>
          <g opacity="0.526">
            <path d="M50.323,433.8l-4.875-2.292c8.227-17.5,44.964-27.935,115.614-32.85,50.468-3.507,144.5-15.845,207.269-59.048,22.333-15.372,40.987-31.907,55.443-49.142,47.792-56.977,59.608-75.441,62.649-85.638l5.162,1.537c-3.326,11.148-15.138,29.685-63.687,87.565-14.764,17.6-33.781,34.465-56.515,50.115-63.817,43.928-158.932,56.439-209.947,59.986C136.6,405.759,61.035,411.016,50.323,433.8Z" transform="translate(-39.152 -180.057)" fill="#c67a4a"/>
          </g>
          <g opacity="0.504">
            <path d="M50.525,433.92l-4.784-2.475c8.494-16.418,44.568-25.839,116.966-30.536,51.341-3.334,146.72-15.268,208.644-57.733C394.208,327.5,412.5,311.421,427.26,294c47.366-55.875,59.3-74.846,62.651-86.133l5.161,1.528c-3.642,12.286-15.569,31.3-63.706,88.087-15.077,17.785-33.711,34.186-56.967,50.136-62.988,43.186-159.45,55.289-211.344,58.662C137.915,407.916,61.409,412.882,50.525,433.92Z" transform="translate(-39.152 -180.057)" fill="#c4794a"/>
          </g>
          <g opacity="0.483">
            <path d="M50.723,434.046l-4.675-2.674c8.736-15.281,44.117-23.72,118.3-28.213,52.224-3.165,148.956-14.7,210.025-56.413,22.728-15.524,41.692-32.077,56.37-49.2,49.709-58,59.489-75.914,62.654-86.637l5.166,1.528c-3.855,13.05-16.166,33.115-63.73,88.616-15.2,17.729-33.978,34.13-57.42,50.14-62.139,42.444-159.958,54.147-212.739,57.342C120.487,411.211,60.6,416.768,50.723,434.046Z" transform="translate(-39.152 -180.057)" fill="#c1784b"/>
          </g>
          <g opacity="0.461">
            <path d="M50.905,434.18l-4.545-2.891c8.956-14.1,43.615-21.6,119.631-25.878,53.1-3,151.174-14.13,211.406-55.1,22.914-15.585,42.035-32.15,56.83-49.233,49.272-56.874,59.235-75.489,62.662-87.131l5.166,1.519c-4.159,14.13-16.592,34.695-63.756,89.137-15.316,17.682-34.246,34.091-57.872,50.162-61.306,41.7-160.475,53-214.132,56.023C117.753,413.521,60.766,418.652,50.905,434.18Z" transform="translate(-39.152 -180.057)" fill="#bf774c"/>
          </g>
          <g opacity="0.439">
            <path d="M51.079,434.319,46.69,431.2c10.532-14.834,55.966-20.138,120.945-23.538,53.984-2.826,153.414-13.566,212.786-53.791,23.067-15.624,42.344-32.2,57.295-49.259,48.808-55.689,58.962-75.028,62.665-87.631l5.166,1.519c-3.875,13.193-14.285,33.188-63.78,89.662-15.255,17.4-34.877,34.282-58.323,50.167-60.453,40.958-160.981,51.855-215.525,54.707C115.671,415.773,60.933,420.44,51.079,434.319Z" transform="translate(-39.152 -180.057)" fill="#bc764b"/>
          </g>
          <g opacity="0.417">
            <path d="M51.235,434.467l-4.207-3.36c10.586-13.236,54.625-17.925,122.249-21.2,67.038-3.247,158.612-14.986,214.166-52.467,23.208-15.659,42.639-32.242,57.759-49.294,38.575-43.516,57.318-69.871,62.666-88.125l5.166,1.511c-5.659,19.323-24.144,45.452-63.8,90.183-15.42,17.4-35.194,34.278-58.775,50.188-56.587,38.18-149.195,50.106-216.918,53.387C113.908,417.983,61.072,422.168,51.235,434.467Z" transform="translate(-39.152 -180.057)" fill="#ba764c"/>
          </g>
          <g opacity="0.396">
            <path d="M51.376,434.623,47.391,431c10.564-11.613,53.294-15.7,123.53-18.845,68.13-3.043,160.829-14.387,215.547-51.152,23.342-15.685,42.932-32.281,58.223-49.32,38.215-42.591,56.956-69.1,62.667-88.629l5.17,1.511c-5.952,20.356-25.042,47.484-63.83,90.713-15.587,17.373-35.515,34.26-59.226,50.2-55.756,37.46-149.494,48.99-218.313,52.063C130.52,419.355,62.5,422.4,51.376,434.623Z" transform="translate(-39.152 -180.057)" fill="#b7754c"/>
          </g>
          <g opacity="0.374">
            <path d="M51.491,434.788l-3.72-3.9C59.283,419.9,108.9,417.028,172.562,414.41c69.237-2.848,163.073-13.805,216.93-49.841,23.42-15.667,43.166-32.272,58.683-49.35,37.356-41.124,56.687-68.608,62.674-89.128l5.17,1.511c-6.23,21.341-25.923,49.48-63.859,91.238-15.813,17.4-35.888,34.295-59.673,50.21-54.9,36.726-149.777,47.866-219.7,50.744C126.22,421.7,62.448,424.326,51.491,434.788Z" transform="translate(-39.152 -180.057)" fill="#b6744c"/>
          </g>
          <g opacity="0.352">
            <path d="M51.585,434.953l-3.408-4.168c12.031-9.833,64.857-11.821,126.026-14.126,70.351-2.648,165.331-13.215,218.314-48.517,23.507-15.663,43.405-32.281,59.146-49.394,37-40.225,56.333-67.865,62.675-89.623l5.17,1.511c-6.585,22.591-26.288,50.891-63.882,91.759-16.032,17.425-36.259,34.326-60.123,50.227-54.03,36-150.057,46.745-221.1,49.42C116.711,424.213,62.216,426.266,51.585,434.953Z" transform="translate(-39.152 -180.057)" fill="#b3734e"/>
          </g>
          <g opacity="0.33">
            <path d="M51.652,435.118l-3.043-4.445c11.461-7.853,57.607-9.412,116.03-11.378l11.207-.382c71.449-2.448,167.565-12.628,219.693-47.21,23.553-15.624,43.611-32.251,59.615-49.42,36.149-38.779,56.066-67.418,62.675-90.118l5.17,1.5c-6.855,23.542-27.161,52.867-63.908,92.289-16.29,17.477-36.67,34.378-60.574,50.235-53.179,35.281-150.343,45.63-222.488,48.1l-11.208.378C111.851,426.461,61.819,428.15,51.652,435.118Z" transform="translate(-39.152 -180.057)" fill="#af724e"/>
          </g>
          <g opacity="0.309">
            <path d="M51.691,435.27l-2.626-4.7c10.521-5.887,50.184-7.059,100.4-8.548,9.066-.269,18.448-.547,28.018-.864,72.36-2.106,169.442-11.782,221.082-45.9,23.575-15.572,43.789-32.207,60.077-49.446,35.309-37.356,55.812-67,62.68-90.617l5.17,1.5c-7.113,24.462-28.027,54.82-63.934,92.814-16.574,17.538-37.106,34.443-61.023,50.245-52.7,34.807-150.836,44.653-223.884,46.78-9.566.317-18.954.595-28.027.864C102.1,428.814,61.063,430.03,51.691,435.27Z" transform="translate(-39.152 -180.057)" fill="#ae704e"/>
          </g>
          <g opacity="0.287">
            <path d="M51.71,435.417l-2.162-4.932c9.763-4.28,42.789-5.023,88.5-6.047,13-.291,26.822-.6,41.074-1.025,73.633-1.94,171.988-11.252,222.463-44.579,23.368-15.3,43.737-31.947,60.551-49.485,34.479-35.966,55.567-66.619,62.675-91.112l5.17,1.5c-7.456,25.691-28.378,56.222-63.96,93.335-17.091,17.833-37.777,34.743-61.477,50.262-51.527,34.022-150.944,43.5-225.269,45.46-14.258.421-28.1.734-41.1,1.025C96.49,430.759,60.5,431.567,51.71,435.417Z" transform="translate(-39.152 -180.057)" fill="#ab6f4f"/>
          </g>
          <g opacity="0.265">
            <path d="M51.7,435.539l-1.65-5.122c8.81-2.839,36.561-3.221,74.967-3.747,16.863-.23,35.98-.495,55.736-1.011,74.764-1.767,174.28-10.705,223.847-43.255,23.307-15.2,43.832-31.864,61.013-49.524,34.139-35.09,55.226-65.912,62.682-91.611l5.17,1.5c-7.7,26.555-29.233,58.137-63.993,93.869-17.456,17.942-38.289,34.855-61.922,50.271-50.626,33.244-151.2,42.348-226.662,44.132-19.785.521-38.916.781-55.8,1.011C88.584,432.556,59.746,432.952,51.7,435.539Z" transform="translate(-39.152 -180.057)" fill="#a86d4f"/>
          </g>
          <g opacity="0.243">
            <path d="M51.682,435.634l-1.107-5.27c7.61-1.6,29.4-1.654,59.554-1.732,21.5-.056,45.869-.117,72.271-.721,108.854-2.3,186.737-16.809,225.232-41.944a369.741,369.741,0,0,0,61.477-49.554c33.31-33.7,54.983-65.556,62.68-92.111l5.17,1.5c-7.944,27.41-30.082,60.051-64.021,94.394a374.979,374.979,0,0,1-62.367,50.279c-39.9,26.051-116.625,40.46-228.054,42.817-26.451.6-50.85.669-72.376.721C81.43,434.089,58.752,434.15,51.682,435.634Z" transform="translate(-39.152 -180.057)" fill="#a66d4f"/>
          </g>
          <g opacity="0.222">
            <path d="M142.847,435.925c-18.954,0-36.16-.208-50.279-.377-20.438-.252-35.211-.43-40.915.16l-.551-5.357c6.008-.625,20.911-.443,41.532-.187,23.831.291,56.465.686,91.41,0,112.069-2.1,188.313-15.776,226.615-40.633A382.488,382.488,0,0,0,472.6,339.947c32.493-32.346,54.753-65.235,62.677-92.605l5.174,1.5c-8.176,28.231-30.924,61.94-64.053,94.924a388.112,388.112,0,0,1-62.814,50.283c-39.155,25.413-116.351,39.374-229.441,41.5C169.842,435.83,155.929,435.925,142.847,435.925Z" transform="translate(-39.152 -180.057)" fill="#a36c50"/>
          </g>
          <g opacity="0.2">
            <path d="M157.3,438.013c-36.118,0-67.188-1.064-86.7-1.732-9.012-.308-15.522-.534-18.971-.534v-5.383c3.54,0,10.091.221,19.155.534,66.777,2.288,269.972,9.247,342.9-37.8,62.582-40.381,111.683-96.4,125.086-142.715l5.175,1.493c-13.746,47.492-63.73,104.7-127.341,145.746C363.846,431.654,245.552,438.013,157.3,438.013Z" transform="translate(-39.152 -180.057)" fill="#a06b50"/>
          </g>
        </g>
      </g>
    </g>
    <path d="M195.424,390.269a7.062,7.062,0,0,1-6.542-4.4l-4.191-10.293a7.062,7.062,0,1,1,13.08-5.331l4.192,10.293a7.062,7.062,0,0,1-6.538,9.728Z" transform="translate(-39.152 -180.057)" fill="#404042"/>
    <path d="M243.655,378.118a7.063,7.063,0,0,1-6.356-3.976l-6.077-12.5a7.061,7.061,0,0,1,12.7-6.173l6.078,12.5a7.064,7.064,0,0,1-6.347,10.15Z" transform="translate(-39.152 -180.057)" fill="#404042"/>
    <path d="M290.806,365.26a7.053,7.053,0,0,1-5.856-3.109l-8.934-13.214a7.061,7.061,0,1,1,11.7-7.91l8.934,13.214a7.062,7.062,0,0,1-5.843,11.018Z" transform="translate(-39.152 -180.057)" fill="#404042"/>
    <path d="M422.914,245.6a12.948,12.948,0,1,1,12.945,12.945A12.95,12.95,0,0,1,422.914,245.6Z" transform="translate(-39.152 -180.057)" fill="#404042"/>
    <circle cx="341.977" cy="121.444" r="12.946" fill="#404042"/>
    <path d="M280.392,357.216a9.708,9.708,0,1,1,9.713,9.715A9.713,9.713,0,0,1,280.392,357.216Z" transform="translate(-39.152 -180.057)" fill="#404042"/>
    <path d="M234.486,373.113a9.71,9.71,0,1,1,9.711,9.711A9.715,9.715,0,0,1,234.486,373.113Z" transform="translate(-39.152 -180.057)" fill="#404042"/>
    <circle cx="157.374" cy="205.411" r="9.711" fill="#404042"/>
    <path d="M379.561,307.392a7.04,7.04,0,0,1-5.368-2.47l-9.412-10.992a7.061,7.061,0,1,1,10.727-9.186l9.411,10.992a7.062,7.062,0,0,1-5.359,11.656Z" transform="translate(-39.152 -180.057)" fill="#404042"/>
    <path d="M434.477,250.888a7.033,7.033,0,0,1-4.639-1.741l-12.155-10.592a7.061,7.061,0,1,1,9.281-10.644L439.119,238.5a7.062,7.062,0,0,1-4.643,12.385Z" transform="translate(-39.152 -180.057)" fill="#404042"/>
    <path d="M329.342,340.35a7.039,7.039,0,0,1-5.494-2.622l-6.672-8.244a7.061,7.061,0,1,1,10.979-8.882l6.672,8.243a7.061,7.061,0,0,1-5.485,11.5Z" transform="translate(-39.152 -180.057)" fill="#404042"/>
    <circle cx="291.949" cy="155.581" r="10.589" fill="#404042"/>
    <path d="M606.306,438.009l-38.825-26.173c-36.941,15.212-47.783,39.109-265.03,39.109-75.467,0-173.316-.525-262.149-2.4a6.013,6.013,0,0,1,0,2.105c-2.587,16.505,0,36.887,0,36.887H302.451c217.247,0,228.089-23.9,265.03-39.11l26.071,36.952h197.7c2.9-11.2,5.372-36.987,7.593-47.375Z" transform="translate(-39.152 -180.057)" fill="#362f2d"/>
  </g>
</svg>
