<?xml version="1.0" encoding="utf-8"?>
<!-- Generator: Adobe Illustrator 21.1.0, SVG Export Plug-In . SVG Version: 6.00 Build 0)  -->
<svg version="1.1" id="Слой_1" xmlns="http://www.w3.org/2000/svg" xmlns:xlink="http://www.w3.org/1999/xlink" x="0px" y="0px"
	 width="254.1px" height="509.9px" viewBox="0 0 254.1 509.9" style="enable-background:new 0 0 254.1 509.9;" xml:space="preserve"
	>
<style type="text/css">
	.st0{fill:#614C3C;}
	.st1{fill:#47454D;}
	.st2{opacity:0.2;fill:#A57F6A;enable-background:new    ;}
	.st3{fill:#47454D;stroke:#BC5F28;stroke-width:3.789;stroke-miterlimit:10;}
	.st4{opacity:0.55;fill:none;stroke:#5B3725;stroke-width:3.789;stroke-miterlimit:10;enable-background:new    ;}
</style>
<title>брюки</title>
<g>
	<g>
		<g>
			<polygon class="st0" points="9.9,2.5 9.9,509.9 117,509.9 127.1,188.5 137.1,509.9 244.2,509.9 244.2,2.5 			"/>
			<rect x="0" y="2.5" class="st1" width="254.1" height="32.6"/>
			<g>
				<rect x="9.9" y="35.1" class="st2" width="55.3" height="474.8"/>
				<polygon class="st2" points="160.5,35.1 127.8,85.4 137.1,509.9 183.5,509.9 183.5,35.1 				"/>
			</g>
		</g>
		<path class="st3" d="M104.8,1.9h44.6c7,0,12.7,5.7,12.7,12.7V28c0,7-5.7,12.7-12.7,12.7h-44.6C97.7,40.7,92,35,92,28V14.6
			C92,7.6,97.7,1.9,104.8,1.9z"/>
		<path class="st4" d="M183.5,40.7c0,0,12.6,40.1,60.7,33.8"/>
		<path class="st4" d="M65.3,40.7c0,0-14.7,48.3-53.9,40.1"/>
		<polyline class="st4" points="114.3,43.6 114.3,88.4 128.3,108.6 		"/>
	</g>
</g>
</svg>
