<svg xmlns="http://www.w3.org/2000/svg" viewBox="0 0 280 564"><defs><style>.cls-1{fill:#fff}.cls-2{fill:#39b54a}.cls-3{fill:#009444}.cls-4{fill:#00542a}.cls-5{fill:#bf733e}.cls-6{fill:#efba95}.cls-7{fill:#e9a677}.cls-8{fill:#7d5105}.cls-9{fill:#f58020}.cls-10{fill:#7b3057}.cls-11{fill:#bf6195}.cls-12{fill:#f8971d}.cls-13{fill:#ae447b}.cls-14{fill:#f37321}.cls-15{fill:#1e232b}.cls-16{fill:#192029}.cls-17{fill:#454d5a}.cls-18{fill:#11323b}.cls-19{fill:#005363}.cls-20{fill:#3f6b7a}.cls-21{fill:#b25a8b}.cls-22{fill:#a43671}.cls-23{fill:#2e3c4b}.cls-24{fill:#205e6e}.cls-25{fill:#4e7281}.cls-27{fill:#9a1503}.cls-29{fill:#f4d2b8}.cls-30{fill:#fcbd77}.cls-31{fill:#cd89ad}.cls-32{fill:#477687}.cls-33{fill:#5f8292}.cls-34{fill:#636671}.cls-35{fill:#be5b1d}</style></defs><g id="Слой_2" data-name="Слой 2"><g id="Слой_1-2" data-name="Слой 1"><ellipse class="cls-1" cx="119" cy="100" rx="12" ry="15"/><ellipse class="cls-1" cx="169" cy="107" rx="11" ry="15"/><path class="cls-2" d="M176 107a7 7 0 1 1-7-7 7 7 0 0 1 7 7z"/><path class="cls-3" d="M169 114a7 7 0 1 1 8-7 7 7 0 0 1-8 7zm0-13a6 6 0 1 0 7 6 6 6 0 0 0-7-6z"/><path class="cls-4" d="M174 107a5 5 0 1 1-4-5 5 5 0 0 1 4 5z"/><path class="cls-1" d="M173 106a2 2 0 1 1-2-2 2 2 0 0 1 2 2z"/><circle class="cls-1" cx="168" cy="108" r="1"/><ellipse class="cls-2" cx="122" cy="100" rx="7" ry="7"/><path class="cls-3" d="M122 108a7 7 0 1 1 7-8 7 7 0 0 1-7 8zm0-14a6 6 0 1 0 6 6 6 6 0 0 0-6-6z"/><path class="cls-4" d="M127 100a5 5 0 1 1-5-4 5 5 0 0 1 5 4z"/><path class="cls-1" d="M126 99a2 2 0 1 1-2-1 2 2 0 0 1 2 1z"/><circle class="cls-1" cx="121" cy="101" r="1"/><g id="_Группа_" data-name="&lt;Группа&gt;"><path class="cls-5" d="M262 336c10 10 20 22 17 37v-1h-1c0-8-1-15-5-21l-11-15v-1c0-1 0 0 0 0zM279 372v0z"/><path class="cls-5" d="M278 372l1 1a7 7 0 0 1-1 3l-2 2-2-1a5 5 0 0 1 0-1 1 1 0 0 0 1 1l2-2a10 10 0 0 1 1-3zM278 372z"/><path class="cls-6" d="M278 372a10 10 0 0 0-1 3l-2 2a1 1 0 0 1 0-1 21 21 0 0 0 0-6v-2a17 17 0 0 1 3 4z"/><path class="cls-6" d="M271 378c0 3 0 5-3 6a22 22 0 0 0 0-6c-2-6-4-14-8-18h-1l6 12v2h-1c-3-9-11-16-13-25v-6l-6-3-3-9c-6-19-13-39-13-59v-2c-9 1-12-15-11-21l11-4c4-1 10-4 14-8l4 16c2 5 3 11 6 16a352 352 0 0 1 5 39c1 9 1 19 4 28l11 15c4 6 5 13 5 21a17 17 0 0 0-3-4 28 28 0 0 0-2-12l-1 1 2 9a28 28 0 0 0-4-2 38 38 0 0 0-2-7v1a41 41 0 0 1 1 5l1 8a43 43 0 0 1 1 7z"/><path class="cls-5" d="M275 368v2a21 21 0 0 1 0 6 2 2 0 0 0-1 0 5 5 0 0 0 0 2 3 3 0 0 1-2 1v-1a5 5 0 0 1 0-1 9 9 0 0 0 2-3 24 24 0 0 0 0-6v-2a16 16 0 0 1 1 2z"/><path class="cls-5" d="M275 368a16 16 0 0 0-1-2l-2-9 1-1a28 28 0 0 1 2 12z"/><path class="cls-6" d="M274 368a24 24 0 0 1 0 6 9 9 0 0 1-2 3 59 59 0 0 0-2-13 28 28 0 0 1 4 2v2z"/><path class="cls-5" d="M272 379v2l-1-3a43 43 0 0 0 0-7l-2-8 1 1a59 59 0 0 1 2 13 5 5 0 0 0 0 1v1z"/><path class="cls-5" d="M271 378l1 3c0 3-1 6-4 4v-1c3-1 3-3 3-6zM270 364l-1-1a41 41 0 0 0-1-5s0-1 0 0a38 38 0 0 1 2 6z"/><path class="cls-5" d="M268 378a22 22 0 0 1 0 6v1c0 2-1 3-4 1a1 1 0 0 1 0-1 1 1 0 0 1 1 0c4 1 2-7 0-11v-2l-6-12h1c4 4 6 12 8 18z"/><path class="cls-7" d="M217 249h2c-2 6 1 22 10 21v2c0 20 7 40 14 59l2 9 6 3v6c2 9 10 16 13 25h1c2 4 4 12 0 11a1 1 0 0 0-1 0c0-10-7-22-16-26a1 1 0 0 0-1 1 19 19 0 0 1-1 8c-1 2-7 7-7 2a30 30 0 0 1 0-5c2-7-3-13 0-19a1 1 0 0 0 1-1c-4-17-10-33-15-50l-7-22-13-22a38 38 0 0 0 12-2z"/><path class="cls-5" d="M264 385a1 1 0 0 0 0 1v-1c-3-8-7-19-15-24 0 4-1 8-4 11-2 1-6 3-7 1a6 6 0 0 1-1-5 28 28 0 0 0 0-10c-1-5-2-10 2-13v1c-3 6 2 12 0 19a30 30 0 0 0 0 5c0 5 6 0 6-2a19 19 0 0 0 2-8 1 1 0 0 1 1-1c9 4 16 16 16 26zM260 306l3 29a1 1 0 0 1-1 1v-1 1c-3-9-3-19-3-28a352 352 0 0 0-6-39 226 226 0 0 1 7 37zM253 269c-3-5-4-11-6-16l-4-16a10 10 0 0 0 1-1c3 5 4 11 5 16l4 17z"/><path class="cls-8" d="M248 51a15 15 0 0 1-10 14v-1c3-2 6-4 7-7l2-5a8 8 0 0 1-2 1 19 19 0 0 1-11 2l1-1a23 23 0 0 1 5 0 17 17 0 0 0 7-4 1 1 0 0 1 1 1z"/><path class="cls-9" d="M247 52l-2 5c-1 3-4 5-7 7v1c4 10 0 23-4 34-7-1-16-4-21-7 0 3 1 6-1 9a19 19 0 0 1-5-5 34 34 0 0 1-4-7 55 55 0 0 0-8 6c0-9 1-18 6-25v-1a51 51 0 0 0 12-3c4-2 16-6 21-11a19 19 0 0 0 11-2 8 8 0 0 0 2-1z"/><path class="cls-10" d="M219 249h-2a11 11 0 0 1-2-1 26 26 0 0 0 2-1 79 79 0 0 0 11-4 84 84 0 0 0 9-5l7-6a1 1 0 0 1 1 0 1 1 0 0 1 0 1 6 6 0 0 1-1 3 10 10 0 0 1-1 1c-4 4-11 6-14 8l-10 4z"/><path class="cls-10" d="M245 232a1 1 0 0 0-1 0l-3-6a18 18 0 0 0 2-2 61 61 0 0 1 2 8z"/><path class="cls-11" d="M244 232l-7 5a84 84 0 0 1-9 6 79 79 0 0 1-11 4 26 26 0 0 1-2 1l-7-9c11-2 25-6 33-13l3 6z"/><path class="cls-8" d="M238 33c4 4 5 9 3 14a12 12 0 0 1-4 6 14 14 0 0 1-2 1 8 8 0 0 0 2-3 11 11 0 0 0 4-9l-3-7a14 14 0 0 1 0 4c-2 4-5 7-9 6v-1a11 11 0 0 0 2 0h1c4-1 5-6 5-10a1 1 0 0 1 1-1z"/><path class="cls-10" d="M243 224a18 18 0 0 1-2 2 128 128 0 0 0-21-33l-21-21a24 24 0 0 0 1-3c8 7 15 16 22 24 8 9 16 19 21 31z"/><path class="cls-12" d="M237 51a13 13 0 0 1-4 3v1h1c-5 5-17 9-21 11a51 51 0 0 1-12 3c-10 1-20 5-30 5l19-10c1-1 0-2-1-2-19 9-44 3-63-6-14-6-29-24-45-18 8-10 23-11 35-14v-1a84 84 0 0 0-20 4 118 118 0 0 1 19-12c11-2 27-2 35 2l-22 8c16-4 19 10 31 15 8 4 20 5 29 5 13 0 29-2 40-10a50 50 0 0 1 2 9 11 11 0 0 1-1 0v1c4 1 7-2 9-6a14 14 0 0 0 0-4l3 7a11 11 0 0 1-4 9z"/><path class="cls-5" d="M240 345a1 1 0 0 1-1 1v-1c-7-15-10-32-15-47-2-8-4-17-8-25a155 155 0 0 0-8-15v-1l-3-6 13 22 7 22c5 17 11 33 15 50z"/><path class="cls-8" d="M238 65c5 10 2 23-1 34h-3c4-11 8-24 4-34zM237 99a220 220 0 0 1-5 13l-3 1a100 100 0 0 0 5-13v-1h3zM237 51a8 8 0 0 1-2 3l-1 1h-1v-1a13 13 0 0 0 4-3z"/><path class="cls-13" d="M96 190v-3h-1v3l-1 1a118 118 0 0 1-9 8c-3-9-7-19-13-26l11-8c8-6 16-8 26-9a1 1 0 0 0 1 0 41 41 0 0 0 8-1c-5 17 6 35 23 41 18 5 50-4 58-24l21 21a128 128 0 0 1 21 33c-8 7-22 11-33 13l-2-1c-4-6-5-15-10-20-2 2-2 7-2 10a45 45 0 0 0-10-13c-1 7 0 18 5 23l-18-9c2 6 8 11 11 16l4 16c2 10 4 21 2 30-2 11-13 32-24 39h-3c-15-1-29-2-43-6a206 206 0 0 1-25-7l-4-8c-8-18 0-45 2-65a470 470 0 0 0 4-47l1-7z"/><path class="cls-12" d="M234 99v1a100 100 0 0 1-5 13c-5 2-9 4-15 3-4 0-10-1-12-6a37 37 0 0 0-6 3l-1-7V95a55 55 0 0 1 8-6 34 34 0 0 0 4 7 19 19 0 0 0 5 5c2-2 1-6 1-9 5 3 14 6 21 7z"/><path class="cls-8" d="M230 34a32 32 0 0 1 2 10h-1-1a50 50 0 0 0-2-9l2-1z"/><path class="cls-8" d="M230 34l-2 1a39 39 0 0 0-4-8l3-1a30 30 0 0 1 3 8zM229 113l3-1a66 66 0 0 1-5 10c-2 3-5 8-8 8a15 15 0 0 0 0-2l7-9 3-6z"/><path class="cls-14" d="M217 124a10 10 0 0 0-3-4c-4-3-9 0-11 4a22 22 0 0 1-6 3l1-3-1-1-3 1c2-3 2-7 2-11a37 37 0 0 1 6-3c2 5 8 6 12 6 6 1 10-1 15-2l-3 5-7 9a12 12 0 0 0-2-4z"/><path class="cls-8" d="M227 26l-3 1a38 38 0 0 0-10-11 75 75 0 0 0-38-13 40 40 0 0 1 8-1V1c16 3 35 11 43 25z"/><path class="cls-9" d="M224 27a39 39 0 0 1 4 8c-11 8-27 10-40 10-9-1-21-1-29-5-12-5-15-19-30-15l21-8c-8-4-24-4-35-2a113 113 0 0 1 61-12l-12 2c8 5 19 6 27 10l-8 4c10 8 27 9 41 8z"/><path class="cls-15" d="M216 529c5 8 10 20 7 29a1 1 0 0 1-2 0v-1-7h1c1 0 2-2 0-2l-1-1a31 31 0 0 0-2-6l-4-12a9 9 0 0 0 1 0z"/><path class="cls-15" d="M223 559v-1a2 2 0 0 1-1 2c-26 2-54 6-80 2-3 0-12 0-14-3l-1-9h2a1 1 0 0 0 1 0v1a20 20 0 0 0 1 7l6 1a109 109 0 0 0 17 2c22 1 45-3 67-4v1a1 1 0 0 0 2 1zM222 548c2 0 1 2 0 2h-1a98 98 0 0 0-15 0 10 10 0 0 1-1-2h17z"/><path class="cls-16" d="M186 550h20a98 98 0 0 1 15 0v7c-22 1-45 5-67 4a109 109 0 0 1-17-2l-6-1a20 20 0 0 1-1-7v-1a1 1 0 0 0 0-2 14 14 0 0 1 1-4c5 5 34 5 37 6h18z"/><path class="cls-17" d="M219 541a31 31 0 0 1 2 6h-16c-1-5 1-12 5-17a11 11 0 0 0 5-1l4 12z"/><path class="cls-18" d="M209 430c6 28 16 58 11 87l-2-1a168 168 0 0 0-2-45c-3-17-9-33-11-49-3-16-1-32-2-48s-3-31-1-47c-1 17 3 33 3 50 1 18-1 35 4 53z"/><path class="cls-5" d="M219 128a15 15 0 0 1-2 7 25 25 0 0 1-11 12c-3 1-7 1-8-2a10 10 0 0 0 0-1l1-1a1 1 0 0 0 0-1c1 2 1 4 3 4a11 11 0 0 0 6-2c3-2 6-5 7-8 2-3 3-8 1-12h1a12 12 0 0 1 2 4z"/><path class="cls-19" d="M200 349c-7-6-19-6-27-12-2 2-2 6-3 10 10 2 19 7 29 8a19 19 0 0 0 1-6zm16 122a168 168 0 0 1 1 45 133 133 0 0 0-18-8c2-10 4-21 3-24-1-9-1-18-4-27-1-5-1-10-6-12-4-1-10 1-13 3 1-8 10-13 10-20l-18 3a129 129 0 0 1 19-11c-4-8-6-17-8-26-7-24-17-47-42-54a76 76 0 0 0-9-2v-9a213 213 0 0 0 40 4c11 0 21-4 31-6-2 16 0 32 1 47s-1 32 2 48c2 16 8 32 11 49z"/><path class="cls-18" d="M220 517a75 75 0 0 1-3 10 1 1 0 0 0-1-1l2-10 2 1z"/><path class="cls-6" d="M216 124c2 3 1 9-1 12-1 3-4 6-7 8a11 11 0 0 1-6 2c-2 0-2-2-3-4l4-4a69 69 0 0 1 5-6c2-2 3-1 5 0h1c-1-5-7-2-9 0a37 37 0 0 0-5 6 47 47 0 0 1 5-9c3-4 7-4 11-5z"/><path class="cls-18" d="M210 530c-6 0-12-3-17-5h-1a8 8 0 0 0 1-2c8 3 17 6 22 3a1 1 0 0 1 1 0 1 1 0 0 1 1 1 1 1 0 0 1 0 1l-1 1a9 9 0 0 1-1 0 11 11 0 0 1-5 1z"/><path class="cls-20" d="M218 516l-2 10a1 1 0 0 0-1 0c-5 3-14 0-22-3l6-15a133 133 0 0 1 19 8z"/><path class="cls-5" d="M217 124h-1a8 8 0 0 0-2-2c-3-3-5-3-8-1h-1a36 36 0 0 1-3 3c3-4 8-7 12-4a10 10 0 0 1 3 4z"/><path class="cls-14" d="M224 27c-14 1-31 0-41-8l8-4c-8-4-19-5-27-10l12-2h3c12 1 25 5 35 13a38 38 0 0 1 10 11z"/><path class="cls-10" d="M215 248a11 11 0 0 0 2 1 38 38 0 0 1-12 2h-1v-1a8 8 0 0 1 1 0l10-2z"/><path class="cls-7" d="M214 122a8 8 0 0 1 2 2c-4 1-8 1-11 5a47 47 0 0 0-5 9l-1 2-2 2a64 64 0 0 1-16 11 27 27 0 0 0 3-4 55 55 0 0 0 5-23h1a1 1 0 0 0 1 1l5-1-1 3a1 1 0 0 0 1 1c4-2 8-5 10-9 3-2 5-2 8 1z"/><path class="cls-5" d="M214 132c-3-1-4-2-6 0a69 69 0 0 0-5 6l-4 4a1 1 0 0 0-1 0l2-4a37 37 0 0 1 5-6c2-2 9-5 9 0z"/><path class="cls-21" d="M208 239c2 3 4 7 7 9l-10 2-4-9 7-2z"/><path class="cls-10" d="M210 324a1 1 0 0 1-2 1 14 14 0 0 0-3 1 1 1 0 0 0-1-2 10 10 0 0 1 3-1c-4-22 1-44 1-66l1 1c0 22-3 44 1 66z"/><path class="cls-22" d="M194 228a13 13 0 0 1 1 1 41 41 0 0 0 1 5 48 48 0 0 0 2 7 45 45 0 0 0 6 10 1 1 0 0 0 1 0l3 6c0 22-5 44-1 66a10 10 0 0 0-3 1l-20 5c-7 2-14 2-20 1 11-7 22-28 24-39 2-9 0-20-2-30l-4-16c-3-5-9-10-11-16l18 9c-5-5-6-16-5-23a45 45 0 0 1 10 13z"/><path class="cls-22" d="M206 238l2 1-7 2-1-1a103 103 0 0 1-5-13s-1 0 0 0v2a13 13 0 0 0-1-1c0-3 0-8 2-10 5 5 6 14 10 20z"/><path class="cls-8" d="M206 121c-2 4-6 7-10 9a1 1 0 0 1-1-1l1-3-5 1a1 1 0 0 1-1-1c4-3 4-7 4-12a15 15 0 0 1 2-1c0 4 0 8-2 11l3-1 1 1-1 3a22 22 0 0 0 6-3 36 36 0 0 0 2-3h1z"/><path class="cls-15" d="M205 548a10 10 0 0 0 1 2h-20l-1-2h20z"/><path class="cls-10" d="M204 324a1 1 0 0 1 1 2 1 1 0 0 1-1 0l-2 1c-10 2-20 6-31 6l-12-1a17 17 0 0 0 5-2c6 1 13 1 20-1l20-5zM205 251a1 1 0 0 1-1 0h1zM205 250a8 8 0 0 0-1 0v1a45 45 0 0 1-6-10h3l4 9z"/><path class="cls-23" d="M192 525h1c5 2 11 5 17 5-4 5-6 12-5 18h-20c-8-13-25-20-40-15l9-12c13-4 26 0 38 4z"/><path class="cls-24" d="M202 484c1 3-1 14-3 24-16-6-33-9-47-5-4-21-7-41-12-61l-16-72 2-5c3-2 7-5 7-8l-1-19a76 76 0 0 1 8 2c25 7 35 30 42 54 2 9 4 18 8 26a129 129 0 0 0-19 11l18-3c0 7-9 12-10 20 3-2 9-4 13-3 5 2 5 7 6 12 3 9 3 18 4 27z"/><path class="cls-8" d="M201 69v1c-5 7-6 16-6 25l-1 1v-3c0-8 1-17 6-23a7 7 0 0 0 1 0v-1zM201 69z"/><path class="cls-8" d="M201 69v1a7 7 0 0 1-1 0 91 91 0 0 1-33 5 1 1 0 0 1-1-2c6-1 11-4 16-7-16 4-35 0-50-5-8-4-16-8-23-14h-1l-1-1a61 61 0 0 0-9-4l1-1h-1v1a35 35 0 0 0-19-3v-1h2c16-6 31 12 45 18 19 9 44 15 63 6 1 0 2 1 1 2l-19 10c10 0 20-4 30-5z"/><path class="cls-10" d="M200 240l1 1h-3a48 48 0 0 1-2-7 10 10 0 0 0-1-5v-2a103 103 0 0 0 5 13zM200 169a24 24 0 0 1-1 3l-10-9 1-1a53 53 0 0 1 10 7z"/><path class="cls-25" d="M200 349a19 19 0 0 1-1 6c-10-1-19-6-29-8 1-4 1-8 3-10 8 6 20 6 27 12z"/><path class="cls-5" d="M199 140l1-2-2 4a1 1 0 0 0-1 0l2-2z"/><path class="cls-5" d="M198 142a1 1 0 0 1 1 0 1 1 0 0 1 0 1l-1 1a29 29 0 0 1-4 5c-6 5-13 8-21 10v-1c3 0 6-3 8-5a64 64 0 0 0 16-11 1 1 0 0 1 1 0z"/><path class="cls-5" d="M198 144a10 10 0 0 1 0 1l-6 12-2 5-1 1a30 30 0 0 1-3 5h-1l6-13 3-6a29 29 0 0 0 4-5zM197 142z"/><path class="cls-10" d="M195 229a10 10 0 0 1 1 5 41 41 0 0 1-1-5z"/><path class="cls-7" d="M194 114c0 4 0 9-4 12h-1a103 103 0 0 0-1-21c-1-5-2-16-5-20h1c-2-6-8-9-14-9v-1c10 0 21-2 30-5-5 6-6 15-6 23v21z"/><path class="cls-8" d="M195 106l1 7a15 15 0 0 0-2 1v-5-13l1-1v11z"/><path class="cls-25" d="M199 508l-6 15-6-3c-11-3-22-5-33-2l-2-15c14-4 31-1 47 5z"/><path class="cls-11" d="M189 163l10 9c-8 20-40 29-58 23-17-5-28-23-23-40a58 58 0 0 0 7-1l2 1c-7 12 4 28 17 30a55 55 0 0 0 26-4c5-2 14-6 16-13a30 30 0 0 0 3-5z"/><path class="cls-18" d="M193 523a8 8 0 0 1-1 2c-12-4-25-8-38-4a1 1 0 0 1-2 0 1 1 0 0 1 0-1 1139 1139 0 0 1 0-17l2 15c11-3 22-1 33 2l6 3z"/><path class="cls-7" d="M194 149l-3 6-6 13c-5 3-8 8-13 10a43 43 0 0 1-12 4c4-6-2-16-8-21h6a64 64 0 0 0 15-2c8-2 15-5 21-10z"/><path class="cls-6" d="M105 66l1-10c7 5 15 8 23 11 10 5 21 8 32 9l-3 3c5 4 14 1 20 3l4 3c4 4 5 15 6 20a103 103 0 0 1 1 21 55 55 0 0 1-5 23 27 27 0 0 1-3 4 59 59 0 0 1-24 5 72 72 0 0 1-42-13c-14-10-18-25-15-41a170 170 0 0 0 4-25v-1l1-12zm25 48a9 9 0 0 0 2 9c2 2 5 3 8 3 2-1 7-2 7-4v-1a8 8 0 0 0 2-5c-4 2-14 3-18-1 1-2 2-4 4-4a5 5 0 0 0-5 3zm46-5c1-5 0-12-5-14a1 1 0 0 1-1 0c-2-1-9-1-10 3a10 10 0 0 1 4-1 13 13 0 0 0-2 4c-4 4-4 13 1 15 6 4 11-1 13-7zm-12 22a1 1 0 0 0 0-1 5 5 0 0 1-2-2h-1a3 3 0 0 0 0 1c-8 8-22 9-30 1a1 1 0 0 0 0-1 2 2 0 0 1-1 0l-1 1a7 7 0 0 1-1 2v1a5 5 0 0 0 2-2 18 18 0 0 0 6 3c1 3 1 8 4 9 2 2 6 2 9 2 7-1 11-7 12-14h1a4 4 0 0 0 1 1 1 1 0 0 0 1-1zm-13 21v-1c-4 1-8 1-11-2 0-1 0 0 0 0 3 3 8 5 11 3zm-17-79h1c-6-5-17-6-22 1 4-2 7-2 11-2l10 1zm-6 29c2-5 1-11-4-13-3-1-10-2-11 2a10 10 0 0 1 4-1 13 13 0 0 0-3 5c-2 2-2 5-2 8a8 8 0 0 0 3 7c6 4 12-2 13-8z"/><path class="cls-10" d="M185 168h1c-2 7-11 11-16 13a56 56 0 0 1-12 3 9 9 0 0 0 2-2 43 43 0 0 0 12-4c5-2 8-7 13-10z"/><path class="cls-15" d="M185 548l1 2h-18c-3 0-32 0-37-5a2 2 0 0 1 0-3 2 2 0 0 0 1 2 375 375 0 0 0 45 4h8z"/><path class="cls-17" d="M185 548h-8l-29-1c-3 0-13 0-16-3a12 12 0 0 1 4-5 33 33 0 0 0 6-3v-1a1 1 0 0 0 1-1l2-1c15-5 32 2 40 15z"/><path class="cls-8" d="M184 85h-2a5 5 0 0 0 0-1 9 9 0 0 0-4-2 19 19 0 0 0-4-2l-10-3a22 22 0 0 1 6-1c6 0 12 3 14 9zM184 1v1a40 40 0 0 0-8 1 113 113 0 0 0-61 12 38 38 0 0 0-6 1c22-13 48-19 73-15h2z"/><path class="cls-8" d="M182 84a5 5 0 0 1 0 1l-4-3a9 9 0 0 1 4 2z"/><path class="cls-5" d="M152 161a79 79 0 0 1-24-6h-1l-2-1-3-1a59 59 0 0 1-8-6c-12-8-18-20-17-34v-2-3-2l2-6a1 1 0 0 0 0-1v-1l1-5 2-16v-1a18 18 0 0 0 2 2v1a170 170 0 0 1-4 25c-3 16 1 31 15 41a72 72 0 0 0 42 13 59 59 0 0 0 24-5c-2 3-5 5-8 6a64 64 0 0 1-15 2h-6zM171 95c5 2 6 9 5 14-2 6-7 11-13 7-5-2-5-11-1-15a13 13 0 0 1 2-4 9 9 0 0 1 3 0l-4 5c-1 4-4 10 1 12 5 3 9-1 10-6h1a9 9 0 0 0-4-13z"/><path d="M171 95a9 9 0 0 1 4 13h-1c0-3 1-5-1-7a11 11 0 0 0-4-3 13 13 0 0 0-2-1 9 9 0 0 0-3 0 10 10 0 0 0-4 1c1-4 8-4 10-3a1 1 0 0 0 1 0z"/><path class="cls-7" d="M174 80a19 19 0 0 1 4 2c-6-2-15 1-20-3l3-3c-11-1-22-4-32-9-8-3-16-6-23-11l2-9 1 1c7 5 15 10 23 13 15 5 34 9 50 5-5 3-10 6-16 7a1 1 0 0 0 1 2h3v1a22 22 0 0 0-6 1l10 3z"/><path class="cls-5" d="M164 130a1 1 0 0 1 0 1 1 1 0 0 1-1 0 4 4 0 0 1-1-1 3 3 0 0 1-1-1 3 3 0 0 1 0-1h1a5 5 0 0 0 2 2z"/><path class="cls-10" d="M161 330h3a17 17 0 0 1-5 2 333 333 0 0 1-28-3h-1l-11-2a220 220 0 0 1-25-7 25 25 0 0 1-1-3 206 206 0 0 0 25 7c14 4 28 5 43 6z"/><path class="cls-5" d="M162 131h-1-1v1c-7 5-16 6-24 3l-1-2v1a5 5 0 0 1 1 1 18 18 0 0 1-6-4l1-1c8 8 22 7 30-1a3 3 0 0 0 1 2z"/><path class="cls-5" d="M160 131h1c-1 7-5 13-12 14l-9-1c-3-2-3-7-4-9a5 5 0 0 0-1-1v-1l1 2a21 21 0 0 1 2 2 13 13 0 0 1 1 2 9 9 0 0 0 1 2c2 2 4 3 8 3a14 14 0 0 0 4-1l1-1a14 14 0 0 0 5-5 3 3 0 0 0 0-1 21 21 0 0 0 2-4v-1z"/><path class="cls-6" d="M152 161c6 4 12 15 8 21a66 66 0 0 1-8 1c-7 1-14-1-19-6a18 18 0 0 1-5-22 79 79 0 0 0 24 6z"/><path class="cls-10" d="M160 182a9 9 0 0 1-2 2 57 57 0 0 1-14 1c-13-2-24-18-17-30h1a18 18 0 0 0 5 22c5 5 12 7 19 6a66 66 0 0 0 8-1z"/><path class="cls-1" d="M158 136a3 3 0 0 1 0 1c-5 2-13 3-19 1a9 9 0 0 1-1-1c7 3 13 0 20-1z"/><path class="cls-15" d="M154 521l-9 12a17 17 0 0 0-2 0 1 1 0 0 0-1 0h-1l1-1h2a11 11 0 0 0 0-2l8-9a1 1 0 0 0 2 0z"/><path d="M158 137a14 14 0 0 1-5 5c-2-2-4-1-7-2a11 11 0 0 0-6 1 9 9 0 0 1-1-2 13 13 0 0 0-1-2 9 9 0 0 0 1 1c6 2 14 1 19-1z" fill="#690000"/><path class="cls-27" d="M153 142l-1 1c-1-2-4-2-6-2a13 13 0 0 0-6 0 11 11 0 0 1 6-1c3 1 5 0 7 2z"/><path class="cls-5" d="M151 151v1c-3 2-8 0-11-3 0 0 0-1 0 0 3 3 7 3 11 2z"/><path class="cls-18" d="M152 503h-2l-4-24-2-9-1-4-5-26-14-69v-1l16 72c5 20 8 40 12 61z"/><path d="M152 143a14 14 0 0 1-4 1c-4 0-6-1-8-3a13 13 0 0 1 6 0c2 0 5 0 6 2z" fill="#df2722"/><path class="cls-5" d="M147 122c0 2-5 3-7 4-3 0-6-1-8-3a9 9 0 0 1-2-9 6 6 0 0 0 1 1c-1 3 0 7 2 8a12 12 0 0 0 8 1 9 9 0 0 0 4-1 12 12 0 0 0 1-1 4 4 0 0 0 1-1v1z"/><path class="cls-7" d="M146 122a12 12 0 0 1-1 1 9 9 0 0 1-4 1 12 12 0 0 1-8-1c-2-1-3-5-2-8 4 4 14 3 18 1a8 8 0 0 1-2 5 3 3 0 0 0-1 1z"/><path class="cls-5" d="M147 121a4 4 0 0 1-1 1 3 3 0 0 1 1-1z"/><path class="cls-15" d="M145 533l-2 2a1 1 0 0 0 0-2 17 17 0 0 1 2 0z"/><path class="cls-18" d="M143 466l1 4a976 976 0 0 0-4 37v-10l3-31z"/><path class="cls-15" d="M144 530a11 11 0 0 1 0 2h-2v-6a46 46 0 0 0-1-5h1a17 17 0 0 1 1 5l1 4z"/><path class="cls-18" d="M143 511l1 9a1 1 0 0 1-1 1 1 1 0 0 0-1-2h-1l-1-6v-6l3-1v5z"/><path class="cls-18" d="M142 519a1 1 0 0 1 1 2 1 1 0 0 1-1 0h-1a90 90 0 0 1-16 1 27 27 0 0 1 3-3h13z"/><path class="cls-15" d="M143 533a1 1 0 0 1 0 2 1 1 0 0 1-1 0h-3a2 2 0 0 0-1 0 29 29 0 0 1 5-2z"/><path class="cls-15" d="M142 533a1 1 0 0 1 1 0 29 29 0 0 0-5 2l-20 1 1-2 22-1h1z"/><path class="cls-17" d="M142 532l-1 1-22 1a71 71 0 0 1 6-12 90 90 0 0 0 16-1 46 46 0 0 1 0 5l1 6z"/><path class="cls-15" d="M142 535v1a33 33 0 0 1-6 4 12 12 0 0 0-4 4 2 2 0 0 1-1-2 2 2 0 0 0 0 3 14 14 0 0 0-1 4 1 1 0 0 0-1-1h-1v-1c2-6 5-7 10-11h1l3-1zM141 519z"/><path class="cls-20" d="M128 519l-18-1c4-3 7-9 10-12v-1l20 2v6l1 6h-13z"/><path class="cls-19" d="M143 466a497 497 0 0 0-3 41l-20-2a40 40 0 0 0 6-22l2-27c1-14-4-6-13-9a76 76 0 0 1 10-10 190 190 0 0 1-18-9h16c0-17-3-39 1-57l14 69 5 26z"/><path class="cls-16" d="M118 536l20-1a2 2 0 0 1 1 0l-1 1c-5 4-8 5-10 11v1l-40-1c-14 0-28-3-42-6l2-10c11 5 24 6 36 6h3a298 298 0 0 0 31-1z"/><path class="cls-5" d="M135 111c-2 0-3 2-4 4a6 6 0 0 1-1-1 5 5 0 0 1 5-3z"/><path class="cls-8" d="M135 73h-1l-10-1c-4 0-8 0-11 2 0 0-1 0 0 0 5-7 16-6 22-1z"/><path class="cls-18" d="M126 365a20 20 0 0 1-2 1h-1 1l5-6c3-4 2-8 2-12l-1-10h2l1 19c0 3-4 6-7 8zM132 338h-2a65 65 0 0 1 0-9h1l1 9z"/><path class="cls-24" d="M131 348c0 4 1 8-2 12l-5 6-4-31a35 35 0 0 0 3 1l7 2 1 10z"/><path class="cls-5" d="M131 129a1 1 0 0 1 0 1l-1 1a5 5 0 0 1-2 2v-1a7 7 0 0 0 1-2l1-1a2 2 0 0 0 1 0z"/><path class="cls-19" d="M130 329a65 65 0 0 0 0 9l-7-2a35 35 0 0 1-3-1l-1-8 11 2z"/><path class="cls-15" d="M130 549a1 1 0 0 1 0 1 1 1 0 0 1-1 0h-2a379 379 0 0 1-43 0c-13-1-28-3-40-8v-1h2c14 3 28 6 42 6l40 1h1a1 1 0 0 1 1 1z"/><path d="M124 89c4 3 6 9 3 13l-1-7a11 11 0 0 0-4-3 14 14 0 0 0-2-1 11 11 0 0 0-3-1 10 10 0 0 0-4 1c1-4 8-3 11-2z"/><path class="cls-5" d="M127 102c3-4 1-10-3-13 5 2 6 8 4 13-1 6-7 12-13 8a8 8 0 0 1-3-7c0-3 0-6 2-8a13 13 0 0 1 3-5 11 11 0 0 1 3 1 9 9 0 0 0-4 4c-1 4-5 10 0 13s9-2 11-6z"/><path class="cls-24" d="M115 447c9 3 14-5 13 9l-2 27a40 40 0 0 1-6 22l-16-2c-9-1-19-2-27-6 2-8 2-16 2-24l-3-43c-1-19 1-37 2-56l2-30 10-2a59 59 0 0 1 0-8 51 51 0 0 1-9 1l1-10c7 4 18 4 25 6 4 0 8 2 12 4 1 11 1 23 4 34l1 2c-4 18-1 40-1 57h-16a190 190 0 0 0 18 9 76 76 0 0 0-10 10z"/><path class="cls-18" d="M128 519a27 27 0 0 0-3 3l-17-1h-1a19 19 0 0 0 3-3l18 1z"/><path class="cls-10" d="M122 153l3 1a58 58 0 0 1-7 1 18 18 0 0 1 1-2h3z"/><path class="cls-24" d="M126 365l-2 5v-3-1a20 20 0 0 0 2-1z"/><path class="cls-18" d="M124 367v2l-1-4c0-1 0-1 0 0v1h1a6 6 0 0 1 0 1z"/><path class="cls-23" d="M125 522a71 71 0 0 0-6 12l-29 2-7-1c-4-6-9-15-15-18a61 61 0 0 0 8-5c11 3 20 7 31 9h1l17 1z"/><path class="cls-18" d="M124 366v1a6 6 0 0 0 0-1zM124 366h-1v-1s0-1 0 0l1 4h-1c-3-11-3-23-4-34h1l4 31z"/><path class="cls-25" d="M120 505v1c-3 3-6 9-10 12-14-1-25-7-38-10a43 43 0 0 0 5-11c8 4 18 5 27 6l16 2z"/><path class="cls-18" d="M120 335h-1v-8l1 8z"/><path class="cls-19" d="M94 320a220 220 0 0 0 25 7v8c-4-2-7-4-12-4-7-2-18-2-25-6l1-9 11 4z"/><path class="cls-15" d="M119 534l-1 2a298 298 0 0 1-31 1h-3l-1-2 7 1 29-2z"/><path class="cls-10" d="M119 153a18 18 0 0 0-1 2 41 41 0 0 1-8 1 25 25 0 0 1-5-1v-1h2l10-1h2z"/><path class="cls-8" d="M116 23v1c-12 3-27 4-35 14h-2c3-5 9-8 15-11h2a84 84 0 0 1 20-4z"/><path class="cls-18" d="M107 521c-11-2-20-6-31-9h-1l-5-2a1 1 0 0 1-1-2 42 42 0 0 0 6-13 19 19 0 0 0 2 2 43 43 0 0 1-5 11c13 3 24 9 38 10a19 19 0 0 1-3 2v1z"/><path class="cls-8" d="M109 16a38 38 0 0 1 6-1 118 118 0 0 0-19 12h-2a99 99 0 0 1 15-11z"/><path class="cls-10" d="M110 156a1 1 0 0 1-1 0c-10 1-18 3-26 9l-11 8a17 17 0 0 0-1-1 98 98 0 0 1 16-12c6-3 13-6 20-6h-2v1a25 25 0 0 0 5 1z"/><path class="cls-5" d="M107 46l1 1-2 9-2-1a70 70 0 0 1 3-9z"/><path class="cls-17" d="M107 521z"/><path class="cls-5" d="M104 55l2 1-1 10-2-2 1-9z"/><path class="cls-14" d="M104 55l-1 9c-3-2-6-4-7-8h-1v2a64 64 0 0 1 3-16 61 61 0 0 1 9 4 70 70 0 0 0-3 9z"/><path class="cls-5" d="M105 66l-1 12a18 18 0 0 1-2-2l1-12 2 2z"/><path class="cls-12" d="M103 64l-1 12a44 44 0 0 1-5-6 16 16 0 0 0-2 3 83 83 0 0 1 0-15v-2h1c1 4 4 6 7 8z"/><path class="cls-14" d="M102 76v1a180 180 0 0 1-3 21 139 139 0 0 1-4-25 16 16 0 0 1 2-3 44 44 0 0 0 5 6z"/><path class="cls-8" d="M99 99a1 1 0 0 1 0 1 1 1 0 0 1-1-1 220 220 0 0 1-3-12v-1l-2-11 2-2a139 139 0 0 0 4 25z"/><path class="cls-5" d="M98 99a1 1 0 0 0 1 1l-2 6v-8c-1-1-3-6-3-2h-1l1-3 3 1 1 5z"/><path class="cls-8" d="M98 41h1l-1 1a64 64 0 0 0-3 16 12 12 0 0 1-2 2 54 54 0 0 1 5-18v-1z"/><path class="cls-7" d="M97 106v5c-7-5-7-17-2-24l1 7-2-1c-2 0-1 2-1 3 1-4 3 1 4 2v8z"/><path class="cls-5" d="M97 111v2a1 1 0 0 1-1 0c-8-5-9-21-1-27v1c-5 7-5 19 2 24z"/><path class="cls-10" d="M95 187h1v3l-1 1v-1-3z"/><path class="cls-10" d="M96 190l-1 7v-6l1-1zM94 191l1-1v1a1 1 0 0 1-1 0z"/><path class="cls-10" d="M94 191a1 1 0 0 0 1 0v6l-3 17a1 1 0 0 0-1-1l3-22z"/><path class="cls-8" d="M95 58a83 83 0 0 0 0 15l-2 2a87 87 0 0 1 0-15 12 12 0 0 0 2-2z"/><path class="cls-11" d="M92 214l3-17a470 470 0 0 1-4 47c-2 20-10 47-2 65l3 8-15-6c-4-2-3-3-2-5a42 42 0 0 0 3-9c5-17 7-36 10-54l4-28a1 1 0 0 0 0-1z"/><path class="cls-10" d="M93 317a25 25 0 0 0 1 3l-11-4-1-1-10-4a1 1 0 0 1 0-2c3-6 4-14 6-21a67 67 0 0 1 3-12h1c-3 7-3 14-4 21a42 42 0 0 1-2 9c-2 2-3 3 1 5l16 6zM92 214a1 1 0 0 1 0 1 9 9 0 0 1-2 2 3 3 0 0 1-1 1v-3a13 13 0 0 0 1-1 1 1 0 0 1 1-1 1 1 0 0 1 1 1z"/><path class="cls-13" d="M94 191l-3 22a1 1 0 0 0-1 1 13 13 0 0 1-1 1l-4-16a118 118 0 0 0 9-8z"/><path class="cls-10" d="M90 217a9 9 0 0 0 2-2l-4 28c-3 18-5 37-10 54 1-7 1-14 4-21h-1a67 67 0 0 0-3 12l8-45 4-26z"/><path class="cls-25" d="M90 334a59 59 0 0 0 0 8l-10 2 1-9a51 51 0 0 0 9-1z"/><path class="cls-10" d="M89 215v3l-1 1a45 45 0 0 1-7 3 5 5 0 0 0 1-1 42 42 0 0 0 7-6z"/><path class="cls-21" d="M85 199l4 16a42 42 0 0 1-7 6c1-5-2-13-3-17l6-5z"/><path class="cls-11" d="M72 173c6 7 10 17 13 26l-6 5-1-1a77 77 0 0 0-5-13c-3-4-4-9-8-11l7-6z"/><path class="cls-15" d="M83 535l1 2c-12 0-25-1-36-6l-1-1v-1h1c11 5 23 6 35 6z"/><path class="cls-18" d="M82 315l1 1-1 9a15 15 0 0 1-1-1l1-9z"/><path class="cls-10" d="M79 204c1 4 4 12 3 17a5 5 0 0 1-1 1 4 4 0 0 1-1 2 1 1 0 0 1-1 0 1 1 0 0 1 0-1l-1-1v-8l-2-8 3-2z"/><path class="cls-18" d="M82 325l-1 10-2 1 2-12a15 15 0 0 0 1 1z"/><path class="cls-18" d="M81 335l-1 9a16 16 0 0 0-2 0l1-8z"/><path class="cls-18" d="M79 474c0 7 0 15-2 23a19 19 0 0 1-2-2c2-9 2-19 2-28l-3-42a1041 1041 0 0 1 4-81 16 16 0 0 1 2 0l-2 30c-1 19-3 38-2 56 1 14 3 29 3 44z"/><path class="cls-5" d="M79 223a1 1 0 0 0 0 1c-3 3-8 4-13 6a93 93 0 0 1-17 5c-6 1-13 2-17-3a6 6 0 0 1-1-1s0-1 0 0a9 9 0 0 0 1 1c6 5 17 1 23 0a118 118 0 0 0 14-6l9-4 1 1z"/><path class="cls-7" d="M78 214v8l-9 4a118 118 0 0 1-14 6c-6 2-17 5-23 0-11-30-18-64-14-95h1v-1l-9-7a19 19 0 0 1-3-6c1-7-2-13-4-20 3 5 5 11 9 16 5 9 8 15 19 13-15 7-7 32-3 42 5 15 9 37 19 45 9-2 20-7 29-13l2 8z"/><path class="cls-10" d="M78 203l1 1-3 2v-2a72 72 0 0 0-11-23l-1-1v-1a1 1 0 0 1 1 0c4 2 5 7 8 11a77 77 0 0 1 5 13z"/><path class="cls-6" d="M26 103a119 119 0 0 1 13-3h-1c-4-8-3-18-1-27l4 8c0 9 2 18 3 26-5 0-13 2-15 7a31 31 0 0 1 7-4l8-2h1c1-5 9-10 13-7l-8 13-1 8c-2 4-5 6-8 8v1a6 6 0 0 0 3-1c1 11 5 21 9 31a153 153 0 0 1 6 33h1a51 51 0 0 0 0-9 9 9 0 0 0 3-2 18 18 0 0 0 2-2 72 72 0 0 1 11 23v2c-9 6-20 11-29 13-10-8-13-30-19-45-4-10-12-35 3-42-11 2-14-4-19-13-4-5-6-11-9-16a37 37 0 0 1-1-7c0-3 2-3 3-1a28 28 0 0 1 3 5c1 3 1 7 3 9h1a45 45 0 0 1 14-6z"/><path class="cls-15" d="M75 512h1a61 61 0 0 1-7 5 10 10 0 0 0-3-1l9-4z"/><path class="cls-17" d="M83 535c-12 0-24-1-35-6 2-6 9-8 15-10a53 53 0 0 0 6-2c5 3 10 12 14 18z"/><path class="cls-10" d="M71 172a17 17 0 0 1 1 1l-7 6a1 1 0 0 0-1 0l7-7z"/><path class="cls-15" d="M66 516a10 10 0 0 1 2 1 53 53 0 0 1-5 2c-6 2-13 4-15 10h-1v1l1 1-2 10h-2c1-9 2-17 11-21l11-4z"/><path class="cls-5" d="M64 180l1 1a18 18 0 0 1-2 2 9 9 0 0 1-3 2 2 2 0 0 1-1 0v-1a2 2 0 0 1 1-1l1-1a18 18 0 0 0 2-2 4 4 0 0 1 1 0z"/><path class="cls-5" d="M60 185a51 51 0 0 1 0 9h-1a153 153 0 0 0-6-33c-4-10-8-20-9-31a12 12 0 0 0 1 0l10 32a111 111 0 0 1 5 21 2 2 0 0 0-1 1v1a2 2 0 0 0 1 0zM59 101h-1c-4-3-12 2-13 7h-1v-1a9 9 0 0 1 1-1 14 14 0 0 1 6-6c3-1 6-2 8 1z"/><path class="cls-5" d="M59 101c0 3-2 5-4 8-3 3-3 7-5 12-1 3-2 7-5 9a12 12 0 0 1-1 0 6 6 0 0 1-3 1v-1c4-2 6-4 8-8l1-8 8-13h1zM42 82c2 7 2 16 3 24a9 9 0 0 0-1 1c-1-8-3-17-3-26v2h1a6 6 0 0 0 0-1zM44 107v1l-8 2a31 31 0 0 0-7 4c2-5 10-7 15-7z"/><path class="cls-5" d="M42 83h-1v-2l-4-8v-1c2 1 4 6 5 10a6 6 0 0 1 0 1zM38 100h1a119 119 0 0 0-13 3v-1l3-1h1l3-1a5 5 0 0 0 0 1h1a6 6 0 0 1 0-1h4z"/><path class="cls-5" d="M37 72v1l-1 2a47 47 0 0 0-2 11v14a6 6 0 0 0 0 1h-1a5 5 0 0 1 0-1c0-8-1-17 1-24 1-4 2-5 3-4z"/><path class="cls-7" d="M36 75l1-2c-2 9-3 19 1 27h-4V86a47 47 0 0 1 2-11z"/><path class="cls-5" d="M32 232a9 9 0 0 1-1-1c-8-14-10-32-13-47-2-16-3-32-1-48h1v1c-4 31 3 65 14 95z"/><path class="cls-5" d="M32 232h-1v-1a6 6 0 0 0 1 1zM30 101h-1l-3-15-2-7a8 8 0 0 0-3-3v-2c7 1 9 22 9 27z"/><path class="cls-6" d="M29 101l-3 1c-2-8-6-18-5-26a8 8 0 0 1 3 3l2 7 3 15z"/><path class="cls-5" d="M26 102v1a45 45 0 0 0-14 6l2-2h1l2-2a39 39 0 0 1 4-2 1 1 0 0 0 2 0l3-1z"/><path class="cls-7" d="M26 102l-3 1a1 1 0 0 0 0-1c-2-8-5-16-4-25l2-1c-1 8 3 18 5 26z"/><path class="cls-5" d="M23 102a1 1 0 0 1 0 1 1 1 0 0 1-2 0c-1-7-4-14-4-21a5 5 0 0 0 1 1v-1a9 9 0 0 0-1-1c0-2 1-7 3-7a3 3 0 0 1 1 0v2l-2 1c-1 9 2 17 4 25z"/><path class="cls-6" d="M21 103a39 39 0 0 0-4 2c0-6-4-13-5-19a12 12 0 0 1 1-3c0-3 3-1 4-1 0 7 3 14 4 21z"/><path class="cls-5" d="M19 136v1h-1v-1h-1c-5-1-9-7-10-13v0a19 19 0 0 0 3 6l9 7zM18 82v1a5 5 0 0 1-1-1c-1 0-4-2-4 1a12 12 0 0 0-1 3 13 13 0 0 1 1-6c1-1 3 0 4 1a9 9 0 0 1 1 1z"/><path class="cls-7" d="M17 105l-2 2-2-17a38 38 0 0 1-1-4c1 6 5 13 5 19z"/><path class="cls-5" d="M15 107h-1c-2-7-4-16-3-23a5 5 0 0 1 2-4 13 13 0 0 0-1 6 38 38 0 0 0 0 4l3 17zM12 109h-1c-2-2-2-6-3-9a28 28 0 0 0-3-5c-1-2-3-2-3 1a37 37 0 0 0 1 7l-3-5c0-2 0-6 2-7 5-2 9 14 9 18zM3 103c2 7 5 13 4 20v0a126 126 0 0 1-6-23l-1-1 3 4z"/></g><path class="cls-29" d="M134 113c-2-1-3 1-4 3a8 8 0 0 0 2 7c2 2 6 2 9 2 1 0 6-1 6-4a1 1 0 0 0-1 0c-1-1-3 0-4 1a13 13 0 0 1-6 0 5 5 0 0 1-4-4c0-2 0-4 2-5z"/><path class="cls-29" d="M134 116a7 7 0 0 0 5 2c2 0 2-3 0-3a24 24 0 0 0-5 0 1 1 0 0 0 0 1zM144 118a1 1 0 0 0 0-2 1 1 0 0 0 0 2zM161 113c-2-5 1-15 7-17 4-1 5 2 7 5 1 4-2 7-2 11a1 1 0 0 0 1 0c7-5 6-21-5-20-4 0-7 4-8 7-2 5-3 10-1 15l1-1zM112 103c0-3 2-6 4-9s4-5 8-4 4 5 4 9-3 6-5 10h1a13 13 0 0 0 7-12c0-4-1-9-5-10-4-2-8-2-11 2s-5 10-3 14z"/><path class="cls-29" d="M107 47c-3 7-3 13-3 21l-6 36c-2 18 4 32 18 43 13 10 31 14 47 12a60 60 0 0 0 24-7c10-6 14-18 24-23v-1c-6 3-11 8-15 12-7 7-15 11-24 14a66 66 0 0 1-52-8c-19-12-21-30-17-51a200 200 0 0 0 4-20c1-9-1-19 1-28h-1z"/><path class="cls-29" d="M202 134l6-4h3s1 2 2 1a1 1 0 0 0 0-1c-1-3-3-2-5-1a28 28 0 0 0-3 3 18 18 0 0 0-3 2z"/><path class="cls-29" d="M200 128l8-5c5-1 7 7 6 10s-4 7-7 9a12 12 0 0 1-3 2c-2 0-3-1-4-3l-2 1c0 5 5 4 8 3a20 20 0 0 0 11-11c1-5-1-11-5-13-5-3-10 3-12 7zM94 89c-7 3-3 26 4 23v-1a18 18 0 0 0-2-3 21 21 0 0 1-2-6 28 28 0 0 1-1-5l2-8h-1zM139 72a5 5 0 0 0 4 1 1 1 0 0 0 0-1 6 6 0 0 0-4-1 1 1 0 0 0 0 1zM147 74a1 1 0 1 0 1-2h-1v2zM144 182c24 7 42-14 51-34h-1l-17 21c-8 9-21 14-33 13zM132 175c-2-4-3-6-2-10 0-3 2-7 1-10a1 1 0 0 0-2 0c-2 3-2 8-2 11a14 14 0 0 0 4 10l1-1zM162 167l6-5c2-2 4-2 4-4 1-1 0-1-1-1l-4 5-5 5zM37 74c-1 5 1 9 1 14a98 98 0 0 1 3 19 1 1 0 0 0 2 0c1-10-1-24-6-33z"/><path class="cls-29" d="M30 115c3-3 8-3 12-4 6-1 8-10 14-8l1-1c-4-5-10 2-13 5-4 3-13 2-15 8h1zM22 76a41 41 0 0 0 2 11l2 12a1 1 0 0 0 2 0c1-3-1-6-2-9-1-5-3-9-3-14h-1zM15 81c-2 6 1 14 3 20a1 1 0 0 0 2-1 35 35 0 0 0-2-8 61 61 0 0 1-2-11h-1zM3 94a26 26 0 0 1 3 7l2 7a1 1 0 0 0 1 1 1 1 0 0 0 1-1 1 1 0 0 0 0-1c-2-3-2-12-7-13zM9 113a38 38 0 0 1 10-4l18-5a1 1 0 0 0 0-2c-7-1-14 2-20 4-3 1-8 3-9 6l1 1zM16 119a17 17 0 0 0 2-1 1 1 0 0 0 1 0l-1-1a1 1 0 0 0-1 0 9 9 0 0 0-1 1v1zM21 117a3 3 0 0 0 2 0v-1a3 3 0 0 0-2 0 1 1 0 0 0 0 1zM6 111c1 7 0 16 5 21 3 3 10 6 13 3a1 1 0 0 0 0-2c-5 0-10-1-13-5-3-5-3-12-5-17zM48 119c-1 4-5 7-8 9a1 1 0 0 0 1 3l5-5a14 14 0 0 0 3-7h-1z"/><path class="cls-29" d="M40 130c3 4 3 9 4 14l5 16c3 11 4 24 8 34a1 1 0 0 0 2 0c3-10-4-25-7-34l-6-20c-2-4-2-8-5-11l-1 1z"/><path class="cls-29" d="M18 139c-5 28 3 55 10 82 6 25 35 10 49 1v-1c-11 3-19 10-31 10-14 0-14-11-18-22a208 208 0 0 1-10-70zM207 253l17 41c6 15 9 30 13 46h1c0-15-5-29-10-43-5-16-10-32-20-45l-1 1zM241 238c2 14 7 29 10 43l5 22 3 27h1c1-16-3-31-5-46a251 251 0 0 0-12-46h-2zM239 346c-2 2-2 4-2 7a41 41 0 0 0 2 6v10c5-7-1-15 1-22a1 1 0 0 0-1-1zM249 360c8 5 15 16 16 25a1 1 0 1 0 2 0c-1-6-4-11-7-16-3-4-6-8-11-9zM267 359c3 7 4 16 1 24a1 1 0 0 0 1 1c3-2 3-6 3-9-2-6-1-11-4-16h-1z"/><path class="cls-29" d="M272 362l-1 7v6a1 1 0 0 0 2 0v-6-7h-1z"/><path class="cls-29" d="M263 340c7 9 15 24 12 36-1 1 1 2 2 1 4-6 0-14-2-20-2-7-6-13-12-17z"/><path class="cls-30" d="M105 34c20 6 36 19 57 22 18 4 40 3 57-6v-1c-22 5-42 8-64 3-18-3-33-14-50-18z"/><path class="cls-30" d="M129 33c24 12 52 20 79 10v-1c-12 1-23 4-35 3a114 114 0 0 1-44-12zM149 34c13 4 27 3 40 2v-1c-13-1-26 1-40-1zM103 22c21-8 43-15 65-15 21-1 46 5 56 25a1 1 0 0 0 1-1c-4-20-28-25-45-27a128 128 0 0 0-77 18zM99 44c-11 15-4 35-1 51h2c1-18-10-33-1-51z"/><path class="cls-30" d="M102 50a108 108 0 0 0-4 17c-1 8 1 16 1 24a1 1 0 0 0 1 0c2-6 1-12 0-18-1-8 1-16 2-23zM226 58c-9 2-22 6-28 14-3 5-3 13-3 19-1 10 3 23-1 32-1 1 0 2 1 2 3-4 3-7 3-11V91c0-11 2-19 11-24 6-4 12-5 17-9z"/><path class="cls-30" d="M171 73c16-2 34-2 47-11a1 1 0 0 0 0-1l-28 7c-6 1-15 0-19 5zM84 36c19 3 34 17 51 24 19 7 36 8 55 3a1 1 0 0 0 0-2c-11 0-22 3-33 1a127 127 0 0 1-30-9c-14-7-27-19-43-17-1 0-1 0 0 0zM88 32c29-8 59-12 90-9v-1a160 160 0 0 0-90 10zM226 47c3 1 8 0 11-1 3-2 6-7 2-10a1 1 0 0 0-1 0l-1 5a6 6 0 0 1-2 3 20 20 0 0 1-9 3zM232 55c2 7 17 3 15-2a1 1 0 0 0-1 0 4 4 0 0 0-2 1 8 8 0 0 1-4 2c-2 1-5 1-8-1zM238 67c-2 19-7 43-19 59h1c7-4 11-15 14-23a86 86 0 0 0 4-36zM217 85c-1 9-5 17-9 25-2 6-8 9-11 15 0 1 1 2 2 1 10-11 18-26 18-41zM207 86c0 14-10 25-10 38 3-12 11-25 11-38h-1zM227 89c-3 11-8 20-14 30a1 1 0 0 0 2 1 94 94 0 0 0 12-31z"/><path class="cls-30" d="M225 110l-4 6-3 6c2-1 3-3 3-5l4-7zM228 76a21 21 0 0 0 1-10c0-2-1-6-4-8a1 1 0 0 0 0 1l3 7a23 23 0 0 1 0 10zM222 73c0-4 0-8-2-12h-1c3 4 2 8 2 12h1zM214 75c0-4 0-8-2-11h-1l2 5a21 21 0 0 1 1 6zM207 74c0-2 0-5-2-7l-1 1 2 6h1z"/><path class="cls-31" d="M126 156c-5 5-4 14-1 20 3 8 12 10 20 12 10 3 21-1 30-5 7-3 17-12 16-20a1 1 0 0 0-2 0c-5 15-22 21-37 22s-32-12-26-28v-1z"/><path class="cls-31" d="M190 165c4 10 14 16 21 24a210 210 0 0 1 28 33c-9-24-31-40-49-57zM196 228l7 21a2 2 0 0 0 2 1c10 0 24-3 31-11v-1c-9 4-16 7-25 8-6 1-7-2-9-7-2-4-3-8-6-11zM97 189c-3 7-4 14-4 21-1 12-4 23-6 34-4 21-7 43-14 64a2 2 0 0 0 2 2c17 7 35 14 54 17 13 1 26 5 39 4l-38-7-29-8-14-5c-6-2-10-2-8-9 5-19 7-38 11-57s5-37 7-55v-1zM67 178c0 6 6 12 8 17a159 159 0 0 1 6 24c1 3 4 2 3 0-2-15-6-30-17-41zM67 178l26-14c9-4 17-5 26-7-19-3-40 7-53 20a1 1 0 0 0 1 1zM207 258c-7 21-4 43-3 64a2 2 0 0 0 3 0c0-21-3-42 1-63l-1-1z"/><path class="cls-31" d="M167 330a59 59 0 0 0 17-2l20-4v-2c-5-2-10 0-14 2-8 3-15 5-23 6zM152 280c10-3 21-6 29-13v-1c-10 5-19 10-29 13v1zM167 283l9-5a1 1 0 0 0-1-1l-8 6s0 1 0 0z"/><path class="cls-32" d="M85 316c-5 10-4 23-5 34l-4 46c-1 33 4 65 1 98a1 1 0 0 0 2 0c4-10 3-26 3-37l-2-49 3-47c1-15 0-30 3-45h-1zM126 364c-2 12 1 24 4 35l9 38 8 37c3 14 4 28 5 42a1 1 0 0 0 3 0c3-25-6-50-11-73-6-26-14-52-17-79a1 1 0 0 0-1 0z"/><path class="cls-32" d="M142 463c-1 19-6 36-6 54 0 3 3 3 4 0 0-17 9-37 3-54h-1zM201 327c-3 15-2 30-2 45-1 15-1 31 1 46 4 33 24 69 14 103a1 1 0 0 0 3 1c6-10 4-26 2-36-3-18-8-34-12-51-4-18-5-37-5-55v-53h-1z"/><path class="cls-33" d="M155 517c21-9 38 13 59 9a1 1 0 0 0 0-2c-14-3-26-9-39-11-6-2-17-3-21 4l1 1zM72 508c22 6 41 12 64 11a2 2 0 0 0 0-3c-13-1-26-1-38-4-9-2-17-8-26-5v1zM126 389c-2 3-3 6-2 9a1 1 0 0 0 1 0c2-2 1-6 1-9h-1zM124 405c-1 2-2 5 0 7a1 1 0 0 0 1 0c1-2 0-5-1-7zM123 420c0 2-1 6 1 8a1 1 0 0 0 1 0v-8a1 1 0 0 0-2 0zM123 435a21 21 0 0 0-1 8 1 1 0 0 0 1 1 1 1 0 0 0 1 0 1 1 0 0 0 1-1 14 14 0 0 0-1-8 1 1 0 0 0-1 0zM122 450v7a1 1 0 0 0 1 1c2-2 1-6 1-8a1 1 0 0 0-2 0zM121 466c0 2-1 5 1 7a1 1 0 0 0 1 0v-7a1 1 0 0 0-2 0zM121 481c-1 2-2 6 0 7a1 1 0 0 0 1 0c2-1 1-5 0-7a1 1 0 0 0-1 0zM120 496a18 18 0 0 0 0 5v4a1 1 0 0 0 1 0c3-1 2-6 1-9a1 1 0 0 0-2 0zM187 359v8a1 1 0 0 0 1 0l1-8a1 1 0 0 0-1 0zM187 376v6a1 1 0 0 0 1 0v-6a1 1 0 0 0-2 0zM187 390c0 3-1 7 1 9 3-2 1-6 0-9h-1zM187 407c0 2-1 5 1 6a1 1 0 0 0 1 0c2-2 0-4-1-6a1 1 0 0 0-1 0zM189 423c0 3 0 6 2 7a1 1 0 0 0 1 0c2-2-1-5-2-7a1 1 0 0 0-2 0zM191 437l2 7a1 1 0 0 0 1 0c2-2 0-6-2-8l-1 1zM194 451c1 2-1 5 1 7a1 1 0 0 0 1 0c2-2 1-6-1-8l-1 1zM195 466l1 8a1 1 0 0 0 1 0c2-3 0-6-1-9a1 1 0 0 0-1 1zM197 484c0 2-1 6 1 8a1 1 0 0 0 1 0v-8a1 1 0 0 0-2 0zM197 499v7h1c2-2 1-5 0-7h-1z"/><path class="cls-34" d="M134 543a95 95 0 0 0 16-12c3-3 5-7 9-9a30 30 0 0 1 10-3c-7-1-12 0-17 4l-8 10-10 10z"/><path class="cls-34" d="M142 537c-2 1-9 2-8 6 0 2 1 3 4 4a453 453 0 0 0 66 2v-1l-40-3a362 362 0 0 1-24-2c-4 0 2-5 2-6zM76 514c-9 3-20 5-27 13a2 2 0 0 0 0 2c4 5 12 6 18 6l35 1v-1c-11-4-23-2-35-3a66 66 0 0 1-9-2c-7-1-2-4 2-6 5-4 12-5 16-10 0 0 0-1 0 0zM155 531l11-10c1 0 0-2-1-1a31 31 0 0 0-10 11z"/><path class="cls-34" d="M153 527a34 34 0 0 1 10-1c4 1 6 3 9 5 1 1 2 0 2-1-3-6-16-7-21-4v1zM158 521a37 37 0 0 1 10 0 21 21 0 0 1 6 2l4 3a1 1 0 0 0 1-1c0-4-6-5-9-6-4-1-9-1-12 1v1z"/><path class="cls-34" d="M174 533c3 0 3-4 0-4s-3 4 0 4zM213 530l4 13c0 2-2 2-4 2a19 19 0 0 0-6 2c4 1 13 3 14-2l-2-7-5-8h-1zM140 522a32 32 0 0 0 0 4c0 3-1 5-3 6l-13 1v1a37 37 0 0 0 8 1c3 0 6 0 9-2 3-3 2-9-1-12v1zM82 523a13 13 0 0 0-4-11 2 2 0 0 0-2 0 1 1 0 0 0 0 1 1 1 0 0 0 0 1c2 2 6 5 6 9zM90 520a14 14 0 0 0-3-7 1 1 0 0 0-1 0l-1 1a1 1 0 0 0 0 1l5 5z"/><path class="cls-34" d="M84 523a1 1 0 0 0-2-2v1c-2 1 1 3 2 1z"/><path class="cls-34" d="M84 524a2 2 0 0 0 0-3 2 2 0 0 0-4 0 2 2 0 0 0 0 3 2 2 0 0 0 4 0z"/><path class="cls-29" d="M168 125l3-2a1 1 0 0 0 0-1 1 1 0 0 0-1-1 6 6 0 0 0-3 2c-1 1 0 2 1 2zM175 122a1 1 0 0 0 1 0 1 1 0 0 0 0-1v-1a1 1 0 0 0-2 1 1 1 0 0 0 0 1 1 1 0 0 0 1 0zM117 117a4 4 0 0 0-2-3c-2-1-3 1-3 2a5 5 0 0 0 4 2 1 1 0 0 0 1-1zM111 112c0-2-3-2-2 0a2 2 0 0 0 1 1 1 1 0 0 0 1-1z"/><path class="cls-35" d="M238 65c4 11-1 24-4 35-3 12-9 20-17 29a1 1 0 0 0 1 2c10-2 15-21 18-28 3-12 7-27 2-39v1z"/><path class="cls-5" d="M202 125c3-4 7-8 12-3 4 3 4 10 1 14-1 3-4 6-7 8a11 11 0 0 1-6 2c-2 0-2-2-3-4a1 1 0 0 0-2 1c0 5 5 6 9 4a25 25 0 0 0 11-12c3-5 2-12-3-15s-11 0-12 5c0 1 0 1 0 0zM96 86c-9 5-8 22 0 27 1 0 2-1 1-2-7-5-8-19-1-25z"/><path class="cls-35" d="M201 69c-5 6-6 13-7 21s4 30-4 36c-1 0 0 2 1 1 3-1 5-2 4 2l1 1c5-2 8-5 10-9a1 1 0 0 0-1 0c-1 1-9 11-7 3l-1-1c-5 2-4 5-3 1 2-5 1-10 1-15 0-13-2-28 6-39v-1zM93 29c24-20 54-29 85-26 24 2 48 15 52 41h2c0-26-27-39-49-43-32-5-66 6-90 27v1z"/><path class="cls-35" d="M80 39c8-11 24-12 36-15v-1c-12 1-31 4-37 16h1zM229 45c4 1 7-2 9-6a15 15 0 0 0 0-4l2 2a10 10 0 0 1 1 5c0 5-3 10-8 12a1 1 0 0 0 0 1 20 20 0 0 0 12-2 8 8 0 0 0 2-1l-2 5c-1 3-4 5-7 7v1a15 15 0 0 0 10-14 1 1 0 0 0-1-1 17 17 0 0 1-10 4c-4 0-1 0 1-2a16 16 0 0 0 4-6 12 12 0 0 0-4-13 1 1 0 0 0-1 1c0 5-2 10-8 10v1z"/><path class="cls-5" d="M194 147c4-2 6-6 9-9a60 60 0 0 1 5-6c2-2 3-1 5 0h1c-1-5-7-2-9 0a47 47 0 0 0-6 8l-5 6v1zM93 96c1-2 1-2 2-1a9 9 0 0 1 2 4v7a1 1 0 0 0 1 0c3-2 1-9-1-11l-3-2-1 3zM242 236l5 17c2 5 3 11 6 16 0 0 1 0 0 0 0-6-2-11-4-17l-5-17c-1-1-2 0-2 1z"/><path class="cls-10" d="M188 163c24 19 45 42 56 70h1c-3-15-11-27-21-38-10-12-21-26-35-34l-1 2z"/><path class="cls-5" d="M253 269l6 39c1 9 0 19 3 28a1 1 0 0 0 1 0c-1-22-4-46-10-67z"/><path class="cls-18" d="M202 326c-2 16 0 32 1 48s-1 32 2 49l11 48a179 179 0 0 1 1 56c10-31 0-64-8-94-4-18-4-36-4-54s-4-35-3-53zM144 464l-3 33c-1 6-3 18 1 23a1 1 0 0 0 2 0l-1-23a1076 1076 0 0 1 1-33z"/><path class="cls-15" d="M154 520c-6 5-10 12-18 17-5 3-6 5-8 11-3 11 2 12 11 14 27 5 56 0 83-2 2 0 2-3 0-3-21 1-42 4-63 4-5 0-27 1-29-5-3-10 6-16 13-21l12-15a1 1 0 0 0-1 0z"/><path class="cls-15" d="M214 528l6 14 1 16a1 1 0 0 0 2 1c4-10-3-23-8-31h-1z"/><path class="cls-15" d="M131 542c-2 8 31 7 34 8 18 0 38-2 57 0 1 0 2-2 0-2-13-3-29 0-43 0-6 0-46 3-48-6zM78 510l-8 4-14 6c-10 5-10 11-12 21-1 1 2 2 2 0l2-11c2-6 9-9 14-11a62 62 0 0 0 16-8v-1z"/><path class="cls-15" d="M44 542c26 10 57 9 85 8a1 1 0 0 0 0-2l-41-1c-15 0-29-3-44-6a1 1 0 0 0 0 1zM140 520a58 58 0 0 1 2 6v6a1 1 0 0 0 2 0 26 26 0 0 0-1-7 16 16 0 0 0-2-6l-1 1zM47 530c11 6 25 6 37 7 19 1 39-1 58-2a1 1 0 0 0 0-2c-31 0-65 9-95-4v1z"/><path class="cls-18" d="M119 326c1 14 1 29 4 43l1-1-5-42z"/><path class="cls-18" d="M130 327l1 21c0 3 1 8-1 11l-7 7h1c2-1 9-6 9-9l-2-30h-1z"/><path class="cls-5" d="M262 335l11 16c4 7 5 14 5 22h1c3-15-8-27-17-38zM239 345c-6 6 0 14-1 21-1 5-1 8 4 7 4 0 6-6 7-10 0-5 8 7 9 8l6 14c0-9-7-22-16-26a1 1 0 0 0-1 1c0 4-1 7-3 10q-6 1-5-3v-2c1-7-3-13 0-20 1 0 0-1 0 0z"/><path class="cls-5" d="M259 360l6 12c0 3 5 14 0 13a1 1 0 0 0-1 1c6 4 4-5 4-8-2-6-4-14-8-18h-1z"/><path class="cls-5" d="M268 358l3 13c1 5 2 11-3 13v1c4 3 4-7 4-8a53 53 0 0 0-4-19c0-1 0-1 0 0z"/><path class="cls-5" d="M272 357a102 102 0 0 1 2 11 23 23 0 0 1 0 6l-2 4v1c3-1 3-7 3-9a30 30 0 0 0-2-14l-1 1z"/><path class="cls-5" d="M274 376l1 3a1 1 0 0 0 1-1l3-6h-1a11 11 0 0 0-2 3l-1 2-1-1z"/><path class="cls-10" d="M95 187l-9 57c-3 17-8 35-9 53h1c5-17 7-35 9-53l9-57h-1z"/><path class="cls-5" d="M11 109c8-6 18-7 28-9-10 0-21 3-28 9zM6 118c0 7 5 19 13 19v-1l-9-7a20 20 0 0 1-4-11zM45 108c-1-9-1-19-4-27l3 27h1z"/><path class="cls-5" d="M34 101V86a46 46 0 0 1 2-11c1-6 5 6 5 8h1c-1-5-5-18-8-7-2 7-1 17-1 25h1zM30 101c0-4-2-29-10-27-3 0-2 6-3 8 0 7 3 14 4 21l2-1c-2-8-5-16-4-25 1-3 4 0 5 2l2 7 3 15h1z"/><path class="cls-5" d="M15 107l-2-17a38 38 0 0 1-1-4 12 12 0 0 1 1-3c1-3 4-1 5 0v-1c-3-4-6-3-7 2-1 7 1 16 3 23h1zM12 109c-1-3-4-20-10-18-3 1-2 7-1 9a127 127 0 0 0 6 23c1-9-5-18-5-27 0-3 2-3 3-1a28 28 0 0 1 3 5l3 9zM17 136c-2 16-1 32 1 48 3 16 5 34 13 48h1c-11-30-18-64-14-96h-1zM44 130c1 10 5 20 8 30a156 156 0 0 1 7 34h1c2-22-9-44-15-64a1 1 0 0 0-1 0z"/><path class="cls-10" d="M80 223a48 48 0 0 0 8-4l4-4c1-1-1-2-2-1l-11 8 1 1z"/><path class="cls-5" d="M31 231c4 5 10 5 16 4 11-1 24-5 33-12l-1-1c-11 3-37 21-48 9 0-1 0 0 0 0z"/><path class="cls-10" d="M64 179c15-10 26-23 45-23v-2c-17-2-35 13-45 25-1 0 0 1 0 0z"/><path class="cls-5" d="M59 185a6 6 0 0 0 3-2 13 13 0 0 0 4-3l-2-1a12 12 0 0 0-2 2l-3 3v1zM29 114a31 31 0 0 1 7-4l8-2v-1c-5-1-12 2-15 7zM45 108c1-5 9-10 13-7h1c-2-3-5-2-8-1a13 13 0 0 0-7 8h1zM59 101c-3 4-7 8-9 13l-1 8c-2 4-4 6-8 8v1c5 0 8-6 9-10s2-9 5-12c2-2 4-5 4-8zM186 168l6-11c2-4 5-9 6-14h-1c-3 3-4 8-6 12l-6 13h1z"/><path class="cls-10" d="M105 155c6 2 15 0 22-1v-1h-10l-12 1v1zM127 154c-7 12 2 26 14 30 14 5 38-2 45-16h-1c-10 9-19 14-32 15-16 2-33-11-25-28a1 1 0 0 0-1-1zM208 256l-2 44a101 101 0 0 0 1 20c0 3-5 5-7 6l1 1a37 37 0 0 1 7-2 1 1 0 0 0 2-1c-4-23-1-45-2-68zM64 180c9 12 15 28 14 43a1 1 0 0 0 2 0c4-4 0-14-1-19-3-8-7-19-14-25a1 1 0 0 0-1 1z"/><path class="cls-5" d="M135 111c-6-1-7 8-3 12 2 2 5 3 8 3 2-1 7-2 7-4v-1l-2 2a9 9 0 0 1-4 1 12 12 0 0 1-8-1c-4-3-3-11 2-12zM113 103c2-5 2-11 7-13 3-1 6 2 7 5v6c-1 5-5 10-11 7-5-3-1-9 0-13h-2c-2 2-2 5-2 8a8 8 0 0 0 3 7c6 4 12-3 13-8s1-12-5-13c-7-2-10 9-11 13l1 1z"/><path d="M113 91a11 11 0 0 1 9 1 11 11 0 0 1 4 3l1 7a9 9 0 0 0-3-13c-3-1-10-2-11 2z"/><path class="cls-5" d="M160 109c2-4 3-12 9-13s6 8 5 12c-1 5-5 9-10 6-5-2-2-8-1-12a1 1 0 0 0-1-1c-4 4-4 13 1 15 6 4 11-1 13-7 1-5 0-13-7-14s-9 9-9 14z"/><path d="M160 98a11 11 0 0 1 9 0 11 11 0 0 1 4 3c2 2 1 4 1 7h1a9 9 0 0 0-4-13c-3-1-10-1-11 3z"/><path class="cls-5" d="M130 130c8 9 24 8 32 0l-1-1c-8 8-22 9-31 1z"/><path class="cls-5" d="M161 128c0 2 1 4 3 3a1 1 0 0 0 0-1l-2-2h-1zM128 133c2-1 3-2 3-4h-1l-2 3v1z"/><path class="cls-8" d="M113 74c3-2 7-2 11-2l10 1h1c-6-5-18-6-22 1zM184 85c-3-8-12-10-20-8l10 3 10 5z"/><path class="cls-5" d="M140 149c3 3 8 5 11 3v-1c-4 1-8 1-11-2 0-1 0 0 0 0z"/><path class="cls-27" d="M140 141a13 13 0 0 1 6 0c2 0 5 0 6 2l1-1c-2-2-4-1-7-2s-5 0-7 1h1z"/><path class="cls-1" d="M138 137c6 3 15 2 20-1 1 0 0 0 0 0-7 1-13 4-20 1z"/><path class="cls-18" d="M82 315c-7 36-7 73-8 110 0 26 10 59-5 83a1 1 0 0 0 1 2c13 3 25 9 38 11 11 1 23 2 35 0l-1-2c-20-1-39 0-58-7-4-2-13-2-10-6a44 44 0 0 0 3-10c3-9 2-19 2-29-1-21-3-42-2-64a903 903 0 0 1 5-88zM123 365c11 51 21 103 29 155a1 1 0 0 0 2 1c14-4 29 0 42 5 7 3 14 6 20 2a1 1 0 0 0-1-2c-7 3-15-2-22-4l-22-5c-7-1-16 3-18-5l-5-31c-3-20-8-39-12-59l-13-57c0-1 0-1 0 0z"/><path class="cls-10" d="M81 276c-4 11-4 23-9 33a1 1 0 0 0 0 2 226 226 0 0 0 67 19 316 316 0 0 0 32 3c12 0 22-4 33-7 2 0 1-3 0-2-14 2-25 7-40 6a276 276 0 0 1-46-6 216 216 0 0 1-42-14c-3-1 1-11 2-14 1-7 1-13 4-20h-1z"/><path class="cls-5" d="M205 251a230 230 0 0 1 19 47c5 16 9 32 15 47h1c-8-32-17-66-35-94z"/><path class="cls-10" d="M195 227a46 46 0 0 0 9 24 1 1 0 0 0 1-1l-5-10a103 103 0 0 1-5-13h-1z"/><path class="cls-10" d="M204 251c9 0 17-3 25-6 5-2 15-6 16-12a1 1 0 0 0-1-1 61 61 0 0 1-17 11c-7 4-15 4-23 7v1z"/><path class="cls-5" d="M107 46c-4 11-5 21-5 32l-5 31c-2 15 3 29 16 38 23 16 67 22 86-4 0-1-1-2-2-1a67 67 0 0 1-84 2c-14-11-16-27-12-43 4-18 2-37 7-55a1 1 0 0 0-1 0z"/><path class="cls-5" d="M135 133c2 3 2 8 5 10 2 2 6 2 9 2 7-1 11-7 12-14h-1c-1 6-5 12-12 13-4 0-8-1-9-5a17 17 0 0 0-4-6z"/><path class="cls-35" d="M201 69c-10 1-20 5-31 5 5 0 15-8 20-10v-2c-21 8-46 3-65-6-14-7-28-25-46-17 14-1 24 5 35 12a94 94 0 0 0 29 13 97 97 0 0 0 33 3 56 56 0 0 0 6-1l3-1q4 0 2-1c-7 3-13 7-21 9a1 1 0 0 0 1 2c11 1 23-2 34-5v-1z"/><path class="cls-35" d="M98 41c-8 18-5 40 0 58a1 1 0 0 0 1 0c-5-19-7-39 0-58h-1z"/></g></g></svg>