<?xml version="1.0" encoding="utf-8"?>
<!-- Generator: Adobe Illustrator 21.1.0, SVG Export Plug-In . SVG Version: 6.00 Build 0)  -->
<svg version="1.1" id="Слой_1" xmlns="http://www.w3.org/2000/svg" xmlns:xlink="http://www.w3.org/1999/xlink" x="0px" y="0px"
	 viewBox="0 0 432 595.3" style="enable-background:new 0 0 432 595.3;" xml:space="preserve">
<style type="text/css">
	.st0{fill:#A8D962;}
	.st1{fill:#F5DAC5;}
	.st2{fill:#FFFFFF;}
	.st3{fill:#E06117;}
	.st4{fill:#75B750;}
	.st5{fill:#3D2E2E;}
	.st6{fill:#EBAEAE;}
	.st7{fill:#E0677D;}
	.st8{clip-path:url(#SVGID_2_);}
	.st9{fill:#DFA3A5;}
	.st10{fill:#8A5824;}
	.st11{fill:#75B750;stroke:#75B750;stroke-width:2.67;stroke-miterlimit:10;}
	.st12{fill:#EFBF5A;}
</style>
<title>Монтажная область 1</title>
<g>
	<g id="Слой_1_1_">
		<path class="st0" d="M405.8,583c-21-51.2-98.6-89.3-191.3-89.3S44.2,531.8,23.2,583H405.8z"/>
		<path class="st1" d="M173.9,542l6.2,8.6l11.3-8.1c0,0,9.7-124.6,7.1-125.5s-30.1,0-30.1,0L173.9,542z"/>
		<path class="st2" d="M191.4,544.3l1.2,18.4h-46.9c0,0-0.4-13.8,28.4-18.1C174.1,544.7,178.2,550.2,191.4,544.3z"/>
		<path class="st1" d="M249.8,542l-6.2,8.6l-11.3-8.1c0,0-9.7-124.6-7.1-125.5s30.1,0,30.1,0L249.8,542z"/>
		<path class="st2" d="M232.3,544.3l-1.2,18.4H278c0,0,0.4-13.8-28.4-18.1C249.6,544.7,245.6,550.2,232.3,544.3z"/>
		<path class="st3" d="M263,382.3c-0.4,0-51.2-7-51.2-7s-50.8,7-51.2,7l-2,70.5l43.4,2.6l9.8-50.8l9.8,50.8l43.4-2.6L263,382.3z"/>
		<path class="st1" d="M177.7,291.5l-3.2,4.1c-2.1,2.7-4.8,6.3-8.1,10.8c-1.6,2.2-3.4,4.7-5.1,7.3s-3.6,5.4-5.4,8.2
			s-3.7,5.8-5.5,8.9s-3.6,6.2-5.2,9.4s-3.3,6.4-4.7,9.6s-2.8,6.4-4.1,9.5s-2.4,6.2-3.3,9.1s-1.9,5.7-2.7,8.3s-1.4,5-2,7.2
			s-1.1,4-1.4,5.6l-1.1,4.9l-0.1,0.3c-1.3,5.6-6.9,9-12.4,7.7c-5.2-1.2-8.6-6.2-7.9-11.4l0.7-5.3c0.4-3.4,1.2-8.2,2.2-14.1
			c0.5-2.9,1.1-6.1,1.8-9.4s1.6-6.9,2.4-10.5s1.9-7.4,3.1-11.2s2.4-7.6,3.7-11.4s2.8-7.5,4.2-11.2s2.9-7.3,4.3-10.6
			c1.5-3.4,2.9-6.7,4.3-9.8s2.7-6,3.9-8.7l8.1-17.6V271c4.6-9.9,16.4-14.3,26.3-9.7s14.3,16.4,9.7,26.3
			C179.4,289,178.6,290.3,177.7,291.5z"/>
		<path class="st1" d="M262.7,252.3c0,0,4.6,8.4,11.7,20.9c3.6,6.3,7.7,13.5,12.3,21.3l7,12l3.6,6.1l0.5,0.8l0.2,0.4l0.1,0.2
			l0.1,0.1c-0.3-0.4,0.7,1-0.7-0.9l0,0l0.5,0.7l0.3,0.4l0.1,0.1l-0.1-0.1l-0.2-0.3c-0.7-0.8-1.6-1.4-2.7-1.7
			c-1.3-0.4-2.7-0.2-3.8,0.5c-1.1,0.7-1.9,1.8-2.2,3.1c0,0.3-0.1,0.5-0.1,0.8c0,0.1,0,0.1,0,0.2c0,0,0-0.3,0.1-0.4l0.1-0.9l0.5-3.5
			l0.9-6.8l3-24.4l2.7-23.8c0.5-5.7,5.6-9.9,11.3-9.3c5.5,0.5,9.6,5.3,9.3,10.8l-0.8,23.9l-0.6,24.5c0,2.2-0.1,4.5-0.1,6.8l-0.1,3.5
			v1.4l-0.1,1c-0.1,1.4-0.4,2.8-0.8,4.2c-0.9,2.9-2.3,5.6-4.3,7.9c-6.1,7.1-16,9.7-24.8,6.6c-1.5-0.5-2.9-1.2-4.3-2.1
			c-0.7-0.4-1.4-0.9-2.1-1.5c-0.8-0.6-1.6-1.3-2.3-2.1l-0.9-0.9l-0.3-0.3l-0.6-0.7l-1.8-2.4l-4.4-5.6l-8.5-10.9
			c-5.5-7.1-10.7-13.7-15.2-19.3c-9-11.3-15.1-18.6-15.1-18.6c-7-8.4-5.8-20.9,2.6-27.8c8.4-7,20.9-5.8,27.8,2.6
			C261.3,250,262.1,251.1,262.7,252.3z"/>
		<path id="_Обтравочный_контур_2" class="st4" d="M262.3,286.1l5,125.6c0,0-30,3.8-53.9,3.8s-58.4-3.6-58.4-3.6
			s3.2-120.7,9.2-159.5c0,0-1.1-14.5,30.2-15.6c0,0,53.5-3.1,64.6,10.5C258.8,247.2,257.9,259.4,262.3,286.1z"/>
		<path class="st1" d="M212.4,191.9h2.1c12.8,0,23.2,10.4,23.2,23.2v13.5c0,12.8-10.4,23.2-23.2,23.2h-2.1
			c-12.8,0-23.2-10.4-23.2-23.2v-13.5C189.2,202.3,199.6,191.9,212.4,191.9z"/>
		<path class="st1" d="M118.6,142.7c0,51.9,48.7,93.9,93.9,93.9s93.9-42.1,93.9-93.9c0-51.9-42.1-93.9-93.9-93.9
			S118.6,90.9,118.6,142.7L118.6,142.7z"/>
		<circle class="st5" cx="177.2" cy="139.6" r="6.9"/>
		<circle class="st5" cx="247.9" cy="139.6" r="6.9"/>
		<ellipse class="st6" cx="245.9" cy="161.8" rx="13" ry="8.1"/>
		<ellipse class="st6" cx="179.3" cy="161.8" rx="13" ry="8.1"/>
		<circle class="st1" cx="119.8" cy="156.5" r="13.8"/>
		<circle class="st1" cx="307.3" cy="156.5" r="13.8"/>
		<path id="_Обтравочный_контур_3" class="st7" d="M238.1,179.1c-0.6,14.1-12.6,25.1-26.7,24.5
			c-13.3-0.6-23.9-11.2-24.5-24.5H238.1z"/>
		<g>
			<defs>
				<path id="SVGID_1_" d="M238.1,179.1c-0.6,14.1-12.6,25.1-26.7,24.5c-13.3-0.6-23.9-11.2-24.5-24.5H238.1z"/>
			</defs>
			<clipPath id="SVGID_2_">
				<use xlink:href="#SVGID_1_"  style="overflow:visible;"/>
			</clipPath>
			<g class="st8">
				<circle class="st9" cx="204.1" cy="212.3" r="24.9"/>
			</g>
		</g>
		<path class="st10" d="M121.1,148.4h10.3c-0.4-4.6,2.6-42.4,21.7-53c13.4-7.4,32.8,0.8,59.4,0.2c48.9-1.1,67.6-8.2,67.6-8.2
			s15.9,30.1,15.6,44.5c-0.1,6.5-0.6,11.9-1,16.5h10.9c0.4-3.8,1-7.5,1.8-11.2c6.5-28.8-1.6-53.3-8.7-68.4c0,0,0.3-26.3-12.4-46.2
			c-35.2,14.4-116-39.1-161,52.5c-8.3,16.8-9.3,41.8-6.7,56.9C119.8,138.9,120.4,144.2,121.1,148.4z"/>
		<path class="st11" d="M283.7,290c0,0-7.6-13.8-9.3-16.8c-7.1-12.5-11.7-20.9-11.7-20.9c-0.6-1.1-1.4-2.2-2.2-3.2
			c-7-8.4-19.5-9.5-27.8-2.6c-8.4,7-9.5,19.5-2.6,27.8l0,0c0,0,6.1,7.4,15.1,18.6c4.5,5.6,9.7,12.2,15.2,19.3
			c1.3,1.7,2.4,3.2,2.4,3.2L283.7,290z"/>
		<path class="st11" d="M136.9,286.6c0,0,5.3-21.3,25.6-37.6c8.3-6.7,19.4-9.5,27.9-2.6c8.4,7,9.5,19.4,2.6,27.8c0,0,0,0,0,0
			c0,0-6.1,7.4-15.1,18.6c-4.5,5.6-9.7,12.2-15.2,19.3C161.3,314,136.9,286.6,136.9,286.6z"/>
		
			<ellipse transform="matrix(7.504851e-03 -1 1 7.504851e-03 36.8604 496.0571)" class="st3" cx="268.3" cy="229.5" rx="24.2" ry="24.2"/>
		<polygon class="st12" points="264.8,253.1 323.9,287 292.3,227.4 		"/>
		<path class="st1" d="M301.9,243.6c0,0-12.6,4.9-1.5,18c10.2,12.1,16.2,10.5,16.2,10.5C321.9,268.9,321,240,301.9,243.6z"/>
	</g>
</g>
</svg>
