<svg id="Слой_1" data-name="Слой 1" xmlns="http://www.w3.org/2000/svg" xmlns:xlink="http://www.w3.org/1999/xlink" viewBox="0 0 580 595.28"><defs><style>.cls-1,.cls-18,.cls-22,.cls-24,.cls-8{fill:none;}.cls-2{fill:#e8443f;}.cls-3{fill:#f9ba73;}.cls-4{fill:#f18a9b;}.cls-5{fill:#fcd33a;}.cls-6{fill:#34374f;}.cls-7{fill:#d0744a;}.cls-8{stroke:#34374f;stroke-miterlimit:10;stroke-width:13.05px;}.cls-9{fill:#dda8a2;}.cls-10{fill:#f2948b;}.cls-11{fill:#2d2764;}.cls-12{fill:#2d2e7c;}.cls-13{fill:#fff4e4;}.cls-14{fill:#f8c3bb;}.cls-15{fill:#2e2c6d;}.cls-16{clip-path:url(#clip-path);}.cls-17{fill:#45398e;}.cls-18{stroke:#f8c3bb;stroke-width:25.26px;}.cls-18,.cls-22,.cls-24{stroke-linecap:round;stroke-linejoin:round;}.cls-19{fill:#fff;}.cls-20{fill:#965b55;}.cls-21{fill:#f08677;opacity:0.66;}.cls-22{stroke:#723414;stroke-width:5.32px;}.cls-23{opacity:0.36;}.cls-24{stroke:#402023;stroke-width:2.48px;}</style><clipPath id="clip-path"><path class="cls-1" d="M150.41,377.45l12.95,95.15s41.12,13.75,94.48-20.15c53.2-33.79,53.42-76.7,53.42-76.7L245.7,350.47Z"/></clipPath></defs><title>Монтажная область 1</title><rect class="cls-2" x="465.25" y="207.19" width="15.61" height="89.38" transform="translate(-25.72 55.81) rotate(-6.57)"/><polygon class="cls-3" points="475.67 206.49 460.49 208.24 464.37 199.23 466.54 194.26 469.79 198.6 475.67 206.49"/><polygon class="cls-2" points="469.79 198.6 464.37 199.23 466.54 194.26 469.79 198.6"/><rect class="cls-4" x="456.55" y="212.19" width="15.61" height="89.38" transform="translate(-58.43 165.72) rotate(-19.06)"/><polygon class="cls-3" points="457.09 212 442.65 216.99 444.5 207.35 445.54 202.03 449.64 205.57 457.09 212"/><polygon class="cls-4" points="449.64 205.57 444.5 207.35 445.54 202.03 449.64 205.57"/><polygon class="cls-5" points="493.01 291.85 457.57 291.85 450.48 244.97 500.1 244.97 493.01 291.85"/><rect class="cls-6" x="449.44" y="287.62" width="23.98" height="272.79" rx="11.99" ry="11.99"/><path class="cls-7" d="M279,344h0a16.1,16.1,0,0,1,11.29-19.78l232.09-63.38a16.1,16.1,0,0,1,19.78,11.29h0a16.1,16.1,0,0,1-11.29,19.78L298.75,355.29A16.1,16.1,0,0,1,279,344Z"/><path class="cls-6" d="M311.71,551.93h0a12,12,0,0,1,12-12H532.54a12,12,0,0,1,12,12h0a12,12,0,0,1-12,12H323.7A12,12,0,0,1,311.71,551.93Z"/><rect class="cls-6" x="133.83" y="441.55" width="13.05" height="123.98" rx="6.52" ry="6.52"/><path class="cls-6" d="M256.72,565.53h0A6.54,6.54,0,0,1,250.2,559V448.08a6.54,6.54,0,0,1,6.53-6.52h0a6.54,6.54,0,0,1,6.53,6.52V559A6.54,6.54,0,0,1,256.72,565.53Z"/><path class="cls-6" d="M140.36,511.15h0a6.54,6.54,0,0,1,6.53-6.53H257.81a6.54,6.54,0,0,1,6.52,6.53h0a6.54,6.54,0,0,1-6.52,6.52H146.88A6.54,6.54,0,0,1,140.36,511.15Z"/><path class="cls-8" d="M98.67,356.73c0,3.13-.38,11.53-.86,21a43.75,43.75,0,0,0,34.34,45l10,2.19"/><path class="cls-2" d="M262.52,449.53H134.92a22.54,22.54,0,0,1-22.48-22.48h0a22.54,22.54,0,0,1,22.48-22.48h127.6A22.54,22.54,0,0,1,285,427.05h0A22.54,22.54,0,0,1,262.52,449.53Z"/><path class="cls-2" d="M98.67,362.53h0a21.81,21.81,0,0,1-21.75-21.75V269a21.81,21.81,0,0,1,21.75-21.75h0A21.81,21.81,0,0,1,120.42,269v71.78A21.81,21.81,0,0,1,98.67,362.53Z"/><path class="cls-9" d="M331.78,249.42l4-4a12.36,12.36,0,0,1,17.43-.14h0a12.36,12.36,0,0,1,.14,17.43l-4,4a12.36,12.36,0,0,1-17.43.14h0A12.36,12.36,0,0,1,331.78,249.42Z"/><path class="cls-10" d="M347.9,258.58l17.61-17.9a3.34,3.34,0,0,1,4.72,0h0a3.34,3.34,0,0,1,0,4.72l-17.61,17.9a3.34,3.34,0,0,1-4.72,0h0A3.34,3.34,0,0,1,347.9,258.58Z"/><path class="cls-10" d="M346.79,246.71l14.14-14.37a3.34,3.34,0,0,1,4.72,0h0a3.34,3.34,0,0,1,0,4.72l-14.14,14.37a3.34,3.34,0,0,1-4.72,0h0A3.34,3.34,0,0,1,346.79,246.71Z"/><path class="cls-10" d="M337.91,244.12l16.74-17a3.34,3.34,0,0,1,4.72,0h0a3.34,3.34,0,0,1,0,4.72l-16.74,17a3.34,3.34,0,0,1-4.72,0h0A3.34,3.34,0,0,1,337.91,244.12Z"/><path class="cls-10" d="M283.78,300.65c-39.54,0-74-29.64-75.54-30.95a12.63,12.63,0,0,1,16.58-19.06c.55.47,31.28,26.64,62.25,24.65,22.6-1.43,42.94-24.29,43.14-24.52a12.63,12.63,0,0,1,19.12,16.51c-1.1,1.27-27.23,31.1-60.66,33.22C287,300.6,285.4,300.65,283.78,300.65Z"/><path class="cls-11" d="M245.25,278.42h0a18.52,18.52,0,0,0-10.73-23.9l-17.1-8.14c-9.56-3.64-26.39-5.06-30,4.5l-3.26,8.66c-3.64,9.56,11.15,19.69,20.71,23.33l16.49,6.28A18.52,18.52,0,0,0,245.25,278.42Z"/><path class="cls-12" d="M253.82,406.54l-103.44-28-8.74-83.23a68.57,68.57,0,0,1-.33-7c0-20,8.53-37.8,21.89-48a43.47,43.47,0,0,1,22.19-8.92,27.59,27.59,0,0,1,4.44-.09,32,32,0,0,1,10.09,2c.42.15.87.3,1.29.48a41.54,41.54,0,0,1,9.94,5.76c14.44,11.17,24.56,32.22,26.66,53.6l4.68,33.21Z"/><path class="cls-10" d="M329.83,480.85l-25,27.14s-13-76.44-32-93.9c-14.73-13.57-78-23.63-78-23.63l25-27.14s62.17,9.07,76.54,22.31C315.74,403.43,329.83,480.85,329.83,480.85Z"/><path class="cls-13" d="M293.15,480.89c.87,4,5.65,27.93,5.65,27.93l42.77-9.3-6.06-27.85Z"/><path class="cls-11" d="M361.06,507.79l-59.67,13-6.06-27.85,32.82-7.14c15.55-3.38,29.28,5.36,32.67,20.91Z"/><path class="cls-14" d="M282.29,490.56l-27.72,24.35s-4.89-77.38-21.9-96.74c-13.22-15-75.05-31.71-75.05-31.71l32-16.22s56.56,7.43,69.46,22.12C276.44,412.09,282.29,490.56,282.29,490.56Z"/><path class="cls-13" d="M245.81,486.74c.44,4,2.68,28.37,2.68,28.37L292,510.37,288.91,482Z"/><path class="cls-15" d="M310.52,520.63l-60.71,6.62-3.09-28.33,33.39-3.64c15.82-1.73,28.56,8.42,30.28,24.23Z"/><g class="cls-16"><path class="cls-17" d="M150.41,377.45l12.95,95.15s41.12,13.75,94.48-20.15c53.2-33.79,53.42-76.7,53.42-76.7l-56.8-28Z"/><ellipse class="cls-13" cx="157.53" cy="423.49" rx="4.8" ry="5.2"/><ellipse class="cls-13" cx="175.53" cy="435" rx="4.8" ry="5.2"/><ellipse class="cls-13" cx="184.3" cy="413.98" rx="4.8" ry="5.2"/><ellipse class="cls-13" cx="164.91" cy="405.47" rx="4.8" ry="5.2"/><ellipse class="cls-13" cx="182.5" cy="393.26" rx="4.8" ry="5.2"/><ellipse class="cls-13" cx="200.5" cy="404.77" rx="4.8" ry="5.2"/><ellipse class="cls-13" cx="209.27" cy="383.75" rx="4.8" ry="5.2"/><ellipse class="cls-13" cx="189.88" cy="375.25" rx="4.8" ry="5.2"/><ellipse class="cls-13" cx="188.5" cy="451.31" rx="4.8" ry="5.2"/><ellipse class="cls-13" cx="206.5" cy="462.82" rx="4.8" ry="5.2"/><ellipse class="cls-13" cx="215.27" cy="441.8" rx="4.8" ry="5.2"/><ellipse class="cls-13" cx="195.88" cy="433.3" rx="4.8" ry="5.2"/><ellipse class="cls-13" cx="216.19" cy="417.28" rx="4.8" ry="5.2"/><ellipse class="cls-13" cx="234.19" cy="428.79" rx="4.8" ry="5.2"/><ellipse class="cls-13" cx="242.96" cy="407.77" rx="4.8" ry="5.2"/><ellipse class="cls-13" cx="223.57" cy="399.27" rx="4.8" ry="5.2"/><ellipse class="cls-13" cx="222.19" cy="368.24" rx="4.8" ry="5.2"/><ellipse class="cls-13" cx="240.19" cy="379.75" rx="4.8" ry="5.2"/><ellipse class="cls-13" cx="248.96" cy="358.73" rx="4.8" ry="5.2"/><ellipse class="cls-13" cx="229.57" cy="350.22" rx="4.8" ry="5.2"/><ellipse class="cls-13" cx="256.8" cy="398.27" rx="4.8" ry="5.2"/><ellipse class="cls-13" cx="274.8" cy="409.78" rx="4.8" ry="5.2"/><ellipse class="cls-13" cx="283.57" cy="388.76" rx="4.8" ry="5.2"/><ellipse class="cls-13" cx="264.18" cy="380.25" rx="4.8" ry="5.2"/><ellipse class="cls-13" cx="268.34" cy="360.23" rx="4.8" ry="5.2"/><ellipse class="cls-13" cx="286.34" cy="371.74" rx="4.8" ry="5.2"/><ellipse class="cls-13" cx="295.1" cy="350.73" rx="4.8" ry="5.2"/><ellipse class="cls-13" cx="275.72" cy="342.22" rx="4.8" ry="5.2"/><ellipse class="cls-13" cx="250.8" cy="443.81" rx="4.8" ry="5.2"/><ellipse class="cls-13" cx="268.8" cy="455.32" rx="4.8" ry="5.2"/><ellipse class="cls-13" cx="277.57" cy="434.3" rx="4.8" ry="5.2"/><ellipse class="cls-13" cx="258.19" cy="425.79" rx="4.8" ry="5.2"/><ellipse class="cls-13" cx="223.11" cy="474.83" rx="4.8" ry="5.2"/><ellipse class="cls-13" cx="241.11" cy="486.34" rx="4.8" ry="5.2"/><ellipse class="cls-13" cx="249.88" cy="465.33" rx="4.8" ry="5.2"/><ellipse class="cls-13" cx="230.5" cy="456.82" rx="4.8" ry="5.2"/><ellipse class="cls-13" cx="288.18" cy="418.28" rx="4.8" ry="5.2"/><ellipse class="cls-13" cx="306.18" cy="429.79" rx="4.8" ry="5.2"/><ellipse class="cls-13" cx="314.95" cy="408.78" rx="4.8" ry="5.2"/><ellipse class="cls-13" cx="295.57" cy="400.27" rx="4.8" ry="5.2"/><ellipse class="cls-13" cx="305.26" cy="378.75" rx="4.8" ry="5.2"/><ellipse class="cls-13" cx="323.26" cy="390.26" rx="4.8" ry="5.2"/><ellipse class="cls-13" cx="332.02" cy="369.24" rx="4.8" ry="5.2"/><ellipse class="cls-13" cx="312.64" cy="360.73" rx="4.8" ry="5.2"/><ellipse class="cls-13" cx="156.2" cy="478.34" rx="4.8" ry="5.2"/><ellipse class="cls-13" cx="174.19" cy="489.85" rx="4.8" ry="5.2"/><ellipse class="cls-13" cx="182.96" cy="468.83" rx="4.8" ry="5.2"/><ellipse class="cls-13" cx="163.58" cy="460.32" rx="4.8" ry="5.2"/><ellipse class="cls-13" cx="144.2" cy="379.25" rx="4.8" ry="5.2"/><ellipse class="cls-13" cx="162.19" cy="390.76" rx="4.8" ry="5.2"/><ellipse class="cls-13" cx="170.96" cy="369.74" rx="4.8" ry="5.2"/><ellipse class="cls-13" cx="151.58" cy="361.23" rx="4.8" ry="5.2"/></g><rect class="cls-14" x="267.75" y="295" width="30.31" height="24.65" rx="7.96" ry="7.96" transform="matrix(-0.83, 0.55, -0.55, -0.83, 688.25, 408.2)"/><path class="cls-14" d="M287.6,310.92l21-13.82a3.34,3.34,0,0,1,4.62.95h0a3.34,3.34,0,0,1-.95,4.62l-21,13.82a3.34,3.34,0,0,1-4.62-.95h0A3.34,3.34,0,0,1,287.6,310.92Z"/><path class="cls-14" d="M289,299.08,305.84,288a3.34,3.34,0,0,1,4.62.95h0a3.34,3.34,0,0,1-.95,4.62l-16.84,11.1a3.34,3.34,0,0,1-4.62-.95h0A3.34,3.34,0,0,1,289,299.08Z"/><path class="cls-14" d="M280.86,294.69l19.93-13.14a3.34,3.34,0,0,1,4.62.95h0a3.34,3.34,0,0,1-.95,4.62l-19.93,13.14a3.34,3.34,0,0,1-4.62-.95h0A3.34,3.34,0,0,1,280.86,294.69Z"/><path class="cls-14" d="M271.45,306.8l10.38-21.49a3.34,3.34,0,0,1,4.45-1.55h0a3.34,3.34,0,0,1,1.55,4.45l-10.38,21.49a3.34,3.34,0,0,1-4.45,1.55h0A3.34,3.34,0,0,1,271.45,306.8Z"/><path class="cls-18" d="M158.8,285s27.45,36.6,64,42c28.27,4.2,56.79-17.38,56.79-17.38"/><path class="cls-11" d="M159.51,311.92l-8.34-6.62a20.44,20.44,0,0,1-3.29-28.64h0a20.45,20.45,0,0,1,28.64-3.29l8.34,6.62a20.45,20.45,0,0,1,3.29,28.64h0A20.44,20.44,0,0,1,159.51,311.92Z"/><path class="cls-19" d="M201.9,238.76a19.38,19.38,0,0,1-38.7,1.56,43.47,43.47,0,0,1,22.19-8.92,27.59,27.59,0,0,1,4.44-.09,32,32,0,0,1,10.09,2c.42.15.87.3,1.29.48A18.38,18.38,0,0,1,201.9,238.76Z"/><path class="cls-20" d="M155.13,62.94h11.28a74.6,74.6,0,0,1,74.6,74.6v6.41a74.61,74.61,0,0,1-74.61,74.61H155.13a74.61,74.61,0,0,1-74.61-74.61v-6.41A74.6,74.6,0,0,1,155.13,62.94Z" transform="matrix(-0.84, 0.54, -0.54, -0.84, 372.08, 172.48)"/><path class="cls-14" d="M238.57,110.07l7.86,20.27c.48,1.23.3,2.68.72,3.89a72.26,72.26,0,0,1,3.12,26.9c-1.71,26.77-18.8,52-45.36,62.28l-2.19.85c-36.44,14.13-78.87-4.46-93-40.9l-7.86-20.27c-14.13-36.44,6-75.37,42.43-89.5l2.19-.85C182.91,58.61,224.44,73.64,238.57,110.07Z"/><path class="cls-19" d="M227.57,163.27c3.25,8.37-1.15,22.55-11.76,26.66s-23.42-3.39-26.66-11.76Z"/><rect class="cls-21" x="196.14" y="153.51" width="14.96" height="5.99" rx="2.72" ry="2.72" transform="translate(-42.81 84.21) rotate(-21.2)"/><circle class="cls-21" cx="159.33" cy="181.41" r="13.35" transform="translate(-54.81 69.88) rotate(-21.2)"/><path class="cls-21" d="M246.55,134.47a70,70,0,0,1,3.29,26.44,13.33,13.33,0,0,1-7-25.58A12.4,12.4,0,0,1,246.55,134.47Z"/><path class="cls-14" d="M183.93,253.53H184c-7.1.7-13.06-5-13.8-12.44l-3.07-31,25.51-2.53,3.07,31C196.47,246,191,252.83,183.93,253.53Z"/><path class="cls-20" d="M166.68,112.4l-31.29,18a36.83,36.83,0,0,0-16.8,42.92h0l-2.71,33.35s-18.25-12.22-28.25-42.31,2.66-94.49,78.69-96Z"/><path class="cls-14" d="M128.61,179a16,16,0,0,1-9.12,20.67h0a16,16,0,0,1-20.67-9.12h0a16,16,0,0,1,9.12-20.67h0A16,16,0,0,1,128.61,179Z"/><path class="cls-22" d="M182.11,148.23s-6.32-5.37-12.95-2.22a11.46,11.46,0,0,0-6.56,9.94"/><path class="cls-22" d="M229.28,129.56s-6.32-5.37-12.95-2.22a11.46,11.46,0,0,0-6.56,9.94"/><path class="cls-20" d="M146.79,120.2l6.44,17.6,94.5-37.63s-21.66-49-77.64-39C170.08,61.18,132.52,66.84,146.79,120.2Z"/><path class="cls-20" d="M24.06,150.05s54.07-13.85,64.49-25.22A27.93,27.93,0,0,0,47.37,87.08C36.94,98.45,24.06,150.05,24.06,150.05Z"/><path class="cls-20" d="M120.53,89.27s51.62-4.93,63.6-14.65a27.93,27.93,0,0,0-35.21-43.37C136.94,41,120.53,89.27,120.53,89.27Z"/><path class="cls-5" d="M88,93.41l8,37.44a9.07,9.07,0,0,1-13,10.09l-11.4-6.06c-7.09-3.77-6.35-14.31,1.2-16.92l36.79-12.72c7.6-2.63,8.28-13.28,1.09-17l-9.7-5A9.08,9.08,0,0,0,88,93.41Z"/><path class="cls-19" d="M89.41,122.16a8.58,8.58,0,0,0,11.15-5.11,8.9,8.9,0,0,0-5.09-11.37,8.58,8.58,0,0,0-11.15,5.11A8.9,8.9,0,0,0,89.41,122.16Z"/><path class="cls-5" d="M194.92,38.65l-28.11,26a9.07,9.07,0,0,1-15.33-6.08l-.6-12.89c-.38-8,9.07-12.76,15.16-7.6l29.71,25.15c6.14,5.2,15.64.35,15.16-7.72l-.66-10.89A9.08,9.08,0,0,0,194.92,38.65Z"/><path class="cls-19" d="M170.9,54.51a8.58,8.58,0,0,0,10.08,7,8.9,8.9,0,0,0,7.18-10.18,8.58,8.58,0,0,0-10.08-7A8.9,8.9,0,0,0,170.9,54.51Z"/><g class="cls-23"><path class="cls-24" d="M183.87,74.87s20.28,7.47,30.4,37.92"/><path class="cls-24" d="M166.44,84.88s16.67,11.5,25.33,36.33"/><path class="cls-24" d="M145.5,97.26S161,105,168.93,130.19"/><path class="cls-24" d="M209.84,70.15s19.85,10.2,27.1,33"/></g><ellipse class="cls-13" cx="194.16" cy="265.9" rx="3.04" ry="3.57" transform="translate(-55.65 51.44) rotate(-13.22)"/><ellipse class="cls-13" cx="197.89" cy="280.73" rx="3.04" ry="3.58" transform="translate(-58.95 52.68) rotate(-13.22)"/><rect class="cls-17" x="342.53" y="210.23" width="11.01" height="63.06" transform="translate(-60.03 127.48) rotate(-19.14)"/><polygon class="cls-3" points="342.87 210.1 332.69 213.64 333.98 206.83 334.71 203.08 337.61 205.57 342.87 210.1"/><polygon class="cls-17" points="337.61 205.57 333.98 206.83 334.71 203.08 337.61 205.57"/><path class="cls-10" d="M331.24,257.93l5.65-23.19a3.34,3.34,0,0,1,4-2.45h0a3.34,3.34,0,0,1,2.45,4l-5.65,23.19a3.34,3.34,0,0,1-4,2.45h0A3.34,3.34,0,0,1,331.24,257.93Z"/></svg>