<svg id="Слой_1" data-name="Слой 1" xmlns="http://www.w3.org/2000/svg" xmlns:xlink="http://www.w3.org/1999/xlink" viewBox="0 0 300 300"><defs><style>.cls-8{isolation:isolate;fill:#6b1448;opacity:.3}</style><linearGradient id="Безымянный_градиент_2" x1="159" y1="24" x2="159" y2="296" gradientTransform="matrix(1 0 0 -1 0 302)" gradientUnits="userSpaceOnUse"><stop offset="0" stop-color="#fff0bd"/><stop offset="0" stop-color="#fae1b6"/><stop offset="1" stop-color="#eebaa3"/><stop offset="1" stop-color="#e8a699"/></linearGradient><linearGradient id="Безымянный_градиент_2-2" x1="159" y1="33" x2="159" y2="308" xlink:href="#Безымянный_градиент_2"/></defs><path fill="url(#Безымянный_градиент_2)" d="M216 280H102L96 20l126 2-6 258z"/><path fill="url(#Безымянный_градиент_2-2)" d="M108 280l-2-252 106 2-4 250H108z"/><path d="M205 171c0 3-2 6-5 6s-6-1-6-4a6 6 0 0 1 6-6c3 0 5 2 5 4z" style="isolation:isolate" fill="#ab1e36"/><path d="M205 169c0 2-2 5-5 5s-5-1-5-3a6 6 0 0 1 5-6c3 0 5 1 5 4z" fill="#e0a527"/><path d="M202 167a2 2 0 0 1-2 2l-2-1a2 2 0 0 1 2-2l2 1z" style="isolation:isolate" fill="#fff7cd"/><path d="M212 29l-106-1h-1l1 126 1 63 1 63v-63-63l-2-125 105 1-2 125-1 62v63l1-63 2-62 2-125v-1z" fill="#b86153"/><path class="cls-8" d="M199 43l-81-1h-1v1l2 121h78l3-120zm-3 120h-75l-2-120 79 2zM197 178h-76l1 89h73l3-89zm-2 89l-71-1-1-87h73z"/></svg>