<svg xmlns="http://www.w3.org/2000/svg" xmlns:xlink="http://www.w3.org/1999/xlink" viewBox="0 0 226.89 580"><defs><style>.cls-1{isolation:isolate;}.cls-2{fill:#f8d0ae;}.cls-3{fill:#650e81;opacity:0.2;mix-blend-mode:multiply;}.cls-4{fill:#9090a5;}.cls-5{fill:#a4a4bc;}.cls-6{fill:#3b3949;}.cls-7{fill:#333140;}.cls-8{fill:#292633;}.cls-9{fill:#f7d7bf;}.cls-10{fill:#e02247;}.cls-11{fill:#40749b;}.cls-12{fill:#523529;}.cls-13{fill:#fff;}.cls-14{fill:#7a5246;}.cls-15{fill:#ae756d;}.cls-16{fill:#3d2418;}.cls-17{fill:#7f8092;}.cls-18{fill:#050000;}.cls-19{fill:#56382c;}.cls-20{fill:#1e120d;}.cls-21{fill:#f2869e;}.cls-22{fill:url(#linear-gradient);}.cls-23{fill:url(#linear-gradient-2);}.cls-24{fill:none;stroke:#fff;stroke-linecap:round;stroke-linejoin:round;stroke-width:1.41px;}.cls-25{fill:#654438;}.cls-26{fill:#fffbce;}.cls-26,.cls-28{mix-blend-mode:soft-light;}.cls-27{fill:#eca292;opacity:0.5;}.cls-28{fill:#f5d4bb;}</style><linearGradient id="linear-gradient" x1="345.42" y1="-95.59" x2="337.55" y2="-102.38" gradientTransform="translate(93.55 413.83) rotate(-71.26)" gradientUnits="userSpaceOnUse"><stop offset="0" stop-color="#f8d0ae" stop-opacity="0"/><stop offset="0.17" stop-color="#f8cfad" stop-opacity="0.01"/><stop offset="0.3" stop-color="#f7cbaa" stop-opacity="0.06"/><stop offset="0.43" stop-color="#f5c4a5" stop-opacity="0.13"/><stop offset="0.55" stop-color="#f3ba9e" stop-opacity="0.24"/><stop offset="0.66" stop-color="#f0ae96" stop-opacity="0.38"/><stop offset="0.77" stop-color="#ed9f8b" stop-opacity="0.54"/><stop offset="0.88" stop-color="#e98d7e" stop-opacity="0.74"/><stop offset="0.99" stop-color="#e5796f" stop-opacity="0.97"/><stop offset="1" stop-color="#e4766d"/></linearGradient><linearGradient id="linear-gradient-2" x1="561.04" y1="182.06" x2="580.38" y2="197.53" gradientTransform="matrix(-0.99, -0.11, -0.11, 0.99, 699.4, 38.58)" gradientUnits="userSpaceOnUse"><stop offset="0.28" stop-color="#f8d0ae"/><stop offset="0.46" stop-color="#f7cdac"/><stop offset="0.6" stop-color="#f5c3a4"/><stop offset="0.74" stop-color="#f1b198"/><stop offset="0.86" stop-color="#ec9987"/><stop offset="0.98" stop-color="#e57b70"/><stop offset="1" stop-color="#e4766d"/></linearGradient></defs><title>Ресурс 10</title><g class="cls-1"><g id="Слой_2" data-name="Слой 2"><g id="Слой_1-2" data-name="Слой 1"><path class="cls-2" d="M132.6,216.63l-.09,4.08-.15,4.82.21.76c-6.32,4.48-18.27,6.11-18.27,6.11s-11.89-4.26-18-9.66l.23-.25-.15-3.61L96.26,215C107.68,218,121.51,219,132.6,216.63Z"/><path class="cls-3" d="M132.58,219l0-.94c-11.09,2.36-24.92,1.32-36.34-1.59l.08,3.4C108.34,221.71,120.82,222.61,132.58,219Z"/><path d="M192.24,552.29a10,10,0,0,1,2.28,6.86c-.37,3.82-36.6,22.5-37.75,19.46s9.91-17.17,9.91-17.17S189.57,556.86,192.24,552.29Z"/><path d="M43.46,570.61c-.1.38-2,6.56-4.17,9.14C37.84,581.44.38,574.41,0,567.16-.2,563.55,16.78,563,16.78,563,17.16,564.88,39.25,572.87,43.46,570.61Z"/><path class="cls-4" d="M221.32,335c1.24,5.59,1.7,9.14,1.53,9.73a1.84,1.84,0,0,1-.51.79c-3.63,3.59-23.92,5.66-27.48,6l-.54,0a42.35,42.35,0,0,0-1.43-9.15l.61-.16S210.36,340.58,221.32,335Z"/><path class="cls-4" d="M51.75,246.86c-.84,1-1.64,2-2.39,3.07C37.2,248.39,25.76,232,24.84,230.71c1.71-2.56,3.47-5,5.23-7.24l.06,0s10.37,16.67,24.28,20.31C53.49,244.82,52.6,245.84,51.75,246.86Z"/><path class="cls-4" d="M132.57,226.3l-.21-.76.15-4.82h.1a7.15,7.15,0,0,1,7.75,4,60,60,0,0,1-1.6,10.37c-3.07,5.9-13.79,10-13.79,10a18.77,18.77,0,0,0-1-3.71,14.22,14.22,0,0,0-9.69-9S126.25,230.78,132.57,226.3Z"/><path class="cls-4" d="M96.28,222.75c6.12,5.4,18,9.66,18,9.66-7.67,3.24-8.83,8.3-9.52,11.29-.34,1.47-.58,2.45-1.41,2.45-2.55,0-20.59-10.93-20.34-14.24a13,13,0,0,1,4.17-8.8,18.16,18.16,0,0,1,8.29-4.17l.86,0,.15,3.61Z"/><path class="cls-5" d="M58.61,269.73c11.13-4.5,26-13.55,27-16.66,1-2.87-3.11-7.95-3.11-7.95a22.31,22.31,0,0,1-3-10.79A23.64,23.64,0,0,1,83,231.9c-.25,3.31,17.79,14.24,20.34,14.24.83,0,1.07-1,1.41-2.45l5.84,7.65s-17.17,62.94-16,68.27,11.06,21.75,13.73,24c0,0-2.64,30.58-2.29,36.52-24.33-1.56-44.62-11.34-44.62-11.34A8.37,8.37,0,0,1,56,367a8.81,8.81,0,0,1-2.26-2.74c-3-5.61,5.69-49.36,10.89-73.87l-.58-.13s-30.9,22.88-50-.76c-11.5-14.26-1.74-40.07,10.72-58.78.92,1.33,12.36,17.68,24.52,19.22-3,4.12-5.13,8.27-5.49,12.14h.06a91.42,91.42,0,0,1,11.15-10l.48.69A74.08,74.08,0,0,0,48.73,262c-2.41,4-4,8.1-1.81,9.84C48.51,273.07,53.11,272,58.61,269.73Z"/><path class="cls-5" d="M156.08,273.15c5.4,2.76,10,4.19,11.37,2.6,1.78-2,0-6.7-2-10.76a70.16,70.16,0,0,0-4.09-6.9s5.91-4.06,11.33-16l.11.06C203.09,270.71,217,315.34,221.32,335c-11,5.61-27.82,7.26-27.82,7.26l-.61.16c-5-19.31-21.77-40.61-31.54-51.82.14,10.68.95,77.21-1.15,82.47a9,9,0,0,1-4.24,4.45c-9.83,5.43-31.24,2-31.24,2a91.53,91.53,0,0,1-18.68.66c-.35-5.94,2.29-36.52,2.29-36.52,2.66,2.29,19.06-20.59,19.06-24.41s-9.91-67.51-9.91-67.51l6.48-10.3h0a18.77,18.77,0,0,1,1,3.71s10.72-4.14,13.79-10a68,68,0,0,1-3.37,10.55,3.11,3.11,0,0,0,.33.45l-1.16.95s-4.06,5.08-3.11,7.93C132.47,258,145.82,267.95,156.08,273.15Z"/><path class="cls-6" d="M124,241.41h0l-6.48,10.3-6.86-.38-5.84-7.65c.69-3,1.85-8,9.52-11.29A14.22,14.22,0,0,1,124,241.41Z"/><path class="cls-7" d="M117.48,250.93s9.91,64.5,9.91,68.31-16.41,26.7-19.06,24.41-12.59-18.68-13.73-24,16-69.07,16-69.07Z"/><path class="cls-6" d="M189.3,542.29c1.82,6.44,2.94,10,2.94,10-2.67,4.57-25.56,9.15-25.56,9.15l-2.8-8.6C167.56,551.64,186,545.47,189.3,542.29Z"/><path class="cls-6" d="M47,557.58l-3.56,13v0c-4.22,2.26-26.31-5.73-26.69-7.64-.06-.3.82-5.06,2.36-12.94A79.2,79.2,0,0,0,47,557.58Z"/><path class="cls-8" d="M116.33,406.58c-8.26-.47-19.43-2.16-27-3.45l-.07.4L47,557.58A79.2,79.2,0,0,1,19.14,550c8.33-43.11,36.15-179.3,36.9-183a8.37,8.37,0,0,0,5.37,1.82s20.3,9.79,44.62,11.34a91.53,91.53,0,0,0,18.68-.66s21.41,3.41,31.24-2l2.33.13c6.05,71.82,23.92,139.78,31,164.69-3.31,3.18-21.74,9.35-25.42,10.55"/><path class="cls-2" d="M220.92,369.85a15.28,15.28,0,0,1-.51,2.49c-.48,1.51-1.19,2.63-2.12,3-2.62.95-4.34-2.33-4.54-2.76-.42,1.63-1,2.87-1.56,3.27-2,1.34-4.44-1.67-4.62-5.88a12.09,12.09,0,0,1,0-1.75,17.25,17.25,0,0,0-.26-5.12l-.25,0s-7.3-2.72-10.1.47l0,0-2.12-12v0c3.56-.34,23.85-2.4,27.48-6l0,0c3.89,6.83,5.09,22.67,2.29,26.24C222.31,374.73,221.22,371.1,220.92,369.85Z"/><path class="cls-9" d="M222,91.55c1.09,2.73-9.79,5.69-9.79,5.69s4.54,1.85,4,3.61c-.45,1.49-8.63-.33-8.63-.33a93.71,93.71,0,0,1-31.71,4.37l-.16-.09c2.33-6.42,2.5-21.31,2.23-22.66,0,0,13.93,1.15,22.13.33S213.85,80,214.66,81c1.2,1.58-3.39,4-3.39,4s8.49.23,9,1.87c.58,1.91-5.57,3.28-5.57,3.28S221.55,90.45,222,91.55Z"/><path class="cls-2" d="M207.1,359.66c0,1.76.06,12.48-4.72,14.53s-5.07-17.18-5.11-21.08C199.52,356.22,203.66,358.32,207.1,359.66Z"/><path class="cls-10" d="M148.72,107l-.3,1.15c-1.54-.4-2.59-.57-2.59-.57s2.36-4-.25-5.59c-6.92-4.2-22.64-1.22-23.61-1,.55-.23,5.91-2.46,3.25-5.84-.89-1.13-3.73-1.36-7.2-1.15l-.11-1.64c19.18-1.17,31.79-15.4,31.79-15.4a4.81,4.81,0,0,0,5,.34c1.56.23,22.88,3.32,23.21,4.91.27,1.34.1,16.24-2.23,22.66a4.79,4.79,0,0,1-1.87,2.77C170,109.41,151.25,107.28,148.72,107Z"/><path class="cls-11" d="M140.36,224.71a40.61,40.61,0,0,0-.37-8.78c.42-.18.85-.37,1.26-.57,14-6.61,17.54-31.53,17.54-31.53a8.89,8.89,0,0,0,8.4,1.51c2.26,2.28,18.56,20,8.13,50.11q-1.27,3.69-2.66,6.68c-5.42,11.89-11.33,16-11.33,16s-21.71-7.17-25.61-12a3.11,3.11,0,0,1-.33-.45,68,68,0,0,0,3.37-10.55A60,60,0,0,0,140.36,224.71Z"/><path class="cls-2" d="M96.26,216.66c-8.3-2.11-15.33-5.25-19.09-8.92-2.9-2.83-4.46-11.85-5.2-23-.38-5.59-.57-11.7-.62-17.85-.18-21.84,1.26-44.07,1.26-44.07l.13-.23c6.94,3.83,18.23,5.13,26.58,4.81l.31-.65a18.9,18.9,0,0,0,5,1.41,51.25,51.25,0,0,0,29.31-4.34,120.68,120.68,0,0,0,20.79-.24l1.22-.14a10.35,10.35,0,0,0-1.47,5.49c-.25,8.9,1.53,24.65,6.6,31.53l.41.75a9.89,9.89,0,0,1,5-2.83,8.4,8.4,0,0,1,5.81,1.06c8.4,4.58,6.28,18.57.25,23.14a16,16,0,0,1-5.33,2.79,8.89,8.89,0,0,1-8.4-1.51s-3.55,24.92-17.54,31.53c-.41.2-.84.38-1.26.57a40.72,40.72,0,0,1-7.4,2.23C121.51,220.52,107.68,219.58,96.26,216.66Z"/><path class="cls-12" d="M167.7,132.72a236.92,236.92,0,0,1-1.27,25.43l0,.21a9.89,9.89,0,0,0-5,2.83l-.41-.75c-5.08-6.87-6.86-22.63-6.6-31.53a10.35,10.35,0,0,1,1.47-5.49,6.56,6.56,0,0,1,5.64-2.91S167.45,121.53,167.7,132.72Z"/><path class="cls-13" d="M165.43,265c2.06,4.06,3.8,8.77,2,10.76-1.41,1.58-6,.16-11.37-2.6A13.19,13.19,0,0,1,165.43,265Z"/><path class="cls-14" d="M163.93,16.11c3.28,3.28-7,5.91-8.09,4.81S160.65,12.83,163.93,16.11Z"/><path class="cls-10" d="M165.43,265a13.19,13.19,0,0,0-9.35,8.16c-10.25-5.2-23.61-15.13-24.62-18.19-.95-2.86,3.11-7.93,3.11-7.93l1.16-.95c3.9,4.84,25.61,12,25.61,12A70.16,70.16,0,0,1,165.43,265Z"/><path class="cls-12" d="M69.22,120a8.21,8.21,0,0,1-2.73-6.89c.3-3.21,2.7-6.39,6.11-9.26,8.49-7.14,23.21-12.35,27.2-11.07,5.29,1.67,1.27,3.8.81,4A125.27,125.27,0,0,1,118,93.94c3.47-.21,6.31,0,7.2,1.15,2.66,3.38-2.7,5.62-3.25,5.84,1-.18,16.69-3.17,23.61,1,2.62,1.58.25,5.59.25,5.59s1,.17,2.59.57c4.81,1.23,14.51,4.71,13.17,12.4a6.56,6.56,0,0,0-5.64,2.91l-1.22.14a120.68,120.68,0,0,1-20.79.24,51.25,51.25,0,0,1-29.31,4.34,18.9,18.9,0,0,1-5-1.41l-.31.65c-8.35.33-19.63-1-26.58-4.81A15.32,15.32,0,0,1,69.22,120Z"/><path class="cls-14" d="M111,15.92c-2.22,1.53-8.87,3.44-14.44,3.68A16.11,16.11,0,0,1,91,19.06,4.21,4.21,0,0,1,88.27,17c-2.4-5.25,10.5-7.21,10.5-7.21s-5.25-.65-5.69-3.28,21.65-11.37,42-2.84,17,19.9,17,19.9,7.23-.88,6.79,12.9a123.52,123.52,0,0,1-4.14,26.65,5,5,0,0,0-4.68.2c-2.08-7.74-1-32.09-1-32.09s-8.32.88-10.28-1.32,1.1-7.86,1.1-7.86-19,5-27.11,2C105,21,110.55,16.28,111,15.92Z"/><path class="cls-9" d="M82.16,75.23c-2.35-3.68-3.24-6.94-2.63-8.6a12.1,12.1,0,0,1,5.23-6.56s.3-1.34.78-4.16c.61-3.61,1.53-9.63,2.52-18.37C89.8,22,96.57,20.05,96.57,20.05l0-.45c5.57-.24,12.22-2.15,14.44-3.68-.44.35-6,5.11,1.78,8.06,8.08,3.06,27.11-2,27.11-2s-3.07,5.69-1.1,7.86,10.28,1.32,10.28,1.32-1.06,24.36,1,32.09a5,5,0,0,1,4.68-.2,8.1,8.1,0,0,1,0,14.14,4.81,4.81,0,0,1-5-.34S137.1,91.13,117.92,92.3a39.78,39.78,0,0,1-6.46-.1C96.5,90.77,86.66,82.26,82.16,75.23Z"/><path class="cls-14" d="M156.71,10.42c2.4,1.75-.88,7-2.63,6.35C153.45,16.53,154.31,8.68,156.71,10.42Z"/><path class="cls-10" d="M117.92,92.3l.11,1.64a125.27,125.27,0,0,0-17.42,2.91c.47-.24,4.48-2.38-.81-4-4-1.27-18.71,3.93-27.2,11.07-5.81-.52-14.65-1.6-16.93-3.54a5,5,0,0,1-1.16-3.11c-.88-7,2.28-22.5,3.66-22.5h0c17.86,1.9,23,.81,24,.5,4.5,7,14.34,15.54,29.29,17A39.78,39.78,0,0,0,117.92,92.3Z"/><path class="cls-14" d="M96.55,19.6l0,.45s-6.77,2-8.51,17.48c-1,8.74-1.91,14.77-2.52,18.37h-.32s-2-22.08-1.32-29.08A8.71,8.71,0,0,1,91,19.06,16.11,16.11,0,0,0,96.55,19.6Z"/><path class="cls-11" d="M79.53,234.33a22.31,22.31,0,0,0,3,10.79c-5.59,4.57-27,7.62-27,7.62l-.48-.69c-.62-.92-1.82-2.72-3.32-5.19.85-1,1.74-2,2.66-3,9.93-10.92,23.05-20.48,21.5-22.35-2.43-2.91-11.8.89-12.66,1.25.88-.65,11.54-8.46,9.35-10.4s-13,3.42-14.14,4c1.09-.74,10.62-7.2,7-9.6s-18.22,8.5-19,9.12c.58-.72,7.06-8.57,1.23-7.59a8.92,8.92,0,0,0-2.21.74l-.13-.2a30.49,30.49,0,0,1-.48-7.07c1.57-11.74,13.68-15,17.75-15.8,5.43,2,8.71-1.15,8.71-1.15l.64,0c.75,11.16,2.31,20.18,5.2,23,3.76,3.68,10.79,6.82,19.09,8.92l.09,2.22-.86,0a18.16,18.16,0,0,0-8.29,4.17C81.4,226,79.63,230.28,79.53,234.33Z"/><path class="cls-10" d="M82.52,245.12s4.07,5.08,3.11,7.95c-1,3.11-15.88,12.16-27,16.66-2.63-5.43-8.53-7.37-9.89-7.76a74.08,74.08,0,0,1,6.83-9.22S76.93,249.69,82.52,245.12Z"/><path class="cls-2" d="M46.45,215.84c.81-.62,15.33-11.6,19-9.12s-5.93,8.87-7,9.6c1.16-.58,12-5.93,14.14-4s-8.47,9.75-9.35,10.4c.86-.35,10.23-4.16,12.66-1.25,1.56,1.87-11.57,11.43-21.5,22.35-13.92-3.64-24.28-20.31-24.28-20.31l-.06,0c5.61-7.18,11.27-12.53,15.4-14.48a8.92,8.92,0,0,1,2.21-.74C53.51,207.27,47,215.12,46.45,215.84Z"/><path class="cls-12" d="M72.73,122.58l-.13.23S71.16,145,71.34,166.88h0a14,14,0,0,0-4.63-5c-.47-1.22-5.23-14.1-4.27-28.13.73-10.72,6.12-13.41,6.79-13.71A15.32,15.32,0,0,0,72.73,122.58Z"/><path class="cls-2" d="M66.7,161.87a14,14,0,0,1,4.63,5h0c.06,6.15.24,12.26.62,17.85l-.64,0s-3.28,3.13-8.71,1.15a16.49,16.49,0,0,1-4.16-2.35c-5.66-4.29-7.64-17.41.23-21.71A7.6,7.6,0,0,1,66.7,161.87Z"/><path class="cls-9" d="M20.59,73.06c-.52-.28-5.5-3-4.51-4.58.89-1.46,9.14.5,9.14.5S21.4,65.47,23,64.25c1-.82,6,2.26,13.73,5.15,7.55,2.83,20.89,5.22,21.47,5.33-1.39,0-4.54,15.46-3.66,22.5H54.4A93.74,93.74,0,0,1,24.87,84.93s-8.37-.34-8.44-1.88c-.08-1.84,4.78-2.48,4.78-2.48s-9.77-5.63-8-8C13.88,71.66,20,73,20.59,73.06Z"/><path class="cls-13" d="M48.73,262c1.36.4,7.25,2.33,9.89,7.76-5.5,2.23-10.1,3.34-11.7,2.08C44.71,270.07,46.32,265.94,48.73,262Z"/><path class="cls-15" d="M147.69,69.23a5.79,5.79,0,0,1,1.44-1.61,6,6,0,0,1,2-1,4.78,4.78,0,0,1,2.26-.13,4.54,4.54,0,0,1,2,.92.37.37,0,0,1-.31.66h0a7.19,7.19,0,0,0-1.8-.32,5.07,5.07,0,0,0-1.72.23,8.48,8.48,0,0,0-1.65.73,17.84,17.84,0,0,0-1.58,1l0,0a.38.38,0,0,1-.55-.5Z"/><path class="cls-16" d="M161.56,120c-3.79,2.8-8.34,4-12.84,4.62a57.31,57.31,0,0,1-13.63,0,43.34,43.34,0,0,1-13.38-2.8,11.51,11.51,0,0,1-5.45-4.41,7,7,0,0,1-.92-3.47,9.88,9.88,0,0,1,.63-3.45.37.37,0,0,1,.47-.23.38.38,0,0,1,.23.46,7.3,7.3,0,0,0,.52,6.13,10.36,10.36,0,0,0,5,3.78c4.06,1.69,8.54,2.18,13,2.62a61.21,61.21,0,0,0,13.34.14,40.25,40.25,0,0,0,6.52-1.29,20.58,20.58,0,0,0,6-2.69l0,0a.37.37,0,0,1,.44.6Z"/><path class="cls-16" d="M93.8,108.69a21.41,21.41,0,0,0-.76,6.88A12.69,12.69,0,0,0,95,122a11.71,11.71,0,0,0,5.11,4.21,22,22,0,0,0,6.71,1.5,51.55,51.55,0,0,0,14-.4,52.07,52.07,0,0,0,6.86-1.56,40.91,40.91,0,0,0,6.57-2.5h0a.37.37,0,0,1,.34.66A45.77,45.77,0,0,1,121,128.53a46.77,46.77,0,0,1-7.15.79c-1.2.08-2.4,0-3.6,0s-2.4-.1-3.6-.25a22.78,22.78,0,0,1-7.1-1.65,12.67,12.67,0,0,1-5.64-4.77A13.86,13.86,0,0,1,92,115.6a22.25,22.25,0,0,1,1.13-7.16.37.37,0,0,1,.71.22Z"/><path class="cls-15" d="M63.2,222.37a.3.3,0,0,0-.23.09l.26-.1a.3.3,0,0,0-.23.09l.12-.08a37.37,37.37,0,0,1,5.31-1.92,14.39,14.39,0,0,1,5.77-.57,4.22,4.22,0,0,1,1.53.56,3.43,3.43,0,0,1,.67.58,1.39,1.39,0,0,1,.24,1.25,4.63,4.63,0,0,1-.77,1.46q-.45.59-.92,1.13c-1.28,1.42-2.63,2.71-4,4l-8.25,7.51c-2.73,2.51-5.42,5.07-8,7.72a.37.37,0,0,1-.55-.5c2.42-2.85,5-5.53,7.71-8.13s5.45-5.09,8.15-7.63c1.35-1.27,2.72-2.52,3.94-3.86.31-.33.59-.67.86-1a3.64,3.64,0,0,0,.56-1c0-.16,0-.08,0-.07a2.15,2.15,0,0,0-.38-.33,3.12,3.12,0,0,0-1.07-.42,13.4,13.4,0,0,0-5.27.37,42.88,42.88,0,0,0-5.28,1.56l.12-.08a.46.46,0,0,1-.29.12l.26-.1a.47.47,0,0,1-.29.12.37.37,0,1,1,0-.75Z"/><path class="cls-15" d="M58.19,216l.07,0,0,0A55.65,55.65,0,0,1,65,212.75a28.12,28.12,0,0,1,3.61-1.18,12.45,12.45,0,0,1,1.94-.34,3.67,3.67,0,0,1,2.23.38,1.83,1.83,0,0,1,.55.55,3.36,3.36,0,0,1,.17.39,2.94,2.94,0,0,1,.05.39,2.74,2.74,0,0,1-.3,1.2,8,8,0,0,1-1.14,1.68,24.2,24.2,0,0,1-2.7,2.68,57.57,57.57,0,0,1-6,4.51.37.37,0,0,1-.44-.6c1.9-1.58,3.8-3.16,5.58-4.83a32.07,32.07,0,0,0,2.5-2.62,6.79,6.79,0,0,0,.93-1.4,1.46,1.46,0,0,0,.16-.58c0-.13,0-.09-.14-.19a2.7,2.7,0,0,0-1.38-.18,11.14,11.14,0,0,0-1.72.28,35,35,0,0,0-3.48,1c-2.31.8-4.59,1.76-6.86,2.72l0,0-.13.07a.37.37,0,0,1-.38-.63Z"/><path class="cls-15" d="M46.14,215.61l.14-.1-.06,0a76.18,76.18,0,0,1,7.09-5.21,39.52,39.52,0,0,1,7.88-4.11,10.31,10.31,0,0,1,2.28-.52,5.26,5.26,0,0,1,1.27,0,4.13,4.13,0,0,1,.67.19,2.81,2.81,0,0,1,.62.37,2.23,2.23,0,0,1,.84,1.24,2.72,2.72,0,0,1-.06,1.44,6.42,6.42,0,0,1-1.23,2.08,29.74,29.74,0,0,1-6.91,5.58.37.37,0,0,1-.42-.61h0c1.16-.87,2.3-1.76,3.38-2.71a21.89,21.89,0,0,0,3-3,5.85,5.85,0,0,0,.95-1.68c.14-.57.08-.93-.35-1.23a2.15,2.15,0,0,0-1.6-.29,9,9,0,0,0-2,.49A42.44,42.44,0,0,0,54,211.42c-2.48,1.49-4.91,3.09-7.3,4.72l-.06,0,.05,0a.37.37,0,0,1-.52-.53Z"/><path class="cls-15" d="M29.78,223.24a70.3,70.3,0,0,1,5.4-6.71,49.11,49.11,0,0,1,6.35-5.9,21.61,21.61,0,0,1,3.78-2.3,9.59,9.59,0,0,1,2.19-.71,6.1,6.1,0,0,1,1.2-.09,2.43,2.43,0,0,1,1.37.44,1.72,1.72,0,0,1,.63,1.45,4.06,4.06,0,0,1-.27,1.23,10.79,10.79,0,0,1-1,2,28.26,28.26,0,0,1-2.66,3.44.37.37,0,0,1-.53,0,.38.38,0,0,1-.05-.5,33.54,33.54,0,0,0,2.32-3.52,10.42,10.42,0,0,0,.85-1.84,2.94,2.94,0,0,0,.16-.86c0-.26-.08-.37-.18-.44a2.63,2.63,0,0,0-1.58,0,8.3,8.3,0,0,0-1.87.64,20.32,20.32,0,0,0-3.49,2.2,54.67,54.67,0,0,0-6.27,5.65c-2,2-3.86,4.15-5.73,6.3a.37.37,0,0,1-.53,0A.38.38,0,0,1,29.78,223.24Z"/><path class="cls-17" d="M155.78,377.15a9.06,9.06,0,0,0,3.72-3.68c.1-.19.18-.39.26-.59l.16-.6c.07-.44.15-.87.19-1.33.1-.9.16-1.82.22-2.74.23-3.68.32-7.37.38-11.07.14-7.39.18-14.79.19-22.19l.07-44.4a.37.37,0,0,1,.75,0q.32,11.1.47,22.2c.11,7.4.12,14.81.13,22.21s-.11,14.81-.33,22.22c-.13,3.7-.28,7.41-.57,11.12-.09.93-.18,1.85-.31,2.79-.05.46-.16.94-.25,1.41-.07.25-.14.5-.22.74s-.2.45-.32.67a9.88,9.88,0,0,1-4.16,3.91.37.37,0,0,1-.36-.65Z"/><path class="cls-17" d="M68.64,273.93l-4.78,23.38c-1.57,7.8-3.12,15.6-4.57,23.41s-2.86,15.64-4,23.49c-.59,3.93-1.1,7.86-1.42,11.8s-1,8.27,2.44,10.69a.37.37,0,1,1-.43.61h0l0,0a9.06,9.06,0,0,1-2.08-2.3,4.83,4.83,0,0,1-.66-1.47A10.19,10.19,0,0,1,52.8,362a39.82,39.82,0,0,1,0-6c.25-4,.71-8,1.24-11.91,1.07-7.9,2.46-15.74,3.89-23.58S61,304.83,62.62,297s3.49-15.53,5.29-23.28a.37.37,0,0,1,.73.16Z"/><path class="cls-18" d="M81,400.89q4.48.39,8.89,1c3,.39,5.9.83,8.84,1.26l17.64,2.64h0a.75.75,0,0,1-.09,1.49,109.56,109.56,0,0,1-18-1.34c-3-.44-5.92-.94-8.86-1.54s-5.85-1.31-8.75-2.1a.75.75,0,0,1,.26-1.47Z"/><path class="cls-17" d="M154.43,282.3a159.15,159.15,0,0,1,14,14.8,168.79,168.79,0,0,1,12.18,16.39,112,112,0,0,1,9.66,18.06c.62,1.6,1.29,3.18,1.78,4.82.26.82.55,1.62.77,2.45l.65,2.49a40.07,40.07,0,0,1,1.22,10.2l-.42-.37h.54a.36.36,0,0,1,.06.71l-.54.07a.36.36,0,0,1-.41-.31h0v-.05a43.82,43.82,0,0,0-2.12-9.76L191,339.4c-.26-.79-.6-1.56-.9-2.33-.58-1.56-1.29-3.08-2-4.6s-1.47-3-2.21-4.49-1.55-3-2.42-4.39q-2.48-4.36-5.26-8.56c-.91-1.41-1.86-2.79-2.79-4.18s-1.92-2.76-2.92-4.11c-1.93-2.75-4-5.4-6-8.09-4.14-5.3-8.35-10.58-12.77-15.68h0a.47.47,0,0,1,.68-.66Z"/><path class="cls-17" d="M108.56,343.66c0,1.53-.1,3.06-.14,4.59l-.24,4.58c-.16,3.05-.38,6.1-.6,9.15l-.72,9.14-.36,4.57c-.15,1.53-.22,3-.29,4.57a.18.18,0,0,1-.36,0h0a77.58,77.58,0,0,1-.13-9.2c.07-3.06.29-6.12.46-9.17s.46-6.1.78-9.15l.5-4.56c.21-1.52.38-3,.62-4.55a.24.24,0,0,1,.47,0Z"/><path class="cls-15" d="M195.19,351.35a12.54,12.54,0,0,1,1.33,2.89,20.3,20.3,0,0,1,.75,3.06,22.66,22.66,0,0,1,.27,3.13,19.45,19.45,0,0,1-.19,3.13.38.38,0,0,1-.74,0h0c-.21-2-.41-4-.73-6q-.25-1.48-.58-2.94c-.23-1-.47-2-.77-2.89v0a.37.37,0,0,1,.67-.32Z"/><path class="cls-15" d="M206.38,359.37a15.64,15.64,0,0,1,1.88,8.5c0,.74,0,1.37,0,2.06a11.22,11.22,0,0,0,.32,2,5.82,5.82,0,0,0,1.83,3.23,1.17,1.17,0,0,0,1.29.18c.35-.1.66-.73.92-1.32a24.8,24.8,0,0,0,1.13-4,37.67,37.67,0,0,0,.63-4.18,13.24,13.24,0,0,0,0-4.16v0a.18.18,0,0,1,.34-.11,7,7,0,0,1,.47,2.16c.07.73.08,1.45.08,2.18a35.66,35.66,0,0,1-.36,4.33,21,21,0,0,1-1,4.29,6.46,6.46,0,0,1-.51,1.07,3.49,3.49,0,0,1-.41.54,2.23,2.23,0,0,1-.3.26c-.11.07-.21.12-.32.18a2.39,2.39,0,0,1-1.44.26,2.92,2.92,0,0,1-1.29-.52,5.19,5.19,0,0,1-1.56-1.88,9.77,9.77,0,0,1-.8-2.17,12.56,12.56,0,0,1-.29-2.25c0-.74,0-1.54.12-2.22a16.7,16.7,0,0,0-.06-4.14,16.07,16.07,0,0,0-1-4v0a.24.24,0,0,1,.43-.2Z"/><path class="cls-15" d="M214,372.51a.13.13,0,0,0,0-.13l0,.07c.87,1.33,2.24,2.59,3.54,2.4a2,2,0,0,0,.47-.12,1.09,1.09,0,0,0,.39-.2,2.66,2.66,0,0,0,.65-.76,7.64,7.64,0,0,0,.86-2.13,22.52,22.52,0,0,0,.62-4.85,23.33,23.33,0,0,0-.36-5,.18.18,0,0,1,.14-.21.18.18,0,0,1,.2.1,14.66,14.66,0,0,1,1.17,5,17.48,17.48,0,0,1-.41,5.22,8.47,8.47,0,0,1-1.06,2.54,3.93,3.93,0,0,1-1.06,1.09,2.36,2.36,0,0,1-.75.34,2.93,2.93,0,0,1-.77.12,3.47,3.47,0,0,1-2.67-1.15,6.55,6.55,0,0,1-1.41-2.28l0,.07a.39.39,0,0,1-.09-.21.24.24,0,0,1,.47,0Z"/><path class="cls-15" d="M221.07,369.42a10.8,10.8,0,0,0,.71,1.88c.29.57.75,1.11,1.13,1.11s.87-.39,1.24-.91c.18-.25.29-.53.45-.78l.3-.91a20.62,20.62,0,0,0,.53-4c.05-.68,0-1.37.06-2l-.05-2.06a63.51,63.51,0,0,0-.92-8.2,37.89,37.89,0,0,0-.92-4,25.16,25.16,0,0,0-1.38-3.89h0a.18.18,0,0,1,.31-.17,26.1,26.1,0,0,1,3.11,7.85,45.19,45.19,0,0,1,1.21,8.37,25.81,25.81,0,0,1-.77,8.51l-.42,1a9.42,9.42,0,0,1-.66,1l-.39.42-.47.38a2,2,0,0,1-1.33.36,1.87,1.87,0,0,1-1.13-.74,4.48,4.48,0,0,1-.55-1,8.62,8.62,0,0,1-.51-2.11.24.24,0,0,1,.46-.09Z"/><path class="cls-15" d="M199.06,367c.2,1.28.45,2.54.76,3.74s.81,2.43,1.55,2.8a1.71,1.71,0,0,0,1.33,0,3.17,3.17,0,0,0,1.35-.86,6,6,0,0,0,1.31-3.31.18.18,0,0,1,.36,0h0a5.32,5.32,0,0,1-.77,4,4,4,0,0,1-1.78,1.38,3,3,0,0,1-2.43,0,3.64,3.64,0,0,1-1.56-1.78,9.34,9.34,0,0,1-.56-2,13.48,13.48,0,0,1,0-4,.24.24,0,0,1,.27-.2A.25.25,0,0,1,199.06,367Z"/><path class="cls-19" d="M127.47,38.88c-.9,1.69,1,3,4.81,4.7,3.5,1.53,5.95,2.54,6.45,1.53C140.34,41.9,130,34.18,127.47,38.88Z"/><path class="cls-19" d="M102.86,38.12c.25,1.9-2,2.49-6.15,2.72-3.81.21-6.52.3-6.58-.83C89.89,36,102.15,32.84,102.86,38.12Z"/><path class="cls-20" d="M123.36,58.65c-1.24-.23-.71-4.71,4.86-5.66,5-.84,7.12,2,6.82,2.88s-2.08-1.56-6.43.79C125.89,58.15,125.54,59,123.36,58.65Z"/><path class="cls-20" d="M98.54,57c1.06-.19.61-4-4.13-4.8-4.21-.72-6,1.68-5.79,2.44s1.76-1.33,5.45.67C96.4,56.54,96.69,57.3,98.54,57Z"/><path class="cls-21" d="M113.75,71.91c7.19-1.33,10.23.83,10.53,1a19.72,19.72,0,0,1-9.17,3.8,18.23,18.23,0,0,1-9-.84C106.56,75.34,108.81,72.81,113.75,71.91Z"/><path class="cls-20" d="M127.78,65.54c1.27,1.58-.14,4.79-3.49,7.42h0c-.3-.22-3.34-2.37-10.53-1-4.93.9-7.18,3.43-7.63,4-6.27-2.25-9.93-7.61-8.53-11.14a17.53,17.53,0,0,0,13.9,3.8C120.09,67.35,125.64,62.9,127.78,65.54Z"/><path class="cls-22" d="M105.69,56s-2.3,3.27-.71,5.58,5.33,1.31,5.33,1.31A3.55,3.55,0,0,0,113,58C111.44,52.94,106.61,55.16,105.69,56Z"/><path class="cls-15" d="M106.17,56.11a9.53,9.53,0,0,0-1,2.71,2.92,2.92,0,0,0,.44,2.39,3.58,3.58,0,0,0,2.33,1.06,13.2,13.2,0,0,0,3,0h0a.37.37,0,0,1,.14.73,9.61,9.61,0,0,1-3.27.45,4.47,4.47,0,0,1-3.29-1.39,3.89,3.89,0,0,1-.64-3.58,6.64,6.64,0,0,1,1.75-2.88.37.37,0,0,1,.59.44Z"/><path class="cls-15" d="M161,170.8a8.62,8.62,0,0,1,1.25-3.63,7.09,7.09,0,0,1,2.9-2.67,7.68,7.68,0,0,1,3.85-.74,13,13,0,0,1,1.9.28c.6.19,1.2.39,1.78.61a.37.37,0,0,1-.18.72h0c-.6-.07-1.17-.19-1.75-.27s-1.16-.11-1.72-.07a7.54,7.54,0,0,0-3.19.74,6.84,6.84,0,0,0-2.48,2.12,11.66,11.66,0,0,0-1.57,3v0a.37.37,0,0,1-.72-.16Z"/><path class="cls-15" d="M68.58,172.66a11.11,11.11,0,0,0-1.48-2.83,6.42,6.42,0,0,0-2.31-2,7.07,7.07,0,0,0-3-.7c-.53,0-1.07.05-1.61.06s-1.08.18-1.64.25h0a.37.37,0,0,1-.18-.72c.54-.21,1.11-.4,1.67-.58a12.1,12.1,0,0,1,1.78-.27,7.22,7.22,0,0,1,3.63.69,6.66,6.66,0,0,1,2.73,2.52,8,8,0,0,1,1.16,3.42.37.37,0,0,1-.72.16Z"/><ellipse class="cls-20" cx="88.78" cy="164.67" rx="3.34" ry="5.24"/><ellipse class="cls-20" cx="131.02" cy="164.67" rx="3.34" ry="5.24"/><path class="cls-20" d="M92.77,185.16a32,32,0,0,0,10,3.79,34.76,34.76,0,0,0,10.63.41,32.44,32.44,0,0,0,10.22-2.89,24.23,24.23,0,0,0,4.48-2.82,17.52,17.52,0,0,0,3.61-3.78l.06-.09a.74.74,0,0,1,1.27.76,19.88,19.88,0,0,1-8.26,8.16,30.69,30.69,0,0,1-11,3.46,32,32,0,0,1-11.54-.73,26.59,26.59,0,0,1-10.33-5.11.74.74,0,0,1,.86-1.21Z"/><path class="cls-12" d="M138.57,143.07c1.23.67,2.25,5.68,1,6.1s-15-.72-15.85-2.18-.11-6.57,2-6.57S136,141.67,138.57,143.07Z"/><path class="cls-12" d="M82,143.5c-1.07.67-1.75,5.22-.6,5.54s13.48-1.36,14.17-2.71-.21-5.92-2.09-5.82S84.22,142.11,82,143.5Z"/><path class="cls-23" d="M105.33,152.1s-5.24,25-2.49,27.09,9.43,1.57,12.41-.64S119.59,153.27,105.33,152.1Z"/><path class="cls-15" d="M105.88,152.22l-1.34,9.33c-.43,3.11-.87,6.21-1.18,9.31-.16,1.55-.27,3.1-.29,4.61a12,12,0,0,0,.13,2.17,3.25,3.25,0,0,0,.22.77s0,0,0,0,.11.07.15.11a2,2,0,0,0,.38.24,10.22,10.22,0,0,0,4.21.75,32.21,32.21,0,0,0,4.6-.27h0a.56.56,0,0,1,.21,1.1,26.65,26.65,0,0,1-4.79.77,11.53,11.53,0,0,1-5.05-.65,3.83,3.83,0,0,1-.64-.35,2.07,2.07,0,0,1-.33-.22,2.83,2.83,0,0,1-.93-1.87,13.83,13.83,0,0,1-.24-2.54,44.6,44.6,0,0,1,.24-4.83c.32-3.18.8-6.31,1.41-9.42q.46-2.33,1-4.65c.37-1.54.72-3.08,1.16-4.61a.56.56,0,0,1,1.09.23Z"/><path class="cls-24" d="M54.54,257.07s-4.07-5.59-6.1-3.56S54.54,257.07,54.54,257.07Z"/><path class="cls-24" d="M54.62,257.34s4.07-5.59,6.1-3.56S54.62,257.34,54.62,257.34Z"/><path class="cls-24" d="M161,262.33s-4.07-5.6-6.1-3.56S161,262.33,161,262.33Z"/><path class="cls-24" d="M160.85,262.25s4.07-5.6,6.1-3.56S160.85,262.25,160.85,262.25Z"/><path class="cls-25" d="M112.4,14.4c-4.79,2.34-21.5,9.1-23.37,1.18a.57.57,0,0,0-1.09,0c-2.26,10.93,21.44,2.49,25.18.06A.72.72,0,0,0,112.4,14.4Z"/><path class="cls-25" d="M142,20.48a128.79,128.79,0,0,1-15.88,2.58c-5,.51-19.29,2.31-15.54-6.39.18-.43-.37-1-.71-.55C104.9,22.44,112,25,117.5,25.29a77.17,77.17,0,0,0,25-3A.94.94,0,0,0,142,20.48Z"/><path class="cls-25" d="M149.53,29.93c-2.47.09-4.82.72-7.31.63-2.12-.08-4-.88-3.64-3.39.23-1.65,1.17-3.15,1.57-4.76a.29.29,0,0,0-.53-.22c-2.2,2.94-5.15,7.71-.39,9.83,2.9,1.29,8,1,10.63-.87C150.35,30.79,150.23,29.9,149.53,29.93Z"/><path class="cls-25" d="M125,20c-.7-.3-1.2.24-1.89.33a.55.55,0,0,0,0,1.1c.72,0,1.87-.09,2.11-.9A.47.47,0,0,0,125,20Z"/><path class="cls-25" d="M128.48,19.39a2,2,0,0,0-1.74.37.8.8,0,0,0,.61,1.45c.64-.19,1.17-.28,1.49-.93A.62.62,0,0,0,128.48,19.39Z"/><path class="cls-25" d="M127,18.07a5,5,0,0,0-1.78,0c-.89.06-.9,1.43,0,1.39A6.29,6.29,0,0,0,127,19,.51.51,0,0,0,127,18.07Z"/><path class="cls-25" d="M154,44.58c-.19.8-.56,2.21-.07,2.94a.4.4,0,0,0,.69,0,1.89,1.89,0,0,0,.2-1.16,7.57,7.57,0,0,1,.2-1.49C155.15,44.2,154.13,43.92,154,44.58Z"/><path class="cls-25" d="M156.17,46.08a.59.59,0,0,0-1.07.45,10.77,10.77,0,0,1-.21,2,.78.78,0,0,0,1.44.39A2.77,2.77,0,0,0,156.17,46.08Z"/><path class="cls-25" d="M87.12,28.28a10.68,10.68,0,0,0-.43,2.06c-.06.62.85.81,1.13.31a10.5,10.5,0,0,0,.6-2C88.68,27.81,87.37,27.45,87.12,28.28Z"/><path class="cls-26" d="M103.36,11.24a2.57,2.57,0,0,0-2.16.26,1.63,1.63,0,0,0-1,1.64.57.57,0,0,0,.28.49,2,2,0,0,0,1.71.16,2.94,2.94,0,0,0,1.64-.89A1,1,0,0,0,103.36,11.24Z"/><path class="cls-26" d="M107.56,12a4.56,4.56,0,0,0-1.86.9c-.52.34-1.06.66-1.59,1a.79.79,0,0,0,.4,1.46c1.4,0,3.47-.6,4.12-2A1,1,0,0,0,107.56,12Z"/><path class="cls-26" d="M120.48,13.53a.94.94,0,0,0-.92-.24,9.88,9.88,0,0,0-4,3.08.76.76,0,0,0,1.08,1.08,17.77,17.77,0,0,1,2.75-1.92C120,15.16,121.44,14.42,120.48,13.53Z"/><path class="cls-26" d="M122.26,14.44a3.64,3.64,0,0,0-1.53,1.27A5.62,5.62,0,0,1,119,17a.68.68,0,0,0,.52,1.23c1.36-.49,3.32-1.67,3.49-3.24A.61.61,0,0,0,122.26,14.44Z"/><path class="cls-26" d="M144.82,23.66c-.86,0-1.47.81-2,1.42-.38.46-1,1.2-.74,1.83a.38.38,0,0,0,.46.24v0c.54-.09,1-.71,1.39-1,.62-.44,1.44-.68,1.64-1.49A.81.81,0,0,0,144.82,23.66Z"/><path class="cls-26" d="M147.8,25.3c-1.16-.26-2.2,1.05-3,1.71-.65.52.18,1.52.87,1.13S148,27.07,148.21,26A.6.6,0,0,0,147.8,25.3Z"/><circle class="cls-27" cx="135.39" cy="67.59" r="6.36"/><circle class="cls-27" cx="89.42" cy="65.94" r="6.13"/><path class="cls-17" d="M43.46,265.64a15,15,0,0,1,.45-6.35,25.91,25.91,0,0,1,2.42-5.88,34.93,34.93,0,0,1,3.57-5.22c.67-.81,1.39-1.57,2.1-2.35s1.51-1.45,2.29-2.15a.18.18,0,0,1,.26.24h0c-.62.84-1.28,1.64-1.91,2.45l-1.83,2.49a53.68,53.68,0,0,0-3.24,5.2,35.52,35.52,0,0,0-2.47,5.55,26.79,26.79,0,0,0-.79,2.93,14.11,14.11,0,0,0-.37,3v0a.24.24,0,0,1-.47,0Z"/><path class="cls-28" d="M81.68,104.69a6.11,6.11,0,0,0-4,2.54,15.63,15.63,0,0,0-2.56,4.51,1.52,1.52,0,0,0,2.77,1.17c.66-1.21,1-2.6,1.6-3.84a6.28,6.28,0,0,1,2.6-2.91A.76.76,0,0,0,81.68,104.69Z"/><path class="cls-28" d="M83.79,109.57a2.25,2.25,0,0,0-.15-.34c.14.31,0,.12,0,0a.68.68,0,0,0-1.17-.32.74.74,0,0,0-.13.27l-.06,0a1.85,1.85,0,0,0-.32.47c-.22.37-.41.74-.6,1.13a2.58,2.58,0,0,0-.29,2.54.93.93,0,0,0,1,.42c1.38-.29,1.66-2.14,1.7-3.32A3,3,0,0,0,83.79,109.57Z"/><path class="cls-28" d="M99,109.34c-.87,1.55-1.75,3.73-1.39,5.53a.93.93,0,0,0,1.79,0,16.56,16.56,0,0,0,.16-2.35,9.18,9.18,0,0,1,.64-2.68C100.46,109.14,99.35,108.71,99,109.34Z"/><path class="cls-28" d="M104.48,113.33a8.71,8.71,0,0,1-.21-3.08.85.85,0,0,0-1.64-.45,7.69,7.69,0,0,0-.34,4.14C102.58,115.37,104.78,114.76,104.48,113.33Z"/><path class="cls-28" d="M108,110c-.78-.74-2.17.24-1.53,1.18a1.09,1.09,0,0,1,.08.69,2.38,2.38,0,0,0,.28,1.43,1,1,0,0,0,1.68,0A3,3,0,0,0,108,110Z"/><path class="cls-28" d="M132.4,115.72a7.11,7.11,0,0,0-2.4-1.32,7.28,7.28,0,0,1-2.21-1.85c-.59-.66-1.87,0-1.53.89.85,2.17,3.37,5,6,3.75A1,1,0,0,0,132.4,115.72Z"/><path class="cls-28" d="M136.5,113.75c-.82-1.24-2.44-1.54-3.79-1.87-1.07-.26-1.86,1.38-.77,1.84.51.22,1,.44,1.52.69a6.79,6.79,0,0,0,1.9.83C136.15,115.37,137,114.57,136.5,113.75Z"/><path class="cls-28" d="M67.44,132.65c-.1-.77-1.32-1.13-1.5-.2s-1,2.57-.51,3.63c.27.66,1.3,1,1.7.22a4.56,4.56,0,0,0,.31-1.79A9,9,0,0,0,67.44,132.65Z"/><path class="cls-28" d="M70.41,132.5a.58.58,0,0,0-1.11,0c-.13.73-.27,1.46-.38,2.19a10.23,10.23,0,0,0-.29,2.2.88.88,0,0,0,1.63.44C71.07,135.9,70.69,134,70.41,132.5Z"/><path class="cls-28" d="M158.54,134.32c-.81,1.05-1.46,2.59-.31,3.65a1,1,0,0,0,1.75-.73,12.62,12.62,0,0,1,.19-2.24A.9.9,0,0,0,158.54,134.32Z"/><path class="cls-28" d="M162.49,135.93a4,4,0,0,0-1.74,3.89,1.06,1.06,0,0,0,.75.75,1,1,0,0,0,.57,0,1.08,1.08,0,0,0,.75-.75c.14-.54.13-1.1.24-1.65a9.48,9.48,0,0,1,.46-1.44C163.77,136.09,163,135.69,162.49,135.93Z"/><path class="cls-3" d="M66.76,143.15a.92.92,0,0,0-1.25-.33.94.94,0,0,0-.33,1.25,3.85,3.85,0,0,1,.21.9,2.14,2.14,0,0,0,.33.75.7.7,0,0,0,1.2,0A2.65,2.65,0,0,0,66.76,143.15Z"/><path class="cls-3" d="M69.39,145.38a1,1,0,0,0-1.9,0c-.05.84-.42,2.86,1,2.86S69.44,146.22,69.39,145.38Z"/><path class="cls-3" d="M89.32,111.44a.72.72,0,0,0-1.44,0c-.09.7-.34,1.56.37,2a.68.68,0,0,0,.7,0C89.65,113,89.4,112.14,89.32,111.44Z"/><path class="cls-3" d="M89,116.39a.75.75,0,0,0-1.5,0,6.36,6.36,0,0,0-.27,2,.7.7,0,0,0,1,.42C89.1,118.31,89.07,117.23,89,116.39Z"/><path class="cls-3" d="M85.44,117.8a.73.73,0,0,0-1.46,0c0,.24,0,.47,0,.71a.74.74,0,0,0,1.48,0C85.44,118.27,85.44,118,85.44,117.8Z"/><path class="cls-3" d="M109.41,121.38c-.33-.39-.9.11-.68.52a10.45,10.45,0,0,0,2.51,3.3c.34.27.95,0,.79-.46C111.61,123.34,110.33,122.46,109.41,121.38Z"/><path class="cls-3" d="M118.64,123.4c-.42-.93-1.68-1.25-2.55-1.61-1.07-.44-1.7,1.26-.77,1.82s1.8,1.21,2.84,1A.82.82,0,0,0,118.64,123.4Z"/><path class="cls-3" d="M152.21,118.66a3.76,3.76,0,0,0-2.67-.25.83.83,0,0,0,0,1.6,3.76,3.76,0,0,0,2.67-.25A.65.65,0,0,0,152.21,118.66Z"/><path class="cls-3" d="M156.8,116a1.16,1.16,0,0,0-.83-.57c-.15,0-.43,0-.54-.1-1-.83-2.38.53-1.42,1.42.75.7,2.14,1,2.79,0A.76.76,0,0,0,156.8,116Z"/><path class="cls-3" d="M56.92,194.12a3.31,3.31,0,0,0-2,2c-.36.91,1,1.26,1.46.61s1.08-.75,1.41-1.41S57.62,193.82,56.92,194.12Z"/><path class="cls-3" d="M63,192.87a2.43,2.43,0,0,0-1,.78.8.8,0,0,1-.11.09c-.32-.09-.72.19-.59.56,0,.13,0,.19.08.17a.68.68,0,0,0,.68.68c.81,0,1.47-.84,1.72-1.51A.62.62,0,0,0,63,192.87Z"/><path class="cls-3" d="M175.92,215.84a1.22,1.22,0,0,0-2.22.94c.26.87-.39,1.67-.08,2.5a1.31,1.31,0,0,0,1.6.91c1-.4,1.19-1.07,1.29-2.06A3.83,3.83,0,0,0,175.92,215.84Z"/><path class="cls-3" d="M174.33,222.93a.91.91,0,0,0-1.75,0,12.11,12.11,0,0,1-.64,2,1.21,1.21,0,0,0,2.2.93A4.48,4.48,0,0,0,174.33,222.93Z"/><path class="cls-3" d="M170.82,218a.77.77,0,0,0-1.28.76c0,.16,0,.32,0,.47s-.2.44-.23.67-.09.53-.15.8a1.21,1.21,0,0,0,2.32.64A3,3,0,0,0,170.82,218Z"/><path class="cls-3" d="M140.45,242.71a.89.89,0,0,0-1.16,0,.85.85,0,0,0-.4.77,3.35,3.35,0,0,0,.22,1.12.8.8,0,0,0,1.53,0,3.35,3.35,0,0,0,.22-1.12A.85.85,0,0,0,140.45,242.71Z"/><path class="cls-3" d="M144.47,244.61a.86.86,0,0,0-.76-.44c-1,.12-1.15,1.14-1.07,2s1.34,1.12,1.52.21c0-.09.05-.17.08-.26a.68.68,0,0,0,.29-.44A1.46,1.46,0,0,0,144.47,244.61Z"/><path class="cls-3" d="M68.42,259c-1.1-.52-2.62.31-3.56.93-.62.4-.44,1.58.41,1.5,1.05-.09,2.88-.51,3.39-1.54A.66.66,0,0,0,68.42,259Z"/><path class="cls-3" d="M72.93,257.58a1.53,1.53,0,0,0-2.25.35c-.6.7.15,1.83,1,1.32.41-.24.84-.09,1.23-.48A.85.85,0,0,0,72.93,257.58Z"/><path class="cls-3" d="M70.42,254.8c-.53.08-1.08.12-1.62.17a.73.73,0,0,0,0,1.46c.93.08,1.93.07,2.31-.93C71.28,255.05,70.79,254.74,70.42,254.8Z"/><path class="cls-3" d="M135.27,254.43a4.37,4.37,0,0,0-.9.2.75.75,0,0,0,0,1.43,4.37,4.37,0,0,0,.9.2C136.45,256.42,136.45,254.28,135.27,254.43Z"/><path class="cls-3" d="M141.35,257.46a2.58,2.58,0,0,0-1.44-.4,2.12,2.12,0,0,0-.93.21h-.15a2.3,2.3,0,0,1-.38,0,.57.57,0,0,0-.4,1c.93.85,2.12,1.43,3.29.67A.84.84,0,0,0,141.35,257.46Z"/><path class="cls-3" d="M140.6,254.34a3,3,0,0,0-1.79-.17.82.82,0,0,0,0,1.64,3,3,0,0,0,1.79-.17A.76.76,0,0,0,140.6,254.34Z"/><path class="cls-3" d="M79.19,176.37a2.51,2.51,0,0,0-1.9,2.25c0,.77,1.09.73,1.17,0s.89-1.1,1.15-1.7C79.73,176.66,79.53,176.24,79.19,176.37Z"/><path class="cls-3" d="M83.53,176.75a4.82,4.82,0,0,0-2.79,2.75,1.05,1.05,0,0,0,1.81,1.06c.52-.86,1.37-1.3,2-2A1.07,1.07,0,0,0,83.53,176.75Z"/><path class="cls-3" d="M86.89,177.45a2.57,2.57,0,0,0-.81.74,8,8,0,0,1-.51.91c-.64.85.71,1.79,1.42,1.1a5.46,5.46,0,0,0,1-1.65C88.34,177.89,87.6,177,86.89,177.45Z"/><path class="cls-3" d="M138.69,174.19a2.23,2.23,0,0,0-2.5,2.54,1.11,1.11,0,0,0,.8,1,1.09,1.09,0,0,0,1.33-.76,6.09,6.09,0,0,1,.93-1.84A.66.66,0,0,0,138.69,174.19Z"/><path class="cls-3" d="M144.22,174.62a.87.87,0,0,0-.82-.63c-1,0-1.43.94-1.94,1.66a26,26,0,0,0-1.61,2.53c-.44.81.68,1.77,1.32,1s1.22-1.35,1.83-2S144.6,175.6,144.22,174.62Z"/><path class="cls-3" d="M146.48,177.34c-.83.19-1.27,1-1.75,1.66s.18,1.85,1,1.25,1.63-1,1.82-1.88A.85.85,0,0,0,146.48,177.34Z"/><path class="cls-3" d="M155.89,100.27a8.26,8.26,0,0,0-3.67,1.33c-.69.43-.25,1.65.57,1.35a6.22,6.22,0,0,1,1.48-.39,12,12,0,0,1,1.62.23C157.52,102.88,157.52,100.17,155.89,100.27Z"/><path class="cls-3" d="M164,101.33c-.49-.49-1.19-.26-1.76-.08a.94.94,0,0,0-.65.62,2.29,2.29,0,0,1-.72.26c-1,.14-.69,1.64.23,1.67a5.31,5.31,0,0,0,2.58-.77A1.07,1.07,0,0,0,164,101.33Z"/><path class="cls-3" d="M164.53,96a2.49,2.49,0,0,0-2.64,0,3.24,3.24,0,0,0-1.49,1.89c-.31.78.88,1.18,1.29.54.23-.35.48-.71.92-.75.72-.06,1.31.1,1.91-.4A.87.87,0,0,0,164.53,96Z"/></g></g></g></svg>