<svg id="Layer_4" data-name="Layer 4" xmlns="http://www.w3.org/2000/svg" xmlns:xlink="http://www.w3.org/1999/xlink" viewBox="0 0 1000 1000"><defs><style>.cls-2{fill:#ffec8f}.cls-3{fill:#fff}.cls-4{fill:#8ac5eb}.cls-7{fill:#e64f6a}.cls-8{fill:#ff9ca2}.cls-9{fill:#ffb3b3}.cls-10{fill:#fcddc8}.cls-11{fill:#fcc9b8}.cls-14{fill:#fcede3}.cls-15{fill:#426ca6}</style><radialGradient id="radial-gradient" cx="370" cy="299" r="31" gradientUnits="userSpaceOnUse"><stop offset="0" stop-color="#fcc9b8"/><stop offset="1" stop-color="#fcddc8"/></radialGradient><radialGradient id="radial-gradient-2" cx="535" cy="329" r="29" xlink:href="#radial-gradient"/></defs><path d="M569 927c-3-8-10-17-19-13l-17 7a248 248 0 0 1-58 21c-10 2-19 5-29 5l-27-1c-20-2-39-4-58-9-8-2-15-6-21-11-8-6-15-12-16 3 0 18 2 34 10 50 3 5 6 13 11 15 7 3 18-8 24-10 14-6 29-1 43 4 17 7 33 9 51 5s36-11 54-14c13-2 22 1 33 7 7 4 17 9 22-1 9-16 5-42-3-58z" fill="#5e87bf"/><path class="cls-2" d="M645 675c-2-8-8-16-5-24 3-9 3-14 0-23-3-8-2-15-3-24l-3-30c0-9 3-18 0-27l-7-14c7-10 0-17-7-24-6-6-12-15-21-17-16-5-35 0-52-3-31-5-61-7-93-9-34-2-66 1-100 9-8 2-16 6-24 7-7 2-15-2-20 4-5 5-4 17-4 24-20-7-27 14-29 29-1 9-3 20-1 29 1 9 4 19 1 29-3 9-9 17-12 27-2 9-3 19-3 28-1 21 1 42 2 63l1 33c0 8-14 13-20 17-4 3-10 5-12 10-3 6 7 14 11 18 2 2 5 5 9 4 3 0 4-1 6-3 6-3 11 4 14 8l23 25a170 170 0 0 1 11 15c7 10 10 16 11 27 1 10 9 20 3 29 15 12 28 20 47 26l19 4c5 2 10 5 16 6 7 2 16 1 23 2 47 1 91-27 135-39l-9-30c15-6 26-24 29-40l3-30c1-8 4-16 7-23 8-1 18 15 25 20-9-1-4 6 0 8 5 3 11 5 16 6 24 3 46-27 46-48 1-26-12-50-23-73l-10-26z"/><path class="cls-3" d="M506 541l20-4a96 96 0 0 0 17-6l17-8a85 85 0 0 1 16-5c6-1 13 1 18-3a2 2 0 0 0 1-2v-1a2 2 0 0 0-2-1c-11-2-24 2-34 6l-15 4c-6 3-13 5-20 6-26 7-53 13-73 31-1 1-1 3 1 2a119 119 0 0 1 37-17l17-2zM368 547a6 6 0 0 0 3-5 2 2 0 0 0-1-1l-4-4a32 32 0 0 0-4-3 39 39 0 0 1-9-6 93 93 0 0 1-7-8l-6-7c-1-2-4 1-4 2 0 5 0 10 2 15a19 19 0 0 0 2 4l-3-2-13-8c-1-1-4 1-3 2a33 33 0 0 0 3 14c3 5 8 8 13 11 10 5 21 10 32 6 2-1 4-2 3-4a12 12 0 0 0-4-6zM321 584l-12-7-6-3c4-2 9-8 7-12-1-5-6-8-8-12l-8-12c-1-2-4 1-4 2a31 31 0 0 0-2 20c1 4 3 9 7 12-3 0-6 3-4 5l5 6 8 5 8 5c3 2 4 1 7-1 1 0 3-2 3-4l1-2a3 3 0 0 0-2-2zM568 561l-11 10-3 3 12-24c2-4-3-2-4-1-10 12-21 22-26 37-1 3 2 5 5 5a45 45 0 0 0 17-8l3-4v1a73 73 0 0 0-2 14c0 3 3 4 6 3a13 13 0 0 0 8-9l3-14 2-12c-1-6-7-3-10-1zM601 570l-10 16c-3 6-6 11-2 17 2 2 5-1 5-2l7-15 8-14c3-6-6-6-8-2zM629 603a42 42 0 0 0-3 8c0 2 2 1 3 0l4-8v-2l-4 2zM639 639c1-4-4-2-4 0l-12 21c-2 2-11 15-6 17 8 3 13-12 15-17l7-21zM665 745c-1-16-12-32-17-47 0-2-2-2-4-2a7 7 0 0 0-1 0l-1-12c0-6-4-9-5-14 0-2-3 0-3 1l-3 18-2 18c0 3 3 4 5 3a15 15 0 0 0 3-1c3 19 11 31 29 39l-1-3zM646 783l-6-4c-3-2-10 5-8 8a23 23 0 0 1 2 8l-2 7c-1 2-2 6 2 7 4 2 8-2 10-5a21 21 0 0 0 4-15 13 13 0 0 0-2-6zM546 845c-3 9-7 13-14 18-4 2-8 7-9 12s3 8 8 6c16-5 27-23 24-39-1-5-8 1-9 3zM543 903v4a21 21 0 0 1-5 3c-7 4-15 6-23 8l-23 8a38 38 0 0 0-10 5c-1 1-4 5-1 5a360 360 0 0 0 44-12 74 74 0 0 0 22-12c3-3 10-10 5-15-3-4-9 3-9 6z"/><path class="cls-4" d="M409 598v3a106 106 0 0 1 11-15c-6 4-10 8-11 12z"/><path class="cls-4" d="M420 586l-5 6c-3 3-7 6-8 10 13-10 27-20 43-24 15-4 31-5 47-12 10-5 18-9 26-17l11-11 15-11c-9 1-19 8-28 11-18 5-37 7-53 15-18 8-35 19-48 33zM651 765l-12-6c-5-2-11-1-17 0 0 4 5 4 7 7 3 3 3 7 3 11 0 7-2 14-4 20-2 4-4 10-8 12-3 0-13-4-12-5-5 6 10 12 14 14 13 6 30-3 33-17 1-6 0-12-1-19 0-4-1-13-3-17z"/><path class="cls-4" d="M622 757v3a23 23 0 0 1 5 0 11 11 0 0 0-5-3zM236 794v6a15 15 0 0 0 7 8c10 6 13-2 22-4l-5-13c-7 2-19 11-23-1l-1 4zM284 533c9-4 23 1 30 7l-4-17c-9 0-23 1-26 10zM590 519l-18 3c13 6 30 6 42 18 7 7 11 16 15 25 7-5 7-16 5-24-2-6-8-8-11-14s0-7-7-9c-8-1-17 0-26 1z"/><path d="M404 613s-71-33-126 7c-48 35-40 67-40 95 0 31 32 178 173 222 0 0-2 6 1 7l-3-1s-19 9-22 15c-1 3 19 15 23 17 6 3 19 2 13-8 9 5 2-10 2-13-2-6 1-12 1-18 13 1 32-11 43-17 34-18 118-103 113-215s-44-112-105-119c-40-5-73 28-73 28z" fill="#b02a40"/><path d="M405 636s-60-29-108 6c-42 30-35 57-34 82 0 66 47 130 98 167 11 8 22 14 35 17 74 13 126-59 149-119 9-24 14-49 13-75-5-96-38-96-90-102-35-4-63 24-63 24z" fill="#c23c53"/><path class="cls-7" d="M507 773c8-10 13-20 16-26 9-24 10-85-29-81-36 4-74 26-75 65-1 22-2 62 18 78 23 17 52-11 70-36zM353 682c-15-13-36-17-63-5-17 7-17 34-16 50 1 22 16 45 30 61 14 17 60 58 73 19s7-100-24-125zM461 659c22-14 37-49-3-39a751 751 0 0 1-123 20c-7 0-17-3-23 2 2 3 5 4 8 6 38 20 88 26 131 15a37 37 0 0 0 10-4zM548 773c-13 21-25 42-39 62a336 336 0 0 1-21 28l-1 1-3 3-8 9c-7 7-13 12-16 21a5 5 0 0 0 1 6c7 6 15-2 21-6a130 130 0 0 0 15-14 221 221 0 0 0 28-37c13-22 23-47 28-73 0-3-4 0-5 0zM342 883c9 4 15 4 10-7-8-20-35-28-47-46l-26-39-20-35-2 1a149 149 0 0 0 85 126z"/><path class="cls-8" d="M472 812l-2-2c-3-5-7-5-12-5 1-5 1-9-3-14a23 23 0 0 0-2-2c-4-3-11-5-18 1l-3 2c-6 6-10 18-8 41 23 6 35 4 42-1l3-2c6-6 6-14 3-18zm-7 14l-2 2c-6 4-17 4-33 1-1-17 1-28 6-33l2-2c5-3 9-2 11 0l1 1c3 3 3 4 2 9l-1 7h7c4 0 6 0 8 3l1 1c1 2 2 7-2 11z"/><path class="cls-9" d="M371 775l-1-1c-5-1-8 1-10 3a13 13 0 0 0 0 1c-1 4-1 6 1 8-3 1-5 2-6 5l-1 1c0 3 1 7 5 9l2 1c4 1 11 0 22-7-3-13-7-18-12-20z"/><path class="cls-8" d="M245 672c-1 2 0 3 1 5l1 3-3 1-4 3v1c-1 2 0 4 3 6h1c4 1 10 0 17-5-2-9-5-14-8-16l-2-1c-3-1-5 1-6 2v1zM292 804c4 0 5 3 4 6 0 4-4 7-6 9h1l-8-7a6 6 0 0 1-1-2c0-4 4-6 6-4h2a4 4 0 0 1 2-2l1-1a6 6 0 0 0-5 3l2-1a5 5 0 0 0-9 3c-2 5 5 10 9 12a1 1 0 0 0 1-1c3-3 7-6 7-11a5 5 0 0 0-5-5l-1 1zM459 896a1 1 0 0 0-1 0 5 5 0 0 0-3 3 6 6 0 0 0-3-2 4 4 0 0 0-3 1c-4 5 3 9 6 11h2c2-3 5-5 5-9a3 3 0 0 0-3-4zm1 6c0 2-2 4-4 6-3-2-6-4-6-7-1-2 1-3 3-2l1 1h2l2-3c2 0 3 3 2 5zM575 666a4 4 0 0 0-6 1v4c-2 1-6 2-4 5 3 4 10 1 13 0l1-1c-1-3-2-7-4-9zm-7 11c-2-1-2-4 0-5h2l1-1-1-4c2-2 4 0 5 2a19 19 0 0 1 2 7c-3 1-6 2-9 1z"/><path class="cls-9" d="M414 704a36 36 0 0 0-4 0c-9 0-13 5-18 11-5-6-9-10-18-9h-4c-8 1-16 9-17 23v4c2 14 13 30 42 49 28-22 38-39 38-52v-5c-2-14-11-21-19-21zm10 26c0 12-10 25-29 41-20-14-31-27-33-38v-4c0-10 6-14 9-14a27 27 0 0 1 3-1c5 0 8 2 12 7l7 8 6-9c4-5 7-7 12-7h2c4 0 10 4 11 13z"/><path class="cls-8" d="M447 901v-2c-2-7-8-10-12-9a18 18 0 0 0-2 0c-4 1-6 3-8 7-3-3-6-4-10-3h-2c-4 1-8 6-7 13l1 3c1 6 8 14 25 21 12-13 16-23 15-30zm-16 24c-12-5-18-11-20-17v-2c-1-4 2-7 3-7l2-1c2 0 4 0 6 2l4 4 3-5 5-5h2c2 0 5 1 6 6l1 2c0 6-4 14-12 23zM454 729c-2-3-4-4-6-4h-1l-4 4c-1-1-3-2-5-1h-1c-1 1-3 3-2 7v1c1 3 5 6 13 9 6-7 7-12 6-15zm-7 13c-5-2-9-4-10-7v-1c-1-2 0-3 1-4a6 6 0 0 1 1 0l3 1 2 1 1-2 3-3c1 0 3 0 4 2v1c1 3-1 7-5 12zM520 760l-2-1c-3-2-7-1-8 1a11 11 0 0 0-1 1v7c-2 0-4 0-6 3v1c-1 2-1 5 3 8l1 1c3 2 9 2 19-3-1-10-3-16-6-18zm3 17c-7 2-12 3-15 1h-1c-2-2-2-4-2-5l1-1 3-2h3l-1-3v-4a8 8 0 0 1 1-1c1-1 2-2 5 0h1c3 2 4 7 5 15zM409 871a7 7 0 0 0-4 3c-5-2-10 1-10 7 1 7 9 10 14 12a1 1 0 0 0 2-1c3-4 7-9 7-15a7 7 0 0 0-9-6zm1 20c-4-1-8-3-11-6-4-4-2-14 6-9l1-1a6 6 0 0 1 3-3c5-1 7 4 7 8-1 4-4 8-6 11zM391 891l-3 3-1 2-2-2h-3c-1 0-2 1-2 3l1 1c0 3 4 5 9 7 4-4 5-8 5-10l-1-1c0-2-2-3-3-3zM371 653l-2 2-1 3-2-2-3-1v1c-1 0-2 1-2 3v1c1 3 4 5 10 7 3-4 5-8 4-11v-1c-1-2-2-2-3-2h-1zM324 608l-4 4h1c-2-2-4-4-7-1v4l7 6h2c2-3 5-6 5-9 0-2-2-4-4-4l-1 1c3 0 3 3 3 5l-5 7 2-1c-3-1-7-3-8-7 0-1 1-4 3-2a21 21 0 0 1 2 2l1-1 3-3v-1zM504 594c-2 0-4 1-5 3l1-1-3-3a4 4 0 0 0-3 1c-4 3 1 9 4 11h1c3-2 6-4 7-7 1-2 0-4-2-4h-1c2 1 2 3 1 5-1 3-4 4-6 6h1l-5-8a5 5 0 0 1 0-2l2-1a3 3 0 0 1 1 1l2 2h1l3-3h1zM287 713l-1-2c-3-5-7-6-10-5l-1 1c-4 1-5 3-6 7-2-2-5-3-8-1l-1 1c-3 1-5 5-3 11v1c3 5 9 10 23 13 8-13 9-21 7-26zm-9 21c-9-2-15-5-18-9v-2c-1-3 0-6 1-6l1-1c2-1 3 0 6 1l4 2 1-4c1-3 1-4 3-5h1c1-1 4 0 6 3l1 1c1 5-1 12-6 20zM458 754a9 9 0 0 0-14-3 10 10 0 0 0-3 7c-9-1-14 8-8 15 5 7 17 6 24 6a1 1 0 0 0 1-1c2-7 5-17 0-24zm-1 24c-6 0-13 0-19-2-8-4-9-19 3-17l1-1 3-6c6-5 12 1 13 7 2 6 0 13-1 19zM578 716l-1-2c-3-6-9-7-12-6l-2 1c-3 2-5 4-5 8-4-2-6-2-10 0a16 16 0 0 0-2 0c-3 2-5 7-3 14l1 2c3 5 10 10 27 13 8-15 9-24 7-30zm-9 25c-12-2-19-6-22-10v-2c-2-4 0-7 1-8l1-1c3-1 4 0 7 1l4 2 2-5c0-3 1-4 3-5a12 12 0 0 1 1-1c2 0 5 0 7 4l1 2c2 5 0 13-5 23zM279 678a8 8 0 0 0-5 4c-6-4-12 0-12 8 1 7 10 12 16 14a1 1 0 0 0 1 0c4-5 9-10 9-17 1-5-4-9-9-9zm7 12c0 4-5 14-10 12s-8-5-11-10c-3-6 2-13 9-8a1 1 0 0 0 1-1c1-2 2-3 4-3 6-1 8 5 7 10zM500 663l-3 3-2 3-2-2c-2-1-2-2-4-1a8 8 0 0 0-1 0c-1 0-2 2-2 5v1c1 3 5 7 12 10 5-6 7-11 7-14v-1c-1-3-3-4-4-4a8 8 0 0 0-1 0zM493 861l-1-1c-3-2-5-2-8-2 0-3 0-6-3-8l-2-1c-2-2-7-3-11 1l-2 2c-3 4-5 13-1 28 15 1 22-1 27-5l1-1c3-5 3-10 0-13zm-3 10l-1 1c-4 4-11 5-21 4-2-10-2-18 1-22l1-1c3-3 6-2 7-1h1c2 2 2 3 2 6v5l4-1 6 1a12 12 0 0 1 1 1c1 1 1 4-1 7zM338 694l-2-1c-6-3-10-2-15 1-1-5-3-9-8-12l-3-1c-5-1-13 1-17 9l-2 3c-3 9-1 22 12 43 24-4 35-12 39-20l1-3c3-9 0-16-5-19zm0 17l-2 2c-3 7-14 13-30 16-9-15-11-26-9-34l1-2c3-6 8-7 10-6l2 1c3 1 4 3 6 7l2 7 6-3c4-2 6-2 9-1l2 1c2 1 5 6 3 12zM416 747c-5 0-7 4-9 8-2-2-4-5-7-6s-7 0-8 3c-6 12 9 21 17 26a1 1 0 0 0 1 0c6-6 12-12 14-21 1-5-2-10-8-10zm4 16a43 43 0 0 1-7 10c-1 0-3 4-5 3l-6-4c-5-4-9-9-10-15 0-3 1-6 4-7 2-1 5 1 7 3l3 3a1 1 0 0 0 2 0c2-3 4-7 8-8 8 0 7 10 4 15zM400 642c3 4 0 9-4 10a19 19 0 0 1-7 1c-3 0-6 0-7-4l1-12a9 9 0 0 1 2-3c5-5 9 2 9 6h1a6 6 0 0 1 5 2l1-1a7 7 0 0 0-5-2l-1-4c-2-3-5-4-9-3-7 4-6 14-5 21h1c5 1 11 2 16-1 4-2 6-7 3-11 0-1-2 0-1 1zM577 686l-1-1c-3-1-5 0-7 1 0-3-1-4-3-5a11 11 0 0 0-1-1c-3-1-6 0-8 4l-1 1c-1 4-1 10 5 19 10-1 15-5 17-8l1-1c1-5 0-8-2-9zM525 601h-4l-3 2-1-3c0-2-1-3-2-3l-1-1-5 3v1c-1 4 1 9 5 15 7-2 11-5 13-8v-1c1-3 0-4-1-5a8 8 0 0 0-1 0zM253 728l-1-1a4 4 0 0 0-4 1 4 4 0 0 0-2-3h-1c-1-1-3 0-5 3-1 3 0 7 4 12 7-2 10-4 11-6v-1c1-3-1-5-2-5zM461 849h-3l-1 1-1-1-2-2v-1l-3 2v1c-1 2 0 5 3 9 4-1 7-3 8-5v-1c1-1 0-3-1-3zM473 885l-3 1-3 1v-2c-1-2-1-3-3-3-1 0-3 0-4 2v1c-1 3 1 7 4 12 6-2 9-4 11-7v-1l-1-4h-1zM567 758c-2-6-6-8-9-8l-2 1c-3 0-5 2-6 5-3-2-5-3-8-3l-2 1c-3 1-6 4-5 10v2c1 5 7 11 20 17 10-10 13-18 12-23zM280 777c-2 2-2 3-2 6v4l-4-1-6 1-1 1c-1 1-2 4 1 7l1 1c3 4 10 5 20 5 2-10 2-17-1-21l-1-2c-2-2-5-2-6-1h-1zM566 642l-1-2c-3-5-8-5-11-4l-2 1c-3 2-4 4-4 8-3-1-6-2-9 0l-2 1c-2 2-4 7-1 12l1 2c3 5 10 9 26 10 6-14 6-23 3-28zm-6 24c-10-1-17-4-20-8l-1-1c-2-4-1-7 1-8a12 12 0 0 1 1 0c2-2 3-2 5-1l5 2v-5c1-3 1-4 3-5h1c2-1 5-1 7 2l1 2c2 4 1 12-3 22zM531 629l-1-2c-4-8-11-10-16-8l-2 1c-5 2-7 5-8 10-4-2-8-4-13-1a22 22 0 0 0-2 1c-4 2-7 8-5 16l2 3c3 7 13 14 34 19 12-19 13-31 11-39zm-13 33c-15-4-24-9-28-15v-3c-2-5 0-9 2-10h2c2-2 4-1 8 1l5 2 2-6c1-4 2-5 5-6l2-1c2-1 6 0 9 5l1 2c2 7-1 17-8 31z"/><path class="cls-8" d="M521 673c-8-1-13 2-19 8l-8 8-6-9c-2-4-5-8-9-11a19 19 0 0 0-26 7c-6 10-4 22 0 32 7 16 20 30 32 42h2c17-11 37-23 46-41 7-13 5-34-12-36zm9 37c-9 16-27 28-43 37-16-16-37-38-34-62 1-6 4-13 10-15 5-3 12-1 16 3 5 5 9 13 13 19h2c7-7 15-18 26-17 16 3 16 23 10 35zM417 809c-4-9-12-12-21-12-10 1-15 7-20 14l-7 12c-7-7-14-16-22-19-6-2-14-1-19 1-6 3-9 10-10 16-3 13 2 25 10 35 12 16 29 28 46 38a2 2 0 0 0 2 0c18-16 38-36 43-61a38 38 0 0 0-2-24zm-2 28c-6 21-24 39-40 54-23-14-52-33-55-63-1-14 12-28 26-21 5 2 9 7 13 10l8 9a2 2 0 0 0 3 0l9-13c4-7 8-12 17-13 19-2 24 22 19 37z"/><path class="cls-8" d="M479 693a13 13 0 0 0-10 4c-7-9-20-6-23 6-2 13 11 24 19 31h1c9-5 19-12 23-22 3-8-1-18-10-19zm7 21c-1 4-5 7-8 10a70 70 0 0 1-6 5l-5 3c-1 1-4-2-5-3-6-6-13-14-14-23a14 14 0 0 1 5-12c5-4 12 0 15 5l1-1c3-2 5-4 9-4 10 1 12 12 8 20z"/><path class="cls-9" d="M370 618c-4-1-6 0-11 3l-7 5-3-8c-2-5-4-7-8-8l-2-1c-3 0-8 1-11 9l-1 3c-2 9 4 22 16 38 19-7 30-15 33-24l1-3c2-8-2-12-5-13l-2-1z"/><path class="cls-8" d="M414 829c-4-6-10-8-16-3-3 4-3 9-2 14-4-1-8-2-12-1-5 2-7 7-5 12 4 13 25 11 35 10h1c2-10 4-23-1-32zm-1 31c-9 1-23 2-29-5a16 16 0 0 1-4-6 7 7 0 0 1 7-9l9 1 1-1c0-4-1-11 3-14 7-6 13 4 14 9 3 8 1 17-1 25z"/><path class="cls-9" d="M457 867l-1-1c-2-4-5-5-9-5 1-4 1-7-1-10a18 18 0 0 0-1-2c-3-3-9-4-14-1l-2 2c-5 4-9 13-9 31 17 6 26 5 32 1l2-1c5-4 5-10 3-14z"/><path class="cls-8" d="M405 680c-1-2-2-2-5-2l-5-1 1-4v-6l-1-1c-1-1-4-2-7 0l-2 1c-3 3-5 10-6 21 11 3 18 4 22 1l2-1c3-2 3-5 2-7l-1-1zM429 647c-1-2-1-3-4-4l-4-2 3-4c2-2 2-3 2-5v-2c-1-1-3-3-7-3l-1 1c-5 1-9 6-14 16 8 7 14 10 19 10h1c4-2 5-4 5-6v-1zM503 798l-1-1c-2 0-3 0-5 2-1-2-1-3-4-4a8 8 0 0 0-1 0c-1-1-4 1-5 4l-1 1c0 3 1 8 7 15 8-3 11-7 12-10l1-1c0-3-1-6-3-6zm1 6l-1 1c-1 2-4 5-10 7-3-5-5-9-4-12v-1c1-2 2-2 3-2h1l2 2 1 3 2-2h4c1 0 2 1 2 4zM473 629c5-1 8 5 7 9 0 3-6 15-9 14-5-2-9-5-12-9-4-6 0-16 8-10a1 1 0 0 0 1 0c2-2 2-3 5-4v-1a9 9 0 0 0-6 4h1c-5-4-12-2-13 5-1 9 10 14 16 17a1 1 0 0 0 1-1c5-4 9-10 10-16 0-6-4-10-9-9v1zM253 696a1 1 0 0 0-1 0l-4 4c-3-2-6-4-9 0-4 6 7 12 11 14a1 1 0 0 0 1 0c4-4 8-8 7-14a5 5 0 0 0-5-4zm3 8l-5 9c-4-2-9-5-11-9-1-4 2-6 5-4l3 2a1 1 0 0 0 1 0c1-2 2-5 4-5 4-1 4 5 3 7zM455 610l-1-1c-2-5-6-5-9-4h-1c-3 1-4 3-4 6-3-1-5-2-8 0l-1 1c-2 1-4 5-2 9v2c3 4 9 8 21 10 6-12 7-18 5-23zm-7 19c-8-2-14-4-16-8v-1c-2-3 0-5 1-6h5l4 2 1-4 2-4 1-1c1 0 4 0 5 3l1 1c2 4 0 10-4 18zM337 662c-1-4-4-6-7-6h-1c-3 1-4 3-5 5-2-2-4-3-7-2a12 12 0 0 0-1 0c-2 1-5 4-4 8v2c1 4 5 8 16 13 8-8 10-14 9-18zM422 783l-3 3-1 2-2-2-4-2-1 1c-1 0-2 1-2 4v1c1 3 4 6 10 10 5-5 7-9 7-12v-1c0-3-2-4-3-4a7 7 0 0 0-1 0zM457 653c-1-2-2-3-5-3v-6-1c-2-1-4-2-8-1l-1 1c-3 2-5 7-5 16 8 4 13 4 16 2h1c3-2 4-6 3-7l-1-1zm-3 6h-1c-3 2-7 1-13-1 1-7 2-11 5-13v-1c3-1 4 0 5 1v4l-1 3h3c2 0 3 1 3 2l1 1-2 4zM539 783h-2c-4 1-6 3-8 6-3-3-5-4-10-4h-1c-4 1-8 5-8 12v2c1 6 7 14 22 23 13-12 17-20 17-27v-2c-2-7-6-10-10-10zm6 13c0 5-5 12-14 20-10-6-16-12-17-18v-1c0-5 3-7 5-7a13 13 0 0 1 1-1l6 3 3 4 3-5c2-2 3-3 6-3a13 13 0 0 1 1 0c2 0 5 1 5 6zM282 745l-2-1c-5-1-7 1-11 3-2-3-3-6-8-7h-2c-4 0-9 2-11 9l-1 3c-1 7 3 16 15 30 17-7 24-15 26-21l1-3c0-7-3-12-7-13zm2 12v2c-2 6-9 12-21 17-8-9-12-17-11-23v-2c1-5 5-6 7-6a14 14 0 0 1 1 0c3 0 4 2 5 5l3 5 4-4c3-2 4-3 7-2h1c2 1 5 4 4 8zM481 594a10 10 0 0 0-7 4c-6-6-15-2-16 8 0 9 11 16 18 20a1 1 0 0 0 1 0c6-6 13-12 14-20 1-6-3-12-10-12zm8 14a23 23 0 0 1-4 8 46 46 0 0 1-3 4c-2 2-4 5-7 3-6-3-12-8-14-14a13 13 0 0 1-1-6c1-8 9-8 14-3l1-1a9 9 0 0 1 6-4c7 0 10 7 8 13z"/><path class="cls-8" d="M483 598a11 11 0 0 0-2 0c-2 0-2 1-4 3l-2 4-3-3c-2-2-3-3-5-3l-1 1c-1 0-3 2-3 5v2c1 4 5 9 13 14 8-6 11-12 11-17v-1c-1-4-3-5-4-5zM538 609c-6-3-13 0-15 6a12 12 0 0 0 0 4c0 1 2 4 1 5a11 11 0 0 0-4 3c-4 6 0 13 6 14 9 3 19-4 26-10l1-1c-3-8-7-17-15-21zm11 24c-6 4-14 10-21 8-9-3-11-13-2-18 0 0 1 0 0 0-1-3-2-5-1-8 2-9 11-7 16-2a30 30 0 0 1 5 7c2 4 6 10 3 13z"/><path class="cls-8" d="M536 612c-4-1-8 0-10 4l2 6 2 3-1 1c-4 1-7 3-7 7s7 5 11 5a38 38 0 0 0 15-9c-2-6-5-14-12-17zm8 12l2 4c1 3-4 5-5 6-5 3-14 6-17-1-2-4 4-7 7-8l1-1c-2-2-5-5-4-8 2-8 10-1 13 2a37 37 0 0 1 3 6zM544 685a10 10 0 0 0-6 4c-7-6-16-2-16 7s11 16 17 20l2-1c5-5 11-10 13-18 1-6-3-13-10-12zm8 14a24 24 0 0 1-5 8 50 50 0 0 1-3 4l-3 3a7 7 0 0 1-4-2c-5-3-10-7-12-12a12 12 0 0 1-1-7c1-7 9-7 13-3h1a9 9 0 0 1 6-4c7-1 9 7 8 13z"/><path class="cls-8" d="M545 688a1 1 0 0 0-1 0c-3 0-4 3-6 6-2-2-3-4-6-5a6 6 0 0 0-6 3c-3 9 7 16 13 20a1 1 0 0 0 1-1c4-4 10-9 11-15 0-4-2-8-6-8zm2 13a32 32 0 0 1-5 6l-3 3-4-3c-4-3-7-6-8-11 0-5 4-7 8-3l2 2a1 1 0 0 0 2 0l5-6c7 0 5 8 3 12zM532 732a10 10 0 0 0-6-4c-2 0-3 0-2-2a9 9 0 0 0-2-6c-2-5-9-6-14-3-10 6-10 20-9 31a1 1 0 0 0 1 0c8 2 18 5 26 1 7-3 10-11 6-17zm-10 17a31 31 0 0 1-10 0 62 62 0 0 1-7-1c-3 0-4-1-4-5-1-7 0-15 3-21a12 12 0 0 1 9-5c7-1 9 6 9 12 3 0 6 1 8 3 6 8-1 15-8 17z"/><path class="cls-8" d="M528 735c-2-2-3-2-6-2h-4l1-5-1-6a12 12 0 0 0-1-1c-1-1-4-2-8 1l-1 1c-4 3-5 11-4 22 10 2 18 2 22-1l1-1c3-3 3-6 2-7l-1-1zM487 752c-5 0-9 1-12 5-4-5-10-8-17-6-6 1-10 8-11 14 0 16 13 28 24 37h2c10-7 22-15 26-27 4-10 0-23-12-23zm11 23c-4 12-16 20-25 26-10-8-21-17-24-30a20 20 0 0 1 2-14c3-5 9-7 15-5 3 1 6 3 8 6h1c3-4 6-6 11-6 11 1 15 13 12 23z"/><path class="cls-8" d="M487 757c-6 0-9 5-13 9-2-3-5-8-8-9-4-2-8-1-11 3s-2 10 0 15c3 8 10 14 17 20h1c8-6 17-13 21-22 3-7 0-15-7-16zm5 17c-3 8-12 15-19 20-8-7-19-16-18-28a13 13 0 0 1 2-7c2-3 7-3 10 0l6 8h2c3-3 6-9 11-9 8 1 9 10 6 16zM444 666c-3-2-6-1-10 0-4-11-16-11-22-1-5 10 3 24 8 33a1 1 0 0 0 1 0c9-2 19-5 25-12 6-6 7-16-2-20zm-1 22l-10 5a72 72 0 0 1-8 3h-4l-3-5c-3-6-7-15-5-22 1-5 4-10 10-10s8 4 10 8h1c3-1 6-2 9 0 9 4 7 15 0 21z"/><path class="cls-8" d="M443 671l-1-1c-2-1-4-1-7 1l-4 2-2-5c-1-3-1-4-4-5l-1-1c-2 0-5 1-7 5l-1 1c-1 6 1 14 7 24 11-2 19-6 21-11l1-2c2-5 0-7-2-8zM331 741c-10-7-25-4-29 9-1 6 0 10 3 15-7 4-12 9-12 18s9 14 16 16c6 2 12 0 18-2 10-3 19-10 28-17a1 1 0 0 0 0-1c-5-13-11-30-24-38zm21 40l-6 4c-10 8-23 15-36 13a19 19 0 0 1-15-13c-2-8 4-16 11-19l1-1c-3-5-5-10-3-16 5-15 22-12 31-3 5 5 8 10 11 16a123 123 0 0 1 5 12c1 1 3 5 1 7z"/><path class="cls-8" d="M327 746c-6-4-16-3-19 6-1 6 4 11 7 16-4 2-9 3-12 7-5 4-3 12 2 15 13 9 32-5 42-12v-1c-4-11-9-24-20-31zm16 26l2 4c1 2-3 4-5 5a92 92 0 0 1-9 6c-9 4-23 8-29-2-3-6 2-11 7-13l7-3 1-1c-3-5-9-10-7-17s10-7 15-4c4 2 7 5 10 9l8 16zM370 671h-1a11 11 0 0 0-8 2c-5-9-15-7-19 2-3 9 6 20 11 27h1c8-4 16-7 20-14 5-6 3-15-4-17zm3 17a24 24 0 0 1-7 7 52 52 0 0 1-7 3l-3 2c-2 1-4-2-4-3-4-5-9-12-9-19a13 13 0 0 1 3-7c4-6 11-2 14 3h1a8 8 0 0 1 7-2c8 2 8 10 5 16z"/><path class="cls-8" d="M369 674h-1c-3 0-6 2-8 4-1-2-2-5-5-7-2-1-5-1-7 1-8 7 2 20 7 25a1 1 0 0 0 1 0c6-3 13-6 16-12 2-4 1-9-3-11zm-2 15a34 34 0 0 1-7 4c-1 1-4 4-5 2l-4-5c-3-4-5-9-4-14 2-6 8-4 10 0l1 3a1 1 0 0 0 2 1c2-2 5-5 8-5 7 3 2 11-1 14zM290 643c-4-7-13-8-18-3a12 12 0 0 0-4 9c-10-1-17 10-9 19 7 8 21 7 30 6l2-1c2-9 4-21-1-30zm-1 30c-8 1-17 1-25-3-10-5-10-22 4-20l2-1c0-4 0-6 3-9 8-7 15 2 17 9 3 8 1 16-1 24z"/><path class="cls-8" d="M284 644c-3-3-6-3-8-2l-1 1c-2 2-2 3-2 6v5h-5c-3-1-4-1-6 1l-1 1c-1 1-2 4 1 8l1 1c4 4 12 5 24 4 2-11 1-19-2-24z"/><path class="cls-8" d="M318 626c-2-10-12-16-21-11-4 2-6 5-7 9-6-2-12-1-17 3-5 5-4 12-1 19 6 12 24 15 36 16a1 1 0 0 0 1 0c5-11 12-24 9-36zm-1 5l-2 13a82 82 0 0 1-4 11l-2 4c-1 3-3 2-5 2-10-2-21-5-28-13a19 19 0 0 1-5-12 12 12 0 0 1 4-9c5-4 10-3 15-1a1 1 0 0 0 1-1c1-4 3-7 7-10 10-5 18 6 19 16z"/><path class="cls-8" d="M299 620c-4 2-5 7-6 12-3-2-7-4-10-3a9 9 0 0 0-8 7c-1 5 3 10 7 13 7 4 15 6 23 7a2 2 0 0 0 1 0c4-9 9-19 7-29-2-6-8-10-14-7zm13 12c0 8-4 16-7 23-9-1-21-4-27-12-3-5-2-14 5-14l10 4h2c1-5 1-11 5-13 8-4 12 6 12 12zM323 810a12 12 0 0 0-9 5c-6-7-17-4-19 6-2 11 12 21 20 26h1c7-6 15-12 17-22 2-7-2-15-10-15zm8 17c-2 8-9 14-16 19-7-5-14-11-17-19a15 15 0 0 1 0-9c1-4 5-6 9-6 3 0 5 2 7 4h1c2-3 4-4 7-5 8 0 11 9 9 16z"/><path class="cls-8" d="M324 815h-1c-3 0-4 1-6 3l-3 4-3-4c-2-2-3-3-5-3l-1 1c-2 0-5 2-5 6v2c1 5 6 11 15 18 9-7 14-14 14-19v-2c-1-4-3-6-5-6zM507 815c-4 0-7 3-10 6-4-4-10-6-16-3-5 2-8 9-7 15 1 14 15 23 26 29a1 1 0 0 0 1 0c9-8 19-17 21-29 2-10-5-19-15-18zm12 22c-1 4-4 8-7 12a82 82 0 0 1-7 8l-3 3c-1 1-5-2-6-3-8-5-17-12-20-21a16 16 0 0 1 2-13c4-8 13-5 18 0a1 1 0 0 0 2-1c2-3 5-5 9-6 12-1 15 12 12 21z"/><path class="cls-8" d="M508 820c-5 1-8 5-10 9-2-2-5-6-8-7-4-1-8 1-10 4-2 4-1 10 2 14 4 7 11 11 18 15a1 1 0 0 0 1 0c6-6 14-13 16-22 1-6-2-13-9-13zm5 18l-8 11c-2 3-4 6-7 4a81 81 0 0 1-7-6c-6-4-11-10-10-17a7 7 0 0 1 6-7c3 0 4 2 6 3l4 5 2-1c2-3 4-8 9-9 9 0 8 11 5 17z"/><path class="cls-3" d="M323 862l-14-16a302 302 0 0 1-25-32c-1-1-2 0-1 1a335 335 0 0 0 24 35l14 13c5 5 10 10 16 13v-1l-14-13zM475 635c3-2 6-2 6-7a5 5 0 0 0-2-3c-3-2-4-1-7 1l-10 5a174 174 0 0 1-24 8 205 205 0 0 1-25 6c-8 1-15 3-23 3l1 1c8 1 16 2 24 1a204 204 0 0 0 26-4 183 183 0 0 0 23-7l11-4zM287 826a344 344 0 0 1-21-35h-1a173 173 0 0 0 18 34c7 11 14 23 23 32 1 1 1 0 1-1l-20-30zM338 717l-3-18-5 3a123 123 0 0 0 1 19l7-4zM338 746l7-3a162 162 0 0 1-5-17l-7 4a111 111 0 0 0 5 16zM349 751l-7 3 12 22c5-5 6-11 2-15a35 35 0 0 1-7-10zM321 706l-10 4a168 168 0 0 0 2 18l10-4a128 128 0 0 1-2-18zM330 749a126 126 0 0 1-5-16l-10 4a139 139 0 0 0 5 15 108 108 0 0 0 10-3zM323 761a226 226 0 0 0 16 29 105 105 0 0 0 9-7 268 268 0 0 1-14-26l-11 4zM311 754a153 153 0 0 1-5-15 61 61 0 0 1-13 2 110 110 0 0 0 3 14 89 89 0 0 0 15-1zM326 797l5-2a218 218 0 0 1-17-32 104 104 0 0 1-14 1c10 25 26 33 26 33zM302 714l-10 5v12a48 48 0 0 0 12-1l-2-16zM471 730l1-18a175 175 0 0 1-24-6 78 78 0 0 1 6 19 152 152 0 0 0 17 5zM481 732a117 117 0 0 0 12 1 142 142 0 0 0 3-21 83 83 0 0 1-15 1v19zM516 702c-2 4-6 7-11 8a150 150 0 0 1-3 23l9-1c4-16 5-30 5-30zM477 763l8-1 6-20-11-1c-1 7-1 15-3 22zM504 758l5-17-9 1-5 19 9-3zM456 735a149 149 0 0 1 1 25 48 48 0 0 0 11 2v-3l3-20-15-4zM469 794h2l10-22h-5a140 140 0 0 1-7 22zM501 768l-10 2-8 19a53 53 0 0 0 8-5c3-3 7-9 10-16zM453 789a19 19 0 0 0 6 4 131 131 0 0 0 7-22 58 58 0 0 1-10-2 169 169 0 0 1-3 20zM535 829c-5 12-12 23-21 32a537 537 0 0 1-25 27 140 140 0 0 0 46-59zM295 670a57 57 0 0 1 9-11 88 88 0 0 1 23-15l-1-2c-9 0-18 0-26 4s-18 11-14 21c1 2 6 7 9 3z"/><path class="cls-2" d="M678 421c-28-14-8-61 0-81 6-15 4-25 2-41-3-12-12-25-14-37-2-15-6-28-14-40-9-16-17-29-17-47-1-17-6-35-14-51-7-12-8-27-17-37-8-10-19-20-32-23-12-3-23-11-36-14-8-2-16-3-24-1-3 1-21 8-21 11 0-13-4-21-18-22-27 0-52 3-77 12a147 147 0 0 0-46 26c-12 9-24 21-31 34l-16 36c-12 21-22 47-28 70-3 10-4 19-9 29l-17 26-12 53c0 15-2 31 3 46s21 18 34 13l-2 23c0 7 2 15 5 22 4 9 11 18 17 26 5 8 12 11 21 12 34 4 65-10 98-14 37-5 73 2 108 9 17 4 37 5 53 10 13 4 24 8 38 8s30-5 41-15c10-9 6-29 1-40 6 13 42 20 41 0a31 31 0 0 1-17-3z"/><path class="cls-8" d="M317 174l17-45c3-8 7-18 12-26 5-6 12-11 15-19-25-3-46 48-52 65l-16 43-19 48c-3 5-4 11-8 16 6-3 11-10 15-15a133 133 0 0 0 10-14l15-28a156 156 0 0 0 11-25zM403 445c-3-9-12-17-16-25-9-17-25-28-35-45-5-9-8-24-15-32-7-7-10 0-15 6-12 16-30 36-32 56-1 18 0 42 12 56 11 14 45 15 54 8a88 88 0 0 1-12 11c-5 4-19 8-26 8 5 7 27 6 37 4-4 3-7 8-12 9 10 3 17-1 25-5l-1 5c22 1 37-29 37-48a22 22 0 0 0-1-8zM665 409c-1-10 0-22 3-31 1-6 1-11 3-16 7-15 4-38 4-54-1-8-1-18-7-24 0 3-1 11-6 13-7 4-11-19-12-23-3-9-3-19-4-28-1-19-3-40-13-57l-4 18c-3-6 0-12-1-18s-3-13-6-18c2 10-2 18-3 28-2 10-1 22-2 33-2 13-6 30-2 44 4 12 11 23 12 37v21c6-15 8-29 4-45-1-6-3-10-2-16a161 161 0 0 0 2-18c5 2 8 12 11 16 9 19 16 41 16 62 0 10-6 18-8 28l-11 32c-3-5-2-17-3-24 0-8 4-23 0-30l-8 20c-6 21 2 45 9 65 4 15 8 40-4 52s-29 6-35-8l-10-20c-5-15-7-33-3-48 6-21 14-41 18-63 4-21 1-39-2-60l-5-28c-1-13 2-26 4-39 2-10 6-20 5-30-1-8-4-14-10-6-3 5-2 13-4 19l-5 11c-3 7-2 15-3 22-1 5-5 17-3 21-3-7-1-18-1-25v-36c-4-23 2-52-11-72-7-10-12-21-21-30-5-5-13-6-19-10-7-5-4-9-1-16 11-22-27-7-34-2-2-7-5-14-14-13-22-7-39-7-53-2-11 4-23 5-33 11-1 1-3 3-1 3 10 3 19-2 30 0 7 2 18 6 22 14-8 6-20 4-29 9-36 17-50 56-56 93l-1 25c11-34 24-70 57-88 10-5 22-7 33-6 9 1 14 5 22 9 8 3 15-2 23-4 5-1 12 0 18 1 12 1 27 7 34 17 9 12 14 29 14 44 1 17 1 35 4 52a148 148 0 0 0 9 30c10 26 2 46-6 71-3 11-8 26-17 34-14 14-36 26-54 33-6 2-5 19-5 24 0 19-3 33 5 50 6 14 17 25 31 30 23 8 43 24 65 5 0 0 17 5 21 3 7-3 12-9 19-13a81 81 0 0 0 18-12c6-6 6-12 7-20l-2-32c3 9 17 15 25 14 9-2 9-8 16-13-10 8-30 8-30-16z"/><path class="cls-7" d="M535 399c4-7 6-16 14-28v30c10-1 22-20 26-28 7-14 13-29 14-44 1-14 1-16-3-30l-10-27-4-10-6-21c-2-16 0-32 1-49 1-20 9-38 1-58-5-12-15-22-23-32s-21-12-33-12h-19c-1-12 16-11 19-19-6 0-11 3-16 2 0-6 14-10 15-18 1-6-8-2-12 0-6 3-7 6-11 12-4-6-4-14-9-19-6-6-17-9-26-7 2 7 16 17 14 25-1 7-6 1-9-1-5-3-9-6-15-4 5 5 16 8 16 18-1 9-8 5-15 6-7 0-15 4-22 6a85 85 0 0 0-39 29c-10 12-13 28-18 43l-6 21c-2 10-2 20-5 29l-7 23c-3 10-9 17-15 24s-11 15-19 22l-22 19c-14 13-28 22-31 43-2 13-1 31 17 32-2 0 11-24 12-26l27-37c3-5 12-13 13-19l-4 19-8 34c-3 13-6 26-7 39-1 8-3 20 3 27 7-11 6-29 16-39 4 7 1 17 1 25 1 11 1 22 3 31a53 53 0 0 0 9 17c2 4 6 11 10 13 6 3 5-1 8-5l14-31 1 1c6 13-5 25-4 38 1 2 6-2 6-3 3-3 3-5 5-9 6-13 12 4 10 11-5 12-15 23-23 32-3 3-12 12-8 17 5 5 27 0 33 0 27-1 53-3 80-7 14-2 22-4 35-9 17-7 7-19 5-32-2-27 7-42 21-64z"/><path class="cls-7" d="M578 491l-8-10c-2 4 0 10-4 13-11 5-11-11-11-17 1-9 0-19 3-29 1-8 1-17 4-25l4-12-5 8-9 15c-3 6-6 13-11 17-3 2-5 2-7-2-1-2 1-5-1-8-3 8-3 15-2 23 0 6 0 13 2 18 7 16 18 26 35 27 5 0 26-10 26-10s-12-4-16-8zM653 414c-6-19 7-41 0-61a26 26 0 0 0-5 8c-5 10-7 24-8 33-3 12 4 21 6 33l3 18a25 25 0 0 1-1 2 28 28 0 0 1-2 7c-4 10-18 27-30 24-3-1-11-11-17-16l-1-7c-2-7-4-14-4-21-1-16 10-26 17-38a61 61 0 0 0 9-21c1-6-2-17 1-23l-7 20a158 158 0 0 1-19 34c-9 12-19 33-10 50 3 6 0 9 5 12 2 4 6 7 9 10 5 3 13 3 17 6 12 10-11 14-16 15 2-1 7 4 10 3 6 0 7-6 11-9s9-1 13-3c5-2 11-9 14-13 6-9 8-18 10-28 1-7-2-17 0-24l4 7c-3-14 0-33 0-47-4 7-7 19-9 29zM669 307a37 37 0 0 0-2-6c-1 9-4 15-3 24l3 29c-1-7 3-18 4-26 0-7 0-14-2-21zM627 246c3 8 8 16 14 18l-9-62c0 4-5 13-6 18l-2 17a32 32 0 0 0 3 9z"/><path class="cls-4" d="M352 411a25 25 0 0 0-2-2c-2 0-2 11-2 13 0 8 2 16 4 24 1 3 5 9 3 13-1 3-4 3-7 1-5-2-8-7-13-11-6-6-10-13-13-21h-2a51 51 0 0 0 10 24 45 45 0 0 0 8 8 41 41 0 0 1-5-1 89 89 0 0 1-9-4c-4-1-7-5-9-8a68 68 0 0 1-12-46c0-2-3 0-3 1-4 18-2 37 9 52l8 9a26 26 0 0 0 10 7c7 3 16 5 24 2 3-2 6-5 8-9a33 33 0 0 0 3-11l-2-14c0-4 0-8-2-11-3-5-4-11-6-16zM620 484l-14-3a42 42 0 0 1-13-7 70 70 0 0 1-10-11l-10-11v1c1 6 1 11 4 17a53 53 0 0 0 9 13c7 7 18 13 29 11 2 0 10-8 5-10zM647 395l-1 1a85 85 0 0 0 0 26l4 23a34 34 0 0 1-11 29c-3 4-9 6-11 11 0 0-1 2 1 2 4 0 8-4 11-7a55 55 0 0 0 10-11 39 39 0 0 0 7-22c1-17-6-35-10-52zM581 491a31 31 0 0 1-10-8 67 67 0 0 1-6-11c-2-4-5-7-6-11-1-2-4 0-4 1 1 11 2 20 8 30 5 8 15 14 25 8l1-2c-1-4-5-5-8-7z"/><path class="cls-3" d="M255 310a78 78 0 0 1 8-14l16-15c7-9 12-19 18-28 9-13 16-30 14-46-9 12-15 25-24 37-22 29-45 66-45 103 0-8 5-18 8-26l5-11zM259 376c0-8-5-16-5-25 0-4 0-21 5-24-10 6-13 19-12 30 0 6 5 18 12 19zM354 101c5-1 13-11 18-14a95 95 0 0 1 18-10c5-2 36-5 22-16-7-5-18 1-24 5-8 4-16 11-23 18l-12 17a4 4 0 0 0 1 0zM550 73c1 4 7 7 9 9 8 8 16 17 21 26a128 128 0 0 1 7 21c3 10 4 21 4 32 7-15 6-33 1-49-4-13-11-33-24-40-4-2-19-9-19 0a4 4 0 0 0 1 1zM615 152l1 3 1 33c1 6-1 12-1 18 7-13 6-29 7-43 0-8-3-14-5-21-2-6-9-17-9-23 0 11 5 22 6 33zM654 311v-2a77 77 0 0 0-5-16l-9-13c0 9 2 16 4 25 4 16 0 31 0 47 0-1 6-6 6-8 5-8 6-23 4-33zM614 343a55 55 0 0 0 0 5c10-4 10-25 11-34 0-13-4-35-18-41l4 16c3 6 5 11 5 18 1 12-3 24-2 36zM598 460c-15-30 3-55 7-86-5 15-14 26-18 41s-4 30 3 44a42 42 0 0 0 7 12c3 3 10 5 11 8a137 137 0 0 1-10-19zM283 414c3-4 1-14 1-20-1-7 0-13 4-21a139 139 0 0 0 9-29c-6 4-8 12-11 18a79 79 0 0 0-8 18c-2 6-3 13-3 19 0 2 7 17 8 15z"/><path class="cls-10" d="M403 384l1 12c1 34 9 80-25 102-2 1-5 3-8 3l-7 1c-8 4 1 25 5 29 14 15 38 44 35 73 0 0 25-37 50-53s71-44 67-57c0 0-25-19-29-33-7-26 2-70 2-70l-56 12zM218 727c-2-3-10-10-9-15l4-3 27-18a141 141 0 0 1 12-9c2-1 6-3 7-5-3 4-3 9-5 14a28 28 0 0 1-12 12c-4 2-5 7-5 12 0 1 0 6 2 7s4-1 6-2a18 18 0 0 1-2 11 47 47 0 0 1-3 4l4 15c3 7 7 16 5 23a39 39 0 0 1-11 19c-2 2-4 4-7 4s-6-4-5-8l-10-5M571 779a14 14 0 0 1-4-9l-1-11c-1-9-5-14-14-17-7-3-15-2-19-11 0-2-2-5 0-7l13 6c8 4 16 8 26 7-3-3-4-8-6-12-2-3-6-4-9-5l-13-5c-4-1-9-3-12-7s-4-10-3-15c3 0 6 4 10 5 7 2 13 7 21 7 4 0 8 0 11 3l7 9c-1-4-1-9-3-13l-4-10c-1-3-9-1-12-2a125 125 0 0 1-15-2c-5-1-10-2-13-6l-4-11s36 9 52 6v-10l6 3c3 1 5 2 8 1 4 1 3 9 4 12l1 21v19l-1 18c2 11 5 21 4 31 0 6-1 12-7 13-4 1-7-1-11-3l-10-4a15 15 0 0 1-2-1z"/><path class="cls-10" d="M403 384l1 12c1 34 9 80-25 102-2 1-5 3-8 3l-7 1c-8 4 1 25 5 29 14 15 38 44 35 73 0 0 25-37 50-53s71-44 67-57c0 0-25-19-29-33-7-26 2-70 2-70l-56 12zM218 727c-2-3-10-10-9-15l4-3 27-18a141 141 0 0 1 12-9c2-1 6-3 7-5-3 4-3 9-5 14a28 28 0 0 1-12 12c-4 2-5 7-5 12 0 1 0 6 2 7s4-1 6-2a18 18 0 0 1-2 11 47 47 0 0 1-3 4l4 15c3 7 7 16 5 23a39 39 0 0 1-11 19c-2 2-4 4-7 4s-6-4-5-8l-10-5M571 779a14 14 0 0 1-4-9l-1-11c-1-9-5-14-14-17-7-3-15-2-19-11 0-2-2-5 0-7l13 6c8 4 16 8 26 7-3-3-4-8-6-12-2-3-6-4-9-5l-13-5c-4-1-9-3-12-7s-4-10-3-15c3 0 6 4 10 5 7 2 13 7 21 7 4 0 8 0 11 3l7 9c-1-4-1-9-3-13l-4-10c-1-3-9-1-12-2a125 125 0 0 1-15-2c-5-1-10-2-13-6l-4-11s36 9 52 6v-10l6 3c3 1 5 2 8 1 4 1 3 9 4 12l1 21v19l-1 18c2 11 5 21 4 31 0 6-1 12-7 13-4 1-7-1-11-3l-10-4a15 15 0 0 1-2-1z"/><path class="cls-11" d="M370 502a13 13 0 0 0 3-1c7-2 12-7 16-12s9-9 11-15c4-18 3-38 4-57 1-15-7-36 15-36 9 0 18 3 26 3 17-1 33-3 50-2 1 13-5 33-11 45-5-12-32-10-41-7-18 4-38 39-24 67s4 26-8 23-36-5-36 8c0 10 9 21 15 29 5 7 10 19 17 25 4 3 5 2 10 1 7-2 13-6 20-5l-17 18-14 15c-3-8-3-17-7-25l-16-22c-5-7-11-13-15-22-2-4-12-30-2-30a22 22 0 0 0 4 0zM238 723c1-3 0-6-1-8 0-2 1-6-1-7-1-1-4 2-5 3-3 1-6 2-4 6 2 3 5 6 5 10 2-1 5-2 6-4zM243 742a5 5 0 0 0 0-2c0-1-3-5-2-6-4 5-13 10-20 13a36 36 0 0 1-7 2c-4 1-4 2-2 5l5 9c2 0 5-3 6-4 6-4 10-10 16-13l4-4zM250 784c5-8 1-17-3-25a28 28 0 0 1-1-5l-3-5c1 12-12 17-20 24-4 5 4 8 6 12 2-4 10-14 16-13 4 0 2 6 1 8 0 2-6 8-5 9 2 3 8-3 9-5zM622 762a29 29 0 0 1-4-2c-4-2-10-5-14-9s-6-7-7-12l-3 7-2 11c-2 4-9 6-13 5-4-2-6-9-9-12-4-6-10-10-16-12l-9-1c-2-1-3-2-5-1 1 2 5 3 6 4l11 6c2 1 6 3 7 6 2 5 2 12 3 17 0 4 0 8 4 11 5 3 12 3 18 6l5 6 16 12c2 2 5 5 7 5 6 1 9-12 11-16l2-15c0-5 1-9-2-13-1-2-4-2-6-3zM589 681c-1-3-3-5-7-5a8 8 0 0 1 0 3c4 0 3 4 3 6 0 5 1 10 3 14-1-1 1-5 2-6a37 37 0 0 0 0-7 15 15 0 0 0-1-5z"/><path class="cls-11" d="M577 738c-3 1-7-5-8-8a29 29 0 0 0-8-10c-2-2-5-2-8-2a42 42 0 0 1-12-4l-8-7c2 3 8 3 12 4 11 2 26 4 31 16a23 23 0 0 1 1 9v2zM582 719l-4-7c-2-3-5-5-5-9-1-3 0-7-3-9l-6-1-12-1c-2 0-7-1-8-3l15-1 8 1h9l2 4c2 8 4 17 4 26z"/><path d="M482 446l8-30a181 181 0 0 0 5-27c1-2-2-1-2 1l-5 26c-2 10-6 20-7 30h1z"/><path d="M490 412c-3 9-3 19-3 28 0 8 1 16 4 23a57 57 0 0 0 13 19c5 5 12 11 20 11l1-1-12-6a58 58 0 0 1-20-26c-6-15-3-32-2-48h-1zM403 380l-1 20 1 22v32c-1 11-4 21-10 30-3 4-7 7-12 10-4 3-9 7-14 6-2 0-4 2-2 3 8 2 17-6 23-11 9-7 14-17 16-28 3-11 2-23 2-35l-1-24c0-8 0-17-2-25 0-1 0 0 0 0zM412 446l2 26c1 4 1 13 5 15 1 1 2 0 2-1-3-5-4-10-5-16-1-8-3-16-3-25l-1 1zM451 476a86 86 0 0 1-8 15 44 44 0 0 1-6 7c-2 3-5 4-8 6v1c5 1 10-6 13-10l10-20-1 1zM401 508a45 45 0 0 0-14-4c-2 0-7-1-9 2h11a120 120 0 0 1 12 2zM458 510c4 3 10 1 14 0l21-3h1c-6-2-12-1-17 0-6 1-12 3-18 2l-1 1z"/><path class="cls-10" d="M476 112s-50-23-75 8-56 122-56 122-11 64-2 79 70 79 95 82c19 2 101-33 109-43 19-23 30-84 30-84a165 165 0 0 1-13-53c-2-30-10-131-88-111z"/><path class="cls-8" d="M469 338c-3-3-7-6-11-5-7 1-7 4-13 0-4-3-8-2-13-1-4 1-9 1-12 3-2 0 7 17 8 18 4 3 9 3 13 4s7 3 11 3c4 1 10-2 13-4l11-9-7-9z"/><path class="cls-7" d="M466 341l-1-2c-6-5-13 2-20-2-2-2-4-4-8-4-5 1-8 3-13 3 3 4 8 5 12 7s7 6 12 7 8-2 12-3l14-2a21 21 0 0 1-8-4z"/><path d="M354 320c-9-10-14-23-10-35 5-13 13-25 29-18 17 7 33 41 20 58-11 14-28 8-39-5z" fill="url(#radial-gradient)"/><path d="M529 357a32 32 0 0 1-14 0c-13-4-11-17-6-26 6-13 39-42 53-25 15 19-17 47-33 51z" fill="url(#radial-gradient-2)"/><path class="cls-11" d="M576 274a5 5 0 0 1 0-2c-3 5-5 10-9 14a46 46 0 0 1-13 10c-3 1-9 0-10 4 9 4 22-7 21 8 0 9-4 17-7 25-5 10-11 18-20 25-12 11-21 17-35 23-14 5-29 10-43 13-14 4-33 1-44-10-9-8-19-13-29-21a293 293 0 0 1-22-21 73 73 0 0 1-21-41c-2-11-5-28 2-38 6-7 13 3 20 3-1-8-14-13-16-22-1-5-1-13 2-18 3-4 8-4 13-6 5-3 10-7 16-7 9-2 15 1 23 4 5 2 6 0 10 4 6 7 12 13 14 22s-4 16-2 24c0 2 14-11 15-15 2-10-1-21-4-30-3-6-8-12-13-17-7-7-16-10-24-16s-25-9-21-22c4-10 14-18 21-25 11-13 24-26 42-26 8 0 16 3 24 5 12 4 24 5 36 7 24 2 43 12 49 37 2 10 8 34 2 43-4 6-13 4-20 4-25 1-56 27-51 54 1 3 3 11 5 12 5 1 9-13 10-16 4-8 9-16 17-19 14-6 27 3 39 7 5 1 9 4 13 6a29 29 0 0 0 5 1c1-5-3-9-3-14v-21l-5-18-1-15c1-12-1-25-5-37a66 66 0 0 0-33-37c-7-3-15-7-23-7-9 0-25 3-25 3s-13-7-21-7c-7-1-13-3-21-2-14 1-27 9-37 19l-13 19-16 29c-6 12-13 25-17 38-1 4-8 21-3 25-5 14-6 29-8 43v22c2 16 4 33 16 45 13 12 28 26 43 36l23 16c7 4 13 9 21 9 10-1 19-7 29-9a180 180 0 0 0 26-8 132 132 0 0 0 16-8c6-1 12-4 18-8a20 20 0 0 0 6-4h-1a82 82 0 0 0 16-17c8-12 12-25 16-39 1-6 5-11 6-18a78 78 0 0 0 1-10v-8zm-18-49a8 8 0 0 1 4 2c2 3 2 9-2 10-3 2-8-1-12-2-9-4-18-6-28-7 2-10 19-6 27-5l11 2zm-191-30c1-2 4-3 7-4a46 46 0 0 1 6 0c10 0 20 7 28 11l12 9c-14-9-31-4-46-6-5 0-11-4-7-10z"/><path class="cls-11" d="M472 315a5 5 0 0 0 3-2c1-3-1-6-4-8-4-3-10-2-15-3-4-1-7-3-11-2-3 2-8 9-5 12 2 2 12-1 16 0s12 5 16 3zM401 325c0 4 2 4 5 5l4 1 4 1a18 18 0 0 0-2-4l-2-7c-3-4-10 0-9 4zM485 346l4 2a17 17 0 0 0 5 0c3 0 7 0 8-3a5 5 0 0 0 0-6c-2-2-5-1-7 1-3 3-6 5-10 6zM442 360a31 31 0 0 1-9-1c-4-1-7-6-11-6-1 12 12 14 20 15a23 23 0 0 0 14-2l5-2 1-4c-7 4-13 0-20 0z"/><path class="cls-14" d="M561 227c-2-3-11-4-15-4-5-1-12-2-18 1v2c4 2 10 2 14 3l10 2 7 1c1-1 3-3 2-5zM475 339l-7-8a11 11 0 0 0-15 0c-1-5-6-6-11-6a52 52 0 0 0-10 2c-3 1-7 1-10 3l-1 1c3 3 10 0 14-1a31 31 0 0 1 9 0c3 0 4 2 6 4 1 2 2 1 3-1h7c3 0 5 2 7 4 3 3 6 10 11 9a1 1 0 0 0 1-1c0-3-3-4-4-6zM459 301c1 0 3-2 2-3l-3-4-2-5a1 1 0 0 0-2 0 4 4 0 0 0-2 2c-1 4 2 12 7 10zM442 354l1-1c-1-2-4-3-6-4l-4-2h-4l1 3 4 3c2 1 6 2 8 1z"/><path class="cls-14" d="M440 334h5a1 1 0 0 0 1-1c-1-2-4-2-5-2a9 9 0 0 0-6 2v1h5zM433 386v2l6 1h9a2 2 0 0 0 1-1c0-7-13-4-16-2zM424 243c4-15-11-27-24-29s-29 0-41 6c-1 0-2 3 0 2 12-2 23-5 36-3a37 37 0 0 1 15 6 27 27 0 0 1 7 6l6 12h1zM540 242a28 28 0 0 0-11-3c-8 0-17 2-23 8-5 4-11 10-12 16l1 1 9-11a36 36 0 0 1 15-9c7-2 14 0 20 2l9 4c2 1 6 2 9 1-4-8-9-6-17-9z"/><path class="cls-3" d="M523 248c-22 3-31 31-31 31s7 19 37 19c32 1 42-27 42-27s-19-28-48-23z"/><path class="cls-15" d="M557 269c0 11-10 21-24 21s-28-9-28-21c1-19 15-23 29-23s25 10 23 23z"/><path class="cls-4" d="M551 274c2 12-7 16-18 16s-27-6-23-19c4-12 11-11 22-11s17 6 19 14z"/><path d="M551 261c0 9-6 19-18 19-12 1-18-9-19-19 0-12 10-14 19-14s18 4 18 14z"/><path d="M510 253c-7 7-7 18-3 26 5 9 15 12 24 12s18-3 23-10c6-7 8-21 2-28-1-1-3 2-2 3 5 7 3 19-3 25-5 6-14 7-21 7-7-1-15-4-19-10-5-8-4-17-1-25z"/><path d="M494 283c11 9 28 13 43 11s26-9 34-20c2-2-1-2-2-1a45 45 0 0 1-34 19 60 60 0 0 1-19-2c-8-2-14-6-21-9 0 0-2 1-1 2zM495 274c4-7 7-13 14-17a44 44 0 0 1 23-7 47 47 0 0 1 37 20c1 2 4-1 3-3a53 53 0 0 0-19-16c-8-4-16-5-24-6-16-2-36 13-37 29 0 2 3 0 3 0z"/><path d="M496 260c4-7 9-14 16-17 8-3 16-2 24-1 14 3 25 11 35 22 0 0 2-1 1-2-3-6-10-10-16-14a65 65 0 0 0-23-8c-16-2-32 4-37 20zM569 287c-1-2-5-2-7-1v1l3-1a5 5 0 0 1 4 2v-1zM564 291l-2-2-3-1-1 1 3 1c1 0 3 0 3 2v-1zM558 295c1-3-4-4-6-3 0 0-1 0 0 0 2 1 6 1 6 4v-1zM551 298a6 6 0 0 0-2-3 4 4 0 0 0-4-1v1a5 5 0 0 0 1 0 4 4 0 0 1 2 1 14 14 0 0 1 3 3v-1zM542 299a8 8 0 0 0-1-3 4 4 0 0 0-3 0 20 20 0 0 1 2 1 7 7 0 0 1 2 3v-1zM533 302v-5h-1l1 5zM525 296v6l1-1a4 4 0 0 0 0-2v-3h-1zM516 299a4 4 0 0 1 1-2l2-2a5 5 0 0 0-3 2 4 4 0 0 0-1 1 2 2 0 0 0 0 1h1zM507 297a4 4 0 0 1 2-2 6 6 0 0 0 2-1v-1a7 7 0 0 0-2 1 5 5 0 0 0-2 3zM503 295c-1-3 1-4 2-5 1 0 1-1 0 0a6 6 0 0 0-2 2 3 3 0 0 0 0 3z"/><path d="M576 261a26 26 0 0 1-4 3 22 22 0 0 1-4 1l-1 1c3 1 8-2 10-4l-1-1zM572 256c-2 3-5 5-9 6 3 2 9-3 11-6h-2zM569 251a7 7 0 0 1-4 4l-4 2v1l2-1a17 17 0 0 0 3-2 6 6 0 0 0 3-4h-1zM566 244c0 2-2 4-4 5a27 27 0 0 1-3 2 8 8 0 0 0-2 2v1l2-2a31 31 0 0 0 4-2 16 16 0 0 0 3-4 6 6 0 0 0 0-2zM557 242a11 11 0 0 1-1 3 14 14 0 0 1-1 2l-3 3v1l4-4a14 14 0 0 0 2-2 6 6 0 0 0 0-2v-1h-1zM550 239a21 21 0 0 1-2 5l-1 3v1c2-2 4-6 3-9zM542 240a7 7 0 0 1-1 2l-1 2v1l2-2a5 5 0 0 0 1-4l-1 1zM535 237a22 22 0 0 1-1 7v1l2-4a10 10 0 0 0-1-4zM528 238a10 10 0 0 0 0 3v3l1-1v-5h-1zM521 239v5h1v-5h-1zM514 242a8 8 0 0 0 0 3l1 2a1 1 0 0 0 1 0l-1-3a11 11 0 0 1-1-2c0-1 0 0 0 0zM507 246a5 5 0 0 0-1 2l1 3h1a4 4 0 0 0-1-3 5 5 0 0 1 0-3v1zM501 249c-2 2-2 5-1 7l1-1v-6zM495 254a4 4 0 0 0 0 3l2 3v-1l-1-2v-3h-1zM535 276l1 6v6l2-1v-6c0-2 0-5-2-6l-1 1zM526 276a13 13 0 0 0-3 5l-2 4h1l2-4 2-5zM521 270a19 19 0 0 0-7 2c-2 1-5 4-4 6l1-1c2-3 6-6 10-7 0 0 1 0 0 0zM521 264l-13-2c-1 1-2 1-1 2l7 1a28 28 0 0 0 7 0v-1zM557 265a6 6 0 0 0-3 0l-5-1c-1 0-3-2-4-1v1l5 2a26 26 0 0 0 6 0l1-1zM545 272l4 5 2 5h1a17 17 0 0 0-2-6l-5-4zM530 280a15 15 0 0 0-1 4v5h1v-4a26 26 0 0 1 0-6zM513 284l4-6 4-3v-1c-2 0-4 3-5 4a11 11 0 0 0-3 6zM507 272a26 26 0 0 1 8-3l6-3-7 2a18 18 0 0 0-7 4zM509 257l7 2 5 5h1a11 11 0 0 0-4-5l-8-3-1 1zM540 275c1 2 2 13 6 12a1 1 0 0 0 0-1l-1-1a12 12 0 0 1-1-4c-1-3-2-5-4-6 0-1 0 0 0 0zM546 269l5 2a21 21 0 0 0 4 1s1 0 0 0l-4-2-5-1zM547 260a16 16 0 0 1 5-2 9 9 0 0 0 4-1v-1l-6 1a8 8 0 0 0-3 3c-1 0 0 1 0 0z"/><path class="cls-3" d="M546 266a7 7 0 0 0-1-4 10 10 0 0 0-2-2l-1-1-1-1a10 10 0 0 0-1-1h-1c-1-2-1 1-1 2a24 24 0 0 0 3 5c1 1 2 4 4 4l1-2zM534 282c-3-2-7-2-11-3a33 33 0 0 1-9-5v1a24 24 0 0 0 9 8c3 2 9 4 12 1l-1-2zM524 263a4 4 0 0 0-1-3h-1a5 5 0 0 1-1 1 3 3 0 0 1-1 0h-1v2a4 4 0 0 0 1 2l1 1a5 5 0 0 0 1 0 3 3 0 0 0 1-1 4 4 0 0 0 1-2zM398 224c-22-8-41 1-41 1s-7 31 22 44c31 13 45-2 45-2 2-10-5-35-26-43z"/><path class="cls-15" d="M419 242c0 10-11 21-25 21s-26-11-26-21 2-23 18-22c14 1 33 12 33 22z"/><path class="cls-4" d="M411 254c0 7-7 9-17 9s-20-7-20-13 4-15 15-15 22 6 22 19z"/><path d="M412 236c2 11-8 18-17 18s-18-9-17-17c1-12 8-15 17-15s17 6 17 14z"/><path d="M378 221h-3a13 13 0 0 0-4 4c-3 4-3 8-4 13a25 25 0 0 0 13 24 28 28 0 0 0 28 0c10-5 13-15 12-26 0-2-3 0-3 2 1 10-2 19-12 23-8 3-16 1-23-2a23 23 0 0 1-11-17c-1-5 0-19 7-21zM350 240a12 12 0 0 1 6 3s1 3 2 1-1-3-2-4a8 8 0 0 0-6 0zM350 246l5 1 5 3 1-1c-1-3-7-4-10-4l-1 1zM352 253c3-3 7 2 10 1l1-1c-1-2-5-2-7-3a5 5 0 0 0-5 3h1zM359 259a9 9 0 0 1 3-2 3 3 0 0 1 1 0l1 1 1-1c1-2-2-2-3-2a8 8 0 0 0-4 3l1 1zM363 262a7 7 0 0 1 4-1l3 1v-1l-3-2a5 5 0 0 0-4 2v1zM368 266a12 12 0 0 1 3-1h3l1-1-4-1a6 6 0 0 0-3 3zM375 270l3-2c1 0 3 1 3-1h-1a7 7 0 0 0-6 2l1 1zM384 270a5 5 0 0 1 0 2 7 7 0 0 1 0 1v1l2-2c0-2-1-2-2-3v1zM392 275c0-1-1-5-3-5v1a4 4 0 0 0 1 1 5 5 0 0 1 0 1 22 22 0 0 0 1 3l1-1zM394 272a5 5 0 0 1 4 4v1l1-1a4 4 0 0 0 0-2l-4-2h-1zM402 273a8 8 0 0 1 3 1 4 4 0 0 1 1 2h1c1-1 0-2-1-3a6 6 0 0 0-3-2l-1 2zM414 275a10 10 0 0 0 0-1 3 3 0 0 0-1-1 2 2 0 0 0-1-2l-1 1a4 4 0 0 1 1 1 3 3 0 0 1 1 2h1zM352 213a9 9 0 0 0 0 8c1 3 5 6 8 5 1 0 2-1 1-2a13 13 0 0 0-3-1 11 11 0 0 1-3-3 10 10 0 0 1-3-7zM359 206c-2 5 1 18 8 16l1-1-4-2a9 9 0 0 1-3-4 26 26 0 0 1-1-9h-1zM367 205c-1 3 0 6 1 8s3 7 7 6v-1l-5-5c-2-3-3-6-2-9l-1 1zM374 205a12 12 0 0 0 1 7c0 2 2 5 5 5v-1l-1-2a11 11 0 0 1-2-3 18 18 0 0 1-2-6h-1zM382 207a11 11 0 0 0 0 7c1 1 2 3 4 3v-1a9 9 0 0 0-1-1 7 7 0 0 1-2-3 12 12 0 0 1-1-5zM388 208c0 3-1 11 5 10v-1a8 8 0 0 1-3-4l-2-5zM396 210a18 18 0 0 0 0 6c0 1 0 4 2 4l1-1a8 8 0 0 0-1-2 6 6 0 0 1-1-2 34 34 0 0 1 0-5h-1zM404 214a8 8 0 0 0-2 3v3a1 1 0 0 0 1 0v-3a5 5 0 0 1 1-3c1 0 0-1 0 0zM409 217c0 2-2 3-3 4l1 1a6 6 0 0 0 3-5h-1zM416 218a8 8 0 0 0-2 1 17 17 0 0 0-1 2 13 13 0 0 0-2 3h1a10 10 0 0 0 2-2 11 11 0 0 1 2-3v-1zM419 223a12 12 0 0 1-1 3l-2 2v1l3-3a10 10 0 0 0 1-3c0-1 0 0 0 0zM423 229a3 3 0 0 1-2 2l-1 3 3-3a5 5 0 0 0 1-2c1-2-1-1-1 0zM426 233a2 2 0 0 1-1 1v1a24 24 0 0 0-2 2c-1 0 0 1 0 0a11 11 0 0 0 3-2 4 4 0 0 0 1-2h-1zM429 237a18 18 0 0 0-4 4v1h1a17 17 0 0 0 4-4l-1-1zM432 243c-1 3-4 3-5 4l-1 1 4-1a4 4 0 0 0 2-4z"/><path d="M426 263c3-9 0-20-5-28-4-7-11-12-18-15s-16-4-24-3a63 63 0 0 0-12 1c-4 1-7 3-10 6-1 1-3 3 0 3h3l4-1a61 61 0 0 1 11-1 60 60 0 0 1 22 3c7 2 13 6 18 11a29 29 0 0 1 6 10l4 14c0 1 0 1 0 0zM356 235c1 12 11 25 22 31 12 6 28 7 41 5 2 0 3-3 2-3-14 1-26 1-39-4s-19-18-25-29h-1z"/><path d="M427 250c2-16-7-29-21-35-16-7-36-3-51 6v2c15-9 32-13 49-6 14 5 22 18 23 33v-1zM401 251v5l-1 7h2a19 19 0 0 0 0-12h-1zM392 251c-2 2-2 4-3 7 0 1-3 3-1 5a32 32 0 0 0 3-6l1-6c1 0 0 0 0 0zM386 244c-2 0-5 3-7 5-1 1-5 4-3 6h1a17 17 0 0 0 1-3 11 11 0 0 1 2-3 51 51 0 0 1 6-5c1 0 1 0 0 0zM383 239h-6a16 16 0 0 0-7 3v1a51 51 0 0 1 6-2l7-1v-1z"/><path d="M383 233c-3-2-7-2-10-3l-2 2 5 1a49 49 0 0 1 6 1l1-1zM407 249a31 31 0 0 1 5 2l4 2v-1l-2-1a15 15 0 0 1-2-1 7 7 0 0 0-5-2v1zM409 243c3 1 6 3 9 2l-4-2-5-1v1zM396 253l-1 6a16 16 0 0 0 0 5h1l1-12-1 1zM403 251a33 33 0 0 0 3 3 9 9 0 0 1 2 3l1 1 2 2c-1-2-1-5-3-7l-4-3-1 1zM387 249l-4 5c0 1-2 4-1 5h1a9 9 0 0 0 1-3 24 24 0 0 1 1-3l2-4zM383 241a24 24 0 0 0-7 2c-2 1-5 2-6 4l1 1 5-4a25 25 0 0 1 7-2v-1zM381 238a18 18 0 0 0-6-2h-6v1h4a30 30 0 0 1 7 1h1zM384 230a7 7 0 0 0-4-3l-3-1-3-1h-1c1 2 4 2 5 3 2 0 5 1 6 3v-1zM407 239a19 19 0 0 0 6 0 17 17 0 0 0 5-2s1 0 0 0h-5l-5 1-1 1z"/><path class="cls-3" d="M409 241c0-2-1-4-3-5a8 8 0 0 1-4-3 2 2 0 0 0-2-1l-1 2 3 6a12 12 0 0 0 5 4c2 0 2-1 2-3zM395 256l-11-4c-3-2-6-5-8-9h-1c0 4 3 8 6 11 3 2 11 7 14 4v-2zM385 231a4 4 0 0 0-4 2c-1 0 0 3 2 3a8 8 0 0 0 1-1 3 3 0 0 1 2-1l-1-3z"/><path d="M360 195h9a55 55 0 0 1 12 0 87 87 0 0 1 22 6 85 85 0 0 1 32 24c1 3 5-2 4-4-3-6-8-10-13-14a79 79 0 0 0-21-11 95 95 0 0 0-23-5c-7-1-16-1-22 3v1zM567 228c-5-3-11-5-16-6l-18-3a73 73 0 0 0-22 5c-7 2-14 5-18 10-1 1-2 3 0 3 5 1 12-4 17-6a111 111 0 0 1 20-6c6-1 13-2 19 0 6 1 11 4 17 4l1-1zM441 310l1 1a9 9 0 0 0 1 1 11 11 0 0 0 4 0c1 0 4-4 2-5a10 10 0 0 0-5 1 6 6 0 0 0-1 0l-2 2zM471 315a2 2 0 0 0 0-2 14 14 0 0 0-4-2c-2-1-5 4-3 5a31 31 0 0 0 4 1 3 3 0 0 0 3-2zM403 327v1l1 2 2 1 3 2 6 1 6 3a50 50 0 0 0 12 3l12 5c3 1 7 0 10-1a45 45 0 0 1 16 1c4 1 8 3 13 3 4 1 8 3 12 1 1 0 4-4 1-5a8 8 0 0 0-3 1 24 24 0 0 1-12 0l-13-3a38 38 0 0 0-10-1 26 26 0 0 1-12-2l-21-4c-7-1-15-4-18-10a1 1 0 0 0-2-1l-3 2z"/><path d="M424 332c4 3 7 1 12 0 4-1 6 1 9 4a6 6 0 0 0 4 2 13 13 0 0 0 6-2c4-2 7-2 11 2 2 2 6 5 9 5l1-1c-4-2-6-5-9-8-4-3-7-2-11-1s-5 1-8-2a8 8 0 0 0-6-2c-6-1-12 4-18 3zM420 344c2 5 3 11 7 14 5 3 12 4 17 5a29 29 0 0 0 29-10c1-2-1-2-2-1a27 27 0 0 1-12 9c-6 1-13-1-18-2l-13-4c-4-3-4-8-8-11zM346 231c-2 10-5 19-5 30l-3 29c-1 10 0 19 3 28 3 8 7 15 13 21 11 14 25 24 38 36a159 159 0 0 0 23 17c8 5 16 11 25 13 1 0 3-2 2-3-9-2-16-7-24-11a167 167 0 0 1-24-18c-12-11-25-22-36-34a69 69 0 0 1-14-21c-3-9-4-20-3-29l2-30a92 92 0 0 1 2-16c1-4 2-8 1-12z"/><path d="M577 274a241 241 0 0 1-24 74c-5 10-15 17-25 22-14 8-30 14-46 20-13 5-27 11-41 11-2 0-4 3-2 3 5 2 12-1 17-2a382 382 0 0 0 76-31c9-5 17-12 23-20a203 203 0 0 0 22-77zM274 376c-12-3-14-15-12-26a68 68 0 0 1 19-36c20-19 43-33 58-56 14-23 16-51 20-77 4-23 9-48 22-68a71 71 0 0 1 47-31 56 56 0 0 1 31 3 19 19 0 0 1 9 7l3 12h1c-1-9-3-17-11-22-4-3-10-4-15-4a64 64 0 0 0-21 1c-23 5-40 20-51 40-12 20-16 43-20 66-4 26-7 55-23 77-17 23-46 37-61 62-8 13-21 50 4 52z"/><path d="M339 89c11-11 23-22 37-30s28-11 44-14c13-3 26-4 39-1a40 40 0 0 1 17 8c7 6 9 14 10 22h2c1-9 0-17-6-23-4-5-10-9-16-11-13-4-29-3-42 0a147 147 0 0 0-86 49h1z"/><path d="M260 260c13-29 22-58 33-87 10-27 21-54 40-76 29-33 79-50 121-33 6 2 12 6 16 12s4 14 4 21l1-1c4-15-4-29-18-36-15-7-33-7-49-6-24 3-47 14-65 30-20 17-33 40-43 63-8 18-14 37-20 56-7 19-12 38-20 57zM479 110c22-16 54-12 69 10 13 20 11 48 12 71l5 47c1 13 5 26 11 38 6 14 11 27 12 42s-3 29-7 44h1a90 90 0 0 0 10-40c0-15-4-28-9-41s-12-26-14-40l-3-23a221 221 0 0 1-3-25c-1-23 1-49-9-71-11-21-36-28-57-22a50 50 0 0 0-18 9v1z"/><path d="M477 111c-6-4-15-8-21-9a82 82 0 0 0-25-1c-16 2-28 12-38 24a170 170 0 0 0-27 42l-9 26c-3 9-7 18-8 28l2-1c4-15 10-31 16-46 5-14 13-26 21-39 9-12 19-22 33-28 7-3 16-3 24-3l11 1c5 1 13 3 20 7l1-1z"/><path d="M468 104c-18-26-58-13-77 5a97 97 0 0 0-22 37l-6 22-6 16-4 16 1-1c5-8 7-17 10-26l6-21c4-14 10-27 19-37s23-18 36-21c16-3 30 1 42 11l1-1z"/><path d="M405 70c-44 15-69 55-91 93l-37 62c-15 22-28 45-37 70-7 22-9 46-3 68 2 8 7 17 15 21s16 3 24-1v-1c-12 5-22 2-30-8-7-11-8-25-9-37-1-28 10-54 23-78 12-23 27-44 41-67 11-19 22-40 35-59a149 149 0 0 1 69-63z"/><path d="M332 164c-9 21-18 42-31 61s-27 36-38 54c-10 17-18 34-22 53-3 15-6 38 8 49 1 0 3-1 2-2-13-15-10-35-6-53 4-20 14-37 25-54 12-17 25-33 36-50a289 289 0 0 0 26-58z"/><path d="M329 199c-5 7-9 16-13 24a236 236 0 0 1-16 28 206 206 0 0 1-20 26l-18 22a132 132 0 0 0-21 49c-2 8-2 15 0 23 1 6 4 11 11 14 0 0 2-1 1-2-14-8-11-29-8-42 5-18 14-35 26-50l18-20a223 223 0 0 0 16-23 221 221 0 0 0 13-23c4-9 7-18 12-26h-1zM366 80c-11 6-20 18-28 28-9 12-17 26-26 40a428 428 0 0 0-23 43l-10 22-6 12-4 11h1l10-19 9-23a432 432 0 0 1 23-43l24-37a161 161 0 0 1 14-18c5-5 10-11 16-15v-1zM480 85c1-7 2-16-2-23-3-6-10-11-16-15-7-4-15-6-22-7-8-1-17-1-24 4v1c13-5 30-2 43 4 7 4 14 9 18 16 3 7 1 14 3 21v-1zM458 39l21 3a19 19 0 0 1 9 6c2 3 2 7 3 12l1-1c5-19-20-22-33-21l-1 1zM480 101c6-8 17-11 26-12a43 43 0 0 1 27 6 82 82 0 0 1 35 88 200 200 0 0 0-3 40c1 25 9 47 18 70l1-1c-2-12-7-24-11-36-4-14-5-29-5-44 0-14 3-27 5-41a81 81 0 0 0-4-35c-7-19-23-40-43-47-8-3-18-3-27-1-7 2-15 6-20 13h1z"/><path d="M486 88c4-12 18-17 30-17 13 1 25 8 34 17 21 21 27 50 28 78 1 31-3 62 2 93 2 17 8 32 11 48 3 17-1 32-7 47a151 151 0 0 0-11 84c2 12 6 23 15 32s20 14 31 18c0 0 1 0 0 0-5-4-11-6-16-9a63 63 0 0 1-15-13c-9-11-12-27-13-40a158 158 0 0 1 3-46c3-15 9-28 14-42s3-29-1-43l-9-45c-3-31 0-61-1-92s-13-63-40-81a45 45 0 0 0-34-7c-10 2-20 8-23 18-1 2 2 1 2 0zM339 471c-47 9-71-52-62-89 6-25 26-44 40-65a123 123 0 0 0 13-27c2-7 5-16 2-24-1-1-3 1-3 2 4 9-2 21-5 30-5 11-11 21-18 30-15 20-31 39-34 65-2 20 5 44 17 60s30 24 49 19l1-1z"/><path d="M499 55c19-15 46-1 61 12 10 7 16 17 22 28a131 131 0 0 1 15 42c3 17-1 33-6 49-4 15-8 30-9 46-1 13 4 26 9 39a243 243 0 0 1 13 45 169 169 0 0 1 2 46c-2 16-8 31-12 47-4 13-6 27-2 41 4 12 10 24 21 31 1 1 2-1 2-1a73 73 0 0 1-21-36c-4-16 2-33 7-48 9-29 11-59 4-89-3-15-7-29-12-42a164 164 0 0 1-7-21c-2-8 0-16 1-24 4-30 19-59 13-89-6-27-20-55-42-71-17-12-43-22-60-6-1 1 0 2 1 1zM635 171c2 3 0 10 0 13 0 6 2 13 4 19 5 12 13 23 19 35 7 13 9 29 9 44l-1 23v22l1-1v-23l1-23c0-15 0-29-7-43-5-12-12-22-18-35-3-6-6-13-5-20 0-4 1-9-3-12v1z"/><path d="M667 260c-3 10 6 19 9 28a80 80 0 0 1 3 35c-2 14-7 28-11 41-3 13-7 28-3 42 3 12 15 21 28 19v-1l-10-3a25 25 0 0 1-8-4c-5-4-7-11-7-16-2-14 2-29 5-42 4-12 8-25 10-37 1-11-1-21-4-31-3-11-13-20-12-31h-1zM528 48c23 10 49 15 68 33 10 10 16 23 21 37 5 13 11 27 15 41 4 16 1 32-3 47-4 13-7 25-2 38l9 18 10 21c6 13 11 28 11 43-1 19-9 36-15 53-4 11-9 27 0 36 0 1 2 0 1-1-4-6-2-12-2-18l5-17c4-14 10-27 12-41 4-29-9-55-22-80a85 85 0 0 1-8-19c-2-8-1-16 1-23 3-14 8-28 8-42 0-15-6-29-11-43-5-13-10-26-17-38-17-29-51-36-80-45h-1z"/><path d="M606 185c-7 19-11 39-6 59 2 9 6 18 10 27l11 27a84 84 0 0 1 4 16c1 6-1 12-2 18a286 286 0 0 1-7 31c-4 12-9 23-15 34a78 78 0 0 0-7 26 117 117 0 0 1 12-31 159 159 0 0 0 13-28l7-30c3-10 4-19 1-30-5-19-16-35-23-53-9-22-4-44 3-66h-1z"/><path d="M599 353c-3 5-5 11-6 17l-6 20a155 155 0 0 0-5 40c0 13 3 25 9 36 5 10 15 20 26 22 2 0 4-2 2-3-5-2-10-4-14-8-5-4-9-9-12-15-6-10-8-22-8-35a156 156 0 0 1 4-38l5-18 6-18h-1zM621 291l-5-26a213 213 0 0 1 0-31c2-22 9-44 7-66-1-20-8-40-15-58-5-10-12-28-26-26 14 0 22 20 26 32 7 19 14 41 13 62 0 23-10 44-9 67l3 26a48 48 0 0 0 1 10c1-1 4 11 5 10zM628 278c1 5 3 9 6 13l4 16a130 130 0 0 1 1 36c-2 19-11 42-1 60l2-1a88 88 0 0 1-2-32c1-11 4-21 4-32a117 117 0 0 0-2-32 70 70 0 0 0-4-15c-2-4-6-8-7-13h-1z"/><path d="M629 339c-9 27 5 56 13 81 5 14 6 28 2 42-4 13-12 25-24 32-1 0-2 2 0 1 23-9 34-40 30-64-3-14-10-28-15-42-5-16-8-33-5-50h-1zM318 488c12 2 25-4 33-12 9-8 15-19 18-30a241 241 0 0 0 5-55c0-10 1-22-3-31h-1c3 26 4 55-2 81-3 12-7 23-15 31-10 10-22 13-34 16h-1z"/><path d="M318 488c5 8 16 6 23 3 9-3 18-8 24-16h-1c-13 9-29 23-46 13z"/><path d="M340 502a45 45 0 0 0 23-14c7-9 10-22 14-33 4-13 8-26 9-39s2-29-3-41h-1l2 35c-1 13-4 26-7 38-4 11-7 24-13 34-5 10-15 14-24 20z"/><path d="M342 502c15 3 29-5 38-17a98 98 0 0 0 13-24c3-8 6-17 6-25h-1l-6 22a92 92 0 0 1-11 21c-4 7-10 14-17 17-7 4-14 3-21 5l-1 1zM550 368l-13 25-15 22c-6 10-9 22-10 33s0 24 5 35c2 5 7 9 12 12 6 3 12 7 19 7 1 0 2-1 1-2-12-5-24-10-29-23-5-10-5-24-3-35a85 85 0 0 1 3-17l10-18a174 174 0 0 0 19-39z"/><path d="M561 356c-1 17-10 33-17 48a143 143 0 0 0-14 43c-2 14-2 29 4 43a39 39 0 0 0 12 14c5 4 12 5 18 6l2-2c-14-3-24-12-29-24-6-14-5-30-2-44 2-15 8-29 14-42a96 96 0 0 0 12-42z"/><path d="M565 409c-6 27-25 50-21 78 1 9 5 18 14 22 5 2 11 1 17 0 7-1 15-5 21-9v-2c-6 1-12 6-18 7a29 29 0 0 1-18 0c-9-3-13-14-13-23-1-10 1-20 5-30 5-14 11-28 14-43h-1z"/><path d="M565 443c-5 19 0 41 17 52 7 5 15 8 23 9 6 1 13-1 14-8h-1c-8 12-29 0-37-6-13-9-19-31-15-47h-1zM312 329c-11 15-16 33-18 52l-1 28c0 10 2 19 7 28 6 13 14 30 29 36 10 3 25 4 29-8h-2c-4 11-22 6-30 2-6-3-11-10-14-16a136 136 0 0 1-11-21c-4-8-5-17-5-26l1-26a120 120 0 0 1 15-49c0-1 0-1 0 0z"/><path d="M331 291l-7 28-7 30c-4 17-8 34-9 52-1 17 3 34 12 49 8 11 23 20 37 17 2-1 3-4 1-3-16 4-31-9-38-22-9-16-10-33-8-50 1-17 5-33 9-49 4-17 9-35 10-52 0-1 0 0 0 0z"/><path d="M344 330c-1 7 1 13 2 20l1 23 1 43c-1 11 0 23 3 33 1 3 4 16 8 16l1-3c-2 0-6-14-7-16-4-12-3-25-3-37a387 387 0 0 0-1-39l-2-20c-1-6-3-13-3-20h-1z"/><path d="M355 339c4 9 5 20 6 30 2 10 2 21 2 32v30c0 11-2 21-4 31h2c2-4 2-9 3-13a127 127 0 0 0 2-15v-34c-1-20-1-43-11-61z"/><path d="M336 294l-5 56c-2 16-3 32-2 49 1 15 3 32 9 47 4 8 10 18 19 21 1 0 3-2 2-3a47 47 0 0 1-18-22c-7-15-9-32-10-49 0-15 1-31 3-46a479 479 0 0 0 2-53zM317 281c-2 21-14 39-25 56a179 179 0 0 0-13 27c-3 9-6 18-6 27h1c2-22 14-42 25-60l14-25c3-8 6-16 5-25h-1z"/><path d="M306 291c-5 11-8 23-11 35a194 194 0 0 1-7 19l-7 15h1c8-9 11-22 14-33l10-36z"/><path d="M292 303c-5 11-6 24-8 36l-4 18c0 5-4 10-3 15l2-1c0-6 3-11 4-17l3-17 6-34zM279 316l-3 23-3 24h1l4-23a93 93 0 0 0 1-24zM274 320a69 69 0 0 0-7 22l-1 10v12h1l1-21a87 87 0 0 1 6-23zM503 384c-5 7-6 15-7 23-1 12-2 23-1 35a103 103 0 0 0 9 32c4 8 12 14 21 18l1-1-10-7a26 26 0 0 1-9-11 112 112 0 0 1-9-31c-2-9-1-18-1-28 1-10 1-21 6-30z"/><path d="M510 381c-7 13-7 29-7 43 1 11 2 27 10 34h1l-6-15a88 88 0 0 1-2-19 163 163 0 0 1 4-43zM517 377c-4 10-5 20-5 30 0 6 0 16 5 20 1 0 2-1 1-2-4-5-4-12-4-18a104 104 0 0 1 3-30c0-1 0-1 0 0zM524 373c-2 7-5 15-5 23 1 4 1 13 6 15l1-1c-9-11-4-25-1-38l-1 1zM534 370c-2 4-9 31-2 30h1c-3-2-2-12-2-14 1-5 1-11 3-16zM543 362a44 44 0 0 0-2 21c0 1 0 0 0 0l2-21zM579 301l4 29c1 9-1 18-1 28l1-1c3-9 3-19 2-28a150 150 0 0 0-6-28c0-1 0 0 0 0zM574 321a180 180 0 0 0 1 24l2 25 1-1c1-7 0-15-1-23a418 418 0 0 1-3-25zM602 415c-3 13 2 27 10 38 5 6 10 11 12 18 3 7 2 19-4 23v1c4-2 6-7 7-12a25 25 0 0 0-4-18c-5-8-12-15-16-23a50 50 0 0 1-5-27c0-1 0 0 0 0zM612 391c0 16 7 29 14 43a131 131 0 0 1 9 22c2 9 4 21-3 28v1c7-3 7-11 7-18 0-9-3-17-6-25-7-16-20-33-20-52l-1 1zM619 372c0 17 7 31 15 46 4 8 8 17 10 26 1 9-1 18-1 27 7-17 3-35-5-50-8-16-18-31-18-49h-1zM645 231l2 38c2 12 6 23 9 34 8 25 13 51 7 77-3 11-9 21-10 32 0 9 3 19 11 24 6 4 15 3 21 0 5-3 12-8 9-14l-1 1c2 6-4 9-9 11a20 20 0 0 1-14 1c-11-4-14-16-14-25 1-10 5-19 8-28s4-20 4-30c-1-20-6-40-12-59a150 150 0 0 1-7-32l-4-31v1zM557 455c-2 12-8 26-2 38 3 9 14 16 24 14v-1c-10-2-18-5-23-16s3-24 1-36v1z"/><path d="M654 420c-1 9 3 18 3 27 0 6-3 14-5 20-4 7-8 13-14 18-6 4-12 3-18 6-1 1-2 4 0 3l12-3 8-5c5-4 9-10 13-17a57 57 0 0 0 6-21c1-10-3-19-4-28h-1zM479 112l13-3 14 1c12 2 23 8 32 15 8 5 12 14 14 23l8 31c3-19-9-47-16-55-9-8-21-14-33-17h-19l-13 3v2zM523 491c-1 7-6 13-11 17l-19 15c-14 9-27 18-40 29a299 299 0 0 0-34 32c-7 8-17 17-16 29 0 2 4-1 4-3 0-7 4-13 9-18l15-16c11-11 24-21 37-31l39-28c8-6 20-16 18-27 0-2-2 0-2 1z"/><path d="M370 494c-8 3-11 12-11 19 1 10 6 20 12 28 12 20 37 37 33 63h1c5-8 0-20-4-28-5-11-12-20-20-30a104 104 0 0 1-14-24 36 36 0 0 1-4-15c1-5 3-9 7-12v-1zM339 536c-7-9-15-19-15-31 0-10 10-9 17-9 6 0 12 0 17-4v-2l-12 1-11 1a14 14 0 0 0-13 8c-2 6 0 13 3 18 3 7 9 13 14 19v-1z"/><path d="M406 603c0-15-7-25-20-32-11-6-24-9-36-13-13-5-25-10-33-21-5-7-8-17-8-25a28 28 0 0 1 2-11c2-3 6-3 8-2l7-1s2-1 0-1c-3-1-6-3-10-2a11 11 0 0 0-7 5c-4 6-5 14-4 21 3 17 13 28 28 36 13 6 27 9 41 14 7 3 15 6 21 11 7 5 10 13 10 21h1z"/><path d="M348 542c17 12 40 17 51 36 0 1 0 0 0 0-3-10-11-16-20-21-10-6-20-10-31-15zM305 525c-16-7-24 9-27 22l-4 32 1 21c1 9-2 17-5 24-1 2 2 1 2 0 4-10 7-19 5-30-2-12 1-25 2-37 0-7 2-15 5-22 4-9 11-11 20-9l1-1zM302 567c-1 10 1 21-4 30-1 1 1 1 1 1 7-8 4-22 4-31h-1zM425 581c7-3 12-8 19-12a138 138 0 0 1 24-14c18-8 37-10 56-16l25-11a104 104 0 0 1 29-6l30-2c3 0 17 0 14 7h1c9-14-21-10-27-10-10 1-20 1-29 3a124 124 0 0 0-30 10c-19 9-41 12-61 19a136 136 0 0 0-26 13c-9 6-16 14-25 18v1z"/><path d="M417 594l20-11 23-6c15-3 29-5 42-12 12-8 22-18 33-26a139 139 0 0 1 14-10c6-4 12-4 18-6l1-2c-5-1-11 1-16 3s-9 6-14 9c-12 9-22 20-35 28-26 17-63 11-86 33-1 0 0 0 0 0zM583 513a89 89 0 0 0 11-2l16-1c5-2 8-6 8-12-1-1-3 1-3 2 0 8-9 7-15 8a109 109 0 0 0-17 4v1z"/><path d="M612 506c5 1 10 4 14 8 5 6 2 12 0 19l2-1c3-5 6-14 1-19-4-5-10-9-16-8l-1 1z"/><path d="M606 521c6 5 15 6 20 12 7 8 7 20 5 29s-7 17-11 26c-3 6-7 16-5 23h1l3-14a95 95 0 0 1 6-15c4-8 8-17 10-26a33 33 0 0 0-6-23c-5-8-15-8-23-13v1z"/><path d="M633 551c-2 21 4 41 2 61a125 125 0 0 1-5 28l-5 12c-2 4-4 8-4 12h1c5-7 8-16 10-25a131 131 0 0 0 6-28c1-9 0-19-1-28l-3-32h-1z"/><path d="M638 612c-3 7-2 13 1 20 2 8 4 15-1 22-7 10-19 18-17 30 1 1 2 0 2-1 1-13 12-20 18-31a20 20 0 0 0 3-13c-2-9-8-18-6-27 1-1 0 0 0 0z"/><path d="M639 654c2 18 12 35 18 52l15 48a87 87 0 0 1 4 22c-1 9-4 17-8 24-10 14-26 26-44 20l-1 1c4 2 7 3 11 3a29 29 0 0 0 11-1c7-3 13-8 18-13a71 71 0 0 0 13-19c3-8 3-17 2-25-2-19-10-36-15-53l-23-60-1 1zM238 692l3-13a106 106 0 0 1 5-16 97 97 0 0 1 14-26c11-14 26-23 43-28 15-5 32-5 48-5 18 1 35 2 51 12 2 1 5-3 3-4-16-11-34-11-53-12-18-1-36 1-53 6a95 95 0 0 0-62 86h1zM395 953c-3-2-7 1-9 3-3 6 5 9 9 11l10 7c3 2 8 5 13 6a8 8 0 0 0 8-8h-2c-1 3-2 8-7 5a14 14 0 0 1-4-5 28 28 0 0 0-8-7c-3-3-7-3-10-3a25 25 0 0 1-5-1c-5-2 0-8 4-7l1-1zM424 944a4 4 0 0 0-2 3c0 3 2 4 0 7s-5 4-3 8c1 1 3-1 2-2-1-2 1-3 3-4a6 6 0 0 0 3-4l-1-5-2-3z"/><path d="M411 944c-6 0-15 3-19 8-5 7 11 9 14 10 7 2 12 12 21 10 2-1 4-4 4-6 0-5-5-8-6-12h-1c-1 3 0 5 1 8 1 2 5 8 0 7-6-1-11-7-16-10l-8-2c-3 0-10-2-6-5a56 56 0 0 1 16-8s1 0 0 0z"/><path d="M410 941l5-4a9 9 0 0 1 5 1 6 6 0 0 1 3 5c0 4-4 6-7 6-4-1-6-5-5-9 0-2-3 0-3 1 0 5 2 9 7 10s9-4 11-8-1-7-5-8c-4-2-13 0-12 6h1zM237 708a62 62 0 0 0 0 10c0 2-1 5 1 6h1v-9l-1-8-1 1z"/><path d="M241 736c0 6 2 12 4 18l7 23a226 226 0 0 0 67 107 333 333 0 0 0 34 25c12 9 24 16 38 22 14 5 27 8 42 5a175 175 0 0 0 99-76l25-43c6-12 12-25 15-39l-2 1c-3 14-10 27-17 39l-22 38c-14 23-34 43-57 58a131 131 0 0 1-41 16 79 79 0 0 1-24 1c-10 0-18-4-27-8-14-6-27-15-40-25a237 237 0 0 1-31-27 241 241 0 0 1-58-99c-4-12-9-24-11-37l-1 1zM515 911c5-7 11-14 18-19 6-5 14-8 22-11 1-1 2-3 0-4-1-1-4 3-2 4l1-4a154 154 0 0 0-22 13c-7 6-13 13-18 21h1z"/><path d="M510 889c2-4 11-3 15-3h14c13-1 21-8 30-17a65 65 0 0 0 10-14c3-6 4-13 4-19 0-16 2-32 8-47h-1l-6 22a73 73 0 0 0-3 20c-1 9-1 16-5 23s-9 12-15 17c-9 9-21 11-33 12-6 0-16-1-19 6h1z"/><path d="M547 905l3-15 3-11h-1c-3 2-3 6-3 9-1 6-3 12-2 18v-1z"/><path d="M551 881c0 6 1 11 3 16l7 15c1 1 2 0 2-1-1-5-4-10-6-14a88 88 0 0 1-5-16h-1zM319 880l1 18c1 5 2 10 0 15h2c3-3 2-8 2-12a81 81 0 0 0-5-21z"/><path d="M320 911v2s-1 0 0 0c6 6 12 9 19 14l10 6 10 3c1 1 3-1 2-2l-11-4-10-7-11-6a42 42 0 0 1-4-3l-5-3z"/><path d="M359 912c-2 4-1 9-1 13v9c1 6 9 6 13 8l2-2c-4-3-11-3-12-9 0-6 1-14-2-19zM374 921c-1 6 3 13 0 18v2a31 31 0 0 0 14 5c5 1 11 3 16 1 1 0 2-3 0-3-4 1-9 0-14-1a30 30 0 0 1-14-5v2c3-6 1-13 0-19h-2zM426 949c11 2 24 0 35-2a223 223 0 0 0 37-10l37-16 16-6c4-1 8-3 11-6 1-1 0-3-2-2-4 3-9 5-13 6l-17 7-33 14-34 10-36 3-1 2zM331 919a70 70 0 0 0 3 24c2 7 5 15 10 21 0 1 0 0 0 0l-8-20a96 96 0 0 1-5-25zM324 916a108 108 0 0 0-2 42c2 13 6 27 13 38l1-1c-4-13-9-26-11-40a123 123 0 0 1 0-39h-1z"/><path d="M559 911c4 2 7 9 10 12a44 44 0 0 1 6 16c1 6 0 13-1 20l-4 12-3 8h1c8-12 12-27 10-42-1-6-4-12-8-17-2-4-5-10-11-10v1z"/><path d="M577 939a152 152 0 0 1 1 31l-2 17c0 4-2 8-1 13l2-1c4-19 6-41 0-60 0-1-1 0 0 0zM375 936c1-2 1-5-2-6a15 15 0 0 0-7-3c-2 0-5-3-2-4l5 2c2 1 4 2 7 0v-2c-4 1-7-3-10-3-3 1-6 2-6 5a5 5 0 0 0 2 4l4 1c4 1 9 2 9 6 0 1 0 0 0 0zM619 760c11 4 11 16 9 26a78 78 0 0 1-5 16 33 33 0 0 1-2 4c-3 4-9 0-11-2-1-1-3 1-2 2 3 5 11 7 15 1 3-5 5-11 6-16 3-10 6-32-10-32v1z"/><path d="M620 758c7 0 12 2 18 4l6 2 6 4 1-1c-1-6-8-6-13-7-6-3-11-4-18-2 0 0-1 1 0 0z"/><path d="M650 765l1 15 2 13c1 10-2 18-11 23-7 3-15 3-21 1a31 31 0 0 1-9-6c-4-3-3-6-5-9l-1 1c-3 8 6 14 13 16 7 3 16 2 23-1a24 24 0 0 0 13-17c2-7 0-13-1-19s-1-12-4-17zM406 615c6-7 16-11 25-15a115 115 0 0 1 33-10 125 125 0 0 1 54 3c16 4 32 13 43 26 14 17 17 40 18 61l1-1c1-21-2-43-15-60a86 86 0 0 0-45-29c-18-6-38-8-57-6-11 2-23 6-34 11-9 5-19 10-25 18-2 2 0 4 2 2zM623 736l-5 5a21 21 0 0 0-4 5c-1 2-4 7-2 10l1-1c1-4 2-9 6-12l5-7h-1z"/><path d="M601 734c0 4 3 6 4 10 2 4 3 9 6 11h1c0-4-3-7-4-11a19 19 0 0 0-3-5l-4-5c0-1 0 0 0 0zM591 561l-12 33-4 18c-2 5-5 11-6 17h1l6-14a126 126 0 0 0 4-18l11-36c1 0 0 0 0 0zM569 596c-4 6-9 15-7 23h1l2-10a34 34 0 0 1 5-12c1-1 0-1-1-1zM595 603a117 117 0 0 0-12 28c-3 10-6 22-3 32 2-10 2-19 5-29a139 139 0 0 1 11-31h-1zM564 523a127 127 0 0 1 25 7c7 3 15 4 21 10 5 4 8 10 12 16 2 4 6 12 11 13l1-2-6-9-5-8c-4-5-7-10-12-14-6-5-15-7-22-10-8-3-16-6-24-5l-1 1zM285 532c4-3 12 0 17 1s9 4 13 4l1-1c-2-4-12-6-16-7-5-1-12-2-15 2-1 0-1 1 0 0zM258 793c-4 2-8 4-13 3a10 10 0 0 1-5-3c-2-2 1-3 2-3 6-3 11-6 13-12 0-2-3-1-3 0-1 6-6 8-11 10-2 1-5 3-4 6 0 3 6 5 8 5 5 0 10-2 14-5 0 0 1-2-1-1zM233 796c0 3 3 5 5 8a20 20 0 0 0 7 6c6 3 13 0 18-2v-1h-4c-4 1-7 3-11 2s-6-4-8-7l-7-6zM222 734l-11-24-2 1c2 4 15-7 17-9l12-9a98 98 0 0 1 10-7c3-2 6-6 10-7 0 0 2-2 0-2-4 0-7 5-11 7a139 139 0 0 0-18 14c-2 2-17 13-18 11-1-1-3 1-2 2 3 8 6 18 13 24v-1z"/><path d="M245 688c4 2 7 2 10-1a15 15 0 0 0 3-4c1-1 2-4 1-5h-1l-2 6c-3 4-6 4-10 3l-1 1z"/><path d="M255 686c-2 8-7 13-14 18-3 3-9 6-11 11l1 1 9-8 8-8c4-3 8-9 8-14h-1z"/><path d="M236 723a9 9 0 0 0-2-4 23 23 0 0 1-2-4c-1-1-2 0-2 1v-1a2 2 0 0 0 0 1 8 8 0 0 0 1 3 20 20 0 0 0 4 4l1-1zM220 736c9-4 18-9 25-15 1 0 2-2 0-2l-24 13"/><path d="M231 730c3 2 7 2 10-1 2-1 6-5 5-8h-1l-4 6a8 8 0 0 1-9 2l-1 1z"/><path d="M243 726c1 14-16 17-25 25v1c3 0 6-2 9-4a101 101 0 0 0 10-8c5-4 9-9 7-15l-1 1zM211 768l2-1"/><path d="M219 750a12 12 0 0 0 2 5l4 3 1-1-2-2a9 9 0 0 1-1-1 18 18 0 0 1-3-4h-1z"/><path d="M213 769c11-7 21-17 30-25v-1c-7 3-14 10-20 15l-11 8M209 781a51 51 0 0 0 7 4l10 5c1 0 3-1 2-2-2-3-8-5-11-7a31 31 0 0 1-7-4"/><path d="M231 756c3 2 8-1 10-3a11 11 0 0 0 3-5c0-2 0-4-2-4a1 1 0 0 0-1 0l1 4a6 6 0 0 1-2 3 10 10 0 0 1-8 4c-1 0-2 0-1 1z"/><path d="M242 750c-1 8-5 12-11 17-4 2-9 6-11 10 0 2 1 2 2 1l7-7 8-6c4-4 8-9 6-15h-1zM227 790c4-9 11-14 19-17 1-1 2-2 1-3-3-1-9 5-12 7-4 3-9 7-9 13h1z"/><path d="M227 787c-6 7 4 14 10 8s14-14 10-24l-2 2c2 7-2 11-6 16l-6 5c-4 0-7-4-6-7h-1z"/><path d="M239 776c-1 1-2 2-1 4a5 5 0 0 0 4 3l2-2c-1-1-6-3-4-4l-1-1zM588 705c2-8-2-17-3-26l-30-2c-10-1-18-5-27-5-2 0-3 2-2 2 7 0 14 3 21 4 6 2 13 2 20 2l11 1c1 0 5-1 5 1l1 3 3 21 1-1z"/><path d="M525 672c-2 5 1 8 5 10a14 14 0 0 0 13-3v-2a16 16 0 0 1-11 2c-4-1-5-3-6-7h-1z"/><path d="M528 679c-2 13 23 15 32 15 2 0 10 0 10 2a71 71 0 0 0 4 11c2 5 3 13 8 17 1 0 3-2 2-3-3-3-4-8-6-12l-5-17h-1c-14-1-36 0-44-14v1z"/><path d="M526 693c4 4 9 6 13 8a72 72 0 0 0 17 5c5 1 11 1 15 4s5 10 9 11l2-1-8-12c-3-3-9-4-13-5a81 81 0 0 1-17-4c-6-2-11-5-17-6h-1z"/><path d="M526 693c-1 8 11 17 17 10v-1l-4 1a9 9 0 0 1-6-2l-7-8z"/><path d="M529 700c-3 11 11 16 20 19 6 1 14 3 17 9 2 4 4 10 8 12 1 0 3-2 2-3-4-3-5-8-7-12s-8-6-12-8c-10-3-25-5-28-17 0-1 0 0 0 0zM579 667l6 6c3 2 7 0 9 4 2 3 1 7 1 10v13l2 27c1 10-3 18-7 27 0 2 2 2 2 0a55 55 0 0 0 8-25c1-5 0-9-1-14l-1-18v-13c0-4 0-7-2-10-1-2-6-2-8-3-4 0-5-4-9-4 0 0-1 0 0 0z"/><path d="M531 723c3 4 6 4 10 6 3 0 5 2 7 4l6 2 15 4c3 1 5 2 7 1l1-1c-2-2-5-2-7-3l-15-4-6-2a34 34 0 0 0-5-4 44 44 0 0 0-5-1l-7-3-1 1z"/><path d="M531 723c1 6 1 12 7 16l14 5a28 28 0 0 1 7 4c2 2 3 3 6 3l1-1c-2-3-6-6-9-7l-14-5c-4-2-6-3-8-7-1-3-1-7-3-9l-1 1z"/><path d="M562 749l2 11 1 11c1 8 6 11 13 13 5 1 10 5 14 8l8 6c5 4 12 10 20 11 0 1 2-1 1-2l-11-6a89 89 0 0 1-8-6l-6-4-12-9-11-3c-4-2-5-8-5-12-1-7-1-12-5-19l-1 1zM596 741c0 6 4 10 9 13 6 5 13 8 20 12 2 0 4-3 3-3l-18-9c-5-3-12-7-13-14l-1 1z"/></svg>