<svg id="Слой_1" data-name="Слой 1" xmlns="http://www.w3.org/2000/svg" viewBox="0 0 264 595.28"><defs><style>.cls-1{fill:#edd33e;}.cls-2{fill:#783140;}.cls-3{fill:#41251b;}.cls-4{fill:#cd7a6a;}.cls-5{fill:#fbe4ae;}.cls-6{fill:#e4ac60;}.cls-7{fill:#983846;}.cls-14,.cls-8{fill:#fff;}.cls-9{fill:#9f8589;}.cls-10{fill:#b8999e;}.cls-11{fill:#c9a6ac;}.cls-12{fill:#845245;}.cls-13{fill:#113034;}.cls-14{opacity:0.5;}</style></defs><title>Монтажная область 1</title><path class="cls-1" d="M156.68,506.91a6.68,6.68,0,0,1-.37,1c-1.83,4.38-9.67,23.4-8.32,61.78,0,0,21.68,11.07,48.88-.53,0,0,6.27-4.07.16-10.17s-18.13-10.67-20.6-12.56,9.21-38.3,9.21-38.3l-29.1-.79"/><path class="cls-2" d="M147.86,557.48a110.78,110.78,0,0,0,23.39-9.2,28.3,28.3,0,0,0,4.83-3.29c0,.73.11,1.22.34,1.4,2.47,1.88,14.49,6.45,20.6,12.56s-.16,10.17-.16,10.17c-27.19,11.6-48.88.53-48.88.53C147.84,565.35,147.81,561.3,147.86,557.48Z"/><path class="cls-1" d="M177.37,555.86c.31-2.37,2.34-4.72,4.39-6.6a99,99,0,0,1,10,5.52,14.94,14.94,0,0,1-6.16,4.91C182.26,560.87,176.76,560.45,177.37,555.86Z"/><path class="cls-3" d="M170.92,568.82c9,.37,16.07-1.36,24.59-3.88a35.51,35.51,0,0,0,4.1-1.57c.61,3.57-2.75,5.76-2.75,5.76-27.19,11.6-48.88.53-48.88.53,0-1.22-.06-2.38-.08-3.56a70.57,70.57,0,0,1,9.58,1.4A111.31,111.31,0,0,0,170.92,568.82Z"/><path class="cls-2" d="M53.57,319.83c-.37-4-2.52-6.86-2-11.12.68-5.12,2.91-9.18,6.11-13.21,8-10.14,18.63-17.26,29.54-24,6.29-3.9,12.38-8.25,18.89-11.74,2.11-1.13,4.21-1.64,5.26-3.7a48,48,0,0,0,2.13-5.93c.75-2.17,4.12-10.53,1.83-12.11-1.64-1.13-5.12,1.34-6.55,2.05-3.16,1.57-6.19,3.19-9.22,5C77.88,258,57.1,270.62,40.48,290c-6.25,7.28-12,17-9,26.87a23.9,23.9,0,0,0,5.33,9.65c3.31,3.28,5.63,3.08,9.4,1.16,2.54-1.29,8.57-3.95,7.85-7.61"/><path class="cls-1" d="M132.23,506.1a6.9,6.9,0,0,0,.37,1c1.82,4.38,9.6,23.43,8.15,61.8,0,0-21.71,11-48.88-.67,0,0-6.26-4.08-.14-10.17s18.16-10.62,20.64-12.5-9.11-38.32-9.11-38.32l29.1-.71"/><path class="cls-4" d="M175.32,300c3.15,5.19,7.21,9.81,10.88,14.59,22,28.73,31.78,70.58,33.15,106.14.75,19.38.15,38.62-3.1,57.62-2.56,14.94-4.82,19.55-11.58,33.19,0,0-25,11.87-52.82,12.94a134.47,134.47,0,0,1-52.45-8.89c-7.79-13.09-10.4-17.5-14.1-32.21-4.7-18.69-6.77-37.82-7.52-57.21-1.37-35.56,5.15-78,24.9-108.37,3.29-5.05,7-10,9.72-15.39Z"/><path class="cls-5" d="M167.22,360.13a16.22,16.22,0,0,0-5.63.29c-2.2.71-10.37,3.77-11.37,5.57s-4.36,6.67-5.11,8.86-3.79,9.75-3.92,11.78-.68,7.47-.47,9.28a11.12,11.12,0,0,0,2,4.51,7.6,7.6,0,0,0,2.62,1.9l2.63,2.42c1.23,1.13,2.92,0,2.92,0l1.13-1.23,2.7-.32.49-5.17s-.76-3.38-1.08-6.08-.54-3,.15-4.95a2,2,0,0,1,2.48-1.37s.64-.91.73,1.45a69.29,69.29,0,0,0,1.83,9.46c.33,1.24,2.69,1.15,2.69,1.15a21.08,21.08,0,0,0,1.29-6.18c0-2.64-1.24-6.7-.59-9.79a72.54,72.54,0,0,1,2.89-9.65,18.75,18.75,0,0,1,1.64-3.07c.64-.85,1.48-6.24,1.48-6.24Z"/><path class="cls-6" d="M163.85,386.95c-.26-3.57.78-7.1,1.85-10.45a50.16,50.16,0,0,1,2-6c.18-.39.17-.37.06-.27a.7.7,0,0,0-.51-1.19h-.29a.75.75,0,0,0-.65.41c-.87,2.21-2.27,4-3,6.5a44.49,44.49,0,0,0-2,9.17,29.83,29.83,0,0,0,.36,5.82l.23,2q1.25,3.16-1.89,1.92c-1.2-3.25-1.1-6.87-1.93-10.22a.53.53,0,0,0-.25-.34.93.93,0,0,0-1.07-.87c-5.26.57-3.92,9.4-3.41,13a38.76,38.76,0,0,1,.47,5.32c0,3.13-2.57-2.85-2.82-3.9-1.36-5.69,0-11.41-.23-17.12a.14.14,0,0,0-.27-.06c-2.14,3.22-3.85,16.56-.29,22.11-.75,1-1.71,1.76-2.75-.78a26,26,0,0,1-2.1-8c-.49-5.44,1.87-10.77,2.06-16.18a.26.26,0,0,0-.48-.11,31.75,31.75,0,0,0-2.26,22.41c-3.33,1.05-1.91-12.91-1.74-14.11.55-4,2.57-8.09,3.71-12a42.17,42.17,0,0,1,5-6.81,25.59,25.59,0,0,1,8.35-5.46c1.69-.76,3.54-.84,5.13-1.77,1.2-.71,0-2.55-1.16-1.82-2.06,1.25-4.93,1.75-7.16,2.84a26.06,26.06,0,0,0-6.55,4.93c-2,2-3.42,4.49-5,6.83a16.55,16.55,0,0,0-2,5.14c-3.84,8-6.77,22.89,1.26,24.49a1.15,1.15,0,0,0,.83-.14c.14.42.25.85.4,1.27,1.34,3.67,4.9,3.41,6.27,1a4.41,4.41,0,0,0,1.73.61c6.16.78-2.23-18.81,3-19.57-.11,4.34,2,19.34,6.87,14.14C166.25,397,164.09,390.21,163.85,386.95Zm3.8-16.64a.74.74,0,0,1-.17.11A.8.8,0,0,0,167.65,370.31Z"/><path class="cls-7" d="M147.17,346.25a51.13,51.13,0,0,1-16.48-3.07c-4.27-1.57-10.11-3.55-13.64-6.37l.32.29c-10.09,1.61-24-2-28.64-12-4.34-9.33-3.46-20.43-1.17-30.18,3.08-13.1,8.42-25.68,14.23-37.73,2.54-5.28,5.12-10.54,7.36-15.91a38.29,38.29,0,0,1,2.5-5.76s31.89-45.16,63.53-2.44a38.76,38.76,0,0,1,2.93,5.55c2.64,5.18,5.62,10.23,8.56,15.29,6.72,11.57,13,23.7,17.09,36.52,3,9.55,4.77,20.55,1.15,30.19-3.86,10.31-17.46,15-27.64,14.16C177.26,334.8,168.64,347,147.17,346.25Z"/><path class="cls-2" d="M219.5,288.45c-7.3-14.36-16.42-27.85-25.25-41.23-4-6.12-9.22-13-15.77-16.59-2-1.12-5.12-2.83-7.07-1.27-1.56,1.25,4.64,10.23,4.64,10.23,2.3,3.48,5,6.59,7.18,10.14,2,3.35,3.73,6.86,5.64,10.27,8,14.28,16.8,28.07,23.79,43,4.63,9.87,5.43,24.38-1.71,33.38a56.49,56.49,0,0,1-34.71,20.46c-3.42.55-12.39-.24-13.13,3.58-.36,1.82.38,5.31.58,7.39a35.42,35.42,0,0,0,1.53,7.35l1,1.5c1.68-.84,6.22-.07,8.61-.32a52.41,52.41,0,0,0,12.77-3.19,85.83,85.83,0,0,0,25.15-14.63c9.28-7.61,17.55-22.76,17.77-35C230.73,310.51,225.22,299.71,219.5,288.45Z"/><path class="cls-6" d="M83,138.43c-1.93-5.1-6-8.71-8.54-2a25.82,25.82,0,0,0-.71,14.09c.87,4.13,2.49,9.47,5.27,12.79,1,1.2,3,3,4.71,2.57,2.9-.82,1.76-5,2.4-7.13Z"/><path class="cls-8" d="M144.32,224.8c-1.33-4.48-8.18-3.52-11.69-3-3.77.6-8.21,2.45-12,2.28l-1.61-.62c-2.64.82-5.09,4.38-6.79,6.38-2.82,3.33-5.67,7-6.39,11.4-1.07,6.61,2.83,10.09,9.29,9.63,7.51-.53,14.08-6.78,19.55-11.43a37.58,37.58,0,0,0,7.35-8.24C143.39,229.27,145,227.24,144.32,224.8Z"/><path class="cls-8" d="M181.75,240.7a24.88,24.88,0,0,0-8.14-16.34c-6.56-6.07-22.13-11.28-29.67-3.85l-4.15,4.25c.81,7.18,7.05,14.21,12,19.13s13.47,10.16,20.79,8.19C178.28,250.54,182.32,246.81,181.75,240.7Z"/><path class="cls-9" d="M198.52,49.69C192.33,34.52,175.64,25.36,160.19,22c-10.63-2.29-22.6-1-33,1.85-8.37,2.28-16.25,5.14-20.94,12.87-4,6.67-6.8,15.56-5.88,23.41a20.3,20.3,0,0,0,4.4,9.78c2.36,3.12,4.91,4.11,7.92,5.73l2.73,1.23c6.1,2.66,16.43,2.56,23.84,3.78,12.32,2,24.88,3.81,37.39,3.91,8.45.07,18.17-1.52,22.66-9.24C203.62,68,201.59,57.21,198.52,49.69Z"/><path class="cls-5" d="M205.51,131.46c-2.38-3.44-6.91-1.4-8,2.27-3.79-9.19-7.2-18-11.92-27-2.58-4.91-6.31-9.16-8.18-14.42-2.36-6.64-3.45-14.38-7.31-20.49-10.1-16-29.46-14-45.86-10.28-8,1.82-15.77,3.91-23.07,7.67-4.5,2.32-9.93,3.57-12.84,7.78-9.51,13.76-9,40.8-9.15,49.5-.27,17,1.73,35.47,6.35,51.73,4.36,15.32,8.39,29.45,17.46,42.67,3.28,4.78,8.43,11.13,14.72,10.33,5.09-.65,6.86-1.74,11.6-3.45,11.15-4,14.68.61,25.53,2.36,12,1.93,19-9.83,24.15-18.75a158,158,0,0,0,18.17-48.8c4.76,1.25,7.5,0,9.13-5.09,1.26-4,1.38-9.17,1.48-13.44S207.85,134.83,205.51,131.46Z"/><path class="cls-10" d="M208.83,76.41c-8.86-5.22-18.28-9.12-27-14.69-3.78-2.41-8.3-4.59-12.83-2.6-9.2,4-9.67,20.51-9.76,24.48-.13,5.69,2.13,10.21,5.65,14.44,6.93,8.32,14.82,15.51,20.71,24.65s8.49,17.19,8.69,28.42c3-4.75,2.62-9.39,3.13-14.74a6.59,6.59,0,0,1,3.07-5.22,3.52,3.52,0,0,1,3.16-.46c1.09.49,1.27,2.17,1.92,2.45,4.53,1.94,9.3-7.25,9.75-10.52.34-2.54-.13-5.58,0-7.78.11-2.73.95-5,1.38-7.68C218.19,97.43,218.69,82.21,208.83,76.41Z"/><path class="cls-11" d="M156.91,40.83c-11.73,1.26-23.48,3.72-35.36,3.38s-23.23-1.52-35.1,1.42C73.45,48.84,61.2,58,57.2,71.11c-3.81,12.54,1.21,25.46,4.51,37.33,2.78,10,5.82,20.14,12.52,28.37.79-2.23,2.62-5,4.79-3.62.3-6.8.38-14,.9-20.52.39-4.83.54-9.67,1.51-14.37.86-4.12,5-7.55,8.76-9.29,4.83-2.23,9.9-2.81,15.19-3.68a133,133,0,0,1,16.67-2c11.63-.45,23.31-1,34.24-4.58,9.64-3.19,23-10.91,23.32-22.41C179.95,43.16,168.12,39.62,156.91,40.83Z"/><path class="cls-9" d="M112,102.83c-8.14-2.75-19.62,3.24-24.25,7.6-1.52,1.43-3.83,4-3.17,6.18.86,2.74,3.38,3.29,5.61,2.21,4.14-2,7.17-5.21,11.9-6.2,4.21-.88,8.32-.06,12.64-1.94C120.87,108,116.12,104.22,112,102.83Z"/><path class="cls-9" d="M156.43,100.51c7.9-3.37,19.81,1.73,24.76,5.71,1.63,1.31,4.13,3.74,3.64,5.92-.64,2.8-3.12,3.54-5.43,2.63-4.28-1.68-7.55-4.64-12.34-5.26-4.27-.56-8.31.58-12.75-1C148,106.35,152.43,102.22,156.43,100.51Z"/><path class="cls-12" d="M143.46,169.48a1,1,0,0,0-2-.2c-1.89,11.56-13.33,5.63-13.14-1.87a53.8,53.8,0,0,1-1.76-9.49c-.93-6.41-1.21-12.89-1.5-19.35-.43-9.86.12-19.71-.71-29.56a.27.27,0,0,0-.53-.05c-2.25,8-.95,18.35-.89,26.65.08,10.86.4,22,2.87,32.6.9,3.88,4.35,10.64,9.3,10.36C140.22,178.27,144.15,174.85,143.46,169.48Z"/><path class="cls-13" d="M99.4,144.34a4.28,4.28,0,0,0-3-3.15c-2.84-1-7.18,1.56-5.65,4.79l0,0a5.06,5.06,0,0,0,1,1.86c1.61,1.89,4.38,2.51,6.28.69A4.9,4.9,0,0,0,99.4,144.34Z"/><path class="cls-1" d="M157.41,248.45c-1.39,7.62-3.62,15-5.2,22.58-1.22,5.84-4.51,11-5.83,16.68a1.15,1.15,0,0,0,2.24.53c1.3-5.63,4.32-11,5.82-16.68,2-7.47,3.87-15.24,4.56-22.95C159.09,247.69,157.57,247.56,157.41,248.45Z"/><path class="cls-13" d="M163.61,141.87a4.28,4.28,0,0,0-3-3.15c-2.84-1-7.18,1.56-5.65,4.79l0,0a5,5,0,0,0,1,1.86c1.6,1.89,4.38,2.51,6.28.69A4.91,4.91,0,0,0,163.61,141.87Z"/><path class="cls-1" d="M147.46,287.13a130.52,130.52,0,0,1-13.14-22.51c-2.68-6-4.66-12.42-7.65-18.19-.37-.72-1.54-.15-1.27.6,5.21,14.77,11.13,28.47,20.1,41.35C146.35,289.61,148.33,288.36,147.46,287.13Z"/><path class="cls-6" d="M162.92,162.43c-2.77-1.71-5.24-3.12-7.24-5.79-1.77-2.37-3.91-5.26-4.87-8.06a.34.34,0,0,0-.66,0,4.37,4.37,0,0,0,.66,3.3,49.52,49.52,0,0,0,3.91,6.5c1.62,2.31,4.89,5.44,7.92,5.19A.63.63,0,0,0,162.92,162.43Z"/><path class="cls-6" d="M112.25,150.06a27,27,0,0,1-2.73,7.12c-1.46,2.56-3.74,3.81-5.68,5.85a.56.56,0,0,0,.43.93c2.62-.18,4.61-2.72,6-4.71a14.27,14.27,0,0,0,2.69-9.13A.36.36,0,0,0,112.25,150.06Z"/><path class="cls-6" d="M152.8,185.42a1,1,0,0,0-.08-.54l.07-.08c.68-1-.68-1.85-1.51-1.4-10.12,5.43-18.92,4.94-29.93,2.88a.34.34,0,0,0-.36.52c.1.15.22.28.33.42-1.42,5.06,11.24,11,14.87,11.86C143.73,200.87,151.79,192.24,152.8,185.42Zm-17.55,10.65c-3.89-.83-6.52-3.6-9.33-6.06,3.63,1.06,8.13.92,11.18.82a28.49,28.49,0,0,0,11-2.31C145,193,142.06,197.53,135.26,196.08Z"/><path class="cls-6" d="M163.79,193.86c-2.32-2.52-5.32-4.47-7.76-6.93a54.85,54.85,0,0,1-6.28-8c-.19-.27-.73-.26-.77.13-.31,2.84,2.57,5.78,4.29,7.8,2.58,3,6,7,10,8A.61.61,0,0,0,163.79,193.86Z"/><path class="cls-8" d="M135.26,196.08c-3.89-.83-6.52-3.6-9.33-6.06,3.63,1.06,8.13.92,11.18.82a28.49,28.49,0,0,0,11-2.31C145,193,142.06,197.53,135.26,196.08Z"/><path class="cls-6" d="M122.83,180.35c-1.63,5.77-5.27,10-8.58,14.85-.35.5.41,1.21.89.82,4.64-3.82,8.58-9.39,8.2-15.62A.26.26,0,0,0,122.83,180.35Z"/><path class="cls-5" d="M79.06,352.18c.65.68,1.77.61,2.53,1.23a18,18,0,0,1,2.23,2.48,19.45,19.45,0,0,1,2.63,4.6,75.43,75.43,0,0,1,3.14,9.68A40,40,0,0,0,91,374.59c.29.68.84,1.68,1.66,1.67a2,2,0,0,0,1.68-1.41c.6-2-.25-4.22-.18-6.25,0-1,.47-1.36,1.34-.55a5.14,5.14,0,0,1,1,2.24c.43,1.35.79,2.7,1.22,4s.73,2.81,2,3.63a2.87,2.87,0,0,0,2.13.39c1-.26,1.08-.61,1.85.41s2.58,1.95,3.89,1c1.71-1.22.52-3.73.85-5.34.53.91,1.51.13,1.83-.53a6.77,6.77,0,0,0,.45-2.73,21.17,21.17,0,0,0-.95-4.62c-.84-3.56-1.82-7.26-3.88-10.27C105,355,104,354,103,352.82a9.89,9.89,0,0,1-2.12-2.91c.56-.34,1.24-.34,1.83-.67a4.26,4.26,0,0,0,1.56-1.66c.73-1.45.66-3.29-1.28-3a20.56,20.56,0,0,1-9.66-.55c-2.93-.85-5.13-3.34-8.08-4.18-1.17-.33-1.33.58-1.62,1.5a17.88,17.88,0,0,1-1.41,3.53,40.65,40.65,0,0,0-2.46,4.39,14.86,14.86,0,0,0-.73,2.56"/><path class="cls-6" d="M107.38,357a29.55,29.55,0,0,0-4.82-6.41c2.41-.65,4-3,3.23-6.12-.53-2.2-2.92-1.41-4.31-.89-2.6,1-5.9.39-8.48-.34h0c-2.11-1.32-4.28-2.6-6.47-4-.52-.32-1,.26-.89.74.32,1.67.45,1.55,2,2.44a63.46,63.46,0,0,1,10.32,7.31,36.53,36.53,0,0,1,8.94,12.69c.88,2,2.63,7.14,1.83,9.87a64,64,0,0,0-3.15-8.56c-1.16-2.84-2.51-7.65-5.46-9-.22-.1-.55.1-.43.36,1.88,4.2,3.87,8.36,5.35,12.71a30.45,30.45,0,0,1,2,9.59c0,2.33-1.89,1-2.95.22.68-1.86.24-4.24-.16-6a32,32,0,0,0-6.54-14.2c-.32-.4-1.13-.3-1.06.33.37,3.16,2.58,5.29,3.78,8.16.67,1.6.84,3.43,1.35,5.09q.46,1.86.75,3.77c.36,2.48-2,2.76-2.64.83-1.06-3.43-2.22-6.79-3.3-10.21-.45-1.42-1.43-3.46-3-3.82a.76.76,0,0,0-.83.38,1.64,1.64,0,0,0-.24.58.59.59,0,0,0-.3.55c.21,3.33,1.22,6.63,1.73,9.93l-1.33,1.58a14.08,14.08,0,0,1-.9-1.67,36.26,36.26,0,0,1-2.06-6.56c-1.29-4.71-4-12-8.75-14.16-.84-.38-1.82.79-1,1.39,4.46,3.24,6.6,10,8,15,.84,3.06,1.67,6.87,4.46,8.76,2.12,1.44,3.52-1.64,3.82-3.1A10.57,10.57,0,0,0,96,371.5c.49,1.58,1.09,3.15,1.48,4.76.5,2.08,2.59,5,5.09,3.39a3.63,3.63,0,0,0,.34-.29c1.81,4.45,6,3.29,6.38-2a12.84,12.84,0,0,0,0-1.48,1.39,1.39,0,0,0,1.1-.47C114.57,371,109.75,361.3,107.38,357ZM97,346a19.61,19.61,0,0,0,2.48.12,10.57,10.57,0,0,0,2.1-.22c.79-.17,2.22-1.21,2,.56-.31,2.07-2.37,1.46-3.78,1.67C98.92,347.36,98,346.65,97,346Z"/><path class="cls-6" d="M149.94,210.31c-2-2.92-6.59-5.06-10.09-5.33-4.25-.32-7,1.39-9.31,4.86-.29.42.23.91.66.79a8.83,8.83,0,0,0,3-1.67c2-1.51,4.18-1.53,6.52-1,3,.69,5.37,2.93,8.33,3.62A.84.84,0,0,0,149.94,210.31Z"/><path class="cls-1" d="M202.16,160.27a5,5,0,0,0-3.78.32,4.8,4.8,0,0,0-3.35,2.79c-1.37,2.93.43,5.64,3.18,6.67a6,6,0,0,0,6.44-1.74A5.32,5.32,0,0,0,202.16,160.27Z"/><path class="cls-1" d="M83.11,164.77a1.37,1.37,0,0,0-1.84-.76,5,5,0,0,0-1.48-.34c-1.57-.15-3.06,1.13-4.06,2.18-2.37,2.46-.91,5.81,1.57,7.52,2,1.36,4.91,1.9,6.4-.45S84.2,167.15,83.11,164.77Z"/><path class="cls-2" d="M53,317.06s5,11.51,32.36,21.15c0,0,3.28,5.73-6,15.5,0,0-25.85-3.84-44.42-30.35,0,0-3.18-9.8,5.67-11.41S50.26,313.09,53,317.06Z"/><path class="cls-2" d="M140.9,556.7a110.73,110.73,0,0,1-23.37-9.26,28.22,28.22,0,0,1-4.82-3.3c0,.73-.11,1.22-.35,1.4-2.47,1.88-14.51,6.41-20.64,12.5s.14,10.17.14,10.17c27.16,11.68,48.88.67,48.88.67C140.91,564.57,141,560.53,140.9,556.7Z"/><path class="cls-1" d="M111.41,555c-.31-2.37-2.33-4.73-4.37-6.61a98.64,98.64,0,0,0-10,5.49,15,15,0,0,0,6.14,4.93C106.5,560,112,559.59,111.41,555Z"/><path class="cls-3" d="M117.82,568c-9,.35-16.06-1.41-24.58-4a35.21,35.21,0,0,1-4.1-1.59c-.62,3.57,2.73,5.77,2.73,5.77,27.16,11.68,48.88.67,48.88.67,0-1.22.06-2.38.09-3.56a70.43,70.43,0,0,0-9.59,1.37A111.46,111.46,0,0,1,117.82,568Z"/><path class="cls-1" d="M147.24,285.3c-2.32-.09-4.23,2.12-4.94,4.09a9.25,9.25,0,0,0-.33,1.17,10.91,10.91,0,0,0,0,9.08,6.74,6.74,0,0,0,5.92,4.07c2.88.06,5.36-3.26,6-5.77C155.12,292.89,153.44,285.54,147.24,285.3Z"/><path class="cls-12" d="M110,145.22c-4-7.78-20.84-7.39-22.8,2-.19.89,1,1.66,1.65.88,2.38-3,4.65-5.17,8.65-5.53,4.75-.44,7.41,3,11.5,4.07A1,1,0,0,0,110,145.22Z"/><path class="cls-12" d="M174.24,142.75c-4-7.78-20.84-7.39-22.8,2-.19.89,1,1.66,1.65.88,2.38-3,4.65-5.17,8.65-5.53,4.75-.44,7.42,3,11.5,4.07A1,1,0,0,0,174.24,142.75Z"/><path class="cls-12" d="M148.81,162.26c-4.25-8.85-25.89-10.61-29.36-.07-.19.58.56,1,1,.73,4.29-2.79,8.76-5,14-4.52,4.88.47,8.71,3.11,12.8,5.47C148.4,164.5,149.26,163.2,148.81,162.26Z"/><path class="cls-12" d="M122.53,165.66c-.52-5.38-1.94-9.74-7.29-11.79-5.88-2.26-13.75.16-19.66,1-4.51.63-7.41,1.68-7.71,6.37A24.58,24.58,0,0,0,90,172.54c1.44,4.21,4.55,7.3,10.75,7.47,5.87.16,12.9,1,18.27-1.74C123.33,176,122.91,169.6,122.53,165.66ZM109.92,177.1c-4.73.06-9.84,1.12-14.39-.67-3.06-1.21-4.08-3.88-4.44-6.92-.08-1.21-.11-2.43-.22-3.66,0-1,0-2-.07-2.9.67-4.9,6.24-5.19,10.94-5.8,3.62-.47,7-1.16,10.65-.79,6.45.65,6.87,7.36,7.15,12.37C119.85,174.58,115.23,177,109.92,177.1Z"/><path class="cls-12" d="M151.93,177c5.56,2.35,12.5.94,18.35.33,6.17-.64,9-4,10.15-8.27a24.59,24.59,0,0,0,1.24-11.44c-.66-4.65-3.63-5.47-8.17-5.76-6-.37-14-2.18-19.68.52-5.17,2.46-6.25,6.92-6.36,12.32C147.37,168.65,147.44,175.11,151.93,177Zm-1.26-9.47c-.11-5-.2-11.74,6.18-12.89,3.65-.66,7-.22,10.68,0,4.73.24,10.31.11,11.35,4.94,0,.95.1,1.92.15,2.9,0,1.23,0,2.45.06,3.67-.13,3.07-.94,5.81-3.9,7.25-4.4,2.14-9.57,1.47-14.29,1.77C155.6,175.48,150.8,173.39,150.67,167.53Z"/><path class="cls-14" d="M150.67,167.53c-.11-5-.2-11.74,6.18-12.89,3.65-.66,7-.22,10.68,0,4.73.24,10.31.11,11.35,4.94,0,.95.1,1.92.15,2.9,0,1.23,0,2.45.06,3.67-.13,3.07-.94,5.81-3.9,7.25-4.4,2.14-9.57,1.47-14.29,1.77C155.6,175.48,150.8,173.39,150.67,167.53Z"/><path class="cls-14" d="M109.92,177.1c-4.73.06-9.84,1.12-14.39-.67-3.06-1.21-4.08-3.88-4.44-6.92-.08-1.21-.11-2.43-.22-3.66,0-1,0-2-.07-2.9.67-4.9,6.24-5.19,10.94-5.8,3.62-.47,7-1.16,10.65-.79,6.45.65,6.87,7.36,7.15,12.37C119.85,174.58,115.23,177,109.92,177.1Z"/></svg>