<svg xmlns="http://www.w3.org/2000/svg" viewBox="0 0 300 300"><defs><style>.cls-3{fill:#f1cb9c}.cls-4{fill:#efcfb3}.cls-5{fill:#9d8780}.cls-6{fill:#836b65}.cls-7{fill:#856a52}.cls-9{fill:#caad95}.cls-10{fill:#b49479}.cls-12{fill:#6d3a2c}.cls-13{fill:#c0a58c}.cls-15{fill:#dcba9c}.cls-16{fill:#e1a07d}.cls-19{fill:#9c7c60}.cls-20{fill:#6a554b}</style></defs><g style="isolation:isolate"><g id="Слой_1" data-name="Слой 1"><path d="M241 288c0-1-12-2-58-2l-85 2 85 1 58-1z" fill="#6d4526"/><path class="cls-3" d="M210 151c3-1 12 3 12-1 0-3-5-8-13-2z"/><path class="cls-3" d="M214 146c0 5 6 6 8 6s3-3 2-5-10-3-10-1z"/><path class="cls-3" d="M220 146c2-2 3-6 2-6l-4 3c-2 1-4 2-3 3s3 2 5 0z"/><path class="cls-3" d="M226 147l3-1-4-1-6 1 7 1zM226 151c3 0 5-1 5-2l-5-1c-2-1-5 0-5 1l5 2zM224 153l4-1-4-1h-5l5 2z"/><path class="cls-4" d="M205 154l7-1s2-8 0-10l-6-1z"/><path class="cls-5" d="M157 49c-1-6-9-12-6-19 3-6 8-6 8-6a10 10 0 0 1 5-8c3-2 8 0 8 0s1-6 9-5 10 10 10 10 5-3 7 3-2 9-2 9 2 4 1 8-6 4-6 4-32 18-34 4z"/><path class="cls-6" d="M172 26a29 29 0 0 1 7-15c-6-1-7 4-7 4s-6-1-9 1a10 10 0 0 0-5 8s-5 0-8 5c-3 7 5 14 6 20 2 8 15 5 24 1-6-5-9-14-8-24z"/><path class="cls-7" d="M220 152l6 136h2l-4-137-4 1z"/><path d="M225 186l-1-35-4 1 2 40a41 41 0 0 1 3-6z" fill="#5b4c3e"/><ellipse class="cls-7" cx="222" cy="151" rx="4" ry="4"/><path class="cls-9" d="M169 77c-13 11-11 62-8 64s17 2 17 0 6-76-9-64z"/><path class="cls-10" d="M178 86c-2-8-4-13-9-9-13 11-12 62-9 64l15 1c-2-12-4-43 3-56z"/><path class="cls-9" d="M160 142c7 15 47 16 49 14s2-14 0-15-58-18-49 1z"/><path class="cls-10" d="M174 136a15 15 0 0 1-1-3c-10-1-17 2-14 10 8 15 48 15 50 13l1-5c-13-1-31-5-36-15z"/><path d="M160 159c-1-4-53-25-60-3-4 10 1 24 2 42 2 21 1 44 1 49 1 8 9 26 11 39h4c-3-22 5-86 9-88s10 16 12 21 5 15 5 26 15 41 15 41h3c-10-38-1-124-2-127z" fill="#814c39"/><path class="cls-12" d="M109 199c0-18-2-33 3-43 2-6 7-8 13-9-12-2-22 0-25 9-4 10-1 25 0 43l2 48c1 8 10 26 12 39h3c-1-13-9-31-10-39l2-48zM148 245c1-26-14-53-21-47 3 0 16 26 16 48 0 10 16 40 16 40h3l-1-3c-3-8-14-30-13-38z"/><path class="cls-12" d="M123 195a22 22 0 0 0 14 0c-3 3-8 4-8 4s-5-1-6-4zM103 196c9 0 27-9 32-18 0 0 8 10 24 13v-11l-17-10-38 9z"/><path class="cls-9" d="M97 185c-5-24 10-91 37-123l27 1c2 1 13 11 15 17s-17 72-14 105c0 0-22-3-26-13 0 0-16 17-39 13z"/><path class="cls-13" d="M167 131c-23-5-41-26-44-53-20 34-30 86-26 107 23 4 39-13 39-13 4 10 26 13 26 13-1-14 2-35 5-54z"/><path class="cls-10" d="M176 80v-1c-2 17-19 76-17 106h3c-2-33 16-100 14-105zM131 65c-26 31-38 96-34 120a38 38 0 0 0 10 0c-1-13 5-38 11-63 6-22 14-43 13-57z"/><path class="cls-9" d="M140 63c-16-6-63 19-63 22s7 18 9 17c1 0 30-9 46-20 9-6 14-16 8-19z"/><path class="cls-10" d="M131 82c-15 8-39 13-49 15l5 6c2-1 27-9 43-20l4-2-3 1z"/><path class="cls-3" d="M95 138c2 4 0 13 3 13s7-5 0-14z"/><path class="cls-3" d="M101 143c-6-1-5 5-5 7 1 3 4 4 6 3s1-10-1-10z"/><path class="cls-3" d="M101 148l3 2v-3c-2-3-3-5-4-4-2 1-4 0 1 5z"/><path class="cls-3" d="M102 148a2 2 0 0 0-2 2h2l2-1-2-1zM100 152a2 2 0 0 0 2 2v-4l-2 2zM98 152a3 3 0 0 0 2 2v-2l-1-2-1 2zM96 151a2 2 0 0 0 2 2v-1l-1-3c-1-1-1 1-1 2z"/><path class="cls-4" d="M89 136l4 6s7-1 9-4l-2-6z"/><path class="cls-9" d="M77 86c-10 13 7 51 10 52s14-4 14-6-13-62-24-46z"/><path class="cls-10" d="M97 116c-2-8-4-18-8-24 1 9 4 15 8 24zM74 101c1 15 8 31 12 36-2-8-10-22-12-36z"/><path class="cls-4" d="M149 116c11-22 19-38 20-46 0 0-5-7-9-8h-13c-1 21 0 35 2 54z"/><path fill="#6a594a" d="M149 117l-1-11 9-30v1l-4 33-4 7z"/><path class="cls-15" d="M148 119v-1l21-53 7 2-10 18 3 2-21 32z"/><path class="cls-16" d="M150 63l5-18 16 7-3 17s-12 7-18-6z"/><path fill="#f5ddc9" d="M151 75l8-4-9-10h-1l2 14z"/><path class="cls-15" d="M149 117V61l-8-1 3 20-3 2 7 36 1-1z"/><path d="M170 105s-8-16 0-31a12 12 0 0 0 1-8l-2-1v-4a62 62 0 0 0-7-13l-7-3-4 16h-2v1-1l-8-1v2h-8c3 22 23 42 37 43z" style="mix-blend-mode:multiply" fill="#8c493f"/><path class="cls-3" d="M187 62c3-3 12-33-1-37s-24 12-25 17-3 15 2 18 16 10 24 2z"/><path class="cls-16" d="M165 61c-4-4-1-12 0-17 2-4 4-21 23-18a8 8 0 0 0-2-1c-12-4-24 12-25 17s-3 15 2 18a26 26 0 0 0 10 5 26 26 0 0 1-8-4z"/><path class="cls-5" d="M178 108c-16-7-34-25-22-63l8-10c-2 11-1 14 2 17s13 0 17 2c3 2 0 6 5 7-11 21-15 34-10 47z"/><path class="cls-6" d="M180 60c-2 0-5-3-4-7h5s1 7-1 7zM157 68c0-13 3-23 6-30l2-5c-3 0-10 12-10 12-11 36 5 54 21 62-11-6-19-21-19-39z"/><path class="cls-10" d="M138 154a2 2 0 0 0-2-2c-1-1-2 0-2 2a2 2 0 0 0 2 2c1 0 2 0 2-2zM141 140a2 2 0 0 0-1-3l-2 2a2 2 0 0 0 1 3c1 0 2 0 2-2zM144 129a2 2 0 0 0-1-3l-3 2a2 2 0 0 0 1 3l3-2z"/><path class="cls-15" d="M139 154a2 2 0 0 0-2-3l-2 2a2 2 0 0 0 1 3l3-2zM142 140a2 2 0 0 0-1-3l-3 2a2 2 0 0 0 1 3l3-2zM145 129a2 2 0 0 0-1-3c-1-1-2 0-3 1a2 2 0 0 0 1 3c1 1 2 0 3-1z"/><path class="cls-9" d="M176 134l-6-2 6 1z"/><path class="cls-9" d="M177 134l-6 3 4-4z"/><path class="cls-10" d="M170 134l5-1-5 2z"/><path class="cls-12" d="M134 177l-1 15h2l1-15z"/><path class="cls-19" d="M117 155h-13s-1 4 2 5h8l3-5z"/><path class="cls-13" d="M117 155l-13-1s0 4 2 5h8l3-4z"/><path class="cls-19" d="M156 159l7 3-1 4-7-2c-1-1 1-5 1-5z"/><path class="cls-13" d="M156 158l8 3-2 5c-1 0-6-1-6-3a28 28 0 0 1 0-5z"/><path class="cls-10" d="M82 128c5 0 10-2 15-4 0 0-8 6-14 5zM199 155l3-15s2 9-1 15z"/><path class="cls-20" d="M172 45c1-2 3-4 5-3s-2 5-2 5zM185 52c1-2 2-4 4-3s-1 4-1 4z"/><path class="cls-3" d="M182 60c-2 0-5-6-4-8s7-6 8-5-1 13-4 13z"/><path class="cls-6" d="M181 42s-9-2-8-4c0-1 9-2 11 0l-3 4zM187 45c0 1 6 6 7 5s-1-8-4-8c-1-1-2 0-3 3z"/><path class="cls-16" d="M175 48l1-2-6-2 5 4zM184 52l1-2 4 5-5-3z"/><ellipse class="cls-10" cx="91" cy="132" rx="2" ry="2"/><path class="cls-10" d="M125 287h-11s0-4 2-4l9 4zM171 287h-12s1-4 2-4l10 4z"/><path d="M173 66c-3-1-3-6-2-7s10 3 10 4c0 2-2 6-8 3z" fill="#3f2f2a"/><path d="M175 63h5c0-1-7-5-8-4 0 2 1 3 3 4z" fill="#f8e8ce"/><path class="cls-5" d="M172 24c-1 4-2 7 1 7 4 1 16-1 16-6 0-1-15-4-17-1z"/><path class="cls-6" d="M160 39c2 3 4 3 6 1 3-3 8-11 5-14-2-1-12 10-11 13z"/><path class="cls-5" d="M191 24c-2 0-3 1-3 3 0 3 3 9 6 8 1-1-1-11-3-11z"/><path class="cls-3" d="M162 41c1-4-5-7-6-6s-4 4-3 6 4 5 6 4 2-2 3-4z"/><path class="cls-16" d="M160 41c1-3-3-5-4-4l-2 4 4 3a4 4 0 0 0 2-3z"/><path class="cls-3" d="M160 43c0-2-2-3-3-3a3 3 0 0 0-1 3l2 2a3 3 0 0 0 2-2z"/></g></g></svg>