<svg xmlns="http://www.w3.org/2000/svg" width="282.222mm" height="190.574mm" viewBox="0 0 800 540.211">
  <title>кухня</title>
  <g>
    <g>
      <g>
        <polygon points="320.666 180.878 322.333 220.544 328.333 220.544 328.333 180.878 320.666 180.878" fill="#231f20"/>
        <polygon points="102.621 180.878 100.954 220.544 94.954 220.544 94.954 180.878 102.621 180.878" fill="#231f20"/>
        <g>
          <g>
            <path d="M64.492,160.5a6.983,6.983,0,0,0,4.865,1.9h.385a8.3,8.3,0,0,0,.434,2.145c1.122,2.884,4.8,6.989,12.481,7.3v.031c.161,0,.31-.012.468-.015s.307.015.468.015v-.031c7.685-.314,11.359-4.419,12.481-7.3,1.166-3,0-11.083,0-11.083H70.649c-.726-.452-2.758-1.567-4.429-.935-1.39.526-2.367,2.367-2.687,3.854A4.332,4.332,0,0,0,64.492,160.5Zm1-3.7a3.728,3.728,0,0,1,1.439-2.4c.7-.265,2.258.552,3.018,1a49.282,49.282,0,0,0-.285,5.088,6.163,6.163,0,0,1-3.754-1.4A2.533,2.533,0,0,1,65.488,156.8Z" transform="translate(-20.771 0.5)" fill="#da513d"/>
            <g>
              <g>
                <path d="M92.881,130.987a3.59,3.59,0,0,0,2.771,2.456,5.143,5.143,0,0,0,.963.1,16,16,0,0,0-.28,2.251c-.025,2.494,1.313,9.007,5.8,10.219l0,.024c.051.011.1.01.152.019s.1.033.147.044l.005-.024c4.6.7,8.441-4.728,9.423-7.02,1-2.344,2.76-13.13,2.76-13.13l-7.612-1.6-.3-.063-7.612-1.6s-.152.591-.384,1.52a4.31,4.31,0,0,0-4-.316C93.227,124.7,92.034,128.521,92.881,130.987Zm2.812-5.377c.645-.361,1.866.185,2.522.6-.392,1.624-.846,3.571-1.209,5.325-1.513.112-1.983-.552-2.194-1.09A5.723,5.723,0,0,1,95.693,125.609Z" transform="translate(-20.771 0.5)" fill="#cd7b90"/>
                <path d="M116.772,137.823a4.31,4.31,0,0,0-4,.316c-.232-.93-.384-1.521-.384-1.521l-7.612,1.6-.3.063-7.612,1.6s1.756,10.787,2.76,13.13c.981,2.292,4.828,7.716,9.423,7.02l.005.024c.051-.011.1-.031.147-.044s.1-.008.152-.019l0-.024c4.487-1.212,5.824-7.725,5.8-10.219a16,16,0,0,0-.28-2.251,5.126,5.126,0,0,0,.963-.1,3.59,3.59,0,0,0,2.771-2.456C119.444,142.474,118.251,138.653,116.772,137.823Zm-.105,6.57c-.211.539-.682,1.2-2.194,1.09-.364-1.754-.817-3.7-1.209-5.325.656-.411,1.876-.957,2.522-.6A5.723,5.723,0,0,1,116.667,144.392Z" transform="translate(-20.771 0.5)" fill="#c6dc95"/>
                <path d="M118.757,151.709a4.31,4.31,0,0,0-3.984-.514c-.036-.957-.063-1.567-.063-1.567H98.849s-.5,10.917,0,13.417c.489,2.446,3.138,8.544,7.778,8.808v.025c.052,0,.1-.011.153-.013s.1.013.153.013v-.025c4.64-.264,7.289-6.362,7.778-8.808a16.021,16.021,0,0,0,.188-2.261,5.12,5.12,0,0,0,.964.1,3.589,3.589,0,0,0,3.217-1.833C120.415,156.81,120.033,152.826,118.757,151.709Zm-1.454,6.408c-.317.483-.914,1.036-2.372.616,0-1.792-.038-3.791-.088-5.46.727-.268,2.033-.551,2.59-.064A5.723,5.723,0,0,1,117.3,158.117Z" transform="translate(-20.771 0.5)" fill="#d9c357"/>
              </g>
              <g>
                <g>
                  <path d="M129.909,146.144c-1.98-.02-7.867,0-8.795.925,0,0,1.22,21.352,2.338,23.08,0,0,1.289,1.445,5.8,1.689v.039c.231,0,.444-.007.661-.013s.43.013.661.013v-.039c4.507-.245,5.8-1.689,5.8-1.689,1.119-1.729,2.338-23.08,2.338-23.08C137.776,146.141,131.889,146.123,129.909,146.144Z" transform="translate(-20.771 0.5)" fill="#b3c8c9"/>
                  <path d="M149.909,146.144c-1.981-.02-7.867,0-8.795.925,0,0,1.22,21.352,2.338,23.08,0,0,1.289,1.445,5.8,1.689v.039c.231,0,.444-.007.661-.013s.43.013.661.013v-.039c4.507-.245,5.8-1.689,5.8-1.689,1.119-1.729,2.338-23.08,2.338-23.08C157.776,146.141,151.889,146.123,149.909,146.144Z" transform="translate(-20.771 0.5)" fill="#b3c8c9"/>
                  <path d="M169.909,146.144c-1.981-.02-7.867,0-8.795.925,0,0,1.22,21.352,2.338,23.08,0,0,1.289,1.445,5.8,1.689v.039c.231,0,.444-.007.661-.013s.43.013.661.013v-.039c4.507-.245,5.8-1.689,5.8-1.689,1.119-1.729,2.338-23.08,2.338-23.08C177.776,146.141,171.889,146.123,169.909,146.144Z" transform="translate(-20.771 0.5)" fill="#b3c8c9"/>
                </g>
                <g>
                  <g>
                    <rect x="171.278" y="130.241" width="24.349" height="4.336" fill="#ba86a0"/>
                    <path d="M225.359,152.866c-.464-11.34-10.67-14.787-11.135-15.343s0-3.447,0-3.447H194.179s.464,2.891,0,3.447-10.671,4-11.135,15.343,6.728,15.788,8.7,16.343H216.66C218.631,168.654,225.823,164.206,225.359,152.866Z" transform="translate(-20.771 0.5)" fill="#cadbd7" stroke="#4c646c" stroke-miterlimit="10" opacity="0.2"/>
                    <path d="M185.271,149.074s-3.18,13.3,6.473,18.429h24.277s11-4.125,6.5-20.125c0,0-4.25-2.977-8.375-1.238a23.688,23.688,0,0,1-13.875,1.613c-4.875-1-7.25,1.186-10.25,1.156A43.364,43.364,0,0,0,185.271,149.074Z" transform="translate(-20.771 0.5)" fill="#cfb7b4"/>
                  </g>
                  <g>
                    <g>
                      <path d="M370.331,167.9s-.118-28.163,0-31.435-2.338-8.531-4.325-16.126a49.18,49.18,0,0,1-1.519-14.256h.7a22.12,22.12,0,0,0,0-4.207c-.193-1.643-2.7-1.687-3.562-1.653-.862-.035-3.368.01-3.561,1.653a22.111,22.111,0,0,0,0,4.207h.7a49.14,49.14,0,0,1-1.518,14.256c-1.986,7.6-4.442,12.854-4.324,16.126s0,31.435,0,31.435a3.468,3.468,0,0,0,3.506,3.622,24.34,24.34,0,0,0,5.2.044,24.351,24.351,0,0,0,5.2-.044A3.469,3.469,0,0,0,370.331,167.9Z" transform="translate(-20.771 0.5)" fill="#ad8f7c"/>
                      <path d="M391.146,167.9s-.118-28.163,0-31.435-2.338-8.531-4.325-16.126a49.184,49.184,0,0,1-1.519-14.256h.7a22.111,22.111,0,0,0,0-4.207c-.193-1.643-2.7-1.687-3.562-1.653-.862-.035-3.368.01-3.561,1.653a22.111,22.111,0,0,0,0,4.207h.7a49.142,49.142,0,0,1-1.519,14.256c-1.986,7.6-4.442,12.854-4.324,16.126s0,31.435,0,31.435a3.468,3.468,0,0,0,3.506,3.622,24.34,24.34,0,0,0,5.2.044,24.351,24.351,0,0,0,5.2-.044A3.469,3.469,0,0,0,391.146,167.9Z" transform="translate(-20.771 0.5)" fill="#ad8f7c"/>
                    </g>
                    <g>
                      <path d="M259.648,122.993c-1.877-3.912-12.626-3.592-15.339-3.447-2.712-.145-13.461-.465-15.339,3.447-2.152,4.484-2.87,30.49-2.331,37.485.537,6.979,4.825,12.171,17.67,11.3,12.846.867,17.133-4.325,17.67-11.3C262.518,153.484,261.8,127.477,259.648,122.993Z" transform="translate(-20.771 0.5)" fill="#cadbd7" stroke="#4c646c" stroke-miterlimit="10" opacity="0.2"/>
                      <path d="M233.966,118.555s-7.963,2.063-8.158,2.4.391.134,1.5,1.076.392,2.152,3.067,2.421,2.742-1.681,4.765-.74,5.156,2.607,7.31.766,2.61.243,4.634.445,3.655-.807,5.482-1.211,4.886,1.877,5.548.74,1.022-1.076,2.959-.605,4.351-1.624,4.351-1.624l-10.181-3.488Z" transform="translate(-20.771 0.5)" fill="#dca5be"/>
                      <polygon points="212.71 119.055 212.71 114.526 234.367 114.526 234.367 119.234 212.71 119.055" fill="#ba86a0"/>
                      <path d="M229.021,142.525s-1.25,18.481,1,21.481a14.788,14.788,0,0,0,12.125,5.871c5.875,0,16.375-.125,17.625-9.75a92.107,92.107,0,0,0,0-20.36c-.125-1.64-1.125.485-6.375,2.11s-6.375.545-10.875.647-8.125.4-10.25,0A6.848,6.848,0,0,0,229.021,142.525Z" transform="translate(-20.771 0.5)" fill="#debf90"/>
                    </g>
                    <g>
                      <rect x="247.467" y="149.574" width="81.065" height="7.061" fill="#dca5be"/>
                      <circle cx="288.001" cy="110.732" r="2.427" fill="#dca5be"/>
                      <path d="M312.549,165.552c.443-5.149,7.21-9.417,7.21-9.417H297.782s6.767,4.267,7.21,9.417c0,0-7.21,1.324-11.035,6.326h29.628C319.759,166.876,312.549,165.552,312.549,165.552Z" transform="translate(-20.771 0.5)" fill="#ba86a0"/>
                      <path d="M275.435,142.742s1.644,5.106,1.86,5.41,1.9.757,4.025.757c.3,0,3.678-.022,4.284-.887s1.342-5.5,1.342-5.5a16.789,16.789,0,0,1-6.016,1.125A25.571,25.571,0,0,1,275.435,142.742Z" transform="translate(-20.771 0.5)" fill="#543b38"/>
                      <path d="M275.652,142.525s-1.169-1.472-.217-2.294a10.985,10.985,0,0,0,1.644-2.164c.606-.736,1.169-1.774,2.207-2.077s2.25-1.818,1.645-2.208c0,0,1.817-.043,2.207.866s.519,2.38,1.255,2.683,1.125.086,1.472.822a4.307,4.307,0,0,0,1.385,1.558,1.91,1.91,0,0,1-.3,2.813,8.37,8.37,0,0,1-4.069,1.032,36.84,36.84,0,0,1-3.771-.07l-3.063-.582Z" transform="translate(-20.771 0.5)" fill="#f05568"/>
                      <path d="M289.259,142.742s1.644,5.106,1.86,5.41,1.9.757,4.025.757c.3,0,3.678-.022,4.284-.887s1.342-5.5,1.342-5.5a16.79,16.79,0,0,1-6.016,1.125A25.573,25.573,0,0,1,289.259,142.742Z" transform="translate(-20.771 0.5)" fill="#543b38"/>
                      <path d="M289.476,142.525s-1.169-1.472-.217-2.294a10.985,10.985,0,0,0,1.644-2.164c.606-.736,1.169-1.774,2.207-2.077s4.371,1.039,5.106,1.341,1.125.086,1.472.822a4.307,4.307,0,0,0,1.385,1.558,1.91,1.91,0,0,1-.3,2.813,8.37,8.37,0,0,1-4.069,1.032,36.842,36.842,0,0,1-3.771-.07l-3.062-.582Z" transform="translate(-20.771 0.5)" fill="#f8f3f1"/>
                      <path d="M302.693,142.742s1.644,5.106,1.86,5.41,1.9.757,4.025.757c.3,0,3.678-.022,4.284-.887s1.342-5.5,1.342-5.5a16.789,16.789,0,0,1-6.016,1.125A25.573,25.573,0,0,1,302.693,142.742Z" transform="translate(-20.771 0.5)" fill="#543b38"/>
                      <path d="M302.909,142.525s-1.169-1.472-.217-2.294a10.984,10.984,0,0,0,1.644-2.164c.606-.736,3.344-4.932,3.775-3.94a9.243,9.243,0,0,0,3.539,3.2c.736.3,1.125.086,1.472.822a4.307,4.307,0,0,0,1.385,1.558,1.91,1.91,0,0,1-.3,2.813,8.37,8.37,0,0,1-4.069,1.032,36.842,36.842,0,0,1-3.771-.07l-3.062-.582Z" transform="translate(-20.771 0.5)" fill="#e9e628"/>
                      <path d="M328.3,142.742s-1.645,5.106-1.86,5.41-1.9.757-4.025.757c-.3,0-3.678-.022-4.284-.887s-1.342-5.5-1.342-5.5a16.789,16.789,0,0,0,6.016,1.125A25.573,25.573,0,0,0,328.3,142.742Z" transform="translate(-20.771 0.5)" fill="#543b38"/>
                      <path d="M328.08,142.525s1.169-1.472.217-2.294-.5-2.368-1.109-3.1-3.319-2.908-3.75-1.917c-.543,1.25-2.848.432-3.583.735a5.184,5.184,0,0,0-1.987,2.208,4.308,4.308,0,0,1-1.385,1.558,1.91,1.91,0,0,0,.3,2.813,8.37,8.37,0,0,0,4.069,1.032,36.842,36.842,0,0,0,3.772-.07l3.062-.582Z" transform="translate(-20.771 0.5)" fill="#ba499b"/>
                      <path d="M330.167,142.742s1.644,5.106,1.86,5.41,1.9.757,4.025.757c.3,0,3.678-.022,4.284-.887s1.342-5.5,1.342-5.5a16.789,16.789,0,0,1-6.016,1.125A25.573,25.573,0,0,1,330.167,142.742Z" transform="translate(-20.771 0.5)" fill="#543b38"/>
                      <path d="M330.383,142.525s-1.169-1.472-.217-2.294.748-2.368,1.354-3.1,2.212-3.043,3.25-3.345,3.515,1.861,4.25,2.164,1.229,1.472,1.576,2.208a4.308,4.308,0,0,0,1.385,1.558,1.91,1.91,0,0,1-.3,2.813,8.37,8.37,0,0,1-4.069,1.032,36.842,36.842,0,0,1-3.771-.07l-3.062-.582Z" transform="translate(-20.771 0.5)" fill="#deeaac"/>
                      <path d="M345.184,149.074a36.414,36.414,0,1,0-72.827,0Z" transform="translate(-20.771 0.5)" fill="#cadbd7" stroke="#4c646c" stroke-miterlimit="10" opacity="0.2"/>
                    </g>
                  </g>
                </g>
              </g>
            </g>
          </g>
          <rect x="46" y="172.378" width="329" height="8.5" fill="#7ea2b4"/>
        </g>
      </g>
      <g>
        <g>
          <line x1="464.137" x2="464.137" y2="137.409" fill="#2d2e2d"/>
          <path d="M485.907,136.909h-2V.5a1,1,0,0,1,1-1h0a1,1,0,0,1,1,1Z" transform="translate(-20.771 0.5)" fill="#2d2e2d"/>
        </g>
        <path d="M501.72,163.929c-.383-2.675-9.744-4.394-9.744-4.394s.191-21.208,0-22.927-2.293-2.292-2.293-2.292h-9.552s-2.1.573-2.293,2.292,0,22.927,0,22.927-9.362,1.719-9.744,4.394c0,0-24.456,4.967-26.367,24.074h86.359C526.177,168.9,501.72,163.929,501.72,163.929Z" transform="translate(-20.771 0.5)" fill="#eb2245"/>
      </g>
    </g>
    <g>
      <g>
        <g>
          <g>
            <g>
              <rect x="555" y="523.628" width="172.667" height="16.583" fill="#39535c"/>
              <g>
                <rect x="564.5" y="530.628" width="73" height="3.5" fill="#fff"/>
                <rect x="644.5" y="530.628" width="73" height="3.5" fill="#fff"/>
              </g>
            </g>
            <g>
              <g>
                <path d="M659.724,523.128H575.771s-6.667.25-8.667-6.25V246.711s3.917-22.583,27.167-27.333H729.1c23.25,4.75,27.167,27.333,27.167,27.333V516.878c-2,6.5-8.667,6.25-8.667,6.25H659.724Z" transform="translate(-20.771 0.5)" fill="#eb2245"/>
                <rect x="546.333" y="304.016" width="189.166" height="4.705" fill="#f3f0f2"/>
              </g>
              <g>
                <rect x="556.922" y="363.878" width="11.25" height="25" fill="#39535c"/>
                <path d="M586.869,382.795s-.415-67.751-.749-72.417c-.318-4.444-.638-16.742-2.647-17.9,0,0-.1-.083-.156-.068-.052-.015-.156.068-.156.068-2.009,1.16-2.328,13.458-2.647,17.9-.334,4.666-.749,72.417-.749,72.417.471,1.949,2.591,2.434,3.4,2.549v.034s.059,0,.156-.015c.1.011.156.015.156.015v-.034C584.278,385.228,586.4,384.744,586.869,382.795Z" transform="translate(-20.771 0.5)" fill="#c2c1c1"/>
              </g>
            </g>
          </g>
          <g>
            <g>
              <path d="M691.932,160.68c-.025-.246-2.534-24.755-8.615-32.486l.785-.618c6.262,7.959,8.723,31.986,8.824,33Z" transform="translate(-20.771 0.5)" fill="#269546"/>
              <g>
                <g>
                  <path d="M684.28,128.984s-.052,4.2,2.293,5.762,6.3-1.254,5.82-3.5-1.121-3.027-2.784-3.366a15.567,15.567,0,0,0-4.018-.059Z" transform="translate(-20.771 0.5)" fill="#cf4f54"/>
                  <path d="M685.194,126.308s2.392-3.481,5.224-2.993,3.71,3.326,2.268,3.842-3.555-.32-4.9-.244-2.135.172-2.135.172Z" transform="translate(-20.771 0.5)" fill="#cf4f54"/>
                  <path d="M682.919,125.867s-2.173-2.292-1.3-4.437,3.452-3.1,4.778-2.578a2.468,2.468,0,0,1,.988,3.358c-.586.889-2.486,3.728-2.486,3.728Z" transform="translate(-20.771 0.5)" fill="#cf4f54"/>
                  <path d="M681.032,128.092s-3.449,1.559-5.171-.084-1.538-3.457-.55-4.529,3.237-2.06,4.482-.928a16.842,16.842,0,0,1,2.583,3.736Z" transform="translate(-20.771 0.5)" fill="#cf4f54"/>
                  <path d="M683.469,128.915s.932,3.12-.555,5.424A3.654,3.654,0,0,1,678.566,136a2.993,2.993,0,0,1-1.764-3.257c.158-1.914,1.689-2.789,2.789-3.366s2.314-1.062,2.314-1.062Z" transform="translate(-20.771 0.5)" fill="#cf4f54"/>
                </g>
                <ellipse cx="683.724" cy="127.613" rx="2.423" ry="2.119" transform="translate(-28.994 198.627) rotate(-16.391)" fill="#e6ae27"/>
              </g>
            </g>
            <g>
              <g>
                <path d="M701.44,156.666c-.2-1.206-4.745-29.657.019-40.74l.918.395c-4.648,10.816,0,39.893.05,40.185Z" transform="translate(-20.771 0.5)" fill="#269546"/>
                <g>
                  <g>
                    <path d="M701.6,117.567s1.351,4.829-.872,7.354-7.651.491-7.793-2.253.361-3.837,2.176-4.739a18.553,18.553,0,0,1,4.616-1.305Z" transform="translate(-20.771 0.5)" fill="#cf4f54"/>
                    <path d="M699.721,114.762s-3.832-3.281-6.948-1.847-3.258,4.979-1.434,5.131,4-1.463,5.577-1.789,2.515-.459,2.515-.459Z" transform="translate(-20.771 0.5)" fill="#cf4f54"/>
                    <path d="M702.207,113.553s1.8-3.314.142-5.52-4.937-2.515-6.306-1.505-1.057,3.333-.107,4.178,4.015,3.537,4.015,3.537Z" transform="translate(-20.771 0.5)" fill="#cf4f54"/>
                    <path d="M705.069,115.538s4.459.739,5.939-1.687.711-4.461-.759-5.394-4.368-1.381-5.457.309a20.128,20.128,0,0,0-1.831,5.105Z" transform="translate(-20.771 0.5)" fill="#cf4f54"/>
                    <path d="M702.512,117.238s-.114,3.887,2.309,6.088a4.363,4.363,0,0,0,5.528.578,3.573,3.573,0,0,0,1.032-4.3c-.771-2.159-2.807-2.7-4.254-3.026s-3-.513-3-.513Z" transform="translate(-20.771 0.5)" fill="#cf4f54"/>
                  </g>
                  <path d="M698.969,115.519a2.852,2.852,0,0,0,2.909,2.518c1.611.082,2.918-.91,2.92-2.218a2.852,2.852,0,0,0-2.912-2.517C700.277,113.22,698.971,114.211,698.969,115.519Z" transform="translate(-20.771 0.5)" fill="#e6ae27"/>
                </g>
              </g>
              <path d="M707.453,143.081s13.438,39.073,0,73.535c0,0-2.428,3.487-12.184,3.243-9.755.244-12.183-3.243-12.183-3.243-13.438-34.462,0-73.535,0-73.535Z" transform="translate(-20.771 0.5)" fill="#7ea2b4"/>
            </g>
          </g>
        </g>
        <g>
          <g>
            <polyline points="799.999 344.878 735.499 344.878 735.499 329.545 799.999 329.545 799.999 344.878" fill="#c4c4c4"/>
            <g>
              <rect x="735.499" y="344.878" width="64.5" height="194.667" fill="#7ea2b4"/>
              <rect x="750.55" y="354.878" width="49.45" height="174.667" fill="#39535c"/>
              <rect x="752.667" y="357.544" width="47.333" height="169.336" fill="#7ea2b4"/>
            </g>
          </g>
          <g>
            <g>
              <path d="M789.747,300.069s1.457-2.235,5.422-2.191c0,0,4.832.088,5.664,2.191l-2.705,2.234-4.252.744-3.373-1.533Z" transform="translate(-20.771 0.5)" fill="#c48f6c"/>
              <polygon points="775.505 297.501 774.834 296.581 774.453 296.581 774.344 296.581 773.965 296.581 773.293 297.501 773.293 298.114 773.6 298.377 773.293 298.727 773.293 299.167 774.344 299.167 774.453 299.167 775.505 299.167 775.505 298.727 775.199 298.377 775.505 298.114 775.505 297.501" fill="#84461e"/>
              <polygon points="768.977 300.569 770.496 308.485 767.75 329.65 780.31 329.65 778.037 308.485 780.062 300.569 768.977 300.569" fill="#e9ab80"/>
            </g>
            <g>
              <g>
                <path d="M769.747,300.069s1.457-2.235,5.422-2.191c0,0,4.832.088,5.664,2.191l-2.705,2.234-4.252.744-3.373-1.533Z" transform="translate(-20.771 0.5)" fill="#c48f6c"/>
                <polygon points="748.977 300.569 750.496 308.485 747.75 329.65 760.31 329.65 758.037 308.485 760.062 300.569 748.977 300.569" fill="#e9ab80"/>
              </g>
              <g>
                <ellipse cx="752.366" cy="299.347" rx="0.386" ry="0.135" fill="#f2e9e4"/>
                <ellipse cx="754.366" cy="299.347" rx="0.386" ry="0.135" fill="#f2e9e4"/>
                <ellipse cx="756.366" cy="299.347" rx="0.386" ry="0.135" fill="#f2e9e4"/>
                <ellipse cx="753.377" cy="299.795" rx="0.385" ry="0.136" fill="#f2e9e4"/>
                <ellipse cx="755.377" cy="299.795" rx="0.385" ry="0.136" fill="#f2e9e4"/>
                <ellipse cx="753.377" cy="298.795" rx="0.385" ry="0.136" fill="#f2e9e4"/>
                <ellipse cx="755.377" cy="298.795" rx="0.385" ry="0.136" fill="#f2e9e4"/>
              </g>
            </g>
          </g>
        </g>
      </g>
      <g>
        <g>
          <path d="M482.23,313.547c-.319-1.487-1.3-3.328-2.687-3.854-1.671-.631-3.7.484-4.429.935H449.689s-1.166,8.084,0,11.084c1.122,2.883,4.8,6.988,12.481,7.3v.03c.161,0,.31-.013.468-.015s.307.015.468.015v-.03c7.684-.314,11.359-4.42,12.481-7.3a8.3,8.3,0,0,0,.434-2.146h.385a6.984,6.984,0,0,0,4.865-1.9A4.333,4.333,0,0,0,482.23,313.547Zm-2.373,2.708a6.168,6.168,0,0,1-3.754,1.4,49.237,49.237,0,0,0-.285-5.088c.76-.449,2.319-1.266,3.018-1a3.726,3.726,0,0,1,1.439,2.4A2.534,2.534,0,0,1,479.857,316.255Z" transform="translate(-20.771 0.5)" fill="#298842"/>
          <g>
            <path d="M527.475,280.363c-.519-.727-6.12-6.64-6.741-6.743a30.369,30.369,0,0,0-3.112,0,25.9,25.9,0,0,0-6.949.83l-9.645-2.178.623-5.083a6.132,6.132,0,0,0-2.7-.933,4.91,4.91,0,0,0-2.489.933l.415,5.187c-8.92,1.141-17.321,4.252-18.357,5.29s.83,1.451.83,1.451l5.6,9.231s.934,7.26,1.142,9.853,1.451,2.8,1.451,2.8v3.11l.981,1.051-.772.859-3.216,19.291,1.607,2.762,6.482.972h11.2l7.155-.765,2.386-2.657-2.178-19.6-1.078-.981.559-.619V301c.83-.519,1.038-3.06,1.038-3.06l2.333-17.475a31.168,31.168,0,0,0,3.734-.623h2.178a12.023,12.023,0,0,1,1.92,1.451c1.088.985.621,1.765-.572,3.32s-1.763,6.429-1.763,6.429,1.141,2.335-.26,3.37-.882,2.8-.674,4.876-1.97.622-2.852.415-1.088.777-1.088.777l1.088,3.63c1.142-.829,5.29-.829,6.121-3.111S527.993,281.087,527.475,280.363Z" transform="translate(-20.771 0.5)" fill="#d54398"/>
            <polyline points="466.773 301.5 489.901 301.5 489.901 304.921 489.343 305.54 467.755 305.661 466.773 304.61 466.773 301.5" fill="#dcdbdb"/>
          </g>
        </g>
        <g>
          <g>
            <path d="M25.8,263.454H136.913a3.8,3.8,0,0,1,3.8,3.8V325.9a3.8,3.8,0,0,1-3.8,3.8H25.8a3.8,3.8,0,0,1-3.8-3.8V267.259A3.8,3.8,0,0,1,25.8,263.454Z" fill="#eb2245"/>
            <path d="M34.205,271.854h66.57a3.8,3.8,0,0,1,3.8,3.8V316.71a3.8,3.8,0,0,1-3.8,3.8H34.2a3.8,3.8,0,0,1-3.8-3.8V275.659A3.8,3.8,0,0,1,34.205,271.854Z" fill="#333"/>
            <path d="M121.863,313.67a3.362,3.362,0,0,1-3.39,3.333H59.152a3.362,3.362,0,0,1-3.39-3.333V277.7a3.362,3.362,0,0,1,3.39-3.333h59.321a3.362,3.362,0,0,1,3.39,3.333Z" transform="translate(-20.771 0.5)" fill="#c2c1c1"/>
            <rect x="114.406" y="263.454" width="1.109" height="66.254" fill="#333"/>
            <rect x="115.516" y="275.975" width="25.202" height="9.51" fill="#030303"/>
            <circle cx="128.116" cy="298.271" r="5.019" fill="#f0efef"/>
            <circle cx="128.116" cy="314.154" r="5.019" fill="#f0efef"/>
            <polygon points="105.579 286.991 100.125 292.142 100.125 299.988 105.579 305.694 105.579 286.991" fill="#eb2245"/>
            <rect x="127.09" y="293.884" width="1.891" height="8.811" fill="#156d6a"/>
            <rect x="144.465" y="312.723" width="8.681" height="1.863" transform="translate(-207.058 223.409) rotate(-49.466)" fill="#156d6a"/>
          </g>
          <g>
            <path d="M320.473,295.128v-2h-7.25v2.25h2v4.25l-2,1v9h-14.5v-6.25l-1.75-4.334h-.334V260.211c0-10.167-4.167-15.709-7.667-16.334-2.32-.415-5.312-.542-8.812,5.625s-2.687,21.042-2.687,21.042h-1.666v7.833h6.333v-8h-1.354c-.583-12.187,2.472-22.282,6.479-22.062,4.562.25,4.791,10.063,4.791,10.063v40.666l-1.75,4.334v6.25H275.473v-9l-2-1v-4.25h2v-2.25h-7.25v2h2.25v4.25l-2.25,1.5v27.25h7.75v-14.75h36.75v14.75h7.75v-27.25l-2.25-1.5v-4.25Z" transform="translate(-20.771 0.5)" fill="#737374"/>
            <g>
              <g>
                <rect x="165" y="328.473" width="216.938" height="211.071" fill="#39535c"/>
                <g>
                  <g>
                    <rect x="168.333" y="532.044" width="209.667" height="1" fill="#f7f9f9"/>
                    <g>
                      <rect x="168.333" y="388.211" width="102.667" height="137.333" fill="#7ea2b4"/>
                      <rect x="275.333" y="388.211" width="102.667" height="137.333" fill="#7ea2b4"/>
                      <g>
                        <rect x="262.417" y="426.128" width="3" height="35.209" fill="#fff"/>
                        <rect x="280.917" y="426.128" width="3" height="35.209" fill="#fff"/>
                      </g>
                    </g>
                    <g>
                      <rect y="329.545" width="165" height="15.333" fill="#c4c4c4"/>
                      <g>
                        <rect y="344.878" width="165" height="194.667" fill="#7ea2b4"/>
                        <rect x="11.814" y="354.378" width="138.734" height="174.667" fill="#39535c"/>
                        <rect x="13.931" y="357.044" width="134.5" height="169.335" fill="#7ea2b4"/>
                        <rect x="68.222" y="365.879" width="25.917" height="4.333" fill="#fff"/>
                      </g>
                    </g>
                  </g>
                  <rect x="165" y="328.473" width="216.938" height="56.559" fill="#c8dbda"/>
                  <path d="M399.771,379.158V333.082c0-1.576-2.59-1.648-2.59-1.648H191.514s-2.59.072-2.59,1.648v46.076a2.08,2.08,0,0,0,2.347,2.364H397.424A2.08,2.08,0,0,0,399.771,379.158Z" transform="translate(-20.771 0.5)" fill="#f7f9f9"/>
                </g>
              </g>
              <g>
                <g>
                  <rect x="381.938" y="329.545" width="164.395" height="15.333" fill="#c4c4c4"/>
                  <g>
                    <rect x="381.938" y="344.378" width="164.395" height="195.167" fill="#7ea2b4"/>
                    <g>
                      <g>
                        <rect x="394.264" y="403.28" width="140" height="51.25" fill="#39535c"/>
                        <rect x="396.761" y="405.739" width="135.006" height="46.333" fill="#7ea2b4"/>
                        <rect x="429.764" y="424.53" width="69" height="8.75" fill="#fff"/>
                      </g>
                      <g>
                        <rect x="394.063" y="354.378" width="140" height="36" fill="#39535c"/>
                        <g>
                          <rect x="396.761" y="356.763" width="66.053" height="31.458" fill="#7ea2b4"/>
                          <rect x="465.761" y="356.763" width="66.053" height="31.458" fill="#7ea2b4"/>
                          <g>
                            <path d="M450.558,376.117c6.58,0,6.953-8.25,6.953-8.25H443.6S443.978,376.117,450.558,376.117Z" transform="translate(-20.771 0.5)" fill="#fff"/>
                            <path d="M519.558,376.117c6.58,0,6.953-8.25,6.953-8.25H512.6S512.978,376.117,519.558,376.117Z" transform="translate(-20.771 0.5)" fill="#fff"/>
                          </g>
                        </g>
                      </g>
                      <g>
                        <rect x="394.264" y="468.28" width="140" height="51.25" fill="#39535c"/>
                        <rect x="396.761" y="470.739" width="135.006" height="46.333" fill="#7ea2b4"/>
                        <rect x="429.764" y="489.53" width="69" height="8.75" fill="#fff"/>
                      </g>
                    </g>
                  </g>
                </g>
                <g>
                  <rect x="381.938" y="525.544" width="164.013" height="14.001" fill="#39535c"/>
                  <rect x="394.063" y="532.044" width="140.938" height="1" fill="#f7f9f9"/>
                </g>
              </g>
            </g>
          </g>
        </g>
      </g>
    </g>
  </g>
</svg>
