<svg xmlns="http://www.w3.org/2000/svg" xmlns:xlink="http://www.w3.org/1999/xlink" viewBox="0 0 367.09 595.28"><defs><style>.cls-1,.cls-13,.cls-20,.cls-21,.cls-22,.cls-23{fill:none;}.cls-2{isolation:isolate;}.cls-15,.cls-3{fill:#ececec;}.cls-3{mix-blend-mode:multiply;}.cls-4{fill:#7b6b59;}.cls-5{fill:#5b4e40;}.cls-6{fill:#ae4f37;}.cls-7{fill:#c1573e;}.cls-8{fill:#a3897b;}.cls-9{fill:#5391a5;}.cls-10{fill:#e2b89d;}.cls-11{fill:#392d23;}.cls-12{fill:#3d3d3b;}.cls-13,.cls-20,.cls-21,.cls-22,.cls-23{stroke:#1e1e1c;stroke-miterlimit:10;}.cls-13{stroke-width:2.61px;}.cls-14{fill:#d9d9d9;}.cls-16{fill:#f5f5f5;}.cls-17{fill:#6ab2c4;}.cls-18{fill:#8fccda;}.cls-19{fill:#1e1e1c;}.cls-20{stroke-width:1.1px;}.cls-21,.cls-22{stroke-width:3.29px;}.cls-22{stroke-dasharray:1.06 3.18;}.cls-23{stroke-width:0.27px;}.cls-24{fill:#fff;}.cls-25{clip-path:url(#clip-path);}.cls-26{clip-path:url(#clip-path-2);}</style><clipPath id="clip-path"><path class="cls-1" d="M138,112.71s13.62,1.37,21.55,0c0,0-1,8-11.42,8.14C139.71,120.93,138,112.71,138,112.71Z"/></clipPath><clipPath id="clip-path-2"><path class="cls-1" d="M192.39,112.71s13.62,1.37,21.55,0c0,0-1,8-11.42,8.14C194.13,120.93,192.39,112.71,192.39,112.71Z"/></clipPath></defs><title>Монтажная область 1</title><g class="cls-2"><g id="Слой_1" data-name="Слой 1"><ellipse class="cls-3" cx="163.54" cy="523.58" rx="120.41" ry="35.49"/><path class="cls-4" d="M94.44,358.54l-34.2,186.4s3.89,3.34,10.88,0L116,362.21Z"/><path class="cls-4" d="M220.23,358.54l34.2,186.4s-3.89,3.34-10.88,0L198.7,362.21Z"/><path class="cls-5" d="M121.34,358.54,92.43,516.11s3.29,2.82,9.2,0l37.91-154.46Z"/><path class="cls-5" d="M193.33,358.54l28.91,157.56s-3.29,2.82-9.2,0L175.13,361.64Z"/><path class="cls-6" d="M240.57,345.08c-18.34-5-48.78-8.22-83.23-8.22s-64.9,3.25-83.23,8.22H55.88v11c0,10.6,45.43,19.19,101.46,19.19s101.46-8.59,101.46-19.19v-11Z"/><ellipse class="cls-7" cx="157.34" cy="345.08" rx="101.46" ry="19.19"/><path class="cls-8" d="M193.89,564.28s-2.46,9.43,3.76,12.09,29.68,8,44.38-2.67c0,0,2.44-1.66,1.21-9.52Z"/><path class="cls-9" d="M25,337.39s.59-28.79,94.28-67.63c0,0,49.4-4.09,114.81,0,0,0,29.68,12.79,19.89,105.72L195,374s-4.76-32.38-9.28-55.7-19.14-7.65-19.14-7.65S50,407.07,25,337.39Z"/><path class="cls-10" d="M126.55,88.85s-2.82,81.69,50.14,81.69,46.19-81.69,46.19-81.69,2.51-37.74-48-37.74S126.55,88.85,126.55,88.85Z"/><path class="cls-11" d="M142.33,68.57s11.27,11.22,25.91,5.89,11.83-12.65,34.36-5.89,20.56,36.31,20.56,36.31,12.68-12.65,8.73-34.06-15.77-28.73-30.42-25.91-30.42-3.38-33.8-11.27c0,0-5.13,6.7-.74,11.26,0,0-7.17-1.22-8.84-15.76,0,0-8.45,4.51-6.76,19.15,0,0-11.27-5.07-9-19.15,0,0-15.79,4.51-11.56,28.73,0,0-22.3,2.2-4.24,47C126.53,104.88,127.12,73.64,142.33,68.57Z"/><path class="cls-10" d="M223,102.51s4-12.64,12.34-6.17-14.19,26.16-14.19,26.16Z"/><path class="cls-10" d="M128,102.51s-4-12.64-12.34-6.17,14.19,26.16,14.19,26.16Z"/><path class="cls-10" d="M206.42,336.22s22.12-9.35,35.21-3.12,55.47,42.69,69.8,42.38-3.74-28.89-10.59-33.61-12.78-12.2-15.27-23.73S268.74,291.53,255.34,304s-66,4.18-66,4.18S172.66,339.94,206.42,336.22Z"/><path class="cls-8" d="M275,293.84s-2.79-1.79-7.85-.59h0s48.52,53.83,57.49,84.38a14.92,14.92,0,0,0,2.72-2.14S335.74,366.75,275,293.84Z"/><path class="cls-12" d="M267.12,293.25c-4.7,1.11-11.35,4.79-19.59,14.86,0,0,5.63-2.74,13.42,9.41s2.49,28.67,0,33c0,0,43.69,39.69,63.66,27.07-9-30.54-57.49-84.38-57.49-84.38Z"/><path class="cls-10" d="M204,508.19s6.29,32.76.47,41.39c0,0-19,21.38,2,21.38s42.76,1.64,29.6-20.56c0,0-10.28-15.31-.82-41.37C235.22,509,215.89,489,204,508.19Z"/><path class="cls-12" d="M204,541.77s13,10.69,31.1,0c0,0,12.73,16.21,6.64,26.67-6.9,11.84-42.15,8.59-46.58,2C189.42,561.76,204,541.77,204,541.77Z"/><circle class="cls-13" cx="148.1" cy="116.68" r="20.07"/><circle class="cls-13" cx="201.59" cy="116.68" r="20.07"/><path class="cls-13" d="M168.18,114.13s6.3-6.37,13.34,0"/><path class="cls-14" d="M176.88,140.48s-28-40.67-166.59-12l37.05,42.11Z"/><path class="cls-14" d="M176.88,140.48s28-40.67,166.59-12l-37.05,42.11Z"/><path class="cls-15" d="M176.88,140.48s-67.18-40.06-161.77,3.61c0,0,51.21,41.57,60.25,78.62A45.49,45.49,0,0,1,76,242c-4.22,28-6.63,50.84-6.63,50.84s60.25-23.73,107.54,4.59Z"/><path class="cls-16" d="M176.88,140.48s67.18-40.06,161.77,3.61c0,0-51.21,41.57-60.25,78.62a45.48,45.48,0,0,0-.6,19.28c4.22,28,6.63,50.84,6.63,50.84s-60.25-23.73-107.54,4.59Z"/><path class="cls-17" d="M41.13,316.44s-22.2,10.69-15.63,37,28,30.43,50.17,23,124.18-36,124.18-36,10.32-32,0-34.69C172.22,298.41,41.13,316.44,41.13,316.44Z"/><path class="cls-17" d="M226.67,335.23s-30.85-2.52-31.78,42.39,6.86,126.55,6.86,126.55,18.39,9,38.64,0l13.4-126.55S258,339.22,226.67,335.23Z"/><path class="cls-18" d="M189.3,304.62s6.53,0,6.21,37.48c0,0,7.17,5.57,12.46,0s0-35.49-5.3-39.54S190.56,298,189.3,304.62Z"/><path class="cls-18" d="M200.07,499.42s-6.47,9,1.75,15.21,32.79,4.93,39.8-1.64,0-13.57,0-13.57S216.41,509.7,200.07,499.42Z"/><path class="cls-19" d="M196.09,140.35l.43.11a4.39,4.39,0,0,1,0,1.56,2.36,2.36,0,0,1-.67,1.14,3.66,3.66,0,0,1-1.35.82c-.29.11-.66.22-1.09.34l3.31,9.06a6.79,6.79,0,0,0,1.78-1.85,6.86,6.86,0,0,0,.81-2.41l.41,0a7.64,7.64,0,0,1-.21,2.26,6.36,6.36,0,0,1-1.47,2.65,6.93,6.93,0,0,1-2.8,1.8,8.25,8.25,0,0,1-3.39.51,5.72,5.72,0,0,1-1.95-.49,5.82,5.82,0,0,1-1.76-1.23,5.46,5.46,0,0,1-1.26-2,6.23,6.23,0,0,1-.37-2.55,8.22,8.22,0,0,1,.66-2.69,12.15,12.15,0,0,1,1.2-2.06l-1.15.35a3.5,3.5,0,0,0-1.29.77,3.1,3.1,0,0,0-.89,1.24,4.64,4.64,0,0,0-.19,1.77l-.42-.08a6.41,6.41,0,0,1,.07-2.27,4.59,4.59,0,0,1,1.17-2.08,5.79,5.79,0,0,1,2.22-1.4,25.72,25.72,0,0,1,3.47-.82,26,26,0,0,0,3.42-.8,2,2,0,0,0,.85-.52A3.24,3.24,0,0,0,196.09,140.35Zm-6.71,4.71-.49.13a8.14,8.14,0,0,0-1,2.71,6.27,6.27,0,0,0,.28,3.14,5.26,5.26,0,0,0,3.56,3.34,3,3,0,0,0,.47-1.18,4.56,4.56,0,0,0-.36-1.44Zm3.57-.66q-.9.2-1.6.3l2,5.36a6,6,0,0,1,.36,1.23,1.78,1.78,0,0,1-.14.71,20.59,20.59,0,0,1-1.36,2.49,7.76,7.76,0,0,0,1.4,0,6.42,6.42,0,0,0,1.63-.35,10.85,10.85,0,0,0,1.14-.53Z"/><path class="cls-19" d="M202.24,139.4l.15.2a2.53,2.53,0,0,0-.66,1.14,3.7,3.7,0,0,0,.16,1.59l.8,3,2.25-3a3.41,3.41,0,0,1,1.49.83,4.68,4.68,0,0,1,.77,1.8l1.11,4.18a4.72,4.72,0,0,1,.22,1.82,4.53,4.53,0,0,1-1,2.09,13.79,13.79,0,0,1-3.09,2.77l-.22-.32a9.94,9.94,0,0,0,2.1-2,3,3,0,0,0,.57-1.51,13.08,13.08,0,0,0-.54-2.68l-1-3.87a2.22,2.22,0,0,0-.37-.86,2.17,2.17,0,0,0-.89-.48l-1.24,1.7,1.36,5.14.83.49-1.27,1.75-2-.89.54-.92L200,143a4.29,4.29,0,0,0-.62-1.51,1.92,1.92,0,0,0-1-.55l0-.26a3.59,3.59,0,0,1,.86.1,5.4,5.4,0,0,1,.93.39,4.55,4.55,0,0,1,.87-1.07A4.12,4.12,0,0,1,202.24,139.4Z"/><path class="cls-19" d="M212.37,140.62l3.28,2.52L212.08,147l.36,1.7,2.35.4,1.26-1.31.26.24-2.58,2.75a12.23,12.23,0,0,0-1.67-.39,13.79,13.79,0,0,0-1.8-.09l0-.23a1,1,0,0,0,.33-.55,4.15,4.15,0,0,0-.14-1.21l-1.13-5.34q.81-.5,1.34-.89T212.37,140.62ZM211.18,142l-.12.09.89,4.24,2.1-2.24Z"/><path class="cls-19" d="M226.46,134.17l4.44,1,.25-.6a2.18,2.18,0,0,1,.2-.4.23.23,0,0,1,.16-.09.21.21,0,0,1,.16,0,.22.22,0,0,1,.08.14,1.44,1.44,0,0,1-.18.56l-1.68,3.74,1.63-.29a6.43,6.43,0,0,1,1.75,0,4.94,4.94,0,0,1,1.77.55,3.85,3.85,0,0,1,1.24,1.05,2.89,2.89,0,0,1,.57,1.45,4.52,4.52,0,0,1-.93,3.09,14.88,14.88,0,0,1-4.13,3.55q-1.18-.29-2.73-.59a11.23,11.23,0,0,1-4.25,1.71,2.94,2.94,0,0,1-1.94-.33,1.58,1.58,0,0,1-.8-1.16,1.76,1.76,0,0,1,.64-1.46,3.82,3.82,0,0,1,2.29-.89,9.64,9.64,0,0,1,1.54,0l.62-1.45-1.38.26a7.3,7.3,0,0,1-1.34,0,3.9,3.9,0,0,1-1.42-.33,2.25,2.25,0,0,1-.89-.73,2.1,2.1,0,0,1-.38-1,2.18,2.18,0,0,1,.43-1.57,3.26,3.26,0,0,1,1.17-.89l0-.11a3.76,3.76,0,0,1,.56-2.11A15.09,15.09,0,0,1,226.46,134.17Zm2.15,6.29a17.06,17.06,0,0,1-2.37.44,4,4,0,0,1-1.87-.1,1.87,1.87,0,0,1-.91-.86,1.28,1.28,0,0,0-.56,1.16,1.15,1.15,0,0,0,.64.91,4.37,4.37,0,0,0,2.46.22,18,18,0,0,0,2-.37Zm-.21,6.74a12.78,12.78,0,0,0-4-.36,2,2,0,0,0-1.2.48.68.68,0,0,0-.25.59.65.65,0,0,0,.38.52,2.52,2.52,0,0,0,1.47.18A9.42,9.42,0,0,0,228.4,147.2Zm1.81-10.46a16.28,16.28,0,0,0-2.43-.73,5.19,5.19,0,0,0-1.5-.09,2.09,2.09,0,0,0-1.39.67,1.54,1.54,0,0,0-.43,1.24,1.4,1.4,0,0,0,.6,1,2.12,2.12,0,0,0,1.49.27q.64-.07,2.84-.51Zm-3.19,8.5q.92.1,1.5.2t2.09.44q2.18-1.3,2.07-2.28a.74.74,0,0,0-.33-.52,1,1,0,0,0-.71-.17,11.35,11.35,0,0,0-1.24.23q-2,.45-2.69.52Zm1.5-3.47q2.24-.48,3.12-.57a2.76,2.76,0,0,1,1.9.34,1.67,1.67,0,0,1,.78,1.24,1.85,1.85,0,0,1-.48,1.36,10.1,10.1,0,0,1-2.49,1.86l2,.29a7,7,0,0,0,1.73-1.88,3.21,3.21,0,0,0,.46-2,2.59,2.59,0,0,0-.58-1.33,2.92,2.92,0,0,0-1.42-.94,4.82,4.82,0,0,0-2.06-.18,20.34,20.34,0,0,0-2.34.44Z"/><path class="cls-19" d="M238.07,138.24l2.48-3.43.28,0,0,2.64,1.92-.1.06,1.07-1.92.1.35,6.43,1.11.73.58-.51.25.27-2,1.79a5.5,5.5,0,0,0-2.51-1.35v-.19a1.36,1.36,0,0,0,.48-.56,2.53,2.53,0,0,0,.11-1l-.3-5.47-.9,0Z"/><path class="cls-19" d="M250.82,137.15l.35.13a6,6,0,0,0-.63,1.24,3.83,3.83,0,0,0-.12,1.15l.08,4.07a3.28,3.28,0,0,0,.17,1.26.4.4,0,0,0,.35.25.47.47,0,0,0,.22-.06l.4-.34.24.29-2,1.79a3.71,3.71,0,0,1-1-1,2.87,2.87,0,0,1-.3-1.26L245.71,147a3.62,3.62,0,0,1-1.69-2.61,3.84,3.84,0,0,1,.32-1.64,10.88,10.88,0,0,1,1.57-2.37L244.73,138l.13-.25.55,0a2.68,2.68,0,0,0,2-.92,6.91,6.91,0,0,0,1.53.62,4.84,4.84,0,0,0,1.27.22.54.54,0,0,0,.3-.08A2,2,0,0,0,250.82,137.15ZM248.46,139l-3.28-.94,1.21,2.44,2.12.95Zm.05,2.84-2.33-1a5,5,0,0,0-.5,2.06,3,3,0,0,0,1.45,2.53l1.42-1.19Z"/><path class="cls-19" d="M258.36,136.86l1.41,1.76-1.47,1.25-1.17-1.55-1,.84-.12,5.55,1.07.8,1-.75.21.31L255.84,147a8.6,8.6,0,0,0-1.29-1,4.92,4.92,0,0,0-1.15-.5v-.21a1.51,1.51,0,0,0,.56-.58,3.4,3.4,0,0,0,.15-1.15l.08-3.89a2,2,0,0,0-.14-1,.45.45,0,0,0-.35-.25c-.14,0-.34.12-.6.37l-.23-.28,2-1.69a4.86,4.86,0,0,1,1.09,1.1,1.41,1.41,0,0,1,.18.8Z"/><path class="cls-19" d="M278.66,134.08a8.75,8.75,0,0,1,2.48,1.28,5.6,5.6,0,0,1,1.69,2.18,5.06,5.06,0,0,1,.38,2.56,5.66,5.66,0,0,1-.52,1.82,9.6,9.6,0,0,1-1.26,1.92q-.3.37-2.85,3.1a5.66,5.66,0,0,1,2.34-.26,4.29,4.29,0,0,1,.83.16,2.85,2.85,0,0,0,.52.13.4.4,0,0,0,.31-.12,7.28,7.28,0,0,0,.72-1l.44.23-2,2.88a7,7,0,0,0-2.09-.67,3,3,0,0,0-1.62.2,3.87,3.87,0,0,0-1.33,1.16l-.36-.24a13.86,13.86,0,0,1,1.42-2.28q1.63-2.21,2.48-3.65a7.11,7.11,0,0,0-1.49-1,4.69,4.69,0,0,0-1.48-.4,4.57,4.57,0,0,0-1.27,0,6.7,6.7,0,0,0-1.44.46l-.18,1.67a10.56,10.56,0,0,1-.39,2.17,3.45,3.45,0,0,1-.84,1.26,4.4,4.4,0,0,1-1.53,1,3.8,3.8,0,0,1-1.83.26,3.54,3.54,0,0,1-.72-.15q-.2-.06-1.16-.45l-1.07-.44a3.27,3.27,0,0,0-.56-.11,2.41,2.41,0,0,0-.81,0,3.85,3.85,0,0,0-.87.36l-.25-.27a3,3,0,0,1,2.81-1.44,8.64,8.64,0,0,1,1.72.42,5.13,5.13,0,0,0,.88.24,1.15,1.15,0,0,0,.93-.32,1.54,1.54,0,0,0,.48-1,1.91,1.91,0,0,0-.42-1.46,1.94,1.94,0,0,0-1.35-.72,2,2,0,0,0-1.22.34l-.24-.27a3.05,3.05,0,0,1,.93-.68,1.9,1.9,0,0,1,1-.13,2.12,2.12,0,0,1,.62.17,3.46,3.46,0,0,1,.64.39,2.61,2.61,0,0,0-.43-1.34,2.33,2.33,0,0,0-1.7-1,2.5,2.5,0,0,0-.76,0,2.23,2.23,0,0,0-.6.27l-.2-.36a3.56,3.56,0,0,1,1-.62,2.18,2.18,0,0,1,1-.1,2.48,2.48,0,0,1,.79.21,4.86,4.86,0,0,1,.94.65,2.53,2.53,0,0,0-.12-1.25,2.33,2.33,0,0,0-.79-.92,2.43,2.43,0,0,0-1.19-.5,1.92,1.92,0,0,0-1.13.26l-.2-.34a2.67,2.67,0,0,1,.87-.55,2.19,2.19,0,0,1,1-.13,2.68,2.68,0,0,1,.85.23,4.89,4.89,0,0,1,1,.66l.23-2.12ZM274.89,136l-1.22.45-.88,8.17a5.22,5.22,0,0,1-.5,2,3.11,3.11,0,0,1-1.23,1,2.89,2.89,0,0,0,1.46-.24,2.35,2.35,0,0,0,1-1,7.37,7.37,0,0,0,.48-2.23Zm-.22,6.13a8.39,8.39,0,0,1,1.48-.4,5,5,0,0,1,1.27,0,5,5,0,0,1,1.56.42,6.73,6.73,0,0,1,1.5,1,8.37,8.37,0,0,0,.54-1.25,5.64,5.64,0,0,0,.26-1.16,4.53,4.53,0,0,0,0-.91,8.62,8.62,0,0,1-1.88.71,4.87,4.87,0,0,1-1.56.08,5,5,0,0,1-1.35-.34,8.71,8.71,0,0,1-1.53-.86Zm.35-3.23a7.91,7.91,0,0,0,1.48.89,4.74,4.74,0,0,0,2.91.26,7.79,7.79,0,0,0,1.79-.72,4.54,4.54,0,0,0-1.57-2.38,5.11,5.11,0,0,0-4.29-1Z"/><path class="cls-19" d="M290.49,140.14l2.14,3.54-4.71,2.25-.29,1.71,2,1.23,1.65-.76.16.32-3.4,1.62a12.26,12.26,0,0,0-1.42-1,14,14,0,0,0-1.64-.74l0-.23a1,1,0,0,0,.51-.39,4.18,4.18,0,0,0,.31-1.18l.9-5.38q.94-.17,1.57-.34Zm-1.61.84-.14,0L288,145.3l2.77-1.32Z"/><path class="cls-19" d="M301,144.54l3.26-1.66a3.89,3.89,0,0,1,.9,1.35,3.16,3.16,0,0,1,0,1.6l-1.2,5.66a9.16,9.16,0,0,0-1.8.33,8.09,8.09,0,0,0-1.57.69,5.4,5.4,0,0,0-2.42-1.56,2.9,2.9,0,0,0-2.19.58,7,7,0,0,0-1.54-1.48,5.9,5.9,0,0,0-1.76-.79l0-.22a1.14,1.14,0,0,0,.7-.35,2.93,2.93,0,0,0,.43-1.18l.75-3.54a5.66,5.66,0,0,0,.16-1,1.42,1.42,0,0,0-.2-.54,3.33,3.33,0,0,1-.37-.91,2,2,0,0,1,0-.79,2.15,2.15,0,0,1,.78-1.27,5.24,5.24,0,0,1,2-.83l.12.28q-1.16.48-1.3,1.15a.91.91,0,0,0,0,.46,9.76,9.76,0,0,0,.51.94,3.37,3.37,0,0,1,.43,1.15,3.59,3.59,0,0,1,0,1l3.19-1.62a4,4,0,0,1,.89,1.26A2.9,2.9,0,0,1,301,144.54Zm-4.36-.51-1,4.8,2.14,1.48,1.08-5.09a2.77,2.77,0,0,0,.07-1.17,2.21,2.21,0,0,0-.62-.87Zm4.26,1-1,4.67,2.16,1.5,1.1-5.19a2.32,2.32,0,0,0,.07-1,3.15,3.15,0,0,0-.62-.92Z"/><path class="cls-19" d="M311.43,148.32l1.86,1.68-1,3.89a4.22,4.22,0,0,0-1.51,0,6.43,6.43,0,0,0-1.69.67,6,6,0,0,0-1-.87,3.71,3.71,0,0,0-1-.43,2.53,2.53,0,0,0-1.68.13.78.78,0,0,1-.41.1.3.3,0,0,1-.18-.15.3.3,0,0,1,0-.23c0-.07.11-.16.27-.25l.49-.33,1.11-.83,1.6-1.27-1.74-1.61.89-3.45a6,6,0,0,0,1.67-.27,4.79,4.79,0,0,0,1.3-.73,17.79,17.79,0,0,0,1.72,1.2,3.92,3.92,0,0,0,1,.39,1.31,1.31,0,0,0,.87,0,.64.64,0,0,0,.41-.4.48.48,0,0,0-.1-.38.92.92,0,0,1-.2-.72.67.67,0,0,1,.28-.42.49.49,0,0,1,.4-.08.64.64,0,0,1,.41.36.94.94,0,0,1,0,.68,2,2,0,0,1-.37.73,5.06,5.06,0,0,1-.89.81Zm-1.5,1.19-3,2.41a5.6,5.6,0,0,1,.81,0,3.64,3.64,0,0,1,.65.1,4.37,4.37,0,0,1,2,1.27l.69-2.68Zm-1.37-1.25,1.1,1,2.71-2.16a4.09,4.09,0,0,1-1.12-.1,3.91,3.91,0,0,1-2-1.33Z"/><path class="cls-20" d="M181.52,164.9s66-27.71,132.67-2"/><path class="cls-14" d="M181.52,172.13v52.3s30.83-13.75,55.65-11.34V159.53S204.68,160.08,181.52,172.13Z"/><path class="cls-21" d="M181.52,229.07l.5-.21"/><path class="cls-22" d="M185,227.66c7.45-3,25.53-9.58,39.3-10.27"/><path class="cls-21" d="M225.86,217.34h.55"/><path class="cls-23" d="M181.52,233.79s23.13-12.06,55.65-13.1"/><path class="cls-14" d="M181.52,239.08v47.42s5.67-4.47,15.88-5.44V232.46S191.29,233.64,181.52,239.08Z"/><path class="cls-14" d="M201.4,231.62v48.33a30.74,30.74,0,0,1,15.88-3.13V227.24S212.9,226.87,201.4,231.62Z"/><path class="cls-14" d="M297.42,169.44s-20.92,35-22,53.77l-17.65-2.51,9.35-59.27S286.55,165.37,297.42,169.44Z"/><path class="cls-10" d="M283.8,208.26a17.32,17.32,0,0,1,7.86,16.06c-.82,11.1-6.59,23.38-13,23.82s-10.5-6.12-12.54-14.77C264.87,227.84,266.07,196.31,283.8,208.26Z"/><path class="cls-14" d="M26.66,147s46.25,44.71,51.7,70.31l93.34,5.87V141.68S91.77,111.61,26.66,147Z"/><path class="cls-10" d="M70,208.26a17.32,17.32,0,0,0-7.86,16.06c.82,11.1,6.59,23.38,13,23.82s10.5-6.12,12.54-14.77C88.9,227.84,87.7,196.31,70,208.26Z"/><path class="cls-24" d="M138,112.71s13.62,1.37,21.55,0c0,0-1,8-11.42,8.14C139.71,120.93,138,112.71,138,112.71Z"/><g class="cls-25"><circle class="cls-11" cx="148.1" cy="119.13" r="2.46"/></g><path class="cls-24" d="M192.39,112.71s13.62,1.37,21.55,0c0,0-1,8-11.42,8.14C194.13,120.93,192.39,112.71,192.39,112.71Z"/><g class="cls-26"><circle class="cls-11" cx="202.52" cy="119.13" r="2.46"/></g></g></g></svg>