<svg xmlns="http://www.w3.org/2000/svg" viewBox="0 0 299.82 553.27"><defs><style>.cls-1{isolation:isolate;}.cls-2{fill:#9c784c;}.cls-3{fill:#91693d;}.cls-4{fill:#364259;}.cls-5{fill:#12110c;}.cls-6{fill:#d9869e;}.cls-7{fill:#7084ae;}.cls-8{fill:#7d5932;}.cls-9{fill:#e5c5a9;}.cls-10{fill:#edd1b8;}.cls-11{fill:#cc768b;}.cls-12,.cls-13{fill:#57167e;mix-blend-mode:multiply;}.cls-12{opacity:0.2;}.cls-13{opacity:0.1;}.cls-14{fill:#a28051;}.cls-15{fill:#efd7c1;}.cls-16{fill:#6bac9c;}.cls-17{fill:#211915;}.cls-18{fill:#5e4424;}.cls-19{fill:#e3bca6;}.cls-20{fill:#b27e70;}.cls-21{fill:#d7a399;}.cls-22{fill:#7e653f;}.cls-23{fill:#9f4961;}.cls-24{fill:#846241;}.cls-25{fill:#49786b;}.cls-26{fill:#445470;}.cls-27{fill:#4c3825;}.cls-28{fill:#fff;opacity:0.3;mix-blend-mode:soft-light;}.cls-29{fill:#546584;}</style></defs><title>Ресурс 11</title><g class="cls-1"><g id="Слой_2" data-name="Слой 2"><g id="Слой_1-2" data-name="Слой 1"><path class="cls-2" d="M61.89,206l.17.46c-4.18,1.93-28.51,15.1-22.71,56.31l.32,1.58c-2.43-.36-6.64,0-11,4.21-3.93,3.79-4.12,11.71-.73,18l-.15.08c-11,10.6-27.52,5-27.52,5,26.94-14.64-21.1-68.18,11.63-98.18C38.4,169.18,61.89,206,61.89,206Z"/><path class="cls-3" d="M3.47,289.42a17.36,17.36,0,0,1-3.18,2.2s16.56,5.58,27.52-5l.15-.08a19.9,19.9,0,0,1-2.37-9.59C20.85,285.22,12.35,289,3.47,289.42Z"/><path class="cls-2" d="M61.3,205.08c-3.78-5.41-25.35-33.66-49.38-11.64-31.26,28.66,11.15,78.78-8.45,96,8.88-.4,17.38-4.2,22.12-12.48.05-3.38,1.06-6.46,3.1-8.42h0c0-.21.11-.4.15-.61C34.24,244.5,32.88,209.26,61.3,205.08Z"/><path class="cls-3" d="M61.3,205.08c-28.42,4.17-27.06,39.41-32.46,62.82,0,.21-.11.4-.15.61,4.35-4.19,8.55-4.57,11-4.2l-.32-1.58c-5.81-41.22,18.53-54.38,22.71-56.31l-.17-.46S61.69,205.63,61.3,205.08Z"/><path class="cls-4" d="M234,540.53s1.74,5.19-.57,8.09c-2.8,3.51-27.38,6.67-28.93,3.07S213.19,540,213.19,540C216.66,543.42,234,540.53,234,540.53Z"/><path class="cls-4" d="M172.76,537.06s2.51,8,.78,9.43-27.92,3.85-29.07.1,9.52-9.52,9.52-9.52l.27-.34C156.61,538.06,163.39,539.23,172.76,537.06Z"/><path class="cls-5" d="M129.45,538.21s9.22,3.85,6.82,6.46c-3,3.24-15.94,1.26-18.15-1-.48-.48-1.05-2.19-1.7-4.79l.63-.17S125.93,540.53,129.45,538.21Z"/><path class="cls-5" d="M76.89,541.11s9,4.23,6.55,6.74c-3.1,3.1-16,.58-18.11-1.74-.44-.48-.94-2.2-1.5-4.87l.63-.13S73.29,543.27,76.89,541.11Z"/><path class="cls-6" d="M164,343.65c-2.24.77-4.54,1.47-6.9,2.15-7.24-7-9.18-25.29-9.18-25.29,2.22-1.09,4.37-2.24,6.44-3.47C155,319.89,158.83,337.94,164,343.65Z"/><path class="cls-7" d="M154.36,317c-2.07,1.23-4.22,2.38-6.44,3.47,0,0-10-1.17-17-.38l-.08-.79c.38-2.3,4.52-8.09,4.52-8.09s9,4.14,22.63,3.49Q156.26,315.91,154.36,317Z"/><path class="cls-8" d="M125,86.17l0,.23a126.89,126.89,0,0,0-2.74,30.2l-.34,0s-12.7-9.52-21.36,4.62c-7.7,12.57,3.76,37.84,28.88,29.16l.17-.08c7,14.64,20.14,26.94,43.9,30.41.54.08,1.05.15,1.57.19l0,.19s-.73,4.33-1.21,8.89l-.33,0c-65.74-3-99-30.6-99-30.6S85.55,34,138.12,12.09c43.94-18.36,72.18,8.66,72.18,8.66s17.72-8.32,39.86,2.89c44.47,22.51,49.67,135.72,49.67,135.72s-30.68,27.28-96.25,31l-.27,0a32.2,32.2,0,0,1,.65-10c19.45-4,32.12-15.48,39.51-29.76l.17.08c25.14,8.68,36.58-16.59,28.88-29.16-7.45-12.17-17.92-6.8-20.68-5.08a88.62,88.62,0,0,0-.54-12.65c-40.56-19.68-43.8-68.37-43.9-70.11C200.91,42.2,167.89,82.74,125,86.17Z"/><path class="cls-9" d="M272.51,121.53c7.7,12.57-3.74,37.84-28.88,29.16l-.17-.08c5.46-10.52,8-22.53,8.37-34.16C254.6,114.72,265.06,109.36,272.51,121.53Z"/><path class="cls-10" d="M251.84,116.45c-.33,11.63-2.91,23.64-8.37,34.16-7.4,14.28-20.06,25.79-39.51,29.76a86.23,86.23,0,0,1-28.86.56c-.52,0-1-.12-1.57-.19-23.76-3.47-36.89-15.77-43.9-30.41-5.19-10.84-7-23-7.34-33.72A126.89,126.89,0,0,1,125,86.4l0-.23c42.88-3.43,75.9-44,82.39-52.48.1,1.74,3.33,50.43,43.9,70.11A88.62,88.62,0,0,1,251.84,116.45Z"/><path class="cls-11" d="M244.08,262.94c-4.16,17.82-11.52,47-16.25,53.31,0,0-6.92,1.93-20,2.32A125.72,125.72,0,0,0,244.08,262.94Z"/><path class="cls-7" d="M171.69,359.38l-.08,1.15s4.26,175.83,1.15,176.53c-9.37,2.17-16.15,1-18.49-.34a1.9,1.9,0,0,1-.84-.8c-1.53-4.08-12.28-73.06-13-77.37,9.54-1.93,24.85-6.92,25.37-19.08,0,0-31.2-76.23-33.5-88.93l.19-1.55a46.64,46.64,0,0,0,20.88-2.2q1.87-.46,3.68-1c2.36-.67,4.66-1.38,6.9-2.15a126,126,0,0,0,43.86-25.08c13-.38,20-2.32,20-2.32s11.94,24.26,11.94,43.52c0,27.76-5.79,180.77-5.79,180.77s-17.32,2.89-20.79-.57c-3.18-3.18-32.34-180.19-32.34-180.19A62,62,0,0,1,171.69,359.38Z"/><path class="cls-12" d="M202.06,323.35A127.16,127.16,0,0,1,164,343.65c-2.24.77-4.54,1.47-6.9,2.15q-1.81.52-3.68,1a46.64,46.64,0,0,1-20.88,2.2l-.19,1.55a55.87,55.87,0,0,0,1.65,6.07C160,356.14,185.58,343,202.06,323.35Z"/><path class="cls-7" d="M227.83,316.25s-6.92,1.93-20,2.32c-1.86,1.64-3.81,3.23-5.81,4.79C185.58,343,160,356.14,134,356.59c6.95,22,31.84,82.86,31.84,82.86-.52,12.17-15.83,17.15-25.37,19.08.67,4.31,11.42,73.29,13,77.37a1.9,1.9,0,0,0,.84.8c2.23,1.28,8.52,2.36,17.21.6-14.73-58.45,2.18-119.7-6.59-179.35,2.78,0,4.56,2,6.79,1.65v-.23l.63.06a6,6,0,0,0,2.15-1.48,6,6,0,0,1-2.15,1.48,61.44,61.44,0,0,0,8.53.32S210,536.78,213.19,540c3.47,3.47,20.79.57,20.79.57s5.79-153,5.79-180.77C239.77,340.5,227.83,316.25,227.83,316.25Z"/><path class="cls-12" d="M164.88,358c8.77,59.65-8.13,120.9,6.59,179.35.43-.09.84-.15,1.28-.25,3.1-.71-1.15-176.53-1.15-176.53l.06-.92C169.44,360,167.67,358,164.88,358Z"/><path class="cls-10" d="M173.45,197a60.48,60.48,0,0,1,.42-7c.48-4.56,1.21-8.89,1.21-8.89l0-.19a86.23,86.23,0,0,0,28.86-.56,32.2,32.2,0,0,0-.65,10,50.09,50.09,0,0,0,.71,5.92c.1.57.21,1.17.33,1.76,0,0-3,6.65-16.84,6.34-9.81-.19-13.57-4.43-13.57-4.43A7.21,7.21,0,0,1,173.45,197Z"/><path class="cls-13" d="M203.45,183.16a19.39,19.39,0,0,1,.5-2.79,86.23,86.23,0,0,1-28.86.56l0,.19s-.61,3.67-1.09,7.81C184.22,189.11,194.78,190.42,203.45,183.16Z"/><path class="cls-14" d="M41.5,264.15l.25.84a5.62,5.62,0,0,0-2.32-.86l-.08-1.4c-5.81-41.22,18.53-54.38,22.71-56.31a6.24,6.24,0,0,1,.6-.27s.77-12.32,18.09-17.32c14.81-4.27,40.93-3.72,58.5,11.17a46.17,46.17,0,0,1,8.1,8.85c7.32,10.39,6.06,18.45,7.32,19.62,2.7,2.51,7.7.38,8.09,2.7.31,1.82-5.57,9.89-19.77,11.69a51.21,51.21,0,0,1-13.34-.13c-36.77-4.81-57.75-32.34-57.75-32.34S71.13,255.69,41.5,264.15Z"/><path class="cls-11" d="M243.22,206.72c-14.24-16.36-38.11-10.6-38.11-10.6l-1.09.17c.1.57.21,1.17.33,1.76,0,0-3,6.65-16.84,6.34-9.81-.19-13.57-4.43-13.57-4.43a7.21,7.21,0,0,1-.48-2.93c-3.08-1.53-20.54-9.29-34.18,2.93l0,0a46.17,46.17,0,0,1,8.1,8.85c7.32,10.39,6.06,18.45,7.32,19.62,2.7,2.51,7.7.38,8.09,2.7.31,1.82-5.57,9.89-19.77,11.69l0,.25,1.42,16.19.42,4.79s6.09,4.64,6.53,14.43a23.24,23.24,0,0,1-.52,6c-1.55,7.61-6.69,15.77-15.75,21.81l.19.29.1,4.64s9,4.14,22.63,3.49q-1.78,1.18-3.68,2.3c.59,2.86,4.46,20.91,9.64,26.62a124.49,124.49,0,0,0,80.08-80.71C252.13,238,250.69,215.3,243.22,206.72Z"/><path class="cls-10" d="M119.8,335.31c-2.2-.84-3.3-2.09-3-3.28.57-2.68,12.84-2.3,17.13-3.41l.06-.33c-2.47-1-11.27-1-9.26-5.63.63-1.46,3.14-2.2,6.29-2.55,6.94-.79,17,.38,17,.38s1.93,18.28,9.18,25.29q-1.81.52-3.68,1a46.64,46.64,0,0,1-20.88,2.2c-1.36-.17-2.63-.38-3.77-.63-4-.86-6.8-2.15-7.55-3-1.86-2.17-.13-2.89-.13-2.89l.13-.44c-2.24-.59-3.83-1.4-4-2.3a3.39,3.39,0,0,1,1.44-3.37,6.17,6.17,0,0,1,1-.67Z"/><path class="cls-15" d="M41.75,265l-.25-.84c29.62-8.45,30.39-53.77,30.39-53.77s21,27.53,57.75,32.34a51.21,51.21,0,0,0,13.34.13l0,.25,1.42,16.19.42,4.79s6.09,4.64,6.53,14.43a23.24,23.24,0,0,1-.52,6c-1.55,7.61-6.69,15.77-15.75,21.81-6.09,4.1-14,7.22-23.78,8.56a86.78,86.78,0,0,1-19.14.4,59.18,59.18,0,0,1-8-1.21,49.29,49.29,0,0,1-16.65-6.88,50.32,50.32,0,0,1-14.29-14.08c-12.93,5.65-21.46.59-25.31-6.59-3.39-6.3-3.2-14.22.73-18,4.35-4.2,8-4.77,10.44-4.41A7.41,7.41,0,0,1,41.75,265Z"/><path class="cls-16" d="M140.47,458.54c-2.66.54-4.89.84-6.21,1l-1.34.13c-8.78,5.86-18.55,8-27.73,8.09a78.86,78.86,0,0,1-20.87-2.59A83.58,83.58,0,0,1,70,460.24a67,67,0,0,1-15.88-.33c-14.81-2.17-22.61-9.29-25.7-12.38-4-4,23.09-81.7,23.09-81.7l.21-.08c2.8,7.76,8.34,13.76,17.49,14.79,21.71,2.43,50.84-20,59.54-32.06l0-.15c1.15.25,2.41.46,3.77.63l-.19,1.55c2.3,12.7,33.5,88.93,33.5,88.93C165.33,451.62,150,456.6,140.47,458.54Z"/><path class="cls-13" d="M101,371.65c-10.36,5.92-21.84,10-31.76,8.9-9.16-1-14.7-7-17.49-14.79l-.21.08s-1.43,4.09-3.58,10.43C61.16,395.69,85.88,383.83,101,371.65Z"/><path class="cls-13" d="M133.94,356.42a54.53,54.53,0,0,1-1.6-5.89l.19-1.55c-1.36-.17-2.63-.38-3.77-.63l0,.15a53.08,53.08,0,0,1-5.15,5.94A14.72,14.72,0,0,0,133.94,356.42Z"/><path class="cls-13" d="M69.79,460.25H70a83.58,83.58,0,0,0,14.35,4.93A86.82,86.82,0,0,0,93.49,467c-14.88-19.73-15.17-47.47-16.75-72.63C73.08,416.33,74.65,438.29,69.79,460.25Z"/><path class="cls-13" d="M117,390.53c3.64,23.66,12.45,45.59,16.61,69.07l.67-.07c1.32-.15,3.55-.46,6.21-1,6.76-1.37,16.41-4.29,21.64-10.2C141.17,437,130.58,409.23,117,390.53Z"/><path class="cls-15" d="M134.26,459.53l-4.81,78.68c-3.53,2.32-12.4.54-12.4.54l-.63.17c-4.23-16.84-11.23-71.17-11.23-71.17,9.18-.13,19-2.22,27.73-8.09Z"/><path class="cls-16" d="M74.23,354.63c-3.32.5-7.15-3.91-7.15-3.91s-2.61,7.32-7.22,7.61-6.34-4-6.34-4a12.37,12.37,0,0,1-3.72,3.51,2.62,2.62,0,0,1-3.51-.63c-2.89-3.45-2-18.91,7.36-27.86,2.4,5.36,7,9.79,9.79,8.72a3.87,3.87,0,0,0,2.49-3.1l0-.08a4.29,4.29,0,0,0,1.19.5c3,.73,4.35-2.72,4.35-2.72l.31-.27a2.61,2.61,0,0,0,1.63,1.05c5.71-.11-.19-9.83,1.84-14.85l.17.08a18.84,18.84,0,0,1,8.95,1.28,17.88,17.88,0,0,0,14.83,6.75c9.81-.38,12.32-4.81,12.32-4.81a16.65,16.65,0,0,1,19.33-2.51l.08.79c-3.14.34-5.65,1.09-6.29,2.55-2,4.62,6.78,4.62,9.26,5.63l-.06.33c-4.29,1.11-16.56.73-17.13,3.41-.25,1.19.84,2.43,3,3.28l-.15.35a6.17,6.17,0,0,0-1,.67l-.42-.54A175,175,0,0,1,74.42,355.3Z"/><path class="cls-9" d="M129.63,150.33l-.17.08c-25.12,8.68-36.58-16.59-28.88-29.16,8.66-14.14,21.36-4.62,21.36-4.62l.34,0C122.59,127.35,124.43,139.48,129.63,150.33Z"/><path class="cls-15" d="M74.42,355.3a175,175,0,0,0,43.76-19.51l.42.54a3.39,3.39,0,0,0-1.44,3.37c.21.9,1.8,1.71,4,2.3l-.13.44s-1.72.73.13,2.89c.75.86,3.51,2.15,7.55,3l0,.15c-8.7,12-37.83,34.49-59.54,32.06-9.16-1-14.7-7-17.49-14.79a36.44,36.44,0,0,1-1.9-8,12.37,12.37,0,0,0,3.72-3.51s1.73,4.33,6.34,4,7.22-7.61,7.22-7.61,3.83,4.41,7.15,3.91Z"/><path class="cls-15" d="M111.37,315.1l.19,6.75s-2.51,4.43-12.32,4.81a17.88,17.88,0,0,1-14.83-6.75l-.19-5.83a59.18,59.18,0,0,0,8,1.21,86.78,86.78,0,0,0,19.14-.4Z"/><path class="cls-13" d="M111.46,318.29l-.09-3.19,0-.21a86.78,86.78,0,0,1-19.14.4,59.18,59.18,0,0,1-8-1.21l.09,2.66C93.18,321.09,102.77,320.73,111.46,318.29Z"/><path class="cls-10" d="M75.29,318.54c-2,5,3.87,14.74-1.84,14.85a2.61,2.61,0,0,1-1.63-1.05l-.31.27s-1.38,3.45-4.35,2.72a4.29,4.29,0,0,1-1.19-.5l0,.08a3.87,3.87,0,0,1-2.49,3.1c-2.78,1.07-7.4-3.35-9.79-8.72a15.62,15.62,0,0,1-1.51-7.4c1.09-14.1,15.23-14.41,15.23-14.41l.19-.29a49.29,49.29,0,0,0,16.65,6.88l.19,5.83a18.84,18.84,0,0,0-8.95-1.28Z"/><path class="cls-12" d="M84.3,316.74l-.09-2.66a49.29,49.29,0,0,1-16.65-6.88l-.19.29s-.44,0-1.14.1A28.71,28.71,0,0,0,84.3,316.74Z"/><path class="cls-15" d="M84.33,465.17l-.11.48-7.32,75.46c-3.6,2.17-12.42,0-12.42,0l-.63.13C60,522.84,54.09,460,54.09,460v0a67,67,0,0,0,15.88.33A83.58,83.58,0,0,0,84.33,465.17Z"/><path class="cls-15" d="M134.26,459.53l-4.81,78.68c-3.53,2.32-12.4.54-12.4.54l-.63.17c-4.23-16.84-11.23-71.17-11.23-71.17,9.18-.13,19-2.22,27.73-8.09Z"/><path class="cls-15" d="M84.33,465.17l-.11.48-7.32,75.46c-3.6,2.17-12.42,0-12.42,0l-.63.13C60,522.84,54.09,460,54.09,460v0a67,67,0,0,0,15.88.33A83.58,83.58,0,0,0,84.33,465.17Z"/><path class="cls-13" d="M133.69,469l.58-9.42-1.34.13c-8.78,5.86-18.55,8-27.73,8.09l.28,2.16A65.78,65.78,0,0,0,133.69,469Z"/><path class="cls-13" d="M84.33,465.17A83.58,83.58,0,0,1,70,460.24a67,67,0,0,1-15.88-.33v0l.21,2.21c10.26,3.14,19.51,7.06,29.54,7.28l.37-3.8Z"/><circle class="cls-17" cx="215.11" cy="116.82" r="6.16"/><path class="cls-17" d="M216.94,111.79a8.4,8.4,0,0,0,4.15-.51c1.81-.79,2.63-2.49,3.42-1.71s-1,6.14-5.65,5.4S216.94,111.79,216.94,111.79Z"/><circle class="cls-17" cx="154.62" cy="114.51" r="6.16"/><path class="cls-17" d="M152.8,109.48a8.44,8.44,0,0,1-4.15-.51c-1.8-.79-2.63-2.49-3.42-1.71s1,6.14,5.65,5.4S152.8,109.48,152.8,109.48Z"/><path class="cls-18" d="M143.21,93.14c-.84-1.14,2.37-5,6.55-7.32s9.55-3,11-.06-3.84,4.45-9.37,6.09C147.29,93,144.63,95,143.21,93.14Z"/><path class="cls-18" d="M224.54,94.87c.84-1.13-2.37-5-6.55-7.31s-9.55-3-11-.06,3.84,4.45,9.37,6.09C220.46,94.78,223.13,96.77,224.54,94.87Z"/><ellipse class="cls-19" cx="182.15" cy="118.79" rx="8.52" ry="6.43"/><path class="cls-20" d="M188.44,123.76l-.92.68a7,7,0,0,1-1.24.67,7.3,7.3,0,0,1-1.74.6,11.05,11.05,0,0,1-4.49.2,10.77,10.77,0,0,1-2.56-.75,5.55,5.55,0,0,1-1.21-.62,5,5,0,0,1-1.13-.81,7.4,7.4,0,0,1-1.75-2.21,10.8,10.8,0,0,1-.49-1.34l-.17-1.39a7.05,7.05,0,0,1,.18-1.27,5.69,5.69,0,0,1,.48-1.26,6.73,6.73,0,0,1,1.36-1.81,7.58,7.58,0,0,1,1.49-1.11c.48-.27.92-.45,1.27-.61l1.16-.36a.5.5,0,0,1,.36.93l-.06,0-1,.47a8.24,8.24,0,0,0-2.17,1.7,5.1,5.1,0,0,0-.95,1.46,4.37,4.37,0,0,0-.26.8c-.07.24-.07.82-.11,1l.15,1c.08.32.26.61.37.93a5.58,5.58,0,0,0,1.35,1.61,4.51,4.51,0,0,0,.88.65,4.14,4.14,0,0,0,1,.53,9.13,9.13,0,0,0,2,.66,18,18,0,0,0,2.11.23,10.11,10.11,0,0,0,1.86-.14,9,9,0,0,0,1.52-.35,5.49,5.49,0,0,0,1.14-.43l1-.53a.51.51,0,0,1,.54.86Z"/><path class="cls-20" d="M105,125.75a14,14,0,0,1,2.87-.27,16.9,16.9,0,0,1,2.95.24,17.73,17.73,0,0,1,3.3.9,15.06,15.06,0,0,1,1.58.77,11,11,0,0,1,1.44.92,7.17,7.17,0,0,1,1.21,1,8.06,8.06,0,0,1,1,1.06,8.48,8.48,0,0,1,1.13,1.8l.35.72a.5.5,0,0,1-.84.54l0-.06-.46-.57-.51-.66-.75-.76a6.71,6.71,0,0,0-.94-.83,9.79,9.79,0,0,0-1.13-.81,9.28,9.28,0,0,0-1.29-.76,13.39,13.39,0,0,0-1.42-.63,18.48,18.48,0,0,0-3-.91c-1-.21-1.89-.39-2.69-.49-1.61-.2-2.68-.25-2.68-.25a.51.51,0,0,1-.49-.53A.52.52,0,0,1,105,125.75Z"/><path class="cls-20" d="M268,127s-1.07,0-2.68.25c-.8.1-1.72.27-2.69.49a18.38,18.38,0,0,0-2.95.91,13.24,13.24,0,0,0-1.42.63,9.3,9.3,0,0,0-1.29.75,9.54,9.54,0,0,0-1.13.81,6.6,6.6,0,0,0-.94.83l-.75.76-.51.66-.46.57,0,.06a.5.5,0,0,1-.84-.54l.35-.72a8.48,8.48,0,0,1,1.13-1.8,8.16,8.16,0,0,1,1-1.06,7.22,7.22,0,0,1,1.21-1,11.06,11.06,0,0,1,1.44-.92,15.08,15.08,0,0,1,1.58-.77,17.82,17.82,0,0,1,3.3-.9,16.9,16.9,0,0,1,2.95-.24,14,14,0,0,1,2.87.27.51.51,0,0,1-.09,1Z"/><circle class="cls-21" cx="145.48" cy="139.11" r="17.15"/><circle class="cls-21" cx="220.45" cy="140.33" r="17.15" transform="translate(78.56 359.78) rotate(-89.59)"/><path class="cls-17" d="M155.52,129.39s.15.21.42.53.74.84,1.32,1.47a36.22,36.22,0,0,0,5.4,4.59,31.45,31.45,0,0,0,4,2.42,22.5,22.5,0,0,0,2.33,1.07,23,23,0,0,0,2.49,1,21.73,21.73,0,0,0,2.65.78,25.83,25.83,0,0,0,2.76.6,40.6,40.6,0,0,0,5.69.59h3.05c1,0,1.89-.15,2.83-.21s1.87-.26,2.79-.39a20.35,20.35,0,0,0,2.69-.59,21.75,21.75,0,0,0,2.54-.77,17.53,17.53,0,0,0,2.37-.93,17.34,17.34,0,0,0,2.15-1.08,18,18,0,0,0,1.92-1.18,26,26,0,0,0,5.25-4.6c.54-.65,1-1.17,1.21-1.53l.36-.54.06-.08a1,1,0,0,1,1.76,1s-.13.29-.36.74a18.56,18.56,0,0,1-1.14,1.87,26,26,0,0,1-2.12,2.64,23.43,23.43,0,0,1-3.24,3,30.7,30.7,0,0,1-7,4,18.43,18.43,0,0,1-2.8,1,23.29,23.29,0,0,1-3,.75,26.24,26.24,0,0,1-3.11.51c-1.06.09-2.17.23-3.21.26l-3.06,0a39.71,39.71,0,0,1-6.39-.7,23.6,23.6,0,0,1-3-.72,25.21,25.21,0,0,1-2.9-1,29.7,29.7,0,0,1-5.21-2.5,34.65,34.65,0,0,1-4.25-2.93,31.72,31.72,0,0,1-5.37-5.49c-.57-.74-1-1.36-1.24-1.78l-.4-.68a1,1,0,0,1,1.68-1.12Z"/><path class="cls-8" d="M208.86,9.49c2.27-.51,0-11.26-4-9.24S206.26,10.07,208.86,9.49Z"/><path class="cls-8" d="M218.67.25c-2.65-1.63-7.51,6.64-5.77,9S222.43,2.56,218.67.25Z"/><path class="cls-20" d="M31.65,274.93a7.94,7.94,0,0,1,2-1.69,8.85,8.85,0,0,1,2.5-1.08,8.31,8.31,0,0,1,1.58-.18,6.14,6.14,0,0,1,1.65.16,10,10,0,0,1,1.55.58c.45.29.93.54,1.32.86s.72.67,1,1l.77,1a10.13,10.13,0,0,1,.93,1.59l.3.62a.5.5,0,0,1-.83.56l0,0L44,277.8a14.57,14.57,0,0,0-1.11-1.27l-.77-.78c-.3-.24-.64-.46-.95-.73s-.7-.41-1.06-.63a7.93,7.93,0,0,0-1.18-.38,5.47,5.47,0,0,0-1.22-.16,6.52,6.52,0,0,0-1.21.08c-.39.12-.78.16-1.14.29a7.7,7.7,0,0,0-1,.38,12.89,12.89,0,0,0-2,1.08.51.51,0,0,1-.7-.72Z"/><path class="cls-22" d="M84,235.52c-.91-2.14-5.93-1.91-9-.44-5.22,2.54-6.82,7-6,8.53,1.24,2.21,4.21-1.47,8-2.9S85.34,238.67,84,235.52Z"/><path class="cls-17" d="M83.52,272.74l.19.35c.13.23.35.55.64,1a16.37,16.37,0,0,0,2.84,3,17.65,17.65,0,0,0,5,2.87,20.08,20.08,0,0,0,3.16.89l1.68.26,1.72.12a23.89,23.89,0,0,0,3.45,0,19.94,19.94,0,0,0,3.24-.49,19.65,19.65,0,0,0,2.91-1,14.25,14.25,0,0,0,2.39-1.33,12.71,12.71,0,0,0,3-2.81,8.31,8.31,0,0,0,.82-1.28.5.5,0,0,1,.94.36l-.18.45a8.66,8.66,0,0,1-.6,1.13,13,13,0,0,1-3,3.36,16.05,16.05,0,0,1-5.75,2.8,21.87,21.87,0,0,1-3.56.6,25.83,25.83,0,0,1-3.66.09l-1.85-.15L95,282.63a21.92,21.92,0,0,1-3.45-1,17.43,17.43,0,0,1-5.39-3.4,13.7,13.7,0,0,1-3.59-5.05.51.51,0,0,1,.92-.4Z"/><circle class="cls-11" cx="68.75" cy="282.92" r="14.24"/><circle class="cls-11" cx="132.09" cy="284.42" r="14.24"/><path class="cls-17" d="M68.87,252.58l0,.33.14.92a17.41,17.41,0,0,0,.86,3.18,9.06,9.06,0,0,0,.94,1.88,4.83,4.83,0,0,0,.66.88,5.26,5.26,0,0,0,.78.79,6.67,6.67,0,0,0,2,1.12c.37.12.78.19,1.16.29s.83.05,1.25.1l.21,0,.36,0,.73,0a5,5,0,0,0,1.17-.22,5.81,5.81,0,0,0,2-.94,6.48,6.48,0,0,0,1.41-1.6,7.7,7.7,0,0,0,.85-1.88,14.77,14.77,0,0,0,.64-3.21c.07-.81.07-1.24.07-1.25h0a.76.76,0,0,1,1.5-.17,10.57,10.57,0,0,1,.19,1.43,13.94,13.94,0,0,1,0,1.64,10.25,10.25,0,0,1-.25,2.15,10,10,0,0,1-.86,2.51A8,8,0,0,1,82.86,263a8.22,8.22,0,0,1-3,1.59,8.78,8.78,0,0,1-1.67.32l-.73.06-.36,0a2.91,2.91,0,0,1-.52,0c-.55,0-1.11-.07-1.66-.16s-1.1-.26-1.64-.44a8.51,8.51,0,0,1-2.83-1.76,8.19,8.19,0,0,1-1.81-2.44,11.47,11.47,0,0,1-.93-2.44,14.35,14.35,0,0,1-.46-3.74,9.94,9.94,0,0,1,0-1.05l0-.37a.76.76,0,0,1,1.51,0Z"/><path class="cls-17" d="M67.75,265.15a1,1,0,0,1-.77-1.53l2.6-3.54a1,1,0,1,1,1.55,1.13l-2.6,3.54A1,1,0,0,1,67.75,265.15Z"/><path class="cls-17" d="M76.16,269.12h-.1a1,1,0,0,1-.85-1.05l.45-4.37a1,1,0,0,1,1.91.2l-.45,4.37A1,1,0,0,1,76.16,269.12Z"/><path class="cls-17" d="M85.21,266.16a1,1,0,0,1-.8-.42L82,262.09A1,1,0,1,1,83.57,261L86,264.67a1,1,0,0,1-.8,1.49Z"/><path class="cls-17" d="M134.16,252.79l.06.37a10,10,0,0,1,.1,1,14.38,14.38,0,0,1-.26,3.76,11.56,11.56,0,0,1-.8,2.49,8.16,8.16,0,0,1-1.68,2.53,8.54,8.54,0,0,1-2.72,1.91c-.52.22-1.07.36-1.61.53s-1.09.18-1.64.25a3,3,0,0,1-.51,0h-.36l-.73,0a8.66,8.66,0,0,1-1.68-.24,8.2,8.2,0,0,1-3.07-1.43,8,8,0,0,1-2-2.37,10.09,10.09,0,0,1-1-2.46,10.22,10.22,0,0,1-.36-2.13,13.64,13.64,0,0,1-.05-1.64,10.57,10.57,0,0,1,.12-1.44.76.76,0,0,1,1.51.09h0s0,.44.14,1.24a14.86,14.86,0,0,0,.81,3.17,7.75,7.75,0,0,0,.95,1.83,6.54,6.54,0,0,0,1.5,1.52,5.82,5.82,0,0,0,2,.83,5,5,0,0,0,1.18.16h1.09l.21,0c.41-.07.84-.09,1.24-.17s.78-.21,1.15-.35a6.68,6.68,0,0,0,1.9-1.23,5.28,5.28,0,0,0,.74-.83,4.75,4.75,0,0,0,.62-.91,9.07,9.07,0,0,0,.84-1.93,17.54,17.54,0,0,0,.69-3.22l.09-.93c0-.22,0-.33,0-.33v0a.76.76,0,0,1,1.51-.07Z"/><path class="cls-17" d="M134.38,265.4a1,1,0,0,1-.74-.35l-2.78-3.4a1,1,0,0,1,1.48-1.21l2.78,3.4a1,1,0,0,1-.74,1.56Z"/><path class="cls-17" d="M126.2,269.82a1,1,0,0,1-.95-.81l-.68-4.34a1,1,0,1,1,1.89-.3l.68,4.34a1,1,0,0,1-.8,1.1Z"/><path class="cls-17" d="M117,267.35a1,1,0,0,1-.82-1.45l2.24-3.77a1,1,0,0,1,1.65,1l-2.24,3.77A1,1,0,0,1,117,267.35Z"/><ellipse class="cls-19" cx="101.01" cy="265.05" rx="6.5" ry="4.79"/><path class="cls-20" d="M106.69,261.95l.47.43a4,4,0,0,1,.51.66,3.79,3.79,0,0,1,.48,1,4,4,0,0,1,.16,1.38c0,.2,0,.4,0,.6a4.1,4.1,0,0,1-.25.77,5,5,0,0,1-.83,1.41A7,7,0,0,1,106,269.3a7.47,7.47,0,0,1-1.37.71,6.59,6.59,0,0,1-1.4.43,5,5,0,0,1-1.35.16h-1l-.26,0a7.29,7.29,0,0,1-1.69-.39c-.42-.14-.65-.24-.65-.24a.5.5,0,0,1,.21-1h.09l.57,0c.18,0,.38.06.64.06s.6,0,.94,0H101s.13,0,.19,0l.51-.08a6.43,6.43,0,0,0,1.08-.25,4.92,4.92,0,0,0,1.09-.39,5.63,5.63,0,0,0,1-.58,7.54,7.54,0,0,0,.85-.73,3.41,3.41,0,0,0,.55-.81c.05-.14.15-.2.19-.4l.12-.59a2.42,2.42,0,0,0,0-.8,6.12,6.12,0,0,0-.18-.72,2.24,2.24,0,0,0-.24-.56l-.33-.54a.51.51,0,0,1,.78-.64Z"/><path class="cls-16" d="M58.82,206.57l.07-.13,0-.07a.79.79,0,0,0-.13.22.81.81,0,0,0-.06.31.67.67,0,0,0,0,.16h0a4.27,4.27,0,0,0-.53-.81,17.62,17.62,0,0,0-4.06-3.59,25.87,25.87,0,0,0-6.84-3.35,8.28,8.28,0,0,0-3.36-.37,2.4,2.4,0,0,0-.86.34,2,2,0,0,0-.28.32.69.69,0,0,0-.14.22l-.08.13,0,.06,0,0h0l.08-.19-.23.56-.06.14s0,0,0,0h0s0,.15,0,.21a1.56,1.56,0,0,0,.31.79,9.16,9.16,0,0,0,2.72,2.21,25.35,25.35,0,0,0,7.16,2.59,18.37,18.37,0,0,0,3.06.38,9.73,9.73,0,0,0,2.25-.12,3.82,3.82,0,0,0,1.09-.32l.16-.09Zm2.4,1.8a4.69,4.69,0,0,1-.78.59,6.64,6.64,0,0,1-2,.72,19.34,19.34,0,0,1-2.83.31c-1.07.06-2.25,0-3.53,0a29.47,29.47,0,0,1-8.76-1.76,12.2,12.2,0,0,1-4.87-3.11,6.79,6.79,0,0,1-1.7-3.5,4.55,4.55,0,0,1-.07-1.07,4.65,4.65,0,0,1,.12-1.13l.14-.59.08-.28.05-.14.21-.57.11-.25,0-.05.05-.1.11-.2.22-.4a4.25,4.25,0,0,1,.55-.77,7.55,7.55,0,0,1,1.44-1.37,7.31,7.31,0,0,1,3.61-1.27,11.39,11.39,0,0,1,5.75,1.26,30,30,0,0,1,7.32,5.14,34.69,34.69,0,0,1,4.27,4.6,5.48,5.48,0,0,1,1,2.05l0,.13a2.47,2.47,0,0,1,0,.29,2.5,2.5,0,0,1-.06.55,2.4,2.4,0,0,1-.13.42l0,.07-.07.13Z"/><path class="cls-16" d="M61.37,203.65h.23a.79.79,0,0,0-.25,0,.82.82,0,0,0-.3.12l-.13.1h0a4.59,4.59,0,0,0,.41-.88,17.66,17.66,0,0,0,.88-5.35,25.85,25.85,0,0,0-.8-7.57,8.24,8.24,0,0,0-1.47-3,2.39,2.39,0,0,0-.74-.54,2,2,0,0,0-.42-.07.64.64,0,0,0-.26,0h-.29l.21,0-.6.1-.15,0s0,0,0,0h0s-.15.05-.18.1a1.56,1.56,0,0,0-.51.68,9.13,9.13,0,0,0-.43,3.47,25.31,25.31,0,0,0,1.61,7.44A18.47,18.47,0,0,0,59.49,201a9.71,9.71,0,0,0,1.29,1.84,3.93,3.93,0,0,0,.85.75l.16.09Zm-.53,3.06.28-.07a4.72,4.72,0,0,1-.91-.35A6.7,6.7,0,0,1,58.53,205a19.37,19.37,0,0,1-1.77-2.23c-.62-.87-1.2-1.9-1.84-3a29.45,29.45,0,0,1-3.17-8.35,12.2,12.2,0,0,1,0-5.78,6.8,6.8,0,0,1,2.05-3.3,4.62,4.62,0,0,1,.87-.63,4.71,4.71,0,0,1,1-.5l.57-.2.28-.08.15,0,.59-.12.27,0H58l.46,0a4.19,4.19,0,0,1,.94.05,7.52,7.52,0,0,1,1.93.48,7.32,7.32,0,0,1,3,2.38,11.4,11.4,0,0,1,2,5.54,30,30,0,0,1-.47,8.93,34.69,34.69,0,0,1-1.63,6.07,5.47,5.47,0,0,1-1.19,2l-.09.09-.24.17a2.49,2.49,0,0,1-.92.35h-.23Z"/><path class="cls-23" d="M205,195.65s.64-.18,1.85-.41a43,43,0,0,1,5.3-.7,47.4,47.4,0,0,1,8.32.06A38.05,38.05,0,0,1,231.05,197a34.08,34.08,0,0,1,11,6.82,34.77,34.77,0,0,1,2.49,2.58l1.05,1.37,1,1.66a30.08,30.08,0,0,1,2.64,7,61,61,0,0,1,1.67,15.23,93.6,93.6,0,0,1-1.46,15.65,116.23,116.23,0,0,1-3.79,15.21c-.82,2.52-1.71,4.82-2.55,7.21s-2,4.65-2.93,6.92a116,116,0,0,1-6.69,12.5L231.73,292l-1.83,2.66c-1.23,1.73-2.34,3.45-3.53,5L222.82,304l-1.66,2-1.69,1.8c-2.22,2.29-4,4.42-5.76,5.9l-5.32,4.81a.36.36,0,0,1-.5-.52l0,0,5-5.07c1.67-1.53,3.34-3.73,5.43-6.08l1.59-1.84,1.55-2.06,3.34-4.43c1.13-1.56,2.19-3.29,3.34-5l1.73-2.66,1.61-2.85a138.25,138.25,0,0,0,6.28-12.4c.91-2.22,1.91-4.43,2.78-6.77s1.72-4.79,2.45-7.14a113.05,113.05,0,0,0,3.56-14.89,97.55,97.55,0,0,0,1.5-15.18,58.28,58.28,0,0,0-1.47-14.55,28.6,28.6,0,0,0-2.33-6.41l-.75-1.39-1-1.4c-.57-.78-1.46-1.57-2.16-2.35a31.81,31.81,0,0,0-10.08-6.63,40.26,40.26,0,0,0-10-2.61,45.93,45.93,0,0,0-8.05-.4,41.32,41.32,0,0,0-7,.69.48.48,0,0,1-.24-.93Z"/><path class="cls-24" d="M163.08,231.17a2.69,2.69,0,0,1-.26,1.28,10,10,0,0,1-1.94,2.86,25.36,25.36,0,0,1-10.19,6.48,38.87,38.87,0,0,1-7.93,1.88c-2.83.16-5.75.62-8.93.23-1.58-.13-3.16-.16-4.81-.37l-4.74-.8a48.57,48.57,0,0,1-4.82-1.08,43.59,43.59,0,0,1-4.81-1.36c-1.57-.55-3.15-1-4.7-1.64l-4.55-1.92a94.41,94.41,0,0,1-8.51-4.42l-2-1.16L93,229.9c-1.24-.84-2.48-1.61-3.6-2.49-2.31-1.66-4.39-3.37-6.3-5s-3.53-3.18-4.95-4.62-2.63-2.71-3.57-3.8c-1.91-2.17-2.88-3.52-2.88-3.52a.24.24,0,0,1,.39-.29s1,1.26,3,3.31c1,1,2.24,2.24,3.71,3.59s3.19,2.79,5.07,4.36,4,3.13,6.35,4.7c1.13.83,2.38,1.56,3.62,2.35s2.53,1.56,3.87,2.3a93,93,0,0,0,8.39,4.25l4.47,1.84c1.52.56,3.08,1,4.62,1.56s3.1.92,4.66,1.33a46.67,46.67,0,0,0,4.7,1.1l4.73.83c1.49.2,3.05.25,4.54.39,3,.4,6,0,8.8-.06a37.87,37.87,0,0,0,7.57-1.59,25.39,25.39,0,0,0,10-5.78,10,10,0,0,0,1.94-2.53,2.33,2.33,0,0,0,.25-.69c0-.2,0-.3,0-.3a.32.32,0,1,1,.64,0Z"/><path class="cls-20" d="M70.66,356l2.12-.71c.69-.22,1.48-.46,2.41-.8l3.13-1.09L82,352.06c1.29-.51,2.66-1,4.08-1.54s2.86-1.14,4.33-1.72,3-1.24,4.43-1.87,3-1.21,4.42-1.9l4.23-2c1.38-.62,2.67-1.31,3.92-1.91l3.5-1.74,5.16-2.78,2-1h0a.24.24,0,0,1,.25.41l-1.85,1.26c-1.19.77-2.86,2-4.93,3.24l-3.42,2c-1.23.67-2.47,1.49-3.86,2.12L100,346.65c-1.43.74-2.95,1.34-4.43,2s-3,1.28-4.5,1.84-3,1.15-4.41,1.67c-2.87,1-5.61,1.85-8,2.53-1.17.36-2.25.61-3.21.86s-1.84.43-2.51.58l-2.19.46a.32.32,0,0,1-.38-.25A.33.33,0,0,1,70.66,356Z"/><path class="cls-20" d="M147.89,320.82l-1.57,0c-1,0-2.42,0-4.11-.07l-5.79,0-3.23.21a31.48,31.48,0,0,0-3.32.27,12.65,12.65,0,0,0-3,.76,3.33,3.33,0,0,0-1.1.69,3.69,3.69,0,0,0-.25.35c-.07.25-.19.54-.23.74a1.75,1.75,0,0,0,1,1.66,9.27,9.27,0,0,0,2.34,1c1.59.48,3,.81,4,1.08a8.7,8.7,0,0,1,1.53.55.24.24,0,0,1,.1.33.25.25,0,0,1-.29.12,11.21,11.21,0,0,0-1.5-.27c-1-.16-2.4-.23-4.12-.6a10.6,10.6,0,0,1-2.79-1,3.18,3.18,0,0,1-1.83-3.37c.06-.32.15-.53.22-.8a3.32,3.32,0,0,1,.61-1,5,5,0,0,1,1.65-1.15,14.37,14.37,0,0,1,3.52-1,27,27,0,0,1,3.45-.27l3.35-.12c2.16.07,4.17.26,5.88.38s3.13.42,4.12.56l1.55.29a.32.32,0,0,1-.07.64Z"/><path class="cls-23" d="M209.62,228.72l-.11,1.16c-.08.76-.2,1.87-.43,3.27s-.54,3.09-.87,5-.82,4.12-1.48,6.46-1.29,4.89-2.15,7.55-1.82,5.43-2.88,8.28-2.37,5.72-3.69,8.63l-2.14,4.33-1.08,2.18-1.23,2.11-2.48,4.19c-.8,1.41-1.8,2.69-2.68,4l-2.69,3.92-2.9,3.63c-1,1.19-1.89,2.36-2.84,3.48L177,300l-2.84,2.91c-.9,1-1.94,1.7-2.84,2.52-1.85,1.59-3.56,3-5.1,4.25l-4.24,2.87-3.7,2.45a.36.36,0,0,1-.43-.58l0,0,3.44-2.76,4-3.11,4.75-4.48c.85-.84,1.83-1.61,2.68-2.59l2.66-3,2.8-3.13,2.68-3.48,2.78-3.59,2.57-3.88c.84-1.32,1.79-2.59,2.56-4l2.36-4.14c1.66-2.72,3-5.63,4.43-8.4s2.59-5.66,3.73-8.42,2.19-5.46,3.06-8.06,1.74-5,2.43-7.34,1.25-4.42,1.82-6.29.93-3.53,1.21-4.9c.64-2.73.92-4.3.92-4.3a.48.48,0,0,1,1,.13Z"/><path class="cls-20" d="M134,328.94a10.75,10.75,0,0,1-1.53.43c-1,.2-2.39.48-4.07.68l-5.7.74a31.39,31.39,0,0,0-3.09.59,7,7,0,0,0-1.38.48,1.63,1.63,0,0,0-.43.3c-.08.13-.08,0-.07.15-.12.47.55,1.23,1.41,1.69a5.51,5.51,0,0,0,1.32.58L122,335c1,.28,1.93.33,2.84.51a22.59,22.59,0,0,0,2.65.15,17.1,17.1,0,0,0,2.27,0l1.76-.1,1.55-.06h0a.24.24,0,0,1,.06.48l-1.53.33-1.77.34a11.79,11.79,0,0,1-2.33.26,23.8,23.8,0,0,1-2.81.07,21.18,21.18,0,0,1-3.18-.36l-1.56-.41a7.35,7.35,0,0,1-1.71-.7,6.07,6.07,0,0,1-1.58-1.18,3.67,3.67,0,0,1-.63-1,2.75,2.75,0,0,1-.22-1.25,2,2,0,0,1,.6-1.35,3.5,3.5,0,0,1,.95-.66,8.82,8.82,0,0,1,1.78-.62,24.09,24.09,0,0,1,3.33-.54c2.14-.23,4.12-.25,5.8-.35s3.09-.09,4.05-.19,1.52-.16,1.52-.16a.32.32,0,0,1,.17.62Z"/><path class="cls-20" d="M119.81,335.93l-.83.69-.1.08c.08-.06,0,0,0,.05l-.2.22a4.91,4.91,0,0,0-.34.47,2.78,2.78,0,0,0-.45,1.2,2,2,0,0,0,0,.68l0,.18v0h0c-.08-.26,0-.07,0-.13l0,.05.05.11c.08.21.14.16.16.19a5.47,5.47,0,0,0,1.51.78,17.63,17.63,0,0,0,2,.59c.75.17,1.52.35,2.24.45,1.45.28,3,.42,4.41.54s2.76.13,3.9.12c.58,0,1.09-.05,1.56-.06a7.4,7.4,0,0,0,1.2-.12l1.05-.13h0a.24.24,0,0,1,.13.46s-.36.16-1,.4a7.86,7.86,0,0,1-1.21.37,13.55,13.55,0,0,1-1.61.35,27.94,27.94,0,0,1-8.78,0c-.83-.11-1.57-.31-2.32-.48a13.27,13.27,0,0,1-2.28-.77,5.58,5.58,0,0,1-2.07-1.39,2.11,2.11,0,0,1-.38-.63l0-.11,0-.06,0-.14h0v-.06l0-.3a3.44,3.44,0,0,1,.1-1.13,3.52,3.52,0,0,1,.94-1.64,5.34,5.34,0,0,1,.56-.51l.24-.17.17-.12.12-.06c.61-.31,1-.47,1-.47a.32.32,0,0,1,.34.54Z"/><path class="cls-25" d="M77.34,346.11a16.67,16.67,0,0,1,.48,4.7,7.21,7.21,0,0,1-.55,2.48,3.52,3.52,0,0,1-.82,1.19l-.14.13c-.07,0,0,0-.16.12l-.06,0-.24.15a3.63,3.63,0,0,1-.52.3c-.25.09-.51.18-.77.25a1.58,1.58,0,0,1-.27.06h-.14l-.28,0a5,5,0,0,1-1.41-.12,8.51,8.51,0,0,1-2.4-.95,15.28,15.28,0,0,1-2-1.39,18,18,0,0,1-1.81-1.66l1.93-.37a20.18,20.18,0,0,1-1,2.34,16.46,16.46,0,0,1-1.3,2.19,9.71,9.71,0,0,1-4.07,3.56,5.38,5.38,0,0,1-1.46.39l-.38.06H59.5l-.59,0a4.3,4.3,0,0,1-1.32-.2,6.5,6.5,0,0,1-1.47-.52,10.3,10.3,0,0,1-1.23-.76,10.84,10.84,0,0,1-1-1,9,9,0,0,1-.86-1.1,7.6,7.6,0,0,1-.71-1.28l2.35.26a14.65,14.65,0,0,1-1.79,2,10.92,10.92,0,0,1-2.25,1.72l-.15.1,0,0-.09,0-.07,0-.28.12a5.25,5.25,0,0,1-.85.25,3.84,3.84,0,0,1-1.85-.09,3.93,3.93,0,0,1-1.53-.94l-.29-.3-.07-.07,0,0-.1-.13,0,0-.08-.13-.33-.52a13.12,13.12,0,0,1-.6-1.47l-.3-1.34a20.32,20.32,0,0,1-.24-2.63,23.75,23.75,0,0,1,.39-5.13,32.69,32.69,0,0,1,1.23-4.94c.24-.81.58-1.59.88-2.38s.71-1.54,1.06-2.3A32.51,32.51,0,0,1,50,332.7c.53-.66,1.09-1.29,1.63-1.92L53.42,329a.34.34,0,0,1,.49.46l0,0-1.56,1.86-1.39,2a31,31,0,0,0-2.22,4.28c-.28.75-.65,1.47-.88,2.24s-.53,1.51-.71,2.29a30.55,30.55,0,0,0-.9,4.7c-.12.79-.12,1.58-.19,2.37s-.06,1.58,0,2.35a18.2,18.2,0,0,0,.25,2.28l.27,1.06c.13.28.18.51.32.82l.34.52.08.13,0,0h0l-.08-.11h0l0,0,.14.14a1.42,1.42,0,0,0,.55.34,1.35,1.35,0,0,0,.59,0l.33-.1.28-.13.07,0h0l0,0,0,0,.1-.07A8.46,8.46,0,0,0,51,355.21a12.42,12.42,0,0,0,1.43-1.69,1.37,1.37,0,0,1,1.92-.28,1.36,1.36,0,0,1,.42.52v0a5.44,5.44,0,0,0,.45.8,6.35,6.35,0,0,0,.6.77,8.5,8.5,0,0,0,.7.65,8.63,8.63,0,0,0,.79.49c.27.19.51.17.76.29a2.33,2.33,0,0,0,1,.16l.6,0h.13l.21,0a3,3,0,0,0,.84-.2,7.29,7.29,0,0,0,3-2.59A19.48,19.48,0,0,0,66,350.33l0-.07a1.13,1.13,0,0,1,1.47-.61,1.15,1.15,0,0,1,.43.31,15.82,15.82,0,0,0,1.48,1.51,13.36,13.36,0,0,0,1.67,1.29,6.57,6.57,0,0,0,1.79.83,2.81,2.81,0,0,0,.86.13h.43c-.12,0,0,0,0,0a1.79,1.79,0,0,1,.34-.05,2.73,2.73,0,0,0,.49-.22l.25-.13.06,0c-.17.11,0,0-.05,0l.07-.06a1.85,1.85,0,0,0,.52-.63,5.75,5.75,0,0,0,.59-1.92,19,19,0,0,0,0-4.4h0a.45.45,0,0,1,.89-.15Z"/><path class="cls-23" d="M157.11,347.71a1.91,1.91,0,0,1-1.33-.54c-7.66-7.41-9.67-25.69-9.75-26.47a1.92,1.92,0,1,1,3.81-.4c0,.18,1.95,17.67,8.61,24.12a1.92,1.92,0,0,1-1.33,3.29Z"/><path class="cls-26" d="M161.39,356.6l.84.19,2.16.45c.91.17,2,.32,3.09.57l3.56.51c.29,0,.63.12.87.14l.92.09,1.79.18c.58,0,1.14.16,1.67.18l1.47.08c1.83.12,3.06.27,3.06.27h0a.51.51,0,0,1,0,1s-1.25.13-3.16.23a24.59,24.59,0,0,1-3.23,0l-1.79-.12-.92-.06c-.38,0-.64-.08-1-.12l-3.66-.63c-1.16-.27-2.21-.61-3.13-.86s-1.65-.61-2.17-.8-.78-.36-.78-.36h0a.51.51,0,0,1,.35-.95Z"/><path class="cls-20" d="M67.38,307.81a18.14,18.14,0,0,0-2,.37,21.22,21.22,0,0,0-2.25.67,23.59,23.59,0,0,0-2.75,1.24,14.59,14.59,0,0,0-2.84,2.06,9.3,9.3,0,0,0-1.28,1.39,9.19,9.19,0,0,0-1.13,1.61A13.14,13.14,0,0,0,53.58,319a12.35,12.35,0,0,0-.37,2.12,9.59,9.59,0,0,0-.11,1v1.15a15.15,15.15,0,0,0,.22,2.08c.18.69.34,1.4.56,2.07a21.07,21.07,0,0,0,1.76,3.85,16.7,16.7,0,0,0,4.84,5.6,3.73,3.73,0,0,0,2.53.77c.07,0,.22-.05.23,0l.3-.13a4,4,0,0,0,.55-.27,3.47,3.47,0,0,0,.73-.61,3.55,3.55,0,0,0,.88-1.68.24.24,0,0,1,.48,0,3,3,0,0,1-.09.59,3.88,3.88,0,0,1-.69,1.52,4.1,4.1,0,0,1-.89.89,4.48,4.48,0,0,1-.55.34l-.29.16a4,4,0,0,1-3.83-.51,13.5,13.5,0,0,1-3-2.43,19.54,19.54,0,0,1-2.62-3.38,22.77,22.77,0,0,1-2-4.13c-.27-.74-.46-1.51-.68-2.29a17.76,17.76,0,0,1-.31-2.45V322.1a9.67,9.67,0,0,1,.15-1.25,13.72,13.72,0,0,1,.45-2.34,14.9,14.9,0,0,1,1.82-4.29,9.83,9.83,0,0,1,1.33-1.8,10.85,10.85,0,0,1,1.54-1.48,16.13,16.13,0,0,1,3.26-2.08c.54-.25,1.07-.46,1.58-.66l1.47-.43a22.91,22.91,0,0,1,2.43-.47,12.67,12.67,0,0,1,2.15-.12h0a.32.32,0,0,1,0,.64Z"/><path class="cls-20" d="M58.82,319.55l.23,1c.14.62.42,1.51.77,2.57s.83,2.27,1.38,3.54a30.82,30.82,0,0,0,2,3.82,17,17,0,0,0,1.23,1.75,10.33,10.33,0,0,0,1.38,1.44c.26.17.49.39.74.52a4,4,0,0,0,.76.37s.14,0-.07,0h.06l.12,0,.24,0,.47.07c.3,0,.41-.07.62-.07a3.23,3.23,0,0,0,1.15-.57,4.31,4.31,0,0,0,.8-.76,5.5,5.5,0,0,0,.59-.8.24.24,0,0,1,.45.17h0a4.36,4.36,0,0,1-.42,1,5.21,5.21,0,0,1-.74,1.07,3.77,3.77,0,0,1-1.46,1.06,4.77,4.77,0,0,1-1.12.25H67.1c-.25,0-.11,0-.19,0a5.77,5.77,0,0,1-1.1-.39,7.7,7.7,0,0,1-1-.6A10.63,10.63,0,0,1,63,333.45a18.57,18.57,0,0,1-1.43-1.93,23.94,23.94,0,0,1-3.11-8,18.54,18.54,0,0,1-.31-2.84,10.09,10.09,0,0,1,0-1.06v0a.32.32,0,0,1,.64,0Z"/><path class="cls-20" d="M66.1,317.07l.24,1.59c.11.49.28,1.05.46,1.7s.5,1.39.75,2.2a45.13,45.13,0,0,0,2.45,5.3,29.17,29.17,0,0,0,1.68,2.76c.33.4.65.87,1,1.21a3.41,3.41,0,0,0,.53.46c.07.05.14.06.2.11s0,0,0,0H73.3l.87-.11c.2-.08.22-.14.37-.17a1.6,1.6,0,0,0,.48-.92,9.45,9.45,0,0,0-.08-3,57.12,57.12,0,0,1-.69-6,9.63,9.63,0,0,1,.21-2.49,5.42,5.42,0,0,1,.32-1l.08-.23c0-.05,0,0,.06-.15l.06-.09.21-.34a3.21,3.21,0,0,1,.82-1l.34-.31a.24.24,0,0,1,.35.32l0,.06-.23.3a2.81,2.81,0,0,0-.57.93l-.16.37,0,.1s0,0,0,.06l0,.21a4.57,4.57,0,0,0-.16.9,11.88,11.88,0,0,0,.07,2.25c.16,1.68.71,3.61,1.11,5.8a10.91,10.91,0,0,1,.16,3.65,3.37,3.37,0,0,1-1.13,2,4.84,4.84,0,0,1-1.2.55l-.86.13a2.35,2.35,0,0,1-1.49-.46,5.51,5.51,0,0,1-.78-.68c-.47-.49-.79-1-1.18-1.48a23.39,23.39,0,0,1-1.73-3,27.7,27.7,0,0,1-1.27-3c-.35-1-.64-1.88-.9-2.73s-.44-1.65-.55-2.38-.2-1.38-.25-1.9c0-1,0-1.6,0-1.6a.32.32,0,0,1,.33-.32A.33.33,0,0,1,66.1,317.07Z"/><path class="cls-27" d="M207.94,34.16s.16,1.37.58,3.73c.19,1.19.49,2.62.84,4.25s.82,3.46,1.32,5.45,1.12,4.13,1.91,6.35,1.64,4.54,2.52,6.94c.41,1.21,1,2.37,1.53,3.58s1,2.45,1.68,3.62c1.27,2.36,2.46,4.81,4,7.08l2.13,3.47,2.39,3.26a62.09,62.09,0,0,0,5,6l1.26,1.42,1.35,1.28,2.61,2.48,1.26,1.19c.43.37.89.69,1.32,1l2.54,1.93L244.52,99l2.26,1.4,3.69,2.27c1,.65,1.84,1.08,2.43,1.38l.88.47a.36.36,0,0,1,.16.49.37.37,0,0,1-.46.17l-.92-.37a22,22,0,0,1-2.59-1.14l-3.94-2-2.42-1.24-2.5-1.69-2.71-1.85c-.46-.33-1-.63-1.42-1l-1.36-1.16-2.83-2.42-1.46-1.26L230,89.67a65,65,0,0,1-5.32-6.15l-2.54-3.33-2.27-3.55a74.62,74.62,0,0,1-4-7.35c-.66-1.22-1.12-2.51-1.67-3.75s-1.11-2.45-1.52-3.7a73.56,73.56,0,0,1-2.34-7.2c-.69-2.31-1.16-4.53-1.63-6.57a83.69,83.69,0,0,1-1.48-10c-.22-2.44-.2-3.84-.2-3.84v0a.48.48,0,0,1,1,0Z"/><path class="cls-27" d="M209.1,32.51S208,34.08,206,36.7s-5,6.33-8.9,10.49a160.15,160.15,0,0,1-14,13.5A141.26,141.26,0,0,1,165,73.82a112,112,0,0,1-10.07,5.34,101,101,0,0,1-10.26,4.13,75.65,75.65,0,0,1-10,2.6,77.57,77.57,0,0,1-9.19,1.2,65,65,0,0,1-7.81,0c-2.34,0-4.34-.41-6-.55s-2.93-.53-3.8-.68l-1.34-.25a.36.36,0,0,1,.1-.72h0l5.13.53c1.64,0,3.63.28,5.89.18s4.87-.18,7.63-.41a75.88,75.88,0,0,0,8.89-1.51,94.87,94.87,0,0,0,9.65-2.82,98.18,98.18,0,0,0,9.93-4.15,109.3,109.3,0,0,0,9.76-5.34c3.19-1.94,6.34-4,9.32-6.12s5.87-4.35,8.57-6.6c5.4-4.49,10.27-8.9,14.23-12.91s7.19-7.42,9.35-9.91,3.38-3.92,3.38-3.92a.48.48,0,0,1,.77.58Z"/><path class="cls-28" d="M189.47,32.53c-3.49-5.24-16.92,3.19-18.52,1.6s3.51-9.58-1.92-10.86S148,34.13,145.72,32.85s7.25-9.41,1-11.82c-6.47-2.48-14.37,1.12-23.71,9-5,4.21-8.12,11.66-5.27,13.65,2.4,1.68,8.5-1.59,9.82,0,1.73,2.08-9.26,10.22-4.15,15.65s23.32-16,26.51-13.73-8,11.82-3.51,17.25S195.22,41.16,189.47,32.53Z"/><path class="cls-28" d="M225.24,48c-2.75,2.4,8.62,41.68,23.47,42.63s-9.58-21.56-7.19-24,15.33,17.25,22,14.37,1.92-15.33,2.87-18.68,5.27,13.89,8.14,10.06S260.21,36,253.51,38.92s-.48,19.16-3.83,19.16S232.91,41.32,225.24,48Z"/><path class="cls-28" d="M64.61,219c-2.14-1.95-6.07,9.26-7.66,9.26s-.32-9.9-4.47-7.34-9.26,19.48-7.66,20.12,4.79-7.34,6.07-7.34.32,8.62,4.47,8.3S68.12,222.23,64.61,219Z"/><path class="cls-28" d="M88.56,206.9c-3.16,3.86,6.07,16,15.33,20.12S124,232.77,125,229.58s-6.07-4.79-5.11-8.3,13.09,7,16.61,1.92-10.54-14.05-10.22-16,12.45,7,13.09,2.87-31.62-20.44-36.41-15.65S117.62,211.06,115.7,213,91.43,203.39,88.56,206.9Z"/><path class="cls-20" d="M121.22,342.73a.79.79,0,0,0-.23.21.75.75,0,0,0-.16.74,2.93,2.93,0,0,0,.8,1.26c.14.07.56.37.85.56s.67.28,1,.44a22,22,0,0,0,2.49.84l2.93.68,3.23.5c.93.16,2.21.16,3.31.28l1.71.15,1.65,0,3.22-.05c2.08-.24,4.06-.4,5.74-.62,3.3-.74,5.56-1.14,5.56-1.14h0a.24.24,0,0,1,.28.19.24.24,0,0,1-.15.27s-2.14.82-5.46,1.91c-.84.21-1.78.35-2.76.54s-2,.42-3.1.54l-3.39.16-1.75.07-1.71-.1c-1.18-.1-2.2-.11-3.49-.31l-3.29-.6c-1.06-.29-2.09-.56-3-.9a21.55,21.55,0,0,1-2.68-1.15c-.41-.23-.84-.44-1.17-.67s-.51-.43-.89-.81a3.79,3.79,0,0,1-.83-1.91,1.5,1.5,0,0,1,.57-1.35,1.41,1.41,0,0,1,.44-.26.32.32,0,0,1,.28.58Z"/><path class="cls-19" d="M75.54,501.67c-.92-1.23-1.92,3.11-3.35,3.11s-.48,3.11,1.92,1.44S76.26,502.63,75.54,501.67Z"/><path class="cls-19" d="M126.92,500.23c-2.28-.72-2.28,3.59-5,4.07-1.42.25-.66,2.33,2.16,1.56C127.52,504.9,128.06,500.6,126.92,500.23Z"/><path class="cls-29" d="M201.58,438.4c-.94,2,5.95,6.56,7.68,4.34.83-1.07-1.14-1.5-3-2.72S202.42,436.67,201.58,438.4Z"/><path class="cls-29" d="M204.66,446c.36,1.73,5.74,2.55,5.71.32,0-1.07-.64-.77-2.25-1S204.34,444.42,204.66,446Z"/></g></g></g></svg>