<svg id="Слой_1" data-name="Слой 1" xmlns="http://www.w3.org/2000/svg" viewBox="0 0 376 547"><defs><style>.cls-1{fill:#a95b26;}.cls-2{fill:#821b60;}.cls-3{fill:#d94a94;}.cls-4{fill:#db73ab;}.cls-5{fill:#eaa26e;}.cls-6{fill:#fac399;}.cls-7{fill:#c2545f;}.cls-8{fill:#ca5664;}.cls-9{fill:#114f59;}.cls-10{fill:#229bae;}.cls-11{fill:#33bdea;}.cls-12{fill:#585857;}.cls-13{fill:#f7f5f5;}.cls-14{fill:#90d2ea;}.cls-15{fill:#eea26e;}.cls-16{fill:#7d4112;}.cls-17{fill:#cd8f20;}.cls-18{fill:#f8b729;}.cls-19{fill:#5e1c0e;}.cls-20{fill:#7e3310;}.cls-21{fill:#bb5617;}.cls-22{fill:#f18a6b;}.cls-23{fill:#010101;}.cls-24{fill:#9e4816;}.cls-25{fill:#dc8d58;}.cls-26{fill:#fff;}</style></defs><title>Монтажная область 1</title><path class="cls-1" d="M284.15,390.65c1-23,.33-34-8.15-45.45a59.13,59.13,0,0,0-20-17.76c-.85,6.92-3.89,12.75-7.7,18.2,6.37,2.93,10.34,5,15.4,9.28,11.45,9.57,9.16,29,5.33,36.77-8.47.7-1.39,3.49-12.11,12.26-3.35,2.74-.41,4.15.33,4.45,4.35,1.74,10.76-6.26,10.45-5.17-.5,1.73-11.6,9.37-11,11,1.5,3.75,12.52,2.93,18.94.18,3.65-1.57,6-5.16,7.9-8C290,396.92,284.15,390.65,284.15,390.65Z"/><path class="cls-2" d="M259.28,330.35c-.77-4.05-2.35-3.36-4.92-4.36-1.84-8.25-7.66-16-22-16.84-12-.67-17.89,20.37-14.09,27.75,3.18,6.18,10.58,10.61,21.25,10.79,1.26,0,4.83,2.34,6.07,2.33C252.62,347,257.57,338.2,259.28,330.35Z"/><path class="cls-3" d="M258.51,328.73c-.06-1.39-1.45-2.66-4-3.67-1.84-8.25-7.79-18-22.15-18.81-12-.67-17.89,20.37-14.09,27.75,3.18,6.18,10.58,10.61,21.25,10.79,1.26,0,4.83,2.34,6.07,2.34C252.62,344.09,257.95,333.72,258.51,328.73Z"/><path class="cls-4" d="M225.15,310.39c9-.47,24.05,8,24.48,14.68s-1.72,10.4-5.18,16.18a27.91,27.91,0,0,0,9-16.18C253.46,318.87,240.68,299.34,225.15,310.39Z"/><path class="cls-1" d="M227.26,422.23a94.56,94.56,0,0,1,7.91,28.25c1.77,16.92,4.67,38.71,4.67,38.71s-1.25,7.11-9.87,5.38c0,0-14.05-32.41-12.39-40.21s-12.21-24.22-13.25-25C214.74,428.47,221.29,424.91,227.26,422.23Z"/><path class="cls-5" d="M225.47,423.05a100.66,100.66,0,0,1,7.66,30.62,291.17,291.17,0,0,0,5.66,35.68s1,6.67-7.66,4.93c0,0-12.72-32.76-11.49-40.63,1-6.52-12-23.76-13-24.51S219.54,425.06,225.47,423.05Z"/><path class="cls-6" d="M223.18,452.33c1.66-7.8-10.43-24.17-11.47-24.92,7.61-2.46,11.07-3.13,13.76-4.36a100.66,100.66,0,0,1,7.66,30.62,291.17,291.17,0,0,0,5.66,35.68,5.06,5.06,0,0,1-1.21,3.9,21.05,21.05,0,0,1-4.09.15S221.52,460.13,223.18,452.33Z"/><path class="cls-2" d="M227.79,490.92c-2,1.56-5.83,11.45,2.38,22.25,11.61,6.52,42.59-.23,38.57-14.61-2.88-10.29-12-9.8-15.53-8.19-3.08,1.39-9.2-3.91-11.41-4.29s-5.25,3.94-7.23,4.3C231.92,490.86,228.93,490,227.79,490.92Z"/><path class="cls-3" d="M228.75,491.28c-1.59.15-5.42,9.58,2.78,20.37,9.19,5.58,39.23,1.45,35.28-12.95-2.61-9.51-10.8-7.69-14.09-6.8s-5.15-3.76-11-4.9c-1.3-.19-4.82,3.73-7.2,4.21C232.68,491.58,229.45,491.21,228.75,491.28Z"/><path class="cls-4" d="M241.45,487.8c5.86,1.14,7.86,6.12,11.13,5.23s12.06-2.85,14.09,6.8c1.19,5.64-1.89,7.73-12.07,10.84-4.94.88-12.86,1.1-15.78-1-6.26-8.23-6.65-14.34-4.79-17.77A16.49,16.49,0,0,0,241.45,487.8Z"/><path class="cls-1" d="M189.74,430.32s.06,12.89-7.87,27.94c-7.7,14.61-18.28,35.21-18.28,35.21s-5.6,5.69-11.7-.64c0,0,5.54-31.27,12.86-40.74,4.47-5.79,2.52-20.79,2.09-22C173.32,430.27,185.1,430.83,189.74,430.32Z"/><path class="cls-5" d="M186.31,430.71c-1.47,9.87-4.08,22.13-8.57,29.87a291.27,291.27,0,0,0-15.63,32.56s-3,6-9.11-.3c0,0,7.85-34.49,13.65-40,3-2.87,3.6-13.54,3.38-23.2Z"/><path class="cls-6" d="M170.32,453.82c3.09-2.91,4.75-13.91,5.56-23.74l12.26.49c-2.4,10.21-5.82,22.09-10.4,30a291.27,291.27,0,0,0-15.63,32.56,5.06,5.06,0,0,1-3.21,2.52,21,21,0,0,1-3.45-2.2S164.52,459.29,170.32,453.82Z"/><path class="cls-2" d="M153,489.76c-1.49-.9-5.22,3.07-8.39,8.28-2.08,3.41-4.27,7.11-2.82,11.84,8.64,11.47,39.89,19.13,43,4.53,2.24-10.44-7.77-12.8-11.3-13.93-4-1.29-3.41-7.38-8.27-9C157.87,492,155.48,491.25,153,489.76Z"/><path class="cls-3" d="M152.78,491c-2.1-.08-11.45,12.39-9.21,18,3.56,8.87,36.3,19.27,39.51,4.69C185.21,504,175,502.76,171.65,502s-4.26-10.42-7.12-10.06c-2.87,1-7,1.09-8.77.43S153.59,491,152.78,491Z"/><path class="cls-4" d="M165.06,492c3.71,1.16.45,5.35,7.51,9.43,3,1.71,12.64,2.61,10.51,12.24-2,9-9.4,6-19.85,4-4.78-1.53-10.58-3.66-13.07-8.31s2.34-14.8,5.58-17A20.16,20.16,0,0,0,165.06,492Z"/><path class="cls-2" d="M146.33,305.22s-28,102.55-24.91,114.33C130,426.41,197,448.28,244,413.76c0,0-2.17-91.93-17.11-110.63C200.36,309.67,172.13,309.81,146.33,305.22Z"/><path class="cls-3" d="M148.65,306.05s-24.91,93.49-24.2,112.9c0,0,70.11,28,117.09-6.47,0,0-1.78-92-16.73-110.75S149.28,303.63,148.65,306.05Z"/><path class="cls-4" d="M241.53,412.48s-1.78-92-16.73-110.75c-3.6-4.5-10.67,14-17.19,17.6-13.58,7.56-24.15,7.41-30.86,10-27.29,10.45-35.36,81.16-28.94,89.7,0,0,5.2,7.76,49.38,9.88C212.41,427.2,227.94,422.47,241.53,412.48Z"/><path class="cls-7" d="M191.43,300.92s.71,16.64,16.19,18.41,2.64-19.51,3.35-23l27.7,4.56s5.07,26.42-32.3,28.29-34.16-22-33.63-24.64S191.43,300.92,191.43,300.92Z"/><path class="cls-8" d="M201.6,325.3c1.63-1,8.8-2.95,11.16,5.76,3.16,11.7-16.78,4.46-9.84,26.53C202.91,357.59,181.75,337.24,201.6,325.3Z"/><path class="cls-8" d="M214.64,327.39c6.74.46,21.33,12.28,11.46,27.52C220.63,353.25,197.09,326.2,214.64,327.39Z"/><path class="cls-9" d="M279.4,389.27c0,13.57-9.5,24.37-26.24,32.11-4.53,1.1-17.56,1.35-22.53,1.35-4.78,0-18.92.38-22.95-.18-18.67-7.14-25.81-20.47-25.81-34.16,0-16.71,20.12-27,49.6-27.66C263.44,360,279.4,372.55,279.4,389.27Z"/><path class="cls-10" d="M279.4,389.27c0,12.45-11.85,20.91-25.76,30.61-5.81,1.38-14.77,1.38-21.52,1.38h-23c-17.61-7.72-25.62-18.67-25.62-32,0-16.71,18.44-27.24,47.93-27.81C258.81,360.92,279.4,372.55,279.4,389.27Z"/><path class="cls-11" d="M279.4,389.27c0-14.83-16.21-25.65-39-27.53-25.87,1.84-41.77,12-41.77,27.53,0,13.32,8,24.27,25.62,32h7.83c6.75,0,14.15.71,21.52-1.38C267.55,410.18,279.4,401.71,279.4,389.27Z"/><path class="cls-12" d="M263.66,369.49c0,3.48-4.14,6.3-31.3,7.53-16.63.75-31.22-4.06-31.22-7.53s14.51-6.81,31.15-6.81S263.66,366,263.66,369.49Z"/><ellipse class="cls-13" cx="232.12" cy="369.49" rx="30.14" ry="6.3"/><path class="cls-14" d="M234.41,380c-3.23,5.14,23.32,1.85,24.1,14.19.77,12.09-5.28,18.74-12.73,22.32s1.3,4.91,8.76,0c29.43-19.37,15.23-45.74,5.93-40.72C249.55,381.68,236.09,377.32,234.41,380Z"/><path class="cls-1" d="M280.67,391.76c-.2-13.37-.16-30.65-5.89-40.16-4.2-7-10.33-12.45-16.43-16.62.12,4.63-2.74,8.42-6.26,11.35,10,4,12.51,7.11,14.6,13.06,1.34,3.8,7.32,25.85,5.07,31.7-7.72-.23-4.19,2.57-14.92,11.35-1.65,1.35-2.64,3.15-1.61,4.91,1.53,2.6,5.9.4,6.74-.05,2.64-1.71,3.83-4.61,5.55-4.79,2-.2,1.34,2.49.93,5.85-.21,1.73-5.08,7.22-6.56,7.77,5.86.93,12.93-3.38,17.95-9.54C285,400.22,283.65,394.29,280.67,391.76Z"/><path class="cls-15" d="M282.81,391c1.24-16.39-.14-29.53-5.22-39.1a54.68,54.68,0,0,0-18.7-19.92,53.22,53.22,0,0,1-5.73,11.82c7.1,4.36,13,9.67,14.64,16,4.88,18.62,7.26,29.12,4.39,32.29-8.47.7-4.26,3.16-15,11.94-3.35,2.74-.8,3.93-.06,4.22,4.35,1.75,8.1-5.51,11.48-4.25,5.54,2.07-5.44,11.23-5.44,11.23a20.62,20.62,0,0,0,18.48-7.76C289.43,397.43,282.81,391,282.81,391Z"/><path class="cls-6" d="M281.49,392.67c-.2-13.36-.16-30.65-5.89-40.16-4.63-7.68-10.93-13.15-17.62-17.45-1.37,3.32-3.28,7.59-6.92,10.95,13.18,4.35,15,8,17.39,14.69a188.41,188.41,0,0,1,5.08,18.89c.75,3.57,1.76,9.83-.7,12.65-8.47.69-4.08,3-14.8,11.78-1.65,1.35-2,2.93-1.07,3.57a4.65,4.65,0,0,0,2.64.9,6.33,6.33,0,0,0,2.55-.82c2.64-1.71,4.59-4.32,6.32-4.5,2-.2,2.86,2.15,2.54,3.89s-6.14,7-7.84,8.16c5.86.93,12.48-1.56,17.49-7.72C285.85,401.13,284.48,395.21,281.49,392.67Z"/><path class="cls-6" d="M223.49,302.25s1.65,13.85-11,17.61c-6.08,1.81-15.95-.77-20.8-11.78C191.73,308.09,219,302.87,223.49,302.25Z"/><path class="cls-5" d="M202,318.92c-5.54-2.72-6.86-5.28-11.1-11.22,0,0,22.11-2.63,30.73-4.26C222.63,308.36,209.38,316.19,202,318.92Z"/><path class="cls-16" d="M191.43,300.92s3.47,15.74,16.11,17.19c15.48,1.78,16.21-17.35,16.92-20.82L243,300.5s1,28.44-36.4,30.3-40.47-24.34-39.94-27S191.43,300.92,191.43,300.92Z"/><path class="cls-17" d="M186.28,301.73s10.75,19.62,22.57,18.41c17.24-1.77,16.21-19.14,16.92-22.61l12.9,3.4s5.07,26.36-32.3,28.29c-32.9,1.7-37.69-21.73-37.16-24.4S186.28,301.73,186.28,301.73Z"/><path class="cls-18" d="M238.67,300.92l-12.9-3.4c-.71,3.47.32,20.84-16.92,22.61a11.9,11.9,0,0,1-5.76-.94,124.79,124.79,0,0,1-16,7.49c6.53,1.8,8.31,3.1,19.27,2.53C243.74,327.28,238.67,300.92,238.67,300.92Z"/><path class="cls-16" d="M216.45,324.39c6.74.46,19.74,11.78,9.87,27C220.85,349.76,198.9,323.21,216.45,324.39Z"/><path class="cls-17" d="M216.49,325.33c6.74.45,17.59,10.19,9.41,25.31C225.9,350.64,198.94,324.14,216.49,325.33Z"/><path class="cls-18" d="M216.49,325.33c-.48,0-.9,0-1.31,0-3.69,4,7.36,16.52,12.32,21.75C232.29,334,222.68,325.75,216.49,325.33Z"/><path class="cls-16" d="M201.6,325.3c1.54-1.12,10.53-4.75,10.93,4.27s-16.56,6-9.62,28C202.91,357.59,180.63,340.52,201.6,325.3Z"/><path class="cls-17" d="M201.59,326.18c1.47-1.2,9.79-5.62,10.19,3.4s-16.59,5.95-9.65,28C202.13,357.59,184.29,340.31,201.59,326.18Z"/><path class="cls-18" d="M203.14,328.75c-10.4,12.38-5.53,22.27-1.32,27.79-6.06-20.9,10.35-18.09,10-27a8,8,0,0,0-.83-3.49C208.29,325.31,203.9,327.84,203.14,328.75Z"/><path class="cls-16" d="M207,325.73c.5-1.16,4.84-7,8.19,0s-.53,7.77-6.81,7.05C203.37,332.25,206.79,326.27,207,325.73Z"/><path class="cls-17" d="M207.72,325.89c.46-1.08,3.8-6.16,6.93.38s-1,6.06-5.75,5.83S207.5,326.4,207.72,325.89Z"/><path class="cls-18" d="M214.65,326.27a5.9,5.9,0,0,0-2.55-3.06,5.93,5.93,0,0,0-2.49,2.68c-.22.5-3.54,6,1.17,6.21l1.81.08C215.38,332,216.9,331,214.65,326.27Z"/><path class="cls-1" d="M238.68,344.09s-7.12-2.41-4.68-6.37-1.86-10.26-10.44-3.46c-7,5.59-8.76,11.7-8.89,14.67-42.2,18.17-37.81-21.71-57.33-25.37-7.06-1.32-14.84,12.85-12.9,16.19,23.49,40.38,60.44,30.54,77.17,19.63,5.4,5.68,14.78,8.53,21.8,3.43C252.37,356.31,248.57,347.56,238.68,344.09Z"/><path class="cls-5" d="M238.43,344.76s-7.89-2.22-5.45-6.18-.43-10.31-9-3.51c-7,5.59-8.06,10-8.11,14.69a4.21,4.21,0,0,0,.08.54c-48.78,19.17-44.39-27.83-62-27-4.65.22-9.93,11.39-8.17,14.82,21,41,58.76,29.48,75.89,19.46,5.4,5.68,14,8.91,20.65,4.13C251.28,355.26,247.82,348.82,238.43,344.76Z"/><path class="cls-6" d="M220.67,354.91c5.33,5.61,17.58,9,24.27,4.52,5.42-5.66,1.76-11.09-6.51-14.67,0,0-7.89-2.22-5.45-6.18s-.3-9.94-8.35-4c-9.85,9.19-6.87,14-6.85,14.21-1.19,1.17-1.85,1.32-1.83,1.5-48.78,19.17-42.43-27-60.09-26.21-.82,0-6.61,6.36-5.74,8.23C171.09,377.19,204.59,365.36,220.67,354.91Z"/><path class="cls-2" d="M182.45,349.25c-.32-4.11-2-3.6-4.41-4.88-.92-8.4-5.85-16.77-20-19.15-11.81-2-20,18.29-17,26,2.48,6.49,9.36,11.7,19.94,13.05,1.25.16,4.55,2.85,5.78,3C174,365.05,179.89,356.86,182.45,349.25Z"/><path class="cls-3" d="M181.87,347.56c.09-1.39-1.15-2.8-3.59-4.09-.93-8.4-5.77-18.74-20-21.12-11.81-2-20,18.29-17,26,2.48,6.49,9.36,11.71,19.94,13.05,1.25.16,4.55,2.85,5.78,3C174.33,362.18,180.76,352.46,181.87,347.56Z"/><path class="cls-4" d="M150.71,325.67c9,.52,23,10.55,22.72,17.28s-2.85,10.15-6.92,15.51a27.9,27.9,0,0,0,10.74-15.09C177.93,337.2,167.36,316.39,150.71,325.67Z"/><path class="cls-19" d="M304.76,295.18c12.62-28.28-12.31-55.28-12.31-55.28.89-2.08,1.71-4.17,2.49-6.28-9.24,12.46-21.8,23.39-35.5,32.14-11,24.74,26.48,39.24,26.48,39.24-12.54,47.1,27.46,53.6,27.46,53.6C304.39,333.39,330.91,316.34,304.76,295.18Z"/><path class="cls-20" d="M301.31,295c11.94-27.92-12.81-54-12.81-54,.52-1.1,1-2.22,1.51-3.33-8.47,8.19-16.65,16.54-25.61,23.5-13.48,26.47,25.07,40.8,25.07,40.8-12.54,47.1,20.66,52.91,20.66,52.91C301.14,329.64,327.46,316.16,301.31,295Z"/><path class="cls-21" d="M300.5,290.51c6.09-17.52-3.44-35.13-11.8-49.54-2.48,10.25-17.3,20.93-17.3,25.16C271.4,271,274.46,285.54,300.5,290.51Z"/><path class="cls-21" d="M301,297.87c-.53.67-7.92,3.41-7.06,4.08,13.42,10.31,6.56,27.29,14.46,46.32C304.9,326.58,323.77,316.89,301,297.87Z"/><path class="cls-4" d="M284.55,304.43s-1.34,2.33,1.5,3c10.79,2.67,20.75-9.58,20.75-9.58s-.78-4.47-2.53-4.32C296.62,301.95,284.55,304.43,284.55,304.43Z"/><path class="cls-3" d="M306,292.18c-2.36,1.38-4.88,4.11-6.19,5.43,1.78-1,3.43-2.29,2.87-1.36-2.83,7.08-8.58,11.2-15.73,11.4,10.45,1.84,20.76-9.92,20.76-9.92S307.72,292,306,292.18Z"/><path class="cls-1" d="M40.12,138.42c-10.7,50.47,23.59,185,148.59,175,176.4-14.13,112.68-152.55,99.12-208.19C269,28.06,68.88,2.7,40.12,138.42Z"/><path class="cls-5" d="M63.88,153.62C58.19,204.89,73.09,322.7,192.29,310c175.24-18.61,95.93-141.5,88.21-202.87C270.58,28.36,81-1.12,63.88,153.62Z"/><path class="cls-6" d="M283.62,103.93C269.62,64.46,90,61.34,83.78,131.16c-4.48,50.36-16,187,121,177.33,88.43-15.3,109.86-69.57,90.65-126.61C285.72,153,300.4,151.26,283.62,103.93Z"/><path class="cls-20" d="M157.72,173.4c-.42,3.39-10.07-1-20.31,4.75-12.93,7.29-13.95,8.62-15.62,7.64s4.78-9.75,16.45-14.65C147.09,167.43,158.33,168.57,157.72,173.4Z"/><path class="cls-20" d="M231.19,156.71c1.77,3.09,9.25-5,21.41-3.61,15.34,1.8,15.07,3.06,16.28,1.44s-6.73-7.84-19.9-7.84C239,146.7,228.66,152.32,231.19,156.71Z"/><path class="cls-22" d="M192.26,252.28c6.23-1.58,14-2.81,22.07-4.43,11.58-2.35,20.51-4.69,21.28-4.33,1.34.62-4.11,17.7-16.62,20.38-8.49,1.81-18.49-4.06-23.55-8.11C193,253.87,191.59,252.45,192.26,252.28Z"/><path class="cls-23" d="M135.85,211.2c2.94,11.6,11.18,20.16,19.1,19.25,13.19-1.52,14.31-15.81,11.38-27.41s-12.45-20.38-20.18-18.42S132.91,199.6,135.85,211.2Z"/><path class="cls-13" d="M138.23,211.33c2.94,11.6,11.58,19.42,19.31,17.46s11.61-12.95,8.67-24.54-11.58-19.42-19.3-17.47S135.29,199.73,138.23,211.33Z"/><ellipse class="cls-23" cx="155.05" cy="217.16" rx="8.25" ry="12.4" transform="translate(-48.57 44.72) rotate(-14.21)"/><path class="cls-23" d="M242.07,190.79c3.38,12,12.2,20.67,20.41,19.5,13.68-1.95,14.45-16.85,11.07-28.84s-13.52-20.86-21.5-18.61S238.7,178.8,242.07,190.79Z"/><ellipse class="cls-13" cx="259.01" cy="186.78" rx="15.02" ry="22.55" transform="translate(-40.93 77.2) rotate(-15.73)"/><ellipse class="cls-23" cx="260.72" cy="196.56" rx="8.59" ry="12.9" transform="translate(-43.52 78.03) rotate(-15.73)"/><path class="cls-1" d="M221.89,227.6c-2.78-7.06-15.78-20.22-20.86,3C207.43,216,216.68,220.6,221.89,227.6Z"/><path class="cls-19" d="M315.77,98.33c-10.55-8.56-18.25-52.8-71.38-79.76-27-13.69-58.43-8.05-76.13-3.08C130.82,12.21,107.19,19,88.4,28.38c-44.78,22.4-58,61.22-64.69,79.41-40,109.49,24.47,169.52,24.47,169.52-27.91,11.63-9.63,37-9.63,37-19.81,2.17-21.41,22.37-17.49,34,5.12,15.22-3.65,30.81-1.7,30,21.92-8.67,14.69-15.66,26.72-28.83s8-25.49,8-25.49c28.53-7.44,24.8-29.28,24.8-29.28,21.13,10.7,38.73,6.82,38.73,6.82-36.35-22-43.93-67.72-45.76-107.79,3.89-17.19,12-30.76,28.58-34.29,0,0-12.91,14,7.83,20.79,0,0-2-3.66,1.44-9.38s12.16,4.53,13.37-7.19l1.21-11.72s1.47,17.9,22.79,19.84c0,0-15.75-15.53-7.41-32.9,0,0-1,34.6,22.32,34.42,0,0-16-65.65,24.64-47.11,0,0,37.9-47.65,26.9,25.51,0,0,17.23,8.59,25.61,0,3.74,5.65.25,20.59.25,20.59s26.89-28.58,17.65-46.57c11.48,8.35,5.05,31.31,1.31,42.71,0,0,28.61,2.65,41.78-8.64,1.82,6.15,12.74,45.07,7.58,74.5,29.88-19.51,26.58-34.55,30.42-47.92C345.4,161,345.57,122.5,315.77,98.33Z"/><path class="cls-20" d="M308.21,93.43c-5.5-4.86-24.58-52.75-72.67-72.93-29.73-12.47-54.67,2.57-77.8,0C69.29,10.7,35.51,83.13,26.45,107.95c-40,109.49,25,170.17,25,170.17-27.91,11.63-11.78,37-11.78,37-19.81,2.17-19.66,20.63-15.74,32.3A32.93,32.93,0,0,1,21,374.56c16.39-6,16.26-16.71,21.14-22.86,17.71-22.3,10.49-29.83,10.49-29.83,28.53-7.44,24.13-30.31,24.13-30.31a88.92,88.92,0,0,0,38.06,8.67c-36.35-22-48.41-65.65-45-108.24,3.51-22.2,14-31.52,30.55-35,0,0-8,17.3,7.83,20.79,0,0-2-3.66,1.44-9.39s12.16,4.53,13.37-7.19l1.21-11.72s2.35,18.32,20.84,20.23c0,0-13.8-15.92-5.46-33.3,0,0,7.32,34.74,22.32,34.42,0,0-16.39-67.16,24.23-48.62,0,0,45.92-54.48,29.53,28.63,0,0,14.56,6.21,22.93-2.4,3.74,5.65,2.2,20.57,2.2,20.57s24.05-31.59,14-46.13c16,3.87,9.3,31.15,5.55,42.55,0,0,28.34,3.16,33.87-7.46,1,3.25,24,22.94,21.41,41.23-3.08,21.68-5.57,24.56-4.86,28.74,24.65-15.67,15.33-31.94,25.06-50.39C347,156.4,337.4,119.25,308.21,93.43Z"/><path class="cls-24" d="M312,102.46c-29.43-19.86-30.41-56.47-67.63-68C207.45,10,162.15,25.13,159,25.13c-92.37,0-90.76,33.73-101.79,54.31-12.34,23-28.48,24.49-36.44,87-7.44,58.42,15.47,50.33,27.32,95.7,5.36,20.51,36.63,33.39,52.81,27.54-27.07-8.65-14.64-37.9-34.44-48.62-21.9-11.86-7.54-40.07,0-37.9-2.63-42,26.88-46.59,37.68-53.35,0,0-13.45,21.52,2.14,25.24,0,0-2.88-7.56.52-13.29s13.3,2.32,14.52-9.4,3.36-12.74,3.36-12.74a28.55,28.55,0,0,0-.74,12.54l.28-2.71a27.07,27.07,0,0,0,4,10.2,15.16,15.16,0,0,0,8.3,3.13s-6.94-17.83,1.41-35.2a57.67,57.67,0,0,0,1.6,9l.08-.18s.27,1.26.8,3.28c2.57,8.36,7.72,18.95,17.91,24.48-6.88-15.28-20.87-61.89,27.07-43.61,18.89-31.46,51.41-28.1,32.29,27a26.8,26.8,0,0,0,19.26-7.94c3.75,5.65,5.16,23.85,5.16,23.85s13.15-32.68,3.09-47.23c19.08,3.14,28.17,20.13,18.63,45.89,0,0,20.45-1.51,26.84-19,3.17,3.89,4.72,11,.65,24.74,14.43,0,24.78,23.55,27.79,31.36,5.12,13.29-16.32,13.79-8.31,28.74,27.71-23.19,17-22.46,19.06-35.38C336.6,149.39,333,116.67,312,102.46Z"/><path class="cls-21" d="M166.28,87.46c-30.66,3.26-27.3,45.13-14.61,62.71-5.86-29.26,3-58.06,32.67-43.51,9.28-11.68,66.76-24.89,33.31,40.88,16.19-14.88,23.83-21,24.45-33,.78-15.12-16.57-36.65-54.27-31.72,37.7-22.54,60.57,12.08,72.34,24.29,16.19,16.8,10.93,45.79,22.31,39.72,6.11-3.26-5.05-31.26,4.58-27,10.84,4.84,4.22,45.45,25.76,48.71-10.9-15.48,13.17-37.08-18-76C285.57,80.88,281.52,67.8,265.54,53,240.15,29.37,208.21,14.77,161.26,34c-27.73-6.62-50.6-7-69.81,8.15-20.65,16.3-14.68,36.45-26.5,47.09s-37.81,36.64-26.71,97.39c2.21-21.35,34.29-45.93,56.41-73-1.1,11.26-1.1,15.51-21.14,32,30.75-6.18,42.53-23.69,50.21-31.21C129.38,108.93,142.11,81.23,166.28,87.46Zm22.67,2,0-.09.09,0Z"/><path class="cls-24" d="M312.83,152.65C326.07,112.36,287.33,93,275,76.77c-31.6-41.53-72.46-42.44-100.41,1C201.63,45.42,244.42,53,267.62,89.28,281.34,110.71,308.36,107.3,312.83,152.65Z"/><path class="cls-24" d="M259.47,51.71C233.32,30,185.31,20.84,180.32,69.77,195.45,42.27,220.91,37.53,259.47,51.71Z"/><path class="cls-24" d="M81.26,141.11c9.6-2.72,16.61-5.88,27.4-28.27,2.33-4.84,18-63.69,58.91-38.42-43.82-35-61.56,23.86-62.83,29.09C100.68,120.15,90.5,136.67,81.26,141.11Z"/><path class="cls-24" d="M37.6,179.75c2.13-12.67,5.9-41.67,19.42-60,10.16-13.77,23.23-4.55,35.21-21.9,9.45-13.68,28.45-60,75.35-32.47C104.81,5.5,92.78,79.22,86.71,90.24c-7.14,13-23.78,7.41-35.52,24.71C41.5,129.23,36.12,158.93,37.6,179.75Z"/><path class="cls-1" d="M70.68,209.75c-16.41-19.28-41.52-10.35-33.84,18.58,3.52,13.23,23.59,40,44,17.23C80.85,245.57,74.77,226.77,70.68,209.75Z"/><path class="cls-6" d="M73.19,211.73c-15.32-17.37-39.27-10.41-32.4,15.93,3,11.47,20.12,35.63,38.81,19.65a9.59,9.59,0,0,0,2.33-4.92C82.47,239.94,76.82,227.22,73.19,211.73Z"/><path class="cls-5" d="M39.76,216c.8-1.6,3.64-6.9,8.51-8.91,8.49-3.5,20.48,3.41,29.3,18.57-.51-2-2.4-10.88-2.86-12.86C61.75,197.39,41.91,198.26,39.76,216Z"/><path class="cls-25" d="M68.85,219.59c-6.93-7.86-17.76-4.71-14.65,7.2,1.42,5.45,9.89,17.23,18.83,7.66C73,234.46,70.49,226.6,68.85,219.59Z"/><path class="cls-24" d="M55.31,285.08s-25.76,20.26-7.43,38.8C70.58,318,73.33,302.7,73.35,295.75a26.37,26.37,0,0,0-8.53-6.94A46.56,46.56,0,0,0,55.31,285.08Z"/><path class="cls-24" d="M51,320.23c-9.94-6.41-28.49,3.28-23,19.23a38.27,38.27,0,0,1-3.26,31.67c15.35-10.32,12.6-16.64,16.52-22.82C50.16,334.32,54.45,333.06,51,320.23Z"/><path class="cls-1" d="M299.44,162.49c5.54-13.19,29.72-20.12,35.16,3.5,6.22,27-11.36,41.23-27.13,48.84C307.48,214.83,304.14,184.24,299.44,162.49Z"/><path class="cls-6" d="M300.75,167.5c5.67-8,24.75-24.68,32.54,2.54,3.57,12.45-1.14,40.64-25.69,40.35C307.59,210.39,303.86,189.64,300.75,167.5Z"/><path class="cls-25" d="M310.43,191.88c4.57,4.17,10.73,2.64,13.77-3.43s1.79-14.34-2.78-18.51-10.73-2.63-13.77,3.43C306.94,181.78,307.87,183.72,310.43,191.88Z"/><ellipse class="cls-22" cx="142.72" cy="246.46" rx="19.79" ry="13.03" transform="matrix(0.98, -0.19, 0.19, 0.98, -45.03, 32.3)"/><ellipse class="cls-22" cx="282.23" cy="221.71" rx="20.6" ry="13.56" transform="translate(-37.59 58.85) rotate(-11.17)"/><path class="cls-4" d="M37.56,309.91s-2.58.14-1.61,3.23c3.66,11.73,21,14.13,21,14.13s3.84-4.58,2.69-6.15C45.85,321.75,37.56,309.91,37.56,309.91Z"/><path class="cls-3" d="M59.59,321.12a22.63,22.63,0,0,1-6.45-.65c2,1.09,4.13,1.92,2.94,1.92-8.32,1.39-15.51-1.69-19.8-8.34C40.53,325,56.9,327.27,56.9,327.27S60.74,322.69,59.59,321.12Z"/><rect class="cls-26" x="238.82" y="330.9" width="4.07" height="4.07"/><rect class="cls-26" x="244.03" y="342" width="3.2" height="3.2"/><rect class="cls-26" x="248.47" y="336.17" width="3.62" height="3.25"/><rect class="cls-26" x="239.04" y="339.42" width="2.58" height="2.58"/></svg>