<svg id="Слой_1" data-name="Слой 1" xmlns="http://www.w3.org/2000/svg" viewBox="0 0 557.97 595.28"><defs><style>.cls-1{fill:#fbcb9b;}.cls-2{fill:#51c2ec;}.cls-3{fill:#fcd5b3;}.cls-17,.cls-4{fill:#414142;}.cls-5{fill:#28ace3;}.cls-6{fill:#f49523;}.cls-7{fill:#d1d2d4;}.cls-8{fill:#bdbec0;}.cls-9{fill:#434342;}.cls-10{fill:#29abe3;}.cls-11{fill:#e7b485;}.cls-12{fill:#823c34;}.cls-13{fill:#fff;}.cls-14{fill:#cd5b5b;}.cls-15{fill:#e58383;}.cls-16{fill:#d67710;}.cls-17{opacity:0.2;}.cls-18{fill:#efece7;}.cls-19{fill:#8b2e30;}.cls-20{fill:#ee9a9a;}.cls-21{fill:#8c5f3d;}.cls-22{fill:#a97d50;}</style></defs><title>Монтажная область 1</title><path class="cls-1" d="M293.12,227.21,345.27,252s16.51.1,21,2.38,16.35,12.83,10.36,22.67S365,285.77,365,285.77s-6,.59-3.65-5.15,1.41-14-6.3-12.06-5.37,7.89-5.37,7.89-8.26-2.92-9-7.87L264.8,250"/><path class="cls-2" d="M246.22,221.7c-5.64,12,21,35.3,41.17,44.8l23.71-38.8C284.62,212,251.86,209.72,246.22,221.7Z"/><polyline class="cls-1" points="235.2 214.09 241.25 187.44 279.32 200.62 279.48 235.6"/><path class="cls-3" d="M304.1,448a14.13,14.13,0,0,1-3-.32c-7.61-1.63-9-8.68-7.35-16.29l6.64-47.4L266,344.34a14.09,14.09,0,1,1,21.29-18.46l39,45a14.1,14.1,0,0,1,3.13,12.19L314.57,436.8C313.15,443.41,310.59,448,304.1,448Z"/><polygon class="cls-4" points="294 416.06 320.49 420.15 312.39 445.35 290.33 439.16 294 416.06"/><path class="cls-5" d="M280.91,458.45l46.91,10.31s14.05-13.83-5.25-23.69-21.38,1.32-31.76-10.25C290.83,434.83,277.3,437.68,280.91,458.45Z"/><polygon class="cls-6" points="237.84 426.93 173.47 386.86 120.77 383.08 120.77 348.5 237.84 348.5 237.84 426.93"/><circle class="cls-7" cx="135.12" cy="480.47" r="18.24"/><circle class="cls-7" cx="418.19" cy="480.47" r="18.23"/><polygon class="cls-8" points="409.47 574.64 408.53 574.55 426.91 388.35 427.85 388.44 409.47 574.64"/><polygon class="cls-8" points="426.91 574.64 408.53 388.44 409.47 388.35 427.85 574.55 426.91 574.64"/><rect class="cls-8" x="417.72" y="387.94" width="0.95" height="187.11" transform="translate(-102.06 850.36) rotate(-84.36)"/><rect class="cls-8" x="324.63" y="481.02" width="187.11" height="0.95" transform="translate(-44.34 42.42) rotate(-5.52)"/><rect class="cls-8" x="324.64" y="481.02" width="187.11" height="0.95" transform="translate(-210.44 374.04) rotate(-39.32)"/><rect class="cls-8" x="324.63" y="481.03" width="187.11" height="0.94" transform="translate(-219.29 499.86) rotate(-50.68)"/><rect class="cls-8" x="417.72" y="387.94" width="0.94" height="187.11" transform="translate(-210.51 374.46) rotate(-39.36)"/><rect class="cls-8" x="417.72" y="387.95" width="0.95" height="187.1" transform="translate(-219.31 499.45) rotate(-50.64)"/><rect class="cls-8" x="324.64" y="481.02" width="187.11" height="0.94" transform="translate(-204.44 619.52) rotate(-61.52)"/><rect class="cls-8" x="324.63" y="481.02" width="187.11" height="0.95" transform="translate(-165.83 737.71) rotate(-72.71)"/><rect class="cls-8" x="417.72" y="387.94" width="0.95" height="187.11" transform="translate(-204.42 619.63) rotate(-61.53)"/><rect class="cls-8" x="417.72" y="387.94" width="0.95" height="187.11" transform="translate(-165.4 738.68) rotate(-72.81)"/><rect class="cls-8" x="324.63" y="481.02" width="187.11" height="0.94" transform="translate(-119.69 138.84) rotate(-16.53)"/><rect class="cls-8" x="324.63" y="481.03" width="187.11" height="0.94" transform="translate(-175.84 249.44) rotate(-27.69)"/><rect class="cls-8" x="417.72" y="387.94" width="0.94" height="187.11" transform="translate(-119.73 138.91) rotate(-16.53)"/><polygon class="cls-8" points="461.41 564.46 374.13 398.97 374.96 398.53 462.25 564.03 461.41 564.46"/><circle class="cls-9" cx="418.19" cy="480.47" r="7.81"/><path class="cls-10" d="M311.11,488a7.56,7.56,0,0,1-7.57-7.56,114.65,114.65,0,0,1,209.7-64.1,7.57,7.57,0,0,1-12.54,8.47,99.52,99.52,0,0,0-182,55.63A7.57,7.57,0,0,1,311.11,488Z"/><path class="cls-10" d="M242.29,488a7.56,7.56,0,0,1-7.57-7.56,99.51,99.51,0,1,0-199,0,7.57,7.57,0,0,1-15.13,0,114.65,114.65,0,1,1,229.29,0A7.56,7.56,0,0,1,242.29,488Z"/><path class="cls-9" d="M418.19,379.36A101.11,101.11,0,1,0,519.3,480.47,101.11,101.11,0,0,0,418.19,379.36Zm0,189.89A88.78,88.78,0,1,1,507,480.47,88.78,88.78,0,0,1,418.19,569.25Z"/><polygon class="cls-8" points="143.93 574.64 125.55 388.44 126.49 388.35 144.87 574.55 143.93 574.64"/><polygon class="cls-8" points="126.49 574.64 125.55 574.55 143.93 388.35 144.87 388.44 126.49 574.64"/><rect class="cls-8" x="41.65" y="481.02" width="187.11" height="0.95" transform="translate(-46.59 15.59) rotate(-5.63)"/><rect class="cls-8" x="134.74" y="387.94" width="0.95" height="187.11" transform="translate(-357.24 568.75) rotate(-84.36)"/><rect class="cls-8" x="134.73" y="387.94" width="0.95" height="187.11" transform="translate(-322.81 280.65) rotate(-50.64)"/><rect class="cls-8" x="134.74" y="387.94" width="0.95" height="187.11" transform="translate(-274.71 194.98) rotate(-39.36)"/><rect class="cls-8" x="41.65" y="481.03" width="187.11" height="0.95" transform="translate(-322.95 280.96) rotate(-50.68)"/><rect class="cls-8" x="41.66" y="481.03" width="187.1" height="0.95" transform="matrix(0.77, -0.63, 0.63, 0.77, -274.76, 195.06)"/><rect class="cls-8" x="134.73" y="387.94" width="0.95" height="187.11" transform="translate(-213.16 122.66) rotate(-28.47)"/><polygon class="cls-8" points="162.41 571.01 107.1 392.26 108.01 391.98 163.31 570.73 162.41 571.01"/><rect class="cls-8" x="41.65" y="481.02" width="187.11" height="0.95" transform="translate(-213.53 123.03) rotate(-28.53)"/><polygon class="cls-8" points="45.97 509.6 45.69 508.7 224.44 453.39 224.72 454.3 45.97 509.6"/><rect class="cls-8" x="134.73" y="387.94" width="0.94" height="187.11" transform="translate(-364.86 474.09) rotate(-73.47)"/><rect class="cls-8" x="134.73" y="387.94" width="0.94" height="187.11" transform="translate(-353.76 376.47) rotate(-62.19)"/><rect class="cls-8" x="41.65" y="481.02" width="187.11" height="0.95" transform="translate(-364.86 474.32) rotate(-73.49)"/><polygon class="cls-8" points="91.98 564.46 91.15 564.03 178.43 398.53 179.27 398.97 91.98 564.46"/><circle class="cls-9" cx="135.21" cy="480.47" r="7.81"/><path class="cls-9" d="M34.1,480.47A101.11,101.11,0,1,0,135.21,379.36,101.11,101.11,0,0,0,34.1,480.47Zm12.33,0a88.78,88.78,0,1,1,88.78,88.78A88.78,88.78,0,0,1,46.43,480.47Z"/><path class="cls-6" d="M418.18,486.16a6.63,6.63,0,0,1-6.43-5L367.41,300a6.62,6.62,0,0,1,12.86-3.15L424.62,478a6.62,6.62,0,0,1-4.85,8A6.72,6.72,0,0,1,418.18,486.16Z"/><path class="cls-6" d="M269.36,486.16H134a6.62,6.62,0,0,1-3.19-12.42l250.45-138a6.62,6.62,0,0,1,8.28,10l-115,138A6.62,6.62,0,0,1,269.36,486.16ZM159.69,472.91H266.26L356.8,364.35Z"/><path class="cls-6" d="M298.23,480.56a33.92,33.92,0,0,1-33.92,33.92C245.57,514.49,125,499.3,125,480.56s120.54-33.93,139.28-33.93A33.92,33.92,0,0,1,298.23,480.56Z"/><path class="cls-6" d="M239,426.82a6.62,6.62,0,0,1-6.62-6.62V341.58a6.62,6.62,0,0,1,13.24,0V420.2A6.62,6.62,0,0,1,239,426.82Z"/><path class="cls-6" d="M228.31,355.12H99.53a6.62,6.62,0,0,1,0-13.24H228.31a6.62,6.62,0,1,1,0,13.24Z"/><circle class="cls-9" cx="135.12" cy="480.56" r="6.14"/><circle class="cls-9" cx="265.32" cy="480.56" r="12.79"/><path class="cls-7" d="M373.84,303.19a4.73,4.73,0,0,1-1.46-9.23l8.76-2.85-3.26-12.95-17.09,2.66a4.73,4.73,0,0,1-1.45-9.35l21.35-3.33a4.74,4.74,0,0,1,5.32,3.52l5.39,21.42a4.73,4.73,0,0,1-3.12,5.65l-13,4.22A4.74,4.74,0,0,1,373.84,303.19Z"/><polygon class="cls-8" points="385.33 312.37 369.84 316.03 364.16 293.07 379.64 289.4 385.33 312.37"/><circle class="cls-9" cx="352.38" cy="277.71" r="8.31"/><path class="cls-9" d="M201.82,336.25s13.07,9.68,26.44,5.49,23.65-2.79,31.33-.3,9.38,2,11.18-1.9-1.2-8.68-17.86-6.78-29.43-5.09-43.8-3.39S201.82,336.25,201.82,336.25Z"/><path class="cls-1" d="M330.87,141.08s10.55-8.29,18.46.59c9.17,10.31-8.59,40.75-27.11,34.19Z"/><path class="cls-11" d="M329.82,147.19s7.21-5.65,12.59.4c6.27,7-5.85,27.8-18.49,23.32Z"/><path class="cls-1" d="M208.11,132.06s-9.24-9.74-18.34-2.12c-10.58,8.86,2.55,41.57,21.82,37.79Z"/><path class="cls-11" d="M208.94,138.31s-6.31-6.64-12.52-1.45c-7.21,6.05,1.74,28.36,14.89,25.78Z"/><path class="cls-3" d="M337.06,146.53c-2.81,38.33-35.51,67.17-73,64.42s-65.63-36.07-62.82-74.39,35.5-67.17,73-64.41S339.88,108.19,337.06,146.53Z"/><path class="cls-12" d="M340,152s-12.69-31.11-40.65-45.18c0,0,12.47,18.05,16.16,33.29,0,0-37.88-39.93-68.44-39.87,0,0,15.82,4.84,23,18.32,0,0-29.91-12.74-48.07-10.15,0,0,19,3.65,25.79,10.75,0,0-38.71-6.24-48.28,10.29-15.6-67.41,50-76.12,50-76.12S365.14,34.38,340,152Z"/><path class="cls-4" d="M246.53,151.56c-.37,5-4.46,8.84-9.13,8.5s-8.17-4.7-7.79-9.74,4.45-8.84,9.12-8.49S246.9,146.54,246.53,151.56Z"/><path class="cls-13" d="M244.63,147.78a2.77,2.77,0,1,1-2.56-3A2.77,2.77,0,0,1,244.63,147.78Z"/><path class="cls-4" d="M301.87,155.63c-.38,5-4.47,8.83-9.13,8.49s-8.17-4.7-7.79-9.73,4.46-8.85,9.13-8.5S302.24,150.59,301.87,155.63Z"/><path class="cls-13" d="M300,151.85a2.77,2.77,0,1,1-2.56-3A2.76,2.76,0,0,1,300,151.85Z"/><path class="cls-14" d="M244.23,182.77a18.6,18.6,0,1,0,37,4Z"/><path class="cls-15" d="M261.43,196.62c-5.22-.57-9.21-.2-12.24.9a18.54,18.54,0,0,0,24,2.62C270.47,198.41,266.66,197.2,261.43,196.62Z"/><path class="cls-11" d="M262.29,159.89s6.43,4.43,6.83,7.81-7.11,5.11-7.11,5.11,2.64-3.55,2.11-6.24C263.54,163.67,262.29,159.89,262.29,159.89Z"/><path class="cls-13" d="M252.15,188.61l20.27,2.26a7.76,7.76,0,0,0,7.76-4.18l-34.66-3.78A7.75,7.75,0,0,0,252.15,188.61Z"/><path class="cls-4" d="M281.59,29.61v0l-.62-.06-.61-.08v0c-93.59-9.63-94.74,78.87-90.32,86.58s11.07,3.5,18.38-4.7,31.69-5.42,31.69-5.42l26.41,2.93,11.13,1.24L304.06,113s24.38,2.64,29.71,12.25,10.87,15.19,16.9,8.62S375,40.79,281.59,29.61Z"/><path class="cls-6" d="M273.3,92.62l-.1,0h-.1Z"/><path class="cls-6" d="M357.39,83.94s-1.95-30.88-31.08-41.71c0,0-6.39-12.17-26.18-13,0,0-5.21-6.82-18.94-8.34s-20.31,4-20.31,4c-19.5-3.52-28.41,6.95-28.41,6.95C201.68,36,193,65.66,193,65.66a33.61,33.61,0,0,0-5.24,30.76c21.29-11.21,83.35-4.05,85.47-3.81s64.23,6.87,82.54,22.49A33.59,33.59,0,0,0,357.39,83.94Z"/><path class="cls-16" d="M232,31.88c-30.37,4.42-39,33.78-39,33.78l-.1.12,52.64,14.92Z"/><path class="cls-16" d="M281.18,20.87c-13.61-1.51-20.19,3.87-20.3,4l12,57L300.1,29.19C299.9,28.94,294.65,22.37,281.18,20.87Z"/><path class="cls-16" d="M357.38,83.8c-.18-2.18-3-31.15-31.07-41.56l0-.08-23,46.32Z"/><path class="cls-3" d="M256.31,478a13.89,13.89,0,0,1-2.46-.22,14.08,14.08,0,0,1-11.43-16.31L251,412.75l-21.83-50.9a14.09,14.09,0,1,1,25.9-11.1l23.48,54.75a14.14,14.14,0,0,1,.92,8l-17.65,56.16C260.62,476.51,263,478,256.31,478Z"/><polygon class="cls-4" points="317.67 353.45 289.25 325.02 199.94 328.3 241.7 395.71 272.39 385.65 266.35 355.97 291.01 375.08 317.67 353.45"/><polygon class="cls-5" points="284.8 221.65 239.67 208.57 230.42 205.88 191.81 330.81 296.29 332.15 284.8 221.65"/><path class="cls-17" d="M284.8,221.65l-45.13-13.08-9.26-2.68-10.07,32.57c17.75,12.13,67.89,50.07,70.79,93.63l5.15.07Z"/><polygon class="cls-4" points="245.22 437.85 271.76 441.62 262.7 466.27 241.83 460.99 245.22 437.85"/><path class="cls-5" d="M232.64,480.39l47,9.76s13.89-14-5.52-23.63-21.37,1.57-31.87-9.87C242.28,456.66,228.78,459.66,232.64,480.39Z"/><path class="cls-3" d="M285.21,234.34,338.72,256s16.49-.87,21.12,1.14,17.07,11.85,11.68,22-11.1,9.39-11.1,9.39-5.95.95-4-4.92.58-14.1-7-11.67-4.9,8.2-4.9,8.2-8.42-2.43-9.46-7.33l-76.84-14"/><path class="cls-2" d="M238.06,231.6c-4.93,12.29,23,34,43.74,42.3l21.38-40.14C275.83,219.65,243,219.31,238.06,231.6Z"/><ellipse class="cls-18" cx="145.3" cy="265.47" rx="42.56" ry="54.38"/><path class="cls-19" d="M184.55,232.84s-62.74,19.55-81.34,4.1l-1.89,9.14s41.61,35.31,89.22,11.66Z"/><circle class="cls-6" cx="145.53" cy="262.16" r="10.64"/><ellipse class="cls-18" cx="179.25" cy="171.85" rx="35.65" ry="20.17" transform="translate(-46.34 275.65) rotate(-68.5)"/><ellipse class="cls-20" cx="179.62" cy="169.27" rx="23.88" ry="13.51" transform="translate(-43.7 274.36) rotate(-68.5)"/><ellipse class="cls-4" cx="106.47" cy="171.85" rx="20.17" ry="35.65" transform="translate(-55.57 50.97) rotate(-21.5)"/><ellipse class="cls-20" cx="106.1" cy="169.27" rx="13.51" ry="23.88" transform="translate(-54.65 50.65) rotate(-21.5)"/><path class="cls-18" d="M189.37,207.07c0-.65.1-1.3.1-2a44.5,44.5,0,1,0-89,0c0,.2,0,.4,0,.61A26.79,26.79,0,0,0,130,247a43.85,43.85,0,0,0,29.6.14,26.76,26.76,0,0,0,29.8-40Z"/><ellipse class="cls-14" cx="144.59" cy="237.49" rx="8.51" ry="4.81"/><path class="cls-20" d="M144.41,248.46c-3.46,0-6.26-3.37-6.26-7.53s2.8-3.62,6.26-3.62,6.26-.54,6.26,3.62S147.87,248.46,144.41,248.46Z"/><path class="cls-4" d="M144.93,212.42c6.28,0,9.49,3.18,7.67,7.71a8.23,8.23,0,0,1-15.38,0C135.41,215.55,138.65,212.41,144.93,212.42Z"/><path class="cls-13" d="M145,214.3c2.79,0,4.23.57,3.42,1.38-1,1-3.42.93-3.42.93s-2.43,0-3.42-1C140.82,214.85,142.25,214.3,145,214.3Z"/><path class="cls-4" d="M144.57,233.54a1.66,1.66,0,0,1-1.66-1.66V221.44a1.66,1.66,0,0,1,3.32,0v10.44A1.66,1.66,0,0,1,144.57,233.54Z"/><path class="cls-4" d="M159.68,239.44a21.28,21.28,0,0,1-11.79-4,5.07,5.07,0,0,0-6.78,0c-1.38,1.23-8.24,5.13-14.58,3.76a11.29,11.29,0,0,1-8-6.92,1.66,1.66,0,0,1,3-1.34c1.25,2.82,3.1,4.46,5.68,5,4.93,1.07,10.79-2.21,11.67-3a10,10,0,0,1,5.48-2.14h.23a10.06,10.06,0,0,1,5.48,2.14c.88.78,6.74,4.07,11.67,3,2.57-.56,4.43-2.2,5.68-5a1.66,1.66,0,0,1,3,1.34,11.29,11.29,0,0,1-8,6.92A13,13,0,0,1,159.68,239.44Z"/><circle class="cls-4" cx="154.28" cy="225.25" r="0.97"/><circle class="cls-4" cx="160.98" cy="226.56" r="0.97"/><circle class="cls-4" cx="156.42" cy="229.02" r="0.97"/><circle class="cls-4" cx="151.24" cy="229.19" r="0.97"/><circle class="cls-4" cx="159.67" cy="231.81" r="0.97"/><circle class="cls-4" cx="134.93" cy="225.25" r="0.97"/><circle class="cls-4" cx="128.23" cy="226.56" r="0.97"/><circle class="cls-4" cx="132.79" cy="229.02" r="0.97"/><circle class="cls-4" cx="137.97" cy="229.19" r="0.97"/><circle class="cls-4" cx="129.54" cy="231.81" r="0.97"/><path class="cls-4" d="M100.3,204.88c0,.21,0,.41,0,.61a27.28,27.28,0,0,0-4.75,14.07c54.13,18.09,45.08-42.37,41.85-58.26A44.1,44.1,0,0,0,100.3,204.88Z"/><path class="cls-18" d="M131.54,204.58a11.42,11.42,0,1,1-11.38-11.45A11.42,11.42,0,0,1,131.54,204.58Z"/><path class="cls-4" d="M128.6,204.57a8.48,8.48,0,1,1-8.45-8.5A8.48,8.48,0,0,1,128.6,204.57Z"/><circle class="cls-13" cx="123.63" cy="202.13" r="2.98" transform="matrix(0, -1, 1, 0, -78.8, 325.27)"/><path class="cls-4" d="M178.43,204.57a8.48,8.48,0,1,1-8.45-8.5A8.48,8.48,0,0,1,178.43,204.57Z"/><circle class="cls-13" cx="173.45" cy="202.13" r="2.98" transform="matrix(0, -1, 1, 0, -29.1, 375.1)"/><polygon class="cls-21" points="88.08 265 102.26 342.07 185.97 342.07 200.15 265 88.08 265"/><circle class="cls-13" cx="142.93" cy="307.95" r="27.82"/><ellipse class="cls-4" cx="152.06" cy="302.19" rx="5.87" ry="5.11" transform="translate(-180.02 237.68) rotate(-52.3)"/><ellipse class="cls-4" cx="158.33" cy="312.22" rx="5.87" ry="5.11" transform="translate(-106.56 83.35) rotate(-22.28)"/><ellipse class="cls-4" cx="140.47" cy="297.45" rx="5.11" ry="5.87" transform="translate(-3.96 1.9) rotate(-0.76)"/><ellipse class="cls-4" cx="129.62" cy="302.28" rx="5.11" ry="5.87" transform="translate(-136.5 109.01) rotate(-30.8)"/><path class="cls-4" d="M131.14,313.53c1.28-4.41,7.21-8,12.3-6.53s7.39,7.48,6.1,11.88-5.72,4.32-10.8,2.84S129.85,317.93,131.14,313.53Z"/><path class="cls-17" d="M186,342.08,200.15,265H88.08l3.65,19.82c24.66,2.12,83.54,11.93,79.36,57.26Z"/><rect class="cls-22" x="82.4" y="255.22" width="123.58" height="17.02"/><path class="cls-18" d="M101.53,263.05c-1.8-.12-7.27.09-7.6-1.86,0-.09,0-.15,0-.21A5.3,5.3,0,0,1,94,259.3a2.81,2.81,0,0,1-.94,1.41l-.15.1c-1.76,1.17-3.73,0-4.24-.41a6.65,6.65,0,0,1-1.95-5.15c0-7.66,7.39-13.87,16.5-13.87s16.5,6.21,16.5,13.87a6.6,6.6,0,0,1-2,5.24,3.3,3.3,0,0,1-3.67.22l.22.35a5.27,5.27,0,0,1-.67-1.43,2.77,2.77,0,0,1-.1,1.69c-.54,1.18-2.81,1.62-5.26,1.67a4.58,4.58,0,0,1-3.48-1.06,5.14,5.14,0,0,1-.37-1.58,2.93,2.93,0,0,1-.59,1.85A2.62,2.62,0,0,1,101.53,263.05Z"/><path class="cls-18" d="M187.52,263.05c1.8-.12,7.27.09,7.6-1.86,0-.09,0-.15,0-.21a5.3,5.3,0,0,0-.13-1.68,2.81,2.81,0,0,0,.94,1.41l.15.1c1.76,1.17,3.73,0,4.24-.41a6.65,6.65,0,0,0,1.95-5.15c0-7.66-7.39-13.87-16.5-13.87s-16.5,6.21-16.5,13.87a6.6,6.6,0,0,0,2,5.24,3.3,3.3,0,0,0,3.67.22l-.21.35a5.28,5.28,0,0,0,.67-1.43,2.77,2.77,0,0,0,.1,1.69c.54,1.18,2.81,1.62,5.26,1.67a4.58,4.58,0,0,0,3.48-1.06,5.17,5.17,0,0,0,.37-1.58,2.92,2.92,0,0,0,.59,1.85A2.62,2.62,0,0,0,187.52,263.05Z"/></svg>