<svg xmlns="http://www.w3.org/2000/svg" width="168.202mm" height="190.992mm" viewBox="0 0 476.793 541.394">
  <title>балкон</title>
  <g>
    <g>
      <rect x="135.177" y="122.26" width="206.711" height="343.622" fill="#51b5df"/>
      <polygon points="342.633 162.003 342.633 210.219 135.442 422.28 135.442 369.189 342.633 162.003" fill="#daf1f7"/>
      <path d="M419.174,49.57A113.046,113.046,0,0,0,306.127,162.616H532.22A113.046,113.046,0,0,0,419.174,49.57Z" transform="translate(-180.777 -40.357)" fill="#51b5df"/>
      <circle cx="279.188" cy="348.971" r="10.138" fill="#fff"/>
      <circle cx="166.103" cy="146.137" r="10.138" fill="#fff"/>
    </g>
    <rect x="232.03" y="10.739" width="12.73" height="466.81" fill="#29303a"/>
    <g>
      <rect x="116.137" y="122.26" width="19.04" height="343.622" fill="#29303a"/>
      <rect x="341.616" y="122.26" width="19.04" height="343.622" fill="#29303a"/>
    </g>
    <rect x="229.89" y="301.409" width="17.013" height="203.351" fill="#3d414f"/>
    <g>
      <rect x="35.767" y="301.409" width="15.88" height="203.351" fill="#3d414f"/>
      <rect x="425.146" y="301.409" width="15.879" height="203.351" fill="#3d414f"/>
    </g>
    <rect x="43.603" y="444.08" width="389.587" height="8.752" fill="#3d414f"/>
    <rect x="8.03" y="465.876" width="460.733" height="75.518" fill="#f06924"/>
    <rect y="465.876" width="476.793" height="23.343" fill="#f89721"/>
    <rect x="8.03" y="489.219" width="460.733" height="12.583" fill="#d05928"/>
    <rect x="133.637" y="195.591" width="209.518" height="12.73" fill="#29303a"/>
    <path d="M541.433,162.616h-19.04a103.22,103.22,0,0,0-206.439,0h-19.04a122.26,122.26,0,1,1,244.519,0Z" transform="translate(-180.777 -40.357)" fill="#29303a"/>
    <g>
      <g>
        <path d="M361.736,419.1A36.763,36.763,0,1,1,398.5,382.34,36.8,36.8,0,0,1,361.736,419.1Zm0-63.574a26.811,26.811,0,1,0,26.816,26.812A26.844,26.844,0,0,0,361.736,355.528Z" transform="translate(-180.777 -40.357)" fill="#3d414f"/>
        <g>
          <rect x="84.582" y="394.031" width="9.951" height="14.926" fill="#3d414f"/>
          <g>
            <path d="M367.5,492.08c-17.9,0-38.126-6.814-47.706-21.833-11.738-18.4-10.427-44.073-10.427-65.373a39.034,39.034,0,0,0-78.067,0H221.35a48.984,48.984,0,1,1,97.969,0c0,19.866-1.215,44.214,8.867,60.021,11.833,18.556,49.645,23.36,68.469,8.211,8.584-6.914,12.578-19.064,10.166-30.957-2.133-10.527-8.814-18.123-18.33-20.84-9.411-2.683-19.051.088-21.495,6.18-4.5,11.2,3.334,17.682,10.209,15.632a5.23,5.23,0,0,0,3.817-4.554l4.909.795c-1.042,23.286-40.217,14.435-28.168-15.581,4.361-10.863,19.065-16.146,33.458-12.041,13.023,3.718,22.5,14.347,25.354,28.433,3.139,15.5-2.232,31.466-13.683,40.684C393.841,488.142,381.143,492.08,367.5,492.08Z" transform="translate(-180.777 -40.357)" fill="#3d414f"/>
            <rect x="84.582" y="307.242" width="9.951" height="14.924" fill="#3d414f"/>
            <g>
              <rect x="42.077" y="360.31" width="20.393" height="9.95" fill="#3d414f"/>
              <rect x="112.835" y="360.31" width="20.392" height="9.95" fill="#3d414f"/>
            </g>
            <path d="M270.335,439.363A32.063,32.063,0,1,1,302.4,407.3,32.1,32.1,0,0,1,270.335,439.363Zm0-54.175A22.112,22.112,0,1,0,292.447,407.3,22.138,22.138,0,0,0,270.335,385.188Z" transform="translate(-180.777 -40.357)" fill="#3d414f"/>
          </g>
          <path d="M270.335,495.357a25.037,25.037,0,1,1,25.036-25.036A25.063,25.063,0,0,1,270.335,495.357Zm0-40.123a15.086,15.086,0,1,0,15.085,15.087A15.1,15.1,0,0,0,270.335,455.234Z" transform="translate(-180.777 -40.357)" fill="#3d414f"/>
        </g>
        <path d="M309.414,426.109c-1.847-19.25,7.935-34.323,17.927-40.458l5.216,8.473.025-.014c-.625.393-15.293,9.922-13.263,31.049Z" transform="translate(-180.777 -40.357)" fill="#3d414f"/>
        <path d="M417.355,389.888h-9.947c0-3.021-.837-5.274-2.55-6.891-3.252-3.068-9.213-3.451-11.042-3.345l-.583-9.932c1.169-.067,11.543-.477,18.451,6.039C415.4,379.257,417.355,384.142,417.355,389.888Z" transform="translate(-180.777 -40.357)" fill="#3d414f"/>
      </g>
      <g>
        <path d="M439.845,382.34A36.763,36.763,0,1,1,476.608,419.1,36.8,36.8,0,0,1,439.845,382.34Zm9.951,0a26.812,26.812,0,1,0,26.812-26.812A26.841,26.841,0,0,0,449.8,382.34Z" transform="translate(-180.777 -40.357)" fill="#3d414f"/>
        <g>
          <rect x="382.26" y="394.031" width="9.951" height="14.926" fill="#3d414f"/>
          <g>
            <path d="M470.842,492.08c17.9,0,38.13-6.814,47.71-21.833,11.738-18.4,10.424-44.073,10.424-65.373a39.033,39.033,0,0,1,78.067,0h9.951a48.983,48.983,0,1,0-97.965,0c0,19.866,1.215,44.214-8.867,60.021-11.833,18.556-49.644,23.36-68.469,8.211-8.588-6.914-12.578-19.064-10.17-30.957,2.133-10.527,8.817-18.123,18.334-20.84,9.41-2.683,19.047.088,21.494,6.18,4.491,11.2-3.333,17.682-10.212,15.632a5.226,5.226,0,0,1-3.814-4.554l-4.912.795c1.045,23.286,40.216,14.435,28.172-15.581-4.361-10.863-19.068-16.146-33.458-12.041-13.023,3.718-22.5,14.347-25.357,28.433-3.139,15.5,2.232,31.466,13.683,40.684C444.506,488.142,457.2,492.08,470.842,492.08Z" transform="translate(-180.777 -40.357)" fill="#3d414f"/>
            <rect x="382.26" y="307.242" width="9.951" height="14.924" fill="#3d414f"/>
            <g>
              <rect x="414.323" y="360.31" width="20.389" height="9.95" fill="#3d414f"/>
              <rect x="343.565" y="360.31" width="20.389" height="9.95" fill="#3d414f"/>
            </g>
            <path d="M535.946,407.3a32.065,32.065,0,1,1,32.067,32.063A32.1,32.1,0,0,1,535.946,407.3Zm9.951,0a22.114,22.114,0,1,0,22.116-22.112A22.14,22.14,0,0,0,545.9,407.3Z" transform="translate(-180.777 -40.357)" fill="#3d414f"/>
          </g>
          <path d="M542.973,470.321a25.038,25.038,0,1,1,25.04,25.036A25.067,25.067,0,0,1,542.973,470.321Zm9.951,0a15.087,15.087,0,1,0,15.089-15.087A15.105,15.105,0,0,0,552.924,470.321Z" transform="translate(-180.777 -40.357)" fill="#3d414f"/>
        </g>
        <path d="M528.933,426.109c1.847-19.25-7.938-34.323-17.927-40.458l-5.219,8.473-.024-.014c.625.393,15.293,9.922,13.266,31.049Z" transform="translate(-180.777 -40.357)" fill="#3d414f"/>
        <path d="M420.989,389.888h9.951c0-3.021.833-5.274,2.546-6.891,3.256-3.068,9.213-3.451,11.042-3.345l.586-9.932c-1.169-.067-11.547-.477-18.454,6.039C422.952,379.257,420.989,384.142,420.989,389.888Z" transform="translate(-180.777 -40.357)" fill="#3d414f"/>
      </g>
    </g>
    <rect x="20.59" y="293.467" width="435.612" height="15.881" fill="#56575d"/>
    <g>
      <g>
        <path d="M356.52,258.05l10.541,12.88,6.518-16.822,6.522,16.822,10.537-12.88a33.425,33.425,0,0,1,5.106,18.147c0,15.7-9.944,28.466-22.165,28.466S351.411,291.9,351.411,276.2a33.4,33.4,0,0,1,5.109-18.147Z" transform="translate(-180.777 -40.357)" fill="#9764a9"/>
        <path d="M402.115,258.05l10.54,12.88,6.519-16.822,6.522,16.822,10.537-12.88a33.392,33.392,0,0,1,5.106,18.147c0,15.7-9.944,28.466-22.165,28.466S397.008,291.9,397.008,276.2a33.4,33.4,0,0,1,5.106-18.147Z" transform="translate(-180.777 -40.357)" fill="#ed3026"/>
        <path d="M447.709,258.05l10.54,12.88,6.519-16.822,6.522,16.822,10.537-12.88a33.425,33.425,0,0,1,5.106,18.147c0,15.7-9.944,28.466-22.165,28.466S442.6,291.9,442.6,276.2a33.4,33.4,0,0,1,5.106-18.147Z" transform="translate(-180.777 -40.357)" fill="#9764a9"/>
      </g>
      <rect x="160.809" y="241.493" width="155.17" height="59.915" fill="#d05928"/>
      <rect x="155.816" y="241.493" width="165.16" height="16.145" fill="#f89721"/>
    </g>
  </g>
</svg>
