<svg id="Слой_1" data-name="Слой 1" xmlns="http://www.w3.org/2000/svg" xmlns:xlink="http://www.w3.org/1999/xlink" viewBox="0 0 269 595.28"><defs><style>.cls-1{fill:#a0c77b;}.cls-2{fill:#8eb567;}.cls-3{fill:#b3de85;}.cls-4{fill:#2f1303;}.cls-5{fill:#eaa975;}.cls-6{fill:#121f5e;}.cls-7{fill:#132279;}.cls-23,.cls-8{fill:#9b0c01;}.cls-9{fill:#d73f35;}.cls-10{fill:#6f0000;opacity:0.54;}.cls-11{fill:#ca7751;}.cls-12,.cls-16{fill:#fff;}.cls-13{fill:url(#ЃезымЯнный_градиент_3);}.cls-14{fill:#4d1102;}.cls-15{fill:url(#ЃезымЯнный_градиент_3-2);}.cls-16{opacity:0.5;}.cls-17{fill:url(#ЃезымЯнный_градиент_3-3);}.cls-18{fill:url(#ЃезымЯнный_градиент_3-4);}.cls-19,.cls-24{fill:#fbf497;}.cls-19{opacity:0.2;}.cls-20{fill:#b6c9fc;}.cls-21{fill:url(#ЃезымЯнный_градиент_16);}.cls-22{fill:#669548;}.cls-23{opacity:0.43;}.cls-24{opacity:0.28;}.cls-25{fill:#447874;}.cls-26{fill:#36605c;}.cls-27{fill:#56978f;}</style><linearGradient id="ЃезымЯнный_градиент_3" x1="510.11" y1="319.84" x2="522.87" y2="319.84" gradientTransform="matrix(-1, 0, 0, 1, 651.64, -221.42)" gradientUnits="userSpaceOnUse"><stop offset="0" stop-color="#8d341c"/><stop offset="1" stop-color="#601c15"/></linearGradient><linearGradient id="ЃезымЯнный_градиент_3-2" x1="406.53" y1="313.51" x2="419.14" y2="313.51" gradientTransform="matrix(-0.93, 0, 0, 0.92, 548.36, -197.74)" xlink:href="#ЃезымЯнный_градиент_3"/><linearGradient id="ЃезымЯнный_градиент_3-3" x1="559.72" y1="30.11" x2="623.21" y2="172.71" gradientTransform="matrix(-1, 0, 0, 1, 701.5, 0)" xlink:href="#ЃезымЯнный_градиент_3"/><linearGradient id="ЃезымЯнный_градиент_3-4" x1="499.8" y1="109.86" x2="523.95" y2="164.11" gradientTransform="matrix(-1, 0, 0, 1, 701.5, 0)" xlink:href="#ЃезымЯнный_градиент_3"/><linearGradient id="ЃезымЯнный_градиент_16" x1="548.86" y1="326.95" x2="548.86" y2="156.85" gradientTransform="matrix(-1, 0, 0, 1, 701.5, 0)" gradientUnits="userSpaceOnUse"><stop offset="0" stop-color="#639a41"/><stop offset="1" stop-color="#a0c77b"/></linearGradient></defs><title>Монтажная область 1</title><path class="cls-1" d="M68.79,392.92l36.62,1.23A22.09,22.09,0,0,0,98.14,384h0a20.79,20.79,0,0,0-13-4.16c-8.49,0-12.86,5.58-14.85,9.44l0,0A18.53,18.53,0,0,0,68.79,392.92Z"/><path class="cls-2" d="M68.79,392.92l36.62,1.23A22.09,22.09,0,0,0,98.14,384h0a28.44,28.44,0,0,1-13.89,6,36.38,36.38,0,0,1-14-.69l0,0A18.53,18.53,0,0,0,68.79,392.92Z"/><path class="cls-3" d="M80.81,393.19s4.57-5.08,6.29-6.94-.06-2.2-.4-3.16,1.44-2.33.82-2.53-4.55,1.37-5.42.75-1.15-1.85-2.07-1.71-5.1,1.23-6.88,2.94-2.46,6-2.46,6l8.41,4.78Z"/><path class="cls-3" d="M100.28,385.93A9.5,9.5,0,0,0,94.77,387c-2.39,1.48-1.71,3.88-2.87,4.29a9.08,9.08,0,0,0-2.67,2.12l16.18.73S103.51,388.6,100.28,385.93Z"/><polygon class="cls-4" points="101.74 394.57 109.28 355.36 50.77 353.72 53.85 394.57 55.08 394.57 55.08 357 102.92 359.26 100.67 394.57 101.74 394.57"/><path class="cls-5" d="M142.23,538.88a80.85,80.85,0,0,1-2.76,10.57c-1.32,3.21-2.41,5.45-2.33,7s4.57,2,9.72,5.15,14.38,3.56,17.55,3.43S144.08,552,144,550.16s3.68-10.58,3.68-10.58Z"/><path class="cls-6" d="M138.65,551.41s8.54,6.66,13.09,7.91,6.29.59,6.29.59,8.22,3,8.48,4.12a2.27,2.27,0,0,1-1.25,2.53c-.86.42-10.09.52-15-1.48s-14.12-6.29-14.12-7.87S138.65,551.41,138.65,551.41Z"/><polygon class="cls-5" points="152.46 550.33 157.42 564.04 161.39 564.04 159.8 550.33 152.46 550.33"/><path class="cls-5" d="M161.39,564s6.31,5.41,10.63,8.69,17.73,4.47,17.43,6.11-7.89,6-16.24,3.87-15.89-6.11-16.29-7.89.5-10.77.5-10.77Z"/><path class="cls-7" d="M156.92,569s9.83,8.74,15.19,9.83a11.15,11.15,0,0,0,9.29-2.69s8.39.81,8,2.69-5.51,5.86-14.05,5.06-17.58-6.65-18.57-8.54S156.92,569,156.92,569Z"/><path class="cls-8" d="M114.75,315.22l0,0,12.28,36.67,3.78,11.23,5.29,140.63,1.28,33.88,10,6.11s9.87-37.89,19.12-77.65v0c5.19-22.3,10.18-45.18,13.14-62.29,4.29-24.9,6.45-44.77,7.54-58.06,1-12.15,1.08-18.8,1.08-18.8Z"/><path class="cls-9" d="M115.19,355c.79,5.32,1.86,11.1,3.33,17.34,6.13,25.92,11.61,54.25,13.25,71.44s-.53,37.44,4.34,59.94l0,.21c3,13.57,7.83,29.33,11.27,39.78,2.28,6.95,3.93,11.55,3.93,11.55h11.91s1-14.7,1.94-34.11c.8-17,1.51-37.59,1.35-55.08v0c-.07-7.92-.33-15.22-.82-21.24-1.54-18.61-2.5-42.75-4.3-63.18-.76-8.67-1.68-16.69-2.86-23.32s-2.64-12-4.48-15.17c-7.8-13.48-38.36-27.53-39.32-28l0,0s-.11.54-.3,1.58C113.76,321.18,112.22,334.58,115.19,355Z"/><path class="cls-10" d="M115.19,355a34.84,34.84,0,0,1,11.86-3.14,46.75,46.75,0,0,1,11.17.16c14,1.87,20.35,6.29,20.35,6.29s2.5-4.73,9.76-8.28,18.85-4.29,18.85-4.29l0,0c1-12.15,1.08-18.8,1.08-18.8l-73.56-11.73S111.51,329.72,115.19,355Z"/><path class="cls-4" d="M106.6,165.81s22.82-4.93,37.89-6.3,22.72,3.28,38.19-1.37,19.58-21.2,9.18-46.46-9.31-43.47-9.31-43.47-4.63-12.44-17.23-16.54-53.8-2.21-53.8-2.21L87.3,101.81l-1.64,40.5Z"/><path class="cls-11" d="M144,137.78a71.27,71.27,0,0,1,.56,11.36,49.38,49.38,0,0,1-1.59,8.29s1.88,2,6.35,1.68,4.54-2.26,4.54-2.26a24.84,24.84,0,0,1-1.73-6.56,26,26,0,0,1-.1-8.35Z"/><path class="cls-5" d="M84.84,91.35c2.74,10.4,26.56,41.9,35.31,45.18s30.66,8.21,44.34,4.38a29.44,29.44,0,0,0,13.17-7.9c4.88-5,7.41-10.84,7.9-14.27.82-5.75-2.73-12.32-8.75-20.74s-6.29-16.77-8.75-29.78c-.07-.36-.15-.74-.23-1.12l0,0c-2.86-13-14-31.53-51.22-22.3C93.59,50.5,82.1,81,84.84,91.35Z"/><path class="cls-11" d="M84.84,91.35c2.74,10.4,26.56,41.9,35.31,45.18s30.66,8.21,44.34,4.38a29.44,29.44,0,0,0,13.17-7.9v0a41.54,41.54,0,0,1-40.31,1.58c-21.89-11-28-44.16-25.83-55.92S139.58,58,151.35,58.52c11.41.53,16.18,8.1,16.46,8.57-2.86-13-14-31.53-51.22-22.3C93.59,50.5,82.1,81,84.84,91.35Z"/><path class="cls-11" d="M143.78,110s-9.25,5-19.53-2c-7.23-4.95-7.11-16-7.11-16s2.72,12.61,10.82,16a24.8,24.8,0,0,0,15.36,1.17Z"/><path class="cls-12" d="M124.85,106.2a19.9,19.9,0,0,0,6.23,3.47c8.06,2.13,12.25-.61,12.25-.61a64.74,64.74,0,0,0-2.42-14.83v0a24.08,24.08,0,0,0-4.26-8.54c-.13-.15-.25-.31-.39-.44-5.14-5.53-13.35-6.9-18-1.09-1.22,1.53-1.64,3.82-1.45,6.39A24.72,24.72,0,0,0,124.85,106.2Z"/><ellipse class="cls-13" cx="135.16" cy="98.42" rx="6.38" ry="8.92" transform="translate(-27.07 57.95) rotate(-22.06)"/><ellipse class="cls-14" cx="135.28" cy="98.71" rx="4.17" ry="5.83" transform="translate(-27.17 58.02) rotate(-22.06)"/><ellipse class="cls-12" cx="129.81" cy="100.92" rx="5.15" ry="1.03" transform="translate(-19.16 31.33) rotate(-12.83)"/><path class="cls-12" d="M124.85,106.2c-.64-1-9.73-14.49-.42-19.69s16.49,7.73,16.49,7.73v0a24.08,24.08,0,0,0-4.26-8.54,18.12,18.12,0,0,0-13.1-3c-3.55.76-5.73,4.26-6.69,7.88A24.72,24.72,0,0,0,124.85,106.2Z"/><path class="cls-14" d="M140.74,93.13s-6.85-12.36-16.12-9c-10,3.68-5.94,13.38-5.94,13.38l-10.42-2.5s5.85-1.33,6.93-4.37c1.19-3.33,2.74-10,10.06-10.84C135.9,78.68,140.74,93.13,140.74,93.13Z"/><path class="cls-11" d="M171.1,86.42s5.12,8.9,1.29,14.38c-3.38,4.84-11.53,3.14-11.53,3.14l-.44-.22s7.52.68,10.66-3.63-.42-13.17-.42-13.17Z"/><path class="cls-12" d="M155.81,95.11a32.89,32.89,0,0,0,4.62,8.61s11,1.24,11.81-6.94a18.18,18.18,0,0,0-.09-4.15.1.1,0,0,1,0,0v0a.2.2,0,0,0,0-.09c-1-7.39-6-15.37-11.94-15.32-4.61,0-7.66,4.81-5.8,13.12l.07.31v0A35.45,35.45,0,0,0,155.81,95.11Z"/><ellipse class="cls-15" cx="165.33" cy="91.04" rx="5.85" ry="8.12" transform="translate(-17.3 43.4) rotate(-14.22)"/><ellipse class="cls-14" cx="165.4" cy="91.32" rx="3.82" ry="5.31" transform="translate(-17.36 43.43) rotate(-14.22)"/><path class="cls-12" d="M156.13,93.9c.1.61,1.79.86,4.27.46s4.41-1.21,4.31-1.83-2.19-.79-4.67-.4S156,93.28,156.13,93.9Z"/><path class="cls-12" d="M155.81,95.11s-3.62-14.73,5.82-15.19c7.86-.38,10.28,11.51,10.5,12.62v0a.7.7,0,0,1,0-.13c-1-7.39-6-15.37-11.94-15.32-4.61,0-7.66,4.81-5.8,13.12l.07.31v0C155.14,92.95,155.81,95.11,155.81,95.11Z"/><path class="cls-14" d="M154.25,89.66s-1.15-10.55,5.92-11.42,10.49,8.67,10.49,8.67l6-6.81s-4.94,1.36-7.11-.63c-3.06-2.83-6.23-5.83-9.82-5.37C150.12,75.32,154.25,89.66,154.25,89.66Z"/><path class="cls-16" d="M165.53,108.41c.25-1.81-7.72-.74-9.95,1.2S165.34,109.84,165.53,108.41Z"/><path class="cls-16" d="M154.1,110.07c1,.64-2.64,2.59-3.28,2.21S153.13,109.47,154.1,110.07Z"/><path class="cls-14" d="M151.12,115.14a19.2,19.2,0,0,0,10.1.57c4.95-1.3,8.43-5.74,7.88-7-1-2.22-8.77-4.94-8.77-4.94s6.26,3,6.37,5.59C166.78,111.17,157.48,116.65,151.12,115.14Z"/><path class="cls-14" d="M173.81,117.84a47.37,47.37,0,0,1-14.06,5.06A120,120,0,0,1,142,124s10.65,8.72,18.34,6.41S173.81,117.84,173.81,117.84Z"/><path class="cls-12" d="M169,121.26a70.81,70.81,0,0,1-4.65,6.1c-1.77,1.89-5.91,2.92-9,2.32-4.45-.85-12.15-5.25-12.15-5.25S158.7,127.12,169,121.26Z"/><polygon class="cls-14" points="148.42 127.41 158.84 127.17 150.44 128.32 148.42 127.41"/><path class="cls-8" d="M170.38,119.56s-5.24.26-11.54.85-14.35,3.6-14.35,3.6a63.34,63.34,0,0,0,15.25-1.1C169,121.26,170.38,119.56,170.38,119.56Z"/><path class="cls-9" d="M171.55,121.26s-3.3,11.59-10.13,13.79-16.93-9.27-16.93-9.27,9.27,6.4,15.43,4.51S171.55,121.26,171.55,121.26Z"/><path class="cls-14" d="M125.07,63.61s-9.73,2.26-13.69,10.06a20.61,20.61,0,0,0-1.44,15s-1-7.33,2.53-11.37S126,68.88,125.07,63.61Z"/><path class="cls-14" d="M148.42,58.54s5.86-1,13.54,4.29c5.71,3.92,6.3,11.23,6.3,11.23s-1.87-7-6.86-8.69S148.57,64.65,148.42,58.54Z"/><path class="cls-17" d="M59.11,149.38c13.14,29.84,39.21,29,39.21,29l13.22-1.73s-10.3-35.06-13-54.85c-1.66-12.07,2-22.29,6.19-33.08,0,0,0,0,0-.07l0,0c3.25-8.26,6.87-16.85,8.79-26.85a73.92,73.92,0,0,0,1.26-10.07s18.39,2.13,37,3.3h0c2.18.15,4.38.26,6.55.38,20.53,1,24.22,12.79,24.22,12.79s.51-16.06-19.49-27.57-31.7-14.29-39.91-13.53c-5.53.49-10.94,5.86-13.88,9.3-1.41,1.68-2.27,2.91-2.27,2.91s-20,0-30.1,11a28.58,28.58,0,0,0-3.12,4.32l0,0c-4.19,6.88-9.2,18.89-13,32.53v0C54.9,108.16,51.91,133,59.11,149.38Z"/><path class="cls-18" d="M169.16,160.26a24.55,24.55,0,0,0,21.06-15.8c5-13.05-1.18-40.24-1.18-40.24s15.62,29,8.57,48.73S169.16,160.26,169.16,160.26Z"/><path class="cls-19" d="M60.75,87.16v0s9,11.91,24.37,10.36c14.39-1.45,19.07-8,19.59-8.8,0,0,0,0,0-.07l0,0c3.25-8.26,6.87-16.85,8.79-26.85-.71.18-16.37,4.42-27.34,1.08C75,59.47,73.79,54.59,73.79,54.59l0,0C69.57,61.5,64.56,73.51,60.75,87.16Z"/><polygon class="cls-5" points="87.1 341.58 90.41 322.93 96.44 323.07 90.03 341.2 87.1 341.58"/><path class="cls-20" d="M88.61,322.81,88,332.42l4.88.64,4.89-10A37.91,37.91,0,0,0,88.61,322.81Z"/><path class="cls-5" d="M216.9,335.24c1,1.64,5.84,7.76,8.3,9s9.07,3.92,9.07,3.92.17-1.62-2.43-3.13a27.6,27.6,0,0,1-4.74-3.61,20.39,20.39,0,0,1,7.14.6c3.37,1,5.45,2.57,6.41,2.4s-3-3.48-5.33-4.22A28.53,28.53,0,0,1,232.2,339a25.36,25.36,0,0,1,5,1.74c2.79,1.29,4.85,3.28,5.69,3.1s-2.55-3.92-6.55-5.89a11.8,11.8,0,0,0-4-1.35,24.88,24.88,0,0,1,4.58,1.64c3.11,1.36,4.54,3.27,5.22,2.94s-2.78-4-5.82-5.35a16.94,16.94,0,0,0-4.31-1.52,9.54,9.54,0,0,1,4.66.5c2.35.9,4.71,4.15,4.45,3.25s-2.88-5-8.55-6c-3.89-.67-13.77-.88-15.61-.87S215.22,332.58,216.9,335.24Z"/><polygon class="cls-5" points="218.57 331.22 213.82 319.71 207.92 320.98 216.9 335.24 218.57 331.22"/><path class="cls-20" d="M215.56,319.25l2.38,9.33-4.67,1.55-5.53-8.64A21.35,21.35,0,0,1,215.56,319.25Z"/><path class="cls-21" d="M86.72,323.23l12.73.69s16.67-51.29,20.84-64a304.35,304.35,0,0,0,9.16-33.36s2.2,18.61,1.61,32-18,55.81-18,55.81,11.5,5.78,31.48,10.15S193,325.94,193,325.94s-11.22-47.36-12-61.59c-.08-1.45-.15-2.78-.2-4-.51-10.89,0-13.61,0-13.61l24.48,76.19,13.37-3.22s-8.75-51.94-14.53-77.8c-5.12-22.94-13.57-50.35-21-65.15a39.54,39.54,0,0,0-5.4-8.62c-6.11-6.68-23.8-11.28-23.8-11.28l-10.89.57s-11.36,3.38-17.74,8.9h0a18.46,18.46,0,0,0-2.35,2.5,15.51,15.51,0,0,0-1.45,2.45.17.17,0,0,0,0,.08c-6.16,12.33-17.65,53.95-23.09,74.3C91.51,271.1,86.72,323.23,86.72,323.23Z"/><path class="cls-11" d="M98.39,133.48c7.39,0,13.14-6.14,13.14-6.14l-7-8.77-.15-.13c-1.66-1.38-16.8-13.81-22.84-10.45a4.76,4.76,0,0,0-.48.31h0C72.59,114.09,91.13,133.48,98.39,133.48Z"/><path class="cls-5" d="M80,109.31c.25,0,3.16,0,8.81,2.2a88.14,88.14,0,0,1,12.31,6.57l3.47.49-.15-.13c-1.66-1.38-16.8-13.81-22.84-10.45C81.4,108.09,80.11,109.19,80,109.31Z"/><path class="cls-22" d="M187.18,218.24s-8.07,5.86-24.22,7.26a143.64,143.64,0,0,1-29.26-.55s33,26.18,37.86,36.58,14.13,32.85,14.13,32.85-8.19-33.8-5-49.68S184.3,225.19,187.18,218.24Z"/><path class="cls-22" d="M121.4,171.35s4.35-.15,22.38,1,39.28,4.45,39.28,4.45a39.54,39.54,0,0,0-5.4-8.62c-6.11-6.68-23.8-11.28-23.8-11.28l-10.89.57s-14.85,4.42-20.1,11.4a15.51,15.51,0,0,0-1.45,2.45A.17.17,0,0,0,121.4,171.35Z"/><path class="cls-22" d="M94,323.63S90.54,289,95.65,270.76s25.65-88.88,31.4-94,21.37-4.12,21.37-4.12l-23.17-6.31h0a18.46,18.46,0,0,0-2.35,2.5,15.51,15.51,0,0,0-1.45,2.45.17.17,0,0,0,0,.08c-6.16,12.33-17.65,53.95-23.09,74.3-6.8,25.46-11.59,77.59-11.59,77.59Z"/><path class="cls-22" d="M180.72,260.35c-.51-10.89,0-13.61,0-13.61l24.48,76.19,4.24-1L183,232.72l-5.24,19.58Z"/><path class="cls-20" d="M157.43,157.89s-2.28-8.64-3.57-9.43a2.56,2.56,0,0,0-2-.53l-7.21,0a3.5,3.5,0,0,0-2.59.57c-.89.85-2.53,10.22-2.53,10.22A27.19,27.19,0,0,0,157.43,157.89Z"/><path class="cls-20" d="M191.74,326.06v5.13s-21.08,5.2-43.33-1-34-13.44-34-13.44l-1-2.18S141.63,328.78,191.74,326.06Z"/><path class="cls-23" d="M115.19,355c.79,5.32,1.86,11.1,3.33,17.34,6.13,25.92,11.61,54.25,13.25,71.44s-.53,37.44,4.34,59.94l0,.21c3,13.57,7.83,29.33,11.27,39.78,2.28,6.95,3.93,11.55,3.93,11.55h5s-9.56-45.51-14.76-66.6-8.21-50.35-12.6-81.29-5.21-85.88-5.21-85.88l-9.38-4.75C113.76,321.18,112.22,334.58,115.19,355Z"/><path class="cls-24" d="M152.72,423.92c.21,20.53,12.48,97.27,12.48,97.27.8-17,1.51-37.59,1.35-55.08v0c-.07-7.92-.33-15.22-.82-21.24-1.54-18.61-2.5-42.75-4.3-63.18C161.42,381.68,152.51,403.39,152.72,423.92Z"/><polygon class="cls-25" points="125.7 395.01 85.1 393.3 85.1 433.73 122.2 431.52 125.7 395.01"/><polygon class="cls-26" points="85.1 393.3 17.68 391.72 25.26 433.73 85.1 433.73 85.1 393.3"/><polygon class="cls-27" points="126.99 395.07 126.5 398.5 85.1 398.5 17.68 396.75 17.68 391.72 85.1 393.3 126.99 395.07"/><polygon class="cls-26" points="125.37 398.5 125.22 400.02 85.1 400.96 85.1 398.5 125.37 398.5"/><polygon class="cls-4" points="77.05 403.96 77.05 406.84 27.16 405.4 27.16 403.96 77.05 403.96"/><polygon class="cls-4" points="77.05 412.72 28.6 413.51 28.6 414.71 77.05 414.71 77.05 412.72"/><polygon class="cls-4" points="77.05 421.14 29.56 421.69 30.65 424.84 77.05 422.99 77.05 421.14"/><path class="cls-5" d="M79.1,393.3S19.57,359,12.38,360.24s38.39,32.25,38.39,32.25Z"/><path class="cls-11" d="M68.79,387.45s-14.46,1.21-16,0,10.7-2.93,10.7-2.93Z"/><path class="cls-11" d="M55.08,379.89s-14.44-.21-15.94-.76,10.13-2.37,10.13-2.37Z"/><path class="cls-11" d="M41.44,372.62s-11.2-.88-12.84-2.11,7.12-.82,7.12-.82Z"/><path class="cls-5" d="M87.1,341.58s-7.21,5.76-8.92,9.73-2.07,7.47-1.13,7.85a1.71,1.71,0,0,0,1.32,0,1.92,1.92,0,0,0,1.29,1.29,2.45,2.45,0,0,0,2-.51s.32.93,1.77.93c1.13,0,1.68-1.38,1.68-1.38a1.69,1.69,0,0,0,1.68.73c1.08-.15,1.5-1.63,1.5-1.63s-1.09.42-1.26-2.52a12.41,12.41,0,0,1,.24-2.57l.62,1.27,2.88.08s-.33-2.51-.69-5.87A65.4,65.4,0,0,1,90,341.2Z"/><polygon class="cls-11" points="85.15 359.48 84.7 357.29 84.49 360.42 85.15 359.48"/><polygon class="cls-11" points="81.69 359.92 81.55 356.88 80.68 360.42 81.69 359.92"/><polygon class="cls-11" points="78.36 359.14 78.71 356.23 77.42 359.26 78.36 359.14"/></svg>