<svg id="kitten_" data-name="kitten" xmlns="http://www.w3.org/2000/svg" viewBox="0 0 500 500"><defs><style>.cls-1{fill:#9a0000}.cls-2{fill:maroon}.cls-3{fill:#f68700}.cls-4{fill:#df6f00}.cls-5{fill:#ffe7c4}.cls-6{fill:#fecc80}.cls-7{fill:#fff}.cls-8{fill:#49b332}.cls-9{fill:#378726}.cls-10{fill:#e8f355}.cls-11{fill:#bbc212}.cls-12{fill:#ffb9bb}.cls-13{fill:#e6a7a8}.cls-18{fill:#521e07}.cls-20{fill:#cfa668}</style></defs><g id="_1" data-name="1"><path class="cls-1" d="M348 345l-6-2h-2v-1h1-1l2-6 1-7 1-6v-1l2-5v-1l1-6h1l1-6 2-6v-1h2a11 11 0 0 0 3 0 7 7 0 0 0 4-3l-2 5v1l-1 5h-1l-1 5v1l-2 5v1l-1 5v1l-1 6h-1l-1 6v1l-1 6v3zM257 327a105 105 0 0 1 14-13h1a10 10 0 0 0 3 0 14 14 0 0 0 7-2 14 14 0 0 0 3-1 14 14 0 0 0 5-2l1-1v1a112 112 0 0 0-34 19z"/><path class="cls-2" d="M286 332l-4-1h-1 1l5-3-1 3v1z"/><path class="cls-1" d="M294 333l-7-1v-1-3l1-1a288 288 0 0 1 4-17v-2a14 14 0 0 0 7-3 13 13 0 0 0 1-1h1l-1 1v2l-2 8v1l-2 8-2 9zM268 329l-10-1h-1 1a111 111 0 0 1 33-18l-2 8a111 111 0 0 0-21 11z"/><path class="cls-1" d="M281 331l-12-2a110 110 0 0 1 20-10l-2 8-6 4z"/><path class="cls-2" d="M291 309l1-1h-1l-1 1a14 14 0 0 1-5 2 14 14 0 0 1-3 1 14 14 0 0 1-7 2 10 10 0 0 1-3-1 105 105 0 0 0-15 14v1a112 112 0 0 1 14-10l20-9z"/><path class="cls-1" d="M302 334l-7-1h-1l1-1 1-8v-1l2-8 2-8v-1l1-2a10 10 0 0 0 6-9 12 12 0 0 0 0-1 6 6 0 0 1 3-1 7 7 0 0 1 2 1v1l-1 2v1l-2 7-1 1-2 7-1 8-1 1-1 7v1l-1 4zM437 422h-1l-10-2-8-2-7-1h-1l-7-2h-1l-7-2-4-1h-2 1l7-7h1l7 1v1h1l6 1 5 2h3v1l7 1 11 3c2 3-1 6-1 7zM441 406a3 3 0 0 1-2 2l-9-3-1-1-7-2-7-3h-1l-7-2h-1v-1l1-1h1l4-5 3 1h1l7 3 3 1 4 2h1l8 4h1a6 6 0 0 1 1 5z"/><path class="cls-1" d="M437 425a6 6 0 0 1-3 4l-10-2h-1l-7-1h-1l-7-1h-5l-3-1h-1l-7-1h-1l-7-2h-1l-3-1 5-4 1-1 3-2 5 1h1l7 1 1 1 7 1h1l6 2h1l7 1h1l10 2a3 3 0 0 1 1 3zM428 442l-11 1h-10l-8-1h-10l-8-1-5-1h-4l-7-1h-1l-6-1h-2l1-1 9-6 2-2 2 1h1l7 1h1l7 1h1l5 1h3l8 1 8 1h9l11 1a6 6 0 0 1-3 6z"/><path class="cls-1" d="M432 435h-12l-8-1h-9l-8-1h-3l-5-1-8-1h-1l-7-2h-2l3-2 1-1 6-5h1l3 1h1l7 1 8 1 4 1 4 1 8 1 8 1 11 1a5 5 0 0 1-2 6zM441 397a5 5 0 0 1-1 4l-1-1-8-3-1-1-4-1-3-1v-1l-7-2-1-1h-1l-1-1h-1l3-3 1-1 2-2 5 2h1l4 3 3 1 9 4a5 5 0 0 1 1 4zM440 385l-1-1-8-4v-1l-6-3h-1 1a32 32 0 0 0 7-2 37 37 0 0 0 6-2 6 6 0 0 1 2 4 12 12 0 0 1 0 9z"/><path class="cls-1" d="M440 393h-1l-8-5h-1l-1-1-5-2h-1l-4-3h-1 1l4-5 1-1 7 4 8 5h1a8 8 0 0 1 0 8zM437 372a42 42 0 0 1-5 2 43 43 0 0 1-8 1l6-7v-1l2-2v-1l1-1 1-1v-1h1c2 2 3 7 2 11zM373 451a124 124 0 0 1-10 10l-2-7 4-4 8 1zM364 450l-3 3-1-4 4 1z"/><path class="cls-1" d="M424 450h-1l-11 1h-30l-8-1h-1l-8-1h-6l-3-1h-4l-1-1h-4l-4-1h-1 1v-1l7-3v-1l4-2 2-1h2l5 1h1l8 1 3 1h6l8 1 8 1h31c1 2-1 5-4 7zM391 452l-5 7a134 134 0 0 1-19 16l-2-6a129 129 0 0 0 15-15l3-3 8 1z"/><path class="cls-1" d="M382 451v1l-2 2a129 129 0 0 1-15 14l-2-6v-1a125 125 0 0 0 10-10h9zM401 452a118 118 0 0 1-10 11 139 139 0 0 1-22 19l-2-6a134 134 0 0 0 19-17l6-7h9zM309 335h-1l-6-1 1-4v-1l2-8 2-8v-1a344 344 0 0 1 4-14v-1l1-3a6 6 0 0 1 3-2 9 9 0 0 0 4 3v2l-2 7-2 7v1l-2 7-2 8-1 8z"/><path class="cls-1" d="M411 451l-1 1a118 118 0 0 1-13 16 144 144 0 0 1-26 20l-2-6a139 139 0 0 0 22-19 117 117 0 0 0 10-11l9-1zM341 354h-2l-1-1-6-1h-1v-1h-1l-6-1h-1l-6-2h-2l-7-2-4-1h-4l-7-2h-2l-6-1h-1l-4-1h-1l-10-2h-1l-9-2h-1l-7-1h-1a11 11 0 0 1 6-8l1 1 11 1h1l11 1h1l5 1h1l6 1h1l8 1v1h5l1 1h2l7 1v1l5 1h3l7 2h1l6 2h1l7 2h1v1h-1l-1 3h-1l-4 5zM375 298v1l-1 3-1 1-2 4v1l-2 4-1 1-1 2-1 3h-1l-2 5h-1v1l-3 5v-1l1-5a245 245 0 0 1 3-11v-1l1-5h1l1-5v-1l2-4a8 8 0 0 1 1-1 8 8 0 0 1 5 2 8 8 0 0 1 1 1z"/><path class="cls-1" d="M332 340l-7-1v-1l2-7v-1l1-6v-1l2-6v-1l1-6h1v-1l1-6h1l1-6v-1a14 14 0 0 0 3 0 11 11 0 0 0 5 1v1l-2 5v1l-2 5v1l-1 6-1 1-1 6-2 6v1l-1 7-1 3v1zM317 337l-7-1v-2l2-7v-1a270 270 0 0 1 5-22l2-7 1-1a10 10 0 0 0 3 0 10 10 0 0 0 4 0v-1 2l-2 6v1l-2 6v1l-2 6v1l-1 7h-1l-1 7v1l-1 4z"/><path class="cls-1" d="M340 342l-7-1v-1-3l1-1 1-6v-1l1-6 2-6v-1l2-6v-1l1-5 1-1 1-5v-1h1a13 13 0 0 0 4 0 9 9 0 0 0 3 0v1h-1l-1 6-2 6-1 6-1 1-1 5v1l-1 6-1 1-1 6-1 6v1zM325 339l-1-1-6-1v-4-1l2-7v-1l2-6v-1l1-6 1-1 1-6 1-1 1-6v-1l1-1a9 9 0 0 0 6 2l1-1v1l-2 6a253 253 0 0 0-2 7l-1 6-1 1-1 6v1l-2 7-1 7v1z"/><path class="cls-2" d="M359 296l1-2a7 7 0 0 1-4 3 11 11 0 0 1-3 0h-2v1l-1 3c6 0 8-4 9-5zM318 300l1-3v-2a9 9 0 0 1-4-3 6 6 0 0 0-3 2l-1 3a14 14 0 0 0 7 3zM343 297a11 11 0 0 1-4-1 14 14 0 0 1-3 0v1h-1l-1 6c1 0 6-1 8-3l1-3z"/><path class="cls-2" d="M327 296a10 10 0 0 1-4 0 10 10 0 0 1-3 0h-1v1l-1 3h8l1-3v-2zM350 301l1-3v-1a9 9 0 0 1-3 0 13 13 0 0 1-3 0h-2v1l-1 3a18 18 0 0 0 8 0z"/><path class="cls-2" d="M333 303l2-6v-1 1h-1a9 9 0 0 1-6-2l-1 1v1l-1 3a12 12 0 0 0 7 3z"/><path class="cls-1" d="M334 364l-4-1h-1l-5-2h-2l-7-2h-1l-2-1h-1l-4-1h-1l-6-1-1-1h-1l-7-2h-2l-4-1h-2l-4-1h-1l-9-2h-1l-8-2h-1l-9-2-4-1h-1a9 9 0 0 1 5-7h1l6 1h1l10 1h1l10 2h1l4 1h1l5 1h3l7 2h3l5 1v1l7 1h1l7 2h1l5 1 1 1h1l7 2h3v1l-1 1-1 1v1l-1 1-4 5zM297 400l-7 5-1 1-2 1-6-2-11-4-7-2-6-3h-1l-4-2-2-1-6-2-1-1-6-2-4-2c-1-5 1-8 1-8v-1 1h1l6 2h1l6 3 7 2v1l7 2 7 2 1 1 6 2h1l3 1 1 1 8 2 8 3zM348 345v-3l1-6 1-1 1-6 1-6v-1l2-5v-1l1-5v-1l2-5v-1l1-5h1l1-5a6 6 0 0 1 2-1 7 7 0 0 1 5 3l-1 4v1l-2 5-1 5-1 1-1 5v1l-1 5v1l-2 5v1c0 1 0 0 0 0l-3 5v1l-4 6h-1l-2 3z"/><path class="cls-1" d="M286 408l-4 3h-1l-5 4-12-5-6-3h-1l-5-2-1-1-6-2v-1l-6-2v-1l-6-2-1-1c-1-3 0-8 1-8v-1 1l3 1h1l6 3 6 3h1l2 1 4 1 1 1 6 2 6 3h1l11 4h1l4 2zM307 391l-2-1h-1l-7-2h-1l-7-2-1-1h-3v-1l-3-1h-2l-2-1h-1l-7-2-1-1-7-2h-1l-7-2-7-3h-1l-6-2h-1l-3-1v-1c-1-4 1-7 2-7l6 2h2l6 2h1l7 2h1l5 1 2 1h1l10 3 2 1h2l2 1 4 1 5 1 1 1h2l8 2 11 3v1l-3 2-1 1-5 5z"/><path class="cls-1" d="M307 391l-2 2h-1l-7 6-8-2h-1l-7-3h-1l-3-1-7-3h-1l-6-2h-1l-6-3h-1l-6-2h-1l-6-3h-1l-6-2v-1h-1c-2-5 1-8 2-8l3 1h1l6 3h1l7 2 7 2 1 1 7 2 7 2h1l4 2 3 1h1l4 1 8 2v1l7 2h3zM316 382l-3-1h-1l-7-2-8-2-9-3h-2l-4-1-4-1-1-1-6-1-2-1-8-2-8-2v-1l-8-2-3-1-4-1c0-6 3-7 3-7h2l8 2h1l5 1 2 1h1l8 2h1l8 2h1l4 1 3 1 5 1 6 2h2l7 2 2 1 5 1h2l7 2 2 1h2l-2 3-2 1v1l-4 4z"/><path class="cls-1" d="M325 373l-4-1-2-1-5-1h-1l-5-2h-3l-7-2h-1l-7-2-3-1-5-1-4-1-9-2-8-2h-1l-8-2h-1l-7-2h-1l-1-1h-1a6 6 0 0 1 4-7h5l8 2h1l9 2h1l9 2h1l4 1 5 1h1l2 1 7 2h2l6 1h1l1 1h3l3 1 8 2h1l6 2h1l3 1-3 4-1 1-4 4zM438 415l-13-4-5-1-3-1-5-1-7-2-7-2 7-7h2v1l7 2h1l6 2h1l7 3 10 3a2 2 0 0 1 1 2l-2 5zM419 332v1l-2 2v1l-2 3v1a215 215 0 0 1-6 8v1l-1 2-1 1-1 1-3 4v1l-2 2-2 3-1 1-3 4-1 1-1 2-1 1-3 4-2 2-1 1-1 1-6 7-1 1h-1l-8 8v1l-1 1-8 7-1 1-2 2-1 1-2 1-1 1-1 1-2 2h-1l-2 2-1 1-7 5h-1v1l-6 4h-1l-5 4h-1l-1 1-6 4h-1l-4 2-1 1h-1v1h-1l-6 3-1 1-2 1-5 2-1 1-6 3h-1l-29 12h-1a4 4 0 0 1-3-1 3 3 0 0 1 0-3h1l31-13v-1l7-3 3-2 4-2h1l2-1v-1l4-2h1l6-4 1-1h1v-1l6-3v-1l6-3v-1h1l1-1 6-5h1l2-2h1l4-4 2-1c1-2 2-3 4-3v-1l1-1 1-1 7-6 1-1 1-1 7-7 1-2 1-1 5-5 1-1 2-2 1-1 4-5v-1l2-3h1l3-4v-1l3-3v-1l3-4 1-1 2-3v-1h1l3-4v-1l2-4 1-1a234 234 0 0 0 4-8h1l1-3 1-1c2 0 4 3 5 5a10 10 0 0 1 1 3z"/><path class="cls-1" d="M425 341l-1 1v1l-3 3v1l-2 4h-1l-2 4-1 1v1l-1 1-1 1-1 1-3 5h-1l-1 2-1 1-1 2-3 3-1 1v1l-7 7v1l-7 7v1l-2 1v1l-6 6h-1l-3 3-1 1-4 4h-1v1l-6 5-1 1-3 2-2 2-2 1-1 1-6 5h-1l-1 1-5 3-1 1-5 3-2 1v1l-7 4h-1l-3 2-1 1h-2v1h-1l-5 3-1 1h-1l-1 1-5 2h-1l-6 3-1 1-6 3h-1l-27 10h-1l-3-1a3 3 0 0 1 0-2v-1c10-3 20-7 29-12h1l6-3h1l7-3v-1l2-1 5-2v-1l3-1 4-2 1-1 6-4h1l1-1h1l4-3 1-1 6-4h1v-1l7-5 4-3 2-1 1-1 1-1 1-1 1-1 4-3v-1l7-6 1-1 1-1h1l7-8h1v-1l7-8h1l1-1 5-7h1l1-2 5-6 2-3 2-3 3-4 1-1v-1l2-3v-1a260 260 0 0 0 6-8l2-4 2-3c3 0 5 3 5 6a12 12 0 0 1 1 2z"/><path class="cls-1" d="M413 325l-2 3-1 1-2 3v1l-2 4h-1l-2 4v1l-3 4v1l-3 4h-1l-2 3v1l-1 1-2 3-1 1-2 3-1 1-3 4-4 4v1l-3 3v1l-4 4-1 1h-1l-2 3-6 6-1 1-1 1v1h-1l-6 6-1 1-2 1v1h-1l-3 3-1 1h-1l-4 4-1 1-1 1h-1l-7 5v1l-2 1-5 3-1 1-6 4h-1l-6 4-1 1-5 3-2 1-5 3-2 1h-1l-6 3-1 1-31 13h-1a4 4 0 0 1-2-1 3 3 0 0 1-1-2l1-1a349 349 0 0 0 33-15l4-3 3-1h1l2-2h1l3-2h1l6-5h2v-1l6-3v-1l5-3 1-1 1-1h1l7-5v-1l1-1h1l5-4v-1h1l4-3 1-1 2-2 7-6v-1l1-1 7-7 1-1 4-4v-1l3-3 1-1 4-4v-1l3-3 4-5v-1l2-3h1v-1l1-1 2-3 1-1 1-1 3-4v-1l1-1v-1l2-2v-1l3-4v-1l2-4h1l2-4v-1l2-3 1-1 1-3a7 7 0 0 1 6 4 7 7 0 0 1 1 2z"/><path class="cls-1" d="M399 312l-1 1v1h-1l-2 4v1l-2 4-1 1-1 2-1 2v1h-1l-2 4-2 3-1 1v1l-3 5h-1l-1 2v1l-2 2v1l-3 4h-1v2l-6 7v1h-1l-7 8v1l-6 6v1l-2 1v1l-6 6h-1l-2 2v1l-5 4-1 1-3 3h-1l-3 3-7 6-1 1-7 5-3 2-4 3-1 1-6 4h-1l-7 5-4 2-1 1-2 1h-1v1a347 347 0 0 1-35 17 3 3 0 0 1-3-1 3 3 0 0 1 0-3h1a348 348 0 0 0 31-17l2-1h1l2-2 7-4 1-1 1-1 6-3v-1l5-3 2-2h1l7-5v-1h1a228 228 0 0 0 7-6l3-3 4-3 1-1 4-4v-1h1l2-2v-1l6-6h1l1-1v-1h1l5-7h1l1-2 1-1 5-6 4-5 1-1 2-3v-1h1l1-1v-1l4-5v-1l1-1 3-4v-1l2-3 1-1v-1l3-5 1-1v-1l2-3 3-4v-1l2-4v-1l2-4h1a5 5 0 0 1 1 0 6 6 0 0 1 3 1 6 6 0 0 1 3 4z"/><path class="cls-1" d="M406 318l-2 3v1l-2 3v1l-3 4-2 4-1 1-2 4-1 1v1l-1 1-1 2-1 1-3 4v1h-1l-3 5-1 1v1l-1 1-1 1-4 6h-1l-1 2-1 1-5 6-2 3h-1l-5 5v1l-7 7-1 1-1 1-6 5v1l-3 2-1 1-3 3h-1l-6 5-1 1-7 5-1 1-2 1v1l-4 3h-1l-7 4v1l-7 4h-1l-4 3h-1l-1 1-1 1h-1l-2 1-2 2h-2v1a349 349 0 0 1-33 15h-1a4 4 0 0 1-3-1 3 3 0 0 1 0-3h1a349 349 0 0 0 34-17h1l3-2 3-2 1-1 7-4h1v-1l6-4h1l4-3 1-1 1-1h1l7-6h1v-1h1a300 300 0 0 0 6-5l4-3v-1l3-2 1-1v-1l5-4 1-1 1-1h1l6-7 1-1 1-1 6-7 1-1 5-6 1-1 1-1v-1l5-6 1-1v-1l1-1 3-4v-1l1-1 1-1 1-2 1-1 3-4v-1l3-4v-1l2-3v-1h1v-1l2-4h1l2-4v-1l2-4h1v-2l1-1a6 6 0 0 1 4 2 6 6 0 0 1 2 2 6 6 0 0 1 1 2zM430 350v1l-2 2v1l-3 4-2 3-1 1-6 8v1h-1v1l-5 6-1 1v1h-1l-1 1-4 5-2 2v1l-5 4v1l-4 4h-1l-3 3v1l-7 6-1 1h-1v1l-10 8v1h-2a262 262 0 0 1-9 7l-1 1-1 1h-1l-2 2-2 1-2 2h-1l-3 2-1 1-2 2h-1l-6 4h-1l-1 1-1 1h-2l-2 2h-1l-3 2-3 1-1 1-6 3h-1l-7 3-7 3-7 3c-8 4-17 6-25 9h-1a4 4 0 0 1-3-1 3 3 0 0 1-1-2l1-1 27-10h1l6-3h1l6-3h1l6-4h1l2-1 4-2 1-1 3-1 1-1 3-1v-1l7-4 2-1h1v-1l4-2v-1l5-3 2-1h1v-1h1l5-4 1-1 2-1 2-2 1-1h1l1-1 7-7h1l3-3 1-1 5-4v-1l5-4v-1h1l2-2v-1l6-6v-1h1v-1h1l6-7v-1l6-7 1-1v-1l4-5 1-1 1-2 1-1v-1h1l2-4 1-1 2-3v-1l3-3v-1l1-1a4 4 0 0 1 3 1 8 8 0 0 1 2 5 14 14 0 0 1 0 2zM295 469l-1 1-18 8h-1c-3 0-4-2-4-2l1-1 22-7v1z"/><path class="cls-1" d="M435 357a14 14 0 0 1 0 4h-1l-1 1-1 2-1 1v1l-1 1-6 8-1 1-5 6v1l-2 1v1l-4 4v1l-4 4h-1l-2 2v1l-7 6-1 2-8 7-2 2-1 1-7 5v1l-5 3-1 1-5 4-1 1h-1l-8 6h-1l-1 1-1 1-5 3-7 4h-1l-1 1-4 2-1 1-2 1-5 2-6 3-1 1-6 3h-1l-6 3h-1l-3 1-3 2h-1l-6 2h-1l-22 8h-1c-4 0-4-3-4-4h1l24-9h1l6-2 1-1 6-2 1-1 6-3h1l6-3h1l4-2 2-2h1l1-1 2-1h1l1-1 1-1h1l6-4h1l4-3 2-1 1-1h1v-1l2-1 4-2v-1l2-1h1v-1l3-2 5-3 1-1 1-2h1l9-8h1v-1h1l7-7 1-1 2-1v-1l5-5 1-1 3-3 1-1 2-3h1l4-6h1l1-1v-1l5-6 1-1 6-8v-1h1l2-4h1l2-4 2-3a4 4 0 0 1 3 1 4 4 0 0 1 1 0 8 8 0 0 1 1 5zM246 413l-7 17h-1c-3-2-2-8-2-9l5-11 5 3zM240 410l-4 10h-1c-2-3-1-10-1-11l1-2 5 3zM391 307l-2 4v1l-2 4-1 1-2 4-2 2v1l-1 2-3 5v1l-1 1-2 3-1 1-2 3v1l-1 1-4 6v1h-1v1h-1l-2 4-1 1-3 4-1 1-4 5-3 3v1l-5 5-1 1-2 2v1l-5 5-1 1-3 2v1h-1l-3 4h-1l-4 4-1 1-3 2v1l-7 5-1 1-7 5-1 1-2 1-1 1-4 3-6 4-1 1-7 4-1 1-3 1v1l-2 1a348 348 0 0 1-31 16h-1a4 4 0 0 1-2-4l5-3 24-13 9-6h1l1-1 5-4h1l5-4 2-1 1-1 7-5v-1h1l6-6h1l2-2 1-1 4-4h1l4-4v-1l3-2 1-1 5-5v-1l3-2v-1l5-5 1-1 2-3 1-1 4-5 1-2h1v-1l2-3 1-1 2-2v-1l4-5 1-1 2-4h1v-1-1l4-5v-1l1-1 2-3v-1l2-3 1-1v-1l3-4v-1l2-4v-1l2-4 1-1v-1l1-1a5 5 0 0 1 1 0c3 0 5 2 6 5z"/><path class="cls-1" d="M235 407h-1v2h-1a2 2 0 0 1 0-3h1zM265 422l-11 7h-1 1l5-10 6 3zM258 419l-5 10-9 5 9-18 5 3zM297 475l-16 7h-1c-3 0-4-2-5-3l1-1 19-8 2 4z"/><path class="cls-1" d="M383 302l-1 2v1l-2 4v1l-2 3v1h-1l-2 5-1 1-2 4-1 1-1 2v1l-1 2h-1l-3 5v1h-1l-3 5v1l-4 5v1h-1v1l-1 1-4 5-1 2-4 4v1l-4 4v1l-4 4-1 1-3 3-1 1-4 4v1l-1 1-2 2h-1l-1 1-3 3-1 1-5 4v1l-2 1v1l-8 6-7 6h-1l-2 2h-1l-4 3v1l-6 4h-1l-1 1-9 6h-1l-1 1-21 12h-1l-5 3h-1a3 3 0 0 1-2-2 4 4 0 0 1 0-3h1l1-1h1l8-5h1l13-8 2-1 8-6h1l4-3h1l5-4v-1l2-1 7-6h1l1-1 6-5 1-1 2-1 1-1 4-4 1-1 3-3 1-1 3-3 1-1 2-2 2-2 1-1 3-3 1-1 4-5 4-4v-1l2-2v-1l1-1 1-1 4-5v-1h1l1-2 1-1 2-3v-1l4-5 1-1 2-3 1-2v-1h1l2-5h1v-1l3-5v-1a57 57 0 0 0 3-4v-1l2-4 1-1 2-4v-1l2-3a4 4 0 0 1 2-1 6 6 0 0 1 2 1 6 6 0 0 1 3 2 4 4 0 0 1 0 1z"/><path class="cls-1" d="M252 416l-8 19h-2l-1 1-2-4a6 6 0 0 1 0-3l8-16 5 3zM497 493a3 3 0 0 1-2 1c-14 3-27 5-37 5h-3c-11-1-16-3-17-7-1-5 4-8 14-11 9-2 14-5 17-7l1-2a1 1 0 0 1 0 1l-8-3a48 48 0 0 0-11-1c-10 0-20 3-29 6l-12 4c-8 3-17 7-27 9a105 105 0 0 0 18-12l7-3a225 225 0 0 1 22-7 82 82 0 0 1 21-3 55 55 0 0 1 12 1c6 1 14 4 14 9 0 6-7 10-23 14a30 30 0 0 0-9 3 1 1 0 0 1 0-1 1 1 0 0 0 0 1 1 1 0 0 0 0 1l3 1a56 56 0 0 0 10 1c9 0 22-2 36-5a3 3 0 0 1 1 0 3 3 0 0 1 2 5z"/><path class="cls-2" d="M445 488c-3 3 0 3 1 4-1-1 0-2 1-3a38 38 0 0 1 7-2c16-4 23-8 23-14a6 6 0 0 0-1-1c0 5-7 8-22 12-5 1-7 2-9 4z"/><path class="cls-2" d="M498 490a3 3 0 0 1-1 1 3 3 0 0 1-2 1c-14 3-27 4-37 4h-3c-11 0-16-2-17-6a5 5 0 0 0 0 2c1 4 6 6 17 7h3c10 0 23-2 37-5a3 3 0 0 0 3-3 3 3 0 0 0 0-1zM462 470a32 32 0 0 1 7 2 5 5 0 0 1 1 2s3-2 0-4a28 28 0 0 0-8-2 48 48 0 0 0-11-2c-10 0-20 3-29 6l-12 5-19 7-8 4c10-2 19-6 27-9l12-4c9-3 19-6 29-6a48 48 0 0 1 11 1z"/><path class="cls-1" d="M372 492c-1 2-3 2-4 2a11 11 0 0 1-2 0v-1l-1-1v-1l-2-5-2-6v-1l-2-5v-1h-1l-1-6-1-1-1-6-1-1a268 268 0 0 1-2-11h3l1 1h3l1 4 1 1 1 7v1h1l1 6 1 1 1 6 1 1 2 6v1l2 5v1l1 2v1zM346 498a5 5 0 0 1-3 1 9 9 0 0 1-3-1h-1l-2-5-3-5-2-5v-1l-2-5h-1l-2-5v-1l-2-5v-1l-2-6-1-3 7-3v2l2 6v1l2 5v1l2 5 1 1a292 292 0 0 0 6 16l1 1 2 4v1l1 1v1z"/><path class="cls-1" d="M366 494l-4 2a10 10 0 0 1-2 0v-1h-1l-2-5v-1l-2-5v-1l-2-5-1-1-2-6a277 277 0 0 1-4-13v-1l-2-7v-2-1h4l2 1h1l1 4v1l2 6v1l2 7 2 6v1l2 6h1a387 387 0 0 0 4 12l1 2zM353 497a5 5 0 0 1-4 1 7 7 0 0 1-2 0l-1-1v-1l-1-1-2-5-2-5-1-1-2-5-2-5v-1l-2-5-1-1a203 203 0 0 1-3-13h-1v-1l3-1 2-2h2v-1 1l1 6h1l1 7h1l2 6v1l2 5v1l2 5v1a228 228 0 0 0 5 10v1l2 3z"/><path class="cls-1" d="M359 496l-3 1a13 13 0 0 1-3 0v-1l-2-3v-1l-2-5a228 228 0 0 1-5-11v-1l-2-6-2-6v-1l-2-6v-1l-2-6h2l4-3 1 1v1a105 105 0 0 0 3 10l2 7 2 6v1l2 6 2 6h1l2 5v1l2 5v1zM424 450v1a105 105 0 0 1-51 41h-1v-1l-1-2v-1a145 145 0 0 0 26-20 119 119 0 0 0 14-17l12-1zM324 498a5 5 0 0 1-2 0 10 10 0 0 1-6-2l-2-4-1-1-2-4v-1l-3-4v-1l-2-4v-1l-2-4v-1l-1-3-1-2h-1v-1h1l3-1 3-1 1 4 1 1 2 5v1l2 5 2 5h1l2 5 3 4v1l2 3v1zM304 489l-5 2a9 9 0 0 1-2 0 6 6 0 0 1-5-2l1-1 8-3h1l2 4z"/><path class="cls-1" d="M301 485l-8 3h-1c-2 0-5 0-6-2l1-1 12-5 2 4zM307 494a12 12 0 0 1-1 0c-2 0-5 0-7-2l1-1 4-1 2 3 1 1zM299 480l-13 5a4 4 0 0 1-1 0c-1 0-4 0-4-3l16-7 2 5zM332 498a7 7 0 0 1-3 1 9 9 0 0 1-4-1l-1-1-2-3v-1l-2-4-1-1-2-4v-1l-2-4-1-1-2-4v-1l-2-5v-1l-2-4 7-3 1 4a160 160 0 0 0 4 11l1 1 2 4v1l2 5 3 5 2 5h1v2h1z"/><path class="cls-1" d="M339 498a4 4 0 0 1-3 1 7 7 0 0 1-4-1l-1-2-3-5-2-5h-1l-2-5v-1a168 168 0 0 1-6-16l-1-1-1-3 7-3 1 2v1l2 5v1l2 5v1l2 5v1l2 5h1a190 190 0 0 0 4 10l1 1 2 4zM316 496a8 8 0 0 1-2 1 10 10 0 0 1-6-3h-1l-2-4-1-1-2-4v-1a124 124 0 0 1-5-9v-1l-2-4v-1l-1-1h1l6-2 1 3 1 2v1l2 5h1l2 5 2 5h1l2 4v1l3 4zM276 415l-8 5-2 2-7-3-1-1-5-2h-1l-5-3h-1l-5-3-6-3v-1h-2c-3-4-1-9-1-10h1l5 3h1l6 3 6 3 6 2 1 1h1l4 2h1l12 5z"/><path class="cls-2" d="M234 409h-1a2 2 0 0 1 0-3h1l1 1-1 2zM364 450l-3 3-1-4 4 1zM408 473a225 225 0 0 1 22-7c-4 1-5 8-5 8l-15 5c-8 3-17 7-27 9a105 105 0 0 0 18-12l7-3zM433 352a4 4 0 0 1 1 0l1 8v1h-1l-1 1c2-4 2-7 0-10z"/><path class="cls-3" d="M343 144a24 24 0 0 1-5 0 27 27 0 0 1-8-1l-2-1a31 31 0 0 1-6-4l8 3h1c-7-3-16-12-26-26-11-17-22-31-45-44l-29-13a23 23 0 0 1 5 7c6 12 0 23 0 23v1-1a41 41 0 0 0-1-9c0 9-2 18-7 28a32 32 0 0 0 3 10l-2-2a16 16 0 0 0 4 6l1 1h-2a35 35 0 0 1-19-5 30 30 0 0 1-4-4 22 22 0 0 0 8 9h2-2c-18-1-30-7-37-11v-1 1a24 24 0 0 0 6 4c-9-2-19-7-27-14a28 28 0 0 1 2 9l1 1-1-1a43 43 0 0 0-11-11h-1s1 4 4 6a17 17 0 0 1-11-7 12 12 0 0 1-1-2 12 12 0 0 1-1-1 4 4 0 0 1-4 2 10 10 0 0 1-3 0 5 5 0 0 0 3-2 7 7 0 0 0 1-5l-1-1-1-3h-1v-1h-1v-1a26 26 0 0 0-3-3c-8-7-25-10-37-10a96 96 0 0 1-17-2 51 51 0 0 0-9-2 19 19 0 0 0-2 1 29 29 0 0 1 4 2 59 59 0 0 0 11 4c15 4 26 9 33 17a56 56 0 0 1 8 9l1 1v1h1v1l1 1v2l1-2c-16 28-17 66-18 81v3a52 52 0 0 0 2-7c0 10-6 22-9 27l7-6-1 2c-4 7-11 13-18 16a48 48 0 0 0 11 2 83 83 0 0 0 10-1l-4 1a24 24 0 0 1-10 2 47 47 0 0 1 15 7l-3-2h-1a45 45 0 0 1-7 0c13 11 40 26 71 33a160 160 0 0 0 35 4 143 143 0 0 0 17-1 134 134 0 0 0 55-19c24-15 46-43 58-76v-1l4-10 1-2a46 46 0 0 1-7 6l-1 2 4-7a87 87 0 0 0 6-9h-1a42 42 0 0 1-8 3 79 79 0 0 0 10-8zm-87-7a43 43 0 0 1 3-13v-1a6 6 0 0 0 1-4 2 2 0 0 1 1 1v1-1a5 5 0 0 0 1-4 8 8 0 0 1 1 3 5 5 0 0 0 1-3 9 9 0 0 1 0 2 5 5 0 0 0 1-4 6 6 0 0 1 1 3 3 3 0 0 0 2-2 5 5 0 0 1 0 2 5 5 0 0 0 2-4 8 8 0 0 1 0 3h1a5 5 0 0 0 2-4 6 6 0 0 1 1 4 7 7 0 0 0 3-4 15 15 0 0 0-6-1c-7 0-11 4-14 9 3-6 8-10 13-10a15 15 0 0 1 7 2 21 21 0 0 1 3 1v1-1a6 6 0 0 1 0 1l2 1a4 4 0 0 0 1-1 7 7 0 0 1-1 2h1l1 1a4 4 0 0 0 1-1 4 4 0 0 1 0 2 4 4 0 0 1-2 2h1a3 3 0 0 0 2-1 3 3 0 0 1-2 2 49 49 0 0 1 13 12c4 6 7 12 6 17 0 8-4 15-11 20-5 5-12 7-17 7a21 21 0 0 1-4 0c-6-1-11-8-14-19a57 57 0 0 1-1-21zm2 55a14 14 0 0 1 4-1l3 2c1 1 0 3-1 5l-3 4a3 3 0 0 1-1 0l-6-2-3-3c0-1 2-4 7-5zm6 16a21 21 0 0 0-2-4 9 9 0 0 1 2 4zm-13 1c-3 0-9 1-15 4 7-4 15-4 15-4zm-1 4v1c-3 0-9 2-14 5 6-4 14-6 14-6h0zm-64-66a5 5 0 0 1-1 2v1a9 9 0 0 0 3-5 7 7 0 0 1-1 5 9 9 0 0 0 4-4 9 9 0 0 1-2 5 5 5 0 0 0 4-3 6 6 0 0 1-1 3h-1 1a9 9 0 0 0 3-1 7 7 0 0 1-2 2 33 33 0 0 1 11 8 43 43 0 0 1 4 5c8 11 12 25 7 32-4 7-14 12-26 13h-4c-10 0-19-3-22-7-6-7-8-19-6-30 0-3 2-10 6-15a6 6 0 0 0 2-4 5 5 0 0 1 0 1v1-1a7 7 0 0 0 2-4 8 8 0 0 1 1 2v1a7 7 0 0 0 1-4 10 10 0 0 1 0 2v1a6 6 0 0 0 3-5 6 6 0 0 1 0 3 5 5 0 0 0 2-3 6 6 0 0 1 0 2v1-1a7 7 0 0 0 2-4 8 8 0 0 1 1 4l4-5a6 6 0 0 1-1 4v1h1l4-6a10 10 0 0 1-2 5v1h1a5 5 0 0 0 2-3zm-6-4a24 24 0 0 1 5 0h-2c-14 0-24 9-27 24 1-14 12-24 24-24zm95 98a10 10 0 0 0 0-2 14 14 0 0 1-1 5v-2h-1a8 8 0 0 1-2 5 8 8 0 0 1-4 3 11 11 0 0 0 3-3 16 16 0 0 0 2-3 10 10 0 0 1-1 2 12 12 0 0 0 3-5v2a21 21 0 0 0 1-6v2a16 16 0 0 0-2-11c2 3 3 8 2 13zm11-38a39 39 0 0 0-9 1 9 9 0 0 1-2 6 6 6 0 0 1-5 2h-2c0 1-1 4 1 12a8 8 0 0 1-5 10 10 10 0 0 1-4 1 15 15 0 0 1-6-2l-3-1-3-2h-1a105 105 0 0 1-13-9l-2-2-2-1h-1l-1-1h-1l-2 2a19 19 0 0 0-4 6 11 11 0 0 0-1 4 7 7 0 0 1 0-4c0-2 2-4 4-6a20 20 0 0 0 5-6 16 16 0 0 0 1-6 12 12 0 0 1 0 6 11 11 0 0 1-2 3v1l2 1c6-4 14-6 14-6v1a46 46 0 0 0-14 5 39 39 0 0 0 5 2l4 1a32 32 0 0 0 9 2 12 12 0 0 0 4-1l8-6v-1l4-3a6 6 0 0 1 3-1h3a6 6 0 0 0 5-1 8 8 0 0 0 2-6l-3 1 3-1a20 20 0 0 0 0-5h-1a47 47 0 0 0-6 3h-1a38 38 0 0 1 7-3v-1-1l-4 1a36 36 0 0 1 4-1l-1-3a16 16 0 0 1 1 2 11 11 0 0 1 1 0 30 30 0 0 1 7 0h2-1a31 31 0 0 0-7 1 18 18 0 0 1 2 1 21 21 0 0 1 3 0h-2l1 1 1 1-1-1h-1l-1-1a26 26 0 0 0-3 1 22 22 0 0 1 0 5h1a35 35 0 0 1 7-1 23 23 0 0 1 3 0h-2z"/><path class="cls-4" d="M234 103v-8a32 32 0 0 1-11 19 143 143 0 0 1 9-46l2 3a15 15 0 0 1 2 3 14 14 0 0 1 1 5 126 126 0 0 1-1 15l-2 9z"/><path class="cls-3" d="M121 99c6-2 12-9 11-15a23 23 0 0 0-1-3c-9-7-26-10-38-10a96 96 0 0 1-17-2 51 51 0 0 0-9-2 19 19 0 0 0-2 1 29 29 0 0 1 4 2 59 59 0 0 0 11 4c15 4 26 9 33 17a56 56 0 0 1 8 8z"/><path class="cls-5" d="M264 102c-24 3-17 61 3 73 12 7 36-17 36-26s-15-50-39-47zM170 132c-25 7-24 61-6 72 14 9 36 7 50-5s-12-76-44-67zM352 297a8 8 0 0 1-3-1h1c3-2 5-11 4-19a24 24 0 0 0-1-5 11 11 0 0 1 3 0c4 2 6 7 6 10 0 7-2 12-6 14a10 10 0 0 1-4 1z"/><path class="cls-6" d="M358 287a4 4 0 0 1-2-4 27 27 0 0 0-1-5c0-2 0-5-2-7a36 36 0 0 1 1 7v8c-1 5-2 9-4 10h-1a8 8 0 0 0 3 1 10 10 0 0 0 4-1c3-1 5-5 6-10a4 4 0 0 1-4 1z"/><path class="cls-5" d="M345 296a12 12 0 0 1-5-1h-1 1a8 8 0 0 0 1-1c3-2 4-11 2-19a21 21 0 0 0-3-8 11 11 0 0 1 4-1 10 10 0 0 1 3 0c4 1 6 5 7 11 1 8-2 17-4 18a10 10 0 0 1-5 2z"/><path class="cls-6" d="M351 285a8 8 0 0 1-2 0 4 4 0 0 1-4-4 32 32 0 0 0-1-6c-1-3-2-7-4-9h-1l4 9a63 63 0 0 1 1 11l-3 8a8 8 0 0 1-1 1h-1 1a12 12 0 0 0 5 1 10 10 0 0 0 4-1c3-1 4-6 5-12a6 6 0 0 1-3 2z"/><path class="cls-4" d="M303 284a16 16 0 0 0-4-3 11 11 0 0 0-5-2 13 13 0 0 0-3-1v-1a20 20 0 0 0 0-7l2 4-3-14 3 5a31 31 0 0 0-4-11 37 37 0 0 1 11 14l-5-4 2 2a39 39 0 0 1 5 11l-3-4 4 10v1z"/><path class="cls-5" d="M323 296a10 10 0 0 1-2-1 9 9 0 0 1-6-4 17 17 0 0 1-1-5 19 19 0 0 0 0 4 7 7 0 0 0 1 1v1a7 7 0 0 0-1 0h-1a13 13 0 0 1-3-6c-1-3-1-12 4-17a10 10 0 0 1 6-2 10 10 0 0 1 4 1c3 1 5 5 6 8 1 6 1 14-1 17-1 2-4 3-6 3z"/><path class="cls-6" d="M323 286c-9 1-10-9-13-5a18 18 0 0 0 0 5 13 13 0 0 0 3 6h1a7 7 0 0 1 1 0v-1a7 7 0 0 1-1-1 19 19 0 0 1 0-4 17 17 0 0 0 1 5 9 9 0 0 0 6 4 10 10 0 0 0 2 1c2 0 5-1 6-3s2-7 2-12a10 10 0 0 1-8 5z"/><path class="cls-5" d="M334 296a9 9 0 0 1-5-1v-1a5 5 0 0 0 1-1c2-3 2-11 0-18-1-2-2-6-5-7a10 10 0 0 1 8-4 9 9 0 0 1 1 0c6 1 8 6 9 11 1 7 0 17-2 19a12 12 0 0 1-7 2z"/><path class="cls-6" d="M343 282c0 2-3 3-7 2a5 5 0 0 1-4-5 19 19 0 0 0-1-5c-1-2-3-7-6-7v1l5 7 1 10-1 8a5 5 0 0 1-1 1v1a9 9 0 0 0 5 1 12 12 0 0 0 7-2c1-2 3-7 2-12z"/><path class="cls-5" d="M293 307a11 11 0 0 0 3-8c0-8-5-16-10-19a10 10 0 0 0-4-1 13 13 0 0 1 5-1 12 12 0 0 1 6 2c6 3 10 11 9 17a11 11 0 0 1-6 9 13 13 0 0 1-3 1l-1 1zM258 325a13 13 0 0 1-8-7c-2-7 0-18 5-25a21 21 0 0 1 10-7 18 18 0 0 1 6-1 16 16 0 0 1 8 2c5 3 9 10 9 16 0 4-2 7-6 9a13 13 0 0 1-6 2c-4 0-7-2-10-6a16 16 0 0 0 2 4h1-1a13 13 0 0 1-5-2 13 13 0 0 0 7 3h1a105 105 0 0 0-13 12z"/><path class="cls-6" d="M286 296c0 6-8 9-13 9a19 19 0 0 1-5-1l-4-1c-5-2-14 6-15 9a20 20 0 0 0 1 6 13 13 0 0 0 8 7 105 105 0 0 1 13-12h-1a13 13 0 0 1-7-3 13 13 0 0 0 5 2h1l-1-1a16 16 0 0 1-2-3c3 4 6 6 10 6a13 13 0 0 0 6-2c4-2 6-5 6-9a15 15 0 0 0-2-7z"/><path class="cls-5" d="M300 304a12 12 0 0 0 3-7c0-6-3-13-8-17h-1 1a10 10 0 0 1 4 1c5 3 8 9 8 14a10 10 0 0 1-6 9h-1zM286 310a11 11 0 0 0 2-7c1-6-3-13-9-16a17 17 0 0 0-8-2 18 18 0 0 0-4 0 32 32 0 0 1 5-3 19 19 0 0 1 8-3 10 10 0 0 1 6 2c5 3 10 11 10 18a11 11 0 0 1-6 9 13 13 0 0 1-4 2h-1z"/><path class="cls-6" d="M225 296v-1l1-1h-2a35 35 0 0 0-15-15l-1-1 3 5-9-7 2 5c-5-3-8-8-8-14h9a144 144 0 0 0 17-1 135 135 0 0 0 55-19l2-1v-1c6 5 11 11 13 17l-5-6 5 14-2-3a22 22 0 0 1 0 10 12 12 0 0 0-3 0 14 14 0 0 0-6 2h-1a19 19 0 0 0-8 2 37 37 0 0 0-7 5 23 23 0 0 0-6 3c-12 1-21 3-34 7z"/><path class="cls-3" d="M307 293a18 18 0 0 0-4-9l4-4h1a10 10 0 0 0-1 2 33 33 0 0 1 2-3 24 24 0 0 0 1 7 13 13 0 0 0 3 6 7 7 0 0 0-1 1 8 8 0 0 0-2 0 7 7 0 0 0-3 0z"/><path class="cls-4" d="M313 292a13 13 0 0 1-3-6l-1-4-3 6a17 17 0 0 1 1 5 7 7 0 0 1 3 0 8 8 0 0 1 2 0 7 7 0 0 1 1-1z"/><path class="cls-7" d="M274 172a4 4 0 0 1-4-4 4 4 0 0 1 4-4h1a4 4 0 0 1-1 8z"/><path class="cls-5" d="M282 118a6 6 0 0 0 1-2l1 1a2 2 0 0 1-2 1z"/><path class="cls-4" d="M108 161a14 14 0 0 1-6-7 5 5 0 0 0 3 1 6 6 0 0 0 3-2h1v1l-1 7z"/><path class="cls-8" d="M275 176a20 20 0 0 1-4 0c-4-1-7-4-10-9h1a18 18 0 0 0 11 5h1a18 18 0 0 0 9-33 6 6 0 0 0 0-8h1a25 25 0 0 1 14 33 33 33 0 0 1-6 6c-6 4-12 6-17 6z"/><path class="cls-9" d="M290 148a30 30 0 0 0 3-10 25 25 0 0 0-9-7h-1a6 6 0 0 1 0 8 16 16 0 0 1 7 9z"/><path class="cls-7" d="M279 140a6 6 0 0 1-3-11 6 6 0 0 1 1 0 6 6 0 0 1 2 0 6 6 0 0 1 5 6 6 6 0 0 1-5 5z"/><path class="cls-10" d="M298 162a26 26 0 0 0-15-31 6 6 0 0 0-7-2h-2a26 26 0 0 0-17 7h-1 1c1-7 3-12 7-16a11 11 0 0 1 8-2 21 21 0 0 1 8 2c12 6 23 21 23 30a24 24 0 0 1-4 13z"/><path class="cls-11" d="M289 126a40 40 0 0 0-9-6 21 21 0 0 0-9-2 11 11 0 0 0-7 2 22 22 0 0 0-6 8c5-9 18-11 31-2z"/><path class="cls-5" d="M279 117a5 5 0 0 0 1-3l2 1a7 7 0 0 1-3 2z"/><path class="cls-5" d="M278 116a4 4 0 0 0 0-2 3 3 0 0 1-2 2v1-1a8 8 0 0 0 1-4 22 22 0 0 1 3 2 5 5 0 0 1-2 3z"/><path class="cls-4" d="M230 119a34 34 0 0 1-5-7l-5-14a83 83 0 0 1-1-15 58 58 0 0 1 2-14l-7 1-22 4-22 4a142 142 0 0 0-22 7l-10 5c1 1 0 3 2 5 3 7-2 9-2 9a4 4 0 0 0 5-4 19 19 0 0 0 11 11 9 9 0 0 1-4-6s10 7 13 11l-3-9-2-3 2 2c8 7 17 12 25 15a22 22 0 0 1-8-8s14 13 41 16c0 0-7-5-9-10v-2l1 1s8 10 24 11h1l-1-1c-3-2-4-7-4-9z"/><path class="cls-4" d="M231 121h1l-1-1a13 13 0 0 1-1-1 9 9 0 0 0 1 2zM139 96a15 15 0 0 0-1-6 19 19 0 0 0-2 1 37 37 0 0 1 3 5z"/><path class="cls-6" d="M237 86h-1c0-3 0-7-2-10v-2 2c1 8-1 19-6 29a43 43 0 0 1 2-14 27 27 0 0 0-2 8 36 36 0 0 0 1 15 13 13 0 0 1-2-4c0 2 1 8 5 11-17 0-25-10-25-10l-1-2 1 2a23 23 0 0 0 8 10c-27-2-39-14-43-19a27 27 0 0 0 4 5c1 2 4 5 7 6h-1c-8-2-17-7-25-14l-2-2 2 2a21 21 0 0 1 4 9h-1l-13-11 2 1 2 6c-6-3-10-6-12-12a11 11 0 0 0 1 2 5 5 0 0 1-5 3v-1c1 0 3-3 3-6a15 15 0 0 0-3-8 16 16 0 0 1 2 6 34 34 0 0 0-6-7l-1-1v-1l1-4a55 55 0 0 1 7-10h1a36 36 0 0 0-4 10v1a29 29 0 0 0 9-17V39v1a22 22 0 0 1 5 17l-3 5 4-5 5-6a60 60 0 0 1 26-18 39 39 0 0 0-12 11 25 25 0 0 0-6 5c5-5 13-8 21-10a50 50 0 0 1 9-1c8 0 17 2 23 5a66 66 0 0 0-14-1 29 29 0 0 0-4 0h-1a33 33 0 0 0-5 1l2-1c13 0 28 5 38 13a43 43 0 0 1 3 2v1l-3-1-4-1a33 33 0 0 0-10-4c4 1 10 4 14 8a22 22 0 0 1 4 6c4 8 2 16 1 20z"/><path class="cls-5" d="M233 62l-1-2-1-1a11 11 0 0 0-1-1 43 43 0 0 0-13-7l18 6a14 14 0 0 0-3-2c-10-8-26-13-38-13l-2 1c12-4 21 0 24 0-6-3-15-5-23-5a50 50 0 0 0-9 1c-8 1-16 5-21 10 2-5 8-12 18-16a60 60 0 0 0-26 18l-5 6-4 5a28 28 0 0 0-2-22v19a29 29 0 0 1-9 17c5-2 11-9 11-9s-4 7-10 11l7-2a13 13 0 0 1-7 4c9 0 15 8 18 11a24 24 0 0 0-5-11l2 2c8 7 17 12 25 15 0 0-8-6-10-14 12 15 35 22 35 22-4-4-7-9-8-14 6 8 20 15 30 15-3-3-3-10-4-13l3 6c-1-6-1-19 4-26a43 43 0 0 0 1 17s10-18-2-31c5 3 13 11 12 23 2-5 2-14-4-20z"/><path class="cls-3" d="M239 60l-8-2v-1l7 2-1-1c-5-5-12-9-20-12l1-1h3l-2-1a120 120 0 0 1 17-18 39 39 0 0 0 11-16c1-3 2-6 5-7v9c1 11-2 30-13 48z"/><path class="cls-4" d="M233 52a15 15 0 0 1-13-10l-1 2 2 1h-3l-1 1c8 3 15 7 20 12l1 1-7-2v1l8 2a100 100 0 0 0 6-12c-3 2-7 4-12 4z"/><path class="cls-12" d="M277 82a129 129 0 0 0-17-12 167 167 0 0 0-21-9v-1a87 87 0 0 0 14-51V2a2 2 0 0 1 1 1c4 2 15 15 21 42a106 106 0 0 1 3 37z"/><path class="cls-13" d="M250 34a98 98 0 0 1-11 26v1a167 167 0 0 1 21 9 140 140 0 0 1 18 12c5-36-21-74-28-48z"/><path class="cls-4" d="M107 153a9 9 0 0 1-7-5 11 11 0 0 0 5 1 8 8 0 0 0 2 0 9 9 0 0 1-3 0 6 6 0 0 0 4-4 5 5 0 0 1-1 2 9 9 0 0 1-1 0l-5-2a10 10 0 0 0 9-5 6 6 0 0 1-4 2 9 9 0 0 1-1 0c-5 0-8-3-9-5h1a13 13 0 0 0 6 1 9 9 0 0 0 1 0 10 10 0 0 0 5-2 18 18 0 0 1-5 1c6-2 8-7 9-9l1-1a13 13 0 0 1-9 4 10 10 0 0 1-3-1 15 15 0 0 0 12-9l-1 1 3-3h-1a8 8 0 0 1-4 1h-1a19 19 0 0 0 9-5c-5 10-8 23-10 38a5 5 0 0 1-2 0z"/><path class="cls-12" d="M107 173c-21-6-37-29-42-43a187 187 0 0 1-8-28c-2-9-3-25 1-31a5 5 0 0 1 4-3 5 5 0 0 1 1 0l6 2a59 59 0 0 0 11 4c11 4 24 8 33 17a63 63 0 0 1 11 15l-4 7a18 18 0 0 1-11 7h-1 1a8 8 0 0 0 2 1 8 8 0 0 0 3-1l-3 3 3-1a15 15 0 0 1-12 8h-1 1a6 6 0 0 0 3 1 13 13 0 0 0 7-2v-1 1c-1 5-8 8-11 9h1a17 17 0 0 0 5-1 8 8 0 0 1-5 1 13 13 0 0 1-7-2h1c0 1 3 7 9 7a10 10 0 0 0 2-1h1-1a8 8 0 0 1-6 3 10 10 0 0 1-1 0 8 8 0 0 0 5 2 8 8 0 0 0 1 0h1a5 5 0 0 1-4 2 8 8 0 0 1-4-1c2 4 6 5 8 6h1-1a4 4 0 0 1-5-1 14 14 0 0 0 6 8v1l-1 11z"/><path class="cls-13" d="M124 106a63 63 0 0 0-11-15l-2-2c-7-5-31-8-37 2-5 10-4 41 10 67 6 7 14 13 23 15v1-1l1-11a14 14 0 0 1-6-8v-1a4 4 0 0 0 5 1h1-1c-2-1-6-2-8-6a8 8 0 0 0 4 1 5 5 0 0 0 4-2 8 8 0 0 1-2 0 8 8 0 0 1-5-2 10 10 0 0 0 1 0 8 8 0 0 0 6-3h1-1a10 10 0 0 1-2 1c-6 0-9-6-9-7h-1a13 13 0 0 0 7 2 8 8 0 0 0 5-1 17 17 0 0 1-5 1h-1c3-1 10-4 11-9v-1 1a13 13 0 0 1-7 2 6 6 0 0 1-3-1h-1 1a15 15 0 0 0 12-8l-3 1 3-3a8 8 0 0 1-3 1 8 8 0 0 1-2-1h-1 1a18 18 0 0 0 11-7l4-7z"/><path class="cls-4" d="M223 297a8 8 0 0 0 1-1v1h-1z"/><path class="cls-9" d="M256 151a49 49 0 0 1 0-15 25 25 0 0 1 18-7h2a6 6 0 0 0-3 8 18 18 0 0 0-16 14z"/><path class="cls-6" d="M189 407a105 105 0 0 1-19-2l1-1a58 58 0 0 0 5-13h1l-1 6a60 60 0 0 0 6-23 35 35 0 0 1 16-23h1a25 25 0 0 0 5 4l-2-4c3 3 8 8 16 8a13 13 0 0 1-3-2v-1a24 24 0 0 0 9 3 33 33 0 0 1-5-4h1c8 0 16-3 20-5h1a8 8 0 0 0 0 2c-1 1-4 3-3 8a9 9 0 0 0-3 8c-1 1-3 4-2 9 0 1-2 4-1 9a14 14 0 0 0-1 5 58 58 0 0 1-6 6l4-7c-6 7-14 12-22 14a61 61 0 0 1-18 3z"/><path class="cls-8" d="M185 209a54 54 0 0 1-7 0 25 25 0 0 1 10-49h2-1a6 6 0 0 0-2 7v1a18 18 0 0 0 0 35h1a18 18 0 0 0 9-33h-1a6 6 0 0 0 1-8v-1 1a25 25 0 0 1 5 44 45 45 0 0 1-13 3h-4z"/><path class="cls-9" d="M205 181s4-5 5-8a26 26 0 0 0-13-11 6 6 0 0 1-1 8 19 19 0 0 1 9 11zM171 190a25 25 0 0 1-1-6 18 18 0 0 1 17-16v-1a6 6 0 0 1 2-7h1-1-1a26 26 0 0 0-26 24 25 25 0 0 0 0 3 21 21 0 0 0 9 3z"/><path class="cls-7" d="M192 171a6 6 0 0 1-2-11 6 6 0 0 1 1 0 6 6 0 0 1 1-1 6 6 0 0 1 6 6 6 6 0 0 1-6 6z"/><path class="cls-5" d="M299 188c-8-9-30 4-45-10-5-5-17-3-19 8-2 24-38 28-41 47-1 7 2 13 7 17 10 9 27 13 31 14a134 134 0 0 0 45-18 109 109 0 0 0 14-11 46 46 0 0 0 13-24c1-10 0-18-5-23zm-41 4a14 14 0 0 1 4-1l3 2c1 1 0 3-1 5l-3 4a3 3 0 0 1-1 0l-6-2-3-3c0-1 2-4 7-5zm-7 17c-3 0-10 1-15 4 7-4 15-4 15-4zm-1 4l-14 6c6-4 14-6 14-6zm25 28a10 10 0 0 0 0-2 14 14 0 0 1-1 5v-2h-1a8 8 0 0 1-2 5 8 8 0 0 1-4 3 11 11 0 0 0 3-3 16 16 0 0 0 2-3 10 10 0 0 1-1 2 12 12 0 0 0 2-6l1 3a20 20 0 0 0 1-6v2a16 16 0 0 0-2-11c2 3 3 8 2 13zm11-38a39 39 0 0 0-9 1 9 9 0 0 1-2 6 6 6 0 0 1-5 2h-2c0 1-1 4 1 12a8 8 0 0 1-5 10 10 10 0 0 1-4 1 15 15 0 0 1-6-2l-3-1-3-2h-1a105 105 0 0 1-13-9l-2-2-2-1h-1l-1-1h-1l-2 2a19 19 0 0 0-4 6 11 11 0 0 0-1 4c-2-5 1-7 4-10a20 20 0 0 0 5-6 16 16 0 0 0 1-6 12 12 0 0 1 0 6 11 11 0 0 1-2 3v1l2 1c6-4 14-6 14-6v1a46 46 0 0 0-14 5 39 39 0 0 0 5 2l4 1a32 32 0 0 0 9 2 12 12 0 0 0 3-1c4-1 7-4 9-6v-1l4-3a6 6 0 0 1 3-1h3a6 6 0 0 0 5-1 8 8 0 0 0 2-6l-3 1 3-1a20 20 0 0 0 0-5h-1a48 48 0 0 0-6 3h-1a38 38 0 0 1 7-3v-1-1l-4 1a36 36 0 0 1 4-1l-1-2a16 16 0 0 1 1 1 12 12 0 0 1 1 0 30 30 0 0 1 7 0h2-1a31 31 0 0 0-7 1 18 18 0 0 1 2 1 21 21 0 0 1 3 0h-3 1a26 26 0 0 1 2 2l-3-2-3 1a22 22 0 0 1 0 5 35 35 0 0 1 8-1 22 22 0 0 1 3 0h-2z"/><path class="cls-6" d="M233 220l-1-1 3 1 4 1a32 32 0 0 0 8 2 12 12 0 0 0 4-1c4-1 7-4 9-6v-1l4-4a6 6 0 0 1 2 0h3c5 1 6-1 8-5 1-3 0-8-2-12 1 4 2 12-2 14h-9a10 10 0 0 0-3-6l2 6-8 8c-4 3-14 6-22 0-2-3 0-6-3-12 0 9-8 13-11 18-3 7 1 10 1 10s0-12 13-12z"/><path class="cls-10" d="M176 208c-6-1-11-3-13-5-6-8-8-21-5-32 3-9 9-16 16-18a29 29 0 0 1 9-1c9 0 18 5 25 14 8 10 11 24 7 31a25 25 0 0 1-11 8 26 26 0 0 0-7-44 6 6 0 0 0-7-1h-1-1a26 26 0 0 0-12 48z"/><path class="cls-11" d="M199 157a28 28 0 0 0-16-5 29 29 0 0 0-9 1c-7 2-13 9-16 18a40 40 0 0 0-1 13c1-27 25-36 42-27z"/><path class="cls-3" d="M216 358c-5 0-9-3-12-6a41 41 0 0 1-4-4l2 5a33 33 0 0 1-8-11 81 81 0 0 1-3-12 33 33 0 0 0 0 6c-4-10-7-21-8-30 0-11 5-24 12-30l-5 2a47 47 0 0 1 6-5 16 16 0 0 0 9 9l-2-4h1l9 8-3-6a32 32 0 0 1 14 15 59 59 0 0 0-9 4 21 21 0 0 0-12 5 27 27 0 0 1 11-4l-2 1a42 42 0 0 0-7 7 62 62 0 0 1 18-12h1a41 41 0 0 0-4 3c16-6 25-9 38-10v1a19 19 0 0 0-3 2c-6 8-8 18-5 26a13 13 0 0 0 8 7v1l-2 2a11 11 0 0 0-6 8 10 10 0 0 0-5 8 8 8 0 0 0-4 5c-5 2-13 6-21 6a28 28 0 0 1-2-1h-2l6 4-11-4 5 4z"/><path class="cls-4" d="M195 273a4 4 0 0 1-4-3h-1 1a7 7 0 0 0 2 1 7 7 0 0 0 3-1v3a7 7 0 0 1-1 0z"/><path class="cls-6" d="M251 197l8-3a14 14 0 0 1 4 0l2-1c2 3-1 10-3 10s-10-3-11-6z"/><path d="M260 202l-6-3-3-2c0-1 2-3 7-5a14 14 0 0 1 4 0l3 1-1 5-3 4a2 2 0 0 1-1 0z" fill="#ff9296"/><path d="M260 200a17 17 0 0 1-6-2l-2-2c0-1 2-3 6-4a15 15 0 0 1 3 0l3 1-1 4-2 2a2 2 0 0 1-1 1z" fill="#ffbdba"/><path d="M259 234a17 17 0 0 1-7-2h-1l-4-2a1 1 0 0 1 0-2l4-5a16 16 0 0 1 6-1 9 9 0 0 1 4 4 8 8 0 0 0-4-4l5-4h1a3 3 0 0 1 2 1l2 6a8 8 0 0 1-2 6 9 9 0 0 1-6 3z" fill="#db8683"/><path d="M260 233a14 14 0 0 1-6-1h-1l-3-2a1 1 0 0 1 0-1l4-4a7 7 0 0 1 5-1c2 0 3 4 3 4a7 7 0 0 0-1-4 2 2 0 0 1 0-3 3 3 0 0 1 2 0 3 3 0 0 1 2 0 7 7 0 0 1 2 5 7 7 0 0 1-2 5 7 7 0 0 1-5 2z" fill="#fe9b98"/><path class="cls-18" d="M234 220v1-1z"/><path class="cls-3" d="M178 301a34 34 0 0 0 5-3v-1 3a19 19 0 0 1-5 2z"/><path class="cls-5" d="M277 199v-1l-1-1h1a17 17 0 0 1 2 1h1-1l-2 1z"/><path d="M264 233a10 10 0 0 0 1-1 9 9 0 0 0 3-7c-1-2-1-5-3-6a3 3 0 0 0-2-1h-1c-2 0-5 3-5 4a20 20 0 0 0-4 0c3-1 5-4 7-6l4-4a6 6 0 0 1 3 0h1v12a8 8 0 0 1-3 8 8 8 0 0 1-1 1z" fill="#a52f00"/><path class="cls-18" d="M246 229a105 105 0 0 1-12-8v-1a37 37 0 0 0 13 3 13 13 0 0 0 4 0c-1 1-5 3-5 5a2 2 0 0 0 0 1z"/><path class="cls-7" d="M188 203a4 4 0 0 1-4-4 4 4 0 0 1 4-4 4 4 0 0 1 0 8z"/><path class="cls-20" d="M198 482a41 41 0 0 1-6 0c-3 0-7-1-8-4-2-3-1-5 1-11 3-8 9-12 18-12a7 7 0 0 1 5 3c4 5 4 14 3 16-1 4-3 7-9 8a33 33 0 0 1-4 0z"/><path class="cls-3" d="M169 405a30 30 0 0 0 1-3v3z"/><path class="cls-20" d="M228 479a7 7 0 0 0 2-3c2-4 2-9-1-17a12 12 0 0 0-5-6 9 9 0 0 1 3 1 10 10 0 0 1 5 5c3 7 3 12 2 16-1 2-3 3-6 4z"/><path d="M182 475a65 65 0 0 0-6-8l-6-6-10-12a26 26 0 0 0 3 4 36 36 0 0 0 2 6h-1c-7-9-10-21-10-26v1a27 27 0 0 0-2 5 43 43 0 0 1 0-13 33 33 0 0 0-2 6 26 26 0 0 1 3-10l5-4a37 37 0 0 0 10-12h1a108 108 0 0 0 20 2 61 61 0 0 0 18-3 45 45 0 0 0 19-11l-4 7a64 64 0 0 1-7 9l-1-1 2-3a46 46 0 0 1-10 9c-4 3-7 5-8 8s0 9 3 16c3 6 7 11 10 13a14 14 0 0 0-8 3c-9 0-15 4-18 12l-2 8z" fill="#bd5e00"/><path class="cls-20" d="M219 480a7 7 0 0 0 2-2c3-4 2-10 0-17-1-4-4-7-6-8a12 12 0 0 1 4-1 10 10 0 0 1 2 0c3 1 6 4 7 7 3 8 4 13 2 17-2 3-6 4-11 4z"/><path class="cls-3" d="M77 477v-1a69 69 0 0 0 3-12 23 23 0 0 1-2 3h-1a34 34 0 0 0 4-12l1-9a86 86 0 0 1 3-16l1-3-2 3a38 38 0 0 0-3 8c0-7 3-14 7-18l3-5c4-4 7-7 8-12v-15l-3-20-1 11c-2-11 0-25 4-36l-4 7a57 57 0 0 1 23-32l6-4-1 1a49 49 0 0 0-11 3 80 80 0 0 1 38-11h-2a8 8 0 0 0-3-1l2-1a20 20 0 0 1 7 2l1 1a8 8 0 0 1 0-5v-1 1a7 7 0 0 0 6 6 8 8 0 0 1-3-1v-1a29 29 0 0 0 9 2 17 17 0 0 0 7-2 22 22 0 0 1-3 1l-6-1v-1a45 45 0 0 0 18-5v5c0 10 4 25 10 34a34 34 0 0 0 5 9v1h1-1a34 34 0 0 0-15 22v-2a82 82 0 0 1-5 22h-1a51 51 0 0 0 1-7 61 61 0 0 1-7 17 30 30 0 0 0 1-6c-2 8-8 16-14 21-10 8-20 12-28 13a30 30 0 0 1-3 0 22 22 0 0 1-11-3 19 19 0 0 0 11 4h3c-6 9-10 23-11 34a14 14 0 0 0-5 1 9 9 0 0 0-2 1 9 9 0 0 0-6-2 15 15 0 0 0-2 0 15 15 0 0 0-7 4 10 10 0 0 0-5-1 14 14 0 0 0-3 0 19 19 0 0 0-10 8 9 9 0 0 1-2 1v1z"/><path class="cls-5" d="M83 269v-22a142 142 0 0 1-8 19h-1c1-5-1-17-1-20a59 59 0 0 1-14 22 115 115 0 0 1 2-19 31 31 0 0 0-7 10v1-1l-1-9a14 14 0 0 1-4 3l2-10-13 8h-1l4-4 12-13-2 7v-1a31 31 0 0 0 12-25 58 58 0 0 1 2 8c1-3 2-15-6-26a65 65 0 0 1 28 35l1 2-1-10h1a48 48 0 0 1 5 28 73 73 0 0 1-3 14v-13a64 64 0 0 1-7 16z"/><path class="cls-20" d="M211 482a21 21 0 0 1-4-1h-1 1c3-1 4-4 5-7 0-2 0-11-3-16a8 8 0 0 0-4-3h-1a13 13 0 0 1 7-2 11 11 0 0 1 2 0c2 0 5 2 7 8 3 7 3 13 1 16s-6 5-10 5z"/><path class="cls-5" d="M118 496a11 11 0 0 1-5-1c2-2 4-6 4-10a34 34 0 0 0-2-14 11 11 0 0 0-2-3v-1a8 8 0 0 1 1 0 12 12 0 0 1 5-1 8 8 0 0 1 8 5c3 8 3 19-2 23a12 12 0 0 1-7 2z"/><path class="cls-5" d="M125 495a12 12 0 0 1-1 0 12 12 0 0 0 1-1c3-2 4-5 4-10a34 34 0 0 0-2-13 10 10 0 0 0-1-3h1a8 8 0 0 1 7 5c2 7 2 17-2 20a11 11 0 0 1-6 2zM88 497c-3 0-8 0-10-4-1-4-2-10 0-14a18 18 0 0 1 11-10 13 13 0 0 1 3-1 8 8 0 0 1 9 7c3 10 1 18-3 20l-10 2z"/><path class="cls-3" d="M76 349a48 48 0 0 1-18-3c-12-5-23-15-30-28-4-8-7-17-8-27a32 32 0 0 0 4 8l1 5c-2-13-3-29 2-40a51 51 0 0 1 9-12 48 48 0 0 0 14-8l-2 10 5-3a45 45 0 0 0 1 11 33 33 0 0 1 6-11l1-1-1 1a108 108 0 0 0-2 19c2-2 11-13 14-21l1-1v1a87 87 0 0 1 1 20l9-19-1 22c3-5 6-10 7-15v12a64 64 0 0 0-3 15c1-3 2-8 5-10a19 19 0 0 0-3 11c-1 8 2 16 7 20 5 6 12 9 23 9a53 53 0 0 0-10 6l12-4a55 55 0 0 0-24 28 44 44 0 0 1-20 5z"/><path class="cls-5" d="M105 497a12 12 0 0 1-6-2c5-3 5-13 2-21a9 9 0 0 0-4-5 14 14 0 0 1 7-3 13 13 0 0 1 2-1c4 0 7 3 9 7 2 8 2 19-3 22a13 13 0 0 1-7 3z"/><path class="cls-6" d="M129 481s0 3-2 5a7 7 0 0 1-5 1c-2-1-3-1-3-4-1-5-1-12-6-16 0 0-1 0 0 0a25 25 0 0 1 4 11 46 46 0 0 1 0 6 20 20 0 0 1-1 5 11 11 0 0 1-3 6 11 11 0 0 0 5 1 12 12 0 0 0 7-2c3-3 4-8 4-13z"/><path class="cls-6" d="M131 482a26 26 0 0 0-1-5 21 21 0 0 0-4-9h-1a34 34 0 0 1 4 10 18 18 0 0 1 0 5 20 20 0 0 0 0 3c0 4-2 7-4 8a12 12 0 0 1-1 1 12 12 0 0 0 1 0 11 11 0 0 0 7-2c3-2 4-6 4-10-2 2-5 2-5-1zM98 487l-10 2c-3 0-8-1-10-5a13 13 0 0 1-1-3c-1 4 0 9 1 12 2 4 7 4 10 4l10-2c3-2 5-8 4-15l-4 7z"/><path class="cls-6" d="M116 478c0 5 0 9-5 10s-6-2-7-5c0-8-3-14-6-15a1 1 0 0 0-1 1c3 2 4 6 5 8a36 36 0 0 1 0 11c0 3-1 6-3 7a12 12 0 0 0 6 2 13 13 0 0 0 7-3c4-2 5-9 4-16zM295 293a8 8 0 0 1-4 3 3 3 0 0 1-3-1 18 18 0 0 0-6-8c-4-3-11-4-16-2h7a17 17 0 0 1 7 3 15 15 0 0 1 7 11 1 1 0 0 0 1 1 14 14 0 0 1 0 3 11 11 0 0 1-2 7h-1 1a13 13 0 0 0 4-2 11 11 0 0 0 6-9 17 17 0 0 0-1-6z"/><path class="cls-6" d="M302 291a4 4 0 0 1-3 2 3 3 0 0 1-3-2c-2-6-9-13-14-13v1a13 13 0 0 1 5 2 19 19 0 0 1 4 5 29 29 0 0 1 3 4l2 6a16 16 0 0 1 0 3 11 11 0 0 1-3 8l-1 1 1-1a13 13 0 0 0 3-1 11 11 0 0 0 6-9 17 17 0 0 0 0-6z"/><path class="cls-6" d="M306 289a4 4 0 0 1-2 1 1 1 0 0 1-1 0 22 22 0 0 0-3-6 13 13 0 0 0-6-5l3 3a15 15 0 0 1 2 3l4 8a16 16 0 0 1 0 4 12 12 0 0 1-3 7h1a10 10 0 0 0 6-9 14 14 0 0 0-1-6zM277 201c3-3 8 1 8 1s-4-7-10-9a22 22 0 0 1 2 8z"/><path class="cls-2" d="M435 357a14 14 0 0 1 0 4h-1l-1 1-1 2-1 1v1l-1 1-6 8-1 1-5 6v1l-2 1v1l-4 4v1l-4 4h-1l-2 2v1l-7 6-1 2-8 7-2 2-1 1-7 5v1l-5 3-1 1-5 4-1 1h-1l-8 6h-1l-1 1-1 1-5 3-7 4h-1l-1 1-4 2-1 1-2 1-5 2-6 3v-1c46-22 81-52 112-97zM277 415l-22-9v-1l23 9-1 1zM287 408l-38-15v-1l40 14zM297 400l-52-19v-1l54 18zM307 391l-18-5-45-15 1-1 45 14 18 6zM317 382l-74-20v-2l75 21-1 1zM326 373l-82-20h-1l1-2h1l82 21zM334 363a9 9 0 0 1 1-1c-27-7-57-14-90-19v1c32 6 62 13 89 20zM342 354l1-1a724 724 0 0 0-93-19v2a722 722 0 0 1 92 18z"/><path class="cls-2" transform="rotate(-81 350 446)" d="M349 438h2v16h-2z"/><path class="cls-2" d="M384 441c-8 0-17-2-28-4l1-1 27 4zM399 433l-30-4v-2l30 5zM406 425l-26-5v-1l26 4z"/><path class="cls-2" transform="rotate(-78 402 414)" d="M401 402h2v25h-2z"/><path class="cls-2" transform="rotate(-74 409 406)" d="M408 395h2v22h-2z"/><path class="cls-2" d="M423 403l-17-6v-2l18 6zM427 395h-1l-14-6 1-1 14 5 1 1zM430 388l-12-6 1-1 11 5zM432 380l-8-4 2-1a36 36 0 0 1 5 3h1z"/><path class="cls-2" d="M423 376v-2c4-1 9-1 10-3l1 2-11 3zM267 329a5 5 0 0 1 1 0 92 92 0 0 1 18-9l-1-2a94 94 0 0 0-19 11h1zM278 330l1 1h2a35 35 0 0 1 6-3 8 8 0 0 1 0-2 36 36 0 0 0-9 4zM294 333h-1a161 161 0 0 1 5-25l2 1a159 159 0 0 0-6 24zM302 334h-2l7-32h3c-4 11-7 22-8 32zM310 335h-2a358 358 0 0 1 8-37l2 1a359 359 0 0 0-8 36zM317 337h-2a367 367 0 0 1 10-38h1a365 365 0 0 0-9 38zM325 339h-2a330 330 0 0 1 9-38l1 1a328 328 0 0 0-8 37zM332 341l-1-1 9-40h2c-4 13-8 27-10 41zM340 343l-1-1a310 310 0 0 1 9-42l2 1a309 309 0 0 0-10 42zM348 344h-2c3-21 7-36 12-48a274 274 0 0 0-10 48zM358 330a244 244 0 0 1 10-35l-2-1a257 257 0 0 0-10 40 25 25 0 0 1 2-4zM375 298v1l-1 3-1 1-2 4 3-10a8 8 0 0 1 1 1z"/></g><g id="_2" data-name="2"><path d="M257 183a15 15 0 0 0-16 5 21 21 0 0 1 16-5zM182 121c-19-8-33 6-32 26 3-18 15-28 32-26zM280 102c-12-16-29-19-35-3 8-11 22-9 35 3zM215 197c5-7 1-21-7-32a43 43 0 0 0-4-5 33 33 0 0 0-11-8 7 7 0 0 0 2-2 10 10 0 0 1-3 1 6 6 0 0 0 1-4 5 5 0 0 1-4 4 9 9 0 0 0 2-5l-4 4a7 7 0 0 0 1-6 9 9 0 0 1-3 5 5 5 0 0 0 1-3 6 6 0 0 1-2 3 10 10 0 0 0 1-6h2c-16-4-31 9-31 26 3-17 13-27 29-26-1 2-2 5-4 6a7 7 0 0 0 0-5c0 3-2 5-4 6a8 8 0 0 0-1-5 7 7 0 0 1-2 5 6 6 0 0 0 0-3c0 3-2 4-2 4a6 6 0 0 0-1-4 6 6 0 0 1-2 5 10 10 0 0 0 0-3 7 7 0 0 1-1 4 8 8 0 0 0-1-3c0 1 0 3-2 5a5 5 0 0 0 0-1l-2 4c-4 5-5 11-6 15-2 11 0 23 6 30 3 4 12 7 22 7l4-1c12 0 22-5 26-12zm-26 12a55 55 0 0 1-11-1 25 25 0 0 1 11-48 6 6 0 0 0-2 7 18 18 0 1 0 10 3 6 6 0 0 0 0-8 25 25 0 0 1 5 44 45 45 0 0 1-13 3zm-2-42a6 6 0 0 1 0-2 6 6 0 0 1 3-5 6 6 0 0 1 1 0 6 6 0 0 1 1 0 6 6 0 0 1 0 11 6 6 0 0 1-5-4zm5 32a4 4 0 1 1-4-4 4 4 0 0 1 4 4zm12 6a26 26 0 0 0-7-44 6 6 0 0 0-7-1 26 26 0 0 0-14 48c-6-1-11-3-13-6-6-7-8-20-5-31 3-9 9-15 16-18a29 29 0 0 1 9-1c9 0 18 5 25 14 8 10 11 24 7 30a25 25 0 0 1-11 9zM254 200l6 2a3 3 0 0 0 1 0l3-4c1-2 2-4 1-5l-3-2a14 14 0 0 0-4 1c-5 1-7 4-7 5l3 3zm4-8a14 14 0 0 1 4 0l3 1-1 5-3 3a2 2 0 0 1-1 1l-6-3-2-2c-1-1 1-3 6-5z"/><path d="M221 225a19 19 0 0 1 4-6l3-2 1 1a16 16 0 0 0-3 4 16 16 0 0 1 4-4l2 1 2 2a14 14 0 0 0-2 2 13 13 0 0 1 2-2 106 106 0 0 0 13 9 56 56 0 0 0 7 3 17 17 0 0 0 6 2 10 10 0 0 0 4-1 9 9 0 0 0 5-10l-1-12h2a6 6 0 0 0 5-2 9 9 0 0 0 2-6c4-1 11-2 16 0-5-2-12-1-16-1a22 22 0 0 0 0-4l3-1a42 42 0 0 1 4 3 25 25 0 0 0-3-3 16 16 0 0 1 7 0 16 16 0 0 0-8 0 18 18 0 0 0-2-1c4-1 9-2 12 0-4-2-9-2-13-1a12 12 0 0 0-1 0 28 28 0 0 0-1-3l1 4a35 35 0 0 0-5 1h1l4-1v2a38 38 0 0 0-7 3s0 1 0 0a48 48 0 0 1 7-3 20 20 0 0 1 1 5h-3v1l3-1a8 8 0 0 1-2 5 6 6 0 0 1-5 2h-4a6 6 0 0 0-2 0l-4 4-1 1c-2 2-4 5-8 6a12 12 0 0 1-4 1 31 31 0 0 1-9-2l-3-1c6-4 15-6 15-6v-1s-10 2-15 7a39 39 0 0 1-5-2c6-4 13-5 14-6-1 0-8 2-14 6l-2-2a12 12 0 0 0 2-3v-8l-1 8a20 20 0 0 1-5 6c-3 3-6 5-5 10a12 12 0 0 1 2-4zm56-27l-1-1a17 17 0 0 1 3 1l-2 1v-1zm-18 36a17 17 0 0 1-7-2l-1-1-4-1a1 1 0 0 1 0-2l4-4a16 16 0 0 1 6-2c3 1 5 4 5 4a8 8 0 0 0-4-4l4-4h1a3 3 0 0 1 2 1l2 6a8 8 0 0 1-2 6 9 9 0 0 1-6 3zm1-18l4-4a6 6 0 0 1 2 0h1l1 12a8 8 0 0 1-3 8 8 8 0 0 1-1 1 10 10 0 0 0 1-1 9 9 0 0 0 3-7c0-2-1-5-3-6a4 4 0 0 0-2-1h-1c-2 0-5 3-5 3a20 20 0 0 0-4 1c3-1 5-4 7-6zm-26 4a37 37 0 0 0 13 3 13 13 0 0 0 4 0c-2 1-5 3-5 6a106 106 0 0 1-12-8zm0 0z"/><path d="M264 210a10 10 0 0 0-2-7 21 21 0 0 1 2 7zM251 209s-13 1-19 7c5-6 18-7 19-7s1 0 0 0zM272 227a16 16 0 0 1 3 12l-1-4a23 23 0 0 1 0 8 24 24 0 0 0-1-4 12 12 0 0 1-2 7 17 17 0 0 0 1-4 19 19 0 0 1-2 5 11 11 0 0 1-4 4 8 8 0 0 0 5-4 8 8 0 0 0 2-5v3a15 15 0 0 0 2-6 20 20 0 0 1 0 2c2-5 0-11-3-14zM271 177a21 21 0 0 0 4 0c5 0 12-2 17-6 7-6 11-13 12-21 0-5-3-11-7-17a49 49 0 0 0-13-12 3 3 0 0 0 2-3 3 3 0 0 1-3 2 5 5 0 0 0 2-2 4 4 0 0 0 0-3 4 4 0 0 1-1 2l-1-1a7 7 0 0 0 0-2 4 4 0 0 1-1 1l-2-1a6 6 0 0 0 0-2 9 9 0 0 1 0 1 21 21 0 0 0-3-1v-1 1c-10-5-18 1-20 10 3-8 10-14 19-10a7 7 0 0 1-2 4 7 7 0 0 0-1-4c0 2-1 3-3 4a9 9 0 0 0-1-4 5 5 0 0 1-1 5 5 5 0 0 0 0-3 3 3 0 0 1-2 3 6 6 0 0 0-1-4 5 5 0 0 1-1 5 9 9 0 0 0 0-3 5 5 0 0 1-1 4 8 8 0 0 0-1-3l-1 4a2 2 0 0 0-1-1c1 2-1 3-1 5a43 43 0 0 0-3 13 57 57 0 0 0 1 21c3 11 8 18 14 19zm21-7c-7 5-15 7-21 6-4-1-7-4-10-9a18 18 0 1 0 22-28 6 6 0 0 0 1-8 25 25 0 0 1 14 33 34 34 0 0 1-6 6zm-17-6a4 4 0 1 1-5 4 4 4 0 0 1 5-4zm-2-29a6 6 0 0 1 3-6 6 6 0 0 1 1 0 6 6 0 0 1 1 0 6 6 0 0 1 0 11 6 6 0 0 1-5-3 6 6 0 0 1 0-2zm10-19l1 1a2 2 0 0 1-2 1 6 6 0 0 0 1-2zm-3-2l2 1a7 7 0 0 1-3 2 5 5 0 0 0 1-3zm-3-2a22 22 0 0 1 3 2 5 5 0 0 1-2 3 4 4 0 0 0 0-4s0 3-2 3a8 8 0 0 0 1-4zm-13 9a11 11 0 0 1 7-3 20 20 0 0 1 9 2c12 6 23 21 23 30a24 24 0 0 1-5 13 26 26 0 0 0-15-32 6 6 0 0 0-7-2 26 26 0 0 0-19 7c1-7 4-13 7-15zm-8 15a25 25 0 0 1 20-7 6 6 0 0 0-3 8 18 18 0 0 0-17 14 49 49 0 0 1 0-15z"/><path d="M497 488a4 4 0 0 0-3 0c-14 2-26 4-35 4l-13-1a31 31 0 0 1 8-4c17-4 23-8 23-14s-8-8-14-10c-19-4-39 4-55 10l-4 1a105 105 0 0 0 20-23c4-3 6-6 5-8a7 7 0 0 0 3-7 6 6 0 0 0 3-7 6 6 0 0 0 3-4 4 4 0 0 0-1-3c2-1 4-4 2-7l2-5a3 3 0 0 0-1-2 4 4 0 0 0 1-2 7 7 0 0 0 0-5 6 6 0 0 0 1-4 6 6 0 0 0-1-4v-8a13 13 0 0 0 0-10 7 7 0 0 0-3-4c1-3 0-9-3-10 1-4 1-7-1-9a5 5 0 0 0-3-2c0-3 0-6-2-8a5 5 0 0 0-3-2c0-4-2-8-6-8 0-5-3-8-6-8a8 8 0 0 0-7-7 7 7 0 0 0-3-4 7 7 0 0 0-5-2 6 6 0 0 0-2-4 7 7 0 0 0-5-1c-2-4-5-5-8-5a6 6 0 0 0-3-3 6 6 0 0 0-5 0 9 9 0 0 0-8-3 7 7 0 0 0-7-2l2-11c0-6-3-9-7-11a11 11 0 0 0-3 0q-2-5-6-6a12 12 0 0 0-8 1 8 8 0 0 0-5-3 11 11 0 0 0-10 4 11 11 0 0 0-10 2 14 14 0 0 0-4 7 15 15 0 0 0-2 2l-4 5-2-5 2 3-1-3a40 40 0 0 0-4-10l3 2-1-1a38 38 0 0 0-14-17 35 35 0 0 0-7-7c23-15 45-44 56-75l6-17a36 36 0 0 1-6 7l1-2a106 106 0 0 0 7-11 72 72 0 0 1-7 3l8-7a29 29 0 0 1-17-2 23 23 0 0 0 7 0c-7 0-18-10-29-26-8-12-16-23-28-33a108 108 0 0 0-2-37c-7-28-18-41-22-43a2 2 0 0 0-1 0c-4 1-6 4-7 8a38 38 0 0 1-11 16 121 121 0 0 0-17 18c-7-5-21-8-34-6a46 46 0 0 0-13 5c6-8 15-12 15-12a56 56 0 0 0-32 20l-4 5a23 23 0 0 0-6-18l-1-1v2c2 8 2 14 0 20a37 37 0 0 1-7 15l5-13a53 53 0 0 0-12 18c-7-5-20-8-36-9a96 96 0 0 1-16-2c-6-1-11-2-15-1a6 6 0 0 0-4 3c-5 7-3 23-1 32a187 187 0 0 0 7 29c6 14 22 37 43 43l-1 15c-1 8-4 17-9 23a21 21 0 0 0 6-5c-4 6-10 11-17 13h-1l1 1a48 48 0 0 0 12 1h3l-11 2 14 4a36 36 0 0 1-7 0l4 4c14 10 39 24 69 31a165 165 0 0 0 25 4 21 21 0 0 0 0 3 8 8 0 0 1-6 0s2 3 6 3a44 44 0 0 0-9 8l6-3a36 36 0 0 0-9 18 47 47 0 0 1-9 7 20 20 0 0 0 7-2c-7 5-21 5-21 5a51 51 0 0 0 8 2c-4 0-9 0-11-2a11 11 0 0 1-2-6 8 8 0 0 0-1 6 32 32 0 0 0-14-1l6 2h-3a78 78 0 0 0-23 6c-11 0-20-2-25-8-4-5-7-12-7-20 1-5 2-10 6-12 0 0-4-1-7 5a59 59 0 0 1 3-9 75 75 0 0 0 4-17 49 49 0 0 0-7-31v8a66 66 0 0 0-29-34l-2-1 1 2a36 36 0 0 1 8 23 63 63 0 0 0-3-9 32 32 0 0 1-10 29 42 42 0 0 0 3-10c-4 7-9 12-14 18s-11 10-14 17c-5 10-5 22-3 33l-5-10a71 71 0 0 0 9 32c7 12 17 22 29 27a49 49 0 0 0 19 4 45 45 0 0 0 19-5 51 51 0 0 0-2 8l4-5c-4 11-5 24-1 36v-8l2 12v14c-1 5-4 9-7 12l-4 5c-4 5-8 14-7 22v2l1-2a33 33 0 0 1 2-7l-3 21c0 4-3 13-6 14a6 6 0 0 0 5-3c0 5-3 14-3 14l1-1v14c4 7 17 6 22 3a13 13 0 0 0 6 1 13 13 0 0 0 7-2 12 12 0 0 0 6 2 12 12 0 0 0 5-1 12 12 0 0 0 2 0 12 12 0 0 0 8-3c2-1 3-4 3-9a29 29 0 0 0-2-11c-2-5-6-6-9-5a9 9 0 0 0-5-3c1-11 5-25 11-34 6-1 13-4 20-8a27 27 0 0 0-2 12v2l2-5a26 26 0 0 0 1 11 58 58 0 0 1 2-7 41 41 0 0 0 11 25l2 2-3-8c3 5 8 8 12 13a105 105 0 0 1 7 9 9 9 0 0 0 0 2c2 3 10 4 15 4a34 34 0 0 0 4 0 15 15 0 0 0 4-1 22 22 0 0 0 5 1 17 17 0 0 0 7-2h2a17 17 0 0 0 6-1c4 0 7-2 8-4 2-4 2-10-1-17a10 10 0 0 0-5-6 10 10 0 0 0-5-1 9 9 0 0 0-2 0 12 12 0 0 0-7 1h-1v-1c-9-5-16-23-14-28 2-7 10-9 15-15l-3 5a60 60 0 0 0 13-15 58 58 0 0 0 7-6 10 10 0 0 0 1 3c-1 1-3 6 0 10a3 3 0 0 0 1 4c0 1-1 8 2 11 0 1-1 8 3 10 0 1 0 4 2 5a4 4 0 0 0 0 4 4 4 0 0 0 3 1 4 4 0 0 0 2 5 4 4 0 0 0 0 3 4 4 0 0 0 3 2 4 4 0 0 0 0 2 4 4 0 0 0 3 2 4 4 0 0 0 0 3 4 4 0 0 0 3 2 4 4 0 0 0 1 2 4 4 0 0 0 3 2 3 3 0 0 0 0 2 5 5 0 0 0 4 2 4 4 0 0 0 0 2 5 5 0 0 0 4 2c0 1 1 3 4 4 1 1 1 3 5 3 0 1 1 3 5 4 0 1 2 3 6 3a8 8 0 0 0 6 3c0 2 3 4 7 3 2 4 7 3 8 3a10 10 0 0 0 9 2c3 2 6 3 9 1a9 9 0 0 0 7 1 8 8 0 0 0 4 1 5 5 0 0 0 4-1h7l6-1c1 0 5 0 7-2 1 1 5 1 6-1 1 0 6 0 7-3l7-3c11-2 22-6 31-9 15-6 33-13 50-9l8 2c-1 2-5 4-17 7-14 4-15 9-15 12 1 5 7 7 18 7h3c10 0 23-1 38-4a4 4 0 0 0 1-7zm-73-38h-1l-11 1h-30l-8-1h-1l-8-1h-6l-2-1h-1l-4-1h-5l-4-1 7-4v-1l4-2 2-1h2l5 1h1l8 1v1l8 1h10l8 1h30c1 2-1 5-4 7zm-59 0l8 1a124 124 0 0 1-10 10l-2-7 4-4zm-4 3l-1-4 4 1-3 3zm13-2h8l-2 3a128 128 0 0 1-15 14l-2-6a124 124 0 0 0 11-11zm6 3l3-3 8 1-6 6a133 133 0 0 1-18 17l-2-6a129 129 0 0 0 15-15zm6 5l6-7h9a117 117 0 0 1-10 11 138 138 0 0 1-22 19l-2-6a134 134 0 0 0 19-17zm6 5a117 117 0 0 0 9-12h9a117 117 0 0 1-13 16 144 144 0 0 1-26 20l-2-6a139 139 0 0 0 23-18zm36-22l-11 1h-10l-8-1h-10l-8-1-8-1h-1l-7-1h-1l-6-1-1-1 9-6 2-2 2 1h1l7 1h1l7 1h1l7 1h1l8 1 8 1h1l8 1h11a6 6 0 0 1-3 6zm4-7h-12l-8-1h-9l-8-1-8-1h-1l-7-2h-1l-7-1h-2l3-2 1-1 6-5h4l1 1 7 1 8 1 8 2 8 1 8 1 11 1a5 5 0 0 1-2 6zm5-10a5 5 0 0 1-3 3l-10-1h-1l-7-1h-1l-7-1h-1l-7-1h-1l-7-2h-1l-7-1h-1l-3-1 6-4 1-1 2-2 6 1 7 1 1 1 7 1 8 2 7 1h1l10 2a3 3 0 0 1 1 3zm-1-3l-10-2-8-2-7-1-1-1-7-1h-1l-7-2-5-1 7-7h1l7 2 7 2h1l7 2 7 2h1l9 2h1c2 3-1 6-2 7zm4-12l-2 5-10-3h-1l-7-2-7-2h-1l-7-2-7-2 7-7h2v1l7 2h1l6 2 1 1 7 2 10 3v1a2 2 0 0 1 1 1zm1-4a3 3 0 0 1-2 2l-9-4h-1l-7-2-7-3h-1l-7-2h-1l1-2h1l4-5 3 1h1l7 3 7 3h1l8 4h1a6 6 0 0 1 1 5zm0-9a5 5 0 0 1-1 4l-1-1-8-3-1-1-7-3-7-3h-1l-2-1 3-3v-1l2-2 5 2h1l7 4 9 4v1a5 5 0 0 1 1 3zm-1-4l-9-5-7-3-1-1-4-2 4-5 1-1 7 4 8 5 1 1a7 7 0 0 1 0 7zm0-17a12 12 0 0 1 0 9l-1-1-8-4v-1l-6-3a36 36 0 0 0 13-4 6 6 0 0 1 2 4zm-3-4a41 41 0 0 1-13 3l6-7 1-1 1-2 2-3h1c2 1 3 6 2 10zm-69-76a8 8 0 0 1 7 2v1l-1 3h-1l-2 5v1l-3 4v1l-1 1v1l-1 2-1 1-2 5h-1v1l-3 5 1-6 2-5v-1l1-5v-1l2-5 1-5v-1l2-4zm-1 0l-1 4v1l-2 5-1 5-1 1-1 5v1l-1 5-2 6v1l-3 5v1l-4 6h-1l-2 3v-3h1l1-6v-1l1-6 1-6v-1l2-5v-1l1-5v-1l2-5 2-5v-1l1-5h1a6 6 0 0 1 6 2zm-86 109l-11-4-7-2v-1l-6-2h-1l-6-3-6-2-1-1-6-2-4-2c-1-5 1-8 1-8h1l6 2 1 1 6 2 7 3 7 2 7 3 7 2h1l3 2h1l7 2h1l7 3-7 5v1l-2 1-6-2zm5 3l-4 3h-1l-5 4-12-5-6-3h-1l-5-3h-1l-6-2v-1l-6-2v-1l-6-2v-1c-2-4 0-8 0-8l3 1h1l6 3 6 3h1l6 2v1l7 2 6 3h1l11 4h1zm3-11h-1l-7-3h-1l-3-1-7-3h-1l-6-2h-1l-6-3h-1l-6-2-1-1-6-2h-1l-6-3h-1c-2-5 1-7 2-8l3 1h1l6 3h1l7 2 7 2 1 1 7 2 7 2h1l4 2 3 1h1l3 1h1l7 2 1 1 7 2h2l-1 2h-1l-7 6-8-2zm16-7h-1l-7-2h-1l-7-2-1-1-2-1h-1l-4-1h-1l-3-1-7-2-1-1-7-2h-1l-6-2-1-1-7-2-7-2h-1l-3-1c-1-5 2-8 2-8l6 2h1l7 2h1l7 2h1l7 2h1l8 3 4 1h1l3 1h1l3 1 5 1 1 1h2l8 2v1l7 2h4l-3 3-1 1-5 5zm8-9h-1l-7-2-8-2-2-1-6-1v-1h-3l-4-2h-1l-3-1h-1l-8-2-8-2-8-2v-1l-7-2h-1l-6-2h-1c0-5 3-7 3-7h2l8 2h1l7 2h1l8 2h1l8 2h1l4 1v1l4 1h4v1l6 1h1l1 1 7 1 1 1h1l6 1 1 1 7 1v1l4 1-2 2-2 1v1l-4 4zm8-9l-7-2h-1l-5-2h-3l-7-2h-1v-1l-7-1-2-1h-1l-5-1-4-1-9-2v-1l-8-1-1-1-8-1-1-1-7-1-1-1h-2a6 6 0 0 1 4-7h4l1 1 8 1h1l9 2h1l9 2 5 1h1l4 1h1l2 1 7 2h2l6 1 1 1h3l1 1h3l8 2 1 1 6 1h1l3 1-3 4-1 1-4 4zm9-9h-1l-5-2h-2l-7-2h-1l-2-1h-1l-4-1h-1l-6-2h-2l-7-2h-2l-5-1-1-1h-5l-9-2-1-1-8-1h-1l-9-2-4-1h-1a9 9 0 0 1 5-7h1l6 1h1l10 1h1l10 2 5 1h1l5 1h2l1 1 7 1h2l1 1 4 1h1l7 1h1v1l7 1 6 2h2l7 2h1l2 1-2 1v1l-1 1v1l-4 5zm9-9l-1-1-6-1h-1v-1h-1l-6-1-1-1-6-1h-2l-7-2-4-1h-1l-2-1h-1l-7-1h-2l-6-1v-1h-6l-10-2h-1l-9-2h-1l-7-1a11 11 0 0 1 5-7h1l11 1h1l11 1h1l5 1h1l6 1h2l7 2 5 1h3l7 1 1 1 4 1h3l7 2h1l6 2h2l7 2-1 1-1 3h-1l-4 5zm-32-60a7 7 0 0 1 5 0l-1 3-1 1-2 7v1l-2 7-2 8-1 8-1 1v4l-7-1v-1l1-8 1-1 1-8 2-8 1-1v-2a10 10 0 0 0 6-9 12 12 0 0 0 0-1zm36 4l-2 5v1l-2 5v1l-2 6-1 7-2 6v1l-1 7-1 3-7-1v-1l2-7v-1l1-6v-1l2-6v-1l2-6v-1l1-6h1l1-6h1a14 14 0 0 0 3-1 11 11 0 0 0 4 1zm0 0v-1h1a13 13 0 0 0 4 0 9 9 0 0 0 3 0v1h-1l-1 6-2 6-2 6-1 6v1l-2 6-1 7-1 6-7-2 1-3v-1l1-6v-1l1-6 1-1 1-6 2-6v-1l2-5v-1l1-5zm-8-1l-2 6-2 6v1l-2 6v1l-1 6v1l-2 7-1 7v1l-1-1-6-1v-4l1-1 1-7v-1l2-6v-1l2-6v-1l1-6 1-1 1-6 1-1v-1a9 9 0 0 0 6 2h1zm-8-1v1l-2 6v1l-2 6v1l-2 6v1l-2 7-1 7v1l-1 4-7-2v-1l2-7v-1l1-7h1l1-7v-1l2-7 2-7h1v-1a11 11 0 0 0 3 0 10 10 0 0 0 4 0zm-8 1l-2 7-2 7v1l-2 7-2 8-1 8h-2l-6-1 1-4v-1l2-8 2-8 2-8 2-7v-1l1-3a6 6 0 0 1 3-2 9 9 0 0 0 4 4zm-30 22l-2 8-6 4-12-2a110 110 0 0 1 20-10zm-21 10l-10-1a110 110 0 0 1 33-18l-2 8a110 110 0 0 0-21 11zm19-1l-1 3h-4l5-3zm1 0v-1l2-8v-1l2-8v-2a14 14 0 0 0 4-1 14 14 0 0 0 3-2 13 13 0 0 0 1 0v2l-2 8v1l-2 8-2 9-7-1 1-4zm19-33a9 9 0 0 1-6 9h-1a12 12 0 0 0 3-7c0-6-3-13-8-17a10 10 0 0 1 4 1c5 3 8 9 8 14zm-5 2a11 11 0 0 1-6 9 13 13 0 0 1-3 1 12 12 0 0 0 3-8c1-8-5-16-10-19a10 10 0 0 0-4-1 12 12 0 0 1 11 1c6 3 10 11 9 17zm-16-16c5 3 10 11 10 18a11 11 0 0 1-6 9 13 13 0 0 1-4 2 11 11 0 0 0 3-7c0-6-4-13-10-16a17 17 0 0 0-12-2 31 31 0 0 1 5-3c5-2 10-4 14-1zm-7 7c5 2 9 9 9 15 0 4-2 7-6 9-3 1-10 5-18-5a18 18 0 0 0 4 5 13 13 0 0 1-6-3 13 13 0 0 0 8 4h1a105 105 0 0 0-13 12 12 12 0 0 1-8-7c-2-7 0-18 5-25a21 21 0 0 1 10-7 17 17 0 0 1 14 2zm-7 26c4 1 8-1 10-1a14 14 0 0 0 3-2 14 14 0 0 0 5-2l1-1v1a111 111 0 0 0-34 19 104 104 0 0 1 15-14zm76 28v2l-6-1-1-1 1-6v-1l1-6 1-6 1-1 1-6 2-6 1-6h1l1-6v-1a12 12 0 0 0 5 0 7 7 0 0 0 4-3l-2 5-1 5-1 1-1 5v1l-2 5v1l-1 5v1l-2 6-1 6v1l-1 6zm8-70c4 2 6 7 6 10 0 6-2 12-6 14a9 9 0 0 1-6 0c3-2 5-11 4-19a24 24 0 0 0-1-5 11 11 0 0 1 3 0zm-9-6c5 1 6 7 7 11 0 8-2 17-5 18-2 2-6 2-9 0a8 8 0 0 0 1 0c3-3 4-12 2-20a21 21 0 0 0-3-8 11 11 0 0 1 7-1zm-13-2c6 1 8 7 8 11 2 7 1 17-2 19s-8 3-11 1a6 6 0 0 0 1-1c2-4 2-12 0-18-1-3-2-6-5-8 1-1 4-4 9-4zm-20 6a10 10 0 0 1 10-2c3 1 5 5 5 8 2 6 2 14 0 17s-6 3-8 2a9 9 0 0 1-6-4 19 19 0 0 1-2-7 22 22 0 0 0 1 6 7 7 0 0 0 1 1 7 7 0 0 0-2 1 13 13 0 0 1-2-6c-2-3-2-12 3-16zm-7 10a15 15 0 0 0 0 3 38 38 0 0 1 2-4 24 24 0 0 0 1 7 13 13 0 0 0 3 6 7 7 0 0 0-1 1 8 8 0 0 0-5 0 18 18 0 0 0-3-9zm-7-12l-6-5 2 3a39 39 0 0 1 6 11l-4-5 5 11v1a16 16 0 0 0-4-4 11 11 0 0 0-5-1 13 13 0 0 0-3-2 20 20 0 0 0 0-7l2 5s0-9-3-15l4 5a31 31 0 0 0-5-11 37 37 0 0 1 11 14zm-8-6l-5-7s4 9 5 15l-3-4a22 22 0 0 1 1 11 14 14 0 0 0-9 2 20 20 0 0 0-9 2 37 37 0 0 0-7 5 23 23 0 0 0-6 3c-12 0-21 2-34 7v-1l1-1h-1a35 35 0 0 0-16-15l-1-1 3 5-10-8 3 6c-5-3-8-8-8-14h9a143 143 0 0 0 17-1 135 135 0 0 0 55-19l2-1c6 4 11 10 13 16zm-68 35h-1a9 9 0 0 0 1-1zM253 2l1 1c4 2 15 15 21 42a107 107 0 0 1 2 37 129 129 0 0 0-16-12 168 168 0 0 0-21-10 87 87 0 0 0 13-51V2zm-35 43h1l2 1-2-2a120 120 0 0 1 17-18 39 39 0 0 0 11-16c1-3 2-5 5-7v9c1 11-2 30-13 48l-8-3 7 2-1-1c-5-5-12-9-20-12l1-1zm-2 1a68 68 0 0 0-12-3l-3-1c6 0 13 2 16 3l-1 1zm-78 19a37 37 0 0 0-3 10 25 25 0 0 1-1 2c5-4 9-10 10-18V40a22 22 0 0 1 5 17 52 52 0 0 0-3 6l9-12a59 59 0 0 1 26-18 39 39 0 0 0-12 11 23 23 0 0 0-7 6c5-5 13-9 22-11 12-2 25 0 32 4-4-1-13-2-18-1a27 27 0 0 0-8 1c14-2 34 5 45 14l-7-1a32 32 0 0 0-12-5c5 2 15 6 20 15 4 8 2 16 0 20 0-3 0-7-2-10l-1-3 1 3c1 8-1 19-6 29a44 44 0 0 1 3-15 25 25 0 0 0-3 9 36 36 0 0 0 1 15 16 16 0 0 1-2-6s0 8 5 13c-16 0-24-10-24-10l-2-3 1 3a24 24 0 0 0 8 10c-33-3-44-20-44-20a23 23 0 0 0 5 6c2 2 4 5 7 6-10-2-18-8-25-14l-3-3 2 4a21 21 0 0 1 4 8l-15-12 3 3 2 5c-5-2-10-6-12-13a11 11 0 0 0 1 3 5 5 0 0 1-5 3c1-1 3-3 3-7 0-6-4-9-4-9a16 16 0 0 1 3 7 34 34 0 0 0-6-7l-1-1a55 55 0 0 1 8-15zm-73 65a187 187 0 0 1-8-28c-1-9-3-25 1-31a5 5 0 0 1 4-3 5 5 0 0 1 1 0l6 2a59 59 0 0 0 11 5c9 2 24 6 33 16a63 63 0 0 1 11 15l-4 7a18 18 0 0 1-11 7h-1 1a8 8 0 0 0 5 0l-4 4 3-2a15 15 0 0 1-11 8h-1c3 2 8 1 11-1-2 7-12 9-12 9a19 19 0 0 0 6-1c-5 3-11-1-11-1s5 8 12 6c-3 4-7 3-7 3a8 8 0 0 0 6 2c-3 3-7 0-7 0v1c2 4 6 5 8 6a4 4 0 0 1-5-1h-1l1 1a14 14 0 0 0 6 8l-1 11c-20-6-37-29-42-43zm39 19c4-1 5-5 5-5a6 6 0 0 1-2 2c-1 1-4 0-6-1 6 0 9-5 9-5a7 7 0 0 1-4 2c-5 1-9-3-10-5a13 13 0 0 0 8 1 10 10 0 0 0 6-3 17 17 0 0 1-7 2c7-2 9-7 10-9l1-2s-5 6-12 4a15 15 0 0 0 12-8v-1l-2 1 5-4-2 1a8 8 0 0 1-5 1 19 19 0 0 0 9-5c-6 12-9 26-10 38a5 5 0 0 1-2 0 8 8 0 0 1-7-5c1 0 5 3 9 0a9 9 0 0 1-5 1zm4 5v7a13 13 0 0 1-6-7 5 5 0 0 0 6 0zm62 108c-31-7-58-22-71-33a44 44 0 0 0 7 0 50 50 0 0 1 6 3 47 47 0 0 0-17-8 25 25 0 0 0 10-2 48 48 0 0 0 6-1s-13 2-23-1c7-2 14-8 18-16l1-3-7 7c3-4 9-18 9-28a54 54 0 0 1-2 8c1-12 0-56 20-86l-3 3a57 57 0 0 0-11-15c-9-9-23-14-33-16a59 59 0 0 1-11-5 29 29 0 0 0-4-1c3-1 7 0 11 1a96 96 0 0 0 17 2c13 1 29 3 37 11a39 39 0 0 1 7 8c0 4-2 7-4 7 3 1 6 0 7-2 2 5 8 9 14 10-4-2-5-6-5-6a43 43 0 0 1 12 11l1 2v-2a28 28 0 0 0-3-9c8 7 18 12 28 14a23 23 0 0 1-7-4c7 4 19 10 37 11l2 1-2-1a22 22 0 0 1-8-9 31 31 0 0 0 4 4 36 36 0 0 0 20 5h1l-1-1a16 16 0 0 1-4-6l2 2a32 32 0 0 1-3-10c5-9 7-19 7-28a41 41 0 0 1 1 9v2-2c1 0 6-11 0-23a23 23 0 0 0-5-7l29 13c23 13 34 27 45 44 10 14 19 23 26 26-4 0-10-3-10-3a36 36 0 0 0 7 4 27 27 0 0 0 15 2l-11 8a43 43 0 0 0 10-3 87 87 0 0 1-6 9l-5 8 2-3a46 46 0 0 0 7-6l-5 13c-12 33-34 61-58 76a134 134 0 0 1-55 19 154 154 0 0 1-52-3zm21 8a7 7 0 0 0 5 0v2c-3 1-4 0-5-2zm5 5l-6 3a47 47 0 0 1 6-5 16 16 0 0 0 8 9l2 1-2-5 10 9-4-7a32 32 0 0 1 14 15 59 59 0 0 0-9 4 21 21 0 0 0-14 6s6-4 13-5l-2 1a45 45 0 0 0-9 9 62 62 0 0 1 20-14 42 42 0 0 0-3 3c15-6 24-8 38-9a19 19 0 0 0-3 2c-6 8-8 18-5 26 1 3 4 6 8 8l-2 2a12 12 0 0 0-6 8 10 10 0 0 0-5 8 8 8 0 0 0-4 5c-6 3-15 6-23 5h-2l6 4-12-5 6 5c-9-1-17-11-17-11l3 6a33 33 0 0 1-8-11c-2-4-3-13-3-13a33 33 0 0 0 0 7c-4-10-7-21-7-31-1-11 4-24 12-30zm-18 26a34 34 0 0 0 5-3v2a18 18 0 0 1-5 1zM41 247c4-4 9-8 12-13l-3 7 1-1a31 31 0 0 0 12-25 64 64 0 0 1 2 9 37 37 0 0 0-6-27 65 65 0 0 1 28 35l1 3-1-11a48 48 0 0 1 6 28 73 73 0 0 1-3 14v-14a62 62 0 0 1-7 16l1-22a141 141 0 0 1-10 20c1-6-1-20-1-20a58 58 0 0 1-14 22 117 117 0 0 1 2-20 31 31 0 0 0-7 11l-1-9a15 15 0 0 1-4 3l2-10s-7 6-14 8l4-4zm17 98c-12-4-23-14-30-27a73 73 0 0 1-8-27 33 33 0 0 0 4 8l2 7c-2-15-4-30 2-42a50 50 0 0 1 9-12 48 48 0 0 0 13-8l-2 11a61 61 0 0 0 5-4l1 11a33 33 0 0 1 6-11 108 108 0 0 0-2 19s11-12 14-21a86 86 0 0 1 1 21l10-20-2 22c3-5 7-10 8-15v12a63 63 0 0 0-3 16s1-8 5-11a19 19 0 0 0-3 11c-1 8 2 16 6 21 5 5 14 8 24 8a49 49 0 0 0-11 7l13-5a56 56 0 0 0-24 28c-12 6-26 7-38 1zm40 150c-2 2-16 5-20-2-1-4-2-10 0-14a18 18 0 0 1 11-10c6-2 10 0 12 6 3 10 1 18-3 20zm14-1a13 13 0 0 1-13 1c5-3 5-13 2-21a9 9 0 0 0-4-5 14 14 0 0 1 8-3c3-1 7 0 9 6 3 8 3 19-2 22zm22-21c2 7 2 17-2 20a11 11 0 0 1-8 2 12 12 0 0 0 2-1c2-2 3-5 3-10a34 34 0 0 0-2-13 10 10 0 0 0-1-3 7 7 0 0 1 8 5zm-7-2c3 8 3 19-2 22a12 12 0 0 1-12 2c2-2 4-6 4-10a34 34 0 0 0-2-14 11 11 0 0 0-2-4 7 7 0 0 1 1 0c4-2 10-2 13 4zm3-41c-8 1-14-2-16-4 0 0 5 6 16 5-6 9-10 23-11 34a14 14 0 0 0-5 1 9 9 0 0 0-2 1c-2-2-5-2-8-2a15 15 0 0 0-7 3 11 11 0 0 0-8 0 19 19 0 0 0-10 8 9 9 0 0 1-2 1 70 70 0 0 0 4-14 25 25 0 0 1-3 4 34 34 0 0 0 3-12l4-25 1-4-2 4a38 38 0 0 0-3 8c0-7 3-14 7-18l3-5c4-4 7-7 8-13v-14l-3-21-1 12c-2-12 0-26 5-37l-5 8a56 56 0 0 1 23-32l8-5-3 2a49 49 0 0 0-11 3c1-1 16-9 31-10l8-1h-3a8 8 0 0 0-3-1 20 20 0 0 1 9 1 6 6 0 0 0 1 1s-1-3 0-5c0 7 7 7 7 7a8 8 0 0 1-4-2c8 2 13 1 17-1a16 16 0 0 1-4 1l-6-1a45 45 0 0 0 18-5v4c0 10 4 24 9 34a34 34 0 0 0 5 9l1 1a35 35 0 0 0-15 22v-5a82 82 0 0 1-6 25 50 50 0 0 0 0-8 60 60 0 0 1-6 18 32 32 0 0 0 1-7c-2 7-7 17-14 22-10 8-20 12-28 13zm40-28v3h-1a30 30 0 0 0 1-3zm32 80a40 40 0 0 1-10 0c-3-1-7-2-8-4-1-3-1-5 1-11 4-8 9-12 18-12a7 7 0 0 1 5 3c4 5 4 14 3 16-1 4-3 7-9 8zm25-28a10 10 0 0 1 5 5c3 7 3 12 1 16 0 2-2 3-5 4a7 7 0 0 0 2-3c2-4 2-9-1-17a13 13 0 0 0-5-6 9 9 0 0 1 3 1zm-6-1c3 0 6 3 7 6 3 8 3 13 1 17-1 3-5 4-10 4a7 7 0 0 0 2-2c3-4 3-10 0-17-1-4-4-7-6-8a11 11 0 0 1 6 0zm-8 0c1 1 5 2 7 8 3 7 3 12 1 16s-8 5-14 4c3-1 4-4 5-7s0-11-3-16a8 8 0 0 0-4-3 12 12 0 0 1 8-2zm9-52a63 63 0 0 1-7 8l2-4c-7 9-16 11-19 18-3 8 8 25 13 29a14 14 0 0 0-8 3c-9 0-15 4-18 12l-3 8a65 65 0 0 0-5-8c-6-7-14-12-18-21a26 26 0 0 0 3 7 35 35 0 0 0 3 6 52 52 0 0 1-11-28v3a27 27 0 0 0-2 5 41 41 0 0 1 0-13l-2 7a26 26 0 0 1 3-11l5-4a37 37 0 0 0 11-12 107 107 0 0 0 20 2 62 62 0 0 0 18-3 46 46 0 0 0 19-11zm9-10a59 59 0 0 1-6 7l5-9c-7 7-15 13-23 15-10 4-22 4-37 1l1-1a58 58 0 0 0 6-13l-1 7a60 60 0 0 0 6-24 35 35 0 0 1 16-23 24 24 0 0 0 6 5l-2-5a22 22 0 0 0 17 8 12 12 0 0 1-4-3c2 2 7 3 10 3a32 32 0 0 1-6-4c8 1 16-2 21-5a8 8 0 0 0 1 2c-1 1-4 3-4 8a10 10 0 0 0-2 8c-1 1-4 4-2 9 0 1-2 4-1 9a14 14 0 0 0-1 5zm1 5h1l5 3h1l5 3h1l6 3 6 2 1 1 5 2h1l12 5-10 7-7-3-1-1-5-2-1-1-5-2h-1l-5-3-6-3v-1h-2v-1c-3-3-1-8-1-9zm27 23l6 3-11 7 5-10zm-6 10l-9 5 9-18 5 3-5 10zm-20-23l1 1-1 2a2 2 0 0 1 0-3zm1 3l1-2 5 3-5 10c-2-3-1-10-1-11zm2 12l5-11 5 3-8 17c-3-2-2-8-2-9zm3 11a6 6 0 0 1 0-3l8-16 5 3-9 18-2 2c-2-1-2-3-2-4zm4 9a3 3 0 0 1-2-2 4 4 0 0 1 0-3h1l1-1h1l8-5h1l13-8h1l9-7h1l4-3h1l5-4v-1l2-1 8-6 1-1 6-5 1-1 2-2h1l4-4 1-1 4-3v-1l3-3 1-1 2-2 2-2 1-1 3-3v-1l5-5 4-4v-1l2-2v-1l1-1 1-1 4-5v-1h1l1-1 1-2 2-3v-1l4-5 1-1 2-3 1-2v-1h1l2-5h1v-1l3-5a57 57 0 0 0 1-3l2-2v-1l2-4 1-1 2-4v-1l2-3a5 5 0 0 1 4 0 5 5 0 0 1 3 3l-1 2v1l-2 4-3 5-2 5h-1v1l-2 4-1 1-1 2v1l-1 2h-1l-3 5v1h-1l-3 5v1l-4 5-1 1v1l-1 1-4 5-1 2h-1l-3 4-1 1-3 4-5 5v1l-3 3-1 1-4 4-1 1v1l-3 2-1 1-3 3-1 1-5 4v1l-2 1-1 1-7 6-7 6h-1l-2 2h-1l-4 3-1 1-5 3-1 1h-1v1l-9 6h-1l-22 13h-1l-5 3h-1zm1 0l4-2 1-1 24-13 9-6h1l1-1h1l5-4 5-3v-1l2-1 1-1 7-5v-1h1l6-5 1-1 2-2 1-1 4-3 1-1 4-4h1l2-3 1-1 5-5 1-1 2-2v-1l5-5 1-1 2-3 1-1 4-5 2-2 3-4v-1l2-2v-1l4-5 1-1 2-4 1-1 1-1 3-5 1-1v-1l2-3v-1l2-3 1-1v-1l3-4v-1l2-4v-1l3-4v-1l1-1v-1c3 0 5 1 7 5l-2 4-1 1-2 4v1l-2 4h-1l-1 3-1 2h-1l-2 5h-1v2l-3 3v1l-2 3-1 1v1h-1l-3 6h-1v1l-1 1v1l-3 3v1l-4 4v1l-4 5-1 1-2 2-1 1-5 6h-1l-2 3-5 5-1 1-3 3-1 1-3 3-1 1-4 4h-1l-2 2h-1l-6 6h-1v1l-7 5-1 1-2 1-1 1-4 3-7 4v1h-1l-7 4v1l-3 2h-1a344 344 0 0 1-32 17h-1a4 4 0 0 1-2-4zm5 9a3 3 0 0 1-3-1 3 3 0 0 1 0-3h1a346 346 0 0 0 33-18h1l2-2h1l6-4 1-1h1l6-4v-1l5-3 2-2h1l7-5v-1h1v-1l7-5 3-3h1l3-4h1l4-4 1-1 2-2 1-1 6-6 1-2h1l6-7 2-2 1-1 4-6 1-1 4-4v-1l2-3h1v-1l1-2h1l3-6h1v-1l3-4v-1a266 266 0 0 0 2-3l1-2 3-5 1-1v-1l2-3 3-4v-1l2-4v-1l2-4h1a6 6 0 0 1 4 1 5 5 0 0 1 3 4h-1l-1 2-2 4v1l-2 4h-1l-2 5-1 1-2 3v1l-2 3-1 1v1l-3 5h-1l-1 2v1l-2 2v1l-3 4h-1v1h-1l-5 8h-1v1l-7 8-6 7-1 1-1 1v1l-6 6h-1l-2 2v1l-5 4-1 1-3 3h-1l-3 3-7 6h-1v1l-7 5h-1l-2 2h-1l-3 3-1 1-7 4v1l-7 4h-1l-3 2-1 1-3 1a346 346 0 0 1-35 18zm0 3a3 3 0 0 1 0-2v-1a347 347 0 0 0 35-17h1l3-2 3-2 1-1 7-4h1v-1l6-4h1l4-3 1-1 2-1 7-6h1v-1h1l6-5 4-3v-1l3-3h1l1-1 4-4 1-1 1-1 1-1 6-6 1-1 1-1 6-7 1-1 6-7v-1h1v-1l6-7v-1h1v-1l3-4 1-1 1-1v-1l2-3 3-5h1v-1l2-4h1l1-3 1-1v-1h1l2-4v-1l2-4 1-1 2-3v-1l1-2a6 6 0 0 1 5 2 6 6 0 0 1 2 4l-2 3v1l-2 3-1 1-2 4-3 4v1l-3 4v1l-1 1v1l-2 2v1l-3 4-1 1-3 4-1 1v2l-2 1v1l-5 6-2 2v1l-5 6h-1l-2 3v1l-5 5h-1l-6 7h-1l-1 1v1l-6 5-1 1-2 2h-1v1l-4 3-6 5h-1v1h-1l-7 6-2 1-1 1-4 3h-1l-6 5h-1l-7 4v1l-5 2v1l-2 1h-1l-6 4h-1a347 347 0 0 1-33 15v1a4 4 0 0 1-3-2zm6 6a3 3 0 0 1-3-2 3 3 0 0 1 0-2 348 348 0 0 0 33-15l1-1 7-3v-1l3-1v-1l4-2 7-4 1-1h1l5-4h1l5-4h1l1-1v-1l7-5h1l1-1 1-1 5-4 5-4v-1l2-2h1l6-6h1v-1h1l7-8h1l3-4 1-1 3-4h1l4-5v-1l3-2v-1l4-5v-1l2-2 1-1v-1h1l2-4h1v-1l1-1 3-4v-1l1-1v-1l2-2v-1l3-4 2-4 1-1 2-4 2-4 1-1 1-3a7 7 0 0 1 7 7l-2 3-1 1-2 3v1l-2 4h-1l-2 4-1 1-2 4h-1v1l-2 4h-1l-2 3-1 1v1l-3 3v1l-2 3-1 1-3 4h-1l-3 4v1l-3 4h-1l-4 5-1 1-2 2-1 1-6 6-1 1-1 1-7 6v1l-2 2h-1l-3 3-1 1-1 1-5 3v1l-2 1-7 6h-1l-1 1h-1l-5 4-6 4h-1v1l-7 4h-1l-4 3h-1l-1 1h-1l-7 4-7 4q-15 8-32 14zm0 3a3 3 0 0 1 0-3h1l31-13v-1l7-3 7-4h1l2-1 1-1 3-2h1l7-4v-1h1v-1l6-3v-1l6-3v-1h1l1-1 7-5 2-2h1l4-4h1l1-2 4-3 2-1v-1l7-6 1-1 1-1 7-7v-1l2-1 1-1 5-6 2-3 1-1 4-4v-1l3-3v-1l3-4h1l2-4h1v-1l3-4 2-3 1-1v-1l3-4v-1l3-3v-1l2-4h1l2-4v-1l2-3c4 0 6 4 6 7v1l-2 2v1l-2 4h-1l-2 4-3 4v1l-2 2v1l-1 1-3 4-1 1-1 2-2 3-1 1-3 4-1 1-2 2v1l-5 6h-1l-1 1v1l-7 7v1h-1l-8 8v1h-1v1l-8 7-1 1-2 2-1 1-2 1-1 1-1 1-3 2-3 2v1l-7 5h-1l-1 1-5 4h-1l-5 4h-1l-1 1-7 4-4 3h-1l-2 1-7 4h-1l-6 3-1 1-6 3h-1q-14 7-29 12h-1a4 4 0 0 1-2-1zm7 5l-3-1a3 3 0 0 1 0-2v-1l29-11 1-1 6-3h1l7-3v-1l7-3v-1l3-1 4-2v-1l7-4h1l1-1 5-3 1-1 6-4h1v-1l7-5 4-3 2-2 1-1h1l1-1 1-1 4-3 1-1 6-6 1-1 1-1 1-1 7-7 1-1 8-8v-1l1-1 6-6v-1l1-1 1-1 4-5v-1l2-2v-1l2-2 1-1 2-4h1v-1h1l2-3v-1l2-4h1l2-4 2-4 1-1 1-2 1-1c2 1 5 3 5 9l-1 1-1 1-2 3v1l-2 4h-1l-2 4h-1v2l-2 2-1 1-3 5h-1l-1 2-5 6-1 1v1l-7 7v1l-1 1-6 7h-1l-1 1-1 1-5 6h-1l-3 3-1 1-5 4v1l-7 5-1 1-2 2h-1l-2 2-1 1-1 1-6 4-1 1-1 1-6 4-5 3h-1l-1 1-1 1-6 4h-1l-3 2h-1l-2 2h-1l-6 3-1 1-6 3h-1l-7 3v1l-7 2v1l-27 10zm4 4a4 4 0 0 1-3-1 3 3 0 0 1-1-2h1l27-11h1l6-3h1l6-3h1l6-4h1l6-3 1-1 3-1 1-1 2-1 1-1 7-4 2-1 1-1 4-2v-1l5-3 1-1h1v-1h1l6-4 1-1 2-1 2-2 1-1 1-1 1-1 7-6h1l3-3 1-1 5-4v-1l5-5 1-1 2-2 6-6 1-1v-1h1l6-8h1v-1l5-6 1-1v-1l1-1 4-5v-1l2-1v-1l1-1v-1l3-4 2-4h1l2-4 1-1v-1a4 4 0 0 1 3 2c2 1 2 4 2 7v1l-2 2-1 1-2 3v1l-2 3-1 1-6 8-1 1-6 7v1h-1l-5 7h-1l-1 2-1 1-4 4v1l-4 4-1 1-3 2v1l-7 6-1 1-1 1-10 8-1 1-1 1-6 4-3 3h-1l-1 1h-1l-2 2-2 1-2 2h-1l-3 2-1 1-2 1-1 1-6 4h-1l-1 1h-1l-1 1h-1l-2 2h-1l-6 3-1 1-7 3-7 3-7 3-7 3-25 9zm5 4c-4 0-4-2-4-3l25-9 7-3h1l6-3h1l6-3 1-1 6-3h1l6-3 1-1 3-1 1-1 2-1 1-1 6-4h1l3-2 1-1 2-1h1l1-1 1-1 4-3h1l2-2h1l3-2 4-4 2-1 1-1 1-1 9-8h1l1-1 7-7h1l2-2 1-1 4-5h1l3-4 1-1 2-3h1l4-5 1-1 1-1v-1l6-6v-1l6-8 1-1 2-4h1l2-4h1l1-3h1a4 4 0 0 1 3 2l1 8h-1l-2 3-1 1-1 1v1l-6 8-1 1-5 6v1l-2 1v1l-4 4v1l-4 4h-1l-2 2v1l-7 6v1h-1l-8 8h-1l-1 2-1 1-7 5v1l-5 4h-1l-5 4-2 1-9 6v1h-1l-1 1-5 3-7 4-1 1h-1l-5 3-2 1-5 2v1l-7 3-7 3-6 3h-1l-3 1-4 2-7 2v1l-22 7h-1zm4 3c-3 0-4-2-4-2l1-1 22-7v1l-18 9h-1zm1 1l19-9 1 5-15 7h-1c-3 0-4-2-4-3zm10 6s-4 1-5-3l16-7 2 5-13 5zm0 1l1-1 12-5 2 5-9 3s-4 1-6-2zm13 5c-4 1-6-1-7-2l1-1 9-3 2 4-5 2zm0 1l1-1 4-1 2 3 1 1c-2 0-6 0-8-2zm9 2h-1l-2-4-1-1-2-4v-1l-2-4-1-1-2-4v-1l-2-4v-2l6-2 1 3 1 2v1l2 5 3 5 2 5 3 4v1l2 4h1a9 9 0 0 1-8-2zm9 2h-1l-2-4-1-1-2-4v-1l-3-4v-1l-2-4v-1l-2-4v-1l-1-3-1-2-1-1h1l3-1 3-1 1 4 1 1 2 5v1l2 5 2 5h1l2 5 2 5h1l2 3v1c-2 1-5 0-7-2zm8 2l-1-1-2-3v-1l-2-4-1-1-2-4v-1l-2-4v-1l-3-5-2-5v-1l-2-4 7-3 1 4 2 5v1l2 5 1 1 2 4v1l2 5 3 5 2 5h1v2h1a8 8 0 0 1-7 0zm7 0l-1-2v-1l-3-4-2-5v-1l-3-4v-1l-2-5-2-5v-1l-2-5v-1l-2-3 7-3v2l1 1 1 5 1 1 2 5v1l2 5v1l2 5 3 5 2 5v1l3 4h-7zm8 0h-1l-2-5-2-5h-1l-2-5v-1l-2-5h-1l-2-5v-1l-2-5v-1l-2-6-1-3 7-3v2l2 6v1l2 5v1l2 5v1l2 5 1 1 2 5 2 5 1 1 2 4v1l1 1v1h-6zm7 0l-1-1v-1l-1-1-2-5-2-5-1-1-2-5-2-5v-1l-2-6-2-6v-1l-2-6-1-1 3-1 2-2h2l1 6 1 1 1 6h1l1 6 1 1 2 5v1l2 5v1l2 5v1l3 4v1l2 4c-2 1-4 2-6 1zm6-1v-1l-2-3v-1l-2-5-2-5-1-1-2-5v-1l-2-6-2-6v-1l-2-6v-1l-2-6 6-3 1 1 1 3v1l2 7 2 7 2 6v1l2 6 2 6 3 5v1l2 5v1l-6 1zm7-1v-1h-1l-2-5v-1l-2-5v-1l-2-5-1-1-2-6-2-6v-1l-2-6v-1l-2-7v-3h3l4 1a546 546 0 0 0 1 5l2 6v1l2 7 2 6v1l2 6a407 407 0 0 0 3 6l2 6v2h1c-2 2-5 2-6 2zm6-2v-2l-1-1-2-5v-1l-2-5v-1l-2-5v-1l-2-6-1-1-1-6-1-1-1-7v-1l-1-3 3 1h4l1 5 2 7v1l2 7 2 6v1l2 6 1 1 2 5v1l1 3c-1 3-5 2-6 2zm6-2v-1l-1-2a144 144 0 0 0 26-21 118 118 0 0 0 14-16l12-1a104 104 0 0 1-51 41zm125 1a3 3 0 0 1-2 1c-14 3-27 5-37 5h-3c-10-1-16-3-17-7-1-5 4-8 14-11l17-6c1-1 2-3 1-4a1 1 0 0 1 0 2l-8-3a48 48 0 0 0-11-1c-14 0-29 5-41 10-8 3-17 7-27 9a105 105 0 0 0 18-12l7-2c16-6 36-14 55-10 6 2 13 4 13 9 1 6-6 10-22 14a30 30 0 0 0-9 3 1 1 0 0 1 1-1c-1 0-2 1-1 2l3 1c6 1 19 2 46-4a3 3 0 0 1 3 5z"/></g></svg>