<svg id="Слой_1" data-name="Слой 1" xmlns="http://www.w3.org/2000/svg" xmlns:xlink="http://www.w3.org/1999/xlink" viewBox="0 0 262.67 405"><defs><style>.cls-1{mask:url(#mask);filter:url(#luminosity-noclip-2);}.cls-2{mix-blend-mode:multiply;fill:url(#radial-gradient);}.cls-3{fill:#eecfb0;}.cls-4{fill:#bbdbc4;}.cls-5{fill:#268dcd;}.cls-6{fill:none;}.cls-7{fill:#1665a6;}.cls-8{fill:#fff;}.cls-9{fill:#398b35;}.cls-10{mask:url(#mask-2);}.cls-11{fill:url(#radial-gradient-2);}.cls-12{fill:#d2e0a4;}.cls-13{fill:#6aab2f;}.cls-14{fill:#e3ecc1;}.cls-15{fill:#b8c67e;}.cls-16{fill:#7f8080;}.cls-17{fill:#a8b55a;}.cls-18{fill:#909e55;}.cls-19{fill:#808840;}.cls-20{fill:#fabf08;}.cls-21{fill:#7e4d20;}.cls-22{fill:#e5c2a3;}.cls-23{fill:#d57710;}.cls-24{fill:#ec8b07;}.cls-25{fill:#724118;}.cls-26{fill:#235024;}.cls-27{fill:#5f3112;}.cls-28{fill:#ae805a;}.cls-29{fill:#2f2615;}.cls-30{fill:#503215;}.cls-31,.cls-32{fill:#8ecdf2;}.cls-31{opacity:0.8;}.cls-32{opacity:0.5;}.cls-33{filter:url(#luminosity-noclip);}</style><filter id="luminosity-noclip" x="115.27" y="-8490" width="19.47" height="32766" filterUnits="userSpaceOnUse" color-interpolation-filters="sRGB"><feFlood flood-color="#fff" result="bg"/><feBlend in="SourceGraphic" in2="bg"/></filter><mask id="mask" x="115.27" y="-8490" width="19.47" height="32766" maskUnits="userSpaceOnUse"><g class="cls-33"/></mask><radialGradient id="radial-gradient" cx="86.47" cy="251.15" r="44.87" gradientUnits="userSpaceOnUse"><stop offset="0" stop-color="#fff"/><stop offset="0.16" stop-color="#fcfcfc"/><stop offset="0.29" stop-color="#f2f2f2"/><stop offset="0.41" stop-color="#e1e1e1"/><stop offset="0.53" stop-color="#c9c9c9"/><stop offset="0.63" stop-color="#aaa"/><stop offset="0.74" stop-color="#848484"/><stop offset="0.84" stop-color="#585858"/><stop offset="0.94" stop-color="#252525"/><stop offset="1"/></radialGradient><filter id="luminosity-noclip-2" x="115.27" y="233.5" width="19.47" height="37.33" filterUnits="userSpaceOnUse" color-interpolation-filters="sRGB"><feFlood flood-color="#fff" result="bg"/><feBlend in="SourceGraphic" in2="bg"/></filter><mask id="mask-2" x="115.27" y="233.5" width="19.47" height="37.33" maskUnits="userSpaceOnUse"><g class="cls-1"><path class="cls-2" d="M123.59,233.5s-7.1,20.49-8.32,31.85c0,0,7.71,4.87,15.42,5.48l4.06-35.5Z"/></g></mask><radialGradient id="radial-gradient-2" cx="86.47" cy="251.15" r="44.87" gradientUnits="userSpaceOnUse"><stop offset="0" stop-color="#fff"/><stop offset="0.91" stop-color="#fff"/><stop offset="1" stop-color="#fff"/></radialGradient></defs><title>Монтажная область 1</title><path class="cls-3" d="M166.86,259.66s16.77,54.36,26,76,12.71,27.86,18.39,26.23-1.35-23.26-5.14-38.41c-2.6-10.38-13.52-65.72-13.52-65.72Z"/><path class="cls-4" d="M204.43,316.22A45.82,45.82,0,0,0,187.14,321c2,5.64,4,10.72,5.68,14.7,9.19,21.64,12.71,27.86,18.39,26.23s-1.35-23.26-5.14-38.41C205.69,322,205.12,319.42,204.43,316.22Z"/><path class="cls-5" d="M194.86,340.42c7.71,17.79,11.11,23,16.35,21.48,4.25-1.21,1.38-13.65-1.92-26.18A24,24,0,0,0,194.86,340.42Z"/><path class="cls-3" d="M123.32,256.42s-8.37,40.59-6.22,73c2.16,32.73,4.06,34.89,8.38,35.7,0,0,3.52-.4,4.6-6.89s10.82-78.3,18.12-97.77Z"/><path class="cls-4" d="M128,322.62a49.93,49.93,0,0,0-11.2-.62c.05,2.51.15,5,.31,7.44,2.16,32.73,4.06,34.89,8.38,35.7,0,0,3.52-.4,4.6-6.89.45-2.68,2.37-16.5,5-33.17A35.09,35.09,0,0,0,128,322.62Z"/><path class="cls-6" d="M118.14,343.11c1.8,19.72,3.71,21.36,7.34,22,0,0,3.52-.4,4.6-6.89.27-1.59,1.05-7.12,2.2-14.84C127.61,340.68,121.42,339.8,118.14,343.11Z"/><path class="cls-5" d="M118.14,343.11c1.8,19.72,3.71,21.36,7.34,22,0,0,3.52-.4,4.6-6.89.27-1.59,1.05-7.12,2.2-14.84C127.61,340.68,121.42,339.8,118.14,343.11Z"/><path class="cls-7" d="M129.47,346.43l.58-2.64s-5.51-2.81-9.79-.43l-.13,2.67.84-2s4.44-1.46,8,.51Z"/><path class="cls-8" d="M129.45,347.91s-5.59.2-8.48,3C121,350.93,127.29,349.8,129.45,347.91Z"/><path class="cls-8" d="M120.78,346.91s5.52,1,8,4.17C128.76,351.08,122.65,349.08,120.78,346.91Z"/><path class="cls-8" d="M128.59,353.05s-4.4.16-6.67,2.37C121.92,355.43,126.89,354.54,128.59,353.05Z"/><path class="cls-8" d="M121.77,352.26s4.34.77,6.27,3.28C128,355.54,123.24,354,121.77,352.26Z"/><path class="cls-7" d="M206.87,339.47l-.6-2.63s-6.18-.2-9,3.77l1,2.47-.08-2.15s3.4-3.21,7.43-2.93Z"/><path class="cls-8" d="M207.47,340.82s-5,2.56-6.39,6.34C201.08,347.16,206.33,343.45,207.47,340.82Z"/><path class="cls-8" d="M199.2,343.6s5.41-1.46,9,.38C208.19,344,201.82,344.77,199.2,343.6Z"/><path class="cls-8" d="M208.88,345.84s-3.92,2-5,5C203.85,350.82,208,347.91,208.88,345.84Z"/><path class="cls-8" d="M202.37,348s4.25-1.15,7.07.3C209.45,348.33,204.43,348.95,202.37,348Z"/><path class="cls-9" d="M123.59,226.8s-7.71,25-10.14,39.35c0,0,20.15,10.82,36.92,7l5.27-22.85,9.06,22s23,1.62,36-8.92l-12.44-34.89Z"/><path class="cls-9" d="M193.52,243.39c-3.92,2-9.44,1.48-13.22-.2-6-2.67-8-8.92-8-15.07l-37.87-1c-.36,9.23-7.3,21.63-16.21,18.5-1.88,7-3.76,14.68-4.76,20.56,0,0,20.15,10.82,36.92,7l5.27-22.85,9.06,22s23,1.62,36-8.92Z"/><g class="cls-10"><path class="cls-11" d="M123.59,233.5s-7.1,20.49-8.32,31.85c0,0,7.71,4.87,15.42,5.48l4.06-35.5Z"/></g><path class="cls-12" d="M169.85,382.79l-31.74-136.2c-21-.45-37.76-3.29-51.16-7.56L78.68,386.12S123.16,408.92,169.85,382.79Z"/><path class="cls-13" d="M177.46,274.31c4.14,1.84,10.3,2.61,14.56.35l-5.65-15.85-17.06-.47C169.36,264.81,171.28,271.55,177.46,274.31Z"/><path class="cls-13" d="M124.82,257.13l-11.28-.31s-2.86,9.31-5.83,20.29C117.21,280.55,124.38,266.9,124.82,257.13Z"/><path class="cls-14" d="M52.83,206.95,15.16,233.46s-18.2,12,6.26,12h219.3c25.57,0,5.59-12,5.59-12s-29.15-19.61-37.38-26.31-21-5.87-21-5.87H72.56A32.18,32.18,0,0,0,52.83,206.95Z"/><path class="cls-12" d="M235.44,272.71H26c-11.26,0-12.19-4-12.64-6.39l-4.48-24c.86,1.82,4.26,3.2,12.54,3.2h219.3c8.76,0,12.17-1.41,12.88-3.26,0,0-3.5,18.48-4.64,23.69S244.65,272.71,235.44,272.71Z"/><path class="cls-15" d="M26,272.71H238.77l-5.84,13.17s-5.07,9.9-18.35,9.9H50c-11.54,0-15.56-7.78-15.56-7.78Z"/><path class="cls-12" d="M56.49,209,31,229.38s-11,8,9.29,8H221.88c21.17,0,8.7-8,8.7-8S211,214.7,205.24,209.16c-6.06-5.84-18.75-5.09-18.75-5.09H74S63.74,203.19,56.49,209Z"/><path class="cls-16" d="M65.2,208.36s0,.36,0,1c0,.32,0,.7,0,1.14s0,.94,0,1.48l.09,1.75c0,.62.09,1.27.14,1.95s.11,1.37.17,2.08.17,1.42.26,2.14.15,1.44.26,2.14l.33,2.06c.11.67.2,1.32.28,1.94s.23,1.19.33,1.72c.22,1.07.36,2,.47,2.59s.16,1,.16,1l-.29-1c-.17-.61-.45-1.48-.73-2.54-.14-.53-.31-1.09-.45-1.71s-.27-1.26-.39-1.93l-.39-2.07c-.12-.71-.19-1.43-.28-2.16l-.24-2.17c0-.72-.07-1.42-.11-2.11s-.06-1.34,0-2,0-1.22,0-1.77c.07-1.1.14-2,.24-2.63S65.2,208.36,65.2,208.36Z"/><path class="cls-16" d="M198.19,208.36s.09,1.47,0,3.69c-.06,1.1-.1,2.4-.25,3.77s-.33,2.84-.56,4.3l-.42,2.17c-.16.71-.32,1.41-.5,2.08s-.36,1.32-.56,1.92-.39,1.18-.58,1.7-.4,1-.57,1.4-.36.76-.5,1.06l-.46.9.33-1c.1-.3.26-.66.38-1.09s.27-.91.44-1.44.3-1.1.46-1.71.28-1.26.45-1.92.27-1.37.43-2.07l.39-2.15c.11-.72.25-1.44.35-2.16s.22-1.42.3-2.1c.18-1.36.35-2.64.47-3.73l.28-2.65Z"/><ellipse class="cls-17" cx="24.9" cy="219.13" rx="12.77" ry="8.92" transform="translate(-193.86 191.13) rotate(-76.22)"/><ellipse class="cls-18" cx="27.33" cy="219.73" rx="9.19" ry="6.42" transform="translate(-192.59 193.96) rotate(-76.23)"/><ellipse class="cls-19" cx="27.4" cy="220.39" rx="3.93" ry="2.3" transform="translate(-193.17 194.52) rotate(-76.22)"/><path class="cls-15" d="M88.68,182.09c-7.9-8.24-20.57-6.39-35,11.12s-15.29,44.17-15.29,44.17c-9.18,4.28-13.62-1.08-13.62-1.08-.28-1,.55-25.85,19.46-49.06S89.52,164,97,177.37C97,177.37,96.81,182.93,88.68,182.09Z"/><path class="cls-20" d="M180.08,174.57s-1.35-7.76-7-11.93-12.23-.56-12.23-.56-.29,3.82-.69,6a5.71,5.71,0,0,1-2.41-4.59s8.11-11.48,4.43-29.68a9.55,9.55,0,0,0-4-.36,46.76,46.76,0,0,1-7.94,3.4c.82,4.55,1,11.12-4.57,11.74-6.06.68-8-5.58-8.61-9.35a35.55,35.55,0,0,1-5.36-.1s-6.25,9.17-8.75,28.35a322.35,322.35,0,0,0-2.29,33.77h61.7l-2.78-23.49S179.85,176.59,180.08,174.57Z"/><path class="cls-21" d="M212.65,72.86c-.38-2.6-10.28-3.61-10.28-3.61C116.2,55.64,72.87,79.64,72.87,79.64S55.81,87,60.09,91.72s23-5.21,23-5.21c-5,4.9-4.59,8.44-2.92,9.07a3.3,3.3,0,0,0,3.13-.73s13.45-8,19.59-13.86c0,0-4.83,7.94-2.5,10,4.58,4.07,24.91-15.22,24.91-15.22s-4.64,12.54,0,12.79c5.32.28,14.49-14.18,14.49-14.18s2.5,12.54,10.11,12.54,3.86-12.54,3.86-12.54,5.21,8.55,14.59,11.38,1.35-10,1.35-10a28.4,28.4,0,0,0,10.94,9.07s3.71,11.48,4.28,20c.17,2.61,2.88-.87,3.44-7.47s4.47-9.75,10.79-7.75a17.15,17.15,0,0,0-.5-5.7s6.6,5.21,8.69,2.12S201,75.57,201,75.57a22.48,22.48,0,0,0,7.92.35S213,75.43,212.65,72.86Z"/><path class="cls-22" d="M145.66,148.6c5.58-.63,5.39-7.19,4.57-11.74a50.36,50.36,0,0,1-13.17,2.39C137.66,143,139.6,149.29,145.66,148.6Z"/><path class="cls-22" d="M109.55,157.08l-2.6,3.34S91.11,183,98.06,210.24c0,0-11.22,2.23-10.63,6,.42,2.64,9.66-1.39,9.66-1.39s-8.34,13-4.52,14.38,6.6-11.61,6.6-11.61-.63,12.79,1.74,13.69,3-10.63,3-10.63,1.67,10.87,3.2,10.68.76-11.32.69-12.35,1.86.94,5.14,2.08,2.66-2.35-.87-6.08c-3-3.21-5.18-5.94-5.18-5.94s-1.46-16.54,16.05-41.55q.23-1.79.51-3.47C118.09,154.84,109.55,157.08,109.55,157.08Z"/><path class="cls-23" d="M107,160.41l2.6-3.34-3.08.69A3,3,0,0,0,107,160.41Z"/><path class="cls-24" d="M128.14,138.65s-9.72,4.67-21.67,19.12l3.08-.69s8.53-2.24,13.9,7c2.75-16.82,8.24-24.88,8.24-24.88S129.56,138.83,128.14,138.65Z"/><path class="cls-3" d="M124.26,215.17s34-15.84,36.55-53.09c0,0,6.53-3.61,12.23.56s7,11.93,7,11.93-5.45,31.71-48.39,46.51c0,0-2.92,12.3-6.25,12.23s.56-7.3.56-7.3-7.37,8.69-9.59,7.3,4.66-9.38,4.66-9.38-9.93,7.37-11.81,5.42,8.2-9.24,8.2-9.24-9.52,4.8-11.32,2.78,6.39-6.74,12.3-6.11a11.24,11.24,0,0,0-3.34-4.24c-2.71-2.36-1.39-5.14,1.88-3.82S124.26,215.17,124.26,215.17Z"/><path class="cls-24" d="M178,153.47c-5-14.3-11.7-18.49-15.92-19.66,3.69,18.2-4.43,29.68-4.43,29.68l3.11-1.41s6.53-3.61,12.23.56,7,11.93,7,11.93A48.68,48.68,0,0,0,178,153.47Z"/><path class="cls-23" d="M160.12,168.08c.4-2.17.69-6,.69-6l-3.11,1.41A5.71,5.71,0,0,0,160.12,168.08Z"/><path class="cls-13" d="M120.9,12.57c-60.84,10.81-48,67.07-48,67.07S79.5,76,92.71,72.32h0S79.33,30.39,120.9,12.57Z"/><path class="cls-13" d="M127,11.67l-.49.07c1.37,0,38.61.08,40.65,53.76h0a341.72,341.72,0,0,1,35.16,3.75C202.64,54,194.86,3.65,127,11.67Z"/><path class="cls-9" d="M126.55,11.73q-2.92.36-5.65.84C79.33,30.39,92.71,72.32,92.71,72.32h0c15.63-4.32,40.48-8.62,74.49-6.82h0C165.16,11.81,127.91,11.72,126.55,11.73Z"/><path class="cls-25" d="M92.23,103.85s-.42-7-5.6-11c-2,1.25-3.3,2-3.3,2l5.1,5.94A7.08,7.08,0,0,1,92.23,103.85Z"/><path class="cls-3" d="M199.31,89.68c-6.39-2.09-10.36,1.11-10.91,7.71a17.52,17.52,0,0,1-2.08,7.53h0a31.24,31.24,0,0,1-.63,6c1.6,3.55,9.73,3.75,16-1.74S205.7,91.76,199.31,89.68Z"/><path class="cls-3" d="M92.23,103.85a7.08,7.08,0,0,0-3.79-3.06C83.65,98.08,75.1,104,78.33,111.74,82.89,122.62,90,118,90,118c0-1.78,1.24-3.55,1.93-7.24C92.88,105.81,92.23,103.85,92.23,103.85Z"/><path class="cls-3" d="M186.32,104.92c-.68,1-1.28,1.12-1.36-.06-.57-8.53-4.28-20-4.28-20a28.4,28.4,0,0,1-10.94-9.07s8,12.82-1.35,10-14.59-11.38-14.59-11.38,3.75,12.54-3.86,12.54-10.11-12.54-10.11-12.54-9.17,14.45-14.49,14.18c-4.64-.24,0-12.79,0-12.79S105,95.06,100.43,91c-2.33-2.06,2.5-10,2.5-10C98.7,85,91,90.06,86.63,92.82c5.17,4,5.6,11,5.6,11s.66,2-.28,6.93c-.69,3.68-1.89,5.45-1.93,7.24,0,0-.08,8.07,12.08,13.21a115,115,0,0,0,29.6,7.92,48.48,48.48,0,0,0,26.47-5.7c16.68-7.5,25-17.51,25-17.51a19.26,19.26,0,0,0,2.5-5,31.24,31.24,0,0,0,.63-6Z"/><path class="cls-21" d="M101.75,65.07s21.71-6.4,41.61-3.88c0,0,1-22.79-22.46-21.16C97.13,41.68,101.75,65.07,101.75,65.07Z"/><path class="cls-9" d="M208.9,75.92a17.1,17.1,0,0,1-3.44.18c8.41,5,25.42,16.65,26,30.44a11.11,11.11,0,0,0,.33-1.16C235.68,87.28,208.9,75.92,208.9,75.92Z"/><path class="cls-26" d="M205.45,76.1a27.45,27.45,0,0,1-4.48-.52s8.48,7.4,6.39,10.49-8.69-2.12-8.69-2.12a17.15,17.15,0,0,1,.5,5.7l.12,0c6.39,2.09,8.61,14,2.36,19.53s-14.38,5.28-16,1.74a19.26,19.26,0,0,1-2.5,5c14.05,5.14,43.86,3.88,48.31-9.4C230.87,92.74,213.86,81,205.45,76.1Z"/><path class="cls-27" d="M182.82,76.77a17.48,17.48,0,0,1,1.31,2,16.82,16.82,0,0,1,1.07,2.19,10.42,10.42,0,0,1,.43,1.33,5.69,5.69,0,0,1,.19,1.48,2.21,2.21,0,0,1-.58,1.52,2.13,2.13,0,0,1-1.47.53,5,5,0,0,1-1.33-.19,7.69,7.69,0,0,1-1.1-.38,9.33,9.33,0,0,1-.89-.41c-.26-.12-.48-.25-.66-.35l-.56-.33.62.2c.2.06.43.15.7.23s.58.19.92.27a7.68,7.68,0,0,0,2.28.33,1.59,1.59,0,0,0,1-.39,1.55,1.55,0,0,0,.36-1.05,5,5,0,0,0-.15-1.3c-.09-.43-.22-.86-.35-1.27-.27-.82-.58-1.58-.85-2.23s-.5-1.19-.68-1.56Z"/><path class="cls-28" d="M82.71,111.38l-.06-.2a3.89,3.89,0,0,1-.13-.56l-.06-.42c0-.15,0-.32,0-.5s0-.37,0-.57a4.06,4.06,0,0,1,.15-.62,3.29,3.29,0,0,1,.74-1.27,3.06,3.06,0,0,1,1.43-.87,3.46,3.46,0,0,1,1.79,0,4.4,4.4,0,0,1,1.63.84,6.47,6.47,0,0,1,1.9,2.92,8.45,8.45,0,0,1,.37,1.54,12.68,12.68,0,0,1,.15,1.4,9.85,9.85,0,0,1,0,1.18c0,.35,0,.65-.07.9-.06.5-.1.78-.1.78s0-.29,0-.78-.08-1.21-.19-2a11.86,11.86,0,0,0-.26-1.33,11.6,11.6,0,0,0-.45-1.42,7.9,7.9,0,0,0-.71-1.4,5.43,5.43,0,0,0-1.05-1.19,3.33,3.33,0,0,0-2.82-.78A2.78,2.78,0,0,0,83,108.64a4.36,4.36,0,0,0-.3,1.07l0,.47c0,.15,0,.28,0,.41s0,.44,0,.58S82.71,111.38,82.71,111.38Z"/><path class="cls-28" d="M86,114.55a3.88,3.88,0,0,1,.15-1.15,5.87,5.87,0,0,1,1.2-2.26,3.37,3.37,0,0,1,1.15-.88,1.35,1.35,0,0,1,.75-.11,1,1,0,0,1,.6.34,1.62,1.62,0,0,1,.32.83,3.13,3.13,0,0,1,0,.32l-.15-.28a1.83,1.83,0,0,0-.47-.58.7.7,0,0,0-.8,0,3.65,3.65,0,0,0-.88.78,12.46,12.46,0,0,0-1.36,2C86.24,114.13,86,114.55,86,114.55Z"/><path class="cls-28" d="M129,120.49s-.3-.13-.84-.3a9,9,0,0,0-1-.24,7,7,0,0,0-1.28-.12,3.46,3.46,0,0,0-1.43.28,2.93,2.93,0,0,0-1.22,1,3.5,3.5,0,0,0-.41.74l-.17.4c0,.08-.07.29-.11.43a3,3,0,0,0-.09.46v.41a1.23,1.23,0,0,0,0,.42c0,.14,0,.28.09.42a3.72,3.72,0,0,0,.94,1.46,7.92,7.92,0,0,0,.68.57c.25.15.5.32.75.46a11,11,0,0,0,1.56.65,11.55,11.55,0,0,0,1.49.36c.47.05.91.12,1.3.13a8.27,8.27,0,0,0,1,0c.56-.05.88-.1.88-.1L131,128c-.15,0-.36.12-.64.17a8.84,8.84,0,0,1-1,.13,8.38,8.38,0,0,1-1.34,0,12.22,12.22,0,0,1-1.58-.26,8.5,8.5,0,0,1-1.7-.59c-.28-.13-.56-.3-.85-.47a6.28,6.28,0,0,1-.78-.63,4.38,4.38,0,0,1-1.14-1.74c-.05-.17-.07-.35-.11-.52a1.82,1.82,0,0,1,0-.54l0-.55a4,4,0,0,1,.11-.48c0-.17.06-.28.13-.49l.21-.46a4.21,4.21,0,0,1,.52-.85,3.24,3.24,0,0,1,1.53-1.08,3.93,3.93,0,0,1,1.63-.2,5.3,5.3,0,0,1,1.33.26,9,9,0,0,1,1,.37A6,6,0,0,1,129,120.49Z"/><path class="cls-28" d="M192.67,107.36l-.08-.17a4.49,4.49,0,0,1-.2-.49,8,8,0,0,1-.42-1.88,8.76,8.76,0,0,1,1.32-5.68,5.28,5.28,0,0,1,1.15-1.2A3.54,3.54,0,0,1,196,97.3a3.33,3.33,0,0,1,1.52.09,4.44,4.44,0,0,1,1.21.55,6.18,6.18,0,0,1,.87.67c.23.22.43.42.59.59.3.35.46.56.46.56l-.55-.46c-.18-.14-.4-.3-.66-.48a10.23,10.23,0,0,0-.9-.52,4.8,4.8,0,0,0-1.13-.39,3.06,3.06,0,0,0-1.27,0,3.69,3.69,0,0,0-2.19,1.64,6,6,0,0,0-.71,1.29,9,9,0,0,0-.46,1.38,10.91,10.91,0,0,0-.33,2.58c0,.39,0,.74,0,1.05a7.88,7.88,0,0,0,.11.81C192.61,107.1,192.67,107.36,192.67,107.36Z"/><path class="cls-28" d="M193,100.46a11.84,11.84,0,0,0,.52,1.29c.1.18.18.38.31.58a5.41,5.41,0,0,0,.4.6,4.78,4.78,0,0,0,.5.55l.29.24a3.22,3.22,0,0,0,.32.19,3.09,3.09,0,0,0,.68.3l.72.14h.71l.65-.08a3.05,3.05,0,0,0,.56-.09l.43-.09.39-.07-.34.2-.4.22a2.31,2.31,0,0,1-.54.23c-.21.07-.43.15-.68.2s-.52.07-.8.09a6.09,6.09,0,0,1-.88-.1,3.72,3.72,0,0,1-.86-.34,4.65,4.65,0,0,1-.39-.25l-.34-.3a3.92,3.92,0,0,1-.54-.69,4,4,0,0,1-.36-.72,4.51,4.51,0,0,1-.22-.67A4.63,4.63,0,0,1,193,100.46Z"/><ellipse class="cls-29" cx="109.12" cy="113.29" rx="3.05" ry="6.47" transform="translate(-13.22 14.42) rotate(-7.13)"/><ellipse class="cls-8" cx="109.65" cy="116.17" rx="1.37" ry="2.9" transform="translate(-13.54 14.46) rotate(-7.11)"/><ellipse class="cls-29" cx="144.36" cy="110.41" rx="3.36" ry="7.13" transform="translate(-12.61 18.81) rotate(-7.14)"/><ellipse class="cls-8" cx="144.94" cy="113.59" rx="1.51" ry="3.2" transform="translate(-12.96 18.84) rotate(-7.12)"/><path class="cls-30" d="M101,100.93c.62-.07,1.33-4.94,4.45-4.59,3.69.42,5.28,7,6.11,7.16s.05-10.63-6.74-10.15C100.91,93.64,100.36,101,101,100.93Z"/><path class="cls-30" d="M134.41,100.13c.82.18,1.11-6.7,6.25-8.51s8.49,7.17,9.24,6.8-2.85-11.49-8.55-10.9C134.41,88.24,133.55,99.93,134.41,100.13Z"/><path class="cls-8" d="M134.93,135.5a21.87,21.87,0,0,0,15.73-11.62s3.72,5.69-2.28,10.26S134.93,135.5,134.93,135.5Z"/><path class="cls-28" d="M117.94,128.94l.27.35c.18.22.47.54.84.93a19,19,0,0,0,1.43,1.31,20.57,20.57,0,0,0,2,1.45,15.94,15.94,0,0,0,2.64,1.31l.74.28c.25.09.52.15.78.23l.8.23.83.16.84.16.87.07.88.07.89,0,.9,0c.3,0,.6-.07.9-.1l.9-.11.43-.06.45-.1c.6-.14,1.22-.24,1.8-.41s1.14-.35,1.71-.55l1.64-.69,1.54-.8,1.42-.89,1.31-.95,1.17-1,1-1,.89-1,.77-.91c.46-.59.85-1.12,1.15-1.57s.52-.81.66-1.06l.21-.39a12.21,12.21,0,0,1-.76,1.52c-.27.47-.62,1-1.05,1.65l-.71,1c-.27.33-.56.67-.87,1l-1,1.05-1.15,1.05-1.3,1-1.45.95-1.57.85-1.68.73c-.58.21-1.18.4-1.78.6s-1.2.29-1.8.43l-.45.1c-.19,0-.32,0-.48.06l-.93.11c-.31,0-.62.09-.93.09h-1.86L130,136l-.9-.09-.87-.17-.86-.17-.82-.26c-.27-.09-.54-.16-.8-.27l-.76-.32a15.92,15.92,0,0,1-2.65-1.45,16.2,16.2,0,0,1-2-1.58,18.25,18.25,0,0,1-1.36-1.41c-.35-.41-.6-.76-.77-1Z"/><path class="cls-31" d="M84.93,219.85s-5.56-7.65-14.45-5.79c-5.41,1.12-5,8.62,2.43,7.71S82.57,219.67,84.93,219.85Z"/><path class="cls-31" d="M83.05,197a19.36,19.36,0,0,0-4.38-9c-4.31-4.72-8.62,1-4.79,4.17C77.05,194.89,80,195,83.05,197Z"/><path class="cls-31" d="M151.5,225.18s3-7.23,10.84-8.06,6.46,6.67,1.67,7.4S154.21,224.07,151.5,225.18Z"/><path class="cls-31" d="M149,228.69a9.54,9.54,0,0,1,7.92,3.54c3.33,4.07-2.29,6.25-4,3A70.84,70.84,0,0,0,149,228.69Z"/><path class="cls-32" d="M88.68,182.09s6.25,1,8.34-4.72l52.53,60H95.35Z"/></svg>