<svg width="157" height="162" viewBox="0 0 157 162" fill="none" xmlns="http://www.w3.org/2000/svg">
<g filter="url(#filter0_d_6308_44909)">
<path d="M119.263 82.0366C116.644 79.0745 113.262 76.8891 109.486 75.7193C107.661 75.2856 105.766 75.176 103.936 74.7667C102.969 74.6349 102.063 74.2195 101.332 73.573C98.705 70.5691 95.2639 68.3902 91.4252 67.2998C87.5864 66.2095 83.5139 66.2543 79.7 67.4288C79.1518 67.6139 78.5723 67.7064 77.9632 67.8502C77.6199 65.5797 77.1374 63.3324 76.5184 61.1211C75.534 57.9978 73.7878 55.1685 71.4371 52.8884C69.0864 50.6083 66.2048 48.9492 63.0529 48.0604C62.3075 47.9107 61.6178 47.5586 61.0592 47.043C60.5005 46.5273 60.0944 45.8679 59.8856 45.1368C58.4285 40.6939 55.3241 36.9787 51.2106 34.7559C50.7529 34.465 50.3141 34.1452 49.8973 33.7984C45.6533 20.7741 46.1086 5.15759 47.6751 0C52.6914 14.1499 64.0714 22.0141 74.7448 30.736C80.1046 24.2043 87.5642 23.3687 95.236 23.0642C99.2169 22.9058 103.196 22.5769 107.074 22.3333L109.135 33.5621C110.689 32.5096 111.957 31.6398 113.233 30.7871C117.671 27.4991 122.802 25.2699 128.233 24.2701C136.149 23.1616 144.242 29.4447 144.225 36.8339C144.225 41.3337 140.503 44.0843 136.478 42.106C127.897 37.8888 120.515 41.0633 113.214 45.3146C112.985 45.4914 112.794 45.7115 112.651 45.9624C112.508 46.2132 112.416 46.4898 112.38 46.7763C112.137 48.5889 112.205 50.4577 111.825 52.2337C111.334 53.9973 110.728 55.7267 110.01 57.4108C119.348 62.8656 127.42 70.9174 138.841 72.5278C142.588 73.054 146.422 72.9468 150.216 73.1612C150.937 73.1989 151.637 73.414 152.255 73.7874C142.504 80.1909 130.869 83.0958 119.253 82.0269" fill="#388C3C"/>
<path d="M68.1968 51.0498C68.1968 50.1314 69.9824 36.7732 74.7526 30.7434C79.5228 24.7137 88.3958 22.4211 107.082 22.3432C107.082 22.3432 115.046 43.3342 111.833 52.2461C108.619 61.158 104.037 67.2803 94.5354 69.4242C88.2863 70.6947 81.8676 70.9015 75.5496 70.0358L68.1968 51.0498Z" fill="#4CAD50"/>
<path d="M10.6922 87.8722L12.4344 86.5248C10.3321 85.0488 8.73098 82.9655 7.84616 80.554C6.96134 78.1425 6.8352 75.5182 7.48393 73.0328C8.06529 70.4942 9.43 68.2029 11.3858 66.4832C13.3416 64.7636 15.7891 63.7028 18.3811 63.451C17.8354 62.2109 17.2749 61.095 16.8412 59.928C15.9334 57.5309 15.7822 54.9132 16.4082 52.4275C17.0342 49.9419 18.4073 47.7079 20.3422 46.0267C21.1075 45.3673 21.7515 44.5791 22.2449 43.6976C24.4956 38.8155 28.5807 35.0177 33.6138 33.1286C38.6469 31.2394 44.2223 31.4113 49.1296 33.6066C49.3845 33.6883 49.6437 33.755 49.9064 33.8063C50.3232 34.1532 50.762 34.473 51.2197 34.7638C55.3328 36.9884 58.4374 40.7042 59.8954 45.1473C60.1056 45.8775 60.5117 46.5362 61.0701 47.0516C61.6285 47.5671 62.3179 47.9195 63.0626 48.0707C66.2146 48.9595 69.0955 50.6188 71.4462 52.8989C73.7969 55.179 75.5431 58.0082 76.5276 61.1316C77.1465 63.3429 77.629 65.5902 77.9723 67.8606C78.5814 67.7169 79.1616 67.617 79.7097 67.4416C83.5233 66.2659 87.5953 66.2203 91.4343 67.3103C95.2732 68.4003 98.7144 70.5792 101.341 73.5835C102.072 74.23 102.979 74.6454 103.946 74.7772C105.775 75.1865 107.67 75.2985 109.495 75.7298C113.271 76.8999 116.654 79.0853 119.272 82.0471C122.395 85.9628 124.028 90.8591 123.881 95.8656C123.794 99.5598 122.699 103.16 120.714 106.277C118.73 109.394 115.931 111.91 112.621 113.553C112.278 113.738 111.978 113.995 111.742 114.305C111.506 114.616 111.339 114.973 111.252 115.353C111.104 125.622 104.494 130.945 94.4808 128.753C94.2821 128.738 94.082 128.749 93.886 128.784C93.9795 131.198 93.4014 133.59 92.2152 135.694C91.0291 137.798 89.2817 139.531 87.1684 140.7C85.0551 141.87 82.6588 142.429 80.2462 142.316C77.8336 142.204 75.4993 141.423 73.5042 140.062C73.1322 142.178 72.2313 144.165 70.8854 145.84C69.5394 147.514 67.7922 148.821 65.8058 149.639C63.874 150.522 61.7479 150.894 59.6313 150.719C57.5146 150.545 55.4778 149.83 53.7166 148.643C48.7271 157.886 38.9947 158.224 33.2183 153.089C30.5619 154.485 27.7772 155.624 24.9031 156.487C22.2319 156.98 19.4728 156.551 17.0774 155.27C14.682 153.99 12.792 151.934 11.7177 149.439C11.5377 148.906 11.224 148.427 10.8059 148.05C10.3877 147.673 9.87938 147.41 9.33017 147.285C7.31833 146.729 5.4745 145.686 3.96097 144.248C2.44744 142.811 1.31091 141.023 0.651539 139.043C-0.00783353 137.062 -0.169947 134.95 0.179868 132.892C0.529682 130.834 1.38043 128.894 2.65718 127.242C2.83828 126.975 2.95512 126.669 2.9974 126.349C3.03969 126.029 3.00652 125.703 2.90105 125.398C-1.07739 118.114 0.640158 111.316 7.62252 106.982C7.83373 106.819 8.03347 106.64 8.21969 106.449C6.85621 104.795 5.92283 102.829 5.50327 100.727C5.08371 98.6251 5.19088 96.452 5.81494 94.4014C6.55712 91.6852 8.30554 89.3533 10.7047 87.8795C9.90564 89.0245 9.13812 90.1963 8.29761 91.3145C6.17318 94.1479 5.89521 99.4055 8.05374 101.588C9.65209 103.089 11.3877 104.437 13.238 105.613C14.6218 106.566 15.7331 106.307 16.291 104.514C16.5745 103.925 16.9413 103.379 17.3801 102.894L17.9327 103.116C18.2518 106.631 20.9442 108.476 23.0955 110.683C24.0871 111.466 25.2294 112.036 26.4513 112.358C27.6732 112.679 28.9487 112.745 30.1973 112.552C32.3697 112.457 34.4564 111.677 36.1589 110.325C36.7148 110.02 37.2027 109.605 37.5936 109.106C37.9844 108.607 38.2696 108.033 38.4322 107.421C38.5949 106.808 38.6317 106.168 38.5399 105.541C38.448 104.914 38.2296 104.312 37.8981 103.771C36.88 101.338 36.2347 98.7645 35.9835 96.1385C35.9843 95.5372 35.8509 94.9433 35.5939 94.3997C35.3368 93.8562 34.9623 93.3767 34.4971 92.9959C34.0318 92.615 33.4878 92.3425 32.9042 92.198C32.3206 92.0534 31.712 92.0404 31.1228 92.16C28.5352 92.0378 25.9751 91.5733 23.5095 90.7786C23.3771 90.7399 23.2644 90.6529 23.193 90.5349C21.6314 87.7186 18.8321 87.6335 16.1643 87.5092C14.3388 87.522 12.5157 87.6439 10.7047 87.8746L10.6922 87.8722ZM97.2871 85.2239C97.8571 74.7308 90.4654 69.6781 81.8873 69.6318C78.2529 69.6925 74.7883 71.1785 72.2391 73.7696C69.6899 76.3607 68.2602 79.8495 68.2587 83.4844C68.2587 87.3995 68.0472 91.3268 71.492 94.1017C74.3668 96.4186 77.081 99.4177 80.979 99.6077C90.3757 100.063 97.7256 93.1613 97.2871 85.2166V85.2239ZM53.8998 79.7082C56.7873 79.7604 59.6246 78.9524 62.0515 77.387C64.4784 75.8217 66.3845 73.5697 67.5277 70.9177C68.671 68.2657 68.9998 65.3336 68.4717 62.4944C67.9435 59.6552 66.5825 57.0373 64.5621 54.9738C62.5417 52.9104 59.9528 51.4947 57.1254 50.9068C54.298 50.3189 51.3596 50.5854 48.6841 51.6724C46.0086 52.7595 43.7171 54.6178 42.1009 57.0112C40.4848 59.4045 39.6168 62.2245 39.6081 65.1124C39.9931 73.4177 45.7992 79.7082 53.8998 79.7082ZM13.9666 123.69C13.8532 125.164 13.8726 126.645 14.0249 128.115C14.2714 129.523 14.7975 130.869 15.5719 132.071C16.4514 133.362 17.0337 135.238 19.202 135.104C19.3262 135.104 19.4455 135.448 19.6112 135.526C20.8509 136.335 22.2311 136.906 23.6802 137.209C27.6635 137.263 31.7196 136.965 34.1705 133.067C34.8221 132.297 35.3138 131.405 35.6171 130.443C35.9203 129.481 36.0293 128.468 35.9371 127.464C35.4498 125.028 34.7749 122.65 34.4412 120.209C34.2536 118.866 33.7297 118.503 32.492 118.484C30.8847 118.587 29.2714 118.443 27.7075 118.058C25.0422 117.127 22.5227 115.782 19.7795 114.537C19.4701 111.789 18.7099 111.007 15.6986 110.313C14.4489 110.112 13.2452 109.69 12.1441 109.065C7.81488 106.112 3.63212 110.14 2.79161 113.794C2.03841 116.165 2.23593 118.735 3.34239 120.962C4.44884 123.19 6.37723 124.9 8.7211 125.732C10.0684 126.187 12.0395 126.438 12.6973 124.182C12.7485 124.005 13.2432 123.953 13.9571 123.678L13.9666 123.69ZM22.6619 50.0051C23.1538 52.244 23.7826 54.4506 24.545 56.6124C25.0322 57.8159 26.4136 58.6247 27.237 59.7283C29.1054 61.9718 31.637 63.5651 34.4679 64.2792C35.8858 64.7665 36.4172 64.2305 36.8435 62.9783C37.3196 61.2391 37.9931 59.5601 38.851 57.9741C41.6113 53.5255 44.849 49.5665 50.2746 48.0902C50.6407 47.8552 50.9406 47.5303 51.1453 47.1464C51.3501 46.7625 51.4528 46.3326 51.4439 45.8976C50.9171 42.6537 49.1267 39.7505 46.4643 37.8237C43.7066 35.9703 40.4372 35.0272 37.116 35.1268C35.5294 34.9938 33.9325 35.1766 32.4171 35.6646C30.9016 36.1526 29.4976 36.9361 28.2868 37.9699C24.6324 41.1517 23.5121 44.9182 22.6619 50.01V50.0051ZM52.5598 106.264C54.0156 106.464 55.4979 106.337 56.8982 105.891C58.2985 105.445 59.5814 104.691 60.6531 103.686C62.8429 101.514 64.885 99.1971 66.7658 96.7523C67.197 96.2114 67.0338 95.047 66.8681 94.2186C66.471 92.2696 65.8691 90.3449 65.4257 88.3959C65.1066 86.9853 64.5438 86.4469 62.9895 87.0194C56.1923 89.5653 50.1529 87.3044 44.4569 83.7329C42.3836 82.4295 40.0712 82.8169 39.4475 85.1947C38.1966 88.8392 38.0941 92.7796 39.1531 96.4843C40.1877 99.2454 42.0075 101.643 44.3885 103.382C46.7695 105.121 49.6077 106.125 52.5526 106.271L52.5598 106.264ZM16.8924 75.0719C17.9278 79.177 19.2994 82.7706 22.9831 84.8829C24.2145 85.6976 25.606 86.2398 27.0639 86.4734C28.5219 86.707 30.0125 86.6265 31.4369 86.2374C34.1474 85.6365 36.5237 84.0168 38.0736 81.7132C38.5614 80.9382 38.8916 80.0746 39.0455 79.1718C39.1993 78.2691 39.1736 77.3449 38.9699 76.452C38.7663 75.5591 38.3889 74.7151 37.8588 73.9683C37.3288 73.2215 36.6568 72.5866 35.8812 72.0997C33.8737 71.0375 31.8053 70.0703 29.8904 68.8667C28.185 67.7948 26.6475 66.4647 25.0518 65.227C24.1991 64.5668 23.5512 64.3475 22.6327 65.3366C22.2939 65.5988 21.8989 65.7793 21.4788 65.8638C21.0588 65.9483 20.6246 65.9347 20.2107 65.8239C18.4514 65.2595 16.5606 65.2531 14.7975 65.8058C13.0345 66.3584 11.4856 67.4429 10.3633 68.9106C9.19129 70.4856 8.52409 72.3788 8.44928 74.3406C8.37448 76.3025 8.8959 78.2409 9.94459 79.9006C10.5687 81.2476 11.6688 82.3164 13.0334 82.901C14.3979 83.4857 15.9304 83.5451 17.3361 83.0679C16.5291 81.9072 16.059 80.5458 15.9782 79.1345C15.8973 77.7232 16.209 76.3171 16.8781 75.0719H16.8924ZM85.0765 120.143C85.4016 119.506 85.6344 118.826 85.7683 118.123C85.8891 116.169 85.7905 114.208 85.4739 112.276C84.6139 110.185 83.1924 108.373 81.3662 107.04C79.5401 105.707 77.3804 104.906 75.1268 104.724C74.005 104.912 72.9616 105.42 72.1207 106.186C69.8501 108.03 67.6936 110.013 65.5156 111.974C64.7847 112.642 63.5255 113.392 63.5206 114.111C63.3261 116.458 63.6035 118.821 64.3367 121.059C65.1346 123.197 66.6332 125.002 68.5883 126.179C70.5433 127.357 72.8394 127.837 75.1024 127.542C75.7811 127.487 76.4628 127.487 77.1414 127.542C77.775 127.653 78.428 127.564 79.0085 127.287C79.5889 127.009 80.068 126.558 80.3794 125.995C81.0545 125.174 81.9521 124.565 82.9644 124.241C85.5176 123.232 86.0949 121.6 85.0765 120.155V120.143ZM47.2489 129.318C48.5099 129.295 49.7636 129.122 50.9836 128.802C53.4225 128.029 55.5123 126.424 56.8875 124.267C58.2627 122.109 58.8356 119.537 58.5065 117C58.3335 115.219 57.8149 114.364 55.9584 114.44C54.4197 114.728 52.8371 114.683 51.3172 114.308C48.2958 112.85 45.3739 111.194 42.5708 109.35C41.4867 108.675 40.6217 108.442 39.6813 109.375C37.9978 111.264 36.8894 113.594 36.4867 116.092C36.0839 118.59 36.404 121.151 37.4086 123.473C38.3805 125.235 39.8044 126.706 41.5341 127.733C43.2638 128.761 45.2369 129.309 47.2489 129.321V129.318ZM1.27607 133.048L1.60975 133.216C1.54107 134.288 1.67681 135.362 2.00945 136.383C2.81877 138.09 4.0479 139.564 5.58178 140.667C7.11567 141.769 8.90383 142.465 10.7797 142.688C11.3327 142.739 11.9345 143.568 12.3 144.17C13.1476 145.893 14.1108 147.558 15.1823 149.152C16.1715 150.318 17.4593 151.193 18.9075 151.683C20.2339 151.865 21.5806 151.836 22.898 151.598C24.407 151.451 25.8155 150.776 26.8748 149.691C27.9341 148.607 28.5758 147.182 28.6865 145.67C28.6987 144.401 28.2531 143.887 26.9254 143.785C25.2572 143.818 23.6011 143.49 22.0718 142.822C17.6706 140.547 14.2179 136.787 12.3267 132.207C12.0628 131.593 11.589 131.093 10.9896 130.797C9.13077 129.929 7.13303 129.335 5.33019 128.38C4.28746 127.825 3.38117 127.695 2.89391 128.655C2.25385 130.078 1.71391 131.543 1.27845 133.041L1.27607 133.048ZM94.1126 105.961C95.9338 107.058 98.0009 107.68 100.125 107.771C102.249 107.862 104.362 107.418 106.27 106.48C109.644 104.872 112.344 102.126 113.893 98.7233C114.804 96.8849 115.287 94.8644 115.308 92.8128C115.328 90.7613 114.884 88.7318 114.01 86.8757C112.602 83.8007 110.22 81.2754 107.232 79.6911C107.048 79.5745 106.839 79.5027 106.622 79.4811C106.405 79.4596 106.186 79.4889 105.982 79.5669C105.839 79.7324 105.732 79.9267 105.67 80.1369C105.608 80.347 105.591 80.568 105.622 80.7851C105.792 82.4588 106.184 84.1202 106.245 85.794C106.347 89.8064 105.308 93.7655 103.249 97.2104C102.282 98.9528 101.073 100.548 99.6555 101.949C97.9009 103.412 96.0488 104.754 94.1126 105.966V105.961ZM58.5089 145.47C59.8798 145.563 61.253 145.327 62.5142 144.782C63.7754 144.236 64.8885 143.398 65.76 142.335C66.6316 141.273 67.2368 140.018 67.5254 138.675C67.8139 137.331 67.7769 135.939 67.4183 134.612C66.8416 132.978 65.9906 131.453 64.9017 130.105C64.2074 129.13 63.2475 129.415 62.4655 130.268C62.0815 130.811 61.607 131.285 61.0623 131.667C58.1707 133.537 54.9438 134.829 51.5605 135.472C49.9964 135.63 49.4731 136.588 50.2722 138.081C50.462 138.44 50.5997 138.824 50.6814 139.221C51.1992 140.928 52.2206 142.438 53.612 143.553C55.0033 144.668 56.6993 145.337 58.4774 145.47H58.5089ZM39.4523 151.21C40.7236 151.205 41.9843 150.977 43.1775 150.538C48.5129 147.614 49.4216 143.751 47.8258 138.113C47.695 137.387 47.3257 136.725 46.776 136.232C45.5406 135.422 44.1539 134.87 42.6999 134.61C42.2126 134.551 41.5255 136.157 40.9506 137.014C39.5177 139.255 37.4222 140.994 34.9551 141.989C33.8344 142.44 32.1972 143.621 32.1899 144.479C32.3112 146.316 33.1315 148.037 34.4822 149.288C35.8329 150.539 37.6114 151.225 39.4523 151.205V151.21ZM92.3562 111.821C92.3562 115.324 92.4681 118.399 92.3122 121.468C92.2591 121.803 92.2798 122.145 92.3723 122.471C92.4648 122.797 92.6272 123.099 92.8481 123.356C93.069 123.613 93.3432 123.818 93.6517 123.959C93.9601 124.099 94.2955 124.17 94.6343 124.168C96.3484 124.558 98.1369 124.464 99.8006 123.896C101.464 123.328 102.937 122.309 104.055 120.952C104.823 119.563 105.267 118.019 105.354 116.435C105.407 116.138 104.652 115.351 104.272 115.356C99.9929 115.754 95.7255 114.488 92.3562 111.821V111.821ZM72.9636 133.209C72.9197 135.382 73.8797 136.695 75.5218 136.863C77.1638 137.031 78.8763 137.226 80.5549 137.263C82.132 136.996 83.6136 136.327 84.8571 135.32C86.1005 134.314 87.0641 133.005 87.6544 131.518C87.664 131.079 87.6003 130.641 87.4664 130.222C86.9976 130.334 86.5417 130.493 86.1049 130.697C85.2401 131.206 84.4896 132.081 83.5711 132.298C80.745 132.965 77.9677 134.312 74.9175 133.231C74.2735 133.117 73.6154 133.108 72.9683 133.201L72.9636 133.209ZM21.0756 46.5578C20.4007 47.3033 19.9576 47.8662 19.4411 48.351C18.1135 50.0093 17.3391 52.0421 17.2272 54.1634C17.1154 56.2848 17.6714 58.3877 18.8171 60.1765C19.3044 60.7344 20.347 60.8173 21.1315 61.1194C21.3733 60.2734 21.4782 59.3942 21.4414 58.5151C20.691 54.9728 19.7357 51.4669 21.1975 47.8734C21.3169 47.5786 21.1466 47.1669 21.0857 46.5578" fill="#CF2158"/>
<path d="M97.2658 85.221C97.7043 93.1657 90.352 100.068 80.9578 99.6097C77.0597 99.4221 74.3457 96.4229 71.4684 94.106C68.026 91.3311 68.2284 87.4039 68.2381 83.4888C68.2389 79.8538 69.6679 76.3646 72.2173 73.7733C74.7666 71.1821 78.232 69.6963 81.8666 69.6362C90.4423 69.6752 97.8335 74.728 97.2658 85.2283" fill="#EA185F"/>
<path d="M53.9005 79.7076C45.7975 79.7076 39.9938 73.4171 39.6064 65.1118C39.6502 62.2753 40.5327 59.5153 42.142 57.1792C43.7514 54.8431 46.0162 53.0354 48.6509 51.9838C51.2856 50.9322 54.1726 50.6838 56.9482 51.2698C59.7239 51.8557 62.2639 53.2498 64.2487 55.2766C66.2336 57.3034 67.574 59.8722 68.1018 62.6595C68.6296 65.4467 68.3208 68.3279 67.2144 70.94C66.1079 73.5522 64.2537 75.7785 61.8844 77.3387C59.5152 78.8988 56.7373 79.7231 53.9005 79.7076Z" fill="#EA185F"/>
<path d="M13.9589 123.689C13.2451 123.962 12.7406 124.013 12.6967 124.193C12.0414 126.449 10.0677 126.196 8.72292 125.74C6.37791 124.91 4.44793 123.2 3.34122 120.972C2.23452 118.744 2.03831 116.173 2.79342 113.802C3.63393 110.148 7.81669 106.121 12.146 109.074C13.2467 109.698 14.4506 110.12 15.7004 110.318C18.7117 111.013 19.4719 111.795 19.7813 114.545C22.5246 115.79 25.044 117.135 27.7093 118.063C29.2722 118.45 30.8849 118.594 32.4915 118.49C33.7218 118.512 34.2457 118.875 34.4406 120.215C34.7768 122.651 35.4541 125.048 35.9389 127.472C36.0304 128.477 35.9215 129.489 35.6183 130.451C35.3151 131.413 34.8234 132.305 34.1723 133.076C31.7117 136.957 27.6653 137.264 23.682 137.217C22.2318 136.914 20.8508 136.342 19.6106 135.531C19.4425 135.456 19.3281 135.105 19.2014 135.112C17.0429 135.242 16.4532 133.368 15.5737 132.079C14.7996 130.876 14.2729 129.531 14.0243 128.123C13.8741 126.653 13.8555 125.172 13.9684 123.699" fill="#EA185F"/>
<path d="M22.6655 50.0146C23.5158 44.9228 24.641 41.1563 28.2905 37.9745C29.5013 36.9407 30.9053 36.1572 32.4207 35.6692C33.9362 35.1812 35.5331 34.9984 37.1196 35.1314C40.4408 35.0321 43.7101 35.9752 46.468 37.8283C49.1294 39.7555 50.919 42.6586 51.4452 45.9022C51.4546 46.337 51.3521 46.7669 51.1478 47.1508C50.9435 47.5347 50.6441 47.8597 50.2782 48.0947C44.8502 49.5711 41.6125 53.5301 38.8546 57.9787C37.997 59.5651 37.3228 61.244 36.8448 62.9829C36.4233 64.2351 35.8895 64.7613 34.4716 64.2838C31.6409 63.5692 29.1094 61.976 27.2407 59.7329C26.4172 58.6293 25.0311 57.8204 24.5463 56.6144C23.7843 54.4535 23.1562 52.2478 22.6655 50.0097" fill="#EA185F"/>
<path d="M10.6924 87.8719C12.5025 87.6402 14.3249 87.5181 16.1497 87.5064C18.8296 87.6307 21.6166 87.7159 23.1807 90.5323C23.2504 90.6518 23.3644 90.7393 23.4978 90.776C25.9633 91.5716 28.5233 92.0369 31.1111 92.1598C31.7003 92.0402 32.3083 92.0531 32.8919 92.1977C33.4755 92.3423 34.0201 92.6148 34.4854 92.9956C34.9506 93.3764 35.3251 93.856 35.5822 94.3995C35.8392 94.943 35.972 95.537 35.9712 96.1382C36.2198 98.7639 36.8658 101.337 37.8864 103.769C38.2178 104.309 38.4359 104.912 38.5276 105.539C38.6193 106.167 38.5822 106.807 38.4193 107.42C38.2565 108.033 37.9712 108.606 37.5801 109.106C37.189 109.605 36.7004 110.02 36.1443 110.325C34.4425 111.677 32.3564 112.455 30.185 112.549C28.9366 112.743 27.6616 112.678 26.4396 112.357C25.2176 112.036 24.0747 111.466 23.0832 110.683C20.9295 108.471 18.2401 106.631 17.921 103.116L17.3654 102.894C16.9275 103.379 16.5615 103.925 16.2788 104.514C15.7184 106.307 14.6076 106.565 13.2263 105.613C11.3756 104.436 9.63876 103.088 8.03908 101.588C5.88054 99.3955 6.16095 94.1477 8.28294 91.3143C9.12346 90.1838 9.89335 89.0194 10.6924 87.8719Z" fill="#EA185F"/>
<path d="M52.5575 106.264C49.6126 106.118 46.7744 105.114 44.3934 103.375C42.0123 101.636 40.1926 99.238 39.158 96.477C38.099 92.7722 38.2015 88.8318 39.4524 85.1873C40.0761 82.8144 42.3763 82.4294 44.4618 83.7255C50.1578 87.2995 56.1972 89.5604 62.9944 87.0145C64.539 86.4347 65.1017 86.9804 65.4306 88.391C65.874 90.3401 66.4759 92.2549 66.873 94.2136C67.0387 95.0371 67.2019 96.2066 66.7707 96.7474C64.8899 99.1923 62.8478 101.509 60.658 103.681C59.5863 104.687 58.3034 105.44 56.9031 105.886C55.5028 106.332 54.0205 106.459 52.5647 106.259" fill="#EA185F"/>
<path d="M16.8996 75.0563C16.2301 76.3012 15.918 77.7073 15.9984 79.1186C16.0789 80.5298 16.5486 81.8912 17.3552 83.0521C15.9494 83.5293 14.4164 83.4699 13.0518 82.8852C11.6873 82.3006 10.5872 81.232 9.96307 79.885C8.91472 78.225 8.39431 76.2864 8.46955 74.3245C8.54478 72.3627 9.21238 70.4697 10.3848 68.895C11.5069 67.4271 13.0558 66.3425 14.819 65.7903C16.5821 65.238 18.4732 65.2452 20.2322 65.8107C20.6457 65.921 21.0789 65.9344 21.4985 65.8499C21.9181 65.7654 22.3126 65.5852 22.6512 65.3234C23.5721 64.3342 24.2206 64.5535 25.0708 65.2138C26.669 66.4514 28.2083 67.7815 29.9113 68.8535C31.8262 70.057 33.8945 71.0243 35.902 72.0865C36.6767 72.5743 37.3478 73.21 37.8767 73.9572C38.4056 74.7045 38.7823 75.5486 38.9848 76.4414C39.1873 77.3342 39.2116 78.2582 39.0568 79.1605C38.902 80.0628 38.5709 80.9257 38.0825 81.7C36.5341 84.0039 34.159 85.6238 31.4488 86.2241C30.0245 86.6133 28.5332 86.6937 27.0753 86.4601C25.6173 86.2265 24.2264 85.6843 22.995 84.8696C19.304 82.7574 17.9349 79.1662 16.9043 75.0587" fill="#EA185F"/>
<path d="M85.0994 120.115C86.1177 121.562 85.5405 123.192 82.9873 124.203C81.9737 124.524 81.0749 125.133 80.3999 125.954C80.0883 126.517 79.6086 126.969 79.0283 127.247C78.448 127.524 77.7957 127.614 77.1619 127.504C76.4832 127.449 75.8015 127.449 75.1229 127.504C72.8601 127.797 70.5646 127.316 68.6099 126.139C66.6553 124.962 65.1566 123.158 64.3571 121.021C63.6253 118.782 63.3473 116.42 63.5405 114.073C63.5405 113.342 64.7953 112.611 65.5384 111.934C67.714 109.985 69.8724 107.989 72.143 106.148C72.9833 105.381 74.0276 104.873 75.1497 104.686C77.403 104.868 79.5619 105.67 81.3879 107.003C83.2139 108.336 84.6361 110.148 85.4967 112.238C85.8134 114.175 85.9112 116.141 85.7887 118.1C85.6558 118.802 85.4237 119.481 85.0994 120.117" fill="#EA185F"/>
<path d="M47.2701 129.279C45.2579 129.268 43.2852 128.721 41.5553 127.693C39.8254 126.665 38.4016 125.194 37.4304 123.432C36.4258 121.11 36.1058 118.548 36.5085 116.05C36.9112 113.553 38.0196 111.222 39.7031 109.333C40.6362 108.402 41.5085 108.631 42.5926 109.309C45.3952 111.152 48.3172 112.808 51.3391 114.264C52.8583 114.643 54.4417 114.689 55.9802 114.398C57.8367 114.32 58.3554 115.178 58.5283 116.958C58.857 119.495 58.2839 122.067 56.9087 124.224C55.5336 126.382 53.444 127.987 51.0054 128.76C49.7859 129.082 48.5313 129.256 47.2701 129.276" fill="#EA185F"/>
<path d="M1.27478 133.047C1.71013 131.55 2.25007 130.084 2.89024 128.662C3.39455 127.688 4.29109 127.829 5.32651 128.384C7.12935 129.344 9.12715 129.936 10.9836 130.804C11.5835 131.099 12.0581 131.598 12.3231 132.212C14.2125 136.793 17.6656 140.555 22.0682 142.829C23.5971 143.494 25.2516 143.822 26.9187 143.789C28.2489 143.894 28.695 144.405 28.6829 145.677C28.5712 147.189 27.929 148.612 26.8699 149.697C25.8108 150.781 24.403 151.457 22.8943 151.604C21.5767 151.841 20.2304 151.87 18.9039 151.69C17.4556 151.2 16.1678 150.325 15.1787 149.159C14.1058 147.564 13.1419 145.899 12.2939 144.174C11.9309 143.575 11.3194 142.744 10.7736 142.693C8.89763 142.47 7.10909 141.774 5.57514 140.672C4.04118 139.569 2.81234 138.095 2.0034 136.388C1.67058 135.367 1.53484 134.292 1.6037 133.22L1.27002 133.052" fill="#EA185F"/>
<path d="M94.0977 105.968C96.0334 104.755 97.8849 103.413 99.6399 101.951C101.058 100.551 102.268 98.9552 103.234 97.2123C105.292 93.7666 106.331 89.8082 106.23 85.7959C106.167 84.1222 105.777 82.463 105.606 80.7893C105.575 80.5724 105.59 80.3514 105.652 80.1411C105.714 79.9308 105.82 79.7364 105.964 79.5711C106.168 79.492 106.387 79.4619 106.604 79.4831C106.821 79.5043 107.03 79.5762 107.214 79.6931C110.203 81.2772 112.586 83.8023 113.995 86.8776C114.869 88.7337 115.312 90.7633 115.291 92.8148C115.271 94.8663 114.788 96.8867 113.878 98.7253C112.329 102.128 109.629 104.874 106.255 106.482C104.347 107.42 102.234 107.863 100.11 107.773C97.9859 107.682 95.9188 107.06 94.0977 105.963" fill="#EA185F"/>
<path d="M58.4959 145.472C56.7182 145.338 55.0224 144.67 53.6311 143.555C52.2398 142.441 51.2176 140.931 50.6994 139.225C50.6166 138.827 50.4789 138.441 50.2902 138.081C49.4911 136.59 50.0151 135.644 51.5767 135.476C54.9602 134.831 58.1865 133.537 61.0779 131.666C61.6219 131.284 62.097 130.812 62.4816 130.27C63.2491 129.417 64.2112 129.13 64.9031 130.104C65.9928 131.453 66.8439 132.978 67.4196 134.614C67.7781 135.94 67.8151 137.333 67.5267 138.676C67.2383 140.019 66.6332 141.274 65.7619 142.336C64.8907 143.398 63.7782 144.237 62.5173 144.782C61.2565 145.328 59.8833 145.564 58.5126 145.472" fill="#EA185F"/>
<path d="M39.4695 151.212C37.6291 151.232 35.851 150.547 34.5006 149.296C33.1502 148.045 32.3302 146.325 32.2095 144.488C32.2095 143.628 33.8516 142.447 34.9723 141.996C37.4399 141.002 39.5357 139.263 40.9678 137.021C41.5452 136.163 42.2347 134.56 42.7171 134.616C44.1708 134.878 45.5571 135.43 46.7932 136.239C47.3431 136.732 47.7131 137.393 47.8454 138.12C49.4387 143.752 48.5302 147.621 43.1947 150.545C42.0022 150.986 40.7411 151.214 39.4695 151.217" fill="#EA185F"/>
<path d="M92.3734 111.827C95.7426 114.495 100.01 115.761 104.289 115.362C104.667 115.362 105.424 116.142 105.371 116.441C105.281 118.025 104.839 119.568 104.075 120.958C102.956 122.315 101.483 123.334 99.8184 123.901C98.1543 124.469 96.3651 124.562 94.6509 124.171C94.3118 124.175 93.9765 124.104 93.6677 123.964C93.3588 123.824 93.084 123.618 92.8629 123.361C92.6418 123.104 92.4798 122.802 92.3877 122.476C92.2955 122.149 92.2755 121.807 92.3294 121.472C92.4853 118.407 92.3734 115.328 92.3734 111.827" fill="#EA185F"/>
<path d="M72.9799 133.216C73.627 133.122 74.2851 133.131 74.9291 133.245C77.9817 134.327 80.7567 132.979 83.5827 132.312C84.5036 132.095 85.2516 131.22 86.1189 130.711C86.5558 130.508 87.0123 130.349 87.481 130.236C87.6154 130.655 87.6778 131.093 87.666 131.532C87.0766 133.019 86.1142 134.329 84.8711 135.335C83.6279 136.341 82.1464 137.01 80.5695 137.277C78.8885 137.24 77.2047 137.058 75.5334 136.877C73.8621 136.697 72.9337 135.389 72.9776 133.223" fill="#EA185F"/>
<path d="M21.0859 46.5753C21.1468 47.1843 21.3293 47.596 21.1977 47.8908C19.736 51.4843 20.7107 54.99 21.4416 58.5324C21.4785 59.4115 21.3735 60.2909 21.1317 61.1368C20.3472 60.8347 19.3144 60.7519 18.8174 60.1939C17.6716 58.4051 17.1156 56.3022 17.2275 54.1809C17.3394 52.0596 18.1137 50.0266 19.4413 48.3683C19.9578 47.881 20.4009 47.3208 21.0758 46.5753" fill="#EA185F"/>
</g>
<defs>
<filter id="filter0_d_6308_44909" x="0" y="0" width="156.255" height="161.686" filterUnits="userSpaceOnUse" color-interpolation-filters="sRGB">
<feFlood flood-opacity="0" result="BackgroundImageFix"/>
<feColorMatrix in="SourceAlpha" type="matrix" values="0 0 0 0 0 0 0 0 0 0 0 0 0 0 0 0 0 0 127 0" result="hardAlpha"/>
<feOffset dx="4" dy="5"/>
<feColorMatrix type="matrix" values="0 0 0 0 0.219608 0 0 0 0 0 0 0 0 0 0.498039 0 0 0 1 0"/>
<feBlend mode="normal" in2="BackgroundImageFix" result="effect1_dropShadow_6308_44909"/>
<feBlend mode="normal" in="SourceGraphic" in2="effect1_dropShadow_6308_44909" result="shape"/>
</filter>
</defs>
</svg>
