<svg xmlns="http://www.w3.org/2000/svg" xmlns:xlink="http://www.w3.org/1999/xlink" viewBox="0 0 1160 772"><defs><style>.cls-1,.cls-9{fill:#fff}.cls-3{fill:#f9d0ae}.cls-43,.cls-45,.cls-5,.cls-6{fill:#dbb08e}.cls-12,.cls-5,.cls-7{opacity:.69}.cls-6{opacity:.51}.cls-7{fill:#ecc3a8}.cls-44,.cls-8{fill:#ffe8d9}.cls-8{opacity:.61}.cls-9{opacity:.78}.cls-12{fill:#a0806d}.cls-41{fill:#262525}.cls-42{fill:#494848}.cls-43{opacity:.64}.cls-44{opacity:.34}.cls-45{opacity:.56}.cls-48{fill:#1f292f}.cls-67{fill:#9b9a9a;opacity:.85}.cls-68{fill:#141414}.cls-69{fill:#272525}</style><linearGradient id="linear-gradient" x1="824" y1="419" x2="251" y2="419" gradientUnits="userSpaceOnUse"><stop offset="0" stop-color="#f9d0ae"/><stop offset="1" stop-color="#f9d0ae"/><stop offset="1" stop-color="#f7d3b4"/><stop offset="1" stop-color="#f2dac6"/><stop offset="1" stop-color="#eae4df"/></linearGradient><linearGradient id="linear-gradient-2" x1="777" y1="102" x2="925" y2="102" gradientUnits="userSpaceOnUse"><stop offset="0" stop-color="#f9d0ae"/><stop offset="1" stop-color="#ecc499"/><stop offset="1" stop-color="#e2bb89"/></linearGradient><linearGradient id="linear-gradient-3" x1="777" y1="201" x2="925" y2="201" xlink:href="#linear-gradient-2"/><linearGradient id="linear-gradient-4" x1="777" y1="138" x2="925" y2="138" xlink:href="#linear-gradient-2"/><linearGradient id="linear-gradient-5" x1="777" y1="219" x2="925" y2="219" xlink:href="#linear-gradient-2"/><linearGradient id="linear-gradient-6" x1="777" y1="38" x2="925" y2="38" xlink:href="#linear-gradient-2"/><linearGradient id="linear-gradient-7" x1="777" y1="32" x2="925" y2="32" xlink:href="#linear-gradient-2"/><linearGradient id="linear-gradient-8" x1="777" y1="32" x2="925" y2="32" xlink:href="#linear-gradient-2"/><linearGradient id="linear-gradient-9" x1="777" y1="32" x2="925" y2="32" xlink:href="#linear-gradient-2"/><linearGradient id="linear-gradient-10" x1="777" y1="38" x2="925" y2="38" xlink:href="#linear-gradient-2"/><linearGradient id="linear-gradient-11" x1="777" y1="133" x2="925" y2="133" xlink:href="#linear-gradient-2"/><linearGradient id="linear-gradient-12" x1="777" y1="93" x2="925" y2="93" xlink:href="#linear-gradient-2"/><linearGradient id="linear-gradient-13" x1="777" y1="145" x2="925" y2="145" xlink:href="#linear-gradient-2"/><linearGradient id="linear-gradient-14" x1="777" y1="123" x2="925" y2="123" xlink:href="#linear-gradient-2"/><linearGradient id="linear-gradient-15" x1="777" y1="31" x2="925" y2="31" xlink:href="#linear-gradient-2"/><linearGradient id="linear-gradient-16" x1="777" y1="58" x2="925" y2="58" xlink:href="#linear-gradient-2"/><linearGradient id="linear-gradient-17" x1="777" y1="186" x2="925" y2="186" xlink:href="#linear-gradient-2"/><linearGradient id="linear-gradient-18" x1="777" y1="222" x2="925" y2="222" xlink:href="#linear-gradient-2"/><linearGradient id="linear-gradient-19" x1="760" y1="87" x2="817" y2="30" gradientUnits="userSpaceOnUse"><stop offset="0" stop-color="#1f292f"/><stop offset="0" stop-color="#2f3435"/><stop offset="1" stop-color="#5a5044"/><stop offset="1" stop-color="#9f7d5c"/><stop offset="1" stop-color="#a4805e"/></linearGradient><linearGradient id="linear-gradient-20" x1="766" y1="93" x2="823" y2="36" xlink:href="#linear-gradient-19"/><linearGradient id="linear-gradient-21" x1="771" y1="97" x2="827" y2="41" xlink:href="#linear-gradient-19"/><linearGradient id="linear-gradient-22" x1="777" y1="36" x2="925" y2="36" xlink:href="#linear-gradient-2"/><linearGradient id="linear-gradient-23" x1="764" y1="91" x2="821" y2="34" xlink:href="#linear-gradient-19"/><linearGradient id="linear-gradient-24" x1="777" y1="32" x2="924" y2="32" xlink:href="#linear-gradient-2"/><linearGradient id="linear-gradient-25" x1="761" y1="87" x2="817" y2="31" xlink:href="#linear-gradient-19"/><linearGradient id="linear-gradient-26" x1="777" y1="32" x2="924" y2="32" xlink:href="#linear-gradient-2"/><linearGradient id="linear-gradient-27" x1="761" y1="87" x2="817" y2="31" xlink:href="#linear-gradient-19"/><linearGradient id="linear-gradient-28" x1="777" y1="81" x2="925" y2="81" xlink:href="#linear-gradient-2"/><linearGradient id="linear-gradient-29" x1="784" y1="110" x2="840" y2="54" xlink:href="#linear-gradient-19"/><linearGradient id="linear-gradient-30" x1="777" y1="195" x2="925" y2="195" xlink:href="#linear-gradient-2"/><linearGradient id="linear-gradient-31" x1="777" y1="191" x2="925" y2="191" xlink:href="#linear-gradient-2"/><linearGradient id="linear-gradient-32" x1="815" y1="74" x2="776" y2="74" gradientUnits="userSpaceOnUse"><stop offset="0" stop-color="#1f292f"/><stop offset="0" stop-color="#222b30"/><stop offset="1" stop-color="#2d3234"/><stop offset="1" stop-color="#3f3e3a"/><stop offset="1" stop-color="#584e43"/><stop offset="1" stop-color="#78634e"/><stop offset="1" stop-color="#9f7c5c"/><stop offset="1" stop-color="#a4805e"/></linearGradient><linearGradient id="linear-gradient-33" x1="815" y1="88" x2="776" y2="88" xlink:href="#linear-gradient-32"/><linearGradient id="linear-gradient-34" x1="815" y1="141" x2="776" y2="141" xlink:href="#linear-gradient-32"/><linearGradient id="linear-gradient-35" x1="815" y1="158" x2="776" y2="158" xlink:href="#linear-gradient-32"/><linearGradient id="linear-gradient-36" x1="815" y1="114" x2="776" y2="114" xlink:href="#linear-gradient-32"/><linearGradient id="linear-gradient-37" x1="777" y1="100" x2="925" y2="100" xlink:href="#linear-gradient-2"/><linearGradient id="linear-gradient-38" x1="815" y1="100" x2="776" y2="100" xlink:href="#linear-gradient-32"/><linearGradient id="linear-gradient-39" x1="777" y1="59" x2="925" y2="59" xlink:href="#linear-gradient-2"/><linearGradient id="linear-gradient-40" x1="815" y1="59" x2="776" y2="59" xlink:href="#linear-gradient-32"/><linearGradient id="linear-gradient-41" x1="777" y1="103" x2="925" y2="103" xlink:href="#linear-gradient-2"/><linearGradient id="linear-gradient-42" x1="815" y1="103" x2="776" y2="103" xlink:href="#linear-gradient-32"/><linearGradient id="linear-gradient-43" x1="777" y1="130" x2="925" y2="130" xlink:href="#linear-gradient-2"/><linearGradient id="linear-gradient-44" x1="804" y1="130" x2="860" y2="74" xlink:href="#linear-gradient-19"/><linearGradient id="linear-gradient-45" x1="815" y1="130" x2="776" y2="130" xlink:href="#linear-gradient-32"/><linearGradient id="linear-gradient-46" x1="815" y1="110" x2="776" y2="110" xlink:href="#linear-gradient-32"/><linearGradient id="linear-gradient-47" x1="815" y1="102" x2="776" y2="102" xlink:href="#linear-gradient-32"/><linearGradient id="linear-gradient-48" x1="815" y1="127" x2="776" y2="127" xlink:href="#linear-gradient-32"/><linearGradient id="linear-gradient-49" x1="815" y1="65" x2="776" y2="65" xlink:href="#linear-gradient-32"/></defs><g id="Objects"><path class="cls-1" d="M597 283c-2-1-3 0 0 0z"/><path class="cls-1" d="M926 175a6 6 0 0 0-1-2v-1a8 8 0 0 0-1-1 3 3 0 0 0 0-1l-1-1-2-1v-1l-10-5-7-3-19-11c-3-2-6-5-8-9l-3-9-1-3a26 26 0 0 0-5-9 47 47 0 0 0-6-6 83 83 0 0 0-10-7l-21-14a19 19 0 0 1-2-3c-8-13-4-31-7-45l-1-9a7 7 0 0 0-1-1 5 5 0 0 0-3-2h-1v1h-1c-1 2-3 3-3 5a19 19 0 0 1-1 6 178 178 0 0 0-10 19l-18 37-3 5a84 84 0 0 0-26 38l-17 39c-5 12-7 30-11 42l-4 9c-4 5-12 7-16 12a26 26 0 0 0-4 1l-2 2a203 203 0 0 0-17 12c-7 5-15 9-24 12v-1a110 110 0 0 1-17 7c-29 8-41 7-45 6a7 7 0 0 1 2 3l-52 1c-24 0-50-2-74 3-40 9-95 19-118 56-5 22-3 28-7 58-2 11-8 28-12 39-6 17-13 33-26 45-9 8-11 14-35 14-20-1-17-16-24-13 0 9 11 17 20 19 18 4 40-3 52-17s21-27 26-44a12 12 0 0 0 3-3 183 183 0 0 1-4 24l-1 7-2 4c-6 17-15 33-20 50a212 212 0 0 1-38 47l-11 12c-8 14 0 31 1 46 2 17-3 34-6 51a66 66 0 0 0 0 20c-1 2 0 6 2 9a140 140 0 0 0 7 20h5a14 14 0 0 0 5 1l11-2 5-1a209 209 0 0 1 25 2c-1-26-16-27-21-34-8-10-11-39-7-55a173 173 0 0 1 20-44l1 2 2 7a185 185 0 0 1 4 66v4c-1 5-3 11 0 15a12 12 0 0 0 3 5 12 12 0 0 0 3 3c4 2 9 2 13 2h37v-1h1a38 38 0 0 0-2-5c-3-9-11-17-21-20l-10-5c-2-3-2-7-3-10a132 132 0 0 1 4-39 187 187 0 0 1 8-24 133 133 0 0 1 27-40l25-23a145 145 0 0 0 33-49c7-17 14-34 25-49 15-17 37-15 58-10 15 3 30 9 45 15a31 31 0 0 0 4 2c16 7 32 14 49 18 28 10 58 18 88 12 17 53 20 104 15 160l2 13c1 5 8 13 11 18 6 9 6 26 6 37-1 8-2 14 3 21 6 7 15 5 25 4s20-4 29 0a22 22 0 0 0-4-19 22 22 0 0 0 6 0 121 121 0 0 0 19 1c3 1 5 2 7 0h1c4-7-1-16-7-21s-15-2-22-7c-16-13-15-46-16-66l-1-36v-38-8c2-11 6-22 6-34v-15l2-23c3-15 15-37 14-53v-2c4-8 10-34 10-51s1-30-2-47c-3-25-1-50-2-75l2-21c1-7 3-13 7-18a14 14 0 0 1 2 0l6 7 3 3a26 26 0 0 0 2 4 20 20 0 0 0 5 5c3 3 8 5 12 6a38 38 0 0 0 21 5l3 1a36 36 0 0 0 12-1c7-2 13-8 18-15a31 31 0 0 0 3-5 38 38 0 0 0 5-17 26 26 0 0 1 1-2 21 21 0 0 0 3-4 15 15 0 0 0 1-2v-1a11 11 0 0 0 1-1 5 5 0 0 0 0-5z"/><path class="cls-3" d="M683 259c-7 4-15 9-24 12v-1a110 110 0 0 1-17 7l14-3c9-3 18-9 27-15zM280 730l-2-7-5-9a140 140 0 0 0 7 20h5a9 9 0 0 1-5-4zM351 671a12 12 0 0 0 3 3c-2-3-2-7-3-10a132 132 0 0 1 4-39 197 197 0 0 0-6 33c0 4 0 9 2 13zM822 53l3 32a63 63 0 0 0 6 6 19 19 0 0 1-2-3c-8-13-4-31-7-45v10zM810 711a121 121 0 0 0 19 1l-4-1h-15zM873 127a26 26 0 0 0-5-9 47 47 0 0 0-6-6 41 41 0 0 1 11 15zM897 155a9 9 0 0 1 2 1l2 1 2 1 1 1a345 345 0 0 0-14-8zM348 468l-1 7 1-3v-4zM825 692a36 36 0 0 1 11 12c1 2 2 5 1 8a4 4 0 0 1-1 0h1c4-7-1-16-7-21s-15-2-22-7l2 2c4 2 11 3 15 6zM387 704a38 38 0 0 0-2-5 19 19 0 0 1 1 5zM873 227a61 61 0 0 1-13-4l-2-1a38 38 0 0 0 21 5h-2a38 38 0 0 1-4 0zM922 187l-1 1a21 21 0 0 0 3-4 18 18 0 0 1-2 2v1zM792 525a108 108 0 0 0-1 11c2-11 6-22 6-34v-15a177 177 0 0 1-1 19l-4 19z"/><path d="M816 263c-3 21 1 43 4 64s2 44-10 63l-47-129c-3-10-7-21-5-32a58 58 0 0 1 5-13v-1c2-16 10-32 27-36l4 11 1-3 15 26-7-17c-2-6-3-10 2-10-3-2-7-5-9-9a35 35 0 0 1-4-9c-2-1-5-13-7-20l-3-6a6 6 0 0 1 0-2l-2-5a53 53 0 0 1-2-9 23 23 0 0 1-1-12 48 48 0 0 1 3-10 84 84 0 0 0-26 38l-17 39c-5 12-7 30-11 42l-4 9 1-1c7-10 12-31 12-42 5 13 1 27 3 41 3 17 18 31 21 48l-44-20-7-4c-4 3-7 6-9 11l-1 10c2 28 11 56 4 83-4 1-7-5-8-9l-15-60c-6-2-10 5-12 10a362 362 0 0 0-8 42c0-3-32-22-35-25-8-5-24-13-24-23a17 17 0 0 0-1-7l-52 1c-24 0-50-2-74 3-40 9-95 20-118 56-5 22-3 28-7 58-2 12-8 28-12 39-6 17-13 34-26 46-9 7-11 13-35 13-20-1-17-16-24-13 0 9 11 17 20 19 18 4 40-3 52-17s21-27 26-44a12 12 0 0 0 3-3l-3 18a74 74 0 0 1 5-14v-4-13c1-18 1-58 14-71-2 22-7 44-11 66l-3 18v3c4 8 5 16 10 24 1 2 25 26 27 22a122 122 0 0 1-46 59c-7 5-15 9-21 16-9 9-13 21-16 33l-10 31c-5-23-5-48 9-67 6-9 16-16 24-26 9-12 12-25 14-39a110 110 0 0 1-22 33l2-4a212 212 0 0 1-38 47l-11 12c-8 14 0 31 1 46 2 17-3 34-6 51a66 66 0 0 0 0 20 4 4 0 0 1 4-1c3 0 7 6 11 8s9 3 14 1c3-2 6-6 10-5a10 10 0 0 1 4 2 39 39 0 0 1 17 22h-25a209 209 0 0 1 25 2c-1-26-16-26-21-34-8-10-11-39-7-55a173 173 0 0 1 20-44l1 2a13 13 0 0 1 0-7c1-5 6-9 9-12l25-21a191 191 0 0 0 26-26c20-25 34-56 55-80a28 28 0 0 1-7 3l3-8-5 5 5-7 2-4a115 115 0 0 0-19 21c-4-22 8-44 19-64a377 377 0 0 0 16-37c-13 5-25 11-34 21-8 7-13 16-19 25a141 141 0 0 1 22-45 31 31 0 0 1 7-7 53 53 0 0 1 10-11c11-7 23-11 35-15l21-6c3-1 8-2 11 1l2 6 4 14a4 4 0 0 1 0 3 4 4 0 0 1-2 2c-8 3-17 3-26 4 27 19 54 40 75 65-23-1-46-2-69 3h-3l-7 3a23 23 0 0 1 6 0c-8 3-14 10-19 17-17 26-24 58-45 80l-19 18c-18 15-31 35-40 57a133 133 0 0 1 27-40l25-23a145 145 0 0 0 33-49c7-17 14-34 25-49 15-17 37-15 58-10 15 3 30 9 45 15a9 9 0 0 1-4-5 114 114 0 0 0 48-11c3-2 5-3 6-6a11 11 0 0 0 1-5 55 55 0 0 0-5-18c-4-6-8-14-5-20l40 37 13 11a87 87 0 0 0 16 10c1-5-1-10-2-15a271 271 0 0 1-8-27c-1-4-8-22-5-25 8-10 21 25 22 29l2 10c2 8 6 14 10 21l9 17a34 34 0 0 1 2 8c2 7-1 14 0 20-15 2-29-2-43-4l-41-6-3-1c28 10 58 18 88 12 17 53 20 104 15 160l2 13c1 5 8 13 11 18 6 9 6 26 6 37-1 8-2 14 3 21 6 7 15 5 25 4s20-4 29 0a22 22 0 0 0-4-19 10 10 0 0 1-5-2l-6-7-5-2c-2-2-6-2-7-4-5-8-7-19-10-28-4-14-2-29-1-44 2-29 3-58 0-86-1-12-3-24-1-36 1-7 3-13 3-20 1-3 0-7 2-10l6-8a99 99 0 0 0 19-26l2-6a47 47 0 0 1 2-10v5l9-20a27 27 0 0 1 1 4v-2c4-8 10-34 10-51s1-30-2-47c-3-25-1-50-2-75l-3 27zm-62 275l-3 30-2 53c0-10-3-21-5-31-2-18-3-37-6-55l-5-28-6-25c6 1 14 10 18 14 5 5 10 9 12 15 3 9-1 18-3 27zm7-82a4 4 0 0 1-2 1 56 56 0 0 1-18 4 9 9 0 0 1-5-1c-2-1-2-3-3-5l-10-23c-2-8-6-17-6-25 6 1 13 10 15 15l5 8 11 10a101 101 0 0 1 11 12l2 4z" fill="url(#linear-gradient)"/><path class="cls-3" d="M792 659c3 10 8 19 16 25-16-13-15-46-16-66l-1-37-1 50c0 9 0 19 2 28zM926 174a3 3 0 0 1 0 1 6 6 0 0 0-1-2h1v1zM330 680c-1 5-3 11 0 16a12 12 0 0 0 3 4c-4-5-4-13-3-20zM817 31h-1 1zM706 244a26 26 0 0 0-4 1l-2 2 6-3zM745 496c-4-4-12-13-18-14l6 25 5 28 7 55c1 10 4 21 4 31l2-53c0-10 1-21 3-31 2-8 6-17 3-26-2-6-7-10-12-15z"/><path class="cls-5" d="M745 496c-4-4-12-13-18-14l6 25 5 28 7 55c1 10 4 21 4 31l2-53c0-10 1-21 3-31 2-8 6-17 3-26-2-6-7-10-12-15z"/><path class="cls-3" d="M748 440l-11-10-5-8c-2-5-9-14-15-15 0 8 4 17 6 25l10 23c1 2 1 4 3 5a9 9 0 0 0 5 1 56 56 0 0 0 18-4 4 4 0 0 0 2-1l-2-4a101 101 0 0 0-11-12z"/><path class="cls-5" d="M748 440l-11-10-5-8c-2-5-9-14-15-15 0 8 4 17 6 25l10 23c1 2 1 4 3 5a9 9 0 0 0 5 1 56 56 0 0 0 18-4 4 4 0 0 0 2-1l-2-4a101 101 0 0 0-11-12z"/><path class="cls-6" d="M576 445a31 31 0 0 0 4 2c16 7 32 14 49 18l-5-1-48-19z"/><path class="cls-3" d="M673 472c14 2 28 6 43 4-1-6 2-13 0-20a34 34 0 0 0-2-8l-9-17c-4-7-8-13-10-21l-2-10c-1-4-14-39-22-29-3 3 4 20 5 25a271 271 0 0 0 8 27c1 5 3 10 2 15a87 87 0 0 1-16-10l-13-11-39-37c-4 6 1 14 4 20a55 55 0 0 1 5 18 11 11 0 0 1-1 5c-1 3-3 4-6 6a114 114 0 0 1-48 11 9 9 0 0 0 4 5l48 19 5 1 3 1 41 6z"/><path class="cls-6" d="M673 472c14 2 28 6 43 4-1-6 2-13 0-20a34 34 0 0 0-2-8l-9-17c-4-7-8-13-10-21l-2-10c-1-4-14-39-22-29-3 3 4 20 5 25a271 271 0 0 0 8 27c1 5 3 10 2 15a87 87 0 0 1-16-10l-13-11-39-37c-4 6 1 14 4 20a55 55 0 0 1 5 18 11 11 0 0 1-1 5c-1 3-3 4-6 6a114 114 0 0 1-48 11 9 9 0 0 0 4 5l48 19 5 1 3 1 41 6z"/><path class="cls-3" d="M460 351c5-5 13-1 19 3l5 4c9-1 18-1 26-4a4 4 0 0 0 2-2 4 4 0 0 0 0-3l-4-14-2-6c-3-2-8-2-11 0l-21 6c-12 3-24 7-35 14a53 53 0 0 0-10 11 31 31 0 0 0-7 7 141 141 0 0 0-22 45c6-9 11-18 19-25 9-10 21-16 34-21l3-8c1-3 2-6 4-7z"/><path class="cls-7" d="M460 351c5-5 13-1 19 3l5 4c9-1 18-1 26-4a4 4 0 0 0 2-2 4 4 0 0 0 0-3l-4-14-2-6c-3-2-8-2-11 0l-21 6c-12 3-24 7-35 14a53 53 0 0 0-10 11 31 31 0 0 0-7 7 141 141 0 0 0-22 45c6-9 11-18 19-25 9-10 21-16 34-21l3-8c1-3 2-6 4-7z"/><path class="cls-3" d="M447 433a145 145 0 0 0 18-45c0-3 2-7 5-7a7 7 0 0 1 3 1c21 14 40 33 64 35-17-2-33 3-49 9h-1 3c23-5 46-4 69-3-21-25-48-46-75-65h-5a106 106 0 0 0-21 6l-5 2a377 377 0 0 1-16 37c-11 20-23 42-19 64a115 115 0 0 1 19-21l2-7z"/><path class="cls-6" d="M447 433a145 145 0 0 0 18-45c0-3 2-7 5-7a7 7 0 0 1 3 1c21 14 40 33 64 35-17-2-33 3-49 9h-1 3c23-5 46-4 69-3-21-25-48-46-75-65h-5a106 106 0 0 0-21 6l-5 2a377 377 0 0 1-16 37c-11 20-23 42-19 64a115 115 0 0 1 19-21l2-7z"/><path class="cls-3" d="M430 457l5-5v-2z"/><path class="cls-6" d="M430 457l5-5v-2z"/><path class="cls-3" d="M479 358h5l-5-4c-6-4-14-8-19-3-2 1-3 4-4 7l-3 8 5-2a106 106 0 0 1 21-6z"/><path class="cls-5" d="M479 358h5l-5-4c-6-4-14-8-19-3-2 1-3 4-4 7l-3 8 5-2a106 106 0 0 1 21-6z"/><path class="cls-7" d="M479 358h5l-5-4c-6-4-14-8-19-3-2 1-3 4-4 7l-3 8 5-2a106 106 0 0 1 21-6z"/><path class="cls-3" d="M480 429l7-3-10 3a26 26 0 0 1 3 0z"/><path class="cls-8" d="M480 429l7-3-10 3a26 26 0 0 1 3 0z"/><path class="cls-3" d="M466 433a99 99 0 0 0-31 19l-3 8a28 28 0 0 0 7-3 146 146 0 0 1 14-15 64 64 0 0 1 13-9z"/><path class="cls-8" d="M466 433a99 99 0 0 0-31 19l-3 8a28 28 0 0 0 7-3 146 146 0 0 1 14-15 64 64 0 0 1 13-9z"/><path class="cls-3" d="M443 441l-6 5-2 4z"/><path class="cls-8" d="M443 441l-6 5-2 4z"/><path class="cls-3" d="M466 433a35 35 0 0 1 11-4l10-3h1c16-6 32-11 49-9-24-2-43-21-64-35a7 7 0 0 0-3-1c-3 0-5 4-5 7a145 145 0 0 1-18 45l-8 6-2 7 6-5-8 9v2a99 99 0 0 1 31-19z"/><path class="cls-6" d="M466 433a35 35 0 0 1 11-4l10-3h1c16-6 32-11 49-9-24-2-43-21-64-35a7 7 0 0 0-3-1c-3 0-5 4-5 7a145 145 0 0 1-18 45l-8 6-2 7 6-5-8 9v2a99 99 0 0 1 31-19z"/><path class="cls-8" d="M466 433a35 35 0 0 1 11-4l10-3h1c16-6 32-11 49-9-24-2-43-21-64-35a7 7 0 0 0-3-1c-3 0-5 4-5 7a145 145 0 0 1-18 45l-8 6-2 7 6-5-8 9v2a99 99 0 0 1 31-19z"/><path class="cls-9" d="M345 479c-6 17-15 33-20 50a204 204 0 0 0 22-54l-2 4z"/><path class="cls-3" d="M345 500c1-9 1-19 3-28l-1 3a204 204 0 0 1-22 54l-2 4a110 110 0 0 0 22-33z"/><path class="cls-9" d="M345 500c1-9 1-19 3-28l-1 3a204 204 0 0 1-22 54l-2 4a110 110 0 0 0 22-33z"/><path class="cls-3" d="M354 447v-3l-1 4 1-1z"/><path class="cls-9" d="M354 447v-3l-1 4 1-1z"/><path class="cls-3" d="M368 360c-13 13-13 53-14 71v13l3-18c4-22 9-44 11-66z"/><path class="cls-9" d="M368 360c-13 13-13 53-14 71v13l3-18c4-22 9-44 11-66z"/><path class="cls-6" d="M348 468l1-6-1 6z"/><path class="cls-3" d="M353 469a109 109 0 0 1-8 31c-2 14-5 27-14 39l-24 26c-14 19-14 44-9 66l10-30c3-12 7-24 16-33 6-7 14-11 21-16a122 122 0 0 0 46-59c-2 4-26-20-27-22-5-8-6-16-10-24a193 193 0 0 1-1 22z"/><path class="cls-3" d="M353 448a74 74 0 0 0-4 14 183 183 0 0 1-1 10 215 215 0 0 0 5-24z"/><path class="cls-6" d="M353 448a74 74 0 0 0-4 14 183 183 0 0 1-1 10 215 215 0 0 0 5-24z"/><path class="cls-3" d="M345 500a109 109 0 0 0 8-31 193 193 0 0 0 1-22l-1 1a215 215 0 0 1-5 24c-2 9-2 19-3 28z"/><path class="cls-9" d="M345 500a109 109 0 0 0 8-31 193 193 0 0 0 1-22l-1 1a215 215 0 0 1-5 24c-2 9-2 19-3 28z"/><path class="cls-6" d="M345 500a109 109 0 0 0 8-31 193 193 0 0 0 1-22l-1 1a215 215 0 0 1-5 24c-2 9-2 19-3 28z"/><path class="cls-5" d="M290 735l11-2 5-1-21 2a14 14 0 0 0 5 1zM273 714a86 86 0 0 1-2-9c-1 2 0 6 2 9z"/><path class="cls-3" d="M331 732a39 39 0 0 0-17-22 10 10 0 0 0-4-2c-4-1-7 3-10 5-5 2-10 1-14-1s-8-8-11-8a4 4 0 0 0-4 1 86 86 0 0 0 2 9l5 9 2 7a9 9 0 0 0 5 4l21-2h25z"/><path d="M331 732a39 39 0 0 0-17-22 10 10 0 0 0-4-2c-4-1-7 3-10 5-5 2-10 1-14-1s-8-8-11-8a4 4 0 0 0-4 1 86 86 0 0 0 2 9l5 9 2 7a9 9 0 0 0 5 4l21-2h25z" fill="#ddc5b5"/><path class="cls-12" d="M333 700a12 12 0 0 0 3 3c4 2 9 2 13 2h37v-1h-33c-7 1-15 0-20-4zM363 601a138 138 0 0 0-8 24 187 187 0 0 1 8-24zM365 681a40 40 0 0 1 20 18c-3-9-12-16-21-20l-10-5a10 10 0 0 0 1 2c3 3 6 3 10 5zM324 603l2 7a185 185 0 0 1 4 66v4a143 143 0 0 0-6-77z"/><path class="cls-3" d="M422 526c21-22 28-54 45-80 5-7 11-14 19-17a23 23 0 0 0-6 0c-8 3-15 6-22 11s-12 12-19 17c-21 24-35 54-55 80a191 191 0 0 1-26 26l-25 20c-3 4-8 8-9 13a13 13 0 0 0 0 7 143 143 0 0 1 6 77c-1 7-1 14 3 20 5 4 13 4 20 4h33a19 19 0 0 0-1-5 40 40 0 0 0-20-18l-10-5a10 10 0 0 1-1-2 12 12 0 0 1-3-3c-2-4-2-9-2-13a197 197 0 0 1 6-33 138 138 0 0 1 8-24c9-22 22-42 40-57l19-18z"/><path class="cls-12" d="M422 526c21-22 28-54 45-80 5-7 11-14 19-17a23 23 0 0 0-6 0c-8 3-15 6-22 11s-12 12-19 17c-21 24-35 54-55 80a191 191 0 0 1-26 26l-25 20c-3 4-8 8-9 13a13 13 0 0 0 0 7 143 143 0 0 1 6 77c-1 7-1 14 3 20 5 4 13 4 20 4h33a19 19 0 0 0-1-5 40 40 0 0 0-20-18l-10-5a10 10 0 0 1-1-2 12 12 0 0 1-3-3c-2-4-2-9-2-13a197 197 0 0 1 6-33 138 138 0 0 1 8-24c9-22 22-42 40-57l19-18z"/><path class="cls-3" d="M480 429a26 26 0 0 0-3 0l-11 4a64 64 0 0 0-13 9 146 146 0 0 0-14 15l19-17c7-6 14-8 22-11z"/><path class="cls-8" d="M480 429a26 26 0 0 0-3 0l-11 4a64 64 0 0 0-13 9 146 146 0 0 0-14 15l19-17c7-6 14-8 22-11z"/><path class="cls-12" d="M480 429a26 26 0 0 0-3 0l-11 4a64 64 0 0 0-13 9 146 146 0 0 0-14 15l19-17c7-6 14-8 22-11z"/><path class="cls-3" d="M477 429a35 35 0 0 0-11 4l11-4z"/><path class="cls-6" d="M477 429a35 35 0 0 0-11 4l11-4z"/><path class="cls-8" d="M477 429a35 35 0 0 0-11 4l11-4z"/><path class="cls-12" d="M477 429a35 35 0 0 0-11 4l11-4zM791 581v-38-7 45zM836 712h-7c3 1 5 2 7 0zM804 711a22 22 0 0 0 6 0l-7-1 1 1zM808 684zM797 487l2-23c3-15 15-37 14-53 0 18-11 38-14 52-2 7-2 15-2 24z"/><path class="cls-3" d="M803 427l-1 17-4 16c-9 39-5 81-11 121l-12-30a39 39 0 0 1-2-8 42 42 0 0 1 0-11 332 332 0 0 0 1-45 34 34 0 0 1 1-7c1-6 5-11 10-14l9-8c6-7 6-17 7-26l-2 6a99 99 0 0 1-19 26l-6 8-2 10c0 7-2 13-3 20-2 12 0 24 1 36 3 28 2 57 0 86-1 15-3 30 1 44 3 9 5 20 10 28 1 2 5 2 7 4l5 2 6 7a10 10 0 0 0 5 2l-1-1 7 1h15l4 1h7a4 4 0 0 0 1 0c1-3 0-6-1-8a36 36 0 0 0-11-12c-4-3-11-4-15-6l-2-2c-8-6-13-15-16-25-2-9-2-19-2-28l1-50v-41-4a108 108 0 0 1 1-11l4-19a177 177 0 0 0 1-19c0-9 0-17 2-24 3-14 14-34 14-52a27 27 0 0 0-1-4l-9 20z"/><path class="cls-12" d="M803 427l-1 17-4 16c-9 39-5 81-11 121l-12-30a39 39 0 0 1-2-8 42 42 0 0 1 0-11 332 332 0 0 0 1-45 34 34 0 0 1 1-7c1-6 5-11 10-14l9-8c6-7 6-17 7-26l-2 6a99 99 0 0 1-19 26l-6 8-2 10c0 7-2 13-3 20-2 12 0 24 1 36 3 28 2 57 0 86-1 15-3 30 1 44 3 9 5 20 10 28 1 2 5 2 7 4l5 2 6 7a10 10 0 0 0 5 2l-1-1 7 1h15l4 1h7a4 4 0 0 0 1 0c1-3 0-6-1-8a36 36 0 0 0-11-12c-4-3-11-4-15-6l-2-2c-8-6-13-15-16-25-2-9-2-19-2-28l1-50v-41-4a108 108 0 0 1 1-11l4-19a177 177 0 0 0 1-19c0-9 0-17 2-24 3-14 14-34 14-52a27 27 0 0 0-1-4l-9 20z"/><path d="M862 112a83 83 0 0 0-10-7l-21-14c7 7 21 13 31 21z" fill="url(#linear-gradient-2)"/><path d="M837 203a103 103 0 0 0-6-8 19 19 0 0 0-2 2 14 14 0 0 1 1 1l6 6 3 3-2-3z" fill="url(#linear-gradient-3)"/><path d="M882 146l3 2c-3-2-6-5-8-9l-3-9-1-3c3 8 3 17 9 19z" fill="url(#linear-gradient-4)"/><path d="M856 221a55 55 0 0 1-10-5c3 3 8 5 12 6h-1z" fill="url(#linear-gradient-5)"/><path d="M814 36l1-3v-1c-1 2-3 3-3 5a19 19 0 0 1-1 6l2-3 1-4z" fill="url(#linear-gradient-6)"/><path d="M816 32v-1 1z" fill="url(#linear-gradient-7)"/><path d="M820 33a5 5 0 0 0-3-2l1 1a6 6 0 0 1 2 1z" fill="url(#linear-gradient-8)"/><path d="M816 32h-1z" fill="url(#linear-gradient-9)"/><path class="cls-3" d="M814 36l-1 4 1-1v-3z"/><path d="M814 36l-1 4 1-1v-3z" fill="url(#linear-gradient-10)"/><path class="cls-3" d="M779 127v2a16 16 0 0 1-1-3 53 53 0 0 0 2 9l2 5-2-7a37 37 0 0 1-1-6z"/><path d="M779 127v2a16 16 0 0 1-1-3 53 53 0 0 0 2 9l2 5-2-7a37 37 0 0 1-1-6z" fill="url(#linear-gradient-11)"/><path class="cls-3" d="M790 94v-1a14 14 0 0 0 0 1z"/><path d="M790 94v-1a14 14 0 0 0 0 1z" fill="url(#linear-gradient-12)"/><path class="cls-3" d="M782 142a437 437 0 0 0 1 0 2 2 0 0 1-1 0z"/><path d="M782 142a437 437 0 0 0 1 0 2 2 0 0 1-1 0z" fill="url(#linear-gradient-13)"/><path class="cls-3" d="M822 53v27c0 5 1 6 3 10l3 7c1 2-1 5-2 8-2 5-4 11-7 15s-9 9-14 10c1 3 0 5-2 7s-7 31-10 31h-1a35 35 0 0 0 4 9c2 4 6 7 9 9a17 17 0 0 1 3 1l17 5a4 4 0 0 1-1-2 11 11 0 0 0-1 0 15 15 0 0 1 1-1 2 2 0 0 1 1-1 4 4 0 0 1 2-1l9-3c7-4 11-11 13-18 1-6-2-11-3-16l-2-2v-2l-3-5a5 5 0 0 1-1-2 6 6 0 0 1 1-3c1-4 6-8 10-11l3-3a5 5 0 0 1 2-1 4 4 0 0 1 4 0v1c2 0 4 1 5 5h1a17 17 0 0 1 1 2h-1a13 13 0 0 1 1 1c2 6 3 12 9 17a29 29 0 0 0 12 6l8 2a3 3 0 0 1 1 0l-7-4-5-3-3-2c-6-2-6-11-9-19a41 41 0 0 0-11-15c-10-8-24-14-31-21a63 63 0 0 1-6-6l-3-32zm7 105a12 12 0 0 1 2 6 7 7 0 0 1-5-6c-1-1 0-2 1-2a3 3 0 0 1 2 2z"/><path d="M822 53v27c0 5 1 6 3 10l3 7c1 2-1 5-2 8-2 5-4 11-7 15s-9 9-14 10c1 3 0 5-2 7s-7 31-10 31h-1a35 35 0 0 0 4 9c2 4 6 7 9 9a17 17 0 0 1 3 1l17 5a4 4 0 0 1-1-2 11 11 0 0 0-1 0 15 15 0 0 1 1-1 2 2 0 0 1 1-1 4 4 0 0 1 2-1l9-3c7-4 11-11 13-18 1-6-2-11-3-16l-2-2v-2l-3-5a5 5 0 0 1-1-2 6 6 0 0 1 1-3c1-4 6-8 10-11l3-3a5 5 0 0 1 2-1 4 4 0 0 1 4 0v1c2 0 4 1 5 5h1a17 17 0 0 1 1 2h-1a13 13 0 0 1 1 1c2 6 3 12 9 17a29 29 0 0 0 12 6l8 2a3 3 0 0 1 1 0l-7-4-5-3-3-2c-6-2-6-11-9-19a41 41 0 0 0-11-15c-10-8-24-14-31-21a63 63 0 0 1-6-6l-3-32zm7 105a12 12 0 0 1 2 6 7 7 0 0 1-5-6c-1-1 0-2 1-2a3 3 0 0 1 2 2z" fill="url(#linear-gradient-14)"/><path class="cls-3" d="M818 32l-1-1-1 1a3 3 0 0 1 2 0z"/><path d="M818 32l-1-1-1 1a3 3 0 0 1 2 0z" fill="url(#linear-gradient-15)"/><path class="cls-3" d="M816 59l1-3-1 3z"/><path d="M816 59l1-3-1 3z" fill="url(#linear-gradient-16)"/><path class="cls-3" d="M922 186v0z"/><path d="M922 186v0z" fill="url(#linear-gradient-17)"/><path class="cls-3" d="M857 222h1l2 1z"/><path d="M857 222h1l2 1z" fill="url(#linear-gradient-18)"/><path d="M815 32z" fill="url(#linear-gradient-19)"/><path d="M822 43l-1-9a7 7 0 0 0-1-1 12 12 0 0 1 1 6 36 36 0 0 1 1 4z" fill="url(#linear-gradient-20)"/><path class="cls-3" d="M821 45l1 8V43a36 36 0 0 0-1-4v6z"/><path d="M821 45l1 8V43a36 36 0 0 0-1-4v6z" fill="url(#linear-gradient-21)"/><path d="M818 32a26 26 0 0 1 3 7 12 12 0 0 0-1-6 6 6 0 0 0-2-1z" fill="url(#linear-gradient-22)"/><path d="M818 32a26 26 0 0 1 3 7 12 12 0 0 0-1-6 6 6 0 0 0-2-1z" fill="url(#linear-gradient-23)"/><path d="M816 32z" fill="url(#linear-gradient-24)"/><path d="M816 32z" fill="url(#linear-gradient-25)"/><path d="M815 32v0z" fill="url(#linear-gradient-26)"/><path d="M815 32v0z" fill="url(#linear-gradient-27)"/><path class="cls-3" d="M805 130c5-1 11-6 14-10l7-15 2-8c0-3-2-5-3-7-2-4-3-5-3-10V53l-1-8v-6a26 26 0 0 0-3-7 3 3 0 0 0-2 0 13 13 0 0 1 3 10l-2 10a32 32 0 0 0 0 4l-1 3 1 15c0 5-3 8-6 13a36 36 0 0 0-5 20c1 7 2 15-1 22h-1 1a7 7 0 0 1 0 1z"/><path d="M805 130c5-1 11-6 14-10l7-15 2-8c0-3-2-5-3-7-2-4-3-5-3-10V53l-1-8v-6a26 26 0 0 0-3-7 3 3 0 0 0-2 0 13 13 0 0 1 3 10l-2 10a32 32 0 0 0 0 4l-1 3 1 15c0 5-3 8-6 13a36 36 0 0 0-5 20c1 7 2 15-1 22h-1 1a7 7 0 0 1 0 1z" fill="url(#linear-gradient-28)"/><path d="M805 130c5-1 11-6 14-10l7-15 2-8c0-3-2-5-3-7-2-4-3-5-3-10V53l-1-8v-6a26 26 0 0 0-3-7 3 3 0 0 0-2 0 13 13 0 0 1 3 10l-2 10a32 32 0 0 0 0 4l-1 3 1 15c0 5-3 8-6 13a36 36 0 0 0-5 20c1 7 2 15-1 22h-1 1a7 7 0 0 1 0 1z" fill="url(#linear-gradient-29)"/><path class="cls-41" d="M926 173h-1v-1a8 8 0 0 0-1-1 13 13 0 0 1 2 2zM901 157l9 5a10 10 0 0 1 1 0l-7-3-1-1-2-1zM831 195zM857 222l3 1a61 61 0 0 0 13 4 38 38 0 0 0 4 0 25 25 0 0 1-6-2 40 40 0 0 1-10-3l-3-1c-6-3-13-6-17-12a46 46 0 0 1-4-5l2 3a26 26 0 0 0 2 4 20 20 0 0 0 5 5 55 55 0 0 0 10 5zM855 133h-1a6 6 0 0 1 1 0zM824 190a4 4 0 0 0 1 2l4 1a14 14 0 0 0-5-3z"/><path class="cls-41" d="M865 130a41 41 0 0 0-7 1l-3 1a24 24 0 0 0 7-1 3 3 0 0 1 1-1 2 2 0 0 1 2 2 5 5 0 0 1-2 3c-1 1-2 3-4 3a8 8 0 0 1-3-1l-4-1-2-1v-1 1h-1a35 35 0 0 0-1 4c4 5 8 11 9 18a28 28 0 0 1 1 12l1 5c7-5 14-10 21-12 5-1 9-1 12-4l4-3-8-2a29 29 0 0 1-12-6c-6-5-7-11-9-17a17 17 0 0 1-2 0zM866 127l-1-1c-1-3-3-4-5-5a17 17 0 0 1 6 6zM866 129zM825 188a2 2 0 0 0-1 1 22 22 0 0 1 3-2 4 4 0 0 0-2 1zM921 167v0zM923 185a18 18 0 0 0-1 1 18 18 0 0 0 2-2 15 15 0 0 0 1-2v-1l-2 4zM924 171a2 2 0 0 1 0 2 4 4 0 0 1 2 1l-1-1a13 13 0 0 0-1-2z"/><path class="cls-42" d="M865 130l-2-1-5 2a41 41 0 0 1 7-1zM850 134v1-1z"/><path class="cls-5" d="M597 283c-2-1-3 0 0 0zM683 259l17-12a203 203 0 0 0-17 12zM597 283a7 7 0 0 1 2 3c15-1 29-4 43-9-29 8-41 7-45 6z"/><path class="cls-3" d="M624 316c3 3 35 22 35 25a362 362 0 0 1 8-42c2-5 6-12 12-10l15 59c1 5 4 11 8 9 7-26-2-54-4-82l1-10c2-5 5-8 9-11-5-2-7-3-3-9a11 11 0 0 1 1-1l-6 3-17 12a88 88 0 0 1-41 18c-14 5-28 8-43 9a17 17 0 0 1 1 7c0 10 16 18 24 23z"/><path class="cls-5" d="M624 316c3 3 35 22 35 25a362 362 0 0 1 8-42c2-5 6-12 12-10l15 59c1 5 4 11 8 9 7-26-2-54-4-82l1-10c2-5 5-8 9-11-5-2-7-3-3-9a11 11 0 0 1 1-1l-6 3-17 12a88 88 0 0 1-41 18c-14 5-28 8-43 9a17 17 0 0 1 1 7c0 10 16 18 24 23z"/><path class="cls-43" d="M722 232c-4 5-12 7-16 12 4-2 11-4 13-7a21 21 0 0 0 3-5z"/><path class="cls-3" d="M723 240c-3 6-10 10-15 14l7 4 44 20c-3-17-18-31-21-48-2-14 2-28-3-41 0 11-5 32-12 42l-1 1a21 21 0 0 1-3 5c-2 3-9 5-13 7 5-3 11-4 17-4z"/><path class="cls-43" d="M723 240c-3 6-10 10-15 14l7 4 44 20c-3-17-18-31-21-48-2-14 2-28-3-41 0 11-5 32-12 42l-1 1a21 21 0 0 1-3 5c-2 3-9 5-13 7 5-3 11-4 17-4z"/><path class="cls-3" d="M723 240c-6 0-12 1-17 4a11 11 0 0 0-1 1c-4 6-2 7 3 9 5-4 12-8 15-14z"/><path class="cls-5" d="M723 240c-6 0-12 1-17 4a11 11 0 0 0-1 1c-4 6-2 7 3 9 5-4 12-8 15-14z"/><path class="cls-43" d="M723 240c-6 0-12 1-17 4a11 11 0 0 0-1 1c-4 6-2 7 3 9 5-4 12-8 15-14z"/><path class="cls-3" d="M794 190c6 20 9 41 12 61q3 18 4 37c1 6-1 29 2 34-11-15-16-33-22-51-3-11-7-22-14-31-7-10-14-11-13-24a58 58 0 0 0-5 13c-2 11 2 22 5 32l47 129c12-19 12-42 10-63s-7-43-4-64l3-27-1 3c2-6-3-16-6-22l-2-4-15-26-1 3z"/><path class="cls-44" d="M794 190c6 20 9 41 12 61q3 18 4 37c1 6-1 29 2 34-11-15-16-33-22-51-3-11-7-22-14-31-7-10-14-11-13-24a58 58 0 0 0-5 13c-2 11 2 22 5 32l47 129c12-19 12-42 10-63s-7-43-4-64l3-27-1 3c2-6-3-16-6-22l-2-4-15-26-1 3z"/><path class="cls-3" d="M773 206c8 0 10 18 12 24l18 68c1-19-5-37-9-55s-6-36 0-53l-4-11c-17 4-25 20-27 36v1c3-6 7-10 10-10z"/><path class="cls-45" d="M773 206c8 0 10 18 12 24l18 68c1-19-5-37-9-55s-6-36 0-53l-4-11c-17 4-25 20-27 36v1c3-6 7-10 10-10z"/><path class="cls-3" d="M776 240c7 10 11 20 14 31 6 18 11 36 22 51-3-5-1-28-2-34q-1-19-4-37c-3-20-6-41-12-61-6 17-4 35 0 53s10 36 9 55l-18-68c-2-6-4-24-12-24-3 0-7 4-10 10-1 13 6 14 13 24z"/><path class="cls-44" d="M776 240c7 10 11 20 14 31 6 18 11 36 22 51-3-5-1-28-2-34q-1-19-4-37c-3-20-6-41-12-61-6 17-4 35 0 53s10 36 9 55l-18-68c-2-6-4-24-12-24-3 0-7 4-10 10-1 13 6 14 13 24z"/><path class="cls-45" d="M776 240c7 10 11 20 14 31 6 18 11 36 22 51-3-5-1-28-2-34q-1-19-4-37c-3-20-6-41-12-61-6 17-4 35 0 53s10 36 9 55l-18-68c-2-6-4-24-12-24-3 0-7 4-10 10-1 13 6 14 13 24zM819 236l2-21c1-7 3-13 8-18l-2-1c-7 11-9 28-8 40z"/><path class="cls-3" d="M827 196l-11-3c-4-1-7-4-11-7-5 0-4 5-2 10l7 17h1c3 6 6 11 7 17a35 35 0 0 1 1 6c-1-12 1-29 8-40z"/><path class="cls-45" d="M827 196l-11-3c-4-1-7-4-11-7-5 0-4 5-2 10l7 17h1c3 6 6 11 7 17a35 35 0 0 1 1 6c-1-12 1-29 8-40z"/><path d="M830 195a15 15 0 0 0-1-1 27 27 0 0 0-2 2l2 1a19 19 0 0 1 2-2h-1z" fill="url(#linear-gradient-30)"/><path class="cls-45" d="M830 195a15 15 0 0 0-1-1 27 27 0 0 0-2 2l2 1a19 19 0 0 1 2-2h-1z"/><path class="cls-3" d="M808 187a17 17 0 0 0-3-1c4 3 7 6 11 7l11 3a27 27 0 0 1 2-2 13 13 0 0 1-4-2l-17-5z"/><path d="M808 187a17 17 0 0 0-3-1c4 3 7 6 11 7l11 3a27 27 0 0 1 2-2 13 13 0 0 1-4-2l-17-5z" fill="url(#linear-gradient-31)"/><path class="cls-45" d="M808 187a17 17 0 0 0-3-1c4 3 7 6 11 7l11 3a27 27 0 0 1 2-2 13 13 0 0 1-4-2l-17-5z"/><path class="cls-41" d="M829 193l-4-1a13 13 0 0 0 4 2 15 15 0 0 1 1 1h1l-2-2z"/><path class="cls-45" d="M829 193l-4-1a13 13 0 0 0 4 2 15 15 0 0 1 1 1h1l-2-2z"/><path class="cls-3" d="M818 239l1-3a35 35 0 0 0-1-6c-1-6-4-11-7-17h-1l2 4c3 6 8 16 6 22z"/><path class="cls-44" d="M818 239l1-3a35 35 0 0 0-1-6c-1-6-4-11-7-17h-1l2 4c3 6 8 16 6 22z"/><path class="cls-45" d="M818 239l1-3a35 35 0 0 0-1-6c-1-6-4-11-7-17h-1l2 4c3 6 8 16 6 22z"/><path class="cls-3" d="M803 422a47 47 0 0 0-2 10l2-5v-5z"/><path class="cls-5" d="M803 422a47 47 0 0 0-2 10l2-5v-5z"/><path class="cls-3" d="M785 466c-5 3-9 8-10 14a34 34 0 0 0-1 7 332 332 0 0 1-1 45 42 42 0 0 0 0 11 39 39 0 0 0 2 8l12 30c6-40 2-82 11-121l4-16 1-17-2 5c-1 9-1 19-7 26l-9 8z"/><path class="cls-12" d="M785 466c-5 3-9 8-10 14a34 34 0 0 0-1 7 332 332 0 0 1-1 45 42 42 0 0 0 0 11 39 39 0 0 0 2 8l12 30c6-40 2-82 11-121l4-16 1-17-2 5c-1 9-1 19-7 26l-9 8z"/><path class="cls-5" d="M785 466c-5 3-9 8-10 14a34 34 0 0 0-1 7 332 332 0 0 1-1 45 42 42 0 0 0 0 11 39 39 0 0 0 2 8l12 30c6-40 2-82 11-121l4-16 1-17-2 5c-1 9-1 19-7 26l-9 8z"/><path class="cls-48" d="M797 122a43 43 0 0 0-2-5 20 20 0 0 0 1 4 7 7 0 0 0 1 1zM789 97a12 12 0 0 1 1-2v7l5-13 8-18a146 146 0 0 1-9 16 38 38 0 0 0-4 6v1a11 11 0 0 0-1 3zM815 33l-1 3v3l1-2-2 8 3-9-1 28c0 5 0 10-2 15-1 6-5 11-6 17-3 9-1 21-7 29a16 16 0 0 1 4 4h1c3-7 2-15 1-22a36 36 0 0 1 5-20c3-5 6-8 6-13l-1-15 1-3a32 32 0 0 1 0-4l2-10a13 13 0 0 0-3-10l-1 1z"/><path d="M783 102l2-4a34 34 0 0 1 3-9l6-10a272 272 0 0 1 12-26 53 53 0 0 0 5-10 178 178 0 0 0-10 19l-18 37-3 5 2-1a6 6 0 0 0 1-1z" fill="url(#linear-gradient-32)"/><path class="cls-3" d="M788 89a34 34 0 0 0-3 9 526 526 0 0 0 3-9z"/><path d="M788 89a34 34 0 0 0-3 9 526 526 0 0 0 3-9z" fill="url(#linear-gradient-33)"/><path class="cls-3" d="M782 142v-2a6 6 0 0 0 0 2z"/><path d="M782 142v-2a6 6 0 0 0 0 2z" fill="url(#linear-gradient-34)"/><path class="cls-3" d="M785 148c2 7 5 19 7 20l-1-5a113 113 0 0 0-6-15z"/><path d="M785 148c2 7 5 19 7 20l-1-5a113 113 0 0 0-6-15z" fill="url(#linear-gradient-35)"/><path class="cls-3" d="M778 126c-1-6-1-13 2-19l3-5a6 6 0 0 1-1 1l-2 1a48 48 0 0 0-3 10 23 23 0 0 0 1 12z"/><path d="M778 126c-1-6-1-13 2-19l3-5a6 6 0 0 1-1 1l-2 1a48 48 0 0 0-3 10 23 23 0 0 0 1 12z" fill="url(#linear-gradient-36)"/><path d="M785 98l-2 4a8 8 0 0 0 2-4z" fill="url(#linear-gradient-37)"/><path d="M785 98l-2 4a8 8 0 0 0 2-4z" fill="url(#linear-gradient-38)"/><path d="M794 79l19-39-2 3a53 53 0 0 1-5 10 272 272 0 0 0-12 26z" fill="url(#linear-gradient-39)"/><path d="M794 79l19-39-2 3a53 53 0 0 1-5 10 272 272 0 0 0-12 26z" fill="url(#linear-gradient-40)"/><path class="cls-3" d="M803 137c2-2 3-4 2-7l-1 1a9 9 0 0 1 0-2 6 6 0 0 1-5-3v1l-1-1v-1c-2-2-2-5-3-8-2-4-5-7-6-11s-1-8 1-12a14 14 0 0 1 0-1l2-5 16-35 6-14-1 1a523 523 0 0 1-28 58 8 8 0 0 1-2 4l-3 5c-3 6-3 13-2 19a16 16 0 0 0 1 3v-2a37 37 0 0 0 1 6l2 7v2a2 2 0 0 0 1 0l2 6a113 113 0 0 1 6 15l1 5h1c3 0 7-29 10-31z"/><path d="M803 137c2-2 3-4 2-7l-1 1a9 9 0 0 1 0-2 6 6 0 0 1-5-3v1l-1-1v-1c-2-2-2-5-3-8-2-4-5-7-6-11s-1-8 1-12a14 14 0 0 1 0-1l2-5 16-35 6-14-1 1a523 523 0 0 1-28 58 8 8 0 0 1-2 4l-3 5c-3 6-3 13-2 19a16 16 0 0 0 1 3v-2a37 37 0 0 0 1 6l2 7v2a2 2 0 0 0 1 0l2 6a113 113 0 0 1 6 15l1 5h1c3 0 7-29 10-31z" fill="url(#linear-gradient-41)"/><path d="M803 137c2-2 3-4 2-7l-1 1a9 9 0 0 1 0-2 6 6 0 0 1-5-3v1l-1-1v-1c-2-2-2-5-3-8-2-4-5-7-6-11s-1-8 1-12a14 14 0 0 1 0-1l2-5 16-35 6-14-1 1a523 523 0 0 1-28 58 8 8 0 0 1-2 4l-3 5c-3 6-3 13-2 19a16 16 0 0 0 1 3v-2a37 37 0 0 0 1 6l2 7v2a2 2 0 0 0 1 0l2 6a113 113 0 0 1 6 15l1 5h1c3 0 7-29 10-31z" fill="url(#linear-gradient-42)"/><path class="cls-3" d="M804 131l1-1a7 7 0 0 0 0-1h-1a9 9 0 0 0 0 2z"/><path d="M804 131l1-1a7 7 0 0 0 0-1h-1a9 9 0 0 0 0 2z" fill="url(#linear-gradient-43)"/><path d="M804 131l1-1a7 7 0 0 0 0-1h-1a9 9 0 0 0 0 2z" fill="url(#linear-gradient-44)"/><path d="M804 131l1-1a7 7 0 0 0 0-1h-1a9 9 0 0 0 0 2z" fill="url(#linear-gradient-45)"/><path class="cls-48" d="M796 121a20 20 0 0 1-1-4l-3-6c-2-4-4-9-3-14a11 11 0 0 1 1-3c-2 4-2 8-1 12s4 7 6 11c1 3 1 6 3 8v1a23 23 0 0 0-1-4 7 7 0 0 1-1-1z"/><path d="M796 121a20 20 0 0 1-1-4l-3-6c-2-4-4-9-3-14a11 11 0 0 1 1-3c-2 4-2 8-1 12s4 7 6 11c1 3 1 6 3 8v1a23 23 0 0 0-1-4 7 7 0 0 1-1-1z" fill="url(#linear-gradient-46)"/><path class="cls-48" d="M790 102v-1z"/><path d="M790 102v-1z" fill="url(#linear-gradient-47)"/><path class="cls-48" d="M804 129a16 16 0 0 0-4-4 16 16 0 0 1-1 1 6 6 0 0 0 5 3z"/><path d="M804 129a16 16 0 0 0-4-4 16 16 0 0 1-1 1 6 6 0 0 0 5 3z" fill="url(#linear-gradient-48)"/><path class="cls-48" d="M792 88l-2 5a38 38 0 0 1 4-6 146 146 0 0 0 9-16l10-26 2-8-1 2-6 14z"/><path d="M792 88l-2 5a38 38 0 0 1 4-6 146 146 0 0 0 9-16l10-26 2-8-1 2-6 14z" fill="url(#linear-gradient-49)"/><path class="cls-41" d="M841 140l3 6v2l-3-7v-1zM916 201a47 47 0 0 1-4 11 31 31 0 0 0 3-5 38 38 0 0 0 5-16l-4 10zM901 157l-2-1a9 9 0 0 0-2-1 3 3 0 0 0-1 0l-4 3c-3 3-7 3-12 4-7 2-14 7-21 12a79 79 0 0 1 2 13v1l4-4c3-2 5-5 9-6 5-2 11 0 16-2 8-2 9-9 15-13a7 7 0 0 1 5-1zM838 205l-1-2v1a46 46 0 0 0 4 5c4 6 11 9 17 11-7-3-15-8-20-15zM910 182v-1a27 27 0 0 1 0-3 6 6 0 0 0 0 4zM857 157c-1-7-5-13-9-18a35 35 0 0 0-2 8 63 63 0 0 1 12 22 28 28 0 0 0-1-12zM866 129h1a17 17 0 0 0-1-2 17 17 0 0 0-6-5v-1a4 4 0 0 0-4 0 5 5 0 0 0-2 1l-3 3c6-2 12-2 15 4zM856 129a7 7 0 0 0-7 4v1a13 13 0 0 1 7-5zM849 134v0zM849 135h1v-1z"/><path class="cls-67" d="M923 169zM924 170a9 9 0 0 1 0 1 3 3 0 0 0 0-1h-1z"/><path class="cls-41" d="M924 170h-1c-3 0-7 0-10 2a9 9 0 0 0-3 6 27 27 0 0 0 0 3 14 14 0 0 1 12-8 8 8 0 0 1 2 0 2 2 0 0 0 0-2 9 9 0 0 0 0-1z"/><path class="cls-67" d="M924 170h-1c-3 0-7 0-10 2a9 9 0 0 0-3 6 27 27 0 0 0 0 3 14 14 0 0 1 12-8 8 8 0 0 1 2 0 2 2 0 0 0 0-2 9 9 0 0 0 0-1z"/><path class="cls-41" d="M855 132l3-1-3 1z"/><path class="cls-67" d="M855 132l3-1-3 1z"/><path class="cls-41" d="M854 133z"/><path class="cls-67" d="M854 133z"/><path class="cls-42" d="M851 134h-1a1 1 0 0 1 1 0z"/><path class="cls-67" d="M851 134h-1a1 1 0 0 1 1 0z"/><path class="cls-42" d="M854 133h-1a6 6 0 0 1 1 0z"/><path class="cls-67" d="M854 133h-1a6 6 0 0 1 1 0z"/><path class="cls-42" d="M855 132l3-1 5-2h-1a39 39 0 0 0-9 3h2z"/><path class="cls-67" d="M855 132l3-1 5-2h-1a39 39 0 0 0-9 3h2z"/><path class="cls-41" d="M849 135l1-1h1a2 2 0 0 1 0-1 6 6 0 0 1 2 0 39 39 0 0 1 9-4 27 27 0 0 0-6 0 13 13 0 0 0-7 5v1z"/><path class="cls-67" d="M849 135l1-1h1a2 2 0 0 1 0-1 6 6 0 0 1 2 0 39 39 0 0 1 9-4 27 27 0 0 0-6 0 13 13 0 0 0-7 5v1z"/><path class="cls-41" d="M826 158a7 7 0 0 0 5 6 12 12 0 0 0-2-6 3 3 0 0 0-2-2c-1 0-2 1-1 2z"/><path class="cls-1" d="M853 132l1 1h1a6 6 0 0 0-1 0 6 6 0 0 0-1 0 6 6 0 0 0-2 0 2 2 0 0 0 0 1 1 1 0 0 0-1 0l2 2 4 1a8 8 0 0 0 3 1c2 0 3-2 5-3a5 5 0 0 0 1-3 2 2 0 0 0-1-2 3 3 0 0 0-2 1 24 24 0 0 1-6 1h-3z"/><path class="cls-68" d="M845 145l1 2a35 35 0 0 1 2-8 35 35 0 0 1 1-4v-1-1a7 7 0 0 1 7-4 27 27 0 0 1 6 0h1l2 1a17 17 0 0 0 2 0 13 13 0 0 0-1-1c-3-6-9-6-15-4-4 3-9 7-10 11a6 6 0 0 0-1 3 5 5 0 0 0 1 1v1l3 7 2 2a14 14 0 0 1-1-5z"/><path class="cls-68" d="M859 174l-1-5a63 63 0 0 0-12-22l-1-2a14 14 0 0 0 1 5c1 5 4 10 3 16-2 7-6 14-13 18l-9 3a22 22 0 0 0-3 2 15 15 0 0 0-1 1 11 11 0 0 1 1 0 14 14 0 0 1 5 3l2 2a103 103 0 0 1 6 8l1 2c5 7 13 12 20 15l3 2a40 40 0 0 0 10 3 17 17 0 0 1-3-2c-5-4-7-10-10-16-1-3-2-6-1-10l4-9v-1a79 79 0 0 0-2-13z"/><path class="cls-68" d="M926 175a3 3 0 0 0 0-1 4 4 0 0 0-2-1 8 8 0 0 0-2 0 14 14 0 0 0-12 8v1a6 6 0 0 1 0-3 9 9 0 0 1 4-7c2-2 6-2 10-2l-1-1-2-1v-1l-10-5a10 10 0 0 0-1 0 7 7 0 0 0-4 1c-7 4-8 11-16 14-5 1-11-1-16 1l-9 6-4 4c-2 3-4 6-4 9l1 11c3 5 5 12 10 15a17 17 0 0 0 3 2 25 25 0 0 0 7 2 37 37 0 0 0 4 1 36 36 0 0 0 12-1c7-2 13-8 18-15a47 47 0 0 0 4-11l4-10a26 26 0 0 1 1-3l1-1a18 18 0 0 1 1-2l2-4a11 11 0 0 0 2-1 5 5 0 0 0-1-5zM795 89l-5 13v-7a12 12 0 0 0-1 2c-1 5 1 10 3 14l3 6a43 43 0 0 1 2 5 23 23 0 0 1 1 4l1 1v-1a16 16 0 0 0 1-1c6-8 4-20 7-29 2-6 5-11 6-17 2-5 2-10 2-15l1-28-3 9-10 26-8 18z"/><path class="cls-69" d="M831 195c-17-3-32-14-38-30v1c5 16 21 29 38 30a1 1 0 1 0 0-1z"/><path class="cls-69" d="M884 226a53 53 0 0 1-31-10c-10-7-16-17-22-26h-1l8 13-13-11v1l13 12a1 1 0 0 0 1 0 60 60 0 0 0 13 13 52 52 0 0 0 32 10 1 1 0 1 0 0-2zM915 190a46 46 0 0 1-8 22c-5 7-11 11-18 15v1c16-5 28-22 29-38 0-2-2-2-3 0z"/><path class="cls-69" d="M921 169l-5-2a1 1 0 1 0-1 1l5 1a1 1 0 0 0 0 1c6 2 6 8 4 12l-6 6a9 9 0 0 1 3-6 1 1 0 0 0 0-1h-1v-1l-1 1a72 72 0 0 0-5 6c-4-2-6-6-4-9 0 0 0-1 0 0-3 3-1 9 3 10l2 1 1-2a9 9 0 0 0 0 3c0 2 2 1 2 0v-1c4-2 8-6 9-11 1-4-2-9-6-9zM888 148a20 20 0 0 1-13-12c-2-5-2-10-5-13h-1c4 5 3 12 6 17a19 19 0 0 0 12 9l1-1z"/><path class="cls-69" d="M917 166l-28-16 27 17c1 1 2 0 1-1zM869 118l-1 1a22 22 0 0 1 5 18l2 1a20 20 0 0 0-6-20zM862 111c-8-7-16-13-26-17-1 0-2 1-1 2 10 4 19 9 26 16l1-1zM834 95l-3-5h-1l4 5z"/><path class="cls-69" d="M832 92a75 75 0 0 0-6-8l-2-19a360 360 0 0 1-2-1l3 20s-1 0 0 0l6 8h1zM817 31l-1 1c4 3 6 6 5 11h1c1-4-1-10-5-12zM815 31a5 5 0 0 0-2 6h1a5 5 0 0 1 1-5v-1zM812 41l-29 57h1l29-57h-1zM783 135a36 36 0 0 1-2-28h-1a34 34 0 0 0 3 29v-1zM792 108c-2-5-5-11-1-15 0 0 0-1 0 0-8 8 3 17 4 26h1c0-4-2-8-4-11zM797 119c0-1 0-1 0 0v8h1l-1-8z"/><path class="cls-69" d="M803 65a1001 1001 0 0 1-12 29 215 215 0 0 0 13-28l-1-1zM814 41zM801 117a64 64 0 0 0-1 8h2a62 62 0 0 0 0-8h-1zM804 114a52 52 0 0 0-1 6 1 1 0 0 0 1 0 52 52 0 0 0 1-6h-1zM808 114l-2-5c0-1-1-1 0 0a231 231 0 0 0 2 5zM810 95a26 26 0 0 0-2 15h1a34 34 0 0 1 2-15h-1zM816 79l-1 4a1 1 0 0 0-1 0 883 883 0 0 0-2 10l3-9h1l1-5h-1zM824 92a12 12 0 0 0-2 11h2a12 12 0 0 1 1-10l-1-1zM822 104a28 28 0 0 1-5 14c-1 1 1 1 1 1a24 24 0 0 0 5-15h-1zM817 120c-4 1-6 5-5 9h2c-1-4 1-6 3-8v-1zM806 129a4 4 0 0 1-3 3l1 1a4 4 0 0 0 3-3l-1-1zM803 135v0zM831 163a3 3 0 0 1-2-3h-1a5 5 0 0 0 0 1 8 8 0 0 1-1-3h-1c-1 2 1 5 3 6a1 1 0 0 0 1 0c1 1 2 0 1-1z"/><path class="cls-69" d="M833 163a1 1 0 1 0 0 1 1 1 0 1 0 0-1zM848 150a86 86 0 0 0-4-10 85 85 0 0 0 3 10h1zM846 157l-1 4h1l1-3-1-1zM866 129a10 10 0 0 0-2 2 1 1 0 0 0-1-1 24 24 0 0 0-16 7h1c5-3 9-5 15-6v1l2-1a9 9 0 0 0 1-1v-1z"/><path class="cls-69" d="M863 128a17 17 0 0 0-13 5 24 24 0 0 1 13-3v-2z"/><path class="cls-69" d="M864 133a9 9 0 0 0 0-2h-1a8 8 0 0 1 0 2l-1 1h-1v-1a1 1 0 0 0-1-1 1 1 0 0 0-1-1 1 1 0 0 0-2 0l-1 1-1 1a1 1 0 0 0 0 1l1 2a1 1 0 0 0 1 0 1 1 0 0 0 1 0 9 9 0 0 0 1 0 3 3 0 0 0-1 0 1 1 0 0 0 0 1 61 61 0 0 0-8-1 48 48 0 0 0 9 2 1 1 0 0 0 1 1v-1a1 1 0 0 0 1 0 8 8 0 0 0 3-4l1-1h-1zM866 128a40 40 0 0 0-2-5h-2a40 40 0 0 0 3 6c0 1 2 0 1-1zM867 126c0-1 0-1 0 0v5h1l-1-5zM870 139v-3l-2 1 1 2h1zM872 146l-1-2a1 1 0 0 0-1 0 1 1 0 0 0 0 1v1a1 1 0 0 0 1 1 1 1 0 0 0 1-1zM913 176a1 1 0 0 0-1 0 3 3 0 0 0-1 0 1 1 0 0 0 0 1 1 1 0 0 0 1 0 3 3 0 0 0 1 0 1 1 0 0 0 0-1zM834 191a8 8 0 0 1-2-5c0-1 0-1 0 0a7 7 0 0 0 2 6v-1zM837 188l-1-2h-1l1 3 1-1zM840 189l-2-3-1 1 3 3v-1zM841 188v-1h-1l1 2v-1zM855 122h-1a10 10 0 0 0 1 2h1a10 10 0 0 0-1-2zM854 122h-1v1l-1 5h1v-3h1v-3zM839 133a8 8 0 0 1-2-12l-1-1a9 9 0 0 0 3 13c0 1 1 0 0 0zM842 135l-2-1 2 1zM843 135v0zM845 137l-1 5h1l1-5h-1zM862 149l-2 1v1l3-1-1-1z"/><path class="cls-69" d="M870 144l-4 3v1l5-4h-1zM858 158l-2-5v1l1 5 1-1zM863 162l-1-4h-1l2 4zM867 159h-1l1 1v-1zM871 159a147 147 0 0 0-2-5l2 5zM875 158l-3-6-1 1h1l2 5h1zM878 157l-1-1c0-1-1 0 0 0l1 1s1 0 0 0zM716 239c-13 4-26 13-36 23h1a106 106 0 0 1 17-13c6-4 12-6 19-9l-1-1zM781 104c-31 21-39 63-49 96l-10 34 1 1 17-58c6-18 11-36 22-51a76 76 0 0 1 21-20c1-1-1-2-2-2zM827 196c-5 3-7 9-7 14l-1 26-1 39-1-14h-2l7 74h1l-4-52 2-43 1-24c0-6 0-14 6-18a1 1 0 1 0-1-2zM823 348h-1c3 30-6 59-26 81l1 1c20-22 30-53 26-82zM768 619v0zM797 704l-14-5a1 1 0 0 0 0-1 119 119 0 0 1-14-58l2-72 1-75 3-21a141 141 0 0 0 15-55 157 157 0 0 1-6 29 213 213 0 0 1-10 27l-4 20h1l-2 75v18c1 20 1 39-1 59a100 100 0 0 0 12 53l1 1a1 1 0 0 0 1 0c5 2 9 5 14 6l1-1zM798 705v1c4 5 5 11 6 18h2c0-7-3-14-8-19zM752 709v-12h-1v24h1v-12zM763 729a22 22 0 0 1-12-6v1a19 19 0 0 0 12 6v-1zM802 729a334 334 0 0 0-37-1v1a334 334 0 0 0 37 1 1 1 0 1 0 0-1zM807 726l-1 4h1l1-4a1 1 0 1 0-1 0zM784 706a93 93 0 0 0-12-3c0-1-1 0 0 0a93 93 0 0 0 12 3c1 0 1 0 0 0z"/><path class="cls-69" d="M795 727l-9-19c0-1-1 0 0 0l8 20c0 1 2 0 1-1zM735 649c-1-1-2 0-2 1 5 6 9 12 12 19a72 72 0 0 1 6 22c-1-15-6-31-16-42zM733 621zM734 549a308 308 0 0 0-13-61h-2a374 374 0 0 1 13 60 432 432 0 0 1 2 1zM718 473a64 64 0 0 1 0-11h-1c-2 7-1 16 2 23h1a85 85 0 0 1-2-12zM718 458a163 163 0 0 0-8-15c-1 0-2 0-1 1l8 14h1zM707 437a71 71 0 0 1-13-37h-2a65 65 0 0 0 14 37h1zM719 407h-1l1 8h1l-1-8zM721 409h-1l1 13h1l-1-13zM723 411h-1v14h1v-14zM725 418c0-1 0-1 0 0v14c0 1 0 1 0 0v-14zM728 419l-2 21h1l1-21zM730 425l-2 24h1l2-24h-1zM735 434l-1 18 1-18zM738 437l-1 24h1l1-24h-1zM742 438a2566 2566 0 0 0 0 23l1-23h-1zM748 442h-1l1 16h1l-1-16zM757 450h-1l1 6h1l-1-6z"/><path class="cls-69" d="M718 477a268 268 0 0 1-113-19c-33-14-65-32-101-33-13-1-26 1-38 6a95 95 0 0 1 31-14c15-4 31-3 45 3 1 0 3-1 1-2-25-11-54-5-76 10a123 123 0 0 0-13 10c-17 14-30 32-41 51l-28 45h1c9-12 16-25 24-37l23-35a155 155 0 0 1 28-28c29-13 63-7 92 4l49 21a273 273 0 0 0 54 16 268 268 0 0 0 62 4v-2zM789 455l-13 14 13-13v-1zM797 443l-4 7 1 1a1395 1395 0 0 0 3-8zM800 436a383 383 0 0 0-1 6l2-5-1-1zM813 405a140 140 0 0 1-18 62c-1 1 0 2 1 1a125 125 0 0 0 18-63h-1z"/><path class="cls-69" d="M799 463h-1a360 360 0 0 1-6 69h1a307 307 0 0 0 6-69zM815 689c-19-7-22-29-22-47l-1-63v-36h-1v101c0 10 1 20 5 28 3 9 10 15 18 18a1 1 0 1 0 1-1z"/><path class="cls-69" d="M838 707c-1-7-7-14-13-18l-1-1h-1l-8-2v1a74 74 0 0 0 9 3 38 38 0 0 1 7 7c3 3 4 7 5 11l-1 2a7 7 0 0 0-1 2h-31v1l32 1a1 1 0 1 0 0-2 22 22 0 0 0 2-4 1 1 0 0 0 1-1zM785 671h-1a6 6 0 0 1-8 8h-1a7 7 0 0 0 10-8zM784 663h-1l1 7h1zM330 591c1-1-1-2-2-1a117 117 0 0 0-22 112h1l-5-29a120 120 0 0 1 28-82zM391 522c-5 12-15 20-24 28l-30 28 1 1 32-30c8-7 19-15 22-27h-1z"/><path class="cls-69" d="M323 707a32 32 0 0 1-16-10l-1 1c4 5 10 9 17 11v-2zM329 722a61 61 0 0 0-6-13h-1a60 60 0 0 0 6 14s2 0 1-1zM315 718a108 108 0 0 0-17-9h-1a108 108 0 0 0 17 10l1-1zM318 729c-1-3-1-7-3-9h-1l2 9h2zM318 735l-1-1-1-1h-39v1l39 1a1 1 0 0 0 0-1l1 2 1-1zM332 732l-13 1v1l13-1a1 1 0 0 0 0-1z"/><path class="cls-69" d="M331 728l-1-7a1 1 0 0 0-1 1l1 6h1zM275 717h-2a106 106 0 0 0 5 15h1a104 104 0 0 0-4-15zM275 715c-5-4-7-11-4-17 1-1-1-2-1-1-4 6-2 16 5 19v-1zM274 599l-1 1a264 264 0 0 1-5 95l2 1a259 259 0 0 0 4-97zM378 331c-16 31-18 66-23 100s-16 66-32 97a272 272 0 0 1-15 24l-14 18c-11 4-20 14-21 26h1c3-10 9-19 18-24l-2 3c-1 1 1 2 2 1 11-12 21-26 29-41a269 269 0 0 0 34-94l7-52a186 186 0 0 1 16-58zM348 518l-50 79v1l50-79v-1zM350 505a102 102 0 0 1-21 31 100 100 0 0 0 22-30l-1-1z"/><path class="cls-69" d="M684 258c-31 19-68 26-104 27-39 2-78-1-117 6-16 3-32 8-47 15a1 1 0 0 0-2-1c-24 4-48 20-60 42l1 1c13-21 33-36 57-40l-6 3 1 1c33-18 71-22 109-23s77 1 115-7c19-4 38-11 55-22a1 1 0 1 0-2-2zM353 360h-1a247 247 0 0 1-14 77l-16 35c-6 9-14 19-24 24-11 6-25 8-37 1-1-1-2 1-1 2 9 5 21 6 31 3 11-4 20-12 27-21 8-10 13-22 18-33a238 238 0 0 0 12-41 245 245 0 0 0 5-47z"/><path class="cls-69" d="M352 434c-5 19-13 36-26 51-12 14-31 28-51 24-10-2-20-8-23-18h-1c5 19 28 24 44 18 20-6 37-24 47-42 6-10 10-21 12-32l-2-1z"/><path class="cls-69" d="M260 495a31 31 0 0 0-3-3 10 10 0 0 0-3-3v1a8 8 0 0 0 2 2 33 33 0 0 0 2 3h2zM327 604c-2-2-2-5-1-8h-1c-3 2-2 7 1 9 1 1 2 0 1-1zM328 606h-1a313 313 0 0 1 3 40 352 352 0 0 1-3 38h2c4-25 3-53-1-78zM332 698c-3-3-4-7-2-12h-1c-2 4-2 10 2 13l1-1zM368 704l-30 1v1h30a1 1 0 1 0 0-2zM377 705l-8-13a1 1 0 0 0 0-2 73 73 0 0 0-9-2 74 74 0 0 0 8 4l7 13h2zM368 682l-1 1c5 1 10 4 14 8s4 9 5 14h2c0-11-10-23-20-23zM385 706a38 38 0 0 0-6 1v1a38 38 0 0 0 7 0 1 1 0 0 0-1-2zM368 681a92 92 0 0 0-14-6 1 1 0 0 0-1 0 18 18 0 0 1 1-9l-1-1a19 19 0 0 0 3 18c0 1 2 0 1-1a21 21 0 0 1-3-5 89 89 0 0 0 14 4s1 0 0 0zM419 532c-33 20-56 54-64 91a125 125 0 0 0-3 33h1c1-20 4-38 11-56a147 147 0 0 1 32-47 153 153 0 0 1 24-19c1-1 0-2-1-2zM467 444a352 352 0 0 1-20 45l-12 20-7 10-15 9h1l13-7-4 6-10 6a1 1 0 1 0 1 1l7-5 1 1 2-3a272 272 0 0 0 5-4l-3 2 5-7 5-8 13-21a287 287 0 0 0 20-45h-2zM503 425c-13-1-25 6-32 17-1 0 0 0 0 0 8-10 20-15 32-16a1 1 0 1 0 0-1zM904 215l-14 7a66 66 0 0 1-15 5v1a51 51 0 0 0 15-4 120 120 0 0 0 15-7c1-1 0-2-1-2z"/><path class="cls-69" d="M920 187h-2a38 38 0 0 1-6 22c-4 7-9 11-16 15l1 1c7-3 13-9 17-15a41 41 0 0 0 6-23zM788 143c-7-1-12-7-13-14h-1c0 7 6 14 14 15v-1zM780 143l-6-2c0-1-1 0 0 0l5 3 1-1zM793 128l-3-7-1 1a409 409 0 0 0 4 6zM802 126zM674 365a76 76 0 0 0-3 8l1 1a74 74 0 0 0 3-8l-1-1zM676 369l-3 10c-1 0 0 0 0 0l4-10h-1zM677 372l-2 11c-1 0 0 0 0 0l2-11c1 0 0 0 0 0zM678 384l-3 10h1l3-10h-1zM683 379a2982 2982 0 0 0-5 25l6-25h-1zM685 386l-5 27c-1 0 0 1 0 0l6-26-1-1zM690 386l-9 33 1 1 9-34h-1zM689 404l-4 28h1l4-28h-1zM692 412l-4 28h1l4-28h-1zM696 420l-4 30h1l4-30h-1zM700 429l-4 25h1l4-25h-1zM704 442l-1 16a1 1 0 0 0 1 0 313 313 0 0 0 0-16zM711 453h-1v7h1v-7zM717 463v1h1v-1h-1zM472 357l-10 10-14 11h1l5-4-11 10a1395 1395 0 0 0 29-27zM471 366l-31 24h1l30-23v-1zM463 376l-27 22 1 1 26-22v-1zM468 380l-28 22h1l28-22h-1zM465 388l-23 18c-1 0 0 0 0 0l23-17v-1zM452 404l-7 7v1l7-7v-1zM461 402l-26 22v1l27-22-1-1zM457 410l-25 22h1l25-21-1-1zM453 421l-23 18h1l22-18c1 0 0-1 0 0zM448 432l-17 14h1l17-14h-1zM446 437l-16 13v1l16-14s0-1 0 0zM443 443l-12 11 1-1h-1l-2 4 14-14zM483 370l-12 8h1l11-7v-1zM484 375l-12 8 1 1 12-9h-1zM492 375l-17 10v1l17-10v-1zM496 379l-17 8c0 1 0 2 1 1l16-8v-1zM501 383l-20 10c-1 0 0 0 0 0l20-10c1 0 0-1 0 0zM508 387l-23 8a1 1 0 1 0 0 1l23-8v-1zM507 394l-10 1v1l10-1v-1zM526 399l-31 3v1l31-3v-1zM523 402l-27 1v1l27-1a1 1 0 1 0 0-1zM547 417l-21-8h5v-1l-15-1v1l9 1 22 9v-1zM556 430l-16-10v1l15 10 1-1zM529 413l-16-5 16 5zM532 421l-16-7s-1 0 0 0l16 7c0 1 1 0 0 0zM470 427l-15 10h1l14-9v-1zM470 430l-20 11s0 1 0 0l20-10v-1zM475 429l-33 18v1l33-18v-1z"/><path class="cls-69" d="M483 428l-5 3v-1l-37 18 1 1 36-18-36 19v1l41-22v-1zM477 433l-37 20 1 1 36-20v-1zM436 460l-2 1s0 1 0 0h2v-1zM480 434l-36 20v1l36-20v-1zM469 442l-44 28 1 1 44-28a1 1 0 1 0-1-1z"/><path class="cls-69" d="M465 447l-46 29 1 1 46-29a1 1 0 1 0-1-1zM446 452l-21 15v1l22-15-1-1z"/><path class="cls-69" d="M464 450l-38 23a1 1 0 1 0 1 1l37-23v-1zM460 458l-34 22v1l35-22-1-1zM462 460l-51 31a1 1 0 1 0 1 1l51-31a1 1 0 1 0-1-1zM459 465l-49 31v1l49-32z"/><path class="cls-69" d="M455 471l-51 30a1 1 0 1 0 0 1l51-30v-1zM455 476l-48 27a1 1 0 1 0 1 1l47-27a1 1 0 1 0 0-1zM457 481l-55 31a1 1 0 1 0 1 1l54-32zM436 473l-19 11v1a761 761 0 0 0 19-12zM444 466l-27 15c0 1 0 2 1 1l27-15-1-1z"/><path class="cls-69" d="M438 495l-41 18 1 1 41-18-1-1zM440 496l-52 28 1 1 52-28c1-1 0-2-1-1zM428 506l-51 28c-1 1 0 2 1 1l51-28-1-1zM429 509l-54 31v1l55-31-1-1zM418 519l-65 38a1 1 0 1 0 1 1l65-38a1 1 0 1 0-1-1zM417 526l-59 33c-1 0 0 1 0 0l60-32c0-1 0-2-1-1zM405 535l-57 33h1l57-32a1 1 0 1 0-1-1zM413 535l-76 45 1 1 46-27-46 28h1l55-34v-1l19-11v-1z"/><path class="cls-69" d="M380 557l-39 26 40-25a1 1 0 1 0-1-1zM381 560l-52 31a1 1 0 1 0 1 1l52-31a1 1 0 1 0-1-1zM372 569l-45 27a1 1 0 0 0 0 1l-2 2 45-25c0-1 0-2-1-1l-27 16 31-19a1 1 0 1 0-1-1zM362 580l-39 26a1 1 0 0 1 1 0l39-26h-1zM369 581l-44 27a7 7 0 0 1 0 1l18-11-17 11v1a1 1 0 0 1 1 0l40-25a1 1 0 0 0 0-2l2-1a1 1 0 1 0 0-1zM358 594l-30 21v1l31-21-1-1zM363 599zM363 604l-30 21 1 1 30-21-1-1zM362 609zM362 615l-22 15c-1 1 0 1 1 1l22-15-1-1zM358 622l-25 18a1943 1943 0 0 0 25-18zM354 631zM356 636zM353 643l-22 14 1 1 21-14v-1zM355 646l-23 15 1 1a963 963 0 0 0 22-16zM353 654l-17 12 1 1 17-12c1-1 0-1-1-1zM350 660l-12 8c-1 1 0 2 1 1l12-8c1-1 0-2-1-1zM353 664l-18 12c-1 1 0 2 1 1l18-12-1-1zM353 668l-23 16v1l23-17c1 0 0-1 0 0zM353 672zM358 673l-29 21c-1 1 0 1 1 1l29-21-1-1zM359 677zM358 681l-27 19c-1 1 0 2 1 1l27-19c1-1 0-1-1-1zM369 678l-16 11-16 12c-1 1 0 2 1 2l2-1a1 1 0 0 0 0-1l14-10 15-13c1 0 0 0 0 0zM374 680l-16 10-16 12 1 1 15-11 16-12s0-1 0 0zM376 683l-16 10-15 9 1 1 16-10 14-9v-1zM380 686a256 256 0 0 0-24 17v2a255 255 0 0 0 25-18l-1-1zM381 691a202 202 0 0 0-21 13c-1 1 0 2 1 1a202 202 0 0 0 21-13l-1-1zM385 694l-12 9c-1 0 0 2 1 1l12-10h-1z"/><path class="cls-69" d="M342 671l-14 8 1 1 14-9h-1zM343 664l-13 8v1l13-8v-1zM334 620v0zM355 604l-21 14c-1 1 0 1 1 1l21-14-1-1zM371 578l-35 25c-1 0 0 1 0 0l35-25c1 0 0-1 0 0zM373 570l-25 18c-1 0 0 1 0 0l26-17-1-1zM384 559l-22 16 1 1 22-16-1-1zM393 550l-19 11v1l20-10c1-1 0-2-1-2zM430 515l-15 9v1l15-10zM435 508c-6 2-11 6-16 9a1 1 0 1 0 0 1 234 234 0 0 0 16-10z"/><path class="cls-69" d="M442 501l-18 11a1 1 0 1 0 1 1l17-11a1 1 0 1 0 0-1zM448 492l-18 10v1l19-10-1-1zM452 459l-22 14 1 1 22-14a1 1 0 1 0-1-1zM454 455l-18 11a1 1 0 1 0 1 1l18-11a1 1 0 1 0-1-1z"/><path class="cls-69" d="M473 442l-28 16 1 1 28-16-1-1zM810 425l-6 10v1l7-10-1-1zM811 418l-7 10s0 1 0 0l8-10h-1zM810 423l-12 17h1l11-17z"/><path class="cls-69" d="M808 429l-18 25h1l17-25zM807 437l-10 14 8-13c1 0 0 0 0 0l-18 26-3 4-1 1v1l2-3 22-29v-1zM802 451l-18 21c-1 0 0 1 0 0l19-21h-1zM795 464l-14 17s0 1 0 0l14-17zM791 454l-17 20c-1 0 0 0 0 0a708 708 0 0 0 17-20z"/><path class="cls-69" d="M791 457l-19 21v1l20-21-1-1zM797 457l-24 26v1l24-26v-1zM794 465l-15 19-7 7 1 1 9-11 12-15v-1c1 0 0-1 0 0zM795 468zM794 472l-19 26c-1 0 0 0 0 0l19-26c1 0 0 0 0 0zM800 468l-26 32v1l26-33c1 0 0 0 0 0zM802 471l-28 39v1a1946 1946 0 0 0 28-40zM802 478l-30 38c-1 0 0 0 0 0l30-38zM797 489zM796 499l-24 35v1l25-35-1-1zM798 506l-22 30-3 4 2-2 4-5 7-8-5 5a1702 1702 0 0 0 17-24zM792 525l-20 17v1l20-18zM789 531l-20 21v1l21-21-1-1zM787 540l-18 18 18-18zM781 551l-12 12v1l12-13c1 0 0 0 0 0zM792 548l-24 22v1l24-23c1 0 0 0 0 0zM789 556l-21 21v1l21-22c1 0 0 0 0 0zM789 562l-21 21v1l22-22h-1zM795 565l-26 24v1l26-24v-1zM793 574l-24 23v1l25-23-1-1zM766 610l2-1v-1zM792 584l-22 22v1l22-22v-1zM766 613v1l2-2v-1zM789 589l-19 20v1l20-21h-1zM766 617v1l2-2v-1zM789 595l-19 19 20-19h-1zM765 624v1l3-3zM787 603l-17 17 18-17h-1zM765 632v1l3-3v-1zM787 608l-17 19v1l18-19-1-1zM765 638v1l2-3v-1zM788 614l-19 19v1l20-20h-1zM765 644v1l2-2v-1zM793 617l-24 23v1l24-23v-1zM789 628l-21 22v1l22-22-1-1zM791 635l-23 23h1l23-23h-1zM793 640l-21 21 21-21c1 0 0-1 0 0zM773 667l-5 5h1l4-4v-1zM797 645l-26 29h1l25-29zM790 656l-14 17h1l14-17h-1zM794 660zM792 666a1161 1161 0 0 0-16 20l17-19-1-1zM799 667l-16 22s0 1 0 0l17-22h-1zM803 675l-16 20c-1 0 0 0 0 0l17-19-1-1zM805 682l-17 19h1l16-19c1 0 0 0 0 0zM812 683l-19 20 20-20h-1zM813 688l-13 17h1l13-16-1-1zM819 690zM828 687l-20 20 1 1 19-20v-1zM832 691l-17 19 1 1 17-20h-1zM831 699l-12 10v1l13-10-1-1zM697 257l-8 13v1l9-14h-1zM696 262l-8 17c-1 0 0 0 0 0l9-17h-1zM696 265l-9 19h1l8-19zM690 286l-3 11h1l2-11zM695 286l-10 22 10-22zM700 285l-11 30v1l11-31zM702 294l-10 35c-1 0 0 0 0 0l11-35h-1zM705 309l-8 33h1l7-33zM704 328l-6 27h1l5-27zM707 336l-5 30h1l5-30h-1zM717 278c0-1 0-1 0 0v0zM728 280l-2 20h1l1-20zM734 285h-1l1 23s0 1 0 0v-23zM740 289h-1l1 29h1l-1-29zM748 295l-1 22h1l1-22h-1zM760 294l-5 33 5-33c0-1 0-1 0 0zM768 315l-6 25 6-24v-1zM773 324l-5 23s0 1 0 0l5-23zM780 336l-4 25h1l3-25zM784 347l-3 28h1l2-28zM788 361l-4 28 4-28c0-1 0-1 0 0zM793 366l-7 39 7-39s0-1 0 0zM799 362l-10 49 10-49zM800 367l-9 50h1l8-50zM806 364zM808 368l-9 41 1 1 8-42c1 0 0 0 0 0zM812 376l-10 40h1l9-39v-1zM814 381l-12 44 1 1-1 1h1l5-10h-1l-4 8 12-43-1-1zM847 194l-4-11h-1l1 1h-1a294 294 0 0 0 5 10zM848 192l-3-10 3 10zM850 191l-3-10 3 10zM850 186l-4-13c0-1 0 0 0 0l4 14v-1zM854 185l-5-15 4 15h1zM857 186zM860 186l-8-22h-1l9 22zM863 187l-6-23-1 1 7 22c0 1 0 1 0 0zM865 183l-7-24h-1l7 24h1zM871 185zM874 186l-8-25 8 25zM878 186a980 980 0 0 0-7-26l6 26h1zM880 181l-7-24s-1 0 0 0l7 24zM883 177l-4-14 3 7-5-11v-2h-1l1 2 6 18c0 1 0 1 0 0zM846 138h-1l2 12-1-12zM847 139l3 14-3-14zM849 136l3 17v-1l-3-16zM855 153l-3-14h-1l4 14s1 0 0 0zM856 142h-1l2 10h1l-2-10zM859 144l-2-3c0-1 0 0 0 0l2 3c0 1 0 1 0 0zM863 150l-2-7 2 7zM866 148l-3-9 2 9h1zM866 123h-1l2 14-1-14z"/><path class="cls-69" d="M867 128h-1l3 17v-1l-2-16zM867 146l-3-12 1 5-1-4h-1l4 11s1 0 0 0z"/><path class="cls-69" d="M869 144l-4-12h-1l5 13v-1zM872 147l-5-15h-1l6 15zM875 149l-5-14h-1l5 14h1z"/><path class="cls-69" d="M878 153l-7-16c0-1-1-1 0 0l6 16h1zM884 159l-4-7-7-13 4 9c0-1-1 0 0 0l1 3 3 5v-1a312 312 0 0 0 3 4zM878 159l-4-10h-1l5 10zM875 157l-3-8 2 8h1zM872 156l-2-8h-1l2 8h1zM869 149v8-5l1 6s1 0 0 0l-1-9zM878 153l4 17v-1l-4-16z"/><path class="cls-69" d="M884 173l-5-22h-1l6 22c0 1 0 0 0 0zM887 173l-5-24h-1l6 24c0 1 0 1 0 0zM891 171l-5-15-1-4v-1h-1l2 7a694 694 0 0 0 4 15l-2-8a462 462 0 0 0 3 6zM894 174l-5-19v1l5 18zM897 173zM900 176l-5-17 5 17zM903 176l-5-14c0-1 0-1 0 0l5 14zM906 174l-3-9c0-1 0 0 0 0l2 10 1-1zM910 173l-2-6 1 6h1zM892 163l-2-8s-1 0 0 0l2 8zM895 164l-4-13 4 13zM897 164l-5-11 4 11h1z"/><path class="cls-69" d="M900 165l-5-10v1l4 9h1zM902 167l-5-10 4 10h1zM905 168l-5-14h-1l5 14h1zM908 172l-4-12s-1 0 0 0l3 12h1zM910 174l-5-12a945 945 0 0 0 5 12zM913 173a225 225 0 0 0-4-9l3 9h1zM908 174h-1l1 9v-9zM909 175l1 10h1l-2-10zM913 175l-2 10h1l1-10zM913 175v11l1-11h-1zM917 174l-3 11v1l3-12zM918 174a146 146 0 0 0-2 12l2-12zM920 173zM921 173zM925 179l-2 5 1-8-2 4 2-6-3 11c-1 0 0 1 0 0l2-5v2l-2 5h1l2-4v-1a218 218 0 0 0 1-3zM846 207l-2-6h-1l3 6c0 1 0 1 0 0zM846 206l-3-10s-1 0 0 0l3 10zM847 206l-2-8h-1l3 8zM851 210l-4-13 4 14v-1zM850 214l-15-18c-2-4-6-8-11-10v1h2c-3 0-5 1-4 4h1l1 4h1l-1-3h4a21 21 0 0 1 6 6 1 1 0 0 0 1 0v2a1 1 0 0 0 1 0 1304 1304 0 0 0 14 14zm-25-24h-1a1 1 0 0 0 1 0zm3 0l-3-1a2 2 0 0 1 2 0 8 8 0 0 1 2 2zm3 3l-1-1h1a1 1 0 0 0 0 1zM852 210l-4-17h-1a837 837 0 0 0 5 17zM850 191h-1l4 21h1l-4-21zM853 190h-1l5 24s1 0 0 0l-4-24zM857 189l5 25-5-25zM863 189h-1l6 29c0 1 0 1 0 0zM865 184l4 31h1l-5-31zM868 182h-1l6 33-5-33z"/><path class="cls-69" d="M870 189h-1l5 25h1l-5-25zM874 184c0-1 0-1 0 0l4 26-4-26zM878 181h-1l4 26-3-26zM880 176l4 26-4-26zM886 175h-1v-1l4 29v-1l-3-21 4 22h1l-5-28zM888 171l4 29h1l-5-29zM893 175s-1 0 0 0l4 25 1-1-5-24zM896 175s-1 0 0 0l3 24h1l-4-24zM898 177l5 25h1l-6-25z"/><path class="cls-69" d="M900 170h-1l5 33h1l-5-33zM903 172l5 33-5-33zM906 174l-1 1 6 29h1l-6-30zM910 176h-1l5 23-4-23zM914 185h-1a1679 1679 0 0 0 1 0zM869 223l-3-10h-1l4 10s1 0 0 0zM875 222l-4-15c0-1 0-1 0 0l4 15zM879 224l-5-15 4 15h1zM881 227l-5-20h-1l6 20zM882 220l-3-14h-1l4 14c0 1 0 1 0 0zM882 201l2 24h1l-3-24zM889 223l-6-23 5 23h1zM891 220l-5-21h-1l6 21c0 1 0 1 0 0zM891 200h-1l4 21c0 1 0 1 0 0l-3-21z"/><path class="cls-69" d="M890 196l5 23v-1l-5-22zM897 217a864 864 0 0 0-5-20l4 20h1zM894 195c0-1 0 0 0 0l3 20h1l-4-20zM898 199h-1l4 19h1l-4-19zM899 192h-1a615 615 0 0 0 1 0zM901 196c0-1 0-1 0 0l4 17-4-17zM905 195c0-1 0 0 0 0zM858 206zM854 219l-5-14 4 15 1-1zM861 224zM869 229l-10-26 10 27v-1zM876 231l-10-19a1588 1588 0 0 0 2 5l-1-3 8 17h1zM872 215l-10-34h-1l10 34h1zM877 220l-11-37c0-1 0 0 0 0l10 38 1-1zM883 222l-12-40c0-1-1 0 0 0l11 40h1zM889 222l-10-36-1 1 10 35h1zM891 218l-11-42-1 1 11 41h1z"/><path class="cls-69" d="M895 215l-9-34h-1a4458 4458 0 0 0 10 34zM872 189l-3-13h-1l4 13c0 1 0 0 0 0zM879 190l-7-24h-1l7 24h1zM883 192l-8-31h-1l9 31c0 1 1 0 0 0z"/><path class="cls-69" d="M888 190l-10-27-1 1 10 26h1zM891 192zM895 196l-10-29h-1l10 29h1zM896 191l-9-27h-1l9 27h1zM901 191l-10-27h-1l10 27h1zM905 193l-11-25 11 25s1 0 0 0zM906 189l-11-25v1l11 24c0 1 0 0 0 0zM909 185l-9-19h-1a663 663 0 0 0 10 19zM911 180l-6-11 5 11h1zM912 173a128 128 0 0 0-6-8l5 9 1-1zM913 172l-6-9v1l6 8s1 0 0 0zM916 172a79 79 0 0 0-6-7 78 78 0 0 0 5 8l1-1zM862 220l-7-23-1 1 8 22c0 1 0 1 0 0zM869 214l-11-28h-1l11 28h1zM875 216l-13-36h-1l13 36h1zM878 213l-10-34h-1l10 34h1zM882 215l-10-35a1272 1272 0 0 0 10 35zM887 217l-10-34h-1l10 34h1zM889 215l-10-35s-1 0 0 0c3 12 5 24 9 35h1zM893 212l-12-33h-1l12 33h1z"/><path class="cls-69" d="M897 213l-14-36-1 1 14 35h1zM902 209zM906 208l-9-25h-1l9 25h1zM910 207l-9-26h-1l9 26h1zM911 202l-6-21h-1l6 21h1zM913 200zM915 201l-6-16-1 1 6 15h1zM899 203a788 788 0 0 0-9-28l3 13 2 6 3 9h1zM871 211l-9-32h-1l9 32h1zM874 214l-10-34s-1 0 0 0l10 34zM875 208l-10-38h-1l10 39 1-1zM867 165c0-1-1-1 0 0l8 40h1l-9-40zM872 173l-4-13h-1l5 13s1 0 0 0zM847 150a11 11 0 0 1-5-10 11 11 0 0 0 5 10s1 0 0 0zM851 149l-7-9 6 9h1zM854 148l-7-7c0-1 0 0 0 0l6 7h1z"/><path class="cls-69" d="M856 149l-6-7-1-1c0-1-1 0 0 0l6 9h1l-4-5a358 358 0 0 0 4 4zM858 149zM861 152l-4-8v1l3 7h1zM865 151l-5-9v1l4 8h1zM868 149l-4-8-1 1 4 7h1zM870 148l-6-10h-1l6 11c0 1 1 0 0 0l-3-7a169 169 0 0 0 4 6zM874 152l-6-14h-1l6 15 1-1zM879 155l-9-14c0-1-1 0 0 0l8 15 1-1zM886 157l-2-5v1l-4-6 4 8-7-5-2-4h-1l2 2h-1l1 1 5 7v-1l-2-4 6 6h1zM849 165l3 22 1-1-4-21zM851 164l-1 1 6 23h1l-6-24zM862 189l-1 1-7-29c0-1 0 0 0 0l7 31h1v-3zM865 191l-7-24 6 24h1zM867 192zM863 164l-1 1 5 25h1l-5-26zM879 210v-1l-7-38h-1l3 18-3-14h-1l3 13-6-20h-1l9 29 4 17h1l-1-4zM893 209l-12-37h-1v2c0-1 0 0 0 0l7 30h1l-7-27 11 32h1zM901 212l-12-31 11 31h1zM897 187l-1 1 5 22 1-1-5-22zM908 209l-10-24-1 1 10 24 1-1zM907 192c0-1 0 0 0 0l3 16h1l-4-16zM884 219l-4-16h-1l5 17v-1z"/><path class="cls-69" d="M879 218v2l-1-4 2-18h-1l-1 15-2-8h-1l3 17h1l1-3-1-1zM869 219l-4-21h-1l5 21zM865 217l-5-22h-1l5 23 1-1zM863 218l-7-26 6 26h1zM854 193h-1l2 8h-1l2 13h1l-1-5 1 4h1l-4-20z"/><path class="cls-69" d="M865 222l-4-14h-1l4 14h1zM872 226l-5-17h-1l5 17h1zM873 225l-3-14h-1l3 14h1zM871 207v1l4 18h1l-5-19zM877 225l-4-17h-1l4 17h1zM881 224l-5-19h-1l4 19h2zM884 221l-4-15h-1l4 15h1zM886 222v1l-4-20 3 22h1l1-3h-1zM890 215l-1 3-3-16h-1l3 18a1 1 0 0 0 1 0l2-5h-1zM894 218l-5-19h-1l4 20a1 1 0 0 0 1 0l1-1z"/><path class="cls-69" d="M894 213c0-1 0-1 0 0l-4-15-1 1 5 19h1l-1-5zM916 192v-3a1 1 0 0 0-1 0l-3-5-1 1-3 8-4-12h-1v14l-5-16h-1l6 19 1 6-2-4h-1v5l-2-7a1 1 0 0 0-1 0l1 9-6-18h-1l1 3 3 16-5-14h-1l7 22h1l-3-17 4 15 1-1a1 1 0 0 0 1 0l-1-8a1241 1241 0 0 0 3 6v-6l1 3h2l-1-6 1 1a1 1 0 0 0-1 1l2 2s2 0 1-1l-3-7v-13l3 10h1l3-9a308 308 0 0 0 4 6zM913 179l-6-3v1l5 2h1zM899 179zM811 43zM816 32l-1 1v1l-2 5a112 112 0 0 0 1-8l-2 10-2 6h1l3-10-2 13h1l2-16 1-2s0-1 0 0zM819 36v-2l-4 12 2-13-4 20v2h1v-1l2-9-3 13h1l5-22zM820 44l-3 16 3-25-4 26h1l-2 8h1l5-24-1-1zM817 51l-5 26h1l4-26z"/><path class="cls-69" d="M816 45l-8 32v1l9-32-1-1zM812 50l-9 30h1l9-30h-1zM810 49v1l-11 30h1l9-27-7 23 1 1 8-28h-1zM809 51l-6 12 2-8c1 0 0 0 0 0l-4 14-6 14 4-8-2 8 4-14 8-18z"/><path class="cls-69" d="M809 57l-9 28h1l9-28h-1zM813 50l-8 33h1l8-33h-1zM816 51l-6 29h1l5-29zM817 60l-3 19h1l2-19z"/><path class="cls-69" d="M820 64l-3 8 2-12-4 18-1 5v1h1l1-5 4-15s0-1 0 0zM821 67l-8 24h1l7-24c0-1 0-1 0 0zM815 77l-8 27h1a4548 4548 0 0 0 7-27zM811 81l-6 25h1l5-25zM809 78l-7 25h1l6-25z"/><path class="cls-69" d="M807 83l-7 24h1l6-24zM802 87l-4 19c-1 0 0 0 0 0l5-18-1-1zM799 85l-4 21 5-21h-1zM797 83l-5 24h1l4-24zM796 84l-7 20h1l6-20zM791 87l-5 15s0 1 0 0l6-14-1-1zM785 97l-2 12v1l3-13h-1zM781 111l1 29-1-29zM783 112l1 26h1l-2-26zM787 116h-1l3 25s1 0 0 0l-2-25zM789 120c0-1 0-1 0 0l4 21-4-21zM793 122l-1 1 4 17s1 0 0 0l-3-18zM799 123h-1l2 16h1l-2-16zM809 115l-1 18h1v-18zM815 116l-2 19h1l1-19zM817 111l-1 20 1-20zM819 111v14c0 1 0 1 0 0l1-14h-1zM824 101l-3 19h1l3-19h-1zM826 96l-1 12h1l1-12h-1zM803 186h-1l1 11h1l-1-11zM805 187l2 13c0 1 0 0 0 0zM807 182l3 28c0 1 0 1 0 0l-3-28zM810 188h-1l3 33h1l-3-33zM812 188l4 44h1l-5-44zM817 192h-1l1 3v3a453 453 0 0 0 1 11l1 16v-9l-1-8-1-11a261 261 0 0 0 0-5zM820 188h-1l2 10 1-1-2-9zM718 242l-14 15h1a1047 1047 0 0 0 13-15zM725 242l-3 4-1 1-8 9 7-7-5 8h1l5-10 5-5h-1zM725 248zM731 258l-6 12h1l6-12h-1zM769 190l-2 14c0 1 0 1 0 0l3-14h-1zM778 186l-4 15 4-15zM785 182l-5 15h1a785 785 0 0 0 4-15zM792 179l-4 11c-1 0 0 0 0 0l5-11h-1zM794 181l-8 18 1 1 7-19zM794 185l-7 24c-1 1 0 1 0 0l7-24c1 0 0 0 0 0zM796 191l-10 27h1l9-27c1 0 0 0 0 0zM795 201l-7 30s0 1 0 0l8-30h-1zM799 208l-9 38h1l8-38zM800 223l-9 34h1l8-34zM801 232l-6 37 6-37zM805 251l-6 30s0 1 0 0l6-30zM807 260a1136 1136 0 0 0-6 26l6-25v-1zM807 275l-2 26 2-26zM812 302l-2 17 2-17zM465 357zM493 329l-29 28 30-28h-1zM503 329l-32 24 32-24s0-1 0 0zM510 326l-34 27 34-27c1 0 0 0 0 0zM511 332l-31 23c-1 0 0 1 0 0l32-23h-1zM510 337l-24 17c-1 0 0 0 0 0l24-17c1 0 0 0 0 0zM511 342l-19 12v1l20-13h-1zM512 347l-16 10 16-10zM513 348l-5 5v1l5-5v-1zM514 351l-10 6 10-6zM517 353l-12 10h1l12-10h-1zM513 364zM564 357l-23 16 23-16c1 0 0 0 0 0zM481 335l-36 33h1l35-33s0-1 0 0zM477 332l-41 37s0 1 0 0a4981 4981 0 0 0 41-37zM466 337a3492 3492 0 0 0-36 36l36-36zM444 345l-22 25h1l22-25h-1zM445 341l-13 17 14-17h-1zM354 478l-6 15 5-22h-1l-6 24v2l7-30-9 34h1v-2l1-1v1l1-4 5-14-9 27v1l10-29 1-2zM366 477l-16 28 11-27h-1l-13 31-1 3s0 1 0 0l1-1 1-2 18-32zM368 486l-19 30h1l18-29v-1zM370 489l-21 33h1l20-33zM376 488l-24 38 24-38zM372 501l-2 1c-1 0 0 0 0 0 2-1 2-1 1 1l-3 4-5 9-10 17 20-32h-1zM381 496l-23 34v1l23-35zM390 493l-25 40h1a2359 2359 0 0 0 24-40zM392 498l-1 1 1-1c1 0 0-1 0 0zM391 502l-24 33h1l23-33zM399 499l-27 36 1 1 27-37h-1zM397 505l-20 27h1l19-27zM369 525zM362 533l-25 29s0 1 0 0l26-29h-1zM345 547l-13 16 1 1 13-16-1-1zM356 526l-26 31v1l26-32zM348 528l-21 27h1l20-27z"/><path class="cls-69" d="M352 521l-27 35 28-34-1-1zM346 518zM338 533l-22 19 1 1 21-20c1 0 0 0 0 0zM334 539l-23 23 24-23h-1z"/><path class="cls-69" d="M335 546l-30 26h1l29-26zM318 563l-17 17 1 1 17-18h-1zM317 570a598 598 0 0 0-26 25l7-6 11-10 1-1 7-7v-1zM303 588zM304 591zM302 596l-11 10c-1 0 0 1 0 0l11-9v-1zM300 601l-8 7v1l9-8h-1zM291 632l-2 12h1l1-12zM289 624l-1 26 2-26h-1zM293 615zM297 612l-2 22h1l1-22zM306 607l-4 11 1-3 1-7h-1l-4 15v-10l-1 13 1 1 3-15h1v1l-1 7v1l5-14h-1zM277 706l2 20h1l-3-20zM274 712zM281 725l-5-19 5 19zM282 710l2 21h1l-3-21zM285 712l1 20h1l-2-20zM287 716l2 18h1l-3-18zM291 716l2 15h1l-3-15zM295 711h-1l3 20-2-20zM297 711l2 19h1l-3-19zM302 712h-1l2 18-1-18zM306 709h-1l1 18h1l-1-18zM308 711l3 20h1l-4-20zM312 709h-1l1 17h1l-1-17zM312 705l3 23h1l-4-23zM315 709l4 21v-1l-4-20zM324 725c0-1 0-1 0 0v1l-2-7a516 516 0 0 1-2-9l1 5-2-6c0-1 0 0 0 0l2 9a460 460 0 0 0 1 4l2 8h1l-1-5zM330 732l-6-20h-1l6 20h1zM365 583l-23 32 23-32c1 0 0 0 0 0z"/><path class="cls-69" d="M464 446l-20 18 14-13c1-1 0-2-1-1l-6 4 12-10-1-1-8 7 3-2-1-1-13 10 11-12-1-1-7 6-14 13 1 1-16 17a1 1 0 0 0 0 1l-22 32-12 15h1l12-9-26 31h1l22-25a1 1 0 0 0 1-1l28-22-17 17-16 11 1 1 8-6-2 2a1 1 0 0 0 0 1l-6 5 1 1 9-7a1 1 0 0 0 0 1l-9 7-12 9 1 1 36-23-1 1-58 40 1 1-2 1h1l28-19 4-2 2-2-16 13-15 12v1l39-27-31 24 1 1 34-25-34 28v1l-12 9v1l-3 3c-1 0 0 1 0 0l13-9 5-4-1 1-22 21h1l9-8 2-1 3-2-1 1-3 3-9 10h1l6-4 4-4-10 13 1 1 5-5a50 50 0 0 1-8 9l1-1a171 171 0 0 0 9-6l-5 3a51 51 0 0 0 11-16l-1-1-4 4 14-17h-1l-8 7 7-8 4-3-1-1 4-4 1-1 32-22-1-1-23 17 4-3-1-1-9 8h-1l31-26h-1l-24 18 19-15 14-10c1 0 0-1 0 0l-6 3a32 32 0 0 0 6-7h-1l7-6v-1l8-6v-1l-12 8 5-6 5-4h-1l8-8-1-1-7 6 14-15-1-1h-1l4-4-1-1-5 5 5-5-1-1-10 9 15-16-1-1-7 7 11-11a1 1 0 0 0 0-1l1-1c1-1 0-2-1-1l-10 9 14-14h-1l-13 11 16-15c1-1 0-2-1-1l-7 6 7-7a1 1 0 0 0 1-1l2-2s0-1 0 0l-9 5 12-11-1-1zM364 587a50 50 0 0 1-5 9l-4 4 9-13zm4-9l2-2-12 15-4 3 14-16zm-6 4l-6 5 11-10zm12-13l-10 7 13-10zm70-112l-8 8a1 1 0 0 0 0 1l-2 2v1l14-11-10 9-12 8v1l10-6-5 5-12 11v1l7-5h-1a1 1 0 0 0 0 1l-11 11c-1 1 0 1 1 1l13-12-22 22c-1 1 0 1 1 1l6-5-13 12a1 1 0 0 0 0 1l-4 4a1 1 0 0 0-1 1l-6 5 6-7a1 1 0 0 0 0-1l17-20v-1l10-14a1 1 0 0 0 0-1l4-6a1 1 0 0 0 0-1l9-9a1 1 0 0 0 1 0zm-20 39a1 1 0 0 0 0 1l-11 8 18-17 2-2zm9-7l-3 3zm-14-8l1-1-2 4 1-2a1 1 0 0 0 0-1zm-20 38l2-2 7-6zm11-8l14-12a1 1 0 0 0 1 0l7-6-5 4zm-4 10l3-2-4 2zm-31 37l3-3zm29-20l-15 9 11-9a32 32 0 0 0 5-1zm-2-2l5-3-1 1h1a31 31 0 0 1-5 2zm6-2l9-7a31 31 0 0 1-9 7zm7-13a1 1 0 0 0 0 1l-19 12 22-16zm-2-1l9-7a1 1 0 0 0 0 1zm14-13l-6 4 9-7zm11-16l-14 14a1 1 0 0 0 0 1l-12 8 18-17zm-14 2l-11 9 12-11a1 1 0 0 0 1-1l15-13zm9-11a1 1 0 0 0-1-1l-2 2 1-1 12-10zM805 435l-1 4a1 1 0 0 0-1 0 1 1 0 0 0-1 0l-11 14v1l-1 1v1l-3 3a43 43 0 0 0-16 17l1 1 4-4-5 7h2l4-6a1 1 0 0 0 1 0l-4 10c-1 1 1 1 1 1v-1l-2 5v1l-3 6h1l4-7 1-1-5 13h1l12-20 4-4a1100 1100 0 0 0 3-3v-1l4-5-8 15a1 1 0 0 0 0 1l-7 10 2-4h-1l-11 18h1l2-2-1 2 1 1c-1 0 0 1 0 0l21-29h-1l-11 14 5-7 11-16c1-1 0-1-1-1l-4 6v-1l6-11-1-1-7 8 2-4v-1l3-7a1219 1219 0 0 0 8-14l-5 9v-2l1-1a872 872 0 0 1 5-13l1-2-1-1zm-26 62l-2 3 2-3zm-5 7l1-3-1 2zm5-25l1-2 6-6zm3 0l-2 1zm-3-4l1-3 6-6-7 9zm-4-2a41 41 0 0 1 8-9 1 1 0 0 0 0 1zm3 4a1 1 0 0 0 1 0zm-3 18l3-9 4-3-7 12zm12-20v1l-3 3-4 4 9-11-2 3zm2-11l2-2v1zm2 0v1-1h1zm5-10l-2 3-7 6 5-5v-1l5-7-1 3a1 1 0 0 0 0 1zm3-3a1 1 0 0 0-1 0l2-3-1 3zm1-5l-4 3 5-5z"/><path class="cls-69" d="M794 473l-19 26h1l18-26c1 0 0 0 0 0zM792 479l-16 26c-1 0 0 1 0 0l16-25v-1zM796 478a1657 1657 0 0 0-22 36l8-12-10 16 1 1 6-8-5 7h1l18-26h-1l-14 19 14-25c1 0 0 0 0 0l-2 3 6-11c1 0 0 0 0 0zM796 491l-2 3 1-2-1 2-3 5-6 9-12 19h1l22-35v-1zM793 500l-19 31v1l20-32h-1zM794 507l-11 17a393 393 0 0 0-10 16l11-16 6-10a817 817 0 0 0 2-2 138 138 0 0 0 2-5zM790 523l-14 28h1l13-28zM790 533l-11 30 1 1 11-31h-1zM619 372zM626 383l-3 22 4-22h-1zM630 389h-1v27h1v-27zM641 422l-8-24a1133 1133 0 0 0 8 24zM652 425zM665 429v7c0 1 0 1 0 0v-7zM568 422l-8-25-1-14h-1l2 12-1-3h-1l2 5 2 21-2-19 7 23h1zM540 421l-7-23 2 4-3-6-5-16h-1l5 14v1l9 26zM557 430l-16-35h-1l17 35zM566 434l-14-27h-1l15 28v-1z"/><path class="cls-69" d="M579 441a39 39 0 0 1-19-34 38 38 0 0 0 19 34s1 0 0 0zM592 451l-24-37s-1 0 0 0l23 37h1zM610 459a58 58 0 0 1-27-34 57 57 0 0 0 27 34zM621 462l-23-23 22 24 1-1zM634 462l-17-15v1l16 14h1zM656 469l-22-16c0-1-1 0 0 0l22 16c0 1 0 0 0 0zM669 469l-11-5c0-1-1 0 0 0l11 5c0 1 0 0 0 0z"/><path class="cls-69" d="M672 475a105 105 0 0 1-45-44h-1a103 103 0 0 0 46 44s1 0 0 0z"/><path class="cls-69" d="M681 473a76 76 0 0 1-43-37 76 76 0 0 0 43 38v-1zM696 477l-46-36h-1l46 37 1-1zM699 477l-36-29s-1 0 0 0l36 29c0 1 1 0 0 0zM704 474l-37-40v1l36 40 1-1zM705 471zM711 471l-28-33 27 33h1zM713 466l-22-28h-1l22 28h1zM712 459l-16-21s-1 0 0 0l15 21h1zM715 456l-17-20 16 21 1-1zM713 460l-20-28v1l20 27z"/><path class="cls-69" d="M708 461l-11-22v1l11 22v-1zM709 475l-15-15 15 15zM704 475l-15-19 14 19h1zM366 341l-11 15h1l11-15h-1zM368 334l-11 18 11-18s0-1 0 0z"/><path class="cls-69" d="M370 332l-17 36 1 1 16-37zM368 339l-13 37h1l12-37zM367 345l-5 15 1-4c0-1 0-1 0 0l-7 23-4 11v1a665 665 0 0 0 6-17l9-29zM360 370l-13 42v1l13-42v-1zM357 387l-9 36v1l9-37zM359 394l-4 14a852 852 0 0 0 0-5l-3 14-4 14 1-4-3 15h1l6-26 6-22z"/><path class="cls-69" d="M353 418l-7 35h1l7-35h-1zM386 354l-12 22c-1 0 0 0 0 0l13-22h-1zM396 354l-22 31c-1 0 0 0 0 0l22-31zM390 365l-9 29 9-29zM396 378l-9 31c-1 0 0 0 0 0l9-31s0-1 0 0zM386 427l-5 22 6-22h-1zM392 416l-11 48 11-48zM395 412l-5 43h1l5-43h-1zM399 427l-9 42 10-42h-1zM412 425l-13 42h1l12-42zM420 427l-19 44h1l18-44zM429 431l-24 42 24-42zM429 436l-21 41s0 1 0 0l21-40v-1zM441 432l-28 41h1l27-41zM449 436l-31 37 31-37zM458 432l-29 30c-1 0 0 0 0 0l29-29v-1zM470 379l-21 39 17-42-19 45-4 8 2-4h1l1-2 24-44h-1zM465 402l-27 42 28-42h-1z"/><path class="cls-69" d="M465 411l-29 44 30-44h-1zM450 410l-23 33v1l24-33-1-1zM452 392l-29 40v1l30-41h-1z"/><path class="cls-69" d="M451 393l-33 37h1l33-37h-1zM453 382l-37 38 1 1 36-39s0-1 0 0zM453 378l-41 38 1 1 40-39zM449 374l-37 30h1l36-30zM496 361l-26 31h1l25-31zM498 363l-22 29 1 1 22-30h-1zM507 367l-27 31 28-31h-1zM513 372l-28 29 1 1 27-30zM516 376l-23 29c-1 0 0 0 0 0l24-29h-1zM520 381l-24 29 1 1 23-30c1 0 0 0 0 0zM520 385l-20 29s0 1 0 0l21-29h-1zM524 394zM531 405h-1l2 15h1l-2-15zM555 429l-11-16c0-1-1 0 0 0l11 16c0 1 0 0 0 0zM729 478l4 23zM732 482c0-1 0-1 0 0l4 33h1l-5-33zM734 485s-1 0 0 0zM739 489l1 19c0 1 0 1 0 0l-1-19zM745 511l-3-16h-1l4 16zM751 513zM756 513l-3-9h-1l4 9c0 1 0 1 0 0zM727 477h-1v1h1v-1zM738 541v-9c0-1 0-1 0 0v5l-1-8h-1l2 11v17h1l-1-14 2 9c0 1 0 1 0 0l-2-11zM741 522l5 35c0 1 0 1 0 0l-5-35zM745 530l3 27h1l-4-27zM750 524l-1 52h1l1-52h-1zM740 529h-1l3 65-2-65zM744 548c0-1 0-1 0 0v48c0 1 0 1 0 0v-48zM747 561l-2 54 3-54h-1zM749 577h-1v49h1v-49zM738 629h-1l3 21-2-21zM739 628h-1l4 26h1l-4-26zM748 653l-3-14h-1l4 14zM755 661zM754 697h-1v19h1v-19zM756 704v0zM759 706l-1 14h1l1-14h-1zM764 704h-1v18h1v-18zM767 705zM773 705l-1 18c0 1 0 1 0 0l1-18zM778 703l-2 18 2-18c0-1 0-1 0 0zM780 705v18c0 1 0 1 0 0v-18zM786 704h-1v19h1v-19zM790 705l1 23c0 1 0 1 0 0l-1-23zM796 705zM799 706h-1l3 19s1 0 0 0l-2-19zM808 716h-1v9h1v-9zM653 280l-33 17v1l34-18h-1zM644 292l-5 2h-1l-4 2-15 7c-1 0 0 1 0 0l8-3-12 6 20-10 9-4c1 0 0 0 0 0zM656 289l-25 20h1l24-19v-1zM659 293l-25 20c-1 0 0 0 0 0l25-20c1 0 0 0 0 0zM651 307l-19 16h1l18-16s0-1 0 0zM659 311l-22 17 22-16v-1z"/><path class="cls-69" d="M645 283l-43 24h1l43-23-1-1zM631 286l-33 15c-1 0 0 0 0 0l34-15h-1zM630 282l-6 2h1l-1-1-2 2-26 7 1 1 23-7-25 11 1 1 26-13 8-3zM658 286l-22 20 22-20zM665 302l-22 16v1l22-17zM659 310l-21 19h1l20-19c1 0 0 0 0 0zM663 313l-18 19h1l17-19s0-1 0 0zM664 318l-12 20h1l11-19v-1zM665 329l-1 20 2-20h-1zM671 267l-24 20 15-14h-1l-18 17v1l1-1 27-23zM674 268l-24 27 24-26v-1zM679 270l-28 29 28-29zM673 279zM672 282l-16 20c-1 0 0 0 0 0l16-19v-1zM691 254l-19 20s0 1 0 0l19-19v-1zM700 250l-7 6a2238 2238 0 0 0-18 19l16-17-15 22c-1 0 0 1 0 0l17-23 7-7zM687 267l-8 19a708 708 0 0 0 8-19zM690 266l-9 30 9-30zM700 279l-11 24h1l10-24zM739 187l-9 41 10-41h-1zM732 213l-11 33h1l10-33s0-1 0 0zM737 215l-7 28 7-28zM740 217l-8 35s0 1 0 0l8-35zM743 228zM751 245l-1 25 1-25zM754 258l-1 16h1l1-16h-1zM761 265l-2 14 3-14h-1z"/><path class="cls-69" d="M728 239l-18 15 1 1 17-15v-1zM731 204l-7 26a1 1 0 0 0-1 0l-2 3 3-5h-2v1a1 1 0 0 0-1 0l-6 9 1 1 1-2-2 4h-2a1 1 0 0 0 0 1l-7 4 1 1 9-5h1l-2 2h-1a1 1 0 0 0 0 1h1l-1 1v1l2-1 6-3a1 1 0 0 0 0-1h-1a782 782 0 0 1 4-4l-3 2a1 1 0 0 0-1 0l3-2-5 3-1-1 3-3h-1l2 1v-1a1 1 0 0 0 1 0l1-2a1 1 0 0 0 1 0l4-12-1-1 5-18h-2z"/></g></svg>