<?xml version='1.0' encoding='utf-8'?>
<svg xmlns:xlink="http://www.w3.org/1999/xlink" xmlns="http://www.w3.org/2000/svg" width="65.005966mm" height="65.005966mm" viewBox="0 0 65.005966 65.005966" version="1.1" id="svg13039"> <defs id="defs13033"> <linearGradient id="linearGradient13874"> <stop style="stop-color:#add0c7;stop-opacity:1" offset="0" id="stop13870"/> <stop style="stop-color:#4f849c;stop-opacity:1" offset="1" id="stop13872"/> </linearGradient> <radialGradient xlink:href="#linearGradient13874" id="radialGradient13876" cx="77.625893" cy="246.96588" fx="77.625893" fy="246.96588" r="32.227863" gradientUnits="userSpaceOnUse" gradientTransform="matrix(1.3400178,0.84175179,-0.65764698,1.0469341,139.22648,-78.344323)"/> </defs> <metadata id="metadata13036"> </metadata> <g id="layer1" transform="translate(-61.688447,-215.81345)"> <rect style="opacity:1;fill:url(#radialGradient13876);fill-opacity:1;stroke:#fefbfb;stroke-width:0.46321279;stroke-linecap:round;stroke-linejoin:round;stroke-miterlimit:4;stroke-dasharray:none;stroke-dashoffset:0;stroke-opacity:1" id="rect8439" width="63.992512" height="63.992512" x="62.195175" y="216.32018" ry="0.26094887"/> <rect ry="0.036980063" y="271.24405" x="62.195175" height="9.0686235" width="63.992512" id="rect13860" style="opacity:1;fill:#77607c;fill-opacity:1;stroke:none;stroke-width:0.17437597;stroke-linecap:round;stroke-linejoin:round;stroke-miterlimit:4;stroke-dasharray:none;stroke-dashoffset:0;stroke-opacity:1"/> <g transform="matrix(0.12904994,0,0,0.12904994,-196.64265,194.12125)" id="g15349"> <path id="path14888" d="m 2131.9799,519.90731 c -13.4123,0.034 -29.2204,1.10115 -47.8817,3.39941 l 0.2201,0.92499 c 18.7943,3.05585 53.7855,4.75016 81.1058,0.0703 l 0.062,-1.59353 c -9.0777,-1.83581 -20.0939,-2.83517 -33.5061,-2.80113 z" style="fill:#d7e3f4;fill-opacity:0.12941176;stroke:none;stroke-width:0.39121392px;stroke-linecap:round;stroke-linejoin:round;stroke-opacity:1"/> <path style="fill:none;fill-opacity:0.25882353;stroke:#c5c5d2;stroke-width:0.39121392px;stroke-linecap:round;stroke-linejoin:round;stroke-opacity:1" d="m 2084.0982,523.30689 c 37.3225,-4.59653 63.2327,-4.27012 81.388,-0.59845" id="path14985"/> <path id="path14818" d="m 2232.7112,281.13755 c 0.665,3.90649 2.8046,6.93953 7.3808,9.77452 2.2074,1.4878 4.6712,1.67899 6.1839,1.39639 5.572,0.0164 8.2502,-2.99847 11.2207,-6.23379 2.871,4.04917 5.4124,8.46894 10.3232,10.22341 4.7249,1.83938 8.0156,-0.3841 11.1708,-2.99221 0.3632,4.19056 5.1636,7.49711 8.5777,8.37816 3.4141,0.88104 7.9945,1.03452 10.7719,-1.39635 1.4467,2.49205 1.608,5.47849 4.5881,7.38079 2.7369,1.6038 5.7849,0.74804 7.6799,0.29921 3.9955,-0.66696 8.1347,-3.16055 10.1736,-5.38599 2.5909,-2.84578 5.4729,-6.10747 5.6852,-12.66701 2.9287,-1.30169 6.5938,-4.40975 6.7823,-9.57504 4.4112,-6.12037 8.2026,-12.34636 9.7746,-18.95065 0.5665,-3.0242 2.1297,-5.05162 0.9974,-9.77456 1.0385,-1.34516 1.0693,-2.8583 0.9974,-4.38855 3.3612,-2.35946 4.4153,-5.48793 5.5855,-8.57768 1.2776,-0.93121 1.5241,-2.20618 1.6934,-3.50685 23.244,-21.42893 46.1551,-43.74524 70.9175,-61.12482 h -110.3127 l -4.1892,10.77191 c -4.1942,1.57281 -7.6372,4.08464 -10.7719,6.98183 -3.28,0.19815 -6.5097,0.24599 -10.1735,1.59585 -12.9377,5.92771 -26.8595,8.65685 -40.2951,12.96624 -3.37,0.74836 -9.3276,11.24749 -17.1584,16.75529 -4.9231,3.46252 -10.5058,7.53855 -12.5642,9.57615 -5.0769,5.02582 1.9028,13.16846 1.4041,23.84066 0.086,-0.0765 0.329,-0.14432 0.4116,-0.0402 -1.6508,5.5522 -2.2763,10.74296 -3.0125,16.29516 0.2714,0.10675 0.4433,-0.16417 0.5984,-0.49868 2.7087,5.36348 8.3677,2.65309 11.4701,0.19948 z" style="fill:#ffccaa;fill-opacity:1;stroke:#550000;stroke-width:0.39183003;stroke-linecap:round;stroke-linejoin:round;stroke-miterlimit:4;stroke-dasharray:none;stroke-opacity:1"/> <path id="path15078" d="m 2257.0477,241.98949 c 2.6401,-1.75984 9.4728,-3.47318 14.9113,0.4987 4.9456,-2.55044 15.98,-2.64324 19.0236,1.60895 0.7514,1.12962 2.0218,2.69116 2.1711,5.47262 1.4281,-3.97592 9.5401,-4.34958 12.6173,-1.89508" style="fill:none;stroke:#550000;stroke-width:0.9832716;stroke-linecap:round;stroke-linejoin:round;stroke-miterlimit:4;stroke-dasharray:none;stroke-opacity:1"/> <path id="path14890" d="m 2249.0415,251.75687 c -10.4526,4.19029 -32.0431,14.35102 -29.2746,46.72335 -2.9948,-3.89215 -5.5501,-8.21522 -7.5836,-13.05297 -14.3424,-3.21058 -76.6963,86.77943 -76.169,107.20103 -1.1699,18.30322 2.8646,25.61051 8.463,40.90556 3.36,-14.95576 8.9731,-22.6498 16.9269,-30.18536 66.8594,21.64188 77.8616,156.28746 188.7302,115.94603 33.8341,-28.75391 53.7072,-62.27523 56.7038,-101.55902 -2.7952,-30.3636 -17.8369,-47.94276 -38.5216,-59.45458 3.4087,-17.40546 -15.5335,-64.76876 -44.1659,-81.01337 1.8175,8.79926 4.8663,15.14659 -1.8491,23.59204 10.1953,9.00801 14.612,20.68321 20.4983,31.67992 -4.8415,3.27481 -6.2099,7.93836 -7.793,12.51654 -31.4182,-9.20053 -66.8204,-13.81768 -92.4762,-27.81895 -2.1108,-4.75255 -3.317,-9.73149 -9.4709,-13.47322 -2.3662,-14.30395 -5.5002,-28.91931 15.2337,-33.85299 z" style="fill:#ffffff;fill-opacity:0.39256197;stroke:#9393ac;stroke-width:0.39121392px;stroke-linecap:round;stroke-linejoin:round;stroke-opacity:1"/> <path id="path14820" d="m 2232.7112,281.13755 6.8368,-9.53372 5.3601,-7.899 c 2.2049,-13.1826 10.9928,-22.06442 15.7981,-22.85078 7.4679,-1.70253 11.2528,1.63416 11.778,5.78321 l -1.4811,13.96433 c -0.507,3.7514 0.1588,7.69824 -1.7631,11.21381 -3.4146,5.00305 -6.3141,10.26359 -11.7434,14.25927" style="fill:#ffccaa;fill-opacity:1;stroke:#550000;stroke-width:0.29104167;stroke-linecap:round;stroke-linejoin:round;stroke-miterlimit:4;stroke-dasharray:none;stroke-opacity:1"/> <path id="path14822" d="m 2228.6218,272.46019 c 7.6449,-5.45334 9.7124,-11.33572 12.6894,-17.14811 1.0169,-2.32326 1.2852,-4.87104 0.4232,-7.75797 5.4924,0.47913 5.9357,-2.07132 7.9695,-3.66739 1.5493,-5.11288 4.8578,-7.28365 7.5465,-7.75797" style="fill:none;stroke:#550000;stroke-width:0.29104167;stroke-linecap:round;stroke-linejoin:round;stroke-miterlimit:4;stroke-dasharray:none;stroke-opacity:1"/> <path id="path14824" d="m 2278.9906,293.30587 c 4.0366,-6.73344 7.3851,-14.67112 12.3678,-19.7486 2.2522,-3.61566 3.3244,-7.6247 3.9897,-11.76932 -0.685,-9.48897 -2.6455,-13.98273 -4.3655,-17.69081 -4.0025,-3.50069 -11.5197,-4.15963 -19.0236,-1.60893 -3.9625,-2.9923 -8.5883,-3.5729 -14.0135,-1.24676" style="fill:none;stroke:#550000;stroke-width:0.39121392px;stroke-linecap:round;stroke-linejoin:round;stroke-opacity:1"/> <path id="path14826" d="m 2293.1537,249.56976 c 1.8143,-4.32762 10.1019,-3.32523 12.6173,-1.89508 5.4563,5.4155 8.7811,11.3763 8.5277,18.25247 -1.7186,6.54371 0.427,8.49868 -9.0763,24.28677 -0.8654,3.71017 -1.8261,7.36735 -5.0369,9.77455" style="fill:none;stroke:#550000;stroke-width:0.39121392px;stroke-linecap:round;stroke-linejoin:round;stroke-opacity:1"/> <path id="path14828" d="m 2314.2987,265.92715 c 2.5176,-0.68636 4.526,-0.15028 6.3834,0.74805 3.8764,1.80391 3.1917,8.77714 4.7876,13.16571 1.8002,3.11329 0.6794,6.71342 0.9973,10.07377" style="fill:#ffccaa;fill-opacity:1;stroke:#550000;stroke-width:0.39121392px;stroke-linecap:round;stroke-linejoin:round;stroke-opacity:1"/> <path id="path14830" d="m 2229.0208,237.05236 c 5.8972,1.56455 10.2013,4.98799 12.7136,10.50175" style="fill:none;stroke:#550000;stroke-width:0.29104167;stroke-linecap:round;stroke-linejoin:round;stroke-miterlimit:4;stroke-dasharray:none;stroke-opacity:1"/> <path id="path14832" d="m 2245.1787,232.16508 c 0.099,5.73882 0.7115,10.81144 4.5252,11.72164" style="fill:none;stroke:#550000;stroke-width:0.29104167;stroke-linecap:round;stroke-linejoin:round;stroke-miterlimit:4;stroke-dasharray:none;stroke-opacity:1"/> <path id="path14834" d="m 2294.3507,243.93443 c 17.4252,-5.85404 26.3416,-16.98734 18.8508,-38.30026" style="fill:none;stroke:#550000;stroke-width:0.29104167;stroke-linecap:round;stroke-linejoin:round;stroke-miterlimit:4;stroke-dasharray:none;stroke-opacity:1"/> <path id="path14836" d="m 2305.771,247.67468 c 5.8847,-7.63721 19.3153,-11.2362 18.3023,-25.78285" style="fill:none;stroke:#550000;stroke-width:0.29104167;stroke-linecap:round;stroke-linejoin:round;stroke-miterlimit:4;stroke-dasharray:none;stroke-opacity:1"/> <path id="path14838" d="m 2327.5643,230.46948 c -3.0176,0.68088 -5.5596,2.31273 -7.7799,4.58808" style="fill:none;stroke:#550000;stroke-width:0.29104167;stroke-linecap:round;stroke-linejoin:round;stroke-miterlimit:4;stroke-dasharray:none;stroke-opacity:1"/> <path id="path14840" d="m 2341.4779,246.47779 c 1.1802,1.17453 2.3606,0.84492 3.5408,0.74809" style="fill:none;stroke:#550000;stroke-width:0.29104167;stroke-linecap:round;stroke-linejoin:round;stroke-miterlimit:4;stroke-dasharray:none;stroke-opacity:1"/> <path id="path14842" d="m 2344.0213,251.61443 c -1.0833,1.22334 -2.5256,1.54885 -4.1392,1.44624" style="fill:none;stroke:#550000;stroke-width:0.29104167;stroke-linecap:round;stroke-linejoin:round;stroke-miterlimit:4;stroke-dasharray:none;stroke-opacity:1"/> <path id="path14844" d="m 2350.6042,238.6482 c -3.8052,-0.20153 -5.4972,-3.22076 -7.8297,-5.38596" style="fill:none;stroke:#550000;stroke-width:0.29104167;stroke-linecap:round;stroke-linejoin:round;stroke-miterlimit:4;stroke-dasharray:none;stroke-opacity:1"/> <path id="path14846" d="m 2347.9112,229.37235 c 0.6247,3.03963 2.1667,4.85607 4.3864,5.769" style="fill:none;stroke:#550000;stroke-width:0.29104167;stroke-linecap:round;stroke-linejoin:round;stroke-miterlimit:4;stroke-dasharray:none;stroke-opacity:1"/> <path id="path14848" d="m 2259.1423,273.05859 c 2.8649,1.12085 5.5326,0.26967 8.2786,0.19948" style="fill:none;stroke:#550000;stroke-width:0.29104167;stroke-linecap:round;stroke-linejoin:round;stroke-miterlimit:4;stroke-dasharray:none;stroke-opacity:1"/> <path id="path14850" d="m 2256.5491,268.27104 c 3.6052,1.06177 7.0988,1.11858 10.5725,0.99743" style="fill:none;stroke:#550000;stroke-width:0.29104167;stroke-linecap:round;stroke-linejoin:round;stroke-miterlimit:4;stroke-dasharray:none;stroke-opacity:1"/> <path id="path14852" d="m 2267.4209,288.11936 c 2.5885,2.17468 5.903,2.17235 9.2757,1.9948" style="fill:none;stroke:#550000;stroke-width:0.29104167;stroke-linecap:round;stroke-linejoin:round;stroke-miterlimit:4;stroke-dasharray:none;stroke-opacity:1"/> <path id="path14854" d="m 2282.3818,260.6908 c 0.9929,-0.85931 10.9089,2.85571 10.4728,3.79012" style="fill:none;stroke:#550000;stroke-width:0.29104167;stroke-linecap:round;stroke-linejoin:round;stroke-miterlimit:4;stroke-dasharray:none;stroke-opacity:1"/> <path id="path14856" d="m 2287.1694,266.6752 c 1.7441,0.58824 2.9634,0.38909 4.189,0.19947" style="fill:none;stroke:#550000;stroke-width:0.29104167;stroke-linecap:round;stroke-linejoin:round;stroke-miterlimit:4;stroke-dasharray:none;stroke-opacity:1"/> <path id="path14858" d="m 2301.7314,263.88247 c 4.1658,0.007 6.8891,1.74709 9.7746,3.29144" style="fill:none;stroke:#550000;stroke-width:0.29104167;stroke-linecap:round;stroke-linejoin:round;stroke-miterlimit:4;stroke-dasharray:none;stroke-opacity:1"/> <path id="path14860" d="m 2287.1694,295.99884 c 2.5914,1.93182 6.011,2.20755 9.3755,2.59323" style="fill:none;stroke:#550000;stroke-width:0.29104167;stroke-linecap:round;stroke-linejoin:round;stroke-miterlimit:4;stroke-dasharray:none;stroke-opacity:1"/> <path id="path14862" d="m 2293.9517,294.60247 c 1.2758,1.04749 2.7486,1.307 4.2889,1.29664" style="fill:none;stroke:#550000;stroke-width:0.29104167;stroke-linecap:round;stroke-linejoin:round;stroke-miterlimit:4;stroke-dasharray:none;stroke-opacity:1"/> <path id="path14864" d="m 2304.6239,305.97286 5.9843,1.9948" style="fill:none;stroke:#550000;stroke-width:0.29104167;stroke-linecap:round;stroke-linejoin:round;stroke-miterlimit:4;stroke-dasharray:none;stroke-opacity:1"/> <path id="path14866" d="m 2313.8997,294.90171 c 3.4354,1.38415 6.7797,1.33332 9.9741,0.2992" style="fill:none;stroke:#550000;stroke-width:0.29104167;stroke-linecap:round;stroke-linejoin:round;stroke-miterlimit:4;stroke-dasharray:none;stroke-opacity:1"/> <path id="path14868" d="m 2314.3486,268.91936 c -0.4466,2.63362 -0.7125,6.11931 -0.1005,9.82444 2.247,0.67681 4.5698,1.01355 7.0816,0.49867 0.8507,-2.82705 0.5863,-5.47215 0.6982,-8.17868 -1.057,-1.89415 -3.4039,-3.75074 -7.6793,-2.14443 z" style="fill:#ffe8d9;fill-opacity:1;stroke:#550000;stroke-width:0.29104167;stroke-linecap:round;stroke-linejoin:round;stroke-miterlimit:4;stroke-dasharray:none;stroke-opacity:1"/> <path id="path14870" d="m 2297.9911,248.17339 c 0.1213,6.6227 8.8544,9.43959 10.5727,8.17868 1.0194,-0.60958 0.6709,-2.58701 0.5484,-4.33868 -0.7367,-1.17301 -1.9222,-3.26556 -3.5065,-4.19075 -2.1227,-1.23944 -6.3897,-0.97258 -7.6146,0.35075 z" style="fill:#ffe8d9;fill-opacity:1;stroke:#550000;stroke-width:0.29104167;stroke-linecap:round;stroke-linejoin:round;stroke-miterlimit:4;stroke-dasharray:none;stroke-opacity:1"/> <path id="path14872" d="m 2279.639,241.29131 c -0.2438,1.61299 -0.4473,3.18605 0.3989,4.93713 2.871,2.91962 6.0898,4.34154 9.8245,3.5408 0.9163,-1.68391 1.5865,-3.46152 1.1202,-5.6721 -3.6778,-2.75393 -8.758,-2.96523 -11.3436,-2.80583 z" style="fill:#ffe8d9;fill-opacity:1;stroke:#550000;stroke-width:0.29104167;stroke-linecap:round;stroke-linejoin:round;stroke-miterlimit:4;stroke-dasharray:none;stroke-opacity:1"/> <path id="path14874" d="m 2259.9402,245.92921 c -0.2731,3.57715 -0.1906,8.94764 1.6956,11.81927 1.9027,1.3444 4.136,1.14538 6.4333,0.64828 1.5092,-3.8409 3.8062,-7.48481 3.3413,-11.81921 -0.9518,-4.78918 -10.6504,-6.12192 -11.4702,-0.64834 z" style="fill:#ffe8d9;fill-opacity:1;stroke:#550000;stroke-width:0.29104167;stroke-linecap:round;stroke-linejoin:round;stroke-miterlimit:4;stroke-dasharray:none;stroke-opacity:1"/> <circle style="fill:#bbd5fc;fill-opacity:1;stroke:#e6ecff;stroke-width:0.39183003;stroke-linecap:round;stroke-linejoin:round;stroke-miterlimit:4;stroke-dasharray:none;stroke-opacity:1" id="circle15054" cx="2138.6843" cy="547.84766" r="3.6903896"/> <path id="path14884" d="m 2391.8865,382.19019 c -43.9116,-18.50653 -119.0911,21.25851 -220.0444,5.36006 -8.9188,-0.435 -17.982,1.58369 -27.6465,13.82328 -4.9703,5.67908 -5.4199,17.33768 -2.8473,22.96106 2.4942,5.45195 -7.0181,7.46306 -12.6687,15.40563 -10.6235,17.49044 -15.0047,42.50493 -10.438,50.21525 -0.7117,6.92241 2.5809,7.17101 5.0779,8.74535 4.5318,16.85112 1.17,34.24774 1.4106,48.52258 0.2406,14.27484 -19.6092,-2.06255 -25.6718,-1.69266 -6.0626,0.36989 -5.8173,2.1364 -6.2064,5.92426 0.2568,2.41963 -1.5635,2.76218 -3.6674,2.82109 2.7583,22.00442 2.911,44.00885 3.6674,66.01328 21.1193,5.7502 42.8267,6.64894 65.449,0 -1.5342,-24.7167 0.7315,-51.33324 3.3853,-78.14393 -5.8211,-3.99616 -14.034,-2.21156 -27.3644,9.30956 -3.3211,0.44281 -4.0642,-12.54666 0,-31.59608 4.0643,-19.04941 -6.0135,-36.83226 -3.5262,-54.72898 2.4873,-17.89673 5.0779,-12.41277 5.0779,-12.41277 6.0176,1.61247 6.3275,-16.10729 8.6043,-19.18333 -0.064,-8.80563 5.4808,-29.04424 16.9606,-31.50417 4.27,-0.91502 22.0596,4.46734 50.1967,39.6734 34.0145,42.56016 75.1395,102.97722 133.2803,75.6169 35.2895,-27.4503 56.5705,-61.09051 59.5249,-102.82842 -1.8076,-12.58481 -4.4354,-24.5424 -12.5538,-32.30136 z" style="fill:#b1d0ff;fill-opacity:1;stroke:#a9dcff;stroke-width:0.39121392px;stroke-linecap:round;stroke-linejoin:round;stroke-opacity:1"/> <path id="path15624" d="m 2084.0982,523.30689 c 37.3225,4.59653 63.2327,3.07322 81.388,-0.59845" style="fill:#d7e3f4;fill-opacity:0.03921569;stroke:#c5c5d2;stroke-width:0.39121392px;stroke-linecap:round;stroke-linejoin:round;stroke-opacity:1"/> <path id="path14886" d="m 2084.0982,523.30689 c 27.696,3.7671 54.6879,3.41001 81.388,-0.59845 -1.4882,37.031 -3.8385,74.18515 -1.7953,110.71167 -5.9357,9.6124 -68.1304,8.62608 -73.2092,1.59588 -0.8791,-37.73587 -2.8467,-75.03631 -6.3835,-111.7091 z" style="fill:#d7e3f4;fill-opacity:0.26033062;stroke:#c5c5d2;stroke-width:0.39121392px;stroke-linecap:round;stroke-linejoin:round;stroke-opacity:1"/> <path id="path14894" d="m 2092.1466,624.37994 c 20.0722,7.3254 43.0263,7.62572 69.1166,0.2821" style="fill:none;stroke:#9393ac;stroke-width:0.39121392px;stroke-linecap:round;stroke-linejoin:round;stroke-opacity:1"/> <path id="path14896" d="m 2159.8526,631.8558 c 0.688,2.7277 -30.8796,7.08842 -32.7246,3.80847" style="fill:none;stroke:#9393ac;stroke-width:0.39121392px;stroke-linecap:round;stroke-linejoin:round;stroke-opacity:1"/> <path id="path14898" d="m 2271.9726,253.08132 c -0.3201,2.54286 0.5049,4.5045 1.6321,6.31283" style="fill:none;stroke:#550000;stroke-width:0.39121392px;stroke-linecap:round;stroke-linejoin:round;stroke-opacity:1"/> <path id="path14880" d="m 2342.7996,512.80619 c 14.3156,-34.16591 32.1969,-66.44533 56.9859,-95.07039" style="fill:none;stroke:#9393ac;stroke-width:0.39121392px;stroke-linecap:round;stroke-linejoin:round;stroke-opacity:1"/> <path id="path14882" d="m 2405.2513,417.20685 c -11.6116,35.74285 -32.7574,66.76684 -58.731,98.78625" style="fill:none;stroke:#9393ac;stroke-width:0.39121392px;stroke-linecap:round;stroke-linejoin:round;stroke-opacity:1"/> <path id="path14878" d="m 2150.1198,398.55244 c 41.0728,-35.45157 63.8704,-85.57277 62.6281,-106.35472" style="fill:none;stroke:#9393ac;stroke-width:0.39121392px;stroke-linecap:round;stroke-linejoin:round;stroke-opacity:1"/> <circle r="2.692987" cy="565.29761" cx="2114.3196" id="path14988" style="fill:#e2f0fd;fill-opacity:0.25882341;stroke:#e6ecff;stroke-width:0.39183003;stroke-linecap:round;stroke-linejoin:round;stroke-miterlimit:4;stroke-dasharray:none;stroke-opacity:1"/> <circle r="3.8898699" cy="563.30267" cx="2124.4929" id="path14990" style="fill:#e2f0fd;fill-opacity:0.25882341;stroke:#e6ecff;stroke-width:0.39183003;stroke-linecap:round;stroke-linejoin:round;stroke-miterlimit:4;stroke-dasharray:none;stroke-opacity:1"/> <circle r="1.5958443" cy="569.18732" cx="2120.0046" id="path14992" style="fill:#e2f0fd;fill-opacity:0.25882341;stroke:#e6ecff;stroke-width:0.39183003;stroke-linecap:round;stroke-linejoin:round;stroke-miterlimit:4;stroke-dasharray:none;stroke-opacity:1"/> <circle r="1.6955844" cy="574.27417" cx="2110.729" id="path14994" style="fill:#e2f0fd;fill-opacity:0.25882341;stroke:#e6ecff;stroke-width:0.39183003;stroke-linecap:round;stroke-linejoin:round;stroke-miterlimit:4;stroke-dasharray:none;stroke-opacity:1"/> <circle r="3.6903896" cy="555.32355" cx="2102.1514" id="path14996" style="fill:#e2f0fd;fill-opacity:0.25882341;stroke:#e6ecff;stroke-width:0.39183003;stroke-linecap:round;stroke-linejoin:round;stroke-miterlimit:4;stroke-dasharray:none;stroke-opacity:1"/> <circle r="0.8976624" cy="572.67828" cx="2117.1121" id="path14998" style="fill:#e2f0fd;fill-opacity:0.25882341;stroke:#e6ecff;stroke-width:0.39183003;stroke-linecap:round;stroke-linejoin:round;stroke-miterlimit:4;stroke-dasharray:none;stroke-opacity:1"/> <circle r="0.99740255" cy="577.36615" cx="2116.0151" id="path15000" style="fill:#e2f0fd;fill-opacity:0.25882341;stroke:#e6ecff;stroke-width:0.39183003;stroke-linecap:round;stroke-linejoin:round;stroke-miterlimit:4;stroke-dasharray:none;stroke-opacity:1"/> <circle r="1.3963636" cy="572.37909" cx="2125.1914" id="path15002" style="fill:#e2f0fd;fill-opacity:0.25882341;stroke:#e6ecff;stroke-width:0.39183003;stroke-linecap:round;stroke-linejoin:round;stroke-miterlimit:4;stroke-dasharray:none;stroke-opacity:1"/> <ellipse ry="0.6155805" rx="0.63362181" cy="578.12384" cx="2121.7998" id="path15004" style="fill:#e2f0fd;fill-opacity:0.25882341;stroke:#e6ecff;stroke-width:0.3214694;stroke-linecap:round;stroke-linejoin:round;stroke-miterlimit:4;stroke-dasharray:none;stroke-opacity:1"/> <circle r="2.692987" cy="593.42426" cx="2124.2937" id="path15006" style="fill:#e2f0fd;fill-opacity:0.25882341;stroke:#e6ecff;stroke-width:0.39183003;stroke-linecap:round;stroke-linejoin:round;stroke-miterlimit:4;stroke-dasharray:none;stroke-opacity:1"/> <circle r="1.0971428" cy="600.00714" cx="2128.2832" id="path15008" style="fill:#e2f0fd;fill-opacity:0.25882341;stroke:#e6ecff;stroke-width:0.39183003;stroke-linecap:round;stroke-linejoin:round;stroke-miterlimit:4;stroke-dasharray:none;stroke-opacity:1"/> <circle r="1.1968831" cy="606.09125" cx="2127.1863" id="path15010" style="fill:#e2f0fd;fill-opacity:0.25882341;stroke:#e6ecff;stroke-width:0.39183003;stroke-linecap:round;stroke-linejoin:round;stroke-miterlimit:4;stroke-dasharray:none;stroke-opacity:1"/> <circle r="1.4961039" cy="612.97339" cx="2125.0918" id="path15012" style="fill:#e2f0fd;fill-opacity:0.25882341;stroke:#e6ecff;stroke-width:0.39183003;stroke-linecap:round;stroke-linejoin:round;stroke-miterlimit:4;stroke-dasharray:none;stroke-opacity:1"/> <circle r="1.1968831" cy="610.08087" cx="2129.7795" id="path15014" style="fill:#e2f0fd;fill-opacity:0.25882341;stroke:#e6ecff;stroke-width:0.39183003;stroke-linecap:round;stroke-linejoin:round;stroke-miterlimit:4;stroke-dasharray:none;stroke-opacity:1"/> <circle r="1.8950649" cy="619.35669" cx="2124.4929" id="path15016" style="fill:#e2f0fd;fill-opacity:0.25882341;stroke:#e6ecff;stroke-width:0.39183003;stroke-linecap:round;stroke-linejoin:round;stroke-miterlimit:4;stroke-dasharray:none;stroke-opacity:1"/> <circle r="0.99740255" cy="608.28558" cx="2123.3958" id="path15018" style="fill:#e2f0fd;fill-opacity:0.25882341;stroke:#e6ecff;stroke-width:0.39183003;stroke-linecap:round;stroke-linejoin:round;stroke-miterlimit:4;stroke-dasharray:none;stroke-opacity:1"/> <circle style="fill:#e2f0fd;fill-opacity:0.25882341;stroke:#e6ecff;stroke-width:0.39183003;stroke-linecap:round;stroke-linejoin:round;stroke-miterlimit:4;stroke-dasharray:none;stroke-opacity:1" id="circle15020" cx="2130.4775" cy="555.92194" r="2.692987"/> <circle style="fill:#e2f0fd;fill-opacity:0.25882341;stroke:#e6ecff;stroke-width:0.39183003;stroke-linecap:round;stroke-linejoin:round;stroke-miterlimit:4;stroke-dasharray:none;stroke-opacity:1" id="circle15022" cx="2131.9739" cy="562.40509" r="1.0971428"/> <circle style="fill:#e2f0fd;fill-opacity:0.25882341;stroke:#e6ecff;stroke-width:0.39183003;stroke-linecap:round;stroke-linejoin:round;stroke-miterlimit:4;stroke-dasharray:none;stroke-opacity:1" id="circle15024" cx="2134.0684" cy="567.1925" r="1.1968831"/> <circle style="fill:#e2f0fd;fill-opacity:0.25882341;stroke:#e6ecff;stroke-width:0.39183003;stroke-linecap:round;stroke-linejoin:round;stroke-miterlimit:4;stroke-dasharray:none;stroke-opacity:1" id="circle15026" cx="2131.2759" cy="575.47101" r="1.4961039"/> <circle style="fill:#e2f0fd;fill-opacity:0.25882341;stroke:#e6ecff;stroke-width:0.39183003;stroke-linecap:round;stroke-linejoin:round;stroke-miterlimit:4;stroke-dasharray:none;stroke-opacity:1" id="circle15028" cx="2135.9636" cy="572.57855" r="1.1968831"/> <circle style="fill:#e2f0fd;fill-opacity:0.25882341;stroke:#e6ecff;stroke-width:0.39183003;stroke-linecap:round;stroke-linejoin:round;stroke-miterlimit:4;stroke-dasharray:none;stroke-opacity:1" id="circle15030" cx="2130.677" cy="581.85437" r="1.8950649"/> <circle style="fill:#e2f0fd;fill-opacity:0.25882341;stroke:#e6ecff;stroke-width:0.39183003;stroke-linecap:round;stroke-linejoin:round;stroke-miterlimit:4;stroke-dasharray:none;stroke-opacity:1" id="circle15032" cx="2130.4775" cy="571.28198" r="0.99740255"/> <circle transform="scale(1,-1)" style="fill:#e2f0fd;fill-opacity:0.25882341;stroke:#e6ecff;stroke-width:0.39183003;stroke-linecap:round;stroke-linejoin:round;stroke-miterlimit:4;stroke-dasharray:none;stroke-opacity:1" id="circle15034" cx="2110.729" cy="-586.85474" r="1.6955844"/> <circle transform="scale(1,-1)" style="fill:#e2f0fd;fill-opacity:0.25882341;stroke:#e6ecff;stroke-width:0.39183003;stroke-linecap:round;stroke-linejoin:round;stroke-miterlimit:4;stroke-dasharray:none;stroke-opacity:1" id="circle15036" cx="2117.1121" cy="-588.45068" r="0.8976624"/> <circle transform="scale(1,-1)" style="fill:#e2f0fd;fill-opacity:0.25882341;stroke:#e6ecff;stroke-width:0.39183003;stroke-linecap:round;stroke-linejoin:round;stroke-miterlimit:4;stroke-dasharray:none;stroke-opacity:1" id="circle15038" cx="2116.0151" cy="-583.76282" r="0.99740255"/> <circle transform="scale(1,-1)" style="fill:#e2f0fd;fill-opacity:0.25882341;stroke:#e6ecff;stroke-width:0.39183003;stroke-linecap:round;stroke-linejoin:round;stroke-miterlimit:4;stroke-dasharray:none;stroke-opacity:1" id="circle15040" cx="2125.1914" cy="-588.74988" r="1.3963636"/> <ellipse transform="scale(1,-1)" style="fill:#e2f0fd;fill-opacity:0.25882341;stroke:#e6ecff;stroke-width:0.3214694;stroke-linecap:round;stroke-linejoin:round;stroke-miterlimit:4;stroke-dasharray:none;stroke-opacity:1" id="ellipse15042" cx="2121.7998" cy="-583.00513" rx="0.63362181" ry="0.6155805"/> <circle transform="scale(1,-1)" r="1.0971428" cy="-598.62415" cx="2134.4673" id="circle15044" style="fill:#e2f0fd;fill-opacity:0.25882341;stroke:#e6ecff;stroke-width:0.39183003;stroke-linecap:round;stroke-linejoin:round;stroke-miterlimit:4;stroke-dasharray:none;stroke-opacity:1"/> <circle transform="scale(1,-1)" r="1.1968831" cy="-592.54004" cx="2133.3704" id="circle15046" style="fill:#e2f0fd;fill-opacity:0.25882341;stroke:#e6ecff;stroke-width:0.39183003;stroke-linecap:round;stroke-linejoin:round;stroke-miterlimit:4;stroke-dasharray:none;stroke-opacity:1"/> <circle transform="scale(1,-1)" r="1.4961039" cy="-586.25635" cx="2129.0813" id="circle15048" style="fill:#e2f0fd;fill-opacity:0.25882341;stroke:#e6ecff;stroke-width:0.39183003;stroke-linecap:round;stroke-linejoin:round;stroke-miterlimit:4;stroke-dasharray:none;stroke-opacity:1"/> <circle transform="scale(1,-1)" r="1.1968831" cy="-588.55042" cx="2135.9636" id="circle15050" style="fill:#e2f0fd;fill-opacity:0.25882341;stroke:#e6ecff;stroke-width:0.39183003;stroke-linecap:round;stroke-linejoin:round;stroke-miterlimit:4;stroke-dasharray:none;stroke-opacity:1"/> <circle transform="scale(1,-1)" r="0.99740255" cy="-590.3457" cx="2129.5798" id="circle15052" style="fill:#e2f0fd;fill-opacity:0.25882341;stroke:#e6ecff;stroke-width:0.39183003;stroke-linecap:round;stroke-linejoin:round;stroke-miterlimit:4;stroke-dasharray:none;stroke-opacity:1"/> <circle style="fill:#e2f0fd;fill-opacity:0.25882341;stroke:#e6ecff;stroke-width:0.39183003;stroke-linecap:round;stroke-linejoin:round;stroke-miterlimit:4;stroke-dasharray:none;stroke-opacity:1" id="circle15056" cx="2118.9578" cy="559.86169" r="1.4646531"/> <circle r="1.4646531" cy="554.67517" cx="2114.7686" id="circle15058" style="fill:#e2f0fd;fill-opacity:0.25882341;stroke:#e6ecff;stroke-width:0.39183003;stroke-linecap:round;stroke-linejoin:round;stroke-miterlimit:4;stroke-dasharray:none;stroke-opacity:1"/> <ellipse style="fill:#e2f0fd;fill-opacity:0.25882341;stroke:#e6ecff;stroke-width:0.3214694;stroke-linecap:round;stroke-linejoin:round;stroke-miterlimit:4;stroke-dasharray:none;stroke-opacity:1" id="ellipse15060" cx="2135.7637" cy="552.39087" rx="0.63362181" ry="0.6155805"/> <circle r="0.99740255" cy="-558.02985" cx="2134.7661" id="circle15062" style="fill:#e2f0fd;fill-opacity:0.25882341;stroke:#e6ecff;stroke-width:0.39183003;stroke-linecap:round;stroke-linejoin:round;stroke-miterlimit:4;stroke-dasharray:none;stroke-opacity:1" transform="scale(1,-1)"/> <ellipse ry="0.6155805" rx="0.63362181" cy="-556.17499" cx="2138.1572" id="ellipse15064" style="fill:#e2f0fd;fill-opacity:0.25882341;stroke:#e6ecff;stroke-width:0.3214694;stroke-linecap:round;stroke-linejoin:round;stroke-miterlimit:4;stroke-dasharray:none;stroke-opacity:1" transform="scale(1,-1)"/> <ellipse style="fill:#e2f0fd;fill-opacity:0.25882341;stroke:#e6ecff;stroke-width:0.3214694;stroke-linecap:round;stroke-linejoin:round;stroke-miterlimit:4;stroke-dasharray:none;stroke-opacity:1" id="ellipse15066" cx="2136.4617" cy="563.96069" rx="0.63362181" ry="0.6155805"/> <ellipse ry="0.6155805" rx="0.63362181" cy="565.95551" cx="2130.677" id="ellipse15068" style="fill:#e2f0fd;fill-opacity:0.25882341;stroke:#e6ecff;stroke-width:0.3214694;stroke-linecap:round;stroke-linejoin:round;stroke-miterlimit:4;stroke-dasharray:none;stroke-opacity:1"/> <ellipse style="fill:#e2f0fd;fill-opacity:0.25882341;stroke:#e6ecff;stroke-width:0.3214694;stroke-linecap:round;stroke-linejoin:round;stroke-miterlimit:4;stroke-dasharray:none;stroke-opacity:1" id="ellipse15070" cx="2125.8894" cy="556.97894" rx="0.63362181" ry="0.6155805"/> <path id="path15072" d="m 2219.5658,256.46424 c 0.033,-0.54768 1.9622,-1.10011 2.3506,-0.0942 0.8765,6.18422 -2.2564,12.91186 -4.7647,15.89072 -0.022,0.0191 -0.361,0.39325 -0.4986,0.34284 0.7725,-5.43174 1.4874,-10.70763 2.9127,-16.13937 z" style="fill:#ffe8d9;fill-opacity:1;stroke:#550000;stroke-width:0.29104167;stroke-linecap:butt;stroke-linejoin:miter;stroke-miterlimit:4;stroke-dasharray:none;stroke-opacity:1"/> <path id="path15074" d="m 2217.8258,236.19928 c 1.7593,-0.56542 2.983,-0.36566 4.0906,0" style="fill:none;stroke:#550000;stroke-width:0.29104167;stroke-linecap:round;stroke-linejoin:round;stroke-miterlimit:4;stroke-dasharray:none;stroke-opacity:1"/> <path id="path15076" d="m 2216.4152,237.36298 c 2.1276,-0.42933 4.2552,-0.61193 6.3827,-0.10587" style="fill:none;stroke:#550000;stroke-width:0.29104167;stroke-linecap:round;stroke-linejoin:round;stroke-miterlimit:4;stroke-dasharray:none;stroke-opacity:1"/> </g> <rect style="opacity:1;fill:none;fill-opacity:1;stroke:#ffffff;stroke-width:1.01345539;stroke-linecap:round;stroke-linejoin:round;stroke-miterlimit:4;stroke-dasharray:none;stroke-dashoffset:0;stroke-opacity:1" id="rect13306" width="63.992512" height="63.992512" x="62.195175" y="216.32018" ry="0.26094887"/> </g> </svg>