<svg id="Слой_1" data-name="Слой 1" xmlns="http://www.w3.org/2000/svg" viewBox="0 0 580.08 595.28"><defs><style>.cls-1{fill:#789b2b;}.cls-2{fill:#95c122;}.cls-3{fill:#f39208;}.cls-4{fill:#fff;}.cls-5{fill:#1e1e1c;}.cls-17,.cls-19,.cls-21,.cls-22,.cls-24,.cls-27,.cls-6{fill:none;stroke:#1e1e1c;stroke-linecap:round;stroke-miterlimit:10;}.cls-6{stroke-width:2.11px;}.cls-7{fill:#e52824;}.cls-8{fill:#fab73f;}.cls-9{fill:#e48305;}.cls-10{fill:#683d14;}.cls-11{fill:#f28f37;}.cls-12{fill:#992e15;}.cls-13{fill:#ef7c20;}.cls-14{fill:#fab334;}.cls-15{fill:#e5162c;}.cls-16{fill:#d31030;}.cls-17{stroke-width:1.23px;}.cls-18{fill:#ef7d9b;}.cls-19{stroke-width:1.25px;}.cls-20{fill:#f7d437;}.cls-21{stroke-width:0.89px;}.cls-22{stroke-width:0.9px;}.cls-23{fill:#afcc3f;}.cls-24{stroke-width:1.86px;}.cls-25{fill:#87ae27;}.cls-26{fill:#eec211;}.cls-27{stroke-width:2.07px;}.cls-28{fill:#644f43;opacity:0.4;}.cls-29{fill:#e6352b;}.cls-30{fill:#ea4e4d;}.cls-31{fill:#cf1d19;}.cls-32{fill:#871811;}.cls-33{fill:#eeeded;}.cls-34{fill:#dadada;}</style></defs><title>Монтажная область 1</title><path class="cls-1" d="M328.42,253.43v0l.59,0c31.7-2.41,57.13,9,58.08,45.34C355.3,308,335,283.26,328.42,253.43Z"/><path class="cls-2" d="M328.42,253.43c13.65,17.34,34.21,35.79,58.66,45.25C355.3,308,335,283.26,328.42,253.43Z"/><path class="cls-1" d="M415.38,235.12h0l-.08.59c-4.92,31.41-21.83,53.56-57.43,46.16C356.12,248.8,384.82,234.73,415.38,235.12Z"/><path class="cls-2" d="M415.38,235.12c-20,9.32-42.68,25.11-57.48,46.75C356.12,248.8,384.82,234.73,415.38,235.12Z"/><path class="cls-3" d="M335,277.39a113,113,0,0,1,56.78-13.85c30.65.95,46,6.22,62.7,33,23.56,37.75,14,109.2-58.71,123.78-38.94,7.81-69.54-4.32-91.2-42.49-19.62-34.57-5.82-80.75,24.92-97Z"/><circle class="cls-4" cx="353.78" cy="350.75" r="16.01" transform="translate(-57.71 69.93) rotate(-10.44)"/><circle class="cls-5" cx="355.47" cy="350.44" r="12.87" transform="translate(-57.61 70.21) rotate(-10.44)"/><circle class="cls-4" cx="348.72" cy="347.72" r="3.89" transform="translate(-57.25 68.97) rotate(-10.44)"/><circle class="cls-4" cx="410.57" cy="340.2" r="16.01" transform="translate(-54.85 80.03) rotate(-10.44)"/><circle class="cls-5" cx="409.56" cy="340.47" r="13.01" transform="matrix(0.98, -0.18, 0.18, 0.98, -54.93, 79.88)"/><circle class="cls-4" cx="402.84" cy="337.75" r="3.89" transform="translate(-54.55 78.61) rotate(-10.44)"/><path class="cls-6" d="M377.83,367s2.8,10.14,10.6,8.71,5.8-11.73,5.8-11.73"/><path class="cls-7" d="M418.48,359c-3.28.63-6.7.51-8.79,3.42-4.19,5.83,5.48,4.93,8.43,4.39,2.68-.49,10.9-1.65,11.05-5.36.19-4.63-7.71-2.75-10-2.61Z"/><path class="cls-7" d="M352.29,371.23c-3.28.63-6.69.51-8.79,3.42-4.19,5.83,5.48,4.93,8.43,4.39,2.69-.49,10.9-1.65,11.05-5.36.19-4.63-7.71-2.74-10-2.61Z"/><path class="cls-8" d="M324,307.46c2.45,2.88,3.69,3.34,7.12,3s7.34-3.6,6.89-7.13c-1-8-16.23-2.55-14.33,3.62Z"/><path class="cls-8" d="M315.82,315.63c2.49-2.34,10.74-5.72,8,1.13a6.54,6.54,0,0,1-5.22,3.57c-2.78.06-4.35-1.57-2.94-4.54Z"/><path class="cls-8" d="M333.1,313.23c1.06-.27,2.58-.15,3.18.67,2.56,5.05-14.76,8.75-5.75.48a10.13,10.13,0,0,1,1.25-.8A9,9,0,0,1,333.1,313.23Z"/><path class="cls-9" d="M454.52,296.5c-10.26-16.44-20-24.76-33.14-29,0,0,38.92,25.75,23.88,90.48-6.07,26.12-24.87,51.57-49.44,62.26C468.52,405.7,478.08,334.25,454.52,296.5Z"/><path class="cls-10" d="M459.47,127.17c-11.62,5-26,23.12-25.9,36,8.57-12.15,17.59-20.28,30.12-24a111.68,111.68,0,0,0-3.92-11Z"/><path class="cls-1" d="M410.61,108.95h0v.4c.94,21.28,10.56,37.28,34.82,35C449.06,122.45,431,111,410.61,108.95Z"/><path class="cls-2" d="M410.61,108.95c12.63,7.69,26.55,19.89,34.8,35.39C449.06,122.45,431,111,410.61,108.95Z"/><path class="cls-11" d="M434.5,161c15.7-9.22,34.76,2.55,43,8.18,27,18.4,31.84,51.88,16.76,81.48-18.31,35.93-66.75,51-94.73,21.25-5.14-5.46-5.56-5.65-8.88-12.17-3.86-7.58-10.08-5.74-17.25-11.09-11.13-8.31-13.65-25.92-13-41.21.69-16.28,13.67-37.83,26-47.25,12.69-9.66,32.59-16.11,47.54.52Z"/><circle class="cls-4" cx="417.29" cy="206.46" r="13.02" transform="translate(-0.85 411.18) rotate(-52.41)"/><circle class="cls-5" cx="418.4" cy="207.31" r="10.46" transform="translate(-1.1 412.38) rotate(-52.41)"/><circle class="cls-4" cx="416.37" cy="201.76" r="3.16" transform="translate(2.43 408.45) rotate(-52.39)"/><circle class="cls-4" cx="454.54" cy="235.04" r="13.02" transform="translate(-8.97 451.86) rotate(-52.41)"/><circle class="cls-5" cx="453.82" cy="234.58" r="10.57" transform="translate(-8.88 451.12) rotate(-52.41)"/><circle class="cls-4" cx="451.81" cy="229.04" r="3.16" transform="translate(-5.3 447.31) rotate(-52.41)"/><path class="cls-7" d="M447.45,250.06c-2.16-1.64-3.95-3.77-6.85-3.45-5.8.64,0,6,1.93,7.48,1.76,1.36,6.92,5.69,9.25,3.76,2.9-2.4-2.53-6.15-3.84-7.44Z"/><path class="cls-7" d="M404.1,216.69c-2.16-1.64-3.95-3.77-6.85-3.45-5.81.64,0,6,1.93,7.48,1.76,1.36,6.92,5.69,9.25,3.77,2.9-2.4-2.53-6.16-3.84-7.44Z"/><path class="cls-12" d="M418.82,226.49s-8.2,12.4-.93,18,16.23-6.22,16.23-6.22Z"/><path class="cls-13" d="M417.89,244.48c2.81,2.16,5.87,1.72,8.58.37a12.52,12.52,0,0,0-4.22-5.66,12.28,12.28,0,0,0-7.28-2.66C414.64,239.47,415.23,242.43,417.89,244.48Z"/><path class="cls-14" d="M421,158.23c-4.58-3.53-14-4.85-23.92,1.13-4,2.38-14.14,8.57-24.77,27.17-10.07,17.62-5,44.66-2.48,49,1.79,3.11,5.34,10.59,14.09,10.69,0,0-3.4-9.42-3.52-13.31-.31-10.08.47-22.29,4.8-32.32a72.68,72.68,0,0,1,20.1-26.71c15.4-13.16,22.86-9.63,22.12-10.73"/><path class="cls-13" d="M494.28,250.63a74.06,74.06,0,0,0,8.44-34.26s-8.73,31.19-30,46.06-41.52,23.27-75,7.41l1.92,2C427.53,301.63,476,286.56,494.28,250.63Z"/><path class="cls-2" d="M375.9,92v0l-.29.15c-15.39,8.21-23.83,21-13.58,38.08C379.48,125.13,381.6,107.73,375.9,92Z"/><path class="cls-1" d="M375.9,92c-1.23,12-5.33,26.64-13.88,38.21C379.48,125.13,381.6,107.73,375.9,92Z"/><path class="cls-2" d="M308.89,124.15v0l.3-.14c15.89-7.2,31.14-6.11,38.46,12.45C333,147.21,317.91,138.28,308.89,124.15Z"/><path class="cls-1" d="M308.89,124.15c10.3,6.37,24.36,12,38.74,12.3C333,147.21,317.91,138.28,308.89,124.15Z"/><path class="cls-2" d="M334.3,89.79h0l-.11.31c-5.67,16.5-3.15,31.58,16,37.12C359.54,111.63,349.22,97.45,334.3,89.79Z"/><path class="cls-1" d="M334.3,89.79c7.31,9.65,14.26,23.13,15.89,37.42C359.54,111.63,349.22,97.45,334.3,89.79Z"/><path class="cls-2" d="M364.7,86.39v0l-.29.15c-15.39,8.2-23.83,21-13.58,38.08C368.28,119.56,370.4,102.16,364.7,86.39Z"/><path class="cls-1" d="M364.7,86.39c-1.23,12-5.33,26.64-13.88,38.21C368.28,119.56,370.4,102.16,364.7,86.39Z"/><path class="cls-2" d="M311.84,112.42v0l.29-.14c15.89-7.2,31.14-6.1,38.46,12.46C335.95,135.48,320.86,126.55,311.84,112.42Z"/><path class="cls-1" d="M311.84,112.42c10.3,6.37,24.36,12,38.74,12.3C335.95,135.48,320.86,126.55,311.84,112.42Z"/><path class="cls-15" d="M330.63,114.84C341.34,107.07,376,95,387.4,101.06c16.29,8.71,16.41,41.84,17.07,57.75C405,170.72,402.69,191,390.9,200s-31.35-4.48-41.61-10.86c-13.93-8.68-27.7-25.52-33.86-34.68C304.26,137.83,317,124,328.87,116Z"/><path class="cls-16" d="M390.9,200C402.69,191,405,170.72,404.47,158.8c-.66-15.9-.78-49-17.07-57.75a15.65,15.65,0,0,0-6-1.55h0s13.52,4.86,16.16,48.29c.27,4.47,2.8,39.51-9,53.65A13.91,13.91,0,0,0,390.9,200Z"/><path class="cls-17" d="M368.05,167.51s3.18,5.25,7.33,3.2,1.4-7.5,1.4-7.5"/><path class="cls-18" d="M388.75,157c-1.74.87-3.68,1.34-4.39,3.31-1.43,3.94,3.85,1.9,5.42,1.12s5.85-2.65,5.35-4.76c-.63-2.63-4.76-.32-6,.12Z"/><path class="cls-18" d="M355.79,173.22c-1.74.87-3.68,1.34-4.39,3.31-1.43,3.94,3.86,1.89,5.42,1.12s5.85-2.65,5.35-4.76c-.63-2.63-4.76-.32-6,.12Z"/><path class="cls-19" d="M391.69,150.62s-5.4-9.22-11.36-6.28-1.18,12.46-1.18,12.46"/><path class="cls-19" d="M349,171.65s-4-9.9,1.94-12.83,10.59,6.66,10.59,6.66"/><path class="cls-20" d="M370.64,111.46a2.06,2.06,0,0,1,.59.3.45.45,0,1,1-.59-.3Z"/><path class="cls-20" d="M389.82,189a2.07,2.07,0,0,1,1.28,1.19.87.87,0,1,1-1.28-1.19Z"/><path class="cls-20" d="M380.75,180.26a2.06,2.06,0,0,1,.59.3,1.91,1.91,0,0,1,.76,2,.45.45,0,1,1-.84.31,1.91,1.91,0,0,1-.75-2A2,2,0,0,1,380.75,180.26Z"/><path class="cls-20" d="M362,126.75a2.07,2.07,0,0,1,.59.3,1.91,1.91,0,0,1,.76,2,2.06,2.06,0,0,1-.25.61,2.05,2.05,0,0,1-1.28-1.19,2,2,0,0,1-.07-1.12A2.09,2.09,0,0,1,362,126.75Z"/><path class="cls-20" d="M346.92,129.73a2.05,2.05,0,0,1,1.28,1.19,2,2,0,0,1,.07,1.12,2.05,2.05,0,0,1-.25.61,2.08,2.08,0,0,1-.59-.3,2,2,0,0,1-.69-.89,2,2,0,0,1-.07-1.12A2.09,2.09,0,0,1,346.92,129.73Z"/><path class="cls-20" d="M384,112.46a2.06,2.06,0,0,1,1.28,1.19,2,2,0,0,1,.07,1.12,2.05,2.05,0,0,1-.25.61,2,2,0,0,1-1.28-1.19,2,2,0,0,1-.07-1.12A2.09,2.09,0,0,1,384,112.46Z"/><path class="cls-20" d="M396.8,142.67a2.06,2.06,0,0,1,1.28,1.19,2,2,0,0,1,.07,1.12,2.05,2.05,0,0,1-.25.61,2,2,0,0,1-1.28-1.19,2,2,0,0,1-.07-1.12A2.05,2.05,0,0,1,396.8,142.67Z"/><path class="cls-20" d="M362.47,184.55a2.39,2.39,0,0,1,.73.17,2.93,2.93,0,0,1,1.11.8,2.89,2.89,0,0,1,.6,1.22,2.38,2.38,0,0,1,0,.75,2.36,2.36,0,0,1-.73-.17,2.81,2.81,0,0,1-1.71-2A2.44,2.44,0,0,1,362.47,184.55Z"/><path class="cls-20" d="M321,140.75a2.08,2.08,0,0,1,.66.09,2,2,0,0,1,1.43,1.68,2,2,0,0,1,0,.67,2,2,0,0,1-.66-.09,2.1,2.1,0,0,1-1-.63,2.12,2.12,0,0,1-.46-1.05A2.08,2.08,0,0,1,321,140.75Z"/><path class="cls-20" d="M339.81,144.34a2.67,2.67,0,0,1,.73.37,3.67,3.67,0,0,1,1,1.13,3.63,3.63,0,0,1,.47,1.46,2.68,2.68,0,0,1,0,.81,2.66,2.66,0,0,1-.73-.36,3.57,3.57,0,0,1-1.51-2.59A2.73,2.73,0,0,1,339.81,144.34Z"/><path class="cls-20" d="M374.81,191.56a2.69,2.69,0,0,1,.73.37,3.56,3.56,0,0,1,1.52,2.59,2.66,2.66,0,0,1,0,.81,2.67,2.67,0,0,1-.73-.36,3.57,3.57,0,0,1-1.51-2.6A2.66,2.66,0,0,1,374.81,191.56Z"/><path class="cls-20" d="M359.85,141.19a2.69,2.69,0,0,1,.73.37,3.55,3.55,0,0,1,1.52,2.59,2.68,2.68,0,0,1,0,.81,2.64,2.64,0,0,1-.73-.36,3.64,3.64,0,0,1-1-1.13,3.7,3.7,0,0,1-.47-1.46A2.7,2.7,0,0,1,359.85,141.19Z"/><path class="cls-20" d="M375.42,127.51a2.67,2.67,0,0,1,.64.5,3.56,3.56,0,0,1,1,2.84,2.69,2.69,0,0,1-.2.79,2.7,2.7,0,0,1-.64-.5,3.66,3.66,0,0,1-.8-1.31,3.7,3.7,0,0,1-.17-1.53A2.69,2.69,0,0,1,375.42,127.51Z"/><path class="cls-20" d="M329.83,154.18a2.71,2.71,0,0,1,.78.23,3.69,3.69,0,0,1,1.23.93,3.65,3.65,0,0,1,.72,1.36,2.7,2.7,0,0,1,.1.81,2.69,2.69,0,0,1-.78-.23,3.57,3.57,0,0,1-1.94-2.29A2.69,2.69,0,0,1,329.83,154.18Z"/><path class="cls-20" d="M339,170.48a2.68,2.68,0,0,1,.78.23,3.68,3.68,0,0,1,1.22.93,3.62,3.62,0,0,1,.72,1.36,2.67,2.67,0,0,1,.1.81,2.69,2.69,0,0,1-.78-.23,3.57,3.57,0,0,1-1.94-2.29A2.69,2.69,0,0,1,339,170.48Z"/><path class="cls-20" d="M391.25,125.87a2.68,2.68,0,0,1,.51.64,3.67,3.67,0,0,1,.48,1.46,3.63,3.63,0,0,1-.18,1.53,2.68,2.68,0,0,1-.38.72,2.69,2.69,0,0,1-.51-.64,3.57,3.57,0,0,1-.29-3A2.67,2.67,0,0,1,391.25,125.87Z"/><path class="cls-20" d="M394.81,170.51a2.66,2.66,0,0,1,.51.64,3.56,3.56,0,0,1,.29,3,2.69,2.69,0,0,1-.38.72,2.68,2.68,0,0,1-.51-.64,3.56,3.56,0,0,1-.29-3A2.69,2.69,0,0,1,394.81,170.51Z"/><path class="cls-20" d="M349.1,113a2.7,2.7,0,0,1,.69.44,3.71,3.71,0,0,1,.92,1.23,3.67,3.67,0,0,1,.32,1.51,2.73,2.73,0,0,1-.13.81,2.73,2.73,0,0,1-.69-.44,3.57,3.57,0,0,1-1.23-2.74A2.72,2.72,0,0,1,349.1,113Z"/><path class="cls-20" d="M331.54,125.46a2.7,2.7,0,0,1,.69.44,3.57,3.57,0,0,1,1.24,2.74,2.69,2.69,0,0,1-.13.81,2.71,2.71,0,0,1-.69-.44,3.64,3.64,0,0,1-.92-1.23,3.68,3.68,0,0,1-.31-1.51A2.69,2.69,0,0,1,331.54,125.46Z"/><path class="cls-2" d="M317.52,145.11h0l-.17-.16c-9.34-8.5-20.08-11.15-29.26,0C295.78,155.62,308.16,152.83,317.52,145.11Z"/><path class="cls-1" d="M317.52,145.11c-8.51,2.09-19.46,2.85-29.42-.17C295.78,155.62,308.16,152.83,317.52,145.11Z"/><path class="cls-2" d="M279.28,107.26h0l.16.17c8.77,9.08,11.74,19.74.87,29.25C269.42,129.3,271.84,116.85,279.28,107.26Z"/><path class="cls-1" d="M279.28,107.26c-1.84,8.57-2.27,19.53,1,29.4C269.42,129.3,271.84,116.85,279.28,107.26Z"/><path class="cls-2" d="M308.88,116.22v0h-.24c-12.62.15-22.29,5.53-21.41,19.95C300.13,138.74,307.29,128.26,308.88,116.22Z"/><path class="cls-1" d="M308.88,116.22c-4.8,7.34-12.3,15.35-21.64,19.93C300.13,138.74,307.29,128.26,308.88,116.22Z"/><path class="cls-2" d="M318.6,136.12h0l-.17-.16c-9.34-8.5-20.08-11.15-29.26,0C296.85,146.63,309.24,143.84,318.6,136.12Z"/><path class="cls-1" d="M318.6,136.12c-8.51,2.09-19.46,2.85-29.42-.17C296.85,146.63,309.24,143.84,318.6,136.12Z"/><path class="cls-2" d="M288,106.41h0l.17.17c8.77,9.08,11.74,19.74.87,29.25C278.13,128.46,280.55,116,288,106.41Z"/><path class="cls-1" d="M288,106.41c-1.84,8.57-2.27,19.53,1,29.4C278.13,128.46,280.55,116,288,106.41Z"/><path class="cls-15" d="M290.91,119.81c7.91,5.41,24.59,26.11,23.21,35.35-2,13.22-24.53,21.37-35.21,25.68-8,3.24-22.41,6.63-31.38.77s-4.58-22.46-2.72-31c2.53-11.61,10.66-25.09,15.41-31.52,8.61-11.66,21.16-6.35,29.47-.19Z"/><path class="cls-16" d="M247.53,181.61c9,5.86,23.37,2.47,31.38-.77,10.68-4.32,33.24-12.46,35.21-25.68a11.29,11.29,0,0,0-.4-4.47h0s0,10.4-29,22.76c-3,1.27-26.25,11.52-38.78,6.89A10,10,0,0,0,247.53,181.61Z"/><path class="cls-21" d="M264.11,158.13s-2.8,3.44-.4,5.77,5.45-.87,5.45-.87"/><path class="cls-18" d="M276.31,169.68c-1-1-1.81-2.18-3.33-2.19-3,0-.35,3.09.55,4s3.23,3.35,4.54,2.49c1.64-1.07-.94-3.32-1.54-4.06Z"/><path class="cls-18" d="M257.23,151.16c-1-1-1.81-2.18-3.33-2.19-3,0-.35,3.09.55,4s3.23,3.35,4.55,2.49c1.64-1.07-.94-3.32-1.54-4.06Z"/><path class="cls-22" d="M281.37,170.14s5-5.92,1.52-9.27-8.78,2.22-8.78,2.22"/><path class="cls-22" d="M256.65,146.14s5.77-5.15,9.22-1.8-2,8.84-2,8.84"/><path class="cls-20" d="M302.95,146.27a1.49,1.49,0,0,1-.5,1.16,1.45,1.45,0,0,1-.75.32,1.5,1.5,0,0,1-.48,0,1.52,1.52,0,0,1,.06-.47,1.44,1.44,0,0,1,1.67-1Z"/><path class="cls-20" d="M254.74,178.21a1.51,1.51,0,0,1-.06.47,1.47,1.47,0,0,1-.44.69,1.45,1.45,0,0,1-.75.32.92.92,0,0,1,.78-1.5A1.49,1.49,0,0,1,254.74,178.21Z"/><path class="cls-20" d="M258.51,169.89a1.41,1.41,0,0,1-1.25,1.48.33.33,0,1,1-.42-.5,1.46,1.46,0,0,1,.44-.68,1.49,1.49,0,0,1,1.23-.3Z"/><path class="cls-20" d="M290.42,144.08a1.44,1.44,0,1,1-1.67,1,1.45,1.45,0,0,1,.44-.69,1.49,1.49,0,0,1,1.23-.3Z"/><path class="cls-20" d="M284.73,134.54a1.49,1.49,0,0,1-.06.47,1.47,1.47,0,0,1-.44.69,1.45,1.45,0,0,1-.75.32,1.48,1.48,0,0,1-.48,0,1.48,1.48,0,0,1,.06-.48,1.45,1.45,0,0,1,.44-.68,1.49,1.49,0,0,1,1.23-.3Z"/><path class="cls-20" d="M305.51,155.59a1.5,1.5,0,0,1-.06.47,1.48,1.48,0,0,1-.44.69,1.47,1.47,0,0,1-1.23.3,1.54,1.54,0,0,1,.06-.48,1.38,1.38,0,0,1,1.19-1A1.49,1.49,0,0,1,305.51,155.59Z"/><path class="cls-20" d="M288,171.69a1.5,1.5,0,0,1-.06.47.93.93,0,1,1-1.16-.17,1.46,1.46,0,0,1,.75-.32A1.47,1.47,0,0,1,288,171.69Z"/><path class="cls-20" d="M251.14,158.47a1.73,1.73,0,0,1,.06.54,2,2,0,0,1-1,1.66,1.71,1.71,0,0,1-.5.21,1.69,1.69,0,0,1-.06-.54,2,2,0,0,1,1-1.66A1.74,1.74,0,0,1,251.14,158.47Z"/><path class="cls-20" d="M270.91,119.57a1.5,1.5,0,0,1,.1.48,1.44,1.44,0,0,1-.8,1.38,1.49,1.49,0,0,1-.46.15,1.48,1.48,0,0,1-.1-.48,1.44,1.44,0,0,1,.8-1.38A1.49,1.49,0,0,1,270.91,119.57Z"/><path class="cls-20" d="M273,133.24a1.91,1.91,0,0,1-.07.59,2.58,2.58,0,0,1-1.4,1.66,1.93,1.93,0,0,1-.57.17,1.93,1.93,0,0,1,.07-.59,2.59,2.59,0,0,1,1.4-1.66A1.93,1.93,0,0,1,273,133.24Z"/><path class="cls-20" d="M249.36,168.59a2,2,0,0,1-.07.58,2.58,2.58,0,0,1-1.4,1.67,1.94,1.94,0,0,1-.57.17,1.92,1.92,0,0,1,.07-.59,2.58,2.58,0,0,1,1.4-1.66A2,2,0,0,1,249.36,168.59Z"/><path class="cls-20" d="M280.06,146.14a1.94,1.94,0,0,1-.07.58,2.58,2.58,0,0,1-1.4,1.66,2,2,0,0,1-.57.17,2,2,0,0,1,.07-.59,2.57,2.57,0,0,1,1.4-1.66A1.93,1.93,0,0,1,280.06,146.14Z"/><path class="cls-20" d="M293.17,153.43a1.92,1.92,0,0,1-.19.56,2.57,2.57,0,0,1-1.7,1.35,1.93,1.93,0,0,1-.59.05,1.94,1.94,0,0,1,.19-.56,2.57,2.57,0,0,1,1.7-1.35A2,2,0,0,1,293.17,153.43Z"/><path class="cls-20" d="M263.9,128.83a1.92,1.92,0,0,1,0,.59,2.58,2.58,0,0,1-1.09,1.88,1.93,1.93,0,0,1-.53.26,2,2,0,0,1,0-.59,2.58,2.58,0,0,1,1.09-1.88A1.91,1.91,0,0,1,263.9,128.83Z"/><path class="cls-20" d="M255,139.08a1.94,1.94,0,0,1,0,.59,2.58,2.58,0,0,1-1.09,1.88,1.94,1.94,0,0,1-.53.27,2,2,0,0,1,0-.59,2.58,2.58,0,0,1,1.09-1.88A1.91,1.91,0,0,1,255,139.08Z"/><path class="cls-20" d="M298.14,163.82a1.92,1.92,0,0,1-.31.5,2.59,2.59,0,0,1-2,.93,2,2,0,0,1-.59-.08,2,2,0,0,1,.31-.5,2.59,2.59,0,0,1,2-.92A2,2,0,0,1,298.14,163.82Z"/><path class="cls-20" d="M268.58,177.11a1.94,1.94,0,0,1-.31.5,2.58,2.58,0,0,1-2,.93,1.92,1.92,0,0,1-.59-.08,1.93,1.93,0,0,1,.31-.5,2.64,2.64,0,0,1,.88-.68A2.68,2.68,0,0,1,268,177,1.92,1.92,0,0,1,268.58,177.11Z"/><path class="cls-20" d="M296.68,131.95a2,2,0,0,1-.13.58,2.68,2.68,0,0,1-.62.93,2.63,2.63,0,0,1-1,.58,1.91,1.91,0,0,1-.58.11,2,2,0,0,1,.13-.58,2.59,2.59,0,0,1,1.57-1.51A2,2,0,0,1,296.68,131.95Z"/><path class="cls-20" d="M283.89,123a1.92,1.92,0,0,1-.13.57,2.67,2.67,0,0,1-.62.93,2.62,2.62,0,0,1-1,.58,1.9,1.9,0,0,1-.58.11,1.91,1.91,0,0,1,.13-.58,2.63,2.63,0,0,1,.62-.93,2.66,2.66,0,0,1,.95-.58A2,2,0,0,1,283.89,123Z"/><path class="cls-10" d="M168.82,222.92c-6.49,12.09-6.49,37.19,2.26,48-.92-16.1,1.26-29.09,9.38-40.71a120.57,120.57,0,0,0-10.78-6.73Z"/><path class="cls-1" d="M115,240.4l0,0,.28.33c15.15,17.44,34.12,24.54,53.17,6.23C156.8,225.94,133.7,228.36,115,240.4Z"/><path class="cls-2" d="M115,240.4c15.91-2,36-1,53.43,6.58C156.8,225.94,133.7,228.36,115,240.4Z"/><path class="cls-2" d="M174.62,268.64c25.38-5.52,42,42.26,50,50.19,9.52,9.37,20,10.8,29.16,21a61.3,61.3,0,0,1,15.35,35.7c4.55,53.57-111.71,83-127.12,24.29-3-11.27-4.05-24.54-.14-35.48,3.72-10.39,6.18-15,5-26.77-2.63-26.12-8.58-60.52,26.84-68.73Z"/><ellipse class="cls-23" cx="162.09" cy="300.39" rx="12.54" ry="8.12" transform="translate(-158.79 416.77) rotate(-81.58)"/><circle class="cls-23" cx="159.94" cy="322.94" r="5.03" transform="translate(-74.96 49.64) rotate(-14.33)"/><circle class="cls-4" cx="178.74" cy="379.76" r="14.12" transform="translate(-88.46 56.08) rotate(-14.33)"/><circle class="cls-5" cx="180.21" cy="379.39" r="11.34" transform="translate(-88.3 56.41) rotate(-14.33)"/><circle class="cls-4" cx="174.11" cy="377.41" r="3.43" transform="translate(-88.02 54.86) rotate(-14.33)"/><circle class="cls-4" cx="228.06" cy="367.09" r="14.12" transform="translate(-83.78 67.89) rotate(-14.33)"/><circle class="cls-5" cx="227.18" cy="367.38" r="11.47" transform="translate(-83.89 67.69) rotate(-14.34)"/><circle class="cls-4" cx="221.11" cy="365.4" r="3.43" transform="translate(-83.63 66.17) rotate(-14.34)"/><path class="cls-24" d="M200.87,392.65s3.07,8.75,9.85,7,4.4-10.66,4.4-10.66"/><path class="cls-18" d="M236.14,383.18c-2.85.75-5.86.84-7.53,3.54-3.34,5.38,5.11,4,7.68,3.36,2.33-.6,9.49-2.1,9.4-5.38-.11-4.08-6.95-2-8.92-1.7Z"/><path class="cls-18" d="M178.66,397.87c-2.85.75-5.86.84-7.53,3.54-3.34,5.38,5.12,4,7.68,3.35,2.33-.6,9.49-2.1,9.4-5.38-.11-4.09-6.94-2-8.92-1.7Z"/><path class="cls-25" d="M269.16,375.49a61.3,61.3,0,0,0-15.35-35.7c-9.19-10.16-19.65-11.59-29.16-21-5.2-5.11-13.94-26.8-26.31-40.08,0,0,9.1,31.42,32.25,55.66,9.23,9.67,21,26.71,22,36.19s6.45,24.08-13.88,49.71C257.38,410.23,270.77,394.36,269.16,375.49Z"/><path class="cls-2" d="M326.88,170.08h0l-.21.08c-11.45,4.42-18.42,12.6-12.72,25.43C326.56,193.55,329.52,181.58,326.88,170.08Z"/><path class="cls-1" d="M326.88,170.08c-1.88,8.31-6,18.15-12.94,25.5C326.56,193.55,329.52,181.58,326.88,170.08Z"/><path class="cls-2" d="M277.37,186.86h0l.22-.07c11.7-3.67,22.25-1.62,25.79,12C292.24,205,282.47,197.49,277.37,186.86Z"/><path class="cls-1" d="M277.37,186.86c6.65,5.32,16,10.46,26,11.88C292.24,205,282.47,197.49,277.37,186.86Z"/><path class="cls-2" d="M298,165h0l-.1.21c-5.36,11-4.88,21.78,8,27.28C313.79,182.43,307.8,171.64,298,165Z"/><path class="cls-1" d="M298,165c4.29,7.36,8,17.36,7.91,27.47C313.79,182.43,307.8,171.64,298,165Z"/><path class="cls-2" d="M319.54,165.24v0l-.21.08c-11.44,4.42-18.41,12.61-12.72,25.43C319.22,188.71,322.18,176.73,319.54,165.24Z"/><path class="cls-1" d="M319.54,165.24c-1.88,8.3-6,18.14-12.94,25.49C319.22,188.71,322.18,176.73,319.54,165.24Z"/><path class="cls-2" d="M280.42,178.92h0l.22-.07c11.71-3.67,22.26-1.62,25.79,12C295.29,197.07,285.52,189.56,280.42,178.92Z"/><path class="cls-1" d="M280.42,178.92c6.65,5.32,16,10.46,26,11.87C295.29,197.07,285.52,189.56,280.42,178.92Z"/><path class="cls-15" d="M293.33,182.21c8.14-4.52,33.38-10,40.8-4.8,10.63,7.47,7.9,30.61,7,41.76-.67,8.36-4,22.36-13,27.6s-21.51-5.79-28.12-11.12c-9-7.25-17.17-20.17-20.69-27.09C273,196,283,187.42,292,182.88Z"/><path class="cls-16" d="M328.18,246.78c9-5.24,12.3-19.24,13-27.6.89-11.16,3.62-34.3-7-41.76a11,11,0,0,0-4.05-1.59h0s9,4.54,7.18,35.08c-.19,3.15-1.41,27.82-10.87,36.69A9.85,9.85,0,0,0,328.18,246.78Z"/><path class="cls-20" d="M321.56,183.25a1.45,1.45,0,0,1,.38.26,1.43,1.43,0,0,1,.4.68,1.44,1.44,0,0,1-.27,1.2,1.46,1.46,0,0,1-.39-.26,1.34,1.34,0,0,1-.35-1.47A1.41,1.41,0,0,1,321.56,183.25Z"/><path class="cls-20" d="M328.36,239a1.43,1.43,0,0,1,.38.26.9.9,0,1,1-.66.94,1.44,1.44,0,0,1,.27-1.2Z"/><path class="cls-20" d="M322.77,232.14a1.4,1.4,0,1,1,.13,1.88,1.34,1.34,0,0,1-.35-1.47A1.46,1.46,0,0,1,322.77,232.14Z"/><path class="cls-20" d="M314.21,193.19a1.44,1.44,0,0,1,.79.94,1.43,1.43,0,0,1-.27,1.2,1.44,1.44,0,0,1-.39-.26,1.4,1.4,0,0,1-.13-1.87Z"/><path class="cls-20" d="M303.45,194a1.41,1.41,0,0,1,.39.26,1.43,1.43,0,0,1,.4.68,1.42,1.42,0,0,1,0,.79,1,1,0,0,1-.74-1.73Z"/><path class="cls-20" d="M305.89,213.44a1.45,1.45,0,0,1,.39.26,1.34,1.34,0,0,1,.36,1.47.32.32,0,1,1-.61.15,1.4,1.4,0,0,1-.4-.68,1.42,1.42,0,0,1,0-.79A1.45,1.45,0,0,1,305.89,213.44Z"/><path class="cls-20" d="M330.77,185.08a1.46,1.46,0,0,1,.39.26,1.44,1.44,0,0,1,.4.68,1.43,1.43,0,0,1-.27,1.2,1.4,1.4,0,0,1-.52-2.14Z"/><path class="cls-20" d="M337.17,207.26a1.44,1.44,0,0,1,.39.26,1.34,1.34,0,0,1,.36,1.47.32.32,0,1,1-.61.15,1.42,1.42,0,0,1-.4-.68,1.45,1.45,0,0,1,.27-1.2Z"/><path class="cls-20" d="M309.64,233.58a1.67,1.67,0,0,1,.49.18,2,2,0,0,1,1,1.56,1.67,1.67,0,0,1,0,.53,1.69,1.69,0,0,1-.5-.18,2,2,0,0,1-1-1.56A1.68,1.68,0,0,1,309.64,233.58Z"/><path class="cls-20" d="M284.43,199.48a1.46,1.46,0,0,1,.45.12,1.39,1.39,0,0,1,.85,1.29,1.46,1.46,0,0,1-.07.47,1.48,1.48,0,0,1-1.08-.64,1.5,1.5,0,0,1-.23-.78A1.48,1.48,0,0,1,284.43,199.48Z"/><path class="cls-20" d="M297.24,203.58a1.93,1.93,0,0,1,.48.32,2.63,2.63,0,0,1,.63.88,2.56,2.56,0,0,1,.2,1.06,1.87,1.87,0,0,1-.1.57,1.9,1.9,0,0,1-.48-.32,2.54,2.54,0,0,1-.63-.88,2.6,2.6,0,0,1-.2-1.06A1.87,1.87,0,0,1,297.24,203.58Z"/><path class="cls-20" d="M317.66,239.52a1.89,1.89,0,0,1,.48.32,2.6,2.6,0,0,1,.63.88,2.56,2.56,0,0,1,.21,1.06.34.34,0,1,1-.58.25,2.53,2.53,0,0,1-.63-.88,2.57,2.57,0,0,1-.2-1.06A1.89,1.89,0,0,1,317.66,239.52Z"/><path class="cls-20" d="M311.5,203.09a1.87,1.87,0,0,1,.48.32,2.49,2.49,0,0,1,.84,1.94,1.91,1.91,0,0,1-.1.56,1.86,1.86,0,0,1-.48-.32,2.55,2.55,0,0,1-.63-.88,2.62,2.62,0,0,1-.2-1.06A1.86,1.86,0,0,1,311.5,203.09Z"/><path class="cls-20" d="M316.61,218.6a1.91,1.91,0,0,1,.48.32,2.59,2.59,0,0,1,.63.88,2.55,2.55,0,0,1,.2,1.06.34.34,0,1,1-.58.25,2.55,2.55,0,0,1-.63-.88,2.6,2.6,0,0,1-.2-1.06A1.91,1.91,0,0,1,316.61,218.6Z"/><path class="cls-20" d="M321.87,207a1.93,1.93,0,0,1,.48.32,2.51,2.51,0,0,1,.84,1.94,1.89,1.89,0,0,1-.1.56,1.85,1.85,0,0,1-.48-.32,2.53,2.53,0,0,1-.63-.88,2.58,2.58,0,0,1-.2-1.06A1.87,1.87,0,0,1,321.87,207Z"/><path class="cls-20" d="M323.53,194.86a1.89,1.89,0,0,1,.4.4,2.52,2.52,0,0,1,.44,2.07.34.34,0,1,1-.62.13,2.5,2.5,0,0,1-.43-2.07A1.93,1.93,0,0,1,323.53,194.86Z"/><path class="cls-20" d="M289.43,209.61a1.87,1.87,0,0,1,.53.23,2.52,2.52,0,0,1,1.16,1.76.34.34,0,1,1-.53.35,2.51,2.51,0,0,1-1.16-1.76A1.87,1.87,0,0,1,289.43,209.61Z"/><path class="cls-20" d="M305.05,222.31a1.89,1.89,0,0,1,.52.23,2.49,2.49,0,0,1,1.16,1.76,1.85,1.85,0,0,1,0,.57,1.88,1.88,0,0,1-.53-.23,2.5,2.5,0,0,1-1.16-1.76A1.88,1.88,0,0,1,305.05,222.31Z"/><path class="cls-20" d="M294.48,221.77a1.87,1.87,0,0,1,.52.23,2.49,2.49,0,0,1,1.16,1.76,1.88,1.88,0,0,1,0,.57,1.86,1.86,0,0,1-.53-.23,2.58,2.58,0,0,1-.78-.75,2.62,2.62,0,0,1-.39-1A1.93,1.93,0,0,1,294.48,221.77Z"/><path class="cls-20" d="M334.72,195.06a1.87,1.87,0,0,1,.3.49,2.51,2.51,0,0,1-.05,2.11.34.34,0,1,1-.63,0,2.51,2.51,0,0,1,.05-2.11A2,2,0,0,1,334.72,195.06Z"/><path class="cls-20" d="M333.41,226.53a1.89,1.89,0,0,1,.3.49,2.51,2.51,0,0,1,0,2.11.34.34,0,1,1-.63,0,2.51,2.51,0,0,1,.05-2.11A1.86,1.86,0,0,1,333.41,226.53Z"/><path class="cls-20" d="M329,215.13a1.85,1.85,0,0,1,.3.49,2.5,2.5,0,0,1,0,2.11.34.34,0,1,1-.63,0,2.51,2.51,0,0,1,.05-2.11A1.89,1.89,0,0,1,329,215.13Z"/><path class="cls-20" d="M306.39,182.48a1.89,1.89,0,0,1,.44.37,2.51,2.51,0,0,1,.63,2,1.87,1.87,0,0,1-.16.55,1.84,1.84,0,0,1-.44-.37,2.56,2.56,0,0,1-.54-.94,2.61,2.61,0,0,1-.09-1.08A1.89,1.89,0,0,1,306.39,182.48Z"/><path class="cls-20" d="M293.07,189.7a2,2,0,0,1,.44.37,2.58,2.58,0,0,1,.54.94,2.55,2.55,0,0,1,.09,1.08.34.34,0,1,1-.6.19,2.5,2.5,0,0,1-.63-2A1.91,1.91,0,0,1,293.07,189.7Z"/><path class="cls-10" d="M358.54,246.36a15.53,15.53,0,0,0-2.76-7.63c1.93.4,3.73,2.51,4.11,5.87a22,22,0,0,1,0,5.3c-.56.22-1.14.45-1.73.7A15,15,0,0,0,358.54,246.36Z"/><path class="cls-10" d="M358.18,250.6c-1.81.76-3.76,1.64-5.85,2.69-.23-1.6-2.15-12.51,1.3-14.28a3.19,3.19,0,0,1,2.16-.29,15.53,15.53,0,0,1,2.76,7.63A15,15,0,0,1,358.18,250.6Z"/><path class="cls-10" d="M176.73,7.69c3-.24,12.72-.24,16.55.46C188.11,11.36,183.25,9.55,176.73,7.69Z"/><path class="cls-10" d="M176.73,7.69c.18,4.46.58,8.34,1.06,11.75A54.62,54.62,0,0,1,176.73,7.69Z"/><path class="cls-10" d="M193.69,19.36c-4-.88-11.74,1.39-15.82.53l-.08-.46c-.47-3.4-.88-7.28-1.06-11.75,6.51,1.86,11.38,3.67,16.55.46A93.06,93.06,0,0,1,193.69,19.36Z"/><path class="cls-20" d="M218.17,115.29c4.9,23.95,20.94,64.91,40.89,80.47,29.41,22.91,40.59,23.47,80,32.46,10,2.19,18.89,9.34,19.52,18.14.71,10.08-11.35,26.32-28.34,29.89-30.95,6.19-25,5.27-59.39,3.79s-61.67-13.28-81.36-29.35c-19.91-16.29-32.26-36.9-42-61.1-3.37-10.28-12.89-42.88-9.34-72.48C141,88.22,150,59.38,175.33,44.8c9.9-5.69,2.38-12.91,1.4-37.11,6.51,1.86,11.38,3.67,16.55.46,2.08,21.42-3.43,26,5.38,44.38C205.44,66.64,214.43,97.53,218.17,115.29Z"/><path class="cls-10" d="M352.37,253.58a3.33,3.33,0,0,0,4.63,1.53c3.69-2.1,3.12-8.4,2.89-10.51-.53-4.62-3.74-6.9-6.27-5.59-3.45,1.76-1.53,12.68-1.3,14.28Z"/><path class="cls-10" d="M193.29,8.15a93.06,93.06,0,0,1,.41,11.22c-4-.88-11.74,1.39-15.82.53a55.75,55.75,0,0,1-1.14-12.21C179.72,7.45,189.46,7.45,193.29,8.15Z"/><path class="cls-26" d="M157.94,125.76c5.05,47.46,19.5,76.66,57.32,107.12,26.87,21.64,106.39,35.72,137.06,20.41l0,.29a3.36,3.36,0,0,0,4.19,1.74,39.09,39.09,0,0,1-26.36,20.93c-30.95,6.19-25,5.27-59.39,3.79s-61.67-13.28-81.36-29.35c-19.91-16.29-32.26-36.9-42-61.1-3.37-10.28-12.89-42.88-9.34-72.48C141,88.22,150,59.38,175.33,44.8a14.17,14.17,0,0,0,2.17-1.51h0S152.28,72.54,157.94,125.76Z"/><circle class="cls-4" cx="209.72" cy="159.47" r="15.72"/><circle class="cls-5" cx="208.04" cy="159.47" r="12.63"/><circle class="cls-4" cx="214.07" cy="155.65" r="3.82"/><circle class="cls-4" cx="166.65" cy="159.39" r="15.72"/><circle class="cls-5" cx="167.68" cy="159.47" r="12.77"/><circle class="cls-4" cx="173.69" cy="155.65" r="3.82"/><path class="cls-27" d="M196.22,179.48s-.9,10.29-8.69,10.29-7.69-10.29-7.69-10.29"/><path class="cls-18" d="M162.37,179c3.28,0,6.56-.7,9.1,1.74,5.09,4.89-4.42,5.73-7.36,5.74-2.68,0-10.82.35-11.62-3.21-1-4.44,7-4,9.16-4.29Z"/><path class="cls-18" d="M214.81,179c3.28,0,6.56-.7,9.1,1.74,5.09,4.89-4.41,5.73-7.36,5.74-2.68,0-10.82.35-11.63-3.21-1-4.44,7-4,9.16-4.29Z"/><ellipse class="cls-28" cx="283.45" cy="551.35" rx="176.86" ry="25.73"/><path class="cls-1" d="M55.51,175.83v0l.59,0c31.7-2.41,57.13,9,58.08,45.34C82.39,230.39,62.13,205.67,55.51,175.83Z"/><path class="cls-2" d="M55.51,175.83c13.65,17.34,34.21,35.79,58.66,45.25C82.39,230.39,62.13,205.67,55.51,175.83Z"/><path class="cls-1" d="M142.47,157.52h0l-.08.59c-4.92,31.41-21.83,53.56-57.43,46.16C83.21,171.2,111.92,157.13,142.47,157.52Z"/><path class="cls-2" d="M142.47,157.52c-20,9.32-42.68,25.11-57.48,46.75C83.21,171.2,111.92,157.13,142.47,157.52Z"/><path class="cls-3" d="M62.13,199.79a113,113,0,0,1,56.78-13.85c30.65.95,46,6.22,62.7,33,23.56,37.75,14,109.2-58.71,123.78C84,350.5,53.37,338.36,31.71,300.2c-19.62-34.57-5.82-80.75,24.92-97Z"/><circle class="cls-4" cx="80.87" cy="273.15" r="16.01" transform="translate(-48.17 19.18) rotate(-10.44)"/><circle class="cls-5" cx="82.56" cy="272.84" r="12.87" transform="matrix(0.98, -0.18, 0.18, 0.98, -48.07, 19.48)"/><circle class="cls-4" cx="75.82" cy="270.12" r="3.89" transform="translate(-47.7 18.21) rotate(-10.44)"/><circle class="cls-4" cx="137.66" cy="262.6" r="16.01" transform="translate(-45.31 29.29) rotate(-10.44)"/><circle class="cls-5" cx="136.65" cy="262.87" r="13.01" transform="matrix(0.98, -0.18, 0.18, 0.98, -45.39, 29.12)"/><circle class="cls-4" cx="129.93" cy="260.15" r="3.89" transform="translate(-45 27.86) rotate(-10.44)"/><path class="cls-6" d="M104.92,289.44s2.8,10.14,10.6,8.71,5.8-11.73,5.8-11.73"/><path class="cls-7" d="M145.58,281.43c-3.28.63-6.7.51-8.79,3.42-4.19,5.83,5.48,4.93,8.43,4.39,2.68-.49,10.9-1.65,11.05-5.36.19-4.63-7.71-2.74-10-2.61Z"/><path class="cls-7" d="M79.38,293.63c-3.28.63-6.69.51-8.79,3.42-4.19,5.83,5.48,4.93,8.43,4.39,2.69-.49,10.9-1.65,11.05-5.36.19-4.63-7.71-2.74-10-2.61Z"/><path class="cls-8" d="M51.09,229.86c2.45,2.88,3.69,3.34,7.12,3s7.34-3.6,6.89-7.13c-1-8-16.23-2.55-14.33,3.62Z"/><path class="cls-8" d="M42.92,238c2.49-2.34,10.74-5.72,8,1.13a6.54,6.54,0,0,1-5.22,3.57c-2.78.06-4.35-1.57-2.94-4.54Z"/><path class="cls-8" d="M60.19,235.63c1.06-.27,2.58-.15,3.18.67,2.56,5.05-14.76,8.75-5.75.48a10.07,10.07,0,0,1,1.25-.8A8.89,8.89,0,0,1,60.19,235.63Z"/><path class="cls-9" d="M181.61,218.9c-10.26-16.44-20-24.76-33.14-29,0,0,38.92,25.75,23.88,90.48-6.07,26.12-24.87,51.57-49.44,62.26C195.61,328.1,205.17,256.65,181.61,218.9Z"/><path class="cls-10" d="M335.82,131.43c-6.49,12.09-6.49,37.19,2.26,48-.92-16.1,1.26-29.09,9.38-40.71A120.75,120.75,0,0,0,336.68,132Z"/><path class="cls-1" d="M282,148.91l0,0,.28.33c15.15,17.44,34.12,24.54,53.17,6.23C323.8,134.45,300.7,136.88,282,148.91Z"/><path class="cls-2" d="M282,148.91c15.91-2,36-1,53.43,6.58C323.8,134.45,300.7,136.88,282,148.91Z"/><path class="cls-2" d="M341.62,177.15c25.38-5.52,42,42.26,50,50.19,9.52,9.37,20,10.8,29.16,21A61.29,61.29,0,0,1,436.17,284c4.55,53.57-111.71,83-127.12,24.29-3-11.27-4.05-24.54-.14-35.48,3.72-10.39,6.18-15,5-26.77-2.63-26.12-8.58-60.52,26.84-68.73Z"/><ellipse class="cls-23" cx="329.09" cy="208.9" rx="12.54" ry="8.12" transform="translate(74.27 503.88) rotate(-81.58)"/><circle class="cls-23" cx="326.94" cy="231.45" r="5.03" transform="translate(-47.12 88.13) rotate(-14.33)"/><circle class="cls-4" cx="345.74" cy="288.28" r="14.12" transform="translate(-60.61 94.57) rotate(-14.33)"/><circle class="cls-5" cx="347.21" cy="287.9" r="11.34" transform="translate(-60.47 94.92) rotate(-14.33)"/><circle class="cls-4" cx="341.11" cy="285.92" r="3.43" transform="translate(-60.17 93.35) rotate(-14.33)"/><circle class="cls-4" cx="395.06" cy="275.6" r="14.12" transform="translate(-55.93 106.38) rotate(-14.33)"/><circle class="cls-5" cx="394.18" cy="275.9" r="11.47" transform="translate(-56.04 106.19) rotate(-14.33)"/><circle class="cls-4" cx="388.11" cy="273.91" r="3.43" transform="translate(-55.76 104.69) rotate(-14.34)"/><path class="cls-24" d="M367.87,301.17s3.07,8.75,9.85,7,4.4-10.66,4.4-10.66"/><path class="cls-18" d="M403.14,291.69c-2.85.75-5.86.84-7.53,3.54-3.34,5.38,5.12,4,7.68,3.36,2.33-.6,9.49-2.1,9.4-5.38-.11-4.08-6.95-2-8.92-1.7Z"/><path class="cls-18" d="M345.66,306.38c-2.85.75-5.86.84-7.53,3.54-3.34,5.38,5.12,4,7.68,3.35,2.33-.6,9.49-2.1,9.4-5.38-.11-4.09-6.95-2-8.92-1.69Z"/><path class="cls-25" d="M436.17,284a61.29,61.29,0,0,0-15.35-35.7c-9.19-10.16-19.65-11.59-29.16-21-5.19-5.11-13.94-26.8-26.31-40.08,0,0,9.1,31.42,32.25,55.66,9.23,9.67,21,26.71,22,36.19s6.45,24.08-13.89,49.71C424.38,318.75,437.77,302.88,436.17,284Z"/><path class="cls-10" d="M296.73,196.33c-13.91,4-32.86,22.53-34.57,37.13,11.47-12.57,22.89-20.51,37.64-23a128.59,128.59,0,0,0-2.87-13.1Z"/><path class="cls-1" d="M243.86,168.63h0l0,.45c-2,24.3,6.65,43.85,34.52,44.73C285.58,189.48,266.71,173.84,243.86,168.63Z"/><path class="cls-2" d="M243.86,168.63c13.24,10.55,27.3,26.39,34.45,45.18C285.58,189.48,266.71,173.84,243.86,168.63Z"/><path class="cls-29" d="M247.92,214.43c-17.17-22.37-61.51-21.49-75.82,7.68-7.57,15.44-8.71,26.09-10.11,42.95s1.42,38.5,7.77,53.58c3.68,8.73,5.67,12.06,13.65,15.47,6.44,2.75,12.95,4,19.36,8.21,12.1,8,17.33,21.43,33.73,19.41,15.35-1.89,30-8.82,42.47-17.68,13.26-9.42,18.54-13.19,30.19-24.59,20.27-19.84,25.76-55.49,2-71.86-13.1-9-21.43-12.27-36.94-13.83-5.88-.59-9.06-1.13-14-5.4A96.62,96.62,0,0,1,250,217.07Z"/><circle class="cls-4" cx="209.57" cy="272.55" r="14.9" transform="translate(-132.2 309.91) rotate(-58.68)"/><circle class="cls-5" cx="210.93" cy="273.38" r="11.97" transform="matrix(0.52, -0.85, 0.85, 0.52, -132.26, 311.48)"/><circle class="cls-4" cx="207.93" cy="267.32" r="3.62" transform="matrix(0.52, -0.85, 0.85, 0.52, -128.52, 305.97)"/><circle class="cls-4" cx="255.52" cy="300.42" r="14.9" transform="translate(-133.94 362.55) rotate(-58.68)"/><circle class="cls-5" cx="254.65" cy="299.98" r="12.1" transform="translate(-133.99 361.6) rotate(-58.68)"/><circle class="cls-4" cx="251.66" cy="293.93" r="3.62" transform="translate(-130.25 356.11) rotate(-58.68)"/><path class="cls-18" d="M249.34,318.39c-2.67-1.6-5-3.8-8.22-3.08-6.53,1.45.75,6.82,3.13,8.27,2.17,1.32,8.59,5.61,11,3.13,3-3.1-3.65-6.68-5.3-8Z"/><path class="cls-18" d="M195.84,285.84c-2.67-1.6-5-3.8-8.22-3.07-6.53,1.45.75,6.82,3.13,8.27,2.17,1.32,8.59,5.61,11,3.13,3-3.1-3.65-6.68-5.3-8Z"/><ellipse class="cls-30" cx="212.82" cy="219.97" rx="8.57" ry="13.24" transform="translate(-9 430.86) rotate(-89.5)"/><circle class="cls-30" cx="190.13" cy="225.89" r="5.31" transform="translate(-101.67 270.91) rotate(-58.68)"/><path class="cls-31" d="M279,344c13.26-9.42,18.54-13.19,30.19-24.59,20.27-19.84,25.76-55.49,2-71.86l-.43-.3c6.75,15.08,6.17,31.73-10.79,53.76-18.5,24-48.61,50.19-77.48,57.91a21.25,21.25,0,0,0,14,2.75C251.84,359.83,266.48,352.9,279,344Z"/><path class="cls-32" d="M213.82,295.15S206,310.28,215,315.74s17.69-9.1,17.69-9.1Z"/><path class="cls-31" d="M215,315.74c3.47,2.11,6.9,1.23,9.8-.65a14.29,14.29,0,0,0-5.5-5.91,14.06,14.06,0,0,0-8.62-2.12C210.68,310.44,211.72,313.74,215,315.74Z"/><path class="cls-10" d="M332.11,353.81a15.52,15.52,0,0,1,2.76-7.63c-1.93.4-3.73,2.51-4.11,5.87a22.09,22.09,0,0,0,0,5.3c.56.22,1.14.45,1.73.7A15,15,0,0,1,332.11,353.81Z"/><path class="cls-10" d="M332.47,358c1.81.76,3.76,1.64,5.85,2.69.23-1.6,2.15-12.51-1.3-14.28a3.19,3.19,0,0,0-2.16-.29,15.52,15.52,0,0,0-2.76,7.63A15,15,0,0,0,332.47,358Z"/><path class="cls-10" d="M513.92,115.14c-3-.24-12.72-.24-16.55.46C502.54,118.8,507.4,117,513.92,115.14Z"/><path class="cls-10" d="M513.92,115.14c-.18,4.46-.58,8.34-1.06,11.75A54.6,54.6,0,0,0,513.92,115.14Z"/><path class="cls-10" d="M497,126.81c4-.88,11.74,1.39,15.82.53l.08-.46c.48-3.4.88-7.28,1.06-11.75-6.51,1.86-11.38,3.67-16.55.46A93.21,93.21,0,0,0,497,126.81Z"/><path class="cls-20" d="M472.48,222.74c-4.9,23.95-20.94,64.91-40.89,80.47-29.41,22.91-40.59,23.47-80,32.46-10,2.19-18.89,9.34-19.52,18.14-.72,10.08,11.35,26.32,28.34,29.89,30.95,6.19,25,5.27,59.39,3.79s61.67-13.28,81.36-29.35c19.91-16.29,32.26-36.9,42-61.1,3.37-10.28,12.89-42.88,9.35-72.48-2.9-28.9-11.89-57.74-37.21-72.31-9.9-5.69-2.38-12.91-1.4-37.11-6.51,1.86-11.38,3.67-16.55.46-2.08,21.42,3.43,26-5.38,44.38C485.21,174.09,476.22,205,472.48,222.74Z"/><path class="cls-10" d="M338.28,361a3.34,3.34,0,0,1-4.63,1.53c-3.69-2.1-3.12-8.4-2.89-10.51.53-4.62,3.74-6.9,6.27-5.59,3.45,1.76,1.53,12.68,1.3,14.28Z"/><path class="cls-10" d="M497.36,115.6a93.21,93.21,0,0,0-.41,11.22c4-.88,11.74,1.39,15.82.53a55.75,55.75,0,0,0,1.14-12.21C510.93,114.9,501.19,114.9,497.36,115.6Z"/><path class="cls-26" d="M532.71,233.21c-5.05,47.46-19.5,76.66-57.32,107.12C448.52,362,369,376,338.33,360.74l0,.29a3.36,3.36,0,0,1-4.19,1.74,39.09,39.09,0,0,0,26.36,20.93c30.95,6.19,25,5.27,59.39,3.79s61.67-13.28,81.36-29.35c19.91-16.29,32.26-36.9,42-61.1,3.37-10.28,12.89-42.88,9.35-72.48-2.9-28.9-11.89-57.74-37.21-72.31a14.12,14.12,0,0,1-2.17-1.51h0S538.37,180,532.71,233.21Z"/><circle class="cls-4" cx="480.93" cy="266.92" r="15.72"/><circle class="cls-5" cx="482.61" cy="266.92" r="12.63"/><circle class="cls-4" cx="476.58" cy="263.1" r="3.82"/><circle class="cls-4" cx="524" cy="266.84" r="15.72"/><circle class="cls-5" cx="522.97" cy="266.92" r="12.77"/><circle class="cls-4" cx="516.96" cy="263.1" r="3.82"/><path class="cls-27" d="M494.43,286.93s.9,10.29,8.69,10.29,7.69-10.29,7.69-10.29"/><path class="cls-18" d="M528.28,286.43c-3.28,0-6.56-.7-9.1,1.74-5.09,4.89,4.42,5.73,7.36,5.74,2.68,0,10.82.35,11.62-3.21,1-4.44-7-4-9.16-4.29Z"/><path class="cls-18" d="M475.84,286.43c-3.28,0-6.55-.7-9.1,1.74-5.09,4.89,4.42,5.73,7.36,5.74,2.68,0,10.82.35,11.62-3.21,1-4.44-7-4-9.16-4.29Z"/><path class="cls-33" d="M18.92,313.26s153.57,20.25,269.87,15.91,267-20.53,267-20.53S535.2,427.94,492,478.1c-58.59,68-130.62,78.27-198.91,78.27-79.36,0-162.62-13.06-219-78.27C26,422.4,18.92,313.26,18.92,313.26Z"/><ellipse class="cls-4" cx="102.66" cy="395.39" rx="30.91" ry="47.75" transform="translate(-99.69 40.53) rotate(-15.14)"/><circle class="cls-4" cx="135.01" cy="466.17" r="19.17" transform="translate(-257.85 181.21) rotate(-37.89)"/><path class="cls-34" d="M487,475.59c37.22-43.2,60.89-137.68,63.26-163.07,0,0-69,6.93-69,6.93s19.89,72.21-29.72,145.68C415.68,518.25,341,563.26,204,543.21c33.86,11,82.2,10.65,84.09,10.65C356.34,553.86,428.37,543.58,487,475.59Z"/></svg>