<svg width="56" height="56" viewBox="0 0 56 56" fill="none" xmlns="http://www.w3.org/2000/svg">
<g clip-path="url(#clip0_6488_61932)">
<rect width="56" height="56" rx="16" fill="url(#paint0_linear_6488_61932)"/>
<g style="mix-blend-mode:multiply">
<path d="M66.5844 39.4501L38.0191 10.5768V11.8597L30.5197 12.3167L21.1348 12.7755L19.8564 18.9572L22.1368 39.4501L14.1896 43.5526L38.0191 67.6391C47.5409 67.1343 66.5844 60.7898 66.5844 39.4501Z" fill="#515151" fill-opacity="0.16"/>
</g>
<path d="M35.6959 10.0254L21.0921 12.1251C20.1685 12.2846 19.3434 12.8032 18.7934 13.57C18.2434 14.3368 18.0124 15.2908 18.1497 16.2276L18.2965 17.3578L20.7018 36.2419C19.8744 36.0696 19.0238 36.0439 18.1877 36.1659C15.0301 36.6204 12.7202 38.9475 13.0274 41.3676C13.3357 43.7864 16.1446 45.376 19.3047 44.9228C22.461 44.4684 24.7683 42.1398 24.4613 39.7211L21.5509 16.8904L36.4495 14.7461L38.2137 28.5972C37.3861 28.4235 36.5347 28.3976 35.6983 28.5206C32.5419 28.9738 30.2309 31.3029 30.5392 33.723C30.8463 36.14 33.6589 37.7327 36.8152 37.2769C39.9717 36.8225 42.2827 34.4952 41.972 32.0765L39.7038 14.28L39.5582 13.1484C39.5118 12.6852 39.3745 12.2361 39.1543 11.8272C38.9342 11.4183 38.6355 11.0579 38.2759 10.7671C37.9162 10.4763 37.5028 10.2609 37.0598 10.1336C36.6168 10.0062 36.1531 9.96943 35.6959 10.0254Z" fill="#FDFDFC"/>
</g>
<defs>
<linearGradient id="paint0_linear_6488_61932" x1="5.5" y1="-20" x2="52" y2="74" gradientUnits="userSpaceOnUse">
<stop stop-color="#80E9FF"/>
<stop offset="1" stop-color="#559DFF"/>
</linearGradient>
<clipPath id="clip0_6488_61932">
<path d="M0 16C0 7.16344 7.16344 0 16 0H40C48.8366 0 56 7.16344 56 16V40C56 48.8366 48.8366 56 40 56H16C7.16344 56 0 48.8366 0 40V16Z" fill="white"/>
</clipPath>
</defs>
</svg>
