<svg width="56" height="56" viewBox="0 0 56 56" fill="none" xmlns="http://www.w3.org/2000/svg">
<g clip-path="url(#clip0_6488_61937)">
<rect width="56" height="56" rx="16" fill="url(#paint0_linear_6488_61937)"/>
<g style="mix-blend-mode:multiply">
<path d="M82.154 48.5778L44.6262 10.7421L33.5766 20.7112L27.1613 15.514L25.7481 16.471L23.2812 14.0667L21.1809 17.3801L14.0903 16.0523L25.7481 28.3127L19.5957 36.8331H10.0007L46.3482 73.4788L82.154 48.5778Z" fill="#515151" fill-opacity="0.16"/>
</g>
<path d="M23.6393 19.2474C24.067 19.7001 25.2033 19.2323 26.1748 18.2012C27.1478 17.1726 27.5893 15.9681 27.1614 15.514C26.7349 15.0626 25.5998 15.5317 24.627 16.5628C23.6555 17.594 23.2114 18.7948 23.6393 19.2474Z" fill="#FDFFFF"/>
<path d="M19.7577 17.7988C20.1856 18.2502 21.323 17.7824 22.2934 16.7526C23.2662 15.724 23.7064 14.5194 23.2812 14.0667C22.8533 13.614 21.7184 14.0831 20.7468 15.1129C19.7739 16.1428 19.3312 17.3449 19.7577 17.7988Z" fill="#FDFFFF"/>
<path d="M36.1926 32.5464C35.7648 32.0937 36.2088 30.8915 37.1804 29.863C38.1532 28.8318 39.2869 28.3627 39.7148 28.813C40.1413 29.2682 39.6998 30.4715 38.727 31.5039C37.7566 32.5312 36.6192 33.0003 36.1926 32.5464Z" fill="#FDFFFF"/>
<path d="M37.5596 36.6595C37.1317 36.2067 37.5758 35.0046 38.5462 33.9747C39.5203 32.9449 40.6539 32.4747 41.0805 32.9261C41.507 33.3813 41.0668 34.5834 40.094 35.6133C39.1223 36.6444 37.9862 37.1122 37.5596 36.6595Z" fill="#FDFFFF"/>
<path d="M26.9692 25.702C26.5141 23.8296 21.3992 20.6583 19.7279 19.47C16.5861 17.2393 13.3981 16.3716 13.917 15.3845C14.724 13.8479 22.2734 16.0422 23.8961 16.886C26.8555 18.1781 29.9169 19.2182 33.0483 19.9956C33.8764 19.9944 26.9692 25.702 26.9692 25.702Z" fill="#D9D8DA"/>
<path d="M18.1825 35.6712C16.2256 35.2986 14.233 35.1523 12.2432 35.2349C10.8588 35.5517 8.87827 36.6897 10.7927 37.2078C12.6501 37.6184 14.3877 38.4577 15.8689 39.6599" fill="#D9D8DA"/>
<path d="M30.1011 29.0206C31.8683 29.5034 34.863 34.9243 35.9816 36.691C38.0883 40.022 38.9052 43.3996 39.8394 42.8513C41.2912 41.9988 39.2169 33.9951 38.4225 32.2774C37.1977 29.1265 36.2169 25.8847 35.489 22.5811C35.4878 21.7021 30.1011 29.0206 30.1011 29.0206Z" fill="#D9D8DA"/>
<path d="M20.6944 38.3307C21.0457 40.4078 21.1824 42.5161 21.1023 44.6217C20.8079 46.0904 19.7303 48.1878 19.2427 46.1608C18.8671 44.2199 18.0777 42.3844 16.9291 40.7815" fill="#D9D8DA"/>
<path d="M44.4292 10.5044C43.7059 9.74614 41.8351 9.3865 38.1531 12.852C35.3557 15.484 31.9108 18.952 28.2776 22.8024C20.137 31.4285 14.4247 39.4776 15.1132 41.2732C28.6443 31.6058 40.16 16.4811 44.4292 10.5044Z" fill="#FDFDFC"/>
<path d="M44.4292 10.5044C40.1599 16.4811 28.6443 31.6058 15.1132 41.2731C15.1383 41.3428 15.176 41.4071 15.2241 41.4631C16.4827 42.7959 24.3663 36.6042 32.8338 27.6335C36.4433 23.8096 39.8607 20.2346 42.2965 17.2418C45.7849 12.9602 45.1589 11.274 44.4368 10.5094L44.4292 10.5044Z" fill="#F5F5F4"/>
<path d="M41.8399 13.262C42.5296 13.9939 42.8513 14.8414 43.0472 14.6364C43.1605 14.2696 43.1742 13.8789 43.0869 13.5049C42.9996 13.1309 42.8144 12.7874 42.5508 12.51C42.3052 12.2338 41.9843 12.0368 41.6282 11.9438C41.2721 11.8507 40.8966 11.8658 40.5489 11.987C40.3532 12.1944 41.1488 12.5314 41.8399 13.262Z" fill="#737373"/>
</g>
<defs>
<linearGradient id="paint0_linear_6488_61937" x1="5.5" y1="-20" x2="52" y2="74" gradientUnits="userSpaceOnUse">
<stop stop-color="#CC7FFF"/>
<stop offset="1" stop-color="#FF9E15"/>
</linearGradient>
<clipPath id="clip0_6488_61937">
<path d="M0 16C0 7.16344 7.16344 0 16 0H40C48.8366 0 56 7.16344 56 16V40C56 48.8366 48.8366 56 40 56H16C7.16344 56 0 48.8366 0 40V16Z" fill="white"/>
</clipPath>
</defs>
</svg>
