<svg width="56" height="56" viewBox="0 0 56 56" fill="none" xmlns="http://www.w3.org/2000/svg">
<g clip-path="url(#clip0_6488_61946)">
<rect width="56" height="56" rx="16" fill="url(#paint0_linear_6488_61946)"/>
<g style="mix-blend-mode:multiply">
<path d="M70.0349 50.36L37.5537 17.7815L19.6136 41.788L48.8845 71.1465L70.0349 50.36Z" fill="#515151" fill-opacity="0.16"/>
</g>
<path d="M14.4599 33.5208C16.4539 41.6932 24.3561 46.6167 32.1107 44.5151C39.8643 42.4124 44.533 34.0811 42.5401 25.9096C40.5451 17.7361 32.6439 12.8147 24.8893 14.9153C17.1357 17.0169 12.467 25.3462 14.4599 33.5208Z" fill="#222F3F"/>
<path d="M16.7412 32.9029C17.0848 34.4942 17.7441 36.0001 18.6797 37.3307C19.6153 38.6614 20.8082 39.7898 22.1873 40.6487C23.5665 41.5076 25.1039 42.0795 26.7079 42.3305C28.3119 42.5814 29.9499 42.5062 31.5244 42.1094C38.0179 40.3492 41.9282 33.3735 40.2587 26.5271C39.9155 24.9356 39.2566 23.4296 38.3211 22.0988C37.3857 20.768 36.1928 19.6396 34.8136 18.7807C33.4344 17.9218 31.897 17.35 30.2929 17.0993C28.6888 16.8486 27.0509 16.9242 25.4765 17.3215C18.9821 19.0808 15.0709 26.0555 16.7412 32.9029Z" fill="white"/>
<path d="M26.2994 28.4314L28.3211 29.6902L33.4978 20.4578L26.2994 28.4314Z" fill="#E46A5E"/>
<path d="M30.3449 30.9501L28.3212 29.6902L33.4978 20.4578L30.3449 30.9501Z" fill="#D63B30"/>
<path d="M30.3449 30.9501L28.3212 29.6902L23.1476 38.9237L30.3449 30.9501Z" fill="#7DC1C4"/>
<path d="M26.2995 28.4313L28.3212 29.6902L23.1476 38.9236L26.2995 28.4313Z" fill="#E8F7F2"/>
<path d="M20.9752 15.5387C21.0336 15.8084 21.1455 16.0636 21.3042 16.2891C21.4629 16.5146 21.6652 16.7058 21.899 16.8513C22.1328 16.9968 22.3934 17.0937 22.6653 17.1362C22.9372 17.1786 23.2149 17.1659 23.4818 17.0986L27.1234 16.112C27.6633 15.9498 28.1193 15.5838 28.3956 15.0912C28.6719 14.5986 28.747 14.0176 28.6049 13.4706L28.3974 12.6241C28.3393 12.3541 28.2277 12.0987 28.0691 11.8729C27.9105 11.6471 27.7083 11.4557 27.4744 11.3099C27.2405 11.1642 26.9798 11.0671 26.7077 11.0246C26.4357 10.982 26.1579 10.9948 25.8909 11.0622L22.2501 12.0489C21.71 12.211 21.2537 12.5771 20.9773 13.0699C20.701 13.5628 20.6262 14.144 20.7686 14.6911L20.9752 15.5387Z" fill="#222F3F"/>
</g>
<defs>
<linearGradient id="paint0_linear_6488_61946" x1="5.5" y1="-20" x2="52" y2="74" gradientUnits="userSpaceOnUse">
<stop stop-color="#E7FF86"/>
<stop offset="1" stop-color="#39FFE7"/>
</linearGradient>
<clipPath id="clip0_6488_61946">
<path d="M0 16C0 7.16344 7.16344 0 16 0H40C48.8366 0 56 7.16344 56 16V40C56 48.8366 48.8366 56 40 56H16C7.16344 56 0 48.8366 0 40V16Z" fill="white"/>
</clipPath>
</defs>
</svg>
