<svg width="56" height="56" viewBox="0 0 56 56" fill="none" xmlns="http://www.w3.org/2000/svg">
<g clip-path="url(#clip0_6488_61945)">
<rect width="56" height="56" rx="16" fill="url(#paint0_linear_6488_61945)"/>
<g style="mix-blend-mode:multiply">
<path d="M75.6656 49.0357L38.3439 11.5706L16.9517 43.5991L54.1931 80.9836L75.6656 49.0357Z" fill="#515151" fill-opacity="0.16"/>
</g>
<path d="M39.7336 38.3319C38.9538 39.0527 37.9325 39.4528 36.8724 39.4528C35.8124 39.4528 34.7911 39.0527 34.0113 38.3319C30.3323 41.0766 28.0362 38.3319 28.0362 38.3319C23.9565 41.3514 22.1578 38.1355 22.1578 38.1355C19.5564 41.756 16.4355 38.3319 16.4355 38.3319C16.0919 39.1657 13.9868 39.4979 13.2004 39.5937C14.2327 41.2364 15.6597 42.5924 17.3502 43.5371C19.0408 44.4818 20.9407 44.9848 22.8755 45H32.6331C34.7263 44.9791 36.775 44.3909 38.5625 43.2974C40.35 42.2039 41.81 40.6459 42.788 38.788C40.5887 39.2265 39.7336 38.3319 39.7336 38.3319Z" fill="#DBA04E"/>
<path d="M11.5322 35.7183C11.8672 37.0951 12.4312 38.4053 13.2004 39.5937C13.9868 39.4979 16.0918 39.1658 16.4355 38.3319C16.4355 38.3319 19.5564 41.7561 22.1578 38.1355C22.1578 38.1355 23.9565 41.3514 28.0361 38.3319C28.0361 38.3319 30.3323 41.0766 34.0112 38.3319C34.7911 39.0527 35.8123 39.4528 36.8724 39.4528C37.9324 39.4528 38.9537 39.0527 39.7335 38.3319C39.7335 38.3319 40.5886 39.2266 42.788 38.788C43.3158 37.8209 43.7161 36.789 43.9787 35.7183H11.5322Z" fill="#BD8A43"/>
<path d="M11.2946 34.5172C11.2946 34.5219 11.3015 34.5347 11.2946 34.5347C10.0771 34.6844 9.97466 35.475 10.1296 35.8959C10.3722 36.5994 10.825 37.2107 11.4262 37.6466C12.0274 38.0825 12.7478 38.3218 13.4893 38.3319C14.066 38.328 14.633 38.183 15.1411 37.9093C15.6493 37.6356 16.0832 37.2415 16.4052 36.7613C16.7242 37.2442 17.1573 37.6404 17.6659 37.9144C18.1745 38.1884 18.7428 38.3319 19.32 38.3319C19.8972 38.3319 20.4654 38.1884 20.974 37.9144C21.4826 37.6404 21.9157 37.2442 22.2347 36.7613C22.5537 37.2442 22.9869 37.6404 23.4954 37.9144C24.004 38.1884 24.5723 38.3319 25.1495 38.3319C25.7267 38.3319 26.2949 38.1884 26.8035 37.9144C27.3121 37.6404 27.7452 37.2442 28.0642 36.7613C28.3832 37.2442 28.8163 37.6404 29.3249 37.9144C29.8335 38.1884 30.4017 38.3319 30.9789 38.3319C31.5561 38.3319 32.1244 38.1884 32.6329 37.9144C33.1415 37.6404 33.5746 37.2442 33.8936 36.7613C34.2128 37.2442 34.646 37.6404 35.1546 37.9144C35.6633 38.1884 36.2316 38.3318 36.8089 38.3318C37.3862 38.3318 37.9546 38.1884 38.4632 37.9144C38.9719 37.6404 39.4051 37.2442 39.7242 36.7613C40.0462 37.2416 40.4801 37.6357 40.9882 37.9095C41.4964 38.1832 42.0634 38.3282 42.6401 38.3319C43.3604 38.3224 44.0613 38.0964 44.6523 37.683C45.2433 37.2696 45.6973 36.6879 45.9556 36.0129C46.1374 35.558 45.7692 34.6844 44.7056 34.5347C44.6998 34.5347 44.7056 34.5219 44.7056 34.5172H11.2946Z" fill="#B9D17D"/>
<path d="M45.2054 33.1864C45.2138 33.5308 45.0856 33.8644 44.8491 34.114C44.6125 34.3635 44.2869 34.5086 43.9438 34.5173H11.5661C11.223 34.5086 10.8974 34.3635 10.6608 34.114C10.4243 33.8644 10.2961 33.5308 10.3045 33.1864C10.2963 32.842 10.4246 32.5085 10.6611 32.259C10.8976 32.0096 11.2231 31.8645 11.5661 31.8556H43.9438C44.2868 31.8645 44.6123 32.0096 44.8488 32.259C45.0853 32.5085 45.2136 32.842 45.2054 33.1864Z" fill="#824848"/>
<path d="M44.9003 23.8964C44.9046 24.0669 44.8755 24.2365 44.8144 24.3956C44.7534 24.5547 44.6617 24.7002 44.5447 24.8237C44.4276 24.9472 44.2874 25.0463 44.1321 25.1153C43.9768 25.1844 43.8095 25.2221 43.6397 25.2261H11.2608C10.9181 25.2173 10.5929 25.0723 10.3566 24.823C10.1203 24.5737 9.99218 24.2405 10.0004 23.8964C9.99213 23.5522 10.1202 23.2187 10.3564 22.969C10.5927 22.7193 10.9179 22.5739 11.2608 22.5645H43.6397C43.8096 22.5688 43.977 22.6067 44.1323 22.676C44.2876 22.7453 44.4278 22.8446 44.5449 22.9683C44.6619 23.092 44.7536 23.2376 44.8145 23.3969C44.8755 23.5561 44.9047 23.7259 44.9003 23.8964Z" fill="#824848"/>
<path d="M45.2053 31.1901C45.2053 31.5585 44.6403 31.8555 43.9437 31.8555H11.566C10.8693 31.8555 10.3043 31.5585 10.3043 31.1901C10.3043 30.8241 10.8693 30.5259 11.566 30.5259H43.9437C44.6403 30.5259 45.2053 30.8241 45.2053 31.1901Z" fill="#F3BC64"/>
<path d="M45.2053 21.9001C45.2053 22.2685 44.6403 22.5643 43.9449 22.5643H11.566C10.8693 22.5643 10.3043 22.2685 10.3043 21.9001C10.3043 21.5329 10.8693 21.2347 11.566 21.2347H43.9449C44.6403 21.2347 45.2053 21.5329 45.2053 21.9001Z" fill="#F3BC64"/>
<path d="M45.2053 25.8914C45.2053 26.261 44.6403 26.5569 43.9449 26.5569H11.566C10.8693 26.5569 10.3043 26.261 10.3043 25.8914C10.3043 25.5243 10.8693 25.2261 11.566 25.2261H43.9449C44.6403 25.2261 45.2053 25.5243 45.2053 25.8914Z" fill="#DCE7EA"/>
<path d="M26.5741 29.3494C26.5818 29.6536 26.4688 29.9485 26.2599 30.1691C26.0511 30.3897 25.7636 30.518 25.4605 30.5259H12.5108C12.2077 30.518 11.9202 30.3897 11.7113 30.1691C11.5025 29.9485 11.3895 29.6536 11.3971 29.3494C11.3895 29.0452 11.5025 28.7504 11.7114 28.5298C11.9202 28.3092 12.2077 28.1808 12.5108 28.173H25.4605C25.7636 28.1809 26.0511 28.3092 26.2599 28.5298C26.4687 28.7504 26.5817 29.0452 26.5741 29.3494Z" fill="#F9532F"/>
<path d="M43.9786 29.3494C43.9602 29.6785 43.8127 29.987 43.5685 30.2074C43.3242 30.4278 43.003 30.5423 42.675 30.5259H27.5433C27.2158 30.5418 26.8953 30.4271 26.6517 30.2066C26.4082 29.9862 26.2613 29.678 26.2433 29.3494C26.2614 29.0207 26.4082 28.7125 26.6518 28.4921C26.8953 28.2717 27.2158 28.157 27.5433 28.1729H42.675C43.003 28.1565 43.3242 28.271 43.5684 28.4914C43.8127 28.7118 43.9601 29.0202 43.9786 29.3494Z" fill="#F9532F"/>
<path d="M44.3106 20.7062C44.3106 21.1447 43.2144 21.5002 41.8631 21.5002H13.4228C12.0715 21.5002 10.9753 21.1447 10.9753 20.7062C10.9753 20.2676 12.0715 19.9121 13.4228 19.9121H41.8631C43.2144 19.9121 44.3106 20.2676 44.3106 20.7062Z" fill="#F9532F"/>
<path d="M11.2561 26.5569V26.5698C10.0771 26.6656 9.97704 27.179 10.1262 27.4527C10.4866 27.9749 10.9753 28.3946 11.545 28.6712C12.1147 28.9478 12.7459 29.0719 13.3774 29.0314C14.4123 29.0634 15.4205 28.6993 16.1979 28.0128C16.9912 28.6712 17.9883 29.0314 19.0176 29.0314C20.047 29.0314 21.0441 28.6712 21.8374 28.0128C22.6307 28.6712 23.6279 29.0314 24.6572 29.0314C25.6865 29.0314 26.6837 28.6712 27.477 28.0128C28.2706 28.6712 29.2679 29.0314 30.2974 29.0314C31.3269 29.0314 32.3242 28.6712 33.1177 28.0128C33.911 28.6712 34.9082 29.0314 35.9375 29.0314C36.9668 29.0314 37.964 28.6712 38.7573 28.0128C39.5347 28.6991 40.5429 29.0632 41.5777 29.0314C42.1946 29.0679 42.8109 28.9496 43.3709 28.687C43.9308 28.4245 44.4168 28.026 44.7848 27.5276C44.9607 27.234 44.6066 26.6656 43.5756 26.5698V26.5569H11.2561Z" fill="#B9D17D"/>
<path d="M13.2493 18.9661C15.0981 19.0843 40.8612 19.124 41.9877 18.9661C42.3056 18.9544 42.6171 18.8726 42.9 18.7265C43.1829 18.5804 43.4302 18.3735 43.6245 18.1206C42.8623 15.787 41.3937 13.7503 39.4234 12.2946C37.453 10.8389 35.0792 10.0367 32.6331 10H22.8755C20.3786 10.0394 17.9589 10.8748 15.9662 12.3854C13.9734 13.896 12.5107 16.0036 11.7897 18.4036C11.9777 18.5982 12.2056 18.7493 12.4577 18.8464C12.7098 18.9436 12.9799 18.9844 13.2493 18.9661Z" fill="#DBA04E"/>
<path d="M43.7526 18.4784C43.7154 18.3579 43.6676 18.2399 43.6245 18.1206C43.4302 18.3735 43.1829 18.5804 42.9 18.7265C42.6171 18.8726 42.3056 18.9544 41.9877 18.966C40.8612 19.124 15.0981 19.0842 13.2493 18.966C12.9799 18.9844 12.7098 18.9435 12.4577 18.8464C12.2056 18.7492 11.9777 18.5981 11.7897 18.4036C11.7594 18.5019 11.7222 18.5942 11.6929 18.6913C11.6953 18.7017 11.7022 18.7123 11.6988 18.7228C11.4658 19.5976 11.9656 20.125 13.0408 19.9122H42.3675C43.0444 20.0104 44.094 19.6315 43.7526 18.4784Z" fill="#BD8A43"/>
</g>
<defs>
<linearGradient id="paint0_linear_6488_61945" x1="5.5" y1="-20" x2="52" y2="74" gradientUnits="userSpaceOnUse">
<stop offset="0.169792" stop-color="#F2A4FF"/>
<stop offset="0.945874" stop-color="#3958FF"/>
</linearGradient>
<clipPath id="clip0_6488_61945">
<path d="M0 16C0 7.16344 7.16344 0 16 0H40C48.8366 0 56 7.16344 56 16V40C56 48.8366 48.8366 56 40 56H16C7.16344 56 0 48.8366 0 40V16Z" fill="white"/>
</clipPath>
</defs>
</svg>
