<svg width="56" height="56" viewBox="0 0 56 56" fill="none" xmlns="http://www.w3.org/2000/svg">
<g clip-path="url(#clip0_6488_61944)">
<rect width="56" height="56" rx="16" fill="url(#paint0_linear_6488_61944)"/>
<g style="mix-blend-mode:multiply">
<path d="M68.4418 42.683L36.7969 10.2758L30.2445 17.507L21.2979 10.1246L17.565 13.3585L20.2132 18.9087L18.8122 34.0776L13.8975 45.9999L45.328 78.1876L68.4418 42.683Z" fill="#515151" fill-opacity="0.16"/>
</g>
<path d="M30.3766 24.9846H24.6271V46H30.3766V24.9846Z" fill="#CC5151"/>
<path d="M30.3766 46H41.1061C41.3433 45.9997 41.5707 45.903 41.7383 45.7311C41.9059 45.5592 42 45.3262 41.9999 45.0833V24.9846H30.3766V46Z" fill="#EFC641"/>
<path d="M13 24.9846V45.0833C13.0001 45.2039 13.0233 45.3232 13.0685 45.4346C13.1136 45.5459 13.1798 45.6471 13.2631 45.7322C13.3465 45.8174 13.4454 45.8848 13.5543 45.9308C13.6631 45.9767 13.7798 46.0002 13.8975 46H24.627V24.9846H13Z" fill="#EFC641"/>
<path d="M25.5208 16.3002H13.8975C13.7796 16.3 13.6628 16.3236 13.5538 16.3697C13.4448 16.4158 13.3458 16.4835 13.2624 16.5689C13.1791 16.6543 13.1129 16.7557 13.0679 16.8673C13.0229 16.9789 12.9998 17.0986 13 17.2193V24.9846H24.627L25.5208 16.3002Z" fill="#FFDE73"/>
<path d="M41.1062 16.3002H29.4803L30.3767 24.9846H42.0001V17.2193C42.0003 17.0988 41.9774 16.9795 41.9327 16.8681C41.8879 16.7567 41.8221 16.6554 41.7391 16.5701C41.6561 16.4847 41.5575 16.4169 41.4489 16.3706C41.3403 16.3243 41.2238 16.3004 41.1062 16.3002Z" fill="#FFDE73"/>
<path d="M30.3766 16.3002H24.6271V24.9846H30.3766V16.3002Z" fill="#E25A5A"/>
<path d="M36.797 10.2759C30.0405 7.92701 28.5212 21.3497 28.5212 21.3497C34.9762 23.739 42.868 12.3852 36.797 10.2759ZM29.9285 20.4381C29.9285 20.4381 31.5216 12.5934 34.8137 14.2514C37.4643 15.5853 33.7081 20.191 29.9285 20.4381Z" fill="#E25A5A"/>
<path d="M27.0821 21.3497C27.0821 21.3497 25.564 7.92701 18.8062 10.2759C12.7328 12.3852 20.6271 23.739 27.0821 21.3497ZM20.7908 14.2514C24.0792 12.5934 25.676 20.4381 25.676 20.4381C21.8928 20.191 18.1389 15.5853 20.7908 14.2514Z" fill="#E25A5A"/>
<path d="M29.2162 23.0296L36.459 27.3211L35.4705 25.0888L37.5343 24.535L29.6953 21.7837" fill="#E25A5A"/>
<path d="M25.8299 23.1742L18.7321 27.7123L19.6474 25.4503L17.5647 24.9649L25.3105 21.9451" fill="#E25A5A"/>
<path d="M41.9999 19.3804H13V22.5665H41.9999V19.3804Z" fill="#E25A5A"/>
</g>
<defs>
<linearGradient id="paint0_linear_6488_61944" x1="5.5" y1="-20" x2="52" y2="74" gradientUnits="userSpaceOnUse">
<stop stop-color="#FFCA42"/>
<stop offset="1" stop-color="#49FF39"/>
</linearGradient>
<clipPath id="clip0_6488_61944">
<path d="M0 16C0 7.16344 7.16344 0 16 0H40C48.8366 0 56 7.16344 56 16V40C56 48.8366 48.8366 56 40 56H16C7.16344 56 0 48.8366 0 40V16Z" fill="white"/>
</clipPath>
</defs>
</svg>
