<svg width="56" height="56" viewBox="0 0 56 56" fill="none" xmlns="http://www.w3.org/2000/svg">
<g clip-path="url(#clip0_6488_61943)">
<rect width="56" height="56" rx="16" fill="url(#paint0_linear_6488_61943)"/>
<g style="mix-blend-mode:multiply">
<path d="M87.0236 51.3268L47.5773 11.2921L12.8466 27.4999L13.4933 43.7916L54.2561 85.1625L87.0236 51.3268Z" fill="#515151" fill-opacity="0.16"/>
</g>
<path d="M14.7917 43.9604L44.1526 38.0806L45.0532 36.4015L13.8862 42.6426L9.30996 19.1047L43.5356 12.251L47.385 32.052L48.261 30.4179L44.8154 12.6886C44.7089 12.1436 44.3936 11.6639 43.9388 11.3548C43.4841 11.0456 42.927 10.9322 42.3899 11.0395L9.66593 17.5931C9.12877 17.7006 8.65563 18.0201 8.35051 18.4815C8.04538 18.9429 7.93322 19.5083 8.0387 20.0536L12.3661 42.3114C12.4725 42.8564 12.7878 43.3362 13.2426 43.6454C13.6975 43.9546 14.2546 44.0679 14.7917 43.9604Z" fill="#F0F0F0"/>
<path d="M43.5358 12.2504L9.30994 19.1047L13.8863 42.643L45.0533 36.4019L47.3856 32.0517L43.5358 12.2504Z" fill="#687546"/>
<path d="M10.6886 26.1959L17.2543 28.9062L22.2066 23.9043L28.5906 27.5005L31.3897 24.7698L39.6305 31.7393L45.1933 20.7895L43.5358 12.2504L9.30994 19.1047L10.6886 26.1959Z" fill="#687546"/>
<path d="M46.9466 11.1909L17.0188 11.0496L15.8091 12.5136L47.5773 12.6636L47.4651 36.6554L12.583 36.4904L12.6729 16.3055L11.4952 17.732L11.4127 35.8028C11.4106 36.358 11.6256 36.8915 12.0106 37.286C12.3956 37.6805 12.9191 37.9038 13.4662 37.9068L46.8233 38.0644C47.3706 38.0671 47.8964 37.8489 48.2852 37.4581C48.674 37.0672 48.8939 36.5356 48.8966 35.9802L49 13.2937C49.0014 13.0187 48.9493 12.7462 48.8468 12.4917C48.7444 12.2371 48.5934 12.0056 48.4027 11.8103C48.212 11.615 47.9853 11.4598 47.7354 11.3535C47.4856 11.2472 47.2175 11.192 46.9466 11.1909Z" fill="white"/>
<path d="M12.5833 36.4903L47.465 36.6554L47.5773 12.6639L15.8087 12.5142L12.6728 16.3049L12.5833 36.4903Z" fill="#49A2AF"/>
<path d="M16.143 16.8368L12.9327 16.8218L11.4952 17.732V18.0158L15.2166 18.3458C15.4956 18.3474 15.7721 18.2932 16.0304 18.1862C16.2887 18.0792 16.5236 17.9215 16.7218 17.7223C16.92 17.523 17.0775 17.286 17.1853 17.0249C17.2932 16.7638 17.3492 16.4837 17.3502 16.2006L17.147 11.0496H17.0188L16.1614 12.9174L16.143 16.8368Z" fill="#D5DFE0"/>
<path d="M15.8251 16.283L12.7086 16.268L11.4952 17.732L14.9246 17.7482C15.1955 17.7497 15.464 17.6969 15.7149 17.593C15.9657 17.4891 16.1938 17.3361 16.3864 17.1427C16.5789 16.9493 16.732 16.7192 16.8369 16.4658C16.9418 16.2123 16.9966 15.9404 16.9979 15.6654L17.0188 11.0496L15.8412 12.4735L15.8251 16.283Z" fill="#FAFAFA"/>
<path d="M15.8414 12.4733L12.7081 16.2679L15.825 16.2832L15.8414 12.4733Z" fill="#F3F4F7"/>
<path d="M47.4991 29.4261L41.5932 25.4497L35.7629 29.3569L30.2064 24.5484L26.9318 26.6621L20.2148 18.1729L12.6223 27.7861L12.5833 36.4904L47.465 36.6555L47.4991 29.4261Z" fill="#B9D17D"/>
<path d="M30.7082 17.8633C30.7051 18.4759 30.8811 19.0757 31.214 19.5868C31.5468 20.0979 32.0214 20.4973 32.5779 20.7346C33.1344 20.9719 33.7477 21.0365 34.3403 20.92C34.933 20.8035 35.4782 20.5113 35.9072 20.0803C36.3362 19.6493 36.6296 19.0989 36.7504 18.4986C36.8711 17.8984 36.8138 17.2753 36.5856 16.7081C36.3575 16.141 35.9687 15.6552 35.4685 15.3123C34.9683 14.9693 34.3792 14.7846 33.7755 14.7815C32.9662 14.7775 32.1883 15.0999 31.6131 15.6778C31.0379 16.2557 30.7124 17.0418 30.7082 17.8633Z" fill="#EFC94C"/>
<path d="M20.2147 18.1729L26.9318 26.6621L30.2064 24.5484L26.4802 29.0843L20.2147 18.1729Z" fill="#95AB5E"/>
</g>
<defs>
<linearGradient id="paint0_linear_6488_61943" x1="5.5" y1="-20" x2="52" y2="74" gradientUnits="userSpaceOnUse">
<stop stop-color="#F0CB35"/>
<stop offset="1" stop-color="#FFE600"/>
</linearGradient>
<clipPath id="clip0_6488_61943">
<path d="M0 16C0 7.16344 7.16344 0 16 0H40C48.8366 0 56 7.16344 56 16V40C56 48.8366 48.8366 56 40 56H16C7.16344 56 0 48.8366 0 40V16Z" fill="white"/>
</clipPath>
</defs>
</svg>
