<svg width="56" height="56" viewBox="0 0 56 56" fill="none" xmlns="http://www.w3.org/2000/svg">
<g clip-path="url(#clip0_6488_61942)">
<rect width="56" height="56" rx="16" fill="url(#paint0_linear_6488_61942)"/>
<g style="mix-blend-mode:multiply">
<path d="M30.3146 9.39292L27.9635 7L27.6809 11.2484L10.5945 24.2405L8 28.2152L26.9512 46.8398L25.0481 47.4855L20.9088 43.563L21.8059 48.3775L49.7878 76.8573L77.0648 50.7136L40.9069 13.9124L30.3146 9.39292Z" fill="#515151" fill-opacity="0.16"/>
</g>
<path d="M28.0712 25.3439H27.2028V41.1646H28.0712V25.3439Z" fill="#EFC94C"/>
<path d="M19.5894 44.3007V44.2691C19.5894 44.0417 19.6781 43.8236 19.8361 43.6628C19.9941 43.502 20.2084 43.4116 20.4318 43.4116C20.6552 43.4116 20.8696 43.502 21.0276 43.6628C21.1856 43.8236 21.2743 44.0417 21.2743 44.2691C21.2741 44.2978 21.272 44.3265 21.2681 44.355V44.4545C21.273 45.2012 21.5679 45.9156 22.0885 46.4418C22.609 46.968 23.3128 47.2633 24.0465 47.2633C24.7801 47.2633 25.484 46.968 26.0045 46.4418C26.525 45.9156 26.8199 45.2012 26.8249 44.4545C26.8249 44.4243 26.8249 44.1632 26.8225 43.8909C26.8225 43.8758 26.8186 43.8606 26.8186 43.8442V43.4382C26.8186 43.3411 26.8186 43.2755 26.8162 43.2604H26.8186V40.8745C26.8192 40.7471 26.8693 40.6251 26.958 40.5353C27.0467 40.4455 27.1668 40.3951 27.292 40.3953H28.028C28.1531 40.3952 28.2732 40.4455 28.3619 40.5354C28.4506 40.6252 28.5007 40.7471 28.5012 40.8745V43.2604C28.5037 43.3221 28.5037 44.3928 28.5037 44.4545C28.5047 45.0511 28.3901 45.642 28.1665 46.1934C27.9429 46.7449 27.6146 47.246 27.2005 47.6682C26.7864 48.0904 26.2946 48.4253 25.7532 48.6538C25.2118 48.8823 24.6314 49 24.0453 49C23.4592 49 22.8788 48.8823 22.3373 48.6538C21.7959 48.4253 21.3041 48.0904 20.89 47.6682C20.4759 47.246 20.1476 46.7449 19.924 46.1934C19.7004 45.642 19.5858 45.0511 19.5868 44.4545C19.5868 44.4029 19.5868 44.3524 19.5894 44.3007Z" fill="#EEDBAC"/>
<path d="M27.4666 9.3279C27.4666 10.6128 27.687 11.6544 27.9633 11.6544C28.2371 11.6544 28.4602 10.6128 28.4602 9.3279C28.4602 8.04166 28.2371 7 27.9633 7C27.687 7 27.4666 8.04166 27.4666 9.3279Z" fill="#B6CED4"/>
<path d="M26.1881 9.36438C21.4521 9.8 17.0226 11.9351 13.6908 15.3883C10.359 18.8415 8.34197 23.3878 8 28.2152C8.33745 27.4231 8.89775 26.7504 9.61027 26.2819C10.3228 25.8134 11.1556 25.5702 12.0038 25.5827C12.8519 25.5953 13.6774 25.8631 14.3763 26.3524C15.0751 26.8418 15.6159 27.5308 15.9306 28.3325C16.3928 15.9305 22.8936 11.0491 26.1881 9.36438Z" fill="#B6CED4"/>
<path d="M29.7339 9.36182C33.027 11.0454 39.5341 15.9266 39.9937 28.3325C40.0023 28.349 40.0094 28.3663 40.0148 28.3842C40.3215 27.5555 40.8706 26.8426 41.588 26.3416C42.3054 25.8405 43.1565 25.5755 44.0265 25.5822C44.9503 25.5664 45.851 25.8766 46.5754 26.4603C47.2998 27.044 47.8032 27.8651 48 28.7839C47.8487 23.8224 45.8991 19.0933 42.5267 15.5074C39.1542 11.9215 34.5974 9.73246 29.7339 9.36182Z" fill="#B6CED4"/>
<path d="M29.2644 9.32779C28.8307 9.30002 28.3958 9.28491 27.956 9.28491C27.5199 9.28491 27.0875 9.30002 26.66 9.32779C24.7014 15.4719 23.7912 21.9121 23.9689 28.369L23.974 28.3841C24.2829 27.5669 24.8259 26.8629 25.5324 26.3634C26.239 25.8639 27.0767 25.5918 27.9369 25.5825C28.7972 25.5731 29.6404 25.8268 30.3573 26.3108C31.0742 26.7948 31.6318 27.4868 31.9578 28.2971C32.1284 21.864 31.2175 15.4485 29.2644 9.32779Z" fill="#E6F0F2"/>
<path d="M29.7339 9.36185C29.5777 9.34932 28.4343 9.33666 28.2781 9.32788C30.0461 11.6115 31.9739 19.0969 31.9578 28.2972C31.969 28.3274 31.9827 28.354 31.9962 28.3842C32.3063 27.564 32.852 26.8579 33.5622 26.3581C34.2725 25.8583 35.1142 25.5879 35.9777 25.5824C36.8412 25.5768 37.6862 25.8362 38.4026 26.3268C39.119 26.8174 39.6735 27.5164 39.9938 28.3326C39.5341 15.9267 33.0271 11.0454 29.7339 9.36185Z" fill="#D3E4E8"/>
<path d="M27.681 9.28491C27.5224 9.29628 26.3442 9.3505 26.1881 9.36432C22.8937 11.049 16.3929 15.9305 15.9307 28.3325C15.9388 28.3492 15.9458 28.3664 15.9517 28.3841C16.2636 27.5606 16.8128 26.8524 17.5273 26.3523C18.2418 25.8523 19.0882 25.5838 19.9553 25.5822C20.8224 25.5805 21.6697 25.8458 22.3861 26.3432C23.1024 26.8405 23.6542 27.5467 23.969 28.369C23.9443 19.1296 26.3863 11.0112 27.681 9.28491Z" fill="#D3E4E8"/>
</g>
<defs>
<linearGradient id="paint0_linear_6488_61942" x1="1.27897e-06" y1="-8.5" x2="52" y2="74" gradientUnits="userSpaceOnUse">
<stop stop-color="#FFB347"/>
<stop offset="1" stop-color="#FFCC33"/>
</linearGradient>
<clipPath id="clip0_6488_61942">
<path d="M0 16C0 7.16344 7.16344 0 16 0H40C48.8366 0 56 7.16344 56 16V40C56 48.8366 48.8366 56 40 56H16C7.16344 56 0 48.8366 0 40V16Z" fill="white"/>
</clipPath>
</defs>
</svg>
