<svg width="56" height="56" viewBox="0 0 56 56" fill="none" xmlns="http://www.w3.org/2000/svg">
<g clip-path="url(#clip0_6488_61951)">
<rect width="56" height="56" rx="16" fill="url(#paint0_linear_6488_61951)"/>
<g style="mix-blend-mode:multiply">
<path d="M93.2913 65.5525L43.0074 15.0317L22.1304 30.5361L27.6247 37.6229L24.7212 42.9631L27.2898 46L14.0968 44.3669L67.5406 98.0624L93.2913 65.5525Z" fill="#515151" fill-opacity="0.16"/>
</g>
<path d="M43.9987 17.9958C44.0281 16.7732 43.5733 15.5888 42.7343 14.7028C41.8953 13.8169 40.7405 13.3017 39.5237 13.2705H17.4751C16.2584 13.3018 15.1038 13.8169 14.265 14.7029C13.4261 15.5889 12.9716 16.7733 13.0014 17.9958V23.5061H43.9987V17.9958Z" fill="#E9504D"/>
<path d="M13.0013 23.5061L13.0014 42C13.0014 44.2091 14.7922 46 17.0014 46H39.9986C42.2078 46 43.9986 44.2091 43.9986 42V23.5061H13.0013Z" fill="white"/>
<path d="M16.2594 17.0283C16.2514 17.362 16.3756 17.6852 16.6047 17.9269C16.8338 18.1687 17.1491 18.3091 17.4812 18.3174C17.8133 18.3089 18.1284 18.1684 18.3575 17.9267C18.5865 17.685 18.7108 17.3619 18.7031 17.0283V10.2892C18.7106 9.95558 18.5863 9.6326 18.3572 9.39096C18.1282 9.14932 17.8132 9.00874 17.4812 9C17.1492 9.00853 16.834 9.14904 16.605 9.39073C16.3759 9.63242 16.2516 9.95552 16.2594 10.2892V17.0283Z" fill="white"/>
<path d="M20.7208 17.0283C20.7126 17.3618 20.8365 17.685 21.0654 17.9268C21.2943 18.1685 21.6094 18.3091 21.9414 18.3174C22.1059 18.3134 22.2679 18.2768 22.4182 18.2098C22.5686 18.1429 22.7043 18.0467 22.8177 17.927C22.931 17.8073 23.0198 17.6663 23.0789 17.512C23.138 17.3578 23.1662 17.1935 23.162 17.0283V10.2892C23.1703 9.95559 23.0463 9.63238 22.8174 9.39062C22.5885 9.14885 22.2734 9.00836 21.9414 9C21.6095 9.00858 21.2945 9.14913 21.0657 9.39085C20.8368 9.63256 20.7128 9.95565 20.7208 10.2892V17.0283Z" fill="white"/>
<path d="M25.1813 17.0283C25.1732 17.3618 25.2972 17.6849 25.5261 17.9266C25.7549 18.1683 26.0699 18.3089 26.4019 18.3174C26.7341 18.3092 27.0495 18.1687 27.2788 17.927C27.5081 17.6853 27.6326 17.3621 27.6248 17.0283V10.2892C27.6323 9.9554 27.5078 9.63224 27.2786 9.39058C27.0493 9.14891 26.734 9.00847 26.4019 9C26.07 9.00878 25.7551 9.14941 25.5263 9.39108C25.2975 9.63275 25.1734 9.95571 25.1813 10.2892V17.0283Z" fill="white"/>
<path d="M29.6415 17.0283C29.6335 17.3619 29.7577 17.6851 29.9867 17.9269C30.2158 18.1686 30.5311 18.3091 30.8632 18.3174C31.1953 18.3089 31.5104 18.1684 31.7395 17.9267C31.9685 17.685 32.0928 17.3619 32.085 17.0283V10.2892C32.0926 9.95557 31.9683 9.63257 31.7392 9.39092C31.5102 9.14928 31.1952 9.00872 30.8632 9C30.5311 9.00853 30.216 9.14904 29.987 9.39073C29.7579 9.63242 29.6337 9.95553 29.6415 10.2892V17.0283Z" fill="white"/>
<path d="M34.1028 17.0283C34.0987 17.1935 34.1271 17.358 34.1863 17.5122C34.2456 17.6664 34.3344 17.8074 34.4479 17.9272C34.5614 18.0469 34.6972 18.143 34.8476 18.2099C34.9981 18.2769 35.1601 18.3134 35.3246 18.3174C35.6566 18.3088 35.9715 18.1682 36.2004 17.9265C36.4292 17.6848 36.5533 17.3618 36.5452 17.0283V10.2892C36.553 9.95572 36.429 9.63274 36.2001 9.39108C35.9713 9.14941 35.6565 9.0088 35.3246 9C34.9925 9.00831 34.6773 9.14876 34.4481 9.3905C34.219 9.63224 34.0948 9.95546 34.1028 10.2892V17.0283Z" fill="white"/>
<path d="M38.5632 17.0283C38.5553 17.3621 38.6797 17.6855 38.909 17.9273C39.1384 18.169 39.4539 18.3093 39.7862 18.3174C40.1181 18.3089 40.4331 18.1683 40.662 17.9266C40.8908 17.6849 41.0148 17.3618 41.0068 17.0283V10.2892C41.0146 9.95571 40.8905 9.63275 40.6617 9.39108C40.4329 9.14941 40.1181 9.00878 39.7862 9C39.454 9.00828 39.1386 9.14868 38.9093 9.39038C38.68 9.63209 38.5555 9.95534 38.5632 10.2892V17.0283Z" fill="white"/>
<path d="M22.1304 26.7241H34.6045V29.7708C33.5538 30.7633 32.6393 31.8919 31.885 33.1269C30.977 34.6553 30.2753 36.2981 29.7984 38.0124C29.3549 39.6295 29.0811 41.2887 28.9814 42.9631H24.7211C24.9674 40.6824 25.4995 38.4422 26.3047 36.2955C27.1842 34.2312 28.3344 32.2942 29.7248 30.5361H22.1304V26.7241Z" fill="url(#paint1_linear_6488_61951)"/>
</g>
<defs>
<linearGradient id="paint0_linear_6488_61951" x1="5.5" y1="-20" x2="52" y2="74" gradientUnits="userSpaceOnUse">
<stop stop-color="#F7FF00"/>
<stop offset="1" stop-color="#DB36A4"/>
</linearGradient>
<linearGradient id="paint1_linear_6488_61951" x1="22.1304" y1="34.8436" x2="34.6045" y2="34.8436" gradientUnits="userSpaceOnUse">
<stop stop-color="#E54A47"/>
<stop offset="0.73699" stop-color="#EA5350"/>
</linearGradient>
<clipPath id="clip0_6488_61951">
<path d="M0 16C0 7.16344 7.16344 0 16 0H40C48.8366 0 56 7.16344 56 16V40C56 48.8366 48.8366 56 40 56H16C7.16344 56 0 48.8366 0 40V16Z" fill="white"/>
</clipPath>
</defs>
</svg>
