<svg width="56" height="56" viewBox="0 0 56 56" fill="none" xmlns="http://www.w3.org/2000/svg">
<g clip-path="url(#clip0_6488_61950)">
<rect width="56" height="56" rx="16" fill="url(#paint0_linear_6488_61950)"/>
<g style="mix-blend-mode:multiply">
<path d="M87.285 65.7866L41.2252 18.7846L39.7426 19.6362L34.8252 13.4913L26.5778 12.7706L13.1147 45.0227L67.6596 100.683L87.285 65.7866Z" fill="#515151" fill-opacity="0.16"/>
</g>
<path d="M13 45.0226L20.1405 41.7618L20.9027 16.666L15.8862 18.7845L13 45.0226Z" fill="white"/>
<path d="M28.4988 46.0001L20.1405 41.7618L20.9028 16.666L28.4988 18.7845V46.0001Z" fill="#E6E2CF"/>
<path d="M44 45.0226L36.8583 41.7618L36.0973 16.666L41.1125 18.7845L44 45.0226Z" fill="#E6E2CF"/>
<path d="M28.4988 46.0001L36.8583 41.7618L36.0973 16.666L28.4988 18.7845V46.0001Z" fill="white"/>
<path d="M36.097 18.1898C36.1485 17.1339 35.9892 16.0783 35.6287 15.0872C35.2682 14.096 34.714 13.1899 33.9999 12.424C33.2858 11.6581 32.4265 11.0483 31.4744 10.6316C30.5222 10.2149 29.497 10 28.461 10C27.4249 10 26.3997 10.2149 25.4475 10.6316C24.4954 11.0483 23.6362 11.6581 22.922 12.424C22.2079 13.1899 21.6537 14.096 21.2932 15.0872C20.9327 16.0783 20.7734 17.1339 20.8249 18.1898C20.8214 19.7658 21.25 21.3113 22.0621 22.6518H22.0412L28.4228 34.6737L34.5824 23.0719C35.5728 21.645 36.1023 19.9384 36.097 18.1898ZM28.4597 14.4005C29.202 14.3628 29.9383 14.5531 30.5736 14.9466C31.2089 15.3402 31.714 15.919 32.0238 16.6084C32.3336 17.2978 32.4337 18.066 32.3114 18.8141C32.1891 19.5621 31.85 20.2556 31.3377 20.805C30.8254 21.3544 30.1635 21.7345 29.4374 21.8963C28.7113 22.0581 27.9543 21.9941 27.2643 21.7126C26.5742 21.4311 25.9826 20.945 25.5658 20.3171C25.1491 19.6891 24.9264 18.9482 24.9264 18.1898C24.9048 17.2098 25.2644 16.261 25.9266 15.5509C26.5887 14.8407 27.4995 14.4271 28.4597 14.4005Z" fill="#EFC94A"/>
<path d="M28.4735 14.9002L28.4735 14.9004L28.485 14.8998C29.1251 14.8673 29.7608 15.0313 30.3102 15.3716C30.8597 15.7121 31.2982 16.2138 31.5676 16.8133C31.8371 17.4129 31.9244 18.0818 31.8179 18.7334C31.7114 19.3849 31.4162 19.9875 30.9719 20.464C30.5277 20.9403 29.9551 21.2686 29.3286 21.4082C28.7021 21.5478 28.049 21.4927 27.453 21.2496C26.857 21.0065 26.3443 20.5859 25.9824 20.0406C25.6204 19.4951 25.4263 18.8504 25.4263 18.1897H25.4265L25.4262 18.1787C25.4075 17.3277 25.7199 16.5055 26.2922 15.8918C26.8642 15.2784 27.6487 14.9231 28.4735 14.9002Z" stroke="#F20C0C"/>
</g>
<defs>
<linearGradient id="paint0_linear_6488_61950" x1="5.5" y1="-20" x2="52" y2="74" gradientUnits="userSpaceOnUse">
<stop stop-color="#AC26FF"/>
<stop offset="1" stop-color="#FF3939"/>
</linearGradient>
<clipPath id="clip0_6488_61950">
<path d="M0 16C0 7.16344 7.16344 0 16 0H40C48.8366 0 56 7.16344 56 16V40C56 48.8366 48.8366 56 40 56H16C7.16344 56 0 48.8366 0 40V16Z" fill="white"/>
</clipPath>
</defs>
</svg>
