<svg width="56" height="56" viewBox="0 0 56 56" fill="none" xmlns="http://www.w3.org/2000/svg">
<g clip-path="url(#clip0_6488_61949)">
<rect width="56" height="56" rx="16" fill="url(#paint0_linear_6488_61949)"/>
<g style="mix-blend-mode:multiply">
<path d="M89.5897 59.3153L38.3615 8.57104L27.5006 20.943L17.3258 47.8628L63.9236 94.0205L89.5897 59.3153Z" fill="#515151" fill-opacity="0.16"/>
</g>
<path d="M18.0704 8H36.9296C37.4787 8 38.0053 8.21607 38.3936 8.60069C38.7819 8.9853 39 9.50695 39 10.0509V45.9485C39 46.4926 38.7818 47.0144 38.3934 47.3991C38.005 47.7839 37.4782 48 36.9289 48H18.0698C17.5208 48 16.9944 47.784 16.6062 47.3995C16.2181 47.015 16 46.4935 16 45.9498V10.0509C16 9.50695 16.2181 8.9853 16.6064 8.60069C16.9947 8.21607 17.5213 8 18.0704 8Z" fill="#703E3E"/>
<path d="M37.1636 12.2259C37.1636 11.9566 37.11 11.6898 37.0059 11.441C36.9018 11.1921 36.7492 10.966 36.5569 10.7756C36.3646 10.5851 36.1363 10.4341 35.885 10.331C35.6338 10.228 35.3645 10.175 35.0925 10.175H19.9074C19.3584 10.1752 18.832 10.3914 18.4438 10.776C18.0557 11.1606 17.8376 11.6821 17.8376 12.2259V29.6949C24.2621 24.5307 31.0914 19.7944 37.1636 14.2206V12.2259Z" fill="#EBEBEB"/>
<path d="M17.8376 29.695V39.232C17.8378 39.7757 18.0559 40.2972 18.444 40.6816C18.8321 41.0661 19.3585 41.2821 19.9074 41.2822H35.0925C35.6416 41.2824 36.1683 41.0665 36.5567 40.682C36.9451 40.2975 37.1634 39.776 37.1636 39.232V14.2207C31.0914 19.7945 24.2621 24.5308 17.8376 29.695Z" fill="white"/>
<path d="M26.1657 42.764H28.8331C28.9905 42.764 29.1415 42.826 29.2528 42.9362C29.3641 43.0465 29.4267 43.1961 29.4267 43.352V45.9956C29.4267 46.1512 29.3643 46.3004 29.2532 46.4104C29.1421 46.5205 28.9915 46.5823 28.8344 46.5823H26.1657C26.0083 46.5823 25.8572 46.5203 25.7459 46.41C25.6346 46.2997 25.572 46.1501 25.572 45.9942V43.3521C25.572 43.1962 25.6346 43.0466 25.7459 42.9363C25.8572 42.826 26.0083 42.764 26.1657 42.764Z" fill="white"/>
<path d="M36.1493 31.0008C36.1493 31.0008 36.3827 30.4736 36.4487 30.2737C36.5173 30.0745 36.5846 29.7399 35.9395 29.3107C34.8323 28.5609 33.654 27.9198 32.4213 27.3963C31.7379 27.2408 31.701 27.3813 31.536 27.544C31.3641 27.7359 31.2021 27.9363 31.0506 28.1444L31.0533 28.1417L31.0506 28.1444C30.9016 28.3214 30.986 28.5893 30.986 28.6657C32.7137 29.2532 34.3103 30.1665 35.6876 31.355C35.8512 31.1649 36.0503 31.2191 36.1493 31.0008ZM31.0572 28.1359L31.0546 28.1405L31.0572 28.1359Z" fill="#3F8B96"/>
<path d="M20.5011 16.2839C20.4839 16.2977 20.4681 16.312 20.4483 16.3265C20.2363 16.4765 20.0364 16.6427 19.8507 16.8236C19.5899 17.0042 19.3931 17.2614 19.288 17.5588C19.1829 17.8563 19.1748 18.179 19.2649 18.4812C19.6293 20.1476 20.2056 21.7614 20.98 23.2841C21.9316 24.8234 23.0726 26.2396 24.3768 27.5002C25.6497 28.7924 27.0797 29.9231 28.6338 30.8664C30.1714 31.6327 31.8008 32.203 33.4831 32.5637C33.7877 32.6536 34.1131 32.6462 34.4132 32.5424C34.7132 32.4386 34.9726 32.2437 35.1545 31.9855C35.337 31.8006 35.5055 31.6025 35.6585 31.3929C35.6675 31.3798 35.6772 31.3672 35.6875 31.355C34.3102 30.1665 32.7136 29.2532 30.9859 28.6658L30.9846 28.6814C30.929 28.889 30.7978 29.0688 30.6164 29.1863C30.435 29.3038 30.2161 29.3506 30.0018 29.3178C28.514 28.3648 27.143 27.2438 25.9163 25.9773C24.6378 24.7618 23.5059 23.4035 22.5431 21.9297C22.5089 21.7253 22.5509 21.5155 22.6614 21.3394C22.7718 21.1634 22.9431 21.0332 23.1433 20.9731C23.0522 20.0535 22.7705 19.1625 22.3158 18.3556C21.8612 17.5488 21.2434 16.8435 20.5011 16.2839Z" fill="#49A2AF"/>
<path d="M20.5011 16.284C21.2434 16.8436 21.8612 17.5488 22.3159 18.3557C22.7705 19.1625 23.0522 20.0536 23.1434 20.9732L23.1856 20.9562C23.2331 20.9378 23.5339 21.0509 23.7265 20.8909C23.9367 20.7409 24.1387 20.5801 24.332 20.4093C24.4969 20.2447 24.6394 20.208 24.4823 19.5338C23.9547 18.3117 23.3075 17.1438 22.5498 16.0469C22.1171 15.4098 21.7794 15.4765 21.5763 15.5431C21.3744 15.6091 20.8441 15.8404 20.8441 15.8404C20.629 15.9351 20.6752 16.1239 20.5011 16.284ZM23.7357 20.8836L23.7318 20.887L23.7357 20.8836ZM23.7304 20.8882L23.7279 20.8909L23.7304 20.8882Z" fill="#3F8B96"/>
</g>
<defs>
<linearGradient id="paint0_linear_6488_61949" x1="5.5" y1="-20" x2="52" y2="74" gradientUnits="userSpaceOnUse">
<stop stop-color="#00C6FF"/>
<stop offset="1" stop-color="#0072FF"/>
</linearGradient>
<clipPath id="clip0_6488_61949">
<path d="M0 16C0 7.16344 7.16344 0 16 0H40C48.8366 0 56 7.16344 56 16V40C56 48.8366 48.8366 56 40 56H16C7.16344 56 0 48.8366 0 40V16Z" fill="white"/>
</clipPath>
</defs>
</svg>
