<svg width="56" height="56" viewBox="0 0 56 56" fill="none" xmlns="http://www.w3.org/2000/svg">
<g clip-path="url(#clip0_6488_61948)">
<rect width="56" height="56" rx="16" fill="url(#paint0_linear_6488_61948)"/>
<g style="mix-blend-mode:multiply">
<path d="M76.6437 62.364L41.8194 25.2006L36.3363 21.6177L31.2304 14.7596L28.0435 17.8529L31.9082 23.2632L26.5103 19.5998L24.2909 18.9391L20.3202 12.1014L20.038 16.475L21.2938 18.9476L18.6046 19.9517L16.2062 22.1253L14.2933 20.3207L10.5855 18.9535L14.774 24.6666L15.2911 31.321L12.2515 28.5713L8.08984 30.1251L16.4617 40.0633L15.6184 41.404L54.215 79.6416L76.6437 62.364Z" fill="#515151" fill-opacity="0.16"/>
</g>
<path d="M42.5397 30.9449C42.693 30.3172 42.7718 29.674 42.7746 29.0282C42.8253 27.0023 42.0623 25.0393 40.6532 23.5703C39.2442 22.1013 37.3042 21.2465 35.2594 21.1935C33.6568 21.2194 32.104 21.7496 30.8257 22.7075C29.5473 23.6654 28.6096 25.0012 28.1482 26.5219C27.5868 25.9454 26.9144 25.4863 26.1707 25.1718C25.4271 24.8572 24.6273 24.6937 23.8187 24.6907C22.1229 24.7347 20.5141 25.444 19.3458 26.6626C18.1776 27.8812 17.5455 29.5095 17.5885 31.1896C17.5916 31.532 17.62 31.8737 17.6736 32.212C16.5939 32.6077 15.6645 33.3253 15.0134 34.2659C14.3623 35.2065 14.0215 36.324 14.0378 37.4644C14.0017 38.8955 14.5404 40.2823 15.5356 41.3202C16.5308 42.3582 17.9011 42.9623 19.3456 43.0001H41.1306C42.7273 42.9581 44.2419 42.2902 45.342 41.1429C46.4421 39.9956 47.0378 38.4628 46.9982 36.8809C47.0206 35.5427 46.5954 34.2347 45.7889 33.161C44.9825 32.0872 43.84 31.308 42.5397 30.9449Z" fill="white"/>
<path d="M16.2196 31.3947C15.1636 29.6114 14.8251 27.4993 15.2717 25.4798C15.7183 23.4602 16.9171 21.6817 18.6289 20.4992C20.0175 19.5699 21.6878 19.1453 23.3564 19.2973C24.5319 19.4064 25.665 19.7885 26.6635 20.4127C27.6621 21.0369 28.498 21.8855 29.1035 22.8897C29.1386 22.9505 29.186 23.0034 29.2426 23.0452C29.2993 23.0871 29.364 23.117 29.4328 23.1331C29.5016 23.1491 29.573 23.151 29.6426 23.1386C29.7121 23.1262 29.7783 23.0997 29.8371 23.0609C29.9569 22.9778 30.0402 22.8526 30.07 22.7108C30.0998 22.569 30.074 22.4213 29.9978 22.2978C29.3091 21.1514 28.3571 20.1823 27.2191 19.469C26.0812 18.7558 24.7894 18.3185 23.4488 18.193C21.5469 18.0215 19.6435 18.5062 18.0607 19.565C16.1089 20.9131 14.7426 22.9414 14.235 25.2443C13.7274 27.5472 14.1159 29.9552 15.3228 31.9866C15.3579 32.0473 15.4052 32.1001 15.4618 32.1419C15.5183 32.1837 15.5829 32.2135 15.6516 32.2296C15.7203 32.2456 15.7915 32.2475 15.861 32.2351C15.9304 32.2228 15.9966 32.1964 16.0553 32.1577C16.175 32.0746 16.2584 31.9497 16.2889 31.8082C16.3193 31.6666 16.2946 31.5189 16.2196 31.3947Z" fill="#F7CE9C"/>
<path d="M20.2752 16.6498C20.2217 16.6507 20.1694 16.6341 20.1264 16.6025C20.0835 16.5708 20.0524 16.526 20.0379 16.475L19.8055 12.4281C19.7946 12.0653 19.9369 12.0387 19.9905 12.0302L20.1511 12.0001C20.2984 11.9953 20.42 12.2412 20.4626 12.3448L21.4883 16.1977C21.4911 16.2553 21.4753 16.3123 21.4433 16.3605C21.426 16.3874 21.4032 16.4104 21.3764 16.4281C21.3496 16.4457 21.3193 16.4576 21.2876 16.463L20.3117 16.6462L20.2752 16.6498Z" fill="#F7CE9C"/>
<path d="M8.42823 30.2047C8.06314 30.2107 8.04006 30.0673 8.03146 30.013L8.00355 29.8478C7.99496 29.8057 7.9743 29.6803 8.32967 29.5187L12.019 28.4542C12.0808 28.4495 12.1421 28.4678 12.1909 28.5055C12.2398 28.5432 12.2727 28.5976 12.2832 28.658L12.4572 29.6791C12.4678 29.738 12.4572 29.7988 12.4272 29.8508C12.3972 29.9029 12.3497 29.9428 12.2929 29.9636L8.42823 30.2047Z" fill="#F7CE9C"/>
<path d="M13.5778 21.6177C13.5375 21.6182 13.4978 21.6087 13.4622 21.59L10.5418 18.9125C10.2875 18.6642 10.3703 18.5424 10.4019 18.4966L10.4908 18.3604C10.5334 18.2953 10.5516 18.2893 10.61 18.2869C10.7256 18.2911 10.8393 18.3178 10.9446 18.3653L14.2933 20.3206C14.3386 20.3629 14.3675 20.4197 14.3749 20.4809C14.3822 20.5422 14.3676 20.604 14.3335 20.6557L13.7713 21.508C13.7503 21.5403 13.7217 21.5671 13.688 21.5862C13.6544 21.6053 13.6166 21.6161 13.5778 21.6177Z" fill="#F7CE9C"/>
<path d="M29.1058 18.6486C29.0546 18.6503 29.0043 18.6345 28.9635 18.6039L28.1433 18.0144C28.09 17.9755 28.0542 17.9176 28.0435 17.8528C28.034 17.7986 28.0412 17.7428 28.0642 17.6926L30.6316 14.6486C30.7053 14.5526 30.811 14.4855 30.9298 14.4594C30.9678 14.4613 31.0039 14.4762 31.032 14.5015L31.1671 14.5967C31.1987 14.6197 31.2985 14.692 31.1586 15.0682L29.2835 18.5606C29.2621 18.5872 29.2351 18.6088 29.2044 18.624C29.1737 18.6392 29.1401 18.6476 29.1058 18.6486Z" fill="#F7CE9C"/>
<path d="M42.3145 31.8827C42.1944 31.8508 42.082 31.7954 41.9838 31.7198C41.8856 31.6443 41.8036 31.55 41.7426 31.4427C41.6156 31.2193 41.5787 30.9565 41.6392 30.7073C41.7739 30.1575 41.8429 29.5939 41.8449 29.0281C41.8508 27.3254 41.233 25.6784 40.1061 24.3928C40.1145 26.7049 39.2725 31.0377 33.0083 31.9129C33.0083 31.9129 27.7236 43.1929 15.6184 39.8523C15.9923 40.5076 16.5334 41.0541 17.1875 41.4371C17.8416 41.82 18.5858 42.026 19.3456 42.0344H41.1306C42.4748 41.9975 43.7495 41.4345 44.6756 40.4686C45.6018 39.5027 46.1039 38.2126 46.0721 36.8808C46.092 35.7533 45.734 34.651 45.0541 33.7466C44.3741 32.8422 43.4107 32.1867 42.3145 31.8827Z" fill="#EBFAFF"/>
</g>
<defs>
<linearGradient id="paint0_linear_6488_61948" x1="5.5" y1="-20" x2="52" y2="74" gradientUnits="userSpaceOnUse">
<stop stop-color="#71A1FF"/>
<stop offset="1" stop-color="#72FF63"/>
</linearGradient>
<clipPath id="clip0_6488_61948">
<path d="M0 16C0 7.16344 7.16344 0 16 0H40C48.8366 0 56 7.16344 56 16V40C56 48.8366 48.8366 56 40 56H16C7.16344 56 0 48.8366 0 40V16Z" fill="white"/>
</clipPath>
</defs>
</svg>
