<svg width="56" height="56" viewBox="0 0 56 56" fill="none" xmlns="http://www.w3.org/2000/svg">
<g clip-path="url(#clip0_6488_61933)">
<rect width="56" height="56" rx="16" fill="url(#paint0_linear_6488_61933)"/>
<g style="mix-blend-mode:multiply">
<path d="M63 33.6892L50.7763 21.4655L33.9848 22.7848L19.5 22.7849L4.22375 24.8615L6.54992 27.7211L10.5097 35.7954L37 62.2858C61.3601 67.7143 64.4834 45.4833 63 33.6892Z" fill="#515151" fill-opacity="0.16"/>
</g>
<path d="M50.7763 21.4656C49.8528 21.3368 48.9369 21.1587 48.0326 20.9321C44.4452 20.1551 40.7693 19.8618 37.1036 20.06C31.1869 20.7428 30.4966 22.095 27.5 22.0633C24.5034 22.095 23.8131 20.7428 17.8964 20.06C14.2307 19.8618 10.5548 20.1551 6.96742 20.9321C6.0631 21.1587 5.14721 21.3368 4.22373 21.4656C3.72034 22.2526 4.22373 24.8615 4.22373 24.8615C4.53471 25.0019 4.80985 25.2104 5.02856 25.4717C5.24728 25.7329 5.40392 26.0401 5.48676 26.3702C5.58551 26.9293 6.34878 37.2497 15.4844 36.9954C24.5352 36.7451 25.2291 28.8219 25.6077 26.9053C25.5868 26.6449 25.6201 26.3829 25.7057 26.136C25.7912 25.8891 25.9272 25.6625 26.1049 25.4705C26.2827 25.2785 26.4984 25.1253 26.7385 25.0205C26.9786 24.9157 27.2379 24.8616 27.5 24.8616C27.7621 24.8616 28.0214 24.9157 28.2615 25.0205C28.5016 25.1253 28.7173 25.2785 28.895 25.4705C29.0728 25.6625 29.2087 25.8891 29.2943 26.136C29.3799 26.3829 29.4133 26.6449 29.3923 26.9053C29.771 28.8219 30.4648 36.7451 39.5168 36.9954C48.6524 37.2497 49.4145 26.9293 49.5144 26.3702C49.5969 26.0401 49.7532 25.7329 49.9718 25.4716C50.1903 25.2103 50.4653 25.0017 50.7763 24.8615C50.7763 24.8615 51.2797 22.2526 50.7763 21.4656Z" fill="#F0BE0E"/>
<path d="M23.925 29.0012C24.3154 26.5213 24.0109 23.9071 22.9547 22.9208C22.9053 22.8739 22.8524 22.8293 22.7995 22.7848C17.4301 24.125 12.2518 26.135 7.38733 28.7673C7.55606 30.5089 8.25443 32.1575 9.38896 33.4926C10.2553 34.491 11.3741 35.24 12.629 35.6618C12.6913 35.6097 12.756 35.5563 12.8196 35.503C16.3304 33.0268 20.0455 30.8517 23.925 29.0012Z" fill="#49A2AF"/>
<path d="M12.8194 35.503C12.7558 35.5563 12.6912 35.6097 12.6289 35.6618C14.2503 36.1301 15.965 36.1765 17.6095 35.7968C19.254 35.4171 20.7736 34.6238 22.0232 33.4926C23.0867 32.2146 23.7482 30.6522 23.9249 29.0012C20.0454 30.8517 16.3303 33.0268 12.8194 35.503Z" fill="#2A6585"/>
<path d="M12.7923 21.5036C8.50327 21.8763 7.71182 24.338 7.71182 24.338C7.31008 25.7784 7.19971 27.2841 7.38714 28.7674C12.2517 26.1351 17.4299 24.125 22.7993 22.7848C20.9117 21.2205 16.9613 21.1431 12.7923 21.5036Z" fill="#2C626B"/>
<path d="M32.0454 22.9208C31.2531 23.9403 30.8541 25.2093 30.9211 26.4972C34.6515 24.8338 38.3561 23.1154 42.1017 21.4947C37.8527 21.1337 33.8483 21.2392 32.0454 22.9208Z" fill="#2C626B"/>
<path d="M47.2894 24.338C47.2894 24.338 46.498 21.8762 42.2078 21.5035C42.1725 21.5011 42.1372 21.4988 42.1019 21.4948C38.3563 23.1154 34.6517 24.8338 30.9212 26.4972C30.8272 29.0099 31.5364 32.0437 32.9781 33.4926C33.922 34.3826 35.0489 35.0574 36.2805 35.4701C39.7906 33.5457 43.4524 31.9101 47.2295 30.5795C47.8279 28.5445 47.8486 26.384 47.2894 24.338Z" fill="#49A2AF"/>
<path d="M36.2804 35.4701C37.8522 36.1297 39.5889 36.2938 41.257 35.9403C42.9251 35.5867 44.4446 34.7326 45.6112 33.4927C46.3493 32.6453 46.9006 31.6529 47.2294 30.5796C43.4523 31.9101 39.7905 33.5458 36.2804 35.4701Z" fill="#2A6585"/>
</g>
<defs>
<linearGradient id="paint0_linear_6488_61933" x1="5.5" y1="-20" x2="52" y2="74" gradientUnits="userSpaceOnUse">
<stop stop-color="#CBF9FF"/>
<stop offset="1" stop-color="#39E8FF"/>
</linearGradient>
<clipPath id="clip0_6488_61933">
<path d="M0 16C0 7.16344 7.16344 0 16 0H40C48.8366 0 56 7.16344 56 16V40C56 48.8366 48.8366 56 40 56H16C7.16344 56 0 48.8366 0 40V16Z" fill="white"/>
</clipPath>
</defs>
</svg>
