<svg width="56" height="56" viewBox="0 0 56 56" fill="none" xmlns="http://www.w3.org/2000/svg">
<g clip-path="url(#clip0_6488_61947)">
<rect width="56" height="56" rx="16" fill="url(#paint0_linear_6488_61947)"/>
<g style="mix-blend-mode:multiply">
<path d="M37.2664 18.4165L24.7773 9.00024L21.7307 12.1236L19.4863 13.3397L23.7073 17.2835L21.3986 26.6754L10.7217 36.0092L15.2328 42.209L11.8431 43.9085L43.481 76.5399L70.0343 51.2728L37.2664 18.4165Z" fill="#515151" fill-opacity="0.16"/>
</g>
<path d="M20.7618 10.8791C21.9094 9.49382 24.4738 10.1975 24.4738 10.1975V14.226C22.982 11.668 21.4008 14.0247 20.0987 13.6197C19.6407 13.4752 19.2318 13.2058 18.9179 12.8415C18.6039 12.4773 18.3973 12.0326 18.321 11.5573C19.1176 12.3938 19.6175 12.2677 20.7618 10.8791Z" fill="white"/>
<path d="M24.326 9.48482C24.3215 9.42286 24.3298 9.36062 24.3504 9.30202C24.3709 9.24341 24.4033 9.18971 24.4455 9.14422C24.4877 9.09872 24.5388 9.06243 24.5956 9.03762C24.6524 9.01281 24.7137 9 24.7757 9C24.8376 9 24.8989 9.01281 24.9557 9.03762C25.0125 9.06243 25.0636 9.09872 25.1058 9.14422C25.148 9.18971 25.1804 9.24341 25.201 9.30202C25.2215 9.36062 25.2298 9.42286 25.2253 9.48482C25.2263 9.57314 25.2033 9.66007 25.1588 9.73629C25.1143 9.81251 25.05 9.87514 24.9727 9.9175L25.8002 39.9392L24.6527 40.6561V9.94845C24.5561 9.91614 24.4723 9.85374 24.4135 9.77035C24.3548 9.68695 24.3241 9.58691 24.326 9.48482Z" fill="#703E3E"/>
<path d="M40.0667 21.1787C36.8744 17.6625 31.9685 14.5988 24.4341 13.3397C24.4341 13.3397 38.8694 28.3993 20.5192 38.128C20.5192 38.128 26.8816 37.764 32.1119 37.1931C38.5285 33.5342 42.7381 26.9598 40.0667 21.1787Z" fill="white"/>
<path d="M40.0667 21.1787C39.1006 27.2036 36.3256 32.7901 32.1119 37.1932C33.8642 37.0017 35.4896 36.7871 36.7068 36.5547C45.9139 34.8 45.8433 35.8687 46 36.8623C45.9814 31.0865 43.8732 25.5137 40.0667 21.1787Z" fill="#F0F0F0"/>
<path d="M24.0833 15.0392V35.373C24.0833 35.373 12.0458 38.3604 10 35.373C10 35.373 15.5503 35.3155 24.0833 15.0392Z" fill="white"/>
<path d="M16.392 43.7941C16.392 43.7941 16.328 46.6676 15.5214 47.2065C14.717 47.7452 16.8201 47.9244 17.4469 47.4763C18.748 46.4415 19.7263 45.0547 20.2661 43.4799" fill="#4D2A2A"/>
<path d="M43.8084 37.0436C42.0859 37.5416 34.4865 39.1835 11.9861 39.0662C11.9861 39.0662 11.43 38.9766 11.4454 39.9303C11.4598 40.8808 11.1299 44.2619 12.2598 44.2619C12.2598 44.2619 22.982 46.175 40.7993 44.1049C41.6534 43.6446 43.9375 42.0015 45.0641 37.2295C45.0641 37.2295 45.532 36.5458 43.8084 37.0436Z" fill="#703E3E"/>
</g>
<defs>
<linearGradient id="paint0_linear_6488_61947" x1="5.5" y1="-20" x2="52" y2="74" gradientUnits="userSpaceOnUse">
<stop stop-color="#43CEA2"/>
<stop offset="1" stop-color="#399FFF"/>
</linearGradient>
<clipPath id="clip0_6488_61947">
<path d="M0 16C0 7.16344 7.16344 0 16 0H40C48.8366 0 56 7.16344 56 16V40C56 48.8366 48.8366 56 40 56H16C7.16344 56 0 48.8366 0 40V16Z" fill="white"/>
</clipPath>
</defs>
</svg>
