<svg width="56" height="56" viewBox="0 0 56 56" fill="none" xmlns="http://www.w3.org/2000/svg">
<g clip-path="url(#clip0_6488_61934)">
<rect width="56" height="56" rx="16" fill="url(#paint0_linear_6488_61934)"/>
<g style="mix-blend-mode:multiply">
<path d="M68 48.324L41.5 19.0001L15.5 45.0001L37.9188 66.5001L68 48.324Z" fill="#515151" fill-opacity="0.16"/>
</g>
<path d="M40.5781 17.8062H40.5823L29.6843 9.83077C28.5024 8.60658 27.3865 8.82905 26.2664 9.8879L15.4176 17.8062H15.425C15.2774 17.9424 15.1391 18.0893 15.0111 18.2457L26.6803 31.387C27.0827 30.9475 27.4441 30.1089 28.1504 30.4451C28.5345 30.6684 28.8552 30.9945 29.0797 31.3902L40.8715 18.1083C40.7783 18.0024 40.6777 17.9013 40.5781 17.8062Z" fill="url(#paint1_linear_6488_61934)"/>
<path d="M40.8715 18.1083C40.4703 17.6479 39.982 17.28 39.4378 17.0283C38.8935 16.7766 38.3052 16.6465 37.7103 16.6464H18.2897C17.665 16.6461 17.0478 16.7892 16.4814 17.0654C15.9151 17.3417 15.4132 17.7445 15.0111 18.2457L27.8821 32.7407L40.8715 18.1083Z" fill="url(#paint2_radial_6488_61934)"/>
<path d="M39.6443 37.9481L27.8796 30.2063L16.3563 37.9481V18.7349H39.6443V37.9481Z" fill="url(#paint3_linear_6488_61934)"/>
<path d="M27.8821 32.7407L15.0111 18.2457C14.3574 19.0553 13.9991 20.0819 14 21.1426V41.5032C14 42.0937 14.1109 42.6785 14.3265 43.2241C14.542 43.7697 14.858 44.2654 15.2564 44.683C15.6547 45.1006 16.1276 45.4318 16.6481 45.6578C17.1685 45.8837 17.7263 46 18.2897 46H37.7103C38.2736 46 38.8315 45.8837 39.3519 45.6578C39.8724 45.4318 40.3453 45.1006 40.7436 44.683C41.142 44.2654 41.4579 43.7697 41.6735 43.2241C41.8891 42.6785 42 42.0937 42 41.5032V21.1426C42.0008 20.0185 41.5979 18.9352 40.8715 18.1083L27.8821 32.7407Z" fill="url(#paint4_radial_6488_61934)"/>
<g style="mix-blend-mode:multiply">
<path d="M15.3361 18.61L27.5986 29.8948L26.7757 30.9251L26.2349 31.2681L15.3361 18.61Z" fill="#E7D4B6"/>
</g>
<g style="mix-blend-mode:multiply">
<path d="M40.4072 18.6302L28.2981 29.9814L28.9654 30.8204L29.5094 31.1624L40.4072 18.6302Z" fill="#E7D4B6"/>
</g>
<path d="M27.5321 30.7675C27.5752 30.7152 27.6286 30.6733 27.6887 30.6447C27.7488 30.6162 27.814 30.6017 27.88 30.6022C27.9442 30.6011 28.0079 30.6145 28.0667 30.6417C28.1254 30.6688 28.1779 30.7089 28.2205 30.7593L40.9124 44.4964C40.9124 44.4964 35.3089 38.0467 28.3096 29.7653C27.88 29.2479 27.5185 29.6697 27.3708 29.8592C20.2531 38.2801 15.0865 44.4964 15.0865 44.4964L27.5321 30.7675Z" fill="#FFECD0"/>
<path d="M26.6646 31.3045C26.6911 31.2529 26.7292 31.2088 26.7756 31.1761L15.0111 18.2457C15.0111 18.2457 18.8187 22.9627 26.3125 31.8406C26.4434 31.672 26.5611 31.4928 26.6646 31.3045Z" fill="#FFECD0"/>
<path d="M40.8714 18.1083L28.8932 31.1925C29.0652 31.4236 29.191 31.6886 29.263 31.9718C36.9862 22.8244 40.8714 18.1083 40.8714 18.1083Z" fill="#FFECD0"/>
</g>
<defs>
<linearGradient id="paint0_linear_6488_61934" x1="5.5" y1="-20" x2="52" y2="74" gradientUnits="userSpaceOnUse">
<stop stop-color="#CCCBFF"/>
<stop offset="1" stop-color="#3C39FF"/>
</linearGradient>
<linearGradient id="paint1_linear_6488_61934" x1="27.9413" y1="32.5115" x2="27.9413" y2="8.35668" gradientUnits="userSpaceOnUse">
<stop offset="0.34793" stop-color="#E5A94C"/>
<stop offset="1" stop-color="#EFC88A"/>
</linearGradient>
<radialGradient id="paint2_radial_6488_61934" cx="0" cy="0" r="1" gradientUnits="userSpaceOnUse" gradientTransform="translate(7077.45 2089.45) scale(337.475 210.029)">
<stop offset="0.26098" stop-color="#EFC88A"/>
<stop offset="1" stop-color="#EFB863"/>
</radialGradient>
<linearGradient id="paint3_linear_6488_61934" x1="28.0005" y1="37.9477" x2="28.0005" y2="18.735" gradientUnits="userSpaceOnUse">
<stop offset="0.45432" stop-color="#F0F0F0"/>
<stop offset="0.70376" stop-color="white"/>
</linearGradient>
<radialGradient id="paint4_radial_6488_61934" cx="0" cy="0" r="1" gradientUnits="userSpaceOnUse" gradientTransform="translate(7660.75 3610.3) scale(365.36 363.946)">
<stop offset="0.26098" stop-color="#EFC88A"/>
<stop offset="1" stop-color="#EFB863"/>
</radialGradient>
<clipPath id="clip0_6488_61934">
<path d="M0 16C0 7.16344 7.16344 0 16 0H40C48.8366 0 56 7.16344 56 16V40C56 48.8366 48.8366 56 40 56H16C7.16344 56 0 48.8366 0 40V16Z" fill="white"/>
</clipPath>
</defs>
</svg>
