<svg width="56" height="56" viewBox="0 0 56 56" fill="none" xmlns="http://www.w3.org/2000/svg">
<g clip-path="url(#clip0_6488_61935)">
<rect width="56" height="56" rx="16" fill="url(#paint0_linear_6488_61935)"/>
<g style="mix-blend-mode:multiply">
<path d="M71.2048 36.5L46.2765 11.5718L9.1886 38.406L37 66.2174L71.2048 36.5Z" fill="#515151" fill-opacity="0.16"/>
</g>
<path d="M46.9968 13.31C47.0283 12.7304 46.8241 12.1621 46.4289 11.7292C46.0336 11.2964 45.4794 11.0342 44.8872 11H10.1154C9.52288 11.0339 8.96814 11.2958 8.57235 11.7287C8.17656 12.1615 7.97191 12.73 8.00311 13.31V33.085H46.9968V13.31Z" fill="#1D2C36"/>
<path d="M8.00313 33.0849V36.0954C7.9718 36.6755 8.17638 37.2441 8.57218 37.6771C8.96797 38.1101 9.52279 38.3721 10.1154 38.4061H44.8872C45.4795 38.3718 46.0338 38.1095 46.4291 37.6765C46.8244 37.2435 47.0285 36.6751 46.9968 36.0954V33.0849H8.00313Z" fill="#ECF0F1"/>
<path d="M32.3364 43.4939C31.9101 43.2268 31.5588 42.8597 31.3144 42.426C31.07 41.9922 30.9403 41.5055 30.9371 41.0102V38.4061H24.064V41.0102C24.0611 41.5056 23.9316 41.9924 23.6872 42.4262C23.4428 42.86 23.0913 43.2271 22.6647 43.4939H22.2488V44H32.7509V43.4939H32.3364Z" fill="#D6DBDB"/>
<path d="M9.95728 13.2141V31.2202H16.9462L31.4643 13.2141H9.95728Z" fill="#363838"/>
<path d="M45.0423 13.2141H31.4644L16.9463 31.2202H45.0423V13.2141Z" fill="#4F4F4F"/>
<path d="M32.7509 43.494H22.2488V44.0001H32.7509V43.494Z" fill="#B7C3C3"/>
</g>
<defs>
<linearGradient id="paint0_linear_6488_61935" x1="5.5" y1="-20" x2="52" y2="74" gradientUnits="userSpaceOnUse">
<stop stop-color="#ADE4AF"/>
<stop offset="1" stop-color="#29DA2F"/>
</linearGradient>
<clipPath id="clip0_6488_61935">
<path d="M0 16C0 7.16344 7.16344 0 16 0H40C48.8366 0 56 7.16344 56 16V40C56 48.8366 48.8366 56 40 56H16C7.16344 56 0 48.8366 0 40V16Z" fill="white"/>
</clipPath>
</defs>
</svg>
