<svg width="56" height="56" viewBox="0 0 56 56" fill="none" xmlns="http://www.w3.org/2000/svg">
<g clip-path="url(#clip0_6488_61936)">
<rect width="56" height="56" rx="16" fill="url(#paint0_linear_6488_61936)"/>
<g style="mix-blend-mode:multiply">
<path d="M66.3421 37.9999L46 16.9999L38 17.4999L30 26.4999L23.0713 23.8483L28.4999 45L46 62.5001L66.3421 37.9999Z" fill="#515151" fill-opacity="0.16"/>
</g>
<path d="M47.996 22.6634C48.0003 21.3959 47.7514 20.1401 47.2635 18.9679C46.7755 17.7956 46.0582 16.7301 45.1526 15.8323C44.247 14.9346 43.1709 14.2223 41.9861 13.7362C40.8012 13.2502 39.5309 13 38.248 13C36.9651 13 35.6948 13.2502 34.51 13.7362C33.3251 14.2223 32.249 14.9346 31.3434 15.8323C30.4378 16.7301 29.7205 17.7956 29.2325 18.9679C28.7446 20.1401 28.4957 21.3959 28.5 22.6634C28.5 21.3987 28.2479 20.1463 27.758 18.9779C27.2681 17.8094 26.5501 16.7477 25.6449 15.8535C24.7397 14.9592 23.6651 14.2498 22.4824 13.7658C21.2997 13.2818 20.0321 13.0327 18.752 13.0327C17.4719 13.0327 16.2043 13.2818 15.0216 13.7658C13.8389 14.2498 12.7643 14.9592 11.8591 15.8535C10.9539 16.7477 10.2359 17.8094 9.746 18.9779C9.25612 20.1463 9.00396 21.3987 9.00396 22.6634C8.67873 33.8894 28.5 45 28.5 45C28.5 45 48.3237 33.8894 47.996 22.6634Z" fill="#E25A5A"/>
<path d="M22.9812 16.0682C22.9812 16.0682 16.8155 12.8974 12.6149 17.2201C8.41177 21.5422 12.6149 29.2833 12.6149 29.2833C12.6149 29.2833 12.1665 15.186 22.9812 16.0682Z" fill="#F27272"/>
</g>
<defs>
<linearGradient id="paint0_linear_6488_61936" x1="5.5" y1="-20" x2="52" y2="74" gradientUnits="userSpaceOnUse">
<stop stop-color="#FEFFBA"/>
<stop offset="1" stop-color="#E6EA16"/>
</linearGradient>
<clipPath id="clip0_6488_61936">
<path d="M0 16C0 7.16344 7.16344 0 16 0H40C48.8366 0 56 7.16344 56 16V40C56 48.8366 48.8366 56 40 56H16C7.16344 56 0 48.8366 0 40V16Z" fill="white"/>
</clipPath>
</defs>
</svg>
