<svg width="56" height="56" viewBox="0 0 56 56" fill="none" xmlns="http://www.w3.org/2000/svg">
<g clip-path="url(#clip0_6488_61941)">
<rect width="56" height="56" rx="16" fill="url(#paint0_linear_6488_61941)"/>
<g style="mix-blend-mode:multiply">
<path d="M67.2832 42L34.0338 8.87778L31.228 13.1622L26.219 8.15381L12.2493 28.0115L8.49915 32.7631L12.654 37.402L11.6468 40.0158L17.6846 45.4095L32.1117 59.7626C48.0016 58.7322 64.9901 50.3015 67.2832 42Z" fill="#515151" fill-opacity="0.16"/>
</g>
<path d="M47.7933 27.4814L47.6494 27.3314C47.5589 27.2367 47.4312 27.1027 47.2699 26.9469C47.1062 26.7921 46.9148 26.6142 46.7104 26.4296C46.6106 26.3371 46.505 26.2447 46.396 26.1512C46.2903 26.0577 46.1719 25.9653 46.0593 25.8741C45.833 25.6928 45.6067 25.5185 45.3943 25.3591C45.1807 25.2021 44.9718 25.0623 44.7977 24.9469C44.6503 24.8476 44.5238 24.7655 44.4286 24.7032C44.3984 24.56 44.3682 24.4168 44.3346 24.2736C44.4007 24.1778 44.4808 24.0543 44.5772 23.9041C44.6352 23.8164 44.6978 23.7183 44.7606 23.6155C44.8209 23.5128 44.8858 23.403 44.952 23.2875C45.0821 23.0566 45.2214 22.8048 45.3571 22.5462C45.4825 22.291 45.6089 22.0289 45.7216 21.7772C45.7796 21.6502 45.8354 21.5278 45.8853 21.4111C45.9328 21.2933 45.9781 21.1814 46.0187 21.0786C46.18 20.6663 46.2833 20.3777 46.2833 20.3777C46.315 20.2875 46.3284 20.1921 46.3228 20.0967C46.3173 20.0014 46.2928 19.9081 46.2509 19.8223C46.1736 19.6463 46.0333 19.5051 45.8573 19.4261C45.8573 19.4261 45.7923 19.3961 45.667 19.3477C45.5405 19.3004 45.3641 19.2322 45.1552 19.1548C45.0495 19.1179 44.9369 19.0763 44.8162 19.0324C44.6978 18.9909 44.5736 18.9458 44.4379 18.9054C44.1721 18.8235 43.8924 18.7402 43.615 18.6641C43.5453 18.6457 43.4769 18.6283 43.406 18.6086C43.3387 18.5902 43.2657 18.574 43.1971 18.5578C43.059 18.5267 42.9232 18.4966 42.792 18.4678C42.6609 18.4412 42.5355 18.4146 42.4172 18.3904C42.2988 18.3673 42.1885 18.3454 42.0828 18.3292C41.896 18.3004 41.7405 18.2761 41.622 18.2599C41.5443 18.1479 41.4608 18.0382 41.3807 17.9297C41.4004 17.8119 41.4237 17.6571 41.4515 17.47C41.4782 17.2634 41.5119 17.0174 41.5421 16.7507C41.5664 16.4885 41.5873 16.2057 41.6023 15.9159C41.6093 15.7727 41.6174 15.6249 41.622 15.4817C41.6244 15.3385 41.6244 15.1987 41.6244 15.0625C41.6244 14.7877 41.6198 14.5278 41.6117 14.3039C41.6023 14.081 41.5896 13.8963 41.5792 13.7658C41.5687 13.6342 41.564 13.5591 41.564 13.5591C41.5566 13.4633 41.5302 13.3699 41.4863 13.2843C41.4428 13.1995 41.3838 13.1234 41.3122 13.0602C41.1674 12.9322 40.9801 12.8619 40.7864 12.8627C40.7864 12.8627 40.7133 12.8651 40.5798 12.8674C40.5148 12.8697 40.4371 12.8731 40.3465 12.8755C40.2525 12.8789 40.1492 12.8859 40.0367 12.894C39.8126 12.9102 39.5503 12.932 39.2788 12.9575C39.2114 12.9655 39.1429 12.9713 39.0721 12.9794C39.0024 12.9887 38.9293 12.9979 38.8586 13.0083C38.7147 13.0279 38.5696 13.0487 38.4256 13.0706C37.8592 13.1515 37.2963 13.2819 36.8901 13.3812C36.7868 13.4055 36.6962 13.4275 36.6139 13.4505C36.5326 13.4748 36.4629 13.4944 36.4025 13.5128C36.2993 13.4529 36.196 13.394 36.0927 13.335C36.0776 13.2761 36.0602 13.2046 36.0393 13.1226C36.0172 13.0406 35.994 12.9436 35.9639 12.8466C35.907 12.6468 35.8362 12.4137 35.7527 12.1596C35.7096 12.0314 35.6679 11.8986 35.6192 11.7658C35.5715 11.6342 35.5216 11.5014 35.4682 11.3674C35.3626 11.1007 35.2547 10.8271 35.1409 10.5753C35.0284 10.327 34.9169 10.0949 34.8172 9.89281C34.7185 9.69417 34.6326 9.52106 34.57 9.40791C34.5072 9.29357 34.4724 9.2277 34.4724 9.2277C34.374 9.06173 34.2179 8.93729 34.0337 8.87782C33.9444 8.84626 33.8498 8.83217 33.7551 8.83632C33.6582 8.84218 33.5632 8.86648 33.4755 8.90788C33.4755 8.90788 33.1981 9.03842 32.8034 9.23932L32.6501 9.32008C32.5968 9.34786 32.541 9.37896 32.4842 9.41018C32.3727 9.47368 32.2567 9.53954 32.136 9.60883C32.0152 9.67812 31.8946 9.75082 31.7716 9.82472C31.6508 9.89744 31.5278 9.96911 31.4036 10.0522C30.9161 10.3779 30.4599 10.6931 30.1304 10.9645C29.9412 11.1145 29.7938 11.2369 29.6998 11.3131C29.6069 11.3027 29.5117 11.2935 29.4154 11.2855C29.3423 11.193 29.2193 11.043 29.0661 10.8559C28.9952 10.7739 28.9221 10.6873 28.8444 10.5938C28.8037 10.5475 28.7608 10.5002 28.7214 10.4518C28.6783 10.4021 28.6331 10.3571 28.5879 10.3086C28.4092 10.1145 28.2107 9.90905 28.0064 9.70236C27.7998 9.49106 27.5885 9.30042 27.3819 9.11573C27.1788 8.93328 26.9791 8.76124 26.8086 8.61462C26.6345 8.47485 26.4883 8.36051 26.3861 8.27975C26.2793 8.19887 26.2189 8.15385 26.2189 8.15385C26.0648 8.03831 25.8725 7.98472 25.6804 8.00377C25.488 8.02623 25.3103 8.1173 25.1802 8.26012C25.1802 8.26012 25.1325 8.31784 25.0467 8.41716C25.0037 8.46682 24.9538 8.52679 24.8935 8.59726C24.8656 8.63072 24.8331 8.66888 24.803 8.70696C24.7693 8.7474 24.7367 8.79012 24.7019 8.83517C24.5638 9.01301 24.4048 9.21968 24.2411 9.4402C24.161 9.55111 24.0775 9.66307 23.9974 9.78084C23.9138 9.90098 23.8338 10.0222 23.756 10.1446C23.597 10.3871 23.4461 10.6272 23.3103 10.8547C23.1768 11.0891 23.0584 11.3051 22.9598 11.4898C22.8623 11.6746 22.781 11.8247 22.7289 11.9344C22.7114 11.9713 22.6987 12.0025 22.6858 12.0291C22.6174 12.0498 22.5501 12.0718 22.4816 12.0949C22.3818 12.0418 22.1926 11.9413 21.9408 11.8143C21.8931 11.7912 21.8456 11.7658 21.7922 11.7427C21.7423 11.7185 21.6889 11.6931 21.6344 11.6688C21.5253 11.618 21.4069 11.5672 21.2861 11.5129C21.1631 11.4586 21.0355 11.4055 20.9042 11.3501C20.838 11.3224 20.7708 11.2947 20.7046 11.2681C20.6373 11.2415 20.5723 11.2162 20.5038 11.1908C20.2345 11.0926 19.9571 10.9945 19.6937 10.9067C19.6275 10.886 19.5625 10.8628 19.4999 10.8431C19.4337 10.8247 19.3733 10.8063 19.3129 10.7878C19.1899 10.7532 19.0739 10.7208 18.9659 10.6896C18.7524 10.6307 18.569 10.5834 18.4402 10.5487C18.3752 10.5325 18.3241 10.5199 18.2893 10.5118C18.2533 10.5025 18.2359 10.4991 18.2359 10.4991C18.0471 10.4607 17.8507 10.4932 17.6845 10.5903C17.602 10.638 17.5282 10.6993 17.4663 10.7716C17.404 10.844 17.3584 10.9291 17.3329 11.021C17.3329 11.021 17.2447 11.3154 17.1344 11.745C17.1066 11.8523 17.0764 11.9679 17.0462 12.0903C17.016 12.2138 16.9904 12.3466 16.9603 12.4818C16.9046 12.7519 16.8523 13.0383 16.8036 13.3189C16.7583 13.6064 16.7235 13.8917 16.6933 14.1549C16.6806 14.2854 16.6655 14.4112 16.6528 14.5314C16.6434 14.6526 16.6377 14.7681 16.6307 14.8731C16.611 15.1965 16.6029 15.4309 16.6005 15.5232C16.5622 15.5556 16.5274 15.5879 16.4891 15.6214L16.4799 15.6203C16.4473 15.6179 16.3986 15.6157 16.3406 15.6121C16.2198 15.6041 16.0469 15.5961 15.8357 15.5867C15.73 15.5833 15.6139 15.5798 15.4933 15.5752C15.4329 15.5741 15.3667 15.5718 15.3041 15.5706C15.2414 15.5718 15.1764 15.5718 15.1079 15.5718C14.8433 15.5752 14.5566 15.5833 14.2653 15.5971C14.1921 15.6006 14.119 15.6029 14.0459 15.6087C13.9751 15.6145 13.902 15.6191 13.8323 15.6259C13.6884 15.6387 13.548 15.6503 13.411 15.6641C13.2729 15.6802 13.1394 15.6942 13.0117 15.708C12.9479 15.7161 12.8852 15.723 12.8249 15.731C12.7668 15.7392 12.7088 15.7484 12.6542 15.7565C12.2132 15.8234 11.9138 15.88 11.9138 15.88C11.8187 15.8974 11.728 15.9331 11.6467 15.9852C11.5279 16.0654 11.4329 16.1758 11.3714 16.305C11.31 16.4341 11.2845 16.5773 11.2974 16.7196C11.2974 16.7196 11.3079 16.7945 11.323 16.9239C11.3403 17.0544 11.3729 17.2415 11.4112 17.462C11.4484 17.6826 11.4935 17.9366 11.5493 18.2022C11.6097 18.4736 11.6805 18.7576 11.7536 19.0358C11.7884 19.1744 11.8232 19.3118 11.8639 19.447C11.9068 19.5832 11.9462 19.7149 11.9891 19.8419C12.0727 20.0959 12.1505 20.3268 12.2213 20.522C12.2945 20.7195 12.3618 20.8823 12.407 20.9943C12.4395 21.075 12.465 21.1317 12.4755 21.1559L12.4302 21.2575C12.4047 21.2669 12.3467 21.2865 12.2619 21.3153C12.2039 21.3372 12.1331 21.3614 12.053 21.3903C11.9741 21.4227 11.8836 21.4573 11.7884 21.4954C11.5946 21.5739 11.3659 21.6686 11.1187 21.776C11.0583 21.8038 10.9957 21.8315 10.933 21.8603C10.8691 21.8903 10.8065 21.9204 10.7438 21.9504C10.6184 22.0115 10.4896 22.0752 10.3608 22.1409C10.2331 22.2068 10.1019 22.2749 9.97307 22.3418C9.91044 22.3764 9.84541 22.41 9.78505 22.4435C9.72478 22.4804 9.66441 22.5138 9.60404 22.5474C9.36728 22.687 9.14563 22.821 8.95403 22.94C8.85883 23 8.77065 23.0555 8.69292 23.1051C8.61745 23.1559 8.55136 23.1997 8.49907 23.2378C8.39114 23.3117 8.32733 23.3534 8.32733 23.3534C8.17107 23.4666 8.06205 23.6331 8.02093 23.821C8.01045 23.8674 8.00345 23.9145 8 23.962C8.00077 24.0099 8.00503 24.0577 8.01273 24.105C8.0278 24.1995 8.0613 24.2901 8.11137 24.3718C8.11137 24.3718 8.26921 24.6317 8.51191 25.0023C8.63718 25.1882 8.79037 25.4018 8.95403 25.6235C9.03532 25.7332 9.11769 25.8464 9.20588 25.9607C9.2489 26.0173 9.29182 26.0727 9.33471 26.1304C9.38237 26.187 9.42766 26.2435 9.4752 26.3002C9.66204 26.5241 9.84779 26.7412 10.0219 26.9399C10.0648 26.9884 10.1065 27.0369 10.1496 27.0843C10.1949 27.1304 10.2378 27.1778 10.2807 27.2205C10.3642 27.3082 10.4443 27.3913 10.5198 27.4676C10.8147 27.7666 11.013 27.9549 11.013 27.9549V28.0461C11.013 28.0461 10.8147 28.2332 10.5198 28.5334C10.4443 28.6096 10.3642 28.6905 10.2807 28.7782L10.1496 28.9156L10.0219 29.06C9.84779 29.2597 9.66204 29.4756 9.4752 29.7009C9.42766 29.7574 9.38237 29.814 9.33471 29.8705C9.29181 29.926 9.24887 29.9826 9.20588 30.0403C9.11769 30.1535 9.03532 30.2655 8.95403 30.3774C8.79037 30.5991 8.63718 30.8128 8.51191 30.9987C8.26921 31.3682 8.11137 31.6281 8.11137 31.6281C8.0611 31.7101 8.02759 31.8011 8.01273 31.8959C8.00509 31.9429 8.00083 31.9903 8 32.0379C8.00337 32.0854 8.01038 32.1325 8.02093 32.1789C8.06205 32.3668 8.17107 32.5332 8.32733 32.6465C8.32733 32.6465 8.39114 32.6892 8.49907 32.7631C8.55136 32.8012 8.61745 32.845 8.69292 32.8959C8.77065 32.9444 8.85883 32.9998 8.95403 33.0599C9.14563 33.1788 9.36728 33.3139 9.60404 33.4524C9.66441 33.4859 9.72474 33.5206 9.78505 33.5564C9.84541 33.5911 9.91044 33.6245 9.97307 33.658C10.1019 33.7262 10.2331 33.7943 10.3608 33.859C10.4896 33.9247 10.6184 33.9894 10.7438 34.0507C10.8065 34.0807 10.8691 34.1107 10.933 34.1408L11.1187 34.2227C11.3659 34.3312 11.5946 34.426 11.7884 34.5045C11.8836 34.5437 11.9741 34.5772 12.053 34.6095C12.1331 34.6373 12.2039 34.6637 12.2619 34.6834C12.3467 34.7134 12.4047 34.7342 12.4302 34.7423C12.4453 34.7769 12.4604 34.8105 12.4755 34.844C12.465 34.8694 12.4395 34.9247 12.407 35.0056C12.3618 35.1187 12.2945 35.2816 12.2213 35.4779C12.1505 35.6731 12.0727 35.904 11.9891 36.1592C11.9462 36.285 11.9068 36.4177 11.8639 36.5541C11.8232 36.6891 11.7884 36.8254 11.7536 36.9651C11.6805 37.2434 11.6097 37.5275 11.5493 37.7976C11.4935 38.0644 11.4484 38.3185 11.4112 38.539C11.3729 38.7584 11.3403 38.9454 11.323 39.0771C11.3079 39.2064 11.2974 39.2803 11.2974 39.2803C11.2779 39.4711 11.33 39.6623 11.4436 39.8172C11.4974 39.8967 11.5668 39.9644 11.6476 40.0164C11.7284 40.0684 11.8189 40.1036 11.9138 40.1198C11.9138 40.1198 12.2132 40.1764 12.6542 40.2434C12.7088 40.2526 12.7668 40.2618 12.8249 40.2699C12.8852 40.278 12.9479 40.2849 13.0117 40.293C13.1394 40.3057 13.2729 40.3195 13.411 40.3345C13.548 40.3485 13.6884 40.3623 13.8323 40.375C13.902 40.3796 13.9751 40.3866 14.0459 40.3924C14.119 40.398 14.1921 40.4004 14.2653 40.4038C14.5566 40.4166 14.8433 40.4258 15.1079 40.4281C15.1764 40.4293 15.2414 40.4293 15.3041 40.4293L15.4933 40.4258C15.6139 40.4212 15.73 40.4166 15.8357 40.4142C16.0469 40.405 16.2198 40.3958 16.3406 40.3888C16.3986 40.3842 16.4473 40.382 16.4799 40.3784H16.4891C16.5274 40.412 16.5622 40.4454 16.6005 40.4777C16.6029 40.569 16.611 40.8046 16.6307 41.1278C16.6377 41.233 16.6434 41.3485 16.6528 41.4697C16.6655 41.5886 16.6806 41.7145 16.6933 41.8462C16.7235 42.1094 16.7583 42.3946 16.8036 42.681C16.8523 42.9627 16.9046 43.2479 16.9603 43.5193C16.9904 43.6544 17.016 43.7872 17.0462 43.9096C17.0764 44.032 17.1066 44.1486 17.1344 44.2549C17.2447 44.6855 17.3329 44.98 17.3329 44.98C17.3589 45.0717 17.4044 45.1567 17.4663 45.2295C17.5289 45.3007 17.6026 45.3615 17.6845 45.4095C17.8505 45.507 18.0469 45.54 18.2359 45.502C18.2359 45.502 18.2533 45.4973 18.2893 45.4892C18.3241 45.4812 18.3752 45.4674 18.4402 45.4512C18.569 45.4177 18.7524 45.3703 18.9659 45.3102C19.0739 45.2803 19.1899 45.2479 19.3129 45.2132C19.3733 45.1948 19.4337 45.1763 19.4999 45.1578C19.5625 45.1359 19.6275 45.1151 19.6937 45.0931C19.9571 45.0054 20.2345 44.9084 20.5038 44.8079C20.5723 44.7837 20.6373 44.7594 20.7046 44.7329C20.7708 44.7051 20.838 44.6787 20.9042 44.6509C21.0355 44.5954 21.1631 44.5401 21.2861 44.4881C21.4069 44.4338 21.5253 44.3819 21.6344 44.331C21.6889 44.3056 21.7423 44.2825 21.7922 44.2583C21.8456 44.2352 21.8931 44.2086 21.9408 44.1844C22.1926 44.0597 22.3818 43.9593 22.4816 43.9061C22.5501 43.9281 22.6174 43.9501 22.6858 43.9719C22.6987 43.9974 22.7114 44.0286 22.7289 44.0655C22.781 44.1752 22.8623 44.3253 22.9598 44.5101C23.0584 44.6959 23.1768 44.9118 23.3103 45.1463C23.4461 45.3738 23.597 45.6128 23.756 45.8565C23.8338 45.9777 23.9138 46.0989 23.9974 46.219C24.0775 46.338 24.161 46.45 24.2411 46.5597C24.4048 46.7802 24.5638 46.9881 24.7019 47.1659C24.7367 47.2098 24.7693 47.2525 24.803 47.2929C24.8331 47.3321 24.8656 47.368 24.8935 47.4037C24.9538 47.4719 25.0037 47.5318 25.0467 47.5827C25.1325 47.6832 25.1802 47.7387 25.1802 47.7387C25.3092 47.883 25.4874 47.9747 25.6804 47.9961C25.8724 48.0155 26.0646 47.9623 26.2189 47.8471C26.2189 47.8471 26.2793 47.7998 26.3861 47.7201C26.4883 47.6404 26.6345 47.5262 26.8086 47.3852C26.9791 47.2398 27.1788 47.0678 27.3819 46.8841C27.5885 46.7005 27.7998 46.5088 28.0064 46.2987C28.2107 46.092 28.4092 45.8853 28.5879 45.6925C28.6331 45.6428 28.6783 45.5966 28.7214 45.5493C28.7608 45.5008 28.8037 45.4523 28.8444 45.4049C28.9221 45.3125 28.9952 45.226 29.0661 45.1451C29.2193 44.9581 29.3423 44.8079 29.4154 44.7144C29.5117 44.7052 29.6069 44.6971 29.6998 44.6867C29.7938 44.764 29.9412 44.8853 30.1304 45.0354C30.4599 45.3068 30.9161 45.6232 31.4036 45.9477C31.5278 46.032 31.6508 46.1024 31.7716 46.1763C31.8946 46.2502 32.0152 46.3218 32.136 46.3923C32.2567 46.4604 32.3727 46.5273 32.4842 46.5908C32.541 46.6208 32.5968 46.652 32.6501 46.6809C32.7024 46.7086 32.7535 46.7352 32.8034 46.7606C33.1981 46.9626 33.4755 47.0932 33.4755 47.0932C33.5634 47.134 33.6583 47.1582 33.7551 47.1647C33.8498 47.1682 33.9443 47.1541 34.0337 47.1231C34.218 47.0632 34.374 46.9384 34.4724 46.7722C34.4724 46.7722 34.5072 46.7075 34.57 46.5919C34.6326 46.48 34.7185 46.3067 34.8172 46.107C34.9169 45.906 35.0284 45.6717 35.1409 45.4257C35.2547 45.1728 35.3626 44.8992 35.4682 44.6312C35.5216 44.4973 35.5715 44.3657 35.6192 44.2352C35.6679 44.1013 35.7096 43.9685 35.7527 43.8415C35.8362 43.5874 35.907 43.353 35.9639 43.1544C35.994 43.0551 36.0172 42.9604 36.0393 42.8772C36.0602 42.7953 36.0776 42.7236 36.0927 42.6648C36.196 42.6071 36.2993 42.5482 36.4025 42.4881C36.4629 42.5055 36.5326 42.5262 36.6139 42.5482C36.6962 42.5736 36.7868 42.5932 36.8901 42.6198C37.2963 42.718 37.8592 42.8472 38.4256 42.9293C38.5696 42.9511 38.7147 42.9731 38.8586 42.9928C38.9293 43.0032 39.0024 43.0124 39.0721 43.0216C39.1429 43.0286 39.2114 43.0354 39.2788 43.0435C39.5503 43.0689 39.8126 43.0909 40.0367 43.1059C40.1492 43.1128 40.2525 43.121 40.3465 43.1256C40.4371 43.1278 40.5148 43.1301 40.5798 43.1336L40.7864 43.1371C40.98 43.1385 41.1673 43.0685 41.3122 42.9407C41.3844 42.8772 41.4435 42.8003 41.4863 42.7144C41.5303 42.6293 41.5567 42.5363 41.564 42.4408C41.564 42.4408 41.5687 42.3669 41.5792 42.2353C41.5896 42.1036 41.6023 41.9201 41.6117 41.6972C41.6198 41.4719 41.6244 41.211 41.6244 40.9385C41.6244 40.8011 41.6244 40.6602 41.622 40.5194C41.6174 40.375 41.6093 40.2284 41.6023 40.0852C41.5873 39.7954 41.5664 39.5124 41.5421 39.2492C41.5119 38.9812 41.4782 38.7376 41.4515 38.5298C41.4237 38.3416 41.4004 38.188 41.3807 38.0714C41.4608 37.9616 41.5443 37.8507 41.622 37.7411C41.7405 37.7237 41.896 37.7007 42.0828 37.6707C42.1885 37.6556 42.2988 37.6338 42.4172 37.6094C42.5355 37.5852 42.6609 37.5598 42.792 37.5321C42.9232 37.5044 43.059 37.4744 43.1971 37.442C43.2657 37.4259 43.3387 37.4097 43.406 37.3913C43.4769 37.3728 43.5453 37.3542 43.615 37.3358C43.8924 37.2595 44.1721 37.1776 44.4379 37.0956C44.5736 37.054 44.6978 37.0102 44.8162 36.9687C44.9369 36.9247 45.0495 36.8832 45.1552 36.8462C45.3641 36.7688 45.5405 36.7007 45.667 36.6522C45.7923 36.6048 45.8573 36.5748 45.8573 36.5748C46.0329 36.4952 46.1729 36.3543 46.2509 36.1788C46.2928 36.0929 46.3172 35.9996 46.3228 35.9043C46.3284 35.809 46.3149 35.7135 46.2833 35.6234C46.2833 35.6234 46.18 35.3347 46.0187 34.9201C45.9781 34.8173 45.9328 34.7076 45.8853 34.5898C45.8354 34.4733 45.7796 34.3509 45.7216 34.2227C45.6089 33.9709 45.4825 33.71 45.3571 33.4548C45.2214 33.1949 45.0821 32.9433 44.952 32.7134C44.8858 32.598 44.8209 32.4883 44.7606 32.3856C44.6978 32.2816 44.6352 32.1835 44.5772 32.0957C44.4808 31.9467 44.4007 31.822 44.3346 31.7273C44.3682 31.5841 44.3984 31.4399 44.4286 31.2967C44.5238 31.2342 44.6503 31.1535 44.7977 31.0541C44.9718 30.9364 45.1807 30.7978 45.3943 30.6396C45.6067 30.4826 45.833 30.3082 46.0593 30.1257C46.1719 30.0357 46.2903 29.9433 46.396 29.8487C46.505 29.7562 46.6106 29.6627 46.7104 29.5715C46.9148 29.3867 47.1062 29.209 47.2699 29.0542C47.4312 28.8972 47.5589 28.7632 47.6494 28.6697C47.74 28.5749 47.7933 28.5195 47.7933 28.5195C47.9261 28.379 48 28.1933 48 28.0005C48 27.8076 47.9261 27.622 47.7933 27.4814Z" fill="#FFDA61"/>
<path d="M27.1905 13.4425C25.047 13.5614 22.956 14.1473 21.0653 15.1588C19.1746 16.1703 17.5303 17.5826 16.2487 19.2961C14.9671 21.0095 14.0796 22.9821 13.6488 25.0744C13.218 27.1668 13.2545 29.3277 13.7558 31.4044C14.257 33.4811 15.2107 35.423 16.5494 37.0926C17.8882 38.7622 19.5792 40.1188 21.5031 41.0665C23.4269 42.0142 25.5365 42.5298 27.6828 42.5769C29.829 42.624 31.9595 42.2015 33.9235 41.3392C27.5329 37.352 19.9549 26.7633 27.1905 13.4425Z" fill="#FFEA9E"/>
</g>
<defs>
<linearGradient id="paint0_linear_6488_61941" x1="5.5" y1="-20" x2="52" y2="74" gradientUnits="userSpaceOnUse">
<stop stop-color="#CBE6FF"/>
<stop offset="1" stop-color="#399FFF"/>
</linearGradient>
<clipPath id="clip0_6488_61941">
<path d="M0 16C0 7.16344 7.16344 0 16 0H40C48.8366 0 56 7.16344 56 16V40C56 48.8366 48.8366 56 40 56H16C7.16344 56 0 48.8366 0 40V16Z" fill="white"/>
</clipPath>
</defs>
</svg>
