<svg width="56" height="56" viewBox="0 0 56 56" fill="none" xmlns="http://www.w3.org/2000/svg">
<g clip-path="url(#clip0_6488_61940)">
<rect width="56" height="56" rx="16" fill="url(#paint0_linear_6488_61940)"/>
<g style="mix-blend-mode:multiply">
<path d="M69.6656 43.1893L38.6353 12.0151L18.1758 43.8008L45.7772 71.5301L69.6656 43.1893Z" fill="#515151" fill-opacity="0.16"/>
</g>
<path d="M39.9988 31.1196C40.0252 32.1966 39.625 33.2401 38.8861 34.0207C38.1471 34.8014 37.1298 35.2554 36.0579 35.283H20.9444C19.8722 35.2555 18.8546 34.8016 18.1153 34.021C17.3759 33.2404 16.9752 32.1968 17.0012 31.1196V15.1634C16.9754 14.0862 17.3762 13.0428 18.1155 12.2622C18.8548 11.4816 19.8722 11.0277 20.9444 11H36.0579C37.1298 11.0278 38.1469 11.4818 38.8858 12.2625C39.6247 13.0431 40.025 14.0865 39.9988 15.1634V31.1196Z" fill="#FAFAF9"/>
<path d="M39.9987 40.8377C40.025 41.9145 39.6246 42.9577 38.8857 43.7382C38.1467 44.5186 37.1296 44.9725 36.0578 44.9999H20.9444C19.8723 44.9726 18.8549 44.5188 18.1156 43.7384C17.3763 42.958 16.9754 41.9148 17.0012 40.8377V24.8792C16.9755 23.8023 17.3764 22.7592 18.1157 21.979C18.8551 21.1988 19.8724 20.7453 20.9444 20.7181H36.0578C37.1295 20.7454 38.1466 21.199 38.8856 21.9792C39.6246 22.7595 40.0249 23.8025 39.9987 24.8792V40.8377Z" fill="#E0E0DC"/>
<path d="M22.5197 23.852C21.9683 23.8247 21.4214 23.9641 20.9496 24.2521C20.4778 24.5401 20.1027 24.9635 19.8728 25.4678C19.6428 25.9721 19.5686 26.5339 19.6596 27.081C19.7507 27.628 20.0028 28.1352 20.3835 28.5368C20.7642 28.9385 21.256 29.2163 21.7954 29.3345C22.3348 29.4526 22.8971 29.4057 23.4097 29.1997C23.9223 28.9937 24.3616 28.638 24.6711 28.1787C24.9806 27.7194 25.1459 27.1775 25.1458 26.6228C25.1622 25.9058 24.895 25.2116 24.4028 24.6922C23.9105 24.1728 23.2333 23.8706 22.5197 23.852Z" fill="#2A414F"/>
<path d="M34.4814 36.3208C33.9297 36.2933 33.3825 36.4325 32.9104 36.7204C32.4382 37.0084 32.0628 37.4318 31.8326 37.9362C31.6023 38.4406 31.5278 39.0028 31.6187 39.5501C31.7096 40.0974 31.9616 40.6048 32.3423 41.0069C32.723 41.4089 33.2149 41.6871 33.7545 41.8055C34.2941 41.9239 34.8567 41.8772 35.3696 41.6713C35.8825 41.4654 36.3222 41.1098 36.632 40.6504C36.9418 40.191 37.1074 39.6489 37.1075 39.0941C37.1241 38.3768 36.857 37.6822 36.3647 37.1624C35.8725 36.6426 35.1952 36.34 34.4814 36.3208Z" fill="#2A414F"/>
<path d="M28.5755 30.0864C28.0237 30.0589 27.4764 30.1981 27.0042 30.4862C26.532 30.7742 26.1565 31.1978 25.9264 31.7023C25.6962 32.2069 25.6218 32.7691 25.7128 33.3166C25.8039 33.864 26.0562 34.3714 26.4371 34.7733C26.818 35.1753 27.3102 35.4533 27.8499 35.5715C28.3897 35.6896 28.9524 35.6425 29.4652 35.4363C29.9781 35.23 30.4177 34.874 30.7272 34.4143C31.0367 33.9546 31.2019 33.4122 31.2015 32.8572C31.2178 32.1403 30.9505 31.4461 30.4583 30.9268C29.9661 30.4074 29.289 30.1053 28.5755 30.0864Z" fill="#2A414F"/>
<path d="M25.708 15.8931C25.708 16.6276 26.9955 17.2236 28.5825 17.2236C30.1697 17.2236 31.4583 16.6276 31.4583 15.8931C31.4583 15.1586 30.1697 14.5638 28.5825 14.5638C26.9955 14.5638 25.708 15.1586 25.708 15.8931Z" fill="#2A414F"/>
</g>
<defs>
<linearGradient id="paint0_linear_6488_61940" x1="5.5" y1="-20" x2="52" y2="74" gradientUnits="userSpaceOnUse">
<stop stop-color="#DBA4EF"/>
<stop offset="1" stop-color="#AB24DC"/>
</linearGradient>
<clipPath id="clip0_6488_61940">
<path d="M0 16C0 7.16344 7.16344 0 16 0H40C48.8366 0 56 7.16344 56 16V40C56 48.8366 48.8366 56 40 56H16C7.16344 56 0 48.8366 0 40V16Z" fill="white"/>
</clipPath>
</defs>
</svg>
