<svg width="56" height="56" viewBox="0 0 56 56" fill="none" xmlns="http://www.w3.org/2000/svg">
<g clip-path="url(#clip0_6488_61939)">
<rect width="56" height="56" rx="16" fill="url(#paint0_linear_6488_61939)"/>
<g style="mix-blend-mode:multiply">
<path d="M67.4193 47.8887L27.9982 9L15.9454 22.4514L12.5316 27.2797L17.5877 32.5067L15.0378 45.9996L41.3221 71.9289C50.0211 73.0161 67.4193 69.73 67.4193 47.8887Z" fill="#515151" fill-opacity="0.16"/>
</g>
<path d="M40.9596 26.2669L27.9989 13.4233L15.0381 26.2669V46H40.9596V26.2669Z" fill="#EFC94C"/>
<path d="M27.6476 26.1489H24.3594V29.3953H27.6476V26.1489Z" fill="white"/>
<path d="M31.6396 26.1489H28.3501V29.3953H31.6396V26.1489Z" fill="white"/>
<path d="M27.6476 30.0439H24.3594V33.2902H27.6476V30.0439Z" fill="white"/>
<path d="M31.6396 30.0439H28.3501V33.2902H31.6396V30.0439Z" fill="white"/>
<path d="M31.6396 35.7775H24.3594V45.9996H31.6396V35.7775Z" fill="#E0953D"/>
<path d="M34.653 13.4237H36.8114C36.8762 13.4237 36.9404 13.4363 37.0002 13.4607C37.0601 13.4852 37.1145 13.5211 37.1603 13.5663C37.2061 13.6115 37.2425 13.6651 37.2673 13.7242C37.2921 13.7832 37.3048 13.8465 37.3048 13.9104V17.5027C37.3048 17.5664 37.2921 17.6296 37.2674 17.6885C37.2426 17.7474 37.2064 17.801 37.1606 17.8461C37.1149 17.8912 37.0607 17.9269 37.0009 17.9513C36.9412 17.9758 36.8772 17.9883 36.8125 17.9883H34.6518C34.5872 17.9883 34.5232 17.9758 34.4634 17.9513C34.4037 17.9269 34.3494 17.8912 34.3037 17.8461C34.258 17.801 34.2218 17.7474 34.197 17.6885C34.1723 17.6296 34.1595 17.5664 34.1595 17.5027V13.9104C34.1595 13.8465 34.1723 13.7832 34.1971 13.7242C34.2219 13.6651 34.2582 13.6115 34.3041 13.5663C34.3499 13.5211 34.4043 13.4852 34.4641 13.4607C34.524 13.4363 34.5882 13.4237 34.653 13.4237Z" fill="#381616"/>
<path d="M27.9983 9.00006L11 25.7688L12.5316 27.2797L29.5298 10.5109L27.9983 9.00006Z" fill="url(#paint1_linear_6488_61939)"/>
<path d="M27.995 9.00365L26.465 10.5143L43.47 27.2758L45 25.7651L27.995 9.00365Z" fill="url(#paint2_linear_6488_61939)"/>
</g>
<defs>
<linearGradient id="paint0_linear_6488_61939" x1="2.05636e-06" y1="-14" x2="65.5" y2="78" gradientUnits="userSpaceOnUse">
<stop offset="0.106444" stop-color="#84F0FF"/>
<stop offset="1" stop-color="#2BE033"/>
</linearGradient>
<linearGradient id="paint1_linear_6488_61939" x1="394.907" y1="791.451" x2="744.809" y2="791.453" gradientUnits="userSpaceOnUse">
<stop stop-color="#E54A47"/>
<stop offset="0.73699" stop-color="#EA5350"/>
</linearGradient>
<linearGradient id="paint2_linear_6488_61939" x1="95.7755" y1="8600.65" x2="127.28" y2="8600.65" gradientUnits="userSpaceOnUse">
<stop stop-color="#E54A47"/>
<stop offset="0.73699" stop-color="#EA5350"/>
</linearGradient>
<clipPath id="clip0_6488_61939">
<path d="M0 16C0 7.16344 7.16344 0 16 0H40C48.8366 0 56 7.16344 56 16V40C56 48.8366 48.8366 56 40 56H16C7.16344 56 0 48.8366 0 40V16Z" fill="white"/>
</clipPath>
</defs>
</svg>
