<svg width="56" height="56" viewBox="0 0 56 56" fill="none" xmlns="http://www.w3.org/2000/svg">
<g clip-path="url(#clip0_6488_61938)">
<rect width="56" height="56" rx="16" fill="url(#paint0_linear_6488_61938)"/>
<g style="mix-blend-mode:multiply">
<path d="M78.2062 46.5487L41.5937 9.93555L24.6433 28.0591L16.9129 38.8683L12.0823 46.5487L47.8827 82.3497C61.1346 80.5901 85.7519 70.9664 78.2062 46.5487Z" fill="#515151" fill-opacity="0.16"/>
</g>
<path d="M9.45057 41.0159L17.2571 33.2092C17.6418 32.8245 18.1636 32.6083 18.7077 32.6083C19.2517 32.6083 19.7735 32.8245 20.1582 33.2092L22.7896 35.8406C23.1746 36.2256 23.3909 36.7478 23.3909 37.2922C23.3909 37.8367 23.1746 38.3588 22.7896 38.7438L14.9853 46.5482C14.6003 46.9333 14.0781 47.1496 13.5335 47.1496C12.989 47.1496 12.4668 46.9333 12.0817 46.5482L9.45056 43.917C9.06585 43.5323 8.84971 43.0105 8.84971 42.4664C8.84971 41.9223 9.06585 41.4006 9.45056 41.0158L9.45057 41.0159Z" fill="#703E3E"/>
<path d="M24.6425 28.0583L19.8246 32.8781L23.123 36.1753L27.9409 31.3556L24.6425 28.0583Z" fill="#B57676"/>
<path d="M41.3068 27.9579C42.619 26.646 43.5126 24.9744 43.8748 23.1546C44.237 21.3348 44.0513 19.4484 43.3414 17.7341C42.6314 16.0197 41.429 14.5545 39.8863 13.5235C38.3435 12.4926 36.5297 11.9424 34.6742 11.9424C32.8187 11.9424 31.0049 12.4926 29.4622 13.5235C27.9194 14.5545 26.717 16.0197 26.0071 17.7341C25.2971 19.4484 25.1115 21.3348 25.4736 23.1546C25.8358 24.9744 26.7295 26.646 28.0417 27.9579C28.9103 28.8332 29.9435 29.5279 31.0819 30.0019C32.2202 30.476 33.4411 30.7201 34.6742 30.7201C35.9073 30.7201 37.1282 30.476 38.2666 30.0019C39.4049 29.5279 40.4382 28.8332 41.3068 27.9579Z" fill="#85CBCB"/>
<path d="M44.0974 11.9034C42.2338 10.0397 39.8594 8.77039 37.2744 8.25613C34.6894 7.74187 32.01 8.00572 29.575 9.0143C27.14 10.0229 25.0588 11.7309 23.5945 13.9224C22.1302 16.1138 21.3486 18.6903 21.3486 21.3259C21.3486 23.9616 22.1302 26.5381 23.5945 28.7295C25.0588 30.921 27.14 32.629 29.575 33.6376C32.01 34.6461 34.6894 34.91 37.2744 34.3957C39.8594 33.8815 42.2338 32.6122 44.0974 30.7485C46.5962 28.2494 48 24.86 48 21.3259C48 17.7919 46.5962 14.4025 44.0974 11.9034ZM28.0417 27.958C26.7301 26.6462 25.8369 24.9749 25.475 23.1555C25.1132 21.3361 25.299 19.4502 26.0089 17.7363C26.7188 16.0225 27.921 14.5576 29.4634 13.527C31.0059 12.4964 32.8192 11.9464 34.6743 11.9464C36.5293 11.9464 38.3427 12.4964 39.8851 13.527C41.4275 14.5576 42.6297 16.0225 43.3396 17.7363C44.0496 19.4502 44.2354 21.3361 43.8735 23.1555C43.5117 24.9749 42.6185 26.6462 41.3068 27.958C40.4359 28.8292 39.4019 29.5202 38.2639 29.9917C37.1259 30.4632 35.9061 30.7059 34.6743 30.7059C33.4424 30.7059 32.2227 30.4632 31.0847 29.9917C29.9466 29.5202 28.9126 28.8292 28.0417 27.958Z" fill="white"/>
<path d="M9.73713 41.6606L15.3986 35.999C15.5751 35.8225 15.8144 35.7234 16.064 35.7234C16.3136 35.7234 16.5529 35.8225 16.7294 35.999L17.5914 36.861C17.7677 37.0373 17.8667 37.2765 17.8667 37.5258C17.8667 37.7751 17.7677 38.0142 17.5914 38.1906L11.9294 43.8526C11.7529 44.0291 11.5136 44.1283 11.2639 44.1283C11.0143 44.1283 10.7749 44.0291 10.5984 43.8526L9.73716 42.9913C9.56069 42.8149 9.46156 42.5755 9.46155 42.3259C9.46155 42.0764 9.56067 41.837 9.73713 41.6606Z" fill="#9E6B6B"/>
<path d="M28.0852 15.5243C29.3418 14.2676 30.9295 13.3938 32.6634 13.0046C34.3974 12.6153 36.2062 12.7267 37.8793 13.3257C39.5524 13.9247 41.0209 14.9867 42.1138 16.388C43.2067 17.7893 43.879 19.4723 44.0525 21.2409C44.0408 19.9743 43.7728 18.7232 43.2645 17.5629C42.7562 16.4027 42.0181 15.3575 41.0949 14.4903C40.1716 13.6231 39.0823 12.9519 37.8926 12.5171C36.7029 12.0823 35.4375 11.893 34.1726 11.9606C32.9078 12.0282 31.6697 12.3513 30.5331 12.9104C29.3965 13.4695 28.385 14.2531 27.5594 15.2137C26.7339 16.1744 26.1114 17.2924 25.7297 18.5002C25.348 19.7079 25.2148 20.9805 25.3382 22.2412C25.3256 20.9951 25.5621 19.7589 26.0338 18.6055C26.5055 17.452 27.203 16.4044 28.0852 15.5243Z" fill="#BBF2F2"/>
</g>
<defs>
<linearGradient id="paint0_linear_6488_61938" x1="1.78814e-06" y1="-14" x2="51" y2="66" gradientUnits="userSpaceOnUse">
<stop stop-color="#FF4B4B"/>
<stop offset="1" stop-color="#FFAA45"/>
</linearGradient>
<clipPath id="clip0_6488_61938">
<path d="M0 16C0 7.16344 7.16344 0 16 0H40C48.8366 0 56 7.16344 56 16V40C56 48.8366 48.8366 56 40 56H16C7.16344 56 0 48.8366 0 40V16Z" fill="white"/>
</clipPath>
</defs>
</svg>
