<?xml version="1.0" encoding="utf-8"?>
<!-- Generator: Adobe Illustrator 16.0.0, SVG Export Plug-In . SVG Version: 6.00 Build 0)  -->
<!DOCTYPE svg PUBLIC "-//W3C//DTD SVG 1.1//EN" "http://www.w3.org/Graphics/SVG/1.1/DTD/svg11.dtd">
<svg version="1.1" id="bg" xmlns="http://www.w3.org/2000/svg" xmlns:xlink="http://www.w3.org/1999/xlink" x="0px" y="0px"
	 width="4500px" height="4500px" viewBox="0 0 4500 4500" enable-background="new 0 0 4500 4500" xml:space="preserve">
<rect fill="#D5DD23" width="4500" height="4500"/>
<g>
	<path fill="#BCBCBC" d="M1566.501,3455.042c0,116.983,88.51,211.847,197.754,211.847h798.926
		c109.164,0,197.738-94.863,197.738-211.847V2085.848H1566.501V3455.042z"/>
	<path fill="#F2F6F6" d="M2898.047,2088.284c-228.535,0-413.836,282.864-413.836,631.774c0,348.912,185.301,631.775,413.836,631.775
		c228.568,0,413.838-282.863,413.838-631.775C3311.885,2371.148,3126.615,2088.284,2898.047,2088.284z M2898.047,3095.297
		c-135.727,0-245.797-168.025-245.797-375.238c0-207.236,110.07-375.263,245.797-375.263c135.76,0,245.799,168.026,245.799,375.263
		C3143.846,2927.271,3033.807,3095.297,2898.047,3095.297z"/>
	<path fill="#F2F6F6" d="M1462.958,3351.834c0,130.2,104.722,236.1,234.461,237.82l3.408,0.063h960.786
		c116.967,0,214.268-84.497,234.156-195.747c2.389-13.68,3.744-27.693,3.744-42.137V1815.143H1462.958V3351.834z"/>
	<path opacity="0.5" fill="#DFE3E3" d="M1462.958,3351.834c0,315.055,371.031,238.516,614.207,237.82V1771.987l-614.207,43.156
		V3351.834z"/>
	<path fill="#E6E6E5" d="M2179.795,1667.377c-396.701,0-718.27,73.509-718.27,164.264c0,90.708,321.568,164.264,718.27,164.264
		c396.652,0,718.251-73.556,718.251-164.264C2898.047,1740.886,2576.447,1667.377,2179.795,1667.377z"/>
	<path fill="#CFCFCF" d="M2179.763,1688.366c-395.697,0-686.006,68.54-686.006,143.227c0,14.333,10.67,28.394,30.734,41.803
		c84.338,56.628,334.994,101.584,655.271,101.584c188.135,0,552.11-27.422,657.053-100.454c18.506-12.755,29-27.136,29-42.933
		C2865.816,1756.906,2575.508,1688.366,2179.763,1688.366z"/>
	<path fill="#BC700C" d="M1524.492,1873.396c84.338,56.628,334.994,101.584,655.271,101.584
		c188.135,0,552.11-27.422,657.053-100.454c-82.793-57.17-335.023-102.54-657.053-102.54
		C1859.931,1771.987,1608.941,1816.768,1524.492,1873.396z"/>
	<path fill="#D8903A" d="M2835.174,1873.412c-122.246-34.64-318.285-58.269-550.681-58.269
		c-319.832,0-570.822,44.781-655.271,101.409c0.051,0.035,0.105,0.069,0.156,0.103c122.134,34.641,317.92,58.325,550.385,58.325
		c188.135,0,552.11-27.422,657.053-100.454C2836.277,1874.154,2835.727,1873.783,2835.174,1873.412z"/>
	<path fill="#39B34A" d="M2307.41,2173.87v449.55h432.002v-449.55l-216.008-102.766L2307.41,2173.87z M2570.088,2153.029
		c0,25-20.268,45.278-45.311,45.278c-25.012,0-45.268-20.278-45.268-45.278s20.256-45.324,45.268-45.324
		C2549.82,2107.705,2570.088,2128.029,2570.088,2153.029z"/>
	<path d="M2468.268,1876.579h-27.123c-42.738,0-71.179,13.703-71.179,56.43v45.245h25.427v-45.245
		c0-22.415,23.348-31.003,45.752-31.003h27.09c22.391,0,54.215,8.588,54.215,31.003v248.506h25.406v-248.506
		C2547.855,1890.281,2510.961,1876.579,2468.268,1876.579z"/>
	<path fill="#F2F6F6" d="M1969.939,861.824c9.523-15.893-1.895-28.712-28.617-28.712c-26.642,0-58.49,12.82-68.014,28.712
		c-139.055,230.845,178.516,461.675,39.397,692.583c-9.507,15.829,1.896,28.665,28.616,28.665c26.69,0,58.524-12.835,67.983-28.665
		C2148.392,1323.499,1830.916,1092.669,1969.939,861.824z"/>
	<path fill="#F2F6F6" d="M2209.925,861.824c9.491-15.893-1.911-28.712-28.617-28.712c-26.689,0-58.523,12.82-68.078,28.712
		c-139.023,230.845,178.549,461.675,39.43,692.583c-9.49,15.829,1.928,28.665,28.648,28.665c26.658,0,58.46-12.835,67.982-28.665
		C2388.377,1323.499,2070.806,1092.669,2209.925,861.824z"/>
	<path fill="#F2F6F6" d="M2449.861,861.824c9.523-15.893-1.863-28.712-28.584-28.712c-26.689,0-58.537,12.82-68.061,28.712
		c-139.024,230.845,178.482,461.675,39.395,692.583c-9.52,15.829,1.943,28.665,28.666,28.665c26.625,0,58.475-12.835,67.998-28.665
		C2628.346,1323.499,2310.793,1092.669,2449.861,861.824z"/>
</g>
</svg>
