<svg id="Слой_1" data-name="Слой 1" xmlns="http://www.w3.org/2000/svg" xmlns:xlink="http://www.w3.org/1999/xlink" viewBox="0 0 300 300"><defs><style>.cls-3,.cls-6,.cls-9{fill:none}.cls-3{stroke:#99ceff}.cls-3,.cls-6,.cls-9{stroke-width:1.76px}.cls-3{stroke-opacity:.22}.cls-6,.cls-9{stroke:#000}.cls-6{opacity:.03}.cls-9{opacity:.05}.cls-16{opacity:.21;isolation:isolate}.cls-24{fill-opacity:.94}</style><radialGradient id="Безымянный_градиент_7" cx="141" cy="148" r="142" gradientTransform="matrix(1.91 -.01 -.02 -3.19 -130 655)" gradientUnits="userSpaceOnUse"><stop offset="0" stop-color="#69c"/><stop offset="1" stop-color="#036"/></radialGradient><linearGradient id="Безымянный_градиент_2" x1="150" y1="117" x2="150" y2="230" gradientTransform="matrix(1 0 0 -1 0 302)" gradientUnits="userSpaceOnUse"><stop offset="0" stop-opacity="0"/><stop offset="1" stop-opacity="0"/></linearGradient><linearGradient id="Безымянный_градиент_3" x1="150" y1="228" x2="150" y2="267" gradientTransform="matrix(1 0 0 -1 0 302)" gradientUnits="userSpaceOnUse"><stop offset="0"/><stop offset="1" stop-color="#666" stop-opacity="0"/></linearGradient><linearGradient id="Безымянный_градиент_4" x1="113" y1="243" x2="128" y2="251" gradientTransform="matrix(1 0 0 -1 0 302)" gradientUnits="userSpaceOnUse"><stop offset="0" stop-color="gray"/><stop offset="1" stop-color="#fff"/></linearGradient><linearGradient id="Безымянный_градиент_5" x1="181" y1="245" x2="171" y2="252" gradientTransform="matrix(1 0 0 -1 0 302)" gradientUnits="userSpaceOnUse"><stop offset="0" stop-color="#ccc"/><stop offset="1" stop-color="#fff"/></linearGradient><linearGradient id="Безымянный_градиент_6" x1="151" y1="257" x2="150" y2="273" gradientTransform="matrix(1 0 0 -1 0 302)" gradientUnits="userSpaceOnUse"><stop offset="0" stop-color="#666"/><stop offset="1" stop-color="#fff"/></linearGradient><radialGradient id="Безымянный_градиент_13" cx="5374" cy="-3398" r="333" gradientTransform="matrix(.01 0 0 -.01 79 27)" gradientUnits="userSpaceOnUse"><stop offset="0" stop-color="#fff"/><stop offset="1" stop-color="#333"/></radialGradient><radialGradient id="Безымянный_градиент_14" cx="-5313" cy="-3888" r="333" gradientTransform="matrix(-.01 0 0 -.01 88 27)" gradientUnits="userSpaceOnUse"><stop offset="0" stop-color="#fff"/><stop offset="1"/></radialGradient><radialGradient id="Безымянный_градиент_15" cx="6425" cy="-4311" r="333" gradientTransform="matrix(.01 0 0 -.01 79 27)" gradientUnits="userSpaceOnUse"><stop offset="0" stop-color="#fff"/><stop offset="1" stop-color="#888"/></radialGradient><radialGradient id="Безымянный_градиент_13-2" cx="5370" cy="-3790" r="333" gradientTransform="matrix(.01 0 0 -.01 79 33)" xlink:href="#Безымянный_градиент_13"/><radialGradient id="Безымянный_градиент_14-2" cx="-5308" cy="-4316" r="333" gradientTransform="matrix(-.01 0 0 -.01 88 33)" xlink:href="#Безымянный_градиент_14"/><radialGradient id="Безымянный_градиент_15-2" cx="6419" cy="-4784" r="333" gradientTransform="matrix(.01 0 0 -.01 79 33)" xlink:href="#Безымянный_градиент_15"/><radialGradient id="Безымянный_градиент_13-3" cx="5369" cy="-4176" r="333" gradientTransform="matrix(.01 0 0 -.01 79 39)" xlink:href="#Безымянный_градиент_13"/><radialGradient id="Безымянный_градиент_14-3" cx="-5307" cy="-4737" r="333" gradientTransform="matrix(-.01 0 0 -.01 88 39)" xlink:href="#Безымянный_градиент_14"/><radialGradient id="Безымянный_градиент_15-3" cx="6418" cy="-5249" r="333" gradientTransform="matrix(.01 0 0 -.01 79 39)" xlink:href="#Безымянный_градиент_15"/></defs><path d="M125 26a189 189 0 0 0 51 0l9 13c40 15 63 13 106 37-6 18-7 38-23 52-14-10-27-8-41-11 0 0 2 23 0 34-2 14 3 31 0 45-2 12 2 27 0 38-2 12 0 38 0 38-51 9-102 11-152 0 0 0-2-21 0-31 3-14-2-31 0-47 2-15 4-31 0-45-3-11 0-32 0-32-12 1-22 0-41 10-15-12-20-32-24-53 46-20 69-23 106-34z" fill="url(#Безымянный_градиент_7)"/><path d="M79 63s14-3 20-7c6-3 19-6 19-6" stroke-width="2" stroke-opacity="0" stroke="#99ceff" fill="none"/><path class="cls-3" d="M223 63s-15-3-21-8c-6-4-20-6-20-6M283 72c-3 5-7 13-6 20 0 9-2 14-8 19-7 5-8 9-8 12M17 72l1 8a26 26 0 0 0 5 13 37 37 0 0 1 5 12c1 4 2 7 6 10 3 2 4 6 6 9M75 265c9 4 20 1 28 4 8 2 17 4 25 3h19c9-1 19 1 29-1l21-2a104 104 0 0 0 30-4M226 51c-4 20-11 45 1 65M76 51c4 19 10 45-1 65"/><path d="M129 41c13-4 27-3 41 0" stroke="#5ca2e3" stroke-opacity="0" stroke-width="2" fill="none"/><path d="M147 60h6v41h-6z" fill="url(#Безымянный_градиент_2)" stroke-linecap="round" stroke-opacity="0" stroke-width="2" stroke="#99ceff"/><path class="cls-6" d="M222 64s-15-3-21-8-20-6-20-6M79 64s14-3 21-7c5-3 18-6 18-6"/><path class="cls-9" d="M18 72l1 8a26 26 0 0 0 4 13 37 37 0 0 1 6 12c1 4 2 7 6 10 3 2 3 6 5 9M284 73c-3 5-7 13-6 20 0 9-2 15-8 19-7 5-8 9-8 12"/><path d="M168 90l1 10a35 35 0 0 1 18 1c8 3 12 0 18-2 4 0 9-1 13 1 0-4 1-7-1-10a21 21 0 0 0-11 0c-10 3-13 4-22 0-5-1-9-2-16 0z" stroke="#5488ba" stroke-width="2" fill="none"/><path d="M168 90l1 9a35 35 0 0 1 18 1c8 3 12 0 18-1h12c1-4 2-7 0-10a21 21 0 0 0-11 1c-10 2-13 3-23 0-4-2-8-2-15 0z" stroke-opacity="0" stroke="#000" stroke-width="2" fill="none"/><path d="M169 100c2 8 1 16 0 23a26 26 0 0 1 7 10h15a38 38 0 0 1 10 0h11a21 21 0 0 1 7-7s-2-17-1-26" stroke="#578abd" stroke-width="2" fill="none"/><path d="M147 61l-13 16c-13-11-15-25-19-36M153 60l13 15c14-10 16-23 19-36"/><path d="M145 58a50 50 0 0 1-11-11l-3-5a43 43 0 0 1 7-2 74 74 0 0 1 27 1l4 1-1 2a50 50 0 0 1-13 15h-9l-1-1z" fill="url(#Безымянный_градиент_3)"/><path d="M124 28c5 14 11 25 22 32l-12 14c-14-10-14-22-18-34" fill="url(#Безымянный_градиент_4)"/><path d="M176 27c-5 14-11 25-22 33l12 13c14-10 15-23 18-34" fill="url(#Безымянный_градиент_5)"/><path d="M168 39a79 79 0 0 0-30-1l-7 1-1 1-5-12a1 1 0 0 1 1-1h3a180 180 0 0 0 24 2 175 175 0 0 0 20-2h2a61 61 0 0 1-2 6l-3 7a23 23 0 0 1-2-1z" fill="url(#Безымянный_градиент_6)"/><path d="M152 67a2 2 0 1 1-2-2 2 2 0 0 1 2 2z" fill="url(#Безымянный_градиент_13)"/><path d="M148 68a2 2 0 1 0 2-2 2 2 0 0 0-2 2z" fill="url(#Безымянный_градиент_14)"/><circle cx="150" cy="67" r="2" fill="url(#Безымянный_градиент_15)"/><path class="cls-24" d="M150 67z"/><path d="M150 67z"/><path class="cls-24" d="M151 67z"/><path d="M151 67z"/><path class="cls-24" d="M151 68z"/><path d="M151 68z"/><path class="cls-24" d="M150 68z"/><path d="M150 68z"/><path d="M152 78a2 2 0 1 1-2-2 2 2 0 0 1 2 2z" fill="url(#Безымянный_градиент_13-2)"/><path d="M148 78a2 2 0 1 0 2-2 2 2 0 0 0-2 2z" fill="url(#Безымянный_градиент_14-2)"/><circle cx="150" cy="78" r="2" fill="url(#Безымянный_градиент_15-2)"/><path class="cls-24" d="M150 78v-1 1z"/><path d="M150 78v-1 1z"/><path class="cls-24" d="M151 78l-1-1 1 1z"/><path d="M151 78l-1-1 1 1z"/><path class="cls-24" d="M151 79l-1-1 1 1z"/><path d="M151 79l-1-1 1 1z"/><path class="cls-24" d="M150 79v-1 1z"/><path d="M150 79v-1 1z"/><path d="M152 88a2 2 0 1 1-2-2 2 2 0 0 1 2 2z" fill="url(#Безымянный_градиент_13-3)"/><path d="M148 88a2 2 0 1 0 2-2 2 2 0 0 0-2 2z" fill="url(#Безымянный_градиент_14-3)"/><circle cx="150" cy="88" r="2" fill="url(#Безымянный_градиент_15-3)"/><path class="cls-24" d="M150 88z"/><path d="M150 88z"/><path class="cls-24" d="M151 88h-1 1z"/><path d="M151 88h-1 1z"/><path class="cls-24" d="M151 89h-1 1z"/><path d="M151 89h-1 1z"/><path class="cls-24" d="M150 89z"/><path d="M150 89z"/></svg>