<svg id="Слой_2" data-name="Слой 2" xmlns="http://www.w3.org/2000/svg" viewBox="0 0 1000 753.08"><defs><style>.cls-1{fill:#873a19;}.cls-1,.cls-10,.cls-11,.cls-12,.cls-13,.cls-15,.cls-16,.cls-17,.cls-18,.cls-19,.cls-2,.cls-20,.cls-21,.cls-23,.cls-24,.cls-3,.cls-4,.cls-5,.cls-6,.cls-7,.cls-8,.cls-9{fill-rule:evenodd;}.cls-2{fill:#db622d;}.cls-3{fill:#562716;}.cls-14,.cls-4{fill:#c35221;}.cls-5{fill:#a4461d;}.cls-22,.cls-6{fill:#452016;}.cls-7{fill:#6e2e14;}.cls-8{fill:#5b5b5b;}.cls-9{fill:#b2b3b3;}.cls-10{fill:#fefefe;}.cls-11{fill:#434242;}.cls-12{fill:#727271;}.cls-13{fill:#3b1e17;}.cls-15{fill:#643026;}.cls-16{fill:#964738;}.cls-17{fill:#ca550e;}.cls-18{fill:#e1774a;}.cls-19{fill:#f0c39e;}.cls-20{fill:#f1d19e;}.cls-21{fill:#ebecec;}.cls-23{fill:#b05441;}.cls-24{fill:#e2b262;}</style></defs><title>Монтажная область 3</title><polygon class="cls-1" points="164.48 479.79 340.33 534.23 341.36 559.81 165.37 501.75 164.48 479.79"/><polygon class="cls-2" points="340.13 520.47 474.78 468.67 473.62 456.72 511.62 465.74 340.76 534.22 340.33 534.23 164.48 479.79 201.62 467.73 201.44 479.73 339.84 520.48 340.13 520.47"/><polygon class="cls-3" points="511.62 465.74 340.76 534.22 341.79 559.79 512.49 487.34 511.62 465.74"/><polygon class="cls-4" points="205.89 227.91 329.88 261.18 340.37 520.53 201.98 479.78 205.89 227.91"/><polygon class="cls-3" points="451.06 217.98 330.17 261.16 340.66 520.52 475.31 468.72 451.06 217.98"/><polygon class="cls-5" points="205.34 227.86 329.35 261.13 330.77 296.29 204.88 258.16 205.34 227.86"/><polygon class="cls-6" points="450.53 217.93 329.63 261.12 331.06 296.38 331.18 296.42 453.65 250.27 450.53 217.93"/><polygon class="cls-1" points="189.77 228.98 329.54 266.49 330.26 284.41 190.39 244.39 189.77 228.98"/><polygon class="cls-2" points="326.57 189.28 466.14 217.79 329.88 266.48 329.54 266.49 189.77 228.98 326.57 189.28"/><polygon class="cls-7" points="466.14 217.79 329.88 266.48 330.6 284.4 466.76 232.94 466.14 217.79"/><path class="cls-6" d="M408.61,221.72c1.38,33.05-159.8,42.08-161.19,6.53C243.82,135.2,404.82,131.66,408.61,221.72Z"/><path class="cls-8" d="M408.53,219.7c1.39,33.07-159.8,42.08-161.18,6.53C243.74,133.2,404.74,129.65,408.53,219.7Z"/><path class="cls-9" d="M325.2,155.11c34-1.37,62.25,16.57,63.21,40.09s-25.81,43.7-59.76,45.07-62.26-16.57-63.21-40.1S291.24,156.49,325.2,155.11Z"/><path class="cls-10" d="M325.23,155.92c28.49-1.15,52.19,13.25,52.56,22.23s-23.32-4.92-51.81-3.77-51,16.94-51.35,7.95S296.74,157.07,325.23,155.92Z"/><path class="cls-11" d="M188.65,157.11a14.79,14.79,0,0,0,14.17-15.37c-.33-8.16-7.13-12.48-15.28-12.15s-14.59,5.19-14.25,13.34A14.79,14.79,0,0,0,188.65,157.11Z"/><path class="cls-12" d="M188.65,157.11a14.78,14.78,0,0,0,13.61-10.71c-2.16-5.29-7.82-8-14.36-7.76s-12,3.45-13.69,8.89A14.79,14.79,0,0,0,188.65,157.11Z"/><path class="cls-11" d="M332.53,125.44l1.26,31.14c.15,3.63-16.9,4.13-17,.69l-1.26-31.14C315.15,117.73,332.18,117.05,332.53,125.44Z"/><path class="cls-12" d="M332.79,131.9l1,24.67c.15,3.63-16.9,4.13-17,.69l-1-24.56C318.92,128.31,329.16,127.86,332.79,131.9Z"/><path class="cls-8" d="M338.13,120.16c1.47,2,.44,5.72-3.64,6L180.26,138c-4.09.3-7.93-1.55-9.15-4.25a4.34,4.34,0,0,1,.1-3.85c.08,2,3.93,4.44,8.89,4.07l154.23-11.76C337.08,122,338.21,121.12,338.13,120.16Z"/><path class="cls-9" d="M175,127.65l154.28-10.91c7.8-.55,12.65,4.87,5.06,5.44L180.1,133.94C172.4,134.52,167.33,128.19,175,127.65Z"/><path class="cls-8" d="M321.82,94.55a14.79,14.79,0,0,1,15.37,14.17c.33,8.16-6.09,13-14.25,13.34s-14.95-4-15.28-12.15A14.78,14.78,0,0,1,321.82,94.55Z"/><path class="cls-9" d="M321.85,95c6.52-.27,12,3.42,12.15,8.22s-4.93,8.92-11.45,9.18-11.94-3.43-12.14-8.23S315.34,95.24,321.85,95Z"/><path class="cls-10" d="M321.86,95.14c5.48-.22,10,2.73,10.1,4.56s-4.47-1-9.95-.79-9.76,3.43-9.84,1.59S316.41,95.36,321.86,95.14Z"/><path class="cls-1" d="M204.18,51.59l1.37,33.79c.45,11.33-8.77,22.64-8.06,42.33.23,6.67-22.07,7.35-22.3.9-.69-19.69-11-30.21-11.45-41.54l-1.36-33.79C161.29,26.74,203.1,25.11,204.18,51.59Z"/><path class="cls-7" d="M205,91.37c-1.92,9.55-8.1,20.09-7.51,36.34.24,6.67-22.07,7.35-22.3.9-.58-16.52-7.92-26.58-10.54-36.08C178.92,98.48,192.35,98,205,91.37Z"/><path class="cls-5" d="M182.45,33.68c9.86-.4,18.1,5.35,18.41,12.85s-7.45,13.91-17.31,14.31S165.43,55.47,165.13,48,172.58,34.08,182.45,33.68Z"/><path class="cls-10" d="M182.5,34.8c7.69-.31,14.12,3.69,14.23,6.44s-6.29-.79-14-.48-13.79,4.37-13.91,1.61S174.8,35.11,182.5,34.8Z"/><polygon class="cls-13" points="355.07 400.31 457.12 366.63 457.74 381.72 459.04 413.92 357.15 451.6 355.07 400.31"/><polygon class="cls-6" points="358.18 414.64 460.23 380.97 460.84 396.06 462.15 428.26 360.26 465.96 358.18 414.64"/><polygon class="cls-5" points="356.85 401.63 458.9 367.95 466.48 370.85 364.43 404.52 366.5 455.84 358.93 452.95 356.85 401.63"/><polygon class="cls-2" points="356.85 401.63 364.43 404.52 366.5 455.84 358.93 452.95 356.85 401.63"/><polygon class="cls-7" points="364.43 404.52 466.48 370.85 467.09 385.94 468.4 418.14 366.5 455.84 364.43 404.52"/><path class="cls-6" d="M423,396.39c7.06-.29,13.1,7.22,13.48,16.75s-5,17.52-12.08,17.81-13.09-7.22-13.48-16.77S415.94,396.67,423,396.39Z"/><path class="cls-1" d="M423,396.39a12.79,12.79,0,1,1-12.26,13.29A12.79,12.79,0,0,1,423,396.39Z"/><ellipse class="cls-14" cx="423.24" cy="404.6" rx="9.71" ry="8.05" transform="translate(-15.99 17.41) rotate(-2.31)"/><path class="cls-10" d="M422.82,396.71c4.57-.18,8.41,3,8.47,4.6s-3.75-1-8.32-.78-8.16,3.05-8.23,1.44S418.25,396.9,422.82,396.71Z"/><polygon class="cls-10" points="330.29 264.81 466.1 217.81 330.49 269.03 189.78 228.99 330.29 264.81"/><polygon class="cls-10" points="341.04 530.39 511.6 465.75 341.24 534.62 164.5 479.79 341.04 530.39"/><polygon class="cls-10" points="365.03 404.88 366.5 455.8 363.67 404.24 466.45 370.86 365.03 404.88"/><path class="cls-15" d="M793.77,462.61c36.5,23.39,58.61,55.05,57.6,89.29-2,68-94.28,120.42-206.09,117.14S444.41,608,446.4,540c1.3-44.55,41.43-82.44,100.41-102.33l-24.09-64.43A39.94,39.94,0,0,1,517,352c1.13-38.74,63.63-68.36,139.54-66.14,56.62,1.66,104.74,20.57,125.07,46.15l13.25-1.8c5.92-.8,13.17-1,15.8.62l12.82,7.92c4.17,1.87,7,10.41,6.66,16.81-3.68,62.63-11,92.86-36.35,107.08ZM757,443.81q2,.81,4,1.65c43.45,3.3,48.19-57.22,46.06-87.93l-16.66,3c-.28,7.08-3.1,14.77-5.92,21.14Z"/><path class="cls-6" d="M548.71,581.91,557.21,561c20.42,17.57,53.44,29.52,91,30.62,37,1.08,70.14-8.6,91.6-24.5l8.06,20.71c-25.5,14.86-61.1,23.53-100.21,22.38S573.31,598.3,548.71,581.91Z"/><path class="cls-6" d="M770.69,646.6c-34.84,15.34-78.4,23.82-125.41,22.44-45.53-1.33-87.28-11.7-120.64-28.12l11.72-28.75C565.51,629,603.86,639.79,646.11,641c43.21,1.26,82.94-7.69,113.29-23.43Z"/><path class="cls-16" d="M757,443.81q2,.81,4,1.65c33,2.51,43.71-31.9,46-62-.06,41.25-10,74.61-55.08,71.42Z"/><path class="cls-16" d="M523.41,375.12l-.69-1.85A39.94,39.94,0,0,1,517,352c1.13-38.74,63.63-68.36,139.54-66.14,56.62,1.66,104.74,20.57,125.07,46.15l13.25-1.8c5.92-.8,13.17-1,15.8.62l12.82,7.92a8.49,8.49,0,0,1,3.48,3.46,7.12,7.12,0,0,0-3.32-.34l-35,5.5c.31,2.27.79,10.37.72,12.69-1.22,41.55-59,67.8-136.89,65.52C593.59,423.82,543.72,403.08,523.41,375.12Z"/><path class="cls-10" d="M656.38,290.39c63.31,1.85,113.86,30.18,112.89,63.25S716.18,412,652.87,410.18,539,380,540,346.92,593.07,288.53,656.38,290.39Z"/><path class="cls-17" d="M768.9,357.74c-5,31-55.36,54.21-116,52.44S543.24,382.31,540.12,351c10.4-28.19,58.62-48.43,115.85-46.76S760.15,329,768.9,357.74Z"/><path class="cls-18" d="M763.52,371.41c-15.3,23.89-59.29,40.27-110.65,38.77-31.2-.91-59.31-8.26-79.67-19.43a42.41,42.41,0,0,1-7.8-14.58,35.84,35.84,0,0,1-.93-17.16c3.27-16.62,17.89-27.87,31.39-34.69,16.62-8.39,36.33-12.82,54.57-14.12,23.84-1.69,53.39,1.62,73.15,17.19,8.32,6.57,15.42,16.06,14.35,27.79-1.32,14.74-14.51,24.92-26,30.64-14.45,7.16-31.77,10.46-47.6,10a84.48,84.48,0,0,1-30.54-6.38c-10.09-4.31-21.93-12.31-21.27-25.62s13.79-22.14,24.4-26.1c13.15-4.89,28.62-5.44,41.72-.24,7.28,2.91,15.3,8.48,14.48,18-.68,8.07-7.65,13.85-15.56,16.21a62.44,62.44,0,0,0,25.49-8c3.12-2.09,9.48-7,9.16-11.53-.26-3.76-4.68-7.54-7.33-9.43-6.68-4.75-15.45-7.76-23.23-9.52a116.55,116.55,0,0,0-68.85,6.06c-9.5,4-27.72,13.5-27.54,26.83.16,12.2,15.13,21.8,24.09,26.06,21.5,10.24,48.49,12.3,71.72,10.6,28.87-2.12,59.47-10.32,81.95-30.91.18-.17.36-.32.54-.48Zm-101.82.06a15.42,15.42,0,0,1-2.91-1.56,10,10,0,0,1-4.44-8.21c0-.27,0-.52,0-.77a16.11,16.11,0,0,0-5.52,1.29c-1,.42-3.33,1.77-4,3,1.7,2.67,10.37,5,12.7,5.54C658.9,371,660.29,371.28,661.7,371.47Z"/><path class="cls-19" d="M752.81,383.33c-20.4,17.2-57.67,28.08-99.94,26.85-27.71-.82-53-6.69-72.54-15.83a42.2,42.2,0,0,1-12.45-19,32.47,32.47,0,0,1-.86-15.73c3.07-15.66,17.25-26.33,29.94-32.74,16.31-8.23,35.71-12.59,53.62-13.86,23.19-1.64,52.23,1.51,71.43,16.65,7.56,6,14.28,14.59,13.32,25.29-1.22,13.6-14,23.1-24.55,28.36-14.08,7-31,10.19-46.42,9.72a82.14,82.14,0,0,1-29.65-6.18c-8.92-3.81-20.22-11-19.65-22.89.59-12.13,13.18-20.06,22.66-23.59,12.58-4.67,27.41-5.23,39.94-.25,6.07,2.42,13.5,7.08,12.81,15.16-1.08,12.55-21.09,18.64-30.26,12.31a7.22,7.22,0,0,1-3.27-5.9,7.11,7.11,0,0,1,.7-3.39,18.69,18.69,0,0,0-10.64,1.8c-1.58.8-4.73,2.95-4.87,5.09-.3,4.37,12.34,7.76,14.88,8.32,15,3.27,33.88.72,47.3-7.33,4.16-2.78,10.86-8.15,10.44-14.16-.84-11.95-24-19.52-32.62-21.47a119,119,0,0,0-70.32,6.2c-10.79,4.5-29.43,14.59-29.23,29.48.2,13.56,15.56,23.77,25.65,28.57,21.91,10.43,49.28,12.56,72.95,10.82C705.83,403.79,731.62,397.61,752.81,383.33Z"/><path class="cls-20" d="M704.32,405.37a204.17,204.17,0,0,1-51.45,4.81c-23.16-.68-44.57-4.89-62.42-11.59-9.1-5.78-16.92-13.62-20.08-24.15a29.71,29.71,0,0,1-.78-14.29c2.88-14.69,16.63-24.78,28.49-30.78,16-8.08,35.1-12.34,52.68-13.59,22.51-1.6,51,1.39,69.7,16.11,6.75,5.32,13.14,13.17,12.27,22.78-1.11,12.44-13.39,21.29-23,26.07-13.72,6.79-30.23,9.92-45.25,9.46a79.57,79.57,0,0,1-28.75-6c-7.72-3.29-18.53-9.69-18-20.15.52-10.78,12.56-18,20.9-21.09,12-4.47,26.21-5,38.17-.27,4.8,1.91,11.69,5.71,11.13,12.3-.89,10.29-18.64,15.46-26.24,10.21a4.42,4.42,0,0,1-2.07-3.62c0-2.68,1.82-3.75,3.14-5-.78-.28-1.71-.52-2.12-.63-16.54-4.11-35.56,13.42-4.1,20.26,15.67,3.4,35.22.73,49.15-7.68,5.14-3.4,12.25-9.41,11.73-16.78-1-13.75-24.63-21.7-34.67-24a121.48,121.48,0,0,0-71.82,6.32c-12.06,5-31.12,15.75-30.88,32.15.2,14.89,16,25.75,27.18,31.07,22.3,10.62,50.06,12.83,74.2,11.06A194.73,194.73,0,0,0,704.32,405.37Z"/><path class="cls-10" d="M634.89,408.92A199.8,199.8,0,0,1,607.77,404c-17.79-6.72-30.87-16.95-34.9-30.43-14.23-47.57,101.59-74.48,146-39.43,39.84,31.42-34.85,67.67-82.24,47.47-41.9-17.87,5.88-49.54,39.17-36.28,23.44,9.33-2.82,24.4-12.76,17.53-4.5-3.11,10.23-6.62-1.87-9.63-20.28-5-40.07,18.15-5.24,25.72,18,3.92,38-.14,51-8,44.13-29.28-32.68-66.29-97-39.46C554.44,354.65,574.61,397.59,634.89,408.92Z"/><path class="cls-21" d="M784.83,378.71c-16.16,31.7-69.78,53.88-132.7,52S537,403.62,522.7,371c19.57,28.53,70,49.83,129.66,51.58S763.6,406.05,784.83,378.71Z"/><path class="cls-17" d="M776.62,469.26a160.08,160.08,0,0,1-27.9,4.22c24.59,15.53,39.48,36.46,38.82,59.1-1.32,45.12-64,79.9-139.9,77.68S511.2,569.63,512.52,524.51c.69-23.44,17.92-44.09,45-58.21l-6.59-17.61C509,466.63,481.32,496.49,480.31,531c-1.7,58,72.54,107.28,165.8,110s170.24-42.1,171.95-100.12c.79-27.07-14.94-52.22-41.44-71.65Zm-215.41,7L575,513c18,48,127,53.36,149.11,4.37l16.61-36.72c15.59,12.45,24.7,28,24.21,44.6-1.12,38.51-53.4,68.24-116.72,66.39s-113.77-34.59-112.64-73.12C536,502.31,545.56,487.64,561.21,476.24Z"/><path class="cls-1" d="M747.84,587.87c-25.5,14.86-61.1,23.53-100.21,22.38s-74.33-12-98.93-28.35l-12.34,30.27C565.51,629,603.86,639.79,646.11,641c43.21,1.26,82.94-7.69,113.29-23.43l-11.56-29.73ZM722,521.41l17.78,45.74c-21.46,15.9-54.65,25.58-91.6,24.5-37.53-1.11-70.55-13-91-30.62l18.67-45.78C595.73,559.87,696.24,565.32,722,521.41Z"/><path class="cls-6" d="M726,373.24c1.28,0,2.28.64,2.26,1.34s-1.05,1.25-2.33,1.21-2.28-.64-2.26-1.34S724.79,373.2,726,373.24Z"/><path class="cls-6" d="M730.85,366.4c1.26,0,2.27.64,2.25,1.34S732,369,730.78,369s-2.29-.64-2.27-1.35S729.58,366.36,730.85,366.4Z"/><path class="cls-6" d="M715.72,365.61c1.27,0,2.27.65,2.25,1.35s-1.06,1.25-2.33,1.21-2.29-.63-2.27-1.35S714.45,365.58,715.72,365.61Z"/><path class="cls-6" d="M694,370.94c1.27,0,2.28.63,2.26,1.35s-1.07,1.24-2.34,1.21-2.28-.64-2.26-1.34S692.75,370.9,694,370.94Z"/><path class="cls-6" d="M701,367.48c1.27,0,2.29.64,2.27,1.34s-1.07,1.25-2.34,1.21-2.27-.64-2.25-1.34S699.75,367.44,701,367.48Z"/><path class="cls-6" d="M697.92,368.84c1.27,0,2.28.63,2.26,1.34s-1.06,1.25-2.33,1.2-2.28-.63-2.26-1.34S696.65,368.81,697.92,368.84Z"/><path class="cls-6" d="M693.31,363.6c1.26,0,2.27.64,2.25,1.34s-1.06,1.24-2.32,1.2-2.29-.64-2.27-1.34S692,363.56,693.31,363.6Z"/><ellipse class="cls-22" cx="696.53" cy="366.58" rx="1.27" ry="2.29" transform="translate(310.54 1052.55) rotate(-88.39)"/><path class="cls-6" d="M699.44,366.16c1.27,0,2.28.64,2.26,1.34s-1.06,1.25-2.33,1.21-2.29-.63-2.26-1.35S698.17,366.12,699.44,366.16Z"/><path class="cls-6" d="M702.54,362.34c1.26,0,2.28.63,2.26,1.35s-1.07,1.24-2.33,1.2-2.28-.63-2.27-1.34S701.27,362.3,702.54,362.34Z"/><path class="cls-6" d="M700.69,364.06c1.27,0,2.28.64,2.26,1.34s-1.06,1.25-2.34,1.21-2.28-.65-2.26-1.35S699.43,364,700.69,364.06Z"/><ellipse class="cls-22" cx="696.7" cy="360.89" rx="1.28" ry="2.3" transform="translate(315.98 1046.95) rotate(-88.36)"/><path class="cls-6" d="M702.53,359.69c1.27,0,2.28.64,2.26,1.35s-1.06,1.25-2.34,1.21-2.28-.64-2.25-1.34S701.26,359.66,702.53,359.69Z"/><path class="cls-6" d="M716.72,351.85c1.27,0,2.28.64,2.26,1.34s-1.07,1.25-2.33,1.22-2.28-.64-2.26-1.35S715.45,351.81,716.72,351.85Z"/><path class="cls-6" d="M702.75,349.48c1.26,0,2.27.65,2.24,1.35s-1.06,1.24-2.32,1.21-2.29-.64-2.27-1.34S701.47,349.45,702.75,349.48Z"/><path class="cls-6" d="M688.11,346.33c1.26,0,2.27.65,2.25,1.35s-1.06,1.24-2.32,1.21-2.29-.64-2.27-1.34S686.84,346.29,688.11,346.33Z"/><path class="cls-6" d="M653.09,341.39c1.27,0,2.28.64,2.26,1.34s-1.06,1.25-2.33,1.21-2.28-.64-2.25-1.34S651.82,341.36,653.09,341.39Z"/><path class="cls-6" d="M589.37,337.14c1.27,0,2.28.64,2.26,1.34s-1.07,1.24-2.33,1.21-2.28-.64-2.26-1.34S588.09,337.11,589.37,337.14Z"/><path class="cls-6" d="M607,339.36c1.27,0,2.28.64,2.27,1.34s-1.06,1.25-2.34,1.21-2.27-.64-2.25-1.35S605.75,339.32,607,339.36Z"/><path class="cls-6" d="M645.87,332.15c1.27,0,2.28.64,2.26,1.34s-1.06,1.25-2.33,1.21-2.29-.64-2.27-1.35S644.6,332.11,645.87,332.15Z"/><path class="cls-6" d="M644.59,335.18c1.27,0,2.28.64,2.26,1.34s-1.06,1.24-2.34,1.21-2.28-.63-2.25-1.34S643.32,335.15,644.59,335.18Z"/><path class="cls-6" d="M640.21,333.52c1.27,0,2.28.64,2.26,1.34s-1.06,1.25-2.33,1.21-2.28-.64-2.26-1.34S638.94,333.49,640.21,333.52Z"/><path class="cls-6" d="M634.79,338c1.82.05,3.27.91,3.25,1.93s-1.54,1.79-3.36,1.74-3.27-.92-3.24-1.93S633,337.91,634.79,338Z"/><path class="cls-6" d="M637.78,334.31c1.82.05,3.28.91,3.25,1.92S639.5,338,637.68,338s-3.28-.92-3.25-1.93S636,334.25,637.78,334.31Z"/><path class="cls-6" d="M675.18,336.08c1.83.06,3.28.92,3.25,1.93s-1.53,1.78-3.36,1.73-3.27-.91-3.25-1.93S673.37,336,675.18,336.08Z"/><path class="cls-6" d="M662.24,336.21c1.83.05,3.27.92,3.24,1.92s-1.52,1.79-3.34,1.74-3.27-.91-3.24-1.93S660.43,336.16,662.24,336.21Z"/><ellipse class="cls-22" cx="698.6" cy="356.64" rx="1.83" ry="3.29" transform="matrix(0.03, -1, 1, 0.03, 321.66, 1044.5)"/><path class="cls-6" d="M699,361c1.82.05,3.27.91,3.24,1.93s-1.54,1.78-3.35,1.73-3.28-.92-3.25-1.92S697.16,360.9,699,361Z"/><path class="cls-6" d="M729.85,358.79c1.83.05,3.28.92,3.25,1.92s-1.53,1.8-3.35,1.74-3.27-.91-3.24-1.93S728,358.74,729.85,358.79Z"/><path class="cls-6" d="M696.21,339.25c1.81.05,3.27.92,3.23,1.93s-1.53,1.79-3.34,1.73-3.28-.91-3.24-1.93S694.39,339.19,696.21,339.25Z"/><path class="cls-6" d="M671.44,331.2c1.27,0,2.28.64,2.26,1.34s-1.07,1.25-2.33,1.21-2.28-.64-2.26-1.34S670.17,331.16,671.44,331.2Z"/><path class="cls-6" d="M664.19,334.22c1.27,0,2.29.64,2.27,1.35s-1.07,1.25-2.34,1.21-2.28-.64-2.26-1.35S662.93,334.19,664.19,334.22Z"/><path class="cls-6" d="M654.95,330.55c1.26,0,2.28.64,2.26,1.35s-1.07,1.24-2.33,1.2-2.28-.64-2.26-1.34S653.68,330.51,654.95,330.55Z"/><path class="cls-6" d="M668,321.9c1.27,0,2.28.64,2.26,1.35s-1.06,1.25-2.34,1.21-2.28-.63-2.26-1.34S666.7,321.87,668,321.9Z"/><path class="cls-6" d="M644.08,317.46c1.27,0,2.28.64,2.26,1.34S645.28,320,644,320s-2.27-.63-2.25-1.34S642.82,317.43,644.08,317.46Z"/><ellipse class="cls-22" cx="649.99" cy="325.04" rx="1.28" ry="2.29" transform="translate(306.06 965.24) rotate(-88.32)"/><path class="cls-6" d="M628,360.24c1.26,0,2.27.64,2.25,1.34s-1.06,1.25-2.33,1.21-2.28-.64-2.26-1.35S626.76,360.2,628,360.24Z"/><path class="cls-6" d="M638.6,383.19c1.26,0,2.28.63,2.26,1.34s-1.07,1.24-2.34,1.2-2.28-.63-2.26-1.33S637.32,383.16,638.6,383.19Z"/><path class="cls-6" d="M664.56,380c1.26,0,2.27.64,2.25,1.34s-1.07,1.24-2.33,1.21-2.29-.63-2.27-1.35S663.29,380,664.56,380Z"/><path class="cls-6" d="M657.74,374.38c1.27,0,2.29.64,2.26,1.34s-1.06,1.25-2.34,1.21-2.27-.64-2.26-1.35S656.48,374.35,657.74,374.38Z"/><path class="cls-6" d="M648.87,375.14c1.27,0,2.27.65,2.26,1.35s-1.06,1.24-2.33,1.21-2.29-.64-2.27-1.35S647.6,375.1,648.87,375.14Z"/><ellipse class="cls-22" cx="652.54" cy="377.72" rx="1.28" ry="2.3" transform="translate(255.43 1018.65) rotate(-88.28)"/><path class="cls-6" d="M648.8,377.19c1.27,0,2.29.64,2.26,1.34s-1.06,1.25-2.35,1.21-2.27-.64-2.25-1.34S647.54,377.15,648.8,377.19Z"/><path class="cls-6" d="M651.54,382.55c1.28,0,2.29.63,2.27,1.34s-1.07,1.25-2.34,1.21-2.28-.64-2.26-1.34S650.27,382.51,651.54,382.55Z"/><path class="cls-6" d="M651,376.92c1.25,0,2.27.63,2.25,1.34s-1.07,1.25-2.33,1.21-2.28-.63-2.27-1.34S649.76,376.88,651,376.92Z"/><path class="cls-6" d="M655.88,380c1.28,0,2.28.64,2.27,1.34s-1.06,1.24-2.34,1.21-2.28-.64-2.26-1.34S654.61,379.92,655.88,380Z"/><path class="cls-6" d="M698.78,374.39c1.27,0,2.28.64,2.26,1.35s-1.07,1.24-2.34,1.2-2.28-.64-2.26-1.34S697.51,374.36,698.78,374.39Z"/><path class="cls-6" d="M687.13,394.32c1.26,0,2.28.63,2.26,1.34s-1.07,1.24-2.33,1.21-2.29-.64-2.26-1.35S685.85,394.28,687.13,394.32Z"/><path class="cls-6" d="M611.22,370.3c1.27,0,2.28.63,2.26,1.34s-1.07,1.24-2.34,1.2-2.28-.64-2.27-1.34S609.95,370.26,611.22,370.3Z"/><path class="cls-6" d="M577.74,367.79c1.28,0,2.29.64,2.27,1.34s-1.06,1.25-2.34,1.21-2.27-.64-2.25-1.34S576.49,367.75,577.74,367.79Z"/><path class="cls-6" d="M593.5,382.21c1.26,0,2.28.64,2.25,1.34s-1.07,1.25-2.33,1.21-2.28-.63-2.26-1.34S592.23,382.18,593.5,382.21Z"/><path class="cls-6" d="M616.57,396.51c1.27,0,2.28.64,2.26,1.34s-1.07,1.25-2.34,1.21-2.28-.64-2.26-1.34S615.3,396.47,616.57,396.51Z"/><ellipse class="cls-22" cx="644.51" cy="355.53" rx="1.27" ry="2.29" transform="translate(270.6 989.55) rotate(-88.35)"/><path class="cls-6" d="M645.37,343.21c1.27,0,2.28.64,2.26,1.34s-1.06,1.25-2.33,1.21-2.28-.64-2.26-1.34S644.11,343.17,645.37,343.21Z"/><path class="cls-6" d="M698.6,328.08c1.27,0,2.28.64,2.25,1.34s-1.06,1.25-2.33,1.2-2.28-.63-2.26-1.34S697.33,328,698.6,328.08Z"/><ellipse class="cls-22" cx="725.42" cy="325.04" rx="1.28" ry="2.3" transform="translate(379.78 1040.87) rotate(-88.36)"/><path class="cls-6" d="M696.49,318.32c1.27,0,2.28.64,2.26,1.34s-1.07,1.25-2.34,1.21-2.27-.63-2.25-1.34S695.24,318.28,696.49,318.32Z"/><path class="cls-6" d="M664.42,309.21c1.26,0,2.28.64,2.25,1.34s-1.06,1.24-2.33,1.21-2.28-.64-2.26-1.34S663.16,309.17,664.42,309.21Z"/><path class="cls-6" d="M606.11,329.29c1.27,0,2.29.64,2.27,1.35s-1.07,1.24-2.34,1.2-2.28-.64-2.26-1.34S604.84,329.25,606.11,329.29Z"/><path class="cls-6" d="M617.2,340.17c1.28,0,2.28.64,2.26,1.34s-1.06,1.25-2.34,1.21-2.27-.63-2.25-1.35S615.94,340.13,617.2,340.17Z"/><path class="cls-6" d="M623.19,350.73c1.27,0,2.28.64,2.26,1.35s-1.07,1.24-2.33,1.21-2.28-.64-2.26-1.34S621.92,350.69,623.19,350.73Z"/><path class="cls-6" d="M680.38,363.13c1.26,0,2.28.64,2.25,1.34s-1.07,1.25-2.32,1.21S678,365,678,364.34,679.1,363.09,680.38,363.13Z"/><ellipse class="cls-22" cx="683.73" cy="361.95" rx="1.28" ry="2.3" transform="translate(301.53 1034.58) rotate(-88.29)"/><path class="cls-6" d="M685.72,363.71c1.27,0,2.28.64,2.26,1.35s-1.07,1.24-2.33,1.2-2.28-.64-2.26-1.34S684.45,363.67,685.72,363.71Z"/><ellipse class="cls-22" cx="674.08" cy="371.97" rx="1.27" ry="2.3" transform="translate(282.02 1034.56) rotate(-88.28)"/><ellipse class="cls-22" cx="666.53" cy="365.11" rx="1.28" ry="2.3" transform="translate(281.26 1020.19) rotate(-88.25)"/><path class="cls-6" d="M671.45,350.86c1.29,0,2.3.64,2.27,1.34s-1.06,1.24-2.35,1.21-2.27-.65-2.24-1.35S670.19,350.82,671.45,350.86Z"/><path class="cls-6" d="M665.78,341.16c1.27,0,2.29.64,2.27,1.35s-1.06,1.25-2.34,1.21-2.28-.64-2.25-1.34S664.52,341.12,665.78,341.16Z"/><ellipse class="cls-22" cx="678.51" cy="345.28" rx="1.27" ry="2.3" transform="translate(313.41 1013.34) rotate(-88.31)"/><path class="cls-6" d="M687.39,335.84c1.27,0,2.28.64,2.26,1.35s-1.07,1.24-2.34,1.21-2.28-.64-2.26-1.34S686.11,335.8,687.39,335.84Z"/><path class="cls-6" d="M689.92,333.79c1.25,0,2.28.64,2.26,1.34s-1.08,1.25-2.33,1.21-2.28-.64-2.26-1.34S688.65,333.75,689.92,333.79Z"/><path class="cls-6" d="M686.15,334.44c1.28,0,2.28.64,2.26,1.34s-1.06,1.25-2.34,1.21-2.29-.64-2.27-1.34S684.88,334.4,686.15,334.44Z"/><path class="cls-6" d="M678.25,331.32c1.27,0,2.28.64,2.26,1.35s-1.07,1.24-2.33,1.2-2.28-.63-2.26-1.34S677,331.28,678.25,331.32Z"/><path class="cls-6" d="M695.35,337.43c1.26,0,2.27.64,2.25,1.35s-1.06,1.25-2.33,1.21-2.29-.64-2.27-1.35S694.08,337.4,695.35,337.43Z"/><path class="cls-6" d="M688.26,341.31c1.26,0,2.27.64,2.25,1.35s-1.06,1.25-2.33,1.21-2.28-.64-2.27-1.34S687,341.27,688.26,341.31Z"/><path class="cls-6" d="M697.55,346.86c1.26,0,2.28.64,2.25,1.35s-1.06,1.24-2.33,1.21-2.29-.64-2.27-1.34S696.28,346.83,697.55,346.86Z"/><path class="cls-6" d="M719,339.4c1.27,0,2.28.64,2.26,1.34S720.23,342,719,342s-2.28-.64-2.25-1.34S717.77,339.37,719,339.4Z"/><path class="cls-6" d="M712.48,342.11c1.28,0,2.29.64,2.27,1.34s-1.07,1.24-2.34,1.21-2.27-.64-2.25-1.34S711.23,342.07,712.48,342.11Z"/><path class="cls-6" d="M748.53,344.1c1.26,0,2.27.63,2.25,1.35s-1.06,1.24-2.32,1.2-2.28-.64-2.27-1.34S747.26,344.06,748.53,344.1Z"/><path class="cls-6" d="M669.15,333c1.82.06,3.27.92,3.24,1.93s-1.53,1.78-3.35,1.73-3.27-.91-3.24-1.92S667.33,333,669.15,333Z"/><path class="cls-6" d="M659.18,330.33c1.82.06,3.27.91,3.24,1.92S660.9,334,659.07,334s-3.27-.92-3.24-1.93S657.36,330.28,659.18,330.33Z"/><path class="cls-6" d="M660.22,324c1.83.05,3.28.91,3.24,1.93s-1.53,1.78-3.35,1.73-3.26-.91-3.24-1.92S658.4,323.92,660.22,324Z"/><path class="cls-6" d="M633.27,346.25c1.82.06,3.27.92,3.24,1.93s-1.53,1.79-3.35,1.73-3.27-.92-3.25-1.93S631.44,346.21,633.27,346.25Z"/><path class="cls-6" d="M626.13,351.41c1.82.06,3.27.92,3.24,1.93s-1.52,1.79-3.34,1.73-3.27-.91-3.24-1.93S624.31,351.36,626.13,351.41Z"/><path class="cls-6" d="M684.44,351.5c1.82.05,3.28.91,3.25,1.93s-1.54,1.78-3.36,1.73-3.27-.92-3.24-1.92S682.63,351.45,684.44,351.5Z"/><path class="cls-23" d="M764.69,309.09c26.07-37.9,11.18-77.62-31.45-85.77-45.38-8.68-108,15.21-167.72,35.59C522.33,273.65,480.8,283.6,457,270.64c27.67,3.55,63.15-5.92,103.84-22.27,60-24.12,129.63-61.21,176.94-51.51C804.07,210.46,824.22,270.6,764.69,309.09Z"/><path class="cls-24" d="M741.46,290.34c15.45-21.68.16-43.18-32.49-46.44-34.75-3.48-79,11.54-121.34,24.53-30.66,9.39-60.57,16.09-79.7,9.63,21,1.16,46.48-5.1,75.1-15.32,42.19-15.05,90.24-37.57,126.54-33.58C760.44,234.74,781.81,267.35,741.46,290.34Z"/><path class="cls-6" d="M351.73,597.42a8.69,8.69,0,0,1-4.61-8c1.14-35.88,34.43-60.74,67.67-65.66,32.06-4.74,69.44,8.1,82.52,39.87a8.66,8.66,0,0,1-1.55,9.21,8.67,8.67,0,0,1,5.55,7.51c3,38.51-32.22,66.5-67.52,71.73-34,5-74.18-10-84.49-45.51a8.53,8.53,0,0,1,1.38-7.71C351,598.33,351.37,597.87,351.73,597.42Z"/><path class="cls-7" d="M493.67,562.12c-7.54-13.92-22.86-23.52-40.57-27.43-7.88-1.74-11.69-1.12-9.86,3.51,2.16,5.45,4.71,11,2.82,18.89.16-6.9-4.87-13.56-9.2-19.88-5.05-7.4-10.33-7.06-8,3.7,1.63,7.65,3.73,15.56-.57,25.54,1.55-7.83-2.38-16.18-5.85-24.49-2.15-5.12-6.16-7.28-13.42-4.66a85.15,85.15,0,0,0-16.82,8c-7.46,4.74-7.26,7.95-5.07,11.73,2.06,3.53,4.28,7.16,3.81,12.76-.48-3.69-2.89-7.08-5.83-10.08-4.43-4.54-11.19.88-16,10.19-7.57,14.74-3.41,17.6,3.16,13.19a38.71,38.71,0,0,1,20.67-6.49c9-.34,10.46-.28,8.89-5.34-1.83-5.95-3.47-12.23-.45-20.3-.95,6.41,2.61,13,5.74,19.62,2.18,4.6,8.89,8.12,15.82,10.5a97.68,97.68,0,0,0,33.54,5.06c10.67-.23,22.26-3.14,16.26-11.43-5.06-7-10.85-13.88-10.68-25.91,1.73,8.67,10,15.3,16.92,22.35,4.31,4.37,10.32,5.12,14.18,1.29s2.34-7,.54-10.34ZM372,619.15c-7-10.1-4.65-17.29.14-21.27,2.68-2.24,17.71-13.67,15.64-2.92-1.11,5.8-3.16,11.95,1.13,18-1.58-4.77,2-12.82,4.87-19.05,3.34-7.21,8.24-8.42,13.64-7.3,4,.82,9.61,1.23,7.9,8.26-2.1,8.63-6.47,19-1.13,32.85-2.1-11.62,5.38-21.29,10.77-30.71,3.79-6.61,7.19-6.73,10.31-5.81s5.86,2.6,3.63,6.83-5,8.41-1.8,15.34c-.86-5.6,5.07-9.73,9.3-14.66,3.77-4.41,7.94-4.06,14.36-3.33,8.06.92,10.61,1.55,9.63,6.52-1.34,6.79-3.7,13.66.36,22.5-1.66-7.46,2.89-15.87,6.08-23.55,2.52-6.05,5.74-5.8,11.24-8.1,3.23-1.35,5.74-3.75,8.31-6.52,3.2-3.47,3.86-2.11,3.79.6-.67,27.69-25.82,52.73-60.16,57.81-5.23.92-7.28-2.32-7.44-5.25-.25-4.41-.49-9.17-5.39-16.18,2.83,5.84,1.33,10.91-.3,15.76-1.06,3.18-2.28,7.21-12.57,5.46C396.36,641.33,381.06,632.15,372,619.15Z"/><path class="cls-1" d="M450.43,537.71c2.74,7,4.48,12.41,2.59,20.27a3.93,3.93,0,0,1-7.75-1c.14-5.85-5.34-12.93-8.52-17.58-.26-.38-.77-1.06-1.33-1.72.1,1,.27,1.91.37,2.39C438,550.3,439.36,557.83,435,568a3.93,3.93,0,0,1-7.46-2.32c1.37-6.95-3-15.91-5.63-22.2-1.72-4.13-4.55-3.9-8.46-2.48a80.78,80.78,0,0,0-16,7.66c-.95.6-4.63,3-4.58,4.46a5.65,5.65,0,0,0,.81,2c2.92,5.05,4.82,9,4.33,15.06a4,4,0,0,1-1.22,2.54c1.2,0,3.08-.07,4.47-.21,0,0,0,0,0,0-2.5-8.09-3.44-14.64-.39-22.83a3.93,3.93,0,0,1,7.57,1.94c-.8,5.45,3.12,12.55,5.4,17.36,1.86,4,9.62,7.12,13.54,8.46a93.56,93.56,0,0,0,32.17,4.85l1.73-.06a36.1,36.1,0,0,0,9.19-1.48c.58-.19,2.92-1.11,3.12-1.78.09-.41-.67-1.59-.89-1.87-6.76-9.34-11.59-16.06-11.43-28.28A3.94,3.94,0,0,1,469,548c1.51,7.59,10.6,15,15.86,20.36,2.24,2.27,6,3.86,8.61,1.26,2.17-2.14,1.16-3.25-.16-5.68-7.53-13.92-23-22.16-37.95-25.46a39.68,39.68,0,0,0-5-.79ZM391.74,573a41.65,41.65,0,0,0-18.54,6.82c-.21.14-.58.37-1,.58a45.65,45.65,0,0,1,3.49-8.71,28.49,28.49,0,0,1,5.61-7.86c.65-.6,2.38-2,3.37-1.83a1.36,1.36,0,0,1,.67.43c2,2,4.37,4.92,4.75,7.85a3.91,3.91,0,0,0,1.61,2.7ZM498.9,592.33a22.14,22.14,0,0,1-6.12,4c-1.94.81-5,1.6-6.67,2.64a6.59,6.59,0,0,0-2.46,3.35c-2.43,5.82-7.28,14.92-5.88,21.18a3.88,3.88,0,0,1-.48,2.89q1.58-1.2,3.09-2.5c9.15-7.91,16.17-18.44,18.35-30.47.07-.35.12-.69.17-1.05Zm-24,35.79a75.9,75.9,0,0,1-32.23,12.55l-.1,0c-1.56.27-2.74.18-2.84-1.6-.42-7.39-1.76-12-6.09-18.22a3.94,3.94,0,0,0-6.78,4c2.17,4.47,1,8.37-.48,12.81-.25.77-.63,2.1-1.33,2.58-1.48,1-5.26.51-6.86.24-15.51-2.64-30.63-10.48-39.76-23.6-3.39-4.9-6-11.52-.56-16a53.42,53.42,0,0,1,9.14-6c-1.44,7.31-3,13.46,1.92,20.3a3.93,3.93,0,0,0,6.93-3.52c-1.18-3.59,3.08-12.69,4.71-16.17,2-4.42,4.52-6.09,9.27-5.1,1,.21,4.21.69,4.94,1.41.32.31,0,1.75-.07,2.07-1.22,5-2.76,9.68-3.43,14.89A40.63,40.63,0,0,0,413.7,629a3.93,3.93,0,0,0,7.54-2.1c-1.85-10.19,5.53-19.71,10.31-28.05,1-1.64,2.62-4.56,4.93-4.19a7.38,7.38,0,0,1,.86.2,8.12,8.12,0,0,1,1.54.61,6,6,0,0,1-.28.6c-3.55,6.7-5.35,11.33-1.88,18.83a3.93,3.93,0,0,0,7.46-2.24c-.47-3,4.56-7.38,6.41-9.33.69-.71,1.36-1.43,2-2.19,2.87-3.35,7-2.42,10.93-2a38.93,38.93,0,0,1,6.34,1.06c0,.28-.09.61-.13.79-1.83,9.32-3.64,15.59.64,24.89A3.91,3.91,0,0,0,474.85,628.13Z"/><path class="cls-5" d="M460.31,542.72a38.12,38.12,0,0,1,1.06,4.66,7.91,7.91,0,0,1,1.86-3.87c-1-.28-1.95-.55-2.91-.79Zm1.23,11.77a33.3,33.3,0,0,1-.77,4.36,7.86,7.86,0,0,1-15.3,0,37.59,37.59,0,0,1-2.95,10.65,7.85,7.85,0,0,1-8.3,4.67,89.84,89.84,0,0,0,29.13,4.08c.54,0,1.07,0,1.61-.05a35,35,0,0,0,7-.93c-5.44-7.59-9.34-13.85-10.4-22.75Zm-30.17,18.68a7.89,7.89,0,0,1-3.78-8.34c1.13-5.75-3.19-14.66-5.39-19.92a3.41,3.41,0,0,0-.57-1,9.19,9.19,0,0,0-2.92.69q-2,.73-4,1.54a7.77,7.77,0,0,1,1.52,5.9c-.62,4.21,3.27,11.36,5.06,15.11,1.06,2.24,6.93,4.8,10.1,6Zm46.32-23.44c2.71,5.69,10.11,12,13.94,15.84.46.47,2,1.73,2.84,1.36-.22-.41-.5-.85-.66-1.14-3.67-6.79-9.45-12.1-16.12-16.05ZM390,570a11.73,11.73,0,0,0-2.06-3.26,21.94,21.94,0,0,0-3.84,5.07A44.5,44.5,0,0,1,390,570Zm106.59,30.52a24.49,24.49,0,0,0-4.45,1.75,4.32,4.32,0,0,0-.9,1.51c-1.27,3.06-3.9,8.35-5.15,13a50.42,50.42,0,0,0,10.5-16.22Zm-25.47,27.79a7.42,7.42,0,0,1-.38-.73c-4.2-9.14-3.25-15.52-1.53-24.24l-2.2-.25c-2.07-.23-5.93-1.22-7.49.63-.68.79-1.4,1.58-2.13,2.34-1.06,1.12-4.9,4.7-5.35,6.24a7.84,7.84,0,0,1-5.53,8.5,7.73,7.73,0,0,1-4.25.09,33,33,0,0,1,5.12,15.65,73.15,73.15,0,0,0,23.72-8.24Zm-34.43-12.68a20.69,20.69,0,0,1-1.82-8.09,57.89,57.89,0,0,0-4.46,8.76,7.83,7.83,0,0,1,6.27-.67Zm-8.87,16.46a33,33,0,0,1-1.26,4.3c0,.14-.11.32-.16.51a21.11,21.11,0,0,1-3.63-.31c-14.46-2.47-28.68-9.73-37.18-22-2.07-3-4.81-7.82-1.29-10.75.41-.34.88-.7,1.38-1.09a20.58,20.58,0,0,0,4,14.67,7.87,7.87,0,0,0,13.88-7c-.5-2.33,3.45-10.95,4.52-13.29,1.23-2.66,2-3.51,4.92-2.9.38.08.91.17,1.46.26a112.35,112.35,0,0,0-3.13,13.76A44.69,44.69,0,0,0,414,630.42a7.86,7.86,0,0,0,13.82,1.63Z"/><path class="cls-4" d="M426.32,563.08c1.13-2.5-2.36-7.89-2.77-11.11-.26-1.93-2.44-8.16-4.29-3.36-1.51,3.94,3.15,4.45,3.24,11.88,0,2.24-.12,7.58,3.19,3.75a3.42,3.42,0,0,0,.64-1.16Zm66.27,1.64c-.08-.63-1.74-2.07-2.09-3a13.17,13.17,0,0,0-2.91-4c-.39-.34-1.33-1.59-1.78-1.78-.29-.13-1.58-1.4-2.35-1.8a16.45,16.45,0,0,0-2.3-1.45c-1.42-.4.55,2.35,1.34,2.88.12.09,3.43,3,3.55,3.11.73.8,2.27,1.87,3.07,2.77a11.43,11.43,0,0,1,2,2.18c.14.24,1.6,2,1.49,1.06Zm.29,38.12c-.9,1-.81.71-1.22,1.89a17.57,17.57,0,0,1-.86,2.57,7.49,7.49,0,0,0-.37,2.34c1.27,0,2.49-2.55,3-3.53s.73-1.87,1.22-2.71c2.19-3.71-1.41-1-1.8-.56Zm-24.85-29c-.09-.71-4-5.17-5-8.25-1.31-3.94-1.57-4.31-5.27.23,0,0-7.07,2.77-.76,5.83,2.25,1.08-2.63,3.8,5.95,4.12,2.27.08,5.56,2,5.12-1.93Zm-.27,30.66c-4,.41-5.63-2.5-8.58,3.79-1.16,2.48,1.75,4.21-1,9.15-1.6,2.87-2.51,7.58.47,9.87,2.19,1.68-.15,2.24,5,2.06,3.6-.13,5.25-.45,3.65-5.33-1.73-5.28-2.58-1.33-2.69-10.27-.06-5.57,1.85-5,2.3-7.34a6.48,6.48,0,0,1,.82-1.92Zm-57.39,4.77c.07,1.86-.35,4.28-.23,6.36a22.33,22.33,0,0,0,.37,4.82c.14.67.72,5.7.43,5.73-2.72.29-3.08-1-4.66-3-1-1.28-.71-3.32,0-4.63,1.51-2.81,2-10.06,1.87-13.38,0-1.6,2.36-9.12,4.26-9.09C412.61,596.07,410.36,608.83,410.37,609.26Z"/><path class="cls-6" d="M286.08,623.7a8.72,8.72,0,0,0-6.23,6.92c-6.51,35.49,20.91,67,52.52,78.86,30.48,11.48,69.92,6.8,89.52-21.63a8.73,8.73,0,0,0,.44-9.38,8.73,8.73,0,0,0,7-6.2c11.13-37.18-17.53-72.15-51.09-84.79-32.36-12.17-75-5.92-92.65,26.74a8.63,8.63,0,0,0-.28,7.87C285.57,622.65,285.82,623.18,286.08,623.7Z"/><path class="cls-7" d="M416.86,683.23a55.8,55.8,0,0,1-11.46,9.71c-6.61,4.15-9.59,4.39-9.83-.55-.26-5.47-.54-11.14-6-17.34,3,5.33,1.91,11.91.7,18.24-.78,4-3.3,7.79-10.05,8.59a83.25,83.25,0,0,1-16.23.49c-10.74-.82-10.41-3.56-8.22-8.75,3-7.19,6.85-14.4,4.76-25-.12,7.48-4.69,14.66-9.86,21.36-5,6.53-8.46,8.27-16.67,4.21-28-13.8-44.38-40.8-39.78-65.9,5.34,9.62,12.09,15.17,19.78,18.34,11.4,4.71,17.45,3.49,13.42,9.57a26.3,26.3,0,0,0-4.52,19.39c.47-7,5.52-13.7,10.94-19.43,2.84-3,6.93-5.84,12.11-5.48,6.28.42,8.81,1.36,6.66,4.73-2.68,4.16-6.93,8-3.17,13.68-.92-5.19,9.34-11.39,15.59-16.25,2.85-2.21,5.14-3.11,8.46-2.5,2.21.4,4.86.92,4.73,4-.39,8.57-7,17.23.57,28.88-2.87-8.58,4.5-17.39,9.44-25.5,1.28-2.1,4.69-2.79,10.59.45a56.94,56.94,0,0,1,17.51,15.22c4.15,5.32,3.2,6.87.52,9.82ZM299.07,614.53a43,43,0,0,0,16.23,19.1c3.92,2.51,6.73,1.85,7.25-2.2,1.07-8.37-1.55-18.16,6.5-25.46-3.75,6.38-.41,16.78,1.18,26.65,1,5.89,4.52,8.6,11.58,9.55,6.48.87,13.25,1,20,1.34,4.89.27,8.26-1.75,7.71-6.13-1.09-8.65-5.8-17.12-.7-28-1.71,8.35,4.58,17.53,8.11,26.75,2.05,5.35,6,8.15,10.21,8.24a70.94,70.94,0,0,1,8.1.83c4.9.68,8-1.69,7.71-5.59-.63-9.31-3.69-19.42,1.25-28.83-2,8,2.29,19.44,5.1,30.19,1.3,4.95,3.91,8.89,8.66,12.85a28.24,28.24,0,0,1,6,6.91c1.93,3.12,3.15,3.64,4-1.69,4.43-26.55-15.52-55.24-47.2-67.16a81.46,81.46,0,0,0-30-5.33c-3.61.06-5.9,3.15-5,7.62,1.76,8.61,4.81,17.23,1.84,28.43.76-8.69-4-18.08-7.14-27.32-1.84-5.35-6-7-13.1-4.46C315.12,595.31,305,603.52,299.07,614.53Z"/><path class="cls-1" d="M401.67,690.82s0,0,0,0c-.38-7.88-1.46-13.36-6.89-19.53a3.59,3.59,0,0,0-5.83,4.13c2.52,4.49,1.22,11,.3,15.8-.74,3.82-3.21,5.26-6.94,5.7a80.39,80.39,0,0,1-15.53.47c-1.06-.08-4.87-.44-6.11-1.12a16.1,16.1,0,0,1,.93-2.66c4-9.57,7.11-16.28,5-27.09a3.6,3.6,0,0,0-7.12.63c-.12,6.91-5.05,14-9.12,19.23s-5.9,6.31-12.23,3.19c-19.87-9.8-37.59-29.27-38.51-52.26a40.84,40.84,0,0,0,15.55,11.24,93.18,93.18,0,0,0,9.09,3.13c.53.17,1.86.54,2.85.9l-.15.22c-4.51,6.84-6.27,13.71-5.08,21.89a3.59,3.59,0,0,0,7.14-.28c.42-6.34,5.74-12.72,10-17.19,2.43-2.56,5.57-4.62,9.25-4.37.59,0,2,.14,3.12.31l-.65.91c-3.63,5.1-5.63,9.73-1.75,15.59a3.6,3.6,0,0,0,6.54-2.62c-.44-2.5,12.19-11.17,14.27-12.78,1.86-1.44,3.23-2.24,5.6-1.8a12.38,12.38,0,0,1,1.78.42c-.2,4.07-2,8.64-2.66,12.78a24.26,24.26,0,0,0,3.82,18.13,3.6,3.6,0,0,0,6.42-3.1c-2.33-7,5.58-16.7,9-22.44,1.06-.67,5,1.2,5.84,1.69A53.76,53.76,0,0,1,416,674.21c.42.53,2.07,2.72,2.06,3.43a8.39,8.39,0,0,1-1.37,1.75A51.93,51.93,0,0,1,406,688.48a33.21,33.21,0,0,1-4.32,2.33ZM321.39,630c0-.17.07-.35.09-.45.64-5.12,0-10.18,1-15.37a21,21,0,0,1,6.69-12.3,3.59,3.59,0,0,1,5.5,4.48c-2.71,4.62-.09,15,.88,20,.27,1.42.53,2.85.77,4.28.78,4.87,4,6,8.5,6.57,6.52.87,13.17.95,19.72,1.31,1.68.1,4.24.17,4-2.09-.56-4.39-2-8.68-2.66-13.09a28.24,28.24,0,0,1,2.27-16.9,3.6,3.6,0,0,1,6.78,2.25c-1.18,5.71,3,13.51,5.3,18.59.93,2,1.84,4.06,2.64,6.13,1.14,3,3.48,5.86,6.93,5.93a73.24,73.24,0,0,1,8.51.86c1.53.21,3.78.28,3.64-1.78-.73-10.83-3.82-20.31,1.65-30.73a3.65,3.65,0,0,1,.88-1.1A80.57,80.57,0,0,0,382,593.81a78,78,0,0,0-28.64-5.09c-1.8,0-1.8,1.94-1.52,3.3,2.26,11,4.82,18.65,1.8,30.08a3.59,3.59,0,0,1-7.05-1.23c.69-7.93-4.4-18.35-7-25.85-1.45-4.26-4.77-3.6-8.46-2.24-10.53,3.84-19.83,10.83-25.59,20.49a39.13,39.13,0,0,0,14.12,15.93,8.84,8.84,0,0,0,1.65.83Zm88.54-18.42a67.73,67.73,0,0,1,5.68,6.44c7.36,9.48,12.26,21.22,11.9,33.36,0,1-.1,1.93-.19,2.88a31.81,31.81,0,0,0-4.57-4.66c-3.69-3.07-6.26-6.32-7.47-11C413.47,631.77,409,619.13,409.93,611.6Z"/><path class="cls-5" d="M407.9,683.23a28.45,28.45,0,0,0-7.29-16.11,7.13,7.13,0,0,0-4.79-2.42c1-1.63,2.05-3.15,2.9-4.43a20.71,20.71,0,0,1,2.27,1,50.34,50.34,0,0,1,15.32,13.35c.17.22.39.51.61.83a49.25,49.25,0,0,1-9,7.75Zm-18.39,1.9c-.21,1.33-.46,2.57-.66,3.61-.42,2.2-1.74,2.56-3.83,2.82a77.69,77.69,0,0,1-14.84.46l-1.58-.15c2.88-6.88,5.1-12.43,5.37-19A28.62,28.62,0,0,0,378.41,684a7.19,7.19,0,0,0,9.15,2.55,7.34,7.34,0,0,0,1.94-1.39Zm-15.83-18.37c-.11-.88-.27-1.79-.45-2.74a7.2,7.2,0,0,0-3.42-4.81c2.19-1.64,4.26-3.12,5.27-3.89.41-.31.74-.6,1.08-.81-.62,2.92-1.64,5.95-2.09,8.78a30.33,30.33,0,0,0-.39,3.46Zm-16.8,6.08a59,59,0,0,1-6.27,9.55c-3.1,4-3.19,4.44-7.79,2.17a75.58,75.58,0,0,1-10.31-6.17,7.18,7.18,0,0,0,3.2-5.51c.35-5.31,5.48-11.27,9-15a12.35,12.35,0,0,1,3.11-2.47c-2.06,4.62-2.15,9.25,1.27,14.42a7.15,7.15,0,0,0,7.8,3ZM321,668.31A56.21,56.21,0,0,1,307.78,645a44.18,44.18,0,0,0,9.12,5.06c2.59,1.07,5.24,2,7.91,2.79A32.43,32.43,0,0,0,321,668.31Zm.35-46.4a63.35,63.35,0,0,1,.65-10.12,24.67,24.67,0,0,1,7.81-14.32,7.19,7.19,0,0,1,11,9c-1.94,3.29.58,13.78,1.29,17.47q.43,2.19.79,4.39c.5,3.06,2.69,3.21,5.44,3.59,6.4.85,12.89.93,19.33,1.28-.67-3.69-1.8-7.33-2.34-11.06a31.92,31.92,0,0,1,2.57-18.95,7.19,7.19,0,0,1,13.55,4.49c-.93,4.5,3.18,12.31,5,16.36,1,2.1,1.9,4.2,2.73,6.36.58,1.49,1.83,3.58,3.65,3.62a72.21,72.21,0,0,1,8.32.8c-.92-10.43-3.19-19,1.53-29.13A77,77,0,0,0,383.9,595.4a75.1,75.1,0,0,0-25.16-4.86c2.33,11.12,4.65,19,1.54,30.71a7.19,7.19,0,0,1-14.11-2.47c.61-7-4.48-17.65-6.78-24.36a2.75,2.75,0,0,0-.4-.82c-.61-.22-2.84.57-3.42.79a46,46,0,0,0-22.67,17.28,35.45,35.45,0,0,0,8.48,10.25Zm96.35-1a50.55,50.55,0,0,1,9.08,22.94,16.19,16.19,0,0,1-4.94-7.94C420.83,632,419,626.32,417.73,621Z"/><path class="cls-4" d="M322.23,653.8c.49,1.43-1.82,4.2-1.51,6.35.14,1-1.12.8-2-.32-2-2.5-1.63-5.41-3.28-7.6-.87-1.13,1.63-.73,2.57-.05,1.69,1.19,3.7,1,4.27,1.71.16.17-.07.66-.12.84l.08-.92Zm54.67-58.34c-.72-.92-7.09-3.34-8.81-3.41-2.17-.09-2.85-.62-4.89,1.4-1.68,1.69,1,5.7,2.94,5.89,2.19.22,2,0,4.08-.95,2.65-1.21,2.85-1.73,6-1.18,1.21.21,4.47,1.87,4.79,1.28s-.47-1.61-1.5-1.82c-.1,0-2.6-1.2-2.62-1.21Zm-53.6,8.69a21.56,21.56,0,0,0-1.29,2.76,32.61,32.61,0,0,0-.75,6.93,8.57,8.57,0,0,0-.14,2.58c0,.12-.13,3.39-1.14,2.18-1.65-2-1.36-2.2-2.53-4.28-.78-1.38,1.83-3.65,2-5.47.15-2,1.38-3.24,2.8-4.48,0,0,1-.81,1.1-.23Zm27.14,76.12c.33-.37,2.93-3.81,2.86-4.28-.25-1.76-1.79-1.7-2.73-3a17.12,17.12,0,0,1-1.36-1.63c-2.37-3.63-2.52-3.43-3.69-7.69-.34-1.26-.47-.88-2-.21s-5,5-2.25,6.13c4.09,1.66,5.53,1.93,6.23,6.77.14,1,1.06,5,2.83,4.17.1,0,0-.13.07-.23Zm31.08,8.2s-3.92-3.83-4.54-4.93c-.29-.53-.93-2.28-1.58-2.23-1.51.13-1.28,4-1.13,5,.32,2.08,2.8,4.19,5,3.92,1.87-.22,3,.34,2.19-1.64,0-.12.08-.16.07-.18Zm34.3-13.25c-.72.54-1.34,1.76-2.48,2.15-.85.3-1.54,1.28-3,.8s-2.12-2.68-2.15-3.83a24.39,24.39,0,0,0-1.65-5.44,15.91,15.91,0,0,0-1.21-1.81c-1.51-2.15-.35-3.15,2.22-.36,1,1.11,2.19,2.14,3.22,3.27a40.9,40.9,0,0,0,3.56,3.24c.22.2,1.9,1.67,1.5,2Zm10-35.12c.14-.34-.7-2.81-.75-3.6a14,14,0,0,0-1.08-3.26,22.37,22.37,0,0,0-1-2.25c-.31-.5-.49-1.34-1-2.06-.29-.44-1.43-2.93-1.69-2.77-.54.34.34,2.28.49,2.8.48,1.75,1.27,3.58,1.8,5.36.27.91.62,1.5.84,2.49,0,.13,2,5.47,2.23,4.17.09-.47,0-.39.17-.9Zm-29.43-7.57c1.75-.58,6.11,2.42,2-7.42-.87-2.1-.32-7.7,0-10,.53-3.5-.06-3.17,1.15-7.17.31-1-1.88-3.64-2.36-4.49a31.76,31.76,0,0,1-5.21-2.55c-.77-.67-5.59-2.77-6.46-1.33-3.42,5.72,7.69,15.66,8.19,25.52.14,2.66.66,8.1,2.66,7.43Zm-32.82-13c0,.07.84,4.3,1,4.93.26,1,3,8.08.28,6.9-3.11-1.36-6.47,1.74-3.47-6.45.58-1.57,1.47-6.33,2.18-5.37Zm-14.75,10.19c-2.56-1.68-2.28.22-4.54-4-1.92-3.62-.49-5.21-1.82-8.77-.27-.75-.71-4.23.35-4.83,1.41-.79,1.67,3.65,1.66,4.31,0,3.4.13,3.89,1.41,7.3.45,1.2,1.3,3.33,2.73,3.55.27,0,2.44,2.72.43,2.51A.36.36,0,0,1,348.81,629.77Z"/></svg>