<svg id="Слой_1" data-name="Слой 1" xmlns="http://www.w3.org/2000/svg" viewBox="0 0 668.97 595.28"><defs><style>.cls-1{fill:#ebfbfa;}.cls-2{fill:#d2f1ee;opacity:0.5;}.cls-3{fill:#946d4b;}.cls-4{fill:#f5deb9;}.cls-5{fill:#e4c9a7;}.cls-6{fill:#fff;}.cls-7{fill:#3f3e3d;}.cls-8{fill:#171717;}.cls-9{fill:#956a46;}.cls-10{fill:#ca4189;opacity:0.1;}.cls-11{fill:#b05082;}.cls-12{fill:#f1edef;}.cls-13{fill:#d26a96;}.cls-14{fill:#ca9f66;}.cls-15{fill:#e1bc84;}.cls-16{fill:#c2edf2;opacity:0.9;}.cls-17{fill:#8de3db;}.cls-18{fill:#f7fff1;}.cls-19{fill:#eff3ec;}.cls-20{fill:#ca2128;}.cls-21{fill:#8bbd50;}.cls-22{fill:#f6e03d;}.cls-23{fill:#e8b847;}.cls-24{fill:#443821;}.cls-25{fill:#785b2f;}.cls-26{fill:#996a34;}.cls-27{fill:#a7ccc6;}</style></defs><title>Монтажная область 1</title><path class="cls-1" d="M40.68,242.82C61.76,198.37,54.59,74.15,139.9,54.94S253.82,60,311.09,48,490.54,11.89,540.92,78.63,671.2,258.37,622.66,347.39,593.3,507.22,539.31,545.65,112.43,598,74.08,519-25.18,381.67,40.68,242.82Z"/><path class="cls-2" d="M54.22,233.45C75.31,189,67,70.4,152.34,51.19s149.73,4.62,207-7.39S521.25,11.18,571.63,77.93,676,299.13,627.49,388.15s-20.23,136.17-74.23,174.6S126.38,615.09,88,536.08-11.64,372.3,54.22,233.45Z"/><path class="cls-3" d="M247.07,141.24l93,3,93-3s8.53,33.61,5.95,61.57,2.14,69-15.29,86.74c-16.33,16.58-151,16.58-167.31,0-17.44-17.7-12.71-58.78-15.29-86.74S247.07,141.24,247.07,141.24Z"/><path class="cls-4" d="M353.25,279.13l16,27.08s-2.76,18.58-28.88,18.58-27.11-18.58-27.11-18.58l12.69-27.08Z"/><path class="cls-4" d="M259.25,176.21c12.91-84.86,148.54-86.53,162.62,0,9.27,57-16,106.18-80.23,106.18h-2.16C274.34,282.39,250.58,233.27,259.25,176.21Z"/><path class="cls-4" d="M420.87,187.09s13.73,2.87,14.51,11.63-5.24,15.19-13.56,15.24l-1.54-15.51Z"/><path class="cls-5" d="M430.7,200.49l1.54-.25c-.68-3.61-6.86-4.35-7.13-4.38l-.19,1.44C426.39,197.48,430.3,198.37,430.7,200.49Z"/><path class="cls-5" d="M425.52,206.21c3.44-2.72,3.5-8.57,3.5-8.82h-1.56c0,.05-.06,5.43-3,7.72Z"/><path class="cls-4" d="M258.83,187.4s-12.71,2.57-13.49,11.32,5.24,15.19,13.57,15.24l1.54-15.51Z"/><path class="cls-5" d="M250,200.49c.4-2.12,4.31-3,5.78-3.19l-.19-1.44c-.26,0-6.45.77-7.12,4.38Z"/><path class="cls-5" d="M255.2,206.21l1-1.1c-2.89-2.29-3-7.67-3-7.72H251.7C251.7,197.64,251.75,203.49,255.2,206.21Z"/><ellipse class="cls-6" cx="295.91" cy="200.78" rx="13.84" ry="12.86"/><ellipse class="cls-7" cx="295.91" cy="201.8" rx="8.16" ry="8.46"/><path class="cls-8" d="M306.5,192.5s-2.84-5-10.59-5.91c-8-.89-12,1.5-15.35-1.59,0,0,.86,3.75,4.29,4.63,0,0-5.86-.09-7.74-1.71,0,0,3,6.11,8.73,4a15.85,15.85,0,0,1,10.07-3.21A18.49,18.49,0,0,1,306.5,192.5Z"/><path class="cls-9" d="M370.48,169.38a29.25,29.25,0,0,1,10.32.2c3.4.65,8.27,1.31,13.62,4.8s6.22,4.58,7,5c0,0-9.12-3.47-13.47-3.9s-13.86,0-16.27-.56S369.47,170.45,370.48,169.38Z"/><path class="cls-9" d="M309.45,169.38a29.22,29.22,0,0,0-10.32.2c-3.4.65-8.28,1.31-13.63,4.8s-6.21,4.58-7,5c0,0,9.12-3.47,13.47-3.9s13.85,0,16.27-.56S310.46,170.45,309.45,169.38Z"/><ellipse class="cls-6" cx="383.14" cy="200.78" rx="13.84" ry="12.86"/><ellipse class="cls-7" cx="383.14" cy="201.8" rx="8.16" ry="8.46"/><path class="cls-8" d="M372.55,192.5s2.84-5,10.59-5.91c8-.89,12,1.5,15.35-1.59,0,0-.86,3.75-4.29,4.63,0,0,5.86-.09,7.74-1.71,0,0-3,6.11-8.73,4a15.84,15.84,0,0,0-10.07-3.21A18.48,18.48,0,0,0,372.55,192.5Z"/><path class="cls-5" d="M328.35,230.68c0,2.83,4.9,5.12,10.94,5.12s10.95-2.29,10.95-5.12-4.9-5.12-10.95-5.12S328.35,227.85,328.35,230.68Z"/><path class="cls-10" d="M272.45,221.4c-1.65,6.13,3.81,12.68,12.2,14.63s16.52-1.45,18.17-7.58-3.82-12.68-12.2-14.62S274.1,215.28,272.45,221.4Z"/><path class="cls-10" d="M405.62,221.4c1.65,6.13-3.81,12.68-12.2,14.63s-16.52-1.45-18.17-7.58,3.82-12.68,12.2-14.62S404,215.28,405.62,221.4Z"/><path class="cls-11" d="M315.09,245a146.43,146.43,0,0,0,24.52,2.45A156.37,156.37,0,0,0,364.13,245c7.11-1.53,12.35-1.89,6.24,4.71-5.37,5.79-13.86,15.09-30,15.09h-1.46c-15.78,0-23.49-9.49-29.49-15.91C303.67,242.77,308,243.47,315.09,245Z"/><path class="cls-12" d="M314.64,244.9l.45.1a146.43,146.43,0,0,0,24.52,2.45A156.37,156.37,0,0,0,364.13,245l.54-.11c-.13,1.13-1.88,7.8-25,9.48h-.09C316.65,252.69,314.79,246.08,314.64,244.9Z"/><path class="cls-3" d="M340.63,71C460,71,432,192.42,432,192.42l-8.68-4.5c-28.87-13.54-48.33-41.22-54.07-63,0,16.35.56,24.9,10.92,37.84,0,0-40.85-7.06-57.31-34.81-16.76,21.27-64,59.48-64,59.48l-9.42,4.32S218.18,71,340.63,71Z"/><path class="cls-13" d="M400.89,360l28.62-20.11s-9.44-27.14-29.13-33.71-31.17,0-31.17,0-5.1,6.92-27.1,6.92-28.89-6.92-28.89-6.92-11.48-6.57-31.17,0-33.58,33.71-33.58,33.71L277.11,360,294.31,347l-33.86,81.22h157.1L383.69,347Z"/><path class="cls-14" d="M607.57,482c0-.08,0-.15,0-.23s0-.19,0-.29l-.13-17.28-11.71,0c-33.3-23.92-132.95-41.28-250.71-41.28-120.7,0-222.37,18.24-253.07,43.09l-9.5,0v17.6h.15c4.5,31.6,120.26,56.9,262.42,56.9s257.92-25.31,262.42-56.9h.15Z"/><ellipse class="cls-15" cx="345.01" cy="466.07" rx="262.57" ry="58.81"/><ellipse class="cls-16" cx="466.65" cy="381.97" rx="34.41" ry="7.99"/><path class="cls-17" d="M498.81,386.49c.3-.94,0-2-1.21-3.14l-.12-.1a2.84,2.84,0,0,0-1.08-.94h0c-13-10.08-51.88-3.59-56.21-2.15s-4.85,4.17-4.85,4.17,5.62,79.06,11.14,83.59,35.18,13.07,40.21,0C491.1,456.45,502.31,402.32,498.81,386.49Z"/><path class="cls-16" d="M432.24,382l6.46,100s26.46,8.7,57.12,0l5.25-100S467,397.63,432.24,382Z"/><ellipse class="cls-18" cx="344.18" cy="424.08" rx="78.34" ry="20.56"/><path class="cls-18" d="M344.18,444.64c-34.37,0-63.57-5.81-74.12-13.89h0s9.1,8.23,17.66,11.36,19.49,11.56,56.46,11.56h0c37,0,47.9-8.42,56.47-11.56s17.51-11.23,17.65-11.36C407.73,438.83,378.54,444.64,344.18,444.64Z"/><path class="cls-19" d="M272.22,432.22s14.24-13,72-13,71.87,13,71.87,13-17.66,12.37-71.87,12.37C293.22,444.64,272.22,432.22,272.22,432.22Z"/><path class="cls-20" d="M364.81,275.28c-1.31-3.9-7-5.84-8.31-6.23-1.21-.57-6.75-3-10.34-1-4.13,2.31-6.45,18.54,2,21.81l.5.19C357.12,293.34,366.32,279.76,364.81,275.28Z"/><path class="cls-21" d="M363.82,273.2a18.51,18.51,0,0,0-6.73-4.52,3.44,3.44,0,0,1,1.57-2.75l-.93-1.14c-2,.23-1.93,3.39-1.93,3.39a18.34,18.34,0,0,0-7.65-1,7,7,0,0,0,3.8,1.27,2.89,2.89,0,0,0-2,1.68s4.34,1.27,5.94.21c.46,1.86,4.53,3.84,4.53,3.84a2.89,2.89,0,0,0-.32-2.57A7,7,0,0,0,363.82,273.2Z"/><path class="cls-22" d="M346.85,270.25s-1.51.89-.5,1.28S346.85,270.25,346.85,270.25Z"/><path class="cls-22" d="M350.1,271.5s-1.51.89-.5,1.28S350.1,271.5,350.1,271.5Z"/><path class="cls-22" d="M353.36,272.76s-1.51.89-.5,1.29S353.36,272.76,353.36,272.76Z"/><path class="cls-22" d="M356.61,274s-1.51.89-.5,1.28S356.61,274,356.61,274Z"/><path class="cls-22" d="M359.87,275.28s-1.51.89-.5,1.28S359.87,275.28,359.87,275.28Z"/><path class="cls-22" d="M363.12,276.53s-1.51.89-.5,1.28S363.12,276.53,363.12,276.53Z"/><path class="cls-22" d="M347.73,273.19s-1.51.89-.5,1.28S347.73,273.19,347.73,273.19Z"/><path class="cls-22" d="M351,274.45s-1.51.89-.5,1.28S351,274.45,351,274.45Z"/><path class="cls-22" d="M354.23,275.7s-1.51.89-.5,1.28S354.23,275.7,354.23,275.7Z"/><path class="cls-22" d="M357.49,277s-1.51.89-.5,1.28S357.49,277,357.49,277Z"/><path class="cls-22" d="M360.74,278.22s-1.51.89-.5,1.28S360.74,278.22,360.74,278.22Z"/><path class="cls-22" d="M345.1,274.78s-1.51.89-.5,1.28S345.1,274.78,345.1,274.78Z"/><path class="cls-22" d="M348.35,276s-1.51.89-.5,1.28S348.35,276,348.35,276Z"/><path class="cls-22" d="M351.61,277.29s-1.51.89-.5,1.28S351.61,277.29,351.61,277.29Z"/><path class="cls-22" d="M354.86,278.55s-1.51.89-.5,1.29S354.86,278.55,354.86,278.55Z"/><path class="cls-22" d="M358.12,279.81s-1.51.89-.5,1.28S358.12,279.81,358.12,279.81Z"/><path class="cls-22" d="M361.37,281.07s-1.51.89-.5,1.28S361.37,281.07,361.37,281.07Z"/><path class="cls-22" d="M346,277.72s-1.51.89-.5,1.28S346,277.72,346,277.72Z"/><path class="cls-22" d="M349.23,279s-1.51.89-.5,1.28S349.23,279,349.23,279Z"/><path class="cls-22" d="M352.48,280.24s-1.51.89-.5,1.28S352.48,280.24,352.48,280.24Z"/><path class="cls-22" d="M355.74,281.49s-1.51.89-.5,1.28S355.74,281.49,355.74,281.49Z"/><path class="cls-22" d="M359,282.75s-1.51.89-.5,1.28S359,282.75,359,282.75Z"/><path class="cls-22" d="M346.6,280.57s-1.51.89-.5,1.28S346.6,280.57,346.6,280.57Z"/><path class="cls-22" d="M349.85,281.83s-1.51.89-.5,1.28S349.85,281.83,349.85,281.83Z"/><path class="cls-22" d="M353.11,283.08s-1.52.89-.5,1.28S353.11,283.08,353.11,283.08Z"/><path class="cls-22" d="M356.36,284.34s-1.51.89-.5,1.29S356.36,284.34,356.36,284.34Z"/><path class="cls-22" d="M347.48,283.51s-1.51.89-.5,1.28S347.48,283.51,347.48,283.51Z"/><path class="cls-22" d="M350.73,284.77s-1.51.89-.5,1.29S350.73,284.77,350.73,284.77Z"/><path class="cls-22" d="M354,286s-1.51.89-.5,1.28S354,286,354,286Z"/><path class="cls-22" d="M348.1,286.36s-1.51.89-.5,1.28S348.1,286.36,348.1,286.36Z"/><path class="cls-22" d="M351.36,287.62s-1.51.89-.5,1.28S351.36,287.62,351.36,287.62Z"/><path class="cls-20" d="M365.89,416.16c-3.75,1.7-5.08,7.59-5.33,8.91-.44,1.27-2.27,7,.1,10.38,2.73,3.87,19.11,4.49,21.48-4.25l.14-.52C384.65,421.94,370.19,414.2,365.89,416.16Z"/><path class="cls-21" d="M363.92,417.36a18.52,18.52,0,0,0-3.8,7.16,3.44,3.44,0,0,1-2.89-1.27l-1,1c.43,2,3.57,1.56,3.57,1.56a18.36,18.36,0,0,0-.24,7.72,7,7,0,0,0,.87-3.92,2.89,2.89,0,0,0,1.88,1.78s.82-4.45-.41-5.93c1.8-.65,3.35-4.91,3.35-4.91a2.89,2.89,0,0,0-2.52.59A7,7,0,0,0,363.92,417.36Z"/><path class="cls-22" d="M362.74,434.55s1,1.41,1.33.36S362.74,434.55,362.74,434.55Z"/><path class="cls-22" d="M363.66,431.18s1,1.41,1.33.36S363.66,431.18,363.66,431.18Z"/><path class="cls-22" d="M364.57,427.81s1,1.41,1.33.36S364.57,427.81,364.57,427.81Z"/><path class="cls-22" d="M365.48,424.44s1,1.41,1.33.36S365.48,424.44,365.48,424.44Z"/><path class="cls-22" d="M366.4,421.08s1,1.41,1.33.36S366.4,421.08,366.4,421.08Z"/><path class="cls-22" d="M367.31,417.71s1,1.41,1.33.36S367.31,417.71,367.31,417.71Z"/><path class="cls-22" d="M365.58,433.37s1,1.41,1.33.36S365.58,433.37,365.58,433.37Z"/><path class="cls-22" d="M366.49,430s1,1.41,1.33.36S366.49,430,366.49,430Z"/><path class="cls-22" d="M367.41,426.64s1,1.41,1.33.36S367.41,426.64,367.41,426.64Z"/><path class="cls-22" d="M368.32,423.27s1,1.41,1.33.36S368.32,423.27,368.32,423.27Z"/><path class="cls-22" d="M369.23,419.9s1,1.41,1.33.36S369.23,419.9,369.23,419.9Z"/><path class="cls-22" d="M367.44,435.82s1,1.41,1.33.36S367.44,435.82,367.44,435.82Z"/><path class="cls-22" d="M368.35,432.45s1,1.41,1.33.36S368.35,432.45,368.35,432.45Z"/><path class="cls-22" d="M369.26,429.08s1,1.41,1.33.36S369.26,429.08,369.26,429.08Z"/><path class="cls-22" d="M370.17,425.72s1,1.41,1.33.36S370.17,425.72,370.17,425.72Z"/><path class="cls-22" d="M371.09,422.35s1,1.41,1.33.36S371.09,422.35,371.09,422.35Z"/><path class="cls-22" d="M372,419s1,1.41,1.33.36S372,419,372,419Z"/><path class="cls-22" d="M370.27,434.64s1,1.41,1.33.36S370.27,434.64,370.27,434.64Z"/><path class="cls-22" d="M371.18,431.27s1,1.41,1.33.36S371.18,431.27,371.18,431.27Z"/><path class="cls-22" d="M372.1,427.91s1,1.41,1.33.36S372.1,427.91,372.1,427.91Z"/><path class="cls-22" d="M373,424.54s1,1.41,1.33.36S373,424.54,373,424.54Z"/><path class="cls-22" d="M373.92,421.17s1,1.41,1.33.36S373.92,421.17,373.92,421.17Z"/><path class="cls-22" d="M373,433.72s1,1.41,1.33.36S373,433.72,373,433.72Z"/><path class="cls-22" d="M374,430.36s1,1.41,1.33.36S374,430.36,374,430.36Z"/><path class="cls-22" d="M374.86,427s1,1.41,1.33.36S374.86,427,374.86,427Z"/><path class="cls-22" d="M375.78,423.62s1,1.41,1.33.36S375.78,423.62,375.78,423.62Z"/><path class="cls-22" d="M375.87,432.55s1,1.41,1.33.36S375.87,432.55,375.87,432.55Z"/><path class="cls-22" d="M376.79,429.18s1,1.41,1.33.36S376.79,429.18,376.79,429.18Z"/><path class="cls-22" d="M377.7,425.81s1,1.41,1.33.36S377.7,425.81,377.7,425.81Z"/><path class="cls-22" d="M378.64,431.63s1,1.41,1.33.36S378.64,431.63,378.64,431.63Z"/><path class="cls-22" d="M379.55,428.26s1,1.41,1.33.36S379.55,428.26,379.55,428.26Z"/><path class="cls-23" d="M356,412.49c-.39-4.4-2.58-7.31-2.39-9.92s2.21-7.15,2.21-7.15a18.56,18.56,0,0,0-2.4,1.16,9.76,9.76,0,0,1-3,.6l-3.2-2.67s.53,5.87-1,8.72-11.48,12.47-19.47,15.4-18.6,4.19-28.5-.76-12.18-6.06-14.44-6.49a21.69,21.69,0,0,1-5.11-2l-1.35.81L274.6,413s1.31,14.34,13.05,21.54,16.15,7.14,26.21,7.35,26.41-3.62,33.56-10.49S356.39,416.9,356,412.49Z"/><path class="cls-24" d="M348.33,393.12a8.72,8.72,0,0,0,1.05-.36c.28-.15,1.68.08,1.85-.15a15,15,0,0,1,2-1.23,7.1,7.1,0,0,0,1-.78c.33-.26.92-.69,1.18-.52a7.62,7.62,0,0,1,.75,3.63c-.15,1.11-.2,1.77-.62,2.18a16.5,16.5,0,0,1-1.91,1.25c-.17.12-3.21.23-3.21.23L348.72,396a1,1,0,0,1-.94-.43,2.93,2.93,0,0,1-.53-1.43l.06-.75Z"/><path class="cls-25" d="M347.17,394.52c0-.2-.13-.93,0-1.07a1.11,1.11,0,0,1,.9-.35,3.6,3.6,0,0,0,1.61,0,5.67,5.67,0,0,1,1.67-.21,2.26,2.26,0,0,0,1.41-.45c.42-.28.86-1,1.12-1.14s.82.27,1,1a12.49,12.49,0,0,1-.14,3.64,3.92,3.92,0,0,1-2.05,1c-.59.1-2.27.31-2.27.31a1.23,1.23,0,0,1-.8-.36,3.16,3.16,0,0,0-1.05-.69c-.43-.22-.68-.19-.77-.61A3.27,3.27,0,0,0,347.17,394.52Z"/><path class="cls-26" d="M349,395.05a.49.49,0,0,1,0-.8c.31-.25.19-.22.9-.31a5.46,5.46,0,0,0,1.38-.44c.62-.21.84,0,1.49-.33s.83-1.14,1.07-.52.49.94.27,1.55a1.4,1.4,0,0,1-1.29,1.07c-.76.09-.59.2-1.31.41a2.31,2.31,0,0,1-1.6,0A5,5,0,0,1,349,395.05Z"/><path class="cls-20" d="M357.09,439.54c1.18-3.95-2.39-8.82-3.21-9.88-.66-1.17-3.8-6.32-7.9-6.75-4.71-.48-15.94,11.46-10.91,19l.3.45C340.41,449.89,355.74,444.08,357.09,439.54Z"/><path class="cls-21" d="M357.47,437.27a18.52,18.52,0,0,0-2.9-7.57,3.45,3.45,0,0,1,2.86-1.34l-.1-1.47c-1.79-1-3.53,1.67-3.53,1.67a18.31,18.31,0,0,0-5.66-5.25,7,7,0,0,0,2.38,3.23,2.89,2.89,0,0,0-2.57.25s2.82,3.54,4.74,3.58c-.69,1.79,1.5,5.75,1.5,5.75a2.89,2.89,0,0,0,1.21-2.29A7,7,0,0,0,357.47,437.27Z"/><path class="cls-22" d="M345.29,425.1s-1.75-.14-1.14.77S345.29,425.1,345.29,425.1Z"/><path class="cls-22" d="M347.23,428s-1.75-.14-1.14.77S347.23,428,347.23,428Z"/><path class="cls-22" d="M349.17,430.9s-1.75-.14-1.15.77S349.17,430.9,349.17,430.9Z"/><path class="cls-22" d="M351.11,433.8s-1.75-.14-1.15.77S351.11,433.8,351.11,433.8Z"/><path class="cls-22" d="M353,436.7s-1.75-.14-1.14.77S353,436.7,353,436.7Z"/><path class="cls-22" d="M355,439.6s-1.75-.14-1.15.77S355,439.6,355,439.6Z"/><path class="cls-22" d="M344.31,428s-1.75-.14-1.14.77S344.31,428,344.31,428Z"/><path class="cls-22" d="M346.25,430.91s-1.75-.14-1.14.77S346.25,430.91,346.25,430.91Z"/><path class="cls-22" d="M348.19,433.81s-1.75-.14-1.14.76S348.19,433.81,348.19,433.81Z"/><path class="cls-22" d="M350.13,436.71s-1.75-.14-1.15.76S350.13,436.71,350.13,436.71Z"/><path class="cls-22" d="M352.07,439.61s-1.75-.14-1.14.77S352.07,439.61,352.07,439.61Z"/><path class="cls-22" d="M341.25,427.8s-1.75-.14-1.14.77S341.25,427.8,341.25,427.8Z"/><path class="cls-22" d="M343.19,430.7s-1.75-.14-1.14.77S343.19,430.7,343.19,430.7Z"/><path class="cls-22" d="M345.13,433.6s-1.75-.14-1.14.77S345.13,433.6,345.13,433.6Z"/><path class="cls-22" d="M347.07,436.5s-1.75-.14-1.14.77S347.07,436.5,347.07,436.5Z"/><path class="cls-22" d="M349,439.4s-1.75-.14-1.14.77S349,439.4,349,439.4Z"/><path class="cls-22" d="M350.95,442.3s-1.75-.14-1.14.77S350.95,442.3,350.95,442.3Z"/><path class="cls-22" d="M340.28,430.71s-1.75-.14-1.15.77S340.28,430.71,340.28,430.71Z"/><path class="cls-22" d="M342.21,433.61s-1.75-.14-1.15.77S342.21,433.61,342.21,433.61Z"/><path class="cls-22" d="M344.15,436.51s-1.75-.14-1.14.76S344.15,436.51,344.15,436.51Z"/><path class="cls-22" d="M346.09,439.41s-1.75-.14-1.15.77S346.09,439.41,346.09,439.41Z"/><path class="cls-22" d="M348,442.31s-1.75-.14-1.14.77S348,442.31,348,442.31Z"/><path class="cls-22" d="M339.15,433.4s-1.75-.14-1.15.77S339.15,433.4,339.15,433.4Z"/><path class="cls-22" d="M341.09,436.3s-1.75-.14-1.14.77S341.09,436.3,341.09,436.3Z"/><path class="cls-22" d="M343,439.2s-1.75-.14-1.14.77S343,439.2,343,439.2Z"/><path class="cls-22" d="M345,442.1s-1.75-.14-1.15.77S345,442.1,345,442.1Z"/><path class="cls-22" d="M338.17,436.31s-1.75-.14-1.15.76S338.17,436.31,338.17,436.31Z"/><path class="cls-22" d="M340.11,439.21s-1.75-.14-1.15.77S340.11,439.21,340.11,439.21Z"/><path class="cls-22" d="M342.05,442.11s-1.75-.14-1.15.77S342.05,442.11,342.05,442.11Z"/><path class="cls-22" d="M337,439s-1.75-.14-1.15.77S337,439,337,439Z"/><path class="cls-22" d="M339,441.9s-1.75-.14-1.15.77S339,441.9,339,441.9Z"/><path class="cls-27" d="M268.68,405.27c5.19,1.35,18.72,5.19,20.58,4.23a6.85,6.85,0,0,1,4.19-.4c13.88,3.47,48.6,9.78,48.6,9.78-1.14,18-47.8,5.28-47.8,5.28-.8-2.87-2.92-3.1-2.92-3.1a6.85,6.85,0,0,1-3.79-1.82c-1.41-1.54-15.44-2.6-20.78-3.12s-18.62,1.57-16.81-8.58h0C251.74,397.38,263.49,403.92,268.68,405.27Z"/><path class="cls-4" d="M271.77,406.09s4.43,2.38,5.49-1.5-10.5-6.87-10.5-6.87-22.4-20-18.8-27.37S268.54,354,268.54,354L254,343.76s-21.68,12.79-24.75,28.33c-1.94,9.8,21.83,26.36,28.24,30.63,1.35,22.49,15,17.79,18.81,13.44S271.77,406.09,271.77,406.09Z"/><path class="cls-27" d="M362.61,298.53c-.29-3.32-3.13-18.38-3.13-18.38l-1,.11,1.9,21s0,1.13-1,1.19a1.18,1.18,0,0,1-1.21-.86l-2.73-21-1.1.12S356,300.61,356,301.79s-.91,1.18-.91,1.18h0s-1,.19-1.15-1-2.92-20.93-2.92-20.93l-1.1.12,1.91,21.13a1.17,1.17,0,0,1-1,1.11c-1,.15-1.21-.95-1.21-.95l-2.72-21-1,.11s.51,15.32.94,18.62,1.27,6.46,3.65,8.59,2.91,2.53,3.29,6.65,1.95,28.45,2,32.65-.09,11.13-.25,13.45-1.09,8.4,6.67,7.75h0l.2,0,.21,0h0c7.72-1.06,5.48-6.82,4.83-9s-2.3-9-3.17-13.08-4.62-28.2-5.14-32.3-.09-4.6,1.77-7.2S362.91,301.84,362.61,298.53Z"/><path class="cls-4" d="M421.79,345.35l-10.48,7.36s10.57,26.19,6,26.37-46.75-50.21-46.75-50.21l-.09.06c-.28-2.53-1.48-11.22-4.84-12.11-3.93-1-3.35,8.65-3.35,8.65s-9-6.88-13.41-6.65-7,11.25-3,16.42,18.94,8.53,18.94,8.53h0c12.25,14.58,51.92,61,59.41,55.84C439.5,389,421.79,345.35,421.79,345.35Z"/></svg>