<svg xmlns="http://www.w3.org/2000/svg" viewBox="0 0 128.4 98.9"><defs><style>.cls-2{fill:#ce8002}.cls-3{fill:#f4d9bf}.cls-4{fill:#ad5fdf}.cls-5{fill:#e3bb94}.cls-6{fill:#5bb354}.cls-7{fill:#dbdbdb}.cls-8{fill:#fff}.cls-9{fill:#f2f1f0}.cls-10{fill:#76d9c7}.cls-11,.cls-18,.cls-36,.cls-44{mix-blend-mode:multiply}.cls-12{fill:#fecb27}.cls-14{fill:#f39f00}.cls-15{fill:#006ab0}.cls-17{fill:#004b7f}.cls-18{opacity:.5}.cls-19{fill:#e5e3e1}.cls-20{fill:#e30613}.cls-21{fill:#009a9a}.cls-22{fill:#85d87c}.cls-23{fill:#f687c8}.cls-25{fill:#910613}.cls-26{fill:#c53623}.cls-27{fill:none}.cls-28{fill:#b50613}.cls-29{fill:#037774}.cls-30{fill:#028783}.cls-31{fill:#f6b9c6}.cls-32{fill:#ed6c73}.cls-33{fill:#673121}.cls-35{fill:#f9cbc0}.cls-36{opacity:.4}.cls-37{fill:#733300}.cls-38{fill:#873300}.cls-42{fill:#513300}.cls-43{fill:#cca585}.cls-44{opacity:.7}.cls-45{fill:#b0b6ba}.cls-46{fill:#f2cf81}.cls-47{fill:#d8b46a}.cls-48{fill:#c99c77}</style></defs><g style="isolation:isolate"><g id="Layer_1" data-name="Layer 1"><path class="cls-2" d="M249.2 89.6a27.6 27.6 0 0 0-.6 3c0 .2 2.6.4 2.6.4s1.6-1 1.6-2a3.9 3.9 0 0 0-.6-1.8Z" transform="translate(-139 -44.7)"/><path class="cls-3" d="M261 123a3.8 3.8 0 0 1 .2-2.4 16 16 0 0 1-4.1-1.4c-1.2-.8.6-3.8.6-3.8l-2.7-.7a5.2 5.2 0 0 0-.9 2.3s-.7 4.1 1.6 5a20.6 20.6 0 0 0 4.7 1.2s0 0 0 .1a1 1 0 0 1 .5-.4Z" transform="translate(-139 -44.7)"/><path class="cls-4" d="m261.2 120.6-1.2-.3a11.2 11.2 0 0 0-.9 2.7l1.3.2v.1a1 1 0 0 1 .5-.4 3.8 3.8 0 0 1 .3-2.3Z" transform="translate(-139 -44.7)"/><path class="cls-5" d="M256.9 117.2a9.9 9.9 0 0 1 .8-1.8l-2.7-.7a5 5 0 0 0-.8 2l2.7.5Z" transform="translate(-139 -44.7)"/><path class="cls-6" d="M263.5 120.7a3.5 3.5 0 0 0-.6-.2c-1.4-.3-1.6 0-1.6 0a3.8 3.8 0 0 0-.4 2.4 1 1 0 0 0-.4.4l.7 3.7c.5 2.4 1 3.1 1.8 3.2v-6.7a7.9 7.9 0 0 1 .5-2.8Z" transform="translate(-139 -44.7)"/><path class="cls-7" d="M264.5 124.2c.2-1.9 0-2.8-.5-3.3a23.3 23.3 0 0 0-.5 5v4.2c.8-.7.9-4 1-6Z" transform="translate(-139 -44.7)"/><path class="cls-8" d="M263.5 126a23.3 23.3 0 0 1 .5-5 1.8 1.8 0 0 0-.5-.3 7.9 7.9 0 0 0-.4 2.8v6.7a2 2 0 0 0 .2 0 .5.5 0 0 0 .3-.1v-4.2Z" transform="translate(-139 -44.7)"/><path class="cls-9" d="M239.3 129.7c-3.4-1.7-4.4-3.3-4.6-4.4-.2.9.4 2.3 2.2 3.8 2.7 2.3 6.7 3 7.1 1-.6.4-2 .8-4.7-.4Z" transform="translate(-139 -44.7)"/><path class="cls-3" d="M244.7 126c.8-3.5 2.2-8.2 4.5-11.1l-1.5-1.6s-3.5 3.1-5.6 11.6a2.4 2.4 0 0 0 2.6 1Z" transform="translate(-139 -44.7)"/><path class="cls-5" d="M248.2 116.3a13.7 13.7 0 0 1 1-1.4l-1.5-1.6a9.5 9.5 0 0 0-1.1 1.3l1.6 1.7Z" transform="translate(-139 -44.7)"/><path class="cls-4" d="m242.1 124.9-.2 1a1.1 1.1 0 0 1-1 1.1c-.3.2.6 2 3.3 1.8 0-.8.3-1.8.5-2.9a2.4 2.4 0 0 1-2.6-1Z" transform="translate(-139 -44.7)"/><path class="cls-6" d="M241 127a1.1 1.1 0 0 0 .9-1.2c-.3-.6-.7-.2-1.3-.3-.6-.2-3.8-1.8-5-1.3a1.4 1.4 0 0 0-1 1c.3 1.2 1.3 2.8 4.7 4.5 2.6 1.2 4 .8 4.7.4a1.2 1.2 0 0 0 0-.2c0-.2 0-.6.2-1.1-2.7.2-3.6-1.6-3.3-1.8Z" transform="translate(-139 -44.7)"/><path class="cls-5" d="M256.6 118.4a.6.6 0 0 0 0 .1l.1.2.1.3.2.4v.3l.2.3a2.5 2.5 0 0 1 0 .4 2.7 2.7 0 0 1-.1-.3 1.8 1.8 0 0 1-.2-.3 2.8 2.8 0 0 1-.1-.3l-.1-.2a1.6 1.6 0 0 1 0-.2 1.8 1.8 0 0 1 0-.3 1 1 0 0 1 0-.2.6.6 0 0 1 0-.2Z" transform="translate(-139 -44.7)"/><path class="cls-10" d="M251 106.8s-3.8 3.9-4.5 6c3 3 5.5 4 7.6 4.4l1.3-1.9a16.2 16.2 0 0 0 4.5.6 17.3 17.3 0 0 0 3-8.3c-1.6.3-7 2-12-.8Z" transform="translate(-139 -44.7)"/><g class="cls-11"><path class="cls-10" d="M255.3 115.4a15 15 0 0 0 1.6.3c.2-1.3.7-3.4 1.4-4.2a10.7 10.7 0 0 0-3 4ZM262.8 108.4v-.8c-1.5.3-6.8 2-11.9-.8 0 0-3.7 3.9-4.4 6a21.5 21.5 0 0 0 1.7 1.6 27.4 27.4 0 0 1 3.8-6c5.7 2 9.6.5 10.8 0Z" transform="translate(-139 -44.7)"/></g><path class="cls-12" d="M252.1 109.3a12 12 0 0 0 4.7 1c-.3 2-.7 2.8-1 2.8l-2.6 1.1s-1.8-1.4-2-2.1a12.9 12.9 0 0 1 1-2.8ZM260.2 109.3l-.7 3.2a2 2 0 0 0 2 .4c.5-.2 1.1-2 1.2-3.9a12 12 0 0 1-2.5.3Z" transform="translate(-139 -44.7)"/><path class="cls-6" d="m252.1 109.3.5.7.5.7.3.3.4.4.3.3.4.4.3.3.3.2.3.2.2.2.2.1h-.2l-.3-.2-.3-.2-.3-.2-.4-.3-.3-.3-.4-.4-.3-.3-.3-.4-.3-.4-.2-.3a5.8 5.8 0 0 1-.3-.6v-.2Z" transform="translate(-139 -44.7)"/><path class="cls-6" d="m256.8 110.3-.2.1-.6.3-.8.5a26.4 26.4 0 0 1-2.3 1l-.5.2-.3.1h-.3l-.2.1h.2l.3-.1.3-.2c.1 0 .3 0 .4-.2.1 0 .3 0 .4-.2l1-.4 1-.5.8-.4.6-.2.2-.1ZM260.4 109.3v.1a19 19 0 0 0 .6.7l.3.4.2.3a2.7 2.7 0 0 0 .1.2l.3.4.3.4-.4-.4-.3-.3a4.9 4.9 0 0 1-.4-.5l-.3-.4-.2-.5a2.9 2.9 0 0 1-.2-.3Z" transform="translate(-139 -44.7)"/><path class="cls-6" d="m259.6 112.7.5-.5.5-.5.6-.6.2-.3.3-.3.5-.5.2-.2.1-.2.1-.1v.1l-.2.2-.1.3-.2.3-.2.3-.3.3-.3.3-.3.3-.3.3-.5.4-.6.4Z" transform="translate(-139 -44.7)"/><path d="M255.4 115.3v-.2l.3-.5c0-.3.2-.5.3-.8a8.3 8.3 0 0 1 .6-.8l.2-.3.4-.4.3-.3.3-.2.3-.2a2 2 0 0 1 .2-.1l.2-.1-.2.1a1.9 1.9 0 0 0-.2.2s-.2 0-.2.2l-.3.2-.3.3-.3.4-.3.4-.2.3-.3.4-.4.7-.3.5Z" transform="translate(-139 -44.7)" style="fill:#64bcbc"/><path class="cls-3" d="M241.9 83.2c0-1.7-.3-2.3-1.8-3-.3-.1-1-.5-1.1-.3a.8.8 0 0 0 .4 1c.6.5.7.5.6 1.1a2.6 2.6 0 0 0 .5 1.7 1 1 0 0 1 .1.7s4.5 5.7 8 7.8a22 22 0 0 0 .7-2.6 45.5 45.5 0 0 1-7.4-6.4Z" transform="translate(-139 -44.7)"/><path class="cls-5" d="M249 90.7a8 8 0 0 0 .3-1 45.5 45.5 0 0 1-7.2-6.2 1.9 1.9 0 0 0 .5 1 2 2 0 0 1 .8 1.5l.4 2a38 38 0 0 0 2 2 7.8 7.8 0 0 0 3.3.7ZM254.8 89.6l-.6.4-.5-1.6-2 .8.9 2.2a19.2 19.2 0 0 0 2.2-1.8Z" transform="translate(-139 -44.7)"/><path class="cls-14" d="M234.4 89a10.6 10.6 0 0 1 1.9 2.3l.3-.4a9.8 9.8 0 0 0-1.6-2.4l-.6.4Z" transform="translate(-139 -44.7)"/><path class="cls-3" d="M231.4 91c-1 0-2.3-3-2.3-3l-2.5 1s1.3 4.4 3.8 5c2 .4 3.7-.6 5.9-2.7a10.6 10.6 0 0 0-1.9-2.4c-1.1 1-2.5 2-3 2Z" transform="translate(-139 -44.7)"/><path class="cls-5" d="m229.7 89.3-.6-1.2-2.5.9a12.3 12.3 0 0 0 .5 1.4l2.6-1.1Z" transform="translate(-139 -44.7)"/><path class="cls-7" d="m235.6 88-.6.5a9.8 9.8 0 0 1 1.6 2.4l.7-.6a7 7 0 0 0-1.7-2.3Z" transform="translate(-139 -44.7)"/><path class="cls-14" d="M235.6 88a7 7 0 0 1 1.7 2.3l.4-.4a14 14 0 0 0-1.6-2.4l-.5.5Z" transform="translate(-139 -44.7)"/><path class="cls-7" d="M238.5 88.8c.3-.3-.5-1.3-.9-1.7a.8.8 0 0 0-1 0l-.5.4a14 14 0 0 1 1.6 2.4l.3-.4.5-.7Z" transform="translate(-139 -44.7)"/><path class="cls-14" d="M240 89.9a7 7 0 0 0-1.6.7l.3.6a10.3 10.3 0 0 1 1.9-.7c.4-.2 0-.8-.7-.6ZM240.9 91a4.5 4.5 0 0 0-2 .8l.3.6a5.7 5.7 0 0 1 .8-.4c.7-.3 1.5-.9.9-1Z" transform="translate(-139 -44.7)"/><path class="cls-15" d="M241.2 88.8a7.9 7.9 0 0 0-2.8-3.8 4.7 4.7 0 0 0-1.6 1c-.7.6-.2 1-.2 1a.8.8 0 0 1 1 0c.4.5 1.2 1.5 1 1.8l-.6.7.4 1.1a7 7 0 0 1 1.5-.7c.7-.2 1 .4.7.6a10.3 10.3 0 0 0-2 .7l.3.6a4.5 4.5 0 0 1 2-.8c.6.1-.2.7-1 1a5.7 5.7 0 0 0-.7.4c1 2 2.2 2.4 2.8 1.8a8.7 8.7 0 0 0-.8-5.4Z" transform="translate(-139 -44.7)"/><path class="cls-14" d="M239.8 85.4a1.3 1.3 0 0 0-1.4-.4 7.9 7.9 0 0 1 2.8 3.8 8.7 8.7 0 0 1 .8 5.4 1.8 1.8 0 0 0 .5-1.2 14 14 0 0 0-2.7-7.6Z" transform="translate(-139 -44.7)"/><path class="cls-7" d="M223.7 98.8a6.9 6.9 0 0 1-2.7.5v.1l.4.7a8 8 0 0 0 2.6-.6l-.3-.7Z" transform="translate(-139 -44.7)"/><path class="cls-14" d="M223.4 98.1a4.6 4.6 0 0 1-2.8.4l.4.8a6.9 6.9 0 0 0 2.7-.5l-.3-.7Z" transform="translate(-139 -44.7)"/><path class="cls-3" d="M223.4 98.1a34.2 34.2 0 0 1-2-9l-2.8-.5a35.6 35.6 0 0 0 2 10 4.6 4.6 0 0 0 2.8-.5Z" transform="translate(-139 -44.7)"/><path class="cls-5" d="m221.5 90.8-.1-1.6-2.8-.6.2 2 2.7.2Z" transform="translate(-139 -44.7)"/><path class="cls-14" d="M224 99.5a8 8 0 0 1-2.6.6c0 .3.2.5.3.7a6 6 0 0 0 2.5-.7l-.2-.6Z" transform="translate(-139 -44.7)"/><path class="cls-7" d="M221.7 100.8a2.7 2.7 0 0 1 .4 1.4c.6.2 2.5 0 2.6-.9a53 53 0 0 1-.5-1.2 6 6 0 0 1-2.5.7Z" transform="translate(-139 -44.7)"/><path class="cls-15" d="M225.7 104.3a2.9 2.9 0 0 0-.3-1.6l-.7-1.5a.3.3 0 0 0 0 .1c-.1 1-2 1.1-2.5 1 0 .6-.5 1.5-1.5 3.2-1.2 1.6-1.2 2.4-.8 2.8 1.1 0 3.5-.5 5.8-4Z" transform="translate(-139 -44.7)"/><path class="cls-14" d="M223 105.3c.1-.2-.9-.7-1.6-1.1l-.4.8c.5.2 1.8.6 2 .3ZM222.3 106.1c.1-.2-.7-.6-1.4-1l-.2.4-.2.3c.6.2 1.6.6 1.8.3Z" transform="translate(-139 -44.7)"/><path d="m230.3 84.6-1.3-3-1.9.1a3.7 3.7 0 0 0 3.2 2.9Z" transform="translate(-139 -44.7)" style="fill:#01456b"/><path class="cls-17" d="M230.3 84.6a3.7 3.7 0 0 1-3.2-2.9 41.3 41.3 0 0 1-9-.8s-.4 0-.4.6c0 .5.3.5.3.5a28.7 28.7 0 0 0-1.3 6.8 25.3 25.3 0 0 0 5.7.8l.1-3.8a.7.7 0 0 1 .6.3l2 3.5s4.5-1 6.5-2.2l-1.3-2.8Z" transform="translate(-139 -44.7)"/><g class="cls-18"><path class="cls-17" d="m221.5 86-.4 3.5 1.3.1.1-3.7a26 26 0 0 1-2-1 8.4 8.4 0 0 1 1 1.1ZM230.3 84.6a3.7 3.7 0 0 1-3.2-2.9 41.3 41.3 0 0 1-9-.8s-.4 0-.4.6a1.7 1.7 0 0 0 0 .2 11.2 11.2 0 0 0 5.1.9 13 13 0 0 0 4.5.8 30.4 30.4 0 0 1 2.5 4.8 11 11 0 0 0 1.8-.8l-1.3-2.8Z" transform="translate(-139 -44.7)"/></g><path class="cls-14" d="M219.9 108.3a2.1 2.1 0 0 0 1 .5c.7.3 4.5-1.9 4.8-4.5-2.3 3.5-4.7 4-5.8 4Z" transform="translate(-139 -44.7)"/><path class="cls-2" d="M245.4 95.5c0 .2.5 3.7 3.1 4a4.8 4.8 0 0 0-3.1-4Z" transform="translate(-139 -44.7)"/><path class="cls-14" d="M257.3 91.3a19.5 19.5 0 0 0-2.5-1.7 19.2 19.2 0 0 1-2.2 1.8 14 14 0 0 0-3 1.2l-4.2 2.9a4.8 4.8 0 0 1 3.1 4L252 97s-.2 6.3-1.9 9.6c2.7 2 8.7 2.9 13 1-1-8.2-3.8-14.3-5.8-16.3Z" transform="translate(-139 -44.7)"/><path class="cls-3" d="m214.1 67.9.3-2.2c-5-.5-11.2-.2-13.2 1-1.4-.4-3.3-.4-4.7 2.8-.1.7.1.7.3.6-.2.6-.1 1.1 0 .9 0 .7.5.6.9.2 0 .6.3.6.7-.1.4-.7 1.7-2.3 1.9-1.8.1.6.1 1 .6 1 .4 0 .5-1.6.4-2a45.7 45.7 0 0 1 12.8-.4Z" transform="translate(-139 -44.7)"/><path class="cls-5" d="m213.6 65.6-.1 2.2h.6l.3-2.1h-.8ZM223.1 67.4c.8 0 1.3-.7 1.5-2.3a11.5 11.5 0 0 1-2 0s0 0-.2 0c0 .8 0 2.3.7 2.3Z" transform="translate(-139 -44.7)"/><path class="cls-19" d="M143 131a9 9 0 0 1-.7-4.7h-.4c-.4.2-.5 2.3 1 5.5 1.4 2.8 2.2 3.8 3.1 3.5-.8-.4-1.7-1.6-3-4.4Z" transform="translate(-139 -44.7)"/><path class="cls-9" d="M145.6 131.7a3.6 3.6 0 0 0-1.8.8c.9 1.7 1.5 2.5 2.2 2.8a1 1 0 0 0 .2 0c.2-.1-.3-1.8-.6-3.6Z" transform="translate(-139 -44.7)"/><path class="cls-12" d="M145.4 128.5a11 11 0 0 1-1.1-2.7s-.2 0-.5.1a6.8 6.8 0 0 0 1.6 3.2v-.6Z" transform="translate(-139 -44.7)"/><path class="cls-20" d="M145.4 129a6.8 6.8 0 0 1-1.6-3l-1.5.3a9 9 0 0 0 .7 4.6l.8 1.6a3.6 3.6 0 0 1 1.8-.8 14.2 14.2 0 0 1-.2-2.6Z" transform="translate(-139 -44.7)"/><path class="cls-9" d="M145.5 130.8a.1.1 0 0 1-.1 0 13.1 13.1 0 0 0-1.5-1 .1.1 0 1 1 0-.1 13.4 13.4 0 0 1 1.6.9.1.1 0 0 1 0 .2Z" transform="translate(-139 -44.7)"/><path class="cls-9" d="M144.4 131.2a.1.1 0 0 1-.1-.1 13.5 13.5 0 0 1 .8-1.8.1.1 0 0 1 .2 0 .1.1 0 0 1 0 .1 13.7 13.7 0 0 0-.8 1.8.1.1 0 0 1-.1 0Z" transform="translate(-139 -44.7)"/><path class="cls-3" d="m197 122.2-2.8-1s-1.5 3.4 1.8 15.5a3.2 3.2 0 0 0 2.7 0c-1-3.1-1.7-6.7-1.6-14.5Z" transform="translate(-139 -44.7)"/><path class="cls-5" d="M197 124.5v-2.3l-2.8-1a8.8 8.8 0 0 0-.4 3.1 26.6 26.6 0 0 0 3.3.2Z" transform="translate(-139 -44.7)"/><path class="cls-21" d="m196 136.7.4 1.4 1 2.6s1.6.8 2.5-.4v-.1l-1.2-3.5a3.2 3.2 0 0 1-2.7 0Z" transform="translate(-139 -44.7)"/><path class="cls-7" d="M207 136c-.9-2.7-2.1-3.3-3-3.3a.5.5 0 0 0-.4.2 7.9 7.9 0 0 0 1 4.7c1.4 2.7 2.4 3.9 3.1 4.1.5-.8-.2-3.7-.8-5.7Z" transform="translate(-139 -44.7)"/><path class="cls-3" d="M209.3 130.5c1-1.9 1.6-5.2-1.5-10a8.4 8.4 0 0 0-3.2 1.2 17.4 17.4 0 0 1 2.1 3.7 4.5 4.5 0 0 1 0 3.4 2.5 2.5 0 0 1 2.6 1.7Z" transform="translate(-139 -44.7)"/><path class="cls-5" d="M208.9 122.4a17.6 17.6 0 0 0-1-1.9 8.4 8.4 0 0 0-3.3 1.2 17.1 17.1 0 0 1 1.2 1.7 9.1 9.1 0 0 0 3-1Z" transform="translate(-139 -44.7)"/><path class="cls-21" d="M208 132.4a6 6 0 0 0 1.3-2 2.5 2.5 0 0 0-2.6-1.6 6.8 6.8 0 0 1-1 1.7 3.1 3.1 0 0 1 2.4 2Z" transform="translate(-139 -44.7)"/><path class="cls-12" d="M208 132.5a3.1 3.1 0 0 0-2.3-2 2.4 2.4 0 0 0-2 1.7 1 1 0 0 1 .6 0c1 0 2.9 1.8 3.6 5.5.3 1.8.5 3.3.3 4 .6-.3 1-2.4.8-4.8a17.4 17.4 0 0 0-1-4.4Z" transform="translate(-139 -44.7)"/><path class="cls-9" d="M207.9 137.7c-.7-3.7-2.5-5.4-3.6-5.6a1 1 0 0 0-.6.1 3.8 3.8 0 0 0-.1.7.5.5 0 0 1 .3-.2c1 0 2.2.6 3 3.3.6 2 1.3 4.9.8 5.7a.8.8 0 0 0 .3 0 .4.4 0 0 0 .2 0c.2-.7 0-2.2-.3-4ZM195.1 142a9 9 0 0 1-3.9-2.5c.4 2 2.4 3 5.8 3.9 1.5.4 2.8.5 3.2-.6-.6.4-2 .5-5-.7Z" transform="translate(-139 -44.7)"/><path class="cls-12" d="m197.4 140.7-1-2.6s-5.1-2.4-5.3.6a3.7 3.7 0 0 0 .1.8 9 9 0 0 0 4 2.6c3 1.2 4.4 1.1 5 .7a4.2 4.2 0 0 0-.3-2.5c-.9 1.2-2.5.4-2.5.4Z" transform="translate(-139 -44.7)"/><path class="cls-22" d="M194 138.9c-.2.6 0 .8.4 0a4.9 4.9 0 0 1 1-1.2l-.4-.2a2.3 2.3 0 0 0-1 1.4ZM195 140c.2.2.6-.4.8-1a2 2 0 0 1 .7-.8v-.1l-.6-.3c-.4.5-1.3 1.7-1 2.2ZM208.4 135.9c.1.2.3 0 .5-.2l-.1-.6c-.2.3-.5.6-.4.8ZM207.8 134.6c-.4.2.2 1 .9 0l-.2-.9a4.1 4.1 0 0 1-.7.9Z" transform="translate(-139 -44.7)"/><path class="cls-23" d="m193.4 114.8-3.8 4.9 1.8 1-.2.7a17 17 0 0 0 2.9.7v.5a17.5 17.5 0 0 0 4.6-.2v.5a6.5 6.5 0 0 0 3.5-.8l.2 1s3.2-1.3 3.9-2l.3.5 2.3-1.4.4.5a22.1 22.1 0 0 1 1.8-1.7l-.2-.4 1-1.7a17.5 17.5 0 0 1-3.6-2.3c-2.3.6-8.9 2.5-15 .2Z" transform="translate(-139 -44.7)"/><g class="cls-11"><path class="cls-23" d="m191.4 120.8.1-.3.2-.6.3-.9.3-1 .4-1 .4-.8.2-.6.2-.2-.1.2-.2.6-.3 1a48.5 48.5 0 0 1-.7 1.9l-.4.8c0 .3-.2.5-.3.6ZM194 122l.1-.2v-.7l.2-1 .1-1 .2-1.2.2-1 .1-.7v-.2V116.9l-.1 1-.2 1.1-.1 1.2-.2 1-.2.6v.3ZM198.7 122.4v-1.9a55.7 55.7 0 0 1 0-2.1l.1-1 .1-.6v-.3 4l-.1 1v.6l-.1.3ZM202.2 122.1l-.1-.2-.2-.6-.2-.9-.3-1-.2-1-.2-.9-.1-.6v-.3.3l.2.6.3.8.2 1 .2 1 .2 1 .1.6v.2ZM206.3 121l-.1-.1-.4-.6-.4-.7-.6-1-.4-.9-.5-.8-.2-.5-.1-.3.1.2c0 .2.2.4.4.6l.4.8.5.9.5.9.4.8.3.6.1.2ZM209 120.2l-.2-.2-.3-.5-.5-.7-.5-.9-.5-.9-.4-.7-.2-.6-.1-.2.1.2.3.5.5.7a45.4 45.4 0 0 1 1 1.8l.4.7.2.6.1.2ZM211 118.6l-.2-.1-.3-.4a24.2 24.2 0 0 1-1.9-2.4l-.2-.4-.1-.2.1.1.3.4a24.8 24.8 0 0 1 1.9 2.4l.2.4.1.2Z" transform="translate(-139 -44.7)"/></g><g class="cls-18"><path class="cls-23" d="M197.9 122.6a5.5 5.5 0 0 0 .7-.2l.3-5.3ZM201.6 122.4a4.3 4.3 0 0 0 .5-.3l-1.1-5ZM190.8 120.4l.5.3c1-2 1.9-4.8 1.9-4.8ZM193.5 122h.5c.4-2 .8-5.4.8-5.4ZM205.5 121.6a3.8 3.8 0 0 0 .8-.5l-2.4-4.4ZM208.5 115.5l2 4a6.4 6.4 0 0 1 .6-.5l-.2-.4Z" transform="translate(-139 -44.7)"/><path class="cls-23" d="m69.2 75.9.7-.4.1.1-2.5-4.3 1.7 4.6z"/></g><g class="cls-11"><path class="cls-23" d="M208.8 115a8 8 0 0 1-.5-.4c-2.3.6-8.9 2.5-15 .2l-.6.8c1.7.8 7.7 3 16.1-.6Z" transform="translate(-139 -44.7)"/></g><path class="cls-12" d="m172.1 127.4-.6-.4-1.3 1.5.4.6a4.6 4.6 0 0 0 1.5-1.7Z" transform="translate(-139 -44.7)"/><path class="cls-19" d="M177.6 122c.2 5-3.6 7.9-5.2 8.8 1.8.8 3.4-2 4.4-3.8 1-1.7 1.4-4.3.8-5Z" transform="translate(-139 -44.7)"/><path class="cls-20" d="M174 125.3c-.8 1.1-1.8 2.2-1.9 2.1a4.6 4.6 0 0 1-1.5 1.7 11 11 0 0 0 1.6 1.6 2 2 0 0 0 .2.1 11.7 11.7 0 0 0 4.7-5.5 185 185 0 0 1-2-1.7l-1.2 1.7Z" transform="translate(-139 -44.7)"/><path class="cls-9" d="M177.6 122a.4.4 0 0 0-.3-.2c-.6 0-1.4.8-2.2 1.8l2 1.7a8.7 8.7 0 0 0 .5-3.3ZM173.8 127.1a.1.1 0 0 1-.1-.1 9 9 0 0 1 .3-2 .1.1 0 1 1 .2.1 9 9 0 0 0-.3 2 .1.1 0 0 1-.1 0Z" transform="translate(-139 -44.7)"/><path class="cls-9" d="M173.3 126.3a.1.1 0 0 1-.1 0 .1.1 0 0 1 0-.2 11.2 11.2 0 0 1 2-.3.1.1 0 0 1 0 .2 11 11 0 0 0-1.9.3Z" transform="translate(-139 -44.7)"/><path class="cls-21" d="M146.4 106.8s-.6 3.8 4.6 11.5c.6 1.4.8 2.4.4 2.4-.3 0-7.2 5-7.2 5a8.9 8.9 0 0 0 1.2 2.8c3.4-1 10.5-4.8 11-6 .6-1.3.2-4.3.2-4.3l5.8 3.7c1.8 1.4 4.7 4.7 7 7.2a10.1 10.1 0 0 0 2.5-2.2s-8.3-11-14.7-14.2c.3-.8.7-1.1.6-1.7-1.1 0-5-.6-11.4-4.2Z" transform="translate(-139 -44.7)"/><g class="cls-18"><path class="cls-21" d="M157.7 111.7a1.3 1.3 0 0 0 0-.7c-1 0-4.8-.6-11.3-4.2a4.4 4.4 0 0 0 0 1l5.7 2.6a13.6 13.6 0 0 0 5.6 1.3Z" transform="translate(-139 -44.7)"/></g><path class="cls-5" d="M198 68c1.1.3 2 .3 2-.1.1-.4-.4-.7-1.4-1a5.1 5.1 0 0 0-2 2.6 1 1 0 0 0-.1.5 7.5 7.5 0 0 1 .6-1.3c.7-.2.8-.6.8-.8ZM200.2 69c-.6 0-1.3 1-1.8 1.8a2.1 2.1 0 0 1-.6.8c.1 0 .4 0 .6-.5.4-.7 1.7-2.3 1.9-1.8.1.5.1.9.4 1-.3-.5-.2-1.2-.5-1.2Z" transform="translate(-139 -44.7)"/><path class="cls-3" d="M200.4 69.8a1 1 0 0 1-.9.5c.2.5-.4.6-.4.6s0 .4-.3.4-.3-.3.2-1c.4-.8 1.3-1.7 1.4-.5ZM181.8 64.8s7.4 3.5 14.5 2.3c.6-.8 1-.6 1.7-.3.7.2 1.9.6 2 1 0 .2-.7.6-2.1 0a1 1 0 0 1-.8.8 3 3 0 0 0-.6 1.2c0 .4-.7 0-.8-.9-4.3.5-9 .6-13.6-1.2-.7-1.9-1-3.1-.3-3Z" transform="translate(-139 -44.7)"/><path class="cls-5" d="m182.6 65.1-.8-.3c-.8-.2-.4 1 .3 2.9l1.1.4a16.3 16.3 0 0 0-.6-3Z" transform="translate(-139 -44.7)"/><path class="cls-14" d="M167.6 94.2c-.8 0-1.6.8-1 3.1.6 2 1.7 3.1 2.9 3 .8 0 .6-.9.3-1.7-.6.9-1.3.3-2-.9a10.6 10.6 0 0 0 1.5-.3l-.3-.6c-.4 0-.9 0-1.5.2-.4-1.7-.2-2.5 0-2.8Z" transform="translate(-139 -44.7)"/><path class="cls-3" d="m169.8 98.6-.4-.9-.1-.3a10.6 10.6 0 0 1-1.5.3c.7 1.2 1.4 1.8 2 .9ZM169.2 96.3c2.8-.8 7.6-3.2 7.5-9l-2.8.2s.3 2.7-.9 4c-1.7 1.8-3.4 2.8-5.1 2.7a1.3 1.3 0 0 0-.3 0c-.3.3-.5 1 0 2.8l1.4-.2c-.1-.3 0-.4.2-.5Z" transform="translate(-139 -44.7)"/><path class="cls-5" d="M173.9 89a10.9 10.9 0 0 0 2.7-.3 9.6 9.6 0 0 0 .1-1.5l-2.8.3a9 9 0 0 1 0 1.5Z" transform="translate(-139 -44.7)"/><path class="cls-3" d="M183.7 98.4a13.6 13.6 0 0 0-1.3-.4l-.6 1.8a1.5 1.5 0 0 0 2-1.4Z" transform="translate(-139 -44.7)"/><path class="cls-14" d="M185.9 99.6c-.2-.4-1.1-.9-2.2-1.2a1.5 1.5 0 0 1-1.9 1.4l.6-1.8-.9-.1a13.6 13.6 0 0 0-.5 2c-1.7 0-2.4-.4-2.8-.8a2.4 2.4 0 0 0 0 1.2c.1.8 2.2.9 4.4.6 2.3-.2 3.5-.6 3.3-1.3Z" transform="translate(-139 -44.7)"/><path class="cls-3" d="M181 100a13.6 13.6 0 0 1 .5-2.1h-.2c1.2-3.2 2.6-8 1-13.1l-2.2 1s2 4.2-.5 10a28.3 28.3 0 0 0-1.4 3.3c.4.4 1.1.8 2.8.8Z" transform="translate(-139 -44.7)"/><path class="cls-5" d="M182.7 86.2c0-.5-.2-1-.3-1.4l-2.3 1a7 7 0 0 1 .4 1.4 17 17 0 0 0 2.2-1Z" transform="translate(-139 -44.7)"/><path class="cls-3" d="M169.8 81c-.2-.3-.4-.4-.1-1 .4-.5.4-1 0-1.2-.2-.2-.4.3-.7.9a3.2 3.2 0 0 0-.6 1.6c0 .7-.6.8-.8.2l-4 3.1-2.5 3.8.3 1.3s5.8-4.1 7-6.3a4 4 0 0 0 1.3-.5 1.8 1.8 0 0 0 .1-2Z" transform="translate(-139 -44.7)"/><path class="cls-5" d="m164.3 84-.8.6-2.4 3.8.2.9a8.1 8.1 0 0 0 3-5.3Z" transform="translate(-139 -44.7)"/><path d="M186 84s0 .8-1.4 1.2a6 6 0 0 1-2.2-.1s2.2-1.6 3.7-1Z" transform="translate(-139 -44.7)" style="fill:#8c48c1"/><path class="cls-5" d="M178.2 67.4c1.3.2 1.6-1.2 1.4-2.6a12.4 12.4 0 0 0-2.3 0c0 .8-.2 2.4 1 2.6Z" transform="translate(-139 -44.7)"/><path class="cls-4" d="M185.5 82.6a21.5 21.5 0 0 1-2-7.8 33.5 33.5 0 0 0-2-9.7l-2-.3c.3 1.4 0 2.8-1.3 2.6-1-.2-1-1.8-.9-2.6-2.4.3-2.7 1.5-3.6 3.4a31.9 31.9 0 0 0-1.7 10.7c0 2-.6 4.2-1.4 8.2 2.8 2.2 8.7-.5 12-2 3.3-1.6 3.5-1 3.5-1a6.5 6.5 0 0 0-.6-1.5Z" transform="translate(-139 -44.7)"/><path class="cls-14" d="M182 67.5a.6.6 0 1 1-.5-.6.6.6 0 0 1 .5.6ZM178.5 69.6a.6.6 0 1 1-.6-.6.6.6 0 0 1 .6.6ZM181.9 73a.6.6 0 1 1-.6-.6.6.6 0 0 1 .6.6ZM183.6 83a.6.6 0 1 1-.6-.6.6.6 0 0 1 .6.6ZM177.1 85a.6.6 0 1 1-.6-.6.6.6 0 0 1 .6.6ZM173 84.4a.6.6 0 1 1-.6-.6.6.6 0 0 1 .6.6ZM173.5 76.8a.6.6 0 1 1-.6-.6.6.6 0 0 1 .6.6ZM178.8 75a.6.6 0 1 1-.6-.5.6.6 0 0 1 .6.6ZM183.7 78.6a.6.6 0 1 1-.6-.6.6.6 0 0 1 .6.6ZM180.2 80.5a.6.6 0 1 1-.6-.6.6.6 0 0 1 .6.6ZM175.2 73.8a.6.6 0 1 1-.6-.6.6.6 0 0 1 .6.6ZM175.5 79.2a.6.6 0 1 1-.6-.6.6.6 0 0 1 .6.6Z" transform="translate(-139 -44.7)"/><g class="cls-18"><path class="cls-4" d="M177 66.7a1.8 1.8 0 0 0 3.2-.7 6.4 6.4 0 0 0 1.4-.4l-.1-.5-2-.3c.3 1.4 0 2.8-1.3 2.6-1-.2-1-1.8-.9-2.6-2.4.3-2.7 1.5-3.6 3.4a31.9 31.9 0 0 0-1.7 10.7c0 2-.6 4.2-1.4 8.2 1.8 1.4 4.8.8 7.6-.2a25 25 0 0 0-1.5-7c-2.7-6 .3-13.2.3-13.2Z" transform="translate(-139 -44.7)"/></g><path class="cls-3" d="M175 65.6c-.4.3-3.1 1.5-5.5 12-.2.6-1.5.7-1.8 1.9a5.8 5.8 0 0 0-.1 2c.2.6.7.5.8-.2a3.2 3.2 0 0 1 .6-1.6c.3-.6.5-1.1.8-.9.3.2.3.7-.1 1.3-.3.5-.1.6.1.8a1.8 1.8 0 0 1-.1 2 .6.6 0 0 0 1 .3c.2.4.7 0 .8-.2 0 0 .5.1.8-.6.2-.8-.5-.8-.5-.8s.2-.2-.3-1.5c-.4-1.3.4-4.2 1.2-6.3l1.6-3.6s1.3.4 1.7-2c.3-2.3-.6-2.9-1-2.6Z" transform="translate(-139 -44.7)"/><path class="cls-25" d="M157.6 93.3a10.1 10.1 0 0 0 4.5-3A7.4 7.4 0 0 0 161 88l-4.1 2.1a6.7 6.7 0 0 0 .8 3.2Z" transform="translate(-139 -44.7)"/><path class="cls-3" d="M177.6 101.8a.4.4 0 0 0 0 .4 6.6 6.6 0 0 0 1.5.4l-.2 1.8-1.6-.2a2.3 2.3 0 0 1-3-.3c.8-.3 2.8-2.3 3.3-2Z" transform="translate(-139 -44.7)"/><path class="cls-5" d="M178 102.3h-.4a.4.4 0 0 1 0-.5c-.5-.2-2.5 1.8-3.3 2.1a2.7 2.7 0 0 0 .5.4 5 5 0 0 0 2-1.3c.6-.6.9-.7 1.1-.7Z" transform="translate(-139 -44.7)"/><path class="cls-3" d="M161.8 97.9a40.6 40.6 0 0 0 10.8 3.2c.5 0 .6-.2 1-.5s1.3-1.1 2.1-.7c1 0 2.1.4 2.1.8.6.4.4.5.4.7.3.4 0 .7-.4.4-.5-.2-1.8 1.8-3.3 2-1.5.3-1.4-.6-2.3-.6a31.2 31.2 0 0 1-11.4-3 10.5 10.5 0 0 0 1-2.3Z" transform="translate(-139 -44.7)"/><path class="cls-5" d="m162.8 98.3-1-.4a10.5 10.5 0 0 1-1 2.2l1 .5 1-2.3ZM175.7 101.7a2.3 2.3 0 0 1 .3-.2 3.1 3.1 0 0 1 .4-.3h.2a2.5 2.5 0 0 1 .3-.1 2 2 0 0 1 .2 0 1.4 1.4 0 0 1 .3-.1 1.3 1.3 0 0 1 .2 0 1.5 1.5 0 0 1 .3 0 1.4 1.4 0 0 1 .1.2.4.4 0 0 1 .1 0l.1.2h-.1a.5.5 0 0 0-.1-.1l-.2-.1h-.2a2.1 2.1 0 0 0-.2 0h-.2a1.7 1.7 0 0 0-.3 0 4.5 4.5 0 0 0-.4.2l-.4.2-.4.1ZM175.5 100.8a1.7 1.7 0 0 1 .3-.2 2.4 2.4 0 0 1 .4-.1 2.3 2.3 0 0 1 .4-.2h.3a2 2 0 0 1 .2 0 1.3 1.3 0 0 1 .2.1 1.2 1.2 0 0 1 .2 0l.1.2h.1l.1.1h-.2l-.1-.1h-1.3l-.4.1-.3.1ZM174.8 100.6a.9.9 0 0 1 0-.2 1.5 1.5 0 0 1 .4-.3 1 1 0 0 1 .5-.3.5.5 0 0 1 .1 0l-.1.2h-.2l-.2.2-.3.3a2.1 2.1 0 0 1-.2.1ZM199.2 96.9l.3 1.9 2.7-.4V97s-1.3-2.9-3-.1Z" transform="translate(-139 -44.7)"/><path class="cls-22" d="M179 102.1s6.4.9 19.3-2.8c.5-.9 3.1-1.8 4.5-.7 5.3 1.4 23 3.6 23 3.6a6.7 6.7 0 0 1 0 2.9c-5 .6-14 1.1-18.3-.6l1 10.3s-10.5 3.6-16.4-.3c1.1-4.7 2.6-9.4 2.6-9.4s-10.5 2.6-16 0a24.7 24.7 0 0 1 .3-3Z" transform="translate(-139 -44.7)"/><g class="cls-11"><path class="cls-22" d="M192.6 101.6c.2 1 1.5 2.2 2.2.5.7-1.7 3.3-2.3 5-2.5-.5-.2-.2-.9.7-1 1 0 1.8.4 1.1.6-.7.2 4.9.3 6.4 1.7.5.6-.5.7.3 1.4s1.4 1.3 2 .7c.6-.5.8.5 1.2 1 .5.5-.5-2.7 2.3-1.5l-.7-1.1a1.9 1.9 0 0 1 1.6-.7 164 164 0 0 1-11.9-2c-1.4-1.2-4-.3-4.5.6-2.2.7-4.2 1.2-6 1.5a1.2 1.2 0 0 1 .3.8Z" transform="translate(-139 -44.7)"/></g><g class="cls-11"><path class="cls-22" d="M194.7 103.9c-9.3 1.7-14.3.7-16 .2v1c5.5 2.6 16 0 16 0s-1.5 4.7-2.6 9.4a9 9 0 0 0 1.2.7c.5-4.4 2.7-13.3 2.7-13.3a9.2 9.2 0 0 1-1.3 2ZM207.4 103.2l-.6-1.6.7 13.5 1-.3-1-10.3a47.4 47.4 0 0 0 18.3.6 3.7 3.7 0 0 0 .2-1.3c-12 1.5-18.6-.6-18.6-.6Z" transform="translate(-139 -44.7)"/></g><path class="cls-26" d="M193.3 103a10.6 10.6 0 0 0-1.5 5.3 9.8 9.8 0 0 1 1-1.7v1.7l.8-1.9.4 1.7.6-1.9 1 1.8a4.6 4.6 0 0 0-.3-3c-.8-1.6-1.2-2.7-2-2ZM210.6 101.1s.7 3.6 2 4.4a9.9 9.9 0 0 0-.4-2.2 12.6 12.6 0 0 0 1.4 1 4.2 4.2 0 0 1-.5-.9 6.2 6.2 0 0 0 1.6.1c.3 0-1.9-2.7-4-2.4Z" transform="translate(-139 -44.7)"/><path class="cls-26" d="M200.7 78.6s-3.8-1.7-9.4 4.1c-4.7 5.6-1.6 12.7.8 14.8a3 3 0 0 0 1 2 1.6 1.6 0 0 0 0 1.8 1 1 0 0 0 .5 1.5c.7.3 1.2-.5 1.2-1.1a1.4 1.4 0 0 0 .4-1.3s1.8-.8.6-2.1a5.1 5.1 0 0 0 4.5-2.3c1.4 2 4.3 2.2 5.4 2.1 0 1 1.2 1.4 1.7 1.3a.8.8 0 0 0 1.3.7c.2.7.8 1.7 1.8 1.1.7-.5.3-1.6-.7-1.8.3-1.1-.4-1-.7-1a3.6 3.6 0 0 0 0-1.3s4-2.9 2.6-10c-1.5-7.3-8.8-9.2-11-8.5Z" transform="translate(-139 -44.7)"/><g class="cls-11"><path class="cls-26" d="M200.7 78.6a1.6 1.6 0 0 1 .2.2 3.7 3.7 0 0 1 .3.3 3.4 3.4 0 0 1 .3.4 5.1 5.1 0 0 1 .3.5 5.4 5.4 0 0 1 .2.6 5.7 5.7 0 0 1 .2.7v.3l.1.4.1.7a6.5 6.5 0 0 1 0 .7v1.2a4.4 4.4 0 0 1 0 .5 28 28 0 0 1-.2.6v-3a7 7 0 0 0 0-.7l-.1-.4-.1-.3V81l-.2-.4a3.1 3.1 0 0 0 0-.3l-.2-.2a4.8 4.8 0 0 0-.2-.6l-.3-.4a3 3 0 0 0-.2-.3 1.9 1.9 0 0 0-.2-.2ZM201.2 91.5a5.5 5.5 0 0 1 0 .7 7.4 7.4 0 0 1 0 .8 8.4 8.4 0 0 1 0 .8l-.1.5-.1.4a3.6 3.6 0 0 1-.2.3l-.1.4a3.8 3.8 0 0 1-.3.4l-.1.2v-.2l.2-.2v-.3l.2-.3v-.4l.2-.4v-.4a14.9 14.9 0 0 0 .3-1.6v-.5ZM192.1 97.4l.3.2a4.9 4.9 0 0 1 .3.2h.1l.2.2h.2l.1.1.2.1h.1a2.6 2.6 0 0 1 .3.2 2.4 2.4 0 0 1-.3 0 1 1 0 0 1-.1 0h-.2l-.2-.2h-.2l-.2-.1-.1-.2a2 2 0 0 1-.3-.2 1.4 1.4 0 0 1-.1-.2ZM195.2 100.4a.6.6 0 0 1-.2 0 .5.5 0 0 1 0 .1.6.6 0 0 1-.2 0 1.1 1.1 0 0 1-.2.1h-.1a.6.6 0 0 1-.2 0 .8.8 0 0 1-.2 0 1 1 0 0 1-.2-.2 1.1 1.1 0 0 1 .2 0H195.2ZM193.1 99.5H193.4l.2.2h.2v.1a.9.9 0 0 1 .2.1.7.7 0 0 1-.1 0 .6.6 0 0 1-.2 0 .7.7 0 0 1-.1 0 .8.8 0 0 1-.3-.2.5.5 0 0 1-.2-.2ZM194.9 101.6a1 1 0 0 1-.3.2 1.3 1.3 0 0 1-.3.1 1.2 1.2 0 0 1-.2 0 2 2 0 0 1-.2 0 1.3 1.3 0 0 1-.2 0 .7.7 0 0 1-.2 0v-.1h-.1v-.1l-.1-.1a.7.7 0 0 1-.1-.2v-.1.1a1.2 1.2 0 0 0 .2.1l.2.1a.8.8 0 0 0 .2.1 1.2 1.2 0 0 0 .1 0 2.3 2.3 0 0 0 .7 0h.3ZM209.1 97.1a1 1 0 0 1-.1.3 1.8 1.8 0 0 1-.2.2 3.1 3.1 0 0 1-.3.2 2.8 2.8 0 0 1-.3.1 2 2 0 0 1-.2 0 1.6 1.6 0 0 1-.3.1 2 2 0 0 1 .2-.1l.2-.2h.2l.1-.1.3-.2.2-.1.2-.2ZM209 98.3a.7.7 0 0 1 0 .3 1 1 0 0 1-.2.3 1.2 1.2 0 0 1-.3.3 1.5 1.5 0 0 1-.3.1 1.6 1.6 0 0 1-.4 0 1.5 1.5 0 0 1-.2 0h-.1.4l.2-.1.2-.1a2.5 2.5 0 0 0 .3-.2v-.1a1.5 1.5 0 0 0 .2-.1v-.1a1.5 1.5 0 0 0 .3-.3ZM209.2 99.1a.6.6 0 0 1 0 .2 1.2 1.2 0 0 1-.2.4 1.3 1.3 0 0 1-.1.2 1.1 1.1 0 0 1-.1.2.9.9 0 0 1-.2 0 1.2 1.2 0 0 1 0-.1l.1-.2.1-.2.2-.2v-.1a1.8 1.8 0 0 1 .2-.2Z" transform="translate(-139 -44.7)"/><path class="cls-26" d="M209 99.7a1.2 1.2 0 0 0 .2 0 .6.6 0 0 0 .2 0 .4.4 0 0 0 .1-.1l.2-.1a1.2 1.2 0 0 1 .1-.1.5.5 0 0 1 0 .1.5.5 0 0 1-.1.2.5.5 0 0 1-.2.1.5.5 0 0 1-.2 0 .4.4 0 0 1-.2 0 .3.3 0 0 1-.1-.1Z" transform="translate(-139 -44.7)"/></g><g class="cls-18"><path class="cls-27" d="M211.8 87.4a7.4 7.4 0 0 0-.4-1.4 10.4 10.4 0 0 1 .3 1v.4Z" transform="translate(-139 -44.7)"/><path class="cls-26" d="M211.4 86a10.8 10.8 0 0 0-.6-1.5 7.9 7.9 0 0 0 .4 1l.2.5ZM211.8 87.4a12.8 12.8 0 0 1-2.7 9c-1.5 1.6-2 1.9-1.3 1.8.7 0 1.1.3.2.6-1 .2-1.6-.8-1.3-1.6-3.6.6-5.1-2.5-5.5-6.7-.6 5.2-4.1 7.4-5.8 7.4 1 .8.3 1.7-1 1.7s-1.6-1.3-1-1.2c.7 0 1.7 0 .6-.4-4-1.8-5-6.9-5.1-9.4a11.7 11.7 0 0 0 3.2 8.9 3 3 0 0 0 1 2 1.6 1.6 0 0 0 0 1.8 1 1 0 0 0 .5 1.5c.7.3 1.2-.5 1.2-1.1a1.4 1.4 0 0 0 .4-1.3s1.8-.8.6-2.1a5.1 5.1 0 0 0 4.5-2.3c1.4 2 4.3 2.2 5.4 2.1 0 1 1.2 1.4 1.7 1.3a.8.8 0 0 0 1.3.7c.2.7.8 1.7 1.8 1.1.7-.5.3-1.6-.7-1.8.3-1.1-.4-1-.7-1a3.6 3.6 0 0 0 0-1.3s4-2.8 2.7-9.7ZM202.3 83.8c.6-2.4.5-5.4 3-4.5a7.7 7.7 0 0 0-4.6-.7 4.8 4.8 0 0 0-2.7-.1 5 5 0 0 1 4.3 5.3Z" transform="translate(-139 -44.7)"/></g><path class="cls-12" d="M193.8 102.7a16.3 16.3 0 0 0-2.1-.8c-.1 1.2.1 1.9.4 2a6.1 6.1 0 0 0 1.6-.9 7.3 7.3 0 0 0 2 1c.2-1.3.2-1.7 0-1.9a9.4 9.4 0 0 0-2 .6ZM210.6 101a16.4 16.4 0 0 0-2 .6c.5 1 1 1.5 1.3 1.4a6 6 0 0 0 .9-1.7 7.3 7.3 0 0 0 2.1-.3c-.5-1.2-.8-1.5-1-1.6l-1.3 1.6Z" transform="translate(-139 -44.7)"/><g class="cls-11"><path class="cls-22" d="M207.5 104.5a2.7 2.7 0 0 1-.1-.3 5 5 0 0 1-.1-.6 4.9 4.9 0 0 1 0-.7 2.4 2.4 0 0 1 0-.3 2.3 2.3 0 0 1 0 .3 4.9 4.9 0 0 1 .2 1.3 2.5 2.5 0 0 1 0 .3ZM198.3 99.3a.7.7 0 0 1 .2 0 2 2 0 0 1 .3-.2 1.2 1.2 0 0 1 .3 0 .7.7 0 0 1 .2 0 .6.6 0 0 1-.1 0 1.3 1.3 0 0 1-.4.2 1.5 1.5 0 0 1-.1 0 1 1 0 0 1-.2 0 .7.7 0 0 1-.2 0ZM201.3 98.7a1 1 0 0 1 .3-.1 1.7 1.7 0 0 1 .5-.1 1.8 1.8 0 0 1 .2 0 1.2 1.2 0 0 1 .3 0 1.3 1.3 0 0 1 .2.1 1.4 1.4 0 0 1-.2 0h-1.3Z" transform="translate(-139 -44.7)"/></g><path class="cls-3" d="M230.8 102.3c-.6-.2-1.4 0-1.3-.5.2-.6 1.8-.8 2.5-1-2.9-1.4-6.2 2.1-6.2 2.1l-.1 1.4 2.6 1.6c1.4.7 2.7.5 2.8 0 .5.2 1.1 0 1-.4.3 0 1.1 0 1.1-.6 1.5 0 1-.7.9-.8a4.1 4.1 0 0 1-3.3-1.8Z" transform="translate(-139 -44.7)"/><path class="cls-3" d="M234 104.1a2.4 2.4 0 0 0 1.9-.5c5.4-.1 12.4-5 12.4-5a5.2 5.2 0 0 0-2-2.6c-6.7 4.8-11.1 5.1-11.1 5.1a5.3 5.3 0 0 0-3.2-.4c-.7.3-2.3.5-2.5 1.1 0 .4.7.3 1.3.5a4.1 4.1 0 0 0 3.3 1.8Z" transform="translate(-139 -44.7)"/><path class="cls-5" d="m247.4 99 .9-.5a5.2 5.2 0 0 0-2-2.5l-.6.5a5.3 5.3 0 0 1 1.7 2.6ZM235.6 103.3a3.3 3.3 0 0 1-3.2 0c-.8-.5-.7-.9 0-.8-.8-.6-2-.6-2.1-.8-.1-.2.3-.4 1.1-.6a9.3 9.3 0 0 0 1.3-.4 5.4 5.4 0 0 0-.7 0c-.7.3-2.3.5-2.5 1.1 0 .4.7.3 1.3.5a4.1 4.1 0 0 0 3.3 1.8 2.4 2.4 0 0 0 1.8-.5 10.8 10.8 0 0 0 1.5-.2c-1-.2-1.5-.3-1.8-.1Z" transform="translate(-139 -44.7)"/><path class="cls-5" d="M230.7 102.2a1 1 0 0 1 .3 0 1.9 1.9 0 0 1 .4 0 2.4 2.4 0 0 1 .3 0 1.7 1.7 0 0 1 .2.2 1 1 0 0 1 .2.1 1.6 1.6 0 0 1-.3 0h-.2l-.2-.1a3.6 3.6 0 0 1-.5-.1 1.6 1.6 0 0 1-.2-.1ZM230.7 104h.1l.2.1a1.5 1.5 0 0 0 .1.1l.2.1h.2l.5.2a2.2 2.2 0 0 0 .2.1h.3l.2.1h.2a4.3 4.3 0 0 1 .4.2 4.3 4.3 0 0 1-.4 0h-.2a1.9 1.9 0 0 1-.3 0 5 5 0 0 1-.5-.2h-.2a1.4 1.4 0 0 1-.2-.2h-.3l-.1-.2a1 1 0 0 1-.2 0 1 1 0 0 1-.2-.3ZM229.8 104.4l.3.2.4.2.4.2.4.2.4.1a3.7 3.7 0 0 1 .3.2 3.6 3.6 0 0 1-.4 0 3 3 0 0 1-.4-.2 1.4 1.4 0 0 1-.2 0l-.2-.1a3.9 3.9 0 0 1-.7-.5 2.1 2.1 0 0 1-.3-.3ZM229.4 105l.3.1.3.2h.1l.2.1.3.2H230.9a2.3 2.3 0 0 1 .2.2 2.2 2.2 0 0 1-.3 0 .7.7 0 0 1-.1 0h-.2l-.2-.1h-.1l-.2-.2h-.1a2 2 0 0 1-.3-.3 1.2 1.2 0 0 1-.2-.2Z" transform="translate(-139 -44.7)"/><path class="cls-22" d="M153.9 92.6a1 1 0 0 1 0-.1 1.6 1.6 0 0 1 .2-.2 1.5 1.5 0 0 1 .3-.1 1.8 1.8 0 0 1 .3-.2h.1l.2-.1a1.2 1.2 0 0 1 .2 0h.2a2.4 2.4 0 0 1 .4 0 2 2 0 0 1 .4.1 2 2 0 0 1 .4.2 2.6 2.6 0 0 1 .3.1l.3.2a1.6 1.6 0 0 1 .2.2l.1.2.2.1-.2-.1-.2-.1a2.5 2.5 0 0 0-.2-.2l-.3-.1-.3-.2a2.3 2.3 0 0 0-.3-.1 2 2 0 0 0-.4 0 2.3 2.3 0 0 0-.4-.1 2.6 2.6 0 0 0-.3 0h-.4a2.2 2.2 0 0 0-.3.2 2.5 2.5 0 0 0-.2.1 1.9 1.9 0 0 0-.2.1 1.7 1.7 0 0 0-.1.1Z" transform="translate(-139 -44.7)"/><path class="cls-5" d="M154.7 91.5a10 10 0 0 1 2.5.1 7.6 7.6 0 0 0 .3-1.1 11.4 11.4 0 0 1-2.5 0l-.2.7Z" transform="translate(-139 -44.7)"/><path class="cls-28" d="m159.8 95.1-2.1-2.1.2-1a2.4 2.4 0 0 0-.7-.4 10 10 0 0 0-2.5 0v-.4c-1 .3-2.4 1.5-3.7 4.5-1.4 3-2.8 6.2-5.3 11.2 3.8 1.8 8.2 4.3 12.2 4.4a39.3 39.3 0 0 0 1.8-10.2s0 0 .4.1a13.3 13.3 0 0 0 2.2-4.3c-.6 0-1.3-.6-2.5-1.8Z" transform="translate(-139 -44.7)"/><path class="cls-29" d="M149 112.4v.1l.2.3.3.4.2.2.2.2.3.2a3.5 3.5 0 0 0 .3.3l.6.5.7.5.7.6 1.5.9.3.2.4.2.6.4 1 .6.3.2-.4-.2-1-.5-.6-.3-.3-.2-.4-.2-1.5-1-.7-.5-.7-.5-.6-.6-.3-.3-.3-.2-.2-.3-.2-.2-.2-.4-.2-.3ZM155.7 112a2 2 0 0 1 .3 0 4 4 0 0 1 1 .5 2 2 0 0 1 .2.2 2 2 0 0 1-.2 0 4 4 0 0 1-.6-.3 3.8 3.8 0 0 1-.5-.3 2 2 0 0 1-.2-.2Z" transform="translate(-139 -44.7)"/><path class="cls-30" d="M149 111a12.7 12.7 0 0 0 3.6.1c1 2.4 1.4 3.8-.5 4-1.8 0-3-2.6-3.2-4.1ZM146.7 109.6l1.3.6.3 2c.2 1 0 1.3-.4.7l-1.2-3.3Z" transform="translate(-139 -44.7)"/><path class="cls-3" d="M162.7 79.3a4.5 4.5 0 0 1-1.5-3.3 3.7 3.7 0 0 0-1.6-2.5l-.6.5-1.4-.8a5.6 5.6 0 0 1 1 1.4 10.4 10.4 0 0 0-1.6 1.7l-1.2-1 .9 1.3a3 3 0 0 1-1 1 3.5 3.5 0 0 0-1.1 1.3l-1-1.4.5 2a5.7 5.7 0 0 1-2.7 2.5 3.3 3.3 0 0 1-.5-1 15.5 15.5 0 0 0 1.2 6.2c-.7-.6-2.2-.2-1.7 1.9a1.6 1.6 0 0 0 2.7.8 5.6 5.6 0 0 0 1.6.6c2.1.6 6.7-.3 8.4-4 1.8-3.9.5-6.1-.4-7.2Z" transform="translate(-139 -44.7)"/><path class="cls-14" d="M150.4 89c-.5-2 1-2.4 1.7-1.8A15.5 15.5 0 0 1 151 81a3.3 3.3 0 0 0 .5 1 5.7 5.7 0 0 0 2.7-2.5l-.4-2 .9 1.4a3.5 3.5 0 0 1 1-1.3 3 3 0 0 0 1-1l-.8-1.4 1.2 1.1a10.4 10.4 0 0 1 1.6-1.7 5.6 5.6 0 0 0-1-1.4l1.4.8.6-.5 1.4-1.7a5 5 0 0 0-2.5-1 3.8 3.8 0 0 0 1.6-.3v-.8a3.8 3.8 0 0 1-2.7 0c-1-.2-5-2-11.2 2-6.2 3.9-5 8.1-5 8.1l-1.2-.6a2.2 2.2 0 0 0 1 1.7c-1.4.3-1.2 1.4-1.2 1.4s.1-.3 1-.3a5.3 5.3 0 0 0-1.6 5 3.8 3.8 0 0 1 1-1.8 4.9 4.9 0 0 0 2.2 6.1s-.2-.3-.2-1.4c2.6 5 11.4 1.5 12.5.6a5.6 5.6 0 0 1-1.6-.6 1.6 1.6 0 0 1-2.7-.8Z" transform="translate(-139 -44.7)"/><path class="cls-14" d="M155.9 81.8v-.2a4.9 4.9 0 0 1-.1-.5 4 4 0 0 1 0-.7 2.4 2.4 0 0 1 .2-.8 1.4 1.4 0 0 1 .2-.4 1 1 0 0 1 .4-.2 1.1 1.1 0 0 1 .4 0 1.5 1.5 0 0 1 .3 0 1.7 1.7 0 0 1 .3.2 1.8 1.8 0 0 1 .2 0l.2.2h-.2a3 3 0 0 0-.5-.2 1.6 1.6 0 0 0-.3 0 1 1 0 0 0-.3 0 .9.9 0 0 0-.3.2 1.2 1.2 0 0 0-.2.3 2 2 0 0 0-.2.3 3.6 3.6 0 0 0 0 .4 6.5 6.5 0 0 0-.1.7v.5ZM160.2 77.2a1.7 1.7 0 0 1 0-1 .6.6 0 0 1 .3-.4.5.5 0 0 1 .2 0 .6.6 0 0 1 .2 0 1 1 0 0 1 .2.2 2.2 2.2 0 0 0-.2 0 1 1 0 0 0-.2 0 .4.4 0 0 0-.1 0 .4.4 0 0 0-.2.2 1.6 1.6 0 0 0-.1.4v.3l-.1.3Z" transform="translate(-139 -44.7)"/><path class="cls-5" d="M160.9 81H162.2a1.5 1.5 0 0 1 .3 0 .7.7 0 0 1 .3 0 .4.4 0 0 1 .2.3.6.6 0 0 1 0 .3 1 1 0 0 1 0 .2 1.6 1.6 0 0 1-.3.3v.2-.5a1.6 1.6 0 0 0 .1-.2.5.5 0 0 0 0-.2.4.4 0 0 0-.4-.2 1.1 1.1 0 0 0-.2 0h-.8a2 2 0 0 1-.3-.1.8.8 0 0 1-.1 0ZM163 83.9a1 1 0 0 1 0 .2 1.9 1.9 0 0 1-.2.3 2.2 2.2 0 0 1-.2.3h-.2a.8.8 0 0 1-.1.2h-.1a.5.5 0 0 1-.2.1 2 2 0 0 1-.2 0 2.2 2.2 0 0 1 .2 0l.2-.3.2-.2.3-.2.1-.2.2-.2Z" transform="translate(-139 -44.7)"/><path class="cls-8" d="M160.8 85.5a9.4 9.4 0 0 1-3.2.6 7.4 7.4 0 0 0 .1.9c2.4.4 3-.8 3-1.5Z" transform="translate(-139 -44.7)"/><path class="cls-31" d="M161.9 85a6.5 6.5 0 0 1-1.1.5c-.1.7-.7 2-3 1.5a4.8 4.8 0 0 0 .2.7c.6-.2 1.6-.1 1.7 1.3a2 2 0 0 0 .5-.1c1.3-.4 2-2.2 1.7-3.9Z" transform="translate(-139 -44.7)"/><path class="cls-32" d="M158 87.7a1.8 1.8 0 0 0 1.7 1.3c-.1-1.4-1.1-1.5-1.7-1.3Z" transform="translate(-139 -44.7)"/><path class="cls-33" d="M157.6 82.4c.1.3.3.5.5.5.1-.1 0-.5 0-.8-.2-.4-.4-.6-.6-.5-.1 0 0 .4 0 .8Z" transform="translate(-139 -44.7)"/><path class="cls-8" d="M157.7 82s.1.1.2 0v-.2c-.1 0-.2-.1-.2 0v.2Z" transform="translate(-139 -44.7)"/><path class="cls-33" d="M161.5 79.1c.2.4.4.5.6.4 0 0 0-.4-.2-.7-.2-.3-.4-.5-.5-.4l.1.7Z" transform="translate(-139 -44.7)"/><path class="cls-8" d="M161.6 78.7s.1.1.2 0v-.1l-.2-.1v.2Z" transform="translate(-139 -44.7)"/><path class="cls-5" d="M151.3 88.8a.7.7 0 0 1-.1 0 .9.9 0 0 1-.2-.3.4.4 0 0 1 0-.2.3.3 0 0 1 .2-.3h.1a.6.6 0 0 1 .2 0 .9.9 0 0 1 .2 0 1.8 1.8 0 0 1 .7.6 1.6 1.6 0 0 1 .2.3v.1a16.2 16.2 0 0 1-.6-.5 2 2 0 0 0-.4-.2.7.7 0 0 0-.2-.1h-.1a.1.1 0 0 0-.1.1.3.3 0 0 0 0 .1 1.3 1.3 0 0 0 0 .3v.1Z" transform="translate(-139 -44.7)"/><path class="cls-5" d="M152.2 88.5a.1.1 0 0 0-.1 0 .2.2 0 0 1 0 .1.2.2 0 0 0-.1.1.3.3 0 0 0 0 .1.5.5 0 0 1 0 .1l-.1.1a.7.7 0 0 1 0 .2.5.5 0 0 1-.1-.1.4.4 0 0 1 0-.2.4.4 0 0 1 0-.2.2.2 0 0 1 0-.2.3.3 0 0 1 .2 0 .1.1 0 0 1 .1 0Z" transform="translate(-139 -44.7)"/><path d="M157.2 70.5a39 39 0 0 0 1.3.3 3.8 3.8 0 0 0 1.6-.3s0 0 0-.4a5.7 5.7 0 0 1-3 .4Z" transform="translate(-139 -44.7)" style="opacity:.5;fill:#f39f00;mix-blend-mode:multiply"/><path class="cls-14" d="m157.2 70.5-.7-.1a4.3 4.3 0 0 0 .7.1Z" transform="translate(-139 -44.7)"/><g class="cls-18"><path class="cls-14" d="m158.2 74.4-1.2 1-2.3-1.6 1.3 2.8a4.7 4.7 0 0 0-1.4 1.3l-1.4-2 .1 3.4c-.6 1.1-.9 1.1-.9 1.1l-.3-1.2v1.3l-.7.7-1.6-2.7a12 12 0 0 0 1.1 7.5c-1.1-.3-2.4 2-.5 4-1.6 1.1-7 .2-8.2-2.2a3 3 0 0 0-.5 2s-2-3.1-.4-5.5c1.4-1.8-.7-.3-1.8 1.9a6.9 6.9 0 0 1 .8-1 4.9 4.9 0 0 0 2.1 6.1s-.2-.3-.2-1.4c2.6 5 11.4 1.5 12.5.6a5.6 5.6 0 0 1-1.6-.6 1.6 1.6 0 0 1-2.7-.8c-.5-2 1-2.5 1.7-2A15.5 15.5 0 0 1 151 81a3.3 3.3 0 0 0 .5 1 5.7 5.7 0 0 0 2.7-2.5l-.4-2 .9 1.4a3.5 3.5 0 0 1 1-1.3 3 3 0 0 0 1-1l-.8-1.4 1.2 1.1a10.4 10.4 0 0 1 1.6-1.7 5.6 5.6 0 0 0-1-1.4l1.4.8.6-.5-3-1.2a14 14 0 0 0 1.6 2.1Z" transform="translate(-139 -44.7)"/></g><path class="cls-35" d="M157.9 83.5c0 .1-.3.4-.7.5-.4.2-.8.2-.8 0s.2-.4.6-.6h.9ZM162.7 79.3c-.3.3-.4.6-.3.7 0 .2.4 0 .7-.2a2.5 2.5 0 0 0-.4-.5Z" transform="translate(-139 -44.7)"/><path class="cls-5" d="M170 82.4a.7.7 0 0 1 0-.1.9.9 0 0 1 .1-.3.6.6 0 0 1 .2-.2.4.4 0 0 1 .2 0 .5.5 0 0 1 .1 0 .5.5 0 0 1 .1 0 .5.5 0 0 1 .3.1.8.8 0 0 1 0 .3 1 1 0 0 1 0 .2 1.1 1.1 0 0 1 0 .5 1 1 0 0 1-.2.2h-.1a1.7 1.7 0 0 0 .1-.3 1.5 1.5 0 0 0 0-.4 1 1 0 0 0 0-.2.6.6 0 0 0 0-.1.4.4 0 0 0-.1-.2.6.6 0 0 0-.1 0 .3.3 0 0 0-.1 0 .4.4 0 0 0-.3.1 1.6 1.6 0 0 0-.1.3 1 1 0 0 0-.1 0Z" transform="translate(-139 -44.7)"/><path class="cls-5" d="M170.9 82a.6.6 0 0 1 .2-.3.6.6 0 0 1 .2 0 .6.6 0 0 1 .2 0h.1a.4.4 0 0 1 .1 0 .5.5 0 0 1 .2.2.8.8 0 0 1 0 .3.9.9 0 0 1 0 .2 1 1 0 0 1 0 .2.9.9 0 0 1-.1.1.8.8 0 0 1-.2.2h-.1a1.2 1.2 0 0 0 .1-.2 1.5 1.5 0 0 0 0-.2l.1-.2a1 1 0 0 0 0-.1.6.6 0 0 0 0-.2.3.3 0 0 0-.1-.1h-.1a.7.7 0 0 0-.2 0 .8.8 0 0 0-.1 0 1.3 1.3 0 0 0-.2 0 .6.6 0 0 0-.1.1ZM174.3 70.2a1.4 1.4 0 0 1 0-.3 2.8 2.8 0 0 1 .1-.3l.2-.3a2.2 2.2 0 0 1 .1-.2l.2-.3a1.9 1.9 0 0 1 .2-.2 2.1 2.1 0 0 1 0 .3l-.2.3-.2.2-.1.3a2.8 2.8 0 0 1-.2.3v.1h-.1Z" transform="translate(-139 -44.7)"/><g class="cls-36"><path class="cls-5" d="M171.5 81.6c-.3-.2-.6.1-.6.1s-.3-.2-.6-.1a2 2 0 0 0-.5-1c-.1-.1 0-.4.2-.6a1.2 1.2 0 0 0 .4-.6 1.8 1.8 0 0 1-.4.4.9.9 0 0 0-.3-1c-.3-.2-.6.2-1.1 1.2-.6 1-.3 1.6-.7 1.6-.1 0-.2 0-.3-.2v.1c.2.6.7.5.8-.2a3.2 3.2 0 0 1 .6-1.6c.3-.6.5-1.1.8-.9.3.2.3.7-.1 1.3-.3.5-.1.6.1.8a1.8 1.8 0 0 1-.1 2 .8.8 0 0 0 .1.3 3.6 3.6 0 0 0 .5-.8c.3-.7.9 0 .4.8a.3.3 0 0 0 .1.1 2.1 2.1 0 0 0 .4-1c.1-.6.8-.3.4.7a.5.5 0 0 0 .3-.1 2.8 2.8 0 0 0 .1-.8c0-.2.2-.2.3-.2 0-.3-.5-.3-.5-.3v-.5c0 .3 0 .5-.3.5Z" transform="translate(-139 -44.7)"/></g><path class="cls-5" d="M197.7 71.2a3.2 3.2 0 0 1 .1-.5 4.4 4.4 0 0 1 .2-.4l.2-.4a8 8 0 0 1 .5-.8 3.6 3.6 0 0 1 .3-.3s0 .2-.2.4l-.2.3-.2.5-.3.4-.2.4-.2.4ZM196.9 70.9a2.6 2.6 0 0 1 0-.4 3.6 3.6 0 0 1 .2-.4l.2-.4a6.6 6.6 0 0 1 .5-.6 2.5 2.5 0 0 1 .2-.2v-.1l-.1.3-.2.4-.2.3-.2.4-.2.3-.2.4ZM196.9 70a1.1 1.1 0 0 1 0-.3 2.3 2.3 0 0 1 0-.2l.2-.3a1.8 1.8 0 0 1 .3-.4 1.4 1.4 0 0 1 .2-.2 1.5 1.5 0 0 1 0 .3 2.2 2.2 0 0 1-.2.2l-.1.2-.2.3v.2l-.2.2ZM199.5 70.3a.3.3 0 0 1 0 .1.3.3 0 0 1-.2 0 .3.3 0 0 1-.1 0 .4.4 0 0 1-.1 0 .3.3 0 0 1-.1-.1.4.4 0 0 1 0-.1h.4v.1h.1ZM199.1 70.9a.3.3 0 0 1-.2 0 .3.3 0 0 1-.2-.1.1.1 0 0 1 0-.1.7.7 0 0 1 .2 0 .5.5 0 0 1 .2.1Z" transform="translate(-139 -44.7)"/><g class="cls-11"><path class="cls-7" d="M203.5 133.8a4.2 4.2 0 0 1 .5 0 9.2 9.2 0 0 1 2.2.4h-.4a9.2 9.2 0 0 1-1.9-.3h-.4ZM203.8 135.3h.4a11.7 11.7 0 0 1 2.6.4h-.5a11.6 11.6 0 0 1-2-.3l-.5-.1ZM204.2 136.6h.4a11.8 11.8 0 0 1 2.6.3h-.5a12.4 12.4 0 0 1-2-.2l-.5-.1ZM204.8 137.9a4.3 4.3 0 0 1 .4 0 9.6 9.6 0 0 1 2.3.4h-.4a10.2 10.2 0 0 1-2-.3l-.3-.1ZM205.3 139a3.8 3.8 0 0 1 .4 0 7.8 7.8 0 0 1 .9 0 7.6 7.6 0 0 1 .8.2 3.6 3.6 0 0 1 .3.1 3.4 3.4 0 0 1-.3 0 7.2 7.2 0 0 1-.9 0 7.8 7.8 0 0 1-.8-.2 3.4 3.4 0 0 1-.4-.2ZM206 140.2a2.2 2.2 0 0 1 .4 0 4.3 4.3 0 0 1 1.2.1 2.1 2.1 0 0 1 .3.1 2 2 0 0 1-.3 0 4 4 0 0 1-.6 0 4 4 0 0 1-.6-.1 2 2 0 0 1-.3-.1Z" transform="translate(-139 -44.7)"/></g><path class="cls-25" d="m154.6 97 .2.2.4.6a10.5 10.5 0 0 0 .7.8l.5.4.2.2.2.2.5.4.5.3.5.3a4.2 4.2 0 0 0 .4.3l.4.2h.3l.3.2h-.3l-.3-.2-.4-.1a4.9 4.9 0 0 1-.5-.2 5.2 5.2 0 0 1-.5-.3l-.5-.3-.5-.4-.3-.2-.2-.2-.4-.5-.4-.4c0-.2-.2-.3-.3-.5a6 6 0 0 1-.3-.6l-.2-.3Z" transform="translate(-139 -44.7)"/><g class="cls-18"><path class="cls-28" d="M154.6 95.7c-.4 1.8.8 2.6 2.6 4.3.5 1.2-.7 6.8-2.3 10.8a12.9 12.9 0 0 0 3 .5 39.3 39.3 0 0 0 1.8-10.2s0 0 .4.1a9.9 9.9 0 0 0 1-1.5l-.2.3a8.6 8.6 0 0 1-6.3-4.3Z" transform="translate(-139 -44.7)"/></g><g class="cls-18"><path class="cls-21" d="M152.3 123.7c-2.4 1.3-5.7 2.9-7.5 3.7a7.5 7.5 0 0 0 .6 1.1c3.4-1 10.5-4.8 11-6 .6-1.2.3-3.8.2-4.2a54 54 0 0 0-3-1.8c1.2 3.8 2.3 5.4-1.3 7.2Z" transform="translate(-139 -44.7)"/></g><path class="cls-37" d="M168.2 54.6s-1.1-.4-2.3 2.2c-1.2 3-3 4-5.3 4a1.5 1.5 0 0 0 1-1s-1.8 1.4-5.1 0c-2.1-.8-2.5-1.7-2.5-1.7s2.9 0 3.9-1a2.4 2.4 0 0 1-1.9-.2c1-.2 1-.4 1-.4a2 2 0 0 1-2.2-1.7c1.3.8 3.4.8 6.3-2.9 3.4-4.1 7-5 9.5-2.3a12.5 12.5 0 0 0-2.4 5Z" transform="translate(-139 -44.7)"/><g class="cls-18"><path class="cls-37" d="M169.4 48.6c.3.4.4 1-.3 1.8-2.2 2-3 2.8-3.4 5.2a6.3 6.3 0 0 1-3.4 4.2 2.2 2.2 0 0 0 .4-2s-3.8 3.4-6.7 1a3.2 3.2 0 0 0 3.5-2.6 5.3 5.3 0 0 1-2.3.7 2.7 2.7 0 0 0 1-1.7s-2.8 1-3.4-.4a2 2 0 0 0 2.3 1.7s-.1.2-1 .4a2.4 2.4 0 0 0 1.8.2c-1 1-3.9 1-3.9 1s.4.9 2.5 1.7c3.3 1.4 5 0 5 0a1.5 1.5 0 0 1-1 1c2.4 0 4.2-1 5.4-4 1.2-2.6 2.3-2.2 2.3-2.2a12.5 12.5 0 0 1 2.4-5 5 5 0 0 0-1.2-1Z" transform="translate(-139 -44.7)"/></g><path class="cls-38" d="M186 50.4Z" transform="translate(-139 -44.7)"/><path class="cls-3" d="M184.6 53.4a17 17 0 0 0 .3 2.7c-1.1 0-2.8-2.7-2.8-2.7a18.5 18.5 0 0 1-1.4 2c-.1 0-.3-.8 0-1.9a9.6 9.6 0 0 1-1.7 1.6 5.2 5.2 0 0 1 0-1.4 10.3 10.3 0 0 1-3.9 2.8 5.5 5.5 0 0 0 .8-1.6 9.6 9.6 0 0 1-3.3 3V57a17.8 17.8 0 0 1-.8 2.7c-1-2.4-2.4-1-2 .5.3 1.5 1.5 1.8 2 1.2a6.2 6.2 0 0 0 1 2.2 9.4 9.4 0 0 0 7.1 2.1c7.6-1.4 7.7-7.3 7.3-10-1 0-2.6-2.3-2.6-2.3Z" transform="translate(-139 -44.7)"/><path class="cls-38" d="m188 55.7-.6-1.6a11.4 11.4 0 0 1 1.5.6 5.4 5.4 0 0 0-2.9-4.3 3.5 3.5 0 0 0 1.7.2c-.5-1-2.8-2.7-4.3-2.4-1-1.5-3.8-1.8-6.8-1.6a9.7 9.7 0 0 0-9 8.4c-.8 6.5 4.6 9 5.3 8.6a6.2 6.2 0 0 1-1.2-2.2c-.4.6-1.6.3-2-1.2-.3-1.5 1.1-2.9 2.1-.5a17.8 17.8 0 0 0 .8-2.7v.8a9.6 9.6 0 0 0 3.3-3 5.5 5.5 0 0 1-.8 1.7 10.3 10.3 0 0 0 4-2.8 5.2 5.2 0 0 0-.1 1.4 9.6 9.6 0 0 0 1.7-1.6c-.3 1.1-.1 2 0 2a18.5 18.5 0 0 0 1.4-2.1s1.7 2.7 2.8 2.7a17 17 0 0 1-.3-2.7s1.7 2.4 2.6 2.4a9.2 9.2 0 0 0-.3-1.3 3 3 0 0 0 1.1 1.2Z" transform="translate(-139 -44.7)"/><path class="cls-5" d="M182.6 60.6a3 3 0 0 1 .4.3 3.5 3.5 0 0 1 .4.3 2.2 2.2 0 0 1 .2.2 1 1 0 0 1 .1.3.4.4 0 0 1 0 .2.4.4 0 0 1 0 .1.6.6 0 0 1-.3.2 1.2 1.2 0 0 1-.5.2 1.3 1.3 0 0 1-.4 0 1 1 0 0 1 0-.1 2.2 2.2 0 0 0 .4 0 2 2 0 0 0 .2-.1 1 1 0 0 0 .2-.1.5.5 0 0 0 .2-.2.5.5 0 0 0 0-.1.7.7 0 0 0-.1-.3l-.2-.2-.3-.4-.3-.3ZM182.5 63.4a1.2 1.2 0 0 1-.2.2 2.2 2.2 0 0 1-.2.2 2.2 2.2 0 0 1-.4 0l-.1.1h-.2a1.7 1.7 0 0 1-.3 0 2 2 0 0 1-.3 0 2 2 0 0 1 .3 0l.3-.1.3-.1.3-.1h.3l.2-.2Z" transform="translate(-139 -44.7)"/><path class="cls-32" d="M181 64a6.2 6.2 0 0 1-2.9-1.1 2.2 2.2 0 0 0 1.3 2 2 2 0 0 0 1.6-1Z" transform="translate(-139 -44.7)"/><path class="cls-38" d="M177.4 58.3a2 2 0 0 1 .1-.6 1.8 1.8 0 0 1 .1-.3 1.8 1.8 0 0 1 .2-.3l.1-.1a1.9 1.9 0 0 1 .2-.1 1.3 1.3 0 0 1 .4-.2 2 2 0 0 1 .2 0h.1a1.4 1.4 0 0 1 .4 0 1.1 1.1 0 0 1 .3.2 1.2 1.2 0 0 1 .3.2 1.4 1.4 0 0 1 .2.4 1 1 0 0 1 0 .2 1.4 1.4 0 0 0 0-.2 1.7 1.7 0 0 0-.3-.3 1.3 1.3 0 0 0-.3-.2 1.2 1.2 0 0 0-.2 0l-.2-.1h-.5a1 1 0 0 0-.3.1l-.1.1-.1.2a2.7 2.7 0 0 0-.2.2l-.2.3a3.5 3.5 0 0 0-.1.4v.1ZM183.4 57.3a.8.8 0 0 1 0-.1 1.1 1.1 0 0 1 .1-.3 1 1 0 0 1 .2-.2 1 1 0 0 1 .2-.2 1 1 0 0 1 .2 0 1.2 1.2 0 0 1 .3 0H184.7a1.2 1.2 0 0 1 .3 0 1.1 1.1 0 0 1 .2.2 1.3 1.3 0 0 1 .1.2 1.1 1.1 0 0 1 .2.3 1 1 0 0 1 0 .1 1.7 1.7 0 0 0-.3-.3 1.9 1.9 0 0 0-.1-.2 1.5 1.5 0 0 0-.2 0 1.2 1.2 0 0 0-.2-.1h-.2a1.1 1.1 0 0 0-.3 0 .9.9 0 0 0-.2 0 1.1 1.1 0 0 0-.2.1 1.2 1.2 0 0 0-.2.2 1.8 1.8 0 0 0-.1.2l-.1.1Z" transform="translate(-139 -44.7)"/><path class="cls-33" d="M179 59.6c0 .3.1.6.3.6.1 0 .2-.3.2-.7 0-.4 0-.7-.2-.7s-.3.4-.3.8Z" transform="translate(-139 -44.7)"/><path class="cls-8" d="m179.3 59.2.1.2V59l-.1.2Z" transform="translate(-139 -44.7)"/><path class="cls-33" d="M184.4 59.3c0 .4.1.7.3.6.1 0 .2-.3.2-.7 0-.4 0-.7-.2-.6-.2 0-.3.3-.3.7Z" transform="translate(-139 -44.7)"/><path class="cls-8" d="M184.7 59s0 .2.1.1v-.4.3Z" transform="translate(-139 -44.7)"/><path class="cls-5" d="M170.4 60.1a1 1 0 0 1 0-.1 1 1 0 0 1 0-.3.4.4 0 0 1 0-.2.3.3 0 0 1 .2-.1h.1a.6.6 0 0 1 .2 0 1 1 0 0 1 .2.2 1.8 1.8 0 0 1 .5.8 2 2 0 0 1 0 .3l-.2-.3c0-.1 0-.2-.2-.3a1.9 1.9 0 0 0-.2-.4.7.7 0 0 0-.2-.1h-.1a.1.1 0 0 0-.2 0 .3.3 0 0 0 0 .1 1.3 1.3 0 0 0 0 .3v.1Z" transform="translate(-139 -44.7)"/><path class="cls-5" d="M171.4 60a.2.2 0 0 0 0 .1.3.3 0 0 0-.1 0l-.1.1-.1.1a.6.6 0 0 1 0 .1l-.2.1a.7.7 0 0 1 0 .2.5.5 0 0 1 0-.2.4.4 0 0 1 0-.1.9.9 0 0 1 0-.1.5.5 0 0 1 0-.1h.1a.2.2 0 0 1 0-.1.3.3 0 0 1 .2 0 .2.2 0 0 1 .1 0 .2.2 0 0 1 .1 0Z" transform="translate(-139 -44.7)"/><path class="cls-27" d="M186 50.4Z" transform="translate(-139 -44.7)"/><path d="M188.9 54.7a5.4 5.4 0 0 0-2.9-4.3 3.5 3.5 0 0 0 1.7.2 1.9 1.9 0 0 0 0-.2 7.8 7.8 0 0 0-3-.8 10.9 10.9 0 0 1 3.1 3.5l-1.6-1.2.8 1.9-2-2.4 1.3 3-3-3.4.5 3.3a8.4 8.4 0 0 1-1.6-2.9 7.3 7.3 0 0 1-1 2.6v-2.2l-1.3 1.6v-2s-1.8 2.5-3 3a7.2 7.2 0 0 0 .8-2.6s-2.3 3.4-4 4.3a7 7 0 0 0 .6-2.6 19.6 19.6 0 0 0-2.6 4.3l-.6-1.5v1.4s-2-.4-1.7 2.6c-1-2-3-8.2 2.7-12.1a10 10 0 0 0-4.4 6.8c-.9 6.5 4.5 9 5.2 8.6a6.2 6.2 0 0 1-1.2-2.2c-.4.6-1.6.3-2-1.2-.3-1.5 1.1-2.9 2.1-.5a17.8 17.8 0 0 0 .8-2.7v.8a9.6 9.6 0 0 0 3.3-3 5.5 5.5 0 0 1-.8 1.7 10.3 10.3 0 0 0 4-2.8 5.2 5.2 0 0 0-.1 1.4 9.6 9.6 0 0 0 1.7-1.6c-.3 1.1-.1 2 0 2a18.5 18.5 0 0 0 1.4-2.1s1.7 2.7 2.8 2.7a17 17 0 0 1-.3-2.7s1.7 2.4 2.6 2.4a9.2 9.2 0 0 0-.3-1.3 3 3 0 0 0 1.1 1.2l-.6-1.6a11.4 11.4 0 0 1 1.5.6Z" transform="translate(-139 -44.7)" style="fill:#873300;opacity:.5;mix-blend-mode:multiply"/><path class="cls-35" d="M178.3 60.4c0 .2-.5.3-1 .2-.6 0-1-.3-1-.5 0-.3.6-.4 1.1-.3.5 0 1 .3 1 .6ZM187 59.9c0 .2-.4.5-1 .6-.4.1-1 0-1-.2s.4-.5.9-.6c.5-.1 1 0 1 .2Z" transform="translate(-139 -44.7)"/><path class="cls-5" d="M175 65.6a1.4 1.4 0 0 1-.1.1c.4.2 1 .8.4 2.3l-1 2.2c.4 0 1.4 0 1.7-2 .3-2.3-.6-2.9-1-2.6Z" transform="translate(-139 -44.7)"/><path d="M216.2 79a2.4 2.4 0 0 0 0 .4c.5.8 1.7.4 1.7.4v-.6a1.7 1.7 0 0 0-1.7-.2Z" transform="translate(-139 -44.7)" style="fill:#035989"/><path class="cls-3" d="m218 79.4-.1-.2V81a10.8 10.8 0 0 0 5 1s-3-1.5-4.8-2.6Z" transform="translate(-139 -44.7)"/><path class="cls-12" d="M221.7 65.2a26 26 0 0 1-7-.4 5.9 5.9 0 0 0-.2 5l4.4.3s.8-3.4 2.8-5Z" transform="translate(-139 -44.7)"/><path class="cls-15" d="M233 70.2a2.1 2.1 0 0 0-1.7.7 3.3 3.3 0 0 0-.9 2.7.6.6 0 0 0 .3 0 3.9 3.9 0 0 0 2.5-3.2l-.1-.2Z" transform="translate(-139 -44.7)"/><path class="cls-12" d="M225.3 65.9a1.5 1.5 0 0 1 1.2-.6 4 4 0 0 0-1.9-.2c-.2 1.6-.7 2.3-1.5 2.3-.6 0-.7-1.5-.7-2.3h-.7c-2 1.6-2.8 5-2.8 5s-2.7 6.4-2.7 9c.4-.3 1-.3 1.9.3l4.9 2.5c2.3 1.1 5.2 1.2 6.2-.2a35.6 35.6 0 0 1-.1-9.7c-3.3-2.8-4.4-5.1-3.8-6.1Z" transform="translate(-139 -44.7)"/><path class="cls-12" d="M226.5 65.3a1.5 1.5 0 0 0-1.2.6c-.6 1 .5 3.3 3.8 6.1a18.8 18.8 0 0 0 1.3 1.6 3.3 3.3 0 0 1 .9-2.7 2.1 2.1 0 0 1 1.8-.7c-1.6-1.5-4.2-4-6.6-4.9Z" transform="translate(-139 -44.7)"/><path class="cls-15" d="M226.2 69a6.2 6.2 0 0 1-1-1.8 9.7 9.7 0 0 0-1-.4 1 1 0 0 1-1 .6c-.4 0-.6-.5-.7-1a13.2 13.2 0 0 0-1.9-.1 8.7 8.7 0 0 0-.8 1.3 13.6 13.6 0 0 1 6.4 1.4ZM220.7 75.6a7.5 7.5 0 0 0-3.6-.6l-.4 1.3c.6 0 2 .1 4.3 1.4 3.8 2 5.3 2.8 8 2.5l-.1-1.3c-2-.2-5.2-2.3-8.2-3.3ZM229 72.2a14 14 0 0 0-9.8-3.2l-.3 1-.1.3a23.1 23.1 0 0 1 10.1 3.2l.2-1.3ZM220.4 79c-2-1.3-3.3-1.4-4-1.3a6.6 6.6 0 0 0-.2 1.3c.4-.2 1-.2 1.9.4l4.9 2.5c2.3 1.1 5.2 1.2 6.2-.2v-.1c-3 .7-5.6-.4-8.8-2.6ZM223.4 74.6l5.4 2.6v-1.9a19.2 19.2 0 0 0-10.6-3.4l-.7 1.7a12.7 12.7 0 0 1 6 1ZM217 65.2l-1.3-.2a7.3 7.3 0 0 0-.3 4.9h1.1a8.5 8.5 0 0 1 .4-4.7ZM219.4 65.3H218a7.3 7.3 0 0 0-.5 4.7h1.2a6.5 6.5 0 0 1 .7-4.7ZM230 67.5l-1.4-1a2.7 2.7 0 0 0-2.3 2.6 14.4 14.4 0 0 0 1 1.3 2.8 2.8 0 0 1 2.7-3Z" transform="translate(-139 -44.7)"/><path class="cls-15" d="M227.5 65.8a8.3 8.3 0 0 0-1-.5 1.5 1.5 0 0 0-1.2.6c-.3.4-.2 1.2.3 2.1a2 2 0 0 1 1.9-2.2ZM232 69.2l-1.2-1a3 3 0 0 0-2.4 3.2l.7.6.6.7a4.6 4.6 0 0 1 .6-2.4 3 3 0 0 1 1.7-1Z" transform="translate(-139 -44.7)"/><path class="cls-3" d="M240.5 83.7a2.6 2.6 0 0 1-.5-1.7c0-.6 0-.6-.6-1a.8.8 0 0 1-.4-1c0-.3.8 0 1.1.3 0-1.3-2.2-3.5-3.8-5.6a43.4 43.4 0 0 0-4.2-4.3s-.9.2-1.4 1.6c0 0 5.4 4.7 7.2 8.8.2.5-1.2 1.7-.2 3.5.5.5 2.1.8 2.3.2h.6a1 1 0 0 0-.1-.8Z" transform="translate(-139 -44.7)"/><path class="cls-5" d="m232.7 71-.6-.6s-.9.2-1.4 1.6l.5.5a3.1 3.1 0 0 1 1.5-1.5ZM240.5 83.6a10.3 10.3 0 0 1-.3-1.8c-.1-.6-1-1-1.2-1.4a1 1 0 0 0 .4.6c.6.4.7.4.6 1a2.6 2.6 0 0 0 .5 1.7 1 1 0 0 1 .1.7s.1 0 .2.1a5.8 5.8 0 0 0-.3-.9Z" transform="translate(-139 -44.7)"/><path d="M221.5 85.4h.1l.2.1.2.1h.2l.2.2a1 1 0 0 1 .1 0 .8.8 0 0 1-.2 0 .6.6 0 0 1-.2 0 1 1 0 0 1-.4 0 .8.8 0 0 1-.1-.2.5.5 0 0 1-.1-.2Z" transform="translate(-139 -44.7)" style="fill:#67696b;mix-blend-mode:multiply"/><path class="cls-3" d="M254.8 84c1.8-.1 1.7-3 .5-3.6a1.2 1.2 0 0 0-1.8.6l-1.9-5.6a19.5 19.5 0 0 0-.6 2.4 5.3 5.3 0 0 1-2.2-2.8s-.2 2.3-.7 2.3c-1.7-.3-2-3-2-3s-.8 2-1 2a2.6 2.6 0 0 1-.3-2.3 9.3 9.3 0 0 0-1.3 7c.5 1.2 0 1.7-.7 2-.7 0-.7.7.4 1.7.6.4.3 3.4 2 4.5 1.8 1 4.4 2.3 9.3-1 .6-1 .4-2.5.3-4.1Z" transform="translate(-139 -44.7)"/><path class="cls-42" d="M264.4 71.8c1.3-.1 1.3-.4 1.3-.6.1-.1-.4-.7-2.2-.4 0-2-.4-2.4-.8-.3-1.3-2.8-8-5.7-15.8-1-1.7-2.3-2.8-3.3-2 .6-2.1-.5-3 0-3.1.3-.1.3 2.1 1.3 2.1 1.3s-2 .8-2 1.7c0 .3 1.5 0 1.5 0s-1.3 1.4-1 1.6c.4.3 2.4-1 2.4-1a2.6 2.6 0 0 0 .3 2.2c.2.2 1-2 1-2s.3 2.8 2 3.1c.5 0 .7-2.3.7-2.3a5.3 5.3 0 0 0 2.2 2.8 19.5 19.5 0 0 1 .6-2.4l2 5.6a1.2 1.2 0 0 1 1.7-.6c1.2.7 1.3 3.5-.5 3.7 0 1.6.3 3-.3 4.1a5.4 5.4 0 0 0-.3 1.1 3.4 3.4 0 0 0 2.6-1.6 2.7 2.7 0 0 1-.9 1.7 6.7 6.7 0 0 0 4.5-2.1c-.3 1 .1 1 .5.9.5-.1 1.6-2.5 1.6-2.5s.2 1.2.6 1.4c.4.1 1-2.3 1-2.3s.2.8.5.8c.4 0 .2-1 .2-1a4.2 4.2 0 0 0 .6-3.6c.8 1 1 1.4 1.2 1.4a5.8 5.8 0 0 0-.4-4.5l1.2 1.1s.9-3.5-3-7.2Z" transform="translate(-139 -44.7)"/><path class="cls-31" d="M244.7 86.9a4.5 4.5 0 0 0 4.1-.9c.1 2.7-2 4.7-4.1.9Z" transform="translate(-139 -44.7)"/><path class="cls-42" d="M244.6 79.9a1.5 1.5 0 0 1 0-.2 2.2 2.2 0 0 1 0-.5 1.7 1.7 0 0 1 .1-.3 1.1 1.1 0 0 1 .3-.3.8.8 0 0 1 .1-.2.6.6 0 0 1 .3 0 .3.3 0 0 1 .1 0 .5.5 0 0 1 .2 0 1 1 0 0 1 .2 0 1.1 1.1 0 0 1 .2.2 1.5 1.5 0 0 1 .1.2 2.5 2.5 0 0 1 .3.3 3 3 0 0 1 .1.3l.2.3a3.2 3.2 0 0 1 .2.6s-.2-.2-.4-.5l-.4-.5-.3-.3a1.5 1.5 0 0 0-.1 0 .9.9 0 0 0-.1-.2 1.2 1.2 0 0 0-.1 0 .6.6 0 0 0-.1 0 .3.3 0 0 0-.3 0 1 1 0 0 0-.2.2 2.8 2.8 0 0 0-.1.3l-.2.4v.2Z" transform="translate(-139 -44.7)"/><path class="cls-33" d="M246 82c.1.5 0 .9-.2.8-.2 0-.4-.4-.4-.9s0-.8.3-.8c.2 0 .3.4.4.9Z" transform="translate(-139 -44.7)"/><path class="cls-8" d="M245.6 81.6v.2l-.2-.2.1-.3.1.3Z" transform="translate(-139 -44.7)"/><path class="cls-5" d="M237.8 81.2s-.9-.5-.7.6c-.5.1-.3.7 0 .9a.6.6 0 0 0 .3.9 3.4 3.4 0 0 1 .4-2.4Z" transform="translate(-139 -44.7)"/><path class="cls-43" d="M237 81.8a.2.2 0 0 1 .1 0 .3.3 0 0 1 .2 0 .3.3 0 0 1 .1 0 .2.2 0 0 1 0 .2h-.1a.7.7 0 0 1-.1 0 .4.4 0 0 1 0-.1.5.5 0 0 1-.1-.1ZM237 82.7a.1.1 0 0 1 .1-.1.2.2 0 0 1 .1 0 .2.2 0 0 1 .1 0 .2.2 0 0 1 0 .2.2.2 0 0 1-.1 0h-.1a.8.8 0 0 0 0-.1Z" transform="translate(-139 -44.7)"/><path class="cls-5" d="m239.1 82.6.1.3v.3l.2.2v.2a1.8 1.8 0 0 0 .1.2 1.7 1.7 0 0 0 .1.2 1.6 1.6 0 0 0 .1.1 1.2 1.2 0 0 0 .1.1l.1.1v.1h.1a1 1 0 0 1-.3 0 .8.8 0 0 1-.1-.2.9.9 0 0 1-.2-.1 1.5 1.5 0 0 1-.2-.4 1.7 1.7 0 0 1 0-.4 1.7 1.7 0 0 1-.1-.4 1.4 1.4 0 0 1 0-.3Z" transform="translate(-139 -44.7)"/><path class="cls-5" d="m238.3 82.5.1.4.1.4a2.2 2.2 0 0 0 .2.4 1.5 1.5 0 0 0 .2.2 1.2 1.2 0 0 0 .1.2.8.8 0 0 0 .2 0 .7.7 0 0 0 .2.2h.2a8 8 0 0 0 .2 0H239.5a1 1 0 0 1-.1 0 .7.7 0 0 1-.2 0 1.2 1.2 0 0 1-.2 0 1 1 0 0 1-.3-.2 1.6 1.6 0 0 1-.1-.2 2.1 2.1 0 0 1-.2-.3 1.6 1.6 0 0 1 0-.2 2 2 0 0 1 0-.5 1.7 1.7 0 0 1 0-.4ZM237.7 83.2l.1.3.2.3a2.8 2.8 0 0 0 .2.3 3.1 3.1 0 0 0 .2.2l.2.2.2.1v.1h.2-.1a1.5 1.5 0 0 1-.4-.1 1.3 1.3 0 0 1-.2-.1 1.4 1.4 0 0 1-.1-.1 1.7 1.7 0 0 1-.3-.4 1.4 1.4 0 0 1 0-.1 1.6 1.6 0 0 1-.2-.4 1 1 0 0 1 0-.3ZM255.5 82a.8.8 0 0 0 0-.1.9.9 0 0 0 0-.3.4.4 0 0 0-.2-.2.3.3 0 0 0-.2 0h-.1a.6.6 0 0 0-.2 0 1 1 0 0 0-.1.3 1.8 1.8 0 0 0-.2.9 1.7 1.7 0 0 0 0 .3v.1-.1l.1-.3.1-.4a2 2 0 0 1 .1-.4.7.7 0 0 1 .2-.2h.1a.1.1 0 0 1 .1 0 .3.3 0 0 1 .1 0 1.3 1.3 0 0 1 .2.3Z" transform="translate(-139 -44.7)"/><path class="cls-5" d="M254.6 82.3a.4.4 0 0 1 .1 0 .4.4 0 0 0 .1 0l.1.1a.6.6 0 0 0 .1 0l.2.2a.5.5 0 0 0 0-.1.5.5 0 0 0 0-.1.8.8 0 0 0 0-.1.6.6 0 0 0-.1 0l-.1-.1a.2.2 0 0 0-.1 0 .3.3 0 0 0-.2 0 .1.1 0 0 0-.1 0Z" transform="translate(-139 -44.7)"/><path class="cls-2" d="m252 97 .3-.4a8.2 8.2 0 0 1 .7-.7 15.2 15.2 0 0 1 .7-.6l.3-.3a4.3 4.3 0 0 1-.3.4l-.2.3-.4.4-.3.3-.4.3a3.3 3.3 0 0 1-.4.3ZM252.3 91.4a1.3 1.3 0 0 1 .4 0 1.7 1.7 0 0 1 .3 0 2 2 0 0 1 .4 0 1.8 1.8 0 0 1 .4.1 1.3 1.3 0 0 1 .1.1 1.1 1.1 0 0 1 .1.1.9.9 0 0 1 .2.2.9.9 0 0 1 0 .1l-.1-.1h-.1l-.2-.1-.1-.1h-.2l-.2-.1a6.8 6.8 0 0 0-.6-.1h-.4Z" transform="translate(-139 -44.7)"/><g class="cls-18"><path class="cls-14" d="M253.3 95.6a3.8 3.8 0 0 0 1-1.9 21 21 0 0 1-6.4 3.9 6 6 0 0 1 .6 1.8L252 97s-.2 6.3-1.9 9.6a9.2 9.2 0 0 0 3.1 1.4 33 33 0 0 0 .1-12.4Z" transform="translate(-139 -44.7)"/></g><g class="cls-44"><path class="cls-45" d="M214 68a5.7 5.7 0 0 0 .5 1.8l4.4.3.6-1.8a52.6 52.6 0 0 1-5.4-.4Z" transform="translate(-139 -44.7)"/></g><g class="cls-44"><path class="cls-45" d="M229 72a18.8 18.8 0 0 0 1.4 1.6 3.8 3.8 0 0 1 .3-1.9 71.3 71.3 0 0 1-5.5-4.7c.3 1.2 1.5 3 3.9 5Z" transform="translate(-139 -44.7)"/></g><g class="cls-11"><path class="cls-45" d="M229 72c-3.2-2.8-4.3-5.1-3.7-6.1a1.5 1.5 0 0 1 1.2-.6 4 4 0 0 0-1.9-.2c-.2 1.6-.7 2.3-1.5 2.3-.6 0-.7-1.5-.7-2.3h-.6c0 1 .2 2.7 1.1 2.9a1.5 1.5 0 0 0 1.7-1 31.3 31.3 0 0 1-.2 15.5c2 .5 4 .3 4.8-.8a35.6 35.6 0 0 1-.1-9.7Z" transform="translate(-139 -44.7)"/></g><g class="cls-36"><path class="cls-42" d="M264.1 74.8c1.8 2.7 1.2 5.4-.5 3.1 1.4 3.2 0 5.7-1.3 2.7 0 3.2-1.4 5.6-2 2.1-.7 3.6-3 4.2-2.3 1.2-.7.8-2.5 1.3-1.7.4a3 3 0 0 0 .7-3.3 3.7 3.7 0 0 1-.2-2.5c-.7 1-1.8 1.4-1.6-.2-1.5 2.2-2.1-2.1-3.3-5.4-1.4 3-2 3-3.1.4-1.6 3.5-2 1.4-1.8-.4-.7.8-2 1.4-1-1-1 1-2.6 1.6-1.7.5a4.8 4.8 0 0 1-2.2.5.9.9 0 0 0-.2.5c0 .3 1.5 0 1.5 0s-1.3 1.4-1 1.6c.4.3 2.4-1 2.4-1a2.6 2.6 0 0 0 .3 2.2c.2.2 1-2 1-2s.3 2.8 2 3.1c.5 0 .7-2.3.7-2.3a5.3 5.3 0 0 0 2.2 2.8 19.5 19.5 0 0 1 .6-2.4l2 5.6a1.2 1.2 0 0 1 1.7-.6c1.2.7 1.3 3.5-.5 3.7 0 1.6.3 3-.3 4.1a5.4 5.4 0 0 0-.3 1.1 3.4 3.4 0 0 0 2.6-1.6 2.7 2.7 0 0 1-.9 1.7 6.7 6.7 0 0 0 4.5-2.1c-.3 1 .1 1 .5.9.5-.1 1.6-2.5 1.6-2.5s.2 1.2.6 1.4c.4.1 1-2.3 1-2.3s.2.8.5.8c.4 0 .2-1 .2-1a4.2 4.2 0 0 0 .6-3.6c.8 1 1 1.4 1.2 1.4a5.8 5.8 0 0 0-.4-4.5l1.2 1.1s.9-3.5-3-7.2c1.7 1.8 2.7 5.3-.3 3Z" transform="translate(-139 -44.7)"/></g><path class="cls-46" d="M234.8 49c.8 0 1.4-.2 1.4-.2a4 4 0 0 0-1.9-.4 2.8 2.8 0 0 0-.5-1.7l-.3 1.6s-.9-3.5-6.7-3.6a14.9 14.9 0 0 0-7.7 1.8c-2.1.9-2.8 1-4.3.3 1.3 1.6 2.3 1.4 2.3 1.4s-3 1-3.7 3.1a13.3 13.3 0 0 1 1.9-.6 4.1 4.1 0 0 0-.8 2.6 11.8 11.8 0 0 1 1-.6s.3 1.3.6 2.6l.1.4s-.5-3.4.8-4.6l2.7-.8a5 5 0 0 0-1.7 2 32 32 0 0 1 8.4-1 3 3 0 0 0-.8.6s3-.5 5-.6a6.3 6.3 0 0 0-1 2s1.5-1 2.2-1.3c.2 3.9.2 5.4 0 6.9.8-1.2 1.5-1.2 2.3-.2.6 1.2-1 4-2.5 2a13.6 13.6 0 0 1-1 1.9s5.2.2 5.5-4.7l.2 1.2s1.6-2.4.4-4.5a10.8 10.8 0 0 1 1 1s.4-4.5-2.9-6.5Z" transform="translate(-139 -44.7)"/><path class="cls-3" d="M234 58.7c-.7-1-1.4-1-2.1.2v-7l-2.3 1.4a6.3 6.3 0 0 1 1-2c-2 .1-5 .6-5 .6a3 3 0 0 1 .8-.6 32 32 0 0 0-8.4 1 5 5 0 0 1 1.7-2s-1 .3-2.7.8c-1.3 1.2-.7 4.6-.7 4.6a3.5 3.5 0 0 1-.3 2.9c-.6 1.3-.6 2.5 1.9 4.7 2.4 2.3 5.7 2.2 8.4 1.5a9.4 9.4 0 0 0 4.2-2.2 13.6 13.6 0 0 0 1.1-1.8c1.5 1.8 3.1-.9 2.5-2.1Z" transform="translate(-139 -44.7)"/><g class="cls-11"><path class="cls-46" d="M235.7 53s1 3 .8 4.5a2 2 0 0 0-1-1.7s0 2.4-.7 3.1a1.8 1.8 0 0 0-1.3-1.6 2.8 2.8 0 0 0 0-2.1 6.7 6.7 0 0 1-.7 2 52.7 52.7 0 0 0 .1-6.8 14 14 0 0 1-2.2 1.5 4.9 4.9 0 0 1 1.7-2 24.5 24.5 0 0 0-5.3 1.3s0-.7 2-1.4c-4 0-9.7 1.8-9.7 1.8a9.4 9.4 0 0 1 3-2.3 13.2 13.2 0 0 0-5.5 1.2 7.5 7.5 0 0 1 2.2-2 10.1 10.1 0 0 0-5.6 2.7v.1a13.3 13.3 0 0 1 1.8-.6 4.1 4.1 0 0 0-.8 2.6 11.8 11.8 0 0 1 1-.6s.3 1.3.6 2.6l.1.4s-.5-3.4.8-4.6l2.7-.8a5 5 0 0 0-1.7 2 32 32 0 0 1 8.4-1 3 3 0 0 0-.8.6s3-.5 5-.6a6.3 6.3 0 0 0-1 2s1.5-1 2.2-1.3c.2 3.9.2 5.4 0 6.9.8-1.2 1.5-1.2 2.3-.2.6 1.2-1 4-2.5 2a13.6 13.6 0 0 1-1 1.9s5.2.2 5.5-4.7l.2 1.2s1.6-2.4.4-4.5a10.8 10.8 0 0 1 1 1s.1-.2.1-.4a3.7 3.7 0 0 0-2.1-2.2Z" transform="translate(-139 -44.7)"/></g><path class="cls-47" d="M217.2 55.3a.8.8 0 0 1 0-.1 1.4 1.4 0 0 1 0-.4 1 1 0 0 1 .2-.2.7.7 0 0 1 .2-.3.6.6 0 0 1 .4 0h.2a1 1 0 0 1 .1 0v.1h.1l.1.1a1 1 0 0 1 .1.2 1 1 0 0 1 .1.1 1.4 1.4 0 0 1 .2.4 1.3 1.3 0 0 1 0 .3 1.4 1.4 0 0 1 0 .4.9.9 0 0 1 0 .1 4.8 4.8 0 0 0-.2-.5 2.9 2.9 0 0 0-.2-.4 1.4 1.4 0 0 0-.2-.2h-.1v-.1h-.1a.3.3 0 0 1-.1-.1.2.2 0 0 0-.2 0 .5.5 0 0 0-.2 0 1.5 1.5 0 0 0-.1.2 3.4 3.4 0 0 0-.2.3l-.1.1ZM222.3 55.9a1.4 1.4 0 0 1 0-.2 1.8 1.8 0 0 1 0-.6 1.5 1.5 0 0 1 .2-.3 1.7 1.7 0 0 1 .1-.2 1.2 1.2 0 0 1 .2-.1 1.2 1.2 0 0 1 .2-.2 1 1 0 0 1 .2 0h.1l.2-.1h.5l.2.1h.1l.1.1a1.1 1.1 0 0 1 .2.2 1.5 1.5 0 0 1 .3.3 1.8 1.8 0 0 1 .1.4 2 2 0 0 1 .1.5 1.4 1.4 0 0 1 0 .2s0 0 0-.2a4.7 4.7 0 0 0-.3-.4 2.2 2.2 0 0 0-.5-.5.8.8 0 0 0-.1-.1.7.7 0 0 0-.2-.1h-.1a.6.6 0 0 0-.1 0h-.5a1 1 0 0 0-.3 0l-.1.2h-.2a2.2 2.2 0 0 0-.1.3 3 3 0 0 0-.3.5v.2Z" transform="translate(-139 -44.7)"/><path class="cls-48" d="M222.1 58.2a2.2 2.2 0 0 1 .2-.6 1.6 1.6 0 0 1 0-.2 1.3 1.3 0 0 1 .2-.3 1 1 0 0 1 .3-.3.7.7 0 0 1 .4 0 .7.7 0 0 1 .2 0 1 1 0 0 1 .2.1 1.1 1.1 0 0 1 .2.3 1.6 1.6 0 0 1 .2.3 2.2 2.2 0 0 1 0 .2 3 3 0 0 1 .2.4v.2-.2a4.6 4.6 0 0 0-.4-.6 2.2 2.2 0 0 0-.1-.2 1.2 1.2 0 0 0-.3-.2.4.4 0 0 0-.2-.1.6.6 0 0 0-.3 0 .9.9 0 0 0-.2.2 1.4 1.4 0 0 0-.2.2 2.3 2.3 0 0 0-.1.3 3.6 3.6 0 0 0-.2.3v.2ZM216.7 57.9a2 2 0 0 1 .2-.5 1.4 1.4 0 0 1 0-.2.9.9 0 0 1 .2-.3.3.3 0 0 1 .5 0 1.2 1.2 0 0 1 .1.2 2.4 2.4 0 0 1 .2.6 4.3 4.3 0 0 1 .1.5 3.5 3.5 0 0 1 0 .5s0-.2-.1-.5l-.1-.5a3.1 3.1 0 0 0-.2-.5.7.7 0 0 0-.1-.1.2.2 0 0 0-.2 0 1.3 1.3 0 0 0-.3.3l-.3.5Z" transform="translate(-139 -44.7)"/><path class="cls-5" d="M219.6 58.9a.3.3 0 0 1 .2.1.4.4 0 0 1 0 .2.4.4 0 0 1 0 .3.5.5 0 0 1-.2.1.7.7 0 0 1-.2.1.8.8 0 0 1-.1 0l.2-.2a.3.3 0 0 0 0-.1.6.6 0 0 0 .1-.1.4.4 0 0 0 0-.2 1 1 0 0 0 0-.2Z" transform="translate(-139 -44.7)"/><path class="cls-5" d="M219.6 60.3v-.1a2.7 2.7 0 0 0-.3-.3.6.6 0 0 0-.4-.2h-.1v.1a.3.3 0 0 0-.1.1.4.4 0 0 0 0 .1.8.8 0 0 0 0 .3 1.4 1.4 0 0 0 0 .2 1.7 1.7 0 0 0 .1.3 1.6 1.6 0 0 0 .1.2 1.2 1.2 0 0 0 .2 0 1 1 0 0 0 0 .2h.2a.7.7 0 0 1-.1 0 .7.7 0 0 1-.2 0 1 1 0 0 1-.2-.2 1.3 1.3 0 0 1-.3-.4 1.5 1.5 0 0 1 0-.3 1 1 0 0 1 0-.3.6.6 0 0 1 0-.3h.1a.4.4 0 0 1 .1-.1.4.4 0 0 1 .2 0 .5.5 0 0 1 .3 0 1 1 0 0 1 .2.2 1.4 1.4 0 0 1 .2.3 1.2 1.2 0 0 1 0 .2ZM218 61.9l.2.1h.1l.1.1.3.2.3.1.2.1a1.7 1.7 0 0 1 .2.1 1.5 1.5 0 0 1-.2 0 1 1 0 0 1-.3 0 1 1 0 0 1-.2 0l-.1-.1a1.5 1.5 0 0 1-.3-.2 1.2 1.2 0 0 1-.2-.2.9.9 0 0 1-.1-.2Z" transform="translate(-139 -44.7)"/><path class="cls-8" d="M224.8 62.5a5.2 5.2 0 0 0-.2-1 5.8 5.8 0 0 1-4.3 1.2c.6.5 2.2 1.1 4.5-.2Z" transform="translate(-139 -44.7)"/><path class="cls-32" d="M222.1 65.2h.3a2.4 2.4 0 0 0 2.2-1.2 1.8 1.8 0 0 0-2.5 1.2Z" transform="translate(-139 -44.7)"/><path class="cls-31" d="M224.8 62.5c-2.3 1.3-3.9.7-4.5.2a8 8 0 0 1-1.3-.2c1 1.9 2 2.6 3.1 2.7a1.8 1.8 0 0 1 2.5-1.2 2.7 2.7 0 0 0 .2-1.5Z" transform="translate(-139 -44.7)"/><path class="cls-3" d="M216.4 57.4s-.4-1.1-1.3-.4c-.7 1-.3 3 .6 2.5a16 16 0 0 0 .7-2Z" transform="translate(-139 -44.7)"/><path class="cls-35" d="M226.6 58.6c0 .3-.4.6-.9.7-.5.1-1 0-1-.2-.1-.2.3-.5.8-.6.5-.1 1 0 1 .1ZM216.2 58.2a4.8 4.8 0 0 0-.3.7h.9c0-.2-.2-.5-.6-.7Z" transform="translate(-139 -44.7)"/><path class="cls-5" d="M215 58.1a.7.7 0 0 1 0-.3.3.3 0 0 1 0-.1.2.2 0 0 1 .3 0 .5.5 0 0 1 .2 0 .7.7 0 0 1 0 .2 1.4 1.4 0 0 1 .2.7 1.6 1.6 0 0 1 0 .3h-.1v-.3a3 3 0 0 0 0-.3 1.5 1.5 0 0 0-.2-.3.6.6 0 0 0 0-.1h-.1v-.1a.1.1 0 0 0-.2 0 1 1 0 0 0-.2.3Z" transform="translate(-139 -44.7)"/><path class="cls-5" d="M215.6 58.4a.2.2 0 0 1-.1 0 .1.1 0 0 0-.1 0 .4.4 0 0 0-.1.1l-.1.1a.6.6 0 0 1-.1 0 .4.4 0 0 1 0-.2.6.6 0 0 1 .1 0h.1a.2.2 0 0 1 .1-.1.2.2 0 0 1 .1 0 .1.1 0 0 1 .1 0v.1ZM233.6 59.6a.8.8 0 0 0 0-.1.9.9 0 0 0 0-.3.4.4 0 0 0 0-.3.3.3 0 0 0-.3 0h-.1a.5.5 0 0 0-.1 0 .9.9 0 0 0-.2.2 1.8 1.8 0 0 0-.4.9 2 2 0 0 0 0 .3 35.2 35.2 0 0 1 .3-.7 2 2 0 0 1 .2-.3.8.8 0 0 1 .2-.2h.1a.1.1 0 0 1 .2 0 1.2 1.2 0 0 1 .1.4Z" transform="translate(-139 -44.7)"/><path class="cls-5" d="M232.7 59.7h.1l.1.1a.6.6 0 0 1 .1.1l.2.2a.8.8 0 0 0 .1 0 .5.5 0 0 0 0-.2.9.9 0 0 0-.1-.1l-.1-.1a.2.2 0 0 0-.1 0 .3.3 0 0 0-.2-.1.1.1 0 0 0-.1 0Z" transform="translate(-139 -44.7)"/><path d="m218 49.1-.9.7a10.5 10.5 0 0 0-.9.7l-.2.2-.2.2-.2.2-.1.2-.2.3a1.5 1.5 0 0 0-.1.2 2.5 2.5 0 0 0-.2.2v.3l-.2-.1.5-.3.3-.2.2-.1.6-.3.6-.2-.6.3-.2.1-.3.2-.3.1-.2.2-.5.4-.3.1.1-.3.1-.2a2.2 2.2 0 0 1 .2-.3 1.7 1.7 0 0 1 .1-.3 2.4 2.4 0 0 1 .2-.2l.2-.2.2-.3.2-.2.2-.2.2-.1.3-.2a13.5 13.5 0 0 1 1.5-.9Z" transform="translate(-139 -44.7)" style="fill:#f2cf81;mix-blend-mode:multiply"/><path class="cls-35" d="M248.5 83.2c.1.3-.4.6-1 .8-.6.1-1.2 0-1.3-.2 0-.3.4-.6 1-.8.7-.1 1.3 0 1.3.2Z" transform="translate(-139 -44.7)"/></g></g></svg>