<?xml version="1.0" encoding="UTF-8"?>
<svg viewBox="0 0 248.48749 205.98181" xmlns="http://www.w3.org/2000/svg" xmlns:xlink="http://www.w3.org/1999/xlink">
 <defs>
  <clipPath id="i">
   <path d="m169.8 39.114c0.12978 0.20757 0.2494 0.41824 0.38922 0.6227 0.2305 0.33707 0.49569 0.66273 0.72135 1.0014 0.58016 0.87063 1.6029 2.5854 2.0504 3.3947 1.2165 2.2003 1.2609 2.4327 2.306 4.7497 2.0777 4.8932 3.3736 9.9262 4.1874 14.988 0.19915 1.2385 0.3485 2.4806 0.52275 3.7208 0.60983 5.1289 1.0369 10.274 0.962 15.422-0.0449 3.09-0.16237 3.9886-0.39981 7.0763-0.3237 4.3758-1.2991 8.7104-2.3793 13.023-0.263 1.05-0.51123 2.1019-0.8092 3.1474-0.31478 1.1044-0.68583 2.2009-1.0288 3.3014-1.6126 5.4624-4.372 10.735-7.8597 15.758-1.7598 2.3627-3.8179 4.6188-6.2397 6.6871-0.76572 0.60533-1.6357 1.139-2.506 1.6706l-24.554-3.3508c0.80528-0.39889 1.6021-0.8054 2.3858-1.2242 0.31314-0.17036 0.64846-0.32308 0.9394-0.5111 0.77947-0.50374 1.2694-1.002 1.8931-1.6046 1.1381-1.0994 2.1742-2.2442 3.1755-3.4043 1.0497-1.3954 1.5633-2.0165 2.4757-3.5063 0.4824-0.78769 0.91526-1.5893 1.3581-2.3879 1.6151-2.9126 3.1198-5.8592 3.9255-8.9379 0.33983-1.0511 0.71192-2.0975 1.0195-3.1533 0.30161-1.0354 0.54336-2.0785 0.80762-3.1187 1.0592-4.1692 2.0502-8.3579 2.364-12.591 0.23648-2.9968 0.35275-3.8623 0.39811-6.8614 0.076-5.0296-0.35298-10.057-0.95631-15.067-0.1729-1.2029-0.32064-2.4077-0.5187-3.6088-0.79746-4.8363-2.0726-9.6437-4.1398-14.304-0.37189-0.78088-0.71923-1.5675-1.1157-2.3426-1.2208-2.3869-2.7553-4.6845-4.2986-6.9784-0.44443-3.3567 24.403-5.5525 24.924-1.6111z"/>
  </clipPath>
  <clipPath id="g">
   <path d="m26.797 128.55h0.0312c50.867-1.0315 110.46 34.799 135.56 55.25 54.413 62.016 72.096 113.93 83.375 178.75 1.9102 20.326 10.258 65.255 1.5312 134.59 0.0272 0.22553 0.0665 0.42993 0.0937 0.65625 16.532-64.379 13.308-111.34 15.906-134.28 2.04-16.081-4.6283-46.09-3.41-62.301-21.011-97.423-23.573-96.713-74.781-153.82-26.067-21.241-64.238-44.94-116.3-40.828 0.3305 17.756-29.482 9.0131-42.008 21.981z" fill-rule="evenodd"/>
  </clipPath>
  <clipPath id="h">
   <path d="m282.4 353.2c32.256 18.617 12.417 43.54 35.376 76.804 18.769 39.503 24.255 72.02 32.096 137.04 8.798-69.535 0.40743-114.58-1.506-134.94-11.279-64.821-28.942-116.73-83.355-178.75-26.067-21.241-89.367-59.101-141.43-54.99 22.695 5.0334 5.5919 23.156 22.899 42.667 54.679 39.939 107.38 46.986 135.92 112.17z" fill-rule="evenodd"/>
  </clipPath>
  <filter id="e">
   <feGaussianBlur stdDeviation="8.89452"/>
  </filter>
  <filter id="f" x="-.2143" y="-.08736" width="1.4286" height="1.1747">
   <feGaussianBlur stdDeviation="3.69558"/>
  </filter>
  <filter id="d" x="-.16055" y="-.0958" width="1.3211" height="1.1916">
   <feGaussianBlur stdDeviation="15.86553"/>
  </filter>
  <linearGradient id="a">
   <stop stop-color="#ffbc00" offset="0"/>
   <stop stop-color="#c40059" offset="1"/>
  </linearGradient>
  <radialGradient id="b" cx="128.83" cy="182.21" r="79.971" gradientTransform="matrix(1.9308 1.179 -2.8576 3.853 589.57 -435.07)" gradientUnits="userSpaceOnUse" xlink:href="#a"/>
  <radialGradient id="c" cx="128.83" cy="182.21" r="79.971" gradientTransform="matrix(2.1054 .8806 -2.4418 3.8768 428.69 -428.67)" gradientUnits="userSpaceOnUse" xlink:href="#a"/>
 </defs>
 <g transform="translate(-175.76 -337.94)">
  <path d="m386.51 437.77c14.271 8.2363 5.4935 19.263 15.651 33.979 8.3039 17.477 10.731 31.863 14.2 60.627 7.314-28.482 5.883-49.266 7.0325-59.414 0.90251-7.1145-1.7767-19.684-1.8668-27.066-9.2955-43.102-10.222-42.931-31.933-69.14-11.533-9.3973-29.499-21.569-52.533-19.75-0.96638 2.2132-1.1528 6.3854-7.4881 4.8724-0.85854 2.4932-5.8188 1.5801-12.155 6.6394 8.1604 2.367 1.0755 8.3327 8.9585 19.626 24.191 17.67 47.508 20.787 60.134 49.626z" fill="#0a0" fill-rule="evenodd" stroke="#000" stroke-width="1.3272"/>
  <path transform="matrix(.44242 0 0 .44242 260.94 279.83)" d="m329.31 415.82c7.1684 40.148 19.099 93.933 26.94 158.95 16.532-64.379 37.144-126.18 39.742-149.12 2.04-16.081-1.4086-45.441-0.19028-61.651-21.011-97.423-23.578-100.59-74.787-157.7-26.067-21.241-68.743-47.5-120.81-43.389-40.444 23.386-149.46-83.204-66.312 57.601 18.445 5.3502 33.367 11.745 42.806 13.424 87.072 43.353 126.98 88.913 152.61 181.89z" clip-path="url(#h)" fill-rule="evenodd" filter="url(#e)" opacity=".7"/>
  <path transform="matrix(.44242 0 0 .44242 306.27 310.86)" d="m17.13 157.55h0.0312c50.867-1.0315 110.46 34.799 135.56 55.25 54.413 62.016 72.096 113.93 83.375 178.75 1.9102 20.326 10.258 65.255 1.5312 134.59 0.0272 0.22553 0.0665 0.42993 0.0937 0.65625 16.532-64.379 13.308-111.34 15.906-134.28 2.04-16.081-1.4058-45.446-0.1875-61.656-21.011-97.423-23.573-100.58-74.781-157.69-26.067-21.241-68.749-47.518-120.81-43.406-31.25 11.955-28.193 14.814-40.719 27.781z" clip-path="url(#g)" fill-rule="evenodd" filter="url(#d)" opacity=".8"/>
  <path d="m317.17 367.57c14.79 0.51891 26.799 4.6744 35.401 8.4582 8.4816 4.5025 14.034 7.5554 16.388 9.2685 5.2377 3.838 10.099 7.304 14.256 12.84 3.8151 5.0796 8.0906 9.7869 11.473 15.196 6.7647 10.818 11.805 22.912 15.385 35.693 7.1586 25.562 8.4717 53.917 6.0403 80.263" fill="none" opacity=".76442" stroke="#008000" stroke-linecap="round" stroke-width=".88483"/>
  <g transform="matrix(.44242 0 0 .44242 139.4 272.24)">
   <g transform="translate(164.89 110.39)" stroke="#000" stroke-width="2">
    <path d="m240.32 41.336c0.11732 0.21798 0.22545 0.43922 0.35184 0.65394 0.20837 0.35399 0.44809 0.69598 0.65208 1.0516 0.52445 0.91432 1.449 2.7151 1.8535 3.565 1.0997 2.3107 1.1398 2.5547 2.0846 4.988 1.8782 5.1387 3.0496 10.424 3.7853 15.74 0.18002 1.3006 0.31503 2.605 0.47255 3.9075 0.55127 5.3862 0.93735 10.79 0.86962 16.196-0.0406 3.245-0.14678 4.1887-0.36142 7.4313-0.29261 4.5953-1.1744 9.1474-2.1508 13.676-0.23775 1.1026-0.46214 2.2074-0.7315 3.3054-0.28455 1.1598-0.61997 2.3113-0.92996 3.467-1.4578 5.7365-3.9522 11.274-7.1049 16.549-1.5908 2.4812-3.4513 4.8506-5.6405 7.0226-0.69219 0.6357-1.4787 1.1961-2.2654 1.7544l-22.196-3.5189c0.72795-0.4189 1.4483-0.8458 2.1567-1.2856 0.28307-0.17891 0.58619-0.33929 0.84919-0.53674 0.70462-0.52901 1.1475-1.0522 1.7113-1.6851 1.0288-1.1546 1.9654-2.3568 2.8705-3.5751 0.94889-1.4654 1.4132-2.1177 2.238-3.6822 0.43608-0.82721 0.82737-1.669 1.2277-2.5077 1.46-3.0587 2.8202-6.1532 3.5486-9.3863 0.30719-1.1038 0.64355-2.2028 0.92156-3.3115 0.27265-1.0873 0.49118-2.1828 0.73007-3.2752 0.95751-4.3784 1.8533-8.7772 2.1369-13.222 0.21377-3.1472 0.31888-4.0561 0.35988-7.2056 0.0687-5.2819-0.31908-10.561-0.86448-15.823-0.15629-1.2633-0.28985-2.5285-0.46889-3.7898-0.72088-5.079-1.8735-10.128-3.7422-15.022-0.33618-0.82006-0.65017-1.6461-1.0086-2.4602-1.1036-2.5066-2.4907-4.9195-3.8858-7.3285-0.40175-3.5251 22.059-5.8311 22.531-1.6919z" fill="#803a32"/>
    <path transform="matrix(.90397 0 0 1.0502 86.201 .091005)" d="m183.45 38.289c0.11732 0.21798 0.22545 0.43922 0.35184 0.65394 0.20837 0.35399 0.44809 0.69598 0.65208 1.0516 0.52445 0.91432 1.449 2.7151 1.8535 3.565 1.0997 2.3107 1.1398 2.5547 2.0846 4.988 1.8782 5.1387 3.0496 10.424 3.7853 15.74 0.18002 1.3006 0.31503 2.605 0.47255 3.9075 0.55127 5.3862 0.93735 10.79 0.86962 16.196-0.0406 3.245-0.14678 4.1887-0.36142 7.4313-0.29261 4.5953-1.1744 9.1474-2.1508 13.676-0.23775 1.1026-0.46214 2.2074-0.7315 3.3054-0.28455 1.1598-0.61997 2.3113-0.92996 3.467-1.4578 5.7365-3.9522 11.274-7.1049 16.549-1.5908 2.4812-3.4513 4.8506-5.6405 7.0226-0.69219 0.6357-1.4787 1.1961-2.2654 1.7544l-22.196-3.5189c0.72795-0.4189 1.4483-0.8458 2.1567-1.2856 0.28307-0.17891 0.58619-0.33929 0.84919-0.53674 0.70462-0.52901 1.1475-1.0522 1.7113-1.6851 1.0288-1.1546 1.9654-2.3568 2.8705-3.5751 0.94889-1.4654 1.4132-2.1177 2.238-3.6822 0.43608-0.82721 0.82737-1.669 1.2277-2.5077 1.46-3.0587 2.8202-6.1532 3.5486-9.3863 0.30719-1.1038 0.64355-2.2028 0.92156-3.3115 0.27265-1.0873 0.49118-2.1828 0.73007-3.2752 0.95751-4.3784 1.8533-8.7772 2.1369-13.222 0.21377-3.1472 0.31888-4.0561 0.35988-7.2056 0.0687-5.2819-0.31908-10.561-0.86448-15.823-0.15629-1.2633-0.28985-2.5285-0.46889-3.7898-0.72088-5.079-1.8735-10.128-3.7422-15.022-0.33618-0.82006-0.65017-1.6461-1.0086-2.4602-1.1036-2.5066-2.4907-4.9195-3.8858-7.3285-0.40175-3.5251 22.059-5.8311 22.531-1.6919z" clip-path="url(#i)" filter="url(#f)" opacity=".85"/>
   </g>
   <path d="m405.27 413.46c-44.743 94.687-147.54 159.84-233.68 143.96-86.743-15.994-108.36-151.44-64.768-246.66 40.29-88.002 148.84-106.75 222.36-90.793 85.594 18.582 120.83 98.806 76.088 193.49z" fill="url(#c)" stroke="#000" stroke-linecap="round" stroke-linejoin="round"/>
   <path d="m468.93 491.95c-55.348 95.809-173.81 129.81-258.28 100.08-82.833-29.161-104.72-172.21-49.37-268.02s177.61-96.789 252.48-67.519c79.818 31.202 110.52 139.65 55.172 235.46z" fill="url(#b)" stroke="#c53015" stroke-linecap="round" stroke-linejoin="round" stroke-opacity=".8547"/>
   <path d="m294.25 214.7c-77.864 0.50656-167.62 26.106-198.45 121.02-26.709 82.233-11.192 194.24 66.001 221.24 12.132 11.332 28.839 26.823 50.825 35.233 87.026 33.293 198.83-6.7102 257.15-100.62 58.376-93.994 18.572-215.18-64.028-238-9.5083-2.6277-16.199-5.5105-19.168-6.4968-14.288-10.348-38.789-26.026-59.329-28.896-10.843-1.5151-21.881-3.5497-33.005-3.4774z" fill="none" stroke="#000" stroke-linecap="round" stroke-linejoin="round" stroke-width="3"/>
  </g>
  <path d="m342.33 371.38c-1.7372 5.203-0.82638 9.1485 1.1233 14.35 1.4593 3.4934 3.5584 6.8364 5.5916 10.008-3.4257-4.8002-6.523-10.036-7.652-15.898-0.50072-2.5756-0.61547-5.2395-0.25796-7.8394l1.195-0.62128z" fill="#006d04" opacity=".76442"/>
  <path d="m354.91 376.59c-1.7372 5.203-0.82638 9.1485 1.1233 14.35 1.4593 3.4934 3.5584 6.8364 5.5916 10.008-3.4257-4.8002-6.523-10.036-7.652-15.898-0.50072-2.5756-0.61547-5.2395-0.25796-7.8394l1.195-0.62128z" fill="#006d04" opacity=".76442"/>
  <path d="m345.91 374.01c2.7163-4.7656 6.2629-6.7197 11.438-8.7384 3.5758-1.2439 1.2341-0.70222 4.953-1.3039-5.8611 0.65117-4.5612 0.48404-10.715 3.6992-2.2526 1.3456-4.3133 3.0375-6.0113 5.0386l0.3346 1.3046z" fill="#006d04" opacity=".76442"/>
  <path d="m367.77 383.89c-1.9362 5.1323-1.1779 9.1099 0.57016 14.383 1.3238 3.547 3.2927 6.9682 5.2023 10.216-3.2384-4.9284-6.1319-10.28-7.0345-16.18-0.40121-2.593-0.41335-5.2593 0.04394-7.8435l1.218-0.57483z" fill="#006d04" opacity=".76442"/>
  <path d="m357.41 379.23c2.7163-4.7656 6.2629-6.7197 11.438-8.7384 3.5758-1.2439 1.2341-0.70222 4.953-1.3039-5.8611 0.65117-4.5612 0.48404-10.715 3.6992-2.2526 1.3456-4.3133 3.0375-6.0113 5.0386l0.3346 1.3046z" fill="#006d04" opacity=".76442"/>
  <path d="m369.58 386.24c2.9347-4.6343 6.5682-6.4216 11.832-8.1978 3.6297-1.0766 1.2654-0.64416 5.0082-1.0725-5.885 0.37829-4.5788 0.27171-10.875 3.1976-2.3126 1.2395-4.4497 2.8339-6.2388 4.754l0.27365 1.3188z" fill="#006d04" opacity=".76442"/>
  <path d="m380.3 393.71c-2.3573 4.953-1.9332 8.98-0.63087 14.381 1.0235 3.645 2.7003 7.2185 4.3326 10.614-2.8163-5.1812-5.2536-10.755-5.6611-16.71-0.18366-2.6174 0.02654-5.2754 0.69765-7.8126l1.2617-0.47127h1e-5z" fill="#006d04" opacity=".76442"/>
  <path d="m381.08 395.97c2.9347-4.6343 6.5682-6.4216 11.832-8.1978 3.6297-1.0765 1.2654-0.64415 5.0082-1.0725-5.885 0.37829-4.5788 0.27171-10.875 3.1976-2.3126 1.2395-4.4497 2.8339-6.2388 4.754l0.27366 1.3188z" fill="#006d04" opacity=".76442"/>
  <path d="m387.36 403.69c3.5159-4.2104 7.352-5.507 12.803-6.5791 3.7394-0.59234 1.3388-0.47304 5.1055-0.40799-5.884-0.39503-4.5749-0.32976-11.2 1.7471-2.4549 0.92626-4.7822 2.2273-6.8072 3.8967l0.09874 1.3432z" fill="#006d04" opacity=".76442"/>
  <path d="m390.13 406.13c-3.0633 4.5503-3.2389 8.5958-2.7489 14.129 0.47366 3.7562 1.6041 7.5382 2.7167 11.137-2.0198-5.5405-3.6067-11.413-3.1298-17.364 0.20511-2.6158 0.80576-5.2136 1.8444-7.6237l1.3175-0.27967h1e-5z" fill="#006d04" opacity=".76442"/>
  <path d="m397.34 416.52c-3.0633 4.5503-3.2389 8.5958-2.7489 14.129 0.47367 3.7562 1.6041 7.5382 2.7167 11.137-2.0198-5.5405-3.6067-11.413-3.1298-17.364 0.20511-2.6158 0.80576-5.2136 1.8444-7.6237l1.3175-0.27966h1e-5z" fill="#006d04" opacity=".76442"/>
  <path d="m393.33 412.37c3.9804-3.7743 7.941-4.6173 13.479-5.0501 3.7828-0.15473 1.3846-0.31461 5.1184 0.18679-5.7984-1.0747-4.5058-0.85804-11.327 0.43659-2.5458 0.63534-5.0083 1.6578-7.2132 3.0811l-0.05769 1.3456z" fill="#006d04" opacity=".76442"/>
  <path d="m398.25 420.79c4.7373-2.7653 6.6177-2.6812 12.109-1.8374 3.7181 0.71347 0.57939 0.00999 4.0999 1.351-5.3996-2.3708-1.1822-1.8646-8.1186-2.1624-2.6236 0.037-5.2545 0.46987-7.7263 1.3519l-0.36355 1.2969z" fill="#006d04" opacity=".76442"/>
  <path d="m402.84 429.58c5.0846-2.0582 3.7776-1.7836 9.091-0.16202 3.5776 1.2387 0.57198 0.09288 3.8641 1.9244-5.0044-3.1198-0.90291-2.0147-7.7252-3.303-2.6018-0.33917-2.1117-0.20972-4.6843 0.30918l-0.54556 1.2314z" fill="#006d04" opacity=".76442"/>
  <path d="m404.22 429.93c-3.3551 4.3396-3.643 8.823-3.7461 14.071-0.30831 4.0847-0.4212 5.8708 0.45295 9.5352-1.652-5.6611-1.2466-10.022-0.38037-15.928 0.37625-2.5967 1.146-5.1495 2.3405-7.4863l1.333-0.19265h1e-5z" fill="#006d04" opacity=".76442"/>
  <path d="m409.84 445.83c-4.0289 3.7225-5.0348 4.7913-5.8323 10.289-0.40415 3.7644-0.17745 3.2254 0.07635 6.9841-0.68948-5.8568-1.3906-5.6397 0.44395-11.32 0.80204-2.4983 2.3997-3.8782 3.9655-5.9843l1.3465 0.03127h1e-5z" fill="#006d04" opacity=".76442"/>
  <path d="m407.61 441.4c5.0846-2.0582 3.7776-1.7836 9.091-0.16202 3.5776 1.2387 0.57198 0.09288 3.8641 1.9244-5.0044-3.1198-0.90291-2.0147-7.7252-3.303-2.6018-0.33917-2.1117-0.20972-4.6843 0.30918l-0.54556 1.2314z" fill="#006d04" opacity=".76442"/>
  <path d="m410.04 450.91c5.4853-0.0131 4.1702-0.24582 8.4953 3.2406 2.8574 2.4838 0.49606 0.29953 2.8674 3.2268-3.4795-4.7613-0.08624-2.2061-5.9356-5.9461-2.2876-1.2852-1.8811-0.98227-4.4616-1.4604l-0.96552 0.93907z" fill="#006d04" opacity=".76442"/>
  <path d="m413.33 460.12c-4.3176 3.3834-5.4069 4.367-6.648 9.7819-0.70826 3.7191-0.43858 2-0.49061 5.7669-0.21197-5.8934-0.92835-4.5336 1.361-10.046 1.0021-2.425 2.7065-3.6706 4.438-5.6428l1.3395 0.14043h1e-5z" fill="#006d04" opacity=".76442"/>
  <path d="m413.62 466.08c3.144 0.43111 4.2917 0.74848 5.7572 1.7378 1.2237 1.4989 1.5164 2.4005 2.526 3.5967-2.1598-4.345-2.6223-3.969-2.9983-4.384-1.4541-0.78374-2.9889-1.0342-5.4668-1.8988l0.18189 0.94831z" fill="#006d04" opacity=".76442"/>
  <path d="m415.33 474.12c-1.9268 1.1036-4.0564 4.1124-4.519 5.524-0.59706 1.1614-0.9238 2.3336-1.3094 5.7669 0.34405-5.8934 0.23626-4.3477 2.3588-8.3593 1.0021-1.3129 1.3994-1.7671 3.1309-3.7393l0.33868 0.80766h1e-5z" fill="#006d04" opacity=".76442"/>
  <path d="m415.43 476.09c2.1656 0.41299 3.1936 0.52376 4.5098 1.7045 0.56192 0.70723 0.91546 1.2028 1.7515 2.5261-1.0437-3.0986-1.8561-3.0099-3.0613-3.8617-0.77702-0.36397-1.9707-1.0825-3.2503-1.3332l0.05024 0.96429z" fill="#006d04" opacity=".76442"/>
  <path d="m416.44 484.52c-1.9268 1.1036-4.0564 4.1124-4.519 5.524-0.59706 1.1614-0.7998 2.3336-1.1854 3.5349 0.34405-4.4054 0.11226-2.1157 2.2348-6.1273 1.0021-1.3129 1.3994-1.7671 3.1309-3.7393l0.33868 0.80766h1e-5z" fill="#006d04" opacity=".76442"/>
  <path d="m416.31 488.39c1.9647 1.0002 2.9211 1.393 3.8561 2.8938 0.34256 0.83581 0.54399 1.4102 0.97816 2.9141-0.1388-3.2668-0.94372-3.4079-1.8638-4.5618-0.6448-0.5661-1.5909-1.5888-2.75-2.1862l-0.22049 0.94008z" fill="#006d04" opacity=".76442"/>
 </g>
</svg>
