<svg xmlns="http://www.w3.org/2000/svg" xmlns:xlink="http://www.w3.org/1999/xlink" viewBox="0 0 781 382.28"><defs><style>.cls-1{isolation:isolate;}.cls-2,.cls-43{fill:#fff;}.cls-2{stroke:#7acbf3;stroke-miterlimit:10;stroke-width:3.15px;}.cls-11,.cls-3{fill:#14438a;}.cls-4{fill:#1b76ba;}.cls-12,.cls-42,.cls-5{fill:#bad9de;}.cls-31,.cls-5{mix-blend-mode:color-burn;}.cls-6{fill:#515656;}.cls-7{fill:#e2271d;}.cls-42,.cls-8{mix-blend-mode:multiply;}.cls-9{fill:url(#linear-gradient);}.cls-10,.cls-45{fill:#e0f0ea;}.cls-11,.cls-33,.cls-34,.cls-35,.cls-36,.cls-37,.cls-38,.cls-39,.cls-40{opacity:0.5;}.cls-13{fill:url(#linear-gradient-3);}.cls-14{fill:url(#linear-gradient-4);}.cls-15{fill:url(#linear-gradient-5);}.cls-16{fill:url(#linear-gradient-6);}.cls-17{fill:url(#linear-gradient-7);}.cls-18{fill:url(#linear-gradient-8);}.cls-19{fill:url(#linear-gradient-9);}.cls-20{fill:url(#linear-gradient-10);}.cls-21{fill:url(#linear-gradient-11);}.cls-22{fill:url(#linear-gradient-12);}.cls-23{fill:url(#linear-gradient-13);}.cls-24{fill:url(#linear-gradient-14);}.cls-25,.cls-30{fill:#63c4ea;}.cls-26{fill:url(#linear-gradient-15);}.cls-27{fill:url(#linear-gradient-16);}.cls-28{fill:url(#linear-gradient-17);}.cls-29{fill:url(#linear-gradient-18);}.cls-30{opacity:0.4;}.cls-32{fill:#d4d8dd;}.cls-33,.cls-34,.cls-35,.cls-36,.cls-37,.cls-38,.cls-39,.cls-40{mix-blend-mode:screen;}.cls-33{fill:url(#linear-gradient-20);}.cls-34{fill:url(#linear-gradient-21);}.cls-35{fill:url(#linear-gradient-22);}.cls-36{fill:url(#linear-gradient-23);}.cls-37{fill:url(#linear-gradient-24);}.cls-38{fill:url(#linear-gradient-25);}.cls-39{fill:url(#linear-gradient-26);}.cls-40{fill:url(#linear-gradient-27);}.cls-41{fill:#a5b2af;}.cls-44{fill:#bcbdc0;}.cls-45{opacity:0.6;}.cls-46{fill:#b9d2df;}.cls-47{fill:#e1f2fb;}.cls-48{fill:#d2ecfb;opacity:0.7;}.cls-49{fill:#c4c4c3;}</style><linearGradient id="linear-gradient" x1="593.64" y1="-6.3" x2="519.51" y2="294.24" gradientUnits="userSpaceOnUse"><stop offset="0.21" stop-color="#fff"/><stop offset="0.62" stop-color="#b3acb9"/><stop offset="0.64" stop-color="#c4bec8"/><stop offset="0.68" stop-color="#dedbe0"/><stop offset="0.72" stop-color="#f0eff1"/><stop offset="0.76" stop-color="#fbfbfc"/><stop offset="0.8" stop-color="#fff"/></linearGradient><linearGradient id="linear-gradient-3" x1="211.31" y1="32.66" x2="198.92" y2="153.27" gradientUnits="userSpaceOnUse"><stop offset="0.21" stop-color="#fff"/><stop offset="0.82" stop-color="#b3acb9"/></linearGradient><linearGradient id="linear-gradient-4" x1="439.15" y1="53.36" x2="426.46" y2="176.97" xlink:href="#linear-gradient-3"/><linearGradient id="linear-gradient-5" x1="320.61" y1="42.13" x2="308.01" y2="164.86" xlink:href="#linear-gradient-3"/><linearGradient id="linear-gradient-6" x1="345.19" y1="46.4" x2="332.8" y2="167.02" xlink:href="#linear-gradient-3"/><linearGradient id="linear-gradient-7" x1="302.98" y1="42.07" x2="290.59" y2="162.69" xlink:href="#linear-gradient-3"/><linearGradient id="linear-gradient-8" x1="436.11" y1="76.56" x2="427.27" y2="162.57" xlink:href="#linear-gradient-3"/><linearGradient id="linear-gradient-9" x1="319.61" y1="37.02" x2="306.38" y2="165.82" xlink:href="#linear-gradient-3"/><linearGradient id="linear-gradient-10" x1="461.34" y1="58.33" x2="448.95" y2="178.95" xlink:href="#linear-gradient-3"/><linearGradient id="linear-gradient-11" x1="490.76" y1="61.34" x2="478.37" y2="181.97" xlink:href="#linear-gradient-3"/><linearGradient id="linear-gradient-12" x1="520.16" y1="64.36" x2="507.77" y2="184.98" xlink:href="#linear-gradient-3"/><linearGradient id="linear-gradient-13" x1="386.53" y1="50.63" x2="374.14" y2="171.26" xlink:href="#linear-gradient-3"/><linearGradient id="linear-gradient-14" x1="425.65" y1="54.67" x2="413.26" y2="175.28" xlink:href="#linear-gradient-3"/><linearGradient id="linear-gradient-15" x1="429.53" y1="158.11" x2="424.08" y2="200.36" gradientUnits="userSpaceOnUse"><stop offset="0" stop-color="#fff"/><stop offset="0.97" stop-color="#83be9d"/></linearGradient><linearGradient id="linear-gradient-16" x1="311.24" y1="142.93" x2="306.07" y2="183" xlink:href="#linear-gradient-15"/><linearGradient id="linear-gradient-17" x1="428.95" y1="157.47" x2="422.36" y2="208.51" xlink:href="#linear-gradient-15"/><linearGradient id="linear-gradient-18" x1="309.76" y1="142.51" x2="304.96" y2="179.67" xlink:href="#linear-gradient-15"/><linearGradient id="linear-gradient-20" x1="274.4" y1="158.73" x2="292.37" y2="158.73" xlink:href="#linear-gradient-15"/><linearGradient id="linear-gradient-21" x1="318.09" y1="166.13" x2="334.03" y2="166.13" xlink:href="#linear-gradient-15"/><linearGradient id="linear-gradient-22" x1="359.22" y1="171.26" x2="375.52" y2="171.26" xlink:href="#linear-gradient-15"/><linearGradient id="linear-gradient-23" x1="396.54" y1="175.53" x2="409.8" y2="175.53" gradientTransform="translate(-2.18 19.82) rotate(-2.46)" xlink:href="#linear-gradient-15"/><linearGradient id="linear-gradient-24" x1="415.45" y1="175.5" x2="428.15" y2="175.5" gradientTransform="matrix(0.98, -0.22, 0.2, 0.89, -2.61, 117.16)" xlink:href="#linear-gradient-15"/><linearGradient id="linear-gradient-25" x1="447.62" y1="188.07" x2="457.15" y2="188.07" gradientTransform="matrix(0.98, -0.22, 0.2, 0.89, -2.61, 117.16)" xlink:href="#linear-gradient-15"/><linearGradient id="linear-gradient-26" x1="454.87" y1="216.4" x2="464.39" y2="216.4" gradientTransform="matrix(0.77, -0.17, 0.16, 0.73, 113.61, 109.75)" xlink:href="#linear-gradient-15"/><linearGradient id="linear-gradient-27" x1="176.51" y1="136.93" x2="216.66" y2="136.93" xlink:href="#linear-gradient-15"/></defs><title>Монтажная область 1</title><g class="cls-1"><g id="Слой_1" data-name="Слой 1"><path class="cls-2" d="M638.58,241.49a64.75,64.75,0,0,0-21.85-66.55c-21.58-17.48-52.82-18-78.87-11.19,2.24-16.24-3.72-32.86-20.08-42.81a62.31,62.31,0,0,0-25-8.26c3.75-20.94,1.91-42.6-12.7-59.63C462.54,32.63,434.56,26.88,408.9,30a98.48,98.48,0,0,0-15.66,3.24c-10-10.43-24.63-16.5-38.51-19.45-23.67-5-48.5.56-69.3,12.36-22.12,12.56-40.3,45.84-35.78,73a44.54,44.54,0,0,0-6.07,9.83,60.91,60.91,0,0,0-4.76,17.27c-41.75-18.3-101.8,2.44-118.21,45.46-10.09,26.46,5.54,56.43,24.63,74.42,13,12.22,30.06,18.41,47.37,18.72a35.66,35.66,0,0,0,5.06,9.22c12.47,16.43,33.1,21.25,53.83,19.45,0,.1,0,.21,0,.31,2.34,31.9,25.62,60.81,54.4,73.1,29.07,12.43,62.53,9,91.63-1.15a174.75,174.75,0,0,0,46.26-24.68,43,43,0,0,0,20.81,7.74c13.93,1.49,28.33-4,39.8-12.93,17.74,12.64,40.84,14.64,63.11,13.47,23-1.22,48.57-11.86,61.75-31.59,12.07-18.06,12.42-40.78,2.88-59.3A85.54,85.54,0,0,0,638.58,241.49Z"/><path class="cls-3" d="M569,176.83l-.19-12.13s7.48,4,20.74-3.33l65-65.61s9.59-9.69,18.37-7.57,39.15,11.66,39.15,11.66,5.65,2.29,4.93,10.32-17.51,114.9-17.51,114.9Z"/><path class="cls-4" d="M646.78,169.63c16.32-5.84,33.48-7.89,50-12.94a122.42,122.42,0,0,0,14.19-5.1c1.53-10,2.94-19.27,4-26.55a279.21,279.21,0,0,1-38.44,7.12c-20.76,2.5-44.36,3.17-66.12,8.16l-20.87,21c-13.26,7.32-20.74,3.33-20.74,3.33l.19,12.13,39.58,14.62A130.55,130.55,0,0,1,646.78,169.63Z"/><path class="cls-5" d="M651.16,178.14c-20.28-5.68-40.81-10.69-60.65-17.75l-1,1c-13.26,7.32-20.74,3.33-20.74,3.33l.19,12.13,130.55,48.24s1.95-12.4,4.54-29.07C686.59,189.56,669.08,183.16,651.16,178.14Z"/><path class="cls-6" d="M47.43,187.62l-2.71-2.11s-16.63,5.71-22.39,16.93S42,230,42,230,54.47,221.25,47.43,187.62Z"/><path class="cls-7" d="M553.83,160.77l-2.6-.81A14.73,14.73,0,0,0,553.83,160.77Z"/><g class="cls-8"><path class="cls-9" d="M553.83,160.77l-2.6-.81A14.73,14.73,0,0,0,553.83,160.77Z"/></g><path class="cls-9" d="M553.83,160.77l-2.6-.81A14.73,14.73,0,0,0,553.83,160.77Z"/><path class="cls-10" d="M712.57,209.24C704.5,201.76,662,188,561.66,161.37c-42.26-11.21-90.94-25.43-154.19-37.81S272.18,94.87,242.84,99.11s-53.46,31.29-70.09,46.94S157.43,160.4,133,162.68c-41.89,5.09-71.09,15.21-88.26,22.83,1.4,6.78,3.53,23.55-3.71,43.74,41.71,31.24,116.43,58.46,205.26,64.15,150.61,9.29,416.08,3.14,436.12,2.55s20-1.2,22.13-9.57,5.08-19.73,8.37-36.47S720.64,216.71,712.57,209.24Z"/><path class="cls-10" d="M712.57,209.24C704.5,201.76,662,188,561.66,161.37c-42.26-11.21-90.94-25.43-154.19-37.81S272.18,94.87,242.84,99.11s-53.46,31.29-70.09,46.94S157.43,160.4,133,162.68c-41.89,5.09-71.09,15.21-88.26,22.83,1.4,6.78,3.53,23.55-3.71,43.74,41.71,31.24,116.43,58.46,205.26,64.15,150.61,9.29,416.08,3.14,436.12,2.55s20-1.2,22.13-9.57,5.08-19.73,8.37-36.47S720.64,216.71,712.57,209.24Z"/><path class="cls-11" d="M695,262.21c-59.39-.84-118.8,1.91-178.2,1.91-61.87,0-123.77.68-185.63-.1-58.88-.74-118.31-4.53-176-16.78-38.08-8.09-76.3-17.82-109.61-37.51A86.82,86.82,0,0,1,41,229.25c41.71,31.24,116.43,58.46,205.26,64.15,150.61,9.29,416.08,3.14,436.12,2.55s20-1.2,22.13-9.57c1.51-6.05,3.49-13.69,5.72-23.77C705.16,262.44,700.1,262.28,695,262.21Z"/><path class="cls-12" d="M176.34,154.53c16.62-15.65,40.75-42.71,70.09-46.94s97.8,6.84,161,19.22,111.93,26.6,154.19,37.82C662,191.27,704.5,205,712.57,212.5c3,2.81,4.29,6.87,4.51,11.74.24-6.3-.83-11.59-4.51-15C704.5,201.76,662,188,561.66,161.37c-42.26-11.21-90.94-25.43-154.19-37.81S272.18,94.87,242.84,99.11s-53.46,31.29-70.09,46.94S157.43,160.4,133,162.68c-41.89,5.09-71.09,15.21-88.26,22.83.18.85.36,1.86.55,3,17.24-7.59,49.84-12.32,91.3-17.37C161,168.88,159.72,170.17,176.34,154.53Z"/><g class="cls-8"><path class="cls-13" d="M232.54,152.78c8.1-17.1,11.41-23.1.9-27.61-7.6-3.25-19.44-7-25.4-8.86-14.49,10.13-26.85,23.26-36.62,32.46-5.51,5.19-9.05,8.51-12.22,10.72,9.91,2.85,38.28,10.9,49.34,13.1C222,175.29,224.43,169.89,232.54,152.78Z"/></g><g class="cls-8"><path class="cls-14" d="M427.21,163.42l1.25.23A2.13,2.13,0,0,0,427.21,163.42Z"/><path class="cls-15" d="M309,142.28l2.61.47A12.47,12.47,0,0,0,309,142.28Z"/><path class="cls-16" d="M346.11,187.52c1.63-4.72,6.19-20.19,8.79-28.66,2-6.35-2.59-8.57-5-9.29L328,145.66h-.13s-4.88-1-7.49,6.68-8.47,24.43-9.93,28.82-2.44,8.47,4.88,9.61l.42.07c5.41.66,11.36,1.36,17.92,2.15l3.25.38H337C343.66,193.71,344.48,192.24,346.11,187.52Z"/><path class="cls-17" d="M305.24,182.47c1.79-4.72,8.14-24.09,10.58-32.07,1.53-5-1.62-6.9-4.21-7.66l-2.61-.47-.34,0-.06-.06L290.45,139s-8.1-1.51-12,5.7c0,0-9,21-12.61,30-2.51,7.08-2.93,9.12,28.19,13.39C301.72,188.6,303.63,186.74,305.24,182.47Z"/><path class="cls-18" d="M427.21,163.42h0Z"/><path class="cls-19" d="M309,142.28l-.39-.07.06.06Z"/><path class="cls-20" d="M462,196.32c-.17-5.21-.82-15.63-1.47-21.49a7.4,7.4,0,0,0-5.18-6.33l-17.15-3.1c-.89.12-3.19.78-3.71,4.7-.65,4.89-1.3,22.79-1.47,26.37s1.46,5.53,5.37,5.7a1.93,1.93,0,0,1,.72.17c6.58.46,13,.9,19,1.29C462.76,203.54,462.17,201.23,462,196.32Z"/><path class="cls-21" d="M490.68,200.71c0-2.45-1.79-17.1-2.44-22s-4.07-4.89-4.07-4.89l-.09-.12-16.3-3c-1,0-3.44.6-3.31,4.73.16,5.21,1.79,20.18,2.12,23.93.28,3.21,1.28,4.62,4.43,5.07,6.42.41,12.37.77,17.7,1.08C491.58,205.21,490.68,202.9,490.68,200.71Z"/><path class="cls-22" d="M520.65,200.21c-.6-7.21-1.8-14.71-1.8-14.71s.6-4.5-7.51-6.6c-1.13-.3-6.29-1.29-14.31-2.79v0s-4.06-.82-3.25,5.2,1.14,13.68,1.63,17.91c.46,4,1.07,6.52,4.25,6.94,10.52.6,16.8.92,16.8.92S521.25,207.41,520.65,200.21Z"/><path class="cls-23" d="M390.55,190.29c1.47-6,4.56-18.89,5.7-26.21.63-4-.91-5.84-2.42-6.65l-29.58-5.29c-1.55.22-3.94,1.71-5.77,8.2-2.93,10.42-6.19,21.65-7.16,26s-.33,8,8,9.27c.34.06.68.13,1,.21,7.76.76,15.74,1.49,23.8,2.2C387.85,197.79,389.2,195.84,390.55,190.29Z"/><path class="cls-24" d="M428.16,196.32c.33-4.24,1.79-18.07,2.28-25.89.3-4.7-.94-6.27-2-6.78l-1.25-.23h-.05l-23.44-4.21c-.75.12-2.55,1-3.56,7-1.31,7.65-4.39,20.67-5.7,27.35-.87,4.33-.57,5.2,3.47,5.69,8.66.71,17.31,1.38,25.78,2a1.21,1.21,0,0,1,.22,0C426.2,201.2,427.83,200.54,428.16,196.32Z"/></g><path class="cls-25" d="M233.88,150.07c8.1-17.11,11.4-23.12.9-27.62-7.6-3.25-19.44-7-25.4-8.86-14.49,10.13-26.85,23.26-36.63,32.46-5.51,5.19-9,8.5-12.21,10.72,9.92,2.85,38.27,10.88,49.33,13.1C223.37,172.57,225.78,167.17,233.88,150.07Z"/><path class="cls-26" d="M428.56,160.7l1.25.23A2.08,2.08,0,0,0,428.56,160.7Z"/><path class="cls-27" d="M310.34,139.55,313,140A13.41,13.41,0,0,0,310.34,139.55Z"/><path class="cls-25" d="M347.45,184.8c1.62-4.72,6.19-20.19,8.79-28.66,1.95-6.35-2.59-8.57-5-9.29l-21.92-3.92-.13,0s-4.89-1-7.49,6.67-8.46,24.43-9.93,28.82-2.44,8.47,4.89,9.61l.42.08c5.4.66,11.35,1.37,17.91,2.15l3.25.38h0C345,191,345.82,189.52,347.45,184.8Z"/><path class="cls-25" d="M306.58,179.75c1.8-4.72,8.14-24.1,10.58-32.07,1.52-5-1.62-6.9-4.21-7.66l-2.62-.47H310l-.06,0-18.14-3.23s-8.1-1.5-12,5.71c0,0-9,21-12.61,30-2.51,7.08-2.93,9.12,28.19,13.39C303.07,185.88,305,184,306.58,179.75Z"/><path class="cls-28" d="M428.56,160.7h-.06l0,0Z"/><path class="cls-29" d="M310.34,139.55l-.39-.06.06,0Z"/><path class="cls-25" d="M463.36,193.59c-.17-5.21-.81-15.63-1.46-21.5a7.39,7.39,0,0,0-5.18-6.32l-17.15-3.09c-.89.11-3.19.78-3.72,4.7-.65,4.88-1.3,22.79-1.46,26.38s1.46,5.53,5.37,5.7a2,2,0,0,1,.72.17c6.57.46,13,.89,19,1.29C464.1,200.81,463.52,198.51,463.36,193.59Z"/><path class="cls-25" d="M492,198c0-2.45-1.79-17.1-2.45-22s-4.06-4.88-4.06-4.88l-.09-.14-16.3-3c-1,0-3.44.6-3.31,4.73.17,5.21,1.79,20.18,2.12,23.93.28,3.21,1.28,4.62,4.42,5.06,6.42.41,12.37.77,17.71,1.09C492.93,202.48,492,200.17,492,198Z"/><path class="cls-25" d="M522,197.48c-.6-7.21-1.8-14.72-1.8-14.72s.6-4.5-7.5-6.6c-1.14-.3-6.29-1.29-14.31-2.78h0s-4.07-.81-3.26,5.21,1.14,13.68,1.63,17.91c.46,4,1.07,6.52,4.26,6.94,10.52.6,16.79.92,16.79.92S522.59,204.69,522,197.48Z"/><path class="cls-25" d="M391.9,187.57c1.46-6,4.56-18.88,5.7-26.21.63-4-.92-5.84-2.43-6.65l-29.58-5.29c-1.55.2-3.94,1.71-5.76,8.2-2.93,10.42-6.19,21.65-7.16,26s-.33,8,8,9.28c.35.06.68.14,1,.2,7.76.77,15.74,1.5,23.8,2.2C389.19,195.07,390.55,193.11,391.9,187.57Z"/><path class="cls-25" d="M429.51,193.59c.33-4.23,1.79-18.07,2.28-25.88.3-4.7-.94-6.27-2-6.78l-1.25-.23h0l0,0-23.45-4.21c-.75.12-2.54,1.05-3.55,7-1.3,7.66-4.4,20.67-5.69,27.35-.87,4.33-.58,5.2,3.47,5.69,8.66.71,17.32,1.38,25.78,2a1.15,1.15,0,0,1,.21,0C427.55,198.47,429.17,197.82,429.51,193.59Z"/><g class="cls-8"><path class="cls-30" d="M163.45,154.52c-1,.85-2,1.61-2.91,2.25,9.92,2.85,38.27,10.88,49.33,13.1,11.77,2.36,15.1-1.45,21.14-13.8C201.28,154.46,179.17,154.23,163.45,154.52Z"/><path class="cls-30" d="M311.8,178.45c-1.47,4.4-2.44,8.47,4.89,9.61l.42.08c5.4.66,11.35,1.37,17.91,2.15l3.25.38h0c6.69.33,7.51-1.14,9.14-5.86,1.05-3.06,3.33-10.61,5.52-17.86q-18.87-2.21-35.85-3.94C314.87,169.51,312.62,176,311.8,178.45Z"/><path class="cls-30" d="M267.19,172c-2.51,7.08-2.93,9.12,28.19,13.39,7.69.52,9.59-1.35,11.2-5.61,1-2.66,3.46-9.94,5.85-17.23q-21.37-2.15-39.83-3.62C270.55,163.79,268.51,168.68,267.19,172Z"/><path class="cls-28" d="M428.56,160.7h-.06l0,0Z"/><path class="cls-30" d="M434.39,193.75c-.17,3.58,1.46,5.53,5.37,5.7a2,2,0,0,1,.72.17c6.57.46,13,.89,19,1.29,4.59-.1,4-2.41,3.85-7.32-.09-2.9-.33-7.39-.63-11.82q-14.18-2.15-27.63-4.08C434.76,184.26,434.48,191.6,434.39,193.75Z"/><path class="cls-30" d="M467.93,196.68c.28,3.21,1.28,4.62,4.42,5.06,6.42.41,12.37.77,17.71,1.09,2.87-.34,2-2.66,2-4.84,0-1.38-.57-6.66-1.18-11.87q-12.42-2-24.31-3.77C467.07,188.14,467.73,194.43,467.93,196.68Z"/><path class="cls-30" d="M521.34,191.06q-13-2.14-25.38-4.13c.29,3.68.51,7.18.79,9.58.46,4,1.07,6.52,4.26,6.94,10.52.6,16.79.92,16.79.92s4.81.3,4.21-6.9C521.81,195.3,521.58,193.09,521.34,191.06Z"/><path class="cls-30" d="M352.66,183.65c-1,4.4-.33,8,8,9.28.35.06.68.14,1,.2,7.76.77,15.74,1.5,23.8,2.2,3.77-.27,5.13-2.23,6.47-7.77.87-3.57,2.31-9.54,3.57-15.34q-20.11-2.66-38.42-4.82C355.08,174.39,353.33,180.64,352.66,183.65Z"/><path class="cls-30" d="M395.81,190.82c-.87,4.33-.58,5.2,3.47,5.69,8.66.71,17.32,1.38,25.78,2a1.15,1.15,0,0,1,.21,0c2.28,0,3.9-.65,4.24-4.88.22-2.8.93-9.79,1.53-16.47q-16.2-2.31-31.36-4.33C398.28,179.33,396.65,186.43,395.81,190.82Z"/></g><g class="cls-31"><path class="cls-12" d="M638,247.54,679.46,296l2.91-.08c20-.6,20-1.2,22.13-9.57,1.47-5.88,3.38-13.23,5.53-22.88Z"/></g><path class="cls-32" d="M636.71,235.84a3.14,3.14,0,0,0-1.22,2s-2.59,6,4.9,10.65,67.09,36.28,103.37,45.21c4.66,1.35,8.74,1.39,10.43-.52-10.94.1-33.85-7.16-68.88-26.54C655.84,250.33,642.33,240.47,636.71,235.84Z"/><path class="cls-12" d="M743.47,273.27c-19-19.59-15.84-16.12-25.91-25.34s-23.9-14.4-45.78-16.7c-18.32-1.93-31.18,1.18-35.06,4.61,5.62,4.63,19.13,14.49,48.59,30.8,35,19.38,57.93,26.64,68.88,26.54C756.45,290.61,754.37,284.51,743.47,273.27Z"/><g class="cls-8"><path class="cls-12" d="M754.92,291.6c.59-3.16-2.35-9-11.45-18.33-19-19.59-15.84-16.12-25.91-25.34s-23.9-14.4-45.78-16.7c-3-.31-5.75-.49-8.41-.55,13.7,2.23,33.6,7.27,47,18.6C726,262.42,744.91,281.38,754.92,291.6Z"/></g><g class="cls-31"><path class="cls-12" d="M262.11,224.58l62.52,72.15c24,.66,49.15,1.11,74.43,1.39l-27.57-57.34Z"/></g><path class="cls-33" d="M292.37,144.42,280.44,174.1s-7.42,1.29-5.81-5.49,9.68-22.91,9.68-22.91S286.89,141.19,292.37,144.42Z"/><path class="cls-34" d="M334,151.61l-9.91,30.1s-7.42,1.29-5.8-5.49S326,152.9,326,152.9,328.55,148.38,334,151.61Z"/><path class="cls-35" d="M375.52,157.13l-10.27,29.31s-7.42,1.29-5.8-5.49,8-22.53,8-22.53S370,153.91,375.52,157.13Z"/><path class="cls-36" d="M414.19,164l-7,28.68s-6.1,1.48-5-5,5.42-22.21,5.42-22.21S409.5,161.1,414.19,164Z"/><path class="cls-37" d="M447.41,168.17l-2.1,25.92s-5.77,2.42-5.73-3.55,1.54-19.83,1.54-19.83S442.37,166.45,447.41,168.17Z"/><path class="cls-38" d="M478.15,172.77l1.11,25.74s-5.77,2.43-5.73-3.55-1.67-19.65-1.67-19.65S473.1,171.05,478.15,172.77Z"/><path class="cls-39" d="M506.14,178.46l1.07,21.22s-4.57,2-4.58-3-1.46-16.2-1.46-16.2S502.12,177,506.14,178.46Z"/><path class="cls-40" d="M216.66,122.17,182.6,153.73s-8-1.81-5.68-4.32,33.38-29.29,33.38-29.29Z"/><ellipse class="cls-10" cx="407.92" cy="277.21" rx="11.68" ry="35.28"/><path class="cls-41" d="M320.3,235.77l3.14,79.05-3.14,6.24s41,3.11,87.62-8.58V241.92S360.39,229.39,320.3,235.77Z"/><path class="cls-42" d="M385.86,307.19c5.66,2.2,11.33,4.39,17,6.51,1.67-.38,3.35-.78,5-1.21V241.92s-47.53-12.53-87.62-6.15L322,278.3C342,290.83,363.9,298.63,385.86,307.19Z"/><path class="cls-43" d="M337.45,278.42c0,23.55-9.36,42.65-17.16,42.65S306.18,302,306.18,278.42s6.32-42.65,14.12-42.65S337.45,254.86,337.45,278.42Z"/><ellipse class="cls-10" cx="320.3" cy="278.42" rx="14.12" ry="42.65"/><ellipse class="cls-12" cx="318.09" cy="280.09" rx="36.06" ry="10.07" transform="translate(34.71 595.26) rotate(-89.41)"/><path class="cls-41" d="M328.16,280.2c-.17,16-3.92,28.89-8.38,28.85s-7.95-13-7.78-29,3.92-28.89,8.38-28.84S328.33,264.21,328.16,280.2Z"/><path class="cls-41" d="M358,259.77l2.9,73-2.9,5.77a283.25,283.25,0,0,0,80.92-7.93V265.44S395,253.87,358,259.77Z"/><path class="cls-42" d="M418.55,325.72c5.22,2,10.46,4.06,15.72,6,1.54-.36,3.09-.73,4.65-1.12V265.44S395,253.87,358,259.77l1.56,39.28C378,310.62,398.27,317.83,418.55,325.72Z"/><path class="cls-43" d="M373.84,299.15c0,21.76-8.65,39.39-15.85,39.39s-13-17.64-13-39.39,5.84-39.38,13-39.38S373.84,277.4,373.84,299.15Z"/><path class="cls-10" d="M371,299.15c0,21.76-5.84,39.39-13,39.39s-13-17.64-13-39.39,5.84-39.38,13-39.38S371,277.4,371,299.15Z"/><ellipse class="cls-12" cx="355.95" cy="300.7" rx="33.3" ry="9.3" transform="translate(51.51 653.45) rotate(-89.39)"/><ellipse class="cls-41" cx="357.79" cy="300.72" rx="26.72" ry="7.46" transform="translate(53.26 655.27) rotate(-89.39)"/><path class="cls-44" d="M289.46,238.31C270.79,225.78,261.87,217,258,211a6.16,6.16,0,0,0-.17,3.6c2.37,11.18,15.26,21.32,55,45.78,45,28.69,116.9,65.23,151,73.89a292.48,292.48,0,0,1-49.2-20.66C362.48,285.57,340,272.21,289.46,238.31Z"/><path class="cls-12" d="M500.73,309.33c-23.16-32.62-43.41-73.41-55.78-81.57s-65-16.58-65-16.58c-41-5.26-79.47-6.57-95.78-5.79-13.62.66-24.12.59-26.15,5.6,3.84,6,12.75,14.78,31.42,27.32,50.53,33.9,73,47.26,125.18,75.3a292.48,292.48,0,0,0,49.2,20.66A56,56,0,0,0,475,336.17C525.76,338.2,517.84,336.17,500.73,309.33Z"/><g class="cls-8"><path class="cls-12" d="M512.24,334.63c4.63-3.16-2-10.41-11.51-25.31-23.16-32.62-43.41-73.41-55.78-81.57-8.61-5.68-36.72-11.48-53-14.49,20,4.7,39.05,10.67,46.93,17.53C455.14,245,498.06,312.12,512.24,334.63Z"/></g><path class="cls-45" d="M287.45,209.72s-20-3.32-18.23,5.8,135.14,97.83,202.63,116.21C471.85,331.74,315,218.41,287.45,209.72Z"/><path class="cls-43" d="M49.87,187c.53,2.31,1,4.62,1.64,6.91,44.94-16.31,93.29-23.47,93.29-23.47C96.11,174.78,67.15,181,49.87,187Z"/><path class="cls-43" d="M40.69,190.6c-17.52,7.92-16.18,14.57-16.18,14.57,5.68-2.77,11.67-5.3,17.76-7.71C41.75,195.18,41.22,192.89,40.69,190.6Z"/><path class="cls-46" d="M634.2,85.07a14.44,14.44,0,0,0-3.82-.36c0-.11.09-.22.12-.33a10.82,10.82,0,0,0,.25-6.55,17.35,17.35,0,0,0-3.15-5.74,17,17,0,0,0-10.68-5.39,20.75,20.75,0,0,0-6.29.21,20.36,20.36,0,0,0-.62-4.75c-1-4.11-4.29-7.69-7.69-10.09-3.59-2.53-8-2.9-12.18-2-.44.09-.87.22-1.3.35-1.51-3.4-5.37-5.39-8.9-6.12a14.93,14.93,0,0,0-13,3.64,17.39,17.39,0,0,0-4,5.41,14.75,14.75,0,0,0-1.21,7.1,10.57,10.57,0,0,0,1.73,5.31,7,7,0,0,0-1.4.95,9.51,9.51,0,0,0-2.93,4.53,13.87,13.87,0,0,0-1.68-.61,19.42,19.42,0,0,0-6.65-.68,16.35,16.35,0,0,0-6.25,1.94c-3.94,2-7.7,4.3-9.73,8.4a12.42,12.42,0,0,0-1.09,3.49c-.37-.1-.74-.19-1.11-.26a14.72,14.72,0,0,0-8.41.73c-4.83,1.93-8,7.34-8.25,12.4a12.49,12.49,0,0,0,9.43,12.43,15.22,15.22,0,0,0,8.65-.55,22.45,22.45,0,0,0,5-2.35,16,16,0,0,0,2.87,3c3.46,2.77,7.93,4,12.28,4.38a17.21,17.21,0,0,0,6.08-.6c1-.28,2-.42,3-.76a25.41,25.41,0,0,0,3.07-1.3,19.06,19.06,0,0,0,4.66-3,16.94,16.94,0,0,0,1.64,1.4A18.54,18.54,0,0,0,583.39,113a27.66,27.66,0,0,0,11.78-2.55,22.28,22.28,0,0,0,7-5.18,27.52,27.52,0,0,0,11.32,4.8,34.72,34.72,0,0,0,9.43.63,26.06,26.06,0,0,0,8.89-2.28c4.73-2.17,9.91-6.32,10.66-11.78A10.57,10.57,0,0,0,634.2,85.07Z"/><path class="cls-47" d="M639.92,99.38c-1.21,2.52-3.78,4.46-6.05,6-5.28,3.52-11.9,4.21-18,3.36a32.72,32.72,0,0,1-9.64-2.77,22.41,22.41,0,0,1-3.06-1.75c.27-.31.52-.62.77-.94-.33.29-.68.55-1,.78-1.29.92-2.6,1.84-3.94,2.69l-.48.3a23.71,23.71,0,0,1-3.06,1.82,26.38,26.38,0,0,1-5.2,1.78,28.92,28.92,0,0,1-5.74.94,19,19,0,0,1-4.84-.46,17.37,17.37,0,0,1-6.44-2.16,11.91,11.91,0,0,1-3.22-2.66,13.68,13.68,0,0,0-1.78-2.33,12.92,12.92,0,0,0,.63,1.27,11.58,11.58,0,0,0,1.48,2,24.3,24.3,0,0,1-4.75,2.53A24,24,0,0,1,554.05,112a26.49,26.49,0,0,1-11.57-3.7,13.61,13.61,0,0,1-3-2.48h0a15.06,15.06,0,0,1-2.6-3.43,16.34,16.34,0,0,0,1.62,3.14,30.33,30.33,0,0,1-4.34,1.67,15.61,15.61,0,0,1-8.11.44,11.67,11.67,0,0,1-8.87-10.9,12.91,12.91,0,0,1,7.12-12,13.9,13.9,0,0,1,8.2-.89,10.79,10.79,0,0,1,1.14.26,12.62,12.62,0,0,0-.12,1.64,9.55,9.55,0,0,0,.21,1.72,16.26,16.26,0,0,0,.79,2.24,13.9,13.9,0,0,1,.57-6.31,8.21,8.21,0,0,1,.42-1.05,14.09,14.09,0,0,1,.65-1.52c1.81-3.68,5.32-5.65,8.74-7.57a17.53,17.53,0,0,1,11.91-1.92,12.93,12.93,0,0,1,2.14.59,6.77,6.77,0,0,0,1,5.09,8.4,8.4,0,0,1,.58-6.63A11.14,11.14,0,0,1,563,67.07a5.15,5.15,0,0,1,.82-.62l0,.06,0,0,.62-.34,0-.06A16.71,16.71,0,0,1,568.27,65a9.37,9.37,0,0,1,2.78-.23,5.47,5.47,0,0,1,.62.09h.18a6.13,6.13,0,0,0-2.06-.35,21.2,21.2,0,0,0-3.07.23,12.75,12.75,0,0,0-2.6.72,12,12,0,0,1-1.4-5.19,13.78,13.78,0,0,1,1.05-6.55,16.73,16.73,0,0,1,3.87-5.2,14.92,14.92,0,0,1,11.84-3.85c3.59.41,7.64,2.45,9.27,5.81a17.46,17.46,0,0,0-3.25,1.44,9.53,9.53,0,0,0-1.84,1.61,13,13,0,0,1,9-2.84,14.82,14.82,0,0,1,9.45,2.8c3.08,2.24,6,5.29,7.31,8.94a15,15,0,0,1,.73,3.33,16,16,0,0,1,.24,3.6c0,.3,0,.6,0,.91a19.74,19.74,0,0,0,.25-2.91l.26,0a20.05,20.05,0,0,1,5.85.16,17.25,17.25,0,0,1,9.92,5.35,17.29,17.29,0,0,1,2.71,4.8,10,10,0,0,1,.17,6.38c-.07.26-.15.52-.23.77h-.06a16.68,16.68,0,0,0-2.9.64,1.68,1.68,0,0,0-1,.56h.08l.1,0a5.22,5.22,0,0,1,2.76-.6,15.43,15.43,0,0,1,1.85,0h0a13.79,13.79,0,0,1,3.61.66,10.35,10.35,0,0,1,6.35,5.65A9.39,9.39,0,0,1,639.92,99.38Z"/><path class="cls-48" d="M579.29,59.08a4.06,4.06,0,0,0,.27,1.78,9.93,9.93,0,0,1,2.69-6.23,11.58,11.58,0,0,1,2-1.67,11.13,11.13,0,0,1,1.3-1,17.46,17.46,0,0,1,3.25-1.44,8.57,8.57,0,0,0-1.45-2.08C583.59,49,579.59,53.73,579.29,59.08Z"/><path class="cls-48" d="M564.12,65.45a12.75,12.75,0,0,1,2.6-.72,21.2,21.2,0,0,1,3.07-.23,6.12,6.12,0,0,1,1.68.23,19.5,19.5,0,0,1,5.45,1.36,21,21,0,0,1,5.47,3.06c-3.54-5.37-11.09-8.5-17-5.92a.39.39,0,0,1-.53-.14A17.11,17.11,0,0,1,563.64,54a14.21,14.21,0,0,0-.92,6.24A12,12,0,0,0,564.12,65.45Z"/><path class="cls-48" d="M640.11,91.6a10.35,10.35,0,0,0-6.35-5.65,13.79,13.79,0,0,0-3.61-.66h0a15.43,15.43,0,0,0-1.85,0,5.22,5.22,0,0,0-2.76.6l-.1,0h-.08a1.68,1.68,0,0,1,1-.56,16.68,16.68,0,0,1,2.9-.64h.06c.09-.25.17-.5.23-.77a10,10,0,0,0-.17-6.38,17.29,17.29,0,0,0-2.71-4.8,17,17,0,0,0-8.17-5c3.41,2.17,6.2,5.06,6.32,9.51a19.8,19.8,0,0,1-2.29,10c.63-.1,1.25-.19,1.88-.26,2.67-.31,5.53-.74,8.12.23a3.72,3.72,0,0,1,2.23,4.82,11.09,11.09,0,0,1-6.11,6.76c-5.71,2.68-12.49,2.36-18.39.43-4-1.3-7.93-3.42-10.56-6.65-2.84,5.87-8.25,10.1-15.33,10.26-8.07.17-17.17-4.88-19.8-12.76a17.8,17.8,0,0,0,1.88,7.3.4.4,0,0,1-.14.53c-5.77,3.68-17.66,7.56-24.59,4.67-3.78-1.57-5.55-4.92-7.11-9a20.79,20.79,0,0,0,1.42,9c.09.26-.87.42-1.1.44-4.86.58-10.74.06-14.33-3.71a10.63,10.63,0,0,1-2.89-6.9,11.88,11.88,0,0,0-.55,4.25,11.67,11.67,0,0,0,8.87,10.9,15.61,15.61,0,0,0,8.11-.44,30.33,30.33,0,0,0,4.34-1.67,16.34,16.34,0,0,1-1.62-3.14,15.06,15.06,0,0,0,2.6,3.43h0a13.61,13.61,0,0,0,3,2.48,26.49,26.49,0,0,0,11.57,3.7,24,24,0,0,0,11.49-2.27,24.3,24.3,0,0,0,4.75-2.53,11.58,11.58,0,0,1-1.48-2,12.92,12.92,0,0,1-.63-1.27,13.68,13.68,0,0,1,1.78,2.33,11.91,11.91,0,0,0,3.22,2.66,17.37,17.37,0,0,0,6.44,2.16,19,19,0,0,0,4.84.46,28.92,28.92,0,0,0,5.74-.94,26.38,26.38,0,0,0,5.2-1.78,23.71,23.71,0,0,0,3.06-1.82l.48-.3c1.34-.84,2.65-1.77,3.94-2.69.33-.23.68-.49,1-.78-.25.32-.51.63-.77.94a22.41,22.41,0,0,0,3.06,1.75,32.72,32.72,0,0,0,9.64,2.77c6.14.85,12.76.15,18-3.36,2.28-1.51,4.84-3.45,6.05-6A9.39,9.39,0,0,0,640.11,91.6Z"/><path class="cls-49" d="M563.83,66.45l-.1.06.11,0S563.83,66.46,563.83,66.45Z"/><path class="cls-46" d="M214.18,305.4a14.47,14.47,0,0,0-3.82-.36l.12-.33a10.85,10.85,0,0,0,.26-6.55,17.38,17.38,0,0,0-3.15-5.75A17.05,17.05,0,0,0,196.91,287a20.75,20.75,0,0,0-6.29.21,20.54,20.54,0,0,0-.62-4.75c-1-4.11-4.29-7.69-7.69-10.09-3.59-2.53-8-2.9-12.18-2-.44.1-.87.22-1.31.36-1.51-3.41-5.37-5.4-8.9-6.12a14.91,14.91,0,0,0-13,3.63,17.41,17.41,0,0,0-4,5.41,14.69,14.69,0,0,0-1.21,7.1,10.59,10.59,0,0,0,1.73,5.31,7.46,7.46,0,0,0-1.4.95,9.53,9.53,0,0,0-2.92,4.53,15.47,15.47,0,0,0-1.68-.61,19.59,19.59,0,0,0-6.65-.68,16.21,16.21,0,0,0-6.25,1.94c-3.94,2-7.71,4.29-9.74,8.39a12.4,12.4,0,0,0-1.09,3.49c-.37-.1-.74-.2-1.11-.27a14.68,14.68,0,0,0-8.42.74c-4.83,1.93-8,7.34-8.25,12.39a12.49,12.49,0,0,0,9.42,12.43,15.16,15.16,0,0,0,8.65-.55,22.54,22.54,0,0,0,5-2.35,16.08,16.08,0,0,0,2.87,3,22.44,22.44,0,0,0,12.28,4.38,17.21,17.21,0,0,0,6.08-.6c1-.28,2-.42,3-.76a26.37,26.37,0,0,0,3.06-1.31,19.1,19.1,0,0,0,4.67-3,16.94,16.94,0,0,0,1.64,1.4,18.48,18.48,0,0,0,10.84,3.76,27.66,27.66,0,0,0,11.78-2.54,22.4,22.4,0,0,0,7-5.18,27.53,27.53,0,0,0,11.32,4.8,34.69,34.69,0,0,0,9.43.63,25.89,25.89,0,0,0,8.89-2.28c4.74-2.17,9.91-6.32,10.66-11.78A10.56,10.56,0,0,0,214.18,305.4Z"/><path class="cls-47" d="M219.9,319.71c-1.21,2.52-3.78,4.46-6.05,6-5.28,3.52-11.9,4.21-18,3.36a32.74,32.74,0,0,1-9.65-2.77,23.16,23.16,0,0,1-3-1.74c.26-.31.52-.63.77-.95-.34.29-.69.55-1,.78-1.28.93-2.6,1.84-3.94,2.69l-.48.3a23,23,0,0,1-3.06,1.82,26.4,26.4,0,0,1-5.21,1.78,28.82,28.82,0,0,1-5.74.94,18.71,18.71,0,0,1-4.84-.46,17.37,17.37,0,0,1-6.45-2.16,12,12,0,0,1-3.22-2.66,13.42,13.42,0,0,0-1.78-2.32,14.13,14.13,0,0,0,.63,1.27,11.89,11.89,0,0,0,1.48,2,29.19,29.19,0,0,1-16.25,4.8,26.54,26.54,0,0,1-11.57-3.7,13.68,13.68,0,0,1-3-2.48h0a15.29,15.29,0,0,1-2.6-3.43,16.15,16.15,0,0,0,1.62,3.14,30.31,30.31,0,0,1-4.34,1.67A15.6,15.6,0,0,1,106,328a11.67,11.67,0,0,1-8.87-10.9,12.9,12.9,0,0,1,7.12-12,14,14,0,0,1,8.21-.89,9.44,9.44,0,0,1,1.13.26,13,13,0,0,0-.12,1.63,9.28,9.28,0,0,0,.21,1.72,15.93,15.93,0,0,0,.79,2.24,13.94,13.94,0,0,1,.57-6.31,7.38,7.38,0,0,1,.42-1,13.18,13.18,0,0,1,.65-1.53c1.81-3.68,5.32-5.65,8.74-7.57a17.54,17.54,0,0,1,11.91-1.92,13.45,13.45,0,0,1,2.14.59,6.8,6.8,0,0,0,1,5.09,8.43,8.43,0,0,1,.58-6.64A11.14,11.14,0,0,1,143,287.4a5.09,5.09,0,0,1,.82-.62l0,.06,0,0c.2-.12.41-.23.61-.34l0-.06a16.76,16.76,0,0,1,3.78-1.11,9.61,9.61,0,0,1,2.78-.23,5.21,5.21,0,0,1,.62.09h.18a6.15,6.15,0,0,0-2.06-.35,21.2,21.2,0,0,0-3.07.23,12.81,12.81,0,0,0-2.6.72,12,12,0,0,1-1.39-5.18,13.76,13.76,0,0,1,1.05-6.56,16.66,16.66,0,0,1,3.87-5.2A14.94,14.94,0,0,1,159.47,265c3.59.41,7.64,2.45,9.27,5.81a17.31,17.31,0,0,0-3.25,1.45,9.54,9.54,0,0,0-1.84,1.61,13,13,0,0,1,9-2.84,14.83,14.83,0,0,1,9.45,2.8c3.08,2.24,6,5.29,7.31,8.93a14.73,14.73,0,0,1,.73,3.33,16.22,16.22,0,0,1,.25,3.6c0,.3,0,.61,0,.91a20.06,20.06,0,0,0,.25-2.91l.26,0a20,20,0,0,1,5.84.16A15.24,15.24,0,0,1,209.36,298a10,10,0,0,1,.17,6.38c-.07.26-.15.52-.23.77h-.06a16.62,16.62,0,0,0-2.89.64,1.68,1.68,0,0,0-1,.56h.08l.09,0a5.18,5.18,0,0,1,2.76-.61,14.25,14.25,0,0,1,1.85,0h0a13.84,13.84,0,0,1,3.62.66,10.36,10.36,0,0,1,6.34,5.65A9.38,9.38,0,0,1,219.9,319.71Z"/><path class="cls-48" d="M159.27,279.42a4.08,4.08,0,0,0,.27,1.78,9.94,9.94,0,0,1,2.69-6.24,11.78,11.78,0,0,1,2-1.67,11.46,11.46,0,0,1,1.3-1,17.31,17.31,0,0,1,3.25-1.45,8.33,8.33,0,0,0-1.45-2.07C163.57,269.33,159.57,274.07,159.27,279.42Z"/><path class="cls-48" d="M144.1,285.78a12.81,12.81,0,0,1,2.6-.72,21.2,21.2,0,0,1,3.07-.23,6.12,6.12,0,0,1,1.68.23,19.51,19.51,0,0,1,5.45,1.36,21,21,0,0,1,5.47,3.06c-3.54-5.37-11.08-8.5-17-5.91a.39.39,0,0,1-.53-.15,17.1,17.1,0,0,1-1.18-9.06,14.06,14.06,0,0,0-.92,6.24A12,12,0,0,0,144.1,285.78Z"/><path class="cls-48" d="M220.09,311.93a10.36,10.36,0,0,0-6.34-5.65,13.84,13.84,0,0,0-3.61-.66h0a14.25,14.25,0,0,0-1.85,0,5.18,5.18,0,0,0-2.76.61l-.09,0h-.08a1.68,1.68,0,0,1,1-.56,16.62,16.62,0,0,1,2.89-.64h.06c.08-.25.17-.5.23-.77a10,10,0,0,0-.17-6.38,17.15,17.15,0,0,0-2.72-4.8,16.85,16.85,0,0,0-8.16-5c3.41,2.16,6.19,5.05,6.31,9.51a19.87,19.87,0,0,1-2.29,10c.62-.1,1.25-.2,1.88-.27,2.67-.31,5.52-.74,8.12.23a3.72,3.72,0,0,1,2.23,4.83,11.13,11.13,0,0,1-6.12,6.76c-5.72,2.67-12.49,2.35-18.39.42-4-1.3-7.93-3.42-10.56-6.65-2.83,5.87-8.25,10.1-15.33,10.26-8.07.17-17.18-4.87-19.8-12.76a17.68,17.68,0,0,0,1.89,7.3.39.39,0,0,1-.14.53c-5.77,3.68-17.66,7.56-24.58,4.67-3.78-1.57-5.55-4.92-7.12-9a20.75,20.75,0,0,0,1.43,9c.09.26-.88.42-1.11.44-4.86.58-10.74.06-14.33-3.7a10.63,10.63,0,0,1-2.89-6.9,11.93,11.93,0,0,0-.55,4.25A11.67,11.67,0,0,0,106,328a15.6,15.6,0,0,0,8.11-.44,30.31,30.31,0,0,0,4.34-1.67,16.15,16.15,0,0,1-1.62-3.14,15.21,15.21,0,0,0,2.6,3.43h0a13.68,13.68,0,0,0,3,2.48,26.54,26.54,0,0,0,11.57,3.7,29.19,29.19,0,0,0,16.25-4.8,11.89,11.89,0,0,1-1.48-2,14.13,14.13,0,0,1-.63-1.27,13.42,13.42,0,0,1,1.78,2.32,12,12,0,0,0,3.22,2.66,17.37,17.37,0,0,0,6.45,2.16,18.71,18.71,0,0,0,4.84.46,28.82,28.82,0,0,0,5.74-.94,26.4,26.4,0,0,0,5.21-1.78,23,23,0,0,0,3.06-1.82l.48-.3c1.34-.84,2.66-1.76,3.94-2.69.33-.23.68-.49,1-.78-.25.32-.51.63-.77.95a23.16,23.16,0,0,0,3,1.74,32.74,32.74,0,0,0,9.65,2.77c6.14.85,12.76.15,18-3.36,2.27-1.51,4.84-3.45,6.05-6A9.38,9.38,0,0,0,220.09,311.93Z"/><path class="cls-49" d="M143.81,286.78l-.09.06.11,0Z"/></g></g></svg>