<?xml version="1.0" encoding="utf-8"?>
<!-- Generator: Adobe Illustrator 22.0.0, SVG Export Plug-In . SVG Version: 6.00 Build 0)  -->
<svg version="1.1" id="Layer_1" xmlns="http://www.w3.org/2000/svg" xmlns:xlink="http://www.w3.org/1999/xlink" x="0px" y="0px"
	 viewBox="0 0 512 512" style="enable-background:new 0 0 512 512;" xml:space="preserve">
<style type="text/css">
	.st0{fill:#930506;}
	.st1{fill:#439B0B;}
	.st2{fill:#DF0101;}
	.st3{fill:#CB0102;}
	.st4{fill:#F02929;}
	.st5{fill:#D1AE32;}
	.st6{fill:#FBF0B5;}
	.st7{fill:#D4C67E;}
	.st8{fill:#F0C529;}
	.st9{fill:#F9E58E;}
	.st10{fill-rule:evenodd;clip-rule:evenodd;fill:#A6BE39;}
	.st11{fill-rule:evenodd;clip-rule:evenodd;fill:#93AB3C;}
	.st12{fill-rule:evenodd;clip-rule:evenodd;fill:#FEFEFE;stroke:#414042;stroke-width:2.8919;stroke-miterlimit:10;}
	.st13{fill-rule:evenodd;clip-rule:evenodd;fill:#FEFEFE;}
	.st14{fill-rule:evenodd;clip-rule:evenodd;fill:#B9D432;}
	.st15{fill-rule:evenodd;clip-rule:evenodd;fill:#414042;}
	.st16{fill:#D85B2A;}
	.st17{opacity:0.5;fill:#D85B2A;}
	.st18{fill:#C9471F;}
	.st19{fill:#B22909;}
	.st20{fill:#C43F16;}
	.st21{fill:#F7774F;}
	.st22{fill:#511B1A;}
	.st23{fill:#231F20;}
	.st24{fill:#FFFFFF;}
	.st25{fill:#C4BDC4;}
	.st26{fill:#ED4C06;}
	.st27{fill:#F9CCA0;}
	.st28{fill:#2D170B;}
	.st29{fill:#5B3310;}
	.st30{opacity:0.2;}
	.st31{fill:#E8ECEF;}
	.st32{fill:#9E1B25;}
	.st33{fill:#FF6B00;}
	.st34{fill:#EAAF7A;}
	.st35{fill:none;}
	.st36{fill:#C15133;}
	.st37{fill:#FF8B00;}
	.st38{fill:#0AA083;}
	.st39{fill:#99591F;}
	.st40{fill:#753E12;}
	.st41{fill:#3F3E3E;}
	.st42{fill:#644E55;}
	.st43{opacity:0.2;fill:#E8ECEF;}
	.st44{fill:#741899;}
	.st45{fill:#8D1CCA;}
	.st46{fill:#1E120D;}
	.st47{fill:#5D4D3E;}
	.st48{fill:#756857;}
	.st49{fill:#3F8100;}
	.st50{fill:#FFDE00;}
	.st51{fill:#59380B;}
	.st52{fill:#A06116;}
	.st53{fill-rule:evenodd;clip-rule:evenodd;fill:#E6E6E6;}
	.st54{fill-rule:evenodd;clip-rule:evenodd;fill:#CCCCCC;}
	.st55{fill-rule:evenodd;clip-rule:evenodd;fill:#B3B3B3;}
	.st56{fill-rule:evenodd;clip-rule:evenodd;fill:#1A1A1A;stroke:#000000;stroke-width:0.7543;stroke-miterlimit:22.9256;}
	.st57{fill-rule:evenodd;clip-rule:evenodd;fill:#FFCC00;}
	.st58{fill-rule:evenodd;clip-rule:evenodd;fill:#808080;}
	.st59{fill-rule:evenodd;clip-rule:evenodd;fill:#1A1A1A;}
	.st60{fill-rule:evenodd;clip-rule:evenodd;}
	.st61{fill-rule:evenodd;clip-rule:evenodd;fill:#333333;}
	.st62{fill:#E7343B;}
	.st63{fill:#D42F36;}
	.st64{fill:#DD941A;}
	.st65{fill:#D15528;}
	.st66{fill:#A63823;}
	.st67{fill:#C91F2A;}
	.st68{fill:#CD2D34;}
	.st69{fill:#F5F0E6;}
	.st70{fill:#F6ED9A;}
	.st71{fill:#4C241B;}
	.st72{fill:#FFFEF2;}
	.st73{fill:#C2AE94;}
	.st74{fill:#F6F0DC;}
	.st75{fill:#FBAE17;}
	.st76{opacity:0.56;}
</style>
<g>
	<path class="st5" d="M436.9,417.7c0.6,1.8-0.4,2.7-1.9,3.5c-8.1,4-16.3,6-25.5,3.3c-6.2-1.8-12.5-3.4-18.2-6.6
		c-10-5.7-15.7-15-21-24.6c-7.6-13.8-11.5-28.9-14.9-44.1c-1.9-8.2-3.9-16.4-8.3-23.7c-0.7-1.2-1.3-3-2.9-3.1c-2-0.2-2,2-2.6,3.2
		c-22.3,44.5-55.3,78.8-99.1,102.5c-17,9.2-35.2,15.3-54.2,19.1c-19.7,3.9-39.5,4.6-59.4,2.8c-9.1-0.8-17.9-3.2-26.8-5.3
		c-13.7-3.2-18.7-13.2-21.6-25.3c-0.9-3.7-0.2-5.5,3.6-7.4c23.1-11.6,46.1-23.4,67-38.8c16-11.8,31.4-24.4,45.9-38.2
		c4.3-4.1,8.6-8.2,13-12.4c2.1-1.1,3.6-2.8,4.8-5.2c-2.8,0-4.5,1.6-6.6,2.5c-22.3,11.9-45.3,21.8-70.2,26.8
		c-8.4,1.7-16.9,2.5-25.5,1.9c-4.8-0.4-9.4-1.3-12.9-5c0.5-2.1,1.6-0.9,2.7-0.6c3.7,1.1,7.3,2.5,11.4,2.5c13.2,0,25.6-3.2,37.8-7.9
		c18.5-7.1,36.1-16.1,54-24.5c12-5.7,24.2-11,36.8-15.4c7.9-2.7,15.8-5.2,24.1-6.6c6.7-1.1,13.3-2.4,20-2.8
		c13.2-0.9,26.2,1.1,38.9,4.7c5.9,0.6,11.9,1.1,17.8,1.7c2.8,1.7,6.4,2,8.4,5c-0.4,2.4-0.9,4.8-2,7c-0.8,1.7-1,3.4,0.4,4.9
		c9.1,10,12.5,22.5,15.4,35.3c1.8,8.1,3.7,16.1,6.6,23.9c0.3,0.9,0.3,0.9,1.5,0.9c1.1,0.9,0.7,2.2,0.8,3.3c0.2,1-0.2,2.2,0.7,3.1
		c0.6,1.9,1.3,3.9,1.9,5.8c0,0.9-0.3,1.9,0.8,2.4c0.2,0.3,0.4,0.6,0.7,0.9c0.1,4.8,2.8,8.6,5.1,12.5c4.9,8.2,11.1,14.9,20.1,18.6
		c7.6,3.1,15.6,3.1,23.5,2.1C430.2,420,433.9,419.9,436.9,417.7z M149.5,441.5c6.6-1.3,14.4-0.7,22.1-1.7c16.7-2.2,33-6.1,48.7-12.3
		c13.2-5.2,25.3-12.2,37-20.1c12.5-8.4,23.9-17.9,34.3-28.7c2.2-2.3,3-4.7,0.7-7.5c-3.3-4.1-6.4-8.4-9.7-12.5
		c-2.4-2.9-4.1-3.2-7-1.7c-1.1,0.6-2.1,1.3-2.9,2.2c-4.8,5.2-10.4,9.5-15.8,14.1c-1.4,1.2-3.4,2.9-4.9,1.1c-1.3-1.6,1-2.9,2.1-3.8
		c6.4-5.3,12.2-11.2,17.5-17.6c2.8-3.3,2.8-5.2-0.3-8.4c-1.7-1.8-4.1-3.3-4.8-5.4c-1.7-4.7-5.6-7.6-8.3-11.5
		c-4.4-6.3-10.2-11.7-14.3-18.4c-2.4-3.9-5.5-4-8.4-0.5c-5.8,7-11.5,14.1-18.1,20.4c-14.6,14.2-29.4,28.1-45.6,40.6
		c-9.3,7.2-18.4,14.7-28.5,20.9c-11.6,7.1-23.3,14-35.4,20.2c-3.6,1.8-7.2,3.9-10.7,5.9c-1.1,0.6-2.5,1.2-0.8,3
		c2.7,2.7,4.1,6.2,5.6,9.8c1,2.5,1.4,5.3,5.5,6.5C120.9,439.8,134.7,440.5,149.5,441.5z"/>
	<path class="st6" d="M269.4,219.6c3.2-15,5.3-30.1,7.5-45.2c2.7-18.2,1.7-36.3,2.4-54.5c0.5-14.3,0.8-28.8,5.5-42.6
		c1.4-4.3,3.1-8.4,5.9-12c7-8.7,16.7-8.4,27.9-3.7c2.3,1,4.9,1.8,6.4,4.1c-4.9,2-5.7,7.8-1.2,11.1c4,3,7,6.8,9.8,10.8
		c10.7,15.1,15.9,32.5,20.1,50.2c-0.5,0.7-1.1,1.2-1.4,2c-3.2,9.8-4.5,20.1-6.8,30.1c-1.7,7.4-2.2,15-4.3,22.3
		c-2.1,7.3-2.8,14.9-4.6,22.2c-2.5,10.1-3.7,20.5-6.2,30.6c-1.9,7.7-2.7,15.7-4.7,23.4c-1.2,4.5-0.6,9.5-3.9,13.4
		c-11.2-19-28-31.2-48-39.7c-2.9-1.3-6.8-1.2-8.6-4.6c-0.4-2.6,1.9-4.5,1.6-7.1C267.7,226.8,268.6,223.2,269.4,219.6z"/>
	<path class="st7" d="M353.7,137.8c-4.3-17.7-9.4-35.1-20.1-50.2c-2.8-4-5.8-7.8-9.8-10.8c-4.5-3.4-3.7-9.1,1.2-11.1
		c0.3,0.3,0.7,0.6,1,0.8c0.1,0.8,0.7,0.9,1.3,0.9c9,5.9,14.9,14.6,19.9,23.7c10.6,19.2,16.2,39.9,19.6,61.4
		c3.6,22.5,3.7,45.1,2.9,67.6c-0.5,13.8-2.6,27.6-6,41.1c-0.7,2.7-0.5,4.4,2.7,5.1c22.6,5.3,36.2,20.2,44.4,41.2
		c7.3,18.6,10.5,38.1,13.3,57.8c2,14.5,2.8,29.2,7.8,43.2c1.2,3.3,4.1,5.6,4.9,9.1c-3,2.2-6.6,2.3-10,2.7c-7.9,1-15.9,1-23.5-2.1
		c-9-3.7-15.3-10.4-20.1-18.6c-2.3-3.9-5-7.7-5.1-12.5c3.3,3.3,4.9,7.7,7.7,11.4c8.5,11.4,20.5,14.9,33.9,15.6
		c2.4,0.1,3.5-1,2.5-3.6c-0.9-2.4-1.7-4.9-2.3-7.4c-3.8-15.3-4.9-31-7.2-46.5c-2.4-16.3-5.7-32.3-11.9-47.6
		c-6.3-15.8-16.2-27.9-33.4-32.5c-2.3-0.6-5.4-3.3-6.8-1.1c-1.6,2.5,2.2,4.2,3.9,5.9c13.7,13,22.4,28.8,27.9,46.7
		c4,12.7,5.4,26,7.8,39c2.2,12.2,4.8,24.2,12.1,34.7c1.9,2.7,5.2,4.1,5.9,7.6l0,0c-5.8-3-9.1-8.3-12.1-13.8
		c-6.8-12.3-9.1-26.1-11.5-39.7c-3.1-17.9-8.1-35.2-17.2-51c-4.5-7.9-9.9-15.3-16.7-21.5c-1.3-1.2-2.4-2.2-3.2,0.3
		c-1.8,5.4-4.4,10.5-5.6,16.1c-0.2,0-0.4-0.1-0.7,0c-2-3-5.6-3.4-8.4-5c3-8,6-16,8.3-24.3c5.4-19,8.5-38.3,8.9-58.1
		c0.3-17.9,0-35.9-2.5-53.7C356.7,151.7,356.2,144.6,353.7,137.8z"/>
	<path class="st7" d="M265.3,237.4c1.8,3.4,5.7,3.4,8.6,4.6c19.9,8.6,36.7,20.7,48,39.7c1,3.8,3.3,7.3,3.4,11.4
		c-12.7-3.7-25.7-5.7-38.9-4.7c-6.7,0.5-13.4,1.7-20,2.8c-8.3,1.4-16.2,3.9-24.1,6.6c-12.6,4.4-24.8,9.8-36.8,15.4
		c-17.9,8.4-35.5,17.4-54,24.5c-12.2,4.7-24.6,7.8-37.8,7.9c-4.1,0-7.7-1.4-11.4-2.5c-1.2-0.3-2.2-1.5-2.7,0.6
		c-3.2-5-3.2-8.3,1-13.6c4.2-5.3,8.6-10.5,13.2-15.5c16-17.2,31.8-34.7,50.5-49.1c5.4-4.2,11.1-7.9,16.9-11.3c1.4-0.8,2.6-1.9,4-2.8
		c4.3,0,7.4-2.9,11-4.7c2.9-1.4,6.4-1.5,8.6-4.2c2.4,0.6,4-1.4,6-1.8c4.9-1.1,9.5-3.7,14.3-4.2c10.5-1.2,21.2-1.3,31.6,0.1
		C259.6,237,262.3,238,265.3,237.4z M310.1,282.5c-2-3.4-3.9-5.9-6.1-8.3c-8.6-9.4-19.1-16.1-30.5-21.4
		c-14.9-6.9-30.3-10.1-46.7-6.4c-28,6.4-51.5,20.7-72.1,40.2c-11,10.4-21.6,21.2-31.7,32.5c-4.9,5.4-9.5,11.1-14.3,16.7
		c-1.3,1.5-1.3,2.1,0.9,2.5c5.3,1.1,10.5,0.5,15.8,0c15.9-1.3,30.9-6,45.5-11.8c19.4-7.7,37.6-17.9,56.4-26.9
		c10.6-5.1,21.7-8.5,33.1-11.4C276.5,284.2,292.9,282.8,310.1,282.5z"/>
	<path class="st5" d="M204.7,242.5c-2.2,2.8-5.8,2.8-8.6,4.2c-3.5,1.7-6.7,4.6-11,4.7c1.4-6.2,5.4-10.9,9.5-15.2
		c13.9-15,31.5-22.2,51.8-21.9c7.9,0.1,15.6,2.6,23,5.3c-0.8,3.6-1.7,7.1-2.5,10.7c-10.9-4.2-22-6.4-33.7-4.2
		c-11.1,2.1-20.6,7.3-29,14.6C203,241.8,203.4,242.2,204.7,242.5z"/>
	<path class="st7" d="M208.1,320.1c2-0.9,3.7-2.5,6.6-2.5c-1.2,2.4-2.7,4.1-4.8,5.2C210.1,321.3,208.7,320.9,208.1,320.1z"/>
	<path class="st6" d="M327.4,67.4c-0.6-0.1-1.2-0.2-1.3-0.9C326.7,66.6,327.3,66.7,327.4,67.4z"/>
	<path class="st8" d="M149.5,441.5c-14.8-1-28.6-1.7-42-5.5c-4-1.1-4.5-3.9-5.5-6.5c-1.4-3.6-2.9-7-5.6-9.8c-1.7-1.8-0.3-2.4,0.8-3
		c3.5-2.1,7.1-4.1,10.7-5.9c12.1-6.1,23.8-13.1,35.4-20.2c10.1-6.2,19.2-13.7,28.5-20.9c16.2-12.4,31-26.4,45.6-40.6
		c6.5-6.3,12.3-13.4,18.1-20.4c2.9-3.5,6-3.3,8.4,0.5c4.1,6.6,9.9,12,14.3,18.4c2.7,3.9,6.6,6.8,8.3,11.5c0.8,2.1,3.1,3.7,4.8,5.4
		c3.1,3.2,3,5.1,0.3,8.4c-5.3,6.4-11.1,12.3-17.5,17.6c-1.1,0.9-3.4,2.3-2.1,3.8c1.5,1.9,3.5,0.1,4.9-1.1c5.4-4.6,11-8.9,15.8-14.1
		c0.8-0.9,1.7-1.6,2.9-2.2c2.9-1.5,4.6-1.2,7,1.7c3.3,4.1,6.4,8.4,9.7,12.5c2.3,2.8,1.5,5.2-0.7,7.5c-10.4,10.9-21.8,20.3-34.3,28.7
		c-11.7,7.9-23.9,14.9-37,20.1c-15.7,6.2-31.9,10.1-48.7,12.3C163.9,440.8,156.1,440.2,149.5,441.5z"/>
	<path class="st9" d="M352,299.9c1.2-5.6,3.9-10.7,5.6-16.1c0.8-2.4,1.9-1.4,3.2-0.3c6.8,6.2,12.1,13.6,16.7,21.5
		c9.1,15.8,14.1,33.1,17.2,51c2.4,13.6,4.6,27.3,11.5,39.7c3,5.4,6.3,10.8,12.1,13.8c0.3,0.7,1,0.8,1.6,0.8c0.1,0.1,0.2,0.1,0.3,0.2
		c-0.1-0.1-0.2-0.1-0.4-0.2c-0.3-0.7-1-0.8-1.6-0.8c-0.7-3.5-4.1-4.9-5.9-7.6c-7.3-10.5-9.9-22.5-12.1-34.7c-2.4-13-3.8-26.3-7.8-39
		c-5.5-17.8-14.2-33.7-27.9-46.7c-1.7-1.6-5.5-3.4-3.9-5.9c1.3-2.1,4.5,0.5,6.8,1.1c17.2,4.6,27.1,16.7,33.4,32.5
		c6.1,15.3,9.4,31.3,11.9,47.6c2.3,15.5,3.4,31.2,7.2,46.5c0.6,2.5,1.4,5,2.3,7.4c0.9,2.6-0.1,3.7-2.5,3.6
		c-13.4-0.6-25.4-4.2-33.9-15.6c-2.8-3.7-4.4-8.1-7.7-11.4c-0.2-0.3-0.4-0.6-0.7-0.9c-0.1-0.9,0-1.8-0.8-2.4
		c-0.6-1.9-1.3-3.9-1.9-5.8c0-1.1,0.5-2.3-0.7-3.1c-0.1-1.1,0.3-2.4-0.8-3.3C370.8,346.5,367.9,321.3,352,299.9z"/>
	<path class="st9" d="M325.2,293.1c-0.1-4.1-2.3-7.5-3.4-11.4c3.3-3.9,2.8-8.9,3.9-13.4c2-7.7,2.8-15.7,4.7-23.4
		c2.5-10.1,3.7-20.5,6.2-30.6c1.9-7.4,2.5-14.9,4.6-22.2c2.1-7.2,2.6-14.9,4.3-22.3c2.3-10,3.6-20.3,6.8-30.1c0.2-0.7,0.9-1.3,1.4-2
		c2.4,6.8,3,14,4,21c2.5,17.8,2.9,35.7,2.5,53.7c-0.4,19.8-3.5,39.1-8.9,58.1c-2.4,8.2-5.4,16.2-8.3,24.3
		C337.1,294.3,331.1,293.7,325.2,293.1z"/>
	<path class="st8" d="M352,299.9c15.9,21.4,18.8,46.7,21.3,72c-1.2,0-1.2,0-1.5-0.9c-2.9-7.8-4.8-15.8-6.6-23.9
		c-2.9-12.8-6.3-25.3-15.4-35.3c-1.4-1.6-1.2-3.2-0.4-4.9c1-2.2,1.6-4.6,2-7C351.6,299.8,351.8,299.8,352,299.9z"/>
	<path class="st8" d="M374.1,375.2c1.2,0.8,0.7,2,0.7,3.1C373.9,377.4,374.3,376.2,374.1,375.2z"/>
	<path class="st7" d="M376.7,384c0.9,0.6,0.8,1.5,0.8,2.4C376.4,385.9,376.7,384.9,376.7,384z"/>
	<path class="st8" d="M204.7,242.5c-1.3-0.3-1.7-0.7-0.5-1.8c8.4-7.3,17.9-12.5,29-14.6c11.7-2.2,22.8,0,33.7,4.2
		c0.2,2.5-2,4.5-1.6,7.1c-3,0.5-5.7-0.4-8.6-0.8c-10.5-1.4-21.1-1.3-31.6-0.1c-4.9,0.6-9.5,3.1-14.3,4.2
		C208.6,241.2,207,243.2,204.7,242.5z"/>
	<path class="st9" d="M310.1,282.5c-17.2,0.2-33.6,1.7-49.8,5.7c-11.4,2.9-22.5,6.3-33.1,11.4c-18.8,9-37,19.1-56.4,26.9
		c-14.7,5.8-29.6,10.5-45.5,11.8c-5.3,0.4-10.5,1-15.8,0c-2.2-0.5-2.2-1.1-0.9-2.5c4.8-5.6,9.4-11.2,14.3-16.7
		c10.1-11.3,20.7-22.1,31.7-32.5c20.6-19.5,44.2-33.8,72.1-40.2c16.4-3.7,31.8-0.5,46.7,6.4c11.4,5.3,21.9,12,30.5,21.4
		C306.2,276.6,308.2,279.2,310.1,282.5z"/>
	<path class="st7" d="M418.3,409.4c0.7,0,1.3,0.1,1.6,0.8l0,0C419.3,410.2,418.7,410.1,418.3,409.4
		C418.4,409.4,418.3,409.4,418.3,409.4z"/>
	<path class="st7" d="M420,410.2c0.1,0.1,0.2,0.1,0.4,0.2C420.2,410.4,420.1,410.3,420,410.2C420,410.2,420,410.2,420,410.2z"/>
</g>
</svg>
