<svg xmlns="http://www.w3.org/2000/svg" xmlns:xlink="http://www.w3.org/1999/xlink" viewBox="0 0 181.48 232.55"><defs><style>.cls-1,.cls-10,.cls-11,.cls-12,.cls-13,.cls-14,.cls-15,.cls-17,.cls-18,.cls-19,.cls-2,.cls-20,.cls-21,.cls-22,.cls-23,.cls-24,.cls-3,.cls-6,.cls-8,.cls-9{fill-rule:evenodd;}.cls-1{fill:url(#Градієнт_без_назви_122);}.cls-2{fill:#a56447;opacity:0.39;}.cls-10,.cls-18,.cls-19,.cls-2{isolation:isolate;}.cls-3{fill:url(#Градієнт_без_назви_123);}.cls-4{fill:#df9478;}.cls-5{opacity:0.42;}.cls-6{fill:#88271b;}.cls-7{opacity:0.24;}.cls-8{fill:#996a87;}.cls-9{fill:#776999;}.cls-10{fill:#a14224;opacity:0.5;}.cls-11{fill:#945629;}.cls-12{fill:url(#Градієнт_без_назви_124);}.cls-13,.cls-16{fill:#2c130f;}.cls-14{fill:#592f23;}.cls-15{fill:#997b69;}.cls-17{fill:url(#Градієнт_без_назви_125);}.cls-18{fill:#cc2038;opacity:0.71;}.cls-19{fill:#f8b0b0;opacity:0.62;}.cls-20{fill:#f7b6cb;}.cls-21{fill:url(#Градієнт_без_назви_126);}.cls-22{fill:#82a799;}.cls-23{fill:#1d2112;}.cls-24{fill:#fff;}</style><linearGradient id="Градієнт_без_назви_122" x1="-356.16" y1="-565.79" x2="-360.92" y2="-478.19" gradientTransform="translate(-486.26 -167.03) rotate(150.59)" gradientUnits="userSpaceOnUse"><stop offset="0" stop-color="#e38d46"/><stop offset="1" stop-color="#fec556"/></linearGradient><linearGradient id="Градієнт_без_назви_123" x1="-351.7" y1="-554.72" x2="-320.52" y2="-642.01" gradientTransform="translate(-486.26 -167.03) rotate(150.59)" gradientUnits="userSpaceOnUse"><stop offset="0" stop-color="#dd6833"/><stop offset="1" stop-color="#a75d26"/></linearGradient><linearGradient id="Градієнт_без_назви_124" x1="-360.06" y1="-460.91" x2="-356.95" y2="-529.76" gradientTransform="translate(-486.26 -167.03) rotate(150.59)" gradientUnits="userSpaceOnUse"><stop offset="0" stop-color="#5f2915"/><stop offset="1" stop-color="#3d2115"/></linearGradient><linearGradient id="Градієнт_без_назви_125" x1="-170.1" y1="-811.98" x2="-159.96" y2="-837.18" gradientTransform="translate(-598.21 -477.29) rotate(140.72)" gradientUnits="userSpaceOnUse"><stop offset="0" stop-color="#ef3a2f"/><stop offset="1" stop-color="#9f1c20"/></linearGradient><linearGradient id="Градієнт_без_назви_126" x1="-177.99" y1="-761.53" x2="-165.52" y2="-813.66" gradientTransform="translate(-598.21 -477.29) rotate(140.72)" gradientUnits="userSpaceOnUse"><stop offset="0" stop-color="#63a444"/><stop offset="0.53" stop-color="#4c883e"/><stop offset="1" stop-color="#204a23"/></linearGradient></defs><title>0</title><g id="Шар_2" data-name="Шар 2"><g id="Шар_1-2" data-name="Шар 1"><path class="cls-1" d="M160.9,63.75c3.43,4.06,7.9,9.79,1.56,16.85-1.44,1.62-2.3,4.87-2.92,6.86-1.57,5-3.37,9.91-5.21,14.85-7.7,20.61-25.26,38.62-42,52.2-15,12.17-33.69,24.36-53.55,25.79C47,181.14,36,178.62,26.35,172c-2.51-1.72,9.21,11.05,6.54,9.64-4.16-2.21-15.42-18.73-19.34-16.52C8.46,168-1,159.8.09,146.69c2.46-28.26,25.9-76.57,81.85-93C90.44,51.24,141.89,41.24,160.9,63.75Z"/><path class="cls-2" d="M150.55,56c5.24,5.16,8,8.17,5.42,15.26-1.5,4-4.75,7.94-7.74,11a45.65,45.65,0,0,1-13.12,9.88c-3.18,1.5-6.77,1-9.8,2.34s-2.33,3.83-2.84,7.15a24.5,24.5,0,0,1-4.8,11.07c-5.76,7.82-16.53,14.47-26,16.52-6.46,1.39-11.07.7-16.89-1.58-.72,2.42-.47,4.49-2.17,6.73-2.5,3.3-7.3,5.95-11.17,7.52-1.85.74-4.54,1.57-6.54,1.27-2.18-.32-3-2.26-4.79-2.7-3.84-1-3.87,2.28-5.11,4.89-3.54,7.45-12.78,11.17-20.62,11.4-3.91.12-5.27-2.86-8.58-3.43-2.92-.49-2.87,2-4.68,3.85C9,159.3,4.6,162,2,159.22c5.14,5.49,6.6,7.1,11.58,5.89,9.53-2.32,7.88,7,33.41,5.52,8.3-.48,16.72-.13,24.57-3,9.83-3.58,19.16-8.28,28.54-12.9,18.3-9,32.77-21.91,47.22-36.14,7.39-7.26,15.72-15.9,14.08-27-.41-2.78-1.63-5.42-.82-8.18.64-2.2,2.56-3.6,3.49-5.64,3-6.53-2.21-13.89-7.24-17.79Z"/><path class="cls-3" d="M19,164.25a21.76,21.76,0,0,0,21.25,1.57c6.56-3,11.87-8.17,16.2-14,8.27-3.23,16.57-6.57,24.54-10.5.73,0,1.47-.07,2.2-.14,2.39-.1,4.77-.21,7.14-.49h0c.45,0,.89-.08,1.34-.15a4.47,4.47,0,0,0,1.55-.5c17-3.47,30.36-16,38.47-31.17,1.2-.87,2.42-1.74,3.61-2.64A119.13,119.13,0,0,0,149.55,94,58.82,58.82,0,0,0,163,80l18.47,100.77L181,181c-22.25,31.51-52,49.69-91.1,51.3l-.47.26L13.54,165.13C15.36,164.89,17.18,164.59,19,164.25Z"/><path class="cls-4" d="M135.29,106.27c.23-.18.46-.36.7-.53,11,33.23,30.37,89.33,31.29,92h0l-35.2-89.08C133.15,107.85,134.23,107.06,135.29,106.27Z"/><path class="cls-4" d="M143.79,99.43l28.06,93.27h0l-32.13-89.86Q141.79,101.2,143.79,99.43Z"/><path class="cls-4" d="M159.85,84.22,179,183.74l0,0-23.72-94.7A54,54,0,0,0,159.85,84.22Z"/><path class="cls-4" d="M149.56,94c.83-.65,1.64-1.32,2.44-2l23.27,96.61,0,.05L147.14,96.37C148,95.59,148.77,94.79,149.56,94Z"/><path class="cls-4" d="M105.31,135.83l40,79.89,0,0L101.91,137.4C103.06,136.92,104.19,136.39,105.31,135.83Z"/><path class="cls-4" d="M64.1,148.85l55.33,78.41L59.6,150.64Z"/><path class="cls-4" d="M51.52,157.64l59.27,72L48.53,160.44C49.57,159.55,50.57,158.62,51.52,157.64Z"/><path class="cls-4" d="M129,113.56l34.41,88,0,0-38-82.9Q127.31,116.22,129,113.56Z"/><path class="cls-4" d="M56.43,151.88l1.08-.42,56.66,77.38L53.71,155.26C54.66,154.16,55.56,153,56.43,151.88Z"/><path class="cls-4" d="M40.24,165.82l.19-.1,61.31,65.35L35.25,167.44A23.1,23.1,0,0,0,40.24,165.82Z"/><path class="cls-4" d="M14.79,165l76.8,67.21L70,215.28,13.54,165.12Z"/><path class="cls-4" d="M31.84,167.85l63.91,63.52-73-64.71L16,164.78c1-.15,2-.33,3-.51A22.66,22.66,0,0,0,31.84,167.85Z"/><path class="cls-4" d="M46.47,162.09l58.7,68-62.9-65.27A34.88,34.88,0,0,0,46.47,162.09Z"/><path class="cls-4" d="M110.65,132.72l37.89,80.89h0l-40.66-79.16C108.82,133.91,109.74,133.33,110.65,132.72Z"/><path class="cls-4" d="M116.69,128.09l36.45,82.23h0l-39.79-79.5C114.49,130,115.6,129,116.69,128.09Z"/><path class="cls-4" d="M122.49,122.27,158,206.42h0l-38.49-81Q121.07,123.91,122.49,122.27Z"/><path class="cls-4" d="M83.18,141.22c1.18-.05,2.35-.1,3.51-.18l47.74,80.65,0,0L84.77,144.94l-2.64-3.63Z"/><path class="cls-4" d="M78.47,142.61l51,81.26h0l-54.19-79.8C76.38,143.59,77.43,143.1,78.47,142.61Z"/><path class="cls-4" d="M91.66,140.58a5,5,0,0,0,1.59-.52c.56-.11,1.12-.23,1.69-.37l45.93,78.66h0L91.2,140.63Z"/><path class="cls-4" d="M71.4,145.8l53.81,79.74h0l-58-77.95Q69.28,146.72,71.4,145.8Z"/><g class="cls-5"><path class="cls-6" d="M19,164.26a21.77,21.77,0,0,0,21.23,1.56l.35-.17c20.89,16.68,40.1,26.1,69,29.75,15.2,1.92,34.93-.51,48.3-8.37,10-5.87,17-12.82,20.8-21.61l2.8,15.3L181,181c-22.25,31.52-52,49.69-91.1,51.3l-.47.27L13.55,165.12Q16.28,164.77,19,164.26Z"/></g><g class="cls-7"><path class="cls-8" d="M131.68,108.91c1.21-.88,2.42-1.75,3.61-2.64A120.1,120.1,0,0,0,149.56,94a58.63,58.63,0,0,0,13.45-14l1.47,8c-8.89,11.77-25.9,16.29-26.73,26.46-2.18,27-26.47,35.22-36.21,31.54-5.43-2.05-3.83-5.35-7.57-6.06C113.7,135.24,126,119.65,131.68,108.91Z"/><path class="cls-9" d="M19,164.25a21.76,21.76,0,0,0,21.25,1.57c6.56-3,11.87-8.17,16.2-14,8.27-3.23,16.57-6.57,24.54-10.5.73,0,1.47-.07,2.2-.14,2.39-.1,4.77-.21,7.14-.49h0c.45,0,.89-.08,1.34-.15A4.55,4.55,0,0,0,93.3,140c.22,0,.44-.07.66-.12-4.64,5.48-9.41,16.77-15.79,20.28-4.09,2.25-5.91,1.87-10.71-.05-7.28-2.9-9.52-4.47-17.15.33-4.26,2.67-2.94,18.79-19,20.45l-17.78-15.8C15.36,164.89,17.18,164.59,19,164.25Z"/></g><path class="cls-10" d="M76.82,130.46c8,.79,16.69,2,24.54-.19,4.94-1.37,9.26-4,13.9-6.28,1.79,5.93-16.41,13-20.74,13.9-5.68,1.23-15.86.72-17.19-6.52Z"/><path class="cls-10" d="M59,148.67c-3.94.83-7.38-2-9.2-5.54,1.18-1,5.49,1.65,7.2,1.88a21.47,21.47,0,0,0,9-1.11,17,17,0,0,0,5.8-3c1.23-1.06,1.92-2.8,3.3-3.62C76.05,138.31,75,145.29,59,148.67Z"/><path class="cls-10" d="M15.09,155.68c3,5.36,5,8.3,10.93,9.95,3.87,1.07,8.61.21,12.42-1.23a29.31,29.31,0,0,0,9.83-6.53A44.14,44.14,0,0,0,52,154.06c1-1.29,1.59-1.8.68-3-.5-.67-1.34-1-1.8-1.73-3.21,1.6-5.7,4.13-8.78,5.9A29.56,29.56,0,0,1,30.71,159a21.73,21.73,0,0,1-8.77-1c-1.63-.48-4.87-1.31-5.79-2.86Z"/><path class="cls-10" d="M5.37,161.36c1.54.62,13.16,5.06,10.52-1.16-2.28-5.38-3.5,2.52-6.55,1.5Z"/><path class="cls-10" d="M125.84,97.5c8.66-1.31,15.65-4.73,23.33-8.61,3-1.53,7-3.37,9.3-5.77.11,1.67-2.27,3.24-3.4,4.23-1.78,1.57-3.43,3.2-5.3,4.63-3.15,2.4-6.19,5-9.44,7.26-3.06,2.1-5.83,4.5-9.2,6.18-1.45-2.3-3.55-4.64-4.62-7.1Z"/><path class="cls-11" d="M136.39,50.27c1.66,1.26,1.06.43,2.61,1.82,5.26,15-19,2.15-25.4,6.87,1.13,2.83,6.43,4.89,8.79,6.66a54.57,54.57,0,0,1,7.91,6.64c2.85,3.18,4.73,8.44,1.36,12-4.85,5.1-13.92-.92-18.54-3.8-3.13-2-9.65-7.42-13.59-6.1.27,4.5,6.36,8.43,5.81,13-.94,7.71-10.53,5.14-14.38,1.9-1.89-1.58-3.21-3.83-6.11-3.42s-3.79,3.41-3.85,6,9.9,17.19,0,29c-5.4,6.44-19.35-13-21.54-15.51-1.49-1.74-2.18-3.6-5.41-2.72-6.07,1.66-.87,24.68-3.82,27.5-2.63,2.52-4.75,8.36-10.65,1.19l-.32-56.62Z"/><path class="cls-11" d="M40,128.42c.23,1.37-1.4-16.43-4.06-17.34-3.42-1.16-5.63,6.52-6.43,8.34-2.36,5.32-5.2,10.71-9.63,14.58-3.72,3.26-7.91,4.19-9.3-1.55-.54-2.27.2-4.45-2.36-4.34-1.6.08-4,1.9-5.19,2.89-2.75-2.67,3-8.88,4.51-10.84C13.84,111.65,25,94.71,35.89,92.72Z"/><path class="cls-12" d="M59.75,57.65c20.43-10.24,43.11-13.45,65.61-10.41,2.36.32,16.52,1.5,13.65,6-2.34,3.7-11.17,3.29-14.75,3.52-3.21.22-11-.72-13.48,1.38,1.08,2.18,4.72,3,6.81,4.1,3.18,1.63,7.78,2.55,10.36,5,3.34,3.16,6.61,9.88.6,13.66s-14.07-1-19.56-3.62c-2.89-1.35-7.44-4.87-10.59-3.54.68,2.94,4.83,8.74,3.25,11.79-1.16,2.26-6,2.86-8.08,2.52-2.88-.46-4.95-3.33-7.86-3.41-6.19-.16-5.46,6.24-4.84,10.49.76,5.11,2.16,9.8,1.58,15-.68,6.1-6.17,9.84-11.83,6S62.85,105.33,58,101.06c-1.66-1.45-4.8-2.64-6.71-.79-2.37,2.3-1.48,8.92-1.4,11.83.1,4.23.19,26.8-10,20.81-6.4-3.75-4-15.25-6.18-21.15-.7-1.83-1.95-3.33-4.25-2.14-2.57,1.33-3.28,7.25-4.24,9.85A28.82,28.82,0,0,1,14.84,133c-1.83,1.4-4.58,3.91-6.46,1.26-1.07-1.5-.6-4-.59-5.69,0-1,.62-4.8-.34-5.42-1.6-1-4.32,6.89-4.84,7.85-4-1.66,2-11.85,3.22-15.63C17.7,77.45,59.75,57.65,59.75,57.65Z"/><path class="cls-13" d="M110.28,56.82c1.3-5,11.07-4.13,15.2-3.57,2.12.29,14-.38,12.11.45C128,57.8,112.23,53.73,110.28,56.82Z"/><path class="cls-14" d="M128.38,51.16a50,50,0,0,0,6.1.86c.6,0,2.58.16,2.54-.61s-2.82-1.79-3.47-2.07c-2.25-1-20.93-2.8-21.7-2.38C112.2,47,122.22,50.1,128.38,51.16Z"/><path class="cls-15" d="M136.21,51.49a23.35,23.35,0,0,0-8.32-2.8l.75,0A32.31,32.31,0,0,1,134.46,50c.62.39,2.35,1,2,1.49Z"/><path class="cls-16" d="M100,72.14c.09-.08.3-.33.47-.5l.38-.25a18.6,18.6,0,0,1,4.57-1.28c4.72.35,8.61,2.63,12.8,4.54,2.75,1.25,12,1.92,10.45-3.25,1.86,2.76,3.21,6-.2,8.21a9.87,9.87,0,0,1-8.25,1.23c-7.11-1.89-12.54-8.16-20.22-8C100,72.59,100,72.37,100,72.14Z"/><path class="cls-13" d="M99.24,78.79c1.36,3,3.15,6.15-.62,7.64a9,9,0,0,1-6.31-.16c-3.13-1.17-9.35-4.6-12.12-1.1-.59-5.68,8.64-4,11.46-3,3.6,1.19,7.44,1.88,8-2.87Z"/><path class="cls-16" d="M81.31,105.73c.26,4.23.64,7.63-2.89,10.24a5.85,5.85,0,0,1-7.25-.24c-2.38-2-4-5.5-5.65-8.11-1.77-2.79-3.63-6.25-6.53-8,3.5-.3,7,4,9.17,6.23,1.72,1.72,3.67,4.86,6.1,5.63,4.43,1.4,6.83-3.81,7.22-7Z"/><path class="cls-16" d="M45.87,128c-.85,1.48-2.35,3.3-4.17,3.25a4.59,4.59,0,0,1-4.41-4.44c4.37,3.11,5.83-5.88,7-8.63,1-2.33,1.54-9.92,1.79-11.44.4-2.42-1-14.76,9-9.24a2.62,2.62,0,0,1,.61.35c-2.39.34-5,.24-6.4,2.65S49.61,121.5,45.87,128Z"/><path class="cls-16" d="M26.34,110c-.8,1.43-3.48,11.43-5.24,14.35-1.16,1.91-9.14,10.32-11.3,7.91-1.75-1.95,1.52-9.07-1.5-10-2-.63-2.57,2.37-3.13,3.59a34.83,34.83,0,0,0-2.11,5c-2.77-1.48,3.06-11.74,6.8-9.77,2.33,1.23.6,5.5,4.5,2.69,4.46-3.21,7.32-7.07,8.48-12.27,1.2-5.37,10-9.82,9.8-3.41C32,107.25,28.79,105.71,26.34,110Z"/><path class="cls-14" d="M126.88,68.9c1.93,3.6-2.22,4.1-4.83,3.47-3.18-.79-8.62-3.07-10.2-6.44-2.21-4.73,6-2.56,7.62-1.52C119.48,64.41,125,65.36,126.88,68.9Z"/><path class="cls-14" d="M99.16,69.05c-3,1.32-4.23,5.17-3.51,7.15.56,1.57,1.66,3.35-.42,4.22-2.27,1-6.24-1.1-8.47-1.61a9.41,9.41,0,0,0-6.84.84c-2.27-3.74,6.69-5.74,8.51-6.35a9.39,9.39,0,0,0,4.13-2.57C97.87,64.7,99.16,69.05,99.16,69.05Z"/><path class="cls-14" d="M78.4,99c.14,1.9.61,4.27.13,6.13-1.87,7.32-9.27-2.32-11.76-4.3-3.06-2.44-11.47-4.45-8.84-9.94,2.25-4.7,7.22-1.1,11-2.56a26.53,26.53,0,0,0,5.38-3.07c1.19-.83,2.7-1.76,2.89.55C77.19,85.79,78,94.07,78.4,99Z"/><path class="cls-14" d="M42.41,120c-.48,1.09-1.12,3.24-2.2,3.87-2.24,1.3-2.47-1.88-2.72-3.43-.74-4.6-1.66-10,0-14.48.7-1.85,4.64-10.34,7.16-5.66a6.84,6.84,0,0,1,.35,1S44.81,114.46,42.41,120Z"/><path class="cls-14" d="M21.28,107.93c-.92,4.94-1.81,7.86-5.36,11-1.35,1.19-5,3.41-4.68-.3.11-1.34,1.7-2.69,2.4-3.78A35.11,35.11,0,0,1,16.22,111c1.28-1.55,4-4.87,6.25-4.17Z"/><path class="cls-15" d="M123.89,68c.18,1.37-1,.91-1.93.49s-5-3.06-2.95-3.85C119,64.68,123.64,66.13,123.89,68Z"/><path class="cls-15" d="M94,74.57q.06,1.71,0,3.42a4.38,4.38,0,0,1-6.14-.82l0,0c1.15-1.81,5.45,2,5.82-2.08Z"/><path class="cls-15" d="M75.45,94.27c.07.44,1.62,7.71.31,8.49-1.9,1.12-2.36-3.67-2.58-4.52-.28-1.11-2.48-3.9-1.67-5.07s2.39,2.64,2.9,3.45c1.1-.48.24-3,1.38-3.88Z"/><path class="cls-15" d="M40.23,117.24c-.19.51-.34,1.85-1.06,1.49-1-.47-.1-3.46,0-4.2.54-3.14,1.41-6.13,2.08-9.22.14-.63.24-2,.9-2.33.82-.47,1.46.67,1.4,1.64C43.57,104.62,41.66,113.29,40.23,117.24Z"/><path class="cls-15" d="M19.25,109.37a33.28,33.28,0,0,1-1,4.62c-1.28,3.24-2.8,3.9-5.28,5.14-.39-1.09,1.72-1.24,4.32-5.8.91-1.61,1.35-3.3,2.35-4.81.24-.07.1.11.25.17Z"/><path class="cls-13" d="M43.72,71.86l12.05-6.24a21.85,21.85,0,0,1,9.26-3c.78-.06,3.29-.28,3.66.77.52,1.5-3.88,4.1-4.75,4.66-2.6,1.68-5.35,3.26-8,4.78-3.32,1.89-7.38,4.37-11.38,4-.87-.09-2.89-.48-3.39-1.34C40.42,74.25,42.8,72.45,43.72,71.86Z"/><path class="cls-17" d="M37.55,41.23c8.15-.7,5.78-2.31,11.23-5.75,2.25-1.43,4.59-2.81,7.54-2.86,7.55-.11,12.29,7,12.93,14.85a23.92,23.92,0,0,1-11.88,22.2c-9,5.1-22-1.92-27.4-14.52-2.44-5.72.43-12.13,6.9-13.48.5-.1.41-.41.68-.44Z"/><path class="cls-18" d="M39.57,41.88c5.06.19,4.24-2.06,6.88-2.81.25-.07,3.21-2.88,3.8-.3.45,2-2.16,6.78-4.31,7.34-8.32,2.19-12.74-3.42-7.26-4.22.62-.09.12,0,.89,0Z"/><path class="cls-19" d="M52.2,37.09c2.53-2.71,7.63-2.27,10.19.28,3.22,3.18,3.86,5.85,4.46,10.16.45,3.27-1.23,8.14-3.24,10.61-.28.34-.19.33,0-.68,1.07-5.6,2-4.72.9-11.37-.35-2.1-2.28-5.31-4.17-6.4-4.13-2.36-4.61-.85-7.39-1.61-.42-.12-.71-1-.76-1Z"/><path class="cls-19" d="M33.86,45.17a9.75,9.75,0,0,0-2.11,9.61c1.53,5.5,6.1,9.82,12.08,12.69.94.45-.34-.45-1-1.08-3.47-3.11-11-11.32-7.66-16.4,1.29-2,1.33-3.87-.75-5.15-.32-.19-.21,0-.51.33Z"/><path class="cls-20" d="M36.21,52.7c1.52,2.64,1.6,4.95,4,8.24,1.39,1.86,4.29,5.53,6.29,6.66.18.1,2.12,1.49,2.25,1.64-.53.52-6.58-1-7.53-1.63-1.76-1.13-3.16-1.81-4.86-3,6.25,6.17,14.59,8.61,21,5A23.81,23.81,0,0,0,68.85,53.61C66,57,61.84,64.14,58.93,64.9c-1.13.29.32-1,.87-2.43,1.26-3.35,1.68-4.7,1.19-8.23-.17-1.19-1.49.69-2.3,1.36C54.55,59,51.4,58.74,46.37,58c-2.55-.35,1,.79,4.61-2.18.92-.76-.37-.08-1.87,0-4.33.29-5.45-.13-9-2.58-1.84-1.27-3.16-4.56-4-2.86a4.41,4.41,0,0,0,.05,2.28Z"/><path class="cls-21" d="M16.26,0A33.31,33.31,0,0,1,36.42,14.25C46.1,28.51,44.05,41,44.59,41.13s1.81-.62,1.89.62c.12,1.81-3.95,3.34-5.33,1.38-.49-.7,1.37-.55,1.32-2C42,29.94,41.55,26.75,34.9,17.26c-4-5.71-8.69-9.83-15.5-11.07-1.78-.32-.3,1.39-1.73.85-2.44-.92-2.4-7.29-1.41-7Z"/><path class="cls-22" d="M16.26,0l.2,0c-.54,2,1.15,7.27,2.76,4.41,1.14-2,6.14,1.83,7.41,2.63a85.68,85.68,0,0,1,8.39,8A39.2,39.2,0,0,1,43.63,42c-2.78,1,1,2.27,2.85-.05-.1,1.74-4,3.14-5.33,1.23-.49-.7,1.37-.55,1.32-2-.43-11.18-.91-14.37-7.56-23.86-4-5.71-8.7-9.83-15.51-11.07-1.77-.32-.3,1.39-1.73.85-2.43-.92-2.4-7.28-1.41-7Z"/><path class="cls-23" d="M17.81,1.16c3.31,1,.17,5.37-.37,1.09C17.38,1.78,17.68,1.13,17.81,1.16Z"/><path class="cls-19" d="M60.28,42.41c-3.51-5.74-12.35.93-5.1,4.92C61.6,50.87,63.69,48,60.28,42.41Z"/><path class="cls-19" d="M58.25,49.35c6.24.34,2.33,6.68-.11,1.23C58,50.19,58,49.34,58.25,49.35Z"/><path class="cls-24" d="M54.51,42.29c5.15-3.53,5.93,3.87.67,1C54.8,43.13,54.32,42.42,54.51,42.29Z"/><path class="cls-24" d="M58.56,46.79c-3.88.75-2.45-3.75-.12-.77C58.61,46.23,58.71,46.76,58.56,46.79Z"/></g></g></svg>