<svg id="Слой_1" data-name="Слой 1" xmlns="http://www.w3.org/2000/svg" viewBox="0 0 300 300"><defs><style>.cls-2{fill:#af4b08}.cls-3{fill:#6d2d01}.cls-4{fill:#7f3604}.cls-5{fill:#6c8187}</style></defs><path fill="#964005" d="M76 28l-1 40v47l1 53-1 12 157-1V71l-2-54-7-2h-83l-55 2-10 3 1 8z"/><path class="cls-2" d="M223 15h-83l-55 2s-9 0-10 3c-1 1 1 8 1 8l-1 40v47l1 53-1 12h7l1-87 1-67 19-4 60-1 58 1h9v-5l-7-2z"/><path class="cls-3" d="M75 21l1 7-1 40v47l1 53-1 12h7l1-87 1-67-9-5zM91 34l1 20v26l35 1 2-47H91zM137 30l1 49h35V31l-36-1zM181 31l1 47 38-1 1-45-40-1zM91 89h38l-1 47-39-1 2-46zM139 88l1 33-1 14 39-1 1-46h-40zM184 87l2 45h40l-2-44-40-1zM90 141l38 2-1 40-39 1 2-43zM140 143l-1 42 39-1 1-41h-39zM186 142l-1 41h41l-1-39-39-2z"/><path class="cls-4" d="M99 42v33l11 2h13V40l-24 2zM144 37v38h25V50l1-13h-26zM188 39l1 11v24h27l1-14V39h-29zM98 96v11l-1 20v5l27-1 1-21V95l-27 1zM146 94l2 14-2 24h29l-1-20 1-18h-29zM191 93v36h31l-1-26v-9l-30-1zM96 149v14l1 24 27-1v-36l-28-1zM147 151v9l-1 26h30l-2-19 1-16h-28zM192 150v14l-1 22 33-1-1-21v-13l-31-1z"/><path class="cls-2" d="M99 45l24-2v-3l-24 2v3zM144 41l26 1v-5h-26v4zM217 39h-29v3l9 1 11-1 9-1v-2zM125 95l-27 1v2h27v-3zM146 94v3h12l17-1v-2h-29zM191 93v3l13 3 10-1 7-1v-3l-30-1zM124 150l-28-1v3l8 1h20v-3zM147 151v2l10 2 10-1 8-1v-2h-28zM192 150v3l13 1 13 1h5v-4l-31-1z"/><path class="cls-5" d="M74 170l1 28 1 74 1 10 5 4 78 3h61c11 0 12-3 12-3l1-54v-60l-31-2-53-2-45 1z"/><path d="M83 280c-4-22-1-83-1-83v-28l-8 1 1 28s-2 56-1 75c1 13 8 13 8 13h2l-1-6z" fill="#4a5c60"/><path d="M70 168c6-5 92-1 92-1l74 4c3 1 2 5-1 9a29 29 0 0 1-12 10c-6 2-18 0-23 1-9 1-27 6-35 9-7 3-20 8-26 8s-19-8-19-8l-42-11-7-3c-8-6-4-15-1-18z" fill="#97a6ad"/><path class="cls-5" d="M82 185l23 5 14 6 15 8 1-3-21-11-13-5H82zM145 201l17-9 11-2 1 2-18 7-11 2z"/></svg>