<svg xmlns="http://www.w3.org/2000/svg" width="165.1mm" height="210.002mm" viewBox="0 0 468 595.28">
  <title>компот</title>
  <rect width="468" height="595.28" fill="#bea431"/>
  <g>
    <polygon points="93.79 149.476 156.485 563.143 322.303 563.143 345.154 123.109 93.79 149.476" fill="#d5eef5"/>
    <polygon points="123.673 246.74 176.406 546.151 304.139 542.049 326.99 222.717 123.673 246.74" fill="#9b216a"/>
    <path d="M314.592,246.74c2.19,12.435,63.866,11.133,111.913,6.445s91.991-21.679,91.405-30.468S312.248,233.433,314.592,246.74Z" transform="translate(-190.919)" fill="#cd2c6a"/>
    <path d="M537.31,49.1a13.458,13.458,0,0,0,13.412-2.745l-21.093-7.3S530.864,46.92,537.31,49.1Z" transform="translate(-190.919)" fill="#444d57"/>
    <g>
      <circle cx="196.191" cy="358.954" r="7.885" fill="#cd2c6a"/>
      <circle cx="166.267" cy="336.714" r="5.459" fill="#cd2c6a"/>
      <circle cx="176.983" cy="300.522" r="5.257" fill="#cd2c6a"/>
      <circle cx="217.825" cy="330.042" r="4.448" fill="#cd2c6a"/>
      <circle cx="221.578" cy="301.04" r="3.753" fill="#cd2c6a"/>
      <circle cx="212.972" cy="277.877" r="2.426" fill="#cd2c6a"/>
      <circle cx="279.574" cy="280.708" r="6.874" fill="#cd2c6a"/>
      <circle cx="251.664" cy="328.148" r="5.789" fill="#cd2c6a"/>
      <circle cx="277.694" cy="314.412" r="4.994" fill="#cd2c6a"/>
      <circle cx="286.337" cy="340.363" r="3.649" fill="#cd2c6a"/>
      <circle cx="242.389" cy="387.161" r="2.728" fill="#cd2c6a"/>
      <circle cx="280.525" cy="373.31" r="2.831" fill="#cd2c6a"/>
      <circle cx="207.311" cy="418.195" r="3.235" fill="#cd2c6a"/>
      <circle cx="267.791" cy="428.305" r="6.874" fill="#cd2c6a"/>
      <circle cx="237.437" cy="473.393" r="3.437" fill="#cd2c6a"/>
      <circle cx="201.246" cy="465.103" r="2.831" fill="#cd2c6a"/>
      <circle cx="175.718" cy="391.154" r="3.992" fill="#cd2c6a"/>
      <circle cx="273.137" cy="463.575" r="5.346" fill="#cd2c6a"/>
      <circle cx="210.951" cy="508.775" r="6.874" fill="#cd2c6a"/>
      <circle cx="263.343" cy="486.13" r="2.426" fill="#cd2c6a"/>
      <circle cx="265.567" cy="515.043" r="2.224" fill="#cd2c6a"/>
      <circle cx="181.986" cy="437.808" r="6.268" fill="#cd2c6a"/>
      <circle cx="281.596" cy="397.168" r="2.022" fill="#cd2c6a"/>
      <circle cx="234.303" cy="434.674" r="3.134" fill="#cd2c6a"/>
      <circle cx="306.383" cy="300.118" r="2.831" fill="#cd2c6a"/>
      <circle cx="153.934" cy="281.112" r="3.235" fill="#cd2c6a"/>
      <circle cx="296.035" cy="443.505" r="3.878" fill="#cd2c6a"/>
      <circle cx="286.125" cy="512.213" r="3.437" fill="#cd2c6a"/>
      <circle cx="235.719" cy="528.287" r="1.719" fill="#cd2c6a"/>
    </g>
    <path d="M529.628,129.554,291.155,154.749s29.3,24.609,125.975,17.168C506.941,165,529.628,129.554,529.628,129.554Z" transform="translate(-190.919)" fill="#fff"/>
    <g>
      <path d="M463.62,190.46a159.74,159.74,0,0,0,9.988,20.812l7.3-15.607a143.536,143.536,0,0,1-11.5-18.47Z" transform="translate(-190.919)" fill="#f05430"/>
      <path d="M451.836,217.489a148.65,148.65,0,0,0,10.61,17.653l11.161-23.87a159.74,159.74,0,0,1-9.988-20.812Z" transform="translate(-190.919)" fill="#fffaf2"/>
      <path d="M436.795,251.99l18.652-3.137a201.659,201.659,0,0,1-8.978-19.053Z" transform="translate(-190.919)" fill="#fffaf2"/>
      <path d="M446.469,229.8a201.659,201.659,0,0,0,8.978,19.053l.639-.107,6.361-13.6a148.65,148.65,0,0,1-10.61-17.653Z" transform="translate(-190.919)" fill="#f05430"/>
      <path d="M487.879,134.815a215.03,215.03,0,0,0,8.871,26.965l9.727-20.8a157.658,157.658,0,0,1-10.468-24.81Z" transform="translate(-190.919)" fill="#f05430"/>
      <path d="M469.4,177.194a143.536,143.536,0,0,0,11.5,18.47l15.844-33.885a215.03,215.03,0,0,1-8.871-26.965Z" transform="translate(-190.919)" fill="#fffaf2"/>
      <path d="M550.722,46.352A13.458,13.458,0,0,1,537.31,49.1c-6.445-2.177-7.681-10.047-7.681-10.047l-8.745,20.059a142.154,142.154,0,0,0,11.968,25.462Z" transform="translate(-190.919)" fill="#fffaf2"/>
      <path d="M520.883,59.109l-5.617,12.884c1.371,8.557,4.025,20.126,9.125,30.67l8.46-18.092A142.154,142.154,0,0,1,520.883,59.109Z" transform="translate(-190.919)" fill="#f05430"/>
      <path d="M496.008,116.167a157.658,157.658,0,0,0,10.468,24.81l17.915-38.313c-5.1-10.544-7.754-22.113-9.125-30.67Z" transform="translate(-190.919)" fill="#fffaf2"/>
    </g>
  </g>
</svg>
