<svg xmlns="http://www.w3.org/2000/svg" viewBox="0 0 512 512"><defs><style>.cls-1{isolation:isolate;}.cls-2{fill:#821b36;}.cls-3,.cls-8{fill:#f38f13;}.cls-4{opacity:0.6;}.cls-5,.cls-7{fill:#dd780b;}.cls-6{fill:#e27f13;}.cls-7{opacity:0.44;}.cls-8{opacity:0.66;}.cls-12,.cls-8{mix-blend-mode:multiply;}.cls-9{fill:#f4c898;}.cls-10{fill:#f78279;}.cls-11{fill:#aa504b;}.cls-12{fill:#ed1e79;opacity:0.45;}.cls-13{fill:#c6f1f7;opacity:0.51;}.cls-13,.cls-15{mix-blend-mode:screen;}.cls-14{fill:#ffb7b3;}.cls-15{fill:#f9aa53;opacity:0.28;}</style></defs><title>Урок 3</title><g class="cls-1"><g id="Layer_1" data-name="Layer 1"><polygon class="cls-2" points="231.1 266.81 181.63 181.4 175.12 146.08 356.42 139.41 338.25 198.49 231.1 266.81"/><path class="cls-3" d="M349.61,141.11c-9.56,9.56,2.2,25.07-8.53,33.29s-23.64-8.61-34.36-.38,2.21,25.06-8.51,33.28-23.64-8.61-34.36-.39-1.47,35.49-15,35.48c-10.67,0,1.39-25.6-5.41-33.83s-23.16,5.29-29.95-2.94,9.58-21.73,2.79-30-23.16,5.3-29.95-2.93,9.57-21.74,2.78-30c0,0-10-9.43-14,3.31-3.28,10.49,62.35,248.75,85.57,332.39a7.71,7.71,0,0,0,14.92-.28l80.81-338.78S351.72,139,349.61,141.11Z"/><g class="cls-4"><path class="cls-5" d="M201.85,191.32c3-1.37,6.28,2.08,10.19,7.35,1.4-7.66,9.37-16.83,4.27-23-6.8-8.22-23.16,5.3-29.95-2.93s9.57-21.74,2.78-30c0,0-10-9.43-14,3.31-.84,2.7,2.89,20.52,9.28,46.92C191.06,193.29,198,193.06,201.85,191.32Z"/><path class="cls-5" d="M219,208.34c6.55,8.83,14.78,18,25.77,19.7.83-7.29,2-15.46-1.31-19.48C238.13,202.1,226.88,209.06,219,208.34Z"/><path class="cls-5" d="M349.61,141.11c-9.56,9.56,2.2,25.07-8.53,33.29s-23.64-8.61-34.36-.38c-5.15,4-4.84,9.9-4.32,15.93,3.17-2.3,5.93-3.7,8.16-3.7,9.48,0,20.17,10.56,30.91,15.83l14.95-62.67S351.72,139,349.61,141.11Z"/><path class="cls-5" d="M263.85,206.91c-4.93,3.79-5.63,11.6-6.27,18.94,8.34-3.63,16.95-10.88,24.94-18.2C276.12,205.36,269.66,202.46,263.85,206.91Z"/></g><path class="cls-6" d="M282.87,421.64l1-3c-.3-.1-7.69-2.62-19.52-7.33q8.16-6,16-12.57c5.37,2.14,9.79,3.81,13,5l.75-3.12c-2.83-1-6.54-2.44-11-4.19,5.21-4.41,10.28-8.93,15.2-13.5l1.33-5.59-2.43,2.29c-4.52-1.61-14.08-5.15-26.71-10.44,6.71-5.51,13.22-11.24,19.46-17,5.19,2.25,10,4.24,14.27,6L305,355c-3.8-1.54-8-3.28-12.47-5.22,5.21-4.9,10.23-9.84,15-14.74l2,.87.74-3.14-.38-.17.56-.57,1.46-6.11c-1.67,1.76-3.38,3.54-5.11,5.32-6.22-2.75-12.92-5.83-19.92-9.23,6.1-5.87,11.93-11.77,17.43-17.56,4,1.82,7.86,3.52,11.51,5.09l.74-3.14q-4.75-2.06-9.94-4.4c5.32-5.67,10.31-11.21,14.93-16.5l2.26-9.47c-5.2-2.17-10.95-4.65-17.08-7.43,7.93-8.45,15.13-16.63,21.44-24.08l2.84,1.34.75-3.15-1.48-.69,2.31-2.78,1.68-7.07q-3.24,4-6.95,8.42c-5.93-2.88-11.79-5.92-17.52-9.12,5.79-6.26,11.15-12.33,16-18q5.79,2.81,11.63,5.41l.74-3.13q-5.14-2.31-10.25-4.78c5.88-6.93,11-13.24,15.18-18.59l.58.27,2.16-9c-1.12,1.47-2.35,3.07-3.69,4.78-6.66-3.19-13.25-6.58-19.67-10.18,1-1.16,2-2.31,2.89-3.43l-3.18-1.15c-.82,1-1.66,2-2.52,3-2.69-1.54-5.36-3.13-8-4.76a11,11,0,0,0-3.81,1.37c3.18,2,6.41,4,9.7,5.85-4.54,5.3-9.51,10.92-14.84,16.71a19.92,19.92,0,0,1-.47,5.17l.06-.05c6.66,3.92,13.54,7.62,20.53,11.09-4.85,5.66-10.17,11.67-15.91,17.87-7-4-13.82-8.3-20.27-12.84q3.94-3.9,7.7-7.78a12.2,12.2,0,0,1-4.74.32q-2.74,2.79-5.58,5.6c-4.66-3.38-9.13-6.9-13.36-10.56a11.18,11.18,0,0,0-4,.71,193.3,193.3,0,0,0,15.08,12.11c-8.54,8.33-17.65,16.64-27.18,24.52l-1.48-.86a6.59,6.59,0,0,1-4,1.33l2.86,1.68c-7,5.7-14.24,11.16-21.63,16.21a335.89,335.89,0,0,1-27.71-20.59A196.64,196.64,0,0,0,222.15,225c7.47,5.23,15.13,10.17,22.8,14.83a11.76,11.76,0,0,1-.7-4.14c-6.62-4.07-13.2-8.35-19.65-12.84A107.57,107.57,0,0,0,240,206.22a11.65,11.65,0,0,0-3.74-.42A110.75,110.75,0,0,1,221.88,221c-6.56-4.67-13-9.55-19.08-14.64,3.27-1.76,6.27-3.51,9-5.22a13.69,13.69,0,0,1,.64-4.28c-3.63,2.35-7.73,4.78-12.35,7.26-5.95-5.07-11.6-10.34-16.86-15.8.47,1.95.95,3.94,1.45,6,3.95,3.9,8.09,7.7,12.38,11.39q-4,2.07-8.55,4.16c.27,1,.53,2.11.8,3.17q5.58-2.55,10.42-5.06c6.29,5.28,12.89,10.34,19.66,15.17a197.69,197.69,0,0,1-19.31,14.42c-2-1.69-3.93-3.41-5.85-5.14l1.42,5.51,1.66,1.44-1.11.71.84,3.25q1.44-.9,2.82-1.8a332.54,332.54,0,0,0,27.65,20.68c-6.59,4.39-13.28,8.44-20.06,12.06-1-.75-2-1.5-2.92-2.27.57,2.16,1.14,4.32,1.71,6.5.31-.15.61-.31.91-.47,8.11,6.14,16.56,11.93,25.1,17.37-6.1,4-12.29,7.78-18.55,11.16.63,2.36,1.27,4.73,1.9,7.1,7.08,4.41,14.21,8.56,21.24,12.46q-7.53,5.2-15.25,9.8c.28,1.06.57,2.12.86,3.18,5.91-3.48,11.75-7.26,17.49-11.27,7.77,4.24,15.41,8.16,22.73,11.74-6.86,5.79-13.95,11.37-21.22,16.59-5.37-2.57-10.94-5.33-16.63-8.28l.75,2.76c4.74,2.44,9.4,4.75,13.92,6.92-3.36,2.37-6.76,4.67-10.18,6.87q.43,1.62.87,3.21,6.36-4,12.58-8.52c8.1,3.84,15.71,7.24,22.57,10.17-5.38,4.32-10.88,8.5-16.48,12.45-5.46-2.53-11.18-5.27-17.07-8.22l1.11,4.1c4.44,2.19,8.77,4.27,12.95,6.22q-4.73,3.26-9.54,6.27c.3,1.07.59,2.14.88,3.21q6.06-3.78,12-7.93c10.5,4.83,20,8.85,27.8,12-5.25,4.33-10.63,8.52-16.11,12.51-6.3-2.56-13.64-5.66-21.69-9.27.37,1.32.73,2.65,1.09,4,6.39,2.84,12.3,5.35,17.56,7.5q-6.47,4.6-13.09,8.78c.29,1.07.58,2.14.88,3.2,5.3-3.31,10.53-6.85,15.68-10.56C274.34,418.74,282.56,421.53,282.87,421.64Zm21.72-223.15c5.72-6.19,11-12.2,15.85-17.84,6.45,3.63,13.07,7.06,19.77,10.28-4.22,5.35-9.32,11.65-15.18,18.56C318.08,206.05,311.22,202.39,304.59,198.49Zm-.13,135.15c-4.83,4.9-9.87,9.85-15.1,14.74-6.46-2.82-13.49-6-20.9-9.56,5.5-4.75,10.85-9.61,16-14.5C291.48,327.74,298.2,330.85,304.46,333.64Zm-20.59-13.13c-6.64-3.27-13.54-6.81-20.56-10.61,6.35-5.29,12.5-10.76,18.42-16.29,6.78,3.41,13.35,6.55,19.56,9.41C295.79,308.79,290,314.67,283.87,320.51Zm-5.15-28.43c-5.91,5.5-12.06,10.94-18.4,16.19-7.35-4-14.81-8.38-22.22-13,6.65-4.57,13.17-9.46,19.52-14.55C264.76,284.78,271.84,288.57,278.72,292.08Zm-18.46-13.49c7.33-6,14.43-12.24,21.21-18.57,6.91,3.49,13.6,6.69,19.93,9.6-6.33,6.65-13.1,13.44-20.21,20.15C274.37,286.31,267.35,282.58,260.26,278.59Zm62.67.47c-5.8,6.77-12.28,14-19.33,21.53-6.16-2.82-12.67-5.93-19.41-9.3,7.14-6.76,13.92-13.59,20.26-20.27C311.12,274.05,317.34,276.73,322.93,279.06Zm-15.32-45.23c5.77,3.24,11.67,6.32,17.63,9.23-6.34,7.48-13.57,15.67-21.53,24.13-6.27-2.87-12.91-6-19.78-9.48C292.37,249.73,300.3,241.65,307.61,233.83Zm-23.19-14.56c6.49,4.57,13.31,8.89,20.36,12.95-7.36,7.86-15.36,16-23.85,24-7.6-3.86-15.46-8.06-23.37-12.58C267,235.76,276,227.52,284.42,219.27Zm-29.48,26.5c8,4.57,15.87,8.82,23.52,12.73-6.77,6.29-13.84,12.49-21.15,18.42-8-4.59-16.12-9.51-24.08-14.75C240.65,257,247.91,251.52,254.94,245.77Zm-44.66,30.6c6.8-3.7,13.52-7.82,20.12-12.27,8,5.31,16.16,10.29,24.26,14.95-6.35,5.05-12.86,9.89-19.5,14.4C226.7,288.1,218.33,282.4,210.28,276.37Zm29.49,47.71c-8.2-4.52-16.54-9.39-24.79-14.59,6.84-3.68,13.61-7.8,20.25-12.25,7.48,4.68,15,9.08,22.46,13.19C251.85,315.18,245.87,319.76,239.77,324.08Zm3.1,1.69c6.06-4.35,12-8.94,17.81-13.69,7.07,3.85,14,7.44,20.74,10.75-5.18,4.9-10.54,9.75-16.06,14.48C258.12,333.79,250.56,329.94,242.87,325.77Zm1.89,31.92c7.22-5.25,14.26-10.84,21.07-16.62,7.42,3.58,14.48,6.81,21,9.67-6.29,5.81-12.84,11.53-19.59,17C260.43,364.87,252.84,361.5,244.76,357.69Zm7.46,25.56c5.59-4,11.09-8.22,16.46-12.57,12.27,5.17,21.79,8.73,26.81,10.55-5.07,4.69-10.31,9.33-15.69,13.84C272.14,392,262.72,388,252.22,383.25Z"/><path class="cls-7" d="M264.58,383a45.84,45.84,0,0,1-28.1,7.59c9.6,35.12,18.29,66.53,24.21,87.87a7.71,7.71,0,0,0,14.92-.28l62.63-262.58C317.06,287.76,289,367.41,264.58,383Z"/><path class="cls-8" d="M304.33,355.15s-28.54,105.67-44.95,118.58q.67,2.44,1.31,4.74a7.71,7.71,0,0,0,14.92-.28L304.76,356Z"/><path class="cls-9" d="M348.55,141.72c-9,10.35,2.07,25.61-9.55,32.15-9.64,5.89-26.66-13.69-36.85,2.55-4.72,9.06,1.89,20.65-2.54,27.38-6,9.3-16.83,2.37-24.16.77-7.35-1.94-12.79,1.09-15.2,5.62-5.22,9.48-1.87,27.64-8.81,30.49-12.34,4.76.29-21.8-5.72-32.3-5.59-9.56-20.42-.76-27.54-2.43a5.12,5.12,0,0,1-3.17-2.14c-4.06-5.78,7.12-16.76,4.9-25.74-.7-3.29-3.74-6.67-9.09-7.22-7.89-.52-17,5.23-22.23,1.66-6.7-5,3.06-15.95,3.2-24.52,0-3.56-1.51-4.8-2.08-5.78l0,0c-2.37-1.94-5.87-3.73-8.9-3.08-3.81.83-4.7,4.38-5.67,7a16.91,16.91,0,0,1,2.19-4c1.6-2.15,4.34-3,7.76-1.29,12.4,6.27-3.25,18.27-1.87,28.6.54,4.35,4.3,7.72,9.53,7.87,7.25.08,17.05-4.13,20.69-1.28,9.25,6.88-14.34,25.54,2.07,33.75,7.14,3,18.6-3.55,23.65-1.65a6,6,0,0,1,1.87.82c.82.84,2.2,1.55,2.7,5.94,1,9.74-4,24.53,2.14,28.08,1.8,1.09,4.7.82,6.58-.07,11.18-5.25-.14-36.14,17.39-37.57,6.77-.5,14.05,5.09,21.53,5.34,7.63,0,8.85-2.94,10.51-5.37,5.84-8.55-3.55-25.38,7.81-30.83l1.62-.59c6.9-1.66,14.75,4.71,23.23,4.49A13.14,13.14,0,0,0,347,166.47c.84-6.88-2.16-16,.82-21.93a9.09,9.09,0,0,1,8.64-5.13C353.29,139.09,350.54,139.33,348.55,141.72Z"/><path class="cls-10" d="M196.93,177s26.75,25.62,51.16,18.19S282,174,306.72,174s39.17,5.75,39.17,13.18,32.73,17,32.73-20.69-16-44-40.38-49.88S196.93,177,196.93,177Z"/><path class="cls-11" d="M359,192.08c-3.63-.21-8.09-.67-10.34-3.39-.75-1-.45-14-33.47-16.44-36.29-2.43-41.33,14.14-69.64,21.73-3.42.66-6.45,1.66-15.16.17-9.89-2.18-21-7.11-33.42-17.18a84.59,84.59,0,0,0,20.65,15.21c35.19,18.61,53.1-13.17,84.82-15.93,10.11-.57,38.73.47,41.88,10,.16.36-.4,5.18,7.63,7.84,10.44,3.39,21.74-1.17,25.09-14.78C373.89,187.84,368.16,192.71,359,192.08Z"/><path class="cls-12" d="M255.71,171.83c34.58-16.36,92.31-76,121.28-23.36h0c-4.64-22-18.93-27.09-38.75-31.84C313.88,110.79,196.93,177,196.93,177S221.12,188.2,255.71,171.83Z"/><path class="cls-13" d="M312.05,156.39s9.83-13.13,33.84-13.13,38.85,20.17,24,23.88S346,151.22,333.52,155.2,305.68,167.92,312.05,156.39Z"/><path class="cls-10" d="M190.78,120.87S162.65,131.49,162.65,158s65.27,34.49,87,19.1,43-28.53,79.59-38.14,22.55-50.74,4.25-69Z"/><path class="cls-12" d="M165.19,166.62c12.24,19.48,65.3,24.08,84.49,10.5,21.75-15.39,43-28.53,79.59-38.14,11.08-2.91,17.52-8.7,20.6-15.87-23.95,5.44-61.1,1.86-76.56,6.89-21.23,6.9-38.74,37.67-79.07,41.83A51,51,0,0,1,165.19,166.62Z"/><path class="cls-14" d="M219.43,31.73s-42,6.88-54.24,56.38,11.34,77.81,30.89,85.26,53.13-4.42,61.32-30.32,10.32-29.07,36.32-32.79,39.8-22.82,39.8-40.33S296.37,10,219.43,31.73Z"/><path class="cls-13" d="M270.74,37.43c-2.1-.32-35.82-5-49.35,8.49S196.72,56.8,185.84,67.68s-19.1,72.16,3.71,72.16S224,114.26,228.82,95.21,258,91.26,274.45,79.73,298.86,41.68,270.74,37.43Z"/><path class="cls-15" d="M264.58,324.26c1.61,40.68,6.07,80.13-5.38,80.59S229.59,372.68,228,332s-10.69-87.88.76-88.33S263,283.57,264.58,324.26Z"/></g></g></svg>