<svg id="Layer_1" data-name="Layer 1" xmlns="http://www.w3.org/2000/svg" viewBox="0 0 512 512"><defs><style>.cls-1{fill:#d2d1d1;}.cls-2{fill:#70cded;}.cls-3{fill:#a8def1;}.cls-4{fill:#84cce9;}.cls-5{fill:#59bde7;}.cls-6{fill:#c9e9f5;}.cls-7{fill:#69bde3;}.cls-8{fill:#47adde;}.cls-9{fill:#51addb;}.cls-10{fill:#d8dadb;}.cls-11{fill:#e8e7e7;}.cls-12{fill:#f1f2f2;}</style></defs><title>Урок 3</title><path class="cls-1" d="M174.64,406.47s-51.45,30.27-25.73,40.86S229.12,474.57,273,461s180.08-65.07,124.09-69.61S174.64,406.47,174.64,406.47Z"/><path class="cls-2" d="M227.39,208c-2.56,1.92-47.95,1.28-51.79-.64-2.78-1.38-16.25-15.82-23.5-23.7l-.8,2L155.14,433c28.64,9.88,80,22.12,93.24,20.76.07-.18.11-.3.11-.3Z"/><path d="M227.39,208l-.33-.44a1.65,1.65,0,0,1-.54.19,46.4,46.4,0,0,1-7,.65c-3.3.14-7.37.21-11.7.21-6.86,0-14.35-.17-20.4-.48-3-.15-5.69-.34-7.73-.56-1-.11-1.88-.23-2.54-.35a5.34,5.34,0,0,1-1.31-.35,8.49,8.49,0,0,1-1.41-1c-2.23-1.87-6.14-5.79-10.27-10.1s-8.5-9-11.66-12.46a.55.55,0,0,0-.92.17l-.79,2-.05.21L154.59,433a.56.56,0,0,0,.37.51c13.61,4.69,32.31,9.91,49.64,14s33.26,6.93,41.43,6.93a21.85,21.85,0,0,0,2.41-.11.54.54,0,0,0,.46-.36c.06-.18.11-.31.11-.31l0-.22-21.1-245.51a.54.54,0,0,0-.32-.46.57.57,0,0,0-.55.06l.33.44-.55.05,21.1,245.52.55-.05-.52-.18-.1.29.51.19,0-.55a22.26,22.26,0,0,1-2.3.1c-7.95,0-23.9-2.86-41.18-6.9s-36-9.26-49.53-13.93l-.18.52h.55L151.85,185.7l.76-1.86-.51-.21-.4.38c3.62,3.94,8.8,9.52,13.43,14.29,2.32,2.39,4.49,4.57,6.27,6.25.89.84,1.68,1.56,2.34,2.11a8.62,8.62,0,0,0,1.61,1.16,6.39,6.39,0,0,0,1.61.45,116.08,116.08,0,0,0,12.75,1c5.6.24,12.1.37,18.12.37,5,0,9.59-.09,13.12-.28,1.77-.09,3.26-.21,4.39-.36.57-.08,1-.16,1.44-.25a2.68,2.68,0,0,0,.94-.38l-.33-.44-.55.05Z"/><path class="cls-2" d="M175.6,207.33c3.84,1.92,49.23,2.56,51.79.64,0,0-21.74-99.74-28.77-113.8-2.27-4.53-5.06-5.94-7.81-5.77L152.1,183.63C159.35,191.51,172.82,206,175.6,207.33Z"/><path d="M175.6,207.33l-.25.49a6.39,6.39,0,0,0,1.61.45,116.08,116.08,0,0,0,12.75,1c5.6.24,12.1.37,18.12.37,5,0,9.59-.09,13.12-.28,1.77-.09,3.26-.21,4.39-.36.57-.08,1-.16,1.44-.25a2.68,2.68,0,0,0,.94-.38.53.53,0,0,0,.2-.55s-5.43-24.94-11.75-51.64c-3.15-13.35-6.53-27.14-9.56-38.48-1.52-5.67-2.94-10.72-4.21-14.81a69,69,0,0,0-3.29-9,12.78,12.78,0,0,0-3.69-4.7,7,7,0,0,0-4.19-1.38h-.45a.57.57,0,0,0-.48.34l-38.71,95.24a.54.54,0,0,0,.11.58c3.62,3.94,8.8,9.52,13.43,14.29,2.32,2.39,4.49,4.57,6.27,6.25.89.84,1.68,1.56,2.34,2.11a8.62,8.62,0,0,0,1.61,1.16l.25-.49.25-.49a8.49,8.49,0,0,1-1.41-1c-2.23-1.87-6.14-5.79-10.27-10.1s-8.5-9-11.66-12.46l-.41.37.51.21,38.71-95.23-.51-.21,0,.55.39,0a6,6,0,0,1,3.55,1.18,11.56,11.56,0,0,1,3.35,4.3,67.73,67.73,0,0,1,3.22,8.85c4.42,14.22,10.8,40.44,16.07,63.09,2.64,11.33,5,21.76,6.69,29.37.85,3.8,1.54,6.89,2,9l.73,3.34.54-.12-.33-.44a1.65,1.65,0,0,1-.54.19,46.4,46.4,0,0,1-7,.65c-3.3.14-7.37.21-11.7.21-6.86,0-14.35-.17-20.4-.48-3-.15-5.69-.34-7.73-.56-1-.11-1.88-.23-2.54-.35a5.34,5.34,0,0,1-1.31-.35Z"/><path class="cls-3" d="M325.85,197.1c-32.61,5.76-95.9,9-98.46,10.87l21.1,245.52s0,.12-.11.3c1.69-.18,2.66-.3,2.66-.3l138.75-53.71V184.32C388.51,185.6,358.46,191.35,325.85,197.1Z"/><path d="M325.85,197.1l-.1-.54c-16.26,2.87-40.23,5.11-60.45,6.87-10.11.88-19.28,1.64-26.09,2.3-3.4.33-6.22.63-8.27.92-1,.14-1.86.28-2.5.41-.32.07-.58.14-.8.21a1.8,1.8,0,0,0-.58.26.58.58,0,0,0-.22.49l21.1,245.52.55-.05-.52-.18-.1.29a.53.53,0,0,0,.08.53.54.54,0,0,0,.49.2c1.69-.17,2.67-.3,2.67-.3l.13,0L390,400.29a.53.53,0,0,0,.35-.51V184.32a.54.54,0,0,0-.93-.39l.12.12-.11-.13h0l.12.12-.11-.13a3.46,3.46,0,0,1-.49.21,74.1,74.1,0,0,1-7.58,1.91c-11.34,2.5-32.84,6.51-55.59,10.52l.1.54.1.54c16.3-2.87,32-5.75,43.72-8.07,5.88-1.16,10.78-2.18,14.3-3,1.75-.41,3.17-.76,4.19-1.05.51-.16.93-.29,1.25-.41l.42-.18a1.11,1.11,0,0,0,.34-.24l-.38-.38h-.55V399.41L250.85,453l.19.52-.07-.55s-1,.12-2.64.3l0,.55.52.18c.06-.18.11-.31.11-.31l0-.22-21.1-245.51-.54,0,.33.44,0,0v0h0l0,0v0a1.81,1.81,0,0,1,.32-.12,36,36,0,0,1,4.69-.77c8.1-1,24.52-2.24,42.35-3.85s37.08-3.59,50.88-6Z"/><path class="cls-3" d="M333.52,86.49l.64-30L191.58,62.2V86.49l-.77,1.91S308.59,78.82,333.52,86.49Z"/><path d="M333.52,86.49l.55,0,.64-30.05a.62.62,0,0,0-.16-.41.56.56,0,0,0-.41-.15L191.56,61.65a.55.55,0,0,0-.53.55V86.39l-.73,1.8a.56.56,0,0,0,.07.53.54.54,0,0,0,.48.23l2.67-.21c12.08-.94,62.79-4.68,100.75-4.68,8.69,0,16.71.2,23.44.67S329.88,86,333.36,87a.55.55,0,0,0,.48-.08.54.54,0,0,0,.23-.43l-.55,0,.16-.52c-3.64-1.12-9.13-1.86-15.9-2.33S303,83,294.27,83c-43.45,0-103.5,4.88-103.5,4.88l0,.55.51.21.77-1.91,0-.21V62.72L333.6,57,333,86.48h.55l.16-.52Z"/><path class="cls-3" d="M198.62,94.17c7,14.06,28.77,113.8,28.77,113.8,2.56-1.92,65.85-5.11,98.46-10.87s62.66-11.5,63.94-12.78L333.52,86.49c-24.93-7.67-142.71,1.91-142.71,1.91C193.56,88.23,196.35,89.64,198.62,94.17Z"/><path d="M198.62,94.17l-.49.24a67.73,67.73,0,0,1,3.22,8.85c4.42,14.22,10.8,40.44,16.07,63.09,2.64,11.33,5,21.76,6.69,29.37.85,3.8,1.54,6.89,2,9l.73,3.34a.56.56,0,0,0,.35.4.57.57,0,0,0,.52-.08l0,0v0h0l0,0v0a1.81,1.81,0,0,1,.32-.12,36,36,0,0,1,4.69-.77c8.1-1,24.52-2.24,42.35-3.85s37.08-3.59,50.88-6c16.3-2.87,32-5.75,43.72-8.07,5.88-1.16,10.78-2.18,14.3-3,1.75-.41,3.17-.76,4.19-1.05.51-.16.93-.29,1.25-.41l.42-.18a1.11,1.11,0,0,0,.34-.24.54.54,0,0,0,.09-.66L334,86.22a.54.54,0,0,0-.32-.25c-3.64-1.12-9.13-1.86-15.9-2.33S303,83,294.27,83c-43.45,0-103.5,4.88-103.5,4.88a.55.55,0,0,0,.07,1.1l.39,0a6,6,0,0,1,3.55,1.18,11.56,11.56,0,0,1,3.35,4.3l.49-.24.49-.25a12.78,12.78,0,0,0-3.69-4.7,7,7,0,0,0-4.19-1.38h-.45l0,.55,0,.55,2.67-.21c12.08-.94,62.79-4.68,100.75-4.68,8.69,0,16.71.2,23.44.67S329.88,86,333.36,87l.16-.53-.47.28,56.26,97.82.48-.27-.39-.39.12.12-.11-.13h0l.12.12-.11-.13a3.46,3.46,0,0,1-.49.21,74.1,74.1,0,0,1-7.58,1.91c-11.34,2.5-32.84,6.51-55.59,10.52-16.26,2.87-40.23,5.11-60.45,6.87-10.11.88-19.28,1.64-26.09,2.3-3.4.33-6.22.63-8.27.92-1,.14-1.86.28-2.5.41-.32.07-.58.14-.8.21a1.8,1.8,0,0,0-.58.26l.33.44.53-.11s-5.43-24.94-11.75-51.64c-3.15-13.35-6.53-27.14-9.56-38.48-1.52-5.67-2.94-10.72-4.21-14.81a69,69,0,0,0-3.29-9Z"/><path d="M155.14,433.58a.55.55,0,0,1-.35-1c7.41-6.18,21.89-6.75,29.9-6.54.95-15.36-9.53-216.65-9.64-218.71a.58.58,0,0,1,.13-.38c21.35-25.12,16.55-117,16.5-117.9a.55.55,0,0,1,1.09-.06c.21,3.79,4.86,92.83-16.61,118.5C176.74,218.71,187,416,185.73,426.7a.54.54,0,0,1-.54.48h-.47c-13.36-.37-24,1.92-29.23,6.28A.58.58,0,0,1,155.14,433.58Z"/><path class="cls-4" d="M365.75,192.36c-12,7.26-41.8,24.09-61.27,25.24-1.31.08-2.61.11-3.92.11-23.5,0-45.82-11.81-45.82-11.81.52-.2,1.09-.4,1.72-.61l-5.95.52C259.79,242.08,228.59,409,276.56,409a28.52,28.52,0,0,0,10.29-2.16C346.31,383.76,377,207.57,365.75,192.36Z"/><path d="M257,205.12c-2.42.27-4.61.49-6.52.66v0l5.95-.52Z"/><path class="cls-5" d="M176.19,208.11c.8,15.31,9.77,188.46,9.65,215.5,1.15,2,2.17,2.83,3,2.83a1.11,1.11,0,0,0,.87-.45c3.14-3.77,2.57-196.15,29.31-216.5-3.21.13-7.07.19-11.15.19-5.93,0-12.34-.13-17.89-.36h-.23l-1.83-.09a98.64,98.64,0,0,1-10.92-.95C176.67,208.22,176.42,208.16,176.19,208.11Z"/><path d="M187.88,209.22l1.83.09h0Z"/><path class="cls-5" d="M193.19,100.44c.6,25.42.13,85.68-16.65,106.62l.62.13c.66.12,1.53.24,2.54.35,2,.22,4.7.41,7.73.56,6,.31,13.54.48,20.4.48,3.92,0,7.62-.05,10.74-.17-12.06-4.87-18.68-79.9-23.89-105.93Z"/><path d="M176.54,207.06l-.38.46c0,.16,0,.35,0,.59.23,0,.48.11.77.16a98.64,98.64,0,0,0,10.92.95l1.83.09h.23c5.55.23,12,.36,17.89.36,4.08,0,7.94-.06,11.15-.19a9.88,9.88,0,0,1,1.37-.88,2.47,2.47,0,0,1-.54,0,3.16,3.16,0,0,1-1.24-.25c-3.12.12-6.82.17-10.74.17-6.86,0-14.35-.17-20.4-.48-3-.15-5.69-.34-7.73-.56-1-.11-1.88-.23-2.54-.35Z"/><path class="cls-5" d="M151.86,185.82l0,2c2.9,11.16,15.84,64.28,19.23,138.48,2.64,57.66,8.92,85,13.62,95.22-.3-33.25-9.24-205.45-9.67-213.81a11.75,11.75,0,0,1-1.33-1c-.66-.55-1.45-1.27-2.34-2.11-1.78-1.68-4-3.86-6.27-6.25-3.71-3.83-7.77-8.17-11.1-11.77A21.92,21.92,0,0,1,151.86,185.82Z"/><path d="M151.3,185.6s.21.74.59,2.17l0-2Z"/><path class="cls-5" d="M192.12,103.94c-3,31.41-11,83.18-33.78,83.18a14.8,14.8,0,0,1-2.45-.2c2.57,2.77,5.47,5.88,8.28,8.8,4.13,4.31,8,8.23,10.27,10.1.41.34.77.62,1,.8C191.29,187.34,192.51,131,192.12,103.94Z"/><path d="M154,186.53c3.33,3.6,7.39,7.94,11.1,11.77,2.32,2.39,4.49,4.57,6.27,6.25.89.84,1.68,1.56,2.34,2.11a11.75,11.75,0,0,0,1.33,1c0-.16,0-.26,0-.3a.58.58,0,0,1,.13-.38l.3-.36c-.27-.18-.63-.46-1-.8-2.23-1.87-6.14-5.79-10.27-10.1-2.81-2.92-5.71-6-8.28-8.8A15.8,15.8,0,0,1,154,186.53Z"/><path d="M192.52,99.5c-.12,1.43-.26,2.91-.4,4.44.39,27.07-.83,83.4-16.64,102.68l-.3.36a.58.58,0,0,0-.13.38s0,.14,0,.3c.43,8.36,9.37,180.56,9.67,213.81.38.82.75,1.53,1.1,2.14.12-27-8.85-200.19-9.65-215.5,0-.24,0-.43,0-.59l.38-.46c16.78-20.94,17.25-81.2,16.65-106.62Z"/><path class="cls-4" d="M313.53,175.2c-24.86,0-28.06-41.69-28.06-41.69,1.43-6.7,5.21-9,9.81-9,10.85,0,26.27,13,26.27,13S338.39,175.2,313.53,175.2Zm-47.76-90-11.88.19c-2.45.47-10.63,1.87-30.61,4.22-24.87,2.93-17.55,16.83-17.55,16.83.89,4.93,2.61,14.52,2.64,18,1.3,5,2.64,10.41,4,15.89,6,21.55,11.53,42.86,11.84,46.55.57,6.87,4.73,16.31,17.07,18.66,5.88-.55,13.21-1.16,21.25-1.86,18-4.19,54.4-8.7,80.07-11.58,20-3.29,35.51-5.86,37.62-5.86h.29l.85-.19c1.12-.24,2.14-.47,3.05-.69,2.43-1.21,3.09-3.34,2.2-4.23a164.36,164.36,0,0,1-27.26,2.68c-28.31,0-27.09-12.27-27.09-12.27s72.1-.93,7.91-35.49C310.78,120.22,268.85,89.81,265.77,85.17Z"/><path d="M262.51,203.67c-8,.7-15.37,1.31-21.25,1.86a30.16,30.16,0,0,0,4.67.52c1.27,0,2.8-.13,4.57-.27,0-.12-.06-.25-.1-.36s2.48-.11,6.72-.33C258.65,204.62,260.47,204.15,262.51,203.67Zm121.88-18.32c-.91.22-1.93.45-3.05.69l-.85.19A9.14,9.14,0,0,0,384.39,185.35Zm-176-60.92a2.36,2.36,0,0,1-.2,1.27c1.39,4.74,2.8,9.69,4.18,14.62C211,134.84,209.67,129.47,208.37,124.43Z"/><path d="M257.12,205.09c-4.24.22-6.72.33-6.72.33s.07.24.1.36c1.91-.17,4.1-.39,6.52-.66Z"/><path d="M247.63,452.54l-.2,0L185,427.14a.55.55,0,1,1,.42-1l62.44,25.36a.54.54,0,0,1,.3.71A.53.53,0,0,1,247.63,452.54Z"/><path d="M259,338.89a1.08,1.08,0,0,1-1-.85c-.37-1.64-8.86-40.25-1.83-48.71a4.85,4.85,0,0,1,4-1.85c6.82.24,10.18,5.62,11.64,11.17,1.23-6.14,3.45-13.73,7.13-15.59a4.3,4.3,0,0,1,4.29.24c8.49,5,6.21,44.1,5.92,48.55a1.1,1.1,0,1,1-2.19-.15c1.09-16.91.71-43.26-4.84-46.51A2.1,2.1,0,0,0,280,285c-4.23,2.14-6.62,16.6-7.19,22a1.1,1.1,0,0,1-2.19-.16c0-.16.44-16.8-10.45-17.18a2.66,2.66,0,0,0-2.26,1.06c-5.27,6.34-.14,36,2.28,46.83a1.1,1.1,0,0,1-.83,1.31Z"/><path d="M303,327a1.11,1.11,0,0,1-1.06-1.12l.73-39a1.1,1.1,0,0,1,1.12-1.08h0a1.1,1.1,0,0,1,1.05,1.12l-.72,39A1.1,1.1,0,0,1,303,327Z"/><path d="M322.28,323.2a1.1,1.1,0,0,1-1.06-1.12l1.27-72.89a1.09,1.09,0,0,1,1.12-1.07,1.13,1.13,0,0,1,1.08,1.11l-1.28,72.89a1.1,1.1,0,0,1-1.11,1.08Z"/><path d="M345.41,320.17a1.1,1.1,0,0,1-1.05-1.1l-.1-70.38a1.09,1.09,0,0,1,1.1-1.09,1.13,1.13,0,0,1,1.1,1.09l.09,70.38a1.1,1.1,0,0,1-1.09,1.1Z"/><path d="M371.73,317.89a1,1,0,0,1-.63-.23c-4.38-3.36-24.62-24.41-25.48-25.31a1.1,1.1,0,0,1,.27-1.72l20.87-11.42a1.09,1.09,0,1,1,1.05,1.92L348.2,291.87c4.22,4.37,20.52,21.2,24.23,24.05a1.1,1.1,0,0,1-.7,2Z"/><path d="M307.92,276.49a2.24,2.24,0,1,1-4.47-.15l.09-2.56a2.24,2.24,0,1,1,4.47.16Z"/><path class="cls-6" d="M234.78,59.91l-1.51.06Z"/><path class="cls-4" d="M326.06,84.44l.25,0h1.2ZM264,59.82l-71.86,2.9v6.56C195.6,78.54,228,82.8,244.8,84.39c16.27-.8,33.93-1.42,49.47-1.42h3.08C264.84,80.54,226.12,74.5,264,59.82Z"/><path d="M326.06,84.44l.25,0ZM256,59.38c-5.85,0-13.38.22-21.22.53l-1.51.06c-20.13.82-41.69,2.23-41.69,2.23V79.65c.17-3.2.25-7.12.25-12a4.62,4.62,0,0,0,.3,1.64V62.72L264,59.82l.48-.18C262.46,59.46,259.54,59.38,256,59.38Z"/><path class="cls-4" d="M263.6,84.69c-3.45.12-6.91.26-10.33.41l.88.06Zm30.67-.63c-9,0-18.82.22-28.62.55-.11.08-.07.27.12.56,18.15-.29,36-.55,48.55-.65C308.35,84.2,301.54,84.06,294.27,84.06Z"/><path d="M294.27,83c-15.54,0-33.2.62-49.47,1.42,3.81.37,6.8.59,8.47.71,3.42-.15,6.88-.29,10.33-.41l2.15-.11-.1,0c9.8-.33,19.58-.55,28.62-.55,7.27,0,14.08.14,20.05.46,3.85,0,7.22,0,10,0h2l-.25,0c-6.25-.18-17.09-.59-28.71-1.46Z"/><path class="cls-4" d="M327.51,84.49l4.09.09C330.88,84.53,329.49,84.5,327.51,84.49Z"/><path class="cls-7" d="M265.65,84.61l-2,.08-9.45.47.59,0s-.25.06-.85.17l11.88-.19C265.58,84.88,265.54,84.69,265.65,84.61Z"/><path d="M265.75,84.58l-2.15.11,2-.08Z"/><path class="cls-6" d="M191,86.11c0,.14,0,.28-.05.42l.05-.14Z"/><path class="cls-5" d="M192.78,89.14c0,.73.16,3.16.28,6.85a51.72,51.72,0,0,1,1.62,6.49c3.65,5,8.36,11.26,11,18.56a33.47,33.47,0,0,0,1.63,3.88c-1.91-7.37-3.72-14-5.32-19.39-1.49-4.64-2.8-8.42-3.8-10.89a2.4,2.4,0,0,1-.11-.23l-.07-.13,0-.06h0A13.5,13.5,0,0,0,195.78,91l0,0h0a9.08,9.08,0,0,0-1-.84A6.14,6.14,0,0,0,192.78,89.14Zm-1.55-.21h0L189.53,93c-.15,1.43.87,3.37,2.49,5.76-.14-5.89-.34-9.5-.34-9.68V89Z"/><path d="M198.06,94.28l.07.13a2.4,2.4,0,0,0,.11.23,2.4,2.4,0,0,1-.11-.23h0Zm0-.06ZM195.75,91l0,0Zm-3-1.81h0a6.14,6.14,0,0,1,2,1,9.08,9.08,0,0,1,1,.84,9.08,9.08,0,0,0-1-.84A6.14,6.14,0,0,0,192.78,89.14Zm-2.2-.24a31.3,31.3,0,0,1-.94,3.61,2,2,0,0,0-.11.49l1.65-4.07-.34,0h0A.59.59,0,0,1,190.58,88.9Z"/><path class="cls-4" d="M216.3,86c-12.68.23-21.89.41-24.17.46h0l0,.21-.44,1.08C194.46,87.56,203.71,86.84,216.3,86Z"/><path d="M191.58,79.65c-.13,2.56-.31,4.67-.55,6.46v.28l-.05.14c-.07.46-.13.9-.21,1.32l.88-.07.44-1.08,0-.21h-.55Z"/><path class="cls-4" d="M195.83,88.56l-1.31.1a7.07,7.07,0,0,1,.9.56h0A1.21,1.21,0,0,1,195.83,88.56Zm52-3.09-3.81.06c-5.19.26-10.23.54-15,.81C235.25,86.07,241.91,85.75,247.82,85.47Z"/><path d="M202,105.53c1.6,5.34,3.41,12,5.32,19.39.31.57.54.83.7.83l.11,0C206,118.22,203.87,111.23,202,105.53Zm-3.9-11.13h0a2.4,2.4,0,0,0,.11.23ZM244,85.53,216.3,86c-12.59.81-21.84,1.53-24.65,1.75l-.88.07c-.06.36-.12.71-.19,1.05a.59.59,0,0,0,.23,0h0l.34,0h0l.45,0a.54.54,0,0,1,.51-.44h.06a.54.54,0,0,1,.52.52v.12a6.14,6.14,0,0,1,2,1,9.08,9.08,0,0,1,1,.84h0l0,0A13.5,13.5,0,0,1,198,94.22h0l0,.06.07.13h0a10.82,10.82,0,0,0-1.44-2.79c-1-1-1.39-1.77-1.27-2.38h0a7.07,7.07,0,0,0-.9-.56l1.31-.1c1.28-1.17,5.42-1.43,11.1-1.43,3.3,0,12.18-.34,22.07-.79C233.78,86.07,238.82,85.79,244,85.53Z"/><path d="M192.25,88.5h-.06a.54.54,0,0,0-.51.44v.13c0,.18.2,3.79.34,9.68l.5.74c.13-1.41.24-2.77.34-4.06.07.18.13.36.2.55-.12-3.69-.24-6.12-.28-6.85V89A.54.54,0,0,0,192.25,88.5Z"/><path class="cls-8" d="M193.06,96c.05,1.32.09,2.81.13,4.45l1.49,2A51.72,51.72,0,0,0,193.06,96Z"/><path d="M192.86,95.44c-.1,1.29-.21,2.65-.34,4.06l.67.94c0-1.64-.08-3.13-.13-4.45C193,95.8,192.93,95.62,192.86,95.44Z"/><path class="cls-8" d="M198.24,94.64c1,2.47,2.31,6.25,3.8,10.89-.23-.78-.46-1.54-.69-2.27A73.64,73.64,0,0,0,198.24,94.64Z"/><path class="cls-7" d="M253.89,85.36l-6.07.11c-5.91.28-12.57.6-18.82.87-14.59.86-26.73,1.73-33.17,2.22a1.21,1.21,0,0,0-.4.67,12.54,12.54,0,0,1,3.68,4.69,69,69,0,0,1,3.29,9c1.27,4.09,2.69,9.14,4.21,14.81.57,2.15,1.16,4.39,1.76,6.69,0-3.5-1.75-13.09-2.64-18,0,0-7.32-13.9,17.55-16.83C243.26,87.23,251.44,85.83,253.89,85.36Z"/><path d="M195.43,89.23c-.12.61.27,1.39,1.27,2.38a10.82,10.82,0,0,1,1.44,2.79l.48-.23.49-.25-.49.25-.48.23.1.24a73.64,73.64,0,0,1,3.11,8.62c.23.73.46,1.49.69,2.27,1.83,5.7,4,12.69,6.13,20.17a2.36,2.36,0,0,0,.2-1.27c-.6-2.3-1.19-4.54-1.76-6.69-1.52-5.67-2.94-10.72-4.21-14.81a69,69,0,0,0-3.29-9A12.54,12.54,0,0,0,195.43,89.23ZM229,86.34c-9.89.45-18.77.79-22.07.79-5.68,0-9.82.26-11.1,1.43C202.27,88.07,214.41,87.2,229,86.34Z"/><path class="cls-7" d="M192.13,69.28V86.49c2.28,0,11.49-.23,24.17-.46,8.34-.54,18.14-1.12,28.5-1.64C228,82.8,195.6,78.54,192.13,69.28Z"/><path d="M191.83,67.64c0,4.89-.08,8.81-.25,12v6.84h.55V69.28A4.62,4.62,0,0,1,191.83,67.64Z"/><path class="cls-7" d="M253.27,85.1c-3.12.13-6.21.28-9.26.43l3.81-.06,6.33-.31Z"/><path d="M244.8,84.39c-10.36.52-20.16,1.1-28.5,1.64l27.71-.5c3.05-.15,6.14-.3,9.26-.43C251.6,85,248.61,84.76,244.8,84.39Z"/><path class="cls-9" d="M254.15,85.16l-6.33.31,6.07-.11c.6-.11.85-.17.85-.17Z"/><path class="cls-4" d="M370.54,189.4l-.87.17c-11.75,2.32-27.42,5.2-43.72,8.07-13.8,2.44-33.05,4.41-50.88,6l-13.18,1.16c25.05-1.42,83.75-5.51,101.68-13.48a1.87,1.87,0,0,1,.4,0,2.2,2.2,0,0,1,1.78,1.05C368.09,191,369.75,189.9,370.54,189.4Z"/><path class="cls-4" d="M361.42,190.05c-4.92.51-11.44,1.21-18.84,2-19.89,3.28-44.17,7.27-63.91,10.15,16.75-1.55,34.3-3.42,47.08-5.68S351,192,361.42,190.05Z"/><path d="M371.05,189.07l-9.63,1c-10.43,2-22.85,4.25-35.67,6.51s-30.33,4.13-47.08,5.68c-8,1.16-15.29,2.15-21.22,2.83l4.44-.24,13.18-1.16c17.83-1.62,37.08-3.59,50.88-6,16.3-2.87,32-5.75,43.72-8.07l.87-.17Z"/><path class="cls-7" d="M364,191.31a1.87,1.87,0,0,0-.4,0c-17.93,8-76.63,12.06-101.68,13.48l-5.43.46c-.63.21-1.2.41-1.72.61,0,0,22.32,11.81,45.82,11.81,1.31,0,2.61,0,3.92-.11,19.47-1.15,49.26-18,61.27-25.24A2.2,2.2,0,0,0,364,191.31Z"/><path d="M261.89,204.83l-4.44.24-.43.05-.56.17Z"/><path class="cls-7" d="M342.58,192.09c-25.67,2.88-62.06,7.39-80.07,11.58l2.79-.24c4.32-.38,8.82-.77,13.37-1.19C298.41,199.36,322.69,195.37,342.58,192.09Z"/><path d="M278.67,202.24c-4.55.42-9.05.81-13.37,1.19l-2.79.24c-2,.48-3.86,1-5.39,1.42l.33,0C263.38,204.39,270.65,203.4,278.67,202.24Z"/><path d="M257.45,205.07l-.33,0-.1,0Z"/><path class="cls-7" d="M295.28,124.47c-4.6,0-8.38,2.34-9.81,9,0,0,3.2,41.69,28.06,41.69s8-37.69,8-37.69S306.13,124.47,295.28,124.47Z"/><path class="cls-10" d="M342.21,154.46l-1.66-5.7-20.2-42-18.59,8.73c-10.27,4.71-13.4,19.88-7,33.88s20,21.53,30.22,16.82a15.56,15.56,0,0,0,4.09-2.78Z"/><path d="M342.21,154.46l.53-.16-1.67-5.74L320.61,106,301.52,115h0a17,17,0,0,0-7.91,7.72,25.83,25.83,0,0,0-2.72,12,36.08,36.08,0,0,0,3.38,14.93c5.2,11.32,15,18.53,24.19,18.54a16.22,16.22,0,0,0,6.76-1.45,15.71,15.71,0,0,0,4.23-2.89l-.37-.39.31.45,13.45-9.18-.11-.38-.53.16-.3-.46-13.17,9,0,0a14.57,14.57,0,0,1-3.94,2.69,14.94,14.94,0,0,1-6.3,1.35c-8.62,0-18.14-6.88-23.19-17.9A34.94,34.94,0,0,1,292,134.67a24.71,24.71,0,0,1,2.59-11.45A15.85,15.85,0,0,1,302,116h0l18.1-8.5L340,149l1.65,5.65.52-.15-.3-.46Z"/><path class="cls-11" d="M348.78,122.59c6,13.17,3.09,27.44-6.57,31.87s-22.39-2.66-28.42-15.83-3.1-27.43,6.56-31.87S342.74,109.42,348.78,122.59Z"/><path d="M348.78,122.59l-.5.23a32.92,32.92,0,0,1,3.09,13.6,23.27,23.27,0,0,1-2.44,10.75A14.92,14.92,0,0,1,342,154a14.13,14.13,0,0,1-5.92,1.26c-8.09,0-17-6.46-21.78-16.82a32.73,32.73,0,0,1-3.09-13.6,23.07,23.07,0,0,1,2.44-10.74,14.84,14.84,0,0,1,6.94-6.8A14.1,14.1,0,0,1,326.5,106c8.09,0,17,6.46,21.78,16.82l.5-.23.5-.23c-4.89-10.65-14.1-17.45-22.78-17.46a15.23,15.23,0,0,0-6.38,1.37,15.93,15.93,0,0,0-7.45,7.28,24.22,24.22,0,0,0-2.57,11.25,33.91,33.91,0,0,0,3.19,14.06c4.89,10.66,14.1,17.45,22.78,17.46a15,15,0,0,0,6.37-1.37,16,16,0,0,0,7.46-7.27,24.32,24.32,0,0,0,2.56-11.26,34.05,34.05,0,0,0-3.18-14.06Z"/><path class="cls-12" d="M346.78,123.51c4.38,9.55,2.7,19.69-3.76,22.65s-15.24-2.39-19.62-11.94-2.69-19.69,3.76-22.65S342.4,114,346.78,123.51Z"/><path d="M292.39,129.88a.55.55,0,0,1-.5-.32.56.56,0,0,1,.27-.73l17.9-8.1a.55.55,0,0,1,.73.28.54.54,0,0,1-.27.72l-17.91,8.1Z"/><path d="M293.67,144.8a.55.55,0,0,1-.23-1.05l18.95-8.52a.53.53,0,0,1,.72.27.55.55,0,0,1-.27.73l-18.95,8.52Z"/><path d="M299.64,156.73a.55.55,0,0,1-.48-.28.53.53,0,0,1,.21-.74l18.5-10.44a.55.55,0,0,1,.75.21.55.55,0,0,1-.21.74l-18.5,10.44Z"/><path d="M310.65,166.43a.55.55,0,0,1-.3-1L327.89,154a.56.56,0,0,1,.76.16.54.54,0,0,1-.16.76L311,166.34A.55.55,0,0,1,310.65,166.43Z"/></svg>