<svg xmlns="http://www.w3.org/2000/svg" xmlns:xlink="http://www.w3.org/1999/xlink" viewBox="0 0 767 708"><defs><style>.cls-1{fill:url(#linear-gradient);}.cls-2{fill:url(#linear-gradient-2);}.cls-3{fill:url(#linear-gradient-3);}.cls-4{fill:url(#linear-gradient-4);}.cls-5{fill:#3c4e12;}.cls-6{fill:#81a035;}.cls-7{fill:#93b540;}.cls-8{fill:#778e21;}.cls-9{fill:#b0e261;}.cls-10{fill:#cfff71;}.cls-11{fill:url(#linear-gradient-5);}.cls-12{fill:#5e6b26;}.cls-13{fill:#494412;}.cls-14{fill:#835426;}.cls-15{fill:url(#linear-gradient-6);}</style><linearGradient id="linear-gradient" x1="-1114.49" y1="-551.6" x2="-982.52" y2="-551.6" gradientTransform="matrix(0.84, -0.54, 0.54, 0.84, 1797.57, 420.98)" gradientUnits="userSpaceOnUse"><stop offset="0" stop-color="#4c881a"/><stop offset="1" stop-color="#ace335"/></linearGradient><linearGradient id="linear-gradient-2" x1="-1114.49" y1="-548.53" x2="-984.83" y2="-548.53" gradientTransform="matrix(0.84, -0.54, 0.54, 0.84, 1797.57, 420.98)" gradientUnits="userSpaceOnUse"><stop offset="0" stop-color="#53b716"/><stop offset="1" stop-color="#333204"/></linearGradient><linearGradient id="linear-gradient-3" x1="410.71" y1="597.65" x2="651.45" y2="597.65" gradientTransform="matrix(1, 0, 0, 1, 0, 0)" xlink:href="#linear-gradient"/><linearGradient id="linear-gradient-4" x1="410.73" y1="602.9" x2="651.45" y2="602.9" gradientTransform="matrix(1, 0, 0, 1, 0, 0)" xlink:href="#linear-gradient-2"/><linearGradient id="linear-gradient-5" x1="592.77" y1="300.48" x2="592.77" y2="212.12" gradientUnits="userSpaceOnUse"><stop offset="0" stop-color="#cfff71"/><stop offset="1" stop-color="#fff"/></linearGradient><linearGradient id="linear-gradient-6" x1="-1729.51" y1="-2152.44" x2="-1638.79" y2="-2152.44" gradientTransform="matrix(0.54, -0.84, 0.84, 0.54, 3066.31, 25.62)" xlink:href="#linear-gradient-5"/></defs><title>Монтажная область 79</title><g id="foreground"><path class="cls-1" d="M550.14,544.8s24.54,32.2,77.73,14.41,67.08-24.92,77.74-17c0,0-44.9-70.79-100.5-65.31S555,512.94,552,517.71C541.68,534.57,550.14,544.8,550.14,544.8Z"/><path class="cls-2" d="M701.39,539.91C668,511.17,619.1,501,603.91,500.77c-16.77-.23-38.42,9.16-40.39,10.43a56.41,56.41,0,0,0-9.7-1.39c-.82,3.78-1,6.69-1.79,7.91-10.34,16.86-1.88,27.09-1.88,27.09s24.54,32.2,77.73,14.41C674.45,543.62,690.88,536.23,701.39,539.91Z"/><path class="cls-3" d="M453.54,506.4s27.15-12.43,73,.78,108.65,55.87,124.94,187c0,0-34.93-27.16-62.88-36.49S313.1,570,453.54,506.4Z"/><path class="cls-4" d="M651.45,694.2c-13.21-45-76.07-123.38-116.41-152.88s-79.93-29.5-79.93-29.5c-4.26-.23-8.34-.27-12.26-.15-116.28,62.63,118.57,137,145.72,146C616.52,667,651.45,694.2,651.45,694.2Z"/><path class="cls-5" d="M499.75,502.1s-25.66-24.31-23-59.42c0,0-43.22,77-33.76,87.78l40.51,12.15s-33.76-16.21-18.91-20.26,86.43,21.61,102.63,50c0,0-37.62-47.42-81-54C486.25,518.3,460.59,504.8,499.75,502.1Z"/><path class="cls-5" d="M534.87,572.32s36.46,4.05,21.61,35.11l-14.85,31.05L497.05,625Z"/><path class="cls-6" d="M635.28,209.54c-10.66-6.27-29.58-12.53-50.77-16.86,0,0-51.07-15.87-77.46-40.07s-105.57-35.17-134.18,30.79c-11.14,25.83-13.93,86.24,1.43,148-10.11,60,7.47,124.28,54.19,150.85,77.63,44.1,176,26.39,176,26.39L625,501.31c17.6-16.12,63.07-33.72,83.58-121.71S660.18,224.18,635.28,209.54Z"/><path class="cls-7" d="M708.56,379.61c20.53-88-48.38-155.42-73.28-170.07-10.66-6.27-29.58-12.53-50.77-16.86,0,0-6.33-1.94-15.66-5.55-37.31-7.91-68.81,5.63-87.57,11.4C462.24,204.39,438,222,438,222c-29.33,22.73-53.51,77-63.72,109.42-10.11,60,7.47,124.28,54.19,150.85,77.63,44.1,153.8,31.35,153.8,31.35L625,501.31C642.58,485.19,688.05,467.6,708.56,379.61Z"/><path class="cls-8" d="M401.93,149.34s-6.45,11.86-5.95,20.4c.84,14.45,13.59,23,19.56,26.36s23.83,16.16,27.22,17,7.66-5.51,5.11,1.28-4.27,45.5,11.9,64.21,38.7,44.25,50.6,80-8.06,76.55,34.46,104.59,51.23,29.29,80.81,25.53c19.79-2.53,44.22-25.53,44.22-25.53s-15.3,30-58.24,42.77c-94.4,28.08-152.2-15-164.58-24.22-100.48-74.51-74.17-298.32-74.17-298.32s9.5-23.87,25.66-31.52"/><path class="cls-9" d="M481.9,215.68s-23.85,10.19-17,40.83,69.73,49.73,78.26,108.86c3.9,27.13,20.41,23.82,64.63,20.41s34,51,47.64,54.44,107.15-93.56,22.1-188.81S512.52,205.47,481.9,215.68Z"/><path class="cls-10" d="M516.76,218.23s-38.27,10.19-23,40.83,71.44,56.13,97,66.32,61.23,25.53,74,38.3,33.17-40.83,23-76.55S640.91,175.69,516.76,218.23Z"/><path class="cls-11" d="M527,231s-15.32,23,2.53,30.62S629,282,641.78,297.32s47.07-28.07-5.1-66.34S537.17,223.32,527,231Z"/><path class="cls-7" d="M453,139.13s18.71,0,28.93,6.79S530,172.7,519.31,174.85c-34,6.79-68,34-76.55,25.51S391.74,144.23,453,139.13Z"/><path class="cls-9" d="M429.15,156.11s0,17,15.3,20.42,47.64-1.68,52.75-6.79S449.58,125.5,429.15,156.11Z"/><path class="cls-9" d="M565.23,407.88S555,426.6,561.85,438.5s17,5.1,25.49,22.13-10.19,10.19-18.71,6.79-42.52-22.11-37.41-39.12S561.92,392.9,565.23,407.88Z"/><path class="cls-9" d="M617.54,472.11s30.64-6.37,21.69-14S613.72,451.69,617.54,472.11Z"/><path class="cls-12" d="M568.54,422.86s19.81,5.87,19,9.54-8.06,12.45-8.06,12.45,11.74-11,14.66,0a42.26,42.26,0,0,0,9.54,17.61s-8.06-21.25,2.93-19.79a126.46,126.46,0,0,0,22,.72s-21.27-3.65-19.81-11,5.14-10.25,11-16.12-5.87,1.45-14.69,5.86-5.13,7.34-11-8.8-6.6,3.67-5.13,8.06S568.54,422.86,568.54,422.86Z"/><path class="cls-12" d="M415.58,207.41s-17-25.52-8.5-37.44,15.32-32.3,15.32-32.3-42.9,16.63-49.53,45.72S415.58,207.41,415.58,207.41Z"/><path class="cls-12" d="M459.81,481.29c-2-4.28-.54-10.21,1.94-15.87a55.73,55.73,0,0,0,8.28-9.67c15.31-23,23.82-57.84,11.9-106.32-9.81-39.95-22.11-55.26-22.11-55.26-24.64-38.57-43.88,112.72-49.42,162.13-4.09,10.8-4.18,26.67-4.18,26.67,60.41,40,131.41,30.64,131.41,30.64C512.54,517,467.47,497.45,459.81,481.29Z"/><path class="cls-13" d="M590.59,428.77a27.2,27.2,0,0,0,3.6,16.08l4.67,10.06s-2.32-15.76,3.84-19.14-11.74-1-7-12.11l-2.56-8.29Z"/><path class="cls-13" d="M399.88,278s-13.61-22.11-8.5-31.46,9.3-16.4,9.3-16.4-22.43,10.06-29.05,34.05S399.88,278,399.88,278Z"/><path class="cls-14" d="M90.28,231.93c9.22-20.4-26.21-60.73-31.82-85.44s-2.66-67,4.75-90.42c9.81,12.13,24,9.5,36.56,2.81,3.8,24-28.21,51.46-25.49,84.11,2.83,33.86,16.15,57.69,39.55,81.34-5.66,10.42-14.54,13.21-25.32,10.36"/><path class="cls-9" d="M66.75,345.63c1.79,4.88,3.52,9.41,5.06,13.49C87,399.44,98.89,441.12,111,483c37.83,131,223.69,162.43,319.49,73.43,96.77-90,49.69-298.89-75.79-333.66-43.6-12.09-88.6-10.36-132.45-18.69-27.7-5.26-64.73-31.63-92.23-12.91-13,8.86-11.86,26.52-25.34,35.45-11.1,7.34-27.43,5.4-37.18,14.2C40.58,265.07,54.85,313,66.75,345.63Z"/><path class="cls-7" d="M411.32,445.25c12,2.11,23.28,5.57,31.88,10.46,36.19,20.47,19.16,46.63-3.79,73.43-58.15,67.77-163.78,84.38-243.25,40.32-32.22-17.83-77.69-53.07-78.22-93.73-.53-35.49,33.7-62.79,68.66-56.76,25.26,4.39,43.49,22.26,67.52,33C308.18,476.19,356.12,435.51,411.32,445.25Z"/><path class="cls-8" d="M235.36,575.82c-30.57-6.35-51.4-21.86-40.85-53.7,7.79-23.57,30.43-17.3,50.79-12.91,36.41,7.89,88.32-.25,124.44-7.45,23.32-4.64,74.68,2.37,56.89,32.54-6.94,11.8-48.28,27.52-61,32.79C347.57,574.51,280.73,585.23,235.36,575.82Z"/><path class="cls-10" d="M256.36,236.7a131.86,131.86,0,0,1-25.57-6.27c-25.81-9.26-48.59-26.69-78-16-55.35,20.13,7.41,57.88,32,72.43,18.42,10.89,41.57,18.49,58.68,30.74,27.53,19.77,40.28,58.77,73.45,70.73,30.83,11.14,64.71-3,95.61,14.2,17.72,9.88,22.49,29.78,41.17,14.56,13.88-11.29,8.69-37,5.84-51.48-13.74-70.57-66-113-135.15-123.29C300.94,238.8,278.66,240,256.36,236.7Z"/><path class="cls-15" d="M372.83,343.21c56.24,19.25,29.33-64,8.44-84.95-22.09-22.14-91.22-30-108.35,5.38-20.06,41.38,59.65,62.46,87.48,74.63C364.52,340.07,368.72,341.82,372.83,343.21Z"/><path class="cls-7" d="M176.39,376.21a77,77,0,0,0-11,.91c-19.33,3.08-33.93,15.93-54.75,6.64-61-27.16-58.89-211,48.61-88.54.91,1,100.84,68.16,69.26,79.34C212.74,380.15,194.26,375.94,176.39,376.21Z"/><path class="cls-9" d="M162.5,344.33c12.41-24.85-23-60.85-46.48-66.59-40.26-9.81-36.84,55.83-13.93,77.06C110.43,362.52,155.86,357.73,162.5,344.33Z"/></g></svg>