<?xml version="1.0" encoding="utf-8"?>
<!-- Generator: Adobe Illustrator 22.0.0, SVG Export Plug-In . SVG Version: 6.00 Build 0)  -->
<svg version="1.1" id="Layer_1" xmlns="http://www.w3.org/2000/svg" xmlns:xlink="http://www.w3.org/1999/xlink" x="0px" y="0px"
	 viewBox="0 0 512 512" style="enable-background:new 0 0 512 512;" xml:space="preserve">
<style type="text/css">
	.st0{fill:#930506;}
	.st1{fill:#439B0B;}
	.st2{fill:#DF0101;}
	.st3{fill:#CB0102;}
	.st4{fill:#F02929;}
	.st5{fill:#D1AE32;}
	.st6{fill:#FBF0B5;}
	.st7{fill:#D4C67E;}
	.st8{fill:#F0C529;}
	.st9{fill:#F9E58E;}
	.st10{fill-rule:evenodd;clip-rule:evenodd;fill:#A6BE39;}
	.st11{fill-rule:evenodd;clip-rule:evenodd;fill:#93AB3C;}
	.st12{fill-rule:evenodd;clip-rule:evenodd;fill:#FEFEFE;stroke:#414042;stroke-width:2.8919;stroke-miterlimit:10;}
	.st13{fill-rule:evenodd;clip-rule:evenodd;fill:#FEFEFE;}
	.st14{fill-rule:evenodd;clip-rule:evenodd;fill:#B9D432;}
	.st15{fill-rule:evenodd;clip-rule:evenodd;fill:#414042;}
	.st16{fill:#D85B2A;}
	.st17{opacity:0.5;fill:#D85B2A;}
	.st18{fill:#C9471F;}
	.st19{fill:#B22909;}
	.st20{fill:#C43F16;}
	.st21{fill:#F7774F;}
	.st22{fill:#511B1A;}
	.st23{fill:#231F20;}
	.st24{fill:#FFFFFF;}
	.st25{fill:#C4BDC4;}
	.st26{fill:#ED4C06;}
	.st27{fill:#F9CCA0;}
	.st28{fill:#2D170B;}
	.st29{fill:#5B3310;}
	.st30{opacity:0.2;}
	.st31{fill:#E8ECEF;}
	.st32{fill:#9E1B25;}
	.st33{fill:#FF6B00;}
	.st34{fill:#EAAF7A;}
	.st35{fill:none;}
	.st36{fill:#C15133;}
	.st37{fill:#FF8B00;}
	.st38{fill:#0AA083;}
	.st39{fill:#99591F;}
	.st40{fill:#753E12;}
	.st41{fill:#3F3E3E;}
	.st42{fill:#644E55;}
	.st43{opacity:0.2;fill:#E8ECEF;}
	.st44{fill:#741899;}
	.st45{fill:#8D1CCA;}
	.st46{fill:#1E120D;}
	.st47{fill:#5D4D3E;}
	.st48{fill:#756857;}
	.st49{fill:#3F8100;}
	.st50{fill:#FFDE00;}
	.st51{fill:#59380B;}
	.st52{fill:#A06116;}
	.st53{fill-rule:evenodd;clip-rule:evenodd;fill:#E6E6E6;}
	.st54{fill-rule:evenodd;clip-rule:evenodd;fill:#CCCCCC;}
	.st55{fill-rule:evenodd;clip-rule:evenodd;fill:#B3B3B3;}
	.st56{fill-rule:evenodd;clip-rule:evenodd;fill:#1A1A1A;stroke:#000000;stroke-width:0.7543;stroke-miterlimit:22.9256;}
	.st57{fill-rule:evenodd;clip-rule:evenodd;fill:#FFCC00;}
	.st58{fill-rule:evenodd;clip-rule:evenodd;fill:#808080;}
	.st59{fill-rule:evenodd;clip-rule:evenodd;fill:#1A1A1A;}
	.st60{fill-rule:evenodd;clip-rule:evenodd;}
	.st61{fill-rule:evenodd;clip-rule:evenodd;fill:#333333;}
	.st62{fill:#E7343B;}
	.st63{fill:#D42F36;}
	.st64{fill:#DD941A;}
	.st65{fill:#D15528;}
	.st66{fill:#A63823;}
	.st67{fill:#C91F2A;}
	.st68{fill:#CD2D34;}
	.st69{fill:#F5F0E6;}
	.st70{fill:#F6ED9A;}
	.st71{fill:#4C241B;}
	.st72{fill:#FFFEF2;}
	.st73{fill:#C2AE94;}
	.st74{fill:#F6F0DC;}
	.st75{fill:#FBAE17;}
	.st76{opacity:0.56;}
</style>
<g>
	<path class="st0" d="M304.9,119.3c13.5,2.7,26.4,7.2,37.3,16c2.6,2.1,5.8,4,7.7,6.7c7.3,10.5,18.1,13.2,29.8,15.3
		c32.7,5.9,51.9,27.5,62.6,57.3c11.3,31.5,9.1,63.5,0,95.2c-14.2,49.7-44.2,86.4-91.6,108c-31.6,14.4-65,18.5-99.3,14.8
		c-56.3-6-105.1-28-145.1-68.6c-21.8-22.2-39-47-42.9-78.6C56.3,227,73.6,178,121.9,142.4c21.6-15.9,46.8-21.8,73.5-21
		c4.8,0.1,9.6,1.1,14.2,2.6c-4.3,0-8.7,0-13,0c-4.7,0-9.5,0-14.2,0c-1.8,0-4-0.5-4.5,2.2c-1.5,0-3.1,0.1-4.6,0.1
		c-4.9,0.9-10,1-14,4.6c-0.8,0-1.5,0.1-2.3,0.1c-1.6-0.1-2.3,0.7-2.4,2.2c0,0,0,0,0,0c-6.5-0.1-11.3,3-16.6,6.6
		c-9.1,6.2-17.7,13.1-25.3,20.9c-6.9,7-13.1,15-17.5,24c-9.8,19.9-18.1,40.1-17.8,63c0.1,7.1,0.6,14.2,0.3,21.2
		c-0.3,9.9,3.1,19.2,5.5,28.5c2.1,8.1,6.8,15.7,11.5,23.1c6.3,10,14.2,18.5,22,27.2c13.4,15.1,29.6,26.9,46.8,37.4
		c10,6.1,20.3,12.1,31.4,15.2c12.6,3.5,24.5,9.3,37.9,10.5c10.7,1,21.3,4.4,32.2,4.1c12.5-0.3,25,0.3,37.5-2
		c17.4-3.1,33.9-8,49.7-15.8c13.9-6.9,26.6-15.8,37.9-26.3c4.7-4.4,10.6-7.7,14-13.6c2-3.4,3.6-7.1,5.7-10.5
		c3.9-6.3,9.2-11.9,11.3-19.2c2.4-8.5,7.2-16,9.7-24.6c1.7-6.1,2.3-12.5,4.1-18.4c1.7-5.6,3.1-11.2,3.6-16.9
		c2.2-24.4-1.1-48.2-12.1-70.1c-5.3-10.5-12.1-20.6-22.4-27.5c-8.6-5.8-17.4-10.8-28.2-10.9c-8.7-0.1-17.4-0.1-26-0.2
		c-1.9,0-4.1-0.4-4.1,2.6c-4.7-2.3-8-6.3-12-9.5c4.8,0.9,9.4-2.5,14.3-0.6c1.4,0.5,3.1,1.3,4.1-0.5c1-1.7-0.6-2.9-1.5-4
		c-4.4-5.4-10.3-9.1-15.8-13.1c-5-3.7-10.7-6.6-17.1-7.4c-2.5-1.1-5-3.6-7.8-2.1c-4.1,2.4-5.2,0.1-6.2-3.1
		C304.1,120.6,304.5,120,304.9,119.3z"/>
	<path class="st1" d="M304.9,119.3c-0.4,0.6-0.8,1.3-1.2,1.9c-0.9,0-1.6-0.7-2.6,0.1c-10.6,8.4-18,18.6-18.4,32.8
		c-1.1-0.2-1.9,0-1.8,1.3c0,0.3,0.7,0.6,1.1,0.9c0.3-0.6,0.6-1.3,0.8-1.9c1,0.1,1.7-0.1,2.5-0.8c5.9-5.2,12.5-8.8,20.7-8.7
		c2.8,0,5.5,0,8.3,0c4.4-0.5,7.8,3.8,12.3,2.7c0.7,3,2.9,2.4,5,2.3l-0.1,0c-0.2,1.7,0.7,2.3,2.2,2.2c4,3.1,7.3,7.2,12,9.5
		c3.9,3.5,8.6,5.7,13.4,8.4c-6.7-0.1-12.7,2.7-19.2,3.1c-10.3,0.6-20.3-1.1-30.3-2.9c-2-0.4-5.1-1-5.7,1.2c-0.5,2.1,2,3.6,4.4,4
		c2.2,3.6,6,4.9,9.3,7l0,0c3.6,6.5,6,13.2,5,20.8c-0.5,1.4,0.1,3.1-1.3,4.2c-2.4-2.2-4.7-4.4-7-6.6c-7.5-7-16.2-12.5-25-17.3
		c-5.4-3-10.6-7.8-19.2-4.2c-11,4.7-22.6,8.1-32.8,14.7c-2.3,1.5-4.6,5.1-6.9,3.5c-3.5-2.4,1.3-5.3,1.2-8.2
		c3.9-5.2,7.8-10.3,12.4-16.5c-5.4,0.8-8.4-3.4-12.7-2.2c-4.2-0.2-8.5-0.6-12.7-0.6c-9.8-0.1-19.5,0.7-28.6,4.7
		c-2.3,1-5.3,4.5-6.7,3.2c-2.5-2.3,2.9-3.7,2.5-6.5c2.1-2.1,4.1-4.2,6.2-6.4c9.8-9.5,21.7-13.4,35.2-13c4.9,0.1,8.9,2.8,13.3,4.5
		c1.3,5.4,7.1,5.4,10.5,8.2c1.2,1,1.8-1.5,1.4-2c-2-2.2-1.6-5.9-4.5-7.5c-5.6-8.7-12.3-16-23.3-17.5c-0.7-2.9,2.5-1.8,3.3-3.2
		c0.5-0.1,1-0.2,1.5-0.4c3.9-0.3,7.8-0.6,11.7-1c11.1-1.1,19.3,4.7,26.9,12c2.2-6.4,3.8-12.5,4.3-18.7c0.2-2.5,4-4.3,1.2-7.2
		c0.1-0.7,0.3-1.4,0.4-2.1c2.8,0.1,2.7-2.3,3.3-4c4.6-11.3,9.4-22.5,16.6-32.4c2.4-3.3,4.9-6.5,8.1-9.1c7.4-5.9,14.5-5.8,19.8,2
		c9.3,13.6,8.7,23.7-1.8,32.9C315,111,309,114,304.9,119.3z"/>
	<path class="st2" d="M240.5,156.7c-4.4-1.7-8.4-4.4-13.3-4.5c-5.1-3.3-11-3.9-16.7-4.6c-10.9-1.4-21,2.4-31.3,5.5
		c-1.5-1.4-3.3-1.1-4.9-0.7c-23.2,5.2-40.1,18.6-52.5,38.6c-4.7,7.6-6.8,16.4-11.2,24c-4.3-1.6-2.3-4.6-1.5-7.1
		c1.3-4,3.5-7.7,4.3-11.8c1.6-8.4,4.9-16.3,9.5-22.9c3.7-5.3,8-10.7,12.4-15.8c7-8,14.6-14.8,23.4-20.6c-1-1.6-4.1-0.6-4-3.4
		c0,0,0,0,0,0c1.5,0,2.3-0.7,2.4-2.2c0.8,0,1.5-0.1,2.3-0.1c2.5,4.7,6.8,2.2,10,1.9c2.9-0.3,4.4-3.2,4-6.5c1.5,0,3.1-0.1,4.6-0.1
		c4.8,0,9.5,0.1,14.3,0c1.8,0,4,0.5,4.4-2.3c4.3,0,8.7,0,13,0c5.8,0.8,11.5,1.6,17.3,2.4c0.5,2.7,3.7,4.6,2.4,7.8
		c-0.5,0.1-1,0.2-1.5,0.4c-4.9-3.8-7.4,3.2-11.8,2.1c2.9,1.6,5.7,1.3,8.5,1.1c11,1.5,17.7,8.9,23.3,17.5
		C246.2,160.7,242.9,155.8,240.5,156.7z"/>
	<path class="st0" d="M229.4,134.3c1.3-3.3-1.9-5.1-2.4-7.8c11.4-10.2,24.9-13.1,39.7-10.7c1.3,0.2,2.6,0.7,3.8,1.1
		c-6.1,0.1-12.2,0.2-18.4,0.2c-4,0.1-7.5,1.2-10,4.6c-1.5,1.4-3.1,2.7-4.4,4.3c-0.9,1.1-5.4,0.7-2.1,4c1.4,1.5,4.4,0.1,5.3,2.7
		c0.1,0.2,0.1,0.4,0.2,0.5C237.2,133.7,233.3,134,229.4,134.3z"/>
	<path class="st3" d="M242.1,121.7c2.5-3.3,6-4.5,10-4.6c6.1-0.1,12.2-0.2,18.4-0.2c1.2,0.1,2.3,0.3,3.5,0.4
		c-0.1,0.7-0.3,1.4-0.4,2.1C262.9,117.9,252.6,121.5,242.1,121.7z"/>
	<path class="st2" d="M231.6,189.4c0.2,2.9-4.6,5.8-1.2,8.2c2.3,1.6,4.7-2.1,6.9-3.5c10.2-6.7,21.8-10,32.8-14.7
		c8.6-3.6,13.8,1.2,19.2,4.2c8.8,4.9,17.5,10.4,25,17.3c2.3,2.2,4.6,4.3,7,6.6c1.5-1.2,0.8-2.9,1.3-4.2c1,0.1,2.3-0.3,2.8,0.2
		c7.3,6.2,14.2,13,20,20.6c1.2,1.6,1.5,5,3.8,3.8c1.9-0.9,0.9-3.8-0.2-6.1c-2.6-5.5-4.7-11.4-8.3-16.4c-6.4-9-14.1-16.8-23.2-23
		c0,0,0,0,0,0c-1.9-3.8-4.1-7.4-9.3-7c-2.4-0.4-4.9-1.9-4.4-4c0.5-2.2,3.6-1.6,5.7-1.2c10,1.7,20,3.5,30.3,2.9
		c6.5-0.4,12.5-3.2,19.2-3.1c-4.8-2.7-9.5-4.9-13.4-8.4c0.1-3,2.2-2.6,4.1-2.6c8.7,0,17.4,0.1,26,0.2c-0.3,2.4,1.6,3.1,3,4.4
		c5.3,4.8,11.3,9.3,15.1,15.1c3.9,6,7.6,12.4,9.8,19.6c2.3,7.7,4.4,15.5,4.6,23.4c0.4,11.5,0.8,23-1.9,34.5
		c-2,8.8-4.3,17.4-7.3,25.9c-1.5,4.3-3.6,8.3-5,12.6c-1.5,4.7-3.5,10.2-8.1,12.9c-2.6,1.5-3.2,2.7-3.2,5.2c0,1.1-0.1,2.6-0.8,3.3
		c-8.1,7.3-13.8,17-23.6,22.8c-4.1,2.4-8.2,5.2-12.1,7.9c-3.8,2.6-7.9,5.2-11.8,7.4c-12.6,7.4-27,11-41.2,11.7
		c-17,0.8-34.1,1.5-51.3-1.1c-8.7-1.3-16.9-4.1-25.4-5.8c-13-2.6-23.9-11.3-37.1-13.8c-1.1-0.2-1.4-1.2-1.6-2.2
		c-0.5-2.4-2.6-3.6-4.4-4.2c-3.6-1.1-6.2-4.1-9.5-5.4c-4.1-1.6-4.7-8.6-10.7-6.6c-0.5-0.2-1.4-0.3-1.5-0.7
		c-4.1-9.6-8.7-19.1-10.9-29.2c-4.9-23-5.9-46.2-0.4-69.4c4.6-19.2,13-35.9,28.6-48.3c4.7-3.8,9.9-7.7,16.6-7.5
		c0.4,2.8-5,4.2-2.5,6.5c1.4,1.3,4.4-2.2,6.7-3.2c9.1-4,18.8-4.8,28.6-4.7c4.2,0.1,8.5,0.4,12.7,0.6c2.5,1.5,2.8,2.7-0.2,4.3
		c-6.2,3.3-13.1,5.3-19,9.3c-10.2,6.9-17.9,16-22.5,27.4c-2,5.2-3.2,10.7-4.9,16.4c2.7-0.1,3.7-1.4,4.1-2.4
		c4.9-11.9,15.1-19.3,24-27.7c4.9-4.6,11.7-6.2,17.1-10C231.3,187.1,231.3,188.6,231.6,189.4z"/>
	<path class="st3" d="M153.4,326.7c6-2,6.6,5,10.7,6.6c3.2,1.3,5.8,4.2,9.5,5.4c1.9,0.6,4,1.8,4.4,4.2c0.2,1,0.4,2,1.6,2.2
		c13.2,2.5,24.1,11.2,37.1,13.8c8.5,1.7,16.7,4.5,25.4,5.8c17.2,2.7,34.3,1.9,51.3,1.1c14.2-0.6,28.7-4.3,41.2-11.7
		c3.8-2.2,8-4.8,11.8-7.4c3.9-2.7,7.9-5.5,12.1-7.9c9.8-5.7,15.5-15.5,23.6-22.8c0.7-0.6,0.8-2.1,0.8-3.3c0-2.5,0.6-3.7,3.2-5.2
		c4.5-2.7,6.6-8.2,8.1-12.9c1.4-4.4,3.5-8.4,5-12.6c3-8.5,5.3-17.1,7.3-25.9c2.6-11.5,2.2-23,1.9-34.5c-0.2-7.9-2.3-15.7-4.6-23.4
		c-2.1-7.2-5.8-13.6-9.8-19.6c-3.8-5.8-9.8-10.3-15.1-15.1c-1.4-1.3-3.3-2-3-4.4c10.8,0.1,19.6,5.2,28.2,10.9
		c10.3,6.9,17.1,17.1,22.4,27.5c11.1,21.9,14.3,45.7,12.1,70.1c-0.5,5.7-1.9,11.3-3.6,16.9c-1.8,6-2.3,12.3-4.1,18.4
		c-2.4,8.6-7.3,16.1-9.7,24.6c-2.1,7.3-7.4,12.9-11.3,19.2c-2.1,3.4-3.8,7-5.7,10.5c-3.4,6-9.3,9.2-14,13.6
		c-11.3,10.6-24,19.4-37.9,26.3c-15.7,7.8-32.3,12.7-49.7,15.8c-12.6,2.3-25,1.6-37.5,2c-10.9,0.3-21.5-3.1-32.2-4.1
		c-13.4-1.3-25.3-7-37.9-10.5c-11.1-3.1-21.4-9.1-31.4-15.2c-17.2-10.5-33.4-22.3-46.8-37.4c-7.7-8.7-15.7-17.3-22-27.2
		c-4.7-7.4-9.4-14.9-11.5-23.1c-2.4-9.3-5.8-18.6-5.5-28.5c0.2-7.1-0.3-14.2-0.3-21.2c-0.3-23,7.9-43.2,17.8-63
		c4.4-8.9,10.7-16.9,17.5-24c7.6-7.8,16.2-14.6,25.3-20.9c5.3-3.6,10.1-6.8,16.6-6.6c-0.1,2.8,3,1.8,4,3.4
		c-8.8,5.8-16.3,12.6-23.4,20.6c-4.4,5-8.7,10.5-12.4,15.8c-4.6,6.6-7.9,14.5-9.5,22.9c-0.8,4-3,7.8-4.3,11.8
		c-0.8,2.5-2.8,5.6,1.5,7.1c-1.9,4.9-2.2,10.1-2.7,15.3c-2,21-1.7,41.6,6.1,61.6c8.2,21.1,21.6,38.4,39.2,52.2
		c7.6,5.9,15.7,11.2,25,14.4c1.3,2.1,3.4,2.8,5.7,3.2c0.2,0.1,0.3,0.2,0.5,0.2c-0.2-0.1-0.3-0.2-0.5-0.3c-0.8-2.9-3.2-3.9-5.7-4.6
		c-5.2-3.7-9.8-8-13.6-13.1C160.4,338.4,154.9,333.8,153.4,326.7z"/>
	<path class="st2" d="M306,144.8c-8.2-0.1-14.7,3.5-20.7,8.7c-0.8,0.7-1.6,0.9-2.5,0.8l-0.2-0.2c0.4-14.2,7.8-24.3,18.4-32.8
		c1-0.8,1.8-0.1,2.6-0.1c1,3.2,2.1,5.5,6.2,3.1c2.8-1.6,5.3,1,7.8,2.1c1.2,5,6.2,6.8,9,10.4c2.4,3.1,4.9,5.7,9.1,5.9
		c1.9,0.1,2.8,0.9,2.8,2.8c0,1.9-0.4,3.5-2.5,3.9c-1.5,0.3-3.1,0.2-4.6,0.4c0,0,0.1,0,0.1,0c-0.3-3.7-3.1-2.2-5-2.3
		c-4.5,1.2-7.9-3.2-12.3-2.7C308.2,140.2,306.8,140.2,306,144.8z"/>
	<path class="st3" d="M331.5,149.8c1.5-0.1,3.1-0.1,4.6-0.4c2.1-0.4,2.5-2.1,2.5-3.9c0-1.9-1-2.7-2.8-2.8c-4.2-0.1-6.7-2.8-9.1-5.9
		c-2.8-3.6-7.8-5.4-9-10.4c6.4,0.7,12.1,3.7,17.1,7.4c5.5,4.1,11.4,7.7,15.8,13.1c0.9,1.1,2.5,2.3,1.5,4c-1,1.7-2.7,1-4.1,0.5
		c-4.9-1.8-9.5,1.5-14.3,0.6C332.2,152.1,331.3,151.5,331.5,149.8z"/>
	<path class="st3" d="M173.4,126.4c0.4,3.3-1.1,6.2-4,6.5c-3.2,0.3-7.5,2.8-10-1.9C163.4,127.5,168.5,127.3,173.4,126.4z"/>
	<path class="st3" d="M196.6,124.1c-0.4,2.8-2.6,2.3-4.4,2.3c-4.8,0-9.5,0-14.3,0c0.5-2.7,2.7-2.2,4.5-2.2
		C187.1,124.1,191.9,124.1,196.6,124.1z"/>
	<path class="st3" d="M157.1,131.1c-0.1,1.5-0.9,2.2-2.4,2.2C154.7,131.8,155.5,131,157.1,131.1z"/>
	<path class="st4" d="M153.4,326.7c1.5,7.1,7,11.7,11.1,17.2c3.8,5,8.4,9.4,13.6,13.1c0,0.5,0,1,0,1.5c-9.2-3.2-17.4-8.5-25-14.4
		c-17.7-13.9-31-31.1-39.2-52.2c-7.8-20-8.1-40.6-6.1-61.6c0.5-5.2,0.8-10.4,2.7-15.3c4.5-7.7,6.5-16.4,11.2-24
		c12.4-20,29.3-33.4,52.5-38.6c1.7-0.4,3.5-0.7,4.9,0.7c-13.6,5.8-24.4,15.2-33.4,26.7c-0.9,1.1-2.1,2-0.8,3.4c1,1,2.2,0.2,3.1-0.5
		c3.5-3,7.7-4.9,11.8-6.9c10.3-4.9,20.7-9.4,32.2-10.5c-2.1,2.1-4.1,4.2-6.2,6.4c-6.7-0.2-11.9,3.8-16.6,7.5
		c-15.6,12.4-24,29.1-28.6,48.3c-5.5,23.2-4.6,46.4,0.4,69.4c2.2,10.2,6.8,19.7,10.9,29.2C152,326.4,152.9,326.5,153.4,326.7z
		 M142.7,186.2c-1.6-0.3-2.3,0.4-2.8,1.1c-0.6,0.8-1.9,1.6-0.2,2.7C141.3,189.4,142.5,188.5,142.7,186.2z"/>
	<path class="st0" d="M192,165.2c-11.5,1.1-21.9,5.6-32.2,10.5c-4.1,2-8.3,3.9-11.8,6.9c-0.9,0.8-2,1.5-3.1,0.5
		c-1.3-1.3-0.1-2.3,0.8-3.4c9.1-11.5,19.8-20.9,33.4-26.7c10.2-3,20.3-6.8,31.3-5.5c5.8,0.7,11.6,1.3,16.7,4.6
		C213.7,151.8,201.8,155.6,192,165.2z"/>
	<path class="st0" d="M231.6,189.4c-0.3-0.8-0.3-2.4-1.6-1.4c-5.4,3.8-12.2,5.4-17.1,10c-8.9,8.4-19.1,15.8-24,27.7
		c-0.4,1-1.4,2.3-4.1,2.4c1.7-5.7,2.8-11.2,4.9-16.4c4.5-11.5,12.3-20.5,22.5-27.4c5.9-4,12.8-6,19-9.3c3-1.6,2.6-2.8,0.2-4.3
		c4.3-1.2,7.3,3,12.7,2.2C239.4,179.1,235.5,184.3,231.6,189.4z"/>
	<path class="st2" d="M242.1,121.7c10.5-0.2,20.8-3.9,31.4-2.3c2.8,2.9-1.1,4.7-1.2,7.2c-0.5,6.2-2.1,12.2-4.3,18.7
		c-7.7-7.2-15.9-13-26.9-12c-0.1-0.2-0.1-0.4-0.2-0.5c-0.9-2.6-3.8-1.2-5.3-2.7c-3.2-3.4,1.2-2.9,2.1-4
		C239,124.5,240.6,123.2,242.1,121.7z M264.6,123.2c0.3,0.1,0.7,0.5,1,0.4c0.2-0.1,0.3-0.6,0.4-0.9c-0.3-0.1-0.7-0.5-1-0.4
		C264.8,122.4,264.7,122.9,264.6,123.2z"/>
	<path class="st0" d="M317.6,182.3c9.2,6.3,16.8,14.1,23.2,23c3.5,5,5.7,10.8,8.3,16.4c1.1,2.3,2.1,5.2,0.2,6.1
		c-2.3,1.1-2.6-2.2-3.8-3.8c-5.8-7.7-12.7-14.4-20-20.6c-0.6-0.5-1.9-0.2-2.8-0.2C323.6,195.6,321.2,188.8,317.6,182.3z"/>
	<path class="st0" d="M240.5,156.7c2.4-0.9,5.7,4,7.4-1.2c2.9,1.6,2.5,5.3,4.5,7.5c0.4,0.4-0.2,3-1.4,2
		C247.6,162,241.8,162.1,240.5,156.7z"/>
	<path class="st0" d="M224.6,137.9c-2.8,0.1-5.7,0.4-8.5-1.1c4.4,1.1,6.9-5.9,11.8-2.1C227.1,136.1,223.9,135,224.6,137.9z"/>
	<path class="st0" d="M308.4,175.4c5.1-0.4,7.3,3.1,9.3,7C314.4,180.3,310.5,179,308.4,175.4z"/>
	<path class="st3" d="M306,144.8c0.8-4.6,2.2-4.6,8.3,0C311.5,144.8,308.7,144.8,306,144.8z"/>
	<path class="st3" d="M326.6,147.5c2,0.2,4.7-1.3,5,2.3C329.5,149.9,327.2,150.5,326.6,147.5z"/>
	<path class="st2" d="M282.8,154.3c-0.3,0.6-0.6,1.3-0.8,1.9c-0.4-0.3-1.1-0.5-1.1-0.9c-0.1-1.3,0.7-1.5,1.8-1.3
		C282.6,154.1,282.8,154.3,282.8,154.3z"/>
	<path class="st2" d="M178.1,358.4c0-0.5,0-1,0-1.5c2.6,0.7,4.9,1.8,5.7,4.6l0,0C181.5,361.2,179.4,360.5,178.1,358.4z"/>
	<path class="st2" d="M183.8,361.6c0.2,0.1,0.3,0.2,0.5,0.3C184.1,361.8,184,361.7,183.8,361.6C183.8,361.6,183.8,361.6,183.8,361.6
		z"/>
	<path class="st3" d="M142.7,186.2c-0.1,2.3-1.4,3.2-3,3.8c-1.7-1.1-0.4-1.9,0.2-2.7C140.4,186.6,141.1,185.9,142.7,186.2z"/>
	<path class="st3" d="M264.6,123.2c0.1-0.3,0.2-0.8,0.5-0.9c0.2-0.1,0.6,0.2,1,0.4c-0.1,0.3-0.2,0.8-0.4,0.9
		C265.3,123.7,264.9,123.3,264.6,123.2z"/>
</g>
</svg>
