<svg version="1.1" id="Слой_1" xmlns="http://www.w3.org/2000/svg" x="0" y="0" viewBox="0 0 841.9 595.3" style="enable-background:new 0 0 841.9 595.3" xml:space="preserve"><style>.st0{opacity:.4;fill:#272425;enable-background:new}.st1{fill:#fff}.st2{fill:#e8c0a9}.st3{fill:#cc4a62}.st5{fill:#90405b}.st7{fill:#660d2e}.st10{fill:#b0943f}.st12{fill:#5b3614}.st13{fill:#b7986e}</style><g id="Слой_1_1_"><ellipse class="st0" cx="254.4" cy="495.6" rx="115" ry="38.7"/><ellipse class="st1" cx="340.3" cy="100.6" rx="6.3" ry="3.3"/><path class="st2" d="M401.7 169.6c-1.8-1.4-4.1-1.9-6.3-1.4-4 .7-1.4 5.4-1.7 12.8s-5.9 18.8-5.9 18.8 5.9 1.9 7 0 8.1-17.8 8.1-17.8l-1.2-12.4z"/><path class="st2" d="M414.7 166.6s-2.9-9-9.5-8.7-6.2 5.9-5.2 12.6-4.5 23.5-8.3 26.1 7.3 1 9.2 0 11.3-9.9 12.1-13.1 1.7-16.9 1.7-16.9z"/><path class="st2" d="M393.6 198s18-18.2 18.2-31.9 3-17.1 8.5-16.6S431 163 427.1 175s-8.1 19.3-7.1 23 18 9.7 15.7 21.1-9.7 9.3-10.6 8.4-3.5-6-11.8-8.4-14.8-1.5-15.2-3.2-4.5-17.9-4.5-17.9zM108.2 325.4s-13.3 6.9-17.3 13.3 3.1 29.6 10.2 32 19.2-4 19.2-4 6.2 1.9 10-2.8.2-21.8 0-22.2-22.1-16.3-22.1-16.3zM198.1 490c5.8-4.4 1.6-10.2 1.6-10.2 25.2-38.8 11.8-61.8 11.8-61.8l-16.6-6.5s-24.9-45.9-18.2 2.8c3.9 28.4-6.5 46.3-15.9 56.4 17.3 26.8 31.6 23.7 37.3 19.3z"/><path class="st3" d="M147.8 481s.2 20.1 19.2 30.7c18.9 10.6 49.4 6.9 53.1-2.1 3.7-9 1.6-14.5-5-18.5s-15.3-11.3-15.3-11.3 4.2 5.8-1.6 10.2-20.1 7.5-37.4-19.4c-3.8 4.2-8.2 7.7-13 10.4z"/><path class="st2" d="M305.5 461.6s-2.3-35.1-36.9-61.2-24 5.8-24 5.8l-2.8 9.9s26.3 25 30.9 44.1c-.7-.3 44.8 26.4 32.8 1.4z"/><path class="st3" d="M269.7 480.6c-1.9 6 23.3 21.5 42.9 17.5s25.2-10.6 23.8-19.9-19.6-10.4-30.9-16.6c10.7 17.9-26.5 2.8-32.8-1.3 0 .1.1.3.1.4s-1.3 13.9-3.1 19.9zM159.7 346.1s-16.4 36.3-24.7 41.4c0 0 44 52.3 94.9 36 0 0 31.8-6.6 42.9-24.2 0 0-20.2-28.5-22.4-42.5s-29.5-20.5-30.9-19.8-35.3 9.4-35.3 9.4l-24.5-.3z"/><path d="m344 215.9 47.1-21.6s13.2-1.1 10.2 21.6l-62.5 37.3-64.2 37.2s-39 28.2-22.4 72c0 0-15.7 20.1-53.3 15.5s-41.1-27.2-41.1-27.2 16.6-37.9 21.7-43.9c0 0-31.6 6-39 37.4 0 0-18.2 5.1-28.4-4.2s-6.5-20.3-6.5-20.3 29.8-53.1 95.6-55.6 56 12.2 54.8 12.7 36.9-49.2 36.9-49.2l51.1-11.7z" style="fill:#2e3549"/><path class="st5" d="M346.8 227.6s-12.7 29.8 0 49.2c0 0-13.9 1.5-27.8-8.4s-9.2-44.6-9.2-44.6l13.9-4.5 23.1 8.3z"/><path class="st2" d="M346.9 186.4s9.3 35.6-6.9 71.3-98.3 63.7-126.4 0-14.2-63.7-14.2-63.7l10-10.7s7.3-23.9 9-26.3 28-6.2 36.4-8.7c8.4-2.4 42.6 4.6 48.8 5.9s18.7.7 19.7 0 12.1-5.2 13.5-4.9 10.1 37.1 10.1 37.1z"/><path d="M317.8 228.6s11.4-1 13.7 6.8-5.9 15.8-14.7 14c0 0 15.8 5 17.8-8.8s-12.6-14.2-16.8-12z" style="fill:#bd846a"/><path class="st7" d="M288.8 215.9c0 5.7-3.2 10.3-7.2 10.3s-7.1-4.6-7.1-10.3 3.2-10.3 7.1-10.3 7.2 4.6 7.2 10.3z"/><ellipse class="st7" cx="331.6" cy="209.5" rx="6" ry="9.7"/><path class="st1" d="M307.5 258.1s-33.5 5.8-49.2-12.5c0 0-5.5 15.5 0 27.9 5.5 12.5 36.7 4.1 36.7 4.1 1.7-7.8 6.1-14.8 12.5-19.5z"/><path class="st5" d="M331.6 169.8S296 194.7 238.5 193c0 0-23 42.6-6.1 97.7 0 0-50.2-25.7-61-73.1 0 0-.6-77.1 52.6-105.7 43.4-23.3 122.8-13.4 130.6 46.1 0 0 11.8 18.4-5.5 41.8-.1 0-14.5-6.2-17.5-30z"/><path d="m235.4 193 3.3-2.1s-.9-22.5-16.1-27.7l-2.4 3.1s-4.2 17.1 15.2 26.7z" style="fill:#f2d159"/><path class="st5" d="M294.1 194.3s-12.9-8.1-25.9.9c.1.1 13.5-22.3 25.9-.9zM322.3 194.3s9-9.9 15.2-1.4c0 .1-5.3-19.6-15.2 1.4z"/><path d="M263.4 297.3s-18.2-1.2-29.8-10.9l1 5.7s-21.7-7.1-36.8-25.4c0 0 8.6 20.4 40 30.6l-.5-5.2c7.2 4.3 15.1 7.1 23.4 8.2l2.7-3z" style="fill:#272425"/><ellipse class="st0" cx="566.7" cy="523.7" rx="79.8" ry="20"/><path class="st10" d="M571.6 447.7s.1.1.2.4c1.3 2.6 8 17.2-3.7 30.9l8.4 21.3s5.9.2 8.5 0 6.5 10.2 6.5 10.2l-28.6 1.2-2.5-10s-9.2-22.3-16.6-27-1.2-9.2 0-11 10.4-18.6 11.9-19.4 15.9 3.4 15.9 3.4zM582.3 433.6l23.3 2.2 4.7 12.9s2.2 21.8 15.2 20.4c0 0 6.9-.3 9.5-5.4l-7-19.7s-12.4-27.5-12.7-28.5-8.9-4.4-10.4-4.7-8.9 1.2-13.4 3.5-10.9 7.2-10.9 9 1.7 10.3 1.7 10.3z"/><path d="m609.6 311.2-30.1-15 8.5 41.1-6 24.8s-13.2 22.8-28.3 35.3-35.5 22.5-50.9 18.1-34.8-23.9-34.8-23.9-1.3 33.9 25 36.4c0 0-8.3 4-16.3 2.7 0 0 6.7 19.2 28.8 14.7 0 0-2.9 4.9-8.3 5.8 0 0 13.2 7.4 21.2 2.9 0 0 1.1 10.7-11.4 18.8 0 0-4.9 3.4 0 13.2s10.7 31.3 10.7 31.3l5.6 7.8s14.5 4.5 21.2 2c0 0 5.1-1.3 7.8-8.5 0 0-.2-5.8-3.6-8l-8.5-.2-10.9-20.6s27.2-2.2 28.8-34.4c0 0 25-6.7 32.2-29l15.2-1.6 6 3.8 5.4 15.9s4.5 11.8 13.4 8.9 7.2-14.7 7.2-14.7-4-1.3-4.5-9.1-.4-25.5-.4-25.5l-14.7-7.4s11.2-18.1 15-22.5 13.6-10.5 20.5-9.4 14.1-1.3 14.1-1.3v-17.2s-25.2 11.4-33.5-14.7c0 0 13 1.8 19.9-1.8s24.1-23.4 24.1-23.4l-6.3-10-8.7-5.4-23.4 14.7-13.8-.7-16.2 6.1z" style="fill:#ecdfac"/><path class="st12" d="M655.4 295.6s6.7 8.4 19 5l-7.2-12.6-11.8 7.6z"/><ellipse class="st12" cx="627.4" cy="315.1" rx="4.3" ry="4.6"/><path class="st13" d="M700.8 316 666 194.1c1.1-3.6 4-6.3 7.6-7.1 4.9-1.4 10.1-.1 13.8 3.4l32.9 119.3-19.5 6.3z"/><path class="st13" d="m697.3 236.9 5.9-30.2s11.3-8.6 20.2 4.9c0 0-18.9 53.8-18.9 54.6s-7.2-29.3-7.2-29.3z"/><path d="M713.8 238.7s9.3-13.1 29.4-14.6c0 0-5.2 18.6-29.4 14.6z" style="fill:#e5ffa2"/><ellipse transform="rotate(-14.07 710.302 312.23)" cx="710.3" cy="312.2" rx="10.3" ry="7.5" style="fill:#ebc89b"/></g></svg>