<svg version="1.1" id="Слой_1" xmlns="http://www.w3.org/2000/svg" x="0" y="0" viewBox="0 0 841.9 595.3" style="enable-background:new 0 0 841.9 595.3" xml:space="preserve"><style>.st0{fill:#76549e}.st3{fill:#92a52b}.st4{fill:#9e8767}.st11{fill:#a7b431}.st13{fill:#fffefe}</style><path class="st0" d="M589.5 295.4c-11.5-65.8-46.9-99.1-113-111.2-20.6-3.8-40.7-3.5-59.7 6.5-7.1-1.5-14.1-3.7-21.2-4.5-63-7.7-107.9 8-134.1 78.3-7.4 20-10.7 41.2-12.5 62.5-6.6 78.1 17.6 144.6 75.6 197.8 51 46.8 127.5 49.2 179.2 16.4 25.3-12.8 43-33.3 56.2-57.6 32-59.2 41-122.6 29.5-188.2zm-57.2 141.1c-2.6 3-5.6 5.3-9.4 4.3 3.8 1 6.8-1.2 9.4-4.3 12.5-7.3 21.6-18.1 30.9-30-9.2 12-18.3 22.7-30.9 30z"/><path class="st0" d="M387.5 133.8c3.8 12 6.4 24.7 16.2 33.9 1 3.1 2 6.3 2.9 9.4 1 10.6 7.8 5 11.8 3.6 22.6-7.7 44.7-17 65.1-29.4 24.7-15 45.1-35.1 59.9-60.3 10.5-17.9 15.3-36.9 11-57.7-17-8.7-34.6-3.6-51.6-1C465 38.5 435.9 58.9 414 90h-.1c-.7-4.4 0-10.3-7-9.2-10.1 1.5-20.7 4.3-28.1 10.9-5.9 5.3 1.6 13.3 2.7 20.2 1.2 7.4 3.7 14.7 6 21.9zm18.7-19.1c.5-1.6 1-3.2 1.4-4.8.6-1.8 1.1-3.7 1.6-5.5-.5 1.8-1.1 3.7-1.6 5.5-.4 1.6-.9 3.2-1.4 4.8zm56.3 3.5c1.2-.3 2.2-1.1 2.9-2.4-.7 1.4-1.7 2.1-2.9 2.4zm15.6-10c-.5 1-1.2 1.9-1.9 2.6.8-.7 1.4-1.6 1.9-2.6zm68.4-65.1c-1 2.4-2.2 4.6-4.3 6-7 13.8-15.9 25.5-26.6 35.4 10.7-9.8 19.6-21.6 26.6-35.4 2.1-1.4 3.3-3.7 4.3-6zM401.6 95.7c-.4.3-.8.7-1.2 1-1 .3-1.9.7-2.7 1.2.8-.4 1.7-.8 2.7-1.2.4-.3.8-.7 1.2-1zm-6.2 3.6c-.4.3-.9.7-1.3 1.1.4-.5.8-.8 1.3-1.1zM503.7 541.1c-51.7 32.7-128.2 30.4-179.2-16.4-58-53.3-82.2-119.7-75.6-197.8 1.8-21.3 5-42.5 12.5-62.5 26.1-70.3 71.1-86 134.1-78.3 7.2.9 14.2 3 21.2 4.5 23.1 5.9 42.1 19.4 61.1 33 28.4 31.7 38.4 70.3 41 111.4 2 31-.1 62-2.5 93-.3 4.6-.3 9.8 4.8 12.3 4.6 2.2 8.1-.3 11.1-3.7 16.7-9.7 27.3-25.6 40.4-42.3 0 15.4-4.3 27.1-7.7 38.8-11.1 38.4-26.2 74.7-58 101.4-1.6 1.3-6 2.5-3.2 6.6zm-95.6-338.4c-4.3-4.4-9.6-6.8-15.5-8-31.6-6.5-59.9 0-84.7 20.9-19.7 16.6-27.7 39.2-33.2 63.2-7.4 32.5-4.7 83.8 6 105.7 0-5.3.2-10 0-14.6-.9-20.4-3.9-40.7-2.7-61.2 2.1-35.5 16.5-52 51.3-56.9 9.8-1.4 19.1-3.9 27.9-8.3 6.3.9 12.6 2.3 18.9 2.6 53.4 3.1 85.1 33 103 81.4 13.6 36.7 18.5 74.7 20.4 113.5 2.8-10.6 3.7-21.3 4.7-32.2 3.8-40.1 3.9-79.4-9.9-118.2-15.4-43-44.8-71-86.2-87.9zm9.5 346.1c3.4 0 6.8.2 10.2 0 6.3-.4 13-2.9 13.5-9.1.6-7.2-7.9-7.9-12.4-8.1-19.5-.7-37.5-5.4-54.5-14.9-3.9-2.2-10-3.2-13 1-3.8 5.3.6 9.9 4.8 12.8 15.4 10.8 31.9 18.9 51.4 18.3zm-45.5-287.4c-1.1-2.4-2.6-5.1-6.2-4.3-4.3 1-8.2 3.2-8.2 8.2 0 3.7 2.1 6.6 6.5 5.4 4.4-1.1 7.4-3.8 7.9-9.3z"/><path d="M503.7 541.1c-2.8-4.2 1.6-5.3 3.4-6.8 31.8-26.7 46.9-63 58-101.4 3.4-11.7 7.7-23.4 7.7-38.8-13.1 16.7-23.7 32.6-40.4 42.3 0-2.1-.3-4.3.2-6.3 13.1-49.3 7.9-97.7-8.2-145.3-7.9-23.5-17.8-46.1-38.1-62.2-2.8-2.2-6.5-8.4-8.3.8-19-13.6-38-27.1-61.1-33 19.1-10 39.2-10.3 59.7-6.5 66.1 12.1 101.5 45.4 113 111.2 11.5 65.6 2.4 129-29.6 188.2-13.3 24.5-31 45-56.3 57.8zM578 309c.7-10-2.4-19.4-5.1-28.7-4.3-14.7-9.5-29.2-17.8-42-4-6.1-9.1-16-18.8-11.4-10.6 5-5.6 14.9-2.7 22.4 4 10.7 9.3 21 14.2 31.3 4.5 9.6 10.9 18.4 12.1 29.2.9 7.8 1.6 17.7 11.1 17 9.5-.6 6.4-11 7-17.8z" style="fill:#412c6d"/><path d="M554.3 33.5c4.3 20.7-.5 39.8-11 57.7-14.8 25.2-35.2 45.2-59.9 60.3-20.3 12.4-42.4 21.7-65.1 29.4-4 1.4-10.9 7-11.8-3.6 6.4-13.8 15.5-25.6 26.5-36.2 7.6-7.4 18.1-10.9 24.5-19.5.9-1 1.8-2 2.6-3.1l-.1.1c2.2.1 4.2-.4 5.2-2.6l-.1.1 2.7-2.7-.1.1c4.5.4 8.2-.9 10.4-5.2v.1c28.4-12 49.9-31.5 64-59.1 5.8-4 4.4-13.5 12.2-15.8z" style="fill:#56772e"/><path class="st3" d="M457.6 121.4c-6.4 8.7-16.9 12.2-24.5 19.5-11 10.7-20 22.4-26.5 36.2-1-3.1-2-6.3-2.9-9.4 0-3.4 0-6.7.1-10.1 5.8-8.6-2.8-17-.3-25.6-.4-13.8 7-25.9 8-39.4l-.1.1c3.1 1.2 2.4-1.3 2.7-2.8l-.2.1c21.9-31.2 51-51.7 88.9-57.6 17-2.7 34.6-7.8 51.6 1-7.8 2.2-6.4 11.8-12.2 15.6-5.2-8.5-12.7-11.2-22.5-10.4-18.3 1.4-34.3 8.6-50.1 17-32.4 17.3-51.4 43.2-53 80.5-1 .9-3.3 1.5-.9 3.3l.9-3.3c10.6-12.8 22.3-24.2 37.7-31.3 18.1-8.4 32.7-22.3 49.4-32.8.5 4.7-2.7 7.6-4.5 11.4-5 10.2-18 13.2-21 24.7v-.1c-4.2.2-7.8 1.6-10.4 5.2l.1-.1-2.7 2.7.1-.1c-2.2-.1-4.2.4-5.2 2.6l.1-.1c-.9 1.2-1.8 2.2-2.6 3.2z"/><path class="st4" d="M403.7 157.6c0 3.4 0 6.7-.1 10.1-9.8-9.2-12.3-21.9-16.2-33.9-2.3-7.3-4.8-14.6-6.1-22-1.1-6.9-8.7-14.9-2.7-20.2 7.4-6.5 18-9.3 28.1-10.9 7.1-1.1 6.3 5 7.1 9.4l.2-.1c-2.4-.5-3 .7-2.7 2.8l.1-.1c-3.4 3-8.5 3.3-11.1 4-10.7 3.6-11.3 12.3-10 21.3 2 14 7 27.1 13.4 39.6z"/><path d="M408.1 202.7c41.4 16.9 70.8 44.9 86.1 88 13.8 38.9 13.7 78.2 9.9 118.2-1 10.8-1.9 21.6-4.7 32.2-1.8-38.8-6.8-76.8-20.4-113.5-17.9-48.4-49.6-78.2-103-81.4-6.3-.4-12.6-1.7-18.9-2.6 3.5-5.9 7-11.6 7.7-18.7 1.7-16.6 14-26.1 30.7-24.1 4.3.5 8.5 1.2 12.6 1.9z" style="fill:#8d70b0"/><path d="M408.1 202.7c-4.2-.7-8.4-1.4-12.6-2-16.7-2-28.9 7.5-30.7 24.1-.7 7.1-4.2 12.9-7.7 18.7-8.9 4.3-18.1 6.9-27.9 8.3-34.7 4.9-49.1 21.3-51.3 56.9-1.2 20.5 1.8 40.8 2.7 61.2.2 4.7 0 9.3 0 14.6-10.7-21.9-13.4-73.2-6-105.7 5.5-24.1 13.6-46.6 33.2-63.2 24.8-21 53.2-27.5 84.7-20.9 6.1 1.2 11.4 3.6 15.6 8z" style="fill:#d3cde5"/><path d="M477.9 223.6c1.9-9.3 5.6-3 8.3-.8 20.3 16 30.1 38.7 38.1 62.2 16.1 47.6 21.3 95.9 8.2 145.3-.5 2-.2 4.2-.2 6.3-3 3.4-6.5 5.9-11.1 3.7-5.1-2.5-5.2-7.7-4.8-12.3 2.3-31 4.4-61.9 2.5-93-2.6-41.1-12.5-79.7-41-111.4z" style="fill:#261e48"/><path d="M417.6 548.8c-19.6.6-36.1-7.5-51.4-18.4-4.1-2.9-8.6-7.5-4.8-12.8 3-4.1 9.1-3.2 13-1 17 9.5 35 14.3 54.5 14.9 4.6.2 13.1.8 12.4 8.1-.5 6.2-7.2 8.8-13.5 9.1-3.3.2-6.8.1-10.2.1z" style="fill:#8c6faf"/><path d="M372.1 261.4c-.5 5.4-3.6 8.1-7.9 9.4-4.4 1.2-6.5-1.6-6.5-5.4 0-5.1 3.9-7.2 8.2-8.2 3.7-.9 5.1 1.9 6.2 4.2z" style="fill:#e6deec"/><path d="M578 309c-.6 6.8 2.5 17.2-7.1 17.9-9.5.7-10.2-9.3-11.1-17-1.2-10.9-7.6-19.7-12.1-29.2-4.9-10.4-10.2-20.6-14.2-31.3-2.9-7.6-7.8-17.4 2.7-22.4 9.7-4.6 14.8 5.3 18.8 11.4 8.3 12.8 13.5 27.3 17.8 42 2.8 9.2 5.9 18.5 5.2 28.6z" style="fill:#73519c"/><path class="st11" d="M503.6 72.1c-16.7 10.5-31.3 24.4-49.4 32.8-15.4 7.1-27.1 18.4-37.7 31.3 1.7-37.4 20.6-63.3 53-80.5 15.8-8.4 31.8-15.6 50.1-17 9.9-.7 17.4 1.9 22.5 10.4-14.1 27.6-35.6 47.1-64 59.1 3-11.5 16-14.5 21-24.7 1.8-3.7 5.1-6.7 4.5-11.4 1.8-1.2 2.8-2.7 2-4.9-.1-.3-.6-.4-1-.6-.3 1.8-.7 3.7-1 5.5z"/><path class="st11" d="M467.8 113.3c2.5-3.6 6.1-5 10.4-5.2-2.2 4.3-5.9 5.6-10.4 5.2zM460.1 118.5c1-2.3 3-2.7 5.2-2.6-1 2.1-3 2.7-5.2 2.6zM465.2 115.9l2.7-2.7-2.7 2.7z"/><path class="st11" d="M457.6 121.4c.9-1 1.8-2 2.6-3.1-.9 1.1-1.8 2.1-2.6 3.1z"/><path d="M403.7 157.6c-6.5-12.5-11.5-25.6-13.4-39.6-1.2-9-.7-17.7 10-21.3-2.9 12.1-.8 23.8 3.1 35.4-2.5 8.5 6.1 17 .3 25.5z" style="fill:#6a5c41"/><path class="st13" d="M403.5 132.1c-3.9-11.5-6-23.2-3.1-35.4 3.1-2.9 6.6-4.9 11.1-4-1 13.5-8.5 25.6-8 39.4z"/><path class="st11" d="m416.5 136.2-.9 3.3c-2.4-1.8-.1-2.4.9-3.3z"/><path class="st13" d="M411.4 92.8c-.4-2.1.3-3.3 2.7-2.8-.3 1.5.4 4-2.7 2.8z"/><path class="st3" d="M503.6 72.1c.3-1.9.7-3.7 1-5.6.3.2.9.4 1 .6.8 2.3-.2 3.9-2 5z"/><path class="st4" d="M399.6 97c.2 0 13-3 13.9-3.9s.6-6-.2-7.2c-.8-1.2-11.1-4.4-13.2-.9s-.5 12-.5 12z"/></svg>