<svg xmlns="http://www.w3.org/2000/svg" viewBox="0 0 370 290">
    <defs>
        <clipPath id="clip-path">
            <path class="cls-1"
                  d="M32.49 62.58 3.83 79.23c1.83-1.06 4.36-.91 7.16.71l28.65-16.65c-2.8-1.62-5.33-1.77-7.15-.71Z"/>
        </clipPath>
        <clipPath id="clip-path-2">
            <path class="cls-1" d="m201.65 181.35 28.66-16.66c-.32-.18-.65-.35-1-.51l-28.66 16.65c.35.17.68.33 1 .52Z"/>
        </clipPath>
        <clipPath id="clip-path-3">
            <path class="cls-1"
                  d="m208.7 205.11 28.65-16.66c2-1.17 3.17-3.84 2.89-7.55l-28.65 16.65c.27 3.71-.87 6.38-2.89 7.56Z"/>
        </clipPath>
        <clipPath id="clip-path-4">
            <path class="cls-1"
                  d="m211.58 197.55 28.66-16.65c-.76-6.68-5-13.34-9.94-16.2l-28.65 16.65c4.97 2.86 9.18 9.52 9.93 16.2Z"/>
        </clipPath>
        <clipPath id="clip-path-5">
            <path class="cls-1"
                  d="m44 19.25-14.46 8.4a5.49 5.49 0 0 0-2.63 4 27.12 27.12 0 0 0-.33 4.59c0 1.7.11 3.52.27 5.37l14.46-8.4a67.97 67.97 0 0 1-.27-5.38 27.08 27.08 0 0 1 .33-4.58 5.49 5.49 0 0 1 2.63-4Z"/>
        </clipPath>
        <clipPath id="clip-path-6">
            <path class="cls-1"
                  d="m27.18 41.62 14.46-8.4c.29-.17.46-.8.64-.94s.38-.24.57-.35l-14.46 8.4-.57.35c-.19.14-.36.77-.64.94Z"/>
        </clipPath>
        <clipPath id="clip-path-7">
            <path class="cls-1"
                  d="m44 19.25-14.46 8.4c4-2.32 11.35 0 15.68 2.35l14.48-8.4C55.37 19.24 48 16.93 44 19.25Z"/>
        </clipPath>
        <clipPath id="clip-path-8">
            <path class="cls-1" d="m60.2 21.89-.5-.29L45.24 30l.5.29Z"/>
        </clipPath>
        <clipPath id="clip-path-9">
            <path class="cls-1"
                  d="M89.09 47.28C81.64 40.87 69 27 60.21 21.89l-14.47 8.4c8.8 5.07 21.44 19 28.89 25.39l14.46-8.4Z"/>
        </clipPath>
        <clipPath id="clip-path-10">
            <path class="cls-1"
                  d="m89.09 47.28-14.46 8.4a37.52 37.52 0 0 0 5.7 4.14l14.46-8.4a37.52 37.52 0 0 1-5.7-4.14Z"/>
        </clipPath>
        <clipPath id="clip-path-11">
            <path class="cls-1"
                  d="m92 61.2 14.47-8.4-.6.31c-2.4 1.14-5.45 1-9-.63-.66-.3-1.33-.65-2-1l-14.46 8.4c.69.4 1.37.75 2 1.05 3.56 1.61 6.6 1.77 9 .63.16-.15.36-.25.59-.36Z"/>
        </clipPath>
        <clipPath id="clip-path-12">
            <path class="cls-1"
                  d="m95.24 50.82 14.46-8.4c-2.16 1.26-5.36.1-8.64-1.79-1.75-1-3.51-2.22-5.15-3.4C89.86 32.93 65 11.8 55.75 6.46l-.5-.28C50.91 3.81 44 1.36 40.15 3.58L25.69 12c3.81-2.21 10.76.24 15.1 2.6l.5.29c9.25 5.34 34.11 26.46 40.15 30.76A66.91 66.91 0 0 0 86.6 49c3.28 1.92 6.48 3.08 8.64 1.82Z"/>
        </clipPath>
        <clipPath id="clip-path-13">
            <path class="cls-1"
                  d="m92 61.2 14.47-8.4c4.95-2.87 6.88-11.93 7.49-15.53l-14.47 8.4c-.64 3.6-2.58 12.65-7.49 15.53Z"/>
        </clipPath>
        <clipPath id="clip-path-14">
            <path class="cls-1"
                  d="m94.5 74.16 14.5-8.4.68-.43c5.55-3.88 5.85-16.26 4.93-25.35l-14.47 8.4c.93 9.09.63 21.47-4.92 25.35Z"/>
        </clipPath>
        <clipPath id="clip-path-15">
            <path class="cls-1" d="M100.1 48.38 114.57 40a25 25 0 0 0-.65-2.72l-14.46 8.4a22.86 22.86 0 0 1 .64 2.7Z"/>
        </clipPath>
        <clipPath id="clip-path-16">
            <path class="cls-1"
                  d="M196 151.14a37.06 37.06 0 0 0-18.94 31.79 36.37 36.37 0 0 0 18.15 32c4.63 2.69 11 2.38 18.08-1.56 14.38-8 26.21-28 26.42-44.71-14.18-8.24-37.22-8.47-51.71-.4 14.49-8.07 37.53-7.84 51.71.4.1-8.48-2.82-14.46-7.6-17.24a36.4 36.4 0 0 0-36.12-.31Z"/>
        </clipPath>
        <clipPath id="clip-path-17">
            <path class="cls-1"
                  d="M232.1 151.45a37.93 37.93 0 0 0-9.38-3.83A36.73 36.73 0 0 0 195.2 215c-4.79-2.78-7.7-8.76-7.6-17.24.2-16.67 12-36.69 26.42-44.71 7.07-3.98 13.45-4.29 18.08-1.6Z"/>
        </clipPath>
        <clipPath id="clip-path-18">
            <path class="cls-1"
                  d="M349.37 283.89a36.62 36.62 0 0 0 13.81-13.48 37.52 37.52 0 0 0 5.14-18.33c.06-5.32-3.46-10.65-10.55-14.77-.2 16.67-12 36.69-26.42 44.7-7.07 3.95-13.45 4.25-18.08 1.56a36.19 36.19 0 0 0 36.1.32Z"/>
        </clipPath>
        <clipPath id="clip-path-19">
            <path class="cls-1"
                  d="M313.27 283.57c4.63 2.69 11 2.39 18.08-1.56 14.39-8 26.22-28 26.42-44.7L239.7 168.69c-.2 16.67-12 36.69-26.42 44.71-7.07 3.94-13.45 4.25-18.08 1.56Z"/>
        </clipPath>
        <clipPath id="clip-path-20">
            <path class="cls-1"
                  d="M232.1 151.45c4.78 2.79 7.7 8.76 7.6 17.24l118.07 68.62c.1-8.48-2.81-14.46-7.6-17.24Z"/>
        </clipPath>
        <clipPath id="clip-path-21">
            <path class="cls-1"
                  d="M350.17 220.07c4.79 2.78 7.7 8.76 7.6 17.24 7.09 4.12 10.62 9.46 10.55 14.77a36.39 36.39 0 0 0-18.14-32Z"/>
        </clipPath>
        <clipPath id="clip-path-22">
            <path class="cls-1"
                  d="M350.17 220.07 232.1 151.45c-4.63-2.69-11-2.38-18.08 1.56-14.39 8-26.22 28-26.42 44.71-.1 8.48 2.82 14.46 7.6 17.24l118.07 68.61c-4.78-2.78-7.7-8.76-7.6-17.23.2-16.68 12-36.69 26.42-44.71 7.08-3.94 13.45-4.25 18.08-1.56Z"/>
        </clipPath>
        <clipPath id="clip-path-23">
            <path class="cls-1"
                  d="M368.32 252.08a36.38 36.38 0 0 0-18.15-32c-4.63-2.69-11-2.38-18.08 1.56-14.38 8-26.21 28-26.42 44.71-.1 8.47 2.82 14.45 7.6 17.23a36.94 36.94 0 0 0 8.83 3.69 36 36 0 0 0 9.8 1.27 36.91 36.91 0 0 0 36.42-36.45c-.06 5.32-3.71 10.6-11 14.63 7.28-4.03 10.94-9.32 11-14.64Z"/>
        </clipPath>
        <style>
            .cls-1{fill:none}.cls-4{fill:#a9892f}.cls-11{fill:#d6d7d6}.cls-14{fill:#bbc1c3}.cls-16{fill:#2e949a}.cls-18{fill:#2c8389}.cls-32{fill:#c83227}.cls-40{fill:#d42027}.cls-43{fill:#ef3e3c}
        </style>
    </defs>
    <g id="Шар_2" data-name="Шар 2">
        <g id="Шар_1-2" data-name="Шар 1">
            <path style="fill:none" d="M0 0h370v290H0z"/>
            <path class="cls-4"
                  d="m11 79.94 28.64-16.65c-2.8-1.62-5.33-1.77-7.15-.71L3.83 79.23c1.83-1.06 4.36-.91 7.16.71Z"
                  style="clip-path:url(#clip-path)"/>
            <path style="fill:#fdb816" d="m118.44 142.32 28.66-16.65L39.64 63.29 10.99 79.94l107.45 62.38z"/>
            <path style="fill:#fbab1a" d="m200.68 180.84 28.65-16.66-82.23-38.51-28.66 16.65 82.24 38.52z"/>
            <path class="cls-4" d="m201.65 181.35 28.66-16.66c-.32-.18-.65-.35-1-.51l-28.66 16.65c.33.16.66.33 1 .52Z"
                  style="clip-path:url(#clip-path-2)"/>
            <path class="cls-4"
                  d="m208.7 205.11 28.65-16.66c2-1.17 3.17-3.84 2.89-7.55l-28.65 16.65c.27 3.71-.87 6.38-2.89 7.56Z"
                  style="clip-path:url(#clip-path-3)"/>
            <path class="cls-4"
                  d="m211.58 197.55 28.66-16.65c-.76-6.68-5-13.34-9.94-16.2l-28.65 16.65c5 2.86 9.18 9.52 9.94 16.2Z"
                  style="clip-path:url(#clip-path-4)"/>
            <path d="M201.65 181.35a9.4 9.4 0 0 0-1-.52l-82.23-38.51L11 79.94C5.43 76.73.93 79.29.91 85.69S5.33 99.8 10.89 103l107.46 62.26 84.15 39.62c5.53 2.6 9.59-.7 9.09-7.34-.76-6.67-4.97-13.33-9.94-16.19Z"
                  style="fill:#ffcb05"/>
            <path class="cls-11" d="m46.76 57.57 28.27-16.43-44.05-25.51L2.71 32.06l44.05 25.51z"/>
            <path style="fill:#868786" d="m82.05 121.13 28.27-16.43 8.99-37.92-28.27 16.43-8.99 37.92z"/>
            <path class="cls-11" d="m91.04 83.21 28.27-16.43-44.28-25.64-28.27 16.43 44.28 25.64z"/>
            <path style="fill:#fff"
                  d="m2.74 32.04 8.62 48.15 3.51 2.02 3.22 1.87 10.79 6.22 3.14 1.87 10.86 6.29 3.14 1.8.53.3 10.26 5.99 3.14 1.79 10.86 6.29 3.22 1.88 8.01 4.64 8.99-37.97-11.08-6.44-3.22-1.87-13.71-7.94-3.22-1.79-13.03-7.57-.67-.37-3.22-1.87-13.7-7.94-3.22-1.87-13.71-7.94-3.22-1.87-6.29-3.67z"/>
            <path class="cls-14"
                  d="M42.88 55.33v43.13l3.14 1.8.08-43.06-3.22-1.87zM56.81 106.55l3.14 1.79 3.07-41.41-3.22-1.79-2.99 41.41zM70.81 114.63l3.22 1.88 5.92-39.77-3.22-1.87-5.92 39.76zM25.96 45.52l2.92 44.78 3.14 1.87-2.84-44.78-3.22-1.87zM9.03 35.71l5.84 46.5 3.22 1.87-5.84-46.5-3.22-1.87z"/>
            <path class="cls-16"
                  d="m26.87 41.6 14.46-8.4a62.96 62.96 0 0 1-.26-5.37 25.94 25.94 0 0 1 .32-4.58 5.49 5.49 0 0 1 2.63-4l-14.46 8.4a5.49 5.49 0 0 0-2.63 4 27.12 27.12 0 0 0-.33 4.59c0 1.7.11 3.53.27 5.37Z"
                  style="clip-path:url(#clip-path-5)"/>
            <path class="cls-18"
                  d="m27.18 41.62 14.46-8.4c.29-.17.46-.8.64-.94s.38-.24.57-.35l-14.46 8.4-.57.35c-.19.14-.36.77-.64.94Z"
                  style="clip-path:url(#clip-path-6)"/>
            <path class="cls-18"
                  d="m45.24 30 14.46-8.4C55.37 19.25 48 16.93 44 19.25l-14.46 8.4c4.02-2.32 11.37 0 15.7 2.35Z"
                  style="clip-path:url(#clip-path-7)"/>
            <path class="cls-18"
                  d="m80.33 59.82 14.46-8.4a37.84 37.84 0 0 1-5.7-4.14C81.64 40.87 69 27 60.21 21.89l-.5-.28L45.25 30l.5.28c8.8 5.08 21.43 19 28.88 25.39a37.34 37.34 0 0 0 5.7 4.14Z"
                  style="clip-path:url(#clip-path-8)"/>
            <path class="cls-18"
                  d="m80.33 59.82 14.46-8.4a37.84 37.84 0 0 1-5.7-4.14C81.64 40.87 69 27 60.21 21.89l-.5-.28L45.25 30l.5.28c8.8 5.08 21.43 19 28.88 25.39a37.34 37.34 0 0 0 5.7 4.14Z"
                  style="clip-path:url(#clip-path-9)"/>
            <path class="cls-18"
                  d="m80.33 59.82 14.46-8.4a37.84 37.84 0 0 1-5.7-4.14C81.64 40.87 69 27 60.21 21.89l-.5-.28L45.25 30l.5.28c8.8 5.08 21.43 19 28.88 25.39a37.34 37.34 0 0 0 5.7 4.14Z"
                  style="clip-path:url(#clip-path-10)"/>
            <path class="cls-18"
                  d="m92 61.2 14.47-8.4-.6.31c-2.4 1.14-5.45 1-9-.63-.66-.3-1.33-.65-2-1l-14.46 8.4c.69.4 1.37.75 2 1.05 3.56 1.61 6.6 1.77 9 .63l.6-.31Z"
                  style="clip-path:url(#clip-path-11)"/>
            <path class="cls-16"
                  d="m95.24 50.82 14.46-8.4c-2.16 1.26-5.36.1-8.64-1.79-1.75-1-3.51-2.22-5.15-3.4C89.86 32.93 65 11.8 55.75 6.46l-.5-.28C50.91 3.81 44 1.36 40.15 3.58L25.69 12c3.81-2.21 10.76.24 15.1 2.6l.5.29c9.25 5.34 34.11 26.46 40.15 30.76A66.91 66.91 0 0 0 86.6 49c3.28 1.89 6.48 3 8.64 1.79Z"
                  style="clip-path:url(#clip-path-12)"/>
            <path class="cls-16"
                  d="m92 61.2 14.47-8.4c4.95-2.87 6.88-11.93 7.49-15.53l-14.47 8.4c-.6 3.6-2.54 12.65-7.49 15.53Z"
                  style="clip-path:url(#clip-path-13)"/>
            <path class="cls-18"
                  d="m94.5 74.16 14.5-8.4.68-.43c5.55-3.88 5.85-16.26 4.93-25.35l-14.47 8.4c.93 9.09.63 21.47-4.92 25.35Z"
                  style="clip-path:url(#clip-path-14)"/>
            <path class="cls-18" d="M100.1 48.38 114.57 40a25 25 0 0 0-.65-2.72l-14.46 8.4a22.86 22.86 0 0 1 .64 2.72Z"
                  style="clip-path:url(#clip-path-15)"/>
            <path d="M99.45 45.67c-.63 3.74-2.7 13.37-8.08 15.84-2.41 1.14-5.45 1-9-.64-.66-.3-1.34-.65-2-1a36.67 36.67 0 0 1-5.7-4.14c-7.45-6.41-20.09-20.31-28.88-25.39l-.5-.28c-5.77-3.14-16.88-6.2-18.31 1.64a27.08 27.08 0 0 0-.33 4.58c0 1.7.11 3.53.27 5.37.48.3.7-.74.95-.92 4.51-3 10.09-1.71 16 1.71C54.94 48.8 67.25 62.62 76 69.11a55.78 55.78 0 0 0 5.25 3.51c5.45 3.15 9.92 3.86 13.92 1.11 5.56-3.88 5.86-16.26 4.93-25.35a21 21 0 0 0-.65-2.71Z"
                  style="fill:#3ab3bb"/>
            <path style="fill:#30979d" d="m99.45 45.66 14.47-8.4-.1-.24-14.46 8.4.09.24z"/>
            <path d="M99.35 45.42a25.71 25.71 0 0 1-3.68 5.11c-2.16 1.7-5.57.52-9.08-1.5-1.74-1-3.51-2.22-5.15-3.4-6-4.3-30.9-25.42-40.15-30.76l-.5-.29C35 11.43 24.57 8.12 23.14 15.93c-1.57 8.74 2.69 23 2.82 23.45a5.93 5.93 0 0 0 .91 2.22 62.96 62.96 0 0 1-.26-5.37 26.07 26.07 0 0 1 .32-4.58c1.43-7.84 12.55-4.78 18.31-1.64l.5.28c8.8 5.08 21.43 19 28.88 25.39a38.61 38.61 0 0 0 5.7 4.15c.7.4 1.37.74 2 1 3.56 1.62 6.6 1.78 9 .64 5.38-2.47 7.44-12.1 8.08-15.84Z"
                  style="fill:#4fc4ce"/>
            <g style="clip-path:url(#clip-path-16)">
                <path class="cls-32"
                      d="M196 151.14a36.58 36.58 0 0 1 36.11.31c4.78 2.79 7.7 8.76 7.6 17.24-14.17-8.24-37.22-8.47-51.71-.4 14.49-8.07 37.54-7.84 51.71.4-.2 16.68-12 36.69-26.42 44.71-7.07 3.94-13.45 4.25-18.08 1.56-26.75-17-22.09-51.46.79-63.82Z"/>
                <path class="cls-32"
                      d="M239.7 168.69a49.5 49.5 0 0 1-4.5 19c0-.1 0-.24-.06-.34-5.25-14.28-18.81-8.74-22.72-2-4.7 8.09-.2 20.14 12.71 18.21a45.81 45.81 0 0 1-11.85 9.85c-7.07 3.94-13.45 4.25-18.08 1.56l-2.47-1.57a38.51 38.51 0 0 1-5.58-4.77l-1.87-2.11a34.45 34.45 0 0 1-3.32-4.8l-1.27-2.39a80.54 80.54 0 0 1-1.83-4.52l-.71-2.46a97.45 97.45 0 0 1-.75-3.86l-.25-2.39c0-1-.1-2.21-.1-3.16l.09-2.23c.08-.75.17-1.76.27-2.52l.33-2 .47-2.05.5-1.75c.18-.53.4-1.23.59-1.75l.63-1.59c.21-.47.48-1.1.7-1.56l.75-1.48.8-1.43.87-1.4c.29-.42.65-1 .94-1.38l1-1.35c.33-.4.77-.95 1.11-1.34l1.21-1.33c.41-.4.94-.95 1.36-1.35l1.46-1.3c.52-.41 1.21-1 1.74-1.38l1.78-1.24c.69-.42 1.6-1 2.31-1.4l2.13-1.1a37.64 37.64 0 0 1 5.32-2l2.51-.65c1.52-.27 3.57-.58 5.1-.75l2.72-.1c1.39.05 3.25.16 4.63.3l2.77.47c1.3.32 3 .77 4.29 1.17l2.69 1c1.2.57 2.79 1.35 3.95 2 4.78 2.78 7.7 8.76 7.6 17.24-14.17-8.24-37.22-8.47-51.71-.4 14.49-8.07 37.54-7.84 51.71.4Z"/>
            </g>
            <g style="clip-path:url(#clip-path-17)">
                <path class="cls-32"
                      d="M232.1 151.45c-32.38-17.13-63.07 14.14-53.24 43.36A36.68 36.68 0 0 0 195.2 215c-4.78-2.78-7.7-8.76-7.6-17.24.2-16.67 12-36.69 26.42-44.71 7.07-3.94 13.45-4.24 18.08-1.56Z"/>
                <path class="cls-32"
                      d="M187.6 197.72a49.5 49.5 0 0 1 4.5-19l-.34-2.75c0-.42-.79-10.31 10.42-13.09A45.6 45.6 0 0 1 214 153c7.07-3.94 13.45-4.25 18.08-1.56l-2.59-1.37a84.1 84.1 0 0 0-4.06-1.65l-2.73-.81c-1.29-.28-3-.63-4.32-.83l-2.76-.24h-4.59l-2.64.3c-1.5.28-3.49.72-5 1.1l-2.35.79a37.4 37.4 0 0 0-5.1 2.35l-1.94 1.16c-.65.44-1.52 1-2.15 1.49l-1.54 1.27-1.61 1.42-1.31 1.3-1.26 1.38-1.1 1.32c-.31.41-.74 1-1 1.38l-.93 1.37-.88 1.4-.8 1.43c-.23.45-.53 1-.75 1.48l-.69 1.54c-.19.48-.46 1.12-.64 1.61l-.57 1.68c-.15.55-.38 1.27-.52 1.82l-.43 1.88c-.11.64-.28 1.49-.37 2.13l-.24 2.13c0 .79-.11 1.83-.12 2.62v2.36c.08 1 .18 2.24.3 3.19l.43 2.48c.28 1.16.68 2.7 1 3.84l.91 2.49a86.46 86.46 0 0 0 2.18 4.43l1.47 2.33a35.36 35.36 0 0 0 3.72 4.57l2.05 2a39.43 39.43 0 0 0 6 4.36c-4.78-2.78-7.7-8.76-7.6-17.24Z"/>
            </g>
            <g style="clip-path:url(#clip-path-18)">
                <path class="cls-32"
                      d="M349.37 283.89a36.19 36.19 0 0 1-36.1-.32c4.63 2.69 11 2.39 18.08-1.55 14.39-8 26.22-28 26.42-44.71 7.09 4.12 10.62 9.46 10.55 14.77-.84 19.93-13.53 28.88-18.95 31.8Z"/>
                <path class="cls-32"
                      d="M368.32 252.08a37.82 37.82 0 0 1-.36 4.75l-.34 2c-.14.62-.31 1.44-.46 2.06l-.5 1.75c-.18.52-.4 1.23-.6 1.75l-.63 1.59c-.21.47-.47 1.09-.7 1.56L364 269l-.81 1.43-.87 1.4c-.28.42-.65 1-.94 1.38l-1 1.35-1.12 1.35-1.26 1.3c-.41.4-.95 1-1.37 1.35l-1.46 1.3c-.52.42-1.2 1-1.73 1.38l-1.78 1.24c-.69.43-1.6 1-2.31 1.4l-2.14 1.1a39.05 39.05 0 0 1-5.92 2.22l-2.53.6c-1.51.25-3.53.52-5.06.66l-2.72.06a87.28 87.28 0 0 1-4.6-.37l-2.77-.51c-1.29-.35-3-.82-4.26-1.24l-2.69-1.08c-1-.51-2.4-1.19-3.41-1.75 4.63 2.69 11 2.38 18.08-1.56a45.6 45.6 0 0 0 11.84-9.85l2.73-.75c8.77-4.8 7.85-11.5 7.35-15.1a49.41 49.41 0 0 0 4.5-19c7.09 4.12 10.61 9.45 10.55 14.77Z"/>
            </g>
            <g style="clip-path:url(#clip-path-19)">
                <path class="cls-32"
                      d="M313.27 283.57 195.2 215c4.63 2.69 11 2.38 18.08-1.56a45.88 45.88 0 0 0 11.83-9.84l118.08 68.62a45.53 45.53 0 0 1-11.84 9.78c-7.07 3.95-13.45 4.25-18.08 1.56Z"/>
                <path d="m343.19 272.18-118.08-68.62a62.46 62.46 0 0 0 10.08-15.84l118.08 68.61a63.07 63.07 0 0 1-10.08 15.85Z"
                      style="fill:#e9ab9f"/>
                <path class="cls-32"
                      d="m353.27 256.33-118.08-68.62a49.25 49.25 0 0 0 4.51-19l118.07 68.62a49.5 49.5 0 0 1-4.5 19Z"/>
            </g>
            <path class="cls-32"
                  d="M357.77 237.31 239.7 168.69c.1-8.48-2.82-14.46-7.6-17.24l118.07 68.62c4.79 2.78 7.7 8.76 7.6 17.24Z"
                  style="clip-path:url(#clip-path-20)"/>
            <g style="clip-path:url(#clip-path-21)">
                <path class="cls-32"
                      d="M350.17 220.07c12.07 7.67 18.17 18.44 18.15 32 .07-5.31-3.46-10.65-10.55-14.77.1-8.48-2.81-14.46-7.6-17.24Z"/>
                <path class="cls-32"
                      d="M358.23 226.4a40.59 40.59 0 0 1 5.19 6.9l1.27 2.39a80.43 80.43 0 0 1 1.82 4.52l.71 2.46c.25 1.15.57 2.69.75 3.85l.26 2.39c0 1 .1 2.22.1 3.16.06-5.31-3.46-10.65-10.55-14.77.1-8.48-2.82-14.46-7.6-17.24l2.47 1.57a39.13 39.13 0 0 1 5.59 4.77Z"/>
            </g>
            <g style="clip-path:url(#clip-path-22)">
                <path class="cls-40"
                      d="M350.17 220.07 232.1 151.45c-4.63-2.69-11-2.38-18.08 1.56a45.88 45.88 0 0 0-11.83 9.84l118.07 68.62a45.68 45.68 0 0 1 11.83-9.84c7.07-3.94 13.45-4.25 18.08-1.56Z"/>
                <path d="m320.26 231.47-118.07-68.62a62.51 62.51 0 0 0-10.08 15.85l118.07 68.62a62.34 62.34 0 0 1 10.08-15.85Z"
                      style="fill:#e62625"/>
                <path class="cls-40"
                      d="M310.18 247.31 192.11 178.7a49.52 49.52 0 0 0-4.51 19c-.1 8.47 2.82 14.45 7.6 17.23l118.07 68.62c-4.78-2.78-7.7-8.76-7.6-17.24a49.65 49.65 0 0 1 4.51-19Z"/>
            </g>
            <g style="clip-path:url(#clip-path-23)">
                <path class="cls-43"
                      d="M368.32 252.08c-.28-14.05-6.38-24.82-18.15-32-4.63-2.69-11-2.38-18.08 1.56-14.38 8-26.21 28-26.42 44.71-.1 8.47 2.82 14.45 7.6 17.23 27.3 14.45 54.6-5.82 55.05-31.49-.06 5.32-3.71 10.6-11 14.63 7.26-4 10.91-9.31 11-14.63Z"/>
                <path class="cls-43"
                      d="M357.34 266.71c7.26-4 10.91-9.31 11-14.63 0-.7 0-1.65-.05-2.36-.08-.95-.18-2.23-.3-3.19l-.43-2.47c-.28-1.16-.68-2.7-1-3.84l-.91-2.48a72.7 72.7 0 0 0-2.18-4.43L362 231a35.53 35.53 0 0 0-3.71-4.58l-2.06-2a37.76 37.76 0 0 0-6-4.35c-4.63-2.69-11-2.38-18.08 1.56a45.93 45.93 0 0 0-11.84 9.84l1.9-.28c12.88-.3 15.54 13.5 9.16 20.76-7.42 8.44-19.49 4.4-21.13-4.63a49.46 49.46 0 0 0-4.5 19c-.1 8.47 2.81 14.45 7.6 17.23l2.59 1.37c1 .45 2.44 1.07 3.5 1.47l2.73.85c1.28.3 3 .68 4.3.89l2.76.3c1.37 0 3.2.06 4.57 0l2.65-.25c1.49-.26 3.47-.65 4.94-1l2.37-.75a39.75 39.75 0 0 0 5.69-2.56l1.93-1.16c.65-.44 1.52-1 2.15-1.49l1.59-1.25 1.61-1.42 1.31-1.3 1.26-1.38 1.1-1.33c.32-.41.74-.95 1-1.37l.94-1.37.87-1.41.8-1.39c.22-.44.53-1 .75-1.48l.69-1.54c.19-.48.46-1.12.63-1.61l.58-1.68c.16-.55.38-1.27.52-1.82l.43-1.88c.11-.64.28-1.49.37-2.14l.24-2.12c0-.79.11-1.83.12-2.62-.06 5.31-3.71 10.6-11 14.63Z"/>
            </g>
        </g>
    </g>
</svg>