<svg xmlns="http://www.w3.org/2000/svg" xmlns:xlink="http://www.w3.org/1999/xlink" width="743.04" height="728.48" viewBox="0 0 557.28 546.36"><defs><linearGradient id="a" x1="752.47" y1="312.35" x2="551.74" y2="498.16" gradientTransform="rotate(-32.7 189.63 554.3)" gradientUnits="userSpaceOnUse"><stop offset="0" stop-color="#b9e2f6"/><stop offset="1" stop-color="#52bfe0"/></linearGradient><linearGradient id="b" x1="751.35" y1="313.06" x2="550.77" y2="498.73" gradientTransform="rotate(-32.7 189.63 554.3)" gradientUnits="userSpaceOnUse"><stop offset="0" stop-color="#3eb8e5"/><stop offset="1" stop-color="#038cbe"/></linearGradient><linearGradient id="d" x1="672.53" y1="213.04" x2="471.81" y2="398.84" gradientTransform="rotate(3.33 1741.25 165.86)" xlink:href="#a"/><linearGradient id="e" x1="671.4" y1="213.75" x2="470.84" y2="399.41" gradientTransform="rotate(3.33 1741.25 165.86)" xlink:href="#b"/><linearGradient id="f" x1="536.21" y1="394.9" x2="514.48" y2="475.13" gradientTransform="rotate(7.99 904 339.04)" gradientUnits="userSpaceOnUse"><stop offset="0" stop-color="#feea02"/><stop offset="1" stop-color="#f1ad1e"/></linearGradient><linearGradient id="g" x1="547.38" y1="397.93" x2="525.65" y2="478.15" gradientTransform="rotate(7.99 904 339.04)" gradientUnits="userSpaceOnUse"><stop offset="0" stop-color="#717274"/><stop offset="1" stop-color="#272327"/></linearGradient><linearGradient id="h" x1="527.86" y1="434.33" x2="511.4" y2="495.11" gradientTransform="rotate(7.99 904 339.04)" gradientUnits="userSpaceOnUse"><stop offset="0" stop-color="#f0ac1e"/><stop offset="1" stop-color="#da8a28"/></linearGradient><linearGradient id="i" x1="415.22" y1="351.81" x2="349.48" y2="452.09" gradientTransform="rotate(90 398.8 387.6)" gradientUnits="userSpaceOnUse"><stop offset="0" stop-color="#9c9c9d"/><stop offset="1" stop-color="#1b171b"/></linearGradient><linearGradient id="j" x1="415.04" y1="351.69" x2="349.3" y2="451.97" gradientTransform="rotate(7.99 904 339.04)" gradientUnits="userSpaceOnUse"><stop offset="0" stop-color="#656568"/><stop offset="1" stop-color="#1b171b"/></linearGradient><linearGradient id="k" x1="412.87" y1="355" x2="349.95" y2="450.97" gradientTransform="rotate(7.99 904 339.04)" gradientUnits="userSpaceOnUse"><stop offset="0" stop-color="#717274"/><stop offset="1" stop-color="#1b171b"/></linearGradient><linearGradient id="l" x1="279.3" y1="517.62" x2="282.64" y2="459.13" gradientTransform="rotate(90 318.6 429.43)" gradientUnits="userSpaceOnUse"><stop offset="0" stop-color="#feea02"/><stop offset="1" stop-color="#c0992e"/></linearGradient><linearGradient id="c" x1="219.46" y1="406.78" x2="219.46" y2="418.27" gradientTransform="rotate(90 264.64 376.8)" gradientUnits="userSpaceOnUse"><stop offset="0" stop-color="#fff"/><stop offset="1" stop-color="#1b171b"/></linearGradient><linearGradient id="m" x1="298.15" y1="406.91" x2="298.15" y2="419.17" gradientTransform="rotate(90 337.38 383.3)" xlink:href="#c"/></defs><path d="M557.28 155.04a52.91 52.91 0 0 0-3.16-18.54c-2.74-7.07-7.83-13.65-15.55-20.1a65.08 65.08 0 0 0-22.83-12.22 58.9 58.9 0 0 0-8.9-1.91 126.36 126.36 0 0 0-19.72-.84c-17.84.3-36.54 4.59-55.6 12.73-18.58 7.93-35.37 18.66-50.75 29.06q-7.8 5.3-14.91 10.48l3.04-2.94q4.37-4.21 8.8-8.41c14.92-14.23 30.36-28.95 43.45-45.4 9.64-12.12 22.24-30.59 20.37-51.07-.79-8.67-4.31-17.25-10.49-25.5a52.83 52.83 0 0 0-13.46-13.13A46.88 46.88 0 0 0 398.58.7a73.65 73.65 0 0 0-5.4-.55 65.1 65.1 0 0 0-25.66 3.54c-9.3 3.25-17.65 9.25-24.76 14.6-14.24 10.75-26.84 25.23-37.48 43.02-10.35 17.33-17.61 35.89-23.92 53.36A426.89 426.89 0 0 0 266 166.09a367.38 367.38 0 0 0-8.48 82.63 91.44 91.44 0 0 0-9.49-6.25 88.06 88.06 0 0 0-31.76-10.82 93.26 93.26 0 0 0-73.07 21.02 88.36 88.36 0 0 0-6.9 6.52 59.6 59.6 0 0 0-16.7 1.12q-.86.18-1.73.4c14.71-19.53 37.62-33.18 59.55-34.89a8.35 8.35 0 0 0 7.99-8.36 9.4 9.4 0 0 0-7.88-9.79 9.82 9.82 0 0 0-2.14-.06c-28.23 2.2-57.59 20.68-75.15 46.77-9.7-29.92-32.84-55.77-59.38-65.65a9.83 9.83 0 0 0-2.08-.53 9.4 9.4 0 0 0-10.26 7.23 8.35 8.35 0 0 0 5.38 10.25c20.79 7.74 39.6 28.1 48.14 51.28a54.87 54.87 0 0 0-19.6-6.64 56.05 56.05 0 0 0-19.5.67c-16.67 3.53-31 15.25-38.28 31.34-7.22 15.97-6 34.85 3.3 50.54 8.17 13.77 22.87 23.37 39.34 25.68q1.36.2 2.73.32c-1.65 31.33 22.18 60.3 54.62 65.5l1.14.16c18.72 2.63 37.42-3.78 51.3-17.3-12.04 25.14-13.95 49.57-5.66 72.7a8.29 8.29 0 0 0 6.73 5.68 9.9 9.9 0 0 0 8.84-3.57 8.98 8.98 0 0 0 1.45-8.88c-7-19.54-4.44-40.7 7.6-62.92a92.36 92.36 0 0 0 11.47 2.8c-6.46 28.55-2.55 53.73 11.65 74.87a8.5 8.5 0 0 0 5.87 3.83 9.56 9.56 0 0 0 9.17-4.54 9 9 0 0 0-.2-10.02c-11.56-17.22-14.26-38.33-8.05-62.8a88.22 88.22 0 0 0 17.68-2.31 117.04 117.04 0 0 0 22.75 26.38c14.15 12.25 31.64 22 51.97 29.03 2.33 30.66 14.2 56.73 34.4 75.49a9.14 9.14 0 0 0 4.94 2.41 9.62 9.62 0 0 0 9.83-5.5 8.46 8.46 0 0 0-2.03-10.08c-15.4-14.31-25.11-33.93-28.23-56.96a186.87 186.87 0 0 0 15.12 2.77 210.1 210.1 0 0 0 71.35-2.67c5.65 30.02 20.74 55.33 42.72 71.57a9.15 9.15 0 0 0 4.22 1.77 9.56 9.56 0 0 0 9.93-6 8.5 8.5 0 0 0-2.95-10.3c-18.76-13.83-31.53-35.6-36.18-61.47 33.13-9.96 52.6-26.86 57.88-50.25 3.62-15.99 1.02-34.72-7.73-55.67-7.8-18.71-20.18-37.47-35.8-54.23a160.74 160.74 0 0 0-89.13-49.02c-2.3-.42-4.65-.8-6.98-1.13a174.66 174.66 0 0 0-31.94-1.49c37.4-21 82.4-27.24 122.54-32.8q6-.83 12.03-1.62c20.46-2.73 41.61-5.55 61.89-11.15 14.9-4.13 35.96-11.65 46.51-29.32 4.47-7.48 6.65-16.5 6.52-26.8Z" fill="#010101"/><path d="M417 316.7c-5.09-66.24 3.66-115.64 20.3-162.74 16.38-46.38 34.78-88.2 80.17-112.61 15.67-8.43 43.43-8.85 57.32 4.75 74.84 74.93-126.88 143.83-146.52 268.72Z" transform="translate(-154.32 -30.76)" fill="url(#a)"/><path d="M563.04 40.23c-31.26 30.46-60.45 62.61-83.33 99.96q-5.15 8.4-10 17c-.07-1.72-.16-3.45-.07-5.2l.55-10.69c.37-7.27.77-14.55 1.25-21.83.96-14.56 2.33-29.1 4.68-43.5.1-.6-.8-.8-.9-.2-2.3 14.02-3.64 28.18-4.63 42.36-.5 7.28-.9 14.57-1.29 21.86l-.56 10.71-.28 5.28c-.1 1.69-.68 3.22-.85 4.89l-.03.06h.02v.04a432.18 432.18 0 0 0-26.86 57.83c-2.97-8.85-4.1-18.88-5-28.04a141.78 141.78 0 0 1 0-30.99c.02-.08-.11-.12-.13-.03a129.48 129.48 0 0 0-.97 29.8c.42 5.42 1.1 10.83 1.94 16.2.79 5.08 2.24 10.07 2.94 15.16a1.07 1.07 0 0 0 .25.53 344.43 344.43 0 0 0-10 32q-2 7.72-3.48 15.47l-.15.2c-3.57-7.7-6.02-15.78-8.95-23.74-.09-.24-.45-.12-.37.11 2.97 8.35 4.85 17.19 8.49 25.28a.9.9 0 0 0 .56.5 219.24 219.24 0 0 0-3.47 47.78.27.27 0 0 0 .53-.03c-.16-16.75 2.18-33.79 5.7-50.28 7.67-7.96 17.74-12.7 26.96-18.74a.69.69 0 0 0-.75-1.15c-8.22 5.06-18.43 9.49-25.5 16.57q.75-3.36 1.56-6.68a336.05 336.05 0 0 1 11.9-38.33c3.81-2.7 7.3-5.96 11.27-8.5a119.94 119.94 0 0 1 17.18-8.91c11.47-4.96 23.5-8.16 35.38-11.93a.7.7 0 0 0-.42-1.33 207.24 207.24 0 0 0-35.55 11.35 128.31 128.31 0 0 0-16.46 8.43 106.26 106.26 0 0 0-10.13 7.58q3.53-9.16 7.46-18.16 8.92-20.31 19.68-39.78c.57-.51 1.2-.98 1.78-1.48 2.4-2.1 4.89-4.1 7.41-6.04 4.36-3.35 8.93-6.4 13.6-9.3a201.47 201.47 0 0 1 29.58-14.8c19.52-8.04 39.92-13.69 59.99-20.11a.88.88 0 0 0-.52-1.68c-21.46 6.48-43.13 12.38-63.82 21.12a199.8 199.8 0 0 0-28.8 14.95 155.08 155.08 0 0 0-14.56 10.5c-.44.36-.93.72-1.43 1.1a429.7 429.7 0 0 1 44.84-64.33c14.14-16.7 29.43-32.36 44.98-47.75.74-.74-.47-1.82-1.22-1.1Z" transform="translate(-154.32 -30.76)" fill="url(#b)"/><path d="M303.97 88.34s52.45-114.47 116.22-65.1c0 0-53.63-26.17-116.22 65.1Z" fill="#fff"/><path d="M262.72 285.94c-2.53-40.5-.4-81.24 8.93-120.8a443.74 443.74 0 0 1 16.47-52.92c6.83-18.35 14.6-36.45 25.13-53.02a138.03 138.03 0 0 1 41.85-42.46c7.99-5.12 16.05-8.87 25.48-10.25a56.55 56.55 0 0 1 26.92 2.43c11.23 4.01 20.02 14.45 24.78 25.18a40.31 40.31 0 0 1 2.5 24.41c-3.93 19.64-18.98 36.27-32.23 50.4-18.07 19.3-37.86 36.89-56.46 55.64-32.57 32.83-66.03 71.97-72.71 119.38-.1.74 1 1 1.15.25 10.11-56.12 52.68-97.88 92.06-135.81 17.87-17.21 36.48-34.04 51.97-53.5 10.88-13.67 21.32-30.49 19.66-48.7-.8-8.74-4.63-16.84-9.85-23.8a49.8 49.8 0 0 0-12.6-12.33c-6.73-4.34-14.94-6.06-22.82-6.59a61.81 61.81 0 0 0-24.34 3.36c-8.63 3.02-16.62 8.66-23.86 14.13-15.01 11.33-27.02 25.99-36.63 42.07-9.9 16.59-17.1 34.66-23.65 52.78a423.48 423.48 0 0 0-15.23 51.03c-8.8 39.14-10.13 79.26-6.6 119.13 0 .05.09.05.08 0Z" fill="#1b171b"/><path d="M419.24 301.51c34.84-56.56 70.98-91.36 112.14-119.66C571.9 154 611.39 131 662.46 137.95c17.63 2.4 40.33 18.4 43.56 37.56 16.44 104.62-187.22 41.67-276.57 131.1Z" transform="translate(-154.32 -30.76)" fill="url(#d)"/><path d="M699.98 163.86c-43.2 6.24-85.72 15.07-126.2 31.8q-9.1 3.76-18.1 7.88c.96-1.44 1.9-2.9 3.01-4.26l6.73-8.32q6.88-8.5 13.86-16.91c9.34-11.21 19-22.17 29.38-32.43.43-.42-.19-1.11-.61-.7-10.12 10-19.54 20.66-28.68 31.54-4.7 5.6-9.3 11.25-13.9 16.92l-6.75 8.33-3.33 4.1c-1.07 1.31-2.45 2.2-3.57 3.46a.56.56 0 0 0-.05.03v.01l-.02.03A432.74 432.74 0 0 0 496 236.3c2.81-8.9 7.8-17.67 12.47-25.6a141.74 141.74 0 0 1 18.22-25.06c.06-.07-.03-.17-.1-.1a129.62 129.62 0 0 0-18.31 23.51c-2.85 4.63-5.48 9.41-7.96 14.25-2.35 4.57-4.12 9.46-6.54 13.99a1.11 1.11 0 0 0-.12.57 347.08 347.08 0 0 0-26.9 20q-6.17 5.06-11.92 10.47l-.24.08c1.64-8.33 4.4-16.31 6.73-24.48.07-.24-.3-.36-.37-.13-2.5 8.5-6.18 16.75-8 25.44a.89.89 0 0 0 .16.72 219.54 219.54 0 0 0-30.91 36.6.26.26 0 0 0 .44.3c9.72-13.64 21.64-26.05 34.19-37.31 10.88-1.93 21.82.16 32.82.71a.7.7 0 0 0 .08-1.38c-9.63-.74-20.5-3.16-30.37-1.6q2.58-2.27 5.18-4.48a336.42 336.42 0 0 1 32.2-24c4.67.06 9.41-.52 14.11-.24a120 120 0 0 1 19.13 2.9c12.19 2.74 23.8 7.23 35.62 11.17a.7.7 0 0 0 .45-1.32 207.67 207.67 0 0 0-35.43-11.73 128.63 128.63 0 0 0-18.26-2.87 106.77 106.77 0 0 0-12.65.17q8.24-5.34 16.71-10.3 19.16-11.18 39.32-20.6c.76-.07 1.54-.07 2.3-.14 3.18-.3 6.37-.43 9.55-.52 5.5-.15 11 .07 16.47.47a201.3 201.3 0 0 1 32.63 5.44c20.5 4.98 40.33 12.41 60.34 19.03a.88.88 0 0 0 .56-1.67c-21.16-7.38-42.15-15.35-64.03-20.45a199.98 199.98 0 0 0-32.07-4.86 155.25 155.25 0 0 0-17.96-.08c-.57.03-1.17.04-1.8.05a429.46 429.46 0 0 1 74.1-25.64c21.26-5.2 42.83-8.86 64.46-12.16 1.04-.16.7-1.74-.33-1.6Z" transform="translate(-154.32 -30.76)" fill="url(#e)"/><path d="M414.54 135.25s109.76-61.71 132.3 15.72c0 0-27.99-52.7-132.3-15.72Z" fill="#fff"/><path d="M264.95 270.78c21.77-34.24 47.47-65.93 78.28-92.45a442.76 442.76 0 0 1 44.45-33.1c16.31-10.81 33.25-20.88 51.5-28.09a138.05 138.05 0 0 1 58.82-9.7c9.47.56 18.2 2.26 26.64 6.7a56.55 56.55 0 0 1 20.34 17.8c6.72 9.85 7.69 23.46 5.22 34.94a40.25 40.25 0 0 1-12.32 21.2c-14.74 13.57-36.69 18.16-55.72 21.8-25.95 4.97-52.31 7.56-78.39 11.78-45.65 7.38-95.73 19.35-129.02 53.76-.52.54.23 1.4.78.88 41.2-39.43 100.18-48.16 154.35-55.67 24.57-3.4 49.52-6.06 73.49-12.69 16.84-4.65 35.18-12.11 44.55-27.81 4.5-7.54 6.16-16.35 6.04-25.04a49.9 49.9 0 0 0-2.93-17.4c-2.9-7.46-8.53-13.68-14.59-18.74a61.83 61.83 0 0 0-21.66-11.6c-8.75-2.64-18.53-2.78-27.6-2.62-18.8.33-37.14 5.12-54.37 12.47-17.77 7.59-34.22 17.96-50.18 28.76a424.56 424.56 0 0 0-42.34 32.32c-30.14 26.47-54.81 58.14-75.4 92.45-.03.05.03.09.06.05ZM304.22 427.31c-8.1 40.09-.1 84.53 30.8 113.23 5.54 5.14 13.77-3.18 8.25-8.31-27.85-25.86-35.02-65.86-27.72-102 1.5-7.37-9.83-10.32-11.33-2.92ZM171.34 389.28c-18.33 26.96-28.17 57.75-16.78 89.54 2.55 7.12 13.32 2.54 10.78-4.54-9.9-27.64-.56-54.58 15.28-77.86 4.23-6.22-5.03-13.37-9.28-7.14Z" fill="#1b171b"/><g><path d="M370.15 419.4c19.47 49.18 69.54 75.92 119.87 82.78 43.85 5.96 121.88-6.7 137.14-46.01 15.12-38.95-15.22-94.22-54.68-127.5-50.53-42.63-116.27-43.3-166.93-25.12Z" transform="translate(-154.32 -30.76)" fill="url(#f)"/><path d="M517.44 299.02a168.42 168.42 0 0 0-51.25-6.72c14.3 21.36 28.9 55.06 20.17 96.85-11.37 54.4-55.45 73.92-77.83 80.43 14.77 11.44 31.98 19.94 50.12 25.62 21.62-10.24 55.12-34.43 72.66-89.62 14.19-44.66-1.36-84.37-13.87-106.56Zm90.44 69.35a191.95 191.95 0 0 0-35.4-39.7c-3.9-3.3-7.9-6.3-11.97-9.11 7.39 17.29 13.02 41.21 10.27 72.27-7.49 84.3-66.66 108.77-66.66 108.77l2.12 2.88a222.77 222.77 0 0 0 60.22-6.58c17.03-14.9 34.05-39.2 42.4-78.74a174.2 174.2 0 0 0-.98-49.79Z" transform="translate(-154.32 -30.76)" fill="url(#g)"/><path d="M299.7 276.21s139.66-9.08 165.5 119.44c0 0-51.74-88.28-165.5-119.44Z" fill="#fff"/><path d="M625.04 459.24a206.02 206.02 0 0 1-41.62 19.02 114.26 114.26 0 0 1-16.96 18.64c26.92-6.89 50.73-19.31 59.61-38.24-.34.2-.68.37-1.03.58Zm-216.5 10.34.86.65-.84-.66-.03.01Zm16.6-36.53c6.52-6.31 12.8-14.84 18.25-26.3 26.33-55.38-7.55-90.5-7.55-90.5l-42.67 27.8-23.03 75.36c8.17 20.61 21.74 37.25 38.42 50.16a125.26 125.26 0 0 0 36.63-17.4 164.62 164.62 0 0 1-20.05-19.12Zm61.8 43.48a123.14 123.14 0 0 1-28.26 18.66 191.47 191.47 0 0 0 31.34 6.99 159.57 159.57 0 0 0 16.22 1.3l-2.12-2.88s10.12-4.2 22.51-15.07a137.32 137.32 0 0 1-39.7-9Zm-28.29 18.67.03-.01-.97-.3.94.31Z" transform="translate(-154.32 -30.76)" fill="url(#h)"/><path d="M372.31 454.77c-12.4 10.87-22.51 15.07-22.51 15.07l2.11 2.88h.02c2.3.07 4.67.1 7.07.1h.01a223.61 223.61 0 0 0 53.09-6.66.36.36 0 0 1 .04-.02 114.26 114.26 0 0 0 16.96-18.64c-20.67 6.64-39.66 8.52-56.79 7.27ZM332.61 445.77a157.79 157.79 0 0 1-41.74-24.37 125.47 125.47 0 0 1-36.66 17.42 154.05 154.05 0 0 0 36.7 20.82l.05.02q6.58 2.65 13.38 4.78a123 123 0 0 0 28.27-18.67Z" fill="#1b171b"/><path d="M215.63 388.73c7.27 18.51 17.82 34.14 32.95 47.22 14.92 12.9 32.74 22.19 51.33 28.55 33.96 11.62 70.3 12.22 105.24 4.76 29.01-6.19 63.72-19.55 71-51.73 4.04-17.87-.66-37.13-7.56-53.66-8.18-19.61-20.74-37.75-35.17-53.25a157.83 157.83 0 0 0-87.31-48.02c-31.82-5.85-65.14-2.19-95.3 9.16-1.35.5-.5 2.5.84 2.05 42.05-14.05 88.69-15.17 129.74 2.78 21.82 9.54 40.63 24.63 56.45 42.26 14.6 16.28 26.54 34.98 33.44 55.82 5.78 17.44 7.56 38.06-1.43 54.77-7.49 13.92-22.84 22.56-36.92 28.4-16.8 6.95-34.93 10.6-52.96 12.43a190.07 190.07 0 0 1-51.2-1.38c-46.49-7.91-94.06-34.99-112.74-80.32a.22.22 0 0 0-.4.16Z" fill="#1b171b"/></g><g><circle cx="357.22" cy="353.3" r="87.74" transform="rotate(-82.01 262.46 426.8)" fill="url(#i)"/><path d="M424.29 371.57a9.19 9.19 0 0 0 2.55-18.2l-.26-.01q0-3.33-.3-6.6l.3-.05a9.19 9.19 0 0 0-4.05-17.92l-.37.1a70.1 70.1 0 0 0-4.69-9.92c.13-.1.28-.15.4-.24a9.19 9.19 0 1 0-11.05-14.67c-.15.1-.26.25-.4.36q-2.3-2.32-4.83-4.43l.32-.45a9.18 9.18 0 1 0-15.53-9.82l-.29.51a68.85 68.85 0 0 0-10.23-3.72l.11-.62a9.19 9.19 0 0 0-18.19-2.55l-.06.63q-3.28-.03-6.5.25l-.1-.6a9.19 9.19 0 1 0-17.93 4.03l.15.55a69.03 69.03 0 0 0-9.93 4.57c-.1-.15-.17-.31-.28-.46a9.18 9.18 0 1 0-14.67 11.06c.1.13.22.22.32.34q-2.36 2.3-4.5 4.82l-.34-.25a9.18 9.18 0 1 0-9.82 15.52l.27.16a68.66 68.66 0 0 0-3.83 10.3c-.09 0-.17-.03-.26-.04a9.18 9.18 0 0 0-2.56 18.18l.16.02c-.03 2.23.05 4.44.23 6.64l-.11.01a9.19 9.19 0 1 0 4.03 17.93 69.4 69.4 0 0 0 4.62 10.1 9.18 9.18 0 0 0 11 14.7q2.35 2.4 4.93 4.58a9.18 9.18 0 0 0 15.48 9.86 68.64 68.64 0 0 0 10.52 3.85 9.17 9.17 0 0 0 18.16 2.55c2.28.02 4.53-.07 6.77-.27a9.18 9.18 0 0 0 17.9-4.06 68.76 68.76 0 0 0 10.1-4.75 9.18 9.18 0 0 0 14.62-11.1q2.37-2.35 4.52-4.94a9.18 9.18 0 0 0 9.8-15.53.78.78 0 0 0-.07-.04 69.07 69.07 0 0 0 3.73-10.4l.16.02Z" transform="translate(-154.32 -30.76)" fill="url(#j)"/><path d="M346.9 426.97a5.9 5.9 0 0 1-5-6.5 3.32 3.32 0 0 0-2.4-3.58 66.78 66.78 0 0 1-10.02-3.67 3.26 3.26 0 0 0-.93-.28 3.32 3.32 0 0 0-3.22 1.46 5.9 5.9 0 0 1-5.7 2.56 5.76 5.76 0 0 1-2.32-.85 5.9 5.9 0 0 1-1.87-8.01 3.32 3.32 0 0 0-.69-4.27 65.5 65.5 0 0 1-4.7-4.37 3.32 3.32 0 0 0-4.34-.36 5.86 5.86 0 0 1-7.01-9.38 3.32 3.32 0 0 0 .88-4.26 65.3 65.3 0 0 1-4.4-9.6 3.32 3.32 0 0 0-2.65-2.16 3.4 3.4 0 0 0-1.2.05 5.87 5.87 0 1 1-2.58-11.45 3.42 3.42 0 0 0 2.69-3.52c-.17-2.08-.24-4.2-.21-6.32a3.48 3.48 0 0 0-3.02-3.35 5.87 5.87 0 1 1 1.63-11.62l.13.03a1.16 1.16 0 0 0 .13.02 3.31 3.31 0 0 0 3.65-2.37 65.89 65.89 0 0 1 3.65-9.83 3.45 3.45 0 0 0-1.57-4.4 5.87 5.87 0 0 1-1.76-8.05 5.87 5.87 0 0 1 8.1-1.82 3.52 3.52 0 0 0 1.64.67 3.33 3.33 0 0 0 3.02-1.08 67.46 67.46 0 0 1 4.27-4.59 3.31 3.31 0 0 0 .2-4.53l-.28-.3a5.87 5.87 0 0 1 9.38-7.04 4.7 4.7 0 0 0 .26.42 3.3 3.3 0 0 0 4.37 1.04 65.96 65.96 0 0 1 9.46-4.36 3.45 3.45 0 0 0 2-4.2l-.05-.16a5.88 5.88 0 0 1 4.43-7.04 5.86 5.86 0 0 1 7.01 4.44 1.74 1.74 0 0 1 .05.27 3.44 3.44 0 0 0 2.86 2.89 3.2 3.2 0 0 0 .72.02c2.07-.18 4.15-.26 6.2-.24a3.42 3.42 0 0 0 3.34-3.2l.03-.28a5.87 5.87 0 0 1 11.62 1.63c-.01.1-.04.18-.06.28a3.42 3.42 0 0 0 2.34 4 65.96 65.96 0 0 1 9.74 3.54 3.22 3.22 0 0 0 .88.25 3.45 3.45 0 0 0 3.48-1.8c.04-.07.07-.15.12-.22a5.89 5.89 0 0 1 5.78-2.67 5.76 5.76 0 0 1 2.32.85 5.88 5.88 0 0 1 1.82 8.1l-.13.17a3.42 3.42 0 0 0 .48 4.6 69.55 69.55 0 0 1 4.62 4.22 3.27 3.27 0 0 0 1.89.95 3.34 3.34 0 0 0 2.6-.75l.34-.32a5.87 5.87 0 0 1 7.08 9.35l-.38.24a3.33 3.33 0 0 0-1.01 4.39 66.8 66.8 0 0 1 4.46 9.45 3.33 3.33 0 0 0 2.7 2.08 3.47 3.47 0 0 0 1.5-.12 5.87 5.87 0 0 1 2.58 11.45 3.39 3.39 0 0 0-2.86 3.6c.19 2.09.29 4.2.28 6.27a3.46 3.46 0 0 0 3.01 3.3 1.66 1.66 0 0 0 .22.02 5.87 5.87 0 0 1-1.74 11.61 3.47 3.47 0 0 0-3.82 2.4 66.1 66.1 0 0 1-3.56 9.9 3.4 3.4 0 0 0 1.32 4.2 5.87 5.87 0 0 1-6.26 9.93 3.3 3.3 0 0 0-4.32.7 65.65 65.65 0 0 1-4.3 4.7 3.3 3.3 0 0 0-.32 4.32 5.88 5.88 0 0 1-1.17 8.2 5.86 5.86 0 0 1-8.16-1.1 3.3 3.3 0 0 0-2.17-1.25 3.33 3.33 0 0 0-2.1.4 66.24 66.24 0 0 1-9.63 4.53 3.3 3.3 0 0 0-2.09 3.77 5.86 5.86 0 0 1-11.43 2.59 3.32 3.32 0 0 0-2.76-2.49 3.26 3.26 0 0 0-.76-.01c-2.13.19-4.3.27-6.44.26a3.32 3.32 0 0 0-3.3 2.78 5.9 5.9 0 0 1-6.6 4.87Z" transform="translate(-154.32 -30.76)" fill="url(#k)"/><path d="M288.97 334.62a87.9 87.9 0 0 1-76.69 74.34c-39.53 4.53-77.4-19.83-91.1-56.82-13.87-37.4 1.03-80.14 33.84-102.13 33.12-22.2 78.22-17.78 107.27 9.06 20.68 19.12 30.39 47.8 26.68 75.55a.84.84 0 0 0 1.65.23 89.66 89.66 0 0 0-44.23-89.5c-32.03-18.37-73.07-13.77-101.04 9.86-27.99 23.63-37.95 63.28-25.72 97.57 12.33 34.58 46.02 57.78 82.48 58.34 44.1.68 82.15-33.01 88.51-76.27a.84.84 0 0 0-1.65-.23Z" fill="#010101"/></g><path d="M405.14 432.78c-3.55 40.75 9.38 84 43.3 109.07 6.08 4.48 13.33-4.7 7.26-9.2-30.56-22.56-42.18-61.5-38.97-98.24.65-7.49-10.93-9.16-11.6-1.63ZM196.3 395.14c-11.19 30.62-13.2 62.88 5.63 90.92 4.21 6.28 13.53-.8 9.34-7.04-16.36-24.37-13.9-52.78-4.23-79.23 2.58-7.07-8.15-11.74-10.74-4.65Z" fill="#1b171b"/><path d="M175.65 210.91c-30.89 2.4-60.82 24.06-76.55 51.57-7.54-30.78-30.36-59.84-59.4-70.65-7.05-2.62-11.71 8.1-4.64 10.74 30.99 11.54 55.81 48.22 55.12 81.36-1.03 3.92 1.85 6.16 5.03 6.29 3.09.75 6.47-.6 6.56-4.66 8.45-32.05 42.42-60.48 75.4-63.04 7.51-.58 5.99-12.19-1.52-11.6Z" fill="#010101"/><g><circle cx="267.87" cy="392.27" r="58.5" transform="rotate(-82.01 173.01 465.63)" fill="url(#l)"/><path d="M169.82 369.4a57.57 57.57 0 0 1-64.17 48.38c-31.2-3.77-52.04-33.88-48.38-64.17 3.77-31.2 33.88-52.04 64.17-48.38 31.2 3.77 52.04 33.88 48.38 64.18-.26 2.13 3.05 2.6 3.3.46a60.98 60.98 0 0 0-51.21-67.95c-32.83-5.25-62.85 19.34-67.95 51.22-5.25 32.84 19.34 62.84 51.22 67.95 32.84 5.25 62.84-19.34 67.95-51.22.34-2.13-2.97-2.6-3.31-.46Z" fill="#010101"/><path d="M154.87 386.76c-2.75-4.68-6.87-8.3-12.6-7.53a1.43 1.43 0 0 0 .37 2.83 7.63 7.63 0 0 1 4.71.8c-6.97 12.24-21.11 17.92-34.75 14.65-1.79-.43-2.17 2.41-.4 2.83a34.09 34.09 0 0 0 37.44-15.77 18.33 18.33 0 0 1 2.94 3.9c.93 1.6 3.21-.14 2.29-1.71Z" fill="#1b171b"/><g><circle cx="209.07" cy="335.21" r="50.64" transform="rotate(-82.01 114.22 408.58)" fill="#c7e7f7"/><circle cx="205.41" cy="330.35" r="43.46" transform="rotate(-82.01 110.56 403.71)" fill="#fff"/><circle cx="213.79" cy="331.66" r="21.93" transform="rotate(-82.01 118.94 405.02)" fill="#1b171b"/><circle cx="213.79" cy="331.66" r="19.32" transform="rotate(-82.01 118.96 405.14)" fill="url(#c)"/><circle cx="215.97" cy="316.15" r="8.61" transform="rotate(-82.01 121.2 389.64)" fill="#fff"/><path d="M104.13 311.38a50.58 50.58 0 0 1-33.66 40.4c-18.33 6.34-39.08.56-52.25-13.39-13.1-13.88-16.6-34.45-9.9-52.12 6.63-17.5 23.32-29.54 41.74-31.47 31.86-3.34 58.1 25.44 54.07 56.58a.78.78 0 0 0 1.55.22 52.26 52.26 0 0 0-15.44-44.36c-12.17-11.9-30.1-16.5-46.6-13-15.94 3.38-29.28 14.74-35.95 29.47-6.91 15.26-5.33 33.2 3.13 47.47 11.15 18.8 33.9 27.98 55.05 23.5 20.9-4.43 36.65-22.19 39.8-43.07a.79.79 0 0 0-1.55-.23Z" fill="#010101"/><g><circle cx="286.47" cy="347.9" r="54.04" transform="rotate(-82.01 191.62 421.27)" fill="#c7e7f7"/><circle cx="282.56" cy="342.71" r="46.38" transform="rotate(-82.01 187.7 416.08)" fill="#fff"/><circle cx="291.5" cy="344.11" r="23.4" transform="rotate(-82.01 196.65 417.47)" fill="#1b171b"/><circle cx="291.5" cy="344.11" r="20.61" transform="rotate(-82.01 196.65 417.48)" fill="url(#m)"/><circle cx="293.83" cy="327.56" r="9.19" transform="rotate(-82.01 199.03 401.04)" fill="#fff"/><path d="M184.83 324.54a53.98 53.98 0 0 1-35.91 43.1c-19.56 6.77-41.7.6-55.75-14.28-13.98-14.8-17.72-36.76-10.57-55.62 7.08-18.67 24.89-31.51 44.54-33.57 34-3.57 62 27.13 57.7 60.37a.84.84 0 0 0 1.65.23 55.77 55.77 0 0 0-16.47-47.34c-12.99-12.7-32.12-17.6-49.73-13.87-17 3.6-31.25 15.73-38.37 31.44-7.37 16.28-5.69 35.43 3.35 50.66 11.9 20.05 36.17 29.86 58.74 25.07 22.3-4.73 39.11-23.67 42.48-45.96a.84.84 0 0 0-1.66-.23Z" fill="#010101"/></g></g></g></svg>