<svg xmlns="http://www.w3.org/2000/svg" width="1116.67" height="453.73" viewBox="0 0 837.5 340.3"><defs><linearGradient id="a" x1="352.61" y1="199.58" x2="343.58" y2="142.26" gradientUnits="userSpaceOnUse"><stop offset=".05" stop-color="#fcc6a8"/><stop offset="1" stop-color="#f79d8e"/></linearGradient><linearGradient id="b" x1="597.97" y1="411.68" x2="572.72" y2="498.59" gradientUnits="userSpaceOnUse"><stop offset=".05" stop-color="#fcc6a8"/><stop offset=".1" stop-color="#fcc2a6"/><stop offset=".4" stop-color="#f9ae99"/><stop offset=".71" stop-color="#f8a191"/><stop offset="1" stop-color="#f79d8e"/></linearGradient></defs><path fill="none" d="M0 0h837.5v340.3H0z"/><path d="M451.28 104.22c-25.17-42.57-85.53-81.16-128.08-65.1-32.05 12.1-40.7 87.72-42.91 118.76a2.04 2.04 0 0 1-2.2 1.87c-3.98-.22-8.1 1.76-10.6 9.1-6.1 17.86 5.68 21.47-5.18 27.36s-11.93 13.79-7.45 13.8c8.6.03 35.54-15.28 36.8-34.07a19.88 19.88 0 0 1 3.6-9.92c13.8-19.94 48.1-67.84 57.35-65.11 11.68 3.43 38.75 78.6 61.55 71s54.75-36.39 37.12-67.7Z" fill="#fcc6a8"/><path d="M306.73 97.36c-7.33 2.44-13.94 7.03-20.26 12.09a423.28 423.28 0 0 0-6.18 48.44 2.04 2.04 0 0 1-2.2 1.87c-3.98-.22-8.1 1.75-10.6 9.08-6.1 17.88 5.68 21.49-5.18 27.37s-11.93 13.8-7.45 13.8c8.6.03 35.54-15.28 36.8-34.07a19.88 19.88 0 0 1 3.6-9.92c13.8-19.93 48.1-67.84 57.35-65.11 3.95 1.16 9.67 10.54 16.38 22.14a381.17 381.17 0 0 0-4.68-21.5c-5.23-20.94-39.78-10.47-57.58-4.2Z" fill="#f3b799"/><path d="M396.97 183.38a43.6 43.6 0 0 0 5.3-4.49c-24.65-14.6-52.16-21.42-74.68-12.92-12.32 4.65-21.18 18.68-27.54 35.96 31.12 10.27 70.07 1.59 96.92-18.55Z" transform="translate(-4.4 -126.85)" fill="url(#a)"/><path d="m596.44 138.55-17.65 46.86a4.31 4.31 0 0 1-5.72 2.45l-25.64-10.9s43.41-46.2 49.01-38.41Z" fill="#f3b799"/><path d="M754.31 292.05c-4.38-8.27-34.98-27.1-51.67-13.77-19.83-6.01-83.66-10.08-105.57-25.5-25.13-17.68-59.16-64.7-83-67.7H514a9.21 9.21 0 0 1-7.16-5.06l-.65-1.34a7.3 7.3 0 0 1 .83-7.75l13.98-17.65-15.17-28.65-33.76 6.7-11.56-11.44c-2.6-2.18-10.6-22.91-15.78-19.9-23.25-7.35-54.32 23.99-68.28 37.07-54.86 24.87-119.67 65.28-119.67 65.28s-14.47 34.36 7.23 54.25 97.65 12.66 137.09 25.32c19.77 6.35 48.9-4.59 73.49-19.57 40.5 34.36 77.08 43.93 112.33 49.66 30.2 4.92 87.62-9.79 111.54-18.23 1.35 4.3 8.16 3.94 16.8 2.52 18.64-3.04 13.05-11.11 23.36-4.31s17.78 4.02 15.68.07Z" fill="#fcc6a8"/><path d="M522.12 418.02c24.04 12.02 46.9 17.2 69.2 20.83 19.21 3.12 49.41-1.69 75.01-7.77-43.18-24.79-97.8-29.43-144.2-13.06Z" transform="translate(-4.4 -126.85)" fill="url(#b)"/><path d="M491.52 135.78s-14.88-18.05 1.76-39.3 38.34-32.92 59.85-16.92 52.22 42.52 41.87 62.75-33.43 54.56-45.72 53.72c-15.42-1.06-48.9-55.48-57.76-60.25Z" fill="#fcc6a8"/><path d="M522.39 157.03a722.63 722.63 0 0 1 71.93-13.42l.68-1.3c10.35-20.22-20.36-46.75-41.87-62.75s-43.2-4.32-59.85 16.93c-10.08 12.87-8.59 24.56-5.85 31.79l-15.35 3.04-3.73-3.69c5.26 23.72 31.63 34.5 54.04 29.4Z" fill="#f2b191"/><path d="m476.24 130.5 6.16-6.25s-6.97-13.95 6.97-30.68 45.96-35.25 70.43-14.65c0 0 40.47 32.92 40.47 45.96 0 0 4.93 7.36 10.22 5.61s.7 18-19.38 7.77-24.66-1.05-28.89-15.5c0 0-9.16 24.52-28.53 14.9 0 0-21.02 11.65-29.3 12.27-8.75.67-11.97 3.8-28.15-19.44Z" fill="#4c3b15"/><path d="M600.27 124.88c1.38-12.84-40.38-45.96-40.38-45.96-21.65-19-56.18-6.12-70.13 10.61-9.75 11.7-13.52 18.87-10.73 38.13 28.29 12.24 87.24 10.17 121.24-2.78Z" fill="#fbee87"/><path d="M98.67 236.56s148.8-117.47 229.4-15.66c50.4 63.67 65.7 67.61 121.85 72.24 2.7.22 35.48 13.54 35.48 13.54s-70.6 11.72-95.63 12.25-298.85-32.65-291.1-82.37Z" fill="#0d86c7"/><path d="M304.8 234.83c47.85 60.44 64.05 67.06 113.61 71.53 18.32-2.33 38.02-5.35 49.75-7.2a2.97 2.97 0 0 0 .64-5.7c-9.88-3.95-23.83-9.4-25.55-9.55-56.15-4.63-71.44-8.58-121.84-72.24-80.6-101.81-229.4 15.66-229.4 15.66a85.49 85.49 0 0 0-7.32 10.28 2.25 2.25 0 0 0 3.16 3c45.97-28.62 156.1-82.63 216.95-5.78Z" fill="#1f9dd2"/><path d="M547.24 205.93a121.1 121.1 0 0 0-6.95-5.8c-2.36-1.87-4.8-3.63-7.29-5.3a61.6 61.6 0 0 0-15.88-7.92 43.98 43.98 0 0 0-8.7-1.54 67.3 67.3 0 0 0-8.92-.12 85.3 85.3 0 0 0-17.75 2.95 60.03 60.03 0 0 1 17.62-4.58 49.5 49.5 0 0 1 18.34 1.28 44.63 44.63 0 0 1 4.36 1.62 45.56 45.56 0 0 1 4.16 2 65.75 65.75 0 0 1 7.7 4.99 80.18 80.18 0 0 1 13.3 12.42ZM456.38 142.58a156.18 156.18 0 0 1-16.53 16.97 161.33 161.33 0 0 1-18.83 14.5c-6.7 4.27-13.77 8.15-21.47 10.5a44.13 44.13 0 0 1-11.84 2.08 24.52 24.52 0 0 1-11.65-2.4 27.47 27.47 0 0 0 11.54.87 49.18 49.18 0 0 0 11.17-2.87 81.69 81.69 0 0 0 10.53-4.85c3.41-1.84 6.77-3.8 10.01-5.96 6.55-4.2 12.8-8.9 18.97-13.74a514.6 514.6 0 0 0 18.1-15.1ZM445.6 170.15a19.04 19.04 0 0 1-3.8 4.32c-1.4 1.31-2.84 2.56-4.27 3.83l-8.65 7.46c-2.84 2.52-5.7 5.01-8.44 7.62-2.75 2.6-5.47 5.21-8 8-5.13 5.48-9.87 11.39-13.15 18.05a35.25 35.25 0 0 0-3.39 10.53 27.12 27.12 0 0 0 .73 11.17 24.06 24.06 0 0 1-2.26-11.3 33.22 33.22 0 0 1 2.68-11.4 54.39 54.39 0 0 1 5.72-10.2 95.32 95.32 0 0 1 7.37-8.99 144.28 144.28 0 0 1 17.2-15.36c3.02-2.34 6.13-4.57 9.24-6.78l4.68-3.3c.78-.54 1.54-1.11 2.29-1.7.36-.3.76-.57 1.1-.9l.52-.48ZM405.8 57.08a89.26 89.26 0 0 1 10.02 6.2c1.6 1.14 3.15 2.35 4.74 3.52 1.53 1.23 3.04 2.5 4.56 3.75 1.47 1.3 2.95 2.62 4.4 3.95l4.21 4.15c.72.68 1.38 1.42 2.04 2.15l1.98 2.2c.65.74 1.34 1.46 1.97 2.22l1.87 2.29c2.53 3.03 4.78 6.29 7.06 9.51 1.08 1.66 2.07 3.37 3.1 5.05l1.54 2.53 1.35 2.64c.88 1.77 1.81 3.5 2.65 5.29l2.23 5.47c.35.92.74 1.83 1.06 2.75l.86 2.83q.86 2.82 1.63 5.65-1.25-2.67-2.44-5.34l-1.17-2.67c-.42-.88-.9-1.73-1.35-2.6l-2.66-5.17-2.95-5.01-1.47-2.5-1.61-2.42c-1.08-1.6-2.11-3.24-3.23-4.82l-3.43-4.67c-1.1-1.6-2.4-3.03-3.6-4.54l-1.8-2.27c-.62-.75-1.28-1.46-1.9-2.2-1.3-1.43-2.54-2.92-3.87-4.32l-3.99-4.23a300.88 300.88 0 0 1-4.12-4.1 209.66 209.66 0 0 0-17.67-15.3Z" fill="#eaac8c"/><rect x="489" y="98.89" width="41.71" height="13.45" rx="6.1" ry="6.1" fill="#eada72"/><path d="M92 227.33c5.29-4.3 10.83-8.28 16.48-12.11s11.38-7.54 17.28-10.99a313.8 313.8 0 0 1 36.56-18.55c6.3-2.69 12.72-5.1 19.21-7.3a205.21 205.21 0 0 1 19.8-5.65c3.33-.83 6.72-1.46 10.08-2.14 3.4-.56 6.78-1.19 10.21-1.55 3.41-.48 6.86-.68 10.29-.97 3.44-.2 6.9-.3 10.35-.27a112.76 112.76 0 0 1 20.66 2.04 91.66 91.66 0 0 1 19.82 6.33 88.37 88.37 0 0 1 17.77 10.79 121.07 121.07 0 0 1 15.09 14.13 231.6 231.6 0 0 1 13.03 15.86l12.28 16.32c8.2 10.79 17.1 21.2 28.08 29.31a100 100 0 0 1-15.79-12.97c-4.85-4.82-9.34-9.98-13.68-15.23s-8.54-10.64-12.81-15.92-8.65-10.45-13.3-15.34a117.89 117.89 0 0 0-14.96-13.45 88.81 88.81 0 0 0-17.21-10.11c-12.22-5.38-25.63-7.6-39.01-7.68-3.35-.03-6.7.1-10.06.3-3.34.3-6.7.52-10.03 1-3.34.38-6.66.95-9.98 1.48-3.3.65-6.63 1.25-9.9 2.05-3.3.71-6.55 1.62-9.81 2.48-3.24.95-6.5 1.85-9.7 2.9a264.27 264.27 0 0 0-19.08 6.88 358.08 358.08 0 0 0-36.8 17.25A367.9 367.9 0 0 0 92 227.32Z" fill="#5dcaec"/><path d="M25.1 89.12c1.52-1.96 3.18-3.8 4.85-5.63q2.54-2.71 5.22-5.3a142.78 142.78 0 0 1 11.25-9.81 145.6 145.6 0 0 1 12.29-8.64 122.8 122.8 0 0 1 13.24-7.3 107.4 107.4 0 0 1 14.2-5.63 92.67 92.67 0 0 1 15.04-3.5 81.84 81.84 0 0 1 15.57-.86l1.96.07c.66.03 1.3.13 1.96.19l3.9.42 3.89.68c.64.12 1.3.2 1.93.36l1.9.48c1.27.33 2.57.64 3.8 1l3.63 1.15c1.21.37 2.4.81 3.6 1.23 1.19.44 2.4.82 3.58 1.32a129.62 129.62 0 0 1 38.83 23.59c7.62 6.51 14.41 13.6 21.74 19.78a68.64 68.64 0 0 0 11.79 8.06c1.07.52 2.13 1.1 3.24 1.54l1.67.7 1.7.6c1.14.46 2.32.74 3.5 1.11 1.17.33 2.37.57 3.58.87a47.01 47.01 0 0 1-7.45-.44l-1.86-.3-1.84-.41c-1.24-.25-2.44-.65-3.66-1a61.24 61.24 0 0 1-13.69-6.58c-8.53-5.43-16.04-11.87-23.84-17.5a153.44 153.44 0 0 0-24.33-14.83A137.1 137.1 0 0 0 143.25 59c-1.1-.44-2.23-.8-3.35-1.19s-2.23-.79-3.37-1.12l-3.4-1.05c-1.13-.32-2.22-.56-3.33-.85l-1.66-.43c-.55-.14-1.12-.22-1.68-.33l-3.37-.63-3.4-.39c-.58-.05-1.14-.15-1.72-.18l-1.71-.08a77.89 77.89 0 0 0-13.8.36 109.76 109.76 0 0 0-27.26 6.84c-1.1.44-2.23.85-3.33 1.3l-3.3 1.4c-2.17.99-4.36 1.97-6.5 3.05q-6.47 3.18-12.74 6.88A223.21 223.21 0 0 0 25.1 89.12Z" fill="#1f9dd2"/><path d="M60.39 79.42a151 151 0 0 1 20.32-15.86 111.7 111.7 0 0 1 23.17-11.8 60.1 60.1 0 0 1 12.87-3.2c1.11-.1 2.22-.28 3.36-.3l1.69-.08 1.68.04c1.11.05 2.23.02 3.34.13l3.34.35a68.1 68.1 0 0 1 12.92 3.26 101.56 101.56 0 0 1 12.02 5.43 193.95 193.95 0 0 1 21.7 14.3c6.87 5.17 13.62 10.4 20.48 15.38 3.44 2.48 6.94 4.86 10.54 7.06a89.46 89.46 0 0 0 11.13 5.96 63.4 63.4 0 0 0 11.94 4.1 57.95 57.95 0 0 0 12.65 1.41 55.92 55.92 0 0 1-6.44.43h-1.62c-.54-.01-1.07-.08-1.61-.11-1.08-.1-2.17-.13-3.24-.3l-3.22-.51c-1.06-.22-2.12-.5-3.18-.74-1.07-.22-2.1-.57-3.14-.88s-2.09-.63-3.1-1.02a112.95 112.95 0 0 1-23.02-12.02c-7.26-4.67-14.1-9.86-21.08-14.75-3.47-2.46-6.94-4.9-10.47-7.23-3.54-2.3-7.13-4.48-10.8-6.48a96.5 96.5 0 0 0-11.3-5.23 69.08 69.08 0 0 0-11.9-3.17l-3.03-.4c-1.02-.13-2.04-.13-3.06-.2l-1.53-.09-1.51.03c-1.01-.01-2.03.12-3.04.18a64.42 64.42 0 0 0-12.1 2.52 124.31 124.31 0 0 0-23.13 10.13A213.96 213.96 0 0 0 60.4 79.42Z" fill="#5dcaec"/></svg>