<svg xmlns="http://www.w3.org/2000/svg" xmlns:xlink="http://www.w3.org/1999/xlink" width="1123" height="700" viewBox="0 0 842 525"><defs><linearGradient id="a" data-name="ЃезымЯнный градиент 10" y1="183" x2="226" y2="183" gradientUnits="userSpaceOnUse"><stop offset="0" stop-color="#fff"/><stop offset="1"/></linearGradient><linearGradient id="h" x1="825" y1="379" x2="888" y2="379" gradientTransform="rotate(121 785 340)" xlink:href="#a"/><linearGradient id="i" x1="716" y1="403" x2="804" y2="403" gradientTransform="rotate(-162 772 407)" xlink:href="#a"/><linearGradient id="j" x1="827" y1="450" x2="879" y2="450" gradientTransform="rotate(-162 772 407)" xlink:href="#a"/><linearGradient id="c" x1="277" y1="287" x2="415" y2="287" xlink:href="#a"/><linearGradient id="e" x1="653" y1="426" x2="745" y2="426" gradientTransform="rotate(-23 761 457)" xlink:href="#a"/><linearGradient id="f" x1="761" y1="463" x2="818" y2="463" gradientTransform="rotate(-23 761 457)" xlink:href="#a"/><linearGradient id="g" x1="709" y1="346" x2="809" y2="346" gradientTransform="rotate(121 785 340)" xlink:href="#a"/><linearGradient id="b" data-name="ЃезымЯнный градиент 67" y1="206" x2="309" y2="206" gradientUnits="userSpaceOnUse"><stop offset="0" stop-color="#a4a536"/><stop offset="1" stop-color="#7b8736"/></linearGradient><linearGradient id="n" x1="277" y1="299" x2="479" y2="299" xlink:href="#b"/><linearGradient id="d" data-name="ЃезымЯнный градиент 88" y1="183" x2="226" y2="183" gradientUnits="userSpaceOnUse"><stop offset="0" stop-color="#fbf49c"/><stop offset="1" stop-color="#faf398"/></linearGradient><linearGradient id="o" x1="653" y1="434" x2="777" y2="434" gradientTransform="rotate(-23 761 457)" xlink:href="#b"/><linearGradient id="p" x1="761" y1="468" x2="842" y2="468" gradientTransform="rotate(-23 761 457)" xlink:href="#b"/><linearGradient id="q" x1="709" y1="353" x2="843" y2="353" gradientTransform="rotate(121 785 340)" xlink:href="#b"/><linearGradient id="r" x1="825" y1="383" x2="914" y2="383" gradientTransform="rotate(121 785 340)" xlink:href="#b"/><linearGradient id="s" x1="716" y1="413" x2="837" y2="413" gradientTransform="rotate(-162 772 407)" xlink:href="#b"/><linearGradient id="t" x1="827" y1="455" x2="906" y2="455" gradientTransform="rotate(-162 772 407)" xlink:href="#b"/><linearGradient id="k" data-name="ЃезымЯнный градиент 3" x1="55" y1="464" x2="776" y2="464" gradientUnits="userSpaceOnUse"><stop offset="0" stop-color="#a43422"/><stop offset="1" stop-color="#701811"/></linearGradient><linearGradient id="u" data-name="ЃезымЯнный градиент 61" x1="71" y1="283" x2="750" y2="283" gradientUnits="userSpaceOnUse"><stop offset="0" stop-color="#f47c39"/><stop offset="1" stop-color="#fec773"/></linearGradient><linearGradient id="v" x1="122" y1="234" x2="337" y2="234" xlink:href="#k"/><linearGradient id="w" x1="295" y1="157" x2="682" y2="157" xlink:href="#k"/><linearGradient id="l" data-name="ЃезымЯнный градиент 2" x1="676" y1="152" x2="798" y2="152" gradientUnits="userSpaceOnUse"><stop offset="0" stop-color="#701811"/><stop offset="1" stop-color="#a43422"/></linearGradient><linearGradient id="x" x1="43" y1="237" x2="125" y2="237" xlink:href="#l"/><linearGradient id="y" x1="648" y1="198" x2="703" y2="198" xlink:href="#l"/><linearGradient id="m" data-name="ЃезымЯнный градиент 40" x1="741" y1="360" x2="754" y2="360" gradientUnits="userSpaceOnUse"><stop offset="0" stop-color="#f69056"/><stop offset="1" stop-color="#f9a773"/></linearGradient><linearGradient id="z" x1="540" y1="378" x2="565" y2="378" xlink:href="#m"/><linearGradient id="A" x1="64" y1="374" x2="85" y2="374" xlink:href="#m"/><linearGradient id="B" x1="106" y1="395" x2="163" y2="395" xlink:href="#k"/><linearGradient id="C" x1="195" y1="386" x2="206" y2="386" xlink:href="#m"/></defs><g style="isolation:isolate"><path d="m299 220-45 1 40 15s-10 42-36 61-33 19-33 19-19-22-29-38a366 366 0 0 1-17-28l-3-6a129 129 0 0 0 5 19 251 251 0 0 0 12 36c12 28 19 33 19 33l-15 7s-15-17-23-53l-5-21-1-6-1-11-33 17-28 13c-32 15-49 15-49 15s-31-22-41-33L0 242l29-24 48-40-63 11-14 2 11-16a257 257 0 0 1 30-36c24-24 37-29 37-29s22 2 48 15c24 13 33 22 34 23-1-1-11-19-24-30S99 96 99 96l17-10s16 6 32 22c15 16 22 37 22 37s-3-23-10-42l-8-19-4-8s36-6 67 6l3 2c28 11 30 13 30 13l-10 24c-4 9-8 18-12 23l16-17 30-34s27 33 35 59-8 68-8 68z" transform="translate(0 -19)" fill="url(#b)"/><path d="m438 308-30-2a175 175 0 0 0 41 14c23 4 30 1 30 1l-3 14s-18 4-44-7l-26-13s-4 27-11 57c-7 31-15 42-15 42s-28 12-39 15c-12 3-19 3-19 3l-1-24-1-61-29 61a234 234 0 0 1-12-53c-3-29-1-41-1-41a129 129 0 0 1 33-27c20-12 30-13 30-13s-16-2-29 3c-14 4-32 16-32 16l2-17a78 78 0 0 1 29-12c16-4 32 1 33 1-1-1-16-9-31-12-15-4-22-4-22-4s14-29 36-46l25-17s14 25 19 38l-10-57s26-3 45 1a61 61 0 0 1 8 2c20 6 38 37 38 37l-21 33 28-22s21 26 20 54c0 28-3 33-3 33s-24 3-38 3z" transform="translate(0 -19)" fill="url(#n)"/><path fill="#365326" d="m479 245-51 10 51-5v-5zm-345-84s-39 11-68 26a615 615 0 0 0-52 33l72-33c20-9 48-26 48-26zm250 47 2-61h7l-9 61zM291 99l-29 23 33-15-4-8zm57 309-2-55c0-29 6-45 6-45s-4 33-2 58l3 39zM94 245a119 119 0 0 0 32-9c16-7 31-16 31-16s-18 18-31 21-32 4-32 4zm244 65s-6 24-8 46l-2 25s-3-23-1-36 11-35 11-35zM212 67s2 4 0 31-5 36-5 36 8-20 9-37a77 77 0 0 0-4-30zM57 113a163 163 0 0 1 47 4c25 5 41 15 41 15a377 377 0 0 0-44-11l-44-8z"/><path d="m763 434-16 9 16-2s3 18-4 30l-9 13s-10-5-15-10a132 132 0 0 1-10-8l-2-1a52 52 0 0 0 4 6 96 96 0 0 0 9 12c9 9 12 9 12 9l-5 5s-7-3-15-16l-5-7-1-2-2-4-9 12-8 10c-10 11-16 14-16 14l-19-5a53 53 0 0 1-8-4l7-15 11-23-21 15-4 3 1-8a121 121 0 0 1 6-19c5-13 9-18 9-18a50 50 0 0 1 19-2c10 0 15 3 15 3s-6-6-12-8c-7-2-17-2-17-2l5-7a33 33 0 0 1 14 3c8 4 14 11 14 11a77 77 0 0 0-10-15l-6-5-2-3s12-9 25-9h13v11a91 91 0 0 1-1 11l3-10 6-18s15 8 21 17 7 27 7 27z" transform="translate(0 -19)" fill="url(#o)"/><path d="m825 444-11 4a61 61 0 0 0 16-2c9-2 11-4 11-4l1 6s-6 4-17 4a95 95 0 0 1-11 0l5 24c2 13 0 19 0 19l-12 12a44 44 0 0 1-6 4l-3-8-10-24-1 29a92 92 0 0 1-12-19l-6-15a60 60 0 0 1 7-16l9-11a34 34 0 0 0-10 7l-8 11-2-6a34 34 0 0 1 8-10 30 30 0 0 1 12-6 45 45 0 0 0-12 1 79 79 0 0 0-9 2s1-13 6-23l7-11 12 11-12-20s9-6 16-8a22 22 0 0 1 3 0c8-1 19 7 19 7l-2 17 6-14s12 7 15 18l4 13a132 132 0 0 1-13 8z" transform="translate(0 -19)" fill="url(#p)"/><path fill="#365326" d="m833 400-17 13 18-11-1-2zm-134 29s-13 10-21 21l-14 22 21-25 14-18zm95-26-8-24 2-1 6 25zm-49-25-6 13 9-11-3-2zm64 108-8-21c-4-11-4-18-4-18s3 13 7 23l7 14zm-113-18a49 49 0 0 0 11-9l8-12s-4 10-8 14-11 7-11 7zm96-18a142 142 0 0 0 4 19l3 10s-5-8-6-14l-1-15zm-79-71 4 12 4 14s0-9-2-15a31 31 0 0 0-6-11zm-49 45a62 62 0 0 1 18-7 46 46 0 0 1 16-1 135 135 0 0 0-17 3l-17 5z"/><path d="m745 378 9-18-13 12s-11-12-12-27 1-16 1-16l17-3a113 113 0 0 1 13 0h2a41 41 0 0 0-7-3 77 77 0 0 0-13-3h-14l1-7s8-2 21 3l7 3 2 1 4 1 1-16a511 511 0 0 1 7-35l18-9a50 50 0 0 1 9-2l2 17 2 27 10-27 2-6 3 8a122 122 0 0 1 5 19c2 15 1 21 1 21a62 62 0 0 1-14 15c-9 6-14 7-14 7s8 1 14-2l14-9v8a36 36 0 0 1-13 8 35 35 0 0 1-16 0 60 60 0 0 0 22 6l4 1s-6 15-16 24l-1 1-10 8-6-9a83 83 0 0 1-4-9l2 9 4 19s-15 3-25 0-19-17-19-17z" transform="translate(0 -19)" fill="url(#q)"/><path d="m690 411 6-11a74 74 0 0 0-12 13l-7 11-3-4s2-8 11-15a110 110 0 0 1 9-7l-15-17c-8-9-11-15-11-15l4-18a57 57 0 0 1 3-8l7 5 20 13-14-24a73 73 0 0 1 19 7l13 8a64 64 0 0 1 2 18l-2 15a44 44 0 0 0 5-12l1-15 5 4a41 41 0 0 1-2 14 38 38 0 0 1-7 12 53 53 0 0 0 10-9l6-8s6 12 6 24v13l-15-1 20 9s-5 10-10 17a27 27 0 0 1-2 2c-6 6-19 7-19 7l-6-16 1 16s-12 2-21-4-9-9-9-9l7-15z" transform="translate(0 -19)" fill="url(#r)"/><path fill="#365326" d="m695 418 7-22-9 21 2 1zm95-113s5-17 6-32v-27l-4 35-2 24zm-65 85 19 14-1 2-18-16zm53-12-2-16-1 16h3zm-107-46 17 12 13 11s-9-8-18-13l-12-7zm101-61a62 62 0 0 0-3 14l-2 16v-17a74 74 0 0 1 5-13zm-69 79a116 116 0 0 0-12-13l-8-6 12 7c4 3 8 12 8 12zm101 5-10-7c-8-6-10-10-10-10s5 8 10 12a24 24 0 0 0 10 5zm17-69a79 79 0 0 1-11 17c-7 8-13 12-13 12a167 167 0 0 0 12-14l12-15z"/><path d="m718 375 17 5-13-11s8-15 20-19 14-4 14-4a212 212 0 0 0 9 33l1 3a59 59 0 0 0 0-8 116 116 0 0 0 0-16c-1-13-3-16-3-16h6s4 8 3 24l-1 9-1 2v5l14-2 11-2c14-1 20 1 20 1l11 19a70 70 0 0 1 4 9l-13 6-22 9 24 4 5 1-5 5a93 93 0 0 1-15 10l-17 7a58 58 0 0 1-16-13c-8-8-10-13-10-14l5 15c4 7 11 14 11 14l-7 2a42 42 0 0 1-9-13 53 53 0 0 1-4-18 88 88 0 0 0-1 18 231 231 0 0 0 1 13s-14-3-24-12l-1-1c-9-8-9-10-9-10l6-8a74 74 0 0 1 7-7l-8 4-14 9s-7-16-6-28 10-25 10-25z" transform="translate(0 -19)" fill="url(#s)"/><path d="m677 320 11 5a72 72 0 0 0-14-11l-10-5 2-5s7 1 15 9a117 117 0 0 1 9 9l10-21c6-11 10-15 10-15h17a40 40 0 0 1 7 1l-3 10-6 24 17-20a107 107 0 0 1-1 23c-2 12-5 16-5 16a45 45 0 0 1-14 6c-9 2-13 1-13 1s6 3 11 3l13-2-2 7a27 27 0 0 1-12 1 30 30 0 0 1-12-6 54 54 0 0 0 10 10 85 85 0 0 0 7 4s-8 10-18 13l-11 3s-3-11-3-17l-3 24s-9-2-16-7a24 24 0 0 1-3-2c-6-5-9-20-9-20l11-10-13 5s-4-13-1-24 5-13 5-13a122 122 0 0 1 14 4z" transform="translate(0 -19)" fill="url(#t)"/><path fill="#365326" d="m657 313 20 3-19-5-1 2zm117 81s16 1 28-1a213 213 0 0 0 23-5l-30 2c-8 0-21 4-21 4zm-86-53-8 24-2-1 10-23zm22 56 13-5-14 1 1 4zm14-130-6 22c-3 12-7 17-7 17s5-13 7-23l3-16zm74 99a42 42 0 0 0-13 0 125 125 0 0 0-13 2s9-5 14-5 12 3 12 3zm-82-59a131 131 0 0 0 8-17l4-10-4 15c-2 5-8 12-8 12zm19 114 3-13c3-11 6-13 6-13s-5 7-7 13a34 34 0 0 0-2 13zm62 3a62 62 0 0 1-17-8 55 55 0 0 1-13-12 152 152 0 0 0 15 11l15 9z"/><path fill="#57110c" d="m55 460 3 19 167 16 126-21 225 51 200-51v-11l-208 21-223-27-122 28-168-25z"/><path fill="url(#k)" d="m100 451-45 9 169 25 121-28 231 43 200-37-445-36-231 24z"/><path d="M71 314s18 85 23 115l8 54 90 10 148-28 242 28 113-11 55-201-90-208-363 126-165 8z" transform="translate(0 -19)" fill="url(#u)"/><path fill="#db5430" d="m338 300 231-18 13 192 113-11 55-201-96-182-316 191v29z"/><path fill="#c6522f" d="m73 305 68-54 48 59 3 164 148-28-2-175-155 19-49-103-63 108 2 10z"/><path d="m49 296 21 5 37-58c12-20 29-61 29-61l-11-32s-17 44-32 71l-44 75z" fill="#57110c"/><path d="m337 294-153 16-4-6a503 503 0 0 1-28-60c-16-41-30-86-30-86s83 25 100 27h73l39 103z" transform="translate(0 -19)" fill="url(#v)"/><path d="M785 265h-36L651 72l31-72s35 119 62 181 41 84 41 84z" fill="#57110c"/><path d="M682 19v1c-4 9-44 108-74 163-30 58-52 92-52 92l-219 19-16-29-1-3-12-27a260 260 0 0 1-13-50l22-60 84-16a4601 4601 0 0 0 73-16 4445 4445 0 0 0 200-71l5-2h1l1-1z" transform="translate(0 -19)" fill="url(#w)"/><path d="M682 19s39 125 70 182 46 76 46 76l-13 7s-27-40-53-103-56-148-56-148z" transform="translate(0 -19)" fill="url(#l)"/><path d="m49 315-6-8s28-33 48-69c17-30 31-80 31-80l3 11s-17 47-35 82a455 455 0 0 1-41 64z" transform="translate(0 -19)" fill="url(#x)"/><path d="m556 256 7 8 67-134 50-106 2-24s-37 91-71 155l-55 101z" fill="#57110c"/><path d="m451 117-1 2-5 10 3-1 3-1 5-10zm3 0h2v-1zm-3 0-1 2-5 10 3-1 3-1 5-10zm3 0h2v-1zm-3 0-1 2-5 10 3-1 3-1 5-10zm3 0h2v-1zm212-79-1 1-31 14-40 18 9-19 12-28-2 1-12 27-9 20a1248 1248 0 0 1-43 17l-3 1-24 8a1110 1110 0 0 0 21-48l-3 1-3 1-4 9-16 39a305 305 0 0 1-34 9l-7 1-7 1-5 1-6 1 5-10 6-13 5-12 2-5-2 1h-2l-3 7-17 33-14 3a3 3 0 0 1-1 0h-1l-10 2-36 6 2-8 5-24 1-3-2 1h-1l-1 3-6 23-2 8-8 1-6 1-28 5 4-15 2-11 2-7h-3l-1 8-3 10-3 15-37 6v1l36-5-5 19-38 4v1l38-3-2 7-2 6-2 7-2 9-19 1h-6l-2 1h-2 8l20-1-9 40v1l-2 6v4h1v1l1 1v-1l2-6 11-46 41-2-12 44-3 10-33 5h-4v1l1 2 1-1h3l32-4-7 24-3 10h2l3-12 7-23 27-4-6 11-15 27h3l17-30 4-8 11-2 39-5-30 41h4l29-42 53-7-40 45h5l1-1 40-45 82-11 2-4v-1l-81 12 32-39 66-3 2-4-65 3a267 267 0 0 0 24-37l1-3h4l56-9 3-1 1-1 1-2-10 1-45 8-8 2 6-13a1274 1274 0 0 0 19-39l2-4 49-20 20-8 1-1a5 5 0 0 1 1 0l4-2 3-7-5 2zM384 151l43-3 8-1-1 3-7 12-9 17-43 2 9-30zm43 17 12-21 31-3 9-1h4l14-1-4 8h-1l-5 8-11 18-22 1-33 2 6-11zm56-57 33-9-1 2a910 910 0 0 1-16 35h-5l-15 2h-9l-23 2-6 1a2378 2378 0 0 0 15-27v-1h1l12-3 7-1 7-1zm-93 15 36-5 12-2 10-2h3l-1 2-5 10-8 15-10 1-40 4h-3l6-23zm-46 7 29-4 4-1 9-1-6 22-41 4 5-20zm-9 34 3-12 41-4h1l-4 17-4 14-41 2 3-11 1-6zm53 65-28 5 3-11 10-38 2-5 42-2a2383 2383 0 0 1-29 51zm18-2-15 2 16-28 13-23 31-2 23-1-12 18-20 29zm92-14-53 8a2447 2447 0 0 0 31-46h17l38-2-33 40zm-1-41-19 1a715 715 0 0 0 17-26l2-4 2-5h3a1417 1417 0 0 0 58-8l-4 6a392 392 0 0 1-23 34zm83-80a1033 1033 0 0 1-19 35 1531 1531 0 0 1-60 9 599 599 0 0 0 19-36l1-3 23-8 4-1 16-6 26-10-2 4-8 16zm-126 22h2v-1zm-3 0-1 2-5 10 3-1 3-1 5-10zm3 0h2v-1zm-3 0-1 2-5 10 3-1 3-1 5-10z" fill="#57110c"/><path d="M326 256v-1l-25 2-10-20h26l-1-1v-2h-26l-4-11-5-18h23v-2h-3l-21 1-4-15h-2l4 15-32 1h3l2 1 28-1 7 24 2 5-38-1 39 3 11 23h7l20-1-1-2zm0 0v-1l-25 2-10-20h26l-1-1v-2h-26l-4-11-5-18h23v-2h-3l-21 1-4-15h-2l4 15-32 1h3l2 1 28-1 7 24 2 5-38-1 39 3 11 23h7l20-1-1-2zm0 0v-1l-25 2-10-20h26l-1-1v-2h-26l-4-11-5-18h23v-2h-3l-21 1-4-15h-2l4 15-32 1h3l2 1 28-1 7 24 2 5-38-1 39 3 11 23h7l20-1-1-2zm-20 3h1l20-1-1-2v-1l-25 2-10-20h26l-1-1v-2h-26l-4-11-5-18h23v-2h-3l-21 1-4-15-2-6h21l3-1v-1h-3l-21 1v-1l-5-15a9 9 0 0 0-1 0l4 15v1h-31l-1-3-2-13h-3l2 12 1 4a233 233 0 0 1-30-2l-2-11-1-6a1 1 0 0 1 0-1h-3v2a206 206 0 0 0 3 15l-34-5-3-21-1-1h-2l4 22-37-6a1 1 0 0 0-1 0l1 2 1 1 36 6 2 9 1 5 3 15-30-1h-1v2h2l29-1 1 7 1 5 6 14h-27l1 5h28l14 25-28 2h-1v2h2l28-2a9 9 0 0 1 0 1 2032 2032 0 0 0 13 23h4l-2-2-12-22 22-1 9 21 1 2 1 2h5l-2-3-1-2-11-20 25-1 4 19v3l1 3 2-2-1-2v-2l-3-19 44-3 8 16 2 3h3l-2-3-8-16h4zm-127-41a44 44 0 0 1-2-5l-1-7h34l1 7 2 15a29 29 0 0 0 1 5l-28-1a130 130 0 0 1-7-14zm35 7a314 314 0 0 0-2-19h30l2 7 3 20h-32a49 49 0 0 1-1-8zm32-12-1-7h6l28-1 7 24 2 5-38-1zm26-30 2 6 4 15-32 1h-1v-1l-3-14-1-7h2a982 982 0 0 0 29 0zm-50-1 14 1h2l3 14 1 7v1h-13l-17 1-2-9-1-13-1-2h14zm-49 9v-5l-2-9 35 4v3l2 12 2 10h-34l-3-15zm30 71h-1l-14-25h27l3 8 6 16zm23-1a179 179 0 0 1-7-17l-3-7h32l4 22zm28-2-4-22h39l9 20zm72-3v-1l-25 2-10-20h26l-1-1v-2h-26l-4-11-5-18h23v-2h-3l-21 1-4-15h-2l4 15-32 1h3l2 1 28-1 7 24 2 5-38-1 39 3 11 23h7l20-1-1-2zm0 0v-1l-25 2-10-20h26l-1-1v-2h-26l-4-11-5-18h23v-2h-3l-21 1-4-15h-2l4 15-32 1h3l2 1 28-1 7 24 2 5-38-1 39 3 11 23h7l20-1-1-2z" fill="#57110c"/><path d="m291 166 6-5s3 31 14 59c10 26 27 55 27 55h-1s-18-31-29-54-17-55-17-55z" fill="#57110c"/><path d="M124 154s10 34 23 69 35 73 35 73l155-19 226-13v-8h-7l-219 19-153 16-32-68c-12-28-27-73-27-73z" fill="#57110c"/><path fill="#f47d4c" d="m705 239-47-79-56 84 103-5z"/><path fill="#398296" d="m700 239-46-76 6-2 46 79-6-1z"/><path d="M609 246s34-29 50-38 26-10 26-10l29 48z" fill="#fff" style="mix-blend-mode:color-dodge"/><path fill="url(#y)" d="m648 176 38 58 17 3-45-77-10 16z"/><path d="m657 190-1-2v22l3-2v-18zm0 0-1-2v22l3-2v-18zm45 35-2-3-15-24-5-9-2-3-20-33-23 36-1 2-26 40-3 4-8 13 117-2zm-43-62 14 23 2 3 6 10 3 6-2 4-7 9-6 7-3 4-7 9zm3 78 9-13 3-3 3-4 7-9 2-4 9 15 2 3 6 10v1l2 2h-15l-28 2zm-10-72 3-5v1l1 22v43l1 10-7-9-3-4-5-7-12-15 9-14 1-3 8-12 4-7zm-46 74 6-9 2-4 14-23 11 15 5 6 2 3 8 10-42 2-6 1zm51-53-1-2v22l3-2v-18zm0 0-1-2v22l3-2v-18zm0 0-1-2v22l3-2v-18z" fill="#963d2f"/><path fill="#f47d4c" d="m681 379 27-113-98 5 14 108h57z"/><path fill="#d66e33" d="m676 379 27-113h5l-27 113h-5z"/><path d="M705 277a184 184 0 0 0-49 38c-23 26-33 56-33 56l1 8h57z" fill="#fff" style="mix-blend-mode:color-dodge"/><path fill="#b44430" d="m754 254 22 4-21 206-9 2 8-212z"/><path fill="url(#m)" d="m754 254-8 4-5 207 5 1 8-212z"/><path fill="url(#z)" d="m540 265 18 226 7 1-12-227h-13z"/><path fill="#b44430" d="m553 265 10-1 4-9 4 234-6 3-12-227z"/><path fill="url(#A)" d="M78 463 64 294l11-9 10 178h-7z"/><path fill="#db5430" d="m85 463 4-1-6-172-8-5 10 178z"/><path fill="#963d2f" d="m399 404-11-103 100-16-12 123-77-4z"/><path fill="#fcb44c" d="m404 399-6-94 83-9-10 107-67-4z"/><path fill="#57110c" d="m476 408 3-1 12-120-3-2-12 123z"/><path fill="#f79247" d="m408 399-7-94h-3l6 94h4z"/><path d="M404 399s8-24 30-49a230 230 0 0 1 46-42l-9 95z" fill="#fff" style="mix-blend-mode:color-dodge"/><path fill="#963d2f" d="m431 301 3 102h2V296l-5 5z"/><path fill="#963d2f" d="m398 332 81 6v4l-81-9v-1zm3 40h75v3h-75z"/><path fill="#57110c" d="m606 269-2 5 11 110 4 2-13-117zm-9-21-1-4 57-90 5-1-61 95z"/><path fill="#fbb77a" d="M119 465 99 319l72-11-1 163-51-6z"/><path fill="#57110c" d="m171 308 4 4-2 160-3-1 1-163z"/><path fill="url(#B)" d="m125 466-19-143 57-3v150l-38-4z"/><path fill="#57110c" d="m125 466-19-143 57-3v2l-52 3 18 141h-4z"/><path fill="#b44430" d="m203 293 3 186 8-1 4-187-15 2z"/><path fill="url(#C)" d="m195 294 8-1 3 186h-5l-6-185z"/><path d="M615 268h-1l-8 1v2l5 40v3l4 39h1v3l2 22 1 4v4h64l2-8 1-3 3-14 1-2 2-10 2-9 1-2 7-31 1-3 8-35 1-2 2-8zm-5 3 19-1 29-1v1l-1 35-42 5zm5 43v-2l42-4v7l-1 24v8h-22l-15-1zm8 57-2-16-1-3v-4h9l4 1h5l9 1h8v27l-1 2h-30v-1zm59 4-1 3v1h-24v-3l1-26 25 2h4zm8-34-2 7v1h-4l-26-1 1-1v-7l2-29v-3h3l30-3h4v3l-5 19-2 8-1 3zm17-72-2 8-5 23h-5l-27 4-7 1 2-35v-1l21-2h1l18-1h5v1z" fill="#963d2f"/></g></svg>