<svg xmlns="http://www.w3.org/2000/svg" width="679.62" height="711.98" viewBox="0 0 509.72 533.98"><defs><radialGradient id="b" cx="318.15" cy="120.98" r="160.76" gradientUnits="userSpaceOnUse"><stop offset=".02" stop-color="#fff" stop-opacity="0"/><stop offset=".2" stop-color="#fff" stop-opacity=".01"/><stop offset=".33" stop-color="#fff" stop-opacity=".05"/><stop offset=".45" stop-color="#fff" stop-opacity=".11"/><stop offset=".55" stop-color="#fff" stop-opacity=".2"/><stop offset=".65" stop-color="#fff" stop-opacity=".31"/><stop offset=".74" stop-color="#fff" stop-opacity=".45"/><stop offset=".83" stop-color="#fff" stop-opacity=".61"/><stop offset=".92" stop-color="#fff" stop-opacity=".8"/><stop offset="1" stop-color="#fff"/></radialGradient><clipPath id="a" transform="translate(-167.29 -37.33)"><path d="M535.32 327.91a32.6 32.6 0 0 1-7.43 1.21 33.05 33.05 0 0 1-5.83-.26 33.66 33.66 0 0 1-15.58-6.32l-4.5 19.52 26.46 8.22Z" fill="none"/></clipPath></defs><g style="isolation:isolate"><path d="M275.18 502.57c-16.68 2.94-37.9 12.72-34.55 29.32 2.38 11.8 16.08 16.95 27.78 19.74a726.75 726.75 0 0 0 284.07 10.36c19.88-3.23 41.9-8.8 52.36-26.02 2.34-3.87 3.98-8.66 2.34-12.88-1.29-3.32-4.32-5.58-7.27-7.58a179.6 179.6 0 0 0-87.78-30.27c-76.11-5.26-162.26 4.18-236.95 17.33Z" transform="translate(-167.29 -37.33)" fill="#4f7a88" opacity=".59" style="mix-blend-mode:multiply"/><path d="M503.85 191.8c-9.4-57.93-37.44-114.6-84.9-149.11-77.85-56.6-194.59-54.24-276.6-8.7C31.46 95.55-37.87 253.73 22.12 373.03 79.5 487.1 230 513.48 338.63 491.93c61.97-12.3 126.9-68.11 152.34-126.33q2.71-6.2 4.98-12.78c17.28-50.24 16.34-109.02 7.9-161.02Zm-77.1 200.67c-15.8 19.41-29.07 35.63-53.33 44.82-16 6.06-35.69 6.14-26.96-15.23 6.07-14.87 25.62-29.02 34.36-43.42 29.12-48 31.6-107.88 23.04-163.36-4.55-29.48.71-55.95 35.94-55.73A47.47 47.47 0 0 1 486.44 199c12.42 72.52-14.66 138.13-59.69 193.48Z" fill="#b7e0e0" opacity=".69"/><path d="M292.29 271a30.06 30.06 0 0 1 20.41-26.33c6.8-2.15 14.09-1.76 21.2-1.34 2.17.13 4.84.64 5.43 2.73a5.1 5.1 0 0 1-.02 2.13 77.31 77.31 0 0 1-20.47 41.37c-14.28 14.88-27.48-1.47-26.55-18.56ZM365.7 191.75a5.16 5.16 0 0 0-3.1-2.14c-1.52-.15-2.83 1-3.87 2.11a49.61 49.61 0 0 0-13.09 30.95c11.67 1.36 25.16-3.41 32.43-12.65a97.09 97.09 0 0 0-12.37-18.27Z" fill="#c8963d"/><path d="M444.23 355.35c8.18 1.27 16.5-2.1 23.13-7.06a51.8 51.8 0 0 0 20.44-39.52c.35-13.3-5.9-27.83-18.29-32.7a3.13 3.13 0 0 0-1.8-.3 3.33 3.33 0 0 0-1.68 1.32c-10.68 13.12-59.43 72.44-21.8 78.26Z" fill="#f9bb4f"/><path d="M464.26 242.84c-19.65-53.57-87.65-52.25-127.76-23.2-19.26 13.96-29.77 39.36-17.09 61.3 3.06 5.29 1.73 2.87-3.15 6.53a29.97 29.97 0 0 1-17.15 5.95c-39.3.71-61.51 17.6-74.28 37.69-10.13 15.93-11.72 23.96-18.95 34.06-4.5 6.3-11.18 11.25-13.32 18.69s.74 16.92 8.07 19.4c12.62 4.27 23.45 11.82 34.37 19.4a57.37 57.37 0 0 0 9.29 9.18c10.49 8.2 23.38 12.66 36.56 15.01 5.41 3.24 7.7 11.65 13.32 15.48 6.14 4.19 14.44 1.9 21.38-.75a336.26 336.26 0 0 0 44.57-20.87c15.93-5.27 30.83-13.05 43.24-23.38 23.05-19.2 43.8-48.28 55.97-79.96 12.03-31.32 15.7-65.18 4.93-94.53Z" fill="#f9bb4f"/><g fill="#aa762a"><path d="m469.27 281.86-.13 3.87-.34 5.48c-.38 4.03-.85 8.7-1.58 13.09-.3 2.2-.74 4.33-1.04 6.31-.37 1.97-.71 3.77-.96 5.3-.6 3.07-.84 5.08-.47 5.18.35.1 1.12-1.77 2.12-4.76.46-1.51.97-3.3 1.48-5.26.45-1.98 1-4.11 1.4-6.34a129.22 129.22 0 0 0 1.84-13.3c.15-2.06.27-3.96.34-5.59l.06-3.96c.03-1.94.06-5.43-.23-9.55-.04-1.04-.17-2.1-.28-3.2s-.2-2.22-.37-3.35c-.35-2.26-.66-4.57-1.17-6.79a78.24 78.24 0 0 0-3.25-11.53c-1.18-2.94-2.1-4.75-2.43-4.63-.36.14.03 2.12.8 5.12.67 3.04 1.7 7.12 2.38 11.5.4 2.18.65 4.45.95 6.66.14 1.1.21 2.2.32 3.27s.21 2.12.25 3.13c.27 4.04.29 7.45.31 9.35ZM437.9 352.02a16.09 16.09 0 0 1-2.37-1.62 11.99 11.99 0 0 1-2.6-3c-1.45-2.3-1.86-4.96-2.68-4.89-.34.03-.58.74-.57 1.88a10.14 10.14 0 0 0 1 4.22 11.67 11.67 0 0 0 3.03 3.94 13.2 13.2 0 0 0 2.95 1.9 15.67 15.67 0 0 0 3.16 1.32 22.63 22.63 0 0 0 4.64.9c3.22.27 6-.48 5.9-1.18-.1-.77-2.75-.79-5.56-1.35a30.48 30.48 0 0 1-6.9-2.12Z"/></g><path d="M433.53 229.44a101.92 101.92 0 0 1 25.8-15.46c1.84-.76 4.09-1.43 5.72-.28 1.44 1.03 1.72 3.03 1.77 4.8a49.12 49.12 0 0 1-5.6 24.24" fill="#f9bb4f"/><path d="M454.56 223.39c2.15-1.74 4.45-3.03 5.73-3 .74 3.65-.21 8.05-1.4 11.54a2.06 2.06 0 0 1-2.94 1.65c-1.64-.36-6.13-.96-6.48-2.93-.33-1.88 2.25-4.97 5.09-7.26Z" fill="#facee1"/><path d="M445.39 219.98a66.56 66.56 0 0 0-7.26 4.83c-2.73 2.08-4.93 4.24-4.6 4.63s2.78-1.39 5.6-3.25c2.8-1.9 5.96-3.89 7.19-4.66 1.26-.71 4.5-2.57 7.5-4.14 2.97-1.6 5.68-2.96 5.5-3.4-.18-.47-3.12.44-6.26 1.87a66.55 66.55 0 0 0-7.67 4.12Z" fill="#aa762a"/><g fill="#402f21"><path d="M395.18 279.25a8.2 8.2 0 0 1-3.07-1.76 10.6 10.6 0 0 1-2.98-4.23 11.38 11.38 0 0 1-.7-4.67c-.01-.66.07-1.2.05-1.61s-.1-.69-.29-.76-.38.1-.64.44a5.07 5.07 0 0 0-.8 1.62 9.68 9.68 0 0 0-.04 5.79 11.76 11.76 0 0 0 3.56 5.54 9.7 9.7 0 0 0 4.28 2.29 7.06 7.06 0 0 0 2.08.22 21.6 21.6 0 0 0 2.62-.17 16.46 16.46 0 0 0 6.1-1.97 12.24 12.24 0 0 0 4.17-3.88c.79-1.27 1-2.21.72-2.39-.34-.21-1.02.41-2.02 1.29a17.7 17.7 0 0 1-4.06 2.71 17.3 17.3 0 0 1-5.25 1.45c-.85.1-1.64.16-2.32.17a5.79 5.79 0 0 1-.85 0 2.18 2.18 0 0 1-.56-.08ZM341.07 266.4a16.18 16.18 0 0 1-3.46-.83 6.38 6.38 0 0 1-3.26-3 8.46 8.46 0 0 1-1-4.12c0-1.16.2-1.97-.15-2.18-.28-.17-1.04.45-1.53 1.87a7.93 7.93 0 0 0 .38 5.53 8.34 8.34 0 0 0 4.56 4.52 14.72 14.72 0 0 0 4.23.93 11.32 11.32 0 0 0 4.41-.36 13.64 13.64 0 0 0 5.26-3.05c2.96-2.73 4.52-5.83 3.99-6.21-.65-.5-2.81 2.1-5.62 4.24a13.59 13.59 0 0 1-4.39 2.32 10.64 10.64 0 0 1-3.42.35ZM343.27 275.35c-.35.5.34 2.13.62 2.67.93 1.77 1.89 3.87 3.4 4.33 2.94 0 8.3-4.6 7.59-6.3-.48-1.14-10.8-1.87-11.61-.7Z"/></g><g fill="#7c7759"><path d="M201.44 387.52c-3.72-14.84-1.78-22.73-3.83-23.37-2.56 0 .28 17.7-2.94 18.19-1.84.63-5.45-15.21-7.17-15.35-1.68 1.02 4.72 17.14 3.75 18.21-1.09.43-4.76-5.85-6.18-5.34-1.14 1.33 6.2 15.5 13.54 16.8 2.46.43 10.34-6.83 8.94-9.8-1.16-1.95-4.31 2.97-6.1.66ZM315.39 439.88c-1.96-.66-3.04 2.7-5.75 3.52-1.67-1.8 2.5-13.93 1.65-14.37-2.56-.95-4.63 13.13-6.5 12.67-1.82-.12-2.76-16.72-4.26-16.72-3.3.75 1.5 18.7-.24 20.15-1.64 1.26-5.47-4.61-6.65-3.5-1.27 1.16 4.96 8.68 6.17 10.2 1.73 2.17 2.97 3.08 4.7 2.95a9.63 9.63 0 0 0 4.66-2.22c2.74-1.99 7.47-11.42 6.22-12.68Z"/></g><path d="M239.6 337.1c-5.62 10.74-8.7 23.93-3.53 34.9 6.73 14.24 24.63 19.37 40.4 19.1a100.9 100.9 0 0 0 70.57-30.97c5.35-5.62 10.17-12.16 11.73-19.76 2.66-13-5-26.33-15.5-34.44-34.77-26.87-85.2-4.16-103.67 31.16Z" fill="#fcd89c"/><g><g clip-path="url(#a)"><path d="M341.36 296.32a5.23 5.23 0 0 0-.17 1.86c.22 1.44 1.57 2.43 2.89 3.05a15.84 15.84 0 0 0 10.42 1.06 3.65 3.65 0 0 0 1.73-.8 4.14 4.14 0 0 0 .93-2.48q.63-4.46 1.2-8.93a1.79 1.79 0 0 0-.24-1.48 1.74 1.74 0 0 0-.81-.4c-4.38-1.27-9.42-2.41-13.95-2.12.04 3.3-1.3 6.99-2 10.24Z" fill="#f7f0d3"/></g><path d="M353.24 289.91c-.68-.16-1.92-.43-3.35-.87s-3.06-1.02-4.59-1.66c-3.06-1.25-5.64-2.79-6.11-2.17-.44.55 1.85 2.8 5.01 4.48a28.22 28.22 0 0 0 4.88 2.03 42.63 42.63 0 0 0 7.38 1.4 27.07 27.07 0 0 0 5.29-.14c3.56-.43 6.5-1.72 6.29-2.4-.23-.74-3.19-.22-6.49-.15a45.11 45.11 0 0 1-4.87-.12c-1.5-.1-2.74-.3-3.44-.4Z" fill="#402f21"/></g><g opacity=".2"><path d="M486.44 199a47.47 47.47 0 0 0-46.64-39.45c-35.23-.22-40.49 26.25-35.94 55.72 8.57 55.5 6.08 115.37-23.04 163.36-8.74 14.41-28.29 28.56-34.36 43.43-8.73 21.36 10.95 21.28 26.96 15.23 24.26-9.19 37.53-25.41 53.33-44.83 45.03-55.34 72.1-120.95 59.7-193.47Z" fill="#fff"/></g><g opacity=".69"><path d="M303.44 99.73c-35.86 24.7-69.5 58.55-70.4 103.12-1.37 66.65 91.53 32.65 122.8 15.23 35.9-20 72.73-48.2 93.92-83.96 11.23-18.97 18.2-44.37 5.1-62.12-29.28-39.72-93.6-7.12-125.6 11.45a395.62 395.62 0 0 0-25.83 16.28" transform="translate(-167.29 -37.33)" fill="url(#b)"/></g></g></svg>