<svg xmlns="http://www.w3.org/2000/svg" viewBox="0 0 638 595.28"><defs><style>.cls-2,.cls-3{fill:#f4d9bf}.cls-17,.cls-21,.cls-23,.cls-29,.cls-3,.cls-34,.cls-6{mix-blend-mode:multiply}.cls-4{fill:#c39368}.cls-5{fill:#e1212d}.cls-6{fill:#af1921;opacity:.8}.cls-8{fill:#d1d2d4}.cls-9{fill:#e8ebca}.cls-11{fill:#8a1813}.cls-13,.cls-34{fill:#f49f05}.cls-14{fill:#eecaa6}.cls-15{fill:#431e10}.cls-16,.cls-38{fill:#fff}.cls-17{fill:#faccc1}.cls-18{fill:#db7f1e}.cls-20,.cls-21{fill:#f39fa3}.cls-22{fill:#e51f25}.cls-23{fill:#e20d18}.cls-24{fill:#634024}.cls-25{fill:#a16740}.cls-26{fill:#791617}.cls-27{fill:#7d4c2a}.cls-28,.cls-29{fill:#fddbbe}.cls-30{fill:#c4c6c8}.cls-32{fill:#9a1919}.cls-33{fill:#fcdbce}.cls-34,.cls-38{opacity:.5}.cls-35{fill:#3c1c11}.cls-37{fill:#b2191c}.cls-37,.cls-38{mix-blend-mode:screen}.cls-39{fill:#684023}</style></defs><g style="isolation:isolate"><g id="Слой_1" data-name="Слой 1"><path class="cls-2" d="M220.77 289s20.75 52.78 16.14 97l-16.06 1.28s-3.49-67.46-18-91.07Z"/><path class="cls-3" d="M225.82 303.78a261.8 261.8 0 0 0-5-14.81l-17.9 7.26a72.65 72.65 0 0 1 7 16.9c5.69-1.9 11.08-5.57 15.9-9.35Z"/><path class="cls-2" d="M222.08 373.07s-5.23 2.38-6 9.83.38 16.83 4.54 15.1-.82-12.07 4.1-12.13 7.42 12.24 5.94 20.21 2.69 9.2 6 7.55 12.63-31.76-2.73-40.57c-6.93-3.99-11.85.01-11.85.01Z"/><path class="cls-2" d="m232.29 374.44 1.08-1.68s15.44 4.45 14.4 24.74-11.68 16.59-13.77 16.25-1.71-39.31-1.71-39.31Z"/><path class="cls-4" d="M236.71 392.41s4.14 14.79-3.28 21.6c0-.01 4.22-4.81 3.28-21.6ZM240.77 393.88s3.07 13.91-2.75 20.4c-.02 0 3.31-4.58 2.75-20.4ZM244.11 392.47s3.07 13.91-2.75 20.4c0 0 3.32-4.58 2.75-20.4Z"/><path class="cls-5" d="M130 247.88s-24.22-4.77-40.35 12.84S69.78 291 69.78 291s14.22 19 38.46 16Z"/><path class="cls-6" d="M130 247.88s-24.22-4.77-40.35 12.84S69.78 291 69.78 291s14.22 19 38.46 16Z"/><path d="M93.14 305.12c-7.29-6.68-17.56-14.5-22.54-13.12 2.56 3 11.22 11.9 24.72 14.58a12.88 12.88 0 0 1-2.18-1.46Z" style="fill:#70150e;mix-blend-mode:multiply"/><path class="cls-6" d="M116.44 247.64c-10.21 6.44-13.36 17.8-17.19 29a181.33 181.33 0 0 0-7.55 29 40.27 40.27 0 0 0 16.54 1.36L130 247.88a49.37 49.37 0 0 0-13.56-.24Z"/><path class="cls-5" d="M170 247.88s24.23-4.77 40.36 12.84S230.18 291 230.18 291s-14.26 19-38.46 16Z"/><path class="cls-6" d="M170 247.88s24.23-4.77 40.36 12.84S230.18 291 230.18 291s-14.26 19-38.46 16Z"/><path class="cls-6" d="M199.33 272.36c-2.58-7-5.94-14.2-11.52-19.34a35.38 35.38 0 0 0-8.75-5.69 45.94 45.94 0 0 0-9.1.55L191.72 307a40.23 40.23 0 0 0 15.67-1.12c-2.77-11.19-4.12-22.82-8.06-33.52Z"/><path class="cls-2" d="M112.51 442s2.4 71 6.76 101.42c0 0 2.42 6.38 8.25 5.78s9.16-1.2 8.88-5.77-2.17-68.16-2.17-102.91Z"/><path class="cls-8" d="M117.08 523.33c.66 7.59 1.4 14.52 2.19 20.07 0 0 2.42 6.38 8.25 5.78s9.16-1.2 8.88-5.77c-.1-1.48-.35-9.16-.66-20-6.21.09-12.43-.01-18.66-.08Z"/><path class="cls-3" d="M134.32 454.51c-.05-5-.08-9.72-.08-14L112.51 442s.11 3.2.32 8.5c7.17 1.5 14.29 2.95 21.49 4.01Z"/><path class="cls-2" d="M174 440.51s8.78 92.74 10.87 103.64 18.56 8.8 18.6-.3-3.66-107-3.66-107Z"/><path class="cls-8" d="M182.14 522.27c1.16 10.75 2.16 19.06 2.69 21.87 2.09 10.92 18.56 8.8 18.6-.3 0-2.34-.23-10.62-.6-21.57Z"/><path class="cls-3" d="m200.26 449.9-.49-13.05-25.77 3.66 1.13 11.78c8.23-1.93 16.66-2.15 25.13-2.39Z"/><path class="cls-5" d="M108.4 542.19s6-8.25 11.49-4.31 3.66 5.06 7.64 5.73 11.79-2.83 12.74 3.95.84 16.5.12 17.89-13.55 9.75-40.46 10-39.93-8.11-42.46-10.16S62 540.19 74.9 536.6s29.16 2.79 33.5 5.59Z"/><path class="cls-9" d="M93.84 570.09c-11.88-.75-26.59-1.7-36.61-9.15-.42 2.24-.35 3.87.24 4.34 2.54 2 15.57 10.46 42.46 10.18s39.74-8.63 40.46-10a9.4 9.4 0 0 0 .43-2.74c-14.45 6.77-31.23 8.37-46.98 7.37Z"/><path class="cls-5" d="M190.7 539.4s-10.15-2.4-10.7 2.09-.93 26.42 1.26 27.81 42.64 7.7 63.25 3.24 21.1-8.54 21-15.69-7.29-18.85-25.3-18.53-25.55 4.31-25.55 4.31-2.81-8.89-10.5-8.64-13.46 5.41-13.46 5.41Z"/><path class="cls-9" d="M254.5 567.15c-9 2.92-19 3.84-28.39 3.81-10.5 0-20.66-2.07-31.06-3.15-4.84-.51-10.17-.73-14.92-2.3.26 2 .62 3.46 1.13 3.79 2.17 1.4 42.64 7.7 63.25 3.24 13.8-3 18.57-5.81 20.2-9.51a64.83 64.83 0 0 1-10.21 4.12Z"/><path class="cls-5" d="M98.76 389.61s-6.08 37.32-5.53 52.26c0 0 39.07 8.77 53.23 7.34l3.4-28.52 6.88 28.05s42.37-2.28 57.64-7.49l-8.78-53.17s-58.76-7.31-106.84 1.53Z"/><path d="M196.55 445c7.06-1 13.52-2.26 17.83-3.73l-8.78-53.17s-9.81-1.22-24.69-2.06q6.74 29.74 15.64 58.96Z" style="opacity:.3;fill:#af1921;mix-blend-mode:multiply"/><path class="cls-11" d="M110.43 405.18c4.78-6.1 6.14-11 5.54-18-5.81.63-11.58 1.44-17.21 2.48 0 0-2 12.55-3.65 26 6.17-1.48 11.24-5.28 15.32-10.48ZM194.83 406.06c3.22 3 9.38 6.56 14.91 7.15l-4.15-25.13s-7.38-.91-19-1.7c.29 7.24 3.29 15.02 8.24 19.68Z"/><path class="cls-6" d="M162.76 409c12.34-.26 22-2.08 34.3-3.05 3-.24 7.51-2.35 11.1-2.27l-2.57-15.57s-58.76-7.31-106.83 1.54c0 0-.91 5.61-2 13.33 20.45 6.02 45.24 6.43 66 6.02Z"/><path class="cls-5" d="M105.69 265.36c2.69-7.27 9.93-17.18 21.32-19.51s44.21-9.19 59.69 8.81c9.77 11.36 14.77 44.71 14.77 44.71s9.69 55 11.37 96.39c0 0-72.92 9-118.16-1 0-.02 0-99.69 11.01-129.4Z"/><path d="M137.8 304.21s26.77-1.21 33.2-17.49.92-23.54.92-23.54 4.33-9.83 2.78-16.92c-16.6-6.8-38.72-2.23-47.66-.41a26.68 26.68 0 0 0-13.34 7.37c-.68 6.31-1 16.41 2.3 24.07 0 0 5.21 9.35 1.38 12-2.68 1.87-12.45 6.36-18 8.86-1.12 9.79-2 20.47-2.6 31 8.81-2.51 32.16-10.48 41.02-24.94Z" style="fill:#af1921;mix-blend-mode:multiply"/><path class="cls-2" d="M130.64 236.91s-1.19 15.64 5.57 23.47 21.7-1.08 20.46-22.77Z"/><path class="cls-3" d="M130.64 236.91s-1.19 15.64 5.57 23.47 21.7-1.08 20.46-22.77Z"/><path class="cls-13" d="M36.78 98.51s-5.4 33.2-10.27 37.16 11.79 2.72 11.79 2.72-11.95 11.36-10.91 13 14.43-6.82 14.43-6.82-3.68 20.73-2.51 26.64 18.24-7.48 18.24-7.48L59.61 175l187.74-10s25.14 1.71 24.81-.56-9.49-15.11-9.49-15.11 12.44 4.85 14.21 7-.51-10-10.54-19.1c0 0 12.72-.44 15.73-1.15s-15.59-9.26-15.59-9.26 8.07-11.68 6.38-12.92-17.15.82-17.15.82-14.1-55.47-53-75.89-87-23.07-117.81-3.12S34.92 73 36.78 98.51Z"/><path class="cls-2" d="M57.63 133.54s7.58 16.57 4.42 30.24-11.73 43.43 16 59.15 69.93 21.22 96.52 14.24 63.81-28.38 70.07-53.61 1.23-58.56 1.23-58.56-7.85-70.4-75-93.13S30.42 77.3 57.63 133.54Z"/><path class="cls-14" d="M61.64 165.53s-3.86-7.67-11.34-.93-8 20 8 25.2c.02-.01-.23-14.95 3.34-24.27ZM247.48 162.82s3.82-8.2 14.91-2.51 4.24 24.4-4 27.28a16.66 16.66 0 0 1-14.39-1.34s3.3-18.75 3.48-23.43Z"/><path class="cls-4" d="M140.71 190s-5.55-5-9.09-1.4-1.85 12.69 11 12c0 0-7.75-.67-9.44-4.3s1.39-8.98 7.53-6.3Z"/><path class="cls-15" d="M187 172.32c-.21 5.17-2.22 9.3-4.48 9.21s-3.94-4.35-3.75-9.54 2.22-9.3 4.5-9.21 3.92 4.35 3.73 9.54Z"/><path class="cls-16" d="M182.44 168.2c-.19 1.56-.9 2.77-1.59 2.68s-1.08-1.43-.89-3 .9-2.75 1.58-2.68 1.08 1.45.9 3Z"/><path class="cls-15" d="M109.1 171.24c-.21 5.18-2.21 9.3-4.48 9.22s-3.94-4.36-3.73-9.55 2.2-9.3 4.48-9.21 3.93 4.36 3.73 9.54Z"/><path class="cls-16" d="M104.55 167.13c-.19 1.55-.9 2.75-1.57 2.66s-1.09-1.41-.9-3 .9-2.76 1.59-2.68 1.06 1.45.88 3.02Z"/><path class="cls-4" d="M246.24 176.53s2.81-6.75 8.44-5.46 3.26 6.07 3.26 6.07 0-4.28-5-3.83-6.7 3.22-6.7 3.22ZM48.92 173.93s8.58-1.94 10 4.76c-.05-.01-4.17-5.26-10-4.76Z"/><path class="cls-17" d="M210.33 181.85c.23 3.07-5.57 6-13 6.54s-13.55-1.5-13.78-4.58 5.58-6 13-6.54 13.56 1.5 13.78 4.58ZM106.6 188.3c-.47 3-6.79 4.59-14.11 3.46s-12.88-4.52-12.41-7.55 6.79-4.61 14.12-3.47 12.87 4.5 12.4 7.56Z"/><path class="cls-13" d="M232.15 128s14.8-6.16 18.1-8.23c0 0 2.27 51.41-6.25 66.51 0-.03-2.37-45.84-11.85-58.28Z"/><path class="cls-18" d="M185.4 140.16c-8.59-.63-17 6.92-18 15.32a.48.48 0 0 0 .85.38c4-5.28 8.72-9.32 15.66-10 8.41-.73 12.52 7.51 13.7 12.82.22 1 2.13.67 2.13-.23-.05-9.77-6.53-17.74-14.34-18.29ZM103.39 143.06c-8.59-.63-17 6.92-18 15.32a.48.48 0 0 0 .85.38c4-5.28 8.72-9.32 15.66-10 8.41-.74 12.52 7.5 13.7 12.82.22 1 2.13.67 2.14-.23-.06-9.77-6.54-17.73-14.35-18.29Z"/><path class="cls-13" d="M165.56 105.42S132.2 155.09 125.07 148s5.5-29.52 5.5-29.52-18.74 31-22.57 28.71-4.33-16.3-4.33-16.3-18.85 24.2-26.49 20.89-7.41-21.14-7.41-21.14 0 22.27-8.14 21.45-26.72-28.33-26.72-55.45S59.18-.52 154 10.68c0 0 54.26 1.11 71.4 36.25 0 0 36.67 8.45 46.86 53.34S244 136.84 244 136.84s-19.43-5.27-33.36-20.89c0 0 9.17 17.31.68 17.82s-37.86-13.77-45.76-28.35Z"/><path d="M264.43 126.63c-12.88 5.89-27.67-.89-38.49-7.71A136.93 136.93 0 0 1 201 99.06c2 5.66 5.33 14 3.11 19.71C198 134.61 174.87 109 166 96.9c-.41.67-.8 1.33-1.18 2-6.4 11.19-12.85 22.35-23.39 30.13-1.4 1-2.9-.42-3.06-1.76-1-7.67-.1-15.24.63-22.87a209.81 209.81 0 0 0-10.82 12.81c-4.43 5.84-8.87 11.17-16 13.55a2 2 0 0 1-2.3-.94c-2.22-4.28-2.57-9.07-2.57-13.89a134.33 134.33 0 0 1-19.78 22.62C75.05 149.84 69.69 125 67.52 113c-.81 3.41-1.65 6.8-2.49 10.16-1.75 7.06-2.49 16.62-11.47 17.12a13.21 13.21 0 0 1-5.17-.78c4.84 7.42 9.92 12.27 13.25 12.61 8.14.82 8.14-21.45 8.14-21.45s-.23 17.83 7.41 21.14 26.49-20.89 26.49-20.89.51 14 4.33 16.3 22.56-28.76 22.56-28.76-12.63 22.39-5.5 29.52 40.5-42.53 40.5-42.53c7.89 14.6 37.27 28.86 45.76 28.35s-.68-17.82-.68-17.82c13.91 15.6 33.35 20.87 33.35 20.87s26.3 5.66 29.62-17.8a25.2 25.2 0 0 1-9.19 7.59Z" style="fill:#ef8624"/><path class="cls-20" d="M113.52 215.1s41.3 5.1 65.3-9.51c0 0-4.41 22.07-32.65 24.11s-32.65-14.6-32.65-14.6Z"/><path class="cls-21" d="M153.71 219.21a62.36 62.36 0 0 0-28 7.85c4.8 2 11.38 3.31 20.45 2.65 11-.8 18.38-4.65 23.3-9.05a52.92 52.92 0 0 0-15.75-1.45Z"/><path class="cls-16" d="M143.93 222.57c.4 0 24.09-2 26-10 .23-1 .39-2 .58-2.93-19.12 7.5-43.68 6.53-53.06 5.8 5.87 9.82 14.07 8.5 26.48 7.13Z"/><path class="cls-22" d="M158.13 233.75a24.83 24.83 0 0 1-3.75-3.58 19.93 19.93 0 0 0-16.47-7.67 15.57 15.57 0 0 0-5.51 1.3c-8.41 3.67-16.59 16.32-16.43 31.84 0 0-.31 10.1 5.1 12.07s5.58 1.89 8.57 6.46 8.45 5.38 14.28 4.5 20.32-9 24.59-17.15 5-17.21-.57-21.49a77.24 77.24 0 0 0-7.18-4.48 30 30 0 0 1-2.63-1.8Z"/><path class="cls-23" d="M158.4 252.69c-9.84-1.36-15.18 2.28-22.8 7.33-3.52 2.33-6.17 3.24-10.36 2.94-4.58-.34-6.24-3.48-9.19-5.23.22 3.06 1.17 8.6 5 10 5.4 2 5.58 1.89 8.57 6.46s8.45 5.38 14.28 4.5 20.32-9 24.59-17.15a34.67 34.67 0 0 0 1.53-3.41c-3.74-2.22-7.27-4.84-11.62-5.44Z"/><path class="cls-24" d="M163.64 217.09a.8.8 0 0 1 0-.09s0-.85-1.57-1.24-1.76 0-1.6.83c.01 0 1.85 1 3.17.5Z"/><path class="cls-25" d="M163.64 217.09c-1.32.5-3.16-.51-3.16-.51.16.83-2.19 13.06-8.7 19a2.47 2.47 0 0 0 .71 1s10.64-10.86 11.15-19.49Z"/><path class="cls-26" d="M150.29 231.81s-1.2 6 6.62 5.88c0 0-3.39-.41-4.73-1.7a7.33 7.33 0 0 1-1.89-4.18Z"/><circle class="cls-16" cx="136.31" cy="234.75" r="8.24"/><circle class="cls-16" cx="123.91" cy="250.74" r="4.21"/><path class="cls-2" d="M168.46 270.25c2.09-5.13 0-6.47-1.14-6.47.75-3.8-4.57-4.95-7.61-3.42 2.08-4.76-9.32-2.28-14.83 0s-10.85 9.7-10.85 9.7-4.39 4.11-16.73-7.8c-2.47-1.13-2.28 12 3.61 18.45 1.14 2.47 1 10.84 1 10.84s-20.92 12-37.08 16.17c1.49-3.16 2.91-5.48 3.37-6.93-4-3.85-10.83-7.7-13.71-8.53-3.23 4.6-17.91 28.08-6.32 35 12.91 7.74 51.93-7.74 68.38-25.8 11-.32 19.59-3.87 24.54-8.81s14.41-21.83 7.37-22.4Z"/><path class="cls-3" d="M86 305.34a39 39 0 0 0 2.2-4.54c-4-3.85-10.83-7.7-13.71-8.53-.61.88-1.64 2.43-2.82 4.43 3.88 3.94 8.83 7.35 14.33 8.64Z"/><path class="cls-4" d="M134 270.06a3.23 3.23 0 0 1-.15.43l-.44 1.09a15.73 15.73 0 0 1-.72 1.43c-.26.53-.55 1.07-.84 1.61s-.69 1-1 1.54a13.24 13.24 0 0 1-.83 1.36 14.58 14.58 0 0 1-1 1.29 10.77 10.77 0 0 1 .23-1.61 15 15 0 0 1 .45-1.61 9.73 9.73 0 0 1 .83-1.69c.35-.55.67-1.1 1-1.59a12.91 12.91 0 0 1 1.12-1.23 6.79 6.79 0 0 1 1.35-1.02ZM159.71 260.37s-.94.76-2.36 1.84c-.71.53-1.53 1.16-2.43 1.8l-2.82 2-5.23 3.79c-1.37 1.1-2.38 1.79-2.38 1.79s.67-1 1.82-2.4c.6-.66 1.37-1.4 2.19-2.16s1.81-1.46 2.76-2.19 2-1.35 3-1.9 1.89-1.06 2.71-1.43a24.25 24.25 0 0 1 2.74-1.14ZM167.32 263a18.85 18.85 0 0 1-1.57 2.7c-.52.78-1.14 1.69-1.86 2.63s-1.61 1.81-2.44 2.74l-1.3 1.34a9.68 9.68 0 0 1-1.36 1.2c-.92.74-1.8 1.4-2.56 1.94-1.54 1.08-2.61 1.71-2.61 1.71s.8-1 2.07-2.35c.63-.69 1.39-1.45 2.23-2.24s1.62-1.73 2.47-2.62 1.7-1.77 2.54-2.57 1.5-1.63 2.16-2.29 1.24-1.19 1.6-1.6.63-.59.63-.59ZM168.65 269.49s-.36.87-1 2.09a41.7 41.7 0 0 1-2.7 4.24 39 39 0 0 1-3.19 3.87c-1 1-1.67 1.59-1.67 1.59s.36-.86 1-2.09a40.24 40.24 0 0 1 5.88-8.1c.97-.99 1.68-1.6 1.68-1.6Z"/><path class="cls-27" d="M303.81 383.62c-33.77 15.29-34.33 69.59-34.33 69.59s-.21 2.18 3.16 2.38 3.28-2 3.28-2 .08-50.13 27.77-61.45c.16-2.84.24-5.68.12-8.52Z"/><path class="cls-28" d="M355.47 274.94s-18.61 7.15-34.23 35.41a107.87 107.87 0 0 0-12.79 56.92s-12.79 17.36-7.1 29.89 11.69 10 11.69 10 4.68 1.38 8.4-1.32c0 0 6 1.92 10.42-1.81 0 0 11-.54 8.85-13.46 0 0 5.06-4.75-.09-13.39a22.22 22.22 0 0 0-13.67-10.25s3.42-58.43 39.62-78.64Z"/><path class="cls-29" d="M351.52 300.59a57.18 57.18 0 0 1 15-12.34l-11.09-13.31s-7.06 2.73-16.12 11.41a48.27 48.27 0 0 0 12.21 14.24Z"/><path class="cls-4" d="M341.88 387.76c-2.05 2.49-4.48 6-8.19 5.36a2.91 2.91 0 0 1-1.06-.4 5.69 5.69 0 0 1-1.19-1.54 6.02 6.02 0 0 1-.19-.35c-.87-2.42-.36-6.07-.06-7.83a22.88 22.88 0 0 0-.71 6.41 19.16 19.16 0 0 1-1.88-3.82s-.07 0-.07 0c.72 4.06 2.55 9.67 7.35 10.09.31 0 .39-.48.18-.63a16.72 16.72 0 0 0-1.81-1.19c3.42.26 6.46-3.16 8-5.86.05-.18-.19-.48-.37-.24ZM337 401.21c-9.7 6.38-16.42-6.78-17-14.75 0-.06-.07 0-.07 0a20.44 20.44 0 0 0 4.89 14.12c3.31 4.11 8.67 4.55 12.41 1 .14-.18-.01-.52-.23-.37ZM324.75 405.55c-7.09-.1-12.46-10.89-11.77-17.06-1.55 6.75 3.63 18.15 11.78 17.36.13-.03.17-.3-.01-.3ZM316.77 406.46c-6.87-.06-10.29-10.3-10.83-15.73 0-.05-.07 0-.08 0-.32 5.48 3.32 17.87 10.93 16.11.21-.04.21-.37-.02-.38Z"/><path class="cls-28" d="M485.68 274.94s18.61 7.15 34.23 35.41a107.91 107.91 0 0 1 12.79 56.92s12.79 17.36 7.1 29.89-11.69 10-11.69 10-4.68 1.38-8.4-1.32c0 0-6 1.92-10.41-1.81 0 0-11-.54-8.86-13.46 0 0-5.06-4.75.1-13.39a22.22 22.22 0 0 1 13.66-10.25s-3.41-58.43-39.62-78.64Z"/><path class="cls-29" d="M517.5 306.24c-15.06-24.82-31.82-31.3-31.82-31.3l-11.09 13.31c12.22 6.82 20.69 18 26.57 29.81 6.65-2.2 12.48-5.7 16.34-11.82Z"/><path class="cls-4" d="M499.26 387.76c2.05 2.49 4.49 6 8.2 5.36a2.91 2.91 0 0 0 1.05-.4 5.58 5.58 0 0 0 1.19-1.54l.2-.35c.86-2.42.35-6.07.06-7.83a22.74 22.74 0 0 1 .72 6.41 19.59 19.59 0 0 0 1.87-3.82s.07 0 .07 0c-.72 4.06-2.54 9.67-7.34 10.09-.32 0-.4-.48-.19-.63a17 17 0 0 1 1.81-1.19c-3.42.26-6.45-3.16-8-5.86-.06-.18.18-.48.36-.24ZM504.13 401.21c9.7 6.38 16.43-6.78 17-14.75 0-.06.06 0 .07 0a20.44 20.44 0 0 1-4.9 14.12c-3.31 4.11-8.67 4.55-12.41 1-.12-.18.03-.52.24-.37ZM516.39 405.55c7.1-.1 12.45-10.89 11.77-17.06 1.55 6.75-3.64 18.15-11.79 17.36-.12-.03-.15-.3.02-.3ZM524.37 406.46c6.88-.06 10.3-10.3 10.83-15.73 0-.05.07 0 .08 0 .33 5.48-3.32 17.87-10.93 16.11-.18-.04-.18-.37.02-.38Z"/><path class="cls-5" d="M409.67 250.32s-17.22-2.23-37.26 8.4-27.13 20.79-27.13 20.79 11.26 24.37 33.87 29.39Z"/><path class="cls-6" d="M409.67 250.32s-17.22-2.23-37.26 8.4-27.13 20.79-27.13 20.79 11.26 24.37 33.87 29.39Z"/><path class="cls-6" d="M401.06 250.3c-12 6-16.21 15.6-21.4 27.41a282.56 282.56 0 0 0-10.29 27.53 39.27 39.27 0 0 0 9.78 3.66l30.52-58.58a46.6 46.6 0 0 0-8.61-.02Z"/><path class="cls-5" d="M447.66 250.13s25.69-4.35 43.11 10.19a167.16 167.16 0 0 1 29.08 32.32s-16.75 20.83-39.91 21.07Z"/><path class="cls-6" d="M447.66 250.13s25.69-4.35 43.11 10.19a167.16 167.16 0 0 1 29.08 32.32s-16.75 20.83-39.91 21.07Z"/><path class="cls-6" d="M456.8 249.52a60.16 60.16 0 0 0-9.14.61l32.27 63.57a42 42 0 0 0 13-2.3c-2.46-10.16-7.4-53.56-36.13-61.88Z"/><path class="cls-2" d="M412.18 430s-2.6 44.62 4 113.72l-17.41 6.09S387.13 485.5 386.44 432Z"/><path class="cls-29" d="M411.7 460.44c-.17-19.49.48-30.48.48-30.48l-25.74 2c.11 8.73.52 17.76 1.12 26.74a148.57 148.57 0 0 0 24.14 1.74Z"/><path class="cls-5" d="M418 561.88s-6.2 9.75-38.54 9.07c-3.8-.08-25.35-.41-26.37-9.23s.21-13.23 16.7-13.56c3.6-.08 17.39 1.17 24.48-7.22 0 0 8.35-4.76 21.81 1.6.01 0 2.22 6.93 1.92 19.34Z"/><path class="cls-30" d="M379.2 565.49c-7.81-.23-18.82-1.24-26.23-5.08 0 .42.08.85.13 1.3 1 8.82 22.57 9.15 26.37 9.23 32.34.67 38.54-9.07 38.54-9.07v-4.23c-11.74 6.3-26.01 8.23-38.81 7.85Z"/><path class="cls-2" d="M444.6 431.19s8 44 9.7 113.39l18 4s3.83-65.21-1.93-118.45Z"/><path class="cls-29" d="M472.28 452.94c-.47-7.71-1.08-15.4-1.89-22.85l-25.79 1.1s1.8 10 3.88 27.9a117.45 117.45 0 0 0 23.8-6.15Z"/><path class="cls-5" d="M352.84 436.09c16.46 11.41 56.19 14 74.69 14.51 27.68.78 56.36-6 80.4-20.17-10.66-17.59-31.44-59.92-33-64.3s-96.28-9.22-96.28-9.22-18.56 48.61-25.81 79.18Z"/><path d="M468.57 439.14c.53 2.23 1.1 4.44 1.65 6.66a144.64 144.64 0 0 0 37.69-15.37c-10.66-17.59-31.44-59.92-33-64.3-.47-1.28-8.87-2.6-20.51-3.83 4.32 25.7 8.13 51.49 14.17 76.84Z" style="opacity:.6;fill:#af1921;mix-blend-mode:multiply"/><path class="cls-6" d="M423.11 385.88c19.76.7 38.75-1.79 56.82-8.85-2.72-5.63-4.61-9.71-5-10.91-1.61-4.4-96.28-9.22-96.28-9.22s-2.58 6.8-6.19 16.87c14.54 9.23 33.87 11.5 50.65 12.11Z"/><path class="cls-5" d="M426.09 246.75s45.22-7.64 53.27 35.83c0 0 9 64.61 6.6 87.46 0 0-70.15 18.06-120.24-9.47 0 0 2.89-30.9 15.2-72.36.01 0 8.38-47.13 45.17-41.46Z"/><path class="cls-32" d="M405.73 247s-7.17 22.83 11.32 28c6.2 1.74 11.12-4.69 12.07-12.29 0 0 2.76 13.24 12.75 12.07s16.2-15.08 12-27.06l-26.38-3.31Z"/><path class="cls-33" d="M431.72 292.24a4.23 4.23 0 1 1-4.47-4 4.22 4.22 0 0 1 4.47 4ZM429.46 326.12a4.23 4.23 0 1 1-4.46-4 4.25 4.25 0 0 1 4.46 4ZM429.46 359.29a4.22 4.22 0 1 1-4.46-4 4.21 4.21 0 0 1 4.46 4Z"/><path class="cls-2" d="m413.79 235.1 3.06 20.06s2.66 7.3 12.28 7.6c0 0 10.35-1.12 12.16-8.73s2.3-20.76 2.3-20.76Z"/><path class="cls-13" d="M615.06 134.79c2.43-5.36 2.07-9 2.07-9-11.29 3-13.52-5.54-20.52-27S580.92 57.19 561.48 48s-36.66 5.6-36.66 5.6 25.49 34.17 29 67.77 14.75 45.76 14.75 45.76c1.86-.64 3.63-1.26 5.35-1.89-2.4-6.7-2.81-14.35-2.9-21.7 2.05 7.23 5.34 14.53 11.26 18.31a100.42 100.42 0 0 0 14.94-8 36.28 36.28 0 0 1-13.47-16.11A29 29 0 0 0 603 149.55a48.2 48.2 0 0 0 8.48-8.71c-6.53-1.75-12.36-4.78-14.81-11 5.47 6.03 11.55 6.16 18.39 4.95Z"/><path class="cls-34" d="M615.06 134.79a25.57 25.57 0 0 0 .94-2.4c-5.72 1.4-11.75.6-16.3-4.15a56.47 56.47 0 0 1-10.7-15.61c1.14 11 4 22.24 11.71 29.86a1 1 0 0 1-1.19 1.64c-11.52-5.23-15.18-16.13-17.2-27.45-1.87 7.93-2.77 16-1.26 24.1.22 1.06-1.31 2-1.86.84-6-12.24-5.33-25.68-7.69-38.77-.89-5-2-9.61-4.61-14-2.2-3.75-4.52-7.42-6.61-11.2-1.4-2.53-6.55-10.44 0-10.38 8.1.08 14.32 5.57 21 9.34C574.46 61.82 558.4 54 543.55 49a1 1 0 0 1-.66-1.5 8.83 8.83 0 0 1 1.65-2.34 40.61 40.61 0 0 0-19.71 8.4s25.49 34.17 29 67.77 14.75 45.76 14.75 45.76c1.86-.64 3.63-1.26 5.35-1.89-2.4-6.7-2.81-14.35-2.9-21.7 2.05 7.23 5.34 14.53 11.26 18.31a100.42 100.42 0 0 0 14.94-8 36.28 36.28 0 0 1-13.47-16.11A29 29 0 0 0 603 149.55a48.2 48.2 0 0 0 8.48-8.71c-6.53-1.75-12.36-4.78-14.81-11 5.47 6.03 11.55 6.16 18.39 4.95Z"/><path class="cls-32" d="M542 56c7 1 14.66-1 23.39 3.72 0 0-12.58 11-22.34 15.82a37.19 37.19 0 0 1-5.51-16.61s-10 .91-16.13-3.85c0 0 7.19-15.48 16.84-22.1.04-.05 1.96 11.37 3.75 23.02Z"/><path class="cls-13" d="M496.87 79.29s21.53 42.5 19.33 84.48c0 0 3.57-9.7 6.22-14.91 0 0 3.87-3.88 11.71 1.11s10.7 17.65 1.95 26.94-15.25 1.7-15.44.84a55.25 55.25 0 0 1-7.23 24.39s28.86-9.21 42.54-45.09S554.64 49.84 512.18 41c0 0-14.06-30.13-77.82-22.55s-105 57.95-109.8 96.71 11.64 61.62 23.72 71.66S496.87 79.29 496.87 79.29Z"/><path class="cls-34" d="M457.72 107.13a131.45 131.45 0 0 0-70.15-14.4c-10.75.69-21.91 1.61-31.57 6.89-7.42 4-12.84 10.29-19.76 14.91-4 2.67-9 3.68-11.4-1.27-.11.63-.23 1.27-.3 1.88-4.84 38.78 11.64 61.62 23.72 71.66 8.08 6.74 71.78-43.61 113.11-77.7-1.19-.66-2.37-1.34-3.65-1.97Z"/><path class="cls-14" d="M353.6 161.83s-2.8-7.26-6.68-8.3-13.17 1.69-15.59 11.84S335 183.7 340.71 186s9.08-4.13 9.08-4.13Z"/><path class="cls-4" d="M343.53 164.93c-5-3-7.37 3.26-8.37 7.36 0 .18.19.25.29.09.84-1.52 1.58-3.15 2.47-4.64 1.57-2.52 4.12-1.61 5.62.17a9.28 9.28 0 0 1 1.36 2.24 5.12 5.12 0 0 0-3 1.81 10.13 10.13 0 0 0-2.11 4c-.08.23.23.33.37.18.78-1 1.47-2 2.29-2.92a5.22 5.22 0 0 1 3.08-1.42 65.17 65.17 0 0 1 1.2 7.46.4.4 0 0 0 .79 0c.96-4.77.58-11.62-3.99-14.33Z"/><path class="cls-14" d="M517.14 155.83s3.65-7.52 8-8.42 14.52 2.34 16.43 13.09-5.46 19.05-11.93 21.24-9.74-4.71-9.74-4.71Z"/><path class="cls-4" d="M528.11 159.51c5.76-2.88 7.94 3.75 8.72 8.07 0 .22-.23.26-.33.1-.79-1.64-1.5-3.38-2.4-5-1.55-2.71-4.45-1.87-6.25-.06a10.94 10.94 0 0 0-1.66 2.28 5.53 5.53 0 0 1 3.18 2 10.1 10.1 0 0 1 2 4.32c.07.24-.27.33-.41.16-.79-1.05-1.5-2.16-2.36-3.17s-2-1.26-3.27-1.63a68 68 0 0 0-1.89 7.76.44.44 0 0 1-.88 0c-.66-5.03.27-12.19 5.55-14.83Z"/><path class="cls-2" d="M361.49 81.86a47.22 47.22 0 0 0-18.21 40.61c.76 11.84 10.64 15.23 6.94 34.91s-25.22 50.55 32.56 75.09 154.07-4.35 136.06-74.08c0 0 6.8-18.71 14.27-31.75s15.11-63.25-37-63.67-134.62 18.89-134.62 18.89Z"/><path class="cls-14" d="M350.76 145c17.69-11 41.73-13.5 62.36-15 25.19-1.88 50.68-3.37 75.82-.1 14.13 1.83 24.15 9.25 34.73 16.4a188.26 188.26 0 0 1 9.45-19.61c7.45-13.06 15.11-63.25-37-63.67S361.49 81.86 361.49 81.86a47.22 47.22 0 0 0-18.21 40.61c.57 8.79 6.14 12.94 7.48 22.53Z"/><path class="cls-13" d="M498.94 83.72c5.33 11.92 19 46.16 17.26 80.05 0 0 3.57-9.7 6.22-14.91 0 0 3.87-3.88 11.71 1.11s10.7 17.65 1.95 26.94-15.25 1.7-15.44.84a55.25 55.25 0 0 1-7.23 24.39s28.86-9.21 42.54-45.09c9.65-25.37 5-68.48-13.61-94.68-15.34-2.56-76.56-20.57-43.4 21.35Z"/><path class="cls-34" d="M559.75 110.08c.24 10.89-2.21 23.16-14 25.17-13.69 2.34-15-26.19-17.37-34.38-3-10.23-6.73-21.27-14.14-29.22a30.68 30.68 0 0 0-24.46-10c-1.82 4.09.36 11 9.11 22.07 5.33 11.92 19 46.16 17.26 80.05 0 0 3.57-9.7 6.22-14.91 0 0 3.87-3.88 11.71 1.11s10.7 17.65 1.95 26.94-15.25 1.7-15.44.84a55.25 55.25 0 0 1-7.23 24.39s28.86-9.21 42.54-45.09c4.87-12.67 6.1-29.76 3.85-46.97Z"/><path class="cls-20" d="M437.79 234.45c-22.77 3.59-46.09-7.93-55.33-28.93a172.65 172.65 0 0 0 27.63 5 124.93 124.93 0 0 0 44.34-3.58c10.63-2.74 23-7.32 31.11-15.31-6.09 23.21-23.44 38.99-47.75 42.82Z"/><path class="cls-21" d="M401.76 227.34a53.55 53.55 0 0 0 36 7.11 59.93 59.93 0 0 0 27.5-11.45c-18.42-12.19-46.82-10.28-63.5 4.34Z"/><path class="cls-16" d="M439.35 219.82c9.31-1.76 21.31-4.83 28.69-11.13 2.79-2.35 3.08-5.62 4.92-8.46a96.74 96.74 0 0 1-18.54 6.69 124.93 124.93 0 0 1-44.34 3.58c-5.32-.56-11-1.39-16.76-2.47-2.43 11.1 29.68 14.92 46.03 11.79Z"/><path class="cls-13" d="M512.35 64.86c-18.5-13.7-112.83-19.56-150.23 14.23 0 0-26.73 19.83-12.72 48.75 0 0 10.14-2.49 23.77-4.76 1.82-15.6 11.49-29.83 23.33-40.62-7.57 11.6-13 25.11-13.89 39.19a202.15 202.15 0 0 1 31.24-2.07l21.43.56c5.6-11.05 10.71-22.23 14.1-33.94a109.34 109.34 0 0 1-3.43 34.16c11.72.26 24.4.5 36 .61 4.73-11.29 8-22.77 7.86-34.95 4 11 4.18 23.41 2 35 15.61 0 27.82-.21 30.66-1.05.01.03 8.41-41.42-10.12-55.11Z"/><path class="cls-34" d="M374.23 109.77c-8-1.57-16.77-5.91-17.57-15.17A26.51 26.51 0 0 1 359 81.79c-6.6 6.36-20.57 23.42-9.61 46 0 0 10.14-2.49 23.77-4.76a51.3 51.3 0 0 1 3.34-13c-.74-.03-1.5-.11-2.27-.26ZM512.35 64.86a18.49 18.49 0 0 0-1.7-1.1c8.07 11.43 12.4 25.55 1.64 36.6-5.36 5.53-12 8-19.16 8.86a79.28 79.28 0 0 1-1.31 11.78c15.61 0 27.82-.21 30.66-1.05 0 .05 8.4-41.4-10.13-55.09ZM450.5 106.21h-1.86a129.43 129.43 0 0 1-2.69 14.16c11.72.26 24.4.5 36 .61a118.08 118.08 0 0 0 4.15-11.38c-12.03-.05-24.91-3.18-35.6-3.39ZM404 109.46a155.49 155.49 0 0 1-19.85 1.3 68.4 68.4 0 0 0-1.58 10.89 202.15 202.15 0 0 1 31.24-2.07l21.43.56c2.33-4.6 4.55-9.21 6.62-13.88-12.62.36-25.25 1.84-37.86 3.2Z"/><path class="cls-13" d="M459.29 131.24c-8.59-.63-17 6.92-18 15.32a.48.48 0 0 0 .85.38c4-5.28 8.71-9.32 15.65-10 8.42-.73 12.52 7.51 13.7 12.82.22 1 2.13.67 2.14-.23-.06-9.76-6.54-17.73-14.34-18.29ZM389.05 132.24c-7.54-.63-14.92 6.61-15.82 14.68 0 .45.5.74.76.35 3.55-5.06 7.67-8.94 13.79-9.52 7.39-.69 11 7.21 12.06 12.33.17 1 1.88.64 1.87-.24-.05-9.39-5.78-17.04-12.66-17.6Z"/><path class="cls-35" d="M459.61 164.1c0 6.46-2 11.74-4.36 11.81s-4.39-5.09-4.37-11.55 2-11.74 4.37-11.81 4.37 5.09 4.36 11.55Z"/><path class="cls-16" d="M454.62 159.36c-.14 1.94-.85 3.48-1.58 3.45s-1.21-1.69-1.07-3.64.83-3.5 1.57-3.43 1.21 1.65 1.08 3.62Z"/><path class="cls-35" d="M398 165.62c-.06 6.45-2.09 11.72-4.5 11.77s-4.32-5.14-4.23-11.61 2.09-11.72 4.49-11.76 4.34 5.14 4.24 11.6Z"/><path class="cls-16" d="M393.11 160.82c-.18 2-.89 3.49-1.6 3.45s-1.22-1.69-1.07-3.64.89-3.49 1.61-3.43 1.21 1.67 1.06 3.62Z"/><path class="cls-17" d="M387.95 185.27c-.49 2.52-6 3.46-12.33 2.11s-11-4.47-10.54-7 6-3.45 12.32-2.1 11.04 4.49 10.55 6.99ZM484.46 177.41c.49 2.52-4.25 5.48-10.6 6.64s-11.9.05-12.4-2.46 4.25-5.48 10.58-6.64 11.96-.05 12.42 2.46Z"/><path class="cls-4" d="M417.51 191.44a4.08 4.08 0 0 1 2.24-5c3.79-1.5 8-.4 11.19 2.05a.62.62 0 0 0-.09-.62 13.92 13.92 0 0 0-6.4-3.66c.89-2.15 0-3.81-1.12-5.75-.21-.32-1.68-1.57-1.57-1.14.46 1.5.94 4.82-.27 5.91a1.86 1.86 0 0 0-.39.56 6.36 6.36 0 0 0-4.52 1.76c-3.68 3.62.52 10.08 4.7 11a.24.24 0 0 0 .2-.08 8.8 8.8 0 0 1-3.97-5.03Z"/><path class="cls-5" d="M449.65 561.88s6.2 9.75 38.54 9.07c3.81-.08 25.35-.41 26.37-9.23s-.21-13.23-16.7-13.56c-3.59-.08-17.38 1.17-24.48-7.22 0 0-8.34-4.76-21.81 1.6 0 0-2.21 6.93-1.92 19.34Z"/><path class="cls-30" d="M488.46 565.49c7.81-.23 18.82-1.24 26.23-5.08 0 .42-.08.85-.13 1.3-1 8.82-22.56 9.15-26.37 9.23-32.33.67-38.54-9.07-38.54-9.07v-4.23c11.74 6.3 26.02 8.23 38.81 7.85Z"/><path d="M306.54 433.33a20.89 20.89 0 0 1-3.12-3 16.53 16.53 0 0 0-13.66-6.33 12.94 12.94 0 0 0-4.57 1.08c-7 3-13.77 13.54-13.63 26.42 0 0-.26 8.38 4.23 10s4.63 1.57 7.11 5.36 7 4.46 11.84 3.73 16.86-7.46 20.4-14.23 4.11-14.28-.48-17.83a64.1 64.1 0 0 0-6-3.72 23 23 0 0 1-2.12-1.48Z" style="fill:#b2191c"/><path class="cls-23" d="M306.75 449c-8.16-1.13-12.59 1.89-18.91 6.08a12.21 12.21 0 0 1-8.59 2.43c-3.8-.28-5.18-2.89-7.63-4.34.19 2.54 1 7.13 4.17 8.3 4.48 1.63 4.63 1.57 7.11 5.36s7 4.46 11.84 3.73 16.86-7.46 20.4-14.23a28.94 28.94 0 0 0 1.27-2.82c-3.12-1.79-6.05-3.97-9.66-4.51Z"/><path class="cls-24" d="M311.1 419.51a.24.24 0 0 1 0-.08s0-.7-1.31-1-1.46 0-1.33.69a3.87 3.87 0 0 0 2.64.39Z"/><path class="cls-25" d="M311.1 419.51a3.87 3.87 0 0 1-2.62-.42c.13.69-1.81 10.83-7.22 15.75a2.08 2.08 0 0 0 .59.8s8.82-8.97 9.25-16.13Z"/><path class="cls-26" d="M300 431.72s-1 4.94 5.49 4.88c0 0-2.81-.35-3.93-1.41a6.1 6.1 0 0 1-1.56-3.47Z"/><path class="cls-37" d="M295.27 434.17a6.83 6.83 0 1 1-6.84-6.84 6.83 6.83 0 0 1 6.84 6.84Z"/><circle class="cls-37" cx="278.14" cy="447.42" r="3.49"/><path class="cls-22" d="M334.71 429.72a21 21 0 0 1-4.28-.46 16.49 16.49 0 0 0-14.71 3.26 13 13 0 0 0-3 3.63c-3.68 6.66-2.69 19.12 5.26 29.26 0 0 4.89 6.81 9.45 5.37s4.63-1.57 8.9-.07 8.27-.72 11.67-4.24 8.84-16.17 7.54-23.7-5.42-13.84-11.22-13.86a65.94 65.94 0 0 0-7 .67 24.18 24.18 0 0 1-2.61.14Z"/><path class="cls-23" d="M311.74 452.84a34.67 34.67 0 0 0 6.26 12.58s4.89 6.81 9.45 5.37 4.63-1.57 8.9-.07 8.27-.72 11.67-4.24c2.1-2.18 5-7.85 6.57-13.64Z"/><path class="cls-24" d="M329.93 416v-.06s-.4-.58-1.66 0-1.15.89-.63 1.36a3.86 3.86 0 0 0 2.29-1.3Z"/><path class="cls-25" d="M329.93 416a3.86 3.86 0 0 1-2.33 1.26c.53.46 5.15 9.7 3.86 16.89a2 2 0 0 0 1 .28s1.48-12.52-2.53-18.43Z"/><path class="cls-26" d="M328.56 432.41s2.22 4.53 7.33.53c0 0-2.44 1.44-4 1.27a6.15 6.15 0 0 1-3.33-1.8Z"/><path class="cls-38" d="M326.27 437.24a6.83 6.83 0 1 1-9.59-1.27 6.84 6.84 0 0 1 9.59 1.27ZM323.51 453.36a3.49 3.49 0 1 1-4.9-.65 3.49 3.49 0 0 1 4.9.65Z"/><path class="cls-27" d="M269.48 496.35c.94 6.21 1.65 7.83 14.43 8.38s48 1.24 60.74 0 13.18-2.87 15.39-12.92c1.5-6.82 6.59-30.78 6.59-30.78-3.56-.27-97.43-2.74-102.23-3-.01-.03 3.43 27.49 5.08 38.32Z"/><path class="cls-39" d="M274.32 463.16s0 .18.06.49.1.75.14 1.26 0 1.09.16 1.72.13 1.3.17 2a19 19 0 0 0 .17 2c.05.63.09 1.23.1 1.75 0 1-.07 1.75-.07 1.75a15.64 15.64 0 0 1-.63-1.63c-.17-.5-.34-1.09-.49-1.73a8.8 8.8 0 0 1-.31-2c0-.7-.06-1.4 0-2.06a9.07 9.07 0 0 1 .23-1.8 7 7 0 0 1 .47-1.75ZM279.37 463.16a10.23 10.23 0 0 1 .51 1.73 15.86 15.86 0 0 1 .3 1.83c.06.67.07 1.39.09 2.11v1.07a9.25 9.25 0 0 1-.11 1c-.09.67-.2 1.29-.31 1.82a17.29 17.29 0 0 1-.48 1.74 17.11 17.11 0 0 1-.23-1.79c-.11-1.07 0-2.47-.09-3.87 0-.7 0-1.4.05-2.06s0-1.27.08-1.8.12-1 .13-1.3.06-.48.06-.48ZM283.39 463.16a7.15 7.15 0 0 1 .61 1.64 9.41 9.41 0 0 1 .36 1.77c.06.65.08 1.35.1 2.05v1c0 .34-.11.68-.16 1a17.33 17.33 0 0 1-.38 1.76 15 15 0 0 1-.53 1.66s-.12-.71-.18-1.74v-1.75c0-.31 0-.64.06-1s0-.66 0-1v-3.73c0-.52.08-1 .06-1.26a4.13 4.13 0 0 1 .06-.4ZM276.53 486v.53c0 .33.1.82.14 1.38s0 1.19.15 1.89.14 1.44.19 2.17a18.61 18.61 0 0 0 .18 2.17c.07.7.11 1.35.13 1.92a18.53 18.53 0 0 1 0 1.93 18.54 18.54 0 0 1-.66-1.8c-.17-.54-.35-1.19-.51-1.9a9.74 9.74 0 0 1-.33-2.22c0-.77-.06-1.54 0-2.26a9.54 9.54 0 0 1 .23-2 7.71 7.71 0 0 1 .48-1.81ZM282.08 486a11.66 11.66 0 0 1 .53 1.91 19.12 19.12 0 0 1 .32 2c.05.74.07 1.53.09 2.32v1.17a11.08 11.08 0 0 1-.11 1.14 24.54 24.54 0 0 1-.81 3.91s-.14-.8-.22-2 0-2.71-.07-4.25v-2.27c0-.73 0-1.4.07-2s.11-1.08.11-1.43a4.63 4.63 0 0 1 .09-.5ZM286.49 486a7.91 7.91 0 0 1 .64 1.81 10.8 10.8 0 0 1 .38 1.94c.06.71.09 1.48.11 2.25v1.15c0 .38-.11.74-.17 1.09a21.6 21.6 0 0 1-.4 1.93c-.29 1.11-.56 1.83-.56 1.83s-.1-.78-.15-1.91v-1.91c0-.35 0-.71.06-1.07s0-.73 0-1.1v-4.08c0-.57.07-1 0-1.38s.09-.55.09-.55ZM290.72 473.28v.61c0 .38.09.94.12 1.59v1c0 .33.05.76.09 1.16.1.8.15 1.66.21 2.52 0 .43 0 .86.07 1.28s.1.83.15 1.23c.09.8.15 1.56.18 2.22.06 1.31 0 2.21 0 2.21s-.33-.81-.71-2.08c-.19-.63-.37-1.38-.55-2.19a11.21 11.21 0 0 1-.38-2.57c0-.88-.07-1.77-.07-2.59a11.75 11.75 0 0 1 .24-2.27 10 10 0 0 1 .65-2.12ZM296.7 473a14.12 14.12 0 0 1 .56 2.21c.06.33.13.7.18 1.09a9.83 9.83 0 0 1 .15 1.22c.06.85.08 1.76.1 2.67v1.36c0 .45-.09.88-.12 1.31-.1.84-.22 1.64-.35 2.3-.25 1.34-.5 2.22-.5 2.22s-.14-.92-.21-2.27 0-3.13 0-4.92v-4.92c0-.68.11-1.24.1-1.64s.09-.63.09-.63ZM302.23 473.28a4.42 4.42 0 0 1 .23.57 14.38 14.38 0 0 1 .48 1.53 19.77 19.77 0 0 1 .39 2.23 20.78 20.78 0 0 1 .13 2.59 16.72 16.72 0 0 1-.18 2.59 14.4 14.4 0 0 1-.41 2.23c-.34 1.28-.65 2.11-.65 2.11s-.07-.89-.05-2.19v-2.22c0-.81.05-1.66 0-2.52v-4.73c0-1.3.06-2.19.06-2.19ZM271.89 476.17s.21 0 .59-.06.91-.13 1.53-.17 1.35-.09 2.13-.19 1.62-.12 2.45-.16 1.66-.1 2.45-.13 1.53 0 2.16 0c1.27 0 2.14.13 2.14.13s-.82.27-2.06.57c-.62.14-1.36.29-2.14.41a16.78 16.78 0 0 1-2.48.28h-2.5a13.55 13.55 0 0 1-2.18-.19 12.21 12.21 0 0 1-2.09-.49ZM272.25 480.47a5.48 5.48 0 0 1 .59-.13l1.55-.25c.65-.09 1.39-.18 2.19-.24s1.65-.15 2.49-.21 1.71-.07 2.51-.08 1.53-.08 2.18-.08c1.29 0 2.17.1 2.17.1s-.82.29-2.08.61c-.64.16-1.37.32-2.18.45s-1.66.17-2.52.24-1.73.09-2.54.06-1.57-.07-2.21-.14a17.41 17.41 0 0 1-2.15-.33ZM273.08 484.45l2.11-.15 2.13-.14c.78-.08 1.6-.06 2.43-.16s1.65-.09 2.43-.17 1.51-.06 2.12-.14c1.25-.09 2.13-.07 2.13-.07s-.78.36-2 .77a14.06 14.06 0 0 1-2.12.53c-.4.06-.8.17-1.22.2l-1.26.11a20.05 20.05 0 0 1-2.51 0 9.42 9.42 0 0 1-1.14-.1 4.2 4.2 0 0 1-1-.15 12.93 12.93 0 0 1-2.1-.53ZM310 462.48v.49c0 .31.05.75.05 1.26v3.73a16.13 16.13 0 0 0 0 2v1.75c-.07 1-.19 1.75-.19 1.75a16 16 0 0 1-.51-1.67c-.13-.51-.25-1.11-.35-1.76a8.13 8.13 0 0 1-.16-2c0-.7 0-1.4.11-2.06a9.11 9.11 0 0 1 .36-1.77 7.12 7.12 0 0 1 .69-1.72ZM315.06 462.84a9.5 9.5 0 0 1 .39 1.77 14.93 14.93 0 0 1 .16 1.84c0 .68 0 1.39-.06 2.11 0 .36-.06.72-.09 1.07a8.52 8.52 0 0 1-.19 1c-.14.66-.29 1.27-.45 1.79-.32 1-.6 1.7-.6 1.7a17.13 17.13 0 0 1-.11-1.81c0-1.08.15-2.46.19-3.87.06-.7.12-1.4.21-2.06s.12-1.27.21-1.79.19-1 .22-1.29.12-.46.12-.46ZM319.07 463.14a7.15 7.15 0 0 1 .49 1.68 9 9 0 0 1 .23 1.79v2.05c0 .35 0 .7-.08 1s-.16.67-.23 1c-.16.63-.33 1.22-.51 1.72a14.83 14.83 0 0 1-.65 1.62s-.06-.72 0-1.76c0-.51.05-1.1.12-1.74 0-.31.06-.64.12-1s0-.66 0-1c0-.67.09-1.34.18-2s.08-1.21.15-1.72.15-.95.15-1.25.03-.39.03-.39ZM310.56 485.45v1.92c0 .57-.05 1.2 0 1.9s0 1.44 0 2.18a18.88 18.88 0 0 0 0 2.18v1.92a17.98 17.98 0 0 1-.18 1.92 18.89 18.89 0 0 1-.53-1.84c-.13-.56-.26-1.22-.37-1.94a10.31 10.31 0 0 1-.17-2.24c0-.77.06-1.54.13-2.26a9.5 9.5 0 0 1 .37-1.94 7.72 7.72 0 0 1 .75-1.8ZM316.1 485.86a11.82 11.82 0 0 1 .39 1.94 19.15 19.15 0 0 1 .16 2c0 .74 0 1.53-.07 2.31 0 .39-.06.78-.09 1.17s-.14.76-.2 1.12c-.15.73-.32 1.4-.48 2-.33 1.14-.63 1.88-.63 1.88s-.08-.81-.08-2 .2-2.7.24-4.25c.06-.77.12-1.54.21-2.25s.13-1.39.22-2 .19-1.07.22-1.42.11-.5.11-.5ZM320.5 486.18a8 8 0 0 1 .5 1.82 11.46 11.46 0 0 1 .23 2c0 .72 0 1.49-.06 2.25 0 .39-.05.76-.08 1.15s-.17.73-.25 1.08c-.17.7-.35 1.34-.53 1.89a18.24 18.24 0 0 1-.69 1.78s-.05-.79 0-1.92c0-.56.07-1.22.15-1.91 0-.34.08-.7.14-1.06s0-.74 0-1.12c.06-.73.11-1.47.2-2.16s.07-1.33.15-1.9.14-1 .14-1.38.1-.52.1-.52ZM306.65 475.28h.59c.37 0 .91-.06 1.54-.06h4.59c.83 0 1.67 0 2.46.05s1.51.06 2.15.12c1.27.12 2.12.29 2.12.29s-.83.22-2.09.42c-.63.1-1.37.19-2.17.26a17.59 17.59 0 0 1-2.49.1c-.85 0-1.7-.08-2.5-.16a12.6 12.6 0 0 1-2.16-.36 11.71 11.71 0 0 1-2.04-.66ZM306.69 479.59l.61-.08 1.56-.14c.65 0 1.39-.08 2.2-.08h2.51c.86 0 1.71.05 2.51.1s1.54 0 2.18.08c1.29.11 2.17.26 2.17.26s-.84.23-2.13.46c-.65.11-1.4.21-2.21.29s-1.67 0-2.54 0-1.73 0-2.53-.12-1.56-.19-2.2-.3a17.44 17.44 0 0 1-2.13-.47ZM307.25 483.63h11.23c1.26 0 2.13.08 2.13.08s-.8.3-2 .62a13.71 13.71 0 0 1-2.16.37c-.4 0-.8.12-1.22.12h-1.27a22.44 22.44 0 0 1-2.5-.17c-.39 0-.78-.13-1.13-.18s-.7-.13-1-.22a12.48 12.48 0 0 1-2.08-.62ZM289.43 464.15l1.89-.22c.56-.05 1.19-.08 1.89-.16s1.42-.1 2.16-.13 1.48-.08 2.18-.08h1.92c1.13.06 1.9.18 1.9.18a18.28 18.28 0 0 1-1.83.53c-.55.13-1.2.26-1.91.37a15.11 15.11 0 0 1-2.2.22 19.83 19.83 0 0 1-4.16-.23 9.81 9.81 0 0 1-1.84-.48ZM289.72 468a5.18 5.18 0 0 1 .52-.11c.33 0 .81-.16 1.38-.24a55.7 55.7 0 0 1 4.15-.37h4.16c1.14 0 1.93.15 1.93.15s-.72.27-1.85.56c-.56.14-1.23.28-1.94.4s-1.48.14-2.24.19-1.54.06-2.25 0-1.39-.09-2-.16a14.42 14.42 0 0 1-1.86-.42ZM290.42 471.5s.19 0 .53-.06.8-.08 1.35-.12 1.2 0 1.88-.1 1.42-.12 2.14-.15a18.48 18.48 0 0 0 2.15-.11c.68-.06 1.33-.1 1.88-.11 1.12 0 1.9.06 1.9.06a17.84 17.84 0 0 1-1.77.65c-.55.17-1.19.33-1.89.49a8 8 0 0 1-1.07.2l-1.13.06h-2.22a6 6 0 0 1-1-.12c-.32 0-.63-.1-.91-.16a8.37 8.37 0 0 1-1.84-.53ZM289.93 488.67a5.5 5.5 0 0 1 .59 0c.38 0 .91-.07 1.54-.08s1.36 0 2.14-.06 1.63 0 2.46 0h2.45a26.8 26.8 0 0 1 4.28.35s-.83.23-2.08.45c-.63.11-1.37.21-2.17.29a17.81 17.81 0 0 1-2.49.13c-.85 0-1.7-.06-2.49-.13a13.29 13.29 0 0 1-2.17-.33 11.36 11.36 0 0 1-2.06-.62ZM290 493s.22 0 .6-.09l1.57-.16c.64-.06 1.39-.1 2.19-.12s1.66-.06 2.51-.06 1.71 0 2.51.06 1.54 0 2.18.05c1.29.08 2.17.23 2.17.23s-.83.24-2.12.48c-.63.12-1.39.24-2.2.32s-1.67.07-2.54.09-1.74 0-2.54-.09-1.56-.16-2.2-.27A16.79 16.79 0 0 1 290 493ZM290.64 497H304.01s-.79.31-2 .65a13.63 13.63 0 0 1-2.15.4c-.39 0-.81.13-1.22.13h-1.27a20.84 20.84 0 0 1-2.5-.13c-.4 0-.78-.11-1.14-.17a10 10 0 0 1-1-.2 12.32 12.32 0 0 1-2.09-.68ZM326 474.13v.62c0 .39.06.94.06 1.59v1a10.91 10.91 0 0 0 .05 1.16c.06.81.09 1.66.12 2.52a12.58 12.58 0 0 0 0 1.28c0 .42.07.84.11 1.24.06.81.09 1.56.1 2.22 0 1.31-.06 2.21-.06 2.21s-.31-.83-.64-2.11c-.16-.64-.33-1.4-.48-2.22a11.84 11.84 0 0 1-.28-2.57v-2.6a12.35 12.35 0 0 1 .32-2.27 9.84 9.84 0 0 1 .7-2.07ZM332 474.07a13.78 13.78 0 0 1 .48 2.22c0 .34.1.71.15 1.1a12.22 12.22 0 0 1 .1 1.22v2.67c0 .45 0 .9-.05 1.35a11.77 11.77 0 0 1-.17 1.3c-.14.84-.28 1.63-.43 2.29-.3 1.33-.59 2.2-.59 2.2s-.1-.93-.12-2.28.15-3.13.12-4.92c0-.89.07-1.78.14-2.62s.07-1.61.13-2.29.14-1.24.15-1.64.09-.6.09-.6ZM337.53 474.52a4.48 4.48 0 0 1 .22.58 15.63 15.63 0 0 1 .42 1.55 17.23 17.23 0 0 1 .31 2.25 18.35 18.35 0 0 1 0 2.6 16.81 16.81 0 0 1-.26 2.58 13.94 13.94 0 0 1-.48 2.21c-.39 1.27-.73 2.09-.73 2.09v-2.2c.05-.65.06-1.4.11-2.21s.11-1.66.12-2.52c.1-1.71.12-3.42.18-4.73l.11-2.2ZM325.06 465l1.89-.16c.56 0 1.19 0 1.89-.09s1.44 0 2.18-.05 1.48 0 2.17 0 1.35 0 1.91.07c1.13.1 1.89.25 1.89.25a18.55 18.55 0 0 1-1.84.47c-.55.11-1.21.21-1.91.3a15.45 15.45 0 0 1-2.21.15 20.21 20.21 0 0 1-4.14-.38 9.72 9.72 0 0 1-1.83-.56ZM325.21 468.78s.19 0 .53-.1.81-.13 1.39-.19c1.14-.13 2.65-.19 4.17-.23h4.16c1.14.08 1.93.22 1.93.22a19.25 19.25 0 0 1-1.87.5c-.56.12-1.24.24-1.95.33s-1.49.08-2.25.11-1.54 0-2.25-.06-1.38-.14-2-.23a15.51 15.51 0 0 1-1.86-.35ZM325.79 472.34h.53c.34 0 .81-.06 1.36-.08s1.19 0 1.88 0 1.42-.06 2.15-.08a18.36 18.36 0 0 0 2.15 0c.68 0 1.33-.05 1.89 0 1.12 0 1.9.12 1.9.12a18.28 18.28 0 0 1-1.79.58c-.55.15-1.2.3-1.91.43a6.11 6.11 0 0 1-1.08.16h-1.12c-.77 0-1.52 0-2.23-.08a6.55 6.55 0 0 1-1-.16c-.33-.05-.63-.13-.91-.19a8.45 8.45 0 0 1-1.82-.7ZM324.7 489.48h4.28c.79 0 1.62 0 2.46.06s1.67.05 2.45.11 1.52.09 2.15.16c1.26.15 2.12.33 2.12.33s-.84.2-2.1.38c-.64.09-1.38.16-2.18.21a17.68 17.68 0 0 1-2.49 0c-.85-.06-1.7-.12-2.49-.22a13 13 0 0 1-2.16-.4 11.42 11.42 0 0 1-2.04-.63ZM324.67 493.79s.22 0 .6-.07l1.57-.11h4.71c.85 0 1.7.09 2.5.15s1.54.06 2.18.13c1.28.13 2.15.3 2.15.3s-.84.22-2.13.41c-.65.1-1.41.19-2.22.25s-1.68 0-2.54 0-1.72-.07-2.53-.18-1.55-.22-2.19-.34a18.53 18.53 0 0 1-2.1-.54ZM325.13 497.84h2.12l2.13.06c.78 0 1.61.08 2.43.07s1.65.07 2.43.07 1.5.07 2.13.06c1.25 0 2.12.13 2.12.13s-.81.28-2.05.58a14 14 0 0 1-2.16.32c-.41 0-.82.09-1.24.08h-1.27a21.61 21.61 0 0 1-2.5-.21 11.34 11.34 0 0 1-1.14-.22c-.35-.08-.7-.14-1-.24a13.43 13.43 0 0 1-2-.7ZM354.4 465a6.61 6.61 0 0 1 .59 1.65 7.93 7.93 0 0 1 .32 1.78c.05.66.06 1.36.08 2.06a9.48 9.48 0 0 1-.21 2c-.12.65-.26 1.24-.39 1.76a17.29 17.29 0 0 1-.55 1.66s-.11-.72-.15-1.76v-1.75a18.34 18.34 0 0 0 .06-2c0-.67 0-1.35.08-2s0-1.21.07-1.73.1-1 .08-1.26.02-.41.02-.41ZM349.37 465.21s0 .18.09.49.13.77.19 1.29.11 1.14.17 1.8.12 1.36.16 2.05c0 1.41.15 2.8.1 3.88s-.14 1.8-.14 1.8-.27-.67-.57-1.71c-.14-.52-.29-1.14-.4-1.8a7.83 7.83 0 0 1-.16-1c0-.35 0-.71-.06-1.07v-2.11a15.4 15.4 0 0 1 .21-1.84 10.1 10.1 0 0 1 .41-1.78ZM345.36 465.41v.48c0 .3.09.75.12 1.26s0 1.09.11 1.72.11 1.3.14 2v1c0 .32.06.65.1 1a22.7 22.7 0 0 1 0 3.5 16.75 16.75 0 0 1-.62-1.63c-.16-.5-.32-1.1-.46-1.74-.06-.32-.15-.65-.21-1s0-.7-.06-1v-2.05a9.24 9.24 0 0 1 .26-1.79 7.22 7.22 0 0 1 .62-1.75ZM353.34 487.91a8 8 0 0 1 .62 1.82 10 10 0 0 1 .32 2c0 .72.06 1.49.07 2.26a10.12 10.12 0 0 1-.23 2.24c-.12.71-.27 1.36-.41 1.92a17.89 17.89 0 0 1-.57 1.83s-.09-.78-.13-1.92v-1.93a19.2 19.2 0 0 0 .07-2.18c0-.74 0-1.49.07-2.19s0-1.33.06-1.9.09-1 .06-1.38.07-.57.07-.57ZM347.8 488.19s0 .2.09.54.13.84.19 1.43l.17 2c.07.75.12 1.49.17 2.27 0 1.55.18 3.08.13 4.25s-.12 2-.12 2-.28-.74-.58-1.89c-.14-.57-.29-1.25-.42-2a11 11 0 0 1-.17-1.13c0-.39 0-.78-.07-1.18v-2.31a15.9 15.9 0 0 1 .21-2 10.92 10.92 0 0 1 .4-1.98ZM343.39 488.41v.53c0 .34.08.82.1 1.38s0 1.19.11 1.89.11 1.43.15 2.17v1.1c0 .36.08.72.12 1.07.06.69.1 1.34.11 1.91 0 1.13-.05 1.92-.05 1.92a17.44 17.44 0 0 1-.64-1.8c-.17-.55-.34-1.2-.49-1.9-.07-.35-.16-.72-.22-1.09s0-.76-.06-1.15v-2.25a11.42 11.42 0 0 1 .28-2 8.13 8.13 0 0 1 .59-1.78ZM357.5 477.83a11.72 11.72 0 0 1-2.06.57 13 13 0 0 1-2.17.31 49 49 0 0 1-2.5.11 17.84 17.84 0 0 1-2.49-.15 30.2 30.2 0 0 1-2.16-.31c-1.26-.23-2.08-.47-2.08-.47s.86-.14 2.13-.23c.64 0 1.37-.07 2.15-.07s1.63.06 2.46 0 1.67 0 2.45.05 1.51 0 2.14.08 1.17.1 1.54.09ZM357.35 482.14a16.73 16.73 0 0 1-2.13.44c-.65.1-1.39.18-2.2.25s-1.68.06-2.54.06-1.73 0-2.53-.11-1.56-.22-2.2-.34c-1.28-.26-2.12-.51-2.12-.51s.88-.13 2.17-.2H350.49c.85 0 1.71 0 2.51.08s1.55.07 2.19.13l1.57.18ZM356.71 486.16a13.82 13.82 0 0 1-2 .65c-.32.08-.66.13-1 .19s-.75.14-1.14.16a21.57 21.57 0 0 1-2.5.12l-1.27-.05c-.42 0-.83-.1-1.22-.14a13.67 13.67 0 0 1-2.15-.42c-1.24-.36-2-.67-2-.67s.87-.06 2.12 0h9.13Z"/><path class="cls-27" d="M330.37 379.88c-2.61 3-2.29 6.72-.37 9.94 22.38 3.15 33.5 21.6 27.91 66.13 0 0-.41 2.54 3.3 2.54a2.81 2.81 0 0 0 3.09-2.54c3.1-27.9 9.86-72.33-33.93-76.07Z"/><path d="M330.37 379.89c-2.61 3-2.29 6.72-.37 9.94a35.93 35.93 0 0 1 10.68 3.09 11.53 11.53 0 0 1 3.64-6.11 8.09 8.09 0 0 1 4.15-1.86c-4.76-2.66-10.72-4.43-18.1-5.06Z" style="opacity:.4;fill:#7d4c2a;mix-blend-mode:multiply"/><path d="M271.6 458.25c7.5 2.16 16 2.68 23 3.83 6.24 1 12.48 2 18.71 3.12 4.72.86 11.19 1.06 15.43 3.5 5.71 3.3 4.48 9.82 3.81 15.25-.9 7.25-1.16 14.2-2 21.4 5.74-.1 10.73-.29 14.13-.62 12.78-1.23 13.18-2.87 15.39-12.92 1.5-6.82 6.59-30.78 6.59-30.78-3.08-.24-72.05-2.03-95.06-2.78Z" style="opacity:.2;fill:#7d4c2a;mix-blend-mode:multiply"/><path d="M263.7 452.85s42.68 3.07 103.07 3.09c4.82 0 3.42 5.36-.14 5.08s-97.43-2.74-102.23-3-3.88-5.38-.7-5.17Z" style="fill:#b87245"/></g></g></svg>