<?xml version="1.0" encoding="utf-8"?>
<!-- Generator: Adobe Illustrator 24.0.2, SVG Export Plug-In . SVG Version: 6.00 Build 0)  -->
<svg version="1.1" id="Warstwa_2" xmlns="http://www.w3.org/2000/svg" xmlns:xlink="http://www.w3.org/1999/xlink" x="0px" y="0px"
	 viewBox="0 0 1769.2081299 1612.9281006" style="enable-background:new 0 0 1769.2081299 1612.9281006;" xml:space="preserve">
<style type="text/css">
	.st0{fill:#7D4E3D;stroke:#000000;stroke-width:5;stroke-linejoin:round;stroke-miterlimit:10;}
	.st1{fill:#F3F5F4;stroke:#000000;stroke-width:5;stroke-miterlimit:10;}
	.st2{fill:#BF855C;stroke:#000000;stroke-width:5;stroke-miterlimit:10;}
	.st3{fill:#D2694B;stroke:#000000;stroke-width:5;stroke-miterlimit:10;}
	.st4{fill:none;stroke:#000000;stroke-width:5;stroke-miterlimit:10;}
</style>
<g>
	<g>
		<polygon class="st0" points="1027.8153076,60.1496735 1556.4388428,73.5892563 1563.1586914,938.2024536 
			1027.8153076,745.5684204 		"/>
		<polygon class="st1" points="1078.2137451,116.147934 1513.880127,136.307312 1513.880127,841.885437 1078.2137451,690.6901245 		
			"/>
		<polygon class="st0" points="1556.4388428,73.5892563 1581.8911133,85.4617004 1581.8911133,923.4188843 
			1563.1586914,938.2024536 		"/>
	</g>
	<g>
		<path class="st2" d="M1030.0533447,406.5371399c1.6625977-2.2954712,210.4836426,101.051178,210.4836426,101.051178v65.9486694
			L970.6462402,437.7603149L1030.0533447,406.5371399z"/>
		<path class="st2" d="M1296.046875,659.8458862V335.6216431c0-8.0323181-6.5113525-14.5437927-14.5437012-14.5437927h-253.6878662
			l-12.7605591,88.6218262l206.5307007,7.7038574c7.7344971,0.1200562,13.9415283,6.4241943,13.9415283,14.1595459v226.0128479
			c0,12.1459351,8.4737549,22.8071899,20.3955078,25.1296387c4.1962891,0.8174438,9.1871338,1.1147461,15.0996094,0.5604248
			C1295.519043,680.9692993,1296.046875,659.8458862,1296.046875,659.8458862z"/>
	</g>
	<g>
		<circle class="st3" cx="541.1262207" cy="1236.1641846" r="269.4501648"/>
		<path class="st4" d="M806.7209473,1281.8104248c-37.2142944,15.510498-129.4075928-15.510498-214.1427002-25.4793701
			c-84.7350464-9.96875-130.3068237,37.7391357-130.3068237,37.7391357
			c-65.4915466,52.4108887-30.6564026,188.3544922-30.6564026,188.3544922"/>
		<path class="st4" d="M296.1061401,1348.4189453c0,0,64.3587036-123.0810547,190.8099365-187.2794189
			c126.4512329-64.1982422,286.0777588-62.3148193,286.0777588-62.3148193"/>
		<path class="st4" d="M277.2368774,1181.4505615c0,0,37.1357422,16.4279785,89.616272-6.0628662
			c24.6899109-10.5809326,46.2537842-27.3193359,63.1446533-48.2059326l76.3722839-94.4388428
			c0,0,32.3037415-42.1381836,75.973053-62.8952637"/>
		<path class="st4" d="M379.2888794,1020.7138062c0,0,2.6752319,114.4856567,63.0180054,215.4503784
			c60.3427429,100.9645996,95.2397461,128.5914307,95.2397461,128.5914307s80.8023071,80.8577881,149.0908203,98.2270508"/>
	</g>
	<g>
		<path class="st2" d="M577.4718628,225.118927c-264.1246643,0-478.2400208,61.3497925-478.2400208,137.0285645
			s214.1153564,137.0285645,478.2400208,137.0285645s478.2400513-61.3497925,478.2400513-137.0285645
			S841.5964966,225.118927,577.4718628,225.118927z M580.0578003,453.6807556
			c-237.513092,0-430.0555725-42.6200562-430.0555725-95.194519c0-52.5745239,192.5424805-95.1945801,430.0555725-95.1945801
			s430.055542,42.6200562,430.055542,95.1945801C1010.1133423,411.0606995,817.5708618,453.6807556,580.0578003,453.6807556z"/>
		<g>
			<line class="st4" x1="569.8621216" y1="263.2916565" x2="779.9057007" y2="442.7991333"/>
			<line class="st4" x1="794.5545654" y1="275.9595947" x2="932.4590454" y2="413.0636597"/>
			<line class="st4" x1="418.2408447" y1="270.2609558" x2="605.2785034" y2="453.6807861"/>
			<line class="st4" x1="233.5094299" y1="302.1077881" x2="375.6878662" y2="442.2656555"/>
			<line class="st4" x1="227.1420135" y1="412.8995667" x2="462.1122437" y2="266.9179077"/>
			<line class="st4" x1="642.916748" y1="264.3013" x2="412.4388123" y2="446.6065369"/>
			<line class="st4" x1="890.223938" y1="292.5455322" x2="595.0096436" y2="453.6807861"/>
		</g>
		<g>
			<path class="st4" d="M1035.6962891,409.7972107c0,0-80.5288696,108.2975159-141.619751,313.0908508
				c0,0-79.8499756,259.2575684-86.2900391,466.0059814h-0.000061c-8.9061279-0.2023926-17.4118042-3.6218262-24.0541382-9.5581055
				c-4.8988647-4.3781738-11.6151733-9.1560059-19.4369507-11.4859619
				c-12.3981323-3.6929932-19.6378174-21.2738037-22.465332-29.7631836
				c-1.7069092-5.1248779-4.6332397-9.8060303-8.7479248-13.305542
				c-11.9130859-10.1320801-26.0319824-5.9793701-36.9434814,0.4522705
				c-9.9689941,5.8759766-18.1274414,14.3829346-23.9179077,24.4018555
				c-5.4671021,9.4594727-13.1729126,23.8323975-17.0040283,35.7513428
				c-6.3132324,19.6412354-34.0213013,23.4992676-34.0213013,23.4992676s-28.0588379,2.8059082-38.2301025-17.5367432
				c-10.1713257-20.3426514-21.7456055-19.9919434-21.7456055-19.9919434
				c-1.9865723,0.2591553-3.7764282,0.4384766-5.3878174,0.553833c-5.796936,0.4147949-11.3283691-1.7816162-15.7862549-5.510498
				c-1.130249-0.9454346-2.9387817-1.6196289-5.8325195-1.3565674c-7.7161865,0.7015381-15.7830811,8.0668945-15.7830811,8.0668945
				s-35.4242859,27.0067139-61.3786621,69.4455566c-16.2215271,26.5244141-31.4839783,17.0162354-40.6496582,6.1550293
				c-4.9713745-5.8909912-8.5836792-12.8052979-10.8534546-20.171875l-28.5336304-92.6044922
				c-4.0813904-13.2459717-6.5721741-26.9060059-7.8964233-40.703125
				c-0.9771118-10.1802979-4.7836914-20.9143066-17.287384-15.065918
				c-15.6296387,7.3106689-18.6228638-0.675415-19.0702209-5.7458496c-0.37323-4.2303467-0.8052063-8.4477539-1.5325623-12.6317139
				c-5.9516602-34.2355957-28.3968811-161.1757813-60.4275208-316.1347656
				c-37.6064148-181.9338379-149.2530518-342.0202942-149.2530518-342.0202942"/>
			<g>
				<line class="st4" x1="193.282135" y1="528.5594482" x2="238.6660156" y2="458.8569641"/>
				<path class="st4" d="M371.3678589,485.8322754c-36.8174744,26.9282837-135.3370972,141.2238159-135.3370972,141.2238159"/>
				<path class="st4" d="M596.774231,499.1760559c0,0-87.421814,52.6981506-152.783905,98.4516296
					S275.3484192,767.77948,275.3484192,767.77948"/>
				<path class="st4" d="M312.1224976,956.1088257c0,0,141.4078064-152.0112915,222.293396-203.4839478
					c0,0,197.7202759-136.8518677,267.9844971-165.0392456s168.5168457-64.6164551,168.5168457-64.6164551"/>
				<path class="st4" d="M362.2516174,1079.5200195c0,0,155.4151917-138.1621094,259.1775208-191.6773071l259.1410522-117.8331299"
					/>
				<path class="st4" d="M407.5584106,1234.1040039c0,0,131.9515991-140.1949463,233.9406128-215.4047852
					c101.9890137-75.2097168,206.6512451-117.161499,206.6512451-117.161499"/>
				<line class="st4" x1="723.9863892" y1="1119.7314453" x2="822.3010254" y2="1039.8085938"/>
				<line class="st4" x1="880.2205811" y1="468.228363" x2="944.5256348" y2="581.4650269"/>
				<line class="st4" x1="723.7706299" y1="492.644928" x2="896.7080688" y2="714.1658325"/>
				<path class="st4" d="M532.5831909,499.1760559l107.2356567,137.9909363c0,0,153.6998901,214.9534912,201.7480469,295.3340454"/>
				<path class="st4" d="M294.9356384,472.7164001c0,0,134.3243713,160.6984558,176.6200256,236.1799622
					s149.8552246,247.2124634,149.8552246,247.2124634s77.0056763,128.0761108,87.5339966,163.6226196"/>
				<path class="st4" d="M518.4299927,1173.1109619c0,0-51.5218201-128.3413086-87.1009521-194.5060425
					S260.647583,703.2180176,260.647583,703.2180176"/>
			</g>
		</g>
	</g>
</g>
</svg>
