<?xml version="1.0" encoding="UTF-8"?>
<svg viewBox="0 0 340.25357 619.74603" xmlns="http://www.w3.org/2000/svg" xmlns:xlink="http://www.w3.org/1999/xlink">
 <defs>
  <filter id="l">
   <feGaussianBlur stdDeviation=".90962"/>
  </filter>
  <linearGradient id="b">
   <stop stop-color="#d40000" offset="0"/>
   <stop stop-color="#d40000" stop-opacity="0" offset="1"/>
  </linearGradient>
  <linearGradient id="a">
   <stop stop-color="#f00" offset="0"/>
   <stop stop-color="#f00" stop-opacity="0" offset="1"/>
  </linearGradient>
  <radialGradient id="d" cx="-11605" cy="91.71" r="7.4303" gradientTransform="matrix(4.9261 -3.3441 3.3462 4.9291 57303 -39150)" gradientUnits="userSpaceOnUse">
   <stop stop-color="#a00" offset="0"/>
   <stop stop-color="#a00" stop-opacity="0" offset="1"/>
  </radialGradient>
  <radialGradient id="h" cx="-11604" cy="193.37" r="17.875" gradientTransform="matrix(-.2094 10.24 -8.4668 -.17313 -341.56 1.192e5)" gradientUnits="userSpaceOnUse">
   <stop stop-color="#ff2a2a" offset="0"/>
   <stop stop-color="#ff2a2a" stop-opacity="0" offset="1"/>
  </radialGradient>
  <radialGradient id="i" cx="-11588" cy="91.474" r="16.706" gradientTransform="matrix(-5.8948 -.25629 .15588 -3.5852 -67831 -2537.9)" gradientUnits="userSpaceOnUse">
   <stop stop-color="#d72620" offset="0"/>
   <stop stop-color="#d72620" stop-opacity="0" offset="1"/>
  </radialGradient>
  <radialGradient id="j" cx="-11572" cy="219.32" r="14.725" gradientTransform="matrix(-2.2633 -22.377 9.1686 -.92732 -27671 -2.5825e5)" gradientUnits="userSpaceOnUse">
   <stop stop-color="#f00" offset="0"/>
   <stop stop-color="#d45b6e" offset="1"/>
  </radialGradient>
  <radialGradient id="k" cx="-11567" cy="61.917" r="27.154" gradientTransform="matrix(-3.4642 .27734 -.12212 -1.6976 -39563 3367.8)" gradientUnits="userSpaceOnUse">
   <stop stop-color="#f2f2f2" offset="0"/>
   <stop stop-color="#f2f2f2" stop-opacity="0" offset="1"/>
  </radialGradient>
  <radialGradient id="c" cx="-11572" cy="87.496" r="3.58" gradientTransform="matrix(-8.3771 -.00034139 .00045107 -11.063 -96428 1063.9)" gradientUnits="userSpaceOnUse" xlink:href="#b"/>
  <radialGradient id="e" cx="-11563" cy="160.43" r="22.842" gradientTransform="matrix(4.1614 6.3131 -3.3991 2.2406 49214 72891)" gradientUnits="userSpaceOnUse" xlink:href="#a"/>
  <radialGradient id="f" cx="-11559" cy="177.26" r="22.767" gradientTransform="matrix(2.5381 .66165 -1.2275 4.7089 30116 7121.9)" gradientUnits="userSpaceOnUse" xlink:href="#b"/>
  <radialGradient id="g" cx="-11613" cy="178.4" r="23.08" gradientTransform="matrix(-3.9064 7.4836 -2.5517 -1.332 -44478 87445)" gradientUnits="userSpaceOnUse" xlink:href="#a"/>
 </defs>
 <g transform="translate(-317.77 4.6537)">
  <path d="m431.02 88.087c-6.1534-0.07036-19.893-44.074-14.757-45.884 17.213-6.0651 39.268-17.361 39.882-16.415 0.51172-1.3381 4.081-32.623 4.8165-30.321 0.57568 1.7418 31.848 0 31.848 0 1.4392 10.241 2.4179 20.978 6.7163 28.095 25.554 11.672 41.647 9.8736 40.144 16.28 0.73559 14.588-6.0191 27.243-10.938 40.369l-49.022 0.75606-48.69 7.1122z" fill="#1a1a1a"/>
  <path d="m431.02 88.087c-6.1534-0.07036-19.893-44.074-14.757-45.884 17.213-6.0651 39.268-17.361 39.882-16.415 0.51172-1.3381 4.081-32.623 4.8165-30.321 0.57568 1.7418 31.848 0 31.848 0 1.4392 10.241 2.4179 20.978 6.7163 28.095 25.554 11.672 41.647 9.8736 40.144 16.28 0.73559 14.588-6.0191 27.243-10.938 40.369l-49.022 0.75606-48.69 7.1122z" fill="url(#k)" opacity=".11304"/>
  <path transform="matrix(2.3979 0 0 1.3067 28277 216.16)" d="m-11520 271-2.828 2.8284c2.523 9.1243-5.041 6.5683-8.132 9.1924 3.606 14.76-9.558 9.7401-18.031 10.253-5.447 2.0252-5.253 3.5805-7.071 5.3033-0.42-3.9757-2.172-4.9553-3.89-6.0104-10.971-1.7619-14.87 10.968-21.92 3.5355 0.05 4.6343-3.554 2.9459-7.071 1.4142-1.979 4.3484-7.212 3.5845-11.314 4.5962-6.636 2.0347-13.557 1.0729-20.859-3.8891-9.32-1.2817-19.112 3.5669-27.577-8.8388-7.673-1.9934-6.729-4.6497-8.839-7.0711l13.788-60.458c6.097-22.326 10.004-43.338 21.567-68.943-1.298 1.0097 6.024-12.924 7.248-14.938 2.305-3.7904 2.3-18.415 6.275-23.6 0.508-5.0073-0.574-10.333-1.149-15.556-4.001-4.714-3.31-9.5165-4.773-14.231 5.836-9.1466 13.81-8.9537 23.158-5.922 7.526-0.06135 18.085-5.0515 20.506 3.182-2.891 20.241-4.465 17.45-6.176 28.843 2.089 2.2517 0.23 4.7621 1.659 6.1938 4.632 4.643 9.345 14.348 10.696 24.567 3.041 2.9391 2.941 6.6283 4.428 9.6924 11.134 20.748 18.58 41.865 26.516 62.933 5.626 19.283 11.402 38.611 13.789 56.922z" fill="#1a1a1a" filter="url(#l)" opacity=".43913"/>
  <path d="m654.45 528.7-6.8442 6.8506c6.1086 22.099-12.211 15.909-19.701 22.264 8.7376 35.75-23.149 23.591-43.669 24.833-13.196 4.9054-12.723 8.6717-17.13 12.845-1.017-9.6292-5.2579-12.002-9.4156-14.557-26.577-4.2677-36.018 26.564-53.097 8.5629 0.12793 11.225-8.6032 7.1346-17.123 3.4253-4.7974 10.532-17.469 8.6819-27.402 11.132-16.074 4.9285-32.839 2.5989-50.519-9.4194-22.573-3.1042-46.291 8.6391-66.792-21.408-18.582-4.828-16.298-11.262-21.409-17.126l33.396-146.43c14.763-54.074 24.23-104.96 52.233-166.98-3.1407 2.446 14.59-31.301 17.552-36.179 5.5841-9.1796 5.5777-44.6 15.204-57.158 1.2281-12.128-1.3944-25.026-2.7888-37.678-9.6842-11.417-8.0148-23.048-11.552-34.466 14.13-22.154 33.441-21.686 56.084-14.343 18.224-0.14712 43.803-12.235 49.662 7.7071-6.9977 49.022-10.81 42.263-14.955 69.858 5.0596 5.4536 0.57568 11.533 4.017 15.002 11.219 11.245 22.637 34.75 25.906 59.502 7.3687 7.1186 7.1256 16.053 10.727 23.475 26.961 50.251 44.999 101.4 64.22 152.42 13.631 46.703 27.62 93.516 33.396 137.87z" fill="#a00"/>
  <path d="m567.96 594.21c-17.328-36.558-40.016 16.094-64.649-3.8532-6.9402-135.17-8.1299-260.62-5.1364-385.34 30.076 114.79 67.758 212.91 69.785 389.19z" fill="url(#j)" opacity=".39565"/>
  <path d="m460.5 155.77c9.9913 5.8508 19.285 10.548 32.539 21.836h8.9934c3.3454-5.8515 7.2984-11.703 16.273-17.554-8.7312-35.52-3.2238-18.531 2.565-98.903-10.452-3.0639-22.394-3.1547-38.532 5.1376-9.0894-5.5867-14.744-14.207-42.389-3.4253 9.5051 26.053 18.863 52.347 20.552 92.91z" fill="url(#i)"/>
  <path d="m493.68 177.29c1.5096 8.229 3.0063 16.456 2.565 24.405l9.2045 0.74967c-1.9381-7.9271-3.0447-16.483-3.8507-25.262l-7.9188 0.10874z" fill="#f00" opacity=".62609" stroke="#800000" stroke-width="2.422"/>
  <path d="m490.73 212.9c-29.718 81.515-59.973 155.23-86.589 281.56 15.102-40.789 30.21-87.933 45.313-113.8-7.9892 86.171-3.8059 110.94 3.7291 134.99 0.87632-130.55 19.362-216.25 37.547-302.75z" fill="url(#h)" opacity=".22609"/>
  <path d="m489.51 205.8c-52.061 69.402-49.707 40.357-111.8 153.55 26.277-34.66 1.7206 15.423 23.673-4.956-32.622 80.155-10.976 79.644-10.733 104.85 38.679-124.69 56.391-175.93 98.857-253.44z" fill="url(#g)" opacity=".24783"/>
  <path d="m508.28 212.9c41.609 62.257 74.992 96.359 110.29 199.37-18.486-27.844-31.771-64.13-46.828-80.684 24.633 63.606 27.805 83.185 28.803 102.89-30.556-98.607-75.338-190.64-92.263-221.58z" fill="url(#f)" opacity=".18696"/>
  <path d="m508.28 212.9c61.579 68.361 15.409-6.415 76.962 89.753 17.533 36.837 27.127 75.786 33.684 96.226-40.534-128.6-87.529-159.35-110.65-185.98z" fill="url(#e)" opacity=".18696"/>
  <path d="m509.79 208.06c19.541 16.828 47.532 33.908 47.532 33.908-3.9018-20.771-25.49-23.775-47.532-33.908z" fill="#a00" opacity=".62609"/>
  <path d="m496.48 195.49c-24.53 9.2602-73.265 16.954-73.265 16.954 36.812-11.689 60.299-14.996 73.265-16.954z" fill="#f00" opacity=".62609"/>
  <path d="m496.16 197.99c-37.406 12.815-74.762 31.933-74.762 31.933 23.277-17.05 59.378-28.063 74.762-31.933z" fill="#f00" opacity=".62609"/>
  <path d="m497.6 192.46c-39.153 5.531-79.444 17.261-79.444 17.261 26.078-12.353 63.613-16.36 79.444-17.261z" fill="#f00" opacity=".62609"/>
  <path d="m494.05 191.76c-39.517 1.3158-62.666 7.7647-62.666 7.7647 27.249-9.4955 46.822-8.561 62.666-7.7647z" fill="#f00" opacity=".62609"/>
  <path d="m495.87 189.19c-39.517 1.3151-60.242 0.80083-60.242 0.80083 27.55-6.7713 44.398-1.5985 60.242-0.80083z" fill="#f00" opacity=".62609"/>
  <path d="m493.54 189.6c-38.731-9.461-55.265-18.35-55.265-18.35 27.582 5.6391 40.688 12.103 55.265 18.35z" fill="#f00" opacity=".62609"/>
  <path d="m504.03 184.16c39.517-5.3276 28.432-7.8318 28.432-7.8318-27.741 4.8178-12.582 8.3276-28.432 7.8318z" fill="#f00" opacity=".62609"/>
  <path d="m533.3 184.72c-14.75 2.6756-33.204 2.3641-32.532 2.8298 28.004-2.897 16.452-5.0199 32.532-2.8298z" fill="#f00" opacity=".62609"/>
  <path d="m504.39 189.24c14.974-0.76309 33.23 1.91 32.628 1.3618-28.144-0.71448-16.957 2.8714-32.628-1.3618z" fill="#f00" opacity=".62609"/>
  <path d="m505.91 198.27c15.524-1.2786 34.464 3.1989 33.837 2.281-29.187-1.1968-17.584 4.8095-33.837-2.281z" fill="#f00" opacity=".62609"/>
  <path d="m504.84 193.33c14.974-0.7631 33.236 1.91 32.628 1.3618-28.144-0.71449-16.957 2.8714-32.628-1.3618z" fill="#f00" opacity=".62609"/>
  <path d="m493.68 177.29c1.5096 8.229 3.0063 16.456 2.565 24.405l9.2045 0.74967c-1.9381-7.9271-3.0447-16.483-3.8507-25.262l-7.9188 0.10874z" fill="#f00" opacity=".62609"/>
  <path d="m425.7 76.78c5.2579-9.4783 9.6523-12.158 14.341-13.701 12.844 33.503 19.4 64.685 21.403 94.194l-21.403-7.4928c1.9126-1.1488-1.9125-37.282-3.4285-38.32-5.8592-4.0195-12.518-34.721-10.912-34.68z" fill="url(#d)"/>
  <path d="m516.04 139.29c4.5287-25.876 11.367-33.201 15.198-69.361-7.3751-12.437-7.567-8.0941-10.273-9.6337-2.5842 25.047-5.0532 50.767-7.0681 79.209l2.1428-0.21748v6.4e-4z" fill="url(#c)"/>
 </g>
</svg>
