<svg xmlns="http://www.w3.org/2000/svg" xmlns:xlink="http://www.w3.org/1999/xlink" width="210mm" height="297mm" viewBox="0 0 210 297"><defs><radialGradient xlink:href="#c" id="g" cx="78.4" cy="106.9" fx="78.4" fy="106.9" r="10.8" gradientTransform="matrix(1 0 0 .98633 -261 -75)" gradientUnits="userSpaceOnUse"/><radialGradient xlink:href="#c" id="h" cx="78.4" cy="106.9" fx="78.4" fy="106.9" r="10.8" gradientTransform="matrix(1 0 0 .98633 -231 -80)" gradientUnits="userSpaceOnUse"/><radialGradient xlink:href="#d" id="i" cx="14.4" cy="90.8" fx="14.4" fy="90.8" r="9" gradientTransform="matrix(-1.39237 1.01859 -.88378 -1.2081 74 133)" gradientUnits="userSpaceOnUse"/><radialGradient xlink:href="#d" id="j" cx="14.4" cy="90.8" fx="14.4" fy="90.8" r="9" gradientTransform="matrix(1.39237 1.01859 .88378 -1.2081 -99 131)" gradientUnits="userSpaceOnUse"/><linearGradient id="d"><stop style="stop-color:#ffb380;stop-opacity:1" offset="0"/><stop style="stop-color:#fca;stop-opacity:0" offset="1"/></linearGradient><linearGradient id="c"><stop offset="0" style="stop-color:#afc;stop-opacity:.27702703"/><stop offset="1" style="stop-color:#333;stop-opacity:0"/></linearGradient><linearGradient id="b"><stop style="stop-color:#ffb380;stop-opacity:1" offset="0"/><stop style="stop-color:#e6e6e6;stop-opacity:0" offset="1"/></linearGradient><linearGradient xlink:href="#b" id="f" x1="104.4" y1="111.7" x2="123.5" y2="107.2" gradientUnits="userSpaceOnUse" gradientTransform="matrix(.96156 0 0 .92596 -254 -68)"/><pattern xlink:href="#a" id="k" patternTransform="matrix(9.30924 0 0 9.30924 -126 6)"/><pattern id="a" patternTransform="scale(10)" height="10" width="10" patternUnits="userSpaceOnUse"><circle r=".5" cy=".8" cx="2.6" style="fill:#fff;stroke:none"/><circle r=".5" cy="2.3" cx="3" style="fill:#fff;stroke:none"/><circle r=".5" cy="2.4" cx="4.4" style="fill:#fff;stroke:none"/><circle r=".5" cy="3" cx="1.8" style="fill:#fff;stroke:none"/><circle r=".5" cy="1.4" cx="6.1" style="fill:#fff;stroke:none"/><circle r=".5" cy="4.4" cx="5.8" style="fill:#fff;stroke:none"/><circle r=".5" cy="4" cx="4.3" style="fill:#fff;stroke:none"/><circle r=".5" cy="3" cx="5.5" style="fill:#fff;stroke:none"/><circle r=".5" cy="5.5" cx="4.8" style="fill:#fff;stroke:none"/><circle r=".5" cy="5.2" cx="2.7" style="fill:#fff;stroke:none"/><circle r=".5" cy="1.4" cx="8" style="fill:#fff;stroke:none"/><circle r=".5" cy="5" cx="7" style="fill:#fff;stroke:none"/><circle r=".5" cy=".9" cx="4.3" style="fill:#fff;stroke:none"/><circle r=".5" cy=".3" cx="7.1" style="fill:#fff;stroke:none"/><circle r=".5" cy="1" cx="9.6" style="fill:#fff;stroke:none"/><circle r=".5" cy="2.7" cx="7" style="fill:#fff;stroke:none"/><circle r=".5" cy="2.7" cx="8.9" style="fill:#fff;stroke:none"/><circle r=".5" cy="4.4" cx="9.3" style="fill:#fff;stroke:none"/><circle r=".5" cy="3.9" cx="7.8" style="fill:#fff;stroke:none"/><circle r=".5" cy="5.9" cx="8.3" style="fill:#fff;stroke:none"/><circle r=".5" cy="7.4" cx="8" style="fill:#fff;stroke:none"/><circle r=".5" cy="8.1" cx="9.3" style="fill:#fff;stroke:none"/><circle r=".5" cy="9.3" cx="8.2" style="fill:#fff;stroke:none"/><circle r=".5" cy="9.5" cx="9.7" style="fill:#fff;stroke:none"/><circle r=".5" cy="6.2" cx="9.7" style="fill:#fff;stroke:none"/><circle r=".5" cy="6.3" cx="3.4" style="fill:#fff;stroke:none"/><circle r=".5" cy="8.2" cx="2.9" style="fill:#fff;stroke:none"/><circle r=".5" cy="8.7" cx="4.6" style="fill:#fff;stroke:none"/><circle r=".5" cy="9.7" cx="3.2" style="fill:#fff;stroke:none"/><circle r=".5" cy="7.3" cx="5.7" style="fill:#fff;stroke:none"/><circle r=".5" cy="6.5" cx="6.7" style="fill:#fff;stroke:none"/><circle r=".5" cy="9.7" cx="5.7" style="fill:#fff;stroke:none"/><circle r=".5" cy="8.4" cx="6.5" style="fill:#fff;stroke:none"/><circle r=".5" cy="7.2" cx="4.4" style="fill:#fff;stroke:none"/><circle r=".5" cy="7.3" cx=".6" style="fill:#fff;stroke:none"/><circle r=".5" cy="5.7" cx=".8" style="fill:#fff;stroke:none"/><circle r=".5" cy="8.5" cx="1.3" style="fill:#fff;stroke:none"/><circle r=".5" cy="6.9" cx="2" style="fill:#fff;stroke:none"/><circle r=".5" cy="3.2" cx=".4" style="fill:#fff;stroke:none"/><circle r=".5" cy="1.7" cx="1.2" style="fill:#fff;stroke:none"/><circle r=".5" cy=".1" cx="1.2" style="fill:#fff;stroke:none"/><circle r=".5" cy="10.1" cx="1.2" style="fill:#fff;stroke:none"/><circle r=".5" cy="4.5" cx="1.3" style="fill:#fff;stroke:none"/><circle r=".5" cy="3.8" cx="3" style="fill:#fff;stroke:none"/></pattern><filter style="color-interpolation-filters:sRGB" id="e" x="0" width="1" y="0" height="1.1"><feGaussianBlur stdDeviation="3.5"/></filter></defs><g transform="matrix(.7391 0 -.16913 .13346 200 227)" style="opacity:.22600002;fill:#000;stroke:#000;filter:url(#e)"><g style="fill:#000;stroke:#000"><g transform="translate(106 -21)" style="fill:#000;stroke:#000"><path d="m-186 61-24 16c-10 7-50 5-52 9-3 4-1 17 2 19 3 3 49-3 56-6s21-5 25-10c5-4 0-21-2-25-2-3-5-3-5-3z" style="fill:#000;fill-opacity:1;stroke:#000;stroke-width:.76499999;stroke-linecap:butt;stroke-linejoin:miter;stroke-miterlimit:4;stroke-dasharray:none;stroke-opacity:1"/><path d="M-185 129s5 18 6 44c2 25 11 42 11 42l21-2 3-32 7-16s-1 1 5 16c6 14 6 28 6 28s27 2 30 0c3-1 3-51 0-63l-4-23z" style="fill:#000;stroke:#000;stroke-width:.98606288;stroke-linecap:butt;stroke-linejoin:miter;stroke-miterlimit:4;stroke-dasharray:none;stroke-opacity:1"/><path d="M-186 132c0-2-7-65-1-77s43-24 52-24 20 8 25 21 15 84 14 87c-2 3-35 11-60 12s-32-8-32-8z" style="fill:#000;stroke:#000;stroke-width:1.06500006;stroke-linecap:butt;stroke-linejoin:miter;stroke-miterlimit:4;stroke-dasharray:none;stroke-opacity:1"/><path d="M-128 18s1 27-6 37c-8 10-27 18-38 15-11-2-10-19-9-28 1-8-12 9-9 19 2 10 4 19 14 22 9 3 27-3 37-9 9-6 18-12 20-21s1-23 1-25-3-9-6-11c-4-1-4 1-4 1z" style="fill:#000;stroke:#000;stroke-width:.6879167;stroke-linecap:butt;stroke-linejoin:miter;stroke-miterlimit:4;stroke-dasharray:none;stroke-opacity:1"/><path d="M-180 50s-9-2-8-10c0-8 2-8 1-10-1-3-6-5-6-8s5-14 13-19c7-4 22-7 34-5s15 8 17 17c1 8 2 8 0 19-2 10-5 16-9 22-5 6-14 13-23 13-9 1-16-2-16-3v-8c0-3-3-8-3-8z" style="fill:#000;stroke:#000;stroke-width:.96499997;stroke-linecap:butt;stroke-linejoin:miter;stroke-miterlimit:4;stroke-dasharray:none;stroke-opacity:1"/><path d="M-153 28c-1 2-3 3-3 6l2 4 9 6c2 1 4 0 5-1l3-7" style="fill:#000;fill-opacity:1;stroke:#000;stroke-width:.24965884px;stroke-linecap:butt;stroke-linejoin:miter;stroke-opacity:1"/><path d="m-168-13-7 1c-8 2-12 6-17 7-5 2-10-2-10-2s1 9 6 11c4 2 11 0 11 0l-7 4c-3 0-11-5-11-5 0 1 4 10 13 10s32-7 34-10l5-5s2 7 11 12c8 4 6 3 5 5l-3 8c-1 4 3 12 3 13l1-6 2-8c1-1 1 0 2 3 1 2 0 2 2 0 1-1 4-4 4-9 1-5-1-14-8-19a26 26 0 0 0-19-3l-2-2c-4-3-9-5-15-5z" style="fill:#000;fill-opacity:1;stroke:#000;stroke-width:.565;stroke-linecap:butt;stroke-linejoin:miter;stroke-miterlimit:4;stroke-dasharray:none;stroke-opacity:1"/><path d="m-176 22-12 3c-4 2-6-1-5-2 1-2 14-8 16-6 2 1 1 5 1 5zM-165 14c0 1-3 5 0 6 4 0 16-2 16-4s0-5-2-5l-14 3z" style="fill:#000;fill-opacity:1;stroke:#000;stroke-width:1.06500006;stroke-linecap:butt;stroke-linejoin:miter;stroke-miterlimit:4;stroke-dasharray:none;stroke-opacity:1"/><path d="m-178 24-7 2c-2 1-1 4 0 5l9-3c1-1 0-3-1-3l-1-1z" style="fill:#000;stroke:#000;stroke-width:.49599999;stroke-linecap:butt;stroke-linejoin:miter;stroke-miterlimit:4;stroke-dasharray:none;stroke-opacity:1"/><ellipse ry="2.2" rx="2.1" cy="27" cx="-179.3" style="opacity:1;fill:#000;fill-opacity:1;stroke:#000;stroke-width:1.06500006;stroke-linecap:round;stroke-miterlimit:4;stroke-dasharray:none;stroke-opacity:1"/><path d="m-154 19-7 2c-2 1-1 4 0 4 1 1 8-1 9-2s0-3-1-4h-1z" style="fill:#000;stroke:#000;stroke-width:.49600002;stroke-linecap:butt;stroke-linejoin:miter;stroke-miterlimit:4;stroke-dasharray:none;stroke-opacity:1"/><ellipse ry="2.2" rx="2.1" cy="21.8" cx="-154.9" style="opacity:1;fill:#000;fill-opacity:1;stroke:#000;stroke-width:1.06500006;stroke-linecap:round;stroke-miterlimit:4;stroke-dasharray:none;stroke-opacity:1"/><path d="m-135 35-2-5-1-5 2-6a28 28 0 0 0 2-5l-4-3c-4-2-6-3-7-5-3-2-5-5-5-8-1-1-1-1-2 1l-4 4a110 110 0 0 1-32 10h-5c-2-1-5-2-6-4l-3-3 3 1c6 3 8 4 12 4l6-2a343 343 0 0 1 12-3l10-7 1-1h-3a27 27 0 0 1-10 1l3-1 7-2 3-2h1-1c-4-2-10-2-18 0l-10 3-10 2h-4v-1l-1-4h1c2 2 4 2 6 2h3l5-3c5-3 9-4 13-5a26 26 0 0 1 22 6h1c2 0 2 0 3 2l1 3c-1 0 0 0 0 0l2 2c4 6 6 7 12 9l2 1-2 2v4s0 0 0 0l-2 3-2 3-1 1v3a1317 1317 0 0 1 2 4l1 2-1 1v1s0 0 0 0z" style="opacity:.31100003;fill:#000;fill-opacity:1;stroke:#000;stroke-width:.25051785;stroke-linecap:round;stroke-miterlimit:4;stroke-dasharray:none;stroke-opacity:1"/><path d="m-165 69-6-1-6-2v-2l1-2h1l2-1-1 1c-1 2 0 4 1 4l3 1 11-1 7-2 6-3 8-9 3-6-1-11h1c0 2 1 1 1-1v-4l1-4 1-4 1-1s0 0 0 0l1-2 2-2 1-1 4 3 1 3-1 4-3 8-2 1-3-5-1-1 2 5v2c-3 13-7 21-15 26-4 3-9 6-13 6a37 37 0 0 1-7 1z" style="opacity:.31100003;fill:#000;fill-opacity:1;stroke:#000;stroke-width:.25051785;stroke-linecap:round;stroke-miterlimit:4;stroke-dasharray:none;stroke-opacity:1"/><path d="m-139 28-2-2-2-3v-5l1-4-1-5V8v1l4 2 4 2v3l-2 3-2 6 1 3v1l-1-1z" style="opacity:.31100003;fill:#000;fill-opacity:1;stroke:#000;stroke-width:.25051785;stroke-linecap:round;stroke-miterlimit:4;stroke-dasharray:none;stroke-opacity:1"/><g style="fill:#000;stroke:#000"><path style="fill:#000;fill-opacity:1;stroke:#000;stroke-width:.76499999;stroke-linecap:butt;stroke-linejoin:miter;stroke-miterlimit:4;stroke-dasharray:none;stroke-opacity:1" d="M96 114c-2-1-6-5-12 1-7 5-4 12-6 13-3 1-5-4-5-4s1 11 5 11c5 1 17-3 18-7 2-4 1-2 4 1 3 2 13 3 17 2s6-12 6-11-3 7-6 5c-4-1-2-12-9-13-8-2-12 2-12 2z" transform="matrix(.99783 -.09556 .0674 .70385 -269 -34)"/><path style="opacity:1;fill:#000;fill-opacity:1;stroke:#000;stroke-width:1.33903265;stroke-linecap:round;stroke-miterlimit:4;stroke-dasharray:none;stroke-opacity:1" d="M294 509c-3-1-8-7-10-12-3-5-3-6-1-3 3 3 11 8 13 8s8-4 11-9l2-4v3c0 4 2 4 6 0 3-3 9-11 10-15l1-3 1 3c0 5 2 5 6 1a146 146 0 0 0 20-32l11 8c18 14 20 14 12 1l-4-9 10 11c9 11 12 13 14 11 1-1 0-3-2-11l-2-6c1-1 4 3 8 8 7 9 15 17 17 17l1-3-1-6 5 5c6 9 8 12 12 13 5 3 5 3 17-6 7-5 7-5 4 2-3 6-6 10-10 12-11 6-51 2-65-8l-7-7-5-5-4 6c-3 7-7 11-15 15-17 10-45 18-55 15z" transform="matrix(.26401 -.02528 .01783 .18623 -269 -34)"/></g><path d="M-186 17c2-2 6-5 15-7l17-2-14 3-18 6z" style="fill:#000;fill-opacity:1;stroke:#000;stroke-width:.26458332px;stroke-linecap:butt;stroke-linejoin:miter;stroke-opacity:1"/><ellipse ry="9.9" rx="10" cy="30.9" cx="-183" style="opacity:1;vector-effect:none;fill:#000;fill-opacity:1;stroke:#000;stroke-width:1.67102575;stroke-linecap:butt;stroke-linejoin:miter;stroke-miterlimit:4;stroke-dasharray:none;stroke-dashoffset:0;stroke-opacity:1"/><path d="m-167 33 3-1c3-1 3 1 3 1l1 5h-6c-4-1-2 3-5 3s-5-4-4-7l6-9h4l1 4z" style="fill:#000;stroke:#000;stroke-width:.66500002;stroke-linecap:butt;stroke-linejoin:miter;stroke-miterlimit:4;stroke-dasharray:none;stroke-opacity:1"/><path d="m-174 27 3-3 6-1 3 3" style="fill:#000;stroke:#000;stroke-width:1.66499996;stroke-linecap:butt;stroke-linejoin:miter;stroke-miterlimit:4;stroke-dasharray:none;stroke-opacity:1"/><path d="m-144 20 18-6c3 0 4 10 4 10" style="fill:#000;stroke:#000;stroke-width:1.72899997;stroke-linecap:butt;stroke-linejoin:miter;stroke-miterlimit:4;stroke-dasharray:none;stroke-opacity:1"/><ellipse ry="9.9" rx="10" cy="25.2" cx="-152.5" style="opacity:1;vector-effect:none;fill:#000;fill-opacity:1;stroke:#000;stroke-width:1.67102587;stroke-linecap:butt;stroke-linejoin:miter;stroke-miterlimit:4;stroke-dasharray:none;stroke-dashoffset:0;stroke-opacity:1"/><g style="fill:#000;stroke:#000"><path style="fill:#000;fill-opacity:1;stroke:#000;stroke-width:.76499999;stroke-linecap:round;stroke-linejoin:miter;stroke-miterlimit:4;stroke-dasharray:none;stroke-opacity:1" d="m130 97 4-5c1 0 7 1 5 8-2 8-2 11-5 11s-4-6-4-6" transform="translate(-261 -76)"/><path style="fill:#000;stroke:#000;stroke-width:.26458332px;stroke-linecap:butt;stroke-linejoin:miter;stroke-opacity:1" d="M137 96s0-2-2-2c-2 1-3 2-3 4 1 2 2 2 1 3-2 1-3-1-3 2l2 5c2 1 3 0 4-2l2-7-1-3z" transform="translate(-261 -76)"/><path style="opacity:1;fill:#000;fill-opacity:1;stroke:#000;stroke-width:.66951632;stroke-linecap:round;stroke-miterlimit:4;stroke-dasharray:none;stroke-opacity:1" d="M497 404c-1-2-1-2 1-4l4-3c6-3 10-17 6-25-1-2-3-4-6-3h-2v-1c0-2 0-2 2-3 5-1 7-2 5-3s-2-2 1-3l2-1 1 1 5 9c1 4 0 14-2 22-2 4-5 8-9 11l-7 4-1-1z" transform="matrix(.26458 0 0 .26458 -261 -76)"/></g><path d="M-172 50s7 2 12 0c5-1 6-3 6-3l-2 4c-1 1-4 3-8 3s-8-4-8-4z" style="fill:#000;stroke:#000;stroke-width:.565;stroke-linecap:butt;stroke-linejoin:miter;stroke-miterlimit:4;stroke-dasharray:none;stroke-opacity:1"/><path d="M-145 86c0-1 3-13-3-15-5-2-15-3-17 0-3 3-6 13-3 16 3 4 23-1 23-1z" style="fill:#000;fill-opacity:1;stroke:#000;stroke-width:.6879167;stroke-linecap:butt;stroke-linejoin:miter;stroke-miterlimit:4;stroke-dasharray:none;stroke-opacity:1"/><path d="m-168 86-4 33c-3 16-2 35-2 35l1-1 3 1 3-1 1 2 2-2 2 3s1-3 2-2l2 2 3-2s2 4 2 2c0-1 5-34 4-44l-2-27-17 1z" style="fill:#000;fill-opacity:1;stroke:#000;stroke-width:.6879167;stroke-linecap:butt;stroke-linejoin:miter;stroke-miterlimit:4;stroke-dasharray:none;stroke-opacity:1"/><path d="M-163 86c-1 1 3 17 5 33 3 16 9 34 9 34l1-2 4 1s1-3 2-2c0 1 1 3 2 1l1-3 3 3s0-4 1-3l3 2 2-3s2 3 2 1c0-1-6-34-9-43l-10-25-16 6z" style="fill:#000;fill-opacity:1;stroke:#000;stroke-width:.6879167;stroke-linecap:butt;stroke-linejoin:miter;stroke-miterlimit:4;stroke-dasharray:none;stroke-opacity:1"/><path d="M-147 225c-1 0-19 11-29 11-9-1-15-3-15-9 0-5 2-10 7-10 5-1 10-1 11-3 1-1 0-5 2-5 2-1 9-2 11 2 2 3 8 4 10 3 1-1 4-4 5-3 1 2 1 13-1 14h-1z" style="fill:#000;stroke:#000;stroke-width:1.06500006;stroke-linecap:butt;stroke-linejoin:miter;stroke-miterlimit:4;stroke-dasharray:none;stroke-opacity:1"/><path d="M-122 211c0-1-3-6 1-9 5-2 18-4 20 1l2 9c0 2 9 5 7 13-2 9-12 10-21 8-10-2-12-2-13-7 0-6 4-15 4-15z" style="fill:#000;fill-opacity:1;stroke:#000;stroke-width:.96499997;stroke-linecap:butt;stroke-linejoin:miter;stroke-miterlimit:4;stroke-dasharray:none;stroke-opacity:1"/><path d="M-173 202s-3 11-1 11l22 7c6 2 9 4 9-1v-10s-8-5-15-7h-15z" style="fill:#000;fill-opacity:1;stroke:#000;stroke-width:1.16499996;stroke-linecap:butt;stroke-linejoin:miter;stroke-miterlimit:4;stroke-dasharray:none;stroke-opacity:1"/><path d="M-126 203c-3 4-1 9 1 13 4-1 8-4 13-4 4 0 9-2 13 1 3 3 5 2 6-2 0-4 1-10-3-12-7-3-14-3-21-1l-9 5z" style="fill:#000;fill-opacity:1;stroke:#000;stroke-width:.86500001;stroke-linecap:butt;stroke-linejoin:miter;stroke-miterlimit:4;stroke-dasharray:none;stroke-opacity:1"/><path d="M-126 69s21 39 28 45c8 5 22-2 24-7 2-4-19-45-25-52-6-6-13-9-17-8s-9 6-11 12c-2 5 1 10 1 10z" style="fill:#000;fill-opacity:1;stroke:#000;stroke-width:1.06500006;stroke-linecap:butt;stroke-linejoin:miter;stroke-miterlimit:4;stroke-dasharray:none;stroke-opacity:1"/><path d="M-74 108s-8 9-14 12c-6 2-18 5-26 3-7-2-14-14-13-22 0-9 14-22 19-22 5-1 15 2 15 2" style="fill:#000;fill-opacity:1;stroke:#000;stroke-width:.96499997;stroke-linecap:butt;stroke-linejoin:miter;stroke-miterlimit:4;stroke-dasharray:none;stroke-opacity:1"/><path d="M-111 78c-2 0-16-3-20 7-4 9 1 34 8 38s15 4 20-1c6-4 9-10 10-16 0-6-9-25-18-28z" style="fill:#000;fill-opacity:1;stroke:#000;stroke-width:.98000002;stroke-linecap:butt;stroke-linejoin:miter;stroke-miterlimit:4;stroke-dasharray:none;stroke-opacity:1"/><path d="M-129 87c-2 9-1 21 6 28 5 6 18 5 20-4s-1-19-7-25c-5-4-13 0-19 1z" style="fill:#000;stroke:#000;stroke-width:.26458332px;stroke-linecap:butt;stroke-linejoin:miter;stroke-opacity:1"/><g style="fill:#000;stroke:#000"><path style="fill:#000;fill-opacity:1;stroke:#000;stroke-width:.66500002;stroke-linecap:butt;stroke-linejoin:miter;stroke-miterlimit:4;stroke-dasharray:none;stroke-opacity:1" d="M149 105s-9-16-14-21 1-6 4-5l7 8 6 4c1-2-3-14-1-15 3-2 20-4 24 0 4 3 5 13 3 20-1 6-13 10-19 11-5 1-10-2-10-2z" transform="matrix(.81737 .08988 -.1503 .79062 -239 10)"/><path style="fill:#000;fill-opacity:1;stroke:#000;stroke-width:.66500002;stroke-linecap:butt;stroke-linejoin:miter;stroke-miterlimit:4;stroke-dasharray:none;stroke-opacity:1" d="m151 80-4-14c-1-4-4-10-3-12 2-1 5-2 6-1 2 2 7 24 7 24M159 77l-5-23c0-2 1-3 4-3 2 0 3 1 4 4l3 22M166 76s-3-21-2-24c1-2 4-2 4-2l2 7 1 19M173 76l-1-16c0-3 1-5 2-5s3 0 4 3v22" transform="matrix(.81737 .08988 -.1503 .79062 -239 10)"/></g></g><path style="opacity:.34800002;vector-effect:none;fill:#000;fill-opacity:1;stroke:#000;stroke-width:3.59055114;stroke-linecap:round;stroke-linejoin:miter;stroke-miterlimit:4;stroke-dasharray:none;stroke-dashoffset:0;stroke-opacity:1" d="M719 580a116 116 0 0 0 25-45l18-3c35-6 42-14 34-40-5-16-30-63-44-81a1069 1069 0 0 0-102-99l6-4c17-8 48 8 68 34 27 38 83 150 89 181l2 8-9 11c-19 21-33 32-49 37-10 4-30 9-42 11l-5 1zM702 659l4-36c-1-4-2-9-4-11-2-4-10-7-16-7-3-1-3-1 2-2l11-5c5-2 24-7 26-5l3 28 3 28-3 3c-3 2-15 7-23 9-3 1-4 1-3-2z" transform="matrix(.26458 0 0 .26458 -184 -55)"/><path style="opacity:.34800002;vector-effect:none;fill:#000;fill-opacity:1;stroke:#000;stroke-width:3.59055114;stroke-linecap:round;stroke-linejoin:miter;stroke-miterlimit:4;stroke-dasharray:none;stroke-dashoffset:0;stroke-opacity:1" d="m670 601 15-8c21-11 26-17 47-46 6-9 7-7 2 4-9 21-30 43-47 48l-17 2z" transform="matrix(.26458 0 0 .26458 -184 -55)"/><path style="opacity:1;vector-effect:none;fill:#000;fill-opacity:1;stroke:#000;stroke-width:3.59055114;stroke-linecap:round;stroke-linejoin:miter;stroke-miterlimit:4;stroke-dasharray:none;stroke-dashoffset:0;stroke-opacity:1" d="m652 302 1-12v-9l7 9 7 10c0 1-2 2-5 2l-8 2c-2 1-3 1-2-2z" transform="matrix(.26458 0 0 .26458 -184 -55)"/><path style="opacity:.51000001;vector-effect:none;fill:#000;fill-opacity:1;stroke:#000;stroke-width:3.59055114;stroke-linecap:round;stroke-linejoin:miter;stroke-miterlimit:4;stroke-dasharray:none;stroke-dashoffset:0;stroke-opacity:1" d="m723 874-12-4c-1-1 1-9 3-19 3-16 4-20 3-33-1-21-4-45-12-98-3-26-6-48-5-49 0-3 3-4 11-7l13-5c2 0 7 25 9 45 5 47 6 176 2 175l-12-5zM725 932l-11-5-6-2v-24l1-26c1-1 22 7 26 10 8 6 10 17 6 37-3 15-6 17-16 10z" transform="matrix(.26458 0 0 .26458 -184 -55)"/><path style="opacity:1;vector-effect:none;fill:#000;fill-opacity:1;stroke:#000;stroke-width:3.59055114;stroke-linecap:round;stroke-linejoin:miter;stroke-miterlimit:4;stroke-dasharray:none;stroke-dashoffset:0;stroke-opacity:1" d="M680 1008c-7-2-6-2 7-6 13-3 29-9 34-12 5-4 8-10 8-18 0-9-4-17-14-29-9-12-10-15-3-13s17 9 25 17c6 6 8 9 9 15 4 17-6 36-24 43-9 3-31 5-42 3z" transform="matrix(.26458 0 0 .26458 -184 -55)"/><path style="opacity:.34800002;vector-effect:none;fill:#000;fill-opacity:1;stroke:#000;stroke-width:2.538903;stroke-linecap:round;stroke-linejoin:miter;stroke-miterlimit:4;stroke-dasharray:none;stroke-dashoffset:0;stroke-opacity:1" d="M119 526c-6-1-8-3-11-11s-4-13-2-13a404 404 0 0 1 33 4c9 0 23-6 34-15 12-10 16-10 41-4l22 5 10-2a461 461 0 0 1 51-11l17-2c6-1 19-7 24-11l10-5a1477 1477 0 0 0 30-8l1 15v15l-18 6-32 10c-20 7-56 14-107 21-44 5-91 8-103 6zM400 677l-8-7-2-2 2-20c2-18 2-20 0-41l-7-101c-2-30-3-112-2-115l3 4c2 7 8 18 10 22 2 2 2 10 2 74 0 80 0 78 7 94 5 10 5 16 1 30-8 28-10 40-7 48l4 7c4 3 6 11 4 11l-7-4z" transform="matrix(.26458 0 0 .26458 -184 -55)"/><path style="opacity:1;vector-effect:none;fill:#000;fill-opacity:1;stroke:#000;stroke-width:2.538903;stroke-linecap:round;stroke-linejoin:miter;stroke-miterlimit:4;stroke-dasharray:none;stroke-dashoffset:0;stroke-opacity:1" d="M528 900c-12-5-13-6-13-8s1-4 4-6c6-5 5-7-2-18l-5-9c0-2 3-3 7-4 9-2 13-4 18-9 7-6 6-9-6-16-5-3-14-13-14-14l6-3c7-3 13-7 18-13 5-7 4-10-1-12-8-3-11-4-12-7-2-4-2-4 2-10 4-5 5-10 2-20-2-7-2-12 0-15l5 4c7 7 11 10 35 18 1 0-1 6-7 18-15 31-15 31-20 95l-4 35-13-6z" transform="matrix(.26458 0 0 .26458 -184 -55)"/><path style="opacity:1;vector-effect:none;fill:#000;fill-opacity:1;stroke:#000;stroke-width:1.2694515;stroke-linecap:round;stroke-linejoin:miter;stroke-miterlimit:4;stroke-dasharray:none;stroke-dashoffset:0;stroke-opacity:1" d="M424 1015c-13-1-25-4-33-7l-4-1 7-1c9-1 47 4 68-2 36-9 38-25 44-26l30-1-7 4c-36 20-63 31-84 34h-21z" transform="matrix(.26458 0 0 .26458 -184 -55)"/><path style="opacity:1;vector-effect:none;fill:#000;fill-opacity:1;stroke:#000;stroke-width:2.538903;stroke-linecap:round;stroke-linejoin:miter;stroke-miterlimit:4;stroke-dasharray:none;stroke-dashoffset:0;stroke-opacity:1" d="M620 890a381 381 0 0 0-29-99c-7-19-12-39-8-39l5 12c2 5 5 10 10 15l4 5v10c1 8 1 11 4 18a25428 25428 0 0 1 12 36c1 11 4 23 7 29s3 10-1 13-4 3-4 0zM621 930c-5-10-5-24-2-29l5-6c2-1 2-1 2 17 0 22-1 25-2 25l-3-7z" transform="matrix(.26458 0 0 .26458 -184 -55)"/><path style="opacity:1;vector-effect:none;fill:#000;fill-opacity:1;stroke:#000;stroke-width:.89763778;stroke-linecap:round;stroke-linejoin:miter;stroke-miterlimit:4;stroke-dasharray:none;stroke-dashoffset:0;stroke-opacity:1" d="M544 965h-2v-2l3-5 2-4c0-2-2-3-8-7a68 68 0 0 1-18-15l5-1h7c3-1 5-3 7-7s2-6-1-8l-1-2 1-2 1-1 2 1 7 3 4 2v18c0 23 0 27-3 30h-6z" transform="matrix(.26458 0 0 .26458 -184 -55)"/><path style="opacity:.52399998;vector-effect:none;fill:#000;fill-opacity:1;stroke:#000;stroke-width:3.59055114;stroke-linecap:round;stroke-linejoin:miter;stroke-miterlimit:4;stroke-dasharray:none;stroke-dashoffset:0;stroke-opacity:1" d="m651 874 2-8c4-8 8-24 7-31-1-8-4-10-15-10-8 0-9-1-11-4-3-4-2-10 5-23 6-13 6-15-2-19-11-5-24-15-31-23a62 62 0 0 1-16-48c1-13 2-15 4-14s4 0 5-2c3-4 9-4 11-1 2 1 3 1 4-1 2-2 8-4 25-8a3440 3440 0 0 0 38-7l4 6c4 5 4 6 4 23 0 35 3 52 13 75 8 20 8 23 0 58l-6 30-12 2c-7 0-16 2-20 4-10 4-9 3-9 1zM443 887a411 411 0 0 1-18-92 37343 37343 0 0 1-10-104c1-1 5 1 10 2l10 3v9c0 9 1 10 4 5 2-5 5-5 7-2 4 4 7 5 10 4 3-2 3-2 2 3l-1 23c0 23 2 30 11 40 6 6 6 7 3 9l-11 1c-14-1-14-1-14 23 0 22 1 26 5 29 4 2 16 3 22 1 3-1 3 0 2 5l3 24 2 17h-37zM452 935l-12-5c-2-3 4-35 6-36s33-2 34-1c2 2-2 6-7 7-6 2-21 14-21 18l7 8 7 10c2 4 0 3-14-1zM657 924c-5-5-6-11-3-22 3-9 3-11 1-16l-3-6 6-2c11-3 17-5 25-5h8l-1 5-6 42-1 6h-9l-11 1-6-3z" transform="matrix(.26458 0 0 .26458 -184 -55)"/><path style="opacity:.52399998;vector-effect:none;fill:#000;fill-opacity:1;stroke:#000;stroke-width:2.538903;stroke-linecap:round;stroke-linejoin:miter;stroke-miterlimit:4;stroke-dasharray:none;stroke-dashoffset:0;stroke-opacity:1" d="m528 682-12-41 7 12c6 12 6 13 15 21l10 8 4-2 9-7 7-4 6 4 7 3c2 0 2-1 3-6 1-7 2-10 3-10l4 5 4 5-2-8-4-35c-1-18-3-25-20-77l-24-81c-5-24-10-33-15-33l3-2 6-2a776 776 0 0 1 72 254l-5-3-4-3-3 5-3 6-6-3c-7-3-9-3-10 3l-1 3-4-4-6-4-2 6-2 6-4-3c-3-5-5-5-8 0s-4 5-9 3-8-2-10 0l-6-16zM514 712l-3-5-6 4-5 4-5-5c-4-4-5-4-6-3l-3 3-2 3-4-5-3-5c-1 0-3 2-4 5l-5 5-2-5c-1-5-3-5-8-2l-5 3-5-4c-4-3-5-3-7-2l-2 1v-54c2-30 4-50 8-78l7-50c9-73 9-68 11-68s2 11 1 32c-1 12-3 20-7 40-7 32-7 32-10 66a1062 1062 0 0 1-7 71l-2 18c0 3 0 3 2 3l23-5c1-1 2 0 4 3l2 4 10-5c6-3 11-5 12-4l6 6 7 7c2 1 2 1 4-1s3-4 3-21l1-19 4 12 4 13-3 20-3 21-2-3z" transform="matrix(.26458 0 0 .26458 -184 -55)"/><path style="opacity:.52399998;vector-effect:none;fill:#000;fill-opacity:1;stroke:#000;stroke-width:2.538903;stroke-linecap:round;stroke-linejoin:miter;stroke-miterlimit:4;stroke-dasharray:none;stroke-dashoffset:0;stroke-opacity:1" d="m495 580-12-37c-2-11-3-23-3-48v-24l5 28a2631 2631 0 0 1 20 111l-10-30zM485 441c-2-1-1-5 1-7 1-1 4-2 12-2 11-1 17-3 22-8l3-3-2-4c-1-4-2-3 4-10v-4c-2-2-3-2-14-2-13-1-19 0-37 7l-9 2c-1-1 6-13 9-15 9-6 38-6 58 1 13 4 15 9 16 28 1 18 0 19-4 11-3-5-4-6-6-6l-17 6c-13 5-16 6-25 6h-11z" transform="matrix(.26458 0 0 .26458 -184 -55)"/><path style="opacity:.52399998;vector-effect:none;fill:#000;fill-opacity:1;stroke:#000;stroke-width:1.79527557;stroke-linecap:round;stroke-linejoin:miter;stroke-miterlimit:4;stroke-dasharray:none;stroke-dashoffset:0;stroke-opacity:1" d="M460 450v-20l2 4 3 16-2 1c-2 1-2 0-3-1zM551 413c0-2 0-2 3-4 4-2 5-3 9-10 6-11 7-12 15-15l13-7c7-5 9-8 11-18 2-16 5-24 9-27l6-3 7-2 2-1-4 5a49 49 0 0 0-10 41c0 1 0 2-3 3l-4 4c-1 3 0 2-13 11-14 11-38 26-41 26v-3z" transform="matrix(.26458 0 0 .26458 -184 -55)"/><path style="opacity:.52399998;vector-effect:none;fill:#000;fill-opacity:1;stroke:#000;stroke-width:1.79527557;stroke-linecap:round;stroke-linejoin:miter;stroke-miterlimit:4;stroke-dasharray:none;stroke-dashoffset:0;stroke-opacity:1" d="m527 391-10-2c-8-1-8-1-2-3l37-19c14-9 29-22 37-32 10-13 17-34 21-61l1-11 3-1c3 0 8-2 10-6 3-4 5-9 9-24l3-14 1-7v-6l4 6c7 14 8 21 9 51 1 12 0 39-1 44 0 1-2 3-6 5l-10 9-6 5 3-6c1-4 3-6 5-7 6-4 10-8 12-12 3-6 2-12-3-26l-4-13c0-3-1-2-2 1l-7 15-1 2v-9c1-9 0-12-2-12l-5 6c-4 4-5 5-5 8 1 17 1 16-3 31-6 20-8 25-18 34l-8 8-1 5c-1 7-5 13-10 16-3 2-4 2-11 2l-10 2c-5 2-10 7-17 15l-7 8-6-2zM457 404h-7c-15 3-29-4-37-19-4-7-9-17-15-35-6-14-6-16-13-25l-4-6 2-3 1-3 3 4c2 6 7 11 11 13l7 2 4 1v3l4 24c5 16 13 27 24 32 6 2 13 4 23 4h9l-1 2-3 4c-2 4-3 4-8 2zM440 442c-11-2-23-7-30-14l-3-4a650 650 0 0 0 45 8h4v11h-5l-11-1zM617 537l-8-2c-6-1-14-6-15-7a1138 1138 0 0 0-29-63c-6-10-7-14-1-16 3-2 11-2 11 0l-4 3-4 3c-1 2 0 7 7 22 12 24 17 33 28 45 8 7 11 9 19 11h12c7-1 17-5 31-11 14-5 15-6 20-19 8-18 8-20 7-34-1-9-1-9 1-15a296 296 0 0 0 8-45c0-10 0-10-2-14s-2-6 2-5c2 0 4 1 5 3 2 1 2 2 2 6a420 420 0 0 1-11 67c1 1 0 16-1 22-1 8-4 17-6 23-3 7-10 12-21 17-14 6-39 10-51 9z" transform="matrix(.26458 0 0 .26458 -184 -55)"/><path style="opacity:.52399998;vector-effect:none;fill:#000;fill-opacity:1;stroke:#000;stroke-width:.63472575;stroke-linecap:round;stroke-linejoin:miter;stroke-miterlimit:4;stroke-dasharray:none;stroke-dashoffset:0;stroke-opacity:1" d="M636 453c-4-3-3-3-8-2h-2l2-2 3-3-1-4-1-4c-1-2-1-2-6-3h-3l2-1 7-3v-6a1077 1077 0 0 1-4-16h-8l5-2 5-3-3-14c-2-7-2-9-4-10h-6c-4 1-6 2-7 4v-1c0-4 1-5 5-7 8-4 13-3 15 1a554 554 0 0 1 8 72h1v-7h4v6h2l-1 1-3 5-2-1zM642 446v-12l-2-57 4-4 5-1 6 1c2 0 3 2 4 3v1h-10c-6 0-7 3-7 14l1 12c1 1 2 2 7 2s5 0 4 1l-9 2h-2l-1 1 1 7a115 115 0 0 1 1 11l1 1h-1v3l1 9c0 3 1 4 2 5l-3 2-2 1z" transform="matrix(.26458 0 0 .26458 -184 -55)"/><path style="opacity:.52399998;vector-effect:none;fill:#000;fill-opacity:1;stroke:#000;stroke-width:.44881889;stroke-linecap:round;stroke-linejoin:miter;stroke-miterlimit:4;stroke-dasharray:none;stroke-dashoffset:0;stroke-opacity:1" d="m676 453-4-4 1-1 2-1 3-3c1-2 0-11-1-13l-5-2c-2 0-2 0 1-1l6-1c1-1 2-3 2-11a63 63 0 0 1 0-7l-6-3-2-1h9l1-4c2-9 2-17 1-20l-2-2-2-2-2-1a14 14 0 0 0-6 0l1-1c2-2 4-2 8-3h3l1 2 1 10-1 12a1919 1919 0 0 0-7 53v1h1l1-2v-2l1 1h1v3h2v-1l1-2s0 0 0 0v2l1 1-8 4-2-1z" transform="matrix(.26458 0 0 .26458 -184 -55)"/><path style="opacity:.52399998;vector-effect:none;fill:#000;fill-opacity:1;stroke:#000;stroke-width:.44881889;stroke-linecap:round;stroke-linejoin:miter;stroke-miterlimit:4;stroke-dasharray:none;stroke-dashoffset:0;stroke-opacity:1" d="M685 446a1600 1600 0 0 1 10-47l-2 8 1 2v3h-3l-1 8-2 9 2 1a26 26 0 0 0 2 3h-2c-3 1-3 2-4 9a34 34 0 0 1-1 4z" transform="matrix(.26458 0 0 .26458 -184 -55)"/><path style="fill:#000;stroke:#000;stroke-width:.26458332px;stroke-linecap:butt;stroke-linejoin:miter;stroke-opacity:1" d="m164 124 8 2h9" transform="translate(-184 -55)"/><path style="fill:#000;fill-opacity:1;stroke:#000;stroke-width:.26458332px;stroke-linecap:butt;stroke-linejoin:miter;stroke-opacity:1" d="M166 129s5 2 6 4l2 4M176 136c0-1-1-4 1-6l3-1" transform="translate(-184 -55)"/><path style="opacity:.34800002;vector-effect:none;fill:#000;fill-opacity:1;stroke:#000;stroke-width:.89763778;stroke-linecap:round;stroke-linejoin:miter;stroke-miterlimit:4;stroke-dasharray:none;stroke-dashoffset:0;stroke-opacity:1" d="m656 509-2-1-2-3c-1-3-5-7-9-9l-11-7-2-2-6-15 3 1c7 2 16 2 39 3h15l-3 10-6 4c-6 3-8 5-9 9v9l-1 1h-6z" transform="matrix(.26458 0 0 .26458 -184 -55)"/></g><g style="fill:#000;stroke:#000"><path style="fill:#000;fill-opacity:1;stroke:#000;stroke-width:.86500001;stroke-linecap:butt;stroke-linejoin:miter;stroke-miterlimit:4;stroke-dasharray:none;stroke-opacity:1" d="M-134 108c-3 0-6 4-9 13s-9 32-5 34c3 1 8 0 12-3 3-3 10-20 10-20" transform="translate(-30 -52)"/><g style="fill:#000;stroke:#000"><path d="M-119 216c1 3 7 16 4 20s-13 9-10 11 12 2 16 0c4-1 9-8 10-11v-20" style="fill:#000;fill-opacity:1;stroke:#000;stroke-width:.74227345;stroke-linecap:butt;stroke-linejoin:miter;stroke-miterlimit:4;stroke-dasharray:none;stroke-opacity:1" transform="matrix(-.93092 0 0 .93092 -212 -34)"/><path d="M-116 237s-17 9-20 14c-2 5 2 8 7 10s14-2 19-5l15-13c2-2 0-5-1-7s-1-3-2-1c-2 2-8 11-12 13-5 1-11 0-13-1-3-1 2-5 3-6l4-4z" style="fill:#000;stroke:#000;stroke-width:.565;stroke-linecap:butt;stroke-linejoin:miter;stroke-miterlimit:4;stroke-dasharray:none;stroke-opacity:1" transform="matrix(-.93092 0 0 .93092 -212 -34)"/><path d="M-136 256c4 4 11 5 16 3l10-4 9-7 7-7c1 1-1 3-2 4l-9 8c-4 4-9 8-14 9-6 1-12 1-16-3-1-1-2-2-1-3z" style="fill:#000;stroke:#000;stroke-width:.26458332px;stroke-linecap:butt;stroke-linejoin:miter;stroke-opacity:1" transform="matrix(-.93092 0 0 .93092 -212 -34)"/></g><g style="fill:#000;stroke:#000"><path d="M-119 216c1 3 7 16 4 20s-13 9-10 11 12 2 16 0c4-1 9-8 10-11v-20" style="fill:#000;fill-opacity:1;stroke:#000;stroke-width:.74227345;stroke-linecap:butt;stroke-linejoin:miter;stroke-miterlimit:4;stroke-dasharray:none;stroke-opacity:1" transform="matrix(.93092 0 0 .93092 -32 -33)"/><path d="M-116 237s-17 9-20 14c-2 5 2 8 7 10s14-2 19-5l15-13c2-2 0-5-1-7s-1-3-2-1c-2 2-8 11-12 13-5 1-11 0-13-1-3-1 2-5 3-6l4-4z" style="fill:#000;stroke:#000;stroke-width:.565;stroke-linecap:butt;stroke-linejoin:miter;stroke-miterlimit:4;stroke-dasharray:none;stroke-opacity:1" transform="matrix(.93092 0 0 .93092 -32 -33)"/><path d="M-136 256c4 4 11 5 16 3l10-4 9-7 7-7c1 1-1 3-2 4l-9 8c-4 4-9 8-14 9-6 1-12 1-16-3-1-1-2-2-1-3z" style="fill:#000;stroke:#000;stroke-width:.26458332px;stroke-linecap:butt;stroke-linejoin:miter;stroke-opacity:1" transform="matrix(.93092 0 0 .93092 -32 -33)"/></g><path style="fill:#000;stroke:#000;stroke-width:1.21013951;stroke-linecap:butt;stroke-linejoin:miter;stroke-miterlimit:4;stroke-dasharray:none;stroke-opacity:1" d="M-128 138s-6 15-10 38c-4 24-9 42-6 44 2 2 52 10 75 8s36-16 35-23-11-54-17-65c-7-11-77-2-77-2z" transform="translate(-30 -52)"/><path style="fill:#000;fill-opacity:1;stroke:#000;stroke-width:.2463069px;stroke-linecap:butt;stroke-linejoin:miter;stroke-opacity:1" d="M-109 91s-29 5-25 15c3 10 18 17 31 24 14 6 31-4 38-10 8-6 14-14 13-19 0-5-10-12-17-13l-40 3z" transform="translate(-30 -52)"/><path style="fill:#000;fill-opacity:1;stroke:#000;stroke-width:.2463069px;stroke-linecap:butt;stroke-linejoin:miter;stroke-opacity:1" d="M-109 94c-1 0-11 4-7 13 5 8 33 14 27 12-6-3-15-7-14-9 0-3 1-1 10 2 9 2 18-11 18-9s-8 17-4 13c4-3 7-11 9-18 2-6 5-9-2-9l-37 5z" transform="translate(-30 -52)"/><g transform="matrix(.93092 0 0 .93092 -109 -2)" style="fill:#000;stroke:#000"><ellipse ry="13.1" rx="14.3" cy="-25.1" cx="-13.4" style="opacity:1;vector-effect:none;fill:#000;fill-opacity:1;stroke:#000;stroke-width:.76499999;stroke-linecap:butt;stroke-linejoin:miter;stroke-miterlimit:4;stroke-dasharray:none;stroke-dashoffset:0;stroke-opacity:1"/><path d="M-14-7C-30-7-44 4-44 19c0 6 2 13 6 19l-1 2c3 10 19 21 28 22 9-3 23-14 23-23v-2c2-6 4-13 4-18C16 4 2-7-14-7z" style="opacity:1;vector-effect:none;fill:#000;fill-opacity:1;stroke:#000;stroke-width:.85251367;stroke-linecap:butt;stroke-linejoin:miter;stroke-miterlimit:4;stroke-dasharray:none;stroke-dashoffset:0;stroke-opacity:1"/><path d="m-13 61-6-2c-8-4-15-10-18-16l-1-4v-1l-1-1c-2-5-4-11-4-16v-1l1-1 1-2 5-5-2 4-2 7c-1 4 0 7 2 11v3l3 5c3 5 13 14 17 16 3 2 8 2 11 1l7-6 8-8c2-2 4-14 4-19v-3a27 27 0 0 0-3-6l-4-5-2-1A99 99 0 0 1-22 0l3-2 3-1a125 125 0 0 1 30 23l1 1-3 14-1 3-2 8C5 52-3 58-9 61h-4z" style="opacity:.56800022;vector-effect:none;fill:#000;fill-opacity:1;stroke:#000;stroke-width:.58841383;stroke-linecap:butt;stroke-linejoin:miter;stroke-miterlimit:4;stroke-dasharray:none;stroke-dashoffset:0;stroke-opacity:1"/><path d="M-36 39s4-5 8-5c3 0 8 2 8 5-1 2-3 2-4 5 0 2 2 3 0 5l-2 3-3-2M11 36s-4-4-7-4c-4-1-9 2-9 4l4 6v5c1 2 1 3 2 2l3-1" style="fill:#000;fill-opacity:1;stroke:#000;stroke-width:.23374188px;stroke-linecap:butt;stroke-linejoin:miter;stroke-opacity:1"/><path d="M-48 25c1 1 5 6 5 12-1 5-2 8-4 6-3-1-2-4-3-4 0 0-3 5 2 7 4 3 7 1 8 0l3-7-3-12-4-8-4 6zM19 16c0 2-3 8-2 13s3 7 5 5c2-1 1-4 2-4 0 0 4 4 0 7s-7 3-8 1c-2-1-4-5-4-6V20l3-9 4 5z" style="fill:#000;fill-opacity:1;stroke:#000;stroke-width:.86500001;stroke-linecap:butt;stroke-linejoin:miter;stroke-miterlimit:4;stroke-dasharray:none;stroke-opacity:1"/><path d="M-44 22s-1-3 10-13S-18-5-15-3L8 13c7 6 10 11 11 4 2-7-3-24-10-30s-21-7-29-5c-9 1-15 1-21 9s-10 17-9 25c1 9 4 11 4 10l2-4z" style="fill:#000;fill-opacity:1;stroke:#000;stroke-width:1.13399994;stroke-linecap:butt;stroke-linejoin:miter;stroke-miterlimit:4;stroke-dasharray:none;stroke-opacity:1"/><path d="M-21 19h-9c-5 2-9 6-8 4s1-5 7-6c6-2 9-1 10-1v3z" style="fill:#000;fill-opacity:1;stroke:#000;stroke-width:.66500002;stroke-linecap:butt;stroke-linejoin:miter;stroke-miterlimit:4;stroke-dasharray:none;stroke-opacity:1"/><path d="m-23 23-8 1c-4 2-4 4-1 7 3 2 9 0 10-1 3-1 3-4-1-7z" style="fill:#000;stroke:#000;stroke-width:.23435101px;stroke-linecap:butt;stroke-linejoin:miter;stroke-opacity:1"/><circle transform="rotate(7)" cy="29.6" cx="-21.9" style="opacity:1;vector-effect:none;fill:#000;fill-opacity:1;stroke:#000;stroke-width:1.35800004;stroke-linecap:butt;stroke-linejoin:miter;stroke-miterlimit:4;stroke-dasharray:none;stroke-dashoffset:0;stroke-opacity:1" r="2.4"/><path d="M-4 22s5-2 8-1 4 4 1 7c-2 2-8 1-9 1-3 0-4-3 0-7z" style="fill:#000;stroke:#000;stroke-width:.23435101px;stroke-linecap:butt;stroke-linejoin:miter;stroke-opacity:1"/><circle transform="scale(-1 1) rotate(18)" cy="23.7" cx="7.1" style="opacity:1;vector-effect:none;fill:#000;fill-opacity:1;stroke:#000;stroke-width:1.35800004;stroke-linecap:butt;stroke-linejoin:miter;stroke-miterlimit:4;stroke-dasharray:none;stroke-dashoffset:0;stroke-opacity:1" r="2.4"/><path d="M-27 22c-3 0-5 2-8 4-1 1-3-4-3-1s4 2 4 4c1 3 4 3 6 3l7-2c-3 0-6 2-9 1-2-1-5-4-2-5 4-3 10-2 12 2 2 2 1-3 0-3-2-2-4-2-7-3zM-1 20c3-1 6 1 8 2s3-4 3-1c1 3-3 2-3 5 0 2-3 3-5 4l-7-1c2 0 6 1 9-1 2-1 4-4 1-5-4-2-10 0-12 4v-3l6-4z" style="fill:#000;stroke:#000;stroke-width:.26458332px;stroke-linecap:butt;stroke-linejoin:miter;stroke-opacity:1"/><path d="M-8 19c1 0 4-2 9-2l8 2c-1-1-2-4-8-5-6 0-9 2-9 2v3z" style="fill:#000;fill-opacity:1;stroke:#000;stroke-width:.66500002;stroke-linecap:butt;stroke-linejoin:miter;stroke-miterlimit:4;stroke-dasharray:none;stroke-opacity:1"/><path d="M-19 45c1-3 5-2 7-1 2 0 4-3 6-1 3 2-1 4-2 6-3 2-6 1-8-1l-3-3z" style="fill:#000;stroke:#000;stroke-width:1.2942307;stroke-linecap:butt;stroke-linejoin:miter;stroke-miterlimit:4;stroke-dasharray:none;stroke-opacity:1"/><path d="M-21 44s5 3 11 2 6-3 6-3l-5 4c-3 1-8 0-9-1l-3-2z" style="fill:#000;stroke:#000;stroke-width:.49914017;stroke-linecap:butt;stroke-linejoin:miter;stroke-miterlimit:4;stroke-dasharray:none;stroke-opacity:1"/><g style="fill:#000;stroke:#000"><path style="opacity:1;fill:#000;fill-opacity:.25628142;stroke:#000;stroke-width:1.16499996;stroke-linecap:butt;stroke-linejoin:miter;stroke-miterlimit:4;stroke-dasharray:none;stroke-opacity:1" d="M39 82 9 86s3 6 9 9c7 4 16 1 19-2 4-3 4-11 4-11h-2zM47 82l30-1c-1 0-2 6-8 10-6 5-15 4-19 1s-6-10-5-10h2z" transform="translate(-56 -53)"/><path style="fill:#000;fill-opacity:1;stroke:#000;stroke-width:.26458332px;stroke-linecap:butt;stroke-linejoin:miter;stroke-opacity:1" d="M41 82h4v2l-4 1z" transform="translate(-56 -53)"/></g><path d="M-9 39h1l1-2c0-2 0-4-2-4h-5l-3 2v4h2" style="fill:#000;stroke:#000;stroke-width:.81275314;stroke-linecap:butt;stroke-linejoin:miter;stroke-miterlimit:4;stroke-dasharray:none;stroke-opacity:1"/><path d="m-13 39-1 1-1-1h2c1 0 0 0 0 0zM-12 39l2 1 1-1h-3z" style="opacity:1;vector-effect:none;fill:#000;fill-opacity:1;stroke:#000;stroke-width:.21365415;stroke-linecap:butt;stroke-linejoin:miter;stroke-miterlimit:4;stroke-dasharray:none;stroke-dashoffset:0;stroke-opacity:1"/><path d="m17 19-1-3c-1-6-2-6-5-11L7-4c-2-4-2-5-6-8l-6-6 4 1 11 6c3 4 6 10 8 17v13h-1zM-3-18l-2-1h-2v-2l1-2 1-1-1-3v-9l1 1c3 2 5 5 5 8v5l-1 3-2 1z" style="opacity:.56800022;vector-effect:none;fill:#000;fill-opacity:1;stroke:#000;stroke-width:.58841383;stroke-linecap:butt;stroke-linejoin:miter;stroke-miterlimit:4;stroke-dasharray:none;stroke-dashoffset:0;stroke-opacity:1"/><path d="M-22-10s-2 9 4 15c5 7 15 8 20 8l12 1C13 14-2 6-5 1c-2-4 0-5-3-8s-14-4-14-4v2z" style="fill:#000;fill-opacity:1;stroke:#000;stroke-width:.86500001;stroke-linecap:butt;stroke-linejoin:miter;stroke-miterlimit:4;stroke-dasharray:none;stroke-opacity:1"/><path d="m-20-14-1 6 12 5 2-6-13-5z" style="fill:#000;fill-opacity:1;stroke:#000;stroke-width:.26458332px;stroke-linecap:butt;stroke-linejoin:miter;stroke-opacity:1"/><path d="M1 11c-3-1-7-2-9-4l-5-3-1-2c-2-5-5-11-5-15 0-1-2-2-5-2a42 42 0 0 0-9 0l6-2h4l3-1 1 1 5 2 2 1v2c2 8 4 15 6 17l8 5 2 1H1z" style="opacity:1;vector-effect:none;fill:#000;fill-opacity:1;stroke:#000;stroke-width:.43689099;stroke-linecap:butt;stroke-linejoin:miter;stroke-miterlimit:4;stroke-dasharray:none;stroke-dashoffset:0;stroke-opacity:1"/><path d="M-14-36s-6 1-8 3c-1 2-2 2-2 5-1 2-2 2-1 5l2 3 6-2-1-3 2-4 1-1zM-23-10s2 6-3 9L-37 9c-5 4-8 8-8 10l-1 4c-1-1-5-10-3-12l14-7c2-1 5-8 1-5-3 3-7 6-7 4 1-2-2-6 4-8 7-1 13-6 14-5z" style="fill:#000;fill-opacity:1;stroke:#000;stroke-width:.26458332px;stroke-linecap:butt;stroke-linejoin:miter;stroke-opacity:1"/></g><path style="fill:#000;stroke:#000;stroke-width:.9914338;stroke-linecap:butt;stroke-linejoin:miter;stroke-miterlimit:4;stroke-dasharray:none;stroke-opacity:1" d="M-65 89h-2s5 7 5 12c0 4-2 12-5 17-4 4-21 12-24 12s-9-1-13-4-15-12-19-21c-3-7 2-11 3-12-2 1-16 7-17 11 0 6 4 26 7 32l1 1-1 4-3 14s22 10 38 10c15 0 43-8 46-11 4-3-2-13-2-15l4-8c2-11-3-37-10-40-3-2-6-2-8-2zm-55 4h1-1z" transform="translate(-30 -52)"/><path style="fill:#000;fill-opacity:1;stroke:#000;stroke-width:.9914338;stroke-linecap:butt;stroke-linejoin:miter;stroke-miterlimit:4;stroke-dasharray:none;stroke-opacity:1" d="M-65 89h-2s5 7 5 12c0 4-2 12-5 17-4 4-21 12-24 12s-9-1-13-4-15-12-19-21c-3-7 2-11 3-12-2 1-16 7-17 11 0 6 4 26 7 32l1 1-1 4-3 14s22 10 38 10c15 0 43-8 46-11 4-3-2-13-2-15l4-8c2-11-3-37-10-40-3-2-6-2-8-2zm-55 4h1-1z" transform="translate(-30 -52)"/><g style="fill:#000;stroke:#000"><path d="m4 104-5-2c-3-1-12 1-15 4-2 3-2 12 1 13 4 0 21-7 21-8 1-2-2-7-2-7z" style="fill:#000;fill-opacity:1;stroke:#000;stroke-width:.565;stroke-linecap:butt;stroke-linejoin:miter;stroke-miterlimit:4;stroke-dasharray:none;stroke-opacity:1" transform="translate(-157 -61)"/><path d="m-16 118 3 10 4 3c2 0 3-1 3-2l-5-8-1-4M-11 117l7 11c2 1 3 0 3-1 1-1-1-5-2-7l-2-5M-3 115l3 4 3 7h3c1-2-1-8-2-10l-3-4M5 107l5 5c1 2 3 9 2 10 0 1-2 2-3 1l-3-9-3-2" style="fill:#000;fill-opacity:1;stroke:#000;stroke-width:.565;stroke-linecap:butt;stroke-linejoin:miter;stroke-miterlimit:4;stroke-dasharray:none;stroke-opacity:1" transform="translate(-157 -61)"/></g><path style="fill:#000;fill-opacity:1;stroke:#000;stroke-width:.66500002;stroke-linecap:round;stroke-linejoin:miter;stroke-miterlimit:4;stroke-dasharray:none;stroke-opacity:1" d="M-139 153s-3 2-7 2-10-2-11-5 1-10 3-11l14-4 6 4" transform="translate(-30 -52)"/><path style="fill:#000;fill-opacity:1;stroke:#000;stroke-width:.465;stroke-linecap:butt;stroke-linejoin:miter;stroke-miterlimit:4;stroke-dasharray:none;stroke-opacity:1" d="m-152 116-1 3 2 15h-1l-3-11-2-6-2 3 3 14-3-9-2-6c-1 0-2 1-2 3l2 14-2-8-2-7-1 3 2 15 2 6c6 12 15 7 18 2 2-2 2-5 3-7l1-11c0-2-1-4-2-3l-2 6-1 3-1-2-4-11-2-6z" transform="translate(-30 -52)"/></g><path d="m-155 200 5 3h9c2-2 4-1 3 0 0 2-1 5-8 5-6 0-10 0-10-2l1-6zM-133 199l9-9c1 1 2 0 1 2-1 3-10 11-10 10v-3zM-104 203c2 2 1 2 7 3 6 0 9-1 10-3 0-1 1-3-2-5-3-1 0-1-6 1-6 1-9 4-9 4zM-115 197s4 5 6 5l8-3-8-2-7-3 1 3z" style="fill:#000;stroke:#000;stroke-width:.26458332px;stroke-linecap:butt;stroke-linejoin:miter;stroke-opacity:1"/><path d="m-137 196 4-4 4-4v-13l1 1h4v11l-2 2-7 8-4 1h-2zM-109 196l-5-3-5-7-1-1v-9h5l1 1v4h0a4550 4550 0 0 0-5-2v2l1 5 2-1s0 0 0 0l7 8 3 3h-3z" style="opacity:.34800002;vector-effect:none;fill:#000;fill-opacity:1;stroke:#000;stroke-width:.49357143;stroke-linecap:round;stroke-linejoin:miter;stroke-miterlimit:4;stroke-dasharray:none;stroke-dashoffset:0;stroke-opacity:1"/><path d="M-117 175a409 409 0 0 1-58-9l3-20a752 752 0 0 0 9-43 2081 2081 0 0 1 6 3l-2 4-8 29c-2 8-2 12-1 17 1 7 3 10 5 12h1l4-2 9-4 4-1 1 1 1 3c1 2 2 3 4 3l2 1h2c1-1 3-4 6-13l2-5v-1 4c-1 7-1 11 1 13l4 2 6 3 2 1c2 0 2-1 4-4l1-12a239 239 0 0 0-2-32l1-6h1l2 5 5 17a22875 22875 0 0 1 4 20l5 6c2 3 3 2 4-1l-2-20a234 234 0 0 1-3-31c2 1 4 6 7 20 2 12 4 17 5 18 2 2 6 0 13-6l3-2a149 149 0 0 1 1 9c-1 4-5 9-10 13-7 4-14 7-24 8h-18z" style="opacity:.26000001;vector-effect:none;fill:#000;fill-opacity:1;stroke:#000;stroke-width:.34900773;stroke-linecap:round;stroke-linejoin:miter;stroke-miterlimit:4;stroke-dasharray:none;stroke-dashoffset:0;stroke-opacity:1"/></g><g transform="translate(277 47) scale(.90508)"><path d="m-186 61-24 16c-10 7-50 5-52 9-3 4-1 17 2 19 3 3 49-3 56-6s21-5 25-10c5-4 0-21-2-25-2-3-5-3-5-3z" style="fill:#6f916f;fill-opacity:1;stroke:#5d6c53;stroke-width:.76499999;stroke-linecap:butt;stroke-linejoin:miter;stroke-miterlimit:4;stroke-dasharray:none;stroke-opacity:1"/><path d="M-185 129s5 18 6 44c2 25 11 42 11 42l21-2 3-32 7-16s-1 1 5 16c6 14 6 28 6 28s27 2 30 0c3-1 3-51 0-63l-4-23z" style="fill:#ac9d93;stroke:#483e37;stroke-width:.98606288;stroke-linecap:butt;stroke-linejoin:miter;stroke-miterlimit:4;stroke-dasharray:none;stroke-opacity:1"/><path d="M-186 132c0-2-7-65-1-77s43-24 52-24 20 8 25 21 15 84 14 87c-2 3-35 11-60 12s-32-8-32-8z" style="fill:#6f916f;stroke:#5d6c53;stroke-width:1.06500006;stroke-linecap:butt;stroke-linejoin:miter;stroke-miterlimit:4;stroke-dasharray:none;stroke-opacity:1"/><path d="M-128 18s1 27-6 37c-8 10-27 18-38 15-11-2-10-19-9-28 1-8-12 9-9 19 2 10 4 19 14 22 9 3 27-3 37-9 9-6 18-12 20-21s1-23 1-25-3-9-6-11c-4-1-4 1-4 1z" style="fill:#6c5353;stroke:#483737;stroke-width:.6879167;stroke-linecap:butt;stroke-linejoin:miter;stroke-miterlimit:4;stroke-dasharray:none;stroke-opacity:1"/><path d="M-180 50s-9-2-8-10c0-8 2-8 1-10-1-3-6-5-6-8s5-14 13-19c7-4 22-7 34-5s15 8 17 17c1 8 2 8 0 19-2 10-5 16-9 22-5 6-14 13-23 13-9 1-16-2-16-3v-8c0-3-3-8-3-8z" style="fill:#fca;stroke:#f95;stroke-width:.96499997;stroke-linecap:butt;stroke-linejoin:miter;stroke-miterlimit:4;stroke-dasharray:none;stroke-opacity:1"/><path d="M-153 28c-1 2-3 3-3 6l2 4 9 6c2 1 4 0 5-1l3-7" style="fill:url(#f);fill-opacity:1;stroke:none;stroke-width:.24965884px;stroke-linecap:butt;stroke-linejoin:miter;stroke-opacity:1"/><path d="m-168-13-7 1c-8 2-12 6-17 7-5 2-10-2-10-2s1 9 6 11c4 2 11 0 11 0l-7 4c-3 0-11-5-11-5 0 1 4 10 13 10s32-7 34-10l5-5s2 7 11 12c8 4 6 3 5 5l-3 8c-1 4 3 12 3 13l1-6 2-8c1-1 1 0 2 3 1 2 0 2 2 0 1-1 4-4 4-9 1-5-1-14-8-19a26 26 0 0 0-19-3l-2-2c-4-3-9-5-15-5z" style="fill:#e6e6e6;fill-opacity:1;stroke:#ccc;stroke-width:.565;stroke-linecap:butt;stroke-linejoin:miter;stroke-miterlimit:4;stroke-dasharray:none;stroke-opacity:1"/><path d="m-176 22-12 3c-4 2-6-1-5-2 1-2 14-8 16-6 2 1 1 5 1 5zM-165 14c0 1-3 5 0 6 4 0 16-2 16-4s0-5-2-5l-14 3z" style="fill:#e6e6e6;fill-opacity:1;stroke:#ccc;stroke-width:1.06500006;stroke-linecap:butt;stroke-linejoin:miter;stroke-miterlimit:4;stroke-dasharray:none;stroke-opacity:1"/><path d="m-178 24-7 2c-2 1-1 4 0 5l9-3c1-1 0-3-1-3l-1-1z" style="fill:#ffe6d5;stroke:#f95;stroke-width:.49599999;stroke-linecap:butt;stroke-linejoin:miter;stroke-miterlimit:4;stroke-dasharray:none;stroke-opacity:1"/><ellipse ry="2.2" rx="2.1" cy="27" cx="-179.3" style="opacity:1;fill:#000;fill-opacity:1;stroke:#d38d5f;stroke-width:1.06500006;stroke-linecap:round;stroke-miterlimit:4;stroke-dasharray:none;stroke-opacity:1"/><path d="m-154 19-7 2c-2 1-1 4 0 4 1 1 8-1 9-2s0-3-1-4h-1z" style="fill:#ffe6d5;stroke:#f95;stroke-width:.49600002;stroke-linecap:butt;stroke-linejoin:miter;stroke-miterlimit:4;stroke-dasharray:none;stroke-opacity:1"/><ellipse ry="2.2" rx="2.1" cy="21.8" cx="-154.9" style="opacity:1;fill:#000;fill-opacity:1;stroke:#d38d5f;stroke-width:1.06500006;stroke-linecap:round;stroke-miterlimit:4;stroke-dasharray:none;stroke-opacity:1"/><path d="m-135 35-2-5-1-5 2-6a28 28 0 0 0 2-5l-4-3c-4-2-6-3-7-5-3-2-5-5-5-8-1-1-1-1-2 1l-4 4a110 110 0 0 1-32 10h-5c-2-1-5-2-6-4l-3-3 3 1c6 3 8 4 12 4l6-2a343 343 0 0 1 12-3l10-7 1-1h-3a27 27 0 0 1-10 1l3-1 7-2 3-2h1-1c-4-2-10-2-18 0l-10 3-10 2h-4v-1l-1-4h1c2 2 4 2 6 2h3l5-3c5-3 9-4 13-5a26 26 0 0 1 22 6h1c2 0 2 0 3 2l1 3c-1 0 0 0 0 0l2 2c4 6 6 7 12 9l2 1-2 2v4l-2 3-2 3-1 1v3a1317 1317 0 0 1 2 4l1 2-1 1v1z" style="opacity:.31100003;fill:#fff;fill-opacity:1;stroke:none;stroke-width:.25051785;stroke-linecap:round;stroke-miterlimit:4;stroke-dasharray:none;stroke-opacity:1"/><path d="m-165 69-6-1-6-2v-2l1-2h1l2-1-1 1c-1 2 0 4 1 4l3 1 11-1 7-2 6-3 8-9 3-6-1-11h1c0 2 1 1 1-1v-4l1-4 1-4 1-1 1-2 2-2 1-1 4 3 1 3-1 4-3 8-2 1-3-5-1-1 2 5v2c-3 13-7 21-15 26-4 3-9 6-13 6a37 37 0 0 1-7 1z" style="opacity:.31100003;fill:#ffb380;fill-opacity:1;stroke:none;stroke-width:.25051785;stroke-linecap:round;stroke-miterlimit:4;stroke-dasharray:none;stroke-opacity:1"/><path d="m-139 28-2-2-2-3v-5l1-4-1-5V8v1l4 2 4 2v3l-2 3-2 6 1 3v1l-1-1z" style="opacity:.31100003;fill:#ffb380;fill-opacity:1;stroke:none;stroke-width:.25051785;stroke-linecap:round;stroke-miterlimit:4;stroke-dasharray:none;stroke-opacity:1"/><path style="fill:#e6e6e6;fill-opacity:1;stroke:#ccc;stroke-width:.76499999;stroke-linecap:butt;stroke-linejoin:miter;stroke-miterlimit:4;stroke-dasharray:none;stroke-opacity:1" d="M96 114c-2-1-6-5-12 1-7 5-4 12-6 13-3 1-5-4-5-4s1 11 5 11c5 1 17-3 18-7 2-4 1-2 4 1 3 2 13 3 17 2s6-12 6-11-3 7-6 5c-4-1-2-12-9-13-8-2-12 2-12 2z" transform="matrix(.99783 -.09556 .0674 .70385 -269 -34)"/><path style="opacity:1;fill:#eee;fill-opacity:1;stroke:none;stroke-width:1.33903265;stroke-linecap:round;stroke-miterlimit:4;stroke-dasharray:none;stroke-opacity:1" d="M294 509c-3-1-8-7-10-12-3-5-3-6-1-3 3 3 11 8 13 8s8-4 11-9l2-4v3c0 4 2 4 6 0 3-3 9-11 10-15l1-3 1 3c0 5 2 5 6 1a146 146 0 0 0 20-32l11 8c18 14 20 14 12 1l-4-9 10 11c9 11 12 13 14 11 1-1 0-3-2-11l-2-6c1-1 4 3 8 8 7 9 15 17 17 17l1-3-1-6 5 5c6 9 8 12 12 13 5 3 5 3 17-6 7-5 7-5 4 2-3 6-6 10-10 12-11 6-51 2-65-8l-7-7-5-5-4 6c-3 7-7 11-15 15-17 10-45 18-55 15z" transform="matrix(.26401 -.02528 .01783 .18623 -269 -34)"/><path d="M-186 17c2-2 6-5 15-7l17-2-14 3-18 6z" style="fill:#f95;fill-opacity:1;stroke:none;stroke-width:.26458332px;stroke-linecap:butt;stroke-linejoin:miter;stroke-opacity:1"/><ellipse ry="9.9" rx="10" cy="30.9" cx="-183" style="opacity:1;vector-effect:none;fill:url(#g);fill-opacity:1;stroke:#540;stroke-width:1.67102575;stroke-linecap:butt;stroke-linejoin:miter;stroke-miterlimit:4;stroke-dasharray:none;stroke-dashoffset:0;stroke-opacity:1"/><path d="m-167 33 3-1c3-1 3 1 3 1l1 5h-6c-4-1-2 3-5 3s-5-4-4-7l6-9h4l1 4z" style="fill:#ffb380;stroke:#f95;stroke-width:.66500002;stroke-linecap:butt;stroke-linejoin:miter;stroke-miterlimit:4;stroke-dasharray:none;stroke-opacity:1"/><path d="m-174 27 3-3 6-1 3 3" style="fill:none;stroke:#540;stroke-width:1.66499996;stroke-linecap:butt;stroke-linejoin:miter;stroke-miterlimit:4;stroke-dasharray:none;stroke-opacity:1"/><path d="m-144 20 18-6c3 0 4 10 4 10" style="fill:none;stroke:#540;stroke-width:1.72899997;stroke-linecap:butt;stroke-linejoin:miter;stroke-miterlimit:4;stroke-dasharray:none;stroke-opacity:1"/><ellipse ry="9.9" rx="10" cy="25.2" cx="-152.5" style="opacity:1;vector-effect:none;fill:url(#h);fill-opacity:1;stroke:#540;stroke-width:1.67102587;stroke-linecap:butt;stroke-linejoin:miter;stroke-miterlimit:4;stroke-dasharray:none;stroke-dashoffset:0;stroke-opacity:1"/><path style="fill:#fca;fill-opacity:1;stroke:#f95;stroke-width:.76499999;stroke-linecap:round;stroke-linejoin:miter;stroke-miterlimit:4;stroke-dasharray:none;stroke-opacity:1" d="m130 97 4-5c1 0 7 1 5 8-2 8-2 11-5 11s-4-6-4-6" transform="translate(-261 -76)"/><path style="fill:#ffb380;stroke:#ff7f2a;stroke-width:.26458332px;stroke-linecap:butt;stroke-linejoin:miter;stroke-opacity:1" d="M137 96s0-2-2-2c-2 1-3 2-3 4 1 2 2 2 1 3-2 1-3-1-3 2l2 5c2 1 3 0 4-2l2-7-1-3z" transform="translate(-261 -76)"/><path style="opacity:1;fill:#fca;fill-opacity:1;stroke:#ff7f2a;stroke-width:.66951632;stroke-linecap:round;stroke-miterlimit:4;stroke-dasharray:none;stroke-opacity:1" d="M497 404c-1-2-1-2 1-4l4-3c6-3 10-17 6-25-1-2-3-4-6-3h-2v-1c0-2 0-2 2-3 5-1 7-2 5-3s-2-2 1-3l2-1 1 1 5 9c1 4 0 14-2 22-2 4-5 8-9 11l-7 4-1-1z" transform="matrix(.26458 0 0 .26458 -261 -76)"/><path d="M-172 50s7 2 12 0c5-1 6-3 6-3l-2 4c-1 1-4 3-8 3s-8-4-8-4z" style="fill:#f2f2f2;stroke:#ffb380;stroke-width:.565;stroke-linecap:butt;stroke-linejoin:miter;stroke-miterlimit:4;stroke-dasharray:none;stroke-opacity:1"/><path d="M-145 86c0-1 3-13-3-15-5-2-15-3-17 0-3 3-6 13-3 16 3 4 23-1 23-1z" style="fill:#6c5353;fill-opacity:1;stroke:#483737;stroke-width:.6879167;stroke-linecap:butt;stroke-linejoin:miter;stroke-miterlimit:4;stroke-dasharray:none;stroke-opacity:1"/><path d="m-168 86-4 33c-3 16-2 35-2 35l1-1 3 1 3-1 1 2 2-2 2 3s1-3 2-2l2 2 3-2s2 4 2 2c0-1 5-34 4-44l-2-27-17 1z" style="fill:#6c5353;fill-opacity:1;stroke:#483737;stroke-width:.6879167;stroke-linecap:butt;stroke-linejoin:miter;stroke-miterlimit:4;stroke-dasharray:none;stroke-opacity:1"/><path d="M-163 86c-1 1 3 17 5 33 3 16 9 34 9 34l1-2 4 1s1-3 2-2c0 1 1 3 2 1l1-3 3 3s0-4 1-3l3 2 2-3s2 3 2 1c0-1-6-34-9-43l-10-25-16 6z" style="fill:#6c5353;fill-opacity:1;stroke:#483737;stroke-width:.6879167;stroke-linecap:butt;stroke-linejoin:miter;stroke-miterlimit:4;stroke-dasharray:none;stroke-opacity:1"/><path d="M-147 225c-1 0-19 11-29 11-9-1-15-3-15-9 0-5 2-10 7-10 5-1 10-1 11-3 1-1 0-5 2-5 2-1 9-2 11 2 2 3 8 4 10 3 1-1 4-4 5-3 1 2 1 13-1 14h-1z" style="fill:#483737;stroke:#000;stroke-width:1.06500006;stroke-linecap:butt;stroke-linejoin:miter;stroke-miterlimit:4;stroke-dasharray:none;stroke-opacity:1"/><path d="M-122 211c0-1-3-6 1-9 5-2 18-4 20 1l2 9c0 2 9 5 7 13-2 9-12 10-21 8-10-2-12-2-13-7 0-6 4-15 4-15z" style="fill:#483737;fill-opacity:1;stroke:#000;stroke-width:.96499997;stroke-linecap:butt;stroke-linejoin:miter;stroke-miterlimit:4;stroke-dasharray:none;stroke-opacity:1"/><path d="M-173 202s-3 11-1 11l22 7c6 2 9 4 9-1v-10s-8-5-15-7h-15z" style="fill:#ac9d93;fill-opacity:1;stroke:#483e37;stroke-width:1.16499996;stroke-linecap:butt;stroke-linejoin:miter;stroke-miterlimit:4;stroke-dasharray:none;stroke-opacity:1"/><path d="M-126 203c-3 4-1 9 1 13 4-1 8-4 13-4 4 0 9-2 13 1 3 3 5 2 6-2 0-4 1-10-3-12-7-3-14-3-21-1l-9 5z" style="fill:#ac9d93;fill-opacity:1;stroke:#000;stroke-width:.86500001;stroke-linecap:butt;stroke-linejoin:miter;stroke-miterlimit:4;stroke-dasharray:none;stroke-opacity:1"/><path d="M-126 69s21 39 28 45c8 5 22-2 24-7 2-4-19-45-25-52-6-6-13-9-17-8s-9 6-11 12c-2 5 1 10 1 10z" style="fill:#6f916f;fill-opacity:1;stroke:#5d6c53;stroke-width:1.06500006;stroke-linecap:butt;stroke-linejoin:miter;stroke-miterlimit:4;stroke-dasharray:none;stroke-opacity:1"/><path d="M-74 108s-8 9-14 12c-6 2-18 5-26 3-7-2-14-14-13-22 0-9 14-22 19-22 5-1 15 2 15 2" style="fill:#6f916f;fill-opacity:1;stroke:#5d6c53;stroke-width:.96499997;stroke-linecap:butt;stroke-linejoin:miter;stroke-miterlimit:4;stroke-dasharray:none;stroke-opacity:1"/><path d="M-111 78c-2 0-16-3-20 7-4 9 1 34 8 38s15 4 20-1c6-4 9-10 10-16 0-6-9-25-18-28z" style="fill:#6f916f;fill-opacity:1;stroke:#5d6c53;stroke-width:.98000002;stroke-linecap:butt;stroke-linejoin:miter;stroke-miterlimit:4;stroke-dasharray:none;stroke-opacity:1"/><path d="M-129 87c-2 9-1 21 6 28 5 6 18 5 20-4s-1-19-7-25c-5-4-13 0-19 1z" style="fill:#22241c;stroke:#000;stroke-width:.26458332px;stroke-linecap:butt;stroke-linejoin:miter;stroke-opacity:1"/><g><path style="fill:#fca;fill-opacity:1;stroke:#f95;stroke-width:.66500002;stroke-linecap:butt;stroke-linejoin:miter;stroke-miterlimit:4;stroke-dasharray:none;stroke-opacity:1" d="M149 105s-9-16-14-21 1-6 4-5l7 8 6 4c1-2-3-14-1-15 3-2 20-4 24 0 4 3 5 13 3 20-1 6-13 10-19 11-5 1-10-2-10-2z" transform="matrix(.81737 .08988 -.1503 .79062 -239 10)"/><path style="fill:#fca;fill-opacity:1;stroke:#f95;stroke-width:.66500002;stroke-linecap:butt;stroke-linejoin:miter;stroke-miterlimit:4;stroke-dasharray:none;stroke-opacity:1" d="m151 80-4-14c-1-4-4-10-3-12 2-1 5-2 6-1 2 2 7 24 7 24M159 77l-5-23c0-2 1-3 4-3 2 0 3 1 4 4l3 22M166 76s-3-21-2-24c1-2 4-2 4-2l2 7 1 19M173 76l-1-16c0-3 1-5 2-5s3 0 4 3v22" transform="matrix(.81737 .08988 -.1503 .79062 -239 10)"/></g></g><path style="opacity:.34800002;vector-effect:none;fill:#89a02c;fill-opacity:1;stroke:none;stroke-width:3.59055114;stroke-linecap:round;stroke-linejoin:miter;stroke-miterlimit:4;stroke-dasharray:none;stroke-dashoffset:0;stroke-opacity:1" d="M719 580a116 116 0 0 0 25-45l18-3c35-6 42-14 34-40-5-16-30-63-44-81a1069 1069 0 0 0-102-99l6-4c17-8 48 8 68 34 27 38 83 150 89 181l2 8-9 11c-19 21-33 32-49 37-10 4-30 9-42 11l-5 1zM702 659l4-36c-1-4-2-9-4-11-2-4-10-7-16-7-3-1-3-1 2-2l11-5c5-2 24-7 26-5l3 28 3 28-3 3c-3 2-15 7-23 9-3 1-4 1-3-2z" transform="translate(14 16) scale(.23947)"/><path style="opacity:.34800002;vector-effect:none;fill:#89a02c;fill-opacity:1;stroke:none;stroke-width:3.59055114;stroke-linecap:round;stroke-linejoin:miter;stroke-miterlimit:4;stroke-dasharray:none;stroke-dashoffset:0;stroke-opacity:1" d="m670 601 15-8c21-11 26-17 47-46 6-9 7-7 2 4-9 21-30 43-47 48l-17 2z" transform="translate(14 16) scale(.23947)"/><path style="opacity:1;vector-effect:none;fill:#789657;fill-opacity:1;stroke:none;stroke-width:3.59055114;stroke-linecap:round;stroke-linejoin:miter;stroke-miterlimit:4;stroke-dasharray:none;stroke-dashoffset:0;stroke-opacity:1" d="m652 302 1-12v-9l7 9 7 10c0 1-2 2-5 2l-8 2c-2 1-3 1-2-2z" transform="translate(14 16) scale(.23947)"/><path style="opacity:.51000001;vector-effect:none;fill:#918a6f;fill-opacity:1;stroke:none;stroke-width:3.59055114;stroke-linecap:round;stroke-linejoin:miter;stroke-miterlimit:4;stroke-dasharray:none;stroke-dashoffset:0;stroke-opacity:1" d="m723 874-12-4c-1-1 1-9 3-19 3-16 4-20 3-33-1-21-4-45-12-98-3-26-6-48-5-49 0-3 3-4 11-7l13-5c2 0 7 25 9 45 5 47 6 176 2 175l-12-5zM725 932l-11-5-6-2v-24l1-26c1-1 22 7 26 10 8 6 10 17 6 37-3 15-6 17-16 10z" transform="translate(14 16) scale(.23947)"/><path style="opacity:1;vector-effect:none;fill:#6c5d53;fill-opacity:1;stroke:none;stroke-width:3.59055114;stroke-linecap:round;stroke-linejoin:miter;stroke-miterlimit:4;stroke-dasharray:none;stroke-dashoffset:0;stroke-opacity:1" d="M680 1008c-7-2-6-2 7-6 13-3 29-9 34-12 5-4 8-10 8-18 0-9-4-17-14-29-9-12-10-15-3-13s17 9 25 17c6 6 8 9 9 15 4 17-6 36-24 43-9 3-31 5-42 3z" transform="translate(14 16) scale(.23947)"/><path style="opacity:.34800002;vector-effect:none;fill:#89a02c;fill-opacity:1;stroke:none;stroke-width:2.538903;stroke-linecap:round;stroke-linejoin:miter;stroke-miterlimit:4;stroke-dasharray:none;stroke-dashoffset:0;stroke-opacity:1" d="M119 526c-6-1-8-3-11-11s-4-13-2-13a404 404 0 0 1 33 4c9 0 23-6 34-15 12-10 16-10 41-4l22 5 10-2a461 461 0 0 1 51-11l17-2c6-1 19-7 24-11l10-5a1477 1477 0 0 0 30-8l1 15v15l-18 6-32 10c-20 7-56 14-107 21-44 5-91 8-103 6zM400 677l-8-7-2-2 2-20c2-18 2-20 0-41l-7-101c-2-30-3-112-2-115l3 4c2 7 8 18 10 22 2 2 2 10 2 74 0 80 0 78 7 94 5 10 5 16 1 30-8 28-10 40-7 48l4 7c4 3 6 11 4 11l-7-4z" transform="translate(14 16) scale(.23947)"/><path style="opacity:1;vector-effect:none;fill:#9e9381;fill-opacity:1;stroke:none;stroke-width:2.538903;stroke-linecap:round;stroke-linejoin:miter;stroke-miterlimit:4;stroke-dasharray:none;stroke-dashoffset:0;stroke-opacity:1" d="M528 900c-12-5-13-6-13-8s1-4 4-6c6-5 5-7-2-18l-5-9c0-2 3-3 7-4 9-2 13-4 18-9 7-6 6-9-6-16-5-3-14-13-14-14l6-3c7-3 13-7 18-13 5-7 4-10-1-12-8-3-11-4-12-7-2-4-2-4 2-10 4-5 5-10 2-20-2-7-2-12 0-15l5 4c7 7 11 10 35 18 1 0-1 6-7 18-15 31-15 31-20 95l-4 35-13-6z" transform="translate(14 16) scale(.23947)"/><path style="opacity:1;vector-effect:none;fill:#6c5d53;fill-opacity:1;stroke:none;stroke-width:1.2694515;stroke-linecap:round;stroke-linejoin:miter;stroke-miterlimit:4;stroke-dasharray:none;stroke-dashoffset:0;stroke-opacity:1" d="M424 1015c-13-1-25-4-33-7l-4-1 7-1c9-1 47 4 68-2 36-9 38-25 44-26l30-1-7 4c-36 20-63 31-84 34h-21z" transform="translate(14 16) scale(.23947)"/><path style="opacity:1;vector-effect:none;fill:#9e9381;fill-opacity:1;stroke:none;stroke-width:2.538903;stroke-linecap:round;stroke-linejoin:miter;stroke-miterlimit:4;stroke-dasharray:none;stroke-dashoffset:0;stroke-opacity:1" d="M620 890a381 381 0 0 0-29-99c-7-19-12-39-8-39l5 12c2 5 5 10 10 15l4 5v10c1 8 1 11 4 18a25428 25428 0 0 1 12 36c1 11 4 23 7 29s3 10-1 13-4 3-4 0zM621 930c-5-10-5-24-2-29l5-6c2-1 2-1 2 17 0 22-1 25-2 25l-3-7z" transform="translate(14 16) scale(.23947)"/><path style="opacity:1;vector-effect:none;fill:#9e9381;fill-opacity:1;stroke:none;stroke-width:.89763778;stroke-linecap:round;stroke-linejoin:miter;stroke-miterlimit:4;stroke-dasharray:none;stroke-dashoffset:0;stroke-opacity:1" d="M544 965h-2v-2l3-5 2-4c0-2-2-3-8-7a68 68 0 0 1-18-15l5-1h7c3-1 5-3 7-7s2-6-1-8l-1-2 1-2 1-1 2 1 7 3 4 2v18c0 23 0 27-3 30h-6z" transform="translate(14 16) scale(.23947)"/><path style="opacity:.52399998;vector-effect:none;fill:#aca793;fill-opacity:1;stroke:none;stroke-width:3.59055114;stroke-linecap:round;stroke-linejoin:miter;stroke-miterlimit:4;stroke-dasharray:none;stroke-dashoffset:0;stroke-opacity:1" d="m651 874 2-8c4-8 8-24 7-31-1-8-4-10-15-10-8 0-9-1-11-4-3-4-2-10 5-23 6-13 6-15-2-19-11-5-24-15-31-23a62 62 0 0 1-16-48c1-13 2-15 4-14s4 0 5-2c3-4 9-4 11-1 2 1 3 1 4-1 2-2 8-4 25-8a3440 3440 0 0 0 38-7l4 6c4 5 4 6 4 23 0 35 3 52 13 75 8 20 8 23 0 58l-6 30-12 2c-7 0-16 2-20 4-10 4-9 3-9 1zM443 887a411 411 0 0 1-18-92 37343 37343 0 0 1-10-104c1-1 5 1 10 2l10 3v9c0 9 1 10 4 5 2-5 5-5 7-2 4 4 7 5 10 4 3-2 3-2 2 3l-1 23c0 23 2 30 11 40 6 6 6 7 3 9l-11 1c-14-1-14-1-14 23 0 22 1 26 5 29 4 2 16 3 22 1 3-1 3 0 2 5l3 24 2 17h-37zM452 935l-12-5c-2-3 4-35 6-36s33-2 34-1c2 2-2 6-7 7-6 2-21 14-21 18l7 8 7 10c2 4 0 3-14-1zM657 924c-5-5-6-11-3-22 3-9 3-11 1-16l-3-6 6-2c11-3 17-5 25-5h8l-1 5-6 42-1 6h-9l-11 1-6-3z" transform="translate(14 16) scale(.23947)"/><path style="opacity:.52399998;vector-effect:none;fill:#483737;fill-opacity:1;stroke:none;stroke-width:2.538903;stroke-linecap:round;stroke-linejoin:miter;stroke-miterlimit:4;stroke-dasharray:none;stroke-dashoffset:0;stroke-opacity:1" d="m528 682-12-41 7 12c6 12 6 13 15 21l10 8 4-2 9-7 7-4 6 4 7 3c2 0 2-1 3-6 1-7 2-10 3-10l4 5 4 5-2-8-4-35c-1-18-3-25-20-77l-24-81c-5-24-10-33-15-33l3-2 6-2a776 776 0 0 1 72 254l-5-3-4-3-3 5-3 6-6-3c-7-3-9-3-10 3l-1 3-4-4-6-4-2 6-2 6-4-3c-3-5-5-5-8 0s-4 5-9 3-8-2-10 0l-6-16zM514 712l-3-5-6 4-5 4-5-5c-4-4-5-4-6-3l-3 3-2 3-4-5-3-5c-1 0-3 2-4 5l-5 5-2-5c-1-5-3-5-8-2l-5 3-5-4c-4-3-5-3-7-2l-2 1v-54c2-30 4-50 8-78l7-50c9-73 9-68 11-68s2 11 1 32c-1 12-3 20-7 40-7 32-7 32-10 66a1062 1062 0 0 1-7 71l-2 18c0 3 0 3 2 3l23-5c1-1 2 0 4 3l2 4 10-5c6-3 11-5 12-4l6 6 7 7c2 1 2 1 4-1s3-4 3-21l1-19 4 12 4 13-3 20-3 21-2-3z" transform="translate(14 16) scale(.23947)"/><path style="opacity:.52399998;vector-effect:none;fill:#483737;fill-opacity:1;stroke:none;stroke-width:2.538903;stroke-linecap:round;stroke-linejoin:miter;stroke-miterlimit:4;stroke-dasharray:none;stroke-dashoffset:0;stroke-opacity:1" d="m495 580-12-37c-2-11-3-23-3-48v-24l5 28a2631 2631 0 0 1 20 111l-10-30zM485 441c-2-1-1-5 1-7 1-1 4-2 12-2 11-1 17-3 22-8l3-3-2-4c-1-4-2-3 4-10v-4c-2-2-3-2-14-2-13-1-19 0-37 7l-9 2c-1-1 6-13 9-15 9-6 38-6 58 1 13 4 15 9 16 28 1 18 0 19-4 11-3-5-4-6-6-6l-17 6c-13 5-16 6-25 6h-11z" transform="translate(14 16) scale(.23947)"/><path style="opacity:.52399998;vector-effect:none;fill:#483737;fill-opacity:1;stroke:none;stroke-width:1.79527557;stroke-linecap:round;stroke-linejoin:miter;stroke-miterlimit:4;stroke-dasharray:none;stroke-dashoffset:0;stroke-opacity:1" d="M460 450v-20l2 4 3 16-2 1c-2 1-2 0-3-1z" transform="translate(14 16) scale(.23947)"/><path style="opacity:.52399998;vector-effect:none;fill:#594444;fill-opacity:1;stroke:none;stroke-width:1.79527557;stroke-linecap:round;stroke-linejoin:miter;stroke-miterlimit:4;stroke-dasharray:none;stroke-dashoffset:0;stroke-opacity:1" d="M551 413c0-2 0-2 3-4 4-2 5-3 9-10 6-11 7-12 15-15l13-7c7-5 9-8 11-18 2-16 5-24 9-27l6-3 7-2 2-1-4 5a49 49 0 0 0-10 41c0 1 0 2-3 3l-4 4c-1 3 0 2-13 11-14 11-38 26-41 26v-3z" transform="translate(14 16) scale(.23947)"/><path style="opacity:.52399998;vector-effect:none;fill:#594444;fill-opacity:1;stroke:none;stroke-width:1.79527557;stroke-linecap:round;stroke-linejoin:miter;stroke-miterlimit:4;stroke-dasharray:none;stroke-dashoffset:0;stroke-opacity:1" d="m527 391-10-2c-8-1-8-1-2-3l37-19c14-9 29-22 37-32 10-13 17-34 21-61l1-11 3-1c3 0 8-2 10-6 3-4 5-9 9-24l3-14 1-7v-6l4 6c7 14 8 21 9 51 1 12 0 39-1 44 0 1-2 3-6 5l-10 9-6 5 3-6c1-4 3-6 5-7 6-4 10-8 12-12 3-6 2-12-3-26l-4-13c0-3-1-2-2 1l-7 15-1 2v-9c1-9 0-12-2-12l-5 6c-4 4-5 5-5 8 1 17 1 16-3 31-6 20-8 25-18 34l-8 8-1 5c-1 7-5 13-10 16-3 2-4 2-11 2l-10 2c-5 2-10 7-17 15l-7 8-6-2zM457 404h-7c-15 3-29-4-37-19-4-7-9-17-15-35-6-14-6-16-13-25l-4-6 2-3 1-3 3 4c2 6 7 11 11 13l7 2 4 1v3l4 24c5 16 13 27 24 32 6 2 13 4 23 4h9l-1 2-3 4c-2 4-3 4-8 2zM440 442c-11-2-23-7-30-14l-3-4a650 650 0 0 0 45 8h4v11h-5l-11-1z" transform="translate(14 16) scale(.23947)"/><path style="opacity:.52399998;vector-effect:none;fill:#deaa87;fill-opacity:1;stroke:none;stroke-width:1.79527557;stroke-linecap:round;stroke-linejoin:miter;stroke-miterlimit:4;stroke-dasharray:none;stroke-dashoffset:0;stroke-opacity:1" d="m617 537-8-2c-6-1-14-6-15-7a1138 1138 0 0 0-29-63c-6-10-7-14-1-16 3-2 11-2 11 0l-4 3-4 3c-1 2 0 7 7 22 12 24 17 33 28 45 8 7 11 9 19 11h12c7-1 17-5 31-11 14-5 15-6 20-19 8-18 8-20 7-34-1-9-1-9 1-15a296 296 0 0 0 8-45c0-10 0-10-2-14s-2-6 2-5c2 0 4 1 5 3 2 1 2 2 2 6a420 420 0 0 1-11 67c1 1 0 16-1 22-1 8-4 17-6 23-3 7-10 12-21 17-14 6-39 10-51 9z" transform="translate(14 16) scale(.23947)"/><path style="opacity:.52399998;vector-effect:none;fill:#deaa87;fill-opacity:1;stroke:none;stroke-width:.63472575;stroke-linecap:round;stroke-linejoin:miter;stroke-miterlimit:4;stroke-dasharray:none;stroke-dashoffset:0;stroke-opacity:1" d="M636 453c-4-3-3-3-8-2h-2l2-2 3-3-1-4-1-4c-1-2-1-2-6-3h-3l2-1 7-3v-6a1077 1077 0 0 1-4-16h-8l5-2 5-3-3-14c-2-7-2-9-4-10h-6c-4 1-6 2-7 4v-1c0-4 1-5 5-7 8-4 13-3 15 1a554 554 0 0 1 8 72h1v-7h4v6h2l-1 1-3 5-2-1zM642 446v-12l-2-57 4-4 5-1 6 1c2 0 3 2 4 3v1h-10c-6 0-7 3-7 14l1 12c1 1 2 2 7 2s5 0 4 1l-9 2h-2l-1 1 1 7a115 115 0 0 1 1 11l1 1h-1v3l1 9c0 3 1 4 2 5l-3 2-2 1z" transform="translate(14 16) scale(.23947)"/><path style="opacity:.52399998;vector-effect:none;fill:#deaa87;fill-opacity:1;stroke:none;stroke-width:.44881889;stroke-linecap:round;stroke-linejoin:miter;stroke-miterlimit:4;stroke-dasharray:none;stroke-dashoffset:0;stroke-opacity:1" d="m676 453-4-4 1-1 2-1 3-3c1-2 0-11-1-13l-5-2c-2 0-2 0 1-1l6-1c1-1 2-3 2-11a63 63 0 0 1 0-7l-6-3-2-1h9l1-4c2-9 2-17 1-20l-2-2-2-2-2-1a14 14 0 0 0-6 0l1-1c2-2 4-2 8-3h3l1 2 1 10-1 12a1919 1919 0 0 0-7 53v1h1l1-2v-2l1 1h1v3h2v-1l1-2v2l1 1-8 4-2-1z" transform="translate(14 16) scale(.23947)"/><path style="opacity:.52399998;vector-effect:none;fill:#deaa87;fill-opacity:1;stroke:none;stroke-width:.44881889;stroke-linecap:round;stroke-linejoin:miter;stroke-miterlimit:4;stroke-dasharray:none;stroke-dashoffset:0;stroke-opacity:1" d="M685 446a1600 1600 0 0 1 10-47l-2 8 1 2v3h-3l-1 8-2 9 2 1a26 26 0 0 0 2 3h-2c-3 1-3 2-4 9a34 34 0 0 1-1 4z" transform="translate(14 16) scale(.23947)"/><path style="fill:#ffb380;stroke:#c87137;stroke-width:.26458332px;stroke-linecap:butt;stroke-linejoin:miter;stroke-opacity:1" d="m164 124 8 2h9" transform="translate(14 16) scale(.90508)"/><path style="fill:#ffb380;fill-opacity:1;stroke:#c87137;stroke-width:.26458332px;stroke-linecap:butt;stroke-linejoin:miter;stroke-opacity:1" d="M166 129s5 2 6 4l2 4M176 136c0-1-1-4 1-6l3-1" transform="translate(14 16) scale(.90508)"/><path style="opacity:.34800002;vector-effect:none;fill:#deaa87;fill-opacity:1;stroke:none;stroke-width:.89763778;stroke-linecap:round;stroke-linejoin:miter;stroke-miterlimit:4;stroke-dasharray:none;stroke-dashoffset:0;stroke-opacity:1" d="m656 509-2-1-2-3c-1-3-5-7-9-9l-11-7-2-2-6-15 3 1c7 2 16 2 39 3h15l-3 10-6 4c-6 3-8 5-9 9v9l-1 1h-6z" transform="translate(14 16) scale(.23947)"/><g><path style="fill:#ffbe92;fill-opacity:1;stroke:#f95;stroke-width:.86500001;stroke-linecap:butt;stroke-linejoin:miter;stroke-miterlimit:4;stroke-dasharray:none;stroke-opacity:1" d="M-134 108c-3 0-6 4-9 13s-9 32-5 34c3 1 8 0 12-3 3-3 10-20 10-20" transform="translate(153 19) scale(.90508)"/><path d="M-119 216c1 3 7 16 4 20s-13 9-10 11 12 2 16 0c4-1 9-8 10-11v-20" style="fill:#fca;fill-opacity:1;stroke:#f95;stroke-width:.74227345;stroke-linecap:butt;stroke-linejoin:miter;stroke-miterlimit:4;stroke-dasharray:none;stroke-opacity:1" transform="matrix(-.84256 0 0 .84256 -11 35)"/><path d="M-116 237s-17 9-20 14c-2 5 2 8 7 10s14-2 19-5l15-13c2-2 0-5-1-7s-1-3-2-1c-2 2-8 11-12 13-5 1-11 0-13-1-3-1 2-5 3-6l4-4z" style="fill:#d35f5f;stroke:#782121;stroke-width:.565;stroke-linecap:butt;stroke-linejoin:miter;stroke-miterlimit:4;stroke-dasharray:none;stroke-opacity:1" transform="matrix(-.84256 0 0 .84256 -11 35)"/><path d="M-136 256c4 4 11 5 16 3l10-4 9-7 7-7c1 1-1 3-2 4l-9 8c-4 4-9 8-14 9-6 1-12 1-16-3-1-1-2-2-1-3z" style="fill:#483737;stroke:#000;stroke-width:.26458332px;stroke-linecap:butt;stroke-linejoin:miter;stroke-opacity:1" transform="matrix(-.84256 0 0 .84256 -11 35)"/><path d="M-119 216c1 3 7 16 4 20s-13 9-10 11 12 2 16 0c4-1 9-8 10-11v-20" style="fill:#fca;fill-opacity:1;stroke:#f95;stroke-width:.74227345;stroke-linecap:butt;stroke-linejoin:miter;stroke-miterlimit:4;stroke-dasharray:none;stroke-opacity:1" transform="translate(152 36) scale(.84256)"/><path d="M-116 237s-17 9-20 14c-2 5 2 8 7 10s14-2 19-5l15-13c2-2 0-5-1-7s-1-3-2-1c-2 2-8 11-12 13-5 1-11 0-13-1-3-1 2-5 3-6l4-4z" style="fill:#d35f5f;stroke:#782121;stroke-width:.565;stroke-linecap:butt;stroke-linejoin:miter;stroke-miterlimit:4;stroke-dasharray:none;stroke-opacity:1" transform="translate(152 36) scale(.84256)"/><path d="M-136 256c4 4 11 5 16 3l10-4 9-7 7-7c1 1-1 3-2 4l-9 8c-4 4-9 8-14 9-6 1-12 1-16-3-1-1-2-2-1-3z" style="fill:#483737;stroke:#000;stroke-width:.26458332px;stroke-linecap:butt;stroke-linejoin:miter;stroke-opacity:1" transform="translate(152 36) scale(.84256)"/><path style="fill:#bec8b7;stroke:#ac9d93;stroke-width:1.21013951;stroke-linecap:butt;stroke-linejoin:miter;stroke-miterlimit:4;stroke-dasharray:none;stroke-opacity:1" d="M-128 138s-6 15-10 38c-4 24-9 42-6 44 2 2 52 10 75 8s36-16 35-23-11-54-17-65c-7-11-77-2-77-2z" transform="translate(153 19) scale(.90508)"/><path style="fill:#fca;fill-opacity:1;stroke:#000;stroke-width:.2463069px;stroke-linecap:butt;stroke-linejoin:miter;stroke-opacity:1" d="M-109 91s-29 5-25 15c3 10 18 17 31 24 14 6 31-4 38-10 8-6 14-14 13-19 0-5-10-12-17-13l-40 3z" transform="translate(153 19) scale(.90508)"/><path style="fill:#ffbe92;fill-opacity:1;stroke:none;stroke-width:.2463069px;stroke-linecap:butt;stroke-linejoin:miter;stroke-opacity:1" d="M-109 94c-1 0-11 4-7 13 5 8 33 14 27 12-6-3-15-7-14-9 0-3 1-1 10 2 9 2 18-11 18-9s-8 17-4 13c4-3 7-11 9-18 2-6 5-9-2-9l-37 5z" transform="translate(153 19) scale(.90508)"/><g transform="translate(82 64) scale(.84256)"><ellipse ry="13.1" rx="14.3" cy="-25.1" cx="-13.4" style="opacity:1;vector-effect:none;fill:#e6e6e6;fill-opacity:1;stroke:#ccc;stroke-width:.76499999;stroke-linecap:butt;stroke-linejoin:miter;stroke-miterlimit:4;stroke-dasharray:none;stroke-dashoffset:0;stroke-opacity:1"/><path d="M-14-7C-30-7-44 4-44 19c0 6 2 13 6 19l-1 2c3 10 19 21 28 22 9-3 23-14 23-23v-2c2-6 4-13 4-18C16 4 2-7-14-7z" style="opacity:1;vector-effect:none;fill:#fca;fill-opacity:1;stroke:#f95;stroke-width:.85251367;stroke-linecap:butt;stroke-linejoin:miter;stroke-miterlimit:4;stroke-dasharray:none;stroke-dashoffset:0;stroke-opacity:1"/><path d="m-13 61-6-2c-8-4-15-10-18-16l-1-4v-1l-1-1c-2-5-4-11-4-16v-1l1-1 1-2 5-5-2 4-2 7c-1 4 0 7 2 11v3l3 5c3 5 13 14 17 16 3 2 8 2 11 1l7-6 8-8c2-2 4-14 4-19v-3a27 27 0 0 0-3-6l-4-5-2-1A99 99 0 0 1-22 0l3-2 3-1a125 125 0 0 1 30 23l1 1-3 14-1 3-2 8C5 52-3 58-9 61h-4z" style="opacity:.56800022;vector-effect:none;fill:#ffb380;fill-opacity:1;stroke:none;stroke-width:.58841383;stroke-linecap:butt;stroke-linejoin:miter;stroke-miterlimit:4;stroke-dasharray:none;stroke-dashoffset:0;stroke-opacity:1"/><path d="M-36 39s4-5 8-5c3 0 8 2 8 5-1 2-3 2-4 5 0 2 2 3 0 5l-2 3-3-2" style="fill:url(#i);fill-opacity:1;stroke:none;stroke-width:.23374188px;stroke-linecap:butt;stroke-linejoin:miter;stroke-opacity:1"/><path d="M11 36s-4-4-7-4c-4-1-9 2-9 4l4 6v5c1 2 1 3 2 2l3-1" style="fill:url(#j);fill-opacity:1;stroke:none;stroke-width:.23374188px;stroke-linecap:butt;stroke-linejoin:miter;stroke-opacity:1"/><path d="M-48 25c1 1 5 6 5 12-1 5-2 8-4 6-3-1-2-4-3-4 0 0-3 5 2 7 4 3 7 1 8 0l3-7-3-12-4-8-4 6zM19 16c0 2-3 8-2 13s3 7 5 5c2-1 1-4 2-4 0 0 4 4 0 7s-7 3-8 1c-2-1-4-5-4-6V20l3-9 4 5z" style="fill:#e6e6e6;fill-opacity:1;stroke:#ccc;stroke-width:.86500001;stroke-linecap:butt;stroke-linejoin:miter;stroke-miterlimit:4;stroke-dasharray:none;stroke-opacity:1"/><path d="M-44 22s-1-3 10-13S-18-5-15-3L8 13c7 6 10 11 11 4 2-7-3-24-10-30s-21-7-29-5c-9 1-15 1-21 9s-10 17-9 25c1 9 4 11 4 10l2-4z" style="fill:#e6e6e6;fill-opacity:1;stroke:#ccc;stroke-width:1.13399994;stroke-linecap:butt;stroke-linejoin:miter;stroke-miterlimit:4;stroke-dasharray:none;stroke-opacity:1"/><path d="M-21 19h-9c-5 2-9 6-8 4s1-5 7-6c6-2 9-1 10-1v3z" style="fill:#e6e6e6;fill-opacity:1;stroke:#ccc;stroke-width:.66500002;stroke-linecap:butt;stroke-linejoin:miter;stroke-miterlimit:4;stroke-dasharray:none;stroke-opacity:1"/><path d="m-23 23-8 1c-4 2-4 4-1 7 3 2 9 0 10-1 3-1 3-4-1-7z" style="fill:#f4e3d7;stroke:#000;stroke-width:.23435101px;stroke-linecap:butt;stroke-linejoin:miter;stroke-opacity:1"/><circle transform="rotate(7)" cy="29.6" cx="-21.9" style="opacity:1;vector-effect:none;fill:#28170b;fill-opacity:1;stroke:#a05a2c;stroke-width:1.35800004;stroke-linecap:butt;stroke-linejoin:miter;stroke-miterlimit:4;stroke-dasharray:none;stroke-dashoffset:0;stroke-opacity:1" r="2.4"/><path d="M-4 22s5-2 8-1 4 4 1 7c-2 2-8 1-9 1-3 0-4-3 0-7z" style="fill:#f4e3d7;stroke:#000;stroke-width:.23435101px;stroke-linecap:butt;stroke-linejoin:miter;stroke-opacity:1"/><circle transform="scale(-1 1) rotate(18)" cy="23.7" cx="7.1" style="opacity:1;vector-effect:none;fill:#28170b;fill-opacity:1;stroke:#a05a2c;stroke-width:1.35800004;stroke-linecap:butt;stroke-linejoin:miter;stroke-miterlimit:4;stroke-dasharray:none;stroke-dashoffset:0;stroke-opacity:1" r="2.4"/><path d="M-27 22c-3 0-5 2-8 4-1 1-3-4-3-1s4 2 4 4c1 3 4 3 6 3l7-2c-3 0-6 2-9 1-2-1-5-4-2-5 4-3 10-2 12 2 2 2 1-3 0-3-2-2-4-2-7-3zM-1 20c3-1 6 1 8 2s3-4 3-1c1 3-3 2-3 5 0 2-3 3-5 4l-7-1c2 0 6 1 9-1 2-1 4-4 1-5-4-2-10 0-12 4v-3l6-4z" style="fill:#28170b;stroke:#000;stroke-width:.26458332px;stroke-linecap:butt;stroke-linejoin:miter;stroke-opacity:1"/><path d="M-8 19c1 0 4-2 9-2l8 2c-1-1-2-4-8-5-6 0-9 2-9 2v3z" style="fill:#e6e6e6;fill-opacity:1;stroke:#ccc;stroke-width:.66500002;stroke-linecap:butt;stroke-linejoin:miter;stroke-miterlimit:4;stroke-dasharray:none;stroke-opacity:1"/><path d="M-19 45c1-3 5-2 7-1 2 0 4-3 6-1 3 2-1 4-2 6-3 2-6 1-8-1l-3-3z" style="fill:#e9afaf;stroke:#faa;stroke-width:1.2942307;stroke-linecap:butt;stroke-linejoin:miter;stroke-miterlimit:4;stroke-dasharray:none;stroke-opacity:1"/><path d="M-21 44s5 3 11 2 6-3 6-3l-5 4c-3 1-8 0-9-1l-3-2z" style="fill:#fff;stroke:#d35f5f;stroke-width:.49914017;stroke-linecap:butt;stroke-linejoin:miter;stroke-miterlimit:4;stroke-dasharray:none;stroke-opacity:1"/><path style="opacity:1;fill:#d5f663;fill-opacity:.25628142;stroke:#000;stroke-width:1.16499996;stroke-linecap:butt;stroke-linejoin:miter;stroke-miterlimit:4;stroke-dasharray:none;stroke-opacity:1" d="M39 82 9 86s3 6 9 9c7 4 16 1 19-2 4-3 4-11 4-11h-2zM47 82l30-1c-1 0-2 6-8 10-6 5-15 4-19 1s-6-10-5-10h2z" transform="translate(-56 -53)"/><path style="fill:#000;fill-opacity:1;stroke:#000;stroke-width:.26458332px;stroke-linecap:butt;stroke-linejoin:miter;stroke-opacity:1" d="M41 82h4v2l-4 1z" transform="translate(-56 -53)"/><path d="M-9 39h1l1-2c0-2 0-4-2-4h-5l-3 2v4h2" style="fill:#fca;stroke:#f95;stroke-width:.81275314;stroke-linecap:butt;stroke-linejoin:miter;stroke-miterlimit:4;stroke-dasharray:none;stroke-opacity:1"/><path d="m-13 39-1 1-1-1h2c1 0 0 0 0 0zM-12 39l2 1 1-1h-3z" style="opacity:1;vector-effect:none;fill:#d38d5f;fill-opacity:1;stroke:none;stroke-width:.21365415;stroke-linecap:butt;stroke-linejoin:miter;stroke-miterlimit:4;stroke-dasharray:none;stroke-dashoffset:0;stroke-opacity:1"/><path d="m17 19-1-3c-1-6-2-6-5-11L7-4c-2-4-2-5-6-8l-6-6 4 1 11 6c3 4 6 10 8 17v13h-1zM-3-18l-2-1h-2v-2l1-2 1-1-1-3v-9l1 1c3 2 5 5 5 8v5l-1 3-2 1z" style="opacity:.56800022;vector-effect:none;fill:#f9f9f9;fill-opacity:1;stroke:none;stroke-width:.58841383;stroke-linecap:butt;stroke-linejoin:miter;stroke-miterlimit:4;stroke-dasharray:none;stroke-dashoffset:0;stroke-opacity:1"/><path d="M-22-10s-2 9 4 15c5 7 15 8 20 8l12 1C13 14-2 6-5 1c-2-4 0-5-3-8s-14-4-14-4v2z" style="fill:#e6e6e6;fill-opacity:1;stroke:#ccc;stroke-width:.86500001;stroke-linecap:butt;stroke-linejoin:miter;stroke-miterlimit:4;stroke-dasharray:none;stroke-opacity:1"/><path d="m-20-14-1 6 12 5 2-6-13-5z" style="fill:#e6e6e6;fill-opacity:1;stroke:none;stroke-width:.26458332px;stroke-linecap:butt;stroke-linejoin:miter;stroke-opacity:1"/><path d="M1 11c-3-1-7-2-9-4l-5-3-1-2c-2-5-5-11-5-15 0-1-2-2-5-2a42 42 0 0 0-9 0l6-2h4l3-1 1 1 5 2 2 1v2c2 8 4 15 6 17l8 5 2 1H1z" style="opacity:1;vector-effect:none;fill:#f1f1f1;fill-opacity:1;stroke:none;stroke-width:.43689099;stroke-linecap:butt;stroke-linejoin:miter;stroke-miterlimit:4;stroke-dasharray:none;stroke-dashoffset:0;stroke-opacity:1"/><path d="M-14-36s-6 1-8 3c-1 2-2 2-2 5-1 2-2 2-1 5l2 3 6-2-1-3 2-4 1-1zM-23-10s2 6-3 9L-37 9c-5 4-8 8-8 10l-1 4c-1-1-5-10-3-12l14-7c2-1 5-8 1-5-3 3-7 6-7 4 1-2-2-6 4-8 7-1 13-6 14-5z" style="fill:#f1f1f1;fill-opacity:1;stroke:none;stroke-width:.26458332px;stroke-linecap:butt;stroke-linejoin:miter;stroke-opacity:1"/></g><path style="fill:#de8787;stroke:#d35f5f;stroke-width:.9914338;stroke-linecap:butt;stroke-linejoin:miter;stroke-miterlimit:4;stroke-dasharray:none;stroke-opacity:1" d="M-65 89h-2s5 7 5 12c0 4-2 12-5 17-4 4-21 12-24 12s-9-1-13-4-15-12-19-21c-3-7 2-11 3-12-2 1-16 7-17 11 0 6 4 26 7 32l1 1-1 4-3 14s22 10 38 10c15 0 43-8 46-11 4-3-2-13-2-15l4-8c2-11-3-37-10-40-3-2-6-2-8-2zm-55 4h1-1z" transform="translate(153 19) scale(.90508)"/><path style="fill:url(#k);fill-opacity:1;stroke:#d35f5f;stroke-width:.9914338;stroke-linecap:butt;stroke-linejoin:miter;stroke-miterlimit:4;stroke-dasharray:none;stroke-opacity:1" d="M-65 89h-2s5 7 5 12c0 4-2 12-5 17-4 4-21 12-24 12s-9-1-13-4-15-12-19-21c-3-7 2-11 3-12-2 1-16 7-17 11 0 6 4 26 7 32l1 1-1 4-3 14s22 10 38 10c15 0 43-8 46-11 4-3-2-13-2-15l4-8c2-11-3-37-10-40-3-2-6-2-8-2zm-55 4h1-1z" transform="translate(153 19) scale(.90508)"/><g><path d="m4 104-5-2c-3-1-12 1-15 4-2 3-2 12 1 13 4 0 21-7 21-8 1-2-2-7-2-7z" style="fill:#fca;fill-opacity:1;stroke:#f95;stroke-width:.565;stroke-linecap:butt;stroke-linejoin:miter;stroke-miterlimit:4;stroke-dasharray:none;stroke-opacity:1" transform="translate(39 10) scale(.90508)"/><path d="m-16 118 3 10 4 3c2 0 3-1 3-2l-5-8-1-4M-11 117l7 11c2 1 3 0 3-1 1-1-1-5-2-7l-2-5M-3 115l3 4 3 7h3c1-2-1-8-2-10l-3-4M5 107l5 5c1 2 3 9 2 10 0 1-2 2-3 1l-3-9-3-2" style="fill:#fca;fill-opacity:1;stroke:#f95;stroke-width:.565;stroke-linecap:butt;stroke-linejoin:miter;stroke-miterlimit:4;stroke-dasharray:none;stroke-opacity:1" transform="translate(39 10) scale(.90508)"/></g><path style="fill:#ffbe92;fill-opacity:1;stroke:#f95;stroke-width:.66500002;stroke-linecap:round;stroke-linejoin:miter;stroke-miterlimit:4;stroke-dasharray:none;stroke-opacity:1" d="M-139 153s-3 2-7 2-10-2-11-5 1-10 3-11l14-4 6 4" transform="translate(153 19) scale(.90508)"/><path style="fill:#fca;fill-opacity:1;stroke:#f95;stroke-width:.465;stroke-linecap:butt;stroke-linejoin:miter;stroke-miterlimit:4;stroke-dasharray:none;stroke-opacity:1" d="m-152 116-1 3 2 15h-1l-3-11-2-6-2 3 3 14-3-9-2-6c-1 0-2 1-2 3l2 14-2-8-2-7-1 3 2 15 2 6c6 12 15 7 18 2 2-2 2-5 3-7l1-11c0-2-1-4-2-3l-2 6-1 3-1-2-4-11-2-6z" transform="translate(153 19) scale(.90508)"/></g><path d="m-155 200 5 3h9c2-2 4-1 3 0 0 2-1 5-8 5-6 0-10 0-10-2l1-6zM-133 199l9-9c1 1 2 0 1 2-1 3-10 11-10 10v-3zM-104 203c2 2 1 2 7 3 6 0 9-1 10-3 0-1 1-3-2-5-3-1 0-1-6 1-6 1-9 4-9 4zM-115 197s4 5 6 5l8-3-8-2-7-3 1 3z" style="fill:#f55;stroke:none;stroke-width:.26458332px;stroke-linecap:butt;stroke-linejoin:miter;stroke-opacity:1" transform="translate(181 66) scale(.90508)"/><path d="m-137 196 4-4 4-4v-13l1 1h4v11l-2 2-7 8-4 1h-2zM-109 196l-5-3-5-7-1-1v-9h5l1 1v4a4550 4550 0 0 0-5-2v2l1 5 2-1 7 8 3 3h-3z" style="opacity:.34800002;vector-effect:none;fill:#f95;fill-opacity:1;stroke:none;stroke-width:.49357143;stroke-linecap:round;stroke-linejoin:miter;stroke-miterlimit:4;stroke-dasharray:none;stroke-dashoffset:0;stroke-opacity:1" transform="translate(181 66) scale(.90508)"/><path d="M-117 175a409 409 0 0 1-58-9l3-20a752 752 0 0 0 9-43 2081 2081 0 0 1 6 3l-2 4-8 29c-2 8-2 12-1 17 1 7 3 10 5 12h1l4-2 9-4 4-1 1 1 1 3c1 2 2 3 4 3l2 1h2c1-1 3-4 6-13l2-5v-1 4c-1 7-1 11 1 13l4 2 6 3 2 1c2 0 2-1 4-4l1-12a239 239 0 0 0-2-32l1-6h1l2 5 5 17a22875 22875 0 0 1 4 20l5 6c2 3 3 2 4-1l-2-20a234 234 0 0 1-3-31c2 1 4 6 7 20 2 12 4 17 5 18 2 2 6 0 13-6l3-2a149 149 0 0 1 1 9c-1 4-5 9-10 13-7 4-14 7-24 8h-18z" style="opacity:.26000001;vector-effect:none;fill:#f2f2f2;fill-opacity:1;stroke:none;stroke-width:.34900773;stroke-linecap:round;stroke-linejoin:miter;stroke-miterlimit:4;stroke-dasharray:none;stroke-dashoffset:0;stroke-opacity:1" transform="translate(181 66) scale(.90508)"/></svg>