<svg id="OBJECTS" xmlns="http://www.w3.org/2000/svg" viewBox="0 0 500 413"><defs><style>.cls-1{fill:#56479a;}.cls-2{fill:#ea945e;}.cls-3{fill:#28285c;}.cls-4{fill:#00c5a7;}.cls-5{fill:#d47952;}.cls-6{fill:#d45d67;}.cls-7{fill:#f7c8ae;}.cls-8{fill:#eaa896;}.cls-9{fill:#ea9c87;}.cls-10{fill:#763154;}.cls-11{fill:#ed7c98;}</style></defs><title>Mesa de trabajo 1</title><path class="cls-1" d="M385.21,212.1c14.25-3.83,28.13-9,44.6-11.38s24.78-11.57,23.24-24c-2.13-17.11-15.14-33.66-29.86-54-14.08-19.5-21.7-7.83-36.41-4.77s-24.81,3.61-25.21,22.5C360.68,182.23,357.9,219.44,385.21,212.1Z"/><path class="cls-2" d="M391.16,257.3c-2.28-2.32-1.44-9.65.91-15.84a113.26,113.26,0,0,1-12.85.93c-.8,9.48-.39,19.27,3.71,23.57,9,9.42,30.4-5.52,32.35-3a28.37,28.37,0,0,0-.22-5.95C409.85,258.18,394.6,260.8,391.16,257.3Z"/><path class="cls-2" d="M453,236.92c-3.88,3.22-14.32,12.59-17.75,6.91-1.76-2.91-1.36-8.13-.91-14.72-4.28,1.86-8.62,3.59-13,5.14,3.92,9.6,4.48,16,11,19.26,7.92,4,24.45-13.12,25.32-14a10.26,10.26,0,0,0-1.27-5.13A31.07,31.07,0,0,0,453,236.92Z"/><path class="cls-3" d="M416.3,256.66l-1.22.31a28.37,28.37,0,0,1,.22,5.95.57.57,0,0,1,.09.11c1.38,3.06.7,8,3.45,7.66S419.65,255.7,416.3,256.66Z"/><path class="cls-3" d="M433.92,207.4C431.3,191.93,383,219.58,383,219.58a164.43,164.43,0,0,0-3.77,22.81,10.76,10.76,0,0,0,12.85-.93c1.53-4,3.69-7.58,6.05-9,6-3.51,17.75-10.55,22.15-.79.4.88.75,1.73,1.09,2.56,5-.36,10-2.12,13-5.14C434.81,222.84,435.27,215.33,433.92,207.4Z"/><path class="cls-3" d="M461.21,235.52c-1.23-2.27-2.52-2.52-4.75-1.16a10.26,10.26,0,0,1,1.27,5.13l0,0s3.38,9.34,5.92,8C467,245.76,463,238.76,461.21,235.52Z"/><path class="cls-2" d="M275.27,98c.32-1.24,3.82.61,3.82.61s-2.9-3.57-2.17-4.15,4,1.92,4,1.92-2-4.5-.88-4.57,3.24,3.09,3.24,3.09-.8-4.45.29-4.25,4.06,6.18,4.08,6.22h0s1.7-2.57,2.34-1.71c.45.61,0,3.07-.38,4.45A132.36,132.36,0,0,0,313.73,124c19.68,15.58,52.56,17.71,52.56,17.71l0,.54a25,25,0,0,1-2.07,12.06h0c-50.86-.26-75.78-35.25-83.44-48.4h0C279.07,103,275.14,98.52,275.27,98Z"/><path class="cls-2" d="M420.5,136.64s29.07,5.52,36.75,17c7.85,11.73-26.42,23.21-26.42,23.21l-8.8-9.47L445,156a158.53,158.53,0,0,0-25.94-6.3Z"/><path class="cls-4" d="M408.64,146.44l10,5.78a.93.93,0,0,0,1-.36c3.29-4.77,4.44-13.82,4.74-16.85a.92.92,0,0,0-.92-1c-8.9,0-12.09-2.51-30.08.52h0l-21.75,4.64a35.63,35.63,0,0,1-22.49-2.49l-.35-.16a.94.94,0,0,0-1.2.34c-3.21,4.81-3.62,13.8-3.67,16.54a.92.92,0,0,0,.79.93c6.29.91,22.36,1.22,22.36,1.22,3.84,18.68,6.59,48.88,5.57,70.26,21.88-2.53,46.85-8.14,65.93-17.83C429.54,190.76,416.17,164.42,408.64,146.44Z"/><path class="cls-3" d="M360.57,128.9a3.69,3.69,0,0,0-3.39,3.7c0,2.38.12,5.92.45,10.32s.89,9.54,1.83,15.31a161,161,0,0,0,12.93,42.59,356,356,0,0,0-3.66-36.45s-3.16-18-3.54-22.84c-.23-3-.59-5.92-.62-9A3.69,3.69,0,0,0,360.57,128.9Z"/><path class="cls-5" d="M391.88,134.88s-4.18-.68-6.25-8.24c-2.52-9.24-8.39,1.68-8.39,1.68s3.36,6-.79,9.8c0,0,1.65,6.84,7.48,6.38C389.06,144.1,392.65,138.55,391.88,134.88Z"/><path class="cls-2" d="M416.42,165.06s-3.16,1.36-1.59,4.22,5.16,6.3,6.86,5.75,2.4-4.45,2.4-4.45Z"/><path class="cls-3" d="M395.45,126.93c3.39,9.76,14.93,38.84,38.85,62.29a3.71,3.71,0,0,0,5.35-.14l.81-.9a3.69,3.69,0,0,0-.13-5.1c-7-7-26.92-28.49-37.47-58.75a3.68,3.68,0,0,0-4.82-2.21l-.44.17A3.69,3.69,0,0,0,395.45,126.93Z"/><path class="cls-5" d="M336.84,86.73a7.06,7.06,0,0,0-8.22-5.66l-11.8,2.18a14.53,14.53,0,1,0,5.28,28.58l11.8-2.18a7.06,7.06,0,0,0,5.66-8.22Z"/><path class="cls-5" d="M441.45,73.94h0a14.53,14.53,0,0,0-16.93-11.65l-11.8,2.18a7.06,7.06,0,0,0-5.66,8.22l2.72,14.7A7.06,7.06,0,0,0,418,93l11.8-2.18A14.53,14.53,0,0,0,441.45,73.94Z"/><path class="cls-3" d="M424.08,89.91S444,63.19,432,41.5c-9.29-16.85-26-21-42.08-19.11,0,0-12.47-14.86-35.69-13.8-25.5,1.17-32,22.56-32,22.56S309.41,21.59,294,34.33c-16.42,13.59-11.58,59.37,32.65,68.61Z"/><path class="cls-2" d="M428.92,81.5c5.64,30.53-17.56,43.51-48.09,49.14s-56.84,1.81-62.47-28.73A56.22,56.22,0,1,1,428.92,81.5Z"/><path class="cls-3" d="M355.12,86.44a2.41,2.41,0,0,1-2.81-1.94,6.85,6.85,0,0,0-8-5.49l-.34.06a6.85,6.85,0,0,0-5.49,8,2.41,2.41,0,1,1-4.75.88,11.69,11.69,0,0,1,9.36-13.6l.34-.06a11.69,11.69,0,0,1,13.6,9.36A2.41,2.41,0,0,1,355.12,86.44Z"/><path class="cls-3" d="M407.67,76.74a2.41,2.41,0,0,1-2.81-1.94,6.85,6.85,0,0,0-8-5.49l-.34.06a6.85,6.85,0,0,0-5.49,8,2.41,2.41,0,0,1-4.75.88,11.69,11.69,0,0,1,9.36-13.6l.34-.06a11.69,11.69,0,0,1,13.6,9.36A2.41,2.41,0,0,1,407.67,76.74Z"/><path class="cls-3" d="M395.36,57.08c-3.69-.09-10.85.49-9-3.8S399,49.15,401,52.53,395.36,57.08,395.36,57.08Z"/><path class="cls-3" d="M345.46,103.3a29.78,29.78,0,0,0,10.38,13.2,29.74,29.74,0,0,1,19.44-12.85l1.08-.2a29.74,29.74,0,0,1,22.74,5.06,29.78,29.78,0,0,0,5-16,4.91,4.91,0,0,0-5.8-4.9l-49.17,9.08A4.91,4.91,0,0,0,345.46,103.3Z"/><path class="cls-6" d="M376.37,103.45l-1.08.2a29.74,29.74,0,0,0-19.44,12.85,29.74,29.74,0,0,0,22.74,5.06l1.08-.2a29.74,29.74,0,0,0,19.44-12.85A29.74,29.74,0,0,0,376.37,103.45Z"/><path class="cls-5" d="M368.55,86.26c-4.47-1.5-8.46-6.49-4.82-9a6,6,0,0,1,6.84-.1s-1.38-8.72,2.36-7.9C378,70.43,382.8,91,368.55,86.26Z"/><path class="cls-2" d="M428.45,175.31s5.39-1.92,5-6.14-6.7-11.79-13.76-9.11-6.74,4.69-5.54,5.93c1.69,1.74,7.85-1.15,7.85-1.15s-6.36,2.43-5.16,4.42c1.67,2.78,9.2-2.57,9.2-2.57s-7,3.48-4.89,5.9c1.12,1.31,6-1.27,6-1.27s-4.16,3-3.35,4.63S428.45,175.31,428.45,175.31Z"/><path class="cls-3" d="M389.55,32.71s9.93,10.79,0,19.74-18.76,2.33-18.76,2.33.28,6.71-8.83,11.08-16-.6-18.75-7.77c0,0-4.87,25.36-25.12,24.93-26-.55-26.32-24.07-8.94-39.39S361.42,15.88,389.55,32.71Z"/><path class="cls-4" d="M97.26,235.8c15.51-1.15,30.88-3.67,48.43-3s27.85-6.68,28.48-18.79c.86-16.67-9.71-34.71-21.35-56.71-11.14-21-21.17-11.26-37-10.92s-26.46-.91-30.26,17C77.11,203,67.53,238,97.26,235.8Z"/><path class="cls-3" d="M54,291.45a.45.45,0,0,1-.19-.06c-2.22-1.43-8.68-8-10.65-5.62S53.26,300.15,57,297.71l1.49-.93A17.12,17.12,0,0,0,54,291.45Z"/><path class="cls-7" d="M97.35,270.2a92.83,92.83,0,0,1-9.2-4.88C74.26,279.88,56.49,291.73,54,291.45a17.12,17.12,0,0,1,4.54,5.33,375,375,0,0,0,36.94-25.14C96.06,271.14,96.7,270.66,97.35,270.2Z"/><path class="cls-7" d="M198.37,282.19s-14.18-14.34-25.43-26.3a58.76,58.76,0,0,1-7.39,8.28,47.32,47.32,0,0,1,5.58,3.85c9.66,7.77,20.59,16.48,25.1,19.79a12.44,12.44,0,0,0,2.26-5.75Z"/><path class="cls-3" d="M207.46,274.47c-1.57-.5-8.06,6.58-9,7.59a12.44,12.44,0,0,1-2.26,5.75c.76.56,1.35,1,1.71,1.19C202.49,291.78,209.14,275,207.46,274.47Z"/><path class="cls-3" d="M160.52,242c-1.19-1.56-2.79-5.3-4.59-10.32-16.35,5.66-34,7.05-51.81,6.67A35.93,35.93,0,0,1,100.75,249a85.43,85.43,0,0,1-12.59,16.33,92.8,92.8,0,0,0,9.2,4.89,58.81,58.81,0,0,1,27.94-10.79c2.25-.25,4.87-.66,7.58-1.14a47.77,47.77,0,0,1,32.67,5.9,58.76,58.76,0,0,0,7.39-8.28C167.42,250,162.6,244.74,160.52,242Z"/><path class="cls-7" d="M227.56,111.48c-.39-1.22-3.78.82-3.78.82s2.7-3.73,1.93-4.27-3.93,2.14-3.93,2.14,1.76-4.61.63-4.61-3.07,3.26-3.07,3.26.55-4.49-.53-4.22S215.1,111,215.09,111h0s-1.84-2.47-2.43-1.58c-.42.63.22,3.06.62,4.42a132.36,132.36,0,0,1-22.68,25.67C171.81,156.2,138.77,160,138.77,160l.08.87A33.43,33.43,0,0,0,142,172.34h0c50.77-3.08,73.53-39.11,80.45-52.67h0C224,116.71,227.72,112,227.56,111.48Z"/><path class="cls-7" d="M17,109c.48-1.19,3.7,1.1,3.7,1.1s-2.41-3.92-1.61-4.4,3.75,2.43,3.75,2.43-1.4-4.73-.28-4.65,2.81,3.48,2.81,3.48-.21-4.52.85-4.17,3.22,6.66,3.24,6.7h0s2-2.32,2.54-1.39c.37.66-.45,3-1,4.37a132.36,132.36,0,0,0,20.68,27.31c17.48,18,49.8,24.43,49.8,24.43l0,.54a25,25,0,0,1-3.63,11.68h0c-50.39-6.91-70.52-44.85-76.4-58.89h0C20.07,114.45,16.76,109.46,17,109Z"/><path class="cls-6" d="M142.68,174.9l15.44-2.61a.93.93,0,0,0,.76-.71c1.21-5.67-1.19-14.46-2.08-17.37a.93.93,0,0,0-1.24-.59c-8.24,3.37-21,6.79-27.89,7.54,0,0-4.34,2.28-15.47,1.67-16.37-.9-27.17-5.26-29-6.32a.94.94,0,0,0-1.22.24c-3.62,4.51-4.82,13.43-5.11,16.15a.93.93,0,0,0,.71,1c6.19,1.46,22.6,4.34,22.6,4.34,1.26,19-.13,49.32-4.06,70.36,22,.47,47.52-1.67,67.75-8.67C157.35,221.66,147.7,193.74,142.68,174.9Z"/><path class="cls-8" d="M127.66,161.16s-4.05-1.24-5.06-9c-1.24-9.49-8.54.52-8.54.52s2.74,6.93-1.89,10.17c0,0,1.21,6.1,6.31,6.78S127.92,164.91,127.66,161.16Z"/><path class="cls-3" d="M132.28,153.77c2,10.13,9.49,40.51,30,67a3.71,3.71,0,0,0,5.32.59l.93-.78a3.69,3.69,0,0,0,.57-5.07c-6-7.86-22.79-31.89-29.11-63.31a3.68,3.68,0,0,0-4.47-2.85l-.46.11A3.69,3.69,0,0,0,132.28,153.77Z"/><path class="cls-3" d="M103.4,155.35c1.19,10.13,3.51,41.48-7.89,73.14a3.7,3.7,0,0,1-4.87,2.18l-1.1-.44a3.69,3.69,0,0,1-2.09-4.67c3.4-9.38,12.21-37.53,8.61-69.33a3.69,3.69,0,0,1,3.52-4.11h0A3.69,3.69,0,0,1,103.4,155.35Z"/><path class="cls-8" d="M80.38,106.85a7.06,7.06,0,0,0-7.57-6.51l-12,.9a14.53,14.53,0,0,0,2.19,29l12-.9a7.06,7.06,0,0,0,6.51-7.57Z"/><path class="cls-8" d="M185.77,105.35h0a14.53,14.53,0,0,0-15.58-13.4l-12,.9a7.06,7.06,0,0,0-6.51,7.57l1.12,14.91a7.06,7.06,0,0,0,7.57,6.51l12-.9A14.53,14.53,0,0,0,185.77,105.35Z"/><path class="cls-7" d="M172.5,111.52c2.34,31-22.12,41.37-53.08,43.71s-56.7-4.29-59-35.25a56.22,56.22,0,1,1,112.12-8.46Z"/><path class="cls-6" d="M153.23,63.08s11.76-4.84,7.64-14-29.23,3.79-29.23,3.79,9.63-8.55,2.11-14S96.44,40.43,85.66,61.69c0,0,2.56-7.94-2.15-7.58s-5.7,11.76-5.7,11.76-6.3-3.21-10.66,1.86S72,72.4,72,72.4,61.5,82.64,61.32,101.12A2.9,2.9,0,0,0,64.44,104h0a2.89,2.89,0,0,0,2.67-2.63c.65-7.75,3.49-20.56,14.89-24.52a33.52,33.52,0,0,1,21.09,0,36.68,36.68,0,0,0,22.67-.28c6.85-2.33,15.54-3.95,22.87-1.08,9,3.51,12.2,12,13.36,18a3.45,3.45,0,0,0,3.64,2.81h0a3.44,3.44,0,0,0,3.14-4A51.41,51.41,0,0,0,153.23,63.08Z"/><path class="cls-3" d="M98.59,108.53A2.41,2.41,0,0,1,96,106.3,6.85,6.85,0,0,0,88.66,100l-.34,0A6.85,6.85,0,0,0,82,107.36a2.41,2.41,0,1,1-4.81.36A11.69,11.69,0,0,1,88,95.21l.34,0a11.69,11.69,0,0,1,12.52,10.76A2.41,2.41,0,0,1,98.59,108.53Z"/><path class="cls-3" d="M151.88,104.51a2.41,2.41,0,0,1-2.59-2.23A6.85,6.85,0,0,0,142,96l-.34,0a6.85,6.85,0,0,0-6.31,7.34,2.41,2.41,0,1,1-4.81.36,11.69,11.69,0,0,1,10.76-12.52l.34,0a11.69,11.69,0,0,1,12.52,10.76A2.41,2.41,0,0,1,151.88,104.51Z"/><path class="cls-6" d="M83.06,90.77c3.06-2.08,9.39-5.45,5.51-8.06S75.75,86.05,75.86,90,83.06,90.77,83.06,90.77Z"/><path class="cls-6" d="M144.23,86.16c-3.33-1.59-10.1-4-6.65-7.14s13.17,1.38,13.65,5.29S144.23,86.16,144.23,86.16Z"/><path class="cls-3" d="M87.18,124.25a29.78,29.78,0,0,0,8.91,14.24,29.74,29.74,0,0,1,20.7-10.69l1.1-.08A29.74,29.74,0,0,1,140,135.18a29.78,29.78,0,0,0,6.67-15.41,4.91,4.91,0,0,0-5.24-5.49L91.54,118A4.91,4.91,0,0,0,87.18,124.25Z"/><path class="cls-6" d="M117.89,127.71l-1.1.08a29.74,29.74,0,0,0-20.7,10.69A29.74,29.74,0,0,0,118.17,146l1.1-.08A29.74,29.74,0,0,0,140,135.18,29.74,29.74,0,0,0,117.89,127.71Z"/><path class="cls-9" d="M121.24,111.09c4-2.54,6.62-8.36,2.48-9.86a6,6,0,0,0-6.66,1.58s-.79-8.79-4.22-7.08C108.2,98,108.59,119.2,121.24,111.09Z"/><path class="cls-10" d="M327,149.55s18.43,1.13,26.54,25.7c7.9,23.93-7.58,48.87-5.42,65.26s14,31.37-.36,53.93S272.86,312.91,241.6,289s-30.54-47.69-22.54-64.89,9.4-39.76,9.91-41.51C229,182.64,265.13,133.85,327,149.55Z"/><path class="cls-3" d="M292.59,328.1C277.18,326,262,322.47,244.45,322s-27.37-8.44-27.22-20.56c.2-16.69,11.89-34,24.91-55.24,12.46-20.29,21.84-9.89,37.63-8.55s26.46.77,29.12,18.9C314.78,296.69,322.12,332.18,292.59,328.1Z"/><path class="cls-7" d="M190.16,180.17c.75-1,3.33,2,3.33,2s-1.41-4.38-.51-4.65,3.07,3.26,3.07,3.26-.24-4.93.84-4.58,1.9,4.05,1.9,4.05.87-4.44,1.81-3.85,1.55,7.23,1.55,7.27h0s2.51-1.78,2.8-.74c.2.73-1.16,2.84-2,4,1.84,6.7,14.47,43.49,16.33,44.94a72.89,72.89,0,0,0,38.79,14.76l-.13.86a33.43,33.43,0,0,1-3.88,11.28h0c-20.66-2.58-32.6-7.11-44.21-16.45-8.49-6.84-16-43.87-17.41-52.75h0C191.88,186.23,189.85,180.6,190.16,180.17Z"/><path class="cls-7" d="M357,313.25h0c-2.46-8.65-14.66-46.36-24.64-50.75-10.14-4.46-19.77-6.29-32.52-5.75l.59,12.91a71.38,71.38,0,0,1,25.55,5.4c2.18.92,18.28,35.66,20.91,42.09-.66,1.26-1.76,3.52-1.47,4.22.4,1,2.68-1.07,2.69-1.08h0s1.41,6.57,2.41,7,1.34-4,1.34-4,1.27,3.58,2.38,3.79.28-4.65.28-4.65,2.58,3.24,3.44,2.86-1.07-4.56-1.07-4.56,2.93,2.66,3.54,1.54C360.64,321.8,358,316.46,357,313.25Z"/><path class="cls-3" d="M247.48,317.49S222,310.83,205,320.39s-1.1,34.76-1.1,34.76-8.54-2.12-10.13.22,10.57,6.54,13.84,3.21c4.21-4.27-4.2-24,3.23-28.29s28-4.22,45.57,8.52c18.63,13.54,23.44,37.57,11.5,44.74s-17.78,3.72-18.84,7.17-.53,11.41,1.59,11.94,2.12-9,2.12-9,21.61.53,31.51-10.09,0-51.14,0-51.14Z"/><path class="cls-11" d="M251.12,262.32l-15.24-3.59a.93.93,0,0,1-.72-.75c-.85-5.74,2.11-14.36,3.18-17.21a.92.92,0,0,1,1.27-.5c8,3.88,19,7.86,25.9,9h0l29.75,5.14c11.06,1.33,17.33.91,19.39.69a.94.94,0,0,1,1,.72c1.42,5.61-1.21,14.22-2.08,16.82a.93.93,0,0,1-1.06.61c-6.24-1.25-19.22-4.94-19.22-4.94-1.47,11.31-3.71,28.72-2.62,48.86.69,12.92.07,23.39,3.22,34.65a1.07,1.07,0,0,1-1.26,1.34c-26.76-5.73-21.75-35.61-70.59-37.67C238,296.13,244.92,280.8,251.12,262.32Z"/><path class="cls-8" d="M267,249.56s4.12-1,5.63-8.68c1.84-9.39,8.49,1.06,8.49,1.06s-3.18,6.74,1.24,10.27c0,0-1.6,6-6.73,6.36S266.49,253.28,267,249.56Z"/><path class="cls-1" d="M262.85,241.89c-2.67,10-12,39.83-34.19,65a3.71,3.71,0,0,1-5.34.25l-.88-.83a3.69,3.69,0,0,1-.24-5.09c6.51-7.47,24.77-30.38,33.07-61.34a3.68,3.68,0,0,1,4.65-2.56l.45.14A3.69,3.69,0,0,1,262.85,241.89Z"/><path class="cls-1" d="M291.57,245.29c-1.83,10-6.14,41.17,3.23,73.49a3.7,3.7,0,0,0,4.72,2.48l1.12-.37a3.69,3.69,0,0,0,2.38-4.53c-2.8-9.58-9.8-38.23-4.2-69.74a3.69,3.69,0,0,0-3.25-4.33h0A3.69,3.69,0,0,0,291.57,245.29Z"/><path class="cls-8" d="M322.1,201.42a7.06,7.06,0,0,1,8.31-5.52l11.76,2.38a14.53,14.53,0,1,1-5.76,28.49l-11.76-2.38a7.06,7.06,0,0,1-5.52-8.31Z"/><path class="cls-8" d="M217.72,191.06h0a14.53,14.53,0,0,1,17.13-11.36l11.76,2.38a7.06,7.06,0,0,1,5.52,8.31l-3,14.66a7.06,7.06,0,0,1-8.31,5.52l-11.76-2.38A14.53,14.53,0,0,1,217.72,191.06Z"/><path class="cls-10" d="M337.13,222.56s16.7-12.86,9.71-45.23c-5-23.36-25.86-51.64-65.76-47.05s-56.56,34.23-55.19,56.31c1.1,17.8,11.25,22.57,11.25,22.57Z"/><path class="cls-7" d="M230.12,194.63c-6.16,30.43,16.82,43.8,47.25,50s56.8,2.77,63-27.66a56.22,56.22,0,0,0-110.21-22.29Z"/><path class="cls-3" d="M303.83,200.83a2.41,2.41,0,0,0,2.84-1.89,6.85,6.85,0,0,1,8.07-5.35l.34.07a6.85,6.85,0,0,1,5.35,8.07,2.41,2.41,0,1,0,4.73,1A11.69,11.69,0,0,0,316,188.92l-.34-.07A11.69,11.69,0,0,0,301.94,198,2.41,2.41,0,0,0,303.83,200.83Z"/><path class="cls-3" d="M251.45,190.23a2.41,2.41,0,0,0,2.84-1.89,6.85,6.85,0,0,1,8.07-5.35l.34.07a6.85,6.85,0,0,1,5.35,8.07,2.41,2.41,0,1,0,4.73,1,11.69,11.69,0,0,0-9.13-13.75l-.34-.07a11.69,11.69,0,0,0-13.75,9.13A2.41,2.41,0,0,0,251.45,190.23Z"/><path class="cls-3" d="M313.2,217.84a29.78,29.78,0,0,1-10.61,13,29.74,29.74,0,0,0-19.22-13.18l-1.08-.22a29.74,29.74,0,0,0-22.83,4.67A29.78,29.78,0,0,1,254.76,206a4.91,4.91,0,0,1,5.88-4.8l49,9.91A4.91,4.91,0,0,1,313.2,217.84Z"/><path class="cls-6" d="M282.29,217.47l1.08.22a29.74,29.74,0,0,1,19.22,13.18,29.74,29.74,0,0,1-22.83,4.67l-1.08-.22a29.74,29.74,0,0,1-19.22-13.18A29.74,29.74,0,0,1,282.29,217.47Z"/><path class="cls-10" d="M327,158.66S311.56,175.86,280,173.13s-40.7-.49-47.8,14.08c0,0-2.81-19.35,10.82-30.5S301.9,132.82,327,158.66Z"/><path class="cls-10" d="M325,186.92a2.75,2.75,0,0,0,3.52-3.92c-1.92-3.25-6.06-7.71-14-6.67-9.69,1.26-9.6,8.74.8,7.18C320.09,182.78,321.84,185.34,325,186.92Z"/><path class="cls-10" d="M229.12,201.61s-15.41-20.55-3.31-48.17c10.36-23.65,48.18-36.28,86.58-19.24L289,149.68S234.84,148.74,229.12,201.61Z"/><path class="cls-10" d="M327.21,154.62c-4.15,4-21.76,19.45-52.17,25.4a1.29,1.29,0,0,0-.92,1.83l2.91,6a1.29,1.29,0,0,0,1.53.67c5.75-1.73,33.81-11,51.15-31.39a1.3,1.3,0,0,0,0-1.69l-.61-.7A1.28,1.28,0,0,0,327.21,154.62Z"/><path class="cls-9" d="M289.41,197.44s2.38-6.92.34-7.17-3.76,4-3.76,4-3.62-2.15-5.35.39C278.44,197.87,288.24,202.88,289.41,197.44Z"/></svg>