<svg xmlns="http://www.w3.org/2000/svg" xmlns:xlink="http://www.w3.org/1999/xlink" width="295.451mm" height="120.05mm" viewBox="0 0 837.498 340.3">
  <defs>
    <linearGradient id="a" x1="352.605" y1="199.583" x2="343.582" y2="142.261" gradientUnits="userSpaceOnUse">
      <stop offset="0.05" stop-color="#fcc6a8"/>
      <stop offset="1" stop-color="#f79d8e"/>
    </linearGradient>
    <linearGradient id="b" x1="597.969" y1="411.675" x2="572.718" y2="498.588" gradientUnits="userSpaceOnUse">
      <stop offset="0.05" stop-color="#fcc6a8"/>
      <stop offset="0.097" stop-color="#fcc2a6"/>
      <stop offset="0.404" stop-color="#f9ae99"/>
      <stop offset="0.707" stop-color="#f8a191"/>
      <stop offset="1" stop-color="#f79d8e"/>
    </linearGradient>
  </defs>
  <title>пловец</title>
  <rect width="837.498" height="340.3" fill="#0d86c7"/>
  <g>
    <path d="M455.668,231.068c-25.163-42.572-85.531-81.155-128.077-65.1-32.053,12.1-40.7,87.719-42.91,118.765a2.041,2.041,0,0,1-2.191,1.869c-3.984-.219-8.1,1.754-10.6,9.089-6.1,17.871,5.668,21.483-5.185,27.37s-11.932,13.788-7.455,13.8c8.6.024,35.54-15.285,36.8-34.07a19.875,19.875,0,0,1,3.611-9.924c13.791-19.933,48.085-67.836,57.346-65.11,11.675,3.437,38.75,78.609,61.542,71S473.3,262.37,455.668,231.068Z" transform="translate(-4.392 -126.85)" fill="#fcc6a8"/>
    <path d="M311.126,224.209c-7.331,2.444-13.947,7.03-20.267,12.087a423.278,423.278,0,0,0-6.178,48.44,2.041,2.041,0,0,1-2.191,1.869c-3.984-.219-8.1,1.754-10.6,9.089-6.1,17.871,5.668,21.483-5.185,27.37s-11.932,13.788-7.455,13.8c8.6.024,35.54-15.285,36.8-34.07a19.875,19.875,0,0,1,3.611-9.924c13.791-19.933,48.085-67.836,57.346-65.11,3.95,1.163,9.664,10.54,16.377,22.141-1.362-7.178-2.886-14.342-4.677-21.5C363.469,207.459,328.923,217.928,311.126,224.209Z" transform="translate(-4.392 -126.85)" fill="#f3b799"/>
    <path d="M396.969,183.381a43.6,43.6,0,0,0,5.3-4.488c-24.645-14.61-52.16-21.423-74.682-12.923-12.317,4.649-21.175,18.682-27.542,35.958C331.167,212.2,370.117,203.52,396.969,183.381Z" transform="translate(-4.392 -126.85)" fill="url(#a)"/>
    <path d="M600.835,265.4l-17.651,46.86a4.311,4.311,0,0,1-5.719,2.448l-25.642-10.891S595.236,257.615,600.835,265.4Z" transform="translate(-4.392 -126.85)" fill="#f3b799"/>
    <path d="M758.707,418.9c-4.384-8.265-34.988-27.1-51.671-13.765-19.83-6.019-83.661-10.088-105.571-25.5-25.136-17.684-59.167-64.711-83.01-67.7l-.052-.007a9.211,9.211,0,0,1-7.156-5.062l-.657-1.34a7.3,7.3,0,0,1,.833-7.747l13.98-17.646-15.175-28.653-33.755,6.695c1.093.593,2.176,1.218,3.242,1.9-1.066-.682-2.149-1.307-3.242-1.9l-11.557-11.437c-2.6-2.173-10.607-22.908-15.788-19.892-23.247-7.355-54.319,23.983-68.274,37.061-54.862,24.875-119.675,65.284-119.675,65.284s-14.467,34.359,7.233,54.25,97.651,12.658,137.086,25.317c19.775,6.348,48.905-4.585,73.494-19.57,40.493,34.367,77.082,43.928,112.332,49.666,30.2,4.917,87.617-9.79,111.535-18.23,1.353,4.3,8.161,3.932,16.809,2.52,18.635-3.044,13.046-11.114,23.352-4.315S760.805,422.851,758.707,418.9Z" transform="translate(-4.392 -126.85)" fill="#fcc6a8"/>
    <path d="M522.124,418.024c24.037,12.018,46.888,17.191,69.2,20.824,19.206,3.126,49.406-1.684,75.008-7.77C623.147,406.292,568.529,401.651,522.124,418.024Z" transform="translate(-4.392 -126.85)" fill="url(#b)"/>
    <path d="M495.916,262.633s-14.884-18.053,1.76-39.3,38.331-32.923,59.845-16.927,52.225,42.529,41.87,62.751-33.425,54.567-45.716,53.725C538.251,321.825,504.77,267.4,495.916,262.633Z" transform="translate(-4.392 -126.85)" fill="#fcc6a8"/>
    <path d="M526.781,283.881a722.625,722.625,0,0,1,71.932-13.42c.229-.438.461-.879.679-1.3,10.355-20.221-20.356-46.755-41.87-62.751s-43.2-4.32-59.845,16.927c-10.085,12.875-8.592,24.568-5.852,31.792l-15.351,3.045-3.733-3.694C478.005,278.2,504.372,288.974,526.781,283.881Z" transform="translate(-4.392 -126.85)" fill="#f2b191"/>
    <path d="M480.629,257.344l6.163-6.246s-6.973-13.946,6.973-30.682,45.958-35.244,70.428-14.643c0,0,40.468,32.92,40.468,45.955,0,0,4.932,7.357,10.217,5.616s.7,17.988-19.376,7.771-24.661-1.057-28.888-15.5c0,0-9.16,24.516-28.536,14.9,0,0-21.012,11.645-29.3,12.27C500.03,277.446,496.811,280.575,480.629,257.344Z" transform="translate(-4.392 -126.85)" fill="#4c3b15"/>
    <path d="M604.662,251.728c1.375-12.84-40.378-45.955-40.378-45.955-21.653-19-56.181-6.128-70.127,10.607-9.757,11.709-13.528,18.869-10.73,38.128C511.711,266.747,570.657,264.684,604.662,251.728Z" transform="translate(-4.392 -126.85)" fill="#fbee87"/>
    <path d="M103.06,363.409s148.8-117.469,229.407-15.657c50.4,63.664,65.689,67.609,121.843,72.239,2.7.223,35.484,13.538,35.484,13.538s-70.6,11.718-95.633,12.25S95.315,413.13,103.06,363.409Z" transform="translate(-4.392 -126.85)" fill="#0d86c7"/>
    <path d="M309.191,361.68c47.848,60.437,64.054,67.055,113.614,71.532,18.32-2.336,38.019-5.353,49.751-7.211a2.973,2.973,0,0,0,.639-5.7c-9.885-3.942-23.829-9.4-25.55-9.545-56.153-4.63-71.44-8.575-121.843-72.239C245.2,236.707,96.395,354.176,96.395,354.176a85.487,85.487,0,0,0-7.314,10.281,2.251,2.251,0,0,0,3.161,3C138.216,338.839,248.347,284.828,309.191,361.68Z" transform="translate(-4.392 -126.85)" fill="#1f9dd2"/>
    <path d="M551.631,332.783c-2.262-2.015-4.556-3.975-6.95-5.806-2.359-1.871-4.8-3.624-7.289-5.29a61.591,61.591,0,0,0-15.883-7.931,43.979,43.979,0,0,0-8.694-1.533,67.3,67.3,0,0,0-8.922-.124,85.3,85.3,0,0,0-17.752,2.951,60.027,60.027,0,0,1,17.622-4.58,49.509,49.509,0,0,1,18.343,1.28,44.635,44.635,0,0,1,4.352,1.622,45.565,45.565,0,0,1,4.161,2.005,65.749,65.749,0,0,1,7.71,4.978A80.184,80.184,0,0,1,551.631,332.783Z" transform="translate(-4.392 -126.85)" fill="#eaac8c"/>
    <path d="M460.768,269.428A156.176,156.176,0,0,1,444.239,286.4c-2.937,2.653-6.015,5.149-9.128,7.6-3.132,2.432-6.39,4.707-9.7,6.906-6.693,4.269-13.764,8.141-21.464,10.492a44.128,44.128,0,0,1-11.848,2.085,24.52,24.52,0,0,1-11.644-2.408,27.473,27.473,0,0,0,11.541.87,49.18,49.18,0,0,0,11.164-2.867,81.687,81.687,0,0,0,10.53-4.848c3.413-1.838,6.774-3.8,10.014-5.957,6.551-4.212,12.807-8.91,18.967-13.745C448.807,279.662,454.815,274.61,460.768,269.428Z" transform="translate(-4.392 -126.85)" fill="#eaac8c"/>
    <path d="M450,297a19.039,19.039,0,0,1-3.8,4.315c-1.4,1.317-2.847,2.562-4.276,3.831l-8.648,7.467c-2.846,2.517-5.7,5.009-8.439,7.62-2.754,2.589-5.477,5.208-8.009,7.991-5.123,5.486-9.861,11.393-13.148,18.054a35.252,35.252,0,0,0-3.383,10.53,27.118,27.118,0,0,0,.728,11.176,24.059,24.059,0,0,1-2.264-11.311,33.22,33.22,0,0,1,2.685-11.4,54.387,54.387,0,0,1,5.714-10.2,95.317,95.317,0,0,1,7.373-8.983,144.28,144.28,0,0,1,17.194-15.357c3.028-2.347,6.138-4.576,9.249-6.786l4.674-3.293c.78-.547,1.541-1.115,2.291-1.7.362-.3.765-.572,1.1-.9l.52-.486Z" transform="translate(-4.392 -126.85)" fill="#eaac8c"/>
    <path d="M410.2,183.929a89.256,89.256,0,0,1,10.009,6.207c1.609,1.131,3.155,2.346,4.739,3.518,1.535,1.229,3.045,2.493,4.563,3.75,1.474,1.3,2.947,2.615,4.4,3.95l4.216,4.149c.718.678,1.372,1.417,2.031,2.151l1.984,2.2c.655.738,1.337,1.453,1.969,2.211l1.875,2.293c2.531,3.034,4.777,6.29,7.054,9.516,1.08,1.653,2.072,3.366,3.11,5.044l1.536,2.53,1.344,2.642c.882,1.766,1.816,3.5,2.651,5.288l2.233,5.476c.353.919.74,1.822,1.062,2.75l.861,2.825q.851,2.825,1.628,5.653-1.254-2.672-2.441-5.342l-1.173-2.672c-.419-.878-.9-1.728-1.348-2.592L459.84,240.3l-2.949-5.011-1.473-2.5-1.606-2.419c-1.08-1.6-2.111-3.241-3.228-4.817l-3.433-4.674c-1.1-1.591-2.407-3.025-3.6-4.542l-1.807-2.269c-.61-.75-1.27-1.458-1.9-2.19-1.291-1.44-2.528-2.931-3.864-4.331l-3.985-4.229c-1.389-1.351-2.756-2.725-4.121-4.105A209.657,209.657,0,0,0,410.2,183.929Z" transform="translate(-4.392 -126.85)" fill="#eaac8c"/>
    <rect x="488.997" y="98.887" width="41.713" height="13.448" rx="6.101" ry="6.101" fill="#eada72"/>
    <path d="M96.395,354.176c5.282-4.305,10.831-8.28,16.475-12.107s11.383-7.535,17.277-10.985a313.808,313.808,0,0,1,36.561-18.553c6.3-2.686,12.721-5.094,19.217-7.292a205.213,205.213,0,0,1,19.795-5.658c3.333-.835,6.717-1.461,10.086-2.144,3.4-.555,6.779-1.186,10.207-1.548,3.41-.477,6.855-.682,10.288-.968,3.443-.2,6.895-.309,10.352-.268a112.762,112.762,0,0,1,20.657,2.037,91.662,91.662,0,0,1,19.826,6.333A88.368,88.368,0,0,1,304.9,313.809a121.067,121.067,0,0,1,15.088,14.126c4.642,5.068,8.887,10.447,13.031,15.865L345.3,360.118c8.206,10.792,17.1,21.2,28.085,29.315a100.009,100.009,0,0,1-15.789-12.976c-4.85-4.814-9.341-9.977-13.689-15.232s-8.536-10.632-12.807-15.911-8.652-10.45-13.289-15.345a117.888,117.888,0,0,0-14.965-13.452,88.815,88.815,0,0,0-17.218-10.108c-12.211-5.384-25.627-7.593-39.007-7.679-3.35-.026-6.7.1-10.056.3-3.347.3-6.7.515-10.033,1-3.341.384-6.66.948-9.984,1.483-3.3.651-6.621,1.244-9.9,2.046-3.294.714-6.545,1.621-9.808,2.476-3.236.956-6.489,1.858-9.7,2.911-6.433,2.057-12.808,4.326-19.076,6.875a358.081,358.081,0,0,0-36.8,17.247A367.9,367.9,0,0,0,96.395,354.176Z" transform="translate(-4.392 -126.85)" fill="#5dcaec"/>
    <path d="M29.5,215.966c1.511-1.96,3.177-3.79,4.839-5.631q2.545-2.705,5.223-5.3a142.775,142.775,0,0,1,11.253-9.81A145.6,145.6,0,0,1,63.1,186.587a122.809,122.809,0,0,1,13.247-7.306,107.4,107.4,0,0,1,14.2-5.625,92.672,92.672,0,0,1,15.034-3.5,81.845,81.845,0,0,1,15.574-.852l1.961.068c.653.032,1.3.125,1.955.185l3.909.419,3.877.681c.644.123,1.3.21,1.934.364l1.91.476c1.264.33,2.561.642,3.792,1.005l3.627,1.149c1.214.365,2.406.81,3.6,1.232,1.192.439,2.4.818,3.579,1.313a129.622,129.622,0,0,1,38.832,23.59c7.623,6.516,14.415,13.613,21.741,19.78a68.645,68.645,0,0,0,11.785,8.066c1.071.523,2.13,1.1,3.247,1.543l1.667.7,1.709.6c1.131.456,2.312.739,3.483,1.105,1.179.326,2.382.566,3.584.874a47.014,47.014,0,0,1-7.442-.441l-1.86-.3-1.841-.413c-1.242-.249-2.437-.648-3.66-1a61.244,61.244,0,0,1-13.688-6.577c-8.53-5.438-16.041-11.872-23.845-17.5a153.444,153.444,0,0,0-24.325-14.838,137.092,137.092,0,0,0-13.047-5.528c-1.1-.438-2.232-.789-3.346-1.187s-2.231-.79-3.372-1.121l-3.4-1.046c-1.124-.323-2.222-.56-3.331-.854l-1.657-.433c-.553-.141-1.121-.216-1.681-.327l-3.369-.626-3.409-.39c-.569-.058-1.135-.149-1.707-.18l-1.717-.088a77.887,77.887,0,0,0-13.8.366,109.764,109.764,0,0,0-27.262,6.839c-1.1.443-2.224.845-3.323,1.308l-3.3,1.391c-2.176.99-4.361,1.975-6.512,3.046q-6.463,3.189-12.733,6.886A223.21,223.21,0,0,0,29.5,215.966Z" transform="translate(-4.392 -126.85)" fill="#1f9dd2"/>
    <path d="M64.782,206.268A151.008,151.008,0,0,1,85.1,190.415a111.7,111.7,0,0,1,23.167-11.807,60.1,60.1,0,0,1,12.87-3.2c1.118-.106,2.227-.274,3.361-.3l1.694-.076,1.675.039c1.115.048,2.239.016,3.349.133l3.334.347a68.1,68.1,0,0,1,12.92,3.255,101.564,101.564,0,0,1,12.027,5.43,193.946,193.946,0,0,1,21.7,14.3c6.865,5.172,13.612,10.4,20.475,15.384,3.44,2.481,6.944,4.858,10.541,7.06a89.456,89.456,0,0,0,11.132,5.959,63.407,63.407,0,0,0,11.933,4.105,57.953,57.953,0,0,0,12.652,1.41,55.925,55.925,0,0,1-6.433.425l-1.622,0c-.54-.014-1.077-.076-1.617-.112-1.075-.1-2.168-.125-3.237-.3l-3.219-.509c-1.063-.221-2.115-.49-3.177-.734-1.07-.221-2.1-.577-3.14-.885s-2.089-.626-3.1-1.022A112.946,112.946,0,0,1,199.366,217.3c-7.266-4.673-14.11-9.858-21.085-14.748-3.474-2.464-6.941-4.9-10.468-7.231-3.538-2.3-7.134-4.482-10.806-6.478a96.5,96.5,0,0,0-11.3-5.235,69.08,69.08,0,0,0-11.888-3.164l-3.039-.4c-1.014-.139-2.037-.132-3.056-.208l-1.531-.083-1.513.026c-1.008-.014-2.023.116-3.036.179a64.425,64.425,0,0,0-12.1,2.517,124.314,124.314,0,0,0-23.128,10.136A213.962,213.962,0,0,0,64.782,206.268Z" transform="translate(-4.392 -126.85)" fill="#5dcaec"/>
  </g>
</svg>
