<svg xmlns="http://www.w3.org/2000/svg" width="225.28mm" height="178.348mm" viewBox="0 0 638.59 505.554">
  <title>соня</title>
  <g>
    <polygon points="103.75 355.198 338.116 331.164 95.058 321.101 103.75 355.198" fill="#453652"/>
    <polygon points="579.494 401.284 483.677 418.876 438.983 399.209 532.348 389.219 524.156 385.421 0 442.082 126.035 505.554 587.289 405.227 579.494 401.284" fill="#d3d2d3" opacity="0.4"/>
    <polygon points="536.671 251.698 546.908 158.333 534.004 158.333 527.484 249.994 536.671 251.698" fill="#5a1e0d"/>
    <polygon points="607.437 312.321 638.59 167.49 626.305 166.352 599.006 309.432 607.437 312.321" fill="#5a1e0d"/>
    <polygon points="516.88 265.258 524.386 389.219 532.348 389.219 539.946 278.447 585.104 299.338 583.682 289.061 516.88 265.258" fill="#5a1e0d"/>
    <polygon points="609.04 304.932 587.289 405.227 579.114 405.638 587.334 311.467 171.762 348.403 177.99 459.302 169.478 460.699 153.185 342.949 609.04 304.932" fill="#5a1e0d"/>
    <polygon points="161.023 307.405 69.4 276.133 523.776 245.056 616.878 269.389 161.023 307.405" fill="#fddac2"/>
    <polygon points="616.878 269.389 609.04 304.932 153.185 342.949 161.023 307.405 616.878 269.389" fill="#d28f89"/>
    <polygon points="69.4 276.133 75.53 315.278 153.185 342.949 161.023 307.405 69.4 276.133" fill="#fddac2"/>
    <polygon points="69.4 276.133 75.53 315.278 153.185 342.949 161.023 307.405 69.4 276.133" fill="#a01c2a" opacity="0.2"/>
    <polygon points="86.383 319.145 104.893 433.209 114.696 433.209 103.64 329.648 154.607 353.226 153.185 342.949 86.383 319.145" fill="#5a1e0d"/>
    <polygon points="545.618 170.102 624.204 177.365 622.301 187.338 544.858 177.03 545.618 170.102" fill="#5a1e0d"/>
    <polygon points="549.19 251.698 555.797 177.784 562.404 179.162 550.992 252.169 549.19 251.698" fill="#5a1e0d"/>
    <polygon points="594.785 183.676 582.141 260.31 584.531 260.934 601.297 184.542 594.785 183.676" fill="#5a1e0d"/>
    <path d="M513.341,362.643l-15.724,36.2-65.126,5.915-7.849-59.228,54.3-21.648S514,354.823,513.341,362.643Z" transform="translate(-101.65 -76.142)" fill="#a01c2a" opacity="0.33"/>
    <path d="M186.176,351.241s96.108,26.423,99.521,30.387,2.73,78.748,2.73,78.748S473.611,432.1,539.586,424.545,714.92,407.36,714.92,407.36s4.906-60.183,3.608-62.786S607.381,321.2,607.381,321.2Z" transform="translate(-101.65 -76.142)" fill="#79a9c4"/>
    <path d="M542.055,325.785l5.386,34.014-48.108-13.893-28.683-8.566,18.743,26.4-60.838-.641.039,12.249L187.972,350.984s107.052,25.657,112.854,31.326,5.854,75.3,5.854,75.3l152.781-22.444,25.923-3.823,13.653-1.646,22.018-55.449,35.366,38.433L550.645,423.3,714.92,407.36l3.608-60.614s-53.988,6.825-62.86,7S555,323.883,555,323.883Z" transform="translate(-101.65 -76.142)" fill="#0d173f" opacity="0.23"/>
    <path d="M502.312,440.628c.292,1.606-2.482,4.58-5.328,6.733-.511.383-1.022.748-1.533,1.058-.365.237-.73.456-1.077.638a11.453,11.453,0,0,1-4.8,1.04,35.2,35.2,0,0,1-9.689-1.04c-3.778-.985-13.1-.146-15.492-2.117s-1.259-11.222-1.259-11.222l14.707-4.38a36.186,36.186,0,0,0,4.763,4.179c.456.328.93.675,1.442,1.022C487.951,439.223,501.928,438.511,502.312,440.628Z" transform="translate(-101.65 -76.142)" fill="#f16062"/>
    <path d="M496.983,447.361c-.511.383-1.022.748-1.533,1.058-.365.237-.73.456-1.077.638a11.453,11.453,0,0,1-4.8,1.04,35.2,35.2,0,0,1-9.689-1.04c-3.778-.985-13.1-.146-15.492-2.117s-1.259-11.222-1.259-11.222l14.707-4.38a36.186,36.186,0,0,0,4.763,4.179s-6.5,1.368-9.379,4.708c-2.883,3.358,5.785,5.638,10.8,6.386A115,115,0,0,0,496.983,447.361Z" transform="translate(-101.65 -76.142)" fill="#a01c2a" opacity="0.2"/>
    <path d="M582.513,404.741a20.213,20.213,0,0,1-2.7,2.921c-2.921,2.539-10.21,3.358-14.114,3.221-3.9-.109-12.8,2.784-15.588,1.392-1.5-.737-2.484-3.822-3.03-6.47a40.251,40.251,0,0,1-.683-4.177l8.463-4.777,4.761-2.969a32.751,32.751,0,0,0,6.46,3.515v.027c.273.109.574.219.874.328,4.4,1.747,17.881-2.075,18.728-.109C586.253,399.035,584.587,402.147,582.513,404.741Z" transform="translate(-101.65 -76.142)" fill="#f16062"/>
    <path d="M582.513,404.741a20.213,20.213,0,0,1-2.7,2.921c-2.921,2.539-10.21,3.358-14.114,3.221-3.9-.109-12.8,2.784-15.588,1.392-1.5-.737-2.934-5.587-3.48-8.235l8.23-7.189,4.761-2.969a32.751,32.751,0,0,0,6.46,3.515v.027s-1.2,1.338-2.593,5.3c-1.338,4.013,5.624,4.887,11.766,4.122A22.572,22.572,0,0,0,582.513,404.741Z" transform="translate(-101.65 -76.142)" fill="#a01c2a" opacity="0.2"/>
    <g>
      <path d="M319.077,185.858c.129.2,10.072,2.826,10.072,2.826s-3.979,5.66-6.556,7.607a12.707,12.707,0,0,1-5.744,2.254Z" transform="translate(-101.65 -76.142)" fill="#e2784e"/>
      <path d="M325.944,180.6s-7.512-7.146-13.665-6.023-5.121,7.226-.917,10.812,7.634,2.959,8.493,2.548,1-3.918.745-4.607S325.944,180.6,325.944,180.6Z" transform="translate(-101.65 -76.142)" fill="#faac75"/>
      <path d="M305.495,192.092s.826,4.436,4.521,6.466,7,.212,7.76-.789a3.686,3.686,0,0,0,.811-1.8Z" transform="translate(-101.65 -76.142)" fill="#faac75"/>
      <path d="M318.58,195.962l-.042-.013a4.473,4.473,0,0,1-.527.874c-.764,1-4.122,2.783-7.942.673a10.165,10.165,0,0,1-4.4-5.486l-.568-.174s.918,4.495,4.739,6.605,7.178.326,7.942-.673A3.582,3.582,0,0,0,318.58,195.962Z" transform="translate(-101.65 -76.142)" fill="#e2784e"/>
      <path d="M305.865,185.076s-1.631,2.406-1.615,4.212c.018,1.959,2.818,5.668,8,7.052,4.962,1.326,6.72-.48,7.38-1.414a6.306,6.306,0,0,0,.551-3.051,8.769,8.769,0,0,1-7.89-.756A20.361,20.361,0,0,1,305.865,185.076Z" transform="translate(-101.65 -76.142)" fill="#faac75"/>
      <path d="M312.535,195.649c-4.844-1.357-7.717-4.594-8.271-6.67-.009.1-.015.208-.014.309.018,1.959,2.818,5.668,8,7.052,4.932,1.318,6.7-.457,7.367-1.4C318.674,195.849,316.72,196.822,312.535,195.649Z" transform="translate(-101.65 -76.142)" fill="#e2784e"/>
      <path d="M308.207,178.855a10.3,10.3,0,0,0-2.58,4.727c-.452,2.587,1.565,5.877,6.8,8.413s7.671.943,8.485-.288-1.473-3.616-1.473-3.616Z" transform="translate(-101.65 -76.142)" fill="#faac75"/>
      <path d="M312.931,191.357c-5.162-2.535-7.35-5.7-7.2-8.247-.039.155-.074.312-.1.471-.452,2.587,1.565,5.877,6.8,8.413,4.3,2.086,6.713,1.378,7.888.376C318.938,193.029,316.613,193.166,312.931,191.357Z" transform="translate(-101.65 -76.142)" fill="#e2784e"/>
      <path d="M311.857,184.453c-2.239-1.876-3.682-4.353-3.8-6.494-.551,2.328.824,5.318,3.3,7.433,4.2,3.586,7.634,2.959,8.493,2.548a.906.906,0,0,0,.364-.43C318.783,187.778,315.658,187.638,311.857,184.453Z" transform="translate(-101.65 -76.142)" fill="#e2784e"/>
      <path d="M323.8,181.444a52.665,52.665,0,0,0-5.457-3.193,10.407,10.407,0,0,0-3.707-1.219,33.466,33.466,0,0,0,2.162,3.176,15.408,15.408,0,0,0,4.094,3.076Z" transform="translate(-101.65 -76.142)" fill="#e2784e"/>
      <path d="M319.993,181.538a20.453,20.453,0,0,0-2.412.96c-.906.469-.96,4.131.825,5.326a7.873,7.873,0,0,0,4.365.99Z" transform="translate(-101.65 -76.142)" fill="#e2784e"/>
      <path d="M336.532,190.688l-4.8-2.125s1.695-5.56-1.916-7.419-10.932,1.318-10.932,1.318-1.914,3.854.969,5.478a7.614,7.614,0,0,0,5.849.552,26.373,26.373,0,0,1-1.614,5.012c-1.186,2.744-5.575,4.741-5.575,4.741a31.034,31.034,0,0,0,5.985-.442,22.66,22.66,0,0,0,3.246-1.066l4.856,2.586Z" transform="translate(-101.65 -76.142)" fill="#faac75"/>
    </g>
    <g>
      <path d="M541.94,152.508c-.035.219-7.536,6.161-7.536,6.161s5.5,3.344,8.423,4.045a11.825,11.825,0,0,0,5.738-.218Z" transform="translate(-101.65 -76.142)" fill="#e2784e"/>
      <path d="M534.126,150.584s3.744-8.892,9.409-10.225,7.058,4.254,4.809,8.878-5.407,5.367-6.293,5.336-2.311-2.969-2.351-3.651S534.126,150.584,534.126,150.584Z" transform="translate(-101.65 -76.142)" fill="#faac75"/>
      <path d="M555.844,152.764s.948,4.09-1.447,7.2a5.986,5.986,0,0,1-6.911,2.217,3.428,3.428,0,0,1-1.363-1.234Z" transform="translate(-101.65 -76.142)" fill="#faac75"/>
      <path d="M546.127,160.938l.031-.027a4.184,4.184,0,0,0,.775.55c1.024.567,4.551.837,7.023-2.385a9.458,9.458,0,0,0,1.712-6.318l.42-.36a9.915,9.915,0,0,1-1.58,7.4c-2.472,3.223-6,2.952-7.023,2.385A3.333,3.333,0,0,1,546.127,160.938Z" transform="translate(-101.65 -76.142)" fill="#e2784e"/>
      <path d="M552.914,146.92a8.927,8.927,0,0,1,2.946,2.99c.715,1.677-.291,5.883-4.191,8.991-3.738,2.979-5.909,2.093-6.82,1.543a5.868,5.868,0,0,1-1.606-2.4,8.159,8.159,0,0,0,6.446-3.583A18.951,18.951,0,0,0,552.914,146.92Z" transform="translate(-101.65 -76.142)" fill="#faac75"/>
      <path d="M551.165,158.419c3.625-2.962,4.869-6.792,4.568-8.768.046.086.09.172.127.258.715,1.677-.291,5.883-4.191,8.991-3.715,2.961-5.881,2.1-6.8,1.553C546,160.877,548.033,160.978,551.165,158.419Z" transform="translate(-101.65 -76.142)" fill="#e2784e"/>
      <path d="M548.6,142.486a9.586,9.586,0,0,1,3.96,3.07c1.35,2.037.854,5.594-2.661,9.7s-6.19,3.661-7.342,2.914-.091-3.632-.091-3.632Z" transform="translate(-101.65 -76.142)" fill="#faac75"/>
      <path d="M549.229,154.907c3.457-4.084,4.144-7.6,3.069-9.715.092.118.179.239.262.364,1.35,2.037.854,5.594-2.661,9.7-2.891,3.38-5.211,3.675-6.586,3.259C544.729,158.57,546.762,157.821,549.229,154.907Z" transform="translate(-101.65 -76.142)" fill="#e2784e"/>
      <path d="M547.573,148.62a9.207,9.207,0,0,0,.819-6.952c1.337,1.78,1.279,4.841-.048,7.569-2.25,4.624-5.407,5.367-6.293,5.336a.837.837,0,0,1-.47-.231C542.905,154.035,545.518,152.752,547.573,148.62Z" transform="translate(-101.65 -76.142)" fill="#e2784e"/>
      <path d="M536.269,150.5a49.078,49.078,0,0,1,3.464-4.755,9.684,9.684,0,0,1,2.707-2.42,31.065,31.065,0,0,1-.66,3.513,14.34,14.34,0,0,1-2.345,4.148Z" transform="translate(-101.65 -76.142)" fill="#e2784e"/>
      <path d="M539.549,149.164a19.1,19.1,0,0,1,2.415-.08c.947.062,2.358,3.165,1.281,4.849a7.325,7.325,0,0,1-3.353,2.47Z" transform="translate(-101.65 -76.142)" fill="#e2784e"/>
      <path d="M528.855,163.127l3.3-3.6s-3.516-4.109-1.129-7.04,9.813-2.948,9.813-2.948,3.068,2.573,1.214,5.032a7.085,7.085,0,0,1-4.782,2.65,24.54,24.54,0,0,0,3.243,3.673c2.034,1.9,6.52,1.966,6.52,1.966a28.864,28.864,0,0,1-5.268,1.853,21.037,21.037,0,0,1-3.165.3l-3.178,4.014Z" transform="translate(-101.65 -76.142)" fill="#faac75"/>
    </g>
    <path d="M450.362,207.46s-.99,3.464-7.737,4.678a46.835,46.835,0,0,1-11.584.338c-1.822-.157-2.991-.338-2.991-.338s2.316-2.631,2.5-5.061a8.075,8.075,0,0,0-1.62-4.814l.765-.045,15.835-1.169s-.157.157.765,2.407l.135.337a6.3,6.3,0,0,0,1.327,1.912A8.449,8.449,0,0,0,450.362,207.46Z" transform="translate(-101.65 -76.142)" fill="#faac75"/>
    <path d="M447.753,205.705a31.472,31.472,0,0,0-10.257,2.317,20.259,20.259,0,0,0-6.456,4.454c-1.822-.157-2.991-.338-2.991-.338s2.316-2.631,2.5-5.061a8.075,8.075,0,0,0-1.62-4.814l.765-.045,16.6,1.237.135.337A6.3,6.3,0,0,0,447.753,205.705Z" transform="translate(-101.65 -76.142)" fill="#e2784e"/>
    <path d="M479.9,165.987c2.905,10.512,5.072,14.657,3.868,17.841S461.89,203.041,448.4,204.813a48.91,48.91,0,0,1-5.666.357c-17.523.389-51.325-10.793-57.786-19.07-7.277-9.333-19.527-43.931-17.018-57.26,2.463-13.323,17.664-30.473,49.11-39.13S464,103.924,469.379,109.657a43.5,43.5,0,0,1,3.148,4.985,48.734,48.734,0,0,1,6.038,17.217C480.18,144.163,477.017,155.471,479.9,165.987Z" transform="translate(-101.65 -76.142)" fill="#faac75"/>
    <path d="M437.656,192.153s8.981-5.918,17.936-7.046c8.623-1.086,13.736,1.625,13.736,1.625s-6.794,13.092-16.3,15.354C440.267,205.124,437.656,192.153,437.656,192.153Z" transform="translate(-101.65 -76.142)" fill="#5a1e0d"/>
    <g>
      <g>
        <ellipse cx="425.897" cy="157.193" rx="13.869" ry="17.919" transform="translate(-123.804 7.921) rotate(-10.988)" fill="#fff"/>
        <path d="M422.1,162.078c.7,5.965,4.894,10.419,9.371,9.947s7.539-5.688,6.84-11.653-4.894-10.418-9.371-9.947S421.4,156.113,422.1,162.078Z" transform="translate(-101.65 -76.142)" fill="#8c251c"/>
        <path d="M425.063,162.45c.494,4.218,3.461,7.367,6.626,7.034s5.331-4.022,4.837-8.24-3.461-7.367-6.626-7.034S424.569,158.232,425.063,162.45Z" transform="translate(-101.65 -76.142)" fill="#5a1e0d"/>
        <path d="M429.206,163.339c-.217-.6-2.661-.316-5.458.63s-4.889,2.2-4.672,2.794,2.661.316,5.458-.63S429.423,163.936,429.206,163.339Z" transform="translate(-101.65 -76.142)" fill="#fff"/>
        <path d="M414.592,166.3a22.455,22.455,0,0,1-2.31-6.462c-1.886-9.715,2.68-18.774,10.2-20.234,7.175-1.393,14.433,4.643,16.723,13.638C435.927,147.223,414.482,165.866,414.592,166.3Z" transform="translate(-101.65 -76.142)" fill="#e2784e"/>
      </g>
      <path d="M414.188,166.3a44.611,44.611,0,0,1,12.423-10.8c7.793-4.417,12.026-5.239,12.026-5.239l1.086,5.6s-4.461.331-11.913,3.765C419.928,163.252,414.188,166.3,414.188,166.3Z" transform="translate(-101.65 -76.142)" fill="#5a1e0d"/>
    </g>
    <g>
      <g>
        <ellipse cx="467.674" cy="149.219" rx="10.732" ry="17.174" transform="translate(-110.616 -44.393) rotate(-3.851)" fill="#fff"/>
        <path d="M464.343,153.355c.037,5.75,2.895,10.526,6.382,10.666s6.284-4.407,6.247-10.157-2.895-10.526-6.382-10.666S464.305,147.605,464.343,153.355Z" transform="translate(-101.65 -76.142)" fill="#8c251c"/>
        <path d="M466.591,154.1c.026,4.066,2.047,7.443,4.512,7.542s4.443-3.116,4.417-7.182-2.047-7.443-4.513-7.542S466.565,150.031,466.591,154.1Z" transform="translate(-101.65 -76.142)" fill="#5a1e0d"/>
        <path d="M469.707,155.484c-.117-.6-2.023-.649-4.257-.119s-3.95,1.442-3.833,2.037,2.023.649,4.257.119S469.824,156.079,469.707,155.484Z" transform="translate(-101.65 -76.142)" fill="#fff"/>
        <path d="M458.2,156.373a26.3,26.3,0,0,1-1.236-6.433c-.637-9.464,3.641-17.458,9.554-17.856,5.643-.38,10.726,6.3,11.734,15.132C476.237,141.078,458.154,155.949,458.2,156.373Z" transform="translate(-101.65 -76.142)" fill="#e2784e"/>
      </g>
      <path d="M458.113,156.108a32.956,32.956,0,0,1,10.267-8.4c6.364-3.166,9.688-3.39,9.688-3.39l.367,5.451s-3.459-.271-9.477,2.007C462.592,154.182,458.113,156.108,458.113,156.108Z" transform="translate(-101.65 -76.142)" fill="#5a1e0d"/>
    </g>
    <path d="M443.691,178.2a63.736,63.736,0,0,0,12.329-2.124c5.231-1.645,8.967-3.144,8.967-3.144s-4.084,7.409-9.278,8.077C451.916,181.495,443.691,178.2,443.691,178.2Z" transform="translate(-101.65 -76.142)" fill="#e2784e"/>
    <path d="M395.317,185.519c7.6,11.76,47.413,19.651,47.413,19.651-17.523.389-52.93-10.793-59.391-19.07-7.277-9.333-17.923-43.931-15.413-57.26,2.463-13.323,17.664-30.473,49.11-39.13S464,103.924,469.379,109.657c0,0,7.16,17.134,8.877,20.249-15.236-17.687-43.649-14.061-58.238-5.149C403.5,134.819,387.721,173.759,395.317,185.519Z" transform="translate(-101.65 -76.142)" fill="#e2784e"/>
    <path d="M438.04,193.5a37.267,37.267,0,0,1,12.724-2.921c7.508-.431,11.283,4.116,11.283,4.116a11.636,11.636,0,0,1-7.551,5.48c-5.352,1.172-9.889,1.5-12.695-1.813A47.255,47.255,0,0,1,438.04,193.5Z" transform="translate(-101.65 -76.142)" fill="#83241c"/>
    <path d="M445.265,199.4a36.483,36.483,0,0,0,7.213-.947,19.975,19.975,0,0,0,7.124-2.646l-.236,2.11s-1.673,2.235-6.918,3.188-6.746-.1-6.746-.1Z" transform="translate(-101.65 -76.142)" fill="#fff"/>
    <path d="M460.034,197.5l.227-2.251,2.409-1.475.264,1.205A9.014,9.014,0,0,1,460.034,197.5Z" transform="translate(-101.65 -76.142)" fill="#fff"/>
    <path d="M445.038,188.836s.37,2.027.829,1.992,8.069-1.173,11.021-1.915,4.24-1.224,4.591-1.8-.1-1.719-.1-1.719a23.063,23.063,0,0,0-8.033.585A38.351,38.351,0,0,0,445.038,188.836Z" transform="translate(-101.65 -76.142)" fill="#fff"/>
    <path d="M428.808,123.206s-9.032,1.284-15.927,10.471-5.659,20.461-5.659,20.461,1.943-9.768,7.4-15.236C420.17,133.339,429.151,133.858,428.808,123.206Z" transform="translate(-101.65 -76.142)" fill="#5a1e0d"/>
    <path d="M456.355,117.933s9.547,1.442,14.712,6.134a24.181,24.181,0,0,1,6.711,10.539s-4.478-5.785-10.171-7.018S457.652,123.076,456.355,117.933Z" transform="translate(-101.65 -76.142)" fill="#5a1e0d"/>
    <ellipse cx="448.829" cy="174.53" rx="5.357" ry="0.972" transform="translate(-130.002 33.533) rotate(-13.509)" fill="#fdccaa"/>
    <ellipse cx="456.651" cy="172.784" rx="1.813" ry="0.713" transform="translate(-120.261 -15.208) rotate(-7.482)" fill="#fdccaa"/>
    <path d="M545.237,173.788a162.669,162.669,0,0,1-7.873,15.633c-3.756,6.523-8.457,13.473-13.293,17.454-8.3,6.838-31.017,15.655-36.123,21.053A95.773,95.773,0,0,0,479.2,238.7a.069.069,0,0,0-.022.045s1.147,3.936,2.407,22.2a161.252,161.252,0,0,1-1.192,33.289s3.307,2.7,4.7,4.116c1.057,1.08,1.057,3.6.99,4.769a.831.831,0,0,1-.023.247,2.425,2.425,0,0,1-.022.36,2.533,2.533,0,0,1-.27.045h-.022c-2.564.517-21.863,4.3-42.534,9.762-5.938,1.574-12.8,3.689-19.456,5.871h-.023c-1.034.338-2.024.675-3.014,1.012-10.954,3.667-20.874,7.288-24.472,8.615a.238.238,0,0,0-.09.045c-.877.315-1.35.495-1.35.495l-1.417-4.206.022-.022a210.968,210.968,0,0,0,12.484-26.564v-.023c3.329-8.817,5.961-18.286,5.781-25.911-.54-22.853-3.756-24.54-3.756-24.54s-2.587-1.237-6.433-2.812A114.169,114.169,0,0,0,383,239.31c-8.7-1.89-28.9-5.488-38.193-11.381-1.215-.787-2.474-1.709-3.756-2.7-8.412-6.7-17.342-17.41-17.342-17.41l10.572-22.065s26.541,10.212,40.6,15.3a117.155,117.155,0,0,0,22,5.961c3.824.63,7.8,1.1,12.574,1.664,1.282.157,2.519.292,3.666.45,2.339.27,4.386.54,6.163.787.72.113,1.395.2,2.047.293l.068.022c4.9.72,7.2,1.214,7.2,1.214s7.715,1.26,13.9.113c5.758-1.079,7.355-3.149,7.737-3.846.09-.157.135-.248.135-.248l.023-.023,2.946-1.125c1.035-.382,2.294-.854,3.756-1.372,1.912-.675,4.161-1.44,6.635-2.227,2.182-.7,4.543-1.44,7.018-2.137,11.359-3.261,24.855-10.572,30.478-16.375s25.215-24.225,25.215-24.225Z" transform="translate(-101.65 -76.142)" fill="#feef5b"/>
    <path d="M564.333,390.232,542.723,407.4s-21.374-32.149-23.331-35.657c-3.824-6.905-12.213-17.05-14.238-19.591-1.575-1.979-28.093-12.034-28.093-12.034l.045.045c.855.99,14.71,17,15.43,22.988.765,6.186-8.752,69.523-8.752,69.523L457.3,436.824s-2.486-40.785-2.486-43.709c0-10.414,4.026-21.751,4.026-21.751s-12.281-2.744-24.382-6.388a.968.968,0,0,0-.113-.045c-8.75-2.632-17.387-5.758-21.233-8.66-6.433-4.881-12.214-16.308-15.048-22.7-.113-.225-.2-.427-.292-.63-1.035-2.339-1.62-3.869-1.62-3.869a.238.238,0,0,1,.09-.045c.944-.517,10.256-5.579,21.908-10.842a198.441,198.441,0,0,1,26.632-10.1,147,147,0,0,1,37.5-5.533s1.26.427,3.374,1.192h.023c.022,0,.045.022.067.022h.022c9.357,3.329,35.085,12.773,46.133,21.144C546.395,335.9,564.333,390.232,564.333,390.232Z" transform="translate(-101.65 -76.142)" fill="#feef5b"/>
    <path d="M546.474,174.418c-.292,2.249-4.7,15.227-7.917,15.385-2.677.135-18.512-12.214-23.73-16.352H514.8c-1.035-.832-1.642-1.327-1.642-1.327s-.967-.81,0-3.959,8.615-10.5,11.809-10.369c2.272.09,12.371,7.378,17.9,12.349.135.135.27.248.36.337a1.428,1.428,0,0,1,.248.27c.022,0,.045.022.067.045.023,0,.023.022.045.045a.069.069,0,0,0,.045.022C545.417,172.528,546.541,173.856,546.474,174.418Z" transform="translate(-101.65 -76.142)" fill="#a0ae39"/>
    <path d="M486.081,303.122a.831.831,0,0,1-.023.247,2.425,2.425,0,0,1-.022.36s-.113,0-.36.022h-.023c-3.149.09-25.192,1.1-44.986,8.39-5.78,2.137-11.584,4.678-16.914,7.265h-.023c-1.125.562-2.227,1.1-3.306,1.642-12.776,6.41-22.358,12.528-22.358,12.528s-1.395-.225-3.082-2.474a10.542,10.542,0,0,1-1.6-5.736l.022-.022c.5-.315,6.68-4.319,23.415-10.234,5.916-2.092,13.158-4.431,21.931-6.928,34.616-9.829,46.335-9.829,46.335-9.829C486.305,298.8,486.193,301.817,486.081,303.122Z" transform="translate(-101.65 -76.142)" fill="#f2dd3d"/>
    <path d="M419.479,268.168c-2.789,10.5-13.743,32.929-13.743,32.929s.045-.855.157-2.316v-.023c3.329-8.817,5.961-18.286,5.781-25.911-.54-22.853-3.756-24.54-3.756-24.54s-13.923-6.613-24.922-9c-8.7-1.89-28.9-5.488-38.193-11.381-1.215-.787-2.474-1.709-3.756-2.7l9.267-15.16s13.7,12.371,39.227,22.673c25.552,10.324,31.063,5.263,31.985,6.388S422.291,257.687,419.479,268.168Z" transform="translate(-101.65 -76.142)" fill="#f2dd3d"/>
    <path d="M461.745,210.069s14.7,14.471,17.43,28.678a165.569,165.569,0,0,1,2.731,29.523,79.251,79.251,0,0,0-29.01,4.216l-15.884,5.342s6.772-11.246,8.025-31.49-3.667-29.662-3.667-29.662S457.237,215.692,461.745,210.069Z" transform="translate(-101.65 -76.142)" fill="#fff" opacity="0.37"/>
    <path d="M356.342,197.788l-.067.113c-3.6,8.367-13.653,26.811-15.205,28.026-1.957,1.552-21.368-9.694-20.649-12.371a87.667,87.667,0,0,1,3.846-8.3.249.249,0,0,0,.045-.09c.022-.022.045-.067.067-.09,4.094-8.233,9.9-19.321,9.9-19.321a15.891,15.891,0,0,1,3.846-1.3c1.822-.27,18.287,8.165,19.411,9.425C357.759,194.144,357.287,195.606,356.342,197.788Z" transform="translate(-101.65 -76.142)" fill="#a0ae39"/>
    <path d="M356.342,197.788l-.067.113s-12.034-9.2-16.532-9.65c-4.229-.4-14.148,14.913-15.363,16.825,4.094-8.233,9.9-19.321,9.9-19.321a15.891,15.891,0,0,1,3.846-1.3c1.822-.27,18.287,8.165,19.411,9.425C357.759,194.144,357.287,195.606,356.342,197.788Z" transform="translate(-101.65 -76.142)" fill="#fdf7bf" opacity="0.5"/>
    <path d="M543.235,170.481a3.942,3.942,0,0,1,.315.315c-.022-.023-.045-.045-.067-.045-1.462-1.237-13.608-11.089-17.9-10.774-4.589.337-10.752,13.473-10.752,13.473H514.8c-1.035-.832-1.642-1.327-1.642-1.327s-.967-.81,0-3.959,8.615-10.5,11.809-10.369c2.272.09,12.371,7.378,17.9,12.349C543.01,170.279,543.145,170.392,543.235,170.481Z" transform="translate(-101.65 -76.142)" fill="#fdf7bf" opacity="0.5"/>
    <path d="M537.364,189.421c-3.756,6.523-8.457,13.473-13.293,17.454-8.3,6.838-31.017,15.655-36.123,21.053A95.773,95.773,0,0,0,479.2,238.7c.248-.7,4.521-12.259,8.75-15.565,4.341-3.419,24.517-9.132,27.509-18.062s1.709-29.781,1.709-29.781Z" transform="translate(-101.65 -76.142)" fill="#f2dd3d"/>
    <path d="M559.744,393.879,542.723,407.4c-5.061-6.005-21.374-32.149-23.331-35.657-3.824-6.905-12.213-17.05-14.238-19.591-1.575-1.979-28.093-12.034-28.093-12.034l-10.527-10.549s22.785,8.48,39.655,10.549c16.87,2.092,23.887,4.049,29.241,8.008C540.76,352.044,559.744,393.879,559.744,393.879Z" transform="translate(-101.65 -76.142)" fill="#f2dd3d"/>
    <path d="M465.594,400.579c-1.777,7.49-1.235,35.141-1.235,35.141l-7.057,1.1c-.81-8.862-2.486-40.785-2.486-43.709,0-10.414,4.026-21.751,4.026-21.751s-36.551-8.165-45.728-15.092c-6.658-5.039-12.6-17.095-15.34-23.325l9.9-8.907,9.627-1.395s-6.051,19.569-5.128,25.372c.945,5.826,57.656,14.1,60.647,17.653S467.348,393.066,465.594,400.579Z" transform="translate(-101.65 -76.142)" fill="#f2dd3d"/>
    <path d="M403.443,327.845s-1.95,20.743,22.417,29.365,40.674,8.9,40.674,12.884-3.936,10.546-4.686,20.481,1.264,45.34,1.264,45.34l2.467-.386s-3.169-38.581-.17-51.514,5.811-15.932,2.062-18.369-28.633-5.02-44.048-13.308-17.692-26.551-17.692-26.551Z" transform="translate(-101.65 -76.142)" fill="#a0ae39"/>
    <path d="M411.872,323.432s3.3,15.6,16.424,21.969,44.049,12.559,49.3,17.432-2.917,19.119-4.364,29.053S472.14,434.5,472.14,434.5l1.779-.279s-1.386-36.151,2.362-47.96,8.3-19.255,4.165-24.471c-2.866-3.61-38.107-12.053-47.651-17.7-10.765-6.373-17.245-21.743-17.245-21.743Z" transform="translate(-101.65 -76.142)" fill="#a0ae39"/>
    <path d="M429.589,316.678s8.829,12.978,21.388,21.038,34.2,15.347,35.7,23.407-1.541,18.525-3.032,30.628c-.917,7.441-3.2,41.449-3.2,41.449l1.62-.254s1.571-33.227,4.083-47.809,7.931-22.576-2.5-30.823-20.3-12.475-30.611-18.848-18.568-20.9-18.568-20.9Z" transform="translate(-101.65 -76.142)" fill="#a0ae39"/>
    <path d="M444.748,310.723s8.342,8.014,14.712,14.34A92.594,92.594,0,0,0,472.848,335.9s-7.153-7.557-12.357-13.555-12.182-12.709-12.182-12.709Z" transform="translate(-101.65 -76.142)" fill="#a0ae39"/>
    <path d="M453.412,308.279s36.928,26.625,51.36,33.935,41.623,62.313,41.623,62.313l1.489-1.167S524.172,354.726,511.1,343.9s-26.395-17.854-37.869-25.586-15.935-10.933-15.935-10.933Z" transform="translate(-101.65 -76.142)" fill="#a0ae39"/>
    <path d="M467.1,305.577s44.938,22.39,53.131,32.279c9.69,11.7,33.622,60.823,33.622,60.823l1.833-1.436s-20.447-46.586-32.362-59.668c-11.236-12.337-52.679-32.506-52.679-32.506Z" transform="translate(-101.65 -76.142)" fill="#a0ae39"/>
    <path d="M480.446,304.04s42.886,19.184,51.739,26.787,28.972,61.929,28.972,61.929l1.6-1.268s-19.321-51.1-28.177-60.661-49.5-27.069-49.5-27.069Z" transform="translate(-101.65 -76.142)" fill="#a0ae39"/>
    <path d="M396.154,332.415l2.968,3.486s13.844-15.43,42.877-24.239,44.036-7.933,44.036-7.933l.142-1.911s-6.751-2.929-45.06,8.25C406.457,320.183,396.154,332.415,396.154,332.415Z" transform="translate(-101.65 -76.142)" fill="#fdf7bf"/>
    <path d="M463.217,202.987a28.586,28.586,0,0,1-3.059,4.881c-.517.7-1.125,1.462-1.822,2.249a38.519,38.519,0,0,1-2.7,2.789A37.239,37.239,0,0,1,452.4,215.7c-3.126,2.384-7.625,7.94-12.011,15.543-.855,1.462-1.687,3.014-2.52,4.633-.832,1.6-1.642,3.284-2.407,5.016h-.022a101.584,101.584,0,0,0-9.064,34.122c-1.957,27.823-10.954,36.281-10.055,40.375a8.537,8.537,0,0,0,1.327,3.081,6.49,6.49,0,0,0,2.564,2.227s-.112.2-.292.63c-.832,2.025-2.991,9.11.292,22.853,3.667,15.565,12.529,20.468,13.631,21.031-8.75-2.631-17.387-5.758-21.233-8.66-6.433-4.881-12.214-16.307-15.048-22.7,0,0-1.395-.225-3.081-2.474a10.543,10.543,0,0,1-1.6-5.736l.023-.023a210.991,210.991,0,0,0,12.483-26.564v-.022c3.329-8.817,5.961-18.287,5.781-25.912-.54-22.852-3.756-24.539-3.756-24.539s-2.587-1.237-6.433-2.812a65.836,65.836,0,0,0,2.2-22.358c-1.057-11.314-6.275-15.678-6.815-16.127,3.824.63,7.8,1.1,12.573,1.664,1.282.157,11.944,1.552,11.944,1.552l6.658.5s8.3,1.507,14.778.292c5.2-.99,6.905-2.677,7.4-3.307.09-.157.135-.248.135-.248l.022-.022,2.946-1.125S460.743,203.774,463.217,202.987Z" transform="translate(-101.65 -76.142)" fill="#1e331a" opacity="0.08"/>
    <g>
      <path d="M719,277.328s-24.763,3.926-45.124,28.245c-20.361,24.351-35.117,42.685-35.117,42.685s-38.157,1.71-61.241-7.822c-20.583-8.486-23.337-19.981-23.337-19.981s11.209-22.863,27.042-43.128a60.681,60.681,0,0,1,8.17-8.486c17-14.756,41.26-22.609,41.26-22.609s17.606-1.3,45.567,5.034a80.419,80.419,0,0,1,38.7,21.47A54.587,54.587,0,0,1,719,277.328Z" transform="translate(-101.65 -76.142)" fill="#9bcade"/>
      <path d="M718.992,277.331s-11.3,31.029-26.143,45.619c-19.791,19.455-54.1,25.318-54.1,25.318s21.789-35.811,40.119-54.46S718.992,277.331,718.992,277.331Z" transform="translate(-101.65 -76.142)" fill="#79a9c4"/>
      <path d="M714.92,272.736c-12.6,3.895-36.985,10.323-61.4,10.608-22.039.253-47.91-8.2-64.123-14.5,17-14.756,41.26-22.609,41.26-22.609s17.606-1.3,45.567,5.034A80.419,80.419,0,0,1,714.92,272.736Z" transform="translate(-101.65 -76.142)" fill="#bbe5f7" opacity="0.5"/>
    </g>
    <g>
      <path d="M398.864,465.289c-1.966,3.849-24.106,9.855-45.345,14.059-9.309,1.829-18.455,3.33-25.607,4.15l-.109.027c-7.726.874-13.1.928-13.9-.219-3.194-4.641-.9-101.365-5.214-103.6-4.15-2.157-113.513-26.972-120.338-28.5l-.328-.082-.055-.137c-.246-.683-1.092-3.522,1.447-7.016a20.068,20.068,0,0,1,7.1-5.788c11.657-6.306,83.729-7.18,97.215-7.726s89.435,11.93,96.533,19.875a12.327,12.327,0,0,1,2.075,3.986C399.874,375.39,402.331,458.519,398.864,465.289Z" transform="translate(-101.65 -76.142)" fill="#9bcade"/>
      <path d="M327.912,483.5l-.109.027c-7.726.874-13.1.928-13.9-.219-3.194-4.641-.9-101.365-5.214-103.6-4.15-2.157-113.513-26.972-120.338-28.5l-.328-.082-.055-.137c-.246-.683-1.092-3.522,1.447-7.016,23.4,4.313,123.8,22.959,126.535,27.327C319.039,376.21,327.912,483.5,327.912,483.5Z" transform="translate(-101.65 -76.142)" fill="#79a9c4"/>
      <path d="M398.864,465.289c-1.966,3.849-24.106,9.855-45.345,14.059.191-10.346,1.365-52.143,8.463-79.2,8.163-31.067,30.357-45.836,30.357-45.836C399.874,375.39,402.331,458.519,398.864,465.289Z" transform="translate(-101.65 -76.142)" fill="#bbe5f7" opacity="0.5"/>
      <path d="M428.785,462.723c-3.057,2.675-12.067,3.74-19.765,4.15-6.606.355-12.23.218-12.23.218s3.139-98.334-6.443-112.776c-6.5-9.8-94.185-23.86-94.185-23.86l2.375-.928c8.081-3.14,34.562-13.35,42.451-14.688,9.31-1.584,82.064,18.673,88.725,29.129C436.347,354.424,434.491,457.7,428.785,462.723Z" transform="translate(-101.65 -76.142)" fill="#f16062"/>
      <path d="M409.019,466.873c-6.606.355-12.23.218-12.23.218s3.139-98.334-6.443-112.776c-6.5-9.8-94.185-23.86-94.185-23.86l2.375-.928,5.624-2.157s78.323,9.31,94.376,22.6C414.125,362.915,409.32,461.249,409.019,466.873Z" transform="translate(-101.65 -76.142)" fill="#a01c2a" opacity="0.2"/>
    </g>
    <g>
      <polygon points="154.607 353.226 126.035 200.022 140.689 198.885 164.289 354.602 154.607 353.226" fill="#5a1e0d"/>
      <polygon points="87.147 323.853 56.647 198.43 69.4 197.065 94.867 328.446 87.147 323.853" fill="#5a1e0d"/>
      <polygon points="69.4 207.972 132.177 216.938 133.997 227.186 69.4 214.127 69.4 207.972" fill="#5a1e0d"/>
      <polygon points="83.305 216.938 104.081 328.446 106.811 328.446 89.877 218.267 83.305 216.938" fill="#5a1e0d"/>
      <polygon points="112.049 222.749 132.063 341.344 133.997 342.949 118.083 223.969 112.049 222.749" fill="#5a1e0d"/>
    </g>
    <path d="M478.246,129.906s-5.971-14.092-16.21-19.163-26-3.6-26-3.6,2.921-.321,10.946,1.958a31.177,31.177,0,0,1,13.064,7.672s-8.923-3.467-25.583-4.815a153.874,153.874,0,0,0-31.137.642s-2.407,26.707-9.951,42.724-4.076,26.193-4.076,26.193h-6.677a79.271,79.271,0,0,1-15.311-14.348c-5.874-7.255-10.914-16.724-9.726-27.028,2.5-21.988,22.63-34.764,23.882-35.534a.1.1,0,0,1,.064-.032s-4.911-2.439-16.916,1.091c-9.437,2.793-11.716,5.072-11.716,5.072s.385-5.97,12.005-9.02a29.625,29.625,0,0,1,18.265.835c-.321-.482-3.531-5.136-3.05-9.052.514-4.045,7.094-9.79,7.479-10.111a74.264,74.264,0,0,0-2.921,8.892c-1.059,4.43,1.22,8.892,1.22,8.892s17.522-26.862,53.826-24.936C477.985,78.232,478.246,129.906,478.246,129.906Z" transform="translate(-101.65 -76.142)" fill="#5a1e0d"/>
    <path d="M392.156,114.081c.546,4.013-1.461,31.111-11.492,43.383-2.237,2.737-9.341,8.554-13.353,9.71-5.874-7.255-10.914-16.724-9.726-27.028,2.5-21.988,22.63-34.764,23.882-35.534a.1.1,0,0,1,.064-.032S391.642,110.068,392.156,114.081Z" transform="translate(-101.65 -76.142)" fill="#7c2817"/>
    <path d="M445.337,210.848s11.162,12.248,12.776,40.4c1.679,29.286-1.079,42.2-1.079,45.006s4.888,5.515,4.45,6.3a20.606,20.606,0,0,0-.993,2.366l-2.574.614a2.759,2.759,0,0,0-.215-2.979c-1.07-1.755-3.611-2.958-3.344-6.3s4.707-24.063,1.822-47.838S443.709,211.3,443.709,211.3Z" transform="translate(-101.65 -76.142)" fill="#a0ae39"/>
    <path d="M389.3,104.58s25.419-28.74,55.739-22.721,31.122,36.074,31.122,36.074S470.676,85.737,442.723,84,389.3,104.58,389.3,104.58Z" transform="translate(-101.65 -76.142)" fill="#7c2817"/>
    <ellipse cx="442.916" cy="217.113" rx="5.11" ry="0.917" transform="translate(-135.397 14.067) rotate(-11.205)" fill="#a0ae39"/>
    <ellipse cx="447.389" cy="229.889" rx="5.11" ry="1.198" transform="translate(-137.789 15.158) rotate(-11.203)" fill="#a0ae39"/>
    <ellipse cx="451.339" cy="244.986" rx="5.11" ry="1.198" transform="translate(-132.851 -6.884) rotate(-8.483)" fill="#a0ae39"/>
    <ellipse cx="452.611" cy="263.744" rx="5.11" ry="1.198" transform="translate(-135.604 -6.492) rotate(-8.483)" fill="#a0ae39"/>
    <ellipse cx="350.352" cy="202.217" rx="5.11" ry="1.198" fill="#a0ae39"/>
    <ellipse cx="348.22" cy="219.37" rx="5.11" ry="1.198" fill="#a0ae39"/>
    <g>
      <ellipse cx="341.782" cy="140.768" rx="3.233" ry="2.624" fill="#fdf7bf"/>
      <path d="M443.527,218.972c-1.786,0-3.233-1.175-3.233-2.624,0-.021.007-.041.008-.062a2.14,2.14,0,0,0-.1.625c0,1.449,1.448,2.624,3.233,2.624a2.99,2.99,0,0,0,3.225-2.562A3.167,3.167,0,0,1,443.527,218.972Z" transform="translate(-101.65 -76.142)" fill="#b09d8d"/>
    </g>
    <g>
      <ellipse cx="346.464" cy="153.257" rx="3.233" ry="2.624" fill="#fdf7bf"/>
      <path d="M448.208,231.461c-1.786,0-3.233-1.175-3.233-2.624,0-.022.007-.041.008-.063a2.14,2.14,0,0,0-.1.625c0,1.449,1.448,2.624,3.233,2.624a2.99,2.99,0,0,0,3.225-2.562A3.167,3.167,0,0,1,448.208,231.461Z" transform="translate(-101.65 -76.142)" fill="#b09d8d"/>
    </g>
    <g>
      <ellipse cx="349.697" cy="168.565" rx="3.233" ry="3.262" fill="#fdf7bf"/>
      <path d="M451.442,247.271a3.248,3.248,0,0,1-3.233-3.263c0-.026.007-.051.008-.077a3.23,3.23,0,1,0,6.356.854A3.234,3.234,0,0,1,451.442,247.271Z" transform="translate(-101.65 -76.142)" fill="#b09d8d"/>
    </g>
    <g>
      <ellipse cx="350.804" cy="187.197" rx="3.233" ry="3.262" fill="#fdf7bf"/>
      <path d="M452.548,265.9a3.248,3.248,0,0,1-3.233-3.263c0-.026.007-.051.008-.077a3.23,3.23,0,1,0,6.356.854A3.234,3.234,0,0,1,452.548,265.9Z" transform="translate(-101.65 -76.142)" fill="#b09d8d"/>
    </g>
    <g>
      <ellipse cx="350.104" cy="202.217" rx="3.233" ry="3.262" fill="#fdf7bf"/>
      <path d="M451.848,280.923a3.248,3.248,0,0,1-3.233-3.263c0-.026.007-.051.008-.077a3.23,3.23,0,1,0,6.357.854A3.234,3.234,0,0,1,451.848,280.923Z" transform="translate(-101.65 -76.142)" fill="#b09d8d"/>
    </g>
    <g>
      <ellipse cx="348.528" cy="218.949" rx="3.233" ry="3.262" fill="#fdf7bf"/>
      <path d="M450.272,297.654a3.248,3.248,0,0,1-3.233-3.262c0-.027.007-.051.008-.078a3.23,3.23,0,1,0,6.356.854A3.234,3.234,0,0,1,450.272,297.654Z" transform="translate(-101.65 -76.142)" fill="#b09d8d"/>
    </g>
    <path d="M424.064,210.736a6.6,6.6,0,0,1,2.609-2.151,6.3,6.3,0,0,1,3.706-.566,20.215,20.215,0,0,0,5.657,2.051,57.579,57.579,0,0,0,7.673,1.227,26.1,26.1,0,0,1-11.351,1.9C425.537,212.931,424.064,210.736,424.064,210.736Z" transform="translate(-101.65 -76.142)" fill="#a0ae39"/>
    <path d="M445.337,210.848a8.937,8.937,0,0,0,2.416-2.9c.717-1.609,0-2.241,0-2.241a11.346,11.346,0,0,1,4.681-.8,14.194,14.194,0,0,1,3.263.551,9.235,9.235,0,0,1-4.357,3.862A14.24,14.24,0,0,1,445.337,210.848Z" transform="translate(-101.65 -76.142)" fill="#a0ae39"/>
    <circle cx="489.924" cy="229.225" r="4.27" fill="#fdf7bf"/>
    <circle cx="526.223" cy="231.445" r="2.05" fill="#fdf7bf"/>
    <circle cx="549.435" cy="193.171" r="4.577" fill="#fdf7bf"/>
    <circle cx="566.067" cy="224.646" r="1.77" fill="#fdf7bf"/>
    <circle cx="518.849" cy="199.717" r="1.969" fill="#fdf7bf"/>
    <circle cx="526.879" cy="179.345" r="2.705" fill="#fdf7bf"/>
    <circle cx="538.21" cy="266.124" r="3.264" fill="#fdf7bf"/>
    <circle cx="499.356" cy="267.323" r="2.066" fill="#fdf7bf"/>
    <circle cx="589.979" cy="190.334" r="1.74" fill="#fdf7bf"/>
    <circle cx="597.839" cy="223.219" r="2.111" fill="#fdf7bf"/>
    <circle cx="566.952" cy="252.583" r="0.885" fill="#fdf7bf"/>
    <circle cx="485.029" cy="207.734" r="2.719" fill="#fdf7bf"/>
    <circle cx="464.392" cy="242.76" r="1.247" fill="#fdf7bf"/>
    <circle cx="477.164" cy="256.161" r="1.273" fill="#fdf7bf"/>
    <circle cx="238.69" cy="329.051" r="3.277" fill="#fdf7bf"/>
    <circle cx="272.075" cy="344.987" r="1.353" fill="#fdf7bf"/>
    <circle cx="261.388" cy="367.236" r="4.556" fill="#fdf7bf"/>
    <circle cx="279.333" cy="384.738" r="1.923" fill="#fdf7bf"/>
    <circle cx="274.861" cy="310.974" r="1.433" fill="#fdf7bf"/>
    <circle cx="259.635" cy="290.815" r="1.753" fill="#fdf7bf"/>
    <circle cx="231.4" cy="358.141" r="1.605" fill="#fdf7bf"/>
    <circle cx="229.795" cy="381.465" r="3.344" fill="#fdf7bf"/>
    <circle cx="248.492" cy="393.889" r="2.914" fill="#fdf7bf"/>
    <circle cx="284.899" cy="367.771" r="0.535" fill="#fdf7bf"/>
    <circle cx="283.905" cy="283.752" r="2.65" fill="#fdf7bf"/>
    <ellipse cx="235.518" cy="276.855" rx="1.443" ry="0.721" fill="#fdf7bf"/>
    <circle cx="231.72" cy="299.875" r="3.798" fill="#fdf7bf"/>
    <ellipse cx="199.167" cy="270.199" rx="3.076" ry="1.006" fill="#fdf7bf"/>
    <ellipse cx="216.587" cy="283.752" rx="3.076" ry="1.006" fill="#fdf7bf"/>
    <ellipse cx="184.568" cy="259.759" rx="2.119" ry="1.06" fill="#fdf7bf"/>
    <ellipse cx="168.554" cy="267.014" rx="4.265" ry="1.207" fill="#fdf7bf"/>
    <ellipse cx="218.376" cy="263.754" rx="1.789" ry="0.895" fill="#fdf7bf"/>
    <ellipse cx="133.765" cy="265.21" rx="2.675" ry="1.228" fill="#fdf7bf"/>
    <path d="M399.157,191.732s-2.3,4.283-13.355,4.305c-11.086.017-22.693-14.869-21.808-21.376a3.19,3.19,0,0,1,1.607-2.518c8.288-4.488,23.334,4.062,23.334,4.062Z" transform="translate(-101.65 -76.142)" fill="#e2784e"/>
    <path d="M392.31,181.841s-10.62-6.928-19.321-7.591c-5.449-.432-7.895-.006-8.995.411a3.19,3.19,0,0,1,1.607-2.518c8.288-4.488,23.334,4.062,23.334,4.062Z" transform="translate(-101.65 -76.142)" fill="#faac75"/>
  </g>
</svg>
