<svg xmlns="http://www.w3.org/2000/svg" viewBox="0 0 403 595.28"><defs><radialGradient id="radial-gradient" cx="-52.78" cy="212.53" r="146.99" gradientUnits="userSpaceOnUse"><stop offset="0" stop-color="#fff"/><stop offset=".16" stop-color="#fcfcfc"/><stop offset=".29" stop-color="#f2f2f2"/><stop offset=".41" stop-color="#e1e1e1"/><stop offset=".53" stop-color="#c9c9c9"/><stop offset=".63" stop-color="#aaa"/><stop offset=".74" stop-color="#848484"/><stop offset=".84" stop-color="#585858"/><stop offset=".94" stop-color="#252525"/><stop offset="1"/></radialGradient><radialGradient id="radial-gradient-2" cx="-52.78" cy="212.53" r="146.99" gradientUnits="userSpaceOnUse"><stop offset="0" stop-color="#fff"/><stop offset=".91" stop-color="#fff"/><stop offset="1" stop-color="#fff"/></radialGradient><filter id="luminosity-noclip" x="44.52" y="-8490" width="22.94" height="32766" filterUnits="userSpaceOnUse" color-interpolation-filters="sRGB"><feFlood flood-color="#fff" result="bg"/><feBlend in="SourceGraphic" in2="bg"/></filter><filter id="luminosity-noclip-2" x="44.52" y="233.68" width="22.94" height="80.55" filterUnits="userSpaceOnUse" color-interpolation-filters="sRGB"><feFlood flood-color="#fff" result="bg"/><feBlend in="SourceGraphic" in2="bg"/></filter><mask id="mask" x="44.52" y="-8490" width="22.94" height="32766" maskUnits="userSpaceOnUse"/><mask id="mask-2" x="44.52" y="233.68" width="22.94" height="80.55" maskUnits="userSpaceOnUse"><g style="mask:url(#mask);filter:url(#luminosity-noclip-2)"><path d="M58.59 233.68s-15.13 11.6-14 39.83a50.66 50.66 0 0 0 22.88 40.72s-29.01-31.82-8.88-80.55Z" style="mix-blend-mode:multiply;fill:url(#radial-gradient)"/></g></mask><style>.cls-4{fill:#eecfb0}.cls-5{fill:#7dc0b3}.cls-6{fill:#1758a3}.cls-7{fill:#d31219}.cls-8{fill:#7e1710}.cls-9{fill:#fff}.cls-12{fill:#901916}.cls-13{fill:#62121d}.cls-14{fill:#eaba91}.cls-15{fill:#636467}.cls-17{fill:#9d6243}.cls-19{fill:#302716}.cls-20{fill:#161616}.cls-23{fill:#57bbeb}.cls-24{fill:#72c7f1}.cls-25{fill:#3d9ed8}.cls-28{opacity:.5}.cls-27{fill:#a6daee}.cls-28{fill:#c8e4f7}</style></defs><g style="isolation:isolate"><g id="Слой_1" data-name="Слой 1"><path class="cls-4" d="M219.2 426.87c3 16.36 6.41 32.69 10.25 48.88 6.19 26.16 12 53.7 23.51 78.15a79 79 0 0 0 7.11 12.84c2.57 3.52 7.16 6 10.16 1.81s1.27-12.77.92-17.4c-1.69-22.71-9.5-56.71-11.68-126Z"/><path class="cls-5" d="M271.16 551.16c-.86-11.64-3.34-26.28-5.84-47.12-9.08 3.51-18.6 5.49-28 4.23 4.07 15.68 8.87 31.2 15.67 45.64a79 79 0 0 0 7.11 12.84c2.57 3.52 7.16 6 10.16 1.81s1.24-12.77.9-17.4Z"/><path class="cls-6" d="M257.12 509.11a54.41 54.41 0 0 0 8.49-2.63l-.3-2.44c-9.08 3.51-18.6 5.49-28 4.23l.75 2.85c6.35 1.29 12.83-.43 19.06-2.01Z"/><path class="cls-6" d="M256.93 514.53a62.07 62.07 0 0 0 9.27-3.39l-.43-3.38a50.52 50.52 0 0 1-6.92 2.23c-6.66 1.74-13.62 3.67-20.44 2.49l1.1 4c5.49 1.43 12.29-.48 17.42-1.95Z"/><path class="cls-7" d="M269.22 533.85a32.14 32.14 0 0 0-15.17.23 46.83 46.83 0 0 0-8.11 2.78c2.1 5.81 4.4 11.5 7 17a79 79 0 0 0 7.11 12.84c2.57 3.52 7.16 6 10.16 1.81s1.27-12.77.92-17.4a289.99 289.99 0 0 0-1.91-17.26Z"/><path class="cls-8" d="m266.63 540.7-.33-4.29s-9.68-1.77-15.13 3.83l1 4.13.39-3.4s6.09-4.26 12.38-2.87Z"/><path class="cls-9" d="M267.27 543s-8.44 2.87-11.55 8.49c0-.03 9.13-4.65 11.55-8.49Z"/><path class="cls-9" d="M253.59 545.4s8.86-1 14.09 2.71c0 0-10.24-.25-14.09-2.71ZM268.32 551.2s-6.64 2.25-9.09 6.67c0 0 7.18-3.62 9.09-6.67Z"/><path class="cls-9" d="M257.56 553.12s7-.81 11.06 2.13c.01 0-8.04-.2-11.06-2.13Z"/><path class="cls-6" d="M264.74 360.35s11.26 58.8 9.38 67.65c0 0-24.14 17.77-64.69 6.06l-7.51-30-5.1 30s-28 8.83-59.52-9c0 0 14.68-64.77 28.38-76.32-.02.06 60.13 23.96 99.06 11.61Z"/><path d="M244.9 363.73c3.63 11.44 11.29 27.8 25.88 31.16-2.73-17.24-6-34.54-6-34.54a80.1 80.1 0 0 1-19.88 3.38Z" style="fill:#62b7b3"/><path d="M137.29 425.12c31.49 17.78 59.52 9 59.52 9-3.49-7.94-49.4-16.04-59.52-9Z" style="fill:#143f6f"/><path class="cls-12" d="M232.9 227s-53 1.5-79.16 5.15c0 0-4.73.64-1.52 28.93s8.55 26.6 8.55 26.6l67.36-19Z"/><path class="cls-13" d="M162.9 266.45c-1.1-16.29-3.43-35-9.16-34.29 0 0-4.73.64-1.52 28.93s8.55 26.6 8.55 26.6h.08c1.69-4.58 2.64-12.47 2.05-21.24Z"/><path class="cls-4" d="M167 423.15c-13.7-2.34-23.21-.23-27.37 1.09 1.06 25.62 6.67 97.08 36.29 147.34 0 0 6 8.65 11.23-4.24 5.05-12.44-12.74-92.37-9.87-142-3.06-.81-6.47-1.55-10.28-2.19Z"/><path class="cls-5" d="M154.66 520.35c5.15 17.78 12.06 35.54 21.31 51.23 0 0 6 8.65 11.23-4.24 2.43-6-.41-27.53-3.72-53.83a90.6 90.6 0 0 1-28.82 6.84Z"/><path class="cls-6" d="M177.89 517.94c1.95-.7 4-1.22 5.9-1.91l-.32-2.51a90.6 90.6 0 0 1-28.81 6.83l.72 2.37c3.62.28 17.75-3.07 22.51-4.78ZM179.37 522.34c1.58-.55 3.34-1.66 4.93-2.26l-.34-2.73c-1.89.66-3.85 1.11-5.71 1.83-5.75 2.19-19.82 4.94-22.47 4.85.32 1.06.68 2.13 1 3.2 7.8.25 15.35-2.38 22.59-4.89Z"/><path class="cls-7" d="M173.18 542.19c-2.1.81-6.64 3.13-8.85 5.88A192.31 192.31 0 0 0 176 571.58s6 8.65 11.23-4.24c1.46-3.6 1-12.86-.31-25.4-3.99-1.99-9.39-1.45-13.74.25Z"/><path class="cls-8" d="m168.88 552.16-2.11-3.74s7-6.87 14.69-5.26l1.45 4-2.22-2.62s-7.44-.13-11.88 4.53Z"/><path class="cls-9" d="M169.62 554.41s8.6-2.32 14.32.61c0-.02-10.15 1.26-14.32-.61Z"/><path class="cls-9" d="M182.33 548.8s-7.92 4.08-10.18 10.1c0 0 8.36-5.9 10.18-10.1ZM173.34 561.83s6.77-1.83 11.27.47c0 0-7.99.99-11.27-.47Z"/><path class="cls-9" d="M183.34 557.42s-6.23 3.21-8 7.94c-.01 0 6.56-4.65 8-7.94Z"/><path class="cls-14" d="M154.68 232.65s4.28 1 6.09 13.18a185 185 0 0 1 2.23 23.62s-32.7.95-42.77-3.21c-9.86-4.08-6-44.67-15.13-56.66a9.79 9.79 0 0 0-.58-.7c-9.88-11 7.25-33.52 13.7-11.84s7.38 32.26 11.28 34.89 25.18.72 25.18.72Z"/><path class="cls-15" d="M49.27 311.79a43.91 43.91 0 0 1-14.19-24.27c-.05-.22-.39-.17-.36.05 1.69 9.1 6.22 19.33 14.21 24.66a.28.28 0 0 0 .34-.44ZM45 315.46c-4.17-4-7.62-7.77-10.32-12.92A43.11 43.11 0 0 1 30.22 286a.15.15 0 0 0-.3 0c-.6 11.1 5.2 24.05 14.81 29.8a.22.22 0 0 0 .27-.34Z"/><path class="cls-7" d="M272 367.24s-69.07 17.82-110.87-14c0 0-3.87-36.47 15.26-77.18s35.89-52.84 61.57-50.7c0 0 28.64 3.54 28 17.7S269 343.68 272 367.24Z"/><path class="cls-14" d="M218.2 224.16s-3.2 20.26 6.8 22.12 15.82-16 14-24.15Z"/><path d="M143.34 75.68s-21 18-20.09 26 7.48 18 15.77 27.3 20 26.92 11 46.81L282.79 211s31.43-7.64 55.14-37.15 32.17-70.67 19.41-86.36-162.86-62.81-214-11.81Z" style="fill:#1a150f"/><path class="cls-14" d="M159.14 157.91s-6.14-16.27-15.64-15.59-20.61 11.9-15.38 28.12c5.88 18.08 35.37 7.97 31.02-12.53Z"/><path class="cls-17" d="M143.53 155.53c-3.68-4-9.61-2.74-9.42 3.21 0 .16.24.15.27 0a4.34 4.34 0 0 1 7.17-2.85 9.3 9.3 0 0 1 3.07 5.31 9.42 9.42 0 0 1-.31.92 7.2 7.2 0 0 1-2 2.38 8 8 0 0 1-5.39 1.71.17.17 0 0 0-.05.33 7.68 7.68 0 0 0 8.26-2.9 18.15 18.15 0 0 1-.44 8.62.48.48 0 0 0 .81.48c3.75-4.49 1.67-13.22-1.97-17.21Z"/><path d="M347.63 69.86s21 2.37 30.25 11.05c0 0-15.49-35.6-69-40.54 0 0 9-9.25 21-8.13 0 0-20.83-10.16-46.12 6.6 0 0 5-14.94.85-27.33 0 0-5.2 17.11-11.27 21.89 0 0-24.56-44.63-102.56-17.59 0 0 21.52 1.84 36 10.61 0 0-80.43-12.61-108.62 65.14L131.7 79.1s-14 14.72-19.06 25.74c0 0 38.84-11.14 56.13-19.53 0 0-20.62 18.4-26.12 29.32a70.34 70.34 0 0 0 2.23 10.45c10.33-4 20.61-8.28 31.47-10.54 4.93-1 10.59-2.16 15.58-.89 6 1.54 7.44 9.44 13.63 10.4 8.67 1.34 18.08-3.82 26.35-6.12 3.86-1.07 12.07-4.27 16-1.46 5 3.61 5.4 11.59 10.66 14.57 9.14 5.2 12.57-5.07 17-10.75a1.3 1.3 0 0 1 1.75-.42c7.51 4.46 13.71 10.72 21 15.44.68-5.43 1.44-8.9 1.44-8.9l9.63 8.14 2.1-36.36s18.85 19.9 30.33 25.71c0 0-.13-13.59-5.91-24.37 0 0 33.06 14.72 41.21 25-.05.01 1.81-32.74-29.49-54.67Z" style="fill:#3e2a16"/><path class="cls-4" d="M271 96.81c-3.81 10.55-4.35 27.69-4.35 27.69-11.16-10.59-13-31.26-13-31.26-24.49 18.52-45.94 16.68-45.94 16.68C220.6 104.11 233 87.67 233 87.67c-27.38 5.31-90.32 27-90.32 27a82.7 82.7 0 0 0 7.54 24.44c4.16 8.55 4.15 22.17-.59 32.83-2.77 6.23-8.45 13.86 3.89 25.43s45.75 34.87 79.34 33.3 62.8-29.07 73.16-41.2c0 0 22.4 6.79 25.51-20.57 3-26.15-16.65-28.32-22.56-21.52s-11.42 21.25-11.71 6.39a130.27 130.27 0 0 1 2.48-27.3C287.63 116.42 271 96.81 271 96.81Z"/><path class="cls-17" d="M319.91 156.12c-3.73-1.6-7.52 1-9.76 3.79a19.58 19.58 0 0 0-3.86 11.57c0 3.6.32 9.35 3.74 11.59a.28.28 0 0 0 .35-.44c-3.06-2.72-3.28-7.83-2.51-12.3A16.69 16.69 0 0 0 309 174c1.46 3.23 5.46 3.92 8.51 2.86a.32.32 0 0 0-.07-.62 58.54 58.54 0 0 0-3.21-.25c-2.49-.13-3.77-2-4.64-4.1a12.81 12.81 0 0 1-.76-5.64c.16-.52.33-1 .52-1.45a12.78 12.78 0 0 1 5.3-6.62c5.35-3.05 7.46 2.76 7.39 6.84a.59.59 0 0 0 1.17.16c.86-3.18.15-7.58-3.3-9.06ZM308 148.44c-4.25 3.83-7.25 9.48-9.07 14.84-.07.2.22.41.33.2a131.59 131.59 0 0 1 8.74-15.04ZM301.47 184.94c-.07-.1-.27 0-.2.12 2.29 4.05 8.27 6.64 13 5 .25-.06-9.27-.17-12.8-5.12Z"/><path class="cls-19" d="M173.94 170.87c0 6.89-2 12.46-4.39 12.47s-4.4-5.58-4.41-12.47 2-12.47 4.39-12.47 4.41 5.6 4.41 12.47Z"/><ellipse class="cls-9" cx="167.89" cy="167.14" rx="1.41" ry="4.01"/><path class="cls-19" d="M228.88 165.61c1.07 7.37-.16 13.67-2.77 14s-5.58-5.3-6.65-12.68.16-13.68 2.76-14.05 5.58 5.35 6.66 12.73Z"/><path class="cls-9" d="M223.33 162.32c.34 2.37-.05 4.39-.89 4.51s-1.8-1.7-2.15-4.07.06-4.4.89-4.51 1.82 1.7 2.15 4.07Z"/><path class="cls-20" d="M228.29 132.16s-13.36-8.67-22.17 3.47c0 0 .17-8.95 8.6-11.13 7.9-2.05 13.57 7.66 13.57 7.66ZM158.59 140.78s7.42-11.86 16.42.62c0 0-.75-9.19-8.05-9.16s-8.37 8.54-8.37 8.54Z"/><path d="M191.27 204.38s30.52 8.19 63.43-22.26c0 0 8.28 32.36-13.57 40.8s-38.98-5.22-49.86-18.54Z" style="fill:#e97f88"/><path d="M227.07 225.5a36.56 36.56 0 0 0 14.07-2.58c7.71-3 11.66-8.92 13.55-15.39-20.69.91-26.19 12.47-27.62 17.97Z" style="fill:#df514c"/><path class="cls-9" d="M239 208.1c8.73-3.29 14.08-7.61 17.27-12.16a60.72 60.72 0 0 0-1.53-13.82c-19.34 17.9-37.86 22.44-49.84 23.15 4.1 5.56 13.41 10.62 34.1 2.83Z"/><path class="cls-23" d="M130.15 223.18c-4.81 4.29-13.56 12.7-18.53 10s-12.35-14.24-30.71-14.58-39.29 16.59-39.12 51.4 23.85 52.51 46.67 48 21.45-23.85 34.15-22.31 15.82 13.9 19.56 7.55 20.94-46.59 4.74-75.5c-8.29-14.74-16.76-4.56-16.76-4.56Z"/><path class="cls-24" d="M64.26 215.63C62.82 221.7 62 228.84 66 230.56s8.24-1.54 8.92-7.46 3.27-17.76 15.1-16.56 13 8.54 11.93 18.85.94 11.86 4.37 12.38 7.8-1.72 8.19-17-13.51-22.11-21.59-23.23-23.85-2.16-28.66 18.09Z"/><path class="cls-23" d="m142 318.75-9.94 2.76 9.94 69.64c.09 2.75 9.62 4.64 21.27 4.23s21-3 20.92-5.72l6.49-70.22Z"/><ellipse class="cls-25" cx="161.4" cy="320.47" rx="29.33" ry="4.98" transform="rotate(-2.03 161.17 319.88)"/><path d="m134.58 339 7.42 52.15c.09 2.75 9.62 4.64 21.27 4.23s21-3 20.92-5.72L188.9 339Z" style="opacity:.5;fill:#bbe3f6"/><path class="cls-27" d="M189 338.92c0 2.75-12.16 5-27.18 5.09s-27.22-2.11-27.22-4.86 12.16-5 27.18-5.09 27.22 2.12 27.22 4.86Z"/><path class="cls-28" d="M106.32 270.66C94 266.37 57.47 264.76 42 275c2.3 31.52 24.76 47.3 46.46 43.06 22.83-4.46 21.45-23.85 34.15-22.31s15.82 13.9 19.56 7.55c.14-.23.3-.52.46-.84-14.39-23.04-27.72-28.81-36.31-31.8Z"/><path class="cls-28" d="M142.63 302.48c-14.38-23.05-27.72-28.83-36.3-31.81C94 266.37 57.47 264.76 42 275c0 0 5.78 5.06 38.82 6.13 27.24.89 55.89 12 61.33 22.2.16-.25.31-.53.48-.85Z"/><path class="cls-25" d="M146.9 227.81c-6.14-11-12.39-8.21-15.19-6.06a18.33 18.33 0 0 1-2.64 2.41l-.11.1-1.37 1.23c-8.42 8.3-7.21 24.38-5.58 34.82a112 112 0 0 0 6.36 23.84c.95 2.41 9.74 24.66 13.8 19.17 3.74-6.32 20.93-46.6 4.73-75.51Z"/><path class="cls-24" d="M144.08 335.34a114.58 114.58 0 0 0-10.77-40.14s-3.27-6.63-4.94-11.06c0 0 22.78 24.77 27.09 50.08a80.39 80.39 0 0 0-11.38 1.12Z"/><path class="cls-27" d="M144.08 335.34c1.66-.34 5 5.24 6.85 5.07 3.18-.29 4.52-6.19 4.52-6.19a63.72 63.72 0 0 0-2.15-8.63c-4.05-.08-8.05-.39-10.52-.64.81 6.31.81 6.3 1.3 10.39Z"/><g style="mask:url(#mask-2)"><path d="M58.59 233.68s-15.13 11.6-14 39.83a50.66 50.66 0 0 0 22.88 40.72s-29.01-31.82-8.88-80.55Z" style="mix-blend-mode:screen;fill:url(#radial-gradient-2)"/></g><path class="cls-4" d="M102.26 220.48s-3-9.72 1.84-12.19 7.63-2 10.15 8.46c0 0 3.87-.73 2.67-14.6s-3.62-17.21-11.12-21.4-17.88-1.06-23.42 2.41-10.25 11.41-9.79 20.39 3.9 12.14 14.22 12 5.72 7.93 15.45 4.93Z"/><path class="cls-17" d="M109.08 196.8a.18.18 0 0 0-.17.3 13.76 13.76 0 0 1 5.54 7.16c1.39 3.77 1.06 7.68.06 11.49a.26.26 0 0 0 .49.2c2.9-6.55 1.55-16.43-5.92-19.15Z"/><path class="cls-17" d="M112.1 206c-2.41-1.28-5.07-2.06-7.55-.3-2.08 1.48-3.82 4.31-3.41 6.94a.2.2 0 0 0 .39 0 14.42 14.42 0 0 1 2.14-5.22c2.09-2.75 5.53-2.34 8.34-1.24.15.14.22-.06.09-.18Z"/><path class="cls-12" d="M299.26 306.92s.64-18-9.43-42.83-27.55-33.69-30.39-32-5 18.67-4.12 33-3.64 26.37-5.79 32.15 7.29 10.72 27 12.43 22.77.21 22.73-2.75Z"/><path class="cls-13" d="M264.81 290.67c-7.89 1.09-12.65 3.76-15.37 7-1.65 5.64 7.77 10.41 27.1 12.09 16.57 1.44 21.37.56 22.45-1.51-2.6-10.31-15.51-20.18-34.18-17.58Z"/><path class="cls-14" d="M193.32 335.34s22.95 6.17 47.06-10.38c21.14-14.5 15.21-31.77 15.21-31.77s20.85-8.73 36.62 4.52c0 0 3.13 33.65-26.39 47.88s-66.33 9.93-66.33 9.93Z"/><path class="cls-4" d="M189.48 332.69s16 .95 15.25 21.62c-1.08 30.74-15.7 36.45-21.08 33.7-4.9-2.51 2.42-4.83 9-14 0 0-10.74 7.65-12.89 4.56-2.74-3.94 10.35-16.42 13.69-18.3 0 0-14 8.77-16.64 3.26s11.81-11.19 17.85-15.57c0 0-24.55 10.13-22 1.61 1.58-5.29 16.19-8.32 16.52-12.62Z"/><path d="M186.46 185.76c5.08-4 10.64 1.31 10.64 1.31s-6.19-8.66-13.23-1.2 3.61 16.79 14.6 10.09c-10.96 4.71-17.09-6.22-12.01-10.2Z" style="fill:#9b6042"/></g></g></svg>