<svg id="Слой_1" data-name="Слой 1" xmlns="http://www.w3.org/2000/svg" xmlns:xlink="http://www.w3.org/1999/xlink" viewBox="0 0 524 519.28"><defs><linearGradient id="linear-gradient" x1="64.4" y1="414.45" x2="47" y2="275.22" gradientUnits="userSpaceOnUse"><stop offset="0" stop-color="#61331f"/><stop offset="1" stop-color="#955f3e"/></linearGradient><linearGradient id="linear-gradient-2" x1="159.63" y1="343.13" x2="26.2" y2="347.49" xlink:href="#linear-gradient"/><linearGradient id="linear-gradient-3" x1="284.68" y1="354.65" x2="437.94" y2="389.35" xlink:href="#linear-gradient"/><linearGradient id="linear-gradient-4" x1="381.06" y1="319.03" x2="443.42" y2="294.38" xlink:href="#linear-gradient"/><linearGradient id="linear-gradient-5" x1="223.15" y1="63.65" x2="233.46" y2="12.73" xlink:href="#linear-gradient"/><linearGradient id="linear-gradient-6" x1="149.6" y1="27.6" x2="153.95" y2="1.49" xlink:href="#linear-gradient"/><linearGradient id="linear-gradient-7" x1="325.95" y1="65.96" x2="321.6" y2="29.22" xlink:href="#linear-gradient"/><linearGradient id="linear-gradient-8" x1="260.64" y1="101.05" x2="255.49" y2="95.73" gradientUnits="userSpaceOnUse"><stop offset="0" stop-color="#1f1f1f"/><stop offset="1" stop-color="#1b181c"/></linearGradient><linearGradient id="linear-gradient-9" x1="180.54" y1="83.71" x2="176.92" y2="79.96" xlink:href="#linear-gradient-8"/><linearGradient id="linear-gradient-10" x1="166.31" y1="116.32" x2="138.59" y2="116" gradientUnits="userSpaceOnUse"><stop offset="0" stop-color="#d09c75"/><stop offset="1" stop-color="#ba8862"/></linearGradient><linearGradient id="linear-gradient-11" x1="111.38" y1="75.12" x2="98.17" y2="111.87" gradientUnits="userSpaceOnUse"><stop offset="0" stop-color="#8d8f91"/><stop offset="1" stop-color="#3b3c3d"/></linearGradient><radialGradient id="radial-gradient" cx="406.45" cy="229.02" r="29.25" gradientTransform="matrix(.99 0 0 .84 -112.3 -68.98)" gradientUnits="userSpaceOnUse"><stop offset="0" stop-color="#703e2b"/><stop offset="1" stop-color="#61331f"/></radialGradient><radialGradient id="radial-gradient-2" cx="71.37" cy="10.49" r="29.25" gradientTransform="matrix(.75 .65 -.55 .64 87.1 47.18)" xlink:href="#radial-gradient"/><radialGradient id="radial-gradient-3" cx="316.63" cy="216.14" r="47.4" gradientTransform="matrix(.87 0 0 .87 -60.56 -19.13)" gradientUnits="userSpaceOnUse"><stop offset="0" stop-color="#774c32"/><stop offset="1" stop-color="#955f3e"/></radialGradient><style>.cls-1{fill:#61331f}.cls-6{fill:#522818}.cls-7{fill:#ba8862}.cls-8{fill:#955f3e}.cls-9{fill:#af7a52}.cls-10{fill:#1b181c}.cls-17{fill:#fff}.cls-20{fill:#5b361f}</style></defs><path class="cls-1" d="m480.82 369.51-12.09 2.9c-5.8 1.93-10.64 3.87-16.44 5.8v1c-30-20.31-42.55-46.41-47.38-79.29-5.8-35.78-15.47-63.82-32.88-94.76-18.37-33.84-35.78-58-52.21-92.83l-160.19 57.34C112.29 202 90.59 265 94 321.37 91.52 331.4 82.92 347 76.47 354c-1.93 3.22-3.87 5.8-7.74 6.45-9.67 2.58-6.44-3.87-11.6-9-11.61-13.53-26.43 2.55-30.3 14.84-7.73 21.92-5.16 49 3.22 70.26 7.73 20.63 17.4 22.56 35.45 18.7 14.18-3.22 30.3-2.58 45.13-5.16a6.53 6.53 0 0 0 1.93-.64l2.3.56a37.11 37.11 0 0 0-2.95 8.46l1.29 3.87c3.23 1.93 4.51 6.45 7.74 9 7.09 7.74 17.4 9 27.07 9.67 12.89 1.29 16.11-1.29 26.43-7.74 1.93-1.29 5.16-3.87 7.74-4.51l4.51-.64c1.29-4.51-.64-8.38-3.87-11.6a29.61 29.61 0 0 0 4.08-10l4.1.37h-3.66l30.94 2.9c-1.37-.27-2.76-.52-4.17-.76l5.46.49a25.54 25.54 0 0 0 .65 4.46c-.65.64-1.29.64-1.94 1.29a51.66 51.66 0 0 0-9.67 13.54l2.58 3.87c12.89 16.12 65.11 20 83.16 0 2.33-2.58.64-9 .64-12.25.41-.73.64-1.28.64-1.28.56-.7 1.11-1.4 1.64-2.12l4.16-.46c16.44 1 31.91-4.84 46.41 0 30.94 9.67 58 29 90.89 34.81 3.6.9 8 1 11.73 1.75l1.32 1.15a21 21 0 0 0 3.39 2.9c9.18 4.84 22.24 3.38 26.59-7.25 3.39-7.25 1.45-16 1.45-23.69l-.48-1.45c1.93-10.64 5.32-21.27 8.22-32.39 4.37-16.96 20.81-64.34-10.13-62.89Z"/><path d="M30.7 423.66s-11.12-66.72 14-73.49c0 0 7.74-.48 13.54 13.05s22.24-4.83 29-17.4c0 0 14.5 61.4 11.12 77.84s-14.5 11.6-27.56 16.44-32.8 9.67-40.1-16.44Z" style="fill:url(#linear-gradient)"/><path d="M124.5 432s-34.81-87-24.17-151.81 33.84-69.62 46.41-65.75 28 26.11 33.84 46.41 8.7 41.58 2.9 69.62-11.6 59-6.77 77.36 0 45.45 0 45.45-13.54 22.24-29 20.31-35.78-5.8-26.11-29c-.01.02 4.83-6.75 2.9-12.59Z" style="fill:url(#linear-gradient-2)"/><path d="M236.69 478.67c1.65.33 3.26.57 4.73.78 11.43 1.61 46.89 7.1 47.94-12.6.38-7-1.84-7.77 2.9-14.34 15.25-21.13 24.86-45.78 33.39-70.21 8.38-24 18-48.53 22.21-73.7 4.84-29-3.87-61.89-19.34-74.46s-58-18.37-65.75 4.83-14.5 59-9.67 86.06 1 51.25-5.8 62.85l-6.77 11.6S224.11 428.46 226 443c1.3 9.84-9.36 17.62-4.53 27 2.78 5.24 9.26 7.49 15.22 8.67Z" style="fill:url(#linear-gradient-3)"/><path d="M341.33 164c9.05 16 18.17 31.73 27.78 47.58 10.9 18 16.88 37.1 22.84 56.93 11.49 38.16 9.68 84.71 45.28 112.81 10.63 8.39 13.47 6.57 24.33 1.77 12.51-5.52 17.63-9 23.53 5.48 7.9 19.39 2.27 43.37-6.49 60.88-11.5 23-16.32 35.77-43.5 25.37-20.21-7.73-37.45-21.79-56.53-31.94-18-9.55-37.21-16.28-38.83-39.48-1.66-23.71 10.46-45.94 14.82-68.17 8-40.82 13.49-94.86-26-123.64a56.93 56.93 0 0 0-15.73-8.31c4.63-9.25 10.11-18.1 14-27.72 2.17-5.43 9.33-20.82 6.24-26.31q4.1 7.44 8.26 14.75Z" style="fill:url(#linear-gradient-4)"/><path class="cls-6" d="M93.5 323.13a75.32 75.32 0 0 1-4.28 10.79c3.4 11.25 8.19 44.75 9.81 58.79 1.93 16.76 12.25 47.06-5.8 49s-25.79 5.8-39.32 5.8-23.85-11.6-23.85-11.6l-.12.34.12.3c7.73 20.63 17.4 22.56 35.45 18.7 14.18-3.22 30.3-2.58 45.13-5.16a6.53 6.53 0 0 0 1.93-.64l2 .49a74.66 74.66 0 0 1 5.75-8.22c-1.28-4.51-11-37.39-11-37.39-11.53-31-14.95-68.4-15.82-81.2Zm353 161.93c-7.25-1.93-27.56-5.8-46.41-16.92s-41.58-20.31-54.15-25.62-19.82-27.08-9.67-56.57 13.54-59 13.54-59c-1.45 9.67-11.12 37.23-11.12 37.23-7.74 12.09-18.37 45.45-18.37 45.45a173.26 173.26 0 0 1-22.24 46.9l.43.33 3-.33c16.44 1 31.91-4.84 46.41 0 30.94 9.67 58 29 90.89 34.81 3.6.9 8 1 11.73 1.75l1.32 1.15a21 21 0 0 0 3.39 2.9 23.24 23.24 0 0 0 8.3 2.49c-6.46-2.5-10.28-12.76-17.06-14.57Zm-118-342.79c1.21-15.8-8.43-22.94-20.06-25.91l-148.81 53.31c-21.09 14.42-37.08 34.93-48 58.21 14.91-9.22 34.6-18.11 49.65-13.09 23.21 7.73 67.69 21.27 106.37 6.77s57.97-41.56 60.87-79.29Z"/><path class="cls-7" d="M240.53 389.09c8.46-19.82 5.08-52.46 5.08-52.46a121 121 0 0 1-.49-35.05c1.45-30.94-9.67-45-26.11-45.69s-23.69 28.53-22.72 46.17-8.22 49.8-9.67 62.61-3.38 39.16-.24 55.12a74 74 0 0 1 .39 27.34c0-.2.1-.4.14-.6l4.1.37h-3.66l30.94 2.9c-1.37-.27-2.76-.52-4.17-.76l5.3.48c-1.66-17.14 12.77-40.9 21.11-60.43ZM486.14 379.18c-21.28-1.45-32.88 56.57-31.43 87s16.92 28 16.92 28c9.67-.48 7.74-11.6 7.25-21.27s1-7.25 4.84-27.56 23.69-64.72 2.42-66.17Z"/><path class="cls-8" d="M475.17 405c-1 4.47-2.15 7.72-4.89 7.11s-4.14-4.74-3.13-9.21 4-7.59 6.78-7 2.25 4.64 1.24 9.1ZM467.36 480.14c-.24-4.57 0-8 2.78-8.16s5.27 3.44 5.51 8-1.83 8.4-4.63 8.55-3.42-3.82-3.66-8.39ZM487.24 394.58c-1.16 4.44-2.37 7.67-4.71 7.06s-3.3-4.71-2.13-9.15 4-7.54 6.35-6.92 1.65 4.57.49 9.01ZM486.37 405.61c1.42-4.36 2.78-7.53 4.84-6.86s2.58 4.75 1.16 9.12-4.25 7.36-6.31 6.69-1.06-4.56.31-8.95Z"/><path class="cls-9" d="M186.38 419.79a74 74 0 0 1 .39 27.34c0-.2.1-.4.14-.6l4.1.37h-3.66l30.94 2.9c-1.37-.27-2.76-.52-4.17-.76l5.3.48c-1.66-17.11 12.77-40.87 21.11-60.4 8.46-19.82 5.08-52.46 5.08-52.46-.59-3.42-1-6.8-1.22-10-1.1 12.51-4.65 40.84-17.72 68.69a1399.32 1399.32 0 0 0-19.36 43.17 77.57 77.57 0 0 0-13.13-.82c-2.37-14.35-4.88-37.17-1.67-57.83a328.25 328.25 0 0 0 3.36-66.34c-1.82 17.76-8.07 40.82-9.24 51.2-1.46 12.76-3.39 39.1-.25 55.06Z"/><path class="cls-6" d="M120.56 442.5c.15-.24-.16-.57-.4-.4-4.91 3.42-7.71 10.69-8.34 16.37 0 .13.18.14.22 0a77.05 77.05 0 0 1 3.52-8.66c1.35-2.66 3.37-4.81 5-7.31Zm97.58 13.76c.6-.6 2.76-1.25 2.81-2.3.12-2.47-.58-5-.51-7.54a46.43 46.43 0 0 1 1.34-9.26c2.76-11.91 8.46-23.06 13.42-34.15 4.85-10.84 9.45-21.34 10.47-33.31a206.13 206.13 0 0 0-.13-38.55c-.47-4.45-1-8.88-1.17-13.37-.15-5.36.63-10.63 1.16-15.95 0-.19-.29-.23-.33 0-2.06 10.51-1.23 21-.47 31.58a216.41 216.41 0 0 1-.34 38.71c-1.34 12.23-6.89 23.54-12.16 34.49-5.2 10.79-10.71 21.68-12.91 33.56a42.75 42.75 0 0 0-.7 7.59 16.88 16.88 0 0 0 .73 6c-4.88 4-8.13 9.31-10.92 14.91-.14.27.26.51.41.24a53.43 53.43 0 0 1 6-9 54.32 54.32 0 0 1 3.3-3.65Zm-36 12.2c-3.06.74-5.47 2.37-8.08 4.09s-5.33 3.38-8.08 4.89c-5.4 2.95-11 3.32-17.07 2.81-7.24-.61-14.44-1.17-21-4.52a28.86 28.86 0 0 1-8.36-6.76c-2.08-2.39-3.44-5.08-6.16-6.84-.27-.18-.51.25-.25.43 2.71 1.86 3.95 5.32 5.93 7.84a28 28 0 0 0 8 6.69c6.07 3.47 13.4 4.27 20.25 4.77 6.14.45 11.83.63 17.56-1.92a65.14 65.14 0 0 0 8.07-4.64c3-1.92 6-5 9.36-6.18a.34.34 0 0 0-.21-.66Zm113.19-8.05a.29.29 0 0 0-.58 0c-.1 2.13.14 4.23.19 6.37.07 2.8-.44 4.67-2.44 6.63a34.57 34.57 0 0 1-9.59 6.37c-8.1 3.82-17.31 5.25-26.18 5.59a87.32 87.32 0 0 1-26.68-3c-6.34-1.76-14.28-4.66-18.66-9.86-.17-.2-.45.09-.29.29 4.6 5.8 11.05 8.79 18 10.88a88.08 88.08 0 0 0 27.59 3.32 70.49 70.49 0 0 0 26.56-5.55 37.23 37.23 0 0 0 10.06-6.52c3.56-3.27 3.09-6.94 2.45-11.43-.14-1.05-.38-2.07-.47-3.1Zm.49-1.16c16.91-20.51 23.7-46.52 33.09-70.89 4.9-12.7 10.65-25 15.12-37.88a220.33 220.33 0 0 0 10.3-41 135 135 0 0 0 .84-30.1 93.53 93.53 0 0 0-2.23-13.92c-.57-2.4-1.26-4.77-2-7.12-.27-.84-.57-2.92-1.69-3.08-.21 0-.31.3-.09.33.83.12 1.37 3.81 1.57 4.52.44 1.59.81 3.19 1.17 4.8.81 3.69 1.37 7.45 1.82 11.2a114.26 114.26 0 0 1 .44 20.65c-.9 14.25-4 28.38-8 42a346.45 346.45 0 0 1-14.68 39.28c-5.3 12.18-9.42 24.83-14 37.3-5.58 15.19-12 30.71-21.89 43.67-.23.18.05.4.19.23Zm-92.6-11.18c5 .48 10.07 1.74 15.11 2.06.42 0 .46-.58.09-.7-4.45-1.5-9.63-1.76-14.29-2.22a137.3 137.3 0 0 0-16.48-.53c1.59-7.4.91-15.33-.08-22.86-.76-5.78-1.71-11.53-2.15-17.35a194.75 194.75 0 0 1-.21-20.94c.93-28.28 11.41-55.32 11.5-83.7a.31.31 0 0 0-.62 0c-1 14-3.87 27.76-6.42 41.55a329.71 329.71 0 0 0-5 40.34c-.42 6.87-.66 13.72-.42 20.61.2 5.76 1.09 11.46 1.78 17.18 1.41 11.59 2.62 24.28-3.87 34.65a.77.77 0 0 0 .12.92c2.88 2.95 4.91 6.7 3.9 10.93a.52.52 0 0 0 1 .28c1.2-4.66-.31-8.41-3.43-11.84a30.92 30.92 0 0 0 3.77-9.37c5.24.13 10.48.5 15.66.99Zm248.24 44.87c-6-1.51-12.15-2.19-18.18-3.58a158.24 158.24 0 0 1-18.93-5.76c-12.48-4.58-24.41-10.5-36.48-16-5.75-2.64-11.55-5.18-17.44-7.51s-11.92-4.79-18.12-5.55c-13.68-1.68-27.17 2.52-40.83 2a122.28 122.28 0 0 0 20.11-.67c6.87-.67 13.69-1.33 20.54-.07 6.09 1.12 12.08 3.67 17.82 5.95a420.55 420.55 0 0 1 18.49 8c11.46 5.3 22.83 10.79 34.66 15.25a151.87 151.87 0 0 0 18.9 5.79c3.17.74 6.41 1.39 9.63 1.83s6.48.3 9.63 1c.42.1.61-.62.16-.69ZM396 262.89a277.24 277.24 0 0 1 8.32 37.88 141.52 141.52 0 0 0 7.88 31 99.71 99.71 0 0 0 15 25.92 101.53 101.53 0 0 0 11.43 12c2 1.84 4.17 3.6 6.35 5.28s4.53 4.07 7.08 4.77a.64.64 0 0 0 .8-.61c0-1 1.15-1 2.2-1.35l4.26-1.59c3.14-1.18 6.23-2.57 9.4-3.66.23-.08.13-.43-.1-.36-5.5 1.81-11 3.56-16.56 5.38a.64.64 0 0 0-.27.17c-1.67-1.59-4-2.81-5.72-4.16-2.49-1.93-4.89-4-7.22-6.12a100.57 100.57 0 0 1-11.88-13 103.54 103.54 0 0 1-15.42-29.38c-4-11.59-5.56-23.62-7.87-35.6a285.81 285.81 0 0 0-10.3-39c-8.42-24.43-20.84-47-33.89-69.19-13.46-22.92-27.37-45.52-39.13-69.39-.41-.82-1.59-.1-1.22.71C342.56 164 380 208.22 396 262.89Zm93.41 107.06c-2.91-1.07-5.63-.78-8.63-.58a.14.14 0 0 0 0 .27c7.28-.05 13.73 3.64 16.09 10.63 2.43 7.18 1.45 15.36.3 22.68a221.59 221.59 0 0 1-5.16 22.78c-3 11.22-6 22.43-8.55 33.77a83.31 83.31 0 0 0-1 5.19c-.05.33.44.48.51.14 4.29-19.69 11.53-38.69 15.41-58.47 2.25-11.36 5.05-31.3-8.93-36.41ZM483 466.2c-.08 10.17 2.54 23-7.17 29.84-3.35 2.37-7.61 3-11.63 2.8a24.48 24.48 0 0 1-6.13-1.25c-2.41-.8-4-2.29-6.07-3.71-.35-.24-.83.24-.58.58 5.26 7.42 17.58 7.81 24.8 3.38 10.8-6.63 7.45-21.21 7.2-31.63a.21.21 0 0 0-.42-.01Zm-370.81-17.41c-2.76 1.32-6.5 1.2-9.5 1.49-3.9.39-7.79.71-11.7 1-7.17.53-14.39 1-21.46 2.38-8.63 1.74-18.92 4.46-27.05-.43C38.62 450.91 36 447 34 443.09A91.31 91.31 0 0 1 27.22 425a109 109 0 0 1-3.4-41.45c1.37-11.92 4.88-24.6 14.35-32.66 4.25-3.62 9.93-5.16 14.88-2a16.89 16.89 0 0 1 5.42 6.06c.85 1.57 1.26 3.35 2.21 4.87 2.14 3.45 7.2 2.12 10.25.91a11.18 11.18 0 0 0 4.66-4l4.51-6.15a86.72 86.72 0 0 0 13.3-26.1c.79 10.52 2.36 21 4 31.4a450.64 450.64 0 0 0 22 84.68c.12.33.65.2.54-.15-9-27.83-16.41-56-21.05-84.93a331 331 0 0 1-4.28-36.8c0-.86-.09-1.72-.12-2.58a195.82 195.82 0 0 1 2-34.75c6.36-43.49 27.32-85 63.42-111.09.56-.41 0-1.34-.55-.95-38.09 24.92-59 70.61-64.76 114.58a201.33 201.33 0 0 0-1.6 33.45c.07 1.88.18 3.77.3 5.65-2.67 8.91-7.58 17.42-12.8 24.92a50.84 50.84 0 0 1-4.5 5.66c-.88.95-1.47 2.24-2.32 3.24a8.33 8.33 0 0 1-4.47 2.71c-2 .5-5 1.37-6.63-.33-1.14-1.2-1.55-3.31-2.25-4.79a16.5 16.5 0 0 0-10.46-8.56c-4.32-1.07-8.74.9-12.18 3.39-9.05 6.57-12.82 17.89-14.84 28.4-2.52 13.14-1.91 26.8.64 39.88a112.21 112.21 0 0 0 5.63 19.29 50.92 50.92 0 0 0 7 13.21c5 6.33 12.37 8.36 20.14 7.57 5.69-.57 11.24-2.13 16.92-2.89 7.41-1 14.88-1.36 22.32-1.94 3.38-.26 6.74-.59 10.09-1 2.46-.34 5.11-.53 7.36-1.62.88-.46.11-1.76-.76-1.34Z"/><path class="cls-10" d="M443.27 423.33s6.12-4.51 6.77-9.35-3.22-13.86-5.8-13.54-4.52 11.29-.97 22.89ZM469.7 376s7.73-1.29 10.64-4.84 7.42-17.08 5.16-18-13.87 10.55-15.8 22.84ZM486.78 371.44s4.19 5.16 8.7 2.58 11.34-11.07 12.9-14.18-6.13-2.9-12.9 3.22a116 116 0 0 0-8.7 8.38ZM500.64 380.79a103.42 103.42 0 0 1-.64 11.93s15.15-16.12 13.86-21.27c-.97-3.88-13.22 9.34-13.22 9.34ZM496.13 415.92s2.9-10 3.55-13.54c0 0 5.48-6.77 7.09-5.48s-1.29 9.68-10.64 19.02ZM23.93 417.86s1-15.79-1.61-20.63-9.67-9.35-11-6.12 1.29 6.45 4.84 13.86a81.25 81.25 0 0 0 7.77 12.89ZM23 375.63s3.87-6.77 4.51-11.6c0 0-5.48-17.08-9.67-16.12-2.02.46-1.32 14.51 5.16 27.72ZM30.7 356.62s4.84-3.54 6.77-6.44c0 0-2.58-22.24-5.48-21.6s-3.55 15.79-1.29 28.04ZM43.27 346.95s3.87-1.93 6.13-1c0 0-1-18.37-3.87-18.05s-2.58 8.41-2.26 19.05ZM54.23 347.91l3.87 5.8s3.55-11.93 1.29-13.54-4.52 5.49-5.16 7.74Z"/><path d="m364 216.08 9 3.22c-1.78-4.1-5.77-2.97-9-3.22Zm3.22 12.25 14.18 6.45c-3.72-4.78-8.3-8.06-14.2-6.45Zm4.51 16.76 16.76 8.38c-2.4-4.83-11.16-10.55-16.78-8.38Zm7.74 14.83 11 8.38c-1.17-5.1-6.1-8.44-11.02-8.38Zm4.53 13.54 3.87 5.16c.3-2.79-1.05-4.62-3.87-5.16Zm-24.5-63.82 4.51 1.29a3.39 3.39 0 0 0-4.55-1.29Z" style="fill:#936c4e"/><path class="cls-10" d="M129.33 491.35c2.58 1.61 13.86-10.64 13.86-10.64s-7.74-3.87-11.93-3.87c0 0-4.51 12.89-1.93 14.51ZM112.25 456.53s-11.93 4.19-10.32 6.45 12.57.32 12.57.32-2.58-3.86-2.25-6.77ZM185.74 464.92c-3.22.32-7.74 6.45-7.74 6.45s14.82 3.22 15.79.65-8.05-7.1-8.05-7.1ZM116.11 466.85s-10.32 10.31-8.38 12.25 16.12-5.48 16.12-5.48-5.48-6.12-7.74-6.77ZM155.76 480.71s3.85 12.89 6.77 12.89c4.51 0 4.19-14.5 4.19-14.5s-6.45 0-10.96 1.61ZM285.65 481c-2.58 0-11.92 2.58-11.92 2.58s6.77 12.57 11 12.25.92-14.83.92-14.83ZM210.88 465.24s-12.57 4.19-13.22 6.44 9.67 2.9 14.18 2.58c.01 0-1.93-6.76-.96-9.02ZM248.91 502c5.16.65 8.71-16.76 8.71-16.76-3.87.32-12.25.32-12.25.32s-1.62 15.78 3.54 16.44ZM214.1 496.5c4.84 1.61 13.21-13.54 13.21-13.54L217 478.45s-7.73 16.44-2.9 18.05Z"/><path class="cls-1" d="M356.89 65.88c-3.23-23.88-33.52-41.25-49.64-17.4-4.51 5.8-5.8 12.89-7.74 19.34l-1.93-1.29C285.33 55.57 275 45.9 258.9 39.45c-29.65-12.89-63.17-15.45-90.25 1.29l-2.58 1.93c2.58-9.67 4.51-23.21-4.51-30.3-27.72-24.5-56.09 52.22-9 47.06l.18.84a69.22 69.22 0 0 1-4 6.25c-9.92 13.22-34 28.29-31.59 47.7 0 0 37.36 14 51.15 18.54l15.9 74.29c36.74 14.83 85.09 10.31 116-17.4 12.2-10.93 23.36-24.46 26.24-41.06 3.23-18.66-4.67-34.56-14.63-49.84v-1.92c7.09 1.29 14.18 4.51 21.92 4.51 18.64-.65 25.73-19.34 23.16-35.46Z"/><path d="M154.47 65.88s24.66-40.61 74-31.43 65.75 34.33 69.14 43 4.35 17.89 6.77 25.14-12.09 41.1-70.1 30a829.74 829.74 0 0 1-108.3-29s-2.42-9.18 10.63-19.82 13.03-12.09 17.86-17.89Z" style="fill:url(#linear-gradient-5)"/><path d="M136.1 22.37c3.68-7.44 14.85-15.27 22.14-8.61 4.88 4.46 8.95 23 4.55 28.37-5.63-8.37-18.67-23-29.6-15.41Z" style="fill:url(#linear-gradient-6)"/><path d="M302.42 71.2c5.15-11.26 11-31.45 27.56-29 14.82 2.19 20.3 20.65 21.19 33.21-6.4-7.22-13.6-13-23.63-11-7.41 1.47-20.45 5.85-24.15 12.6Z" style="fill:url(#linear-gradient-7)"/><path class="cls-7" d="m198 35.42 20.3 4.35c-5.44-4.62-13.8-6.46-20.3-4.35Zm37.23 6.29c-4.77-4.57-10-8.42-16.92-8.22Zm3.87-3.87 7.74 5.8c-1.45-3.09-3.92-5.64-7.76-5.8Zm12.09 3.87 3.81 3.38a5 5 0 0 0-3.83-3.38ZM148.67 12.22l10.15 3.38c-1.3-3.6-7.01-4.6-10.15-3.38ZM320.3 44.13l13.05-.48c-4.18-1.8-9.28-3.33-13.05.48Z"/><path class="cls-9" d="M159.63 48.16s-4.19-10.64-12.57-17.41c0 0-9 9.35-5.48 16.44s14.18 8.38 14.18 8.38ZM306.93 83s4.83-19.37 27.07-14.86c0 0 7.41 13.54-.32 18.69s-21.59.33-26.75-3.83Z"/><ellipse cx="290.81" cy="124.06" rx="29.01" ry="24.66" transform="rotate(-15.4 290.8 124.05)" style="fill:url(#radial-gradient)"/><path d="M156.74 119.2c8.91-10.29 6.33-27.14-5.78-37.63a33.29 33.29 0 0 0-10.35-6.13c-11.09 11.07-25.43 23.56-23.53 38.79 0 0 15.64 5.84 30.41 11.21a21.57 21.57 0 0 0 9.25-6.24Z" style="fill:url(#radial-gradient-2)"/><path class="cls-6" d="M312.07 98.58c-.26-.38-.87 0-.63.37a176.27 176.27 0 0 1 9.43 18 60.28 60.28 0 0 1 5.23 20.09c1 13.85-4.49 26.72-12.66 37.6-15.18 20.2-37.91 33.27-62.58 37.88a128.45 128.45 0 0 1-66.72-5.52c-.05 0-.08.06 0 .08a113.28 113.28 0 0 0 67.84 6.64 110.66 110.66 0 0 0 32.86-12.29 107.33 107.33 0 0 0 27.73-23.55c9.25-10.81 15.51-24 15.51-38.41a56.86 56.86 0 0 0-4.49-21c-2.95-7.3-7.03-13.54-11.52-19.89ZM164.34 14.21c-3.52-4.36-9.37-7.57-15-7.33-10.61.45-17.84 11.54-20.86 20.54-2.52 7.51-3.08 16.44.83 23.58 4.65 8.47 14.28 9.95 23 9a61 61 0 0 1-5.73 8.16c-4.26 4.92-9.23 9.22-13.82 13.83-8.1 8.13-19.08 19.83-16.32 32.44a.67.67 0 0 0 1.31-.18 31.29 31.29 0 0 1 4.94-17.41c3.48-5.57 8.12-10.32 12.71-15a174.55 174.55 0 0 0 12.42-13.23c4.73-5.92 7.77-13.1 11.84-19.47 0 0 0-.05 0 0A79.06 79.06 0 0 0 152.9 59a.43.43 0 0 0-.36-.12c-6.32.58-13.62-.33-18.51-4.73-4-3.58-5.56-9-5.72-14.16-.34-10.65 4.79-23.27 13.92-29.25a14.52 14.52 0 0 1 16.05-.12 19 19 0 0 1 9 13.19c1.1 6.17-.19 12.7-1.76 18.67a.57.57 0 0 0 1.1.3c2.45-9.2 4.21-20.54-2.28-28.57Zm-9.08 24.85a39.37 39.37 0 0 0-8.26-9.17c-2.25-1.77-5.29-3.54-8.29-3-3.47.65-5.12 3.68-6.22 6.73 1.45-3 3.76-6 7.37-5.8 3.08.13 5.94 2.48 8.09 4.45A49.73 49.73 0 0 1 159.33 48c.17.35.75.1.63-.26a37.16 37.16 0 0 0-4.7-8.68Zm81.61-6.17a123.46 123.46 0 0 1 33.24 13c9.89 5.76 18.69 13.31 27.34 20.77.18.16.45-.1.27-.27-8.31-7.72-16.39-15.57-26.1-21.57-10.35-6.39-22.53-10.68-34.3-13.54a103 103 0 0 0-35.93-2.5 81.34 81.34 0 0 0-17 3.86 71.18 71.18 0 0 0-15.75 8c-.07 0 0 .16.07.12 20.56-11.88 45.42-13.28 68.16-7.86Zm90.75 3.36c-6.7-.29-12.89 2.74-17.49 7.46a35.21 35.21 0 0 0-7 10.6c-1.85 4.33-2.54 9-3.78 13.45a.18.18 0 0 0 .35.1c3.58-11.33 8-24.48 20.34-28.84 9.25-3.27 19.21 1 25.93 7.47 7.55 7.24 10.9 17.36 10.51 27.67-.37 9.91-4.75 20.19-14.11 24.6-9.92 4.67-20.59-.14-30.56-2-.11 0-.16.15 0 .18 6.82 1.33 13.19 4.21 20.17 4.87A23 23 0 0 0 346 98.33c7.81-4.78 11.44-14.26 12.15-23 1.52-18.09-11.07-38.24-30.54-39.07Zm-21.48 48.43c1.77-3.71 3.61-7.08 6.66-9.92A25 25 0 0 1 323.4 69c7.49-2 17.05.08 21.78 6.65.09.13.3 0 .21-.12-2.4-3.5-5-6.1-9.05-7.65a22.58 22.58 0 0 0-12.34-.76c-8.43 1.67-17 8.51-18.2 17.4-.07.21.2.39.34.16Z"/><path class="cls-10" d="M265.51 102.14s1.45-14-7.25-23.53-17.89 2.74-18.7 7.74 19 17.89 19 17.89ZM159.15 79.42s3.06-9.19 8.7-13.7 13.22-3.06 13.22 5.16-18 11.44-18 11.44Z"/><path class="cls-17" d="M241 84.26c-3.87 5.32-4.35 12.09-5.32 18.37a23.75 23.75 0 0 0 15.47 3.71l11-2.9.16-2.26c1.91-15.96-12.11-30.94-21.31-16.92Zm-78.81-3.55.64 1.61a31.09 31.09 0 0 1 4.17 3.87c2.58 2.74 8.38 4.67 8.38 4.67l1.61-.48c12.01-26.75-5.43-34.81-14.78-9.67Z"/><ellipse class="cls-10" cx="253.74" cy="93.93" rx="7.74" ry="11.28"/><path d="M253.74 104c-3.51 0-6.48-4.59-6.48-10s3-10 6.48-10 6.48 4.59 6.48 10-3 10-6.48 10Z" style="fill:url(#linear-gradient-8)"/><ellipse class="cls-17" cx="250.04" cy="88.04" rx="4.27" ry="2.93" transform="rotate(-71.95 250.04 88.04)"/><path class="cls-10" d="M180.45 79.94c-1.1 5.56-4.13 9.52-6.76 8.83s-3.86-5.75-2.76-11.32 4.13-9.52 6.76-8.83 3.86 5.76 2.76 11.32Z"/><path d="M174.29 87.59a1.11 1.11 0 0 1-.28 0c-1.71-.44-2.86-4.75-1.84-9.86.94-4.72 3.3-7.9 4.92-7.9a1.19 1.19 0 0 1 .29 0c1.7.45 2.85 4.76 1.84 9.86-.93 4.72-3.3 7.9-4.92 7.9Z" style="fill:url(#linear-gradient-9)"/><path class="cls-17" d="M176 74.1c-.85 1.89-2.23 2.85-3.09 2.16s-.86-2.79 0-4.68 2.23-2.85 3.09-2.16.85 2.8 0 4.68Z"/><path class="cls-10" d="M235.82 102.66c1.78-8 2.52-21.84 13.37-22.73 4.23-.35 7.61 4.07 9.49 7.23 2.57 4.32 2.94 9.12 3.31 14a.3.3 0 0 0 .59.08c2.27-8.6-2.12-22.27-12.13-23.74-4.76-.7-7.74 2.78-9.81 6.52-3.27 5.91-4.55 11.87-5.07 18.59 0 .14.22.17.25 0ZM177.07 90.4a32.82 32.82 0 0 0 4.36-16.8c-.08-2.75-1-6.78-3.52-8.38s-5.78-.35-8 1.38c-4.39 3.36-6.88 8.77-8.8 13.8-.54 1.43 1.73 2 2.28.63 1.66-4.32 3.77-8.61 7.11-11.89 1.65-1.62 4.47-3.32 6.84-2.2 3 1.43 3.38 4.85 3.39 7.89 0 5.42-2.09 10.47-3.69 15.54h.07Z"/><path class="cls-20" d="M236.31 103.32c5.2 2.39 10.66 3.85 16.41 3.34a43.9 43.9 0 0 0 8.29-2.1 54 54 0 0 1 10.78-1.8.13.13 0 0 0 0-.25c-4.26-1.39-8.64-.39-12.85.77-2.71.74-5.34 1.75-8 2.49-5 1.37-10-.53-14.57-2.53-.06 0-.12.06-.06.09ZM175.44 90.65a21.81 21.81 0 0 1-6.71-3.55c-1.4-1.1-2.39-2.88-3.73-4.1-2.4-2.26-5.17-3.31-8.26-4.22v.07c3.87 1.21 6.15 5 9.29 7.34 2.71 2 6 4.24 9.42 4.6.06 0 .06-.08 0-.1Z"/><path class="cls-7" d="M202.82 105.85c-16.76-4.51-32.88-3.87-49.64-4.51-16.12-.64-31.59-3.22-47.7-3.22l18.33 30.49-48.63-7.93c0 26.43 31.59 58 52.22 71.55 11.22 7.59 27.51 13.48 42.9 13.71l.28.47c15.47 12.89 46.41 5.16 61.24-8.38 32.88-31.58 16.77-80.58-29-92.18Z"/><path class="cls-9" d="M75.18 120.68c0 26.43 31.59 58 52.22 71.55 11.22 7.59 27.51 13.48 42.9 13.71l.28.47c15.47 12.89 46.41 5.16 61.24-8.38 12-11.54 17.47-25.39 17.35-38.9-1.42-7-9.61-13.32-9.61-13.32-5.16-3.87-18.7-1.29-18.7-1.29l-3.22 12.25s-22.56 5.8-45.77-.64-46.41-32.23-46.41-32.23l-6.41-3.2 4.75 7.91Z"/><path d="M128.36 103s3.54 6.12 3.22 11.28c0 0 9.67 1.61 25.46-1.29s58.34 1 75.74 17.08c0 0-6.66-16.26-35.78-22.56-31.25-6.82-39.31.6-68.64-4.51Z" style="fill:url(#linear-gradient-10)"/><path class="cls-7" d="M122.88 183.85s54.8 44.48 83.16-2.58c-.04 0-22.56 35.46-83.16 2.58Z"/><path d="M226.95 116.21c-20.69-15.37-49.18-15.18-73.76-16.4-16-.79-31.7-2.72-47.7-2.09a.39.39 0 0 0 0 .79c14.69.75 29.3 3.23 44 4.17 7.38.47 14.75-.14 22.13-.11a132.67 132.67 0 0 1 25.48 2.58c20.94 4.19 40.09 16.56 48.06 37 7.38 19 1.31 38.86-12.54 53-7.87 8-18.79 12.7-29.63 15.05-9.73 2.11-21.68 2.1-30.34-3.46 9.65 0 19.12-2.23 26.92-8.3 7.3-5.67 10.71-13.89 13.37-22.44 3.21-10.3 5.31-21 8.65-31.2 1.36-.09 2.73-.19 4.1-.34 5.71-.6 9.81.56 15.06 2.82.2.08.43-.15.24-.32-3.2-2.92-8.25-5.34-12.7-5.34-5.47 0-10 2.33-15.2 3.41a.14.14 0 0 0 0 .28c2.71-.19 5.39-.31 8.08-.49-7.43 15.87-8.75 36.23-21.31 49.23-12.75 13.21-33.91 13-50.21 8.06-17-5.2-31.27-16.92-43.62-29.29A140.72 140.72 0 0 1 85.93 148c-4.92-7.9-9.86-17.81-10.43-27.3a.32.32 0 0 0-.64 0C74.31 141.23 88 159 102 172.95c13.53 13.56 29 24.57 47.46 30.08a85.7 85.7 0 0 0 20.28 3.64.72.72 0 0 0 .24.38c15.58 12.84 39 7.55 55-2 15.55-9.29 24.95-27.69 25.11-45.58.09-17.34-9.49-33.11-23.14-43.26Z" style="fill:url(#radial-gradient-3)"/><path d="M92.1 136.47s-20.79-5.8-22.72-26.11 10.15-25.62 23.69-22.24 16.93 8.26 25.14 10.16c12.57 2.9 13.54 17.89 7.25 27.07s-21.27 15.96-33.36 11.12Z" style="fill:#3b3c3d"/><path d="M100.73 136.14a21.16 21.16 0 0 1-7.9-1.47l-.2-.07c-.8-.22-19.54-5.72-21.32-24.43-.73-7.65.55-13.33 3.79-16.9 2.51-2.77 6.15-4.17 10.79-4.17a27.85 27.85 0 0 1 6.71.9 60.21 60.21 0 0 1 15.25 6.06 38.61 38.61 0 0 0 9.92 4.1 11.46 11.46 0 0 1 8.52 7.2c2 5.08 1 11.87-2.43 16.9-4.71 6.89-14.45 11.89-23.14 11.89Z" style="fill:url(#linear-gradient-11)"/><path d="M69.38 110.36c1.93 20.31 22.72 26.11 22.72 26.11 12.09 4.84 27.07-1.93 33.36-11.12.25-.36.48-.74.71-1.12-15.34-10.5-27-.9-40.35-2.75-11.32-1.56-15.08-15.73-16.1-21.13a34.5 34.5 0 0 0-.34 10.01Z" style="fill:#272629"/><path class="cls-10" d="M116.76 129.22c-13.77 12-14.15-5.22-3.38-4.35 4.35.35 6.72 1.43 3.38 4.35Z"/><path class="cls-17" d="M98.9 94.38c-.39 1.77-4.26 2.43-8.63 1.47s-7.61-3.19-7.21-5 4.25-2.43 8.63-1.47 7.6 3.23 7.21 5Z"/><path class="cls-10" d="M253 51s10.48 5 13.88 12.47c0 0 1.55-9.89-9.17-16.73A10.17 10.17 0 0 0 253 51ZM184.09 44.51s-7.74 1.08-11.3 6.94c0 0 .78-9.79 9-12.54a12.56 12.56 0 0 1 2.3 5.6Z"/></svg>