<svg id="Слой_1" data-name="Слой 1" xmlns="http://www.w3.org/2000/svg" xmlns:xlink="http://www.w3.org/1999/xlink" viewBox="0 0 190 519"><defs><linearGradient id="linear-gradient" x1="81" y1="390" x2="31" y2="374" gradientUnits="userSpaceOnUse"><stop offset="0" stop-color="#0d7491"/><stop offset="1" stop-color="#4584a4"/></linearGradient><linearGradient id="linear-gradient-2" x1="105" y1="384" x2="144" y2="384" xlink:href="#linear-gradient"/><linearGradient id="linear-gradient-3" x1="68" y1="501" x2="68" y2="504" gradientUnits="userSpaceOnUse"><stop offset="0" stop-color="#2e353c"/><stop offset="1" stop-color="#1b181b"/></linearGradient><linearGradient id="linear-gradient-4" x1="48" y1="506" x2="48" y2="495" xlink:href="#linear-gradient-3"/><linearGradient id="linear-gradient-5" x1="118" y1="501" x2="118" y2="504" xlink:href="#linear-gradient-3"/><linearGradient id="linear-gradient-6" x1="135" y1="505" x2="135" y2="497" xlink:href="#linear-gradient-3"/><linearGradient id="linear-gradient-7" x1="91" y1="201" x2="91" y2="156" gradientUnits="userSpaceOnUse"><stop offset="0" stop-color="#e10729"/><stop offset="1" stop-color="#e76250"/></linearGradient><linearGradient id="linear-gradient-8" x1="90" y1="297" x2="90" y2="276" gradientUnits="userSpaceOnUse"><stop offset="0" stop-color="#e10729"/><stop offset="1" stop-color="#a8191b"/></linearGradient><linearGradient id="linear-gradient-9" x1="77" y1="246" x2="81" y2="233" gradientUnits="userSpaceOnUse"><stop offset="0" stop-color="#f6b387"/><stop offset="1" stop-color="#f8c4a5"/></linearGradient><linearGradient id="linear-gradient-10" x1="127" y1="268" x2="131" y2="255" xlink:href="#linear-gradient-9"/><linearGradient id="linear-gradient-11" x1="137" y1="229" x2="126" y2="224" xlink:href="#linear-gradient-9"/><linearGradient id="linear-gradient-12" x1="90" y1="135" x2="90" y2="172" gradientUnits="userSpaceOnUse"><stop offset="0" stop-color="#c8643f"/><stop offset="1" stop-color="#f6b387"/></linearGradient><linearGradient id="linear-gradient-13" x1="64" y1="130" x2="64" y2="101" xlink:href="#linear-gradient-9"/><linearGradient id="linear-gradient-14" x1="893" y1="130" x2="893" y2="102" gradientTransform="matrix(-1 0 0 1 1004 0)" xlink:href="#linear-gradient-9"/><linearGradient id="linear-gradient-15" x1="88" y1="122" x2="88" y2="138" xlink:href="#linear-gradient-9"/><linearGradient id="linear-gradient-16" x1="89" y1="146" x2="89" y2="140" xlink:href="#linear-gradient-9"/><linearGradient id="linear-gradient-17" x1="89" y1="98" x2="89" y2="86" xlink:href="#linear-gradient-9"/><linearGradient id="linear-gradient-18" x1="89" y1="100" x2="89" y2="114" xlink:href="#linear-gradient-9"/><linearGradient id="linear-gradient-19" x1="90" y1="107" x2="83" y2="105" xlink:href="#linear-gradient-12"/><linearGradient id="linear-gradient-20" x1="909" y1="107" x2="902" y2="105" gradientTransform="matrix(-1 0 0 1 995 0)" xlink:href="#linear-gradient-12"/><linearGradient id="linear-gradient-21" x1="47" y1="111" x2="43" y2="115" xlink:href="#linear-gradient-12"/><linearGradient id="linear-gradient-22" x1="126" y1="110" x2="131" y2="115" xlink:href="#linear-gradient-12"/><linearGradient id="linear-gradient-23" x1="69" y1="80" x2="69" y2="95" xlink:href="#linear-gradient-12"/><linearGradient id="linear-gradient-24" x1="109" y1="80" x2="109" y2="95" xlink:href="#linear-gradient-12"/><linearGradient id="linear-gradient-25" x1="70" y1="22" x2="77" y2="45" xlink:href="#linear-gradient-3"/><linearGradient id="linear-gradient-26" x1="86" y1="117" x2="86" y2="61" xlink:href="#linear-gradient-3"/><linearGradient id="linear-gradient-27" x1="69" y1="35" x2="75" y2="59" xlink:href="#linear-gradient-3"/><linearGradient id="linear-gradient-28" x1="106" y1="26" x2="119" y2="83" xlink:href="#linear-gradient-3"/><linearGradient id="linear-gradient-29" x1="58" y1="95" x2="48" y2="73" xlink:href="#linear-gradient-3"/><linearGradient id="linear-gradient-30" x1="55" y1="48" x2="59" y2="72" xlink:href="#linear-gradient-3"/><linearGradient id="linear-gradient-31" x1="93" y1="37" x2="98" y2="71" xlink:href="#linear-gradient-3"/><linearGradient id="linear-gradient-32" x1="81" y1="31" x2="92" y2="82" gradientUnits="userSpaceOnUse"><stop offset="0" stop-color="#535c65"/><stop offset="1" stop-color="#1b181b"/></linearGradient><linearGradient id="linear-gradient-33" x1="75" y1="47" x2="81" y2="79" xlink:href="#linear-gradient-32"/><linearGradient id="linear-gradient-34" x1="85" y1="30" x2="96" y2="77" gradientUnits="userSpaceOnUse"><stop offset="0" stop-color="#919794"/><stop offset="1" stop-color="#353134"/></linearGradient><linearGradient id="linear-gradient-35" x1="79" y1="56" x2="85" y2="80" xlink:href="#linear-gradient-34"/><linearGradient id="linear-gradient-36" x1="46" y1="96" x2="46" y2="79" xlink:href="#linear-gradient-34"/><linearGradient id="linear-gradient-37" x1="128" y1="96" x2="128" y2="79" xlink:href="#linear-gradient-34"/><linearGradient id="linear-gradient-38" x1="110" y1="79" x2="109" y2="82" xlink:href="#linear-gradient-3"/><linearGradient id="linear-gradient-39" x1="902" y1="79" x2="901" y2="82" gradientTransform="matrix(-1 0 0 1 969 0)" xlink:href="#linear-gradient-3"/><linearGradient id="linear-gradient-40" x1="109" y1="102" x2="109" y2="98" gradientUnits="userSpaceOnUse"><stop offset="0" stop-color="#fff"/><stop offset="1" stop-color="#d9effa"/></linearGradient><linearGradient id="linear-gradient-41" x1="110" y1="102" x2="110" y2="98" gradientUnits="userSpaceOnUse"><stop offset="0" stop-color="#67696a"/><stop offset="1" stop-color="#1b181b"/></linearGradient><linearGradient id="linear-gradient-42" x1="69" y1="102" x2="69" y2="98" xlink:href="#linear-gradient-40"/><linearGradient id="linear-gradient-43" x1="901" y1="102" x2="901" y2="98" gradientTransform="matrix(-1 0 0 1 969 0)" xlink:href="#linear-gradient-41"/><style>.cls-7{fill:#67af2f}.cls-8{fill:#c3d577}.cls-9{fill:#26622b}.cls-10{fill:#fffce9}.cls-12{fill:#1b181b}.cls-16{fill:#7c1715}.cls-21{fill:#f6b387}.cls-22{fill:#c8643f}.cls-24{fill:#892a16}.cls-59{fill:#1b181c}.cls-60{fill:#fff}</style></defs><path d="M138 466a9 9 0 0 0 1-5c0-4-4-3-2-8l2-6-2-8c-4-8-5-16-6-25a132 132 0 0 1-2-25c1-8 3-17-1-24l1-1c-5-24 1-49-5-73a45 45 0 0 0-3-12l-64 5c-11 28-6 74-6 74l-2 9a342 342 0 0 1 1 36 160 160 0 0 1-5 35 17 17 0 0 0-6 7l1 1c6 6 6 11-1 14l5 7 8 8 14 2 4-1v-11c5-5 5-6 4-12-2-10 6-10 6-17l-2-5-1-2c12-16 2-40 3-58 1-17 9-34 8-51l1-1a4 4 0 0 1 3 0c-1 9 2 21 3 30l3 21a156 156 0 0 1 2 33c0 8-2 21 4 28v2a16 16 0 0 0-3 9c10 5-2 20 9 23l4 4s0 4 4 5 15 4 18 2 5-3 5-5l-3-5z" fill="#016c88"/><path d="M58 368c4 1 15-1 16-10s8-33 6-39-15-17-15-17c-3 5-11 9-11 9-3 11-1 29-1 40s1 16 5 17zm2 12a6 6 0 0 1-6-3l-2 1 3 27a42 42 0 0 1-2 19l6-4c7-5 14 1 17-4s-4-35-6-38-5 1-10 2zm0 48a19 19 0 0 1-8 0l-3 6 11-3 15 1-1-7-14 3zm6 20a8 8 0 0 1-5-3l7-7h-1l-15 7c-3 1-8-2-8-2l-2 1 10 2a44 44 0 0 0 8 1 18 18 0 0 1 1 3c0 3-7 7-7 7l8-1a67 67 0 0 1 11 1l-2-9a39 39 0 0 1-5 0zm-20 10-2 1 6 4v-2a43 43 0 0 0-4-3z" fill="url(#linear-gradient)"/><path d="M122 372c4-2 3-6 2-10s-1-20 0-28-1-21-1-21l-10-5-16 12c0 5 7 35 9 43s11 10 16 9zm9 57-6-27c-2-7 0-19 0-19h-7c-4 0-8-3-8-3l-4-3s1 14 0 22v23s4-1 9 2 16 5 16 5zm6 17-3-4a64 64 0 0 1-7 3c-4 1-10-2-10-2l5 4s4 3 1 7-14 5-14 5l3 1a52 52 0 0 0 10-1c4-2 13-2 13-2l-1-4c-1-3 3-7 3-7zm-5-7-1-5-11 4z" fill="url(#linear-gradient-2)"/><path d="m125 296-1-5a45 45 0 0 0-3-12l-64 5-2 5c9 5 13 16 22 21 10 4 24 3 33-4 4-3 9-8 15-10zm-13 161c3-1 11-3 10-8-2-4-9-5-13-6l-4-1c1-2 4-10 1-11-2-3-3-19-2-28s0-25-1-32-3-25-6-34l-4-17v15l2 14 3 21a156 156 0 0 1 2 33c0 8-2 21 4 28v2a16 16 0 0 0-3 9c6 3 4 10 4 15a17 17 0 0 0 7 0zm-49-12c2 2 8 2 11 1 2-3 6-5 6-10l-2-5-1-2 1 6c-6 2-12 6-15 10zm25-121v-4s-3 2-4 12-7 29-8 40 1 20 3 32-2 25-2 25c12-16 2-40 3-58 1-16 8-32 8-47zM54 463c4-1 15-1 16-5-7-1-13 0-20 1zm5-87a51 51 0 0 0 4-4c-2-2-13-3-9 1zm12 59c-3-3-12-3-15-3 0 5-7 6-9 8l-1 3c9 1 18-5 25-8zm-29 23c9-1 18-3 17-9l-20-4 1 1c5 5 6 9 2 12zm91 1c-9-2-19 6-27 3a6 6 0 0 0 4 3l4 4s0 4 4 5l9 2a22 22 0 0 0 8-4 10 10 0 0 0 4-5 7 7 0 0 0 0-2c0-3-2-5-6-6zm-63 2c-6 2-10 4-16 4a41 41 0 0 1-15-5l5 7 8 8 14 2 4-1v-11a20 20 0 0 0 4-4 13 13 0 0 0-4 0zm4-40H63l-10 5c7 0 18 2 21-5zm44-43 5 2a12 12 0 0 0 4-3c-2-1-8-2-9 1zm-9 48a7 7 0 0 1-1 1l2 2 3 5c4 1 13 2 16-2l-10-2a84 84 0 0 1-10-4zm4 13-5 1c6 1 16 6 22 0l-17-1z" fill="#054760"/><path d="m66 425 4-3h-5l-6 3zm3 10c-4-2-12-2-12-2-1 5-8 7-8 7v2c7 1 20-7 20-7zm57-3-8-1-6-2 3 4a51 51 0 0 0 11-1zm-1 9-8-1 6 2a2 2 0 0 0 2-1zm-80 7c3 3 1 8 1 8l6-2a7 7 0 0 0 4-4l-11-2zm53-101-3-6 6 35c2 6 1 25 1 25l1-25-5-29zm22 103c1-3-11-5-11-5l-2 2v9s13-4 13-6zm-42-81s-3 13 1 24v-10zm-23 91 3 1a28 28 0 0 0 9-2c-5-1-12 1-12 1zm74 0c-4-1-13 4-13 4l7 3 13-5-7-2zm-63-16 7 1 2-3a10 10 0 0 0 2-6c-4 1-11 8-11 8zm-8-70 3-2-4-1h-3v1l5 2zm67 3h-3l-3 1 4 1z" fill="#035a75"/><path d="M40 446c2 2 4 5 4 8s-3 4-6 5a1 1 0 0 0 0 1 82 82 0 0 0 6 7c0 1 0 0 0 0l-4-7c2-1 5-3 5-6s-2-6-4-8h-1zm38-16v1l2 4-2 5-4 6c-2 4-1 7 0 10 1 4-1 6-4 9 2-2 5-4 5-7a16 16 0 0 0 0-5 11 11 0 0 1 0-6l5-8a7 7 0 0 0 1-3l-3-6zm10-110c0 10-2 20-5 30-2 9-4 19-3 28l2 26c1 8 0 17-5 25 11-14 5-33 4-49a61 61 0 0 1 0-13 134 134 0 0 1 3-16c3-10 5-21 5-31h-1zm18 139v-9a10 10 0 0 0-2-6 7 7 0 0 0-1-2l-2-1a18 18 0 0 1 3-8s0-1 0 0a15 15 0 0 0-4 9h1a7 7 0 0 1 4 6 46 46 0 0 1-1 8c0 4 1 9 6 9-2-2-4-3-4-6zm-2-28c-3-3-3-8-4-12a86 86 0 0 1 1-12 174 174 0 0 0-1-30l-2-15-2-15-3-14a69 69 0 0 1 0-7v-7h-1a6 6 0 0 0-3 0v1a4 4 0 0 1 3 0 15 15 0 0 0-1 5 56 56 0 0 0 1 7l2 13 2 16c1 5 3 11 3 17a147 147 0 0 1 0 30 68 68 0 0 0 0 13 18 18 0 0 0 5 10zm33 24 3-6a6 6 0 0 0-1-5l-3-6a75 75 0 0 1-4-15 134 134 0 0 1-2-32c0-9 3-18-2-26h-1c5 8 2 18 2 26a165 165 0 0 0 2 30 93 93 0 0 0 4 15l2 6c1 2 2 4 1 7-1 2-3 5-2 8a26 26 0 0 0 2 2v8c2-3 3-6 1-9-1-1-2-1-2-3zm-9-91h1c-2-15-1-30-1-45a146 146 0 0 0-2-21c-1-6-2-13-5-19h-1c3 6 4 13 5 19a144 144 0 0 1 2 23c-1 14-1 29 1 43zm-65-74c0 4 0 7-2 10a16 16 0 0 1-9 7 103 103 0 0 1 5-23h-1c-3 8-4 16-5 24a212 212 0 0 0-1 25v19l1 5a8 8 0 0 1-1 3 21 21 0 0 0-1 8v9l1 22a168 168 0 0 1-3 24l-2 13-1 2a18 18 0 0 0-2 2 18 18 0 0 0-3 5 18 18 0 0 1 6-6l1-2a188 188 0 0 0 4-21 207 207 0 0 0 1-31l-1-13v-5a24 24 0 0 1 1-7 8 8 0 0 0 1-3l-1-5a259 259 0 0 1 0-30l1-14c7-3 14-10 11-18zm63 20a14 14 0 0 1-9-7l-3-10c0 4 1 8 3 11a13 13 0 0 0 9 6z" fill="#013240"/><path class="cls-7" d="M73 470a6 6 0 0 0-3-6v1c0 3-2 6-5 6l-5-2a4 4 0 0 0-1-2c-2-3-10-3-13 0a9 9 0 0 0 0 2c-5 1-6 5-8 8-3 5-7 6-12 10-4 2-4 5-3 8 0 0 8 8 17 8a46 46 0 0 0 14-3l8-8 6-2 5-5c2-3 5-13 0-15z"/><path class="cls-8" d="M60 469v-1a3 3 0 0 0-1-1c-2-3-10-3-13 0a8 8 0 0 0 0 1v1l-2 5a47 47 0 0 1-5 7l-4 3c5-1 14 2 14 2 3-2 11-11 11-17z"/><path class="cls-9" d="m74 470-1-3a8 8 0 0 0-2-3h-1a7 7 0 0 1 3 4v2a7 7 0 0 1 2 2 7 7 0 0 1 1 3 17 17 0 0 1-1 6l-2 4 1 1 2-5a16 16 0 0 0 1-7 6 6 0 0 0-3-4z"/><path class="cls-9" d="M70 465c0 2-1 4-3 5-3 2-5-1-7-1a3 3 0 0 0-1-2c-2-3-8-3-11-2a5 5 0 0 0-3 4c-3 0-4 3-5 5a21 21 0 0 1-7 8c-5 3-14 6-10 13a11 11 0 0 1 0-4l4-4 7-5a21 21 0 0 0 5-6c2-3 3-6 6-7v2c-1 4-4 7-6 10a29 29 0 0 0 5-7l2-5a5 5 0 0 1 1-2c3-2 10-2 12 0s-1 8-3 11a62 62 0 0 1-7 8 53 53 0 0 0 8-9 23 23 0 0 0 3-6 10 10 0 0 0 0-2l4 2a4 4 0 0 0 3 0c2-1 4-4 3-6z"/><path class="cls-9" d="M61 475c-4-4-13-7-18-3h10l8 3zm-20 1v1h9l9 3v-1c-4-4-13-6-18-3zm-3 5h10l8 3h1c-4-4-14-7-19-3z"/><path class="cls-10" d="M61 474c-4-4-13-7-18-3h10l8 3zm-20 1v1h9l9 3v-1c-4-4-13-6-18-3zm-3 5h10l8 3h1c-4-4-14-7-19-3z"/><path d="m69 494-5-1s2-6 5-5 3 3 3 3z" fill="url(#linear-gradient-3)"/><path class="cls-12" d="M22 492s1 2 3 1 4-3 11 2 9 6 16 2 18-13 22-13c0 0 1 5-1 7a11 11 0 0 1-4 3s0-7-2-6-3 6-6 10-13 11-26 9-14-10-13-15z"/><path d="M40 506a27 27 0 0 1-5 0c-5-1-9-3-11-6a9 9 0 0 1-2-6 3 3 0 0 0 2 0 3 3 0 0 0 1 0 5 5 0 0 1 3-1l8 3c4 3 6 5 9 5l7-3 9-6 4-2-1 2-4 5c-2 4-11 9-20 9zm29-13v-2l-1-3a33 33 0 0 1 6-3l-2 5a11 11 0 0 1-3 3z" fill="url(#linear-gradient-4)"/><path class="cls-7" d="M162 486c-3-3-9-2-13-5l-9-10c-3-3-7-7-12-6-2 0-5 1-5 4-4 1-12 0-11-4h-2l-1 5c-3 3-3 10-1 14l6 4 5 2 4 2 6 5 14 3c2 1 14-2 14-2l6-6c1-2 1-4-1-6z"/><path class="cls-8" d="m149 481-9-10c-3-3-7-7-12-6-2 0-5 1-5 4 2 7 14 11 19 16a17 17 0 0 1 8-3 7 7 0 0 1-1-1z"/><path class="cls-9" d="M109 469v1a7 7 0 0 0-2 3c-1 3-1 8 1 11 0 0 1 0 0 0v-10a8 8 0 0 1 1-2l1-2c0-2-2-4 0-5l-1 4zm13 0c-3 1-11 1-10-4v-1h-1v1l1 1a3 3 0 0 0 0 1 5 5 0 0 0 3 2c2 1 6 2 8 0h-1zm41 18c-1-2-3-3-5-3l-8-2-6-7c-3-4-7-9-11-10-3-1-10 0-10 4 0-3 3-3 5-4l7 2c4 2 7 6 10 10a29 29 0 0 0 5 5 12 12 0 0 0 5 2l6 2c2 1 2 4 2 6v1a6 6 0 0 0 0-6zm-30-9c-4-2-8-5-10-9 1 4 4 6 7 8l11 8h1l-9-7z"/><path class="cls-9" d="M140 472h1c-5-4-14-2-17 3l7-3h9zm4 4c-4-5-13-2-16 3l7-4c3-1 6 0 9 1zm4 4c-4-5-12-3-15 3l6-4a11 11 0 0 1 9 1z"/><path class="cls-10" d="M140 471h1c-5-4-14-2-17 3l7-3h9zm4 4c-4-5-13-2-16 3l7-4c3-1 6 0 9 1zm4 4c-4-4-12-2-15 3l6-4a11 11 0 0 1 9 1z"/><path d="m115 494 7-3s-3-5-6-4-1 7-1 7z" fill="url(#linear-gradient-5)"/><path class="cls-12" d="M107 481s-1 1 6 4l11 6c3 2 5 4 9 5a27 27 0 0 0 16 2c3-1 4-3 7-6 4-4 6-5 8-3 0 0 1 10-7 13-10 4-25 3-33-5-2-2-3-9-6-9s-3 6-3 6-7-2-8-5a16 16 0 0 1 0-8z"/><path d="M144 504c-8 0-15-3-20-8a14 14 0 0 1-1-3 24 24 0 0 0-2-4l1 1 2 1 3 2a25 25 0 0 0 5 4 27 27 0 0 0 11 2 30 30 0 0 0 6 0c3-1 5-3 6-5l2-1 5-4h1c0 2 1 9-6 12a32 32 0 0 1-12 3zm-30-12c-2 0-5-2-6-4a13 13 0 0 1 0-5 19 19 0 0 0 4 2l5 2a3 3 0 0 0-1 1l-2 4z" fill="url(#linear-gradient-6)"/><path class="cls-16" d="M82 156a56 56 0 0 0-13 0v11a41 41 0 0 1 4 4l17 7 18-6 2-8 1-7-29-1zm-41 51a40 40 0 0 0-6 0l-6 3a18 18 0 0 0 10 7c7 1 8-4 8-4l-6-6zm101 1-5 1s2 6 6 7 12-3 12-3z"/><path d="m123 271-67 1-3 10c10 5 14 18 24 24 11 6 23 4 31-4 7-5 11-14 19-15l-2-7-2-9zm18-85c-3-11-9-16-20-19-5-1-10-3-10-9l-1 3c-2 5-7 8-7 8s-5 4-18 2-17-15-17-15v5c-3 5-8 4-12 5a21 21 0 0 0-11 8c-6 8-6 18-9 26l-8 10h1c3-2 6-1 9 1l2 7 13 26 7 13c0 2 2 5 11 8s4 4 20 4 7 4 20 0 15-5 18-11 4-25 4-25l8-21a23 23 0 0 1 13 1c-9-6-9-16-13-27z" fill="#e10729"/><path d="M88 255c7 3 16 12 16 12l14-3-6-8c-1 0-11-6-22-8l-30-4c-3 0-6 4-6 4l8 5s19 0 26 2zm-33 18v3s11 4 34 6 36-3 36-3l-2-8zm70-59-6 20a107 107 0 0 1-28 1c-14-2-24-14-24-14l-3 14 8 5c5 3 20 6 28 8s24-2 25-3l5-17c0-3-5-14-5-14zm-69 5-1-6-5-11s-3 8 0 14 6 3 6 3zm8 0c-1-8-8-22-8-22l4 22s5 8 4 0zm35 6c-5-2-14-2-19-1l3 3a55 55 0 0 0 16-2zm-5 5h4a6 6 0 0 0 0-2c-3 0-8-1-10 1z" fill="#a8191b"/><path d="M43 184s5-16 19-16 14 7 27 7 16-4 21-5 21-2 26 10 6 25 11 29c0 0-14 4-22 2s-59 2-59 2l-8-17s-8-1-10 4a23 23 0 0 1-4 7l-8-2s5-10 5-16z" fill="url(#linear-gradient-7)"/><path d="M66 282s27 5 45-1l12-2v7s-15 8-25 16-41-22-41-22z" fill="url(#linear-gradient-8)"/><path class="cls-16" d="M34 209a6 6 0 0 0-5 1s0 1 0 0c3-2 6 0 10 1a11 11 0 0 0-5-2zm32-46c3-2 3-4 2-7a8 8 0 0 1-4 8l-8 2c-5 1-10 5-13 9-3 6-4 12-5 18a34 34 0 0 1-4 10l-6 7 6-6a26 26 0 0 0 4-9c2-7 2-14 6-20a21 21 0 0 1 8-7 23 23 0 0 1 8-2 12 12 0 0 0 6-3zm88 50c-3-1-5-5-7-8a45 45 0 0 1-3-10l-6-18a24 24 0 0 0-12-9l-9-2a10 10 0 0 1-6-8s-1 0 0 0c0 6 5 8 11 10 6 1 11 4 15 9 4 6 5 13 7 20a42 42 0 0 0 3 9 20 20 0 0 0 3 4 28 28 0 0 0 3 2 21 21 0 0 0-12-1v1a26 26 0 0 1 13 2v-1zm-29 8 1-14a134 134 0 0 0 0-16l-1 16v14zm-70-29 2 12 2 12h1l-2-12-3-12zm42 33h-4l-7 1c5 1 9 0 14-1-5-2-10-1-15-1l13 1h-1zm1 3H88h10zm-6 1v1h4a13 13 0 0 0-4-1zm33 51c0-3 0-6-2-9l1 9 2 7c-7 1-11 8-16 13-7 7-17 11-26 8-9-2-15-10-20-17a42 42 0 0 0-8-8 22 22 0 0 0-2-1v-3l2-7v-1l-3 8v3l1 1 10 9c5 7 10 14 19 17s18 0 25-6c7-5 10-14 19-16a1 1 0 0 0 1 0l-3-7z"/><path class="cls-21" d="M151 249c0-5 0-8-2-12v-8c-2-2-4-1-6 2 1-7 2-12 1-18v-2c-6 0-13 5-19 3l-1 19v3l-1 3-1-1c-16 3-36 1-50-9-1-5-5-9-8-13a39 39 0 0 1-9-15l-1-1c-8-1-1 13 0 15a1 1 0 0 1 1 1l-1-1c-6-2-12-2-17-5h-1l1 9h-5v6l5 1 1 3a52 52 0 0 1-6 2 6 6 0 0 0 1 5 6 6 0 0 0 2 7 47 47 0 0 1 8-1c-1 1-6 1-7 3s2 3 3 4l3-1v1l4 16v4a20 20 0 0 0 5 3h1c15 10 38 10 54 7 12-3 23-5 34-9h1c5-6 8-10 9-18a18 18 0 0 0 1-3zm-84-3c15 4 28 14 44 16h1l-1 1-1 1c-8 1-16 1-23-1l-19-5-1-2a32 32 0 0 1-3-9 20 20 0 0 0 3-1z"/><path class="cls-22" d="m33 237 9-1-10-2a5 5 0 0 0 1 2v1zm113 23-7 9c-2 2-26 7-50 7s-37-8-39-10-3-7-3-7 3-9 8-10 9 2 10 2a32 32 0 0 1-1-4h-6l-10-1a62 62 0 0 0-11 1l2 2 3-1v1l4 16v4a20 20 0 0 0 5 3h1c15 10 38 10 54 7 12-3 23-5 34-9h1c5-6 8-9 9-16zm-79-14c15 4 28 14 44 16l4-8s-18 1-26-2l-20-7a5 5 0 0 0-4 1 18 18 0 0 0 2 0zm-29-17h-1c3 0 4-1 4-2l-5-2 1 1 1 3zm108 15a22 22 0 0 0 3-4l-1 9-5 7c5-3 7-8 8-12a20 20 0 0 0-2-7v-5 1a21 21 0 0 1-2 6l-7 11a55 55 0 0 0 6-6zm-104-2h1l-10-2a5 5 0 0 0 2 3 41 41 0 0 1 7-1zm12-27zm73 2 14-1c0 4 0 19-2 23a21 21 0 0 0 3-4l3-6a9 9 0 0 0-2 2c1-7 2-12 1-18v-2c-5 0-13 5-19 3v3a11 11 0 0 1 2 0zm22 15zm-18 7-2-1-1 5-1 4v2l7-2s-5 0-4-2l1-6zm-94-20h-1a15 15 0 0 0 4 0v-3l14 2v-3c-6-2-12-2-17-5h-1l1 9z"/><path d="M44 251a26 26 0 0 0 2 6l5-8-7 2zm35 26c-17-2-27-8-27-8l-4-3-1 3 5 1s7 7 26 9a121 121 0 0 0 35-3 225 225 0 0 1-34 1zm34-21h-7l-13-1a41 41 0 0 0 17 5zm31-43-1-1-9 3h8v12s2-8 2-14zm-95 2-12-3 1 5h1v-3z" fill="#ef876b"/><path class="cls-24" d="M62 215c3 4 8 8 9 14h1c0-5-4-9-8-13a34 34 0 0 1-5-7l-4-9a27 27 0 0 0 2 7 34 34 0 0 0 5 8zm-29 4a51 51 0 0 0 21-1 69 69 0 0 1-10 1h-7l-1-9a74 74 0 0 0 1 9l-4-1v1zm3 7h1a10 10 0 0 0 0 1v2l-5 1v1a29 29 0 0 0 9-3v-1a25 25 0 0 0-6-2 7 7 0 0 0-2-1c-2 1-1-4-1-5v5l4 2zm3 1c2 1 1 1-1 2a3 3 0 0 0 0-1l-1-2 2 1zm28 19-18 1a60 60 0 0 0 10 1 29 29 0 0 0 4-1l3 9h1l-3-9a13 13 0 0 0 3-1zm44 15a98 98 0 0 1-11-2 93 93 0 0 1-11-5c-7-3-14-7-22-8 8 2 15 6 22 9s14 6 22 7v-1zm-15-22a71 71 0 0 0 26-1l-12 1a97 97 0 0 1-13-1 66 66 0 0 1-25-9c7 5 16 8 24 10zm29-6c-2 2-2 5-3 7l-3 9c-3 4-7 8-8 14 2-6 6-10 9-14a25 25 0 0 0 3-8v-4l2-4zm2 16 2-10a8 8 0 0 0 0-1l5 1a18 18 0 0 0-5-1 6 6 0 0 0-3-5c6 4 0 11 1 16zm25-2a27 27 0 0 0-1-3 18 18 0 0 0-2-7v-5l1-1-1-1a39 39 0 0 0-1 5 29 29 0 0 1-3 6l-5 9a39 39 0 0 1 3-5l3-4a20 20 0 0 0 2-5l1-3-1 12a7 7 0 0 1 0 3 32 32 0 0 1-2 2l-4 6h1a43 43 0 0 0 3-5c2-1 3-2 3-4v-9c2 3 3 7 2 11l-5 11c-1 0 0 0 0 0a27 27 0 0 0 4-5 23 23 0 0 1-3 7l-7 8h1a28 28 0 0 0 10-18l1-3a10 10 0 0 0 0-2zm-68 15a64 64 0 0 0 13 3 75 75 0 0 0 13-1 68 68 0 0 1-25-2l-24-7c7 4 15 5 23 7zm-38 3-2-8a54 54 0 0 0-2-8 69 69 0 0 0 5-2l-5 1h-3l-1-2c-3-2 3-3 5-4a34 34 0 0 0-6 0l-3-1a6 6 0 0 1-1-4l9-1h-7l-3-1a7 7 0 0 1 0-4 7 7 0 0 0-1 3l2 3c-1 2 0 4 1 6h1a42 42 0 0 1 5 0l-4 2a6 6 0 0 0 1 2 9 9 0 0 0 2 2h3l2 8 1 8h1zm6 7a27 27 0 0 0-4-2l-2-1v-3h-1a7 7 0 0 0 1 2v1a3 3 0 0 0 0 1 11 11 0 0 0 5 2h1zm88-2c-15 5-31 9-47 10a73 73 0 0 1-41-8c11 8 27 10 40 9l22-4c9-2 18-3 26-6v-1zm-86-54a8 8 0 0 1 0 1h1l-1-3a43 43 0 0 1-2-5c-1-3-3-9 2-9v-1c-7 0-2 11 0 16-6-2-12-2-17-5 5 3 11 4 17 6zm70 17 1-19-1 19zm10-19 5-2a42 42 0 0 1 5-1l-8 2c-4 1-7 2-11 1h9zm10-2a64 64 0 0 1 0 9l-1 10-1 1a27 27 0 0 0-2 5 11 11 0 0 1-2 4l-4 5-6 3 6-2 1-1 2-3 2-3 2-1a27 27 0 0 0 1-4c1-3 3-9 7-6-2-2-4-1-5 1 1-6 2-12 1-18h-1z"/><path d="M46 243s-5-15-2-21l11-2c4-1 11-2 14 8 0 0 0 2 3 4s15 11 47 9c0 0 0 7-5 11 0 0-12 3-34-6 0 0-7-4-13-3s-15 2-21 0z" fill="url(#linear-gradient-9)"/><path d="M113 263s2-9 8-11l15-3 8 12s-1 5-7 6l-22 4z" fill="url(#linear-gradient-10)"/><path fill="url(#linear-gradient-11)" d="M126 231v-12l14 1-1 17-8-1-2-3-3-2z"/><path d="M125 233c-1 2-2 4 0 5 2 0 3-3 2-4a3 3 0 0 0-2-1zm24-4c-2-1-3 2-3 3a18 18 0 0 1 2 1 10 10 0 0 0 1-3zm-95-29c-2 0-2 3-1 4a18 18 0 0 1 3 0c-1-2 0-3-2-4z" fill="#f8d1bb"/><path class="cls-22" d="M125 233a2 2 0 0 1 2 2 2 2 0 0 1-1 2l-2-1 1-3c-1 1-2 3-1 4a2 2 0 0 0 3 1 2 2 0 0 0 1-3 3 3 0 0 0-3-2zm24-3a10 10 0 0 1-1 3 4 4 0 0 0-2-1 4 4 0 0 1 0-1c0-2 2-2 3-2 0 1 0 0 0 0a2 2 0 0 0-2 0 3 3 0 0 0-1 2l-1 1h1l1 1h1a6 6 0 0 0 1-1 7 7 0 0 0 1-2h-1zm-95-30a4 4 0 0 1 1 2 13 13 0 0 0 0 1 8 8 0 0 0-2 1c0-2-1-3 1-4-2 0-2 3-1 4a26 26 0 0 0 3 0c-1-2 0-4-2-4z"/><path d="M108 165v-1c-9-5-10-20-9-29H78c0 7 4 25-6 27 8 11 28 14 36 3z" fill="url(#linear-gradient-12)"/><path class="cls-22" d="M79 149s4 7 11 7 9-6 9-6l-1-7-20 2z"/><path class="cls-16" d="M69 156c2 10 12 16 22 17a21 21 0 0 0 13-4 16 16 0 0 0 7-12 25 25 0 0 1-3 7 15 15 0 0 1-5 5c-3 2-8 3-12 2-9 0-20-6-22-15z"/><path class="cls-24" d="M78 135v14c0 5-1 12-6 13 5-1 6-6 7-10l-1-17zm30 29c-9-6-9-20-8-29h-1c-2 9-1 24 9 29z"/><path class="cls-21" d="m129 102-2-1 2-19-33-16-22 2a17 17 0 0 0 2-3l-5-5-8 4 2 5-8 1c-1 1-8 20-10 29l-6 2c-6 3-1 13 1 15 2 5 6 8 11 8v-1a24 24 0 0 0 8 10l9 6 10 7c2 2 5 2 8 2a14 14 0 0 0 8-2l9-7 9-6a24 24 0 0 0 7-9h1c4 0 7-3 10-8l3-9a5 5 0 0 0-6-5z"/><path d="M74 119c0 5-3 14-9 14s-12-11-12-17 2-12 9-10c6 2 12 7 12 13z" fill="url(#linear-gradient-13)"/><path d="M101 119c0 6 3 14 8 14s13-11 13-16-2-12-10-10c-5 2-11 7-11 12z" fill="url(#linear-gradient-14)"/><path d="M83 135a13 13 0 0 0 4-3c2-2 6 1 6 2 0 0 6-4 3-14l-3 2-13-1s-3 5 3 14z" fill="url(#linear-gradient-15)"/><path d="M83 143s1-2 6-2a9 9 0 0 1 6 2s-7 6-12 0z" fill="url(#linear-gradient-16)"/><path d="M81 100h15s-1-14 2-17l-17-2v19z" fill="url(#linear-gradient-17)"/><path d="M85 116a3 3 0 0 0 1 4 4 4 0 0 0 6-2c1-2-1-4-1-6-2-3 0-17 0-17h-5v18l-1 3z" fill="url(#linear-gradient-18)"/><path class="cls-21" d="M85 114s4-2 8 0l-1-1a10 10 0 0 0-7 0z"/><path d="M82 116a11 11 0 0 0 3-7l-1-16-4 13c-1 2-2 9 2 10z" fill="url(#linear-gradient-19)"/><path d="M94 116a11 11 0 0 1-3-7l2-16s2 11 4 13 2 9-3 10z" fill="url(#linear-gradient-20)"/><path d="M40 109v-2s6 0 9 6a12 12 0 0 1 0 3 12 12 0 0 0 2 4s-5 0-6-4-3-7-5-7z" fill="url(#linear-gradient-21)"/><path d="M124 119a9 9 0 0 0 0-4c0-2 6-9 10-8l-1 2s-2 6-5 9-4 1-4 1z" fill="url(#linear-gradient-22)"/><path d="M59 100s-4-14 6-18 14-2 14-2 4 9 0 24l-9-3z" fill="url(#linear-gradient-23)"/><path d="M120 100s4-14-6-18-15-2-15-2-3 9 1 24l8-3z" fill="url(#linear-gradient-24)"/><path class="cls-22" d="M94 120c-2 0-4 2-7 1a9 9 0 0 1-2-1 4 4 0 0 0-5 1l1 1s3 4 7 4a7 7 0 0 0 6-4c2 0 2-2 0-2zm-8 17h-1a4 4 0 0 0 4 2c2 0 3-2 3-2a8 8 0 0 0-6 0zm39-56v2a4 4 0 0 0-1-3l-20-10-32-6c-3-1-13 2-14 3L45 82l-1 9 2 1 1 4c-1 1 0 16 4 13 4-2 4-16 5-20s3-7 6-9c6-3 16-1 24 0l24 2c6 0 11 3 11 10l3 13a23 23 0 0 0 4-10c0-6-1-13-3-14z"/><path class="cls-24" d="M82 122c-2-1-2-3-1-5l-1 3 2 2zm0-1 2 1 1 1a4 4 0 0 0-1-2 2 2 0 0 0-2 0v1zm12 1 2-2-1-3c1 2 1 4-1 5zm-3 1 1-1 2-1c0 1 0 0 0 0a2 2 0 0 0-2 0 4 4 0 0 0-1 2zm-51-16a3 3 0 0 0 0 2v-2c3 0 7 3 8 6a2 2 0 0 0-2 0c-1 1 0 3 1 4l-1-3h3v4a4 4 0 0 0 2 2c-2-1-1-4-1-5a5 5 0 0 0-1-1v-1a10 10 0 0 0-1-2 13 13 0 0 0-8-5v1zm95-3a5 5 0 0 0-6-2c3 0 5 1 6 3s-1 7-2 9a23 23 0 0 1-5 7 11 11 0 0 1-6 3 13 13 0 0 0 0-5 26 26 0 0 1-5 10 33 33 0 0 1-9 8 72 72 0 0 0-8 6 26 26 0 0 1-5 3l-7 2a27 27 0 0 1-6-1 17 17 0 0 1-5-3 94 94 0 0 0-10-7 38 38 0 0 1-9-7 25 25 0 0 1-6-11 13 13 0 0 0 1 5 12 12 0 0 1-8-4 25 25 0 0 1-4-6c-2-3-5-9 0-12v-1c-6 2-2 9-1 13 3 5 6 10 13 10 2 6 8 10 13 13l6 3 5 4c3 3 7 4 11 4a14 14 0 0 0 10-3l5-4a58 58 0 0 1 6-4c5-3 10-8 12-13 7 0 11-6 13-12 1-2 2-5 1-8zm-12 16c3-2 2-4 2-6h3c1 1 0 2-1 3l1-4a2 2 0 0 0-2 0c1-3 4-6 7-6v2h1a3 3 0 0 0 0-2v-1c-4 1-6 3-8 5a9 9 0 0 0-1 2v1a5 5 0 0 0-1 1c0 1 1 3-1 5zm-40 15 4-2c2-2 4 0 6 2-1-2-2-4-5-4l-5 4zm4 3h1a5 5 0 0 1 2 0 3 3 0 0 0-3 0z"/><path d="M140 79c4-6 1-17-1-24-2-5-6-8-11-12a2 2 0 0 1 0-1c-4-9-8-15-17-18-9-4-16-2-24 0l-1-1 4-6c-3 3-8 3-12 5a22 22 0 0 0-13 11h-1c-12-5-18 6-27 11h4v1c-5 3-8 9-10 14-3 6-1 16-5 21a14 14 0 0 0 4-3h1c-1 9 0 15 7 23a6 6 0 0 0 0 3c3-2 7 0 9 3h1v6c5-2 5-9 4-14 2-4 1-7 0-11 6-5 14-10 15-20h1c2 6 6 10 14 11v-1h1c4 3 9 5 14 2-3 0-7-3-10-6a6 6 0 0 1 1 1c7 6 37-1 34 17v1l1-1v1c2 5 1 13 1 18l3-7h1a7 7 0 0 1 4-2 22 22 0 0 0 5-9v-1a19 19 0 0 0 2 3c0-5 3-9 1-15z" fill="url(#linear-gradient-25)"/><path d="M38 100a6 6 0 0 0 0 3c3-2 7 0 9 3h1v6c5-2 5-9 4-14 2-4 1-7 0-11 6-5 14-10 15-20h1c2 6 6 10 14 11v-1h1c4 3 9 5 14 2-3 0-7-3-10-6a6 6 0 0 1 1 1c7 6 37-1 34 17v1l1-1v1c2 5 1 13 1 18l3-7h1a7 7 0 0 1 4-2 22 22 0 0 0 5-9v-1a19 19 0 0 0 2 3c0-5 3-9 1-15 4-6 1-17-1-24-2-4-5-7-8-9a7 7 0 0 0 1 1c4 5 4 14 4 14-3-4-17-8-23-9s-7-5-7-5 1 9 4 12a60 60 0 0 1 12 13s-21 2-33-6a29 29 0 0 1-12-15c-1 13 6 19 6 19-7-1-8-5-13-14a17 17 0 0 0-6-6c3 16-6 26-16 29a13 13 0 0 0-7 5 22 22 0 0 0 1 4l-5 6v-2a2 2 0 0 1-1 0c-3-1-5-5-5-7 0 5 2 10 6 14z" fill="url(#linear-gradient-26)"/><path d="M96 34c-6-2-11-2-16-1a30 30 0 0 0 2-2c-4 1-8 3-11 6a12 12 0 0 1 0-5 24 24 0 0 0-3 5c-5-1-15-1-19 3 2 0 7 0 8 2l-10 2c-10 6-11 14-11 14 1-4 6-9 10-11 5-3 11-4 16-3a15 15 0 0 0-4-4l10 1 2-3a5 5 0 0 0 0 3c2-3 7-5 10-5l-3 6c9-7 22 0 31-6-5 2-8-1-12-2z" fill="url(#linear-gradient-27)"/><path d="M94 24c10-1 22 4 26 13 3 4 3 6 8 9s6 6 7 11c-4-7-12-8-20-11 4-2 5-7 4-11-2-4-6-5-10-6-5 0-8 1-12-1-4-1-9-3-13-2z" fill="url(#linear-gradient-28)"/><path d="M38 92c6-3 13-3 19-8 5-5 9-12 9-19-5 5-8 9-15 12-2 1-7 4-10 3s-2-6-2-9a31 31 0 0 0-6 9c7-8 4 12 1 5-1 4 1 9 3 12z" fill="url(#linear-gradient-29)"/><path d="M48 70a27 27 0 0 0 17-15 7 7 0 0 1 2 4 28 28 0 0 1 4-7c1 6 2 10 6 15a20 20 0 0 1-8-6 23 23 0 0 0-3 4 21 21 0 0 1-1-6c-3 5-5 10-10 13s-10 2-15 4z" fill="url(#linear-gradient-30)"/><path d="M77 56c0-3-1-6 1-8l6 8v-6c7 7 14 11 23 13l-4-7c5 2 12 8 14 13-5-3-19-10-24-5-5-2-10-4-14-8l-2 4z" fill="url(#linear-gradient-31)"/><path d="M67 39c-2 1-3-1-4-1-3-1-6 1-8 1a5 5 0 0 0-2 0 14 14 0 0 1 5 3 13 13 0 0 0-6 1h9a5 5 0 0 0-1 0 24 24 0 0 0-4-3l8-1h4a10 10 0 0 0 2-3 3 3 0 0 0-1 0l-2 3zm26-3-6-1H77l1-1c-2 0-4 2-5 3l-2 2 6-3h4l-1 3c7-4 15-2 22-1-2-2-5-3-7-3 1 1-1 1-2 1zm1-10 9 2a27 27 0 0 1 10 1 58 58 0 0 0-10-3h-9zm36 22c-1 3-9-3-7-4-2-1-2-2-2-4l-1-2c0 3 0 6-2 7 6 2 11 4 15 8a17 17 0 0 0-3-5zm-12-3zm-73 1 5-2-5 2zm-4 4 2-2-2 2zm-3 3 1-1-1 1zm65-15h2l-2-1v1zM92 25h-2l2 1a2 2 0 0 0 0-1z" fill="url(#linear-gradient-32)"/><path d="M65 57c-1 4-5 8-8 10l-8 5 8-2 3-5a41 41 0 0 1 4-4c2-2 2-1 3 1 2-3 5-1 7 1l-4-7c-1 2-3 5-5 1zm9 6zm8-8c-2-1-4-3-5 0v1c1-3 6 1 7 2 0-4 8 3 9 4a8 8 0 0 1 3-1l-11-7c0 2-1 3-3 1zm27 6zm0 0c0 1 1 4-1 3l5 2a10 10 0 0 0-4-5zm-8 2zM45 73c1-1 3-1 1-3z" fill="url(#linear-gradient-33)"/><path d="M47 45h1a1 1 0 0 0-1 0zm8-2h5a5 5 0 0 0-5 0zm4-4h4-4zm15-3h3v-1l-3 1zm7-1 1 2 6-1-7-1zm14 1 1 1h3a6 6 0 0 0-3-1zm3-9h8l-3-1-5 1zm0-1a11 11 0 0 0-2 0l1 1a2 2 0 0 0 2-1zm-7-1v1l1-1a1 1 0 0 0-1 0zm29 16v4a4 4 0 0 1-1 0l4 1c-2-1-2-3-3-5zm10 8v1l2 1a8 8 0 0 0-2-2z" fill="url(#linear-gradient-34)"/><path d="M55 70a4 4 0 0 0 3-3l-5 4 2-1zm10-12a4 4 0 0 0 0 2 1 1 0 0 1 2 1c1-1 3-2 4-1a6 6 0 0 0-1-2 3 3 0 0 1-5 0zm12-3h3a2 2 0 0 0-3 0zm6 2a1 1 0 0 1 1-1l-1 1zm3-1-1 1a15 15 0 0 1 8 4 4 4 0 0 0 1-1l-8-4zm25 9a6 6 0 0 0-1-2 1 1 0 0 1 0 1z" fill="url(#linear-gradient-35)"/><path d="M43 93s-10-10-9-25c0 0 0 14 9 19 6 2 15-5 15-5l-7 5c-2 1-5 4-7 8z" fill="url(#linear-gradient-36)"/><path d="M122 85s6 1 8-3c4-7-4-18-4-18s8 8 8 12 1 11-13 16a15 15 0 0 0 1-7z" fill="url(#linear-gradient-37)"/><path class="cls-12" d="M82 78a18 18 0 0 1-11-6 20 20 0 0 1-3-6 34 34 0 0 1-2-6 38 38 0 0 0 1 7 25 25 0 0 1-5 10 55 55 0 0 1-8 8 48 48 0 0 0-8 6 16 16 0 0 0-1 2l-1 1-2-1a24 24 0 0 1-4-6c1 3 3 6 6 8h1a28 28 0 0 1 7-8 27 27 0 0 1 1 6 14 14 0 0 1-1 5 15 15 0 0 0 0-11l6-5c5-4 9-8 10-15a19 19 0 0 0 2 6c3 3 8 5 12 5zm15 1c-5 0-10-5-12-9h-1c3 4 7 8 12 9a14 14 0 0 1-11-1 21 21 0 0 1-9-10 20 20 0 0 0 9 11c3 2 9 3 12 0zm25 12a10 10 0 0 0-2-9c-3-3-7-4-10-4a117 117 0 0 0-12-2c-3 0-7 0-10-2 2 2 5 2 8 3l11 1c4 1 8 1 11 3s4 6 4 10zm12-8a12 12 0 0 0 1-5c3-5 2-12-2-17 3 5 3 10 1 16 0-4-3-7-5-11 0 0-1 0 0 0 3 5 6 10 4 16-1 5-7 8-11 10 5-1 10-4 12-9zm-7 20a17 17 0 0 0-2 5l-1 1v-3l-1-14 1 18 3-7zm-75-5a18 18 0 0 1 0 8 11 11 0 0 1-1 3 7 7 0 0 1-3 2v-5a20 20 0 0 1 0 6c3 0 4-3 4-5a15 15 0 0 0 0-9zm-9 4a9 9 0 0 0-3 0 7 7 0 0 0-2 0v-2a7 7 0 0 0-1 3h1c3-2 7 0 9 3 0 0 1 0 0 0a8 8 0 0 0-4-4zm-5-3c-3-3-6-7-7-12s0-10 1-15h-1c-2 10-1 21 6 28l1-1zm-8-22a17 17 0 0 1-3 2c2-3 2-6 2-10 1-5 1-9 3-13 4-8 11-15 20-15v-1a19 19 0 0 0-11 4l-4-1c5-2 8-5 12-8 5-3 10-4 15-2a15 15 0 0 0-14 1c-4 3-8 7-13 9v1h3a31 31 0 0 0-8 10 28 28 0 0 0-3 12c-1 5 0 10-3 14a15 15 0 0 0 4-3zm35-44a24 24 0 0 1 14-11l8-3a12 12 0 0 0 2-1v1l-3 4c2-1 4-3 4-6-2 2-6 3-8 3a30 30 0 0 0-7 3 20 20 0 0 0-10 10zm20-9 14-2a33 33 0 0 1 15 3 23 23 0 0 1 9 8 27 27 0 0 1 3 5l2 4a40 40 0 0 1-6-5 59 59 0 0 0 9 8 28 28 0 0 1 7 10c2 3 3 7 3 11 1 4 1 9-1 13 2-3 2-7 2-11a57 57 0 0 0-3-12c-1-6-6-10-11-13v-1a18 18 0 0 1-1-2l-1-3a35 35 0 0 0-3-5 26 26 0 0 0-9-7 30 30 0 0 0-14-4l-15 3zm55 55c1 5-1 9-1 14a14 14 0 0 1-4-4 6 6 0 0 0 1 3l-3 8c-1 2-4 1-5 3a5 5 0 0 1 4-1 20 20 0 0 0 5-10 10 10 0 0 0 2 2c0-5 3-10 1-15z"/><path class="cls-12" d="M119 89a11 11 0 0 0-4-3c-5-3-13-4-16-4-3-2 2-5 9-3 7 1 12 6 11 10z"/><path d="M118 87a13 13 0 0 0-2-2c-4-2-10-3-13-3l-4-1v-1l5-1a17 17 0 0 1 4 0c5 1 9 5 10 8z" fill="url(#linear-gradient-38)"/><path class="cls-12" d="M58 89a11 11 0 0 1 5-3c5-3 13-4 16-4 3-2-2-5-9-3-7 1-12 6-12 10z"/><path d="M59 87a13 13 0 0 1 3-2c4-2 9-3 13-3l3-1 1-1-5-1a17 17 0 0 0-4 0c-5 1-9 5-11 8z" fill="url(#linear-gradient-39)"/><path class="cls-24" d="M100 104a10 10 0 0 1 3 0 22 22 0 0 0 5 2v-2l-2-1h-5zm5-11a10 10 0 0 1 7-1 7 7 0 0 1 5 2 7 7 0 0 0-5-3c-4-1-7 2-7 2z"/><path d="M119 100c-1 4-3 6-9 6a15 15 0 0 1-7-2 6 6 0 0 0-4 0l1-2c2-4 5-8 10-8q7 0 9 6z" fill="url(#linear-gradient-40)"/><path d="M110 105a6 6 0 0 0 4-10 10 10 0 0 0-4-1 9 9 0 0 0-6 3 6 6 0 0 0 6 8z" fill="url(#linear-gradient-41)"/><circle class="cls-59" cx="110" cy="99" r="4"/><path class="cls-60" d="m110 97-2 2h-3l2-2h3z"/><path class="cls-12" d="M100 102c2-3 5-8 10-8a9 9 0 0 1 5 2l4 4c0-4-5-7-9-6-5 0-8 4-10 8zm10 4c4 0 8-1 9-6a9 9 0 0 1-3 4l-6 2z"/><path class="cls-24" d="M78 104a10 10 0 0 0-3 0 22 22 0 0 1-5 2v-2l2-1h5zm-5-11a10 10 0 0 0-7-1 7 7 0 0 0-5 2 7 7 0 0 1 5-3c3-1 7 2 7 2z"/><path d="M59 100c1 4 3 6 9 6a15 15 0 0 0 7-2 6 6 0 0 1 4 0l-1-2c-3-4-5-8-10-8q-7 0-9 6z" fill="url(#linear-gradient-42)"/><path d="M68 105a6 6 0 0 1-4-10 10 10 0 0 1 4-1 9 9 0 0 1 6 3 6 6 0 0 1-6 8z" fill="url(#linear-gradient-43)"/><circle class="cls-59" cx="68" cy="99" r="4"/><path class="cls-60" d="m68 97 2 2h3l-2-2h-3z"/><path class="cls-12" d="M78 102c-3-3-5-8-10-8a9 9 0 0 0-6 2l-3 4c0-4 5-7 8-6 6 0 8 4 11 8zm-10 4c-4 0-8-1-9-6a9 9 0 0 0 3 4l6 2z"/><path d="M64 109h4-4zm45 1h5-5zm-24 4h6-6zm3 19a2 2 0 0 0 1 1 1 1 0 0 0 1-1 3 3 0 0 0-2 0z" fill="#fae0d2"/><path d="m122 171 1-1a3 3 0 0 0-1 1zm1 1h5a6 6 0 0 0-5 0zm4 2 6 1-6-1zm4 3 4 2a5 5 0 0 0-4-2zm3 3 2 1-2-1zm1 2 1 1a1 1 0 0 0-1-1zm-78-13 2 1a3 3 0 0 0-2-1zm-5 2h5a6 6 0 0 0-5 0zm-4 3 5-1-5 1zm-3 4 4-2a5 5 0 0 0-4 2zm0 2 1-1-1 1zm0 2v-1a1 1 0 0 0 0 1z" style="fill:#f09989"/><path class="cls-60" d="M69 59zm-3 1a1 1 0 0 0 2 0l-1-1zm26 0 1-1-1 1zm-9-24h2a4 4 0 0 0-2 0 1 1 0 0 1 0 1zm0 0v1zm14 0v1h1a1 1 0 0 0-1-1zm4-9a9 9 0 0 0 1 0l-1-1a8 8 0 0 0 0 1zm19 18a5 5 0 0 0 0 1l1-1a2 2 0 0 0-1 0zm-63-2zm1 0a3 3 0 0 1-1 0h1zm3-4h1a6 6 0 0 0 0-1 2 2 0 0 0-1 1z"/></svg>