<svg xmlns="http://www.w3.org/2000/svg" viewBox="0 0 461.59 595.28"><defs><style>.cls-2{fill:#fbd0b0}.cls-3{fill:#cbbba0}.cls-4{fill:#f39200}.cls-5{fill:#7f4e12}.cls-6{fill:#29235c}</style></defs><g style="isolation:isolate"><g id="Слой_1" data-name="Слой 1"><path class="cls-2" d="m327.76 486.09-3.39-8.75a36.69 36.69 0 0 0-4.46-9c-2-2.68-4.93-4.85-8.26-5.19a8.09 8.09 0 0 0-6.58 2.4 10.42 10.42 0 0 0-2.62.81q-7 2.94-14.27 5.32c-4.17 1.37-9 2.52-12.75.22s-4.85-6.89-7.64-10.12c-3.65-4.21-9.89-5.59-15.31-4.28s-10 5-13.55 9.28l-2.24 1a121.29 121.29 0 0 0 8.39 21.89c1.44 2.89 3.06 5.8 5.55 7.87 4 3.35 9.66 4 14.9 3.8 16.56-.49 32.27-7 47.53-13.47a35.43 35.43 0 0 0 4.4 6.53c2.23 2.62 5.75 5.08 8.86 3.62 2-.95 3-3.31 3.06-5.54a17.87 17.87 0 0 0-1.62-6.39Z"/><path class="cls-3" d="m327.76 486.09-3.39-8.75a36.69 36.69 0 0 0-4.46-9c-2-2.68-4.93-4.85-8.26-5.19a8.09 8.09 0 0 0-6.58 2.4 10.42 10.42 0 0 0-2.62.81 188.58 188.58 0 0 1-10.84 4.11 25.35 25.35 0 0 1 6.71 23.39c5-1.87 9.87-3.93 14.73-6a35.43 35.43 0 0 0 4.4 6.53c2.23 2.62 5.75 5.08 8.86 3.62 2-.95 3-3.31 3.06-5.54a17.87 17.87 0 0 0-1.61-6.38Z"/><path class="cls-4" d="M305 465.52a10.49 10.49 0 0 1 10.11-3.08c2.36.55 4.27 2.24 5.94 4A49.69 49.69 0 0 1 334.64 500c0 3.56-.72 7.7-3.87 9.35-3.32 1.73-7.38-.36-10.06-3-4.71-4.57-7.49-11.74-7.71-18.35 2.12 3.48 3.09 5.54 5.86 7.92a5 5 0 0 0 4.31 1.09 3.14 3.14 0 0 0 1.87-2.19c1.49-6-.38-12.31-3.24-17.74a29.93 29.93 0 0 0-5.59-8c-2.37-2.24-5.5-4-8.75-3.79l-2.46.23Z"/><path class="cls-2" d="M192.86 428a6 6 0 0 0-1.59-3.68l.66.23a49.42 49.42 0 0 0-33.54-9.77c-8.49.7-16.63 3.59-24.65 6.46-7 2.5-15.45 6-22.44 8.49-1.41.13-1.33-.68-2.52-1.38a6.91 6.91 0 0 1-1.85-1.93 31.5 31.5 0 0 0-4.92-5.16 5 5 0 0 0-2.51-1.33 3.67 3.67 0 0 0-3.5 2.29 9.93 9.93 0 0 0-.61 4.39 102.11 102.11 0 0 0 2.76 20.92c.87 3.75 2.22 7.86 5.62 9.65 3.08 1.63 6.83.8 10.21-.07a51.61 51.61 0 0 0 7.65-2.41c3.18-1.08 6.31-2.42 9.41-3.63 16.95-6.65 37.06-9.22 52.74 0 1.81 1.07 4 2.31 5.85 1.31 1.37-.74 1.89-2.42 2.22-3.94a62.11 62.11 0 0 0 1.01-20.44Z"/><path class="cls-3" d="M111.29 429.73c-1.41.13-1.33-.68-2.52-1.38a6.91 6.91 0 0 1-1.85-1.93 31.5 31.5 0 0 0-4.92-5.16 5 5 0 0 0-2.51-1.33 3.67 3.67 0 0 0-3.5 2.29 9.93 9.93 0 0 0-.61 4.39 102.11 102.11 0 0 0 2.76 20.92c.87 3.75 2.22 7.86 5.62 9.65 3.08 1.63 6.83.8 10.21-.07a51.61 51.61 0 0 0 7.65-2.41c3.18-1.08 6.31-2.42 9.41-3.63a97.6 97.6 0 0 1 5.45-1.94 73.61 73.61 0 0 1-8.63-25.7c-5.53 2.11-11.44 4.47-16.56 6.3Z"/><path class="cls-4" d="M110.39 429.83c-2-4.8-3.56-9.34-6.43-13.66-1.53-2.3-3.68-4.77-6.44-4.56-3 .23-4.78 3.55-5.46 6.51-1.54 6.7-.58 13.7.38 20.51l2.29 16.27a17.33 17.33 0 0 0 2 6.9c2.18 3.48 6.82 5 10.81 4a14.24 14.24 0 0 0 9.09-7.73 3 3 0 0 0 .31-1.75c-.71-.35-1.74-.42-2.8-.77-4.42-1.47-7.12-5-9.16-9.19s-2.8-8.87-3.47-13.48c-.32-2.22-.41-4.94 1.46-6.17a3.79 3.79 0 0 1 4.31.61c1.33 1.2 3.11 2.51 3.11 2.51Z"/><path class="cls-5" d="M309.29 173.64c4.19 5.77 3.36 14.3-1 19.9s-11.75 8.41-18.89 8.39c-5.79 0-12.65-1.35-16.5 3-3.35 3.77-2.22 9.59-.89 14.46l10.13 37.08a3.24 3.24 0 0 0 .95 1.81c.75.58 2.06.1 3-.12 12.91-3.13 27-3.19 38.12-10.53 21.44-14.19 32.42-26.55 36.2-53.84 1.46-10.59-12.45-3.53-18.77-12.15S324.75 167.07 314.1 168"/><path class="cls-2" d="M295.12 173.76c-11.62.13-15-1.13-15-1.13s-7.31-24.75-6.26-34.53l1.05-9.78S235.73 112 225.14 97.59s-14.57-32.64-14.57-32.64-26.48 7.88-38.43 17a114.3 114.3 0 0 0-30.72 35 44.58 44.58 0 0 0-4.51 11.14s-10.32-5.91-15.61-3.36-8.1 8.26-5.27 14.67 12.18 9.47 12.18 9.47a166.73 166.73 0 0 0 1.9 42.57c25.24 8.89 55.1 3.93 75.78-13.17-7.88 15-15.87 30.06-26.79 43a92.38 92.38 0 0 1-22 19.24A158 158 0 0 0 217 272.3c6.94 2 2.41 35.28 2.41 35.28l32.08 2.7 3.7-31.86a217.31 217.31 0 0 0 21.4-9.54c6.17-3.17 18-12.62 18-12.62S285 248 281.1 236.43c-5.56-16.69-2-29.78-2-29.78s28.43 17.19 36.73-4.21-9.09-28.81-20.71-28.68Z"/><path class="cls-6" d="M225.67 448.32A151.9 151.9 0 0 0 235 474.7a143.59 143.59 0 0 0 40-14.43l-4-10.8c6-8 8.65-18.17 8.42-28.14s-3.18-19.74-7.44-28.77a5.8 5.8 0 0 0-1.55-2.24 6 6 0 0 0-2.59-.92L249 385.87a2.64 2.64 0 0 0-3.74 1.94l-21.46 55.27"/><path class="cls-6" d="M193.78 383.48a72.72 72.72 0 0 0-2.1 34.54 21.25 21.25 0 0 0-13.16-5.14q-4.42 16-7.58 32.32a6.84 6.84 0 0 0 0 3.85c.7 1.73 2.64 2.57 4.39 3.2 15.33 5.54 32 8.91 47.94 5.63s31-14.33 35.56-30a55.6 55.6 0 0 0 1.85-13.6 120.37 120.37 0 0 0-.78-18.33c-.17-1.38-.44-2.92-1.57-3.74a5.22 5.22 0 0 0-2.66-.73l-61.95-5.42"/><path class="cls-2" d="M274.63 287.89c28.64-8.35 57.39-16.75 84.63-28.92 12.21-5.45 24.87-12.43 30.73-24.44 2.81-5.75 3.34-9.36 6.95-14.65a5.51 5.51 0 0 1 2.91-2.47c1.83-.48 3.75.85 4.54 2.56a13.24 13.24 0 0 1 .85 6.25 33.78 33.78 0 0 1-3.6 12.79c11.54.12 29.7 7 30.36 12.14-1.87 6-16.72 2-26.93-.3 8.2 2.51 14.66 7.6 21 12.84 2.11 1.75 5.24 3.9 4.93 5.46-.82 4.1-6.58 2.51-10.24 1-5.47-2.25-11-4.66-16.44-6.91 5 4.35 7.73 5.95 12.42 10.64 1.67 1.67 3.64 4.08 3.54 6.06-.13 2.41-2.95 3.93-5.34 3.59s-4.38-1.94-6.24-3.49c-3.86-3.21-5.79-4.57-9.65-7.78a18.67 18.67 0 0 0-6.08-3.84 16.28 16.28 0 0 0-7.13-.19c-11.79 1.67-22.83 6.61-33.69 11.5l-53.63 24.15c-5.61 2.53-12.17 5.06-17.68 2.33s-7.54-9.68-7.55-15.85M291.05 175.86c21.38-20.81 42.84-41.7 61.19-65.23 8.22-10.54 16.13-22.64 15.68-36-.22-6.39-1.64-9-.94-15.4a5.51 5.51 0 0 1 1.41-3.55c1.39-1.28 3.7-1 5.21.13a10.45 10.45 0 0 1 3.06 4.67c2.09 5.27 2.46 7.26 2.51 12.93 10.28-4.26 27.44-8.38 33.64-3.81 2.21 5.56-14.58 11.7-24 13.56 10.45-2.38 28.76-1.73 31.51 2.82.61 3.91-4.58 5.8-8.52 6.19l-17.66 1.75 19.4 4.47c1.93.45 4.12 1.09 5 2.89 1 2.19-.76 4.86-3 5.68s-4.78.34-7.15-.15l-14.75-3.07a18.67 18.67 0 0 0-7.17-.54 16.28 16.28 0 0 0-6.38 3.18c-9.63 7-17.06 16.54-24.36 26l-36 46.48c-3.77 4.86-8.37 10.17-14.53 10.35s-11.2-5-14.1-10.46"/><path class="cls-5" d="M179.26 133.44a16.36 16.36 0 0 1 10.91 18.45 16.78 16.78 0 0 0 .93-2.21 16.31 16.31 0 1 0-31-10.16 16.8 16.8 0 0 0-.56 2.33 16.36 16.36 0 0 1 19.72-8.41ZM232.93 28c-13.85 5.73-26.88 15.33-31 34.51-3.68 17.16 2.31 28.77 9.91 39.78s18.37 19.54 30 26.15c4.19 2.38 8.57 4.57 12.11 7.84 9.21 8.5 10.89 22.46 9.67 34.93-.68 6.89 2.11 19 8.22 22.22 6.18-6.45 15.58-16.86 25.36-18.28 6.71-1 15.71 2.06 18.8 10.56 2.32 6.37 1.18 18.35-3.88 22.85A103.93 103.93 0 0 1 344 229.8c18.11-19.9 22.39-51.2 10.28-75.22a120.31 120.31 0 0 1 20.7-2.74A25.54 25.54 0 0 0 355.1 143l13-8.83a3.73 3.73 0 0 0 1.52-1.55c.81-2-2.06-3.49-4.24-3.75a67.56 67.56 0 0 0-21 .88c-15.38-17.58-32.77-33.47-58.81-44.18a6.29 6.29 0 0 1-.78-4.09A43.75 43.75 0 0 1 295 55.75a64.85 64.85 0 0 0-33.89 15.63c-1.75-9.25-.91-22.77 4.19-31-15 2.34-26 9.61-35.43 21.37-6.58-14.17 3.06-33.75 3.06-33.75Z"/><path d="M254.06 292.3c-6.82 8.63-13 11.05-25.68 12.81-2.32.32-7.14 0-8.63-1.42a19.9 19.9 0 0 0-3.22 3.81 179.84 179.84 0 0 0-25.87 78.93c-.09 1.14-.67 4.31-.67 4.31s3 1.24 4.42 1.76c22.55 8 46.18 9 70.09 8.53l13-.25a227.76 227.76 0 0 0-24.12-68.53 2.82 2.82 0 0 1 1.73-4.83L296 311.77q-6.39-15.84-13.46-31.39c-7.25 2.33-28.48 11.92-28.48 11.92Z" style="fill:#b5d273"/><ellipse cx="268.7" cy="550.61" rx="142.53" ry="33.86" style="fill:#36a9e1;stroke:#f5f1eb;stroke-miterlimit:10;mix-blend-mode:multiply"/><ellipse cx="297.55" cy="546.82" rx="96.74" ry="19.82" style="fill:#a6d2e5"/></g></g></svg>