<svg xmlns="http://www.w3.org/2000/svg" viewBox="0 0 427.4 549.79"><defs><style>.cls-1{fill:#2daaa1}.cls-3{fill:#ea561c}.cls-4{fill:#eaa07a}.cls-5{fill:#c66376}.cls-7{fill:#ff99ad}.cls-8{fill:#c90d42}.cls-9{fill:#e86d7f}.cls-10{fill:#e61647}.cls-11{fill:#31bddd}.cls-12{fill:#5ce0ff}.cls-14{fill:#f4b08e}.cls-15{fill:#ffceb6}.cls-16{fill:#f98282;opacity:.4}.cls-17{fill:#ff7433}.cls-18{fill:#fff}.cls-19{fill:#44291e}.cls-22{fill:#229baf}.cls-23{fill:#3dcfe8}.cls-27{fill:#d34662}.cls-29{fill:#389b91}.cls-31{fill:#49bab1}.cls-32{fill:#6dd7d3}.cls-33{fill:#ffd2da}.cls-36{fill:#f1e8dd}</style></defs><g id="Слой_2" data-name="Слой 2"><g id="Слой_1-2" data-name="Слой 1"><path class="cls-1" d="M319.94 168.36c-40.48 14.53-92.9 26.3-115.11 67.22l-.25.49a144 144 0 0 1 15.54-32c25.27-38.61 65.72-63.24 97.57-95.72 1.2-1.23-.68-3.12-1.89-1.89-32.62 33.27-73.22 58.43-99.12 98a141.35 141.35 0 0 0-17.51 39.16 265.72 265.72 0 0 1 4.07-31.22c3.86-20.13 10.33-38.76 20.75-56.43 9.42-16 20.38-31 28.13-47.89.71-1.55-1.58-2.91-2.3-1.35-8.06 17.57-19.47 33.2-29.26 49.8-10.58 17.93-16.45 37.19-20.35 57.57a255.36 255.36 0 0 0-4.44 43.9c-9.1 31.33-6.62 66.64-6.58 98.32a1.33 1.33 0 0 0 2.67 0c0-19-.8-38.81.44-58.34a244.43 244.43 0 0 0 3.17 37.36c.27 1.69 2.84 1 2.57-.71a226.58 226.58 0 0 1-2-59 296.21 296.21 0 0 0 10.09 63.3 1.33 1.33 0 0 0 2.57-.71 287.25 287.25 0 0 1-10.16-79.31 120.87 120.87 0 0 1 7.81-20.41c10-20.2 28.52-32.66 48.2-42.4 21.15-10.47 44-17.16 66.1-25.11 1.61-.64.92-3.22-.71-2.63Z"/><path d="M306.21 159.57c.9 13.82 6.61 19.09 17.44 22.4 2.67-6.18 7.13-11.37 10-16.77l-11.56-4.45c-6.16-2.25-9.43-3.29-15.88-1.18Z" style="fill:#ffa506"/><path class="cls-3" d="M176.51 85c-13.42-5.46-29.54-6.3-40.89 4-13.49 12.2.18 25.17-7.31 37.11l45.33 30.22c0 1.3.41-1.17.67-1.78 6.41-15.14 31-12.33 29.36-34.68-1.19-16.03-12.88-29.07-27.16-34.87Z"/><path class="cls-1" d="M331.85 90.54c-4.35 3.14-12 1.62-17.64 1.91-3.71 22 28.67 32.23 25.64 1.64Z"/><path class="cls-4" d="m82.53 428.72 7.1 37.78 17.34-2.22-1.78-41.33-22.66 5.77z"/><path class="cls-5" d="M11.2 307.19c4.56-5.5 15.63-5.18 21.18-9.18l.12-.1a29.61 29.61 0 0 1-3.5-2.51c-7.8 4.53-19.57 3.32-23.15 13.24a1.65 1.65 0 0 0 .3 1.77c-.84 1.67.87 4.05 2.64 2.71 10.6-8.08 25.73-1.72 36.54-10-1.11-.83-2.22-1.65-3.36-2.45-8.82 6.18-20.97 2.58-30.77 6.52Z"/><path class="cls-5" d="M6.4 311.69c-2.48.68-1.43 4.54 1.06 3.86 11.65-3.2 22.57 4.65 34.33 1.56-.6-1.22-1.19-2.46-1.77-3.69-11.31 2.5-22.14-4.89-33.62-1.73Z"/><path d="M.65 316.28c-2.14 7.61 1.18 10.45 7.66 13.43 5 2.28 14.22 6.7 19.55 4.34l2.22-15.55c-5.79-2.85-10.56-6.68-16.55-9.22-7.14-3.04-10.69-.8-12.88 7Z" style="fill:#d37d96"/><path class="cls-4" d="M25.65 310.06s-16-4-17.78 10.22c-1.1 8.81 6.08 19.06 15.57 16-2.81-4.69-2.31-10.71 2.65-13.74 2.54-1.55 11.11.89 13.78.89S59 322.06 75.86 299L61.2 283.4s-8.89 29.33-35.55 26.66Z"/><path class="cls-7" d="M205.18 490.5c-11.55-3.56-157.77 6.22-157.77 6.22A22.43 22.43 0 0 0 55 509.61c6.67 5.78 127.55-4.44 151.1-8s10.63-7.55-.92-11.11Z"/><path class="cls-8" d="M162.41 255c-13.33 7-1.33 30.66-1.33 30.66 7 9 15.67 1 12.67-16.66s-11.34-14-11.34-14Z"/><path class="cls-9" d="m106.08 493.16-20.44 4.44c-2.08-1.19-13.12-1.56-13.39 3.51-.32 5.8 25.28 2.58 28.21 2.27 4.37-.47 12.94-2.85 17.47-4.57 14.81-5.65-5.32-7.06-11.85-5.65Z"/><path class="cls-8" d="M77.42 255.29c-6.67 7.33-16 23.33-19 25 0 0 3.67 6.33 13 11.67l17.33-37.66s-4.66-6.3-11.33.99Z"/><path class="cls-10" d="M143.75 294.62s10.33-31.66-2.66-35L127 255.85s-14.22-1.56-23.22 6.78c0 0-6 4-11.67 1.33 0 0-1.89-3.44 2.89-9.89 0 0-11.22-1.44-22.22 32.55 0 0-8 58.33 3 71 0 0 68.66-2.66 81.66-15.33-.03 0-19.03-17.67-13.69-47.67Z"/><path class="cls-4" d="M95 254.07s-7.11 8-1.33 10.22 13.73-4.48 18.22-6.22c3.56-1.39 15.11-2.22 15.11-2.22l.44-6.67-31.55-2.67Z"/><path class="cls-11" d="M129.42 110.3c-.67 6-1.34 13.33-1.34 13.33l52 26 8.67-8c-22-36.63-59.33-31.33-59.33-31.33Z"/><path class="cls-12" d="m175.4 145.37 8-3.73s14-9.33-4.66-28.67c.01.03-28.02 10.13-3.34 32.4ZM190.09 145.64l-2.67 10c27.91 13.49 32-12.66 32-12.66-17.34-10.67-29.33 2.66-29.33 2.66Z"/><path style="fill:#3fc8f4" d="M175.4 145.37 190 157.8l2.75-14.16-6.66-6-10.69 7.73z"/><path class="cls-14" d="M172.66 167.22c-3.17-3.53-5.95-7.27-9.89-10-5.16-3.58-11.47-6.17-17-9.26-18-10-39.81-18-59.36-8-2.54 1.3-15 6.33-14.32 10l-20.94 22.71a1.19 1.19 0 0 1-.15 1.53 1.45 1.45 0 0 1-.13.41 15.85 15.85 0 0 1-1.69 2.55c.9 3-.09 7.56-.33 10.1-.49 5.14-1.21 10.28-1.09 15.45.69 30 35.66 44.48 60.71 48.33a108 108 0 0 0 24.14.93c15.89-1.2 32.86-6 42.52-19.67 6.77-9.55 11.58-21.89 11.29-33.74a51.29 51.29 0 0 0-3.25-17c-2.17-5.83-6.42-9.8-10.51-14.34Z"/><path class="cls-15" d="M144.44 202.4a175.81 175.81 0 0 1-21.69-10.56s0 .08 0 .12c0 1.31-1.23 2.86-2.67 2.67-8.48-1.11-15-8.46-18.45-15.92-4-8.57-3.41-17.53-3.44-26.63-19.11 7.22-42.78 20.22-47.58 30.66a55.8 55.8 0 0 0 1.55 28.45c4.59 14 16.78 24.9 30.31 29.7 19.67 7 43.81 10.36 56.79-8.61a69.8 69.8 0 0 0 9.27-18.66c1-3.33 1.26-6 0-8.08a8.24 8.24 0 0 0-4.09-3.14Z"/><path class="cls-16" d="M50.43 200.23C51.76 208 64 214.45 67 204.26a11.1 11.1 0 0 0-2.54-10.75c-5.46-5.51-15.39-1.29-14.03 6.72Z"/><path class="cls-17" d="M175.4 145.37c-31.8-21.37-66.64-37.1-101.64-9.73-6.12 4.79-11.21 11.81-16.33 17.66-4.41 5-7.79 23.75-8.85 25.78 16-18.8 32.54-21.4 52.25-31.34-3.46 17.26 2.89 33.56 18.46 42.26-.21-1.48.47-3.5.27-5 .35 2.5 12.45 6.09 14.66 7 5.37 2.27 9.6 5.24 14.21 8.64 1.89-2.59 5.74-3.83 8.65-4.94 8.94-3.4 18.62 3.59 14.82 13.58-2.46 6.45-10.16 14.25-17.81 12.27 2.58.67 12 11.67 9.21 22 38.16-2.55 45.23-60 26.71-84.54a60.69 60.69 0 0 0-14.61-13.64ZM48.57 179.08l-.16.19s.1-.07.16-.19Z"/><path class="cls-18" d="M66.43 179c-5.11 1.39-10 7.5-7.86 12.57 3.18 7.59 12.39 3 15.5-2 3.72-5.9.74-12.81-7.64-10.57Z"/><path class="cls-19" d="M71.73 181.48c-3.06-.17-7 3.3-7.34 8.21-.21 3.2 1 4.87 2.59 5.41a14.18 14.18 0 0 0 7.08-5.49 10.31 10.31 0 0 0 1.26-3.07c-.13-3.44-1.69-4.95-3.59-5.06Z"/><path class="cls-16" d="M107.29 207.52a14.59 14.59 0 0 0-7.49-3.1c-4.1-.41-10.62 2.56-11.71 7.07-1.78 7.33 8.22 14.89 14.84 14.87 8.69 0 11.22-8.75 7.29-15.51a12.15 12.15 0 0 0-2.93-3.33Z"/><path class="cls-18" d="M95.07 199.7c-1.32 10.15 14.43 15.18 20.24 9.28a13 13 0 0 0 3.42-8.58 9.37 9.37 0 0 0-.34-2.63c-3.34-11.67-21.7-10.47-23.32 1.93Z"/><path class="cls-19" d="M109.43 194.28a6.26 6.26 0 0 0-6.76 3.61c-4.58 8.73 6.21 15.69 12.18 8.44 4.74-5.76-.31-11.33-5.42-12.05Z"/><path d="M83.32 197.42c-2-1.34-5.06.55-7.23.87-1.83.27-3.69-.44-5.26.74-3.23 2.44-1.76 7.82.83 10 4.57 3.87 8.56 2.42 11.62-4 .77-1.61 2-5.05.89-6.75a3.05 3.05 0 0 0-.85-.86Z" style="fill:#f4976e"/><path d="M87.59 220.25a1.23 1.23 0 0 0-1.37 1.06 1.08 1.08 0 0 0-1.07-.24c-8 2.11-18.61 1.53-21.37-7.84a1.36 1.36 0 0 0-.65-.82 1.33 1.33 0 0 0 .16-.54 1.57 1.57 0 0 0-.31-1.23 1.37 1.37 0 0 0-1.59-.36 2.28 2.28 0 0 0-.6.4 1.31 1.31 0 0 0 .41 2.24 1.1 1.1 0 0 0 0 .77c1.69 5.78 6.36 9.46 12.15 10.62a21.35 21.35 0 0 0 8 .07 25.64 25.64 0 0 0 5.63-1.51c.43-.3 3.62-2.33.61-2.62Z" style="fill:#ea8673"/><path class="cls-18" d="M75.81 201c-4.36-1.13-1.07 5.18 1.23 4.49a1.46 1.46 0 0 0 1.19-1.7 3.8 3.8 0 0 0-2.42-2.79Z"/><path class="cls-3" d="M175.4 145.37q-2.91-2-5.87-3.84c8.56 5.44 16.22 19.42 17.89 32.77 5.49 44.08-21.37 56.43-25 58.53a17.81 17.81 0 0 1 .82 10.84c38.16-2.55 45.23-60 26.71-84.54a60.69 60.69 0 0 0-14.55-13.76Z"/><path class="cls-8" d="M135.75 258.63c-18.66-3.33-33.67 28-33.67 28s-15.67-4-21.66-6.33S95 254.07 95 254.07c-10.78.11-23.22 30.55-23.22 30.55l15.33 70 40 6 30.33-18.33c-15.67 4.67-43.66 5-43.66 5-20.03-71.29 21.97-88.66 21.97-88.66Z"/><path class="cls-3" d="M112.09 135.3c-8.33 6.33-11.27 12.45-11.27 12.45-6.26 30.77 18.47 42.25 18.47 42.25-32.2-30.7-7.2-54.7-7.2-54.7ZM135.68 192.28h.08Z"/><path class="cls-3" d="M117.42 170s-10.31 16.3 18.25 22.32c-1.28-.32-19.86-4.98-18.25-22.32Z"/><path class="cls-11" d="M106.08 292.29s-25.78-8-33.77-11.56c0 0-8.89 17.78-5.78 66.22a99.4 99.4 0 0 0 42.66 3.11s-9.33-38.66-3.11-57.77Z"/><path class="cls-22" d="m108.31 291.85-36-9.78 2 .68 31.79 10.88c-7.56 23.55 3.11 57.78 3.11 57.77h2.67c-12.88-41.78-3.57-59.55-3.57-59.55Z"/><path class="cls-12" d="M71 301.62s-4.45 30.22-.89 36.44 24.39 9.61 26.22 4.89c4.22-10.89-1.78-36.44-1.78-36.44Z"/><path class="cls-22" d="M91.42 345.18s15.55 4.44 3.11-38.66c0-.01 7.11 39.1-3.11 38.66ZM75.15 307.2l-3.33-.67c-.84-.17-1.2 1.12-.35 1.29l3.33.67c.84.16 1.2-1.12.35-1.29ZM81.2 308.29a17.45 17.45 0 0 1-3.16-.42c-.84-.17-1.2 1.12-.35 1.29a19.56 19.56 0 0 0 3.51.47.67.67 0 0 0 0-1.34ZM87.2 309.62a12.6 12.6 0 0 1-2.71-.64.67.67 0 0 0-.35 1.29 14.08 14.08 0 0 0 3.07.69c.85.04.84-1.31-.01-1.34Z"/><path class="cls-22" d="M94.2 311.49a7.91 7.91 0 0 0-3.89-1.2.67.67 0 0 0 0 1.33 6.5 6.5 0 0 1 3.22 1 .67.67 0 0 0 .67-1.13Z"/><path class="cls-23" d="m90.42 294.62 12.66 4.38s7.67-40 38-39.33l-13-4.33S97.75 253 90.42 294.62Z"/><path style="fill:#ffbd99" d="m166.07 408.28 30.67.45 1.78-16.44-28.89-6.67-3.56 22.66z"/><path class="cls-22" d="M103.08 299h2c6.92-39.94 32.82-39.52 35.73-39.35-31.09-2.77-37.73 39.35-37.73 39.35ZM140.81 259.61h.27Z"/><path class="cls-23" d="M67.75 288.62h6.33s8.79-31.11 20.92-34.55l-5.22-1.78s-11.36 0-22.03 36.33Z"/><path class="cls-11" d="M154.41 370c12-20 3-27.66 3-27.66-37.66 14-90.88 4.66-90.88 4.66-.89 43 13.55 74.66 13.55 74.66l26-2.66 3.33-23.67c22 13.67 51 15.67 51 15.67 7.33-12.33 5.67-28.66 5.67-28.66-9-1.34-11.67-12.34-11.67-12.34Z"/><path d="M66.42 345s1.33 47.66 13.66 76.66l26-2.66 3.33-23.67S73.42 384.28 66.42 345Z" style="fill:#15a4bc"/><path class="cls-23" d="M161.41 379.29c-3 20.66-10 31.66-10 31.66l15.33 3c9.67-17 4.33-30.33 4.33-30.33Z"/><path class="cls-8" d="M142.41 306.29s.33-8.67 2.33-13.67h-18.32a47.23 47.23 0 0 0 15.99 13.67Z"/><path class="cls-14" d="M189.08 244c-12 10.67-31 16.33-31 16.33-6.67 9.67 3.67 23.67 3.67 23.67 18.33-6.66 38-30 38-30-3.67-1-10.67-10-10.67-10Z"/><path class="cls-11" d="m76.08 415.28 2.67 15.33 29-2.66-.33-14.33c-11.34 1.99-31.34 1.66-31.34 1.66Z"/><path d="M162.41 255s-6 .33-26.66 3.67-18 29.33-9.33 34 39-3.67 39-3.67c-13.67-20.71-3.01-34-3.01-34Z" style="fill:#ff2261"/><path class="cls-15" d="M212.14 231a8.71 8.71 0 0 0-4.07-4.08c-3.6-1.72-12.89-1.4-16.09 1-3 2.25-3 4.05-3.5 7.35-.33 2.25-1.72 5.67.9 7.48-2.15 2.7 1.45 8.36 3.93 10.35s8.68 2.25 11.77 1.25c7.11-2.29 9.29-12.38 8.41-18.75a14.83 14.83 0 0 0-1.35-4.6Z"/><path class="cls-27" d="M21.2 333.17s27.55 14.22 52 20c0 0 .89-14.67 4.89-15.55L29.2 319.84s-14.2.45-8 13.33Z"/><path class="cls-17" d="M75.65 168.93c-3.3-2-6.88-1.8-10.23 0-1.51.81-.17 3.11 1.35 2.3a7.08 7.08 0 0 1 7.54 0c1.46.9 2.8-1.4 1.34-2.3Z"/><path d="M37.2 321.17c-8.17 6-8 17.33-2.22 21.33s9.78 4.89 12.89 4c0 0-1.78-12.89 7.55-17.78 0 .01-11.55-12.43-18.22-7.55Z" style="fill:#f5818e"/><path class="cls-29" d="M60.74 515.83c-4.67.54-1.54 10.72.11 13.33a17.13 17.13 0 0 0 11.42 7.58c11.4 1.78 23.1-9.83 20.91-20.46Z"/><path d="M42 321.58c-2.77-.3-5.18.42-5.64 2.8-.6 3.1 2.69 4.32 4.8 5.23 2.63 1.14 10.4 4 10.5-1.31.09-3.17-5.23-6.24-9.66-6.72Z" style="fill:#ffb0bb"/><path class="cls-29" d="m183.4 506.5-23.56 4c-4.24 9.42-1.06 21.57 11.56 22.67 6.08.53 10.68-2.45 12.79-8.34a29.19 29.19 0 0 0 1.43-12.43c-.17-1.75-.92-7.07-2.22-5.9Z"/><path class="cls-9" d="M170 504.09c-28.69 3.7-57.27 4.63-86.09 4.26-11.65-.15-26.92-2.4-34.78-12-5.06-6.15-6.2-14.21-7.72-21.77-4.43-22.06-4.91-44-3.06-66.47a490.36 490.36 0 0 1 9.54-61.64l-12.89-4c-4.39 17.89-8.21 36.7-10 55.05-2.15 22.72-5.61 45.95-1.19 68.62 2.68 13.77 2.77 27.41 13.09 38.25 11.14 11.7 28.43 14.7 43.88 15.17 10.09.31 20.13-.58 30.18-1.35 9.34-.71 18.67-1.69 28-2.86 80.88-10.22 83.55-8.44 79.55-17.77-16.12 2.59-32.34 4.42-48.51 6.51Z"/><path class="cls-27" d="M60.74 517.6c36 12.89 156-12.88 156-12.88-130.22 20.89-156 12.88-156 12.88Z"/><path class="cls-31" d="M98.13 512.6c-10.89-2.76-23.54 7.08-23.93 18.73-.79 23.4 34.79 24.74 38.4 3 1.9-11.53-5.6-19.48-14.47-21.73Z"/><path class="cls-32" d="M102.6 512.6c-9.89-2.76-21.38 7.08-21.73 18.73-.72 23.4 31.6 24.74 34.87 3 1.73-11.53-5.09-19.48-13.14-21.73Z"/><path class="cls-9" d="m101.63 539-.89-15.56c-13.64-1.56-13.33 18.66.89 15.56Z"/><path class="cls-7" d="M99.49 523.77c-5.53.12-7.48 7.23-6.2 10.94 1.66 4.82 8.5 6.07 11.49 1.6 2.47-3.69 1.34-12.69-5.29-12.54Z"/><path class="cls-33" d="M104.81 528.07c-2.46-4.62-9.3-.11-6.09 3.81 2.61 3.19 8 .13 6.16-3.66Z"/><path class="cls-31" d="M191.46 505.49c-10.89-2.76-23.54 7.08-23.93 18.73-.79 23.4 34.79 24.74 38.4 3 1.9-11.53-5.61-19.48-14.47-21.73Z"/><path class="cls-32" d="M195.93 505.49c-9.89-2.76-21.38 7.08-21.74 18.73-.72 23.4 31.59 24.74 34.87 3 1.73-11.53-5.06-19.48-13.13-21.73Z"/><path class="cls-9" d="m195 531.88-.89-15.56c-13.68-1.54-13.37 18.68.89 15.56Z"/><path class="cls-7" d="M192.82 516.66c-5.53.12-7.48 7.23-6.2 10.94 1.66 4.83 8.51 6.08 11.49 1.61 2.47-3.7 1.34-12.69-5.29-12.55Z"/><path class="cls-33" d="M195 518.93c-3.75-1.07-5.64 3.45-2.84 5.83 4.44 3.8 8.16-4.3 2.84-5.83Z"/><path class="cls-7" d="M97.84 343.36a62.73 62.73 0 0 0-12.52-5.54c-5.16-1.37-10.7-2.56-14.17 1.16-2.44 2.62-4.43 11.94-2.21 15 3 4.13 13 6.4 17.16 8.05 5.31 2.1 10.33 2 12.84-1.37 4.39-5.9 5.12-13.08-1.1-17.3Z"/><path d="M100.28 346.46c-4.7-6.87-14.23 10.1-7.65 15.72 5.46 4.66 10.94-9.86 8-15.19l-.35-.53Z" style="fill:#fcc5ce"/><path class="cls-9" d="M95.71 355.48c2.94 10.19 4.77 22.29 12.06 30.34l3.22-2.31c-7.16-7.45-8.68-19.58-11.43-29.1-.71-2.46-4.56-1.41-3.85 1.07Z"/><path class="cls-10" d="M95.41 353.62 95 355.4s21.33 6.67 23.55 32l4-1.78s-1.36-27.11-27.14-32Z"/><path d="M140 366.24c-14.77-.74-27.7-14.9-43.24-15.06-2.58 0-2.58 4 0 4 16.3.16 28.31 13.9 43.38 14.84v-.35c-.07-.52-.08-2-.14-3.43Z" style="fill:#fc95a9"/><path class="cls-4" d="M28.31 318.06c-1.36 0-6.44 7.43-6.56 8.66-.61 6.54 6.48 3.48 8.9.33s5.11-4.57 7.84-7.1c-3.17-2.24-6.41-1.89-10.18-1.89Z"/><path class="cls-36" d="M86.12 460.09c-1 1.6 3.2 10.76 3.58 10.78 4.28.22 7.57 2.75 11.51 4.4 3.7 1.55 5.91 7.92 7.53 3.23 1.94-5.63 3.26-13.63-1.22-18.36-.61-.64-18.52-4.75-21.4-.05ZM189.27 389.61c-1.81 1.68-1.33 12-1.85 14.67-1 5.17-1.66 9.42 5 8.55 2.77-.36 13.36-.95 14.12-3.22l-3.54-19.1c-2.13-.66-12.2-2.31-13.73-.9Z"/><path class="cls-10" d="M89.19 470.5s4 7.11-8.89 9.33-12 16-4.89 20.44 34.22-4.89 34.22-4.89c2.67-3.56 1.33-13.33 1.33-13.33-.88-15.55-21.77-11.55-21.77-11.55Z"/><path class="cls-36" d="M89.19 475.39a8.18 8.18 0 0 1-6.19 3.55s8.89 12.45 16 5.33c8.33-8.36-9.81-8.88-9.81-8.88Z"/><path class="cls-10" d="M215 384.29c-3.16-.06-11.35 3.1-13.52 6.08 3.33 5.52 3.74 20.57 3.74 20.58.69 2.06 11.33 14.59 15.65 15.13 5.63.7 13.84-1.63 15.08-8s-7.06-14.38-10-19.43c-2.47-4.31-5.61-14.25-10.95-14.36Z"/><path class="cls-36" d="M219 407c-7.56-6.67-11.56 7.56-11.56 7.56l5.33 6.22s12.12-8.59 6.23-13.78Z"/><path class="cls-22" d="M116.24 352.31a15.93 15.93 0 0 1-4.49.31.67.67 0 0 0 0 1.34 17.21 17.21 0 0 0 4.84-.36.67.67 0 0 0-.35-1.29ZM124.57 352a20.05 20.05 0 0 1-4.49.31.67.67 0 0 0 0 1.33 21.65 21.65 0 0 0 4.84-.36c.84-.21.49-1.49-.35-1.28ZM133.24 351a24 24 0 0 1-4.49.31.67.67 0 0 0 0 1.33 25.84 25.84 0 0 0 4.84-.36c.84-.18.49-1.46-.35-1.28ZM141.74 349.38a10.34 10.34 0 0 1-4.33.91.67.67 0 0 0 0 1.33 11.88 11.88 0 0 0 5-1.09c.78-.37.1-1.53-.67-1.15ZM148.74 347.38a5.46 5.46 0 0 1-3 .91.67.67 0 0 0 0 1.33 6.76 6.76 0 0 0 3.67-1.09c.72-.46.06-1.62-.67-1.15ZM154.94 344.82a4.08 4.08 0 0 1-2.53 1.14c-.86 0-.86 1.37 0 1.33a5.51 5.51 0 0 0 3.47-1.53c.63-.59-.32-1.53-.94-.94ZM82.41 418.28h-4a.67.67 0 0 0 0 1.33h4a.67.67 0 0 0 0-1.33ZM88.75 418.28h-2.67a.67.67 0 0 0 0 1.33h2.67a.67.67 0 0 0 0-1.33ZM95.08 418.28h-2.67a.67.67 0 0 0 0 1.33h2.67a.67.67 0 0 0 0-1.33ZM100.75 417.95h-2.67a.67.67 0 0 0 0 1.33h2.67a.67.67 0 0 0 0-1.33ZM106.08 417.95h-2.67a.67.67 0 0 0 0 1.33h2.67a.67.67 0 0 0 0-1.33ZM162.41 383.29a9.41 9.41 0 0 1-.31 2.82c-.25.82 1 1.17 1.29.35a10.73 10.73 0 0 0 .36-3.18.67.67 0 0 0-1.34.01ZM161.1 389.11c-.36 1.1-.64 2.23-1 3.33-.27.82 1 1.17 1.28.35.36-1.1.64-2.23 1-3.33.27-.82-1.01-1.17-1.28-.35ZM159.1 396.11c-.39 1.13-.94 2.2-1.34 3.33-.28.82 1 1.16 1.29.36.39-1.13.94-2.2 1.34-3.33.28-.82-1.01-1.17-1.29-.36ZM156.83 402.62c-.33.75-.34 1.59-.67 2.33s.8 1.46 1.15.67.34-1.59.67-2.33-.8-1.46-1.15-.67Z"/><path d="M237.53 106.49a36.16 36.16 0 0 0 15 11.82c10.47 4.22 7.85-.55 10-9.11l-12.45-6.2c-4.08.55-9.64.12-12.55 3.49Z" style="fill:#ff6687"/><path class="cls-22" d="M154.77 408.44a14.53 14.53 0 0 1-1.6 3.17c-.47.72.68 1.39 1.15.67a15.83 15.83 0 0 0 1.73-3.49c.28-.79-1.05-1.16-1.28-.35Z"/><path d="M419 20.51C397.34-11.28 343.57-4 322.83 28c-11.43 17.66-12.5 42.94 1.17 59.82 18.17 22.39 57 26 79 9.18 17.65-13.5 29-40.21 22.59-62.17A50.15 50.15 0 0 0 419 20.51Z" style="fill:#a1e1d8"/><path d="M419 20.51C397.34-11.28 343.57-4 322.83 28a55.77 55.77 0 0 0-8.27 37.81 42.87 42.87 0 0 0 5.44 8.67c18.17 22.39 57 26 79 9.18 16.06-12.28 26.86-35.5 23.88-56.11a47.72 47.72 0 0 0-3.88-7.04Z" style="fill:#72d5d0"/><path class="cls-18" d="M376 7.27c-5.18-4.59-18.49.55-14.37 8.12 4.3 7.94 23.15-.32 14.37-8.12Z"/><path d="M318.65 12.56A50.16 50.16 0 0 0 305 4.62C269.07-9 229.14 27.69 230.5 65.84c.75 21 14.35 42.37 35.24 48.35 27.72 7.94 61.61-11.31 70-37.74 6.75-21.18.7-49.55-17.09-63.89Z" style="fill:#ffa8be"/><path d="M305 4.62C269.07-9 229.14 27.69 230.5 65.84a55.77 55.77 0 0 0 14.88 35.72 42.81 42.81 0 0 0 9.45 4c27.72 7.94 61.61-11.31 70-37.74 6.13-19.27 1.67-44.48-12.57-59.67A47.86 47.86 0 0 0 305 4.62Z" style="fill:#ff8096"/><path class="cls-18" d="M262.18 18.41c-6.88-.79-14.84 11-7.13 14.89 8.1 4.03 18.81-13.54 7.13-14.89Z"/><path d="M322.83 28c-11.43 17.66-12.5 42.94 1.17 59.82a46.11 46.11 0 0 0 3.55 3.88 49.37 49.37 0 0 0 8.18-15.25c5.47-17.22 2.5-39.18-8.35-54.51a54.56 54.56 0 0 0-4.55 6.06Z" style="opacity:.2;fill:#a1e1d8"/><path d="M419 99.61c-21.63-31.78-75.4-24.56-96.14 7.49-11.47 17.67-12.54 42.9 1.14 59.82 18.17 22.39 57 26 79 9.18 17.65-13.5 29-40.21 22.59-62.17A50.17 50.17 0 0 0 419 99.61Z" style="fill:#ffdf99"/><path d="M419 99.61c-21.63-31.78-75.4-24.56-96.14 7.49a55.78 55.78 0 0 0-8.27 37.81 43 43 0 0 0 5.46 8.69c18.18 22.39 57 26 79 9.18 16.06-12.28 26.86-35.5 23.88-56.11a47.68 47.68 0 0 0-3.93-7.06Z" style="fill:#ffcd52"/><path d="M332.48 95.88C352.44 110.8 384 111.55 403 97a56.38 56.38 0 0 0 7.34-6.76c-21.23-17.41-56.53-13.49-77.86 5.64Z" style="opacity:.2;fill:#72d5d0"/><path class="cls-18" d="M376 86.38c-5.18-4.59-18.49.55-14.37 8.12 4.3 7.94 23.14-.33 14.37-8.12Z"/></g></g></svg>