<svg id="Слой_1" data-name="Слой 1" xmlns="http://www.w3.org/2000/svg" viewBox="0 0 725.58 595.28"><defs><style>.cls-1{fill:#44b6a0}.cls-2{fill:#248875}.cls-3{fill:#848a8c}.cls-4{fill:#2ea08b}.cls-5{fill:#5f696c}.cls-6{fill:#f5bea4}.cls-7{fill:#fff}.cls-8{fill:#6c4430}.cls-9{fill:#db681c}.cls-11{fill:#bee3ee}.cls-12{fill:#f18434}.cls-13{fill:#d8eef6}.cls-14{fill:#d98570}.cls-15{fill:#f5a68d}</style></defs><path class="cls-1" d="M608.23 77.85c-1.55 3.13-6 .7-7.82-1.38-4-4.6-2.65-11-.71-16.1 5.17-13.47 14 3.41 15.49 9.51-7.6-17 11.24-36.12 13.74-10.8-.5-5 3-18.17 9.44-18.94 9.38-1.12 5.89 17.88 5.86 24.44.05-12.62 29.44-24.44 15.87 7.58 14.56-5.58 25.49 4.6 8 12.73 9.52.43 15.72 10.71 3.11 11.92 6.46-.62 12.87 4.82 7.91 10.7s-18.35 2.94-25 2.94Z"/><path class="cls-2" d="m494.45 380.57 8.77 131.33h33.63l15.12-104.78-57.52-26.55z"/><path class="cls-2" d="M546.22 398.55c-2.1 12.61 24 113.34 24 113.34h31.2L606 395.46Z"/><path class="cls-3" d="M489.08 345.07c-31.25 14.61-3 50.87 17 58.3 28.94 10.78 69.64 11.66 97.74-2.52 16.26-8.2 38.65-40.5 15.94-55.86-4.44-3-10.67-1.84-14.48-4.82-5.46-4.27-30.95.78-38.69 1-19.88-.02-56.91-5.73-77.51 3.9Z"/><path class="cls-4" d="M629.4 84c-77.23-35-103.25 25-103.25 25l136.92 79.2S698.64 115.31 629.4 84Z"/><path class="cls-3" d="M535.6 232.27c-23-39.06-100.56 16.76-102 51.44-.8 19.34 13.8 40.88 35.6 39.11 13.85-1.12 30.36-5.91 42-13.7 18.68-12.48 36.14-49.81 26.49-72.62a35.88 35.88 0 0 0-2.09-4.23Z"/><path class="cls-5" d="M605.26 237.64c27.8 31.76 41.62 85.43 25.44 117-17.3 33.74-70 39.22-102.88 31.88-39.66-8.86-63-48.29-61.41-86.45 2-46.61 45.95-92.48 94.75-87.92 16.53 1.52 31.71 11.33 44.1 25.49Z"/><path class="cls-6" d="M627.13 239.09c24.56-12.64 33.58-43 24.76-68.26C631.25 111.66 544 83.09 504 139.57c-20.3 28.67-13.21 68 12.82 89.5 27.18 22.48 78.76 26.26 110.31 10.02Z"/><path class="cls-7" d="M523.62 149.71c-4.79 2-9.37 9.39-2.82 15.17 4.35 3.84 12.8 7.08 18.75 5.78 6.39-1.4 6.88-12.57 4.16-16.26-4.52-6.13-14.37-7.11-20.09-4.69ZM603 192.3a9.14 9.14 0 0 1-12.2 9.83c-5.56-1.69-12.8-7.13-14.8-12.93-2.16-6.17 7.86-11.93 12.42-11.55 7.58.63 13.63 8.5 14.58 14.65Z"/><path class="cls-8" d="M591.93 192.08a12.81 12.81 0 0 1-5 8.39c-4.63-2.49-9.33-6.8-10.9-11.28-1.1-3.14.95-6.16 3.83-8.33l.52-.05c6.02-.46 12.46 3.19 11.55 11.27ZM531.26 157.16a10.75 10.75 0 0 1 3.49 8.24 12.07 12.07 0 0 1-1.19 5.28 27.28 27.28 0 0 1-12.76-5.8c-3-2.66-3.67-5.65-3-8.31a13.84 13.84 0 0 1 4.69-1.22c3.19-.26 6.29-.35 8.77 1.81Z"/><path class="cls-9" d="M541.88 212.41c7.23 6.87 17.08 8.45 24.69 1.26 2-1.85 4.93 1.11 3 3-9.3 8.77-21.71 7.22-30.62-1.26-1.95-1.91.97-4.87 2.93-3Z"/><path d="M539.49 286.88c32.55 22 2.19 75.06-34.8 51.44-38.37-24.51 1.42-74 34.8-51.44Z" style="fill:#cae8f1"/><path class="cls-3" d="M571.69 342.77c2.83-9.7 8.94-20.11 16-28.76 9.38-11.46-.6-28.82-.6-42.73 0-18.34 1.51-28.25 22.23-26.68 14.59 1.11 19.57 10.24 27.23 22.11 15.5 24 22.73 61.06 6.64 86.52-15.72 24.91-84.81 35.13-71.5-10.46Z"/><path class="cls-11" d="M597 303.88c18.41 15.76 15.82 47.42-8.62 56.21-27.12 9.75-54.72-28.57-36.06-51.63 9.89-12.19 32.68-14.86 44.68-4.58ZM488.66 266.27c32.34 24.93-3.81 66-36.35 55.44-49.64-16.17-.2-83.6 36.35-55.44Z"/><path class="cls-12" d="M526 337.53c10.59-17.25 30.22-.47 43.78 11.84 13 11.79.63 16.13-10.63 17-8.33.63-50.15-1.28-33.15-28.84ZM503.12 330.18C505 310 479.25 311.65 461 313.33c-17.46 1.61-10.2 12.51-1.71 20 6.26 5.45 40.78 29.04 43.83-3.15Z"/><path class="cls-13" d="M572.57 252.06c32.55 22 2.19 75.06-34.8 51.44-38.37-24.5 1.42-74 34.8-51.44Z"/><path class="cls-8" d="m628.39 180.77 4 55.18a115 115 0 0 0 18.48-23.15ZM509.64 131.21c-16.09 10.38-15.18 28.51-15.18 28.51l27.5-30Z"/><path class="cls-13" d="M516.83 240.75c27.16 18.38 1.82 62.62-29 42.92-32.04-20.46 1.17-61.75 29-42.92Z"/><path class="cls-14" d="M551.55 183.13c-4.81-2.49-11.14-2.75-13.91 2.77-2.61 5.2.4 10.85 4.75 13.91 2.35 1.65 4.57-2.2 2.24-3.84s-4.41-4.85-3.16-7.83c1.41-3.33 5.25-2.51 7.83-1.18s4.8-2.51 2.25-3.83Z"/><path class="cls-1" d="M509.64 131.21s87.47-1.31 141.2 81.59l17.89-22.66s-24.43-96.06-142.58-89.07Z"/><path class="cls-8" d="M541.67 136.69c-6.09-3.3-13.16-2.32-19 1-2.5 1.41-.26 5.25 2.24 3.84 4.45-2.51 9.88-3.52 14.55-1 2.54 1.36 4.74-2.47 2.21-3.84ZM613.83 185.45c-1.09-5.9-3.69-12-8.48-15.8-2.22-1.77-5.38 1.35-3.14 3.14 4.26 3.41 6.37 8.59 7.33 13.84.52 2.81 4.81 1.62 4.29-1.18Z"/><path class="cls-5" d="M540.17 488.26h-45.72L501.3 518s-25.7.41-24.6 15 60.14 10.42 60.14 10.42ZM605.45 494.19h-45.72l6.85 29.71s-25.7.41-24.6 15 60.14 10.42 60.14 10.42Z"/><path class="cls-9" d="M565.73 112.26 557.21 127s34.36 12.1 44.17 21.48l12.49-18.76ZM56.39 113c-14 10.14-24.25-4.74-24.09-18.1.24-19.4 23.15-34.26 41.07-22.57 4.51 2.9 14.75 21.53 6.44 23.67Z"/><path class="cls-5" d="M199.65 393.51c17.86 27.06-50.81 136.71-54.83 138.54-2.58 1.18-21-8.83-25.18-8.91-1.81-3.69 9.69-111.84 47.07-143.33 7.88-6.64 17.64 1 25.75 6.49a25.7 25.7 0 0 1 7.19 7.21Z"/><path class="cls-3" d="M165.5 405.59c1.21 27.38 69.07 107 90.2 121.35.26.18 19.06-15.93 20.3-17.5 2.75-3.48-49.71-118.82-70.51-116.6-13.63 1.45-27.41 7.53-40 12.55l.01.2Z"/><path class="cls-4" d="M138.89 276.79c-28.78 32.88-43.09 88.44-26.34 121.1 17.91 34.93 72.48 40.6 106.51 33 41.06-9.17 65.25-50 63.57-89.49-2.05-48.25-47.56-95.74-98.08-91-17.12 1.6-32.83 11.73-45.66 26.39Z"/><path class="cls-1" d="M295.84 247c3-1.51.13-3.92 0-6.44-1.43-23.45 39.82-16 49.8-5.6 8.91 9.3 14.3 20.66 12.72 34.19-.55 4.71-2 10.07-6.22 13.31-4.7 3.64-11.37 2.28-17.43 2.28h.19ZM166.93 292c-14.1-17.52-37.72 25.07-41 37.22-7.4 27.72-2.37 54.38 27.07 66.89 41 17.42 60.64-34 54.31-42.87-7.2-10.13-15.31-11.09-26.31-12.69-16.69-2.43-6.86-36.44-12.24-45.82a20.59 20.59 0 0 0-1.83-2.73Z"/><path class="cls-2" d="M120.62 313.56c-25 7.83-56.39 4.28-61.78-26.09-6.61-37.3 32.44-53.47 62.59-53.47 30.84 0 70.39-1.47 80.15 35.72 6.57 25-14.8 33.2-35.57 33.55-16.26.25-30.74 5.73-45.39 10.29Z"/><path class="cls-12" d="M198.24 135.08c-4.32.67-14.19-12.43-17.87-15.94-6.62-6.32-13-13.35-20.88-18.25-18.12-11.32-37.08-20.4-58.55-20.47-51.66-.16-72.69 62-40.35 97.89 7.24 8 12 15.88 16.66 25.73 1.54 3.27 8.46 15.22 5.18 18.22Z"/><path class="cls-15" d="M95.43 250.9c-28.55 0-30.74 30.64 0 27.32 6-.65 13.85-6.11 19.52-5.2ZM236.26 168.77c17.08-22.89 42.95-6.26 21.88 16.37-4.12 4.42-13.19 7.43-15.86 12.52Z"/><path class="cls-6" d="M116.26 278.28c-25.42-13.08-34.76-44.5-25.64-70.66 21.37-61.25 111.71-90.82 153.13-32.35 21 29.68 13.67 70.34-13.28 92.65-28.11 23.27-81.55 27.18-114.21 10.36Z"/><path class="cls-9" d="M96.64 203.36c-3.68-21.39-20-38.21-31.15-56-6.33-10.16-10.68-20.83-10.66-33a42.89 42.89 0 0 1 1.87-12.16 58.05 58.05 0 0 0-7 12.63c0 9.9 2.76 19.41 7.38 28.28 10.74 20.64 30.49 38 34.57 61.65.54 3.24 5.55 1.88 4.99-1.4ZM94.22 128.61c13.11 14.73 20.59 33.51 33.21 48.65 2.15 2.58 5.81-1.12 3.68-3.68-12.32-14.79-19.94-32.82-32.3-47.6-6.81-8.17-15.52-14.78-23.88-21.29-4.06-3.16-8.16-6.25-12.25-9.36q-1.82 1.76-3.46 3.67c12.34 9.14 24.87 18.23 35 29.61ZM126.78 104.07c-11.48-8.14-24.29-14-38.29-16a86.26 86.26 0 0 0-15.19-.73 51.89 51.89 0 0 0-8.3 5.83 97.53 97.53 0 0 1 25.23.42c13.69 2.25 25.94 9.07 37 17.2 17.1 12.61 31.32 28.7 48.35 41.33l4.31-3.25c-18.8-13.49-34.18-31.37-53.11-44.8Z"/><path class="cls-8" d="M225.81 173.12c-.58-.2-1.18-.36-1.78-.51a37.4 37.4 0 0 0 14.11-4.4c-43.46-48.8-127.07-19.21-147.52 39.41a61.82 61.82 0 0 0 1.81 45.17 94 94 0 0 1 5.38-8.5c9.31-12.33 22.5-20.42 35.61-28.52-.62.73-1.21 1.45-1.76 2.15-1.61 2 1.24 4.93 2.87 2.87 4.69-5.9 14.17-17.3 22.83-13.23 2.36 1.11 4.42-2.4 2.05-3.51a13.22 13.22 0 0 0-6.49-1.26c7.11-5.46 13.49-11.69 18.31-19.56 2.57-4.2 5.17-9.58 5.87-14.31.45-3 20.47 2 36 3.49a42.62 42.62 0 0 0-9.17 2.54c-2.4 1-1.35 4.9 1.08 3.92 5.86-2.35 13.55-3.94 19.7-1.81 2.5.85 3.56-3.06 1.1-3.94Z"/><path d="M92.44 252.79s-16.53-50 47.24-87.78 98.33 3.05 98.46 3.2c-30.79-36.25-70.53-58-116.44-32.43-32.6 18.16-57 58.14-43.44 95.65 3.1 8.63 7.93 14.89 14.18 21.36Z" style="fill:#f6a64e"/><path class="cls-11" d="M210.68 371.7c-21.36-24.41-26.19-62.14-8.3-92.44C224 242.67 266.26 219.11 307.6 234c57.9 20.82 69.13 66.54 51.72 108.27-22.32 53.47-108.81 74.94-148.64 29.43Z"/><path class="cls-7" d="M223.41 185.76c5 2.1 9.7 9.73 2.92 15.7-4.51 4-13.25 7.33-19.41 6-6.62-1.45-7.12-13-4.31-16.83 4.68-6.36 14.88-7.37 20.8-4.87ZM141.24 229.85A9.46 9.46 0 0 0 153.87 240c5.75-1.75 13.19-7.43 15.28-13.39 2.24-6.39-8.13-12.35-12.86-12-7.86.73-14.08 8.88-15.05 15.24Z"/><path class="cls-8" d="M152.69 229.63a13.26 13.26 0 0 0 5.17 8.69c4.79-2.58 9.66-7 11.29-11.67 1.14-3.25-1-6.38-4-8.63l-.53-.05c-6.2-.49-12.87 3.25-11.93 11.66ZM215.5 193.47a11.13 11.13 0 0 0-3.62 8.53 12.51 12.51 0 0 0 1.23 5.47 28.23 28.23 0 0 0 13.21-6c3.12-2.75 3.8-5.85 3.14-8.6a14.32 14.32 0 0 0-4.86-1.27c-3.32-.27-6.54-.32-9.1 1.87Z"/><path class="cls-14" d="M214.64 220.39a2.18 2.18 0 0 0-2.67-1.51 25.28 25.28 0 0 1-23.92-5.95C186 211 183 214.06 185 216a29.63 29.63 0 0 0 25.73 7.58c.17 3-.85 5.26-2.65 8-1.54 2.35 2.22 4.52 3.74 2.19 2.87-4.38 3.93-8.2 2.82-13.38Z"/><path class="cls-9" d="M204.51 250.66c-7.48 7.12-17.68 8.74-25.56 1.3-2-1.92-5.11 1.14-3.07 3.07 9.62 9.08 22.47 7.48 31.7-1.3 2.03-1.93-1.04-4.99-3.07-3.07Z"/><path class="cls-12" d="M206 340.87c8.11-4.21 19.23-19.07 29.68-10.44 11.22 9.27 1.33 27-5.95 33.68-8.52 7.86-23 13.12-35.33 7.43-29-13.41 8.36-50.55 14.39-45.54 4.7 3.93-.72 11.25-2.79 14.87ZM333.61 258.38c11.87 8.14 15.86-5.3 10.71-14.56-3.56-6.39-27.09-19.76-31.84-7.45-3.25 8.43 16.02 18.49 21.13 22.01Z"/><path class="cls-9" d="m114.08 504.22-9.54 40.34s17.47 26 60.07 21c0 0-15.57-8-12.88-21l7.68-26ZM238.83 524.39l20.58 36s30.54 7.09 58.24-25.66c0 0-16.85 4.78-23.77-6.56l-12.16-24.27Z"/></svg>