<svg xmlns="http://www.w3.org/2000/svg" width="859" height="703" viewBox="0 0 644 527"><g style="isolation:isolate"><path d="M584 211c1 2 9 4 18-3 7-5-11-5-11-5z" fill="#fab188"/><path d="M498 138c30 63 33 74 40 80 8 6 61-26 61-26" fill="none" stroke="#fab188" stroke-linecap="round" stroke-miterlimit="10" stroke-width="17"/><path d="M409 355c-27 32-27 32-51 27a254 254 0 0 1-52-17" fill="none" stroke="#fab188" stroke-linecap="round" stroke-miterlimit="10" stroke-width="23"/><path d="M426 278a7 7 0 0 0-7 8v38a6 6 0 0 0 7 5l68-2c7 0 18-23 18-42 0 0-4-7-8-7z" fill="#bf322f"/><path d="m408 331 1-1c14-14 10-14 10-51 0-13 43-16 56-15s25-14 24-1c-3 48-30 74-58 101l-1 1a23 23 0 0 1-32-34z" fill="#bf322f"/><path d="M493 285c0 5-1 15-8 23s-22-12-22-12l5-11z" fill="#d33b3a"/><path d="M419 280v5c1 14 2 19 19 33l9 7 10 10 13-20s26-5 13-18l-6-6a60 60 0 0 0-7-6c-8-5-14-6-21-5a63 63 0 0 1-13 1 173 173 0 0 1-17-1z" fill="#d33b3a"/><path d="M389 285h123V152c0-18-14-31-27-32h-38a50 50 0 0 0-11 2h-2c-11 3-13 12-13 28v72c0 40-32 63-32 63z" fill="#fee14e"/><g fill="#fab188"><path d="M446 120h30c2 1 26 4 26 28 0 12-10 13-17 13-11 0-22-6-23-16-3-16-7-21-11-23l-5-2z" stroke="#fff" stroke-miterlimit="10" stroke-width="5"/><path d="M449 120h-1 1z"/></g><path d="M516 348c-5 9-14 16-17 16-6 1-7 5-12 0l-8-8a7213 7213 0 0 1-32-30c-9-10-10-23-1-33a23 23 0 0 1 34 0 24 24 0 0 1 2 2 2305 2305 0 0 0 29 27l8 9c4 4 2 11-3 17z" fill="#d33b3a"/><path d="m516 348-11 2-6-10-34-31c-4-5 7-21 20-10a66 66 0 0 0 6 5l20 18 8 9c4 4 2 11-3 17z" fill="#ef403f"/><path d="M423 152v15c0 10 4 16 15 16 21 0 17-30 14-44-4-14-13-19-16-17-8 1-12 5-14 13-1 4 1 11 1 17z" fill="#fab188" stroke="#fff" stroke-miterlimit="10" stroke-width="5"/><path d="M421 150v39c22 0 19-62 19-62h-5c-10 3-14 7-14 23z" fill="#e6795d" style="mix-blend-mode:multiply"/><path d="M521 336c1 4-2 10-6 16l-3 3c-9 10-19 14-24 10-4-4 0-14 8-24l4-3c5-5 11-8 15-8a7 7 0 0 1 3 0 5 5 0 0 1 2 1 5 5 0 0 1 1 2 8 8 0 0 1 0 3z" fill="#ab2929"/><path d="M434 133c1-1-51 25-65 34-10 6 9 72 9 72" fill="none" stroke="#fab188" stroke-linecap="round" stroke-miterlimit="10" stroke-width="17"/><path d="m582 450-9-42c-3-20-5-26-7-29-2-7-13-17-45-46l-3-3a7 7 0 0 0-3 0c-4 0-10 3-15 8l-4 3 4 3 7 7 5 4c23 21 30 26 31 29s6 14 8 28l9 43a11 11 0 0 0 22-5z" fill="#fab188"/><path d="M389 285h77c-15 0-26-3-47-8l-7-2c-18-5-24 1-23 10z" fill="#eaa93f"/><path d="m558 446 5 29a12 12 0 0 0 11 10 11 11 0 0 0 2 0c6-1 13-5 12-11l-8-35z" fill="#f5eee4"/><path d="M560 481a101 101 0 0 0 3 14l1 4c2 4 3 7 5 7 1 1 69-25 72-26s4-4 3-9a11 11 0 0 0-1-1 8 8 0 0 0-2-3c-3-3-9-2-13-1l-3 1a22 22 0 0 1-6 1 21 21 0 0 1-4 0 30 30 0 0 1-4-2l-5-2h-2l-1-1a31 31 0 0 1-3-1 28 28 0 0 1-4-2h-1l-2-2c-3-2-4-4-8-5-5 0-12 2-13 7a6 6 0 0 0 0 1l1 8c1 2 1 5-1 6-4 4-7 1-9-3a27 27 0 0 1-1-6c-3 1-3 7-2 15z" fill="#da4747"/><path d="M639 466c-4-3-12 0-16 1-6 2-7 3-8 7l24-8zm-75 33c2 4 3 7 5 7 1 1 69-25 72-26s4-4 3-9a11 11 0 0 0-1-1l-79 29z" fill="#f8c0c2"/><path d="m586 465 9-2c-3 2-5 4-4 6s4 0 5 0l6-3a20 20 0 0 0-1 7 1 1 0 0 0 2 1 28 28 0 0 1 12-6 30 30 0 0 1-4-2 28 28 0 0 0-8 5 13 13 0 0 1 3-7h-2l-1-1-5 3-5 2a24 24 0 0 1 7-6 28 28 0 0 1-4-2l-8 2 7-2-2-2c-3 1-7 2-8 6a1 1 0 0 0 1 1z" fill="#fff"/><path d="M314 352v-1a97 97 0 0 0-12-5l-4-1c-4-1-7-2-8 0-2 0-18 65-19 68s1 6 6 7a10 10 0 0 0 1 0 8 8 0 0 0 3 0c5-1 7-6 8-10l1-2a21 21 0 0 1 3-6 20 20 0 0 1 2-2 29 29 0 0 1 3-3l5-3a76 76 0 0 0 2-2 30 30 0 0 1 3-1 27 27 0 0 1 3-2h1l3-1c3-1 5 1 7-2 3-3 5-10 2-13a5 5 0 0 0-1-1c-1-1 3 1 0 0-2-1 3-5 3-3 1 16-5-2-5-2 3 1-1-8-1-8 1-2 0-4-6-7z" fill="#da4747"/><path d="m336 365-7 21-6-2-4-1-8-3c-5-3 3-24 8-22a326 326 0 0 0 17 7z" fill="#f5eee4"/><path d="M298 345c-4-1-7-2-8 0-2 0-18 65-19 68s1 6 6 7a10 10 0 0 0 1 0l20-75z" fill="#f8c0c2"/><path d="M515 32v14c0 2-1 4-4 4-2 0-1-10-4-10h-25c-13 0-43 3-43 14V41l-1-3c0-10 31-13 44-13h25a14 14 0 0 1 4 1c2 0 4 2 4 6z" fill="#d2324c"/><path d="m513 46-1 4v11c0-11-30-14-43-14h-24c-4 0-3 10-5 10-3 0-3-1-3-3V39a9 9 0 0 1 0-3c1-2 3-3 5-3a20 20 0 0 1 3 0h30a138 138 0 0 1 20 2c5 1 10 2 13 4s5 4 5 7z" fill="#b01e3b"/><path d="M438 60c2 20 7 25 15 25 6 0 12-9 11-11s-2-14-4-15-22 1-22 1z" fill="#8f3b26"/><path d="M457 81c-1-3-2 6-2 5-1-18-15-5-16-24l-2-24c-1-16 7-31 43-30 19 1 22 5 26 15 8 17 2 40 2 40z" fill="#8f3b26"/><path d="M484 124s-1 7-12 7a19 19 0 0 1-16-9l7-31 29-1z" fill="#fab188"/><path d="M486 113c-1 4-23 1-28 8-1 3-1 0-2 1l9-38h28z" fill="#e6795d"/><path d="M511 74c0 6-5 21-9 25-1 2-3 7-8 8-5 2-7 3-8 6 0 2-4-4-6-4-22 0-32-23-32-39l6-20c0-18 12-30 29-30s30 12 30 29z" fill="#e6795d"/><path d="M513 48v7l-1 19c0 18-4 34-26 34s-28-21-28-44l1-15v-1c1-23 10-31 26-31 22 0 29 14 28 31z" fill="#fab188"/><path d="M493 78c4 0 6-2 6-4l-2-1a10 10 0 0 1-3 1 10 10 0 0 1-4-1l-3 1c0 2 3 4 6 4zm-34-15c0 6-3 12-8 12s-8-4-9-11 2-11 7-12 9 4 10 11z" fill="#e6795d"/><path d="M478 61a3 3 0 0 0 2 3 3 3 0 0 0 3-3 3 3 0 0 0-3-2 3 3 0 0 0-2 2zm24 1a3 3 0 0 0 3 3 3 3 0 0 0 3-3 3 3 0 0 0-3-3 3 3 0 0 0-3 3z" fill="#432c28"/><path fill="none" stroke="#8f3b26" stroke-linecap="round" stroke-miterlimit="10" stroke-width="4" d="M473 52h12m16 0 11 1"/><path d="M452 47a32 32 0 0 1 11-24c-3-4-4-10-4-11 1-1 20-6 37-2 14 3 15 12 13 17-2 4-6 7-10 7-15 0-15-9-27-8-4 0-11 3-11 15a168 168 0 0 1-2 25c-4 0-4-2-4-2 0-7-1-11-5-12z" fill="#8f3b26"/><path d="M513 33v15c0-6-3-7-8-7h-25a136 136 0 0 0-19 2c-12 2-23 5-23 12l-1-15c-1-7 12-10 25-12a151 151 0 0 1 18-1h25c5 0 8 0 8 6z" fill="#e6795d" style="mix-blend-mode:darken"/><path d="M498 88c-2 2-5 2-7 2l-8-2" fill="none" stroke="#e6795d" stroke-linecap="round" stroke-miterlimit="10" stroke-width="3"/><path d="M510 28c3-3 11-14 0-26 0 0-14 15-17 15s5 11 5 11z" fill="#8f3b26"/><path d="M505 28c2-3 8-18-5-28 0 0-11 14-32 8-2 0 25 23 25 23z" fill="#8f3b26"/><path d="M513 31v15c0-6-3-7-8-7h-25a136 136 0 0 0-19 2c-12 1-23 5-23 12l-1-15c-1-7 12-11 25-12a151 151 0 0 1 18-2h25c5 0 8 1 8 7z" fill="#d2324c"/><path d="M458 118c-18 0-24 3-27 5-7 3-10 8-10 8l4-2c14-8 28-8 33-4 0 0 1-7 9-8s3-8 2-8a20 20 0 0 0-3 2z" fill="#e6795d"/><path d="M318 356c2 1 2 1 2 3s-3 2-12-3-9-7-9-7z" fill="#da4747"/><path d="M323 377c0 3 6 9-4 6s-16-6-14-13 5-13 10-11 8 18 8 18z" fill="#f5eee4"/><path d="M419 277v12l47-4a578 578 0 0 1-47-8z" fill="#d33b3a"/><path d="M470 285a156 156 0 0 0-37 6c-7 2-13 5-14 8v-22l13 3 4 1a173 173 0 0 0 34 4z" fill="#ab2929"/><path fill="#bf322f" d="m491 299-17-10 16 14h6l-5-4z"/><path d="M457 245h55v-56l-50 9s1 47-5 47z" fill="#eaa93f"/><path d="M512 197s1 36 7 36h-49c-7 0-8-36-8-36z" fill="#f2e7e1"/><path fill="#21a2d6" d="M462 189h50v8h-50z"/><path d="M0 521c0-3 4-6 8-6h590c4 0 8 3 8 6s-4 6-8 6H8c-4 0-8-3-8-6z" fill="#8372a9" style="mix-blend-mode:multiply"/><path d="M493 345a44 44 0 0 0-3 4l-37-34-2-1-3-3c-6-5-13-10-15-20a34 34 0 0 1-1-8v-3l4 1v2a30 30 0 0 0 1 7c2 8 8 13 14 17l3 4 2 1 37 33z" fill="#fff"/><path d="M438 57c1 5-4 15-8 14 0 0 8 7 12 4l-2-13z" fill="#8f3b26"/><path d="M518 330c-6 5-9 13-11 21l-7-7-4-3 4-3c5-5 11-8 15-8a7 7 0 0 1 3 0z" fill="#e6795d"/><path d="M436 283v-2l-4-1v3a34 34 0 0 0 1 8l4-1a30 30 0 0 1-1-7z" fill="#f2e7e1"/><path d="M483 218h-3a2 2 0 0 1-1-1 1 1 0 0 1-1-1 3 3 0 0 1 0-1l2-7a3 3 0 0 1 0-1 1 1 0 0 1 1 0 2 2 0 0 1 2 1 6 6 0 0 1 0 2l1 5a1 1 0 0 1 1 0 2 2 0 0 1 1 1l-1 2v1a2 2 0 0 1 0 1 1 1 0 0 1-1 1l-1-2zm-1-3-1-5-1 5zm8-3a2 2 0 0 1 2 0 4 4 0 0 1 0 1 7 7 0 0 1 1 1 8 8 0 0 1 1 2 7 7 0 0 1 0 2 4 4 0 0 1-1 2 3 3 0 0 1 0 1 2 2 0 0 1-2 0 3 3 0 0 1-1 0 4 4 0 0 1-1-1 6 6 0 0 1-1-2 9 9 0 0 1-1-2 11 11 0 0 1 0-3 18 18 0 0 1 1-4 16 16 0 0 1 1-2l1-1a1 1 0 0 1 0 1 1 1 0 0 1 1 0 2 2 0 0 1 0 1 2 2 0 0 1 0 1l-1 2a14 14 0 0 0 0 1zm-1 4a3 3 0 0 0 1 2 1 1 0 0 0 1 0 1 1 0 0 0 1 0 2 2 0 0 0 0-2 3 3 0 0 0-1-1 1 1 0 0 0-1-1 1 1 0 0 0-1 1 2 2 0 0 0 0 1zm10-3a5 5 0 0 1 2 4 6 6 0 0 1 1 1 4 4 0 0 1-1 2 3 3 0 0 1-1 1 2 2 0 0 1-1 0 3 3 0 0 1-2-1 6 6 0 0 1-1-1 4 4 0 0 1-1-2 2 2 0 0 1 0-1 1 1 0 0 1 1 0 4 4 0 0 1 1 1 3 3 0 0 0 1 1 1 1 0 0 0 1 0 2 2 0 0 0 0-2 2 2 0 0 0 0-1 3 3 0 0 0-1 0 1 1 0 0 1-1-1 2 2 0 0 1 0-1 2 2 0 0 1 0-1 1 1 0 0 0 1-1 2 2 0 0 0 0-1 1 1 0 0 0-1-1 1 1 0 0 0 0 1 4 4 0 0 0-1 0v1a1 1 0 0 1-1 0 2 2 0 0 1-1-1 3 3 0 0 1 0-1 3 3 0 0 1 1-1 3 3 0 0 1 1-1 2 2 0 0 1 1 0 2 2 0 0 1 1 0 4 4 0 0 1 1 1 5 5 0 0 1 0 1 6 6 0 0 1 1 1 4 4 0 0 1 0 2 3 3 0 0 1-1 1z" fill="#5e5e5e"/><path d="M399 339a5 5 0 0 0-2 2 8 8 0 0 0 0 3c0 4 2 10 7 16l3 4c8 9 19 14 23 10l13-11-33-34z" fill="#bf322f"/><path d="M585 184a3 3 0 0 0-1 1 29 29 0 0 0-3 2c-3 3-5 6-3 11l1-1a9 9 0 0 1 0-2v1a2 2 0 0 0 2 2 8 8 0 0 1-1 3c-2 1 0 4 1 4v1l1 1c3-3 4-6 4-9v-1l1-5c1-1 3-2 3-4 1-4-2-6-5-4z" fill="#fab188"/><path d="m580 189 1-2c2-2 6-6 8-6s4 1 4 4c-1 3-2 5-6 7s-3-2-3-2z" fill="#fab188"/><path d="M591 206a9 9 0 0 0 11 2l10-6a8 8 0 0 0 3-11l-5-11a7 7 0 0 0-11-3l-14 8a7 7 0 0 0-2 10z" fill="#fab188"/><path d="M461 41c-12 1-23 5-23 12l-1-15c-1-7 12-11 25-12a22 22 0 0 0-1 4v11z" fill="#b01e3b"/><path d="M419 283v3c-11 0-28 10-30-1 0-4 8-7 12-7l13 3 5 2z" fill="#eaa93f"/><path d="M515 34v4a4 4 0 0 0-2-2l-5-1h-30a133 133 0 0 0-17 1v-2a138 138 0 0 1 14-1h33a15 15 0 0 1 5 0 7 7 0 0 1 2 1z" fill="#fff"/><path d="M461 36h-2c-10 2-17 4-20 7a7 7 0 0 0-2 2 8 8 0 0 0 0 3v-5a2 2 0 0 1 0-1 15 15 0 0 1 2-1 51 51 0 0 1 22-7v2z" fill="#cdc8d6"/><path d="m104 286-2-7a19 19 0 0 0-1-3 13 13 0 0 0-7-9l-4 1v3c-1-1 1-1 1-2-1-3-4-2-5-1h-2c1 3 3 6 6 8l6 2c0 4 2 11 4 12 3 1 5 0 4-4z" fill="#fab188"/><path d="M222 166c29 59 35 70 42 75 7 7 58-24 58-24" fill="none" stroke="#fab188" stroke-linecap="round" stroke-miterlimit="10" stroke-width="16"/><path d="M111 399c-20-5-52-15-63-21a11 11 0 1 1 9-19c11 5 41 16 58 19 14 3 15-7 43-35 2-3 6 1 9-2a11 11 0 1 1 15 15c-3 3-4 9-7 12-30 24-40 37-64 31z" fill="#fab188"/><path d="M159 284c-3 0-6 3-6 7l14 34c0 4-13 16-9 15l60-8c14-5 17-21 17-39-2-9 1-6-3-6z" fill="#4c2e43"/><path d="M163 332v-1c8-10 5-6-1-11-3-2-6-13-7-25-1-8 43-9 55-9s17-22 17-10c1 46-6 55-30 84l-1 1a22 22 0 0 1-33-29z" fill="#4c2e43"/><path d="M222 298c0 5-2 14-9 21s-21-10-21-10-18-13-1-14a83 83 0 0 1 31 3z" fill="#69415a"/><path d="m199 327-12 19-10-10-8-7c-11-9-14-19-15-26l-1-12a7 7 0 0 1 0-4h16c4 0 7 7 10 6 6-1 13 0 20 5a57 57 0 0 1 7 5l5 6c12 13-12 18-12 18z" fill="#69415a"/><path d="M235 293c0 1-7-2-25-1-26 1-58 3-58-3 2-19 6-14 10-31 4-18-1-32-4-43a112 112 0 0 1-5-47c2-8 5-15 12-17l1-1a47 47 0 0 1 11-1h31c15 0 23 13 27 30l1 5v2s3 11 3 17l-1 21v1l-2 5a63 63 0 0 0-3 14v1l-1 3 3 45z" fill="#f05373"/><path d="M245 218c-3 4-6 7-9 8a6 6 0 0 1-2 0l1-3c-3 0-2-3-5-3a9 9 0 0 0-2 0h-2a25 25 0 0 1-6 0c-17-1-8-25-8-25l17-10-1-23c2 8 2 1 3 7 1 5 1 16 9 27 2 3 10 13 5 22z" fill="#f05373"/><g fill="#fab188"><path d="M174 149h31c1 0 25 3 25 23 0 5 0 21-15 21s-21-15-24-24c-3-14-8-19-13-20h-4z" stroke="#fff" stroke-linejoin="round" stroke-width="4"/><path d="M179 149h-1 1z"/></g><path d="M234 221c-3-1-6-3-21-1-11 2-20 2-24-5 0 0 0 17 46 11 3-1 7-4 10-8-3 2-5 3-11 3z" fill="#f04d6d"/><path d="M223 338c-6 8-14 15-17 16-6 0-6 4-10-1l-13-11a499 499 0 0 1-6-6 22 22 0 0 1-1-30 22 22 0 0 1 33 0 23 23 0 0 1 2 2l8 8 6 6c4 3 2 10-2 16z" fill="#69415a"/><path d="M154 179a109 109 0 0 0 1 14c2 10 3 16 13 16 21 0 17-26 14-39s-11-20-15-20c-8 0-12 6-13 13v16z" fill="#fab188" stroke="#fff" stroke-miterlimit="10" stroke-width="4"/><path d="M162 208c-1 6 1 11-2 14a153 153 0 0 1-7-50 7 7 0 0 1 0-1 27 27 0 0 1 8-3h5s1 23-4 40z" fill="#e6795d" style="mix-blend-mode:multiply"/><path d="M228 326c0 5-2 10-7 16l-2 3-3 3c-8 7-16 10-20 7-3-3-1-11 4-18a47 47 0 0 1 4-5l3-3c5-5 11-8 15-8a7 7 0 0 1 2 0 5 5 0 0 1 1 1 4 4 0 0 1 1 0 5 5 0 0 1 1 2 7 7 0 0 1 1 2z" fill="#3a2534"/><path d="m163 162-53 31c-9 6-25 77-25 77" fill="none" stroke="#fab188" stroke-linecap="round" stroke-miterlimit="10" stroke-width="16"/><path d="m307 457-24-81c-1-4-2-10-7-14l-50-40h-1l-1-1a6 6 0 0 0-2 0c-4 0-10 3-15 8l-3 3a47 47 0 0 0-4 5 174 174 0 0 1 13 10l3 1c14 9 33 21 40 27a18 18 0 0 1 6 9l24 80c1 5 4 4 9 4a11 11 0 0 0 2-1c6-1 11-4 10-10z" fill="#fab188"/><path d="M225 322a98 98 0 0 0-12 25 146 146 0 0 1-13-10 47 47 0 0 1 4-5l3-3c5-5 11-8 15-8a6 6 0 0 1 2 0l1 1z" fill="#e6795d"/><path d="m285 461 3 17a11 11 0 0 0 9 10 11 11 0 0 0 3 0c6-1 16-6 15-12-2-11-6-10-9-21z" fill="#f5eee4"/><path d="M284 484a96 96 0 0 0 3 13l2 4c1 4 2 6 4 6 1 2 57-20 60-21s4-4 2-9a10 10 0 0 0 0-1 8 8 0 0 0-2-3c-3-3-8-2-13-2a14 14 0 0 1-3 0 29 29 0 0 1-4-1l-5-2-2-1h-1a29 29 0 0 1-3-1 26 26 0 0 1-3-2 51 51 0 0 1-3-2l-8-5c-4 0-11 2-12 7a5 5 0 0 0 0 1l1 7-1 6c-4 3-7 1-8-2v-1a26 26 0 0 1-2-6c-2 1-3 7-2 15z" fill="#a9bf38"/><path d="M289 501c1 4 2 6 4 6 1 2 57-20 60-21s4-4 2-9a10 10 0 0 0 0-1l-66 25z" fill="#b0583d"/><path d="m309 469 9-3c-3 2-5 4-4 6 1 3 4 1 5 0l6-2a19 19 0 0 0-2 6 1 1 0 0 0 2 1 26 26 0 0 1 12-6 29 29 0 0 1-4-1 27 27 0 0 0-7 4 12 12 0 0 1 2-6l-2-1h-1l-5 2-4 2a22 22 0 0 1 6-5 26 26 0 0 1-3-2l-8 2 7-2-2-2c-3 1-7 2-8 5a1 1 0 0 0 1 2z" fill="#fff"/><path d="m61 356-1-1a92 92 0 0 0-11-5l-4-1h-7c-2 0-16 56-17 59s1 6 6 7a10 10 0 0 0 1 0 8 8 0 0 0 3 0c4-1 6-5 7-9l4-5a27 27 0 0 1 3-2l5-3 1-1 1-1a28 28 0 0 1 2-1 25 25 0 0 1 4-2h1l2-1c3-1 5 1 7-2 3-3 5-9 2-13a5 5 0 0 0-1 0c-1-1 3 1 0 0-2-1 2-5 2-3 2 16-4-2-4-2 3 1-1-7-1-7 1-2 0-4-5-7z" fill="#a9bf38"/><path d="m77 366-6 21a7 7 0 0 0-2 0l-4-1-7-4c-6-2 2-22 7-20a309 309 0 0 0 11 4h1z" fill="#f5eee4"/><path d="M45 349h-7c-2 0-16 56-17 59s1 6 6 7a10 10 0 0 0 1 0l17-66z" fill="#b0583d"/><path d="M212 152s-1 7-11 7a18 18 0 0 1-15-8l7-30 27-1z" fill="#fab188"/><path d="M215 142c-1 4-23 1-27 8l-2 1 8-36h27z" fill="#e6795d"/><path d="m64 359 2 3c0 2-3 2-12-2s-8-7-8-7z" fill="#a9bf38"/><path d="M69 379c0 4 6 9-4 7s-15-7-13-13 4-12 10-10 7 16 7 16z" fill="#f5eee4"/><path fill="#4c2e43" d="m221 309-24-12 21 18h6l-3-6z"/><path d="M186 283h47l3-50-45 7s1 43-5 43z" fill="#c94262"/><path d="M243 272h-46c-4 0-6-20-6-28v-4h45a194 194 0 0 0 2 22c1 6 3 10 5 10z" fill="#fee5d9"/><path d="M243 272h-46c-4 0-6-20-6-28a272 272 0 0 0 47 18c1 6 3 10 5 10z" fill="#fff"/><path fill="#ae5a46" d="M191 233h45v7h-45z"/><path d="M209 259h-2a1 1 0 0 1-1-1 1 1 0 0 1-1-1v-1l2-6a3 3 0 0 1 0-1 1 1 0 0 1 1 0 1 1 0 0 1 1 0 5 5 0 0 1 1 3l1 4a1 1 0 0 1 1 0 2 2 0 0 1 0 1l-1 2v1a2 2 0 0 1 0 1l-1-1zm0-3-1-5-1 5zm7-3a2 2 0 0 1 1 1 3 3 0 0 1 1 0 6 6 0 0 1 1 2 7 7 0 0 1 0 1 6 6 0 0 1 0 2 4 4 0 0 1 0 1 3 3 0 0 1-1 1 2 2 0 0 1-1 1 2 2 0 0 1-1-1 4 4 0 0 1-1-1 6 6 0 0 1-1-1 8 8 0 0 1-1-2 10 10 0 0 1 0-3 16 16 0 0 1 1-3 15 15 0 0 1 1-2l1-1a1 1 0 0 1 0 1 2 2 0 0 1 1 0 2 2 0 0 1 0 1 6 6 0 0 1 0 1l-1 1a12 12 0 0 0 0 1zm-1 4a3 3 0 0 0 1 2 1 1 0 0 0 1 0 2 2 0 0 0 0-2 3 3 0 0 0 0-1 1 1 0 0 0-1 0 1 1 0 0 0-1 0 2 2 0 0 0 0 1zm9-3a5 5 0 0 1 2 4 6 6 0 0 1 0 1 3 3 0 0 1 0 1 2 2 0 0 1-1 1 2 2 0 0 1-1 1 3 3 0 0 1-2-1 5 5 0 0 1-1-2 4 4 0 0 1 0-1 2 2 0 0 1 0-1 1 1 0 0 1 1 0 4 4 0 0 1 0 1h1a3 3 0 0 0 0 1 1 1 0 0 0 1 0 2 2 0 0 0 0-2 2 2 0 0 0 0-1 2 2 0 0 0-1 0 1 1 0 0 1-1 0 2 2 0 0 1 0-1 1 1 0 0 1 0-1 1 1 0 0 1 1-1 1 1 0 0 0 0-1 2 2 0 0 0 0-1 1 1 0 0 0-1 0 3 3 0 0 0 0 1h-1a1 1 0 0 1 0 1 1 1 0 0 1-1-1 2 2 0 0 1 0-1 3 3 0 0 1 0-1 3 3 0 0 1 0-1 2 2 0 0 1 1 0 2 2 0 0 1 1 0 2 2 0 0 1 1 0 3 3 0 0 1 1 0 5 5 0 0 1 1 2 5 5 0 0 1 0 1 4 4 0 0 1 0 1 3 3 0 0 1-1 1z" fill="#5e5e5e"/><path d="M154 340a5 5 0 0 0-1 2 7 7 0 0 0 0 3c0 4 3 10 8 15l3 3c9 8 19 11 23 7l11-12-34-28z" fill="#4c2e43"/><path d="M80 270a9 9 0 0 0-9 6l-2 6a9 9 0 0 0 5 10l10 5a5 5 0 0 0 8-4l4-15a6 6 0 0 0-6-7z" fill="#fab188"/><path d="M94 267c0 1-2 2-5 2l-11-1 2-9 11 4 3 4z" fill="#e6795d"/><path d="m84 292-1 5c-1 1 0 4 3 5s4 0 6-8-3-7-3-7z" fill="#fab188"/><path d="m81 264 2-6a2 2 0 0 1 2-1l7 2a2 2 0 0 1 1 2l-2 6a2 2 0 0 1-2 1l-7-2a2 2 0 0 1-1-2z" fill="#c2bfe0"/><path d="m89 266-6-1v-2l1-4 1-1 6 2 1 1-2 4-1 1z" fill="#504452"/><path d="m85 258 6 2v1l-1 4-1 1-5-1a1 1 0 0 1-1-1 1 1 0 0 1 0-1l1-4 1-1m0 0-2 1-1 4 1 2 6 1a3 3 0 0 0 0 1l2-2 1-4-1-2-6-1z" fill="#c2bfe0"/><path d="M91 267a1 1 0 0 1 1 0h3s1 1 2-2l-1-3-2-1a1 1 0 0 1-1-1zm-10-3a1 1 0 0 0-1-1h-2s-1 0-1-3l2-3 3 1a1 1 0 0 0 1-1z" fill="#f05373"/><path d="m84 257 8 2a2 2 0 0 1 1 1 2 2 0 0 0-1-1l-7-2a2 2 0 0 0-2 1 2 2 0 0 1 1-1z" fill="#fff"/><path d="m90 267-8-2a2 2 0 0 1-1-1 2 2 0 0 0 1 2l7 2a2 2 0 0 0 2-1 2 2 0 0 1-1 0z" fill="#fab188"/><g><path d="M158 84v-9c2-19 9-31 29-31 22 0 15 14 15 36s7 37-15 40c-18 2-28-16-29-36z" fill="#472836"/><path d="M215 141c-7 1-14-1-19-3-4-2-6 0-6 0l-1-32h26z" fill="#e6795d" style="mix-blend-mode:darken"/><path d="M216 139z" fill="#fab188"/><path d="M158 78c0-29 16-45 44-43 21 1 20 10 22 15 4 8-5 15-5 27 0 26 7 43-18 47-28 5-43-20-43-46z" fill="#472836"/><path d="M239 74c-4 17-9 22-18 22l-16-59c27 3 38 18 34 37z" fill="#472836"/><path d="M239 103c0 6-6 21-9 26-2 1-3 4-8 5-4 2-11 3-12 7-1 2-1-2-2-2-19-4-32-23-32-39l4-22c0-17 13-31 30-31s30 14 30 31z" fill="#e6795d"/><path d="M240 102c-1 18-8 34-27 33-22 0-28-22-27-39l1-15c1-18 8-34 25-34 20 0 29 13 29 32z" fill="#fab188"/><path d="M165 79c-15-3 26-34 30-36 3-1-2-8 7-8a45 45 0 0 1 24 7 30 30 0 0 1 11 13c1 2-1 0-4 0-2 0-5-8-18-8-12 0-26 2-26 27 0 13-17 7-24 5z" fill="#472836"/><path d="m188 78-1 12c-1 3-3 2-3 0-1-2-2-6-8-7 0 0-2-10 1-13 3-4 12-1 12-1z" fill="#472836"/><path d="M208 113s2 9 11 9 8-9 8-9z" fill="#8f2b31"/><path fill="none" stroke="#472836" stroke-linecap="round" stroke-miterlimit="10" stroke-width="3" d="m200 82 13-1m27 1-11-1"/><path d="M219 126a18 18 0 0 1-4 0c-2 0-2 1-1 2a8 8 0 0 0 5 1 7 7 0 0 0 3-1v-2a15 15 0 0 1-3 0z" fill="#f68e6e"/><path d="M223 107c3 0 5-2 5-5l-2-1a9 9 0 0 1-3 1 9 9 0 0 1-4-1l-3 1c0 3 3 5 7 5z" fill="#e6795d"/><path d="M223 120c-2-2-8-2-12-2a11 11 0 0 0 8 4 10 10 0 0 0 4-2z" fill="#d85566"/><circle cx="207" cy="91" fill="#432c28" r="3"/><circle cx="233" cy="91" fill="#432c28" r="3"/><path d="M237 89a13 13 0 0 0-5-1 9 9 0 0 0-4 1" fill="none" stroke="#472836" stroke-linecap="round" stroke-miterlimit="10" stroke-width="2"/><path d="m220 115-13-1v-1h21v1" fill="#fab188"/><path d="M184 92c1 5-3 9-7 10s-8-4-8-9 2-10 6-10 9 3 9 9z" fill="#e6795d"/><path d="M211 89a13 13 0 0 0-4-1 17 17 0 0 0-6 1" fill="none" stroke="#472836" stroke-linecap="round" stroke-miterlimit="10" stroke-width="2"/><path d="M184 121c0 2-1 1 1 4 3 3 5 7 4 12-1 4 4 2 4 1v-6l-2-5-3-3z" fill="#e6795d" style="mix-blend-mode:darken"/><path d="M224 94c-3 0-3 8-3 8h2c2 0 5 0 5-3 1-2 0-4-4-5z" fill="#fab188"/><path d="M187 60c1 3 1 15 2 10 0-7 2-14 10-16 7-2 15 8 23 8s10-10 6-15-15-11-23-6-20 6-20 10l2 9z" fill="#472836"/><path d="M227 59c1-1 2 0 2-2s5-2 7 2 0-4-1-5-7-6-7-5l-2 5 1 5zm-49-3c-8-3-13-11-20-14-10-5-20-2-28 3-11 6-33 30-48 18 7 18 26 22 43 16 18-6 32-32 53-17 14 10 0-6 0-6z" fill="#472836"/></g><path d="M319 224a8 8 0 0 0 10 3l6-3a10 10 0 0 0 5-10l-2-10c-1-4-4-6-8-4l-14 8a6 6 0 0 0-2 9z" fill="#fab188"/><path d="M317 196c0 2-3 4-4 6a19 19 0 0 0-2 2 13 13 0 0 0-2 12l4 2 2-1-3 1c-1 2 1 4 3 3a1 1 0 0 0 0 1l1 1c2-3 3-6 2-10l-2-6c3-3 7-8 7-10-1-3-3-4-6-1zm18 11 4-2c2 0 3-2 2-5s-3-4-10 0-4 7-4 7z" fill="#fab188"/><g fill="#fab188"><path d="m388 264-12 2a9 9 0 0 1-9-7l-2-5a23 23 0 0 1 0-5 15 15 0 0 1 1-6c1-3 5-6 9-7l3-1a8 8 0 0 1 4 0 8 8 0 0 1 3 2 8 8 0 0 1 1 1 8 8 0 0 1 2 3l1 3 4 12a6 6 0 0 1-5 8z"/><path d="m401 247-6-5a21 21 0 0 0-2-2 15 15 0 0 0-6-4 13 13 0 0 0-5-1h-1l-2 3c-2-1-4 1-4 3h-1l-1 1a12 12 0 0 0 3 2 19 19 0 0 0 7 2l6-2a3 3 0 0 1 1 0c2 4 7 9 9 9 4 0 5-3 2-6zm-21-6v-1 1zm5 19 2 4c0 1 2 4 5 3s4-2 1-10-7-5-7-5z"/></g><g><path d="M387 236a5 5 0 0 1-1 2 24 24 0 0 1-4 2 69 69 0 0 1-6 4l-11 5a15 15 0 0 1 1-6c1-3 5-6 9-7l3-1a8 8 0 0 1 4 0 13 13 0 0 1 5 1z" fill="#e6795d"/><rect x="464" y="273" width="12" height="11" rx="2" ry="2" transform="rotate(-17 278 569)" fill="#c2bfe0"/><path d="m373 240-1-1-2-5a2 2 0 0 1 0-1l2-1 6-2 2 1 1 5a2 2 0 0 1 0 1 2 2 0 0 1-1 1l-6 2a3 3 0 0 1-1 0z" fill="#504452"/><path d="m378 230 1 1 2 5a1 1 0 0 1 0 1 2 2 0 0 1-1 1l-6 1a3 3 0 0 1-1 1l-1-1-1-5a2 2 0 0 1 0-1l1-1 6-2m0 0-7 2-1 2 2 5 1 1a3 3 0 0 0 1 0l6-2a2 2 0 0 0 1-2l-1-5-2-1z" fill="#c2bfe0"/><path d="M383 237a2 2 0 0 1 1-1l3-1s1 0 0-4c-1-3-2-2-2-2h-3a2 2 0 0 1-1 0zm-12 3a2 2 0 0 0-1 0l-3 1s-1 1-2-3v-3l3-1a2 2 0 0 0 1-1z" fill="#d24e29"/><path d="m370 232 9-3a2 2 0 0 1 2 0 2 2 0 0 0-3-1l-8 3a2 2 0 0 0-1 2 2 2 0 0 1 1-1z" fill="#fff"/><path d="m381 238-8 3a2 2 0 0 1-2-1 2 2 0 0 0 2 1l9-2a2 2 0 0 0 1-2 2 2 0 0 1-2 1z" fill="#fab188"/></g></g></svg>