<svg version="1.1" id="Слой_1" xmlns="http://www.w3.org/2000/svg" x="0" y="0" viewBox="0 0 589 519.3" style="enable-background:new 0 0 589 519.3" xml:space="preserve"><style>.st1{fill:#5b130a}.st2{fill:#ce282f}.st3{fill:#010101}.st4{fill:#fff}.st5{fill:#300f0d}.st6{fill:#ab202c}</style><g id="Слой_1_1_"><ellipse cx="333.6" cy="262" rx="238.8" ry="249" style="opacity:.3;fill:#2e90a0;enable-background:new"/><path class="st1" d="M461.7 299c-3.6 14.8-11.9 28.3-14.4 43.4-1.9 11.4-.4 23.1 2 34.4 1.6 7.3 2.9 16.4-3.1 20.8-5.1 3.8-12.9 1.2-16.6-4s-4.2-11.9-4-18.2 1.1-12.8-.4-18.9c-1.6-6.8-5.8-12.7-9.3-18.7-9.3-15.6-14.8-34.8-9.3-52.1 4.9-15.5 21.7-28.9 38.6-26.1 17.7 2.8 20.3 24.1 16.5 39.4z"/><path class="st2" d="M505.5 314.9c-15 0-30.2-7.4-35.7-10.4-7-4.5-9-13.8-4.5-20.7 4-6.2 11.9-8.6 18.7-5.6 7.8 4.2 18.3 7.3 22.5 6.8v-.4c0-.2-1.1-7.6-24.9-19.8-10.8-5.4-22.1-10-33.6-13.8a15.09 15.09 0 0 1-8.4-19.5c2.7-6.8 10-10.7 17.2-9.1 13 4.2 25.7 9.4 38 15.6 29.5 15.1 43.4 31.9 41.3 50.1-1.2 10.6-6.6 18.8-15 23.2-4.8 2.5-10.2 3.7-15.6 3.6z"/><path class="st3" d="M459 263.5c-1.4-1-3.3-2-4.6-.9-.5.5-.8 1.1-.9 1.7-.8 2.7-.8 5.5-.1 8.2.2.9.5 2-.2 2.6-.4.3-.9.4-1.4.4-2.6.2-5.2-.3-7.6-1.3-3.6-1.5-7.7-4.3-11.1-2.4-1.3.8-2.4 2.1-2.9 3.5-2.8 6.9 1.3 14.8 7 19.6 4.9 4.4 11.3 6.8 17.8 7 6.5 0 13.1-3.1 16.7-8.5 7.9-11.9-3.7-22.9-12.7-29.9z"/><path class="st4" d="M481.4 303.4c2.4-6.5 4.1-13.3 5.3-20.2.4-2.7.7-5.6-.7-7.9s-3.8-3.3-6.3-4.1c-1.7-.7-3.5-.9-5.4-.7-3.3.7-5.1 4.1-6.5 7.1-3.7 8-8.8 19.2-4.8 28.1 3.9 8.3 15.8 4.9 18.4-2.3z"/><path class="st1" d="M232.9 64.9c-26.8-10.7-56.7-14.5-84.7-7.7-14.3 3.5-27.8 9.6-40.8 16.5-20.4 10.8-40.2 23.5-56 40.4C25 142.3 11.1 180.9 9 219.4c-1 18.1.4 36.5 5.8 53.9 9.4 30.7 31.2 57 58.6 73.7s60.2 23.9 92.2 22c13-.8 26.2-3 37.9-8.8 13.3-6.5 24.1-17.2 33.9-28.4 20.9-23.7 38.5-50.1 52.4-78.5 11-22.5 19.6-46.4 22.8-71.3 2.7-20.7 2.6-45.8-6.2-65.2-6.6-14.6-27.7-26.5-40.6-34.8-10.3-6.7-21.4-12.5-32.9-17.1z"/><path class="st5" d="M288.7 118.7c-5.6-4.7-11.8-8.7-18.3-12a125.2 125.2 0 0 0-42.5-13.2c-7.5-.9-15-1.2-22.5-.9-.5 0-.9-.3-.9-.8s.3-.9.8-.9c7.6-.8 15.3-1 23-.6 15.4 1 30.6 4.6 44.7 10.9 7.3 3.1 14.1 7 20.5 11.7 1.8 1.1 2.3 3.4 1.2 5.2a3.74 3.74 0 0 1-5.2 1.2c-.2-.1-.4-.3-.6-.4l-.2-.1v-.1z"/><path class="st5" d="M276.4 121.5a27 27 0 0 0-3.9-2.7c-1.5-.8-3.1-1.6-4.8-2.2-3.4-1.2-6.9-2.1-10.5-2.7-3.7-.5-7.4-.8-11.1-.8-1.9 0-3.7.1-5.6.2l-5.6.5c-.4.1-.8-.2-.8-.6s.2-.8.6-.8l5.6-1.2 5.7-.9c3.8-.5 7.7-.7 11.6-.6 4 .1 7.9.6 11.8 1.5 2 .5 3.9 1.1 5.8 1.8 2.1.8 4 1.8 5.9 3.1 1.6 1.2 1.9 3.4.7 5a3.53 3.53 0 0 1-5 .7l-.3-.3h-.1z"/><path class="st2" d="M415.2 45.2c-8.4-9-21.9-10.3-33.9-12.7-9-1.8-17.8-4.6-26.9-6-14.3-2.2-29.7-.8-41.8 7.2-10.9 7.1-18.1 18.7-23.5 30.5s-9.3 24.3-15.5 35.8-15.2 22-27.3 26.7c-9.1 3.5-19.1 3.4-28.6 5.1-2.2.4-4.7 1.3-5.2 3.4-.7 3.1 3.4 4.9 6.5 5.2 17.4 1.7 34.6-4.4 51.1-10.3 5-1.8 10-3.7 14.5-6.6 6.6-4.3 11.5-10.7 16.3-17.1 7.7-10.4 15.4-21.2 25.7-29.1 11.8-8.9 26.3-13.4 40.8-16.4 11.8-2.4 24.7-3.7 35.5 1.7C407 64.7 419 79 422.8 73.5c1.9-2.8-.1-11.7-.8-14.8-1-4.9-3.4-9.6-6.8-13.5z"/><path class="st6" d="M211.9 456.8c-8.3-.1-14.9-6.9-14.8-15.2.1-5.3 2.9-10.2 7.5-12.8 56-31.4 40.9-83.4 40.2-85.6-1.9-8.1 3.2-16.1 11.2-18 7.2-1.7 14.5 2.2 17.3 9 8.4 26.5 8 85.8-54.1 120.6-2.2 1.3-4.8 2-7.3 2z"/><path class="st3" d="m213.5 444.8-7.5-6.3-31.7 29.7 3.9 4.4 5.5-3.9s10.3 25.4 23.8 31 5.3-8.8-2.6-12.9-16.1-17.7-11.5-22.4 20.1-19.6 20.1-19.6z"/><path class="st4" d="M429.5 84.4a75 75 0 0 0-33.9-32c-12.8-6.1-27.4-9.3-41.5-8.4-9.8.7-19.4 3.3-26.5 10-12.5 11.7-21.7 23.9-26.7 40.3-1.7 5.7-2.8 12.1.1 17.2 1.7 2.5 3.8 4.7 6.4 6.3 13.3 9.6 28.6 16 44.7 18.8 16.8 2.8 34 1.5 50.5-2.6 8.1-2 16.1-4.7 23.8-7.9 7.1-3 8.2-7.5 9-14.9 1-9.2-1.6-18.7-5.9-26.8z"/><path class="st2" d="M386.1 120.2c41.5 60.8 37.9 196.9-30.6 238.9-34.3 21-79.5 12.3-115.2-6.2-20-10.4-38.9-23.8-52.4-41.9s-21.3-41.1-18-63.4c1.6-10.5 5.5-20.5 10.5-29.9 27.2-51.3 82.3-80.5 134.2-106.6 16.3-8.2 35.4-16.6 52.1-9.1 8.1 3.6 14.4 10.7 19.4 18.2z"/><path class="st3" d="M366.2 351.3s-108.1-23.8-197-97.3c.2-10.6 3-21 8.1-30.2 0 0 156 91.9 210.8 102.3.1 0-7.5 15.3-21.9 25.2z"/><path d="M424.3 100.2c-4.7-9.5-12-17.5-20.5-23.9-12.1-9.2-27-15.2-42.1-15.1S331.1 67.9 322 80c-4.5 6-7.4 13-10 20-.9 2.1-1.5 4.3-1.6 6.6 0 3.3 1.5 6.4 3.4 9.2 6.6 9.9 17 16.9 28.1 21.2s23.1 6 34.9 7c8.8.7 17.7 1.1 26.3-.7 9.6-2 20.6-7.3 25-16.7 4.1-9 .4-17.9-3.8-26.4z" style="fill:#f7b79b"/><path d="M355 315.3s-6.4 17.9-16.6 31.6c0 0-25.2-10.5-39.8-18.1 0 0 11.5-27.1 16.6-33.5l39.8 20z" style="fill:#f9b041"/><path class="st6" d="M365.5 334.1c15 0 30.2-7.4 35.7-10.4 7-4.4 9.1-13.7 4.6-20.7-4-6.3-12-8.7-18.8-5.6-7.8 4.2-18.3 7.3-22.5 6.8v-.4c0-.2 1.1-7.6 24.9-19.8 10.8-5.4 22.1-10 33.6-13.8 7.7-3.1 11.4-11.8 8.4-19.5-2.7-6.8-10-10.7-17.2-9.1-13 4.2-25.7 9.4-38 15.5-29.5 15.1-43.4 31.9-41.3 50.1 1.2 10.6 6.6 18.8 15 23.2a31.5 31.5 0 0 0 15.6 3.7z"/><path class="st3" d="M412 282.7c1.4-1 3.3-2 4.6-.9.5.5.8 1.1.9 1.7.8 2.7.8 5.5.1 8.2-.2.9-.5 2 .2 2.6.4.3.9.4 1.4.4 2.6.2 5.2-.3 7.6-1.3 3.6-1.5 7.7-4.3 11.1-2.4 1.3.8 2.4 2.1 2.9 3.5 2.8 6.9-1.3 14.8-7 19.6-4.9 4.4-11.2 6.8-17.8 7-6.5 0-13.1-3.1-16.7-8.5-7.9-12 3.7-22.9 12.7-29.9z"/><path class="st4" d="M389.6 322.6c-2.4-6.5-4.1-13.3-5.3-20.2-.4-2.7-.7-5.6.7-7.9s3.8-3.3 6.3-4.1c1.7-.7 3.5-.9 5.4-.7 3.3.7 5.1 4.1 6.5 7.1 3.7 8 8.8 19.2 4.8 28.1-3.8 8.3-15.7 4.9-18.4-2.3z"/><path class="st4" d="M382.3 96.8c21.4 3.9 42 11.9 61.4 21.8 8.6 4.4 19.2 11.8 25.6 19.2 7.5 8.8 12.8 19.3 15.6 30.5 9.5 36.5-5.9 76.7-33.5 102.4s-65.7 38-103.3 40.1c-3.9.2-8.5-.1-10.4-3.5-.8-1.5-.9-3.2-1.3-4.9-1.8-7.5-9.7-11.4-16.6-14.8-13.1-6.4-25.4-14.4-36.6-23.6-6-5-11.8-10.4-16.3-16.9-4-5.8-6.8-12.3-9.3-18.8-5.9-15.6-10.3-31.9-10.5-48.5s4.1-33.7 14.1-47c14.4-19.1 38.4-28 61.5-34.4 9-2.5 18.2-4.7 27.6-5.1 10.7-.4 21.4 1.6 32 3.5z"/><path d="M378.8 87.4c5.8.4 11.5 1.7 16.9 3.9 4.8 1.8 9.2 7.4 6.3 12.6-1.5 2.6-4.4 4.1-7.3 4.8-6.3 1.5-12.8.1-19-1.5-2.9-.6-5.7-1.7-8.2-3.2-2.4-1.7-4.4-4.3-4.4-7.3 0-3.4 2.6-6.4 5.7-7.9s6.6-1.6 10-1.4z" style="fill:#f2938b"/><path d="M371.1 118.3c-.8 0-1.5-.1-2.3-.2-4.8-.6-9.4-2.3-13.4-5-4.1-2.8-6.9-7.2-7.7-12.1-.1-.5.3-1 .9-1.1.5-.1 1 .3 1.1.8.7 4.4 3.2 8.2 6.9 10.8 3.7 2.5 8 4.1 12.5 4.6 1.2.2 2.4.2 3.5 0 .5-.1 1.1.2 1.2.7.1.5-.2 1.1-.7 1.2-.6.3-1.3.3-2 .3z" style="fill:#ce615b"/><path class="st4" d="M221.4 145.5c-.6.9-1.3 1.7-2.1 2.4-2.9 2.6-7.4 2.6-11.2 1.7-2.4-.4-4.5-1.6-6.2-3.4-1.8-2.3-2.1-5.4-1.8-8.3.4-4.4 2.2-9 6.2-11 4.2-2.1 11.9-.3 15.4 2.6 5.2 4.4 3 11.4-.3 16z"/><path class="st3" d="M349.4 88.5c-.9 0-1.6-.7-1.7-1.6-.3-3.3 0-6.7 1.1-9.8.4-1.2.9-2.3 1.7-3.3a7.56 7.56 0 0 1 12.6 1.2c.7 1.6 1.1 3.5.9 5.3-.1 2.3-.4 4.6-1.1 6.8-.2 1-1.1 1.6-2.1 1.4-1-.2-1.6-1.1-1.4-2.1 0-.1.1-.2.1-.3.6-1.9.9-3.8.9-5.8.1-1.2-.1-2.4-.6-3.6-.6-1.2-1.8-2-3.1-2.2-1.3-.1-2.6.5-3.5 1.5-.5.7-.9 1.5-1.1 2.3-.9 2.7-1.2 5.5-.9 8.3.1 1-.6 1.8-1.6 1.9h-.2zM404.4 94.7c-1 0-1.8-.8-1.8-1.8 0-.2 0-.4.1-.6.9-1.9 1.4-4 1.4-6.1 0-.8-.2-1.5-.5-2.2-.4-.9-1.1-1.9-1.9-2-.6 0-1.2.2-1.5.7-.6.7-1 1.4-1.2 2.3-.5 1.5-.8 3.2-.8 4.8 0 1-.8 1.7-1.8 1.7s-1.7-.8-1.7-1.8c0-2 .4-4 1-5.8.4-1.3 1.1-2.6 2-3.6 1.1-1.3 2.8-1.9 4.5-1.8 2 .2 3.8 1.8 4.7 4.2.4 1.1.6 2.2.7 3.3 0 2.6-.6 5.2-1.7 7.6-.2.7-.8 1.1-1.5 1.1z"/><path class="st2" d="M357.7 462.2h-1.2c-8.2-.7-14.4-7.8-13.8-16 1.8-23.7-3.2-42.5-15-56.1-18.9-21.7-49.6-23.8-49.9-23.8a15 15 0 0 1-12.8-16.9 15 15 0 0 1 14.4-12.9c1.8.1 43.2 2.6 70.5 33.7 17.4 19.8 25 46.2 22.5 78.3-.5 7.7-6.9 13.7-14.7 13.7z"/><path class="st3" d="m362.5 452.6-9.8.1-4.9 43.1 5.9.8 1.7-6.5s24.3 12.6 38.2 8.2-1.6-10.1-10.4-8.1-23.7-3-23.3-9.6 2.6-28 2.6-28z"/><path class="st2" d="M194.5 365.7c-.3 0-.7-.1-.9-.3C115.7 316 75.7 257.1 55.9 216.3 34.4 172 31.3 139 31.3 138.6c-.1-1 .6-1.8 1.6-1.9 1-.1 1.8.6 1.9 1.6.1 1.3 13 130.6 160.6 224.1.8.5 1.1 1.6.5 2.4-.3.6-.8.9-1.4.9zM225.4 346.2c-.3 0-.5-.1-.8-.2-98.3-50.1-166.9-236.7-167.5-238.6-.3-.9.2-1.9 1.1-2.2.9-.3 1.8.2 2.2 1 .7 1.9 68.7 187.2 165.9 236.6.9.4 1.2 1.5.7 2.4-.3.6-.9 1-1.6 1z"/><circle class="st2" cx="52.5" cy="142.7" r="6.2"/><circle class="st2" cx="188.3" cy="340.7" r="6.2"/><circle class="st2" cx="161.4" cy="317.6" r="6.2"/><circle class="st2" cx="135.9" cy="290.8" r="6.2"/><circle class="st2" cx="113.8" cy="264.4" r="6.2"/><circle class="st2" cx="94.7" cy="236.6" r="6.2"/><circle class="st2" cx="76.7" cy="205.3" r="6.2"/><circle class="st2" cx="62.2" cy="174.1" r="6.2"/></g></svg>