<svg version="1.1" id="Слой_1" xmlns="http://www.w3.org/2000/svg" xmlns:xlink="http://www.w3.org/1999/xlink" x="0" y="0" viewBox="0 0 432 595.3" style="enable-background:new 0 0 432 595.3" xml:space="preserve"><style>.st1{fill:#f5dac5}.st2{fill:#fff}.st3{fill:#e06117}.st5{fill:#3d2e2e}.st6{fill:#ebaeae}.st11{fill:#75b750;stroke:#75b750;stroke-width:2.67;stroke-miterlimit:10}</style><g id="Слой_1_1_"><path d="M405.8 583c-21-51.2-98.6-89.3-191.3-89.3S44.2 531.8 23.2 583h382.6z" style="fill:#a8d962"/><path class="st1" d="m173.9 542 6.2 8.6 11.3-8.1s9.7-124.6 7.1-125.5-30.1 0-30.1 0l5.5 125z"/><path class="st2" d="m191.4 544.3 1.2 18.4h-46.9s-.4-13.8 28.4-18.1c0 .1 4.1 5.6 17.3-.3z"/><path class="st1" d="m249.8 542-6.2 8.6-11.3-8.1s-9.7-124.6-7.1-125.5 30.1 0 30.1 0l-5.5 125z"/><path class="st2" d="m232.3 544.3-1.2 18.4H278s.4-13.8-28.4-18.1c0 .1-4 5.6-17.3-.3z"/><path class="st3" d="M263 382.3c-.4 0-51.2-7-51.2-7s-50.8 7-51.2 7l-2 70.5 43.4 2.6 9.8-50.8 9.8 50.8 43.4-2.6-2-70.5z"/><path class="st1" d="m177.7 291.5-3.2 4.1c-2.1 2.7-4.8 6.3-8.1 10.8-1.6 2.2-3.4 4.7-5.1 7.3s-3.6 5.4-5.4 8.2-3.7 5.8-5.5 8.9-3.6 6.2-5.2 9.4-3.3 6.4-4.7 9.6-2.8 6.4-4.1 9.5-2.4 6.2-3.3 9.1-1.9 5.7-2.7 8.3-1.4 5-2 7.2-1.1 4-1.4 5.6l-1.1 4.9-.1.3a10.33 10.33 0 0 1-20.3-3.7l.7-5.3c.4-3.4 1.2-8.2 2.2-14.1.5-2.9 1.1-6.1 1.8-9.4s1.6-6.9 2.4-10.5 1.9-7.4 3.1-11.2 2.4-7.6 3.7-11.4 2.8-7.5 4.2-11.2 2.9-7.3 4.3-10.6c1.5-3.4 2.9-6.7 4.3-9.8l3.9-8.7 8.1-17.6v-.2c4.6-9.9 16.4-14.3 26.3-9.7s14.3 16.4 9.7 26.3c-.8 1.4-1.6 2.7-2.5 3.9zM262.7 252.3s4.6 8.4 11.7 20.9c3.6 6.3 7.7 13.5 12.3 21.3l7 12 3.6 6.1.5.8.2.4.1.2.1.1c-.3-.4.7 1-.7-.9l.5.7.3.4.1.1-.1-.1-.2-.3c-.7-.8-1.6-1.4-2.7-1.7a4.6 4.6 0 0 0-3.8.5 5 5 0 0 0-2.2 3.1c0 .3-.1.5-.1.8v.2s0-.3.1-.4l.1-.9.5-3.5.9-6.8 3-24.4 2.7-23.8c.5-5.7 5.6-9.9 11.3-9.3 5.5.5 9.6 5.3 9.3 10.8l-.8 23.9-.6 24.5c0 2.2-.1 4.5-.1 6.8l-.1 3.5v1.4l-.1 1a21.76 21.76 0 0 1-5.1 12.1c-6.1 7.1-16 9.7-24.8 6.6a19 19 0 0 1-4.3-2.1c-.7-.4-1.4-.9-2.1-1.5-.8-.6-1.6-1.3-2.3-2.1l-.9-.9-.3-.3-.6-.7-1.8-2.4-4.4-5.6-8.5-10.9c-5.5-7.1-10.7-13.7-15.2-19.3-9-11.3-15.1-18.6-15.1-18.6-7-8.4-5.8-20.9 2.6-27.8 8.4-7 20.9-5.8 27.8 2.6.8 1.2 1.6 2.3 2.2 3.5z"/><path id="_Обтравочный_контур_2" d="m262.3 286.1 5 125.6s-30 3.8-53.9 3.8-58.4-3.6-58.4-3.6 3.2-120.7 9.2-159.5c0 0-1.1-14.5 30.2-15.6 0 0 53.5-3.1 64.6 10.5-.2-.1-1.1 12.1 3.3 38.8z" style="fill:#75b750"/><path class="st1" d="M212.4 191.9h2.1c12.8 0 23.2 10.4 23.2 23.2v13.5c0 12.8-10.4 23.2-23.2 23.2h-2.1c-12.8 0-23.2-10.4-23.2-23.2v-13.5c0-12.8 10.4-23.2 23.2-23.2z"/><path class="st1" d="M118.6 142.7c0 51.9 48.7 93.9 93.9 93.9s93.9-42.1 93.9-93.9c0-51.9-42.1-93.9-93.9-93.9s-93.9 42.1-93.9 93.9z"/><circle class="st5" cx="177.2" cy="139.6" r="6.9"/><circle class="st5" cx="247.9" cy="139.6" r="6.9"/><ellipse class="st6" cx="245.9" cy="161.8" rx="13" ry="8.1"/><ellipse class="st6" cx="179.3" cy="161.8" rx="13" ry="8.1"/><circle class="st1" cx="119.8" cy="156.5" r="13.8"/><circle class="st1" cx="307.3" cy="156.5" r="13.8"/><path id="_Обтравочный_контур_3" d="M238.1 179.1a25.67 25.67 0 0 1-26.7 24.5 25.65 25.65 0 0 1-24.5-24.5h51.2z" style="fill:#e0677d"/><defs><path id="SVGID_1_" d="M238.1 179.1a25.67 25.67 0 0 1-26.7 24.5 25.65 25.65 0 0 1-24.5-24.5h51.2z"/></defs><clipPath id="SVGID_2_"><use xlink:href="#SVGID_1_" style="overflow:visible"/></clipPath><g style="clip-path:url(#SVGID_2_)"><circle cx="204.1" cy="212.3" r="24.9" style="fill:#dfa3a5"/></g><path d="M121.1 148.4h10.3c-.4-4.6 2.6-42.4 21.7-53 13.4-7.4 32.8.8 59.4.2 48.9-1.1 67.6-8.2 67.6-8.2s15.9 30.1 15.6 44.5c-.1 6.5-.6 11.9-1 16.5h10.9c.4-3.8 1-7.5 1.8-11.2 6.5-28.8-1.6-53.3-8.7-68.4 0 0 .3-26.3-12.4-46.2-35.2 14.4-116-39.1-161 52.5-8.3 16.8-9.3 41.8-6.7 56.9 1.2 6.9 1.8 12.2 2.5 16.4z" style="fill:#8a5824"/><path class="st11" d="M283.7 290s-7.6-13.8-9.3-16.8c-7.1-12.5-11.7-20.9-11.7-20.9a19.8 19.8 0 0 0-30-5.8c-8.4 7-9.5 19.5-2.6 27.8 0 0 6.1 7.4 15.1 18.6 4.5 5.6 9.7 12.2 15.2 19.3 1.3 1.7 2.4 3.2 2.4 3.2l20.9-25.4zM136.9 286.6s5.3-21.3 25.6-37.6c8.3-6.7 19.4-9.5 27.9-2.6 8.4 7 9.5 19.4 2.6 27.8 0 0-6.1 7.4-15.1 18.6-4.5 5.6-9.7 12.2-15.2 19.3-1.4 1.9-25.8-25.5-25.8-25.5z"/><circle transform="matrix(.0075 -1 1 .0075 36.86 496.06)" class="st3" cx="268.3" cy="229.5" r="24.2"/><path style="fill:#efbf5a" d="m264.8 253.1 59.1 33.9-31.6-59.6z"/><path class="st1" d="M301.9 243.6s-12.6 4.9-1.5 18c10.2 12.1 16.2 10.5 16.2 10.5 5.3-3.2 4.4-32.1-14.7-28.5z"/></g></svg>