<svg xmlns="http://www.w3.org/2000/svg" width="851.45" height="674.07" viewBox="0 0 638.59 505.55"><path fill="#453652" d="m103.75 355.2 234.37-24.04L95.06 321.1l8.69 34.1z"/><path fill="#d3d2d3" opacity=".4" d="m579.49 401.28-95.81 17.6-44.7-19.67 93.37-9.99-8.19-3.8L0 442.08l126.04 63.47 461.25-100.32-7.8-3.95z"/><path fill="#5a1e0d" d="m536.67 251.7 10.24-93.37H534l-6.52 91.66 9.19 1.71zM607.44 312.32l31.15-144.83-12.29-1.14-27.29 143.08 8.43 2.89zM516.88 265.26l7.51 123.96h7.96l7.6-110.77 45.15 20.89-1.42-10.28-66.8-23.8z"/><path fill="#5a1e0d" d="m609.04 304.93-21.75 100.3-8.18.41 8.22-94.17-415.57 36.93 6.23 110.9-8.51 1.4-16.29-117.75 455.85-38.02z"/><path fill="#fddac2" d="M161.02 307.4 69.4 276.13l454.38-31.07 93.1 24.33-455.86 38.01z"/><path fill="#d28f89" d="m616.88 269.39-7.84 35.54-455.85 38.02 7.83-35.55 455.86-38.01z"/><path fill="#fddac2" d="m69.4 276.13 6.13 39.15 77.66 27.67 7.83-35.55-91.62-31.27z"/><path fill="#a01c2a" opacity=".2" d="m69.4 276.13 6.13 39.15 77.66 27.67 7.83-35.55-91.62-31.27z"/><path fill="#5a1e0d" d="m86.38 319.15 18.51 114.06h9.81l-11.06-103.56 50.97 23.58-1.42-10.28-66.81-23.8zM545.62 170.1l78.58 7.27-1.9 9.97-77.44-10.31.76-6.93z"/><path fill="#5a1e0d" d="m549.19 251.7 6.61-73.92 6.6 1.38-11.41 73.01-1.8-.47zM594.79 183.68l-12.65 76.63 2.39.62 16.77-76.39-6.51-.86z"/><path d="m411.7 286.5-15.73 36.2-65.13 5.92-7.85-59.23 54.3-21.65s35.06 30.94 34.4 38.76Z" fill="#a01c2a" opacity=".33"/><path d="M84.53 275.1s96.1 26.42 99.52 30.39 2.73 78.74 2.73 78.74 185.18-28.27 251.16-35.83 175.33-17.18 175.33-17.18 4.9-60.19 3.6-62.79-111.14-23.37-111.14-23.37Z" fill="#79a9c4"/><path d="m440.4 249.64 5.4 34.02-48.12-13.9L369 261.2l18.74 26.4-60.84-.64.04 12.25-240.62-24.37s107.05 25.66 112.86 31.33 5.85 75.3 5.85 75.3l152.78-22.45 25.92-3.82 13.66-1.64 22.02-55.45 35.36 38.43-5.77 10.62 164.27-15.94 3.6-60.62s-53.98 6.83-62.85 7-100.67-29.86-100.67-29.86Z" fill="#0d173f" opacity=".23"/><path d="M400.66 364.49c.3 1.6-2.48 4.58-5.33 6.73a19.25 19.25 0 0 1-2.6 1.7 11.45 11.45 0 0 1-4.8 1.03 35.2 35.2 0 0 1-9.7-1.04c-3.77-.98-13.1-.14-15.49-2.11s-1.26-11.22-1.26-11.22l14.71-4.38a36.19 36.19 0 0 0 4.76 4.17c.46.33.93.68 1.45 1.03 3.9 2.68 17.88 1.97 18.26 4.09Z" fill="#f16062"/><path d="M395.33 371.22a19.25 19.25 0 0 1-2.6 1.7 11.45 11.45 0 0 1-4.8 1.03 35.2 35.2 0 0 1-9.7-1.04c-3.77-.98-13.1-.14-15.49-2.11s-1.26-11.22-1.26-11.22l14.71-4.38a36.19 36.19 0 0 0 4.76 4.17s-6.5 1.37-9.38 4.71c-2.88 3.36 5.79 5.64 10.8 6.39a115 115 0 0 0 12.96.75Z" fill="#a01c2a" opacity=".2"/><path d="M480.86 328.6a20.21 20.21 0 0 1-2.7 2.92c-2.92 2.54-10.2 3.36-14.11 3.22-3.9-.1-12.8 2.78-15.59 1.4-1.5-.74-2.48-3.83-3.03-6.48a40.25 40.25 0 0 1-.68-4.17l8.46-4.78 4.76-2.97a32.75 32.75 0 0 0 6.46 3.51v.03l.88.33c4.4 1.75 17.88-2.08 18.72-.1.57 1.38-1.1 4.5-3.17 7.09Z" fill="#f16062"/><path d="M480.86 328.6a20.21 20.21 0 0 1-2.7 2.92c-2.92 2.54-10.2 3.36-14.11 3.22-3.9-.1-12.8 2.78-15.59 1.4-1.5-.74-2.93-5.6-3.48-8.24l8.23-7.2 4.76-2.96a32.75 32.75 0 0 0 6.46 3.51v.03s-1.2 1.34-2.6 5.3c-1.33 4.01 5.63 4.89 11.78 4.12a22.57 22.57 0 0 0 7.25-2.1Z" fill="#a01c2a" opacity=".2"/><path d="M217.43 109.72c.13.2 10.07 2.82 10.07 2.82s-3.98 5.66-6.56 7.6a12.7 12.7 0 0 1-5.74 2.26Z" fill="#e2784e"/><path d="M224.3 104.46s-7.52-7.15-13.67-6.02-5.12 7.22-.92 10.8 7.64 2.97 8.5 2.56 1-3.92.74-4.61 5.34-2.73 5.34-2.73ZM203.84 115.95s.83 4.44 4.53 6.47 7 .2 7.76-.8a3.69 3.69 0 0 0 .8-1.8Z" fill="#faac75"/><path d="m216.93 119.82-.04-.01a4.47 4.47 0 0 1-.53.87c-.76 1-4.12 2.78-7.94.67a10.16 10.16 0 0 1-4.4-5.48l-.57-.18s.92 4.5 4.74 6.6 7.18.33 7.94-.66a3.58 3.58 0 0 0 .8-1.81Z" fill="#e2784e"/><path d="M204.22 108.93s-1.64 2.41-1.62 4.22c.02 1.95 2.82 5.66 8 7.05 4.96 1.32 6.72-.48 7.38-1.42a6.3 6.3 0 0 0 .55-3.05 8.77 8.77 0 0 1-7.89-.75 20.36 20.36 0 0 1-6.42-6.05Z" fill="#faac75"/><path d="M210.89 119.5c-4.85-1.35-7.72-4.59-8.28-6.66l-.01.3c.02 1.97 2.82 5.67 8 7.06 4.93 1.32 6.7-.46 7.37-1.4-.95.9-2.9 1.88-7.08.7Z" fill="#e2784e"/><path d="M206.56 102.71a10.3 10.3 0 0 0-2.58 4.73c-.46 2.59 1.56 5.88 6.8 8.41s7.67.95 8.48-.28-1.47-3.62-1.47-3.62Z" fill="#faac75"/><path d="M211.28 115.22c-5.16-2.54-7.35-5.7-7.2-8.25a5.7 5.7 0 0 0-.1.47c-.45 2.59 1.57 5.88 6.8 8.41 4.3 2.09 6.71 1.38 7.89.38-1.38.66-3.7.8-7.39-1.02ZM210.2 108.31c-2.23-1.87-3.67-4.35-3.8-6.5-.54 2.34.83 5.33 3.3 7.44 4.2 3.59 7.64 2.96 8.5 2.55a.9.9 0 0 0 .36-.43c-1.43.27-4.55.13-8.35-3.06ZM222.15 105.3a52.66 52.66 0 0 0-5.46-3.2 10.4 10.4 0 0 0-3.7-1.21 33.47 33.47 0 0 0 2.16 3.18 15.4 15.4 0 0 0 4.1 3.07Z" fill="#e2784e"/><path d="M218.34 105.4a20.45 20.45 0 0 0-2.4.96c-.92.47-.97 4.13.82 5.32a7.87 7.87 0 0 0 4.36 1Z" fill="#e2784e"/><path d="m234.88 114.55-4.8-2.13s1.7-5.56-1.91-7.42-10.94 1.32-10.94 1.32-1.91 3.85.97 5.48a7.61 7.61 0 0 0 5.85.55 26.37 26.37 0 0 1-1.61 5.01c-1.19 2.75-5.58 4.74-5.58 4.74a31.03 31.03 0 0 0 5.99-.44 22.66 22.66 0 0 0 3.24-1.06l4.86 2.58Z" fill="#faac75"/><path d="M440.29 76.37c-.03.22-7.54 6.16-7.54 6.16s5.5 3.34 8.43 4.04a11.82 11.82 0 0 0 5.74-.22Z" fill="#e2784e"/><path d="M432.48 74.44s3.74-8.89 9.4-10.22 7.06 4.25 4.81 8.88-5.4 5.36-6.29 5.33-2.31-2.97-2.35-3.65-5.57-.34-5.57-.34ZM454.2 76.62s.94 4.1-1.45 7.2a5.99 5.99 0 0 1-6.91 2.22 3.43 3.43 0 0 1-1.37-1.23Z" fill="#faac75"/><path d="m444.48 84.8.03-.03a4.18 4.18 0 0 0 .77.55c1.03.57 4.55.84 7.03-2.39a9.46 9.46 0 0 0 1.7-6.31l.43-.36a9.91 9.91 0 0 1-1.58 7.4c-2.47 3.22-6 2.95-7.03 2.38a3.33 3.33 0 0 1-1.35-1.24Z" fill="#e2784e"/><path d="M451.26 70.78a8.93 8.93 0 0 1 2.95 2.99c.72 1.67-.3 5.88-4.2 8.99-3.73 2.98-5.9 2.1-6.81 1.54a5.87 5.87 0 0 1-1.6-2.4 8.16 8.16 0 0 0 6.44-3.58 18.95 18.95 0 0 0 3.22-7.54Z" fill="#faac75"/><path d="M449.51 82.28c3.63-2.96 4.87-6.8 4.57-8.77.05.09.1.17.13.26.71 1.67-.3 5.88-4.2 8.99-3.7 2.96-5.87 2.1-6.8 1.55 1.14.43 3.17.53 6.3-2.03Z" fill="#e2784e"/><path d="M446.95 66.34a9.59 9.59 0 0 1 3.96 3.07c1.35 2.04.85 5.6-2.66 9.7s-6.2 3.66-7.34 2.92-.1-3.63-.1-3.63Z" fill="#faac75"/><path d="M447.58 78.77c3.46-4.09 4.14-7.6 3.07-9.72l.26.36c1.35 2.04.85 5.6-2.66 9.7-2.9 3.38-5.21 3.68-6.59 3.26 1.42.06 3.45-.7 5.92-3.6ZM445.92 72.48a9.2 9.2 0 0 0 .82-6.95c1.34 1.78 1.28 4.84-.05 7.57-2.25 4.62-5.4 5.36-6.29 5.33a.84.84 0 0 1-.47-.23c1.32-.3 3.94-1.59 6-5.72ZM434.62 74.36a49.08 49.08 0 0 1 3.46-4.76 9.68 9.68 0 0 1 2.71-2.42 31.07 31.07 0 0 1-.66 3.52 14.34 14.34 0 0 1-2.35 4.14Z" fill="#e2784e"/><path d="M437.9 73.02a19.1 19.1 0 0 1 2.41-.08c.95.06 2.36 3.17 1.29 4.85a7.33 7.33 0 0 1-3.36 2.47Z" fill="#e2784e"/><path d="m427.2 86.99 3.3-3.6s-3.51-4.11-1.12-7.04 9.8-2.95 9.8-2.95 3.08 2.57 1.22 5.03a7.08 7.08 0 0 1-4.78 2.65 24.54 24.54 0 0 0 3.24 3.67c2.04 1.9 6.52 1.97 6.52 1.97a28.86 28.86 0 0 1-5.26 1.85 21.04 21.04 0 0 1-3.17.3l-3.18 4.02ZM348.71 131.32s-.99 3.46-7.73 4.68a46.84 46.84 0 0 1-11.59.33c-1.82-.15-2.99-.33-2.99-.33s2.32-2.63 2.5-5.06a8.07 8.07 0 0 0-1.62-4.82l.77-.04 15.83-1.17s-.16.15.76 2.4l.14.34a6.3 6.3 0 0 0 1.33 1.91 8.45 8.45 0 0 0 2.6 1.76Z" fill="#faac75"/><path d="M346.1 129.56a31.47 31.47 0 0 0-10.25 2.32 20.26 20.26 0 0 0-6.46 4.45c-1.82-.15-3-.33-3-.33s2.32-2.63 2.5-5.06a8.07 8.07 0 0 0-1.61-4.82l.76-.04 16.6 1.23.14.34a6.3 6.3 0 0 0 1.32 1.91Z" fill="#e2784e"/><path d="M378.25 89.84c2.9 10.52 5.07 14.66 3.87 17.85s-21.88 19.2-35.37 20.98a48.91 48.91 0 0 1-5.67.36c-17.52.39-51.32-10.8-57.78-19.07-7.28-9.33-19.53-43.93-17.02-57.26 2.46-13.33 17.66-30.48 49.11-39.13s46.96 14.21 52.34 19.95a43.5 43.5 0 0 1 3.15 4.98 48.73 48.73 0 0 1 6.04 17.22c1.61 12.3-1.55 23.6 1.33 34.13Z" fill="#faac75"/><path d="M336 116.01s8.99-5.92 17.94-7.05c8.62-1.08 13.74 1.63 13.74 1.63s-6.8 13.1-16.3 15.35c-12.76 3.04-15.37-9.93-15.37-9.93Z" fill="#5a1e0d"/><ellipse cx="425.9" cy="157.19" rx="13.87" ry="17.92" transform="rotate(-10.99 -20.73 647.54)" fill="#fff"/><path d="M320.45 85.94c.7 5.96 4.9 10.42 9.37 9.94s7.54-5.68 6.84-11.65-4.9-10.42-9.37-9.95-7.54 5.7-6.84 11.66Z" fill="#8c251c"/><path d="M323.41 86.3c.5 4.23 3.46 7.37 6.63 7.04s5.33-4.02 4.84-8.24-3.47-7.36-6.63-7.03-5.33 4.02-4.84 8.24Z" fill="#5a1e0d"/><path d="M327.56 87.2c-.22-.6-2.66-.32-5.46.63s-4.9 2.2-4.67 2.8 2.66.3 5.45-.64 4.9-2.2 4.68-2.8Z" fill="#fff"/><path d="M312.94 90.16a22.45 22.45 0 0 1-2.3-6.46c-1.9-9.72 2.67-18.78 10.2-20.24 7.17-1.4 14.43 4.65 16.72 13.64-3.28-6.02-24.73 12.62-24.62 13.06Z" fill="#e2784e"/><path d="M312.54 90.16a44.61 44.61 0 0 1 12.42-10.8c7.8-4.42 12.03-5.24 12.03-5.24l1.08 5.6s-4.46.33-11.91 3.76c-7.88 3.63-13.62 6.68-13.62 6.68Z" fill="#5a1e0d"/><ellipse cx="467.67" cy="149.22" rx="10.73" ry="17.17" transform="rotate(-3.85 -715.55 1622.95)" fill="#fff"/><path d="M362.7 77.21c.03 5.75 2.89 10.53 6.37 10.67s6.29-4.4 6.25-10.16-2.9-10.52-6.38-10.66-6.29 4.4-6.25 10.15Z" fill="#8c251c"/><path d="M364.94 77.96c.03 4.06 2.05 7.44 4.51 7.54s4.45-3.12 4.42-7.18-2.05-7.44-4.51-7.54-4.45 3.1-4.42 7.18Z" fill="#5a1e0d"/><path d="M368.06 79.34c-.12-.6-2.03-.65-4.26-.12s-3.95 1.45-3.83 2.04 2.02.65 4.25.12 3.95-1.44 3.84-2.04Z" fill="#fff"/><path d="M356.55 80.23a26.3 26.3 0 0 1-1.24-6.43c-.63-9.47 3.64-17.46 9.56-17.86 5.64-.38 10.72 6.3 11.73 15.13-2.01-6.13-20.1 8.74-20.05 9.16Z" fill="#e2784e"/><path d="M356.46 79.97a32.96 32.96 0 0 1 10.27-8.4c6.36-3.17 9.69-3.4 9.69-3.4l.36 5.46s-3.45-.27-9.47 2c-6.37 2.41-10.85 4.34-10.85 4.34Z" fill="#5a1e0d"/><path d="M342.04 102.06a63.74 63.74 0 0 0 12.33-2.13c5.23-1.64 8.97-3.14 8.97-3.14s-4.09 7.4-9.28 8.08c-3.8.48-12.02-2.81-12.02-2.81Z" fill="#e2784e"/><path d="M293.67 109.38c7.6 11.76 47.41 19.65 47.41 19.65-17.52.39-52.93-10.8-59.4-19.07-7.27-9.33-17.91-43.93-15.4-57.26 2.46-13.32 17.66-30.47 49.1-39.13s46.97 14.21 52.35 19.95c0 0 7.16 17.13 8.88 20.24-15.24-17.68-43.65-14.06-58.24-5.15-16.52 10.07-32.3 49-24.7 60.77Z" fill="#e2784e"/><path d="M336.39 117.36a37.27 37.27 0 0 1 12.72-2.92c7.51-.43 11.29 4.11 11.29 4.11a11.64 11.64 0 0 1-7.55 5.48c-5.36 1.18-9.9 1.5-12.7-1.81a47.26 47.26 0 0 1-3.76-4.86Z" fill="#83241c"/><path d="M343.62 123.26a36.48 36.48 0 0 0 7.2-.95 19.98 19.98 0 0 0 7.13-2.64l-.23 2.1s-1.68 2.24-6.92 3.2-6.75-.1-6.75-.1ZM358.38 121.36l.23-2.25 2.41-1.48.26 1.2a9.01 9.01 0 0 1-2.9 2.53ZM343.39 112.7s.37 2.02.83 1.99 8.07-1.18 11.02-1.92 4.24-1.22 4.59-1.8-.1-1.72-.1-1.72a23.06 23.06 0 0 0-8.03.59 38.35 38.35 0 0 0-8.31 2.85Z" fill="#fff"/><path d="M327.16 47.06s-9.03 1.29-15.93 10.48S305.57 78 305.57 78s1.95-9.77 7.4-15.24c5.55-5.56 14.53-5.04 14.19-15.7ZM354.7 41.8s9.55 1.43 14.72 6.13a24.18 24.18 0 0 1 6.7 10.53s-4.47-5.78-10.16-7.01-9.96-4.52-11.25-9.66Z" fill="#5a1e0d"/><ellipse cx="448.83" cy="174.53" rx="5.36" ry=".97" transform="rotate(-13.51 76.56 565.59)" fill="#fdccaa"/><ellipse cx="456.65" cy="172.78" rx="1.81" ry=".71" transform="rotate(-7.48 -176.43 912.02)" fill="#fdccaa"/><path d="M443.59 97.65a162.67 162.67 0 0 1-7.88 15.63c-3.75 6.52-8.45 13.47-13.29 17.45-8.3 6.84-31.02 15.66-36.12 21.06a95.77 95.77 0 0 0-8.75 10.77.07.07 0 0 0-.02.04s1.14 3.94 2.4 22.2a161.25 161.25 0 0 1-1.19 33.3s3.31 2.7 4.7 4.1c1.06 1.09 1.06 3.6 1 4.78a.83.83 0 0 1-.03.24 2.42 2.42 0 0 1-.02.36 2.53 2.53 0 0 1-.27.05h-.02c-2.57.52-21.87 4.3-42.54 9.76a367.15 367.15 0 0 0-19.45 5.87h-.03l-3.01 1.01a905.72 905.72 0 0 0-24.47 8.62.24.24 0 0 0-.1.04l-1.34.5-1.42-4.2.02-.03a210.97 210.97 0 0 0 12.49-26.56v-.03c3.32-8.81 5.96-18.28 5.78-25.9-.54-22.86-3.76-24.55-3.76-24.55s-2.59-1.23-6.43-2.8a114.17 114.17 0 0 0-18.49-6.2c-8.7-1.88-28.9-5.48-38.2-11.37a56.35 56.35 0 0 1-3.75-2.7c-8.41-6.7-17.34-17.41-17.34-17.41l10.57-22.07s26.54 10.21 40.6 15.3a117.16 117.16 0 0 0 22 5.96c3.83.63 7.8 1.1 12.58 1.67 1.28.15 2.51.29 3.66.45 2.34.27 4.39.54 6.16.78.72.12 1.4.2 2.05.3l.07.02c4.9.72 7.2 1.21 7.2 1.21s7.71 1.26 13.9.12c5.76-1.08 7.35-3.15 7.74-3.85l.13-.25.02-.02 2.95-1.13c1.04-.38 2.3-.85 3.76-1.37 1.9-.67 4.16-1.44 6.63-2.23 2.18-.7 4.54-1.44 7.02-2.13 11.36-3.26 24.85-10.57 30.48-16.38s25.21-24.22 25.21-24.22Z" fill="#feef5b"/><path d="m462.68 314.09-21.6 17.17s-21.38-32.15-23.34-35.66c-3.82-6.9-12.21-17.05-14.24-19.59-1.57-1.98-28.09-12.03-28.09-12.03l.05.04c.85 1 14.7 17 15.43 22.99.76 6.19-8.76 69.52-8.76 69.52l-26.48 4.15s-2.49-40.78-2.49-43.7c0-10.42 4.03-21.76 4.03-21.76s-12.28-2.74-24.38-6.39a.97.97 0 0 0-.12-.04c-8.75-2.63-17.38-5.76-21.23-8.66-6.43-4.88-12.21-16.3-15.05-22.7l-.29-.63c-1.03-2.34-1.62-3.87-1.62-3.87a.24.24 0 0 1 .1-.04 350 350 0 0 1 21.9-10.85 198.44 198.44 0 0 1 26.63-10.1 147 147 0 0 1 37.5-5.53s1.26.43 3.38 1.2h.02l.07.01h.02c9.36 3.33 35.08 12.78 46.13 21.15 14.5 10.99 32.43 65.32 32.43 65.32Z" fill="#feef5b"/><path d="M444.82 98.28c-.29 2.25-4.7 15.22-7.91 15.38-2.68.14-18.51-12.21-23.73-16.35h-.03l-1.64-1.33s-.97-.8 0-3.96 8.61-10.5 11.8-10.37c2.28.1 12.38 7.38 17.9 12.35l.37.34a1.43 1.43 0 0 1 .25.27c.02 0 .04.02.06.04.03 0 .03.03.05.05a.07.07 0 0 0 .04.02c1.79 1.67 2.91 3 2.84 3.56Z" fill="#a0ae39"/><path d="M384.43 226.98a.83.83 0 0 1-.02.25 2.42 2.42 0 0 1-.02.36s-.12 0-.36.02H384c-3.15.09-25.19 1.1-44.98 8.39a191.2 191.2 0 0 0-16.92 7.26h-.02c-1.13.57-2.23 1.1-3.3 1.65a276.8 276.8 0 0 0-22.36 12.52s-1.4-.22-3.09-2.47a10.54 10.54 0 0 1-1.6-5.74l.03-.02c.5-.31 6.68-4.32 23.41-10.23 5.92-2.1 13.16-4.43 21.93-6.93 34.62-9.83 46.34-9.83 46.34-9.83 1.21.45 1.1 3.47 1 4.77ZM317.83 192.03c-2.79 10.5-13.74 32.93-13.74 32.93s.04-.86.15-2.32v-.02c3.33-8.82 5.96-18.29 5.78-25.91-.54-22.86-3.75-24.54-3.75-24.54s-13.93-6.62-24.92-9c-8.7-1.9-28.9-5.5-38.2-11.39a56.35 56.35 0 0 1-3.75-2.7l9.26-15.16s13.7 12.38 39.23 22.68c25.55 10.32 31.06 5.26 31.99 6.39s.76 18.56-2.05 29.04Z" fill="#f2dd3d"/><path d="M360.1 133.93s14.7 14.47 17.43 28.67a165.57 165.57 0 0 1 2.73 29.53 79.25 79.25 0 0 0-29.01 4.21l-15.89 5.35s6.77-11.25 8.03-31.5-3.67-29.66-3.67-29.66 15.87-.98 20.38-6.6Z" fill="#fff" opacity=".37"/><path d="m254.7 121.65-.08.1c-3.6 8.38-13.65 26.82-15.2 28.04-1.96 1.55-21.37-9.7-20.65-12.38a87.67 87.67 0 0 1 3.85-8.3.25.25 0 0 0 .04-.09l.07-.09c4.1-8.23 9.9-19.32 9.9-19.32a15.9 15.9 0 0 1 3.84-1.3c1.83-.27 18.3 8.17 19.42 9.43.22.26-.25 1.72-1.2 3.9Z" fill="#a0ae39"/><path d="m254.7 121.65-.08.1s-12.03-9.2-16.53-9.64c-4.23-.4-14.15 14.91-15.36 16.82 4.1-8.23 9.9-19.32 9.9-19.32a15.9 15.9 0 0 1 3.85-1.3c1.82-.27 18.28 8.17 19.4 9.43.23.26-.24 1.72-1.19 3.9ZM441.59 94.34a3.94 3.94 0 0 1 .31.31c-.02-.02-.04-.04-.07-.04-1.46-1.24-13.6-11.09-17.9-10.78-4.59.34-10.75 13.48-10.75 13.48h-.03l-1.64-1.33s-.97-.8 0-3.96 8.61-10.5 11.8-10.37c2.28.1 12.38 7.38 17.9 12.35l.38.34Z" fill="#fdf7bf" opacity=".5"/><path d="M435.71 113.28c-3.75 6.52-8.45 13.47-13.29 17.45-8.3 6.84-31.02 15.66-36.12 21.06a95.77 95.77 0 0 0-8.75 10.77c.25-.7 4.52-12.26 8.75-15.57 4.34-3.42 24.52-9.13 27.5-18.06s1.72-29.78 1.72-29.78ZM458.1 317.74l-17.03 13.52c-5.06-6-21.37-32.15-23.33-35.66-3.82-6.9-12.21-17.05-14.24-19.59-1.57-1.98-28.09-12.03-28.09-12.03l-10.53-10.55s22.79 8.48 39.66 10.55c16.87 2.09 23.89 4.04 29.24 8 5.33 3.92 24.31 45.76 24.31 45.76ZM363.94 324.44c-1.77 7.49-1.23 35.14-1.23 35.14l-7.06 1.1c-.8-8.86-2.48-40.79-2.48-43.71 0-10.41 4.02-21.75 4.02-21.75s-36.55-8.17-45.73-15.1c-6.65-5.03-12.6-17.09-15.34-23.32l9.9-8.9 9.63-1.4s-6.05 19.57-5.13 25.37c.95 5.83 57.66 14.1 60.65 17.65s-5.47 27.4-7.23 34.92Z" fill="#f2dd3d"/><path d="M301.8 251.7s-1.96 20.75 22.41 29.37 40.67 8.9 40.67 12.88-3.93 10.55-4.68 20.48 1.26 45.34 1.26 45.34l2.47-.38s-3.17-38.58-.17-51.52 5.81-15.93 2.06-18.37-28.63-5.02-44.05-13.3-17.69-26.55-17.69-26.55Z" fill="#a0ae39"/><path d="M310.22 247.29s3.3 15.6 16.43 21.97 44.04 12.56 49.3 17.43-2.92 19.12-4.37 29.05-1.09 42.62-1.09 42.62l1.78-.28s-1.39-36.15 2.36-47.96 8.3-19.26 4.17-24.47c-2.87-3.61-38.11-12.05-47.65-17.7-10.77-6.37-17.25-21.74-17.25-21.74Z" fill="#a0ae39"/><path d="M327.94 240.54s8.83 12.97 21.39 21.03 34.2 15.35 35.7 23.41-1.54 18.53-3.04 30.63c-.91 7.44-3.2 41.45-3.2 41.45l1.62-.26s1.58-33.22 4.09-47.8 7.93-22.58-2.5-30.83-20.3-12.47-30.61-18.85-18.57-20.9-18.57-20.9ZM343.1 234.58s8.34 8.02 14.71 14.34a92.6 92.6 0 0 0 13.39 10.84s-7.16-7.56-12.36-13.56-12.18-12.7-12.18-12.7ZM351.76 232.14s36.93 26.62 51.36 33.93 41.62 62.32 41.62 62.32l1.5-1.17s-23.72-48.64-36.79-59.46-26.4-17.86-37.87-25.59-15.93-10.93-15.93-10.93Z" fill="#a0ae39"/><path d="M365.45 229.44s44.94 22.39 53.13 32.27c9.7 11.7 33.62 60.83 33.62 60.83l1.84-1.44s-20.45-46.59-32.37-59.67c-11.23-12.33-52.67-32.5-52.67-32.5Z" fill="#a0ae39"/><path d="M378.8 227.9s42.88 19.18 51.74 26.79 28.97 61.92 28.97 61.92l1.6-1.26s-19.32-51.1-28.18-60.66-49.5-27.07-49.5-27.07Z" fill="#a0ae39"/><path d="m294.5 256.27 2.97 3.49s13.85-15.43 42.88-24.24 44.04-7.93 44.04-7.93l.14-1.91s-6.75-2.93-45.06 8.25c-34.66 10.11-44.97 22.34-44.97 22.34Z" fill="#fdf7bf"/><path d="M361.57 126.84a28.59 28.59 0 0 1-3.06 4.89c-.52.7-1.13 1.46-1.82 2.25a38.52 38.52 0 0 1-2.7 2.78 37.24 37.24 0 0 1-3.24 2.8c-3.13 2.38-7.63 7.94-12.01 15.54a98.26 98.26 0 0 0-4.93 9.65h-.02a101.58 101.58 0 0 0-9.06 34.12c-1.96 27.83-10.96 36.28-10.06 40.38a8.54 8.54 0 0 0 1.33 3.08 6.49 6.49 0 0 0 2.56 2.22s-.11.2-.29.63c-.83 2.03-3 9.11.3 22.86 3.66 15.56 12.52 20.47 13.62 21.03-8.75-2.63-17.38-5.76-21.23-8.66-6.43-4.88-12.21-16.3-15.05-22.7 0 0-1.4-.23-3.08-2.47a10.54 10.54 0 0 1-1.6-5.74l.02-.02a211 211 0 0 0 12.49-26.57v-.02c3.33-8.82 5.96-18.29 5.78-25.91-.54-22.85-3.76-24.54-3.76-24.54s-2.58-1.24-6.43-2.81a65.84 65.84 0 0 0 2.2-22.36c-1.06-11.32-6.28-15.68-6.82-16.13 3.83.63 7.8 1.1 12.58 1.67 1.28.15 11.94 1.55 11.94 1.55l6.66.5s8.3 1.5 14.78.29c5.2-.99 6.9-2.68 7.4-3.3l.13-.26.02-.02 2.95-1.12s7.92-2.82 10.4-3.6Z" fill="#1e331a" opacity=".08"/><path d="M617.35 201.19s-24.76 3.92-45.12 28.24c-20.37 24.35-35.12 42.69-35.12 42.69s-38.16 1.7-61.24-7.83c-20.58-8.48-23.34-19.98-23.34-19.98s11.21-22.86 27.04-43.13a60.68 60.68 0 0 1 8.17-8.48c17-14.76 41.26-22.61 41.26-22.61s17.6-1.3 45.57 5.03a80.42 80.42 0 0 1 38.7 21.47 54.59 54.59 0 0 1 4.08 4.6Z" fill="#9bcade"/><path d="M617.34 201.19s-11.3 31.03-26.14 45.62c-19.8 19.45-54.1 25.32-54.1 25.32s21.79-35.81 40.12-54.46 40.12-16.48 40.12-16.48Z" fill="#79a9c4"/><path d="M613.27 196.6c-12.6 3.89-36.98 10.32-61.4 10.6-22.04.26-47.91-8.2-64.12-14.5 17-14.75 41.26-22.6 41.26-22.6s17.6-1.3 45.56 5.03a80.42 80.42 0 0 1 38.7 21.46Z" fill="#bbe5f7" opacity=".5"/><path d="M297.21 389.15c-1.96 3.85-24.1 9.85-45.34 14.06a343.22 343.22 0 0 1-25.6 4.15l-.12.02c-7.72.88-13.1.93-13.9-.22-3.2-4.64-.9-101.36-5.21-103.6-4.15-2.15-113.51-26.97-120.34-28.5l-.33-.08-.05-.14c-.25-.68-1.1-3.52 1.44-7.01a20.07 20.07 0 0 1 7.1-5.79c11.66-6.3 83.73-7.18 97.22-7.73s89.43 11.93 96.53 19.88a12.33 12.33 0 0 1 2.08 3.99c7.53 21.07 10 104.2 6.52 110.97Z" fill="#9bcade"/><path d="m226.26 407.36-.1.02c-7.73.88-13.1.93-13.9-.21-3.2-4.65-.9-101.37-5.22-103.6-4.15-2.16-113.51-26.98-120.34-28.5l-.33-.09-.05-.13c-.25-.69-1.1-3.52 1.44-7.02 23.4 4.31 123.8 22.96 126.54 27.33 3.09 4.9 11.96 112.2 11.96 112.2Z" fill="#79a9c4"/><path d="M297.21 389.15c-1.96 3.85-24.1 9.85-45.34 14.06.19-10.35 1.36-52.15 8.46-79.2 8.16-31.07 30.36-45.84 30.36-45.84 7.53 21.08 10 104.2 6.52 110.98Z" fill="#bbe5f7" opacity=".5"/><path d="M327.13 386.58c-3.05 2.68-12.06 3.74-19.76 4.15-6.6.36-12.23.22-12.23.22s3.14-98.33-6.44-112.78c-6.5-9.8-94.19-23.86-94.19-23.86l2.38-.93c8.08-3.14 34.56-13.35 42.45-14.68 9.3-1.59 82.06 18.67 88.72 29.13 6.64 10.45 4.78 113.73-.93 118.75Z" fill="#f16062"/><path d="M307.37 390.73c-6.6.36-12.23.22-12.23.22s3.14-98.33-6.44-112.78c-6.5-9.8-94.19-23.86-94.19-23.86l2.38-.93 5.62-2.15s78.32 9.3 94.38 22.6c15.59 12.94 10.78 111.28 10.48 116.9Z" fill="#a01c2a" opacity=".2"/><g fill="#5a1e0d"><path d="m154.61 353.23-28.57-153.21 14.65-1.13 23.6 155.71-9.68-1.37zM87.15 323.85l-30.5-125.42 12.75-1.36 25.47 131.38-7.72-4.6z"/><path d="m69.4 207.97 62.78 8.97 1.82 10.25-64.6-13.06v-6.16z"/><path d="m83.31 216.94 20.77 111.51h2.73L89.88 218.27l-6.57-1.33zM112.05 222.75l20.01 118.59 1.94 1.61-15.92-118.98-6.03-1.22z"/></g><path d="M376.6 53.76s-5.98-14.09-16.21-19.16-26-3.6-26-3.6 2.92-.32 10.94 1.96a31.18 31.18 0 0 1 13.07 7.67s-8.93-3.47-25.59-4.81a153.87 153.87 0 0 0-31.13.64s-2.41 26.7-9.95 42.72-4.08 26.2-4.08 26.2h-6.68a79.27 79.27 0 0 1-15.3-14.35c-5.88-7.26-10.92-16.73-9.73-27.03 2.5-21.99 22.63-34.76 23.88-35.53a.1.1 0 0 1 .06-.04s-4.91-2.44-16.91 1.1c-9.44 2.79-11.72 5.07-11.72 5.07s.38-5.97 12-9.02a29.63 29.63 0 0 1 18.27.83c-.32-.48-3.53-5.13-3.05-9.05.51-4.05 7.1-9.8 7.48-10.11a74.26 74.26 0 0 0-2.92 8.89c-1.06 4.43 1.22 8.9 1.22 8.9S301.77-1.84 338.07.1c38.27 1.99 38.53 53.66 38.53 53.66Z" fill="#5a1e0d"/><path d="M290.5 37.94c.55 4.01-1.46 31.11-11.49 43.38-2.23 2.74-9.34 8.56-13.35 9.71-5.87-7.25-10.91-16.72-9.73-27.03 2.5-21.98 22.63-34.76 23.89-35.53a.1.1 0 0 1 .06-.03s10.11 5.49 10.63 9.5Z" fill="#7c2817"/><path d="M343.69 134.7s11.16 12.25 12.77 40.4c1.68 29.3-1.08 42.2-1.08 45.01s4.9 5.52 4.45 6.3a20.6 20.6 0 0 0-.99 2.37l-2.57.61a2.76 2.76 0 0 0-.22-2.98c-1.07-1.75-3.6-2.95-3.34-6.3s4.7-24.06 1.82-47.83-12.47-37.12-12.47-37.12Z" fill="#a0ae39"/><path d="M287.65 28.44S313.07-.3 343.39 5.72s31.12 36.07 31.12 36.07-5.48-32.2-33.44-33.93-53.42 20.58-53.42 20.58Z" fill="#7c2817"/><ellipse cx="442.92" cy="217.11" rx="5.11" ry=".92" transform="rotate(-11.2 4 697.17)" fill="#a0ae39"/><ellipse cx="447.39" cy="229.89" rx="5.11" ry="1.2" transform="rotate(-11.2 8.38 710.03)" fill="#a0ae39"/><ellipse cx="451.34" cy="244.99" rx="5.11" ry="1.2" transform="rotate(-8.48 -112.84 892.22)" fill="#a0ae39"/><ellipse cx="452.61" cy="263.74" rx="5.11" ry="1.2" transform="rotate(-8.48 -111.57 910.98)" fill="#a0ae39"/><ellipse cx="350.35" cy="202.22" rx="5.11" ry="1.2" fill="#a0ae39"/><ellipse cx="348.22" cy="219.37" rx="5.11" ry="1.2" fill="#a0ae39"/><ellipse cx="341.78" cy="140.77" rx="3.23" ry="2.62" fill="#fdf7bf"/><path d="M341.88 142.83c-1.79 0-3.24-1.18-3.24-2.62l.01-.07a2.14 2.14 0 0 0-.1.63c0 1.45 1.45 2.62 3.23 2.62a2.99 2.99 0 0 0 3.23-2.56 3.17 3.17 0 0 1-3.13 2Z" fill="#b09d8d"/><ellipse cx="346.46" cy="153.26" rx="3.23" ry="2.62" fill="#fdf7bf"/><path d="M346.56 155.32c-1.79 0-3.24-1.18-3.24-2.62l.01-.07a2.14 2.14 0 0 0-.1.63c0 1.45 1.45 2.62 3.24 2.62a2.99 2.99 0 0 0 3.22-2.56 3.17 3.17 0 0 1-3.13 2Z" fill="#b09d8d"/><ellipse cx="349.7" cy="168.56" rx="3.23" ry="3.26" fill="#fdf7bf"/><path d="M349.8 171.13a3.25 3.25 0 0 1-3.24-3.26v-.08a3.23 3.23 0 1 0 6.36.85 3.23 3.23 0 0 1-3.13 2.49Z" fill="#b09d8d"/><g><ellipse cx="350.8" cy="187.2" rx="3.23" ry="3.26" fill="#fdf7bf"/><path d="M350.9 189.76a3.25 3.25 0 0 1-3.23-3.27v-.07a3.23 3.23 0 1 0 6.36.85 3.23 3.23 0 0 1-3.13 2.49Z" fill="#b09d8d"/></g><g><ellipse cx="350.1" cy="202.22" rx="3.23" ry="3.26" fill="#fdf7bf"/><path d="M350.2 204.78a3.25 3.25 0 0 1-3.24-3.26l.01-.08a3.23 3.23 0 1 0 6.36.86 3.23 3.23 0 0 1-3.13 2.48Z" fill="#b09d8d"/></g><g><ellipse cx="348.53" cy="218.95" rx="3.23" ry="3.26" fill="#fdf7bf"/><path d="M348.62 221.51a3.25 3.25 0 0 1-3.23-3.26v-.08a3.23 3.23 0 1 0 6.36.86 3.23 3.23 0 0 1-3.13 2.48Z" fill="#b09d8d"/></g><path d="M322.41 134.6a6.6 6.6 0 0 1 2.61-2.16 6.3 6.3 0 0 1 3.7-.56 20.21 20.21 0 0 0 5.67 2.05 57.58 57.58 0 0 0 7.67 1.22 26.1 26.1 0 0 1-11.35 1.9c-6.82-.26-8.3-2.46-8.3-2.46ZM343.69 134.7a8.94 8.94 0 0 0 2.41-2.9c.72-1.6 0-2.23 0-2.23a11.35 11.35 0 0 1 4.68-.8 14.2 14.2 0 0 1 3.27.55 9.23 9.23 0 0 1-4.36 3.86 14.24 14.24 0 0 1-6 1.53Z" fill="#a0ae39"/><circle cx="489.92" cy="229.22" r="4.27" fill="#fdf7bf"/><circle cx="526.22" cy="231.44" r="2.05" fill="#fdf7bf"/><circle cx="549.43" cy="193.17" r="4.58" fill="#fdf7bf"/><circle cx="566.07" cy="224.65" r="1.77" fill="#fdf7bf"/><circle cx="518.85" cy="199.72" r="1.97" fill="#fdf7bf"/><circle cx="526.88" cy="179.34" r="2.71" fill="#fdf7bf"/><circle cx="538.21" cy="266.12" r="3.26" fill="#fdf7bf"/><circle cx="499.36" cy="267.32" r="2.07" fill="#fdf7bf"/><circle cx="589.98" cy="190.33" r="1.74" fill="#fdf7bf"/><circle cx="597.84" cy="223.22" r="2.11" fill="#fdf7bf"/><circle cx="566.95" cy="252.58" r=".89" fill="#fdf7bf"/><circle cx="485.03" cy="207.73" r="2.72" fill="#fdf7bf"/><circle cx="464.39" cy="242.76" r="1.25" fill="#fdf7bf"/><circle cx="477.16" cy="256.16" r="1.27" fill="#fdf7bf"/><circle cx="238.69" cy="329.05" r="3.28" fill="#fdf7bf"/><circle cx="272.07" cy="344.99" r="1.35" fill="#fdf7bf"/><circle cx="261.39" cy="367.24" r="4.56" fill="#fdf7bf"/><circle cx="279.33" cy="384.74" r="1.92" fill="#fdf7bf"/><circle cx="274.86" cy="310.97" r="1.43" fill="#fdf7bf"/><circle cx="259.63" cy="290.81" r="1.75" fill="#fdf7bf"/><circle cx="231.4" cy="358.14" r="1.6" fill="#fdf7bf"/><circle cx="229.79" cy="381.46" r="3.34" fill="#fdf7bf"/><circle cx="248.49" cy="393.89" r="2.91" fill="#fdf7bf"/><circle cx="284.9" cy="367.77" r=".54" fill="#fdf7bf"/><circle cx="283.9" cy="283.75" r="2.65" fill="#fdf7bf"/><ellipse cx="235.52" cy="276.86" rx="1.44" ry=".72" fill="#fdf7bf"/><circle cx="231.72" cy="299.88" r="3.8" fill="#fdf7bf"/><ellipse cx="199.17" cy="270.2" rx="3.08" ry="1.01" fill="#fdf7bf"/><ellipse cx="216.59" cy="283.75" rx="3.08" ry="1.01" fill="#fdf7bf"/><ellipse cx="184.57" cy="259.76" rx="2.12" ry="1.06" fill="#fdf7bf"/><ellipse cx="168.55" cy="267.01" rx="4.26" ry="1.21" fill="#fdf7bf"/><ellipse cx="218.38" cy="263.75" rx="1.79" ry=".9" fill="#fdf7bf"/><ellipse cx="133.76" cy="265.21" rx="2.67" ry="1.23" fill="#fdf7bf"/><path d="M297.5 115.59s-2.3 4.28-13.35 4.3c-11.08.02-22.7-14.86-21.8-21.37a3.19 3.19 0 0 1 1.6-2.52c8.29-4.49 23.33 4.06 23.33 4.06Z" fill="#e2784e"/><path d="M290.66 105.7s-10.62-6.93-19.32-7.6c-5.45-.42-7.9 0-9 .42a3.19 3.19 0 0 1 1.61-2.52c8.29-4.49 23.33 4.06 23.33 4.06Z" fill="#faac75"/></svg>