<svg version="1.1" id="Слой_1" xmlns="http://www.w3.org/2000/svg" x="0" y="0" viewBox="0 0 592.6 565.3" style="enable-background:new 0 0 592.6 565.3" xml:space="preserve"><style>.st1{opacity:.4;fill:#231f20;enable-background:new}.st2{fill:#ef819b}.st3{fill:#e94963}.st4{fill:#e7e8e9}.st5{opacity:.7;fill:#273349;enable-background:new}.st6{fill:#231f20}.st7{fill:#fff}.st8{fill:#f49824}.st10{fill:#f7c2aa}.st12{fill:#a7a9ab}.st13{fill:#f1f2f2}.st14{fill:#e82e7b}.st16{fill:#ffd34f}.st17{fill:#5c2849}.st18{fill:#c16944}.st20{fill:#fccc90}.st28{fill:#b8d159}.st29{fill:#db6e60}</style><g id="Слой_1_1_"><path d="M439.8 375.1s130.1 25.2 128.8 86.5-240.6 120.5-442.3 54S2.5 310 264.7 343.9l175.1 31.2z" style="fill:#ffde74"/><ellipse class="st1" cx="127.1" cy="454.3" rx="69.1" ry="25.7"/><ellipse class="st1" cx="331.5" cy="505.8" rx="34.5" ry="12.9"/><ellipse class="st1" cx="331.5" cy="505.8" rx="34.5" ry="12.9"/><path class="st2" d="m396 100.8 27.2 6.4-12.7 14.7-18.9 7.6s-10.3-5.3-10.1-6.1 14.5-22.6 14.5-22.6zM200.6 399.3l26.1 6.3 49.7-34.5 34.8-41.1-13.1-5.4c-.1 0-63.3 55-97.5 74.7z"/><path class="st2" d="M372 297.4s37.4-122 35.7-156.4c-1.2-25.8-2.7-40.6-11.7-40.2-11 .5-48.1 33.9-66.2 100.2s-58.3 151.6-129.3 198.3L372 297.4z"/><path class="st3" d="M398.1 303.7s37.4-122 35.7-156.4c-1.3-25.8-2.7-40.6-11.8-40.2-11 .5-48.1 33.9-66.1 100.2s-58.3 151.6-129.3 198.3l171.5-101.9z"/><path class="st4" d="m512 148.6-95.8-26.9s-26 16.9-43.3 73.6S313.3 358.5 249 392.4l104.4 23.8s96.8-70.8 99-73.3 41-88.1 42.3-94.9 17.3-99.4 17.3-99.4z"/><path class="st2" d="m519.1 134 27.2 6.4-12.7 14.6-18.9 7.6s-10.3-5.3-10.1-6.1 14.5-22.5 14.5-22.5zM323.6 432.5l26.1 6.3 49.7-34.5 34.8-41.1-13.1-5.4c0 .1-63.2 55-97.5 74.7z"/><path class="st2" d="M495.1 330.6s37.4-122 35.7-156.4c-1.3-25.8-2.7-40.6-11.8-40.2-11 .5-48.1 34-66.1 100.2s-58.4 151.6-129.4 198.3l171.6-101.9z"/><path class="st3" d="M521.2 337s37.4-122 35.7-156.4c-1.3-25.8-2.7-40.6-11.7-40.2-11 .5-48.1 33.9-66.2 100.2s-58.3 151.6-129.3 198.3L521.2 337z"/><path class="st5" d="M445.1 161.6s-3.4-3.5-9.9 4.6-9.9 23.8-23 22.3-4-22.3-2.9-23.8 10.9-9.7 13.9-11.9 15-6.2 17.7-6.3 9.4 6.7 9.4 6.7l-5.2 8.4z"/><path class="st6" d="m450.3 153.2-5.2 8.4s-3.4-3.5-9.9 4.6"/><path class="st5" d="M442.8 179.3s-2.2 6.3 7.5 8.1 16.5-7.7 17.4-9.2 5.6-11.4 5.6-11.4 8-7.1 6-17.6-14.4-5.8-14.4-5.8L453 158.1l-10.2 21.2z"/><path class="st7" d="m327 315.5 83.6 17S387.4 375 363 392.9c0 0-41.9-25.3-77.3-22.4 0 0 24.2-23 41.3-55zM257.3 390.5l89.6 21.8 6.5-6.7-86.6-21.7z"/><path class="st7" d="m266.8 383.9-9.5 6.6 89.6 21.8M539.4 140.7l-21-5.6s-10.5 4.5-15.1 11.5c0 0 13.9 1.1 19.6 6.7 0-.1 11.2-11.1 16.5-12.6zM416.5 107.1l-19.5-4.9s-9.6 2.6-15.4 9.5c0 0 13.7.6 19.5 7.5-.1 0 8.3-10.1 15.4-12.1z"/><ellipse class="st7" cx="439" cy="428.1" rx="11.3" ry="5.8"/><ellipse class="st7" cx="395.6" cy="510.7" rx="9.8" ry="5.1"/><ellipse class="st7" cx="218.9" cy="360.6" rx="12.9" ry="6.7"/><ellipse class="st7" cx="46.9" cy="391.9" rx="4.9" ry="2.5"/><ellipse class="st7" cx="181.4" cy="498.5" rx="4.9" ry="2.5"/><ellipse class="st7" cx="501.9" cy="475.1" rx="4.9" ry="2.5"/><ellipse class="st7" cx="494.2" cy="409.1" rx="4.9" ry="2.5"/><path class="st8" d="m146.6 362.6-53.7-1.7-3.6 31.5s18.2 15 18.6 14.7 25.1-14.7 25.1-14.7l13.6-29.8z"/><path d="M70.5 362.6s-7.6 19.7 10.7 29.8l4.2-9.6-7.5-18.5-7.4-1.7z" style="fill:#a05516"/><path class="st10" d="M79.7 367.2s-22.9 5.9-32.9 11.8c-6.1 3.6-11 8.9-14.1 15.3l8.2 13.9H46c.4 1.2 1.5 2.1 2.7 2.1 2.2 0 7.5-6.7 7.5-6.7v-4.3l5.5-7.1s16.3-7.8 24.7-8.2-1.8-9.6-2-11-4.7-5.8-4.7-5.8z"/><path class="st8" d="m91.8 359.8-21.4 2.8s14.1 12.9 10.7 29.8l15.4-3.1 5.7-27.8-10.4-1.7z"/><path d="M148.5 365.5s-14.5 29.3-11.4 40.1c0 0 18.2-9.2 29.5-2.9s10.3 21.2 10.3 21.2l-18.6 15.9s-.7-12.4-13.4-14.1-32.9 5.5-35.2 19.2c0 0-31.6.2-32.1 0s-5.7-18.8 12.3-30.6l-.6-23.5 8.6-4.3.8-20.4 11 2.5-.8 18 20.8-1 6.4-17 12.4-3.1z" style="fill:#65a7a0"/><path class="st12" d="M197.3 422.6s-3.9-8-20.5-2.2-25.4 24.6-13.9 32c9.1 5.9 19.8-6.8 20.1-7.5s14.3-22.3 14.3-22.3z"/><path class="st13" d="M197.3 422.6s-10.2-7.5-20.4 1.3-17.5 25.3-13.7 29 28.7-1.3 34.1-13.4c0 0 6.7-11.5 0-16.9z"/><path class="st12" d="M71.2 451.1s0-8.9 17.5-11 34.9 12 26.5 22.8c-6.9 8.9-20.7 2.5-21.3 2s-22.7-13.8-22.7-13.8z"/><path class="st13" d="M71.2 451.1s5.9-11.1 18.9-7.8 26.8 15.1 25 20.1-26.4 11.3-36.5 2.9c0 0-10.9-7.4-7.4-15.2z"/><path class="st14" d="m198.5 303.4 10.8 17.4s9.2-2.7 10-8.7L186 263.8s7.9-4.4 6-13.4-16.6-28.1-16.6-28.1l-30 18.4s7.8 15 18.5 24.3c4.6 4 14.7 2.2 14.7 2.2l19.9 36.2z"/><path class="st10" d="m168.3 315.3 16.1-23.7s-3.1-6.3.8-8.3 6.1-1 6.1-1 .4-7.5 6.1-5.7 13.3 9.9 12.9 14.9-4.1 14.1-11.2 14.7l-20.4 31.5-12.1-16.2 1.7-6.2z"/><path class="st8" d="M167.7 319.6s16.7 3.7 18.2 17.4c0 0-34.8 21.6-39.3 27.4s3.6-14.5 4.6-15.3 16.5-29.5 16.5-29.5z"/><path d="M125.8 272.8s5.6-17-10.2-26.1c-12.8-7.3-28.2-3.1-33.9 10.6-5.7 13.7-16.1 25.8-21.2 13.3 0 0-4.1 34.1 23.1 32.7s37.5-11.7 37.5-11.7l4.7-18.8z" style="fill:#360d2b"/><ellipse class="st16" cx="114" cy="275.2" rx="9.6" ry="10.3"/><path class="st17" d="M138.3 270.9s.6.1 1.7.2c7.4 1.2 35.3 8.1 30.5 42.4h-32.2l-57.7-2s1.7-27.1 23.5-36.2 34.2-4.4 34.2-4.4z"/><path class="st10" d="M170.4 313.5s4.4 56.7-43.5 60.3-50-40.3-50-40.3-6.5-5-5-11.2 4.4-11.2 10-10.9c0 0 43.5-.3 55.3-18.5 0 .1 9.7 21.2 33.2 20.6z"/><ellipse class="st17" cx="114.3" cy="327.1" rx="4.6" ry="6.4"/><ellipse class="st17" cx="146.6" cy="327.1" rx="4.6" ry="6.4"/><path class="st18" d="M138.3 333.5s8.2 10.6 0 14c0 0 14.9-4.1 0-14z"/><path class="st7" d="M136 352.3s-20.6 2.9-29.8-6.2c0 0-.4 9.6 2.7 13.4s24.2 2.9 24.2 2.9.9-7.4 2.9-10.1z"/><path class="st18" d="M128.9 366s-8.7 2.1-13.2 0c-.1 0 7.3 5.6 13.2 0zM191.2 282.4l7.8 6s-1.8 7-8.4 5.4c0 0 8.5 2.8 10.8-6l-10-6.8-.2 1.4z"/><path d="M155.9 245.9s4.6 8.1 9 12.1 18.5 5.2 21.1-3.1c0 0-10.2 7.5-19.3 1.5l-10.8-10.5z" style="fill:#99134b"/><path class="st17" d="M119.6 313.5c-3.7-2-8.2-1.8-11.6.7 0 .1 5.6-8.5 11.6-.7zM153.8 315.5c-3.4-2.5-7.9-2.9-11.6-.9-.1.1 6.7-7.6 11.6.9zM97.4 308.4s-12.3 13.1-8 26.3c0 0-8.2-11.2-3.9-25.1s8.2-13.2 9.5-13.2 6 5.4 5.7 7-3.3 5-3.3 5z"/><path class="st20" d="m434.6 72.9-15.1-32.1-9.5-3.5s-5.2-7.2-2.3-12.9 15.2-9.9 15.2-9.9l7 7.8c2.1.4 3.9 1.5 5.3 3.1.4 2.7-.3 5.5-2.2 7.5l14.3 31.4-12.7 8.6z"/><path d="M443.7 65.6 427 74.1s13.3 18.3 14.3 26.7-10.2 30.3-10.2 30.3l7.4 11.8 8.4 3.6s9.3-2.8 9.9-3.3 19.9-.5 19.9-.5 15.3-25.4 24.8-31.3 25.8-6.8 25.8-6.8S522.2 85.5 515 82s-15.2 9.7-15.6 9.9-12.4 2.9-14.8 2.5-24.5-8-25.1-8.1-15-12.1-15.5-13.1-.3-7.6-.3-7.6z" style="fill:#03a388"/><path d="M517 86.1s9.5-16.3 4.3-26.8c-.6 2.6-1.5 5-2.6 7.4 0 0-4.3-21.3-18.2-27.3.5 2.4.8 4.8.9 7.2 0 0-20.1-15.1-41.3-12.5l6.7 4.3-21.7.4 14.2 7.8s39.2 13.3 39.8 13.1 15.1 22.6 15.1 22.6l2.8 3.8z" style="fill:#ec623f"/><path class="st20" d="M497.1 47.8s24.1 13.7 19.8 39-42.5 33.9-64.3 20-15-46.9-7.5-55.2c7.9-8.7 24.4-10.3 33-9.2 0 0 4.8-8.6 10.7-5.9 4.7 2 7.8 6.3 8.3 11.3z"/><path class="st7" d="M461.3 47.8s-3.1 2.7 1.4 4.7 32.4 10.6 36.8 10.4c2.4 0 4.7-1.1 6.2-3 0 0 5.6 19.3-14.5 26.1s-36.5-1.3-38.9-14.2 5.5-22.4 9-24z"/><path d="M455.2 90.5s6.1 10.4 20.2 6.8c0 0-18 9.4-20.2-6.8z" style="fill:#c18543"/><path class="st20" d="m524.5 98.6 24.7-25.4 10.1-.2s7.3-5.1 6.4-11.5-11.2-14.3-11.2-14.3l-9.1 5.1c-2.1-.3-4.2.1-6 1.2a9.28 9.28 0 0 0-.5 7.8l-24.8 23.4 10.4 13.9z"/><path class="st8" d="M413.7 144.8s6.3-14.8 13.1-16.9 17.6 2.3 19.6 7.6 5.2 6.9 5.2 6.9 10.9-13.8 19.6-9.2 13 10.7 8.8 21.6-14.6 15.8-14.6 15.8-17.4-6-17.9-6.9-2-5.3-2-5.3-9.4-7.8-20.2 12.1-16.9-6-16.8-6.8 1.9-13.4 2.4-14 2.8-4.9 2.8-4.9z"/><path class="st12" d="M407.9 141.5s13.2-1.7 16.8 6.8 2.7 16.4.8 25.8-7.8 15.6-14.3 14.2-7.8-19.5-7.8-19.5l.8-8.3 3.7-19z"/><path class="st7" d="M418.7 184.4s4.8-21.9 1.3-34-22.6-12.6-24.1 3.7 4.3 27.3 4.3 30.9 9.3 11.9 18.5-.6z"/><path class="st12" d="M462.7 144.2s10.5.3 11.3 9.8-6.6 24-11 27.7-12.7.9-13.3.4-3.4-11.3-3-12.9 16-25 16-25z"/><path class="st7" d="M471.7 160.8s2.5-11.4-6.3-15.5-12.4-1.8-17.9 9.2-10 21-6.5 25.4 11 10.1 18.5 1.9 12.2-21 12.2-21z"/><path d="m201 479.8 14.1-47.2s7.7-11.3 36.3-6.3 23.8 16.9 23.8 16.9l2.2 47.9s-3.8 8.8-26 7.2c0 0 1.6-17 .9-24s-7.7-10.7-13-9.8-10.3 4.4-13.4 30.4c-.2-.1-16.1-1.6-24.9-15.1z" style="fill:#f4c74a"/><path d="M231 428.6s-9.5-.5-10.9 5.1 29.4 16.2 50.3 10.6c0 0-30.3 8.2-52.6-7 .1 0-7.9-9.4 13.2-8.7z" style="fill:#bb880e"/><path class="st14" d="m302.6 453.7 5.1 49.8s5.4 12.2 25 12.2 22.6-11 22.6-11l7.5-50.9-60.2-.1z"/><path class="st7" d="M313 473.1s17.8 20.5 34.7 18 11.7-13.7 11.7-13.7 4 4.4 3.5 10.1-5.5 11.1-20.3 10-27.9-13-32.5-20.3c0 0-1.3-4.6 2.9-4.1z"/><circle class="st16" cx="312.8" cy="475.1" r="8"/><ellipse cx="332.8" cy="453.7" rx="30.1" ry="10.6" style="fill:#f29fc5"/><ellipse cx="332.8" cy="453.7" rx="22.6" ry="7.9" style="fill:#ae1353"/><path class="st28" d="M29.8 466.4h2.8s4.9-2.6 3.4-5.9-6.2 0-6.2 0 4.3-10-2-13.3-1.3 11.8-1.3 11.8-4.6-13.5-8.7-10.4 3.9 7.9 3.9 7.9-5.2-3.6-7.5-1.1 2.6 5.3 2.6 5.3l13 5.7zM278.6 550.8s-9.9 1-9.7-4 9.1-1.7 9.1-1.7-3.7-9.7 1.8-11.1 6.8 8.8 5.5 10.4 1.7-7.7 6.8-3.3-2.5 8.6-2.5 8.6 10.1-4.8 12.4 1.1-4.2 6.3-6.6 6.2-11.6-2-11.6-2l-5.2-4.2zM512 515.6s5.6-8.8 0-9.9-4.9 8.7-4.9 8.7-1.9-7.7-6.6-3.7c-4.7 4 2.2 5.4 2.2 5.4s-10.1-.9-8.3 3 9.9 3.1 9.9 3.1 13.4-6.3 14.1-6.1 3.5-12.8-6.4-.5zM512 344.4s5.6-8.8 0-9.9-4.9 8.6-4.9 8.6-1.9-7.7-6.6-3.7 2.2 5.4 2.2 5.4-10.1-.9-8.3 3 9.9 3.1 9.9 3.1 13.4-6.3 14.1-6.1 3.5-12.7-6.4-.4z"/><path class="st6" d="M110.3 266.2s-4 1.9-5.2 7.8c0 0 4.2-2.2 6.9-2.5-.1 0-3-1.5-1.7-5.3z"/><path class="st29" d="m556.3 49.5-1.7-1.4s-5 2.5-8 4.5c0 0 5.1 2.4 6.4 4.2s2 6 2 6-3.6 3.2-5.1 2.7-3.3-6.4-3.3-6.4c-.4 3 .7 5.9 3.1 7.8 0 0 5.8-1 7-4 0 0-.9-4.6-2.7-7.1M428.7 23s-5.7.1-7.5 1.1-4.3 4.7-4.3 4.7 2 4.3 3.5 4.5 5.6-4.5 5.6-4.5a8.5 8.5 0 0 1-6.1 5.8s-4.9-3.3-4.8-6.5c0 0 2.7-3.8 5.4-5.4 1.5-.9 3.2-1.5 5-1.8 0 0-2.2-4.3-4.4-4.9l2.1-.5s3.6 4.4 5.5 7.5z"/><path class="st4" d="M448 157.5s6.2-12.4 10.1-12.4 12.6 4.4 12.8 13.1-8.3 12.9-8.3 12.9-1-13.9-14.6-13.6zM418.5 167.4s1.1-10.8-1-15.4-7.6-10.4-13.7-6.9-7.6 9-6.7 16c0 0 13.7-3.5 21.4 6.3z"/><path class="st1" d="m272.9 446.5 2.5 44.4s-1.6 7.1-21.5 6.8c0 0 3.2-6.6 4.8-9.1s0-39.8 0-39.8 10.1 1 14.2-2.3zM305.5 475.1s.7 5.9 5.3 6.7 7.1-1.6 8.5-4.7c0 .1-9.8 4.4-13.8-2zM307.3 483.1l1.4 19.5s1.8 4 4.8 5.1l-1.1-23s-3.3.2-5.1-1.6zM311.8 465.9s-5.2.8-6.3 3l-.8-9.8s5 3.3 7.1 3.4v3.4z"/><path class="st1" d="m307.3 483.1 1.4 19.5s1.8 4 4.8 5.1l-1.1-23s-3.3.2-5.1-1.6zM311.8 465.9s-5.2.8-6.3 3l-.8-9.8s5 3.3 7.1 3.4v3.4z"/><path class="st7" d="M351.6 464.2c-4.8 2-10.1 2.7-15.2 2v21.5s4.6 2.9 11.7 1.3l3.5-24.8zM346.9 498.5s-6.7.1-10.5-.8V514s5.6.1 9-2l1.5-13.5z"/></g></svg>