<svg id="Слой_1" data-name="Слой 1" xmlns="http://www.w3.org/2000/svg" viewBox="0 0 390.89 425.28"><defs><clipPath id="clip-path"><path class="cls-1" d="M119.58 334.59s-23.16 4.73-42.84-6.28a6.07 6.07 0 0 0-6.86 2.41c-2.68 3.88.73 6.56 4.54 8s33.79 16.39 49.65 9.84-4.49-13.97-4.49-13.97Z"/></clipPath><clipPath id="clip-path-2"><path class="cls-1" d="M210.57 289.88s14.31 7.75 23 17.59 11.92 17.29 12.22 18.78-5.37 4.77-7.75 2.38-17.29-15.85-25-19-9.15-20.71-2.47-19.75Z"/></clipPath><clipPath id="clip-path-3"><path class="cls-2" d="M183.45 281.24s27.28 1.15 37.41 8.61a13.37 13.37 0 0 0-9.86 10.51 34.58 34.58 0 0 0 .15 15.36 29.07 29.07 0 0 0-16.39-7.14c-9.84-.8-21.76 6.35-30.7 14.7s-30.23 28.62-40 30.11-14.36-18.2-12.06-21.48c0 0 15.11-5.66 18.39-12.22s3.33-11.75 5.39-13.48 34.55-22.59 47.67-24.97Z"/></clipPath><clipPath id="clip-path-4"><path class="cls-3" d="M122.41 226.77s-8.7 5.33-15.42 6.5-28.47 3.6-40.1-3.58-15.5-17.15-17.89-16.93c0 0-3 14.18-10.73 18.08 0 0 11.91 12.84 33.23 16.72s40.5-3.19 40.5-3.19 1.24 32.06 10.41 45.47 10.09 18.36 13.37 18.73c9.64 1.09 28-3.81 37.24-11.86s13.71-15.48 12.52-19.05-11.33-9.54-19.38-20.57-12.87-27-20.74-30.32-15.49-2.01-23.01 0Z"/></clipPath><clipPath id="clip-path-5"><path class="cls-1" d="M113.15 283.62s-6.56-3.95-7.23-3.73-1.3 1.93-4.79 1.86-8.18 0-9.52 1.87 1.12 4.1 1.12 4.1-3.35 2.68-3.35 5.37 4.8 4.92 4.8 4.92-2.13 2.91 0 4.69 14.58 1.79 19-.89 3.27-16.28-.03-18.19Z"/></clipPath><clipPath id="clip-path-6"><path class="cls-4" d="M84.78 192.66s7.75-3.45 0-9.9c0 0 6.56-6-1.49-11 0 0 11.92-1.3 9.84-11.19 0 0 6.86.84 8.35-4.53 0 0 8.94 6 12.82-2.09 0 0 11.33 1.49 14.9-10.14 0 0 6 11 15.2 4.47 0 0 2.38 8.35 9.54 6.26 0 0 3 12.63 10.73 6s-1.49-6.91-1.49-6.91 3-10.14-6.56-9.84c0 0 .89-13.71-11.92-13.41 0 0-4.77-13.71-15.2-6.26 0 0-12.82-11-21.46 0 0 0-14-11.92-21.76 4.17 0 0-20.87 1.49-14.9 16.39 0 0-18.78 7.27-9.54 15.85 0 0-9.29 5.44-2.56 11.19 0 0-8.47 4-7.58 11s10.14 9.9 10.14 9.9-4.17 7.41 5.37 7.6c0 0-3 12.11 10.43 8.54s7.14-16.1 7.14-16.1Z"/></clipPath><style>.cls-1{fill:#fbcfb8}.cls-2{fill:#1e393f}.cls-3{fill:#97d5eb}.cls-4{fill:#301d10}.cls-7{fill:#fff}.cls-8{fill:#7fae29}.cls-9{fill:#8bbe23}.cls-10{fill:#a7c829}.cls-13{fill:#56b4e4}.cls-14{fill:#f7e92a}.cls-15{fill:#84d0f5}.cls-16{fill:#fdf291}.cls-17{fill:#399ec6}.cls-19{fill:#a3a3a2}.cls-20{fill:#878787}.cls-22{fill:#f6bea4}.cls-26{fill:#112528}.cls-29{fill:#64bed1}.cls-32{fill:#ca8d78}.cls-34{fill:#0f0b07}.cls-35{fill:#010101}.cls-36{fill:#e7a980}.cls-37{fill:#25180e}.cls-41{fill:#47a4bd}.cls-42{fill:#267b8e}.cls-43{fill:#acdbe5}</style></defs><path d="M51.62 394.61S6 328.49 5.17 219.13 63.24 87.48 143.54 77.87c114.28-13.67 173.78 77.8 152.75 185.83s-53.09 137-53.09 137-182.82-11.58-191.58-6.09Z" style="fill:#c1e4f2"/><path d="M56.19 391.1S20 338.66 19.35 251.91s46.06-104.42 109.75-112c90.64-10.91 137.83 61.68 121.15 147.36S208.14 395.9 208.14 395.9s-145.01-9.15-151.95-4.8Z" style="fill:#dff1f7"/><path class="cls-7" d="M226.48 228.68c-5.46.18-16.29-4.92-13.13-12.23s17.42-6.23 19.54.41c0 0 .48-16.53 18.4-18.37s14.27 19.81 14.27 19.81 29.24-10.93 19.74 3.06-46.19 6.9-58.82 7.32ZM132.94 119.57c-8.06-3.32-3.62-17.05 4-17.61s16.39 7.79 16.39 7.79-3.38-17 7.11-19.82 20.83 3.67 19.78 15.8c0 0 17-6.26 14 6.5s-49.05 12.39-61.28 7.34Z"/><path class="cls-8" d="M156.06 372.13c-83.35 4.36-110.72 10.87-113.19 28s109 19.14 128.31 18.13 109-2 111-18.13-85.11-30.13-126.12-28Z"/><path class="cls-9" d="M182.29 375.81c40.32 3.66 67.9 7.44 79 21.25 9.77 12.19-41.81 11.25-79.64 11.21S57.81 406.54 60.86 394c3.55-14.6 77.93-22.13 121.43-18.19Z"/><path class="cls-8" d="M161.8 376.21c34.8.11 93.37 9.29 69 17.42s-122.09 1.55-136.23-3.5 37.07-14.02 67.23-13.92ZM241.83 382.69s3.56-6.75-1.25-11.16-4.75 5.15-4.75 5.15a12.75 12.75 0 0 0-10.72-8.9c-8.74-1.15-4.62 6.46-4.62 6.46s-20.87-10.81-11.39 1.76c0 0 24.79 4 32.73 6.69Z"/><path class="cls-9" d="M186.7 399.89s-1-12.73-11.83-14.22-2.72 12.33-2.72 12.33-6.83-9.08-13.11-6.79-1.91 7.92-1.91 7.92 22.62 1.68 29.57.76Z"/><path class="cls-8" d="M125.23 382s1.42-4.16-6.45-5-5.63 3.88-5.63 3.88-7.26-4.51-13.24-1.89 7.09 5.3 7.09 5.3 14.94 1.24 18.23-2.29ZM254.74 408.1s5.08-5.91-1-9.42-6.59 4.53-6.59 4.53-2.86-8.5-11.19-8.06-.21 8.35-.21 8.35-18.19-.55-11.73 6.28 23.25 1.32 30.72-1.68Z"/><path class="cls-9" d="M142.93 375.07s1.24-2.64-3-3.63-3.57 1.72-3.57 1.72-11.48-4-8.48 1.82 15.05.09 15.05.09Z"/><path class="cls-8" d="M88.85 406.3s6.66-2.67 3.3-8.35c-1.89-3.2-6.42-2-6.35 1.38 0 0-3.21-6.93-8.8-5.19s-1.29 8.41-.23 9 12.08 3.16 12.08 3.16ZM165.48 410.72s5.33-8.6-1.4-11.3-5 5.5-5 5.5-6-8.28-14.74-9-2.57 7.07-2.57 7.07-19.24-3.43-10.59 6.87 34.3.86 34.3.86Z"/><path class="cls-9" d="M121.84 396.71s4-6.08-2-9.13-2.35 5.29-2.35 5.29-17.37-7.07-12.22.78 11.22 3.7 16.57 3.06Z"/><path class="cls-10" d="M198.18 403.17a7.16 7.16 0 0 0-1.66-3 5.29 5.29 0 0 0-2.9-1.85 1.57 1.57 0 0 0-1.74 2.27 10 10 0 0 0 2 2.18 21.24 21.24 0 0 0 2.25 1.94c1.03.76 2.33-.49 2.05-1.54ZM194.18 404.86a6.64 6.64 0 0 0-1.88-2.9 6.33 6.33 0 0 0-3.92-1.58 1.59 1.59 0 0 0-.78 3c1.47 1 3.22 1.49 4.55 2.69.85.68 2.5 0 2.03-1.21ZM186.73 404c-1.51-.28-3.18-1.14-4.74-.74a1.49 1.49 0 0 0-.67 2.47c1.45 1.53 3.64.86 5.4.53a1.18 1.18 0 0 0 .01-2.26ZM244.23 388.57c-.16-1.19-1.72-1.32-2.46-.67-1.34 1.2-1.35 3.69-.42 5.21a1 1 0 0 0 2 0 7.29 7.29 0 0 0 .88-4.54ZM248.39 390.83a1.54 1.54 0 0 0-1.45-.75 2.61 2.61 0 0 0-2.41 1.68 4.93 4.93 0 0 0-.4 1.56 3.12 3.12 0 0 0 0 .44 1.55 1.55 0 0 0 .2.77q-.08-.23 0 0a1.41 1.41 0 0 0 1 1 1.34 1.34 0 0 0 1.52-.64q.13-.24 0 0l.25-.33.13-.32a4 4 0 0 1 .29-.51l.29-.35a2.93 2.93 0 0 0 .63-1 1.6 1.6 0 0 0-.05-1.55ZM251.08 396.32ZM251.08 396.32ZM252 393.74c-.82-1-2.81-.57-3.65.44a1.31 1.31 0 0 0-.66 1.12 1.29 1.29 0 0 0 1 1.26h.34a2.5 2.5 0 0 0 1.35 0l.27-.06a4.68 4.68 0 0 0 .46-.16 2 2 0 0 0 1.16-.88 1.47 1.47 0 0 0-.27-1.72ZM88.35 387.83a5.82 5.82 0 0 0-.79-1.85 4.83 4.83 0 0 0-4-2.55 1.61 1.61 0 0 0-1.38 2.37 16.58 16.58 0 0 0 2.28 2.5 9.9 9.9 0 0 1 .77 1.05l.46.66.24.32q.59.42.1.11a1.27 1.27 0 0 0 2.35-.62 10.76 10.76 0 0 0-.03-1.99Z"/><path class="cls-10" d="M85.77 390a4.59 4.59 0 0 0-3.46-3.54 1.86 1.86 0 0 0-2.06.87 1.83 1.83 0 0 0 .3 2.2 7.6 7.6 0 0 0 1.67 1.05c.24.11.46.26.69.38 0 0 .44.29.17.08l.33.25q-.16-.16 0 0a1.39 1.39 0 0 0 2.36-1.29ZM78.41 389.57c-.41-.05-.86-.16-1.3-.21.23 0-.33-.08-.38-.09a1.15 1.15 0 0 0-.53 0l-.63.14a1.11 1.11 0 0 0-.67 1.59 2.33 2.33 0 0 0 .76.91 4.59 4.59 0 0 0 .93.35 4.93 4.93 0 0 0 1.82 0 1.34 1.34 0 0 0 0-2.69ZM198.18 403.17a7.16 7.16 0 0 0-1.66-3 5.29 5.29 0 0 0-2.9-1.85 1.57 1.57 0 0 0-1.74 2.27 10 10 0 0 0 2 2.18 21.24 21.24 0 0 0 2.25 1.94c1.03.76 2.33-.49 2.05-1.54ZM194.18 404.86a6.64 6.64 0 0 0-1.88-2.9 6.33 6.33 0 0 0-3.92-1.58 1.59 1.59 0 0 0-.78 3c1.47 1 3.22 1.49 4.55 2.69.85.68 2.5 0 2.03-1.21ZM186.73 404c-1.51-.28-3.18-1.14-4.74-.74a1.49 1.49 0 0 0-.67 2.47c1.45 1.53 3.64.86 5.4.53a1.18 1.18 0 0 0 .01-2.26ZM244.23 388.57c-.16-1.19-1.72-1.32-2.46-.67-1.34 1.2-1.35 3.69-.42 5.21a1 1 0 0 0 2 0 7.29 7.29 0 0 0 .88-4.54ZM248.39 390.83a1.54 1.54 0 0 0-1.45-.75 2.61 2.61 0 0 0-2.41 1.68 4.93 4.93 0 0 0-.4 1.56 3.12 3.12 0 0 0 0 .44 1.55 1.55 0 0 0 .2.77q-.08-.23 0 0a1.41 1.41 0 0 0 1 1 1.34 1.34 0 0 0 1.52-.64q.13-.24 0 0l.25-.33.13-.32a4 4 0 0 1 .29-.51l.29-.35a2.93 2.93 0 0 0 .63-1 1.6 1.6 0 0 0-.05-1.55ZM251.08 396.32ZM251.08 396.32ZM252 393.74c-.82-1-2.81-.57-3.65.44a1.31 1.31 0 0 0-.66 1.12 1.29 1.29 0 0 0 1 1.26h.34a2.5 2.5 0 0 0 1.35 0l.27-.06a4.68 4.68 0 0 0 .46-.16 2 2 0 0 0 1.16-.88 1.47 1.47 0 0 0-.27-1.72Z"/><path class="cls-10" d="M88.35 387.83a5.82 5.82 0 0 0-.79-1.85 4.83 4.83 0 0 0-4-2.55 1.61 1.61 0 0 0-1.38 2.37 16.58 16.58 0 0 0 2.28 2.5 9.9 9.9 0 0 1 .77 1.05l.46.66.24.32q.59.42.1.11a1.27 1.27 0 0 0 2.35-.62 10.76 10.76 0 0 0-.03-1.99Z"/><path class="cls-10" d="M85.77 390a4.59 4.59 0 0 0-3.46-3.54 1.86 1.86 0 0 0-2.06.87 1.83 1.83 0 0 0 .3 2.2 7.6 7.6 0 0 0 1.67 1.05c.24.11.46.26.69.38 0 0 .44.29.17.08l.33.25q-.16-.16 0 0a1.39 1.39 0 0 0 2.36-1.29ZM78.41 389.57c-.41-.05-.86-.16-1.3-.21.23 0-.33-.08-.38-.09a1.15 1.15 0 0 0-.53 0l-.63.14a1.11 1.11 0 0 0-.67 1.59 2.33 2.33 0 0 0 .76.91 4.59 4.59 0 0 0 .93.35 4.93 4.93 0 0 0 1.82 0 1.34 1.34 0 0 0 0-2.69Z"/><path d="M53.34 304.12c-12.21 0-23.41-2.72-30.49-8.94-6.25-5.49-12-16.17-4-35.91 20.78-51.19 13.11-69.81 5.7-87.83a106.73 106.73 0 0 1-5.79-16.73c-5.79-25-4.09-44.19 5.21-58.65 8.44-13.12 23.13-21.88 43.67-26 32.55-6.61 60.57 7 78.33 19.62 22.88 16.23 38.42 37 45.32 51.12 6.47 13.2 11.82 16.21 15.17 16.41 4.26.25 7.08-4 7.11-4a2 2 0 1 1 3.38 2.2c-.17.25-4.09 6.22-10.73 5.82-6.42-.39-12.66-6.66-18.55-18.66-13-26.42-61-80.37-119.23-68.56C49 77.9 35.16 86.07 27.33 98.24c-8.68 13.49-10.21 31.67-4.67 55.56a102 102 0 0 0 5.6 16.11c7.74 18.76 15.74 38.16-5.7 90.87-5.72 14.09-4.73 24.64 2.93 31.37 14.43 12.67 49.54 8.93 70.1-2.74a2 2 0 0 1 2 3.51c-12.3 6.98-29.05 11.2-44.25 11.2Z" style="fill:#8e3939"/><path d="M104.83 291.92c-.45 9.78 1.56 21.29 1.12 22.86s-10.51 1.34-11.69.89.51-9.84 1.18-17.44 0-27.95 0-27.95c2.24-.89 10.51 0 10.51 0 1.11 2.24-.68 11.85-1.12 21.64Z" style="fill:#ae4418"/><path class="cls-13" d="m205.25 66.27 9.45 90.89 37.52-79.07-46.97-11.82z"/><path class="cls-14" d="m298.8 11.01-93.65 54.26.1 1 46.97 11.82 46.58-67.08z"/><path class="cls-13" d="m252.22 78.09 49.58 17.54c.55-8.39-3-84.62-3-84.62Z"/><path class="cls-14" d="M214.7 157.16v.17s86.25-56.22 87-61.18v-.52l-49.48-17.54Z"/><path class="cls-15" d="m261.67 75.09 34.49 12.68v-64c-.01-2.04-31.84 48.07-34.49 51.32Z"/><path class="cls-16" d="M287.53 20.73s-36.17 50.06-37.95 52.12c0 0-31.17-9.25-33-9.53s67.3-42.32 70.95-42.59ZM254.59 84.17l-31.54 64.71 73.1-51.69-41.56-13.02z"/><path class="cls-15" d="M246.34 79.51s-29.83-6.66-35.67-6.66c-1.75 0 5.84 72.69 5.84 72.69s28.87-63.38 29.83-66.03Z"/><path class="cls-17" d="M239.8 35.66a20.91 20.91 0 0 0-13.06 7.16.9.9 0 0 0 1.08 1.42 70 70 0 0 0 6.12-3.89c2-1.26 4.08-2.49 6.11-3.78.36-.23.27-.97-.25-.91ZM231.76 32.65a6.94 6.94 0 0 0-5.91 3.78.91.91 0 0 0 1.59.9c1.07-1.59 3.1-2.5 4.61-3.6.42-.31.34-1.11-.29-1.08ZM310.49 60.82c-.33-1.59-.69-3.18-.86-4.8a6 6 0 0 0-.7-1.7.43.43 0 0 0-.71-.19c-1.66 1.49-1.13 3.87-.81 6 .44 2.92.61 7.25 2.69 9.54a.87.87 0 0 0 1.44-.39c.88-2.55-.54-5.97-1.05-8.46ZM315.69 57c-.39-.64-1.49-.25-1.25.51a22.86 22.86 0 0 1 .84 5.72c.09 1.61-.07 3.21.68 4.68a.7.7 0 0 0 1.21 0c1.6-3.14.29-8.05-1.48-10.91ZM27.05 73.37c-2.22.07-4.16 2.05-5.36 3.76a7.84 7.84 0 0 0-1.3 6 .84.84 0 0 0 1.62 0 11.33 11.33 0 0 1 2.15-4.72c1.09-1.34 2.77-2.35 3.58-3.87a.8.8 0 0 0-.69-1.17ZM21 70.56c-3.4.74-5.86 5.49-5.71 8.73a.77.77 0 0 0 1.54 0 8.9 8.9 0 0 1 2-4.35c.92-1.14 2.25-2 2.92-3.35a.71.71 0 0 0-.75-1.03Z"/><path d="M220.86 289.84s2.68 10.05 0 16.37-9.69 9.5-9.69 9.5-6.52-13.53-4.9-19.53 8.73-8.46 14.59-6.34Z" style="fill:#091416"/><path class="cls-19" d="M71.51 333.23S66.89 341.45 66 345s-2.38 11.33-7.15 12.52-11.89-1-13.1-4.09 2-17.37 9.77-22.44c0 0 5.41-10.72 9.58-10.72s12.54 7.15 11.63 10.13-5.22 2.83-5.22 2.83Z"/><path class="cls-20" d="M63.43 325.49c-1.52-1.68-6.76 3.64-4.2 5.83s6.62-3.15 4.2-5.83ZM69.25 331.84c-1.91.58-7.24 4-7.9 7.24s3.32 11.11 4.15 8 3.84-10.91 5.42-12.63.23-3.18-1.67-2.61Z"/><path class="cls-1" d="M119.58 334.59s-23.16 4.73-42.84-6.28a6.07 6.07 0 0 0-6.86 2.41c-2.68 3.88.73 6.56 4.54 8s33.79 16.39 49.65 9.84-4.49-13.97-4.49-13.97Z"/><path class="cls-22" d="M68.92 330.6s20.45 13 33.8 12.61c0 0 4.21-5.67 10.06-8.22s26 .18 22.32 12.06-53.75 1-63.44-7.89-8.58-10.94-2.74-8.56Z" style="clip-path:url(#clip-path)"/><path class="cls-1" d="M210.57 289.88s14.31 7.75 23 17.59 11.92 17.29 12.22 18.78-5.37 4.77-7.75 2.38-17.29-15.85-25-19-9.15-20.71-2.47-19.75Z"/><path class="cls-22" d="M217.25 293.95s-5.57 4.37-3.22 10.17c1.1 2.71 22 14.6 26.45 23.92s-3.79.39-7.63-2.55-21.94-14.84-24.22-15.83-6.67-4.29-5.57-12 4.99-14.59 14.19-3.71Z" style="clip-path:url(#clip-path-2)"/><path class="cls-19" d="M245.08 324.64s6.33-1.38 9.31-3.76 3.28-8.73 4.77-11.22 11.92-.4 14.61 3.77-6.56 16.69-10.73 19.38a23.23 23.23 0 0 1-7.15 3.28s-2.68 5.37-6.86 6.26-15.39-9-11.77-14.42c1.63-2.44 7.82-3.29 7.82-3.29Z"/><path class="cls-20" d="M249.3 327.31c-3.56-1.06-5.48 4.39-2.38 5.3s7.17-3.88 2.38-5.3Z"/><path d="M248.44 342.39s-5.13-2.48-2.68-4.85 9.64-5.83 9.64-5.83a33.4 33.4 0 0 0 12.18-12.82c2.25-4 4.7-7.1 6.19-5.47s-.59 6.78-2.31 9.44-4.81 10.17-15.58 13.22a10 10 0 0 1-7.44 6.31Z" style="fill:#c2c1c1"/><path class="cls-2" d="M183.45 281.24s27.28 1.15 37.41 8.61a13.37 13.37 0 0 0-9.86 10.51 34.58 34.58 0 0 0 .15 15.36 29.07 29.07 0 0 0-16.39-7.14c-9.84-.8-21.76 6.35-30.7 14.7s-30.23 28.62-40 30.11-14.36-18.2-12.06-21.48c0 0 15.11-5.66 18.39-12.22s3.33-11.75 5.39-13.48 34.55-22.59 47.67-24.97Z"/><g style="clip-path:url(#clip-path-3)"><path class="cls-26" d="M182.52 286.49s-8.43 15.94-25.43 23.17-20.85 12.34-23.86 15.83-13.75 14.11-21.4 16.73c0 0-5.09-7.84-3.76-12.75s18.87-25.2 23.53-28.49 42.5-27 51.82-15.85M171.17 317.4s15-12.69 19.92-13.45 19.33 7.4 19.33 7.4 3.78 5 2.37 7.19-18.41-10.07-22-8.87-19.62 7.73-19.62 7.73Z"/></g><path class="cls-26" d="M169.43 312.78s8.22-9.74 13.43-10.08c.01 0-9.31-1.44-13.43 10.08Z"/><path class="cls-22" d="M32.08 224.61s6 5.62 9.51 4.69S48 223.2 47 220c-5.06-16.53-11.18-7.52-14.92 4.61Z"/><path class="cls-22" d="M26.94 218.5s-2.63 2-2.08 4.66 4.45 3.54 7.18 3.11 7-1.05 7.18-3.69.66-4.58-2.37-4.68-7.08-.47-9.91.6Z"/><path class="cls-22" d="M26.35 211.65a7.74 7.74 0 0 0-3.78 4c-1 2.77 1.79 5.08 4.78 5.22s11.28-.69 12.21-3-1.26-6.41-4-6.92-8.02-.42-9.21.7Z"/><path class="cls-22" d="M35.84 206s-6.9 0-9.89.76-3.78 5-.8 6 8.82-.13 10.68-1.11 3.7-5.78.01-5.65Z"/><path class="cls-1" d="M33.83 206a50.25 50.25 0 0 0-8.3.64c-2.51.63-3.18 4.16-.67 5.07s7.41-.11 9-.94 3.07-4.88-.03-4.77ZM34.91 212s-6.39 0-9.16.7-3.5 4.59-.74 5.59 8.18-.12 9.9-1 3.42-5.34 0-5.29ZM36.39 218.72s-6.24 0-8.95.69-3.18 3.92-.48 4.9 8-.12 9.67-1 3.1-4.67-.24-4.59Z"/><path class="cls-1" d="M49.9 216.7s-5.57-12.87-8-13.24-6.64-.22-8.23 1.56-.27 8.08-2.12 9.71 4 4.89 5.57 1.8 2.39-4.4 2.39-4.4-2 7 2.39 8.74 7.47-.38 8-4.17Z"/><path d="M33.22 206s0 5.67-.83 7.22-1.27 3.25-.31 3.85 4.21 1.17 5.09-.5 2.39-4.4 2.39-4.4-1.69 7.46 4.4 9.29c0 0-6.47.59-5.67-5.64a4 4 0 0 1-3.13 2.94c-2.66.56-4.48-.27-4.53-2.94s2.37-3.16 2.59-9.82Z" style="fill:#d17c5d"/><path class="cls-3" d="M122.41 226.77s-8.7 5.33-15.42 6.5-28.47 3.6-40.1-3.58-15.5-17.15-17.89-16.93c0 0-3 14.18-10.73 18.08 0 0 11.91 12.84 33.23 16.72s40.5-3.19 40.5-3.19 1.24 32.06 10.41 45.47 10.09 18.36 13.37 18.73c9.64 1.09 28-3.81 37.24-11.86s13.71-15.48 12.52-19.05-11.33-9.54-19.38-20.57-12.87-27-20.74-30.32-15.49-2.01-23.01 0Z"/><path class="cls-29" d="M42.77 224.81s12.29 14.86 38.13 18 34.1-2.32 34.1-2.32 1.84 29.39 10.43 43.87c5.26 8.86 19.46 21.36 39.89 17.44s-19.14 12.35-29.7 10.16-26.95-30.52-28.16-55c0 0-61.17-4-70.3-25.41Z" style="clip-path:url(#clip-path-4)"/><path class="cls-29" d="M119.16 281.24s0-4.74 9-11.35a28.46 28.46 0 0 0 11.7-21.72c.73-10.24 3.39-18.3 6.08-20s7.44 24 3.79 33.73-25.8 28.22-30.57 19.34Z"/><path class="cls-1" d="M113.15 283.62s-6.56-3.95-7.23-3.73-1.3 1.93-4.79 1.86-8.18 0-9.52 1.87 1.12 4.1 1.12 4.1-3.35 2.68-3.35 5.37 4.8 4.92 4.8 4.92-2.13 2.91 0 4.69 14.58 1.79 19-.89 3.27-16.28-.03-18.19Z"/><path class="cls-22" d="M89.58 291.92s4.55 4 8.76 3 9.82-9.65 12.32-10.45 10.06 8.88 8.47 15.09-14.41 9.78-19.61 9.2-16-3.61-9.94-16.84Z" style="clip-path:url(#clip-path-5)"/><path class="cls-3" d="M144.52 230.15c.89-3.38 4.15-2.92 8 .68s9.79 22.68 4.42 38.18-30.37 33.68-44.86 33.68c-7.23 0-5.06-17.89 0-19.08 4.56-1.07 23.55-12.75 28.09-22.88s1.7-20.53 4.35-30.58Z"/><path d="M133.23 294.88s24.55-11.82 25.71-42.89c.01.01 1.33 19.79-25.71 42.89Z" style="fill:#46a0af"/><path class="cls-1" d="M160.2 169s-2.38-8.82 5.37-11.8 12.82 10.56 12.82 13.78-4.47 10.07-13.41 8.28S160.2 169 160.2 169Z"/><path class="cls-32" d="M164.14 171.56s-1.62-5.6 2.52-8.41 8 3 7.52 4.21c0 0-3.31-3-5.95-1.94s-4.09 6.14-4.09 6.14Z"/><path class="cls-29" d="M125.38 227.86c-4 .75-6.61 3-6.23 5.28s13.37 2.78 17.29-1.79-.83-5-3.94-5a27.17 27.17 0 0 0-7.12 1.51Z"/><path class="cls-22" d="M131.71 216.48s2.29 7.52 2.5 9.52c0 0 3.66 2.78-1 5.21s-17.48 3.46-10.1-2.71c0 0-2.21-7.49-3.94-8.2Z"/><path class="cls-22" d="M142 220.36c13.21-4.23 32.19-19.74 24.15-42.63S156.92 148 142 142s-34.28-.3-51.57 6-14 27.8-12.22 34.77S99.39 234 142 220.36Z"/><path class="cls-1" d="M93.84 176s7.1-6.33 4.63-11.62c0 0 4.77.65 5.46-3.67 0 0 9.38 2.37 11.39-3.87 0 0 10.78 3.63 14.26-7.34 0 0 9.12 8.31 13.52 3 0 0 3.61 6.22 9.39 4.37 0 0 3.18 8.58 7 8.85 0 0 21.19 34.62-13 50.92-31.26 14.76-53.49-14.26-56.18-20.37 0 0 5.23-5.78 1.08-12.63 0 0 5.45-2.19 2.45-7.64Z"/><path class="cls-4" d="M84.78 192.66s7.75-3.45 0-9.9c0 0 6.56-6-1.49-11 0 0 11.92-1.3 9.84-11.19 0 0 6.86.84 8.35-4.53 0 0 8.94 6 12.82-2.09 0 0 11.33 1.49 14.9-10.14 0 0 6 11 15.2 4.47 0 0 2.38 8.35 9.54 6.26 0 0 3 12.63 10.73 6s-1.49-6.91-1.49-6.91 3-10.14-6.56-9.84c0 0 .89-13.71-11.92-13.41 0 0-4.77-13.71-15.2-6.26 0 0-12.82-11-21.46 0 0 0-14-11.92-21.76 4.17 0 0-20.87 1.49-14.9 16.39 0 0-18.78 7.27-9.54 15.85 0 0-9.29 5.44-2.56 11.19 0 0-8.47 4-7.58 11s10.14 9.9 10.14 9.9-4.17 7.41 5.37 7.6c0 0-3 12.11 10.43 8.54s7.14-16.1 7.14-16.1Z"/><g style="clip-path:url(#clip-path-6)"><path class="cls-34" d="M51.62 179.58s6 8 10.34 1.65c0 0 10.05 4.91 11.7-7 0 0 9.56 6 13.53 0s5.07 8 3.63 21.42-8.09 24.71-19.29 20.17S45.45 189 51.62 179.58ZM146 151.56s6.86 2.49 8.84-.71c0 0 7.41 2.61 8.35-3.31 0 0 15.55 6.14 15.19 10.89s-28.76 20.44-32.38-6.87Z"/></g><path class="cls-1" d="M88.36 194.19c-5-4.88-13.12-3-15.8 1.19s-.3 13.79 7.9 16.73 21.61-4.5 7.9-17.92Z"/><path class="cls-32" d="M86.22 198.39s-4.52-3.69-8.72-1-.37 8.59.91 8.57c0 0-1.46-4.22.55-6.23s7.26-1.34 7.26-1.34Z"/><ellipse class="cls-35" cx="140.15" cy="165.65" rx="3.91" ry="5.7" transform="rotate(-28.1 140.14 165.64)"/><ellipse class="cls-7" cx="140.41" cy="164.22" rx="2.59" ry="3.77" transform="rotate(-28.1 140.39 164.22)"/><ellipse class="cls-35" cx="107.62" cy="178.28" rx="3.91" ry="5.7" transform="rotate(-28.1 107.61 178.26)"/><ellipse class="cls-7" cx="108.07" cy="176.98" rx="2.59" ry="3.77" transform="rotate(-28.4 107.3 177.65)"/><ellipse class="cls-36" cx="100.04" cy="194.62" rx="7.32" ry="4.57" transform="rotate(-23.65 100 194.59)"/><ellipse class="cls-36" cx="152.43" cy="174.2" rx="7.32" ry="4.57" transform="rotate(-21.5 152.46 174.21)"/><path class="cls-37" d="M104.83 160.29S96.42 163.4 94.25 171c0 0-1.25-10.25 10.58-10.71ZM127.41 154s9.84-2.91 14.53 0c0 0-8.05-7.13-14.53 0Z"/><path d="M111.63 207.53c6.38 5.84 16.55 12.34 27.41 8.2a18.59 18.59 0 0 0 4.07-2.17c-8.85-13.34-24.23-9.07-31.48-6.03Z" style="fill:#e78888"/><path d="M151.77 181.23c-10.12 3.07-46.95 18.85-46.95 18.85a54.19 54.19 0 0 0 6.8 7.45c7.25-3 22.63-7.31 31.48 6 13.11-9.16 8.67-32.3 8.67-32.3Z" style="fill:#4f3314"/><path class="cls-22" d="M130.32 185.11s-7 1.82-11.16 0c0 0 13.21-1.87 18.31-7.6 0-.01-2.59 6.18-7.15 7.6Z"/><path d="M119.58 185.33s11.4 3.13 17.89-7.82c0-.01-2.24 12.96-17.89 7.82Z" style="fill:#c17562"/><ellipse class="cls-41" cx="221.59" cy="388.85" rx="65.94" ry="11.23"/><ellipse class="cls-41" cx="346.17" cy="404.47" rx="36.72" ry="8.58"/><ellipse class="cls-42" cx="78.99" cy="406.28" rx="73.83" ry="12.2"/><ellipse class="cls-42" cx="209.05" cy="390.07" rx="50.63" ry="4.82"/><path class="cls-43" d="M226.34 378.8c-37 0-67.05 4.76-67.05 10.64s30 10.64 67.05 10.64h.8c-32.77-.07-59.2-4.25-59.2-9.41s26.87-9.41 60-9.41 60 4.21 60 9.41c0 3.52-12.34 6.59-30.6 8.2 21.41-1.78 36-5.34 36-9.44.05-5.87-29.97-10.63-67-10.63ZM61.61 397.08c-30.09 0-54.48 4.21-54.48 9.41s24.39 9.41 54.48 9.41h.65c-26.62-.06-48.1-3.76-48.1-8.32s21.83-8.32 48.76-8.32 48.76 3.72 48.76 8.32c0 3.11-10 5.83-24.86 7.25 17.39-1.57 29.26-4.72 29.26-8.34 0-5.2-24.39-9.41-54.47-9.41Z"/></svg>