<?xml version="1.0" encoding="utf-8"?>
<!-- Generator: Adobe Illustrator 21.1.0, SVG Export Plug-In . SVG Version: 6.00 Build 0)  -->
<svg version="1.1" id="Слой_1" xmlns="http://www.w3.org/2000/svg" xmlns:xlink="http://www.w3.org/1999/xlink" x="0px" y="0px"
	 viewBox="0 0 841.9 595.3" style="enable-background:new 0 0 841.9 595.3;" xml:space="preserve">
<style type="text/css">
	.st0{opacity:0.4;fill:#272425;enable-background:new    ;}
	.st1{fill:#FFFFFF;}
	.st2{fill:#E8C0A9;}
	.st3{fill:#CC4A62;}
	.st4{fill:#2E3549;}
	.st5{fill:#90405B;}
	.st6{fill:#BD846A;}
	.st7{fill:#660D2E;}
	.st8{fill:#F2D159;}
	.st9{fill:#272425;}
	.st10{fill:#B0943F;}
	.st11{fill:#ECDFAC;}
	.st12{fill:#5B3614;}
	.st13{fill:#B7986E;}
	.st14{fill:#E5FFA2;}
	.st15{fill:#EBC89B;}
</style>
<title>Монтажная область 1</title>
<g>
	<g id="Слой_1_1_">
		<ellipse class="st0" cx="254.4" cy="495.6" rx="115" ry="38.7"/>
		<ellipse class="st1" cx="340.3" cy="100.6" rx="6.3" ry="3.3"/>
		<path class="st2" d="M401.7,169.6c-1.8-1.4-4.1-1.9-6.3-1.4c-4,0.7-1.4,5.4-1.7,12.8s-5.9,18.8-5.9,18.8s5.9,1.9,7,0
			s8.1-17.8,8.1-17.8L401.7,169.6z"/>
		<path class="st2" d="M414.7,166.6c0,0-2.9-9-9.5-8.7s-6.2,5.9-5.2,12.6s-4.5,23.5-8.3,26.1s7.3,1,9.2,0s11.3-9.9,12.1-13.1
			S414.7,166.6,414.7,166.6z"/>
		<path class="st2" d="M393.6,198c0,0,18-18.2,18.2-31.9s3-17.1,8.5-16.6S431,163,427.1,175s-8.1,19.3-7.1,23s18,9.7,15.7,21.1
			s-9.7,9.3-10.6,8.4s-3.5-6-11.8-8.4s-14.8-1.5-15.2-3.2S393.6,198,393.6,198z"/>
		<path class="st2" d="M108.2,325.4c0,0-13.3,6.9-17.3,13.3s3.1,29.6,10.2,32s19.2-4,19.2-4s6.2,1.9,10-2.8s0.2-21.8,0-22.2
			S108.2,325.4,108.2,325.4z"/>
		<path class="st2" d="M198.1,490c5.8-4.4,1.6-10.2,1.6-10.2c25.2-38.8,11.8-61.8,11.8-61.8l-16.6-6.5c0,0-24.9-45.9-18.2,2.8
			c3.9,28.4-6.5,46.3-15.9,56.4l0,0C178.1,497.5,192.4,494.4,198.1,490z"/>
		<path class="st3" d="M147.8,481c0,0,0.2,20.1,19.2,30.7c18.9,10.6,49.4,6.9,53.1-2.1c3.7-9,1.6-14.5-5-18.5s-15.3-11.3-15.3-11.3
			s4.2,5.8-1.6,10.2s-20.1,7.5-37.4-19.4l0,0C157,474.8,152.6,478.3,147.8,481z"/>
		<path class="st2" d="M305.5,461.6c0,0-2.3-35.1-36.9-61.2s-24,5.8-24,5.8l-2.8,9.9c0,0,26.3,25,30.9,44.1
			C272,459.9,317.5,486.6,305.5,461.6z"/>
		<path class="st3" d="M269.7,480.6c-1.9,6,23.3,21.5,42.9,17.5s25.2-10.6,23.8-19.9s-19.6-10.4-30.9-16.6
			c10.7,17.9-26.5,2.8-32.8-1.3c0,0.1,0.1,0.3,0.1,0.4S271.5,474.6,269.7,480.6z"/>
		<path class="st3" d="M159.7,346.1c0,0-16.4,36.3-24.7,41.4c0,0,44,52.3,94.9,36c0,0,31.8-6.6,42.9-24.2c0,0-20.2-28.5-22.4-42.5
			s-29.5-20.5-30.9-19.8s-35.3,9.4-35.3,9.4L159.7,346.1z"/>
		<path class="st4" d="M344,215.9l47.1-21.6c0,0,13.2-1.1,10.2,21.6l-62.5,37.3l-64.2,37.2c0,0-39,28.2-22.4,72
			c0,0-15.7,20.1-53.3,15.5s-41.1-27.2-41.1-27.2s16.6-37.9,21.7-43.9c0,0-31.6,6-39,37.4c0,0-18.2,5.1-28.4-4.2s-6.5-20.3-6.5-20.3
			s29.8-53.1,95.6-55.6s56,12.2,54.8,12.7s36.9-49.2,36.9-49.2L344,215.9z"/>
		<path class="st5" d="M346.8,227.6c0,0-12.7,29.8,0,49.2c0,0-13.9,1.5-27.8-8.4s-9.2-44.6-9.2-44.6l13.9-4.5L346.8,227.6z"/>
		<path class="st2" d="M346.9,186.4c0,0,9.3,35.6-6.9,71.3s-98.3,63.7-126.4,0S199.4,194,199.4,194l10-10.7c0,0,7.3-23.9,9-26.3
			s28-6.2,36.4-8.7c8.4-2.4,42.6,4.6,48.8,5.9s18.7,0.7,19.7,0s12.1-5.2,13.5-4.9S346.9,186.4,346.9,186.4z"/>
		<path class="st6" d="M317.8,228.6c0,0,11.4-1,13.7,6.8s-5.9,15.8-14.7,14c0,0,15.8,5,17.8-8.8S322,226.4,317.8,228.6z"/>
		<path class="st7" d="M288.8,215.9c0,5.7-3.2,10.3-7.2,10.3s-7.1-4.6-7.1-10.3s3.2-10.3,7.1-10.3S288.8,210.2,288.8,215.9z"/>
		<ellipse class="st7" cx="331.6" cy="209.5" rx="6" ry="9.7"/>
		<path class="st1" d="M307.5,258.1c0,0-33.5,5.8-49.2-12.5c0,0-5.5,15.5,0,27.9c5.5,12.5,36.7,4.1,36.7,4.1
			C296.7,269.8,301.1,262.8,307.5,258.1z"/>
		<path class="st5" d="M331.6,169.8c0,0-35.6,24.9-93.1,23.2c0,0-23,42.6-6.1,97.7c0,0-50.2-25.7-61-73.1c0,0-0.6-77.1,52.6-105.7
			c43.4-23.3,122.8-13.4,130.6,46.1c0,0,11.8,18.4-5.5,41.8C349,199.8,334.6,193.6,331.6,169.8z"/>
		<path class="st8" d="M235.4,193l3.3-2.1c0,0-0.9-22.5-16.1-27.7l-2.4,3.1C220.2,166.3,216,183.4,235.4,193z"/>
		<path class="st5" d="M294.1,194.3c0,0-12.9-8.1-25.9,0.9C268.3,195.3,281.7,172.9,294.1,194.3z"/>
		<path class="st5" d="M322.3,194.3c0,0,9-9.9,15.2-1.4C337.5,193,332.2,173.3,322.3,194.3z"/>
		<path class="st9" d="M263.4,297.3c0,0-18.2-1.2-29.8-10.9l1,5.7c0,0-21.7-7.1-36.8-25.4c0,0,8.6,20.4,40,30.6l-0.5-5.2
			c7.2,4.3,15.1,7.1,23.4,8.2L263.4,297.3z"/>
		<ellipse class="st0" cx="566.7" cy="523.7" rx="79.8" ry="20"/>
		<path class="st10" d="M571.6,447.7c0,0,0.1,0.1,0.2,0.4c1.3,2.6,8,17.2-3.7,30.9l8.4,21.3c0,0,5.9,0.2,8.5,0s6.5,10.2,6.5,10.2
			l-28.6,1.2l-2.5-10c0,0-9.2-22.3-16.6-27s-1.2-9.2,0-11s10.4-18.6,11.9-19.4S571.6,447.7,571.6,447.7z"/>
		<path class="st10" d="M582.3,433.6l23.3,2.2l4.7,12.9c0,0,2.2,21.8,15.2,20.4c0,0,6.9-0.3,9.5-5.4l-7-19.7
			c0,0-12.4-27.5-12.7-28.5s-8.9-4.4-10.4-4.7s-8.9,1.2-13.4,3.5s-10.9,7.2-10.9,9S582.3,433.6,582.3,433.6z"/>
		<path class="st11" d="M609.6,311.2l-30.1-15l8.5,41.1l-6,24.8c0,0-13.2,22.8-28.3,35.3s-35.5,22.5-50.9,18.1S468,391.6,468,391.6
			s-1.3,33.9,25,36.4c0,0-8.3,4-16.3,2.7c0,0,6.7,19.2,28.8,14.7c0,0-2.9,4.9-8.3,5.8c0,0,13.2,7.4,21.2,2.9c0,0,1.1,10.7-11.4,18.8
			c0,0-4.9,3.4,0,13.2s10.7,31.3,10.7,31.3l5.6,7.8c0,0,14.5,4.5,21.2,2c0,0,5.1-1.3,7.8-8.5c0,0-0.2-5.8-3.6-8l-8.5-0.2l-10.9-20.6
			c0,0,27.2-2.2,28.8-34.4c0,0,25-6.7,32.2-29l15.2-1.6l6,3.8l5.4,15.9c0,0,4.5,11.8,13.4,8.9s7.2-14.7,7.2-14.7s-4-1.3-4.5-9.1
			s-0.4-25.5-0.4-25.5l-14.7-7.4c0,0,11.2-18.1,15-22.5s13.6-10.5,20.5-9.4s14.1-1.3,14.1-1.3v-17.2c0,0-25.2,11.4-33.5-14.7
			c0,0,13,1.8,19.9-1.8s24.1-23.4,24.1-23.4l-6.3-10l-8.7-5.4l-23.4,14.7l-13.8-0.7L609.6,311.2z"/>
		<path class="st12" d="M655.4,295.6c0,0,6.7,8.4,19,5l-7.2-12.6L655.4,295.6z"/>
		<ellipse class="st12" cx="627.4" cy="315.1" rx="4.3" ry="4.6"/>
		<path class="st13" d="M700.8,316L666,194.1c1.1-3.6,4-6.3,7.6-7.1c4.9-1.4,10.1-0.1,13.8,3.4l32.9,119.3L700.8,316z"/>
		<path class="st13" d="M697.3,236.9l5.9-30.2c0,0,11.3-8.6,20.2,4.9c0,0-18.9,53.8-18.9,54.6S697.3,236.9,697.3,236.9z"/>
		<path class="st14" d="M713.8,238.7c0,0,9.3-13.1,29.4-14.6C743.2,224.1,738,242.7,713.8,238.7z"/>
		
			<ellipse transform="matrix(0.97 -0.2431 0.2431 0.97 -54.5939 182.0413)" class="st15" cx="710.3" cy="312.2" rx="10.3" ry="7.5"/>
	</g>
</g>
</svg>
