<svg xmlns="http://www.w3.org/2000/svg" width="595" height="646" viewBox="0 0 446 485"><path d="M276 171c0-5 1-9 4-13 8-8 4-28 4-38-1-16-4-33 1-49-4-4-5-13 1-17 32-25 61 12 62 44 0 30-24 95-62 91a10 10 0 0 1-5-1l-3-5a34 34 0 0 1-2-12z" fill="none"/><g fill="#ac9f8d"><path d="M273 172v-1 1zm3 9c0-1 0 0 0 0zm4 8a8 8 0 0 0-2-2 11 11 0 0 1 0-1 5 5 0 0 1-1-2h-1a16 16 0 0 0 2 2l1 2 1 1zm4 3a11 11 0 0 1-1 0h1zm-1 0zm5 0h-1 1c1 0 1 0 0 0zm1 0h-1 1zm-2 0h1s0-1 0 0h-1zm-1 0v-1h-2a4 4 0 0 0 2 1zm-5-4h-1v-1h-1a2 2 0 0 1 1 1h1zm15 4-1-1h-1v1h2zm-1-1h1-1zm-6 0h-2 3zm12-1-1 1 1-1zm3-1v1a8 8 0 0 0 1-1 11 11 0 0 0 1-1 5 5 0 0 1-1 1 9 9 0 0 1-1 0zm3-2-1 1a5 5 0 0 0 1-1zm-9 3a2 2 0 0 0 2 0h-2zm1 0zm-1 0zm-5 1s2-1 0-1v1zm5-1h-2v1l1-1zm0 0zm7-2a8 8 0 0 1 1-1l-2 1h1zm-3 1zm11-6h-1a1 1 0 0 1 1 0zm-9 5a3 3 0 0 0-1 1l1-1zm5-2h-1 1zm-7 3zm0 0a5 5 0 0 0 1 0h-1zm11-9-1 1a4 4 0 0 1-1 1c-1 1 0 1 1 1l1-1h-2a5 5 0 0 1 2-1l1-1v-1h-1v1s0-1 0 0zm-3 4v1a10 10 0 0 1 2-1l1-1-2 1h-1z"/><path d="M308 186v-1h-1a2 2 0 0 0 0 1 2 2 0 0 1-1 0h2a13 13 0 0 1-2 1l2-1h1l1-1c1 0 0 0 0 0h-1l-1 1zm-13 3zm1 0a2 2 0 0 1-1 0c-1 0 0 0 0 0a6 6 0 0 0-1 0v1a1 1 0 0 0 1 0h2a4 4 0 0 0 0-1 7 7 0 0 0-1 0zm6-1 1-1h1-1l-1 1zm11-5 1-1zm2-2h1-1zm-4-133zm5 1c-1 0-1 0 0 0zm31 71 1-2a5 5 0 0 1-1 2zm-5-47 1 1zm-2 0v-1a8 8 0 0 0 0 1zm-50-19-1 1 1-1zm43 104a13 13 0 0 0 1-2l-1 2zM314 45h-1 1zm21 109a12 12 0 0 1-1 2 4 4 0 0 0 1-2zm-48-15zm-12 24 1-1a5 5 0 0 0-1 1zm48 10zm-3 1zm16-27c-1 1 0 1 0 0zm-13 26zm0 0zm1-1a10 10 0 0 1-1 1zm-41-81zm63 13zm0-2a3 3 0 0 1 0 2v-1h1l-1-1z"/><path d="M301 49h2l-2 1 1-1a7 7 0 0 1 1 0h1l3-1h1-1a4 4 0 0 0 1 0 2 2 0 0 0 1 0 2 2 0 0 1 1 0 4 4 0 0 1 1 0 2 2 0 0 1 1 0h-1 2c1 0 1 1 0 0v1h3a5 5 0 0 1 1 0l1 1a6 6 0 0 1-1 0l1 1a5 5 0 0 1 1 0 4 4 0 0 1 1 0 6 6 0 0 1 1 1l-1-1h-1a2 2 0 0 0 1 1 8 8 0 0 0 1 0v1a9 9 0 0 1 1 1v-1l-1-1s0-1 0 0a5 5 0 0 0 1 0 6 6 0 0 0 1 1l2 1-1 1a3 3 0 0 0 1 0 3 3 0 0 1 1 0 3 3 0 0 1 1 1 2 2 0 0 1 0 1c1 1 1 0 0 0h1a12 12 0 0 0 1 1 12 12 0 0 0 1 1l2 2c1 1 0 0 0 0l1 1 1 1 1 1a6 6 0 0 0 2 3h-1l2 2 1 1 1 1v1l2 1a11 11 0 0 0 0-1l1 1v1c0 1 0 0 0 0h-1v-1h-1a3 3 0 0 1 0 1s0-1 0 0v1l1 1v2l1 1 1 2a15 15 0 0 1 2 4h-1a3 3 0 0 0-1-2v-1a7 7 0 0 1-1-2v1a40 40 0 0 0 1 2v2l1 1 1 3-1-2a2 2 0 0 0 1 2 2 2 0 0 1 0 2v-1a6 6 0 0 1 0 2v5l1 4a3 3 0 0 1-1-1v1l1 2 1 1v1h-1l-1-1a8 8 0 0 0 0 3l1-1a10 10 0 0 0-1 1 17 17 0 0 1-1 2l1 1h-1v1l1 1-1 1-1 1a15 15 0 0 0 0 1h1v5s-1-1-2 1a18 18 0 0 1 1 2 10 10 0 0 1 1 2 7 7 0 0 1 0 1l-1 1-1-1v-4l-1 2v-2 1l-1 1v3l1-2c1-1 0 0 0 0v5l-1-1a7 7 0 0 1-1 3v-2a5 5 0 0 0 0 2 4 4 0 0 1-1 2l-1 2c1-1 3 0 3 1a27 27 0 0 1-2 3c-1 1-1-2-1-1v1c-1 0-1-1-1 1 0 0-1 2 0 0l-1 3v1a7 7 0 0 1 0 2l-4 6-1 1a4 4 0 0 1 0 2v-1l-1 1v2l1-1a20 20 0 0 0 0-3v5l-1 1a11 11 0 0 0-1 2 9 9 0 0 0-1 2 5 5 0 0 1 0 1 6 6 0 0 1-1 2l-2-1a8 8 0 0 1 1-1 10 10 0 0 1 1-1 8 8 0 0 0 1-1l-1 1c-1 1 0 0 0 0a7 7 0 0 1 1-2 6 6 0 0 0-1 1l-2 3a35 35 0 0 1-3 4v1-1 2l-1 1a9 9 0 0 1-1 2h-1l1-1a5 5 0 0 1-1 1l-1 2 1-1-1 1v1a9 9 0 0 1-1 1 7 7 0 0 1-1 1l2-1v-1l1-1a4 4 0 0 0 1-1l1-1h1a5 5 0 0 1 0-1s-1 1 0 0a1 1 0 0 1 1-1 2 2 0 0 1-1 1 6 6 0 0 1 1-2v-1a5 5 0 0 0 1-1v1l1-2v1l1-2a9 9 0 0 0 3-2v-2l1-1v-1h1a18 18 0 0 0 1-2l1-2 1-2a15 15 0 0 1 1-2v-1a18 18 0 0 1 1-2h1a20 20 0 0 1 1-2 4 4 0 0 0 0-2 3 3 0 0 0 1-1 17 17 0 0 0 1-2l1-2a17 17 0 0 1 1-2h-1l1-2 1-3h-1l2-6v2a10 10 0 0 0 1-5 13 13 0 0 1 1-4 4 4 0 0 1 1-1v-1a17 17 0 0 0 0-2 6 6 0 0 0 0-1l1-2a2 2 0 0 1 0-1v-4s0-1 0 0a6 6 0 0 0 0-3h1v-1h-1v-1h1a22 22 0 0 1 0-2 10 10 0 0 0 0-3v1a10 10 0 0 0 0-2 2 2 0 0 1 0-1 18 18 0 0 0 0-6l-1-8h-1v-2s0-1 0 0a23 23 0 0 1 0-3 5 5 0 0 0-2-2h1v-1l-2-2a4 4 0 0 0-1-1 3 3 0 0 0-1-1h1l-1-3-2-2a3 3 0 0 0 0-1l-1-1-1-1-1-1h1l-2-2a11 11 0 0 0-1-1 4 4 0 0 0-1-1 3 3 0 0 1 0-1h-1v-1h-1a7 7 0 0 1-1-1l-1-1a5 5 0 0 0-1-1h1a2 2 0 0 1-1 0 8 8 0 0 1-1-1v-1a5 5 0 0 0 0-1 2 2 0 0 0-1 0h1l-1-1h-2v-1a3 3 0 0 0-1-1h-1l-1-1h-1a8 8 0 0 1-1 0 5 5 0 0 1-1-1v1a11 11 0 0 1-1-1l-2-1a4 4 0 0 0-2 0h-4a3 3 0 0 0-1 0 2 2 0 0 0-2-1 11 11 0 0 0-1 0h-1l-4 1h-3v1-1a7 7 0 0 0-4 2h-1l-1 1a12 12 0 0 0-1 0 9 9 0 0 0-1 1l-1 1v1l-1-1a2 2 0 0 1 0 1h-1l-2 1-1 1-1 1a7 7 0 0 0-1 2 32 32 0 0 0-2 3 16 16 0 0 0 0 3c-1 2 0 4 1 4a51 51 0 0 0 1 2v1a3 3 0 0 1 0-2v1h1a9 9 0 0 1 0 1h-1a2 2 0 0 0 1 1 5 5 0 0 0 0 1v1l-1 2v2l-1 2v5l-1 2v4h1v2c-1 0-1 1-1-1a3 3 0 0 0 1 3h-1v-1 1a6 6 0 0 1 0 3v4l1-1v7a49 49 0 0 1 0 5 18 18 0 0 1 1 5h1l-1 2a7 7 0 0 1 0 3v1l1 2-1 1 1 11h1l-1 1v3h1l-1 6v3a26 26 0 0 1-1 3 12 12 0 0 1-2 5h-1v1h-1v1a27 27 0 0 0-2 2 9 9 0 0 1 0 1v1l-1 1v1a2 2 0 0 1 0 1v1l-1 1a9 9 0 0 0 0 1l1 1v-1a3 3 0 0 0 1-1l1-1a4 4 0 0 1 1-3l1-1a7 7 0 0 0 0-1 5 5 0 0 0 0-1l1 1a2 2 0 0 1 0-1 3 3 0 0 1 0-1 6 6 0 0 1 1-1v1l1-2 1-1v-1h1v-1a23 23 0 0 0 2-5 10 10 0 0 1 0-1v-1a7 7 0 0 0 0 1 4 4 0 0 1-1 1 4 4 0 0 0 1-2v-2l1-4c0-2-1 0-1-1l1-1h-1l1-2a8 8 0 0 0 0 1v-4 2l-2-14v1a9 9 0 0 1 0-3 14 14 0 0 0 0-3 9 9 0 0 1-1-3h1l-1-4a5 5 0 0 1-1-3c1 2 1-1 1 1v-5c-1 1-1-1-1-3a5 5 0 0 1 0-1 8 8 0 0 0 1-2 8 8 0 0 0 0-1 5 5 0 0 0 0-1 4 4 0 0 1 0-2l-1-2a8 8 0 0 1 0-3 6 6 0 0 1 0 2v-2a11 11 0 0 1 1 2 9 9 0 0 0 0 2v-2a3 3 0 0 1 0-2 6 6 0 0 0 0-2 5 5 0 0 1 0-2v1a5 5 0 0 1 0-2h1v-1a4 4 0 0 0 0-1l-1 2c-1 0 0-1 0 0a7 7 0 0 1 0-1 4 4 0 0 1 0-1 3 3 0 0 1 0-1 5 5 0 0 0 1-1 8 8 0 0 0 1-2l-1 1v-1a5 5 0 0 1 1-1c0-3-1 0-1-1a1 1 0 0 0 1-1v-2a25 25 0 0 0 1-2 3 3 0 0 0-1-1 2 2 0 0 1-1 0v-1h1-1v-1a4 4 0 0 1 0-1 7 7 0 0 1-1-2c0 1 0 1 0 0a2 2 0 0 1-1-1v-1a2 2 0 0 1 1 1v1a7 7 0 0 0 0-2 11 11 0 0 1 0-1 3 3 0 0 1 0 1v-2a10 10 0 0 1 0-1 3 3 0 0 1 0-1 3 3 0 0 1 1 0 2 2 0 0 1 0 1v-2a5 5 0 0 0 1 0c0-1 0-1 0 0a4 4 0 0 0 1-1v-1l1-1a6 6 0 0 1 2-1 2 2 0 0 1 0-1 24 24 0 0 1 2-1 14 14 0 0 0 3-1h1v-1h1v-1a3 3 0 0 1 1 0l1 1v-1a9 9 0 0 1 1 0 5 5 0 0 1 2-1 4 4 0 0 1 1 0 4 4 0 0 1-1 0 8 8 0 0 0-1 1zm20 3a1 1 0 0 1-1-1 1 1 0 0 1 1 0 8 8 0 0 1 0 1zm21 24a2 2 0 0 1 0-1 4 4 0 0 1 0 1zm-15 91c1-1 1 0 0 0zm-1 2a3 3 0 0 1 0-1v1zm-46-72c1 1 0 0 0 0zm60-24h1-1zm-50-19z"/><path d="M337 139a3 3 0 0 1 1 0h-1zm-18 38 1-1a4 4 0 0 1-1 1s1 0 0 0zm-10 6h-1 1s1-1 0 0zm8-6v1h-1 1a8 8 0 0 0 0-1zm-1 2a7 7 0 0 1-1 0h1zm8-8s1 0 0 0c0 1 2-2 0 0zm-8 6h1-1zm5-5-1 1 1-1zm-1 1a5 5 0 0 0-1 1 10 10 0 0 0 1-1zm-3 3 1-1-1 1zm13-17 1-1-1 1zm-3 4a2 2 0 0 1 0-1zm2-4v-1 1zm10-21h1-1zm4-21v2h1l-1-2zm1 2zm-70 49h-1v1h1v-1zm0 2v1a2 2 0 0 1 0-1zm49-116zm-13-5v-1zm-12 2 1-1a4 4 0 0 1-1 0v1z"/></g><path d="M283 169a5 5 0 0 1-4 0l-1-4c-2-15 0-30 1-45s1-26 7-40c2-5 5-10 10-12 4-3 11-3 16-2a33 33 0 0 1 23 25c2 8 0 17-2 25-4 13-8 31-16 41s-23 12-34 12z" fill="#ce7673"/><g fill="#d68b88"><path d="M283 172zm7-2-1 1 1-1zm6-1h-2a5 5 0 0 1-2 1l4-1zm3 1a1 1 0 0 1 0 1v-1zm0 1c-1 0 0 0 0 0zm3-1h-1 1c1 0 0 0 0 0zm0-1zm-1 0zm0 1c-1-1-2 0-1-1-1 1-1 1 1 1zm-5-1-1-1v1h1zm11-1h-1 1zm0 0v-1 1zm-5 0-1 1 1-1h1zm9-2v1-1zm2-1h1a7 7 0 0 0 1-1 3 3 0 0 1-1 0 4 4 0 0 1-1 1zm2-2a7 7 0 0 0 0 1 3 3 0 0 0 0-1zm-6 3a1 1 0 0 0 1 0h-1zm0 0zm0 0zm-4 1v-1 1zm3-1h-1v1zm1 0h-1 1zm5-2a3 3 0 0 1 0-1h1-1l-1 1h1zm-2 1zm7-6zm-6 5a1 1 0 0 0-1 0h1zm4-2h-1 1zm-5 3zm0 0a3 3 0 0 0 0-1 7 7 0 0 0 0 1zm5-10v1a2 2 0 0 1-1 1l1 1a3 3 0 0 0 1 1 3 3 0 0 0 1 0v-2l-1 1a1 1 0 0 1-1 0l2-1-1-1a2 2 0 0 0 1-1h-1v1l-1-1z"/><path d="M317 160a7 7 0 0 1 2 0v-1h-1v1h-1zm-1 2-1-2a4 4 0 0 0 0 1 1 1 0 0 1-1 1h2a6 6 0 0 1-1 1l1-1c0-1 0 0 0 0v-1h1v-1 1h-1v1zm-10 3zm1 0a1 1 0 0 1-1 0v1h2a4 4 0 0 0-1-1zm4-1v-1h1-1 1l-1 1zm8-5v-1c0-1 0 0 0 0zm1-2h1v-1l-1 1zm-21-88h-1a2 2 0 0 0 1 0zm2-1zm37 39v-1a2 2 0 0 1 0 1zm-12-32zm-2 1v-1a6 6 0 0 0 0 1zm-35 6zm41 55a6 6 0 0 0 0-2v2zm-32-73zm33 70a6 6 0 0 1-1 1 2 2 0 0 0 1-1zm-51 13zm-4 21a6 6 0 0 1 0-2 3 3 0 0 0 0 2zm49-19c0 1 0 0 0 0zm-3 1zm7-22c0 1 0 1 0 0zm-4 22a3 3 0 0 0 0-1 5 5 0 0 0 0 1zm0 0zm0-1zm-44-38c0 1 0 0 0 0zm52-15zm0-2a2 2 0 0 1 0 1 1 1 0 0 1 1 0 2 2 0 0 1-1 1l1-1-1-1z"/><path d="M293 73h1a5 5 0 0 1 0 1 1 1 0 0 1 0-1 4 4 0 0 1 1-1 7 7 0 0 0 1 0 1 1 0 0 0 0-1v-1h1l-1 1 1-1a2 2 0 0 1 0-1 1 1 0 0 1 1 0h1v-1a8 8 0 0 0 1 0h1a4 4 0 0 1 1-1c1 0 0 0 0 0h1c1 0 1 0 0 0a2 2 0 0 1 0 1 2 2 0 0 1-1 0h1a2 2 0 0 1 1 0 2 2 0 0 1 1 0h-1a2 2 0 0 0 1 1h1a3 3 0 0 1 1 0l-1-1a1 1 0 0 1-1 0h1a2 2 0 0 0 1 0h1a8 8 0 0 0 1 0l-1 1 2-1a1 1 0 0 1 1 1 2 2 0 0 1 1 0 4 4 0 0 0 1 0h1l2 1h-1 1c1 0 0 0 0 0a1 1 0 0 0 1 0h1l1 1a4 4 0 0 0 1 1 2 2 0 0 0 1 0l-1 1h2a13 13 0 0 0 1 1l1 1v-1a3 3 0 0 1 1 0l1 1a8 8 0 0 0 0-1l1 1c1 0 0 0 0 0l-1 1v-1h-1v1c0 1 0 0 0 0v1-1l1 1a577 577 0 0 0 1 1l1 1h1a9 9 0 0 1 1 1l1 1a9 9 0 0 1 1 1h-2a3 3 0 0 0-1-1v-1a4 4 0 0 1-1 0v1h1v1h1v1h1a13 13 0 0 0 1 2l-1-1 1 1a2 2 0 0 1 0 1 3 3 0 0 1 1 1l-1 1 1 1v2a15 15 0 0 0 1 2h1a6 6 0 0 1-2 0 39 39 0 0 0 4 3 5 5 0 0 0-2 0 2 2 0 0 1-1 0 1 1 0 0 1-1 0 3 3 0 0 0 1 2l1-1a6 6 0 0 0-1 1v1l1 1h-1v1l1 1h-2v2-1a3 3 0 0 0 1 3 3 3 0 0 1 0 2h-1a16 16 0 0 1 1 2 6 6 0 0 1 1 3v1l-1-1v-1l-2-3v1l-1-1v2l1 1a4 4 0 0 1 0 3l-1-1a3 3 0 0 1 0 2v-1l-1 3-1 2h4a17 17 0 0 1-2 3c-1 0-1-2-2-1h1l-1 1v3l1 2h-1a24 24 0 0 1-1 3 24 24 0 0 0-1 2v1a2 2 0 0 1 0 1c-1 1 0-1-1-1v3l1-3 1 4-1 1a4 4 0 0 0 0 3 3 3 0 0 1-1 2h-1a4 4 0 0 1 0-2 5 5 0 0 0 1-1l-1 1a3 3 0 0 1 1-2 9 9 0 0 0-2 3l-1 2a10 10 0 0 1 0 1l-1 1 1 1v-1 2a9 9 0 0 1 0 1 5 5 0 0 1-1 1v-1a1 1 0 0 1 0 1l-1 2 1-1v2a4 4 0 0 1-1 1 3 3 0 0 1 0 1l1-1a8 8 0 0 1 0-1v-1a2 2 0 0 0 1-1 4 4 0 0 1 2-1v-1a1 1 0 0 1-1 0l1-3s0 1 0 0v-1s1-1 1 1l1-2a5 5 0 0 0 0-1 3 3 0 0 0 1-1v-3h1a11 11 0 0 0 0-1v-2a10 10 0 0 1 1-2 6 6 0 0 1 1-1v-1a7 7 0 0 1 0-2h1l1-3 2-5h-1a16 16 0 0 0 1-4h-1l2-4-1 1a5 5 0 0 0 1-4 6 6 0 0 1 1-3 2 2 0 0 1 0-1l1-1a3 3 0 0 0-1 1v-1a8 8 0 0 0 0-1 3 3 0 0 0 0-1v-1l1-1-1-3a6 6 0 0 0 0-1 2 2 0 0 0 0-1h1l-1-1v-1h1a10 10 0 0 1-1-2 6 6 0 0 0 0-1 5 5 0 0 0 0-1l-1-1a4 4 0 0 0 0-2 9 9 0 0 0 0-1v-2l-1-1v-2a27 27 0 0 1-1-2l-1-1a2 2 0 0 0 0-1h-1 1a6 6 0 0 1-1-1v-1a4 4 0 0 0-1-1 2 2 0 0 0-1 0l1-1h-1 1-3l-2-2h1a17 17 0 0 0-1-2 6 6 0 0 0-1 0l-1-1h-1l-1-1a8 8 0 0 0-1-1 1 1 0 0 1-1 0h-1v-1l-2-1a8 8 0 0 1-2 0 2 2 0 0 1-1 0 10 10 0 0 0-1-1 3 3 0 0 0-1 0l-1-1a5 5 0 0 0-1-1c-1 0 0 0 0 0a6 6 0 0 0-1-1v1h-1s1-1-1-1h-2a13 13 0 0 1-1 1 3 3 0 0 1-2 0c1 0 1 0 0 0a4 4 0 0 1-1 1l-1-1a5 5 0 0 0-1 1 2 2 0 0 0-1 0l-1 1h-1a5 5 0 0 0-1 1 2 2 0 0 0 0 1 1 1 0 0 0-1-1 2 2 0 0 0-1 1 6 6 0 0 0-1 1l-2 2-1 1v1h-1a4 4 0 0 0-1 3v-1l-1 2a5 5 0 0 0-1 1 4 4 0 0 0 0 1v1a7 7 0 0 1-2 2 10 10 0 0 0 0 2 6 6 0 0 0-1 2v-1a7 7 0 0 1-1 2l-1 2a8 8 0 0 0 0 1 4 4 0 0 0 0 1 2 2 0 0 0 0 2 402 402 0 0 0 1 1h1l-1 1-1 1-1 2-1 6v4l-1 3h1v1l-1-1 1 2c0 2-1-1-1 0v1l1 2h-1v3l1-1v1l-1 4a20 20 0 0 1 0 4 8 8 0 0 1 0 3l1 1c-2-1-1 2-2 3 1-1 0 4 1 2l-1 1-1 8 1 1h-1v3h1a36 36 0 0 0 0 9v4a47 47 0 0 1-1 4v1a1 1 0 0 1 1 0h1v1a8 8 0 0 0 0 1 6 6 0 0 0 0 1 7 7 0 0 0 0 1 3 3 0 0 1 1 0 5 5 0 0 0 2 1h1a5 5 0 0 1-1 0l1-1a2 2 0 0 0-1 0 2 2 0 0 1 0-1 1 1 0 0 1 0-1v-1a2 2 0 0 1 0-1 4 4 0 0 0 0-1 2 2 0 0 0-1-1h1l-1-2a18 18 0 0 1 0-4v-1l1-2h-1a3 3 0 0 1 1-1h-1v-2l1-3-1-1h1-1l1-1a4 4 0 0 0 0-1 5 5 0 0 1 0-2v-13a4 4 0 0 1 0-1l1-1-1-3a3 3 0 0 1 0-2h1a5 5 0 0 0 0-3l1-2-1 1v1l-1-2c0-1 2-1 2-3v-3l-1-1v-2a3 3 0 0 1 0 1v-1l1 3v-2a1 1 0 0 1 0-1 3 3 0 0 0 0-2 3 3 0 0 1 0-1l1 1a2 2 0 0 1 0-2 3 3 0 0 0 0-2c0 3-1 1-1 2l1-2a3 3 0 0 0 1-3l-1 1a5 5 0 0 1 1-2c0-2-1 1-1 0v-5 1h1v-1a4 4 0 0 1 0-1 7 7 0 0 1 1-1l-1-2 1-1v2a3 3 0 0 0 0-1l1-1a2 2 0 0 1-1 0v-2c0-1 0 0 0 0h1a9 9 0 0 1 0-1v1l1-2h1a4 4 0 0 0 0-2 5 5 0 0 1 1-2 1 1 0 0 1 0-1v-1l1-1a5 5 0 0 0 1-2v-1l1-1a6 6 0 0 1 1-1 3 3 0 0 1 0-1 2 2 0 0 1 1-1 2 2 0 0 1 0 1 3 3 0 0 0-1 0zm13-5h-1 1zm21 9-1-1a2 2 0 0 1 1 1zm0 67zm-1 2v-1 1zm-49-30v-1 1z"/><path d="M325 76a1 1 0 0 1 0-1v1zm-36 6zm40 40zm-6 31zm-8 6c1 0 1-1 0 0zm6-6v1a7 7 0 0 0-1 0h1v-1zm-1 2zm5-7h1c0 1 0-2-1 0zm-6 5h1zm3-4zm0 1a2 2 0 0 0 0 1 5 5 0 0 0 0-1zm-2 2 1-1-1 1zm7-14v-1c0-1 0 0 0 0v1zm-3 3 1-1h-1zm1-3v-1 1zm6-17h1-1zm1-16v2l1-1-1-1zm1 1a4 4 0 0 0 0 1 1 1 0 0 0 0-1zm-54 66a6 6 0 0 0 1 0h-1zm3-1v1c0 1 0 0 0 0l1-1h-1zm26-102h-1 1zm-10 1zm-5 6v-1a1 1 0 0 1 0 1c-1 0-1 0 0 0z"/></g><path d="M113 174c0-5-2-10-6-13-8-7-6-27-7-37-1-16 1-34-6-49 4-5 3-14-2-17-35-22-61 18-58 49s33 93 71 85a10 10 0 0 0 4-1l3-6a34 34 0 0 0 1-11z" fill="#9d8f7b"/><g fill="#ac9f8d"><path d="M111 174c0 1 0 0 0 0zm0 8zm-2 7 1-1 1-2v-1a19 19 0 0 1-1 3 5 5 0 0 1-1 1zm-4 1 1-1a5 5 0 0 1-1 1zm1-1c1 0-1 0 0 0zm-4 1h1s-1 0 0 0h-1zm-1 1zm2-1v1h-1 1v-1z"/><path d="M104 190v1a5 5 0 0 0 1-1s1 0 0 0a12 12 0 0 0-1 0zm5 0h1v-1a4 4 0 0 1-1 1zm-13 0v1h1l-1-1c-1 0 0 0 0 0zm0 1h-1 1zm5 1 1-1h1-1l-1 1c-1 1 0 0 0 0zm-9-3h-1zm-3 0v-1a6 6 0 0 0-1 0h-1a6 6 0 0 1 1 0 7 7 0 0 1 1 1zm-3-1a7 7 0 0 0 1 0 6 6 0 0 0-1 0zm7 2a1 1 0 0 0-1 0h1zm0 0h-1 1zm0 0zm5 1-1 1 1-1zm-4 0h1-1zm-1 0h1-1zm-6-2-1-1a14 14 0 0 0 2 1h-1zm3 1zm-10-5zm8 4a2 2 0 0 0 1 0 9 9 0 0 1-1 0zm-4-2a6 6 0 0 0 1 1 4 4 0 0 0-1-1zm6 2zm0 0a4 4 0 0 0-1 0 8 8 0 0 0 1 1 1 1 0 0 1 0-1zm-13-3h1a5 5 0 0 1 1 1c2 1 1-1 1-2h-2a12 12 0 0 0 1 1l1 1a3 3 0 0 1-2-1 5 5 0 0 0 0-1h-2l1 1s-1 0 0 0zm5 0v1a7 7 0 0 1-1-2h-1l1 1h1z"/><path d="M84 188h-1a4 4 0 0 0 1 1 2 2 0 0 1 1 0l-1-1h2-2 1l-1-1h-2a7 7 0 0 0 1 0l1 1zm12 5zm-1 0a2 2 0 0 1 1-1v1a3 3 0 0 0 1 0v-1a2 2 0 0 0-1 0 7 7 0 0 1-1 0h-1v-1a3 3 0 0 0 0 1 3 3 0 0 0 1 1zm-6-2-1-1h-1 1v1h1zm-9-6h-1v-1zm-3-2h1-1zM64 51v-1h1a4 4 0 0 0-1 1zm-4 1zm-19 76v-2h-1a5 5 0 0 1 1 2zm-4-46zm-1-1 1-1a8 8 0 0 0-1 1zm54-27h1-1zM58 163a13 13 0 0 0-1-2l1 2zm6-108zm-8 105a13 13 0 0 1 1 1 4 4 0 0 0-1-1zm47-18zm7 25v-1h-1a6 6 0 0 0 1 1zm-41 9c1 1 0 0 0 0zm1 3zm-19-23zm19 21-1-1a6 6 0 0 0 1 1zm0 0zm-1-1zm31-82c0 1 0 0 0 0zm-67 20zm0-2a3 3 0 0 1 0 2l1-1-1-1c-1-1 0 0 0 0z"/><path d="m76 50-1-1h-1c2 0 4 0 2-1l-1 1h-2l-3 1-1-1a2 2 0 0 0-1 0 2 2 0 0 0-1 1 4 4 0 0 1-1 0 6 6 0 0 1-1 1 3 3 0 0 1-1 0h-2c0 1 0 0 0 0l-1 1h-1l-1 1-1 1v-1 1h-1v1-1a6 6 0 0 1 1-1 2 2 0 0 0-2 1l-1 1h-1l1-1a3 3 0 0 0-1 0 5 5 0 0 0-1 1h-1a13 13 0 0 1-1 1h1a9 9 0 0 1 1-1v1a4 4 0 0 0 0 1 5 5 0 0 0-1 0l-1 1a13 13 0 0 0-1 1v-1a3 3 0 0 0-1 1 4 4 0 0 1 0 1 3 3 0 0 1-2 1 3 3 0 0 1-1 0v1s1-1 0 0a12 12 0 0 0-1 1v1a26 26 0 0 0-2 3c-1 1 0 0 0 0l-1 1v2l-1 2a5 5 0 0 0-2 2c0 1 0 0 0 0l-1 2a18 18 0 0 0 0 3h-1v3l1-1v2c0 1 0 0 0 0v1l-1-1v1l-1-1h1l-1-2a3 3 0 0 1 0 1v1h-1v2l-1 1c-1 1 0 0 0 0v4a31 31 0 0 1 0 4h-1a3 3 0 0 0 1-2v-2a8 8 0 0 1 0-1l-1 1v6a21 21 0 0 0 0 2v-2a2 2 0 0 0 0 3 3 3 0 0 1 0 2v-1a7 7 0 0 1 0 2l-1 1v-1a28 28 0 0 0 1 5l1 4a3 3 0 0 1-1-1v1l1 1 1 2 1 1h-1l-2-1a7 7 0 0 0 1 3l1-1a7 7 0 0 0-1 2v1l2 1h-1v1l1 1-1 1 1 1a16 16 0 0 0 0 2v-1l3 5c0-1-1-1-1 1l2 1a14 14 0 0 1 1 1 8 8 0 0 1 1 2l1 1v1a16 16 0 0 1-2-2 29 29 0 0 1-3-3l1 2-1-1v2l1 1v1l1 1 1 1-1-2-1-1v-1l3 4h-1a8 8 0 0 1 1 3v-1h-1a5 5 0 0 0 1 2 4 4 0 0 1 1 2l1 2c0-2 2-3 3-2v4h-1v1l1 1a28 28 0 0 1 2 3h1a7 7 0 0 1 1 1v1l3 6v1a4 4 0 0 1 1 1c1 2-1-1 0 0l1 1 1 1-1-1-1-2 4 3v1a10 10 0 0 0 2 2 8 8 0 0 0 1 1 6 6 0 0 1 1 1 8 8 0 0 1 1 1c1 1 0 1-1 1a7 7 0 0 1 0-1 10 10 0 0 1-1-1 12 12 0 0 0-1-1l1 1a6 6 0 0 1-2-2 6 6 0 0 0 1 2l2 2 4 4 1 1-1-1h1l1 1h1a11 11 0 0 1 2 2h-1l-1-1a5 5 0 0 1 1 2l2 1-1-1h1l1 1h1a6 6 0 0 1 1 1l-1-2h-1l-1-1a4 4 0 0 0-1-1l-1-1a5 5 0 0 1 0-1h-1a2 2 0 0 1 0 1 5 5 0 0 1-1-1l-1-1a6 6 0 0 0-1 0v-1h-1c1-1-1-2 1-1l-1-1a10 10 0 0 0-2-3l-1-1-1-1-1-1-1-2-2-1a17 17 0 0 1-1-2 11 11 0 0 1-1-2l-1-1a12 12 0 0 1-1-2h1a13 13 0 0 1-1-2 4 4 0 0 0-1-2 3 3 0 0 0-1-1 16 16 0 0 0-1-2l-1-2a16 16 0 0 1-1-1l-1-2-1-2h-1l-2-6 1 1a11 11 0 0 0-2-4 10 10 0 0 1-1-4 3 3 0 0 1-1-1v-1a4 4 0 0 0 0 1l-1-2 1-1h-1a6 6 0 0 0-1-1v-1a2 2 0 0 1 0-1l-2-4a7 7 0 0 0 0-2v-1l-1-1c0-1 0-2 1-1a14 14 0 0 1-1-2 13 13 0 0 0-1-2h1a10 10 0 0 0-1-1 2 2 0 0 1 0-1 40 40 0 0 0 0-6 30 30 0 0 1 1-7v-3h1a12 12 0 0 1 0-2 5 5 0 0 0 1-3v-3a5 5 0 0 0 0-1 3 3 0 0 0 0-1h1l1-2 1-2a3 3 0 0 0 0-2l1-1c1-1 0 0 0 0v-1l1-1c-1-1 0-1 1-2l1-2a3 3 0 0 1 1-1l1-1h-1l1-1a6 6 0 0 1 0-1l2-1a5 5 0 0 0 1-1l-1 1a2 2 0 0 1 1-1 7 7 0 0 1 1 0l1-1a2 2 0 0 0 1 0h-1c2 0 1 0 1-1l1-1h1a2 2 0 0 0 1 0l1-1a18 18 0 0 1 1-1 6 6 0 0 1 1-1v-1a5 5 0 0 1 1 0h2a5 5 0 0 0 2-2v1a10 10 0 0 1 1-1h1c1 0 0 0 0 0l1-1c0-1 0 0 0 0a3 3 0 0 0 1 0 2 2 0 0 0 1 0 9 9 0 0 0 2 0h5l1 1h1a9 9 0 0 0 4 0v1h1a10 10 0 0 0 1 1h3v1a1 1 0 0 1 1 0 33 33 0 0 1 3 2l1 1 1 1a5 5 0 0 1 1 2 9 9 0 0 1 0 3l1 3v1a13 13 0 0 1 0 1 4 4 0 0 1 0-1v1h1a4 4 0 0 1-1 2v-1l-1 1v1l-1 1v1l1 1v1l1 2v3l1 2v4l1 1v3l1-1v2h-1a3 3 0 0 0 1 2l-1 1v-1 1a5 5 0 0 1 1 2v4-1c0 1 0 3 1 1l-1 6a45 45 0 0 1 0 5 20 20 0 0 1 1 5v2a7 7 0 0 1-1 3c1-1 1 1 1 2v13s0-1 0 0v5h1a31 31 0 0 0 0 6l1 3a30 30 0 0 0 1 3 20 20 0 0 0 4 5v1h1v1h1a9 9 0 0 1 1 3v-1a3 3 0 0 1 0 1h1v3a1 1 0 0 1 1 0 4 4 0 0 1 0 1l1 1a2 2 0 0 0 1-1v-4a7 7 0 0 0-1-2 4 4 0 0 0-2-2h1a4 4 0 0 1-1 0l-1-1v-1h-1v-1a4 4 0 0 1-1 0v-1h-1v-1a25 25 0 0 1-2-5 4 4 0 0 1 0-1c0-1 0-1 0 0a7 7 0 0 1 0 1c0 1 0 1 0 0a4 4 0 0 0 0-1l-1-1v-7h-1l1-2a6 6 0 0 0 0 1v-4 2l-1-13a11 11 0 0 1 0-3 15 15 0 0 0 0-3 8 8 0 0 1-1-2l1-1-1-4a5 5 0 0 1 0-3v1l1-7c-1-1-1 0-1 1v1l-1-2a5 5 0 0 1 1-2 7 7 0 0 0 0-1 8 8 0 0 0 0-2 5 5 0 0 0 0-1 5 5 0 0 1 0-2l-1-2v1c0 1 0 0 0 0l1 2-1-3a8 8 0 0 1 0-3 5 5 0 0 1 0 2v-2a8 8 0 0 1 1 2 13 13 0 0 0 0 2v-2a3 3 0 0 1 0-2 6 6 0 0 0-1-3v1a8 8 0 0 1 0-2l1 1a5 5 0 0 1-1-2v-1a4 4 0 0 0 0-2v2l-1 1v-2a3 3 0 0 1 0-2 4 4 0 0 0 0-1 9 9 0 0 0 0-2v1l-1-1a6 6 0 0 1 0-1c-1-3 0 0-1-1a1 1 0 0 0 0-1v-1h-1 1a2 2 0 0 0-1-1v-2 1a1 1 0 0 0 1 1v-2 1l1-2v-3a5 5 0 0 1 0-1v-2a2 2 0 0 1 0 2l1 1a6 6 0 0 0 0-2v-2a4 4 0 0 1 0 1l-1-1v-1a14 14 0 0 0-1-2l1 1a5 5 0 0 0-1-1v-1a2 2 0 0 1 1 1v-1l-1-1v-1h-1a4 4 0 0 0 0-1s0-1 0 0a4 4 0 0 0-1-1 6 6 0 0 0 0-1 9 9 0 0 0-1 0h-1v-1h-2a9 9 0 0 1-1-1 3 3 0 0 1-1 0l-1-1-1-1a10 10 0 0 0-4-1l-1-1v1h-1a4 4 0 0 1-1-1h-1s1 0 0 0h-2a14 14 0 0 1-2 0 10 10 0 0 1-1-1 5 5 0 0 1 1 0l1 1zm-23 6 1-1a1 1 0 0 1 1 0 1 1 0 0 1-1 1h-1zM35 85a2 2 0 0 1 1-1 5 5 0 0 1-1 1zm30 87c-1-1-1-1 0 0zm1 1h-1 1zm32-73c0 1 0 1 0 0zM36 81zm54-27z"/><path d="M46 150a2 2 0 0 1 0-1v1zm28 30-1-1a3 3 0 0 1 0 1h1zm7 8 1 1v-1h-1zm-7-6a5 5 0 0 0 0 1h1a10 10 0 0 0-1-1zm1 1a7 7 0 0 1 1 1l-1-1zm-7-8c1 0-2-2 0 0zm6 8h-1 1zm-6-5 1 1 1 1-2-2zm2 2a5 5 0 0 0 1 0 10 10 0 0 0-1 0zm2 2-1-1 1 1zm-13-15-1-1-1-1 1 1 1 1zm1 4a2 2 0 0 1 0-1v1zm-2-4h-1s1 2 1 0zm-12-20h1-1zm-10-19 1 2v-1l-1-1zm1 1zm74 42zm1 2h-1l1 1a2 2 0 0 1 0-1zM50 57h1zm16-7h-1 1zm15-1h-2a4 4 0 0 1 1 0h1z"/></g><path d="M106 172a5 5 0 0 0 3-1l1-3c1-15-3-30-5-45-3-15-4-26-11-39-3-5-6-9-11-12-5-2-11-2-17 0a33 33 0 0 0-20 28c-1 8 2 16 5 24 5 12 11 30 20 40 9 8 24 9 35 8z" fill="#ce7673"/><g fill="#d68b88"><path d="M106 170zm-7 1h-1 1zm-6-1 2 1a5 5 0 0 1 2 0v-1h-4zm-3-2h1a5 5 0 0 1-1 0zm1 0c1 0 0 0 0 0zm-3 0zm-1 1zm2-1h-1v1l1-1zm0 1c1 0 1 0 0 0 2 0 2 0 0 0zm4 2zm-10-4zm1 0h-1 1zm3 2h2-2zm-7-4h1-1zm-1 0v-1a3 3 0 0 0-1 0h-1a2 2 0 0 1 1 0 4 4 0 0 1 1 1zm-3-1a4 4 0 0 0 1 0 2 2 0 0 0-1 0zm5 3a1 1 0 0 0 0-1v1zm0 0-1-1 1 1zm0 0zm4 1-1 1 1-1zm-3-1v1h1zm-1 0zm-4-2-1-1a8 8 0 0 0 2 1h-1zm2 1zm-6-5v1a1 1 0 0 1 0-1zm5 4a1 1 0 0 0 0 1 5 5 0 0 1 0-1c-1 0-1 0 0 0zm-3-2a3 3 0 0 0 1 1 2 2 0 0 0-1-1zm4 3c0-1 0 0 0 0zm0 0a3 3 0 0 0-1 0 3 3 0 0 0 1 0zm-10-4a1 1 0 0 1 1 1 2 2 0 0 1 1 1l1-1a3 3 0 0 0 1-1l-1-1a10 10 0 0 0 0 1 1 1 0 0 1 0 1l-1-2h-1a4 4 0 0 0-1 0v1zm5 1a3 3 0 0 1 0-1l-1-1v1l1 1z"/><path d="M75 164h-1a2 2 0 0 0 1 1 1 1 0 0 1 1 0l-1-1s1 0 0 0a8 8 0 0 1 1 0 1 1 0 0 1-1 0h1l-1-1h-1c-1 0 0 0 0 0h1a8 8 0 0 0 0 1zm8 6s-1 0 0 0zm-1-1a1 1 0 0 1 1 0l-1-1a3 3 0 0 0 0 1zm-4-2h-1v-1 1h1zm-5-6h-1zm-2-1h1l-1-1v1zm11-91zm-4-1zm-28 47 1-2-1 1a2 2 0 0 1 0 1zm3-33zm-1-2h1a3 3 0 0 0-1 0zm45 3c0-1 0 0 0 0zm-36 59a6 6 0 0 0-1-1l1 1zm18-68v-1 1zm-19 65v1a5 5 0 0 1 0 1 2 2 0 0 0 0-2zm52 10zm-4 20a3 3 0 0 1 0-1 1 1 0 0 0 0 1zm-41-16c0 1 0 0 0 0zm-1 3zm-11-20zm12 18a4 4 0 0 0 0-1 3 3 0 0 0 0 1zm0 0zm0-1zm38-39zm-61-10zm-1-2a3 3 0 0 1 1 1 2 2 0 0 1 0 1h1l-1-1-1-1z"/><path d="m90 74-1-1a7 7 0 0 1 1 0h1c0 1 0 0 0 0h-1a16 16 0 0 1-2-1 7 7 0 0 0-1-1h-1l-1-1h1a1 1 0 0 0-1 0 1 1 0 0 0-1 0 3 3 0 0 1-1 0 3 3 0 0 1-1 0v-1h-3l-1-1-1 1h-2v-1a3 3 0 0 1 1 0 3 3 0 0 1 1 0 2 2 0 0 0-1 0 1 1 0 0 0-1 0 4 4 0 0 1-1 0 6 6 0 0 1-1 0h1a2 2 0 0 0-2-1 10 10 0 0 1-2 0l2 1a1 1 0 0 1 1 0h-1a2 2 0 0 0-2 1 10 10 0 0 0-1 0v-1l-2 1a2 2 0 0 1-1 0 3 3 0 0 1-1 0v1a6 6 0 0 0-1 1h-1a20 20 0 0 0-2 2v-1l-1 1a1 1 0 0 0 0 1h-1c1 1 0 1-1 1h-1a3 3 0 0 0 0 1 2 2 0 0 0-1 1v-1l-1 1v1a7 7 0 0 0-1 0 9 9 0 0 0 0 1l-1 1a4 4 0 0 1 0 1v1h1l-1 1c0 1 0 0 0 0-1 1-1 0-1-1h1l-1-1v1h-1l-1 1-1 1a11 11 0 0 0 0 1v1a14 14 0 0 1 0 2v1l-1 1-1-1a1 1 0 0 0 1-1v-1a4 4 0 0 1 0-1 3 3 0 0 1 1 0h-1v1l-1 1-1 1 1 1a13 13 0 0 0-1 2v-1a1 1 0 0 0 0 1 4 4 0 0 1 0 1 1 1 0 0 1 0 1v-1a3 3 0 0 1-1 2s0 1 0 0l-1 2a8 8 0 0 0 0 1v1a7 7 0 0 0 0 2l1 1a5 5 0 0 1-1-1 44 44 0 0 0 2 3l1 1a5 5 0 0 0-2 0 2 2 0 0 1-1 0 1 1 0 0 1 0-1v1a4 4 0 0 0 0 1h1a4 4 0 0 0 0 1h-1v1l2 1h-2l1 1 1 1h-2l1 2a3 3 0 0 0 1 1 3 3 0 0 1 2 2l-2 1 3 1a6 6 0 0 1 2 2v1l1 1a13 13 0 0 1-3-2 18 18 0 0 1-3-2l1 2-1-1v3c1-1 2 2 2 1v-1l-1-1h1a5 5 0 0 1 2 2l-2 1a4 4 0 0 1 1 2v-1l1 3v1l4-2a17 17 0 0 1-1 4h-2 1v1c1 0 1 2 1 0v3c1-1 2 0 3 1h-1l1 3a17 17 0 0 0 1 2v1a2 2 0 0 1 0 1h-1l2 2c1-1-1-2-1-3l3 3v1a5 5 0 0 0 1 1 4 4 0 0 0 1 1 2 2 0 0 1 2 2l-2 1a3 3 0 0 1 0-2 4 4 0 0 0-1-1v1a3 3 0 0 1 0-1 9 9 0 0 0 1 2l1 2v1a9 9 0 0 1 1 1l1 1-1-1h1l1 1c1 1 0 0 0 0a4 4 0 0 1 1 2l-1-1a1 1 0 0 1 1 0v1l1 1v-1l1 1a8 8 0 0 1 1 1v-1a3 3 0 0 1-1-1h-1a2 2 0 0 0 0-1 3 3 0 0 1 0-2h-1a1 1 0 0 1 0 1l-2-2v-1s0-2 1-1l-1-1a5 5 0 0 0 0-1 3 3 0 0 0-1-1l-1-1v-1l-1-1a10 10 0 0 0 0-1l-1-1a9 9 0 0 1-1-2 6 6 0 0 1 0-1l-1-1a6 6 0 0 1 0-2l-1-3c1-1-1-4-2-5a17 17 0 0 0-2-3l-2-4h1a5 5 0 0 0-1-3 5 5 0 0 1-1-3 1 1 0 0 1-1-1 7 7 0 0 0 0-1v-1a3 3 0 0 0-1 0v-1a1 1 0 0 1 0-1l-2-3h1a7 7 0 0 0 0-1 2 2 0 0 0-1-1h1l-1-1a4 4 0 0 1 0-1 1 1 0 0 1 1 0v1a7 7 0 0 1 0-2 5 5 0 0 0-1-2v1a5 5 0 0 0 0-1v-1a4 4 0 0 0 1-2v-2l1-1v-2l1-1a10 10 0 0 1 1-1l-1-1h1v-1h1a4 4 0 0 1 0-1 8 8 0 0 1 1 0 3 3 0 0 0 0-1 2 2 0 0 0 0-1v1l1-1v1a2 2 0 0 0-1-3c1 0 2-1 1-2a1 1 0 0 1 1 0v1l1-1 1-1v-1l1-1h1l1-1a1 1 0 0 1 0-1h1a4 4 0 0 0 0-1h2a2 2 0 0 1 0-1 7 7 0 0 1 1 0v-1a1 1 0 0 1 1 0 10 10 0 0 0 1 0 3 3 0 0 0 1 0 2 2 0 0 0 0-1h1a6 6 0 0 0 2 1 1 1 0 0 0 1 0v-1l1 1h1v-1a4 4 0 0 1 2 0 2 2 0 0 1 1 0v-1a3 3 0 0 1 1 1h1a3 3 0 0 0 1 0 7 7 0 0 1 1 0h1l1 1a1 1 0 0 0 1 0 2 2 0 0 0 0 1 10 10 0 0 0 2 0c1 1 2 1 1 2l1 1c0 1 0 0 0 0l1 1h-1a4 4 0 0 0 3 1h-1l1 2a5 5 0 0 0 1 1l1 1 1 3 1 1a7 7 0 0 0 1 2h-1a6 6 0 0 1 1 1 9 9 0 0 1 0 1l1 1v1a4 4 0 0 0 0 1 1 1 0 0 0 1 1h1v1a209 209 0 0 0 1 0v4a44 44 0 0 1 1 6v3l1 3 1 1h-1l1 1c0 3-1 0-1 0v1l1 2v1c-1 0-1 0 0 0v2-1l1 1v4a23 23 0 0 1 1 4 9 9 0 0 1 1 3l1 1c-2 0-1 2-2 3 1-1 1 4 2 2l-1 1 1 8h1v1l-1 1c1 1 2 0 1 2h1a67 67 0 0 0 0 8 31 31 0 0 1 1 5 24 24 0 0 1-1 4h1a3 3 0 0 1 0 1 2 2 0 0 1-1 0v1a2 2 0 0 1-1 0v1a1 1 0 0 0 1 0 2 2 0 0 0 0 1 4 4 0 0 0 1 0 2 2 0 0 1 1 0 3 3 0 0 1 1-1 9 9 0 0 0 1-1 4 4 0 0 0 0-2 2 2 0 0 0 0-1c0-1 0 0 0 0v-2a31 31 0 0 1 0-4 2954 2954 0 0 1 0-4 4 4 0 0 1 0-1c0-1 0 0 0 0l-1 1 1-3v-3c0-1-1 1-1-1l1-1a4 4 0 0 0 0-1 6 6 0 0 1-1-2v1l-2-9-1-4a4 4 0 0 1 0-2v-1l-1-2v-1a3 3 0 0 1-1-1h1a5 5 0 0 0 0-3v-2h-1v1l-1-1 1-4v-2l-1-1v2l-1-4a3 3 0 0 1 1 1v-2l1 4v-2l-1-2a3 3 0 0 0 0-2 3 3 0 0 1 0-1l1 1a2 2 0 0 1-1-2 3 3 0 0 0 0-1c1 2 0 0-1 1v-2a3 3 0 0 0 1-3c0 1 0 2-1 1a5 5 0 0 1 0-2c0-2 0 1-1 0 1-1 0-1-1-2h1l-1-3h1a5 5 0 0 1-1-1v-2c-1 1-1 0-2-1v-1l1 1 1 1a3 3 0 0 0-1-2v-1a2 2 0 0 1 0 1l-1-1-1-1h1l-1-1h1l-1-1v-2a5 5 0 0 0-1-1 6 6 0 0 1-1-2 1 1 0 0 1-1-1v-1l-1-1a5 5 0 0 0-1-2v-1h-2v-2a14 14 0 0 1-2 0 5 5 0 0 1-1-1 4 4 0 0 1 0-1l1 1zm-18-6zM51 84l1-1a2 2 0 0 1-1 1zm13 65zm1 2-1-1 1 1zm37-32zM52 81zm45 2zm-46 48z"/><path d="m70 157-1-1a1 1 0 0 1 0 1h1zm2 8h1-1zm-3-7v1a7 7 0 0 0 0 1 1 1 0 0 1 0-1zm0 2a3 3 0 0 1 1 0h-1zm-3-8c0 1 0 0 0 0 1 0-1-1 0 0zm2 8v-1h-1 1v1zm-3-5 1 1-1-1zm1 1a2 2 0 0 0 0 1 5 5 0 0 0 0-1zm1 3v-1h-1l1 1zm-7-14h-1v-1 1h1zm0 4a1 1 0 0 1 0-1h-1zm-2-3s-1-1 0 0c0 0 1 1 0 0zm-6-17h2-2zm-7-14v2l1-1-1-1zm1 1zm61 53a2 2 0 0 0 0 1v-1zm0 1h-1 1zM69 68h1zm14 1zm10 6-1-1a2 2 0 0 1 1 1c0 1 0 1 0 0z"/></g><path d="M273 378c15 11 35 12 53 10a215 215 0 0 0 53-10c32-11 57-31 65-65 3-15 3-31-3-45-6-16-19-31-36-36-16-5-33 1-44 13-10 12-14 29-6 43 7 13 23 21 39 18 7-1 15-5 19-12 6-9 5-21-3-28-3-3-9-2-12 1-3 4-2 9 2 13 2 1-2 5-3 7a14 14 0 0 1-5 2h-3l-1 1h-1a21 21 0 0 1-11-4c-3-2-5-4-7-8a12 12 0 0 1-1-6 25 25 0 0 1 1-7 26 26 0 0 1 9-12 25 25 0 0 1 29-1c21 13 26 40 19 62-9 26-27 38-51 47a197 197 0 0 1-47 10c-15 1-32 2-45-7-9-6-19 7-10 14z" fill="#9d8f7b"/><path d="M393 443a60 60 0 0 0-7-24c-3-5-4-8-5-14l-2-21-4-18c-6-22-15-44-29-63-13-19-28-35-44-51a152 152 0 0 0-23-18c-8-5-30-8-18-19 10-10 21-22 28-36 6-15 7-33 9-49 5-31-8-67-27-92a98 98 0 0 0-55-33c-20-4-41-1-61 5-16 6-32 13-45 25-6 6-10 12-14 19a97 97 0 0 0-15 54c1 24 9 47 20 68a230 230 0 0 0 35 51l2 2-1 2a11 11 0 0 0-6 2c-19 14-40 27-58 43-14 13-29 29-37 47-13 28-24 58-29 88-3 17-6 44 15 51a12 12 0 0 0 5 1 8 8 0 0 0 6 5c13 3 25-1 37-5 12-3 7-21-5-17a86 86 0 0 1-11 2c-5 1-12 4-17 0-4-4-10-13-6-19a10 10 0 0 1 2-2v-1h1c4-2 9-2 13 0 5 2 10 6 12 11l2 2c9 8 21-4 13-13-5-6-12-10-19-14-3-1-16-4-17-6v-7c14-40 31-89 66-116 11-9 25-15 35-23l-11 50c-2 5-10 35-5 39-11-4-28-10-36 1-9 11-9 22-3 34 11 23 28 43 43 63h-9a14 14 0 0 0-15 14 14 14 0 0 0 3 9c14 0 28-3 42-4 15-2 31-2 47-2 29 0 58-1 87 6a15 15 0 0 0 5-15 14 14 0 0 0-12-10 91 91 0 0 0 12-12 129 129 0 0 0 9-12 68 68 0 0 1 6-11c8-15 14-32 14-48-1-29-28-29-40-20-4-2-7-53-15-68-4-10-17-34 2-18 13 11 27 20 39 31 17 17 31 36 38 58 4 12 10 24 13 36 1 4 2 29 4 29-9-2-16 1-24 3a44 44 0 0 0-9 2 45 45 0 0 0-19 10c-4 9-6 19-2 29a11 11 0 0 0 9-3 5 5 0 0 1 0-2c0-16 25-32 37-18a5 5 0 0 1 1 3c5 16-16 18-26 18a4 4 0 0 1-1 0 11 11 0 0 0-4 11 10 10 0 0 0 7 7 10 10 0 0 0-1 4c0 6 4 10 10 11 14 0 29-2 41-9s18-18 17-30v-3z" fill="#9d8f7b"/><g fill="#ac9f8d"><path d="M389 447v-3a1 1 0 0 0 0-1v4zm-45 35h1-5l-2 1h-2a3 3 0 0 1-1 0h5l3-1h1zm-8-29h-6l-2 1h-4a4 4 0 0 0-1 0 7 7 0 0 0 0 1l-1 1a9 9 0 0 0 0 6 8 8 0 0 0 1 4h1l1 1a66 66 0 0 0 2 1h1v2l-1 1v1a5 5 0 0 0 0 1 5 5 0 0 0 0 1v1a3 3 0 0 0 1 1 8 8 0 0 1-1-1v-1a5 5 0 0 1 0-1 5 5 0 0 1 1-1v-1l1-3h-2l-1-1h-1a3 3 0 0 1 0-1h-1a6 6 0 0 1 0-1 8 8 0 0 1-2-3 8 8 0 0 1 0-2 8 8 0 0 1 0-1 8 8 0 0 1 0-2v-1h1a3 3 0 0 1 0-1 6 6 0 0 1 1-1h3a84 84 0 0 0 9-1zm11-30h-2a13 13 0 0 1 2 1 18 18 0 0 1 3 2l1 1 1 1a19 19 0 0 0 1 1 10 10 0 0 1 0 1 10 10 0 0 1 1 2 11 11 0 0 0 0-2 10 10 0 0 0-1-1v-1h-1c-1 0 0 0 0 0v-1l-1-1a19 19 0 0 0-4-3z"/><path d="M353 429a10 10 0 0 1 1 3l1 1-5 1v-1l4-1-4 2 5-1a8 8 0 0 0-1-2 10 10 0 0 0-1-2 5 5 0 0 0-1-1 13 13 0 0 1 1 1zm-35-1 2-1 3-2a35 35 0 0 1 3-1l1-1c1 0 0 0 0 0a15 15 0 0 0-2 1 34 34 0 0 0-3 1l-2 2v-1a32 32 0 0 0-3 2l-1 1v1l-2 2 4-4zm-6 8 1-1 1-1 1-1 1-1a10 10 0 0 0-2 1 18 18 0 0 0-2 3z"/><path d="m324 425-1 1a35 35 0 0 0-3 2 35 35 0 0 0-3 3l-1 1 1-1a26 26 0 0 0 2-3h1a31 31 0 0 1 4-3zm6-2a26 26 0 0 1 5-1 18 18 0 0 1 3 0c1 0 1 0 0 0a29 29 0 0 0-5 1 23 23 0 0 1 7-1 20 20 0 0 1 4 2h3v1a3 3 0 0 0 0-1h-1a16 16 0 0 0-4-2 18 18 0 0 0-2 0 20 20 0 0 0-3 0 24 24 0 0 0-7 1zm10 28h-2l-2 1h-3l-3 1h-3 3l5-1a37 37 0 0 0 3 0l2-1zm-32-19-1 1-1 1a7 7 0 0 1 0 1v1l-1 2v1l1-1v-3l1-1v-1a3 3 0 0 1 1-1z"/><path d="M306 435v-2l1-1v-2c0-1 0 0 0 0l1-1v-2 2l-1 2-1 1a12 12 0 0 0 0 1v2zm7 3v-1l1-1a32 32 0 0 1 4-5 35 35 0 0 1 5-4l1-1-2 1a35 35 0 0 0-5 5 30 30 0 0 0-5 6l-1 2v1l1-1 1-2zm22-21-1 1h-2l-2 1 1-1h4l3-1 1-1h1-1l-2 1h-1zm22-7 1-2a6 6 0 0 1 0-1 6 6 0 0 1 0 2v-3h4v-2l-1-2v-2l-1-2-1-9 1 9v4a60 60 0 0 0 1 4h-3v1l-1 3zm0-30 1 1v4l1 4a182 182 0 0 0-1-7v-1l-1-1zm-36 40h2v-1h2a3 3 0 0 0 1 0l3-1h-3v1h-3l-2 1z"/><path d="M325 419v-1h1a26 26 0 0 0 2 0 39 39 0 0 1-2 0h-1a3 3 0 0 1 0 1zm-5 1h1a2 2 0 0 0-1 0zm-16 28v-1l-1-3v-5a6 6 0 0 0 0 1v1l-1 1a18 18 0 0 0 0 1 9 9 0 0 0 1 2l1 1v2zm12-27-1 1-2 1h-1c-1 0 0 0 0 0l-2 1-1 1-1 1a1 1 0 0 1 0 1v-1h1l3-2a41 41 0 0 1 4-3zm4-2-2 1-2 1 2-1h1l1-1zm39-20-1-7-1-8 1 9 1 9v-3zm-12 15zm-9-84v1a2 2 0 0 1 1 0zm21 73a39 39 0 0 0 0 2 3 3 0 0 1 0 1h-2v1a34 34 0 0 0 0 2 4 4 0 0 0 0 1v1h-1 1v-1a3 3 0 0 1 0-1v-3h2v-1a18 18 0 0 1 0-2v-1h-1a13 13 0 0 1 1 1zm-7-38 3 8a78 78 0 0 0-2-7 7 7 0 0 0-1-1zm-2 49h-1 1zm0 0h5l1-2v-1 1a127 127 0 0 0-2 1h-5l-1 1a14 14 0 0 1 2 0zm-24-96a7 7 0 0 1 2 2 53 53 0 0 1 5 7v2l1 1 2 4 1 2v1a281 281 0 0 0 2 3v1a4 4 0 0 0 1 1v-1c1-1 0-5-2-10l-1-1v-1l-1-1v-1l-2-2v-1l-1-2a174 174 0 0 1 6 14 12 12 0 0 1 0 1c0 1 0 1 0 0l-1-1-1-3-1-1c-1-1 0 0 0 0a189 189 0 0 1-3-7l-1-2-2-4h-1l-1-2-2-3h-1v-1l-1-1-1-2-1-1-2-1 1 2 3 3v1l1 1 1 1 1 2s-2-3-1 0zm20 32a398 398 0 0 0-1-4l-1-2-1-4-1-1v-1l-1-2-1-2v-1a9 9 0 0 0-1-2l1 4 1 3 1 2 1 2v1l1 1v1l1 3 1 3z"/><path d="m354 372-3-7a6 6 0 0 0-1-1v2l2 6 1 2v1l1 2 1 4h1a19 19 0 0 0-1 0l-1-7v1l1 1a2 2 0 0 0 0 1v-2l-1-3 2 8 1 1-1-1a147 147 0 0 0-1-7c0 1 0 1 0 0a4 4 0 0 1-1-1l-1-2s0-1 0 0l2 3-1-1v-2l-3-7-3-6-1-3 3 7 4 11zm-52 61 1-1a11 11 0 0 0 0-1 2 2 0 0 0 0 1l-1 1z"/><path d="m306 425-1 1v3l-1 1v2h-1l-1 2v2c0 1 0 0 0 0v1c0 1 0 1 0 0l1-3 1-2a41 41 0 0 1 2-5v-1h1v-1h1l1-1 1-1a30 30 0 0 1 3-2 8 8 0 0 1 1 0 21 21 0 0 0-3 1 20 20 0 0 0-3 2h-1l-1 1zm43-13h1v-1h1l2 1h1l1-1 1-1h1a6 6 0 0 1 0-2l-1-2h1v-4 3l-1 1a19 19 0 0 0 1 2 5 5 0 0 0 0 2h-2v1h-3a7 7 0 0 0-1 0 5 5 0 0 0-1 0 2 2 0 0 1-1 1zm-11-83 1 1-1-1-1-3-2-3-1-1v1l2 2 1 2 1 2zm-12-20h1-1v-1l-1-1-2-2 2 2 1 1zM34 472l-1-1h-2a14 14 0 0 1-2-1l-1-1a12 12 0 0 0 2 1l1 1h2l1 1zm37-5 1-1-1 1h-1 1zm44-1h-5a5 5 0 0 1-1-1v-1h-1a1 1 0 0 1 0 1 5 5 0 0 0 0 1h7zM80 308l1-1 1-1 2-4-1 1-1 2-2 3zm0 5-1 2h-1v1l-1 1-1 2-1 1-1 1 6-8zm-31-18 1-3 1-1h1v-1l-3 4a5 5 0 0 0-1 1h1zm258 51a20 20 0 0 1 3 7 28 28 0 0 1 1 3v3a26 26 0 0 0-1-9 8 8 0 0 0-3-4zM48 465h-1a33 33 0 0 0-3 1h1l1-1h2s1 0 0 0zm262-89 1-2v-8l1-4v-1h-1v-2 8l-1 9zm-48-154a1 1 0 0 0 1 0h-1zm114 164-1-4-1-4a104 104 0 0 0 1 5l1 3zM255 247h1l1 1v-1h-2zm22 18a5 5 0 0 0-2-1 7 7 0 0 1 2 1zm20 154c0-1 0-1 0 0z"/><path d="M263 251h-1l-1-1-1-1a16 16 0 0 0-4-2l1 1h2l2 2h1v1z"/><path d="m262 250 1 1 2 1 1 1 1 1c1 0 0 0 0 0 1 1 1 1 0 0l-2-1-1-1-1-1-1-1zm-12-1a4 4 0 0 1 0-1 3 3 0 0 1 1 0 4 4 0 0 1 1-1 5 5 0 0 1 1 0 9 9 0 0 1 3 0h-1a9 9 0 0 0-2 0 3 3 0 0 0-1 0 4 4 0 0 0-1 0 3 3 0 0 0-1 1 4 4 0 0 0 0 1zM111 31l1-1 2-1c1 0 0 0 0 0h-1l-2 2zM84 391v-1zm-7-17a53 53 0 0 0 1 5l2 4 1 2 1 2 1 2v1-5l-1-1v-1l-3-3a39 39 0 0 1-2-4v-2z"/><path d="m6 398-1 1-1 4v3l-1 1v2l2-16v-2a12 12 0 0 0 0 1l-1 4a5 5 0 0 1 0 2l-1 6v3l-1 4-1 9-1 8a62 62 0 0 0 0 8 33 33 0 0 0 1 6l1 1a8 8 0 0 0 0 1 2 2 0 0 0 0 1l1 1v3l1 1v2l1 1-1-2v-1a20 20 0 0 1-1-2v1c0 1 0 0 0 0l1 2v1l1 1 1 2 1 1 1 2 1 1h1v1l1 1h1l1 1h1l1 1 2 1h2l1 1h2l1 1a16 16 0 0 0 1 0h2v1c0 1 0 0 0 0a11 11 0 0 0 2 1 11 11 0 0 0 1 1 13 13 0 0 0 2 1l1 1h1a71 71 0 0 1 3 1 2 2 0 0 1-1 0 12 12 0 0 1-1 0h15l1-1h3a5 5 0 0 1-1 1 35 35 0 0 1-3 0h1l3-1 8-1 7-3h3l1-1h1l1-1h1l1-1v-1l1-1h1a6 6 0 0 0 0-1v-1a12 12 0 0 0 1-5 13 13 0 0 0-1-4v-2a4 4 0 0 1-1-1 5 5 0 0 1 1 1l1 3v-2h-1v-1a12 12 0 0 0-1-1 12 12 0 0 0-2-3 12 12 0 0 0-1-1h-1l-1-1h-3a6 6 0 0 0-1 0h-2a5 5 0 0 1 0-1h3a6 6 0 0 1 1 0h1a9 9 0 0 1 1 1h1a11 11 0 0 1 4 3 13 13 0 0 1 3 8 13 13 0 0 0-1-5 12 12 0 0 0-1-3l-1-1-1-1-1-1h-1a7 7 0 0 0-1-1 31 31 0 0 0-2 0 8 8 0 0 0-1-1 8 8 0 0 0-1 0h-3v1h-3a75 75 0 0 1-9 2h-1l-4 1a37 37 0 0 1-4 1l4-1 4-1h1l3-1h-4l-5 1a33 33 0 0 1-4 1 10 10 0 0 1-1 0 4 4 0 0 1-2-1v-1h-1a15 15 0 0 1-3-5 10 10 0 0 0 0 1 17 17 0 0 0 1 2l1 2 1 1h1a5 5 0 0 0 1 1 8 8 0 0 0 1 1 5 5 0 0 1 2 0h-1a6 6 0 0 1-1 0 6 6 0 0 1-2 0 6 6 0 0 1-1-1h-1a11 11 0 0 1-1-2 21 21 0 0 1-3-3 19 19 0 0 1-2-3v-3a8 8 0 0 1 1-1 6 6 0 0 1 0-1v-1a5 5 0 0 1 1 0 6 6 0 0 1 1-1l1-2v-2l-4 4h2l1-1a6 6 0 0 1 2 0v1a8 8 0 0 1 2-1 14 14 0 0 1 2 0h2a21 21 0 0 1 2 1 13 13 0 0 1 3 1 17 17 0 0 1 2 2 14 14 0 0 1 2 2 10 10 0 0 1 2 3v1l1 1v1a7 7 0 0 1 1 0v1h1v1a16 16 0 0 0 2 1l1 1a8 8 0 0 0 1 0 13 13 0 0 0 2 1 9 9 0 0 0 2 0h-1a11 11 0 0 1-1 0l-1-1h-1l-1-1h-1c-1 0 0 0 0 0v-1a8 8 0 0 1 1 0v1h2v1h3a12 12 0 0 0 4 0 13 13 0 0 0 4-2h1v-1h1a8 8 0 0 0 1-1 13 13 0 0 0 3-6v-3a13 13 0 0 0 0-2v-2a8 8 0 0 0 0-1h-1v-1l-1-1-1-1v-1h-1a51 51 0 0 0-8-7 84 84 0 0 0-11-6 12 12 0 0 0-2-1l-1-1a12 12 0 0 1-1 0h3s0 1 0 0a3 3 0 0 0-1 0h-1l-3-1-3-1h-3v-1h-3a2 2 0 0 1-1 0 2 2 0 0 1-1-1 3 3 0 0 1 0-1 4 4 0 0 1 0-1v-1a3 3 0 0 1 0-1l1-1 1-3 3-10 9-22v1l1-4 1-2 2-5 2-4v-1l1-1 1-3 1-3 4-9 1-2 1-2 1-2 3-4 1-1v-1l-2 2v1l1-3 1-2v-1l1-1 1-2 2-3 2-4-2 2-1 2-2 1-1 2 1-1v-1l1-1 2-2 1-3 1-1v-1l1-1 1-1 1-1 2-2v-1c2-1 1 0-1 3l1-2h1v-1a25 25 0 0 1 2-2h1a12 12 0 0 1-1 2l-1 1-1 1-2 3-2 2-1 1v1l-1 1-1 3-1 2 2-2 2-3-1 1a10 10 0 0 0 1-2c1 0 2-1 2-3h1l1-1 2-1v-1l3-3 2-3 4-3 3-3 3-2 3-2a159 159 0 0 1 15-12l4-3 2-1 1-1 1-1 8-6h1v-1 3l-1 4-2 10a15 15 0 0 0 0-3v-1l-2 2v-1l1-1v-1a34 34 0 0 0 1-4v-2l1-1v-1h-1a57 57 0 0 1-9 7 141 141 0 0 1 2-1 1 1 0 0 1 1 0l-1 1 1-1 1-1a101 101 0 0 0 4-3l1-1v1a52 52 0 0 1-1 4v1a9 9 0 0 0-1 1v1l-1 2-1 5-1 9-3 11v2l-1 3v2a1387 1387 0 0 0-1 2v-2a104 104 0 0 1 3-12 62 62 0 0 0-2 9l-1 1v4a57 57 0 0 1-1 9l-3 8a44 44 0 0 0 2-6l-3 15a120 120 0 0 0-1 4v1c0 1 0 1 0 0v-2 3a11 11 0 0 0 0 1 5 5 0 0 0 0 1 2 2 0 0 0 0 1 53 53 0 0 0-5-2h-1l-3-1a42 42 0 0 0-8-1 24 24 0 0 0-9 2 18 18 0 0 0-4 2 19 19 0 0 0-2 1 21 21 0 0 0-1 2l-2 2-1 1-1 2v1a29 29 0 0 0-3 6 21 21 0 0 0 0 4h-1v1a3 3 0 0 0 1 1l-1-1a10 10 0 0 1 0-1 12 12 0 0 1 0-1v-1a6 6 0 0 1 0-1l-1 1v1a29 29 0 0 0 0 5 30 30 0 0 0 2 6 33 33 0 0 0 1 3l1 3 2 3 1 2 1 1 3 5 2 2 1 2a422 422 0 0 0 0 1 11 11 0 0 1-1 2c0 1-2 1-6-7l1 2 1 2 1 2 1 2 1 2 1 1 1 2 2 3 2 3a21 21 0 0 1-1-3l-1-1a10 10 0 0 1 0-1l2 1 1 3 2 3a81 81 0 0 0 3 5l1 1 1 1 1 3 3 4c-1-2-1-2 1-1a41 41 0 0 1 6 7c-1-1-1 2-3-1l2 3 5 5 1 1 1 1 2 1 1 2a7 7 0 0 0-1-1h-1a1 1 0 0 0 0 1h-7l-1 1a17 17 0 0 0-5 2 18 18 0 0 0-3 2 16 16 0 0 0-2 3v-1l1-1a18 18 0 0 1 6-4 15 15 0 0 1 1 0 16 16 0 0 0-2 1h-1l-1 1a16 16 0 0 0-3 3 16 16 0 0 0-3 6 15 15 0 0 0 1 8v2h1a16 16 0 0 0 1 2v1h1v1h6l13-2-3 2h2a36 36 0 0 0 6 0l6-2 10-3a126 126 0 0 1 12-2 135 135 0 0 1 14-2h19l-10 1-13 2a376 376 0 0 0-14 2l-13 3 6-1h7l-8 2 1-1h3l10-1h15c-1-1 4-1 10-1l11-1h-16a495 495 0 0 0-15 1h-1l3-1 8-1 13-1h15c5 0-4 2-4 2h12l6-1 4 1h-9 28a213 213 0 0 0 13 2h3l1 1a5 5 0 0 0 2 0 22 22 0 0 1-2-1 17 17 0 0 1-2-1 5 5 0 0 1-2-2c-1-1 0-2 3-3l5 1h2l2 1h2l3 1h2l3 1 4 1h1l1 1h2a16 16 0 0 0 2-2l1-1a3 3 0 0 1 0 1v1l-1 1-1 1v1h-5l1 1h1a6 6 0 0 1 1 0h2l1-1 1-1v-1h1v-1l1-1v-1a5 5 0 0 1 1 0c0-1 0 0 0 0l1-2a9 9 0 0 0 0-1l1-1a16 16 0 0 0 0-4 4 4 0 0 1 0-1l-1-1v-3a18 18 0 0 0-4-5l-1-1v-1c-1 0-1 0 0 0v1l1 1 1 1v1l1 1v1h1a16 16 0 0 0-3-4h-1v-1l-1-1-1-1h-2c-1 0 0 0 0 0l-1-1h-1a38 38 0 0 0 4-3v-1a4 4 0 0 1 1-1l3-4 4-7 5-7a4 4 0 0 0 1 0v-1l1-1a66 66 0 0 1 4-7l1-1v-1l1-1 1-1v-2a125 125 0 0 0 6-11 105 105 0 0 0 4-12 90 90 0 0 0 2-14v-4h1v-9l-1-3a36 36 0 0 0-2-4l-1-3a13 13 0 0 1 1 2 25 25 0 0 1 1 2 49 49 0 0 1 2 5v1a3 3 0 0 0 0-1v-1a22 22 0 0 1-1-3l-2-3a25 25 0 0 0-2-4 21 21 0 0 0-6-5 22 22 0 0 0-8-3 5 5 0 0 0 1 1h1l3 1a24 24 0 0 1 3 2l2 1a21 21 0 0 1 2 1 21 21 0 0 1 3 4 25 25 0 0 1 2 4 31 31 0 0 1 1 5 36 36 0 0 1 1 3l-2-2v-2l-1-1a32 32 0 0 0-2-4 22 22 0 0 0-3-4 19 19 0 0 0-5-4 20 20 0 0 0-6-2 26 26 0 0 0-7 0 32 32 0 0 0-5 1l-3 1h-2a20 20 0 0 0-3 2 10 10 0 0 0-1 0 6 6 0 0 0-1 0v1a1 1 0 0 1 0-1 4 4 0 0 1-1-1 10 10 0 0 1-1-1 18 18 0 0 1-1-2v-3l-1-1v-3l-1-3-2-10-2-9-2-14a25 25 0 0 1-1-5h1l1 2 2 9 1 7 2 14-2-12a266 266 0 0 1 2 6 575 575 0 0 0-7-38 45 45 0 0 0-2-5l-3-5a187 187 0 0 1-4-10 24 24 0 0 1-1-4 10 10 0 0 1 0-1 4 4 0 0 1 0-1 1 1 0 0 1 0-1 1 1 0 0 1 1 0 3 3 0 0 1 1 0 8 8 0 0 1 1 0l1 1c0 1 0 0 0 0l-1-1-1-1h-1a4 4 0 0 0-1 0 2 2 0 0 0-1 0 3 3 0 0 0 0 2v1a4 4 0 0 1 0 1l-1-1a8 8 0 0 1 0-2 4 4 0 0 1 0-1 2 2 0 0 1 1 0 1 1 0 0 1 0-1 3 3 0 0 1 1 0h1l1 1v-1h-1a7 7 0 0 0-1 0 8 8 0 0 1 2 0h1l1 1a26 26 0 0 1 3 2l2 1 3 2 2 2h1l1 1 16 12 1 1 1 1a7 7 0 0 0-2-1 94 94 0 0 0 2 2l3 2 3 3 2 1 1 1 2 1 1 1-1-1-3-3-3-2-1-1 4 2 1 1 2 2 2 1 1 2 2 1 2 2a108 108 0 0 1 13 14 21 21 0 0 0-3-4l-1-2-1-1v-1a172 172 0 0 1-2-1 6 6 0 0 1-1-1l-1-1-3-3-2-2-2-2a105 105 0 0 0-9-7 12 12 0 0 0 2 2 84 84 0 0 0-10-9l-12-10v1a11 11 0 0 1-1-1 154 154 0 0 1-3-2l-1-1a985 985 0 0 1-2-2l-1-1-2-1h-1 1c-1 0-1 0 0 0l1 1 2 1 1 2 2 1h-1l-1-1-2-1-2-2-1-1h-1l-3-2h-1l-1-1a17 17 0 0 0-2 0 8 8 0 0 0-2-1 4 4 0 0 0-1 1 2 2 0 0 0-1 0 3 3 0 0 0 0 1 5 5 0 0 0 0 1 9 9 0 0 0 0 2 17 17 0 0 0 0 3 24 24 0 0 0 1 4l1 2a5 5 0 0 1 0 1v-2l-1-1c0-1 0 0 0 0 0-1-1-1 0 0v1l1 1 2 4v1l1 1v2l1 1a11 11 0 0 0 1 2v1l1 1v3l-1-1v-2l-1-2 1 2a29 29 0 0 1 1 4l1 4 1 2a472 472 0 0 1 6 35v1a1969 1969 0 0 0 3 13v2a1851 1851 0 0 0 2 5 14 14 0 0 0 0 2 9 9 0 0 0 1 1 8 8 0 0 0 1 1 10 10 0 0 0 1 1h2l3-2h2v-1h2l1-1h1c1 0 0 0 0 0a29 29 0 0 1 4-1 27 27 0 0 1 3 0 21 21 0 0 1 7 0 17 17 0 0 1 3 2 15 15 0 0 1 3 1 16 16 0 0 1 4 6 23 23 0 0 1 2 7 33 33 0 0 1 0 3v4a68 68 0 0 1-1 8 85 85 0 0 1-2 11 90 90 0 0 1-5 14v1l-1 1-2 3-1 2-1 2-1 2v1a44 44 0 0 0-4 5l-2 4a1 1 0 0 1 0 1h-1l-1 2-3 4-3 3-1 2-2 2-3 2v1h-1v1l-2 1-1 1-1 1-2 2-3 2-3 3-1 1-1 1 7 1 3 1h2a5 5 0 0 1 1 0l1 1a5 5 0 0 1 1 0l1 1a10 10 0 0 1 1 1 9 9 0 0 1 2 3 9 9 0 0 1 0 3 10 10 0 0 1 0 3 7 7 0 0 1-1 1 3 3 0 0 1 0 1 3 3 0 0 1-1 0h-1l-1 1a198 198 0 0 0-36-4l1 1-22-1-28-1a65 65 0 0 1 10 0 190 190 0 0 0-35 1h-9l-8 1-8 1-8 1a91 91 0 0 1-12 2 24 24 0 0 0-1 0h-7 6-9l-1 1h-3v-1a4 4 0 0 1 0-1v-1l-1-1c0-1 0 0 0 0v-1 2a12 12 0 0 1-1-6l1-2 2-1a14 14 0 0 1 3-3 11 11 0 0 1 2-1 10 10 0 0 1 1-1h6l4 1a54 54 0 0 1 8-1h1-1l-10-12-1-2-1-1-2-2-3-4a27 27 0 0 0-4-4l1 1-11-15-1-3-1-1v-1l-2-1-1-2-2-2v-1l-1-1-1-2a51 51 0 0 1-4-7h1l1 1 1 2-1-1v-1l-1-1-1-2-2-3-1-2-1-1v-2l-1-2-1-2v-1l-1-3a28 28 0 0 1 0-4 24 24 0 0 1 0-5v1a29 29 0 0 1 4-10l1-1v-1l1-1 1-1a9 9 0 0 1 3-2 17 17 0 0 1 3-1l2-1h1a24 24 0 0 1 3 0 32 32 0 0 1 4 0l4 1 4 1 1 1h2l1 1h2a11 11 0 0 1 1 0l1-1a4 4 0 0 1 1 0h1a2 2 0 0 1-1-1 7 7 0 0 1 1-2 19 19 0 0 1 0-2h1v-5l1-8 2-9 3-9v-2l1-2v-3l1-2 2-8 4-17-1 1 1-3v-2l1-2 1-3v-2l1-1a213 213 0 0 0 2-13v-1l-1 1a2 2 0 0 1-1 1v-1l3-2-2 1-3 2-4 4h-1l-1 1-2 1a585 585 0 0 1-5 4l-2 1-2 1-4 2-8 5a64 64 0 0 0-7 6l1-1v-1l-1 1-2 1a34 34 0 0 1-3 3s-1 0 0 0a5 5 0 0 1 0-1 24 24 0 0 1 2-2l1-1h1a76 76 0 0 0-9 7l-1 2-1 1-2 2-2 5-2 2-1 1-1 2a60 60 0 0 0-6 8l-1 2-1 2a39 39 0 0 1-3 3v-1l3-5-5 8-3 5a1295 1295 0 0 1-11 23 21 21 0 0 0-1 2 102 102 0 0 0-3 8l-1 3-1 2-2 4-2 6-5 14 1-2v-2a45 45 0 0 1-2 10l-2 6-1 1v2a14 14 0 0 0-1 3 8 8 0 0 0 0 2 7 7 0 0 0 0 1 3 3 0 0 0 1 1 10 10 0 0 0 3 2h1v1h2l5 2 6 2h2l2 2 5 3a51 51 0 0 1 6 5l-1-1v-1l4 3 1 1 1 1v1a4 4 0 0 1 1 0 7 7 0 0 1 0 1 1 1 0 0 1 0 1 8 8 0 0 1 0 3 9 9 0 0 1-6 7 6 6 0 0 1-2 0 7 7 0 0 1-3-1l-1-1-1-1-1-1h-1 1v1l1 1h1a5 5 0 0 0 0 1 5 5 0 0 0 1 0h-1a5 5 0 0 1 0-1h-1l-1-1-1-1v-1l-1-1a25 25 0 0 0-5-7 26 26 0 0 0-4-3 25 25 0 0 0-5-2 20 20 0 0 0-4-1 15 15 0 0 0-4 0h-1 5a24 24 0 0 1 2 0 18 18 0 0 0-7 0h-1c-1 0 0 0 0 0h-1a6 6 0 0 0-1 1 5 5 0 0 0-1 0l-1 1 3-1-5 5 2-4a8 8 0 0 0-1 1 1 1 0 0 0-1 1 1 1 0 0 1 0 1v1l-1 1a14 14 0 0 0-1 2v2a13 13 0 0 0 0 3 2 2 0 0 1 0 1h-1v1a18 18 0 0 0 2 6 19 19 0 0 0 3 4 23 23 0 0 0 2 3l1 1h1v1h1c0 1 0 0 0 0a14 14 0 0 0 5 2 19 19 0 0 0 5 0l5-1 3-1h1l5-2 6-1h2a2 2 0 0 1 1 0h1l1 1a7 7 0 0 0 0-1h-1 1a5 5 0 0 1 2 1v1c0 1 0 0 0 0a7 7 0 0 1 0 1 7 7 0 0 1 1 2 7 7 0 0 1 0 1 6 6 0 0 1-1 2 6 6 0 0 1 0 1v1h-1a3 3 0 0 1 0 1 17 17 0 0 0-1 0 3 3 0 0 1-1 0l-1 1h-3l-11 3-9 2a18 18 0 0 1-2 0 37 37 0 0 1-8-1h-3a7 7 0 0 1-1-1 5 5 0 0 1-1-1h-1v-1l-1-2h-5a9 9 0 0 1-1 0h-2v-1h-1a4 4 0 0 1-1 0v-1h-2v-1h-1l-1-1a8 8 0 0 0-1-1l-1-1v-2a31 31 0 0 1-3-6 43 43 0 0 1-2-8 68 68 0 0 1-1-9 104 104 0 0 1 2-17v-3l1-2 1-2 1-4 1-4v-2l1-3 1-5 1-4 1-4v1l6-18a191 191 0 0 0 3-11 16 16 0 0 1 1-1c0-1 0-1 0 0v1l3-8 2-3 1-3 4-10 1-2 1-3 2-4 7-12h1v-1h1l15-18 14-12 15-12a11 11 0 0 1-2 2l12-9 13-9 14-9 3-2a2 2 0 0 1 1-1h2a6 6 0 0 0 1-1h1a9 9 0 0 0 1-1v-1l1-1v-2h1v-2l-3-3-2-2-1-1-3-4-2-1-1-1a27 27 0 0 0-2-2l-2-3-4-4-2-3-1-1-1-2-1-1-1-1 2 3 2 3 1 2h-1a146 146 0 0 1-3-3l-1-2-1-1-1-2-1-2-1-1-1-3c-2-3-2-4 1 1l1 2-1-3-5-9-7-15a181 181 0 0 1-12-32 131 131 0 0 1-3-17v-4l-1-2v-11a99 99 0 0 1 5-25v-2h1v-1l1-2 1-2 3-8 1-2 1-1 2-4a88 88 0 0 1 9-13h-1l-1 1-1 1-1 1 2-2 3-4 2-2 1-1 1-1 1-1a23 23 0 0 1 2-1h1a12 12 0 0 1-2 1l-1 1-1 1-1 1-1 1 1-1h1l2-2 2-2a122 122 0 0 0 4-4l2-1a19 19 0 0 0 2-2l7-3h-1l-1 1-1 1-1 1h-1l-3 2c-1 1-1 1 0 0h1l1-1 2-1 2-1 2-1h-1l-1 1c0 1 0 0 0 0l2-2h1l1-1 1-1 2-1a60 60 0 0 1 11-5l6-1h2l1-1h1l2-1 3-1h3l2-1h3V9h2l3-1h2-7 4l3-1h2l2-1h2a5 5 0 0 0-1 0h-3l17-1a116 116 0 0 1 12 1l3 1h3l1 1h2l2 1h2l3 1h1l1 1h1l2 1 2 1h1l2 1h1l1 1 2 1 2 1h1v1h1l1 1 1 1 2 1 4 2 1 1 1 1 2 1 1 2 2 1 2 1 2 2 1 1 1 1 1 1 1 2 2 1a87 87 0 0 1 6 8l6 9-1-1v-2a9 9 0 0 1 1 2l2 3 2 3v2l3 9a115 115 0 0 1 4 11 56 56 0 0 1 2 10l1 2v2l1 1v4l1 2v1l1 11v1c0 1 0 0 0 0a2 2 0 0 0 0-1v-2 5c0 1 0 1 0 0v1a5 5 0 0 0-1 1 24 24 0 0 0 0 1v9l-1 1-1 10a197 197 0 0 1-3 21 89 89 0 0 1-3 11l-1 2-1 3-1 1v1l-2 3a114 114 0 0 1-13 18l1-1v1a10 10 0 0 1 0 1l-1 1-1 1-1 1-1 1-1 1-1 1-1 1-3 2-2 1-1 1v1h-1v1h-1v1l-1 1a8 8 0 0 0-1 2 7 7 0 0 0 1 4 11 11 0 0 0 4 4v1c0 1 0 0 0 0h1a43 43 0 0 0 5 3 12 12 0 0 1-2-1h2l6 3 5 2h1l1 1 3 2a123 123 0 0 1 13 10l8 8a386 386 0 0 1 32 35 224 224 0 0 1 14 19 176 176 0 0 1 11 20l5 11 2 5 1 3v1l1 2 1 3 1 2v3l1 3 1 3v2l1 6v-4l1 8c0-5 1 0 1-1l1 4 1 4a209 209 0 0 1 1 18 18 18 0 0 1 1 2v4a29 29 0 0 0 2 5l1 3 1 2 1 2 1 1v1l2 4a40 40 0 0 0 2 5v-1c0-1 0 0 0 0l-1-2v-1l-1-1c-1 0 0 0 0 0v-2h-1v-1l1 2h1a25 25 0 0 0-2-6l-1-3a27 27 0 0 1-1-4v-3a19 19 0 0 1-1-4v-6l-2-13v-7a218 218 0 0 0-3-12v-2l-1-1v-3a97 97 0 0 0-2-5 6 6 0 0 1 0 1l1 1a122 122 0 0 1-2-6l-1-2-5-13 1 1-2-3-1-2v-2l-1-1-1-2-1-3-1-2-1-2-1-1-1-1-9-16-3-4-1-2-1-2-2-2-1-2-3-4-2-2-1-2-4-5-4-5-4-5v2l1 1-3-4-3-2-3-4c-2-1-1-1 0 0l4 5 5 6a53 53 0 0 0-4-4l-2-3-3-3-3-3-3-4a518 518 0 0 0-27-24h-1l-1-1-2-1a33 33 0 0 0-3-2 10 10 0 0 0-2 0h1v1l-4-2-2-1h-1l-2-1h-1a21 21 0 0 1-2-1l-1-1a2 2 0 0 1-1-2 2 2 0 0 1 0-1 1 1 0 0 1 1 0 2 2 0 0 0-1 0 1 1 0 0 0 1 1 3 3 0 0 0 0 1 2 2 0 0 1 0-1 2 2 0 0 1 0-1v-1h1l2-2 2-2 1-2 10-10h-1v1l-2 2-1 1-2 2-1 1a790 790 0 0 1 7-8 117 117 0 0 0 8-11 82 82 0 0 0 7-12 83 83 0 0 0 4-14l4-27v-6l1-2v-4a95 95 0 0 0 0-13v2l-1-8v-3l-1-2-1-9v-2l-1-1v-3l-1-3a112 112 0 0 0-5-14l1 1a248 248 0 0 0-11-21l-1-3 1 2-1-2-1-1v-1l-1-1-1-2-2-2-1-1-1-1-1-1-1-1-1-2h-1v-1l-2-1-1-1-1-1-2-2-3-1v-1l-1-1-1-2h-1l-1-1-2-1h-1l-1-1-2-2-3-1-1-1-2-1-1-1-2-1 2 1 1 1-1-1a50 50 0 0 0-2-2h1l1 1 2 1-5-3-1-1h-1l-2-1-2-1-1-1h-1l-2-1h-1l-1-1-4-1-4-1h-3l-2-1h-2l-11-1-6-1h-5c-3 1-3 1-1 1h13l2 1h4-20l-3 1h-15l-3 1h-3a110 110 0 0 0-13 4l2-1 2-1a89 89 0 0 0-12 4l-13 6-8 5-2 1a18 18 0 0 0-1 1 5 5 0 0 0-2 2l1-1 2-1 3-2 1-1h1l1-1 2-1 1-1h2l1-1 2-1 1-1-4 2-2 2-1 1-2 1-2 1-1 1-1 1-2 1-2 1-3 2-2 2-1 1-1 1-1 1-1 1-1 1-2 1a76 76 0 0 0-3 3l1-1 1-1 1-1 1-2 2-2-2 1v1l-1 1-2 1-1 2-3 3-2 4 2-5 3-3 1-1 1-1 2-2a99 99 0 0 1 10-8l9-6-1 1h-2l-1 1-2 1-1 1-2 1-3 2-2 2-1 1h-1l1-1-2 2-1 1-1 2h-1l-1 1-1 2h-1l-1 1-3 4a74 74 0 0 0-6 8l-2 5-2 3-1 2v-1l-5 11 1-1v-1l1-2v-2l1-2-4 9-1 2v2l-1 2-1 3v1l-1 1v2l-1 2v2l-1 3v4l-1 3 1-3v-4l1-1v-4l1-2v1l1-1 1-2-1 2v3l-1 1v3l-1 4v5l-1 2v24l1 2v3l1 3v-2a181 181 0 0 1-2-8v-1a5 5 0 0 1 0-1l1 2v4l1 1v4l1 1v5l1 2v2l1 4 1 2 1 2v-2a35 35 0 0 0 2 5 41 41 0 0 0 1 4l5 10 2 4 1 4 2 4a15 15 0 0 0 2 3 13 13 0 0 1 2 2l2 4 2 2 1 2 1 2-1-1-2-3-2-3-1-1 1 1 1 2 1 2 2 4 1 1-1-1-1-1 2 2 1 2 2 3 2 3 1 2 1 1 4 6 2 3 1 1 1 1 1 1 1 1 2 1 2 2 2 2v1h1v1l1 1v1c-1 0 0 0 0 0v1c0 1 0 0 0 0h-1a5 5 0 0 0-2 1 4 4 0 0 1 2-1 5 5 0 0 1 0-1 10 10 0 0 1-1-2l-4-3a52 52 0 0 0 4 5v1a3 3 0 0 0-1 0l-1 1-1 1-2 1-3 2 5-4-2 3-7 4-9 7 1-1-12 9a14 14 0 0 1 2-3 26 26 0 0 1 2-2l5-3-9 7-4 2-3 2-2 2-2 2-3 2-3 1-2 1-2 2-4 3-2 2-2 2-2 3-2 2a272 272 0 0 0-19 20l-2 4-2 2-1 2-2 3-2 2a106 106 0 0 0-5 10l-1 1-1 2-1 2-1 3-1 3-3 6-2 6-3 5-2 4-1 3v2a23 23 0 0 0 1-3l1-1-1 3-2 6-3 10s-1-1-2 2l-1 7-1 4-1 3v2l-2 10-3 11 1-3v-4l2-6zm36 48a7 7 0 0 0 1 0 12 12 0 0 0 1 0 25 25 0 0 0 3 0l3-1a15 15 0 0 1 3 0l-3 1a22 22 0 0 1-3 0 18 18 0 0 1-2 1 10 10 0 0 1-3-1zm56-156-7 7 1-2 1-1 1-1 4-3zm166 5zm-4-15c0-1 0-1 0 0a18 18 0 0 1 1 2l1 6a15 15 0 0 0 0-3 41 41 0 0 0-2-5zM157 13h-3l4-1a7 7 0 0 1 1 0 8 8 0 0 1-2 1z"/><path d="M80 313a3 3 0 0 1-2 1l2-1zm-32-17 1-1zm239 172v1l-1 1-1 1-1 1h-1v1h-1l-1-1h-1l2 1h1v-1h1a19 19 0 0 0 3-4zm12-190-1-1-3-2-2-1-1-1-1-1a80 80 0 0 1 7 6l-1-1h1a13 13 0 0 1 1 1zm44 76 2 4-2-7v3zm-39-68a4 4 0 0 0 1 2l2 2 7 7-1-1-9-10zm11 12 1 1v1l1 1 1 1 1 1-1-1-1-2-2-2zm-64-39-1-1v-1l-1-1c-1 0 0 0 0 0a3 3 0 0 1 0-2v-1a5 5 0 0 0 0 1v1c0 1 0 0 0 0a25 25 0 0 0 1 4l2 5 2 4 1 1a4 4 0 0 0-1-1v-2l-2-3-1-4zm56 33-1-1v-1l-4-3 3 3h1v1zm-43-36 1 1 2 2 1 1 3 2 2 1 2 2-2-2-2-1-2-2h-1v-1h-1l-2-2-1-1zm11 9zm21 17-1-1-1-1-1-1h-1l-2-2-2-2-1-1 1 1 3 3 2 1 1 1 1 1zm-7 56h2a27 27 0 0 1 4 0 24 24 0 0 1 5 0l1 1h1a6 6 0 0 0-2-1 19 19 0 0 0-5-1 28 28 0 0 0-5 0l-1 1zm-16-18a40 40 0 0 1 0 5h1zm15 16a18 18 0 0 1 3-1 31 31 0 0 1 5 0h-1a29 29 0 0 0-5 0h-3a30 30 0 0 0-3 1l-1 1h1l4-1zm-21 131 3 1v-2l-3 1zm-165 4v1l1 1v1h4a22 22 0 0 0 3 0h1a6 6 0 0 0 2 0 6 6 0 0 1 2-1h2-13v-1l-1-1-1-1-1-1v-1 2l1 1z"/><path d="M113 473h3l1-1h1l-3 1zm269-52 1 1 1 3 2 4v-1l-1-2-1-2-1-2-1-1zm8 15-1 1v2l1 2v2l1 1-1-4v-4zm-354-4v-1a2 2 0 0 0-1 1 3 3 0 0 0 0 1 6 6 0 0 0 0 2v-1a4 4 0 0 1 0-1 3 3 0 0 1 0-1h1zm-12 36h1c1 0 0 0 0 0a1 1 0 0 0 0-1 2 2 0 0 0-1 0 17 17 0 0 1-2-1 15 15 0 0 0 2 1v1zM13 365l-2 7-1 3-1 4 1-4 1-2v-3l1-2 1-3z"/></g><path d="M248 58c-9-17-33-22-51-14a40 40 0 0 0-12 8 35 35 0 0 0-23-8c-19 0-32 13-36 29-4 15-2 31 1 46 2 12 5 25 12 35 8 12 25 9 30-1l1 2c4 9 15 15 25 9a37 37 0 0 0 3-2 15 15 0 0 0 12-2c10-7 18-16 23-26 8-9 12-19 16-30 5-15 6-31-1-46z" fill="#f5e1ae"/><path d="M235 146c-6-22-22-48-46-52-26-5-49 20-59 41-11 23-12 52 4 73 12 15 29 24 49 24 19 0 35-9 46-22 15-18 12-44 6-64z" fill="#f5e1ae"/><path d="M174 118a7 7 0 0 0-10-1c-1 1-2 3-1 5 1 1 4 2 5 1a4 4 0 0 0 1 0h1a9 9 0 0 1 1 6c0 4 7 4 7 0a16 16 0 0 0-4-11zm24-2a8 8 0 0 0-10 1 14 14 0 0 0-5 10c0 5 7 5 7 0a7 7 0 0 1 2-4l2-1c2 2 4 1 5-1s0-4-1-5zm17 64c0-4-7-4-7 0 1 17-5 36-24 38-18 2-28-16-30-32-1-4-8-2-7 2 3 20 17 39 39 37s30-25 29-45z" fill="#282525"/><path d="m232 356-4-34c-2-19-6-43-14-60-7-13-35-23-42-4-10 26-8 57-9 85 0 15-2 30 0 45 1 15 5 30 17 40a25 25 0 0 0 19 5c9 2 17-4 23-12 9-8 12-26 12-35 1-10-1-20-2-30z" fill="#f5e1ae"/><g fill="#f6e5b9"><path d="M229 357v-1 1zm3 10v1-1zm1 10a3 3 0 0 0 0-2 14 14 0 0 1-1-3l1-1h-1l1 6zm-2 5v-1a10 10 0 0 1 0 1zm0-1c0-1 0 1 0 0zm0 5v-1c0-1 0 0 0 0v1zm1 1zm-1-2v1h1l-1-1zm1-1a2 2 0 0 1 0-1v-1 1a14 14 0 0 0 0 1z"/><path d="m233 377 1-1h-1v1zm-3 17h1l-1-1v1zm1 0zm1-6v-3c0-1 0 0 0 0v3zm-3 12v-1 1zm-1 3h-1a7 7 0 0 0 0 1v2a7 7 0 0 1 0-1 11 11 0 0 1 1-2zm-1 4a9 9 0 0 0 0-1 7 7 0 0 0 0 1zm3-9a2 2 0 0 0-1 1l1-1zm0 0zm0 0zm2-7zm-1 6v-2s0 1 0 0v2zm0 1v-1zm-3 7a8 8 0 0 1 0 2 18 18 0 0 0 1-3l-1 1zm1-3zm-5 12zm5-10a3 3 0 0 0 0-1 15 15 0 0 1 0 1c0 1 0 1 0 0zm-3 5a8 8 0 0 0 1-1l-1 1zm3-7zm0 0a5 5 0 0 0 0 1 9 9 0 0 0 0-1zm-4 16a1 1 0 0 1 0-1 4 4 0 0 1 1 0 8 8 0 0 1 0-1 7 7 0 0 1 1-1 1 1 0 0 0 0-1 1 1 0 0 0-1 0 4 4 0 0 0-2 0 2 2 0 0 1 0 1 6 6 0 0 1 0 1 4 4 0 0 0 1-1l1-1-2 3c0-1 0 0 0 0a6 6 0 0 1 0 1h1zm1-6v-1a5 5 0 0 1-1 1l-1 1v1l1-1 1-2z"/><path d="M227 409a5 5 0 0 1 0 1h1a3 3 0 0 0 0-2 3 3 0 0 1 0-1 6 6 0 0 1 0 2v-1l-1 1v-1l1-1-1 1v1l-1 1v1c0 1 0 0 0 0a10 10 0 0 0 0-1l1-1c0-1 0 0 0 0zm6-15c0 1 0 1 0 0zm0 1a2 2 0 0 1 0-1s0-1 0 0a6 6 0 0 1-2 3 4 4 0 0 0 2-2zm-3 7v2h1-1v-2zm-6 12-1 1h1zm-2 3v-1 1h-1a1 1 0 0 0 1 0zm-60-125v-1a5 5 0 0 0 0 1zm0 6c0-1 0-1 0 0zm5 102v-2a6 6 0 0 1 0 2zm-4-57v1h1l-1-1zm-2-1 1-1a9 9 0 0 0-1 1zm7-81-1-1c0 2 0 1 1 1zm27 170-1-1h-1l1 1h1zm-28-136v-1 1zm24 135h1a4 4 0 0 0-1 0zm39-116zm-1 33v-2a6 6 0 0 0 0 2zm-16 79c1 0 0 0 0 0zm4 0zm-34 4zm31-4h-1a5 5 0 0 0 1 0zm0 0v-1 1zm-2 1h1v-1l-1 1zm0-170v1h1a3 3 0 0 0-1-1zm-52 125zm0-3a4 4 0 0 1 0 3l1-1-1-1v-1z"/><path d="m164 279-1 1a21 21 0 0 1 0-2h-1l1 4v1a12 12 0 0 0-1 1l1 2v5l-1 1v1a656 656 0 0 1 0 1v4a21 21 0 0 1 1 2h-1l1 2c-1 1-1-1-1-2-2 1 0 1-1 5v-2l-1 5s1-4 2-2a5 5 0 0 0 0 3l-1 2v2a3 3 0 0 1-1 3c0 2 1-2 1 1a21 21 0 0 0 1 7h-1l1 1-1 1 1 2v6h-1a32 32 0 0 0 1 5v2l1 2 1-1v3h-1v-1l-1-2a4 4 0 0 1 0 1v1l-1 1h1l-1 2v2l2 9h-2v-6 5l-1 1 1 5v5l-1 3v3a22 22 0 0 0 1 3v1a4 4 0 0 1-1-1 581 581 0 0 0 3 6h-1l-2-1a9 9 0 0 0 0 3h1a8 8 0 0 0 0 1l-1 2s2 0 2 2l-2-1 1 1a12177 12177 0 0 0 0 3v3a7 7 0 0 0 0 1v-2a5 5 0 0 0 2 4 7 7 0 0 1 1 3c0-1-2-1-1 1l1 1 1 1a14 14 0 0 1 3 3v2l1 1a16 16 0 0 1-1-1l-2-2a25 25 0 0 1-3-3v2a9 9 0 0 1-1-1 60 60 0 0 0 1 4l2 2 1 1v-1l-1-1-1-2-1-1 2 2a16 16 0 0 1 3 3l-1 1h-1a8 8 0 0 1 1 1l1 1a2 2 0 0 1 0 1l-1-1a5 5 0 0 0 1 2 7 7 0 0 1 1 1 5 5 0 0 1 1 1 8 8 0 0 1 0 1l1 1 3-3v1l1 1v2a8 8 0 0 1 1 1h-2l1 1v1c1 0 3 3 1 0a8 8 0 0 1 1 1 7 7 0 0 1 1 1l1 1h3a11 11 0 0 1 1 0v1a40 40 0 0 0 4 2 18 18 0 0 0 4 1 9 9 0 0 0 1 1 7 7 0 0 1 2 0c1 0 0 0 0 0l-1 1 2-1h2a1 1 0 0 0-1 0 10 10 0 0 0-1 0h-3l2-1 4-1h1a1 1 0 0 1 1 0h2a5 5 0 0 0 2 0 8 8 0 0 1 1-1 6 6 0 0 1 1 0h2v1a6 6 0 0 1-2 1h-2 2a5 5 0 0 1-2 0 4 4 0 0 1-1 0h1a6 6 0 0 0 1 0 14 14 0 0 0 3 0 23 23 0 0 0 3-2l3-1 1-1h-1c-1 0 0 0 0 0v-1l2-2a15 15 0 0 1 2-2v1a4 4 0 0 0-1 1 7 7 0 0 1 1-2l2-2-1 1h-1l1-2 1-1v-1h1v-1a3 3 0 0 1-1 1h-1 1v1a9 9 0 0 1-1 1l-1 1a4 4 0 0 0-1 1 6 6 0 0 1-2 2 5 5 0 0 1-1 0 1 1 0 0 1 0 1 2 2 0 0 1 1 0 5 5 0 0 1-1 1l-2 2v-1l-1 1c-1 0 0 0 0 0h-1v-1 1h-1c-1 0 0 0 0 0l-2 1h-1a5 5 0 0 0-1 0h-1s0 1 0 0h-1v1h-2v-1h-3l-1 1h-1a9 9 0 0 1-5-1h-2a6 6 0 0 1-1-1h-1a5 5 0 0 1-1-1l-1-1h-1a1 1 0 0 0-1 0 2 2 0 0 0 0-1 4 4 0 0 0 0-1h-1l-1-1a21 21 0 0 1-4-3l-3-4h-1a8 8 0 0 1-1-2l-1-2a32 32 0 0 0 0-1 14 14 0 0 0-2-5 10 10 0 0 1-2-4 3 3 0 0 1 0-2v-1a4 4 0 0 0 0 1v-1l-1-2a7 7 0 0 0-1-1v-2a2 2 0 0 1 1-2 9 9 0 0 1-1-2 11 11 0 0 0-1-2c0-1 0-1 0 0a8 8 0 0 0 0-3v-2l-1-1a3 3 0 0 1 1-1l1 1-2-6 1 1v-10a69 69 0 0 1 1-10v-3h1l-1-6h1v-1 1c1-3 0-3-1-3a4 4 0 0 0 0-4v-6a4 4 0 0 0 0-1v-5 1-16 1l2-5v1c1-3-1 0-1-3 0 0 1 1 1-1a11 11 0 0 0 0-3 9 9 0 0 1 0-4h-1a18 18 0 0 1 1-4 5 5 0 0 0 0-3v-5a2 2 0 0 0 0-2 21 21 0 0 0 1-3 21 21 0 0 1 0-3l1-1v-4a13 13 0 0 0 1-3 7 7 0 0 0 0-1c0-1 0 0 0 0l1-3v-1a27 27 0 0 0 0-4h1a14 14 0 0 1 1-3 42 42 0 0 0 1-3l1-2a6 6 0 0 1 2-2 10 10 0 0 1 3-2l3-2h1l1-1h1a5 5 0 0 1-1 0c-1 0 0 0 0 0v-1a5 5 0 0 1 2 0c-1 1 0 1 2 1l2 1a28 28 0 0 1 10 3 34 34 0 0 1 7 6v-1c0-1 0 0 0 0h1v1l1 1-1-1a2 2 0 0 0 1 2 5 5 0 0 0 1 0 4 4 0 0 1 0 1l-1-1v1h1a4 4 0 0 1 2 2v2l1 3v-1a12 12 0 0 1 1 1s0 1 0 0a1 1 0 0 0 1 0 6 6 0 0 0 0 1 14 14 0 0 0 0 1v2l1 2v1l1 1v2a10 10 0 0 1 1 2 14 14 0 0 1 1 2l1 3 1 1-1 1a5 5 0 0 0 0 1v4l1 2c0 2 1 2 1 1l-1 1a19 19 0 0 1 1 3v4l1 3v4h1v5h1l1 7 1 7a67 67 0 0 1 0 15h2l-1 4 2 5-1-1c1 1 2-3 3-3-1-1 1-5-1-8h1l-1-3-1-13v1a8 8 0 0 1 0-2c-1-2 0 3-1 2v-10c0-2 0 1-1-1h1l-1-1 1-2a8 8 0 0 0 0 1l-1-5v-2l-1-4-1-4-1-4v1a13 13 0 0 1-1-4v-1a22 22 0 0 0 0-2 12 12 0 0 1-1-3v-3a3 3 0 0 0-1-1 9 9 0 0 1-1-1v-1a7 7 0 0 1-1-3c0 2 0-1 1 1a13 13 0 0 0 0-2l-1-1c0-1 0 0 0 0a21 21 0 0 0-1-2v-1a7 7 0 0 1-1-1 3 3 0 0 1 0-2l1 3h-1a9 9 0 0 1-1-2 3 3 0 0 1 0-1v-2a9 9 0 0 0-1-1 9 9 0 0 0 0-1 8 8 0 0 0 0-1 6 6 0 0 0-1-2 7 7 0 0 1-1-2 7 7 0 0 1-1-1h-1 1v1l1 1a13 13 0 0 0-2-2 17 17 0 0 1-3-2 6 6 0 0 1 2 0l-2-2 2 2 3 3a5 5 0 0 0-1-2l-1-1a4 4 0 0 1-2-2 6 6 0 0 0-3-2h1a11 11 0 0 1-2-1h2a8 8 0 0 1-3-1 7 7 0 0 0-2-2l1 1v1a12 12 0 0 1-2-1 5 5 0 0 1-1-1 5 5 0 0 0-1-1 9 9 0 0 0-3-2 5 5 0 0 1 2 1v1a23 23 0 0 1-3-2 6 6 0 0 0-2 0h1s0 1 0 0a2 2 0 0 0-2 0 11 11 0 0 1-2 0 6 6 0 0 0-2-1 1 1 0 0 0 0 1 1 1 0 0 1-1 0 7 7 0 0 1-2 0h1l1-1h-4l-3 1a7 7 0 0 1-2 1h-1l-1 1a3 3 0 0 1 1-1 2 2 0 0 1 1-1h1a7 7 0 0 0-2 0 19 19 0 0 0-2 2v-1a3 3 0 0 1 1 0 16 16 0 0 0-2 2l-1 1c-1 1-1 0 0 0a26 26 0 0 0-2 2 2 2 0 0 1 0-1 1 1 0 0 1 0-1 4 4 0 0 1 0-1 16 16 0 0 0-1 2v1l-1 1a6 6 0 0 0-1 1 5 5 0 0 0-1 1 7 7 0 0 0 0 1v1c0 1 0 0 0 0v1l-1 2a10 10 0 0 1 0 2 3 3 0 0 1 0 1l-1 1-1 2a13 13 0 0 0 0 4l-2 1h1v2c0 3-1 1-1 2a22 22 0 0 1 0 2 9 9 0 0 1 0 4 17 17 0 0 1 0-2zm-2 27v-2 2zm0 41a3 3 0 0 1 0-1 5 5 0 0 1 0 1zm45 83zm2-1c1 0 1 0 0 0a2 2 0 0 1-1 1l1-1zm4-163v-1 1zm-51 77v-1 1zm6-81v-1z"/><path d="M174 425a3 3 0 0 1 0-1v1zm44-4v1h-1v1a4 4 0 0 1 1-1v-1zm10-9c0 1 0 1 0 0zm-8 9h1v-1a5 5 0 0 1 1 0h-1s0-1 0 0h-1c-1 0 0 0 0 0v1zm2-2zm-10 9v-1a4 4 0 0 0-1 1h1zm10-7h-1v1l1-1zm-6 7v-1h1v-1l-1 2zm1-2a5 5 0 0 0 1-1l-1 1zm3-2-1 1 1-1zm-22 9s1 0 0 0zm6 1a2 2 0 0 1-1 0v1l1-1zm-5 0a2 2 0 0 1-1 0v1h1v-1zm-26-12h1l1-1-1 1zm-12-23v2l1 1v-1c0-1 0-1 0 0l-1-2zm1 2zm67-49v2-2zm1 3h-1l1 1a2 2 0 0 1 0-1zm-70-45 1-1zm2-20zm1-17z"/></g><circle cx="220" cy="81" r="12" fill="#282525"/><circle cx="147" cy="82" r="11" fill="#282525"/><g fill="#cf6e6b"><ellipse cx="220" cy="160" rx="15" ry="14"/><path d="M237 160c0-1 0 0 0 0zm-1-3v-1a2 2 0 0 1 0 1zm-1-3 1 2a8 8 0 0 0 0-1 2 2 0 0 1-1-1zm0-2v1a3 3 0 0 1 0-1zm0 1c1 0 0-1 0 0zm0-1v-1 1zm-1 0zm1 0c-1 0-1 0 0 0zm0 0s0 1 0 0c0 1 0 1 0 0zm0 2zm-1-4zm0 0h-1 1zm0 2a6 6 0 0 1 1 0h-1zm-1-3zm-1-1a1 1 0 0 0 0-1 1 1 0 0 1 0 1zm-1-1a1 1 0 0 0 1 0 1 1 0 0 0-1 0zm2 2zm0 0zm0 0zm1 2h-1 1zm-1-1zm0 0zm-1-2a1 1 0 0 1-1 0 3 3 0 0 0 1 0zm0 1zm-2-2zm2 1zm-1-1zm1 2c0-1 0-1 0 0zm0 0zm-4-1h1l1-1h-1l-1 1zm2-1zm1 1h-1 1c-1 0 0 0 0 0a4 4 0 0 1 0-1v1c0-1 0 0 0 0v-1a3 3 0 0 0-1 0 4 4 0 0 0 1 1zm2 3zm-1 0h1a2 2 0 0 1 0-1 3 3 0 0 0-1 1zm0-2h-1 1zm-2-2v-1h-1l1 1zm-1-1zm-21 21zm0-1zm4-20v-1 1zm-7 10zm1 1zm7 13zm9-26zm-16 25c0-1 0-1 0 0zm15-25a1 1 0 0 1 1 0h-1zm10 23zm5-5a3 3 0 0 1 0 1 1 1 0 0 0 0-1zm-10-17zm1 1zm-7-1c0 1 0 1 0 0zm7 0a1 1 0 0 0-1 0 1 1 0 0 0 1 0zm0 0zm-1 0zm-4 28zm-12-23zm0 1v-1 1z"/><path d="M210 169v-1h1-2v-1 1l-1-1v-1a1 1 0 0 1-1 0v-2 1a1 1 0 0 0 0-1l-1-1 1-1h-1a2 2 0 0 0 0-1l-1-1v-1h1a5 5 0 0 1 0-1 6 6 0 0 0-1 0l1-1-1-1a2 2 0 0 0 0 1v-1l1 1v-1 1-2a3 3 0 0 1 0-2l1 1-1 1h1v-2c1 0 1 0 0 0l1-1 1-2a6 6 0 0 1 1 1v-2 1a1 1 0 0 0 1 0l-1-1a3 3 0 0 0 1 1v-1l1-1v1l1-2v1l1-3v1l1-1-1 3h1v-1 1a1 1 0 0 1 0-1c1 0 0 0 0 0h2s0 1 0 0a6 6 0 0 1 0-2 3 3 0 0 1 1 0v2a1 1 0 0 1 0-1h1v-1a1 1 0 0 0 1 0l1 1s1 0 0 0h1-1a1 1 0 0 1 2-1h2v1l-1-1v1a1 1 0 0 1-1 0h1a4 4 0 0 1 2 1v-1a1 1 0 0 1 1 0h1-1 1l-1-1h-2 1l-1-1a1 1 0 0 0-1 0h-1a5 5 0 0 0-1 0 2 2 0 0 1-1 0 1 1 0 0 1-1 0h-1l-1-1a4 4 0 0 1-1 0v1a2 2 0 0 0-1 0v1h-3v1a3 3 0 0 0-1 0 1 1 0 0 0 1 0 1 1 0 0 0-1 0h-1l-1 2h-1v1h-1v1l-1 1h-1l-1 1v2a1 1 0 0 0-1 1v-1a1 1 0 0 0 0 1 1 1 0 0 0 1 1 1 1 0 0 0-1 0s0 1 0 0v2a10 10 0 0 0 0 2v-1 3c1 0 0 0 0 0a1 1 0 0 0 0 1h1l-1 2h1l-1 1h1a1 1 0 0 1 0 1h1v2h1l1 1 1 1v1a1 1 0 0 0 1 0l2 1a2 2 0 0 0 1 1 3 3 0 0 1 2 1h1v-1s1 0 0 0h1v1a11 11 0 0 1 1 0h1a10 10 0 0 0 3 0h-1 1c0 1 0 0 0 0 1 0 0 0 0 0h1-1 2v-1h3a2 2 0 0 1 1-1h1v-1c0-1 1 0 0 0h1a6 6 0 0 1 1-1h1a4 4 0 0 0 0-1h1v-1a5 5 0 0 0 1-1v-1l1-1 1-1v-5 1h-1v1a1 1 0 0 0-1 1 6 6 0 0 1-1 3l-1 1c-1 1 0 0 0 0-1 0 0 0 0 0v1h-1v-1 1a7 7 0 0 1-1 1 8 8 0 0 0-1 1l-1 1a1 1 0 0 1-1 0l-1 1s-1 0 0 0h-2 1l-1 1-1-1h-1v1h1-2a1 1 0 0 1 1 0h-1l1-1s0 1 0 0l-1 1v-1l-1 1 1-1h-1v1l-1-1a1 1 0 0 1-1 0s1 0 0 0v1-1l-1 1v-1h-2 1l-1-1-1 1 1-1h-1l-1-1h-1a1 1 0 0 0-1 0v-1 1-1l-1-1v1zm-3-5zm-1-8zm19-12c-1 0 0 0 0 0zm0 1zm-2 30c1 0 0 0 0 0zm-17-18zm7 13zm5-23zm10-2zm2 4v-1 1zm-2-3zm0 1z"/><path d="M226 145s0-1 0 0c0-1-1 0 0 0zm2 2zm-2-1v1h1l-1-1zm1 1zm0 0zm-4-2h-1v1l1-1zm1 1-1 1zm-1 0-1 1 1-1zm-6 0v-1 1zm-4 3v-1 1zm0-1zm24 13v-1 1zm-1-1h1-1zm-29 3v1zm2 4zm2 2v-1 1z"/></g><g fill="#cf6e6b"><ellipse cx="138" cy="164" rx="16" ry="14"/><path d="M156 164c0 1 0 0 0 0s-1 0 0 0zm-1-2-1-1a3 3 0 0 1 1 1zm-1-3v1l1 1a7 7 0 0 0-1-1 2 2 0 0 1 0-1zm0-2zm0 0c0 1 0 0 0 0zm-1-1a2 2 0 0 1 1 1v-1h-1zm0 0zm0 1v-1 1zm1 0h-1 1zm-1 2 1 1-1-1zm-1-5zm0 1zm1 2zm-2-4h1-1zm0 0v-1a1 1 0 0 0-1 0 1 1 0 0 1 1 1zm-1-1zm1 2zm0 0zm0 0zm1 2s0-1 0 0zm-1-1h1zm0 0v-1 1zm-1-2zm1 0zm-3-2v1-1zm2 2zm-1-1zm2 1zm0 0a1 1 0 0 0-1 0 1 1 0 0 0 1 0zm-4 0 1-1h-1 1-1l-1 1h1zm2-1a2 2 0 0 1-1-1l1 1zm0 0a2 2 0 0 1 1 1 3 3 0 0 1-1-1zm2 4zm0 0a2 2 0 0 1 0-1 3 3 0 0 0 0 1zm-1-2zm-2-3zm-1 0zm-22 21zm0-1zm5-21h-1 1zm-8 11zm1 1zm7 13zm10-26a1 1 0 0 0-1 0h1zm-17 24zm16-25a1 1 0 0 0 0 1v-1zm11 24zm5-5zm-11-17c1 0 1-1 0 0zm1 1zm-8-1zm8 0zm0 0z"/><path d="M144 149a1 1 0 0 1 1 1h-1zm-4 29zm-13-23zm0 1v-1 1z"/><path d="M127 173h1-2v-1h-1v-1a2 2 0 0 1-1 0c0-1 0 0 0 0v-2 1a1 1 0 0 0 0-1 2 2 0 0 1 0-1v1l-1-1 1-1h-1a2 2 0 0 0 0-1c0-1 0 0 0 0v-1h-1v-1c0-1 1 0 0 0h1a5 5 0 0 1 0-1 6 6 0 0 0-1-1h1l-1-1 1 1v-3a3 3 0 0 1 0-1l1 1-1 1h1v-2a3 3 0 0 0 0-1v1l1-1 1-2a6 6 0 0 1 1 1v-3 2a1 1 0 0 0 1 0l-1-1a4 4 0 0 0 1 0v-1l1 1v-1 1h1v-2l1 1 1-3-1 3h1l1-1-1 1a1 1 0 0 1 1-2v1h1-1 2a5 5 0 0 1-1-2 4 4 0 0 1 1 0v2a1 1 0 0 1 0-1h2v-1l2 1a2 2 0 0 1 2-1c0-1 0 0 0 0h2v1l-1-1a1 1 0 0 1-1 0l1 1a4 4 0 0 1 2 0 1 1 0 0 1 1 0h2v-1h-1v1l-1-1h-1v-1h-1a1 1 0 0 0-1 0h-1a5 5 0 0 0-1 0 2 2 0 0 1-1 0 2 2 0 0 1-1 0v-1h-2a5 5 0 0 1-1 0v1a3 3 0 0 0-1 0l-2 1v-1l-1 1h-1a2 2 0 0 0-1 1v-1 1h-1v1a1 1 0 0 0-1 1v-1 1h-1v1h-1a1 1 0 0 0 0 1 10 10 0 0 0-1 0l-1 1-1 1v1l-1 1a1 1 0 0 0 0 1 1 1 0 0 0 0 1v2a9 9 0 0 0 0 1v3a1 1 0 0 0 0 1v1c0 1 0 0 0 0l1 1h-1l1 1a1 1 0 0 1 0 1h1v1l2 1v1l1 1h1-1a1 1 0 0 0 1 1c1 0 0 0 0 0h2v1h1a2 2 0 0 0 1 1 3 3 0 0 1 1 0h2v-1 1l1 1h2a11 11 0 0 0 2 0h1c1 0 0 0 0 0h2v-1h3a2 2 0 0 1 1-1v-1l1 1 1-1c1 0 0 0 0 0a2 2 0 0 1 1 0 7 7 0 0 1 0-1h1a4 4 0 0 0 1-1h-1 1v-1a6 6 0 0 0 1-1 5 5 0 0 0 1 0v-2l1-2 1-1c1-1 0 0 0 0v-1c0 1 0 0 0 0v-2l-2 1c1 0 0 0 0 0a1 1 0 0 0 0 1c0 1 0 0 0 0a1 1 0 0 1 0 1 6 6 0 0 1-2 2h1l-1 1-1 1-1 1-1 1a8 8 0 0 0-1 1l-1 1a1 1 0 0 1-1 0c1 0 0 0 0 0l-1 1s-1 0 0 0h-2 1l-1 1-1-1h-1v1h1-2a1 1 0 0 1 1 0h-1l1-1s0 1 0 0l-1 1v-1h-1 1-2l1 1-2-1h1a1 1 0 0 1-1 0h-2 1-1 1-2s0-1 0 0l1-1h-1l-1 1v-1l-1-1h-2a1 1 0 0 0 0-1h-1l-1-1zm-3-4zm-1-8zm20-12zm0 1v-1 1zm-2 30c1 0 0 0 0 0zm-18-18zm7 13zm5-23zm11-2zm2 3zm-2-2c1 0 0 0 0 0z"/><path d="M146 152a1 1 0 0 1 1 0h-1zm-2-2v-1 1zm2 2zm-2-1zm1 0zm0 1zm-4-2h-1 1zm1 1h-1zm-1 0h-1 1zm-6 0v-1 1zm-5 3 1-1h-1v1z"/><path d="M130 153a1 1 0 0 0 1 0 1 1 0 0 0-1 0zm25 13 1-1h-1v1zm0-1v-1 1zm-31 3zm2 4v-1 1zm2 1s0 1 0 0z"/></g></svg>