<?xml version="1.0" encoding="UTF-8"?>
<svg enable-background="new 0 0 368.202 412.274" viewBox="0 0 368.202 412.274" xmlns="http://www.w3.org/2000/svg">
 <path d="m78.025,52.355c-14.463-.447-29.866,5.592-42.713,11.659-16.665,7.869-13.313,16.779-13.313,33.566 0,27.079-5.669,53.44-7.003,80.456-1.438,29.142-4.609,58.161-5.206,87.352-.329,16.091-.936,32.306-2.082,48.359-.426,5.971-3.374,12.239 2.915,13.944l29.546,8.013c8.694-40.92 11.47-83.95 16.088-125.491 0,40.893-.088,81.001 4.732,121.705 7.55-1.525 37.596-3.361 37.379-11.006-.417-14.674-.501-29.354-.65-44.033-.296-29.147-.199-58.305-.199-87.453 0-31.225 10.396-62.83 16.784-93.277 2.95-14.063 5.293-15.805-5.938-24.991-9.368-7.663-19.236-14.348-30.34-18.803" fill="#ffbf00"/>
 <path d="m78.025,52.355c-14.463-.447-29.866,5.592-42.713,11.659-16.665,7.869-13.313,16.779-13.313,33.566 0,27.079-5.669,53.44-7.003,80.456-1.438,29.142-4.609,58.161-5.206,87.352-.329,16.091-.936,32.306-2.082,48.359-.426,5.971-3.374,12.239 2.915,13.944l29.546,8.013c8.694-40.92 11.47-83.95 16.088-125.491 0,40.893-.088,81.001 4.732,121.705 7.55-1.525 37.596-3.361 37.379-11.006-.417-14.674-.501-29.354-.65-44.033-.285-28.067-.199-56.145-.199-84.214 0-31.555 9.683-62.675 16.144-93.47 2.977-14.19 6.763-17.775-4.218-27.155-9.358-7.994-19.668-15.493-31.421-19.495" fill="none" stroke="#000" stroke-linecap="square" stroke-miterlimit="10" stroke-width=".7"/>
 <path d="m40.169 270.4c-4.551 18.095-11.97 37.607-20.821 53.944l1.325 0.758c8.843-16.712 16.146-36.049 19.496-54.702"/>
 <path d="m91.842,245.23c-2.081,26.212-9.08,58.842-20.821,82.336l1.326.758c11.565-24.461 18.368-56.048 19.495-83.094"/>
 <path d="m63.262,190.34c-6.646,5.835-6.475,11.46-7.76,19.874l1.514.188c1.156-7.976 1.928-13.76 6.246-20.062"/>
 <path d="m62.503 55.195c1.285 13.212 4.98 25.686 12.303 36.909 4.855-5.131 20.592-24.139 16.089-32.177-3.618-6.459-22.16-4.465-28.392-4.732" fill="#f0bbbb"/>
 <path d="m62.503,55.195c1.285,13.212 4.98,25.686 12.303,36.909 6.8-7.186 17.147-20.574 16.184-31.136-.637-6.987-23.235-5.563-28.296-5.773" fill="none" stroke="#000" stroke-linecap="square" stroke-miterlimit="10" stroke-width=".7"/>
 <path d="m90.707 60.873c-5.099 8.884-18.482 24.561-14.954 35.016 8.948-7.894 15.148-14.778 27.068-17.223-1.863-6.95-7.296-12.793-12.114-17.793"/>
 <path d="m90.707 60.873c-5.099 8.884-18.482 24.561-14.954 35.016 6.502-10.282 13.663-23.42 27.068-17.223-1.863-6.95-7.296-12.793-12.114-17.793" fill="#ffbf00"/>
 <path d="m90.707 60.873c-5.099 8.884-18.482 24.561-14.954 35.016 6.502-10.282 13.663-23.42 27.068-17.223-1.884-7.029-7.277-12.424-11.926-17.793" fill="none" stroke="#000" stroke-linecap="square" stroke-miterlimit="10" stroke-width=".7"/>
 <path d="m53.986 85.858c12.187-5.25 16.981 5.902 23.282 14.575-2.094-5.001-6.174-23.619-11.356-25.552-5.624-2.099-9.598 6.958-11.926 10.977"/>
 <path d="m64.396,55.006c.256,16.897 12.452,29.749 14.575,45.805 2.789,21.096-4.75,47.668-7.003,68.708-11.925-6.363 4.023-54.246 3.029-68.519-.38-5.462-2.75-12.988-6.815-17.414-2.907-3.165-.662-6.348-6.151-3.217-2.992,1.707-5.716,3.791-7.854,6.436-.659-14.361-1.003-22.554 10.219-31.799" fill="#ffbf00"/>
 <path d="m64.396,55.006c.256,16.897 12.452,29.749 14.575,45.805 2.789,21.096-4.75,47.668-7.003,68.708-11.925-6.363 4.023-54.246 3.029-68.519-.38-5.462-2.75-12.988-6.815-17.414-2.907-3.165-.662-6.348-6.151-3.217-2.992,1.707-5.716,3.791-7.854,6.436-.659-14.361-1.003-22.554 10.219-31.799" fill="none" stroke="#000" stroke-linecap="square" stroke-miterlimit="10" stroke-width=".7"/>
 <path d="m81.432,13.744c-33.114.706-33.2,51.549 0,51.672 33.422.125 33.362-51.187 0-51.672" fill="#f0bbbb"/>
 <path d="m81.432,13.744c-33.114.706-33.2,51.549 0,51.672 33.422.125 33.362-51.187 0-51.672" fill="none" stroke="#000" stroke-linecap="square" stroke-miterlimit="10" stroke-width=".7"/>
 <path d="m89.002,3.522c-12.73,1.396-25.258-.565-29.811,14.006-1.853,5.93-4.204,19.275 6.721,17.415 7.035-1.198 18.905-24.83 23.09-31.421" fill="#8f0000"/>
 <path d="m89.002,3.522c-12.73,1.396-25.258-.565-29.811,14.006-1.853,5.93-4.204,19.275 6.721,17.415 7.209-1.228 18.485-24.641 23.09-31.231" fill="none" stroke="#000" stroke-linecap="square" stroke-miterlimit="10" stroke-width=".7"/>
 <path d="m89.002,3.522c-10.639,2.813-16.955,10.12-19.684,20.063-3.993,14.548 2.335,13.084 15.709,13.439 11.198.297 21.001,2.946 23.092-8.518 2.056-11.261-8.034-23.658-19.117-24.984" fill="#bf0000"/>
 <path d="m89.002,3.522c-10.639,2.813-16.955,10.12-19.684,20.063-3.993,14.548 2.335,13.084 15.709,13.439 11.198.297 21.001,2.946 23.092-8.518 1.982-10.869-7.744-24.087-19.118-24.795" fill="none" stroke="#000" stroke-linecap="square" stroke-miterlimit="10" stroke-width=".7"/>
 <path d="m66.858 35.132c9.394 7.742 13.394 11.073 25.553 8.139 10.5-2.534 17.499-3.613 27.445 1.326-14.568-21.78-31.139-18.88-52.998-9.465" fill="#ff7f00"/>
 <path d="m66.858 35.132c9.394 7.742 13.394 11.073 25.553 8.139 10.5-2.534 17.499-3.613 27.445 1.326-14.317-21.402-31.229-19.389-52.81-9.464" fill="none" stroke="#000" stroke-linecap="square" stroke-miterlimit="10" stroke-width=".7"/>
 <path d="m21.81,72.229c-7.102,12.718-5.874,31.96-3.124,45.711 .962,4.813 2.843,25.25 7.667,27.73 2.868,1.475 27.374-9.67 26.877-12.398-3.469-19.048-5.086-58.09-31.42-61.043" fill="#ffbf00"/>
 <path d="m21.81,72.229c-7.102,12.718-5.874,31.96-3.124,45.711 .962,4.813 2.843,25.25 7.667,27.73 2.868,1.475 27.374-9.67 26.877-12.398-3.25-17.849-5.076-59.437-31.419-60.853" fill="none" stroke="#000" stroke-linecap="square" stroke-miterlimit="10" stroke-width=".7"/>
 <path d="m24.081,82.831c4.812,18.775 10.121,39.275 24.606,53.186l.947-1.135c-13.508-12.265-21.025-34.665-25.553-52.051"/>
 <path d="m55.879 133.74c-6.349-2.324-28.697 2.796-31.23 10.222-1.591 4.665 3.442 11.217 7.949 12.303 12.146 2.924 28.852-9.878 23.281-22.525" fill="#ff7f00"/>
 <path d="m55.879 133.74c-6.349-2.324-28.697 2.796-31.23 10.222-1.591 4.665 3.442 11.217 7.949 12.303 11.824 2.847 29.037-9.756 23.281-22.334" fill="none" stroke="#000" stroke-linecap="square" stroke-miterlimit="10" stroke-width=".7"/>
 <path d="m130.46 171.03c20.311-21.192 35.458-51.439 17.13-77.604-5.134-7.33-9.339-14.856-4.448-23.281 4.181-7.201 13.869-10.663 1.324-16.94-6.316-3.161-32.399-9.068-34.448 2.744-1.018 5.866 9.225 11.544 5.489 19.968-4.113 9.272-14.355 13.648-20.252 21.484-9.774 12.988-6.693 29.128-3.253 43.869 2.014 8.629 5.09 16.78 9.05 24.697 2.345 4.693 23.898 4.338 29.408 5.063" fill="#047391"/>
 <path d="m130.46 171.03c20.311-21.192 35.458-51.439 17.13-77.604-5.134-7.33-9.339-14.856-4.448-23.281 4.181-7.201 13.869-10.663 1.324-16.94-6.316-3.161-32.399-9.068-34.448 2.744-1.018 5.866 9.225 11.544 5.489 19.968-4.113 9.272-14.355 13.648-20.252 21.484-9.774 12.988-6.693 29.128-3.253 43.869 2.014 8.629 5.09 16.78 9.05 24.697 2.345 4.693 23.898 4.338 29.408 5.063" fill="none" stroke="#000" stroke-linecap="square" stroke-miterlimit="10" stroke-width=".7"/>
 <path d="m116.827,164.029c-2.264-.259-14.207-1.911-15.331,1.325-1.464,4.215 11.752,6.098 14.384,6.437 2.021.26 15.266,1.797 15.521-1.893 .274-3.959-12.109-5.528-14.574-5.869" fill="#034f63"/>
 <path d="m116.827,164.029c-2.264-.259-14.207-1.911-15.331,1.325-1.464,4.215 11.752,6.098 14.384,6.437 2.021.26 15.266,1.797 15.521-1.893 .274-3.959-12.109-5.528-14.574-5.869" fill="none" stroke="#000" stroke-linecap="square" stroke-miterlimit="10" stroke-width=".7"/>
 <path d="m86.732,165.922c-16.426-5.902-30.706-29.002-49.591-17.224-9.437,5.886-5.69,10.216 2.649,14.954 14.153,8.04 31.885,11.833 47.319,16.656-.062-4.76.01-9.765-.377-14.386" fill="#f0bbbb"/>
 <path d="m86.732,165.922c-16.426-5.902-30.706-29.002-49.591-17.224-9.437,5.886-5.69,10.216 2.649,14.954 14.153,8.04 31.885,11.833 47.319,16.656-.063-4.732-.125-9.464-.188-14.196" fill="none" stroke="#000" stroke-linecap="square" stroke-miterlimit="10" stroke-width=".7"/>
 <path d="m86.164 164.03c-9.445-12.614-24.815 15.888 0 17.414v-17.414" fill="#ff0"/>
 <path d="m86.164 164.03c-9.445-12.614-24.815 15.888 0 17.414v-17.224" fill="none" stroke="#000" stroke-linecap="square" stroke-miterlimit="10" stroke-width=".7"/>
 <path d="m87.3,181.255c9.19.248 37.19,2.893 41.262-9.464-11.408,0-18.962-1.703-29.15-6.625 3.731.297 11.829-1.032 11.074-6.341-.126-.889-12.901-.18-14.669.284-7.788,2.042-24.736,21.123-8.517,22.146" fill="#ff0"/>
 <path d="m87.3,181.255c9.19.248 37.19,2.893 41.262-9.464-11.408,0-18.962-1.703-29.15-6.625 3.731.297 11.829-1.032 11.074-6.341-.181-1.274-11.867.284-13.723.284-9.792,0-24.754,20.277-9.463,22.334" fill="none" stroke="#000" stroke-linecap="square" stroke-miterlimit="10" stroke-width=".7"/>
 <path d="m83.894,175.955c6.866,1.385 14.297,2.699 20.82,4.353-.072-.138.281-.377.377-.379v-.379c-4.439-1.103-19.706-5.901-21.197-3.595"/>
 <path d="m153.357,133.556c-1.666,4.128-3.098,8.76-5.678,10.411-1.197.766-5.792-2.942-7.002-1.135-2.469,3.686 2.526,6.654 5.867,8.139-3.85.43-10.228-3.37-13.249-2.083-4.161,1.772-.758,4.979 1.704,6.057-8.091-1.518-5.904,5.002.377,6.057-11.836-2.29-2.995,9.345 7.383,3.597 6.724-3.725 20.543-26.153 10.598-31.043" fill="#ff0"/>
 <path d="m153.357,133.556c-1.666,4.128-3.098,8.76-5.678,10.411-1.197.766-5.792-2.942-7.002-1.135-2.469,3.686 2.526,6.654 5.867,8.139-3.85.43-10.228-3.37-13.249-2.083-4.161,1.772-.758,4.979 1.704,6.057-8.091-1.518-5.904,5.002.377,6.057-11.836-2.29-2.995,9.345 7.383,3.597 6.724-3.725 20.543-26.153 10.598-31.043" fill="none" stroke="#000" stroke-linecap="square" stroke-miterlimit="10" stroke-width=".7"/>
 <path d="m.421,339.111c0-9.866.158-15.722 10.979-17.603 6.51-1.132 23.091,1.29 27.541,6.625 4.539,5.442 5.448,10.217 2.65,16.751-3.538,8.26-32.795-3.041-41.17-5.773" fill="#ff7f00"/>
 <path d="m.421,339.111c0-9.866.158-15.722 10.979-17.603 6.51-1.132 23.091,1.29 27.541,6.625 3.859,4.628 6.281,10.369 2.934,16.089-2.88,4.921-.562,4.769-7.754,3.064l-33.699-7.985" fill="none" stroke="#000" stroke-linecap="square" stroke-miterlimit="10" stroke-width=".7"/>
 <path d="m57.395,330.405c-4.732,20.26 43.26,5.789 45.236-.379 6.056-18.895-40.225-2.591-45.236.379" fill="#ff7f00"/>
 <path d="m57.395,330.405c-4.978,21.311 45.236,3.843 45.236.284 0-19.364-35.113-6.576-45.048-.284" fill="none" stroke="#000" stroke-linecap="square" stroke-miterlimit="10" stroke-width=".7"/>
 <path d="m3.45,335.705c-1.738,11.143 8.947,9.288 17.508,10.885 2.907.541 16.375,4.83 17.076,1.644 1.671-7.598 2.25-7.282-2.785-11.582-8.376-7.154-23.048-4.9-31.799-.947" fill="#404040"/>
 <path d="m3.45,335.705c-1.738,11.143 8.947,9.288 17.508,10.885 2.907.541 16.375,4.83 17.076,1.644 1.671-7.598 2.25-7.282-2.785-11.582-7.971-6.808-23.118-5.538-31.61-.756" fill="#bf0000" stroke="#000" stroke-linecap="square" stroke-miterlimit="10" stroke-width=".7"/>
 <path d="m2.503 348.39c-10.69 7.479 27.399 10.275 33.597 8.896 2.087-0.465 9.308-3.155 4.637-5.488-9.664-4.828-27.392-2.639-38.234-3.408"/>
 <path d="m2.503,348.386c-10.69,7.479 27.399,10.275 33.597,8.896 3.033-.675 6.601-1.296 5.773-4.921-.891-3.901-34.66-3.627-39.181-3.975" fill="none" stroke="#000" stroke-linecap="square" stroke-miterlimit="10" stroke-width=".7"/>
 <path d="m11.021 335.52c-5.541 2.352-13.18 9.668-8.517 15.521 4.32 5.422 25.802 4.985 31.799 3.785 8.286-1.658 9.091-6.973 3.406-13.06-6.095-6.525-18.465-6.556-26.688-6.246" fill="#404040"/>
 <path d="m11.021 335.52c-4.865 2.064-13.438 9.366-9.085 15.331 3.692 5.059 26.081 5.499 31.42 4.164 7.201-1.801 11.716-5.887 4.92-12.682-6.538-6.538-18.109-7.613-27.066-6.625" fill="#bf0000" stroke="#000" stroke-linecap="square" stroke-miterlimit="10" stroke-width=".7"/>
 <path d="m59.665 344.6c-7.805 7.584 10.566 7.732 15.9 7.95v-3.407c14.452 6.503 26.841 8.738 43.155 7.098 11.376-1.145-6.554-5.693-9.274-6.151-16.103-2.714-33.393-6.659-49.781-5.49"/>
 <path d="m59.665 344.6c-7.805 7.584 10.566 7.732 15.9 7.95v-3.407c14.452 6.503 26.841 8.738 43.155 7.098 11.376-1.145-6.554-5.693-9.274-6.151-16.103-2.714-33.393-6.659-49.781-5.49" fill="none" stroke="#000" stroke-linecap="square" stroke-miterlimit="10" stroke-width=".7"/>
 <path d="m59.665 338.92c-3.575 11.431 13.575 6.404 20.442 9.843 4.548 2.276 9.575 3.638 14.574 4.354 10.071 1.442 29.375 5.236 25.742-9.274-5.781-23.095-47.035-7.107-60.758-4.923" fill="#404040"/>
 <path d="m59.665 338.92c-3.575 11.431 13.575 6.404 20.442 9.843 4.548 2.276 9.575 3.638 14.574 4.354 10.071 1.442 29.375 5.236 25.742-9.274-5.781-23.095-47.035-7.107-60.758-4.923" fill="none" stroke="#000" stroke-linecap="square" stroke-miterlimit="10" stroke-width=".7"/>
 <path d="m299.858,71.095c-6.781,1.289-15.471,1.338-20.82,5.678-9.372,7.604-12.804,22.956-21.009,31.798-4.287,4.621-8.642,6.652-11.736,12.871-6.496,13.054 6.473,23.722 14.006,35.774l18.928-22.713c6.06,19.668 13.441,36.897 11.356,57.729-2.746,27.434-9.93,54.427-12.964,81.863-1.682,15.195-2.207,30.355-5.018,45.521-1.046,5.641-7.851,23.271-1.797,26.5 11.077,5.906 23.204,9.777 34.921,14.195 5.632-20.238 3.4-40.312 7.382-60.569 3.797-19.319 6.569-39.072 10.979-59.243 .756,6.604 1.07,13.333 1.703,19.968 1.047,10.979-2.24,28.313 2.839,38.045 4.876,9.343 4.193,30.729 3.787,41.357-.278,7.29-2.816,12.309-5.869,18.928l37.855,7.192c3.261-56.048 2.629-110.828 3.408-167.132 .143-10.266.15-19.382-3.785-28.771-4.893-11.673-2.108-21.082-3.261-34.104-1.483-16.768-1.217-33.799-13.397-46.339-5.881-6.054-12.571-11.546-19.635-16.165-7.502-4.906-19.084-2.383-27.873-2.383" fill="#ffbf00"/>
 <path d="m299.858,71.095c-6.781,1.289-15.471,1.338-20.82,5.678-9.372,7.604-12.804,22.956-21.009,31.798-4.287,4.621-8.642,6.652-11.736,12.871-6.496,13.054 6.473,23.722 14.006,35.774l18.928-22.713c6.06,19.668 13.441,36.897 11.356,57.729-2.746,27.434-9.93,54.427-12.964,81.863-1.682,15.195-2.207,30.355-5.018,45.521-1.046,5.641-7.851,23.271-1.797,26.5 11.077,5.906 23.204,9.777 34.921,14.195 5.632-20.238 3.4-40.312 7.382-60.569 3.797-19.319 6.569-39.072 10.979-59.243 .756,6.604 1.07,13.333 1.703,19.968 1.047,10.979-2.24,28.313 2.839,38.045 4.876,9.343 4.193,30.729 3.787,41.357-.278,7.29-2.816,12.309-5.869,18.928l37.855,7.192c3.261-56.048 2.629-110.828 3.408-167.132 .143-10.266.15-19.382-3.785-28.771-4.893-11.673-2.108-21.082-3.261-34.104-1.394-15.755-.993-32.983-12.166-45.013-5.497-5.919-12.387-12.859-19.59-16.656-9.059-4.774-18.543-3.218-28.961-3.218" fill="none" stroke="#000" stroke-linecap="square" stroke-miterlimit="10" stroke-width=".7"/>
 <path d="m350.58 247.12c4.214 14.249 9.741 27.951 14.953 41.83l1.325-0.377c-5.02-13.961-11.665-27.382-16.278-41.453"/>
 <path d="m336.01,306.934c-1.54-2.436-3.831-4.597-5.679-6.813l-1.135.946c2.018,1.89 4.927,4.725 6.814,5.867"/>
 <path d="m343.96 316.4c-1.645 7.772-12.258 23.384-10.789 28.961 4.527-9.358 10.313-18.643 10.789-28.961"/>
 <path d="m301.37 247.69c1.079 11.734 7.204 23.845 13.062 33.882l1.325-0.758c-6.149-10.305-10.764-21.722-14.387-33.124"/>
 <path d="m317.461,384.728c-10.877,7.225 12.11,10.633 17.603,10.789 5.197.148 10.931-.957 15.994-2.082 5.826-1.295 2.278-5.337 4.826-7.951 1.966-2.017 13.521-6.059 7.571-11.166-5.167-4.436-39.402,8.942-45.994,10.41"/>
 <path d="m317.461,384.728c-10.877,7.225 12.11,10.633 17.603,10.789 5.197.148 10.931-.957 15.994-2.082 5.368-1.193 2.366-4.699 4.826-7.193-.014.014 4.765-4.98 4.354-4.353 .778-1.191 8.415-1.57 3.596-7.004-4.198-4.732-39.941,8.048-46.373,10.031" fill="none" stroke="#000" stroke-linecap="square" stroke-miterlimit="10" stroke-width=".7"/>
 <path d="m328.82 363.91c-2.388 6.141-18.279 14.492-12.682 22.901 4.395 6.601 24.663 5.192 30.853 4.165 7.37-1.223 4.068-4.744 7.949-8.706 1.702-1.737 6.721-2.23 8.141-4.355 10.17-15.221-27.195-13.52-34.261-14.005" fill="#bf0000"/>
 <path d="m328.82 363.91c-2.388 6.141-18.279 14.492-12.682 22.901 4.395 6.601 24.663 5.192 30.853 4.165 6.903-1.146 4.033-4.209 7.949-7.95 0.827-0.79 6.863-3.536 7.383-4.354 10.331-16.239-24.225-14.678-33.503-14.574" fill="none" stroke="#000" stroke-linecap="square" stroke-miterlimit="10" stroke-width=".7"/>
 <path d="m343.581,372.235c-4.997-3.753-12.808-4.295-18.737-2.649 .126.442.253.884.379,1.326 5.975-1.34 12.938-.171 18.358,1.323"/>
 <path d="m327.3 355.39c-11.006 12.294 3.051 9.427 10.789 10.41 6.901 0.877 23.544 12.045 28.013 1.893 3.625-8.235-9.408-5.706-14.574-7.382-8.941-2.899-14.469-6.668-24.228-4.921" fill="#ff7f00"/>
 <path d="m327.3 355.39c-10.651 11.898 1.996 9.262 9.652 10.031 7.095 0.713 23.501 12.305 28.961 3.027 5.261-8.939-8.557-6.128-13.249-7.57-9.159-2.815-14.907-7.979-25.176-5.3" fill="none" stroke="#000" stroke-linecap="square" stroke-miterlimit="10" stroke-width=".7"/>
 <path d="m313.87 205.48c5.936 11.874 7.439 22.001 9.464 35.205l1.514-0.188c-2.164-13.634-2.914-23.845-10.978-35.017"/>
 <path d="m354.56 159.87c3.27 29.475 2.49-1.336 0 0"/>
 <path d="m350.2 162.9c1.426 26.062 2.916-0.622 0 0"/>
 <path d="m344.718,165.166c.393,3.404.8,6.814 1.135,10.22 2.518-1.06 2.291-11.563-1.135-10.22"/>
 <path d="m339.42 166.3c0.985 23.402 2.82-1.15 0 0"/>
 <path d="m333.17 167.06c1.424 24.623 2.914-1.387 0 0"/>
 <path d="m275.82,91.916c-3.604,14.386-2.294,28.929 2.65,42.776l1.325-.377c-4.778-14.066-5.419-27.614-3.975-42.399"/>
 <path d="m274.87 97.215c-5.515 4.321-11.518 8.382-17.791 11.547l0.568 1.324c5.417-2.688 15.535-7.36 17.223-12.871"/>
 <path d="m237.396,366.368c-11.177,3.601 11.6,8.861 15.521,9.275 9.738,1.028 18.033-1.607 27.255-3.597v3.785c3.031-.137 28.144.263 21.767-8.329-2.253-3.035-26.281-.575-30.248-.633-11.431-.168-22.863-.347-34.295-.501"/>
 <path d="m237.4 366.37c-11.177 3.601 11.6 8.861 15.521 9.275 9.738 1.028 18.033-1.607 27.255-3.597v3.785c3.981-0.18 26.178 1.128 21.767-7.76-2.878-5.798-55.368-1.572-64.354-1.704" fill="none" stroke="#000" stroke-linecap="square" stroke-miterlimit="10" stroke-width=".7"/>
 <path d="m266.74 349.33c-11.614 6.779-26.22 5.149-31.043 18.549 17.987 5.456 32.657 2.601 50.729 2.083 1.866-0.054 25.354 1.119 18.265-7.382-6.435-7.716-28.517-10.637-37.951-13.25" fill="#bf0000"/>
 <path d="m266.74 349.33c-11.614 6.779-26.22 5.149-31.043 18.549 17.987 5.456 32.657 2.601 50.729 2.083 4.521-0.13 21.21 2.725 18.737-6.814-1.703-6.572-32.125-11.999-38.234-13.817" fill="none" stroke="#000" stroke-linecap="square" stroke-miterlimit="10" stroke-width=".7"/>
 <path d="m269.2 338.36c6.929 6.248 18.477 9.85 27.257 12.682 5.747 1.854 17.391 1.237 11.735 10.411-4.642 7.529-20.141 0.089-27.257-3.03-5.567-2.441-27.381-14.46-11.735-20.063" fill="#ff7f00"/>
 <path d="m269.2 338.36c6.691 6.033 17.66 9.481 26.121 12.303 6.449 2.15 16.521 0.826 13.248 9.653-3.427 9.242-19.187 1.729-26.309-1.325-4.985-2.138-29.671-15.158-13.061-20.442" fill="none" stroke="#000" stroke-linecap="square" stroke-miterlimit="10" stroke-width=".7"/>
 <path d="m284.9 90.59c7.964 1.236 11.318 4.887 17.034 10.222-5.423-10.592-7.11-20.279-17.034-10.222"/>
 <path d="m298.53 69.202c-7.452 6.894-9.717 12.167-13.628 21.578 8.411-6.813 12.178 3.648 16.467 9.652 3.276-13.651 2.04-17.925-2.839-31.23" fill="#ffbf00"/>
 <path d="m298.53 69.202c-7.452 6.894-9.717 12.167-13.628 21.578 8.411-6.813 12.178 3.648 16.467 9.652 3.276-13.651 2.04-17.925-2.839-31.23" fill="none" stroke="#000" stroke-linecap="square" stroke-miterlimit="10" stroke-width=".7"/>
 <path d="m294.18 68.255 8.706 25.174c2.286-4.986 19.547-25.099 18.716-26.676-5.561-10.563-17.178-1.526-27.422 1.502" fill="#f0bbbb"/>
 <path d="m294.18,68.255 8.706,25.174c2.826-6.164 19.29-21.257 19.308-25.553 .058-13.678-21.56-1.594-27.824.379" fill="none" stroke="#000" stroke-linecap="square" stroke-miterlimit="10" stroke-width=".7"/>
 <path d="m301.751,21.693c-32.713,2.854-33.523,51.918.188,51.862 33.799-.057 32.539-49.411-.188-51.862" fill="#f0bbbb"/>
 <path d="m301.751,21.693c-32.713,2.854-33.523,51.918.188,51.862 33.259-.056 33.174-50.957 0-51.672" fill="none" stroke="#000" stroke-linecap="square" stroke-miterlimit="10" stroke-width=".7"/>
 <path d="m305.349,5.037c19.872,8.306 24.6,19.085 21.955,39.559-4.725-.461-19.149.484-22.524-2.46-7.19-6.273-6.745-32.174.569-37.099" fill="#8f0000"/>
 <path d="m305.349,5.037c19.872,8.306 24.6,19.085 21.955,39.559-4.725-.461-19.149.484-22.524-2.46-6.84-5.968-7.302-32.255.758-36.909" fill="none" stroke="#000" stroke-linecap="square" stroke-miterlimit="10" stroke-width=".7"/>
 <path d="m305.349,5.037c-1.336,12.377.591,24.808-.569,37.099-6.605-1.512-18.279-2.635-23.849-6.436-4.973-3.394-3.974-2.449-3.974-9.653 0-14.043 17.074-20.326 28.392-21.01" fill="#bf0000"/>
 <path d="m305.349,5.037c-1.336,12.377.591,24.808-.569,37.099-6.605-1.512-18.279-2.635-23.849-6.436-4.973-3.394-3.974-2.449-3.974-9.653 0-13.576 16.523-20.904 28.58-20.82" fill="none" stroke="#000" stroke-linecap="square" stroke-miterlimit="10" stroke-width=".7"/>
 <path d="m263.52 38.539c15.474-2.331 25.307 8.607 41.263 3.597-4.886-13.485-36.194-17.748-41.263-3.597" fill="#ff7f00"/>
 <path d="m263.52 38.539c15.474-2.331 25.307 8.607 41.263 3.597-4.792-13.226-35.964-18.175-41.263-3.407" fill="none" stroke="#000" stroke-linecap="square" stroke-miterlimit="10" stroke-width=".7"/>
 <path d="m309.51 98.729c-5.137 1.06-6.235 12.369-7.948 17.793 0.036-5.256-1.035-21.492 2.84-25.174 4.245-4.035 5.008 4.151 5.108 7.381"/>
 <path d="m303.833,83.398c-1.73,10.036-4.046,20.268-4.732,30.473-.852,12.647 3.746,24.317 7.004,36.532 5.128-7.961-2.811-22.861-3.596-31.8-.777-8.858.838-18.222 2.649-26.876 1.446,2.463 3.407,4.389 4.353,7.192 6.94-6.554 25.092-26.728 11.356-33.502-4.38,6.921-10.754,12.729-17.034,17.981" fill="#ffbf00"/>
 <path d="m303.833,83.398c-1.73,10.036-4.046,20.268-4.732,30.473-.852,12.647 3.746,24.317 7.004,36.532 5.128-7.961-2.811-22.861-3.596-31.8-.777-8.858.838-18.222 2.649-26.876 1.446,2.463 3.407,4.389 4.353,7.192 6.94-6.554 25.092-26.728 11.356-33.502-4.38,6.921-10.754,12.729-17.034,17.981" fill="none" stroke="#000" stroke-linecap="square" stroke-miterlimit="10" stroke-width=".7"/>
 <path d="m317.46 102.33c-4.624 13.287-9.428 26.565-14.454 39.712-2.177 5.693-7.535 11.833-2.067 15.587l25.039 17.193c11.905-17.669 26.689-46.736 26.689-68.518 0-21.663-27.721-21.141-35.207-3.974" fill="#ffbf00"/>
 <path d="m317.46 102.33c-4.624 13.287-9.428 26.565-14.454 39.712-2.177 5.693-7.535 11.833-2.067 15.587l25.039 17.193c11.905-17.669 26.689-46.736 26.689-68.518 0-21.663-27.721-21.141-35.207-3.974" fill="none" stroke="#000" stroke-linecap="square" stroke-miterlimit="10" stroke-width=".7"/>
 <path d="m295.13 153.43c-4.966 11.646 8.046 16.147 16.467 22.146 4.966 3.538 20.309 12.992 18.455-1.894-1.859-14.923-22.419-21.642-34.922-20.252" fill="#ff7f00"/>
 <path d="m295.13 153.43c-4.966 11.646 8.046 16.147 16.467 22.146 4.966 3.538 20.309 12.992 18.455-1.894-1.836-14.743-22.296-21.733-34.733-20.252" fill="none" stroke="#000" stroke-linecap="square" stroke-miterlimit="10" stroke-width=".7"/>
 <path d="m196.514.495c-3.305,3.567-1.78,21.986 5.678,19.874 7.477-2.118-.933-18.804-5.678-19.874" fill="#d010b1"/>
 <path d="m196.514.495c-3.305,3.567-1.78,21.986 5.678,19.874 7.26-2.056-.654-18.689-5.489-19.686" fill="none" stroke="#000" stroke-linecap="square" stroke-miterlimit="10" stroke-width=".7"/>
 <path d="m260.49 62.389c-16.862-24.045-25.185-53.813-58.487-44.481-6.199 1.737-23.08 6.986-23.685 15.493-1.253 17.612-2.507 35.224-3.761 52.836 28.466-7.883 58.306-15.425 85.933-23.848" fill="#d010b1"/>
 <path d="m260.49 62.389c-16.862-24.045-25.185-53.813-58.487-44.481-6.199 1.737-23.08 6.986-23.685 15.493-1.253 17.612-2.507 35.224-3.761 52.836l86.122-23.848" fill="none" stroke="#000" stroke-linecap="square" stroke-miterlimit="10" stroke-width=".7"/>
 <path d="m213.93 61.442c-7.739 2.42-42.66 12.083-39.37 24.794 3.271 12.639 38.898 3.229 46.564 1.135 7.582-2.071 42.97-12.232 39.369-24.795-3.625-12.647-39.207-2.955-46.563-1.134" fill="#8210d2"/>
 <path d="m213.93 61.442c-7.739 2.42-42.66 12.083-39.37 24.794 3.271 12.639 38.898 3.229 46.564 1.135 7.582-2.071 42.97-12.232 39.369-24.795-3.587-12.513-38.942-3.242-46.563-0.946" fill="none" stroke="#000" stroke-linecap="square" stroke-miterlimit="10" stroke-width=".7"/>
 <path d="m217.71 86.805c1.766-0.024 3.774-1.041 5.49-1.514-1.869-6.699-2.039-28.633-12.114-22.902l6.624 24.416"/>
 <path d="m217.71 86.805c1.766-0.024 3.774-1.041 5.49-1.514-1.869-6.699-2.039-28.633-12.114-22.902l6.624 24.416" fill="none" stroke="#000" stroke-linecap="square" stroke-miterlimit="10" stroke-width=".7"/>
 <path d="m226.607,151.159c-9.911-13.636-19.792-28.343-24.227-44.859-4.039-15.042 1.779-39.736 22.43-35.395 18.209,3.829 22.289,24.247 23.755,39.938 .869,9.306.774,18.714-.001,28.013-.889,10.672-12.424,9.881-21.957,12.303" fill="#ab10d2"/>
 <path d="m226.607,151.159c-9.911-13.636-19.792-28.343-24.227-44.859-3.985-14.844.865-37.459 20.632-35.772 18.862,1.609 23.83,23.709 25.405,38.893 .923,8.896 1.31,18.273.336,27.164-1.417,12.936-9.793,11.288-21.956,14.575" fill="none" stroke="#000" stroke-linecap="square" stroke-miterlimit="10" stroke-width=".7"/>
 <path d="m198.027,102.137c.4,8.637 2.642,24.522 14.575,23.281 7.224-.751 2.336-5.033-2.651-7.192 9.216,3.133 7.871-5.063.758-5.869 13.966,1.54-4.087-8.038-6.057-9.652 6.724,2.488 9.888-.122 4.92-4.732-4.922-4.568-19.979-3.486-11.545,4.164" fill="#ff0"/>
 <path d="m198.027,102.137c.4,8.637 2.642,24.522 14.575,23.281 7.224-.751 2.336-5.033-2.651-7.192 9.216,3.133 7.871-5.063.758-5.869 13.966,1.54-4.087-8.038-6.057-9.652 5.02,1.857 10.826.628 5.867-4.543-4.192-4.373-21.334-4.749-12.492,4.165" fill="none" stroke="#000" stroke-linecap="square" stroke-miterlimit="10" stroke-width=".7"/>
 <path d="m259.73 147.75c4.91 1.746 75.177 26.691 60.41 37.849-19.29 14.575-50.479-19.432-69.495-25.167l9.085-12.682" fill="#f0bbbb"/>
 <path d="m259.73 147.75c4.91 1.746 75.177 26.691 60.41 37.849-19.29 14.575-50.479-19.432-69.495-25.167l9.085-12.682" fill="none" stroke="#000" stroke-linecap="square" stroke-miterlimit="10" stroke-width=".7"/>
 <path d="m250.65 161.76c6.071 12.982 14.158-3.627 15.52-10.41 1.038-5.167-1.984-8.652-7.569-6.057-3.541 1.645-6.69 13.495-7.951 16.467" fill="#ff0"/>
 <path d="m250.646,161.759c5.445,11.645 15.077-1.755 15.33-9.464 .156-4.76.119-10.206-7.001-7.003-3.913,1.76-6.765,12.627-8.329,16.656" fill="none" stroke="#000" stroke-linecap="square" stroke-miterlimit="10" stroke-width=".7"/>
 <path d="m250.646,161.759c-4.61-.156-26.549.359-28.959-3.218-2.944-4.37 4.912-4.015 8.139-4.165-4.963-.982-13.575-2.398-14.954-7.192-2.096-7.285 8.618-3.799 15.712-3.029-3.242-.309-15.962-.531-17.793-3.216-3.346-4.905 7.323-3.275 8.99-3.124 6.517.59 21.182,2.787 25.458-1.987 3.091-3.45-1.177-9.771 4.542-12.682 1.078,13.619 15.401,28.64-1.135,38.613" fill="#ff0"/>
 <path d="m250.646,161.759c-4.61-.156-26.549.359-28.959-3.218-2.944-4.37 4.912-4.015 8.139-4.165-4.963-.982-13.575-2.398-14.954-7.192-2.096-7.285 8.618-3.799 15.712-3.029-3.242-.309-15.962-.531-17.793-3.216-3.346-4.905 7.323-3.275 8.99-3.124 6.517.59 21.182,2.787 25.458-1.987 3.091-3.45-1.177-9.771 4.542-12.682 1.135,14.335 15.188,27.309-1.135,38.802" fill="none" stroke="#000" stroke-linecap="square" stroke-miterlimit="10" stroke-width=".7"/>
 <path d="m236.45,157.595c4.422.252 9.763.757 13.817.567-.012-.006-.01-.563 0-.567-3.725-.489-12.63-1.439-13.817,0"/>
 <path d="m235.125,152.105c5.108.582 10.221,1.2 15.333,1.705-.025-.019-.006-.756 0-.758-3.346-.58-15.369-3.24-15.333-.947"/>
 <path d="m236.45,146.048c5.348,1.354 10.711,2.829 16.089,3.976-.063-.19-.001-.253.188-.19-.022-.017-.02-.744 0-.756-4.292-.945-15.282-4.308-16.277-3.03"/>
 <path d="m180.24 241.44v-63.597l-125.87 21.009c41.816 15.034 83.263 29.999 125.87 42.588" fill="#ad7233"/>
 <path d="m180.24 241.44v-63.597l-125.87 21.009c41.816 15.034 83.263 29.999 125.87 42.588" fill="none" stroke="#000" stroke-linecap="square" stroke-miterlimit="10" stroke-width=".7"/>
 <path d="m272.03 204.54 27.445 50.158-36.495-14.972c-1.473-0.604 8.013-31.349 9.05-35.186" fill="#362411"/>
 <path d="m272.03 204.54 27.445 50.158-36.495-14.972c-1.473-0.604 8.013-31.349 9.05-35.186" fill="none" stroke="#000" stroke-linecap="square" stroke-miterlimit="10" stroke-width=".7"/>
 <path d="m180.24 177.66 91.799 26.878-91.799 36.909v-63.787" fill="#ad7233"/>
 <path d="m180.24 177.66 91.799 26.878-91.799 36.909v-63.597" fill="none" stroke="#000" stroke-linecap="square" stroke-miterlimit="10" stroke-width=".7"/>
 <path d="m272.03 204.54v170.2c0 7.207 0.706 6.612-6.368 8.218-14.507 3.292-29.014 6.585-43.521 9.877l-83.552 18.962v-174.37c0-6.814-1.703-7.968 4.92-9.188l42.791-7.891 85.73-15.808" fill="#5a3d1c"/>
 <path d="m272.03 204.54v170.2c0 7.207 0.706 6.612-6.368 8.218-14.507 3.292-29.014 6.585-43.521 9.877l-83.552 18.962v-174.37c0-6.814-1.703-7.968 4.92-9.188l42.791-7.891 85.73-15.808" fill="none" stroke="#000" stroke-linecap="square" stroke-miterlimit="10" stroke-width=".7"/>
 <path d="m272.03 204.54v170.2c0 7.207 0.706 6.612-6.368 8.218-14.507 3.292-29.014 6.585-43.521 9.877l-83.552 18.962v-174.37c0-6.814-1.703-7.968 4.92-9.188l42.791-7.891 85.73-15.808" fill="none" stroke="#000" stroke-linecap="square" stroke-miterlimit="10" stroke-width=".7"/>
 <path d="m138.59 411.79-61.4-36.563-22.657-13.492c-1.495-0.891-0.172-13.904-0.172-15.57v-147.31l70.385 25.307c3.218 1.157 13.844 2.646 13.844 6.698v180.93" fill="#6e4a22"/>
 <path d="m138.59 411.79-61.4-36.563-22.657-13.492c-1.495-0.891-0.172-13.904-0.172-15.57v-147.31l70.385 25.307c3.218 1.157 13.844 2.646 13.844 6.698v180.93" fill="none" stroke="#000" stroke-linecap="square" stroke-miterlimit="10" stroke-width=".7"/>
 <path d="m138.59 411.79-61.4-36.563-22.657-13.492c-1.495-0.891-0.172-13.904-0.172-15.57v-147.31l70.385 25.307c3.218 1.157 13.844 2.646 13.844 6.698v180.93" fill="none" stroke="#000" stroke-linecap="square" stroke-miterlimit="10" stroke-width=".7"/>
 <path d="m24.081,267.944 81.56,33.748c1.833.759 29.56-64.865 32.953-72.551-27.493-9.885-54.985-19.77-82.478-29.655-4.303-1.547-28.347,60.045-32.035,68.458" fill="#8b5c29"/>
 <path d="m24.081,267.944 81.56,33.748c1.833.759 29.56-64.865 32.953-72.551-27.493-9.885-54.985-19.77-82.478-29.655-4.303-1.547-28.347,60.045-32.035,68.458" fill="none" stroke="#000" stroke-linecap="square" stroke-miterlimit="10" stroke-width=".7"/>
 <path d="m272.03 204.54-133.44 24.605c6.419 18.708 12.838 37.416 19.258 56.123 5.921 17.258 2.622 22.046 20.056 18.484l119.68-24.448-25.553-74.764" fill="#8b5c29"/>
 <path d="m272.03 204.54-133.44 24.605c6.419 18.708 12.838 37.416 19.258 56.123 5.921 17.258 2.622 22.046 20.056 18.484l119.68-24.448-25.553-74.764" fill="none" stroke="#000" stroke-linecap="square" stroke-miterlimit="10" stroke-width=".7"/>
</svg>
