<svg id="Слой_1" data-name="Слой 1" xmlns="http://www.w3.org/2000/svg" xmlns:xlink="http://www.w3.org/1999/xlink" viewBox="0 0 468 595"><defs><style>.cls-1{fill:#010101}.cls-2{fill:#f9c1a9}.cls-5{fill:#f09b87}.cls-6{fill:#e99281}.cls-7{fill:#fde7dc}.cls-18{fill:#32bce0}.cls-21{fill:#3494bc}.cls-22{fill:#076b88}.cls-23{fill:#fff}.cls-27{fill:#f6a12d}.cls-29{fill:#e46c0c}.cls-30{fill:#ffe19a}.cls-31{fill:#ed8106}.cls-32{fill:#d45515}.cls-33{fill:#f9b151}.cls-34{fill:#b95817}.cls-36{fill:#e52521}.cls-37{fill:#ec6472}.cls-38{fill:#d11317}.cls-39{fill:#9c1915}.cls-40{fill:#fef9d4}.cls-86{fill:#b25044}.cls-92{fill:#f18670}</style><radialGradient id="Sfumatura_senza_nome_152" cx="88" cy="703" r="16" gradientTransform="matrix(1.02 .48 -.75 1.6 798 -762)" gradientUnits="userSpaceOnUse"><stop offset="0" stop-color="#fcdecd"/><stop offset="1" stop-color="#faceb9"/><stop offset="1" stop-color="#f9c1a9"/></radialGradient><radialGradient id="Sfumatura_senza_nome_152-2" cx="-868" cy="964" r="16" gradientTransform="matrix(-.03 .48 -1.76 -.12 2053 900)" xlink:href="#Sfumatura_senza_nome_152"/><linearGradient id="Sfumatura_senza_nome_153" x1="371" y1="391" x2="381" y2="347" gradientUnits="userSpaceOnUse"><stop offset="0" stop-color="#953e31"/><stop offset="1" stop-color="#e67e6e"/></linearGradient><linearGradient id="Sfumatura_senza_nome_153-2" x1="285" y1="536" x2="259" y2="506" xlink:href="#Sfumatura_senza_nome_153"/><linearGradient id="Sfumatura_senza_nome_153-3" x1="294" y1="581" x2="289" y2="519" xlink:href="#Sfumatura_senza_nome_153"/><radialGradient id="Sfumatura_senza_nome_45" cx="150" cy="588" r="28" gradientTransform="matrix(1.26 0 0 1.96 -22 -858)" gradientUnits="userSpaceOnUse"><stop offset="0" stop-color="#77c7cc"/><stop offset="1" stop-color="#32bce0"/></radialGradient><radialGradient id="Sfumatura_senza_nome_45-2" cx="1586" cy="555" r="28" gradientTransform="matrix(.25 -.21 .7 .83 -556 165)" xlink:href="#Sfumatura_senza_nome_45"/><radialGradient id="Sfumatura_senza_nome_7" cx="111" cy="483" r="31" gradientTransform="matrix(1.18 0 0 1.18 -25 -201)" gradientUnits="userSpaceOnUse"><stop offset="0" stop-color="#47bdd1"/><stop offset="1" stop-color="#35a7d3"/></radialGradient><linearGradient id="Sfumatura_senza_nome_118" x1="148" y1="263" x2="155" y2="248" gradientUnits="userSpaceOnUse"><stop offset="0" stop-color="#f9c1a9"/><stop offset="1" stop-color="#e67e6e"/></linearGradient><linearGradient id="Sfumatura_senza_nome_153-4" x1="156" y1="250" x2="153" y2="261" xlink:href="#Sfumatura_senza_nome_153"/><radialGradient id="Sfumatura_senza_nome_59" cx="233" cy="539" r="13" gradientTransform="matrix(2.2 -.61 .27 1.14 -407 -97)" gradientUnits="userSpaceOnUse"><stop offset="0" stop-color="#fcc14a"/><stop offset="1" stop-color="#f6a12d"/></radialGradient><radialGradient id="Sfumatura_senza_nome_59-2" cx="221" cy="547" r="13" gradientTransform="matrix(2.39 -.61 .29 1.14 -439 -97)" xlink:href="#Sfumatura_senza_nome_59"/><linearGradient id="Sfumatura_senza_nome_48" x1="268" y1="251" x2="281" y2="256" gradientUnits="userSpaceOnUse"><stop offset="0" stop-color="#e46c0c"/><stop offset="1" stop-color="#f6a12d"/></linearGradient><radialGradient id="Sfumatura_senza_nome_64" cx="235" cy="390" r="26" gradientTransform="matrix(1.18 0 0 1.18 -25 -201)" gradientUnits="userSpaceOnUse"><stop offset="0" stop-color="#fffdef"/><stop offset="1" stop-color="#ffe19a"/></radialGradient><linearGradient id="Sfumatura_senza_nome_4" x1="349" y1="324" x2="358" y2="315" gradientTransform="matrix(.8 .72 -.72 .8 248 -246)" gradientUnits="userSpaceOnUse"><stop offset="0" stop-color="#58852f"/><stop offset="1" stop-color="#225125"/></linearGradient><linearGradient id="Sfumatura_senza_nome_3" x1="349" y1="323" x2="357" y2="316" gradientTransform="matrix(.8 .72 -.72 .8 248 -246)" gradientUnits="userSpaceOnUse"><stop offset="0" stop-color="#7eba28"/><stop offset="1" stop-color="#2d8d36"/></linearGradient><linearGradient id="Sfumatura_senza_nome_4-2" x1="249" y1="-99" x2="259" y2="-108" gradientTransform="matrix(.53 .33 -.48 .37 94 195)" xlink:href="#Sfumatura_senza_nome_4"/><linearGradient id="Sfumatura_senza_nome_3-2" x1="250" y1="-100" x2="258" y2="-107" gradientTransform="matrix(.53 .33 -.48 .37 94 195)" xlink:href="#Sfumatura_senza_nome_3"/><radialGradient id="Sfumatura_senza_nome_26" cx="298" cy="433" r="15" gradientTransform="matrix(1.18 0 0 1.18 -25 -201)" gradientUnits="userSpaceOnUse"><stop offset="0" stop-color="#e52521"/><stop offset="1" stop-color="#af1917"/></radialGradient><radialGradient id="Sfumatura_senza_nome_45-3" cx="556" cy="699" r="20" gradientTransform="matrix(.62 -.32 1.11 2.19 -972 -1060)" xlink:href="#Sfumatura_senza_nome_45"/><radialGradient id="Sfumatura_senza_nome_45-4" cx="815" cy="935" r="20" gradientTransform="matrix(0 -.7 2.46 0 -2072 900)" xlink:href="#Sfumatura_senza_nome_45"/><radialGradient id="Sfumatura_senza_nome_7-2" cx="146" cy="472" r="26" xlink:href="#Sfumatura_senza_nome_7"/><radialGradient id="Sfumatura_senza_nome_152-3" cx="51" cy="466" r="21" gradientTransform="matrix(.77 .23 -.33 1.13 383 -178)" xlink:href="#Sfumatura_senza_nome_152"/><linearGradient id="Sfumatura_senza_nome_18" x1="336" y1="365" x2="295" y2="365" gradientUnits="userSpaceOnUse"><stop offset="0" stop-color="#f9c1a9"/><stop offset="1" stop-color="#f09b87"/></linearGradient><linearGradient id="Sfumatura_senza_nome_153-5" x1="234" y1="390" x2="334" y2="317" xlink:href="#Sfumatura_senza_nome_153"/><radialGradient id="Sfumatura_senza_nome_152-4" cx="564" cy="437" r="21" gradientTransform="matrix(.4 -.04 .11 1.17 94 -143)" xlink:href="#Sfumatura_senza_nome_152"/><linearGradient id="Sfumatura_senza_nome_153-6" x1="335" y1="358" x2="378" y2="341" xlink:href="#Sfumatura_senza_nome_153"/><linearGradient id="Sfumatura_senza_nome_118-2" x1="211" y1="257" x2="211" y2="251" xlink:href="#Sfumatura_senza_nome_118"/><radialGradient id="Sfumatura_senza_nome_152-5" cx="210" cy="-752" r="27" gradientTransform="matrix(1.09 0 0 .37 -15 509)" xlink:href="#Sfumatura_senza_nome_152"/><radialGradient id="Sfumatura_senza_nome_152-6" cx="175" cy="-281" r="27" gradientTransform="matrix(1.67 0 0 1.13 -62 442)" xlink:href="#Sfumatura_senza_nome_152"/><radialGradient id="Sfumatura_senza_nome_189" cx="341" cy="558" r="18" gradientTransform="matrix(1.18 0 0 1.53 -251 -658)" gradientUnits="userSpaceOnUse"><stop offset="0" stop-color="#f39e9c"/><stop offset="1" stop-color="#f9c1a9"/></radialGradient><radialGradient id="Sfumatura_senza_nome_189-2" cx="-85" cy="513" r="16" gradientTransform="matrix(.64 .52 -.96 1.19 817 -362)" xlink:href="#Sfumatura_senza_nome_189"/><linearGradient id="Sfumatura_senza_nome_13" x1="167" y1="206" x2="108" y2="187" gradientUnits="userSpaceOnUse"><stop offset="0" stop-color="#f29184"/><stop offset="1" stop-color="#f9c1a9"/></linearGradient><linearGradient id="Sfumatura_senza_nome_118-3" x1="254" y1="182" x2="262" y2="145" xlink:href="#Sfumatura_senza_nome_118"/><linearGradient id="Sfumatura_senza_nome_118-4" x1="187" y1="168" x2="195" y2="131" xlink:href="#Sfumatura_senza_nome_118"/><linearGradient id="Sfumatura_senza_nome_203" x1="106" y1="144" x2="98" y2="174" xlink:href="#Sfumatura_senza_nome_152"/><linearGradient id="Sfumatura_senza_nome_118-5" x1="111" y1="200" x2="86" y2="162" xlink:href="#Sfumatura_senza_nome_118"/><linearGradient id="Sfumatura_senza_nome_118-6" x1="288" y1="201" x2="272" y2="176" xlink:href="#Sfumatura_senza_nome_118"/><linearGradient id="Sfumatura_senza_nome_195" x1="184" y1="276" x2="184" y2="18" gradientUnits="userSpaceOnUse"><stop offset="0" stop-color="#f6ab8b"/><stop offset="1" stop-color="#c76755"/></linearGradient><linearGradient id="Sfumatura_senza_nome_202" x1="96" y1="190" x2="104" y2="169" gradientUnits="userSpaceOnUse"><stop offset="0" stop-color="#f1ae91"/><stop offset="1" stop-color="#d86a5a"/></linearGradient><linearGradient id="Sfumatura_senza_nome_202-2" x1="280" y1="195" x2="276" y2="179" xlink:href="#Sfumatura_senza_nome_202"/><linearGradient id="Sfumatura_senza_nome_153-7" x1="183" y1="236" x2="183" y2="262" xlink:href="#Sfumatura_senza_nome_153"/><linearGradient id="Sfumatura_senza_nome_9" x1="182" y1="185" x2="202" y2="193" gradientUnits="userSpaceOnUse"><stop offset="0" stop-color="#f18670"/><stop offset="1" stop-color="#f9c1a9"/></linearGradient><linearGradient id="Sfumatura_senza_nome_9-2" x1="258" y1="191" x2="245" y2="194" xlink:href="#Sfumatura_senza_nome_9"/><linearGradient id="Sfumatura_senza_nome_118-7" x1="255" y1="210" x2="252" y2="215" xlink:href="#Sfumatura_senza_nome_118"/><linearGradient id="Sfumatura_senza_nome_118-8" x1="170" y1="206" x2="167" y2="211" xlink:href="#Sfumatura_senza_nome_118"/><radialGradient id="Sfumatura_senza_nome_181" cx="204" cy="-376" r="9" gradientTransform="matrix(1.18 0 0 .42 -25 407)" gradientUnits="userSpaceOnUse"><stop offset="0" stop-color="#f08aa2"/><stop offset="1" stop-color="#ec6670"/></radialGradient><linearGradient id="Sfumatura_senza_nome_9-3" x1="257" y1="199" x2="265" y2="209" gradientTransform="rotate(-8 37 683)" xlink:href="#Sfumatura_senza_nome_9"/><linearGradient id="Sfumatura_senza_nome_141" x1="133" y1="194" x2="133" y2="183" gradientTransform="matrix(.92 .1 -.11 .99 90 -20)" gradientUnits="userSpaceOnUse"><stop offset="0" stop-color="#561114"/><stop offset="1" stop-color="#340f12"/></linearGradient><linearGradient id="Sfumatura_senza_nome_31" x1="133" y1="194" x2="133" y2="183" gradientTransform="matrix(0 .93 -1 0 380 58)" gradientUnits="userSpaceOnUse"><stop offset="0" stop-color="#7d2414"/><stop offset="1" stop-color="#62190f"/></linearGradient><linearGradient id="Sfumatura_senza_nome_134" x1="133" y1="196" x2="133" y2="201" gradientTransform="matrix(.92 .1 -.11 .99 90 -20)" gradientUnits="userSpaceOnUse"><stop offset="0" stop-color="#ae4330"/><stop offset="1" stop-color="#e6847f"/></linearGradient><linearGradient id="Sfumatura_senza_nome_123" x1="134" y1="196" x2="134" y2="190" gradientTransform="matrix(0 .93 -1 0 382 57)" gradientUnits="userSpaceOnUse"><stop offset="0" stop-color="#ad6464"/><stop offset="1" stop-color="#010101"/></linearGradient><linearGradient id="Sfumatura_senza_nome_124" x1="134" y1="186" x2="134" y2="181" gradientTransform="matrix(0 .93 -1 0 377 52)" gradientUnits="userSpaceOnUse"><stop offset="0" stop-color="#ad6464"/><stop offset="1" stop-color="#fff"/></linearGradient><linearGradient id="Sfumatura_senza_nome_9-4" x1="175" y1="164" x2="167" y2="171" gradientTransform="rotate(8 122 722)" xlink:href="#Sfumatura_senza_nome_9"/><radialGradient id="Sfumatura_senza_nome_10" cx="165" cy="330" r="10" gradientTransform="matrix(1.34 .21 -.19 1.22 91 -252)" gradientUnits="userSpaceOnUse"><stop offset="0" stop-color="#d89393"/><stop offset="1" stop-color="#010101"/></radialGradient><linearGradient id="Sfumatura_senza_nome_141-2" x1="19" y1="181" x2="19" y2="170" gradientTransform="matrix(.74 .32 -.39 .92 308 17)" xlink:href="#Sfumatura_senza_nome_141"/><linearGradient id="Sfumatura_senza_nome_31-2" x1="19" y1="181" x2="19" y2="170" gradientTransform="matrix(.74 .32 -.39 .92 308 17)" xlink:href="#Sfumatura_senza_nome_31"/><linearGradient id="Sfumatura_senza_nome_134-2" x1="19" y1="183" x2="19" y2="187" gradientTransform="matrix(.74 .32 -.39 .92 308 17)" xlink:href="#Sfumatura_senza_nome_134"/><linearGradient id="Sfumatura_senza_nome_123-2" x1="20" y1="183" x2="20" y2="177" gradientTransform="matrix(0 .81 -1 0 430 169)" xlink:href="#Sfumatura_senza_nome_123"/><linearGradient id="Sfumatura_senza_nome_124-2" x1="20" y1="173" x2="20" y2="169" gradientTransform="matrix(0 .81 -1 0 427 165)" xlink:href="#Sfumatura_senza_nome_124"/><linearGradient id="Sfumatura_senza_nome_167" x1="228" y1="181" x2="228" y2="211" gradientUnits="userSpaceOnUse"><stop offset="0" stop-color="#f9c1a9"/><stop offset="1" stop-color="#f4a59d"/></linearGradient><linearGradient id="Sfumatura_senza_nome_173" x1="234" y1="192" x2="234" y2="209" gradientUnits="userSpaceOnUse"><stop offset="0" stop-color="#f9c1a9"/><stop offset="1" stop-color="#f9c8c0"/></linearGradient><linearGradient id="Sfumatura_senza_nome_173-2" x1="240" y1="192" x2="240" y2="209" xlink:href="#Sfumatura_senza_nome_173"/><linearGradient id="Sfumatura_senza_nome_118-9" x1="227" y1="235" x2="227" y2="220" xlink:href="#Sfumatura_senza_nome_118"/><linearGradient id="Sfumatura_senza_nome_153-8" x1="228" y1="199" x2="228" y2="188" xlink:href="#Sfumatura_senza_nome_153"/><linearGradient id="Sfumatura_senza_nome_38" x1="209" y1="135" x2="205" y2="147" gradientTransform="matrix(1.02 -.04 .04 1 -24 2)" gradientUnits="userSpaceOnUse"><stop offset="0" stop-color="#64170e"/><stop offset="1" stop-color="#48120d"/></linearGradient><linearGradient id="Sfumatura_senza_nome_38-2" x1="260" y1="140" x2="257" y2="148" gradientTransform="matrix(1.03 .02 0 1 -3 -2)" xlink:href="#Sfumatura_senza_nome_38"/><linearGradient id="Sfumatura_senza_nome_109" x1="195" y1="159" x2="195" y2="211" gradientUnits="userSpaceOnUse"><stop offset="0" stop-color="#943932"/><stop offset="1" stop-color="#8a2a1c"/></linearGradient><linearGradient id="Sfumatura_senza_nome_31-3" x1="195" y1="110" x2="195" y2="144" xlink:href="#Sfumatura_senza_nome_31"/><linearGradient id="Sfumatura_senza_nome_2" x1="188" y1="58" x2="188" y2="101" gradientUnits="userSpaceOnUse"><stop offset="0" stop-color="#a84d58"/><stop offset="1" stop-color="#993a3a"/></linearGradient><linearGradient id="Sfumatura_senza_nome_102" x1="220" y1="111" x2="220" y2="146" gradientUnits="userSpaceOnUse"><stop offset="0" stop-color="#9c4942"/><stop offset="1" stop-color="#933b2e"/></linearGradient><linearGradient id="Sfumatura_senza_nome_110" x1="224" y1="-9" x2="224" y2="132" gradientUnits="userSpaceOnUse"><stop offset="0" stop-color="#d28276"/><stop offset="1" stop-color="#a7544c"/></linearGradient><linearGradient id="Sfumatura_senza_nome_38-3" x1="195" y1="110" x2="195" y2="144" xlink:href="#Sfumatura_senza_nome_38"/></defs><path class="cls-1" d="M397 365a10 10 0 0 0-7-4 1 1 0 0 0-1 1 4 4 0 0 0-3-2 6 6 0 0 0-4 1 8 8 0 0 0-4 1 8 8 0 0 0-1 0 8 8 0 0 0-8 5 10 10 0 0 0-5 10 1 1 0 0 0 0 1c-3 2-4 4-5 7a36 36 0 0 1-1 3c-2 4-5 6-8 8l-1 1a5 5 0 0 0-2 0 21 21 0 0 0-2 0h-16a34 34 0 0 1-6 0 25 25 0 0 1-6-2l-1-1a560 560 0 0 1-23-10 65 65 0 0 0-28-6l-11 1h-32c-6 0-13 0-20-2a19 19 0 0 0 0-4 1 1 0 0 0-1-1l-3-30a2 2 0 0 0 0-1c0-7 1-14 3-20a63 63 0 0 0 18 13 2 2 0 0 0 1 0 2 2 0 0 0 1-1 2 2 0 0 0 1-1l23-28a1 1 0 0 0 1-1 1 1 0 0 0 0-1c-13-8-22-17-28-28l-2-4c-5-7-10-16-18-20a2 2 0 0 0-1-1 2 2 0 0 0-1 1 2 2 0 0 0-1 1l-12 2-1-1a11 11 0 0 0 0-1c0-7-4-16-9-18a95 95 0 0 0-12-3l-6-6a2 2 0 0 0 0-1 2 2 0 0 0-2-1 102 102 0 0 0-12 3c-16 6-36 19-43 43-4 13-4 27-3 41l3 39c2 17 3 32-5 45h-1a2 2 0 0 0-1 3 66 66 0 0 0 8 8c0 15 8 30 23 46l27 24 18 16c8 8 18 17 24 28l3 4 3 6a101 101 0 0 0 8 10c11 13 25 26 42 39 9 6 17 12 28 14a32 32 0 0 0 5 1 23 23 0 0 0 8-2c7 0 14-3 18-8 5-8 1-17-4-24-3-5-5-9-4-14l4-7a44 44 0 0 0 3-4c6-11 0-20-5-28l-1-1a1 1 0 0 0-1 0c2-3 4-8 3-12a15 15 0 0 0-7-10 8 8 0 0 0-4-1c-4 0-8 4-8 9a4 4 0 0 0-1 0c-3 0-5 3-6 6l-1 1a6 6 0 0 0-1 0 6 6 0 0 0-4 1c-2 2-3 4-2 7l-9-8-1-1c-2-1-4-3-4-5a153 153 0 0 0-6-15c-3-5-5-9-11-11l-2-1a52 52 0 0 1-7-3c-5-3-8-7-10-11l-1-1c-2-2-3-5-2-6l5-3h1a125 125 0 0 1 18-6 33 33 0 0 1 8-1 55 55 0 0 1 6 0 187 187 0 0 1 23 4 116 116 0 0 1 17 6l3 1a335 335 0 0 0 33 12l23 5h3a17 17 0 0 1 3 1 20 20 0 0 0 3 1 19 19 0 0 0 5 1 9 9 0 0 0 4-1 10 10 0 0 0 4-3v-1a2 2 0 0 0 1-2 2 2 0 0 0-1-1c8-4 7-14 6-23v-14l7-11c3-4 6-8 7-13a24 24 0 0 0 0-6c0-3 0-6 2-8a25 25 0 0 0 3-8 9 9 0 0 0-1-8z"/><path class="cls-2" d="M390 362l-1 2-1-1c-1-3-4-2-6 0v-1a6 6 0 0 0-4 2l-1-1a6 6 0 0 0-6 4h-1c-3 2-5 6-5 10v2c-4 3-4 9-8 13a94 94 0 0 1-10 10l9 48 11 7 1-2v1c12-2 10-12 10-17l-1-17c1-5 5-13 9-16s7-12 6-15 0-9 2-11l3-8c2-8-7-10-7-10z"/><path d="M376 411c7-16 5-32-5-36a13 13 0 0 0-6-1 8 8 0 0 0 0 3v2c-4 3-4 9-8 13a94 94 0 0 1-10 10l5 29c9-1 18-8 24-20z" fill="url(#Sfumatura_senza_nome_152)"/><path d="M390 362l-1 2-1-1c-1-3-4-2-6 0v-1a6 6 0 0 0-4 2l-1-1a6 6 0 0 0-6 4h-1a11 11 0 0 0-4 4 94 94 0 0 0 18 3 104 104 0 0 0 13 0v-2c2-8-7-10-7-10z" fill="url(#Sfumatura_senza_nome_152-2)"/><path class="cls-5" d="M378 381l1-4s1-4 6-8a16 16 0 0 0 5-7l-1 2v-1a3 3 0 0 0-2-2s1 3-2 5-6 6-8 13zm18-15c0 1-1 10-3 12-3 3-5 3-5 8s0 11-4 15-8 9-10 16 0 14 0 21c0 4 0 7-2 9-5-3-8-12-11-26-2-15-10-23-10-23l-4 4 9 48 11 7 1-2v1c12-2 10-12 10-17l-1-17c1-5 5-13 9-16s7-12 6-15 0-9 2-11l3-8a8 8 0 0 0-1-6zm-14-3v-1a5 5 0 0 0-1 0v1l-2 4h1zm-4 1l-1-1a6 6 0 0 0-1 0l-3 5 3-3zm-8 4h-1v2l1-2z"/><path class="cls-6" d="M390 364a41 41 0 0 1-4 5 5 5 0 0 0 5 3 9 9 0 0 0 3-5 5 5 0 0 0-4-3zm-7-2l-2 4 3 1s2-3 2-4l-3-1zm-3 1h-2l-3 4h3a21 21 0 0 0 2-3v-1zm-6 1l-2 1a8 8 0 0 0-1 3h1a29 29 0 0 0 2-3 1 1 0 0 0 0-1zm-6 5l-1 1h2l1-2h-1z"/><path class="cls-7" d="M390 371a5 5 0 0 1-3-2 41 41 0 0 0 3-5 5 5 0 0 1 4 3 9 9 0 0 1-3 4 6 6 0 0 1-1 0zm-22-1l1-1v1zm3-2a6 6 0 0 1 2-3l1-1a1 1 0 0 1 0 1 25 25 0 0 1-2 2zm5-2l2-2 1-1 1 1a18 18 0 0 1-2 2zm5 0a11 11 0 0 1 2-4h1a2 2 0 0 1 1 1c1 1-1 2-2 3z"/><path d="M390 362l-5 6a17 17 0 0 0-6 9h1a16 16 0 0 1 4-7 32 32 0 0 0 3-3l3-4h1c4 0 7 5 6 9a24 24 0 0 1-2 5l-3 5c-2 4 0 9-1 13a24 24 0 0 1-3 7l-5 6a34 34 0 0 0-6 12v13a75 75 0 0 1 1 12c-1 6-4 10-10 11 18-2 6-27 10-38 4-9 12-14 14-23 1-5-1-10 2-15a24 24 0 0 0 3-7c2-6-2-10-7-11zm-17 15c1-3 2-9 7-10-5 0-7 6-8 10h1zm2-11l-6 9 1 1 5-10zm-7 9a9 9 0 0 1 2-5 7 7 0 0 0-3 5h1zm2-7l1 1a6 6 0 0 1 6-5 4 4 0 0 0-1 2h1a6 6 0 0 1 2-2 6 6 0 0 1 3-1 5 5 0 0 0-2 2l1 1a6 6 0 0 1 3-4c2-1 4-1 4 1h1c-1-3-5-3-7-1a7 7 0 0 0-4 1h-1a7 7 0 0 0-7 4 9 9 0 0 0-5 10h1c-1-4 1-7 4-9zm-5 10c-4 3-4 7-6 11-3 5-9 8-13 12 0 1 0 2 1 1a49 49 0 0 0 11-10c3-4 3-10 7-13v-1z" fill="url(#Sfumatura_senza_nome_153)"/><path d="M199 376c15 8 62 2 78 4s40 18 46 18h26c7 8 10 29 13 42s10 18 10 18l-3 3c-4 4-15-2-15-2s-7 1-26-4-35-13-44-17-33-7-39-7-30 8-32 11 0 6 6 14 17 9 21 13 12 24 12 24c6 7 15 14 22 19l16 75s-12 8-30-3-55-44-64-62-29-34-47-50-51-39-48-71z" fill="#0d3552"/><path d="M165 449c12 13 29 20 41 32 7 6 11 14 16 20l17 23c4 5 7 9 13 12a97 97 0 0 0 19 7l10 2-1-5a153 153 0 0 1-18-5c-5-2-11-4-15-8-6-6-11-14-16-21l-15-21c-11-13-26-21-40-31l-18-18c-6-5-14-12-14-20 1-4 3-7 6-8h7a28 28 0 0 0 2 4c6 13 13 25 21 36 10 12 24 19 33 31l15 17c7 8 13 18 22 25a61 61 0 0 0 19 11 32 32 0 0 0 10 2l-1-5a31 31 0 0 1-8-2 58 58 0 0 1-21-14c-8-7-15-16-22-25l-12-15c-6-7-13-11-20-17a78 78 0 0 1-15-17c-7-10-13-22-19-33-2-2-4-3-7-3-5 0-11 2-13 7-3 7 0 15 5 21l19 18zm-8-41c0 1 0 0 0 0zm124 172l-17-7a186 186 0 0 1-29-19c-9-7-17-14-24-23a44 44 0 0 1-6-10 93 93 0 0 0-11-18c-15-19-35-33-53-48-10-9-22-18-27-31a59 59 0 0 1-5-25l-5 1a67 67 0 0 0 3 19c4 12 11 21 21 29 17 17 38 31 55 49a96 96 0 0 1 12 16l8 16c5 8 13 15 21 21 15 14 32 26 52 32a130 130 0 0 1 13 6 8 8 0 0 0 1-1l-1-4zM126 406v5a47 47 0 0 0 9 25c8 11 21 18 31 25s22 16 31 26c13 16 24 34 40 49 13 12 30 19 47 23l-1-5c-13-3-26-8-37-16-18-14-30-34-44-51-7-10-17-17-26-25l-19-13c-6-4-12-8-16-13a42 42 0 0 1-10-27 19 19 0 0 0-2-8l-3-6-4 1 3 7 1 3zm-10 12c3 10 9 18 16 26 16 16 36 27 52 43 9 9 16 19 22 28 7 10 14 20 22 27 14 13 33 20 50 27l9 4-1-6c-15-5-30-12-44-20-18-12-29-31-41-47a156 156 0 0 0-25-27l-25-19c-18-13-32-30-34-52v-5l-5 1 1 3a65 65 0 0 0 3 17zm62 6l6 14c2 4 6 7 10 11l14 12c10 8 21 15 27 26l10 17 13 10a181 181 0 0 0 19 11l-1-6-11-6c-5-3-10-6-15-11s-7-10-10-15a46 46 0 0 0-6-9 75 75 0 0 1 10 8l15 19a51 51 0 0 0 16 12l-1-5c-7-5-16-12-22-19l-4-9a78 78 0 0 0-12-11 55 55 0 0 1-12-10l-7-8-21-23-14-15a2 2 0 0 0-3 0l-3-6c-1-3-5-1-4 2l6 11zm34 32l7 8-3-2c-9-8-19-15-27-24-3-4-4-9-6-14l29 32zm-17-66l9 4h7l33 4a297 297 0 0 1 34 5l24 7 27 9a67 67 0 0 0 21-1l7-1-1-5-5 2c-8 1-16 2-24 0l-14-5-15-5a280 280 0 0 0-39-9l-42-5-12-1h-1-1l-5-3 52 3 31 4c16 4 31 16 48 16a162 162 0 0 0 25-1 43 43 0 0 0-2-4l-19 1c-18 0-33-11-49-16l-30-4a1165 1165 0 0 0-58-4 2 2 0 0 0-3 2v5a2 2 0 0 0 2 2zm171 62l-22-3c-12-1-24-4-35-8l-13-7a89 89 0 0 0-21-9c-14-3-27-3-41-3l-30 1-1-5 32 1 26 3 23 4c7 1 12 5 18 8a105 105 0 0 0 19 8c14 4 28 6 42 4a31 31 0 0 1-1-4c-13 2-27-1-39-4a103 103 0 0 1-18-7c-5-3-10-7-16-9l-23-4-28-3c-13-2-25-2-38-2a2 2 0 0 0-2 3l2 10a2 2 0 0 0 2 2l27-1c14 0 28-1 42 2a86 86 0 0 1 23 9l13 7c11 4 23 7 35 9 9 1 19 3 28 2a23 23 0 0 1-4-4zm-50-32l-17-8-27-7-25-5-22-3-29-1a2 2 0 0 0-3 3l2 8a2 2 0 0 0 2 1c19 2 39 3 58 6a180 180 0 0 1 32 7 168 168 0 0 1 22 9c8 4 15 7 24 8a82 82 0 0 0 28-1l-1-5-6 1a69 69 0 0 1-25 0c-9-2-17-7-26-11a177 177 0 0 0-39-12l-40-4-25-2-1-3 24 1 21 2 22 4 29 7 19 8c13 5 28 9 43 7a33 33 0 0 0 4 0 234 234 0 0 0-2-5c-14 3-29-1-42-5z" fill="#044b6c"/><path d="M250 530a50 50 0 0 0 12 5 153 153 0 0 0 18 5l1 3-2-9a32 32 0 0 1-10-2 59 59 0 0 1-16-9 35 35 0 0 0-3 7zm28-1l-1-4a183 183 0 0 1-18-10 27 27 0 0 0-4 4 54 54 0 0 0 15 8 31 31 0 0 0 8 2zm-30 21a260 260 0 0 0 37 17v-2l-4-20-10-2a97 97 0 0 1-19-7 31 31 0 0 1-3-2l-1 5c10 8 23 12 35 15l1 5c-13-3-25-8-36-15v6zm-14-128c14 0 27 0 41 3l6 2-14-4-6-1-26-3-32-1 1 5 30-1zm-117-20a55 55 0 0 0 6 21l6 1a49 49 0 0 1-3-13v-4-1l-1-3-3-7v-1l-7 2h2v5zm192 39c11 4 23 7 35 8l22 3a27 27 0 0 1-3-6c-11 2-24 0-35-3a59 59 0 0 1-9-2l-35-13a82 82 0 0 1 12 6l13 7zm-85 109c-8-6-15-13-21-21l-8-16a96 96 0 0 0-12-16c-17-18-38-32-55-49-9-8-17-17-21-29a67 67 0 0 1-3-19l-3 1c-3 32 31 55 48 71s37 32 47 50 46 50 64 62c15 9 26 5 29 4a130 130 0 0 0-13-6c-20-6-37-18-52-32zm146-94c-9 1-19-1-28-2-12-2-24-5-35-9l-13-7a86 86 0 0 0-23-9c-14-3-28-2-42-2l-26 1a2 2 0 0 1-3-2l-2-10a2 2 0 0 1 2-3 34 34 0 0 1-4-2 21 21 0 0 0 2-3h-1a2 2 0 0 1-2-1l-2-8a3 3 0 0 1 1-3l-19-7-12-4-37 9 3 7a19 19 0 0 1 2 8 43 43 0 0 0 3 16l9 1c-3-5-4-10-2-16 2-5 8-7 13-7 3 0 5 1 7 3l10 19a53 53 0 0 0 7-1l-6-11c-1-3 3-5 4-2l3 6a2 2 0 0 1 3 0l14 15 21 23 2 2a9 9 0 0 0 1 0l-1-1c-6-8-8-11-6-14s26-11 32-11 29 3 39 7 26 11 44 17 26 4 26 4 11 6 15 2l3-3a14 14 0 0 1-2-2zm-204-30l-7-14a28 28 0 0 1-2-4h-7c-3 1-5 4-6 8 0 4 2 7 4 11a94 94 0 0 0 18-1zm-25 29c18 15 38 29 53 48a93 93 0 0 1 11 18 44 44 0 0 0 6 10c7 9 15 16 24 23a186 186 0 0 0 29 19l17 7 8 3-2-8a26 26 0 0 0-4-3v-1l-5-2a290 290 0 0 1-29-13l1 4c-20-11-38-32-46-45-5-6-8-13-12-19a129 129 0 0 0-30-28 65 65 0 0 1-15-11 152 152 0 0 1-15-13c-7-8-13-16-16-26a65 65 0 0 1-3-17l-1-3-3 1a59 59 0 0 0 5 25c5 13 17 22 27 31z" fill="#0c2233"/><path d="M363 446v-1a168 168 0 0 1-35-1c11 2 24 4 35 2zm7 10a22 22 0 0 1-2-2l-1-1v-1h-1l-22-2c-11-2-24-5-35-9l-13-7a82 82 0 0 0-12-6l-3-1-6-2c-14-3-27-3-41-3l-30 1-1-5 32 1 26 3 6 1-3-1c-18-4-42-5-52-5a118 118 0 0 1-12-4 2 2 0 0 0-2 3l2 10a2 2 0 0 0 2 2l27-1c14 0 28-1 42 2a86 86 0 0 1 23 9l13 7c11 4 23 7 35 9 9 1 19 3 28 2zm-193-32l4-2 36 34a5 5 0 0 0 2 1l-2-2-21-23-14-15a2 2 0 0 0-3 0l-3-6c-1-3-5-1-4 2l5 11zm104 156l-17-7a186 186 0 0 1-29-19c-9-7-17-14-24-23a44 44 0 0 1-6-10 93 93 0 0 0-11-18c-15-19-35-33-53-48-10-9-22-18-27-31a59 59 0 0 1-5-25l-5 1a67 67 0 0 0 3 19c4 12 11 21 21 29 17 17 38 31 55 49a96 96 0 0 1 12 16l8 16c5 8 13 15 21 21 15 14 32 26 52 32a130 130 0 0 1 13 6l1-1-1-4zm-32-24a290 290 0 0 0 29 13l5 2 2-4a260 260 0 0 1-37-17l1 6zm-1-12c11 7 23 12 36 15l-1-5c-12-3-25-7-35-15v5zm-85-75l-1-1a198 198 0 0 1 30 28c-6-10-14-20-29-27zm-15-42c-2-4-4-7-4-11 1-4 2-7 6-8h6a28 28 0 0 0 3 4l7 14 5-1-10-19c-2-2-4-3-7-3-5 0-11 2-13 7-2 6-1 11 2 16l5 1zm47-20a2 2 0 0 0 2 1h1a10 10 0 0 0 1-4 6 6 0 0 0-1-3 11 11 0 0 0-4-5 3 3 0 0 0-1 3zm-79 11c3 10 9 18 16 26a152 152 0 0 0 15 13c-12-12-21-27-25-34h1a55 55 0 0 1-6-21v-5l-5 1 1 3a65 65 0 0 0 3 17zm146 117a50 50 0 0 1-12-5 44 44 0 0 0-1 4 31 31 0 0 0 3 2 97 97 0 0 0 19 7l10 2 4 20 3-10c1-6 4-50-17-46a21 21 0 0 0-5 2l-3 1a27 27 0 0 0-4 3 183 183 0 0 0 18 10l1 4a31 31 0 0 1-8-2 54 54 0 0 1-15-8 29 29 0 0 0-2 4 59 59 0 0 0 16 9 32 32 0 0 0 10 2l2 9-1-3a153 153 0 0 1-18-5zM126 406v5a49 49 0 0 0 3 13l5 1a43 43 0 0 1-3-16 19 19 0 0 0-2-8l-3-7-4 1v1l3 7 1 3z" fill="#00374e"/><path d="M226 464s-19-5-26 0-4 10 8 17 31 2 32-3-3-10-14-14z" fill="#286783"/><path d="M198 377c5 2 11 3 16 3a230 230 0 0 0 24 1l23-1 19 1c9 2 17 6 25 10l17 8h27l3 5c4 8 6 17 7 26 2 8 3 16 7 23a18 18 0 0 0 5 4l1 1h-1a11 11 0 0 0-1 2c-3 3-7 2-10 1l-6-2a15 15 0 0 0-2 0 63 63 0 0 1-9-1c-11-2-21-6-31-9l-27-11c-7-3-15-4-23-5-5-1-12-3-18-2l-18 4c-4 1-10 3-13 6-4 4 2 11 4 14a27 27 0 0 0 9 8l11 5c6 3 8 10 11 16l3 8a11 11 0 0 0 3 4 117 117 0 0 0 11 10l6 4 3 3 1 7 3 15 8 35 2 13a17 17 0 0 0 1 4c0 1 1 0 0 0-13 7-28-3-38-11a294 294 0 0 1-39-34c-5-5-11-11-14-18-5-7-9-15-15-21-13-15-28-27-43-40-13-11-26-22-33-37a49 49 0 0 1-6-25h-1c-1 19 10 35 23 48 14 14 30 27 45 40 9 9 18 18 24 28l6 11a101 101 0 0 0 7 9c13 15 28 27 43 39 8 6 17 13 27 14 5 1 11 1 15-2a1 1 0 0 0 0-1l-10-49-5-24c0-3-3-5-6-7l-12-9-5-6a153 153 0 0 0-6-16c-3-5-5-8-10-10l-10-4-10-11c-2-2-5-6-3-9l6-3a126 126 0 0 1 19-6 39 39 0 0 1 14-1 189 189 0 0 1 23 4l20 7a334 334 0 0 0 33 12l23 5h3l6 2c3 1 6 2 8 1l5-5v-1c-6-3-9-9-10-14-3-9-3-19-6-28a60 60 0 0 0-4-11c-1-2-2-5-4-6h-16a59 59 0 0 1-10 0c-3 0-5-2-8-3l-22-10c-7-3-14-5-21-5h-50c-7 0-16 0-23-4l-1 1z" fill="#1e2f55"/><path class="cls-2" d="M307 573c-1-9-8-14-11-22-2-9 6-14 9-22 4-10-3-16-7-24l-2-2c3-5 5-11 0-17-6-7-13-2-13 6-5-3-6 4-8 7l1 1c-5-4-9 2-7 5l-1 2a6 6 0 0 0-1 3h1-1c-2-2-5-2-5 2v1c-2 1-4 5-3 7v1a3 3 0 0 0-2 2h-1a9 9 0 0 0-2 6l1 4c-4 6 1 13 2 19v10l5 9 2 2c5 10 15 16 26 15 8 0 17-6 17-15z"/><path class="cls-5" d="M259 533v2a14 14 0 0 1 2-2 7 7 0 0 0 4-3 11 11 0 0 0 2-3 8 8 0 0 1-1-1l3-2 4-4a4 4 0 0 1-1-1 5 5 0 0 1 1 0 6 6 0 0 0 3-2 4 4 0 0 0 1 0l3-4a4 4 0 0 1-1-1 16 16 0 0 1 1-1 4 4 0 0 0 1 0 8 8 0 0 0 3-2l5-2c5 1 9 1 13 4l-4-6-2-2c3-5 5-10 1-15h-1-4a7 7 0 0 0-3 4c-1 1 0 5-3 6v-1l-1-1c0-4-3 0-5 2a13 13 0 0 0-4 3c-1-2-3 2-4 4-2 1-3 5-4 7-1-1-2 0-3 2-2 2-4 5-2 8h1a15 15 0 0 0-1 3v-1c1-2-3-1-4 0-2 2-3 7-1 8a2 2 0 0 0 1 1zm27-32a11 11 0 0 0 0 3h-1a9 9 0 0 0 1-3zm-8 6v1a14 14 0 0 0 0-1zm-8 7zm0 2a6 6 0 0 0 0 1v1a12 12 0 0 0 0-2zm23 30l8-16c3-6 2-14-3-17s-11 1-14 4l-22 18c-4 4-1 13-1 13 1 10 6 19 11 27s16 12 24 8 6-14 5-18-8-14-8-19zm2 41c-10 2-18-3-25-10s-13-28-13-28h-1a17 17 0 0 1 1 3v10l5 9 2 2c5 10 15 16 26 15a23 23 0 0 0 7-2 6 6 0 0 0-2 1z"/><path d="M287 529c5-2 12 0 12-7 1-6-5-9-10-6l-15 11a38 38 0 0 0-11 13v-1c-1 2-1 6 1 8s5 1 7-1c6-4 9-14 16-17zm12 43c-1-3-4-10-8-10s-7 9-8 12v-1c0 3-2 8 1 10h8c5-1 9-5 7-11zm-3-35a24 24 0 0 0 1-3l-1 3zm0 0l-7 10c-2 5-5 9-5 15l1-2c2-4 3-5 7-5v-10a39 39 0 0 1 4-8zm-33-9zm0 0c1-3-1-6-3-3-1 2 0 6 2 4l1-2v1zm6-10h1c1-3-1-9-4-4-1 4 2 8 3 4zm9-10c1-4-2-7-4-3-2 5 1 9 4 3zm7-5c2-2 1-9-2-6-4 3-2 11 2 6zm9-2c2-1 4-5 4-7h1c-1-7-7-5-8 1 0 2 0 7 3 6z" fill="#ec8a73"/><path d="M263 522a5 5 0 0 0-4-2c0-3 1-5 3-7-3 1-4 4-3 7a3 3 0 0 0-3 3 9 9 0 0 0-2 6 10 10 0 0 1 3-6c1-3 4-2 5 1 2 2-1 5-2 7 0 1 0 2 1 1 3-2 5-7 2-10zm-1-10c1-1 1-3 3-2a8 8 0 0 1 3 3 7 7 0 0 1 1 4c0 2-2 3-4 4a1 1 0 0 0 0 1c3 0 6-2 6-5 1-2 0-4-2-6a10 10 0 0 0-2-2 6 6 0 0 1 1-2v-1a6 6 0 0 0-1 3 4 4 0 0 0-3-1c-2 0-2 2-2 4zm7-8c-1-2 1-4 3-4s4 2 5 3c2 4 0 8-4 10h1a9 9 0 0 0 2-13 6 6 0 0 0-1-1c2-3 4-9 7-6a8 8 0 0 1 0 13v1c8-1 6-11 2-15h-1c1-3 1-6 3-7 3-2 6-1 8 1 5 4 5 11 2 17l1 1c2-4 4-8 3-12a14 14 0 0 0-7-9c-6-3-10 3-10 8-5-2-6 4-8 8a5 5 0 0 0-5 0c-2 1-3 4-1 6v-1zm32 54c-2-4-5-9-4-14s5-8 7-12c6-10 0-19-6-27 2 5 6 9 7 15s-2 12-5 17c-3 3-5 6-5 10 0 5 2 9 5 12 3 5 7 10 6 17-1 5-6 9-12 11-12 4-23-4-29-15a1 1 0 0 0-1 1c3 8 11 15 20 16 7 1 16-1 21-8 5-8 1-16-4-23zm-44 0v-8c0-6-4-11-1-17l-2-1c-3 6 0 12 1 18l1 9 5 12h1c-2-4-5-9-5-13z" fill="url(#Sfumatura_senza_nome_153-2)"/><path d="M298 533c-5 9-12 17-13 27 2-10 8-18 13-27z" fill="url(#Sfumatura_senza_nome_153-3)"/><path class="cls-18" d="M245 303l-9 10-16 19c-7-4-14-8-20-14l-1-1c-2 8-4 16-3 24l2 17 2 15c7 18-24 42-39 45s-36-2-50-8a55 55 0 0 1-14-10l-4-5c13-19 7-44 5-65-1-23-5-53 7-74 11-18 27-27 45-32l3-1 30 31 14-3c12 7 17 23 25 33 6 8 14 14 23 19z"/><path d="M208 280c-3-7-5-12-3-15a74 74 0 0 0-5-12 27 27 0 0 0-3-2l-14 3-22-23c-19 6-34 31-34 62 0 36 19 64 41 64 11 0 21-7 28-17 0-8 1-15 3-23l1 1a46 46 0 0 0 5 4 93 93 0 0 0 4-29 98 98 0 0 0-1-13z" fill="url(#Sfumatura_senza_nome_45)"/><path d="M245 303c-9-5-17-11-23-19l-14-21a4 4 0 0 0-2 1 3 3 0 0 0-1 1 88 88 0 0 1 3 16 98 98 0 0 0 12 17 95 95 0 0 0 16 15z" fill="url(#Sfumatura_senza_nome_45-2)"/><path class="cls-21" d="M198 358l-15-6-37-32c-2-3-13-50-13-61s12-15 12-15l5-20c-18 5-34 14-45 32-12 21-8 51-7 74 2 21 8 46-5 65l4 5a55 55 0 0 0 14 10c14 6 35 12 50 8 15-3 46-27 39-45zm37-59s-14 4-18 1-16-21-16-21c2 15 0 31-1 39 6 6 13 10 20 14l16-19-1-14z"/><path class="cls-21" d="M181 251c0-7-4-16-8-17s-23-5-27-3a56 56 0 0 0-10 6v9s7 19 21 21l6 34h10l-6-35c10-2 14-10 14-15z"/><circle class="cls-22" cx="164" cy="276" r="4"/><circle class="cls-23" cx="164" cy="276" r="3"/><circle class="cls-22" cx="167" cy="291" r="4"/><circle class="cls-23" cx="167" cy="291" r="3"/><path d="M102 311l8 47c1 10 2 34 4 39s13 15 13 15-22-5-29-15a68 68 0 0 0 7-26l-3-60z" fill="url(#Sfumatura_senza_nome_7)"/><path class="cls-22" d="M190 380l-5-13-79-67s11 66 52 80c-3 4-15 20-12 28 3 9 6 12 6 12s20-2 22-8c2-5 4-27 4-31z"/><path class="cls-22" d="M200 374c2 6-2 14-6 19a70 70 0 0 1-19 17c-6 4-13 7-20 8-10 1-21-1-31-5-12-3-23-9-31-18 8-11 10-23 9-36l-3-38c-2-27-4-56 17-77 10-10 24-16 37-20a1 1 0 0 0 0-1c-24 6-46 20-54 45-3 13-3 27-3 40l3 40c2 15 3 33-6 47v-1l-1 1a62 62 0 0 0 28 19c10 4 22 7 33 6 17 0 32-12 42-24 5-7 8-15 5-23v1zm0-56c2-7 3-13 3-20 0-11-2-23-9-32 0-1 0 0 0 0 6 10 7 23 7 35-1 13-8 27-5 40h1c0-8 2-15 3-22a62 62 0 0 0 20 14 1 1 0 0 0 0-1c-6-5-14-8-20-14zm45-15c-11-8-21-17-28-28-5-9-10-19-20-24a1 1 0 0 0 0 1c9 7 14 18 20 27 7 11 17 18 28 24z"/><path d="M177 251c-22 25-39-2-35-24z" fill="url(#Sfumatura_senza_nome_118)"/><path d="M177 251c-7 8-18 14-27 5-7-8-9-19-7-29h-2c-2 10 1 23 9 30 9 9 20 3 27-6 1 0 0 0 0 0z" fill="url(#Sfumatura_senza_nome_153-4)"/><path class="cls-1" d="M229 264c8-4 18-2 26 1v1c-8-4-18-5-26-1v-1zM231 257c9-2 19 1 26 5v1c-7-5-17-7-25-6-1 1-1 0 0 0zM235 249c9 0 18 4 24 10v1c-6-6-16-10-24-10v-1zM302 445l4-20-14-26-9-15a207 207 0 0 1-20-20v1a24 24 0 0 0-5-2 18 18 0 0 0-3 0c-7 0-14 4-21 10a37 37 0 0 0-8 12 17 17 0 0 0 0 2 20 20 0 0 1-1 2h-3a19 19 0 0 1-12-4 49 49 0 0 0-11-6 82 82 0 0 0-9-4v-1a11 11 0 0 0-1-1c-1-2-3-4-6-5a7 7 0 0 0-1 0 9 9 0 0 0-4 2 10 10 0 0 0-1 1 4 4 0 0 1-2 0 16 16 0 0 1-1 1 7 7 0 0 0-5 1 9 9 0 0 0-2 3 11 11 0 0 1-1 2 4 4 0 0 1-1 0 6 6 0 0 0-1 1 13 13 0 0 0-3 11 10 10 0 0 0 5 7 13 13 0 0 0 6 1h5a14 14 0 0 1 5 1 127 127 0 0 1 21 10 35 35 0 0 1 6 4l3 3c3 2 8 5 13 5h2a17 17 0 0 0 3 0 11 11 0 0 0 2-1v-1 1a106 106 0 0 0 33 19 44 44 0 0 0 13 2 54 54 0 0 0 13-2c4 1 8 5 11 8v-2z"/><path class="cls-27" d="M306 425l-14-26-9-15a203 203 0 0 1-19-19v1a21 21 0 0 0-9-2c-12 0-26 14-29 27 0 0-10 1-16-4-3-3-8-5-12-7l-9-4s-4-11-13-3c0 0-6-2-9 6 0 0-6 3-4 12s13 4 16 5a125 125 0 0 1 31 15c5 6 14 11 23 6 0 0 20 19 40 21 7 1 14 0 21-2l-3 1c4 1 8 4 11 8l4-20z"/><path d="M264 365v1a21 21 0 0 0-9-2c-12 0-25 12-28 25 5 4 16 5 27 2 10-3 18-8 22-13l-12-13z" fill="url(#Sfumatura_senza_nome_59)"/><path class="cls-29" d="M208 385a45 45 0 0 0-4-3c-5 5-8 13-8 21l4 2c-1-7 2-17 8-20zM217 390a17 17 0 0 1-4-1c-4 5-8 12-9 18a29 29 0 0 1 5 3c-1-6 4-15 8-20zM286 397c0 13 4 26 6 39h2l-2 1 4-2c-2-13-6-25-6-38a2 2 0 1 0-4 0zM271 373a2 2 0 0 0 0 1c5 21 4 43-2 64a42 42 0 0 0 4 0c6-19 7-40 3-60l-5-5zM302 445l1-5a40 40 0 0 1-5 1 42 42 0 0 1 4 4zM255 364h-1a2 2 0 0 0 1 2c12 7 9 28 8 40l-6 27 4 2c2-11 5-21 6-32 2-12 3-29-6-38a19 19 0 0 0-6-1zM239 388c-2-4-6-9-4-14a39 39 0 0 0-4 6c1 5 5 11 6 17a51 51 0 0 1-1 23l4 3a55 55 0 0 0 2-21 45 45 0 0 0-3-14zM227 396c-7 4-10 12-10 21a21 21 0 0 0 4 2c0-8 2-16 8-20 3-1 1-5-2-3z"/><path class="cls-29" d="M247 366a29 29 0 0 0-4 2 69 69 0 0 0 4 14c2 7 4 13 4 21a69 69 0 0 1-3 26l4 2a71 71 0 0 0 4-25 69 69 0 0 0-3-20c-2-7-5-13-6-20zM264 365v1l3 2-3-3zM189 376s-4-11-13-3c0 0-6-2-9 6 0 0-6 3-4 12s13 4 16 5l10 4h2a2 2 0 0 0 0-1l-1-1c-2-9 9-16 9-16a2 2 0 0 0 1-1l-2-1-9-4zM283 384l-9-9a13 13 0 0 1 1 4c2 6 6 12 8 15a2 2 0 0 0 1-1 11 11 0 0 1 2-4l-3-5z"/><path class="cls-30" d="M189 376s-4-11-13-3c0 0-6-2-9 6 0 0-6 3-4 12s13 4 16 5l10 4-1-1c-3-11 10-19 10-19l-9-4zM283 384l-10-10a5 5 0 0 1 0 2l1 3 8 13a14 14 0 0 1 3-5l-2-3z"/><path class="cls-31" d="M190 394a10 10 0 0 0 0 4l1 1a2 2 0 0 1 0 1l5 3a34 34 0 0 1 0-6l-6-3zM291 430a40 40 0 0 1-6 1 34 34 0 0 1-10-1l-2 8h-2 2a49 49 0 0 0 19-2l-1-6zM263 426l-2 9a54 54 0 0 0 8 3l2-9a56 56 0 0 1-8-3z"/><path class="cls-31" d="M306 426l-1-3a47 47 0 0 1-10 6l1 6-4 2h-1a15 15 0 0 1 7 4 40 40 0 0 0 5-1l3-14zM252 431l5 2 2-9-5-2a65 65 0 0 1-2 9zM200 399a28 28 0 0 0 0 6l4 2a26 26 0 0 1 2-5l-6-3zM242 413a55 55 0 0 1-2 10l8 6a61 61 0 0 0 2-10l-8-6zM209 410v1a27 27 0 0 0 8 6 32 32 0 0 1 1-7 46 46 0 0 1-9-5 18 18 0 0 0 0 5zM224 411a12 12 0 0 1-2 0 27 27 0 0 0-1 8 15 15 0 0 0 12-2l3 3a50 50 0 0 0 2-9 17 17 0 0 0-2-1c-4-1-8 1-12 1zM237 421l-1-1zM221 419zM252 431l-1-1z"/><path class="cls-32" d="M190 398a10 10 0 0 1 0-4l-2-1a12 12 0 0 0 0 6l1 1h2a2 2 0 0 0 0-1l-1-1zM196 397a34 34 0 0 0 0 6l4 2a28 28 0 0 1 0-6l-4-2zM302 445l1-5a40 40 0 0 1-5 1 42 42 0 0 1 4 4zM269 438h4l2-8-4-1-2 9zM291 430l1 6h2l-2 1 4-2-1-6-4 1zM257 433l2 1 2 1 2-9-4-2-2 9zM207 403l-1-1a26 26 0 0 0-2 5l2 1 1 1 1 1h1a18 18 0 0 1 0-5l-2-2zM218 410a32 32 0 0 0-1 7h1l1 1a20 20 0 0 0 2 0 27 27 0 0 1 1-7 16 16 0 0 1-4-1zM248 429l4 2a65 65 0 0 0 2-9l-4-3a61 61 0 0 1-2 10zM236 420l1 1h1l2 2a55 55 0 0 0 2-10 21 21 0 0 0-4-2 50 50 0 0 1-2 9z"/><path class="cls-33" d="M173 381c0-2-2-5-4-5a15 15 0 0 0-2 3 7 7 0 0 0-1 1h2a7 7 0 0 1 5 1zM181 377a10 10 0 0 0-2-6 13 13 0 0 0-3 2 7 7 0 0 1 2 0c1 1 3 2 3 4zM188 393l-2-1a29 29 0 0 0-13-2c-4 0-9-1-9-6v-2a11 11 0 0 0-1 9c2 8 13 4 16 5l10 4-1-1a12 12 0 0 1 0-6z"/><path class="cls-34" d="M275 378a16 16 0 0 0-2-4 16 16 0 0 1 2 4c0 1 0 1 0 0zM302 445v-1c-3-3-6-6-10-7h2a82 82 0 0 0 10-4l1-2c-10 5-21 7-31 7-15-2-30-11-41-21a1 1 0 0 0-1-1c-5 3-10 2-15 0l-8-7-14-7c-5-2-9-5-14-6l-10-1c-3-1-6-2-7-6a9 9 0 0 1 2-7c4-3 8-2 10 3-1-4-5-7-8-6l3-4a4 4 0 0 1 3-1c3-1 7 2 7 5h1a7 7 0 0 0-5-6 6 6 0 0 1 1-1 7 7 0 0 1 5-1c3 1 4 3 5 5s4 2 6 3a92 92 0 0 1 10 4l8 6c4 2 10 3 14 2h1c2-12 11-22 22-26a22 22 0 0 1 18 3 24 24 0 0 0-10-4c-8-1-16 4-22 10a36 36 0 0 0-8 12l-1 4-4 1a20 20 0 0 1-13-5 48 48 0 0 0-10-6 81 81 0 0 0-9-4l-2-3a8 8 0 0 0-5-3 8 8 0 0 0-4 1l-3 1c-3 1-4 0-6 2-2 1-2 3-3 5l-2 1c-4 4-4 14 2 16 3 2 6 1 9 1a14 14 0 0 1 6 1 127 127 0 0 1 22 10l9 7c4 3 9 5 14 5a16 16 0 0 0 3-1l2-1 1 1a108 108 0 0 0 32 19c9 2 17 2 26 0 5 1 8 4 11 8z"/><path class="cls-1" d="M281 301l-11-7a47 47 0 0 0-9-1 73 73 0 0 0-10 0c-6 1-21 3-30 11a8 8 0 0 0-1 0c-5 0-9 4-10 8s0 8 3 10a10 10 0 0 0 0 2c1 1 3 5 6 5a3 3 0 0 0 1 0 7 7 0 0 0 2 1 9 9 0 0 0 4 1 10 10 0 0 0 10-9 2 2 0 0 0 1 0 36 36 0 0 1 19-8l4-1a40 40 0 0 0 8-1l13-11z"/><path class="cls-27" d="M281 302l-9 7c-5 4-13 2-19 3s-13 4-17 8v1-1l-1 2c0 4-5 8-9 7a5 5 0 0 1-5-2c-2 2-6-2-6-6-8-4-2-16 6-15a36 36 0 0 1 3-2 45 45 0 0 1 9-4 73 73 0 0 1 7-3 81 81 0 0 1 12-2h5a57 57 0 0 1 8 0 44 44 0 0 1 5 1 27 27 0 0 1 11 6z"/><path class="cls-30" d="M236 320v1l-1-1v2c0 4-5 8-9 7a5 5 0 0 1-5-2c-2 2-6-2-6-6h-1c-7-4-1-16 7-15h-1a36 36 0 0 1 4-2 10 10 0 0 1 7 7 17 17 0 0 0 5 9z"/><path class="cls-31" d="M247 311a34 34 0 0 0-13 7 16 16 0 0 0 2 2c4-4 11-6 17-8 6-1 14 0 19-3l-8 1a57 57 0 0 0-17 1z"/><path class="cls-33" d="M214 321h1c0 4 4 8 6 6a5 5 0 0 0 5 2c4 1 9-3 9-7v-2l1 1v-1a16 16 0 0 1-2-2l-1 1-5 6c-2 2-6 2-7-1 0-2 2-3 3-5-3 0-8 5-9-1v1a9 9 0 0 1 2-4c-1 1-6 1-5-2h-1a7 7 0 0 0 3 8z"/><path class="cls-29" d="M233 300l-6 2c4 1 6 5 7 10 1 3 5 2 5-1a18 18 0 0 0-6-11zm12-4l-5 1c3 3 4 6 4 10 1 3 5 3 5 0a20 20 0 0 0-4-11zm7-1c2 3 2 6 2 10-1 3 4 3 4 0a19 19 0 0 0-1-10h-5zm18 1a44 44 0 0 0-5-1 15 15 0 0 1 0 9c-1 2 3 4 4 1a21 21 0 0 0 1-9z"/><path class="cls-34" d="M272 309c-6 3-13 2-20 3-6 1-12 4-17 8a1 1 0 0 0 1 1 37 37 0 0 1 20-9c6 0 11 0 16-3zm10-8c-8-7-21-7-31-6s-22 4-30 10c-8-1-15 11-7 16a9 9 0 0 0 0 2c1 2 4 6 7 4a6 6 0 0 0 2 2c5 3 12-2 12-7v-1c-1 5-6 9-11 7-4-1-3-6 0-9-2 1-4 3-4 5a5 5 0 0 0 0 3c-2 1-4-3-4-5-1-4 0-7 4-8v-1c-4 1-6 4-6 8-3-3-3-7-1-10a8 8 0 0 1 9-4l1-1a8 8 0 0 0-2 0c18-10 42-16 60-4l1-1z"/><path class="cls-1" d="M426 473a8 8 0 0 0-6-3 9 9 0 0 0-2 1c-4 0-7 4-9 7l-3 2-8 8a34 34 0 0 1-17 5 36 36 0 0 1-18-5c-9-6-15-15-21-24-6-8-11-17-20-23a63 63 0 0 0 19-22 157 157 0 0 0 10-29c2-7 4-13 4-20 1-18 0-35-4-49a30 30 0 0 0-3-8 2 2 0 0 0-1 0v-6a1 1 0 0 0 0-1l-4-3a37 37 0 0 1 0-7v-5c4-2 8-7 11-13a66 66 0 0 0 6-21l4-6v-1c1-3 5-10 1-13a5 5 0 0 0-3-1 19 19 0 0 0-3 0 50 50 0 0 0-11 3 82 82 0 0 0-16 8l-9-9-2-2c1-6-1-13-2-19l-1-2c2-3 4-7 4-11a2 2 0 0 0-1-1 6 6 0 0 0-2-1c-3 0-5 2-7 3a61 61 0 0 0-9 6 44 44 0 0 0-13 18 51 51 0 0 0-10 1c-6 2-15 5-18 14a13 13 0 0 0-3-1 18 18 0 0 0-4 1c-5 1-9 4-11 8a21 21 0 0 0-2 11c0 4 1 7 4 9a18 18 0 0 0 3 8 15 15 0 0 0 6 12 12 12 0 0 0 6 3 19 19 0 0 0 4 11 1 1 0 0 0 1 1 2 2 0 0 0 1-1l12 2-6 7-5 20-4 39-3 8a28 28 0 0 0-6-2 21 21 0 0 0-3 0c-8 0-16 3-22 10a37 37 0 0 0-9 12 16 16 0 0 0-1 2 19 19 0 0 1 0 2 5 5 0 0 1-1 0h-3a22 22 0 0 1-13-4 54 54 0 0 0-12-6 93 93 0 0 0-9-4l-1-1a11 11 0 0 0-1-1 10 10 0 0 0-6-5 8 8 0 0 0-1 0 10 10 0 0 0-5 2 11 11 0 0 0-1 1 4 4 0 0 1-2 0 18 18 0 0 1-1 0 8 8 0 0 0-5 2 9 9 0 0 0-3 3 11 11 0 0 1-1 2 4 4 0 0 1-1 0 7 7 0 0 0-1 1 12 12 0 0 0-3 11 10 10 0 0 0 6 7 15 15 0 0 0 6 1h5a17 17 0 0 1 5 1l24 10a37 37 0 0 1 5 4l4 3a25 25 0 0 0 15 5h1a19 19 0 0 0 3-1 13 13 0 0 0 2 0l1-1v1a119 119 0 0 0 35 19 52 52 0 0 0 14 2 63 63 0 0 0 15-2c5 1 10 6 14 10v1l14 16c8 9 17 19 29 25 9 5 20 7 33 7h2c12 0 23-2 31-6 9-6 15-15 16-24 0-4-1-9-4-12z"/><path class="cls-27" d="M417 504a33 33 0 0 1-5 3c-13 7-31 7-44 6-16-3-30-11-41-23l-18-22c-5-5-12-13-19-14l4-1c-8 2-15 3-23 2-22-2-44-21-44-21-9 5-19 0-25-6-3-4-14-8-22-11l-11-4c-3-1-14 3-17-5s4-12 4-12c4-8 10-6 10-6 10-8 14 3 14 3l10 4c5 2 10 4 13 7 6 5 18 4 18 4 2-14 17-27 31-27a24 24 0 0 1 9 2h1l3-9 4-39 2-10 3-10 11-11 52-4 9 7 1 7c6 10 7 51 6 61s-9 37-19 52c-4 6-11 12-20 17l5-2c22 12 25 44 52 51 9 3 22 1 30-5h1c5-4 12-18 19-15 9 3 10 20-4 31z"/><path d="M251 408c16-4 28-14 26-22-1-5-6-8-14-8l-1 5h-1a24 24 0 0 0-9-2c-13 0-28 12-31 25 6 4 17 5 30 2z" fill="url(#Sfumatura_senza_nome_59-2)"/><path class="cls-29" d="M200 402a50 50 0 0 0-4-3c-5 5-9 13-9 21l5 2c-1-7 2-17 8-20zm138 18l2-4c-7-3-14-7-18-14-2-2-6 0-4 2 5 8 12 13 20 16zm-127-13a20 20 0 0 1-5-1c-4 5-8 12-9 18a31 31 0 0 1 5 3c-1-7 4-15 9-20zm117 27l3-4a31 31 0 0 1-7-5 47 47 0 0 1-10-14c-1-2-5 0-4 3 3 7 10 16 18 20zm-106-22c-8 5-11 13-11 22a24 24 0 0 0 4 1c0-7 3-15 9-19 3-1 0-5-2-4zm12-7c-2-4-6-9-4-14a40 40 0 0 0-4 6c1 5 5 11 6 17a47 47 0 0 1-1 23l4 3a51 51 0 0 0 2-21 42 42 0 0 0-3-14zm104-56c-3-1-5 3-3 4 6 4 12 4 18 4v-5c-5 1-11 0-15-3zm-4-6a120 120 0 0 0 18-2v-4a118 118 0 0 1-18 1c-3 0-3 5 0 5zm-2-12c6 0 12-2 18-4v-4c-6 1-12 4-18 4-3 0-3 4 0 4zm9 73l3 1 2-4-4-1c-5-2-11-5-14-10-1-2-5 0-4 2 4 6 11 10 17 12zm-7-36c5 5 11 7 18 9l1-2v-3c-6-1-12-3-16-7-2-2-6 1-3 3zm-2-46c4-3 9-6 15-7v-1l-1-4c-6 2-12 5-17 9-2 2 1 5 3 3zm-4 59a61 61 0 0 0 19 10h2l1-4-3-1a55 55 0 0 1-16-9c-2-1-5 2-3 4zm-85 2a33 33 0 0 0-4 2 65 65 0 0 0 4 14l5 21a64 64 0 0 1-4 26l4 2a66 66 0 0 0 5-25 64 64 0 0 0-4-20c-2-7-5-13-6-20zm100 86l-3-4c-1 4-6 9-8 11s-7 6-11 7l3 3c4-1 8-4 11-7a37 37 0 0 0 8-10zm4 6a23 23 0 0 1-13 22l4 3a28 28 0 0 0 13-20l-4-5zm2 32l4 2a30 30 0 0 0 8-20 39 39 0 0 1-5-4c1 8-2 17-7 22zm-91-125a22 22 0 0 0-6-1h-2a2 2 0 0 0 1 2c14 7 11 28 9 40l-6 27 4 2 7-32c2-12 3-29-7-38zm107 109c2 6 2 15-1 21l4 1c3-6 4-14 2-20a36 36 0 0 1-5-2zm-30-34l-4-4c-1 5-6 9-10 13l-10 5 4 4a33 33 0 0 0 8-5c5-3 9-8 12-13zm-50-43c0 13 5 26 7 39h2l-2 1 4-2c-2-13-6-25-6-38 0-3-5-3-5 0zm-16-23c5 21 5 43-3 64h5c7-21 8-43 3-65-1-3-5-2-5 1zm43 54c-4-11-9-22-10-34-1-3-5-2-5 1 2 12 7 23 11 35l4-2zm14 2a43 43 0 0 0-4-3c-5 8-14 12-24 14a44 44 0 0 1 5 4c9-3 18-8 23-15zm54 47s3 13 0 19h4s3-11 0-19zm22 17s-1-14-7-19l-3 2s7 9 5 18z"/><path class="cls-29" d="M300 328c-6-4-12-6-17-6h-5a32 32 0 0 0-6 1l-1 2-2 11-4 38-3 9c3 2 10 7 12 13 1 6 6 12 8 15a2 2 0 0 0 1-1c0-1 2-4 4-4 18-6 25-19 27-28 6-22-9-46-14-50zm-120 65s-4-11-14-3c0 0-6-2-10 6 0 0-6 3-4 12s14 4 17 5l11 4h2a2 2 0 0 0 0-1v-1c-3-9 9-16 9-16a2 2 0 0 0 1-2h-2l-10-4zm241 80c-7-3-14 11-19 15h-1l-2 2a2 2 0 0 0 1 1c1 0 11 4 10 16a2 2 0 0 0 0 1l2-1a33 33 0 0 0 5-3c14-11 13-28 4-31z"/><path class="cls-30" d="M180 393s-4-11-14-3c0 0-6-2-10 6 0 0-6 3-4 12s14 4 17 5a143 143 0 0 1 11 3c-4-11 10-19 10-19l-10-4zm118-63c-5-4-11-6-16-6l-11 1-2 11-4 38-3 9c3 2 9 7 10 10l1 3 8 13s2-4 5-5 21-6 26-26-8-45-14-48zm123 143c-7-3-14 11-19 15h-1v1s12 4 11 18a33 33 0 0 0 5-3c14-11 13-28 4-31z"/><path class="cls-31" d="M346 401l3-10h-2a61 61 0 0 1-10-5l-2 9v1a51 51 0 0 0 7 4l4 1zm-6 15zm0 0l4-11-3-1a57 57 0 0 1-7-4 104 104 0 0 1-4 11 44 44 0 0 0 10 5zm6-15zm-154 15a25 25 0 0 0 0 6l5 2a24 24 0 0 1 1-5l-6-3zm-11-5a9 9 0 0 0 1 4v1a2 2 0 0 1 0 1l5 3a31 31 0 0 1 1-6l-7-3zm129-22c4-2 9-4 13-8a35 35 0 0 0 5-8c1-2 5-8 4-11l-18-7a49 49 0 0 1 0 23 38 38 0 0 1-4 11zm13 35l1 1a31 31 0 0 0 7 5l3-3a68 68 0 0 0 4-7 49 49 0 0 1-10-5 63 63 0 0 1-5 9zm30-72l-1-11-9 1-1 3a29 29 0 0 0-2 6 24 24 0 0 0 13 1zm-151 75v1a29 29 0 0 0 9 6 29 29 0 0 1 0-7 50 50 0 0 1-9-5 17 17 0 0 0 0 5zm151-55v0zm0-16v0zm-2-25c-3-1-6 1-7 4a8 8 0 0 0-1 3l9-1-1-6zm-10 37a37 37 0 0 0 12 4v-15a29 29 0 0 1-13-2l2 9-1 4zm9 19v0zm0 0l2-10a44 44 0 0 1-12-4l-1 6-1 3a60 60 0 0 0 9 4l3 1zm2-11v1zm-3 15zm-7 100a105 105 0 0 1-10-9 29 29 0 0 1-8 4l-3-3 8-5a53 53 0 0 1-4-5l-2-3a32 32 0 0 1-8 5l13 15a80 80 0 0 0 6 7 23 23 0 0 0 8-6zm-8 6zm15 10zm-44-55l17-8-3-2-4 2a75 75 0 0 0 13-10 35 35 0 0 1-8-6 61 61 0 0 1-10 10l2 7-4 2-2-7a52 52 0 0 1-11 5l1 7-4 1-2 1a17 17 0 0 1 8 4 45 45 0 0 0 10-3l-3-3zm15 15a99 99 0 0 0-8-9 49 49 0 0 1-9 4l6 6 3 3a24 24 0 0 0 8-4zm90 40a16 16 0 0 0-1-7 55 55 0 0 1-8 3 54 54 0 0 1 1 8l-5 1a19 19 0 0 0 0-8 79 79 0 0 1-12 2 57 57 0 0 1-1 7h-4a14 14 0 0 0 1-6h-3a34 34 0 0 1-8-1 24 24 0 0 1-2 7c13 1 30 1 42-5a2 2 0 0 1 0-1zm-178-69l-1-1zm106 62zm16 0a87 87 0 0 1-9-6 27 27 0 0 1-7 6 66 66 0 0 0 11 7 21 21 0 0 0 5-8zm-1 9a61 61 0 0 0 11 3 18 18 0 0 0 2-7 55 55 0 0 1-8-3 27 27 0 0 1-5 7zm-116-79a51 51 0 0 1-2 10l9 6a57 57 0 0 0 3-10h-1l-9-6zm-6-3c-4-1-8 1-12 1a15 15 0 0 1-3 0 25 25 0 0 0-1 7 18 18 0 0 0 12-1l4 3a47 47 0 0 0 2-9l-2-1zm-16 8zm77 18l-2-6a47 47 0 0 1-5 1 40 40 0 0 1-11-1l-3 8h-2 2c8 1 15 0 23-2h-2zm-32-10l-2 9a63 63 0 0 0 9 3l2-9a64 64 0 0 1-9-3zm-12 5l-1-1zm0 0l6 2 2-9-5-2a61 61 0 0 1-3 9zm55-116a13 13 0 0 0 1-8l-13-1v1a36 36 0 0 1 9 4 19 19 0 0 1 3 4z"/><path class="cls-32" d="M364 512h1l3 1a24 24 0 0 0 2-7 43 43 0 0 1-4-1 18 18 0 0 1-2 7zm-58-72l2 7 4-2-2-7-4 2zm22-6l2-2 1-2a31 31 0 0 1-7-5l-1-1-1 1-2 3a35 35 0 0 0 8 6zm-61 21h4l2-8-4-1-2 9zm-23-9l4 2a61 61 0 0 0 3-9l-4-3a57 57 0 0 1-3 10zm46 1l2 6h2l-2 1 4-2-1-6-5 1zm-36 3l2 1 2 1 2-9-4-2-2 9zm67 33l3 3a29 29 0 0 0 8-4l-3-4-8 5zm-1-16a24 24 0 0 1-8 4l3 4a32 32 0 0 0 8-5l-3-3zm29 40l4 2a27 27 0 0 0 5-7l-4-2a21 21 0 0 1-5 7zm-41-52a45 45 0 0 1-10 3 44 44 0 0 1 5 4 49 49 0 0 0 9-4l-4-3zm26 42l4 3a27 27 0 0 0 7-6l-4-3a23 23 0 0 1-7 6zm4-77l2-4a44 44 0 0 1-10-5l-2 4a49 49 0 0 0 10 5zm14-79v-4l-9 1a19 19 0 0 1 0 2 12 12 0 0 1 0 2l9-1zm28 172h4a57 57 0 0 0 1-7l-4 1a14 14 0 0 1-1 6zm-40-140a44 44 0 0 0 12 4v-1l1-1v-1-1-1a37 37 0 0 1-12-4l-1 5zm13-16v-2-3a24 24 0 0 1-13-1 32 32 0 0 0 0 5 29 29 0 0 0 13 1zm-153 63l-2-1a24 24 0 0 0-1 5l1 1 1 1 1 1h2a17 17 0 0 1 0-6l-2-1zm-12-6a31 31 0 0 0-1 6l5 2a25 25 0 0 1 0-6l-4-2zm23 13a29 29 0 0 0 0 7h1l1 1a23 23 0 0 0 2 0 25 25 0 0 1 1-7 18 18 0 0 1-5-1zm124-31l-1 4a57 57 0 0 0 7 4l3 1 2-4-4-1a51 51 0 0 1-7-4zm62 108a19 19 0 0 1 0 8l5-1a54 54 0 0 0-1-8l-4 1zm-166-67l1 1h1l2 2a51 51 0 0 0 2-10 23 23 0 0 0-4-2 47 47 0 0 1-2 9zm118-48h1v-2l-3-1a60 60 0 0 1-9-4l-1 4a61 61 0 0 0 10 5h2v-2zm62 110l-2 1a16 16 0 0 1 1 7 2 2 0 0 0 0 1l2-1a19 19 0 0 0-1-8zM304 393l3-2a25 25 0 0 1 3-2 38 38 0 0 0 4-11 49 49 0 0 0 0-23l-3-1c2 8 3 16 1 23a35 35 0 0 1-8 16zm-2-59a11 11 0 0 0 1-2 19 19 0 0 0-3-4 36 36 0 0 0-9-5 13 13 0 0 0-3 2 32 32 0 0 1 10 5 19 19 0 0 1 4 4zm-120 81a9 9 0 0 1-1-4l-2-1a11 11 0 0 0 1 6v1h2a2 2 0 0 0 0-1v-1z"/><path class="cls-33" d="M172 394a9 9 0 0 0-2-6 14 14 0 0 0-3 2 8 8 0 0 1 1 0l4 4zm116-52c4 1 9-2 12-5a12 12 0 0 0 2-3 19 19 0 0 0-4-4 32 32 0 0 0-10-5c-4 2-7 7-6 11a8 8 0 0 0 6 6zm-125 56c0-2-2-5-5-5a15 15 0 0 0-2 3 7 7 0 0 0-1 1h2a8 8 0 0 1 6 1zm16 12l-2-1a34 34 0 0 0-14-2c-4 0-9-1-10-6v-2c-1 2-2 5-1 9 3 8 14 4 17 5a143 143 0 0 1 11 3 11 11 0 0 1-1-6zm247 66l-1 1c0 10-6 17-14 22a19 19 0 0 1 1 9 33 33 0 0 0 5-4c11-9 13-22 9-28zM300 350c-11 0-24 2-34 8l-1 16-3 9 1 1 2 1a43 43 0 0 1 5 4l1 1 3 2c10 5 21 7 30 1a35 35 0 0 0 8-15c2-8 1-16-1-24z"/><path class="cls-34" d="M419 472c-4 0-7 4-10 6l-10 11c-11 6-26 6-37 0-19-11-23-36-42-48a62 62 0 0 0 20-22 156 156 0 0 0 10-30c2-6 4-12 4-19 1-16 0-33-4-48a28 28 0 0 0-3-8 1 1 0 0 0-1 1c3 4 3 11 4 16a229 229 0 0 1 2 24 153 153 0 0 1 0 17l-4 18c-4 16-10 34-23 45a76 76 0 0 1-53 19c-16-1-32-10-44-21a1 1 0 0 0-1 0 19 19 0 0 1-17 0l-8-7-15-8c-5-3-10-4-16-5-3-2-7-1-11-1s-6-2-7-6a8 8 0 0 1 2-7c4-3 9-2 11 3-1-4-5-7-9-6l4-4a5 5 0 0 1 2-1 1 1 0 0 0 1 0c3-1 7 1 8 5a7 7 0 0 0-4-6 7 7 0 0 1 0-1 8 8 0 0 1 6-1c2 0 4 2 5 4s4 3 6 4a104 104 0 0 1 11 4l9 6c4 2 10 3 16 2 2-12 13-22 24-26 10-3 25 2 28 13-2-8-11-13-19-14-9-1-18 4-24 10a36 36 0 0 0-8 12l-2 4h-4a23 23 0 0 1-14-5 54 54 0 0 0-11-6 92 92 0 0 0-10-3l-2-3a8 8 0 0 0-10-3l-3 2c-3 1-5 0-7 2-2 1-2 3-3 5l-2 1c-5 4-4 14 2 16l10 1a16 16 0 0 1 7 1 143 143 0 0 1 23 10l10 7c4 3 9 5 15 5a18 18 0 0 0 3-1l3-1 1 1a114 114 0 0 0 35 19c9 2 19 2 28 0 6 1 11 6 15 11l14 16c8 10 17 19 28 25 11 5 22 7 33 7s23-1 32-6c8-5 15-13 15-23 1-6-2-15-9-13zm-2 31c-9 7-21 9-32 10-12 0-24-1-35-7-13-6-22-16-31-27a216 216 0 0 0-14-16c-4-4-8-7-13-9h2a86 86 0 0 0 25-12c16 10 21 29 34 42a38 38 0 0 0 23 11c10 1 21-1 28-8 4-5 14-21 21-11 6 9-1 21-8 27z"/><path class="cls-1" d="M372 333a12 12 0 0 0 5 1 12 12 0 0 0 9-4 14 14 0 0 0 4-10c-1-11-8-16-21-16a46 46 0 0 0-17 3v-1c0-3 3-4 7-5l7-3c5-4 8-12 8-18-1-6-4-11-9-14a11 11 0 0 0-6-2 12 12 0 0 0-2 1l-8-8a1 1 0 0 0-1 0 71 71 0 0 0-10 14c-3 4-9 19-9 25 0 4 0 11 5 11l5-3a12 12 0 0 1 1-1v1a6 6 0 0 1 2 0l6 8v5c6 0 11 4 13 6a43 43 0 0 1 4 3l7 7z"/><path class="cls-36" d="M385 328a10 10 0 0 1-7 3c-7 1-11-6-15-9-4-4-13-9-18-6l1-2a9 9 0 0 1-2 1 32 32 0 0 0-1-5l-1-5-1-3h-1l-4-4 2-16 13-12a13 13 0 0 1 6-3c9-3 16 8 14 18a24 24 0 0 1-4 10 17 17 0 0 1-3 3c-4 3-14 1-13 8h-1a8 8 0 0 1 0 1 8 8 0 0 1 0 4l1-2a45 45 0 0 1 13-4c10-1 21 2 23 11a13 13 0 0 1-2 12z"/><path class="cls-37" d="M370 308l13 6s-3-7-13-6zM362 270s10 3 5 16c0 0-2-10-5-16z"/><path class="cls-38" d="M378 332a10 10 0 0 0 7-4 2 2 0 0 0-1 0c-4 1-3-5-1-7s-1-6-2-4-4 1-8-2l-10-6c-1-1 1-3 1-4a45 45 0 0 0-13 4l-1 1a8 8 0 0 0 0-3v-1 1a8 8 0 0 0 0-2l1 1c-1-7 9-6 13-8a17 17 0 0 0 3-3c-5 1-11-2-9-9 3-7 0-19 0-19l-10-9a71 71 0 0 0-9 13c-3 5-9 19-9 25s1 15 9 7a12 12 0 0 1 1-1c5-3 7 0 9 2l-2 4c-2 0-4-2-5-3l1 5a32 32 0 0 1 1 5 9 9 0 0 0 2-1l-1 2c5-3 14 2 18 5 4 4 8 11 15 11z"/><path class="cls-39" d="M373 332c8 3 16-4 16-12-1-19-26-17-38-12v1c7-3 15-4 22-3 9 1 16 8 14 17-2 5-7 9-12 7-5-1-8-6-11-9-4-3-11-7-17-6a8 8 0 0 0 3-5 1 1 0 0 0 1 0 34 34 0 0 1 20 6c2 2 6 5 9 3-4 2-10-4-13-6a36 36 0 0 0-16-4 9 9 0 0 0 0-3c0-7 10-5 14-9 5-4 8-10 8-17-1-5-4-10-8-13-5-3-11-1-15 3l1 1c6-5 13-5 17 1s3 13 0 19c-1 3-3 6-6 7l-6 2c-3 1-5 2-6 5a7 7 0 0 0-2-3c3-9 13-17 8-27 3 11-6 17-9 26a7 7 0 0 0-6 0v1c4-2 7 0 8 4s-1 6-5 8l-1-4a18 18 0 0 1 1 5 1 1 0 0 0 0 1h1c6-2 13 2 17 6 4 3 6 8 11 10z"/><path class="cls-1" d="M402 504c0-4 0-12-4-14 4-6 8-14 1-19a8 8 0 0 0-5-2c-4 0-7 3-10 6l-2 1a17 17 0 0 0-8-2c-3 0-6 1-7 3-2 5 2 9 5 11a7 7 0 0 0-4 4 1 1 0 0 0 0 2 1 1 0 0 0 1 0 3 3 0 0 1 2 0 8 8 0 0 0 1 1 1 1 0 0 0 1-1c3 5 3 13 0 18h-1-2a1 1 0 0 0-1 2 5 5 0 0 0 1 3 7 7 0 0 0 5 2c-1 4 0 7 1 10 2 3 4 4 6 4 3 0 6-2 9-4a1 1 0 0 0 1 0 5 5 0 0 1 3-1 23 23 0 0 1 5 1 23 23 0 0 0 5 1c4 0 6-2 7-6 1-7-3-16-10-20z"/><path class="cls-36" d="M410 520c0 16-12 3-18 8v-2c-5 4-9 8-14 3-2-3-2-7-1-12-3 1-7 0-7-3h4c4-6 4-19-1-22l-1 2-3-1a5 5 0 0 1 3-3 6 6 0 0 1 4-1c-3-2-6-4-7-8a6 6 0 0 1 0-2c0-5 9-3 13-1 5-4 10-10 15-7a8 8 0 0 1 2 2c5 5 0 12-4 17l1 1c5 1 4 10 4 13v1c5 3 10 9 10 15z"/><path class="cls-37" d="M383 482s8-10 11-9-7 8-11 9zM395 506s16 9 11 14l-11-14z"/><ellipse class="cls-37" cx="389" cy="497" rx="3" ry="2"/><path class="cls-38" d="M410 520c0 1-2 3-4 3-3-2-6-6-12-5s-10 6-14 5c-2 0-2-6-2-8l5-9c-2-2-2-10-2-10 4-4 10 0 10 0a6 6 0 0 1 4 8l5 1v-1c0-3 1-12-4-13l-1-1c4-5 9-12 4-17a8 8 0 0 0-2-2c1 2 0 7-3 12s-11 7-16 4-9-8-9-8a6 6 0 0 0 0 2c1 4 4 6 7 8a6 6 0 0 0-4 1 5 5 0 0 0-3 3l3 1 1-2c5 3 5 16 1 22h-4c0 3 4 4 7 3-1 5-1 9 1 12 5 5 9 1 14-3v2c6-5 18 8 18-8z"/><path class="cls-39" d="M401 505a1 1 0 0 0 0-1c0-3 0-12-5-13 5-6 9-14 2-20-5-4-11 2-16 7-3-3-11-5-14-1s2 9 6 12a6 6 0 0 0-5 4l3 1-2-1a5 5 0 0 1 2-3 7 7 0 0 1 3 0l7 5h-1v1a28 28 0 0 0 1 10 1 1 0 0 0 1 0c-3 3-5 7-6 11-3 0-6 0-6-3h3a10 10 0 0 1-1 1h1c4-5 6-19-1-23 0-1 0 0 0 0 5 4 5 16 1 21h-4v1c0 3 4 4 7 4v10c4 7 10 3 14 0h1c5-5 16 6 19-4 1-7-4-16-10-19zm-1-1a12 12 0 0 0-5-1 5 5 0 0 0 1-5 7 7 0 0 0-3-3l3-4c4 4 3 8 4 13zm-10-6a6 6 0 0 0-3-4c4 1 8 3 7 7 0 2-2 2-4 2a6 6 0 0 1-1 0l-1-1 1-1a3 3 0 0 0 1-3zm-14-9c-3-2-7-5-7-9 0-6 8-3 12-1a14 14 0 0 1-3 2 13 13 0 0 0 4-2h1a1 1 0 0 0 0-1c4-4 9-9 13-6 6 2 5 9 2 13l-7 9a9 9 0 0 0-9 0l-6-5zm5 7a1 1 0 0 0 1 0h4a5 5 0 0 1 3 3c0 2-2 1-2 3a2 2 0 0 0 1 2 11 11 0 0 0-5 1 43 43 0 0 1-2-9zm26 31c-2 1-6 0-9-1a9 9 0 0 0-6 1 20 20 0 0 1 6-3v-1c-6 0-13 11-19 6-3-3-3-7-1-12a52 52 0 0 1 6-11c2-2 6 0 9-1 6-1 11 3 14 8 2 3 5 11 0 14z"/><path class="cls-27" d="M317 216c1 6 4 19 0 24l-7-1-10-1c-1-1-5-2-6-4l-5 3c3-10 7-18 14-24 4-3 13-11 17-9l-2 7-2 5h1z"/><path class="cls-31" d="M318 240l-8-1-5-7 8-19 5-2-2 5h1c1 6 4 19 1 24z"/><path class="cls-29" d="M316 216h1l-1 1c-3-4-10-4-13-4 4-3 13-11 17-9l-4 12z"/><path class="cls-29" d="M315 208s-10 17-13 26-8-2-8-2 4-14 21-24z"/><path class="cls-30" d="M299 236l-4-4c1-2 5-13 17-21a198 198 0 0 0-13 25z"/><path class="cls-34" d="M317 216c1 7 4 17 0 24l1 1c4-7 1-18-1-25 0-1 0-1 0 0zm3-12c-2-1-5 0-7 1a61 61 0 0 0-9 7 44 44 0 0 0-15 25h1l7-17a46 46 0 0 1 11-10c1-1 10-8 12-6l-2 6-3 8h1l5-14h-1z"/><path class="cls-40" d="M301 225a3 3 0 0 1 3-1 12 12 0 0 0-2 4 2 2 0 0 1 1 1 4 4 0 0 0-1 2 14 14 0 0 1-3 0 12 12 0 0 1-3-1l-1-4a2 2 0 0 1 2 2 13 13 0 0 0-2-5 4 4 0 0 1 4 1 11 11 0 0 1 4-4 10 10 0 0 0-2 5z"/><path class="cls-27" d="M296 230a3 3 0 0 0 0-2l-1-1q0-1 0 0a2 2 0 0 1 2 1v-1a15 15 0 0 0-1-3v-1c1-1 3 1 3 2v-1a12 12 0 0 1 4-3l-1-1a11 11 0 0 0-1 5 3 3 0 0 1 3 0v-1a14 14 0 0 0-3 4c2 0 1 2 1 3-1 0 0 1 0 0l1-2 1-1h-2l2-3v-1h-2c-1-1 1-3 1-4a15 15 0 0 0-3 2l-1 2-1-1a4 4 0 0 0-3-1v1a13 13 0 0 1 2 5v-1a3 3 0 0 0-2-1l-1 1a11 11 0 0 1 2 3z"/><path class="cls-27" d="M341 303l1 1-16 9-19 4-7-2-11-6-23-4c-2-3-4-8-4-11v-1c-7 0-12-7-11-14a17 17 0 0 1-3-7c-7-4-5-16-1-21a15 15 0 0 1 8-5 19 19 0 0 1 5-1 10 10 0 0 1 3 1v-1c4-10 12-12 22-14a58 58 0 0 1 14-1 26 26 0 0 1 6 1 10 10 0 0 1 2 1 23 23 0 0 1-2-4 30 30 0 0 0 4 3c0-3 1-6 3-8-1 14 18 17 21 29l-4 13a3 3 0 0 1 0 1l13 22c1 5-1 10-1 15z"/><path d="M270 249s9 1 17-7c0 0 5 0 4 3s-13 16-13 23-10-2-12-2-14-8-14-10l2-10s6-2 16 3z" fill="url(#Sfumatura_senza_nome_48)"/><path class="cls-29" d="M314 275c4-9 3-27-9-31-3 0-4 4-1 5 9 2 8 18 6 25-1 3 3 4 4 1zm28 15a3 3 0 0 0-3 0l-3-6a26 26 0 0 1-6-16l1-8v-3c-1-3-5-3-5 0v7a2 2 0 0 0-2 2l3 15c2 4 5 8 6 13a32 32 0 0 0-3-1 126 126 0 0 0-7-15c-1-2-5 0-4 3l6 11h-5a20 20 0 0 0-2-8c-2-3-6 0-4 2a14 14 0 0 1 1 6h-3a39 39 0 0 1-10-1l-13-8a36 36 0 0 1-9-11l-7-12c-2-2-5 1-3 3l7 13a38 38 0 0 0 8 9c6 6 13 10 21 11a76 76 0 0 0 9 0l-1 2c0 2 4 4 5 1v-3a65 65 0 0 1 8 1v2c1 3 5 1 4-1h2v1c-1 2 3 3 4 1l1 1a12 12 0 0 1-1 2 2 2 0 0 0 2 2l3-1-1-1 1-13zm-67-56a11 11 0 0 0-3 7c0 3 5 3 5 0 0-4 5-8 9-6a2 2 0 0 0 2 1 2 2 0 0 0 2-3 8 8 0 0 0-1-2h-4c-10 2-17 3-21 13a7 7 0 0 0 0 2c0 1 0 0 0 0a5 5 0 0 1 1-2 19 19 0 0 1 2 0 9 9 0 0 0-2-1 13 13 0 0 1 2-3 5 5 0 0 1 1 1h1a6 6 0 0 0-1-2l1-1 6-4zm21 8a17 17 0 0 1 9-3l2 1c7 3 11 9 13 16h1c0-6-3-12-8-16a14 14 0 0 0-1-1 29 29 0 0 1 7 3l5 12h1c0-3-1-7-3-10a37 37 0 0 1 10 11v-2c-1-6-5-10-10-14l-1-1c-5-4-9-8-9-15a18 18 0 0 0-2 3 13 13 0 0 0-1 5l-3-2a18 18 0 0 0 1 3h-1l1 1a1 1 0 0 0 2 0l1 1a23 23 0 0 0-7 0l-4-4h-2a53 53 0 0 0 3 5 20 20 0 0 0-6 3c-3 2 0 6 2 4zm16-7z"/><path class="cls-30" d="M286 232c-11-2-14 12-14 12h10c9-10 4-12 4-12zM313 278c4-14 0-29-8-30s-13 13-13 13l13 15z"/><path d="M341 303v-1c-7-10-23-4-38-8s-23-20-23-20c-4-19-19-22-19-22l-6-6a15 15 0 0 0-8 5 19 19 0 0 0-4 9c0 5 1 10 5 12a17 17 0 0 0 3 7 15 15 0 0 0 2 10 11 11 0 0 0 9 4v1c0 3 2 8 4 11l23 4 11 6 7 2 19-4 15-9h1l-1-1z" fill="url(#Sfumatura_senza_nome_64)"/><path class="cls-33" d="M337 304c-9 5-34 11-41 5s-24-8-24-8l-2-7 4-7c-11 7-21 1-21 1v1a11 11 0 0 0 9 4v1c0 3 1 8 4 11l23 4 11 6 7 2 19-4 15-9c0-1-1-2-4 0zm-59-27c-7 6-16 4-23 0s-7-16-7-16c-4 3-4 0-5-1 0 5 1 10 5 12a17 17 0 0 0 3 7c16 13 27-2 27-2z"/><path class="cls-34" d="M313 223l-1-1a17 17 0 0 0-3 8 34 34 0 0 1-3-2h-1a26 26 0 0 0 1 3h-1a30 30 0 0 0-8-1 54 54 0 0 0-17 1c-7 2-15 6-17 14h-1a14 14 0 0 0-7 0 15 15 0 0 0-10 7c-3 6-4 15 2 20a17 17 0 0 0 3 7 14 14 0 0 0 5 13 11 11 0 0 0 7 2c-1 4 1 8 3 11h1c-2-3-4-7-4-11a14 14 0 0 0 7-2v-1c-5 2-10 3-14-1-3-3-4-6-4-10a15 15 0 0 0 2 2c8 6 21 3 26-5-5 7-17 9-24 4-8-5-9-17-3-24l-1-1a18 18 0 0 0-4 15c-5-5-3-14 0-19 3-4 8-6 12-6s7 2 11 3v-1l-7-3c2-3 4-7 8-9 3-2 7-3 10-3a75 75 0 0 1 15-2 29 29 0 0 1 9 1l7 4v-1l-5-3-1-3 3 2a15 15 0 0 1 3-7c0 13 17 17 20 29l1-1c-3-12-21-15-20-29zm29 65c0 5-2 11-1 16h1v-16zm-53 20v1l11 7v-1l-11-7z"/><path class="cls-34" d="M253 255s-2-8 1-9 7 3 7 5-5 4-8 4z"/><path class="cls-29" d="M254 254v-8c2 0 4 2 5 3l1 2-6 3z"/><ellipse class="cls-30" cx="256" cy="248" rx="1" ry="2" transform="rotate(-52 256 248)"/><path class="cls-1" d="M292 260s7-9 13-5 8 15 6 21l2 2-5 1s-9 4-13 0-3-19-3-19zM282 244s5-4 3-8-10 1-11 2l-1-2s-3 9-1 11z"/><path class="cls-23" d="M308 277c2-4 1-15-3-19-5-4-10-1-14 3 0 0-6 8 0 15s17 1 17 1zM274 240c6-5 14-5 8 4 0 0-5 5-7 4-6-1-1-8-1-8z"/><ellipse cx="298" cy="265" rx="10" ry="8" transform="rotate(-49 298 265)" fill="url(#Sfumatura_senza_nome_4)"/><ellipse cx="298" cy="265" rx="8" ry="6" transform="rotate(-49 298 265)" fill="url(#Sfumatura_senza_nome_3)"/><ellipse class="cls-1" cx="296" cy="264" rx="4" ry="3" transform="rotate(-49 296 264)"/><ellipse class="cls-23" cx="300" cy="263" rx="2" ry="2" transform="rotate(-49 300 263)"/><ellipse cx="277" cy="242" rx="6" ry="3" transform="rotate(-45 277 242)" fill="url(#Sfumatura_senza_nome_4-2)"/><ellipse cx="277" cy="242" rx="5" ry="3" transform="rotate(-45 277 242)" fill="url(#Sfumatura_senza_nome_3-2)"/><ellipse class="cls-1" cx="277" cy="241" rx="3" ry="1" transform="rotate(-45 277 241)"/><ellipse class="cls-23" cx="279" cy="240" rx="1" ry="1" transform="rotate(-45 279 240)"/><path class="cls-1" d="M291 261c3-2 7-5 10-4s5 4 6 7a25 25 0 0 1 1 13h1c2-5 1-13-2-18a8 8 0 0 0-7-4c-3 0-6 3-9 5v1zM282 244c1-1 4-6 1-7-3-2-8 1-9 3v1c3-2 5-4 8-4 4 0 0 6-1 7h1z"/><path d="M307 317s26-7 34-17a11 11 0 0 1 1 8 61 61 0 0 1-30 13z" fill="#b11917"/><path d="M309 317c6-2 24-7 32-15a10 10 0 0 1 1 5 61 61 0 0 1-30 13z" fill="url(#Sfumatura_senza_nome_26)"/><path class="cls-27" d="M361 252l-2 5-1 1c-2 12-8 29-20 35v-1a13 13 0 0 0-3-6l-3-5a13 13 0 0 1-1-1 35 35 0 0 1-4-20v-1l1-7a5 5 0 0 0 1-1 70 70 0 0 1 15-8c7-4 16-6 19-5 4 1 2 7-2 14z"/><path class="cls-31" d="M361 252l-2 5-1 1c-2 12-8 29-20 35v-1a13 13 0 0 0-3-6c2-2 12-12 17-21l8-13h1z"/><path class="cls-29" d="M359 257l-1 1c-10-1-14-13-14-15 7-4 16-6 19-5 5 1 0 11-4 19z"/><path class="cls-29" d="M359 249a144 144 0 0 0-12 20c-2 5-11 10-15 12a13 13 0 0 1-1-1 38 38 0 0 1-2-4 35 35 0 0 1-1-5 33 33 0 0 1-1-7v-4-1c5-5 20-17 30-17a4 4 0 0 1 3 1c1 2 1 3-1 6z"/><path class="cls-30" d="M358 248l-12 21c-2 4-11 9-15 11a38 38 0 0 1-2-4 35 35 0 0 1-1-5 33 33 0 0 1-1-7v-4c4-3 20-18 30-17 0 0 5 0 1 5z"/><path class="cls-40" d="M335 270a6 6 0 0 1 2 4 10 10 0 0 0-5-1 5 5 0 0 1 0 3 4 4 0 0 0-3 0 35 35 0 0 1-1-5 33 33 0 0 1-1-7l3-4a6 6 0 0 1 0 4 21 21 0 0 0 5-6 10 10 0 0 1-1 7c3 0 5 2 7 3a8 8 0 0 0-6 2z"/><path class="cls-27" d="M327 264a3 3 0 0 0 1-1l1-1q1-2 1 0a6 6 0 0 1 0 2v1a22 22 0 0 0 3-4l2-2c1 1-1 6-1 6v1a11 11 0 0 1 7 3v-1a9 9 0 0 0-6 1 1 1 0 0 0 0 1 5 5 0 0 1 2 4h1a11 11 0 0 0-6-2 1 1 0 0 0-1 1c1 3 0 2-2 2v1l3 1 1-1v-2c1-2 3 0 4 0a1 1 0 0 0 1 0l-1-4s-1 0 0 0l4-1v-1a15 15 0 0 0-3-2l-2-1v-3a12 12 0 0 0-1-4h-1a21 21 0 0 1-4 6 7 7 0 0 0 0-4 20 20 0 0 1-3 4z"/><path class="cls-34" d="M365 238l-6-1a49 49 0 0 0-11 3l-20 11v1c-2 7-2 14 0 21a33 33 0 0 0 3 8c2 4 6 7 6 11l1-1c-2-5-7-10-9-16-3-7-2-15-1-22a1 1 0 0 0 1-1c5-4 11-7 18-10a63 63 0 0 1 9-3c2 0 6-2 8 0 2 3-3 12-4 14l-2 3v1a54 54 0 0 1-5 8h1a71 71 0 0 0 4-6 77 77 0 0 1-6 18 51 51 0 0 1-14 16c7-2 12-9 15-15a65 65 0 0 0 6-21l4-7c1-2 5-9 2-12z"/><path class="cls-1" d="M271 296c1-9-4-18-10-24 0-1-1 0 0 0 5 6 10 15 9 24h1zM277 291c-1-9-7-17-14-22h-1c7 6 13 14 14 22h1zM283 286c-3-9-10-16-18-20 0 0-1 0 0 0 7 4 15 11 17 20h1zM332 351a9 9 0 0 0 1-4c-1-3-3-5-6-5a12 12 0 0 0-3-1 31 31 0 0 0-6 1 32 32 0 0 1-4 0h-11a24 24 0 0 1-10-3h-2v-1a42 42 0 0 0-4-2 20 20 0 0 0 8-1c4-2 9-6 9-11 0-2-1-5-7-5a33 33 0 0 0-11 2 31 31 0 0 0-12-2h-4l-7-4a1 1 0 0 0-1 1h-1a11 11 0 0 0-4-1 8 8 0 0 0-4 1l-8 8-5-1v-1a2 2 0 0 0-2 0c-8 4-17 4-25 5a601 601 0 0 0-12 1 85 85 0 0 1-11 1c-6 0-10-1-14-4-7-5-13-13-18-24a379 379 0 0 1-14-32c-3-6-6-11-10-15a21 21 0 0 0-4-2c-7-3-11 1-19 5-5 4-7 13-8 22v7c3 26 16 51 34 69a75 75 0 0 0 33 19c9 2 18 2 27 2h3a168 168 0 0 1 29 2l2 1a26 26 0 0 0 5 0 5 5 0 0 0 2 0 13 13 0 0 0 4-4l1-1 2-3a15 15 0 0 1 5 4 27 27 0 0 0 2 2 49 49 0 0 0 11 6 55 55 0 0 0 16 5 64 64 0 0 1 6 1 46 46 0 0 0 10 1c8 0 14-3 18-9l2-1c6-2 9-6 12-11l3-3a9 9 0 0 0 4-4 10 10 0 0 0 1-8 6 6 0 0 0-3-3zm41-4c0-4-3-7-7-10a9 9 0 0 0 1-6c-2-8-8-9-13-9h-4a1 1 0 0 0-1 2 1 1 0 0 0 0 1 11 11 0 0 1 0 4 1 1 0 0 0-1 1c-3 2-3 7-2 10a8 8 0 0 0 1 1 7 7 0 0 0-4 4 9 9 0 0 0 1 8 9 9 0 0 0 0 10 8 8 0 0 0 5 3c-4 0-6 2-7 6a7 7 0 0 0 2 5 7 7 0 0 0 5 2 7 7 0 0 0 3 0 12 12 0 0 0 2 0 10 10 0 0 0 9-4l2-6c2 0 4-1 5-4s2-6 0-9c2-1 4-5 3-9zm-20-22h1a30 30 0 0 1 3 0 9 9 0 0 0-1 1l-1 1a5 5 0 0 1-2 0l-1 1a10 10 0 0 0 0-3zm-3 7a1 1 0 0 0 1 0l3-1a10 10 0 0 0 2-1 7 7 0 0 0 3-3 1 1 0 0 0 0-1 6 6 0 0 1 4 3 6 6 0 0 1-1 8l-6 3h-2a5 5 0 0 1-2 1 3 3 0 0 1-3-2 7 7 0 0 1 1-7zm10 42c-2 2-4 2-6 2h-1a1 1 0 0 0-1 0h-3a4 4 0 0 1-2 0 4 4 0 0 1-2-4c1-3 2-3 6-3h2a1 1 0 0 0 1-2 18 18 0 0 1 2 0 45 45 0 0 0 5 2 1 1 0 0 0 0 1l-1 4zm6-9a4 4 0 0 1-3 2l-7-2-1-1a15 15 0 0 0-2-1 9 9 0 0 0-2 0 7 7 0 0 1-2 0 5 5 0 0 1-3-3 7 7 0 0 1 0-5 9 9 0 0 0 6 1h4a37 37 0 0 1 6 1 44 44 0 0 0 5 0 8 8 0 0 1-1 8zm1-11a34 34 0 0 1-4 0 35 35 0 0 0-6-1h-5a10 10 0 0 1-5-1 2 2 0 0 0-1 0 6 6 0 0 1 0-5 6 6 0 0 1 3-3 2 2 0 0 0 1-1 5 5 0 0 0 1 1 7 7 0 0 0 4-2h1a12 12 0 0 0 8-3l1 1 5 5c1 3 1 8-3 9z"/><path class="cls-18" d="M246 367l-9 10-39-3c-23 1-41-3-58-19-19-17-33-47-36-72 0 0-4-19 10-31l9-3c8 1 13 8 16 15l15 33c5 12 13 26 25 32 9 5 20 0 31 0 8 0 21-1 28-6l16 4 4 21z"/><path d="M139 303c12 23 28 40 35 37 2-2 3-6 3-12-11-7-19-20-23-31l-15-33c-2-4-4-8-8-11a4 4 0 0 0-1 0c-7 4-3 26 9 50z" fill="url(#Sfumatura_senza_nome_45-3)"/><path d="M238 323c-7 5-20 6-28 6-10 0-20 4-29 1-2 1-3 3-3 5 0 7 21 14 48 14a140 140 0 0 0 31-4l-4-18z" fill="url(#Sfumatura_senza_nome_45-4)"/><path class="cls-21" d="M104 283c3 25 17 55 36 72 17 16 35 20 58 19l39 3 9-10 11-19c-2-2-4-3-8-2-10 4-59 4-81-3s-40-48-47-64-7-27-7-27c-14 12-10 31-10 31z"/><path class="cls-21" d="M239 343c12-4 14-15 13-16l-14-4c-5 3-11 5-18 5v1s7 17 19 14z"/><path d="M116 315s32 57 97 56c0 0-72 14-97-56z" fill="url(#Sfumatura_senza_nome_7-2)"/><path class="cls-21" d="M123 249c12 2 16 16 21 26 4 10 8 22 14 32 4 8 10 16 18 21 10 6 20 3 31 2s22 0 32-6l-1-1c-9 5-20 5-30 5-11 1-23 5-33-3-8-5-14-15-18-24l-14-32c-4-9-9-18-20-21v1z"/><path class="cls-22" d="M104 283c2 26 15 53 33 71a74 74 0 0 0 34 19c14 4 29 2 43 3l15 1c2 1 7 2 8 1l5-5a24 24 0 0 0 4-6h-1a27 27 0 0 1-4 5l-4 4h-7l-11-2c-15-1-29 1-44-2-26-5-45-24-57-47a131 131 0 0 1-14-42z"/><path class="cls-2" d="M331 352h-1a8 8 0 0 0 1-5c0-4-6-5-9-4-10 2-17 0-20 0l-10-3-14-6v-1h1c7 3 18 3 22-5 6-10-10-7-15-5h-1a38 38 0 0 0-15-3l-7-4-2 2a2 2 0 0 1 0-1h-7l-10 9 1 8c10 20 0 35 0 35h2c14 17 34 17 34 17 13 4 24 5 31-6l1-1c7-2 10-6 14-12v-1l1-1c5-1 8-11 3-13z"/><path d="M285 367c5-15 0-29-10-32s-22 7-26 21a38 38 0 0 0-1 14 51 51 0 0 0 26 15c5-4 9-10 11-18z" fill="url(#Sfumatura_senza_nome_152-3)"/><path d="M312 380l1-1c7-2 10-6 14-12v-2h1c5-1 8-11 3-13h-1a8 8 0 0 0 1-5c0-4-6-5-9-4a38 38 0 0 1-10 1s5 6 1 12l2 1s3 7-1 12l-1 3s1 3-3 7a19 19 0 0 1-8 3l-1 5a1 1 0 0 0 0 1 20 20 0 0 0 11-8z" fill="url(#Sfumatura_senza_nome_18)"/><path class="cls-5" d="M328 365c-2 0-11 4-15 4l-20-3c0 7 13 7 18 7s14-3 14-3v-1c2-1 5-4 3-4zm-25 13a63 63 0 0 1-13-3c-4 1 0 5 0 5 4 4 11 4 15 4-7 5-17 1-17 1s-4 1-17-4c-10-3-18-13-20-16 4-15 0-25-2-28 7-11 25-16 25-16v-1a32 32 0 0 0-4 0l-7-4-2 2a2 2 0 0 1 0-1h-7l-10 9 1 8c10 20 0 35 0 35h2c14 17 34 17 34 17 13 4 24 5 31-6l1-1a24 24 0 0 0 6-2 4 4 0 0 0 0-1c0-1-9 3-16 2zm-12-38c-4-3-9-5-13-6v-1h1c7 3 18 3 22-5a12 12 0 0 0 1-2v1c-7 9-17 4-22 2s-5 4-5 4 5 6 16 7zm2 13c-2 7 7 8 9 9s9 1 18-2a49 49 0 0 0 13-6 4 4 0 0 0-2-2h-1a8 8 0 0 0 1-5 49 49 0 0 1-7 5c-12 7-20 2-23 1s-8 0-8 0zm-3 3l-3-3c0 2 1 3 3 3zm-7 24v-1c0 1 1 4 2 3a4 4 0 0 0-2-2zm4-9c2-1-1-3-2-4h-1c1 1 1 4 3 4z"/><path class="cls-6" d="M291 323a7 7 0 0 0 5 4l5-3s-2-6-10-1zm38 28s2-3-1-5a9 9 0 0 0-5 2s0 5 2 6c0 0 4-1 4-3zm3 4c-1-1-5 3-5 3a9 9 0 0 0 0 7 16 16 0 0 0 5-3v-7z"/><path class="cls-7" d="M327 364a9 9 0 0 1 0-6l5-2a2 2 0 0 1 0 1c1 2 0 4-1 5a14 14 0 0 1-4 2zm-2-10l-2-6a8 8 0 0 1 5-2c3 2 1 4 1 4v1l-4 3zm-29-27a7 7 0 0 1-5-4 11 11 0 0 1 5-1 4 4 0 0 1 4 2l-4 3z"/><path d="M331 352a8 8 0 0 0 1-5c-1-3-3-4-5-4-4-2-9 0-13 0h-11a25 25 0 0 1-11-3l-11-5c5 1 10 1 14-1s8-6 8-10c-1-6-13-3-17-2-5-2-11-2-16-2v1c6-1 12 1 18 3v-1h-2c4-1 14-4 16 0s-5 10-9 11a20 20 0 0 1-14-2l-1 2h2l12 7a28 28 0 0 0 7 2l9 1a50 50 0 0 0 7 0l8-1c3 0 8 1 8 5a7 7 0 0 1-4 6 94 94 0 0 1-10 3c-5 2-13 1-19-1v1a35 35 0 0 0 17 2 39 39 0 0 0 6-2c3-1 5-1 7-3a7 7 0 0 0 3-2c5 3 2 11-3 13l-10 3a33 33 0 0 1-12 2l-10-1c-1 0-1 0 0 0a84 84 0 0 0 14 2c5 0 10-2 15-4l2-1c-3 7-8 11-14 13-8 2-15 1-23-1 0-1 0 0 0 0 7 3 15 4 22 2-6 7-13 10-22 8l-12-2a54 54 0 0 1-17-6 53 53 0 0 1-10-8l-5-4c6-10 4-24-1-34h-1c5 10 7 25 0 35a1 1 0 0 0 0 1c4 0 6 4 9 7a48 48 0 0 0 10 5 55 55 0 0 0 16 5l16 2c8 0 13-3 18-9l2-1c6-2 9-7 13-12v-1c2-1 4-2 5-5 2-3 2-8-2-9z" fill="url(#Sfumatura_senza_nome_153-5)"/><path class="cls-2" d="M371 346c-1-5-4-6-7-8 2-2 2-5 1-9-3-6-9-5-15-5v1l1 5a3 3 0 0 0-1 0l-1 1c-3 3-3 8 0 10v1c-4 1-6 8-4 11-3 4-1 10 3 11a10 10 0 0 0 3 0v3c-3 0-6 0-7 3-1 6 3 9 8 7v1c3 0 7-1 9-3 1-1 3-6 1-6v-1a5 5 0 0 0 5-1c2-3 3-8 1-11h-1 1-1v-1h1c4-1 4-6 3-9z"/><path d="M362 369v-1a5 5 0 0 0 5-1c2-3 4-8 1-10l-1-1h1-1v-1l1 1c4-2 4-7 3-10-1-5-4-6-7-8 2-2 2-5 1-9a8 8 0 0 0-3-4c-3 5-5 15-4 26a63 63 0 0 0 5 20l-1-2z" fill="url(#Sfumatura_senza_nome_152-4)"/><path class="cls-5" d="M357 366a18 18 0 0 0-6-2v3c-3 0-6 0-7 3s0 5 2 7l3 1c-3-2-4-6-2-9a10 10 0 0 1 8 0 8 8 0 0 1 4 4v3a3 3 0 0 0 0 1 7 7 0 0 0 2-2c1-1 3-6 1-6v-1a5 5 0 0 0 4 0c-3 1-6-1-9-2zm2-13l-7 1a12 12 0 0 1-2 0c-2-1-3-2-3-5l1-3c2-3 7-3 10-4h7a15 15 0 0 1 6 3c-1-4-4-5-7-7a37 37 0 0 1-4 2l-6 2a5 5 0 0 1-3 0 5 5 0 0 0 1-2c0-2 0-5-2-6s-3 1-3 1v1a7 7 0 0 0 2 5v1c-4 1-6 8-4 11-2 4-1 9 3 11-2-2-2-4-1-7a8 8 0 0 1 0-1h9c5 0 11 1 13 6 1-2 0-4-1-6h-1v-1h1a5 5 0 0 0 3-3c-3 3-8 1-12 1zm-7-24c3 0 6-3 6-3l-5 1-3-2 1 4a9 9 0 0 1 1 0z"/><path class="cls-6" d="M357 334c-1-2-3-2-5-1 0 0 2 4 1 7a15 15 0 0 0 3-1 4 4 0 0 0 1-5zm-6 11s-3 2-1 7v1l5-1 1-6s-3-2-5-1zm-2 12s-1 4 0 6h5v-6s-3-2-5 0zm-1 14l1 6 3-1c0-1 2-3 0-5a3 3 0 0 0-4 0z"/><path class="cls-7" d="M351 376a6 6 0 0 1-2 0v-5a3 3 0 0 1 1 0 2 2 0 0 1 2 0v5h-1zm1-13a14 14 0 0 1-3 0l1-6a3 3 0 0 1 1 0 7 7 0 0 1 3 0l-1 6h-1zm-1-10l-1-1c-1-5 1-7 2-7a5 5 0 0 1 3 1v6l-4 1zm3-14a8 8 0 0 0-1-6 3 3 0 0 1 2 0 2 2 0 0 1 2 1 4 4 0 0 1-2 5 13 13 0 0 1-1 0z"/><path d="M354 341c-6 3-8-6-5-10-5 4-1 15 5 10zm-4-10c1-2 4-1 6-2a6 6 0 0 0 2-2v-1a18 18 0 0 0-2 2 6 6 0 0 1-2 1 11 11 0 0 0-3 0 8 8 0 0 0-1-4 13 13 0 0 1 1 5 4 4 0 0 0-1 1zm22 16c-1-5-4-8-8-9a8 8 0 0 0 2-7c-2-8-9-8-16-7 5 0 12-1 14 5a7 7 0 0 1-1 9c-2 2-5 2-8 3a10 10 0 0 0 9-3c2 2 5 3 7 7 1 3 1 8-3 10l-11-1c-4 0-6 1-10-1v1l7 1 14 1c4-2 4-6 4-9zm-4 9a9 9 0 0 1-1 10c-3 4-8 1-11-1a23 23 0 0 0-4-1h-3c-5-2-5-7-3-11a7 7 0 0 1 3-10l-1-1c-4 1-5 7-3 11a8 8 0 0 0 0 9c1 2 3 2 5 3a32 32 0 0 1 7 2l3 1c4 1 7 1 9-3 1-3 2-7-1-9zm-16 21h-5a5 5 0 0 1-3-5c1-5 5-4 9-4v-1h-2a6 6 0 0 0 0-2 5 5 0 0 0-1 2c-3 0-6 0-7 5a6 6 0 0 0 9 6v-1zm10-8c1 1-1 4-1 5-2 3-6 3-9 4 4 0 8-1 10-4 0 0 3-5 0-5z" fill="url(#Sfumatura_senza_nome_153-6)"/><path class="cls-1" d="M290 309c-1-2-7-4-11-6a47 47 0 0 0-9-1 73 73 0 0 0-9 1c-7 1-21 4-31 12a8 8 0 0 0-1 0c-4 0-8 4-9 8s0 7 3 9a10 10 0 0 0 1 2c0 2 3 5 6 5a3 3 0 0 0 1 0 7 7 0 0 0 2 2 9 9 0 0 0 3 1 10 10 0 0 0 11-10 36 36 0 0 1 19-9h4a40 40 0 0 0 8-2l12-12z"/><path class="cls-27" d="M291 310l-9 8c-5 4-13 3-19 4s-13 4-17 8l-1 1c0 5-4 9-9 9a5 5 0 0 1-5-3c-2 2-5-1-6-5-8-4-2-16 5-16a36 36 0 0 1 4-2 68 68 0 0 1 8-4 73 73 0 0 1 7-3 57 57 0 0 1 12-2l5-1a57 57 0 0 1 8 0 44 44 0 0 1 5 1 27 27 0 0 1 12 5z"/><path class="cls-30" d="M246 330l-1 1c0 5-4 9-9 9a5 5 0 0 1-5-3c-2 2-5-1-6-5-8-4-2-16 5-16a36 36 0 0 1 4-2 10 10 0 0 1 7 7 17 17 0 0 0 5 9z"/><path class="cls-31" d="M257 321a34 34 0 0 0-13 7 16 16 0 0 0 2 2c4-4 11-7 17-8s13 0 18-4l-7 1a57 57 0 0 0-17 2z"/><path class="cls-33" d="M225 332c1 4 4 7 6 5a5 5 0 0 0 5 3c5 0 9-4 9-8l1-2a16 16 0 0 1-2-2l-1 1-5 6c-2 3-6 2-7-1l4-5c-4 0-9 5-10 0a9 9 0 0 1 2-4c-1 1-6 1-5-2l-1 1a7 7 0 0 0 4 8z"/><path class="cls-29" d="M242 310l-5 2c4 2 6 5 7 10 1 3 5 1 4-2a18 18 0 0 0-6-10zm12-4l-5 1c3 2 5 6 5 10 1 3 5 3 5 0a20 20 0 0 0-5-11zm7-1c2 2 3 6 2 9 0 3 5 3 5 0a19 19 0 0 0-2-10l-5 1zm18 0a44 44 0 0 0-5-1 15 15 0 0 1 0 9c0 3 4 4 5 1a21 21 0 0 0 0-9z"/><path class="cls-34" d="M282 318c-6 4-13 2-20 4-6 1-12 3-17 8a1 1 0 0 0 1 1 37 37 0 0 1 20-9c5-1 11-1 16-4zm9-8c-7-7-21-7-30-6-10 1-23 5-30 12-8-2-15 11-7 16a9 9 0 0 0 1 2c1 2 4 5 6 4a6 6 0 0 0 2 2c6 2 12-3 13-9h-1c-1 5-5 9-10 7-5-1-4-6-1-8v-1c-2 1-4 3-4 5a5 5 0 0 0 1 3c-3 1-5-3-5-4-1-4 0-7 4-9-4 1-6 4-6 7-3-2-3-6-1-9a8 8 0 0 1 9-5v-1a8 8 0 0 0-1 0c17-10 42-16 60-5v-1z"/><path class="cls-1" d="M326 68a2 2 0 0 0-1-1 2 2 0 0 0-1 1 14 14 0 0 1-9 3 9 9 0 0 1-4-2l-8-7-2-2c-2-3-5-6-8-7h-1c6-1 12-8 13-14a2 2 0 0 0-1-1 2 2 0 0 0-2-1 2 2 0 0 0-1 1 7 7 0 0 1-7 4c-4 0-9-3-13-5a43 43 0 0 1-6-7 32 32 0 0 0-12-10 34 34 0 0 0-6-2 27 27 0 0 0-8-1h-3a24 24 0 0 0-15 6 7 7 0 0 1 0-1l2-1 1-1c2-2 4-4 6-4a2 2 0 0 0 0-4l-5-1h-7a40 40 0 0 0-13 2c-5 2-12 5-15 10-2-7-8-9-14-11a22 22 0 0 0-6-1 25 25 0 0 0-4 1c-1 0-7 1-10 3a2 2 0 0 0 0 2 1 1 0 0 0 1 1 6 6 0 0 0 1 0 4 4 0 0 1 1 0c3 0 5 1 6 3a13 13 0 0 1 1 6 35 35 0 0 1-5-2l-9-3h-1c-7 0-15 4-22 7a74 74 0 0 0-10 7 84 84 0 0 1-8 7 10 10 0 0 1-5 1 3 3 0 0 1-2-1 6 6 0 0 1-2-4 15 15 0 0 1 1-6l2-2a2 2 0 0 0 1-2 2 2 0 0 0-3-1 7 7 0 0 0-3 3c-4 5-9 10-10 16-1 4-1 7 1 10a15 15 0 0 0 1 1h-1c-3-1-3-3-4-7a2 2 0 0 0-2-2 1 1 0 0 0-1 1l-2 5v9c1 3 2 7 5 9a17 17 0 0 0-8 4l-7 10c-2 5-4 10-3 14a7 7 0 0 0 0 1 5 5 0 0 1 0 2h-1l-1 1a17 17 0 0 1-5 0 39 39 0 0 1-6-1v1a2 2 0 0 0-2 1 2 2 0 0 0 0 1 23 23 0 0 0 7 7 7 7 0 0 0 4 1 22 22 0 0 0-3 11v1c0 4 0 9 2 12a2 2 0 0 0 2 1 2 2 0 0 0 1-1c1-3 1-7 3-9l2-2v1a6 6 0 0 1 0 1v2a25 25 0 0 0 0 4 27 27 0 0 0 2 6v3h1a7 7 0 0 0 1 3c-8 12-9 29-3 39 4 6 10 10 17 14a28 28 0 0 0 11 2 12 12 0 0 0 8-2c2 7 5 16 11 23a78 78 0 0 0 9 9l25 15 32 12a58 58 0 0 0 13 2c7 0 13-2 18-6l8-7 7-6 5-4 15-15a52 52 0 0 0 11-26c1-3 4-6 7-8 3-3 7-6 8-12 0-2-1-10-3-12a3 3 0 0 0-2-2 34 34 0 0 0 3-2 29 29 0 0 0 4-8 19 19 0 0 1 2 9 2 2 0 0 0 1 1 2 2 0 0 0 1 0 2 2 0 0 0 2-1 23 23 0 0 1 1-2 17 17 0 0 0 2-4 37 37 0 0 0 1-8 36 36 0 0 0-1-8 21 21 0 0 0-2-7l-1-1v-1a31 31 0 0 0 10 5 33 33 0 0 0 9 2 10 10 0 0 0 6-2 2 2 0 0 0 0-2 2 2 0 0 0-1-1h-1c-3 0-6-4-8-8a28 28 0 0 1-2-6 21 21 0 0 1-1-2 20 20 0 0 0-1-3 29 29 0 0 0-4-8l-5-5a23 23 0 0 0 7 1 11 11 0 0 0 7-2c2-1 7-6 6-10a2 2 0 0 0-1-1 2 2 0 0 0-2 0c-1 2-4 3-6 3a17 17 0 0 1-4-1c-6-1-7-2-7-3a1 1 0 0 0 0-1h3a23 23 0 0 0 17-6 37 37 0 0 0 5-5 21 21 0 0 0 4-7 2 2 0 0 0-1-2z"/><path class="cls-2" d="M284 167a2 2 0 0 0-4 0l-3 1 3-23-11-34-45-18-98 24-31 23c-6 5-10 11-12 18-3 11-3 25 6 34 5 4 21 15 30 7v1c3 8 7 17 12 23a120 120 0 0 0 47 31c29 10 39 9 49 1 0 0 11-12 19-18s18-16 23-28a41 41 0 0 0 2-12h1c3-8 12-10 14-18 0-3 0-10-2-12z"/><path d="M206 252a22 22 0 0 0 9 1s-7 5-9-1z" fill="url(#Sfumatura_senza_nome_118-2)"/><ellipse cx="214" cy="228" rx="34" ry="12" fill="url(#Sfumatura_senza_nome_152-5)"/><ellipse cx="231" cy="125" rx="52" ry="35" fill="url(#Sfumatura_senza_nome_152-6)"/><ellipse cx="153" cy="198" rx="24" ry="32" transform="rotate(-36 153 198)" fill="url(#Sfumatura_senza_nome_189)"/><path d="M269 209a41 41 0 0 0 2-12h1c2-6 9-9 12-14-7-2-18 4-27 14-9 12-12 27-5 32a9 9 0 0 0 2 1c6-5 11-13 15-21z" fill="url(#Sfumatura_senza_nome_189-2)"/><path d="M137 180s11-13 10-18-16-9-16-9l-12 18s3 21-4 30a10 10 0 0 0 4-2l1 1c2 8 6 17 11 23 0 0 10 12 28 22-5-5-16-17-20-27-8-21-2-38-2-38z" fill="url(#Sfumatura_senza_nome_13)"/><path d="M239 186s-4-15 7-34l9-6 12 1 5 9 2 7v4s-3 19-14 25z" fill="url(#Sfumatura_senza_nome_118-3)"/><path d="M168 176s-6-13-2-24l10-10 16-6h15l3 5s9 23-4 43z" fill="url(#Sfumatura_senza_nome_118-4)"/><path d="M92 159c6-1 9 3 12 7s12 10 12 10l3-15-7-12c-3-3-8-12-11-13a4 4 0 0 0-1 0l-5 4c-6 5-10 11-12 18a45 45 0 0 0-2 10c1-2 5-8 11-9z" fill="url(#Sfumatura_senza_nome_203)"/><path d="M109 178l-11-12c-3-3-9-2-12 1s0 14 0 14c2 11 16 15 16 15l-10-10s3-3 5-3 3 4 6 8 11 0 11 0a38 38 0 0 1 0-6c0-3-2-5-5-7z" fill="url(#Sfumatura_senza_nome_118-5)"/><path d="M283 174c-3 4-9 4-9 4-2 4-3 15-2 18 2-4 5-6 8-9l1-1c4-5 2-12 2-12z" fill="url(#Sfumatura_senza_nome_118-6)"/><path d="M277 168l3-23-11-34-45-18-98 24-31 23a32 32 0 0 0-9 11 1 1 0 0 0 1 0c0-2 2-3 3-5l2-1a1 1 0 0 0 1 1c5 0 11 5 14 9a31 31 0 0 1 4 8l2 8a27 27 0 0 0 2 9c2 4 6 10 10 10a23 23 0 0 1 1-13l4-7a20 20 0 0 0 1-4c1 4 2 9 0 13l1 1c8-4 17-13 18-22l-1-1h1c2 4 6 8 11 9a1 1 0 0 0 1-1c-1-5-2-9 0-14 1-4 4-8 7-12 5-7 14-10 20-16 4 3 8 4 12 3a14 14 0 0 0 1 0c9 8 21 12 32 7a36 36 0 0 0 14-14c-2 9-7 17-16 19a1 1 0 0 0-1 1c10 5 22 2 29-5a21 21 0 0 0 4-5v1c2 8 7 13 10 20a24 24 0 0 1 2 13l-1 10a6 6 0 0 0 0 2 1 1 0 0 0 1 0c0-4 3-6 6-9a3 3 0 0 0-2 1zm-59-58c0 6-3 9-8 12a19 19 0 0 0 3-4c3-4 4-9 4-14l1 3v3z" fill="url(#Sfumatura_senza_nome_195)"/><path d="M87 150s10-11 23 4l1-8-10-8-9-1z" fill="#48120d"/><path d="M114 185c0-3-2-5-5-7l-11-12c-3-3-9-2-12 1s0 14 0 14a14 14 0 0 0 1 3c-1-4-3-12 1-14 4-3 8-2 9-1l6 8a43 43 0 0 0-2 6c-1 2 2 6 4 7 0 0-3-4-1-7s6 0 6 0 1 6 3 8h1a38 38 0 0 1 0-6z" fill="url(#Sfumatura_senza_nome_202)"/><path d="M283 174c-3 4-9 4-9 4l-2 15 4-10h2l-3 6s6-3 5-6a4 4 0 0 0-2-2 24 24 0 0 0 4-4 17 17 0 0 1 0 8c3-5 1-11 1-11z" fill="url(#Sfumatura_senza_nome_202-2)"/><path d="M119 199c-11 7-28-4-34-14-7-14-2-34 10-44l-1-1c-13 10-19 32-10 47 4 6 10 10 17 13 5 2 13 4 18-1zm161-33v1c1-1 4 0 4 1a9 9 0 0 1 1 3 21 21 0 0 1 1 5 13 13 0 0 1-4 9c-4 4-8 7-10 11v-2c0-9 2-18 6-26h-1c-3 6-5 13-6 20v10a46 46 0 0 1-5 16c-5 9-12 16-20 23a204 204 0 0 0-17 15c-3 3-7 6-11 7-6 2-13 2-19 0-19-4-38-11-53-23a103 103 0 0 1-14-12 63 63 0 0 1-13-24c3 8 6 17 12 24a80 80 0 0 0 9 8c15 13 33 21 52 26 12 4 24 6 34-3l15-13c7-6 14-11 20-19a51 51 0 0 0 11-26c3-7 13-10 14-19 1-3 0-16-6-12z" fill="url(#Sfumatura_senza_nome_153-7)"/><path d="M168 178s2 14 15 17 22-6 23-11z" fill="url(#Sfumatura_senza_nome_9)"/><path d="M242 190s4 8 11 7 14-4 15-14z" fill="url(#Sfumatura_senza_nome_9-2)"/><path fill="url(#Sfumatura_senza_nome_118-7)" d="M251 216v-3h5l-5 3z"/><path fill="url(#Sfumatura_senza_nome_118-8)" d="M169 212l-6-2h10l-4 2z"/><path d="M185 225s13 22 31 23c0 0 8-2 11-6a80 80 0 0 1 5-8s-13 1-17 0l-18-3z" fill="#9d182b"/><path class="cls-1" d="M207 240v-4l-17-6 3 7 10 2 4 1z"/><path d="M197 238l15 5a18 18 0 0 0 7 0c1-1-15-6-24-7z" fill="#de0929"/><path class="cls-23" d="M190 232s22 11 37 6l3-2-16-1-15-4-13-5v4z"/><path class="cls-23" d="M199 239s11 6 17 5 6-2 6-2l-3-1s4-1 5 1-3 4-3 4l-8 1c-3-1-3 1-6-1a15 15 0 0 1-5-3z"/><path d="M236 232c-4 3-8 4-10 8-6 9-17 7-24 2-9-6-15-15-23-20l-5-6 15 19c6 5 13 17 24 17 12 0 14-8 16-10s7-11 11-13z" fill="#ec6670"/><path d="M221 245c-4 2-8 1-12 0l-5 3c0 2 5 4 11 4a28 28 0 0 0 3 0 13 13 0 0 0 7-4l-4-3z" fill="url(#Sfumatura_senza_nome_181)"/><ellipse cx="215" cy="249" rx="2" ry="1" fill="#f3a4b5"/><path d="M179 222c10 8 18 21 31 24 4 2 9 2 13-1l4-6c2-3 6-5 9-7v-1l-7 5a35 35 0 0 0-5 5c-4 5-10 5-16 3-12-4-18-16-29-22z" fill="#ea4e59"/><path d="M251 215c-7 11-13 18-22 20l-11 1c-7 0-15-1-21-4-12-5-20-11-28-21 0 0 17 16 29 19s23 2 26 3l9-3c2-1 9-5 13-9z" fill="#ec6166"/><path d="M168 211c12 13 26 24 44 26 8 0 16 1 23-4s13-11 17-18h-1c-5 6-9 13-16 17-8 4-16 4-24 3a70 70 0 0 1-43-24z" fill="#df4246"/><path d="M172 186c-5-5-6-14-2-19 5-7 13-11 21-11a18 18 0 0 1 15 13s3 9 1 13-35 4-35 4z" fill="url(#Sfumatura_senza_nome_9-3)"/><path class="cls-86" d="M172 186c-3-4-4-10-3-14 1-6 6-10 10-12 5-3 10-4 15-2 6 1 10 5 12 11-3-13-18-16-28-11s-17 20-6 28z"/><path class="cls-1" d="M169 178l-1-1a20 20 0 0 1 15-13c12-2 22 2 24 16z"/><path class="cls-23" d="M189 167c-8 0-17 4-21 11v2c2 9 12 13 20 13 9 0 14-3 18-11h1c-2-10-7-15-18-15z"/><path d="M187 193c5 1 10-1 14-4a16 16 0 0 0 2-7 16 16 0 0 0-2-10c-3-3-8-5-14-4a15 15 0 0 0-7 11c-1 6 2 11 6 14a1 1 0 0 1 1 0z" fill="url(#Sfumatura_senza_nome_141)"/><ellipse cx="191" cy="180" rx="12" ry="10" transform="rotate(-84 191 180)" fill="url(#Sfumatura_senza_nome_31)"/><path d="M193 190c0 1-1 2-3 2s-3-2-3-3 7 0 6 1z" fill="url(#Sfumatura_senza_nome_134)"/><ellipse class="cls-1" cx="193" cy="181" rx="7" ry="6" transform="rotate(-84 193 181)"/><ellipse cx="193" cy="181" rx="6" ry="5" transform="rotate(-84 193 181)" fill="url(#Sfumatura_senza_nome_123)"/><ellipse cx="193" cy="176" rx="3" ry="3" transform="rotate(-84 193 176)" fill="url(#Sfumatura_senza_nome_124)"/><ellipse class="cls-23" cx="192" cy="187" rx="2" ry="1" transform="rotate(-84 192 187)"/><path class="cls-1" d="M168 178c5-7 15-10 24-10 8 1 13 6 15 14-1-9-5-15-14-15a27 27 0 0 0-25 11z"/><path class="cls-92" d="M168 180c2 9 11 13 19 13 9 1 15-3 19-10v-1c-4 8-10 11-19 11-8-1-16-5-18-13h-1z"/><path d="M264 190c5-7 10-18 0-24-7-4-19 1-22 7 0 0-5 7-3 10s25 7 25 7z" fill="url(#Sfumatura_senza_nome_9-4)"/><path class="cls-86" d="M242 173c5-7 18-11 24-4 6 6 1 15-3 21a1 1 0 0 0 1 0c6-6 10-17 2-23-7-6-20-2-25 6h1z"/><path d="M239 182s5-12 16-12 13 6 14 11l-2 2z" fill="url(#Sfumatura_senza_nome_10)"/><path class="cls-23" d="M267 181c-1-6-9-9-15-8a19 19 0 0 0-13 9v2c2 8 10 12 18 10 6-1 9-4 11-12z"/><path d="M261 174a16 16 0 0 0-9-1 17 17 0 0 0-2 0 17 17 0 0 0-7 17 2 2 0 0 1 1 1 4 4 0 0 1 1 1l1 1a1 1 0 0 1 1 0 17 17 0 0 0 12 0 17 17 0 0 0 3-5c2-5 2-11-1-14z" fill="url(#Sfumatura_senza_nome_141-2)"/><path d="M257 174c-4-2-9 2-12 7-2 5-1 10 2 12a17 17 0 0 0 8 1 13 13 0 0 0 6-6c2-6 1-12-4-14z" fill="url(#Sfumatura_senza_nome_31-2)"/><path d="M248 194a18 18 0 0 0 3 0 1 1 0 0 0 1 0c0-1-4-3-5-2a2 2 0 0 0 1 2z" fill="url(#Sfumatura_senza_nome_134-2)"/><ellipse class="cls-1" cx="254" cy="186" rx="7" ry="5" transform="rotate(-67 254 186)"/><ellipse cx="254" cy="186" rx="6" ry="4" transform="rotate(-67 254 186)" fill="url(#Sfumatura_senza_nome_123-2)"/><ellipse cx="256" cy="181" rx="3" ry="2" transform="rotate(-67 256 181)" fill="url(#Sfumatura_senza_nome_124-2)"/><ellipse class="cls-23" cx="252" cy="190" rx="1" ry="1" transform="rotate(-67 252 190)"/><path class="cls-1" d="M239 182c4-4 9-8 15-8a14 14 0 0 1 13 7 1 1 0 0 0 1 0c-1-6-7-9-13-9-7-1-13 5-16 10z"/><path class="cls-92" d="M239 184c1 8 9 12 16 11 8-1 11-6 13-13h-1c-1 6-4 11-11 12-8 2-14-3-17-10z"/><path d="M248 210a12 12 0 0 1-4 7l-5 4-12 2s-13-2-18-7 2-11 5-13l13-14a10 10 0 0 1 2-2 8 8 0 0 1 7 0c1 7 9 14 9 14l3 9z" fill="url(#Sfumatura_senza_nome_167)"/><path d="M240 195a20 20 0 0 1-4-8 8 8 0 0 0-7 0l2 10c2-2 5-2 9-2z" fill="url(#Sfumatura_senza_nome_173)"/><path d="M243 199c-4 0-8-1-12 2 1 4 3 17 16 10l1-1-3-9-2-2z" fill="url(#Sfumatura_senza_nome_173-2)"/><ellipse cx="241" cy="205" rx="3" ry="2" fill="#fde7e2"/><path d="M208 211l4 1s9-2 14 0 10 7 19 2l-4 5-14 3-16-2z" fill="#da6b5a"/><path d="M207 213l4 2s9-3 13-1 11 9 22 0a35 35 0 0 1-9 8s-3 9-12 8-17-5-18-17z" fill="url(#Sfumatura_senza_nome_118-9)"/><path d="M247 202l-6-6c-3-3-4-6-5-10 0 4 1 8 4 11 3 4 7 7 6 13 0 9-13 14-21 11-1-1-1 0-1 1 8 3 20 0 23-7a13 13 0 0 0 0-13zm-33 15l1 1c2-1 7-3 8 1 0-4-6-3-9-2zm2 3c-5-1-9-6-8-10v-1c-4 6 3 11 7 11h1z" fill="url(#Sfumatura_senza_nome_153-8)"/><path d="M165 152s11-8 21-11c12-3 20 3 23 2s6-8 6-8l-2-3-2 2s-1-2-6-4c-8-2-33 1-40 22z" fill="url(#Sfumatura_senza_nome_38)"/><path d="M244 151s-1-5 2-9a7 7 0 0 1 1-2l1 3s7-3 13-2 17 3 13 26c0 0-2-14-12-16-7-2-17 2-17 2z" fill="url(#Sfumatura_senza_nome_38-2)"/><path d="M114 30a4 4 0 0 0-2 1 15 15 0 0 0 2-1zm126-16zm74 69l5-5c4-2 5-5 6-9a16 16 0 0 1-7 3c-2 1-3 2-5 1a27 27 0 0 1-10-9c-3-3-6-7-10-9a16 16 0 0 0-5-1h-2l3-3c3 1 7-2 9-3 2-2 5-6 4-9a9 9 0 0 1-7 5c-3 1-5-1-9-2a15 15 0 0 1-4-2 36 36 0 0 1-5-4l-4-5-4-4-5-4-6-3-12-2a23 23 0 0 0-15 7h-4l2-3a12 12 0 0 1 2-2l3-3 6-3-12-1a41 41 0 0 0-13 2 29 29 0 0 0-9 4l-3 3-2 3h-2a18 18 0 0 0-2-5l-5-4a18 18 0 0 0-4-1l-4-2h-9l-4 2-4 1 6 1a10 10 0 0 1 4 4l1 9-1-1c-7-1-10-6-19-5-8 2-15 6-22 10l-5 4-6 4a42 42 0 0 1-5 3 6 6 0 0 1-2 1h-2c-3 1-6-3-6-6l2-9a50 50 0 0 0-4 5c-2 3-5 6-6 10-1 3-2 6 0 9l5 4 3 1-10-1a7 7 0 0 1-4-3l-1-5-2 7v6c0 2 4 9 7 8l1 2h-1c-5 0-9 4-12 8l-4 5a49 49 0 0 0-2 6c-1 3-2 6-1 9 0 2 1 3-1 4a42 42 0 0 1-8 1h-3l-3-1a21 21 0 0 0 6 6 7 7 0 0 0 3 1l4-1-4 7a19 19 0 0 0-1 5v7l2 7v-3l1-3c1-3 3-6 7-6v11l2 7 2 3c0-2 3-2 3-4l4-1 4 1a7 7 0 0 1 2 2l4 2a21 21 0 0 1 3 4 27 27 0 0 1 5 8l1 5 1 4h1a25 25 0 0 0 1 8 20 20 0 0 0 3 6l6 5v-3a20 20 0 0 1 0-3 24 24 0 0 1 1-6 44 44 0 0 1 3-6 22 22 0 0 0 2-5 9 9 0 0 1 1-2 19 19 0 0 1 1 6l-1 8c5-2 10-7 14-11a23 23 0 0 0 2-3l1-3 1-4 1-2c3 4 6 8 11 9l-1-3a16 16 0 0 1-1-4 23 23 0 0 1 2-7c1-5 4-9 7-13s8-6 12-9c3-2 6-3 8-6h1a14 14 0 0 0 3 1c3 1 6 2 10 1a20 20 0 0 0 4-2c4-2 6-5 8-9s2-7 2-11l2 7c0 9-8 13-16 15l6 5c16 11 34 0 42-16l-1 4c-2 9-8 19-18 21 8 4 18 1 26-4a22 22 0 0 0 6-8l1 3c2 9 9 15 11 24 3 7-1 12 0 20 0-2 2-4 3-5l1-2 2-2c3-4 6-8 6-14l3 6 1 4a9 9 0 0 1 1 5l2-4a25 25 0 0 0 1-4 34 34 0 0 0 1-9 31 31 0 0 0-1-7l-2-6h-1l1-4a21 21 0 0 0 7 5 42 42 0 0 0 6 1 36 36 0 0 0 6 1h6c-4 0-6-3-8-6a37 37 0 0 1-5-10l-1-5a36 36 0 0 0-3-5 22 22 0 0 0-3-4l-2-3-2-4c5 2 11 4 15 0 2-1 6-6 5-8-1 3-8 4-10 3s-10-2-9-5h-1l1-2c6 0 12 0 17-4zm-38 89v-1a3 3 0 0 0 0 1z" fill="url(#Sfumatura_senza_nome_109)"/><path d="M212 51c3-10 12-12 21-13-4-3-10-4-15-4 2-4 6-7 11-9h-2l2-3a12 12 0 0 1 2-2l3-3 6-3-6-1c-10 3-21 10-25 20-9 0-13 0-20 4h9c7-1 12 8 14 14zm8 47l-2 2 1 4a25 25 0 0 1 1-6zM114 30a4 4 0 0 0-2 1 15 15 0 0 0 2-1zm102 81c2-3 2-7 2-11-3 6-8 13-13 13-10 1-3-9 0-14 6-6 9-14 6-23-1 11-19 32-30 29l1 4 4 8c-4 1-24 11-31 25 0 0-11-19 15-39 0 0-18-1-27 12 0 0 0-15 9-25 0 0-25 11-38 0 0 0 15-4 22-17a36 36 0 0 1 18-17 31 31 0 0 0-27 11s9-21 31-20c0 0-11-10-25 0 0 0 26-26 46-10 0 0 9-13-2-24a11 11 0 0 0-2 1l-4 1-4 1 5 1a10 10 0 0 1 4 4c2 3 2 6 2 9l-1-1c-7-1-10-6-19-5-8 2-15 6-22 10l-5 4-6 4a42 42 0 0 1-5 3 6 6 0 0 1-2 1h-2c-3 1-6-3-6-6l2-9a50 50 0 0 0-4 5c-2 3-5 6-6 10-1 3-2 6 0 9l5 4 3 1-10-1a7 7 0 0 1-4-3l-1-5-2 7v6c0 2 4 9 7 8l1 2h-1c-5 0-9 4-12 8l-4 5a49 49 0 0 0-2 6c-1 3-2 6-1 9 0 2 1 3-1 4a42 42 0 0 1-8 1h-3l-3-1a21 21 0 0 0 6 6 7 7 0 0 0 3 1l4-1-4 7a19 19 0 0 0-1 5v7l2 7v-3l1-3c1-3 3-6 7-6v11l2 7 2 3c0-2 3-2 3-4l4-1 4 1a7 7 0 0 1 2 2l4 2a21 21 0 0 1 3 4 27 27 0 0 1 5 8l1 5 1 4h1a25 25 0 0 0 1 8 20 20 0 0 0 3 6l6 5v-3a20 20 0 0 1 0-3 24 24 0 0 1 1-6 44 44 0 0 1 3-6 22 22 0 0 0 2-5 9 9 0 0 1 1-2 19 19 0 0 1 1 6l-1 8c5-2 10-7 14-11a23 23 0 0 0 2-3l1-3 1-4 1-2c3 4 6 8 11 9l-1-3a16 16 0 0 1-1-4 23 23 0 0 1 2-7c1-5 4-9 7-13s8-6 12-9l7-4-1-2 1 1 1-1h1a14 14 0 0 0 3 1c3 1 6 2 10 1a20 20 0 0 0 4-2c4-2 6-5 8-9zm107-40c-9 13-26 10-36 0 3 4 6 11 10 15 6 1 12 1 17-3l5-5c3-2 4-4 5-7zm-83-57zm50 41a29 29 0 0 1 8 4 16 16 0 0 0-5-4 16 16 0 0 0-5-1h-2l3-3c3 1 7-2 9-3 2-2 5-6 4-9a9 9 0 0 1-5 5c-5 4-15 3-21 0-2 11 7 10 14 11zm-6 63c4 4 3 13 3 19-2-7-7-12-11-18-4-5-4-12-7-17l-1-2-2 28c2 8 9 14 11 23 3 7-1 12 0 20 0-2 2-4 3-5l1-2 2-2c3-4 6-8 6-14l3 6 1 4a9 9 0 0 1 1 5l2-4a25 25 0 0 0 1-4 34 34 0 0 0 1-9 31 31 0 0 0-1-7l-2-6h-1l1-4a21 21 0 0 0 7 5 42 42 0 0 0 6 1 36 36 0 0 0 6 1h6a7 7 0 0 1-4-1c-10 0-24-14-32-17zm-8 54v-1a3 3 0 0 0 0 1zm35-73a25 25 0 0 0 5-6c-7 8-23 2-32 0 7 7 16 13 21 21l-2-4a22 22 0 0 0-3-4l-2-3-2-4c5 2 11 4 15 0zm-78 22c-8 1-12-5-13-12-1 8-8 12-16 13l6 5c16 11 34 0 42-16l-1 4c-2 9-8 19-18 21 8 4 18 1 25-4-10 6 0-19 1-23 0-9-2-15-6-24 3 14-5 34-20 36z" fill="url(#Sfumatura_senza_nome_31-3)"/><path d="M100 109c-6-8-12-16-6-26-5 7-7 14-3 22a60 60 0 0 1-6-2 9 9 0 0 0 3 4c-5 3-9 10-8 17 2-3 5-5 9-5-1 6-3 12-1 18l1 3c2-2 7-3 10-2-3-3-7-4-7-8s2-12 6-15a10 10 0 0 0-7-1c3-3 5-5 9-5zm10 37l-2-1c3 2 6 7 7 10a52 52 0 0 1 4-8c-3 1-6 2-9-1zm15 6l-2 3c-3 6-6 14-2 20 0-8 9-26 16-14a35 35 0 0 0-1-13c-2 5-7 8-11 4zm-21-81c1 4-2 5-5 7l-1 1c6-1 12-6 15-10-5-2-11-2-16-6 1 3 6 6 7 8zm8-15l4-2c-5 2-11-3-12-7 0 5 2 11 8 9zm168 85l-1-2a60 60 0 0 1 3 16c4-2 3-8 5-12-3 4-6 2-7-2zm14-2a11 11 0 0 1-3 4l1 2a29 29 0 0 1 3 7 23 23 0 0 0-1-13z" fill="url(#Sfumatura_senza_nome_2)"/><path d="M251 24c6 0 10 1 15 5s5 8 12 9a17 17 0 0 0 3 1 26 26 0 0 1-4-3l-4-5-4-4-5-4-6-3c-4-2-8-2-11-2a22 22 0 0 0-8 2c-1 2 7 3 12 4zm50 48a19 19 0 0 0 11 0 28 28 0 0 1-9-8c-3-3-6-7-10-9a7 7 0 0 0-1 0c-5 0-5 6-3 10 2 3 9 6 12 7zm-143 55c4-7 13-12 19-14l-6-5c-8 2-13 12-13 19zm57-112a29 29 0 0 0-9 4l-3 3-2 3h-2a18 18 0 0 0-2-5l-5-4a18 18 0 0 0-4-1 33 33 0 0 0-4-1c4 3 3 9 7 12 5 5 13 2 17-1 6-5 11-9 17-12a39 39 0 0 0-10 2zm67 67c-2-10-8-14-15-20 4 0 8 0 12-2-12-5-10-19-18-27-6-5-19-3-25 0 4 2 7 6 6 11-18-5-22 10-25 24h-2c4 6 1 13 1 19 5-5 7-11 11-15-3 12 9 24 2 36 14-8 18-17 17-33 7 4 18 13 18 22V86c6 2 11 9 15 14-3-7-1-16-6-23 4 0 7 2 9 5zm24 33a36 36 0 0 0-3-5v-1c-6-5-14-8-21-12l3 5c3 9 12 14 18 19l8 9a36 36 0 0 1-4-10l-1-5zm-46 4l-1 6c8-3 6-16 3-22a111 111 0 0 0-2 16zm-30-7l-2 1c16 6 23-11 21-25-3 9-7 22-19 24zm-37-69c2 3 1 7 0 10-6-7-22-17-31-12 3 3 8 5 8 10-4-2-8 1-13 2 4-1 10 1 12 4-8 1-16 6-22 11s-9 12-14 18l-6 2c13 6 28-10 40-10-6 5-12 14-13 22 8-10 23-7 31-16a34 34 0 0 1-7 11c14 2 29-8 30-23 1-13-6-22-15-29z" fill="url(#Sfumatura_senza_nome_102)"/><path d="M195 67c-5-8-11-16-21-12 5 2 11 2 15 8-10-5-23-2-31 4l-12 9c6-3 12-8 19-8 5 0 17 0 21 3-7 0-14 9-16 15 7-5 16-6 22-13 4 3 5 9 3 13 11-4 8-22 2-29 1 3 0 7-2 10zm59-10c2-2 8-1 12-1-10-3-10-16-20-18 2 3 4 7 4 11s1 6-3 5c-5 0-7-4-12-3-4 1-7 4-9 7-2 4-4 7-4 11 1-3 9-10 13-10-5 11 1 22 1 32l5-16 1-7c5-2 18 10 20 13l-3-11c3 1 7 3 9 6-1-9-10-12-14-19zm-92 62h1l7-6c-3-4-6 3-8 6zm74-7l3-1a15 15 0 0 0 8-11l-11 12zm27-4l-1 11c2-2 2-5 1-8zm28-4l-2-1 12 11c0-5-5-9-10-10zm10-38c-2-3-5-8-8-9l-1 2h-1c3 4 6 5 10 7z" fill="url(#Sfumatura_senza_nome_110)"/><path d="M151 155c-1 8-9 17-17 20 1-4 1-9-1-13a1 1 0 0 0-1 0l-3 8a42 42 0 0 0-3 6 23 23 0 0 0-1 6 11 11 0 0 0 0 2v2c-5-2-7-9-8-12a24 24 0 0 1-1-11l4-8h-1c-2 3-4 6-4 10a34 34 0 0 0-6-14 45 45 0 0 0-8-8 11 11 0 0 0-6-2 1 1 0 0 0 0 2c5 0 11 5 14 9a31 31 0 0 1 3 8c1 2 3 5 3 8a27 27 0 0 0 2 9c1 4 5 10 9 10a1 1 0 0 0 1 0 23 23 0 0 1 1-13l3-7a20 20 0 0 0 1-4c2 4 2 9 0 13l1 1c9-4 18-13 18-22 0-1 0-1 0 0zM88 84c3-5 7-9 13-9l-1-2c-4 0-7 2-10 5l-7 10c-2 3-4 9-3 13v3l-3 2H66l-1 1a22 22 0 0 0 7 6h6c-3 4-5 8-5 13 0 4 0 9 2 13h1c1-4 1-7 3-10 1-1 3-3 4-1a7 7 0 0 1 0 3 33 33 0 0 0 0 5l2 9 2 3a1 1 0 0 0 1 0c0-2 3-3 3-5l-4 4-1-5a25 25 0 0 1-2-9 44 44 0 0 0 0-7 1 1 0 0 0-1-1c-2 0-3 2-5 4a29 29 0 0 0-2 4 10 10 0 0 0-1 3l-1-10c0-5 3-9 6-13a1 1 0 0 0-1-1h-7a16 16 0 0 1-5-5 32 32 0 0 0 13-1c4-1 2-3 2-5l1-9a26 26 0 0 1 5-9zm12-11v-1c-4 0-6-6-6-9a25 25 0 0 1 0-6 24 24 0 0 1 0-3c0-1 0-3 1-1 1 3 1 5 3 6 4 2 8 1 12 2a1 1 0 0 0 0-2h-3a9 9 0 0 1-5-4c-2-4 0-8 1-12a47 47 0 0 1 7-8 14 14 0 0 0 0 8c4 8 11 3 16 0l11-9a70 70 0 0 1 16-7c5-2 10-2 15 0a30 30 0 0 0 9 3h1v-1c0-4 0-7-3-10a10 10 0 0 0-2-2l-4-1a32 32 0 0 1 7-2 23 23 0 0 1 8 1c6 1 12 3 14 10h1c-1-8-7-10-13-12a23 23 0 0 0-10 0c-3 0-7 1-9 3v1h2c3 0 5 1 6 3l2 8c-5-1-10-5-15-5-8 0-16 4-22 7l-19 14c-2 1-6 2-8 0a7 7 0 0 1-2-5 16 16 0 0 1 1-7l3-2a1 1 0 0 0-1-1 6 6 0 0 0-3 3c-4 4-9 9-10 16-1 3-1 6 1 8a11 11 0 0 0 3 3 6 6 0 0 0 1 0 19 19 0 0 1-5 0c-4-1-5-4-5-8a1 1 0 0 0-1 0l-2 4v9c1 3 3 8 7 9zm101-48c3-6 12-9 18-10 5-2 11-1 17-1a20 20 0 0 0-3 2 57 57 0 0 0-4 4l-3 4c0 1 1 2 2 1l3-3 2-3c2-2 5-5 7-5a1 1 0 0 0 0-1c-8 0-16-2-24 1-6 2-13 5-15 11zm30 0c6-6 16-7 24-5s15 8 19 14c5 6 18 15 26 10-3 3-7 6-11 7a1 1 0 0 0 0 1c7 1 14-7 15-13a1 1 0 0 0-2-1c-5 9-16 4-21-1s-10-11-16-14l-8-4a30 30 0 0 0-10-1 23 23 0 0 0-16 7zm93 43c-4 4-9 5-14 2-4-2-6-6-9-9s-5-6-9-7c-3-1-7 0-11 1 7 0 12-1 16 4l9 10c2 2 6 5 9 5a17 17 0 0 0 8-3 12 12 0 0 1-3 5l-6 5c-5 5-11 5-17 5a1 1 0 0 0 0 1c6 0 13 0 18-4l8-7a20 20 0 0 0 3-7l-2-1zm-15 31c-4 2-9 1-13-1v2c5 2 11 4 15 0 3-1 6-6 6-9h-1c-2 3-8 3-11 2-2 0-8-1-8-4-1 3 6 5 8 5 3 1 8 1 10-1a16 16 0 0 1-6 6zm11 36c-5 0-8-5-10-8a30 30 0 0 1-2-6l-2-6a28 28 0 0 0-4-7l-4-5-1 1c4 1 6 7 8 10 1 3 1 7 3 10 2 5 4 10 9 12l-11-2a34 34 0 0 1-11-5l-1 1c3 3 8 5 12 6s11 2 14 0v-1zm-25-2v1l2 8a38 38 0 0 1 1 7 34 34 0 0 1-2 7 18 18 0 0 1-2 4c0-4-3-8-4-12h-2c0 7-4 11-8 16a27 27 0 0 0-3 4c1-7 3-13 0-19l-11-22c2 8 6 13 9 20a24 24 0 0 1 2 13l-1 10a6 6 0 0 0 0 2 1 1 0 0 0 1 0c1-4 5-8 8-11l5-10c2 4 4 8 3 12h2l3-6a36 36 0 0 0 1-8 35 35 0 0 0-1-8c0-3-2-5-3-8zm-26-30a1 1 0 0 0-1 0c-1 9-1 18-7 25s-16 10-26 8c9-3 14-12 16-21a36 36 0 0 0 4-13h-1c-2 10-9 19-18 25-10 5-21 3-30-4 8-3 14-7 14-16-1 6-4 9-8 12a19 19 0 0 0 2-4c4-5 4-9 4-15 0 9-6 20-16 21-5 1-9-1-13-4a14 14 0 0 1-4-4l-1-2a11 11 0 0 0 4 1 14 14 0 0 0 5-2l4-2a50 50 0 0 0 15-18v-1l-6 9a50 50 0 0 1-10 8 49 49 0 0 1-5 3c-2 1-5 2-7 1l-2-2a1 1 0 0 0-2 1c0 2 2 3 3 5a11 11 0 0 0 3 4l4 2c-7 6-16 10-22 18-3 3-5 7-6 12a27 27 0 0 0-1 6 20 20 0 0 0 1 5c-7-4-11-10-13-17-3-9-2-17 5-24a1 1 0 0 0-1-1c-8 7-9 16-7 25 3 8 8 17 16 19a1 1 0 0 0 1-1v-14l8-12c5-7 14-10 19-15l12 3a14 14 0 0 0 2-1c9 8 20 12 31 7a36 36 0 0 0 15-13c-2 8-8 16-17 18a1 1 0 0 0 0 1c10 5 21 2 29-5s7-18 7-28z" fill="url(#Sfumatura_senza_nome_38-3)"/></svg>