<svg width="500" height="500" viewBox="0 0 500 500" fill="none" xmlns="http://www.w3.org/2000/svg">
<path d="M477.11 232.23C483.24 178.37 465.03 124.29 426.81 85.87C408 67 382.3 49.17 348.15 40.57C252.38 16.45 190.3 38.57 159.27 97.23C128.24 155.89 39.2004 145.8 25.0004 247C10.8004 348.2 79.6704 459.48 196.37 465.55C313.07 471.62 298.05 413.55 361.89 388.61C410.72 369.55 468 312.59 477.11 232.23Z" fill="#E39292"/>
<path opacity="0.7" d="M477.11 232.23C483.24 178.37 465.03 124.29 426.81 85.87C408 67 382.3 49.17 348.15 40.57C252.38 16.45 190.3 38.57 159.27 97.23C128.24 155.89 39.2004 145.8 25.0004 247C10.8004 348.2 79.6704 459.48 196.37 465.55C313.07 471.62 298.05 413.55 361.89 388.61C410.72 369.55 468 312.59 477.11 232.23Z" fill="white"/>
<path d="M406.26 221.12C402.14 212.12 396.61 210.12 396.61 210.12" stroke="#263238" stroke-linecap="round" stroke-linejoin="round"/>
<path d="M413.661 212.43L411.391 220.94" stroke="#263238" stroke-linecap="round" stroke-linejoin="round"/>
<path d="M416.07 221.06L427.18 199.66" stroke="#263238" stroke-linecap="round" stroke-linejoin="round"/>
<path d="M408.78 188.63L411 220.83" stroke="#263238" stroke-linecap="round" stroke-linejoin="round"/>
<path d="M416.77 232.75V228.11L423.11 221.06H397.74L404.08 228.11V232.75C404.082 236.667 403.276 240.543 401.714 244.135C400.152 247.728 397.866 250.96 395 253.63V253.63V282H425.87V253.63C423.002 250.96 420.714 247.729 419.148 244.136C417.583 240.544 416.773 236.669 416.77 232.75V232.75Z" stroke="#263238" stroke-linecap="round" stroke-linejoin="round"/>
<path d="M401.79 209.72C409.64 202.65 404.1 197.11 397.02 204.96C396.968 205.016 396.904 205.061 396.834 205.092C396.763 205.123 396.687 205.139 396.61 205.139C396.533 205.139 396.457 205.123 396.387 205.092C396.316 205.061 396.253 205.016 396.2 204.96C389.13 197.11 383.58 202.65 391.43 209.72C391.49 209.772 391.537 209.835 391.57 209.907C391.603 209.979 391.619 210.056 391.619 210.135C391.619 210.214 391.603 210.291 391.57 210.363C391.537 210.435 391.49 210.498 391.43 210.55C383.58 217.62 389.13 223.16 396.2 215.32C396.251 215.261 396.314 215.213 396.385 215.181C396.455 215.148 396.532 215.131 396.61 215.131C396.688 215.131 396.765 215.148 396.836 215.181C396.907 215.213 396.97 215.261 397.02 215.32C404.1 223.16 409.64 217.62 401.79 210.55C401.734 210.497 401.689 210.432 401.658 210.361C401.627 210.29 401.611 210.213 401.611 210.135C401.611 210.057 401.627 209.98 401.658 209.909C401.689 209.838 401.734 209.773 401.79 209.72V209.72Z" fill="#263238"/>
<path d="M399.161 210.14C399.163 209.635 399.015 209.141 398.736 208.721C398.457 208.3 398.059 207.972 397.593 207.777C397.128 207.583 396.615 207.531 396.119 207.628C395.624 207.725 395.169 207.967 394.811 208.323C394.453 208.68 394.209 209.134 394.11 209.629C394.011 210.124 394.061 210.637 394.254 211.104C394.446 211.57 394.773 211.969 395.193 212.25C395.612 212.53 396.106 212.68 396.611 212.68C397.285 212.68 397.932 212.413 398.41 211.937C398.888 211.461 399.158 210.815 399.161 210.14V210.14Z" fill="white" stroke="#263238" stroke-linecap="round" stroke-linejoin="round"/>
<path d="M413.48 190.84C423.81 188.6 421.75 181.04 411.71 184.34C411.637 184.364 411.559 184.372 411.482 184.364C411.405 184.357 411.331 184.332 411.264 184.294C411.197 184.255 411.139 184.203 411.093 184.14C411.048 184.077 411.016 184.006 411 183.93C408.76 173.6 401.19 175.66 404.49 185.7C404.515 185.773 404.523 185.851 404.515 185.928C404.507 186.005 404.483 186.08 404.444 186.147C404.405 186.214 404.353 186.272 404.29 186.317C404.228 186.362 404.156 186.394 404.08 186.41C393.76 188.65 395.81 196.22 405.85 192.92C405.925 192.896 406.003 192.887 406.081 192.895C406.158 192.903 406.233 192.927 406.301 192.966C406.369 193.004 406.428 193.057 406.474 193.119C406.521 193.182 406.553 193.254 406.57 193.33C408.8 203.65 416.37 201.59 413.07 191.56C413.046 191.486 413.038 191.407 413.046 191.33C413.054 191.252 413.078 191.177 413.116 191.109C413.155 191.042 413.207 190.983 413.27 190.936C413.333 190.89 413.404 190.857 413.48 190.84V190.84Z" fill="#263238"/>
<path d="M411 189.89C411.244 189.449 411.35 188.945 411.308 188.443C411.265 187.94 411.074 187.462 410.759 187.068C410.445 186.675 410.02 186.383 409.54 186.23C409.06 186.077 408.545 186.07 408.061 186.21C407.576 186.349 407.144 186.629 406.819 187.014C406.494 187.399 406.29 187.872 406.233 188.373C406.176 188.874 406.269 189.38 406.5 189.828C406.731 190.276 407.09 190.646 407.53 190.89C407.824 191.054 408.146 191.158 408.48 191.197C408.813 191.235 409.151 191.207 409.474 191.114C409.797 191.021 410.098 190.865 410.36 190.655C410.622 190.445 410.84 190.185 411 189.89V189.89Z" fill="white" stroke="#263238" stroke-linecap="round" stroke-linejoin="round"/>
<path d="M430.27 203.84C440.42 206.75 442.19 199.11 431.79 197.27C431.713 197.258 431.639 197.229 431.574 197.186C431.508 197.143 431.453 197.086 431.411 197.02C431.37 196.953 431.343 196.879 431.332 196.802C431.321 196.724 431.328 196.645 431.35 196.57C434.26 186.42 426.63 184.65 424.78 195.05C424.767 195.127 424.739 195.201 424.696 195.266C424.652 195.332 424.596 195.387 424.529 195.429C424.463 195.47 424.389 195.497 424.311 195.508C424.234 195.518 424.155 195.512 424.08 195.49C413.93 192.58 412.16 200.21 422.56 202.06C422.637 202.072 422.711 202.101 422.776 202.144C422.841 202.188 422.897 202.244 422.938 202.31C422.98 202.377 423.007 202.451 423.018 202.529C423.028 202.606 423.022 202.685 423 202.76C420.09 212.91 427.73 214.68 429.57 204.28C429.582 204.203 429.611 204.129 429.654 204.064C429.697 203.999 429.754 203.943 429.82 203.902C429.886 203.86 429.961 203.833 430.038 203.822C430.116 203.812 430.195 203.818 430.27 203.84V203.84Z" fill="#263238"/>
<path d="M428.531 201.83C428.957 201.563 429.295 201.175 429.501 200.716C429.708 200.258 429.774 199.748 429.692 199.252C429.609 198.755 429.382 198.294 429.038 197.927C428.694 197.56 428.249 197.302 427.76 197.187C427.27 197.072 426.757 197.104 426.286 197.28C425.814 197.456 425.405 197.767 425.11 198.174C424.815 198.582 424.647 199.068 424.628 199.571C424.608 200.073 424.738 200.571 425.001 201C425.177 201.287 425.409 201.536 425.683 201.732C425.956 201.929 426.265 202.07 426.593 202.148C426.921 202.225 427.261 202.236 427.594 202.182C427.926 202.127 428.244 202.008 428.531 201.83Z" fill="white" stroke="#263238" stroke-linecap="round" stroke-linejoin="round"/>
<path d="M416.751 216.6C426.911 219.52 428.671 211.88 418.271 210.03C418.194 210.016 418.121 209.986 418.057 209.943C417.992 209.899 417.938 209.843 417.896 209.777C417.855 209.711 417.828 209.637 417.816 209.56C417.805 209.483 417.81 209.405 417.831 209.33C420.751 199.18 413.111 197.41 411.261 207.82C411.248 207.896 411.22 207.968 411.177 208.033C411.135 208.097 411.079 208.151 411.013 208.192C410.948 208.232 410.875 208.259 410.798 208.269C410.722 208.279 410.644 208.272 410.571 208.25C400.411 205.34 398.641 212.98 409.051 214.82C409.127 214.834 409.2 214.863 409.264 214.907C409.328 214.951 409.382 215.007 409.423 215.074C409.463 215.14 409.489 215.214 409.499 215.291C409.509 215.367 409.503 215.446 409.481 215.52C406.571 225.67 414.211 227.44 416.051 217.04C416.063 216.963 416.092 216.889 416.135 216.824C416.178 216.758 416.235 216.703 416.301 216.661C416.367 216.62 416.442 216.593 416.519 216.582C416.597 216.572 416.676 216.578 416.751 216.6V216.6Z" fill="#263238"/>
<path d="M415.001 214.59C415.429 214.323 415.768 213.935 415.976 213.475C416.183 213.015 416.25 212.504 416.167 212.006C416.084 211.509 415.855 211.047 415.509 210.679C415.164 210.312 414.717 210.055 414.225 209.941C413.733 209.828 413.219 209.863 412.747 210.042C412.275 210.221 411.867 210.536 411.575 210.947C411.282 211.358 411.118 211.846 411.103 212.35C411.088 212.855 411.223 213.352 411.491 213.78C411.851 214.35 412.422 214.755 413.079 214.907C413.736 215.058 414.427 214.944 415.001 214.59V214.59Z" fill="white" stroke="#263238" stroke-linecap="round" stroke-linejoin="round"/>
<path d="M346.17 290.64V467.28H351.63V347.99H463.82V467.28H469.29V290.64H346.17Z" stroke="#263238" stroke-linecap="round" stroke-linejoin="round"/>
<path d="M473.35 282.1H342.11V290.64H473.35V282.1Z" stroke="#263238" stroke-linecap="round" stroke-linejoin="round"/>
<path d="M462.27 301.31H353.87V339.17H462.27V301.31Z" stroke="#263238" stroke-linecap="round" stroke-linejoin="round"/>
<path d="M425.18 315.83H390.95V324.65H425.18V315.83Z" stroke="#263238" stroke-linecap="round" stroke-linejoin="round"/>
<path d="M455.04 20.01H363.83V127.27H455.04V20.01Z" stroke="black" stroke-linecap="round" stroke-linejoin="round"/>
<path d="M451.18 26.45H367.69V120.84H451.18V26.45Z" stroke="black" stroke-linecap="round" stroke-linejoin="round"/>
<path d="M407.451 50.5701H378.021V96.7201H407.451V50.5701Z" stroke="black" stroke-linecap="round" stroke-linejoin="round"/>
<path d="M440.84 50.5701H411.41V96.7201H440.84V50.5701Z" stroke="black" stroke-linecap="round" stroke-linejoin="round"/>
<path d="M302.24 192.75L283.37 175.5" stroke="white" stroke-linecap="round" stroke-linejoin="round"/>
<path d="M50.5 275.1L65.65 420.31" stroke="#263238" stroke-linecap="round" stroke-linejoin="round"/>
<path d="M62.6698 391.91L56.3398 385.26" stroke="#263238" stroke-linecap="round" stroke-linejoin="round"/>
<path d="M58.4296 387.43C58.4143 386.321 58.1619 385.227 57.6893 384.224C57.2167 383.22 56.5349 382.329 55.6896 381.61C53.9296 380.03 44.6896 376.13 43.7696 379.4C42.8096 383 52.3096 389.93 58.4296 387.43Z" fill="#E39292" stroke="#263238" stroke-linejoin="round"/>
<path d="M58.4298 387.43L49.5898 381.93" stroke="#263238" stroke-linecap="round" stroke-linejoin="round"/>
<path d="M64.2396 406.91L58.0596 401.77" stroke="#263238" stroke-linecap="round" stroke-linejoin="round"/>
<path d="M60.1496 404C60.137 402.889 59.8858 401.793 59.4131 400.787C58.9404 399.781 58.2571 398.889 57.4095 398.17C55.6495 396.6 46.4096 392.69 45.4896 395.96C44.5296 399.47 53.9996 406.45 60.1496 404Z" fill="#E39292" stroke="#263238" stroke-linejoin="round"/>
<path d="M60.1496 403.95L51.3096 398.44" stroke="#263238" stroke-linecap="round" stroke-linejoin="round"/>
<path d="M58.3699 350.57L52.1299 344.96" stroke="#263238" stroke-linecap="round" stroke-linejoin="round"/>
<path d="M54.2197 347.14C54.207 346.03 53.9568 344.935 53.486 343.929C53.0151 342.924 52.3344 342.031 51.4897 341.31C49.7197 339.73 40.4397 335.83 39.5597 339.1C38.5997 342.65 48.0997 349.64 54.2197 347.14Z" fill="#E39292" stroke="#263238" stroke-linejoin="round"/>
<path d="M54.2197 347.14L45.3896 341.63" stroke="#263238" stroke-linecap="round" stroke-linejoin="round"/>
<path d="M60.1104 368.14L53.8604 361.48" stroke="#263238" stroke-linecap="round" stroke-linejoin="round"/>
<path d="M55.94 363.65C55.9273 362.54 55.6772 361.445 55.2063 360.439C54.7354 359.434 54.0547 358.541 53.21 357.82C51.45 356.25 42.21 352.34 41.28 355.61C40.33 359.17 49.83 366.15 55.94 363.65Z" fill="#E39292" stroke="#263238" stroke-linejoin="round"/>
<path d="M55.9403 363.65L47.1104 358.14" stroke="#263238" stroke-linecap="round" stroke-linejoin="round"/>
<path d="M55.5901 324.51L49.3301 318.14" stroke="#263238" stroke-linecap="round" stroke-linejoin="round"/>
<path d="M51.4199 320.31C51.4072 319.2 51.157 318.105 50.6862 317.099C50.2153 316.094 49.5346 315.201 48.6899 314.48C46.9199 312.91 37.6899 309 36.7599 312.27C35.7999 315.83 45.2999 322.81 51.4199 320.31Z" fill="#E39292" stroke="#263238" stroke-linejoin="round"/>
<path d="M51.4198 320.31L42.5898 314.8" stroke="#263238" stroke-linecap="round" stroke-linejoin="round"/>
<path d="M52.5795 295.83L46.5195 291.19" stroke="#263238" stroke-linecap="round" stroke-linejoin="round"/>
<path d="M48.61 293.37C48.5974 292.259 48.3462 291.163 47.8735 290.157C47.4008 289.151 46.7175 288.259 45.87 287.54C44.11 285.96 34.87 282.06 33.95 285.33C33 288.88 42.49 295.86 48.61 293.37Z" fill="#E39292" stroke="#263238" stroke-linejoin="round"/>
<path d="M48.6095 293.37L39.7695 287.86" stroke="#263238" stroke-linecap="round" stroke-linejoin="round"/>
<path d="M62.0498 382.75L67.2798 374.23" stroke="#263238" stroke-linecap="round" stroke-linejoin="round"/>
<path d="M65.6804 376.79C65.4663 375.7 65.4876 374.576 65.7428 373.495C65.998 372.414 66.4814 371.399 67.1604 370.52C68.5604 368.61 76.8304 362.88 78.3704 365.89C80.0004 369.17 72.1904 378 65.6804 376.79Z" fill="#E39292" stroke="#263238" stroke-linejoin="round"/>
<path d="M65.6797 376.79L71.8997 370.95" stroke="#263238" stroke-linecap="round" stroke-linejoin="round"/>
<path d="M57.5195 339.29L62.7395 330.77" stroke="#263238" stroke-linecap="round" stroke-linejoin="round"/>
<path d="M61.1503 333.33C60.9328 332.241 60.9515 331.117 61.2051 330.035C61.4587 328.954 61.9413 327.939 62.6203 327.06C64.0203 325.16 70.4903 320.38 72.0303 323.4C73.7003 326.68 67.6503 334.51 61.1503 333.33Z" fill="#E39292" stroke="#263238" stroke-linejoin="round"/>
<path d="M61.1504 333.33L69.1004 325.72" stroke="#263238" stroke-linecap="round" stroke-linejoin="round"/>
<path d="M55.5303 320.19L60.7503 311.67" stroke="#263238" stroke-linecap="round" stroke-linejoin="round"/>
<path d="M59.1596 314.23C58.9481 313.147 58.9698 312.031 59.2233 310.957C59.4768 309.882 59.9562 308.874 60.6296 308C62.0296 306.1 70.2996 300.36 71.8396 303.38C73.5096 306.62 65.6596 315.41 59.1596 314.23Z" fill="#E39292" stroke="#263238" stroke-linejoin="round"/>
<path d="M59.1602 314.23L67.1102 306.63" stroke="#263238" stroke-linecap="round" stroke-linejoin="round"/>
<path d="M52.5996 292.19L57.8296 283.67" stroke="#263238" stroke-linecap="round" stroke-linejoin="round"/>
<path d="M56.2298 286.23C56.0216 285.146 56.0459 284.03 56.301 282.956C56.5562 281.882 57.0363 280.875 57.7098 280C59.1098 278.1 67.3798 272.36 68.9198 275.38C70.5898 278.62 62.7398 287.41 56.2298 286.23Z" fill="#E39292" stroke="#263238" stroke-linejoin="round"/>
<path d="M56.2305 286.23L64.1905 278.63" stroke="#263238" stroke-linecap="round" stroke-linejoin="round"/>
<path d="M50.3703 274.29C50.1498 273.197 50.167 272.07 50.4207 270.985C50.6743 269.9 51.1585 268.882 51.8403 268C53.2403 266.1 61.5203 260.36 63.0503 263.38C64.7203 266.68 56.8703 275.47 50.3703 274.29Z" fill="#E39292" stroke="#263238" stroke-linejoin="round"/>
<path d="M50.3701 274.29L58.3201 266.69" stroke="#263238" stroke-linecap="round" stroke-linejoin="round"/>
<path d="M50.8297 274.62C49.7238 274.719 48.6095 274.581 47.561 274.216C46.5126 273.85 45.5542 273.265 44.7497 272.5C43.0097 270.9 38.1697 262.07 41.3297 260.86C44.7697 259.54 52.6897 268.28 50.8297 274.62Z" fill="#E39292" stroke="#263238" stroke-linejoin="round"/>
<path d="M50.8296 274.62L44.0996 265.91" stroke="#263238" stroke-linecap="round" stroke-linejoin="round"/>
<path d="M73.2002 235.96V419.6" stroke="#263238" stroke-linecap="round" stroke-linejoin="round"/>
<path d="M90.4704 295.09L75.4004 440.31" stroke="#263238" stroke-linecap="round" stroke-linejoin="round"/>
<path d="M78.5796 410.64L75.0996 406.66" stroke="#263238" stroke-linecap="round" stroke-linejoin="round"/>
<path d="M75.1003 406.66C75.3144 405.57 75.2931 404.446 75.0378 403.365C74.7826 402.284 74.2993 401.269 73.6203 400.39C72.2203 398.49 63.9403 392.76 62.4103 395.77C60.7403 399.06 68.5903 407.84 75.1003 406.66Z" fill="#E39292" stroke="#263238" stroke-linejoin="round"/>
<path d="M75.1001 406.66L67.5801 399.45" stroke="#263238" stroke-linecap="round" stroke-linejoin="round"/>
<path d="M82.8401 369.18L77.6602 364.86" stroke="#263238" stroke-linecap="round" stroke-linejoin="round"/>
<path d="M79.2797 366.36C79.4938 365.27 79.4725 364.146 79.2173 363.065C78.9621 361.984 78.4787 360.97 77.7997 360.09C76.3997 358.19 68.1197 352.46 66.5897 355.47C64.9197 358.75 72.7797 367.54 79.2797 366.36Z" fill="#E39292" stroke="#263238" stroke-linejoin="round"/>
<path d="M79.2795 366.36L71.7695 359.15" stroke="#263238" stroke-linecap="round" stroke-linejoin="round"/>
<path d="M81.1997 388.83L75.9697 380.32" stroke="#263238" stroke-linecap="round" stroke-linejoin="round"/>
<path d="M77.56 382.87C77.7779 381.782 77.7595 380.66 77.5058 379.58C77.2522 378.5 76.7694 377.487 76.09 376.61C74.69 374.7 66.41 368.97 64.87 371.99C63.2 375.27 71.06 384.06 77.56 382.87Z" fill="#E39292" stroke="#263238" stroke-linejoin="round"/>
<path d="M77.5598 382.87L70.0498 375.67" stroke="#263238" stroke-linecap="round" stroke-linejoin="round"/>
<path d="M85.4597 342.72L80.4697 336.97" stroke="#263238" stroke-linecap="round" stroke-linejoin="round"/>
<path d="M82.06 339.53C82.2748 338.44 82.2548 337.318 82.0013 336.236C81.7479 335.155 81.2667 334.141 80.59 333.26C79.18 331.36 70.91 325.63 69.37 328.64C67.7 331.93 75.56 340.71 82.06 339.53Z" fill="#E39292" stroke="#263238" stroke-linejoin="round"/>
<path d="M82.0598 339.53L74.5498 332.32" stroke="#263238" stroke-linecap="round" stroke-linejoin="round"/>
<path d="M88.0798 317.51L83.2598 310.03" stroke="#263238" stroke-linecap="round" stroke-linejoin="round"/>
<path d="M84.8598 312.58C85.0744 311.491 85.0533 310.369 84.798 309.29C84.5427 308.21 84.0592 307.197 83.3798 306.32C81.9798 304.41 73.6998 298.68 72.1698 301.7C70.4998 305 78.3598 313.77 84.8598 312.58Z" fill="#E39292" stroke="#263238" stroke-linejoin="round"/>
<path d="M84.8596 312.58L77.3496 305.38" stroke="#263238" stroke-linecap="round" stroke-linejoin="round"/>
<path d="M79.6104 402.82L86.4804 395.56" stroke="#263238" stroke-linecap="round" stroke-linejoin="round"/>
<path d="M84.3896 397.73C84.4023 396.62 84.6525 395.525 85.1234 394.519C85.5942 393.514 86.2749 392.621 87.1197 391.9C88.8797 390.33 98.1197 386.42 99.0497 389.68C99.9997 393.24 90.5096 400.23 84.3896 397.73Z" fill="#E39292" stroke="#263238" stroke-linejoin="round"/>
<path d="M84.3896 397.73L93.7396 391.93" stroke="#263238" stroke-linecap="round" stroke-linejoin="round"/>
<path d="M84.1201 359.36L90.9901 352.1" stroke="#263238" stroke-linecap="round" stroke-linejoin="round"/>
<path d="M88.9004 354.27C88.913 353.16 89.1632 352.065 89.6341 351.059C90.105 350.054 90.7857 349.161 91.6304 348.44C93.3904 346.87 102.63 342.96 103.56 346.22C104.52 349.78 95.0004 356.77 88.9004 354.27Z" fill="#E39292" stroke="#263238" stroke-linejoin="round"/>
<path d="M88.9004 354.27L98.2504 348.47" stroke="#263238" stroke-linecap="round" stroke-linejoin="round"/>
<path d="M86.0996 340.26L92.9696 333" stroke="#263238" stroke-linecap="round" stroke-linejoin="round"/>
<path d="M90.8799 335.17C90.8925 334.06 91.1427 332.965 91.6136 331.959C92.0845 330.954 92.7652 330.061 93.6099 329.34C95.3799 327.77 104.61 323.86 105.54 327.12C106.5 330.68 96.9999 337.67 90.8799 335.17Z" fill="#E39292" stroke="#263238" stroke-linejoin="round"/>
<path d="M90.8799 335.17L100.23 329.37" stroke="#263238" stroke-linecap="round" stroke-linejoin="round"/>
<path d="M88.9297 310.83L95.8697 305" stroke="#263238" stroke-linecap="round" stroke-linejoin="round"/>
<path d="M93.79 307.17C93.8027 306.06 94.0529 304.965 94.5238 303.959C94.9946 302.954 95.6753 302.061 96.52 301.34C98.28 299.77 107.52 295.86 108.44 299.12C109.4 302.68 99.91 309.67 93.79 307.17Z" fill="#E39292" stroke="#263238" stroke-linejoin="round"/>
<path d="M93.79 307.17L103.14 301.37" stroke="#263238" stroke-linejoin="round"/>
<path d="M90.5098 294.28C90.5224 293.17 90.7726 292.075 91.2435 291.069C91.7144 290.064 92.395 289.171 93.2398 288.45C94.9998 286.87 104.24 282.96 105.16 286.23C106.12 289.79 96.6298 296.77 90.5098 294.28Z" fill="#E39292" stroke="#263238" stroke-linejoin="round"/>
<path d="M90.5098 294.28L99.8598 288.48" stroke="#263238" stroke-linecap="round" stroke-linejoin="round"/>
<path d="M90.8904 294.7C89.7875 294.57 88.7252 294.206 87.7748 293.632C86.8244 293.057 86.008 292.286 85.3804 291.37C84.0004 289.45 81.0804 279.81 84.4304 279.28C88.0604 278.7 94.0004 288.87 90.8904 294.7Z" fill="#E39292" stroke="#263238" stroke-linejoin="round"/>
<path d="M90.8896 294.7L86.0996 284.79" stroke="#263238" stroke-linecap="round" stroke-linejoin="round"/>
<path d="M72.9498 391.65L67.2598 384.06" stroke="#263238" stroke-linecap="round" stroke-linejoin="round"/>
<path d="M69.1203 386.44C69.2194 385.334 69.0816 384.22 68.716 383.171C68.3504 382.123 67.7655 381.164 67.0002 380.36C65.4102 378.61 56.5802 373.76 55.3702 376.92C54.0502 380.36 62.7703 388.29 69.1203 386.44Z" fill="#E39292" stroke="#263238" stroke-linejoin="round"/>
<path d="M69.1204 386.44L60.9004 380.04" stroke="#263238" stroke-linecap="round" stroke-linejoin="round"/>
<path d="M73.1498 355.02L67.2598 349.55" stroke="#263238" stroke-linecap="round" stroke-linejoin="round"/>
<path d="M69.1203 351.93C69.2194 350.824 69.0816 349.71 68.716 348.661C68.3504 347.613 67.7655 346.654 67.0002 345.85C65.4102 344.1 56.5802 339.25 55.3702 342.41C54.0502 345.85 62.7703 353.78 69.1203 351.93Z" fill="#E39292" stroke="#263238" stroke-linejoin="round"/>
<path d="M69.1204 351.93L60.9004 345.53" stroke="#263238" stroke-linecap="round" stroke-linejoin="round"/>
<path d="M73.3398 316.96L67.2598 309.03" stroke="#263238" stroke-linecap="round" stroke-linejoin="round"/>
<path d="M69.1203 311.41C69.2194 310.304 69.0816 309.19 68.716 308.141C68.3504 307.093 67.7655 306.134 67.0002 305.33C65.4102 303.58 56.5802 298.73 55.3702 301.89C54.0502 305.33 62.7703 313.26 69.1203 311.41Z" fill="#E39292" stroke="#263238" stroke-linejoin="round"/>
<path d="M69.1204 311.41L60.9004 305.02" stroke="#263238" stroke-linecap="round" stroke-linejoin="round"/>
<path d="M72.9498 287.18L67.2598 282.06" stroke="#263238" stroke-linecap="round" stroke-linejoin="round"/>
<path d="M69.1203 284.44C69.2194 283.334 69.0816 282.22 68.716 281.171C68.3504 280.123 67.7655 279.164 67.0002 278.36C65.4102 276.61 56.5802 271.76 55.3702 274.92C54.0502 278.36 62.7703 286.29 69.1203 284.44Z" fill="#E39292" stroke="#263238" stroke-linejoin="round"/>
<path d="M69.1204 284.44L60.9004 278.04" stroke="#263238" stroke-linecap="round" stroke-linejoin="round"/>
<path d="M73.2799 260.2L67.3799 255.87" stroke="#263238" stroke-linecap="round" stroke-linejoin="round"/>
<path d="M69.1203 257.35C69.2194 256.244 69.0816 255.13 68.716 254.081C68.3504 253.033 67.7655 252.075 67.0002 251.27C65.4102 249.52 56.5802 244.67 55.3702 247.83C54.0502 251.27 62.7703 259.2 69.1203 257.35Z" fill="#E39292" stroke="#263238" stroke-linejoin="round"/>
<path d="M69.1204 257.35L60.9004 250.95" stroke="#263238" stroke-linecap="round" stroke-linejoin="round"/>
<path d="M74.3896 400.82L79.2896 394.6" stroke="#263238" stroke-linecap="round" stroke-linejoin="round"/>
<path d="M77.4404 397C77.338 395.895 77.4733 394.78 77.8372 393.731C78.2012 392.683 78.7853 391.724 79.5504 390.92C81.1404 389.18 89.9704 384.33 91.1904 387.49C92.5104 390.89 83.7804 398.82 77.4404 397Z" fill="#E39292" stroke="#263238" stroke-linejoin="round"/>
<path d="M77.4404 396.97L86.1404 390.24" stroke="#263238" stroke-linecap="round" stroke-linejoin="round"/>
<path d="M73.21 347.64L79.29 339.71" stroke="#263238" stroke-linecap="round" stroke-linejoin="round"/>
<path d="M77.4403 342.09C77.3364 340.983 77.471 339.867 77.835 338.816C78.1989 337.766 78.7839 336.805 79.5503 336C81.1403 334.25 89.9703 329.4 91.1903 332.56C92.5103 336 83.7803 343.94 77.4403 342.09Z" fill="#E39292" stroke="#263238" stroke-linejoin="round"/>
<path d="M77.4404 342.09L86.1404 335.35" stroke="#263238" stroke-linecap="round" stroke-linejoin="round"/>
<path d="M73.21 320.55L79.29 312.62" stroke="#263238" stroke-linecap="round" stroke-linejoin="round"/>
<path d="M77.4404 315C77.338 313.895 77.4733 312.78 77.8372 311.732C78.2012 310.683 78.7853 309.724 79.5504 308.92C81.1404 307.17 89.9704 302.32 91.1904 305.48C92.5104 308.92 83.7804 316.85 77.4404 315Z" fill="#E39292" stroke="#263238" stroke-linejoin="round"/>
<path d="M77.4404 315L86.1404 308.26" stroke="#263238" stroke-linecap="round" stroke-linejoin="round"/>
<path d="M73.21 284.74L79.29 276.81" stroke="#263238" stroke-linecap="round" stroke-linejoin="round"/>
<path d="M77.4404 279.19C77.338 278.085 77.4733 276.97 77.8372 275.921C78.2012 274.873 78.7853 273.914 79.5504 273.11C81.1404 271.36 89.9704 266.52 91.1904 269.68C92.5104 273.11 83.7804 281 77.4404 279.19Z" fill="#E39292" stroke="#263238" stroke-linejoin="round"/>
<path d="M77.4404 279.19L86.1404 272.45" stroke="#263238" stroke-linecap="round" stroke-linejoin="round"/>
<path d="M73.4697 253.84L79.4297 249.19" stroke="#263238" stroke-linecap="round" stroke-linejoin="round"/>
<path d="M77.4398 251C77.349 249.908 77.4901 248.809 77.8537 247.775C78.2173 246.741 78.7953 245.795 79.5498 245C81.1398 243.25 89.9698 238.41 91.1898 241.57C92.5098 245 83.7798 252.89 77.4398 251Z" fill="#E39292" stroke="#263238" stroke-linejoin="round"/>
<path d="M77.4404 251.04L86.1404 244.3" stroke="#263238" stroke-linecap="round" stroke-linejoin="round"/>
<path d="M72.8504 238.56C72.7526 237.452 72.8939 236.335 73.2648 235.286C73.6358 234.238 74.2276 233.28 75.0004 232.48C76.5904 230.73 85.4204 225.88 86.6304 229.04C87.9104 232.48 79.1904 240.41 72.8504 238.56Z" fill="#E39292" stroke="#263238" stroke-linejoin="round"/>
<path d="M72.8496 238.56L81.5496 231.82" stroke="#263238" stroke-linecap="round" stroke-linejoin="round"/>
<path d="M73.2701 238.93C72.1608 238.915 71.0675 238.662 70.0637 238.19C69.0599 237.717 68.1688 237.035 67.4501 236.19C65.8701 234.43 61.9801 225.14 65.2501 224.26C68.8001 223.31 75.7801 232.82 73.2701 238.93Z" fill="#E39292" stroke="#263238" stroke-linejoin="round"/>
<path d="M73.2705 238.93L67.4805 229.57" stroke="#263238" stroke-linecap="round" stroke-linejoin="round"/>
<path d="M80.7501 467.23H61.3001L58.8701 418.11H83.1801L80.7501 467.23Z" fill="#263238" stroke="#263238" stroke-linecap="round" stroke-linejoin="round"/>
<path d="M485.93 467.23H19.4902" stroke="#263238" stroke-linecap="round" stroke-linejoin="round"/>
<path d="M264.351 289C264.351 289 266.811 323.24 264.351 338.51C261.891 353.78 252.531 384.09 251.541 400.1C250.551 416.11 250.311 455.28 250.311 461.19C250.311 467.1 250.311 467.84 252.031 468.09C253.751 468.34 271.251 468.09 271.251 468.09C271.251 468.09 273.471 466.86 271.741 462.18C270.011 457.5 267.551 456.51 265.581 452.57C263.611 448.63 263.581 443.65 263.371 441.92C263.161 440.19 262.561 435.35 269.031 409.46C271.371 400.09 274.701 393.94 279.131 379.9C283.561 365.86 286.521 342.21 284.551 326.9C282.581 311.59 281.551 293.15 274.451 287.98C267.351 282.81 265.091 287.3 264.351 289Z" fill="#E39292" stroke="#263238" stroke-linecap="round" stroke-linejoin="round"/>
<path d="M265.581 452.59C263.581 448.65 263.581 443.67 263.371 441.94C263.127 438.538 263.383 435.118 264.131 431.79C256.631 432.46 253.271 431.2 250.621 430.23C250.391 444.37 250.311 457.93 250.311 461.23C250.311 467.14 250.311 467.88 252.031 468.13C253.751 468.38 271.251 468.13 271.251 468.13C271.251 468.13 273.471 466.9 271.741 462.22C270.011 457.54 267.551 456.53 265.581 452.59Z" fill="#FFD9B6" stroke="#263238" stroke-linecap="round" stroke-linejoin="round"/>
<path d="M250.801 448.65C252.612 447.945 254.605 447.857 256.471 448.4C259.181 449.4 265.581 452.59 265.581 452.59L264.681 449.34C264.681 449.34 267.311 449.63 268.291 455.54C268.291 455.54 273.111 461.47 273.011 465.01C272.911 468.55 271.241 469.37 270.551 469.37C269.861 469.37 249.991 468.78 249.991 468.78C249.991 468.78 248.821 466.89 249.991 457.63C250.741 451.77 248.371 448.52 250.801 448.65Z" fill="white" stroke="#263238" stroke-linecap="round" stroke-linejoin="round"/>
<path d="M249.491 465.62C249.435 466.697 249.605 467.773 249.991 468.78C249.991 468.78 269.861 469.37 270.551 469.37C271.241 469.37 272.501 468.74 272.901 466.24L249.491 465.62Z" fill="white" stroke="#263238" stroke-linecap="round" stroke-linejoin="round"/>
<path d="M292.47 74.17C292.47 74.17 281.87 67.04 281.47 68.58C281.289 69.9137 281.353 71.2695 281.66 72.58C281.66 72.58 270.86 72.52 269.6 73.05C267.24 74.05 262.51 76.2 262.51 76.2C259.297 78.2383 256.239 80.5112 253.36 83C249.51 86.46 254.36 86.08 254.36 86.08C254.36 86.08 252 87.65 253.75 88C255.214 88.2525 256.696 88.3796 258.18 88.38C258.18 88.38 243.73 96.9 242 101.52C240.27 106.14 247.39 103.64 247.39 103.64C247.39 103.64 241.39 116.16 243.54 118.28C245.69 120.4 248.54 118.67 248.54 118.67C248.54 118.67 244.88 124.67 246.42 125.02C247.435 125.247 248.486 125.247 249.5 125.02C249.5 125.02 249.31 132.35 253.16 132.15L257 132C257 132 255.08 141.63 257.19 142.4C257.856 142.615 258.558 142.692 259.255 142.627C259.951 142.561 260.627 142.355 261.24 142.02C261.24 142.02 261.82 146.26 263.17 145.87L264.52 145.49C264.52 145.49 269.14 152.61 272.61 152.81C276.08 153.01 277.04 152.23 277.04 152.23C280.032 153.571 283.254 154.325 286.53 154.45C291.93 154.65 300.01 152.26 304.06 151.11C305.232 150.774 306.298 150.145 307.159 149.283C308.02 148.42 308.647 147.352 308.98 146.18C308.98 146.18 314.52 147.91 315.68 145.79C316.84 143.67 318.84 140.86 318.84 140.86C320.347 139.317 321.666 137.602 322.77 135.75C324.12 133.24 323.56 127.28 323.56 127.28C323.56 127.28 326.93 126.61 325.78 124.49C325.003 123.006 324.357 121.457 323.85 119.86C323.85 119.86 328.48 122.18 327.32 117.74C326.81 115.563 326.1 113.437 325.2 111.39C325.2 111.39 330.2 106.76 327.51 100.79C324.82 94.82 323.08 92.89 323.08 92.89C323.56 91.7532 323.72 90.5071 323.544 89.2859C323.368 88.0648 322.862 86.9148 322.08 85.96C319.681 82.9789 316.563 80.6563 313.02 79.21C311.453 78.6447 309.845 78.1968 308.21 77.87C307.63 77.67 310.71 75.94 309.36 74.21C308.01 72.48 303.2 72.66 301.46 73.05C300.331 73.3142 299.234 73.7033 298.19 74.21C298.19 74.21 293.37 70.35 292.79 71.51C292.468 72.3572 292.358 73.2705 292.47 74.17V74.17Z" fill="#653700" stroke="#263238" stroke-linecap="round" stroke-linejoin="round"/>
<path d="M307.711 260.45C307.711 260.45 310.171 297.64 305.711 324.25C301.251 350.86 296.591 369.82 296.351 370.56C296.111 371.3 295.111 396.67 293.351 415.15C292.305 426.163 292.141 437.241 292.861 448.28C293.521 448.013 294.256 447.991 294.932 448.216C295.608 448.441 296.182 448.9 296.551 449.51C297.781 451.73 298.091 454.51 301.291 456.69C304.491 458.87 304.781 458.87 308.471 461.08C312.161 463.29 316.561 464.55 316.561 465.81C316.561 469.76 304.741 470.73 304.741 470.73C304.741 470.73 276.601 472.17 275.371 468.48C274.141 464.79 274.831 456.13 275.811 454.65C276.791 453.17 276.811 450 277.091 449.26C277.371 448.52 277.831 423.26 274.631 410.46C271.431 397.66 268.471 388.05 270.691 374.99C272.911 361.93 279.061 344.45 277.581 332.62C276.101 320.79 272.411 304.29 271.431 301.62C270.451 298.95 266.501 295.71 260.591 285.12C254.681 274.53 257.881 261.72 257.881 261.72C257.881 261.72 285.291 268.57 307.711 260.45Z" fill="#E39292" stroke="#263238" stroke-linecap="round" stroke-linejoin="round"/>
<path d="M290.86 271.58C294.436 271.505 297.995 271.063 301.48 270.26" stroke="#263238" stroke-linecap="round" stroke-linejoin="round"/>
<path d="M291.2 274.9C291.2 274.9 300.48 274.9 304.46 276.56" stroke="#263238" stroke-linecap="round" stroke-linejoin="round"/>
<path d="M270.52 289.11C269.17 292.47 266.99 292.47 266.99 292.47" stroke="#263238" stroke-linecap="round" stroke-linejoin="round"/>
<path d="M261.351 268.27C261.351 268.27 264.351 269.92 271.301 269.92C271.301 269.92 272.301 279.87 271.301 286.17" stroke="#263238" stroke-linecap="round" stroke-linejoin="round"/>
<path d="M292 293.15C292.11 294.63 292.17 296.07 292.17 297.45" stroke="#263238" stroke-linecap="round" stroke-linejoin="round"/>
<path d="M287.881 269.26C289.615 276.151 290.911 283.145 291.761 290.2" stroke="#263238" stroke-linecap="round" stroke-linejoin="round"/>
<path d="M285.24 418.14C285.43 421.57 285.56 423.8 285.56 423.8" stroke="#263238" stroke-linecap="round" stroke-linejoin="round"/>
<path d="M287.88 355.15C287.88 356.15 283.57 376.38 283.57 383.01C283.57 387.41 284.44 403.92 285.03 414.54" stroke="#263238" stroke-linecap="round" stroke-linejoin="round"/>
<path d="M277.16 449.26C276.91 450 276.87 453.17 275.88 454.65C274.89 456.13 274.2 464.78 275.44 468.48C276.68 472.18 304.81 470.73 304.81 470.73C304.81 470.73 316.63 469.73 316.63 465.81C316.63 464.55 312.24 463.3 308.54 461.08C304.84 458.86 304.54 458.91 301.36 456.69C298.18 454.47 297.85 451.69 296.62 449.51C296.252 448.9 295.678 448.441 295.002 448.216C294.326 447.991 293.591 448.013 292.93 448.28C292.93 448.28 292.43 441.28 292.51 432.79C285.11 433.67 280.19 433.08 277.18 432.32C277.49 440.39 277.29 448.88 277.16 449.26Z" fill="#FFD9B6" stroke="#263238" stroke-linecap="round" stroke-linejoin="round"/>
<path d="M276.911 144.91C276.911 144.91 272.231 160.91 268.051 167.82C263.871 174.73 259.421 174.23 257.451 191.72C255.481 209.21 256.961 214.87 256.961 228.42C256.961 241.97 253.961 251.58 254.741 258.72C255.521 265.86 263.861 269.31 283.571 267.84C303.281 266.37 312.631 262.91 314.361 257.98C316.091 253.05 311.651 249.61 309.681 237.29C307.711 224.97 308.941 204.29 303.271 189.99C297.601 175.69 294.401 169.99 293.171 166.59C291.941 163.19 293.671 152.59 293.671 152.59L276.911 144.91Z" fill="#FFD9B6" stroke="#263238" stroke-linecap="round" stroke-linejoin="round"/>
<path d="M292.74 163.3C292.783 159.699 293.094 156.105 293.67 152.55L277.83 145.33L278.59 147.55C278.59 147.55 281 159 292.74 163.3Z" fill="#263238" stroke="#263238" stroke-linecap="round" stroke-linejoin="round"/>
<path d="M283.571 267.84C303.271 266.36 312.631 262.91 314.361 257.98C316.091 253.05 311.651 249.61 309.681 237.29C307.711 224.97 308.941 204.29 303.271 189.99C301.001 184.27 299.141 179.99 297.631 176.59C292.499 179.055 287.001 180.67 281.351 181.37C273.351 182.48 265.831 180.08 260.811 177.77C259.421 180.64 258.241 184.77 257.451 191.72C255.451 209.21 256.961 214.87 256.961 228.42C256.961 241.97 253.961 251.58 254.741 258.72C255.521 265.86 263.861 269.31 283.571 267.84Z" fill="#263238" stroke="#263238" stroke-linecap="round" stroke-linejoin="round"/>
<path d="M268.261 188C268.261 188 266.261 200.95 266.771 209.41" stroke="white" stroke-linecap="round" stroke-linejoin="round"/>
<path d="M272.351 217.23C272.451 218.85 272.581 220.4 272.751 221.85" stroke="white" stroke-linecap="round" stroke-linejoin="round"/>
<path d="M272.75 188C272.75 188 271.75 202.57 272.23 214.91" stroke="white" stroke-linecap="round" stroke-linejoin="round"/>
<path d="M322.361 215.32C322.361 215.32 313.421 220.74 311.631 220.75C309.841 220.76 299.421 216.49 299.421 216.49C299.421 216.49 293.421 221.35 292.741 223.4C292.061 225.45 293.631 224.79 294.551 224.19C295.471 223.59 298.801 221.14 299.881 220.77C300.961 220.4 304.881 221.66 304.881 221.66C304.881 221.66 299.401 223.05 298.881 223.54C298.361 224.03 293.021 229.43 293.021 229.43C293.021 229.43 291.741 230.74 293.301 230.89C294.726 230.827 296.125 230.487 297.421 229.89H297.511L300.451 227.35L305.261 227.2C305.261 227.2 296.321 232.2 294.931 233.27C293.541 234.34 294.571 235.41 297.651 234.81C300.731 234.21 303.501 231.23 303.911 231.32C305.345 231.051 306.762 230.69 308.151 230.24C306.223 231.427 304.357 232.712 302.561 234.09C300.761 235.6 299.371 236.14 300.361 236.46C301.351 236.78 302.111 237.16 304.271 235.94C306.431 234.72 308.441 233.78 308.911 233.57C309.381 233.36 313.391 232.86 316.491 231.21C319.591 229.56 322.211 224.85 322.211 224.85L327.211 221.29L322.361 215.32Z" fill="#FFD9B6" stroke="#263238" stroke-linecap="round" stroke-linejoin="round"/>
<path d="M277.9 190C277.9 190 296.13 211.93 306.23 224.24C316.33 236.55 315.84 233.85 321.01 234.59C323.45 235.038 325.969 234.552 328.068 233.229C330.166 231.907 331.691 229.844 332.34 227.45C333.82 222.27 323.72 208.23 314.6 198.13C305.48 188.03 293.17 166.6 293.17 166.6C293.17 166.6 281.33 159.43 272.48 167.6" fill="#263238"/>
<path d="M277.9 190C277.9 190 296.13 211.93 306.23 224.24C316.33 236.55 315.84 233.85 321.01 234.59C323.45 235.038 325.969 234.552 328.068 233.229C330.166 231.907 331.691 229.844 332.34 227.45C333.82 222.27 323.72 208.23 314.6 198.13C305.48 188.03 293.17 166.6 293.17 166.6C293.17 166.6 281.33 159.43 272.48 167.6" stroke="#263238" stroke-linecap="round" stroke-linejoin="round"/>
<path d="M272.48 180.88C272.48 180.88 280.36 185.07 299.58 176.2C299.58 176.2 295.39 167.08 288.49 164.62C281.59 162.16 272.97 164.37 270.49 170.53" fill="#FFD9B6"/>
<path d="M272.48 180.88C272.48 180.88 280.36 185.07 299.58 176.2C299.58 176.2 295.39 167.08 288.49 164.62C281.59 162.16 272.97 164.37 270.49 170.53" stroke="#263238" stroke-linecap="round" stroke-linejoin="round"/>
<path d="M309.631 126.85C309.631 126.85 312.751 125.01 313.311 129.6C313.871 134.19 309.811 136.77 309.811 136.77L309.631 126.85Z" fill="#EDC198" stroke="#263238" stroke-linecap="round" stroke-linejoin="round"/>
<path d="M300.621 106.81C300.621 106.81 310.181 112.69 310.181 113.61C310.181 114.53 309.811 134.38 309.811 136.77C309.348 142.076 307.004 147.041 303.201 150.77C298.201 155.36 293.951 156.77 291.681 156.86C288.401 157.06 278.611 150.56 276.591 148.54C274.571 146.52 272.321 140.66 272.321 140.66C272.321 140.66 267.181 138.09 266.261 135.15C265.667 132.931 265.358 130.646 265.341 128.35C265.341 128.35 270.121 132.02 270.671 131.84C271.221 131.66 271.221 126.84 271.771 124.49C272.321 122.14 272.871 122.28 276.001 116.03C279.131 109.78 278.751 107.58 278.751 107.58C278.751 107.58 280.961 111.81 281.511 110.15C282.061 108.49 284.271 103.72 284.271 103.72C284.271 103.72 297.871 110.89 300.441 110.89C303.011 110.89 300.621 106.81 300.621 106.81Z" fill="#FFD9B6" stroke="#263238" stroke-linecap="round" stroke-linejoin="round"/>
<path d="M297.05 136C296.27 136.678 295.294 137.09 294.264 137.176C293.234 137.262 292.203 137.018 291.32 136.48" stroke="#263238" stroke-linecap="round" stroke-linejoin="round"/>
<path d="M301.111 139.71C301.111 139.71 294.111 145.1 285.301 139.55" stroke="#263238" stroke-linecap="round" stroke-linejoin="round"/>
<path d="M301.45 126C301.4 127.27 302.05 128.33 302.91 128.36C303.77 128.39 304.52 127.41 304.57 126.14C304.62 124.87 303.98 123.81 303.11 123.77C302.24 123.73 301.51 124.75 301.45 126Z" fill="#263238"/>
<path d="M283.661 126.79C283.611 128.05 284.261 129.11 285.121 129.15C285.981 129.19 286.731 128.15 286.791 126.93C286.851 125.71 286.191 124.6 285.331 124.56C284.471 124.52 283.721 125.52 283.661 126.79Z" fill="#263238"/>
<path d="M307.661 120.87C307.661 120.87 303.391 117.55 299.551 121.24" stroke="#263238" stroke-linecap="round" stroke-linejoin="round"/>
<path d="M289 121.88C289 121.88 283.81 118.52 280.45 123.7" stroke="#263238" stroke-linecap="round" stroke-linejoin="round"/>
<path d="M308.54 461.08C304.85 458.87 304.54 458.91 301.36 456.69C298.18 454.47 297.85 451.69 296.62 449.51C296.252 448.9 295.678 448.441 295.002 448.216C294.325 447.991 293.591 448.013 292.93 448.28L292.8 453.39C292.8 453.39 290.34 454.96 282.85 453.84C279.68 453.37 278.66 449.84 277.16 449.26C276.92 449.77 276.16 454.21 275.88 454.65C274.88 456.13 274.2 464.78 275.44 468.48C276.68 472.18 304.81 470.73 304.81 470.73C304.81 470.73 316.32 471.73 316.63 465.81C316.7 464.55 312.24 463.3 308.54 461.08Z" fill="white" stroke="#263238" stroke-linecap="round" stroke-linejoin="round"/>
<path d="M305.39 467.51C297.78 467.66 280.89 466.71 274.99 466.36C275.075 467.079 275.226 467.789 275.44 468.48C276.67 472.17 304.81 470.73 304.81 470.73C304.81 470.73 316.03 471.66 316.61 466.01C315 466.56 311.61 467.39 305.39 467.51Z" fill="white" stroke="#263238" stroke-linecap="round" stroke-linejoin="round"/>
<path d="M299.681 356.8L290.841 361.08L295.121 361.93C294.243 363.273 292.934 364.278 291.411 364.78C289.131 365.35 287.161 364.72 288.871 366.43C289.93 367.479 291.063 368.452 292.261 369.34C292.261 369.34 289.411 370.2 292.261 371.34C295.111 372.48 297.111 368.2 297.111 368.2C298.2 364.456 299.059 360.649 299.681 356.8V356.8Z" fill="#FFD9B6" stroke="#263238" stroke-linecap="round" stroke-linejoin="round"/>
<path d="M185.33 266.32L184.92 297C179.814 310.302 176.078 324.09 173.77 338.15C170.06 361.15 169.5 367.59 169.64 370.9C169.78 374.21 170.22 431.84 170.72 436.28C171.22 440.72 168.5 448.1 168.5 448.84C168.5 449.58 159.39 459.19 155.69 460.91C151.99 462.63 146.58 466.08 147.31 467.31C148.04 468.54 153.47 471.26 160.86 470.31C168.25 469.36 172.69 468.31 174.86 468.31C177.03 468.31 183.98 469.54 185.46 467.31C186.94 465.08 184.46 449.82 184.46 446.62C184.46 443.42 184.71 441.7 184.71 439.73C184.71 437.76 194.81 397.6 195.55 386.73C196.29 375.86 197.02 368.73 197.27 367.52C197.52 366.31 204.66 345.35 204.66 345.35C204.66 345.35 207.37 375.89 209.34 383.04C211.31 390.19 214.02 439.2 213.53 442.9C213.04 446.6 213.53 448.32 212.3 450.78C211.07 453.24 202.94 460.39 198.3 462.36C193.66 464.33 189.43 466.3 190.41 468.02C190.94 468.979 191.73 469.769 192.689 470.299C193.647 470.83 194.736 471.08 195.83 471.02H229.83C229.83 471.02 232.54 470.02 232.29 465.85C232.04 461.68 229.58 452.79 229.58 449.34C229.58 445.89 232.04 430.13 233.52 414.61C234.684 401.817 234.52 388.939 233.03 376.18C232.03 369.28 230.32 356.72 230.32 356.72C230.32 356.72 239.68 310.9 241.41 302.28C243.14 293.66 240.67 275.43 238.2 268.53C235.73 261.63 234.51 258.92 234.51 258.92L184.51 259.42L185.33 266.32Z" fill="#FFD9B6" stroke="#263238" stroke-linecap="round" stroke-linejoin="round"/>
<path d="M234.52 258.91L184.52 259.41L185.34 266.32L184.92 297C179.814 310.302 176.078 324.09 173.77 338.15C170.06 361.15 169.5 367.59 169.64 370.9C169.76 373.66 170.09 414.31 170.48 430.22C175.692 431.469 181.042 432.044 186.4 431.93C189.29 419.24 195.05 394.85 195.6 386.76C196.34 375.92 197.07 368.76 197.32 367.55C197.57 366.34 204.71 345.38 204.71 345.38C204.71 345.38 207.42 375.92 209.39 383.07C210.88 388.47 212.8 417.87 213.39 433.45C219.267 434.878 225.387 434.984 231.31 433.76C232.04 427.99 232.86 421.27 233.49 414.6C234.654 401.808 234.49 388.929 233 376.17C232 369.27 230.29 356.71 230.29 356.71C230.29 356.71 239.65 310.89 241.38 302.27C243.11 293.65 240.64 275.42 238.17 268.52C235.7 261.62 234.52 258.91 234.52 258.91Z" fill="#263238" stroke="#263238" stroke-linecap="round" stroke-linejoin="round"/>
<path d="M207.17 367.3C207.17 367.3 221.95 365.82 220.48 367.06C219.209 367.963 217.791 368.639 216.29 369.06C216.29 369.06 227.37 368.32 226.88 369.8C226.39 371.28 220.23 373 220.23 373C220.23 373 225.16 374.23 222.45 375.46C219.74 376.69 215.55 377.68 213.09 377.46C211.552 377.298 210.052 376.882 208.65 376.23C208.65 376.23 206.19 371 207.17 367.3Z" fill="#FFD9B6" stroke="#263238" stroke-linecap="round" stroke-linejoin="round"/>
<path d="M204 331.46C203.28 322.46 202.39 309.46 203 306.46L195.85 297.83" stroke="white" stroke-linecap="round" stroke-linejoin="round"/>
<path d="M204.71 340.2C204.71 340.2 204.51 338.04 204.24 334.81" stroke="white" stroke-linecap="round" stroke-linejoin="round"/>
<path d="M207.91 295.62C207.91 295.62 216.04 287.24 223.43 286.01" stroke="white" stroke-linecap="round" stroke-linejoin="round"/>
<path d="M225.25 346.31C225.04 347.62 224.91 348.57 224.87 349.06L224.54 353.37" stroke="white" stroke-linecap="round" stroke-linejoin="round"/>
<path d="M229.18 269.8C229.18 269.8 233.49 283.4 233.18 294.34C232.93 302.7 228.41 327.72 226.18 340.98" stroke="white" stroke-linecap="round" stroke-linejoin="round"/>
<path d="M218.75 283.79C218.75 283.79 210.62 288.72 209.64 290.44" stroke="white" stroke-linecap="round" stroke-linejoin="round"/>
<path d="M170.72 360.9C170.72 360.9 180.57 364.59 179.34 365.58C178.392 366.215 177.28 366.562 176.14 366.58C176.14 366.58 181.56 369.79 180.57 369.79H179.57C179.57 369.79 189.43 373.23 186.96 374.22C184.49 375.21 174.65 375.45 174.65 375.45C174.65 375.45 180.07 377.91 177.65 377.91C175.23 377.91 169.77 375.45 169.77 375.45C169.77 375.45 170.22 364.59 170.72 360.9Z" fill="#FFD9B6" stroke="#263238" stroke-linecap="round" stroke-linejoin="round"/>
<path d="M155.69 460.91C152 462.63 146.58 466.08 147.31 467.31C148.04 468.54 153.47 471.26 160.86 470.31C168.25 469.36 172.69 468.31 174.86 468.31C177.03 468.31 183.98 469.54 185.46 467.31C186.46 465.85 185.69 458.66 185.07 453.04C181.95 453.73 175.6 454.51 175.6 454.51C175.6 454.51 175.36 450.07 173.14 447.85C170.92 445.63 168.46 448.85 168.46 448.85C168.5 449.58 159.39 459.19 155.69 460.91Z" fill="white" stroke="#263238" stroke-linecap="round" stroke-linejoin="round"/>
<path d="M185.5 467.31C185.89 466.73 186 465.21 185.96 463.26C183.3 464.95 179.96 464.63 175.58 464.93C170.39 465.29 169.14 466.93 160.01 467.93C153.89 468.65 150.01 466.88 148.14 465.63C147.44 466.31 147.14 466.9 147.31 467.27C148.05 468.51 153.47 471.22 160.86 470.27C168.25 469.32 172.69 468.27 174.86 468.27C177.03 468.27 184 469.53 185.5 467.31Z" fill="white" stroke="#263238" stroke-linecap="round" stroke-linejoin="round"/>
<path d="M232.3 465.84C232.14 463.02 230.97 458.08 230.22 454.1C227.07 455.15 223.795 455.782 220.48 455.98C220.48 455.98 218.75 449.82 217.27 447.85C215.79 445.88 212.35 450.85 212.35 450.85C211.12 453.31 202.99 460.46 198.35 462.43C193.71 464.4 189.48 466.37 190.46 468.09C190.99 469.049 191.78 469.839 192.738 470.369C193.697 470.9 194.786 471.15 195.88 471.09H229.88C229.88 471.09 232.55 470 232.3 465.84Z" fill="white" stroke="#263238" stroke-linecap="round" stroke-linejoin="round"/>
<path d="M229.84 471C229.84 471 232.14 470.15 232.3 466.73C226.42 467.6 206.93 468.68 197.79 468.68C192.79 468.68 190.89 468.07 190.29 467.47C190.275 467.669 190.321 467.867 190.42 468.04C190.95 468.999 191.74 469.789 192.698 470.319C193.657 470.85 194.746 471.1 195.84 471.04L229.84 471Z" fill="white" stroke="#263238" stroke-linecap="round" stroke-linejoin="round"/>
<path d="M191.11 268.11C191.11 268.11 185.47 280.49 187.67 281.87C189.87 283.25 191.8 281.32 191.93 276.87C191.971 273.929 191.696 270.992 191.11 268.11Z" stroke="#263238" stroke-linecap="round" stroke-linejoin="round"/>
<path d="M190.24 268.06C190.24 268.06 191 282 193 282.69C195 283.38 197.81 282.97 196 278.69C194.307 275.028 192.384 271.478 190.24 268.06Z" stroke="#263238" stroke-linecap="round" stroke-linejoin="round"/>
<path d="M191.25 269.34L189.73 290.4" stroke="#263238" stroke-linecap="round" stroke-linejoin="round"/>
<path d="M191.11 268.11L193.17 288.88" stroke="#263238" stroke-linecap="round" stroke-linejoin="round"/>
<path d="M215 75.45C215 75.45 204.17 68.16 203.77 69.74C203.584 71.1174 203.652 72.5171 203.97 73.87C203.97 73.87 189.4 74.07 190.38 75.05C190.924 75.6218 191.617 76.0305 192.38 76.23C192.38 76.23 179 81 175 84.51C171 88.02 176 87.66 176 87.66C176 87.66 173.63 89.23 175.41 89.66C176.928 89.9062 178.463 90.02 180 90C180 90 165.24 98.66 163.46 103.39C161.68 108.12 168.98 105.56 168.98 105.56C168.98 105.56 162.87 118.36 165.04 120.56C167.21 122.76 170.16 120.96 170.16 120.96C170.16 120.96 166.42 127.06 167.99 127.45C169.027 127.683 170.103 127.683 171.14 127.45C171.14 127.45 170.95 134.94 174.88 134.74L178.82 134.54C178.82 134.54 176.82 144.39 179.02 145.18C179.701 145.398 180.42 145.475 181.131 145.406C181.843 145.337 182.533 145.124 183.16 144.78C183.16 144.78 183.75 149.12 185.16 148.72L186.54 148.33C186.54 148.33 191.27 155.61 194.81 155.81C198.35 156.01 199.34 155.22 199.34 155.22C199.34 155.22 206.24 161.32 211.75 161.52C217.26 161.72 222.97 158.76 227.11 157.58C231.25 156.4 236.95 148.13 236.95 148.13C236.95 148.13 239.71 150.89 240.89 148.72C241.644 147.117 242.047 145.371 242.07 143.6C242.07 143.6 247.39 142.6 248.77 140.06C250.15 137.52 248.97 131.39 248.97 131.39C249.357 130.703 249.575 129.935 249.608 129.148C249.641 128.361 249.488 127.577 249.16 126.86C248.358 125.347 247.689 123.768 247.16 122.14C247.16 122.14 251.89 124.5 250.71 119.97C250.191 117.741 249.464 115.564 248.54 113.47C248.54 113.47 253.66 108.75 250.91 102.64C248.16 96.53 246.38 94.57 246.38 94.57C246.875 93.4092 247.043 92.1353 246.867 90.8859C246.691 89.6364 246.177 88.4588 245.38 87.48C242.936 84.4308 239.752 82.0587 236.13 80.59C234.523 80.0084 232.876 79.5471 231.2 79.21C230.61 79.01 233.76 77.21 232.39 75.47C231.02 73.73 226.08 73.89 224.31 74.29C223.154 74.5609 222.031 74.9566 220.96 75.47C220.96 75.47 216.04 71.53 215.45 72.71C215.072 73.5709 214.917 74.5134 215 75.45V75.45Z" fill="#653700" stroke="#263238" stroke-linecap="round" stroke-linejoin="round"/>
<path d="M199.22 151.61C199.22 151.61 199.05 162.11 197.69 167.03C196.33 171.95 187 182.46 184.64 189.24C182.28 196.02 180.91 202.97 180.74 214.83C180.57 226.69 182.95 243.48 182.44 248.9C181.93 254.32 180.07 263.14 180.91 265.01C181.49 266.28 185.73 268.88 190.24 268.06C192.24 267.69 195.15 269.06 204.47 268.56C213.79 268.06 227.87 265.01 229.73 264.5C231.59 263.99 237.02 262.97 237.19 258.56C237.36 254.15 235.19 246.7 234.99 241.44C234.79 236.18 238.21 220.44 238.88 213.14C239.55 205.84 239.05 196.52 238.88 189.74C238.71 182.96 236.51 179.91 233.29 175.51C230.07 171.11 222.61 167.88 221.6 166.18C220.59 164.48 218.88 154.32 219.6 150.93C220.32 147.54 199.22 151.61 199.22 151.61Z" fill="#FFD9B6" stroke="#263238" stroke-linecap="round" stroke-linejoin="round"/>
<path d="M210.36 149.92C204.97 150.49 199.22 151.61 199.22 151.61C199.22 151.61 199.13 157.42 198.52 162.42L213.93 153.07L210.36 149.92Z" fill="#263238" stroke="#263238" stroke-linecap="round" stroke-linejoin="round"/>
<path d="M237.19 258.56C237.36 254.16 235.19 246.7 234.99 241.44C234.79 236.18 238.21 220.44 238.88 213.14C239.55 205.84 239.05 196.52 238.88 189.74C238.923 186.339 238.053 182.99 236.36 180.04C228.247 185.881 218.536 189.092 208.54 189.24C196.83 189.24 191.21 184.96 188.64 181.77C187.038 184.106 185.696 186.611 184.64 189.24C182.27 196.02 180.91 202.97 180.74 214.83C180.57 226.69 182.95 243.48 182.44 248.9C181.93 254.32 180.07 263.14 180.91 265.01C181.49 266.28 185.73 268.88 190.24 268.06C192.24 267.69 195.15 269.06 204.47 268.56C213.79 268.06 227.87 265.01 229.73 264.5C231.59 263.99 237 263 237.19 258.56Z" fill="#E39292" stroke="#263238" stroke-linecap="round" stroke-linejoin="round"/>
<path d="M189.3 126.87C189.3 126.87 186.18 125.03 185.63 129.63C185.08 134.23 189.12 136.8 189.12 136.8L189.3 126.87Z" fill="#EDC198" stroke="#263238" stroke-linecap="round" stroke-linejoin="round"/>
<path d="M198.31 106.84C198.31 106.84 188.75 112.72 188.75 113.64C188.75 114.56 189.12 134.41 189.12 136.8C189.581 142.108 191.93 147.076 195.74 150.8C200.74 155.4 204.98 156.8 207.25 156.9C210.53 157.09 219.91 152.55 221.93 150.52C223.95 148.49 226.61 140.69 226.61 140.69C226.61 140.69 231.76 138.12 232.68 135.18C233.267 132.96 233.573 130.676 233.59 128.38C233.59 128.38 228.82 132.06 228.27 131.87C227.72 131.68 227.71 126.87 227.16 124.52C226.61 122.17 226.06 122.32 222.94 116.07C219.82 109.82 220.18 107.61 220.18 107.61C220.18 107.61 217.97 111.84 217.42 110.19C216.87 108.54 214.67 103.76 214.67 103.76C214.67 103.76 201.07 110.92 198.49 110.92C195.91 110.92 198.31 106.84 198.31 106.84Z" fill="#FFD9B6" stroke="#263238" stroke-linecap="round" stroke-linejoin="round"/>
<path d="M203.82 135.69C204.57 136.401 205.526 136.855 206.55 136.988C207.574 137.121 208.614 136.926 209.52 136.43" stroke="#263238" stroke-linecap="round" stroke-linejoin="round"/>
<path d="M199.6 139.18C199.6 139.18 206.4 144.88 215.4 139.74" stroke="#263238" stroke-linecap="round" stroke-linejoin="round"/>
<path d="M199.87 125.49C199.87 126.76 199.17 127.79 198.31 127.79C197.45 127.79 196.75 126.79 196.75 125.49C196.75 124.19 197.45 123.2 198.31 123.2C199.17 123.2 199.87 124.22 199.87 125.49Z" fill="#263238"/>
<path d="M217.61 127.06C217.61 128.32 216.91 129.35 216.04 129.35C215.17 129.35 214.48 128.35 214.48 127.06C214.48 125.77 215.18 124.76 216.04 124.76C216.9 124.76 217.61 125.79 217.61 127.06Z" fill="#263238"/>
<path d="M193.9 120.07C193.9 120.07 198.31 116.95 201.98 120.81" stroke="#263238" stroke-linecap="round" stroke-linejoin="round"/>
<path d="M212.46 121.91C212.46 121.91 217.79 118.79 220.91 124.11" stroke="#263238" stroke-linecap="round" stroke-linejoin="round"/>
<path d="M189.73 190.76C189.73 190.76 188.03 189.07 186.85 189.91C185.67 190.75 186.85 191.91 186.85 191.91C186.85 191.91 184.64 192.76 184.98 193.77C185.32 194.78 186.98 194.62 186.98 194.62C186.98 194.62 186.98 196.31 188.33 196.15L189.69 195.98C189.69 195.98 191.55 196.15 192.23 195.47C192.91 194.79 192.23 193.47 192.23 193.47C192.23 193.47 193.08 191.78 192.57 190.76C192.06 189.74 191.76 189.41 189.73 190.76Z" fill="white" stroke="#263238" stroke-linecap="round" stroke-linejoin="round"/>
<path d="M190.27 193.43C190.27 193.602 190.219 193.77 190.124 193.913C190.028 194.056 189.892 194.168 189.733 194.234C189.574 194.3 189.399 194.317 189.231 194.283C189.062 194.25 188.907 194.167 188.785 194.045C188.663 193.924 188.581 193.769 188.547 193.6C188.513 193.431 188.531 193.256 188.596 193.097C188.662 192.938 188.774 192.802 188.917 192.707C189.06 192.611 189.228 192.56 189.4 192.56C189.631 192.56 189.852 192.652 190.015 192.815C190.179 192.978 190.27 193.199 190.27 193.43V193.43Z" stroke="#263238" stroke-linecap="round" stroke-linejoin="round"/>
<path d="M208.41 197.33C208.41 197.33 210.56 198.39 211.41 197.21C212.26 196.03 210.75 195.28 210.75 195.28C210.75 195.28 212.56 193.77 211.92 192.91C211.28 192.05 209.72 192.77 209.72 192.77C209.72 192.77 209.17 191.16 207.94 191.77L206.71 192.37C206.71 192.37 204.89 192.81 204.47 193.67C204.05 194.53 205.12 195.59 205.12 195.59C205.12 195.59 204.87 197.47 205.68 198.27C206.49 199.07 206.93 199.27 208.41 197.33Z" fill="white" stroke="#263238" stroke-linecap="round" stroke-linejoin="round"/>
<path d="M207 195C206.926 194.783 206.942 194.545 207.043 194.339C207.144 194.133 207.323 193.975 207.54 193.9C207.703 193.844 207.879 193.837 208.045 193.881C208.212 193.925 208.362 194.017 208.476 194.146C208.59 194.275 208.663 194.435 208.686 194.606C208.709 194.777 208.681 194.951 208.605 195.106C208.529 195.26 208.409 195.389 208.26 195.475C208.111 195.562 207.939 195.602 207.767 195.59C207.595 195.579 207.43 195.517 207.294 195.412C207.157 195.307 207.055 195.163 207 195V195Z" stroke="#263238" stroke-linecap="round" stroke-linejoin="round"/>
<path d="M195.85 202.77C195.85 202.77 198 203.83 198.85 202.65C199.7 201.47 198.19 200.72 198.19 200.72C198.19 200.72 200.01 199.21 199.36 198.36C198.71 197.51 197.16 198.21 197.16 198.21C197.16 198.21 196.61 196.6 195.39 197.21L194.16 197.81C194.16 197.81 192.34 198.25 191.91 199.11C191.48 199.97 192.57 201.03 192.57 201.03C192.57 201.03 192.31 202.91 193.12 203.71C193.93 204.51 194.36 204.71 195.85 202.77Z" fill="white" stroke="#263238" stroke-linecap="round" stroke-linejoin="round"/>
<path d="M194.47 200.42C194.413 200.257 194.407 200.081 194.45 199.915C194.494 199.748 194.587 199.598 194.716 199.484C194.845 199.37 195.005 199.296 195.176 199.273C195.347 199.25 195.521 199.279 195.675 199.355C195.83 199.431 195.959 199.551 196.045 199.7C196.131 199.849 196.171 200.021 196.16 200.193C196.149 200.365 196.087 200.529 195.981 200.666C195.876 200.803 195.733 200.905 195.57 200.96C195.462 200.998 195.348 201.014 195.234 201.007C195.12 201 195.009 200.971 194.907 200.92C194.804 200.87 194.713 200.8 194.638 200.714C194.563 200.628 194.506 200.528 194.47 200.42V200.42Z" fill="white" stroke="#263238" stroke-linecap="round" stroke-linejoin="round"/>
<path d="M187.17 198C186.413 198.147 185.706 198.483 185.114 198.978C184.523 199.473 184.067 200.111 183.79 200.83C183.79 200.83 186.89 201 187.17 198Z" fill="#263238"/>
<path d="M196.3 190.37C195.544 190.52 194.839 190.858 194.248 191.353C193.657 191.847 193.201 192.483 192.92 193.2C193.743 193.27 194.56 193.011 195.193 192.481C195.826 191.951 196.224 191.192 196.3 190.37Z" fill="#263238"/>
<path d="M188.22 185.06C187.996 185.798 187.961 186.58 188.118 187.335C188.275 188.09 188.62 188.793 189.12 189.38C189.12 189.38 190.75 186.73 188.22 185.06Z" fill="#263238"/>
<path d="M194.93 204.8C194.775 205.766 194.681 206.742 194.65 207.72C194.65 208.91 197.12 211.01 197.12 211.01C197.254 209.681 197.284 208.344 197.21 207.01C197 206 194.93 204.8 194.93 204.8Z" fill="#263238"/>
<path d="M199.73 202.34C200.562 202.858 201.423 203.325 202.31 203.74C203.41 204.21 206.31 202.74 206.31 202.74C205.139 202.093 203.918 201.538 202.66 201.08C201.65 200.88 199.73 202.34 199.73 202.34Z" fill="#263238"/>
<path d="M212.24 195C213.07 195.517 213.932 195.981 214.82 196.39C215.92 196.86 218.82 195.39 218.82 195.39C217.648 194.737 216.424 194.182 215.16 193.73C214.16 193.48 212.24 195 212.24 195Z" fill="#263238"/>
<path d="M198.64 192.08C199.165 192.906 199.743 193.698 200.37 194.45C201.15 195.34 204.37 195.29 204.37 195.29C203.589 194.2 202.723 193.173 201.78 192.22C201 191.58 198.64 192.08 198.64 192.08Z" fill="#263238"/>
<path d="M222.83 253.85C222.83 253.85 215.24 261.05 213.49 261.44C211.74 261.83 200.66 259.88 200.66 259.88C200.66 259.88 195.8 265.88 195.6 268.05C195.4 270.22 196.77 269.22 197.6 268.44C198.43 267.66 201.1 264.55 202.07 263.97C203.04 263.39 207.13 263.77 207.13 263.77C207.13 263.77 202.07 266.3 201.68 266.88C201.29 267.46 197.21 273.88 197.21 273.88C197.21 273.88 196.21 275.44 197.79 275.25C199.172 274.877 200.466 274.234 201.6 273.36L201.68 273.3L204.01 270.19L208.68 269.02C208.68 269.02 201.01 275.81 199.87 277.15C198.73 278.49 199.98 279.32 202.87 278.08C205.76 276.84 207.87 273.33 208.23 273.33C209.577 272.747 210.887 272.079 212.15 271.33C210.517 272.915 208.969 274.584 207.51 276.33C206.06 278.18 204.83 279.01 205.86 279.11C206.89 279.21 207.72 279.42 209.57 277.77C211.42 276.12 213.18 274.77 213.57 274.47C213.96 274.17 217.8 272.82 220.48 270.55C223.16 268.28 224.71 263.12 224.71 263.12L228.84 258.58L222.83 253.85Z" fill="#FFD9B6" stroke="#263238" stroke-linecap="round" stroke-linejoin="round"/>
<path d="M228.82 258.58L222.82 253.85C222.82 253.85 221.42 255.18 219.69 256.72L225.01 262.72L228.82 258.58Z" fill="white" stroke="#263238" stroke-linecap="round" stroke-linejoin="round"/>
<path d="M216 173.72C216 173.72 222.61 167.72 229.62 169.83C236.63 171.94 244.79 194.15 247.7 199.59C250.61 205.03 262.87 230.9 262.09 233.82C261.31 236.74 247.09 253.07 243.23 257.35C239.37 261.63 232.53 265.81 229.71 264.5C226.89 263.19 224.95 257.74 222.61 256.58C220.27 255.42 217.95 252.3 221.45 248.8C224.95 245.3 234.67 236.74 236.81 234.4C238.558 232.364 240.181 230.223 241.67 227.99C241.67 227.99 238.76 232.46 230 215.54C221.24 198.62 220.86 196.28 220.86 196.28" fill="#FFD9B6"/>
<path d="M216 173.72C216 173.72 222.61 167.72 229.62 169.83C236.63 171.94 244.79 194.15 247.7 199.59C250.61 205.03 262.87 230.9 262.09 233.82C261.31 236.74 247.09 253.07 243.23 257.35C239.37 261.63 232.53 265.81 229.71 264.5C226.89 263.19 224.95 257.74 222.61 256.58C220.27 255.42 217.95 252.3 221.45 248.8C224.95 245.3 234.67 236.74 236.81 234.4C238.558 232.364 240.181 230.223 241.67 227.99C241.67 227.99 238.76 232.46 230 215.54C221.24 198.62 220.86 196.28 220.86 196.28" stroke="#263238" stroke-linecap="round" stroke-linejoin="round"/>
<path d="M220.88 196.28C222.19 199.14 226.28 208.28 230.02 215.54C238.78 232.46 241.69 227.99 241.69 227.99C240.201 230.223 238.578 232.364 236.83 234.4C234.69 236.74 224.97 245.3 221.47 248.8C217.97 252.3 220.3 255.41 222.63 256.58C224.96 257.75 226.91 263.19 229.73 264.5C232.55 265.81 239.36 261.63 243.25 257.35C247.14 253.07 261.34 236.74 262.11 233.82C262.88 230.9 250.64 205 247.72 199.59C245.91 196.21 242.07 186.37 237.72 178.89C231.901 182.672 225.624 185.696 219.04 187.89" fill="#E39292"/>
<path d="M220.88 196.28C222.19 199.14 226.28 208.28 230.02 215.54C238.78 232.46 241.69 227.99 241.69 227.99C240.201 230.223 238.578 232.364 236.83 234.4C234.69 236.74 224.97 245.3 221.47 248.8C217.97 252.3 220.3 255.41 222.63 256.58C224.96 257.75 226.91 263.19 229.73 264.5C232.55 265.81 239.36 261.63 243.25 257.35C247.14 253.07 261.34 236.74 262.11 233.82C262.88 230.9 250.64 205 247.72 199.59C245.91 196.21 242.07 186.37 237.72 178.89C231.901 182.672 225.624 185.696 219.04 187.89" stroke="#263238" stroke-linecap="round" stroke-linejoin="round"/>
<path d="M218.87 235.65C219.27 237.41 219.71 239.09 220.2 240.65" stroke="#263238" stroke-linecap="round" stroke-linejoin="round"/>
<path d="M215.36 205.89C215.747 214.642 216.672 223.362 218.13 232" stroke="#263238" stroke-linecap="round" stroke-linejoin="round"/>
<path d="M217.92 207C217.92 207 221.34 222.66 222.76 225.79" stroke="#263238" stroke-linecap="round" stroke-linejoin="round"/>
<path d="M205.11 206.75C205.11 206.75 202.83 218.7 203.4 223" stroke="#263238" stroke-linecap="round" stroke-linejoin="round"/>
</svg>
