<svg width="38" height="38" viewBox="0 0 38 38" fill="none" xmlns="http://www.w3.org/2000/svg">
<g opacity="0.88">
<g filter="url(#filter0_d_1468_8969)">
<path d="M29.4699 8.90625H13.7227C13.3768 8.90625 13.0311 9.06582 12.8183 9.35843L5.58311 18.4822C5.26396 18.9079 5.26396 19.4931 5.58311 19.9185L12.8183 29.0689C13.0311 29.335 13.377 29.5211 13.7227 29.5211H29.4433C30.0817 29.5211 30.587 29.0157 30.587 28.3774L30.5872 10.05C30.6137 9.4117 30.1083 8.9063 29.47 8.9063L29.4699 8.90625ZM28.2994 27.207H14.2812L7.97701 19.2004L14.2812 11.1938H28.2994V27.207Z" fill="#714ECC"/>
</g>
<g filter="url(#filter1_d_1468_8969)">
<path d="M15.6361 23.8818C15.8489 24.0946 16.168 24.2277 16.4606 24.2277C16.7532 24.2277 17.0458 24.1214 17.2852 23.8818L20.3176 20.8494L23.35 23.8818C23.5628 24.0946 23.8819 24.2277 24.1745 24.2277C24.4671 24.2277 24.7597 24.1214 24.9991 23.8818C25.4512 23.4296 25.4512 22.7114 24.9991 22.2592L21.9403 19.2003L24.9727 16.1679C25.4249 15.7157 25.4249 14.9975 24.9727 14.5453C24.5205 14.0932 23.8023 14.0931 23.3501 14.5453L20.3177 17.5777L17.2586 14.5188C16.8064 14.0666 16.0882 14.0666 15.636 14.5188C15.1838 14.971 15.1838 15.6893 15.636 16.1414L18.6684 19.2003L15.636 22.2327C15.1838 22.6849 15.1838 23.4297 15.636 23.8819L15.6361 23.8818Z" fill="#714ECC"/>
</g>
</g>
<defs>
<filter id="filter0_d_1468_8969" x="4.34375" y="7.90625" width="29.2422" height="24.6152" filterUnits="userSpaceOnUse" color-interpolation-filters="sRGB">
<feFlood flood-opacity="0" result="BackgroundImageFix"/>
<feColorMatrix in="SourceAlpha" type="matrix" values="0 0 0 0 0 0 0 0 0 0 0 0 0 0 0 0 0 0 127 0" result="hardAlpha"/>
<feOffset dx="1" dy="1"/>
<feGaussianBlur stdDeviation="1"/>
<feComposite in2="hardAlpha" operator="out"/>
<feColorMatrix type="matrix" values="0 0 0 0 0.607843 0 0 0 0 0.317647 0 0 0 0 0.878431 0 0 0 0.4 0"/>
<feBlend mode="normal" in2="BackgroundImageFix" result="effect1_dropShadow_1468_8969"/>
<feBlend mode="normal" in="SourceGraphic" in2="effect1_dropShadow_1468_8969" result="shape"/>
</filter>
<filter id="filter1_d_1468_8969" x="14.2969" y="13.1797" width="14.0391" height="14.0479" filterUnits="userSpaceOnUse" color-interpolation-filters="sRGB">
<feFlood flood-opacity="0" result="BackgroundImageFix"/>
<feColorMatrix in="SourceAlpha" type="matrix" values="0 0 0 0 0 0 0 0 0 0 0 0 0 0 0 0 0 0 127 0" result="hardAlpha"/>
<feOffset dx="1" dy="1"/>
<feGaussianBlur stdDeviation="1"/>
<feComposite in2="hardAlpha" operator="out"/>
<feColorMatrix type="matrix" values="0 0 0 0 0.607843 0 0 0 0 0.317647 0 0 0 0 0.878431 0 0 0 0.4 0"/>
<feBlend mode="normal" in2="BackgroundImageFix" result="effect1_dropShadow_1468_8969"/>
<feBlend mode="normal" in="SourceGraphic" in2="effect1_dropShadow_1468_8969" result="shape"/>
</filter>
</defs>
</svg>
