<svg xmlns="http://www.w3.org/2000/svg" viewBox="0 0 755.57 595.28"><defs><style>.cls-1{isolation:isolate;}.cls-2{fill:#131b2f;}.cls-3{fill:#886915;}.cls-4{fill:#939393;}.cls-5,.cls-7{fill:#894914;}.cls-6{fill:#c57f11;}.cls-36,.cls-6,.cls-7{mix-blend-mode:screen;}.cls-8{fill:#814b12;}.cls-8,.cls-9{opacity:0.3;}.cls-16,.cls-29,.cls-37,.cls-39,.cls-41,.cls-42,.cls-8,.cls-9{mix-blend-mode:multiply;}.cls-9{fill:#834a13;}.cls-10{fill:#e3bc95;}.cls-11{fill:#ef7ea5;}.cls-12{fill:#f4d9bf;}.cls-13{fill:#fff;}.cls-14{fill:#23b8d1;}.cls-15{fill:#fecb2a;}.cls-16,.cls-30,.cls-33,.cls-39,.cls-41,.cls-43{opacity:0.5;}.cls-17{fill:#d5a980;}.cls-18{fill:#f49f05;}.cls-19{fill:#cb8210;}.cls-20,.cls-21{fill:none;}.cls-21{stroke:#883a13;stroke-miterlimit:10;stroke-width:4.26px;}.cls-22{fill:#c39368;}.cls-23{fill:#431e10;}.cls-24{fill:#bc7613;}.cls-25{fill:#e20d18;}.cls-26{fill:#0499a5;}.cls-27{fill:#faccc1;}.cls-28,.cls-29{fill:#724a10;}.cls-31{fill:#4a2011;}.cls-32{fill:#3298d4;}.cls-33{fill:#f6fbfe;}.cls-34{fill:#e4051f;}.cls-35,.cls-36,.cls-37{fill:#b9181c;}.cls-38,.cls-39,.cls-42{fill:#2c2e74;}.cls-40,.cls-41{fill:#292952;}.cls-43{fill:#2e96d3;}</style></defs><title>Монтажная область 1</title><g class="cls-1"><g id="Слой_1" data-name="Слой 1"><path class="cls-2" d="M724.26,217.3c-4.53-1.59-8.51-1.15-13.41-1-4.2.15-8.29-1.32-12.48-1.35h-.58a18.47,18.47,0,0,0-2.58.53c-1.45,0-2.91.1-4.35.25a46,46,0,0,0-10,3.4c-16.7,7.91-27.79,20.78-36.18,36.23A489,489,0,0,0,625.32,316a273.34,273.34,0,0,0-7.89,77.78l-.39-.07a4.19,4.19,0,0,0,2.31,2.84,28.2,28.2,0,0,0,4.21.56,96.62,96.62,0,0,1,13,3.24,55,55,0,0,1,17.64,9,50.74,50.74,0,0,1,13.41,16.35c1.64,3.16,3,7.57,5.24,10.93,2-7.79,4.35-15.49,7-23.17a1.1,1.1,0,0,0,.47-1.37c1.22-3.55,2.49-7.12,3.83-10.69q5.82-15.41,12.34-30.57c1-2.41,2.12-4.8,3.23-7.18,20.28-34.38,49.45-68.65,46.8-110.76C745.49,237.62,736.52,225.19,724.26,217.3Z"/><path class="cls-3" d="M644.63,269.07c2.38-6.88,4.94-13.67,7.77-20.36a73.29,73.29,0,0,1,10.71-13.65,65.27,65.27,0,0,1,19.51-13.71,40,40,0,0,1,11-3c3.47-.22,6.89-.51,10.41-.62l2.24-.06c-8.73,2.57-15.44,8.19-22.24,14.21-16.4,14.55-25.7,36.64-34.5,56.27a253,253,0,0,0-20,68.33c-1.58,11.35-3.08,23.66-.22,34.91a15.13,15.13,0,0,0,2.75,5.36l-3.72-.92c-1.39-.35-3.48-.49-5.4-.83,0,0,0-.09-.08-.1-.6-.13-1.23-.22-1.84-.35a7.87,7.87,0,0,1-.85-.32l-2-.37C620,350.93,630.64,309.6,644.63,269.07Z"/><path class="cls-4" d="M645,403.67c-1.29-.66-2.59-1.31-3.89-1.88a.54.54,0,0,0-.35-.56,15.06,15.06,0,0,0-3.07-.92.77.77,0,0,0-.6.22A68.27,68.27,0,0,1,645,403.67Z"/><path class="cls-4" d="M658.31,413.06A51.57,51.57,0,0,1,667,424.57,40.85,40.85,0,0,0,658.31,413.06Z"/><path class="cls-5" d="M733.84,295.06c-7.76,19.3-19.51,36.5-30.47,54.06-2.73,6-5.54,11.92-8.36,17.86-6.82,14.4-13.62,28.92-18.55,44.09-2,6.17-3.8,12.42-5.53,18.68a25.13,25.13,0,0,0-1.07-2.73,41.79,41.79,0,0,0-5.2-11.88c-4.73-7.38-12.93-12.31-21.68-15l-.32-.15a68.44,68.44,0,0,0-8.62-2.68c-6.64-8.32-.18-45.8.86-51.36,3.53-18.77,9.65-37,17.17-54.51,7.31-17.06,15.65-35.3,27.51-49.72,5.3-6.44,12.18-12.14,19-16.95a29.48,29.48,0,0,1,13.76-5.67,14.77,14.77,0,0,1,4,.11A54.84,54.84,0,0,1,731,229.72C748,247,741.93,275,733.84,295.06Z"/><path class="cls-6" d="M733.84,295.06c-7.76,19.3-19.51,36.5-30.47,54.06-2.73,6-5.54,11.92-8.36,17.86-6.82,14.4-13.62,28.92-18.55,44.09-2,6.17-3.8,12.42-5.53,18.68a25.13,25.13,0,0,0-1.07-2.73,41.79,41.79,0,0,0-5.2-11.88c-4.73-7.38-12.93-12.31-21.68-15l-.32-.15a68.44,68.44,0,0,0-8.62-2.68c-6.64-8.32-.18-45.8.86-51.36,3.53-18.77,9.65-37,17.17-54.51,7.31-17.06,15.65-35.3,27.51-49.72,5.3-6.44,12.18-12.14,19-16.95a29.48,29.48,0,0,1,13.76-5.67,14.77,14.77,0,0,1,4,.11A54.84,54.84,0,0,1,731,229.72C748,247,741.93,275,733.84,295.06Z"/><path class="cls-7" d="M700.89,254.52c-6.94,11.75-11.49,24.72-15.25,37.79-3.3,11.51-10.44,28-5.38,39.84,6.91,16.12,21.19,10.09,32.47,2.12,7.91-12.61,15.53-25.36,21.1-39.21,7.13-17.68,12.66-41.44,2.29-58.69a14,14,0,0,0-7.42-3C716.59,232.28,706.39,245.27,700.89,254.52Z"/><path class="cls-8" d="M674.37,378.77c-9.58,3.43-19.77.51-23.26-9.83-4.11-12.13-2.33-25.22,1.37-37.21,9.3-30,22.47-61.5,44.1-84.8,7.7-8.3,18.83-19.9,31.49-17.81a29.16,29.16,0,0,1,3,.68l-.07-.08a54.84,54.84,0,0,0-14.67-10.53,14.77,14.77,0,0,0-4-.11,29.48,29.48,0,0,0-13.76,5.67c-6.78,4.8-13.66,10.51-19,16.95-11.86,14.42-20.2,32.65-27.51,49.72-7.52,17.53-13.64,35.73-17.17,54.51-1,5.56-7.5,43-.86,51.36a68.44,68.44,0,0,1,8.62,2.68l.32.15c8.75,2.73,16.95,7.67,21.68,15a41.79,41.79,0,0,1,5.2,11.88,25.13,25.13,0,0,1,1.07,2.73c1.73-6.27,3.54-12.52,5.53-18.68C681.39,395.9,688.19,381.38,695,367l4.43-9.38C692.57,366.23,684.25,375.26,674.37,378.77Z"/><path class="cls-9" d="M656.19,400.28c-15.26-8.75-15.36-30.71-15.4-46.1-.08-21.31,5.15-42.3,12.13-62.34,1.85-5.33,3.8-10.6,6-15.77-2.41,5.13-4.67,10.28-6.83,15.33-7.52,17.53-13.64,35.73-17.17,54.51-1,5.56-7.5,43-.86,51.36a68.44,68.44,0,0,1,8.62,2.68l.32.15c8.75,2.73,16.95,7.67,21.68,15a41.79,41.79,0,0,1,5.2,11.88,25.13,25.13,0,0,1,1.07,2.73c1.73-6.27,3.54-12.52,5.53-18.68.92-2.8,1.91-5.56,2.93-8.3A27.34,27.34,0,0,1,656.19,400.28Z"/><path class="cls-10" d="M564.3,398.66c-10.08,7.87-17.6,12.54-62.07,18-15.67,1.24-15.21,3.76-13.79-9.27-6.77-4.5-10.33-5.78-10.33-5.78s-9,14.63-5.83,24.27,38.42.35,60.91-4.19,31.65-9.42,52-2.93c.28.1.54.17.81.24C591.2,405.87,573.36,400.48,564.3,398.66Z"/><path class="cls-11" d="M602.58,409.84c-7.37-9.55-28.11-19.14-38.23-11.23l0,0c9.06,1.83,26.9,7.21,21.69,20.37C600.11,423.2,609.8,419.2,602.58,409.84Z"/><path class="cls-12" d="M610.25,412.41c-15.43,2.65-61.55,18.08-63.22,17.73S546.8,417,546.8,417l-15.4,1.52c.33,23.16-4.77,31,14.38,26.58,33.6-9,60.9-21.46,65.36-21.52,4.16-.08,17.15,5.79,31.26,11.19C646,418.27,621.37,412.92,610.25,412.41Z"/><path class="cls-11" d="M664.37,429.65c-2.1-9-31.36-21.21-41.83-23.93s-13.38.5-12.29,6.68c11.12.51,35.72,5.86,32.15,22.4l3.28,1.24C661,441.76,665.92,438.65,664.37,429.65Z"/><path class="cls-11" d="M482.07,278.56S463.38,294,448.25,295.63c3.3,10.6,5.1,16.74,5.1,16.74s18.71-3.59,27.13-9.09c2.26-14.21,5.19-21.46,7.07-24.86C484.11,278.55,482.07,278.56,482.07,278.56Z"/><path class="cls-13" d="M515,320.42h0S515,320.42,515,320.42Z"/><path class="cls-14" d="M559.26,345.44c-10.08-16.88-21.88-40.88-24-45.29.56,11.6.5,23,.5,23L515,320.42s0,0,0,0h0c.06-.1.41-1.59,1.72-19.45.54-11.45,3.43-16.6,6-18.94-4.19-2.42-9.86-4.3-17.51-4.83,1,8.63.66,18.39-6.4,18.16-6.33-.21-7.82-12.14-8.16-17.08-1.15.07-2.18.11-3.12.15-1.88,3.4-4.81,10.65-7.07,24.86.16-.1.32-.21.46-.32-.59,22.15,6.22,59,15,73.3-17.88,13.11-24.19,22.86-24.19,22.86s46.29,36.12,90.51,13.89C571.57,375,570.39,364.06,559.26,345.44Z"/><path class="cls-15" d="M540.62,311c-1.65-3.25-3-6-4-8-.42.18-.83.33-1.24.49.13,3.33.21,6.53.27,9.37C537.33,312.27,539,311.66,540.62,311Z"/><path class="cls-15" d="M547,323.28c-2.13-4.06-4.13-7.95-5.87-11.34-1.76.77-3.57,1.5-5.41,2.14.08,5.35.06,9.07.06,9.07L515,320.42a13.09,13.09,0,0,0,.24-1.65,174.89,174.89,0,0,1-33.64.64c.28,3.23.66,6.56,1.11,9.9C503.19,329.81,527.3,331,547,323.28Z"/><path class="cls-15" d="M515.39,317.25c.18-1.81.43-4.63.79-9.1-11.47,1.45-23.4,1.16-35.2,1.56.06,2.55.22,5.21.46,8A180.85,180.85,0,0,0,515.39,317.25Z"/><path class="cls-11" d="M515,320.42l20.76,2.73s.06-11.4-.5-23c-.24-.46-.35-.72-.35-.72s-.72-10.78-12.15-17.4c-2.6,2.34-5.49,7.5-6,18.94C515.4,318.83,515.06,320.32,515,320.42Z"/><g class="cls-16"><path class="cls-14" d="M559.26,345.44c-10.08-16.88-21.88-40.88-24-45.29.56,11.6.5,23,.5,23L515,320.42s0,0,0,0,0,0,0,0,.41-1.59,1.72-19.45c.54-11.45,3.43-16.6,6-18.94-4.19-2.42-9.86-4.3-17.51-4.83,1,8.63.66,18.39-6.4,18.16-6.33-.21-7.82-12.14-8.16-17.08l-2.95.14c0,6.2,1.15,20.75,10.33,21.41,11.65.86,13.29-14.55,13.29-14.55s1.75,29.65,4.17,66.09c1.66,24.71-2.05,46.52-9.74,64.8,16.35,5,36.64,6.85,56.55-3.16C571.57,375,570.39,364.06,559.26,345.44Z"/></g><path class="cls-17" d="M498.83,295.35c7.06.24,7.42-9.53,6.4-18.16l-.26,0c-5.52.57-10.44.9-14.3,1.1C491,283.21,492.5,295.14,498.83,295.35Z"/><path class="cls-18" d="M606.4,274.35s18.36-16.92,34.88-12l.67,7.78-6.55-.48,8.76,5.24-.12,6.21L635.64,280l6.28,6.14-.51,7.24S626.23,297.18,606.4,274.35Z"/><path class="cls-19" d="M585.34,266.77a8.26,8.26,0,0,1,9.73-1.45c5.77,2.86,11.6,6.89,11.35,9.6s-8,6.6-16.1,6.45S580.94,272.71,585.34,266.77Z"/><path class="cls-18" d="M572.55,260.19s13-1.15,15.52,10c.28,4.74-10.13,8.5-15.8,7.25S558.12,265,572.55,260.19Z"/><path class="cls-19" d="M573.67,252s2.89,13.1-1.22,15.92-13.89,3.85-20.62-2.2C560.75,262.15,573.67,252,573.67,252Z"/><path class="cls-20" d="M428.79,154c-.08.35-.15.69-.22,1,.51-1.28.86-2,.86-2S429.2,153.33,428.79,154Z"/><path class="cls-21" d="M428.78,154a0,0,0,0,1,0,0h0A.07.07,0,0,0,428.78,154Z"/><path class="cls-12" d="M555.28,234.91s10.86,6.31,17.43.68c7.11-6.86,2.65-20.54-6.06-22.31s-18,9.6-18,9.6,2.3-25.53-4.28-46.74c-.36,7.93-2.8,12.41-2.8,12.41l-24.68-2.79s.42-6-3.45-21.89c-1,9.26-6.59,19.48-6.59,19.48l-18.2-1.52-2-22.54s-1.38,2.6-3.05,15.19c-13.43.8-41.15-.08-41.15-.08s-1-5.26,1.43-20.14c-4.71,8.3-7.18,21-7.18,21l-9.44-2.2s-1.72-4.21,1.29-18.07c-1.72,4.16-5.31,14-5.46,23.08.58,29.07-2.62,19.75-2.68,40.6,7.46,83.54,95.89,60.2,109.84,51.17C553.94,248.66,555.28,234.91,555.28,234.91Z"/><path class="cls-18" d="M575.3,147.73c-26.49-36.27-94.79-45.45-135.21-18S413,178.39,413,178.39l7.69.64c.16-11.62,6.06-21.9,8.07-25a.07.07,0,0,1,0,0h0c.41-.63.64-1,.64-1s-.35.76-.86,2c-3,13.86-1.29,18.07-1.29,18.07l9.44,2.2s2.47-12.71,7.18-21c-2.47,14.88-1.43,20.14-1.43,20.14s27.72.88,41.15.08c1.68-12.59,3.05-15.19,3.05-15.19l2,22.54,18.2,1.52s5.61-10.21,6.59-19.48c3.87,15.92,3.45,21.89,3.45,21.89l24.68,2.79s2.43-4.49,2.8-12.41c6.58,21.21,4.28,46.74,4.28,46.74s9.28-11.35,18-9.6,13.16,15.45,6.06,22.31c-6.57,5.63-17.43-.68-17.43-.68s-1.34,13.75-25,34.94C602.26,270.12,601.79,184,575.3,147.73Z"/><path class="cls-22" d="M560.61,228.11s-.81-4.83,2.81-6.1,4,2.27,4,2.27-1.54-2.41-4.18-.38S560.61,228.11,560.61,228.11Z"/><path class="cls-23" d="M431.53,214c.27,2.45-.38,4.53-1.44,4.66s-2.18-1.77-2.44-4.21.38-4.55,1.44-4.65S431.27,211.55,431.53,214Z"/><path class="cls-13" d="M429.1,212.4c0,.73-.24,1.35-.54,1.36s-.63-.59-.65-1.34.25-1.37.57-1.37S429.07,211.64,429.1,212.4Z"/><path class="cls-23" d="M479.58,213.69c.28,2.46-.37,4.54-1.45,4.65s-2.16-1.76-2.43-4.22.38-4.51,1.44-4.63S479.31,211.26,479.58,213.69Z"/><path class="cls-13" d="M477.16,212.08c0,.76-.23,1.38-.55,1.39s-.62-.6-.64-1.35.24-1.35.57-1.36S477.15,211.34,477.16,212.08Z"/><path class="cls-13" d="M472.58,266.49s15.57-2.34,22.39-14.44C493.88,263.85,490.27,269.68,472.58,266.49Z"/><path class="cls-22" d="M452.1,238.8l-.65,0a8.71,8.71,0,0,0-1.61.18,5.08,5.08,0,0,0-.93.32,3.06,3.06,0,0,0-.83.54,3.4,3.4,0,0,0-.56.84,5.06,5.06,0,0,0-.29,1l-.08.69,0,.49a2.61,2.61,0,0,1,.1.51c.08.13.11.3.2.45a3.51,3.51,0,0,0,.61.81,7.16,7.16,0,0,0,.79.6,10.62,10.62,0,0,0,2.06,1,5,5,0,0,1-.66.1,6.27,6.27,0,0,1-1.77-.19,4.26,4.26,0,0,1-2.27-1.5,3.54,3.54,0,0,1-.64-1.51,5.42,5.42,0,0,1-.06-.88l0-.7a6.38,6.38,0,0,1,.52-1.59,4,4,0,0,1,1.07-1.25,3.91,3.91,0,0,1,2.65-.69,5.07,5.07,0,0,1,1.72.45A3.66,3.66,0,0,1,452.1,238.8Z"/><path class="cls-22" d="M447.86,258.4a11.44,11.44,0,0,0,.57,1.09,9.91,9.91,0,0,0,2.11,2.34,16.18,16.18,0,0,0,1.68,1.21c.67.33,1.31.75,2.08,1.05.36.14.73.31,1.13.45s.8.25,1.21.36a20.11,20.11,0,0,0,2.49.63c.86.22,1.73.28,2.57.42s1.72.16,2.52.25,1.63.15,2.4.15l2.14.09c.66,0,1.27,0,1.82,0s1,0,1.43,0c.79,0,1.24,0,1.24,0s-.43.12-1.19.29l-1.43.26a14.73,14.73,0,0,1-1.82.31c-.66.08-1.41.16-2.18.21a15.79,15.79,0,0,1-2.45.07,22.32,22.32,0,0,1-2.64-.11c-.92-.13-1.81-.17-2.73-.38a22.54,22.54,0,0,1-2.68-.72,13.52,13.52,0,0,1-2.48-1.06,16,16,0,0,1-2.16-1.32,14.81,14.81,0,0,1-1.64-1.57,9.09,9.09,0,0,1-1.1-1.54,9.22,9.22,0,0,1-.61-1.33A4.29,4.29,0,0,1,447.86,258.4Z"/><path class="cls-24" d="M474.91,189.37s4.68-7,15.37-.85c2.19,1.22-.47-5.08-7.77-5.56S474.91,189.37,474.91,189.37Z"/><path class="cls-24" d="M426.78,188.71s6.57-5,14.31,2.67C443,193.5,435.45,175.95,426.78,188.71Z"/><path class="cls-25" d="M606.42,274.92l-5.83-15.53s14.55-2.09,17.51-1.26S615.59,272.47,606.42,274.92Z"/><path class="cls-25" d="M606.42,274.92a42.63,42.63,0,0,0-3.89,12.33c-.31,1.81,13.46,1.76,15.32,1.38S609.32,274,606.42,274.92Z"/><g class="cls-16"><path class="cls-18" d="M505.18,178.5l-13-2.12s-1.77-14.39-4.77-28.84a119.3,119.3,0,0,0-6.06,27c.79,0,1.53-.06,2.27-.1,1.68-12.59,3.05-15.19,3.05-15.19l2,22.54,18.2,1.52s5.61-10.21,6.59-19.48c3.87,15.92,3.45,21.89,3.45,21.89l2.74.31c-.31-8.46-1.45-25.21-5.58-36.39C513.17,163.35,505.18,178.5,505.18,178.5Z"/><path class="cls-18" d="M446.18,144.46c-7.18,10.31-11.5,25-11.5,25l-5.74-1.18s.48-17,6.1-26.81c-16.16,13.57-17.36,33.92-17.36,33.92l-6-.27a13.77,13.77,0,0,0,1.32,3.25l7.69.64c.16-11.62,6.06-21.9,8.07-25a.07.07,0,0,1,0,0h0c.41-.63.64-1,.64-1s-.35.76-.86,2c-3,13.86-1.29,18.07-1.29,18.07l9.44,2.2s2.47-12.71,7.18-21c-2.47,14.88-1.43,20.14-1.43,20.14s.54,0,1.47,0C444.67,152.25,452.78,134.91,446.18,144.46Z"/><path class="cls-18" d="M543.56,158.35a61,61,0,0,1-3.4,30l1.47.16s2.43-4.49,2.8-12.41c6.58,21.21,4.28,46.74,4.28,46.74a39,39,0,0,1,4.42-4.41C556.62,205.55,554.09,189.89,543.56,158.35Z"/></g><path class="cls-26" d="M517.75,294.26q-.17,3.38-.41,6.78c-.13,2.24-.31,4.49-.49,6.76-.36,4.48-.73,9-1.17,13.49l-.7-.88c3.45.31,6.9.59,10.35.82l5.18.33c.85,0,1.69,0,2.54,0l2.54,0-.67.7c0-2,.11-4.05.21-6.08,0-1,.11-2,.06-3.05l0-3.05-.06-3.07c0-1,0-2-.06-3l-.26-6.13c.37,2,.58,4.06.82,6.09s.4,4.07.54,6.11l.2,3.07c.08,1,0,2.05.07,3.07,0,2.07,0,4.14,0,6.17v.71h-.68c-1.78,0-3.56.06-5.33,0l-5.21-.3c-1.75-.08-3.47-.26-5.21-.41s-3.46-.3-5.19-.49l-.77-.09.08-.77q.77-6.74,1.69-13.45c.3-2.24.59-4.48.92-6.7S517.38,296.49,517.75,294.26Z"/><path class="cls-26" d="M482,294.36a6.5,6.5,0,0,1,.31,1.4,11.85,11.85,0,0,1,0,3,14,14,0,0,1-.69,2.93,6.73,6.73,0,0,1-.65,1.27,6.48,6.48,0,0,1-.32-1.38,12.61,12.61,0,0,1,0-3,13.41,13.41,0,0,1,.7-2.92A6.75,6.75,0,0,1,482,294.36Z"/><path class="cls-12" d="M519.58,321.88s-.65,64.54-1.08,69.33c-.58,3.32-8.61,5.26-11.22,7.65-1.54,1.8,5.34,2.11,10.19,1.08-10.37,7.48-12.93,13-11.29,13.93s13.59-9.43,13.59-9.43-5.76,11.67-2.89,12.83,7.91-13,7.91-13-2.07,13.29,1.27,13.44,4.2-13.81,4.2-13.81,1.5,12.6,4.62,13,.33-11.69-2.35-21.83c-1.61-14.92-2.52-72.86-2.52-72.86Z"/><path class="cls-27" d="M503.81,225.6c0,2.4-4.64,4.36-10.37,4.42S483,228.15,483,225.76s4.63-4.38,10.39-4.42S503.78,223.21,503.81,225.6Z"/><path class="cls-27" d="M422,228.42a46.77,46.77,0,0,1-1.18-7.77c.63.13,1.25.3,1.89.5,5.51,1.68,9.39,4.9,8.68,7.2-.61,2-4.5,2.59-9.1,1.62C422.21,229.43,422.1,228.9,422,228.42Z"/><path class="cls-12" d="M448.71,297.44s-5.35,1.64-8.93.07c-2.92-1.29-15.89-16.63-20.56-22.23a12.42,12.42,0,0,0-.86-4.85c-.88-2.06-5.53-4.6-7.5-5.07,0,0-16-5.57-27.1-5.28-5,.13-5,5.06-.45,7.1,4,1.78,8.63,2.06,12.88,2.93,1.63.34,3.16.81,4.71,1.18-3.26,2.34-4.11,9.78-2,14.36,2.73,5.86,10.53,4.41,14.71,1.51a10.92,10.92,0,0,0,2.06-2c6.17,11.14,15.16,23.45,35.58,20.34Z"/><path class="cls-2" d="M659.16,409.89c-11.74-10.46-26.83-13.31-41.73-16.28a1,1,0,0,1,0,.14q-11.79-2-23.68-3.27a294.85,294.85,0,0,0-50.95-.75c-16.65.51-33.29,1.56-49.77,2.31-19.41.88-39.59,2-58.19,8-14.25.17-18.45,26.53-18.23,36.7a91.73,91.73,0,0,0,5.19,28.43,16.55,16.55,0,0,0,11.87,10.72,16.17,16.17,0,0,0-3.72,6.36c-2.23,7.1-1,16.31.3,23.93-.24,9.34-.31,18.67,0,28,.4,10.34.43,19.5,9.37,22,.77,4.34.32,8.75.22,13.17a11.51,11.51,0,0,0,1.52,6.7c2.6,4.11,9,2,11.2-1.17,1.28-1.84,1.45-4.51,1.68-6.64.41-3.84,1.67-7.45,2.32-11.21,12.93.49,25.8,1.83,38.77,2.3,19,.7,37.89.58,56.89.27a531.16,531.16,0,0,1,56.05,2.16c3.66.33,7.76.87,11.93,1.16a39.45,39.45,0,0,1-.51,6.47q-.46,4.42-.72,8.84c-.27,4.32,2.95,5.39,6.65,5.69a7.72,7.72,0,0,0,8.13-4.92,139.53,139.53,0,0,0,5.1-17c4.28-.93,6.92-3.07,10.29-8,4.91-7.22,6.61-16.6,8.4-25,2.48-11.58,4-23.25,5.48-34.95,1.67-9.61,3-19.29,3.84-29,1.49-9.6,3.46-18.92,5.85-28.13C671.45,426.7,667,416.87,659.16,409.89Z"/><path class="cls-4" d="M618.29,393.77a.3.3,0,0,1,0,.11l2,.37a7.87,7.87,0,0,0,.85.32c.61.13,1.24.22,1.84.35.06,0,.07,0,.08.1,1.38.25,2.84.4,4.07.58C624.18,395,621.24,394.36,618.29,393.77Z"/><path class="cls-28" d="M453.45,558.4c-1,4.22-1.71,8.42-2.66,12.63-.71,3.13-4.22,4.89-6.86,2.38-1.31-1.23-1.16-4.6-1.3-6.24-.33-3.76-.65-7.36-1.93-10.77a22.07,22.07,0,0,0,4.73.4c2.67,0,5.33,0,8,.08A2.48,2.48,0,0,1,453.45,558.4Z"/><path class="cls-29" d="M453.42,556.89c-2.66-.06-5.33-.11-8-.08a22.07,22.07,0,0,1-4.73-.4.59.59,0,0,0,0,.1c1.54,0,2.83,1.2,3.8,2.32,3,3.47,6.28,8.1,5.26,12.93a6.09,6.09,0,0,1-.88,2.12,4.82,4.82,0,0,0,1.88-2.85c1-4.21,1.65-8.41,2.66-12.63A2.48,2.48,0,0,0,453.42,556.89Z"/><path class="cls-28" d="M632.21,574.86c-.89,2.76-1.38,4.73-4.64,5.37-3.8.75-5.65-1.36-5.72-5,0-.76.33-8.7-.61-12.34a50.66,50.66,0,0,0,11.24-.38,1,1,0,0,0,.46.1c1,0,1.93-.1,2.79-.19C634.31,566.5,633.51,570.8,632.21,574.86Z"/><path class="cls-29" d="M625.8,566.48a16.92,16.92,0,0,1,6.9-3.78c.08,0,.16,0,.24,0a1,1,0,0,1-.45-.09,50.66,50.66,0,0,1-11.24.38c.7,2.7.69,7.83.64,10.56A14.42,14.42,0,0,1,625.8,566.48Z"/><path class="cls-5" d="M668.91,437.19q-.61,2.21-1.19,4.41a36,36,0,0,1-2.91,6.07,94.89,94.89,0,0,1-6.56,9.64c-3.16,4-9.17,4.94-13.8,5.86-1.09.22-1.59,2-.2,2.09,10.46.52,15.35-3.49,20.32-10.54-1.36,8.51-2.5,17.1-4.34,25.51-1,7.49-1.84,15-2.64,22.52-2.28,14.57-5.3,29-10.7,42.59-3.84,9.71-10.6,12.73-20.68,13.09-9.21.33-18.65-1.38-27.8-2.11C583.2,555.1,568,554.84,552.68,555c-16.13.22-32.27.67-48.41.07-15.56-.59-31-2.38-46.55-3.34-5.44-.35-11,.62-16.35-.09-8.63-1.13-6.72-15.21-7.15-21.53q-.94-13.83-1.74-27.7c.19-4.43.49-8.84,1.08-13.23.49-3.42.58-9,2.66-12.52,6.4,1.93,19.68.7,21.87.59,6.71-.3,13.39-.74,20.08-1.2,4.22-.51,8.44-1,12.66-1.44,45.71-4.55,91.6-6.45,137.33-10.53.61-.06.83-1.15.1-1.13-38.94.53-78,4.19-116.8,7.41-5.17.42-10.35.88-15.54,1.31-4.48.45-9,.83-13.45,1.08l-1.64.13c-4.1.33-8.16,1-12.27,1.22a22.35,22.35,0,0,1-5.49-.07c-2.61.12-5.21.27-7.81.35-4.32.15-9,.39-13.51.14-6.38-3.89-11.94-4.61-15.38-12.36-2.87-6.43-3.5-14.16-4.36-21.06a51.9,51.9,0,0,1,2-23.34c2.2-6.6,6.35-10.56,11.38-14.41,3.62-1.25,7.39-2,10.26-2.73,19-4.55,38.82-5.18,58.24-6.24-1.93.33-3.85.68-5.77,1l5.69-.87a242.77,242.77,0,0,1,26.87-2.25c17.24-.61,34.5-1,51.73.27.4,0,.53.35.49.71,2.34.14,4.67.31,7,.51,7.48.6,15,.45,22.42,1.47a132.92,132.92,0,0,1,14.16,3c4.42,1.11,9,1.29,13.39,2.59,6.77,2,12.66,6.92,17.78,11.63,4.75,4.37,10.57,11.1,11.38,17.82A23.34,23.34,0,0,1,668.91,437.19Z"/><path class="cls-6" d="M668.91,437.19q-.61,2.21-1.19,4.41a36,36,0,0,1-2.91,6.07,94.89,94.89,0,0,1-6.56,9.64c-3.16,4-9.17,4.94-13.8,5.86-1.09.22-1.59,2-.2,2.09,10.46.52,15.35-3.49,20.32-10.54-1.36,8.51-2.5,17.1-4.34,25.51-1,7.49-1.84,15-2.64,22.52-2.28,14.57-5.3,29-10.7,42.59-3.84,9.71-10.6,12.73-20.68,13.09-9.21.33-18.65-1.38-27.8-2.11C583.2,555.1,568,554.84,552.68,555c-16.13.22-32.27.67-48.41.07-15.56-.59-31-2.38-46.55-3.34-5.44-.35-11,.62-16.35-.09-8.63-1.13-6.72-15.21-7.15-21.53q-.94-13.83-1.74-27.7c.19-4.43.49-8.84,1.08-13.23.49-3.42.58-9,2.66-12.52,6.4,1.93,19.68.7,21.87.59,6.71-.3,13.39-.74,20.08-1.2,4.22-.51,8.44-1,12.66-1.44,45.71-4.55,91.6-6.45,137.33-10.53.61-.06.83-1.15.1-1.13-38.94.53-78,4.19-116.8,7.41-5.17.42-10.35.88-15.54,1.31-4.48.45-9,.83-13.45,1.08l-1.64.13c-4.1.33-8.16,1-12.27,1.22a22.35,22.35,0,0,1-5.49-.07c-2.61.12-5.21.27-7.81.35-4.32.15-9,.39-13.51.14-6.38-3.89-11.94-4.61-15.38-12.36-2.87-6.43-3.5-14.16-4.36-21.06a51.9,51.9,0,0,1,2-23.34c2.2-6.6,6.35-10.56,11.38-14.41,3.62-1.25,7.39-2,10.26-2.73,19-4.55,38.82-5.18,58.24-6.24-1.93.33-3.85.68-5.77,1l5.69-.87a242.77,242.77,0,0,1,26.87-2.25c17.24-.61,34.5-1,51.73.27.4,0,.53.35.49.71,2.34.14,4.67.31,7,.51,7.48.6,15,.45,22.42,1.47a132.92,132.92,0,0,1,14.16,3c4.42,1.11,9,1.29,13.39,2.59,6.77,2,12.66,6.92,17.78,11.63,4.75,4.37,10.57,11.1,11.38,17.82A23.34,23.34,0,0,1,668.91,437.19Z"/><path class="cls-7" d="M435.42,403.4a40.47,40.47,0,0,0-6.93,6.4c1.08,4.88,5.39,8.31,11.9,9.39,8.05,1.33,16.08.67,24.16.19,13.2-.79,26.42-1.33,39.65-1.72,26.61-.76,53.23-1,79.82-2.16,11.85-.49,29.25-1.2,37-11.84a13.81,13.81,0,0,0,2.69-6.07,111.46,111.46,0,0,0-11.37-2.29c-7.47-1-14.94-.86-22.42-1.47-2.34-.2-4.68-.37-7-.51,0-.35-.1-.67-.49-.71-17.24-1.23-34.49-.88-51.73-.27a242.77,242.77,0,0,0-26.87,2.25l-5.69.87c1.92-.35,3.84-.7,5.77-1-19.42,1.06-39.24,1.69-58.24,6.24C442.81,401.36,439,402.15,435.42,403.4Z"/><path class="cls-7" d="M629.69,558.17a16.83,16.83,0,0,0-3.53-5.21c-6.88-7-17.19-8.53-26.6-8.78-9.9-.27-19.79-.35-29.67-.7-21.42-.77-42.88-1.93-64.33-2a309.21,309.21,0,0,0-33.28,1.4c-5.24.56-11.31.58-15.7,3.92a13.43,13.43,0,0,0-4.21,4.91,52.45,52.45,0,0,1,5.33,0c15.53,1,31,2.75,46.55,3.34,16.14.61,32.28.15,48.41-.07,15.28-.2,30.52.06,45.75,1.28,9.15.74,18.59,2.45,27.8,2.11C627.42,558.39,628.57,558.3,629.69,558.17Z"/><path class="cls-8" d="M657.71,412.51c-5.12-4.71-11-9.6-17.78-11.63-4.33-1.29-8.91-1.48-13.29-2.56,10.79,6.7,18.69,16.47,11.1,26.62-9.38,12.57-25.53,15-40.16,16-19.23,1.24-38,0-57.25-.61-21.28-.69-42.73,3-64,1.28-12.86-1-28.11-2.28-39.47-9-7.81-4.63-11.4-10.69-12-17a23,23,0,0,0-.86,2.24,51.9,51.9,0,0,0-2,23.34c.86,6.9,1.49,14.63,4.36,21.06,3.44,7.75,9,8.46,15.38,12.36,4.55.25,9.19,0,13.51-.14,2.6-.08,5.2-.22,7.81-.35a22.35,22.35,0,0,0,5.49.07c4.1-.25,8.17-.89,12.27-1.22l1.64-.13c4.49-.26,9-.63,13.45-1.08,5.19-.43,10.37-.89,15.54-1.31,38.81-3.22,77.86-6.88,116.8-7.41.74,0,.51,1.07-.1,1.13-45.73,4.08-91.62,6-137.33,10.53-4.22.42-8.44.93-12.66,1.44-6.7.45-13.37.9-20.08,1.2-2.19.11-15.47,1.34-21.87-.59-2.07,3.48-2.17,9.1-2.66,12.52-.59,4.39-.89,8.8-1.08,13.23q.82,13.86,1.74,27.7c.43,6.33-1.48,20.4,7.15,21.53l.22,0a37.07,37.07,0,0,1,2.68-13.25c4-10.57,12.63-17.54,23.28-21,12.62-4.12,26-5.08,39.18-5.77,18.32-1,36.65-.87,55-1.14,22-.34,53.38-7.7,67.48,14.39,6,9.37,7.8,22.44,3.47,32.79,6.59-1.37,11.29-4.87,14.24-12.36,5.4-13.62,8.42-28,10.7-42.59.79-7.52,1.65-15,2.64-22.52,1.84-8.41,3-17,4.34-25.51-5,7.05-9.86,11.06-20.32,10.54-1.39-.08-.89-1.87.2-2.09,4.62-.92,10.64-1.85,13.8-5.86a94.89,94.89,0,0,0,6.56-9.64,36,36,0,0,0,2.91-6.07q.58-2.2,1.19-4.41a23.34,23.34,0,0,0,.19-6.86C668.28,423.61,662.46,416.87,657.71,412.51Z"/><path class="cls-9" d="M659.22,413.94a34,34,0,0,1,.74,7.13c0,14.78-7.59,23.84-21.54,28-17.31,5.21-35,6.28-52.9,8.28-38.68,4.32-78.64,11.35-117.64,7.82-12.11-1.11-31.34-1.65-40.34-11.54a27,27,0,0,1-5-7.94c.7,5.6,1.56,11.45,3.81,16.48,3.44,7.75,9,8.46,15.38,12.36,4.55.25,9.19,0,13.51-.14,2.6-.08,5.2-.22,7.81-.35a22.35,22.35,0,0,0,5.49.07c4.1-.25,8.17-.89,12.27-1.22l1.64-.13c4.49-.26,9-.63,13.45-1.08,5.19-.43,10.37-.89,15.54-1.31,38.81-3.22,77.86-6.88,116.8-7.41.74,0,.51,1.07-.1,1.13-45.73,4.08-91.62,6-137.33,10.53-4.22.42-8.44.93-12.66,1.44-6.7.45-13.37.9-20.08,1.2-2.19.11-15.47,1.34-21.87-.59-2.07,3.48-2.17,9.1-2.66,12.52-.59,4.39-.89,8.8-1.08,13.23q.33,5.8.71,11.6c.68-5.14,2.06-10.07,5.54-14.35,7.63-9.42,19.09-14.14,30.46-17.36,13.7-3.89,28.09-4.92,42.21-6.13,15.39-1.34,30.66-3.45,46-5.35,15.86-2,31.85-3.77,47.85-3.55,10.6.15,24.83,1,33.68,7.82,10.3,7.87,15.43,19.16,18.07,31.33.2-1.22.42-2.47.61-3.71.79-7.52,1.65-15,2.64-22.52,1.84-8.41,3-17,4.34-25.51-5,7.05-9.86,11.06-20.32,10.54-1.39-.08-.89-1.87.2-2.09,4.62-.92,10.64-1.85,13.8-5.86a94.89,94.89,0,0,0,6.56-9.64,36,36,0,0,0,2.91-6.07q.58-2.2,1.19-4.41a23.34,23.34,0,0,0,.19-6.86C668.36,424.3,663.61,418.27,659.22,413.94Z"/><path class="cls-4" d="M669.85,427a25.13,25.13,0,0,1,1.07,2.73c.06-.21.12-.42.18-.62a44.76,44.76,0,0,0-3.43-8.33A41.45,41.45,0,0,1,669.85,427Z"/><g class="cls-30"><path class="cls-4" d="M527.59,398.93a.87.87,0,0,0-1.36.06,4,4,0,0,0-.28,2c0,.76,1.06,1.28,1.49.53S528.16,399.56,527.59,398.93Z"/></g><g class="cls-30"><path class="cls-4" d="M440.36,403.43c-2.55,1.06-5.65,2.49-7.16,4.94-.32.54.2,1.31.83,1,2.45-1.33,4.86-2.5,7.38-3.66A1.25,1.25,0,0,0,440.36,403.43Z"/></g><g class="cls-30"><path class="cls-4" d="M519.19,394.3c-5.09,1.37-10.49,1-15.72,1.39-6.32.42-12.61,1.11-18.9,1.88-12.49,1.54-25.17,3-37.48,5.6-.16,0-.17.29,0,.3,12.66.27,25.41-1.86,38-3.24,6.29-.69,12.61-1.31,18.91-1.77,5.16-.39,11.15.35,16-1.65C521.38,396.25,520.65,393.92,519.19,394.3Z"/></g><g class="cls-30"><path class="cls-4" d="M616.2,400.16c-11.37-4.71-24.51-5-36.63-6.22-6.31-.64-12.62-1.08-19-1.16-6-.08-12.59-.12-18.4,1.59-.36.1-.39.69,0,.71,6.08.17,12.12-.31,18.2-.06,6.33.26,12.64.9,18.93,1.55C591.59,397.86,603.89,399,616,401,616.53,401,616.62,400.33,616.2,400.16Z"/></g><path class="cls-31" d="M313.9,470.31c-2.13-9.39-14.58-7.36-22.18-5.25-3,.09-5.9.06-8.85,0-6.53-.11-13.06-.43-19.57-.75a39.55,39.55,0,0,0,2-3.66,2.15,2.15,0,0,0,2.36.95c5.87-.76,7.89-5.69,8.21-11,.25-4.08-1.26-9.35-5.51-10,.17-2,.3-3.95.37-5.94,2.52-4.59,3.34-11.21,4.87-15.63a253.7,253.7,0,0,0,8.61-30.63c4.82-22.69,7.92-46.36,8-69.57.09-21.73-2.95-43.5-7.43-64.72-3.32-15.76-9-35.13-24-43-.94-3.73-2.5-7.3-5.32-9.47-6-4.55-12.62-5.55-19.87-6.59a435.54,435.54,0,0,0-46.87-3.62c.16-2,1.37-4.31-.41-6-2.57-2.43-8-1.1-11.17-1.26s-7.34-1.75-8.31,2.61a10.39,10.39,0,0,0,.09,4.09c-17.57-.58-36.71-2-53.7,2.09-5.13,1.25-9.17,4.56-12.91,8.13-10.67,8-20.32,17.25-31,25.25a208.62,208.62,0,0,0-30.58,28.32c-7.93,8.85-15.41,19.3-19.15,30.68-4.59,13.92-3.8,28.48-4.12,42.95-.68,31.47,3,62.62,4,94,.36,11.86,1.49,27.39,9.8,36.69,4,4.43,9.9,6.35,16,7.5-8.92.44-18.65,1.1-26.93,4.28a.47.47,0,0,0-.24.27,6.76,6.76,0,0,0-5.21,3.37c-2.21,3.62-1.73,11.78.06,15.37,1.56,3.11,5.91,3.54,8.92,3.64,8.2.28,16.69-1,24.94-1.08l1.9,0c-.21,17.5-.27,35,1.72,52.4.41,3.68-.6,29.19,8.85,26.69s5.86-18.77,5.43-25.47c-.53-8-1.18-16-1.81-24.06a.36.36,0,0,0,.28.11c28.67-.24,57.49-2.77,86.19-4.24q22.45-1.17,44.93-.91c13.35.17,61.4-.06,65.91-1.74.94,17.5,2.05,35,3,52.48a.74.74,0,0,0,.53.72,3.58,3.58,0,0,0,.45,1.38c1,1.76,4.62,1,6.28,1.18,3.87.37,9.81-1.11,7.77-6.25a.54.54,0,0,0-.35-.33c.33-4.59-.65-9.24-.78-13.88-.24-8.74-.93-48.59-3.31-60.68a162.74,162.74,0,0,0,17.13-1C304,487.52,317,483.87,313.9,470.31Z"/><path class="cls-32" d="M281.43,258.56a365.28,365.28,0,0,1,6.46,58.18c.56,20.8-2.08,41.6-5.21,62.12a243.17,243.17,0,0,1-6.84,31.27c-1.31,4.53-2.89,9-4.35,13.46-.18.56-.37,1.26-.55,2,0-4.17,0-8.32.16-12.37.83-21.85,2.51-43.58,2.32-65.48-.39-43-6.65-85.89-11.26-128.57a67.78,67.78,0,0,0-1-6.79C274.58,222.81,278.45,242.79,281.43,258.56Z"/><path class="cls-33" d="M264.12,236.7a98,98,0,0,1,15,10.39c-3-13-7.64-26.68-18-34.64a67.78,67.78,0,0,1,1,6.79C262.78,225,263.45,230.88,264.12,236.7Z"/><path class="cls-33" d="M272.7,312.3c5.12,1.32,10.2,2.81,15.2,4.54a.37.37,0,0,0,0-.1A345.3,345.3,0,0,0,285,280.54a166.36,166.36,0,0,0-16.86-9c1.48,13.51,2.81,27,3.77,40.56C272.16,312.18,272.43,312.23,272.7,312.3Z"/><path class="cls-33" d="M285.62,357.62c-4-1-8.11-1.88-12.22-2.65-.16,19.47-1.57,38.82-2.3,58.3-.15,4.05-.14,8.2-.16,12.37.18-.79.37-1.49.55-2,1.46-4.48,3-8.93,4.35-13.46a243.17,243.17,0,0,0,6.84-31.27C283.76,371.81,284.77,364.73,285.62,357.62Z"/><path class="cls-34" d="M171.16,189.32c.18-2.42,1.42-2.75,3.71-2.23,2.94.65,5.9.41,8.86.42,2.38,0,2.2,1.88,1.91,3.85-4.26-.13-8.53-.24-12.78-.34L171,191C171,190.34,171.12,189.74,171.16,189.32Z"/><path class="cls-13" d="M99.13,204.3l-.74.74c-2.24,2.22-4.65,4.34-7.1,6.41C93.89,209,96.49,206.64,99.13,204.3Z"/><path class="cls-35" d="M33.23,454.65c-4.31-4.83-5.7-14.83-6.71-20.89-1.23-7.24-.72-14.8-1-22.12-.89-27.1-3.74-54.07-3-81.2.36-13.28-.29-26.5,2.25-39.59,2.7-13.84,11.86-26,20.69-36.57A205,205,0,0,1,74.87,226c5.36-4.29,10.38-9,15.39-13.61l1.23-1c7.14-5.62,14.73-13.33,24-14.58,17.29-2.35,35.57-1,53-.72,18.06.33,36.21,1,54.18,2.71,9,.84,19.33,1.26,27.3,5.83,8.22,4.71,7.24,20.2,8,28.28,3.64,37.62,9.12,74.93,10.09,112.77.48,18.61-.18,37.24-1.3,55.83-.59,9.61-.59,19.27-.51,28.89.1,11.87,1.21,22.9-5.52,33.36a1,1,0,0,0-.17.41c-25.4-1.18-50.91-.43-76.31-.12-30.45.37-60.92-.17-91.36.78-10.46.33-20.95.68-31.41,1.1a1.17,1.17,0,0,0-1-.82C51.08,462.8,40.12,462.4,33.23,454.65Z"/><path class="cls-36" d="M22.47,337.72c.27.54.51,1.1.79,1.64,5,9.37,14,22.83,25.48,24.49,16.52,2.38,22-20.69,23.49-33,1.63-13.83.73-27.61.91-41.48.29-23.3,2.26-46.75,8.57-69.17-2.23,2-4.5,3.93-6.84,5.81A205,205,0,0,0,45.5,254.29c-8.84,10.58-18,22.73-20.69,36.57-2.54,13.09-1.89,26.31-2.25,39.59C22.5,332.88,22.49,335.29,22.47,337.72Z"/><path class="cls-36" d="M133.58,269.45c2.07,14.16,6.89,29.09,16.8,39.81,11.14,12,30.29,21.27,47.07,19.08,19.49-2.55,31.53-20,39-36.8,7.37-16.55,10.19-34.32,6.91-51.92-.52-1.89-1.07-3.77-1.7-5.62-4.28-12.49-12-26.26-22.78-35.51-16.74-1.45-33.62-2.07-50.41-2.37-5.71-.1-11.54-.31-17.39-.46C135.18,215.84,129.9,244.52,133.58,269.45Z"/><path class="cls-37" d="M266.26,430.44c-.08-9.62-.08-19.28.51-28.89,1.12-18.59,1.78-37.22,1.3-55.83-1-37.85-6.45-75.15-10.09-112.77-.78-8.08.2-23.58-8-28.28-7.22-4.15-16.43-4.87-24.76-5.6,8.05,3.54,15.23,8.55,20.25,16.36,16.23,25.22,14.13,60.34,13.43,89-1,38.42-3.48,89-46.36,104.27-31.51,11.21-75.4,5.28-90.36-28.36-8.36-18.8-7.65-39-9.29-59.09-2-24.47-4.93-49.09-2.16-73.62,2-17.74,6.78-38.65,23.2-48.7a40.23,40.23,0,0,1,7.18-3.46,182.21,182.21,0,0,0-25.59,1.35,22.67,22.67,0,0,0-6,1.75c-4.73,6.26-7.27,14.85-8.66,22.82-3.12,17.87-3.7,36.46-5,54.53a465,465,0,0,0-.61,67.78c1.28,18.13,3,38.48-4.35,55.65C85.18,412.44,72.41,423,57.28,419.72c-15.77-3.45-25.53-17.61-30.82-32-.89-2.41-1.72-4.84-2.5-7.26.62,10.38,1.25,20.77,1.59,31.18.25,7.32-.26,14.88,1,22.12,1,6.06,2.4,16.05,6.71,20.89,6.89,7.75,17.85,8.15,27.29,10.49a1.17,1.17,0,0,1,1,.82c10.46-.41,20.95-.76,31.41-1.1,30.44-1,60.91-.41,91.36-.78,25.4-.31,50.91-1.06,76.31.12a1,1,0,0,1,.17-.41C267.47,453.34,266.36,442.3,266.26,430.44Z"/><path class="cls-37" d="M253.7,453.17c-12.72,6.14-27.54,1.84-40.88,1-15.78-.93-31.61-1.07-47.42-1.07-16.83,0-33.94-1.31-50.71-.61-13.71.58-27.43,3.23-41.16,1.76-18.6-2-33.58-9.26-47-20.22,1,6.09,2.42,15.82,6.66,20.56,6.89,7.75,17.85,8.15,27.29,10.49a1.17,1.17,0,0,1,1,.82c10.46-.41,20.95-.76,31.41-1.1,30.44-1,60.91-.41,91.36-.78,25.4-.31,50.91-1.06,76.31.12a1,1,0,0,1,.17-.41c3.85-6,5.13-12.18,5.5-18.61A67.09,67.09,0,0,1,253.7,453.17Z"/><path class="cls-38" d="M64.56,565.48c-3-1.46-5.94-2.89-8.9-4.36,0-1.68-.12-3.38-.28-5.06-.23-2.92-.06-5.94-.23-8.88-.37-6.08-1-12.14-1.4-18.22-.77-12.22-1.12-24.41-2.36-36.61q4.7-.06,9.39-.16C61,504,62,516.14,62.86,527.94,63.74,540.27,66.29,553.14,64.56,565.48Z"/><path class="cls-39" d="M61.15,502.61c-.18-3.47-.32-7-.37-10.41q-4.7.1-9.39.16c.17,1.63.31,3.25.45,4.87A15.13,15.13,0,0,1,61.15,502.61Z"/><path class="cls-39" d="M57.41,503.36a1.7,1.7,0,0,1-.81,0c-3.18-.63-3.34,5.09-1.72,6.71,1.19,1.17,3.31,1.28,4.12-.39a10.57,10.57,0,0,0,.87-3.51A16.52,16.52,0,0,0,57.41,503.36Z"/><path class="cls-40" d="M244.06,512.63l-5.29.1c-15.9-1.2-32.23.49-48.17.41-18.2-.09-36.41.8-54.55,2-16.65,1.08-33.24,1.81-49.83,3.65-6.38.72-14.93.17-20.47,3a4.92,4.92,0,0,0,1-.63c.21-.15,0-.43-.2-.34l-.69.08a.42.42,0,0,0-.44.17l-.26,0a.51.51,0,0,0-.38.35c-.76-9.76-1.44-19.53-1.79-29.3,37-.76,74-2.63,111.09-3.21q31.57-.49,63.14.12c7.91.14,15.82.46,23.74.64q.41,11.27,1,22.49C256.14,511.55,249.88,512.56,244.06,512.63Z"/><path class="cls-41" d="M95.72,501.52c24.83-6,50.44-6,75.83-5.17,20.11.64,41-.83,61,1.59,11.17,1.36,21.73,4.72,29.32,11.79q-.51-10-.9-20c-7.92-.17-15.83-.49-23.74-.64q-31.57-.56-63.14-.12c-37.05.58-74,2.45-111.09,3.21.31,8.59.88,17.18,1.53,25.77C70.55,508.32,85.54,504,95.72,501.52Z"/><path class="cls-41" d="M261,489.71c-7.92-.17-15.83-.49-23.74-.64q-31.57-.56-63.14-.12c-37.05.58-74,2.45-111.09,3.21.1,2.52.22,5,.37,7.57,8.63.22,17.58-1.45,26.23-2.47a205.38,205.38,0,0,1,25.34-2.77c19.14-.72,38.31-.41,57.45-.64s38.07.51,57.13.84c9.08.15,18.08.43,27.13,1.16,1.46.11,3,.36,4.6.64C261.15,494.24,261.05,492,261,489.71Z"/><path class="cls-38" d="M273.49,502.92c.34,7.38.56,14.75.82,22.13.49,14,.7,28.25,3,42.06a1.38,1.38,0,0,1-.52.39,9.54,9.54,0,0,1-4.39.24,33.62,33.62,0,0,0-4.29.41.92.92,0,0,1-.85-.44,1,1,0,0,0,.12-.33c.61-5.17-.52-10.1-.69-15.28-.24-7-.74-13.92-1.33-20.86-.34-3.93-.58-7.88-.82-11.82,0-.2-.11-.39-.16-.61a.85.85,0,0,1,.08-.6c0-.74-.08-1.49-.14-2.23-.6-2.73-1.25-5.74-.5-8-.43-6.12-1-12.22-2-18.29,3.89.08,7.76.12,11.63.08C274.05,493.79,273.31,499.09,273.49,502.92Z"/><path class="cls-39" d="M269.49,549.87c-.84-7.88-1.15-15.87-1.54-23.79-.25-5.09-1.3-13.38,3.43-16.81a3.48,3.48,0,0,1,2.32-.75c-.06-1.87-.13-3.73-.21-5.59-.17-3.84.56-9.14,0-13.12-3.88,0-7.75,0-11.63-.08,1,6.06,1.54,12.17,2,18.29-.75,2.23-.1,5.24.5,8,.06.75.1,1.49.14,2.23a.85.85,0,0,0-.08.6c0,.22.11.41.16.61.24,3.94.48,7.88.82,11.82.6,6.94,1.1,13.89,1.33,20.86.17,5.18,1.3,10.11.69,15.28a1,1,0,0,1-.12.33.92.92,0,0,0,.85.44c1.29-.06,2.46-.4,3.74-.41C269.65,562.35,270.09,555.53,269.49,549.87Z"/><path class="cls-39" d="M265.72,507.07a5.35,5.35,0,0,0,5.25-3.19c1-2.13.37-5.09-1.91-5.28a4.46,4.46,0,0,0-3.5,2.2C264.74,502.38,262.73,506.69,265.72,507.07Z"/><path class="cls-39" d="M263.09,497.57c2.72-3.05,6.61-4.55,10.59-5.16a22.32,22.32,0,0,0-.22-2.61c-3.88,0-7.75,0-11.63-.08.43,2.69.78,5.4,1.07,8.11C263,497.74,263,497.65,263.09,497.57Z"/><path class="cls-38" d="M256.44,484.47c-29.31-.89-58.64-1-87.95-.41-28.77.52-57.47,2.51-86.23,3.14-14.14.31-28.29.45-42.42.88-5.15.14-10.06.89-15.18,1.26-12.1.85-9.28-15.54-.18-18.64,3.43-.45,6.94-.29,10.42-.67,7.59-.81,15.35-.57,23-.47,15.66.2,31.3-.14,47-.13,32.62.06,65.22.39,97.85.11,3.16,0,6.33,0,9.49,0,16.08-1,32.15-1.9,48.26-2.19,12.08-.2,24.16.33,36.24,0,3-.09,7.09-.56,9.12.86a12.9,12.9,0,0,1,1.58.68q6,6.82-2.21,12.25a18.83,18.83,0,0,1-6.53,1.86C284.8,485.43,270.43,484.9,256.44,484.47Z"/><path class="cls-39" d="M27.76,477c15.94-.93,31.83-.7,47.77-1.95,16.34-1.29,32.75.39,49.14.26,17.82-.14,35.64-.34,53.47-.87,18.79-.53,37.58-1.8,56.38-1.91,16.69-.09,33.63.71,50.27-.87,7.15-.67,18.06-2.45,25,1.62a9.65,9.65,0,0,0-2.44-4.38,12.9,12.9,0,0,0-1.58-.68c-2-1.42-6.12-.95-9.12-.86-12.08.31-24.16-.22-36.24,0-16.1.29-32.18,1.22-48.26,2.19-3.16,0-6.33,0-9.49,0-32.63.28-65.23,0-97.85-.11-15.67,0-31.31.33-47,.13-7.63-.1-15.39-.34-23,.47-3.48.37-7,.21-10.42.67-5.16,1.76-8.29,7.78-7.84,12.52A14.56,14.56,0,0,1,27.76,477Z"/><path class="cls-42" d="M64.89,487.52l12.67-.24C73.34,487.29,69.11,487.36,64.89,487.52Z"/><path class="cls-31" d="M111.83,383.85q-1-27.76-1.92-55.52c-1.32-38.24-1.34-76.53-3-114.75,0-.1-.14-.06-.14,0,.82,37.26.14,74.55,1.49,111.81,1.37,38.2,2.81,76.39,3.7,114.6,0,.71,1,.33,1.07-.25C113.89,421.23,112.48,402.4,111.83,383.85Z"/><path class="cls-31" d="M59,506.06a1.82,1.82,0,0,0-1.7-1.55c-1.76-.17-1.93,2.47-1.73,3.63.13.78.59,1.61,1.54,1.36a1.81,1.81,0,0,0,1.08-.9A3.09,3.09,0,0,0,59,506.06Z"/><path class="cls-31" d="M270.18,503a2.55,2.55,0,0,0-.67-2.92c-.94-.8-2.41.06-3,.79a3.35,3.35,0,0,0-.91,2.63c.32,1.72,2.36,2.06,3.62,1a3,3,0,0,0,.89-1.24h0s0,0,0,0A2.2,2.2,0,0,0,270.18,503Z"/><path class="cls-31" d="M176.28,184.71c-2.48-11.81-10-23.46-15.51-34.12-5.92-11.5-11.29-23.28-16.94-34.91S132.4,92.58,126.65,81c-4.16-8.37-10.08-16.7-13.8-25.45a2.62,2.62,0,0,0,1-1.08,3,3,0,0,0,.74-1.07,4.94,4.94,0,0,0-.11-3.78,13,13,0,0,0-1.68-3.1,6,6,0,0,0-1.47-2,3,3,0,0,0-4.07.68,5.27,5.27,0,0,0-.75,3.77c.35,2.16,1.07,5.18,3.27,6.2a2.32,2.32,0,0,0,2.48.62c3.11,9,8.38,17.76,12.08,26.31,5.1,11.83,10.86,23.39,16.45,35,11,22.86,21.62,46.09,34.06,68.25C175.33,186.19,176.44,185.51,176.28,184.71Z"/><path class="cls-31" d="M176.4,185.17c1.62-12,8.3-24.13,13-35.15,5.09-11.9,9.6-24,14.41-36s9.75-23.86,14.65-35.78c3.55-8.65,8.87-17.37,12-26.38a2.47,2.47,0,0,1-1.09-1,2.86,2.86,0,0,1-.81-1,4.92,4.92,0,0,1-.16-3.78,12.25,12.25,0,0,1,1.45-3.2,6,6,0,0,1,1.31-2.09,3,3,0,0,1,4.09.38,5.15,5.15,0,0,1,1,3.7c-.19,2.19-.69,5.24-2.81,6.42a2.35,2.35,0,0,1-2.45.8c-2.44,9.18-7.09,18.3-10.16,27.09-4.24,12.16-9.16,24.11-13.91,36.07-9.38,23.6-18.26,47.53-29.09,70.52C177.44,186.58,176.29,186,176.4,185.17Z"/><path class="cls-43" d="M296,475.94c-20.5-1.1-41.6.39-62.06,1.51-23,1.26-46.08,1.71-69.13,2.17-46.58.93-93.62.21-140,4-.11,0-.13.19,0,.19,45.66,4.05,91.42,2.5,137.17,1.75,23-.4,46.09-.88,69.1-2,21.35-1,44.52.72,65.21-5.13A1.32,1.32,0,0,0,296,475.94Z"/><path class="cls-13" d="M98.72,208.85c-2,.27-3.91,1.7-5.52,2.8s-4.38,2.35-5,4.24a1,1,0,0,0,1,1.43c1.88-.16,3.43-2.14,4.85-3.29,1.66-1.34,3.85-2.56,5.15-4.26A.57.57,0,0,0,98.72,208.85Z"/><path class="cls-13" d="M79.55,223.73c-3.67,2.7-7.66,4.87-11.3,7.69-4.39,3.39-8.62,6.94-12.76,10.63-7.82,7-15.13,14.63-20.94,23.4-12.87,19.39-9.18,43.54-6.1,65.36a.42.42,0,0,0,.83-.07c-.21-12.5-2-24.89-1.14-37.41a54.35,54.35,0,0,1,9.93-28.17c5.83-8.48,13.29-15.86,20.87-22.73,3.47-3.14,7-6.17,10.6-9.19s6.65-6.37,10.16-9.31C79.81,223.83,79.68,223.63,79.55,223.73Z"/><path class="cls-13" d="M199.26,199c-9-1-18.14-.72-27.2-.61-9.34.12-18.79-.8-28.08-.45a.12.12,0,0,0,0,.24c7.68,3.14,17,2.88,25.15,3,9.91.17,19.76-.06,29.63.83C200.71,202.25,201.26,199.23,199.26,199Z"/><path class="cls-13" d="M220.5,200.22c-1.3-1.14-3.83-.82-5.48-.92a43.42,43.42,0,0,0-6.67-.09.79.79,0,0,0-.07,1.57c2.3.52,4.66.76,7,1.06,1.67.21,3.59.9,5.13.08A1.07,1.07,0,0,0,220.5,200.22Z"/><path class="cls-13" d="M178.1,188.16c-1.72.34-3.64.07-5.4.25a.58.58,0,0,0-.06,1.14c1.74.37,3.66.37,5.36.88S179.8,187.82,178.1,188.16Z"/><path class="cls-13" d="M184.39,188.66a4.35,4.35,0,0,1-2.58-.33c-.89-.41-1.8.94-.95,1.5a7.4,7.4,0,0,0,3.72,1.14C186.08,191,185.88,188.41,184.39,188.66Z"/><path class="cls-13" d="M271.51,229.35c0-.87-.68-1.46-1.16-2.11-.64-.87-1.25-1.78-1.83-2.69s-1.22-1.92-1.8-2.9c-.22-.38-.47-.76-.69-1.14s-.85-.71-1-1.11c-.11-.25-.51-.11-.41.15.24.68,0,.59,0,1A6.51,6.51,0,0,0,265,222a29.26,29.26,0,0,0,1.52,3.34c.77,1.47,1.94,4.76,3.75,5.13A1.08,1.08,0,0,0,271.51,229.35Z"/><path class="cls-13" d="M287.32,350.15a277.72,277.72,0,0,0,.76-38.91c-1.18-26.2-5.37-52.32-14.5-76.93a.29.29,0,0,0-.55.21,353.83,353.83,0,0,1,12.39,77,349.9,349.9,0,0,1-.25,38.31c-.87,14.5-3.88,28.7-5.15,43.15,0,.52.72.67.8.14C283,378.76,285.93,364.59,287.32,350.15Z"/><path class="cls-13" d="M236.3,481.05a1357,1357,0,0,1-160.9,3.34c-.25,0-.27.41,0,.42,26.77,2.06,53.4,3.35,80.28,3.09s54-2.11,80.87-4.22A1.32,1.32,0,0,0,236.3,481.05Z"/><path class="cls-13" d="M260.45,479.94c-4.55-.72-9.68-.15-14.21.5a.61.61,0,0,0,.11,1.21c4.63,0,9.42.91,14,.52A1.13,1.13,0,0,0,260.45,479.94Z"/></g></g></svg>