<svg id="Слой_1" data-name="Слой 1" xmlns="http://www.w3.org/2000/svg" viewBox="0 0 802.07 595.28"><defs><style>.cls-1{fill:#ffdf79;}.cls-2{fill:#fff28d;}.cls-3{fill:#93ced1;}</style></defs><title>Монтажная область 1</title><circle class="cls-1" cx="260.79" cy="251.34" r="220.23"/><circle class="cls-2" cx="260.79" cy="251.34" r="156.22"/><path class="cls-3" d="M686.6,352.66a69.54,69.54,0,0,0-20.78,3.16,102.7,102.7,0,0,0-88.74-51c-1.85,0-3.66.18-5.48.28a167.08,167.08,0,0,0-290.85-5.48c-1.51-.06-3-.11-4.54-.11a116.78,116.78,0,0,0-94.15,47.7A70.43,70.43,0,1,0,180.61,484a116.92,116.92,0,0,0,148,37.25A166.92,166.92,0,0,0,541.37,504a102.29,102.29,0,0,0,107.84-23.08A69.56,69.56,0,1,0,686.6,352.66Z"/></svg>