<svg id="Слой_1" data-name="Слой 1" xmlns="http://www.w3.org/2000/svg" xmlns:xlink="http://www.w3.org/1999/xlink" viewBox="0 0 652 595.28"><defs><style>.cls-1{fill:#733e3e;}.cls-2{fill:#fff;}.cls-3{fill:#addef9;}.cls-4{fill:#c3e6f8;}.cls-5{fill:#4d2c2b;}.cls-6{fill:#bb6f6a;}.cls-7{fill:#eaeaea;}.cls-8{fill:#e0bc25;}.cls-9{fill:#1e1e1c;}.cls-10{fill:#fef8cd;}.cls-11{fill:#f8d93b;}.cls-12{fill:#522626;}.cls-13{clip-path:url(#clip-path);}.cls-14{fill:#612b2b;}.cls-15{fill:#3e201f;}.cls-16{clip-path:url(#clip-path-2);}.cls-17{fill:#eeeded;}.cls-18{fill:#ffec32;}.cls-19{fill:#bd9b10;}.cls-20{fill:#341d1b;}</style><clipPath id="clip-path"><path class="cls-1" d="M420,364.45s-18.79-2.35-32.11-8.61-51.68-21.14-102.58,0-59.51,41.5-69.69,51.68-52.47,51.29-45.81,67.74c0,0-2,6.26,2,7.83s8.22-3.92,8.22-3.92-2,7.83,4.7,6.26c0,0,.39,2.74,15.27-2.35s25.45-10.57,31.71-16.05,23.1-13.31,30.15-12.53,27,18.79,62.65,20.36,86.53-25.06,101-28.19S420,364.45,420,364.45Z"/></clipPath><clipPath id="clip-path-2"><path class="cls-2" d="M522.17,394.21s-8.51-16.49-16.44-20c-11.62-5.09-31.71-2-47.38,2s-22.71-5.48-25.84-11.75-15.27-21.93-23.88-24.28,4.7,21.53,5.09,22.71-40.33,1.57-42.29,10.18,34.85,23.49,34.85,23.49-27.8,22.32-26.23,30.15,43.46,12.53,43.46,12.53-13.7,13.31-11.75,16.05,34.06.39,46.2-5.87,35.63-21.53,46.59-23.49S528,404.16,522.17,394.21Z"/></clipPath></defs><title>Монтажная область 1</title><path class="cls-3" d="M613.4,422.84c44.15-91.24-11-262.19-243.45-306.62-268.44-51.3-352.83,115.89-312.32,285S500.63,655.84,613.4,422.84Z"/><path class="cls-4" d="M563.34,422.84C601.73,343.52,604.08,192.1,402,153.47c-233.37-44.6-349.43,105.92-314.22,253S465.31,625.41,563.34,422.84Z"/><path class="cls-2" d="M-18.35,273.26c-1.65-16,22.73-18,30.45-11.54,0,0,5-28.82,43.16-25.29s33.9,36.84,33.9,36.84,48.16-13.83,44.29,15.22S-12.67,328.5-18.35,273.26Z"/><path class="cls-2" d="M394.85,546.14c-8.2-25.72,21-31.14,36.72-28-7.74-57.95,79.54-56.19,82.1-16.35,26.05-25.94,71.47,11.15,47.19,38.81S410.51,595.29,394.85,546.14Z"/><path class="cls-5" d="M546.05,276.75s4.7-32.11,0-56.38-14.88-75.17-11.35-97.88c0,0-1.17-6.26-5.87-6.26,0,0-11.76,42.38-12.56,85.35-4.13-24.4-8.58-58.73-17.2-68.91l-5.48-3.13s-3.92,36.9,0,60.74c0,0-7-28.63-11-33.33s-8.87,31.32-8,46.2a312.76,312.76,0,0,1,0,31.32s-1.4-22.71-7.68-25.06c-3.93-1.57.36,31.32.36,31.32s-5.07-5.48-8.2-4.7,1.57,29,0,31.32S447.39,283,443.47,284.58s-18,.75-21.93,3.9,0,8.63,0,8.63-39.94,3.92-45.42,12.53S380,328.43,380,328.43s-32.89,11-39.15,20.36,66.34,50.54,89.84,32.11S477.93,305.72,546.05,276.75Z"/><path class="cls-1" d="M442.69,390.95s11-43.25,39.94-60.32S545.27,290.06,550,283s-.38-60.56-4.92-67.82c-4.88,20.93-17.79,51.37-17.79,51.37s-27.41-3.27-29.76,1.59c-2.71,5.59,5.48,20.32,5.48,20.32s-25.5-1.84-28.32,0c-7.68,5,0,10.2,0,10.2s-32-10.2-40.59-5.2c-5.42,3.14,18,28.69,18,28.69s-32.89-11.08-43.07-4,7.83,18.07,7.83,18.07-48.55-1.57-29,19.58S442.69,390.95,442.69,390.95Z"/><path class="cls-6" d="M447.11,376.67s.88-2.29,2.8-6.46c1-2.08,2.19-4.64,3.75-7.58s3.43-6.29,5.74-9.91a85.59,85.59,0,0,1,8.54-11.44c.86-1,1.84-1.9,2.78-2.89s2.07-1.83,3.13-2.78c2.21-1.77,4.58-3.43,7-5.14,9.86-6.76,21.26-13.88,33.52-21.9,6.13-4,12.49-8.22,18.87-12.8,3.18-2.3,6.38-4.69,9.4-7.29a35.76,35.76,0,0,0,4.18-4.1,8.06,8.06,0,0,0,1.32-2,23.56,23.56,0,0,0,.65-2.77,79.65,79.65,0,0,0,.86-12.4c0-4.26-.13-8.58-.43-13s-.69-8.78-1.25-13.21-1.26-8.88-2.1-13.33l-.7-3.32c-.23-1.11-.54-2.2-.81-3.3s-.58-2.19-.91-3.26l-.49-1.62-.09-.31a2.62,2.62,0,0,1-.09-.4l-.08-.43-.16-.86-2.5-13.88c-1.66-9.32-3.32-18.76-4.87-28.32q-.58-3.59-1.11-7.22c-.35-2.47-.57-4.95-.75-7.39-.36-4.9-.61-9.79-.8-14.7s-.33-9.82-.31-14.79c0-1.25,0-2.49.08-3.78,0-.6.1-1.39.13-2a6.25,6.25,0,0,0,0-1.33,3.12,3.12,0,0,0-.27-1,2.19,2.19,0,0,0-.54-.64,3.14,3.14,0,0,0-1-.46,2.79,2.79,0,0,0-.47-.12s-.06,0-.07.07l-.15.52-.16.6-.31,1.24c-.4,1.66-.77,3.36-1.13,5.06-.71,3.4-1.36,6.83-2,10.26q-1.89,10.3-3.51,20.61c-1.09,6.86-2.1,13.71-3,20.53s-1.71,13.62-2.07,20.31L517,213.35,514.69,198c-1.76-11.7-3.67-23.2-5.93-34.4-1.15-5.59-2.37-11.11-3.84-16.49-.74-2.68-1.54-5.34-2.49-7.91-.49-1.28-1-2.55-1.59-3.76a14.83,14.83,0,0,0-2.11-3.36l.7.79a18.94,18.94,0,0,1,1.74,2.72A71.84,71.84,0,0,1,506,147.66c3.5,11,7.44,27.74,11.41,49.88l-2.28.14c.13-5.61.63-11.53,1.25-17.78s1.43-12.85,2.35-19.76,2-14.16,3.23-21.71c.62-3.78,1.28-7.63,2-11.56.37-2,.77-4,1.21-6,.22-1,.46-2,.74-3.07l.11-.4c.07-.24.14-.47.22-.7l.24-.68.3-.63c.25-.37.48-.75.92-.86l.08,0c0-.05.09.1,0-.12h0l.15,0,.3-.1a1.74,1.74,0,0,1,.64-.13,11.33,11.33,0,0,1,3,.41,7.29,7.29,0,0,1,2.29,1.09,6.53,6.53,0,0,1,1.83,2.06,7.35,7.35,0,0,1,.79,2.48,10.25,10.25,0,0,1,0,2.34c0,.69-.1,1.11-.1,1.76,0,1.19,0,2.43,0,3.67,0,5,.21,10.14.44,15.39s.53,10.62,1,16c.22,2.69.62,5.34,1,8.12l1.35,8.36c1.88,11.27,3.92,23,6,35.08l.4,2.28.2,1.14.05.29v.06h0l.15.5c.43,1.53.95,3.07,1.29,4.62s.78,3.11,1.07,4.68.65,3.15.9,4.74c1.1,6.35,1.87,12.84,2.37,19.44a194,194,0,0,1,.55,20.2,78.43,78.43,0,0,1-.89,10.44,22.38,22.38,0,0,1-.56,2.69l-.39,1.37a3.61,3.61,0,0,1-.3.74l-.38.76a22.39,22.39,0,0,1-3.74,4.28,94.85,94.85,0,0,1-8.38,6.69c-2.89,2.09-5.84,4.11-8.84,6.09-6,4-12.16,7.82-18.43,11.68l-19.05,11.66c-3.21,2-6.43,4-9.63,6q-2.4,1.54-4.78,3.15a57.13,57.13,0,0,0-8.85,7.29c-1.29,1.43-2.66,2.82-3.85,4.35a100,100,0,0,0-6.93,9.5A158.08,158.08,0,0,0,447.11,376.67Z"/><path class="cls-7" d="M275.11,378.6s-27.41,19.53-40.72,22.66-47.77,6.26-52.47,4.81,9.7-9.15,9.7-9.15C153.47,402.74,115,385.59,115,385.59,136.82,373.72,275.11,378.6,275.11,378.6Z"/><path class="cls-2" d="M120.35,383.77l-1.69.73-1.49.66-.85.38-.11,0a.69.69,0,0,0,.12.05l.28.11.57.21,2.76,1c1.28.45,2.68.9,4.17,1.38s3.11.93,4.8,1.44,3.49,1,5.38,1.43a179.46,179.46,0,0,0,26.24,4.55,140.19,140.19,0,0,0,30.88-.32l7.71-1-6.76,3.83a52.44,52.44,0,0,0-5.56,3.6,20.6,20.6,0,0,0-2.41,2.08,6.63,6.63,0,0,0-.87,1.09l-.15.26a.19.19,0,0,0,0,.08s0,.07.07.09h0l.1,0,.48.1a18.77,18.77,0,0,0,2.15.22c1.48.08,3,.07,4.52,0,3-.06,6.06-.23,9.05-.43,6-.4,11.82-.88,17.38-1.36,0,0-3.08.71-9.06,1.75-3,.51-6.7,1.11-11.14,1.66-2.22.27-4.61.52-7.21.68-1.3.08-2.64.13-4.06.1a18.24,18.24,0,0,1-2.22-.17c-.21,0-.38-.06-.62-.12a4.91,4.91,0,0,1-.89-.3,2.14,2.14,0,0,1-1.22-1.29,3.47,3.47,0,0,1,0-1.34,4.73,4.73,0,0,1,.43-1.23,8.59,8.59,0,0,1,1.1-1.56,20.48,20.48,0,0,1,2.61-2.46,50.2,50.2,0,0,1,6.09-4.16l.92,2.76a125.19,125.19,0,0,1-37.62-.69,148.09,148.09,0,0,1-21.75-5.24c-3.72-1.2-7.49-2.55-11.26-4.09l-2.85-1.22c-1-.46-2-.88-2.84-1.31l-.32-.16-.16-.08s0,0,0,0l.1,0,.8-.28,1.5-.51Z"/><path class="cls-2" d="M225,365.24s-68.13-20.36-103.37-54.82c0,0-2.49,19.55,22.71,38.37,0,0-52.47-10.18-60.3-11S136.51,371,136.51,371s-62.65-3.82-65-.07,39.32,14.26,60.47,14.71,93.34,8.22,103.42,0S225,365.24,225,365.24Z"/><path class="cls-8" d="M202.75,487s-8.84,12.25-9.52,17.69,4.08,13.95,6.46,15.65,13.61,4.42,14.29,8.16c0,0,9.52,7.14,7.14,15,0,0-7.48-7.82-11.57-8.16,0,0-3.74,1-5.1-1.7s.32,6.12,2.88,6.8,2.56,6.12,2.56,6.12,1.7,9.18-4.42,16.67c0,0-.34-13.61-4.08-15.65,0,0-11.54-5.62-14.76-10.77S176,508.38,175.94,504s14.22-23.81,16.6-24.83S202.07,482.19,202.75,487Z"/><path class="cls-9" d="M201.39,547.5s-.94-3.64,1-6.08,4.57-3,6.72.76,1.64,16.09-3.63,21C205.47,563.15,205.28,552.55,201.39,547.5Z"/><path class="cls-9" d="M210.29,535.39s-1.74-5.66,1.34-7.08c1.84-.84,11.89,5.28,9.48,15.11C221.12,543.42,215.3,537.82,210.29,535.39Z"/><path class="cls-10" d="M196.51,497.26a10.81,10.81,0,0,0-.62.92,15,15,0,0,0-1.33,2.74,9.24,9.24,0,0,0-.53,4.3,7.14,7.14,0,0,0,.25,1.19l.42,1.41.86,3a22.63,22.63,0,0,0,2.36,5.86,6,6,0,0,0,2,2,11,11,0,0,0,1.45.66L203,520a40.15,40.15,0,0,1,6.8,3,11.54,11.54,0,0,1,2.93,2.4,5.63,5.63,0,0,1,1.42,3.35,6,6,0,0,0-1.89-2.35c-1.53-1.18-4.18-2.06-7.74-3-.89-.24-1.84-.49-2.86-.8-.51-.15-1-.32-1.57-.5a11.52,11.52,0,0,1-1.74-.75,8.49,8.49,0,0,1-3-3,15.26,15.26,0,0,1-1.66-3.88,36.89,36.89,0,0,1-.9-4.15l-.34-2.14-.17-1.08c0-.41-.11-.83-.13-1.25A11,11,0,0,1,196.51,497.26Z"/><path class="cls-11" d="M186.27,480.15s-9.48,19-9.82,24.15,4.06,18.71,9.82,25.51,6.09,11.57,3,16.33c0,0,8.46,12.93-7.11,22.45,0,0,1.69-12.25-2-19,0,0-7-5.1-8.06-12.59,0,0,5,18.37-8.87,20.07,0,0-6.43,19-24.72,15.31,0,0,13.2-11.57,13.54-20.07,0,0-1.35-9.86.68-15s3-27.55,6.77-31.3c0,0-7.79,4.42-10.16,8.5s-3.39,8.5-8.13,8.16c0,0-12.53,8.5-21-2,0,0,12.19-2.38,14.56-6.46,0,0,2.71-6.8,7.11-10.89s14.22-7.48,18.28-11.23,9.14-7.52,9.14-7.52-6.77,3-8.13,0,14.22-10.86,14.22-10.86S187.28,473,186.27,480.15Z"/><path class="cls-10" d="M169,477.58s-.9.54-2.45,1.63a28.86,28.86,0,0,0-2.68,2.12,10.64,10.64,0,0,0-1.38,1.49,3.09,3.09,0,0,0-.45.83.63.63,0,0,0,0,.55.61.61,0,0,0,.25.22.41.41,0,0,0,.2.1,1.23,1.23,0,0,0,.26.08,3.33,3.33,0,0,0,.66.07,2.4,2.4,0,0,0,.37,0H164l.38,0c.53-.09,1-.15,1.65-.3l.94-.25a4.53,4.53,0,0,0,.53-.17l.59-.21c1.53-.53,3.69-1.36,5.91-2.19l-.32.37-.21.26a2.53,2.53,0,0,0-.15.21l-.1.15s0,0,0,.07l-.19.19-.37.37-.76.75c-1,1-2.07,2.08-3.3,3.23s-2.86,2.61-3.3,3c-.73.64-1.49,1.29-2.27,1.93a35.34,35.34,0,0,1-5.19,3.61c-1.94,1-3.81,1.82-5.67,2.74a45.32,45.32,0,0,0-10.25,6.52,26.22,26.22,0,0,0-6.79,9.32l.16-.8.22-1,.15-.65.25-.72a21.15,21.15,0,0,1,5-8.18c2.88-3.16,7.38-6.08,12.75-8.63l2-1c.64-.33,1.28-.67,1.9-1.07,1.27-.8,2.56-1.73,3.88-2.74l2-1.56.5-.41.22-.17,0,0,.16-.09c.13-.07.31-.19.54-.35l.39-.28h-.14c-.14,0-.41,0-.88,0l-.18,0h-.45a6,6,0,0,1-1.07-.2,3.55,3.55,0,0,1-1.09-.5,4.91,4.91,0,0,1-.5-.47l-.35-.59a2.15,2.15,0,0,1,.13-1.75,4.75,4.75,0,0,1,.9-1.2,13,13,0,0,1,2.24-1.72A33.64,33.64,0,0,1,169,477.58Z"/><path class="cls-8" d="M172,531.31s-.35-.74-.87-2a46.52,46.52,0,0,1-1.81-5.12,23,23,0,0,1-1-7.15,13.6,13.6,0,0,1,2.08-7,15.14,15.14,0,0,1,.24,1.6c.05,1,.29,2.44.44,4.2s.44,3.88.72,6.44A53.47,53.47,0,0,1,172,531.31Z"/><path class="cls-9" d="M134.8,514.17s6.55-.89,8.08,1.55.41,4.78-1.65,7-14.85,7-21-2C120.25,520.63,130.56,519.3,134.8,514.17Z"/><path class="cls-9" d="M152,553.11c.74-2.89,6.12-4.74,9.57-3.2s2.33,7.46-1.52,13.24-9.61,11.82-21.52,9.18C138.53,572.34,149.46,563,152,553.11Z"/><path class="cls-9" d="M180.17,549.54c-1.15-2.33,5.29-7.81,9.14-3.4s4.44,16.71-7.11,22.45C182.2,568.59,183.25,555.8,180.17,549.54Z"/><path class="cls-12" d="M311.91,463.12s-40.72,12.14-50.51,14.1-41.89,27-54.82,25.84,0-5.48,0-5.48-11,3.52-11.75-3.52,4.7-15.27,4.7-15.27,51.68-36.41,63.43-34.46S311.91,463.12,311.91,463.12Z"/><path class="cls-1" d="M420,364.45s-18.79-2.35-32.11-8.61-51.68-21.14-102.58,0-59.51,41.5-69.69,51.68-52.47,51.29-45.81,67.74c0,0-2,6.26,2,7.83s8.22-3.92,8.22-3.92-2,7.83,4.7,6.26c0,0,.39,2.74,15.27-2.35s25.45-10.57,31.71-16.05,23.1-13.31,30.15-12.53,27,18.79,62.65,20.36,86.53-25.06,101-28.19S420,364.45,420,364.45Z"/><g class="cls-13"><path class="cls-14" d="M257.33,390.95s-14.85,16.38-28.22,25.59c0,0,2.21,15.38,17.3,15.89s39.45-6.68,53.49-3.6,70.6,15.94,102,15.42c0,0-25.37-9.39-21.83-17.54s58.47-11.25,50.69,17.54c0,0-80.09,48.88-130.83,34.72s-71.71-5.05-85.7,7.2S147.7,525,150.36,479,218.7,373.16,257.33,390.95Z"/></g><path class="cls-15" d="M246.42,455l1-.57c.62-.35,1.51-.89,2.6-1.62,2.19-1.42,5.12-3.57,8.59-6a51.1,51.1,0,0,1,12.29-6.65,20.45,20.45,0,0,1,14.11-.07s-1.08.07-3,.15a32.73,32.73,0,0,0-7.92,1.81,80.72,80.72,0,0,0-11.55,5.66c-2.24,1.23-4.66,2.6-7.32,3.9A45.2,45.2,0,0,1,246.42,455Z"/><path class="cls-6" d="M412.58,451.06s-3.29,1.61-9.26,4.24-14.61,6.3-25.37,10.25c-5.4,1.93-11.3,4-17.73,5.85a150.25,150.25,0,0,1-20.78,4.74c-.92.18-1.87.24-2.83.34l-2.87.27c-1,.11-1.92.13-2.88.17l-2.9.1q-2.91,0-5.89,0c-2-.08-4-.12-6-.3a86.15,86.15,0,0,1-12.18-1.7,61.78,61.78,0,0,1-6.11-1.67c-1-.33-2-.71-3-1.14-.5-.2-1-.44-1.52-.68-.24-.11-.55-.28-.73-.37h0l-5.2,1.2-6.12,1.47c-4.08,1-8.17,2-12.2,3.19-2,.57-4,1.18-5.89,1.87a60.78,60.78,0,0,0-5.59,2.55c-3.76,1.88-7.51,3.84-11.24,5.78-7.47,3.88-14.86,7.73-22.21,11.3q-2.76,1.33-5.53,2.58a36.21,36.21,0,0,1-5.77,2.1,20.12,20.12,0,0,1-6.07.62,13.71,13.71,0,0,1-3-.49,9.1,9.1,0,0,1-2.78-1.25,3.46,3.46,0,0,0,.42.22,8.09,8.09,0,0,0,1.22.45,13.64,13.64,0,0,0,5,.41,22.43,22.43,0,0,0,7.68-2.24c2.86-1.4,6.09-3.28,9.75-5.38,7.32-4.22,16.25-9.59,27-15.62,2.71-1.5,5.45-3,8.61-4.52a92.83,92.83,0,0,1,9.95-3.37c3.42-1,6.95-1.94,10.6-2.87l5.56-1.38,2.84-.68,3.78-.87c.46.27.88.55,1.39.82.23.12.41.22.64.32.43.21.88.41,1.34.6.92.38,1.87.74,2.85,1.06a56.66,56.66,0,0,0,6.12,1.64,96.48,96.48,0,0,0,13.3,1.79,140.29,140.29,0,0,0,14.27.18c2.4-.18,4.84-.26,7.31-.67,1.24-.17,2.48-.31,3.73-.51l3.77-.69a279.08,279.08,0,0,0,31.33-8.15C390.11,459.26,401.21,455.44,412.58,451.06Z"/><path class="cls-6" d="M220.38,402.53s-2.38,2.42-6.26,6.53-9.26,9.93-15.19,16.76a286.91,286.91,0,0,0-18.26,23,94.22,94.22,0,0,0-7.73,12.87,36.09,36.09,0,0,0-2.52,6.73,15.7,15.7,0,0,0-.37,6.8l-.13-.37a8.07,8.07,0,0,1-.35-1.13,14.85,14.85,0,0,1-.32-4.71c.28-4.21,2.27-10.27,6.21-17.18a136.4,136.4,0,0,1,17.21-23.15A240.94,240.94,0,0,1,220.38,402.53Z"/><path class="cls-2" d="M257.88,362.89s-42.46-1.57-66.26-14.1c0,0,12.22,20.06,20.05,22.17,0,0-61.56-5.72-61.32-3.37s46.15,21.94,63.54,21.68,62.59-6,71-10.72S257.88,362.89,257.88,362.89Z"/><path class="cls-2" d="M522.17,394.21s-8.51-16.49-16.44-20c-11.62-5.09-31.71-2-47.38,2s-22.71-5.48-25.84-11.75-15.27-21.93-23.88-24.28,4.7,21.53,5.09,22.71-40.33,1.57-42.29,10.18,34.85,23.49,34.85,23.49-27.8,22.32-26.23,30.15,43.46,12.53,43.46,12.53-13.7,13.31-11.75,16.05,34.06.39,46.2-5.87,35.63-21.53,46.59-23.49S528,404.16,522.17,394.21Z"/><g class="cls-16"><path class="cls-17" d="M406.27,396.56s-14.48,15-9.7,24.68,52.39,8.06,70.76,0c0,0-7.51-12.22,1.08-14.8s51.38-2.76,59.42,5.39-25.27,18-49.91,40.13-60.75,19.54-75.09,8.74-42.1-23.14-37.48-33.93S388.57,398.23,406.27,396.56Z"/></g><path class="cls-9" d="M484.19,392.5c0,3.16-1.4,5.72-3.13,5.72s-3.13-2.56-3.13-5.72a8,8,0,0,1,1.23-4.54c.53-.74,1.19.67,1.9.67,1.24,0,1.24,0,2.82,1.39A9.79,9.79,0,0,1,484.19,392.5Z"/><path class="cls-9" d="M486.54,389.9s-8.09-2.22-11.88-6.4a18.75,18.75,0,0,0,5,6.4C482.75,392.25,486.54,389.9,486.54,389.9Z"/><path class="cls-2" d="M499.79,427.72l-8.54,5-9.51,5.48c-3.61,2.08-7.66,4.38-11.84,6.89s-8.58,5.68-13.73,8a59,59,0,0,1-16.49,4.75,72.42,72.42,0,0,1-17,.18l-2.06-.23c-.7-.09-1.33-.13-2.11-.29l-4.33-.8-1-.2a5,5,0,0,1-.51-.11l-.56-.25a2.39,2.39,0,0,1-.86-.82,1.92,1.92,0,0,1-.15-1.19,4.72,4.72,0,0,1,1.13-2.14,10.52,10.52,0,0,1,1.51-1.44l-.28.38c-.18.26-.42.6-.74,1.15A4.39,4.39,0,0,0,412,454a1,1,0,0,0,.66,1l.34.11.36,0a8,8,0,0,0,.81,0l3.69,0c.67,0,1.28,0,2.05,0l2.36-.06,2.54,0,2.71-.18c.93-.07,1.9-.09,2.88-.19l3-.34a78.92,78.92,0,0,0,13.53-2.78,73.86,73.86,0,0,0,15-6.59l4-2.29c1.4-.79,2.87-1.56,4.33-2.28,2.94-1.45,6-2.87,9.17-4.29Q489,431.88,499.79,427.72Z"/><path class="cls-11" d="M538.22,417.7s-15.66,15.66-21.53,16.84-23.49-10.18-23.49-10.18-25.06-7.83-25.84-15.27S490.06,404,490.06,404s11-12.92,23.1-14.88,38,2,47.38,9.79-7.83,40.33-7.83,40.33S556.23,421.62,538.22,417.7Z"/><path class="cls-18" d="M552.71,439.24s14.78-25.58,9.61-38c-4.34-10.4-33.49-13.4-47-13.18-8.59.14-14.51,6-17.82,8.85,0,0,24.66-.62,40.08,4.33S555.48,426.51,552.71,439.24Z"/><path class="cls-19" d="M482.62,411.83s20.36,6.66,27.8,6.26S534.7,415,534.7,415s-21.93,5.86-26,6.26S482.62,411.83,482.62,411.83Z"/><path class="cls-19" d="M518.25,398.22s-6.26-4.4-9.59,3C508.66,401.26,512.92,397.48,518.25,398.22Z"/><path class="cls-10" d="M518.61,387.65s3.27-.19,8.73,0c2.73.07,6,.23,9.7.59a84.13,84.13,0,0,1,12.16,2,37.69,37.69,0,0,1,6.69,2.31,19.34,19.34,0,0,1,3.38,2l.82.66c.26.23.48.47.72.71a13.28,13.28,0,0,1,1.37,1.5c.4.56.85,1.1,1.21,1.71s.67,1.25,1,1.89l.69,2c.16.68.27,1.38.4,2.07a25.18,25.18,0,0,1-.44,8,65.7,65.7,0,0,1-5.18,14.09,139,139,0,0,1-6.74,12.22s.53-2,1.71-5.85,3.1-9.37,5-16.47c.19-.89.43-1.8.62-2.73s.39-1.89.47-2.85a21.11,21.11,0,0,0,0-5.87,11.82,11.82,0,0,0-3.39-6.6,8.76,8.76,0,0,0-1.16-1.07,19.12,19.12,0,0,0-3-1.79,49.72,49.72,0,0,0-7.41-2.79c-2.67-.81-5.49-1.52-8.42-2.19Q528.7,389.22,518.61,387.65Z"/><path class="cls-5" d="M284.9,180.43s-65.39-76-75.57-90.84S185.06,52,181.92,51.22a14.55,14.55,0,0,0-6.26,0s13.31,50.9,25.06,72.83c0,0-47-49.33-72.83-95.53,0,0-7.83-5.48-13.31-3.92,0,0,28.19,87.7,71.26,127.64,0,0-72-50.12-108.85-59.51,0,0-14.88,5.2-16.44,9.65s70.78,46.73,89.81,61.61c0,0-59.33-11.75-89.84,3.13,0,0,6.29,13.31,9.42,13.31s65.3.1,80.42,9.84c0,0-48.31,21.49-46.75,28.53s41.5,0,41.5,0-11,18.43-7,26.84,31,4.49,31,4.49-2.66,18.73,0,21.5,30.86,0,30.86,0-3.92,21.35,0,21.85S232,297.89,232,297.89s-20.36,15.66-17.23,19.58S229.69,325,229.69,325s-10,12.79,23.65,28.45c0,0-5.64,8.92-3.29,11.12s25.06,14,25.06,14-18.48-1.09-21.77,4.91,27.51,23.23,46.56,17.75,29.24-144.09,29.24-144.09Z"/><path class="cls-1" d="M359.68,370.76s-24.28-35.28-20.36-60.34,13.42-58.33,10.51-74.3S330.71,211,311.91,197.27s-56.38-58.34-61.86-59.91-12.53,28.29,6.26,52.91,61.08,55.37,61.08,55.37-25.06,11.53-26.62,20.15,11.11,14.88,11.11,14.88-48.38,2.92-48.54,12.81,19.42,11.46,19.42,11.46-12.53,4.7-13.31,12.53S290,340,290,340s-31.32-.45-32.11,3.77,42,34.81,42,34.81-20.1,4-20.88,8.63,13.31,14,13.31,14-6.79,7.22,7.57,7.92S375.22,400.72,359.68,370.76Z"/><path class="cls-6" d="M345.53,345.37s-.33-.56-.88-1.67-1.31-2.78-2.15-5A67.52,67.52,0,0,1,338.37,318a90.34,90.34,0,0,1,1.41-15.27c.89-5.53,2.11-11.49,3.46-17.89s2.84-13.23,4.18-20.52c.66-3.64,1.28-7.41,1.72-11.28a63.92,63.92,0,0,0,.43-11.88,29.84,29.84,0,0,0-.38-3,22.8,22.8,0,0,0-.8-2.92,30.43,30.43,0,0,0-1.05-2.94,28.88,28.88,0,0,0-1.28-2.87,41.15,41.15,0,0,0-7.51-10.49,81.33,81.33,0,0,0-10.44-8.83c-3.78-2.77-7.77-5.45-11.83-8.21-2-1.39-4.07-2.73-6.15-4.21s-4.08-3.09-6-4.77c-3.9-3.36-7.62-7-11.32-10.76-7.38-7.54-14.58-15.65-22.09-23.83-3.76-4.08-7.59-8.21-11.65-12.11a61.41,61.41,0,0,0-6.35-5.43c-.56-.35-1.12-.78-1.68-1a6.38,6.38,0,0,0-.83-.42l-.92-.37a9.83,9.83,0,0,1-2.3-1.31,22.88,22.88,0,0,1-1.84-1.48,75.09,75.09,0,0,1-6.3-6.5c-2-2.25-3.89-4.56-5.78-6.91-3.77-4.69-7.45-9.52-11.12-14.43-7.33-9.82-14.59-20-22-30.28-3.71-5.15-7.45-10.34-11.31-15.48C186.66,60,184.7,57.4,182.66,55c-.51-.59-1-1.17-1.54-1.68-.12-.12-.26-.26-.36-.34l0,0a9.11,9.11,0,0,0-.87-.34,5.45,5.45,0,0,0-1.7-.3c-.3,0-.26,0-.31,0a.26.26,0,0,0-.1.06s0,.06,0,.1v.05l0,.28c.12.67.28,1.38.46,2.09.35,1.43.76,2.88,1.18,4.33.85,2.9,1.77,5.81,2.72,8.72,1.89,5.83,3.9,11.68,5.94,17.56q6.14,17.63,12.76,35.6L205,132.4l-7.93-9q-10.82-12.26-21.31-25c-7-8.52-13.95-17.22-20.72-26.13s-13.39-18-19.68-27.46c-1.54-2.38-3.16-4.71-4.63-7.15L128.45,34l-1.12-1.82h0l-.05,0-.86-.58c-2.3-1.55-4.66-3-7-4.33-.59-.32-1.19-.62-1.77-.89l-.13-.06h0l.24.82c.17.66.46,1.34.69,2,.5,1.34,1,2.69,1.49,4,1.1,2.68,2.13,5.37,3.32,8s2.3,5.34,3.53,8,2.4,5.31,3.67,7.95Q137.89,73,146.09,88.53c5.47,10.36,11.13,20.63,17.11,30.68l4.58,7.47c1.55,2.47,3.17,4.89,4.75,7.34.4.61.79,1.23,1.21,1.81l1.62,2.3,2.4,3.4,2.91,3.74,2.67,3.46,2.48,3.25,2.47,3.24,1.23,1.61.62.81s0,.07,0,0l-.11-.08-.22-.15-.45-.3-14.27-9.64-10.35-6.81q-7.33-4.78-14.71-9.43c-9.84-6.19-19.73-12.23-29.74-17.93-5-2.85-10-5.61-15.12-8.23S95,100,89.74,97.87c-1.31-.52-2.61-1-3.93-1.49s-2.64-.86-4-1.25c-.66-.19-1.33-.3-2-.46a13.52,13.52,0,0,0-2-.32l-.69-.09-.64.25-2,.79C72,96.36,69.42,97.49,67,98.74a34.33,34.33,0,0,0-3.52,2c-.27.18-.53.37-.77.56a2.48,2.48,0,0,0-.31.28.89.89,0,0,0-.23.36c-.05.15.06.27.14.39a16.34,16.34,0,0,0,1.93,1.89c.86.74,1.73,1.48,2.64,2.19,1.79,1.44,3.65,2.82,5.51,4.19,3.72,2.74,7.49,5.39,11.26,8C91.17,123.86,98.74,129,106.27,134l22.42,14.89,11.06,7.33c3.66,2.46,7.32,4.83,10.87,7.44,0,0-.48-.36-1.45-1s-2.43-1.59-4.37-2.84l-17.44-11c-7.71-4.86-17.31-10.9-28.67-18.22-5.68-3.67-11.8-7.65-18.31-12-3.25-2.19-6.6-4.49-10-6.93-1.71-1.22-3.43-2.48-5.15-3.81-.86-.67-1.72-1.35-2.57-2.08-.42-.38-.85-.72-1.27-1.13A10.57,10.57,0,0,1,60,103.05a2.82,2.82,0,0,1-.39-.88,1.86,1.86,0,0,1,.19-1,4.83,4.83,0,0,1,1.32-1.57,20.51,20.51,0,0,1,2.71-1.86c1.84-1.08,3.76-2,5.71-3s4-1.79,6-2.63l.88-.36.28-.11.14-.05.15,0,.57.06,1.76.19c1.13.22,2.28.42,3.39.73a95.16,95.16,0,0,1,13.2,4.79c4.38,1.9,8.76,4,13.2,6.3,17.72,9.11,36.32,20.26,56.06,32.79l6,3.81,1.61,1,.18.12.09.06s.09.07,0,0l-.34-.41-.64-.78-.56-.75-.58-.79c-.45-.64-.93-1.27-1.35-1.94-7.08-10.44-13.74-21.61-20.27-33.31s-12.93-23.94-19.19-36.71c-1.59-3.18-3.09-6.43-4.66-9.68s-3-6.57-4.55-9.91-3-6.73-4.35-10.2l-1.06-2.6-1-2.66-1-2.68-1.17-4-.12-.85.06-.7a1.76,1.76,0,0,1,.16-.64,3.67,3.67,0,0,1,.29-.6,3.14,3.14,0,0,1,1.08-1,3.31,3.31,0,0,1,1.35-.37,8.41,8.41,0,0,1,3.38.72c.28.11.63.26.86.37l.48.22.93.46a79.38,79.38,0,0,1,6.92,4.11L129.41,28l1.1.76c.31.15.41.48.61.76l.34.55,2.07,3.34,2.08,3.36,2.19,3.32C143.64,49,150,57.87,156.67,66.74s13.72,17.8,21,26.75,14.87,18,22.73,26.91l-3.83,2.29c-3.92-10.78-8-22.19-12.08-34.07-2-5.94-4.09-12-6.08-18.16-1-3.08-2-6.2-2.89-9.36-.46-1.58-.91-3.18-1.31-4.81-.2-.82-.39-1.65-.56-2.53l-.06-.34,0-.17,0-.27a7.55,7.55,0,0,1-.09-1.15,2.85,2.85,0,0,1,.16-1.09c.08-.16.16-.32.25-.48l0-.06c-.08-.07,0-.05,0-.08L174,50l.16-.22a6.07,6.07,0,0,1,1.95-1.29,6.16,6.16,0,0,1,1.16-.31,7,7,0,0,1,1-.06,9.59,9.59,0,0,1,3.21.62c.24.08.48.18.72.28l.36.16.55.28a4.5,4.5,0,0,1,.47.39l.3.28.51.51c.65.68,1.23,1.35,1.8,2,2.26,2.72,4.33,5.5,6.4,8.3,4.13,5.61,8.18,11.33,12.27,17.08,8.17,11.51,16.41,23.24,25.14,34.85,4.38,5.78,8.85,11.6,13.74,17a53.78,53.78,0,0,0,3.81,3.81,16.62,16.62,0,0,0,2,1.57,4.13,4.13,0,0,0,.49.29,2.69,2.69,0,0,0,.45.21l1.42.59a26.42,26.42,0,0,1,4.9,3.38c1.49,1.23,2.88,2.54,4.25,3.85,5.43,5.32,10.46,11,15.55,16.67s10.15,11.43,15.41,17.05a182.59,182.59,0,0,0,16.66,16.1c1.51,1.22,3,2.37,4.64,3.49l4.84,3.37c3.24,2.25,6.49,4.51,9.7,6.87a108.38,108.38,0,0,1,9.35,7.56,49.42,49.42,0,0,1,7.94,9.22,41.6,41.6,0,0,1,5.07,11.14,24.09,24.09,0,0,1,1.06,6.1,49.57,49.57,0,0,1-.05,6.16c-.55,8.18-2.23,16.23-3.94,24.29s-3.7,16.1-5.39,24.26c-.84,4.08-1.62,8.19-2.21,12.34-.28,2.08-.53,4.16-.65,6.26a42.07,42.07,0,0,0,0,6.32A68.37,68.37,0,0,0,341,333.37a62.33,62.33,0,0,0,1.91,6.1A46.49,46.49,0,0,0,345.53,345.37Z"/><path class="cls-6" d="M104,218.75a1.29,1.29,0,0,0,.19.58,3.92,3.92,0,0,0,1.57,1.23c1.72.78,4.63,1.21,8.33,1.2a92.5,92.5,0,0,0,13.44-1.2c1.29-.21,2.63-.38,4-.63l4.24-.78c1.47-.25,2.9-.56,4.49-.9l3.78-.76,2-.39,1-.2.5-.1a1.69,1.69,0,0,1,.45-.06c-.84,1.58-1.76,3.25-2.59,4.91l-.62,1.25-.5,1.07-.68,1.51c-.89,2-1.74,4.14-2.48,6.32a41.77,41.77,0,0,0-1.77,6.69,17.23,17.23,0,0,0-.25,3.33,5.94,5.94,0,0,0,.64,2.71,4.63,4.63,0,0,0,2.08,1.58,17.13,17.13,0,0,0,3.3,1.07,48.41,48.41,0,0,0,7.57,1c2.62.15,5.3.18,8,.12q2,0,4.09-.15l2.87-.17,4.23-.35c-.33,1.78-.69,3.57-1,5.33l-.23,1.53-.18,1.32c-.23,1.76-.42,3.52-.54,5.28a42.14,42.14,0,0,0-.08,5.2,15.56,15.56,0,0,0,.29,2.37,4.16,4.16,0,0,0,.5,1.35,4.47,4.47,0,0,0,.73.28,11.86,11.86,0,0,0,1.59.32,36,36,0,0,0,3.63.29c2.5.08,5.06,0,7.62-.08s5.14-.28,7.72-.48l3.86-.33,3.06-.32,3.68-.43c-.42,1.84-.86,3.67-1.21,5.43l-.59,3c-.34,1.86-.64,3.73-.87,5.58a39.21,39.21,0,0,0-.34,5.45,10.86,10.86,0,0,0,.29,2.4,3.38,3.38,0,0,0,.13.42.77.77,0,0,0,.09.19.54.54,0,0,0,.35.22l16.1,2.73c5.31.93,10.5,1.87,15.54,2.82,0,0-2.8-.17-8.21-.6L213.82,296l-6.47-.6-7.49-.74a7.68,7.68,0,0,1-.91-.24,3.05,3.05,0,0,1-.78-.54,4.4,4.4,0,0,1-1-1.56,11.24,11.24,0,0,1-.65-2.92,35.59,35.59,0,0,1,0-5.8c.12-2,.33-4,.61-6q.21-1.54.47-3.12l.07-.69-.37.08-.17,0a2.23,2.23,0,0,1-.39.06l-3.62.43c-2.45.27-5,.52-7.63.7s-5.36.32-8.21.3a43,43,0,0,1-4.41-.23,18.13,18.13,0,0,1-2.4-.42,10.18,10.18,0,0,1-1.34-.43l-.78-.39a8.44,8.44,0,0,1-.84-.65,7.23,7.23,0,0,1-1.72-3.4,18.65,18.65,0,0,1-.44-3,43.37,43.37,0,0,1,0-5.7c.12-1.89.32-3.78.57-5.69.12-.94.27-1.94.41-2.83v0h-.06l-.43,0q-1.73.08-3.5.11c-2.35,0-4.75,0-7.19-.09a69.13,69.13,0,0,1-7.47-.72,36.62,36.62,0,0,1-3.85-.8,19.12,19.12,0,0,1-3.94-1.47,11.25,11.25,0,0,1-2-1.29,10.24,10.24,0,0,1-.92-.92,6.56,6.56,0,0,1-.75-1.15,9.88,9.88,0,0,1-1-4.66,28.84,28.84,0,0,1,1.65-8.25,70.1,70.1,0,0,1,3.12-7.67l.91-1.88.47-.93.24-.47.08-.14.05-.09c.29-.5.61-1.05,1-1.67.06-.07,0,0-.06,0h-.13l-.27,0-.57.07-.62.07-.33,0-.47.07-2.58.4-2.61.33c-3.49.46-7.05.81-10.67,1.05-1.81.08-3.63.22-5.47.19-.92,0-1.84,0-2.76,0l-2.77-.14-2.77-.32a27.4,27.4,0,0,1-2.72-.6,10.16,10.16,0,0,1-2.53-1.05A2.49,2.49,0,0,1,104,218.75Z"/><path class="cls-20" d="M345.83,348.27l1.34,2.43,3.23,6.07c1.27,2.43,2.69,5.13,4,7.89s2.69,5.54,3.69,8.23a16.37,16.37,0,0,1-1.56-1.26,27.59,27.59,0,0,1-3.74-4.21A40.06,40.06,0,0,1,345.83,348.27Z"/></svg>