<svg xmlns="http://www.w3.org/2000/svg" viewBox="0 0 366.21 595.28"><defs><style>.cls-1{isolation:isolate;}.cls-2{fill:#b1deec;}.cls-10,.cls-14,.cls-2{opacity:0.7;}.cls-14,.cls-19,.cls-2,.cls-5,.cls-9{mix-blend-mode:multiply;}.cls-3{fill:#cae6e4;}.cls-4{fill:#e1f1f5;}.cls-5{fill:#74a0a0;}.cls-19,.cls-20,.cls-5{opacity:0.3;}.cls-6{fill:#9ed5dc;}.cls-7{fill:#f7ec7c;}.cls-8,.cls-9{fill:#64b559;}.cls-9{opacity:0.8;}.cls-10,.cls-17{fill:#fff;}.cls-10,.cls-12,.cls-20,.cls-22{mix-blend-mode:overlay;}.cls-11{fill:#fffef9;}.cls-12{fill:#f6f6d3;opacity:0.4;}.cls-13,.cls-14{fill:#e43e12;}.cls-15,.cls-19{fill:#ed6a1d;}.cls-16{fill:#41162b;}.cls-18{fill:#f18534;}.cls-20{fill:#f4e72c;}.cls-21{fill:#391226;}.cls-23{fill:#efb18f;}</style></defs><title>Монтажная область 1</title><g class="cls-1"><g id="Слой_1" data-name="Слой 1"><path class="cls-2" d="M333.11,489.88c27.08-39.11,13.39-86-5.93-121.88C255.08,494.37,154.38,530.7,104.94,541.11c40.39,21.62,79.76,22.62,84.89,22.65h.57C198.13,563.71,283.54,561.49,333.11,489.88Z"/><path class="cls-3" d="M286.93,311.22H93.31S-4.84,414.82,47.12,489.88c49.58,71.61,135,73.83,142.71,73.89h.57c7.73-.05,93.14-2.28,142.71-73.89C385.07,414.82,286.93,311.22,286.93,311.22Z"/><ellipse class="cls-4" cx="190.17" cy="312.35" rx="96.86" ry="17.64"/><ellipse class="cls-5" cx="195.59" cy="558.89" rx="170.63" ry="23.66"/><path class="cls-6" d="M319.39,354.49C265,360.38,210.81,380,159.74,394.72c-42.47,12.27-88-.93-114.23-11.38-1.82,4.11-3.53,8.31-5.07,12.59l-.07.19c-.32.87-.62,1.76-.92,2.64l-.28.81c-.27.8-.53,1.6-.79,2.41L38.06,403q-.36,1.15-.7,2.3L37,406.51c-.21.75-.42,1.5-.62,2.24-.11.42-.23.85-.34,1.27q-.29,1.1-.56,2.21c-.11.44-.21.88-.31,1.32-.17.73-.34,1.46-.5,2.2-.09.44-.18.87-.27,1.3-.15.75-.31,1.49-.45,2.24-.07.36-.13.73-.19,1.1q-.41,2.29-.73,4.59c-.06.41-.12.83-.18,1.24-.08.64-.15,1.28-.22,1.93s-.13,1.13-.19,1.69-.11,1.23-.16,1.84-.1,1.19-.14,1.79-.07,1.2-.1,1.8S32,436.5,32,437.11s0,1.18,0,1.78,0,1.25,0,1.87,0,1.16,0,1.74,0,1.28.07,1.92,0,1.13.08,1.7.09,1.33.15,2,.08,1.08.14,1.61c.07.73.16,1.45.25,2.17.06.48.11,1,.18,1.43.14,1,.3,2,.48,3,0,.24.08.48.12.73q.32,1.72.7,3.43c.09.41.2.83.3,1.24.19.78.38,1.56.59,2.34.13.47.27.95.41,1.42.21.71.42,1.43.65,2.14.16.5.33,1,.5,1.49.24.69.48,1.37.73,2.06.19.5.38,1,.58,1.5q.4,1,.83,2c.21.49.42,1,.64,1.48.31.68.63,1.36,1,2,.23.48.46,1,.7,1.44.35.7.73,1.4,1.11,2.1.24.45.48.9.73,1.35.43.77.89,1.53,1.35,2.29.23.37.44.75.68,1.13q1.06,1.69,2.22,3.37c49.58,71.61,135,73.83,142.71,73.89h.57c7.73-.05,93.14-2.28,142.71-73.89C363.74,445.64,342.22,391.51,319.39,354.49Z"/><path class="cls-7" d="M319.37,507.09c-75.77,19.12-188.24,20.65-236,20.34,46.79,34.92,100.41,36.29,106.46,36.33h.57C197.45,563.71,269.2,561.85,319.37,507.09Z"/><path class="cls-8" d="M225.45,529s1.53-2,3.93-5.66a173,173,0,0,0,9.06-15.68c1.73-3.32,3.44-7,5.22-10.89s3.44-8.1,5-12.49,3.09-9,4.51-13.66,2.64-9.52,3.63-14.4l.79-3.65.67-3.66c.49-2.43.81-4.88,1.18-7.3.68-4.85,1.23-9.65,1.56-14.3.24-2.33.25-4.62.4-6.87s.17-4.45.19-6.59c.12-4.29-.07-8.34-.13-12.09q-.16-2.81-.31-5.37-.06-1.28-.12-2.49t-.21-2.35c-.3-3-.44-5.7-.78-7.86l-.83-6.85,1.38,6.76c.47,2.15.79,4.8,1.29,7.82s.8,6.47,1.22,10.23c.24,3.76.62,7.85.63,12.18.05,2.17.11,4.39,0,6.67s-.06,4.6-.24,7c-.26,4.72-.66,9.6-1.34,14.52-.35,2.46-.67,4.95-1.14,7.42s-.88,5-1.44,7.43c-1,4.94-2.38,9.81-3.78,14.58s-3.07,9.37-4.81,13.77-3.61,8.57-5.46,12.49-3.81,7.52-5.72,10.78a148.1,148.1,0,0,1-10,15.22c-1.31,1.77-2.44,3.08-3.19,4Z"/><path class="cls-8" d="M243.1,500.81s5.58-33.65-4.21-48.47-20.64-8.27-23.38-6.36-11.37,18.87,8.73,32.55S241.35,489.35,243.1,500.81Z"/><path class="cls-8" d="M256,461.58s4.35-32.23-3.26-44.54-19.56-7.6-20.28,2.17,11.59,19.92,15.94,24.26S256,455.78,256,461.58Z"/><path class="cls-8" d="M247,488.2s35.4-16.76,42.84-32.52-5.15-24.73-15.5-19-12.51,24.77-14,32S252.88,484.4,247,488.2Z"/><path class="cls-8" d="M262.1,430.64s22.22-18.17,24.73-30.69-8-16.68-14.39-10.81-4.52,19.83-4.34,25.25A25.58,25.58,0,0,1,262.1,430.64Z"/><path class="cls-8" d="M261.73,389.71s0-21.9-6.13-29.44-13.73-3.34-13.34,3.25,9.5,12.27,12.79,14.78A19.53,19.53,0,0,1,261.73,389.71Z"/><path class="cls-9" d="M274.37,436.63c-10.35,5.68-12.51,24.77-14,32-1.16,5.48-4.83,11.69-9.08,16,1.67-4.25,3.22-8.7,4.62-13.27,1.4-4.77,2.74-9.64,3.78-14.58.56-2.46,1-4.95,1.44-7.43s.79-5,1.14-7.42c.59-4.21,1-8.39,1.21-12.47,4.82-4.14,21.25-18.9,23.39-29.57,2.51-12.52-8-16.68-14.39-10.81s-4.52,19.83-4.34,25.25a26.1,26.1,0,0,1-4.63,14.55c0-.49.07-1,.09-1.47.18-2.36.19-4.69.24-7s0-4.5,0-6.67c0-4.33-.38-8.42-.63-12.18-.42-3.75-.68-7.2-1.22-10.23-.19-1.13-.34-2.2-.5-3.22a12,12,0,0,1,.31,1.51s0-21.9-6.13-29.44c-3.62-4.43-7.72-4.79-10.41-3a63.68,63.68,0,0,1,9.67,13.09c7.23,12.94,9.3,28,6.19,57-.33,4.64-.88,9.41-1.56,14.24-.37,2.42-.69,4.87-1.18,7.3l-.67,3.66c-5.38,34.38-21.37,61.36-29.29,73,.46-.57,1-1.21,1.5-1.93a148.1,148.1,0,0,0,10-15.22c1.91-3.26,3.81-6.89,5.72-10.78,1.67-3.53,3.39-7.27,5-11.22,9.12-4.69,33.32-18,39.33-30.77C297.31,439.93,284.71,430.95,274.37,436.63Z"/><path class="cls-10" d="M312.36,431.89a11.65,11.65,0,0,0-8-4.07,11.76,11.76,0,0,0-12.59,10.77l-.43,5.47c-.05,1-.21,2.22-.39,3.6-.09.64-.17,1.31-.26,2.06-.15,1.44-.44,3-.75,4.73-.15.83-.31,1.68-.45,2.53s-.35,1.66-.55,2.52c-.13.53-.25,1.06-.37,1.58l-1.15,4.4c-.73,2.72-1.71,5.67-3.06,9.28-1.3,3.39-2.74,6.63-4.24,9.6l-.67,1.3c-.6,1.16-1.22,2.37-1.92,3.52l-1.39,2.39c-.29.48-.6,1-.91,1.43l-.59.91a106.93,106.93,0,0,1-6.44,8.9c-2.08,2.49-4.56,5.38-7.26,8-2.18,2.21-4.57,4.39-7.51,6.85-2.17,1.81-4.57,3.62-7.29,5.54s-4.79,3.17-6.59,4.21-3.63,2.06-5.28,2.88c-2.9,1.46-4.67,2.13-4.69,2.14a2.19,2.19,0,0,0,.77,4.24,2.16,2.16,0,0,0,.45,0c.08,0,2.08-.44,5.44-1.54,1.89-.61,3.91-1.34,6-2.18s4.48-1.88,7.62-3.38,6-3.13,8.66-4.72c3.5-2.12,6.51-4.13,9.19-6.13,3.46-2.5,6.76-5.35,9.28-7.59a118.67,118.67,0,0,0,8.7-8.85l.71-.8c.46-.51.91-1,1.38-1.58l1.9-2.36c1-1.25,2-2.54,2.89-3.8l.9-1.23a121.1,121.1,0,0,0,6.56-10.3c2.14-3.82,3.84-7.16,5.17-10.19l1.15-2.51,1-2.41c.21-.54.42-1.07.63-1.59.42-1,.82-2,1.18-3.06.28-.85.57-1.68.85-2.49.7-2,1.37-4,1.83-5.75l.58-2c.47-1.61.91-3.14,1.18-4.44l1.31-5.63a12.51,12.51,0,0,0,.26-1.73A11.64,11.64,0,0,0,312.36,431.89Z"/><circle class="cls-11" cx="184.34" cy="453.56" r="12.19" transform="translate(-282.76 600.26) rotate(-85.32)"/><circle class="cls-11" cx="148.28" cy="356.39" r="12.19" transform="translate(-219.01 475.11) rotate(-85.32)"/><circle class="cls-11" cx="177.86" cy="504.12" r="4.87" transform="translate(-339.1 640.22) rotate(-85.32)"/><circle class="cls-11" cx="129.24" cy="433.23" r="4.87" transform="translate(-313.08 526.72) rotate(-85.32)"/><circle class="cls-11" cx="183.71" cy="411.15" r="4.87" transform="matrix(0.08, -1, 1, 0.08, -241.04, 560.73)"/><circle class="cls-11" cx="107.47" cy="385.36" r="4.87" transform="translate(-285.37 461.06) rotate(-85.33)"/><circle class="cls-11" cx="51.4" cy="431.65" r="4.87" transform="translate(-383 447.75) rotate(-85.33)"/><circle class="cls-11" cx="106.84" cy="458.48" r="4.87" transform="translate(-358.83 527.58) rotate(-85.32)"/><path class="cls-12" d="M273.94,303.51c-16.76-5.26-48-8.8-83.78-8.8-51.41,0-93.44,7.29-96.64,16.51H93.3s-72.93,77-59.76,146.32C117.08,454,243.54,427.45,273.94,303.51Z"/><path class="cls-6" d="M201.89,438.69s9.16-1.26,15.63,3.52,12.06,11.33,18.55,8.07S233.89,423.38,201.89,438.69Z"/><path class="cls-13" d="M195.3,22.5s-34.58-6.5-55.87-7.6-35.93.5-34.75,9.82,9.31,6.17,10.42,9-2,6.71-4.45,8.09-5,20.92,25.2,13.2Z"/><path class="cls-14" d="M109.43,44.62c-.86,5.5,2.46,16.57,26.43,10.43L195.3,22.5S181,19.82,165.15,17.61C153.21,33.48,125.35,41.31,109.43,44.62Z"/><path class="cls-15" d="M146.36,170s-9.75-27.2,7.67-47,26.13-21.12,40.83-23.48S245,68.84,236.11,43.34,184.46,17,156.9,30.47s-53.67,57.11-41.43,103.31,26.49,48.63,32.8,55.66,9.15,22.31,5.58,31.63,7.84,47.39,42.82,51.78c0,0-1-9.46-11.22-17.8s-7.44-28.31-5.27-31.78c0,0,18.49,3.9,26.53,12.95s10,27.63,9.29,34.62c0,0,15.19-11.44,10-34.63s-13.94-34.14-33.25-43.94S157.17,191.11,146.36,170Z"/><circle class="cls-16" cx="204.99" cy="39" r="5.25" transform="translate(146.82 239.39) rotate(-84.58)"/><circle class="cls-17" cx="207.02" cy="37.12" r="1.83" transform="translate(150.56 239.72) rotate(-84.59)"/><path class="cls-18" d="M192.78,192.26c-19.31-9.81-35.61-1.15-46.42-22.31,0,0-9.75-27.2,7.67-47s26.13-21.12,40.83-23.48c12.39-2,39.48-22.39,42.39-44-7.12,1.9-32.23,9.5-51.85,26.91-20,17.7-62.25,44.39-42.61,102.37a44.23,44.23,0,0,1,5.47,4.7c6.3,7,9.15,22.31,5.58,31.63s7.84,47.39,42.82,51.78c0,0-1-9.46-11.22-17.8s-7.44-28.31-5.27-31.78c0,0,18.49,3.9,26.53,12.95s10,27.63,9.29,34.62c0,0,15.19-11.44,10-34.63S212.09,202.07,192.78,192.26Z"/><path class="cls-13" d="M180.48,63.19s-2.53,10.5-7.87,18.27-11.58,41.23,18,49.25a18.89,18.89,0,0,0,.07-10.42c-1.67-5.07,2.82-13.54,5.48-15.74S201.14,75,180.48,63.19Z"/><path class="cls-19" d="M185.45,255.05c-10.25-8.33-7.44-28.31-5.27-31.78,0,0,18.49,3.9,26.53,12.95s10,27.63,9.29,34.62c0,0,15.19-11.44,10-34.63s-13.94-34.14-33.25-43.94c-9.8-5-18.82-5.2-26.74-7,6.09,16.5,10.07,40.86-3.9,65.64,6.92,10.42,18.14,19.87,34.52,21.93C196.66,272.85,195.7,263.39,185.45,255.05Z"/><path class="cls-13" d="M129.66,108.29s2.09,7.1-.23,12.17-11.17,17.69.92,19.41C140.1,141.26,140.37,114.14,129.66,108.29Z"/><path class="cls-14" d="M130.34,139.87c6.37.9,8.7-10.33,6.56-19.87-1.57,6.73-4.93,15.3-12,17.07C125.81,138.45,127.49,139.47,130.34,139.87Z"/><path class="cls-14" d="M180.58,63.26c13.64,19.29-.6,44.35-7.84,54.82,3.43,5.57,9.05,10.24,17.89,12.64a18.89,18.89,0,0,0,.07-10.42c-1.67-5.07,2.82-13.54,5.48-15.74S201.13,75.07,180.58,63.26Z"/><path class="cls-20" d="M154.72,74.26c-1.9-26.61,4.74-44.38,13.72-56.18-9.74-1.41-20.45-2.73-29-3.17-21.29-1.1-35.93.5-34.75,9.82s9.31,6.17,10.42,9-2,6.71-4.45,8.09c-2.22,1.26-4.52,17.67,18.11,14.61-13.49,20.17-21,48.23-13.28,77.32,3.46,13.05,7.08,22.61,10.63,29.76A123.82,123.82,0,0,0,154.72,74.26Z"/><path class="cls-21" d="M224.08,49.71a7.5,7.5,0,0,0,1.28-.42,5,5,0,0,0,2-1.58,5.29,5.29,0,0,0,.44-1.12,1.66,1.66,0,0,1,.3-.47c.12-.14.23-.31.36-.45s.28-.28.39-.42a4.87,4.87,0,0,1,.35-.36,4.56,4.56,0,0,1,.4-.34h.28a2.33,2.33,0,0,1,.32.41,2.73,2.73,0,0,1,.44,1.19,2.9,2.9,0,0,1,0,.84,3.28,3.28,0,0,1-.27.91,4.87,4.87,0,0,1-1.52,1.44,5.21,5.21,0,0,1-3.39.91,4.87,4.87,0,0,1-1.46-.28Z"/><g class="cls-22"><path class="cls-23" d="M156.72,222.5c3.56-9.31.72-24.59-5.58-31.63s-20.55-9.46-32.79-55.66S132.22,45.37,159.77,31.9c19-9.31,45.33-11.78,62.7-4-17.23-9.44-45.45-7.25-65.56,2.59-27.55,13.47-53.67,57.11-41.43,103.31s26.49,48.63,32.8,55.66,9.15,22.31,5.58,31.63c-3,7.94,4.82,36.77,28.86,47.83C160.91,257,153.8,230.12,156.72,222.5Z"/></g><circle class="cls-11" cx="226.02" cy="183.7" r="8.19" transform="translate(-41.26 299.42) rotate(-62.51)"/><circle class="cls-11" cx="197.17" cy="156.74" r="3.28" transform="translate(-32.87 259.33) rotate(-62.52)"/><circle class="cls-11" cx="236.69" cy="157.25" r="3.28" transform="translate(-12.01 294.71) rotate(-62.53)"/></g></g></svg>