<svg id="Слой_1" data-name="Слой 1" xmlns="http://www.w3.org/2000/svg" viewBox="0 0 374 595.28"><defs><style>.cls-1,.cls-16{fill:none;stroke-miterlimit:10;stroke-width:1.32px;}.cls-1{stroke:#eb5d30;}.cls-2{fill:#eb5d30;}.cls-3{fill:#e34119;}.cls-4{fill:#f5da55;}.cls-5{fill:#dabb3e;}.cls-6{fill:#737373;}.cls-7{fill:#61615e;}.cls-8{fill:#a25034;}.cls-9{fill:#84331b;}.cls-10{fill:#d05150;}.cls-11{fill:#b94343;}.cls-12{fill:#b1b0b0;}.cls-13{fill:#fbc89c;}.cls-14{fill:#2c0e0f;}.cls-15{fill:#cd302f;}.cls-16{stroke:#010101;stroke-linecap:round;}.cls-17{fill:#f6a669;}.cls-18{fill:#c35448;}.cls-19{fill:#912314;}.cls-20{fill:#a19428;}.cls-21{fill:#ea630a;}.cls-22{fill:#f0811f;}.cls-23{fill:#c06216;}.cls-24{fill:#b83f1e;}.cls-25{fill:#cb6f23;}.cls-26{fill:#fbb900;}.cls-27{fill:#aa5825;}.cls-28{fill:#f6a245;}.cls-29{fill:#ec7424;}.cls-30{fill:#d07417;}.cls-31{fill:#cb8d2d;}.cls-32{fill:#f9bb7e;opacity:0.2;}.cls-33{fill:#f9af20;}.cls-34{fill:#cb701b;}.cls-35{fill:#ec6829;}</style></defs><title>Монтажная область 1</title><path class="cls-1" d="M265,192.06s19.57,30.31,4,63.49"/><path class="cls-2" d="M164.15,170.12s-24.08,30.9-47,30c0,0,10.77,5.19,26.16-1.33,0,0-14.38,11.23-11.47,37.2,0,0,28.74,84.44,119.37,34.05,0,0,34.81-14.86,16.92-72.4Z"/><path class="cls-3" d="M268.11,197.62l-64.47-17.06c-2.38,3.56-30.62,13.67-36.55,14.86-3.59,5.95-28.06,27.17-24.22,48.72,0,0,17.69,76.27,108.32,25.88C251.19,270,286,255.16,268.11,197.62Z"/><path class="cls-1" d="M152.8,189.57s-30.29,19.49-24.89,51.81"/><path class="cls-1" d="M151.22,190.18s-28.33,22.3-19.94,54"/><polygon class="cls-4" points="162.17 554.83 188.11 433.94 151.63 431 146.73 552.87 162.17 554.83"/><polygon class="cls-4" points="241.36 557.27 215.42 436.39 251.89 433.45 256.8 555.32 241.36 557.27"/><path class="cls-5" d="M184,452.95l4.08-19L151.63,431,151,447.24A56.37,56.37,0,0,0,184,452.95Z"/><path class="cls-5" d="M252.27,442.94l-.38-9.49-36.47,2.94,3.66,17.07S240.63,453.88,252.27,442.94Z"/><path class="cls-6" d="M160.45,290.83s-39.26,110-44.38,134.34c0,0,76.56,57.26,164.77-2.2l-36-99.84-40.82-53.59Z"/><path class="cls-7" d="M261.62,417.74c-24.89,6.39-57,6.69-80.37-5.32-16.91-8.68-32.85-19.34-44.57-34.68-1.44-1.89-2.89-3.83-4.29-5.81C124.73,394.84,118,416,116.08,425.18c0,0,76.56,57.26,164.77-2.2l-3.61-10Q269.59,415.69,261.62,417.74Z"/><path class="cls-7" d="M197.48,291.64s2.09-19.86-22.14-20.59a45.45,45.45,0,0,1-11.72-1.86,43.63,43.63,0,0,1-9.51,56.7,39.11,39.11,0,0,1-14.69,7.64c7.65,20.89-15.59,25.61-14,36.31,1.84,12.14,26.88,40,57,30.41C182.44,400.25,202.74,327.84,197.48,291.64Z"/><path class="cls-7" d="M265.48,356c.4-3.58-2.85-2.73-1.59-6.07-7.63-9.64-30.3-73-36.07-72.69-16.87,1-6.91-8.33-25.51,8,0,0-13.4,12.32-9.67,35.67,2.54,15.89,10.36,16.74,10.89,21.26,2.62,22.2,8.54,44.93,21.29,55.92,0,0,23.73.27,42.62-12.42C262.11,370.94,264.3,366.53,265.48,356Z"/><path class="cls-8" d="M180.55,491.35a89.8,89.8,0,0,0-42.14-3.92l5.47,58.47s-12.88,4.15-16.28,9.88l36.7,3.45Z"/><path class="cls-9" d="M165.66,487.63,150.26,552l-16.46-1.55c-2.59,1.52-5,3.35-6.19,5.38l36.7,3.45,16.25-67.88A80.54,80.54,0,0,0,165.66,487.63Z"/><path class="cls-8" d="M223.1,491.94A89.8,89.8,0,0,1,265.24,488l-5.47,58.47s12.88,4.15,16.28,9.88l-36.7,3.45Z"/><path class="cls-9" d="M238,488.22l15.4,64.32L269.86,551c2.59,1.52,5,3.35,6.19,5.38l-36.7,3.45-16.25-67.88A80.54,80.54,0,0,1,238,488.22Z"/><path class="cls-4" d="M77.2,196.45c1.3-1.11,3.92,2.35,6.93,5.31-3.25-5.15-6.75-11.61-4.47-12.79s7.17,4,10.39,9.64c.11,0,0,.59.13.59-3.1-6-6.83-15.14-4.23-16.28,2.06-.91,5.57,8.1,8,13.64-1.21-5.1-1-13.1,1-13.56,2.69-.62,7.64,15.87,7.64,15.87,3.87-10.31,6-6.12,6-6.12a28.19,28.19,0,0,1-4.45,16.56l11.86,18.22-12.26,11s-10.08-14.19-14.15-22.13c-.38-.74-7.47-9.93-7.47-9.93h0C78.49,202.23,75.52,197.89,77.2,196.45Z"/><path class="cls-5" d="M102.42,214.6a84.19,84.19,0,0,1-11.54.68c-.69,0-1.39,0-2.09-.1.47.64.8,1.11.88,1.25,4.08,7.93,14.15,22.13,14.15,22.13l8.29-5.65C109.73,229.5,107,217.07,102.42,214.6Z"/><path class="cls-4" d="M337.51,201.22c-1.3-1.11-3.92,2.35-6.93,5.31,3.25-5.15,6.75-11.61,4.47-12.79s-7.17,4-10.39,9.64c-.11,0,0,.59-.13.59,3.1-6,6.83-15.14,4.23-16.28-2.06-.91-5.57,8.1-8,13.64,1.21-5.1,1-13.1-1-13.56-2.69-.62-7.64,15.87-7.64,15.87-3.87-10.31-6-6.12-6-6.12a28.19,28.19,0,0,0,4.45,16.56l-11.86,18.22,12.26,11S321,229.14,325,221.21c.38-.74,7.47-9.93,7.47-9.93h0C336.22,207,339.19,202.66,337.51,201.22Z"/><path class="cls-5" d="M323.48,221.65a28.47,28.47,0,0,1-10.13-2c-3.43,3-2.07,18.45-4.48,21.91l2,1.82s9.72-13.69,13.93-21.69Z"/><path class="cls-10" d="M191.81,283.36s.85-21.52-23.38-22.25-39.15-18.35-56-47.72c0,0-17.86,5.75-20.56,14.68-6.16,20.38-5.63,54.08,35.79,86.15,19.27,29.1-7.89,42.26-6.06,54.4s23.86,31.23,54,21.68C175.53,390.32,197.08,319.57,191.81,283.36Z"/><path class="cls-11" d="M142.62,355c-1.84-12.14,25.33-25.3,6.06-54.4a120.22,120.22,0,0,1-23.23-23.2c-13.91-15.49-25.86-35.95-27.24-56.88v-.07c-3,2.15-5.47,4.73-6.35,7.64-6.16,20.38-5.63,54.08,35.79,86.15,19.27,29.1-7.89,42.26-6.06,54.4s23.86,31.23,54,21.68c0,0,1.28-4.22,3.15-11.11C158.07,378.44,144.07,364.56,142.62,355Z"/><path class="cls-12" d="M191.12,277.7c-.89.89-1.84,1.75-2.81,2.56a23.09,23.09,0,0,1,.52,5c4.58,31.84-10.8,89.69-15.32,105.65.67-.19,1.34-.37,2-.59,0,0,21.55-70.75,16.28-107A23,23,0,0,0,191.12,277.7Z"/><path class="cls-10" d="M208.42,275.26s-6.85,87.54,22.51,112.85c0,0,59.46,1.82,58.73-28.28s-26.56-12.34-12.48-48.45c10.77-27.61,47-13,45-79.53l-18.6-13.7s-41.71,47.47-69.69,49.14C217.05,268.29,227,259,208.42,275.26Z"/><path class="cls-11" d="M322.21,231.86l-10.93-8.05c-7.09,66.16-39.2,50-53.61,75.89-18.86,33.87-30,36.41-47.58,36,1.38,19.58,16,48.2,20.85,52.42,0,0,59.46,1.82,58.73-28.28s-26.56-12.34-12.48-48.45C287.95,283.77,324.16,298.36,322.21,231.86Z"/><path class="cls-12" d="M233.37,388.12C204,362.8,210.86,275.26,210.86,275.26c7.21-6.32,10.12-8.78,12-9.49-2.43-.81-3.53-.06-14.41,9.49,0,0-6.85,87.54,22.51,112.85,0,0,1.18,0,3.2,0Z"/><path class="cls-4" d="M266.27,338.52s-43.94-10-42-73.62l-26.92,6.85S190,347.6,241.91,362.29a20.74,20.74,0,0,1,7.34,4.54l1.65-2.27a19.87,19.87,0,0,0-6.91-4.31l2.28-2.23s6.46,1.89,7.75,4.26l2.57-2.59a32,32,0,0,0-7.47-4.45l2.08-2s6.49,2.62,7.78,4.82l2.2-2.2a23.1,23.1,0,0,0-7.67-4.88l1.59-1.55s6,.28,8,4.71l2.51-2.55s-1.87-3.33-8.4-4.2l2.35-2.29c2.39.18,5.51,1.83,8.6,4.16l1.72-2.2a21.36,21.36,0,0,0-7.38-4.82l1.16-1.13c2.49.62,6.4,1.85,7.26,3.57l2.32-2A11.88,11.88,0,0,0,266.27,338.52Z"/><path class="cls-5" d="M246.17,358.13c-45.43-13.17-45.1-73.49-44.39-87.51l-4.41,1.12S190,347.6,241.91,362.29a20.75,20.75,0,0,1,7.34,4.54l1.65-2.27a19.86,19.86,0,0,0-6.91-4.31Z"/><path class="cls-12" d="M174.42,389.83l-1.65,1.07.74,8.3,5.59-.43Zm-.91,3.91h2l2,4.31h-2.78Z"/><path class="cls-4" d="M157.86,244s-10.18,8.81,0,21.32,53.6,33.31,82.13,4.19a24.58,24.58,0,0,0,4-25.4C238.12,229,157.86,244,157.86,244Z"/><path class="cls-5" d="M168.35,260.07c-6.06-7.45-4.91-13.58-3-17.33-4.66.77-7.51,1.3-7.51,1.3s-10.18,8.81,0,21.32c9.28,11.4,46.17,29.67,74.23,10.77C206,285.41,176.51,270.09,168.35,260.07Z"/><path class="cls-13" d="M171.22,168.62s-49.44,55.93-4.89,84.38c33.07,21.11,77.18,13.47,84.15-26.28,0,0,12.27,5.63,13.25-13.33.81-15.62-9.67-12.23-13.25-4l-2-23.1Z"/><path class="cls-14" d="M225.33,239.2c-5.48,12.84-28.08,21.45-45,5.75-8-7.39-2-21.24,7.76-16.33,5.38,2.71,10.35,5.19,16.19,2.25a17.18,17.18,0,0,0,4.08-2.9C217.88,218.25,230.8,226.36,225.33,239.2Z"/><path class="cls-15" d="M201.1,253.45c-2.59,0-4.9-6-2.82-10.1,3.06-6,7-10.31,15.65-9.69a16.8,16.8,0,0,1,11.51,5.45C223.14,244.27,215,253.67,201.1,253.45Z"/><path class="cls-3" d="M185.66,167.75s27.34,54,64.82,41.69V182.85Z"/><path class="cls-16" d="M180.32,210c.91-5-1.32-9.52-5-10.19s-7.35,2.81-8.25,7.78"/><path class="cls-3" d="M195.58,178.13s.19.91.67,2.45a47.47,47.47,0,0,0,2.44,6.19c.6,1.23,1.27,2.57,2.1,3.9a46.79,46.79,0,0,0,2.77,4.08,44.75,44.75,0,0,0,3.42,4,40.15,40.15,0,0,0,4,3.63,40.93,40.93,0,0,0,4.45,3.1c.77.46,1.56.87,2.32,1.31l2.34,1.15c1.57.68,3.1,1.32,4.59,1.82.73.29,1.48.48,2.18.69s1.39.43,2.07.57c1.34.31,2.56.63,3.67.82s2.06.41,2.87.5l2.52.37-2.54-.11c-.81,0-1.79-.15-2.91-.27a37.71,37.71,0,0,1-3.76-.58c-.69-.11-1.39-.3-2.13-.48s-1.5-.34-2.26-.6a43.43,43.43,0,0,1-4.76-1.67l-2.43-1.12c-.8-.43-1.62-.84-2.41-1.31a41.85,41.85,0,0,1-4.61-3.17,41.42,41.42,0,0,1-4.13-3.78,40.12,40.12,0,0,1-3.43-4.19,42.12,42.12,0,0,1-4.61-8.37,39.09,39.09,0,0,1-2-6.43A20.35,20.35,0,0,1,195.58,178.13Z"/><path class="cls-16" d="M224.6,215.15c.91-5-1.32-9.52-5-10.19s-7.35,2.81-8.25,7.78"/><path class="cls-2" d="M194.65,175.86s-13.89,12.84-25.14,15.09-23.76,13.3-21.79,32.86c0,0-9.29-57,37.94-60.71S194.65,175.86,194.65,175.86Z"/><path class="cls-4" d="M155.07,180.09s60.07,26.48,113.83,18.54c0,0,8.69-34.51-18.43-52.41C214.12,122.21,160.7,141.07,155.07,180.09Z"/><path class="cls-5" d="M250.47,146.21A64.59,64.59,0,0,0,221.88,136a48.37,48.37,0,0,1,16.37,12.66A43.54,43.54,0,0,1,241.13,200a151.48,151.48,0,0,0,27.78-1.36S277.6,164.12,250.47,146.21Z"/><path class="cls-17" d="M185.44,212.75s.43,4.42-5.65,2.84c0,0-4.23-.75-3,3.88s14,5.1,13.69-2.15S185.32,209.55,185.44,212.75Z"/><path class="cls-10" d="M220.54,121.87s1.92-6,6.51.48c0,0,10.21-6.4,11.18,4.85,0,0,14.78,10.28-2,15.47,0,0-3.33,12.5-15,2.05,0,0-13,4-7.67-6.6,0,0-7.24-7.57-1-10.91C212.51,127.21,213.44,116.11,220.54,121.87Z"/><path class="cls-11" d="M238.23,127.2c-.58-6.68-4.42-7.14-7.44-6.4,3.25,3.38,6.7,9.38-4.91,13,0,0-2.92,11-12.87,3.77.31.37.51.58.51.58-5.3,10.57,7.67,6.6,7.67,6.6,11.68,10.45,15-2.05,15-2.05C253,137.48,238.23,127.2,238.23,127.2Z"/><path class="cls-18" d="M74.52,269.91c-3.4.08-6.74,0,.32-1.78s2-4.86,2-4.86,3.22-1.12,2.62-4.08-4.63,0-4.63,0c-2.51-5.84-5.4,2.07-6.9,2.2-2.08.18,2.17-2.71-.57-4.1s-4.6,7.07-6.71,8.21.53-5.84-3.21-4.64S54.61,274,53.61,271.93s-1.86-6.75-4.12-3a7.92,7.92,0,0,0-.36,6c-5.63-4.6-3.4,5.28-3.4,5.28S44.41,280,49,283s2.84-2.41,2.84-2.41,2.25,5,6.82,3.37-2.32-2.32-.94-5.06,4.1,3.19,9.14,1.92-2.24-4.23-2.56-4.67c-1.43-1.92,3.67-.84,8.44-.79S77.92,269.82,74.52,269.91Z"/><path class="cls-19" d="M76.28,260.86q-2.17,1.8-4.39,3.56l-4.5,3.41c-3,2.24-6.13,4.38-9.26,6.48s-6.38,4.05-9.75,5.83c-1.69.89-3.41,1.73-5.21,2.46a15,15,0,0,1-6.11,1.32l.26-2.78a6.25,6.25,0,0,0,2.36,0,26.6,26.6,0,0,0,2.64-.63,54.27,54.27,0,0,0,5.19-2c3.41-1.53,6.66-3.41,9.92-5.27,6.4-3.92,12.64-8.09,18.76-12.42Z"/><path class="cls-19" d="M72.08,259.37a30.46,30.46,0,0,1-1.13,3.55c-.45,1.15-.92,2.29-1.45,3.41l-.51-.68c.95-.12,1.9-.2,2.86-.26a27.06,27.06,0,0,1,2.89,0,27.06,27.06,0,0,1-2.79.74c-.94.2-1.88.38-2.82.51l-.84.12.34-.8c.48-1.14,1-2.25,1.57-3.35A30.46,30.46,0,0,1,72.08,259.37Z"/><path class="cls-19" d="M65.28,261.46c-.13.76-.31,1.5-.45,2.25l-.48,2.23c-.15.74-.31,1.48-.42,2.22a7,7,0,0,0-.12,2.06l-.18-.27a16.65,16.65,0,0,0,1.67,1,18.08,18.08,0,0,0,1.79.84,13.17,13.17,0,0,0,1.9.57,9,9,0,0,0,2,.17,7.41,7.41,0,0,1-4.14,0,12.16,12.16,0,0,1-2-.73A12.34,12.34,0,0,1,63,270.74l-.15-.1,0-.16A6.57,6.57,0,0,1,63,268c.16-.77.36-1.51.59-2.25s.49-1.46.77-2.17S64.92,262.14,65.28,261.46Z"/><path class="cls-19" d="M57.89,265.09c-.15.75-.33,1.49-.46,2.23s-.29,1.48-.42,2.22a20.59,20.59,0,0,0-.27,2.2,6.1,6.1,0,0,0,.13,2.08l-.21-.27,3.53,2.24L63.73,278a20.83,20.83,0,0,1-2-.72q-1-.41-1.92-.89c-1.26-.63-2.48-1.32-3.68-2.06l-.16-.1-.05-.18a6.48,6.48,0,0,1-.13-2.44,15.38,15.38,0,0,1,.44-2.29,20.9,20.9,0,0,1,1.65-4.28Z"/><path class="cls-19" d="M51.48,271.08a24.51,24.51,0,0,1-.25,3.33c-.16,1.09-.34,2.19-.59,3.26l-.18-.48c1,.76,1.93,1.55,2.87,2.36s1.86,1.64,2.73,2.54c-1.09-.61-2.13-1.28-3.16-2s-2-1.41-3-2.15l-.23-.18.05-.3c.19-1.09.45-2.16.72-3.24A24.51,24.51,0,0,1,51.48,271.08Z"/><path class="cls-18" d="M198.29,87.21c-1.3-3.14-2.46-6.27,1.77-.35s5.26.13,5.26.13,2.21,2.6,4.75,1-1.65-4.33-1.65-4.33c4.55-4.45-3.87-4.3-4.54-5.65-.92-1.88,3.31,1,3.62-2s-8.25-1.74-10.07-3.3,5.64-1.61,3.17-4.66-13.28,2.09-11.73.42,5.63-4.17,1.28-4.91a7.92,7.92,0,0,0-5.73,1.83c2.26-6.91-6.15-1.27-6.15-1.27s-.22-1.33-1.38,4,3.27,1.78,3.27,1.78-3.86,3.9-.68,7.57,1.33-3,4.38-2.7-1.5,5,1.5,9.22,3.14-3.61,3.43-4.07c1.27-2,2.11,3.12,3.78,7.59S199.59,90.35,198.29,87.21Z"/><path class="cls-19" d="M207.37,85.59q-2.46-1.38-4.9-2.81l-4.8-3c-3.18-2-6.29-4.14-9.38-6.31s-6.08-4.49-8.95-7c-1.43-1.25-2.84-2.55-4.17-4a15,15,0,0,1-3.43-5.22l2.69-.76a6.25,6.25,0,0,0,.87,2.19A26.6,26.6,0,0,0,176.84,61a54.27,54.27,0,0,0,3.76,4.11c2.66,2.63,5.58,5,8.49,7.36,6,4.55,12.1,8.87,18.35,13Z"/><path class="cls-19" d="M207.24,81.14a30.47,30.47,0,0,1-3.72.22c-1.24,0-2.47,0-3.7-.12l.45-.72c.45.84.87,1.7,1.27,2.57a27.06,27.06,0,0,1,1.07,2.68,27.06,27.06,0,0,1-1.7-2.34c-.52-.8-1-1.62-1.49-2.45l-.42-.74.87,0c1.23,0,2.46.14,3.69.26A30.46,30.46,0,0,1,207.24,81.14Z"/><path class="cls-19" d="M202.85,75.55c-.76.15-1.51.25-2.26.39l-2.25.36c-.75.13-1.49.24-2.22.41a7,7,0,0,0-2,.63l.18-.27A16.65,16.65,0,0,0,194,79a18.08,18.08,0,0,0-.13,2,13.17,13.17,0,0,0,.16,2,9,9,0,0,0,.56,1.94A7.41,7.41,0,0,1,193.1,81a12.16,12.16,0,0,1,0-2.1,12.34,12.34,0,0,1,.32-2.09l0-.18.14-.09a6.57,6.57,0,0,1,2.37-.78c.77-.13,1.54-.21,2.31-.26s1.54-.07,2.3-.07S202.08,75.47,202.85,75.55Z"/><path class="cls-19" d="M196.79,70c-.75.13-1.51.23-2.25.37s-1.49.26-2.22.41a20.59,20.59,0,0,0-2.15.55,6.1,6.1,0,0,0-1.89.87l.18-.29-.81,4.1-.84,4.11a20.84,20.84,0,0,1,0-2.12q0-1.06.14-2.11c.13-1.4.34-2.79.59-4.18l0-.18.15-.11a6.48,6.48,0,0,1,2.23-1A15.38,15.38,0,0,1,192.2,70a20.9,20.9,0,0,1,4.59,0Z"/><path class="cls-19" d="M188.9,66.15a24.51,24.51,0,0,1-3.2,1c-1.08.24-2.16.47-3.26.63l.38-.34c-.35,1.18-.75,2.36-1.16,3.52s-.86,2.32-1.38,3.46c.17-1.24.43-2.45.7-3.66s.58-2.41.92-3.6l.08-.28.3-.06c1.08-.21,2.18-.36,3.28-.49A24.51,24.51,0,0,1,188.9,66.15Z"/><path class="cls-20" d="M307.07,157.79s-1.89-.86-10.56,4.27c0,0,.63-3.77-11.53-.51,0,0,10.75-8.91-4.84-9.54,0,0,7.88-3.45.69-5.08,0,0,3.46-2.85-2-3.18,0,0,5.85-3.15,6.42-5.26,0,0,3.5,3.31,6.24,1.19s-2.87-7.81-2.87-7.81,5.28-1.41,2.72-5c0,0,3-1.9,2-5,0,0,2.48,2.74,5.52,1.2,0,0,.76,5.43,5.52,2.29,0,0-1,9.94,2.66,7.74a9.08,9.08,0,0,0,3.95-6.55,7.35,7.35,0,0,0,4.77-2.06s.48,8.11,6.57,7.21c0,0-8,13.67,5.93,9.17,0,0-9.54,4.48-6,9.24,0,0-6.51,1.85-2.44,4.51C319.8,154.6,309.94,153.79,307.07,157.79Z"/><path class="cls-21" d="M285.73,142.42a15.55,15.55,0,0,1,3.2.71,26.58,26.58,0,0,1,3.07,1.18,38.22,38.22,0,0,1,5.72,3.26,53,53,0,0,1,5.16,4.08c.82.73,1.59,1.51,2.38,2.27l2.25,2.4.59.63-.89-.14a29.37,29.37,0,0,0-3.79-.23c-1.28,0-2.57,0-3.85,0l-7.72.21c2.56-.27,5.13-.5,7.7-.63,1.29-.06,2.58-.12,3.87-.13a27.54,27.54,0,0,1,3.92.2l-.29.49-2.26-2.35-2.36-2.24a52.41,52.41,0,0,0-5.06-4.09,42.68,42.68,0,0,0-5.55-3.4A24.55,24.55,0,0,0,285.73,142.42Z"/><path class="cls-21" d="M297.22,128.77a66.69,66.69,0,0,1,3.41,6.58c1,2.26,1.89,4.57,2.74,6.89s1.58,4.69,2.29,7.05,1.37,4.75,1.95,7.16H307c1.07-4.44,2.22-8.85,3.59-13.21.69-2.17,1.41-4.34,2.25-6.47.43-1.06.88-2.11,1.39-3.13a12.63,12.63,0,0,1,1.84-2.88,12.56,12.56,0,0,0-1.7,2.94c-.46,1-.86,2.1-1.24,3.18-.77,2.14-1.44,4.31-2.07,6.5-1.25,4.37-2.41,8.78-3.42,13.21L307.3,158,307,156.6c-1.16-4.78-2.54-9.52-4.1-14.19A90.49,90.49,0,0,0,297.22,128.77Z"/><path class="cls-21" d="M323.32,145.15a14.26,14.26,0,0,0-4.5,2,39.25,39.25,0,0,0-4,2.89c-1.28,1-2.51,2.14-3.71,3.28s-2.37,2.29-3.59,3.41h0l.07-.28,4.06,10.3-3.25.83-1.37-11,0-.2.1-.08h0c1.13-1.22,2.33-2.38,3.56-3.49s2.54-2.16,3.87-3.16a39.61,39.61,0,0,1,4.17-2.75A13.61,13.61,0,0,1,323.32,145.15Z"/><path class="cls-22" d="M217.39,42.74s-6.68,8.25-16.28-3c0,0,1.19-2.8,5.05-2.11,0,0-5-2.71-2.38-12.27,0,0,.37.67,2.68,1.29s6.84,3.15,7.75,7c0,0-2.28-3.62,4.12-6.14,0,0-1.64.18.15,2.51S224.81,38.63,217.39,42.74Z"/><path class="cls-23" d="M204.93,27.6a47.13,47.13,0,0,0,3.82,5.73,60.4,60.4,0,0,0,4.49,5.19c.81.8,1.64,1.59,2.49,2.33L217,41.91l.7.56c.24.19.48.39.72.6A14.85,14.85,0,0,1,221.06,46a7.36,7.36,0,0,1,1,2.12,5.68,5.68,0,0,1,0,3l-4.54-1.93a.47.47,0,0,0,.35-.42,2.74,2.74,0,0,0-.08-1.15,9,9,0,0,0-1.32-2.72c-.15-.22-.31-.44-.47-.65l-.53-.65-1.12-1.39c-.73-.92-1.44-1.85-2.12-2.8-1.4-1.86-2.65-3.81-3.87-5.78S206,29.63,204.93,27.6Z"/><path class="cls-24" d="M16.06,259S17.33,233.48,35,232.8c0,0,16.57.81,21.35-6.51a33.44,33.44,0,0,1-6.08,11.82c-2.56,3.09-4.69,9.8-12.87,16.3S22.4,259,16.06,259Z"/><path class="cls-24" d="M126.41,118s4.78-12.49,22.86-14A22.44,22.44,0,0,1,167,110.24a8.25,8.25,0,0,0-5.55,1.19C159.14,113.14,137.42,132.45,126.41,118Z"/><path class="cls-25" d="M151,110.78l.27-.08,6.65-2.22-7.41,2q.72-.8,1.39-1.63a19.74,19.74,0,0,0,1.62-2.35,19.76,19.76,0,0,0-2.17,1.84c-.67.66-1.33,1.34-1.94,2.05l-.42.49h0l-6.74,1.83c.8-1,1.59-1.92,2.35-2.9.45-.58.88-1.16,1.31-1.75s.85-1.19,1.24-1.82c-.55.49-1.06,1-1.59,1.52s-1,1-1.51,1.58c-1,1.07-2,2.17-2.89,3.28l-.41.48h0l-5.56,1.51c.75-.75,1.49-1.51,2.2-2.3q1.34-1.45,2.58-3-1.58,1.21-3.06,2.53c-1,.87-1.95,1.78-2.89,2.69l-.5.48.09,0-3.37.91c1.31-1.71,2.57-3.46,3.72-5.3a74.35,74.35,0,0,0-5.1,5.68l-2.18.59a2.06,2.06,0,0,1,.31.48l1.32-.37.54.22c1.58.64,3.18,1.22,4.78,1.79.81.27,1.61.54,2.43.79s1.63.49,2.47.7c-.75-.41-1.53-.77-2.29-1.15s-1.55-.71-2.33-1.05c-1.39-.59-2.78-1.15-4.19-1.69l4.67-1.29q1.94.76,3.92,1.43,1,.35,2.11.67c.71.19,1.42.42,2.14.58-.65-.36-1.32-.68-2-1s-1.34-.63-2-.92c-.92-.4-1.85-.77-2.78-1.14l5.68-1.57a67.26,67.26,0,0,0,7.58,2.46,62,62,0,0,0-6.17-2.85l6.75-1.87c.66.25,1.33.46,2,.66a17.66,17.66,0,0,0,2.18.49,17.68,17.68,0,0,0-1.95-1.1C151.57,111.05,151.26,110.92,151,110.78Z"/><path class="cls-24" d="M171.44,82.34a13.23,13.23,0,0,0-13.57-4.66c-8.79,2.05-7,4.38-7,4.38s.82-1.61,2.22-.85S167.9,91,171.44,82.34Z"/><path class="cls-25" d="M159,83.52a21.22,21.22,0,0,0,1.75-1.28c.47-.38.93-.78,1.38-1.19,1.33.15,2.53.31,3.59.48-.48.35-1,.71-1.43,1.09l-.94.76c-.3.27-.61.52-.91.8.36-.19.7-.41,1-.61l1-.65c.63-.41,1.24-.85,1.85-1.29.79.13,1.49.26,2.13.39l0,0q-.71.6-1.39,1.23a19.81,19.81,0,0,0-1.45,1.51,19.81,19.81,0,0,0,1.71-1.2q.82-.64,1.59-1.34l.13-.11c1.09.23,1.91.45,2.51.62a1.21,1.21,0,0,1,.1-.38c-.85-.3-2.11-.72-3.26-1l-.47-.5c-.35-.34-.71-.68-1.09-1,.27.42.55.82.85,1.21l.11.14-.34-.07c-.4-.07-.82-.14-1.26-.2a39,39,0,0,0-3.31-2.56c.8.87,1.65,1.68,2.53,2.47-1-.1-2-.16-2.92-.2l.05,0-.25-.15q-.65-.39-1.31-.75c-.45-.24-.9-.46-1.37-.67.39.33.79.64,1.2.94s.63.44.95.65c-2.53-.08-4.64,0-4.64,0,1.58.1,3,.23,4.35.37-.35.31-.7.63-1,1A21.22,21.22,0,0,0,159,83.52Z"/><path class="cls-26" d="M277.45,106.9s17.29,6.75,23.45-13.29c0,0,2.76-10.6,1.67-17.85,0,0-17.68-2.49-25.91,10S277.45,106.9,277.45,106.9Z"/><path class="cls-27" d="M299.6,78.89a34,34,0,0,0-3.39,3.85q-1.61,2-3.16,4.09-3.14,4.11-6.19,8.29l-3.08,4.13c-1,1.42-2,2.82-3.06,4.22s-2.09,2.79-3.22,4.15a30.39,30.39,0,0,1-3.81,3.94l-1.56-2.41a18.16,18.16,0,0,0,4-2.86,50.68,50.68,0,0,0,3.58-3.65c1.12-1.29,2.2-2.64,3.19-4S285,95.85,286,94.48q3.22-4.06,6.51-8.06,1.66-2,3.37-3.93a32.31,32.31,0,0,1,3.65-3.72Z"/><path class="cls-27" d="M296.6,98.72a10.39,10.39,0,0,1-3.27,3.49,15,15,0,0,1-4.41,2,20.36,20.36,0,0,1-4.81.74c-.81,0-1.62,0-2.43,0l-2.41-.24-.29,0-.16-.25a17.85,17.85,0,0,1-2.14-5.08,17.08,17.08,0,0,1-.49-5.44,15.54,15.54,0,0,1,1.27-5.27,18.6,18.6,0,0,1,2.83-4.54l-.64,1.17a9.6,9.6,0,0,0-.62,1.16,17.57,17.57,0,0,0-.94,2.44,16.57,16.57,0,0,0-.84,5.08,17.44,17.44,0,0,0,.65,5.08,18.27,18.27,0,0,0,2,4.67l-.45-.28,2.31.25c.77,0,1.55.07,2.32.08s1.55,0,2.31-.13l1.15-.13,1.13-.22A16.44,16.44,0,0,0,293,101.7,11.27,11.27,0,0,0,296.6,98.72Z"/><path class="cls-27" d="M298.19,93.62a8.09,8.09,0,0,1-2.73,2.72,12.55,12.55,0,0,1-3.62,1.5,18.16,18.16,0,0,1-3.89.52c-.65,0-1.3,0-2,0l-1.94-.18-.28,0-.16-.23a13.41,13.41,0,0,1-1.79-3.8,12,12,0,0,1-.43-4.14,10.61,10.61,0,0,1,1.05-4,13.07,13.07,0,0,1,2.32-3.31c-.32.6-.69,1.14-1,1.73a12,12,0,0,0-.73,1.82,11.17,11.17,0,0,0-.62,3.77,12,12,0,0,0,.6,3.74,12.94,12.94,0,0,0,1.63,3.38l-.44-.26,1.85.21,1.86.08a21.27,21.27,0,0,0,3.68-.28,14.18,14.18,0,0,0,3.53-1.06A8.91,8.91,0,0,0,298.19,93.62Z"/><path class="cls-27" d="M296.62,88.08a5.34,5.34,0,0,1-1.08,2,5.93,5.93,0,0,1-1.81,1.45,6.62,6.62,0,0,1-2.24.69,8.87,8.87,0,0,1-2.34,0l-.34,0-.14-.32a11.5,11.5,0,0,1-.87-3.11,12.5,12.5,0,0,1-.07-3.18,11.81,11.81,0,0,1,.73-3.07A11.07,11.07,0,0,1,290,79.7a23,23,0,0,0-.8,2.93,15.22,15.22,0,0,0-.3,2.94,15.44,15.44,0,0,0,.22,2.91,14.19,14.19,0,0,0,.75,2.77l-.48-.36,1,.12a8,8,0,0,0,1,0,6.68,6.68,0,0,0,2-.38A6.83,6.83,0,0,0,296.62,88.08Z"/><path class="cls-27" d="M298,83.5a3.24,3.24,0,0,1-1.59,1.84,3.62,3.62,0,0,1-1.22.37,4.86,4.86,0,0,1-1.27,0l-.17,0-.07-.16a6.32,6.32,0,0,1-.47-1.69,6.88,6.88,0,0,1,0-1.73,6.54,6.54,0,0,1,1.19-3.17,10.77,10.77,0,0,0-.45,1.59,8.21,8.21,0,0,0-.18,1.61,8.34,8.34,0,0,0,.12,1.6,7.65,7.65,0,0,0,.41,1.52l-.24-.18a5.45,5.45,0,0,0,1.11.07A3.6,3.6,0,0,0,298,83.5Z"/><path class="cls-28" d="M319.21,101l1,.78a12.29,12.29,0,0,1-.43-3.86l1.06.86-.6-3.06.81.65a14.23,14.23,0,0,1-.31-3l1.17.43a9.77,9.77,0,0,1,0-3.11l1,.78a6.48,6.48,0,0,1,.54-3l.56.45a5.85,5.85,0,0,1,.48-4.12,13.76,13.76,0,0,1,3.39,2.59l.1-.71a6.46,6.46,0,0,1,2.42,1.83l.18-1.22a9.75,9.75,0,0,1,2.08,2.32l.57-1.12a14.2,14.2,0,0,1,1.8,2.42l.15-1,1.63,2.66.2-1.35a12.27,12.27,0,0,1,2.3,3.12l.18-1.22a5.35,5.35,0,0,1,1.09,3.58l1.28-.91a10.19,10.19,0,0,1,.09,3.73l1.06-.54c.42,1.68-.56,4.25-.56,4.25l1.19-.79c.57,1.63-.67,4.5-.67,4.5l1-.21a27.62,27.62,0,0,1-2.75,4.58l1,.11c-4,3.72-2.6,6.67-2.6,6.67l-.28-.1v.07s-6.45,0-9.76-1.68l.69-.79a27.51,27.51,0,0,1-5.12-1.5l.91-.55s-2.85-1.28-3.54-2.86l1.41-.23s-2.47-1.22-3.29-2.74l1.14-.32a10.17,10.17,0,0,1-2.46-2.8l1.55-.2A5.34,5.34,0,0,1,319.21,101Z"/><path class="cls-29" d="M326.6,88.92s9.63,29.76,17.64,33.27c0,0-.08,1.2-1.42.73C337.59,121.08,326.64,90.89,326.6,88.92Z"/><path class="cls-29" d="M328.89,90.44a13.24,13.24,0,0,1-.61,2.62l-.11.33-.33-.15a15.09,15.09,0,0,1-3.31-2,15.09,15.09,0,0,1,3.59,1.39l-.44.18A13.24,13.24,0,0,1,328.89,90.44Z"/><path class="cls-29" d="M331.28,90.7a43.8,43.8,0,0,1-1.81,5.58l-.13.34-.32-.17a42.94,42.94,0,0,1-4.83-2.8,42.94,42.94,0,0,1,5.13,2.21l-.45.18A43.8,43.8,0,0,1,331.28,90.7Z"/><path class="cls-29" d="M333.86,91c-.39,1.56-.87,3.1-1.35,4.63-.24.77-.51,1.52-.76,2.28s-.5,1.52-.78,2.28l-.13.34-.32-.16c-1.29-.64-2.59-1.25-3.87-1.92s-2.55-1.34-3.8-2.07c1.36.5,2.68,1.06,4,1.63s2.62,1.19,3.93,1.78l-.45.19c.25-.76.54-1.51.81-2.26s.54-1.51.84-2.26C332.6,93.94,333.19,92.44,333.86,91Z"/><path class="cls-29" d="M337,94.85c-.78,1.55-1.63,3.05-2.49,4.55l-1.32,2.23c-.45.74-.87,1.49-1.34,2.22l-.15.24-.25-.11c-1.38-.62-2.78-1.19-4.14-1.85s-2.74-1.29-4.08-2c1.44.47,2.86,1,4.27,1.55s2.8,1.13,4.21,1.7l-.4.13c.44-.75.91-1.46,1.37-2.2l1.39-2.19C335,97.68,336,96.24,337,94.85Z"/><path class="cls-29" d="M338.3,97.15c-.61,1.79-1.28,3.55-2,5.31s-1.42,3.49-2.12,5.24l-.12.3-.3-.12L331,106.79c-.92-.37-1.86-.72-2.77-1.11-1.84-.76-3.67-1.53-5.48-2.37,1.91.58,3.79,1.23,5.67,1.89.94.32,1.87.68,2.8,1l2.8,1-.42.18c.76-1.73,1.48-3.47,2.27-5.18S337.44,98.83,338.3,97.15Z"/><path class="cls-29" d="M340.44,101.11c-.71,1.65-1.5,3.27-2.29,4.88l-1.23,2.4c-.42.79-.81,1.6-1.25,2.39l-.12.22-.23-.06c-1.53-.38-3.07-.71-4.59-1.12s-3-.81-4.56-1.28c1.56.22,3.12.5,4.66.8s3.08.64,4.63,1l-.36.16c.4-.8.85-1.58,1.28-2.37l1.3-2.36C338.57,104.19,339.47,102.63,340.44,101.11Z"/><path class="cls-29" d="M341.63,105.34c-.74,1.52-1.55,3-2.37,4.46L338,112c-.43.72-.84,1.46-1.29,2.17l-.12.19-.21,0c-1.39-.29-2.78-.54-4.16-.87s-2.76-.64-4.13-1c1.42.14,2.82.34,4.22.55s2.8.47,4.19.71l-.33.15c.42-.73.87-1.44,1.31-2.16l1.33-2.14C339.72,108.12,340.63,106.71,341.63,105.34Z"/><path class="cls-30" d="M262.93,44.14a19.84,19.84,0,0,1-7.06,7.23,23.87,23.87,0,0,1-2.29,1.23,11.86,11.86,0,0,1-2.49.75,12.26,12.26,0,0,1-5.14-.1v-.13c1.68-.36,3.28-.56,4.83-1.05a23.94,23.94,0,0,0,4.56-1.62,19.57,19.57,0,0,0,4.08-2.73,20,20,0,0,0,3.38-3.64Z"/><path class="cls-31" d="M287.59,26.93s-1.15,4.8.19,13.69-13,30.24-25.59,19.22c0,0-5.86-5.6-2-12.14,0,0-14.66-2.44-7.57-15.14s18.3-9.84,22.4-7.63S287.59,26.93,287.59,26.93Z"/><path class="cls-32" d="M261.54,46.33a11.4,11.4,0,0,1-2.6,1.08c.75.21,1.24.29,1.24.29-3.86,6.54,2,12.14,2,12.14,12.63,11,26.93-10.32,25.59-19.22s-.19-13.69-.19-13.69h-.52A45.45,45.45,0,0,1,270.14,41C267.42,42.93,264.52,44.63,261.54,46.33Z"/><path class="cls-33" d="M80.27,154.64c.62,0,11.24,21,30.57,17.22,0,0-4.68-9.67-15.55-12.65-6-1.65-13.75-4.65-6.25-4.93s26.53-1.12,39-21.7c0,0-16,.24-42.61,17,3.69-4.19,12.05-6.31,17.53-24.26s4.7-23.84,4.7-23.84-22.78,21-27.57,44.88c-2-22.22-13.89-47-13.89-47s-4.44,26.39,4.6,40.84l5.69,8.53s-8.63-5-15.61-5.92a89.23,89.23,0,0,0-13.1-.74S58.79,156.34,80.27,154.64Z"/><path class="cls-34" d="M102,168.23q-1.75-.6-3.43-1.35c-1.12-.51-2.21-1.06-3.3-1.62l-1.59-.92c-.54-.29-1-.66-1.54-1a17.75,17.75,0,0,1-1.49-1.06c-.48-.37-1-.73-1.45-1.11-.91-.81-1.86-1.57-2.7-2.45-.42-.43-.89-.83-1.28-1.29L84,156.07c-.58-.65-1.09-1.37-1.6-2.07,3.06-.92,6.09-1.89,9.07-3,1.65-.63,3.31-1.22,5-1.89l4.9-2c.83-.31,1.6-.75,2.4-1.12l2.39-1.16c.79-.39,1.6-.76,2.38-1.17l2.32-1.3,2.3-1.31a19,19,0,0,0,2.24-1.42c1.45-1,2.89-2,4.31-3.08-1.54.88-3.05,1.77-4.56,2.67a18.74,18.74,0,0,1-2.32,1.23l-2.36,1.16-2.35,1.17c-.79.37-1.61.7-2.41,1-1.62.68-3.22,1.39-4.84,2l-4.89,1.93c-1.63.64-3.3,1.2-4.94,1.8s-3.33,1.11-5,1.7c-1,.34-2,.65-3,1l2-3,1.58-2.43c.54-.8,1-1.65,1.49-2.48l2.89-5c1-1.66,1.79-3.42,2.66-5.13s1.71-3.45,2.47-5.22,1.61-3.5,2.29-5.3,1.41-3.58,2-5.41,1.23-3.65,1.73-5.5c-.66,1.81-1.38,3.58-2.12,5.35s-1.55,3.51-2.34,5.25-1.65,3.46-2.48,5.18-1.72,3.42-2.65,5.09-1.78,3.39-2.76,5l-2.93,4.93c-.49.82-1,1.66-1.5,2.44l-1.59,2.38L81.3,152c-.59-1.2-1.17-2.43-1.71-3.66-.76-1.63-1.38-3.33-2.08-5s-1.26-3.38-1.89-5.07-1.19-3.41-1.77-5.12-1.19-3.41-1.66-5.16l-1.52-5.21c-.57-1.72-.93-3.49-1.41-5.24l-1.39-5.26,1,5.35c.37,1.78.62,3.58,1.08,5.34l1.31,5.29c.41,1.77,1,3.5,1.47,5.25s1,3.5,1.63,5.21,1.17,3.44,1.84,5.14,1.29,3.41,2,5.07c.57,1.35,1.18,2.69,1.82,4-.66-.29-1.57-.63-2.66-1s-2.52-.83-4-1.23c-.75-.15-1.5-.41-2.28-.61l-2.36-.64c-1.57-.45-3.16-.88-4.63-1.32l-4-1.26c-1.18-.35-2.16-.67-2.84-.9l-1.07-.36-.06.15,1,.46c.65.3,1.6.71,2.74,1.17l3.9,1.6c1.44.56,3,1.09,4.54,1.66s3.07,1.21,4.57,1.63c1.2.3,5.67,1.54,7.43,2-1.76,3.37-7,12.59-12.83,14.57,0,0,0,2.38,2.67,1.61C72,170,78.9,159.9,81.4,155a24.14,24.14,0,0,0,1.52,2l1.27,1.4c.42.47.9.88,1.35,1.32a18.83,18.83,0,0,0,1.4,1.27l1.48,1.17c.5.38,1,.72,1.55,1.08a18.47,18.47,0,0,0,1.59,1c.54.31,1.06.66,1.63.94l1.67.86a36.14,36.14,0,0,0,3.46,1.44,32.34,32.34,0,0,0,7.23,1.76A35.58,35.58,0,0,1,102,168.23Z"/><path class="cls-35" d="M216.46,100.66l-1.59-1S226,88.29,227.24,86.62c0,0-1.29-5.85,1.48-9.71l1.6-.47.24-3.11,3-2.75.43,1.47.7-2.53,2.65-2.81.51,1.73,1-3,2.27-.67.21.72,2.34-2.86-1,5.37L244,67.2l-2.12,4.92,1.42-.42-1.71,5.48-1.64.34,1.53.78-2.71,4.06-2.44.57,1.48,1.59a33.51,33.51,0,0,1-9.9,2.78Z"/></svg>