<?xml version="1.0" encoding="utf-8"?>
<!-- Generator: Adobe Illustrator 21.1.0, SVG Export Plug-In . SVG Version: 6.00 Build 0)  -->
<svg version="1.1" id="Слой_1" xmlns="http://www.w3.org/2000/svg" xmlns:xlink="http://www.w3.org/1999/xlink" x="0px" y="0px"
	 viewBox="0 0 700 595.3" style="enable-background:new 0 0 700 595.3;" xml:space="preserve">
<style type="text/css">
	.st0{fill:#A9DCF2;}
	.st1{clip-path:url(#SVGID_2_);}
	.st2{fill:#D5EDF7;}
	.st3{fill:#02A2CE;}
	.st4{fill:#3F2514;}
	.st5{fill:#020303;}
	.st6{fill:#696D78;}
	.st7{fill:#9A9999;}
	.st8{fill:#BCBCBB;}
	.st9{fill:#E5E5E4;}
	.st10{fill:#7D4D37;}
	.st11{fill:#6F330E;}
	.st12{fill:#A14F17;}
	.st13{fill:#D38143;}
	.st14{fill:#8D989A;}
	.st15{fill:#ECEDF1;}
	.st16{fill:#2C2A2D;}
	.st17{fill:#D8D8D8;}
	.st18{fill:#6C360E;}
	.st19{fill:#13707D;}
	.st20{fill:#D1EBF3;}
	.st21{fill:#91BDC5;}
	.st22{fill:#B3DEE5;}
	.st23{fill:#D8DADF;}
	.st24{fill:#5A8F96;}
	.st25{fill:#FFFFFF;}
	.st26{fill:#E73928;}
	.st27{fill:#BC281B;}
	.st28{fill:#8E8E8E;}
	.st29{fill:#646464;}
	.st30{fill:none;stroke:#1F1E1E;stroke-width:3.02;stroke-linecap:round;stroke-miterlimit:10;}
	.st31{fill:#9B1915;}
</style>
<title>Монтажная область 1</title>
<g>
	<g id="Слой_1_1_">
		<circle class="st0" cx="348.2" cy="295.1" r="280.2"/>
		<g>
			<defs>
				<circle id="SVGID_1_" cx="348.2" cy="295.1" r="280.2"/>
			</defs>
			<clipPath id="SVGID_2_">
				<use xlink:href="#SVGID_1_"  style="overflow:visible;"/>
			</clipPath>
			<g class="st1">
				<path class="st2" d="M415.9,281.1c-3.6-5.6-10.7-6.5-13.4-6.9c-2.6-0.3-5.2-0.3-7.8,0.1c0.1-0.6,0.3-1.1,0.4-1.7
					c0.1-0.8,2.3-13.8-4.7-19.5s-17.3,0.1-22.3,3.5c-0.5-3.1-1.5-6.1-3-8.9c-6.1-11-18.6-6.9-24.3,5.4c-1,2.1-1.7,4.3-2.3,6.6
					c-1.2-0.6-2.5-1.1-3.8-1.5c-10.3-2.9-21.1,2.1-23,10.3c-1.4,6.2,2.8,13,8.9,17.6c-1.8,1.7-3.4,3.6-4.7,5.8
					c-0.6,1.1-5.9,10-2,16.5c4.5,7.6,18.6,7.8,27.1,2.1l0.5-0.4c-2.2,5.1-3.9,12-1.3,18.6c3,7.6,11.1,11.9,19.1,10.1
					c5.5-1.4,9.9-6.3,12.5-12.5c3.5,4,7.5,7.4,12.4,7.6c6.8,0.3,12.4-5.3,13.6-11.7c1-5.1-0.7-10.7-3.9-15.7l0,0
					c4,0.9,9.8,2.2,15.2-1C417.1,300.8,420.7,288.5,415.9,281.1z"/>
				<path class="st2" d="M564.4,64.8c-3.6-5.7-10.7-6.5-13.4-6.9c-2.6-0.3-5.2-0.3-7.8,0.1c0.1-0.6,0.3-1.1,0.4-1.7
					c0.1-0.8,2.3-13.8-4.7-19.5s-17.3,0.1-22.3,3.5c-0.5-3.1-1.5-6.1-3-8.9c-6.1-11-18.6-6.9-24.3,5.4c-0.9,2.1-1.7,4.3-2.3,6.6
					c-1.2-0.6-2.5-1.1-3.8-1.5c-10.3-2.9-21.1,2.1-23,10.3c-1.4,6.2,2.8,13,8.9,17.6c-1.8,1.7-3.4,3.6-4.7,5.8
					c-0.6,1.1-5.9,10-2,16.5c4.5,7.6,18.6,7.8,27.1,2.1l0.5-0.3c-2.2,5.1-3.9,12-1.3,18.6c3,7.6,11.1,11.9,19.1,10.1
					c5.5-1.4,9.9-6.3,12.5-12.4c3.5,4,7.5,7.4,12.4,7.6c6.8,0.3,12.4-5.3,13.6-11.7c1-5.1-0.7-10.7-3.9-15.7l0,0
					c4,0.9,9.8,2.2,15.2-1C565.6,84.5,569.2,72.3,564.4,64.8z"/>
				<path class="st2" d="M586.5,284c-2.8-4.4-7.5-6.1-11-7c1.3-2.4,2.1-5,2.3-7.7c0.8-10.4-7.5-18.4-15.5-20.4
					c-5.6-1.4-11.6,0-17,3.2c-0.6-2.1-1.4-4.2-2.4-6.1c-6.7-12.1-20.4-7.6-26.7,5.9c-0.3,0.6-0.6,1.3-0.9,2
					c-1.4-0.7-2.8-1.2-4.3-1.6c-13-3.7-26.8,2.7-29.1,13c-1.8,7.9,3.5,16.5,11.3,22.3c-3.2,2.5-5.9,5.6-8,9.1
					c-0.8,1.4-7.6,12.8-2.6,21.2s19,9.7,29.8,5.4c0.2,2.7,1,5.4,2.3,7.8c4.2,8,13.6,11.6,22.1,8.7c4.5-1.7,7.9-5.5,10.3-10.4
					c3,2.7,6.3,4.7,10.3,4.9c7.4,0.4,13.6-5.8,15-12.9c0.5-2.8,0.4-5.7-0.4-8.4c2.5-0.2,4.9-0.9,7.1-2.1
					C587.8,305.6,591.7,292.2,586.5,284z"/>
				<path class="st2" d="M316.5,180.9c-1.7-2.5-4.4-4.1-7.3-4.6c0.9-1.6,1.4-3.3,1.5-5.1c0.5-6.9-5-12.3-10.4-13.6
					c-3.8-1-7.8,0-11.4,2.1c-0.4-1.4-0.9-2.8-1.6-4.1c-4.5-8.1-13.6-5.1-17.8,4c-0.2,0.4-0.4,0.9-0.6,1.3c-0.9-0.4-1.9-0.8-2.9-1.1
					c-8.7-2.5-17.9,1.8-19.4,8.7c-1.2,5.3,2.4,11,7.6,14.9c-2.1,1.7-3.9,3.7-5.3,6c-0.6,0.9-5.1,8.6-1.7,14.2s12.7,6.5,19.9,3.6
					c0.2,1.8,0.7,3.6,1.5,5.2c2.8,5.3,9.1,7.8,14.8,5.8c3-1.1,5.3-3.7,6.9-6.9c1.8,1.9,4.3,3,6.9,3.3c5,0.2,9.1-3.9,10-8.6
					c0.3-1.9,0.2-3.8-0.3-5.6c1.7-0.1,3.3-0.6,4.7-1.4C317.4,195.4,320,186.4,316.5,180.9z"/>
				<path class="st2" d="M262.2,52.7c-1.7-2.5-4.4-4.1-7.3-4.6c0.9-1.6,1.4-3.3,1.5-5.1c0.5-6.9-5-12.3-10.4-13.6
					c-3.8-1-7.8,0-11.4,2.1c-0.4-1.4-0.9-2.8-1.6-4.1c-4.5-8.1-13.6-5.1-17.8,4c-0.2,0.4-0.4,0.9-0.6,1.3c-0.9-0.4-1.9-0.8-2.9-1.1
					c-8.7-2.5-17.9,1.8-19.4,8.7c-1.2,5.3,2.4,11,7.6,14.9c-2.1,1.7-3.9,3.7-5.3,6.1c-0.6,0.9-5.1,8.5-1.7,14.2s12.7,6.5,19.9,3.6
					c0.2,1.8,0.7,3.6,1.5,5.2c2.8,5.3,9.1,7.8,14.8,5.8c3-1.1,5.3-3.7,6.9-6.9c1.8,1.9,4.3,3,6.9,3.3c5,0.2,9.1-3.9,10-8.6
					c0.3-1.9,0.2-3.8-0.3-5.6c1.7-0.1,3.3-0.6,4.7-1.4C263.1,67.2,265.7,58.2,262.2,52.7z"/>
				<path class="st2" d="M507.8,189.6c-1.8-6.1-7.7-8.9-10-9.9c-2.7-1.2-5.5-2-8.4-2.3c0.3-0.8,0.4-1.6,0.6-2.5
					c0.1-0.6,1.5-10.4-4.6-14.9s-15.2-0.3-19.3,2.1c-0.5-0.7-1-1.4-1.6-2c-6.6-6.7-20-4.2-26.2,3.3c-0.5,0.7-1,1.3-1.5,2.1
					c-1.5-0.4-3.1-0.5-4.6-0.3c-6.5,1-11.4,7.6-10.5,13.7c0.6,4.1,3.7,7.3,7.5,8.9c-0.5,0.9-1,1.9-1.4,2.9c-0.3,0.9-3,8.1,0.6,12.4
					c2.6,3.1,7.6,3.6,12.3,2.4c-0.6,1.6-0.7,3.3-0.6,4.9c0.8,7.2,8.3,12.1,14.7,13c4.3,0.5,8.7-0.5,12.3-3c3,3.5,6.5,6.6,11.3,6.5
					c5.8-0.2,10.9-4.9,12.4-10c0.6-2.3,0.6-4.8-0.1-7.1c1.8,0.4,3.7,0.4,5.5-0.1C504.3,207.6,510.2,197.6,507.8,189.6z"/>
				<path class="st2" d="M166.4,118.9c-1.8-6.1-7.7-8.8-10-9.9c-2.7-1.2-5.5-2-8.4-2.3c0.2-0.8,0.4-1.6,0.6-2.5
					c0.1-0.6,1.5-10.4-4.6-14.9s-15.2-0.3-19.3,2.1c-0.5-0.7-1-1.4-1.6-2c-6.6-6.7-20-4.2-26.2,3.3c-0.5,0.7-1,1.3-1.5,2.1
					c-1.5-0.4-3.1-0.5-4.6-0.3c-6.5,1-11.4,7.6-10.5,13.7c0.6,4.1,3.7,7.3,7.5,8.9c-0.5,0.9-1,1.9-1.4,2.9
					c-0.3,0.9-3.1,8.1,0.7,12.4c2.6,3.1,7.6,3.6,12.3,2.4c-0.6,1.6-0.7,3.3-0.6,4.9c0.8,7.2,8.3,12.1,14.7,13
					c4.3,0.5,8.7-0.5,12.3-3c3,3.5,6.5,6.6,11.3,6.5c5.8-0.2,10.9-4.9,12.4-10c0.6-2.3,0.6-4.8-0.1-7.1c1.8,0.4,3.7,0.4,5.5-0.1
					C162.9,137,168.8,126.9,166.4,118.9z"/>
				<path class="st2" d="M120.2,308.4c-1.8-6.1-7.7-8.9-10-9.9c-2.7-1.2-5.5-2-8.4-2.3c0.3-0.8,0.4-1.6,0.6-2.5
					c0.1-0.6,1.5-10.4-4.6-14.9s-15.2-0.3-19.3,2.1c-0.4-0.7-1-1.4-1.5-2c-6.6-6.7-20-4.2-26.2,3.3c-0.5,0.7-1,1.3-1.5,2.1
					c-1.5-0.4-3.1-0.5-4.6-0.3c-6.5,1-11.4,7.6-10.5,13.7c0.6,4.1,3.7,7.3,7.5,8.9c-0.5,0.9-1,1.9-1.4,2.9c-0.3,0.9-3,8.1,0.7,12.4
					c2.6,3.1,7.6,3.6,12.3,2.4c-0.6,1.6-0.7,3.3-0.6,4.9c0.8,7.2,8.3,12.1,14.7,13c4.3,0.5,8.7-0.5,12.3-3c3,3.5,6.5,6.6,11.3,6.5
					c5.8-0.2,10.9-4.9,12.4-10c0.6-2.3,0.6-4.8-0.1-7.1c1.8,0.4,3.7,0.4,5.5-0.1C116.7,326.5,122.6,316.4,120.2,308.4z"/>
				<path class="st2" d="M223.5,221.4c-1.8-6.1-7.7-8.9-10-9.9c-2.7-1.2-5.5-2-8.4-2.3c0.3-0.8,0.4-1.6,0.6-2.5
					c0.1-0.6,1.5-10.4-4.6-14.9s-15.2-0.3-19.3,2.1c-0.5-0.7-1-1.4-1.6-2c-6.6-6.7-20-4.2-26.2,3.3c-0.5,0.7-1,1.3-1.5,2.1
					c-1.5-0.4-3.1-0.5-4.6-0.3c-6.5,1-11.4,7.6-10.5,13.7c0.6,4.1,3.7,7.3,7.5,8.9c-0.5,0.9-1,1.9-1.4,2.9
					c-0.3,0.9-3.1,8.1,0.6,12.4c2.6,3.1,7.6,3.6,12.3,2.4c-0.6,1.6-0.7,3.3-0.6,4.9c0.8,7.2,8.3,12.1,14.7,13
					c4.3,0.5,8.7-0.5,12.3-3c3,3.5,6.5,6.6,11.3,6.5c5.8-0.2,10.9-4.9,12.4-10c0.6-2.3,0.6-4.8-0.1-7.1c1.8,0.4,3.7,0.4,5.5-0.1
					C219.9,239.5,225.9,229.5,223.5,221.4z"/>
				<path class="st2" d="M648.5,182.6c-1.8-6.1-7.7-8.9-10-9.9c-2.7-1.2-5.5-2-8.4-2.3c0.3-0.8,0.4-1.6,0.6-2.5
					c0.1-0.6,1.5-10.4-4.6-14.9s-15.2-0.3-19.3,2.1c-0.5-0.7-1-1.4-1.6-2c-6.6-6.7-20-4.2-26.2,3.3c-0.5,0.7-1,1.3-1.5,2.1
					c-1.5-0.4-3.1-0.5-4.6-0.3c-6.5,1-11.4,7.6-10.5,13.7c0.6,4.1,3.7,7.3,7.5,8.9c-0.5,0.9-1,1.9-1.4,2.9c-0.3,0.9-3,8.1,0.7,12.4
					c2.6,3.1,7.6,3.6,12.3,2.4c-0.6,1.6-0.7,3.3-0.6,4.9c0.8,7.2,8.3,12.1,14.7,13c4.3,0.5,8.7-0.5,12.3-3c3,3.5,6.5,6.6,11.3,6.5
					c5.8-0.2,10.9-4.9,12.4-10c0.6-2.3,0.6-4.8-0.1-7.1c1.8,0.4,3.7,0.4,5.5-0.1C644.9,200.7,650.9,190.7,648.5,182.6z"/>
			</g>
		</g>
		<ellipse class="st3" cx="348.2" cy="545" rx="288.5" ry="40"/>
		<path class="st4" d="M275.5,397.1c-112.8-6.3-166.9-15.7-166.9-15.7l-15.3,1.2c-10.4,2.4-8.2,21.8-8.2,21.8l-22.2,2.8
			c0,0,0-8.6-4.2-13.3c-3.8-4.3-11.9-7-13.2-7.4l-15,1.2l0,0c0.1,0.2,18.5,33.4,111.8,40.2c93.5,6.8,199.6-18.9,264.3-30.8
			c24.1-4.4,66-10.9,109.3-17.2C431.8,390.4,332.6,400.3,275.5,397.1z"/>
		
			<rect x="36.7" y="136.1" transform="matrix(0.5392 -0.8422 0.8422 0.5392 -81.4604 124.0752)" class="st5" width="71.8" height="0.8"/>
		
			<rect x="113.4" y="104.2" transform="matrix(0.5979 -0.8016 0.8016 0.5979 -57.2631 142.8465)" class="st5" width="0.8" height="48.6"/>
		
			<rect x="-72.4" y="305.7" transform="matrix(7.497878e-02 -0.9972 0.9972 7.497878e-02 -234.2491 359.7752)" class="st5" width="298.4" height="1"/>
		
			<rect x="142.4" y="147.6" transform="matrix(0.9662 -0.2576 0.2576 0.9662 -70.0016 46.6068)" class="st5" width="1" height="285.5"/>
		<path class="st6" d="M86.6,97.9l2.9,32.8l7.1,79.1l8.5,95.4l7.4,82.5c1.2,13.4,2.2,26.8,3.6,40.1c0,0.2,0,0.4,0.1,0.6
			c0.5,6,9.9,6,9.4,0l-2.9-32.8l-7.1-79.1l-8.5-95.4l-7.4-82.5c-1.2-13.4-2.2-26.8-3.6-40.1c0-0.2,0-0.4-0.1-0.6
			C95.4,91.9,86,91.9,86.6,97.9L86.6,97.9z"/>
		<path class="st7" d="M48.8,172.8l81.9-22.1l11.6-3.1c5.8-1.6,3.4-10.6-2.5-9.1l-81.9,22.2l-11.6,3.1
			C40.5,165.4,42.9,174.4,48.8,172.8L48.8,172.8z"/>
		<path class="st7" d="M22.6,236l49.5-13.4l78.9-21.3l18.1-4.9c7.3-2,4.2-13.3-3.1-11.4l-49.5,13.4l-78.9,21.3l-18.1,4.9
			C12.2,226.7,15.3,238,22.6,236L22.6,236z"/>
		<rect x="199" y="198.8" class="st6" width="25.3" height="49.9"/>
		<path class="st8" d="M388.4,396.5l-1.4-83.2l-146,2v122.4c40.7,2,123.5,2.6,143,0.4c1.8-0.2,4.3-0.5,5.3-0.7L388.4,396.5z"/>
		<path class="st9" d="M124.5,313.5l2.2,92.8l0.8,27.5c4.4,0.7,100,3.4,113.6,3.9V315.3L124.5,313.5z"/>
		
			<rect x="215.7" y="323.1" transform="matrix(0.9997 -2.460666e-02 2.460666e-02 0.9997 -8.3214 5.6224)" class="st10" width="17.3" height="35.7"/>
		
			<rect x="218.5" y="327.2" transform="matrix(0.9997 -2.460666e-02 2.460666e-02 0.9997 -8.3214 5.6223)" class="st4" width="11.6" height="27.5"/>
		
			<rect x="189" y="323.8" transform="matrix(0.9997 -2.460666e-02 2.460666e-02 0.9997 -8.3456 4.9665)" class="st10" width="17.3" height="35.7"/>
		
			<rect x="191.8" y="327.9" transform="matrix(0.9997 -2.460666e-02 2.460666e-02 0.9997 -8.3456 4.9663)" class="st4" width="11.6" height="27.5"/>
		
			<rect x="159.7" y="323.1" transform="matrix(0.9997 -2.460666e-02 2.460666e-02 0.9997 -8.3385 4.2461)" class="st10" width="17.3" height="35.7"/>
		
			<rect x="162.5" y="327.2" transform="matrix(0.9997 -2.460666e-02 2.460666e-02 0.9997 -8.3385 4.2457)" class="st4" width="11.6" height="27.5"/>
		
			<rect x="133.1" y="323.8" transform="matrix(0.9997 -2.460666e-02 2.460666e-02 0.9997 -8.3625 3.5899)" class="st10" width="17.3" height="35.7"/>
		
			<rect x="135.9" y="327.9" transform="matrix(0.9997 -2.460666e-02 2.460666e-02 0.9997 -8.3625 3.5898)" class="st4" width="11.6" height="27.5"/>
		<polygon class="st10" points="271.6,357.7 244.8,358.2 244.1,322.6 270.9,322 		"/>
		<polygon class="st4" points="267.8,353.7 248.4,354 247.9,326.6 267.3,326.2 		"/>
		<polygon class="st10" points="309.6,357.7 282.8,358.2 282.1,322.6 308.9,322 		"/>
		<polygon class="st4" points="305.8,353.7 286.4,354 285.9,326.6 305.3,326.2 		"/>
		<polygon class="st10" points="347.6,356.6 320.8,357.1 320.1,321.5 346.9,320.9 		"/>
		<polygon class="st4" points="343.8,352.6 324.4,352.9 323.9,325.4 343.3,325.1 		"/>
		<polygon class="st10" points="382.8,356.6 356,357.1 355.3,321.5 382.1,320.9 		"/>
		<polygon class="st4" points="379,352.6 359.6,352.9 359.1,325.4 378.5,325.1 		"/>
		<polygon class="st9" points="124.2,313.5 240.5,315.3 386.8,313.3 285.9,309.7 		"/>
		<polygon class="st11" points="395.3,297.2 239.5,298.5 239.5,316 395.9,315.2 		"/>
		<polygon class="st12" points="115.7,297.4 116.4,314.9 239.5,316 239.5,298.5 		"/>
		<polygon class="st13" points="115.7,297.4 239.5,298.5 395.2,297.2 287.8,295 		"/>
		<polygon class="st8" points="238.7,296.9 149.8,296.9 149.8,247.4 238.7,245.9 		"/>
		<polygon class="st14" points="327.6,296.9 238.7,296.9 238.7,245.9 327.6,247.4 		"/>
		<path class="st15" d="M194.4,261.4c-4.2,0.1-7.5,4.4-7.4,9.5s3.6,9.3,7.9,9.2s7.5-4.4,7.4-9.5S198.6,261.3,194.4,261.4z
			 M194.7,275.5c-2.2,0-4-2.1-4.1-4.7s1.6-4.9,3.8-4.9s4,2.1,4.1,4.7S196.9,275.5,194.7,275.5L194.7,275.5z"/>
		
			<ellipse transform="matrix(0.9997 -2.460666e-02 2.460666e-02 0.9997 -6.6021 4.8707)" class="st16" cx="194.6" cy="270.7" rx="3.9" ry="4.8"/>
		<g>
			<path class="st17" d="M191.8,274.1c-0.7-0.9-1.1-2.1-1.1-3.3c-0.1-2.7,1.6-4.9,3.8-4.9c0.7,0,1.5,0.2,2.1,0.7
				c-0.7-0.9-1.8-1.5-2.9-1.5c-2.2,0-3.9,2.3-3.8,4.9C189.8,271.6,190.5,273.1,191.8,274.1z"/>
			<path class="st17" d="M198.8,263c1.7,1.9,2.6,4.3,2.6,6.8c0.1,5.2-3.2,9.4-7.4,9.5c-1.6,0-3.2-0.5-4.4-1.6
				c1.3,1.5,3.2,2.4,5.3,2.4c4.2-0.1,7.5-4.4,7.4-9.5C202.2,267.7,201,264.9,198.8,263z"/>
		</g>
		<path class="st15" d="M172,258c-5.6,0.1-10.1,5.9-9.9,12.8s4.9,12.4,10.5,12.3s10.1-5.9,9.9-12.8S177.6,257.9,172,258z M172.5,277
			c-2.9,0.1-5.4-2.8-5.4-6.3s2.2-6.5,5.1-6.6s5.4,2.8,5.4,6.3S175.4,276.9,172.5,277L172.5,277z"/>
		
			<ellipse transform="matrix(0.9997 -2.460666e-02 2.460666e-02 0.9997 -6.6039 4.3212)" class="st16" cx="172.3" cy="270.5" rx="5.3" ry="6.5"/>
		<path class="st17" d="M177.9,260.2c2.2,2.5,3.5,5.7,3.5,9.1c0.2,6.9-4.3,12.6-9.9,12.8c-2.2,0-4.3-0.7-6-2.2c1.8,2,4.3,3.2,7,3.2
			c5.6-0.1,10.1-5.9,9.9-12.8C182.4,266.4,180.8,262.7,177.9,260.2z"/>
		<path class="st15" d="M216.6,258c-5.6,0.1-10.1,5.9-9.9,12.8s4.9,12.4,10.5,12.3s10.1-5.9,9.9-12.8S222.3,257.9,216.6,258z
			 M217.1,277c-2.9,0.1-5.4-2.8-5.4-6.3s2.2-6.5,5.1-6.6s5.4,2.8,5.4,6.3S220,276.9,217.1,277z"/>
		
			<ellipse transform="matrix(0.9997 -2.460666e-02 2.460666e-02 0.9997 -6.5904 5.4201)" class="st16" cx="216.9" cy="270.5" rx="5.3" ry="6.5"/>
		<path class="st17" d="M222.6,260.2c2.2,2.5,3.5,5.7,3.5,9.1c0.2,6.9-4.3,12.6-9.9,12.8c-2.2,0-4.3-0.7-6-2.2c1.8,2,4.3,3.2,7,3.2
			c5.6-0.1,10.1-5.9,9.9-12.8C227.1,266.4,225.5,262.7,222.6,260.2z"/>
		<path class="st18" d="M665.1,358.7c0,0-76.4,10.5-149.4,21.2c-43.2,6.4-85.1,12.8-109.2,17.2c-20,3.7-43.9,8.7-70.2,13.6
			c-0.3,0.1-0.3,0.1-0.6,0.2C126.2,452.9,60,429,16.2,390.3l0,0h-0.3l2,7.3l3.3,3.7c0,0-0.1,0-0.1,0c28.8,27.2,60,53.7,221.3,35
			c136.1-15.9,354.1-54.6,419.2-66.3c12.1-2.2,18.5-3.4,18.5-3.4v-10.2L665.1,358.7z"/>
		<path class="st12" d="M335.8,410.9l0.7-0.2c-58.8,11.1-129.5,21.9-194.1,17.2c-93.3-6.8-111.5-40-111.6-40.2l-14.5,2.6l0,0
			C60,429,126.2,452.9,335.8,410.9z"/>
		<path class="st12" d="M396.2,387.7l-27.5,7.2l-107.1,28l0,0c0,0,73.5-7,116.4-12.5s303.1-54,303.1-54L396.2,387.7z"/>
		<path class="st19" d="M550.5,529.6c-13.3-0.2-54-0.5-156.3-0.5c-132.8,0-233.9,10.6-352.1-61.5c10.6,9.7,27.4,22.9,54,40.7
			c70.5,47,235.8,36,235.8,36s13.1,7.5,35,15C458,572.5,509.2,567,550.5,529.6z"/>
		<path class="st19" d="M483.2,572.6c31.5-3.8,59.1-16,83.6-36.8l-16.3-6.2c-41.3,37.4-92.5,42.9-183.6,29.7
			C394.6,568.8,436.3,578.3,483.2,572.6z"/>
		<path class="st20" d="M566.8,535.8c38.8-33,69.6-87.8,95.3-165.8l-16.9,3l0,0c-35.3,76.9-61.8,126.9-94.6,156.6L566.8,535.8z"/>
		<path class="st21" d="M286.1,499.8C429.7,477,558.1,444.4,619,428c3.6-7.2,7.3-14.6,11-22.5c-451.6,87-584.5,90.1-614,10.7
			c-0.2,1.7-0.3,3.5-0.3,5.5c-0.1,6,1.2,11.9,3.8,17.3l4.4,6.7C24,445.7,86.3,531.5,286.1,499.8z"/>
		<path class="st22" d="M630,405.5c4.9-10.3,10-21.1,15.2-32.5c-80.2,14.3-276.7,48.6-402.8,63.3c-161.3,18.8-192.5-7.7-221.3-35
			c-0.5,0.4-4.2,4.2-5.2,14.9C45.5,495.5,178.4,492.5,630,405.5z"/>
		<path class="st23" d="M19.6,439c1.1,2.4,2.6,4.7,4.4,6.7L19.6,439z"/>
		<path class="st24" d="M24,445.7c0,0,0.6,6.1,18.1,22c118.3,72,219.3,61.5,352.1,61.5c102.3,0,143,0.3,156.3,0.5
			c24.2-22,45-55,68.5-101.7c-60.9,16.5-189.3,49-332.9,71.8C86.3,531.5,24,445.7,24,445.7z"/>
		<g>
			<path class="st8" d="M530.7,416.5L530.7,416.5l1.4-1.1c-2.1-3.8-4.7-7.3-7.8-10.3l-1.4,1.1c-12.7-12-31.6-14.5-47-6.3l0,0
				l-1.1-1.4c-3.8,2.1-7.3,4.7-10.3,7.8l1.1,1.4c-12,12.7-14.5,31.6-6.3,47l0,0l-1.4,1c2.1,3.8,4.7,7.3,7.8,10.3l1.4-1.1
				c12.7,12,31.6,14.5,47,6.3l0,0l1.1,1.4c3.8-2.1,7.3-4.7,10.3-7.8l-1.1-1.4C536.5,450.8,539,431.8,530.7,416.5L530.7,416.5z
				 M518.7,439c-0.6,4-2.1,7.8-4.5,11c-0.3,0.4-0.6,0.7-0.9,1.1l-0.2,0.3c-0.3,0.4-0.6,0.7-0.9,1l-0.1,0.1c-0.4,0.4-0.7,0.7-1.1,1
				l-0.3,0.2c-0.3,0.3-0.6,0.5-0.9,0.8l-0.2,0.2c-0.4,0.3-0.8,0.6-1.2,0.9l-0.2,0.1c-0.3,0.2-0.7,0.4-1,0.6l-0.3,0.2
				c-0.4,0.2-0.9,0.5-1.3,0.7h-0.1c-0.4,0.2-0.8,0.4-1.3,0.6c-7.8,3.2-16.7,2.1-23.4-3c-0.4-0.3-0.7-0.6-1.1-0.9l-0.3-0.2
				c-0.4-0.3-0.7-0.6-1-0.9l-0.1-0.1c-0.4-0.4-0.7-0.7-1-1.1l-0.2-0.3c-0.3-0.3-0.5-0.6-0.8-1l-0.2-0.2c-0.3-0.4-0.6-0.8-0.9-1.2
				l-0.1-0.2c-0.2-0.3-0.4-0.7-0.6-1l-0.2-0.3c-0.2-0.4-0.5-0.9-0.7-1.3V446c-0.2-0.4-0.4-0.8-0.6-1.3c-3.2-7.8-2.1-16.7,3-23.4
				c0.3-0.4,0.6-0.7,0.9-1.1l0.2-0.3c0.3-0.4,0.6-0.7,0.9-1l0.1-0.1c0.4-0.4,0.7-0.7,1.1-1l0.3-0.2c0.3-0.3,0.6-0.5,1-0.8l0.2-0.2
				c0.4-0.3,0.8-0.6,1.2-0.9l0.2-0.1c0.3-0.2,0.7-0.4,1-0.6l0.3-0.2c0.4-0.2,0.9-0.5,1.3-0.7h0.1c0.4-0.2,0.8-0.4,1.3-0.6
				c7.8-3.2,16.7-2.1,23.4,3c0.4,0.3,0.7,0.6,1.1,0.9l0.3,0.2c0.4,0.3,0.7,0.6,1,0.9l0.1,0.1c0.4,0.4,0.7,0.7,1,1.1l0.2,0.3
				c0.3,0.3,0.5,0.6,0.8,1l0.2,0.2c0.3,0.4,0.6,0.8,0.9,1.2l0.2,0.2c0.2,0.3,0.4,0.7,0.7,1l0.2,0.3c0.2,0.4,0.5,0.9,0.7,1.3v0.1
				c0.2,0.4,0.4,0.8,0.6,1.3C518.8,430.5,519.3,434.8,518.7,439z"/>
			<path class="st8" d="M433.5,431.7L433.5,431.7l1.4-1.1c-2.1-3.8-4.7-7.3-7.9-10.3l-1.4,1.1c-12.7-12-31.6-14.5-47-6.3l0,0
				l-1.1-1.4c-3.8,2.1-7.3,4.7-10.3,7.8l1.1,1.4c-12,12.7-14.5,31.6-6.3,47l0,0l-1.4,1.1c2.1,3.8,4.7,7.3,7.8,10.3l1.4-1.1
				c12.7,12,31.6,14.5,47,6.3l0,0l1.1,1.4c3.8-2.1,7.3-4.7,10.3-7.8l-1.1-1.4C439.2,466,441.7,447.1,433.5,431.7L433.5,431.7z
				 M421.5,454.1c-0.6,4-2.1,7.8-4.5,11c-0.3,0.4-0.6,0.7-0.9,1.1l-0.2,0.3c-0.3,0.4-0.6,0.7-0.9,1l-0.1,0.1c-0.4,0.4-0.7,0.7-1.1,1
				l-0.3,0.2c-0.3,0.3-0.6,0.5-1,0.8l-0.2,0.2c-0.4,0.3-0.8,0.6-1.2,0.9l-0.2,0.1c-0.3,0.2-0.7,0.4-1,0.6l-0.3,0.2
				c-0.4,0.2-0.9,0.5-1.3,0.7h-0.1c-0.4,0.2-0.8,0.4-1.3,0.6c-7.8,3.2-16.7,2.1-23.4-3c-0.4-0.3-0.7-0.6-1.1-0.9l-0.3-0.2
				c-0.4-0.3-0.7-0.6-1-0.9l-0.1-0.1c-0.4-0.4-0.7-0.7-1-1.1l-0.2-0.3c-0.3-0.3-0.5-0.6-0.8-1l-0.2-0.2c-0.3-0.4-0.6-0.8-0.9-1.2
				l-0.1-0.2c-0.2-0.3-0.4-0.7-0.6-1l-0.2-0.3c-0.2-0.4-0.5-0.9-0.7-1.3v-0.1c-0.2-0.4-0.4-0.8-0.6-1.3c-3.2-7.8-2.1-16.7,3-23.4
				c0.3-0.4,0.6-0.7,0.9-1.1l0.2-0.3c0.3-0.4,0.6-0.7,0.9-1l0.1-0.1c0.4-0.4,0.7-0.7,1.1-1l0.3-0.2c0.3-0.3,0.6-0.5,1-0.8l0.2-0.2
				c0.4-0.3,0.8-0.6,1.2-0.9l0.2-0.1c0.3-0.2,0.7-0.4,1-0.6l0.3-0.2c0.4-0.2,0.9-0.5,1.3-0.7h0.1c0.4-0.2,0.8-0.4,1.3-0.6
				c7.8-3.2,16.7-2.1,23.4,3c0.4,0.3,0.7,0.6,1.1,0.9l0.3,0.2c0.4,0.3,0.7,0.6,1,0.9l0.1,0.1c0.4,0.4,0.7,0.7,1,1.1l0.2,0.3
				c0.3,0.3,0.5,0.6,0.8,1l0.2,0.2c0.3,0.4,0.6,0.8,0.9,1.2l0.1,0.2c0.2,0.3,0.4,0.7,0.6,1l0.2,0.3c0.2,0.4,0.5,0.9,0.7,1.3v0.1
				c0.2,0.4,0.4,0.8,0.6,1.3C421.5,445.7,422,450,421.5,454.1L421.5,454.1z"/>
		</g>
		<path id="_Составной_контур_" class="st25" d="M500.4,390.5c-22.1-3.1-42.6,12.4-45.7,34.5s12.4,42.6,34.5,45.7
			s42.6-12.4,45.7-34.5c0,0,0,0,0,0C538,414,522.6,393.6,500.4,390.5z M491.5,454.2c-13-1.8-22.1-13.9-20.3-26.9
			c1.8-13,13.9-22.1,26.9-20.3c13,1.8,22.1,13.9,20.3,26.9C516.6,446.9,504.6,456,491.5,454.2C491.5,454.2,491.5,454.2,491.5,454.2z
			"/>
		<g id="_Группа_">
			<path id="_Контур_" class="st26" d="M522.6,401.2L509,411.4c3.5,2.6,6.2,6.2,7.9,10.2l13.5-10.2
				C528.4,407.6,525.8,404.1,522.6,401.2z"/>
			<path id="_Контур_2" class="st26" d="M475.7,416.3c2.6-3.5,6.2-6.2,10.2-7.9l-10.2-13.5c-3.8,2.1-7.3,4.7-10.3,7.8
				L475.7,416.3z"/>
			<path id="_Контур_3" class="st26" d="M514,444.8c-2.6,3.5-6.2,6.2-10.2,7.9l10.2,13.5c3.8-2.1,7.3-4.7,10.3-7.8L514,444.8z
				"/>
			<path id="_Контур_4" class="st26" d="M472.7,439.5l-13.5,10.2c2.1,3.8,4.7,7.3,7.9,10.3l13.6-10.3
				C477.1,447.1,474.3,443.6,472.7,439.5z"/>
		</g>
		<path id="_Контур_5" class="st27" d="M465.4,402.8c3-3.1,6.4-5.8,10.3-7.8l-1.1-1.5c-3.8,2.1-7.3,4.7-10.3,7.8l10.3,13.6
			l0,0L465.4,402.8z"/>
		<path id="_Контур_6" class="st27" d="M467,460c-3.1-3-5.8-6.4-7.8-10.3l-1.5,1.1c2.1,3.8,4.7,7.3,7.8,10.3l13.6-10.3l0,0
			L467,460z"/>
		<path id="_Контур_7" class="st27" d="M524.2,458.4c-3,3.1-6.4,5.8-10.2,7.8l1.1,1.5c3.8-2.1,7.3-4.7,10.3-7.8L515,446.2l0,0
			L524.2,458.4z"/>
		<path id="_Контур_8" class="st27" d="M522.6,401.2c3.1,3,5.8,6.4,7.8,10.3l1.5-1.1c-2.1-3.8-4.7-7.3-7.8-10.3l-13.6,10.3
			l0,0L522.6,401.2z"/>
		<path id="_Составной_контур_2" class="st25" d="M403.1,405.7c-22.1-3.1-42.6,12.4-45.7,34.5
			c-3.1,22.1,12.4,42.6,34.5,45.7c22.1,3.1,42.6-12.4,45.7-34.5c0,0,0,0,0,0C440.7,429.2,425.3,408.8,403.1,405.7z M394.2,469.4
			c-13-1.8-22.1-13.9-20.3-26.9c1.8-13,13.9-22.1,26.9-20.3c13,1.8,22.1,13.9,20.3,26.9C419.3,462.1,407.3,471.2,394.2,469.4
			C394.2,469.4,394.2,469.4,394.2,469.4L394.2,469.4z"/>
		<g id="_Группа_2">
			<path id="_Контур_9" class="st26" d="M425.4,416.4l-13.6,10.3c3.5,2.6,6.2,6.2,7.9,10.2l13.5-10.2
				C431.1,422.8,428.5,419.3,425.4,416.4z"/>
			<path id="_Контур_10" class="st26" d="M378.4,431.5c2.6-3.5,6.2-6.2,10.2-7.9l-10.2-13.5c-3.8,2.1-7.3,4.7-10.3,7.8
				L378.4,431.5z"/>
			<path id="_Контур_11" class="st26" d="M416.7,460c-2.6,3.5-6.2,6.2-10.2,7.9l10.2,13.5c3.8-2.1,7.3-4.7,10.3-7.8L416.7,460
				z"/>
			<path id="_Контур_12" class="st26" d="M375.4,454.7l-13.5,10.2c2.1,3.8,4.7,7.3,7.8,10.3l13.6-10.3
				C379.8,462.3,377.1,458.8,375.4,454.7z"/>
		</g>
		<path id="_Контур_13" class="st27" d="M368.1,418c3-3.1,6.4-5.8,10.3-7.8l-1.1-1.5c-3.8,2-7.3,4.7-10.3,7.8l10.3,13.6l0,0
			L368.1,418z"/>
		<path id="_Контур_14" class="st27" d="M369.7,475.2c-3.1-3-5.8-6.4-7.8-10.3l-1.5,1.1c2.1,3.8,4.7,7.3,7.8,10.3l13.6-10.3
			l0,0L369.7,475.2z"/>
		<path id="_Контур_15" class="st27" d="M426.9,473.6c-3,3.1-6.4,5.8-10.3,7.8l1.1,1.5c3.8-2.1,7.3-4.7,10.2-7.9l-10.3-13.6
			l0,0L426.9,473.6z"/>
		<path id="_Контур_16" class="st27" d="M425.3,416.4c3.1,3,5.8,6.4,7.8,10.3l1.5-1.1c-2.1-3.8-4.7-7.3-7.8-10.3l-13.6,10.3
			l0,0L425.3,416.4z"/>
		<path id="_Составной_контур_3" class="st28" d="M653.1,427.5c0,0,0.3,1.7-0.7,6.1c-0.8,2.8-2.2,5.4-4.3,7.5
			c-0.3,0.3-0.4,0.4-0.4,0.4c1.1-0.3,2.3-0.4,3.4-0.4c-1.8,2.5-4.2,4.4-7,5.8c-9.7,4.9-13.5,0-14.5-5.5c-0.6-3.2-0.5-19.6-0.4-32.8
			c1.5-1.8,3.7-2.8,6-2.9h7.2v0.4c0,0.2,0.2,0.4,0.3,0.4h0.9c0.2,0,0.3-0.1,0.3-0.2c1.2,1.5,3.4,1.8,5,0.6c1.5-1.2,1.8-3.4,0.6-5
			c-1.2-1.5-3.4-1.8-5-0.6c-0.2,0.2-0.4,0.4-0.6,0.6c0-0.1-0.2-0.2-0.3-0.2h-0.9c-0.2,0-0.3,0.2-0.3,0.4v0.6h-13.2
			c0-2.3,0.1-4.4,0.1-6.2h0.1c0.4,0,0.6-0.3,0.6-0.6l0,0c4.7-1.9,7-7.3,5.1-12c-1.9-4.7-7.3-7-12-5.1s-7,7.3-5.1,12
			c0.9,2.3,2.8,4.2,5.1,5.1l0,0c0,0.4,0.3,0.6,0.6,0.6h0.1c0,1.7,0.1,3.8,0.1,6.2h-13.2V402c0-0.2-0.2-0.4-0.3-0.4h-0.9
			c-0.2,0-0.3,0.1-0.3,0.2c-1.2-1.5-3.4-1.8-5-0.6c-1.5,1.2-1.8,3.4-0.6,5c1.2,1.5,3.4,1.8,5,0.6c0.2-0.2,0.4-0.4,0.6-0.6
			c0,0.1,0.2,0.2,0.3,0.2h0.9c0.2,0,0.3-0.2,0.3-0.4v-0.4h7.3c2.3,0,4.5,1.1,6,2.9c0.1,13.2,0.2,29.6-0.4,32.8
			c-1,5.5-4.8,10.4-14.5,5.5c-2.8-1.3-5.2-3.3-7-5.8c1.1,0,2.3,0.1,3.4,0.4c0,0-0.2-0.1-0.4-0.4c-2-2.1-3.5-4.7-4.3-7.5
			c-1-4.4-0.7-6.1-0.7-6.1c-8.6,11.5-3.4,18.4-3.4,18.4c0.4-1.2,1-2.3,1.8-3.3c0.3,3.6,2,6.9,4.9,9.1c7.6,5.6,17.5,5.8,23.1,14.5
			c5.6-8.7,15.5-8.9,23.1-14.5c2.8-2.2,4.6-5.5,4.9-9.1c0.8,1,1.4,2.1,1.8,3.3C656.5,445.9,661.7,439,653.1,427.5z M626.7,388.8
			l-2.8,2.5c0,0,0,0.8,0,2.3h-0.1c-3.5-1.6-5.1-5.7-3.5-9.3c1.6-3.5,5.7-5.1,9.3-3.5c3.5,1.6,5.1,5.7,3.5,9.3
			c-0.7,1.6-1.9,2.8-3.5,3.5h-0.1c0-1.4,0-2.3,0-2.3L626.7,388.8z"/>
		<path class="st29" d="M656.5,442.4c-0.4-1.2-1-2.3-1.8-3.3c-0.3,3.6-2.1,6.9-4.9,9.1c-7.6,5.6-17.5,5.8-23.1,14.5
			c-5.6-8.7-15.5-8.9-23.1-14.5c-2.8-2.2-4.6-5.5-4.9-9.1c-0.8,1-1.4,2.1-1.8,3.3c-0.8-1.2-1.3-2.6-1.4-4.1
			c-0.6,4.9,1.4,7.6,1.4,7.6c0.4-1.2,1-2.3,1.8-3.3c0.3,3.6,2,6.9,4.9,9.1c7.6,5.6,17.5,5.8,23.1,14.5c5.6-8.7,15.5-8.9,23.1-14.5
			c2.8-2.2,4.6-5.5,4.9-9.1c0.8,1,1.4,2.1,1.8,3.3c0,0,2-2.7,1.4-7.6C657.7,439.7,657.3,441.1,656.5,442.4z"/>
		<circle class="st25" cx="626.7" cy="386.5" r="7"/>
		<circle class="st5" cx="626.7" cy="386.5" r="4.5"/>
		<path class="st3" d="M67,536c-4.8,2.9-7.3,5.9-7.3,9c0,22.1,129.2,40,288.5,40s288.5-18,288.5-40c0-3.1-2.5-6.1-7.3-9
			c-89.7-4.7-183.9-7.2-281.2-7.2S156.7,531.3,67,536z"/>
		<path class="st30" d="M223.7,456.8v-16.7c0-4.6,2.3-9,6.1-11.7l3.5-2.5"/>
		<circle class="st31" cx="224.3" cy="464.9" r="18"/>
		<path class="st30" d="M176.8,459.2v-16.7c0-4.6,2.3-9,6.1-11.7l3.5-2.5"/>
		<circle class="st31" cx="177.4" cy="467.3" r="18"/>
	</g>
</g>
</svg>
