<svg xmlns="http://www.w3.org/2000/svg" xmlns:xlink="http://www.w3.org/1999/xlink" width="920" height="916" viewBox="0 0 690 687"><defs><clipPath id="b" transform="translate(-79 60)"><path fill="none" d="M53-2h732v597H53z"/></clipPath><radialGradient id="c" cx="277" cy="310" r="589" gradientUnits="userSpaceOnUse"><stop offset="0" stop-color="#d3ebe1"/><stop offset="0" stop-color="#a7dfdd"/><stop offset="1" stop-color="#60cbd7"/><stop offset="1" stop-color="#44c3d5"/></radialGradient><linearGradient id="d" x1="525" y1="360" x2="82" y2="360" gradientUnits="userSpaceOnUse"><stop offset="0" stop-color="#fff"/><stop offset="1" stop-color="#e3bf96"/></linearGradient><radialGradient id="e" cx="422" cy="367" r="382" gradientUnits="userSpaceOnUse"><stop offset="0" stop-color="#2ec3e5"/><stop offset="0" stop-color="#30b5df"/><stop offset="1" stop-color="#3791ce"/><stop offset="1" stop-color="#3790ce"/></radialGradient><linearGradient id="a" x1="302" y1="251" x2="364" y2="334" gradientTransform="rotate(51 332 291)" gradientUnits="userSpaceOnUse"><stop offset="0" stop-color="#f15842"/><stop offset="0" stop-color="#ee4a3b"/><stop offset="1" stop-color="#e72628"/><stop offset="1" stop-color="#e62126"/></linearGradient><linearGradient id="f" x1="302" y1="251" x2="364" y2="334" gradientTransform="rotate(51 332 291)" xlink:href="#a"/><linearGradient id="g" x1="274" y1="271" x2="336" y2="355" xlink:href="#a"/><linearGradient id="h" x1="330" y1="230" x2="392" y2="313" xlink:href="#a"/><radialGradient id="i" cx="645" cy="63" r="331" gradientUnits="userSpaceOnUse"><stop offset="0" stop-color="#f8ed33"/><stop offset="0" stop-color="#f8ed4a"/><stop offset="1" stop-color="#f8ec69"/></radialGradient><linearGradient id="j" x1="464" y1="460" x2="508" y2="460" xlink:href="#a"/><linearGradient id="k" x1="361" y1="460" x2="405" y2="460" xlink:href="#a"/></defs><g clip-path="url(#b)"><path fill="#b3d334" d="M1 140v145h687V140H1z"/><path fill="url(#c)" d="M1 0h687v140H1z"/><path d="M20 83h276c7 0 13-10-11-16-30-7-84 19-127-3-11-6-24-26-53-26-46 0-48 32-48 32s-25-19-40 4c-2 3-2 9 3 9zM676 43H458c-8 0-15-5 13-11 38-9 32 17 94-9 49-21 62 6 62 6s17-17 44 4c2 2 11 10 5 10z" fill="#fff"/><path d="M74 243c6-1 22-3 20-11-3-9-29-12-36-15-10-6-41-15-24-28s44-7 63-3a106 106 0 0 0 48-1c9-2 16-7 24-12 48-27 139-27 177-24 13 1 26 4 40 4 28 0 61 5 86 17 10 5 15 10 20 20 4 9 5 18 14 25 12 9 30 7 44 9a200 200 0 0 0 41 0c17-2 36-8 54-14 16-5 29-8 43-7v-63H1v107c25 1 50 1 73-4z" fill="#b9d534"/><path fill="#3a999b" d="M607 131h13v103h-13z"/><path d="M1 567c2 2-1 3 0 4h687V254c-79-62-194-92-331-92-154 0-271 41-356 115z" fill="#fff"/><path d="M688 634V360a475 475 0 0 0-331-111C203 249 70 297 1 383v251z" fill="#ffdeb3"/><path d="M688 634V389a476 476 0 0 0-331-115C203 274 70 327 1 413v221z" fill="#57bf9a"/><path d="M3 414l-3-3c34-42 85-77 147-102 62-24 135-37 210-37 68 0 132 11 190 31 57 20 106 49 143 85l-3 2c-36-35-85-64-141-83a578 578 0 0 0-398 6C87 337 36 372 3 414z" fill="#45bda4"/><path d="M533 531V196a668 668 0 0 0-97-7c-154 0-287 48-356 134v208z" transform="translate(-79 60)" fill="url(#d)" style="mix-blend-mode:multiply"/><path d="M80 627h687V386a472 472 0 0 0-328-126c-153 0-290 67-359 153z" transform="translate(-79 60)" fill="url(#e)"/><path d="M212 510c-17-7-40-11-63-11s-46 4-63 11c-18 8-28 19-28 32s10 24 28 32c17 7 39 11 63 11s46-4 63-11c18-8 28-20 28-32s-10-24-28-32zm-63 69c-23 0-45-4-61-12-16-7-24-16-24-25s8-19 24-26 38-11 61-11 44 4 60 11 25 16 25 26-9 18-25 25c-16 8-37 12-60 12z" fill="#4bc5d8"/><path d="M149 582c-24 0-46-4-62-11-17-8-26-18-26-29s9-21 26-29c16-7 38-11 62-11s45 4 61 11c17 8 27 18 27 29s-10 21-27 29c-16 7-38 11-61 11z" fill="#1d86b1"/><path d="M49 542c0-11 8-21 22-28-18 6-30 17-30 28s12 21 30 28c-14-8-22-17-22-28zM264 542c0-8-6-16-17-22 14 5 24 13 24 22s-10 16-24 22c11-6 17-14 17-22z" fill="#4bc5d8"/><path d="M31 542c0-7 5-14 11-19-9 5-15 11-15 19s6 14 15 18c-6-5-11-11-11-18zM248 541c0-7-4-13-11-18 10 4 15 11 15 18s-5 15-15 19c7-5 11-12 11-19z" fill="#4bc5d8"/><path d="M150 563c-43 0-71-21-78-42-1 3-9 11-9 14 0 25 38 45 86 45s86-20 86-45c0-2-10-14-11-16-9 20-33 44-74 44z" fill="#a11d53"/><path d="M275 371c-6-3-15-4-23-4s-17 1-23 4c-7 3-11 7-11 12s4 8 11 11c6 3 14 5 23 5s17-2 23-5c7-3 10-7 10-11s-3-9-10-12zm-23 25c-9 0-17-1-22-4-6-3-9-6-9-9s3-7 9-10c5-2 13-4 22-4s16 2 22 4c6 3 9 6 9 10s-3 6-9 9-14 4-22 4z" fill="#4bc5d8"/><path d="M252 397c-9 0-17-1-23-4s-10-6-10-10 4-8 10-11 14-4 23-4 16 1 22 4c7 3 10 7 10 11s-3 7-10 10c-6 3-14 4-22 4z" fill="#1d86b1"/><path d="M215 383c0-4 3-8 8-11-7 3-11 6-11 11s4 7 11 10c-5-3-8-7-8-10zM294 383c0-3-2-6-6-8 5 1 9 4 9 8s-4 6-9 8c4-3 6-5 6-8z" fill="#4bc5d8"/><path d="M209 383c0-3 1-5 4-7-4 1-6 4-6 7s2 5 6 6c-3-1-4-4-4-6zM288 382c0-2-1-5-4-6 4 1 6 4 6 6s-2 6-6 7c3-2 4-4 4-7z" fill="#4bc5d8"/><path d="M397 597c-10-2-25-4-42-4s-31 2-42 4c-13 4-20 9-20 16s7 13 20 16c11 3 26 4 42 4 17 0 31-1 42-4 14-3 20-9 20-16s-6-12-20-16zm-42 31c-32 0-56-6-56-15 0-8 23-14 56-14s57 6 57 14c0 9-24 15-57 15z" fill="#7acfde"/><path d="M355 631c-16 0-31-2-41-5-12-3-18-7-18-13 0-12 31-17 59-17s60 5 60 17c0 6-7 10-18 13s-26 5-42 5z" fill="#1d86b1"/><path d="M415 601c5 4 8 8 8 12s-3 8-8 12c9-3 14-7 14-12s-5-9-14-12zM429 605c3 3 5 5 5 8s-2 5-5 8c5-2 8-5 8-8s-3-6-8-8zM285 614c0-6 6-11 16-15-14 4-23 9-23 15s8 11 22 15c-9-4-15-9-15-15zM407 613c-1-1-4 0-3 1 4 6-13 9-19 9-2 0-2 2 0 2 8 0 27-4 22-12zM315 620a16 16 0 0 1-5-2c-2-1-3 2-1 3a18 18 0 0 0 6 1 1 1 0 0 0 0-2zM607 520c-14-4-32-6-54-6s-39 2-53 6c-17 4-26 11-26 20s9 15 26 20c13 4 32 6 53 6s40-2 53-6c18-4 26-11 26-20s-8-16-25-20zm-54 38c-41 0-72-8-72-18 0-11 30-18 72-18s72 7 72 18c0 10-30 18-72 18z" fill="#7acfde"/><path d="M553 562c-20 0-39-2-52-5-15-4-23-10-23-17 0-16 39-22 75-22s76 6 76 22c0 7-8 13-23 17-13 3-32 5-53 5z" fill="#1d86b1"/><path d="M630 525c6 4 10 9 10 15s-4 10-10 15c10-4 17-10 17-15s-7-11-17-15zM647 530c4 3 6 6 6 10s-2 6-6 9c7-2 11-6 11-9s-4-8-11-10zM464 541c0-7 7-14 20-19-18 4-30 11-30 19 0 7 12 14 29 18-12-5-19-11-19-18zM619 539c-1-1-4 0-3 2 5 8-18 11-25 11-2 0-2 3 0 3 10 0 34-5 28-16zM502 548a20 20 0 0 1-7-2c-2-1-3 2-1 3a23 23 0 0 0 8 3c2 0 3-4 0-4z" fill="#7acfde"/><path d="M1 468v50a467 467 0 0 1 687-23v-50a481 481 0 0 0-331-126C203 319 70 383 1 468z" fill="#45bda4" style="mix-blend-mode:multiply"/><path fill="#3a999b" d="M545 172l4-9 67 30-4 9z"/><path d="M511 542c8 0 21-6 29-6 5 1 17 6 22 6 7 1 21-7 28-6 8 1 17 7 25 8a9 9 0 0 0 2 0v-7a22 22 0 0 0-23-22l-75-5a22 22 0 0 0-22 23v3c5 3 10 6 14 6z" fill="#8f3c2a"/><path d="M528 488l4 24 1 12s1 7 18 5c15-2 14-9 14-9l-1-13-3-24z" fill="#8f3c2a"/><path d="M563 499c0 3-6 12-14 13s-18-5-18-8 6-7 15-8 16 0 17 3z" fill="#571e14"/><path d="M497 432l2 45c2 22 27 30 44 29h7c17-1 41-11 40-33l-3-46z" fill="#8f3c2a"/><path d="M498 457l-2-33c-1-21 23-33 40-34h7c17-1 42 6 44 28l2 33s-1-19-17-18c-9 0-12 8-28 9-16 0-19-6-31-6-17 1-15 21-15 21z" fill="#231f20"/><path d="M516 468a2 2 0 0 1-2-3 11 11 0 0 1 21-1 2 2 0 1 1-5 0 6 6 0 0 0-6-5 6 6 0 0 0-6 6 2 2 0 0 1-2 3zM555 465a2 2 0 0 1-2-3 11 11 0 0 1 21-1 2 2 0 1 1-5 0 6 6 0 0 0-6-5 6 6 0 0 0-6 6 2 2 0 0 1-2 3zM564 477l-38 2c3 11 11 16 20 16 10-1 18-8 18-20v2z" fill="#231f20"/><path d="M525 474v2l1 1v2l38-2v-2-1-1-1z" fill="#fff"/><path d="M546 495a18 18 0 0 0 15-10c-2-2-12-1-15 5-4-6-14-5-17-3a18 18 0 0 0 17 8z" fill="#ec2227"/><g><path d="M507 466a9 9 0 0 1-9 10 9 9 0 0 1-9-9l-1-7a9 9 0 0 1 9-10 9 9 0 0 1 9 9zM581 462a9 9 0 0 0 10 8 9 9 0 0 0 8-9v-8a9 9 0 0 0-10-8 9 9 0 0 0-8 9z" fill="#8f3c2a"/><path d="M498 459a4 4 0 0 0-4 4v2a4 4 0 0 0 5 3zM590 453a4 4 0 0 0-2 1l1 9a4 4 0 0 0 4-3v-3a4 4 0 0 0-3-4z" fill="#571e14"/></g><g fill="#231f20"><circle cx="619" cy="330" r="6" transform="rotate(-3 1630 1739)"/><circle cx="605" cy="332" r="6" transform="rotate(-3 1618 1743)"/><circle cx="591" cy="337" r="6" transform="rotate(-3 1603 1747)"/><circle cx="580" cy="347" r="6" transform="rotate(-3 1593 1757)"/><circle cx="575" cy="361" r="6" transform="rotate(-3 1590 1774)"/><circle cx="576" cy="375" r="6" transform="rotate(-3 1588 1785)"/><circle cx="632" cy="331" r="6" transform="rotate(-3 1644 1740)"/><circle cx="647" cy="334" r="6" transform="rotate(-3 1661 1747)"/><circle cx="658" cy="342" r="6" transform="rotate(-3 1671 1752)"/><circle cx="665" cy="355" r="6" transform="rotate(-3 1677 1765)"/><circle cx="666" cy="370" r="6" transform="rotate(-3 1679 1780)"/></g><g><path d="M590 428h-4l-1-9h5a4 4 0 0 1 4 4c0 5-4 5-4 5zM495 432h4v-9h-5a4 4 0 0 0-4 5c1 5 5 4 5 4z" fill="#f8ed33"/><ellipse cx="596" cy="366" rx="19" ry="15" transform="rotate(-2 1957 2234)" fill="#f5f6f6"/><ellipse cx="596" cy="366" rx="16" ry="11" transform="rotate(-2 1957 2234)" fill="#01a79d"/><path d="M530 426s-5 7-12 7-13-6-13-6 5-7 12-7 13 6 13 6z" fill="#36416e"/><ellipse cx="646" cy="364" rx="19" ry="15" transform="rotate(-2 2006 2230)" fill="#f5f6f6"/><ellipse cx="646" cy="364" rx="16" ry="11" transform="rotate(-2 2007 2232)" fill="#01a79d"/><path d="M580 424s-6 7-13 7-12-6-12-6 5-7 12-7 13 6 13 6z" fill="#36416e"/><path fill="#f8ed33" d="M531 423l22-1v6l-22 1z"/><path fill="#01a79d" d="M534 421h5v10h-5zM545 420h5v10h-5z"/></g><g><circle cx="332" cy="291" r="41" transform="rotate(-51 355 404)" fill="url(#a)"/><ellipse cx="332" cy="291" rx="41" ry="29" transform="rotate(-51 355 404)" fill="#fef6fa"/><ellipse cx="332" cy="291" rx="41" ry="10" transform="rotate(-51 355 404)" fill="url(#f)"/><path d="M293 305a41 41 0 0 0 32 27 41 41 0 0 0-32-27z" transform="translate(-79 60)" fill="url(#g)"/><path d="M370 275a41 41 0 0 0-31-25 41 41 0 0 0 31 25z" transform="translate(-79 60)" fill="url(#h)"/></g><path d="M414 200c-75 132-72 189-72 189h13s38-102 97-176c60-75 107-95 107-95l5-58-5-2s-94 52-145 142zm136-90a84 84 0 0 0-19 9c-4-35 19-44 19-44z" fill="#faef60"/><path d="M419 202c-74 131-72 189-72 189h14s38-103 97-176c60-76 106-95 106-95V60s-93 51-145 142zm136-90a84 84 0 0 0-19 9c-3-35 19-44 19-44z" fill="#ed4288"/><path d="M645 58c-39 14-83 49-128 104-63 77-81 169-81 169h106s-2-52 44-147c37-75 118-122 118-122z" transform="translate(-79 60)" fill="url(#i)"/><path d="M249 448c15 0 20-11 29-11 8 1 20 13 29 13 12 1 36-13 48-11l21 10s-9-19-28-18c-11 0-31 13-41 12-8 0-20-13-28-14-7 0-20 12-27 12-8 0-17-11-25-12a24 24 0 0 0-20 5c18-3 34 14 42 14z" fill="#7ad0e5"/><g><path d="M149 486c-46 0-83 20-83 44s37 45 83 45 82-20 82-45-37-44-82-44zm0 53c-23 0-41-9-41-22s18-22 41-22 41 10 41 22-19 22-41 22z" fill="#e52a88"/><path d="M140 485c-3-5-14-10-29-4s-29 19-27 24 17 3 34-3c12-4 24-12 22-17zM161 484c2-5 12-9 27-3s29 19 26 24-16 3-33-3c-12-4-22-13-20-18z" fill="#fdc27f"/><path d="M150 558c-41 0-75-17-82-38a25 25 0 0 0-2 10c0 25 37 45 83 45s82-20 82-45a25 25 0 0 0-1-7c-8 20-41 35-80 35z" fill="#a11d53"/><path d="M186 490a13 13 0 0 0-13-12h-47a13 13 0 0 0-13 12v38c7 7 20 11 36 11 17 0 31-5 37-13v-35-1z" fill="#fdc27f"/><path d="M173 478h-9a32 32 0 0 1 2 11c0 15-4 27-16 27s-16-12-16-27a32 32 0 0 1 2-11h-10c0 2-5 33-13 37v13c7 7 20 11 36 11 17 0 31-5 37-13v-11c-8-4-13-35-13-37z" fill="#f8ed33"/><ellipse cx="149" cy="559" rx="7" ry="7" fill="#f8ed33"/><ellipse cx="190" cy="554" rx="6" ry="7" fill="#f8ed33"/><ellipse cx="297" cy="477" rx="6" ry="7" transform="rotate(-23 404 701)" fill="#f8ed33"/><ellipse cx="109" cy="553" rx="6" ry="7" fill="#f8ed33"/><ellipse cx="157" cy="476" rx="7" ry="5" transform="rotate(-72 159 560)" fill="#f8ed33"/><path d="M137 466v36s0 6 13 6c12 0 12-6 12-6v-36z" fill="#fdc27f"/><path d="M162 482c0 3-5 5-12 5s-13-2-13-5 6-6 13-6 12 3 12 6z" fill="#faa958"/><path d="M93 463c-11-34 17-42 31-44a38 38 0 0 0-14-7c-20-5-46 7-46 28 0 22 29 23 29 23z" fill="#f0512a"/><path d="M113 422a5 5 0 0 1-5 4 5 5 0 0 1-4-5l1-7a5 5 0 0 1 5-4 5 5 0 0 1 4 5z" fill="#7d1645"/><path d="M203 463c11-34-17-42-31-44a38 38 0 0 1 14-7c21-5 46 7 46 28 0 23-29 23-29 23z" fill="#f0512a"/><path d="M183 422a5 5 0 0 0 5 4 5 5 0 0 0 4-5v-7a5 5 0 0 0-5-4 5 5 0 0 0-5 5z" fill="#7d1645"/><path d="M109 420l2 38c0 18 21 26 36 26l5-1c15 0 35-8 35-26l-1-39z" fill="#fdc27f"/><path d="M110 440l-1-21c0-18 21-27 35-28h6c14 0 35 6 36 25v21c-18 0-22-19-22-19-22 22-54 22-54 22z" fill="#f0512a"/><ellipse cx="201" cy="398" rx="4" ry="6" transform="rotate(-80 197 475)" fill="#ed7a6d"/><ellipse cx="253" cy="396" rx="6" ry="4" transform="rotate(-14 465 756)" fill="#ed7a6d"/><path d="M149 467c-6 0-12-3-14-8a2 2 0 0 1 3-1c2 3 6 5 11 5s10-3 12-6a2 2 0 0 1 3 2c-3 4-8 7-15 8z" fill="#d82532"/><circle cx="212" cy="388" r="4" transform="rotate(-2 2213 3095)" fill="#231f20"/><circle cx="244" cy="387" r="4" transform="rotate(-2 2239 3086)" fill="#231f20"/><g><path d="M117 449a8 8 0 0 1-7 8 8 8 0 0 1-8-8v-6a8 8 0 0 1 7-8 8 8 0 0 1 8 7zM180 447a8 8 0 0 0 8 7 8 8 0 0 0 7-8v-6a8 8 0 0 0-8-7 8 8 0 0 0-7 7z" fill="#fdc27f"/><path d="M110 442a3 3 0 0 0-1 0 3 3 0 0 0-2 3v3a3 3 0 0 0 3 3zM187 440a3 3 0 0 0-1 0v8a3 3 0 0 0 4-3v-2a3 3 0 0 0-3-3z" fill="#faa958"/></g><path d="M212 501c2 2-3 3-8 5-3 2-5 2-7 1l-5-2s2-6 9-8c5-1 10 1 11 4z" fill="#faa958"/><g fill="#fdc27f"><path d="M211 498c5 3 8 6 0 19s-20 22-25 20-1-17 8-30c5-8 12-12 17-9z"/><path d="M188 554c-3 0 4-9 1-10-2 0-3 13-7 12-3 0 3-12 0-13-1 0-3 12-6 11-3-2 3-12 1-13-1 0-5 8-8 6-3-3 8-11 6-13 0 0-7 2-6-2 1-3 12-7 17-6a9 9 0 0 1 3 1 10 10 0 0 1 6 10c0 6-4 17-7 17z"/></g><path d="M87 501c-2 2 3 3 7 5s6 2 8 1l5-2a17 17 0 0 0-9-8c-5-1-10 1-11 4z" fill="#faa958"/><g fill="#fdc27f"><path d="M88 498c-5 3-9 6 0 19s20 22 25 20 1-17-8-30c-6-8-13-12-17-9z"/><path d="M110 553c3 1-3-9-1-10 2 0 3 13 7 13 3-1-3-13 0-13 1-1 3 12 6 10 4-1-3-12-1-12 1-1 6 10 9 7s-9-10-7-14c1-1 8 2 7-2-1-3-12-7-17-6a9 9 0 0 0-4 1 10 10 0 0 0-5 10c0 6 3 16 6 16z"/></g></g><g><path d="M123 164v-1c0-27-19-49-43-49s-44 22-44 49v1z" fill="#91c23e"/><path d="M104 154c-7 6-18 4-18 4s-2-12 4-18 18-4 18-4 2 11-4 18zM58 154c6 6 18 4 18 4s2-12-4-18-18-4-18-4-2 11 4 18z" fill="#b9d534"/></g><g fill="#7ba640"><path d="M669 177c-3 4-11 3-11 3s-1-7 3-11 11-3 11-3 1 7-3 11zM642 177c4 4 11 3 11 3s1-7-3-11-11-3-11-3-1 7 3 11z"/></g><g fill="#7ba640"><path d="M145 180c-4 3-11 2-11 2s-1-7 3-10 11-3 11-3 1 7-3 11zM117 180c4 3 11 2 11 2s1-7-2-10-11-3-11-3-1 7 2 11z"/></g><g><path d="M363 144v-1c0-13-9-23-21-23s-20 10-20 23v1z" fill="#9fc63b"/><path d="M354 139c-3 3-9 2-9 2s-1-6 2-9 9-2 9-2 1 6-2 9zM332 139c3 3 9 2 9 2s1-6-2-9-9-2-9-2-1 6 2 9z" fill="#b9d534"/></g><g><path d="M299 156v-1c0-20-14-36-32-36s-31 16-31 36v1z" fill="#669640"/><path d="M285 148c-5 5-13 4-13 4s-1-9 3-14 13-3 13-3 2 9-3 13zM252 148c4 5 13 4 13 4s1-9-3-14-13-3-13-3-2 9 3 13z" fill="#92c23e"/></g><g><path d="M90 253c4-7 12-26 19-29 6-3 16-2 23 6 5 5 1 12-1 15-5 10-17 15-21 20s-8 14-12 18c-6 6-12 4-15 2-5-4-5-11-3-17l10-15zM169 254c5-6 21-19 21-27 1-7-3-16-13-20-6-3-11 2-14 6-7 7-8 20-12 27-3 5-11 11-13 16-4 8 0 13 3 15 5 3 12 1 16-3 4-3 9-10 12-14z" fill="#237878"/><path d="M167 252c5-6 20-19 21-27 1-7-3-16-13-20-7-3-11 2-14 6-7 7-9 20-12 27-3 5-11 11-14 16-4 8 1 13 4 15 5 3 12 1 16-3 4-3 9-10 12-14z" fill="#43c1c2"/><path d="M179 225c-1-4-1-8-4-11 0-1-3-1-3 1 1 5-6 9-9 12l-13 12c-1 2 1 4 2 2l17-15c2-2 5-4 6-7a62 62 0 0 1 3 13c1 7-1 12-7 16-1 1 0 4 2 3 5-4 8-9 8-16 1-3-1-7-2-10z" fill="#237878"/><path d="M174 213a1 1 0 0 0-3 1l1 3c-3 1-15 4-19 10-2 2-3 11-3 12a1 1 0 1 0 2 1l3-12c3-4 13-7 18-9 2 7 4 17 3 21-3 8-12 9-12 9a1 1 0 1 0 1 3s11-2 14-12c2-6-4-25-5-27z" fill="#f8ed33"/><g><path d="M88 251c5-7 12-26 20-29 5-3 15-2 22 6 5 5 2 12 0 16-5 9-18 14-22 19s-8 14-12 18c-6 6-12 4-15 2-5-4-5-11-3-17l10-15z" fill="#43c1c2"/><path d="M123 232v1a2 2 0 0 0-1 0c-11 5-23 10-32 19-2 1 1 3 2 2 9-8 19-13 30-18 0 4 1 9-1 13-3 5-10 8-14 10-2 1 0 4 1 3 5-3 12-6 15-11 4-5 2-12 3-18 0-2-3-3-3-1z" fill="#237878"/><path d="M123 232c-2 0-22 0-27 4-9 6-7 16-7 17a1 1 0 1 0 3-1s-2-9 5-14c3-2 13-3 20-3 1 4 1 15-2 19l-10 6a1 1 0 1 0 1 3c1 0 9-4 11-7 4-6 3-18 3-21h3a1 1 0 1 0 0-3z" fill="#f8ed33"/></g></g><g><path d="M607 236c3 0 8 5 10 7 3 3 7 10 5 13-2 4-11 8-17 5-5-2-9-9-9-13 1-4 7-11 11-12z" fill="#424143"/><path d="M608 244a2 2 0 0 1-2-1 1 1 0 0 1 0-2 1 1 0 0 1 1 0 2 2 0 0 1 2 1 1 1 0 0 1 0 1 2 2 0 0 1-1 1z" fill="#fff"/><path d="M631 292c-4 0-9-6-10-11-1-6 4-15 8-16s10 5 12 8 5 9 4 12-10 8-14 7z" fill="#424143"/><path d="M631 273a2 2 0 0 1-2-1 1 1 0 0 1 0-1 2 2 0 0 1 1-1 2 2 0 0 1 2 1 1 1 0 0 1 0 1 2 2 0 0 1 0 1 1 1 0 0 1-1 0z" fill="#fff"/><path d="M650 287l-3-6-6-9-13-13-10-16-7-8c-1-1-4-4-5-3l-3 3a3 3 0 0 1 0 1c0 2-6 6-7 11-2 8 7 14 11 16 4 1 10-1 14-2 2-1 5 3 4 4-3 4-6 9-5 13 0 5 4 15 12 15 5 0 10-5 13-5a3 3 0 0 1 1 1l4-2zm-45-52a1 1 0 0 1 0-2l2 1a1 1 0 0 1 0 1h-2zm0 25c-4-2-8-8-8-12 1-3 7-10 11-11 2 0 7 5 9 7 2 3 6 9 5 12-2 4-11 7-17 4zm26 31c-4 0-9-6-10-10-1-6 4-14 8-15 3-1 9 5 11 7s5 8 4 11-9 8-13 7zm15-4a1 1 0 0 1 0-2l1 1a1 1 0 0 1 0 1h-1z" fill="#ea1b40"/></g><path d="M508 244c-47 96-45 147-45 147h10s17-76 58-136c43-62 76-78 76-78l1-43s-64 35-100 110z" fill="#f89955"/><path d="M502 194c-66 116-56 196-56 196h14s5-88 59-166c60-84 107-95 107-95l5-58-5-2s-73 34-124 125zm116-73a84 84 0 0 0-19 9c-3-35 19-44 19-44z" fill="#faef60"/><path d="M507 195c-65 117-55 196-55 196h13s5-88 60-166c59-83 106-95 106-95V70s-73 35-124 125zm117-73a84 84 0 0 0-19 10c-4-36 19-45 19-45z" fill="#227ebe"/><path d="M497 386s-19-17-28-18c-10-1-25 13-36 12-8-1-25-13-32-13-8 0-21 12-28 11-8 0-20-17-28-15-7 2-14 28-14 28l129 7z" fill="#0fc1e8"/><path d="M370 380c14 1 19-11 30-11 16 0 22 14 35 14 16 0 19-10 31-10 9 1 21 10 21 10s-7-15-22-16c-11 0-21 8-31 7-8 0-21-12-32-12-13-1-25 12-32 11-8 0-16-9-23-11-5-1-11 0-15 6 19-6 22 11 38 12z" fill="#7ad0e5"/><g><path d="M426 500c-4 6-16 19-41 30-8 3-19 5-29 6a91 91 0 0 1-70-36l-18 2c3 9 14 25 21 33 13 13 30 30 31 37l6 44a5 5 0 0 0 1 0c5 0 7-4 11-4 7 0 8 4 18 4 7 0 10-4 17-4 4 0 7 4 11 4a5 5 0 0 0 1 0l6-44c1-7 18-24 31-37 7-8 18-24 22-33z" fill="#fdc27f"/><path d="M335 497l1 36v19s0 11 21 10c19 0 19-11 19-11v-19l-1-37z" fill="#fdc27f"/><path d="M375 520c0 4-8 16-19 17s-21-12-21-16 9-9 20-9 20 3 20 8z" fill="#f68a58"/><path d="M461 491c-1-4-9 9-11 6-1-2 14-10 11-14-2-4-12 10-14 8-1-2 12-11 9-13-4-3-12 9-14 7-1-1 7-10 3-12-6-3-9 15-15 14-1 0-4-11-7-8-4 3 0 19 3 25a12 12 0 0 0 3 3 12 12 0 0 0 1 1 12 12 0 0 0 13 1c8-3 19-15 18-18z" fill="#fdc27f"/><circle cx="416" cy="510" r="3" transform="rotate(-86 409 582)" fill="#f68a58"/><circle cx="457" cy="510" r="3" transform="rotate(-86 450 582)" fill="#f68a58"/><path d="M305 444l1 50c1 24 29 34 48 34h7c19-1 46-11 45-36l-1-51z" fill="#fdc27f"/><path d="M335 488a12 12 0 0 1-12-12 2 2 0 0 1 5 0 7 7 0 0 0 7 7 7 7 0 0 0 6-7 2 2 0 0 1 5 0 12 12 0 0 1-11 12zM378 486a12 12 0 0 1-12-11 2 2 0 0 1 5 0 7 7 0 0 0 7 7 7 7 0 0 0 7-7 2 2 0 1 1 5-1 12 12 0 0 1-12 12z" fill="#3c2517"/><ellipse cx="401" cy="437" rx="6" ry="8" transform="rotate(-80 398 514)" fill="#ed7a6d"/><ellipse cx="469" cy="434" rx="8" ry="6" transform="rotate(-14 678 791)" fill="#ed7a6d"/><path d="M410 450c-4 0 13-4 13-4a43 43 0 0 0-14-10c-4-1 11-9 11-9s0-4-15-9c-5-1 4-22-2-20l-15 9c-2 0 1-12-1-12a110 110 0 0 0-16 7l1-13a35 35 0 0 0-17 10c-1 1-14-10-14-10v13c-5-3-14-6-17-6-6-1 4 9 2 10a113 113 0 0 1-20-5c-3-1 5 15 5 15-12 0-20 4-20 4s14 12 10 14c-13 8-15 12-15 12s18 4 14 6c-9 5-6 6-6 6l8 6v5c53 2 79-27 79-27s5 15 27 23a14 14 0 0 0 0-3 35 35 0 0 1 10-8s1-3-8-4z" fill="#6f1f1f"/><path d="M315 482a10 10 0 0 1-10 11 10 10 0 0 1-10-10v-8a10 10 0 0 1 9-11 10 10 0 0 1 11 10zM397 480a10 10 0 0 0 10 9 10 10 0 0 0 10-10l-1-8a10 10 0 0 0-10-10 10 10 0 0 0-10 10z" fill="#fdc27f"/><path d="M306 474a4 4 0 0 0-5 4v3a4 4 0 0 0 5 4zM406 471a4 4 0 0 0-1 0v10a4 4 0 0 0 5-3v-4a4 4 0 0 0-4-3z" fill="#f68a58"/><g><path d="M377 498l-42 1c3 12 11 18 22 18s20-8 20-22v3z" fill="#231f20"/><path d="M334 493v2h1v4l42-1v-3l1-1v-2z" fill="#fff"/><path d="M357 517a20 20 0 0 0 17-10c-2-3-14-2-17 4-4-6-16-6-18-3a20 20 0 0 0 18 9z" fill="#ec2227"/></g><path d="M249 491c2-4 10 9 12 6 1-2-14-10-11-14 2-4 12 10 14 8 1-2-12-11-9-13 3-3 12 9 14 7 1-1-7-10-3-12 5-3 9 15 14 14 2 0 5-11 8-8 4 3 0 19-3 25a12 12 0 0 1-3 3 12 12 0 0 1-1 1 12 12 0 0 1-13 1c-8-3-20-15-19-18z" fill="#fdc27f"/><path d="M401 534a3 3 0 0 0-2-1 23 23 0 0 0-8-6 135 135 0 0 1-9 4 2 2 0 0 0 2 0c6 0 10 5 13 9 3 5 4 11 4 16l6-6c0-6-1-12-6-16zM327 532a3 3 0 0 0 2-1l-3-1-5-2c-8 3-18 11-19 20l6 7a2 2 0 0 0 0-2c-3-10 10-21 19-21z" fill="#f68a58"/><g><path d="M436 524c-1-7-7-13-7-13l-13-6-15 9-16 13s13 5 17 8c4 4 8 19 8 19l14-15c3-4 13-12 12-15z" fill="#db3330"/><path d="M480 454l15-9s8 1 13 6l-18 18-9 6c-4-4-17-8-17-8l16-13z" transform="translate(-79 60)" fill="url(#j)"/></g><path d="M385 527s10-3 19 9 6 18 6 18h-7l3-3s3-4-5-14c-7-8-15-8-15-8l-1 1z" fill="#b82626"/><g><path d="M275 524c1-7 7-13 7-13l13-6 15 9 16 13s-14 5-17 8c-4 4-9 19-9 19l-13-15c-4-4-13-12-12-15z" fill="#db3330"/><path d="M389 454l-15-9s-8 1-13 6c0 0 10 12 18 18 4 4 4 3 9 6 4-4 17-8 17-8l-16-13z" transform="translate(-79 60)" fill="url(#k)"/></g><path d="M326 527s-11-3-20 9-6 18-6 18h7l-2-3s-3-4 5-14c7-8 15-8 15-8l1 1zM419 509a6 6 0 0 0-6-3 5 5 0 0 0-2 1 4 4 0 0 0-2 2c-1 3 0 4 3 5a5 5 0 0 0 1 0 8 8 0 0 0 3 0 6 6 0 0 0 3-3 1 1 0 0 0 0-2z" fill="#b82626"/></g><g><g fill="#ffd880"><ellipse cx="501" cy="178" rx="15" ry="8" transform="rotate(-74 502 261)"/><path d="M431 240c8 3 16 3 17-1s-2-12-10-14-15-3-17 1 3 10 10 14zM406 246l1 1-1 1 1 1-1 1 1 1-1 1 3 1a20 20 0 0 0 4 1c5 1 9 0 10-3s-4-5-8-7c-6-2-9-1-8 1l-1 1z"/></g><path d="M471 196c12 4 19 11 12 31a129 129 0 0 1-6 13c-11 19-20 14-31 9s-20-16-10-33l1-2a49 49 0 0 1 4-7c10-13 11-18 30-11z" fill="#ffd880"/><path d="M512 201c1 4-7 10-17 12-14 4-19-2-20-6s8-9 18-10 19 0 19 4z" fill="#ffd880"/><path d="M520 205c0-2-6 0-6-1s8-1 8-3-8 1-8 0 7-1 7-3c-1-2-7 1-8-1 0-1 6-2 5-4-2-2-8 4-10 2 0 0 1-5-1-5s-5 8-5 11a6 6 0 0 0 1 2 6 6 0 0 0 5 4c4 1 11-1 12-2zM418 186c-2 3 4 11 12 17 13 7 19 4 21 0s-4-10-13-15-18-6-20-2z" fill="#ffd880"/><path d="M410 187c0-2 5 3 6 1 0-1-7-3-7-5 1-2 7 3 8 2 0-1-7-3-6-5s7 3 7 2c1-1-4-4-2-5 2-2 5 5 8 4 0 0 1-5 2-4 3 1 3 9 2 12a6 6 0 0 1-1 1 5 5 0 0 1-1 1 6 6 0 0 1-6 2l-10-6z" fill="#ffd880"/><path d="M433 220a29 29 0 0 0-1 4 13 13 0 0 1 6 7c2 8-2 10-2 10l3 4a33 33 0 0 0 7 4c11 5 20 10 31-9v-1a150 150 0 0 1-14-4 150 150 0 0 1-30-15z" fill="#ec2227"/><g fill="#ffd880"><ellipse cx="517" cy="194" rx="16" ry="9" transform="rotate(-79 514 271)"/><path d="M448 255c11 4 17 1 19-3s-1-12-13-14c-9-1-17-1-18 3s4 10 12 14zM422 264v1l-1 1 2 1-1 1 1 1-1 1 3 1a21 21 0 0 0 5 1c5 1 10-2 11-5s-5-5-10-6c-7-2-9-1-9 1v2z"/></g><circle cx="449" cy="209" r="2" fill="#edbc64"/><circle cx="468" cy="216" r="2" fill="#edbc64"/><ellipse cx="545" cy="135" rx="9" ry="19" transform="rotate(-78 543 214)" fill="#edbc64"/><path d="M440 141l-4 33c-2 16 15 26 28 27l5 1c12 1 31-3 33-19l4-34z" fill="#ffd880"/><path d="M461 171a2 2 0 0 1-1-1 6 6 0 0 0-4-2 7 7 0 0 0-6 1 2 2 0 1 1-2-2 10 10 0 0 1 8-2 9 9 0 0 1 7 4 2 2 0 0 1-2 2zM492 175a2 2 0 0 1-2-1 6 6 0 0 0-4-3 7 7 0 0 0-5 2 2 2 0 0 1-3-3 10 10 0 0 1 9-2 9 9 0 0 1 6 4 2 2 0 0 1-1 3z" fill="#3c2517"/><path d="M470 187v4a5 5 0 0 0 9-1v-4z" fill="#ee4134"/><path d="M472 189a36 36 0 0 1-4-1c-6 0-13-3-13-7a2 2 0 1 1 3 0c0 1 4 4 11 4s10 0 11-2a2 2 0 0 1 3 1c-1 3-6 5-11 5z" fill="#e74b33"/><g><path d="M443 167a7 7 0 0 1-8 6 7 7 0 0 1-5-7v-6a7 7 0 0 1 8-6 7 7 0 0 1 5 8zM497 174a7 7 0 0 0 6 7 7 7 0 0 0 7-6l1-6a7 7 0 0 0-6-7 7 7 0 0 0-7 6z" fill="#ffd880"/><path d="M437 161a3 3 0 0 0-3 2v2a3 3 0 0 0 3 3zM504 169a3 3 0 0 0-1 0l-1 6a3 3 0 0 0 4-2l1-2a3 3 0 0 0-3-2z" fill="#edbc64"/></g><path d="M500 129l4-9-13 2-8-12-4 10-1-1h-5c-12-2-31 4-33 19l-1 10 66 8 1-11c1-7-2-12-6-16z" fill="#231f20"/></g><g><path fill="#f0512a" d="M298 232l17-9 4 8-17 9z"/><path d="M353 176a8 8 0 0 1 12 4l2 5a8 8 0 0 1-3 11l-50 27 5 8 49-27a18 18 0 0 0 7-24l-2-5a18 18 0 0 0-24-7l-6 4 5 8z" fill="#a11d53"/><path d="M338 174l5 8a3 3 0 1 0 5-2l-5-8v-1a3 3 0 1 0-5 3z" fill="#f0512a"/><path d="M343 182s-3 4-4 2l-1-5-3-3c-1-2 4-2 4-2z" fill="#a11d53"/><g><path d="M251 217c-2-8-4-18-10-20-6 1-9 11-13 19l-3 6c4 0 9-6 14-6 6 1 11 7 15 8l-3-7z" fill="#3d3538"/><path d="M242 176s-19-1-33 8c15-5 33-3 33-3s18 0 32 7c-13-11-32-12-32-12z" fill="#f0512a"/><path d="M284 196a39 39 0 0 0-10-8c-14-7-32-7-32-7s-18-2-33 3a39 39 0 0 0-11 6c-4 3-3 13-1 20 1 6 5 20 16 20 6 0 8-2 12-8l3-6c4-8 7-18 13-19 6 2 8 12 10 20l3 7c2 6 5 8 11 9 10 2 16-11 18-18 3-6 5-16 1-19z" fill="#f0512a"/><path d="M266 228h-1a15 15 0 0 1-2 0v-1h-1a6 6 0 0 1-2-2 20 20 0 0 1-2-3l-2-6-1-3c-1-5-3-12-7-17a17 17 0 0 0-2-2l-1-1a9 9 0 0 0-3-1 2 2 0 0 0-1 0 9 9 0 0 0-2 0 1 1 0 0 0-1 0c-6 2-10 10-13 19a227 227 0 0 1-5 8c-2 4-3 5-6 5a1 1 0 0 0 0 1h-2a6 6 0 0 1-1-1 6 6 0 0 1-2-1 9 9 0 0 1-1 0 17 17 0 0 1-4-6 45 45 0 0 1-2-8c-3-13-1-15-1-15a34 34 0 0 1 10-5 55 55 0 0 1 8-2 86 86 0 0 1 16-2h1a91 91 0 0 1 38 9h1l1 1a63 63 0 0 1 3 3 184 184 0 0 1 2 1 1 1 0 0 0 0 1c0 1 1 4-3 14-1 4-5 14-12 14z" fill="#48548e"/><path d="M236 187a89 89 0 0 1 38 9 26 26 0 0 1 1 1h1l2 2 1 1h1l-3 13c-3 9-7 14-11 14l-1-1a14 14 0 0 1-1 0h-1a4 4 0 0 1-2-2 19 19 0 0 1-1-3l-2-6-1-3c-2-6-4-13-8-17a21 21 0 0 0 0-1h-1a15 15 0 0 0-1-1l-1-1a11 11 0 0 0-4-2 3 3 0 0 0-1 0 10 10 0 0 0-3 1c-7 2-11 10-15 19a227 227 0 0 1-4 9c-2 4-3 4-5 4h-2a4 4 0 0 1-1 0 5 5 0 0 1-1-1 7 7 0 0 1-1 0 15 15 0 0 1-3-6 43 43 0 0 1-3-8c-2-10-1-13-1-13a33 33 0 0 1 9-5 53 53 0 0 1 9-2 86 86 0 0 1 15-1zm0-3h-1a108 108 0 0 0-16 1 56 56 0 0 0-9 2 36 36 0 0 0-10 6s-3 3 0 16a46 46 0 0 0 3 9 19 19 0 0 0 4 6 10 10 0 0 0 1 1 8 8 0 0 0 3 1 7 7 0 0 0 1 0h2c4 0 5-2 8-6a74 74 0 0 0 4-9c3-6 7-15 13-17a7 7 0 0 1 2-1 8 8 0 0 1 3 2h1l1 1h1v1c4 4 6 11 7 16l1 3 2 6a22 22 0 0 0 2 4 7 7 0 0 0 2 2l1 1h1a17 17 0 0 0 2 1h1c7 0 12-10 14-16 3-9 3-13 2-15a3 3 0 0 0 0-1l-2-1v-1l-2-1-1-1h-1l-1-1-2-1a89 89 0 0 0-37-8z" fill="#374370"/></g><g style="mix-blend-mode:overlay"><path d="M258 187a105 105 0 0 0-16-3 93 93 0 0 0-20 1 104 104 0 0 0-15 38v1a10 10 0 0 0 1 1 8 8 0 0 0 3 1 7 7 0 0 0 1 0h2c4 0 5-2 8-6a74 74 0 0 0 4-9c3-6 7-15 13-17a7 7 0 0 1 2-1 8 8 0 0 1 3 2h1l1 1h1v1a21 21 0 0 1 2 3 65 65 0 0 1 9-13z" fill="#fff"/></g></g><g><path d="M615 545c-4 0-9-2-14-4l-11-3c-4-1-9 1-14 3l-15 3-10-3-11-3-14 3-15 3c-4 0-9-3-14-6h-1a2 2 0 0 1 2-3h1c4 3 9 6 12 6l14-3 15-3 12 3 10 3 13-3c5-2 11-4 15-3l12 3c4 2 9 4 13 4a2 2 0 0 1 0 3z" fill="#7ad0e5"/></g><g><path d="M384 618c-3 0-5-2-7-3l-4-2a17 17 0 0 0-8 2 20 20 0 0 1-9 2 24 24 0 0 1-11-2 14 14 0 0 0-7-2l-4 2c-2 1-4 3-7 3a6 6 0 0 1-1-1 2 2 0 0 1 0-3 4 4 0 0 0 1 1l5-2c1-2 3-3 6-3a17 17 0 0 1 8 2 21 21 0 0 0 10 2 17 17 0 0 0 8-2 20 20 0 0 1 9-2c3 0 4 1 6 3l5 2a4 4 0 0 0 1-1 2 2 0 0 1 1 3 6 6 0 0 1-2 1z" fill="#7ad0e5"/></g><path d="M416 503a7 7 0 0 0-4 0 5 5 0 0 0-3 1 3 3 0 0 0 0 5 6 6 0 0 0 1 1 3 3 0 0 0 3 2 2 2 0 0 0 2-1 2 2 0 0 0 0-1 5 5 0 0 0 1-1 3 3 0 0 0 1 0 3 3 0 0 0 2-3 3 3 0 0 0-3-3z" fill="#fff"/></g></svg>