<svg xmlns="http://www.w3.org/2000/svg" xmlns:xlink="http://www.w3.org/1999/xlink" viewBox="0 0 331.41 258.75"><defs><style>.cls-1{fill:none;}.cls-2{isolation:isolate;}.cls-3,.cls-4,.cls-84,.cls-87,.cls-88,.cls-89,.cls-90,.cls-91{mix-blend-mode:screen;}.cls-3{fill:url(#linear-gradient);}.cls-4{fill:url(#linear-gradient-2);}.cls-5{fill:url(#radial-gradient);}.cls-6{fill:url(#radial-gradient-2);}.cls-7{fill:url(#radial-gradient-3);}.cls-16,.cls-27,.cls-28,.cls-35,.cls-46,.cls-61,.cls-62,.cls-8,.cls-9{opacity:0.5;}.cls-16,.cls-27,.cls-28,.cls-31,.cls-35,.cls-37,.cls-46,.cls-61,.cls-62,.cls-66,.cls-8,.cls-9{mix-blend-mode:multiply;}.cls-8{fill:url(#radial-gradient-4);}.cls-10{fill:url(#radial-gradient-5);}.cls-11{fill:url(#radial-gradient-6);}.cls-12{fill:url(#radial-gradient-7);}.cls-13{fill:#90a2b0;}.cls-14{fill:url(#radial-gradient-8);}.cls-15{fill:url(#radial-gradient-9);}.cls-16{fill:url(#radial-gradient-10);}.cls-17{fill:url(#radial-gradient-11);}.cls-18{fill:url(#radial-gradient-12);}.cls-19{fill:url(#radial-gradient-13);}.cls-20{fill:url(#radial-gradient-14);}.cls-21{fill:url(#radial-gradient-15);}.cls-22{fill:url(#radial-gradient-16);}.cls-23{fill:url(#radial-gradient-18);}.cls-24{fill:url(#radial-gradient-19);}.cls-25{fill:url(#radial-gradient-20);}.cls-26{fill:url(#radial-gradient-21);}.cls-27{fill:url(#radial-gradient-22);}.cls-28{fill:url(#radial-gradient-23);}.cls-29{fill:url(#linear-gradient-3);}.cls-30{fill:url(#radial-gradient-24);}.cls-31{fill:url(#radial-gradient-25);}.cls-32{fill:url(#linear-gradient-4);}.cls-33{fill:#48555e;}.cls-34{fill:url(#radial-gradient-27);}.cls-35{fill:url(#radial-gradient-28);}.cls-36{fill:url(#radial-gradient-29);}.cls-38{fill:url(#radial-gradient-30);}.cls-39{fill:url(#radial-gradient-31);}.cls-40{fill:url(#radial-gradient-32);}.cls-41{fill:url(#radial-gradient-33);}.cls-42{fill:url(#radial-gradient-34);}.cls-43{fill:url(#radial-gradient-35);}.cls-44{fill:url(#radial-gradient-36);}.cls-45{fill:url(#radial-gradient-37);}.cls-46{fill:url(#radial-gradient-38);}.cls-47{fill:url(#radial-gradient-39);}.cls-48{fill:url(#radial-gradient-40);}.cls-49{fill:url(#radial-gradient-41);}.cls-50{fill:url(#radial-gradient-42);}.cls-51{fill:url(#radial-gradient-43);}.cls-52{fill:url(#radial-gradient-44);}.cls-53{fill:url(#radial-gradient-45);}.cls-54{fill:url(#radial-gradient-46);}.cls-55{fill:url(#radial-gradient-47);}.cls-56{fill:url(#radial-gradient-48);}.cls-57{fill:url(#radial-gradient-49);}.cls-58{fill:url(#radial-gradient-50);}.cls-59{fill:url(#radial-gradient-51);}.cls-60{fill:url(#radial-gradient-52);}.cls-61{fill:url(#radial-gradient-53);}.cls-62{fill:url(#radial-gradient-54);}.cls-63{clip-path:url(#clip-path);}.cls-64{fill:url(#linear-gradient-5);}.cls-65{fill:url(#radial-gradient-55);}.cls-66{fill:url(#radial-gradient-56);}.cls-67{fill:url(#linear-gradient-6);}.cls-68{fill:url(#radial-gradient-57);}.cls-69{fill:url(#radial-gradient-58);}.cls-70{fill:url(#radial-gradient-59);}.cls-71{fill:url(#radial-gradient-60);}.cls-72{fill:url(#radial-gradient-61);}.cls-73{fill:url(#radial-gradient-62);}.cls-74{fill:url(#radial-gradient-63);}.cls-75{fill:url(#radial-gradient-64);}.cls-76{fill:url(#radial-gradient-65);}.cls-77{fill:url(#radial-gradient-66);}.cls-78{fill:url(#radial-gradient-67);}.cls-79{fill:url(#radial-gradient-68);}.cls-80{fill:url(#radial-gradient-69);}.cls-81{fill:url(#radial-gradient-70);}.cls-82{fill:url(#radial-gradient-71);}.cls-83{fill:url(#radial-gradient-72);}.cls-85{fill:url(#radial-gradient-73);}.cls-86{fill:url(#radial-gradient-74);}.cls-87{fill:url(#radial-gradient-75);}.cls-88{fill:url(#radial-gradient-76);}.cls-89{fill:url(#radial-gradient-77);}.cls-90{fill:url(#radial-gradient-78);}.cls-91{fill:url(#radial-gradient-79);}</style><linearGradient id="linear-gradient" x1="3013.11" y1="35.07" x2="3076.53" y2="172.1" gradientTransform="matrix(-1, 0, 0, 1, 3172.2, 0)" gradientUnits="userSpaceOnUse"><stop offset="0" stop-color="#d1e096"/><stop offset="0.02" stop-color="#cbce87"/><stop offset="0.09" stop-color="#bfa467"/><stop offset="0.15" stop-color="#b4824c"/><stop offset="0.21" stop-color="#ac6838"/><stop offset="0.28" stop-color="#a75529"/><stop offset="0.35" stop-color="#a34a20"/><stop offset="0.42" stop-color="#a2461d"/><stop offset="0.51" stop-color="#92401a"/><stop offset="0.64" stop-color="#833a17"/><stop offset="0.79" stop-color="#7a3615"/><stop offset="1" stop-color="#773514"/></linearGradient><linearGradient id="linear-gradient-2" x1="3053.19" y1="191.82" x2="3053.32" y2="192.11" xlink:href="#linear-gradient"/><radialGradient id="radial-gradient" cx="225.53" cy="210.35" r="17.06" gradientUnits="userSpaceOnUse"><stop offset="0.11" stop-color="#fff"/><stop offset="0.88" stop-color="#d4bbab"/></radialGradient><radialGradient id="radial-gradient-2" cx="225.53" cy="210.36" r="17.06" xlink:href="#radial-gradient"/><radialGradient id="radial-gradient-3" cx="240.35" cy="234.93" r="76.02" gradientUnits="userSpaceOnUse"><stop offset="0.18" stop-color="#90a2b0"/><stop offset="1" stop-color="#4a5760"/></radialGradient><radialGradient id="radial-gradient-4" cx="240.35" cy="234.93" r="76.02" xlink:href="#radial-gradient-3"/><radialGradient id="radial-gradient-5" cx="168.88" cy="93.5" r="136.74" gradientUnits="userSpaceOnUse"><stop offset="0.18" stop-color="#90a2b0"/><stop offset="1" stop-color="#6f7f8c"/></radialGradient><radialGradient id="radial-gradient-6" cx="168.9" cy="93.56" r="136.66" xlink:href="#radial-gradient-5"/><radialGradient id="radial-gradient-7" cx="320.85" cy="157.5" r="29.32" xlink:href="#radial-gradient-3"/><radialGradient id="radial-gradient-8" cx="27.15" cy="102.84" r="80.19" xlink:href="#radial-gradient-3"/><radialGradient id="radial-gradient-9" cx="22.39" cy="106.4" r="86.35" gradientUnits="userSpaceOnUse"><stop offset="0.12" stop-color="#ee918f"/><stop offset="0.86" stop-color="#d16e70"/></radialGradient><radialGradient id="radial-gradient-10" cx="22.39" cy="106.4" r="86.36" xlink:href="#radial-gradient-9"/><radialGradient id="radial-gradient-11" cx="50.42" cy="121.3" r="15.31" xlink:href="#radial-gradient-5"/><radialGradient id="radial-gradient-12" cx="56.13" cy="130.41" r="28.09" xlink:href="#radial-gradient"/><radialGradient id="radial-gradient-13" cx="270.09" cy="214.81" r="18.28" xlink:href="#radial-gradient"/><radialGradient id="radial-gradient-14" cx="270.09" cy="214.81" r="18.29" xlink:href="#radial-gradient"/><radialGradient id="radial-gradient-15" cx="270.09" cy="214.81" r="18.28" xlink:href="#radial-gradient"/><radialGradient id="radial-gradient-16" cx="241.85" cy="182.52" r="147.08" xlink:href="#radial-gradient-5"/><radialGradient id="radial-gradient-18" cx="241.85" cy="182.52" r="147.06" xlink:href="#radial-gradient-5"/><radialGradient id="radial-gradient-19" cx="42.66" cy="138.49" r="46.69" xlink:href="#radial-gradient-9"/><radialGradient id="radial-gradient-20" cx="111.86" cy="54.62" r="170.84" xlink:href="#radial-gradient-5"/><radialGradient id="radial-gradient-21" cx="133.53" cy="108.02" r="94.97" gradientUnits="userSpaceOnUse"><stop offset="0.26" stop-color="#0bb6ff"/><stop offset="1" stop-color="#00496e"/></radialGradient><radialGradient id="radial-gradient-22" cx="123.46" cy="72.81" r="13.98" xlink:href="#radial-gradient-5"/><radialGradient id="radial-gradient-23" cx="87.29" cy="82.94" r="10.09" xlink:href="#radial-gradient-5"/><linearGradient id="linear-gradient-3" x1="23.02" y1="-102.62" x2="39.49" y2="-102.62" gradientTransform="matrix(1.12, -0.43, 0.43, 1.13, 131.95, 200.45)" gradientUnits="userSpaceOnUse"><stop offset="0" stop-color="#fff"/><stop offset="0.78" stop-color="#eaeaea"/><stop offset="1" stop-color="#e3e3e3"/></linearGradient><radialGradient id="radial-gradient-24" cx="-129.43" cy="-292.87" r="21.9" gradientTransform="matrix(0.87, -0.53, 0.26, 0.84, 309.02, 236.83)" xlink:href="#radial-gradient-21"/><radialGradient id="radial-gradient-25" cx="86.85" cy="-190.02" r="17.67" gradientTransform="matrix(0.81, -0.68, 0.42, 0.72, 135.76, 262.16)" gradientUnits="userSpaceOnUse"><stop offset="0.27" stop-color="#225673"/><stop offset="0.47" stop-color="#20526f"/><stop offset="0.69" stop-color="#1a4862"/><stop offset="0.92" stop-color="#11364c"/><stop offset="1" stop-color="#0c2e42"/></radialGradient><linearGradient id="linear-gradient-4" x1="-160.05" y1="-256.48" x2="-169.42" y2="-255.74" gradientTransform="matrix(0.8, -0.61, 0.61, 0.8, 412.84, 172.06)" xlink:href="#linear-gradient-3"/><radialGradient id="radial-gradient-27" cx="227.54" cy="88.14" r="114.34" xlink:href="#radial-gradient-9"/><radialGradient id="radial-gradient-28" cx="227.54" cy="88.14" r="114.34" xlink:href="#radial-gradient-9"/><radialGradient id="radial-gradient-29" cx="113.73" cy="126.51" r="23.01" xlink:href="#radial-gradient"/><radialGradient id="radial-gradient-30" cx="122.5" cy="114.5" r="6.17" xlink:href="#radial-gradient-5"/><radialGradient id="radial-gradient-31" cx="135.08" cy="43.27" r="9.55" xlink:href="#radial-gradient-5"/><radialGradient id="radial-gradient-32" cx="168.8" cy="152.03" r="14.24" xlink:href="#radial-gradient-5"/><radialGradient id="radial-gradient-33" cx="162.56" cy="141.19" r="3.59" xlink:href="#radial-gradient-5"/><radialGradient id="radial-gradient-34" cx="143.39" cy="152.24" r="8.2" xlink:href="#radial-gradient-5"/><radialGradient id="radial-gradient-35" cx="206.61" cy="144.67" r="20.44" xlink:href="#radial-gradient-5"/><radialGradient id="radial-gradient-36" cx="210.43" cy="127" r="7.27" xlink:href="#radial-gradient-5"/><radialGradient id="radial-gradient-37" cx="263.71" cy="140.76" r="9.96" xlink:href="#radial-gradient-5"/><radialGradient id="radial-gradient-38" cx="304.58" cy="121.75" r="9.35" xlink:href="#radial-gradient-3"/><radialGradient id="radial-gradient-39" cx="116.7" cy="228.99" r="26.89" xlink:href="#radial-gradient"/><radialGradient id="radial-gradient-40" cx="116.7" cy="228.99" r="26.89" xlink:href="#radial-gradient"/><radialGradient id="radial-gradient-41" cx="116.7" cy="228.99" r="26.89" xlink:href="#radial-gradient"/><radialGradient id="radial-gradient-42" cx="188.71" cy="220.15" r="38.85" xlink:href="#radial-gradient"/><radialGradient id="radial-gradient-43" cx="188.71" cy="220.15" r="38.85" xlink:href="#radial-gradient"/><radialGradient id="radial-gradient-44" cx="188.71" cy="220.16" r="38.85" xlink:href="#radial-gradient"/><radialGradient id="radial-gradient-45" cx="168.88" cy="93.48" r="136.78" xlink:href="#radial-gradient-5"/><radialGradient id="radial-gradient-46" cx="168.89" cy="93.35" r="136.92" xlink:href="#radial-gradient-5"/><radialGradient id="radial-gradient-47" cx="168.88" cy="93.64" r="136.59" xlink:href="#radial-gradient-5"/><radialGradient id="radial-gradient-48" cx="168.89" cy="93.4" r="136.89" xlink:href="#radial-gradient-5"/><radialGradient id="radial-gradient-49" cx="168.88" cy="93.59" r="136.65" xlink:href="#radial-gradient-5"/><radialGradient id="radial-gradient-50" cx="168.88" cy="93.68" r="136.55" xlink:href="#radial-gradient-5"/><radialGradient id="radial-gradient-51" cx="168.86" cy="93.6" r="136.64" xlink:href="#radial-gradient-5"/><radialGradient id="radial-gradient-52" cx="168.86" cy="93.54" r="136.67" xlink:href="#radial-gradient-5"/><radialGradient id="radial-gradient-53" cx="58.39" cy="144.92" r="29.75" gradientUnits="userSpaceOnUse"><stop offset="0.12" stop-color="#ec807e"/><stop offset="0.86" stop-color="#ca585b"/></radialGradient><radialGradient id="radial-gradient-54" cx="58.39" cy="144.93" r="29.73" xlink:href="#radial-gradient-53"/><clipPath id="clip-path"><path class="cls-1" d="M84.23,94.19s4.31-7.11,11.63-8.83C94.14,72,87.78,69,82.73,71.25S75.72,86.65,84.23,94.19Z"/></clipPath><linearGradient id="linear-gradient-5" x1="-2.71" y1="-112.22" x2="9.38" y2="-112.22" gradientTransform="matrix(1.13, -0.42, 0.43, 1.32, 132.21, 233.44)" xlink:href="#linear-gradient-3"/><radialGradient id="radial-gradient-55" cx="-173.44" cy="-303.3" r="19.51" gradientTransform="matrix(0.81, -0.62, 0.34, 0.81, 328.21, 211.86)" xlink:href="#radial-gradient-21"/><radialGradient id="radial-gradient-56" cx="45.02" cy="-209.9" r="15.73" gradientTransform="matrix(0.73, -0.76, 0.49, 0.68, 158.71, 253.88)" xlink:href="#radial-gradient-25"/><linearGradient id="linear-gradient-6" x1="-202.22" y1="-271.59" x2="-210.57" y2="-270.93" gradientTransform="translate(426.02 138.1) rotate(-42.86)" xlink:href="#linear-gradient-3"/><radialGradient id="radial-gradient-57" cx="33.44" cy="89.43" r="131.18" xlink:href="#radial-gradient-5"/><radialGradient id="radial-gradient-58" cx="33.43" cy="89.43" r="131.19" xlink:href="#radial-gradient-5"/><radialGradient id="radial-gradient-59" cx="33.44" cy="89.42" r="131.17" xlink:href="#radial-gradient-5"/><radialGradient id="radial-gradient-60" cx="33.43" cy="89.43" r="131.18" xlink:href="#radial-gradient-5"/><radialGradient id="radial-gradient-61" cx="33.44" cy="89.42" r="131.18" xlink:href="#radial-gradient-5"/><radialGradient id="radial-gradient-62" cx="33.45" cy="89.45" r="131.14" xlink:href="#radial-gradient-5"/><radialGradient id="radial-gradient-63" cx="33.44" cy="89.43" r="131.17" xlink:href="#radial-gradient-5"/><radialGradient id="radial-gradient-64" cx="33.43" cy="89.5" r="131.12" xlink:href="#radial-gradient-5"/><radialGradient id="radial-gradient-65" cx="33.42" cy="89.46" r="131.15" xlink:href="#radial-gradient-5"/><radialGradient id="radial-gradient-66" cx="33.43" cy="89.47" r="131.14" xlink:href="#radial-gradient-5"/><radialGradient id="radial-gradient-67" cx="33.45" cy="89.45" r="131.14" xlink:href="#radial-gradient-5"/><radialGradient id="radial-gradient-68" cx="33.42" cy="89.44" r="131.17" xlink:href="#radial-gradient-5"/><radialGradient id="radial-gradient-69" cx="33.44" cy="89.49" r="131.1" xlink:href="#radial-gradient-5"/><radialGradient id="radial-gradient-70" cx="33.45" cy="89.46" r="131.14" xlink:href="#radial-gradient-5"/><radialGradient id="radial-gradient-71" cx="33.44" cy="89.51" r="131.06" xlink:href="#radial-gradient-5"/><radialGradient id="radial-gradient-72" cx="163.01" cy="120.18" r="194.49" xlink:href="#radial-gradient-5"/><radialGradient id="radial-gradient-73" cx="85.94" cy="135.91" r="23.62" xlink:href="#radial-gradient-5"/><radialGradient id="radial-gradient-74" cx="84.92" cy="177.64" r="6.98" xlink:href="#radial-gradient-5"/><radialGradient id="radial-gradient-75" cx="73.25" cy="83.11" r="12.13" xlink:href="#radial-gradient-5"/><radialGradient id="radial-gradient-76" cx="178.26" cy="154.66" r="20.1" xlink:href="#radial-gradient-5"/><radialGradient id="radial-gradient-77" cx="175.33" cy="215.87" r="7.6" xlink:href="#radial-gradient-5"/><radialGradient id="radial-gradient-78" cx="194.09" cy="179.94" r="2.27" xlink:href="#radial-gradient-5"/><radialGradient id="radial-gradient-79" cx="229.72" cy="143.02" r="15.06" xlink:href="#radial-gradient-5"/></defs><title>Монтажная область 63</title><g class="cls-2"><g id="Layer_1" data-name="Layer 1"><path class="cls-3" d="M107.48,100.83C108.57,69.65,120.88,48,120.88,48v1.1S110.75,66.64,109.94,106c-.78,37.43,8.07,81.52,9,85.81C117.88,186.94,106.43,130.64,107.48,100.83Z"/><path class="cls-4" d="M118.89,191.84c0,.18.06.3.06.34A2.92,2.92,0,0,0,118.89,191.84Z"/><path class="cls-5" d="M228.71,214.38c-2.43.47-2.72,7.57-2.74,10.34h.31c2.74-.3,5.57-.69,8.23-1.22C233.5,219.52,231.37,213.87,228.71,214.38Z"/><path class="cls-6" d="M221.67,212.92c-2.85.07-3.84,7.09-4.17,10.62a17.82,17.82,0,0,0,7.42,1.22C225,221.57,224.79,212.84,221.67,212.92Z"/><path class="cls-7" d="M244.73,210.31c4.34-3.07,3.22-16.63-2.38-43.47,0,0-15.52,5.59-29.35,4.33a261.09,261.09,0,0,1-1.26,27c-1.33,10.32-2.74,21.7,5.77,25.39.32-3.53,1.31-10.55,4.17-10.62,3.11-.08,3.29,8.65,3.26,11.84l1,0c0-2.77.31-9.87,2.74-10.34,2.66-.51,4.79,5.14,5.8,9.11C244.32,221.55,251.87,217.79,244.73,210.31Z"/><path class="cls-8" d="M234.84,216.33c-1.89-2.83-3.42-5.89-5.39-8.67-2.6-3.66-5.61-7.1-7.31-11.31-1.57-3.9-1.87-8-1.95-12.13-.05-2.62.16-5.85,3-6.85,3.77-1.31,7.87-1.33,11.69-2.56a64.81,64.81,0,0,0,8.35-3.45c-.29-1.47-.6-3-.92-4.53,0,0-15.52,5.59-29.35,4.33a261.09,261.09,0,0,1-1.26,27c-1.33,10.32-2.74,21.7,5.77,25.39.32-3.53,1.31-10.55,4.17-10.62,3.11-.08,3.29,8.65,3.26,11.84l1,0c0-2.77.31-9.87,2.74-10.34,2.66-.51,4.79,5.14,5.8,9.11a44.23,44.23,0,0,0,6.48-1.74A13.61,13.61,0,0,1,234.84,216.33Z"/><g class="cls-9"><path class="cls-10" d="M228.31,180c-2.87.82-7.38,1.59-10.11.14-.06,0-.13.16-.08.19,2.62,2,7.15,1.44,10,.43C228.41,180.7,228.6,179.93,228.31,180Z"/><path class="cls-11" d="M227.54,185.3a10.26,10.26,0,0,1-5.84.57c-.09,0-.16.22-.08.24a8.26,8.26,0,0,0,5.9-.27C227.7,185.77,227.82,185.19,227.54,185.3Z"/></g><path class="cls-12" d="M314.34,126.52s-.49,2.86-4.83,4.4c-5.17,2.17-9.71,7.55-7.13,9-1.12,4.33.63,8,2.45,8.74a4.21,4.21,0,0,1-.49-3.5s.7,6,4.89,7.62c-.56-4.33,2-6.71,4.05-8.31a6.33,6.33,0,0,0,2.52-7,6,6,0,0,1,.84,4.83s5.59-4.83-1.12-15.17C314.48,125.54,314.34,126.52,314.34,126.52Z"/><path class="cls-13" d="M23,117.51l1.29-1.58A5.09,5.09,0,0,0,23,117.51Z"/><path class="cls-14" d="M74.23,53.05c-.3-1.33-.7-1.36-.7-1.36s-4.33,2.9-8.21,1.37c-7-2.74-12.7-5-20.91.25S32.34,71.87,26.36,80.7s-7.09,8.84-12.07,12.07a13,13,0,0,0-4.22,3.81c5.3-.57,16.67-3.12,22.61-15.43,7.83-16.21,7.55-20.68,14.54-21.24S70.77,68,76.43,86.48c5.09,16.6,2.53,34.31-8,48.31,5.47-2.2,10.77-6,12.77-13.72C84.12,109.74,74.23,53.05,74.23,53.05Z"/><path class="cls-15" d="M76.19,84.81c-5.66-18.45-22-25.47-29-24.9s-6.71,5-14.54,21.24C26.74,93.47,15.37,96,10.07,96.58c-1.15,1.91-1.07,4.17.11,7.77a28.84,28.84,0,0,0,6.48,10.46L20,112.44c.13.5-2.12,3-1.74,3.73a23.69,23.69,0,0,0,3.24,3.11L23,117.51a5.09,5.09,0,0,1,1.29-1.58L23,117.51c-.75,1.44-1,3.74,2.41,6.38,5.72,4.48,11.7,8,15.18,4.85L40.18,131s9,7.62,20.74,6.08a52.88,52.88,0,0,0,7.5-2.28C79,120.79,81.29,101.42,76.19,84.81Z"/><path class="cls-16" d="M76.19,84.81c-5.66-18.45-22-25.47-29-24.9s-6.71,5-14.54,21.24l-.35.69.58-.64c2.09-2.33,4.11-4.73,6.31-7,1.88-1.91,3.91-4,6.42-5.1,4.87-2,9.19.4,11,5.18,1.94,5.21-.52,10.86-.42,16.21a21.26,21.26,0,0,0,4.26,11.83c2.64,3.82,6,7.6,6,12.52,0,7.48-4.72,15.33-11.07,19.16a27.2,27.2,0,0,1-4.72,2.23,25.49,25.49,0,0,0,10.23.79,52.88,52.88,0,0,0,7.5-2.28C79,120.79,81.29,101.42,76.19,84.81Z"/><path class="cls-17" d="M76.51,117s-1.32.36-1.5,2.56-1.68,3-3,3.71-2,.62-1.06,2.65c2-.71,7,.44,8.39,7.42C81.9,128.55,80.05,115.47,76.51,117Z"/><path class="cls-18" d="M71.3,125.9a41.5,41.5,0,0,1-11,11.48c-5.65,3.27-7.33,4.68,1.68,5.12s15.81-5,17.4-9.19C78.11,126.87,73.51,125.54,71.3,125.9Z"/><path class="cls-19" d="M274.29,216.7c-3.31.55-4.38,7.16-4.68,9.89a48.41,48.41,0,0,0,10.18.67C280.14,221.08,278.22,216,274.29,216.7Z"/><path class="cls-20" d="M264.71,214.61c-2.4-.2-4.7,6-5.56,8.68a4.7,4.7,0,0,0,1.1.73,38.34,38.34,0,0,0,7.5,2.23C269.13,220.4,267.51,214.85,264.71,214.61Z"/><path class="cls-21" d="M283.43,216.87c-2.19.73-2.06,7.21-1.87,10.26a33,33,0,0,0,8.07-1.71C289,221.16,286,216,283.43,216.87Z"/><path class="cls-22" d="M315.8,126.33c-.45-3-.62-15.54-12.93-27.42s-25-23.48-32.85-33S250.6,41.6,228.51,50.27c-21.25,10.06-91.27,37.46-91.27,37.46s-25.44,17.89-15.8,68.77c0,0,3.88,29.84-9.15,57.14-5.17,7.65-5,8.06,0,11.79A26,26,0,0,0,107.8,230a5.44,5.44,0,0,1,3-.89c2.86.2,4.72,6.72,4.13,10.59,0,0,1.87-8.13,5.72-9.31s5.7,5.17,4.42,9.52c0,0,2.56-9,5.91-9.52s3.81,8.28,3.81,8.28c9.3-.21,20.27-3.31,9.72-12.2,4.14-3.93,6.62-27.51,6.2-39.3s-.82-26.27-.82-26.27S164.61,171,172.68,171a83.91,83.91,0,0,1-1,35.78c-2.07,9.31-3.86,16.36,4.63,20.24-2.63,3.5-5.09,8-4.14,11.17,1.26-3,4.27-9.21,7.84-8.91,4.41.37,5.74,4.94,5.17,11.86,1.1-3.59,3.44-9.64,6.8-9.7,4.17-.07,4.77,6.89,4.91,10.48l.07,0c.67-3.44,2.18-9.17,4.84-9.79,3-.69,5.42,3.76,6.52,7.63a1.13,1.13,0,0,0,0-.4c9-1.36,14.68-3.25,12.47-6.19s-4-4.82-1.57-5.87,5.79-3.63,1.31-19.6-10.82-23.32-12.5-35.2c15.37,1,37,2,51.53-18.73,0,0,2.15,4.75,1.45,16.36s-1.68,23.9-3.22,31.87c-1.39,7.41-1.54,7.55,3.5,9.92-4.14,5.36-4.25,9.34-2.08,11.3.86-2.65,3.16-8.88,5.56-8.68,2.8.24,4.42,5.8,3,11.63.6.12,1.22.24,1.86.35.3-2.73,1.37-9.34,4.68-9.89,3.93-.65,5.86,4.38,5.49,10.56.59,0,1.18-.07,1.78-.12-.19-3.05-.32-9.53,1.87-10.26,2.56-.85,5.52,4.29,6.2,8.56a26.07,26.07,0,0,0,6.53-3.37c5.17-4.61,5.32-7.69,3.78-12.72,2.66-3.21,2.8-4.47.7-10.2s-8.94-28.12-9.58-35.71,3.85-16.43,4.13-33.2-10.07-29.91-17.33-45.29c17.61,15.38,33.27,23.2,35.78,42.77C313.76,130.08,316.25,129.28,315.8,126.33Z"/><path class="cls-22" d="M315.8,126.33c-.45-3-.62-15.54-12.93-27.42s-25-23.48-32.85-33S250.6,41.6,228.51,50.27c-21.25,10.06-91.27,37.46-91.27,37.46s-25.44,17.89-15.8,68.77c0,0,3.88,29.84-9.15,57.14-5.17,7.65-5,8.06,0,11.79A26,26,0,0,0,107.8,230a5.44,5.44,0,0,1,3-.89c2.86.2,4.72,6.72,4.13,10.59,0,0,1.87-8.13,5.72-9.31s5.7,5.17,4.42,9.52c0,0,2.56-9,5.91-9.52s3.81,8.28,3.81,8.28c9.3-.21,20.27-3.31,9.72-12.2,4.14-3.93,6.62-27.51,6.2-39.3s-.82-26.27-.82-26.27S164.61,171,172.68,171a83.91,83.91,0,0,1-1,35.78c-2.07,9.31-3.86,16.36,4.63,20.24-2.63,3.5-5.09,8-4.14,11.17,1.26-3,4.27-9.21,7.84-8.91,4.41.37,5.74,4.94,5.17,11.86,1.1-3.59,3.44-9.64,6.8-9.7,4.17-.07,4.77,6.89,4.91,10.48l.07,0c.67-3.44,2.18-9.17,4.84-9.79,3-.69,5.42,3.76,6.52,7.63a1.13,1.13,0,0,0,0-.4c9-1.36,14.68-3.25,12.47-6.19s-4-4.82-1.57-5.87,5.79-3.63,1.31-19.6-10.82-23.32-12.5-35.2c15.37,1,37,2,51.53-18.73,0,0,2.15,4.75,1.45,16.36s-1.68,23.9-3.22,31.87c-1.39,7.41-1.54,7.55,3.5,9.92-4.14,5.36-4.25,9.34-2.08,11.3.86-2.65,3.16-8.88,5.56-8.68,2.8.24,4.42,5.8,3,11.63.6.12,1.22.24,1.86.35.3-2.73,1.37-9.34,4.68-9.89,3.93-.65,5.86,4.38,5.49,10.56.59,0,1.18-.07,1.78-.12-.19-3.05-.32-9.53,1.87-10.26,2.56-.85,5.52,4.29,6.2,8.56a26.07,26.07,0,0,0,6.53-3.37c5.17-4.61,5.32-7.69,3.78-12.72,2.66-3.21,2.8-4.47.7-10.2s-8.94-28.12-9.58-35.71,3.85-16.43,4.13-33.2-10.07-29.91-17.33-45.29c17.61,15.38,33.27,23.2,35.78,42.77C313.76,130.08,316.25,129.28,315.8,126.33Z"/><g class="cls-9"><path class="cls-23" d="M131.21,136.07c5.61-4.21,5.61-10.86,7.36-11.56,8.06-3.51,5.6-13.32,12.27-16.47s9.11,4.55,16.12,12.26,15.77,1.4,28.39-8.76c11.21-8.41,15.76-17.17,14.71-23.48,6-.35,15.77-15.77,21-29.43a21.36,21.36,0,0,1,8.7-11,35.73,35.73,0,0,0-11.26,2.58c-21.25,10.06-91.27,37.46-91.27,37.46s-25.44,17.89-15.8,68.77a115.31,115.31,0,0,1-.58,27.41c4.81-5.76,5.71-13.68,6.85-25.06C129.11,144.83,128.41,138.88,131.21,136.07Z"/></g><path class="cls-24" d="M57.28,165.33a8.18,8.18,0,0,0,1.06-3,2.88,2.88,0,0,0-3-1.71c-1.79.3-6-.75-9.85-.3s-8.21,5.52-8.21,5.52c-1,1.38-.76,2.17,0,2.8a17.3,17.3,0,0,0,6.31.87C52.58,169.54,55.84,167.85,57.28,165.33Z"/><path class="cls-25" d="M230.47,46c-.21-5.66-3.36-7.13-9.64-6.92s-12.37-2.1-23.27-9.23-23.2-15.07-34.39-13.69-18.45,14.11-25.57,20.19-20.13-2.72-29.77-2.51S82.23,45.16,74.06,51.24,67.13,68.44,66.51,80,69,93.81,79.3,101.56c-5.24,19.71-3.15,33.13,2.31,41.31s10,14,9.68,23.89-11.94,18.35-23.43,14.92S58.16,170,58.75,166a6,6,0,0,0-.41-3.66,8.18,8.18,0,0,1-1.06,3c-1.44,2.52-4.69,4.21-13.71,4.21a17.3,17.3,0,0,1-6.31-.87c1.25,1.05,4,1.64,5.14,3.77s2.31,15.1,19.5,23.27,39.2,4.61,52.21-9.64,10.27-37.53,10.9-48.85,8.6-15.1,10.69-15.51,3.77-.21,3.77-4.4c0-2.85-.42-5.45,3.57-9.23,4.61-4.61,11.53-10.27,11.53-10.27s9.44,18.87,15.52,21,15.3-3.14,16.56-5.45c.8-1.48-.28-3.38-1.17-4.56-.56-.61-.93-1.1-.93-1.1a11.46,11.46,0,0,1,.93,1.1c.9,1,2.31,2.25,3.47,2.25,1.89,0,6.08-2.94,11.12-8.39s7.34-11.74,6.71-13.42S202,84.37,202,84.37s5.87,4.4,10.07-.42,9-12.16,8.8-14.68-6.29-5.45-6.29-5.45,5,2.1,7.76,2.31,5.24-6.71,5-9-4.61-3.77-4.61-3.77l6.5.84S230.68,51.66,230.47,46Z"/><path class="cls-26" d="M185.17,109c-.57-.62-.94-1.11-1-1.13l.64-.55a12.58,12.58,0,0,1,1,1.14Z"/><path class="cls-27" d="M122.5,88.54s5.19-6,12.93-5.1c-.82-1.55-4.64-.82-4.64-.82s6.12-5,1.93-16.26-15.1-11.53-19.09-4.93-3.24,22.23,9.12,24A4.12,4.12,0,0,0,122.5,88.54Z"/><path class="cls-28" d="M83.9,94.35S75.35,86,80.21,75.29c2.88-4.59,8.36-5.49,12.68.27,3.24,4,3,9.8,3,9.8S90.19,86.79,83.9,94.35Z"/><path class="cls-29" d="M132.25,69.27c1.63,7-1.31,13.73-6.58,15s-10.87-3.48-12.5-10.52,1.31-13.74,6.58-15S130.61,62.23,132.25,69.27Z"/><path class="cls-30" d="M130.25,68.87c1.69,5,.59,10.65-2.45,12.61s-6.89-.53-8.58-5.55-.6-10.65,2.45-12.61S128.56,63.86,130.25,68.87Z"/><path class="cls-31" d="M128.57,70.16c1.11,3.33.39,7.08-1.63,8.37s-4.58-.35-5.7-3.67-.39-7.07,1.63-8.38S127.44,66.83,128.57,70.16Z"/><path class="cls-32" d="M128,66.48c1,1.78,1,4.1,0,5.14s-2.58.46-3.57-1.32-1-4.09,0-5.14S127,64.7,128,66.48Z"/><path class="cls-33" d="M106.58,59.33s8.56-13.51,18.23-10.92C118.85,40.42,111.3,40.09,106.58,59.33Z"/><path class="cls-33" d="M91.25,67.6S83.38,61.41,78,69.17C79.82,59.74,85.48,59.21,91.25,67.6Z"/><path class="cls-26" d="M185.17,109c-.57-.62-.94-1.11-1-1.13l.64-.55a12.58,12.58,0,0,1,1,1.14Z"/><path class="cls-34" d="M228.51,40.78C211.12,49.16,186.39,33.56,178,29c-8.72-4.77-13.9,2.07-22.82,12-11.2,16.8-9.34,27.59,0,35.48s5.19,13.28-.66,21.3c0,0,9.44,18.87,15.52,21s15.3-3.14,16.56-5.45c.8-1.48-.28-3.38-1.17-4.56-.56-.61-.93-1.1-.93-1.1a11.46,11.46,0,0,1,.93,1.1c.9,1,2.31,2.25,3.47,2.25,1.89,0,6.08-2.94,11.12-8.39s7.34-11.74,6.71-13.42S202,84.37,202,84.37s5.87,4.4,10.07-.42,9-12.16,8.8-14.68-6.29-5.45-6.29-5.45,5,2.1,7.76,2.31,5.24-6.71,5-9-4.61-3.77-4.61-3.77l6.5.84s1.47-2.51,1.26-8.18C230.38,43.54,229.73,41.87,228.51,40.78Z"/><path class="cls-35" d="M164.73,114.15a12.51,12.51,0,0,1-1.32-3.41,19.25,19.25,0,0,1,.18-8.58,19.92,19.92,0,0,1,5.06-9.57c1.84-2,4.06-4.21,4.58-7s-.82-5.4-2.39-7.57c-1.45-2-3.17-3.81-4.47-5.89a14.47,14.47,0,0,1-1.94-6.17c-1-9.06,4.57-16.18,12.52-19.93,4-1.87,8.31-2.94,12.66-1.69S198,48.18,202.23,50c6.84,2.88,14.9,2.34,21.84,0A31.62,31.62,0,0,0,230.49,47c0-.33,0-.68,0-1-.09-2.46-.74-4.14-2-5.22C211.12,49.16,186.39,33.56,178,29c-8.72-4.77-13.9,2.07-22.82,12-11.2,16.8-9.34,27.59,0,35.48s5.19,13.28-.66,21.3C154.57,97.79,159.63,107.92,164.73,114.15Z"/><path class="cls-36" d="M122.44,122.43s-4.45,8.82-10.8,13.77c-3.66,2.38.5,3.36,7.14,2.08s14.76-7.63,16.44-16.55a6.56,6.56,0,0,0-9.81-2A19,19,0,0,0,122.44,122.43Z"/><g class="cls-37"><path class="cls-38" d="M124.62,106.19a30.91,30.91,0,0,1-.09,3.1q-.11,1.55-.36,3.09c-.08.51-.18,1-.29,1.53s-.23,1-.38,1.52-.32,1-.5,1.5l-.33.73-.41.71,0,0,0,0a7.76,7.76,0,0,0-1,1.06,3.42,3.42,0,0,0-.37.6,2.63,2.63,0,0,0-.21.64,1.4,1.4,0,0,0,0,.33,1.1,1.1,0,0,0,.07.32,1.25,1.25,0,0,0,.38.55,1.74,1.74,0,0,0,.62.35,2.77,2.77,0,0,0,.73.15,2.58,2.58,0,0,1-.78,0,2.09,2.09,0,0,1-.75-.27,1.62,1.62,0,0,1-.58-.61,1.19,1.19,0,0,1-.15-.41,1.93,1.93,0,0,1,0-.43,2.64,2.64,0,0,1,.16-.83,4.78,4.78,0,0,1,.37-.74,6.16,6.16,0,0,1,.47-.66c.18-.2.36-.39.55-.58l-.06.07.34-.64.28-.68c.16-.48.33-1,.45-1.44.29-1,.51-2,.73-3s.42-2,.6-3Z"/><path class="cls-39" d="M123.29,37.35s.4.11,1.09.32,1.68.52,2.85.95,2.53.91,4,1.49,3,1.25,4.46,1.95,3,1.45,4.33,2.23c.69.37,1.33.76,1.93,1.15s1.17.75,1.67,1.11l.73.52.63.52a11.43,11.43,0,0,1,1,.87l.78.83-.89-.7a11,11,0,0,0-1.06-.74c-.41-.29-.9-.58-1.42-.89s-1.1-.66-1.73-1-1.28-.67-2-1-1.41-.69-2.13-1.06-1.47-.71-2.21-1.05c-1.48-.71-3-1.39-4.39-2l-3.85-1.74-2.73-1.23Z"/></g><g class="cls-9"><path class="cls-40" d="M164.78,132.46a16,16,0,0,0,.06,1.72c0,.54.08,1.2.19,2s.2,1.6.36,2.53.3,1.93.54,3,.42,2.16.71,3.29l.84,3.51,1,3.59c.16.61.33,1.22.48,1.82s.3,1.21.45,1.81l.86,3.51c.56,2.28,1,4.42,1.44,6.25.21.92.4,1.76.55,2.51s.24,1.41.33,2l.28,1.7s-.16-.61-.43-1.67c-.14-.53-.3-1.17-.48-1.91s-.45-1.57-.7-2.46c-.5-1.82-1.11-3.92-1.7-6.2l-.92-3.5c-.15-.6-.31-1.2-.47-1.8s-.34-1.2-.51-1.79c-.32-1.22-.64-2.43-1-3.62l-.8-3.55c-.28-1.15-.41-2.28-.6-3.35s-.3-2.08-.4-3c0-.47-.11-.92-.14-1.35s0-.84-.06-1.22c-.05-.76,0-1.43,0-2s0-1,.05-1.28S164.78,132.46,164.78,132.46Z"/><path class="cls-41" d="M159.46,137.63s.07.14.21.37.35.54.58.91c.11.19.28.37.42.58s.3.43.48.63.36.42.54.64a4.84,4.84,0,0,0,.6.63l.6.64.64.54c.21.17.41.36.6.53a6.51,6.51,0,0,0,.57.43,14.31,14.31,0,0,1,1.18.95,14.25,14.25,0,0,1-1.43-.53,4.13,4.13,0,0,1-.67-.33c-.22-.14-.46-.3-.69-.47s-.49-.33-.73-.52l-.66-.65a6.33,6.33,0,0,1-.62-.7c-.19-.24-.35-.5-.52-.73a4.19,4.19,0,0,1-.41-.73,5.7,5.7,0,0,1-.31-.68c-.08-.22-.14-.42-.2-.6a3.34,3.34,0,0,1-.11-.48A2.82,2.82,0,0,1,159.46,137.63Z"/><path class="cls-42" d="M136.54,143.36l2,2.93c.58.89,1.29,1.89,2,3,.37.54.77,1.09,1.17,1.66s.82,1.12,1.24,1.68c.83,1.13,1.71,2.22,2.53,3.24l1.22,1.44,1.14,1.25c.38.36.72.71,1,1s.58.54.81.75l.72.66-.82-.53c-.25-.18-.58-.37-.91-.65s-.73-.56-1.14-.91l-1.26-1.17c-.43-.43-.88-.89-1.34-1.38s-.9-1-1.34-1.55-.88-1.1-1.31-1.67c-.83-1.14-1.65-2.31-2.35-3.44s-1.31-2.21-1.83-3.13C137.08,144.67,136.54,143.36,136.54,143.36Z"/><path class="cls-43" d="M203.21,116.24s.54.74,1.35,2.12a45.15,45.15,0,0,1,2.91,6c.5,1.28,1,2.69,1.44,4.21.22.76.43,1.54.6,2.36.09.41.19.82.26,1.23s.12.85.19,1.27a33.84,33.84,0,0,1,.35,5.32c0,.91-.13,1.83-.18,2.75s-.21,1.81-.32,2.72c-.23,1.81-.45,3.62-.68,5.41s-.38,3.54-.58,5.24-.32,3.35-.41,4.91-.2,3-.2,4.41c0,.68,0,1.34,0,2s0,1.21,0,1.77c0,1.11,0,2.08.12,2.88.11,1.59.18,2.5.18,2.5l-.35-2.49c-.12-.79-.19-1.76-.27-2.87,0-.56-.1-1.15-.12-1.78s0-1.29,0-2c0-1.37,0-2.86.06-4.44s.17-3.23.29-4.94.31-3.48.52-5.27.42-3.6.62-5.42c.12-.9.23-1.81.35-2.71s.19-1.78.2-2.67a32.72,32.72,0,0,0-.28-5.21l-.17-1.25c-.08-.41-.16-.81-.23-1.22-.14-.8-.32-1.59-.52-2.34a41.26,41.26,0,0,0-1.29-4.2c-.46-1.28-.94-2.44-1.38-3.46s-.87-1.89-1.24-2.6-.66-1.26-.88-1.63Z"/><path class="cls-44" d="M209.51,116.92s.14.29.36.81a22.15,22.15,0,0,1,.76,2.21,26.55,26.55,0,0,1,.73,3.23c.08.6.2,1.22.23,1.86s.11,1.28.12,1.93,0,1.3,0,1.93-.1,1.26-.15,1.87a16.65,16.65,0,0,1-.26,1.73,12.72,12.72,0,0,1-.35,1.53c-.12.46-.24.9-.36,1.27s-.26.69-.35,1c-.2.53-.32.82-.32.82s0-.32.16-.87c.06-.27.12-.61.21-1s.11-.82.19-1.29.16-1,.2-1.52.13-1.11.16-1.7c.07-1.18.12-2.45.07-3.71s-.13-2.53-.25-3.71-.28-2.28-.46-3.22-.32-1.72-.45-2.27S209.51,116.92,209.51,116.92Z"/><path class="cls-45" d="M259.71,153.93l.54-1.08c.36-.68.81-1.68,1.37-2.86.27-.6.58-1.24.87-1.93s.6-1.42.91-2.18.6-1.55.92-2.35.57-1.63.86-2.46.53-1.66.76-2.48.46-1.64.62-2.44.37-1.56.47-2.3.25-1.44.31-2.09.1-1.25.16-1.78,0-1,0-1.38c0-.77,0-1.21,0-1.21s.05.43.14,1.2c0,.38.11.85.11,1.39s0,1.14,0,1.81-.11,1.38-.17,2.13-.22,1.55-.35,2.37-.36,1.65-.57,2.5-.49,1.68-.74,2.53-.58,1.67-.9,2.48-.65,1.6-1,2.35-.68,1.48-1,2.15-.7,1.3-1,1.88A40.08,40.08,0,0,1,259.71,153.93Z"/></g><path class="cls-46" d="M302.39,139.94a2.61,2.61,0,0,1,.1-.89,3,3,0,0,1,.12-.41,3.34,3.34,0,0,1,.18-.44,5,5,0,0,1,.56-.89l.35-.4a3,3,0,0,1,.39-.35,3.43,3.43,0,0,1,.76-.5,4.39,4.39,0,0,1,.84-.31,5.25,5.25,0,0,1-.54.69c-.18.17-.34.42-.54.65a9.19,9.19,0,0,0-.59.73c-.22.23-.38.52-.59.75l-.51.68C302.62,139.65,302.39,139.94,302.39,139.94Z"/><path class="cls-47" d="M120.68,230.39c-3.84,1.18-5.72,9.31-5.72,9.31,1.66,2.48,8.69,1.45,10.14.21C126.38,235.56,124.52,229.2,120.68,230.39Z"/><path class="cls-48" d="M110.84,229.11a5.44,5.44,0,0,0-3,.89c-2.78,3.62-4.44,7.76-1.52,9.29a10.92,10.92,0,0,0,8.69.41C115.56,235.83,113.69,229.3,110.84,229.11Z"/><path class="cls-49" d="M131,230.39c-3.35.49-5.91,9.52-5.91,9.52,3.72,2.69,8.89.41,9.72-1.24C134.83,238.67,134.36,229.9,131,230.39Z"/><path class="cls-1" d="M196.87,242.29c0-.1,0-.21.06-.31l-.07,0C196.86,242.07,196.86,242.18,196.87,242.29Z"/><path class="cls-50" d="M201.76,232.19c-2.66.61-4.16,6.34-4.84,9.79,5.19,1.9,11.14-.17,11.35-2.15C207.18,235.95,204.8,231.49,201.76,232.19Z"/><path class="cls-51" d="M180,229.31c-3.56-.3-6.58,5.88-7.84,8.91a4.93,4.93,0,0,0,3.51,3.19c6,2,8.6.64,9.43,0,0-.07,0-.15.06-.22C185.7,234.25,184.37,229.69,180,229.31Z"/><path class="cls-52" d="M191.94,231.47c-3.37.06-5.71,6.11-6.8,9.7,0,.06,0,.12,0,.17l.16-.14c.95,2.52,9,3.46,11.53.73h0C196.71,238.36,196.12,231.4,191.94,231.47Z"/><g class="cls-9"><path class="cls-53" d="M130.63,189.71c-1.44-1.66-5.24-1.14-6.88-.26-.07,0-.2.34-.07.36a26.53,26.53,0,0,0,3.11-.1,22.39,22.39,0,0,1,3.53.71C130.61,190.47,130.78,189.88,130.63,189.71Z"/><path class="cls-54" d="M129.68,196.12c-.89-.06-1.79.19-2.68.22a15.88,15.88,0,0,1-2.87-.42c-.16,0-.3.39-.15.43a14.63,14.63,0,0,0,2.81.76,8.27,8.27,0,0,0,2.76-.33C129.76,196.72,130,196.13,129.68,196.12Z"/><path class="cls-55" d="M131.54,200.75c-3.72.66-8.14-.88-11.31-2.77-.08,0-.19.21-.11.27,3,2.3,7.55,4.16,11.35,2.9C131.59,201.11,131.71,200.72,131.54,200.75Z"/></g><g class="cls-9"><path class="cls-56" d="M193.62,193.43a18.07,18.07,0,0,1-4.4-.1c-.12,0-.23.29-.11.34a7.18,7.18,0,0,0,4.4.32C193.7,194,193.87,193.43,193.62,193.43Z"/><path class="cls-57" d="M195.51,196c-3.64.92-8.22,1.34-11.85.16-.09,0-.15.18-.08.22,1.59,1,3.53,1,5.35,1a14.55,14.55,0,0,0,6.53-.9C195.59,196.43,195.71,195.91,195.51,196Z"/><path class="cls-58" d="M203.34,198.67c-6.82,3.74-16.21,4.14-23.15.4-.07,0-.14.16-.09.19,6.34,4.58,16.75,4.48,23.2.2C203.52,199.32,203.7,198.46,203.34,198.67Z"/></g><g class="cls-9"><path class="cls-59" d="M281.14,174.49c-3.74.89-7.85,1.32-11.43-.54-.18-.1-.4.48-.2.6a12.26,12.26,0,0,0,11.56.56C281.2,175,281.39,174.43,281.14,174.49Z"/><path class="cls-60" d="M278.34,179.92c-2.43.47-4.89.7-7.14-.52-.1,0-.21.25-.13.31a8.53,8.53,0,0,0,7.14.89C278.44,180.54,278.61,179.87,278.34,179.92Z"/></g><path class="cls-61" d="M44.23,164a5.94,5.94,0,0,0-2.9,1.1c-.82.86,0,2.53,3.14,1S45.37,163.87,44.23,164Z"/><path class="cls-62" d="M51.31,163.42s-2.73,1-2.48,2.2,2.44.31,3.53-.63S53.54,163,51.31,163.42Z"/><g class="cls-63"><path class="cls-64" d="M94.43,82.17c1.2,6-1,11.53-4.87,12.31S81.53,91,80.32,85s1-11.54,4.87-12.32S93.22,76.15,94.43,82.17Z"/><path class="cls-65" d="M93.46,80.12c1.93,4.3,1.45,9.39-1.08,11.39s-6.15.13-8.09-4.17-1.45-9.39,1.08-11.38S91.53,75.83,93.46,80.12Z"/><path class="cls-66" d="M92.08,81.41c1.28,2.85,1,6.23-.71,7.56s-4.08.09-5.37-2.76-1-6.24.72-7.56S90.79,78.56,92.08,81.41Z"/><path class="cls-67" d="M91.22,78.2c1,1.5,1.24,3.54.46,4.56s-2.25.63-3.28-.87-1.24-3.54-.46-4.55S90.19,76.7,91.22,78.2Z"/></g><g class="cls-37"><path class="cls-68" d="M119.89,90.78c-6.26-6-17-10-27-4.57C86.19,89.82,82.55,95,79,101.23c-.07.12,0,.42.13.21a53.87,53.87,0,0,1,5.41-6.91c2.51-2.91,4.86-5.37,8.26-7.21,9.75-5.29,20.54.37,27.71,4.48C120.88,92,120.13,91,119.89,90.78Z"/><path class="cls-69" d="M98.23,100.86a18.29,18.29,0,0,0-20.45,6.58c-.15.22-.12.86.19.46,2.06-2.61,4.92-4.14,7.9-5.45,4.24-1.84,7.64-1.44,12-.61C98.26,101.92,98.59,101,98.23,100.86Z"/><path class="cls-70" d="M94.5,109a17.68,17.68,0,0,0-15.87,5.51c-.13.14-.21.76.07.51,4.66-4.23,9.44-5.57,15.63-5.39C94.53,109.65,94.71,109,94.5,109Z"/><path class="cls-71" d="M91.09,115.77c-3.72.48-7.63,1.39-10.45,4-.06.06-.09.32,0,.22,2.79-2.47,6.72-3.29,10.31-3.72C91.18,116.27,91.3,115.74,91.09,115.77Z"/><path class="cls-72" d="M99.64,132.48c-2.69-1.1-6.71.09-9.28,1.17A17.53,17.53,0,0,0,83,139c-.08.09-.08.48.08.31,4.15-4.64,10.36-6.29,16.37-6.13C99.67,133.14,99.85,132.57,99.64,132.48Z"/><path class="cls-73" d="M94.55,138.92a6.59,6.59,0,0,0-4.39,2.29c0,.06-.07.29.05.19a10.64,10.64,0,0,1,4.23-1.92C94.62,139.43,94.79,138.89,94.55,138.92Z"/><path class="cls-74" d="M97.23,152.6c-2.06-.66-4,.42-5.48,1.75-.07.06-.14.43,0,.33a8.41,8.41,0,0,1,2.5-1.1c.91-.22,1.86-.15,2.78-.31C97.25,153.24,97.47,152.68,97.23,152.6Z"/><path class="cls-75" d="M105.24,163.71c-4.46-1.85-9.76-1.88-13.71,1.25-.12.09-.21.66,0,.51,4.08-2.59,9-2.36,13.39-.88C105.25,164.69,105.54,163.84,105.24,163.71Z"/><path class="cls-76" d="M98.18,170.63a6.77,6.77,0,0,0-2.67-1.18A5.22,5.22,0,0,0,93,170c-.1,0-.2.34-.06.32a6.29,6.29,0,0,1,2.67,0,14.35,14.35,0,0,1,2.38,1C98.18,171.41,98.38,170.77,98.18,170.63Z"/><path class="cls-77" d="M95.32,181.18a7.87,7.87,0,0,0-7-3.61c-.13,0-.25.39-.11.41a10.44,10.44,0,0,1,6.69,3.94C95.16,182.19,95.48,181.4,95.32,181.18Z"/><path class="cls-78" d="M85.29,181.31c-.16-.15-.36.35-.24.48.46.48.93,1,1.35,1.46A12.1,12.1,0,0,1,87.54,185c.14.23.32-.23.3-.36C87.61,183.2,86.31,182.25,85.29,181.31Z"/><path class="cls-79" d="M76.49,189.62a10.1,10.1,0,0,1-.6-3.85c0-.32-.27-.07-.3.11a9.65,9.65,0,0,0,.44,4.39C76.14,190.64,76.57,189.88,76.49,189.62Z"/><path class="cls-80" d="M71.34,185.44a6.21,6.21,0,0,1-1.94,3.88c-.1.11-.32.81,0,.64,1.62-.76,2.32-3.11,2.31-4.75C71.73,184.75,71.35,185.2,71.34,185.44Z"/><path class="cls-81" d="M63.31,182.59a15.24,15.24,0,0,1-2.46,1.72,5.47,5.47,0,0,1-2.63,1c-.22,0-.42.55-.21.6a4.79,4.79,0,0,0,2.5-.68,8.43,8.43,0,0,0,2.89-2C63.58,183.07,63.69,182.26,63.31,182.59Z"/><path class="cls-82" d="M59.39,179.66c-.86.5-1.65,1.42-2.69,1.55-.16,0-.3.49-.09.49a4.51,4.51,0,0,0,2.8-1.62C59.48,180,59.6,179.53,59.39,179.66Z"/></g><g class="cls-9"><path class="cls-83" d="M300.64,199.13c-2.1-5.73-8.94-28.12-9.58-35.71s3.85-16.43,4.13-33.2-10-29.87-17.3-45.21c-3.71-4.31-6.89-8.13-6.89-8.13,5,9.3,15.71,26,19.91,44.41s-1.68,43.62-14.4,46.69c-10.93,2.64-12-8.95-8.11-20.13s3.36-18.18-.56-24.6c-.55,15.38-12.58,37.18-34.1,36.62S213.9,142,214.17,126.33c.2-11.2-6.43-14.54-6.43-14.54s2.23,6.43,2.23,9.78-2-3.63-7.83-6.71c4.48,8.67,3.92,20.69,2.52,34.39s-.35,36.83-15,34.53-19.84-35.7-23.1-56.27c-3.26,4.07-1,13.24-2.85,12.63s-5.71-6.93-5.71-6.93-2,2.45,3.67,10,8.07,22.14-2,17.94-19.29-15.1-24.75-21.81c-1.67,9.65,5.83,18.92,7.13,30.34,2.29,20.11-16.59,19.57-21.19,14.25a83.8,83.8,0,0,1-5.21,21.61,11.47,11.47,0,0,1,3.43-3.17c2.89-1.59,7.1-1.22,10.13-.19,3.52,1.2,5.2,3.69,6.39,7.13.83,2.44,2.07,6,1.21,8.62-2.3,6.91-12.35,8.13-18.36,6.19a21.57,21.57,0,0,1-9.07-5.83c-1.82,3.44-.77,4.39,2.92,7.16A26,26,0,0,0,107.8,230a5.44,5.44,0,0,1,3-.89c2.86.2,4.72,6.72,4.13,10.59,0,0,1.87-8.13,5.72-9.31s5.7,5.17,4.42,9.52c0,0,2.56-9,5.91-9.52s3.81,8.28,3.81,8.28c9.3-.21,20.27-3.31,9.72-12.2,4.14-3.93,6.62-27.51,6.2-39.3s-.82-26.27-.82-26.27S164.61,171,172.68,171a83.91,83.91,0,0,1-1,35.78c-.3,1.32-.58,2.6-.84,3.83.59-1,1.17-2,1.79-3,2.26-3.41,5-5.28,9.29-4.53,2.76.48,5.23,2,8,2.52a35.17,35.17,0,0,0,10.32.35c3.55-.36,7.83-1.76,9.89,2.1a12.82,12.82,0,0,1-.14,12.45c-1.93,3.57-6.17,5.35-9.91,6.25a45.76,45.76,0,0,1-15.1,1.34,33.89,33.89,0,0,1-12.5-3.69,12.41,12.41,0,0,0,3.85,2.61c-2.63,3.5-5.09,8-4.14,11.17,1.26-3,4.27-9.21,7.84-8.91,4.41.37,5.74,4.94,5.17,11.86,1.1-3.59,3.44-9.64,6.8-9.7,4.17-.07,4.77,6.89,4.91,10.48l.07,0c.67-3.44,2.18-9.17,4.84-9.79,3-.69,5.42,3.76,6.52,7.63a1.13,1.13,0,0,0,0-.4c9-1.36,14.68-3.25,12.47-6.19s-4-4.82-1.57-5.87,5.79-3.63,1.31-19.6-10.82-23.32-12.5-35.2c15.37,1,37,2,51.53-18.73,0,0,2.15,4.75,1.45,16.36-.46,7.59-1,15.48-1.81,22.27,1-2.75,1.91-5.56,4-7.63,5.11-5.11,16.85-4.71,21.17,1.33,4,5.6,6.4,16,1.73,21.89-4.54,5.74-12.35,6-18.91,4.09a35.67,35.67,0,0,1-10.2-4.79c-.09,2.44,1,3,4.32,4.63-4.14,5.36-4.25,9.34-2.08,11.3.86-2.65,3.16-8.88,5.56-8.68,2.8.24,4.42,5.8,3,11.63.6.12,1.22.24,1.86.35.3-2.73,1.37-9.34,4.68-9.89,3.93-.65,5.86,4.38,5.49,10.56.59,0,1.18-.07,1.78-.12-.19-3.05-.32-9.53,1.87-10.26,2.56-.85,5.52,4.29,6.2,8.56a26.07,26.07,0,0,0,6.53-3.37c5.17-4.61,5.32-7.69,3.78-12.72C302.6,206.12,302.74,204.86,300.64,199.13Z"/></g><g class="cls-84"><path class="cls-85" d="M92.31,153.74c-1.64-5.06-5.67-9.72-8.45-14.22-3.38-5.48-5.87-11.89-5.7-18.34a99.27,99.27,0,0,1,1.95-17.3c.07-.32-.23-.27-.3,0-2.39,9.73-4,19.22-.7,28.91a66.74,66.74,0,0,0,8.18,15.56c4.17,6.21,5.32,12.26,6.43,19.53.13.87.91-.31.9-.73A50.47,50.47,0,0,0,92.31,153.74Z"/><path class="cls-86" d="M92.33,171.3c0-.4-.33,0-.33.21-.28,6.84-8.1,10.27-13.93,11.14-.51.08-.86,1.55-.24,1.5C84.41,183.61,92.65,178.63,92.33,171.3Z"/></g><path class="cls-87" d="M78.55,97.87c-2-1.82-4.21-3.28-6-5.28s-3.11-5.74-3.65-8.31c-1.19-5.69.77-11.6-.2-17.32-.06-.36-.37.17-.35.36.84,6.75-1.63,13.52.21,20.23A19.09,19.09,0,0,0,78,99.35C78.46,99.61,78.89,98.18,78.55,97.87Z"/><path class="cls-88" d="M188.74,179.06c-4.62-2.09-7-5.6-9.12-10.08a98,98,0,0,1-5.83-15.07,117.81,117.81,0,0,1-3.52-14.3A73.88,73.88,0,0,0,168,128.47c-.13-.41-.6.4-.53.66,1.33,4.69,1.61,9.49,2.3,14.3a74.79,74.79,0,0,0,3.89,14.83c2.77,7.57,5.62,20.14,14.49,22.69C188.85,181.15,189.39,179.35,188.74,179.06Z"/><path class="cls-89" d="M179.16,224.33c-4.87-2.17-7.58-5.23-6.82-11,.33-2.53,2.36-4.7,2.39-7.22,0-.34-.3-.07-.32.13-.13,1.55-1.38,3-2,4.42a14.57,14.57,0,0,0-1.16,6.65c.2,4.06,3.22,8.28,7.45,8.52C179.25,225.84,179.7,224.57,179.16,224.33Z"/><path class="cls-90" d="M196.68,178.5c-1.56.63-3.23,2.19-5,1.61-.35-.12-.62.81-.3,1,1.83,1,3.57-.5,5.18-1.23C197,179.68,197.13,178.32,196.68,178.5Z"/><path class="cls-91" d="M243.17,157.72c-7.77,1.38-15.39.08-21.45-5.54-5.9-5.47-5.12-17.86-5.22-25.15,0-.53-.46,0-.46.29-.1,7.32-.93,17.9,3.38,24.35,5.19,7.76,15.19,8.85,23.56,6.47C243.49,158,243.8,157.6,243.17,157.72Z"/></g></g></svg>