<svg xmlns="http://www.w3.org/2000/svg" xmlns:xlink="http://www.w3.org/1999/xlink" viewBox="0 0 226.32 325.23"><defs><style>.cls-1{isolation:isolate;}.cls-2{fill:#6c260d;}.cls-3{fill:url(#radial-gradient);}.cls-4{fill:#bb6323;}.cls-5,.cls-8{fill:#d38401;}.cls-5,.cls-7{opacity:0.7;}.cls-19,.cls-22,.cls-5,.cls-7{mix-blend-mode:multiply;}.cls-6{fill:url(#radial-gradient-2);}.cls-9{fill:url(#radial-gradient-3);}.cls-10{fill:url(#radial-gradient-4);}.cls-11{fill:url(#radial-gradient-5);}.cls-12{fill:url(#radial-gradient-6);}.cls-13{fill:url(#radial-gradient-7);}.cls-14{fill:url(#radial-gradient-8);}.cls-15{fill:#d77c09;}.cls-16{fill:url(#linear-gradient);}.cls-17{fill:url(#linear-gradient-2);}.cls-18{fill:url(#radial-gradient-9);}.cls-19{fill:url(#radial-gradient-10);}.cls-20{fill:url(#linear-gradient-3);}.cls-21{fill:url(#radial-gradient-11);}.cls-22{fill:url(#radial-gradient-12);}.cls-23{fill:url(#linear-gradient-4);}.cls-24{fill:#010000;}.cls-25{fill:#ce6f05;}.cls-26{fill:#602517;}.cls-27,.cls-29,.cls-30,.cls-31,.cls-32,.cls-33{mix-blend-mode:screen;}.cls-27{fill:url(#radial-gradient-13);}.cls-28{fill:#622715;}.cls-29{fill:url(#radial-gradient-14);}.cls-30{fill:url(#radial-gradient-15);}.cls-32{fill:url(#radial-gradient-16);}.cls-33{fill:url(#radial-gradient-17);}</style><radialGradient id="radial-gradient" cx="4940.75" cy="276.21" r="71.65" gradientTransform="matrix(-1, 0, 0, 1, 5040.35, 0)" gradientUnits="userSpaceOnUse"><stop offset="0.39" stop-color="#fbb30f"/><stop offset="1" stop-color="#cf6d0a"/></radialGradient><radialGradient id="radial-gradient-2" cx="4850.96" cy="254.92" r="87.14" xlink:href="#radial-gradient"/><radialGradient id="radial-gradient-3" cx="4973.47" cy="152.83" r="170.17" xlink:href="#radial-gradient"/><radialGradient id="radial-gradient-4" cx="4826.43" cy="49.95" r="25.4" xlink:href="#radial-gradient"/><radialGradient id="radial-gradient-5" cx="4907.7" cy="41.52" r="24.48" xlink:href="#radial-gradient"/><radialGradient id="radial-gradient-6" cx="4822.23" cy="53.99" r="16.59" gradientTransform="matrix(-1, 0, 0, 1, 5040.35, 0)" gradientUnits="userSpaceOnUse"><stop offset="0.12" stop-color="#ee817e"/><stop offset="0.86" stop-color="#cc585b"/></radialGradient><radialGradient id="radial-gradient-7" cx="4913.96" cy="40.5" r="20.28" xlink:href="#radial-gradient-6"/><radialGradient id="radial-gradient-8" cx="4858.78" cy="68.12" r="55.47" xlink:href="#radial-gradient"/><linearGradient id="linear-gradient" x1="5499.08" y1="712.79" x2="5510.2" y2="712.79" gradientTransform="matrix(-0.85, -0.17, -0.13, 1.15, 4950.16, 186.23)" gradientUnits="userSpaceOnUse"><stop offset="0" stop-color="#fff"/><stop offset="0.84" stop-color="#eaeaea"/><stop offset="1" stop-color="#e5e5e5"/></linearGradient><linearGradient id="linear-gradient-2" x1="5488.33" y1="847.84" x2="5499.45" y2="847.84" gradientTransform="matrix(-0.84, -0.2, -0.18, 1.15, 4941.67, 207.68)" xlink:href="#linear-gradient"/><radialGradient id="radial-gradient-9" cx="5079.27" cy="2347.8" r="12.45" gradientTransform="matrix(-0.84, -0.44, -0.15, 0.86, 4781.42, 272.53)" gradientUnits="userSpaceOnUse"><stop offset="0.26" stop-color="#0bb8ff"/><stop offset="1" stop-color="#00496e"/></radialGradient><radialGradient id="radial-gradient-10" cx="4708.7" cy="3389.24" r="10.04" gradientTransform="matrix(-0.79, -0.59, -0.31, 0.76, 4949.5, 288.04)" gradientUnits="userSpaceOnUse"><stop offset="0.27" stop-color="#215673"/><stop offset="0.47" stop-color="#1f526f"/><stop offset="0.69" stop-color="#194862"/><stop offset="0.92" stop-color="#0f364c"/><stop offset="1" stop-color="#0b2e43"/></radialGradient><linearGradient id="linear-gradient-3" x1="3931.72" y1="2193.52" x2="3926.6" y2="2193.93" gradientTransform="matrix(-0.86, -0.52, -0.52, 0.86, 4679.22, 221.39)" xlink:href="#linear-gradient"/><radialGradient id="radial-gradient-11" cx="5035.06" cy="2607.89" r="12.64" gradientTransform="matrix(-0.81, -0.49, -0.2, 0.85, 4763.48, 294.87)" xlink:href="#radial-gradient-9"/><radialGradient id="radial-gradient-12" cx="4616.06" cy="3636.6" r="10.19" gradientTransform="matrix(-0.76, -0.64, -0.35, 0.74, 4930.55, 320.01)" xlink:href="#radial-gradient-10"/><linearGradient id="linear-gradient-4" x1="3808.65" y1="2404.41" x2="3803.45" y2="2404.82" gradientTransform="matrix(-0.82, -0.57, -0.57, 0.82, 4665.25, 237.03)" xlink:href="#linear-gradient"/><radialGradient id="radial-gradient-13" cx="4842.57" cy="73.28" r="55.34" xlink:href="#radial-gradient"/><radialGradient id="radial-gradient-14" cx="4848.5" cy="67.47" r="3.52" xlink:href="#radial-gradient"/><radialGradient id="radial-gradient-15" cx="4890.42" cy="142.73" r="17.99" xlink:href="#radial-gradient"/><radialGradient id="radial-gradient-16" cx="4887.15" cy="225.77" r="10.33" xlink:href="#radial-gradient"/><radialGradient id="radial-gradient-17" cx="4886.49" cy="244.31" r="1.8" xlink:href="#radial-gradient"/></defs><title>Монтажная область 63</title><g class="cls-1"><g id="Layer_1" data-name="Layer 1"><path class="cls-2" d="M31.19,255.71s2.92,1.17,5.36,5.52-.42,5.19-2.8,6.74.23,3.28,1.9,3.82c-1.31,1.25-4.06-.12-4.59-.66,3.1,3.16,3.1,4.11.71,5.42a15.32,15.32,0,0,0-3,2s-.9-.48-3.28-2-3.94-3.22.71-5.42c-3.69,1.25-4.83-.54-4.83-.54s6.08,0,1.67-5.78C21.53,262.07,27.26,255.62,31.19,255.71Z"/><path class="cls-2" d="M110.68,308.7a38.42,38.42,0,0,1,3.7,6.86c.54,1.61-2.4,3.74-8.2,3.39s-8.55-1.56-8.55-3.12a36.29,36.29,0,0,1,.35-4S106.41,308.25,110.68,308.7Z"/><path class="cls-2" d="M74.67,308.24A44.11,44.11,0,0,1,79.3,314c1.74,2.67,1.31,3.47-3.18,3.4s-9.63-1.23-9.56-3.33a20.62,20.62,0,0,1,1.59-5.58Z"/><path class="cls-2" d="M52.81,310.27s2.61,1.89,4.85,7.75c1,2.39-3,2.46-7.89,1.81s-6-2.17-5.36-4.7a34.71,34.71,0,0,1,1.38-4.27Z"/><path class="cls-3" d="M65,213c8.46,11,19.69,11.67,19.69,11.67a33.45,33.45,0,0,1-1.88,11.58c-2.17,6.22-3.48,12.74-6.66,27.95-1.6,7.64-1,24-1.41,35.84,4.35,3.8-.65,5.54-.65,5.54A11.14,11.14,0,0,1,75.69,309a12.41,12.41,0,0,1-8.69.11l.33-3.36c-1-2.07-1.09-2.93.11-4.56s.54-3.26-.11-7.82-1.85-14.12-2.17-19-.65-6.19-1.74-8.36-1.31-3.59,1.3-6.3,1.41-10.21.32-14.44-2.71-9.45-3.47-7.71C63.43,232.39,65.2,219.41,65,213Z"/><path class="cls-4" d="M71.67,269.76c-.11-3.37.43-5.32,2.17-6.08a4.89,4.89,0,0,1,2.46-.3l-.18.84a78.19,78.19,0,0,0-1.06,12.51C70.72,276.1,71.77,272.93,71.67,269.76Z"/><path class="cls-4" d="M72.32,253.68c.22-2.06,2.39-7.49,3.8-7.38.9.07,2.3,1.74,3.18,2.93-.52,2.33-1.08,5-1.73,8.09A3.83,3.83,0,0,1,72.32,253.68Z"/><path class="cls-4" d="M76.55,233.1c1.11-2.94,2.15-5.81,3.66-5.61,1,.13,2.75,2.52,3.83,4.14a33.9,33.9,0,0,1-1.25,4.65c-.78,2.24-1.45,4.51-2.14,7.21-1.12-1.25-3.05-3.42-4.17-4.58C74.85,237.21,75.44,236,76.55,233.1Z"/><path class="cls-4" d="M69.46,252.92c-.12,1.46-1.79,2.92-3.35,3.34A22.7,22.7,0,0,0,66,250C67.43,250.62,69.56,251.77,69.46,252.92Z"/><path class="cls-4" d="M69.6,235.54c.44,3.62-2.85,8.06-4.48,10,0-.11-.05-.23-.08-.34-1.08-4.24-2.71-9.45-3.47-7.71a63.34,63.34,0,0,0,2.36-10.94C67.09,229.38,69,231.87,69.6,235.54Z"/><path class="cls-5" d="M65,213c8.46,11,19.69,11.67,19.69,11.67a33.45,33.45,0,0,1-1.88,11.58c0,.09-.07.19-.1.28a12.47,12.47,0,0,0-2.27-6.63c-1.93-2.58-6.77-6.24-10.1-3.93-3,2-3,6.29-2.88,9.54.15,3.95,1,7.88.95,11.84,0,4.21-.88,8.38-1,12.59-.1,2.85-.35,6.82,1.54,9.23.58.74,2,2.37,3.17,1.72,1.37-.78,1.77-2.66,2.31-4,.71-1.76,1.49-3.5,2.3-5.23l-.54,2.57A80.9,80.9,0,0,0,75,277.27a13.55,13.55,0,0,0-3.85-4c-.06,0-.15-.1-.21,0-2.58,3.63-1.85,8.48-1.18,12.6s2.53,9.5,1.37,13.8c-.47,1.76-3.48,6.24-1.23,7.77,1.63,1.12,3.59,1.1,5.56,1l.2.52a12.41,12.41,0,0,1-8.69.11l.33-3.36c-1-2.07-1.09-2.93.11-4.56s.54-3.26-.11-7.82-1.85-14.12-2.17-19-.65-6.19-1.74-8.36-1.31-3.59,1.3-6.3,1.41-10.21.32-14.44-2.71-9.45-3.47-7.71C63.43,232.39,65.2,219.41,65,213Z"/><path class="cls-6" d="M154.17,171.88a19.54,19.54,0,0,1-2.08,6.36c-1.85,3.7-1.85,4-2.2,8.44s.93,14.23,3.58,27.41,6.21,31.44-2.19,43.75c0,4.35-.58,4.2-7.09,4.78-7.68,5.5-13.76,10.86-20,16.22-4.34,3.47-4.2,4.2-4.34,6.08s-.58,2.32-3.19,1.45c-2.18-.72-2.32.14-3.77,1.3s-1.88.29-2.32-2.89a53.76,53.76,0,0,1,0-8.69l1.16-.43s0-3.48,1.45-2.9,4.2-.15,4.2-.15,11-8.54,16.22-13.18,4.2-5.07,5.79-4.78,3-.43-.58-11.44-7.75-20.92-8.61-31.57S134.25,191.62,154.17,171.88Z"/><path class="cls-4" d="M150.12,241.63s1.3,6.23.58,8.54-2.32,3.91-4.92,1.16-2.75-4.49-1.16-6.95S148.82,237.43,150.12,241.63Z"/><path class="cls-4" d="M144.7,202.37c-1.06-4.73-1.54-5.5.39-8.2a17.23,17.23,0,0,1,4.79-4.16,145.84,145.84,0,0,0,2.39,17.83,46.83,46.83,0,0,1-4.48,3C146.25,211.63,145.76,207.09,144.7,202.37Z"/><path class="cls-4" d="M143.12,254.3c-.16.95-1.6,1.26-3.38.4.9.06,1.64-.45,1.23-3.34C141.91,252.18,143.25,253.49,143.12,254.3Z"/><path class="cls-4" d="M135.35,264.94c-2.14,1.87-7.61,3.86-7.63-.54,1.73-1.42,3.43-2.82,4.84-4.05C134.11,261.29,137.11,263.41,135.35,264.94Z"/><path class="cls-4" d="M144.62,233.52c1.19,3.7-2.09,8.12-5.53,10.52-.09-.26-.17-.53-.26-.81-1.71-5.19-3.53-10.14-5.06-15C136.44,228.66,143.56,230.24,144.62,233.52Z"/><path class="cls-4" d="M148.53,220.78c-.82-3.8,2.36-8,4.28-10.06.21,1.1.43,2.22.66,3.38a157.19,157.19,0,0,1,2.75,17c-1.35,1.1-2.95,2.16-4.07,2.09C149.83,233.08,149.68,226.13,148.53,220.78Z"/><path class="cls-4" d="M137.92,265.25c.59-.21,1.11.35,1.48.94q-2.17,1.68-4.21,3.34C135.58,267.13,136.94,265.62,137.92,265.25Z"/><path class="cls-4" d="M154.1,238.52a7.33,7.33,0,0,1,2.42-2.36,50.14,50.14,0,0,1-.69,10.06,19.65,19.65,0,0,1-1.94-3.36C153.09,240.9,152.94,240.47,154.1,238.52Z"/><path class="cls-4" d="M144,211.8s2.61,4.34,1.74,7.67-6.8,5.94-6.95,1.16S141.57,208.61,144,211.8Z"/><g class="cls-7"><path class="cls-8" d="M110.58,276.09l1.16-.43s0-3.48,1.45-2.9,4.2-.15,4.2-.15,11-8.54,16.22-13.18,4.2-5.07,5.79-4.78,3-.43-.58-11.44-7.75-20.92-8.61-31.57,4-20,24-39.77a19.54,19.54,0,0,1-2.08,6.36c-1.85,3.7-1.85,4-2.2,8.44s.93,14.23,3.58,27.41q.28,1.37.56,2.81c-1-2.64-3.46-9.31-5.49-16.28-2.61-9-10.43,4.92-7.53,17.38s2.31,37.48,7.14,37.31,8.12-7.43,8.29-17.27c0-.44,0-.84.07-1.23.11,7.58-1.14,15-5.25,21.05,0,4.26-.57,4.2-6.73,4.75a2.7,2.7,0,0,0-1.32-2.47c-2.28-1.21-5.62.81-7.51,2-3.81,2.33-7.51,5.11-11.09,7.78s-7.23,5.78-8.67,10.21c-.06.17.11.45.22.56,1.29,1.25,3.14,1.31,5,.86a4.41,4.41,0,0,0-1.38,3.44c-.14,1.88-.58,2.32-3.19,1.45-2.18-.72-2.32.14-3.77,1.3s-1.88.29-2.32-2.89A53.76,53.76,0,0,1,110.58,276.09Z"/></g><path class="cls-2" d="M151,80c-6.23,14.62-14.57,23.79-21.55,32.09a169.79,169.79,0,0,0-11.72,15.69s1.09-6.52,2.07-8.14a29.62,29.62,0,0,0,1.85-3.91l2.82.33s-.43,0-2.39-1.85c3.69-5.11,6.4-9.3,6.4-9.3l3.12,1.08-2.1-2.54L131.8,99l3.55.94a33.45,33.45,0,0,1-2.17-2.9c0-.22,6.14-9.71,6.14-9.71l5,2-3.82-4.25,4-7.63L149,78.66l-3.89-4,1.54-3.89,2.66.31a7.44,7.44,0,0,0-1.74-2.15c1.23-1.74,7.62-19.31,7.62-19.31a8.73,8.73,0,0,1,3.14,2.76,40.27,40.27,0,0,0-2.7,6.94C154.32,64.53,153.88,71.91,151,80Z"/><path class="cls-9" d="M27.17,204.41c2.9-16.08,9.42-24.91,17.38-34.18,7.83-9.1,18.39-16.36,22.88-16.51s11.44,4.2,15.78,6.81,8.4,1.16,14.19-3c7.57-5.49,9.7-6.66,12.45-14.33,2.32-6.66,7.85-15.35,7.85-15.35a169.79,169.79,0,0,1,11.72-15.69c7-8.3,15.32-17.47,21.55-32.09,2.89-8.11,3.33-15.5,4.63-20.71a40.27,40.27,0,0,1,2.7-6.94c3,4.52.11,11.05,2.94,18.31,3.47,8.91,4.78,12.82.21,23.24-8,15.42-11.94,24.33-13.25,34.9s1.88,18.68,5.79,29.83,1.73,14.21-1.16,17.6-4.88,5.29-9.42,10.33-4.72,4.79-4.87,9.34,1.24,10.66-2.81,16.2-11,6.41-13.84,7.37-4.34,1.63-4.82,4.32c-.5,2.88-3,16.36-4.78,29-.66,4.77.14,7-1.59,8.26s-1.45,1.59-2.17,9.26-.72,21,1,24.43c1.6,3.15,2.1,5.16-1.05,6.94.11,3.79,2.52,4,3.15,8-5.68-.73-14.2,3.58-14.2,3.58a48.75,48.75,0,0,1,1.26-10.73c-1.37-2.1-2-3.79.09-7.69,1.67-3.12,1.6-13.14,3.2-27.88,2.13-17.41-.94-34.51-3.25-42.09a54.46,54.46,0,0,1-14.1-.16S73.43,224,65,213c.23,6.4-1.54,19.37-3.4,24.49-.76,1.74-7.06,16.94-9.67,23.14s-2,17.33-1.33,24.43.75,14.31,1.76,16c1.84,2.68,2.43,3-.5,5.94,2.68,1.85,2.76,3.6,2.51,3.69s-9.62,1-9.62,1a42.31,42.31,0,0,1,1-4.44c-2.09-1.67-2.67-2.09-1.51-5.52s-.52-15.93-1-22.15-1.45-13.32-2.61-16.37-.58-3.91,1.31-6.81,2.46-4.05-.87-15.35c-3-12.31-5.19-20.08-7.83-34.11a58.2,58.2,0,0,0-1.58,21.37c1,11.15,1.26,28.14.08,30.76s-2.45.76-1.52-3.29.68-6.41-.37-13.06C27.47,228.6,24.86,218.39,27.17,204.41Z"/><path class="cls-4" d="M146,119.23c.81-.44,2.49,1.69,3.47,3.09-.4,1.65-.72,3.3-1,5a9.68,9.68,0,0,1-3-1.87C144,123.87,144.76,119.88,146,119.23Z"/><path class="cls-4" d="M144.32,104c-3.57,1-5.91,1.65-7.82-.37a104.58,104.58,0,0,0,10.82-16c1,2.22,2.82,6.27,3,9.35C150.52,101.31,148.46,102.83,144.32,104Z"/><path class="cls-4" d="M147,112.71c1.09-2,2.39-5.76,4.24-6.08,1.09-.19,2.13,1.19,2.81,2.37a85,85,0,0,0-4,10.63C146.25,116.63,146,114.53,147,112.71Z"/><path class="cls-4" d="M151.71,92.08c-.76-3.37-.44-3.47,4.45-6.08a51.45,51.45,0,0,1,8.24-3.37c0,3.14-.84,6.54-2.92,11.29-1.45,2.78-2.76,5.34-3.95,7.75-1.19-.23-2.51-.48-3.22-.58C152.8,100.87,152.47,95.44,151.71,92.08Z"/><path class="cls-4" d="M141.83,115.1c-.87,4.78-2.28,9.45-3.91,10a53.37,53.37,0,0,1-9.23,1.31c-3.15.22-4.89.76-5.1-1.63-.12-1.31-.41-3.09-.63-4.42,1.8-2.43,4-5.27,6.49-8.23,1.62-1.93,3.33-3.92,5.06-6,.52.37,1.46,1,3.1,1.93C140.63,109.78,142.7,110.32,141.83,115.1Z"/><path class="cls-4" d="M152,77c2-6.92,2.52-13.14,3.66-17.7a40.27,40.27,0,0,1,2.7-6.94c3,4.52.11,11.05,2.94,18.31.57,1.45,1.07,2.76,1.5,4a52.29,52.29,0,0,1-6.06,3.92C153,80.68,152.58,80.68,152,77Z"/><path class="cls-4" d="M72.36,163.14c-3.53.27-5.91-3.53-8.22-8.53a10,10,0,0,1,3.3-.88c3-.1,7.05,1.79,10.72,3.83C77.2,159.46,75.08,162.93,72.36,163.14Z"/><path class="cls-4" d="M57.73,178.06c-3.91,2-11.73,5.36-12.45-.43-.35-2.85-.5-5.56-.56-7.57A74,74,0,0,1,56,159.55c.55,1.59,1.47,4.1,2.75,6.93C60.92,171.25,61.64,176,57.73,178.06Z"/><path class="cls-4" d="M86.84,168.07c-3.16-3.77-3.67-5.09-4.09-7.82l.47.28c4.35,2.61,8.4,1.16,14.19-3,2.31-1.68,4.11-3,5.58-4.13-.2,3.44-1,12.53-4.14,17.74C94.95,177.63,90.6,172.55,86.84,168.07Z"/><path class="cls-4" d="M111.53,150.51c.65,3.47,1.63,8.36-.22,9.77a25.72,25.72,0,0,1-4.67,2.61l2.06-16.08-.31-.05c.08-.17.16-.35.24-.52A6.63,6.63,0,0,1,111.53,150.51Z"/><path class="cls-4" d="M116.37,136.72c-2.42,1.25-3.58,2.1-4.41,1.45a114.24,114.24,0,0,1,5.75-10.36s.69-1.07,1.91-2.84a28.89,28.89,0,0,1,2.28,5.22C122.4,132.27,119.83,134.94,116.37,136.72Z"/><path class="cls-4" d="M42.67,179.07c-1.38,2.56-4.56,3.38-7.07,3a83.73,83.73,0,0,1,6.43-8.8A5.48,5.48,0,0,1,42.67,179.07Z"/><path class="cls-4" d="M43.12,264.58a11.11,11.11,0,0,1,2.13,5.89c.08,2-.59,3.7-2.46,4A74.05,74.05,0,0,0,41.2,265C41.77,264.45,42.57,263.91,43.12,264.58Z"/><path class="cls-4" d="M48.23,276.1A2.56,2.56,0,0,1,50,273.55c0,2.28.07,4.56.2,6.7C48.75,279.68,48.17,278.52,48.23,276.1Z"/><path class="cls-4" d="M147.71,160c-1.78-3.56-2.18-4.05-1.39-5.93.53-1.28,2.85-3.92,4.28-5.48,1,3.14,2.17,6.42,3.42,10,.3.83.54,1.62.78,2.37-.75,1.13-1.68,2.5-2.35,3.38C151.17,166.08,149.49,163.61,147.71,160Z"/><path class="cls-4" d="M51.09,251.57c.65-2.34,1.46-3,2.39-2.5A19.45,19.45,0,0,1,55.93,251c-1.25,3-2.47,5.95-3.42,8.2a14.79,14.79,0,0,1-2.08-.71C49.57,258,50.44,253.9,51.09,251.57Z"/><path class="cls-4" d="M46.2,245.81c1.09,4,.16,7.17-1.74,7.93a3.33,3.33,0,0,1-1.26.24c.57-1.87.28-4.46-1.55-10.92C43,242.87,45.43,243,46.2,245.81Z"/><path class="cls-4" d="M104.25,237.61c.76.54,4.24,4.78,2.28,6.51a46.81,46.81,0,0,1-4,3.08c-.2-3.06-.51-6-.88-8.68C102.52,238,103.79,237.28,104.25,237.61Z"/><path class="cls-4" d="M109.79,238.91c-1.19-2.28-1.09-2.17-.21-6s2.5-8.58,3.8-7.06a23.69,23.69,0,0,1,2.48,4.92c-.62,3.53-1.4,8-2.15,12.75A23.11,23.11,0,0,1,109.79,238.91Z"/><path class="cls-4" d="M145.38,176.7c2-2.7,4.05-8.11,6.37-6.46,1.35,1,1.75,3.33,1.84,5.14-.23.29-.47.59-.72.88-2.33,2.73-4.08,4.5-7,7.72C143.77,181.61,143.57,179.12,145.38,176.7Z"/><path class="cls-4" d="M104.9,262.59a21,21,0,0,1,2.6,6.52c.33,1.52-1.52,2.5-3.47,3.26-1.71.66-2,.33-2.49-.7.14-1.52.3-3.09.47-4.72s.36-3.27.47-4.89C103.21,261.49,104.12,261.29,104.9,262.59Z"/><path class="cls-4" d="M111,248a4.54,4.54,0,0,1,2.26-1.56c-.32,2.1-.64,4.24-.93,6.35-.13,1-.21,1.83-.25,2.6-1.21-1-3-2.58-3.58-3.11C107.56,251.46,108.59,250.59,111,248Z"/><path class="cls-5" d="M151.1,107.6c-.7-3.44-1.24-6.91-1.64-10.4-.44-3.83-.77-7.68-1.11-11.53.91-1.79,1.8-3.66,2.64-5.64,2.89-8.11,3.33-15.5,4.63-20.71a40.27,40.27,0,0,1,2.7-6.94c3,4.52.11,11.05,2.94,18.31,3.47,8.91,4.78,12.82.21,23.24a202.07,202.07,0,0,0-9.2,19.41C151.95,111.42,151.5,109.53,151.1,107.6Z"/><path class="cls-10" d="M190.66,47.68s3.44-.33,4.67-1.7c4.1-4.62,11-7.81,15.25-4.7S219,53.45,219,53.45a57.44,57.44,0,0,0-7.17,4.85c-3.41,2.75-9,6.3-13.18,1.88s-7.17-9.7-9.41-7.67A27.31,27.31,0,0,0,190.66,47.68Z"/><path class="cls-11" d="M156.62,47.69a3,3,0,0,1-3-1.18c-1-1.61-6-9.2-10.57-10.81-4.72-1.62-7-1.62-9.57,1.86a59.42,59.42,0,0,0-4.48,7,32.84,32.84,0,0,0,4.85,7.21c2.86,3,11.07,5.84,15.91,2,3.67-3.11,3.67-3.11,5.1-2.8a11,11,0,0,1,3.27,1.67S158.79,52,156.62,47.69Z"/><path class="cls-12" d="M197.2,49.13s3.73-6.46,9.75-6c4.94.89,9.68,10.19,9.68,10.19s-6.08,5.19-11.77,6.46-7.79-3.29-8-6.77a9.54,9.54,0,0,0,4.05.13l-3.92-1.27,4.75-2.79S199,48.38,197.2,49.13Z"/><path class="cls-13" d="M149.25,45.21s-3.91-5.7-7.75-7.19-7.93,2.23-10.71,6.63c4.77,5.82,11.21,12.7,19.51,6-5-.37-6.63-1.73-6.63-1.73l4.33-1.3s-3.59-1-4.71-1.92A12.72,12.72,0,0,1,149.25,45.21Z"/><path class="cls-14" d="M187.12,28.22s-2.17-.11-2.72,5,.11,7.17,2.39,9.34,4.89,3.15,3.26,7.38-1.3,5.26.11,8.26c3.26,7,4.78,9.78,2.72,13.79a159.19,159.19,0,0,0-8.14,18.79c-2,6-3.49,10.49-2.72,12,1.74,3.25,3,4.45,2.06,5.21a17,17,0,0,1-2,1.31s1.3,2.36-.86,3.15c-3.59,1.3-13.8,1-17.6-5.21s-3.26-10-2.28-16.73.9-12.45-4-18.1c-3.77-4.78-5.65-7.53.72-19.69.58-2.75-4.06-6.95-.29-9.27s4.64-4.78,4.05-10-2.32-4.88-3.18-5.94c-1.4-1.7-.32-5.93,1.48-4.41s2.06-.43,3.22-1c.65-.33.8.72,1.53,1.37,1.08,1,1-.15,2.32-.15s1.88,1.59.29,2.46-1.16,5.36-.29,8.4,1,5.22,6.08,4.78,5.65-3.47,6.23-6.66.29-5.07-1.16-5.94.15-4.2,1.74-3.19,1.74-.58,2.89-.87,1.88.58,2.61,2.17.86,1,1.74.87S189.22,27.53,187.12,28.22Z"/><path class="cls-15" d="M168.6,80.28s-2.28-3.23-5.61-3.85c.74-.79,2.26.22,2.26.22s-2.37-2.46-1.72-8.9,3.91-8.83,7-7.46,4.63,7,3.11,12.09-4.05,5.79-5.58,5.72A4.25,4.25,0,0,1,168.6,80.28Z"/><path class="cls-15" d="M187.43,79.85s-2.09-.94-4.65,1.14a3.07,3.07,0,0,1,1.15-1.41s-5.12.57-5.07-9.14c.21-7.26,3.6-10.13,6.63-8.82s6,11.33.72,17.35C187.36,79.17,187.43,79.85,187.43,79.85Z"/><path class="cls-16" d="M179.21,70.55c0,4.73,2,8.58,4.64,8.61s4.78-3.77,4.84-8.49-2-8.58-4.64-8.61S179.27,65.82,179.21,70.55Z"/><path class="cls-17" d="M164,68.85c-.23,4.72,1.7,8.65,4.31,8.78s4.93-3.59,5.16-8.3-1.69-8.65-4.31-8.79S164.25,64.13,164,68.85Z"/><path class="cls-18" d="M179.57,69.78c-.59,2.93.29,6.05,1.95,7S185,76,185.6,73.1s-.28-6.06-1.95-7S180.16,66.84,179.57,69.78Z"/><path class="cls-19" d="M180.5,70.41c-.39,2,.19,4,1.29,4.63s2.32-.47,2.71-2.42-.19-4-1.3-4.64S180.89,68.46,180.5,70.41Z"/><path class="cls-20" d="M180.61,68.29a3,3,0,0,0,.27,2.91c.56.54,1.34.1,1.76-1a3,3,0,0,0-.27-2.91C181.8,66.78,181,67.22,180.61,68.29Z"/><path class="cls-21" d="M164.49,68c-.77,2.94-.07,6.16,1.56,7.19s3.59-.52,4.36-3.47.07-6.15-1.57-7.19S165.26,65.09,164.49,68Z"/><path class="cls-22" d="M165.4,68.72c-.51,2,0,4.09,1,4.77s2.38-.34,2.89-2.3,0-4.09-1-4.77S165.91,66.77,165.4,68.72Z"/><path class="cls-23" d="M165.63,66.59a3,3,0,0,0,.11,3c.53.58,1.35.19,1.83-.88a3,3,0,0,0-.1-3C166.93,65.13,166.11,65.53,165.63,66.59Z"/><path class="cls-24" d="M186.78,61.05s-1.22-4.83-2.75-5.26-3.92,3.73-3.92,3.73,1.83-6.91,4-6.61S186.78,61.05,186.78,61.05Z"/><path class="cls-24" d="M172.86,60.18s-2.83-12-8.18-3.77C166.12,50.19,171.69,47.87,172.86,60.18Z"/><path class="cls-25" d="M182.12,109.24a10.9,10.9,0,0,1-1.59.52,13.46,13.46,0,0,1-4.34.39,9.86,9.86,0,0,1-1.39-.18,10.69,10.69,0,0,1-1.44-.37c-.49-.14-1-.39-1.46-.58s-1-.49-1.42-.81a14.6,14.6,0,0,1-2.62-2.21,11.47,11.47,0,0,1-1.86-3,22.53,22.53,0,0,1-1.74-6.81A46.19,46.19,0,0,1,164,90c0-1.83.1-3.35.2-4.42s.16-1.67.16-1.67-.15.59-.32,1.65-.41,2.58-.52,4.42a39.27,39.27,0,0,0,0,6.31,23.16,23.16,0,0,0,1.7,7.08,12.14,12.14,0,0,0,2.06,3.16,15.07,15.07,0,0,0,2.81,2.29,14.8,14.8,0,0,0,1.53.82c.54.19,1,.42,1.57.54a11.23,11.23,0,0,0,1.54.31,10.37,10.37,0,0,0,1.46.12,13.09,13.09,0,0,0,1.34,0c.42-.06.82-.11,1.19-.18a13.91,13.91,0,0,0,1.88-.51A9,9,0,0,0,182.12,109.24Z"/><path class="cls-25" d="M166,83.5l-.58.18a4.58,4.58,0,0,1-.51.11,2,2,0,0,1-.51,0l-.25,0c-.08,0-.17,0-.25-.09a2.18,2.18,0,0,0-.26-.1l-.23-.12c-.16-.06-.29-.15-.39-.19l-.17-.07a1.77,1.77,0,0,0,0,.18,1.52,1.52,0,0,0,.18.44,1.63,1.63,0,0,0,.45.52,1.71,1.71,0,0,0,.78.33,1.88,1.88,0,0,0,.45,0,1.35,1.35,0,0,0,.4-.12,1.54,1.54,0,0,0,.56-.43A1.27,1.27,0,0,0,166,83.5Z"/><path class="cls-26" d="M176.61,102.6s3.08-5.46,2.18-5.79S176.37,100.32,176.61,102.6Z"/><path class="cls-26" d="M170.61,101.25a9.41,9.41,0,0,0,.27-4.13c-.32-2.5-1.46-2.12-1.25-.44S170.61,101.25,170.61,101.25Z"/><path class="cls-2" d="M110.58,276.09s-2.39-.14-2.54,1,.29,12.24.29,12.24a5,5,0,0,0,3.12-1.31C110.37,286.16,110.08,281.45,110.58,276.09Z"/><path class="cls-4" d="M144,129.66a13.08,13.08,0,0,1,.44,10.21c-2.83,6.08-6.32,11.32-8.36,10.86-1-.22-2.82-6.4-3.69-10.86s-1-5.32,2-8.36S141.72,125.09,144,129.66Z"/><path class="cls-4" d="M127.71,138.23s2.61,5.75.87,9.56-4.67,7.5-7.06,7.93c-1.52-.11-4.89-6-5.86-8.36s-1.09-5.1,4.12-9S125.76,135.08,127.71,138.23Z"/><path class="cls-4" d="M139.84,157s3.19,6.66,2.09,10.71-6.22,6.95-7.89,7.82-5.58-1.52-7.46-5.94-1.89-4.92,2-9.63S136,151.48,139.84,157Z"/><path class="cls-4" d="M118.12,164.73a12.85,12.85,0,0,1,3.12,4.57c1.23,3,.58,3.91-2.75,5.72s-5.72,4-6.44,2.61-.79-5.43-.22-9.56S114.56,162,118.12,164.73Z"/><path class="cls-4" d="M124.49,181s4.06,5.21,2.53,9a18.65,18.65,0,0,1-6.08,8c-2,1.38-3.47,1.81-4.63-4.2s-1.3-13.25,2-15C121.35,177.06,122.66,178.47,124.49,181Z"/><path class="cls-4" d="M116.83,202.75s2,2.22,1.29,4.58a45.88,45.88,0,0,1-3.8,9.24c-1.86,3.36-2.86,3.58-5.66.64s-3.51-3.87-1.15-7.31S114.68,200.1,116.83,202.75Z"/><path class="cls-4" d="M112.39,189.22s2.15,7.38.51,9.45a30.53,30.53,0,0,1-4.59,4.58c-2.36,2.15-3.79,2.65-3.08-4s1.65-11.45,3.44-13.1S111.39,185.14,112.39,189.22Z"/><path class="cls-4" d="M99.36,193.88s.79,3.65-1.15,6.23-4.72,5.87-6.52,2.72-2.22-6,.57-8S98.78,189.72,99.36,193.88Z"/><path class="cls-4" d="M82.89,197.45s1.93,5,2.93,8.16,1.43,4.37-3.44,3.29-11-4.16-11.45-6.3,3.22-4.73,5.44-5.94S81,193.37,82.89,197.45Z"/><path class="cls-4" d="M105.73,174.58a13.07,13.07,0,0,0,1.52,2.68c1,1.38.51,3-2.1,5.58s-4.27,4.42-4.71,1.66-.44-9.34.8-12.16S104.07,171.47,105.73,174.58Z"/><path class="cls-4" d="M94.73,180s.87,1.23.44,4.13-.72,4.49-2.9,4.2-5-2.32-3-4.85S93.28,177.19,94.73,180Z"/><path class="cls-4" d="M79.16,167.77s3.26,2.5,6.08,5,4.35,5.11,1.74,9.13-7.28,7.71-10.1,7.71-5.11-3.91-6.3-10-1.52-10.53,1.09-12.27S75.58,164.73,79.16,167.77Z"/><path class="cls-4" d="M66.8,175.14a4.62,4.62,0,0,1,.17,3.52c-.69,2-1.81,2.15-3.1,1.89s-.68-1.72.18-3.44S66.29,173.94,66.8,175.14Z"/><path class="cls-4" d="M71.27,194s-4.82,4.82-6.28,1.55-1.8-6.36-.34-6S73.43,192,71.27,194Z"/><path class="cls-4" d="M47,186.6a64.19,64.19,0,0,1,2.86,7.75c.94,3.47,1,4.85-5.29,6.81s-10,2-10.21-2.53.8-8.76,3.47-11.51,4.85-4.78,6.45-3.76A9.5,9.5,0,0,1,47,186.6Z"/><path class="cls-4" d="M62.36,196.75S65,207.23,64.9,215.56c-.14,5.86-1.81,6.3-4.78,3.4s-7.68-7.46-7-10.79,2.18-5.29,3-8.9S59.3,191.42,62.36,196.75Z"/><path class="cls-4" d="M49.51,207.2s.66,3.8-.43,5.21-3.8-.33-5-1.52-.1-3,1.19-4.78S48.75,203.29,49.51,207.2Z"/><path class="cls-4" d="M45.28,216.1s4.78,5.21,5.54,7.39-.43,3.37-3.37,5.21-6.08,3.91-8-.32-2.71-6.85-.54-10.75S41.26,212.74,45.28,216.1Z"/><path class="cls-4" d="M64.54,222.95s-1.31,10.86-3,14.55c-1.52-1.81-4.49-6.16-3.41-8.54S64.39,221.35,64.54,222.95Z"/><path class="cls-4" d="M53.46,234a23,23,0,0,1,.87,5.72c-.07,2.46-2.46,1.67-4.2.08s-1.81-4-.22-6S52.44,232,53.46,234Z"/><path class="cls-4" d="M105.1,217.61a42.15,42.15,0,0,0,2.3,3.7c1.09,1.51,2.71,2.4.11,5.16s-5.06,3.8-5.84.83-1.67-7.92-.78-9.7S103.54,215.06,105.1,217.61Z"/><path class="cls-4" d="M95.87,212.39l.67,4.7s.86,3.36-4.16.79c-2.63-1.59-2.87-1.65-1.28-4.71S94.21,209.27,95.87,212.39Z"/><path class="cls-4" d="M72.24,223.89a1.88,1.88,0,0,1,1.36,2.64c-.68,2.26-2.49,4.91-3.32,2S69.21,222.46,72.24,223.89Z"/><path class="cls-27" d="M182.67,91.85c1.89-6.07,5.27-11.79,7.53-17.71.14-.36.06.41,0,.64-1.41,4.68-3.29,9.21-5,13.79-1.61,4.43-4.9,10.29-3.64,15.06.35,1.31,0,.47-.3-.4C180.14,99.32,181.49,95.63,182.67,91.85Z"/><path class="cls-28" d="M109.11,145.4a38.81,38.81,0,0,0-1.28,4.41c-.18.67-.29,1.4-.45,2.18s-.34,1.59-.44,2.45-.22,1.74-.34,2.64-.18,1.82-.23,2.74-.1,1.84-.14,2.74,0,1.8,0,2.66.05,1.7.09,2.49a20.05,20.05,0,0,0,.2,2.22c.15,1.37.34,2.51.45,3.3s.2,1.25.2,1.25l0-1.26c0-.8,0-1.95-.13-3.32a19.75,19.75,0,0,1-.05-2.21c0-.79,0-1.61,0-2.47s0-1.74,0-2.63.11-1.81.16-2.72.08-1.82.21-2.71.17-1.77.25-2.62.22-1.67.31-2.45.18-1.52.31-2.19.22-1.3.3-1.85.19-1,.26-1.42C109,145.85,109.11,145.4,109.11,145.4Z"/><path class="cls-28" d="M124.34,203.78s-.12.3-.36.81l-.41.92c-.16.35-.39.73-.6,1.16s-.43.9-.72,1.35l-.88,1.46-.47.8-.47.81c-.3.55-.55,1.19-.83,1.78s-.44,1.23-.65,1.83-.36,1.21-.51,1.8c-.29,1.17-.52,2.28-.68,3.23-.31,1.91-.41,3.19-.41,3.19s.1-.31.25-.85.38-1.31.64-2.23l.43-1.49.5-1.64c.18-.57.38-1.15.57-1.74l.66-1.77c.26-.57.46-1.14.76-1.7l.86-1.63.8-1.56a10.88,10.88,0,0,0,.6-1.45c.17-.45.34-.86.45-1.25l.27-1a4.78,4.78,0,0,0,.15-.63Z"/><path class="cls-28" d="M101.69,203.36s-.19.3-.51.83-.77,1.3-1.25,2.24L99.16,208c-.27.55-.59,1.11-.82,1.73l-.79,1.9c-.07.18-.12.29-.2.52l-.14.51a9.25,9.25,0,0,0-.26,1,13.28,13.28,0,0,0-.17,2.19,15.73,15.73,0,0,0,.14,2.07,29.78,29.78,0,0,0,.75,3.57c.58,2.05,1.08,3.37,1.08,3.37s0-.35-.16-1-.24-1.48-.45-2.51c-.08-.52-.17-1.08-.27-1.67s-.13-1.22-.2-1.87-.09-1.32-.06-2a12.48,12.48,0,0,1,.17-2,9.3,9.3,0,0,1,.23-1l.13-.51c0-.1.12-.3.17-.45L99,210c.22-.62.47-1.21.69-1.77l.63-1.58c.42-1,.72-1.8,1-2.37S101.69,203.36,101.69,203.36Z"/><path class="cls-28" d="M57.73,185.59l.48,1.15c.31.73.71,1.78,1.2,3,.25.63.5,1.31.76,2s.51,1.5.8,2.29l.79,2.47c.25.85.53,1.7.75,2.57s.49,1.72.68,2.59L63.5,203c.09.42.18.84.26,1.25.18.82.35,1.61.48,2.38s.28,1.47.35,2.14.18,1.28.26,1.82.1,1,.14,1.41c.08.79.13,1.24.13,1.24l0-1.24c0-.4,0-.88,0-1.43s0-1.17-.1-1.85-.12-1.42-.21-2.19c0-.39-.09-.78-.14-1.19s-.14-.82-.2-1.23c-.14-.84-.3-1.71-.52-2.57s-.42-1.75-.66-2.62-.52-1.74-.79-2.59-.59-1.67-.87-2.47c-.61-1.58-1.24-3-1.82-4.27s-1.13-2.22-1.5-2.92S57.73,185.59,57.73,185.59Z"/><path class="cls-28" d="M34.85,187.61a6.36,6.36,0,0,0-.36.77,9.48,9.48,0,0,0-.35.92c-.12.36-.28.76-.4,1.21a28,28,0,0,0-.67,3.12c-.08.58-.19,1.17-.26,1.78s-.09,1.23-.13,1.85-.09,1.25-.07,1.86,0,1.21.05,1.8,0,1.15.07,1.68.12,1,.19,1.49c.12.93.26,1.69.34,2.23s.15.84.15.84,0-.31,0-.85,0-1.32,0-2.24c0-.46,0-1,0-1.49s0-1.08,0-1.66,0-1.17,0-1.77.07-1.21.1-1.82.07-1.23.1-1.83.12-1.19.18-1.76.1-1.13.19-1.64.14-1,.21-1.47.15-.87.22-1.23.13-.69.2-1C34.77,187.91,34.85,187.61,34.85,187.61Z"/><g class="cls-7"><path class="cls-8" d="M34.23,190.63c-1.55,8.65.83,14.73,3.7,26.17s9.3,26.95,7.87,33.63,2.63,10.26,5.49,5.25,6-17.17,9.78-33.86S57,184.36,57,184.36s6,9.78,8.35,17.41,5.72,10.5,15,12.88,13.6,1,16.45-4.77a48.41,48.41,0,0,1,5.72-9.07A37.88,37.88,0,0,1,99.93,213c-2.63,6.92,3.82,25.76,5.25,36s5,7.87,6.68-4.29,2.86-25.52,5-31,6.2-10.26,8.11-14.31c.24,4.05,2.15,7.39-1.67,12.88,7.15-1.91,11.93-6.2,11.68-14.79s1.91-12.88,8.82-16.45A32.33,32.33,0,0,0,156,170.14a11.34,11.34,0,0,1-3.16,6.12c-2.9,3.39-4.88,5.29-9.42,10.33s-4.72,4.79-4.87,9.34,1.24,10.66-2.81,16.2-11,6.41-13.84,7.37-4.34,1.63-4.82,4.32c-.5,2.88-3,16.36-4.78,29-.66,4.77.14,7-1.59,8.26-1.53,1.14-1.49,1.52-2,6.83a9,9,0,0,0-2-3.36c-3.12-3.23-4,4.34-4.1,5.82-.09,2.22.2,4.45.06,6.68-.26,4.26-.94,8.47-1.39,12.71-.32,3-1,6.82-.2,9.83a18.87,18.87,0,0,0,1,3.08c.48,1.09-.43,2.87-.52,4,0,.24.15.63.41.68a42.54,42.54,0,0,0,9.09.49,8.15,8.15,0,0,1,.51,1.87c-5.68-.73-14.2,3.58-14.2,3.58a48.75,48.75,0,0,1,1.26-10.73c-1.37-2.1-2-3.79.09-7.69,1.67-3.12,1.6-13.14,3.2-27.88,2.13-17.41-.94-34.51-3.25-42.09a54.46,54.46,0,0,1-14.1-.16S73.43,224,65,213c.23,6.4-1.54,19.37-3.4,24.49-.76,1.74-7.06,16.94-9.67,23.14a22.9,22.9,0,0,0-1.43,5.61,4.94,4.94,0,0,0-3.16-2.6.09.09,0,0,0-.09,0c-2.14,4.2-2,9-1.34,13.6s2,9,1.39,13.51c-.47,3.42-3,12.58,1.37,14.75a16.9,16.9,0,0,0-1.13,3c-.09.21.12.74.39.74a43,43,0,0,0,5.86-.5c.74,1,.72,1.79.56,1.84s-9.62,1-9.62,1a42.31,42.31,0,0,1,1-4.44c-2.09-1.67-2.67-2.09-1.51-5.52s-.52-15.93-1-22.15-1.45-13.32-2.61-16.37-.58-3.91,1.31-6.81,2.46-4.05-.87-15.35c-3-12.31-5.19-20.08-7.83-34.11a58.2,58.2,0,0,0-1.58,21.37c1,11.15,1.26,28.14.08,30.76s-2.45.76-1.52-3.29a21.79,21.79,0,0,0,.52-3.29c1.88-4.93-.87-23-1.89-34C27.66,205.59,34.23,190.63,34.23,190.63Z"/></g><g class="cls-7"><path class="cls-8" d="M102.71,159.63c-2.67-.23-8.92,10.92-19,4-5.54-3.82-10.27-8.38-15.73-9.9,4.49.22,11,4.3,15.19,6.79,4.35,2.61,8.4,1.16,14.19-3,6.42-4.65,8.92-6.22,11.21-11.25a90.58,90.58,0,0,0-2.36,19S105.39,159.85,102.71,159.63Z"/></g><path class="cls-29" d="M190.92,71.56c.29-1,.66-2,1-3a7.47,7.47,0,0,0-.67-5.62c-.09-.2,0-.49.18-.21a9.06,9.06,0,0,1,1.37,3.86,12.76,12.76,0,0,1-1.31,5.68C191.26,72.68,190.84,71.82,190.92,71.56Z"/><path class="cls-30" d="M148.38,117.86c.1-.27.39.26.34.44-2.95,9-4,17.85-.82,27,2.13,6.14,6.3,15.74,7,22.25.12,1-1.25-3.21-1.42-3.79-2.68-9.3-6.43-16.05-8.06-24.17C144,132.25,145.83,124.68,148.38,117.86Z"/><g class="cls-31"><path class="cls-32" d="M151.05,211.47c0-.25.15-.14.2,0,2.8,9.57,5.14,18.39,3.61,28.41-.13.87-1-.33-.9-.81C155.22,229.31,152.94,220.94,151.05,211.47Z"/><path class="cls-33" d="M153.16,246.24c.43-1.42.6-2.94,1.11-4.31.09-.22.33.22.28.36-.47,1.43-.58,2.94-1.06,4.38C153.41,246.93,153.1,246.41,153.16,246.24Z"/></g></g></g></svg>