<svg xmlns="http://www.w3.org/2000/svg" width="595" height="646" viewBox="0 0 446 485"><path d="M276 171c0-5 1-9 4-13 8-8 4-28 4-38-1-16-4-33 1-49-4-4-5-13 1-17 32-25 61 12 62 44 0 30-24 95-62 91a10 10 0 0 1-5-1l-3-5a34 34 0 0 1-2-12z" fill="#9d8f7b"/><g fill="#ac9f8d"><path d="M273 172v-1 1zM276 181v0c0-1 0 0 0 0zM280 189a8 8 0 0 0-2-2 11 11 0 0 1 0-1 5 5 0 0 1-1-2h-1a16 16 0 0 0 2 2l1 2 1 1zM284 192h0a11 11 0 0 1-1 0h1zM283 192zM288 192h-1 1c1 0 1 0 0 0zM289 192h-1 1zM287 192h1s0-1 0 0h-1zM286 192v-1h-2a4 4 0 0 0 2 1zM281 188h-1v-1h-1a2 2 0 0 1 1 1h1zM296 192l-1-1h-1v1h2zM295 191h1-1zM289 191h-2 3zM301 190l-1 1 1-1zM304 189v1a8 8 0 0 0 1-1 11 11 0 0 0 1-1 5 5 0 0 1-1 1 9 9 0 0 1-1 0zM307 187l-1 1a5 5 0 0 0 1-1zM298 190a2 2 0 0 0 2 0h-1-1zM299 190h0zM298 190zM293 191s2-1 0-1v1zM298 190h-2v1l1-1zM298 190zM305 188a8 8 0 0 1 1-1l-2 1h1zM302 189zM313 183h-1a1 1 0 0 1 1 0zM304 188a3 3 0 0 0-1 1l1-1zM309 186h-1 1zM302 189zM302 189a5 5 0 0 0 1 0h-1zM313 180l-1 1a4 4 0 0 1-1 1c-1 1 0 1 1 1l1-1h-1-1a5 5 0 0 1 2-1l1-1v-1h-1v1s0-1 0 0zM310 184v1a10 10 0 0 1 2-1l1-1-2 1h-1z"/><path d="M308 186v-1h-1a2 2 0 0 0 0 1 2 2 0 0 1-1 0h2a13 13 0 0 1-2 1l2-1h1l1-1c1 0 0 0 0 0h-1l-1 1zM295 189zM296 189a2 2 0 0 1-1 0c-1 0 0 0 0 0a6 6 0 0 0-1 0v1a1 1 0 0 0 1 0h2a4 4 0 0 0 0-1 7 7 0 0 0-1 0zM302 188l1-1h1-1l-1 1zM313 183l1-1zM315 181h1-1zM311 48zM316 49c-1 0-1 0 0 0zM347 120l1-2a5 5 0 0 1-1 2zM342 73l1 1zM340 73v-1a8 8 0 0 0 0 1zM290 54l-1 1 1-1zM333 158a13 13 0 0 0 1-2l-1 2zM314 45h-1 1zM335 154a12 12 0 0 1-1 2 4 4 0 0 0 1-2zM287 139zM275 163l1-1a5 5 0 0 0-1 1zM323 173zM320 174zM336 147c-1 1 0 1 0 0zM323 173zM323 173zM324 172a10 10 0 0 1-1 1zM283 91zM346 104zM346 102a3 3 0 0 1 0 2v-1h1l-1-1z"/><path d="M301 49h2l-2 1 1-1a7 7 0 0 1 1 0h1l3-1h1-1a4 4 0 0 0 1 0 2 2 0 0 0 1 0 2 2 0 0 1 1 0 4 4 0 0 1 1 0 2 2 0 0 1 1 0h-1 2c1 0 1 1 0 0v1h3a5 5 0 0 1 1 0h0l1 1h0a6 6 0 0 1-1 0l1 1a5 5 0 0 1 1 0 4 4 0 0 1 1 0 6 6 0 0 1 1 1l-1-1h-1a2 2 0 0 0 1 1 8 8 0 0 0 1 0v1a9 9 0 0 1 1 1v-1l-1-1s0-1 0 0a5 5 0 0 0 1 0 6 6 0 0 0 1 1l2 1-1 1a3 3 0 0 0 1 0 3 3 0 0 1 1 0 3 3 0 0 1 1 1 2 2 0 0 1 0 1c1 1 1 0 0 0h1a12 12 0 0 0 1 1 12 12 0 0 0 1 1l2 2c1 1 0 0 0 0l1 1 1 1 1 1a6 6 0 0 0 2 3h-1l2 2 1 1 1 1v1l2 1a11 11 0 0 0 0-1l1 1v1c0 1 0 0 0 0h-1v-1h-1a3 3 0 0 1 0 1s0-1 0 0v1l1 1v2l1 1 1 2a15 15 0 0 1 2 4h-1a3 3 0 0 0-1-2v-1a7 7 0 0 1-1-2v1a40 40 0 0 0 1 2v2l1 1 1 3-1-2a2 2 0 0 0 1 2 2 2 0 0 1 0 2v-1a6 6 0 0 1 0 2v5l1 4a3 3 0 0 1-1-1v1l1 2 1 1v1h-1l-1-1a8 8 0 0 0 0 3l1-1a10 10 0 0 0-1 1 17 17 0 0 1-1 2l1 1h-1v1l1 1-1 1-1 1a15 15 0 0 0 0 1h1v5s-1-1-2 1a18 18 0 0 1 1 2 10 10 0 0 1 1 2 7 7 0 0 1 0 1l-1 1v0l-1-1v-4l-1 2v-2 1l-1 1v3l1-2c1-1 0 0 0 0v5l-1-1a7 7 0 0 1-1 3v-1-1a5 5 0 0 0 0 2 4 4 0 0 1-1 2l-1 2c1-1 3 0 3 1a27 27 0 0 1-2 3c-1 1-1-2-1-1v1c-1 0-1-1-1 1 0 0-1 2 0 0l-1 3v1a7 7 0 0 1 0 2l-4 6-1 1a4 4 0 0 1 0 2v-1l-1 1v2l1-1a20 20 0 0 0 0-3v5l-1 1a11 11 0 0 0-1 2 9 9 0 0 0-1 2 5 5 0 0 1 0 1 6 6 0 0 1-1 2l-2-1a8 8 0 0 1 1-1 10 10 0 0 1 1-1 8 8 0 0 0 1-1l-1 1c-1 1 0 0 0 0a7 7 0 0 1 1-2 6 6 0 0 0-1 1l-2 3a35 35 0 0 1-3 4v1-1 2l-1 1a9 9 0 0 1-1 2h-1l1-1a5 5 0 0 1-1 1l-1 2 1-1-1 1v1a9 9 0 0 1-1 1 7 7 0 0 1-1 1l2-1v-1l1-1a4 4 0 0 0 1-1l1-1h1a5 5 0 0 1 0-1s-1 1 0 0a1 1 0 0 1 1-1 2 2 0 0 1-1 1 6 6 0 0 1 1-2v-1a5 5 0 0 0 1-1v1l1-2v1l1-2a9 9 0 0 0 3-2v-2l1-1v-1h1a18 18 0 0 0 1-2l1-2 1-2a15 15 0 0 1 1-2v-1a18 18 0 0 1 1-2h1a20 20 0 0 1 1-2 4 4 0 0 0 0-2 3 3 0 0 0 1-1 17 17 0 0 0 1-2l1-2a17 17 0 0 1 1-2h-1l1-2 1-3h-1l2-6v2a10 10 0 0 0 1-5 13 13 0 0 1 1-4 4 4 0 0 1 1-1v-1a17 17 0 0 0 0-2h0a6 6 0 0 0 0-1l1-2a2 2 0 0 1 0-1v-4s0-1 0 0a6 6 0 0 0 0-3h1v-1h-1v-1h1a22 22 0 0 1 0-2 10 10 0 0 0 0-3v1a10 10 0 0 0 0-2 2 2 0 0 1 0-1 18 18 0 0 0 0-6l-1-8h-1v-2s0-1 0 0a23 23 0 0 1 0-3 5 5 0 0 0-2-2h1v-1l-2-2a4 4 0 0 0-1-1 3 3 0 0 0-1-1h1l-1-3-2-2a3 3 0 0 0 0-1l-1-1-1-1-1-1h1l-2-2a11 11 0 0 0-1-1 4 4 0 0 0-1-1 3 3 0 0 1 0-1h-1v-1h-1a7 7 0 0 1-1-1l-1-1a5 5 0 0 0-1-1h1a2 2 0 0 1-1 0 8 8 0 0 1-1-1v-1a5 5 0 0 0 0-1 2 2 0 0 0-1 0h1l-1-1h-2v-1a3 3 0 0 0-1-1h-1l-1-1h-1a8 8 0 0 1-1 0 5 5 0 0 1-1-1v1a11 11 0 0 1-1-1l-2-1a4 4 0 0 0-2 0h-1-2-1a3 3 0 0 0-1 0 2 2 0 0 0-2-1 11 11 0 0 0-1 0h-1l-4 1h-3v1-1a7 7 0 0 0-4 2h-1l-1 1a12 12 0 0 0-1 0 9 9 0 0 0-1 1l-1 1v1l-1-1a2 2 0 0 1 0 1h-1l-2 1-1 1-1 1a7 7 0 0 0-1 2 32 32 0 0 0-2 3 16 16 0 0 0 0 3c-1 2 0 4 1 4a51 51 0 0 0 1 2v1a3 3 0 0 1 0-2v1h1a9 9 0 0 1 0 1v0h-1a2 2 0 0 0 1 1 5 5 0 0 0 0 1v1l-1 2v2l-1 2v5l-1 2v4h1v2c-1 0-1 1-1-1a3 3 0 0 0 1 3h-1v-1 1a6 6 0 0 1 0 3v4l1-1v7a49 49 0 0 1 0 5 18 18 0 0 1 1 5h1l-1 2a7 7 0 0 1 0 3v1l1 2-1 1 1 11h1l-1 1v3h1l-1 6v3a26 26 0 0 1-1 3 12 12 0 0 1-2 5h-1v1h-1v1a27 27 0 0 0-2 2 9 9 0 0 1 0 1v1l-1 1v1a2 2 0 0 1 0 1v1l-1 1a9 9 0 0 0 0 1l1 1v-1a3 3 0 0 0 1-1l1-1a4 4 0 0 1 1-3l1-1a7 7 0 0 0 0-1 5 5 0 0 0 0-1l1 1a2 2 0 0 1 0-1 3 3 0 0 1 0-1 6 6 0 0 1 1-1v1l1-2 1-1v-1h1v-1a23 23 0 0 0 2-5 10 10 0 0 1 0-1v-1a7 7 0 0 0 0 1 4 4 0 0 1-1 1 4 4 0 0 0 1-2v-1-1l1-4c0-2-1 0-1-1l1-1h-1l1-2a8 8 0 0 0 0 1v-4 2l-2-14v1a9 9 0 0 1 0-3 14 14 0 0 0 0-3 9 9 0 0 1-1-3h1l-1-4a5 5 0 0 1-1-3c1 2 1-1 1 1v-5c-1 1-1-1-1-3a5 5 0 0 1 0-1 8 8 0 0 0 1-2 8 8 0 0 0 0-1 5 5 0 0 0 0-1 4 4 0 0 1 0-2l-1-2v0a8 8 0 0 1 0-3 6 6 0 0 1 0 2v-2a11 11 0 0 1 1 2 9 9 0 0 0 0 2v-1-1a3 3 0 0 1 0-2 6 6 0 0 0 0-2 5 5 0 0 1 0-2v1a5 5 0 0 1 0-2h1v-1a4 4 0 0 0 0-1l-1 2c-1 0 0-1 0 0a7 7 0 0 1 0-1 4 4 0 0 1 0-1 3 3 0 0 1 0-1 5 5 0 0 0 1-1 8 8 0 0 0 1-2l-1 1v-1a5 5 0 0 1 1-1c0-3-1 0-1-1a1 1 0 0 0 1-1v-1-1a25 25 0 0 0 1-2 3 3 0 0 0-1-1 2 2 0 0 1-1 0v-1h1v0h-1v-1a4 4 0 0 1 0-1 7 7 0 0 1-1-2c0 1 0 1 0 0a2 2 0 0 1-1-1v-1a2 2 0 0 1 1 1v1a7 7 0 0 0 0-2 11 11 0 0 1 0-1 3 3 0 0 1 0 1v-1-1a10 10 0 0 1 0-1 3 3 0 0 1 0-1 3 3 0 0 1 1 0 2 2 0 0 1 0 1v-1-1a5 5 0 0 0 1 0c0-1 0-1 0 0a4 4 0 0 0 1-1v-1l1-1a6 6 0 0 1 2-1 2 2 0 0 1 0-1 24 24 0 0 1 2-1 14 14 0 0 0 3-1h1v-1h1v-1a3 3 0 0 1 1 0l1 1v-1a9 9 0 0 1 1 0 5 5 0 0 1 2-1 4 4 0 0 1 1 0 4 4 0 0 1-1 0 8 8 0 0 0-1 1zm20 3a1 1 0 0 1-1-1 1 1 0 0 1 1 0 8 8 0 0 1 0 1zm21 24a2 2 0 0 1 0-1 4 4 0 0 1 0 1zm-15 91c1-1 1 0 0 0zm-1 2a3 3 0 0 1 0-1v1zm-46-72c1 1 0 0 0 0zM340 73h1-1zM290 54z"/><path d="M337 139a3 3 0 0 1 1 0h-1zM319 177l1-1a4 4 0 0 1-1 1s1 0 0 0zM309 183h-1 1s1-1 0 0zM317 177v1h-1v0h1a8 8 0 0 0 0-1zM316 179a7 7 0 0 1-1 0h1zM324 171s1 0 0 0c0 1 2-2 0 0zM316 177h1-1zM321 172l-1 1 1-1zM320 173a5 5 0 0 0-1 1 10 10 0 0 0 1-1zM317 176l1-1-1 1zM330 159l1-1-1 1zM327 163a2 2 0 0 1 0-1zM329 159v-1 1zM339 138h1-1zM343 117v2h1l-1-2zM344 119zM274 168h-1v1h1v-1zM274 170v1a2 2 0 0 1 0-1zM323 54h0zM310 49v-1zM298 51l1-1a4 4 0 0 1-1 0v1z"/></g><path d="M283 169a5 5 0 0 1-4 0l-1-4c-2-15 0-30 1-45s1-26 7-40c2-5 5-10 10-12 4-3 11-3 16-2a33 33 0 0 1 23 25c2 8 0 17-2 25-4 13-8 31-16 41s-23 12-34 12z" fill="#ce7673"/><g fill="#d68b88"><path d="M283 172v0zM290 170l-1 1 1-1zM296 169h-2a5 5 0 0 1-2 1l4-1zM299 170a1 1 0 0 1 0 1v-1zM299 171c-1 0 0 0 0 0zM302 170h-1 1c1 0 0 0 0 0zM302 169zM301 169h0zM301 170c-1-1-2 0-1-1-1 1-1 1 1 1zM296 169l-1-1v1h1zM307 168h-1 1zM307 168v-1 1zM302 168l-1 1 1-1h1zM311 166v1-1zM313 165h1a7 7 0 0 0 1-1 3 3 0 0 1-1 0 4 4 0 0 1-1 1zM315 163a7 7 0 0 0 0 1 3 3 0 0 0 0-1zM309 166a1 1 0 0 0 1 0h-1zM309 166h0zM309 166zM305 167v-1 1zM308 166h-1v1zM309 166h-1 1zM314 164a3 3 0 0 1 0-1h1-1l-1 1h1zM312 165zM319 159zM313 164a1 1 0 0 0-1 0h1zM317 162h-1 1zM312 165zM312 165a3 3 0 0 0 0-1 7 7 0 0 0 0 1zM317 155v1a2 2 0 0 1-1 1l1 1a3 3 0 0 0 1 1 3 3 0 0 0 1 0v-2l-1 1a1 1 0 0 1-1 0l2-1-1-1a2 2 0 0 0 1-1h-1v1l-1-1z"/><path d="M317 160a7 7 0 0 1 2 0v-1h-1v1h-1zM316 162l-1-2a4 4 0 0 0 0 1 1 1 0 0 1-1 1h2a6 6 0 0 1-1 1l1-1c0-1 0 0 0 0v-1h1v-1 1h-1v1zM306 165zM307 165a1 1 0 0 1-1 0v1h2a4 4 0 0 0-1-1zM311 164v-1h1-1 1l-1 1zM319 159v-1c0-1 0 0 0 0zM320 157h1v-1l-1 1zM299 69h-1a2 2 0 0 0 1 0zM301 68zM338 107v-1a2 2 0 0 1 0 1zM326 75h0zM324 76v-1a6 6 0 0 0 0 1zM289 82zM330 137a6 6 0 0 0 0-2v2zM298 64zM331 134a6 6 0 0 1-1 1 2 2 0 0 0 1-1zM280 147zM276 168a6 6 0 0 1 0-2 3 3 0 0 0 0 2zM325 149c0 1 0 0 0 0zM322 150zM329 128c0 1 0 1 0 0zM325 150a3 3 0 0 0 0-1 5 5 0 0 0 0 1zM325 150zM325 149zM281 111c0 1 0 0 0 0zM333 96zM333 94a2 2 0 0 1 0 1 1 1 0 0 1 1 0 2 2 0 0 1-1 1l1-1h0l-1-1z"/><path d="M293 73h1a5 5 0 0 1 0 1 1 1 0 0 1 0-1 4 4 0 0 1 1-1 7 7 0 0 0 1 0 1 1 0 0 0 0-1v-1h1l-1 1 1-1a2 2 0 0 1 0-1 1 1 0 0 1 1 0h1v-1a8 8 0 0 0 1 0h1a4 4 0 0 1 1-1c1 0 0 0 0 0h1c1 0 1 0 0 0a2 2 0 0 1 0 1 2 2 0 0 1-1 0h1a2 2 0 0 1 1 0 2 2 0 0 1 1 0h-1a2 2 0 0 0 1 1h1a3 3 0 0 1 1 0l-1-1a1 1 0 0 1-1 0h1a2 2 0 0 0 1 0h1a8 8 0 0 0 1 0l-1 1 2-1a1 1 0 0 1 1 1v0a2 2 0 0 1 1 0 4 4 0 0 0 1 0h1l2 1h-1 1c1 0 0 0 0 0a1 1 0 0 0 1 0h1l1 1a4 4 0 0 0 1 1 2 2 0 0 0 1 0l-1 1h2a13 13 0 0 0 1 1l1 1v-1a3 3 0 0 1 1 0l1 1a8 8 0 0 0 0-1l1 1c1 0 0 0 0 0l-1 1v-1h-1v1c0 1 0 0 0 0v1-1l1 1a577 577 0 0 0 1 1l1 1h1a9 9 0 0 1 1 1l1 1a9 9 0 0 1 1 1h-2a3 3 0 0 0-1-1v-1a4 4 0 0 1-1 0v1h1v1h1v1h1a13 13 0 0 0 1 2l-1-1 1 1a2 2 0 0 1 0 1 3 3 0 0 1 1 1l-1 1 1 1v2a15 15 0 0 0 1 2h1a6 6 0 0 1-2 0 39 39 0 0 0 4 3 5 5 0 0 0-2 0 2 2 0 0 1-1 0 1 1 0 0 1-1 0 3 3 0 0 0 1 2l1-1a6 6 0 0 0-1 1v1l1 1h-1v1l1 1h-2v2-1a3 3 0 0 0 1 3 3 3 0 0 1 0 2h-1a16 16 0 0 1 1 2 6 6 0 0 1 1 3v1l-1-1v-1l-2-3v1l-1-1v2l1 1a4 4 0 0 1 0 3l-1-1a3 3 0 0 1 0 2v-1l-1 3-1 2h4a17 17 0 0 1-2 3c-1 0-1-2-2-1h1l-1 1v3l1 2h-1a24 24 0 0 1-1 3 24 24 0 0 0-1 2v1a2 2 0 0 1 0 1c-1 1 0-1-1-1v3l1-3 1 4-1 1a4 4 0 0 0 0 3 3 3 0 0 1-1 2h-1a4 4 0 0 1 0-2 5 5 0 0 0 1-1l-1 1a3 3 0 0 1 1-2 9 9 0 0 0-2 3l-1 2a10 10 0 0 1 0 1l-1 1 1 1v-1 2a9 9 0 0 1 0 1 5 5 0 0 1-1 1v-1a1 1 0 0 1 0 1l-1 2 1-1v2a4 4 0 0 1-1 1 3 3 0 0 1 0 1l1-1a8 8 0 0 1 0-1v-1a2 2 0 0 0 1-1 4 4 0 0 1 2-1v-1a1 1 0 0 1-1 0l1-3s0 1 0 0v-1s1-1 1 1l1-2a5 5 0 0 0 0-1 3 3 0 0 0 1-1v-1-1-1h1a11 11 0 0 0 0-1v-2a10 10 0 0 1 1-2 6 6 0 0 1 1-1v-1a7 7 0 0 1 0-2h1l1-3 2-5h-1a16 16 0 0 0 1-4h-1l2-4-1 1a5 5 0 0 0 1-4 6 6 0 0 1 1-3 2 2 0 0 1 0-1l1-1a3 3 0 0 0-1 1v-1a8 8 0 0 0 0-1h0a3 3 0 0 0 0-1v-1l1-1-1-3a6 6 0 0 0 0-1 2 2 0 0 0 0-1h1l-1-1v-1h1a10 10 0 0 1-1-2 6 6 0 0 0 0-1 5 5 0 0 0 0-1l-1-1a4 4 0 0 0 0-2 9 9 0 0 0 0-1v-2l-1-1v-1-1a27 27 0 0 1-1-2l-1-1a2 2 0 0 0 0-1h-1 1a6 6 0 0 1-1-1v-1a4 4 0 0 0-1-1 2 2 0 0 0-1 0l1-1h-1 1-3l-2-2h1a17 17 0 0 0-1-2 6 6 0 0 0-1 0l-1-1h-1l-1-1a8 8 0 0 0-1-1 1 1 0 0 1-1 0h-1v-1l-2-1a8 8 0 0 1-2 0 2 2 0 0 1-1 0 10 10 0 0 0-1-1 3 3 0 0 0-1 0l-1-1a5 5 0 0 0-1-1c-1 0 0 0 0 0a6 6 0 0 0-1-1v1h-1s1-1-1-1h-2a13 13 0 0 1-1 1 3 3 0 0 1-2 0c1 0 1 0 0 0a4 4 0 0 1-1 1l-1-1a5 5 0 0 0-1 1 2 2 0 0 0-1 0l-1 1h-1a5 5 0 0 0-1 1 2 2 0 0 0 0 1 1 1 0 0 0-1-1 2 2 0 0 0-1 1 6 6 0 0 0-1 1l-2 2-1 1v1h-1a4 4 0 0 0-1 3v-1l-1 2a5 5 0 0 0-1 1 4 4 0 0 0 0 1v1a7 7 0 0 1-2 2 10 10 0 0 0 0 2 6 6 0 0 0-1 2v-1a7 7 0 0 1-1 2l-1 2a8 8 0 0 0 0 1 4 4 0 0 0 0 1 2 2 0 0 0 0 2 402 402 0 0 0 1 1h1l-1 1-1 1-1 2-1 6v4l-1 3h1v1l-1-1 1 2c0 2-1-1-1 0v1l1 2h-1v3l1-1v1l-1 4a20 20 0 0 1 0 4 8 8 0 0 1 0 3l1 1c-2-1-1 2-2 3 1-1 0 4 1 2l-1 1-1 8 1 1h-1v3h1a36 36 0 0 0 0 9v4a47 47 0 0 1-1 4v1a1 1 0 0 1 1 0h1v1a8 8 0 0 0 0 1 6 6 0 0 0 0 1 7 7 0 0 0 0 1 3 3 0 0 1 1 0 5 5 0 0 0 2 1h1a5 5 0 0 1-1 0l1-1a2 2 0 0 0-1 0 2 2 0 0 1 0-1 1 1 0 0 1 0-1v-1a2 2 0 0 1 0-1 4 4 0 0 0 0-1 2 2 0 0 0-1-1h1l-1-2a18 18 0 0 1 0-4v-1l1-2h-1a3 3 0 0 1 1-1h-1v-2l1-3-1-1h1-1l1-1a4 4 0 0 0 0-1 5 5 0 0 1 0-2v-9-4a4 4 0 0 1 0-1l1-1-1-3a3 3 0 0 1 0-2h1a5 5 0 0 0 0-3l1-2-1 1v1l-1-2c0-1 2-1 2-3v-3l-1-1v-2a3 3 0 0 1 0 1v-1l1 3v-2a1 1 0 0 1 0-1 3 3 0 0 0 0-2 3 3 0 0 1 0-1l1 1a2 2 0 0 1 0-2 3 3 0 0 0 0-2c0 3-1 1-1 2l1-2a3 3 0 0 0 1-3l-1 1a5 5 0 0 1 1-2c0-2-1 1-1 0v-2-3 1h1v-1a4 4 0 0 1 0-1 7 7 0 0 1 1-1l-1-2 1-1v2a3 3 0 0 0 0-1l1-1a2 2 0 0 1-1 0v-1-1c0-1 0 0 0 0h1a9 9 0 0 1 0-1v1l1-2h1a4 4 0 0 0 0-2 5 5 0 0 1 1-2 1 1 0 0 1 0-1v-1l1-1a5 5 0 0 0 1-2h0v-1l1-1a6 6 0 0 1 1-1 3 3 0 0 1 0-1 2 2 0 0 1 1-1 2 2 0 0 1 0 1 3 3 0 0 0-1 0zm13-5h-1 1zm21 9l-1-1a2 2 0 0 1 1 1zm0 67zm-1 2v-1 1zm-49-30v-1 1z"/><path d="M325 76a1 1 0 0 1 0-1v1zM289 82zM329 122zM323 153zM315 159c1 0 1-1 0 0zM321 153v1a7 7 0 0 0-1 0h1v-1zM320 155zM325 148h1c0 1 0-2-1 0zM319 153h1zM322 149v0zM322 150a2 2 0 0 0 0 1 5 5 0 0 0 0-1zM320 152l1-1-1 1zM327 138v-1c0-1 0 0 0 0v1zM324 141l1-1h-1zM325 138v-1 1zM331 121h1-1zM332 105v2l1-1-1-1zM333 106a4 4 0 0 0 0 1 1 1 0 0 0 0-1zM279 172a6 6 0 0 0 1 0h-1zM282 171v1c0 1 0 0 0 0l1-1h-1zM308 69h-1 1zM298 70zM293 76v-1a1 1 0 0 1 0 1c-1 0-1 0 0 0z"/></g><path d="M113 174c0-5-2-10-6-13-8-7-6-27-7-37-1-16 1-34-6-49 4-5 3-14-2-17-35-22-61 18-58 49s33 93 71 85a10 10 0 0 0 4-1l3-6a34 34 0 0 0 1-11z" fill="#9d8f7b"/><g fill="#ac9f8d"><path d="M111 174c0 1 0 0 0 0zM111 182v0zM109 189l1-1 1-2v-1a19 19 0 0 1-1 3 5 5 0 0 1-1 1zM105 190l1-1a5 5 0 0 1-1 1zM106 189c1 0-1 0 0 0zM102 190h1s-1 0 0 0h-1zM101 191h0zM103 190v1h-1 1v-1z"/><path d="M104 190v1a5 5 0 0 0 1-1s1 0 0 0a12 12 0 0 0-1 0zM109 190h1v-1a4 4 0 0 1-1 1zM96 190v1h1l-1-1c-1 0 0 0 0 0zM96 191h-1 1zM101 192l1-1h1-1l-1 1c-1 1 0 0 0 0zM92 189h-1zM89 189v-1a6 6 0 0 0-1 0h-1a6 6 0 0 1 1 0 7 7 0 0 1 1 1zM86 188a7 7 0 0 0 1 0 6 6 0 0 0-1 0zM93 190a1 1 0 0 0-1 0h1zM93 190h-1 1zM93 190zM98 191l-1 1 1-1zM94 191h1-1zM93 191h1-1zM87 189l-1-1a14 14 0 0 0 2 1h-1zM90 190zM80 185zM88 189a2 2 0 0 0 1 0 9 9 0 0 1-1 0zM84 187a6 6 0 0 0 1 1 4 4 0 0 0-1-1zM90 189zM90 189a4 4 0 0 0-1 0 8 8 0 0 0 1 1 1 1 0 0 1 0-1zM77 186h1a5 5 0 0 1 1 1c2 1 1-1 1-2h-2a12 12 0 0 0 1 1l1 1a3 3 0 0 1-2-1 5 5 0 0 0 0-1h-1-1l1 1s-1 0 0 0zM82 186v1a7 7 0 0 1-1-2h-1l1 1h1z"/><path d="M84 188h-1a4 4 0 0 0 1 1 2 2 0 0 1 1 0l-1-1h2-1-1 1l-1-1h-2a7 7 0 0 0 1 0l1 1zM96 193zM95 193a2 2 0 0 1 1-1v1a3 3 0 0 0 1 0v-1a2 2 0 0 0-1 0 7 7 0 0 1-1 0h-1v-1a3 3 0 0 0 0 1 3 3 0 0 0 1 1zM89 191l-1-1h-1 1v1h1zM80 185h-1v-1zM77 183h1-1zM64 51v-1h1a4 4 0 0 0-1 1zM60 52zM41 128v-2h-1a5 5 0 0 1 1 2zM37 82v0zM36 81l1-1a8 8 0 0 0-1 1zM90 54h1-1zM58 163a13 13 0 0 0-1-2l1 2zM64 55zM56 160a13 13 0 0 1 1 1 4 4 0 0 0-1-1zM103 142v0zM110 167v-1h-1a6 6 0 0 0 1 1zM69 176c1 1 0 0 0 0zM70 179zM51 156zM70 177l-1-1a6 6 0 0 0 1 1zM70 177zM69 176zM100 94c0 1 0 0 0 0zM33 114zM33 112a3 3 0 0 1 0 2l1-1-1-1c-1-1 0 0 0 0z"/><path d="M76 50l-1-1h-1c2 0 4 0 2-1l-1 1h-2l-3 1-1-1a2 2 0 0 0-1 0 2 2 0 0 0-1 1 4 4 0 0 1-1 0 6 6 0 0 1-1 1 3 3 0 0 1-1 0h-1-1c0 1 0 0 0 0l-1 1h-1l-1 1-1 1v-1 1h-1v1-1a6 6 0 0 1 1-1 2 2 0 0 0-2 1l-1 1h-1l1-1a3 3 0 0 0-1 0 5 5 0 0 0-1 1h-1a13 13 0 0 1-1 1h1a9 9 0 0 1 1-1v1a4 4 0 0 0 0 1 5 5 0 0 0-1 0l-1 1a13 13 0 0 0-1 1v-1a3 3 0 0 0-1 1 4 4 0 0 1 0 1 3 3 0 0 1-2 1 3 3 0 0 1-1 0v1s1-1 0 0a12 12 0 0 0-1 1v1a26 26 0 0 0-2 3c-1 1 0 0 0 0l-1 1v2l-1 2a5 5 0 0 0-2 2c0 1 0 0 0 0l-1 2a18 18 0 0 0 0 3h-1v3l1-1v2c0 1 0 0 0 0v1l-1-1v1l-1-1h1l-1-2a3 3 0 0 1 0 1v1h-1v2l-1 1c-1 1 0 0 0 0v4a31 31 0 0 1 0 4h-1a3 3 0 0 0 1-2v-2a8 8 0 0 1 0-1l-1 1v6a21 21 0 0 0 0 2v-2a2 2 0 0 0 0 3 3 3 0 0 1 0 2v-1a7 7 0 0 1 0 2l-1 1v-1a28 28 0 0 0 1 5l1 4a3 3 0 0 1-1-1v1l1 1 1 2 1 1h-1l-2-1a7 7 0 0 0 1 3l1-1a7 7 0 0 0-1 2v1l2 1h-1v1l1 1-1 1 1 1a16 16 0 0 0 0 2v-1l3 5c0-1-1-1-1 1l2 1a14 14 0 0 1 1 1 8 8 0 0 1 1 2l1 1v1a16 16 0 0 1-2-2 29 29 0 0 1-3-3l1 2-1-1v2l1 1v1l1 1 1 1-1-2-1-1v-1l3 4h-1a8 8 0 0 1 1 3v-1h-1a5 5 0 0 0 1 2 4 4 0 0 1 1 2l1 2c0-2 2-3 3-2v4h-1v1l1 1a28 28 0 0 1 2 3h1a7 7 0 0 1 1 1v1l3 6v1a4 4 0 0 1 1 1c1 2-1-1 0 0l1 1 1 1-1-1-1-2 4 3v1a10 10 0 0 0 2 2 8 8 0 0 0 1 1 6 6 0 0 1 1 1 8 8 0 0 1 1 1c1 1 0 1-1 1a7 7 0 0 1 0-1 10 10 0 0 1-1-1 12 12 0 0 0-1-1l1 1a6 6 0 0 1-2-2 6 6 0 0 0 1 2l2 2 4 4 1 1-1-1h1l1 1h1a11 11 0 0 1 2 2h-1l-1-1a5 5 0 0 1 1 2l2 1-1-1h1l1 1h1a6 6 0 0 1 1 1l-1-2h-1l-1-1a4 4 0 0 0-1-1l-1-1a5 5 0 0 1 0-1h-1a2 2 0 0 1 0 1 5 5 0 0 1-1-1l-1-1a6 6 0 0 0-1 0v-1h-1c1-1-1-2 1-1l-1-1a10 10 0 0 0-2-3l-1-1-1-1-1-1-1-2-2-1a17 17 0 0 1-1-2 11 11 0 0 1-1-2l-1-1a12 12 0 0 1-1-2h1a13 13 0 0 1-1-2 4 4 0 0 0-1-2 3 3 0 0 0-1-1 16 16 0 0 0-1-2l-1-2a16 16 0 0 1-1-1l-1-2-1-2h-1l-2-6 1 1a11 11 0 0 0-2-4 10 10 0 0 1-1-4 3 3 0 0 1-1-1v-1a4 4 0 0 0 0 1l-1-2 1-1h-1a6 6 0 0 0-1-1v-1a2 2 0 0 1 0-1l-2-4a7 7 0 0 0 0-2v-1l-1-1c0-1 0-2 1-1a14 14 0 0 1-1-2 13 13 0 0 0-1-2h1a10 10 0 0 0-1-1 2 2 0 0 1 0-1 40 40 0 0 0 0-6 30 30 0 0 1 1-7v-1-2h1a12 12 0 0 1 0-2 5 5 0 0 0 1-3v-3a5 5 0 0 0 0-1 3 3 0 0 0 0-1h1l1-2 1-2a3 3 0 0 0 0-2l1-1c1-1 0 0 0 0v-1l1-1c-1-1 0-1 1-2l1-2a3 3 0 0 1 1-1l1-1h-1l1-1a6 6 0 0 1 0-1l2-1a5 5 0 0 0 1-1l-1 1a2 2 0 0 1 1-1 7 7 0 0 1 1 0l1-1a2 2 0 0 0 1 0h-1c2 0 1 0 1-1l1-1h1a2 2 0 0 0 1 0l1-1a18 18 0 0 1 1-1 6 6 0 0 1 1-1v-1a5 5 0 0 1 1 0h2a5 5 0 0 0 2-2v1a10 10 0 0 1 1-1h1c1 0 0 0 0 0l1-1c0-1 0 0 0 0a3 3 0 0 0 1 0 2 2 0 0 0 1 0 9 9 0 0 0 2 0h5l1 1h1a9 9 0 0 0 4 0v1h1a10 10 0 0 0 1 1h3v1a1 1 0 0 1 1 0 33 33 0 0 1 3 2l1 1 1 1a5 5 0 0 1 1 2 9 9 0 0 1 0 3l1 3v1a13 13 0 0 1 0 1 4 4 0 0 1 0-1v1h1a4 4 0 0 1-1 2v-1l-1 1v1l-1 1v1l1 1v1l1 2v3l1 2v4l1 1v3l1-1v2h-1a3 3 0 0 0 1 2l-1 1v-1 1a5 5 0 0 1 1 2v4-1c0 1 0 3 1 1l-1 6a45 45 0 0 1 0 5 20 20 0 0 1 1 5v2a7 7 0 0 1-1 3c1-1 1 1 1 2v13s0-1 0 0v5h1a31 31 0 0 0 0 6l1 3a30 30 0 0 0 1 3 20 20 0 0 0 4 5v1h1v1h1a9 9 0 0 1 1 3v-1a3 3 0 0 1 0 1h1v3a1 1 0 0 1 1 0 4 4 0 0 1 0 1l1 1v0a2 2 0 0 0 1-1v-1-3a7 7 0 0 0-1-2 4 4 0 0 0-2-2h1a4 4 0 0 1-1 0l-1-1v-1h-1v-1a4 4 0 0 1-1 0v-1h-1v-1a25 25 0 0 1-2-5 4 4 0 0 1 0-1c0-1 0-1 0 0a7 7 0 0 1 0 1c0 1 0 1 0 0a4 4 0 0 0 0-1l-1-1v-2-3-2h-1l1-2a6 6 0 0 0 0 1v-4 2l-1-13a11 11 0 0 1 0-3 15 15 0 0 0 0-3 8 8 0 0 1-1-2l1-1-1-4a5 5 0 0 1 0-3v1l1-7c-1-1-1 0-1 1v1l-1-2a5 5 0 0 1 1-2 7 7 0 0 0 0-1 8 8 0 0 0 0-2 5 5 0 0 0 0-1 5 5 0 0 1 0-2l-1-2v1c0 1 0 0 0 0l1 2-1-3a8 8 0 0 1 0-3 5 5 0 0 1 0 2v-2a8 8 0 0 1 1 2 13 13 0 0 0 0 2v-1-1a3 3 0 0 1 0-2 6 6 0 0 0-1-3v1a8 8 0 0 1 0-2l1 1a5 5 0 0 1-1-2v-1a4 4 0 0 0 0-2v2l-1 1v-2a3 3 0 0 1 0-2 4 4 0 0 0 0-1 9 9 0 0 0 0-2v1l-1-1a6 6 0 0 1 0-1c-1-3 0 0-1-1a1 1 0 0 0 0-1v-1h-1 1a2 2 0 0 0-1-1v-1-1 1a1 1 0 0 0 1 1v-2 1l1-2v-2-1a5 5 0 0 1 0-1v-1-1a2 2 0 0 1 0 2l1 1a6 6 0 0 0 0-2v-2a4 4 0 0 1 0 1l-1-1v-1a14 14 0 0 0-1-2l1 1a5 5 0 0 0-1-1v-1a2 2 0 0 1 1 1v-1l-1-1v-1h-1a4 4 0 0 0 0-1s0-1 0 0a4 4 0 0 0-1-1 6 6 0 0 0 0-1 9 9 0 0 0-1 0h-1v-1h-2a9 9 0 0 1-1-1 3 3 0 0 1-1 0l-1-1-1-1a10 10 0 0 0-4-1l-1-1v1h-1a4 4 0 0 1-1-1h-1s1 0 0 0h-2a14 14 0 0 1-2 0 10 10 0 0 1-1-1 5 5 0 0 1 1 0l1 1zm-23 6l1-1a1 1 0 0 1 1 0 1 1 0 0 1-1 1h-1zM35 85a2 2 0 0 1 1-1 5 5 0 0 1-1 1zm30 87c-1-1-1-1 0 0zm1 1h-1 1zm32-73c0 1 0 1 0 0zM36 81zM90 54z"/><path d="M46 150a2 2 0 0 1 0-1v1zM74 180l-1-1a3 3 0 0 1 0 1h1zM81 188l1 1v-1h-1zM74 182a5 5 0 0 0 0 1h1a10 10 0 0 0-1-1zM75 183a7 7 0 0 1 1 1l-1-1zM68 175c1 0-2-2 0 0zM74 183h-1 1zM68 178l1 1 1 1-2-2zM70 180a5 5 0 0 0 1 0 10 10 0 0 0-1 0zM72 182l-1-1 1 1zM59 167l-1-1-1-1 1 1 1 1zM60 171a2 2 0 0 1 0-1v1zM58 167h-1s1 2 1 0zM46 147h1-1zM36 128l1 2v-1l-1-1zM37 129zM111 171v0zM112 173h-1l1 1a2 2 0 0 1 0-1zM50 57h1zM66 50h-1 1zM81 49h-2a4 4 0 0 1 1 0h1z"/></g><path d="M106 172a5 5 0 0 0 3-1l1-3c1-15-3-30-5-45-3-15-4-26-11-39-3-5-6-9-11-12-5-2-11-2-17 0a33 33 0 0 0-20 28c-1 8 2 16 5 24 5 12 11 30 20 40 9 8 24 9 35 8z" fill="#ce7673"/><g fill="#d68b88"><path d="M106 170v0zM99 171h-1 1zM93 170l2 1a5 5 0 0 1 2 0v-1h-4zM90 168h1a5 5 0 0 1-1 0zM91 168c1 0 0 0 0 0zM88 168h0zM87 169h0zM89 168h-1v1l1-1zM89 169c1 0 1 0 0 0 2 0 2 0 0 0zM93 171h0zM83 167h0zM84 167h-1 1zM87 169h2-2zM80 165h1-1zM79 165v-1a3 3 0 0 0-1 0h-1a2 2 0 0 1 1 0 4 4 0 0 1 1 1zM76 164a4 4 0 0 0 1 0 2 2 0 0 0-1 0zM81 167a1 1 0 0 0 0-1v1zM81 167l-1-1 1 1zM81 167zM85 168l-1 1 1-1zM82 167v1h1zM81 167h0zM77 165l-1-1a8 8 0 0 0 2 1h-1zM79 166zM73 161v1a1 1 0 0 1 0-1zM78 165a1 1 0 0 0 0 1 5 5 0 0 1 0-1c-1 0-1 0 0 0zM75 163a3 3 0 0 0 1 1 2 2 0 0 0-1-1zM79 166c0-1 0 0 0 0zM79 166a3 3 0 0 0-1 0 3 3 0 0 0 1 0zM69 162a1 1 0 0 1 1 1 2 2 0 0 1 1 1l1-1a3 3 0 0 0 1-1l-1-1a10 10 0 0 0 0 1 1 1 0 0 1 0 1l-1-2h-1a4 4 0 0 0-1 0v1h0zM74 163a3 3 0 0 1 0-1l-1-1v1l1 1z"/><path d="M75 164h-1a2 2 0 0 0 1 1 1 1 0 0 1 1 0l-1-1s1 0 0 0a8 8 0 0 1 1 0 1 1 0 0 1-1 0h1l-1-1h-1c-1 0 0 0 0 0h1a8 8 0 0 0 0 1zM83 170s-1 0 0 0zM82 169a1 1 0 0 1 1 0v0l-1-1a3 3 0 0 0 0 1zM78 167h-1v-1 1h1zM73 161h-1zM71 160h1l-1-1v1zM82 69zM78 68zM50 115l1-2-1 1a2 2 0 0 1 0 1zM53 82v0zM52 80h1a3 3 0 0 0-1 0zM97 83c0-1 0 0 0 0zM61 142a6 6 0 0 0-1-1l1 1zM79 74v-1 1zM60 139v1a5 5 0 0 1 0 1 2 2 0 0 0 0-2zM112 149zM108 169a3 3 0 0 1 0-1 1 1 0 0 0 0 1zM67 153c0 1 0 0 0 0zM66 156zM55 136zM67 154a4 4 0 0 0 0-1 3 3 0 0 0 0 1zM67 154zM67 153zM105 114zM44 104zM43 102a3 3 0 0 1 1 1 2 2 0 0 1 0 1h1l-1-1-1-1z"/><path d="M90 74l-1-1a7 7 0 0 1 1 0h1c0 1 0 0 0 0h-1a16 16 0 0 1-2-1 7 7 0 0 0-1-1h-1l-1-1h1a1 1 0 0 0-1 0 1 1 0 0 0-1 0 3 3 0 0 1-1 0 3 3 0 0 1-1 0v-1h-3l-1-1-1 1h-2v-1a3 3 0 0 1 1 0 3 3 0 0 1 1 0 2 2 0 0 0-1 0 1 1 0 0 0-1 0 4 4 0 0 1-1 0 6 6 0 0 1-1 0h1a2 2 0 0 0-2-1 10 10 0 0 1-2 0l2 1a1 1 0 0 1 1 0h-1a2 2 0 0 0-2 1 10 10 0 0 0-1 0v-1l-2 1a2 2 0 0 1-1 0 3 3 0 0 1-1 0v1h0a6 6 0 0 0-1 1h-1a20 20 0 0 0-2 2v-1l-1 1a1 1 0 0 0 0 1h-1c1 1 0 1-1 1h-1a3 3 0 0 0 0 1 2 2 0 0 0-1 1v-1l-1 1v1a7 7 0 0 0-1 0 9 9 0 0 0 0 1l-1 1a4 4 0 0 1 0 1v1h1l-1 1c0 1 0 0 0 0-1 1-1 0-1-1h1l-1-1v1h-1l-1 1-1 1a11 11 0 0 0 0 1v1a14 14 0 0 1 0 2v1l-1 1-1-1a1 1 0 0 0 1-1v-1a4 4 0 0 1 0-1 3 3 0 0 1 1 0h-1v1l-1 1-1 1 1 1a13 13 0 0 0-1 2v-1a1 1 0 0 0 0 1 4 4 0 0 1 0 1 1 1 0 0 1 0 1v-1a3 3 0 0 1-1 2s0 1 0 0l-1 2a8 8 0 0 0 0 1v1a7 7 0 0 0 0 2l1 1a5 5 0 0 1-1-1 44 44 0 0 0 2 3l1 1a5 5 0 0 0-2 0 2 2 0 0 1-1 0 1 1 0 0 1 0-1v1a4 4 0 0 0 0 1h1a4 4 0 0 0 0 1h-1v1l2 1h-2l1 1 1 1h-2l1 2a3 3 0 0 0 1 1 3 3 0 0 1 2 2l-2 1 3 1a6 6 0 0 1 2 2v1l1 1a13 13 0 0 1-3-2 18 18 0 0 1-3-2l1 2-1-1v3c1-1 2 2 2 1v-1l-1-1h1a5 5 0 0 1 2 2l-2 1a4 4 0 0 1 1 2v-1l1 3v1l4-2a17 17 0 0 1-1 4h-2 1v1c1 0 1 2 1 0v3c1-1 2 0 3 1h-1l1 3a17 17 0 0 0 1 2v1a2 2 0 0 1 0 1h-1l2 2c1-1-1-2-1-3l3 3v1a5 5 0 0 0 1 1 4 4 0 0 0 1 1 2 2 0 0 1 2 2l-2 1a3 3 0 0 1 0-2 4 4 0 0 0-1-1v1a3 3 0 0 1 0-1 9 9 0 0 0 1 2l1 2v1a9 9 0 0 1 1 1l1 1-1-1h1l1 1c1 1 0 0 0 0a4 4 0 0 1 1 2l-1-1a1 1 0 0 1 1 0v1l1 1v-1l1 1a8 8 0 0 1 1 1v-1a3 3 0 0 1-1-1h-1a2 2 0 0 0 0-1 3 3 0 0 1 0-2h-1a1 1 0 0 1 0 1l-2-2v-1s0-2 1-1l-1-1a5 5 0 0 0 0-1 3 3 0 0 0-1-1l-1-1v-1l-1-1a10 10 0 0 0 0-1l-1-1a9 9 0 0 1-1-2 6 6 0 0 1 0-1l-1-1a6 6 0 0 1 0-2l-1-3c1-1-1-4-2-5a17 17 0 0 0-2-3l-2-4h1a5 5 0 0 0-1-3 5 5 0 0 1-1-3 1 1 0 0 1-1-1 7 7 0 0 0 0-1v-1a3 3 0 0 0-1 0v-1a1 1 0 0 1 0-1l-2-3h1a7 7 0 0 0 0-1 2 2 0 0 0-1-1h1l-1-1a4 4 0 0 1 0-1 1 1 0 0 1 1 0v1a7 7 0 0 1 0-2 5 5 0 0 0-1-2v1a5 5 0 0 0 0-1v-1a4 4 0 0 0 1-2v-1-1l1-1v-1-1l1-1a10 10 0 0 1 1-1l-1-1h1v-1h1a4 4 0 0 1 0-1 8 8 0 0 1 1 0 3 3 0 0 0 0-1 2 2 0 0 0 0-1v1l1-1v1a2 2 0 0 0-1-3c1 0 2-1 1-2a1 1 0 0 1 1 0v1l1-1 1-1v-1l1-1h1l1-1a1 1 0 0 1 0-1h1a4 4 0 0 0 0-1h2a2 2 0 0 1 0-1 7 7 0 0 1 1 0v-1a1 1 0 0 1 1 0 10 10 0 0 0 1 0 3 3 0 0 0 1 0 2 2 0 0 0 0-1h1a6 6 0 0 0 2 1 1 1 0 0 0 1 0v-1l1 1h1v-1a4 4 0 0 1 2 0 2 2 0 0 1 1 0v-1a3 3 0 0 1 1 1h1a3 3 0 0 0 1 0 7 7 0 0 1 1 0h1l1 1a1 1 0 0 0 1 0 2 2 0 0 0 0 1 10 10 0 0 0 2 0c1 1 2 1 1 2l1 1c0 1 0 0 0 0l1 1h-1a4 4 0 0 0 3 1h-1l1 2a5 5 0 0 0 1 1l1 1 1 3 1 1a7 7 0 0 0 1 2h-1a6 6 0 0 1 1 1 9 9 0 0 1 0 1l1 1v1a4 4 0 0 0 0 1 1 1 0 0 0 1 1h1v1a209 209 0 0 0 1 0v4a44 44 0 0 1 1 6v3l1 3 1 1h-1l1 1c0 3-1 0-1 0v1l1 2v1c-1 0-1 0 0 0v2-1l1 1v4a23 23 0 0 1 1 4 9 9 0 0 1 1 3l1 1c-2 0-1 2-2 3 1-1 1 4 2 2l-1 1 1 8h1v1l-1 1c1 1 2 0 1 2h1a67 67 0 0 0 0 8 31 31 0 0 1 1 5 24 24 0 0 1-1 4h1a3 3 0 0 1 0 1 2 2 0 0 1-1 0v1a2 2 0 0 1-1 0v1a1 1 0 0 0 1 0 2 2 0 0 0 0 1 4 4 0 0 0 1 0 2 2 0 0 1 1 0 3 3 0 0 1 1-1 9 9 0 0 0 1-1 4 4 0 0 0 0-2 2 2 0 0 0 0-1c0-1 0 0 0 0v-2a31 31 0 0 1 0-4 2954 2954 0 0 1 0-4 4 4 0 0 1 0-1c0-1 0 0 0 0l-1 1 1-3v-3c0-1-1 1-1-1l1-1a4 4 0 0 0 0-1 6 6 0 0 1-1-2v1l-2-9-1-4a4 4 0 0 1 0-2v-1l-1-2v-1a3 3 0 0 1-1-1h1a5 5 0 0 0 0-3v-2h-1v1l-1-1 1-4v-2l-1-1v2l-1-4a3 3 0 0 1 1 1v-2l1 4v-2l-1-2a3 3 0 0 0 0-2 3 3 0 0 1 0-1l1 1a2 2 0 0 1-1-2 3 3 0 0 0 0-1c1 2 0 0-1 1v-2a3 3 0 0 0 1-3c0 1 0 2-1 1a5 5 0 0 1 0-2c0-2 0 1-1 0 1-1 0-1-1-2h1l-1-3v0h1a5 5 0 0 1-1-1v-2c-1 1-1 0-2-1v-1l1 1 1 1a3 3 0 0 0-1-2v-1a2 2 0 0 1 0 1l-1-1-1-1h1l-1-1h1l-1-1v-2a5 5 0 0 0-1-1 6 6 0 0 1-1-2 1 1 0 0 1-1-1v-1l-1-1a5 5 0 0 0-1-2v-1h-1-1v-1-1a14 14 0 0 1-2 0 5 5 0 0 1-1-1 4 4 0 0 1 0-1l1 1zm-18-6h0zM51 84l1-1a2 2 0 0 1-1 1zm13 65zm1 2l-1-1 1 1zm37-32zM52 81zM97 83zM51 131z"/><path d="M70 157l-1-1a1 1 0 0 1 0 1h1zM72 165h1-1zM69 158v1a7 7 0 0 0 0 1 1 1 0 0 1 0-1zM69 160a3 3 0 0 1 1 0h-1zM66 152c0 1 0 0 0 0 1 0-1-1 0 0zM68 160v-1h-1 1v1zM65 155l1 1-1-1zM66 156a2 2 0 0 0 0 1 5 5 0 0 0 0-1zM67 159v-1h-1l1 1zM60 145h-1v-1 1h1zM60 149a1 1 0 0 1 0-1h-1zM58 146s-1-1 0 0c0 0 1 1 0 0zM52 129h2-2zM45 115v2l1-1-1-1zM46 116zM107 169a2 2 0 0 0 0 1v-1zM107 170h-1 1zM69 68h1zM83 69zM93 75l-1-1a2 2 0 0 1 1 1c0 1 0 1 0 0z"/></g><path d="M273 378c15 11 35 12 53 10a215 215 0 0 0 53-10c32-11 57-31 65-65 3-15 3-31-3-45-6-16-19-31-36-36-16-5-33 1-44 13-10 12-14 29-6 43 7 13 23 21 39 18 7-1 15-5 19-12 6-9 5-21-3-28-3-3-9-2-12 1-3 4-2 9 2 13 2 1-2 5-3 7a14 14 0 0 1-5 2h-3l-1 1h-1a21 21 0 0 1-11-4c-3-2-5-4-7-8a12 12 0 0 1-1-6 25 25 0 0 1 1-7 26 26 0 0 1 9-12 25 25 0 0 1 29-1c21 13 26 40 19 62-9 26-27 38-51 47a197 197 0 0 1-47 10c-15 1-32 2-45-7-9-6-19 7-10 14z" fill="#9d8f7b"/><path d="M393 443a60 60 0 0 0-7-24c-3-5-4-8-5-14l-2-21-4-18c-6-22-15-44-29-63-13-19-28-35-44-51a152 152 0 0 0-23-18c-8-5-30-8-18-19 10-10 21-22 28-36 6-15 7-33 9-49 5-31-8-67-27-92a98 98 0 0 0-55-33c-20-4-41-1-61 5-16 6-32 13-45 25-6 6-10 12-14 19a97 97 0 0 0-15 54c1 24 9 47 20 68a230 230 0 0 0 35 51l2 2-1 2a11 11 0 0 0-6 2c-19 14-40 27-58 43-14 13-29 29-37 47-13 28-24 58-29 88-3 17-6 44 15 51a12 12 0 0 0 5 1 8 8 0 0 0 6 5c13 3 25-1 37-5 12-3 7-21-5-17a86 86 0 0 1-11 2c-5 1-12 4-17 0-4-4-10-13-6-19a10 10 0 0 1 2-2v-1h1c4-2 9-2 13 0 5 2 10 6 12 11l2 2c9 8 21-4 13-13-5-6-12-10-19-14-3-1-16-4-17-6v-7c14-40 31-89 66-116 11-9 25-15 35-23l-11 50c-2 5-10 35-5 39-11-4-28-10-36 1-9 11-9 22-3 34 11 23 28 43 43 63h-9a14 14 0 0 0-15 14 14 14 0 0 0 3 9c14 0 28-3 42-4 15-2 31-2 47-2 29 0 58-1 87 6a15 15 0 0 0 5-15 14 14 0 0 0-12-10 91 91 0 0 0 12-12 129 129 0 0 0 9-12 68 68 0 0 1 6-11c8-15 14-32 14-48-1-29-28-29-40-20-4-2-7-53-15-68-4-10-17-34 2-18 13 11 27 20 39 31 17 17 31 36 38 58 4 12 10 24 13 36 1 4 2 29 4 29-9-2-16 1-24 3a44 44 0 0 0-9 2 45 45 0 0 0-19 10c-4 9-6 19-2 29a11 11 0 0 0 9-3 5 5 0 0 1 0-2c0-16 25-32 37-18a5 5 0 0 1 1 3c5 16-16 18-26 18a4 4 0 0 1-1 0 11 11 0 0 0-4 11 10 10 0 0 0 7 7 10 10 0 0 0-1 4c0 6 4 10 10 11 14 0 29-2 41-9s18-18 17-30v-3z" fill="#9d8f7b"/><g fill="#ac9f8d"><path d="M389 447v-2-1a1 1 0 0 0 0-1v4zM344 482h1-5l-2 1h-2a3 3 0 0 1-1 0h5l3-1h1zM336 453h-6l-2 1h-4a4 4 0 0 0-1 0 7 7 0 0 0 0 1l-1 1a9 9 0 0 0 0 6 8 8 0 0 0 1 4h1l1 1a66 66 0 0 0 2 1h1v2l-1 1v1a5 5 0 0 0 0 1 5 5 0 0 0 0 1v1a3 3 0 0 0 1 1 8 8 0 0 1-1-1v-1a5 5 0 0 1 0-1 5 5 0 0 1 1-1v-1l1-3h-2l-1-1h-1a3 3 0 0 1 0-1h-1a6 6 0 0 1 0-1 8 8 0 0 1-2-3 8 8 0 0 1 0-2 8 8 0 0 1 0-1 8 8 0 0 1 0-2v-1h1a3 3 0 0 1 0-1 6 6 0 0 1 1-1h3a84 84 0 0 0 9-1zM347 423h-2a13 13 0 0 1 2 1 18 18 0 0 1 3 2l1 1 1 1a19 19 0 0 0 1 1 10 10 0 0 1 0 1 10 10 0 0 1 1 2 11 11 0 0 0 0-2 10 10 0 0 0-1-1v-1h-1c-1 0 0 0 0 0v-1l-1-1a19 19 0 0 0-4-3z"/><path d="M353 429a10 10 0 0 1 1 3l1 1-5 1v-1l4-1-4 2 5-1a8 8 0 0 0-1-2 10 10 0 0 0-1-2 5 5 0 0 0-1-1 13 13 0 0 1 1 1zM318 428l2-1 3-2a35 35 0 0 1 3-1l1-1c1 0 0 0 0 0a15 15 0 0 0-2 1 34 34 0 0 0-3 1l-2 2v-1a32 32 0 0 0-3 2l-1 1v1l-2 2 4-4zM312 436l1-1 1-1 1-1 1-1a10 10 0 0 0-2 1 18 18 0 0 0-2 3z"/><path d="M324 425l-1 1a35 35 0 0 0-3 2 35 35 0 0 0-3 3l-1 1 1-1a26 26 0 0 0 2-3h1a31 31 0 0 1 4-3zM330 423a26 26 0 0 1 5-1 18 18 0 0 1 3 0c1 0 1 0 0 0a29 29 0 0 0-5 1 23 23 0 0 1 7-1 20 20 0 0 1 4 2h3v1a3 3 0 0 0 0-1h-1a16 16 0 0 0-4-2 18 18 0 0 0-2 0 20 20 0 0 0-3 0 24 24 0 0 0-7 1zM340 451h-2l-2 1h-3l-3 1h-3 3l5-1a37 37 0 0 0 3 0l2-1zM308 432l-1 1-1 1a7 7 0 0 1 0 1v1l-1 2v1l1-1v-1-1-1l1-1v-1a3 3 0 0 1 1-1z"/><path d="M306 435v-1-1l1-1v-1-1c0-1 0 0 0 0l1-1v-1-1 2l-1 2-1 1a12 12 0 0 0 0 1v2zM313 438v-1l1-1a32 32 0 0 1 4-5 35 35 0 0 1 5-4l1-1h0l-2 1a35 35 0 0 0-5 5 30 30 0 0 0-5 6l-1 2v1l1-1 1-2zM335 417l-1 1h-1-1l-2 1 1-1h4l3-1 1-1h1-1l-2 1h-1zM357 410l1-2a6 6 0 0 1 0-1 6 6 0 0 1 0 2v-3h4v-2l-1-2v-2l-1-2-1-9 1 9v4a60 60 0 0 0 1 4h-1-2v1l-1 3zM357 380l1 1v4l1 4a182 182 0 0 0-1-7v-1l-1-1zM321 420h2v-1h2a3 3 0 0 0 1 0l3-1h-3v1h-2-1l-2 1z"/><path d="M325 419v-1h1a26 26 0 0 0 2 0 39 39 0 0 1-2 0h-1a3 3 0 0 1 0 1zM320 420h1a2 2 0 0 0-1 0zM304 448v-1l-1-3v-1-1-1-1-1a6 6 0 0 0 0 1v1l-1 1a18 18 0 0 0 0 1 9 9 0 0 0 1 2l1 1v2zM316 421l-1 1-2 1h-1c-1 0 0 0 0 0l-2 1-1 1-1 1h0a1 1 0 0 1 0 1v-1h1l3-2a41 41 0 0 1 4-3zM320 419l-2 1-2 1 2-1h1l1-1zM359 399l-1-7-1-8 1 9 1 9v-3zM347 414h0zM338 330v1a2 2 0 0 1 1 0zM359 403a39 39 0 0 0 0 2 3 3 0 0 1 0 1h-2v1a34 34 0 0 0 0 2 4 4 0 0 0 0 1v1h-1 1v-1a3 3 0 0 1 0-1v-2-1h2v-1a18 18 0 0 1 0-2v-1h-1a13 13 0 0 1 1 1zM352 365l3 8a78 78 0 0 0-2-7 7 7 0 0 0-1-1zM350 414h-1 1zM350 414h5l1-2v-1 1a127 127 0 0 0-2 1h-2-3l-1 1a14 14 0 0 1 2 0zM326 318a7 7 0 0 1 2 2 53 53 0 0 1 5 7v2l1 1 2 4 1 2v1a281 281 0 0 0 2 3v1a4 4 0 0 0 1 1v-1c1-1 0-5-2-10l-1-1v-1l-1-1v-1l-2-2v-1l-1-2a174 174 0 0 1 6 14 12 12 0 0 1 0 1c0 1 0 1 0 0l-1-1-1-3-1-1c-1-1 0 0 0 0a189 189 0 0 1-3-7l-1-2-2-4h-1l-1-2-2-3h-1v-1l-1-1-1-2-1-1-2-1 1 2 3 3v1l1 1 1 1 1 2s-2-3-1 0zM346 350a398 398 0 0 0-1-4l-1-2-1-4-1-1v-1l-1-2-1-2v-1a9 9 0 0 0-1-2l1 4 1 3 1 2 1 2v1l1 1v1l1 3 1 3z"/><path d="M354 372l-3-7a6 6 0 0 0-1-1v2l2 6 1 2v1l1 2 1 4h1a19 19 0 0 0-1 0l-1-7v1l1 1a2 2 0 0 0 0 1v-1-1l-1-3 2 8 1 1-1-1a147 147 0 0 0-1-7c0 1 0 1 0 0a4 4 0 0 1-1-1l-1-2s0-1 0 0l2 3-1-1v-2l-3-7-3-6-1-3 3 7 4 11zM302 433l1-1a11 11 0 0 0 0-1 2 2 0 0 0 0 1l-1 1z"/><path d="M306 425l-1 1v3l-1 1v2h-1v0l-1 2v2c0 1 0 0 0 0v1c0 1 0 1 0 0l1-3 1-2a41 41 0 0 1 2-5v-1h1v-1h1l1-1 1-1a30 30 0 0 1 3-2 8 8 0 0 1 1 0 21 21 0 0 0-3 1 20 20 0 0 0-3 2h-1l-1 1zM349 412h1v-1h1l2 1h1l1-1 1-1h1a6 6 0 0 1 0-2l-1-2h1v-1-1-2 3l-1 1a19 19 0 0 0 1 2 5 5 0 0 0 0 2h-2v1h-1-1-1a7 7 0 0 0-1 0 5 5 0 0 0-1 0 2 2 0 0 1-1 1zM338 329l1 1-1-1-1-3-2-3-1-1v1l2 2 1 2 1 2zM326 309h1-1v-1l-1-1-2-2 2 2 1 1zM34 472l-1-1h-2a14 14 0 0 1-2-1l-1-1a12 12 0 0 0 2 1l1 1h2l1 1zM71 467l1-1-1 1h-1 1zM115 466h-3-1-1a5 5 0 0 1-1-1v-1h-1a1 1 0 0 1 0 1 5 5 0 0 0 0 1h7zM80 308l1-1 1-1 2-4-1 1-1 2-2 3zM80 313l-1 2h-1v1l-1 1-1 2-1 1-1 1 6-8zM49 295l1-3 1-1h1v-1l-3 4a5 5 0 0 0-1 1h1zM307 346a20 20 0 0 1 3 7 28 28 0 0 1 1 3v3a26 26 0 0 0-1-9 8 8 0 0 0-3-4zM48 465h-1a33 33 0 0 0-3 1h1l1-1h2s1 0 0 0zM310 376l1-2v-2-1-2-2-1l1-4v-1h-1v-1-1 8l-1 9zM262 222a1 1 0 0 0 1 0v0h-1zM376 386l-1-4-1-4a104 104 0 0 0 1 5l1 3zM255 247h1l1 1v-1h-2zM277 265a5 5 0 0 0-2-1 7 7 0 0 1 2 1zM297 419c0-1 0-1 0 0z"/><path d="M263 251h-1l-1-1-1-1a16 16 0 0 0-4-2l1 1h2l2 2h1v1z"/><path d="M262 250l1 1 2 1 1 1 1 1c1 0 0 0 0 0 1 1 1 1 0 0l-2-1-1-1-1-1-1-1zM250 249a4 4 0 0 1 0-1 3 3 0 0 1 1 0 4 4 0 0 1 1-1 5 5 0 0 1 1 0 9 9 0 0 1 3 0h-1a9 9 0 0 0-2 0 3 3 0 0 0-1 0 4 4 0 0 0-1 0 3 3 0 0 0-1 1 4 4 0 0 0 0 1zM111 31l1-1 2-1c1 0 0 0 0 0h-1l-2 2zM84 391v-1zM77 374a53 53 0 0 0 1 5l2 4 1 2 1 2 1 2v1h0v-2-3l-1-1v-1l-3-3a39 39 0 0 1-2-4v-1-1z"/><path d="M6 398l-1 1-1 4v3l-1 1v2l2-16v-2a12 12 0 0 0 0 1l-1 4a5 5 0 0 1 0 2l-1 6v3l-1 4-1 9-1 8a62 62 0 0 0 0 8 33 33 0 0 0 1 6l1 1a8 8 0 0 0 0 1 2 2 0 0 0 0 1l1 1v3l1 1v2l1 1-1-2v-1a20 20 0 0 1-1-2v1c0 1 0 0 0 0l1 2v1l1 1 1 2 1 1 1 2 1 1h1v1l1 1h1l1 1h1l1 1 2 1h2l1 1h2l1 1a16 16 0 0 0 1 0h2v1c0 1 0 0 0 0a11 11 0 0 0 2 1 11 11 0 0 0 1 1 13 13 0 0 0 2 1l1 1h1a71 71 0 0 1 3 1 2 2 0 0 1-1 0 12 12 0 0 1-1 0h15l1-1h3a5 5 0 0 1-1 1 35 35 0 0 1-3 0h1l3-1 8-1 7-3h3l1-1h1l1-1h1l1-1v-1l1-1h1a6 6 0 0 0 0-1v-1a12 12 0 0 0 1-5 13 13 0 0 0-1-4v-1-1a4 4 0 0 1-1-1 5 5 0 0 1 1 1l1 3v-1-1h-1v-1a12 12 0 0 0-1-1 12 12 0 0 0-2-3 12 12 0 0 0-1-1h-1l-1-1h-2-1a6 6 0 0 0-1 0h-2a5 5 0 0 1 0-1h3a6 6 0 0 1 1 0h1a9 9 0 0 1 1 1h1a11 11 0 0 1 4 3 13 13 0 0 1 3 8 13 13 0 0 0-1-5 12 12 0 0 0-1-3l-1-1-1-1-1-1h-1a7 7 0 0 0-1-1 31 31 0 0 0-2 0 8 8 0 0 0-1-1 8 8 0 0 0-1 0h-1-1-1v1h-3a75 75 0 0 1-9 2h-1l-4 1a37 37 0 0 1-4 1l4-1 4-1h1l3-1h-4l-5 1a33 33 0 0 1-4 1 10 10 0 0 1-1 0 4 4 0 0 1-2-1v-1h-1a15 15 0 0 1-3-5 10 10 0 0 0 0 1 17 17 0 0 0 1 2l1 2 1 1h1a5 5 0 0 0 1 1 8 8 0 0 0 1 1 5 5 0 0 1 2 0h-1a6 6 0 0 1-1 0 6 6 0 0 1-2 0 6 6 0 0 1-1-1h-1a11 11 0 0 1-1-2 21 21 0 0 1-3-3 19 19 0 0 1-2-3v-1-2a8 8 0 0 1 1-1 6 6 0 0 1 0-1v-1a5 5 0 0 1 1 0 6 6 0 0 1 1-1l1-2v-1-1l-4 4h2l1-1a6 6 0 0 1 2 0v1a8 8 0 0 1 2-1 14 14 0 0 1 2 0h2a21 21 0 0 1 2 1 13 13 0 0 1 3 1 17 17 0 0 1 2 2 14 14 0 0 1 2 2 10 10 0 0 1 2 3v1l1 1v1a7 7 0 0 1 1 0v1h1v1a16 16 0 0 0 2 1l1 1a8 8 0 0 0 1 0 13 13 0 0 0 2 1 9 9 0 0 0 2 0h-1a11 11 0 0 1-1 0l-1-1h-1l-1-1h-1c-1 0 0 0 0 0v-1a8 8 0 0 1 1 0v1h2v1h3a12 12 0 0 0 4 0 13 13 0 0 0 4-2h1v-1h1a8 8 0 0 0 1-1 13 13 0 0 0 3-6v-1-1-1a13 13 0 0 0 0-2v-1-1a8 8 0 0 0 0-1h-1v-1l-1-1-1-1v-1h-1a51 51 0 0 0-8-7 84 84 0 0 0-11-6 12 12 0 0 0-2-1l-1-1a12 12 0 0 1-1 0h3s0 1 0 0a3 3 0 0 0-1 0h-1l-3-1-3-1h-3v-1h-2-1a2 2 0 0 1-1 0 2 2 0 0 1-1-1 3 3 0 0 1 0-1 4 4 0 0 1 0-1v-1a3 3 0 0 1 0-1l1-1 1-3 3-10 9-22v1l1-4 1-2 2-5 2-4v-1l1-1 1-3 1-3 4-9 1-2 1-2 1-2 3-4 1-1v-1l-2 2v1l1-3 1-2v-1l1-1 1-2 2-3 2-4-2 2-1 2-2 1-1 2 1-1v-1l1-1 2-2 1-3 1-1v-1l1-1 1-1 1-1 2-2v-1c2-1 1 0-1 3l1-2h1v-1a25 25 0 0 1 2-2h1a12 12 0 0 1-1 2l-1 1-1 1-2 3-2 2-1 1v1l-1 1-1 3-1 2 2-2 2-3-1 1a10 10 0 0 0 1-2c1 0 2-1 2-3h1l1-1 2-1v-1l3-3 2-3 4-3 3-3 3-2 3-2a159 159 0 0 1 15-12l4-3 2-1 1-1 1-1 8-6h1v-1 3l-1 4-2 10a15 15 0 0 0 0-3v-1l-2 2v-1l1-1v-1a34 34 0 0 0 1-4v-2l1-1v-1h-1a57 57 0 0 1-9 7 141 141 0 0 1 2-1 1 1 0 0 1 1 0l-1 1 1-1 1-1a101 101 0 0 0 4-3l1-1v1a52 52 0 0 1-1 4v1a9 9 0 0 0-1 1v1l-1 2-1 5-1 9-3 11v2l-1 3v2a1387 1387 0 0 0-1 2v-1-1a104 104 0 0 1 3-12 62 62 0 0 0-2 9l-1 1v4a57 57 0 0 1-1 9l-3 8a44 44 0 0 0 2-6l-3 15a120 120 0 0 0-1 4v1c0 1 0 1 0 0v-1-1 3a11 11 0 0 0 0 1 5 5 0 0 0 0 1 2 2 0 0 0 0 1 53 53 0 0 0-5-2h-1l-3-1a42 42 0 0 0-8-1 24 24 0 0 0-9 2 18 18 0 0 0-4 2 19 19 0 0 0-2 1 21 21 0 0 0-1 2l-2 2-1 1-1 2v1a29 29 0 0 0-3 6 21 21 0 0 0 0 4h-1v1a3 3 0 0 0 1 1l-1-1a10 10 0 0 1 0-1 12 12 0 0 1 0-1v-1a6 6 0 0 1 0-1l-1 1v1a29 29 0 0 0 0 5 30 30 0 0 0 2 6 33 33 0 0 0 1 3l1 3 2 3 1 2 1 1 3 5 2 2 1 2a422 422 0 0 0 0 1 11 11 0 0 1-1 2c0 1-2 1-6-7l1 2 1 2 1 2 1 2 1 2 1 1 1 2 2 3 2 3a21 21 0 0 1-1-3l-1-1a10 10 0 0 1 0-1l2 1 1 3 2 3a81 81 0 0 0 3 5l1 1 1 1 1 3 3 4c-1-2-1-2 1-1a41 41 0 0 1 6 7c-1-1-1 2-3-1l2 3 5 5 1 1 1 1 2 1 1 2a7 7 0 0 0-1-1h-1a1 1 0 0 0 0 1h-1-4-1-1l-1 1a17 17 0 0 0-5 2 18 18 0 0 0-3 2 16 16 0 0 0-2 3v-1l1-1a18 18 0 0 1 6-4 15 15 0 0 1 1 0 16 16 0 0 0-2 1h-1l-1 1a16 16 0 0 0-3 3 16 16 0 0 0-3 6 15 15 0 0 0 1 8v2h1a16 16 0 0 0 1 2v1h1v1h6l13-2-3 2h2a36 36 0 0 0 6 0l6-2 10-3a126 126 0 0 1 12-2 135 135 0 0 1 14-2h19l-10 1-13 2a376 376 0 0 0-14 2l-13 3 6-1h7l-8 2 1-1h3l10-1h15c-1-1 4-1 10-1l11-1h-16a495 495 0 0 0-15 1h-1l3-1 8-1 13-1h15c5 0-4 2-4 2h12l6-1 4 1h-9 28a213 213 0 0 0 13 2h3l1 1a5 5 0 0 0 2 0 22 22 0 0 1-2-1 17 17 0 0 1-2-1 5 5 0 0 1-2-2c-1-1 0-2 3-3l5 1h2l2 1h2l3 1h2l3 1 4 1h1l1 1h2a16 16 0 0 0 2-2l1-1a3 3 0 0 1 0 1v1l-1 1-1 1v1h-1-1-1-1-1l1 1h1a6 6 0 0 1 1 0h2l1-1 1-1v-1h1v-1l1-1v-1a5 5 0 0 1 1 0c0-1 0 0 0 0l1-2a9 9 0 0 0 0-1l1-1a16 16 0 0 0 0-4 4 4 0 0 1 0-1l-1-1v-1-1-1a18 18 0 0 0-4-5l-1-1v-1c-1 0-1 0 0 0v1l1 1 1 1v1l1 1v1h1a16 16 0 0 0-3-4h-1v-1l-1-1-1-1h-1-1c-1 0 0 0 0 0l-1-1h-1a38 38 0 0 0 4-3v-1h0a4 4 0 0 1 1-1l3-4 4-7 5-7a4 4 0 0 0 1 0v-1l1-1a66 66 0 0 1 4-7l1-1v-1l1-1 1-1v-2a125 125 0 0 0 6-11 105 105 0 0 0 4-12 90 90 0 0 0 2-14v-1-2-1h1v-1-1-3-1-3l-1-3a36 36 0 0 0-2-4l-1-3a13 13 0 0 1 1 2 25 25 0 0 1 1 2 49 49 0 0 1 2 5v1a3 3 0 0 0 0-1v-1a22 22 0 0 1-1-3l-2-3a25 25 0 0 0-2-4 21 21 0 0 0-6-5 22 22 0 0 0-8-3 5 5 0 0 0 1 1h1l3 1a24 24 0 0 1 3 2l2 1a21 21 0 0 1 2 1 21 21 0 0 1 3 4 25 25 0 0 1 2 4 31 31 0 0 1 1 5 36 36 0 0 1 1 3l-2-2v-2l-1-1a32 32 0 0 0-2-4 22 22 0 0 0-3-4 19 19 0 0 0-5-4 20 20 0 0 0-6-2 26 26 0 0 0-7 0 32 32 0 0 0-5 1l-3 1h-2 0a20 20 0 0 0-3 2 10 10 0 0 0-1 0 6 6 0 0 0-1 0v1a1 1 0 0 1 0-1 4 4 0 0 1-1-1 10 10 0 0 1-1-1 18 18 0 0 1-1-2v-3l-1-1v-1-2l-1-3-2-10-2-9-2-14a25 25 0 0 1-1-5h1l1 2 2 9 1 7 2 14-2-12a266 266 0 0 1 2 6 575 575 0 0 0-7-38 45 45 0 0 0-2-5l-3-5a187 187 0 0 1-4-10 24 24 0 0 1-1-4 10 10 0 0 1 0-1 4 4 0 0 1 0-1 1 1 0 0 1 0-1 1 1 0 0 1 1 0 3 3 0 0 1 1 0 8 8 0 0 1 1 0l1 1c0 1 0 0 0 0l-1-1-1-1h-1a4 4 0 0 0-1 0 2 2 0 0 0-1 0 3 3 0 0 0 0 2v1a4 4 0 0 1 0 1l-1-1a8 8 0 0 1 0-2 4 4 0 0 1 0-1 2 2 0 0 1 1 0 1 1 0 0 1 0-1 3 3 0 0 1 1 0h1l1 1v-1h-1a7 7 0 0 0-1 0 8 8 0 0 1 2 0h1l1 1a26 26 0 0 1 3 2l2 1 3 2 2 2h1l1 1 16 12 1 1 1 1a7 7 0 0 0-2-1 94 94 0 0 0 2 2l3 2 3 3 2 1 1 1 2 1 1 1-1-1-3-3-3-2-1-1 4 2 1 1 2 2 2 1 1 2 2 1 2 2a108 108 0 0 1 13 14 21 21 0 0 0-3-4l-1-2-1-1v-1a172 172 0 0 1-2-1 6 6 0 0 1-1-1l-1-1-3-3-2-2-2-2a105 105 0 0 0-9-7 12 12 0 0 0 2 2 84 84 0 0 0-10-9l-12-10v1a11 11 0 0 1-1-1 154 154 0 0 1-3-2l-1-1a985 985 0 0 1-2-2l-1-1-2-1h-1 1c-1 0-1 0 0 0l1 1 2 1 1 2 2 1v0h-1l-1-1-2-1-2-2-1-1h-1l-3-2h-1l-1-1a17 17 0 0 0-2 0 8 8 0 0 0-2-1 4 4 0 0 0-1 1 2 2 0 0 0-1 0 3 3 0 0 0 0 1 5 5 0 0 0 0 1 9 9 0 0 0 0 2 17 17 0 0 0 0 3 24 24 0 0 0 1 4l1 2a5 5 0 0 1 0 1v-2l-1-1c0-1 0 0 0 0 0-1-1-1 0 0v1l1 1 2 4v1l1 1v2l1 1a11 11 0 0 0 1 2v1l1 1v3l-1-1v-2l-1-2 1 2a29 29 0 0 1 1 4l1 4 1 2a472 472 0 0 1 6 35v1a1969 1969 0 0 0 3 13v2a1851 1851 0 0 0 2 5 14 14 0 0 0 0 2 9 9 0 0 0 1 1 8 8 0 0 0 1 1 10 10 0 0 0 1 1h2l3-2h2v-1h2l1-1h1c1 0 0 0 0 0a29 29 0 0 1 4-1 27 27 0 0 1 3 0 21 21 0 0 1 7 0 17 17 0 0 1 3 2 15 15 0 0 1 3 1 16 16 0 0 1 4 6 23 23 0 0 1 2 7 33 33 0 0 1 0 3v4a68 68 0 0 1-1 8 85 85 0 0 1-2 11 90 90 0 0 1-5 14v1l-1 1-2 3-1 2-1 2-1 2v1a44 44 0 0 0-4 5l-2 4a1 1 0 0 1 0 1h-1l-1 2-3 4-3 3-1 2-2 2-3 2v1h-1v1l-2 1-1 1-1 1-2 2-3 2-3 3-1 1-1 1 7 1 3 1h2a5 5 0 0 1 1 0l1 1a5 5 0 0 1 1 0l1 1a10 10 0 0 1 1 1 9 9 0 0 1 2 3 9 9 0 0 1 0 3 10 10 0 0 1 0 3 7 7 0 0 1-1 1 3 3 0 0 1 0 1 3 3 0 0 1-1 0h-1l-1 1a198 198 0 0 0-36-4l1 1-22-1-28-1a65 65 0 0 1 10 0 190 190 0 0 0-35 1h-9l-8 1-8 1-8 1a91 91 0 0 1-12 2 24 24 0 0 0-1 0h-7 6-9l-1 1h-3v-1a4 4 0 0 1 0-1v-1l-1-1c0-1 0 0 0 0v-1 2a12 12 0 0 1-1-6l1-2 2-1a14 14 0 0 1 3-3 11 11 0 0 1 2-1 10 10 0 0 1 1-1h6l4 1a54 54 0 0 1 8-1h1-1l-10-12-1-2-1-1-2-2-3-4a27 27 0 0 0-4-4l1 1-11-15-1-3-1-1v-1l-2-1-1-2-2-2v-1l-1-1-1-2a51 51 0 0 1-4-7h1l1 1 1 2-1-1v-1l-1-1-1-2-2-3-1-2-1-1v-2l-1-2-1-2v-1l-1-3a28 28 0 0 1 0-4 24 24 0 0 1 0-5v1a29 29 0 0 1 4-10l1-1v-1l1-1 1-1a9 9 0 0 1 3-2 17 17 0 0 1 3-1l2-1h1a24 24 0 0 1 3 0 32 32 0 0 1 4 0l4 1 4 1 1 1h2l1 1h2a11 11 0 0 1 1 0l1-1a4 4 0 0 1 1 0h1a2 2 0 0 1-1-1 7 7 0 0 1 1-2 19 19 0 0 1 0-2h1v-1-1-2-1l1-8 2-9 3-9v-1-1l1-2v-3l1-2 2-8 4-17-1 1 1-3v-2l1-2 1-3v-2l1-1a213 213 0 0 0 2-13v-1l-1 1a2 2 0 0 1-1 1v-1l3-2-2 1-3 2-4 4h-1l-1 1-2 1a585 585 0 0 1-5 4l-2 1-2 1-4 2-8 5a64 64 0 0 0-7 6l1-1v-1l-1 1-2 1a34 34 0 0 1-3 3s-1 0 0 0a5 5 0 0 1 0-1 24 24 0 0 1 2-2l1-1h1a76 76 0 0 0-9 7l-1 2-1 1-2 2-2 5-2 2-1 1-1 2a60 60 0 0 0-6 8l-1 2-1 2a39 39 0 0 1-3 3v-1l3-5-5 8-3 5a1295 1295 0 0 1-11 23 21 21 0 0 0-1 2 102 102 0 0 0-3 8l-1 3-1 2-2 4-2 6-5 14 1-2v-2a45 45 0 0 1-2 10l-2 6-1 1v2a14 14 0 0 0-1 3 8 8 0 0 0 0 2 7 7 0 0 0 0 1 3 3 0 0 0 1 1 10 10 0 0 0 3 2h1v1h2l5 2 6 2h2l2 2 5 3a51 51 0 0 1 6 5l-1-1v-1l4 3 1 1 1 1v1a4 4 0 0 1 1 0 7 7 0 0 1 0 1 1 1 0 0 1 0 1 8 8 0 0 1 0 3 9 9 0 0 1-6 7 6 6 0 0 1-2 0 7 7 0 0 1-3-1l-1-1-1-1-1-1h-1 1v1l1 1h1a5 5 0 0 0 0 1 5 5 0 0 0 1 0h-1a5 5 0 0 1 0-1h-1l-1-1-1-1v-1l-1-1a25 25 0 0 0-5-7 26 26 0 0 0-4-3 25 25 0 0 0-5-2 20 20 0 0 0-4-1 15 15 0 0 0-4 0h-1 5a24 24 0 0 1 2 0 18 18 0 0 0-7 0h-1c-1 0 0 0 0 0h-1a6 6 0 0 0-1 1 5 5 0 0 0-1 0l-1 1 3-1-5 5 2-4a8 8 0 0 0-1 1 1 1 0 0 0-1 1 1 1 0 0 1 0 1v1l-1 1a14 14 0 0 0-1 2v2a13 13 0 0 0 0 3 2 2 0 0 1 0 1h-1v1a18 18 0 0 0 2 6 19 19 0 0 0 3 4 23 23 0 0 0 2 3l1 1h1v1h1c0 1 0 0 0 0a14 14 0 0 0 5 2 19 19 0 0 0 5 0l5-1 3-1h1l5-2 6-1h2a2 2 0 0 1 1 0h1l1 1a7 7 0 0 0 0-1h-1 1a5 5 0 0 1 2 1v1c0 1 0 0 0 0a7 7 0 0 1 0 1 7 7 0 0 1 1 2 7 7 0 0 1 0 1 6 6 0 0 1-1 2 6 6 0 0 1 0 1v1h-1a3 3 0 0 1 0 1 17 17 0 0 0-1 0 3 3 0 0 1-1 0l-1 1h-3l-11 3-9 2a18 18 0 0 1-2 0 37 37 0 0 1-8-1h-3a7 7 0 0 1-1-1 5 5 0 0 1-1-1h-1v-1l-1-2h-1-1-2-1a9 9 0 0 1-1 0h-1-1v-1h-1a4 4 0 0 1-1 0v-1h-1-1v-1h-1l-1-1a8 8 0 0 0-1-1l-1-1v-2a31 31 0 0 1-3-6 43 43 0 0 1-2-8 68 68 0 0 1-1-9 104 104 0 0 1 2-17v-3l1-2 1-2 1-4 1-4v-2l1-3 1-5 1-4 1-4v1l6-18a191 191 0 0 0 3-11 16 16 0 0 1 1-1c0-1 0-1 0 0v1l3-8 2-3 1-3 4-10 1-2 1-3 2-4 7-12h1v-1h1l15-18 14-12 15-12a11 11 0 0 1-2 2l12-9 13-9 14-9 3-2a2 2 0 0 1 1-1h2a6 6 0 0 0 1-1h1a9 9 0 0 0 1-1v-1l1-1v-1-1h1v-2l-3-3-2-2-1-1-3-4-2-1-1-1a27 27 0 0 0-2-2l-2-3-4-4-2-3-1-1-1-2-1-1-1-1 2 3 2 3 1 2h-1a146 146 0 0 1-3-3l-1-2-1-1-1-2-1-2-1-1-1-3c-2-3-2-4 1 1l1 2-1-3-5-9-7-15a181 181 0 0 1-12-32 131 131 0 0 1-3-17v-2-2l-1-2v-11a99 99 0 0 1 5-25v-2h1v-1l1-2 1-2 3-8 1-2 1-1 2-4a88 88 0 0 1 9-13h-1l-1 1-1 1-1 1 2-2 3-4 2-2 1-1 1-1 1-1a23 23 0 0 1 2-1h1a12 12 0 0 1-2 1l-1 1-1 1-1 1-1 1 1-1h1l2-2 2-2a122 122 0 0 0 4-4l2-1a19 19 0 0 0 2-2l7-3h-1l-1 1-1 1-1 1h-1l-3 2c-1 1-1 1 0 0h1l1-1 2-1 2-1 2-1h-1l-1 1c0 1 0 0 0 0l2-2h1l1-1 1-1 2-1a60 60 0 0 1 11-5l6-1h2l1-1h1l2-1 3-1h3l2-1h3V9h2l3-1h2-7 4l3-1h2l2-1h2a5 5 0 0 0-1 0h-1-2l17-1a116 116 0 0 1 12 1l3 1h3l1 1h2l2 1h2l3 1h1l1 1h1l2 1 2 1h1l2 1h1l1 1 2 1 2 1h1v1h1l1 1 1 1 2 1 4 2 1 1 1 1 2 1 1 2 2 1 2 1 2 2 1 1 1 1 1 1 1 2 2 1a87 87 0 0 1 6 8l6 9-1-1v-2a9 9 0 0 1 1 2l2 3 2 3v2l3 9a115 115 0 0 1 4 11 56 56 0 0 1 2 10l1 2v2l1 1v4l1 2v1l1 11v1c0 1 0 0 0 0a2 2 0 0 0 0-1v-2 5c0 1 0 1 0 0v1a5 5 0 0 0-1 1 24 24 0 0 0 0 1v9l-1 1-1 10a197 197 0 0 1-3 21 89 89 0 0 1-3 11l-1 2-1 3-1 1v1l-2 3a114 114 0 0 1-13 18l1-1v1a10 10 0 0 1 0 1l-1 1-1 1-1 1-1 1-1 1-1 1-1 1-3 2-2 1-1 1v1h-1v1h-1v1l-1 1a8 8 0 0 0-1 2 7 7 0 0 0 1 4 11 11 0 0 0 4 4v1c0 1 0 0 0 0h1a43 43 0 0 0 5 3 12 12 0 0 1-2-1h2l6 3 5 2h1l1 1 3 2a123 123 0 0 1 13 10l8 8a386 386 0 0 1 32 35 224 224 0 0 1 14 19 176 176 0 0 1 11 20l5 11 2 5 1 3v1l1 2 1 3 1 2v3l1 3 1 3v2l1 6v-4l1 8c0-5 1 0 1-1l1 4 1 4a209 209 0 0 1 1 18 18 18 0 0 1 1 2v4a29 29 0 0 0 2 5l1 3 1 2 1 2 1 1v1l2 4a40 40 0 0 0 2 5v-1c0-1 0 0 0 0l-1-2v-1l-1-1c-1 0 0 0 0 0v-2h-1v-1l1 2h1a25 25 0 0 0-2-6l-1-3a27 27 0 0 1-1-4v-3a19 19 0 0 1-1-4v-2-1-3l-2-13v-3-4a218 218 0 0 0-3-12v-2l-1-1v-1-2a97 97 0 0 0-2-5 6 6 0 0 1 0 1l1 1a122 122 0 0 1-2-6l-1-2-5-13 1 1-2-3-1-2v-2l-1-1-1-2-1-3-1-2-1-2-1-1-1-1-9-16-3-4-1-2-1-2-2-2-1-2-3-4-2-2-1-2-4-5-4-5-4-5v2l1 1-3-4-3-2-3-4c-2-1-1-1 0 0l4 5 5 6a53 53 0 0 0-4-4l-2-3-3-3-3-3-3-4a518 518 0 0 0-27-24h-1l-1-1-2-1a33 33 0 0 0-3-2 10 10 0 0 0-2 0h1v1l-4-2-2-1h-1l-2-1h-1a21 21 0 0 1-2-1l-1-1a2 2 0 0 1-1-2 2 2 0 0 1 0-1 1 1 0 0 1 1 0 2 2 0 0 0-1 0 1 1 0 0 0 1 1 3 3 0 0 0 0 1 2 2 0 0 1 0-1 2 2 0 0 1 0-1v-1h1l2-2 2-2 1-2 10-10h-1v1l-2 2-1 1-2 2-1 1a790 790 0 0 1 7-8 117 117 0 0 0 8-11 82 82 0 0 0 7-12 83 83 0 0 0 4-14l4-27v-3-3l1-2v-1-2-1a95 95 0 0 0 0-13v2l-1-8v-1-2l-1-2-1-9v-2l-1-1v-1-2l-1-3a112 112 0 0 0-5-14l1 1a248 248 0 0 0-11-21l-1-3 1 2-1-2-1-1v-1l-1-1-1-2-2-2-1-1-1-1-1-1-1-1-1-2h-1v-1l-2-1-1-1-1-1-2-2-3-1v-1l-1-1-1-2h-1l-1-1-2-1h-1l-1-1-2-2-3-1-1-1-2-1-1-1-2-1 2 1 1 1-1-1a50 50 0 0 0-2-2h1l1 1 2 1-5-3-1-1h-1l-2-1-2-1-1-1h-1l-2-1h-1l-1-1-4-1-4-1h-3l-2-1h-2l-11-1-6-1h-2-1-2c-3 1-3 1-1 1h13l2 1h4v0h-2-3-8-7l-3 1h-13-2l-3 1h-3a110 110 0 0 0-13 4l2-1 2-1a89 89 0 0 0-12 4l-13 6-8 5-2 1a18 18 0 0 0-1 1 5 5 0 0 0-2 2l1-1 2-1 3-2 1-1h1l1-1 2-1 1-1h2l1-1 2-1 1-1-4 2-2 2-1 1-2 1-2 1-1 1-1 1-2 1-2 1-3 2-2 2-1 1-1 1-1 1-1 1-1 1-2 1a76 76 0 0 0-3 3l1-1 1-1 1-1 1-2 2-2-2 1v1l-1 1-2 1-1 2-3 3-2 4 2-5 3-3 1-1 1-1 2-2a99 99 0 0 1 10-8l9-6-1 1h-2l-1 1-2 1-1 1-2 1-3 2-2 2-1 1h-1l1-1-2 2-1 1-1 2h-1l-1 1-1 2h-1l-1 1-3 4a74 74 0 0 0-6 8l-2 5-2 3-1 2v-1l-5 11 1-1v-1l1-2v-2l1-2-4 9-1 2v2l-1 2-1 3v1l-1 1v2l-1 2v2l-1 3v4l-1 3 1-3v-1-1-2l1-1v-3-1l1-2v1l1-1 1-2-1 2v3l-1 1v3l-1 4v5l-1 2v24l1 2v3l1 3v-1-1a181 181 0 0 1-2-8v-1a5 5 0 0 1 0-1l1 2v4l1 1v4l1 1v5l1 2v2l1 4 1 2 1 2v-2a35 35 0 0 0 2 5 41 41 0 0 0 1 4l5 10 2 4 1 4 2 4a15 15 0 0 0 2 3 13 13 0 0 1 2 2l2 4 2 2 1 2 1 2-1-1-2-3-2-3-1-1 1 1 1 2 1 2 2 4 1 1-1-1-1-1 2 2 1 2 2 3 2 3 1 2 1 1 4 6 2 3 1 1 1 1 1 1 1 1 2 1 2 2 2 2v1h1v1l1 1v1c-1 0 0 0 0 0v1c0 1 0 0 0 0h-1a5 5 0 0 0-2 1 4 4 0 0 1 2-1 5 5 0 0 1 0-1 10 10 0 0 1-1-2l-4-3a52 52 0 0 0 4 5v1a3 3 0 0 0-1 0l-1 1-1 1-2 1-3 2 5-4-2 3-7 4-9 7 1-1-12 9a14 14 0 0 1 2-3 26 26 0 0 1 2-2l5-3-9 7-4 2-3 2-2 2-2 2-3 2-3 1-2 1-2 2-4 3-2 2-2 2-2 3-2 2a272 272 0 0 0-19 20l-2 4-2 2-1 2-2 3-2 2a106 106 0 0 0-5 10l-1 1-1 2-1 2-1 3-1 3-3 6-2 6-3 5-2 4-1 3v2a23 23 0 0 0 1-3l1-1-1 3-2 6-3 10s-1-1-2 2l-1 7-1 4-1 3v2l-2 10-3 11 1-3v-4l2-6zm36 48a7 7 0 0 0 1 0 12 12 0 0 0 1 0 25 25 0 0 0 3 0l3-1a15 15 0 0 1 3 0l-3 1a22 22 0 0 1-3 0 18 18 0 0 1-2 1 10 10 0 0 1-3-1zm56-156l-7 7 1-2 1-1 1-1 4-3zm166 5v0zm-4-15c0-1 0-1 0 0a18 18 0 0 1 1 2l1 6a15 15 0 0 0 0-3 41 41 0 0 0-2-5zM157 13h-3l4-1a7 7 0 0 1 1 0 8 8 0 0 1-2 1z"/><path d="M80 313a3 3 0 0 1-2 1l2-1zM48 296l1-1zM287 468v1l-1 1-1 1-1 1h-1v1h-1l-1-1h-1l2 1h1v-1h1a19 19 0 0 0 3-4zM299 278l-1-1-3-2-2-1-1-1-1-1a80 80 0 0 1 7 6l-1-1h1a13 13 0 0 1 1 1zM343 354l2 4-2-7v3zM304 286a4 4 0 0 0 1 2l2 2 7 7-1-1-9-10zM315 298l1 1v1l1 1 1 1 1 1-1-1-1-2-2-2zM251 259l-1-1v-1l-1-1c-1 0 0 0 0 0a3 3 0 0 1 0-2v-1a5 5 0 0 0 0 1v1c0 1 0 0 0 0a25 25 0 0 0 1 4l2 5 2 4 1 1a4 4 0 0 0-1-1v-2l-2-3-1-4zM307 292l-1-1v-1l-4-3 3 3h1v1zM264 256l1 1 2 2 1 1 3 2 2 1 2 2-2-2-2-1-2-2h-1v-1h-1l-2-2-1-1zM275 265zM296 282l-1-1-1-1-1-1h-1l-2-2-2-2-1-1 1 1 3 3 2 1 1 1 1 1zM289 338h2a27 27 0 0 1 4 0 24 24 0 0 1 5 0l1 1h1a6 6 0 0 0-2-1 19 19 0 0 0-5-1 28 28 0 0 0-5 0l-1 1zM273 320a40 40 0 0 1 0 5h1zM288 336a18 18 0 0 1 3-1 31 31 0 0 1 5 0h0-1a29 29 0 0 0-5 0h-3a30 30 0 0 0-3 1l-1 1h1l4-1zM267 467l3 1v-2l-3 1zM102 471v1l1 1v1h4a22 22 0 0 0 3 0h1a6 6 0 0 0 2 0 6 6 0 0 1 2-1h2-8-5v-1l-1-1-1-1-1-1v-1 2l1 1z"/><path d="M113 473h3l1-1h1l-3 1zM382 421l1 1 1 3 2 4v-1l-1-2-1-2-1-2-1-1zM390 436l-1 1v2l1 2v2l1 1-1-4v-2-2zM36 432v-1a2 2 0 0 0-1 1 3 3 0 0 0 0 1 6 6 0 0 0 0 2v-1a4 4 0 0 1 0-1 3 3 0 0 1 0-1h1zM24 468h1c1 0 0 0 0 0a1 1 0 0 0 0-1 2 2 0 0 0-1 0 17 17 0 0 1-2-1 15 15 0 0 0 2 1v1zM13 365l-2 7-1 3-1 4 1-4 1-2v-3l1-2 1-3z"/></g><path d="M248 58c-9-17-33-22-51-14a40 40 0 0 0-12 8 35 35 0 0 0-23-8c-19 0-32 13-36 29-4 15-2 31 1 46 2 12 5 25 12 35 8 12 25 9 30-1l1 2c4 9 15 15 25 9a37 37 0 0 0 3-2 15 15 0 0 0 12-2c10-7 18-16 23-26 8-9 12-19 16-30 5-15 6-31-1-46z" fill="#f5e1ae"/><path d="M235 146c-6-22-22-48-46-52-26-5-49 20-59 41-11 23-12 52 4 73 12 15 29 24 49 24 19 0 35-9 46-22 15-18 12-44 6-64z" fill="#f5e1ae"/><path d="M174 118a7 7 0 0 0-10-1c-1 1-2 3-1 5 1 1 4 2 5 1a4 4 0 0 0 1 0h1a9 9 0 0 1 1 6c0 4 7 4 7 0a16 16 0 0 0-4-11zM198 116a8 8 0 0 0-10 1 14 14 0 0 0-5 10c0 5 7 5 7 0a7 7 0 0 1 2-4l2-1c2 2 4 1 5-1s0-4-1-5zM215 180c0-4-7-4-7 0 1 17-5 36-24 38-18 2-28-16-30-32-1-4-8-2-7 2 3 20 17 39 39 37s30-25 29-45z" fill="#282525"/><g><path d="M232 356l-4-34c-2-19-6-43-14-60-7-13-35-23-42-4-10 26-8 57-9 85 0 15-2 30 0 45 1 15 5 30 17 40a25 25 0 0 0 19 5c9 2 17-4 23-12 9-8 12-26 12-35 1-10-1-20-2-30z" fill="#f5e1ae"/><g fill="#f6e5b9"><path d="M229 357v-1 1zM232 367v1-1zM233 377a3 3 0 0 0 0-2 14 14 0 0 1-1-3l1-1h-1l1 6zM231 382v-1a10 10 0 0 1 0 1zM231 381c0-1 0 1 0 0zM231 386v-1c0-1 0 0 0 0v1zM232 387v0zM231 385v1h1l-1-1zM232 384a2 2 0 0 1 0-1v-1 1a14 14 0 0 0 0 1z"/><path d="M233 377l1-1h-1v1zM230 394h1l-1-1v1zM231 394v0zM232 388v-2-1c0-1 0 0 0 0v3zM229 400v-1 1zM228 403h-1a7 7 0 0 0 0 1v2a7 7 0 0 1 0-1 11 11 0 0 1 1-2zM227 407a9 9 0 0 0 0-1 7 7 0 0 0 0 1zM230 398a2 2 0 0 0-1 1l1-1zM230 398v0zM230 398zM232 391v0zM231 397v-2s0 1 0 0v2zM231 398v-1zM228 405a8 8 0 0 1 0 2 18 18 0 0 0 1-3l-1 1zM229 402zM224 414zM229 404a3 3 0 0 0 0-1 15 15 0 0 1 0 1c0 1 0 1 0 0zM226 409a8 8 0 0 0 1-1l-1 1zM229 402zM229 402a5 5 0 0 0 0 1 9 9 0 0 0 0-1zM225 418a1 1 0 0 1 0-1 4 4 0 0 1 1 0 8 8 0 0 1 0-1 7 7 0 0 1 1-1 1 1 0 0 0 0-1 1 1 0 0 0-1 0 4 4 0 0 0-2 0 2 2 0 0 1 0 1 6 6 0 0 1 0 1 4 4 0 0 0 1-1l1-1-2 3c0-1 0 0 0 0a6 6 0 0 1 0 1v0h1zM226 412v-1a5 5 0 0 1-1 1l-1 1v1l1-1 1-2z"/><path d="M227 409a5 5 0 0 1 0 1h1a3 3 0 0 0 0-2 3 3 0 0 1 0-1 6 6 0 0 1 0 2v-1l-1 1v-1l1-1-1 1v1l-1 1v1c0 1 0 0 0 0a10 10 0 0 0 0-1l1-1c0-1 0 0 0 0zM233 394c0 1 0 1 0 0zM233 395a2 2 0 0 1 0-1s0-1 0 0a6 6 0 0 1-2 3 4 4 0 0 0 2-2zM230 402v2h1-1v-2zM224 414l-1 1h1zM222 417v-1 1h-1a1 1 0 0 0 1 0zM162 292v-1a5 5 0 0 0 0 1zM162 298c0-1 0-1 0 0zM167 400v-2a6 6 0 0 1 0 2zM163 343v1h1l-1-1zM161 342l1-1a9 9 0 0 0-1 1zM168 261l-1-1c0 2 0 1 1 1zM195 431l-1-1h-1l1 1h1zM167 295v-1 1zM191 430h1a4 4 0 0 0-1 0zM230 314v0zM229 347v-2a6 6 0 0 0 0 2zM213 426c1 0 0 0 0 0zM217 426zM183 430zM214 426h-1a5 5 0 0 0 1 0zM214 426v-1 1zM212 427h1v-1l-1 1zM212 257v1h1a3 3 0 0 0-1-1zM160 382zM160 379a4 4 0 0 1 0 3l1-1-1-1v-1z"/><path d="M164 279l-1 1a21 21 0 0 1 0-2h-1l1 4v1a12 12 0 0 0-1 1l1 2v0 5l-1 1v1a656 656 0 0 1 0 1v4a21 21 0 0 1 1 2h-1l1 2c-1 1-1-1-1-2-2 1 0 1-1 5v-2l-1 5s1-4 2-2a5 5 0 0 0 0 3l-1 2v2a3 3 0 0 1-1 3c0 2 1-2 1 1a21 21 0 0 0 1 7h-1l1 1-1 1 1 2v6h-1a32 32 0 0 0 1 5v2l1 2 1-1v3h-1v-1l-1-2a4 4 0 0 1 0 1v1l-1 1h1l-1 2v2l2 9h-2v-6 5l-1 1 1 5v5l-1 3v3a22 22 0 0 0 1 3v1a4 4 0 0 1-1-1 581 581 0 0 0 3 6h-1l-2-1a9 9 0 0 0 0 3h1a8 8 0 0 0 0 1l-1 2s2 0 2 2l-2-1 1 1a12177 12177 0 0 0 0 3v3a7 7 0 0 0 0 1v-1-1a5 5 0 0 0 2 4 7 7 0 0 1 1 3c0-1-2-1-1 1l1 1 1 1a14 14 0 0 1 3 3v2l1 1a16 16 0 0 1-1-1l-2-2a25 25 0 0 1-3-3v2a9 9 0 0 1-1-1 60 60 0 0 0 1 4l2 2 1 1v-1l-1-1-1-2-1-1 2 2a16 16 0 0 1 3 3l-1 1h-1a8 8 0 0 1 1 1l1 1a2 2 0 0 1 0 1l-1-1a5 5 0 0 0 1 2 7 7 0 0 1 1 1 5 5 0 0 1 1 1 8 8 0 0 1 0 1l1 1 3-3v1l1 1v2a8 8 0 0 1 1 1h-1-1l1 1v1c1 0 3 3 1 0a8 8 0 0 1 1 1 7 7 0 0 1 1 1l1 1h3a11 11 0 0 1 1 0v1a40 40 0 0 0 4 2 18 18 0 0 0 4 1 9 9 0 0 0 1 1 7 7 0 0 1 2 0c1 0 0 0 0 0l-1 1 2-1h2a1 1 0 0 0-1 0 10 10 0 0 0-1 0h-1-1-1l2-1 4-1h1a1 1 0 0 1 1 0h2a5 5 0 0 0 2 0 8 8 0 0 1 1-1 6 6 0 0 1 1 0h2v1a6 6 0 0 1-2 1h-1-1 2a5 5 0 0 1-2 0 4 4 0 0 1-1 0h1a6 6 0 0 0 1 0 14 14 0 0 0 3 0 23 23 0 0 0 3-2l3-1 1-1h-1c-1 0 0 0 0 0v-1l2-2a15 15 0 0 1 2-2v1a4 4 0 0 0-1 1 7 7 0 0 1 1-2l2-2-1 1h-1l1-2 1-1v-1h1v-1a3 3 0 0 1-1 1h-1 1v1a9 9 0 0 1-1 1l-1 1a4 4 0 0 0-1 1 6 6 0 0 1-2 2 5 5 0 0 1-1 0 1 1 0 0 1 0 1 2 2 0 0 1 1 0 5 5 0 0 1-1 1l-2 2v-1l-1 1c-1 0 0 0 0 0h-1v-1 1h-1c-1 0 0 0 0 0l-2 1h-1a5 5 0 0 0-1 0h-1s0 1 0 0h-1v1h-1-1v-1h-3l-1 1h-1a9 9 0 0 1-5-1h-1-1a6 6 0 0 1-1-1h-1a5 5 0 0 1-1-1l-1-1h-1a1 1 0 0 0-1 0 2 2 0 0 0 0-1 4 4 0 0 0 0-1h-1l-1-1a21 21 0 0 1-4-3l-3-4h-1a8 8 0 0 1-1-2l-1-2a32 32 0 0 0 0-1 14 14 0 0 0-2-5 10 10 0 0 1-2-4 3 3 0 0 1 0-2v-1a4 4 0 0 0 0 1v-1l-1-2h0a7 7 0 0 0-1-1v-2a2 2 0 0 1 1-2 9 9 0 0 1-1-2 11 11 0 0 0-1-2c0-1 0-1 0 0a8 8 0 0 0 0-3v-1-1l-1-1a3 3 0 0 1 1-1l1 1-2-6 1 1v-4-6a69 69 0 0 1 1-10v-3h1l-1-6h1v-1 1c1-3 0-3-1-3a4 4 0 0 0 0-4v-6a4 4 0 0 0 0-1v-5 1-4-12 1l2-5v1c1-3-1 0-1-3 0 0 1 1 1-1a11 11 0 0 0 0-3 9 9 0 0 1 0-4h-1a18 18 0 0 1 1-4 5 5 0 0 0 0-3v-5a2 2 0 0 0 0-2 21 21 0 0 0 1-3 21 21 0 0 1 0-3l1-1v-2-2a13 13 0 0 0 1-3 7 7 0 0 0 0-1c0-1 0 0 0 0l1-3v-1a27 27 0 0 0 0-4h1a14 14 0 0 1 1-3 42 42 0 0 0 1-3l1-2a6 6 0 0 1 2-2 10 10 0 0 1 3-2l3-2h1l1-1h1a5 5 0 0 1-1 0c-1 0 0 0 0 0v-1a5 5 0 0 1 2 0h0c-1 1 0 1 2 1l2 1a28 28 0 0 1 10 3 34 34 0 0 1 7 6v-1c0-1 0 0 0 0h1v1l1 1-1-1a2 2 0 0 0 1 2 5 5 0 0 0 1 0 4 4 0 0 1 0 1l-1-1v1h1a4 4 0 0 1 2 2v2l1 3v-1a12 12 0 0 1 1 1s0 1 0 0a1 1 0 0 0 1 0 6 6 0 0 0 0 1 14 14 0 0 0 0 1v2l1 2v1l1 1v2a10 10 0 0 1 1 2 14 14 0 0 1 1 2l1 3 1 1-1 1a5 5 0 0 0 0 1v4l1 2c0 2 1 2 1 1l-1 1a19 19 0 0 1 1 3v4l1 3v4h1v5h1l1 7 1 7a67 67 0 0 1 0 15h2l-1 4 2 5-1-1c1 1 2-3 3-3-1-1 1-5-1-8h1l-1-3-1-13v1a8 8 0 0 1 0-2c-1-2 0 3-1 2v-5-5c0-2 0 1-1-1h1l-1-1 1-2a8 8 0 0 0 0 1l-1-5v-2l-1-4-1-4-1-4v1a13 13 0 0 1-1-4v-1a22 22 0 0 0 0-2 12 12 0 0 1-1-3v-1-2a3 3 0 0 0-1-1 9 9 0 0 1-1-1v-1a7 7 0 0 1-1-3c0 2 0-1 1 1a13 13 0 0 0 0-2l-1-1c0-1 0 0 0 0a21 21 0 0 0-1-2v-1a7 7 0 0 1-1-1 3 3 0 0 1 0-2l1 3h-1a9 9 0 0 1-1-2 3 3 0 0 1 0-1v-2a9 9 0 0 0-1-1 9 9 0 0 0 0-1 8 8 0 0 0 0-1 6 6 0 0 0-1-2 7 7 0 0 1-1-2 7 7 0 0 1-1-1h-1 1v1l1 1a13 13 0 0 0-2-2 17 17 0 0 1-3-2 6 6 0 0 1 2 0l-2-2 2 2 3 3a5 5 0 0 0-1-2l-1-1a4 4 0 0 1-2-2 6 6 0 0 0-3-2h1a11 11 0 0 1-2-1h2a8 8 0 0 1-3-1 7 7 0 0 0-2-2l1 1v1a12 12 0 0 1-2-1 5 5 0 0 1-1-1 5 5 0 0 0-1-1 9 9 0 0 0-3-2 5 5 0 0 1 2 1v1a23 23 0 0 1-3-2 6 6 0 0 0-2 0h1s0 1 0 0a2 2 0 0 0-2 0 11 11 0 0 1-2 0 6 6 0 0 0-2-1 1 1 0 0 0 0 1 1 1 0 0 1-1 0 7 7 0 0 1-2 0h1l1-1h-4l-3 1a7 7 0 0 1-2 1h-1l-1 1a3 3 0 0 1 1-1 2 2 0 0 1 1-1h1a7 7 0 0 0-2 0 19 19 0 0 0-2 2v-1a3 3 0 0 1 1 0 16 16 0 0 0-2 2l-1 1c-1 1-1 0 0 0a26 26 0 0 0-2 2 2 2 0 0 1 0-1 1 1 0 0 1 0-1 4 4 0 0 1 0-1 16 16 0 0 0-1 2v1l-1 1a6 6 0 0 0-1 1 5 5 0 0 0-1 1 7 7 0 0 0 0 1v1c0 1 0 0 0 0v1l-1 2a10 10 0 0 1 0 2 3 3 0 0 1 0 1l-1 1-1 2a13 13 0 0 0 0 4l-2 1h1v2c0 3-1 1-1 2a22 22 0 0 1 0 2 9 9 0 0 1 0 4 17 17 0 0 1 0-2zm-2 27v-2 2zm0 41a3 3 0 0 1 0-1 5 5 0 0 1 0 1zm45 83zm2-1c1 0 1 0 0 0a2 2 0 0 1-1 1l1-1zm4-163v-1 1zM162 343v-1 1zM168 262v-1z"/><path d="M174 425a3 3 0 0 1 0-1v1zM218 421v1h-1v1a4 4 0 0 1 1-1v-1zM228 412c0 1 0 1 0 0zM220 421h1v-1a5 5 0 0 1 1 0h-1s0-1 0 0h-1c-1 0 0 0 0 0v1zM222 419zM212 428v-1a4 4 0 0 0-1 1h1zM222 421h-1v1l1-1zM216 428v-1h1v-1l-1 2zM217 426a5 5 0 0 0 1-1l-1 1zM220 424l-1 1 1-1zM198 433h0s1 0 0 0zM204 434a2 2 0 0 1-1 0v1l1-1zM199 434a2 2 0 0 1-1 0v1h1v-1zM173 422h1l1-1-1 1zM161 399v2l1 1v-1c0-1 0-1 0 0l-1-2zM162 401zM229 352v2-2zM230 355h-1l1 1a2 2 0 0 1 0-1zM160 310l1-1zM162 290zM163 273v0z"/></g></g><circle cx="220" cy="81" r="12" fill="#282525"/><circle cx="147" cy="82" r="11" fill="#282525"/><g fill="#cf6e6b"><ellipse cx="220" cy="160" rx="15" ry="14"/><path d="M237 160c0-1 0 0 0 0zM236 157v-1a2 2 0 0 1 0 1zM235 154l1 2a8 8 0 0 0 0-1 2 2 0 0 1-1-1zM235 152v1a3 3 0 0 1 0-1zM235 153c1 0 0-1 0 0zM235 152v-1 1zM234 152h0zM235 152c-1 0-1 0 0 0zM235 152s0 1 0 0c0 1 0 1 0 0zM235 154v0zM234 150zM234 150h-1 1zM234 152a6 6 0 0 1 1 0h-1zM233 149zM232 148a1 1 0 0 0 0-1 1 1 0 0 1 0 1zM231 147a1 1 0 0 0 1 0 1 1 0 0 0-1 0zM233 149zM233 149zM233 149zM234 151h-1 1zM233 150zM233 150zM232 148a1 1 0 0 1-1 0 3 3 0 0 0 1 0zM232 149zM230 147zM232 148v0zM231 147zM232 149c0-1 0-1 0 0zM232 149zM228 148h1l1-1h-1v0l-1 1h0zM230 147zM231 148h-1 1c-1 0 0 0 0 0a4 4 0 0 1 0-1v1c0-1 0 0 0 0v-1a3 3 0 0 0-1 0 4 4 0 0 0 1 1zM233 151zM232 151h1a2 2 0 0 1 0-1 3 3 0 0 0-1 1zM232 149h-1 1zM230 147v-1h-1l1 1zM229 146zM208 167zM208 166zM212 146v-1 1zM205 156zM206 157zM213 170zM222 144zM206 169c0-1 0-1 0 0zM221 144a1 1 0 0 1 1 0h-1zM231 167zM236 162a3 3 0 0 1 0 1 1 1 0 0 0 0-1zM226 145zM227 146zM220 145c0 1 0 1 0 0zM227 145a1 1 0 0 0-1 0 1 1 0 0 0 1 0zM227 145zM226 145zM222 173zM210 150zM210 151v-1 1z"/><path d="M210 169v-1h1-2v-1 1l-1-1v-1a1 1 0 0 1-1 0v-1-1 1a1 1 0 0 0 0-1l-1-1h0l1-1h-1a2 2 0 0 0 0-1l-1-1v-1h1a5 5 0 0 1 0-1 6 6 0 0 0-1 0l1-1-1-1a2 2 0 0 0 0 1v-1l1 1v-1 1-1-1a3 3 0 0 1 0-2l1 1-1 1h1v-1-1c1 0 1 0 0 0l1-1 1-2a6 6 0 0 1 1 1v-1-1 1a1 1 0 0 0 1 0l-1-1a3 3 0 0 0 1 1v-1l1-1v1l1-2v1l1-3v1l1-1-1 3h1v-1 1a1 1 0 0 1 0-1c1 0 0 0 0 0h2s0 1 0 0a6 6 0 0 1 0-2 3 3 0 0 1 1 0v2a1 1 0 0 1 0-1v0h1v-1a1 1 0 0 0 1 0l1 1s1 0 0 0h1v0h-1a1 1 0 0 1 2-1h2v1l-1-1v1a1 1 0 0 1-1 0h1a4 4 0 0 1 2 1v-1a1 1 0 0 1 1 0h1-1 1l-1-1h-2 1l-1-1a1 1 0 0 0-1 0h-1a5 5 0 0 0-1 0 2 2 0 0 1-1 0 1 1 0 0 1-1 0h-1l-1-1a4 4 0 0 1-1 0v1a2 2 0 0 0-1 0v1h-1-1-1v1a3 3 0 0 0-1 0 1 1 0 0 0 1 0 1 1 0 0 0-1 0h-1l-1 2h-1v1h-1v1l-1 1h-1l-1 1v2a1 1 0 0 0-1 1v-1 0a1 1 0 0 0 0 1 1 1 0 0 0 1 1 1 1 0 0 0-1 0s0 1 0 0v2a10 10 0 0 0 0 2v-1 3c1 0 0 0 0 0a1 1 0 0 0 0 1h1l-1 2h1l-1 1h1a1 1 0 0 1 0 1h1v2h1l1 1 1 1v1a1 1 0 0 0 1 0l2 1a2 2 0 0 0 1 1 3 3 0 0 1 2 1h1v-1s1 0 0 0h1v1a11 11 0 0 1 1 0h1a10 10 0 0 0 3 0h-1 1c0 1 0 0 0 0 1 0 0 0 0 0h1-1 2v-1h3a2 2 0 0 1 1-1h1v-1c0-1 1 0 0 0h1a6 6 0 0 1 1-1h1a4 4 0 0 0 0-1h1v-1a5 5 0 0 0 1-1v-1l1-1 1-1v-1-2-2 1h-1v1a1 1 0 0 0-1 1 6 6 0 0 1-1 3l-1 1c-1 1 0 0 0 0-1 0 0 0 0 0v1h-1v-1 1a7 7 0 0 1-1 1 8 8 0 0 0-1 1l-1 1a1 1 0 0 1-1 0l-1 1s-1 0 0 0h-2 1l-1 1-1-1h-1v1h1-2a1 1 0 0 1 1 0h-1l1-1s0 1 0 0l-1 1v-1l-1 1 1-1h-1v1l-1-1a1 1 0 0 1-1 0s1 0 0 0v1-1l-1 1v-1h-2 1l-1-1v0l-1 1 1-1h-1l-1-1h-1a1 1 0 0 0-1 0v-1 1-1l-1-1v1zm-3-5v0zm-1-8zm19-12c-1 0 0 0 0 0zm0 1zm-2 30c1 0 0 0 0 0zM206 157zM213 170zM218 147zM228 145zM230 149v-1 1zM228 146v0zM228 147z"/><path d="M226 145s0-1 0 0c0-1-1 0 0 0zM228 147zM226 146v1h1l-1-1zM227 147zM227 147zM223 145h-1v1l1-1zM224 146l-1 1zM223 146l-1 1 1-1zM217 146v-1 1zM213 149v-1 1zM213 148zM237 161v-1 1zM236 160h1-1zM207 163v1zM209 167zM211 169v-1 1z"/></g><g fill="#cf6e6b"><ellipse cx="138" cy="164" rx="16" ry="14"/><path d="M156 164c0 1 0 0 0 0s-1 0 0 0zM155 162l-1-1a3 3 0 0 1 1 1zM154 159v1l1 1a7 7 0 0 0-1-1 2 2 0 0 1 0-1zM154 157v0zM154 157c0 1 0 0 0 0zM153 156a2 2 0 0 1 1 1v-1h-1zM153 156zM153 157v-1 1zM154 157h-1 1zM153 159l1 1-1-1zM152 154v0zM152 155zM153 157zM151 153h1-1zM151 153v-1a1 1 0 0 0-1 0 1 1 0 0 1 1 1zM150 152zM151 154zM151 154zM151 154zM152 156s0-1 0 0zM151 155h1zM151 155v-1 1zM150 153zM151 153zM148 151v1-1zM150 153zM149 152zM151 153zM151 153a1 1 0 0 0-1 0 1 1 0 0 0 1 0zM147 153l1-1h-1 1-1l-1 1h1zM149 152a2 2 0 0 1-1-1l1 1zM149 152v0a2 2 0 0 1 1 1 3 3 0 0 1-1-1zM151 156zM151 156a2 2 0 0 1 0-1 3 3 0 0 0 0 1zM150 154zM148 151zM147 151zM125 172h0zM125 171zM130 150h-1 1zM122 161zM123 162zM130 175zM140 149a1 1 0 0 0-1 0h1zM123 173zM139 148a1 1 0 0 0 0 1v-1zM150 172zM155 167zM144 150c1 0 1-1 0 0zM145 151zM137 150zM145 150zM145 150z"/><path d="M144 149a1 1 0 0 1 1 1h-1zM140 178zM127 155zM127 156v-1 1z"/><path d="M127 173h1-2v-1h-1v-1a2 2 0 0 1-1 0c0-1 0 0 0 0v-1-1 1a1 1 0 0 0 0-1 2 2 0 0 1 0-1v1l-1-1h0l1-1h-1a2 2 0 0 0 0-1c0-1 0 0 0 0v-1h-1v-1c0-1 1 0 0 0h1a5 5 0 0 1 0-1 6 6 0 0 0-1-1h1l-1-1 1 1v-1-2a3 3 0 0 1 0-1l1 1-1 1h1v-1-1a3 3 0 0 0 0-1v1l1-1 1-2a6 6 0 0 1 1 1v-2-1 2a1 1 0 0 0 1 0l-1-1a4 4 0 0 0 1 0v-1l1 1v-1 1h1v-1-1l1 1 1-3-1 3h1l1-1-1 1a1 1 0 0 1 1-2v1h1-1 2a5 5 0 0 1-1-2 4 4 0 0 1 1 0v2a1 1 0 0 1 0-1h2v-1l2 1h0a2 2 0 0 1 2-1c0-1 0 0 0 0h2v1l-1-1a1 1 0 0 1-1 0l1 1a4 4 0 0 1 2 0 1 1 0 0 1 1 0h2v-1h-1v1l-1-1h-1v-1h-1a1 1 0 0 0-1 0h-1a5 5 0 0 0-1 0 2 2 0 0 1-1 0 2 2 0 0 1-1 0v-1h-1-1a5 5 0 0 1-1 0v1a3 3 0 0 0-1 0l-2 1v-1l-1 1h-1a2 2 0 0 0-1 1v-1 1h-1v1a1 1 0 0 0-1 1v-1 1h-1v1h-1a1 1 0 0 0 0 1 10 10 0 0 0-1 0l-1 1-1 1v1l-1 1a1 1 0 0 0 0 1 1 1 0 0 0 0 1v2a9 9 0 0 0 0 1v3a1 1 0 0 0 0 1v1c0 1 0 0 0 0l1 1h-1l1 1a1 1 0 0 1 0 1h1v1l2 1v1l1 1h1-1a1 1 0 0 0 1 1c1 0 0 0 0 0h2v1h1a2 2 0 0 0 1 1 3 3 0 0 1 1 0h2v-1 1l1 1h2a11 11 0 0 0 2 0h1c1 0 0 0 0 0h2v-1h3a2 2 0 0 1 1-1v-1l1 1 1-1c1 0 0 0 0 0a2 2 0 0 1 1 0 7 7 0 0 1 0-1h1a4 4 0 0 0 1-1h-1 1v-1a6 6 0 0 0 1-1 5 5 0 0 0 1 0v-2l1-2 1-1c1-1 0 0 0 0v-1c0 1 0 0 0 0v-1-1l-2 1c1 0 0 0 0 0a1 1 0 0 0 0 1c0 1 0 0 0 0a1 1 0 0 1 0 1 6 6 0 0 1-2 2h1l-1 1h0l-1 1-1 1-1 1a8 8 0 0 0-1 1l-1 1a1 1 0 0 1-1 0c1 0 0 0 0 0l-1 1s-1 0 0 0h-2 1l-1 1-1-1h-1v1h1-2a1 1 0 0 1 1 0h-1l1-1s0 1 0 0l-1 1v-1h-1 1-2l1 1-2-1h1a1 1 0 0 1-1 0h-1-1 1-1 1-1-1s0-1 0 0l1-1h-1l-1 1v-1l-1-1h-1-1a1 1 0 0 0 0-1h-1l-1-1zm-3-4v0zm-1-8zm20-12zm0 1v-1 1zm-2 30c1 0 0 0 0 0zM123 162zM130 175zM135 152zM146 150zM148 153zM146 151v0c1 0 0 0 0 0z"/><path d="M146 152a1 1 0 0 1 1 0h-1zM144 150v-1 1zM146 152zM144 151h0zM145 151zM145 152zM141 150h-1 1zM142 151h-1zM141 151h-1 1zM135 151v-1 1zM130 154l1-1h-1v1z"/><path d="M130 153a1 1 0 0 0 1 0 1 1 0 0 0-1 0zM155 166l1-1h-1v1zM155 165v-1 1zM124 168zM126 172v-1 1zM128 173s0 1 0 0z"/></g></svg>