<svg id="Слой_1" data-name="Слой 1" xmlns="http://www.w3.org/2000/svg" viewBox="0 0 300 300"><defs><style>.cls-2{fill:#6ccbf1}.cls-3{fill:#dee0de;stroke:#61afd7;stroke-miterlimit:10;stroke-width:.45px}.cls-4{fill:#18395b}</style></defs><path d="M32.2 172.4c3.6-6.1 7.2-12.3 10.9-18.3 1-1.7.4-2.4-1-3.4-8.6-6.4-17-13-24.3-20.8a32.5 32.5 0 0 1-4.7-6.2c-2.5-4.5-1-7.3 4.3-7.5 3.7-.2 7.3.8 10.9 1.9 12 3.6 23.3 9 34.5 14.8 1.8.9 2.8.8 4.1-.7C88 110 113.8 95 142.4 84.7c3.4-1.3 3.5-1.3 1.6-4.4A97.3 97.3 0 0 0 130.4 64c-.9-1-2.5-2.1.5-2.2a13 13 0 0 0 1.7.6A95.7 95.7 0 0 1 169 78.5a17.2 17.2 0 0 0 12 3.8 232 232 0 0 1 41 2.2 341 341 0 0 1 46.4 9.4c6.1 1.7 11.8 4 18 5.3l1 .3c1 .5 3.5 2 2.4 4.3.1-2.4-1.2-2.9-3.1-2.5l-5.2.9c-12 2.2-23.3 6.3-34.5 11.1-13.7 6-26.1 13.8-36.5 24.7-5 5.2-10 10.3-15.3 15.3a55.6 55.6 0 0 1-17 11.4c-9.3 3.8-19 5.3-28.8 6.2-4 .3-8.3 1-12.1-1.2-1.1-.7-1.4.2-1.8 1-2 3-3.7 6.3-5.7 9.4-3.3 5-6.5 10.2-11.9 13.1-3.8 2.1-6.7.6-8-3.5a26.5 26.5 0 0 1-1-13.5c1.2-5.6-1.6-7.6-6-9.4-10.4-4.3-21-7.6-32-2.4-4.6 2.4-8 6.2-12.1 9.2l-3.3 2.8-17.1 12-5.8 3.5c-2.4.6-4.6 2.4-7.3 1.4l-.6-2.5c1.2-5.2 3.6-10 5.8-14.7zM184 107.5a18.7 18.7 0 0 0 18.5 18.7c10.2.2 19-8.5 19-18.7a18.6 18.6 0 0 0-18.8-18.7 18.4 18.4 0 0 0-18.8 18.7zm-54.6 12.6c.1-.7.4-1.6-.6-1.8-1.3-.1-1.4 1-1.5 2a47 47 0 0 0 0 17 40.8 40.8 0 0 0 6.1 15c.5.8 1 2 2.1 1.2 1-.6.1-1.4-.3-2.1l-3-5.4a42.9 42.9 0 0 1-2.8-25.9zm-16.5 11.8c0 9.3 2 17 6.5 24.1.6.9 1 2.6 2.3 1.8 1.5-.8 0-1.9-.5-2.7a41.1 41.1 0 0 1-4-8.3 45.3 45.3 0 0 1-1.7-22c.2-.7.8-2-.6-2.2-1.2-.1-1.2 1.2-1.3 2a35.7 35.7 0 0 0-.7 7.3zm29.8-14.9c0-.8.5-1.9-.6-2s-1.2.9-1.4 1.7a45.3 45.3 0 0 0-.5 13.2 39.6 39.6 0 0 0 6.8 19.4c.5.7.9 1.6 1.9 1s.2-1.4-.2-2c-1-1.9-2.1-3.6-3-5.5a43 43 0 0 1-3-25.8z" fill="#0da7dc"/><path class="cls-2" d="M70.8 164.4c11.1-5.2 21.6-1.9 32 2.4 4.4 1.8 7.2 3.8 6 9.4a26.5 26.5 0 0 0 1 13.4c1.4 4.2 4.3 5.7 8 3.6 5.5-3 8.7-8.1 11.9-13.1 2-3.1 3.8-6.3 5.7-9.5.4-.7.7-1.6 1.8-1 3.9 2.4 8.1 1.6 12.1 1.3 9.8-.9 19.6-2.4 28.8-6.2a55.6 55.6 0 0 0 17-11.4c5.3-5 10.3-10 15.3-15.3a110.2 110.2 0 0 1 36.6-24.7 158.6 158.6 0 0 1 39.6-12c2-.4 3.3.1 3.1 2.5 0 1-3.1 18-4.8 23.6a183.3 183.3 0 0 1-8.2 20.4 12.6 12.6 0 0 1-2.3 2.4A67.7 67.7 0 0 1 237 163a69.4 69.4 0 0 1-32.2-6.8c-.8-.4-1.8-1.2-2.5-.1s.8 1.4 1.5 1.9 1.6.8 2.4 1.2a23.7 23.7 0 0 0 .8 9c.7 2.6 2.1 3 3.8 1a23 23 0 0 0 3.9-6.6c1.4-.5 2.5.3 3.8.6a27.2 27.2 0 0 0 1.9 9c1 2.3 2.2 2.4 3.6.3a30.4 30.4 0 0 0 3.7-7.7l5.6.3c.4 3.1 2.1 5.7 3.8 8.3 1.3 2 2.6 1.7 3.5-.6a27 27 0 0 0 1.7-8l6-1a35.8 35.8 0 0 0 5 6.5c.7.8 1.5 1.8 2.8 1.3s1.3-1.8 1.3-3l-.2-7.2 5.1-2c1.3 1.5 2.9 2.5 4.2 3.9-2 3.2-5 6.1-7.3 9l-2.7 3a172.7 172.7 0 0 1-18.3 15c-1.5 1-21 12-29.8 15.3a167.4 167.4 0 0 1-53.6 10.5 103.5 103.5 0 0 1-43.6-11.1 113.6 113.6 0 0 1-21-15.9 161.6 161.6 0 0 1-12-13c-.5-.9-6.1-8.3-7.5-11.6zM289.2 100.8c-1-.9-13.3-4.4-19.5-6A362 362 0 0 0 222 84.5a231 231 0 0 0-41.1-2.2 17.2 17.2 0 0 1-11.9-3.8 95.7 95.7 0 0 0-36.3-16.1 13 13 0 0 1-1.7-.7c12.3-2.2 23.8 1 35 6l6.9 3.3 5.7 3.6c.9 1.2 2.2.7 3.4.8a298.2 298.2 0 0 1 30.3 2.2l18 2.4a3.8 3.8 0 0 0 1 .6 246.7 246.7 0 0 1 33 8.7l5.6 2 14.4 6.4c.9.3 4.4 2 4.9 3z"/><path class="cls-3" d="M264.3 89.3a246.5 246.5 0 0 0-33-8.7 3.8 3.8 0 0 1-1-.6c1-2 2.8-5.3 9.6-7.4 6-1.5 12.9-.7 17.8 3.6a20.2 20.2 0 0 1 6.7 12z"/><path class="cls-4" d="M262.5 159.3l-5.1 2-9 2.4-6 1-9 .2-5.6-.2-9.2-1.6c-1.2-.3-2.4-1.1-3.8-.7-2.6-1.6-5.6-2.2-8.4-3.3l-2.5-1.3c-.8-.5-2-.7-1.4-1.9s1.6-.2 2.4.2a69.4 69.4 0 0 0 32.2 6.8 67.7 67.7 0 0 0 37.3-12.7 12.6 12.6 0 0 0 2.4-2.4c1.3 2 .7 3.5-1.5 4.5s-3.1 3-3.6 5.3c-.4-2.1-1.5-2.5-3.3-1.4s-4 2.1-6 3.2z"/><path class="cls-3" d="M262.5 159.3l5.8-3c1.8-1 3-.8 3.3 1.3.3 1.9.7 3.8.7 5.7.1 2.9-.7 3.3-3.1 2-1-.6-1.6-1.5-2.6-2-1.3-1.5-2.8-2.6-4.1-4zM184 107.5a18.4 18.4 0 0 1 18.6-18.7 18.6 18.6 0 0 1 18.8 18.7 19 19 0 0 1-19 18.7 18.7 18.7 0 0 1-18.5-18.7zm23 14.7a9.7 9.7 0 0 0 .1-19.3h-.1a9.7 9.7 0 0 0 0 19.3z"/><path class="cls-4" d="M129.4 120.1a42.9 42.9 0 0 0 2.9 25.9c.8 1.9 2 3.6 3 5.4.4.7 1.2 1.5.3 2.1-1.1.8-1.6-.4-2.1-1.1a40.8 40.8 0 0 1-6.1-15 47 47 0 0 1-.1-17.2c.1-.8.2-2 1.5-1.8 1 0 .7 1 .6 1.7zM113 132a35.8 35.8 0 0 1 .6-7.4c.1-.8.2-2.1 1.3-2 1.5.2.8 1.5.6 2.3a45.3 45.3 0 0 0 1.7 21.9 41.1 41.1 0 0 0 4 8.3c.5.9 2 2 .6 2.8-1.3.8-1.8-1-2.4-1.8-4.5-7.1-6.5-14.9-6.5-24.2zM142.7 117c-1.5 9-.8 17.6 3 25.8.9 1.9 2 3.6 3 5.4.4.7 1.2 1.4.2 2.1s-1.5-.3-1.9-1a39.6 39.6 0 0 1-6.8-19.5 45.3 45.3 0 0 1 .5-13.2c.2-.8.3-1.8 1.3-1.6s.7 1.3.7 2z"/><path class="cls-3" d="M218.6 163l9.2 1.7a30.4 30.4 0 0 1-3.6 7.7c-1.5 2.1-2.8 2-3.7-.4a27.2 27.2 0 0 1-1.9-9zM206.3 159c2.9 1.2 5.9 1.8 8.5 3.4a23 23 0 0 1-3.8 6.6c-1.7 2-3.2 1.7-3.8-.8a23.7 23.7 0 0 1-.9-9.1zM248.3 163.7l9-2.4.2 7.3c0 1-.1 2.3-1.3 2.9s-2-.5-2.9-1.3a35.8 35.8 0 0 1-5-6.5zM233.4 165l9-.4a27.1 27.1 0 0 1-1.7 8.1c-.8 2.3-2.1 2.5-3.4.6a20.9 20.9 0 0 1-3.9-8.4z"/><path d="M207 122.2zm7.3-6.3c-.1-2.4-1.4-3.8-3.6-3.9a3.4 3.4 0 0 0-3.7 3.7 3.3 3.3 0 0 0 3.5 3.5c2.3.1 3.5-1.2 3.8-3.3z" fill="#132e50"/><path class="cls-3" d="M214.3 115.9c-.3 2-1.5 3.4-3.9 3.3a3.3 3.3 0 0 1-3.4-3.5 3.4 3.4 0 0 1 3.7-3.7c2.2 0 3.5 1.5 3.6 3.9z"/></svg>