<svg width="68" height="72" fill="none" xmlns="http://www.w3.org/2000/svg"><path d="M31.286 5.355c-1.021-.78-1.35-2.34-.734-3.47.371-.68 1.02-1.173 1.729-1.48A5 5 0 0 1 36.17.382a5.025 5.025 0 0 1 2.705 2.803c.332.868.403 1.884-.034 2.704-.26.488-.678.872-1.112 1.215-.527.418-1.09.791-1.678 1.115l-4.765-2.865Z" fill="#8E786E"/><path d="M31.431 2.463c.371-.68 1.02-1.173 1.729-1.48a5 5 0 0 1 4.097.073 4.888 4.888 0 0 0-1.13-.673 5 5 0 0 0-3.889.021c-.708.308-1.358.802-1.729 1.48-.617 1.13-.287 2.69.734 3.471l.812.488c-.934-.806-1.218-2.292-.624-3.38Z" fill="#705E58"/><path d="M32.312 4.869c-.078-1.058.239-2.246 1.142-2.795.475-.289 1.051-.364 1.605-.336.579.03 1.163.172 1.646.493.483.321.853.838.916 1.416.066.602-.204 1.203-.598 1.662-.394.46-.904.802-1.407 1.138-.042.028-.098.057-.14.029-.043-.029.013-.117.042-.074l-3.206-1.533Z" fill="#DDBE80"/><path d="M10.553 10.646c.41-1.221-.188-2.698-1.33-3.287-.686-.354-1.5-.398-2.258-.255A5.015 5.015 0 0 0 3.73 9.272a5.045 5.045 0 0 0-.676 3.841c.21.906.718 1.787 1.538 2.221.489.259 1.05.342 1.6.382.67.05 1.344.043 2.013-.02l2.347-5.05Z" fill="#8E786E"/><path d="M6.77 14.99c-.551-.04-1.112-.123-1.6-.382-.82-.434-1.329-1.315-1.539-2.221a5.053 5.053 0 0 1 .523-3.588c-.153.175-.296.36-.423.555a5.045 5.045 0 0 0-.676 3.842c.21.906.718 1.787 1.538 2.221.489.259 1.05.342 1.6.382.67.05 1.344.043 2.013-.02l.368-.792c-.6.046-1.204.047-1.805.003Z" fill="#705E58"/><path d="M8.294 13.977c-.83-.02-1.673-.282-2.298-.831-.625-.55-1.003-1.408-.876-2.232.157-1.02 1.065-1.822 2.07-2.048.54-.123 1.141-.092 1.604.215.59.39.84 1.155.823 1.865l-1.323 3.03Z" fill="#DDBE80"/><path d="M42.042 26.273c3.231.302 6.485.61 9.578 1.511 3.092.902 6.048 2.448 8.082 4.868 1.03 1.224 1.821 2.716 1.848 4.324.01.613-.102 1.258-.48 1.76-.344.455-.867.745-1.39.984-4.653 2.124-10.275 1.043-14.355-1.776l-3.283-11.672Z" fill="#8E786E"/><path d="M61.677 37.147c-.016-.969-.31-1.895-.766-2.746.027.204.044.41.048.617.01.614-.103 1.259-.482 1.76-.343.455-.866.746-1.388.984-4.598 2.1-10.14 1.068-14.207-1.674l.57 2.028c4.08 2.818 9.702 3.9 14.355 1.775.523-.239 1.046-.529 1.389-.984.379-.502.492-1.147.481-1.76ZM35.594 62.224c3.552 2.577 8.236 2.805 12.62 2.822 4.875.019 9.749-.104 14.623-.226.582-.015 1.197-.039 1.69-.351.591-.376.874-1.081 1.106-1.744a52.068 52.068 0 0 0 2.29-9.07c.07-.45.134-.92-.007-1.352-.413-1.26-2.212-1.37-3.403-.796-1.19.574-2.202 1.58-3.504 1.807-.912.158-1.84-.094-2.736-.328a79.216 79.216 0 0 0-18.09-2.545l-4.59 11.783Z" fill="#705E58"/><path d="M14.925 28.35s-1.777 3.692-3.825 17.413c-2.048 13.722 2.094 18.463 11.56 21.439 8.177 2.57 17.255-.5 22.222-3.874 7.487-5.086 6.49-20.272 1.745-28.95-4.743-8.677-7.028-13.522-7.028-13.522L14.925 28.35Z" fill="#8E786E"/><path d="M22.046 28.997c-1.212 4.351-1.553 8.909-1.666 13.434-.064 2.556-.051 5.155.639 7.61.69 2.456 2.145 4.787 4.344 5.97 1.198.645 2.546.92 3.876 1.166 3.717.686 8.858 1.37 12.164-.52 4.457-2.549 4.324-10.512 3.3-13.893-2.367-7.822-3.518-12.198-8.28-17.476l-14.377 3.71Z" fill="#DDBE80"/><path d="M21.115 4.262c-8.536 2.019-15.7 6.511-13.952 16.5 1.747 9.99 11.843 12.31 20.683 10.732 8.84-1.577 15.927-6.73 15.254-14.372C42.427 9.479 37.492.39 21.115 4.262Z" fill="#8E786E"/><path d="M30.271 29.9c-8.84 1.577-18.936-.743-20.683-10.732-.992-5.676.892-9.577 4.27-12.258-4.838 2.65-7.906 6.931-6.695 13.853 1.747 9.99 11.843 12.31 20.683 10.731 4.082-.728 7.79-2.22 10.533-4.365-2.35 1.3-5.13 2.239-8.107 2.77Z" fill="#705E58"/><path d="M25.3 15.996c-4.428 1.832-7.968 3.858-6.042 7.295 1.927 3.438 5.938 6.221 11.222 4.639 3.983-1.192 6.388-3.232 5.876-9.73-.296-3.75-7.372-3.727-11.055-2.204Z" fill="#DDBE80"/><path d="M13.602 61.793c2.71 3.457 7.151 4.967 11.362 6.192 4.682 1.362 9.402 2.588 14.122 3.814.564.146 1.161.293 1.72.128.673-.198 1.137-.798 1.543-1.372a51.979 51.979 0 0 0 4.685-8.09c.191-.412.382-.846.364-1.301-.052-1.325-1.751-1.928-3.054-1.704-1.302.224-2.55.913-3.864.772-.92-.1-1.743-.597-2.541-1.07-5.256-3.11-12.358-7.008-19.887-5.775l-4.45 8.406Z" fill="#8E786E"/><path d="M43.116 69.323c-.405.573-.87 1.173-1.542 1.371-.559.165-1.157.019-1.72-.128-4.72-1.225-9.44-2.451-14.123-3.813-4.21-1.225-8.565-2.954-10.925-6.661-.882-1.387-2.938-4.797-1.712-10.505.193-.902-2.505 2.18-2.505 2.18C9.737 65.35 20.753 66.76 24.963 67.985c4.682 1.362 9.403 2.588 14.122 3.813.564.147 1.162.293 1.721.128.672-.198 1.137-.798 1.542-1.371a51.934 51.934 0 0 0 2.032-3.108c-.408.634-.829 1.26-1.264 1.875Z" fill="#705E58"/><path d="M47.398 61.164c-.052-1.325-1.752-1.928-3.054-1.703-1.302.223-2.55.912-3.864.771-.92-.1-1.744-.597-2.541-1.07-5.256-3.11-12.359-7.008-19.887-5.775l-2.842.861c12.56-1.095 16.14 4.068 21.346 7.15.797.472 1.62.97 2.541 1.069 1.314.141 2.562-.548 3.864-.772 1.303-.224 3.002.38 3.054 1.703.018.455-.173.89-.364 1.303a51.946 51.946 0 0 1-2.265 4.327 51.97 51.97 0 0 0 3.647-6.562c.192-.413.382-.847.364-1.302Z" fill="#9E847C"/><path d="M13.592 33.554c-2.798 1.73-5.616 3.474-8.032 5.706-2.416 2.232-4.434 5.01-5.244 8.199-.409 1.613-.49 3.372.173 4.9.253.582.63 1.139 1.188 1.442.505.276 1.103.315 1.679.306 5.123-.079 9.755-3.611 12.247-8.09l-2.011-12.463Z" fill="#8E786E"/><path d="M3.355 51.687c-.575.01-1.173-.03-1.678-.305-.558-.304-.936-.861-1.188-1.444a5.774 5.774 0 0 1-.385-1.296c-.198 1.306-.137 2.653.385 3.856.252.582.63 1.14 1.188 1.443.505.275 1.103.315 1.678.306 5.124-.079 9.756-3.611 12.248-8.09l.701-5.15C12.1 51.075 8.265 51.612 3.355 51.687Z" fill="#705E58"/><path d="M23.17 18.145c-.48.293-.953.645-1.216 1.145-.262.5-.257 1.179.147 1.572.227.222.543.325.85.405 1.505.393 3.078.417 4.632.439.743.01 1.51.016 2.197-.27.545-.229 1.002-.627 1.418-1.048a12.76 12.76 0 0 0 1.812-2.31c.31-.509.56-1.235.126-1.64-.198-.184-.48-.235-.748-.27-3.106-.401-6.532.335-9.218 1.977Z" fill="#262425"/><path d="M28.96 20.819c.236 0 .236-.367 0-.367s-.236.366 0 .366Z" fill="#262425"/><path d="M28.744 20.694a16.408 16.408 0 0 1 .503 4.007c0 .093-.012.192.03.278a.285.285 0 0 0 .061.09l.022.024c.046.056.078.01.098-.139l.14.018.06.1-.054.13.008-.01-.13.053.017.002c.099.012.182-.092.183-.183 0-.109-.085-.171-.183-.183-.23-.028-.262.296-.1.4.216.139.386-.142.302-.329a.377.377 0 0 0-.06-.095c-.044-.052-.04-.035-.03-.104.019-.115 0-.247-.002-.363a16.988 16.988 0 0 0-.513-3.793c-.058-.229-.41-.132-.352.097Z" fill="#262425"/><path d="M27.078 25.55c1.61.427 3.413-.088 4.553-1.309.161-.171-.097-.431-.258-.259-1.053 1.127-2.709 1.61-4.198 1.215-.228-.06-.325.293-.097.353Z" fill="#262425"/><path d="M17.649 15.44c0 .745-.602 1.35-1.346 1.35a1.348 1.348 0 0 1-1.345-1.35c0-.746.602-1.35 1.345-1.35.744 0 1.346.604 1.346 1.35Z" fill="#272425"/><path d="M16.135 15.806a.62.62 0 1 0-.002-1.24.62.62 0 0 0 .002 1.24Z" fill="#fff"/><path d="M35.86 10.598c0 .746-.602 1.35-1.345 1.35a1.348 1.348 0 0 1-1.345-1.35c0-.745.602-1.35 1.345-1.35s1.346.605 1.346 1.35Z" fill="#272425"/><path d="M34.966 10.343a.62.62 0 1 1-.619-.62.62.62 0 0 1 .619.62Z" fill="#fff"/><path d="M23.29 6.15a1.438 1.438 0 0 0 .44 1.64c.727.582 1.823.44 2.791.384a11.665 11.665 0 0 1 3.182.252c.417.092.836.208 1.266.188 1.107-.053 2.016-1.178 1.752-2.17-.242-.914-1.235-1.47-2.203-1.76-1.826-.546-6.314-.766-7.227 1.465ZM2.431 46.519c-.32.752-.513 1.803.177 2.237.364.23.855.166 1.224-.055.37-.22.64-.573.883-.928 1.389-2.032 2.195-4.457 3.83-6.296.923-1.04 2.098-1.873 2.815-3.066.91-1.515-.48-1.653-1.456-1.084-1.153.671-2.207 1.712-3.13 2.665a21.525 21.525 0 0 0-4.343 6.527ZM56.918 31.505c.581.357 1.188.74 1.514 1.34.209.384.284.826.319 1.262.052.658.006 1.361-.365 1.906-.37.545-1.152.85-1.715.509-.791-.479-.599-1.671-.958-2.524-.66-1.568-2.957-1.62-4.06-2.913-.233-.273-.398-.704-.16-.973.15-.169.4-.198.625-.205 1.756-.055 3.332.696 4.8 1.598Z" fill="#9E847C"/><path d="M23.569 19.103c-.1.137-.192.289-.212.457-.02.17.047.358.197.437.126.066.28.042.413-.006.538-.197.864-.739 1.328-1.074.54-.389 1.238-.48 1.823-.793.096-.052.2-.126.206-.234.01-.161-.189-.244-.348-.263-1.182-.143-2.706.52-3.407 1.476Z" fill="#fff"/></svg>