<svg width="53" height="56" viewBox="0 0 53 56" fill="none" xmlns="http://www.w3.org/2000/svg">
<path d="M26.6965 50.3337C18.4921 50.3337 11.529 51.104 9.02441 52.1752C10.8439 53.6693 13.3435 54.318 15.5921 54.877C16.54 55.1127 17.4955 55.3188 18.4578 55.4892C20.9431 55.6678 23.7384 55.7679 26.6965 55.7679C27.7932 55.7679 28.8665 55.7533 29.9116 55.7271C31.0229 55.6309 32.1384 55.6005 33.2504 55.4982C34.7608 55.3608 36.2478 55.0663 37.7124 54.6812C39.9162 54.0999 42.3061 53.504 44.1185 52.0747C41.4231 51.0563 34.6417 50.3337 26.6965 50.3337Z" fill="#484B4F"/>
<path d="M26.6971 55.936C23.8004 55.936 21.0241 55.8424 18.4461 55.6574C17.4926 55.489 16.5244 55.2825 15.5505 55.04C13.4393 54.5153 10.8119 53.8622 8.91532 52.3046C8.86944 52.2668 8.84692 52.2093 8.8552 52.1509C8.86353 52.0934 8.9022 52.0436 8.95685 52.0208C11.5513 50.9106 18.6806 50.1648 26.6971 50.1648C34.5016 50.1648 41.3641 50.8526 44.181 51.9169C44.2383 51.9388 44.2796 51.9886 44.2887 52.0483C44.2981 52.108 44.2743 52.1681 44.2269 52.2059C42.447 53.6094 40.1767 54.207 37.9809 54.7854L37.7575 54.8437C36.1409 55.2692 34.6718 55.538 33.2668 55.6664C32.6843 55.7196 32.0927 55.7539 31.5203 55.787C30.9973 55.8175 30.4569 55.8488 29.9273 55.8948C28.8402 55.9222 27.7571 55.936 26.6971 55.936ZM9.35964 52.223C11.1787 53.6055 13.6408 54.2177 15.6349 54.7132C16.6013 54.9537 17.5617 55.1589 18.489 55.3233C21.041 55.5058 23.8087 55.5989 26.6971 55.5989C27.7545 55.5989 28.8343 55.5852 29.9078 55.5582C30.4317 55.5126 30.9746 55.4813 31.5002 55.4504C32.0695 55.4177 32.6581 55.3834 33.2351 55.3306C34.6209 55.2044 36.0707 54.9386 37.6686 54.5183L37.8922 54.4595C39.9525 53.9172 42.0798 53.3569 43.7671 52.1286C40.8496 51.1514 34.0863 50.5023 26.6971 50.5023C18.9853 50.5023 12.1147 51.1892 9.35964 52.223Z" fill="#707376"/>
<path d="M27.2273 56C26.9812 56 26.7454 55.9979 26.5058 55.9953C26.2545 55.9979 26.0181 56 25.7726 56C20.2524 56 15.5407 55.3332 12.1453 54.0727C9.2932 53.0126 7.50587 51.5653 7.24447 50.1017C6.79733 47.6154 0.299126 5.40834 0.233598 4.98202L0.193359 4.72012C0.193359 4.72012 1.08041 0.0842285 26.4996 0.0842285C51.9188 0.0842285 52.8059 4.72012 52.8059 4.72012L52.7657 4.98202C52.7001 5.40834 46.2017 47.6154 45.7554 50.1017C45.4925 51.5653 43.7061 53.0126 40.8538 54.0727C37.4592 55.3332 32.7468 56 27.2273 56ZM26.4886 55.5406C26.748 55.5432 26.9825 55.5453 27.2273 55.5453C39.7599 55.5453 44.9007 52.2428 45.2989 50.0227C45.7266 47.6446 51.7146 8.76493 52.2676 5.17608C52.2676 5.17608 53.8297 0.540185 26.5 0.540185C-0.829761 0.540185 0.732307 5.17608 0.732307 5.17608C1.28459 8.76493 7.27334 47.6446 7.70039 50.0227C8.09857 52.2428 13.2394 55.5453 25.7726 55.5453C26.0168 55.5453 26.2512 55.5432 26.4886 55.5406Z" fill="#707376"/>
<mask id="mask0_13345_314260" style="mask-type:alpha" maskUnits="userSpaceOnUse" x="0" y="0" width="53" height="56">
<path d="M0.598633 4.74911C0.598633 4.74911 7.02339 46.823 7.47447 49.5576C7.92426 52.2927 13.6039 55.7722 25.7747 55.7722C26.0227 55.7722 26.2607 55.7703 26.502 55.7675C26.7426 55.7703 26.9813 55.7722 27.2294 55.7722C39.3991 55.7722 45.0782 52.2927 45.5288 49.5576C45.9806 46.823 52.6505 4.74913 52.6505 4.74913C52.6505 4.74913 47.0852 -0.717315 26.952 0.247333C3.31852 1.37969 0.598633 4.74911 0.598633 4.74911Z" fill="white"/>
</mask>
<g mask="url(#mask0_13345_314260)">
<path d="M53.3824 9.99636C52.6597 11.6832 51.8661 13.4839 50.9993 15.3816C50.3406 13.9403 49.723 12.5531 49.1477 11.2303C50.8695 7.26534 52.2136 3.88299 53.1796 1.33657C53.1691 1.33442 53.1582 1.33186 53.1474 1.32927C53.0458 1.30694 52.9433 1.28592 52.8413 1.26359C51.9028 3.73531 50.6092 6.99183 48.9615 10.801C48.284 9.23512 47.6658 7.76165 47.108 6.39849C48.0445 4.10668 48.8096 2.12872 49.4039 0.540991C49.2907 0.518703 49.1772 0.495049 49.0636 0.47276C48.5017 1.97242 47.7884 3.81774 46.9236 5.94426C46.199 4.16335 45.5803 2.57909 45.0687 1.23053C45.2562 0.735491 45.4276 0.276547 45.5856 -0.151934C45.4711 -0.170399 45.3556 -0.187147 45.2405 -0.204731C45.129 0.096204 45.0112 0.41222 44.8856 0.746217C44.7437 0.369267 44.6113 0.0146514 44.4876 -0.320666C44.3586 -0.34001 44.2299 -0.361465 44.101 -0.37993C44.2813 0.109965 44.4817 0.647079 44.7024 1.23053C44.1906 2.57909 43.5721 4.16247 42.8478 5.94426C42.1233 4.16247 41.5046 2.57909 40.9932 1.23053C41.2616 0.521252 41.4987 -0.118035 41.7074 -0.688207C41.5905 -0.701089 41.4731 -0.710498 41.356 -0.723819C41.1916 -0.276042 41.01 0.214729 40.8098 0.746217C40.5924 0.16835 40.3972 -0.358871 40.2223 -0.836719C40.0962 -0.849208 39.9703 -0.8638 39.8438 -0.874968C40.0681 -0.260126 40.3288 0.444402 40.6269 1.23053C40.115 2.57909 39.4963 4.16335 38.772 5.94426C38.0276 4.11442 37.394 2.4902 36.8746 1.1189C37.1836 0.30143 37.4504 -0.421564 37.6784 -1.04885C37.5593 -1.05698 37.4404 -1.06344 37.3217 -1.07118C37.1368 -0.563701 36.9277 0.00348353 36.6916 0.632877C36.4436 -0.0274239 36.2248 -0.620766 36.0338 -1.14759C35.9095 -1.15401 35.7853 -1.16263 35.661 -1.16949C35.8979 -0.515603 36.1796 0.248189 36.5083 1.1189C35.9984 2.4636 35.3795 4.05216 34.6539 5.83949C33.9278 4.05216 33.3089 2.4636 32.799 1.1189C33.1426 0.209984 33.4346 -0.58388 33.6778 -1.25623C33.5578 -1.26093 33.4379 -1.26564 33.3181 -1.26951C33.117 -0.714367 32.8827 -0.0785136 32.6161 0.632877C32.3418 -0.0969785 32.1031 -0.746153 31.8984 -1.31118C31.7753 -1.31417 31.6527 -1.31888 31.5301 -1.3223C31.7773 -0.636682 32.078 0.180353 32.4327 1.1189C31.9228 2.46443 31.3039 4.05216 30.5779 5.83949C29.8523 4.05216 29.2329 2.46443 28.7233 1.1189C29.0841 0.164481 29.389 -0.665437 29.639 -1.3584C29.5183 -1.36012 29.3977 -1.3631 29.2766 -1.36482C29.0679 -0.787348 28.8229 -0.120584 28.5401 0.632877C28.2545 -0.127883 28.0077 -0.799393 27.7977 -1.38074C27.6755 -1.38201 27.5536 -1.38328 27.4316 -1.38456C27.6834 -0.686889 27.9913 0.15204 28.3567 1.1189C27.8473 2.4636 27.2279 4.05216 26.5021 5.83949C25.7765 4.05216 25.1572 2.4636 24.6477 1.1189C25.0164 0.143027 25.3267 -0.701928 25.5798 -1.40434C25.4587 -1.40562 25.3379 -1.40689 25.2168 -1.40821C25.0044 -0.820848 24.7546 -0.140367 24.4643 0.632877C24.1708 -0.14894 23.9184 -0.836719 23.7044 -1.42879C23.5825 -1.43094 23.4606 -1.43222 23.3386 -1.43354C23.5932 -0.725533 23.907 0.128826 24.281 1.1189C23.7715 2.46443 23.1522 4.05216 22.4266 5.83949C21.7005 4.05216 21.0816 2.46443 20.5717 1.1189C20.9503 0.117659 21.2663 -0.743559 21.5227 -1.45587C21.4014 -1.45714 21.2803 -1.45714 21.1592 -1.45842C20.9428 -0.859931 20.6871 -0.161822 20.3884 0.632877C20.0881 -0.166526 19.8311 -0.867673 19.6143 -1.46915C19.493 -1.46959 19.3714 -1.46831 19.2501 -1.46831C19.5076 -0.753011 19.8249 0.11212 20.2054 1.1189C19.6955 2.4636 19.0766 4.05216 18.3506 5.83949C17.625 4.05216 17.0059 2.4636 16.4962 1.1189C16.8752 0.115945 17.1916 -0.746593 17.4482 -1.45969C17.3262 -1.45842 17.2043 -1.45587 17.0819 -1.45455C16.8662 -0.856503 16.6107 -0.160108 16.3128 0.632877C16.0197 -0.147666 15.7682 -0.83373 15.5547 -1.42492C15.4347 -1.42149 15.3147 -1.41635 15.1943 -1.41292C15.448 -0.709223 15.7594 0.139158 16.1299 1.1189C15.6102 2.4902 14.9768 4.11442 14.2324 5.94426C13.5081 4.16335 12.8894 2.57909 12.3776 1.23053C12.7533 0.238736 13.0697 -0.620766 13.3281 -1.33734C13.2044 -1.33092 13.0804 -1.32362 12.9563 -1.31633C12.7406 -0.720832 12.4879 -0.0321717 12.1946 0.746217C11.9166 0.00862718 11.6745 -0.649959 11.4662 -1.22356C11.348 -1.21411 11.2295 -1.20642 11.1115 -1.19697C11.3607 -0.50958 11.6601 0.302309 12.0113 1.23053C11.4997 2.57909 10.8812 4.16247 10.1567 5.94426C9.4324 4.16247 8.81365 2.57909 8.30182 1.23053C8.62199 0.384742 8.89847 -0.36274 9.13341 -1.00932C9.00687 -0.995609 8.87967 -0.978855 8.75268 -0.96382C8.56626 -0.452911 8.3558 0.116385 8.11889 0.746217C7.90602 0.180353 7.71436 -0.336976 7.54212 -0.807966C7.42651 -0.791656 7.3109 -0.776227 7.19551 -0.759033C7.41013 -0.171278 7.65599 0.492499 7.93551 1.23053C7.42409 2.57909 6.80539 4.16335 6.08069 5.94426C5.10243 3.53822 4.31784 1.49198 3.72688 -0.100844C3.61454 -0.0746847 3.50264 -0.048921 3.39074 -0.0210038C4.01079 1.65127 4.84609 3.82759 5.89646 6.39849C5.33871 7.76165 4.72018 9.23512 4.04289 10.801C2.33165 6.84455 1.00306 3.48586 0.0565304 0.981515C-0.0508031 1.0206 -0.158314 1.0588 -0.265379 1.09916C0.706704 3.67002 2.08055 7.13912 3.85646 11.2303C3.28148 12.5531 2.66363 13.9403 2.00513 15.3816C1.02776 13.243 0.143498 11.2268 -0.649414 9.35963C-0.628646 9.6971 -0.608504 10.0358 -0.588854 10.3738C0.140901 12.0722 0.942765 13.8849 1.81696 15.7928C1.32546 16.8649 0.804638 17.9718 0.266989 19.0992C0.294516 19.3066 0.321192 19.5144 0.34939 19.7222C0.925264 18.5218 1.48019 17.3445 2.00513 16.2042C2.58977 17.4729 3.20629 18.7824 3.85319 20.1257C3.26398 21.3455 2.64635 22.5966 2.00513 23.8679C1.4865 22.8396 0.988195 21.8294 0.502825 20.8333C0.554836 21.2017 0.608144 21.5687 0.661676 21.9363C1.03761 22.6988 1.41918 23.4677 1.81369 24.2478C1.76754 24.3393 1.72296 24.429 1.67601 24.5213C1.52038 24.8275 1.35755 25.1422 1.19736 25.4534C1.2273 25.6445 1.25702 25.8355 1.28674 26.0266C1.52343 25.5689 1.75949 25.1121 1.9861 24.666C1.99246 24.6527 1.99877 24.6403 2.00513 24.6278C2.01189 24.6403 2.01779 24.6527 2.0246 24.666C2.60177 25.802 3.21242 26.978 3.84993 28.181C3.29545 29.2252 2.71828 30.2925 2.11944 31.3787C2.14719 31.5651 2.17494 31.7514 2.20292 31.9377C2.84195 30.7837 3.45367 29.6537 4.04289 28.5455C4.63277 29.6545 5.24517 30.7854 5.88509 31.9412C5.29279 33.0089 4.6778 34.0948 4.04289 35.1951C3.40954 34.0969 2.79585 33.0128 2.20422 31.9472C2.25144 32.2645 2.29906 32.5817 2.34628 32.8986C2.83367 33.7685 3.33108 34.6452 3.84554 35.5356C3.55792 36.0319 3.26528 36.5308 2.96915 37.0331C2.9965 37.2105 3.0238 37.3878 3.05111 37.5646C3.38658 36.9983 3.71816 36.4346 4.04289 35.8756C4.6376 36.8996 5.25063 37.9356 5.8816 38.9815C5.28473 39.9685 4.67166 40.9642 4.04289 41.9658C3.9168 41.7649 3.7942 41.5652 3.66964 41.3643C3.72053 41.664 3.77388 41.9637 3.82634 42.2625C3.8318 42.2706 3.83637 42.2784 3.8416 42.2866C3.83878 42.2908 3.83574 42.2956 3.8331 42.2994C3.86259 42.466 3.89079 42.6326 3.92029 42.7987C3.96071 42.7356 4.00269 42.6708 4.04289 42.6068C4.6402 43.5526 5.25148 44.5032 5.87699 45.4572C5.51439 46.0098 5.14419 46.5641 4.77219 47.1179C4.80585 47.2733 4.83732 47.4288 4.87142 47.5833C5.27967 46.9775 5.68358 46.3721 6.08069 45.7681C6.67863 46.677 7.28861 47.588 7.91215 48.5012C7.23046 49.4977 6.53065 50.4951 5.81862 51.492C5.85622 51.6341 5.89449 51.7762 5.93294 51.9184C6.67733 50.8793 7.40726 49.8403 8.11889 48.8022C8.7175 49.6759 9.32484 50.5504 9.94664 51.4242C9.27283 52.3687 8.58376 53.3128 7.88265 54.2561C7.98752 54.3046 8.09177 54.3549 8.19691 54.4021C8.86176 53.5078 9.51632 52.6126 10.1567 51.7166C10.7684 52.5722 11.3919 53.4283 12.0253 54.2831C11.7195 54.6936 11.4105 55.1041 11.0999 55.5136C11.2151 55.5506 11.3323 55.5819 11.4481 55.6175C11.7123 55.2685 11.9763 54.919 12.2371 54.5695C12.633 55.1006 13.0402 55.6296 13.4454 56.1589C13.6157 56.1989 13.7877 56.2345 13.9586 56.2714C13.45 55.6098 12.9436 54.9473 12.449 54.2831C13.0684 53.4481 13.6771 52.6117 14.2748 51.7758C14.8732 52.6117 15.4819 53.4481 16.101 54.2831C15.5774 54.9864 15.0424 55.6875 14.5034 56.3873C14.6265 56.4122 14.7489 56.4406 14.8721 56.4651C15.3569 55.8343 15.841 55.2028 16.3128 54.5695C16.9073 55.3672 17.5133 56.1628 18.1266 56.9553C18.2848 56.9738 18.4428 56.9936 18.6008 57.0103C18.5899 56.9957 18.5779 56.9811 18.5665 56.9665C19.1828 56.1701 19.7917 55.3707 20.3888 54.5695C20.9857 55.3707 21.5943 56.1692 22.2111 56.9665C22.1326 57.0674 22.0515 57.1674 21.9731 57.2683C22.1125 57.2748 22.2524 57.2821 22.3921 57.2885C22.4034 57.2735 22.4152 57.2589 22.4266 57.2447C22.439 57.2602 22.4517 57.2761 22.4642 57.2919C22.6145 57.2984 22.7647 57.3057 22.9148 57.3117C22.8248 57.1966 22.7319 57.082 22.6421 56.9665C23.2584 56.1692 23.8675 55.3707 24.4643 54.5695C25.0612 55.3707 25.6701 56.1701 26.2866 56.9665C26.1789 57.1047 26.0674 57.2426 25.9592 57.3808C26.1033 57.3821 26.2475 57.3834 26.3913 57.3847C26.4278 57.3379 26.4656 57.2911 26.5021 57.2447C26.5395 57.2919 26.5775 57.3392 26.6145 57.3868C26.6632 57.3868 26.7124 57.3873 26.7607 57.3881C26.8572 57.3881 26.9537 57.3868 27.0502 57.3873C26.9403 57.2464 26.8271 57.1069 26.7178 56.9665C27.3344 56.1701 27.943 55.3707 28.5401 54.5695C29.137 55.3707 29.7461 56.1692 30.3624 56.9665C30.2645 57.0923 30.1633 57.2168 30.0651 57.3435C30.2142 57.3379 30.3631 57.3336 30.5119 57.3276C30.5335 57.2997 30.556 57.2722 30.5779 57.2447C30.5982 57.2709 30.6199 57.2971 30.6406 57.3237C30.7813 57.3181 30.9223 57.3143 31.0635 57.3082C30.9743 57.1941 30.8821 57.0807 30.7934 56.9665C31.4101 56.1692 32.0188 55.3707 32.6157 54.5695C33.2125 55.3707 33.8216 56.1701 34.438 56.9665C34.4051 57.009 34.371 57.0502 34.3381 57.0923C34.5345 57.0755 34.7306 57.0584 34.9266 57.0391C34.9078 57.0146 34.8881 56.991 34.8693 56.9665C35.4857 56.1701 36.0943 55.3707 36.6916 54.5695C37.2041 55.2573 37.7287 55.943 38.2562 56.6278C38.3828 56.608 38.5095 56.5861 38.6363 56.5655C38.0504 55.8064 37.4712 55.0456 36.9034 54.2831C37.5226 53.4481 38.1312 52.6117 38.7294 51.7758C39.3274 52.6117 39.936 53.4481 40.5554 54.2831C39.9963 55.0341 39.4253 55.7833 38.8487 56.5316C39.0113 56.5045 39.1739 56.4801 39.3361 56.4517C39.8174 55.8258 40.2984 55.1989 40.7672 54.5695C41.1129 55.0336 41.4617 55.4964 41.814 55.9593C41.9367 55.9318 42.0603 55.9065 42.1827 55.8786C41.7775 55.3475 41.3752 54.8155 40.9792 54.2831C41.6126 53.4283 42.2361 52.5722 42.8478 51.7166C43.6402 52.826 44.4587 53.9341 45.2886 55.0396C45.4033 55.004 45.5176 54.9667 45.6319 54.9302C44.7555 53.7641 43.8927 52.5954 43.0578 51.4242C43.6796 50.5504 44.287 49.6759 44.8856 48.8022C45.6514 49.9193 46.4371 51.0391 47.2407 52.157C47.2715 52.0033 47.3008 51.8492 47.3309 51.6959C46.5684 50.6312 45.8205 49.5651 45.0923 48.5012C45.7156 47.588 46.3258 46.677 46.9236 45.7681C47.3008 46.3417 47.6846 46.9165 48.072 47.4918C48.098 47.3261 48.125 47.1608 48.1503 46.9955C47.8065 46.482 47.4631 45.969 47.1274 45.4572C47.6703 44.6281 48.2014 43.8034 48.7236 42.9804C48.7745 42.5957 48.8247 42.2105 48.8744 41.8263C48.2764 40.8714 47.6918 39.9226 47.1227 38.9815C47.7539 37.9356 48.3669 36.8996 48.9615 35.8756C49.1358 36.1762 49.3151 36.4797 49.4924 36.782C49.5151 36.5944 49.5372 36.4072 49.5597 36.2204C49.4264 35.9924 49.2907 35.7627 49.1589 35.5356C49.3663 35.1767 49.5678 34.8225 49.7706 34.4674C49.806 34.175 49.8419 33.8835 49.8777 33.5915C49.5772 34.1222 49.2719 34.6572 48.9615 35.1951C48.3266 34.0948 47.7116 33.0089 47.1194 31.9412C47.7593 30.7854 48.3714 29.6545 48.9615 28.5455C49.3683 29.3106 49.7907 30.0903 50.2206 30.8777C50.2456 30.6875 50.2733 30.4977 50.2991 30.3075C49.909 29.5905 49.5252 28.8795 49.1546 28.181C49.7921 26.978 50.4027 25.802 50.9799 24.666C50.9866 24.6527 50.9925 24.6403 50.9993 24.6278C51.0057 24.6403 51.012 24.6527 51.0183 24.666C51.054 24.736 51.0922 24.809 51.128 24.8794C51.1591 24.6892 51.1899 24.499 51.2211 24.3084C51.2111 24.2882 51.201 24.2685 51.1908 24.2478C51.2111 24.207 51.2305 24.1671 51.2513 24.1268C51.3141 23.7464 51.3768 23.3656 51.4397 22.9851C51.2928 23.2801 51.1488 23.5712 50.9993 23.8679C50.3581 22.5966 49.7404 21.3455 49.1512 20.1257C49.7981 18.7824 50.4147 17.4729 50.9993 16.2042C51.3636 16.9954 51.745 17.8078 52.1343 18.6291C52.1646 18.4269 52.1961 18.2246 52.2261 18.0224C51.87 17.2681 51.5219 16.5219 51.1873 15.7928C51.8949 14.2498 52.5532 12.7703 53.1661 11.3604C53.2349 10.9057 53.3079 10.4506 53.3824 9.99636ZM48.7745 11.2303C48.1997 12.5531 47.5818 13.9403 46.9236 15.3816C46.2651 13.9403 45.6474 12.5531 45.0722 11.2303C45.748 9.67437 46.3643 8.21075 46.9236 6.84887C47.4828 8.21075 48.0993 9.67437 48.7745 11.2303ZM44.6961 20.1257C44.1066 21.3455 43.4888 22.5966 42.8478 23.8679C42.2066 22.5966 41.5887 21.3455 40.9995 20.1257C41.6468 18.7824 42.2634 17.4729 42.8478 16.2042C43.4318 17.4729 44.0485 18.7824 44.6961 20.1257ZM43.0357 15.7928C43.6934 14.3585 44.3097 12.9777 44.8858 11.6583C45.4617 12.9777 46.0778 14.3585 46.7354 15.7928C46.151 17.0659 45.534 18.3809 44.8856 19.7299C44.2373 18.3809 43.6202 17.0659 43.0357 15.7928ZM39.1009 24.5213C39.0546 24.4299 39.0096 24.3393 38.9635 24.2478C39.6043 22.9804 40.2204 21.7353 40.8098 20.5173C41.3995 21.7353 42.0155 22.9804 42.6563 24.2478C42.61 24.3393 42.5652 24.429 42.5189 24.5213C41.9766 25.5878 41.4047 26.6904 40.8098 27.8161C40.2149 26.6904 39.6432 25.5878 39.1009 24.5213ZM42.6522 31.9412C42.0597 33.0089 41.4449 34.0948 40.8098 35.1951C40.1751 34.0948 39.5599 33.0089 38.9679 31.9412C39.6076 30.7854 40.2199 29.6545 40.8098 28.5455C41.3997 29.6545 42.012 30.7854 42.6522 31.9412ZM40.6164 28.181C40.0265 29.293 39.4128 30.4282 38.772 31.5874C38.1312 30.4282 37.5175 29.293 36.9277 28.181C37.5648 26.978 38.1758 25.802 38.753 24.666C38.7596 24.6527 38.7657 24.6403 38.772 24.6278C38.7784 24.6403 38.7845 24.6527 38.791 24.666C39.3682 25.802 39.9793 26.978 40.6164 28.181ZM18.3079 32.2915C18.9002 33.3563 19.5144 34.4387 20.1484 35.5356C19.5533 36.5626 18.9398 37.6016 18.3079 38.6513C17.6761 37.6016 17.0629 36.5626 16.4675 35.5356C17.1018 34.4387 17.7157 33.3563 18.3079 32.2915ZM16.2702 35.1951C15.6353 34.0948 15.0203 33.0089 14.428 31.9412C15.068 30.7854 15.6803 29.6545 16.2702 28.5455C16.8601 29.6545 17.4724 30.7854 18.1126 31.9412C17.5201 33.0089 16.9053 34.0948 16.2702 35.1951ZM18.5038 31.9412C19.1437 30.7854 19.7563 29.6545 20.3462 28.5455C20.936 29.6545 21.548 30.7854 22.1881 31.9412C21.5957 33.0089 20.9808 34.0948 20.3458 35.1951C19.7111 34.0948 19.0963 33.0089 18.5038 31.9412ZM22.384 32.2915C22.9893 33.3799 23.6175 34.4868 24.267 35.6086C23.6716 36.6352 23.0584 37.6733 22.4266 38.7218C21.7797 37.6484 21.152 36.5858 20.5433 35.5356C21.1773 34.4387 21.7915 33.3563 22.384 32.2915ZM22.5798 31.9412C23.2197 30.7854 23.8319 29.6545 24.4217 28.5455C25.0245 29.6785 25.6513 30.836 26.3065 32.0176C25.7138 33.0841 25.0992 34.1695 24.4643 35.2686C23.8146 34.1437 23.1851 33.0325 22.5798 31.9412ZM26.5021 32.3679C27.0944 33.4318 27.7085 34.5129 28.3425 35.6086C27.7474 36.6352 27.134 37.6733 26.5021 38.7218C25.8703 37.6733 25.257 36.6352 24.6617 35.6086C25.296 34.5129 25.91 33.4318 26.5021 32.3679ZM26.6979 32.0176C27.3531 30.836 27.9799 29.6785 28.5825 28.5455C29.1726 29.6545 29.7848 30.7854 30.4247 31.9412C29.8193 33.0325 29.1899 34.1437 28.5401 35.2686C27.9052 34.1695 27.2904 33.0841 26.6979 32.0176ZM30.6203 32.2915C31.213 33.3563 31.8271 34.4387 32.4612 35.5356C31.8525 36.5858 31.2248 37.6484 30.5779 38.7218C29.946 37.6733 29.3326 36.6352 28.7375 35.6086C29.387 34.4868 30.0151 33.3799 30.6203 32.2915ZM30.8161 31.9412C31.4562 30.7854 32.0684 29.6545 32.6583 28.5455C33.2482 29.6545 33.8607 30.7854 34.5007 31.9412C33.9082 33.0089 33.2934 34.0948 32.6585 35.1951C32.0234 34.0948 31.4088 33.0089 30.8161 31.9412ZM34.6963 32.2915C35.2885 33.3563 35.9027 34.4387 36.5369 35.5356C35.9416 36.5626 35.3281 37.6016 34.6963 38.6513C34.0647 37.6016 33.4512 36.5626 32.8561 35.5356C33.4901 34.4387 34.1042 33.3563 34.6963 32.2915ZM34.8919 31.9412C35.532 30.7854 36.1444 29.6545 36.7342 28.5455C37.3241 29.6545 37.9365 30.7854 38.5762 31.9412C37.9841 33.0089 37.3689 34.0948 36.7342 35.1951C36.0992 34.0948 35.4843 33.0089 34.8919 31.9412ZM38.4431 24.5213C37.9009 25.5878 37.3291 26.6904 36.7342 27.8161C36.1393 26.6904 35.5674 25.5878 35.0252 24.5213C34.9789 24.429 34.9341 24.3393 34.8877 24.2478C35.5285 22.9804 36.1446 21.7353 36.7342 20.5173C37.3237 21.7353 37.9398 22.9804 38.5806 24.2478C38.5345 24.3393 38.4894 24.4299 38.4431 24.5213ZM36.5408 28.181C35.951 29.293 35.3373 30.4282 34.6963 31.5883C34.0553 30.4282 33.4418 29.293 32.8519 28.181C33.4888 26.978 34.1001 25.802 34.6772 24.666C34.6836 24.6527 34.6899 24.6403 34.6963 24.6278C34.7028 24.6403 34.7087 24.6527 34.7155 24.666C35.2927 25.802 35.9036 26.978 36.5408 28.181ZM34.3671 24.5213C33.8253 25.5878 33.2534 26.6904 32.6583 27.8161C32.0634 26.6904 31.4914 25.5878 30.9494 24.5213C30.9029 24.4299 30.8585 24.3393 30.8122 24.2478C31.453 22.9804 32.0691 21.7353 32.6585 20.5173C33.2482 21.7353 33.8642 22.9804 34.5051 24.2478C34.4587 24.3393 34.4139 24.429 34.3671 24.5213ZM32.4653 28.181C31.875 29.293 31.2613 30.4282 30.6203 31.5874C29.9795 30.4282 29.3662 29.293 28.7763 28.181C29.4132 26.978 30.0245 25.802 30.6017 24.666C30.608 24.6527 30.6142 24.6403 30.6203 24.6278C30.6271 24.6403 30.6332 24.6527 30.6399 24.666C31.2169 25.802 31.8275 26.978 32.4653 28.181ZM30.2916 24.5213C29.7495 25.5878 29.1778 26.6904 28.5825 27.8161C27.9876 26.6904 27.4159 25.5878 26.8739 24.5213C26.8129 24.4007 26.7543 24.2831 26.6936 24.1633C27.3342 22.895 27.9509 21.6477 28.5401 20.4297C29.1424 21.6757 29.7732 22.9504 30.4293 24.2478C30.3832 24.3393 30.3381 24.4299 30.2916 24.5213ZM28.3895 28.181C27.7861 29.3179 27.1589 30.4788 26.5021 31.666C25.8456 30.4788 25.2181 29.3179 24.6149 28.181C25.2524 26.978 25.8631 25.802 26.4403 24.666C26.4613 24.6244 26.4811 24.5844 26.5021 24.5428C26.5233 24.5844 26.543 24.6244 26.5642 24.666C27.1414 25.802 27.752 26.978 28.3895 28.181ZM26.1306 24.5213C25.5886 25.5878 25.0166 26.6904 24.4217 27.8161C23.8266 26.6904 23.2547 25.5878 22.7129 24.5213C22.6663 24.4299 22.6213 24.3393 22.5749 24.2478C23.2313 22.9504 23.862 21.6757 24.4643 20.4297C25.0535 21.6477 25.6703 22.895 26.3109 24.1633C26.2501 24.2831 26.1915 24.4007 26.1306 24.5213ZM24.2281 28.181C23.6382 29.293 23.0247 30.4282 22.384 31.5874C21.7432 30.4282 21.1295 29.293 20.5392 28.181C21.1767 26.978 21.7873 25.802 22.3645 24.666C22.3713 24.6527 22.3774 24.6403 22.384 24.6278C22.3903 24.6403 22.3964 24.6527 22.4028 24.666C22.9799 25.802 23.5913 26.978 24.2281 28.181ZM22.0548 24.5213C21.5128 25.5878 20.9411 26.6904 20.3462 27.8161C19.7509 26.6904 19.1791 25.5878 18.6371 24.5213C18.5906 24.429 18.5458 24.3393 18.4994 24.2478C19.1402 22.9804 19.7563 21.7353 20.3458 20.5173C20.9354 21.7353 21.5515 22.9804 22.1923 24.2478C22.146 24.3393 22.1013 24.4299 22.0548 24.5213ZM20.1525 28.181C19.5625 29.293 18.9492 30.4282 18.3079 31.5883C17.6672 30.4282 17.0535 29.293 16.4636 28.181C17.1007 26.978 17.7118 25.802 18.289 24.666C18.2957 24.6527 18.3016 24.6403 18.3079 24.6278C18.3143 24.6403 18.3207 24.6527 18.3272 24.666C18.9042 25.802 19.5157 26.978 20.1525 28.181ZM17.9793 24.5213C17.4368 25.5878 16.8651 26.6904 16.2702 27.8161C15.6753 26.6904 15.1036 25.5878 14.5611 24.5213C14.5148 24.4299 14.47 24.3393 14.4239 24.2478C15.0647 22.9804 15.6805 21.7353 16.2702 20.5173C16.8599 21.7353 17.4757 22.9804 18.1165 24.2478C18.0704 24.3393 18.0254 24.429 17.9793 24.5213ZM16.0768 28.181C15.4869 29.293 14.8732 30.4282 14.2324 31.5874C13.5916 30.4282 12.9779 29.293 12.3879 28.181C13.0251 26.978 13.6362 25.802 14.2132 24.666C14.2199 24.6527 14.2261 24.6403 14.2324 24.6278C14.2387 24.6403 14.2447 24.6527 14.2515 24.666C14.8286 25.802 15.4397 26.978 16.0768 28.181ZM14.0366 31.9412C13.4443 33.0089 12.8293 34.0948 12.1946 35.1951C11.5593 34.0948 10.9448 33.0089 10.352 31.9412C10.9922 30.7854 11.6046 29.6545 12.1946 28.5455C12.7845 29.6545 13.3967 30.7854 14.0366 31.9412ZM13.9035 24.5213C13.3613 25.5878 12.7895 26.6904 12.1946 27.8161C11.5997 26.6904 11.0278 25.5878 10.4856 24.5213C10.4393 24.429 10.3945 24.3393 10.3481 24.2478C10.9889 22.9804 11.605 21.7353 12.1946 20.5173C12.7841 21.7353 13.4002 22.9804 14.041 24.2478C13.9946 24.3393 13.9498 24.4299 13.9035 24.5213ZM12.0012 28.181C11.4113 29.293 10.7976 30.4282 10.1567 31.5883C9.51565 30.4282 8.90218 29.293 8.3123 28.181C8.94918 26.978 9.56046 25.802 10.1376 24.666C10.144 24.6527 10.1503 24.6403 10.1567 24.6278C10.163 24.6403 10.1691 24.6527 10.1759 24.666C10.7531 25.802 11.3639 26.978 12.0012 28.181ZM11.9971 35.5356C11.4019 36.5626 10.7885 37.6016 10.1567 38.6513C9.52483 37.6016 8.91158 36.5626 8.31624 35.5356C8.95048 34.4387 9.56462 33.3563 10.1567 32.2915C10.749 33.3563 11.363 34.4387 11.9971 35.5356ZM12.1946 35.8756C12.7891 36.8996 13.4021 37.9356 14.0329 38.9815C13.4365 39.9685 12.8232 40.9642 12.1946 41.9658C11.5657 40.9642 10.9528 39.9685 10.3562 38.9815C10.9869 37.9356 11.5997 36.8996 12.1946 35.8756ZM12.392 35.5356C13.026 34.4387 13.6401 33.3563 14.2324 32.2915C14.8247 33.3563 15.4386 34.4387 16.0728 35.5356C15.4775 36.5626 14.864 37.6016 14.2324 38.6513C13.6006 37.6016 12.9871 36.5626 12.392 35.5356ZM16.2702 35.8756C16.8651 36.8996 17.4779 37.9356 18.1086 38.9815C17.512 39.9685 16.899 40.9642 16.2702 41.9658C15.6414 40.9642 15.0284 39.9685 14.4317 38.9815C15.0625 37.9356 15.6755 36.8996 16.2702 35.8756ZM18.3079 39.3117C18.9177 40.3184 19.5445 41.333 20.1873 42.3548C19.5893 43.3024 18.977 44.2551 18.3506 45.2116C17.7098 44.2319 17.083 43.2569 16.4717 42.2866C17.0998 41.2883 17.7122 40.2961 18.3079 39.3117ZM18.5075 38.9815C19.1382 37.9356 19.7513 36.8996 20.3458 35.8756C20.9542 36.9228 21.581 37.982 22.227 39.0519C21.6306 40.0385 21.0171 41.0329 20.3888 42.0341C19.7449 41.0088 19.1177 39.9913 18.5075 38.9815ZM22.4266 39.3825C23.0225 40.3657 23.6349 41.3575 24.263 42.3548C23.6651 43.3024 23.0527 44.2551 22.4266 45.2116C21.8002 44.2551 21.188 43.3024 20.5901 42.3548C21.218 41.3575 21.8304 40.3657 22.4266 39.3825ZM22.6261 39.0519C23.2569 38.0073 23.8694 36.9722 24.4643 35.9491C25.0592 36.9722 25.6721 38.0073 26.3028 39.0519C25.7062 40.0385 25.0929 41.0329 24.4643 42.0341C23.8356 41.0329 23.2225 40.0385 22.6261 39.0519ZM26.5021 39.3825C27.0985 40.3657 27.7109 41.3575 28.3386 42.3548C27.7407 43.3024 27.1287 44.2551 26.5021 45.2116C25.8758 44.2551 25.2638 43.3024 24.6658 42.3548C25.2935 41.3575 25.9059 40.3657 26.5021 39.3825ZM26.7017 39.0519C27.3324 38.0073 27.9452 36.9722 28.5401 35.9491C29.135 36.9722 29.7476 38.0073 30.3783 39.0519C29.7819 40.0385 29.1689 41.0329 28.5401 42.0341C27.9116 41.0329 27.2983 40.0385 26.7017 39.0519ZM30.5779 39.3825C31.1741 40.3657 31.7865 41.3575 32.4142 42.3548C31.8162 43.3024 31.2042 44.2551 30.5779 45.2116C29.9517 44.2551 29.3393 43.3024 28.7414 42.3548C29.3695 41.3575 29.9819 40.3657 30.5779 39.3825ZM30.7772 39.0519C31.4235 37.982 32.0503 36.9228 32.6585 35.8756C33.2532 36.8996 33.8662 37.9356 34.4969 38.9815C33.8865 39.9913 33.2595 41.0088 32.6157 42.0341C31.9871 41.0329 31.3739 40.0385 30.7772 39.0519ZM34.6963 39.3117C35.2922 40.2961 35.9046 41.2883 36.5327 42.2866C35.9215 43.2569 35.2946 44.2319 34.6539 45.2116C34.0275 44.2551 33.4151 43.3024 32.8172 42.3548C33.4599 41.333 34.0867 40.3184 34.6963 39.3117ZM34.8958 38.9815C35.5265 37.9356 36.1393 36.8996 36.7342 35.8756C37.3287 36.8996 37.9418 37.9356 38.5725 38.9815C37.976 39.9685 37.363 40.9642 36.7342 41.9658C36.1055 40.9642 35.4924 39.9685 34.8958 38.9815ZM36.9316 35.5356C37.5658 34.4387 38.1797 33.3563 38.772 32.2915C39.3643 33.3563 39.9782 34.4387 40.6125 35.5356C40.0171 36.5626 39.4039 37.6016 38.772 38.6513C38.1402 37.6016 37.5269 36.5626 36.9316 35.5356ZM40.8098 35.8756C41.4047 36.8996 42.0175 37.9356 42.6482 38.9815C42.0516 39.9685 41.4386 40.9642 40.8098 41.9658C40.181 40.9642 39.568 39.9685 38.9716 38.9815C39.6023 37.9356 40.2154 36.8996 40.8098 35.8756ZM41.0071 35.5356C41.6414 34.4387 42.2555 33.3563 42.8478 32.2915C43.4399 33.3563 44.054 34.4387 44.688 35.5356C44.0929 36.5626 43.4794 37.6016 42.8478 38.6513C42.216 37.6016 41.6025 36.5626 41.0071 35.5356ZM41.0032 28.181C41.6405 26.978 42.2514 25.802 42.8285 24.666C42.8353 24.6527 42.8412 24.6403 42.8478 24.6278C42.8539 24.6403 42.8605 24.6527 42.8668 24.666C43.444 25.802 44.0553 26.978 44.6921 28.181C44.1023 29.293 43.4888 30.4282 42.8478 31.5883C42.2068 30.4282 41.5931 29.293 41.0032 28.181ZM40.8098 19.7299C40.1616 18.3809 39.5446 17.0659 38.96 15.7928C39.6176 14.3585 40.2337 12.9777 40.8098 11.6583C41.3861 12.9777 42.002 14.3585 42.6596 15.7928C42.0754 17.0659 41.4585 18.3809 40.8098 19.7299ZM40.6205 20.1257C40.0309 21.3455 39.4133 22.5966 38.772 23.8679C38.1308 22.5966 37.5132 21.3455 36.9235 20.1257C37.5711 18.7824 38.1878 17.4729 38.772 16.2042C39.3562 17.4729 39.973 18.7824 40.6205 20.1257ZM36.7342 19.7299C36.0856 18.3809 35.4686 17.0659 34.8844 15.7928C35.5421 14.3585 36.1579 12.9777 36.7342 11.6583C37.3103 12.9777 37.9264 14.3585 38.5841 15.7928C37.9995 17.0659 37.3825 18.3809 36.7342 19.7299ZM36.5445 20.1257C35.9553 21.3455 35.3375 22.5966 34.6963 23.8679C34.0553 22.5966 33.4374 21.3455 32.848 20.1257C33.4955 18.7824 34.1123 17.4729 34.6963 16.2042C35.2807 17.4729 35.8972 18.7824 36.5445 20.1257ZM32.6585 19.7299C31.9943 18.347 31.3631 17.0019 30.7659 15.6997C31.4235 14.2627 32.0402 12.8811 32.6157 11.56C33.204 12.9098 33.8343 14.3228 34.5083 15.7928C33.9239 17.0659 33.3067 18.3809 32.6585 19.7299ZM32.4688 20.1257C31.8793 21.3455 31.262 22.5966 30.6203 23.8679C29.9638 22.5652 29.3321 21.2858 28.7298 20.036C29.3769 18.6922 29.9937 17.3806 30.5779 16.111C31.1747 17.4089 31.8059 18.7501 32.4688 20.1257ZM28.5401 19.6402C27.8915 18.2899 27.2745 16.9735 26.6903 15.6997C27.3479 14.2635 27.9645 12.8811 28.5401 11.56C29.1155 12.8811 29.7321 14.2627 30.3899 15.6997C29.8055 16.9735 29.1885 18.2899 28.5401 19.6402ZM28.3504 20.036C27.7612 21.2579 27.1433 22.5099 26.5021 23.7833C25.8611 22.5099 25.2433 21.2579 24.6541 20.036C25.3012 18.6922 25.9179 17.3814 26.5021 16.1118C27.0863 17.3814 27.7031 18.6922 28.3504 20.036ZM24.4643 19.6402C23.8159 18.2899 23.1987 16.9735 22.6145 15.6997C23.2722 14.2627 23.8889 12.8811 24.4643 11.56C25.0398 12.8811 25.6565 14.2635 26.3142 15.6997C25.73 16.9735 25.113 18.2899 24.4643 19.6402ZM24.2746 20.036C23.6723 21.2858 23.0405 22.5652 22.384 23.8679C21.7425 22.5966 21.1251 21.3455 20.5354 20.1257C21.1986 18.7501 21.8297 17.4089 22.4266 16.111C23.0108 17.3806 23.6275 18.6922 24.2746 20.036ZM20.3458 19.7299C19.6975 18.3809 19.0805 17.0659 18.4959 15.7928C19.1699 14.3228 19.8004 12.9098 20.3888 11.56C20.9642 12.8811 21.581 14.2627 22.2386 15.6997C21.6413 17.0019 21.0102 18.347 20.3458 19.7299ZM20.1565 20.1257C19.5668 21.3455 18.9492 22.5966 18.3079 23.8679C17.6667 22.5966 17.0491 21.3455 16.4599 20.1257C17.107 18.7824 17.7238 17.4729 18.3079 16.2042C18.8921 17.4729 19.5089 18.7824 20.1565 20.1257ZM16.2702 19.7299C15.622 18.3809 15.005 17.0659 14.4204 15.7928C15.078 14.3585 15.6941 12.9777 16.2702 11.6583C16.8463 12.9777 17.4624 14.3585 18.12 15.7928C17.5358 17.0659 16.9188 18.3809 16.2702 19.7299ZM16.0809 20.1257C15.4913 21.3455 14.8737 22.5966 14.2324 23.8679C13.5912 22.5966 12.9736 21.3455 12.3839 20.1257C13.0315 18.7824 13.6482 17.4729 14.2324 16.2042C14.8166 17.4729 15.4334 18.7824 16.0809 20.1257ZM12.1946 19.7299C11.546 18.3809 10.929 17.0659 10.3448 15.7928C11.0022 14.3585 11.6183 12.9777 12.1946 11.6583C12.7708 12.9777 13.3866 14.3585 14.0445 15.7928C13.4598 17.0659 12.8429 18.3809 12.1946 19.7299ZM12.0049 20.1257C11.4157 21.3455 10.7979 22.5966 10.1567 23.8679C9.51565 22.5966 8.89779 21.3455 8.30836 20.1257C8.95571 18.7824 9.57245 17.4729 10.1567 16.2042C10.7408 17.4729 11.3576 18.7824 12.0049 20.1257ZM8.11889 19.7299C7.47046 18.3809 6.85323 17.0659 6.26908 15.7928C6.92668 14.3585 7.5428 12.9777 8.11867 11.6583C8.69477 12.9777 9.3111 14.3585 9.96871 15.7928C9.38406 17.0659 8.7671 18.3809 8.11889 19.7299ZM7.9292 20.1257C7.33977 21.3455 6.72236 22.5966 6.08069 23.8679C5.43987 22.5966 4.82183 21.3455 4.23262 20.1257C4.87975 18.7824 5.49649 17.4729 6.08069 16.2042C6.66529 17.4729 7.28207 18.7824 7.9292 20.1257ZM8.11889 20.5173C8.70855 21.7353 9.32462 22.9804 9.96544 24.2478C9.91911 24.3393 9.87409 24.429 9.82754 24.5213C9.28572 25.5878 8.71379 26.6904 8.11867 27.8161C7.52377 26.6904 6.95184 25.5878 6.4098 24.5213C6.36325 24.4299 6.31867 24.3393 6.27235 24.2478C6.91334 22.9804 7.52946 21.7353 8.11889 20.5173ZM9.96105 31.9412C9.36835 33.0089 8.75376 34.0948 8.11889 35.1951C7.48376 34.0948 6.86899 33.0089 6.27651 31.9412C6.91666 30.7854 7.52856 29.6545 8.11867 28.5455C8.70855 29.6545 9.32113 30.7854 9.96105 31.9412ZM9.95734 38.9815C9.36069 39.9685 8.74722 40.9642 8.11867 41.9658C7.48967 40.9642 6.87709 39.9685 6.28045 38.9815C6.91138 37.9356 7.524 36.8996 8.11889 35.8756C8.71357 36.8996 9.32659 37.9356 9.95734 38.9815ZM10.1567 39.3117C10.7527 40.2961 11.365 41.2883 11.9931 42.2866C11.3952 43.2354 10.7832 44.1894 10.1567 45.1468C9.53029 44.1894 8.91834 43.2354 8.3204 42.2866C8.94806 41.2883 9.56046 40.2961 10.1567 39.3117ZM12.1946 42.6068C12.7915 43.5526 13.4032 44.5032 14.0283 45.4572C13.4297 46.3691 12.8191 47.2832 12.1946 48.1998C11.57 47.2841 10.9594 46.3691 10.3608 45.4572C10.986 44.5032 11.5976 43.5526 12.1946 42.6068ZM12.396 42.2866C13.0241 41.2883 13.6362 40.2961 14.2324 39.3121C14.8286 40.2961 15.4406 41.2883 16.0687 42.2866C15.4707 43.2354 14.8588 44.1894 14.2324 45.1468C13.6061 44.1894 12.9939 43.2354 12.396 42.2866ZM16.2702 42.6068C16.8806 43.5741 17.5065 44.5466 18.1467 45.5225C17.5483 46.4331 16.9374 47.3463 16.3128 48.2617C15.674 47.3244 15.0489 46.3897 14.4365 45.4572C15.0616 44.5032 15.6733 43.5526 16.2702 42.6068ZM18.3506 45.8333C18.9485 46.7414 19.5585 47.6511 20.1818 48.563C19.5819 49.4389 18.9741 50.3152 18.3506 51.1914C17.7279 50.3152 17.1195 49.4389 16.5198 48.563C17.1426 47.6511 17.7528 46.7414 18.3506 45.8333ZM18.5547 45.5225C19.1798 44.5689 19.7917 43.6196 20.3888 42.6747C20.9857 43.6196 21.5974 44.5689 22.2225 45.5225C21.6238 46.4331 21.0132 47.3463 20.3884 48.2617C19.7644 47.3463 19.1538 46.4331 18.5547 45.5225ZM22.4266 45.8333C23.0241 46.7414 23.6345 47.6511 24.2576 48.563C23.6577 49.4389 23.0497 50.3152 22.4266 51.1914C21.8035 50.3152 21.195 49.4389 20.5956 48.563C21.2182 47.6511 21.8289 46.7414 22.4266 45.8333ZM22.6307 45.5225C23.2556 44.5689 23.8675 43.6196 24.4643 42.6747C25.0612 43.6196 25.6734 44.5689 26.2982 45.5225C25.6994 46.4331 25.0888 47.3463 24.4643 48.2617C23.8399 47.3463 23.2293 46.4331 22.6307 45.5225ZM26.5021 45.8333C27.0998 46.7414 27.71 47.6511 28.3331 48.563C27.7332 49.4389 27.1252 50.3152 26.5021 51.1914C25.879 50.3152 25.271 49.4389 24.6711 48.563C25.2942 47.6511 25.9046 46.7414 26.5021 45.8333ZM26.7062 45.5225C27.3311 44.5689 27.943 43.6196 28.5401 42.6747C29.137 43.6196 29.7489 44.5689 30.3738 45.5225C29.7752 46.4331 29.1645 47.3463 28.5401 48.2617C27.9155 47.3463 27.3048 46.4331 26.7062 45.5225ZM30.5779 45.8333C31.1754 46.7414 31.7861 47.6511 32.4089 48.563C31.8092 49.4389 31.201 50.3152 30.5779 51.1914C29.9548 50.3152 29.3468 49.4389 28.7469 48.563C29.3699 47.6511 29.9804 46.7414 30.5779 45.8333ZM30.782 45.5225C31.4071 44.5689 32.0188 43.6196 32.6157 42.6747C33.2125 43.6196 33.8247 44.5689 34.4497 45.5225C33.8507 46.4331 33.2401 47.3463 32.6161 48.2617C31.9912 47.3463 31.3806 46.4331 30.782 45.5225ZM34.6539 45.8333C35.2514 46.7414 35.8618 47.6511 36.4844 48.563C35.885 49.4389 35.2765 50.3152 34.6539 51.1914C34.0303 50.3152 33.4223 49.4389 32.8224 48.563C33.4459 47.6511 34.0559 46.7414 34.6539 45.8333ZM34.8576 45.5225C35.4977 44.5466 36.1239 43.5741 36.7342 42.6068C37.3311 43.5526 37.9428 44.5032 38.5679 45.4572C37.9555 46.3897 37.3305 47.3244 36.6916 48.2617C36.0668 47.3463 35.4562 46.4331 34.8576 45.5225ZM36.9355 42.2866C37.5637 41.2883 38.1758 40.2961 38.772 39.3121C39.3682 40.2961 39.9804 41.2883 40.6085 42.2866C40.0106 43.2354 39.3984 44.1894 38.772 45.1468C38.1456 44.1894 37.5335 43.2354 36.9355 42.2866ZM40.8098 42.6068C41.4067 43.5526 42.0184 44.5032 42.6437 45.4572C42.0448 46.3691 41.4342 47.2841 40.8098 48.1998C40.1854 47.2832 39.5748 46.3691 38.9761 45.4572C39.6012 44.5032 40.2129 43.5526 40.8098 42.6068ZM41.0113 42.2866C41.6394 41.2883 42.2518 40.2961 42.8478 39.3117C43.444 40.2961 44.0564 41.2883 44.6841 42.2866C44.0861 43.2354 43.4741 44.1894 42.8478 45.1468C42.2212 44.1894 41.6092 43.2354 41.0113 42.2866ZM43.0471 38.9815C43.6778 37.9356 44.2909 36.8996 44.8856 35.8756C45.4805 36.8996 46.0931 37.9356 46.7238 38.9815C46.1274 39.9685 45.5145 40.9642 44.8858 41.9658C44.257 40.9642 43.6437 39.9685 43.0471 38.9815ZM43.0434 31.9412C43.6833 30.7854 44.2959 29.6545 44.8858 28.5455C45.4756 29.6545 46.0878 30.7854 46.728 31.9412C46.1352 33.0089 45.5207 34.0948 44.8856 35.1951C44.2507 34.0948 43.6359 33.0089 43.0434 31.9412ZM43.1767 24.5213C43.1302 24.429 43.0854 24.3393 43.039 24.2478C43.6798 22.9804 44.2959 21.7353 44.8856 20.5173C45.475 21.7353 46.0911 22.9804 46.7319 24.2478C46.6855 24.3393 46.6412 24.4299 46.5946 24.5213C46.0526 25.5878 45.4807 26.6904 44.8858 27.8161C44.2907 26.6904 43.7187 25.5878 43.1767 24.5213ZM45.0753 20.1257C45.7224 18.7824 46.3391 17.4729 46.9236 16.2042C47.5078 17.4729 48.1245 18.7824 48.7719 20.1257C48.1826 21.3455 47.5646 22.5966 46.9236 23.8679C46.2821 22.5966 45.6647 21.3455 45.0753 20.1257ZM44.8856 1.71181C45.4026 3.06639 46.0201 4.63948 46.7387 6.39849C46.1811 7.76165 45.5628 9.23512 44.8858 10.801C44.2085 9.23512 43.59 7.76165 43.0322 6.39849C43.7508 4.63948 44.3683 3.06639 44.8856 1.71181ZM44.6989 11.2303C44.1239 12.5531 43.5063 13.9403 42.8478 15.3816C42.1891 13.9403 41.5716 12.5531 40.9967 11.2303C41.672 9.67437 42.2883 8.21075 42.8478 6.84887C43.4071 8.21075 44.0238 9.67437 44.6989 11.2303ZM40.8098 1.71181C41.3271 3.06639 41.9443 4.63948 42.6629 6.39849C42.1051 7.76165 41.4873 9.23512 40.8098 10.801C40.1325 9.23512 39.5145 7.76165 38.9567 6.39849C39.6753 4.63948 40.2927 3.06639 40.8098 1.71181ZM40.6232 11.2303C40.0479 12.5531 39.4305 13.9403 38.772 15.3816C38.1135 13.9403 37.4961 12.5531 36.9209 11.2303C37.5962 9.67437 38.2127 8.21075 38.772 6.84887C39.3313 8.21075 39.9478 9.67437 40.6232 11.2303ZM36.6916 1.59974C37.2172 2.98009 37.8487 4.58967 38.5874 6.39849C38.0296 7.76165 37.4115 9.23512 36.7342 10.801C36.0395 9.19436 35.4072 7.68652 34.8381 6.29417C35.5585 4.52786 36.1761 2.95217 36.6916 1.59974ZM36.5474 11.2303C35.9724 12.5531 35.355 13.9403 34.6963 15.3816C34.0218 13.9055 33.3896 12.4844 32.8023 11.1328C33.4785 9.57347 34.0948 8.10726 34.6539 6.74581C35.2238 8.13561 35.855 9.63528 36.5474 11.2303ZM32.6161 1.59974C33.1314 2.95217 33.7488 4.52786 34.4688 6.29417C33.9117 7.65772 33.2936 9.13251 32.6157 10.7013C31.9377 9.13251 31.3197 7.65772 30.7625 6.29417C31.4827 4.52786 32.1005 2.95217 32.6161 1.59974ZM32.429 11.1328C31.8544 12.456 31.2364 13.845 30.5779 15.288C29.9192 13.845 29.3011 12.456 28.7268 11.1328C29.4027 9.57347 30.019 8.1077 30.5779 6.74581C31.1365 8.1077 31.7532 9.57347 32.429 11.1328ZM28.5401 1.59974C29.0555 2.95217 29.6733 4.52786 30.3932 6.29417C29.8361 7.65772 29.218 9.13251 28.5401 10.7013C27.862 9.13251 27.2439 7.65772 26.6868 6.29417C27.4067 4.52786 28.0245 2.95217 28.5401 1.59974ZM28.3532 11.1328C27.7789 12.456 27.1609 13.8454 26.5021 15.288C25.8436 13.8454 25.2255 12.456 24.651 11.1328C25.3267 9.57347 25.9435 8.10726 26.5021 6.74581C27.0609 8.10726 27.6777 9.57347 28.3532 11.1328ZM24.4643 1.59974C24.9799 2.95217 25.5975 4.52786 26.3174 6.29417C25.7606 7.65772 25.1425 9.13251 24.4643 10.7013C23.7864 9.13251 23.1683 7.65772 22.6112 6.29417C23.3312 4.52786 23.9488 2.95217 24.4643 1.59974ZM24.2777 11.1328C23.7031 12.456 23.0851 13.845 22.4266 15.288C21.7681 13.845 21.15 12.456 20.5755 11.1328C21.2512 9.57347 21.8677 8.1077 22.4266 6.74581C22.9854 8.1077 23.6017 9.57347 24.2777 11.1328ZM20.3884 1.59974C20.9039 2.95217 21.5215 4.52786 22.2419 6.29417C21.6848 7.65772 21.0667 9.13251 20.3888 10.7013C19.7106 9.13251 19.0926 7.65772 18.5357 6.29417C19.2556 4.52786 19.8728 2.95217 20.3884 1.59974ZM20.2019 11.1328C19.6149 12.4844 18.9827 13.9055 18.3079 15.3816C17.6495 13.9403 17.0321 12.5531 16.4568 11.2303C17.1492 9.63528 17.7804 8.13561 18.3506 6.74581C18.9096 8.10726 19.5259 9.57347 20.2019 11.1328ZM16.3128 1.59974C16.8282 2.95217 17.446 4.52786 18.1663 6.29417C17.5973 7.68652 16.965 9.19436 16.2702 10.801C15.5929 9.23512 14.9749 7.76165 14.4171 6.39849C15.1558 4.58967 15.7872 2.98009 16.3128 1.59974ZM16.0835 11.2303C15.5083 12.5531 14.8909 13.9403 14.2324 15.3816C13.5737 13.9403 12.9563 12.5531 12.3813 11.2303C13.0566 9.67437 13.6729 8.21075 14.2324 6.84887C14.7917 8.21075 15.4082 9.67437 16.0835 11.2303ZM12.1946 1.71181C12.7117 3.06639 13.3291 4.63948 14.0478 6.39849C13.49 7.76165 12.8719 9.23512 12.1946 10.801C11.5172 9.23512 10.8991 7.76165 10.3413 6.39849C11.0599 4.63948 11.6773 3.06639 12.1946 1.71181ZM12.0078 11.2303C11.4328 12.5531 10.8154 13.9403 10.1567 15.3816C9.49815 13.9403 8.88052 12.5531 8.30554 11.2303C8.98064 9.67437 9.59738 8.21075 10.1567 6.84887C10.7161 8.21075 11.3325 9.67437 12.0078 11.2303ZM8.11889 1.71181C8.63618 3.06639 9.25341 4.63948 9.97197 6.39849C9.41423 7.76165 8.79597 9.23512 8.11867 10.801C7.4416 9.23512 6.82311 7.76165 6.26577 6.39849C6.98438 4.63948 7.60179 3.06639 8.11889 1.71181ZM6.08069 6.84887C6.64018 8.21075 7.25647 9.67437 7.93225 11.2303C7.357 12.5531 6.73941 13.9403 6.08069 15.3816C5.42241 13.9403 4.80478 12.5531 4.22998 11.2303C4.90508 9.67437 5.52164 8.21075 6.08069 6.84887ZM2.19352 15.7928C2.85112 14.3585 3.46701 12.9777 4.04289 11.6583C4.61903 12.9777 5.23554 14.3585 5.89292 15.7928C5.30854 17.0659 4.69113 18.3809 4.04289 19.7299C3.39468 18.3809 2.77727 17.0659 2.19352 15.7928ZM2.33429 24.5213C2.28774 24.429 2.24311 24.3393 2.19679 24.2478C2.83738 22.9804 3.45345 21.7353 4.04289 20.5173C4.63277 21.7353 5.24888 22.9804 5.88965 24.2478C5.84355 24.3393 5.79852 24.4299 5.75198 24.5213C5.20998 25.5878 4.63823 26.6904 4.04289 27.8161C3.44799 26.6904 2.87628 25.5878 2.33429 24.5213ZM4.23674 28.181C4.87339 26.978 5.4849 25.802 6.06211 24.666C6.06842 24.6527 6.07433 24.6403 6.08069 24.6278C6.08745 24.6403 6.09358 24.6527 6.10011 24.666C6.67733 25.802 7.28794 26.978 7.92549 28.181C7.33538 29.293 6.72169 30.4282 6.08069 31.5874C5.43987 30.4282 4.82662 29.293 4.23674 28.181ZM4.24027 35.5356C4.87492 34.4387 5.48883 33.3563 6.08069 32.2915C6.67339 33.3563 7.28731 34.4387 7.92155 35.5356C7.32621 36.5626 6.71296 37.6016 6.08069 38.6513C5.44927 37.6016 4.83557 36.5626 4.24027 35.5356ZM4.24462 42.2866C4.87254 41.2883 5.4849 40.2961 6.08069 39.3121C6.67711 40.2961 7.2895 41.2883 7.91716 42.2866C7.31963 43.2354 6.70727 44.1894 6.08069 45.1468C5.45473 44.1894 4.8426 43.2354 4.24462 42.2866ZM6.28479 45.4572C6.91008 44.5032 7.52203 43.5526 8.11867 42.6068C8.71576 43.5526 9.32748 44.5032 9.95255 45.4572C9.35394 46.3691 8.74329 47.2841 8.11889 48.1998C7.4945 47.2832 6.88385 46.3691 6.28479 45.4572ZM8.32563 48.5012C8.94873 47.588 9.55871 46.6774 10.1567 45.7689C10.7544 46.6774 11.3644 47.588 11.9877 48.5012C11.3878 49.3771 10.7797 50.2542 10.1567 51.131C9.53356 50.2542 8.92532 49.3771 8.32563 48.5012ZM12.2371 53.9959C11.603 53.1398 10.9786 52.282 10.3665 51.4242C10.9882 50.5504 11.5956 49.6759 12.1946 48.8022C12.807 49.6956 13.4284 50.59 14.065 51.4839C13.4666 52.3219 12.8568 53.1596 12.2371 53.9959ZM12.4014 48.5012C13.0245 47.588 13.6347 46.677 14.2324 45.7681C14.8437 46.698 15.4681 47.6297 16.1063 48.563C15.5064 49.4389 14.8984 50.3152 14.2748 51.1914C13.6371 50.295 13.0147 49.3973 12.4014 48.5012ZM14.4847 51.4839C15.1069 50.6102 15.7142 49.7373 16.3128 48.8649C16.9114 49.7373 17.519 50.6102 18.1408 51.4834C17.5422 52.3215 16.9324 53.1591 16.3128 53.9959C15.6934 53.1596 15.0834 52.3219 14.4847 51.4839ZM18.3506 56.6888C17.7325 55.8889 17.1232 55.0869 16.5246 54.2831C17.144 53.4481 17.7526 52.6117 18.3506 51.7758C18.9488 52.6117 19.5579 53.4481 20.177 54.2831C19.5786 55.0869 18.9686 55.8889 18.3506 56.6888ZM18.5606 51.4834C19.1824 50.6102 19.7898 49.7373 20.3884 48.8649C20.987 49.7373 21.5945 50.6102 22.2163 51.4839C21.6182 52.3219 21.0084 53.1596 20.3888 53.9959C19.769 53.1591 19.159 52.3215 18.5606 51.4834ZM22.4266 56.6888C21.8085 55.8889 21.1987 55.0869 20.6001 54.2831C21.2195 53.4481 21.8284 52.6117 22.4266 51.7758C23.0245 52.6117 23.6334 53.4481 24.2526 54.2831C23.6542 55.0869 23.0442 55.8889 22.4266 56.6888ZM22.6364 51.4839C23.2582 50.6102 23.8657 49.7373 24.4643 48.8649C25.0629 49.7373 25.6705 50.6102 26.2921 51.4834C25.6937 52.3215 25.0842 53.1591 24.4643 53.9959C23.8448 53.1596 23.2346 52.3219 22.6364 51.4839ZM26.5021 56.6888C25.8843 55.8889 25.2745 55.0869 24.6759 54.2831C25.2953 53.4481 25.9039 52.6117 26.5021 51.7758C27.1005 52.6117 27.7092 53.4481 28.3285 54.2831C27.7299 55.0869 27.1202 55.8889 26.5021 56.6888ZM26.7124 51.4834C27.3337 50.6102 27.9415 49.7373 28.5401 48.8649C29.1385 49.7373 29.7463 50.6102 30.3681 51.4839C29.7697 52.3219 29.1597 53.1596 28.5401 53.9959C27.9203 53.1591 27.3105 52.3215 26.7124 51.4834ZM30.5779 56.6888C29.9602 55.8889 29.3501 55.0869 28.7519 54.2831C29.3708 53.4481 29.9799 52.6117 30.5779 51.7758C31.1761 52.6117 31.7847 53.4481 32.4041 54.2831C31.8055 55.0869 31.1959 55.8889 30.5779 56.6888ZM30.7879 51.4839C31.4097 50.6102 32.0173 49.7373 32.6161 48.8649C33.2145 49.7373 33.8221 50.6102 34.4436 51.4834C33.8454 52.3215 33.2355 53.1591 32.6157 53.9959C31.9958 53.1596 31.3863 52.3219 30.7879 51.4839ZM34.6539 56.6888C34.0358 55.8889 33.4258 55.0869 32.8274 54.2831C33.4466 53.4481 34.0555 52.6117 34.6539 51.7758C35.2518 52.6117 35.8605 53.4481 36.4799 54.2831C35.8813 55.0869 35.2719 55.8889 34.6539 56.6888ZM36.6916 53.9959C36.0718 53.1591 35.4623 52.3215 34.8637 51.4834C35.4855 50.6102 36.093 49.7373 36.6916 48.8649C37.2902 49.7373 37.8976 50.6102 38.5196 51.4839C37.921 52.3219 37.311 53.1596 36.6916 53.9959ZM36.8981 48.563C37.5363 47.6297 38.1607 46.698 38.772 45.7681C39.3695 46.677 39.98 47.588 40.6031 48.5012C39.9896 49.3973 39.3673 50.295 38.7294 51.1914C38.1061 50.3152 37.4981 49.4389 36.8981 48.563ZM40.7672 53.9959C40.1476 53.1596 39.5378 52.3219 38.9392 51.4839C39.5761 50.59 40.1974 49.6956 40.8098 48.8022C41.4089 49.6759 42.0162 50.5504 42.6378 51.4242C42.0258 52.282 41.4014 53.1398 40.7672 53.9959ZM42.8478 51.131C42.2245 50.2542 41.6165 49.3771 41.0168 48.5012C41.6401 47.588 42.2501 46.6774 42.8478 45.7689C43.4455 46.6774 44.0555 47.588 44.6788 48.5012C44.0791 49.3771 43.4707 50.2542 42.8478 51.131ZM44.8856 48.1998C44.2611 47.2841 43.6503 46.3691 43.0517 45.4572C43.677 44.5032 44.2885 43.5526 44.8858 42.6068C45.4824 43.5526 46.0944 44.5032 46.7196 45.4572C46.1206 46.3691 45.51 47.2832 44.8856 48.1998ZM48.7596 42.2866C48.1617 43.2354 47.5497 44.1894 46.9236 45.1468C46.2972 44.1894 45.6848 43.2354 45.0873 42.2866C45.715 41.2883 46.3273 40.2961 46.9236 39.3121C47.5195 40.2961 48.1319 41.2883 48.7596 42.2866ZM48.764 35.5356C48.1689 36.5626 47.5552 37.6016 46.9236 38.6513C46.2915 37.6016 45.6782 36.5626 45.0829 35.5356C45.7169 34.4387 46.331 33.3563 46.9236 32.2915C47.5156 33.3563 48.1295 34.4387 48.764 35.5356ZM46.9236 31.5874C46.2827 30.4282 45.6691 29.293 45.0788 28.181C45.7163 26.978 46.3271 25.802 46.9041 24.666C46.9109 24.6527 46.917 24.6403 46.9236 24.6278C46.9299 24.6403 46.936 24.6527 46.9424 24.666C47.5195 25.802 48.1308 26.978 48.7677 28.181C48.1778 29.293 47.5646 30.4282 46.9236 31.5874ZM50.8076 24.2478C50.7613 24.3393 50.7167 24.429 50.6702 24.5213C50.1282 25.5878 49.5564 26.6904 48.9615 27.8161C48.3662 26.6904 47.7945 25.5878 47.2525 24.5213C47.2059 24.4299 47.1609 24.3393 47.1148 24.2478C47.7556 22.9804 48.3714 21.7353 48.9615 20.5173C49.551 21.7353 50.1671 22.9804 50.8076 24.2478ZM48.9615 19.7299C48.3133 18.3809 47.6959 17.0659 47.1113 15.7928C47.7689 14.3585 48.3852 12.9777 48.9615 11.6583C49.5372 12.9777 50.1533 14.3585 50.8109 15.7928C50.2269 17.0659 49.6098 18.3809 48.9615 19.7299Z" fill="#707376"/>
</g>
<path d="M26.4998 9.89625C19.5195 9.89625 12.9529 9.42613 8.00928 8.57345C2.69473 7.65595 0 6.43665 0 4.94815C0 3.46004 2.69473 2.23985 8.00928 1.3228C12.9522 0.469276 19.5188 0 26.4998 0C33.4808 0 40.0478 0.469276 44.991 1.3228C50.3053 2.23985 53 3.46004 53 4.94815C53 6.43665 50.3053 7.65595 44.991 8.57345C40.0478 9.42613 33.4808 9.89625 26.4998 9.89625ZM26.4998 0.909752C10.655 0.909752 0.926429 3.26167 0.926429 4.94815C0.926429 6.63413 10.655 8.98605 26.4998 8.98605C42.3446 8.98605 52.0738 6.63413 52.0738 4.94815C52.0738 3.26167 42.3446 0.909752 26.4998 0.909752Z" fill="#707376"/>
</svg>
