<svg width="34" height="56" viewBox="0 0 34 56" fill="none" xmlns="http://www.w3.org/2000/svg">
<path d="M34 0H0V56H34V0Z" fill="#5B5B5C"/>
<path d="M32.3756 1.56458H1.62402V54.4357H32.3756V1.56458Z" fill="#FAFAFA"/>
<path d="M30.7512 3.18518H3.24805V52.8146H30.7512V3.18518Z" fill="#7D99DA"/>
<path d="M23.541 52.8147C23.541 52.8147 15.1553 47.8456 17.6801 42.3595C20.2048 36.8735 24.9837 36.4165 19.7538 34.3134C14.5241 32.2104 13.7125 28.7696 15.6963 26.2382C17.6801 23.7069 17.9489 17.0322 14.7035 16.0262C11.4581 15.0205 11.278 17.2149 11.6386 20.6896C11.9992 24.164 10.5567 21.8206 9.47459 26.2382C8.39247 30.656 6.49901 30.3817 8.75334 32.3017C11.0074 34.2218 13.5323 33.2161 10.5567 35.4105C7.58113 37.6049 7.40069 35.7542 6.94998 38.3712C6.49901 40.9882 9.20406 41.4452 8.39247 43.8226C7.58113 46.1999 8.30717 46.2913 5.77771 47.1143C3.24805 47.9373 3.24805 52.8147 3.24805 52.8147H23.541Z" fill="#E8E3E4"/>
<path d="M16.9997 3.18518C16.9997 3.18518 16.8685 7.24831 12.9009 7.97994C8.93353 8.71131 6.31857 11.0887 8.84344 12.5517C11.3681 14.0144 16.7782 13.2994 15.4258 15.5772C14.0731 17.8548 14.4224 20.1273 12.9009 21.478C11.3796 22.8284 6.13834 28.9186 6.5891 23.2495C7.04007 17.5804 8.84823 20.0492 6.04804 16.3004C3.24805 12.5517 3.24805 12.1858 3.24805 12.1858V3.18518H16.9997Z" fill="#E8E3E4"/>
<path d="M26.0469 7.74836L18.8037 15.0935V12.3655L23.4999 7.60317V8.99729L26.0882 6.37265V5.20007H26.7878V8.2215L26.0469 7.74836Z" fill="#5B5B5C"/>
<path d="M23.1153 14.9261L15.8721 22.271V19.543L20.5682 14.7809V16.175L23.1566 13.5504V12.3778H23.8562V15.399L23.1153 14.9261Z" fill="white"/>
<path d="M23.5198 29.2814L16.2764 36.6265V33.8986L20.9725 29.1362V30.5306L23.5609 27.9059V26.733H24.2605V29.7545L23.5198 29.2814Z" fill="#5B5B5C"/>
<path d="M20.5901 36.4591L13.3467 43.8042V41.076L18.0431 36.3139V37.708L20.6312 35.0834V33.9108H21.3308V36.932L20.5901 36.4591Z" fill="white"/>
</svg>
