<svg width="56" height="56" viewBox="0 0 56 56" fill="none" xmlns="http://www.w3.org/2000/svg">
<path d="M56.001 27.9989C56.001 43.4642 43.4641 56 28 56C16.773 56 7.08828 49.3909 2.62574 39.8514C0.940538 36.2523 0 32.236 0 27.9989C0 23.8864 0.886112 19.9801 2.4795 16.4625C6.04351 8.59114 13.1433 2.66093 21.7536 0.700455C22.2896 0.57681 22.8324 0.470407 23.381 0.378598C23.995 0.277648 24.6172 0.194968 25.2451 0.134844C26.1516 0.0453901 27.0707 0 28 0C37.4262 0 45.7634 4.65766 50.8381 11.7937C54.0893 16.3673 56.001 21.961 56.001 27.9989Z" fill="#A94358"/>
<path d="M53.0535 27.9994C53.0535 41.8364 41.8366 53.0531 27.9997 53.0531C17.9545 53.0531 9.28897 47.1401 5.29623 38.6043C3.78913 35.3843 2.94727 31.7901 2.94727 27.9994C2.94727 14.1636 14.1639 2.9469 27.9997 2.9469C36.4337 2.9469 43.8938 7.11416 48.4341 13.4996C51.3428 17.5919 53.0535 22.5964 53.0535 27.9994Z" fill="#44152C"/>
<path d="M50.8433 27.9994C50.8433 40.6155 40.6164 50.8425 28.0003 50.8425C18.8414 50.8425 10.9406 45.4513 7.30001 37.6686C5.92594 34.7327 5.1582 31.4556 5.1582 27.9994C5.1582 15.3844 15.3852 5.15747 28.0003 5.15747C35.6901 5.15747 42.4919 8.95704 46.6317 14.7791C49.2838 18.5103 50.8433 23.0731 50.8433 27.9994Z" fill="#F4DAB6"/>
<path d="M28.0016 9.98888C28.8261 9.98888 29.4944 9.29906 29.4944 8.44812C29.4944 7.59718 28.8261 6.90735 28.0016 6.90735C27.1771 6.90735 26.5088 7.59718 26.5088 8.44812C26.5088 9.29906 27.1771 9.98888 28.0016 9.98888Z" fill="#44152C"/>
<path d="M28.0016 50.033C28.8261 50.033 29.4944 49.3431 29.4944 48.4922C29.4944 47.6412 28.8261 46.9514 28.0016 46.9514C27.1771 46.9514 26.5088 47.6412 26.5088 48.4922C26.5088 49.3431 27.1771 50.033 28.0016 50.033Z" fill="#44152C"/>
<path d="M8.3327 30.0688C9.15719 30.0688 9.82556 29.379 9.82556 28.5281C9.82556 27.6771 9.15719 26.9873 8.3327 26.9873C7.50822 26.9873 6.83984 27.6771 6.83984 28.5281C6.83984 29.379 7.50822 30.0688 8.3327 30.0688Z" fill="#44152C"/>
<path d="M47.1315 30.0688C47.956 30.0688 48.6243 29.379 48.6243 28.5281C48.6243 27.6771 47.956 26.9873 47.1315 26.9873C46.307 26.9873 45.6387 27.6771 45.6387 28.5281C45.6387 29.379 46.307 30.0688 47.1315 30.0688Z" fill="#44152C"/>
<path d="M13.6654 42.8579C13.9512 42.563 14.4143 42.563 14.7001 42.8579C14.9857 43.1528 14.9857 43.6309 14.7001 43.9257C14.4143 44.2205 13.9512 44.2205 13.6654 43.9257C13.3798 43.6309 13.3798 43.1528 13.6654 42.8579Z" fill="#44152C"/>
<path d="M41.436 13.329C41.7217 13.0342 42.1849 13.0342 42.4707 13.329C42.7562 13.6239 42.7562 14.1019 42.4707 14.3968C42.1849 14.6916 41.7217 14.6916 41.436 14.3968C41.1502 14.1019 41.1502 13.6239 41.436 13.329Z" fill="#44152C"/>
<path d="M41.6879 43.6806C41.4022 43.3858 41.4022 42.9078 41.6879 42.6129C41.9737 42.318 42.4369 42.318 42.7224 42.6129C43.0082 42.9078 43.0082 43.3858 42.7224 43.6806C42.4369 43.9755 41.9737 43.9755 41.6879 43.6806Z" fill="#44152C"/>
<path d="M14.0014 14.0649C13.7157 13.7701 13.7157 13.2921 14.0014 12.9972C14.2871 12.7023 14.7503 12.7023 15.0359 12.9972C15.3216 13.2921 15.3216 13.7701 15.0359 14.0649C14.7503 14.3598 14.2871 14.3598 14.0014 14.0649Z" fill="#44152C"/>
<path d="M27.612 27.7539L27.3047 7.99821L28.2719 7.9624L28.0741 27.7703L27.612 27.7539Z" fill="#44152C"/>
<path d="M28.2383 29.0402L36.0948 38.1032L37.1447 36.9761L28.5233 28.5951L28.2383 29.0402Z" fill="#44152C"/>
<path d="M28.0007 29.9964C29.069 29.9964 29.9351 29.1026 29.9351 28C29.9351 26.8974 29.069 26.0035 28.0007 26.0035C26.9324 26.0035 26.0664 26.8974 26.0664 28C26.0664 29.1026 26.9324 29.9964 28.0007 29.9964Z" fill="#44152C"/>
</svg>
