<svg width="73" height="30" viewBox="0 0 73 30" fill="none" xmlns="http://www.w3.org/2000/svg">
<path d="M62.49 26.7483L4.06937 28.7183L0.000976562 26.7483V25.1847H62.49C64.2787 25.1847 65.7341 24.1498 65.7341 22.8778V17.6319C65.7341 16.36 65.0742 17.4937 63.2854 17.4937L4.06911 16.5132L0.000976562 13.7615H62.49C65.4914 13.7615 67.9329 15.4977 67.9329 17.6319V22.8778C67.9329 25.0121 65.4914 26.7483 62.49 26.7483Z" fill="#E49332"/>
<path fill-rule="evenodd" clip-rule="evenodd" d="M4.9695 27.9338L1.12305 25.53V15.2467L4.9695 17.1717V27.9338Z" fill="#EEEEEF"/>
<path fill-rule="evenodd" clip-rule="evenodd" d="M4.94141 28.7184H66.5596C68.9584 28.7184 70.9032 27.3354 70.9032 25.6296V20.3837C70.9032 18.6779 68.9584 17.295 66.5596 17.295H4.94141V28.7184Z" fill="white"/>
<path fill-rule="evenodd" clip-rule="evenodd" d="M4.94141 20.1525L11.5139 20.6104L4.94141 21.2401V20.1525Z" fill="#CDCDCD"/>
<path fill-rule="evenodd" clip-rule="evenodd" d="M4.94141 24.1281L10.4751 24.5581L4.94141 25.1495V24.1281Z" fill="#CDCDCD"/>
<path d="M27.209 20.8035C31.5007 20.3926 35.7925 20.2875 40.0843 20.2585C42.2301 20.2463 44.3761 20.2787 46.5221 20.356C48.6679 20.4365 50.8137 20.5602 52.9597 20.8035C50.8137 21.0468 48.6679 21.1705 46.5221 21.251C44.3761 21.3283 42.2301 21.3607 40.0843 21.3486C35.7925 21.3195 31.5007 21.2144 27.209 20.8035Z" fill="#CDCDCD"/>
<path d="M21.0938 24.6658C25.3856 24.255 29.6773 24.1498 33.9691 24.1208C36.1149 24.1086 38.2609 24.141 40.4068 24.2183C42.5527 24.2988 44.6987 24.4225 46.8445 24.6658C44.6987 24.9091 42.5527 25.0328 40.4068 25.1133C38.2609 25.1906 36.1149 25.223 33.9691 25.2109C29.6773 25.1818 25.3856 25.0767 21.0938 24.6658Z" fill="#CDCDCD"/>
<path fill-rule="evenodd" clip-rule="evenodd" d="M4.94093 20.1524L3.30469 20.1024L4.94093 21.2401V20.1524Z" fill="#CDCDCD"/>
<path fill-rule="evenodd" clip-rule="evenodd" d="M4.94045 24.1281L3.67773 24.0559L4.94045 25.1495V24.1281Z" fill="#CDCDCD"/>
<path d="M66.5584 29.5002H4.06934V27.9365H66.5584C68.3471 27.9365 69.8024 26.9016 69.8024 25.6296V20.3837C69.8024 19.1118 68.3471 18.0769 66.5584 18.0769H4.06934V16.5133H66.5584C69.5597 16.5133 72.0013 18.2495 72.0013 20.3837V25.6296C72.0012 27.764 69.5597 29.5002 66.5584 29.5002Z" fill="#EACA81"/>
<path d="M70.8923 18.0525L70.901 18.0541L70.8753 18.0363C70.5506 17.7351 70.1664 17.4691 69.7333 17.2467L66.3602 14.9142L66.3594 14.9144C65.372 14.2035 64.0023 13.7615 62.4894 13.7615H57.6777C58.7015 14.6977 62.418 18.0768 62.418 18.0768C62.418 18.0768 63.8772 18.0768 65.7334 18.0768C67.5897 18.0768 67.9322 18.2972 67.9322 18.2972C69.0347 18.6661 69.8015 19.4614 69.8015 20.3836V25.6295C69.8015 26.9015 68.3462 27.9364 66.5576 27.9364H62.418V29.5H66.5576C69.5589 29.5 72.0004 27.7638 72.0004 25.6295V20.3836C72.0004 19.5078 71.5844 18.7018 70.8923 18.0525Z" fill="#AD7028"/>
<path d="M4.06912 18.0768L0.000976562 15.3131V13.7615L4.06912 16.5132V18.0768Z" fill="#EACA81"/>
<path d="M4.06912 27.9364L0.000976562 25.1847V26.7483L4.06912 29.5V27.9364Z" fill="#EACA81"/>
<path d="M62.49 13.4868L4.06937 15.4568L0.000976562 13.4868V11.9232H62.49C64.2787 11.9232 65.7341 10.8883 65.7341 9.6163V4.37054C65.7341 3.0986 65.0742 4.23225 63.2854 4.23225L4.06911 3.25167L0.000976562 0.5H62.49C65.4914 0.5 67.9329 2.2362 67.9329 4.37054V9.6163C67.9329 11.7506 65.4914 13.4868 62.49 13.4868Z" fill="#E49332"/>
<path fill-rule="evenodd" clip-rule="evenodd" d="M4.9695 14.6723L1.12305 12.2685V1.98523L4.9695 3.91023V14.6723Z" fill="#EEEEEF"/>
<path fill-rule="evenodd" clip-rule="evenodd" d="M4.94141 15.4568H66.5596C68.9584 15.4568 70.9032 14.074 70.9032 12.368V7.12208C70.9032 5.41628 68.9584 4.03345 66.5596 4.03345H4.94141V15.4568Z" fill="white"/>
<path fill-rule="evenodd" clip-rule="evenodd" d="M4.94141 6.89075L11.5139 7.34864L4.94141 7.9784V6.89075Z" fill="#CDCDCD"/>
<path fill-rule="evenodd" clip-rule="evenodd" d="M4.94141 10.8665L10.4751 11.2965L4.94141 11.8879V10.8665Z" fill="#CDCDCD"/>
<path d="M27.209 7.54204C31.5007 7.13116 35.7925 7.02603 40.0843 6.99698C42.2301 6.98486 44.3761 7.01721 46.5221 7.09452C48.6679 7.17501 50.8137 7.29872 52.9597 7.54204C50.8137 7.78536 48.6679 7.90907 46.5221 7.98956C44.3761 8.06687 42.2301 8.09921 40.0843 8.0871C35.7925 8.05804 31.5007 7.95291 27.209 7.54204Z" fill="#CDCDCD"/>
<path d="M21.0938 11.4042C25.3856 10.9933 29.6773 10.8882 33.9691 10.8592C36.1149 10.847 38.2609 10.8794 40.4068 10.9567C42.5527 11.0372 44.6987 11.1609 46.8445 11.4042C44.6987 11.6475 42.5527 11.7713 40.4068 11.8517C38.2609 11.9291 36.1149 11.9614 33.9691 11.9493C29.6773 11.9202 25.3856 11.8151 21.0938 11.4042Z" fill="#CDCDCD"/>
<path fill-rule="evenodd" clip-rule="evenodd" d="M4.94093 6.89069L3.30469 6.8407L4.94093 7.97834V6.89069Z" fill="#CDCDCD"/>
<path fill-rule="evenodd" clip-rule="evenodd" d="M4.94045 10.8665L3.67773 10.7943L4.94045 11.8879V10.8665Z" fill="#CDCDCD"/>
<path d="M66.5584 16.2386H4.06934V14.6749H66.5584C68.3471 14.6749 69.8024 13.6401 69.8024 12.368V7.12216C69.8024 5.85021 68.3471 4.81534 66.5584 4.81534H4.06934V3.25171H66.5584C69.5597 3.25171 72.0013 4.98791 72.0013 7.12216V12.368C72.0012 14.5024 69.5597 16.2386 66.5584 16.2386Z" fill="#EACA81"/>
<path d="M70.8923 4.79106L70.901 4.79259L70.8753 4.77484C70.5506 4.47361 70.1664 4.2076 69.7333 3.98523L66.3602 1.65275L66.3594 1.65295C65.372 0.941977 64.0023 0.5 62.4894 0.5H57.6777C58.7015 1.43621 62.418 4.81529 62.418 4.81529C62.418 4.81529 63.8772 4.81529 65.7334 4.81529C67.5897 4.81529 67.9322 5.03571 67.9322 5.03571C69.0347 5.40459 69.8015 6.19995 69.8015 7.12212V12.368C69.8015 13.64 68.3462 14.6749 66.5576 14.6749H62.418V16.2385H66.5576C69.5589 16.2385 72.0004 14.5023 72.0004 12.368V7.12212C72.0004 6.24636 71.5844 5.44032 70.8923 4.79106Z" fill="#AD7028"/>
<path d="M4.06912 4.81529L0.000976562 2.05159V0.5L4.06912 3.25167V4.81529Z" fill="#EACA81"/>
<path d="M4.06912 14.6749L0.000976562 11.9232V13.4868L4.06912 16.2385V14.6749Z" fill="#EACA81"/>
</svg>
