<svg width="72" height="28" viewBox="0 0 72 28" fill="none" xmlns="http://www.w3.org/2000/svg">
<path d="M60.8194 28L71.7021 19.4844C72.2776 19.034 71.9664 18.0931 71.2418 18.0931H8.43705L0.000976562 28H60.8194Z" fill="#907B67"/>
<path d="M58.2832 15.5633V26.6311L68.684 19.3664L68.3317 11.6862L58.2832 15.5633Z" fill="#E3E4E3"/>
<path d="M60.8194 14.7169L69.7243 11.1143C70.2384 10.9063 70.0955 10.1251 69.5427 10.1215L10.9313 9.74548L0.000976562 14.1983L60.8194 14.7169Z" fill="#907B67"/>
<path d="M60.8194 14.1984H0.000976562V28H60.8194V14.1984Z" fill="#9A8473"/>
<path opacity="0.08" d="M60.82 14.717L68.369 11.6862L68.394 12.2313L60.8174 17.0103L60.82 14.717Z" fill="#000100"/>
<path d="M44.1876 17.0104H3.38379V25.5186H44.1876V17.0104Z" fill="#F0F0F0"/>
<path d="M51.9913 24.331C53.6867 24.331 55.0611 22.9245 55.0611 21.1895C55.0611 19.4545 53.6867 18.048 51.9913 18.048C50.2958 18.048 48.9214 19.4545 48.9214 21.1895C48.9214 22.9245 50.2958 24.331 51.9913 24.331Z" fill="#303030"/>
<path d="M51.9906 24.4783C50.2185 24.4783 48.7769 23.003 48.7769 21.1895C48.7769 19.376 50.2185 17.9008 51.9906 17.9008C53.7628 17.9008 55.2044 19.376 55.2044 21.1895C55.2044 23.003 53.7628 24.4783 51.9906 24.4783ZM51.9906 18.1953C50.3772 18.1953 49.0647 19.5384 49.0647 21.1895C49.0647 22.8406 50.3772 24.1838 51.9906 24.1838C53.6041 24.1838 54.9166 22.8406 54.9166 21.1895C54.9166 19.5384 53.6041 18.1953 51.9906 18.1953Z" fill="#BDC6AA"/>
<path d="M48.8305 15.4506L61.7278 7.8632C62.3998 7.43 61.9713 6.63865 61.2475 6.63865L12.4274 7.68698L8.27783 13.1784L48.8305 15.4506Z" fill="#507798"/>
<path d="M48.4087 4.6607L47.9873 15.118L58.7239 8.79721L58.3398 1.1808L48.4087 4.6607Z" fill="#E4E4E2"/>
<path d="M48.7638 5.24786L59.9124 0.936825C60.4944 0.71113 60.3348 -0.0280781 59.7112 0.000989914L13.7906 2.14153L8.12793 5.24786H48.7638Z" fill="#507798"/>
<path d="M48.8305 15.4506L8.10205 13.1712L8.12835 5.24782H48.7642L48.8305 15.4506Z" fill="#6488AD"/>
<path d="M9.8088 6.17515L9.78955 11.9743L35.6872 13.6346L35.7115 6.30796L9.8088 6.17515Z" fill="white"/>
<path d="M42.1668 7.95903C43.4568 7.95903 44.5026 9.02919 44.5026 10.3493C44.5026 11.6694 43.4568 12.7396 42.1668 12.7396C40.8768 12.7396 39.8311 11.6694 39.8311 10.3493C39.8311 9.02919 40.8768 7.95903 42.1668 7.95903Z" fill="#373736"/>
<path d="M42.1668 7.84317C40.8164 7.84317 39.7178 8.96741 39.7178 10.3493C39.7178 11.7313 40.8164 12.8555 42.1668 12.8555C43.5172 12.8555 44.6158 11.7313 44.6158 10.3493C44.6158 8.96741 43.5172 7.84317 42.1668 7.84317ZM42.1668 12.6238C40.9413 12.6238 39.9442 11.6035 39.9442 10.3493C39.9442 9.0952 40.9413 8.07492 42.1668 8.07492C43.3924 8.07492 44.3894 9.0952 44.3894 10.3493C44.3894 11.6035 43.3924 12.6238 42.1668 12.6238Z" fill="#BEAE97"/>
</svg>
