<svg width="25" height="56" viewBox="0 0 25 56" fill="none" xmlns="http://www.w3.org/2000/svg">
<path d="M12.501 26.8821C12.501 26.8821 6.65165 27.2488 0.000976562 24.3563C0.000976562 24.3563 2.46491 49.4004 2.6753 50.9586C2.8856 52.5169 2.94568 54.2584 4.50817 54.7473C6.07067 55.2361 9.1356 56 12.501 56C15.8664 56 18.9313 55.2361 20.4938 54.7473C22.0563 54.2584 22.1164 52.5169 22.3267 50.9586C22.537 49.4004 25.001 24.3563 25.001 24.3563C18.3503 27.2488 12.501 26.8821 12.501 26.8821Z" fill="#C04E35"/>
<path d="M3.15417 23.4328C1.84893 23.7097 0.712098 24.0203 0.000976562 24.3564C0.000976562 24.3564 3.12594 28.0739 12.501 28.0739C21.876 28.0739 25.001 24.3564 25.001 24.3564C24.2899 24.0203 23.153 23.7097 21.8478 23.4328C15.6901 22.1264 9.31188 22.1264 3.15417 23.4328Z" fill="#BCDBF1"/>
<path d="M3.15417 23.4328C1.84893 23.7097 0.712098 24.0203 0.000976562 24.3564C0.000976562 24.3564 3.12594 27.5951 12.501 27.5951C21.876 27.5951 25.001 24.3564 25.001 24.3564C24.2899 24.0203 23.153 23.7097 21.8478 23.4328C15.6901 22.1264 9.31188 22.1264 3.15417 23.4328Z" fill="#E19D8E"/>
<path d="M4.67569 23.857C3.58306 24.0556 2.63143 24.2783 2.03613 24.5194C2.03613 24.5194 4.65207 26.7103 12.5 26.7103C20.3479 26.7103 22.964 24.5194 22.964 24.5194C22.3687 24.2783 21.417 24.0556 20.3244 23.857C15.1697 22.9202 9.83041 22.9202 4.67569 23.857Z" fill="#7B3121"/>
<path d="M6.18034 16.6689C6.18034 16.6689 3.45916 11.0459 3.15957 11.1642C2.86002 11.2825 2.1986 16.5911 2.04004 17.53L2.06917 17.5705C3.20045 19.1414 5.66717 18.9542 6.09342 17.0561L6.18034 16.6689Z" fill="#FAF3E9"/>
<path d="M2.94742 11.7651C2.61934 13.203 2.16742 16.7758 2.04004 17.5301L2.06917 17.5705C2.60118 18.3093 2.63927 18.633 3.40064 18.5235C3.05917 16.8791 2.94742 11.7651 2.94742 11.7651Z" fill="#E2E2C9"/>
<path d="M3.53781 13.0935C3.69335 13.0743 4.22966 12.7454 4.20212 12.6969C3.70107 11.8093 3.12465 10.7469 3.12465 10.7469C3.12465 10.7469 2.74172 12.5781 2.71582 13.0014C2.71582 13.0014 3.05847 13.1532 3.53781 13.0935Z" fill="#222222"/>
<path d="M7.48802 26.9439L6.18039 16.6687C6.18039 16.6687 4.57858 18.4905 2.04004 17.5299L3.19132 26.021C4.59514 26.3458 6.0402 26.6984 7.48802 26.9439Z" fill="#FFDF4D"/>
<path d="M7.48869 26.9439L6.18107 16.6687C6.18107 16.6687 5.74928 17.0512 5.04541 17.4676L6.27245 26.7178C6.67751 26.8018 7.08279 26.8751 7.48869 26.9439Z" fill="#FFC346"/>
<path d="M4.51943 26.3285L3.27779 17.7904C3.27556 17.7845 3.27328 17.7784 3.27121 17.7725C3.0983 17.7695 2.91767 17.7494 2.73151 17.7162C2.69833 17.7106 2.66503 17.7046 2.63146 17.6979C2.56423 17.684 2.49714 17.6696 2.42848 17.6511C2.30168 17.6185 2.17298 17.5802 2.04004 17.5299L3.19132 26.021C3.63038 26.1226 4.07297 26.224 4.51943 26.3285Z" fill="#FFC346"/>
<path d="M11.7492 27.1589L11.9731 12.5647L11.9099 12.4128C11.6536 12.5791 11.3877 12.7116 11.2383 12.8311C10.9263 13.0808 10.5461 13.2577 10.1512 13.3069C9.31963 13.411 8.59086 12.8966 7.77556 12.7074L7.62012 26.9676C9.01283 27.1966 10.4006 27.2994 11.7492 27.1589Z" fill="#FFC346"/>
<path d="M7.61475 25.9077C8.65952 25.8102 9.72583 25.8424 10.7653 25.7592C11.115 25.7314 11.4664 25.7118 11.8061 25.7252L11.9718 12.5646L11.9085 12.4127C11.6522 12.579 8.58946 12.8966 7.77416 12.7073L7.61475 25.9077Z" fill="#E22F2B"/>
<path d="M11.8046 27.1542L11.8169 25.2465L7.60986 25.2824L7.60303 26.9648C9.02052 27.1987 10.4333 27.3045 11.8046 27.1542Z" fill="#222222"/>
<path d="M11.972 12.5646L10.2986 8.13892C9.9578 8.28915 9.56559 8.31875 9.20754 8.23112L7.77393 12.7146C10.3436 13.9092 11.972 12.5646 11.972 12.5646Z" fill="#F9F6EF"/>
<path d="M10.4824 8.60508L10.0271 7.10315C9.91393 6.7653 9.63757 6.80599 9.55081 7.08807L9.10303 8.54289C9.44873 8.94819 10.02 9.01805 10.4824 8.60508Z" fill="#222222"/>
<path opacity="0.55" fill-rule="evenodd" clip-rule="evenodd" d="M7.77393 12.7137C8.42878 13.0453 9.16142 13.163 9.44589 13.1803C9.20685 11.927 9.10155 8.56848 9.10155 8.56848L7.77574 12.7077L7.77404 12.7073L7.77393 12.7137Z" fill="#A9A8A8"/>
<path d="M15.4598 26.6179L17.2843 8.04107L14.9505 7.8042L13.0596 26.9885C13.8565 26.867 14.6551 26.7448 15.4598 26.6179Z" fill="#EC9430"/>
<path d="M18.6524 26.1272L21.1604 0.622249L15.0547 0L12.3843 27.0929C14.4491 26.7852 16.5486 26.4413 18.6524 26.1272Z" fill="#EC9430"/>
<path d="M18.6521 26.1273L21.1607 0.62239L15.7145 0.0673828L13.061 26.9886C14.9081 26.707 16.7768 26.4072 18.6521 26.1273Z" fill="#FFC346"/>
<path opacity="0.32" d="M18.652 26.1272L18.9148 23.4554C17.1431 24.474 15.3712 25.4921 13.5987 26.5093C13.4259 26.6084 13.2515 26.7144 13.078 26.8165L13.061 26.9886C14.9082 26.7069 16.7768 26.4071 18.652 26.1272Z" fill="#FFC346"/>
<path opacity="0.32" d="M14.6242 11.1282C15.898 10.0952 17.2202 9.13777 18.6419 8.35439C19.4379 7.91587 20.0977 7.30319 20.5735 6.58716L19.6957 15.513C19.3551 15.6879 19.0152 15.8636 18.6767 16.0401C17.0804 16.8719 15.4899 17.7183 13.8926 18.5506L14.6242 11.1282Z" fill="#FFC346"/>
<path d="M15.0542 0L21.1609 0.622353L21.0666 1.52863L15.6254 0.974085L15.0542 0Z" fill="#FFE345"/>
<path d="M20.7049 5.31874L20.6818 5.55419L18.5049 5.3333L18.528 5.0979L20.7049 5.31874Z" fill="#844500"/>
<path d="M20.5999 6.4017L20.5768 6.6371L19.4883 6.52672L19.5114 6.29126L20.5999 6.4017Z" fill="#844500"/>
<path d="M20.4939 7.48466L20.4708 7.72011L19.3823 7.60972L19.4054 7.37427L20.4939 7.48466Z" fill="#844500"/>
<path d="M20.386 8.56748L20.3629 8.80288L19.2744 8.69243L19.2975 8.45703L20.386 8.56748Z" fill="#844500"/>
<path d="M20.281 9.65043L20.2579 9.88588L19.1694 9.77538L19.1926 9.54004L20.281 9.65043Z" fill="#844500"/>
<path d="M20.1747 10.7333L20.1516 10.9687L17.9746 10.7479L17.9977 10.5125L20.1747 10.7333Z" fill="#844500"/>
<path d="M20.0681 11.8162L20.045 12.0517L18.9565 11.9412L18.9796 11.7058L20.0681 11.8162Z" fill="#844500"/>
<path d="M19.9622 12.8993L19.9391 13.1347L18.8506 13.0242L18.8737 12.7888L19.9622 12.8993Z" fill="#844500"/>
<path d="M19.8572 13.9821L19.8341 14.2176L18.7456 14.1072L18.7687 13.8717L19.8572 13.9821Z" fill="#844500"/>
<path d="M19.7503 15.0651L19.7271 15.3005L18.6387 15.19L18.6618 14.9546L19.7503 15.0651Z" fill="#844500"/>
<path d="M19.6439 16.1481L19.6208 16.3835L17.4438 16.1626L17.467 15.9272L19.6439 16.1481Z" fill="#844500"/>
<path d="M19.5359 17.2309L19.5128 17.4663L18.4243 17.3559L18.4474 17.1205L19.5359 17.2309Z" fill="#844500"/>
<path d="M19.4304 18.3139L19.4073 18.5492L18.3188 18.4388L18.3419 18.2034L19.4304 18.3139Z" fill="#844500"/>
<path d="M19.325 19.3968L19.3019 19.6322L18.2134 19.5218L18.2365 19.2864L19.325 19.3968Z" fill="#844500"/>
<path d="M19.22 20.4797L19.1969 20.7151L18.1084 20.6047L18.1315 20.3693L19.22 20.4797Z" fill="#844500"/>
<path d="M19.1121 21.5626L19.089 21.7981L16.9121 21.5772L16.9351 21.3418L19.1121 21.5626Z" fill="#844500"/>
<path d="M19.0046 22.6456L18.9816 22.881L17.8931 22.7706L17.9162 22.5352L19.0046 22.6456Z" fill="#844500"/>
<path d="M18.8986 23.7286L18.8756 23.964L17.7871 23.8536L17.8102 23.6182L18.8986 23.7286Z" fill="#844500"/>
<path d="M18.7933 24.8114L18.7701 25.0468L17.6816 24.9363L17.7048 24.7009L18.7933 24.8114Z" fill="#844500"/>
<path d="M23.0137 20.2589C23.0137 20.2589 22.173 14.0505 21.852 14.0669C21.531 14.0832 19.2588 18.9097 18.8174 19.75L18.8325 19.7978C19.4196 21.651 21.8187 22.2636 22.8112 20.5986L23.0137 20.2589Z" fill="#FAF3E9"/>
<path d="M19.8145 20.7815C19.8145 20.7815 21.195 15.5312 21.4645 14.5692C20.7077 15.8287 19.1719 19.0749 18.8174 19.75L18.8325 19.7977C19.1086 20.6693 19.0579 20.6415 19.8145 20.7815Z" fill="#E2E2C9"/>
<path d="M21.6133 16.019C21.7669 16.0506 22.3778 15.9103 22.3667 15.8553C22.1662 14.8524 21.9481 13.6595 21.9481 13.6595C21.9481 13.6595 21.0175 15.2748 20.8618 15.6682C20.8618 15.6682 21.1399 15.9221 21.6133 16.019Z" fill="#222222"/>
<path d="M21.9794 25.6781L23.0142 20.2589C23.0142 20.2589 20.9296 21.4748 18.8179 19.75L17.6265 26.2796C19.0781 26.0562 20.5305 25.8541 21.9794 25.6781Z" fill="#727272"/>
<path d="M21.9792 25.6781L23.014 20.2589C23.014 20.2589 22.4857 20.4835 21.6887 20.6533L20.7285 25.8302C21.1464 25.7742 21.5621 25.7287 21.9792 25.6781Z" fill="#222222"/>
<path d="M18.9297 26.0873L19.9119 20.3937C19.9116 20.3874 19.9113 20.3809 19.9112 20.3746C19.748 20.3163 19.5828 20.2395 19.4164 20.1483C19.3867 20.1324 19.3569 20.116 19.3271 20.0989C19.2676 20.0642 19.2084 20.029 19.149 19.9894C19.0387 19.9178 18.9284 19.8403 18.8179 19.75L17.6265 26.2796C18.061 26.2128 18.4947 26.1515 18.9297 26.0873Z" fill="#222222"/>
<path d="M23.1583 23.7434C23.0309 23.9943 22.859 24.2174 22.6468 24.4057C22.7595 24.4431 22.8699 24.4808 22.965 24.5193C22.965 24.5193 20.3489 26.7103 12.501 26.7103C4.65301 26.7103 2.03703 24.5193 2.03703 24.5193C2.237 24.4384 2.489 24.3603 2.76117 24.2837C2.55766 24.0989 2.3882 23.8802 2.25326 23.637C1.33205 23.8597 0.542307 24.1005 0.000976562 24.3564C0.000976562 24.3564 3.12594 28.0785 12.501 28.0785C21.876 28.0785 25.001 24.3564 25.001 24.3564C24.5438 24.1404 23.8988 23.9362 23.1583 23.7434Z" fill="#E19D8E"/>
</svg>
