<svg width="40" height="56" viewBox="0 0 40 56" fill="none" xmlns="http://www.w3.org/2000/svg">
<path d="M12.356 53.9641C12.356 52.8395 16.0251 51.928 20.5513 51.928C25.0776 51.928 28.7468 52.8395 28.7468 53.9641C28.7468 55.0885 25.0776 56 20.5513 56C16.0251 56 12.356 55.0885 12.356 53.9641Z" fill="#EBAA62"/>
<path d="M12.2385 53.5154H28.6294L32.6296 33.6006H8.23828L12.2385 53.5154Z" fill="#EBAA62"/>
<path d="M9.65794 40.669L8.23828 33.6006H32.6296L31.1836 40.799C25.6846 43.8778 13.1046 43.558 9.65794 40.669Z" fill="#AD7028"/>
<path d="M7.09607 38.6914H32.9487V33.5435H7.09607V38.6914Z" fill="#E49332"/>
<path d="M7.2085 33.5055C7.2085 35.1402 12.9958 36.4653 20.1348 36.4653C27.2738 36.4653 33.0612 35.1402 33.0612 33.5055C33.0612 31.8709 27.2738 30.5459 20.1348 30.5459C12.9958 30.5459 7.2085 31.8709 7.2085 33.5055Z" fill="#E49332"/>
<path d="M19.6384 32.5823C25.5582 32.5823 30.9732 33.5895 32.0688 34.7207C30.5372 35.9639 25.5582 36.8761 19.6384 36.8761C13.7185 36.8761 8.73978 35.9639 7.20801 34.7207C8.73787 33.4553 13.7185 32.5823 19.6384 32.5823Z" fill="#AD7028"/>
<path d="M10.6287 36.655H29.6399C31.7572 37.1825 33.0607 37.8845 33.0607 38.658C33.0607 40.2943 27.2733 41.6208 20.1343 41.6208C12.9953 41.6208 7.20801 40.2943 7.20801 38.658C7.20801 37.8845 8.51136 37.1825 10.6287 36.655Z" fill="#E49332"/>
<path d="M31.8952 12.2184C17.306 17.4378 19.7108 31.1982 19.7108 31.1982C19.7108 31.1982 19.9784 33.7982 21.1048 35.3963" stroke="#84954C" stroke-miterlimit="10" stroke-linecap="round" stroke-linejoin="round"/>
<path d="M22.8274 20.1051C22.8274 20.1051 19.688 4.47866 40.0009 10.5752C40.0009 10.5752 35.2054 26.6171 22.8274 20.1051Z" fill="#84954C"/>
<path d="M33.3737 12.3484C29.1086 13.8436 25.6572 16.343 22.6523 19.553C22.6656 19.6327 22.6754 19.6842 22.6754 19.6842C34.8184 26.0724 39.6608 10.7661 39.8404 10.182C37.5534 10.8116 35.322 11.6655 33.3737 12.3484Z" fill="#68753C"/>
<path d="M14.416 4.07275C14.416 4.07275 21.2396 15.426 20.4248 27.0592" stroke="#84954C" stroke-miterlimit="10" stroke-linecap="round" stroke-linejoin="round"/>
<path d="M19.598 20.1661C19.598 20.1661 16.5822 16.6112 8.23779 15.2729" stroke="#84954C" stroke-miterlimit="10" stroke-linecap="round" stroke-linejoin="round"/>
<path d="M29.7718 25.455C29.7718 25.455 21.5091 28.4875 19.563 31.0006" stroke="#84954C" stroke-miterlimit="10" stroke-linecap="round" stroke-linejoin="round"/>
<path d="M19.8591 31.0329C19.8591 31.0329 18.403 25.0162 8.23779 21.3821" stroke="#84954C" stroke-miterlimit="10" stroke-linecap="round" stroke-linejoin="round"/>
<path d="M17.2494 25.8979C17.2494 25.8979 8.25694 34.012 3.08984 19.3926C3.08984 19.3926 17.7036 14.4389 17.2494 25.8979Z" fill="#84954C"/>
<path d="M3.08984 19.3457C8.0231 33.1215 16.3739 26.4386 17.1412 25.7858C12.9695 22.4925 8.14035 19.9298 3.08984 19.3457Z" fill="#68753C"/>
<path d="M22.679 28.7641C22.679 28.7641 21.5585 18.9 33.847 23.7336C33.847 23.7336 30.0189 33.4461 22.679 28.7641Z" fill="#84954C"/>
<path d="M23.6821 28.4491C30.9951 33.1019 34.8501 23.4186 34.8501 23.4186C30.5332 25.0293 25.3546 26.5466 23.6821 28.4491Z" fill="#68753C"/>
<path d="M13.8667 15.8363C13.8667 15.8363 7.28163 24.6932 0.000976562 12.5073C0.000976562 12.5073 12.1955 5.48963 13.8667 15.8363Z" fill="#84954C"/>
<path d="M0.0905505 12.2183C0.0371008 12.2478 0.000976562 12.2682 0.000976562 12.2682C7.28163 24.454 13.8667 15.5971 13.8667 15.5971C13.8534 15.5146 13.8337 15.4426 13.819 15.3623C9.41375 13.6844 4.82527 12.5291 0.0905505 12.2183Z" fill="#68753C"/>
<path d="M17.5272 11.598C17.5272 11.598 7.17576 12.589 11.2435 0C11.2435 7.24337e-08 23.7894 4.00775 17.5272 11.598Z" fill="#84954C"/>
<path d="M11.2435 0C7.17585 12.589 17.5272 11.598 17.5272 11.598C17.6038 11.5051 11.2435 0 11.2435 0Z" fill="#68753C"/>
</svg>
