<svg width="72" height="36" viewBox="0 0 72 36" fill="none" xmlns="http://www.w3.org/2000/svg">
<path d="M52.9781 35.5L72.0011 28.242V26.1608L52.4473 33.3835L52.9781 35.5Z" fill="#747076"/>
<path d="M38.6641 33.9937L52.4472 33.3835L72.001 26.1608H38.6641V33.9937Z" fill="#E9E9EB"/>
<path d="M36.0605 30.0771H52.1373L59.4312 27.4994H36.0605V30.0771Z" fill="#A2A0A4"/>
<path d="M52.9783 35.5H9.21052L2.93311 0.5H46.7009L52.9783 35.5Z" fill="#A2A0A4"/>
<path d="M50.0462 35.5H6.27833L0.000976562 0.5H43.7688L50.0462 35.5Z" fill="#E9E9EB"/>
<path d="M26.6022 23.1047C28.6598 22.2881 29.4692 19.3849 28.4099 16.6202C27.3507 13.8555 24.8239 12.2763 22.7663 13.0929C20.7086 13.9095 19.8992 16.8128 20.9585 19.5774C22.0177 22.3421 24.5445 23.9214 26.6022 23.1047Z" fill="#A2A0A4"/>
</svg>
