<svg width="28" height="56" fill="none" xmlns="http://www.w3.org/2000/svg"><path d="M1.41 50.758c-.112.045-.26-.03-.328-.168-.07-.138-.035-.286.077-.33l9.888-3.973c.112-.045.26.03.328.168.07.137.034.286-.078.33L1.41 50.759Z" fill="#946C54"/><path fill-rule="evenodd" clip-rule="evenodd" d="M.655 53.506c-.25-.31-.852-1.692-.45-2.081.259-.251 3.641-.47 3.96-.11.391.44.842 1.984.512 2.008-.786.055-1.841.184-2.642.036-.086-.015-1.243-.066-1.307.072-.001.005-.083.063-.073.075Z" fill="#694439"/><path fill-rule="evenodd" clip-rule="evenodd" d="M1.565 53.42c-.224-.312-.79-1.696-.467-2.08.207-.247 3.045-.427 3.33-.065.347.443.793 1.988.515 2.007-.659.047-1.542.164-2.223.008-.072-.017-1.049-.08-1.097.057-.001.004-.067.061-.058.074Z" fill="#A37A5F"/><path fill-rule="evenodd" clip-rule="evenodd" d="M2.84 54.083c-.136-.32-.58-1.711-.524-2.076.037-.235 1.07-.288 1.237.082.205.453.63 2 .53 2.006-.239.017-.55.094-.832-.09-.03-.02-.406-.126-.401.008 0 .004-.015.057-.01.07Z" fill="#605F55"/><path fill-rule="evenodd" clip-rule="evenodd" d="M6.273 8.886 2.082 50.354l5.52-2.192L6.272 8.886Z" fill="#CB353A"/><path fill-rule="evenodd" clip-rule="evenodd" d="M6.385 1.264c.27-.146.553-.14.867.199l.416 51.96-.868-.199-.415-51.96Z" fill="#7E706B"/><path fill-rule="evenodd" clip-rule="evenodd" d="M24.378 45.702c3.176-1.508 11.584-24.015-17.276-39.357l.238 41.856s14.111-4.885 17.038-2.5Z" fill="url(#a)"/><path fill-rule="evenodd" clip-rule="evenodd" d="M23.079 39.708c1.57.208 2.996.305 4.288.303 1.96-7.986.425-22.667-20.266-33.666l-.002 10.058c2.458 9.703 7.28 22.15 15.98 23.305Z" fill="url(#b)"/><path fill-rule="evenodd" clip-rule="evenodd" d="M12.857 55.143c.886-1.242 2.85-1.74-.078-4.771-1.401-1.45-1.639 1.527-12.779 2.42l.663 1.8c3.275 2.068 7.13 1.504 12.194.551Z" fill="url(#c)"/><path fill-rule="evenodd" clip-rule="evenodd" d="M12.66 55.18c.046-1.231-.428-4.987-.428-4.987s-1.73 1.153-4.415 1.994c-2.24.701-6.465.674-7.803.645l.648 1.759c3.232 2.041 7.03 1.519 11.997.589Z" fill="url(#d)"/><path d="M12.13 53.608c.108-.753.184-1.536.267-2.425.03-.335.05-.706.056-1.123.005-.412-.005-.87-.035-1.384-.107-.27-.265-.3-.475-.09.03.497.039.941.033 1.344-.004.396-.025.753-.055 1.081-.083.897-.16 1.683-.263 2.4a14.507 14.507 0 0 1-.42 2.047l.437-.072c.205-.71.347-1.031.454-1.778Z" fill="url(#e)"/><path d="M12.12 48.446 7.073 1.879l.165.023 5.049 46.566-.165-.023Z" fill="#E5E5E6"/><path fill-rule="evenodd" clip-rule="evenodd" d="m6.707 2.34-.015-1.26c2.233-.158.404-.256 2.79.313 2.428.58 3.554-2.524 6.672-.935.83.423 3.48-.075 3.476-.02-.056.705-2.093 1.088.057.675 1.513-.29-.678 1.1-1.41.895-.918-.257-2.82-.646-3.71-.583-1.784.126-2.644 1.534-4.91 1.295-.784-.082-1.11-.51-2.52-.411l-.43.03Z" fill="#D26275"/><defs><linearGradient id="a" x1="7.321" y1="52.947" x2="19.095" y2="17.062" gradientUnits="userSpaceOnUse"><stop stop-color="#CB353A"/><stop offset="1" stop-color="#DA8682"/></linearGradient><linearGradient id="b" x1="12.575" y1="30.594" x2="27.162" y2="11.005" gradientUnits="userSpaceOnUse"><stop stop-color="#DA8682"/><stop offset="1" stop-color="#FDFDFD"/></linearGradient><linearGradient id="c" x1="8.99" y1="53.184" x2="12.641" y2="52.505" gradientUnits="userSpaceOnUse"><stop stop-color="#925E4F"/><stop offset="1" stop-color="#A37A5F"/></linearGradient><linearGradient id="d" x1="9.837" y1="53.173" x2="15.774" y2="52.046" gradientUnits="userSpaceOnUse"><stop stop-color="#925E4F"/><stop offset="1" stop-color="#A37A5F"/></linearGradient><linearGradient id="e" x1="11.626" y1="56.417" x2="12.165" y2="47.677" gradientUnits="userSpaceOnUse"><stop stop-color="#694439"/><stop offset="1" stop-color="#A37A5F"/></linearGradient></defs></svg>