<svg width="72" height="42" viewBox="0 0 72 42" fill="none" xmlns="http://www.w3.org/2000/svg">
<path d="M50.5616 17.1017C50.5616 17.1017 48.5106 10.261 47.8282 8.18783C47.1438 6.11475 45.846 1.96951 45.025 1.20883C44.206 0.448278 43.2493 0.378701 39.2868 0.103232C35.3224 -0.174156 26.6454 0.172809 23.5697 0.378701C20.4952 0.587421 16.873 0.172809 13.3206 0.103232C9.76616 0.033544 2.72812 0.310033 1.97601 0.725666C1.22471 1.14028 0.815706 4.59453 0.472602 7.91236C0.131404 11.2275 -0.278595 23.1828 0.269111 28.8493C0.815706 34.5148 1.63482 40.5274 1.90912 41.1488C2.18152 41.7702 2.38692 41.633 4.71044 41.9085C7.03375 42.1858 11.4072 41.7702 14.1396 41.4939C16.873 41.2174 18.4316 41.0321 20.9042 40.941C23.3779 40.8517 27.1242 41.4939 31.359 41.2859C35.5967 41.0803 39.8325 41.5634 41.4726 41.4939C43.1126 41.4252 44.2738 41.4242 45.846 39.0071C47.4182 36.588 46.7338 33.4102 48.2382 29.7471C49.7405 26.0851 51.1073 19.8658 51.1073 19.8658L50.5616 17.1017Z" fill="url(#paint0_radial_13256_265764)"/>
<path d="M24.7722 40.8282C25.8092 40.6655 26.7833 40.9909 27.7798 40.6381C27.7808 40.6067 27.7895 40.5645 27.804 40.5165C27.7575 40.4656 27.7177 40.4107 27.6868 40.3449C27.459 39.8559 27.6257 39.157 27.6703 38.6424C27.7177 38.1121 27.7216 37.5828 27.7352 37.0526C27.7827 35.1725 27.932 33.3003 27.9115 31.4184C27.87 27.5985 27.7866 23.7797 27.679 19.9619C27.5897 16.7664 27.3776 13.5769 27.2951 10.3815C27.2641 9.20816 27.3 8.05259 27.4802 6.89294C27.6237 5.96286 27.7741 5.03935 27.7923 4.09647C27.8079 3.30939 27.5151 2.14192 27.9562 1.40187C27.2893 0.882438 26.5527 0.870655 25.7066 0.92652C24.9436 0.975581 23.9318 0.914849 23.2221 1.21275C23.1979 1.22352 23.1795 1.23825 23.1582 1.25094C22.7997 1.45479 22.7812 1.93909 22.7114 2.32628C22.5669 3.12514 22.4361 3.92594 22.4574 4.74236C22.4875 5.94518 22.6203 7.14393 22.6512 8.34664C22.6872 9.74141 22.7104 11.1313 22.7956 12.5242C23.1727 18.7553 23.3454 25.0334 23.3415 31.2753C23.3415 33.0073 23.2037 34.7815 22.9072 36.484C22.7124 37.6063 22.6183 38.6776 22.723 39.8167C22.7462 40.0783 22.7666 40.3165 22.85 40.5009C22.9353 40.6881 23.0864 40.8166 23.3773 40.8517C23.8417 40.9066 24.3117 40.9007 24.7722 40.8282Z" fill="url(#paint1_linear_13256_265764)"/>
<path d="M30.773 40.6223C31.655 40.6244 32.8366 41.0683 33.5791 40.4224C33.2583 40.0186 33.2805 39.3521 33.263 38.8658C33.2408 38.2198 33.2437 37.5729 33.2689 36.9271C33.3348 35.1617 33.4666 33.3984 33.5345 31.6339C33.5936 30.0657 33.6625 28.5004 33.7584 26.9349C33.8573 25.3137 34.0385 23.6915 34.0026 22.0663C33.9105 17.9006 33.1216 13.771 33.0828 9.60816C33.0595 7.23798 33.0284 4.82383 33.1603 2.45467C33.1768 2.1664 33.1836 1.75767 33.3193 1.4617C32.8318 0.920633 32.2501 0.644256 31.3874 0.693318C30.8253 0.725616 30.2748 0.768677 29.7106 0.755986C29.2357 0.746243 28.7336 0.732411 28.3216 1.01174C28.1627 1.11972 28.0463 1.25298 27.9563 1.40187C27.5151 2.14192 27.8079 3.30939 27.7923 4.09647C27.7741 5.03935 27.6237 5.96286 27.4803 6.89294C27.3 8.05259 27.2641 9.20816 27.2951 10.3815C27.3776 13.5769 27.5897 16.7664 27.679 19.9618C27.7866 23.7797 27.87 27.5985 27.9115 31.4184C27.932 33.3003 27.7827 35.1725 27.7352 37.0526C27.7216 37.5828 27.7177 38.1121 27.6703 38.6424C27.6257 39.157 27.459 39.8559 27.6868 40.3449C27.7177 40.4107 27.7575 40.4656 27.804 40.5165C28.3807 41.1557 30.0654 40.6204 30.773 40.6223Z" fill="url(#paint2_linear_13256_265764)"/>
<path d="M21.2368 40.4599C21.6363 40.4765 22.0394 40.6372 22.4369 40.6098C22.5841 40.599 22.7199 40.5588 22.8488 40.501C22.7654 40.3166 22.745 40.0784 22.7218 39.8168C22.617 38.6778 22.7112 37.6064 22.906 36.4841C23.2025 34.7816 23.3402 33.0075 23.3402 31.2755C23.3442 25.0336 23.1715 18.7554 22.7944 12.5243C22.7092 11.1315 22.686 9.74156 22.65 8.34679C22.6191 7.14407 22.4863 5.94533 22.4561 4.7425C22.4348 3.92608 22.5657 3.12529 22.7102 2.32643C22.78 1.93924 22.7985 1.45494 23.157 1.25109C23.0126 1.14627 22.8323 1.11193 22.5647 1.10503C22.2129 1.09618 21.8581 1.10412 21.5063 1.10412C20.7561 1.10412 19.7237 0.918853 19.0327 1.21778C18.9619 1.35601 18.9037 1.49516 18.8514 1.63635C18.5858 2.34592 18.5277 3.09288 18.488 3.86432C18.3997 5.54636 18.295 7.22837 18.2213 8.91233C18.0053 13.8926 18.0944 18.8515 18.3154 23.8289C18.4705 27.3027 18.1302 30.7676 18.2 34.2434C18.2262 35.5392 18.1846 36.8399 18.1108 38.1348C18.0741 38.7867 17.9101 39.6766 18.3328 40.2441C18.3396 40.252 18.3436 40.2618 18.3513 40.2717C18.9823 41.0685 20.3984 40.4236 21.2368 40.4599Z" fill="url(#paint3_linear_13256_265764)"/>
<path d="M36.7055 40.8331C37.255 40.7998 37.8396 40.8752 38.3814 40.7967C38.8147 40.7339 39.0241 40.4614 39.2043 40.1175C39.1781 39.9096 39.1976 39.6078 39.2683 39.144C39.4738 37.7973 39.628 30.1264 39.7812 25.6174C39.9351 21.1096 39.7812 8.36009 39.5251 5.35491C39.3294 3.05441 39.3138 2.11924 39.4999 1.59879C39.2499 1.23414 38.9252 0.950858 38.4929 0.869499C37.9781 0.773408 37.4305 0.989156 36.9081 0.970466C36.375 0.952786 35.9359 0.928312 35.4105 1.04695C34.8484 1.17046 34.3142 1.0048 33.7754 1.09102C33.5456 1.12831 33.407 1.27244 33.3199 1.46156C33.1842 1.75754 33.1773 2.16626 33.1609 2.45453C33.029 4.82369 33.06 7.23784 33.0833 9.60802C33.1221 13.7708 33.911 17.9004 34.0032 22.0662C34.039 23.6913 33.8578 25.3135 33.7589 26.9348C33.663 28.5002 33.5942 30.0656 33.535 31.6338C33.4671 33.3982 33.3353 35.1616 33.2694 36.9269C33.2442 37.5728 33.2413 38.2197 33.2635 38.8657C33.281 39.3519 33.2588 40.0185 33.5796 40.4223C33.5834 40.4272 33.5873 40.435 33.5922 40.44C33.9363 40.8526 34.5886 40.7761 35.0674 40.7987C35.6161 40.826 36.1559 40.8664 36.7055 40.8331Z" fill="url(#paint4_linear_13256_265764)"/>
<path d="M6.7274 39.9195C6.02281 35.2734 6.39112 30.5959 6.50833 25.9224C6.58016 23.0563 6.43965 20.1902 6.45802 17.3241C6.47158 15.2128 6.31269 13.1063 6.34171 10.997C6.3649 9.31291 6.44345 7.64856 6.41443 5.96562C6.40379 5.30014 6.43673 4.63555 6.46967 3.97096C6.4987 3.35533 6.48615 2.67217 6.72359 2.09291C6.79048 1.93212 6.87284 1.80475 6.96887 1.70175C6.82242 1.51557 6.65087 1.34594 6.42217 1.29201C6.14875 1.22934 5.8182 1.2911 5.54019 1.2911C4.83348 1.29201 4.12979 1.34594 3.429 1.42639C2.83871 1.49495 1.78799 1.61744 1.57084 2.29291C1.48264 2.56441 1.51077 2.8878 1.46707 3.17007C1.38572 3.70525 1.29171 4.23465 1.25394 4.77663C1.05326 7.66726 1.10559 10.5696 0.906921 13.4612C0.661634 17.033 1.04463 20.6185 0.875879 24.1903C0.77212 26.4047 0.87499 28.6051 0.88171 30.8173L0.949605 31.8887C1.06884 32.9641 1.25495 34.0237 1.33048 35.1029C1.41295 36.281 1.71235 37.4347 1.81029 38.6149C1.86452 39.2863 1.92368 40.4037 2.48204 40.8801C2.76789 41.1241 3.14685 41.1135 3.49971 41.1036C4.00473 41.0898 4.49619 41.1153 4.99921 41.1624C5.73304 41.2291 6.55977 41.4369 7.19073 41.0615C6.88259 40.7811 6.78857 40.3174 6.7274 39.9195Z" fill="url(#paint5_linear_13256_265764)"/>
<path d="M15.1558 40.941C16.1611 40.8694 17.6014 41.1233 18.3342 40.245C18.3351 40.245 18.3351 40.245 18.3351 40.244C17.9125 39.6765 18.0764 38.7866 18.1131 38.1347C18.1869 36.8399 18.2286 35.5391 18.2023 34.2433C18.1325 30.7675 18.4728 27.3026 18.3177 23.8288C18.0967 18.8514 18.0076 13.8925 18.2236 8.91224C18.2974 7.22828 18.402 5.54626 18.4903 3.86423C18.53 3.09279 18.5881 2.34583 18.8537 1.63625C18.4262 1.38821 17.9804 1.16974 17.4851 1.11478C16.9248 1.05292 16.3695 1.20204 15.813 1.23433C14.962 1.28329 13.3986 0.645327 12.8616 1.56272C12.8529 1.57937 12.8422 1.59218 12.8335 1.60884C12.3033 2.64486 12.5843 4.19839 12.4942 5.33254C12.3363 7.3272 12.1764 9.31303 12.1967 11.3166C12.2277 14.1768 12.2819 17.0272 12.2422 19.8885C12.1985 23.0427 12.1743 26.1891 12.2781 29.3423C12.3546 31.6615 12.4428 33.9944 12.3798 36.3144C12.345 37.5563 11.9398 39.0335 12.3711 40.2343C12.4273 40.3902 12.4991 40.5176 12.5815 40.6244C13.1533 41.3448 14.3 41.0028 15.1558 40.941Z" fill="url(#paint6_linear_13256_265764)"/>
<path d="M8.75173 41.1488C9.37788 41.0008 9.96235 40.9468 10.6021 41.0214C11.1555 41.085 11.7178 41.2027 12.2266 40.9008C12.3556 40.8253 12.4709 40.7273 12.5805 40.6244C12.498 40.5176 12.4263 40.3902 12.37 40.2343C11.9387 39.0335 12.3439 37.5563 12.3788 36.3144C12.4417 33.9944 12.3536 31.6615 12.277 29.3423C12.1733 26.1891 12.1975 23.0427 12.2412 19.8885C12.2808 17.0272 12.2266 14.1768 12.1957 11.3166C12.1753 9.31303 12.3352 7.3272 12.4932 5.33254C12.5833 4.19839 12.3022 2.64486 12.8325 1.60884C12.8411 1.59218 12.8519 1.57937 12.8605 1.56272C11.802 1.0766 10.7834 1.37257 9.63381 1.41858C8.78075 1.45291 7.59434 1.0315 6.9702 1.70187C6.87417 1.80487 6.79181 1.93224 6.72492 2.09303C6.48748 2.67229 6.50003 3.35545 6.471 3.97108C6.43806 4.63567 6.40512 5.30025 6.41576 5.96574C6.44478 7.64867 6.36624 9.31303 6.34304 10.9971C6.31402 13.1064 6.47291 15.2129 6.45935 17.3242C6.44098 20.1903 6.58149 23.0564 6.50966 25.9225C6.39246 30.596 6.02414 35.2735 6.72873 39.9196C6.78991 40.3176 6.88392 40.7812 7.19207 41.0616C7.23084 41.0949 7.26871 41.1263 7.3114 41.1547C7.74561 41.4301 8.29523 41.2566 8.75173 41.1488Z" fill="url(#paint7_linear_13256_265764)"/>
<path d="M44.4948 1.88215C44.4948 3.02221 44.5471 5.40689 44.3417 7.37515C44.1371 9.34443 44.5471 10.3295 44.4948 12.3506C44.4444 14.3708 44.3417 18.2591 44.5471 20.9537C44.7516 23.6483 44.4948 31.1635 44.5975 33.2366C44.7013 35.3088 44.2903 37.5377 44.1875 38.7815C44.1284 39.5069 44.0683 40.194 44.2622 40.4597C44.4657 40.343 44.6488 40.1528 44.803 39.8175C45.1616 39.0403 45.5203 38.7296 45.622 37.0191C45.7258 35.3088 46.1358 32.6661 46.1862 29.1934C46.2375 25.7214 45.622 19.3992 45.7258 15.5647C45.8285 11.7292 45.5464 6.61549 45.879 5.04327C46.033 4.31795 45.9294 3.85132 45.622 3.02221C45.4166 2.46731 45.1878 1.91354 44.8602 1.51355C44.645 1.47932 44.4948 1.56658 44.4948 1.88215Z" fill="url(#paint8_radial_13256_265764)"/>
<path d="M43.3667 40.6997C43.6884 40.64 43.9918 40.6145 44.2613 40.4597C44.0675 40.194 44.1275 39.507 44.1867 38.7816C44.2894 37.5377 44.7004 35.3088 44.5967 33.2367C44.4939 31.1636 44.7508 23.6484 44.5462 20.9538C44.3409 18.2592 44.4435 14.3709 44.4939 12.3507C44.5462 10.3295 44.1363 9.34451 44.3409 7.37523C44.5462 5.40697 44.4939 3.02229 44.4939 1.88223C44.4939 1.56666 44.6442 1.47941 44.8593 1.51363C44.6965 1.31657 44.5104 1.1559 44.2894 1.0529C43.6235 0.741283 42.0852 1.0529 41.1121 1.15692C40.138 1.26082 40.138 0.741283 39.729 1.20881C39.6309 1.31759 39.5554 1.43918 39.4982 1.59895C39.312 2.11941 39.3276 3.05458 39.5234 5.35507C39.7794 8.36026 39.9334 21.1097 39.7794 25.6176C39.6262 30.1266 39.472 37.7974 39.2665 39.1442C39.1958 39.608 39.1763 39.9097 39.2026 40.1176C39.252 40.5146 39.4779 40.5626 39.883 40.6997C40.4966 40.9067 42.8025 40.8027 43.3667 40.6997Z" fill="url(#paint9_linear_13256_265764)"/>
<g style="mix-blend-mode:multiply">
<path d="M24.7712 40.8282C25.8082 40.6655 26.7823 40.9909 27.7788 40.6381C27.7798 40.6067 27.7885 40.5645 27.803 40.5165C27.7565 40.4656 27.7167 40.4107 27.6858 40.3449C27.458 39.8559 27.6247 39.157 27.6693 38.6424C27.7167 38.1121 27.7206 37.5828 27.7342 37.0526C27.7817 35.1725 27.9311 33.3003 27.9106 31.4184C27.869 27.5985 27.7856 23.7797 27.678 19.9619C27.5888 16.7664 27.3766 13.5769 27.2942 10.3815C27.2631 9.20816 27.299 8.05259 27.4793 6.89294C27.6227 5.96286 27.7731 5.03935 27.7913 4.09647C27.8069 3.30939 27.5141 2.14192 27.9553 1.40187C27.2883 0.882438 26.5517 0.870655 25.7056 0.92652C24.9426 0.975581 23.9308 0.914849 23.2211 1.21275C23.1969 1.22352 23.1786 1.23825 23.1573 1.25094C22.7987 1.45479 22.7802 1.93909 22.7104 2.32628C22.566 3.12514 22.4351 3.92594 22.4564 4.74236C22.4865 5.94518 22.6193 7.14393 22.6502 8.34664C22.6862 9.74141 22.7094 11.1313 22.7947 12.5242C23.1717 18.7553 23.3444 25.0334 23.3405 31.2753C23.3405 33.0073 23.2028 34.7815 22.9063 36.484C22.7114 37.6063 22.6173 38.6776 22.7221 39.8167C22.7453 40.0783 22.7657 40.3165 22.849 40.5009C22.9343 40.6881 23.0855 40.8166 23.3763 40.8517C23.8407 40.9066 24.3107 40.9007 24.7712 40.8282Z" fill="url(#paint10_linear_13256_265764)"/>
</g>
<g style="mix-blend-mode:multiply">
<path d="M30.774 40.6223C31.656 40.6244 32.8376 41.0683 33.5801 40.4224C33.2593 40.0186 33.2814 39.3521 33.264 38.8658C33.2418 38.2198 33.2447 37.5729 33.2699 36.9271C33.3358 35.1617 33.4676 33.3984 33.5355 31.6339C33.5946 30.0657 33.6634 28.5004 33.7593 26.9349C33.8583 25.3137 34.0395 23.6915 34.0036 22.0663C33.9115 17.9006 33.1225 13.771 33.0838 9.60816C33.0605 7.23798 33.0294 4.82383 33.1613 2.45467C33.1778 2.1664 33.1846 1.75767 33.3203 1.4617C32.8328 0.920633 32.2511 0.644256 31.3884 0.693318C30.8262 0.725616 30.2757 0.768677 29.7115 0.755986C29.2367 0.746243 28.7345 0.732411 28.3225 1.01174C28.1636 1.11972 28.0473 1.25298 27.9572 1.40187C27.5161 2.14192 27.8089 3.30939 27.7933 4.09647C27.775 5.03935 27.6247 5.96286 27.4812 6.89294C27.3009 8.05259 27.2651 9.20816 27.2961 10.3815C27.3786 13.5769 27.5907 16.7664 27.68 19.9618C27.7876 23.7797 27.871 27.5985 27.9125 31.4184C27.933 33.3003 27.7837 35.1725 27.7362 37.0526C27.7226 37.5828 27.7187 38.1121 27.6713 38.6424C27.6267 39.157 27.4599 39.8559 27.6878 40.3449C27.7187 40.4107 27.7585 40.4656 27.805 40.5165C28.3817 41.1557 30.0664 40.6204 30.774 40.6223Z" fill="url(#paint11_linear_13256_265764)"/>
</g>
<g style="mix-blend-mode:multiply">
<path d="M21.2368 40.4596C21.6363 40.4763 22.0394 40.637 22.4369 40.6095C22.5841 40.5988 22.7199 40.5585 22.8488 40.5008C22.7654 40.3164 22.745 40.0782 22.7218 39.8166C22.617 38.6775 22.7112 37.6062 22.906 36.4839C23.2025 34.7814 23.3402 33.0072 23.3402 31.2752C23.3442 25.0333 23.1715 18.7552 22.7944 12.5241C22.7092 11.1312 22.686 9.74131 22.65 8.34654C22.6191 7.14383 22.4863 5.94509 22.4561 4.74226C22.4348 3.92584 22.5657 3.12505 22.7102 2.32618C22.78 1.93899 22.7985 1.45469 23.157 1.25084C23.0126 1.14603 22.8323 1.11169 22.5647 1.10478C22.2129 1.09594 21.8581 1.10387 21.5063 1.10387C20.7561 1.10387 19.7237 0.918608 19.0327 1.21753C18.9619 1.35577 18.9037 1.49492 18.8514 1.6361C18.5858 2.34568 18.5277 3.09264 18.488 3.86408C18.3997 5.54611 18.295 7.22813 18.2213 8.91209C18.0053 13.8923 18.0944 18.8513 18.3154 23.8287C18.4705 27.3024 18.1302 30.7673 18.2 34.2431C18.2262 35.539 18.1846 36.8397 18.1108 38.1345C18.0741 38.7864 17.9101 39.6764 18.3328 40.2439C18.3396 40.2518 18.3436 40.2616 18.3513 40.2714C18.9823 41.0682 20.3984 40.4234 21.2368 40.4596Z" fill="url(#paint12_linear_13256_265764)"/>
</g>
<g style="mix-blend-mode:multiply">
<path d="M36.7055 40.8333C37.255 40.8 37.8396 40.8755 38.3814 40.7969C38.8147 40.7342 39.0241 40.4616 39.2043 40.1177C39.1781 39.9098 39.1976 39.608 39.2683 39.1443C39.4738 37.7975 39.628 30.1266 39.7812 25.6177C39.9351 21.1098 39.7812 8.36034 39.5251 5.35516C39.3294 3.05466 39.3138 2.11949 39.4999 1.59903C39.2499 1.23439 38.9252 0.951103 38.4929 0.869743C37.9781 0.773652 37.4305 0.9894 36.9081 0.97071C36.375 0.95303 35.9359 0.928556 35.4105 1.04719C34.8484 1.17071 34.3142 1.00504 33.7754 1.09127C33.5456 1.12855 33.407 1.27268 33.3199 1.46181C33.1842 1.75778 33.1773 2.16651 33.1609 2.45478C33.029 4.82394 33.06 7.23808 33.0833 9.60826C33.1221 13.7711 33.911 17.9007 34.0032 22.0664C34.039 23.6916 33.8578 25.3138 33.7589 26.9351C33.663 28.5005 33.5942 30.0658 33.535 31.6341C33.4671 33.3985 33.3353 35.1618 33.2694 36.9272C33.2442 37.5731 33.2413 38.22 33.2635 38.866C33.281 39.3522 33.2588 40.0187 33.5796 40.4226C33.5834 40.4274 33.5873 40.4352 33.5922 40.4402C33.9363 40.8528 34.5886 40.7763 35.0674 40.799C35.6161 40.8263 36.1559 40.8666 36.7055 40.8333Z" fill="url(#paint13_linear_13256_265764)"/>
</g>
<g style="mix-blend-mode:multiply">
<path d="M6.72837 39.9197C6.02379 35.2737 6.3921 30.5962 6.50931 25.9227C6.58114 23.0565 6.44062 20.1905 6.459 17.3243C6.47256 15.2131 6.31366 13.1066 6.34269 10.9972C6.36588 9.31316 6.44443 7.6488 6.41541 5.96587C6.40476 5.30038 6.43771 4.63579 6.47065 3.97121C6.49967 3.35558 6.48712 2.67241 6.72456 2.09315C6.79146 1.93236 6.87382 1.80499 6.96985 1.702C6.8234 1.51581 6.65184 1.34619 6.42314 1.29225C6.14973 1.22958 5.81917 1.29134 5.54117 1.29134C4.83445 1.29225 4.13076 1.34619 3.42998 1.42664C2.83969 1.4952 1.78896 1.61769 1.57182 2.29315C1.48362 2.56465 1.51174 2.88805 1.46804 3.17031C1.3867 3.70549 1.29269 4.23489 1.25492 4.77687C1.05424 7.6675 1.10657 10.5698 0.907897 13.4615C0.66261 17.0332 1.0456 20.6188 0.876856 24.1906C0.773097 26.4049 0.875967 28.6054 0.882686 30.8176L0.950582 31.889C1.06981 32.9643 1.25593 34.0239 1.33146 35.1031C1.41393 36.2812 1.71333 37.435 1.81127 38.6152C1.8655 39.2865 1.92466 40.4039 2.48302 40.8803C2.76887 41.1244 3.14783 41.1137 3.50069 41.1039C4.00571 41.09 4.49717 41.1155 5.00018 41.1627C5.73402 41.2293 6.56075 41.4371 7.19171 41.0617C6.88356 40.7814 6.78955 40.3177 6.72837 39.9197Z" fill="url(#paint14_linear_13256_265764)"/>
</g>
<g style="mix-blend-mode:multiply">
<path d="M15.1549 40.941C16.1601 40.8694 17.6004 41.1233 18.3332 40.245C18.3341 40.245 18.3341 40.245 18.3341 40.244C17.9115 39.6765 18.0754 38.7866 18.1122 38.1347C18.1859 36.8399 18.2276 35.5391 18.2014 34.2433C18.1316 30.7675 18.4719 27.3026 18.3168 23.8288C18.0957 18.8514 18.0066 13.8925 18.2226 8.91224C18.2964 7.22828 18.401 5.54626 18.4893 3.86423C18.529 3.09279 18.5872 2.34583 18.8527 1.63625C18.4252 1.38821 17.9794 1.16974 17.4841 1.11478C16.9238 1.05292 16.3685 1.20204 15.8121 1.23433C14.961 1.28329 13.3976 0.645327 12.8606 1.56272C12.8519 1.57937 12.8412 1.59218 12.8326 1.60884C12.3023 2.64486 12.5834 4.19839 12.4933 5.33254C12.3353 7.3272 12.1754 9.31303 12.1958 11.3166C12.2267 14.1768 12.2809 17.0272 12.2413 19.8885C12.1976 23.0427 12.1734 26.1891 12.2771 29.3423C12.3536 31.6615 12.4418 33.9944 12.3789 36.3144C12.344 37.5563 11.9388 39.0335 12.3701 40.2343C12.4264 40.3902 12.4981 40.5176 12.5806 40.6244C13.1524 41.3448 14.299 41.0028 15.1549 40.941Z" fill="url(#paint15_linear_13256_265764)"/>
</g>
<g style="mix-blend-mode:multiply">
<path d="M8.75075 41.1485C9.37691 41.0005 9.96137 40.9464 10.6011 41.021C11.1545 41.0847 11.7168 41.2023 12.2256 40.9004C12.3546 40.825 12.4699 40.7269 12.5795 40.6241C12.497 40.5172 12.4253 40.3898 12.3691 40.2339C11.9378 39.0331 12.343 37.556 12.3778 36.3141C12.4408 33.9941 12.3526 31.6612 12.2761 29.342C12.1723 26.1887 12.1965 23.0423 12.2402 19.8881C12.2799 17.0268 12.2256 14.1764 12.1947 11.3163C12.1743 9.31266 12.3342 7.32684 12.4922 5.33218C12.5823 4.19802 12.3013 2.6445 12.8315 1.60847C12.8401 1.59181 12.8509 1.57901 12.8595 1.56235C11.8011 1.07623 10.7824 1.37221 9.63284 1.41822C8.77978 1.45255 7.59336 1.03113 6.96923 1.7015C6.8732 1.8045 6.79084 1.93187 6.72394 2.09266C6.4865 2.67192 6.49905 3.35508 6.47003 3.97071C6.43709 4.6353 6.40414 5.29989 6.41478 5.96537C6.44381 7.64831 6.36526 9.31266 6.34207 10.9967C6.31304 13.1061 6.47193 15.2126 6.45838 17.3238C6.44 20.19 6.58051 23.056 6.50869 25.9222C6.39148 30.5957 6.02316 35.2732 6.72775 39.9192C6.78893 40.3172 6.88294 40.7809 7.19109 41.0612C7.22987 41.0945 7.26773 41.1259 7.31042 41.1544C7.74464 41.4297 8.29426 41.2562 8.75075 41.1485Z" fill="url(#paint16_linear_13256_265764)"/>
</g>
<g style="mix-blend-mode:multiply">
<path d="M43.3677 40.6997C43.6894 40.64 43.9928 40.6145 44.2623 40.4597C44.0684 40.194 44.1285 39.507 44.1877 38.7816C44.2904 37.5377 44.7014 35.3088 44.5976 33.2367C44.4949 31.1636 44.7517 23.6484 44.5472 20.9538C44.3418 18.2592 44.4445 14.3709 44.4949 12.3507C44.5472 10.3295 44.1372 9.34451 44.3418 7.37523C44.5472 5.40697 44.4949 3.02229 44.4949 1.88223C44.4949 1.56666 44.6452 1.47941 44.8603 1.51363C44.6975 1.31657 44.5114 1.1559 44.2904 1.0529C43.6245 0.741283 42.0862 1.0529 41.113 1.15692C40.139 1.26082 40.139 0.741283 39.73 1.20881C39.6319 1.31759 39.5564 1.43918 39.4991 1.59895C39.313 2.11941 39.3286 3.05458 39.5243 5.35507C39.7804 8.36026 39.9344 21.1097 39.7804 25.6176C39.6272 30.1266 39.473 37.7974 39.2675 39.1442C39.1968 39.608 39.1773 39.9097 39.2035 40.1176C39.253 40.5146 39.4789 40.5626 39.8839 40.6997C40.4975 40.9067 42.8035 40.8027 43.3677 40.6997Z" fill="url(#paint17_linear_13256_265764)"/>
</g>
<path opacity="0.3" d="M24.7722 40.8282C25.8092 40.6655 26.7833 40.9909 27.7798 40.6381C27.7808 40.6067 27.7895 40.5645 27.804 40.5165C27.7575 40.4656 27.7177 40.4107 27.6868 40.3449C27.459 39.8559 27.6257 39.157 27.6703 38.6424C27.7177 38.1121 27.7216 37.5828 27.7352 37.0526C27.7827 35.1725 27.932 33.3003 27.9115 31.4184C27.87 27.5985 27.7866 23.7797 27.679 19.9619C27.5897 16.7664 27.3776 13.5769 27.2951 10.3815C27.2641 9.20816 27.3 8.05259 27.4802 6.89294C27.6237 5.96286 27.7741 5.03935 27.7923 4.09647C27.8079 3.30939 27.5151 2.14192 27.9562 1.40187C27.2893 0.882438 26.5527 0.870655 25.7066 0.92652C24.9436 0.975581 23.9318 0.914849 23.2221 1.21275C23.1979 1.22352 23.1795 1.23825 23.1582 1.25094C22.7997 1.45479 22.7812 1.93909 22.7114 2.32628C22.5669 3.12514 22.4361 3.92594 22.4574 4.74236C22.4875 5.94518 22.6203 7.14393 22.6512 8.34664C22.6872 9.74141 22.7104 11.1313 22.7956 12.5242C23.1727 18.7553 23.3454 25.0334 23.3415 31.2753C23.3415 33.0073 23.2037 34.7815 22.9072 36.484C22.7124 37.6063 22.6183 38.6776 22.723 39.8167C22.7462 40.0783 22.7666 40.3165 22.85 40.5009C22.9353 40.6881 23.0864 40.8166 23.3773 40.8517C23.8417 40.9066 24.3117 40.9007 24.7722 40.8282ZM24.6499 39.5873C24.0422 38.9052 23.9791 37.9993 24.0064 37.1162C24.0481 35.7528 24.0694 34.3874 24.0819 33.0219C24.1139 29.802 24.0829 26.5771 23.8881 23.3611C23.7825 21.6204 23.5652 19.8815 23.511 18.1387C23.4645 16.587 23.5091 15.0325 23.4247 13.4828C23.3531 12.188 23.2581 10.8961 23.1785 9.60318C23.0526 8.79751 22.9237 7.97894 22.9848 7.17135C22.9992 6.9684 23.0215 6.76353 23.0438 6.55776C23.0265 5.74315 23.0283 4.92762 23.0612 4.1112C23.0924 3.33387 24.051 2.97025 24.5646 3.3495C24.5957 3.129 24.6276 2.90849 24.6655 2.68888C24.7507 2.19484 25.3498 1.91065 25.7946 2.04096C27.2409 2.46736 27.2728 4.21998 27.1865 5.47663C27.0567 7.39775 27.1604 9.28272 27.2641 11.2059C27.5385 16.2381 27.5025 21.3224 27.425 26.3606C27.4231 26.487 27.3969 26.5977 27.3581 26.6978C27.4464 28.5846 27.4842 30.4754 27.4569 32.3643C27.4338 34.106 27.5278 35.9028 27.3349 37.6347C27.2641 38.2651 27.1613 39.1462 26.6515 39.5961C26.1039 40.0793 25.1869 40.19 24.6499 39.5873Z" fill="url(#paint18_linear_13256_265764)"/>
<path opacity="0.3" d="M30.773 40.6223C31.655 40.6244 32.8366 41.0683 33.5791 40.4224C33.2583 40.0186 33.2805 39.3521 33.263 38.8658C33.2408 38.2198 33.2437 37.5729 33.2689 36.9271C33.3348 35.1617 33.4666 33.3984 33.5345 31.6339C33.5936 30.0657 33.6625 28.5004 33.7584 26.9349C33.8573 25.3137 34.0385 23.6915 34.0026 22.0663C33.9105 17.9006 33.1216 13.771 33.0828 9.60816C33.0595 7.23798 33.0284 4.82383 33.1603 2.45467C33.1768 2.1664 33.1836 1.75767 33.3193 1.4617C32.8318 0.920633 32.2501 0.644256 31.3874 0.693318C30.8253 0.725616 30.2748 0.768677 29.7106 0.755986C29.2357 0.746243 28.7336 0.732411 28.3216 1.01174C28.1627 1.11972 28.0463 1.25298 27.9563 1.40187C27.5151 2.14192 27.8079 3.30939 27.7923 4.09647C27.7741 5.03935 27.6237 5.96286 27.4803 6.89294C27.3 8.05259 27.2641 9.20816 27.2951 10.3815C27.3776 13.5769 27.5897 16.7664 27.679 19.9618C27.7866 23.7797 27.87 27.5985 27.9115 31.4184C27.932 33.3003 27.7827 35.1725 27.7352 37.0526C27.7216 37.5828 27.7177 38.1121 27.6703 38.6424C27.6257 39.157 27.459 39.8559 27.6868 40.3449C27.7177 40.4107 27.7575 40.4656 27.804 40.5165C28.3807 41.1557 30.0654 40.6204 30.773 40.6223ZM31.6948 40.1862C30.3445 39.0844 30.6392 36.6143 30.7002 35.0666C30.7836 32.9003 31.0627 30.7067 30.9755 28.5366C30.7352 30.2999 30.5626 32.079 30.4357 33.8433C30.3193 35.4558 30.4463 37.3613 29.5817 38.7933C29.4556 39.0031 29.1339 39.0707 28.9614 38.8747C28.2829 38.1013 28.4011 37.0112 28.4699 36.0498C28.5882 34.4109 28.5524 32.7525 28.6231 31.1105C28.7792 27.4966 28.7704 23.8817 28.5358 20.2716C28.2984 16.5998 27.8001 12.9301 28.0105 9.24249C28.0919 7.81236 28.1239 6.36558 28.2392 4.93941C28.3285 3.84662 28.4951 2.76742 29.1048 1.83507C29.2696 1.58419 29.6243 1.57241 29.7862 1.83507C30.6343 3.20945 30.1216 5.18541 30.1061 6.70971C30.0848 8.89451 30.1991 11.0696 30.2718 13.2524C30.3348 15.151 30.3988 17.0419 30.3813 18.9415C30.3698 20.2805 30.3435 21.6782 30.641 22.9946C31.5513 19.8707 30.5985 16.2381 30.4676 13.0848C30.3319 9.81394 29.7939 6.24705 30.9774 3.10645C31.0879 2.81342 31.3991 2.72617 31.6385 2.93002C32.7697 3.89557 32.4973 6.20886 32.4354 7.51038C32.3937 8.37508 32.3121 9.24057 32.2987 10.104C32.2783 11.4842 32.5361 12.8888 32.7639 14.2454C33.2815 17.33 33.9357 20.3452 33.6982 23.4944C33.5489 25.4852 33.2272 27.4535 32.9363 29.4266C32.9005 31.2606 32.8221 33.0935 32.8473 34.9294C32.8715 36.6096 33.3047 38.616 32.3141 40.1058C32.1628 40.3361 31.8993 40.3548 31.6948 40.1862Z" fill="url(#paint19_linear_13256_265764)"/>
<g style="mix-blend-mode:multiply" opacity="0.3">
<path d="M21.2368 40.4599C21.6363 40.4765 22.0394 40.6372 22.4369 40.6098C22.5841 40.599 22.7199 40.5588 22.8488 40.501C22.7654 40.3166 22.745 40.0784 22.7218 39.8168C22.617 38.6778 22.7112 37.6064 22.906 36.4841C23.1056 35.3324 23.2316 34.1483 23.2946 32.9671C23.2675 33.1417 23.2423 33.3152 23.2152 33.4897C23.0213 34.7031 22.6248 35.8411 22.3767 37.0341C22.2556 37.6104 22.1828 38.7033 21.6886 39.1101C21.0837 39.6071 20.4662 39.9119 19.7228 39.5011C18.1458 38.6318 19.0754 35.204 19.1926 33.9033C19.6918 28.3349 19.4736 22.679 19.2488 17.1008C19.1393 14.3691 19.0337 11.6529 19.1083 8.91822C19.1403 7.72039 19.1111 6.55201 19.0792 5.35712C19.055 4.44063 19.1238 3.56235 19.5638 2.7449C19.9593 2.01086 21.011 2.22831 21.2417 2.96643C22.2691 6.26873 21.7932 9.7121 22.1567 13.0968C22.337 14.7709 22.6878 16.4128 23.0737 18.0477C22.997 16.203 22.905 14.3611 22.7944 12.5243C22.7092 11.1315 22.686 9.74156 22.65 8.34679C22.6191 7.14407 22.4863 5.94533 22.4561 4.7425C22.4348 3.92608 22.5657 3.12529 22.7102 2.32643C22.78 1.93924 22.7985 1.45494 23.157 1.25109C23.0126 1.14627 22.8323 1.11193 22.5647 1.10503C22.2129 1.09618 21.8581 1.10412 21.5063 1.10412C20.7561 1.10412 19.7237 0.918853 19.0327 1.21778C18.9619 1.35601 18.9037 1.49516 18.8514 1.63635C18.5858 2.34592 18.5277 3.09288 18.488 3.86432C18.3997 5.54636 18.295 7.22837 18.2213 8.91233C18.0053 13.8926 18.0944 18.8515 18.3154 23.8289C18.4705 27.3027 18.1302 30.7676 18.2 34.2434C18.2262 35.5392 18.1846 36.8399 18.1108 38.1348C18.0741 38.7867 17.9101 39.6766 18.3328 40.2441C18.3397 40.252 18.3436 40.2618 18.3513 40.2717C18.9823 41.0685 20.3984 40.4236 21.2368 40.4599Z" fill="url(#paint20_linear_13256_265764)"/>
</g>
<path opacity="0.3" d="M36.7055 40.8331C37.255 40.7998 37.8396 40.8752 38.3814 40.7967C38.8147 40.7339 39.0241 40.4614 39.2043 40.1175C39.1781 39.9096 39.1976 39.6078 39.2683 39.144C39.4738 37.7973 39.628 30.1264 39.7812 25.6174C39.8955 22.276 39.8402 14.409 39.6996 9.33551C39.7093 10.9293 39.5282 12.5348 39.4224 14.1207C39.2208 17.1476 39.2945 20.2009 39.2354 23.2336C39.1928 25.4684 39.1326 27.7023 39.0483 29.9342C39.0571 29.9627 39.0628 29.9921 39.0657 30.0225C39.2993 32.4141 39.3846 34.8322 39.2072 37.2308C39.1055 38.5815 38.8757 39.5881 37.3675 39.6136C36.1113 39.6342 34.8571 39.6283 34.2687 38.3699C33.5204 36.7701 33.6455 34.7715 33.7773 33.063C33.9915 30.2381 34.3919 27.4417 34.3909 24.6029C34.3909 21.7888 34.2716 18.9776 34.1311 16.1683C33.9934 13.4287 33.8752 10.7214 33.9711 7.9788C34.0244 6.46538 33.5456 4.68738 34.2977 3.28671C34.3957 3.10541 34.6643 3.02302 34.8387 3.1436C35.4124 3.5386 35.9883 4.0365 36.6794 4.20126C37.1223 4.30698 37.5769 4.34041 38.0121 4.48058C38.7022 4.70596 39.1511 5.39502 39.3256 6.07728C39.5251 6.86153 39.6299 7.65642 39.6735 8.45426C39.6299 7.09087 39.5804 5.99887 39.5251 5.35491C39.3294 3.05441 39.3138 2.11924 39.4999 1.59879C39.2499 1.23414 38.9252 0.950858 38.4929 0.869499C37.9781 0.773408 37.4305 0.989156 36.9081 0.970466C36.375 0.952786 35.9359 0.928312 35.4105 1.04695C34.8484 1.17046 34.3142 1.0048 33.7754 1.09102C33.5456 1.12831 33.407 1.27244 33.3199 1.46156C33.1842 1.75754 33.1773 2.16626 33.1609 2.45453C33.029 4.82369 33.06 7.23784 33.0833 9.60802C33.1221 13.7708 33.911 17.9004 34.0032 22.0662C34.039 23.6913 33.8578 25.3135 33.7589 26.9348C33.663 28.5002 33.5942 30.0656 33.535 31.6338C33.4671 33.3982 33.3353 35.1616 33.2694 36.9269C33.2442 37.5728 33.2413 38.2197 33.2635 38.8657C33.281 39.3519 33.2588 40.0185 33.5796 40.4223C33.5834 40.4272 33.5873 40.435 33.5922 40.44C33.9363 40.8526 34.5886 40.7761 35.0674 40.7987C35.6161 40.826 36.1559 40.8664 36.7055 40.8331Z" fill="url(#paint21_linear_13256_265764)"/>
<path opacity="0.2" d="M7.19073 41.0615C6.88259 40.7811 6.78857 40.3174 6.7274 39.9195C6.7032 39.7587 6.68382 39.598 6.66151 39.4383C6.50453 39.5382 6.33689 39.6275 6.1566 39.696C4.01638 40.5312 3.05486 38.1219 2.79019 36.4487C2.35991 33.7198 2.50435 30.9625 2.3821 28.212C2.25805 25.4176 2.01579 22.6309 1.82676 19.8402C1.62708 16.9193 1.46707 13.9827 1.59997 11.0538C1.66193 9.67076 2.26007 9.08073 2.38501 7.70352C2.46064 6.8752 2.09535 5.23532 2.44125 4.46886C2.77663 3.72791 3.50072 3.12894 4.35468 3.31034C5.25804 3.50139 5.73976 4.28167 6.25543 4.97958C6.31168 5.05799 6.36401 5.14025 6.41925 5.21867C6.42989 4.80315 6.44827 4.38648 6.46967 3.97096C6.4987 3.35533 6.48615 2.67217 6.72359 2.09291C6.79048 1.93212 6.87284 1.80475 6.96887 1.70175C6.82242 1.51557 6.65087 1.34594 6.42217 1.29201C6.14875 1.22934 5.8182 1.2911 5.54019 1.2911C4.83348 1.29201 4.12979 1.34594 3.429 1.42639C2.83871 1.49495 1.78799 1.61744 1.57084 2.29291C1.48264 2.56441 1.51077 2.8878 1.46707 3.17007C1.38572 3.70525 1.29171 4.23465 1.25394 4.77663C1.05326 7.66726 1.10559 10.5696 0.906921 13.4612C0.661634 17.033 1.04463 20.6185 0.875879 24.1903C0.77212 26.4047 0.87499 28.6051 0.88171 30.8173L0.949605 31.8887C1.06884 32.9641 1.25495 34.0237 1.33048 35.1029C1.41295 36.281 1.71235 37.4347 1.81029 38.6149C1.86452 39.2863 1.92368 40.4037 2.48204 40.8801C2.76789 41.1241 3.14685 41.1135 3.49971 41.1036C4.00473 41.0898 4.49619 41.1153 4.99921 41.1624C5.73304 41.2291 6.55977 41.4369 7.19073 41.0615Z" fill="url(#paint22_linear_13256_265764)"/>
<path opacity="0.2" d="M15.1558 40.941C16.1611 40.8694 17.6014 41.1233 18.3342 40.245C18.3351 40.245 18.3351 40.245 18.3351 40.244C17.9125 39.6765 18.0764 38.7866 18.1131 38.1347C18.1869 36.8399 18.2286 35.5391 18.2023 34.2433C18.1442 31.3615 18.3642 28.4886 18.3555 25.6107C18.115 27.1204 17.8602 28.6288 17.8602 30.1618C17.8602 31.8615 17.928 33.5759 17.8602 35.2756C17.8107 36.4693 18.0105 37.5839 17.5297 38.7139C17.2874 39.2835 16.4741 39.2767 16.0875 38.9022C16.0458 38.862 16.0059 38.8208 15.9701 38.7777C15.9284 38.8699 15.8828 38.961 15.8305 39.0492C15.3488 39.8736 14.0858 40.2294 13.5527 39.1983C13.2609 38.6327 13.2686 38.0455 13.3365 37.4251C13.4296 36.5732 13.4743 35.7381 13.4771 34.8785C13.4848 32.8603 13.4014 30.843 13.353 28.8268C13.1494 20.3824 12.8946 11.9361 12.9489 3.48882C12.9566 2.29098 14.7788 2.29098 14.7847 3.48882C14.8012 6.70376 15.0832 9.91789 15.186 13.1329C15.2306 14.5357 15.3197 15.9313 15.4854 17.3242C15.4931 17.0008 15.4893 16.6802 15.4835 16.3685C15.4583 14.9345 15.3479 13.5044 15.3401 12.0704C15.3304 10.064 15.3721 8.0497 15.3409 6.04518C15.3227 4.85822 15.1278 3.51624 15.8073 2.46741C16.1882 1.88124 17.0179 1.85676 17.392 2.46741C18.1694 3.73086 18.1364 5.30207 18.0133 6.73423C17.864 8.49366 17.804 10.2257 17.8786 11.993C17.9212 12.9976 17.9988 13.9838 18.1026 14.9678C18.1006 12.9506 18.1364 10.9334 18.2236 8.91224C18.2974 7.22828 18.402 5.54626 18.4903 3.86423C18.53 3.09279 18.5881 2.34583 18.8537 1.63625C18.4262 1.38821 17.9804 1.16974 17.4851 1.11478C16.9248 1.05292 16.3695 1.20204 15.813 1.23433C14.962 1.28329 13.3986 0.645327 12.8616 1.56272C12.8529 1.57937 12.8422 1.59218 12.8335 1.60884C12.3033 2.64486 12.5843 4.19839 12.4942 5.33254C12.3363 7.3272 12.1764 9.31303 12.1967 11.3166C12.2277 14.1768 12.2819 17.0272 12.2422 19.8885C12.1985 23.0427 12.1743 26.1891 12.2781 29.3423C12.3546 31.6615 12.4428 33.9944 12.3798 36.3144C12.345 37.5563 11.9398 39.0335 12.3711 40.2343C12.4273 40.3902 12.4991 40.5176 12.5815 40.6244C13.1533 41.3448 14.3 41.0028 15.1558 40.941Z" fill="url(#paint23_linear_13256_265764)"/>
<path opacity="0.2" d="M8.75173 41.1488C9.37788 41.0008 9.96235 40.9468 10.6021 41.0214C11.1555 41.085 11.7178 41.2027 12.2266 40.9008C12.3556 40.8253 12.4709 40.7273 12.5805 40.6244C12.498 40.5176 12.4263 40.3902 12.37 40.2343C11.9387 39.0335 12.3439 37.5563 12.3788 36.3144C12.4117 35.0921 12.4021 33.8661 12.3749 32.6398C12.3119 33.4553 12.247 34.2718 12.1743 35.0863C12.0599 36.3595 12.2343 40.5597 10.0389 40.349C8.02574 40.1549 7.92299 37.8729 7.84153 36.2645C7.76208 34.7187 7.53047 33.1838 7.46548 31.635C7.39948 30.0393 7.37729 28.4446 7.37527 26.8479C7.37427 23.572 7.39466 20.3021 7.23375 17.0291C7.07486 13.7789 6.84997 10.5002 7.131 7.25174C7.25415 5.83441 7.3356 1.85381 9.53778 2.02141C11.8185 2.19489 11.8302 2.18809 12.0211 3.7652C12.0453 3.96224 12.2374 8.35541 12.2644 8.55349C12.3225 7.47916 12.4078 6.40675 12.4932 5.33254C12.5833 4.19839 12.3022 2.64486 12.8325 1.60884C12.8411 1.59218 12.8519 1.57937 12.8605 1.56272C11.802 1.0766 10.7834 1.37257 9.63381 1.41858C8.78075 1.45291 7.59434 1.0315 6.9702 1.70187C6.87417 1.80487 6.79181 1.93224 6.72492 2.09303C6.48748 2.67229 6.50003 3.35545 6.471 3.97108C6.43806 4.63567 6.40512 5.30025 6.41576 5.96574C6.44478 7.64867 6.36624 9.31303 6.34304 10.9971C6.31402 13.1064 6.47291 15.2129 6.45935 17.3242C6.44098 20.1903 6.58149 23.0564 6.50966 25.9225C6.39246 30.596 6.02414 35.2735 6.72873 39.9196C6.78991 40.3176 6.88392 40.7812 7.19207 41.0616C7.23084 41.0949 7.26871 41.1263 7.3114 41.1547C7.74561 41.4301 8.29523 41.2566 8.75173 41.1488Z" fill="url(#paint24_linear_13256_265764)"/>
<path opacity="0.3" d="M43.3667 40.6997C43.6884 40.64 43.9918 40.6145 44.2613 40.4597C44.0675 40.194 44.1275 39.507 44.1867 38.7816C44.2603 37.8946 44.4881 36.5066 44.5773 35.0313C44.4097 35.6822 44.2351 36.3321 44.0384 36.9701C43.8251 37.6633 43.7825 38.3905 43.4044 39.0228C42.7656 40.0892 40.9813 40.1098 40.4665 38.9287C39.6726 37.1084 40.0865 34.5962 40.2116 32.671C40.3783 30.0746 40.3347 27.5015 40.39 24.9039C40.4442 22.3751 40.735 19.8718 40.8513 17.3477C40.9676 14.854 40.9038 12.3369 40.7341 9.84637C40.5789 7.56933 40.2281 5.30114 40.6798 3.03691C40.7437 2.71645 41.1305 2.68495 41.3399 2.8615C42.2336 3.60834 43.5082 3.66035 43.765 5.04142C44.1159 6.93308 43.8969 8.88581 44.0462 10.8019C44.1672 12.3566 44.2992 13.9122 44.432 15.4657C44.4454 14.2621 44.4745 13.1564 44.4939 12.3507C44.5462 10.3295 44.1363 9.34451 44.3409 7.37523C44.5462 5.40697 44.4939 3.02229 44.4939 1.88223C44.4939 1.56666 44.6442 1.47941 44.8593 1.51363C44.6965 1.31657 44.5104 1.1559 44.2894 1.0529C43.6235 0.741283 42.0852 1.0529 41.1121 1.15692C40.138 1.26082 40.138 0.741283 39.729 1.20881C39.6309 1.31759 39.5554 1.43918 39.4982 1.59895C39.312 2.11941 39.3276 3.05458 39.5234 5.35507C39.7794 8.36026 39.9334 21.1097 39.7794 25.6176C39.6262 30.1266 39.472 37.7974 39.2665 39.1442C39.1958 39.608 39.1763 39.9097 39.2026 40.1176C39.252 40.5146 39.4779 40.5626 39.883 40.6997C40.4966 40.9067 42.8025 40.8027 43.3667 40.6997Z" fill="url(#paint25_linear_13256_265764)"/>
<path d="M51.1745 19.4511C51.1745 19.4511 53.9079 20.9715 55.8891 26.0851C57.8704 31.1988 61.4238 37.7632 61.4238 37.7632C61.4238 37.7632 61.3036 36.9153 62.3291 36.3459C63.3546 35.7764 63.1491 35.2058 63.56 34.2208C63.9691 33.2367 64.8395 32.8739 66.0705 32.6661C67.2995 32.4583 66.8391 31.4742 67.0437 30.8008C67.2491 30.1265 66.5824 28.8836 67.761 27.381C68.9397 25.8764 70.3751 25.8254 70.5797 24.063C70.7851 22.3006 70.7851 19.9178 71.6575 18.9326C72.5279 17.9486 71.5024 17.4301 71.1952 16.6528C70.8878 15.8754 69.1965 13.3877 69.1965 11.6773C69.1965 9.9668 69.2478 9.34448 68.1197 8.72307C66.9933 8.10052 66.532 7.89372 66.685 7.1684C66.8391 6.44308 66.941 6.28717 65.9678 4.99142C64.9946 3.69648 63.5426 2.38306 63.5426 2.38306C63.5426 2.38306 55.2058 8.10052 50.7471 17.0674C50.7471 17.0674 51.2937 18.6229 51.1745 19.4511Z" fill="url(#paint26_radial_13256_265764)"/>
<g style="mix-blend-mode:lighten">
<path d="M61.9701 36.5879C62.6543 35.5518 63.269 36.3801 62.8579 34.5147C62.449 32.6495 62.1755 31.3369 63.4046 30.5754C64.6355 29.8167 65.8647 30.0922 65.5914 28.3651C65.318 26.6369 64.7035 26.6369 66.138 25.3245C67.5726 24.011 68.5981 23.5974 68.5981 23.3897C68.5981 23.1828 67.1635 23.5974 67.2314 22.975C67.2992 22.3536 68.4624 21.5929 68.3926 21.04C68.3247 20.4882 65.7967 18.0692 65.2502 16.4793C64.7035 14.8904 64.2934 15.305 65.729 14.4062C67.1635 13.5083 68.5302 13.2318 68.666 12.5408C68.8035 11.8498 67.9836 11.4352 66.4802 10.053C64.9769 8.67106 63.8155 7.97894 64.6355 7.28988C65.4557 6.59889 66.0014 6.73622 65.5236 5.63051C65.0447 4.5248 63.5422 2.38306 63.5422 2.38306C63.5422 2.38306 55.3644 6.92625 50.6934 16.8174C51.0946 17.4663 51.2634 18.2857 51.3718 19.0219C51.4204 19.3463 51.4542 19.6727 51.4843 20.0021C51.9961 20.4127 52.6775 21.1685 53.4966 22.5604C55.4099 25.8087 60.6722 37.1408 61.4234 37.7632C62.1755 38.3846 61.2867 37.6239 61.9701 36.5879Z" fill="url(#paint27_radial_13256_265764)"/>
</g>
<g style="mix-blend-mode:multiply" opacity="0.8">
<path d="M53.3415 21.5538C53.1921 21.3371 53.4849 21.0451 53.698 21.192C55.8044 22.6388 57.6199 24.4296 59.4808 26.1714C59.2075 25.8499 58.9361 25.5274 58.6531 25.2138C57.9882 24.4708 57.2418 23.8081 56.5963 23.0505C55.8015 22.3633 55.0318 21.6488 54.2612 20.9333C53.8551 20.5539 52.0387 19.4571 52.8897 18.771C53.2521 18.4769 54.1953 18.7142 54.5995 18.7328C55.5629 18.7778 56.5225 18.8416 57.4822 18.9503C59.006 19.1248 60.5326 19.3306 62.0621 19.3257C60.4482 19.0808 58.8547 18.6887 57.2205 18.5827C55.5524 18.4729 53.9171 18.3515 52.2674 18.1161C52.0871 18.0916 52.0465 17.931 52.0988 17.7957C52.0707 17.7192 52.0717 17.6281 52.1113 17.5556C52.909 16.0597 55.0754 15.1571 56.4683 14.3768C58.1394 13.4417 59.9025 12.4566 61.2973 11.1059C59.6718 11.84 58.1433 12.7516 56.6002 13.6445C55.088 14.519 53.5276 15.2942 51.9911 16.1206C51.7518 16.2489 51.5152 15.996 51.6336 15.7589C52.0396 14.9345 52.6037 14.2043 52.9991 13.375C53.4131 12.5056 53.8522 11.6636 54.3543 10.8441C54.4125 10.748 54.4696 10.652 54.5269 10.5549C53.1495 12.3439 51.8139 14.4356 50.6846 16.8439C51.0887 17.4929 51.2593 18.3123 51.3698 19.0474C51.4202 19.3708 51.4542 19.6992 51.4852 20.0266C51.9979 20.4363 52.6823 21.191 53.5052 22.58C54.3126 23.9395 55.7123 26.7213 57.1236 29.5375C56.2511 26.7008 55.0144 23.9827 53.3415 21.5538Z" fill="url(#paint28_radial_13256_265764)"/>
</g>
<g style="mix-blend-mode:multiply">
<path d="M45.5873 37.7573C44.9515 37.5622 44.6278 37.0191 44.2885 36.4742C43.7835 35.6596 43.1971 34.903 42.6979 34.0825C40.6033 30.6322 39.1833 26.8516 37.7488 23.0896C37.9455 27.0339 40.3823 30.3392 42.0078 33.8619C42.4526 34.8265 43.2243 36.2732 42.7755 37.3543C42.5457 37.9092 41.9031 37.9729 41.4039 37.7974C40.042 37.317 38.8179 36.2713 37.709 35.1872C37.7488 35.2313 37.7885 35.2764 37.8282 35.3224C38.847 36.4928 39.8647 37.6768 40.7623 38.9473C41.1868 39.5471 41.9515 40.4528 41.8769 41.2565C41.8682 41.3379 41.845 41.4114 41.813 41.479C43.2776 41.4123 44.3835 41.2535 45.8443 39.007C46.1699 38.5051 46.3987 37.97 46.5701 37.4053C46.2736 37.6985 45.9479 37.8681 45.5873 37.7573Z" fill="url(#paint29_radial_13256_265764)"/>
</g>
<g style="mix-blend-mode:multiply">
<path d="M49.6892 17.6074C49.9886 18.2583 47.9745 17.4124 47.8048 17.3389C46.4392 16.7429 45.1209 16.0185 43.793 15.3423C44.8116 15.8618 45.8159 16.6125 46.8617 17.1585C47.7128 17.6025 48.968 18.0632 49.285 19.0807C49.5864 20.0501 48.3806 20.8804 47.7797 21.4164C46.9839 22.131 46.319 23.2544 45.4844 23.8582C45.8363 23.6024 50.0246 20.3627 49.3955 21.4546C48.7577 22.5603 48.9049 24.157 48.2187 25.4029C47.4986 26.7075 47.2544 28.2719 47.0779 29.8051C47.6663 28.3906 48.2973 26.9928 48.8284 25.5519C49.248 24.4159 49.9373 23.4073 50.5111 22.3486C50.8784 20.8882 51.1034 19.8657 51.1034 19.8657L50.5577 17.1017C50.5577 17.1017 50.3404 16.3802 50.0255 15.3383C50.0478 15.5765 50.0623 15.8166 50.0663 16.0636C50.075 16.6165 48.492 14.4012 48.3371 14.0915C47.9532 13.5445 47.5558 13.0055 47.202 12.4468C46.696 11.6439 46.1988 10.8421 45.6395 10.0835C46.4072 11.1235 46.8084 12.732 47.3958 13.9033C48.0501 15.206 49.0699 16.2812 49.6892 17.6074Z" fill="url(#paint30_radial_13256_265764)"/>
</g>
<g style="mix-blend-mode:multiply">
<path d="M14.1376 41.4939C16.8711 41.2174 18.4296 41.0321 20.9023 40.941C23.376 40.8517 27.1222 41.4939 31.357 41.2859C32.8517 41.2144 34.3453 41.2271 35.7257 41.2703C34.6807 41.0008 33.8278 40.744 33.5108 40.6626C30.3111 39.8403 27.129 39.4668 23.8421 39.2139C20.7094 38.9738 17.5302 38.8287 14.408 39.2805C12.6178 39.5403 10.8343 39.903 9.02074 39.9746C7.58523 40.0313 5.61075 40.0804 4.59117 38.8482C4.47386 38.7061 4.50198 38.5415 4.64541 38.4317C6.17885 37.2515 8.09418 36.7614 9.70113 35.7195C8.91317 35.8077 8.12118 35.9126 7.38556 36.1988C6.67895 36.4743 6.01111 36.7438 5.2542 36.5675C5.08454 36.5281 5.01955 36.3224 5.0971 36.1773C5.95879 34.5982 7.54355 33.7523 8.87922 32.6455C9.84556 31.8458 10.8091 31.0431 11.8085 30.2902C10.2411 30.9293 8.70576 31.6615 7.3265 32.6476C5.29768 34.0993 3.95146 36.0028 2.43348 37.9494C2.35202 38.0543 2.14563 38.0533 2.06315 37.9494C1.47386 37.2074 1.29267 36.3047 1.23352 35.3696C1.14823 33.9973 1.06778 32.6261 0.982518 31.2527C0.786636 28.0858 0.720749 24.9344 0.885582 21.7626C1.05322 18.569 1.24998 15.3757 1.49908 12.187C1.61147 10.7598 1.76465 9.31212 1.68228 7.88006C1.63286 6.99985 1.52619 5.99815 2.02147 5.22082C2.10484 5.09243 2.32491 5.0258 2.43348 5.16688C4.70928 8.14272 7.52225 10.5835 10.4602 12.8614C7.42925 9.78849 3.56073 5.36189 5.33756 4.3406C5.88797 4.02298 6.77207 4.44156 7.28089 4.64938C8.20657 5.0258 9.13326 5.44427 10.0375 5.87158C11.9955 6.7969 13.9128 7.81831 15.8543 8.78476C13.5784 7.17729 11.2095 5.68054 8.9897 4.00054C8.59718 3.70445 5.4848 1.75976 6.70517 1.04125C7.54164 0.549236 8.75227 0.543227 9.69339 0.558071C11.0107 0.578586 12.3395 0.646234 13.653 0.764759C16.5434 1.02266 19.4271 1.53427 22.3378 1.42742C24.8367 1.3353 27.3732 1.06085 29.843 0.659945C31.36 0.414959 32.9099 0.112976 34.453 0.160118C36.154 0.211107 38.9931 1.77733 36.785 3.58094C35.9456 4.26705 34.9327 4.63759 33.977 5.10807C34.9318 4.63759 36.4797 4.67 37.5518 4.35918C38.7226 4.02004 39.8723 3.55839 40.9074 2.90072C41.7508 2.36351 42.5785 1.79115 43.5196 1.43727C43.7242 1.35875 43.952 1.64305 43.8143 1.82639C41.9785 4.27783 38.8942 5.24632 36.8577 7.42817C38.6878 6.64891 40.3937 5.58738 42.0619 4.50321C42.9817 3.90638 43.762 3.28984 44.5142 2.4988C44.8156 2.18129 45.1248 1.98028 45.5271 1.95478C45.3478 1.61178 45.1771 1.35093 45.023 1.20883C44.204 0.448278 43.2473 0.378701 39.2848 0.103232C35.3205 -0.174156 26.6434 0.172809 23.5678 0.378701C20.4933 0.587421 16.8711 0.172809 13.3186 0.103232C9.76421 0.033544 2.72617 0.310033 1.97406 0.725666C1.22275 1.14028 0.813753 4.59453 0.470649 7.91236C0.129451 11.2275 -0.280548 23.1828 0.267158 28.8493C0.813753 34.5148 1.63286 40.5274 1.90717 41.1488C2.17957 41.7702 2.38497 41.633 4.70849 41.9085C7.0318 42.1858 11.4052 41.7702 14.1376 41.4939Z" fill="url(#paint31_radial_13256_265764)"/>
</g>
<path d="M50.9003 16.5145C50.9003 16.5145 50.3875 16.2724 50.183 16.7557C49.9775 17.2389 49.9087 19.1748 50.2848 19.9344C50.6599 20.6951 50.7636 20.8323 51.2085 20.7294C51.6516 20.6264 51.7532 20.4882 51.6176 19.6933C51.4809 18.8974 51.3772 17.1704 50.9003 16.5145Z" fill="url(#paint32_radial_13256_265764)"/>
<path d="M49.7518 17.7927C49.7518 17.7787 49.7305 17.7787 49.7305 17.7927C49.7305 17.8088 49.7518 17.8088 49.7518 17.7927Z" fill="white"/>
<g style="mix-blend-mode:multiply" opacity="0.22">
<path d="M50.3636 16.5032C50.3636 16.5032 48.5106 10.261 47.8282 8.18783C47.1438 6.11475 45.846 1.96951 45.025 1.20883C44.206 0.448278 43.2493 0.378701 39.2868 0.103232C35.3224 -0.174156 26.6454 0.172809 23.5697 0.378701C20.4952 0.587421 16.873 0.172809 13.3206 0.103232C9.76616 0.033544 2.72812 0.310033 1.97601 0.725666C1.22471 1.14028 0.815706 4.59453 0.472602 7.91236C0.131404 11.2275 -0.278595 23.1828 0.269111 28.8493C0.815706 34.5148 1.63482 40.5274 1.90912 41.1488C2.18152 41.7702 2.38692 41.633 4.71044 41.9085C7.03375 42.1858 11.4072 41.7702 14.1396 41.4939C16.873 41.2174 18.4316 41.0321 20.9042 40.941C23.3779 40.8517 27.1242 41.4939 31.359 41.2859C35.5967 41.0803 39.8325 41.5634 41.4726 41.4939C43.1126 41.4252 44.2738 41.4242 45.846 39.0071C47.4182 36.588 46.7338 33.4102 48.2382 29.7471C49.7405 26.0851 50.9046 20.7628 50.9046 20.7628C50.9046 20.7628 50.1838 20.301 50.0435 18.8056C49.8633 16.8853 50.3636 16.5032 50.3636 16.5032Z" fill="url(#paint33_radial_13256_265764)"/>
</g>
<defs>
<radialGradient id="paint0_radial_13256_265764" cx="0" cy="0" r="1" gradientUnits="userSpaceOnUse" gradientTransform="translate(25.8278 20.4471) rotate(90) scale(25.9621 25.6733)">
<stop offset="0.438277" stop-color="white"/>
<stop offset="0.74436" stop-color="#C8B69E"/>
<stop offset="0.870772" stop-color="#CAB9A2"/>
<stop offset="0.935666" stop-color="#CDBDA7"/>
</radialGradient>
<linearGradient id="paint1_linear_13256_265764" x1="25.2057" y1="1.52597" x2="25.2057" y2="41.5103" gradientUnits="userSpaceOnUse">
<stop stop-color="#CF7D21"/>
<stop offset="0.081142" stop-color="#CF7E23"/>
<stop offset="0.116934" stop-color="#D1822A"/>
<stop offset="0.143824" stop-color="#D48937"/>
<stop offset="0.166253" stop-color="#D79449"/>
<stop offset="0.185899" stop-color="#DCA160"/>
<stop offset="0.203603" stop-color="#E2B17D"/>
<stop offset="0.219851" stop-color="#E9C49F"/>
<stop offset="0.234542" stop-color="#F1DAC6"/>
<stop offset="0.237999" stop-color="#F3E0D0"/>
<stop offset="0.27866" stop-color="#F3DFCE"/>
<stop offset="0.293876" stop-color="#F3DDC9"/>
<stop offset="0.343226" stop-color="#F2DBC6"/>
<stop offset="0.386085" stop-color="#F1D6BB"/>
<stop offset="0.426522" stop-color="#EECDA9"/>
<stop offset="0.465259" stop-color="#EAC190"/>
<stop offset="0.479432" stop-color="#E8BB85"/>
<stop offset="0.671496" stop-color="#DBA358"/>
<stop offset="0.876694" stop-color="#E8BB85"/>
<stop offset="1" stop-color="#F3DDC5"/>
</linearGradient>
<linearGradient id="paint2_linear_13256_265764" x1="30.6461" y1="0.376801" x2="30.6461" y2="40.5194" gradientUnits="userSpaceOnUse">
<stop stop-color="#CF7D21"/>
<stop offset="0.081142" stop-color="#CF7E23"/>
<stop offset="0.116934" stop-color="#D1822A"/>
<stop offset="0.143824" stop-color="#D48937"/>
<stop offset="0.166253" stop-color="#D79449"/>
<stop offset="0.185899" stop-color="#DCA160"/>
<stop offset="0.203603" stop-color="#E2B17D"/>
<stop offset="0.219851" stop-color="#E9C49F"/>
<stop offset="0.234542" stop-color="#F1DAC6"/>
<stop offset="0.237999" stop-color="#F3E0D0"/>
<stop offset="0.27866" stop-color="#F3DFCE"/>
<stop offset="0.293876" stop-color="#F3DDC9"/>
<stop offset="0.343226" stop-color="#F2DBC6"/>
<stop offset="0.386085" stop-color="#F1D6BB"/>
<stop offset="0.426522" stop-color="#EECDA9"/>
<stop offset="0.465259" stop-color="#EAC190"/>
<stop offset="0.479432" stop-color="#E8BB85"/>
<stop offset="0.671496" stop-color="#DBA358"/>
<stop offset="0.876694" stop-color="#E8BB85"/>
<stop offset="1" stop-color="#F3DDC5"/>
</linearGradient>
<linearGradient id="paint3_linear_13256_265764" x1="20.6945" y1="0.632776" x2="20.6945" y2="40.2574" gradientUnits="userSpaceOnUse">
<stop stop-color="#CF7D21"/>
<stop offset="0.081142" stop-color="#CF7E23"/>
<stop offset="0.116934" stop-color="#D1822A"/>
<stop offset="0.143824" stop-color="#D48937"/>
<stop offset="0.166253" stop-color="#D79449"/>
<stop offset="0.185899" stop-color="#DCA160"/>
<stop offset="0.203603" stop-color="#E2B17D"/>
<stop offset="0.219851" stop-color="#E9C49F"/>
<stop offset="0.234542" stop-color="#F1DAC6"/>
<stop offset="0.237999" stop-color="#F3E0D0"/>
<stop offset="0.27866" stop-color="#F3DFCE"/>
<stop offset="0.293876" stop-color="#F3DDC9"/>
<stop offset="0.343226" stop-color="#F2DBC6"/>
<stop offset="0.386085" stop-color="#F1D6BB"/>
<stop offset="0.426522" stop-color="#EECDA9"/>
<stop offset="0.465259" stop-color="#EAC190"/>
<stop offset="0.479432" stop-color="#E8BB85"/>
<stop offset="0.671496" stop-color="#DBA358"/>
<stop offset="0.876694" stop-color="#E8BB85"/>
<stop offset="1" stop-color="#F3DDC5"/>
</linearGradient>
<linearGradient id="paint4_linear_13256_265764" x1="36.4526" y1="1.25933" x2="36.4526" y2="41.2603" gradientUnits="userSpaceOnUse">
<stop stop-color="#CF7D21"/>
<stop offset="0.081142" stop-color="#CF7E23"/>
<stop offset="0.116934" stop-color="#D1822A"/>
<stop offset="0.143824" stop-color="#D48937"/>
<stop offset="0.166253" stop-color="#D79449"/>
<stop offset="0.185899" stop-color="#DCA160"/>
<stop offset="0.203603" stop-color="#E2B17D"/>
<stop offset="0.219851" stop-color="#E9C49F"/>
<stop offset="0.234542" stop-color="#F1DAC6"/>
<stop offset="0.237999" stop-color="#F3E0D0"/>
<stop offset="0.27866" stop-color="#F3DFCE"/>
<stop offset="0.293876" stop-color="#F3DDC9"/>
<stop offset="0.343226" stop-color="#F2DBC6"/>
<stop offset="0.386085" stop-color="#F1D6BB"/>
<stop offset="0.426522" stop-color="#EECDA9"/>
<stop offset="0.465259" stop-color="#EAC190"/>
<stop offset="0.479432" stop-color="#E8BB85"/>
<stop offset="0.671496" stop-color="#DBA358"/>
<stop offset="0.876694" stop-color="#E8BB85"/>
<stop offset="1" stop-color="#F3DDC5"/>
</linearGradient>
<linearGradient id="paint5_linear_13256_265764" x1="4.00652" y1="1.26392" x2="4.00652" y2="41.28" gradientUnits="userSpaceOnUse">
<stop stop-color="#CF7D21"/>
<stop offset="0.081142" stop-color="#CF7E23"/>
<stop offset="0.116934" stop-color="#D1822A"/>
<stop offset="0.143824" stop-color="#D48937"/>
<stop offset="0.166253" stop-color="#D79449"/>
<stop offset="0.185899" stop-color="#DCA160"/>
<stop offset="0.203603" stop-color="#E2B17D"/>
<stop offset="0.219851" stop-color="#E9C49F"/>
<stop offset="0.234542" stop-color="#F1DAC6"/>
<stop offset="0.237999" stop-color="#F3E0D0"/>
<stop offset="0.27866" stop-color="#F3DFCE"/>
<stop offset="0.293876" stop-color="#F3DDC9"/>
<stop offset="0.343226" stop-color="#F2DBC6"/>
<stop offset="0.386085" stop-color="#F1D6BB"/>
<stop offset="0.426522" stop-color="#EECDA9"/>
<stop offset="0.465259" stop-color="#EAC190"/>
<stop offset="0.479432" stop-color="#E8BB85"/>
<stop offset="0.671496" stop-color="#DBA358"/>
<stop offset="0.876694" stop-color="#E8BB85"/>
<stop offset="1" stop-color="#F3DDC5"/>
</linearGradient>
<linearGradient id="paint6_linear_13256_265764" x1="15.5138" y1="1.58197" x2="15.5138" y2="41.5943" gradientUnits="userSpaceOnUse">
<stop stop-color="#CF7D21"/>
<stop offset="0.081142" stop-color="#CF7E23"/>
<stop offset="0.116934" stop-color="#D1822A"/>
<stop offset="0.143824" stop-color="#D48937"/>
<stop offset="0.166253" stop-color="#D79449"/>
<stop offset="0.185899" stop-color="#DCA160"/>
<stop offset="0.203603" stop-color="#E2B17D"/>
<stop offset="0.219851" stop-color="#E9C49F"/>
<stop offset="0.234542" stop-color="#F1DAC6"/>
<stop offset="0.237999" stop-color="#F3E0D0"/>
<stop offset="0.27866" stop-color="#F3DFCE"/>
<stop offset="0.293876" stop-color="#F3DDC9"/>
<stop offset="0.343226" stop-color="#F2DBC6"/>
<stop offset="0.386085" stop-color="#F1D6BB"/>
<stop offset="0.426522" stop-color="#EECDA9"/>
<stop offset="0.465259" stop-color="#EAC190"/>
<stop offset="0.479432" stop-color="#E8BB85"/>
<stop offset="0.671496" stop-color="#DBA358"/>
<stop offset="0.876694" stop-color="#E8BB85"/>
<stop offset="1" stop-color="#F3DDC5"/>
</linearGradient>
<linearGradient id="paint7_linear_13256_265764" x1="9.62773" y1="1.40308" x2="9.41792" y2="39.1319" gradientUnits="userSpaceOnUse">
<stop stop-color="#CF7D21"/>
<stop offset="0.081142" stop-color="#CF7E23"/>
<stop offset="0.116934" stop-color="#D1822A"/>
<stop offset="0.143824" stop-color="#D48937"/>
<stop offset="0.166253" stop-color="#D79449"/>
<stop offset="0.185899" stop-color="#DCA160"/>
<stop offset="0.203603" stop-color="#E2B17D"/>
<stop offset="0.219851" stop-color="#E9C49F"/>
<stop offset="0.234542" stop-color="#F1DAC6"/>
<stop offset="0.237999" stop-color="#F3E0D0"/>
<stop offset="0.27866" stop-color="#F3DFCE"/>
<stop offset="0.293876" stop-color="#F3DDC9"/>
<stop offset="0.343226" stop-color="#F2DBC6"/>
<stop offset="0.386085" stop-color="#F1D6BB"/>
<stop offset="0.426522" stop-color="#EECDA9"/>
<stop offset="0.465259" stop-color="#EAC190"/>
<stop offset="0.479432" stop-color="#E8BB85"/>
<stop offset="0.671496" stop-color="#DBA358"/>
<stop offset="0.876694" stop-color="#E8BB85"/>
<stop offset="1" stop-color="#F3DDC5"/>
</linearGradient>
<radialGradient id="paint8_radial_13256_265764" cx="0" cy="0" r="1" gradientUnits="userSpaceOnUse" gradientTransform="translate(77.9591 20.9831) rotate(90) scale(37.2206 36.8065)">
<stop offset="0.755263" stop-color="#EFDAB8"/>
<stop offset="0.916033" stop-color="#EFDAB8"/>
<stop offset="0.956016" stop-color="#EBC896"/>
<stop offset="0.995681" stop-color="#E7B979"/>
</radialGradient>
<linearGradient id="paint9_linear_13256_265764" x1="42.0253" y1="0.192411" x2="42.0253" y2="40.0935" gradientUnits="userSpaceOnUse">
<stop stop-color="#CF7D21"/>
<stop offset="0.081142" stop-color="#CF7E23"/>
<stop offset="0.116934" stop-color="#D1822A"/>
<stop offset="0.143824" stop-color="#D48937"/>
<stop offset="0.166253" stop-color="#D79449"/>
<stop offset="0.185899" stop-color="#DCA160"/>
<stop offset="0.203603" stop-color="#E2B17D"/>
<stop offset="0.219851" stop-color="#E9C49F"/>
<stop offset="0.234542" stop-color="#F1DAC6"/>
<stop offset="0.237999" stop-color="#F3E0D0"/>
<stop offset="0.27866" stop-color="#F3DFCE"/>
<stop offset="0.293876" stop-color="#F3DDC9"/>
<stop offset="0.343226" stop-color="#F2DBC6"/>
<stop offset="0.386085" stop-color="#F1D6BB"/>
<stop offset="0.426522" stop-color="#EECDA9"/>
<stop offset="0.465259" stop-color="#EAC190"/>
<stop offset="0.479432" stop-color="#E8BB85"/>
<stop offset="0.671496" stop-color="#DBA358"/>
<stop offset="0.876694" stop-color="#E8BB85"/>
<stop offset="1" stop-color="#F3DDC5"/>
</linearGradient>
<linearGradient id="paint10_linear_13256_265764" x1="27.9552" y1="20.8962" x2="22.454" y2="20.8962" gradientUnits="userSpaceOnUse">
<stop offset="0.0100247" stop-color="#BF6D21"/>
<stop offset="0.417909" stop-color="white"/>
</linearGradient>
<linearGradient id="paint11_linear_13256_265764" x1="34.0082" y1="20.7591" x2="27.2861" y2="20.7591" gradientUnits="userSpaceOnUse">
<stop offset="0.0100247" stop-color="#BF6D21"/>
<stop offset="0.417909" stop-color="white"/>
</linearGradient>
<linearGradient id="paint12_linear_13256_265764" x1="23.3404" y1="20.8595" x2="18.0488" y2="20.8595" gradientUnits="userSpaceOnUse">
<stop offset="0.0100247" stop-color="#BF6D21"/>
<stop offset="0.417909" stop-color="white"/>
</linearGradient>
<linearGradient id="paint13_linear_13256_265764" x1="39.8426" y1="20.8454" x2="33.0625" y2="20.8454" gradientUnits="userSpaceOnUse">
<stop offset="0.0100247" stop-color="#BF6D21"/>
<stop offset="0.417909" stop-color="white"/>
</linearGradient>
<linearGradient id="paint14_linear_13256_265764" x1="7.19181" y1="21.2722" x2="0.823177" y2="21.2722" gradientUnits="userSpaceOnUse">
<stop offset="0.0100247" stop-color="#BF6D21"/>
<stop offset="0.417909" stop-color="white"/>
</linearGradient>
<linearGradient id="paint15_linear_13256_265764" x1="18.8528" y1="21.0699" x2="12.1728" y2="21.0699" gradientUnits="userSpaceOnUse">
<stop offset="0.0100247" stop-color="#BF6D21"/>
<stop offset="0.417909" stop-color="white"/>
</linearGradient>
<linearGradient id="paint16_linear_13256_265764" x1="12.8595" y1="21.2946" x2="6.30757" y2="21.2946" gradientUnits="userSpaceOnUse">
<stop offset="0.0100247" stop-color="#BF6D21"/>
<stop offset="0.417909" stop-color="white"/>
</linearGradient>
<linearGradient id="paint17_linear_13256_265764" x1="44.8604" y1="20.8685" x2="39.1924" y2="20.8685" gradientUnits="userSpaceOnUse">
<stop offset="0.0100247" stop-color="#BF6D21"/>
<stop offset="0.417909" stop-color="white"/>
</linearGradient>
<linearGradient id="paint18_linear_13256_265764" x1="25.2057" y1="1.52597" x2="25.2057" y2="41.5103" gradientUnits="userSpaceOnUse">
<stop stop-color="#CF7D21"/>
<stop offset="0.21562" stop-color="#CF7E23"/>
<stop offset="0.293282" stop-color="#D1822A"/>
<stop offset="0.348629" stop-color="#D48A35"/>
<stop offset="0.393396" stop-color="#D89446"/>
<stop offset="0.431738" stop-color="#DEA25C"/>
<stop offset="0.465075" stop-color="#E4B277"/>
<stop offset="0.479432" stop-color="#E8BB85"/>
<stop offset="0.671496" stop-color="#DBA358"/>
<stop offset="0.876694" stop-color="#E8BB85"/>
<stop offset="1" stop-color="#F3DDC5"/>
</linearGradient>
<linearGradient id="paint19_linear_13256_265764" x1="30.6461" y1="0.376801" x2="30.6461" y2="40.5194" gradientUnits="userSpaceOnUse">
<stop stop-color="#CF7D21"/>
<stop offset="0.21562" stop-color="#CF7E23"/>
<stop offset="0.293282" stop-color="#D1822A"/>
<stop offset="0.348629" stop-color="#D48A35"/>
<stop offset="0.393396" stop-color="#D89446"/>
<stop offset="0.431738" stop-color="#DEA25C"/>
<stop offset="0.465075" stop-color="#E4B277"/>
<stop offset="0.479432" stop-color="#E8BB85"/>
<stop offset="0.671496" stop-color="#DBA358"/>
<stop offset="0.876694" stop-color="#E8BB85"/>
<stop offset="1" stop-color="#F3DDC5"/>
</linearGradient>
<linearGradient id="paint20_linear_13256_265764" x1="20.6717" y1="0.632776" x2="20.6717" y2="40.2574" gradientUnits="userSpaceOnUse">
<stop stop-color="#CF7D21"/>
<stop offset="0.21562" stop-color="#CF7E23"/>
<stop offset="0.293282" stop-color="#D1822A"/>
<stop offset="0.348629" stop-color="#D48A35"/>
<stop offset="0.393396" stop-color="#D89446"/>
<stop offset="0.431738" stop-color="#DEA25C"/>
<stop offset="0.465075" stop-color="#E4B277"/>
<stop offset="0.479432" stop-color="#E8BB85"/>
<stop offset="0.671496" stop-color="#DBA358"/>
<stop offset="0.876694" stop-color="#E8BB85"/>
<stop offset="1" stop-color="#F3DDC5"/>
</linearGradient>
<linearGradient id="paint21_linear_13256_265764" x1="36.4526" y1="1.25933" x2="36.4526" y2="41.2603" gradientUnits="userSpaceOnUse">
<stop stop-color="#CF7D21"/>
<stop offset="0.21562" stop-color="#CF7E23"/>
<stop offset="0.293282" stop-color="#D1822A"/>
<stop offset="0.348629" stop-color="#D48A35"/>
<stop offset="0.393396" stop-color="#D89446"/>
<stop offset="0.431738" stop-color="#DEA25C"/>
<stop offset="0.465075" stop-color="#E4B277"/>
<stop offset="0.479432" stop-color="#E8BB85"/>
<stop offset="0.671496" stop-color="#DBA358"/>
<stop offset="0.876694" stop-color="#E8BB85"/>
<stop offset="1" stop-color="#F3DDC5"/>
</linearGradient>
<linearGradient id="paint22_linear_13256_265764" x1="4.00652" y1="1.26392" x2="4.00652" y2="41.28" gradientUnits="userSpaceOnUse">
<stop stop-color="#CF7D21"/>
<stop offset="0.21562" stop-color="#CF7E23"/>
<stop offset="0.293282" stop-color="#D1822A"/>
<stop offset="0.348629" stop-color="#D48A35"/>
<stop offset="0.393396" stop-color="#D89446"/>
<stop offset="0.431738" stop-color="#DEA25C"/>
<stop offset="0.465075" stop-color="#E4B277"/>
<stop offset="0.479432" stop-color="#E8BB85"/>
<stop offset="0.671496" stop-color="#DBA358"/>
<stop offset="0.876694" stop-color="#E8BB85"/>
<stop offset="1" stop-color="#F3DDC5"/>
</linearGradient>
<linearGradient id="paint23_linear_13256_265764" x1="15.5138" y1="1.58197" x2="15.5138" y2="41.5943" gradientUnits="userSpaceOnUse">
<stop stop-color="#CF7D21"/>
<stop offset="0.21562" stop-color="#CF7E23"/>
<stop offset="0.293282" stop-color="#D1822A"/>
<stop offset="0.348629" stop-color="#D48A35"/>
<stop offset="0.393396" stop-color="#D89446"/>
<stop offset="0.431738" stop-color="#DEA25C"/>
<stop offset="0.465075" stop-color="#E4B277"/>
<stop offset="0.479432" stop-color="#E8BB85"/>
<stop offset="0.671496" stop-color="#DBA358"/>
<stop offset="0.876694" stop-color="#E8BB85"/>
<stop offset="1" stop-color="#F3DDC5"/>
</linearGradient>
<linearGradient id="paint24_linear_13256_265764" x1="9.62773" y1="1.40308" x2="9.41792" y2="39.1319" gradientUnits="userSpaceOnUse">
<stop stop-color="#CF7D21"/>
<stop offset="0.21562" stop-color="#CF7E23"/>
<stop offset="0.293282" stop-color="#D1822A"/>
<stop offset="0.348629" stop-color="#D48A35"/>
<stop offset="0.393396" stop-color="#D89446"/>
<stop offset="0.431738" stop-color="#DEA25C"/>
<stop offset="0.465075" stop-color="#E4B277"/>
<stop offset="0.479432" stop-color="#E8BB85"/>
<stop offset="0.671496" stop-color="#DBA358"/>
<stop offset="0.876694" stop-color="#E8BB85"/>
<stop offset="1" stop-color="#F3DDC5"/>
</linearGradient>
<linearGradient id="paint25_linear_13256_265764" x1="42.0253" y1="0.192411" x2="42.0253" y2="40.0935" gradientUnits="userSpaceOnUse">
<stop stop-color="#CF7D21"/>
<stop offset="0.21562" stop-color="#CF7E23"/>
<stop offset="0.293282" stop-color="#D1822A"/>
<stop offset="0.348629" stop-color="#D48A35"/>
<stop offset="0.393396" stop-color="#D89446"/>
<stop offset="0.431738" stop-color="#DEA25C"/>
<stop offset="0.465075" stop-color="#E4B277"/>
<stop offset="0.479432" stop-color="#E8BB85"/>
<stop offset="0.671496" stop-color="#DBA358"/>
<stop offset="0.876694" stop-color="#E8BB85"/>
<stop offset="1" stop-color="#F3DDC5"/>
</linearGradient>
<radialGradient id="paint26_radial_13256_265764" cx="0" cy="0" r="1" gradientUnits="userSpaceOnUse" gradientTransform="translate(80.1471 20.8333) rotate(90) scale(18.806 18.5968)">
<stop offset="0.550521" stop-color="white"/>
<stop offset="0.821667" stop-color="#C8B69E"/>
<stop offset="0.896996" stop-color="#CAB9A2"/>
<stop offset="0.935666" stop-color="#CDBDA7"/>
</radialGradient>
<radialGradient id="paint27_radial_13256_265764" cx="0" cy="0" r="1" gradientUnits="userSpaceOnUse" gradientTransform="translate(79.1206 18.2764) rotate(90) scale(29.7162 29.3856)">
<stop offset="0.438277" stop-color="white"/>
<stop offset="0.846136" stop-color="#C8B69E"/>
<stop offset="0.905296" stop-color="#CAB9A2"/>
<stop offset="0.935666" stop-color="#CDBDA7"/>
</radialGradient>
<radialGradient id="paint28_radial_13256_265764" cx="0" cy="0" r="1" gradientUnits="userSpaceOnUse" gradientTransform="translate(79.1141 18.2171) rotate(89.83) scale(29.7142 29.3836)">
<stop offset="0.438277" stop-color="white"/>
<stop offset="0.846136" stop-color="#C8B69E"/>
<stop offset="0.905296" stop-color="#CAB9A2"/>
<stop offset="0.935666" stop-color="#CDBDA7"/>
</radialGradient>
<radialGradient id="paint29_radial_13256_265764" cx="0" cy="0" r="1" gradientUnits="userSpaceOnUse" gradientTransform="translate(25.8272 20.4481) rotate(90) scale(25.9604 25.6715)">
<stop offset="0.111656" stop-color="white"/>
<stop offset="0.74436" stop-color="#C8B69E"/>
<stop offset="0.870772" stop-color="#CAB9A2"/>
<stop offset="0.935666" stop-color="#CDBDA7"/>
</radialGradient>
<radialGradient id="paint30_radial_13256_265764" cx="0" cy="0" r="1" gradientUnits="userSpaceOnUse" gradientTransform="translate(25.8253 20.4474) rotate(90) scale(25.961 25.6722)">
<stop offset="0.111656" stop-color="white"/>
<stop offset="0.74436" stop-color="#C8B69E"/>
<stop offset="0.870772" stop-color="#CAB9A2"/>
<stop offset="0.935666" stop-color="#CDBDA7"/>
</radialGradient>
<radialGradient id="paint31_radial_13256_265764" cx="0" cy="0" r="1" gradientUnits="userSpaceOnUse" gradientTransform="translate(25.8259 20.4471) rotate(90) scale(25.9622 25.6733)">
<stop offset="0.111656" stop-color="white"/>
<stop offset="0.74436" stop-color="#C8B69E"/>
<stop offset="0.870772" stop-color="#CAB9A2"/>
<stop offset="0.935666" stop-color="#CDBDA7"/>
</radialGradient>
<radialGradient id="paint32_radial_13256_265764" cx="0" cy="0" r="1" gradientUnits="userSpaceOnUse" gradientTransform="translate(51.9929 18.4142) rotate(90) scale(2.71259 2.68241)">
<stop offset="0.206374" stop-color="white"/>
<stop offset="0.716797" stop-color="#C8B69E"/>
<stop offset="0.861422" stop-color="#CAB9A2"/>
<stop offset="0.935666" stop-color="#CDBDA7"/>
</radialGradient>
<radialGradient id="paint33_radial_13256_265764" cx="0" cy="0" r="1" gradientUnits="userSpaceOnUse" gradientTransform="translate(25.8278 20.4471) rotate(90) scale(25.9621 25.6733)">
<stop offset="0.438277" stop-color="white"/>
<stop offset="0.74436" stop-color="#C8B69E"/>
<stop offset="0.870772" stop-color="#CAB9A2"/>
<stop offset="0.935666" stop-color="#CDBDA7"/>
</radialGradient>
</defs>
</svg>
