<svg width="46" height="56" viewBox="0 0 46 56" fill="none" xmlns="http://www.w3.org/2000/svg">
<path d="M45.9989 56H39.1235C39.1235 56 25.3334 52.588 23.69 44.6027C22.0466 36.6173 30.7637 39.2307 33.336 44.4575C35.9082 49.6843 40.0145 52.7414 41.2102 52.6699C43.6395 52.5247 45.4273 52.3702 45.9989 56Z" fill="#5B4949"/>
<path d="M39.1249 56H46.0002C45.4286 52.3703 43.6408 52.5247 41.2115 52.67C40.8159 54.3545 37.8273 54.1962 37.4033 55.4937C38.4592 55.8352 39.1249 56 39.1249 56Z" fill="#BA9B8A"/>
<path d="M9.26499 28.4127L9.03471 28.6378C8.99092 28.681 8.96077 28.7095 8.94355 28.7242L8.87615 28.785L8.80866 28.8458C8.78413 28.8682 8.76351 28.8864 8.75466 28.892L8.71709 28.9206C8.7029 28.9319 8.69276 28.9389 8.68724 28.9409C8.65448 28.9604 8.65919 28.9399 8.64827 28.9361L8.62497 28.9147L8.53178 28.8286L8.34524 28.6562L7.97182 28.3096C7.73315 28.0683 7.50531 27.8153 7.27122 27.5663C7.04407 27.3118 6.8378 27.0394 6.61994 26.7745C6.50823 26.6437 6.41588 26.4998 6.31599 26.3605L6.02133 25.9381C5.26424 24.7923 4.64981 23.5451 4.19476 22.241C3.28409 19.63 2.97426 16.8182 3.21939 14.0517C3.46502 11.2842 4.26606 8.53929 5.69169 6.05706C6.41617 4.82606 7.29488 3.65717 8.36354 2.64527C8.89406 2.13695 9.47761 1.67555 10.0929 1.25554C10.2422 1.14488 10.4078 1.05585 10.5678 0.959447L11.0521 0.676398C11.3822 0.499903 11.7261 0.346244 12.0651 0.186843C13.0592 -0.280597 14.238 0.159248 14.6981 1.16925C15.1582 2.17923 14.7252 3.37692 13.7311 3.84435C13.7217 3.84875 13.7124 3.85307 13.703 3.85731L13.6097 3.89883C11.7556 4.72388 10.1375 6.21759 8.94803 8.09783C8.34537 9.03147 7.84115 10.0544 7.44783 11.1299C7.05302 12.205 6.7558 13.3288 6.56771 14.4765C6.19364 16.7709 6.23689 19.1619 6.78787 21.438C7.06374 22.5747 7.46153 23.684 8.00132 24.7243L8.21035 25.1108C8.28123 25.2391 8.34482 25.373 8.42717 25.4937C8.58647 25.7388 8.73445 25.9947 8.90322 26.235C9.07878 26.4696 9.2484 26.7114 9.42932 26.9443L9.71642 27.2802L9.86017 27.449L9.93209 27.5336L9.95009 27.5548C9.95291 27.5652 9.97137 27.559 9.95238 27.5927C9.9503 27.5983 9.94361 27.6087 9.93287 27.6236L9.90562 27.6628C9.90022 27.672 9.88305 27.6938 9.86194 27.7198L9.80477 27.7911L9.74767 27.8626C9.73392 27.8809 9.70723 27.9129 9.66684 27.9598L9.45722 28.2061L9.45077 28.2137C9.39242 28.2823 9.32791 28.3509 9.26499 28.4127Z" fill="#7C6666"/>
<path d="M9.95009 27.5548L9.9321 27.5336L9.86017 27.4491L9.71643 27.2803L9.42933 26.9444C9.2484 26.7115 9.07878 26.4697 8.90323 26.2351C8.73446 25.9947 8.58647 25.7389 8.42717 25.4938C8.34483 25.3731 8.28124 25.2391 8.21036 25.1108L8.00133 24.7244C7.59938 23.9498 7.27644 23.1368 7.02368 22.3028C5.16732 19.679 4.00615 15.9404 4.00615 11.7902C4.00615 11.0586 4.04248 10.3399 4.11205 9.6377C3.64675 11.0776 3.35169 12.5612 3.21939 14.0518C2.97426 16.8183 3.28407 19.6301 4.19477 22.2411C4.64981 23.5452 5.26424 24.7924 6.02133 25.9382L6.31599 26.3605C6.41588 26.4999 6.50824 26.6438 6.61994 26.7746C6.83781 27.0395 7.04408 27.3119 7.27123 27.5664C7.50531 27.8154 7.73316 28.0684 7.97182 28.3097L8.34525 28.6562L8.53178 28.8287L8.62498 28.9147L8.64828 28.9362C8.65919 28.94 8.65448 28.9604 8.68725 28.941C8.69276 28.9389 8.7029 28.932 8.71709 28.9207L8.75466 28.8921C8.76351 28.8865 8.78412 28.8683 8.80866 28.8459L8.87615 28.7851L8.94355 28.7243C8.96077 28.7096 8.99092 28.6811 9.03471 28.6378L9.26499 28.4128C9.32791 28.351 9.39242 28.2823 9.45077 28.2137L9.45722 28.2062L9.66685 27.9598C9.70724 27.913 9.73389 27.8809 9.74767 27.8627L9.80477 27.7912L9.86194 27.7198C9.88305 27.6938 9.90022 27.6721 9.90562 27.6629L9.93287 27.6237C9.94361 27.6088 9.9503 27.5983 9.95238 27.5927C9.97138 27.559 9.95291 27.5653 9.95009 27.5548Z" fill="#665252"/>
<path d="M21.0471 55.9999H15.2436C15.2436 55.9999 6.11999 43.342 8.08086 35.8187C10.0417 28.2954 20.4828 38.4805 16.3856 49.3724C16.3856 49.3724 17.5969 52.6424 18.4272 53.9673C18.4272 53.9673 20.4185 53.7737 21.0471 55.9999Z" fill="#5B4949"/>
<path d="M14.6168 30.4952C10.2906 25.0972 4.61363 27.3494 3.3275 28.8497C2.04136 30.35 5.94737 44.0944 7.66221 46.4659C9.37707 48.8373 13.8768 51.1047 21.5715 51.9346C27.7881 52.6051 32.7289 51.7402 33.6706 50.1924C35.1125 47.8223 31.7988 42.0202 27.6687 37.7546C21.8096 36.4963 18.6896 35.5768 14.6168 30.4952Z" fill="#725E5E"/>
<path d="M14.6164 30.4951C10.2902 25.0973 4.61322 27.3494 3.3271 28.8497C3.06019 29.161 3.01744 30.0008 3.13177 31.1557C4.10305 33.5944 6.41968 36.3009 9.61941 38.4391C15.0098 42.0414 20.8651 42.6672 22.6976 39.8367C23.2693 38.9536 23.3817 37.8383 23.1022 36.6124C19.8855 35.5901 17.487 34.0768 14.6164 30.4951Z" fill="#7C6666"/>
<path d="M27.668 37.7547C25.9808 37.3924 24.5215 37.0576 23.2004 36.644C23.9191 39.8148 23.3116 42.7903 21.2813 44.5194C17.8988 47.4002 11.8527 45.7311 7.7771 40.7913C4.05177 36.276 3.1688 30.642 2.75523 31.1245C1.46907 32.6247 5.9467 44.0946 7.66154 46.466C9.3764 48.8374 13.8761 51.1048 21.5708 51.9348C27.7874 52.6053 32.7282 51.7404 33.6699 50.1925C35.1118 47.8225 31.7981 42.0203 27.668 37.7547Z" fill="#665252"/>
<path d="M10.3858 47.7088C13.0444 43.1749 10.8055 34.8508 8.94782 33.5441L8.42383 45.7883L10.3858 47.7088Z" fill="#665252"/>
<path d="M33.7432 55.9999H24.4307C24.4307 55.9999 14.8303 50.7731 14.2026 42.7878C13.5748 34.8024 19.3708 39.2307 21.2783 44.4575C23.1857 49.6842 27.4274 52.7816 28.5245 53.1445C29.9731 53.6239 33.6333 52.3702 33.7432 55.9999Z" fill="#8C7474"/>
<path d="M26.2543 51.6146C24.7203 50.1291 22.3325 46.9301 21.2976 44.0946C19.3902 38.8678 13.2747 34.6573 13.9024 42.6427C14.1667 46.0043 16.323 49.0222 18.3819 51.2219C19.712 50.5481 23.2626 50.5917 26.2543 51.6146Z" fill="#725E5E"/>
<path d="M23.8604 55.664C24.2202 55.8847 24.4315 55.9999 24.4315 55.9999H33.744C33.634 52.3702 29.9739 53.6239 28.5252 53.1445C26.5008 53.1929 24.2684 54.3592 23.8604 55.664Z" fill="#CCB2A2"/>
<path d="M35.0993 35.0929C34.6191 35.1844 33.051 37.7547 33.2416 39.255L38.1003 40.9488C37.7145 38.3302 35.8614 34.9477 35.0993 35.0929Z" fill="#AF9797"/>
<path d="M35.3086 35.4894C35.0401 35.5457 34.5819 38.0029 34.9858 39.3737L37.6277 40.3905C37.1489 38.4117 35.7193 35.4032 35.3086 35.4894Z" fill="#564141"/>
<path d="M35.3815 35.7715C35.1764 35.8329 35.0302 38.1274 35.4644 39.3853L37.3101 40.1171C36.7648 38.2978 35.6952 35.6777 35.3815 35.7715Z" fill="#E06161"/>
<path d="M36.3075 38.857C36.3585 39.1693 36.398 39.4741 36.4267 39.7666L37.3106 40.1171C36.7654 38.2978 35.6957 35.6777 35.3821 35.7715C35.372 35.7745 35.3622 35.7843 35.3525 35.7976C35.7237 36.3975 36.0909 37.53 36.3075 38.857Z" fill="#BA4F4F"/>
<path d="M19.785 39.228C17.019 40.8014 18.6984 43.1271 18.6984 43.1271C18.6984 43.1271 19.6368 41.7643 21.4643 40.8641L19.785 39.228Z" fill="#7C6666"/>
<path d="M19.6212 38.2097C17.2372 38.5198 16.7666 40.9711 16.7666 40.9711C16.7666 40.9711 18.0601 40.199 19.5538 40.1063L19.6212 38.2097Z" fill="#7C6666"/>
<path d="M18.2628 37.3386C15.8788 37.6487 15.4082 40.1 15.4082 40.1C15.4082 40.1 16.7017 39.3279 18.1954 39.2352L18.2628 37.3386Z" fill="#7C6666"/>
<path d="M15.9796 36.4421C13.967 38.1749 14.546 40.3384 14.546 40.3384C14.546 40.3384 15.3913 38.938 16.6937 37.9298L15.9796 36.4421Z" fill="#7C6666"/>
<path d="M18.4277 36.1575C18.4277 36.6899 21 39.9325 21.5716 41.7231L26.1445 37.561C22.1909 34.6573 18.4277 35.6252 18.4277 36.1575Z" fill="#AF9797"/>
<path d="M19.2228 36.5775C19.2459 37.0243 21.4529 39.6838 21.9898 41.173L25.4824 37.5698C22.1804 35.2278 19.1997 36.1307 19.2228 36.5775Z" fill="#564141"/>
<path d="M19.4884 36.741C19.5096 37.1507 21.6621 39.553 22.1544 40.9185L25.2089 37.7607C22.1812 35.6131 19.4672 36.3313 19.4884 36.741Z" fill="#E06161"/>
<path d="M21.7452 37.0468C22.8484 37.4248 23.7336 38.0675 24.2314 38.7713L25.2089 37.7607C22.1812 35.6131 19.4672 36.3313 19.4884 36.741C19.4885 36.7419 19.4889 36.7433 19.489 36.7442C20.1699 36.6819 20.9534 36.7754 21.7452 37.0468Z" fill="#BA4F4F"/>
<path d="M36.3381 50.7248C37.6242 49.9504 37.9576 48.9341 37.9576 48.9341L40.5775 47.1435L40.3393 46.8047C40.3393 46.8047 41.6255 46.7563 41.6255 46.5627C41.6255 46.3691 40.6728 45.7884 40.6728 45.7884C40.6728 45.7884 41.8637 45.982 41.8637 45.7884C41.8637 45.5948 39.0532 42.7878 39.0532 42.7878C39.0532 42.7878 39.7201 42.691 39.6725 42.4975C39.6248 42.3039 37.9576 40.1744 37.9576 40.1744C37.9576 40.1744 31.7175 36.2544 30.2885 36.1575C28.8594 36.0608 30.6696 36.8351 30.6696 36.8351C30.6696 36.8351 28.526 36.1092 28.0973 36.3511C27.6686 36.5931 28.6689 36.8835 28.6689 36.8835C28.6689 36.8835 26.1443 37.0287 25.6203 37.4643C25.0964 37.8998 21.4285 40.2712 20.3329 43.9493L20.8569 43.7557C20.8569 43.7557 19.8566 45.8368 19.7613 46.5143C19.666 47.1919 20.6664 46.0304 20.6664 46.0304C20.6664 46.0304 19.7613 47.0467 19.9042 47.3854C20.0471 47.7242 21.3332 47.3854 21.5238 47.6274C21.7143 47.8694 20.0471 48.5953 20.3805 49.0309C20.714 49.4665 23.0481 49.2245 23.0481 49.2245C23.0481 49.2245 22.3335 49.5149 22.3812 49.6601C22.4288 49.8052 27.7162 51.4507 31.9081 51.2087C31.9081 51.2087 30.9554 51.9831 31.2888 52.2251C31.6222 52.467 34.2898 51.112 34.2898 51.112C34.2898 51.112 33.9087 51.6927 34.4327 51.7411C34.9567 51.7895 35.8141 50.1924 36.0046 50.1924C36.1951 50.1924 36.026 50.9127 36.3381 50.7248Z" fill="#8C7474"/>
<path d="M27.2316 37.0251C26.5663 37.1166 25.8686 37.2577 25.6203 37.4641C25.0963 37.8997 21.4285 40.2711 20.3329 43.9492L20.8569 43.7556C20.8569 43.7556 19.8565 45.8367 19.7613 46.5142C19.6738 47.1361 20.5089 46.2092 20.6467 46.0527C20.5208 46.1972 19.7732 47.0748 19.9042 47.3853C20.0471 47.7241 21.3332 47.3853 21.5237 47.6273C21.7143 47.8693 20.0471 48.5952 20.3805 49.0308C20.714 49.4664 31.082 45.5162 31.6222 42.4973C31.9081 40.9002 30.0134 38.2505 27.2316 37.0251Z" fill="#7C6666"/>
<path d="M32.7526 46.504C31.8711 46.9416 30.1781 45.9092 30.2297 45.4738C30.3845 44.1671 33.4986 44.04 33.4986 44.04L34.481 45.1834C34.481 45.1834 33.221 46.2715 32.7526 46.504Z" fill="#EAD5BE"/>
<path d="M32.1946 46.006C31.4087 46.006 30.7252 45.6381 30.3739 45.0961C30.2977 45.2097 30.2462 45.3346 30.2297 45.4737C30.1781 45.9091 31.8711 46.9415 32.7526 46.5039C33.221 46.2714 34.481 45.1833 34.481 45.1833L34.3984 45.0872C33.7629 45.6089 32.8619 46.006 32.1946 46.006Z" fill="#DBBA9A"/>
<path d="M35.9461 46.441C36.8275 46.8786 37.7831 45.4007 37.8384 44.9657C37.9336 44.2156 35.2482 43.8586 35.2482 43.8586L34.2207 44.812C34.2207 44.812 35.4776 46.2085 35.9461 46.441Z" fill="#EAD5BE"/>
<path d="M37.4975 45.6032C36.7266 46.2493 35.6009 46.2618 35.168 45.3563C34.937 44.8734 34.9906 44.3397 35.2252 43.88L34.2207 44.812C34.2207 44.812 35.4776 46.2084 35.9461 46.441C36.5822 46.7567 37.2568 46.0749 37.6039 45.5075C37.5696 45.5404 37.5342 45.5724 37.4975 45.6032Z" fill="#DBBA9A"/>
<path d="M13.2828 55.9999H7.28084C7.28084 55.9999 -1.6744 43.1265 0.278589 35.4316C2.23161 27.7366 4.66096 27.6398 5.75655 28.2689C6.85216 28.8981 14.7594 38.7225 8.1859 49.3696C8.1859 49.3696 9.13859 51.983 9.90074 53.3381C9.90074 53.3381 12.9017 52.5638 13.2828 55.9999Z" fill="#7C6666"/>
<path d="M9.90074 53.3381C9.13859 51.983 8.1859 49.3696 8.1859 49.3696C9.12895 47.8422 9.77272 46.3319 10.1826 44.8631C9.16935 47.2602 7.62726 48.733 5.89944 48.6195C2.84776 48.419 0.37388 43.3488 0.37388 37.2948C0.37388 36.2472 0.449501 35.2403 0.587826 34.2899C0.483651 34.6509 0.380427 35.0303 0.278589 35.4316C-1.6744 43.1265 7.28084 55.9999 7.28084 55.9999H13.2828C12.9017 52.5638 9.90074 53.3381 9.90074 53.3381Z" fill="#725E5E"/>
<path d="M8.18675 49.3697C8.3298 49.138 8.46374 48.9068 8.59323 48.676L5.66211 49.7569C5.66211 49.7569 6.90319 49.4788 8.58644 50.4158C8.3461 49.8068 8.18675 49.3697 8.18675 49.3697Z" fill="#665252"/>
<path d="M7.27968 56H13.2816C12.9005 52.5638 9.89958 53.3382 9.89958 53.3382C9.89896 53.3371 9.89837 53.336 9.89779 53.3349C8.56589 53.6189 7.4974 54.5303 7.08398 55.7114C7.20912 55.8983 7.27968 56 7.27968 56Z" fill="#CCB2A2"/>
<path d="M39.0526 42.7878C39.0526 42.7878 39.7195 42.691 39.6718 42.4974C39.6242 42.3038 37.957 40.1744 37.957 40.1744C37.957 40.1744 33.4418 37.338 31.2135 36.4313C30.3435 38.121 32.6636 41.2795 36.5699 43.641C38.394 44.7436 40.2521 45.4832 41.8513 45.8162C41.858 45.8079 41.863 45.7989 41.863 45.7884C41.863 45.5948 39.0526 42.7878 39.0526 42.7878Z" fill="#7C6666"/>
<path d="M37.7899 42.4854C37.7467 42.4854 37.7032 42.472 37.6657 42.444C37.6287 42.4168 36.7276 41.7725 35.4829 42.3288C35.3769 42.3759 35.253 42.3272 35.2063 42.2196C35.1596 42.1117 35.2078 41.9859 35.3139 41.9384C36.7876 41.2797 37.869 42.0666 37.9143 42.1003C38.0077 42.17 38.0278 42.3035 37.9592 42.3984C37.9181 42.4553 37.8544 42.4854 37.7899 42.4854Z" fill="#564141"/>
<path d="M26.3106 43.4882C26.2463 43.4882 26.1828 43.4582 26.1416 43.4015C26.0728 43.3068 26.0926 43.1733 26.1859 43.1033C27.7414 41.9369 29.3526 42.2178 29.4205 42.2303C29.5345 42.2514 29.6101 42.3624 29.5894 42.4783C29.5687 42.5942 29.4593 42.6707 29.3453 42.6499C29.3311 42.6474 27.8396 42.3932 26.4351 43.4465C26.3976 43.4745 26.3539 43.4882 26.3106 43.4882Z" fill="#564141"/>
<path d="M34.819 45.3317C34.6389 45.4574 34.4193 45.3945 34.4193 45.3945C34.4193 45.3945 32.9172 44.3105 32.9941 44.0122C33.048 43.8028 35.737 43.4887 35.8935 43.8928C35.9531 44.047 34.819 45.3317 34.819 45.3317Z" fill="#D85D5D"/>
<path d="M34.7874 45.1016C34.6396 45.2048 34.4594 45.1532 34.4594 45.1532C34.4594 45.1532 33.2263 44.2633 33.2895 44.0185C33.3338 43.8466 35.541 43.5888 35.6694 43.9205C35.7184 44.047 34.7874 45.1016 34.7874 45.1016Z" fill="#EF7878"/>
<path d="M33.501 44.4545C34.019 44.1097 34.2869 44.1641 34.412 44.3456C34.537 44.5271 34.1887 45.0352 34.1887 45.0352L33.501 44.4545Z" fill="#D85D5D"/>
<path d="M35.1587 44.272C35.0658 44.4508 35.1326 44.9362 35.1326 44.9362L35.5644 44.3578C35.3873 44.0345 35.2516 44.0932 35.1587 44.272Z" fill="#D85D5D"/>
<path d="M33.4082 47.0951C34.9325 47.7001 35.385 46.9499 35.1945 46.5386C34.9213 47.1312 34.2251 47.1894 33.4082 47.0951Z" fill="#564141"/>
<path d="M41.8623 45.7885C41.8623 45.7639 41.817 45.6973 41.7383 45.6C41.5591 45.5779 41.4229 45.5557 41.4229 45.5557C41.4229 45.5557 41.6215 45.6756 41.8411 45.8253C41.8536 45.8149 41.8623 45.8031 41.8623 45.7885Z" fill="#665252"/>
<path d="M39.672 42.5191C39.6723 42.512 39.6733 42.5049 39.6715 42.4974C39.6709 42.4951 39.6689 42.4911 39.6678 42.488C39.653 42.4905 39.6436 42.4919 39.6436 42.4919C39.6436 42.4919 39.6543 42.5022 39.672 42.5191Z" fill="#665252"/>
<path d="M41.1436 46.5932L41.2379 46.7205C41.4539 46.6839 41.6242 46.6329 41.6242 46.5626C41.6242 46.5619 41.6236 46.561 41.6236 46.5603C41.3655 46.5844 41.1436 46.5932 41.1436 46.5932Z" fill="#665252"/>
<path d="M20.5745 46.1321C20.7294 45.3189 21.499 43.4801 21.499 43.4801L20.9854 43.6777C21.4681 41.6628 22.7112 40.0326 23.8373 38.885C22.5643 40.0154 20.9876 41.748 20.3319 43.9492L20.8559 43.7557C20.8559 43.7557 19.8556 45.8367 19.7603 46.5142C19.6828 47.0654 20.3303 46.3996 20.5745 46.1321Z" fill="#665252"/>
<path d="M23.3375 49.5087C23.2821 49.3605 23.9812 49.064 23.9812 49.064C23.9812 49.064 21.66 49.3111 21.3034 48.8664C20.9467 48.4216 22.5753 47.6804 22.3719 47.4333C22.1684 47.1863 20.9003 47.5322 20.7394 47.1863C20.5918 46.8689 21.294 45.9716 21.4113 45.8252C21.2829 45.9837 20.4957 46.9324 20.5501 46.2968C20.5541 46.2501 20.5622 46.1964 20.5732 46.1376C20.3473 46.407 19.7884 47.1137 19.903 47.3855C20.0459 47.7242 21.332 47.3855 21.5226 47.6274C21.7131 47.8694 20.0459 48.5954 20.3794 49.0309C20.7128 49.4665 23.0469 49.2245 23.0469 49.2245C23.0469 49.2245 22.3324 49.5149 22.38 49.6601C22.4022 49.7277 23.5609 50.1205 25.2156 50.4967C24.0709 50.0307 23.3621 49.5744 23.3375 49.5087Z" fill="#665252"/>
<path d="M20.083 46.2361C20.5892 46.275 20.6757 46.6021 20.5296 47.0891C21.4406 46.345 22.173 44.6753 22.173 44.6753C22.173 44.6753 21.4227 45.4194 20.083 46.2361Z" fill="#665252"/>
</svg>
