<svg width="24" height="37" viewBox="0 0 24 37" fill="none" xmlns="http://www.w3.org/2000/svg">
<path fill-rule="evenodd" clip-rule="evenodd" d="M14.4791 4.82917C15.1269 5.97662 17.2617 9.76395 18.3555 11.7672C19.9689 14.7278 20.9419 16.5618 21.0787 18.5212L22.2812 35.7322L3.4777 36.1966L2.28156 19.076C2.14467 17.1167 2.85823 15.2329 4.05344 12.1893C4.85114 10.157 6.41901 6.33322 6.92488 5.09948C6.94799 5.04312 6.96888 4.99217 6.98738 4.94705C7.55372 5.44798 8.62929 5.89302 10.6527 5.96208L11.0782 5.94952C12.9493 5.77445 13.952 5.32159 14.4791 4.82917Z" fill="url(#paint0_linear_14635_298840)"/>
<g style="mix-blend-mode:multiply">
<path fill-rule="evenodd" clip-rule="evenodd" d="M4.06276 22.1367L5.04445 36.1987L3.47578 36.1987L2.2807 19.08C2.14393 17.1209 2.85684 15.2373 4.05098 12.1941C4.84796 10.162 6.41442 6.33866 6.91983 5.10506C6.94291 5.04871 6.96379 4.99777 6.98227 4.95265C7.27948 5.21605 7.71919 5.46309 8.3607 5.64942C8.35533 5.66239 8.34641 5.68387 8.33418 5.71335C7.97276 6.5845 4.71349 14.4404 4.28251 16.0308C3.82576 17.7156 3.87643 19.4676 4.06276 22.1367Z" fill="url(#paint1_linear_14635_298840)"/>
</g>
<g style="mix-blend-mode:multiply">
<path fill-rule="evenodd" clip-rule="evenodd" d="M19.7114 21.6694L20.6945 35.7505L22.2585 35.6933L21.0596 18.5202C20.9228 16.5611 19.9511 14.7273 18.3385 11.767C17.2115 9.70002 14.9757 5.73197 14.4095 4.72819C14.1495 5.00806 13.7467 5.27999 13.1339 5.50337C13.3534 5.88824 17.9682 13.9904 18.6415 15.6016C19.3322 17.2524 19.5251 19.0003 19.7114 21.6694Z" fill="url(#paint2_linear_14635_298840)"/>
</g>
<path d="M6.80853 3.51398C6.80853 3.51398 6.07316 6.03578 11.2894 6.2115L11.7395 6.1983C16.9084 5.71822 15.8232 3.24977 15.8232 3.24977L6.80853 3.51398Z" fill="url(#paint3_linear_14635_298840)"/>
<path d="M15.4356 5.14718C15.3958 5.07547 15.3579 5.0071 15.3247 4.94629C14.7651 5.48297 13.7003 5.97655 11.7133 6.16742L11.2614 6.18112C9.11269 6.10592 7.97047 5.62092 7.36901 5.075C7.34174 5.14391 7.3095 5.22549 7.27216 5.31762C7.7754 5.66504 9.23835 6.45227 11.2795 6.39038C13.543 6.32174 14.7204 5.74486 15.4356 5.14718Z" fill="url(#paint4_linear_14635_298840)"/>
<path fill-rule="evenodd" clip-rule="evenodd" d="M3.42538 36.0936L3.43377 36.2073L3.64807 36.2073L3.64112 36.0867C3.57821 34.9872 3.51035 33.8269 3.43998 32.6281C3.37672 31.5838 3.31074 30.5095 3.24372 29.4183L3.21364 28.9284C3.16271 28.1302 3.11147 27.3239 3.06005 26.5148C3.03033 26.0472 3.00055 25.5785 2.97073 25.11C2.93965 24.6387 2.90854 24.1677 2.8775 23.6978C2.82422 22.8912 2.77116 22.0877 2.71879 21.2919C2.69831 20.9759 2.67796 20.6618 2.65596 20.3497C2.63246 20.0376 2.60908 19.7275 2.58498 19.4179C2.56262 19.1115 2.54309 18.8102 2.5433 18.5138C2.54259 18.2188 2.56136 17.9276 2.59588 17.6416C2.66871 17.0707 2.80044 16.5158 2.945 15.9877C2.99931 15.7857 3.06014 15.5932 3.12054 15.4021C3.14093 15.3375 3.16128 15.2731 3.18132 15.2086C3.26545 14.9546 3.34861 14.7033 3.43049 14.4551C3.7661 13.4647 4.09834 12.5367 4.40572 11.6803C4.54401 11.2978 4.67714 10.9295 4.80455 10.5771C5.24688 9.35345 5.62017 8.32079 5.90086 7.54585C6.26374 6.54823 6.47019 5.9782 6.47019 5.9782C6.47019 5.9782 6.41283 6.11771 6.30654 6.37872C6.27651 6.45276 6.24228 6.53655 6.20419 6.62976C6.10804 6.86511 5.98731 7.1606 5.84765 7.51135C5.7868 7.66474 5.72199 7.82831 5.65333 8.0016C5.50251 8.38227 5.33312 8.80982 5.14627 9.27923C4.87592 9.96233 4.57314 10.7341 4.25197 11.5831C3.93015 12.4316 3.58372 13.3512 3.23031 14.3352C3.17706 14.4872 3.12296 14.6411 3.06848 14.796C3.03469 14.8921 3.00076 14.9885 2.9668 15.0853C2.94336 15.1569 2.91942 15.2287 2.89542 15.3006C2.83263 15.4888 2.76945 15.6782 2.71387 15.8701C2.55459 16.4087 2.42039 16.9708 2.33655 17.5712C2.29721 17.8719 2.27463 18.1823 2.27287 18.4945C2.27085 18.8061 2.2879 19.1197 2.30801 19.4299C2.35312 20.049 2.39157 20.6691 2.43075 21.301C2.45401 21.6668 2.47745 22.0342 2.50095 22.4027C2.55839 23.3032 2.61629 24.2108 2.67335 25.1195C2.75879 26.3985 2.84398 27.678 2.92559 28.9375L2.93841 29.1237C3.02066 30.3191 3.10163 31.4957 3.17844 32.6364L3.20757 33.0422C3.28326 34.0968 3.35664 35.1191 3.42538 36.0936Z" fill="white"/>
<g style="mix-blend-mode:multiply">
<path d="M19.1481 11.842C18.0138 9.81795 15.8002 5.99113 15.1283 4.83171C14.5818 5.32927 13.5419 5.78685 11.6016 5.96375L11.1603 5.97644C9.06206 5.90667 7.9467 5.45699 7.35941 4.95083C7.29246 5.10928 7.19589 5.34007 7.07675 5.62244C7.90029 6.09344 10.8539 7.50989 14.3713 5.94207C14.8765 5.71687 15.2271 5.91745 16.2064 7.6207C17.1857 9.32328 21.4192 15.3651 21.9755 18.9794C21.9859 19.0449 21.9977 19.1063 22.0079 19.1699C21.9918 18.9442 21.9796 18.7745 21.9719 18.6665C21.83 16.6867 20.821 14.8336 19.1481 11.842Z" fill="url(#paint5_linear_14635_298840)"/>
</g>
<g style="mix-blend-mode:multiply">
<path d="M15.9611 3.75741C15.9502 3.4534 15.8667 3.24975 15.8667 3.24975L6.80716 3.53078C6.80716 3.53078 6.75526 3.72224 6.7762 4.00539C7.83852 4.35719 11.5004 5.36091 15.9611 3.75741Z" fill="url(#paint6_linear_14635_298840)"/>
</g>
<path d="M16.478 0.953959L6.08326 1.25225C6.08326 1.25225 5.21949 2.29632 6.19132 3.54716C6.19501 3.55111 6.19833 3.55636 6.2024 3.56091L6.20344 3.56294C6.64039 4.08158 8.75615 4.55631 11.4028 4.47864C13.9551 4.40375 16.1623 3.82962 16.6319 3.31121L16.6437 3.31086C17.4562 2.00024 16.478 0.953959 16.478 0.953959Z" fill="#F95B57"/>
<path d="M16.6358 1.24587C16.6791 1.87223 14.3346 2.4509 11.3995 2.53866C8.46538 2.62639 6.05081 2.19003 6.00755 1.56367C5.9643 0.937305 8.30872 0.357926 11.2429 0.27019C14.1779 0.182428 16.5926 0.619503 16.6358 1.24587Z" fill="#F32A26"/>
<g style="mix-blend-mode:multiply">
<path fill-rule="evenodd" clip-rule="evenodd" d="M7.67859 5.67108C8.31077 5.90572 8.74773 6.05422 9.30397 6.08976C9.2154 7.33437 8.59181 9.25487 7.11265 13.688C5.7191 17.8642 5.96518 20.7762 6.33587 25.1626C6.42078 26.1674 6.51223 27.2496 6.59201 28.442L7.10708 36.1406L4.56994 36.1406C4.53998 35.6764 4.50633 35.1631 4.46772 34.586L3.46573 19.6096C3.29723 17.091 3.31281 16.973 4.25974 14.5382C5.03551 12.547 6.99093 7.46144 7.67859 5.67108Z" fill="url(#paint7_linear_14635_298840)"/>
</g>
<path fill-rule="evenodd" clip-rule="evenodd" d="M17.1601 9.63668C17.5944 10.4131 18.0052 11.1488 18.325 11.7321C19.9477 14.6952 20.9263 16.5307 21.064 18.4916L22.2733 35.7165L3.36409 36.2295L2.15774 19.0469C2.02006 17.086 2.73777 15.2007 3.93994 12.1546C4.15383 11.6111 4.42482 10.939 4.71421 10.2237C5.67357 10.5023 7.54602 10.8238 10.9771 10.723C14.6847 10.6141 16.3458 10.1028 17.1601 9.63668Z" fill="url(#paint8_linear_14635_298840)"/>
<g style="mix-blend-mode:darken">
<path fill-rule="evenodd" clip-rule="evenodd" d="M2.92973 30.6157C2.99183 31.5713 3.04354 32.3671 3.07573 32.8954L3.27809 36.2166L3.10104 36.2166L2.06947 19.2869C1.95077 17.3389 2.56801 15.466 3.60192 12.4402C3.78587 11.9002 4.01894 11.2326 4.26783 10.5219C4.27361 10.5238 4.27943 10.5257 4.28529 10.5275C4.33038 10.542 4.37778 10.5571 4.42778 10.5723C4.07099 11.6365 2.53243 16.2861 2.2948 17.7805C2.15333 18.6674 2.64826 26.2841 2.92973 30.6157Z" fill="#F8A60F"/>
</g>
<g style="mix-blend-mode:darken">
<path fill-rule="evenodd" clip-rule="evenodd" d="M18.0775 9.63589C18.4523 10.4073 18.8069 11.1382 19.0828 11.7177C20.4832 14.6614 21.3277 16.4849 21.4468 18.433L22.5024 35.71L22.3111 35.71L22.0877 32.0544C22.0554 31.5262 22.01 30.7304 21.9555 29.7748C21.7083 25.442 21.2736 17.8222 21.0245 16.9484C20.5675 15.3494 18.1232 10.1433 17.9282 9.72843C17.9819 9.69746 18.0318 9.66664 18.0775 9.63589Z" fill="#F8A60F"/>
</g>
<g style="mix-blend-mode:lighten">
<path fill-rule="evenodd" clip-rule="evenodd" d="M21.6032 18.9216C21.5891 18.733 21.5821 18.6313 21.5821 18.6313L21.5909 18.9221C21.5925 18.9753 21.5941 19.0354 21.5959 19.1021C21.6005 19.2732 21.6063 19.4882 21.6152 19.7433C21.6237 19.9824 21.6328 20.2564 21.6429 20.5612C21.6626 21.1563 21.6861 21.869 21.7171 22.6697C21.7275 22.9306 21.7381 23.2007 21.749 23.479C21.7635 23.8471 21.7784 24.2297 21.7944 24.6248C21.8063 24.9071 21.8186 25.1957 21.831 25.4896C21.8493 25.9181 21.8679 26.358 21.8867 26.8065L21.8998 27.0946C21.93 27.7617 21.9611 28.4464 21.9928 29.1403L22.1081 31.5489L22.231 33.9573C22.2558 34.4603 22.2829 34.9577 22.3095 35.4471C22.3138 35.5255 22.318 35.6036 22.3223 35.6815L22.528 35.6815C22.5241 35.5935 22.5202 35.5051 22.5163 35.4165C22.495 34.934 22.4734 34.4437 22.4489 33.9483C22.4298 33.5558 22.4109 33.1603 22.3918 32.7634C22.3724 32.3564 22.3528 31.9479 22.3329 31.5396C22.3124 31.1307 22.2915 30.7217 22.2708 30.3145C22.2506 29.918 22.2304 29.523 22.2108 29.1313C22.2017 28.9624 22.1927 28.794 22.1837 28.6263C22.1504 28.0058 22.1177 27.3944 22.0862 26.7982C22.0425 26.0425 22.0012 25.3112 21.9622 24.6179C21.9396 24.2335 21.9174 23.861 21.896 23.5021C21.8788 23.2137 21.8621 22.9341 21.8462 22.6643C21.7994 21.8859 21.7538 21.1911 21.7154 20.6067C21.6941 20.2828 21.6751 19.9929 21.6593 19.7415C21.647 19.5511 21.6351 19.3831 21.6249 19.2391C21.6162 19.1153 21.6087 19.0092 21.6032 18.9216Z" fill="#F2BD5D"/>
</g>
<path opacity="0.6" d="M9.7774 11.0454C9.7774 11.0454 10.1528 11.042 10.7144 11.0364C10.9943 11.0339 11.3211 11.0231 11.6706 11.0154C12.022 11.0067 12.3939 10.9945 12.7671 10.9686C12.9535 10.961 13.1402 10.948 13.3229 10.9345C13.506 10.9246 13.6854 10.902 13.8594 10.8865C14.0333 10.8703 14.2001 10.8459 14.3589 10.8301C14.5187 10.812 14.6682 10.7822 14.8057 10.7611C14.9439 10.7429 15.0683 10.7086 15.1806 10.6898C15.2358 10.6774 15.2891 10.6666 15.3366 10.6575C15.3842 10.6439 15.4287 10.6312 15.4667 10.6201C15.6259 10.5771 15.7171 10.553 15.7171 10.553C15.7171 10.553 15.6285 10.5875 15.4741 10.6493C15.4356 10.6634 15.392 10.679 15.345 10.6972C15.2975 10.7116 15.2457 10.7269 15.1908 10.7438C15.0801 10.7738 14.9569 10.8186 14.8185 10.8444C14.6815 10.8722 14.5325 10.9104 14.3732 10.9368C14.215 10.9623 14.0477 10.998 13.8726 11.0143C13.7004 11.0343 13.52 11.0591 13.3354 11.0728C13.1512 11.0895 12.9647 11.1061 12.7781 11.1161C12.4046 11.1352 12.0296 11.1415 11.6777 11.1433C11.3268 11.1459 10.9982 11.1296 10.7161 11.1185C10.4351 11.1067 10.1998 11.085 10.0366 11.0723C9.87173 11.0581 9.7774 11.0454 9.7774 11.0454Z" fill="#F6A715"/>
<g style="mix-blend-mode:multiply" opacity="0.5">
<path d="M19.4007 13.4647C19.4007 13.4647 19.7119 16.3157 16.4705 16.7149C19.0602 16.9434 20.8214 18.3531 21.0388 19.1387C21.3084 17.6698 20.7206 15.435 19.4007 13.4647Z" fill="url(#paint9_linear_14635_298840)"/>
</g>
<g style="mix-blend-mode:multiply" opacity="0.5">
<path d="M3.79185 14.1504C3.79185 14.1504 3.88969 17.0075 7.17318 17.2186C4.62822 17.595 3.07438 19.1004 2.97099 19.8953C2.49159 18.4479 2.75912 16.1885 3.79185 14.1504Z" fill="url(#paint10_linear_14635_298840)"/>
</g>
<g style="mix-blend-mode:lighten" opacity="0.7">
<path fill-rule="evenodd" clip-rule="evenodd" d="M4.96555 34.8179C4.5923 28.1905 4.15726 24.5546 4.15726 24.5546C3.62603 18.1806 3.83663 28.0522 4.44241 35.7503C4.4538 35.8947 4.46507 36.0357 4.47622 36.1733L5.03588 36.1733C5.01578 35.7467 4.99238 35.2943 4.96555 34.8179Z" fill="#F2BD5D"/>
</g>
<path opacity="0.2" d="M3.82521 16.3745C3.82521 16.3745 4.07591 16.4653 4.52062 16.5922C4.74075 16.6571 5.01181 16.7292 5.32202 16.8043C5.63335 16.8817 5.98487 16.9548 6.36826 17.0342C6.75284 17.1056 7.16806 17.1818 7.61054 17.2418C8.0515 17.3063 8.51808 17.3569 8.99991 17.3998C9.48193 17.4419 9.98014 17.4726 10.4866 17.4828C10.7401 17.4929 10.995 17.4862 11.2504 17.4891C11.5056 17.4846 11.7618 17.4765 12.0185 17.4677C12.53 17.4442 13.0413 17.4105 13.5424 17.3525C13.7916 17.3235 14.0414 17.2974 14.2844 17.2571C14.5296 17.2195 14.7715 17.1864 15.0064 17.1384C15.4793 17.0522 15.9336 16.952 16.3618 16.8477C16.5755 16.7908 16.7829 16.737 16.9822 16.6827C17.1816 16.6219 17.3744 16.5635 17.5599 16.5075C17.7443 16.4552 17.9175 16.385 18.0858 16.3303C18.252 16.2698 18.4117 16.2218 18.5591 16.1628C18.8518 16.0444 19.1102 15.9506 19.3177 15.859C19.735 15.6758 19.9737 15.5709 19.9737 15.5709C19.9737 15.5709 19.7393 15.6851 19.327 15.8849C19.122 15.9836 18.8638 16.0863 18.5735 16.2132C18.4285 16.278 18.2694 16.331 18.1035 16.3958C17.9372 16.4556 17.7645 16.5279 17.5789 16.5846C17.394 16.645 17.2023 16.7077 17.0043 16.7728C16.8038 16.8293 16.5958 16.8882 16.3825 16.9494C15.9543 17.0632 15.5001 17.1743 15.0258 17.2605C14.7907 17.3108 14.5474 17.3453 14.3024 17.3851C14.0594 17.4269 13.8086 17.4538 13.5575 17.4856C13.0558 17.5451 12.5421 17.5839 12.0278 17.6097C11.771 17.6179 11.5136 17.6239 11.2567 17.6262C11 17.622 10.7436 17.6271 10.4903 17.6156C9.98182 17.6012 9.48225 17.5676 8.99773 17.5233C8.51439 17.4791 8.04737 17.4177 7.60503 17.3458C7.16289 17.2771 6.74506 17.1916 6.36113 17.1122C5.59291 16.9455 4.95711 16.7615 4.51659 16.6192C4.07367 16.4764 3.82521 16.3745 3.82521 16.3745Z" fill="#F6A715"/>
<g style="mix-blend-mode:lighten">
<path d="M20.5382 19.6204C20.5382 19.6204 20.5513 19.8432 20.575 20.232C20.5972 20.6215 20.6282 21.1766 20.6657 21.8439C20.7013 22.5107 20.7424 23.2892 20.786 24.1234C20.8286 24.957 20.8724 25.8461 20.9169 26.7366C20.9576 27.6259 20.9991 28.5159 21.0376 29.3496C21.0726 30.1836 21.1061 30.9618 21.1344 31.6301C21.1608 32.2973 21.183 32.8527 21.1981 33.2425C21.2117 33.6318 21.2199 33.8541 21.2199 33.8541C21.2199 33.8541 21.2067 33.632 21.1837 33.2431C21.162 32.8536 21.1299 32.2987 21.0922 31.6319C21.0571 30.9639 21.0157 30.186 20.9719 29.3524C20.9295 28.5188 20.8858 27.629 20.8419 26.7398C20.8005 25.8492 20.7591 24.9599 20.7216 24.1261C20.6855 23.2916 20.6524 22.5128 20.6235 21.8457C20.5979 21.1779 20.5762 20.6224 20.5606 20.2326C20.5464 19.8434 20.5382 19.6204 20.5382 19.6204Z" fill="#F2BD5D"/>
</g>
<defs>
<linearGradient id="paint0_linear_14635_298840" x1="4.98417" y1="29.9439" x2="19.334" y2="28.9414" gradientUnits="userSpaceOnUse">
<stop stop-color="#434F5B"/>
<stop offset="0.0099202" stop-color="#4B5662"/>
<stop offset="0.0248828" stop-color="#5F6A74"/>
<stop offset="0.0430289" stop-color="#818992"/>
<stop offset="0.0636744" stop-color="#B0B6BC"/>
<stop offset="0.0861402" stop-color="#ECEEF1"/>
<stop offset="0.0917172" stop-color="#FCFDFF"/>
<stop offset="0.516175" stop-color="#F9FAFE"/>
<stop offset="0.540971" stop-color="#F4F5FA"/>
<stop offset="0.621916" stop-color="#E7EAF0"/>
<stop offset="0.699984" stop-color="#E3E6ED"/>
<stop offset="0.741813" stop-color="#DCDFE6"/>
<stop offset="0.804866" stop-color="#C9CCD1"/>
<stop offset="0.880957" stop-color="#ABACAF"/>
<stop offset="0.904954" stop-color="#A0A1A3"/>
<stop offset="0.921511" stop-color="#989A9D"/>
<stop offset="0.946468" stop-color="#84888D"/>
<stop offset="0.976562" stop-color="#626A73"/>
<stop offset="1" stop-color="#434F5B"/>
</linearGradient>
<linearGradient id="paint1_linear_14635_298840" x1="4.98085" y1="29.9467" x2="19.3178" y2="28.9458" gradientUnits="userSpaceOnUse">
<stop stop-color="#EDEDE1"/>
<stop offset="0.192501" stop-color="#E6E6DA"/>
<stop offset="0.340242" stop-color="#DEDCD0"/>
<stop offset="0.493022" stop-color="#E5E2D6"/>
<stop offset="0.702647" stop-color="#F8F2E6"/>
<stop offset="1" stop-color="#FFFEF9"/>
</linearGradient>
<linearGradient id="paint2_linear_14635_298840" x1="19.8846" y1="29.5014" x2="5.54864" y2="30.5022" gradientUnits="userSpaceOnUse">
<stop stop-color="#EDEDE1"/>
<stop offset="0.192501" stop-color="#E6E6DA"/>
<stop offset="0.340242" stop-color="#DEDCD0"/>
<stop offset="0.493022" stop-color="#E5E2D6"/>
<stop offset="0.702647" stop-color="#F8F2E6"/>
<stop offset="1" stop-color="#FFFEF9"/>
</linearGradient>
<linearGradient id="paint3_linear_14635_298840" x1="6.39355" y1="4.94056" x2="16.061" y2="4.26" gradientUnits="userSpaceOnUse">
<stop stop-color="#434F5B"/>
<stop offset="0.0099202" stop-color="#4B5662"/>
<stop offset="0.0248828" stop-color="#5F6A74"/>
<stop offset="0.0430289" stop-color="#818992"/>
<stop offset="0.0636744" stop-color="#B0B6BC"/>
<stop offset="0.0861402" stop-color="#ECEEF1"/>
<stop offset="0.0917172" stop-color="#FCFDFF"/>
<stop offset="0.356166" stop-color="#F9FAFE"/>
<stop offset="0.387878" stop-color="#F4F5FA"/>
<stop offset="0.491398" stop-color="#E7EAF0"/>
<stop offset="0.591239" stop-color="#E3E6ED"/>
<stop offset="0.65526" stop-color="#DCDFE6"/>
<stop offset="0.751765" stop-color="#C9CCD1"/>
<stop offset="0.868225" stop-color="#ABACAF"/>
<stop offset="0.904954" stop-color="#A0A1A3"/>
<stop offset="0.921511" stop-color="#989A9D"/>
<stop offset="0.946468" stop-color="#84888D"/>
<stop offset="0.976562" stop-color="#626A73"/>
<stop offset="1" stop-color="#434F5B"/>
</linearGradient>
<linearGradient id="paint4_linear_14635_298840" x1="11.6762" y1="11.4997" x2="11.6298" y2="4.38418" gradientUnits="userSpaceOnUse">
<stop stop-color="#434F5B"/>
<stop offset="0.0099202" stop-color="#4B5662"/>
<stop offset="0.0248828" stop-color="#5F6A74"/>
<stop offset="0.0430289" stop-color="#818992"/>
<stop offset="0.0636744" stop-color="#B0B6BC"/>
<stop offset="0.0861402" stop-color="#ECEEF1"/>
<stop offset="0.0917172" stop-color="#FCFDFF"/>
<stop offset="0.356166" stop-color="#F9FAFE"/>
<stop offset="0.387878" stop-color="#F4F5FA"/>
<stop offset="0.491398" stop-color="#E7EAF0"/>
<stop offset="0.591239" stop-color="#E3E6ED"/>
<stop offset="0.65526" stop-color="#DCDFE6"/>
<stop offset="0.751765" stop-color="#C9CCD1"/>
<stop offset="0.868225" stop-color="#ABACAF"/>
<stop offset="0.904954" stop-color="#A0A1A3"/>
<stop offset="0.921511" stop-color="#989A9D"/>
<stop offset="0.946468" stop-color="#84888D"/>
<stop offset="0.976562" stop-color="#626A73"/>
<stop offset="1" stop-color="#434F5B"/>
</linearGradient>
<linearGradient id="paint5_linear_14635_298840" x1="4.96569" y1="15.947" x2="20.4183" y2="10.4596" gradientUnits="userSpaceOnUse">
<stop stop-color="#434F5B"/>
<stop offset="0.0099202" stop-color="#4B5662"/>
<stop offset="0.0248828" stop-color="#5F6A74"/>
<stop offset="0.0430289" stop-color="#818992"/>
<stop offset="0.0636744" stop-color="#B0B6BC"/>
<stop offset="0.0861402" stop-color="#ECEEF1"/>
<stop offset="0.0917172" stop-color="#FCFDFF"/>
<stop offset="0.356166" stop-color="#F9FAFE"/>
<stop offset="0.387878" stop-color="#F4F5FA"/>
<stop offset="0.491398" stop-color="#E7EAF0"/>
<stop offset="0.591239" stop-color="#E3E6ED"/>
<stop offset="0.65526" stop-color="#DCDFE6"/>
<stop offset="0.751765" stop-color="#C9CCD1"/>
<stop offset="0.868225" stop-color="#ABACAF"/>
<stop offset="0.904954" stop-color="#A0A1A3"/>
<stop offset="0.921511" stop-color="#989A9D"/>
<stop offset="0.946468" stop-color="#84888D"/>
<stop offset="0.976562" stop-color="#626A73"/>
<stop offset="1" stop-color="#434F5B"/>
</linearGradient>
<linearGradient id="paint6_linear_14635_298840" x1="11.0943" y1="-2.9471" x2="11.0271" y2="4.88967" gradientUnits="userSpaceOnUse">
<stop stop-color="#434F5B"/>
<stop offset="0.0099202" stop-color="#4B5662"/>
<stop offset="0.0248828" stop-color="#5F6A74"/>
<stop offset="0.0430289" stop-color="#818992"/>
<stop offset="0.0636744" stop-color="#B0B6BC"/>
<stop offset="0.0861402" stop-color="#ECEEF1"/>
<stop offset="0.0917172" stop-color="#FCFDFF"/>
<stop offset="0.356166" stop-color="#F9FAFE"/>
<stop offset="0.387878" stop-color="#F4F5FA"/>
<stop offset="0.491398" stop-color="#E7EAF0"/>
<stop offset="0.591239" stop-color="#E3E6ED"/>
<stop offset="0.65526" stop-color="#DCDFE6"/>
<stop offset="0.751765" stop-color="#C9CCD1"/>
<stop offset="0.868225" stop-color="#ABACAF"/>
<stop offset="0.904954" stop-color="#A0A1A3"/>
<stop offset="0.921511" stop-color="#989A9D"/>
<stop offset="0.946468" stop-color="#84888D"/>
<stop offset="0.976562" stop-color="#626A73"/>
<stop offset="1" stop-color="#434F5B"/>
</linearGradient>
<linearGradient id="paint7_linear_14635_298840" x1="7.57881" y1="30.8268" x2="8.03884" y2="45.7456" gradientUnits="userSpaceOnUse">
<stop offset="0.211675" stop-color="white"/>
<stop offset="0.604432"/>
</linearGradient>
<linearGradient id="paint8_linear_14635_298840" x1="3.10167" y1="32.4917" x2="21.954" y2="31.1681" gradientUnits="userSpaceOnUse">
<stop stop-color="#F4B33B"/>
<stop offset="0.10442" stop-color="#F5B134"/>
<stop offset="0.220584" stop-color="#F6AC25"/>
<stop offset="0.271342" stop-color="#F5AE2C"/>
<stop offset="0.452421" stop-color="#F4B43F"/>
<stop offset="0.577228" stop-color="#F3B646"/>
<stop offset="0.936962" stop-color="#F2BD58"/>
<stop offset="1" stop-color="#F4B33B"/>
</linearGradient>
<linearGradient id="paint9_linear_14635_298840" x1="20.9662" y1="16.2802" x2="16.4625" y2="16.6022" gradientUnits="userSpaceOnUse">
<stop offset="0.0887675" stop-color="#F3B848"/>
<stop offset="0.12472" stop-color="#F3B745"/>
<stop offset="0.309931" stop-color="#F4B23A"/>
<stop offset="0.509786" stop-color="#F4B136"/>
<stop offset="0.574498" stop-color="#F5AF2F"/>
<stop offset="0.732114" stop-color="#F6AB22"/>
<stop offset="0.884148" stop-color="#F6AA1E"/>
<stop offset="0.928373" stop-color="#F2A517"/>
<stop offset="0.994888" stop-color="#E79602"/>
<stop offset="1" stop-color="#E69500"/>
</linearGradient>
<linearGradient id="paint10_linear_14635_298840" x1="2.63478" y1="17.0443" x2="7.1377" y2="16.7224" gradientUnits="userSpaceOnUse">
<stop offset="0.0887675" stop-color="#F3B848"/>
<stop offset="0.12472" stop-color="#F3B745"/>
<stop offset="0.309931" stop-color="#F4B23A"/>
<stop offset="0.509786" stop-color="#F4B136"/>
<stop offset="0.574498" stop-color="#F5AF2F"/>
<stop offset="0.732114" stop-color="#F6AB22"/>
<stop offset="0.884148" stop-color="#F6AA1E"/>
<stop offset="0.928373" stop-color="#F2A517"/>
<stop offset="0.994888" stop-color="#E79602"/>
<stop offset="1" stop-color="#E69500"/>
</linearGradient>
</defs>
</svg>
