<svg width="46" height="56" viewBox="0 0 46 56" fill="none" xmlns="http://www.w3.org/2000/svg">
<path d="M7.18086 0H46.0005V56H7.18086V0Z" fill="#AEE1FB"/>
<path d="M7.18086 9.5614H46.0005V11.8376H7.18086V9.5614Z" fill="#F59686"/>
<path d="M7.18086 51.7356C7.18086 50.5117 8.15894 49.5202 9.365 49.5202C9.44629 49.5202 9.5154 49.5583 9.59462 49.5669C9.20416 49.1667 8.9613 48.6177 8.9613 48.01C8.9613 46.786 9.93898 45.7941 11.1454 45.7941C11.9833 45.7941 12.6882 46.2894 13.0544 46.9923C13.0427 46.8988 13.0002 46.8164 13.0002 46.72C13.0002 45.7769 13.5855 44.9835 14.4039 44.6637C13.3248 44.5296 12.4764 43.632 12.4764 42.5007C12.4764 41.2772 13.4546 40.2853 14.6606 40.2853C14.8894 40.2853 15.0979 40.3509 15.3049 40.4169C14.6048 40.0483 14.1117 39.3274 14.1117 38.4717C14.1117 37.2481 15.0895 36.2559 16.2955 36.2559C17.283 36.2559 18.0853 36.9336 18.3553 37.846C18.4708 36.7328 19.367 35.8536 20.495 35.8536C21.7011 35.8536 22.6788 36.8459 22.6788 38.0695C22.6788 38.2762 22.6154 38.4622 22.5628 38.6521C22.9496 38.2995 23.4492 38.0695 24.0102 38.0695C24.2458 38.0695 24.462 38.1355 24.6747 38.2056C24.6633 38.1146 24.6217 38.0346 24.6217 37.9411C24.6217 36.7171 25.5998 35.7253 26.8059 35.7253C27.5637 35.7253 28.1987 36.1411 28.5903 36.7356C28.5903 36.7258 28.5847 36.7176 28.5847 36.7073C28.5847 35.4838 29.5628 34.4915 30.7689 34.4915C31.5684 34.4915 32.2373 34.949 32.6177 35.5994C32.7478 34.5013 33.6342 33.6382 34.7513 33.6382C35.8463 33.6382 36.714 34.4694 36.8721 35.5354C37.0301 34.4694 37.8979 33.6382 38.9928 33.6382C40.0987 33.6382 40.9757 34.4853 41.1197 35.5674C41.5177 35.0233 42.1252 34.6473 42.8443 34.6473C44.0508 34.6473 45.0284 35.6392 45.0284 36.8628C45.0284 36.8947 45.0119 36.921 45.0103 36.9525L46.0005 37.2764V56H7.18086V52.0734L7.24634 52.0632C7.22896 51.9517 7.18086 51.8516 7.18086 51.7356Z" fill="#FCCC77"/>
<path d="M19.0797 6.0614C21.7987 6.0614 24.0107 8.30464 24.0107 11.0634C24.0107 13.8218 21.7987 16.0663 19.0797 16.0663C16.3608 16.0663 14.1483 13.8218 14.1483 11.0634C14.1483 8.30464 16.3608 6.0614 19.0797 6.0614Z" fill="white"/>
<path d="M19.0798 3.78467C23.0364 3.78467 26.2549 7.04981 26.2549 11.0633C26.2549 15.0771 23.0364 18.3423 19.0798 18.3423C15.1229 18.3423 11.9043 15.0771 11.9043 11.0633C11.9043 7.04981 15.1229 3.78467 19.0798 3.78467ZM19.0798 16.0661C21.7988 16.0661 24.0108 13.8216 24.0108 11.0633C24.0108 8.30449 21.7988 6.06125 19.0798 6.06125C16.3609 6.06125 14.1484 8.30449 14.1484 11.0633C14.1484 13.8216 16.3609 16.0661 19.0798 16.0661Z" fill="#F59686"/>
<path d="M16.4917 8.08101C17.6322 7.32246 19.1366 8.01711 19.4171 9.95207C19.4171 9.95207 19.9943 9.7109 20.7125 9.58099C22.444 9.26683 24.2887 11.8518 21.6558 13.423C20.7667 13.9536 17.5098 14.4551 17.5098 14.4551C17.5098 14.4551 15.8745 11.7804 15.7063 10.4711C15.5382 9.16228 15.8692 8.49518 16.4917 8.08101Z" fill="#EA1620"/>
<path d="M24.8362 37.0104C25.9828 36.1264 27.4747 35.9313 28.8836 36.2338C29.3767 36.3396 29.9596 36.4008 30.5869 36.4008C31.2138 36.4008 31.7958 36.3347 32.2897 36.2338C33.7246 35.9403 35.231 36.1408 36.3376 37.0104C38.0335 38.343 39.1196 40.219 39.1196 42.3307C39.1196 44.9828 37.4216 47.2811 34.9027 48.5317C34.1441 48.9081 33.2723 48.895 32.4494 48.701C32.0036 48.5961 31.4466 48.5333 30.8387 48.5333C30.0744 48.5333 29.3885 48.6322 28.9047 48.79C28.0248 49.0775 27.0612 48.9257 26.2326 48.51C23.7344 47.2569 22.0538 44.9693 22.0538 42.3307C22.0538 40.219 23.1277 38.3267 24.8362 37.0104Z" fill="#C1D852"/>
<path opacity="0.3" d="M31.0397 42.1183C31.0397 44.8425 32.5739 47.0514 34.4664 47.0514C36.3587 47.0514 37.8926 44.8425 37.8926 42.1183C37.8926 39.3935 36.3587 37.1851 34.4664 37.1851C32.5739 37.1851 31.0397 39.3935 31.0397 42.1183Z" fill="#FBE833"/>
<path d="M35.1706 37.9519C35.1706 37.9519 35.9265 38.2587 36.3294 38.9229C36.7328 39.5876 37.1357 40.4568 37.1357 41.4283C37.1357 42.3996 36.8335 43.524 36.481 44.2907C36.1281 45.0579 35.6492 45.6713 35.6492 45.6713C35.6492 45.6713 36.1281 44.342 36.2793 43.4218C36.4305 42.5017 36.3799 41.3769 36.0776 40.6103C35.7753 39.8435 35.2357 39.0423 34.7172 38.7187C33.2212 37.7859 34.3247 37.5037 35.1706 37.9519Z" fill="#F2F2F2"/>
<path d="M24.8353 37.0104C25.9824 36.1264 27.4743 35.9313 28.8832 36.2338C29.3763 36.3392 29.9591 36.4008 30.5865 36.4008C31.2134 36.4008 31.7954 36.3347 32.2893 36.2338C33.2654 36.0341 34.2653 36.0862 35.159 36.3983C32.7691 36.2138 30.7053 36.7903 31.6717 37.1847C35.7899 38.8655 25.0895 35.4859 24.8164 41.1974C24.6151 45.415 28.173 48.0557 32.6118 48.0557C34.4767 48.0557 36.1246 47.491 37.4531 46.5824C36.7664 47.3667 35.9031 48.0348 34.9023 48.5317C34.1436 48.9081 33.2718 48.8946 32.449 48.701C32.0031 48.5961 31.4461 48.5333 30.8383 48.5333C30.0739 48.5333 29.388 48.6322 28.9042 48.79C28.024 49.0775 27.0608 48.9257 26.2322 48.51C23.7339 47.2569 22.0534 44.9693 22.0534 42.3307C22.0534 40.219 23.1272 38.3267 24.8353 37.0104Z" fill="#7DB23E"/>
<path d="M30.9673 37.1851L30.5845 35.5573C30.3505 34.563 29.99 33.6039 29.5114 32.7038L29.2083 32.1331H27.6631L28.4141 33.0819C29.0114 33.836 29.4868 34.681 29.8235 35.586L30.4181 37.1851H30.9673Z" fill="#572D1A"/>
<path d="M40.1834 51.2634L40.1775 51.2621C40.1798 51.2571 40.1843 51.2535 40.1865 51.2485C40.1851 51.2535 40.1847 51.2585 40.1834 51.2634Z" fill="#F9C050"/>
<path d="M34.1728 51.4719C33.6534 51.0668 33.2969 50.4596 33.2969 49.7436C33.2969 48.5196 34.2746 47.5281 35.4807 47.5281C35.8335 47.5281 36.1537 47.6319 36.4487 47.7824C36.3646 47.5466 36.2996 47.3002 36.2996 47.0349C36.2996 45.8109 37.2777 44.8191 38.4838 44.8191C39.6899 44.8191 40.668 45.8109 40.668 47.0349C40.668 47.2121 40.6073 47.3695 40.5685 47.5351C40.9145 46.775 41.6623 46.2406 42.5418 46.2406C43.7479 46.2406 44.7256 47.2326 44.7256 48.4565C44.7256 48.6398 44.6641 48.803 44.6516 48.9342C44.6516 48.9342 45.5372 49.4603 45.2942 50.5744C45.1577 51.2001 44.6487 51.6781 44.6487 51.6781C44.686 51.5252 44.741 51.3793 44.741 51.2148C44.741 50.1184 43.8651 49.2294 42.7843 49.2294C41.9962 49.2294 41.3264 49.7083 41.0164 50.3894C41.0512 50.241 41.1053 50.0999 41.1053 49.9408C41.1053 48.8448 40.2295 47.9558 39.1487 47.9558C38.0679 47.9558 37.192 48.8448 37.192 49.9408C37.192 50.1787 37.2498 50.4001 37.325 50.6108C37.061 50.4759 36.7741 50.3829 36.458 50.3829C35.3773 50.3829 34.501 51.2718 34.501 52.3682C34.501 53.0096 34.8207 53.5536 35.2863 53.9166C34.3252 54.0068 33.5831 54.6698 33.2965 55.5182C31.82 54.5275 32.1296 51.6565 34.1728 51.4719ZM40.4542 47.9715C40.4554 47.9661 40.4558 47.9612 40.457 47.9558C40.455 47.9612 40.4506 47.9649 40.4481 47.9702L40.4542 47.9715Z" fill="#F9C050"/>
<path d="M19.4975 49.6678C19.2614 49.2008 19.2085 48.6448 19.4466 48.1331C19.8532 47.2592 20.8818 46.8849 21.7436 47.2978C21.9954 47.4184 22.1897 47.6025 22.3502 47.8108C22.3684 47.6135 22.4044 47.4151 22.4924 47.2257C22.8994 46.351 23.9277 45.9771 24.7894 46.39C25.6512 46.8025 26.0202 47.8461 25.6132 48.7203C25.5542 48.847 25.4584 48.9388 25.3755 49.0437C25.8758 48.619 26.5876 48.4931 27.2157 48.7941C28.0775 49.2065 28.4465 50.25 28.0395 51.1243C27.9785 51.2551 27.8802 51.351 27.8277 51.4404C27.8277 51.4404 28.2852 52.119 27.7416 52.8321C27.436 53.2323 26.9134 53.3995 26.9134 53.3995C26.991 53.3032 27.0788 53.2175 27.1333 53.1002C27.4979 52.3171 27.1677 51.3822 26.3953 51.0124C25.8326 50.743 25.1948 50.8557 24.7466 51.2362C24.8209 51.1419 24.9066 51.0599 24.9596 50.9464C25.3241 50.1631 24.9935 49.2283 24.2216 48.8584C23.4496 48.4886 22.528 48.824 22.1635 49.6071C22.0847 49.7769 22.0523 49.9544 22.0362 50.1315C21.8922 49.9446 21.7185 49.7798 21.4925 49.6715C20.7205 49.302 19.799 49.6371 19.4344 50.4203C19.221 50.8787 19.2687 51.3768 19.4801 51.7951C18.7643 51.5307 18.0133 51.7504 17.5267 52.2588C16.8012 51.0455 17.977 49.1007 19.4975 49.6678ZM25.1492 49.316C25.1516 49.3131 25.1536 49.3094 25.1564 49.3062C25.1532 49.309 25.1487 49.3103 25.1451 49.3131L25.1492 49.316Z" fill="#F9C050"/>
<path d="M0.000864983 4.75306L7.18115 0V56H0.000864983V4.75306Z" fill="#8FCDE5"/>
<path d="M42.255 31.6777C43.4942 31.6777 44.5034 32.7012 44.5034 33.9588C44.5034 35.2164 43.4942 36.2395 42.255 36.2395C41.0154 36.2395 40.0065 35.2164 40.0065 33.9588C40.0065 32.7012 41.0154 31.6777 42.255 31.6777ZM42.255 35.3292C42.9999 35.3292 43.6057 34.7145 43.6057 33.9588C43.6057 33.2031 42.9999 32.5885 42.255 32.5885C41.5101 32.5885 40.9042 33.2031 40.9042 33.9588C40.9042 34.7145 41.5101 35.3292 42.255 35.3292Z" fill="#FBE833"/>
<path d="M39.9547 50.9708C41.1943 50.9708 42.2031 51.9943 42.2031 53.2515C42.2031 54.5091 41.1943 55.5325 39.9547 55.5325C38.7154 55.5325 37.7066 54.5091 37.7066 53.2515C37.7066 51.9943 38.7154 50.9708 39.9547 50.9708ZM39.9547 54.6218C40.7 54.6218 41.3058 54.0072 41.3058 53.2515C41.3058 52.4958 40.7 51.8811 39.9547 51.8811C39.2098 51.8811 38.6043 52.4958 38.6043 53.2515C38.6043 54.0072 39.2098 54.6218 39.9547 54.6218Z" fill="#F2F2F2"/>
<path d="M18.7197 39.2745C19.959 39.2745 20.9678 40.2985 20.9678 41.5556C20.9678 42.8132 19.959 43.8366 18.7197 43.8366C17.4801 43.8366 16.4713 42.8132 16.4713 41.5556C16.4713 40.2985 17.4801 39.2745 18.7197 39.2745ZM18.7197 42.926C19.4646 42.926 20.0701 42.3117 20.0701 41.5556C20.0701 40.7999 19.4646 40.1852 18.7197 40.1852C17.9744 40.1852 17.369 40.7999 17.369 41.5556C17.369 42.3117 17.9744 42.926 18.7197 42.926Z" fill="#FBE833"/>
<path d="M13.7228 50.7498C14.5703 50.7498 15.2603 51.4497 15.2603 52.3095C15.2603 53.1693 14.5703 53.8693 13.7228 53.8693C12.8752 53.8693 12.1853 53.1693 12.1853 52.3095C12.1853 51.4497 12.8752 50.7498 13.7228 50.7498ZM13.7228 53.2464C14.2324 53.2464 14.6467 52.8266 14.6467 52.3095C14.6467 51.7925 14.2324 51.3722 13.7228 51.3722C13.2131 51.3722 12.7992 51.7925 12.7992 52.3095C12.7992 52.8266 13.2131 53.2464 13.7228 53.2464Z" fill="#7DB23E"/>
<path d="M10.8262 44.0371C11.6738 44.0371 12.3638 44.737 12.3638 45.5969C12.3638 46.4568 11.6738 47.1567 10.8262 47.1567C9.97864 47.1567 9.28871 46.4568 9.28871 45.5969C9.28871 44.737 9.97864 44.0371 10.8262 44.0371ZM10.8262 46.5339C11.3359 46.5339 11.7498 46.114 11.7498 45.5969C11.7498 45.0798 11.3359 44.66 10.8262 44.66C10.3165 44.66 9.90266 45.0798 9.90266 45.5969C9.90266 46.114 10.3165 46.5339 10.8262 46.5339Z" fill="#C1D852"/>
<path d="M28.8219 47.4091C29.6694 47.4091 30.3594 48.109 30.3594 48.9689C30.3594 49.8287 29.6694 50.5287 28.8219 50.5287C27.9743 50.5287 27.2844 49.8287 27.2844 48.9689C27.2844 48.109 27.9743 47.4091 28.8219 47.4091ZM28.8219 49.9062C29.3311 49.9062 29.7454 49.4859 29.7454 48.9689C29.7454 48.4522 29.3311 48.0319 28.8219 48.0319C28.3122 48.0319 27.8979 48.4522 27.8979 48.9689C27.8979 49.4859 28.3122 49.9062 28.8219 49.9062Z" fill="#F59686"/>
<path d="M22.0923 43.5852C22.9399 43.5852 23.6299 44.2847 23.6299 45.1451C23.6299 46.0049 22.9399 46.7048 22.0923 46.7048C21.2448 46.7048 20.5548 46.0049 20.5548 45.1451C20.5548 44.2847 21.2448 43.5852 22.0923 43.5852ZM22.0923 46.082C22.602 46.082 23.0163 45.6617 23.0163 45.1451C23.0163 44.6279 22.602 44.2076 22.0923 44.2076C21.5831 44.2076 21.1688 44.6279 21.1688 45.1451C21.1688 45.6617 21.5831 46.082 22.0923 46.082Z" fill="#19A1A1"/>
<path d="M40.1642 29.9124C41.0117 29.9124 41.7017 30.6123 41.7017 31.4721C41.7017 32.3319 41.0117 33.0323 40.1642 33.0323C39.3166 33.0323 38.6267 32.3319 38.6267 31.4721C38.6267 30.6123 39.3166 29.9124 40.1642 29.9124ZM40.1642 32.4095C40.6738 32.4095 41.0881 31.9892 41.0881 31.4721C41.0881 30.9555 40.6738 30.5352 40.1642 30.5352C39.6549 30.5352 39.2406 30.9555 39.2406 31.4721C39.2406 31.9892 39.6549 32.4095 40.1642 32.4095Z" fill="#F2F2F2"/>
<path d="M40.5353 38.5975C41.3833 38.5975 42.0732 39.2975 42.0732 40.1573C42.0732 41.0171 41.3833 41.7171 40.5353 41.7171C39.6878 41.7171 38.9978 41.0171 38.9978 40.1573C38.9978 39.2975 39.6878 38.5975 40.5353 38.5975ZM40.5353 41.0946C41.045 41.0946 41.4593 40.6743 41.4593 40.1573C41.4593 39.6403 41.045 39.22 40.5353 39.22C40.0261 39.22 39.6118 39.6403 39.6118 40.1573C39.6118 40.6743 40.0261 41.0946 40.5353 41.0946Z" fill="#F15B40"/>
<path d="M23.2755 34.0367C24.123 34.0367 24.813 34.7367 24.813 35.5965C24.813 36.4564 24.123 37.1564 23.2755 37.1564C22.4279 37.1564 21.7379 36.4564 21.7379 35.5965C21.7379 34.7367 22.4279 34.0367 23.2755 34.0367ZM23.2755 36.5335C23.7852 36.5335 24.199 36.1136 24.199 35.5965C24.199 35.0795 23.7852 34.6596 23.2755 34.6596C22.7658 34.6596 22.3519 35.0795 22.3519 35.5965C22.3519 36.1136 22.7658 36.5335 23.2755 36.5335Z" fill="#F2F2F2"/>
<path d="M13.0254 38.6272C13.5391 38.6272 13.957 39.0516 13.957 39.5728C13.957 40.0939 13.5391 40.5179 13.0254 40.5179C12.5117 40.5179 12.0933 40.0939 12.0933 39.5728C12.0933 39.0516 12.5117 38.6272 13.0254 38.6272ZM13.0254 40.1407C13.3342 40.1407 13.5852 39.8861 13.5852 39.5728C13.5852 39.2595 13.3342 39.0048 13.0254 39.0048C12.7166 39.0048 12.4656 39.2595 12.4656 39.5728C12.4656 39.8861 12.7166 40.1407 13.0254 40.1407Z" fill="#FBE833"/>
<path d="M19.5225 37.8816C20.0362 37.8816 20.4546 38.3056 20.4546 38.8267C20.4546 39.3479 20.0362 39.7723 19.5225 39.7723C19.0088 39.7723 18.5909 39.3479 18.5909 38.8267C18.5909 38.3056 19.0088 37.8816 19.5225 37.8816ZM19.5225 39.3947C19.8314 39.3947 20.0824 39.1401 20.0824 38.8267C20.0824 38.5135 19.8314 38.2589 19.5225 38.2589C19.2138 38.2589 18.9627 38.5135 18.9627 38.8267C18.9627 39.1401 19.2138 39.3947 19.5225 39.3947Z" fill="#F15B40"/>
<path d="M23.545 49.5935C24.0587 49.5935 24.4771 50.0175 24.4771 50.5386C24.4771 51.0598 24.0587 51.4838 23.545 51.4838C23.0313 51.4838 22.6133 51.0598 22.6133 50.5386C22.6133 50.0175 23.0313 49.5935 23.545 49.5935ZM23.545 51.1066C23.8538 51.1066 24.1048 50.8519 24.1048 50.5386C24.1048 50.2254 23.8538 49.9707 23.545 49.9707C23.2362 49.9707 22.9852 50.2254 22.9852 50.5386C22.9852 50.8519 23.2362 51.1066 23.545 51.1066Z" fill="#F2F2F2"/>
<path d="M20.833 50.5387C21.3467 50.5387 21.7646 50.9631 21.7646 51.4838C21.7646 52.005 21.3467 52.4294 20.833 52.4294C20.3189 52.4294 19.901 52.005 19.901 51.4838C19.901 50.9631 20.3189 50.5387 20.833 50.5387ZM20.833 52.0521C21.1418 52.0521 21.3928 51.7971 21.3928 51.4838C21.3928 51.1705 21.1418 50.9159 20.833 50.9159C20.5238 50.9159 20.2728 51.1705 20.2728 51.4838C20.2728 51.7971 20.5238 52.0521 20.833 52.0521Z" fill="#F15B40"/>
<path d="M36.98 52.5226C37.4937 52.5226 37.9116 52.9466 37.9116 53.4677C37.9116 53.9889 37.4937 54.4129 36.98 54.4129C36.4663 54.4129 36.0479 53.9889 36.0479 53.4677C36.0479 52.9466 36.4663 52.5226 36.98 52.5226ZM36.98 54.0357C37.2884 54.0357 37.5398 53.781 37.5398 53.4677C37.5398 53.1544 37.2884 52.8998 36.98 52.8998C36.6708 52.8998 36.4202 53.1544 36.4202 53.4677C36.4202 53.781 36.6708 54.0357 36.98 54.0357Z" fill="#C1D852"/>
</svg>
