<svg width="56" height="56" viewBox="0 0 56 56" fill="none" xmlns="http://www.w3.org/2000/svg">
<path d="M43.939 1.28889C44.5936 0.910944 45.4181 0.408625 46.1725 0.238417C46.3589 0.223753 46.5498 0.212746 46.7345 0.210571C47.568 0.317244 48.5418 1.01485 49.1366 1.41244C50.4264 2.28493 52.0515 3.57017 52.6941 5.06316C52.7194 5.16551 52.7419 5.26573 52.7628 5.3694C52.8062 5.75272 52.8328 6.1402 52.8284 6.52484C52.824 7.48459 52.6853 8.40157 52.4362 9.28187C51.743 9.4676 50.9824 9.00542 50.501 8.79919C49.1888 8.23766 48.0705 7.20771 46.8451 6.46759C45.67 5.75921 44.2208 5.13767 43.5186 3.7274C43.3052 3.30193 42.9667 2.60221 43.1041 1.92946C43.3545 1.68543 43.6333 1.46816 43.939 1.28889Z" fill="url(#paint0_radial_13257_267730)"/>
<path d="M5.68058 13.4673C3.86296 15.693 2.25872 18.1348 1.17903 20.7905C-0.298364 24.4199 -0.223932 28.5976 0.512671 32.3863C1.03765 35.0857 2.19596 37.6183 2.74032 40.3118C3.30538 43.1062 2.6104 45.9108 3.01162 48.7141C3.2979 50.7101 4.79335 52.6637 6.6407 53.5338C7.63517 54.0016 8.77146 54.0396 9.90158 53.8569C10.5979 53.8731 11.3048 53.7969 11.9905 53.7721C14.962 53.6509 17.7429 54.6817 20.7084 55.005C23.8546 55.3499 26.9706 56.182 30.1586 55.9641C32.9495 55.7754 35.6544 54.8733 38.1683 53.699C46.0347 50.0244 51.8198 42.3342 54.4813 34.3501C56.3555 28.7248 56.533 22.0699 54.805 16.3567C54.4604 15.2134 53.9669 14.1005 53.4465 13.025C53.5568 11.9356 53.7284 10.8359 53.5837 9.78242C53.4124 8.5445 52.5698 7.45514 51.7782 6.50596C50.885 5.43433 49.6609 4.54068 48.5114 3.74461C47.3185 2.92135 46.169 2.07453 44.9089 1.35386C44.317 1.01091 43.7744 0.844817 43.1125 0.689735C42.4818 0.545264 41.9674 0.653254 41.3158 0.762299C40.6551 0.874838 39.9678 1.28581 39.3059 1.26248C35.5453 1.1301 31.7956 -0.201344 28.0412 0.0260724C23.9187 0.278962 19.9511 1.68775 16.4068 3.7256C13.5591 5.36394 11.0169 7.57654 8.72962 9.98694C7.66049 11.1167 6.6451 12.2887 5.68058 13.4673Z" fill="url(#paint1_radial_13257_267730)"/>
<defs>
<radialGradient id="paint0_radial_13257_267730" cx="0" cy="0" r="1" gradientUnits="userSpaceOnUse" gradientTransform="translate(51.208 0.721456) rotate(-145.687) scale(8.86166 8.8005)">
<stop offset="0.0418327" stop-color="#D5FB52"/>
<stop offset="0.183474" stop-color="#F8FB23"/>
<stop offset="0.491154" stop-color="#F1D919"/>
<stop offset="0.6152" stop-color="#E3C517"/>
<stop offset="0.794882" stop-color="#D2AE16"/>
<stop offset="0.908322" stop-color="#CCA615"/>
<stop offset="0.935539" stop-color="#CFAA15"/>
<stop offset="0.960443" stop-color="#D9B516"/>
<stop offset="0.984369" stop-color="#EAC718"/>
<stop offset="0.996751" stop-color="#F6D419"/>
</radialGradient>
<radialGradient id="paint1_radial_13257_267730" cx="0" cy="0" r="1" gradientUnits="userSpaceOnUse" gradientTransform="translate(38.395 17.0478) rotate(-144.047) scale(51.4141 51.1132)">
<stop offset="0.0418327" stop-color="#F3FB52"/>
<stop offset="0.183474" stop-color="#F8FB23"/>
<stop offset="0.491154" stop-color="#F1D919"/>
<stop offset="0.59111" stop-color="#E3C517"/>
<stop offset="0.735897" stop-color="#D2AE16"/>
<stop offset="0.827307" stop-color="#CCA615"/>
<stop offset="0.87946" stop-color="#CFAA15"/>
<stop offset="0.927179" stop-color="#D9B516"/>
<stop offset="0.973025" stop-color="#EAC718"/>
<stop offset="0.996751" stop-color="#F6D419"/>
</radialGradient>
</defs>
</svg>
