<svg width="64" height="56" viewBox="0 0 64 56" fill="none" xmlns="http://www.w3.org/2000/svg">
<path d="M59.4371 7.47241H43.0518V11.9601H58.0517L56.0818 20.743C55.1526 24.8861 50.598 27.8933 45.2514 27.8933H43.0518V32.3814H45.2514C53.3707 32.3814 60.2876 27.8148 61.6985 21.523L64.0002 11.2595C64.0002 8.83191 61.7163 7.47241 59.4371 7.47241Z" fill="#E7DF1F"/>
<g style="mix-blend-mode:multiply">
<path d="M59.4371 7.47241H43.0518V11.9601H58.0517L56.0818 20.743C55.1526 24.8861 50.598 27.8933 45.2514 27.8933H43.0518V32.3814H45.2514C53.3707 32.3814 60.2876 27.8148 61.6985 21.523L64.0002 11.2595C64.0002 8.83191 61.7163 7.47241 59.4371 7.47241Z" fill="#FFDE00"/>
</g>
<path d="M52.2568 3.36121C48.5925 14.1571 40.5346 40.3648 40.4874 52.0976C40.4813 54.0207 35.2667 55.6196 28.4009 55.941C27.5732 55.9796 26.7227 56 25.8547 56C17.7727 56 11.2644 54.2512 11.2216 52.0976C10.9151 37.5825 4.699 15.9986 0.000488281 3.36121H52.2568Z" fill="#E7DF1F"/>
<path d="M10.7332 45.3312C16.4901 46.0663 22.9967 46.4548 28.7583 46.4743C32.8172 46.4876 36.9291 46.386 41.0034 45.9932C41.0631 45.5671 41.1274 45.1339 41.1963 44.6931C40.9678 44.7153 40.7394 44.7384 40.5114 44.7583C33.4035 45.3831 26.2263 45.3791 19.1124 44.8568C16.5233 44.667 13.2375 44.4018 10.5791 44.064C10.6338 44.4896 10.6847 44.9117 10.7332 45.3312Z" fill="#FFF5F5"/>
<path d="M11.0578 48.7102C12.1426 48.9243 14.9615 49.4382 17.3646 49.7535C21.2757 50.266 25.2363 50.5041 29.1793 50.4664C32.9966 50.4305 36.8116 50.1605 40.5964 49.6573C40.6443 49.0294 40.7079 48.3745 40.7857 47.6952C33.6026 48.7062 26.2835 48.8693 19.0626 48.2393C14.5459 47.8459 12.0727 47.3835 10.9297 47.1924C10.9778 47.7041 11.0204 48.21 11.0578 48.7102Z" fill="#FFF5F5"/>
<g style="mix-blend-mode:multiply">
<path d="M52.2563 3.36133C52.2563 3.36133 40.5338 37.8983 40.4869 52.0977C40.4807 54.0208 35.2662 55.6197 28.4004 55.9412C35.3978 42.5761 30.9751 16.4895 28.0708 3.36133H52.2563Z" fill="#FFDE00"/>
</g>
<path d="M51.4604 3.32624C51.4604 3.71952 50.9391 4.09597 49.9826 4.44496C46.4586 5.73212 37.0265 6.65351 25.9455 6.65351C25.4119 6.65351 24.881 6.65128 24.3558 6.64733C14.7125 6.57015 6.5175 5.79333 2.71086 4.70344C1.24741 4.28309 0.432129 3.81797 0.432129 3.32624C0.432129 1.61295 10.3683 0.202466 23.1362 0.0202559C24.0582 0.00695388 24.9964 0.000732422 25.9455 0.000732422C40.0366 0.000732376 51.4604 1.48923 51.4604 3.32624Z" fill="#FEFCCB"/>
<g style="mix-blend-mode:darken" opacity="0.29">
<path d="M24.3558 6.64721C14.7125 6.57004 6.5175 5.79321 2.71086 4.70333C1.24741 4.28297 0.432129 3.81786 0.432129 3.32613C0.432129 1.61284 10.3683 0.202352 23.1362 0.0201416C23.1621 1.90324 23.43 4.30427 24.3558 6.64721Z" fill="#96957C"/>
</g>
<path d="M26.3452 1.15356L26.51 6.05895H28.0727L29.3628 1.15356H26.3452Z" fill="#FFFFFD"/>
<g style="mix-blend-mode:lighten" opacity="0.53">
<path d="M3.21533 7.47241C3.21533 7.47241 12.6418 27.3009 13.625 36.5294C14.6088 45.7579 14.035 52.0764 14.035 52.0764L17.2319 52.6581C17.2319 52.6581 18.1335 35.1159 18.1335 24.6405C18.1335 14.17 17.285 9.90358 13.625 9.84196C8.70706 9.7586 3.21533 7.47241 3.21533 7.47241Z" fill="#FFFFFD"/>
</g>
<path d="M49.9812 4.44494C46.4572 5.7321 37.0251 6.65349 25.9441 6.65349C15.6184 6.65349 6.72378 5.85315 2.70947 4.70343C6.23216 3.41489 15.6639 2.49487 26.7448 2.49487C37.0734 2.49487 45.968 3.2943 49.9812 4.44494Z" fill="#330C08"/>
<path d="M2.80441 4.68734C2.80441 4.68734 2.21139 3.79519 2.99936 3.97875C3.78783 4.16232 4.01318 4.20977 4.01318 4.20977C4.01318 4.20977 4.45408 3.61698 5.0073 3.6063C5.56074 3.59613 5.59136 4.09494 5.59136 4.09494C5.59136 4.09494 5.40711 3.79873 5.74523 3.72072C6.08316 3.64267 6.15291 3.85685 6.12251 3.86261C6.09171 3.86792 6.15291 3.85685 6.15291 3.85685C6.15291 3.85685 6.72887 3.31544 7.15925 3.4245C7.58946 3.53402 7.62025 3.83024 7.62025 3.83024C7.62025 3.83024 7.14376 3.85153 7.25151 3.6063C7.35904 3.36158 7.65087 3.307 7.91208 3.33406C8.1737 3.36158 8.19559 3.53756 8.19559 3.53756C8.19559 3.53756 8.80391 3.29992 9.11123 3.25338C9.41833 3.20638 9.72547 3.34292 9.72547 3.34292C9.72547 3.34292 9.9506 3.25515 10.3408 3.24361C10.7305 3.23162 11.0017 3.24361 11.0017 3.24361C11.0017 3.24361 9.97177 3.78324 9.81814 3.70519C9.66423 3.62715 9.66423 3.62715 9.66423 3.62715C9.66423 3.62715 9.29527 3.72072 9.12654 3.81425C8.95733 3.90784 8.28082 3.75219 8.28082 3.75219C8.28082 3.75219 8.25065 4.00137 7.94311 4.09494C7.63556 4.18848 7.15925 4.19646 7.15925 4.19646C7.15925 4.19646 7.20518 4.17299 7.11314 4.37564C7.0207 4.57823 6.43664 4.50022 6.43664 4.50022L6.06768 4.73432C6.06768 4.73432 6.0375 4.76539 6.51377 4.87445C6.99008 4.9835 6.92889 5.15508 6.92889 5.15508C6.92889 5.15508 7.15925 5.2642 7.40497 5.24867C7.65087 5.23314 7.85044 5.24867 7.97373 5.32672C8.09656 5.40432 8.11228 5.65395 8.11228 5.65395L7.98922 5.63311L2.80441 4.68734Z" fill="#F4E5E4"/>
<path d="M42.0174 5.00237C42.0174 5.50386 35.0739 5.91045 26.5089 5.91045C17.9434 5.91045 11.0005 5.50386 11.0005 5.00237C11.0005 4.50133 17.9434 4.09473 26.5089 4.09473C35.0739 4.09473 42.0174 4.50133 42.0174 5.00237Z" fill="#471411"/>
<path d="M26.129 0C11.6989 0 0.000488281 1.4894 0.000488281 3.32687C0.000488281 5.16388 11.6989 6.65368 26.129 6.65368C40.5593 6.65368 52.2568 5.16388 52.2568 3.32687C52.2568 1.4894 40.5593 0 26.129 0ZM50.7117 3.52814C49.8047 3.88951 47.8316 4.43182 43.6044 4.92132C38.8189 5.47512 32.6131 5.78019 26.129 5.78019C19.6451 5.78019 13.4386 5.47512 8.6536 4.92132C4.36057 4.42428 2.39225 3.87226 1.50499 3.51129C1.3415 3.44477 1.3415 3.20889 1.50499 3.14238C2.39225 2.78101 4.36057 2.22943 8.6536 1.7324C13.4386 1.17814 19.6451 0.873085 26.129 0.873085C32.6131 0.873085 38.8189 1.17814 43.6044 1.7324C47.8316 2.2219 49.8047 2.76462 50.7117 3.12553C50.8924 3.19737 50.8924 3.4559 50.7117 3.52814Z" fill="#F9F25B"/>
<path d="M1.11475 4.09514L1.90317 3.81445C1.90317 3.81445 5.52994 5.0307 9.0037 5.40452C12.4772 5.77873 13.799 5.65415 13.799 5.65415V6.05942C13.799 6.05942 2.29402 5.31093 1.11475 4.09514Z" fill="#FFF5F5"/>
</svg>
