<svg width="56" height="50" viewBox="0 0 56 50" fill="none" xmlns="http://www.w3.org/2000/svg">
<path d="M0.307712 29.6697C-1.96269 16.1079 8.59544 3.02358 23.8898 0.444563C39.1842 -2.13421 53.4229 6.76897 55.6933 20.3303C57.9636 33.8915 47.4057 46.9759 32.1114 49.5549C16.8169 52.1341 2.57799 43.231 0.307712 29.6697Z" fill="#167B53"/>
<path d="M55.6934 20.3306C55.4848 19.0846 55.31 21.0862 54.4372 21.4974C53.5091 21.5796 52.2323 22.1562 50.641 22.967C49.9281 23.8665 49.0541 24.3328 47.9305 23.7759C46.9713 24.2014 46.0459 25.3 44.753 24.6138C43.6499 25.061 42.4904 25.5841 41.2125 25.7527C40.0084 26.3608 38.6242 26.2469 37.2208 26.3126C36.6702 27.2491 35.8715 26.7758 35.0538 26.2552C34.3229 26.2537 33.6072 26.4096 32.9784 27.1428C31.5745 27.736 30.0622 27.9196 28.4927 27.9386C27.2129 29.6868 25.6735 29.7081 24.0163 28.7884C22.5738 29.1516 20.9901 28.4352 19.7146 29.2646C18.43 30.0394 17.0918 30.2017 15.823 30.4237C14.5541 30.6457 13.3037 30.6256 12.0426 30.1295C9.56471 29.4019 7.50972 29.5558 5.94147 30.5043C4.114 29.9048 2.83987 30.498 1.87525 30.3606C0.910364 30.2231 0.362176 29.9943 0.307847 29.6699C0.463369 30.5986 1.10886 31.4089 2.16468 32.0897C3.22035 32.7708 4.61025 32.869 6.48229 33.7354C8.34059 34.5187 10.6239 35.7288 12.7818 34.545C14.104 35.4059 15.3471 35.3832 16.6134 35.1456C17.8796 34.9078 19.1849 34.5491 20.5838 34.4569C22.0875 34.9897 23.5277 34.8495 24.8721 33.901C25.8406 30.7064 27.7839 33.0977 29.4085 33.4095C30.9955 33.4945 32.7461 34.7344 33.8823 32.5421C34.6335 32.5396 35.2583 31.841 35.9088 31.3626C36.701 31.7309 37.3029 31.0281 38.09 31.505C39.4372 31.1033 41.0416 32.5315 41.9604 30.2205C42.9868 28.5486 43.9622 26.9261 45.4921 29.0292C46.6141 28.6944 47.7293 28.7301 48.578 27.6445C49.5845 27.5017 50.3036 26.1092 51.1819 26.1979C52.6089 24.4061 53.8596 23.6726 54.7268 23.2265C55.4826 22.1174 55.9096 21.6217 55.6934 20.3306Z" fill="#7FBF71"/>
<path d="M27.5088 22.0605C28.7122 21.4247 29.7779 21.3105 30.7572 21.6429C31.7558 22.0914 32.2479 20.4768 33.0288 21.1693C34.3854 21.3275 35.0729 19.8189 36.2871 20.7344C37.5862 20.0461 38.9284 19.9087 40.2901 20.2425C41.5521 19.9799 42.8335 20.1858 43.9586 19.8696C46.0816 18.4768 48.289 19.2344 50.0597 19.4947C51.9273 20.3344 53.0501 18.8369 54.1262 19.6388C55.1184 19.9414 55.5804 19.6548 55.6934 20.3295C55.431 18.7624 55.0276 19.3987 53.8367 17.9094C52.8922 17.8933 51.1916 15.9396 49.5189 16.2637C47.5815 15.009 45.6525 15.9135 43.2194 15.4541C41.8558 14.3457 40.732 15.0809 39.4765 15.3822C38.0916 14.9101 36.8458 15.6231 35.4178 15.5421C34.6041 15.1137 33.7359 15.0836 32.9555 15.7678C32.2665 16.9992 31.2135 16.2435 30.3159 16.0748C29.4575 16.1401 28.5423 15.5223 27.9954 16.2243C27.3641 16.4244 26.8861 16.6607 26.5929 16.5895C25.8716 17.0866 24.2374 16.3676 22.722 17.3553C21.3205 19.0234 19.3509 18.2954 17.9117 18.494C14.8732 20.074 12.9728 19.7 11.9565 20.0228C11.1047 21.3281 10.601 20.1269 10.5093 20.9699C9.10531 21.3357 8.19851 22.5452 7.21368 22.3899C6.34516 22.9282 5.3669 21.9134 4.8193 23.8011C3.25625 24.7802 2.0506 25.7827 1.27468 26.7726C0.498549 27.7625 0.152248 28.7397 0.307766 29.6689C0.253441 29.3442 0.697044 28.9482 1.56413 28.5017C2.43107 28.0554 3.72137 27.5586 5.36024 27.0322C6.36027 27.847 7.10225 25.1508 8.42309 26.1638C9.81334 27.5906 10.4363 24.6857 11.2485 25.3853C12.6648 24.8002 13.5339 24.2319 14.67 24.5627C15.421 22.5929 16.9928 24.8311 18.7809 23.6864C19.9419 22.5262 21.4039 22.2405 23.0473 22.8524C23.7445 22.4131 24.494 22.241 25.252 22.1656C26.0104 22.0903 26.7774 22.1121 27.5088 22.0605Z" fill="#7FBF71"/>
<path d="M0.0338459 27.17C0.0366171 27.223 0.0410946 27.2762 0.0442348 27.3293C0.480223 26.622 1.00645 25.9077 0.855385 25.3165C0.784387 25.3792 0.710007 25.4421 0.629116 25.5064C0.778113 25.9923 0.404778 26.5767 0.0338459 27.17Z" fill="#167B53"/>
<path d="M24.5981 3.52673C24.5402 3.53597 24.478 3.54618 24.4121 3.55748C24.4718 3.54728 24.5363 3.53706 24.5981 3.52673Z" fill="#167B53"/>
<path d="M55.1448 17.8945C55.1257 17.8833 55.1089 17.8716 55.0891 17.8603C55.1029 17.8505 55.1142 17.8413 55.1274 17.8317C54.942 17.188 54.7276 16.5575 54.4878 15.9399C54.3309 15.8117 54.2021 15.6794 54.1398 15.5364C54.1567 15.377 54.1532 15.2215 54.1285 15.0704C54.0154 14.8118 53.8987 14.5554 53.7761 14.3019C53.5182 13.98 53.1208 13.6853 52.5571 13.4232C52.8676 12.5965 51.8763 12.0093 51.3008 11.3749C50.3006 10.8122 49.1918 10.2903 49.4811 9.55853C48.1192 9.10493 48.399 8.40038 47.3655 7.94522C48.2608 7.16503 47.1532 6.75072 45.8853 6.3948C46.3028 6.03925 45.6001 5.88039 44.724 5.7592C44.3986 5.54482 44.1887 5.3193 42.521 5.34801C44.5626 4.75143 43.3795 4.70671 42.4115 4.63461C42.794 4.33506 42.0987 4.22576 39.8167 4.39311C40.4767 4.06447 39.6484 3.99611 40.057 3.72842C40.8087 3.40303 39.9166 3.36439 36.9555 3.68405C34.4474 3.74828 35.9248 3.17969 33.6567 3.28477C29.7187 3.67147 35.2811 2.49828 30.8565 3.05404C29.0789 3.16333 28.4505 3.12383 28.8962 2.95055C27.366 3.15971 26.2043 3.3187 26.3475 3.26948C25.6871 3.35868 25.1118 3.44376 24.5994 3.52774C25.261 3.42363 25.2868 3.46932 22.432 4.04059C20.1436 4.52459 19.1991 4.82936 18.1572 5.19533C19.2195 5.11135 18.2735 5.37735 17.0165 5.70649C15.76 6.03585 14.1926 6.42825 14.0128 6.59717C12.0656 7.20298 9.99031 7.87238 12.5981 7.79132C13.3946 8.01575 8.77754 9.19244 9.68313 9.47429C8.47002 10.1137 10.4325 10.254 7.88004 11.1893C4.65445 12.2382 6.09022 12.5349 5.88158 13.1403C5.71701 13.7379 5.44364 14.385 4.14744 15.2328C0.885366 17.0413 3.73968 17.932 1.54463 19.765C0.865805 21.3423 3.27335 22.4906 0.216926 24.6291C0.599331 24.8277 0.789993 25.0608 0.855175 25.3165C2.62048 23.7666 1.44248 22.7782 2.81948 21.4456C1.91967 20.4526 4.65625 18.9406 6.64046 17.6738C8.64861 16.8689 5.77097 16.9176 9.08727 15.9548C10.0201 15.3937 9.85824 15.0502 11.8516 14.3786C12.8804 14.0376 16.1456 13.3284 14.3623 13.4795C16.1708 13.0254 12.5206 13.501 15.0834 12.9382C15.7342 12.5677 17.9507 11.9724 18.2135 11.7479C17.2694 11.7273 22.3588 10.7311 21.6901 10.7507C21.7555 10.6933 22.9089 10.4635 24.3208 10.2019C24.1873 10.2051 26.1949 9.85506 26.0182 9.88134C27.681 9.60869 27.6497 9.6614 28.5988 9.58603C27.4466 9.82669 28.0679 9.77981 29.5077 9.60566C28.392 9.86233 32.1828 9.3027 32.937 9.2655C36.8873 8.77918 30.8716 10.0155 36.0098 9.40972C35.9589 9.5487 34.9696 9.85543 38.1363 9.47068C37.1596 9.71024 39.5966 9.37614 40.053 9.3787C39.7382 9.5109 41.8987 9.2283 39.8059 9.6648C41.1261 9.61003 42.0288 9.63425 42.9514 9.66383C44.7164 9.55148 44.1779 9.8359 42.9317 10.2478C41.8766 10.8296 42.9649 11.0824 45.8041 11.0698C45.7807 11.5397 48.942 11.5024 47.9687 12.1889C49.3278 12.4821 49.7553 12.9588 50.6434 13.3814C52.3324 13.6689 51.5479 14.3969 52.5758 14.8399C53.2762 15.338 52.9347 16.0325 54.036 16.5008C54.4459 17.0858 55.1671 17.6355 55.0998 18.3325C54.9849 18.8474 55.3876 19.2824 55.5898 19.7576C55.4673 19.1259 55.3187 18.5045 55.1448 17.8945Z" fill="#7FBF71"/>
<path d="M5.358 36.6171C3.96098 35.6523 2.84312 34.7801 1.96542 33.498C1.10825 32.3386 0.45259 30.5372 0.307333 29.6697C0.588916 31.3519 1.05535 32.9625 1.68455 34.4886C1.74746 34.5269 1.80698 34.521 1.86181 34.4621C2.64014 36.1739 3.70681 38.2241 4.70054 38.6239C6.12801 41.6148 7.08466 40.5794 8.63614 42.0534C10.0901 42.9465 11.5914 43.0776 13.4805 44.6505C14.2689 44.5056 15.1871 44.9159 16.1446 45.3651C17.1021 45.8145 18.1406 46.5499 19.0459 46.3145C20.1003 46.9686 21.049 46.815 22.0406 46.7649C23.2071 47.7596 23.9806 46.2511 25.1451 46.9445C26.2595 47.3402 27.2822 47.0544 28.3358 46.8404C29.2891 46.028 30.2957 45.421 31.5896 46.44C32.661 46.1302 33.7117 45.787 34.7509 45.4881C35.7904 45.1895 36.8183 44.9352 37.8444 44.8031C38.8475 44.5319 39.7634 43.8745 40.8028 44.1103C41.7458 43.7687 42.9899 45.3803 43.4033 42.2072C44.3551 42.249 45.2178 41.934 45.9251 40.8885C46.6427 39.9051 47.3582 39.1054 48.1215 38.8091C49.4798 37.2128 50.7838 36.1637 51.8542 34.7658C52.8257 32.7753 53.756 31.5842 54.4566 30.2335C55.3248 29.8832 55.5181 26.7164 55.7846 25.3695C55.9988 23.7102 55.9761 22.0218 55.6929 20.3303C55.9244 21.7135 55.8044 23.1114 55.3726 24.4922C54.9199 25.7497 54.2312 27.4396 53.1819 28.5533C52.3449 30.9336 50.9534 31.5767 49.3611 32.325C48.649 33.2004 47.7399 33.2277 46.9141 34.0436C46.2453 35.7964 45.1955 35.5671 44.1499 35.6199C43.2245 36.3907 42.4434 38.2838 41.1769 37.5023C40.1637 38.2334 38.9773 38.1538 37.788 38.2505C36.867 39.9469 35.6251 39.9177 34.2432 39.2106C33.0174 39.4353 31.7611 39.6362 30.5162 40.0285C29.0565 39.1368 28.2556 42.0585 26.7357 40.5251C25.4482 40.3822 24.0961 39.6957 23.0645 40.7332C22.1792 42.6453 20.7486 41.1058 19.4255 39.9864C18.2739 39.8908 17.1906 39.9778 16.1955 40.3337C14.2739 41.4546 11.8363 38.4583 10.1974 38.9289C8.30649 37.8932 6.9195 38.5631 5.358 36.6171Z" fill="#7FBF71"/>
<path opacity="0.5" d="M12.7222 4.62048C3.84034 10.1081 -1.35002 19.7613 0.308784 29.6701C2.57906 43.2314 16.818 52.1345 32.1125 49.5554C45.4588 47.3047 55.197 37.0545 55.9531 25.4686C55.4994 25.9483 55.1012 26.4217 54.837 26.6603C53.3965 27.9613 52.0181 29.0874 50.3848 30.1099C48.5421 31.2637 46.7121 32.3499 44.6451 33.0947C42.5856 33.8367 40.2875 34.0175 38.1282 34.3836C29.4033 35.8625 21.7532 31.3486 15.7546 25.3292C13.9916 23.5599 12.7103 21.2871 11.7709 19.0025C11.0766 17.3134 10.3932 15.9026 10.6236 14.012C10.9173 11.6018 11.8631 9.30686 12.216 6.88662C12.3266 6.12899 12.519 5.37389 12.7222 4.62048Z" fill="#167B53"/>
<path opacity="0.5" d="M0.30836 29.6684C2.57864 43.2297 16.8176 52.1328 32.1121 49.5536C41.5222 47.9669 49.1377 42.4024 53.0772 35.1975C51.3912 35.701 49.886 37.6455 48.1703 38.1197C46.0082 38.7171 43.8803 39.1025 41.6884 39.5853C38.2281 40.348 34.5752 41.228 31.0348 41.5077C27.3111 41.8019 23.3058 38.8571 20.1206 37.7304C16.966 36.6148 14.4652 35.0763 12.2443 33.0482C8.02944 29.1995 3.61726 25.1971 4.66726 19.5371C5.09955 17.2065 5.45841 14.8721 5.81314 12.5303C5.94223 11.677 6.07782 10.8168 6.3308 9.9707C1.51413 15.4014 -0.897162 22.4674 0.30836 29.6684Z" fill="#167B53"/>
<path opacity="0.3" d="M36.0021 4.24043C32.3568 3.46947 28.5709 2.7317 25.1504 4.78854C22.4718 6.39942 22.4967 9.30236 23.3712 11.5743C24.4189 14.2952 27.1229 16.3719 29.656 18.1359C32.3886 20.0384 35.0444 21.6062 38.9276 21.197C41.563 20.9192 44.0346 19.5416 45.878 17.9249C48.4373 15.6799 48.8342 11.56 46.9853 9.15511C46.5171 8.54592 46.219 8.10326 45.4311 7.79073C45.4311 7.79073 39.4483 4.96971 36.0021 4.24043Z" fill="#B0D6AD"/>
</svg>
