<svg width="108" height="74" fill="none" xmlns="http://www.w3.org/2000/svg"><path d="m106 70.536-.709-64.784L2 2l.762 70L106 70.536Z" fill="url(#a)" stroke="#9E7A1D" stroke-width="2.02" stroke-miterlimit="10"/><path d="M3.862 57.889s.58-16.655-.174-16.044c-.754.612 13.552-6.14 22.259-3.433 8.597 2.672 16.433 11.224 24.772 8.907 8.237-2.288 11.68-9.291 20.274-8.425 8.483.854 15.94 1.12 19.963-.558 3.998-1.666 6.831-5.225 9.914-5.18 3.068.046 3.32 1.748 3.32 1.748l.102 9.232S61.15 52.55 60.218 52.987c-.933.437-56.356 4.902-56.356 4.902Z" fill="url(#b)"/><path opacity=".5" d="M3.958 20.071c.843.236 15.268 13.312 33.211 9.587C54.648 26.03 55.433 16.06 63.563 17.773c8.032 1.693 6.533 7.263.294 3.032-4.054-2.756-8.086-.192-10.416 3.239-2.338 3.443-1.092 15.65 10.868 14.272 10.272-1.175 8.912-8.062 11.975-8.431 3.048-.368 8.874 3.342 5.12 5.198-3.777 1.868-3.093-1.24-4.063-.915-4.306 1.443 2.13 9.245 8.118 3.517 5.932-5.675.881-11.68-4.42-12.637-5.343-.963-5.576.09-5.576.09s9.557-4.48 2.177-10.43c-7.465-6.017-16.538-8.061-22.5-3.482-6.016 4.62-20.415 10.42-30.253 7.969-9.983-2.488-6.438-8.426-21.07-14.521l.14 15.397Z" fill="url(#c)"/><path d="M43.13 37.672c1.506.017 2.713-.972 2.7-2.207-.014-1.236-1.243-2.255-2.749-2.276-1.51-.021-2.724.967-2.71 2.207.013 1.24 1.25 2.26 2.759 2.276Z" fill="url(#d)"/><path d="M74.304 13.349c.843.025 1.52-.53 1.512-1.238-.008-.709-.697-1.305-1.54-1.332-.845-.026-1.524.528-1.516 1.238.008.71.7 1.307 1.544 1.332Z" fill="#FDFACA"/><path d="M55.294 40.045c.278.003.502-.181.499-.412-.002-.23-.23-.418-.508-.42-.279-.004-.502.18-.5.41.003.231.23.42.509.422Z" fill="url(#e)"/><path d="M9.667 29.143c.298.005.537-.184.534-.422-.003-.238-.246-.435-.543-.44-.298-.005-.538.184-.535.422.003.238.246.436.544.44Z" fill="#FDFACA"/><path d="M93.39 19.637c2.493.063 4.488-1.608 4.465-3.732-.023-2.124-2.056-3.909-4.55-3.986-2.504-.079-4.522 1.592-4.498 3.73.023 2.14 2.079 3.925 4.582 3.988Z" fill="url(#f)"/><path d="M93.401 20.72c3.193.078 5.745-2.062 5.715-4.78-.03-2.718-2.63-5.003-5.823-5.106-3.208-.102-5.796 2.037-5.766 4.779.03 2.742 2.666 5.029 5.874 5.107Z" stroke="url(#g)" stroke-width=".27" stroke-miterlimit="10"/><path d="M93.296 22.064c4.002.094 7.198-2.59 7.16-5.995-.037-3.405-3.293-6.271-7.295-6.403-4.027-.133-7.28 2.55-7.242 5.993.038 3.443 3.351 6.311 7.377 6.405Z" stroke="url(#h)" stroke-width=".25" stroke-miterlimit="10"/><path d="M94.35 16.534c1.184.033 2.134-.76 2.123-1.77-.011-1.01-.979-1.858-2.163-1.894-1.186-.036-2.14.756-2.13 1.77.012 1.013.984 1.861 2.17 1.894Z" fill="#FDFACA"/><path d="M31.16 13.83c.792.022 1.427-.482 1.42-1.126-.007-.645-.654-1.186-1.446-1.21-.792-.024-1.43.48-1.423 1.126.007.645.656 1.187 1.449 1.21Z" fill="url(#i)"/><path d="M31.012 14.908c1.403.038 2.529-.856 2.516-1.997-.012-1.14-1.158-2.1-2.561-2.144-1.407-.043-2.539.85-2.526 1.996.012 1.146 1.164 2.106 2.57 2.145Z" stroke="url(#j)" stroke-width=".11" stroke-miterlimit="10"/><path d="M30.983 15.437c1.763.048 3.176-1.075 3.16-2.508-.015-1.433-1.453-2.64-3.216-2.694-1.768-.055-3.192 1.068-3.176 2.508.016 1.44 1.465 2.646 3.232 2.694Z" stroke="url(#k)" stroke-width=".25" stroke-miterlimit="10"/><path d="M87.172 28.382c.523.01.943-.342.938-.786-.005-.444-.432-.812-.955-.822-.523-.01-.944.341-.94.786.006.444.434.812.957.822Z" fill="url(#l)"/><path d="M87.078 29.124c.927.017 1.67-.607 1.661-1.393-.008-.786-.765-1.438-1.692-1.457-.928-.018-1.674.605-1.665 1.393.008.788.769 1.44 1.696 1.457Z" stroke="url(#m)" stroke-width=".08" stroke-miterlimit="10"/><path d="M87.052 29.49c1.164.02 2.098-.764 2.087-1.752-.01-.988-.962-1.808-2.127-1.832-1.166-.023-2.105.76-2.094 1.752.01.99.967 1.81 2.134 1.831Z" stroke="url(#n)" stroke-width=".18" stroke-miterlimit="10"/><path d="M74.62 14.55c1.456.041 2.623-.916 2.61-2.14-.014-1.223-1.203-2.253-2.66-2.3-1.458-.046-2.633.911-2.62 2.14.014 1.228 1.21 2.257 2.67 2.3Z" stroke="url(#o)" stroke-width=".27" stroke-miterlimit="10"/><path d="M47.954 12.441c.533.016.962-.327.957-.767-.005-.44-.441-.81-.975-.826-.534-.017-.963.327-.958.767.004.44.441.81.976.826Z" fill="#FDFACA"/><path d="M48.158 13.18c.92.027 1.657-.565 1.649-1.323-.009-.757-.76-1.394-1.68-1.423-.92-.03-1.66.563-1.652 1.323.008.759.762 1.396 1.683 1.423Z" stroke="url(#p)" stroke-width=".17" stroke-miterlimit="10"/><path d="M4.405 60.323s42.35-5.955 54.682-4.413c12.108 1.513 32.698-2.746 32.478-2.177-.22.568 8.179-3.225 12.831-.014l-.105-9.604S76.338 46.4 70.399 48.723c-14.866 5.83-27.739 4.272-29.192 4.072-1.456-.2-12.436-3.187-24.527 1.221-9.504 3.459-12.818 3.872-12.818 3.872l.543 2.435Z" fill="#262840"/><path opacity=".99" d="M3.578 8.542c6.78 2.467 12.327 6.614 16.895 11.134l.908.78c.33.24.676.462 1.038.666.699.442 1.456.817 2.254 1.118 1.604.572 3.313.89 5.034.94 3.459.061 6.853-.46 9.972-1.526 3.166-.997 6.123-2.34 8.795-3.99a43.268 43.268 0 0 1 8.986-3.629c3.131-.982 6.514-1.322 9.87-.997 1.67.218 3.259.794 4.61 1.671 1.309.898 2.346 2.042 3.022 3.332-.707-1.266-1.775-2.377-3.108-3.231a11.098 11.098 0 0 0-4.558-1.525c-3.302-.263-6.614.122-9.669 1.13a44.935 44.935 0 0 0-8.792 3.708c-2.71 1.653-5.704 2.996-8.907 3.99-3.2 1.082-6.684 1.599-10.23 1.513-1.799-.052-3.585-.39-5.258-.997a11.644 11.644 0 0 1-2.347-1.12 11.6 11.6 0 0 1-1.078-.697l-.937-.824c-.642-.55-1.152-1.098-1.743-1.691-.591-.594-1.182-1.102-1.787-1.643-1.252-1.106-2.545-2.097-3.908-3.07-2.714-1.999-5.764-3.696-9.062-5.042Z" fill="#738EDD"/><path d="M51.494 21.265c1.192-1.739 2.914-3.173 4.996-4.165 2.144-.99 4.617-1.408 7.094-1.2 2.405.291 4.728.98 6.831 2.023a9.696 9.696 0 0 1 1.508.852c.488.306.93.664 1.31 1.062.375.427.647.909.8 1.418.14.531.095 1.08-.13 1.58a3.815 3.815 0 0 1-1.061 1.288 4.715 4.715 0 0 1-1.6.815 8.367 8.367 0 0 1-3.692.284c-1.121-.29-2.26-.527-3.413-.712a14.675 14.675 0 0 0-3.31.055 9.532 9.532 0 0 0-3.015.977c-.878.516-1.568 1.222-1.999 2.044-.717 1.822-.665 3.81.15 5.64h-.114c-1.24-1.836-1.583-3.982-.958-5.98.425-1.012 1.181-1.898 2.184-2.562a9.865 9.865 0 0 1 3.49-1.215c1.23-.18 2.491-.192 3.734-.032 1.172.216 2.329.49 3.463.819a7.644 7.644 0 0 0 3.176-.097c1.04-.228 1.915-.793 2.436-1.573.214-.407.29-.858.22-1.307a2.387 2.387 0 0 0-.615-1.242 6.349 6.349 0 0 0-1.238-1.06 7.798 7.798 0 0 0-1.47-.8 18.478 18.478 0 0 0-6.715-1.418c-2.279-.095-4.536.268-6.58 1.062-2.08.846-3.926 2.034-5.43 3.497l-.052-.053ZM60.4 35.649c.428.157.886.247 1.35.266l1.444.017c.964.015 1.923-.05 2.864-.192 1.832-.198 3.524-.872 4.839-1.928a5.55 5.55 0 0 0 .838-.873l.688-1.02a13.824 13.824 0 0 1 1.63-2.03 7.557 7.557 0 0 1 2.168-1.667 5.386 5.386 0 0 1 2.938-.509 7.422 7.422 0 0 1 2.856.963c.83.5 1.586 1.082 2.25 1.734.726.664 1.262 1.458 1.565 2.319.16.465.195.952.105 1.425-.09.472-.305.92-.628 1.308-.663.74-1.63 1.244-2.72 1.416a7.301 7.301 0 0 1-3.123-.16 5.824 5.824 0 0 1-.72-.234 5.144 5.144 0 0 1-.695-.306 3.055 3.055 0 0 1-1.227-.949 1.412 1.412 0 0 1-.237-.677c-.017-.236.03-.472.137-.688.197-.4.512-.747.913-1.013l.074.073c-.282.3-.49.645-.609 1.017a.986.986 0 0 0-.022.535c.042.179.133.348.264.494.632.525 1.44.87 2.307.982.82.205 1.686.207 2.495.007.807-.2 1.522-.593 2.061-1.133.915-1.058.32-2.637-.849-3.808-1.072-1.277-2.597-2.24-4.349-2.744a5.422 5.422 0 0 0-2.687.305c-.834.324-1.528.853-1.995 1.52a9.083 9.083 0 0 0-1.335 2.097 6.98 6.98 0 0 1-1.374 2.245c-1.38 1.259-3.295 2.024-5.363 2.14a15.697 15.697 0 0 1-3.04-.037c-.501-.05-.998-.135-1.484-.256a5.904 5.904 0 0 1-.738-.206 2.465 2.465 0 0 1-.35-.14c-.101-.063-.251-.086-.316-.263l.075-.03Z" fill="#738EDD"/><path d="M59.95 28.65a3.469 3.469 0 0 0-.244 1.782c.03.592.168 1.18.407 1.742.18.532.583.998 1.133 1.313.55.314 1.212.456 1.864.401 1.457.013 2.88-.288 4.131-.872 1.232-.658 2.215-1.588 2.844-2.69l.978-1.654a4.752 4.752 0 0 1 1.394-1.6c1.2-.888 2.712-1.426 4.32-1.538 1.573-.08 3.153.189 4.584.778a11.899 11.899 0 0 1 3.644 2.356l-.071.07c-2.29-1.476-5.113-2.227-7.962-2.113-1.37.114-2.67.54-3.76 1.232a15.966 15.966 0 0 0-2.558 2.818c-.842 1.067-1.934 1.98-3.215 2.685a12.922 12.922 0 0 1-4.257 1.43 4.061 4.061 0 0 1-2.497-.51c-.714-.448-1.22-1.089-1.431-1.807a4.547 4.547 0 0 1 .105-2.961c.101-.328.305-.625.59-.863ZM49.066 22.716a21.64 21.64 0 0 1-3.67 2.082 30.935 30.935 0 0 1-4.081 1.57 32.669 32.669 0 0 1-9.038 1.343c-3.084.18-6.209.033-9.3-.436a55.824 55.824 0 0 1-2.331-.46l-2.25-.717c-.36-.136-.76-.23-1.108-.386l-1.07-.472c-.71-.314-1.422-.64-2.12-.976l-.148-.079-.122-.174a19.638 19.638 0 0 0-1.808-2.438 24.299 24.299 0 0 0-2.175-2.334 30.798 30.798 0 0 0-2.49-2.144c-.871-.692-1.798-1.343-2.726-1.984l.08-.096a24.67 24.67 0 0 1 3.182 1.64 23.447 23.447 0 0 1 2.835 2.013c.885.72 1.705 1.487 2.453 2.297.759.814 1.422 1.682 1.98 2.59l-.257-.253a35.07 35.07 0 0 0 8.318 3.208 25.467 25.467 0 0 0 9.052.819 56.03 56.03 0 0 0 8.622-1.843 66.905 66.905 0 0 0 8.095-2.866l.077.096Z" fill="#738EDD"/><path d="M39.514 70.413c1.585-.96 2.763-2.299 3.37-3.829a6.37 6.37 0 0 0 .021-4.703c-2.101-5.426-3.671-5.327-1.882-7.704 1.785-2.371 3.923-3.548 5.967-3.346 0 0-2.677-3.157-5.655-1.06a36.003 36.003 0 0 1-6.739 3.843c-3.637 1.798-10.433 10.118-5.681 16.962l10.599-.163Z" fill="#233D4A"/><path opacity=".1" d="M61.642 69.41c3.605-.045 6.5-1.415 6.481-3.058-.018-1.644-2.94-2.951-6.547-2.921-3.625.03-6.564 1.4-6.546 3.06.018 1.66 2.987 2.966 6.612 2.92ZM69.11 64.018c1.232-.01 2.219-.915 2.207-2.019-.012-1.104-1.019-1.993-2.25-1.986-1.234.007-2.225.911-2.213 2.019.012 1.108 1.023 1.997 2.257 1.986ZM85.223 69.485c2.738-.036 4.932-1.657 4.91-3.62-.021-1.964-2.25-3.54-4.988-3.518-2.75.02-4.97 1.642-4.949 3.62.022 1.98 2.277 3.554 5.027 3.518Z" fill="#FDFACA"/><path opacity=".5" d="M86.932 61.05a1.061 1.061 0 0 0 1.043-1.086 1.075 1.075 0 0 0-1.067-1.073 1.061 1.061 0 0 0-1.045 1.085 1.074 1.074 0 0 0 1.069 1.073Z" fill="#233D4A"/><path opacity=".1" d="M81.476 57.894c.921-.004 1.662-.464 1.656-1.028-.006-.564-.757-1.02-1.678-1.017-.923.003-1.667.463-1.661 1.029.006.565.76 1.02 1.683 1.016Z" fill="#FDFACA"/><path opacity=".5" d="M45.773 67.64c4.61-.053 8.301-2.26 8.272-4.93-.03-2.67-3.767-4.818-8.378-4.8-4.642.02-8.405 2.227-8.376 4.93.03 2.704 3.84 4.852 8.483 4.8Z" fill="#233D4A"/><path opacity=".5" d="M12.174 70.38c3.326-.043 5.991-1.85 5.968-4.035-.024-2.185-2.728-3.937-6.055-3.912-3.342.024-6.044 1.831-6.02 4.036.024 2.204 2.764 3.955 6.107 3.912Z" fill="#3E6859"/><path opacity=".1" d="M8.996 63.6c.885-.008 1.598-.405 1.592-.887-.005-.482-.726-.868-1.61-.862-.887.006-1.602.403-1.597.886.005.483.729.87 1.615.862Z" fill="#FDFACA"/><path opacity=".5" d="M95.438 61.63c1.718-.012 3.089-1.69 3.066-3.747-.022-2.056-1.43-3.722-3.147-3.72-1.723.003-3.104 1.68-3.081 3.747.022 2.067 1.44 3.732 3.162 3.72Z" fill="#3E6859"/><path opacity=".5" d="M95.726 67.323c2.408-.028 4.343-.953 4.331-2.066-.013-1.114-1.968-2-4.375-1.98-2.417.02-4.373.946-4.36 2.067.012 1.121 1.987 2.007 4.404 1.98Z" fill="#233D4A"/><path d="M16.917 70.801c-.394-.692-11.302-7.66-5.962-16.595 5.298-8.863 6.794-9.66 4.263-11.984-2.54-2.332-3.086-6.977-3.086-6.977s2.81 3.656 4.44 3.972c1.628.316-3.572-5.413-2.89-11.715.68-6.295 3.066-6.477 4.79-8.152 1.72-1.67 3.796-5.41 1.784-7.98-2.019-2.578 7.2 4.004 3.933 9.42-3.282 5.441-.886 9.384 2.232 11.64 3.104 2.245 4.505 8.56 3.553 11.102-.953 2.546 3.026-2.26 2.384-6.243-.642-3.986 1.15-5.55.79-5.164-.36.387-.81 3.265 1.181 7.072 1.986 3.795 4.437 6.968 2.301 11.316-2.143 4.361-8.416 11.62-7.14 15.865 1.276 4.237.165 4.252.165 4.252l-12.738.171Z" fill="#233D4A"/><path opacity=".3" d="M22.256 14.602a13.51 13.51 0 0 1-1.693 6.082 21.173 21.173 0 0 1-1.814 2.754 7.048 7.048 0 0 0-1.298 2.835 13.102 13.102 0 0 0 .4 6.192 38.08 38.08 0 0 0 2.323 6.038 45.877 45.877 0 0 1 2.698 5.987c.587 2.062.906 4.164.952 6.272a35.84 35.84 0 0 1-.406 6.29 37.395 37.395 0 0 1-1.465 6.196 52.247 52.247 0 0 0 1.185-12.454 28.862 28.862 0 0 0-.886-6.179 52.124 52.124 0 0 0-2.382-5.976c-.818-2.012-1.584-4.035-2.204-6.09a14.597 14.597 0 0 1-.721-6.318 6.73 6.73 0 0 1 1.297-2.997c.684-.864 1.3-1.762 1.842-2.69a16.023 16.023 0 0 0 2.093-5.9l.079-.042Z" fill="#E7B742"/><path opacity=".3" d="M22.165 21.693c-1.365 1.835-2.142 3.931-2.263 6.103-.051 2.161.662 4.307 2.053 6.182 2.524 3.896 5.874 7.433 8.13 11.446 1.218 2.007 1.738 4.237 1.505 6.451-.45 2.174-1.308 4.279-2.544 6.243a19.736 19.736 0 0 0-2.636 6.075c-.237 2.166.24 4.343 1.382 6.302l-.066.001c-1.325-1.939-1.929-4.154-1.737-6.374.397-2.184 1.244-4.297 2.504-6.247a20.472 20.472 0 0 0 2.548-6.085c.28-2.134-.14-4.297-1.217-6.271-1.969-4.087-5.502-7.498-8.29-11.344a12.285 12.285 0 0 1-1.714-3.03 8.713 8.713 0 0 1-.435-3.337c.19-2.22 1.134-4.334 2.728-6.105l.052-.01ZM16.57 39.216a12.58 12.58 0 0 1 2.689 2.564c.779.946 1.326 2 1.611 3.105a5.316 5.316 0 0 1-.427 3.315 23.726 23.726 0 0 1-1.772 2.995c-1.332 1.932-2.182 4.062-2.501 6.268a15.538 15.538 0 0 0 .591 6.577c.916 2.138 1.883 4.272 2.73 6.405-1.046-2.13-2.027-4.265-3.036-6.402a15.525 15.525 0 0 1-.567-6.676c.412-2.214 1.329-4.344 2.702-6.28a23.966 23.966 0 0 0 1.68-2.941 5.24 5.24 0 0 0 .323-3.21c-.627-2.166-2.035-4.149-4.049-5.698l.027-.022Z" fill="#E7B742"/><path d="m66.09 56.926-6.846.023c-.996.004-1.797.678-1.788 1.506l.033 2.989c.009.828.825 1.493 1.82 1.485l6.846-.054c.984-.008 1.774-.68 1.765-1.502l-.032-2.966c-.01-.821-.813-1.485-1.798-1.481Z" fill="#AEB9BC"/><path d="M61.195 57.077s-.405-1.691-1.264-1.43a3.319 3.319 0 0 1-1.715.005l-.139 2.217 3.118-.792Z" fill="#AEB9BC"/><path d="m58.296 55.974 2.351-.006-1.201-9.355-1.15 9.361ZM60.58 57.464a25.33 25.33 0 0 0 2.129 2.066l6.429-.035-1.414-1.78-1.011-.896-5.517.019-.617.626Z" fill="#5D4675"/><path d="M60.45 59.574c-.002-.16-.16-.29-.354-.289-.194.001-.35.132-.348.293l.016 1.435c.002.16.16.29.354.288.193 0 .349-.132.347-.293l-.016-1.434ZM65.647 60.384h-.05c-.178.002-.321.123-.32.272l.013 1.18c.002.148.148.268.326.267h.05c.178-.002.321-.123.32-.272l-.013-1.18c-.002-.148-.148-.268-.326-.267Z" fill="#262840"/><path opacity=".5" d="M61.294 65.706c3.607-.036 6.508-.861 6.498-1.843-.011-.981-2.93-1.755-6.537-1.729-3.627.027-6.573.852-6.563 1.844.011.99 2.975 1.765 6.602 1.728Z" fill="#233D4A"/><path d="m80.617 61.225-2.281.016.036 3.331 2.282-.021-.037-3.326Z" fill="#AEB9BC"/><path d="m54.936 56.505-4.663.014.02 1.969 4.664-.021-.021-1.962Z" fill="url(#q)"/><path d="m102.162 57.183-4.634.017.042 3.788 4.633-.031-.041-3.774Z" fill="#86BFD3"/><defs><linearGradient id="i" x1="613.366" y1="15.447" x2="619.676" y2="15.379" gradientUnits="userSpaceOnUse"><stop stop-color="#F5F278"/><stop offset=".22" stop-color="#F4F075"/><stop offset=".43" stop-color="#F3EA6B"/><stop offset=".63" stop-color="#F0E25B"/><stop offset=".83" stop-color="#EDD646"/><stop offset="1" stop-color="#EAC936"/></linearGradient><linearGradient id="a" x1="54.075" y1="-14.495" x2="52.795" y2="72.096" gradientUnits="userSpaceOnUse"><stop stop-color="#393DC3"/><stop offset="1" stop-color="#7C9B6B"/></linearGradient><linearGradient id="c" x1="3.979" y1="22.033" x2="88.01" y2="21.119" gradientUnits="userSpaceOnUse"><stop stop-color="#9EEDEF"/><stop offset=".43" stop-color="#77C6F6"/><stop offset=".8" stop-color="#5FA6FB"/></linearGradient><linearGradient id="d" x1="1194.97" y1="40.941" x2="1218.17" y2="40.689" gradientUnits="userSpaceOnUse"><stop stop-color="#F5F278"/><stop offset=".22" stop-color="#F4F075"/><stop offset=".43" stop-color="#F3EA6B"/><stop offset=".63" stop-color="#F0E25B"/><stop offset=".83" stop-color="#EDD646"/><stop offset="1" stop-color="#EAC936"/></linearGradient><linearGradient id="e" x1="-86.258" y1="-86.89" x2="-86.753" y2="-87.44" gradientUnits="userSpaceOnUse"><stop stop-color="#F5F278"/><stop offset=".22" stop-color="#F4F075"/><stop offset=".43" stop-color="#F3EA6B"/><stop offset=".63" stop-color="#F0E25B"/><stop offset=".83" stop-color="#EDD646"/><stop offset="1" stop-color="#EAC936"/></linearGradient><linearGradient id="f" x1="2356.81" y1="26.606" x2="2425.81" y2="25.856" gradientUnits="userSpaceOnUse"><stop stop-color="#F5F278"/><stop offset=".22" stop-color="#F4F075"/><stop offset=".43" stop-color="#F3EA6B"/><stop offset=".63" stop-color="#F0E25B"/><stop offset=".83" stop-color="#EDD646"/><stop offset="1" stop-color="#EAC936"/></linearGradient><linearGradient id="g" x1="2986.63" y1="29.619" x2="3103.16" y2="28.351" gradientUnits="userSpaceOnUse"><stop stop-color="#F5F278"/><stop offset=".22" stop-color="#F4F075"/><stop offset=".43" stop-color="#F3EA6B"/><stop offset=".63" stop-color="#F0E25B"/><stop offset=".83" stop-color="#EDD646"/><stop offset="1" stop-color="#EAC936"/></linearGradient><linearGradient id="h" x1="3700.42" y1="33.122" x2="3882.44" y2="31.142" gradientUnits="userSpaceOnUse"><stop stop-color="#F5F278"/><stop offset=".22" stop-color="#F4F075"/><stop offset=".43" stop-color="#F3EA6B"/><stop offset=".63" stop-color="#F0E25B"/><stop offset=".83" stop-color="#EDD646"/><stop offset="1" stop-color="#EAC936"/></linearGradient><linearGradient id="b" x1="3.696" y1="45.29" x2="104.292" y2="44.196" gradientUnits="userSpaceOnUse"><stop offset=".06" stop-color="#E7B742"/><stop offset=".14" stop-color="#E6C053"/><stop offset=".24" stop-color="#E6C760"/><stop offset=".35" stop-color="#E5CB69"/><stop offset=".5" stop-color="#E4CC6C"/><stop offset=".62" stop-color="#E5CA68"/><stop offset=".73" stop-color="#E5C65F"/><stop offset=".85" stop-color="#E6BD4E"/><stop offset=".91" stop-color="#E7B742"/></linearGradient><linearGradient id="j" x1="1058.08" y1="17.751" x2="1078.47" y2="17.529" gradientUnits="userSpaceOnUse"><stop stop-color="#F5F278"/><stop offset=".22" stop-color="#F4F075"/><stop offset=".43" stop-color="#F3EA6B"/><stop offset=".63" stop-color="#F0E25B"/><stop offset=".83" stop-color="#EDD646"/><stop offset="1" stop-color="#EAC936"/></linearGradient><linearGradient id="k" x1="1317.48" y1="18.991" x2="1350.39" y2="18.633" gradientUnits="userSpaceOnUse"><stop stop-color="#F5F278"/><stop offset=".22" stop-color="#F4F075"/><stop offset=".43" stop-color="#F3EA6B"/><stop offset=".63" stop-color="#F0E25B"/><stop offset=".83" stop-color="#EDD646"/><stop offset="1" stop-color="#EAC936"/></linearGradient><linearGradient id="l" x1="556.773" y1="29.825" x2="559.785" y2="29.792" gradientUnits="userSpaceOnUse"><stop stop-color="#F5F278"/><stop offset=".22" stop-color="#F4F075"/><stop offset=".43" stop-color="#F3EA6B"/><stop offset=".63" stop-color="#F0E25B"/><stop offset=".83" stop-color="#EDD646"/><stop offset="1" stop-color="#EAC936"/></linearGradient><linearGradient id="m" x1="919.092" y1="31.68" x2="928.784" y2="31.574" gradientUnits="userSpaceOnUse"><stop stop-color="#F5F278"/><stop offset=".22" stop-color="#F4F075"/><stop offset=".43" stop-color="#F3EA6B"/><stop offset=".63" stop-color="#F0E25B"/><stop offset=".83" stop-color="#EDD646"/><stop offset="1" stop-color="#EAC936"/></linearGradient><linearGradient id="n" x1="1133.23" y1="32.703" x2="1148.91" y2="32.532" gradientUnits="userSpaceOnUse"><stop stop-color="#F5F278"/><stop offset=".22" stop-color="#F4F075"/><stop offset=".43" stop-color="#F3EA6B"/><stop offset=".63" stop-color="#F0E25B"/><stop offset=".83" stop-color="#EDD646"/><stop offset="1" stop-color="#EAC936"/></linearGradient><linearGradient id="o" x1="1326.36" y1="18.319" x2="1350.68" y2="18.054" gradientUnits="userSpaceOnUse"><stop stop-color="#F5F278"/><stop offset=".22" stop-color="#F4F075"/><stop offset=".43" stop-color="#F3EA6B"/><stop offset=".63" stop-color="#F0E25B"/><stop offset=".83" stop-color="#EDD646"/><stop offset="1" stop-color="#EAC936"/></linearGradient><linearGradient id="p" x1="768.331" y1="15.252" x2="777.639" y2="15.151" gradientUnits="userSpaceOnUse"><stop stop-color="#F5F278"/><stop offset=".22" stop-color="#F4F075"/><stop offset=".43" stop-color="#F3EA6B"/><stop offset=".63" stop-color="#F0E25B"/><stop offset=".83" stop-color="#EDD646"/><stop offset="1" stop-color="#EAC936"/></linearGradient><linearGradient id="q" x1="50.283" y1="57.485" x2="54.933" y2="57.435" gradientUnits="userSpaceOnUse"><stop offset=".02" stop-color="#765149"/><stop offset=".28" stop-color="#6E4845"/><stop offset=".71" stop-color="#57303B"/><stop offset="1" stop-color="#461C34"/></linearGradient></defs></svg>