<svg width="75" height="53" viewBox="0 0 75 53" fill="none" xmlns="http://www.w3.org/2000/svg">
<path d="M5.71981 17.806C5.71981 17.806 26.4352 16.8193 28.9756 17.6762C30.768 18.2807 33.2193 22.8638 34.3001 23.3078C35.9532 23.9868 34.8864 20.8258 34.3946 19.8902C34.0663 19.2656 29.8812 15.2467 28.471 14.9762C24.597 14.2329 4.26233 13.2101 4.26233 13.2101L5.71981 17.806Z" fill="url(#paint0_linear_13440_291743)"/>
<path d="M6.15436 18.0136C6.15436 18.0136 26.7669 16.8555 29.3075 17.7127C31.1002 18.3175 33.5522 22.9607 34.6328 23.3465C35.599 23.6915 35.2191 20.8636 34.7273 19.9276C34.3989 19.3028 30.2133 15.2823 28.8029 15.0117C24.9284 14.2681 4.69667 13.4159 4.69667 13.4159L6.15436 18.0136Z" fill="url(#paint1_linear_13440_291743)"/>
<path d="M50.0506 26.5808C50.0506 26.5808 58.9152 23.329 61.5378 24.137C63.4243 24.7183 66.0065 29.446 67.1765 29.8905C68.8364 30.5212 67.8575 27.3038 67.3297 26.3288C66.9778 25.6788 62.5028 21.5934 61.0198 21.367C57.0455 20.7603 48.6203 22.1578 48.6203 22.1578L50.0506 26.5808Z" fill="url(#paint2_linear_13440_291743)"/>
<path d="M50.972 26.8768C50.972 26.8768 59.2747 23.3785 61.8943 24.1852C63.7787 24.7655 66.359 29.5281 67.5266 29.9291C68.5801 30.2909 68.2069 27.3467 67.6797 26.3733C67.3282 25.7244 62.8583 21.6458 61.377 21.4198C57.4072 20.8141 49.5433 22.4611 49.5433 22.4611L50.972 26.8768Z" fill="url(#paint3_linear_13440_291743)"/>
<path d="M47.5804 20.772C46.9526 20.2506 36.2428 17.847 32.6682 17.5443C28.439 17.1863 27.2339 20.1612 24.7051 19.6438L24.6265 19.6289C22.1855 19.2005 18.9704 15.5312 15.0364 14.4942C11.9463 13.6795 4.53494 12.8683 4.33093 13.1661C4.12765 13.4629 5.20877 16.7881 5.47698 17.2181C5.74556 17.6488 6.33344 18.0023 6.67963 18.4032C7.02667 18.805 10.0433 25.8504 11.9446 28.1375C14.7348 31.494 21.1361 33.3383 23.8054 31.9729C25.7817 30.9619 24.9698 24.9429 24.9776 24.1709C24.9888 23.0614 26.6873 23.4072 27.4905 24.704C28.0503 25.608 31.4352 32.3444 34.7035 34.7182C39.392 38.1238 47.4163 40.0326 48.8935 37.2812C49.9368 35.3383 48.3754 27.2281 48.5816 26.864C48.7883 26.4988 49.4566 26.3407 49.5048 25.8827C49.5531 25.4238 48.2109 21.2957 47.5804 20.772ZM22.6664 31.0207C20.9677 31.8208 16.2014 31.1245 13.0123 28.1378C11.1639 26.4068 7.15237 18.2716 8.27619 16.642C9.47078 14.9099 18.5918 16.2533 21.657 20.5563C23.6612 23.3698 24.5183 30.1486 22.6664 31.0207ZM47.1501 36.5388C44.7844 38.4818 38.4008 36.2617 35.4657 34.2028C32.4087 32.0584 28.4793 24.3793 28.8541 21.9782C29.4447 18.1938 40.9167 20.5805 44.3198 23.5177C47.661 26.4015 48.5815 35.363 47.1501 36.5388Z" fill="#BCBCBC"/>
<path opacity="0.8" d="M7.60728 16.4781C8.44307 14.7315 16.4264 15.8616 19.5327 20.0658C21.5637 22.8147 23.0453 29.5266 21.5502 30.434C20.1788 31.2664 16.0077 30.6816 12.9397 27.7872C11.1615 26.1097 6.82094 18.1213 7.60728 16.4781Z" fill="url(#paint4_linear_13440_291743)"/>
<path opacity="0.8" d="M42.8863 23.5646C39.5908 20.7083 29.3303 18.5853 29.2433 22.3786C29.1881 24.7855 33.4774 32.3661 36.3818 34.4384C39.1706 36.4282 44.9807 38.5004 46.8216 36.5059C47.9355 35.299 46.1218 26.369 42.8863 23.5646Z" fill="url(#paint5_linear_13440_291743)"/>
<path d="M45.2041 20.0141C44.5526 19.4838 34.2439 17.2298 30.8651 17.0003C26.8675 16.7287 26.11 19.8706 23.6821 19.3908L23.6069 19.3771C21.272 18.9884 17.8119 15.2277 14.0061 14.2385C11.0166 13.4614 3.98852 12.7932 3.83471 13.1097C3.6815 13.4251 5.1044 16.8778 5.40838 17.3212C5.71283 17.7653 6.30621 18.1209 6.67947 18.5318C7.05367 18.9438 10.747 26.2417 12.8078 28.5883C15.8321 32.0321 22.0442 33.8059 24.3699 32.3122C26.0918 31.2063 24.5867 24.9287 24.4982 24.1208C24.3711 22.9596 26.0016 23.28 26.9131 24.6173C27.5485 25.5495 31.5478 32.5151 34.897 34.9192C39.7017 38.3681 47.4389 40.1698 48.4787 37.2551C49.2129 35.1969 46.7477 26.7495 46.8953 26.3636C47.0433 25.9764 47.6484 25.7947 47.6366 25.3143C47.6249 24.8331 45.8584 20.5467 45.2041 20.0141ZM23.1872 31.3438C21.6986 32.2222 17.1571 31.6098 13.8058 28.5626C11.8635 26.7965 7.10504 18.3826 7.95344 16.6503C8.85527 14.8089 17.5475 15.9924 20.9462 20.4197C23.1684 23.3146 24.8101 30.3861 23.1872 31.3438ZM46.7569 36.5208C44.7865 38.6113 38.5444 36.444 35.5455 34.3613C32.4223 32.1921 27.7972 24.2535 27.8498 21.7321C27.9326 17.7583 38.9517 19.976 42.4968 22.9662C45.9775 25.9021 47.9491 35.2558 46.7569 36.5208Z" fill="#CCCCCC"/>
<path opacity="0.5" d="M19.6391 19.9552C16.4451 15.6549 8.27349 14.508 7.42507 16.2939C6.62728 17.9731 11.0856 26.1312 12.9081 27.8457C16.0544 30.8054 20.3273 31.4096 21.7312 30.561C23.2626 29.6353 21.7283 22.7681 19.6391 19.9552ZM21.5854 30.4382C20.2228 31.2726 16.0633 30.6903 12.992 27.7949C11.212 26.1169 6.84815 18.1228 7.62384 16.4771C8.44837 14.7278 16.4094 15.8532 19.5251 20.0597C21.5623 22.8102 23.0709 29.5286 21.5854 30.4382Z" fill="#8C8C8C"/>
<path opacity="0.5" d="M36.3351 34.5181C39.1945 36.554 45.1562 38.6814 47.0459 36.6465C48.1901 35.4145 46.3225 26.2779 42.9969 23.4084C39.6119 20.4876 29.0966 18.3259 29.0132 22.2009C28.9603 24.6585 33.3588 32.3991 36.3351 34.5181ZM29.2545 22.3802C29.3294 18.5834 39.5775 20.7032 42.8758 23.5605C46.1141 26.3658 47.9526 35.3029 46.8446 36.5114C45.0135 38.5086 39.2076 36.4373 36.4178 34.4472C33.5121 32.3744 29.2069 24.7891 29.2545 22.3802Z" fill="#8C8C8C"/>
<path opacity="0.032258" d="M25.1663 22.6012C24.7461 22.5155 24.654 22.828 24.6828 23.2006C24.6873 23.2598 24.6949 23.3204 24.7046 23.3812C24.7268 23.5215 24.7613 23.6621 24.7964 23.7835C24.8746 24.0545 24.9612 24.2499 24.9535 24.2055C24.9486 24.1771 24.9435 24.1491 24.9402 24.1224C24.8885 23.7133 25.0943 23.5234 25.4214 23.5325C25.4785 23.5339 25.5391 23.5416 25.6025 23.5551C25.8938 23.6174 26.2415 23.8046 26.5703 24.0981C26.753 24.2614 26.9276 24.4553 27.08 24.6704C27.119 24.7255 26.8855 24.2581 26.5198 23.752C26.3366 23.4986 26.1201 23.2354 25.8881 23.0232C25.657 22.8117 25.4106 22.651 25.1663 22.6012Z" fill="#BCBCBC"/>
<path opacity="0.064516" d="M25.1687 22.6265C24.7477 22.5407 24.6535 22.8498 24.6801 23.2179C24.6841 23.2767 24.6914 23.3371 24.7007 23.3974C24.7224 23.5392 24.7567 23.6801 24.7907 23.7976C24.8664 24.0599 24.9501 24.2438 24.9429 24.1946C24.9388 24.1669 24.9335 24.139 24.9304 24.1125C24.8834 23.7112 25.0873 23.5215 25.4183 23.5329C25.4755 23.5347 25.5361 23.5425 25.5993 23.5562C25.8922 23.6202 26.2391 23.8092 26.5652 24.1004C26.7512 24.2671 26.9262 24.4628 27.0738 24.6709C27.1116 24.7242 26.8796 24.2629 26.516 23.7633C26.3335 23.5127 26.1178 23.2526 25.8862 23.0429C25.6567 22.8345 25.4118 22.676 25.1687 22.6265Z" fill="#BCBCBC"/>
<path opacity="0.096774" d="M25.1773 22.6522C24.7555 22.5663 24.6603 22.8726 24.6835 23.2356C24.6872 23.2942 24.6941 23.3542 24.7029 23.4141C24.724 23.5573 24.7583 23.6987 24.7911 23.8123C24.8644 24.0657 24.9451 24.2382 24.9384 24.1843C24.9349 24.1571 24.9297 24.1294 24.9268 24.1032C24.8839 23.7092 25.0864 23.52 25.4214 23.5338C25.4787 23.5359 25.5393 23.544 25.6024 23.5579C25.8969 23.6234 26.2431 23.8136 26.5665 24.1033C26.7559 24.273 26.9311 24.4708 27.0739 24.6719C27.1105 24.7235 26.88 24.2681 26.5185 23.7751C26.3367 23.5274 26.1217 23.2703 25.8906 23.063C25.6626 22.8577 25.4192 22.7015 25.1773 22.6522Z" fill="#BCBCBC"/>
<path opacity="0.129032" d="M25.1863 22.6748C24.7637 22.5888 24.6667 22.892 24.6873 23.2503C24.6906 23.3086 24.6971 23.3683 24.7055 23.4277C24.7259 23.5723 24.7602 23.7142 24.792 23.8238C24.8628 24.0684 24.9404 24.2296 24.9342 24.1708C24.9314 24.1441 24.9261 24.1167 24.9235 24.0907C24.8848 23.7042 25.0864 23.5163 25.4249 23.5315C25.4824 23.5341 25.5429 23.5423 25.6059 23.5564C25.902 23.6236 26.2474 23.8154 26.568 24.103C26.7609 24.2761 26.9364 24.4757 27.0745 24.6699C27.1098 24.7196 26.8808 24.2703 26.5215 23.7839C26.3403 23.539 26.1257 23.2851 25.8954 23.08C25.6688 22.8782 25.4271 22.7238 25.1863 22.6748Z" fill="#BCBCBC"/>
<path opacity="0.16129" d="M25.1956 22.6985C24.7722 22.6123 24.6734 22.9124 24.6913 23.2659C24.6943 23.3239 24.7004 23.3833 24.7084 23.4423C24.7281 23.5883 24.7624 23.7307 24.7931 23.8364C24.8614 24.0722 24.9359 24.2218 24.9303 24.1583C24.928 24.1321 24.9229 24.1049 24.9205 24.0792C24.8858 23.7 25.0874 23.5152 25.4287 23.5302C25.4861 23.5327 25.5468 23.5416 25.6097 23.5559C25.9074 23.6247 26.252 23.8182 26.57 24.1038C26.7662 24.2801 26.9422 24.4816 27.0754 24.6688C27.1095 24.7167 26.882 24.2735 26.5248 23.7935C26.3443 23.5516 26.1304 23.3008 25.9005 23.098C25.6754 22.8993 25.4352 22.7472 25.1956 22.6985Z" fill="#BCBCBC"/>
<path opacity="0.193548" d="M25.2053 22.7232C24.7809 22.6369 24.6803 22.9338 24.6956 23.2827C24.6981 23.3404 24.7039 23.3994 24.7115 23.458C24.7305 23.6054 24.7649 23.7483 24.7944 23.85C24.8602 24.077 24.9316 24.2152 24.9266 24.1469C24.9247 24.1211 24.9198 24.0942 24.9177 24.0689C24.8871 23.697 25.0876 23.5132 25.4328 23.53C25.4903 23.5328 25.5509 23.5418 25.6137 23.5564C25.9128 23.6262 26.257 23.822 26.5723 24.1057C26.772 24.2853 26.9482 24.4887 27.0766 24.6688C27.1095 24.715 26.8835 24.2777 26.5283 23.8044C26.3485 23.5653 26.1353 23.3175 25.906 23.1171C25.6823 22.9216 25.4437 22.7717 25.2053 22.7232Z" fill="#BCBCBC"/>
<path opacity="0.225806" d="M25.2093 22.7481C24.7841 22.6617 24.6816 22.9553 24.6943 23.2996C24.6964 23.3569 24.7018 23.4156 24.709 23.4738C24.7273 23.6227 24.7617 23.7661 24.79 23.8638C24.8534 24.082 24.9215 24.2087 24.9173 24.1355C24.9158 24.1102 24.9111 24.0836 24.9093 24.0586C24.8828 23.694 25.0807 23.5081 25.4312 23.5299C25.4891 23.5335 25.5495 23.5422 25.6122 23.5571C25.9129 23.6284 26.2563 23.8261 26.5689 24.1076C26.7721 24.2906 26.9487 24.4959 27.0722 24.6691C27.1039 24.7134 26.8794 24.2822 26.5264 23.8153C26.3472 23.5791 26.1346 23.3344 25.9058 23.1363C25.6836 22.944 25.4465 22.7962 25.2093 22.7481Z" fill="#BCBCBC"/>
<path opacity="0.258065" d="M25.2244 22.7728C24.7983 22.6863 24.6939 22.9767 24.7039 23.3163C24.7056 23.3734 24.7106 23.4318 24.7174 23.4896C24.7349 23.6399 24.7694 23.7838 24.7967 23.8776C24.8575 24.0869 24.9223 24.202 24.9189 24.1241C24.9177 24.0992 24.9133 24.0728 24.9117 24.0481C24.8893 23.6909 25.0861 23.5056 25.4406 23.5297C25.4987 23.5337 25.5591 23.5426 25.6217 23.5577C25.924 23.6306 26.2666 23.83 26.5766 24.1096C26.7833 24.2959 26.9603 24.503 27.0789 24.6692C27.1093 24.7117 26.8863 24.2865 26.5354 23.8262C26.3569 23.5929 26.145 23.3511 25.9167 23.1555C25.696 22.9663 25.4604 22.8208 25.2244 22.7728Z" fill="#BCBCBC"/>
<path opacity="0.290323" d="M25.2279 22.7971C24.8009 22.7104 24.6946 22.9977 24.7021 23.3327C24.7033 23.3895 24.7079 23.4475 24.7143 23.5048C24.7311 23.6566 24.7657 23.8011 24.7918 23.8909C24.8501 24.0913 24.9115 24.1948 24.9089 24.1121C24.9081 24.0876 24.904 24.0616 24.9027 24.0372C24.8843 23.6873 25.08 23.5026 25.4386 23.5289C25.4968 23.5333 25.5572 23.5424 25.6196 23.5577C25.9237 23.6322 26.2655 23.8334 26.5729 24.111C26.783 24.3007 26.9604 24.5098 27.0742 24.6689C27.1033 24.7096 26.8818 24.2904 26.533 23.8366C26.3551 23.6061 26.1438 23.3674 25.916 23.1741C25.6969 22.9881 25.4628 22.8448 25.2279 22.7971Z" fill="#BCBCBC"/>
<path opacity="0.322581" d="M25.2385 22.8219C24.8106 22.7351 24.7023 23.0191 24.7072 23.3495C24.708 23.406 24.7123 23.4637 24.7182 23.5206C24.7342 23.6738 24.7689 23.8188 24.7939 23.9047C24.8497 24.0962 24.9076 24.1881 24.9059 24.1007C24.9055 24.0765 24.9017 24.0508 24.9007 24.0267C24.8863 23.6842 25.0808 23.5 25.4436 23.5287C25.5019 23.5333 25.5623 23.5427 25.6247 23.5583C25.9304 23.6343 26.2715 23.8374 26.5761 24.1129C26.7898 24.306 26.9676 24.517 27.0764 24.669C27.1043 24.708 26.8843 24.2948 26.5376 23.8475C26.3604 23.6199 26.1498 23.3842 25.9225 23.1933C25.7048 23.0104 25.4722 22.8693 25.2385 22.8219Z" fill="#BCBCBC"/>
<path opacity="0.354839" d="M25.2474 22.845C24.8186 22.7581 24.7082 23.0389 24.7105 23.3646C24.711 23.4209 24.7148 23.4782 24.7204 23.5348C24.7356 23.6894 24.7704 23.835 24.7942 23.9168C24.8475 24.0995 24.9018 24.1796 24.9012 24.0875C24.901 24.0637 24.8975 24.0384 24.8968 24.0145C24.8864 23.6793 25.0799 23.4957 25.4469 23.5268C25.5053 23.5317 25.5656 23.5414 25.6279 23.5571C25.9353 23.6348 26.2757 23.8397 26.5777 24.1131C26.7949 24.3097 26.9731 24.5226 27.077 24.6676C27.1036 24.7047 26.8851 24.2975 26.5405 23.8568C26.364 23.632 26.154 23.3994 25.9272 23.2108C25.711 23.0311 25.48 22.8922 25.2474 22.845Z" fill="#BCBCBC"/>
<path opacity="0.387097" d="M25.2516 22.8711C24.8218 22.784 24.7094 23.0616 24.7092 23.3827C24.7092 23.4386 24.7126 23.4957 24.7177 23.5518C24.7322 23.7079 24.7671 23.8541 24.7898 23.9319C24.8405 24.1057 24.8912 24.1739 24.8916 24.0771C24.8918 24.0538 24.8886 24.0287 24.8882 24.0052C24.8818 23.6773 25.0742 23.4943 25.4454 23.5277C25.5039 23.533 25.5643 23.5429 25.6265 23.5588C25.9357 23.6381 26.2751 23.8449 26.5746 24.1163C26.7953 24.3163 26.9739 24.5311 27.0729 24.669C27.0982 24.7043 26.8818 24.3028 26.5387 23.869C26.3631 23.6469 26.1535 23.4174 25.9272 23.2312C25.7125 23.0547 25.483 22.9179 25.2516 22.8711Z" fill="#BCBCBC"/>
<path opacity="0.419355" d="M25.2628 22.8948C24.832 22.8075 24.7175 23.082 24.7147 23.3984C24.7143 23.4541 24.7173 23.5108 24.7221 23.5666C24.7357 23.7241 24.7708 23.8709 24.7924 23.9447C24.8405 24.1096 24.8874 24.1659 24.889 24.0644C24.8894 24.0415 24.8866 24.0168 24.8864 23.9936C24.884 23.6729 25.0754 23.4905 25.4509 23.5263C25.5096 23.5318 25.5699 23.542 25.632 23.5582C25.9429 23.6391 26.2817 23.8479 26.5784 24.1171C26.8027 24.3206 26.9818 24.5374 27.0758 24.6682C27.0998 24.7017 26.8849 24.3062 26.5439 23.8788C26.369 23.6596 26.1601 23.4332 25.9341 23.2493C25.721 23.0759 25.493 22.9414 25.2628 22.8948Z" fill="#BCBCBC"/>
<path opacity="0.451613" d="M25.2684 22.9198C24.8366 22.8324 24.7199 23.1036 24.7146 23.4154C24.7137 23.4708 24.7163 23.5272 24.7207 23.5826C24.7335 23.7415 24.7687 23.8889 24.7892 23.9588C24.8348 24.1147 24.8777 24.159 24.8807 24.0529C24.8813 24.0303 24.8789 24.006 24.879 23.9831C24.8805 23.6697 25.071 23.4878 25.4507 23.526C25.5095 23.5319 25.5699 23.5424 25.6318 23.5588C25.9446 23.6414 26.2825 23.852 26.5766 24.1192C26.8045 24.3262 26.984 24.5448 27.073 24.6686C27.0957 24.7003 26.8823 24.3108 26.5435 23.89C26.3692 23.6736 26.1609 23.4501 25.9355 23.2687C25.7238 23.0984 25.4974 22.9661 25.2684 22.9198Z" fill="#BCBCBC"/>
<path opacity="0.483871" d="M25.2848 22.9442C24.852 22.8566 24.7332 23.1245 24.7254 23.4318C24.724 23.4869 24.7262 23.543 24.7303 23.598C24.7421 23.7583 24.7776 23.9064 24.7968 23.9722C24.8399 24.1192 24.8789 24.1515 24.8831 24.0408C24.884 24.0185 24.882 23.9946 24.8824 23.972C24.8879 23.6659 25.0773 23.4845 25.4614 23.5251C25.5204 23.5314 25.5807 23.5421 25.6426 23.5587C25.9571 23.643 26.2942 23.8555 26.5857 24.1206C26.8172 24.3312 26.9971 24.5518 27.0811 24.6684C27.1026 24.6983 26.8907 24.3147 26.5539 23.9005C26.3803 23.687 26.1726 23.4664 25.9477 23.2874C25.7375 23.1203 25.5126 22.9903 25.2848 22.9442Z" fill="#BCBCBC"/>
<path opacity="0.516129" d="M25.2877 22.9691C24.8539 22.8813 24.7329 23.146 24.7226 23.4487C24.7207 23.5035 24.7225 23.5593 24.7262 23.6139C24.7372 23.7757 24.7728 23.9244 24.7909 23.9862C24.8314 24.1242 24.8663 24.1443 24.872 24.0291C24.8731 24.0071 24.8715 23.9836 24.8722 23.9613C24.8816 23.6624 25.0701 23.4816 25.4585 23.5247C25.5176 23.5313 25.578 23.5423 25.6398 23.5591C25.956 23.6451 26.2924 23.8596 26.5812 24.1226C26.8164 24.3367 26.9967 24.5592 27.0757 24.6687C27.0959 24.6968 26.8855 24.3192 26.5508 23.9115C26.3779 23.7008 26.1709 23.4833 25.9464 23.3067C25.7378 23.1426 25.5143 23.0149 25.2877 22.9691Z" fill="#BCBCBC"/>
<path opacity="0.548387" d="M25.2908 22.9935C24.8559 22.9055 24.7327 23.1669 24.7199 23.4652C24.7175 23.5196 24.7189 23.575 24.7222 23.6293C24.7323 23.7926 24.7681 23.9419 24.7851 23.9997C24.8229 24.1287 24.8536 24.1366 24.8609 24.0168C24.8623 23.9952 24.8611 23.972 24.8621 23.95C24.8753 23.6584 25.0629 23.4782 25.4558 23.5238C25.5151 23.5306 25.5755 23.5419 25.6371 23.5589C25.9552 23.6467 26.2907 23.8631 26.5769 24.124C26.8157 24.3417 26.9965 24.5662 27.0704 24.6686C27.0893 24.6948 26.8804 24.3232 26.5479 23.9221C26.3756 23.7142 26.1693 23.4997 25.9452 23.3255C25.7382 23.1645 25.5162 23.039 25.2908 22.9935Z" fill="#BCBCBC"/>
<path opacity="0.580645" d="M25.2979 23.0185C24.862 22.9304 24.7365 23.1885 24.7212 23.4822C24.7184 23.5364 24.7193 23.5915 24.7223 23.6454C24.7314 23.8101 24.7675 23.9602 24.7833 24.0139C24.8185 24.1339 24.8449 24.1294 24.8539 24.0052C24.8554 23.9839 24.8547 23.9611 24.856 23.9394C24.8731 23.6551 25.0598 23.4753 25.4571 23.5234C25.5165 23.5306 25.5769 23.5422 25.6385 23.5594C25.9584 23.6489 26.2931 23.8673 26.5766 24.1261C26.8191 24.3475 27.0004 24.5739 27.0692 24.6691C27.0868 24.6935 26.8794 24.3279 26.549 23.9333C26.3774 23.7283 26.1717 23.5167 25.9481 23.3449C25.7425 23.1871 25.5222 23.0638 25.2979 23.0185Z" fill="#BCBCBC"/>
<path opacity="0.612903" d="M25.3149 23.0423C24.878 22.954 24.7501 23.2089 24.7324 23.4981C24.729 23.5519 24.7296 23.6067 24.7322 23.6602C24.7404 23.8264 24.7767 23.9772 24.7913 24.0269C24.8239 24.1378 24.8459 24.1209 24.8566 23.9922C24.8584 23.9712 24.8581 23.9488 24.8596 23.9274C24.8806 23.6503 25.0665 23.4711 25.4683 23.5218C25.5278 23.5293 25.5882 23.5412 25.6497 23.5586C25.9715 23.6499 26.3053 23.8702 26.5862 24.1269C26.8324 24.3519 27.0142 24.5804 27.0778 24.6684C27.0941 24.6909 26.8882 24.3313 26.56 23.9433C26.389 23.7411 26.184 23.5325 25.9608 23.3631C25.7569 23.2084 25.538 23.0874 25.3149 23.0423Z" fill="#BCBCBC"/>
<path opacity="0.645161" d="M25.3203 23.0667C24.8823 22.9782 24.7521 23.2297 24.7319 23.5144C24.7281 23.568 24.7282 23.6224 24.7305 23.6756C24.7377 23.8432 24.7743 23.9947 24.7877 24.0403C24.8177 24.1422 24.8351 24.1126 24.8477 23.9797C24.8497 23.959 24.8497 23.937 24.8517 23.916C24.8764 23.646 25.0616 23.4673 25.4678 23.5206C25.5275 23.5284 25.588 23.5406 25.6493 23.5582C25.973 23.6513 26.306 23.8736 26.5842 24.1282C26.8341 24.3569 27.0164 24.5873 27.0749 24.6682C27.0898 24.6889 26.8855 24.3353 26.5594 23.9537C26.3891 23.7544 26.1847 23.5487 25.962 23.3818C25.7596 23.2302 25.5423 23.1115 25.3203 23.0667Z" fill="#BCBCBC"/>
<path opacity="0.677419" d="M25.3239 23.0916C24.8849 23.0029 24.7522 23.2511 24.7296 23.5314C24.7253 23.5846 24.7249 23.6387 24.7268 23.6916C24.7331 23.8607 24.77 24.0129 24.7822 24.0545C24.8095 24.1472 24.8223 24.105 24.8369 23.9677C24.839 23.9474 24.8396 23.9257 24.8418 23.905C24.8703 23.6421 25.0547 23.464 25.4655 23.5199C25.5253 23.528 25.5858 23.5405 25.6471 23.5584C25.9726 23.6533 26.3049 23.8776 26.5804 24.1302C26.834 24.3626 27.0168 24.595 27.0701 24.6686C27.0837 24.6874 26.8808 24.3399 26.557 23.9648C26.3873 23.7684 26.1836 23.5656 25.9613 23.4011C25.7605 23.2526 25.5446 23.1361 25.3239 23.0916Z" fill="#BCBCBC"/>
<path opacity="0.709677" d="M25.3277 23.1167C24.8875 23.0278 24.7524 23.2726 24.7274 23.5484C24.7226 23.6014 24.7217 23.6552 24.7233 23.7077C24.7285 23.8783 24.7658 24.0313 24.7768 24.0687C24.8015 24.1524 24.8094 24.0973 24.8261 23.9558C24.8284 23.9357 24.8294 23.9145 24.832 23.8941C24.8642 23.6383 25.0479 23.4608 25.4633 23.5193C25.5233 23.5278 25.5838 23.5406 25.645 23.5587C25.9724 23.6554 26.3038 23.8817 26.5766 24.1322C26.834 24.3684 27.0173 24.6027 27.0654 24.6691C27.0777 24.6861 26.8763 24.3446 26.5546 23.976C26.3856 23.7824 26.1826 23.5826 25.9607 23.4205C25.7615 23.2751 25.5472 23.1609 25.3277 23.1167Z" fill="#BCBCBC"/>
<path opacity="0.741935" d="M25.3472 23.1412C24.9059 23.0521 24.7683 23.2935 24.7409 23.5649C24.7356 23.6176 24.7343 23.6711 24.7355 23.7232C24.7396 23.8953 24.7773 24.049 24.7871 24.0824C24.8091 24.1569 24.8121 24.0889 24.831 23.9432C24.8336 23.9234 24.835 23.9026 24.8379 23.8824C24.8738 23.6339 25.0568 23.4569 25.4769 23.5181C25.537 23.5269 25.5976 23.54 25.6586 23.5583C25.988 23.6569 26.3185 23.8852 26.5886 24.1335C26.8498 24.3736 27.0336 24.61 27.0765 24.6691C27.0875 24.6842 26.8876 24.3487 26.5681 23.9867C26.3997 23.796 26.1974 23.599 25.9759 23.4394C25.7782 23.297 25.5655 23.1852 25.3472 23.1412Z" fill="#BCBCBC"/>
<path opacity="0.774194" d="M25.3511 23.1662C24.9088 23.0769 24.7687 23.3149 24.7388 23.5819C24.7329 23.6343 24.7313 23.6875 24.7322 23.7392C24.7352 23.9128 24.7732 24.0674 24.7818 24.0966C24.8011 24.1619 24.7991 24.0809 24.8203 23.9309C24.8231 23.9115 24.8249 23.8911 24.8281 23.8712C24.8677 23.6298 25.0501 23.4533 25.4749 23.5173C25.5351 23.5264 25.5957 23.5398 25.6567 23.5583C25.988 23.6588 26.3176 23.8892 26.5851 24.1355C26.85 24.3793 27.0344 24.6177 27.072 24.6696C27.0817 24.6828 26.8833 24.3533 26.566 23.9978C26.3982 23.8099 26.1966 23.6158 25.9755 23.4587C25.7795 23.3194 25.5683 23.2099 25.3511 23.1662Z" fill="#BCBCBC"/>
<path opacity="0.806452" d="M25.3582 23.1896C24.9147 23.1001 24.772 23.3348 24.7398 23.5973C24.7334 23.6494 24.7313 23.7023 24.7318 23.7537C24.7338 23.9288 24.7721 24.0842 24.7795 24.1093C24.7961 24.1654 24.7889 24.0711 24.8126 23.9171C24.8155 23.8979 24.8178 23.8779 24.8214 23.8584C24.8646 23.6239 25.0464 23.4481 25.4759 23.5148C25.5363 23.5242 25.5969 23.5381 25.6577 23.5567C25.9911 23.6591 26.3198 23.8916 26.5846 24.1358C26.8533 24.3835 27.0383 24.624 27.0706 24.6685C27.0789 24.6799 26.8817 24.3567 26.5669 24.0074C26.3996 23.8226 26.1989 23.6311 25.9782 23.4765C25.7838 23.3403 25.5741 23.2332 25.3582 23.1896Z" fill="#BCBCBC"/>
<path opacity="0.83871" d="M25.3624 23.2152C24.9178 23.1255 24.7725 23.3567 24.7379 23.6149C24.731 23.6667 24.7284 23.7193 24.7286 23.7704C24.7294 23.9469 24.7682 24.1032 24.7744 24.1242C24.7882 24.171 24.7757 24.0634 24.8019 23.9053C24.8051 23.8864 24.8078 23.8668 24.8117 23.8477C24.8586 23.6202 25.0399 23.445 25.4741 23.5145C25.5346 23.5242 25.5953 23.5384 25.656 23.5572C25.9913 23.6616 26.3192 23.8962 26.5813 24.1382C26.8538 24.3899 27.0393 24.6324 27.0663 24.6696C27.0733 24.6791 26.8775 24.362 26.565 24.0192C26.3984 23.8372 26.1984 23.6486 25.9781 23.4965C25.7852 23.3633 25.5771 23.2585 25.3624 23.2152Z" fill="#BCBCBC"/>
<path opacity="0.870968" d="M25.3755 23.2391C24.9298 23.1492 24.7818 23.377 24.7448 23.6308C24.7373 23.6823 24.7343 23.7346 24.7343 23.7853C24.7339 23.9634 24.7731 24.1206 24.7781 24.1374C24.7892 24.1749 24.7712 24.0537 24.8001 23.8917C24.8034 23.8731 24.8066 23.8539 24.8109 23.8351C24.8614 23.6146 25.0421 23.44 25.4812 23.5124C25.5418 23.5224 25.6026 23.537 25.6632 23.556C26.0006 23.6629 26.3274 23.899 26.5868 24.139C26.8632 24.3946 27.0493 24.6392 27.0709 24.669C27.0765 24.6766 26.8824 24.3655 26.572 24.0293C26.4061 23.8502 26.2067 23.6644 25.9869 23.5148C25.7956 23.3846 25.589 23.2822 25.3755 23.2391Z" fill="#BCBCBC"/>
<path opacity="0.903226" d="M25.38 23.2642C24.9331 23.174 24.7825 23.3984 24.7431 23.6479C24.735 23.699 24.7316 23.751 24.7312 23.8015C24.7297 23.981 24.7693 24.1391 24.7731 24.1517C24.7814 24.18 24.7578 24.0451 24.7895 23.8791C24.7931 23.8608 24.7967 23.842 24.8013 23.8235C24.8554 23.61 25.0353 23.4352 25.4795 23.5113C25.5403 23.5215 25.6011 23.5365 25.6616 23.5557C26.001 23.6645 26.327 23.9029 26.5837 24.1408C26.8639 24.4004 27.0505 24.6471 27.0669 24.6695C27.0711 24.6752 26.8785 24.3701 26.5703 24.0405C26.405 23.8642 26.2064 23.6812 25.9869 23.5342C25.7973 23.4071 25.5923 23.307 25.38 23.2642Z" fill="#BCBCBC"/>
<path opacity="0.935484" d="M25.3934 23.2877C24.9453 23.1972 24.7919 23.4181 24.7502 23.6633C24.7417 23.7141 24.7377 23.7658 24.737 23.816C24.7343 23.997 24.7744 24.1561 24.7769 24.1646C24.7825 24.1834 24.7531 24.0346 24.7878 23.8648C24.7915 23.8468 24.7955 23.8284 24.8006 23.8103C24.8582 23.6037 25.0378 23.4298 25.4867 23.5085C25.5477 23.519 25.6085 23.5344 25.669 23.5539C26.0104 23.6645 26.3353 23.9054 26.5894 24.1409C26.8733 24.4049 27.0608 24.6535 27.0717 24.6684C27.0745 24.6723 26.8835 24.3732 26.5775 24.0501C26.4129 23.8766 26.215 23.6962 25.9959 23.552C25.8079 23.4276 25.6044 23.3303 25.3934 23.2877Z" fill="#BCBCBC"/>
<path opacity="0.967742" d="M25.3981 23.3123C24.9489 23.2216 24.7923 23.4387 24.7487 23.6799C24.7394 23.7303 24.7351 23.7817 24.7341 23.8316C24.7299 24.014 24.7708 24.1742 24.7721 24.1785C24.7748 24.1879 24.7395 24.0251 24.7773 23.8516C24.7812 23.8337 24.7857 23.8158 24.7911 23.798C24.8522 23.5982 25.0316 23.4254 25.4853 23.5068C25.5464 23.5176 25.6073 23.5333 25.6676 23.553C26.011 23.6656 26.3352 23.9087 26.5865 24.1423C26.8743 24.4102 27.0624 24.661 27.0678 24.6685C27.0692 24.6704 26.8799 24.3774 26.5761 24.0609C26.4121 23.8902 26.2148 23.7127 25.9962 23.5709C25.8098 23.4498 25.608 23.3546 25.3981 23.3123Z" fill="#BCBCBC"/>
<path d="M25.4118 23.3375C24.9613 23.2465 24.8024 23.4604 24.7561 23.697C24.7097 23.9337 24.7761 24.1931 24.7761 24.1931C24.7761 24.1931 24.7259 23.9791 24.7905 23.7862C24.855 23.5933 25.0342 23.4214 25.4928 23.5055C25.9056 23.5812 26.3007 23.8721 26.5925 24.1441C26.8843 24.4161 27.0729 24.6692 27.0729 24.6692C27.0729 24.6692 26.885 24.3822 26.5835 24.0723C26.282 23.7623 25.8667 23.4294 25.4118 23.3375Z" fill="#BCBCBC"/>
<defs>
<linearGradient id="paint0_linear_13440_291743" x1="5.64274" y1="17.563" x2="31.1906" y2="9.46107" gradientUnits="userSpaceOnUse">
<stop stop-color="#A5A5A5"/>
<stop offset="0.0183334" stop-color="#A6A6A6"/>
<stop offset="0.434854" stop-color="#AFAFAF"/>
<stop offset="1" stop-color="#B2B2B2"/>
</linearGradient>
<linearGradient id="paint1_linear_13440_291743" x1="6.0344" y1="17.6352" x2="31.4835" y2="9.56665" gradientUnits="userSpaceOnUse">
<stop stop-color="#AAAAAA"/>
<stop offset="0.230469" stop-color="#ABABAB"/>
<stop offset="0.285888" stop-color="#B1B1B1"/>
<stop offset="0.468328" stop-color="#C0C0C0"/>
<stop offset="0.681952" stop-color="#C9C9C9"/>
<stop offset="1" stop-color="#CCCCCC"/>
</linearGradient>
<linearGradient id="paint2_linear_13440_291743" x1="49.4957" y1="24.8649" x2="65.2947" y2="19.7558" gradientUnits="userSpaceOnUse">
<stop stop-color="#A5A5A5"/>
<stop offset="0.0183334" stop-color="#A6A6A6"/>
<stop offset="0.434854" stop-color="#AFAFAF"/>
<stop offset="1" stop-color="#B2B2B2"/>
</linearGradient>
<linearGradient id="paint3_linear_13440_291743" x1="50.3387" y1="24.9195" x2="65.6503" y2="19.9655" gradientUnits="userSpaceOnUse">
<stop stop-color="#AAAAAA"/>
<stop offset="0.0798017" stop-color="#B1B1B1"/>
<stop offset="0.317459" stop-color="#C0C0C0"/>
<stop offset="0.594274" stop-color="#C9C9C9"/>
<stop offset="1" stop-color="#CCCCCC"/>
</linearGradient>
<linearGradient id="paint4_linear_13440_291743" x1="12.4026" y1="15.7289" x2="9.62071" y2="28.9197" gradientUnits="userSpaceOnUse">
<stop stop-color="#11001A"/>
<stop offset="0.212248" stop-color="#15031D"/>
<stop offset="0.440537" stop-color="#220D26"/>
<stop offset="0.676371" stop-color="#381E34"/>
<stop offset="0.915931" stop-color="#563548"/>
<stop offset="1" stop-color="#623E50"/>
</linearGradient>
<linearGradient id="paint5_linear_13440_291743" x1="35.2857" y1="20.2514" x2="32.1837" y2="35.1018" gradientUnits="userSpaceOnUse">
<stop stop-color="#11001A"/>
<stop offset="0.212248" stop-color="#15031D"/>
<stop offset="0.440537" stop-color="#220D26"/>
<stop offset="0.676371" stop-color="#381E34"/>
<stop offset="0.915931" stop-color="#563548"/>
<stop offset="1" stop-color="#623E50"/>
</linearGradient>
</defs>
</svg>
