<svg width="54" height="57" viewBox="0 0 54 57" fill="none" xmlns="http://www.w3.org/2000/svg">
<path fill-rule="evenodd" clip-rule="evenodd" d="M45.683 56.8581L21.4437 1.70296L23.608 0.974121L46.5977 56.8581H45.683Z" fill="url(#paint0_radial_13345_314648)"/>
<path fill-rule="evenodd" clip-rule="evenodd" d="M45.683 56.8581L21.4437 1.70296L23.608 0.974121L46.5977 56.8581H45.683Z" fill="#480606" fill-opacity="0.48"/>
<path fill-rule="evenodd" clip-rule="evenodd" d="M23.6098 0.974121H25.6899L48.0371 56.8581H46.5995L23.6098 0.974121Z" fill="url(#paint1_radial_13345_314648)"/>
<path fill-rule="evenodd" clip-rule="evenodd" d="M30.7652 32.4156L53.0039 32.1978L52.4878 34.6521H30.8767L30.7652 32.4156Z" fill="url(#paint2_radial_13345_314648)"/>
<path fill-rule="evenodd" clip-rule="evenodd" d="M52.1104 34.6521L28.1293 56.9742H27.1332L50.2015 34.6521H52.1104Z" fill="url(#paint3_radial_13345_314648)"/>
<path fill-rule="evenodd" clip-rule="evenodd" d="M50.2021 34.6521H47.6594L25.3165 56.9152L27.1338 56.9742L50.2021 34.6521Z" fill="url(#paint4_radial_13345_314648)"/>
<path fill-rule="evenodd" clip-rule="evenodd" d="M50.2021 34.6521H47.6594L25.3165 56.9152L27.1338 56.9742L50.2021 34.6521Z" fill="#480606" fill-opacity="0.48"/>
<path fill-rule="evenodd" clip-rule="evenodd" d="M12.3379 32.6125L12.1421 30.2342C12.1421 30.2342 33.4747 25.321 52.6709 30.7906L52.414 32.2037L12.3379 32.6125Z" fill="url(#paint5_radial_13345_314648)"/>
<path opacity="0.3" fill-rule="evenodd" clip-rule="evenodd" d="M12.1421 30.2343L30.9208 31.1517L52.6709 30.7907L52.414 32.2037L14.4211 32.911L12.1421 30.2343Z" fill="#BF3B5E"/>
<path fill-rule="evenodd" clip-rule="evenodd" d="M21.8278 44.0333C21.8278 44.0333 20.4152 42.9638 21.3759 42.6955L40.2287 42.6338L40.4912 43.471L40.0029 44.1094L21.8278 44.0333Z" fill="url(#paint6_radial_13345_314648)"/>
<path fill-rule="evenodd" clip-rule="evenodd" d="M21.8278 44.0333C21.8278 44.0333 20.4152 42.9638 21.3759 42.6955L40.2287 42.6338L40.4912 43.471L40.0029 44.1094L21.8278 44.0333Z" fill="#480606" fill-opacity="0.48"/>
<path fill-rule="evenodd" clip-rule="evenodd" d="M33.5361 34.6521L11.7645 56.9742H10.4166L31.3666 34.6521H33.5361Z" fill="url(#paint7_radial_13345_314648)"/>
<path fill-rule="evenodd" clip-rule="evenodd" d="M31.3643 34.6521L28.5827 34.6748L8.20932 56.8868L10.4142 56.9742L31.3643 34.6521Z" fill="url(#paint8_radial_13345_314648)"/>
<path fill-rule="evenodd" clip-rule="evenodd" d="M31.3643 34.6521L28.5827 34.6748L8.20932 56.8868L10.4142 56.9742L31.3643 34.6521Z" fill="#480606" fill-opacity="0.48"/>
<path fill-rule="evenodd" clip-rule="evenodd" d="M11.5808 32.6162L11.7665 34.8954L30.877 34.6522L30.7655 32.4158L11.5808 32.6162Z" fill="url(#paint9_radial_13345_314648)"/>
<path fill-rule="evenodd" clip-rule="evenodd" d="M11.5808 32.6162L11.7665 34.8954L30.877 34.6522L30.7655 32.4158L11.5808 32.6162Z" fill="#480606" fill-opacity="0.48"/>
<path opacity="0.3" fill-rule="evenodd" clip-rule="evenodd" d="M30.6455 32.5381L30.0354 31.1032L12.1429 30.2344L12.3387 32.6126L30.6455 32.5381Z" fill="#BF3B5E"/>
<path fill-rule="evenodd" clip-rule="evenodd" d="M28.7109 56.957L0.0039959 3.33482L2.30429 1.93115L29.9277 56.957H28.7109Z" fill="url(#paint10_radial_13345_314648)"/>
<path fill-rule="evenodd" clip-rule="evenodd" d="M28.7109 56.957L0.0039959 3.33482L2.30429 1.93115L29.9277 56.957H28.7109Z" fill="#480606" fill-opacity="0.48"/>
<path fill-rule="evenodd" clip-rule="evenodd" d="M2.30324 1.93115H4.6739L31.3643 56.957H29.9267L2.30324 1.93115Z" fill="url(#paint11_radial_13345_314648)"/>
<path fill-rule="evenodd" clip-rule="evenodd" d="M23.5665 3.33496L27.9258 16.2418L10.5578 16.8252L5.19071 3.33496H23.5665Z" fill="url(#paint12_radial_13345_314648)"/>
<path fill-rule="evenodd" clip-rule="evenodd" d="M27.6143 16.2937L27.1867 16.8254L10.8449 17.4069L10.5575 16.8254L27.6143 16.2937Z" fill="url(#paint13_radial_13345_314648)"/>
<path fill-rule="evenodd" clip-rule="evenodd" d="M27.6143 16.2937L27.1867 16.8254L10.8449 17.4069L10.5575 16.8254L27.6143 16.2937Z" fill="#061548" fill-opacity="0.48"/>
<g style="mix-blend-mode:multiply" opacity="0.3">
<path fill-rule="evenodd" clip-rule="evenodd" d="M27.9258 16.2417L27.4051 15.2239C27.4051 15.2239 17.3624 16.2811 10.1854 15.7547L10.5562 16.8251L27.9258 16.2417Z" fill="#BF3B5E"/>
</g>
<g style="mix-blend-mode:multiply" opacity="0.5">
<path fill-rule="evenodd" clip-rule="evenodd" d="M39.5693 35.842L37.9838 36.108L37.529 38.3044L35.9495 34.6521H39.1637L39.5693 35.842Z" fill="#7E1E44"/>
</g>
<defs>
<radialGradient id="paint0_radial_13345_314648" cx="0" cy="0" r="1" gradientUnits="userSpaceOnUse" gradientTransform="translate(34.4854 2.53054) rotate(180) scale(13.5305 49.5189)">
<stop stop-color="#E8ADAD"/>
<stop offset="1" stop-color="#E65858"/>
</radialGradient>
<radialGradient id="paint1_radial_13345_314648" cx="0" cy="0" r="1" gradientUnits="userSpaceOnUse" gradientTransform="translate(36.2748 2.53054) rotate(180) scale(13.1397 49.5189)">
<stop stop-color="#E8ADAD"/>
<stop offset="1" stop-color="#E65858"/>
</radialGradient>
<radialGradient id="paint2_radial_13345_314648" cx="0" cy="0" r="1" gradientUnits="userSpaceOnUse" gradientTransform="translate(42.2954 32.2661) rotate(180) scale(11.9624 2.17477)">
<stop stop-color="#E8ADAD"/>
<stop offset="1" stop-color="#E65858"/>
</radialGradient>
<radialGradient id="paint3_radial_13345_314648" cx="0" cy="0" r="1" gradientUnits="userSpaceOnUse" gradientTransform="translate(40.0832 35.2738) rotate(180) scale(13.4355 19.7796)">
<stop stop-color="#E8ADAD"/>
<stop offset="1" stop-color="#E65858"/>
</radialGradient>
<radialGradient id="paint4_radial_13345_314648" cx="0" cy="0" r="1" gradientUnits="userSpaceOnUse" gradientTransform="translate(38.2191 35.2738) rotate(180) scale(13.3862 19.7796)">
<stop stop-color="#E8ADAD"/>
<stop offset="1" stop-color="#E65858"/>
</radialGradient>
<radialGradient id="paint5_radial_13345_314648" cx="0" cy="0" r="1" gradientUnits="userSpaceOnUse" gradientTransform="translate(33.4238 28.1751) scale(14.315 4.97567)">
<stop stop-color="#FFFFA0"/>
<stop offset="1" stop-color="#FFC78E"/>
</radialGradient>
<radialGradient id="paint6_radial_13345_314648" cx="0" cy="0" r="1" gradientUnits="userSpaceOnUse" gradientTransform="translate(31.1255 42.6749) rotate(180) scale(10.4624 1.30754)">
<stop stop-color="#E8ADAD"/>
<stop offset="1" stop-color="#E65858"/>
</radialGradient>
<radialGradient id="paint7_radial_13345_314648" cx="0" cy="0" r="1" gradientUnits="userSpaceOnUse" gradientTransform="translate(22.4035 35.2738) rotate(180) scale(12.4362 19.7796)">
<stop stop-color="#E8ADAD"/>
<stop offset="1" stop-color="#E65858"/>
</radialGradient>
<radialGradient id="paint8_radial_13345_314648" cx="0" cy="0" r="1" gradientUnits="userSpaceOnUse" gradientTransform="translate(20.2146 35.2738) rotate(180) scale(12.4552 19.7796)">
<stop stop-color="#E8ADAD"/>
<stop offset="1" stop-color="#E65858"/>
</radialGradient>
<radialGradient id="paint9_radial_13345_314648" cx="0" cy="0" r="1" gradientUnits="userSpaceOnUse" gradientTransform="translate(21.5854 32.4848) rotate(180) scale(10.3796 2.19717)">
<stop stop-color="#E8ADAD"/>
<stop offset="1" stop-color="#E65858"/>
</radialGradient>
<radialGradient id="paint10_radial_13345_314648" cx="0" cy="0" r="1" gradientUnits="userSpaceOnUse" gradientTransform="translate(15.5187 3.46367) rotate(180) scale(16.0962 48.7585)">
<stop stop-color="#E8ADAD"/>
<stop offset="1" stop-color="#E65858"/>
</radialGradient>
<radialGradient id="paint11_radial_13345_314648" cx="0" cy="0" r="1" gradientUnits="userSpaceOnUse" gradientTransform="translate(17.3707 3.46367) rotate(180) scale(15.6322 48.7585)">
<stop stop-color="#E8ADAD"/>
<stop offset="1" stop-color="#E65858"/>
</radialGradient>
<radialGradient id="paint12_radial_13345_314648" cx="0" cy="0" r="1" gradientUnits="userSpaceOnUse" gradientTransform="translate(16.9783 3.71068) rotate(180) scale(12.2294 11.9537)">
<stop stop-color="#E8ADAD"/>
<stop offset="1" stop-color="#E65858"/>
</radialGradient>
<radialGradient id="paint13_radial_13345_314648" cx="0" cy="0" r="1" gradientUnits="userSpaceOnUse" gradientTransform="translate(19.401 16.3247) rotate(180) scale(9.17499 0.986375)">
<stop stop-color="#B9ADE8"/>
<stop offset="1" stop-color="#7558E6"/>
</radialGradient>
</defs>
</svg>
