<svg width="50" height="57" viewBox="0 0 50 57" fill="none" xmlns="http://www.w3.org/2000/svg">
<path d="M18.3249 20.9354C18.3249 25.9457 14.2238 30.0073 9.16475 30.0073C4.10498 30.0073 0.00390625 25.9457 0.00390625 20.9354C0.00390625 15.9255 4.10498 11.8639 9.16475 11.8639C14.2238 11.8639 18.3249 15.9255 18.3249 20.9354Z" fill="#FF9900"/>
<path d="M16.9819 20.9354C16.9819 25.2113 13.4817 28.6775 9.16466 28.6775C4.84685 28.6775 1.34668 25.2113 1.34668 20.9354C1.34668 16.66 4.84685 13.1941 9.16466 13.1941C13.4817 13.1941 16.9819 16.66 16.9819 20.9354Z" fill="#FFFFEC"/>
<path d="M7.49259 14.3962L7.44551 14.4264C7.17792 14.5979 7.05913 14.9264 7.15707 15.2273L8.49218 19.3321C8.70275 19.9775 9.62526 19.9775 9.83505 19.3321L11.1702 15.2273C11.2682 14.9264 11.1502 14.5979 10.8817 14.4264L10.8346 14.3962C9.81736 13.7459 8.50996 13.7459 7.49259 14.3962Z" fill="#FDC615"/>
<path d="M7.49259 27.5557L7.44551 27.5255C7.17792 27.3539 7.05913 27.0255 7.15707 26.7246L8.49218 22.6198C8.70275 21.9744 9.62526 21.9744 9.83505 22.6198L11.1702 26.7246C11.2682 27.0255 11.1502 27.3539 10.8817 27.5255L10.8346 27.5557C9.81736 28.206 8.50996 28.206 7.49259 27.5557Z" fill="#FDC615"/>
<path d="M2.54646 19.2144L2.55024 19.2698C2.57031 19.5852 2.80251 19.8476 3.11568 19.9099L7.38562 20.7554C8.05744 20.8883 8.50709 20.0905 8.03968 19.5944L5.07089 16.4391C4.85345 16.208 4.50633 16.1503 4.22483 16.2985L4.17467 16.3245C3.10566 16.887 2.4685 18.0179 2.54646 19.2144Z" fill="#FDC615"/>
<path d="M14.1511 25.627L14.1017 25.653C13.8194 25.8012 13.4723 25.7435 13.2548 25.5124L10.286 22.3575C9.8186 21.861 10.2682 21.0632 10.9401 21.1961L15.2101 22.0416C15.5233 22.1039 15.7554 22.3663 15.7762 22.6817L15.7793 22.7371C15.8572 23.9336 15.2201 25.0645 14.1511 25.627Z" fill="#F9E63F"/>
<path d="M15.7518 19.1123L15.7494 19.1676C15.7332 19.4835 15.5057 19.7497 15.1941 19.8165L10.9372 20.7278C10.2677 20.8714 9.80569 20.0808 10.2647 19.5771L13.1833 16.3767C13.3977 16.1422 13.7441 16.0792 14.0278 16.2228L14.078 16.2483C15.1563 16.7941 15.8111 17.9146 15.7518 19.1123Z" fill="#FDC615"/>
<path d="M4.24765 25.7035L4.2978 25.7291C4.58246 25.8727 4.92872 25.8097 5.14236 25.5752L8.06108 22.3748C8.51996 21.8711 8.05792 21.0805 7.38846 21.2241L3.13234 22.1353C2.81997 22.2021 2.59242 22.4684 2.57703 22.7842L2.57394 22.8396C2.51534 24.0372 3.17018 25.1577 4.24765 25.7035Z" fill="#FDC615"/>
<path d="M28.7412 32.6186L37.4362 10.2261C37.5766 9.89307 37.9152 9.71552 38.1929 9.83011L38.2029 9.83425C38.4805 9.94844 38.5916 10.3113 38.452 10.6443L29.9684 32.5316L28.7412 32.6186Z" fill="#999495"/>
<path d="M49.0038 21.6854L42.9537 21.2921L37.6455 11.0603L49.0038 21.6854Z" fill="#F3452A"/>
<path d="M42.9523 21.2921L34.5449 18.5725L37.6441 11.0603L42.9523 21.2921Z" fill="#F4563D"/>
<path d="M34.5465 18.5725L27.2754 14.742L37.6457 11.0603L34.5465 18.5725Z" fill="#F56B55"/>
<path d="M37.6432 11.0601L27.2729 14.7418L22.1553 10.4694L37.6432 11.0601Z" fill="#F78472"/>
<path d="M11.9346 38.9102L12.2809 39.4868C12.9735 40.639 13.387 41.9348 13.4888 43.2723L14.5131 56.7281H34.6081L35.6324 43.2723C35.7342 41.9348 36.1477 40.639 36.8402 39.4868L37.1866 38.9102C37.8291 37.8412 38.2325 36.6473 38.3682 35.4103L39.9571 20.9355H9.16406L10.753 35.4103C10.8887 36.6473 11.2914 37.8412 11.9346 38.9102Z" fill="#FAFAFA"/>
<path d="M14.9714 43.2172L15.8036 54.7059H33.3193L34.1515 43.2172C34.2488 41.8771 34.6591 40.5775 35.3502 39.4211L35.3702 39.3867C36.0128 38.312 36.4123 37.1128 36.5434 35.8712L37.83 23.6807H11.293L12.5795 35.8712C12.7107 37.1128 13.1102 38.3124 13.7527 39.3867L13.7728 39.4211C14.4639 40.5775 14.8742 41.8771 14.9714 43.2172Z" fill="#FDC615"/>
<path d="M29.465 53.1377L27.556 53.57L15.8906 1.40642L17.7989 0.974121L29.465 53.1377Z" fill="#FF9900"/>
<path d="M11.9346 38.9102L12.2809 39.4868C12.9735 40.639 13.387 41.9348 13.4888 43.2723L14.5316 56.9741H34.5888L35.6324 43.2723C35.7342 41.9348 36.1477 40.639 36.8402 39.4868L37.1866 38.9102C37.8291 37.8412 38.2325 36.6473 38.3682 35.4103L39.9571 20.9355H9.16406L10.753 35.4103C10.8887 36.6473 11.2914 37.8412 11.9346 38.9102ZM37.8291 23.6807L36.5426 35.8713C36.4115 37.1129 36.0119 38.3121 35.3694 39.3867L35.3493 39.4211C34.6582 40.5776 34.2479 41.8772 34.1507 43.2173L33.3184 54.7059H15.8028L14.9705 43.2173C14.8733 41.8772 14.463 40.5776 13.7719 39.4211L13.7518 39.3867C13.1093 38.3121 12.709 37.1129 12.5786 35.8713L11.2921 23.6807H37.8291Z" fill="#E5E5E5"/>
<path d="M26.8403 30.9187C27.642 30.9187 28.2919 30.2751 28.2919 29.4812C28.2919 28.6873 27.642 28.0437 26.8403 28.0437C26.0386 28.0437 25.3887 28.6873 25.3887 29.4812C25.3887 30.2751 26.0386 30.9187 26.8403 30.9187Z" fill="white"/>
<path d="M22.5983 48.2124C22.5983 49.0064 21.9481 49.65 21.1459 49.65C20.3445 49.65 19.6943 49.0064 19.6943 48.2124C19.6943 47.4185 20.3445 46.7745 21.1459 46.7745C21.9481 46.7745 22.5983 47.4185 22.5983 48.2124Z" fill="white"/>
<path d="M15.8929 34.5708C15.8929 34.9939 15.5466 35.3365 15.1193 35.3365C14.692 35.3365 14.3457 34.9939 14.3457 34.5708C14.3457 34.1476 14.692 33.8051 15.1193 33.8051C15.5466 33.8051 15.8929 34.1476 15.8929 34.5708Z" fill="white"/>
<path d="M31.5699 38.5182C31.5699 38.9413 31.2236 39.2843 30.7971 39.2843C30.3697 39.2843 30.0234 38.9413 30.0234 38.5182C30.0234 38.0953 30.3697 37.7524 30.7971 37.7524C31.2236 37.7524 31.5699 38.0953 31.5699 38.5182Z" fill="white"/>
<path d="M20.4662 38.8318C20.4662 39.255 20.1199 39.5976 19.6926 39.5976C19.2652 39.5976 18.9189 39.255 18.9189 38.8318C18.9189 38.409 19.2652 38.066 19.6926 38.066C20.1199 38.066 20.4662 38.409 20.4662 38.8318Z" fill="white"/>
</svg>
