<svg width="73" height="57" viewBox="0 0 73 57" fill="none" xmlns="http://www.w3.org/2000/svg">
<path d="M0.0218161 40.1406C0.131261 41.8558 0.646913 43.5224 1.47514 45.0757C2.87387 47.7212 5.17892 50.0432 7.9372 51.734C14.4147 55.7145 23.9554 56.4102 31.6675 56.839C32.3629 56.8714 33.0584 56.9038 33.7616 56.928C41.3565 57.1787 49.1546 56.4507 56.1167 53.7242C60.1174 52.1628 64.915 48.9995 67.3685 45.1809C68.5718 43.3444 69.2204 41.3542 68.9781 39.3154C68.9079 38.6763 68.5875 38.0857 68.2281 37.5275C63.4147 30.052 50.9127 28.4987 41.9426 28.1023C33.7538 27.7301 24.8696 28.078 16.8135 29.3563C9.89843 30.4485 -0.478253 32.5519 0.0218161 40.1406Z" fill="url(#paint0_linear_13345_314668)"/>
<path d="M48.5996 24.2268C49.6076 28.6523 46.779 32.3576 44.1927 35.529C43.6301 40.2537 46.8883 44.8895 51.0766 46.8474C53.5457 48.0043 56.3117 48.3359 58.992 48.0851C62.5472 47.7453 66.5243 46.9363 68.1339 43.3281C68.4856 42.5352 68.6809 41.7181 68.7357 40.8929C69.0169 37.05 66.4775 33.021 64.5553 30.0275C62.2502 26.4274 59.2888 23.2722 55.8586 20.8289C55.7491 20.7399 55.632 20.6591 55.5148 20.5781C52.6705 18.5959 56.4525 13.8794 59.2107 11.6545C59.8592 11.1286 60.4531 10.7403 60.8907 10.5542C61.8361 10.166 63.2972 9.71287 62.9848 8.34564C62.8753 7.85207 62.5784 7.43139 62.2814 7.0269C60.5625 4.63217 58.8122 2.4154 55.968 1.49313C54.374 0.975341 52.6627 0.83782 51.0063 1.11286C48.3808 1.55786 45.8179 3.06262 44.7631 5.70007C44.1301 7.28576 43.716 9.51874 43.8957 11.25C44.0051 12.2451 44.2004 13.2241 44.4661 14.1949C45.435 17.7142 47.787 20.6914 48.5996 24.2268Z" fill="url(#paint1_linear_13345_314668)"/>
<g style="mix-blend-mode:multiply">
<path d="M1.4751 45.0757C2.87383 47.7212 5.17888 50.0432 7.93717 51.734C14.4147 55.7144 23.9553 56.4102 31.6675 56.839C32.3629 56.8713 33.0584 56.9038 33.7616 56.928C41.3565 57.1787 49.1546 56.4507 56.1167 53.7242C60.1174 52.1628 64.915 48.9995 67.3685 45.1809C60.4299 49.1532 52.5615 51.2324 44.6617 51.9767C36.0432 52.7776 27.3465 52.0252 18.7826 50.7632C12.7504 49.8732 6.42908 48.5545 1.4751 45.0757Z" fill="url(#paint2_linear_13345_314668)"/>
</g>
<g style="mix-blend-mode:multiply">
<path d="M19.0036 37.7918C21.6028 38.688 24.2883 39.3137 27.0067 39.6637C29.0661 39.9288 31.1446 40.0358 33.2193 39.9822C34.2566 39.9554 35.2929 39.8884 36.3253 39.7811C39.2185 39.4802 42.0379 37.9122 44.3181 36.1035C46.0375 34.7399 47.5225 33.0574 48.6626 31.1499C46.0949 34.2358 41.6617 34.932 37.737 35.2121C30.2255 35.7481 22.6843 35.4319 15.1611 35.1156C16.4104 36.4419 17.3061 37.2066 19.0036 37.7918Z" fill="url(#paint3_linear_13345_314668)"/>
</g>
<path d="M51.5854 18.4987C51.7338 18.8143 52.0385 19.0084 52.3354 19.1783C53.4528 19.8498 54.6014 20.5294 55.8595 20.8287C55.75 20.7397 55.6328 20.6589 55.5157 20.5779C52.6714 18.5957 56.4534 13.8792 59.2116 11.6543C59.1022 11.5006 58.9694 11.3631 58.8131 11.2579C58.1254 10.8049 57.2425 11.3227 56.6721 11.7352C55.8048 12.3582 55.0468 13.1672 54.3202 13.9519C53.484 14.8662 52.7105 15.8451 51.9995 16.8726C51.6713 17.358 51.3509 17.9648 51.5854 18.4987Z" fill="url(#paint4_linear_13345_314668)"/>
<path d="M59.2898 3.89941C62.1709 7.05435 66.2939 8.95612 70.4861 9.06385C70.7362 8.80881 71.7072 9.20831 71.8911 9.51791C72.0749 9.82742 72.0186 10.2404 71.8421 10.5546C71.6656 10.8687 71.3877 11.1054 71.1158 11.3352C68.8512 13.2482 66.082 14.0025 63.2371 13.2596C62.0213 12.9423 55.7995 12.1932 57.4359 9.77943C57.57 9.58164 57.7228 9.39811 57.8499 9.19488C58.3479 8.39783 58.3327 7.38594 58.4296 6.44197C58.5266 5.49793 58.4579 4.29869 59.2898 3.89941Z" fill="url(#paint5_linear_13345_314668)"/>
<path d="M52.1961 5.49644C52.7919 5.47039 55.3845 6.33124 53.8638 7.19216C53.5445 7.373 53.1544 7.32042 52.7947 7.2629C51.628 7.07625 50.4612 6.88951 49.2944 6.70286C49.951 5.6756 51.2351 5.17317 52.3904 5.43891L52.1961 5.49644Z" fill="url(#paint6_linear_13345_314668)"/>
<g style="mix-blend-mode:screen">
<path d="M53.5084 10.1419C52.3365 10.4162 51.1596 10.6677 49.9784 10.896C48.9806 11.0889 47.4906 11.2426 46.9667 10.0848C46.4188 8.87387 47.4321 7.7848 48.3481 7.20429C49.492 6.47992 55.7798 6.95627 54.9814 9.19949C54.7689 9.79667 54.0472 10.0158 53.5084 10.1419Z" fill="#A88A54"/>
</g>
<g style="mix-blend-mode:screen">
<path d="M57.9577 24.3729C60.8907 26.7793 63.228 29.9575 64.6882 33.525C65.1322 34.6098 65.6168 36.0696 64.8806 37.1389C63.9944 38.4261 62.84 38.1007 61.9177 37.1439C59.1939 34.3182 56.4549 31.4736 54.2491 28.1986C52.3939 25.4439 53.6606 22.7309 57.0205 24.1012C57.963 24.4856 58.81 25.0795 59.6482 25.6685L57.9577 24.3729Z" fill="#A88A54"/>
</g>
<g style="mix-blend-mode:screen">
<path d="M13.438 36.6821C11.8191 35.3945 9.85047 34.0405 8.2605 35.3877C7.029 36.4327 7.49047 37.9809 8.47714 39.0536C10.7277 41.5007 14.452 42.6198 17.5096 43.5138C20.9149 44.5096 24.6266 45.1307 28.1324 44.3378C28.3756 44.2828 28.6297 44.212 28.806 44.03C29.1907 43.6327 28.98 42.8985 28.5329 42.5784C26.8096 41.3442 24.0599 41.6389 22.0869 41.1311C19.5902 40.4884 17.1975 39.409 15.05 37.9411C14.5847 37.6231 14.0351 37.1571 13.438 36.6821Z" fill="#A88A54"/>
</g>
<path d="M64.6953 10.9229C63.2746 10.7294 61.9387 9.93573 61.0606 8.76324C60.8178 8.43907 60.6024 8.00228 60.7803 7.6356C60.9994 7.18398 61.6177 7.19231 62.097 7.28858C63.4637 7.56295 64.7967 8.01571 66.0563 8.62954C66.6146 8.90162 67.4092 9.20166 67.837 9.67421C68.3994 10.2956 67.5136 10.5603 67.0433 10.7108C66.2872 10.9528 65.4806 11.0298 64.6953 10.9229Z" fill="#F7AB8A"/>
<defs>
<linearGradient id="paint0_linear_13345_314668" x1="35.8738" y1="16.5475" x2="32.5953" y2="69.1381" gradientUnits="userSpaceOnUse">
<stop stop-color="#FFD600"/>
<stop offset="1" stop-color="#FFC900"/>
</linearGradient>
<linearGradient id="paint1_linear_13345_314668" x1="56.7951" y1="-17.5908" x2="34.4284" y2="61.9952" gradientUnits="userSpaceOnUse">
<stop stop-color="#FFD600"/>
<stop offset="1" stop-color="#FFC900"/>
</linearGradient>
<linearGradient id="paint2_linear_13345_314668" x1="34.9947" y1="26.3441" x2="34.1393" y2="52.5066" gradientUnits="userSpaceOnUse">
<stop stop-color="#FFCB2E"/>
<stop offset="1" stop-color="#CC6F2D"/>
</linearGradient>
<linearGradient id="paint3_linear_13345_314668" x1="32.0651" y1="19.9592" x2="31.78" y2="42.8183" gradientUnits="userSpaceOnUse">
<stop stop-color="#FFCB2E"/>
<stop offset="1" stop-color="#CC6F2D"/>
</linearGradient>
<linearGradient id="paint4_linear_13345_314668" x1="55.4159" y1="22.649" x2="55.2734" y2="4.74713" gradientUnits="userSpaceOnUse">
<stop stop-color="#FFCB2E"/>
<stop offset="1" stop-color="#CC6F2D"/>
</linearGradient>
<linearGradient id="paint5_linear_13345_314668" x1="64.2942" y1="10.8849" x2="54.4086" y2="41.8465" gradientUnits="userSpaceOnUse">
<stop offset="0.0055866" stop-color="#F24A20"/>
<stop offset="0.994413" stop-color="#8A0B2B"/>
</linearGradient>
<linearGradient id="paint6_linear_13345_314668" x1="47.0913" y1="19.1989" x2="49.6335" y2="12.9244" gradientUnits="userSpaceOnUse">
<stop stop-color="#FFCB2E"/>
<stop offset="1" stop-color="#CC6F2D"/>
</linearGradient>
</defs>
</svg>
