<svg width="60" height="57" viewBox="0 0 60 57" fill="none" xmlns="http://www.w3.org/2000/svg">
<path d="M44.8463 36.5078C44.7055 38.1399 44.0064 39.6739 43.1774 41.0876C42.3485 42.4997 41.3788 43.8311 40.6195 45.2812C39.9172 46.6189 39.4015 48.0421 38.9427 49.4826C38.8288 49.8357 38.7197 50.1871 38.6121 50.5401C39.2971 50.3961 40.0516 50.662 40.4961 51.2019C40.9407 51.7433 41.0561 52.5364 40.7825 53.1807C40.7492 53.2614 40.7049 53.3438 40.6274 53.3865C40.5626 53.4213 40.4851 53.4213 40.4107 53.4198C39.0108 53.3992 37.6092 53.377 36.2092 53.3564C36.0415 53.3533 35.8644 53.3485 35.7173 53.2662C35.5432 53.1665 35.4452 52.9733 35.3613 52.7913C34.8599 51.6863 34.5467 50.4974 34.4328 49.2879C34.3758 48.6895 34.3679 48.0864 34.4106 47.4864C34.1607 47.4943 33.9107 47.5022 33.6592 47.5101C33.9867 47.0115 34.2271 46.4558 34.3695 45.8764C33.8554 45.992 33.3175 45.9888 32.805 45.8685C33.2606 45.2337 34.1306 44.2063 33.7747 43.4005C33.3682 42.4823 32.843 41.6433 32.5171 40.6808C31.9049 38.8618 31.8084 36.8371 32.4522 35.0276C33.0945 33.2197 34.5198 31.662 36.3389 31.0493C37.258 30.7391 38.2435 30.6726 39.2132 30.7106C40.6622 30.7676 42.1745 31.0873 43.2645 32.0435C44.4951 33.1232 44.9871 34.8756 44.8463 36.5078Z" fill="#B25109"/>
<path d="M40.7823 53.1808C40.7491 53.2616 40.7048 53.3439 40.6273 53.3866C40.5624 53.4214 40.4849 53.4214 40.4106 53.4199C39.0106 53.3993 37.6091 53.3771 36.2091 53.3566C36.0414 53.3534 35.8642 53.3486 35.7171 53.2663C35.5431 53.1666 35.445 52.9734 35.3612 52.7914C34.8597 51.6864 34.5465 50.4975 34.4326 49.288C34.6936 48.9809 35.1587 48.6627 35.2805 48.3699C35.0148 49.0142 35.3833 49.8437 36.0382 50.0764C36.8418 50.363 37.7214 49.7836 38.1754 49.0617C38.1342 49.239 38.0931 49.4147 38.0536 49.592C38.3478 49.6711 38.6452 49.573 38.9426 49.4828C38.8287 49.8358 38.7195 50.1872 38.612 50.5403C39.2969 50.3962 40.0515 50.6622 40.496 51.202C40.9405 51.7434 41.056 52.5365 40.7823 53.1808Z" fill="#E0BB86"/>
<path d="M49.2253 13.6031C49.2222 13.6727 49.2095 13.744 49.1858 13.8089C49.17 13.8564 49.1463 13.9007 49.1178 13.9418C48.8489 14.317 48.3537 14.0796 48.0026 13.8564C47.2923 13.4068 46.5187 13.0522 45.7151 12.8052C45.0697 12.6073 44.157 12.6485 43.5954 12.2844C43.5179 12.2337 43.4435 12.1783 43.3708 12.1181C42.6399 11.5166 42.1511 10.4559 41.8142 9.47599C41.6845 9.09764 41.5769 8.73195 41.4883 8.40901C41.0976 6.99849 40.8619 5.53731 40.2829 4.19328C39.9602 3.44291 39.5284 2.72736 39.2357 1.97065C39.0712 1.54798 39.5173 1.14587 39.9223 1.35166C39.9729 1.377 40.0219 1.40232 40.0725 1.42765C42.4343 2.64188 44.6917 4.1442 46.4127 6.16579C47.7589 7.74411 48.7571 9.66913 49.102 11.7018C49.2079 12.3271 49.2522 12.9635 49.2253 13.6031Z" fill="#FF7D00"/>
<path d="M47.7293 11.4041C46.6014 11.4231 45.4688 11.1445 44.477 10.6046C44.2871 9.66269 44.2175 8.6812 43.8948 7.77884C43.5089 6.70236 42.8318 5.75727 42.1073 4.87548C41.7482 4.44014 41.3496 3.9114 41.5014 3.36841C43.4456 4.17578 45.1445 5.56414 46.323 7.31025C47.1504 8.53556 47.7183 9.935 47.9919 11.3882C47.9049 11.4009 47.8179 11.4025 47.7293 11.4041Z" fill="#FFDCA2"/>
<path d="M48.1771 13.26C48.1771 13.3107 48.1771 13.3629 48.1739 13.4136C47.3719 13.1032 46.5525 12.8372 45.7204 12.6155C45.3756 12.3733 44.9959 12.2133 44.833 11.8238C44.6685 11.4327 44.5609 11.0225 44.4771 10.6045C45.4689 11.1445 46.6015 11.4232 47.7294 11.4042C47.818 11.4026 47.905 11.401 47.992 11.3883C48.1075 12.0043 48.1708 12.6314 48.1771 13.26Z" fill="#E0BB86"/>
<path d="M45.7206 12.6161C44.9471 12.4103 44.164 12.244 43.3715 12.1189C42.6407 11.5172 42.1519 10.4563 41.8149 9.47607C42.0712 9.484 42.2721 9.69302 42.454 9.87669C42.6407 10.0651 42.8906 10.2536 43.1469 10.1839C43.2086 10.1665 43.2655 10.1348 43.3272 10.1158C43.574 10.0445 43.8224 10.2045 44.0375 10.3454C44.1799 10.4388 44.327 10.5259 44.4773 10.6051C44.5611 11.0231 44.6687 11.4333 44.8332 11.8244C44.9961 12.2139 45.3758 12.3739 45.7206 12.6161Z" fill="#EA6A00"/>
<path d="M49.2256 13.6036C49.2224 13.6733 49.2098 13.7446 49.186 13.8095C49.05 13.7715 48.9171 13.7145 48.7874 13.6606C48.5849 13.5751 48.3793 13.4928 48.1736 13.4136C48.1768 13.3629 48.1768 13.3107 48.1768 13.26C48.1705 12.6314 48.1072 12.0043 47.9917 11.3883C48.0566 11.382 48.1214 11.3709 48.1847 11.3535C48.2559 11.3329 48.327 11.3044 48.4014 11.2996C48.5738 11.2854 48.732 11.3899 48.8665 11.4976C48.9472 11.5625 49.0263 11.6306 49.1022 11.7018C49.2082 12.3273 49.2525 12.9639 49.2256 13.6036Z" fill="#EA6A00"/>
<path d="M48.1747 13.4131C48.1684 13.516 48.1494 13.6173 48.0972 13.706C47.9121 14.0132 47.447 13.9736 47.1306 13.8073C46.6608 13.5603 46.3239 13.1439 45.9395 12.7892C45.8699 12.7242 45.7971 12.6672 45.7212 12.615C46.5533 12.8367 47.3727 13.1027 48.1747 13.4131Z" fill="#FFDCA2"/>
<path d="M57.3955 23.4748C56.641 24.5988 55.8833 25.4932 55.0765 26.1518C54.6557 26.3813 54.2207 26.5839 53.7809 26.7708C52.9947 27.1048 52.1563 27.4388 51.3069 27.5354C51.3084 27.537 51.31 27.5401 51.3116 27.5417C51.1186 27.5449 50.9209 27.537 50.72 27.5227C47.9453 27.3153 45.5519 24.9201 45.5519 24.9201C45.5519 24.9201 46.5628 30.6129 46.5659 30.6936C46.5659 30.7079 46.5675 30.7237 46.5675 30.7379C46.2986 30.4894 46.1104 30.3121 46.0898 30.2931C46.104 30.3707 46.3682 31.6577 46.6245 33.2724C46.6213 34.7779 46.5564 36.2929 46.4663 37.762C46.3714 39.3213 45.6991 40.8 44.7483 42.0458C44.7483 42.0474 44.7483 42.0474 44.7468 42.0474C44.6613 42.1614 44.5712 42.2738 44.481 42.383C44.4794 42.3862 44.4763 42.3878 44.4747 42.3909C43.8625 43.1271 43.1601 43.7761 42.4103 44.373C42.2584 44.4948 42.1034 44.6136 41.9468 44.7307C41.507 45.0616 41.0546 45.3766 40.5991 45.6806C39.6468 46.3154 38.6644 46.9138 37.614 47.3665C36.7471 47.7385 35.8439 48.0077 34.9454 48.2942C34.5784 48.4098 34.213 48.5285 33.8507 48.6583C33.2891 48.8609 32.7355 49.0889 32.1802 49.3042C31.2453 49.4799 30.301 49.6382 29.3882 49.776C29.026 49.8314 28.67 49.8836 28.3204 49.9311C28.3204 49.9311 28.3204 49.9311 28.3204 49.9327C27.9471 49.9833 27.5833 50.0324 27.2305 50.0752C27.3159 49.7522 27.3507 49.5243 27.3507 49.5243C27.2954 49.328 27.2495 49.1158 27.2099 48.8879C27.1846 48.8831 27.1609 48.8784 27.1356 48.872C27.1546 48.8451 27.1751 48.8182 27.1941 48.7897C27.1293 48.3876 27.0897 47.9396 27.0692 47.4536C27.0565 47.1797 27.0518 46.8948 27.0518 46.5972C27.0518 46.3059 27.0581 46.0019 27.0723 45.6901C27.0723 45.6394 27.0739 45.5887 27.0771 45.5365C27.0818 45.4051 27.0881 45.2705 27.0961 45.1344C27.1087 44.9033 27.1245 44.6658 27.1419 44.4252C27.3412 41.7324 27.8475 38.5267 28.4375 35.4397C29.1557 31.6814 30.1349 28.1755 30.6981 25.8942C31.4015 24.9255 31.9458 23.7979 32.3432 22.7529C32.6276 22.0048 32.872 21.2897 32.8826 20.7487C32.9237 18.6433 36.309 11.6018 40.9502 11.54C41.5102 11.5337 42.0496 11.5242 42.5685 11.5226C43.959 11.5163 45.2103 11.5543 46.3445 11.7727C48.3013 12.1479 49.9101 13.0582 51.2879 15.1953C53.7635 19.0359 52.8982 19.0976 53.7635 19.4285C53.8031 19.4427 53.8442 19.457 53.8885 19.4665C54.3868 19.5947 55.1825 19.4902 55.9529 19.3746C56.6188 19.2733 57.2642 19.1609 57.685 19.1799C58.177 19.2021 58.6009 19.5757 58.6263 20.334C58.6516 21.0416 58.3304 22.0801 57.3955 23.4748Z" fill="#FF7D00"/>
<path d="M50.3506 16.8344C50.3138 17.0268 50.2989 17.2246 50.3223 17.419C50.3735 17.8457 50.6071 18.2338 50.9046 18.5437C51.0767 18.7229 51.2779 18.884 51.5158 18.9555C51.7537 19.0269 52.0337 18.9943 52.2156 18.825C52.3788 18.6732 52.44 18.4359 52.4278 18.2132C52.4156 17.9906 52.339 17.7772 52.2632 17.5675C52.0708 17.0351 51.8641 16.4151 51.4249 16.0298C50.8828 15.5542 50.4404 16.3653 50.3506 16.8344Z" fill="#EA6A00"/>
<path d="M43.2227 18.0608C42.9623 18.6796 43.0002 19.3938 43.2069 20.0326C43.3029 20.3293 43.442 20.6256 43.6843 20.8218C44.0402 21.1102 44.5641 21.1236 44.9866 20.9467C45.4092 20.7698 45.7439 20.4309 46.02 20.0652C46.1288 19.921 46.2308 19.771 46.3122 19.6097C46.5838 19.0718 46.6056 18.4058 46.337 17.8663C45.6517 16.4899 43.7865 16.7209 43.2227 18.0608Z" fill="#EA6A00"/>
<path d="M46.4923 18.4521C46.4923 18.6041 46.4686 18.7514 46.4275 18.8892C46.4259 18.8908 46.4259 18.8908 46.4259 18.8923C46.2392 19.4925 45.6777 19.9295 45.0164 19.9295C44.2018 19.9295 43.5405 19.2676 43.5405 18.4521C43.5405 18.1813 43.6133 17.928 43.7398 17.7111C43.7398 17.7111 43.7414 17.7095 43.7414 17.7079C43.9977 17.2693 44.4738 16.9763 45.0164 16.9763C45.8311 16.9763 46.4923 17.6366 46.4923 18.4521Z" fill="#E2E2E2"/>
<path d="M46.4912 18.4521C46.4912 18.6041 46.4674 18.7514 46.4263 18.8892C46.4247 18.8908 46.4247 18.8908 46.4247 18.8923C46.1685 19.331 45.6939 19.6255 45.1497 19.6255C44.3351 19.6255 43.6738 18.9636 43.6738 18.1481C43.6738 17.9961 43.696 17.8488 43.7387 17.7111C43.7387 17.7111 43.7403 17.7095 43.7403 17.7079C43.9965 17.2693 44.4727 16.9763 45.0153 16.9763C45.8299 16.9763 46.4912 17.6366 46.4912 18.4521Z" fill="white"/>
<path d="M45.217 19.728C45.9207 19.728 46.4911 19.157 46.4911 18.4526C46.4911 17.7483 45.9207 17.1772 45.217 17.1772C44.5133 17.1772 43.9429 17.7483 43.9429 18.4526C43.9429 19.157 44.5133 19.728 45.217 19.728Z" fill="#201600"/>
<path d="M46.0339 17.8574C46.1435 18.1084 46.1308 18.3563 46.0054 18.4112C45.8801 18.466 45.6896 18.3071 45.5799 18.0561C45.4703 17.8051 45.483 17.5572 45.6084 17.5023C45.7338 17.4474 45.9243 17.6064 46.0339 17.8574Z" fill="white"/>
<path d="M56.0395 25.5645C55.4083 26.0157 54.5006 26.4649 53.7805 26.7708C52.9943 27.1048 52.1559 27.4388 51.3064 27.5354C51.3253 27.5542 50.2998 27.6466 49.2278 28.0372C46.6161 28.976 46.5671 30.6002 46.5671 30.73C46.5671 31.0184 46.754 33.0675 46.4659 37.762C46.4053 38.6912 46.1755 39.4761 45.811 40.2886C44.9924 42.0978 43.5451 43.5348 41.9464 44.7307C40.734 45.6429 39.0282 46.7568 37.6136 47.3665C36.3943 47.8898 35.0604 48.2247 33.8503 48.6583C32.8165 49.0313 31.7537 49.5119 30.7103 49.8235C29.8858 50.0685 28.9904 50.2332 28.1397 50.3855C27.7668 50.4511 27.6381 50.5705 27.0371 50.6688C27.1848 50.2908 27.3035 49.8311 27.3503 49.5243C27.295 49.328 27.2491 49.1158 27.2095 48.8879C27.1842 48.8831 27.1605 48.8784 27.1352 48.872C27.1542 48.8451 27.1747 48.8182 27.1937 48.7897C27.0435 47.8583 27.0296 46.6174 27.0719 45.6901C27.2913 45.7235 27.5935 45.765 27.8138 45.7945L27.8154 45.7961C27.8271 45.7961 27.8629 45.802 28.1697 45.8452C29.3324 46.0035 30.5062 46.1634 31.6752 46.0526C34.0117 45.8325 36.1757 44.5091 37.6342 42.6696C39.0879 40.8351 40.274 38.5785 39.9817 36.2454C39.8615 35.294 39.6163 34.3568 39.254 33.4672C38.8427 32.4619 38.161 31.425 37.0995 31.2002C36.2848 31.0261 35.4591 31.3759 34.6998 31.7179C34.8754 31.0356 35.0525 30.3517 35.2281 29.6694C34.6919 29.9163 34.0923 30.0255 33.5023 29.9844C34.0512 29.2245 34.5416 28.4219 34.9703 27.5876C34.3423 27.5053 33.7285 27.3201 33.1606 27.0415C36.0713 25.2732 39.6843 25.2447 42.9272 24.2078C43.6359 23.9814 44.3351 23.7028 44.9488 23.2848C46.3346 22.3413 47.1983 20.6775 47.1746 19.001C47.1399 16.8042 45.63 13.5371 42.5681 11.5226C43.9586 11.5163 45.2099 11.5543 46.3441 11.7727C49.6417 14.6904 50.4484 18.5134 51.6402 19.1958C52.6119 19.7407 54.8272 19.3258 55.9524 19.3746C56.9044 19.4099 57.8851 19.6843 58.6179 20.2896C58.9827 21.9324 58.2854 24.0215 56.0395 25.5645Z" fill="#FFDCA2"/>
<path d="M56.9741 19.5096C56.9599 19.5159 56.9441 19.5207 56.9298 19.5254C56.5961 19.6331 56.2449 19.6711 55.8984 19.7234C55.1834 19.8326 54.4779 20.0005 53.7914 20.2285C53.4797 20.333 53.1697 20.4486 52.847 20.5182C52.4056 20.6133 51.95 20.6212 51.4992 20.6244C50.6308 20.6307 49.7639 20.6291 48.8954 20.6164C48.7942 20.6148 48.356 20.6719 48.3069 20.5578C48.2437 20.4106 48.5917 20.2855 48.6866 20.238C49.0315 20.0638 49.3858 19.9054 49.7449 19.7645C50.3602 19.5238 50.9946 19.3338 51.6416 19.196C51.8899 19.3354 52.1778 19.3956 52.461 19.432C52.9356 19.4922 53.4117 19.489 53.8894 19.4668C54.4684 19.4399 55.0506 19.3845 55.6295 19.3718C55.7371 19.3702 55.8447 19.3702 55.9538 19.375C56.2955 19.3877 56.6388 19.4304 56.9741 19.5096Z" fill="#E0BB86"/>
<path d="M52.1875 17.0713C52.2185 17.2101 52.2349 17.3476 52.2394 17.4786C52.2388 17.4803 52.2388 17.4803 52.2391 17.4817C52.2544 18.0535 52.0217 18.5244 51.6429 18.6091C51.1762 18.7134 50.6626 18.1939 50.4965 17.4494C50.4413 17.2021 50.4314 16.9615 50.4597 16.7473C50.4597 16.7473 50.4603 16.7456 50.46 16.7442C50.5175 16.3109 50.7306 15.9825 51.0414 15.913C51.5082 15.8087 52.0214 16.3268 52.1875 17.0713Z" fill="#E2E2E2"/>
<path d="M52.1883 17.0713C52.2192 17.2101 52.2356 17.3476 52.2401 17.4786C52.2395 17.4803 52.2395 17.4803 52.2399 17.4817C52.1824 17.915 51.9705 18.2446 51.6587 18.3143C51.192 18.4187 50.6784 17.8991 50.5123 17.1546C50.4813 17.0158 50.464 16.8785 50.4604 16.7473C50.4604 16.7473 50.461 16.7456 50.4607 16.7442C50.5182 16.3109 50.7313 15.9825 51.0421 15.913C51.5089 15.8087 52.0222 16.3268 52.1883 17.0713Z" fill="white"/>
<path d="M52.187 17.0718C52.3305 17.7149 52.12 18.3092 51.7169 18.3993C51.3137 18.4895 50.8706 18.0412 50.7272 17.3981C50.5837 16.7551 50.7942 16.1607 51.1973 16.0706C51.6005 15.9805 52.0436 16.4287 52.187 17.0718Z" fill="#201600"/>
<path d="M51.804 16.5871C51.9179 16.8022 51.9611 17.0302 51.9005 17.0963C51.8398 17.1625 51.6983 17.0418 51.5844 16.8267C51.4705 16.6116 51.4273 16.3836 51.4879 16.3174C51.5485 16.2513 51.6901 16.372 51.804 16.5871Z" fill="white"/>
<path d="M56.8204 19.0248C57.5327 18.9845 58.3585 19.067 58.7674 19.652C59.1314 20.1727 59.013 20.8817 58.8317 21.4907C58.7031 21.9228 58.5192 22.3856 58.1224 22.5992C57.9201 22.7081 57.6851 22.7377 57.4556 22.7482C56.0973 22.8099 54.7509 22.2503 53.7251 21.3571C51.6686 19.5662 55.7859 19.0834 56.8204 19.0248Z" fill="#201600"/>
<path d="M42.4591 16.7129C40.8027 15.7938 44.6035 13.6601 45.0238 15.1205C45.2376 15.8634 43.1225 17.0809 42.4591 16.7129Z" fill="#FFDCA2"/>
<path d="M50.1975 14.4809C50.4318 14.4847 50.685 14.5103 50.8644 14.7287C50.9428 14.8242 51.0041 14.9837 50.9605 15.1181C50.9317 15.2068 50.866 15.2564 50.8027 15.2911C50.4844 15.4653 50.1324 15.4177 49.7922 15.4133C49.6908 15.412 49.5878 15.4145 49.49 15.3753C49.3923 15.336 49.2985 15.2476 49.2586 15.1125C49.0712 14.4787 49.9838 14.4774 50.1975 14.4809Z" fill="#FFDCA2"/>
<path d="M29.3878 49.7759C29.3657 49.9073 29.3388 50.0371 29.3039 50.1653C28.9164 50.246 28.5288 50.3157 28.1397 50.3854C28.1128 50.3901 28.0859 50.3964 28.059 50.4012C27.7996 50.4598 27.5575 50.5674 27.2965 50.6196C27.2095 50.637 27.1241 50.6545 27.0371 50.6687C27.1194 50.4582 27.1826 50.2524 27.2301 50.0751C27.3155 49.7521 27.3503 49.5242 27.3503 49.5242C27.295 49.3279 27.2491 49.1157 27.2095 48.8878C27.1842 48.883 27.1605 48.8783 27.1352 48.8719C27.1542 48.845 27.1747 48.8181 27.1937 48.7896C27.1289 48.3875 27.0893 47.9395 27.0687 47.4535C27.1146 47.2335 27.1241 47.0039 27.0925 46.7648C27.0846 46.7094 27.0719 46.654 27.0513 46.597C27.0513 46.3058 27.0577 46.0018 27.0719 45.69C27.0719 45.6393 27.0735 45.5886 27.0767 45.5364C27.2617 45.5902 27.5038 45.6757 27.8138 45.7944L27.8154 45.796H27.817C28.2631 45.967 29.2249 46.616 29.3799 47.0846C29.4542 47.3063 29.4606 47.5437 29.4685 47.7765C29.4875 48.4413 29.5017 49.1252 29.3878 49.7759Z" fill="#E0BB86"/>
<path d="M33.2463 17.6187C31.7634 17.0101 30.7851 15.5419 30.2942 14.0151C29.8032 12.4882 29.7143 10.8666 29.4762 9.28039C29.1167 6.88565 28.4135 4.55846 27.8373 2.20649C27.7798 1.97177 27.7241 1.72144 27.8021 1.49271C27.9108 1.17387 28.2617 0.98697 28.5981 0.974907C28.9345 0.962837 29.2592 1.09162 29.564 1.23458C31.4606 2.12408 33.003 3.6232 34.3713 5.21032C35.7395 6.79742 36.9764 8.50347 38.4703 9.97272C38.8647 10.3605 39.2804 10.7361 39.5808 11.2006C39.8813 11.6651 40.0572 12.2426 39.9149 12.7772C39.805 13.1897 39.522 13.5305 39.2468 13.8567C38.7011 14.5035 38.1553 15.1503 37.6095 15.7972C36.374 17.2616 35.2745 18.451 33.2463 17.6187Z" fill="#FF7D00"/>
<path d="M38.0468 12.6151C38.0389 12.6562 38.0247 12.6974 38.0057 12.7354C37.9266 12.8984 37.7621 13.0235 37.5849 12.9982C37.3634 12.9649 37.2337 12.7227 37.2068 12.5011C37.0265 12.5216 36.9094 12.6974 36.8177 12.8557C36.5061 13.3987 36.1928 13.9417 35.8812 14.4862C35.7831 14.1665 35.7072 13.8419 35.6518 13.5127C35.356 14.1031 35.0903 14.7095 34.8609 15.3284C34.7296 15.6815 34.5841 16.6155 34.013 16.4287C33.9292 16.4018 33.8485 16.3479 33.7694 16.2783C33.4419 15.9838 33.1604 15.3902 33.0053 15.091C32.7459 14.5907 32.5529 14.0588 32.4058 13.5174C32.1242 12.4868 32.0056 11.4214 31.8616 10.3623C31.6465 8.77293 31.3776 7.19144 31.0517 5.62103C30.9362 5.05905 30.8113 4.48913 30.8492 3.91606C30.8619 3.71976 30.9426 3.47439 31.1387 3.45856C31.2542 3.44906 31.3554 3.52664 31.4424 3.60263C32.5545 4.5588 33.3961 5.78568 34.1902 7.01889C34.6505 7.73601 35.1077 8.4674 35.7278 9.05155C35.9856 9.29535 36.2719 9.51065 36.5124 9.77185C36.6943 9.97132 36.8477 10.1945 37.0012 10.4162C37.346 10.9148 37.6925 11.4167 37.9313 11.9739C38.0183 12.1765 38.0911 12.3998 38.0468 12.6151Z" fill="#FFDCA2"/>
<path d="M57.7039 19.3454C57.9322 19.3573 58.2163 19.4206 58.2651 19.6441C57.8505 19.7748 57.408 19.7751 56.9764 19.8266C56.5447 19.878 56.0957 19.9945 55.7886 20.3025C55.7179 20.3734 55.6544 20.4572 55.6349 20.5554C55.5788 20.8393 55.9014 21.1285 55.7754 21.389C55.7153 21.5131 55.5669 21.5744 55.4291 21.5706C55.2914 21.5667 55.1613 21.51 55.0362 21.4522C54.7341 21.3124 54.4294 21.1541 54.2134 20.9007C54.0206 20.6745 53.8204 20.2128 54.093 19.9896C54.3531 19.7766 54.8476 19.6611 55.1671 19.5717C55.9893 19.3416 56.855 19.3012 57.7039 19.3454Z" fill="#595651"/>
<path d="M57.4959 19.3366C57.5572 19.3424 57.638 19.3744 57.6259 19.4349C57.6175 19.4771 57.5675 19.4943 57.5254 19.5035C57.3365 19.5448 55.9677 19.8271 55.9486 19.6409C55.9087 19.2524 57.2853 19.3166 57.4959 19.3366Z" fill="white"/>
<path d="M39.1766 39.5112C39.1449 39.8911 39.0817 40.2648 38.9931 40.6336C38.7036 41.851 38.1436 43.0066 37.5077 44.0911C36.6788 45.5031 35.7091 46.8345 34.9498 48.2846C34.9482 48.2878 34.9466 48.2909 34.945 48.2941C34.2443 49.6286 33.7302 51.0486 33.273 52.4861C33.1591 52.8391 33.0499 53.1906 32.9424 53.5436C33.6273 53.3995 34.3819 53.6655 34.8264 54.2053C35.2709 54.7467 35.3864 55.5398 35.1127 56.1841C35.0795 56.2649 35.0352 56.3472 34.9577 56.3899C34.8928 56.4248 34.8153 56.4248 34.741 56.4232C33.341 56.4026 31.9394 56.3804 30.5395 56.3599C30.3718 56.3567 30.1946 56.3519 30.0475 56.2696C29.8735 56.1699 29.7754 55.9768 29.6916 55.7947C29.1901 54.6897 28.8769 53.5008 28.763 52.2914C28.7503 52.1568 28.7393 52.0222 28.733 51.8861C28.7045 51.4207 28.7076 50.9552 28.7409 50.4898C28.4909 50.4977 28.241 50.5057 27.9895 50.5136C28.0132 50.4772 28.0385 50.4392 28.0591 50.4012C28.1556 50.2492 28.241 50.0925 28.3201 49.9326C28.3201 49.931 28.3201 49.931 28.3201 49.931C28.483 49.5954 28.6112 49.2423 28.6997 48.8798C28.2109 48.9891 27.7 48.9922 27.2096 48.8877C27.1843 48.883 27.1606 48.8783 27.1353 48.8719C27.1542 48.845 27.1748 48.8181 27.1938 48.7896C27.662 48.1516 28.4466 47.1765 28.1049 46.4039C28.0132 46.1981 27.9167 45.9955 27.8155 45.796L27.8139 45.7944C27.8076 45.7786 27.7996 45.7628 27.7917 45.7469C27.7902 45.7454 27.7886 45.7438 27.7886 45.7422C27.5719 45.3037 27.3425 44.8731 27.1416 44.425C27.2333 43.1744 27.3915 41.8146 27.5956 40.4072C27.8281 38.783 28.1208 37.0938 28.4371 35.4395C29.0715 34.8206 29.8276 34.3346 30.6692 34.0528C31.5883 33.7425 32.5738 33.676 33.5435 33.714C34.9925 33.771 36.5048 34.0908 37.5947 35.0469C38.8254 36.1266 39.3174 37.8791 39.1766 39.5112Z" fill="#FF7D00"/>
<path d="M35.1124 56.1845C35.0792 56.2652 35.0349 56.3476 34.9574 56.3903C34.8925 56.4251 34.815 56.4251 34.7406 56.4235C33.3407 56.4029 31.9391 56.3808 30.5391 56.3602C30.3715 56.3571 30.1943 56.3523 30.0472 56.27C29.8732 56.1703 29.7751 55.9771 29.6913 55.7951C29.1898 54.6901 28.8766 53.5012 28.7627 52.2917C29.0237 51.9846 29.4888 51.6664 29.6106 51.3735C29.3448 52.0178 29.7134 52.8474 30.3683 53.0801C31.1719 53.3666 32.0514 52.7872 32.5054 52.0653C32.4643 52.2426 32.4232 52.4184 32.3836 52.5957C32.6779 52.6748 32.9753 52.5767 33.2727 52.4864C33.1588 52.8395 33.0496 53.1909 32.942 53.5439C33.627 53.3999 34.3816 53.6658 34.8261 54.2056C35.2706 54.7471 35.3861 55.5402 35.1124 56.1845Z" fill="#FFDCA2"/>
<path d="M38.0053 12.7355C37.9262 12.8985 37.7617 13.0236 37.5846 12.9982C37.3631 12.965 37.2334 12.7228 37.2065 12.5011C37.0261 12.5217 36.9091 12.6975 36.8173 12.8558C36.5057 13.3988 36.1925 13.9418 35.8809 14.4863C35.7828 14.1666 35.7069 13.842 35.6515 13.5127C35.3557 14.1032 35.0899 14.7095 34.8605 15.3285C34.7293 15.6815 34.5837 16.6156 34.0126 16.4288C33.9288 16.4018 33.8481 16.348 33.769 16.2784C33.8893 16.2515 34.049 16.3053 34.1708 16.1976C34.3037 16.0773 34.367 15.8984 34.4239 15.7275C34.7182 14.8473 35.014 13.9655 35.3098 13.0853C35.4221 12.7481 35.5455 12.3951 35.8113 12.1608C36.0327 12.4188 35.9331 12.8953 36.2273 13.0679C36.531 12.5882 36.9028 12.1497 37.3283 11.7729C37.3631 11.9803 37.3995 12.1861 37.4343 12.3919C37.4533 12.5027 37.4754 12.6183 37.5466 12.7038C37.6557 12.8383 37.8709 12.8368 38.0053 12.7355Z" fill="#E0BB86"/>
<path d="M27.8173 45.7962H27.8157C27.6623 45.7756 27.5073 45.7534 27.3554 45.7312C27.2605 45.7186 27.1656 45.7043 27.0723 45.6901C27.0723 45.6394 27.0738 45.5887 27.077 45.5365C27.0818 45.405 27.0881 45.2704 27.096 45.1343C27.4029 45.31 27.6971 45.6156 27.7889 45.7423C27.7889 45.7439 27.7904 45.7455 27.792 45.7471C27.8094 45.7724 27.8189 45.7898 27.8173 45.7962Z" fill="#B25109"/>
<path d="M56.0407 25.5653C55.9853 25.6048 55.9299 25.6428 55.873 25.6761C55.7828 25.6808 55.6911 25.684 55.6009 25.684C55.5329 25.6872 55.4633 25.6872 55.3953 25.6856C55.0298 25.6761 54.666 25.6508 54.3038 25.6001C53.9431 25.5447 53.584 25.475 53.2297 25.3816C52.8753 25.2866 52.5273 25.1741 52.1809 25.0459C51.8376 24.9192 51.4959 24.7799 51.1558 24.6262C50.9849 24.5518 50.8188 24.4679 50.648 24.3871C50.5373 24.3317 50.4297 24.2795 50.3158 24.2193C50.2446 24.3127 50.1814 24.4125 50.1228 24.5186C50.0073 24.7038 49.9472 24.916 49.8571 25.1504C49.7859 24.9176 49.7621 24.6563 49.827 24.4077C49.8602 24.262 49.914 24.1195 49.9899 23.9881C50.0421 23.8931 50.1038 23.8044 50.1734 23.7252C50.2589 23.6271 50.3506 23.5368 50.4534 23.4592C50.5531 23.3832 50.6622 23.3167 50.7746 23.2644C51.0023 23.1599 51.246 23.0934 51.4991 23.1093C51.5196 23.1093 51.5339 23.1267 51.5307 23.1457C51.5307 23.1552 51.526 23.1631 51.5181 23.171H51.5165C51.246 23.3769 50.9944 23.559 50.7682 23.7538C50.8268 23.8107 50.89 23.8678 50.9517 23.92C51.0846 24.0372 51.227 24.1433 51.3709 24.2462C51.662 24.4489 51.9705 24.631 52.2916 24.7862C52.937 25.0965 53.6251 25.3103 54.3291 25.4449C54.6818 25.5067 55.0393 25.5494 55.3984 25.5653C55.5028 25.5684 55.6104 25.5716 55.7164 25.5716C55.824 25.5716 55.9331 25.57 56.0407 25.5653Z" fill="#A14944"/>
<path d="M3.79811 47.3826C3.23375 48.6398 2.37342 49.8817 1.07238 50.3335C1.59504 50.4075 1.8961 51.1223 1.58408 51.5483C1.43058 51.758 1.18484 51.8745 0.957514 52.0001C0.682039 52.1524 0.420189 52.3293 0.176096 52.5281C0.0852576 52.6021 -0.0119048 52.7015 0.00734434 52.8171C0.0210613 52.8995 0.0906369 52.9595 0.156487 53.0108C1.02926 53.6916 2.07488 54.1805 3.17775 54.2709C4.28064 54.3612 5.43907 54.0229 6.23111 53.2495C6.93292 52.5643 7.29932 51.6076 7.5483 50.6585C7.80556 49.6779 7.95967 48.6702 8.00725 47.6575C8.04947 46.759 7.99837 45.8201 7.57022 45.0292C7.15963 44.2707 6.03737 43.3653 5.25537 44.0425C4.4972 44.6992 4.20263 46.4815 3.79811 47.3826Z" fill="#B25109"/>
<path d="M27.2106 48.888C27.1853 48.8832 27.1616 48.8785 27.1362 48.8721C27.1552 48.8452 27.1758 48.8183 27.1948 48.7898C27.1996 48.823 27.2043 48.8563 27.2106 48.888Z" fill="#E0BB86"/>
<path d="M33.8186 44.7748C33.6129 47.227 33.121 48.9731 32.1797 49.304C31.3208 49.6064 30.1075 50.048 28.7376 50.5562C28.0225 50.8206 27.2632 51.1039 26.4897 51.3968C24.6025 52.1076 22.6267 52.8691 20.9657 53.5292C18.7638 54.4062 17.117 55.1075 16.9778 55.2864C16.8908 55.4004 16.3166 55.4653 15.4924 55.5001C15.2425 55.5096 14.9688 55.5175 14.6793 55.5223C11.8968 55.5714 7.59087 55.3972 7.59087 55.3972C7.59087 55.3972 3.05243 53.8949 4.04269 45.0645C5.03295 36.2325 22.1775 32.9667 25.1704 31.5134C29.6282 29.3509 32.3427 22.7527 32.3427 22.7527C32.3427 22.7527 34.4577 37.165 33.8186 44.7748Z" fill="#FF7D00"/>
<path d="M20.24 50.3189C20.2305 50.5231 20.2084 50.74 20.0802 50.8999C20.066 50.9173 20.0502 50.9331 20.0344 50.9474C19.9157 51.0519 19.7753 51.147 19.6488 51.0678C19.6282 51.0552 19.6056 51.0827 19.5882 51.0637C19.5945 51.0811 19.5614 50.9996 19.5693 51.0171C19.3621 51.0408 19.1548 51.0582 18.9444 51.0661C19.1343 51.2846 19.2956 51.5252 19.4269 51.7801C18.8258 52.0239 18.2373 52.3009 17.6663 52.608C18.0507 51.9827 18.3449 51.2989 18.5395 50.5928C19.0251 48.8276 18.9207 46.9311 18.424 45.1692C18.1646 44.2478 17.7944 43.3455 17.2091 42.5888C16.8516 42.1281 15.6573 41.5281 15.6715 40.9566C16.7535 40.8695 18.0459 42.4321 18.6107 43.2252C19.351 44.2637 19.835 45.4874 19.979 46.7554C19.7338 46.643 19.5171 46.4641 19.3621 46.2425C19.9996 47.4947 20.3065 48.9147 20.24 50.3189Z" fill="#B25109"/>
<path d="M20.9662 53.5294C18.7642 54.4064 17.1175 55.1077 16.9783 55.2866C16.8913 55.4006 16.3171 55.4655 15.4929 55.5003C15.3046 55.3959 15.1828 55.1441 15.2888 54.9573C15.3426 54.8608 15.4438 54.8022 15.5388 54.7468C15.7049 54.6518 15.871 54.5568 16.0371 54.4603C16.6856 53.9505 17.2346 53.3157 17.6664 52.6081C18.2375 52.301 18.8259 52.0239 19.427 51.7801C19.2958 51.5252 19.1344 51.2846 18.9446 51.0662C19.155 51.0583 19.3622 51.0408 19.5694 51.0171C19.9285 51.9083 20.3999 52.7537 20.9662 53.5294Z" fill="#E0BB86"/>
<path d="M19.174 56.9487C16.1446 57.0294 13.1122 56.9107 10.0987 56.5909C10.037 56.5845 9.97685 56.5782 9.91516 56.5719C9.66364 56.545 9.40263 56.5133 9.18274 56.3882C8.8379 56.1904 8.64491 55.7566 8.7319 55.3687C8.81734 54.9793 9.17484 54.6674 9.57189 54.6358C8.65281 54.0912 7.71634 53.5324 7.02505 52.7187C5.95095 51.4522 5.60294 49.695 5.72631 48.0391C5.90507 45.6471 7.0029 43.483 8.67338 41.7907C10.0939 40.3517 12.4936 40.1301 14.403 40.6478C17.1349 41.387 18.7959 44.4012 18.7263 47.2333C18.6614 49.8343 17.4307 52.2596 15.8836 54.3698C15.7476 54.5566 15.6084 54.7403 15.4676 54.9207C16.3139 54.7086 17.2282 54.5614 18.0429 54.878C18.856 55.1946 19.484 56.1318 19.174 56.9487Z" fill="#FF7D00"/>
<path d="M19.1749 56.9498C16.1456 57.0306 13.1131 56.9118 10.0996 56.5919C9.35452 55.797 9.86231 55.0813 9.86231 55.0813H10.2752V53.8984L10.8114 54.7915V53.8984C10.8114 53.8984 12.7508 54.668 14.5257 54.4194C14.9465 54.3608 15.4147 54.3513 15.8846 54.3703C15.7485 54.5571 15.6093 54.7409 15.4685 54.9214C16.3148 54.7092 17.2292 54.5619 18.0438 54.8786C18.8569 55.1953 19.485 56.1327 19.1749 56.9498Z" fill="#FFDCA2"/>
<path d="M28.0882 47.3378C28.0866 47.3378 28.085 47.3394 28.0834 47.3394C27.1675 47.7383 26.212 48.0439 25.236 48.2512C25.5002 46.5558 25.6821 44.8445 25.7818 43.13C25.5919 43.187 25.4037 43.2456 25.2139 43.3026C25.7327 42.5474 26.1567 40.9738 26.9413 40.5068C27.264 40.3153 27.4696 40.3058 27.5962 40.4071C27.3921 41.8144 27.2339 43.1743 27.1422 44.4249C27.3431 44.8729 27.5725 45.3035 27.7892 45.7421C27.7892 45.7436 27.7908 45.7452 27.7923 45.7468C27.8003 45.7626 27.8082 45.7785 27.8145 45.7943L27.8161 45.7959C27.9173 45.9954 28.0138 46.198 28.1056 46.4038C28.2353 46.6951 28.2036 47.0164 28.0882 47.3378Z" fill="#B25109"/>
<path d="M28.7412 50.49C28.7396 50.5122 28.7381 50.5344 28.7381 50.5565C28.023 50.8209 27.2637 51.1043 26.4902 51.3971C26.1643 50.4267 25.9856 49.4072 25.9634 48.3845C25.6992 48.4795 25.4351 48.5745 25.1709 48.6695C25.193 48.5302 25.2152 48.3909 25.2358 48.2516C26.2118 48.0442 27.1672 47.7386 28.0832 47.3397C28.0847 47.3397 28.0863 47.3381 28.0879 47.3381C27.8997 47.8653 27.4868 48.394 27.1941 48.7898C27.1752 48.8183 27.1546 48.8452 27.1356 48.8721C27.1609 48.8785 27.1846 48.8832 27.2099 48.888C27.7003 48.9924 28.2113 48.9893 28.7001 48.88C28.6115 49.2426 28.4834 49.5956 28.3204 49.9312C28.3204 49.9312 28.3204 49.9312 28.3204 49.9328C28.2413 50.0927 28.1559 50.2494 28.0594 50.4014C28.0389 50.4394 28.0136 50.4774 27.9898 50.5138C28.2413 50.5059 28.4913 50.498 28.7412 50.49Z" fill="#E0BB86"/>
<path d="M15.5653 53.9367C16.2328 53.4458 16.9352 53.0024 17.666 52.6082C17.2342 53.316 16.6853 53.951 16.0367 54.4608C15.8706 54.5574 15.7045 54.6524 15.5384 54.7474C15.4435 54.8029 15.3422 54.8615 15.2884 54.958C15.1825 55.1449 15.3043 55.3967 15.4925 55.5012C15.2426 55.5107 14.9689 55.5186 14.6794 55.5233C14.6731 55.5075 14.6683 55.4917 14.6636 55.4743C14.5117 54.8599 15.0559 54.3104 15.5653 53.9367Z" fill="#FFDCA2"/>
<path d="M25.9628 48.3844C25.985 49.4071 26.1637 50.4266 26.4896 51.397C24.6024 52.1078 22.6266 52.8693 20.9657 53.5294C20.3993 52.7537 19.9279 51.9083 19.5688 51.0171C19.5799 51.0155 19.591 51.0139 19.6021 51.0123C19.7476 50.9949 19.89 50.9727 20.0339 50.9474C21.8199 50.6308 23.4983 49.7585 25.1181 48.9037C24.835 48.7438 24.5502 48.5839 24.2671 48.424C24.5914 48.3781 24.914 48.3211 25.2352 48.2515C25.2146 48.3908 25.1925 48.5301 25.1703 48.6694C25.4345 48.5744 25.6987 48.4794 25.9628 48.3844Z" fill="#FFDCA2"/>
<path d="M46.5671 30.7381C46.6114 31.5723 46.6288 32.4209 46.624 33.2726C46.6209 34.7781 46.556 36.2931 46.4658 37.7622C46.3962 38.9146 46.0127 40.0212 45.4337 41.0233C45.5096 38.34 45.6322 35.6503 45.1734 33.013C45.1339 32.7802 45.0817 32.5349 44.9235 32.3591C44.7653 32.1834 44.4648 32.1138 44.2939 32.2784C44.5707 31.5613 44.7416 30.803 44.8001 30.0352C44.8096 29.9181 44.8159 29.7961 44.7796 29.6838C44.6546 29.2975 44.15 29.2262 43.7466 29.2247C45.4408 28.403 47.339 28.2495 49.2278 28.0374C46.5149 29.0125 46.5671 30.727 46.5671 30.7381Z" fill="#E0BB86"/>
</svg>
