<svg width="73" height="47" viewBox="0 0 73 47" fill="none" xmlns="http://www.w3.org/2000/svg">
<path d="M36.0057 46.9741C45.8103 46.9741 53.7585 45.7205 53.7585 44.1741C53.7585 42.6277 45.8103 41.3741 36.0057 41.3741C26.2011 41.3741 18.2529 42.6277 18.2529 44.1741C18.2529 45.7205 26.2011 46.9741 36.0057 46.9741Z" fill="url(#paint0_linear_13345_314731)"/>
<path d="M36.0046 46.4654C45.486 46.4654 53.1722 45.3003 53.1722 43.863C53.1722 42.4258 45.486 41.2606 36.0046 41.2606C26.5231 41.2606 18.8369 42.4258 18.8369 43.863C18.8369 45.3003 26.5231 46.4654 36.0046 46.4654Z" fill="url(#paint1_linear_13345_314731)"/>
<path opacity="0.4" d="M36.0052 44.9145C39.8357 44.9145 42.941 44.3783 42.941 43.717C42.941 43.0557 39.8357 42.5195 36.0052 42.5195C32.1746 42.5195 29.0693 43.0557 29.0693 43.717C29.0693 44.3783 32.1746 44.9145 36.0052 44.9145Z" fill="url(#paint2_linear_13345_314731)"/>
<path opacity="0.4" d="M36.0046 41.2606C26.5231 41.2606 18.8369 42.426 18.8369 43.863C18.8369 45.3003 26.5231 46.4654 36.0046 46.4654C45.486 46.4654 53.1722 45.3003 53.1722 43.863C53.1722 42.426 45.486 41.2606 36.0046 41.2606ZM34.5874 45.78C26.5614 45.78 20.0551 44.7938 20.0551 43.5772C20.0551 42.3607 26.5614 41.3742 34.5874 41.3742C42.6135 41.3742 49.1197 42.3607 49.1197 43.5772C49.1197 44.7938 42.6135 45.78 34.5874 45.78Z" fill="url(#paint3_linear_13345_314731)"/>
<path d="M36.0049 0.974121C16.1226 0.974121 0.00488281 2.95341 0.00488281 5.94637C0.00488281 8.93919 16.1226 11.3655 36.0049 11.3655C55.8872 11.3655 72.0049 8.93919 72.0049 5.94637C72.0049 2.95341 55.8872 0.974121 36.0049 0.974121ZM36.0049 9.50881C18.4532 9.50881 4.22478 7.91387 4.22478 5.94637C4.22478 3.97885 18.4532 2.3839 36.0049 2.3839C53.5566 2.3839 67.7851 3.97885 67.7851 5.94637C67.7851 7.91387 53.5565 9.50881 36.0049 9.50881Z" fill="url(#paint4_linear_13345_314731)"/>
<g style="mix-blend-mode:multiply" opacity="0.9">
<path d="M36.0049 0.974121C16.1226 0.974121 0.00488281 2.95341 0.00488281 5.94637C0.00488281 8.93919 16.1226 11.3655 36.0049 11.3655C55.8872 11.3655 72.0049 8.93919 72.0049 5.94637C72.0049 2.95341 55.8872 0.974121 36.0049 0.974121ZM36.0049 11.0802C16.5363 11.0802 0.753927 8.78708 0.753927 5.95866C0.753927 3.12998 16.5363 1.25939 36.0049 1.25939C55.4735 1.25939 71.2558 3.12998 71.2558 5.95866C71.2558 8.78708 55.4735 11.0802 36.0049 11.0802Z" fill="url(#paint5_linear_13345_314731)"/>
</g>
<path d="M36.0049 11.3653C16.1226 11.3653 0.00488281 8.93899 0.00488281 5.94617V9.09121C0.00488281 12.084 16.1226 14.5103 36.0049 14.5103C55.8872 14.5103 72.0049 12.084 72.0049 9.09121V5.94617C72.0049 8.93899 55.8872 11.3653 36.0049 11.3653Z" fill="url(#paint6_linear_13345_314731)"/>
<g style="mix-blend-mode:multiply" opacity="0.9">
<path d="M36.0049 11.3653C16.1226 11.3653 0.00488281 8.93899 0.00488281 5.94617V9.09121C0.00488281 12.084 16.1226 14.5103 36.0049 14.5103C55.8872 14.5103 72.0049 12.084 72.0049 9.09121V5.94617C72.0049 8.93899 55.8872 11.3653 36.0049 11.3653ZM67.3356 11.2133C61.908 12.7892 49.9206 13.8845 36.0049 13.8845C21.6914 13.8845 9.41832 12.7259 4.22518 11.0772C2.51994 10.5357 1.57804 9.7328 1.57804 8.72759C1.57804 7.72239 2.51994 8.32428 4.22518 8.86563C9.41832 10.5143 21.6914 11.673 36.0049 11.673C49.8559 11.6732 61.7964 10.5879 67.2592 9.02387C69.2953 8.44091 70.4317 7.98474 70.4317 8.92425C70.4317 9.86377 69.3239 10.636 67.3356 11.2133Z" fill="url(#paint7_linear_13345_314731)"/>
</g>
<path d="M4.78204 6.61214C7.56376 4.96294 20.4841 3.7155 36.0057 3.7155C51.5273 3.7155 64.4476 4.96294 67.2292 6.61214C67.5932 6.39642 67.7859 6.1739 67.7859 5.94638C67.7859 3.97887 53.5574 2.38391 36.0057 2.38391C18.454 2.38391 4.22559 3.97887 4.22559 5.94638C4.22559 6.1739 4.41817 6.39642 4.78204 6.61214Z" fill="url(#paint8_linear_13345_314731)"/>
<path d="M49.3865 43.4733C49.3865 43.4733 48.0091 44.6366 36.0048 44.6366C24.0004 44.6366 22.623 43.4733 22.623 43.4733C22.623 43.4733 33.3974 42.1207 33.3974 38.5498C33.3974 34.9788 33.3974 14.5104 33.3974 14.5104H38.6121C38.6121 14.5104 38.6121 35.0762 38.6121 38.5498C38.6121 42.1801 49.3865 43.4733 49.3865 43.4733Z" fill="url(#paint9_linear_13345_314731)"/>
<g style="mix-blend-mode:screen">
<path d="M36.0036 13.4476C63.7757 13.4476 73.1401 8.49827 66.1902 9.75313C59.2404 11.008 48.0488 12.0491 36.0036 12.0491C22.5986 12.0491 12.0801 11.176 4.97926 9.36646C2.85841 8.82604 4.48983 13.4476 36.0036 13.4476Z" fill="url(#paint10_linear_13345_314731)"/>
</g>
<g style="mix-blend-mode:multiply" opacity="0.9">
<path d="M36.0048 1.93921C17.7115 1.93921 2.88184 3.73334 2.88184 5.94645C2.88184 8.15952 17.7115 9.95368 36.0048 9.95368C54.2981 9.95368 69.128 8.15952 69.128 5.94645C69.128 3.73334 54.2981 1.93921 36.0048 1.93921ZM36.0048 9.50889C18.4531 9.50889 4.22469 7.91395 4.22469 5.94645C4.22469 3.97893 18.4531 2.38398 36.0048 2.38398C53.5565 2.38398 67.7851 3.97893 67.7851 5.94645C67.7851 7.91395 53.5565 9.50889 36.0048 9.50889Z" fill="url(#paint11_linear_13345_314731)"/>
</g>
<g style="mix-blend-mode:multiply">
<path d="M2.03027 5.7339C2.03562 5.73275 2.02558 5.80459 2.06382 5.93148C2.09986 6.05784 2.18921 6.23811 2.36637 6.42185C2.71892 6.7943 3.38514 7.16382 4.27323 7.50079C5.16388 7.8369 6.28166 8.14532 7.57993 8.41894C8.87844 8.69306 10.357 8.93619 11.9758 9.15758C15.2146 9.60109 19.0209 9.89223 23.1021 10.1036C27.1844 10.313 31.5458 10.4007 35.907 10.3935C40.2679 10.411 44.6291 10.3229 48.7106 10.1058C50.7509 9.99263 52.7225 9.86829 54.5886 9.70671C56.4546 9.54589 58.2153 9.35282 59.8344 9.13044C63.0707 8.68409 65.7513 8.14815 67.556 7.53011C68.4561 7.22308 69.1446 6.90863 69.5472 6.59316C69.751 6.43963 69.8744 6.28125 69.9275 6.16065C69.9804 6.03901 69.9713 5.96617 69.9751 5.96732C69.9711 5.9663 69.9832 6.03865 69.9342 6.16359C69.885 6.28741 69.7651 6.45271 69.5648 6.61518C69.1681 6.94678 68.4883 7.29595 67.5897 7.62602C65.7897 8.28731 63.118 8.92659 59.8763 9.42157C56.6342 9.91682 52.8263 10.3218 48.7357 10.5594C44.6452 10.7992 40.2754 10.9113 35.9064 10.9175C31.5377 10.9024 27.1686 10.7896 23.0779 10.5578C18.9871 10.3279 15.1779 9.93717 11.9343 9.4495C8.69248 8.96039 6.0158 8.31869 4.23614 7.59566C3.34854 7.23511 2.69049 6.82989 2.34559 6.44105C2.17253 6.24811 2.08853 6.06206 2.05679 5.93326C2.02289 5.8037 2.03576 5.73327 2.03027 5.7339Z" fill="url(#paint12_linear_13345_314731)"/>
</g>
<path opacity="0.7" d="M38.6121 38.5498C38.6121 35.0762 38.6121 14.5104 38.6121 14.5104H33.3974C33.3974 14.5104 33.3974 14.8402 33.3974 15.4223C33.6923 15.3951 34.0157 15.38 34.3552 15.38C35.7249 15.38 36.8352 15.6242 36.8352 15.9255V38.9808C36.8352 40.2306 40.1556 42.0823 44.6511 43.0712C47.3816 43.6717 40.8825 44.7154 31.8756 44.4022C25.3163 44.174 23.0084 43.4862 24.6352 43.1453L24.6349 43.1452C23.446 43.3695 22.623 43.4733 22.623 43.4733C22.623 43.4733 24.0004 44.6366 36.0048 44.6366C48.0091 44.6366 49.3865 43.4733 49.3865 43.4733C49.3865 43.4733 38.6121 42.1801 38.6121 38.5498Z" fill="url(#paint13_linear_13345_314731)"/>
<path d="M36.0057 9.50882C18.454 9.50882 4.22559 7.91389 4.22559 5.94638C4.22559 3.97887 18.454 2.38391 36.0057 2.38391C53.5574 2.38391 67.786 3.97887 67.786 5.94638C67.786 7.91389 53.5574 9.50882 36.0057 9.50882Z" fill="url(#paint14_linear_13345_314731)"/>
<defs>
<linearGradient id="paint0_linear_13345_314731" x1="17.7718" y1="44.1741" x2="53.9204" y2="44.1741" gradientUnits="userSpaceOnUse">
<stop stop-color="#2F5DFF"/>
<stop offset="0.114974" stop-color="#386FFF"/>
<stop offset="0.336215" stop-color="#468BFF"/>
<stop offset="0.558302" stop-color="#519FFF"/>
<stop offset="0.779712" stop-color="#57ABFF"/>
<stop offset="1" stop-color="#59AFFF"/>
</linearGradient>
<linearGradient id="paint1_linear_13345_314731" x1="53.2703" y1="43.863" x2="19.2279" y2="43.863" gradientUnits="userSpaceOnUse">
<stop stop-color="#2F5DFF"/>
<stop offset="0.114974" stop-color="#386FFF"/>
<stop offset="0.336215" stop-color="#468BFF"/>
<stop offset="0.558302" stop-color="#519FFF"/>
<stop offset="0.779712" stop-color="#57ABFF"/>
<stop offset="1" stop-color="#59AFFF"/>
</linearGradient>
<linearGradient id="paint2_linear_13345_314731" x1="42.9807" y1="43.717" x2="29.2273" y2="43.717" gradientUnits="userSpaceOnUse">
<stop stop-color="#2F5DFF"/>
<stop offset="0.114974" stop-color="#386FFF"/>
<stop offset="0.336215" stop-color="#468BFF"/>
<stop offset="0.558302" stop-color="#519FFF"/>
<stop offset="0.779712" stop-color="#57ABFF"/>
<stop offset="1" stop-color="#59AFFF"/>
</linearGradient>
<linearGradient id="paint3_linear_13345_314731" x1="53.2703" y1="43.863" x2="19.2279" y2="43.863" gradientUnits="userSpaceOnUse">
<stop stop-color="#2F5DFF"/>
<stop offset="0.114974" stop-color="#386FFF"/>
<stop offset="0.336215" stop-color="#468BFF"/>
<stop offset="0.558302" stop-color="#519FFF"/>
<stop offset="0.779712" stop-color="#57ABFF"/>
<stop offset="1" stop-color="#59AFFF"/>
</linearGradient>
<linearGradient id="paint4_linear_13345_314731" x1="0.00488132" y1="6.16978" x2="72.0049" y2="6.16978" gradientUnits="userSpaceOnUse">
<stop stop-color="#2F5DFF"/>
<stop offset="0.114974" stop-color="#386FFF"/>
<stop offset="0.336215" stop-color="#468BFF"/>
<stop offset="0.558302" stop-color="#519FFF"/>
<stop offset="0.779712" stop-color="#57ABFF"/>
<stop offset="1" stop-color="#59AFFF"/>
</linearGradient>
<linearGradient id="paint5_linear_13345_314731" x1="10.4021" y1="2.19723" x2="77.7605" y2="12.2465" gradientUnits="userSpaceOnUse">
<stop stop-color="#4B55BD"/>
<stop offset="0.0262788" stop-color="#5266C5"/>
<stop offset="0.0901385" stop-color="#618AD7"/>
<stop offset="0.15753" stop-color="#6DA8E6"/>
<stop offset="0.228491" stop-color="#77BFF1"/>
<stop offset="0.304576" stop-color="#7ECFF9"/>
<stop offset="0.389369" stop-color="#82D9FE"/>
<stop offset="0.500578" stop-color="#83DCFF"/>
<stop offset="0.617933" stop-color="#82D9FE"/>
<stop offset="0.702323" stop-color="#7ED0F9"/>
<stop offset="0.776369" stop-color="#77C0F1"/>
<stop offset="0.844472" stop-color="#6EAAE6"/>
<stop offset="0.908509" stop-color="#628DD8"/>
<stop offset="0.96872" stop-color="#546AC7"/>
<stop offset="1" stop-color="#4B55BD"/>
</linearGradient>
<linearGradient id="paint6_linear_13345_314731" x1="73.6309" y1="10.2282" x2="-0.769623" y2="10.2282" gradientUnits="userSpaceOnUse">
<stop stop-color="#2F5DFF"/>
<stop offset="0.114974" stop-color="#386FFF"/>
<stop offset="0.336215" stop-color="#468BFF"/>
<stop offset="0.558302" stop-color="#519FFF"/>
<stop offset="0.779712" stop-color="#57ABFF"/>
<stop offset="1" stop-color="#59AFFF"/>
</linearGradient>
<linearGradient id="paint7_linear_13345_314731" x1="73.6309" y1="10.2282" x2="-0.769623" y2="10.2282" gradientUnits="userSpaceOnUse">
<stop stop-color="#4B55BD"/>
<stop offset="0.0262788" stop-color="#5266C5"/>
<stop offset="0.0901385" stop-color="#618AD7"/>
<stop offset="0.15753" stop-color="#6DA8E6"/>
<stop offset="0.228491" stop-color="#77BFF1"/>
<stop offset="0.304576" stop-color="#7ECFF9"/>
<stop offset="0.389369" stop-color="#82D9FE"/>
<stop offset="0.500578" stop-color="#83DCFF"/>
<stop offset="0.617933" stop-color="#82D9FE"/>
<stop offset="0.702323" stop-color="#7ED0F9"/>
<stop offset="0.776369" stop-color="#77C0F1"/>
<stop offset="0.844472" stop-color="#6EAAE6"/>
<stop offset="0.908509" stop-color="#628DD8"/>
<stop offset="0.96872" stop-color="#546AC7"/>
<stop offset="1" stop-color="#4B55BD"/>
</linearGradient>
<linearGradient id="paint8_linear_13345_314731" x1="65.6802" y1="6.41168" x2="4.99018" y2="3.68326" gradientUnits="userSpaceOnUse">
<stop stop-color="#2F5DFF"/>
<stop offset="0.114974" stop-color="#386FFF"/>
<stop offset="0.336215" stop-color="#468BFF"/>
<stop offset="0.558302" stop-color="#519FFF"/>
<stop offset="0.779712" stop-color="#57ABFF"/>
<stop offset="1" stop-color="#59AFFF"/>
</linearGradient>
<linearGradient id="paint9_linear_13345_314731" x1="47.0126" y1="29.5735" x2="27.4945" y2="29.5735" gradientUnits="userSpaceOnUse">
<stop stop-color="#2F5DFF"/>
<stop offset="0.0271961" stop-color="#3160FF"/>
<stop offset="0.460664" stop-color="#468BFF"/>
<stop offset="0.799486" stop-color="#54A5FF"/>
<stop offset="1" stop-color="#59AFFF"/>
</linearGradient>
<linearGradient id="paint10_linear_13345_314731" x1="69.8371" y1="11.3851" x2="3.6617" y2="11.3851" gradientUnits="userSpaceOnUse">
<stop/>
<stop offset="0.0888712" stop-color="#182E44"/>
<stop offset="0.200251" stop-color="#336393"/>
<stop offset="0.292165" stop-color="#478BCD"/>
<stop offset="0.359738" stop-color="#53A3F1"/>
<stop offset="0.395751" stop-color="#58ACFF"/>
<stop offset="0.44507" stop-color="#56A9FA"/>
<stop offset="0.501819" stop-color="#529FEC"/>
<stop offset="0.562288" stop-color="#4A90D5"/>
<stop offset="0.625339" stop-color="#3E7AB5"/>
<stop offset="0.69044" stop-color="#305E8B"/>
<stop offset="0.757242" stop-color="#1E3C58"/>
<stop offset="0.824186" stop-color="#0A141D"/>
<stop offset="0.854466"/>
</linearGradient>
<linearGradient id="paint11_linear_13345_314731" x1="2.88184" y1="5.94645" x2="69.128" y2="5.94645" gradientUnits="userSpaceOnUse">
<stop stop-color="#4B55BD"/>
<stop offset="0.0262788" stop-color="#5266C5"/>
<stop offset="0.0901385" stop-color="#618AD7"/>
<stop offset="0.15753" stop-color="#6DA8E6"/>
<stop offset="0.228491" stop-color="#77BFF1"/>
<stop offset="0.304576" stop-color="#7ECFF9"/>
<stop offset="0.389369" stop-color="#82D9FE"/>
<stop offset="0.500578" stop-color="#83DCFF"/>
<stop offset="0.617933" stop-color="#82D9FE"/>
<stop offset="0.702323" stop-color="#7ED0F9"/>
<stop offset="0.776369" stop-color="#77C0F1"/>
<stop offset="0.844472" stop-color="#6EAAE6"/>
<stop offset="0.908509" stop-color="#628DD8"/>
<stop offset="0.96872" stop-color="#546AC7"/>
<stop offset="1" stop-color="#4B55BD"/>
</linearGradient>
<linearGradient id="paint12_linear_13345_314731" x1="70.2361" y1="8.32571" x2="1.7695" y2="8.32571" gradientUnits="userSpaceOnUse">
<stop stop-color="#4B55BD"/>
<stop offset="0.0262524" stop-color="#5766C5"/>
<stop offset="0.0900479" stop-color="#6F8AD7"/>
<stop offset="0.157372" stop-color="#83A8E6"/>
<stop offset="0.228261" stop-color="#93BFF1"/>
<stop offset="0.30427" stop-color="#9ECFF9"/>
<stop offset="0.388977" stop-color="#A5D9FE"/>
<stop offset="0.500075" stop-color="#A7DCFF"/>
<stop offset="0.617548" stop-color="#A5D9FE"/>
<stop offset="0.702023" stop-color="#9FD0F9"/>
<stop offset="0.776143" stop-color="#94C0F1"/>
<stop offset="0.844316" stop-color="#85AAE6"/>
<stop offset="0.908417" stop-color="#718DD8"/>
<stop offset="0.968688" stop-color="#5A6AC7"/>
<stop offset="1" stop-color="#4B55BD"/>
</linearGradient>
<linearGradient id="paint13_linear_13345_314731" x1="47.0126" y1="29.5735" x2="27.4945" y2="29.5735" gradientUnits="userSpaceOnUse">
<stop stop-color="#2F5DFF"/>
<stop offset="0.0271961" stop-color="#3160FF"/>
<stop offset="0.460664" stop-color="#468BFF"/>
<stop offset="0.799486" stop-color="#54A5FF"/>
<stop offset="1" stop-color="#59AFFF"/>
</linearGradient>
<linearGradient id="paint14_linear_13345_314731" x1="2.88261" y1="5.94635" x2="69.1288" y2="5.94635" gradientUnits="userSpaceOnUse">
<stop stop-color="#4B55BD"/>
<stop offset="0.0262788" stop-color="#5266C5"/>
<stop offset="0.0901385" stop-color="#618AD7"/>
<stop offset="0.15753" stop-color="#6DA8E6"/>
<stop offset="0.228491" stop-color="#77BFF1"/>
<stop offset="0.304576" stop-color="#7ECFF9"/>
<stop offset="0.389369" stop-color="#82D9FE"/>
<stop offset="0.500578" stop-color="#83DCFF"/>
<stop offset="0.617933" stop-color="#82D9FE"/>
<stop offset="0.702323" stop-color="#7ED0F9"/>
<stop offset="0.776369" stop-color="#77C0F1"/>
<stop offset="0.844472" stop-color="#6EAAE6"/>
<stop offset="0.908509" stop-color="#628DD8"/>
<stop offset="0.96872" stop-color="#546AC7"/>
<stop offset="1" stop-color="#4B55BD"/>
</linearGradient>
</defs>
</svg>
