<svg width="73" height="29" viewBox="0 0 73 29" fill="none" xmlns="http://www.w3.org/2000/svg">
<path d="M22.059 5.71978C23.092 3.95769 24.7982 2.67806 26.6659 1.93842C28.5335 1.19878 30.5599 0.966252 32.5613 0.974323C35.5885 0.986536 38.7647 1.60905 41.0772 3.61697C42.4625 4.81973 43.4526 6.45483 44.0896 8.19989C44.7266 9.94495 45.026 11.8026 45.1842 13.6594C45.193 13.763 45.1995 13.8753 45.1446 13.9627C45.0945 14.0425 45.0043 14.0837 44.9189 14.1198C42.2582 15.2468 39.3626 15.6695 36.4885 15.8192C33.8201 15.9582 31.146 15.8703 28.4756 15.7825C26.7199 15.7247 24.964 15.6669 23.21 15.5684C22.3001 15.5172 21.3689 15.4499 20.5352 15.0718C21.028 11.9211 20.3737 8.59462 22.059 5.71978Z" fill="#87CDFF"/>
<path d="M13.7101 16.8483C10.0207 17.5377 6.23363 17.2022 2.49179 16.9508C1.71389 16.8985 0.810436 16.9024 0.313999 17.5202C-0.189634 18.147 -0.00498392 19.0953 0.350603 19.8214C1.37589 21.9151 3.47813 23.2089 5.57519 24.1297C9.13792 25.694 13.0092 26.5115 16.8834 26.5175C19.8806 26.5221 22.8784 26.0477 25.8664 26.29C29.756 26.6053 33.4614 28.1199 37.3213 28.7043C41.5455 29.3439 45.9285 28.8398 49.9106 27.2563C53.4422 25.852 56.6116 23.6404 60.0345 21.9759C63.4574 20.3114 67.3573 19.1922 71.0225 20.17C71.2636 20.2343 71.5322 20.3046 71.7507 20.1815C72.3251 19.8577 71.7552 18.9753 71.1866 18.641C66.3814 15.8164 60.8059 14.7604 55.3295 13.9318C49.0952 12.9886 42.827 12.2821 36.542 11.8134C33.3559 11.5758 30.1654 11.3996 26.9729 11.2845C24.4662 11.1942 23.3745 11.2531 21.5445 12.9654C19.3336 15.034 16.6469 16.2996 13.7101 16.8483Z" fill="#87CDFF"/>
<g style="mix-blend-mode:multiply" opacity="0.8">
<path d="M37.4653 8.39323C36.82 11.0733 34.9075 13.2536 32.7754 14.9329C42.6087 14.8439 52.4919 14.7584 62.2143 16.2747C63.1877 16.4265 64.1734 16.599 65.0626 17.0333C65.9519 17.4676 66.7464 18.2024 67.0487 19.1655C67.1215 19.3974 66.9781 19.8606 67.2144 19.8404C67.4555 19.8197 68.0764 19.818 68.2055 19.8404C68.884 19.8404 69.3726 19.8795 70.2519 20.0316C71.0018 20.1613 71.8015 20.5972 71.9918 19.8404C72.1396 19.2522 70.985 18.3893 70.3066 18.1306C67.7719 16.8902 66.2503 16.1823 63.2391 15.4414C56.5487 13.7953 51.0266 13.2637 45.1148 12.5866C44.8457 9.59534 43.7691 6.67815 41.8468 4.32144C39.7763 2.21184 37.1457 1.10772 34.4883 1.07104C35.6399 1.80974 36.5256 2.5258 37.1039 3.88455C37.7 5.28533 37.8223 6.91086 37.4653 8.39323Z" fill="#87CDFF"/>
</g>
<g style="mix-blend-mode:screen">
<path d="M25.1294 3.98499C26.2469 3.7956 27.3536 3.55639 28.4772 3.40178C29.6674 3.23797 30.869 3.1389 32.0668 3.05459C33.195 2.97517 34.3236 2.92774 35.4545 2.93995C36.0201 2.94606 36.5855 2.95236 37.1508 2.97064C37.4335 2.9798 37.7162 2.98946 37.9988 3.00147C38.153 3.00802 38.3071 3.01526 38.4613 3.02312C38.688 3.03469 38.7402 3.09794 38.8618 2.85691C38.9247 2.81983 38.9876 2.78276 39.0505 2.74568C39.0348 2.7467 39.0192 2.74771 39.0035 2.74873C38.8086 2.76138 38.7154 3.03192 38.9003 3.1407C39.0834 3.24846 39.2908 3.15136 39.3276 2.93442C39.348 2.81444 39.3115 2.71944 39.2149 2.64977C39.0371 2.5215 38.8264 2.54762 38.6154 2.54305C38.3071 2.53636 37.9988 2.5322 37.6905 2.53089C37.0737 2.52827 36.4563 2.53963 35.84 2.56347C34.6331 2.61016 33.4231 2.69449 32.2205 2.80835C31.0616 2.91806 29.9085 3.07842 28.7608 3.2758C27.5483 3.48432 26.3195 3.66372 25.1278 3.97874C25.1238 3.97981 25.1255 3.98564 25.1294 3.98499Z" fill="#87CDFF"/>
</g>
<path d="M25.263 4.7591C25.2653 4.7591 25.2653 4.75549 25.263 4.75549C25.2607 4.75549 25.2607 4.7591 25.263 4.7591Z" fill="#FCC230"/>
<g style="mix-blend-mode:screen">
<path d="M25.2395 4.70456C27.7057 4.30631 30.1849 4.06568 32.6806 3.99676C35.1356 3.92897 37.5891 4.04742 40.0429 4.09876C40.3124 4.1044 40.3126 3.67283 40.0429 3.66836C37.5385 3.62688 35.0299 3.65421 32.5275 3.7664C30.0798 3.87614 27.6203 4.09566 25.2303 4.67023C25.2082 4.67555 25.218 4.70803 25.2395 4.70456Z" fill="#87CDFF"/>
</g>
<g style="mix-blend-mode:screen">
<path d="M23.8756 5.92381C26.4561 6.34693 29.1521 6.30502 31.7545 6.16631C34.4012 6.02525 37.0263 5.63934 39.6129 5.04924C39.9582 4.97048 39.8124 4.41927 39.4664 4.50317C36.9064 5.12406 34.299 5.54553 31.6782 5.7751C29.0725 6.00335 26.4928 5.899 23.884 5.86025C23.8495 5.85973 23.8398 5.91794 23.8756 5.92381Z" fill="#87CDFF"/>
</g>
<path d="M26.5223 7.72342C26.5526 7.72342 26.5527 7.67627 26.5223 7.67627C26.4919 7.67627 26.4919 7.72342 26.5223 7.72342Z" fill="#FCC230"/>
<g style="mix-blend-mode:screen">
<path d="M26.6299 7.81908C31.5003 7.8402 36.3728 7.81215 41.243 7.75948C41.5489 7.75616 41.5492 7.26324 41.243 7.27084C36.3717 7.39165 31.4989 7.53717 26.6299 7.7317C26.5754 7.73388 26.5749 7.81884 26.6299 7.81908Z" fill="#87CDFF"/>
</g>
<g style="mix-blend-mode:screen">
<path d="M25.0267 10.8526C27.677 11.0724 30.2983 10.1661 32.857 9.59396C34.2254 9.28798 35.606 9.06036 37.0083 9.02614C37.7381 9.00832 38.4683 9.03107 39.197 9.07391C39.5359 9.09382 39.8747 9.11772 40.2133 9.14293C40.5955 9.17139 41.004 9.25175 41.3843 9.20077C41.6458 9.16574 41.7377 8.78997 41.4501 8.70179C40.8092 8.50531 40.019 8.54601 39.3534 8.51152C38.6245 8.47375 37.8942 8.45432 37.1645 8.47459C35.7843 8.51295 34.4278 8.7295 33.0831 9.04337C30.3937 9.67113 27.779 10.4913 25.0267 10.8008C24.9947 10.8044 24.994 10.8499 25.0267 10.8526Z" fill="#87CDFF"/>
</g>
<g style="mix-blend-mode:screen">
<path d="M26.3967 12.9379C28.8949 12.9858 31.4215 12.764 33.9053 12.5038C35.0327 12.3857 36.1588 12.2292 37.266 11.9774C37.8169 11.8521 38.3631 11.7036 38.8996 11.5233C39.1673 11.4333 39.4329 11.3362 39.6944 11.2287C39.9902 11.107 40.2155 10.9369 40.4818 10.7586C40.6309 10.6589 40.5402 10.39 40.3557 10.4511C40.0855 10.5406 39.8167 10.593 39.5535 10.7033C39.2923 10.8128 39.0286 10.9158 38.762 11.0105C38.2286 11.1999 37.6849 11.3583 37.1358 11.4921C35.9798 11.7738 34.8017 11.9475 33.6221 12.0849C31.2137 12.3653 28.787 12.5105 26.3883 12.8743C26.3523 12.8798 26.3624 12.9372 26.3967 12.9379Z" fill="#87CDFF"/>
</g>
<g style="mix-blend-mode:screen">
<path d="M4.09916 20.4214C7.25171 22.9969 11.344 23.5671 15.2561 23.6234C17.6581 23.6579 20.0608 23.5267 22.4623 23.6233C24.7565 23.7155 27.0094 24.1019 29.2498 24.6019C33.5038 25.5511 37.8183 26.8232 42.2161 26.47C46.4875 26.127 50.3765 24.1564 54.199 22.3231C58.662 20.1826 63.62 18.0507 68.6335 19.1961C68.9317 19.2642 69.0589 18.7922 68.7599 18.7249C64.4879 17.7634 60.161 19.1323 56.2591 20.8761C52.3439 22.6259 48.5685 24.8576 44.3421 25.7354C39.9016 26.6575 35.4841 25.5969 31.1484 24.6149C29.0352 24.1363 26.9145 23.6656 24.7603 23.4282C22.4354 23.172 20.0967 23.2436 17.7637 23.2935C13.1241 23.3928 8.03943 23.3178 4.11061 20.4061C4.102 20.3997 4.09075 20.4145 4.09916 20.4214Z" fill="#87CDFF"/>
</g>
<g style="mix-blend-mode:screen">
<path d="M23.8087 21.8028C25.1248 21.2367 26.7273 21.9561 28.0275 22.2857C29.4737 22.6522 30.9245 23.0011 32.3869 23.2926C35.1933 23.8519 38.0516 24.1902 40.9135 24.051C43.6857 23.9162 46.3764 23.2998 48.9125 22.1349C51.5061 20.9437 53.9345 19.4138 56.6314 18.4607C59.69 17.3798 62.9138 16.8226 66.1483 16.8419C66.4441 16.8436 66.4445 16.3646 66.1483 16.3694C63.2971 16.4156 60.4506 16.8606 57.7293 17.7424C55.0382 18.6145 52.5956 19.979 50.0776 21.2586C47.4435 22.5971 44.7232 23.4718 41.7855 23.7209C38.8153 23.9728 35.8305 23.6723 32.9024 23.1505C31.2565 22.8571 29.6236 22.4907 27.9966 22.103C26.6887 21.7913 25.1069 21.1618 23.8038 21.7909C23.7975 21.794 23.8021 21.8056 23.8087 21.8028Z" fill="#87CDFF"/>
</g>
<g style="mix-blend-mode:screen">
<path d="M33.9907 21.8461C35.5765 22.5564 37.2621 22.726 38.9781 22.6717C40.7437 22.6158 42.5332 22.3981 44.2651 22.0409C46.0236 21.6782 47.6805 21.0474 49.2557 20.1686C50.791 19.3122 52.2315 18.2921 53.7129 17.3438C55.3763 16.279 57.1994 15.2559 59.219 15.3409C59.5346 15.3542 59.5352 14.8456 59.219 14.8361C57.5465 14.7858 55.9961 15.464 54.5775 16.3166C53.0957 17.2072 51.7091 18.2563 50.2515 19.187C48.7368 20.1541 47.1561 20.981 45.4311 21.4711C43.6621 21.9736 41.8122 22.2233 39.9854 22.3721C37.9847 22.535 35.9273 22.4571 34.0065 21.8077C33.9849 21.8003 33.9693 21.8365 33.9907 21.8461Z" fill="#87CDFF"/>
</g>
<g style="mix-blend-mode:screen">
<path d="M21.2219 19.3901C25.8344 18.417 30.4712 19.5411 35.0348 20.2527C37.225 20.5942 39.4208 20.8618 41.618 20.4342C43.6571 20.0373 45.6613 19.3257 47.5596 18.4714C49.7234 17.4977 51.7736 16.258 53.6708 14.813C53.9553 14.5962 53.6555 14.1872 53.3713 14.414C50.0544 17.0611 46.1355 19.0391 42.0357 20.0048C39.761 20.5406 37.5081 20.3322 35.2179 20.0206C32.9686 19.7145 30.7344 19.2901 28.4769 19.0483C26.0478 18.7881 23.5972 18.7556 21.2093 19.3433C21.1796 19.3506 21.1923 19.3963 21.2219 19.3901Z" fill="#87CDFF"/>
</g>
<g style="mix-blend-mode:screen">
<path d="M34.8006 18.418C37.3092 18.4212 39.817 18.0022 42.2409 17.3526C43.4619 17.0253 44.6666 16.6332 45.8471 16.1749C46.3989 15.9606 46.9452 15.7316 47.4862 15.49C48.0494 15.2383 48.7087 15.0077 49.1947 14.6184C49.3606 14.4856 49.1792 14.2158 48.9972 14.2696C48.4449 14.4327 47.9172 14.7917 47.3952 15.0407C46.8067 15.3214 46.2104 15.5848 45.6071 15.8302C44.477 16.29 43.3241 16.6904 42.1534 17.0265C39.7464 17.7174 37.2826 18.1021 34.8006 18.3694C34.771 18.3726 34.7695 18.4179 34.8006 18.418Z" fill="#87CDFF"/>
</g>
<g style="mix-blend-mode:screen">
<path d="M35.0738 16.8925C36.5833 16.7206 38.0568 16.4036 39.5014 15.9205C40.1999 15.687 40.8843 15.4109 41.558 15.1104C42.2151 14.8174 43.022 14.5287 43.5597 14.0315C43.6828 13.9177 43.5528 13.7105 43.4019 13.753C42.7167 13.9457 42.0619 14.4099 41.4137 14.7115C40.7326 15.0284 40.0367 15.3106 39.3337 15.572C37.9442 16.0886 36.5099 16.5067 35.0642 16.8194C35.0249 16.8279 35.0329 16.8972 35.0738 16.8925Z" fill="#87CDFF"/>
</g>
<g style="mix-blend-mode:screen">
<path d="M33.747 16.5855C34.0039 16.5855 34.0043 16.1746 33.747 16.1746C33.4901 16.1746 33.4897 16.5855 33.747 16.5855Z" fill="#87CDFF"/>
</g>
<g style="mix-blend-mode:screen">
<path d="M33.7561 16.4065C34.2249 16.0848 34.7997 15.9828 35.3365 15.8349C35.8791 15.6853 36.4128 15.5064 36.9403 15.3077C37.4384 15.1202 37.9307 14.9159 38.4179 14.7003C38.9093 14.4829 39.4698 14.2721 39.8852 13.9205C40.0187 13.8075 39.8735 13.5971 39.7244 13.6366C39.2012 13.775 38.6987 14.0996 38.2081 14.3314C37.6681 14.5866 37.1208 14.8244 36.5676 15.0476C35.6239 15.4285 34.5245 15.682 33.7053 16.3171C33.6548 16.3562 33.701 16.4443 33.7561 16.4065Z" fill="#87CDFF"/>
</g>
<path d="M20.207 14.0364C25.8636 15.7934 32.0218 15.804 37.684 14.0665C39.0901 13.635 40.4643 13.0993 41.8696 12.6652C43.0902 12.2882 43.7456 12.1295 45.0019 11.909C45.0191 10.7777 44.6124 9.65628 44.2413 8.59106C43.6659 9.19538 43.6829 9.36208 42.9042 9.6348C38.813 11.0677 34.5841 12.4666 30.2626 12.5497C25.0208 12.6504 21.8311 12.1993 20.6422 10.725C20.4579 11.004 20.5462 11.6511 20.5182 11.989C20.461 12.6778 20.3571 13.3625 20.207 14.0364Z" fill="#E54255"/>
<path d="M20.9989 16.6811C19.8335 17.8321 18.2181 18.3263 16.722 18.9545C15.2259 19.5827 13.6848 20.5022 13.0986 22.0503C14.2849 21.1114 15.6963 20.4752 17.1719 20.2143C16.6312 21.1143 16.3952 22.2036 16.5133 23.2544C16.9995 22.3948 17.5215 21.4974 18.3577 20.9976C18.6954 20.7957 19.0695 20.6688 19.436 20.5296C20.2856 20.207 21.1089 19.8111 21.8943 19.3474C22.356 19.0748 22.8074 18.7766 23.1973 18.4039C23.8505 17.7794 24.3075 16.9681 24.6753 16.1328C24.9433 15.5242 25.1719 14.8359 24.9738 14.1997C24.809 13.6707 24.3384 13.2559 23.8046 13.1693C23.4318 13.1089 23.0379 13.2103 22.7297 13.432C22.3195 13.7271 22.4111 13.8934 22.3591 14.3156C22.2532 15.1742 21.585 16.1022 20.9989 16.6811Z" fill="#E54255"/>
<path d="M24.5242 16.6183C24.7087 17.066 24.989 17.4656 25.1862 17.9075C25.5713 18.7708 25.6203 19.7522 25.5714 20.7006C25.4996 22.0927 25.2296 23.4739 24.7726 24.7865C25.4345 23.6688 26.0495 22.5217 26.6154 21.3495C27.0635 22.3532 27.3011 23.4556 27.3073 24.5599C28.2508 22.4894 28.2535 19.9897 27.3145 17.917C27.0357 17.3017 26.6732 16.7033 26.6033 16.0284C26.5223 15.2449 26.8271 14.3584 26.3799 13.7186C25.9554 13.1114 24.7929 13.0998 24.3555 13.7211C23.8978 14.3711 24.2493 15.9509 24.5242 16.6183Z" fill="#E54255"/>
</svg>
