<svg width="80" height="34" viewBox="0 0 80 34" fill="none" xmlns="http://www.w3.org/2000/svg">
<path d="M6.08692 25.7036C5.93556 23.9047 11.1678 19.8566 14.669 14.0658C16.4467 11.1255 16.6139 7.27028 19.4347 6.57676C22.2555 5.88329 38.9881 6.67366 43.2903 6.09395C47.5924 5.51419 52.1865 5.53952 52.3991 6.92108C52.536 7.80989 55.419 13.6739 59.0566 17.4577C61.1592 19.6448 61.4337 23.4519 61.1101 24.365C60.6542 25.6518 35.7341 27.288 29.0952 27.9851C22.4563 28.6822 5.78976 26.5208 6.08692 25.7036Z" fill="#ED9E4F"/>
<path d="M63.2689 24.92L10.9456 25.1144L4.31742 31.7841L4.14342 32.231L62.604 32.2042C62.604 32.2042 65.3549 30.6751 65.6465 29.9535C66.8075 27.0812 63.2689 24.92 63.2689 24.92Z" fill="#C96A3F"/>
<path d="M58.6265 26.2055C58.6265 26.2055 64.0985 26.493 64.6716 25.4206C65.2447 24.3481 66.219 22.9342 62.2317 22.9865C58.964 23.0293 12.055 23.2746 11.6246 23.3724C11.1941 23.4702 8.76306 23.375 7.76877 24.8376C6.77442 26.3002 6.11449 28.0549 8.30386 28.7351C10.4932 29.4153 56.7819 29.5949 58.807 29.8598C59.9172 30.0049 59.9001 30.8333 58.8238 31.0779C56.7106 31.5581 9.78963 30.7033 6.81231 30.929C4.32078 31.118 3.14994 33.0275 5.89063 33.3174C8.6313 33.6073 58.9564 33.4588 61.7609 32.7807C64.7944 32.0471 66.7243 28.6346 63.9294 28.0037C61.1995 27.3874 13.1599 26.733 11.926 26.7341C10.7554 26.7352 9.84649 26.1026 12.3086 25.808C14.7706 25.5135 58.6265 26.2055 58.6265 26.2055Z" fill="#E87C46"/>
<path d="M10.9318 11.6899C11.449 10.4208 13.7148 8.68874 16.1678 6.14923C18.6208 3.60966 17.8119 1.41912 20.4594 1.18603C23.1068 0.952988 32.0461 1.98288 39.2322 1.39977C46.4182 0.816603 57.7644 -0.231678 58.2879 1.26718C58.8115 2.76603 57.4918 4.61257 57.8264 6.22692C58.1611 7.84127 59.3941 9.33948 58.3564 10.4938C57.3187 11.648 25.1676 12.9457 19.5404 12.8355C13.9132 12.7252 10.5059 12.4439 10.9318 11.6899Z" fill="#EFEDAC"/>
<path d="M60.4003 11.0823L15.2689 11.1218L9.76164 16.6116L9.61846 16.9793L58.5033 16.9567L61.0356 15.1041L60.4003 11.0823Z" fill="#BCBB79"/>
<path d="M55.1244 12.0207C55.1244 12.0207 59.6999 12.2573 60.1733 11.3748C60.6468 10.4923 61.4536 9.32884 58.1212 9.37185C55.3899 9.40712 16.1812 9.60946 15.8219 9.68998C15.4626 9.77051 13.4301 9.6921 12.6066 10.8956C11.7831 12.0992 11.2407 13.5431 13.0742 14.1028C14.9079 14.6625 53.6003 14.8098 55.2945 15.0277C56.2232 15.1471 56.2132 15.8288 55.3149 16.03C53.551 16.4252 14.3265 15.7223 11.839 15.9082C9.75742 16.0636 8.78868 17.6349 11.0811 17.8734C13.3734 18.112 55.4382 17.9892 57.7789 17.4311C60.3106 16.8275 61.9059 14.0195 59.5666 13.5003C57.2814 12.9932 17.1228 12.4553 16.0914 12.4562C15.113 12.4571 14.35 11.9366 16.4064 11.6942C18.4628 11.4518 55.1244 12.0207 55.1244 12.0207Z" fill="#DBD4A9"/>
<path opacity="0.2" d="M56.2391 21.6604C55.6616 21.3683 50.2256 21.1229 49.3765 21.1236C47.5823 21.1252 45.9782 21.0471 44.2922 20.8785C37.9364 20.2429 31.7867 20.0874 24.6957 20.5507C22.845 20.6717 21.474 20.0152 19.6017 20.2232C15.651 20.6621 14.2195 20.9126 13.597 20.6638C12.7896 20.3412 14.8313 19.0003 13.9561 18.6476C13.5376 18.4789 11.8069 19.1663 11.8069 19.1663C10.7083 19.7365 6.31173 23.3033 7.73149 22.9951C8.92691 22.7356 14.0119 22.7215 15.6371 22.5746C25.2048 21.7098 35.0499 22.4741 44.2738 22.5238C46.3556 22.535 49.1533 22.6582 51.299 22.287C52.3028 22.1133 57.1362 22.1143 56.2391 21.6604Z" fill="#FFFB64"/>
<g opacity="0.3">
<path d="M15.7551 6.80618C15.7848 6.79878 15.8139 6.79414 15.8431 6.78917C15.8594 6.77695 15.8758 6.76473 15.8911 6.75276L15.7551 6.80618Z" fill="white"/>
<path d="M37.7703 8.05458C35.9235 7.97428 33.6102 8.32075 31.9486 8.05476C30.7361 7.86073 29.8498 7.30558 28.6003 7.12263C25.8062 6.71365 21.3907 8.15041 19.0988 7.29209C18.5176 7.07447 17.8919 6.63692 17.1458 6.74368C16.315 7.27479 14.3583 7.99986 13.9773 8.68857C13.5847 9.39846 16.0951 8.78671 16.7267 8.69926C18.5012 8.45349 20.1151 8.44044 21.7846 8.37619C23.7032 8.30237 25.5521 8.15425 27.2816 8.32114C30.3424 8.61636 33.0143 9.25768 36.5747 8.98236C37.0682 8.9442 40.1925 9.14044 40.4871 8.78535C41.1169 8.02648 38.2152 8.07392 37.7703 8.05458Z" fill="white"/>
</g>
<path opacity="0.6" d="M47.5091 0.817242C47.5091 0.817242 47.9768 2.04215 47.9152 3.52296C47.705 8.56958 47.9281 9.77771 47.6006 10.6717C47.2035 11.7554 46.7177 11.8981 46.7177 11.8981L49.0814 11.9975C49.0814 11.9975 49.5713 11.5691 50.1813 9.92826C50.4566 9.18757 49.9961 8.83072 49.9838 6.60963C49.9757 5.12658 50.0702 0.609996 50.0702 0.609996C50.0702 0.609996 49.3136 0.713034 48.6849 0.713771C48.0636 0.714499 47.5091 0.817242 47.5091 0.817242Z" fill="#7DAFFF"/>
<path opacity="0.6" d="M44.0087 1.08137C44.0087 1.08137 43.9228 2.76609 44.0371 4.50159C44.1498 6.21505 44.5318 8.55931 44.2965 9.42743C44.0613 10.2956 43.822 10.7042 43.4849 11.2151C43.1478 11.726 42.9553 11.8539 42.9553 11.8539L43.8132 11.8784C43.8132 11.8784 43.9977 11.776 44.4658 10.8565C44.9339 9.93708 45.1598 9.50291 45.1095 8.17567C45.0405 6.36165 44.7576 5.29192 44.6345 3.78617C44.5177 2.3559 44.8211 0.978254 44.8211 0.978254L44.0087 1.08137Z" fill="#7DAFFF"/>
</svg>
