<svg width="62" height="64" fill="none" xmlns="http://www.w3.org/2000/svg"><path fill-rule="evenodd" clip-rule="evenodd" d="M27.262.852C10.762 2.278-1.388 17.547.128 34.955c1.514 17.408 16.118 30.364 32.619 28.938 16.5-1.426 28.649-16.695 27.134-34.103C58.367 12.382 43.763-.574 27.262.852Z" fill="#5B3636"/><path fill-rule="evenodd" clip-rule="evenodd" d="M29.253.107C12.753 1.533.604 16.802 2.12 34.21c1.514 17.408 16.119 30.364 32.62 28.938 16.5-1.427 28.648-16.695 27.134-34.103C60.358 11.637 45.754-1.319 29.253.107Z" fill="url(#a)"/><path fill-rule="evenodd" clip-rule="evenodd" d="M34.052 7.876c-.544.047-1.082.117-1.612.21 10.948-.004 20.402 9.53 21.493 22.068 1.09 12.538-6.575 23.552-17.361 25.427.538 0 1.08-.024 1.625-.07 11.623-1.005 20.119-12.483 18.974-25.637C56.027 16.72 45.676 6.871 34.052 7.876Z" fill="#000"/><path fill-rule="evenodd" clip-rule="evenodd" d="M32.599 7.88C20.975 8.885 12.48 20.362 13.624 33.516 14.77 46.67 25.12 56.52 36.743 55.514c11.624-1.005 20.119-12.482 18.974-25.636C54.574 16.724 44.223 6.875 32.6 7.88Z" fill="url(#b)"/><path d="m35.953 31.09 2.06-14.467-.95-.415 2.34-4.137 1.06 4.689-.92.153-1.949 14.098-1.64.08Z" fill="#000"/><path fill-rule="evenodd" clip-rule="evenodd" d="M33.866 9.61c-.467.04-.795.664-.731 1.392.063.728.493 1.285.96 1.245.468-.04.795-.663.732-1.391-.063-.728-.493-1.286-.96-1.245ZM37.434 50.622c-.467.04-.795.663-.731 1.392.063.728.493 1.285.96 1.245.468-.04.795-.664.732-1.392-.063-.728-.494-1.285-.961-1.245ZM17.12 30.183c-.467.04-.794.664-.73 1.392.062.728.493 1.285.96 1.245.467-.04.795-.664.731-1.392-.063-.728-.493-1.285-.96-1.245ZM53.038 28.85c-.468.04-.796.663-.732 1.39.063.73.494 1.286.96 1.246.468-.04.796-.663.732-1.391-.063-.729-.493-1.286-.96-1.245ZM49.771 20.277c-.468.04-.795.663-.731 1.392.063.728.493 1.285.96 1.245.468-.04.795-.663.732-1.392-.063-.728-.494-1.285-.96-1.245ZM44.46 13.771c-.468.04-.795.664-.731 1.392.063.728.493 1.285.96 1.245.468-.04.795-.663.732-1.391-.063-.729-.494-1.286-.96-1.246ZM24.555 13.367c-.468.04-.796.663-.732 1.391.063.728.494 1.286.96 1.245.468-.04.796-.663.732-1.391-.063-.728-.493-1.286-.96-1.245ZM19.614 21.35c-.468.04-.795.662-.732 1.39.064.729.494 1.286.961 1.245.467-.04.795-.663.732-1.39-.063-.729-.494-1.286-.961-1.246ZM19.702 39.404c-.467.041-.795.664-.731 1.392.063.728.493 1.285.96 1.245.468-.04.796-.663.732-1.391-.063-.728-.493-1.286-.96-1.245ZM26.933 47.516c-.468.04-.795.663-.732 1.391.063.728.494 1.286.96 1.246.468-.04.796-.664.732-1.392-.063-.728-.493-1.285-.96-1.245ZM45.72 45.301c-.467.041-.794.664-.731 1.392.063.728.493 1.285.96 1.245.468-.04.796-.663.732-1.391-.063-.728-.494-1.286-.96-1.245ZM51.006 37.88c-.467.04-.795.663-.732 1.391.064.728.494 1.285.962 1.245.467-.04.794-.663.73-1.391-.063-.728-.493-1.286-.96-1.245Z" fill="#000"/><path d="m37.265 30.856 5.15 7.469.98-.337 1.157 4.653-3.968-2.732.572-.733-5.044-7.153 1.153-1.167Z" fill="#000"/><path fill-rule="evenodd" clip-rule="evenodd" d="M36.635 29.087c-.976.084-1.68 1.15-1.573 2.379.107 1.23.985 2.157 1.96 2.073.976-.084 1.68-1.15 1.573-2.379-.107-1.23-.984-2.158-1.96-2.073Z" fill="#DA2320"/><path fill-rule="evenodd" clip-rule="evenodd" d="M56.423 16.416c-2.557-.536-.223 4.223.38 6.224.827 2.741 1.767 6.479 1.906 9.271.072 1.462 1.632 3.205 2.316 1.196 1.192-3.502-1.294-12.045-3.05-15.213-.44-.793-.947-1.352-1.552-1.478Z" fill="#fff"/><defs><linearGradient id="a" x1="68.968" y1="15.924" x2="-20.202" y2="54.047" gradientUnits="userSpaceOnUse"><stop stop-color="#5B3636"/><stop offset="1" stop-color="#DF6618"/></linearGradient><linearGradient id="b" x1="25.094" y1="22.924" x2="41.476" y2="38.031" gradientUnits="userSpaceOnUse"><stop stop-color="#EDEDED"/><stop offset="1" stop-color="#F1CC98"/></linearGradient></defs></svg>