<svg width="64" height="60" viewBox="0 0 64 60" fill="none" xmlns="http://www.w3.org/2000/svg">
<path d="M17.6014 52.3446C11.5079 49.5757 6.16989 45.1498 3.22681 39.9927C-1.5511 31.6206 -0.925913 20.8197 4.45812 12.8577C10.5422 3.86046 22.512 -1.08535 33.7059 0.201833C46.4911 1.67203 55.2875 10.9584 57.0156 22.6962C58.894 35.4566 52.5252 49.7625 38.8563 54.142C31.7384 56.4225 24.2613 55.3711 17.6014 52.3446Z" fill="#3D8E8F"/>
<g style="mix-blend-mode:multiply">
<path d="M24.2644 56.9712C18.171 54.2021 12.8332 49.7763 9.88987 44.6192C5.11195 36.2472 5.73721 25.4461 11.1212 17.4842C17.2053 8.48689 29.1751 3.5412 40.369 4.82827C53.1543 6.29846 61.9506 15.5848 63.6786 27.3228C65.5571 40.0831 59.1883 54.3889 45.5193 58.7685C38.4015 61.049 30.9244 59.9976 24.2644 56.9712Z" fill="#C7EBD3"/>
</g>
<path d="M18.9183 49.4127C13.5495 46.9729 8.8464 43.0735 6.25327 38.5296C2.04348 31.1532 2.59438 21.6367 7.33809 14.6216C12.6987 6.69424 23.2451 2.33663 33.1076 3.47083C44.3725 4.76613 52.1227 12.9481 53.6453 23.2901C55.3004 34.533 49.6889 47.1376 37.6455 50.9963C31.3741 53.0056 24.7862 52.0793 18.9183 49.4127Z" fill="#FEF1E0"/>
<path d="M29.2117 15.1812C28.9603 11.91 28.7088 8.63885 28.4574 5.36768C29.4881 5.65025 30.7816 5.54767 31.8383 5.38785C31.4548 8.48829 30.9846 12.0449 31.0165 15.1688C30.6336 15.071 29.5946 15.279 29.2117 15.1812ZM31.2294 44.0134C30.8261 43.8625 30.283 44.0146 29.8797 43.8636C29.6788 46.0277 29.478 48.1918 29.2772 50.3557C29.8323 50.4026 30.5211 50.3317 31.0761 50.3784C31.1057 48.3148 31.1999 46.077 31.2294 44.0134ZM5.36686 26.3503C5.28173 27.2073 5.13975 27.6862 5.05469 28.5433C6.97127 28.5762 8.88792 28.6091 10.8046 28.6421C10.855 28.0885 10.7546 27.5069 10.8051 26.9534C9.14085 26.7022 7.03114 26.6014 5.36686 26.3503ZM51.1443 28.4133C51.1538 27.552 51.2533 27.0626 51.263 26.2013C49.3507 26.3359 47.4386 26.4704 45.5264 26.6051C45.5246 27.161 45.6757 27.7316 45.674 28.2874C47.3539 28.3922 49.4644 28.3084 51.1443 28.4133Z" fill="#3D8E8F"/>
<path d="M28.8874 28.2528C28.7633 27.2402 29.8959 25.5611 30.3005 24.7408C30.9316 23.461 31.6758 22.2376 32.5194 21.0882C33.3629 19.9388 34.3061 18.863 35.3359 17.8789C35.7426 17.4903 38.4879 15.7078 38.5089 15.3274C38.222 20.5253 35.6332 25.3273 31.7695 28.7197C31.3243 29.1105 30.7755 29.4476 30.1856 29.4131C29.6297 29.3804 29.1122 28.9846 28.9325 28.4547C28.9108 28.3911 28.896 28.3235 28.8874 28.2528Z" fill="#3D8E8F"/>
<path d="M40.7079 41.2592C35.1735 38.7606 30.7013 33.9767 28.5635 28.2684C29.3728 26.8299 30.6198 25.9028 32.0524 25.0923C35.118 29.6834 38.681 36.1186 40.7079 41.2592Z" fill="#3D8E8F"/>
</svg>
