<svg width="59" height="56" viewBox="0 0 59 56" fill="none" xmlns="http://www.w3.org/2000/svg">
<path d="M2.53212 23.7875C2.32376 39.5192 5.79106 50.2996 21.2061 52.175L21.5914 49.9378C8.48025 48.547 4.93989 38.9115 4.56268 22.9424L2.53212 23.7875Z" fill="url(#paint0_linear_13345_315834)"/>
<path d="M3.88035 27.7642C6.02341 27.7642 7.7607 26.0603 7.7607 23.9585C7.7607 21.8567 6.02341 20.1528 3.88035 20.1528C1.73729 20.1528 0 21.8567 0 23.9585C0 26.0603 1.73729 27.7642 3.88035 27.7642Z" fill="url(#paint1_linear_13345_315834)"/>
<path d="M48.2522 55.9999H20.857C19.9178 55.9999 19.1494 55.2463 19.1494 54.3252V41.122C19.1494 40.2009 19.9178 39.4473 20.857 39.4473H48.2522C49.1914 39.4473 49.9598 40.2009 49.9598 41.122V54.3252C49.9598 55.2463 49.1914 55.9999 48.2522 55.9999Z" fill="url(#paint2_linear_13345_315834)"/>
<path d="M34.6701 47.7241C48.1073 47.7241 59.0003 37.0407 59.0003 23.862C59.0003 10.6834 48.1073 0 34.6701 0C21.2329 0 10.3398 10.6834 10.3398 23.862C10.3398 37.0407 21.2329 47.7241 34.6701 47.7241Z" fill="url(#paint3_linear_13345_315834)"/>
<path d="M34.6719 45.3071C46.7337 45.3071 56.5117 35.7173 56.5117 23.8876C56.5117 12.0579 46.7337 2.46802 34.6719 2.46802C22.6101 2.46802 12.832 12.0579 12.832 23.8876C12.832 35.7173 22.6101 45.3071 34.6719 45.3071Z" fill="url(#paint4_linear_13345_315834)"/>
<path d="M34.5517 35.0352C40.7892 35.0352 45.8456 30.0761 45.8456 23.9587C45.8456 17.8412 40.7892 12.8821 34.5517 12.8821C28.3143 12.8821 23.2578 17.8412 23.2578 23.9587C23.2578 30.0761 28.3143 35.0352 34.5517 35.0352Z" fill="url(#paint5_linear_13345_315834)"/>
<path d="M34.5517 33.8303C40.1435 33.8303 44.6765 29.3845 44.6765 23.9003C44.6765 18.416 40.1435 13.9702 34.5517 13.9702C28.9598 13.9702 24.4268 18.416 24.4268 23.9003C24.4268 29.3845 28.9598 33.8303 34.5517 33.8303Z" fill="url(#paint6_linear_13345_315834)"/>
<path d="M34.6713 27.3373C36.6282 27.3373 38.2146 25.7814 38.2146 23.8621C38.2146 21.9429 36.6282 20.387 34.6713 20.387C32.7143 20.387 31.1279 21.9429 31.1279 23.8621C31.1279 25.7814 32.7143 27.3373 34.6713 27.3373Z" fill="url(#paint7_linear_13345_315834)"/>
<path d="M34.6716 26.1722C35.9731 26.1722 37.0282 25.1379 37.0282 23.862C37.0282 22.5861 35.9731 21.5518 34.6716 21.5518C33.37 21.5518 32.3149 22.5861 32.3149 23.862C32.3149 25.1379 33.37 26.1722 34.6716 26.1722Z" fill="url(#paint8_linear_13345_315834)"/>
<defs>
<linearGradient id="paint0_linear_13345_315834" x1="4.21281" y1="44.7618" x2="-20.5492" y2="67.5605" gradientUnits="userSpaceOnUse">
<stop stop-color="#FDF53F"/>
<stop offset="1" stop-color="#D93C65"/>
</linearGradient>
<linearGradient id="paint1_linear_13345_315834" x1="4.05621" y1="23.7404" x2="-8.02047" y2="39.3136" gradientUnits="userSpaceOnUse">
<stop stop-color="#FDF53F"/>
<stop offset="1" stop-color="#D93C65"/>
</linearGradient>
<linearGradient id="paint2_linear_13345_315834" x1="104.169" y1="48.0653" x2="-21.772" y2="47.4226" gradientUnits="userSpaceOnUse">
<stop stop-color="#FDF53F"/>
<stop offset="1" stop-color="#D93C65"/>
</linearGradient>
<linearGradient id="paint3_linear_13345_315834" x1="43.7175" y1="24.4426" x2="186.423" y2="33.9632" gradientUnits="userSpaceOnUse">
<stop stop-color="#FDF53F"/>
<stop offset="1" stop-color="#D93C65"/>
</linearGradient>
<linearGradient id="paint4_linear_13345_315834" x1="-30.3873" y1="19.7126" x2="97.7113" y2="28.2587" gradientUnits="userSpaceOnUse">
<stop stop-color="#FDF53F"/>
<stop offset="1" stop-color="#D93C65"/>
</linearGradient>
<linearGradient id="paint5_linear_13345_315834" x1="19.6617" y1="23.0031" x2="85.9046" y2="27.4225" gradientUnits="userSpaceOnUse">
<stop stop-color="#FDF53F"/>
<stop offset="1" stop-color="#D93C65"/>
</linearGradient>
<linearGradient id="paint6_linear_13345_315834" x1="27.7988" y1="23.4669" x2="87.185" y2="27.4289" gradientUnits="userSpaceOnUse">
<stop stop-color="#FDF53F"/>
<stop offset="1" stop-color="#D93C65"/>
</linearGradient>
<linearGradient id="paint7_linear_13345_315834" x1="27.1355" y1="23.3785" x2="47.9185" y2="24.7651" gradientUnits="userSpaceOnUse">
<stop stop-color="#53D8FF"/>
<stop offset="1" stop-color="#3840F7"/>
</linearGradient>
<linearGradient id="paint8_linear_13345_315834" x1="33.0998" y1="23.7612" x2="46.9222" y2="24.6837" gradientUnits="userSpaceOnUse">
<stop stop-color="#53D8FF"/>
<stop offset="1" stop-color="#3840F7"/>
</linearGradient>
</defs>
</svg>
