<svg width="47" height="56" viewBox="0 0 47 56" fill="none" xmlns="http://www.w3.org/2000/svg">
<path d="M42.3855 25.7822C42.3855 30.2119 40.9641 34.4408 38.5736 37.9639C37.745 39.2009 36.7888 40.3472 35.737 41.3834C32.1099 44.9713 27.3036 47.2897 22.0957 47.4905C21.8471 47.5034 21.5921 47.5099 21.3435 47.5099C17.4869 47.5099 13.8216 46.4866 10.6663 44.6863C10.252 44.4467 9.85032 44.1941 9.45512 43.935C8.70293 43.4363 7.97621 42.8859 7.30053 42.2965C3.01689 38.5921 0.275879 33.1909 0.275879 27.0385C0.275879 15.4719 8.69015 5.62158 21.3435 5.62158C22.0255 5.62158 22.6948 5.654 23.3578 5.71874C27.329 6.06843 31.0199 7.48025 34.0732 9.6822C34.4621 9.9542 34.8382 10.2456 35.2016 10.55C37.5537 12.4994 39.4533 14.9538 40.709 17.771C41.7863 20.1996 42.3855 22.8937 42.3855 25.7822Z" fill="url(#paint0_radial_13345_315845)"/>
<path d="M42.1487 0.880824L35.2006 10.5498C34.8372 10.2454 34.4611 9.95402 34.0723 9.68202L41.0331 0L42.1487 0.880824Z" fill="#93352B"/>
<path d="M4.36733 53.6815L31.7202 53.0209L32.5807 56H1.06543L1.93233 53.9017L9.45419 43.9348C9.84939 44.1938 10.251 44.4464 10.6653 44.686L4.36733 53.6815Z" fill="#93352B"/>
<path d="M8.88173 44.7808C13.9512 48.0351 20.1166 49.285 26.0335 48.8572C28.9536 48.6312 31.8202 47.7828 34.3807 46.3766C36.9428 44.9753 39.1882 43.0051 40.8821 40.6439C41.3077 40.0571 41.659 39.4231 42.0766 38.8299C42.4443 38.2057 42.7497 37.5415 43.1019 36.9007C43.3972 36.2322 43.6298 35.5326 43.8994 34.8476C44.1026 34.1394 44.2661 33.4166 44.4549 32.7007C45.049 29.7917 45.0625 26.7426 44.5817 23.7738C43.6138 17.8562 40.6987 12.1084 36.0282 8.34087L36.8669 7.22168C39.4237 9.14768 41.5271 11.6463 43.1359 14.4183C44.7453 17.1948 45.8755 20.2532 46.4877 23.4249C47.0967 26.5953 47.1875 29.8942 46.6284 33.1217C46.0425 36.3245 44.915 39.5366 42.9172 42.2044C38.9083 47.4794 32.568 50.6429 26.1451 50.8747C19.8267 51.0946 13.4077 49.5176 8.12842 45.961L8.88173 44.7808Z" fill="#93352B"/>
<path d="M27.9155 12.0849C27.4375 12.6095 26.7937 13.0174 26.3856 13.6003C26.0478 14.0796 25.9012 14.5264 25.4549 14.9603C25.1554 15.2452 24.8431 15.5043 24.5434 15.731C23.0263 16.9097 21.1267 17.6026 19.2144 17.6026C19.0486 17.6026 18.8829 17.5962 18.7427 17.5184C18.4112 17.3306 18.3921 16.8579 18.4367 16.4758C18.5961 15.0315 19.4885 13.6197 18.7873 12.2792C18.4176 11.5733 18.0414 11.2106 17.8311 10.4464C17.6208 9.7016 17.4296 9.07338 16.4798 9.1576C16.008 9.19648 15.5809 9.43614 15.2049 9.71461C14.3635 10.3428 13.4009 11.4243 13.1777 12.5058C13.0439 13.1599 14.3506 15.0121 14.3316 15.051C14.5929 14.5523 15.1666 14.2479 15.7148 14.3192C16.2693 14.3904 16.7539 14.8243 16.8877 15.3748C17.0534 16.0613 16.6837 16.7672 16.2312 17.3047C14.8287 18.9691 12.5977 19.6621 10.4559 19.8952C9.7101 19.9729 8.79221 19.9081 8.46704 19.2282C7.91249 18.0495 9.85667 16.9421 9.61447 15.6598C9.5125 15.1546 9.05988 14.7661 8.56267 14.6495C8.07184 14.5393 7.54276 14.6689 7.09015 14.902C5.43924 15.7634 4.79541 17.7904 4.31732 19.6167C3.9858 20.8731 3.64798 22.123 3.3165 23.3794C4.01771 23.6774 4.82088 23.3535 5.46471 22.952C6.1085 22.5505 6.73324 22.0453 7.48539 21.9482C8.91331 21.7733 10.1244 23.224 10.2646 24.6811C10.4049 26.1318 9.78021 27.5372 9.17468 28.8584C8.35233 30.6652 7.04551 32.6728 6.60571 34.6093C6.42724 35.3929 6.42724 36.3967 6.48461 37.1997C6.54833 38.0287 7.2049 39.0131 7.2049 39.7514C7.46631 40.2436 7.81687 40.7293 7.80413 41.2798C7.79778 41.6748 7.59375 42.0375 7.30053 42.2965C3.01689 38.5921 0.275879 33.1909 0.275879 27.0385C0.275879 15.4719 8.69015 5.62158 21.3435 5.62158C22.0255 5.62158 22.6948 5.654 23.3578 5.71874C23.3706 5.78996 23.3833 5.85471 23.3897 5.91946C23.4789 6.7614 23.0454 7.42197 23.7466 8.17969C24.3331 8.82085 25.3148 8.80138 26.1753 8.78197C27.0359 8.76257 28.0494 8.8662 28.4956 9.61091C28.9673 10.3946 28.5339 11.4243 27.9155 12.0849ZM35.2334 40.4379C35.1505 40.004 35.1251 39.5376 34.8955 39.1685C34.6661 38.7929 34.1179 38.5727 33.7928 38.8706C32.3139 39.9586 29.9873 39.5312 28.9673 37.9963C28.2088 36.85 28.1068 35.2374 27.004 34.4214C26.2263 33.845 25.1235 33.8774 24.2566 34.3049C23.3897 34.7388 22.7331 35.5094 22.2168 36.3384C21.7132 37.1479 21.3435 38.2554 21.9235 39.0131C22.3889 39.6089 23.2685 39.7189 23.753 40.2889C24.5052 41.1632 23.9506 42.5362 23.2367 43.4428C22.5228 44.343 21.6048 45.2885 21.6941 46.4413C21.726 46.8299 21.8662 47.1861 22.0957 47.4905C27.3036 47.2897 32.1099 44.9713 35.737 41.3834C35.4501 41.1761 35.3035 40.7941 35.2334 40.4379ZM42.3855 25.7821C42.3855 30.2119 40.9641 34.4408 38.5736 37.9639C38.4908 37.2257 37.9553 36.5003 37.235 36.5068C37.2796 35.5807 37.3242 34.661 37.3689 33.7414C37.4007 33.1521 37.4262 32.5434 37.2159 31.9928C37.0055 31.4424 36.4892 30.9696 35.9091 31.0084C35.2781 31.0538 34.8254 31.6755 34.647 32.2908C34.4684 32.9125 34.4684 33.5795 34.2645 34.1883C33.8183 35.5418 32.282 36.4161 30.9116 36.0923C32.2438 34.7128 32.9259 32.7181 32.7219 30.8012C32.6644 30.2507 32.5051 29.6614 32.0525 29.3441C31.6063 29.0332 30.8223 29.2339 30.7713 29.7845C30.6948 29.5902 30.6183 29.3894 30.5418 29.1951C30.7267 29.6679 27.5395 30.2249 26.9721 29.765C26.2327 29.1692 25.933 27.2069 25.9713 26.3326C25.9905 25.9116 26.1434 25.1669 26.5387 24.9273C27.0231 24.6359 27.4884 24.9985 28.043 25.0827C29.2095 25.2575 30.4589 24.9337 31.3833 24.176C31.6127 23.9817 31.8868 23.755 32.1673 23.8457C32.3203 23.8975 32.435 24.0336 32.5307 24.1631C33.6398 25.6202 34.0413 26.6694 36.0047 26.3002C37.439 26.0282 38.7011 25.1539 39.4851 23.904C39.772 23.4248 39.9888 22.8743 39.9696 22.3108C39.9505 21.7474 39.6573 21.1711 39.1537 20.9379C38.4972 20.6271 37.7386 20.9509 37.0374 21.1322C36.0812 21.3847 35.0485 21.3653 34.0987 21.0739C33.6525 20.9379 33.1872 20.7112 32.9832 20.2902C32.7155 19.7268 33.0278 19.0209 33.5314 18.6648C34.0095 18.3215 34.6406 18.1854 35.2844 18.1466C35.9027 18.1078 36.5338 18.166 37.0629 18.2308C38.3314 18.3862 39.4661 18.0624 40.709 17.771C41.7863 20.1996 42.3855 22.8937 42.3855 25.7821Z" fill="url(#paint1_radial_13345_315845)"/>
<g style="mix-blend-mode:multiply">
<path d="M30.7593 10.2229C35.4071 12.6412 38.9252 17.1965 40.1314 22.3582C41.3377 27.5201 40.2107 33.1957 37.1289 37.4786C33.6233 42.3507 27.606 45.421 21.7263 45.7815C16.1192 46.1253 8.73902 43.9947 5.43945 39.0154C11.4665 41.6059 18.1122 42.4814 24.4764 40.9325C28.5509 39.9409 32.6246 37.9197 34.8576 34.3178C36.3093 31.9762 36.8603 29.1504 36.8701 26.3829C36.8909 20.5241 34.8614 14.3407 30.7593 10.2229Z" fill="#DFCBC2"/>
</g>
<g style="mix-blend-mode:screen">
<path d="M6.09358 17.9509C5.78576 19.7903 6.12837 22.0071 7.72294 22.9326C8.91096 23.6222 10.406 23.3653 11.7035 22.9242C13.9148 22.1724 15.9661 20.9387 17.6786 19.3307C18.9533 18.1337 20.0624 16.6897 20.5607 15.0004C21.7168 11.0812 18.0594 6.50471 13.999 8.36984C10.3241 10.058 6.77976 13.851 6.09358 17.9509Z" fill="url(#paint2_linear_13345_315845)"/>
</g>
<path d="M7.29947 42.2962C5.21982 40.601 3.48615 38.4565 2.2215 36.0487C0.971494 33.6312 0.227895 30.9401 0.0366849 28.2028C-0.270443 22.738 1.38055 17.1202 4.85052 12.8661C8.311 8.60935 13.5141 5.94281 18.8897 5.4752C21.5735 5.26909 24.2958 5.4361 26.8923 6.14482C29.479 6.8684 31.9434 8.04868 34.0722 9.68184C31.8531 8.18357 29.3861 7.08564 26.8077 6.48645C24.2345 5.85758 21.5619 5.75848 18.945 6.02509C16.331 6.33655 13.7686 7.0873 11.4475 8.32751C9.12522 9.56046 7.05563 11.2715 5.39432 13.3243C3.71427 15.3624 2.43931 17.743 1.63669 20.2792C0.816678 22.8157 0.529971 25.5051 0.577374 28.1715C0.798503 33.5213 3.31994 38.6943 7.29947 42.2962Z" fill="#FEFCDD"/>
<defs>
<radialGradient id="paint0_radial_13345_315845" cx="0" cy="0" r="1" gradientUnits="userSpaceOnUse" gradientTransform="translate(10.5047 13.5136) scale(42.0986 42.7708)">
<stop stop-color="#16C6AD"/>
<stop offset="1" stop-color="#276A8A"/>
</radialGradient>
<radialGradient id="paint1_radial_13345_315845" cx="0" cy="0" r="1" gradientUnits="userSpaceOnUse" gradientTransform="translate(15.1703 19.0253) scale(25.3459 25.7506)">
<stop stop-color="#F4DDA1"/>
<stop offset="0.185597" stop-color="#F2D89C"/>
<stop offset="0.41511" stop-color="#EDC98E"/>
<stop offset="0.667715" stop-color="#E4AF77"/>
<stop offset="0.935224" stop-color="#D88D58"/>
<stop offset="1" stop-color="#D5834F"/>
</radialGradient>
<linearGradient id="paint2_linear_13345_315845" x1="15.2847" y1="-2.22948" x2="11.4782" y2="33.6944" gradientUnits="userSpaceOnUse">
<stop stop-color="#62A18B"/>
<stop offset="0.839295" stop-color="#101A17"/>
<stop offset="1"/>
</linearGradient>
</defs>
</svg>
