<svg width="72" height="40" viewBox="0 0 72 40" fill="none" xmlns="http://www.w3.org/2000/svg">
<path d="M66.5799 32.2128C66.5798 31.9896 66.5828 31.7654 66.58 31.5433C66.5519 30.6529 66.4981 29.7644 66.4115 28.8776C66.2545 27.0999 65.9237 25.3348 65.515 23.5578C64.6454 20.0222 63.2759 16.4644 61.1012 13.1198C59.9979 11.4665 58.7568 9.83436 57.2524 8.37686C55.7556 6.91738 54.0797 5.57951 52.2348 4.47669C48.5455 2.28065 44.3205 0.991853 40.2877 0.65476C39.2793 0.571064 38.2689 0.475145 37.2641 0.505866C36.7602 0.509225 36.2603 0.50442 35.7536 0.520235L34.2106 0.636728C33.1915 0.681982 32.1283 0.922293 31.0963 1.09008C30.0475 1.36417 29.0035 1.5801 27.9682 1.98233C23.8006 3.3763 19.9938 6.33235 17.5962 9.82696C15.1513 13.3339 13.9711 17.1881 13.461 20.875C13.2317 22.7323 13.1353 24.5618 13.2056 26.3734C13.249 27.28 13.3187 28.1803 13.4192 29.0794C13.4638 29.4017 13.5151 29.7244 13.5663 30.0472L3.85596 29.6504L7.27691 39.479L70.8027 39.2254L72.0003 32.4342L66.5799 32.2128ZM21.9947 29.3382C22.1157 28.6356 22.2614 27.9364 22.4255 27.2477C22.7433 25.8693 23.1178 24.529 23.5932 23.2714C24.5078 20.7527 25.7042 18.5245 27.1754 16.9483C27.9142 16.1611 28.6913 15.5112 29.5375 14.9954C29.9524 14.7273 30.4062 14.5181 30.8464 14.2917C31.3285 14.1203 31.7828 13.9162 32.302 13.7885C32.7812 13.6047 33.3511 13.5432 33.8731 13.4069L34.7273 13.3039L35.1526 13.2411L35.6031 13.2165L36.5022 13.1555L37.4437 13.1658C38.0751 13.1517 38.6966 13.2133 39.321 13.2515C41.8167 13.4369 44.0264 14.1025 46.064 15.1077C47.0696 15.638 48.025 16.2814 48.952 17.0185C49.865 17.7712 50.7387 18.6464 51.5528 19.6221C53.2136 21.5555 54.605 23.9462 55.8175 26.515C56.4394 27.7992 56.9482 29.1531 57.4569 30.5253C57.6227 30.9659 57.7704 31.4118 57.9148 31.8588L21.8073 30.3838L21.9947 29.3382Z" fill="#93C4BF"/>
<path d="M62.9358 32.366C62.963 32.142 62.9937 31.9168 63.018 31.6937C63.0989 30.7994 63.1536 29.907 63.1752 29.0165C63.2349 27.231 63.1179 25.4582 62.9236 23.6733C62.4805 20.122 61.536 16.5481 59.7533 13.188C58.8436 11.527 57.7922 9.8871 56.454 8.42249C55.1238 6.9559 53.5979 5.6113 51.8728 4.50266C48.4221 2.29509 44.3196 0.99834 40.2944 0.657421C39.2879 0.572815 38.2806 0.475893 37.2637 0.506148C36.7551 0.509297 36.2516 0.504165 35.7388 0.519677L34.1686 0.635867C33.1355 0.680654 32.0338 0.921362 30.9725 1.08929C29.8813 1.36394 28.8021 1.58025 27.7088 1.98352C23.3353 3.38111 19.134 6.34754 16.2875 9.85582C13.392 13.3763 11.7292 17.2464 10.7624 20.9488C10.3034 22.8139 9.98181 24.6512 9.83044 26.4707C9.76309 27.3812 9.72285 28.2853 9.71391 29.1883C9.71933 29.5121 9.73155 29.8362 9.74352 30.1603L0.000488281 29.7563L2.21516 39.5001L66.3866 39.2346L68.3744 32.5915L62.9358 32.366ZM18.3295 29.4533C18.5378 28.7477 18.7704 28.0456 19.0204 27.354C19.51 25.9698 20.052 24.624 20.6856 23.3614C21.9169 20.8323 23.3967 18.5954 25.0735 17.0133C25.9151 16.2231 26.7784 15.5709 27.695 15.0534C28.1462 14.7843 28.6295 14.5745 29.1012 14.3474C29.6082 14.1756 30.0915 13.9709 30.6307 13.8429C31.1364 13.6586 31.7187 13.597 32.2618 13.4604L33.1358 13.3576L33.5724 13.2947L34.0297 13.2703L34.9438 13.2097L35.8919 13.2205C36.5303 13.2067 37.1494 13.2689 37.7744 13.3076C40.2683 13.4953 42.4148 14.165 44.3463 15.1757C45.2951 15.7088 46.1796 16.3556 47.024 17.0964C47.8523 17.8528 48.626 18.7323 49.3272 19.7127C50.7647 21.6552 51.8746 24.057 52.7821 26.6375C53.2517 27.9276 53.5987 29.2876 53.9434 30.666C54.0565 31.1086 54.1507 31.5565 54.2415 32.0054L18.0123 30.5031L18.3295 29.4533Z" fill="url(#paint0_linear_13345_315854)"/>
<defs>
<linearGradient id="paint0_linear_13345_315854" x1="21.9705" y1="-13.5569" x2="38.4027" y2="50.6501" gradientUnits="userSpaceOnUse">
<stop stop-color="#F8DAA1"/>
<stop offset="1" stop-color="#F5D151"/>
</linearGradient>
</defs>
</svg>
