<svg width="36" height="56" viewBox="0 0 36 56" fill="none" xmlns="http://www.w3.org/2000/svg">
<path d="M2.68351 53.1324C6.08682 58.5986 35.2169 56.048 35.7332 47.204C36.2494 38.3598 36.1374 26.8266 34.3197 25.679C32.502 24.5315 31.2454 24.3112 31.2454 24.3112C31.2454 24.3112 32.794 2.93699 23.6326 1.30832C14.4712 -0.32035 5.31533 2.49614 1.84256 5.31856C-1.63014 8.14102 0.4787 49.5913 2.68351 53.1324Z" fill="#E3660B"/>
<path d="M16.7835 0.00138116C13.918 0.125436 11.0177 0.473003 8.32121 1.55101C4.91744 2.9117 4.26991 5.1639 3.63464 8.7017C2.21306 16.6172 2.46714 24.6836 4.12831 32.533C4.2499 33.1074 7.68637 32.6846 7.67662 32.6383C6.38504 26.5354 5.91823 20.3181 6.47481 14.0888C6.72411 11.299 6.87733 7.66848 7.99712 5.10555C9.68435 1.24384 14.9745 0.589673 18.5637 0.43431C20.7461 0.339887 17.3973 -0.0252115 16.7835 0.00138116Z" fill="#EDB652"/>
<g style="mix-blend-mode:multiply">
<path d="M5.5245 32.4965L5.34204 32.1812L5.74385 32.1828L6.34879 32.1986L6.14414 31.3648L6.05633 30.9593L5.55883 31.0315L5.168 31.0822L5.17001 30.8783L5.16843 30.6962L5.16157 30.3948L6.00728 30.3738L5.7397 29.2639L4.98811 29.3387L4.86406 28.3211L5.56903 28.3838L5.51669 27.16L5.50208 26.8092L4.69421 27.0243L4.47245 26.0406L5.52154 25.7257L5.21433 24.7196L4.22291 25.0099L4.28118 23.5739L4.97762 23.5256L5.11415 22.322L4.82957 22.3248L4.28405 22.329L4.30807 21.6002L5.3809 21.2009L4.91029 19.8642L4.02431 20.0268L3.9815 18.9234L4.36941 18.9109L4.87742 18.8947L4.78375 17.3314L4.22489 17.5643L3.99035 17.662L4.00684 17.6546L4.13273 16.8901L5.06398 16.6562L5.18139 15.2814L4.20176 15.5912L4.25184 14.5614L5.49355 14.8165L5.37495 14.1235L5.19893 13.1196L4.62463 13.2745L4.53706 13.299L4.50142 13.3101L4.42445 13.3342L4.58637 12.703L5.51281 12.7855L5.52744 12.0912L5.54496 11.3233L4.55522 11.1195L4.81535 10.0948L5.48327 10.295L5.90398 8.99565L5.98106 8.75774L4.83667 8.56842L4.91564 7.30621L5.77751 7.14539L6.09275 5.51403L5.94714 5.46324L5.35994 5.25323L5.81468 4.39638L6.40786 4.5774L7.10967 4.78153L7.76196 2.92777L6.41701 2.98836L6.58523 2.68252L6.89668 2.11865L8.66088 2.17095C9.00944 2.18031 9.27041 2.23392 9.25054 2.38676C9.23305 2.52111 9.02046 2.60121 8.66104 2.57993C8.189 2.55227 7.71978 2.50323 7.2479 2.48076L7.08412 2.47175L6.98643 2.63808L7.05532 2.63633L7.07265 2.63588L7.03672 2.63719L7.00046 2.6385L6.98237 2.63916L6.97334 2.63948L6.99193 2.63892L8.20174 2.60057L7.71296 3.95338L7.28461 5.13594L5.9677 4.75995L5.81587 5.06421C5.83363 5.07001 5.92128 5.10014 5.79582 5.05591L6.46976 5.2895C6.38618 5.72334 6.30288 6.15555 6.21965 6.58749L6.05351 7.43787L5.37473 7.55876L5.21406 7.58442L5.20589 7.66057L5.1817 7.96636L5.15208 8.31187L5.40205 8.35866L6.35898 8.52472L6.00087 9.62236L5.66902 10.6672L5.62838 10.6554L4.98754 10.4667L4.9465 10.4551L4.92597 10.4492L4.91572 10.4463C4.91316 10.4456 4.89939 10.4415 4.93639 10.4529L5.06812 10.494L5.06412 10.4933L5.05624 10.4919L5.02617 10.4865L5.01632 10.5466L5.01195 10.5739L4.98224 10.6966C4.94839 10.8316 4.95621 10.8082 4.95205 10.83L4.94521 10.873C4.97906 10.8779 4.98271 10.8764 5.03427 10.8854L5.86922 11.0606C5.84988 11.7515 5.83045 12.4454 5.81102 13.1394L4.94445 13.0483L4.82102 13.0363L4.80087 13.0353C4.79914 13.0438 4.79202 13.0709 4.79518 13.0624L4.8257 12.9639L4.83727 12.9264L4.63812 12.9768L4.5378 13.0023L4.48748 13.015L4.58921 12.9885L5.41692 12.7729L5.82768 15.1699L4.50656 14.899L4.49181 15.2061L4.27722 15.2744L4.22363 15.2915L4.51371 15.1995L4.52111 15.1972L5.48643 14.8916L5.31692 16.8802L4.6848 17.0393L4.39121 17.1125L4.36881 17.1164L4.34185 17.2229L3.95007 17.3894L3.90159 17.41L3.8916 17.4143L3.90406 17.4092L3.92892 17.3989L4.02832 17.358L4.22671 17.2763L5.01474 16.952L5.13707 19.1386L4.28114 19.1633L4.22968 19.1624L4.23118 19.2378L4.24794 19.663L4.25393 19.733L4.32201 19.7153L5.07359 19.5725L5.71847 21.3638L4.57671 21.7996L4.57638 21.8089L4.5704 21.9992L4.56629 22.0381L4.58338 22.0399C4.57932 22.0401 4.6073 22.0397 4.54306 22.0413L4.43585 22.0442L4.53952 22.0432L5.42211 22.0294L5.22993 23.7919L4.55286 23.8451C4.54464 23.8456 4.5099 23.8483 4.52346 23.847L4.553 23.8438C4.5736 23.8417 4.59786 23.8392 4.5834 23.84L4.5547 23.8401L4.54953 23.8937L4.54829 23.9094L4.54545 23.9957L4.53995 24.1682L4.52728 24.5485L4.52539 24.6004L5.41229 24.3289L5.92013 25.9412L4.85486 26.2688L4.93314 26.6161L5.80801 26.3856L5.89425 28.7385L5.25095 28.6767L4.96514 28.6492L5.21358 28.673L5.25137 29.0031L5.96626 28.936L6.377 30.667L5.45684 30.6872C5.4571 30.698 5.45784 30.7333 5.45765 30.724C5.4512 30.4075 5.46348 30.9918 5.45825 30.6954C5.45751 30.6482 5.45813 30.6666 5.45846 30.6703L5.45968 30.6847L5.46274 30.7118C5.49857 30.702 5.52909 30.6913 5.529 30.6839C5.80344 30.6239 6.07621 30.5643 6.34681 30.5052C6.35164 30.523 6.3562 30.5399 6.36077 30.5568C6.44698 30.8894 6.53229 31.2184 6.61736 31.5465C6.70479 31.9185 6.79189 32.289 6.87897 32.6594L5.77901 32.5894L5.64342 32.5801L5.69122 32.5816L5.78463 32.5842L5.96184 32.5883C5.95635 32.5894 5.95572 32.5996 5.96043 32.614L5.96289 32.6211C5.97905 32.6544 5.9954 32.6882 6.0111 32.7205C6.04414 32.7919 6.07038 32.8588 6.07696 32.9068C6.09701 33.0537 6.0897 33.2087 6.03305 33.2473C5.99746 33.2717 5.8425 33.1149 5.75542 32.9936C5.6373 32.8261 5.55687 32.6577 5.46054 32.4904L5.5245 32.4965Z" fill="#BCBEC0"/>
</g>
<g style="mix-blend-mode:multiply">
<path d="M7.35244 1.99524L7.10788 1.99751L6.83167 1.99453C6.62493 2.37945 6.41715 2.74134 6.18655 3.13047L7.00816 3.12765L7.17543 3.1296L7.24921 3.13493L7.47265 3.14345L7.2539 3.66125C7.19098 3.8198 7.13097 3.98017 7.07276 4.14181L6.9578 4.47599L6.51955 4.36463L5.84445 4.18146L5.709 4.14329L5.09264 5.36422L5.88251 5.63959L5.62135 6.97891L5.32661 7.03319L4.73931 7.14095L4.63312 8.7345L5.72282 8.9173L5.42423 9.84573L5.36032 10.0468L4.68152 9.84452L4.31732 11.2702L5.34887 11.4827L5.32635 12.5631L4.44137 12.4771L4.11621 13.6393L4.63419 13.5011L5.02659 13.3949L5.2344 14.5415L4.06608 14.3139L4.00707 15.8506L4.98969 15.5273L4.9155 16.5239L4.00267 16.7646L3.8323 17.8804L4.66794 17.5228L4.75236 18.7763L3.86535 18.8106L3.87045 18.9312L3.91909 20.1622L4.83664 19.997L5.2295 21.1274L4.1883 21.5105L4.15892 22.4585L4.98192 22.4483L4.87486 23.4162L4.41472 23.4512L4.17451 23.4692L4.1061 25.169L5.13401 24.8796L5.34851 25.6316L4.99937 25.7288C4.95802 25.7401 4.88646 25.752 4.83719 25.771C4.66658 25.832 4.4968 25.8928 4.32741 25.9535C4.44013 26.3877 4.52235 26.7347 4.61603 27.159L5.07481 27.0446L5.38365 26.9741L5.38137 28.178L5.11616 28.1421L4.97599 28.1243L4.63338 28.0879L4.72899 28.956L4.80213 29.5767L5.57384 29.505L5.72122 30.1462L4.92365 30.1583L4.94437 31.3642L5.73859 31.221L5.91009 31.1891L6.1014 31.9827L5.72614 31.969L4.96419 31.9324L5.21186 32.3944C5.26848 32.4964 5.3296 32.6065 5.38785 32.7115C5.44517 32.8165 5.4962 32.9172 5.51515 32.9823C5.5648 33.14 5.59647 33.3677 5.54764 33.3858C5.49443 33.405 5.30627 33.2443 5.23428 33.115C5.10463 32.8707 4.97487 32.6262 4.84472 32.381L4.43205 31.5829C4.85746 31.61 5.28311 31.6371 5.70788 31.6642C5.71739 31.6642 5.72571 31.6629 5.7309 31.6607C5.72435 31.6461 5.71761 31.635 5.71271 31.629C5.71084 31.6227 5.71472 31.6418 5.70647 31.6071L5.69179 31.5474L5.68902 31.5444C5.68744 31.5427 5.68637 31.5415 5.68577 31.5398L5.68374 31.5401C5.68034 31.5405 5.68049 31.5403 5.6949 31.5374C5.6949 31.5374 5.71823 31.5329 5.6966 31.5367L5.49931 31.5721L4.65944 31.7223L4.62652 29.864L5.48619 29.8484L5.52558 29.8479L5.39347 29.8512L5.33718 29.8526L5.33854 29.8528L5.34134 29.8532L5.3535 29.8546C5.35295 29.8469 5.35162 29.8356 5.35604 29.8485L5.35709 29.8508C5.36149 29.8686 5.34691 29.8065 5.35138 29.8245L5.35482 29.8348C5.35695 29.8409 5.35425 29.8266 5.35405 29.823C5.35984 29.8216 5.30405 29.826 5.40315 29.8159L4.55527 29.8915L4.32205 27.7744L4.98161 27.8396L5.02373 27.8439L5.02616 27.8444L5.03111 27.8453L5.04129 27.8474L5.08625 27.8562L5.0891 27.8189L5.09065 27.798C5.09068 27.7885 5.09166 27.8042 5.09094 27.7736L5.08922 27.6935L5.08494 27.4923C5.08489 27.4627 5.08609 27.4664 5.08659 27.4511L5.09049 27.38L5.05853 27.3847L5.05009 27.386L5.04579 27.3867L5.10107 27.3716L5.1676 27.3536C5.18777 27.3481 5.22341 27.3385 5.20189 27.344L5.15191 27.3563L4.38652 27.5511L3.99416 25.7547L4.8315 25.506L4.89477 25.4878L4.91237 25.4836L4.94851 25.475L5.02482 25.4566L4.96462 25.214L4.88471 25.2337C4.84984 25.2428 4.88113 25.2315 4.68343 25.2909L3.82783 25.5458L3.90663 23.2084L4.5496 23.1591C4.58641 23.1566 4.51743 23.1633 4.56378 23.1601L4.62898 23.1567L4.68553 22.7299L4.5921 22.7289L4.56834 22.7287L4.60032 22.7272C4.65018 22.7257 4.58185 22.7267 4.55436 22.7268L3.89026 22.7354L3.93481 21.3224L4.90515 20.9708L4.67363 20.2883L3.68274 20.4645L3.65783 19.7874L3.61063 18.5653L4.49274 18.5324L4.44635 17.8868L3.521 18.2815L3.78958 16.5603L4.68914 16.3235L4.71804 15.8745L4.60479 15.9129L4.57685 15.9224L4.5699 15.9248L4.56643 15.926L4.56555 15.9263L4.59069 15.9183L4.64301 15.9017L4.73112 15.8738L4.7194 15.8776L4.69595 15.8852L4.50801 15.9461L3.75048 16.1913L3.79752 15.0974L3.84394 14.0194L4.70922 14.1933L4.94734 14.238L4.84436 13.6848L4.6819 13.7302L3.78648 13.965L4.28008 12.2272L4.96115 12.2969L5.11219 12.309L5.12053 11.6677L4.99672 11.6458L4.42149 11.5263L4.03833 11.4465L4.51915 9.54278L5.20808 9.74718L5.29306 9.77133L5.31431 9.77738L5.32492 9.78039L5.16523 9.73093L5.17383 9.73254L5.20646 9.73842L5.2225 9.66412L5.22704 9.64385L5.25417 9.55523L5.3084 9.37801L5.36101 9.20563L5.36558 9.17855L5.37172 9.13378L5.33109 9.13341L5.31366 9.13368L5.30568 9.1339C5.29978 9.13343 5.31122 9.13593 5.27824 9.13076L4.33176 8.97965L4.4282 7.31749L4.45658 6.87738L5.2356 6.73708L5.34449 6.71851C5.37495 6.71343 5.35544 6.71742 5.36357 6.71649L5.37514 6.71799C5.33995 6.94531 5.6355 5.51087 5.58024 5.81962L5.5795 5.81927L5.56028 5.81087L5.68584 5.85431L5.63964 5.83789L5.54718 5.80512L4.72416 5.51699L5.57835 3.83281L6.36536 4.0601L6.76206 4.17828L6.8216 4.20169C6.83236 4.17835 6.83676 4.17304 6.85499 4.12916L7.01363 3.70735L7.08405 3.52092L7.10212 3.48025L7.14043 3.39065L7.08345 3.38931C7.08345 3.38931 7.06182 3.38956 7.08029 3.38874L7.13202 3.3864L7.18331 3.38413L7.11414 3.38588L6.04781 3.41894L5.69751 3.43129C6.01906 2.8468 6.34078 2.26201 6.66287 1.67651L7.21343 1.68785L7.53448 1.68928L8.17645 1.69308C8.41 1.69506 8.65124 1.66214 8.87069 1.68567C9.03088 1.70293 9.27024 1.78844 9.27502 1.83961C9.28028 1.89785 9.08124 1.99559 8.94103 1.99964C8.41827 2.01512 7.88305 1.99932 7.35244 1.99524Z" fill="#BCBEC0"/>
</g>
<path d="M33.8794 24.509C28.5731 23.4111 22.8962 23.3462 17.7117 25.1122C13.7903 26.448 12.9877 27.8931 13.0357 32.0861C13.0924 37.0484 13.7119 41.9426 14.7529 46.7827C14.8771 47.36 18.3103 46.9303 18.3012 46.888C17.2602 42.0483 16.6407 37.1535 16.5839 32.1914C16.559 30.0105 16.3209 28.2874 18.0338 26.8456C21.1472 24.225 27.4598 23.9469 30.8094 24.6401C31.5527 24.7939 32.4831 24.9315 33.2345 24.791C33.377 24.7644 34.5661 24.6511 33.8794 24.509Z" fill="#EDB652"/>
<g style="mix-blend-mode:multiply">
<path d="M15.194 43.2652L15.1409 42.9197L16.2033 42.7556L15.9751 42.0907L15.8743 41.7831C15.5796 41.8633 15.2828 41.9442 14.9874 42.0246L14.9707 41.65L14.9474 41.2336L15.7356 41.0892L15.476 40.2235L14.9535 40.3714L14.8539 39.5309L15.4958 39.4641L15.2846 38.2449L15.0764 38.2994L14.6118 38.4208C14.585 37.9779 14.5582 37.5353 14.5315 37.0934L15.4566 37.1902L15.3755 36.0488L14.4179 35.9585L14.4854 34.9516L15.1165 35.0036L14.93 33.8557L14.2871 33.967L14.2105 33.98L14.1531 33.105L15.0301 32.9483L15.002 31.7637L14.3331 31.7788L14.1074 30.9516L14.8846 30.9602L14.9194 30.1614L14.9322 29.8702L14.3175 29.775L14.3784 29.1823L15.227 29.1841L15.4367 28.1558L14.6413 28.5069L14.7867 27.7593L16.063 27.7322L16.621 26.9885L15.744 26.8246L16.3203 26.5275L16.7521 26.3037L17.457 26.3258L18.6462 25.7976L17.9812 25.5514L18.5867 25.2815L18.8576 25.1619L19.4016 25.4204L20.3011 25.1958L19.9818 24.8322L20.6648 24.6118L20.9281 24.9762L21.761 24.766L21.6521 24.5952L21.5522 24.4384L22.1285 24.2835L22.5772 24.5623L23.2196 24.4934L23.1855 24.1193L23.7533 24.0445L23.9436 24.2621L24.6786 24.1274L24.6664 23.8778L25.2666 23.7989L25.2901 23.8512L25.4616 24.2361L26.0194 24.2406L25.9316 23.8806L26.4325 23.8537L26.7197 24.1197L27.3133 24.107L27.3409 24.1063L27.3939 24.105L27.3736 24.0544L27.2675 23.7899L27.2354 23.8415L27.8852 23.8139L28.0778 24.0571L28.754 24.1996L28.7947 23.905L29.3564 24.0061L29.5685 24.3663L29.575 24.3773L30.0587 24.3545L30.0753 24.0974L30.5899 24.0611L30.6643 24.4856L31.2968 24.5219C31.3515 24.5257 31.4038 24.5293 31.4524 24.5327C31.5711 24.2938 31.6639 24.1559 31.7163 24.1917C31.7392 24.209 31.7437 24.2555 31.7295 24.3275C31.7224 24.3634 31.7107 24.4057 31.6943 24.4539C31.6701 24.5184 31.6194 24.6349 31.5706 24.7426C31.492 24.738 31.4072 24.7331 31.3163 24.7278L30.5089 24.6652L30.4498 24.2933L30.4459 24.2501L30.4223 24.2502L30.3561 24.2536L30.2321 24.2607L30.2136 24.5193L29.4852 24.5495L29.2565 24.1554L28.925 24.0929L28.8819 24.3894L27.9955 24.1962L27.8176 23.9679L27.768 23.9693L27.2408 23.9884L27.399 23.7336L27.5044 23.9984L27.603 24.2462L27.3444 24.2525L26.6671 24.2692L26.3812 24.0088L26.1261 24.0257L26.2223 24.4025C25.9338 24.4024 25.6462 24.4024 25.3587 24.4024L25.1688 23.9815L24.8378 24.0262L24.8498 24.2687L24.6802 24.2996L23.8828 24.4441L23.6896 24.2209L23.356 24.2612L23.3574 24.2826C23.3574 24.2826 23.358 24.2902 23.3574 24.2839L23.352 24.2239L23.3559 24.2705L23.3872 24.6363L22.5425 24.7208L22.1053 24.4447L21.7801 24.53L21.9898 24.8599C21.6166 24.9548 21.2429 25.0498 20.8688 25.1449L20.697 24.9089L20.6263 24.8134L20.6079 24.7907L20.5879 24.7983L20.542 24.8141L20.352 24.8769L20.3055 24.8928L20.2889 24.8992L20.2579 24.9112C20.3691 25.0368 20.4811 25.1634 20.5933 25.2901C20.1921 25.3903 19.7885 25.4911 19.3845 25.592C19.2085 25.5083 19.0313 25.424 18.8542 25.3397L18.447 25.5189L18.3982 25.5422L19.0488 25.7886L17.9488 26.2673L17.4826 26.4706L16.7816 26.445L16.1686 26.7622C16.1711 26.7626 16.2133 26.7703 16.1602 26.7603C16.1548 26.7593 16.1371 26.756 16.1418 26.7568L16.3493 26.7956L16.8647 26.892L16.1305 27.8708L14.8983 27.897L14.8244 28.2737L14.8372 28.2684C14.6502 28.3515 15.2862 28.0706 15.6211 27.9233L15.3338 29.32L14.7354 29.317L14.5217 29.3156L14.4932 29.3142L14.4901 29.3348L14.4729 29.4941L14.4534 29.6662L15.0587 29.7626L14.9984 31.0847L14.5963 31.0796L14.2652 31.0767L14.4265 31.6487L14.4473 31.647L14.5955 31.6426L15.127 31.6285L15.1674 33.0645L14.3511 33.2135L14.2992 33.2225C14.2875 33.0702 14.3539 34.0188 14.3369 33.8122L14.3549 33.8103L14.4763 33.7897L15.0426 33.6899L15.2849 35.1606L14.6178 35.1076L14.5839 35.6482L14.5735 35.8194L15.5179 35.9024L15.6292 37.3719L14.7041 37.278L14.7604 38.2107L15.4117 38.0427L15.6771 39.6064L15.0236 39.672L15.0814 40.1756L15.5754 40.0374L15.9237 41.2082L15.0991 41.3578L15.1077 41.5122L15.1223 41.7688L15.1271 41.8215L15.1701 41.8054L15.1813 41.801L15.2369 41.7834L15.3476 41.7479C15.5517 41.682 15.7546 41.6164 15.956 41.5514L15.9981 41.5379C16.0767 41.7587 16.1544 41.9772 16.2318 42.195C16.3158 42.4425 16.3995 42.6889 16.4831 42.9353L15.6606 43.0428L15.3899 43.076C15.3646 43.0791 15.3422 43.0818 15.35 43.0805L15.3479 43.0799L15.3422 43.0789L15.3409 43.0845C15.3413 43.0894 15.3395 43.0784 15.3416 43.0967L15.3516 43.1794L15.3925 43.51C15.4099 43.6481 15.4347 43.8284 15.4296 43.9146C15.4217 44.0463 15.3993 44.1741 15.3665 44.1845C15.346 44.1911 15.2882 43.9983 15.2597 43.8619C15.2229 43.6854 15.1988 43.4763 15.1691 43.281L15.194 43.2652Z" fill="#BCBEC0"/>
</g>
<g style="mix-blend-mode:multiply">
<path d="M30.4263 24.0042C30.2899 24.0161 30.1544 24.028 30.0194 24.0398L30.0046 24.2974L29.6075 24.3148L29.3974 23.9446L28.7259 23.8065L28.6784 24.0879L28.1383 23.9544L27.9395 23.69L27.8827 23.6914C27.6658 23.6986 27.4487 23.7058 27.2303 23.713L27.1021 23.7173L27.1519 23.8394L27.2595 24.1032L27.3375 23.9794L26.7613 24.0009L26.4699 23.7403L26.2681 23.7541L25.8029 23.785L25.8937 24.1409L25.5205 24.1407L25.3211 23.6967L24.5703 23.7951L24.5825 24.0486L23.9781 24.1586L23.7899 23.9428L23.7686 23.9456L23.0831 24.0346L23.1163 24.4058L22.5992 24.4605L22.1436 24.1764L21.3957 24.3759L21.6031 24.7016L21.0494 24.8421L20.9678 24.863L20.7016 24.4953L19.8089 24.783L20.1212 25.138L19.4116 25.3164L18.8594 25.0538L17.7132 25.5576L18.3688 25.8039L17.4371 26.2145L17.3694 26.2123L16.7283 26.191L15.4203 26.8724L16.4453 27.0583L16.0163 27.6372L14.7163 27.6731L14.5338 28.6436L15.3348 28.2842L15.1705 29.1126L14.3197 29.1156L14.2501 29.8289L14.871 29.9223L14.8355 30.7914L14.8309 30.9021L14.034 30.8938L14.2902 31.8384L14.9451 31.8252L14.9681 32.8964L14.0873 33.0526L14.1547 34.0539L14.8823 33.9258L15.0269 34.803L15.0497 34.9418L14.4341 34.8916L14.357 36.013L15.3165 36.1094L15.3793 37.1095L15.2806 37.0981C15.2351 37.0927 15.1919 37.0835 15.1483 37.0808C14.9207 37.0631 14.6949 37.0455 14.4697 37.0279C14.51 37.5888 14.5284 37.9314 14.557 38.498L15.2264 38.3372L15.3826 39.3757L14.7372 39.4343L14.7848 39.8499L14.8618 40.5113L15.4028 40.3603L15.5903 40.9977L14.8249 41.1338L14.8801 42.1804L15.5977 41.9688L15.8127 41.9047L16.0732 42.6725L15.0173 42.8224L15.0769 43.2551C15.1003 43.4247 15.1363 43.6181 15.1413 43.7584C15.1468 43.9107 15.1349 44.1151 15.1085 44.1112C15.0799 44.1066 15.0061 43.8974 14.9861 43.7602C14.9389 43.403 14.8916 43.0448 14.8441 42.6853L15.6946 42.5748L15.807 42.5594L15.8664 42.5509L15.8782 42.5474L15.8715 42.5348L15.806 42.3454L15.7269 42.1134C15.7174 42.0853 15.7217 42.0985 15.7203 42.0947L15.7195 42.0935L15.7184 42.0915L15.7155 42.0924L14.7446 42.3774L14.6724 41.0089L15.2575 40.9044C15.4422 40.8715 15.3835 40.8827 15.4037 40.8797C15.3992 40.8627 15.4155 40.9156 15.3609 40.7298L15.3098 40.5547L15.3065 40.5406L15.2761 40.548L14.7409 40.6962L14.5854 39.3081L15.1193 39.2562L15.2015 39.2489L15.2201 39.248L15.2172 39.2221L15.1841 39.0181L15.1109 38.5659L15.1066 38.5279L15.0813 38.5328L14.9735 38.5589L14.4139 38.7002L14.314 36.8615L14.9817 36.9333L15.2411 36.964L15.238 36.8913L15.2208 36.6334L15.1952 36.2341L14.2149 36.14L14.3056 34.7402L14.8847 34.7881L14.8666 34.6683L14.7733 34.0865L14.0336 34.2146L13.9492 32.9415L14.8378 32.7862L14.8227 31.9576L14.1963 31.9691L13.8706 30.7643L14.0784 30.7668L14.7135 30.7737L14.744 30.0304L14.1167 29.9357L14.2102 28.9898L15.0718 28.987L15.1681 28.4944L14.3699 28.8524L14.6168 27.5504L15.9567 27.5149L16.1306 27.2806L16.232 27.1428L15.0535 26.9263L16.7035 26.0719L17.4164 26.0965L18.0638 25.8107L17.4099 25.5643L18.8618 24.9284L19.4237 25.1954L19.7939 25.1017L19.9104 25.0699L19.604 24.7244L20.7472 24.3523L20.9576 24.6414C21.0185 24.7248 21.0028 24.7014 21.0178 24.7208L21.0363 24.7149L21.0898 24.7003L21.2822 24.6499C21.3697 24.6273 21.3549 24.6301 21.3686 24.6258L21.3956 24.6165L21.1842 24.291L22.1656 24.0234L22.6324 24.3089L22.6379 24.3076L22.7141 24.2989L22.8672 24.2814L22.9438 24.2727L22.9496 24.2714L22.9563 24.2693L22.9553 24.2653L22.9548 24.2635C22.956 24.2777 22.9654 24.3861 22.9613 24.3407L22.9326 24.0279L22.921 23.8996C23.2297 23.8599 23.5386 23.8203 23.8485 23.7805L24.0206 23.9795C24.039 24.0012 24.0275 23.9886 24.0326 23.9951L24.0366 23.9952C24.0402 23.9947 24.0316 23.9965 24.0453 23.9942L24.0897 23.9866L24.2677 23.9563L24.4239 23.9302L24.4384 23.9297L24.4288 23.6725L25.2757 23.5664L25.3993 23.5505L25.603 24.0073L25.7267 24.0077L25.6392 23.663L26.514 23.607L26.7159 23.792L26.8055 23.8752L27.3348 23.8663L27.1584 24.1465L27.0546 23.881L26.9498 23.613L27.2263 23.6043L27.9877 23.5802L28.1983 23.8529L28.5785 23.9396L28.6208 23.655L29.2714 23.7776L29.4828 23.8169L29.6334 24.0739L29.687 24.1625L29.806 24.1546C29.8542 24.1515 29.8446 24.1508 29.865 24.1487L29.8785 23.893L30.7702 23.8245L30.8418 24.2224L30.8468 24.2491L30.848 24.2533L30.8498 24.2583L30.8532 24.2672L30.8679 24.2654C30.9626 24.2674 31.06 24.2694 31.156 24.2714C31.2068 24.2727 31.257 24.274 31.3063 24.2753L31.3067 24.2749L31.3073 24.2755C31.3073 24.2755 31.3108 24.2788 31.3157 24.2792C31.3377 24.2458 31.3606 24.211 31.3825 24.1778C31.4275 24.1132 31.4667 24.0664 31.4791 24.0691C31.5108 24.0682 31.4659 24.2833 31.4282 24.3739L31.4004 24.4411C31.2675 24.4411 30.8683 24.4203 30.7253 24.4151L30.6464 23.9869L30.4263 24.0042Z" fill="#BCBEC0"/>
</g>
<g style="mix-blend-mode:multiply">
<path d="M19.5267 28.64C17.223 26.9861 13.0839 28.7609 13.0839 28.7609C13.0839 28.7609 11.9986 8.72878 9.42148 5.90512C7.99182 4.33855 4.7052 4.60748 2.06105 5.157C1.99077 5.21075 1.90876 5.26429 1.84261 5.31812C-1.63019 8.14046 0.478748 49.5908 2.68349 53.1319C4.55244 56.1338 14.1775 56.7128 22.5642 55.1646C22.073 45.1493 21.0724 29.7496 19.5267 28.64Z" fill="#BCBEC0"/>
</g>
<path d="M18.6333 43.9038L3.84668 45.4914C3.84668 45.4914 4.39779 52.1964 5.07456 53.4103C5.75135 54.6243 15.7295 56.582 19.6312 53.9302C20.538 53.0367 18.6333 43.9038 18.6333 43.9038Z" fill="#3A464C"/>
<path d="M3.17871 42.9393L3.26306 46.2049C3.26306 46.2049 12.5966 48.5226 19.5933 44.702L19.1125 41.8728C19.1126 41.8728 9.91375 46.5787 3.17871 42.9393Z" fill="#1E2C33"/>
<path d="M14.7358 23.1084C14.4321 21.3833 14.1966 19.6461 14.0061 17.9031C13.8255 16.1593 13.6784 14.4085 13.6699 12.6495C13.6719 11.7704 13.7061 10.8887 13.8257 10.0137C13.8953 9.57838 13.9771 9.13906 14.16 8.7293C14.3374 8.30029 14.7145 8.02594 15.0755 7.80257C15.8173 7.35905 16.6227 7.06075 17.4321 6.79538C18.2458 6.54127 19.07 6.32114 19.9049 6.15207C20.7393 5.98212 21.5814 5.84305 22.432 5.77307C23.2815 5.70085 24.1404 5.6748 24.9997 5.79727C25.4259 5.86717 25.8657 5.96387 26.2556 6.24921C26.4446 6.40482 26.5815 6.60493 26.6878 6.8018C26.8003 6.99976 26.8878 7.20497 26.9732 7.41058C27.3008 8.2372 27.5122 9.09269 27.7134 9.94719C28.1104 11.6585 28.3869 13.3914 28.636 15.1261C28.8782 16.8621 29.0777 18.6036 29.2295 20.3497L29.2007 20.353C28.702 16.8887 28.1921 13.4197 27.4227 10.0195C27.2234 9.17292 26.9979 8.32978 26.6935 7.52913C26.6142 7.33164 26.5323 7.13411 26.4318 6.95296C26.3346 6.76735 26.2205 6.60362 26.0798 6.48421C25.7769 6.25403 25.3628 6.14343 24.9581 6.0758C24.1366 5.9514 23.2886 5.95639 22.4487 6.01014C21.6075 6.06614 20.7674 6.16805 19.9337 6.31336C19.1012 6.4628 18.2718 6.64463 17.4618 6.8962C16.6551 7.14986 15.8468 7.43846 15.1275 7.89129C14.774 8.11737 14.4195 8.38351 14.2683 8.78085C14.1077 9.17373 14.0399 9.6072 13.9857 10.0359C13.8945 10.9001 13.8914 11.7744 13.9102 12.6465C14.0016 16.1387 14.3769 19.6241 14.7645 23.1038L14.7358 23.1084Z" fill="#1E2C33"/>
<path d="M24.419 52.2063C23.965 48.379 23.5944 44.5389 23.4135 40.6828C23.3689 39.7188 23.3378 38.7535 23.3411 37.7866C23.3469 36.82 23.3655 35.8514 23.4938 34.8826C23.5281 34.6405 23.5686 34.3983 23.6318 34.1571C23.6986 33.9179 23.7727 33.6703 23.9628 33.4494C24.326 33.0878 24.7584 32.8634 25.192 32.6669C26.0651 32.2815 26.9758 32.0282 27.8914 31.8157C28.8096 31.6125 29.7374 31.4628 30.6716 31.3664C31.1389 31.3192 31.608 31.2861 32.0795 31.2783C32.5515 31.2772 33.024 31.2755 33.5051 31.3871C33.6253 31.4152 33.7471 31.4559 33.869 31.5237C34.0239 31.6221 34.0727 31.7617 34.1233 31.877C34.2183 32.1185 34.2675 32.3584 34.3151 32.5991C34.4049 33.0802 34.4585 33.5619 34.5052 34.0438C34.5963 35.0075 34.6435 35.9722 34.6765 36.9368C34.8044 40.7952 34.7519 44.6529 34.6392 48.5072C34.6493 46.5792 34.6381 44.6513 34.6076 42.7241C34.5843 40.7971 34.5455 38.87 34.4536 36.9467C34.4055 35.9855 34.3472 35.0246 34.2557 34.0696C34.2074 33.5928 34.1517 33.1159 34.0626 32.6507C34.0165 32.4201 33.9654 32.1862 33.883 31.9812C33.8438 31.88 33.7885 31.7815 33.7372 31.7579C33.653 31.7126 33.5518 31.6763 33.4444 31.6525C33.0128 31.5533 32.5428 31.5533 32.0843 31.5578C31.6229 31.5676 31.1603 31.6024 30.6993 31.6513C29.777 31.7507 28.859 31.9044 27.953 32.1081C27.0487 32.3131 26.1477 32.5603 25.3017 32.9292C24.8826 33.1146 24.4677 33.3353 24.1551 33.6451C24.0309 33.7855 23.9479 34.0091 23.889 34.2301C23.8291 34.454 23.7887 34.6875 23.7545 34.9219C23.6251 35.8637 23.6012 36.8281 23.5914 37.7878C23.5872 38.7489 23.6054 39.7113 23.6354 40.6735C23.6983 42.5981 23.8154 44.5217 23.953 46.4435C24.0837 48.3661 24.2374 50.2875 24.419 52.2063Z" fill="#1E2C33"/>
</svg>
