<svg width="25" height="56" viewBox="0 0 25 56" fill="none" xmlns="http://www.w3.org/2000/svg">
<path d="M12.5005 26.8465C12.5005 26.8465 6.65116 27.2128 0.000488281 24.324C0.000488281 24.324 2.46442 49.3357 2.67481 50.892C2.88511 52.4482 3.32015 55.9268 3.32015 55.9268C3.32015 55.9268 9.13511 55.9268 12.5005 55.9268C15.8659 55.9268 21.7935 55.9268 21.7935 55.9268C21.7935 55.9268 22.1159 52.4482 22.3262 50.892C22.5366 49.3357 25.0005 24.324 25.0005 24.324C18.3498 27.2128 12.5005 26.8465 12.5005 26.8465Z" fill="#4A90CE"/>
<path d="M12.5 26.8467C12.5 26.8467 12.298 26.8589 11.9312 26.8611C12.2967 26.8598 12.5 26.8467 12.5 26.8467Z" fill="#A1C5E6"/>
<path d="M13.0693 26.8611C12.7024 26.8589 12.5005 26.8467 12.5005 26.8467C12.5005 26.8467 12.7037 26.8598 13.0693 26.8611Z" fill="#A1C5E6"/>
<path opacity="0.55" d="M14.5635 43.5108C8.14298 43.3282 3.91257 38.8404 1.70117 33.3567C2.38164 40.2172 3.305 49.4653 3.4255 50.3565C3.61906 51.7888 4.13239 56 4.13239 56H12.4501H20.7144C20.7144 56 21.3169 51.7888 21.5105 50.3565C21.591 49.7608 22.0306 45.4285 22.5162 40.5733C20.3566 42.461 17.6862 43.5996 14.5635 43.5108Z" fill="#275777"/>
<path opacity="0.55" d="M10.6484 26.8275C9.14536 26.7493 6.84257 26.5019 4.17285 25.7783C4.51539 30.2088 5.72223 50.5818 5.90441 55.8865H10.7709C10.5734 46.1838 11.0191 36.5224 10.6484 26.8275Z" fill="#1A4C7F"/>
<path d="M23.3948 24.9617C21.6202 25.6133 19.9353 26.0481 18.4453 26.3308C18.1365 31.925 16.3226 51.7562 16.3615 55.9388H20.1527C20.4815 54.2792 23.2719 26.4316 23.3948 24.9617Z" fill="#376698"/>
<path fill-rule="evenodd" clip-rule="evenodd" d="M25.0005 24.324H0.000488281C0.000488281 24.324 3.12546 27.0608 12.5005 27.0608C21.8755 27.0608 25.0005 24.324 25.0005 24.324Z" fill="#BCDBF1"/>
<path fill-rule="evenodd" clip-rule="evenodd" d="M25.0005 24.324H0.000488281C0.000488281 24.324 3.12546 26.2356 12.5005 26.2356C21.8755 26.2356 25.0005 24.324 25.0005 24.324Z" fill="#85BEE5"/>
<path fill-rule="evenodd" clip-rule="evenodd" d="M22.963 24.4871H2.03516C2.03516 24.4871 4.65109 26.6752 12.4991 26.6752C20.347 26.6752 22.963 24.4871 22.963 24.4871Z" fill="#195D96"/>
<path d="M6.1779 16.6474C6.1779 16.6474 3.45672 11.0316 3.15713 11.1498C2.85758 11.268 2.19616 16.5697 2.0376 17.5074L2.06673 17.5478C3.19801 19.1167 5.66473 18.9297 6.09098 17.0341L6.1779 16.6474Z" fill="#FAF3E9"/>
<path d="M3.2907 14.7682C3.11646 13.7464 2.98722 12.7481 2.94498 11.75C2.6169 13.186 2.16498 16.7542 2.0376 17.5075L2.06673 17.5479C2.59874 18.2857 3.41585 18.559 4.17722 18.4497C3.73022 17.2691 3.4969 15.9777 3.2907 14.7682Z" fill="#E2E2C9"/>
<path d="M3.53488 13.0762C3.69042 13.0571 4.22673 12.7286 4.1992 12.6801C3.69814 11.7936 3.12172 10.7327 3.12172 10.7327C3.12172 10.7327 2.73879 12.5615 2.71289 12.9842C2.71289 12.9842 3.05554 13.1358 3.53488 13.0762Z" fill="#222222"/>
<path d="M3.55976 13.0695C3.39485 12.837 3.26413 12.5772 3.16867 12.2948C3.06952 12.0017 3.02197 11.6875 2.99032 11.3784C2.87691 11.9482 2.72861 12.7266 2.71289 12.9843C2.71289 12.9843 3.05569 13.136 3.53488 13.0763C3.54128 13.0755 3.55197 13.0713 3.55976 13.0695Z" fill="#A4A4A4"/>
<path d="M7.48558 26.9089L6.17795 16.647C6.17795 16.647 4.57614 18.4664 2.0376 17.5071L3.18888 25.9872C4.5927 26.3116 6.03776 26.6637 7.48558 26.9089Z" fill="#FFDF4D"/>
<path d="M7.48625 26.9089L6.17862 16.647C6.17862 16.647 5.74684 17.029 5.04297 17.4449L6.27001 26.6831C6.67507 26.767 7.08035 26.8402 7.48625 26.9089Z" fill="#FFC346"/>
<path d="M4.51699 26.2941L3.27535 17.767C3.27312 17.7611 3.27084 17.755 3.26877 17.7491C3.09586 17.7461 2.91523 17.726 2.72907 17.6928C2.69589 17.6873 2.66259 17.6813 2.62901 17.6746C2.56179 17.6607 2.4947 17.6463 2.42604 17.6278C2.29924 17.5953 2.17054 17.557 2.0376 17.5068L3.18888 25.9869C3.62794 26.0884 4.07053 26.1897 4.51699 26.2941Z" fill="#FFC346"/>
<path d="M3.89509 26.1493C3.22101 21.3783 2.69335 17.6691 2.62548 17.2824C2.47078 16.4 2.59921 13.6709 2.59921 13.6709C2.44245 14.6693 2.28998 15.7623 2.17869 16.5505C2.16667 16.6341 2.15519 16.7154 2.14444 16.7915C2.14116 16.8148 2.13798 16.836 2.13486 16.8586C2.12384 16.935 2.11336 17.0079 2.10357 17.0751C2.10208 17.0862 2.10024 17.0982 2.0987 17.1092C2.08736 17.1858 2.07715 17.2545 2.06767 17.3166C2.06603 17.328 2.06429 17.3385 2.06264 17.3494C2.05343 17.4097 2.0448 17.4641 2.0376 17.5069L3.18888 25.987C3.42389 26.0413 3.65775 26.0935 3.89509 26.1493Z" fill="#EDD19C"/>
<path d="M11.7526 27.1225L11.9766 12.5471L11.9134 12.3955C11.657 12.5615 11.3911 12.6939 11.2417 12.8133C10.9297 13.0626 10.5495 13.2392 10.1547 13.2884C9.32304 13.3923 8.59428 12.8787 7.77898 12.6897L7.62354 26.9315C9.01624 27.1602 10.404 27.2629 11.7526 27.1225Z" fill="#FFC346"/>
<path d="M7.62061 25.8731C8.66538 25.7757 9.73169 25.8079 10.7711 25.7248C11.1209 25.697 11.4723 25.6774 11.812 25.6908L11.9777 12.5472L11.9143 12.3955C11.658 12.5616 8.59532 12.8787 7.78002 12.6897L7.62061 25.8731Z" fill="#E22F2B"/>
<path d="M11.8086 27.1179L11.8208 25.2126L7.61377 25.2485L7.60693 26.9288C9.02443 27.1623 10.4372 27.268 11.8086 27.1179Z" fill="#222222"/>
<path d="M11.9759 12.5471L10.3025 8.1272C9.9617 8.27724 9.5695 8.3068 9.21145 8.21928L7.77783 12.6969C10.3475 13.89 11.9759 12.5471 11.9759 12.5471Z" fill="#F9F6EF"/>
<path d="M10.4838 8.59306L10.0286 7.09308C9.9154 6.75566 9.63904 6.7963 9.55228 7.07801L9.10449 8.53096C9.4502 8.93573 10.0215 9.00551 10.4838 8.59306Z" fill="#A7A7A7"/>
<path opacity="0.55" d="M8.97555 27.1096C9.14397 19.6729 9.42726 13.2916 9.52054 13.1979C9.49375 13.1411 9.47114 13.0811 9.45844 13.0143C9.21941 11.7627 8.9773 10.41 8.9979 9.13133C8.99916 9.0486 9.00034 8.96218 9.00155 8.87598L7.78007 12.6906L7.77837 12.6903L7.77826 12.6967L7.77789 12.6975L7.77826 12.6976L7.62648 25.249L7.61377 25.2491L7.60693 26.9293C8.06415 27.0047 8.52014 27.0637 8.97555 27.1096Z" fill="#A9A8A8"/>
<path d="M15.4568 26.5831L17.2813 8.03026L14.9475 7.7937L13.0566 26.9533C13.8536 26.8319 14.6522 26.7099 15.4568 26.5831Z" fill="#EC9430"/>
<path d="M18.6436 26.0935L21.1516 0.621446L15.046 0L12.3755 27.058C14.4403 26.7507 16.5398 26.4072 18.6436 26.0935Z" fill="#EC9430"/>
<path d="M18.6423 26.0927L21.1509 0.620697L15.7047 0.0664062L13.0513 26.9529C14.8984 26.6716 16.767 26.3722 18.6423 26.0927Z" fill="#FFC346"/>
<path opacity="0.32" d="M18.6423 26.0934L18.905 23.425C17.1333 24.4423 15.3614 25.4591 13.5889 26.475C13.4162 26.574 13.2417 26.6798 13.0682 26.7818L13.0513 26.9536C14.8984 26.6723 16.767 26.3729 18.6423 26.0934Z" fill="#FFC346"/>
<path opacity="0.32" d="M14.6159 11.1137C15.8897 10.0821 17.2119 9.12593 18.6336 8.34357C19.4296 7.90561 20.0894 7.29372 20.5652 6.57861L19.6874 15.4929C19.3468 15.6676 19.0069 15.8431 18.6684 16.0193C17.0721 16.8501 15.4816 17.6953 13.8843 18.5266L14.6159 11.1137Z" fill="#FFC346"/>
<path d="M15.0474 0L21.1541 0.62155L21.0598 1.52665L15.6185 0.972828L15.0474 0Z" fill="#FFE345"/>
<path d="M20.7059 5.31138L20.6828 5.54652L18.5059 5.32592L18.5289 5.09082L20.7059 5.31138Z" fill="#844500"/>
<path d="M20.5994 6.39166L20.5763 6.62489L19.4878 6.51552L19.5109 6.28223L20.5994 6.39166Z" fill="#844500"/>
<path d="M20.4939 7.47314L20.4708 7.70644L19.3823 7.59705L19.4054 7.36377L20.4939 7.47314Z" fill="#844500"/>
<path d="M20.3855 8.55499L20.3624 8.78822L19.2739 8.67879L19.297 8.44556L20.3855 8.55499Z" fill="#844500"/>
<path d="M20.282 9.63623L20.2589 9.86952L19.1704 9.76004L19.1935 9.52686L20.282 9.63623Z" fill="#844500"/>
<path d="M20.1747 10.7187L20.1516 10.9537L17.9746 10.7331L17.9977 10.498L20.1747 10.7187Z" fill="#844500"/>
<path d="M20.0681 11.7996L20.045 12.0329L18.9565 11.9234L18.9796 11.6902L20.0681 11.7996Z" fill="#844500"/>
<path d="M19.9597 12.8814L19.9366 13.1146L18.8481 13.0052L18.8713 12.772L19.9597 12.8814Z" fill="#844500"/>
<path d="M19.8538 13.9625L19.8307 14.1957L18.7422 14.0863L18.7653 13.853L19.8538 13.9625Z" fill="#844500"/>
<path d="M19.7507 15.0443L19.7276 15.2775L18.6392 15.1681L18.6622 14.9348L19.7507 15.0443Z" fill="#844500"/>
<path d="M19.6429 16.1263L19.6199 16.3614L17.4429 16.1409L17.466 15.9058L19.6429 16.1263Z" fill="#844500"/>
<path d="M19.5363 17.2076L19.5133 17.4408L18.4248 17.3314L18.4479 17.0981L19.5363 17.2076Z" fill="#844500"/>
<path d="M19.4275 18.2887L19.4043 18.5219L18.3159 18.4125L18.339 18.1792L19.4275 18.2887Z" fill="#844500"/>
<path d="M19.3274 19.3704L19.3043 19.6037L18.2158 19.4942L18.239 19.261L19.3274 19.3704Z" fill="#844500"/>
<path d="M19.219 20.4517L19.1959 20.685L18.1074 20.5756L18.1305 20.3423L19.219 20.4517Z" fill="#844500"/>
<path d="M19.1112 21.534L19.088 21.7692L16.9111 21.5486L16.9342 21.3135L19.1112 21.534Z" fill="#844500"/>
<path d="M19.0046 22.6148L18.9816 22.848L17.8931 22.7386L17.9162 22.5054L19.0046 22.6148Z" fill="#844500"/>
<path d="M18.9016 23.6966L18.8785 23.9298L17.79 23.8205L17.8131 23.5872L18.9016 23.6966Z" fill="#844500"/>
<path d="M18.7933 24.7779L18.7701 25.0112L17.6816 24.9017L17.7048 24.6685L18.7933 24.7779Z" fill="#844500"/>
<path d="M23.0171 20.2323C23.0171 20.2323 22.1764 14.032 21.8555 14.0484C21.5344 14.0647 19.2622 18.8849 18.8208 19.7241L18.8359 19.7718C19.423 21.6227 21.8221 22.2344 22.8147 20.5716L23.0171 20.2323Z" fill="#FAF3E9"/>
<path d="M20.8598 17.5254C21.0114 16.4998 21.1984 15.511 21.468 14.5503C20.7111 15.8082 19.1754 19.0501 18.8208 19.7244L18.8359 19.7721C19.112 20.6425 19.8027 21.1633 20.5593 21.303C20.5012 20.0396 20.6804 18.7393 20.8598 17.5254Z" fill="#E2E2C9"/>
<path d="M21.6172 15.9983C21.7708 16.0298 22.3817 15.8896 22.3707 15.8347C22.1701 14.8332 21.9521 13.6418 21.9521 13.6418C21.9521 13.6418 21.0214 15.255 20.8657 15.6479C20.8657 15.6479 21.1438 15.9015 21.6172 15.9983Z" fill="#222222"/>
<path d="M21.643 15.9994C21.5586 15.7259 21.5152 15.4375 21.5122 15.1389C21.509 14.8291 21.5613 14.5157 21.6271 14.2122C21.3427 14.7167 20.9605 15.4081 20.8657 15.6476C20.8657 15.6476 21.1439 15.9012 21.6172 15.9979C21.6236 15.9992 21.6351 15.9986 21.643 15.9994Z" fill="#A4A4A4"/>
<path d="M21.9828 25.6446L23.0176 20.2324C23.0176 20.2324 20.933 21.4467 18.8213 19.7241L17.6299 26.2453C19.0816 26.0222 20.5339 25.8203 21.9828 25.6446Z" fill="#727272"/>
<path d="M21.9812 25.6446L23.0159 20.2324C23.0159 20.2324 22.4876 20.4568 21.6906 20.6263L20.7305 25.7966C21.1484 25.7406 21.5641 25.6952 21.9812 25.6446Z" fill="#222222"/>
<path d="M18.9331 26.0533L19.9153 20.367C19.915 20.3607 19.9147 20.3542 19.9146 20.3479C19.7514 20.2897 19.5863 20.213 19.4198 20.1219C19.3901 20.1061 19.3603 20.0897 19.3305 20.0726C19.271 20.0379 19.2119 20.0028 19.1524 19.9633C19.0421 19.8917 18.9318 19.8143 18.8213 19.7241L17.6299 26.2453C18.0644 26.1786 18.4981 26.1174 18.9331 26.0533Z" fill="#222222"/>
<path d="M18.3246 26.14C18.9522 22.5895 19.403 20.0197 19.4489 19.699C19.5758 18.812 20.5441 16.2629 20.5441 16.2629C20.0857 17.1603 19.602 18.1491 19.2518 18.8614C19.2145 18.9369 19.1784 19.0104 19.1445 19.0791C19.1342 19.1003 19.1247 19.1194 19.1147 19.1398C19.0805 19.2088 19.048 19.2746 19.0178 19.3352C19.0129 19.3454 19.0076 19.3562 19.0027 19.366C18.9681 19.4352 18.9371 19.4972 18.9089 19.553C18.9038 19.5633 18.8989 19.5728 18.8938 19.5826C18.8666 19.6367 18.8414 19.6857 18.8213 19.724L17.6299 26.2452C17.8617 26.2096 18.0926 26.175 18.3246 26.14Z" fill="#EDD19C"/>
<path fill-rule="evenodd" clip-rule="evenodd" d="M22.6463 24.3732C22.759 24.4107 22.8694 24.4482 22.9645 24.4867C22.9645 24.4867 20.3578 25.771 12.5099 25.771C4.66189 25.771 2.03654 24.4867 2.03654 24.4867C2.17369 24.4313 2.33531 24.3772 2.51114 24.324H0.000488281C0.000488281 24.324 3.13482 27.1328 12.5099 27.1328C21.8848 27.1328 25.0005 24.324 25.0005 24.324L22.6463 24.3732Z" fill="#9ED8FF"/>
<path fill-rule="evenodd" clip-rule="evenodd" d="M22.6463 24.3732C22.759 24.4107 22.8694 24.4482 22.9645 24.4867C22.9645 24.4867 20.2222 25.7656 12.3743 25.7656C4.52634 25.7656 2.03654 24.4867 2.03654 24.4867C2.17369 24.4313 2.33531 24.3772 2.51114 24.324H0.000488281C0.000488281 24.324 2.99927 26.6493 12.3743 26.6493C21.7493 26.6493 25.0005 24.324 25.0005 24.324L22.6463 24.3732Z" fill="#74BEED"/>
</svg>
