<svg width="69" height="56" viewBox="0 0 69 56" fill="none" xmlns="http://www.w3.org/2000/svg">
<path d="M30.4272 19.395L32.8452 55.9999H61.2918L30.4272 19.395Z" fill="#1B4F58"/>
<path d="M30.0903 13.179L30.4315 19.395L39.0367 13.179H30.0903Z" fill="#1B4F58"/>
<path d="M1.28143 0L0.000488281 55.9997H9.94767L9.4924 0H1.28143Z" fill="#1B4F58"/>
<path d="M9.49072 0L9.94599 55.9997H13.1889H22.0783L19.2764 6.59643L18.7501 0H9.49072Z" fill="#217382"/>
<path d="M30.0847 13.1791L29.7148 6.59668H19.2749L22.0769 56H32.8438L30.4258 19.3951L30.0847 13.1791Z" fill="#B1AA27"/>
<path d="M30.4272 19.395L61.2918 55.9999L69.0008 48.8819L39.0324 13.179L30.4272 19.395Z" fill="#4B872A"/>
<path d="M43.8816 18.9543L34.5605 24.2951L36.5217 26.6213L45.4351 20.8051L43.8816 18.9543Z" fill="#FFAD23"/>
<path d="M30.2124 15.4465L19.7388 14.7185L20.1173 21.3904L30.5011 20.484L30.2124 15.4465Z" fill="#FFAD23"/>
<path d="M19.3394 7.70679H9.49072L9.57101 9.86723L19.5129 10.7668L19.3394 7.70679Z" fill="#EB8E17"/>
</svg>
