<svg width="96" height="48" viewBox="0 0 96 48" fill="none" xmlns="http://www.w3.org/2000/svg">
<path d="M0.46875 0.429443L7.72369 47.9997H72.868L68.1771 0.429443H0.46875Z" fill="url(#paint0_linear_13432_246816)"/>
<path d="M68.1748 0.429443H69.9659L74.2105 44.5442H95.9999L95.2925 47.9997H72.8657L68.1748 0.429443Z" fill="#1C5A6C"/>
<path d="M29.4521 22.3435L34.6873 27.643L29.4521 30.2211C30.9641 32.4554 34.6487 32.7469 36.8506 31.8956C39.8729 30.727 41.7434 26.7156 40.4587 23.6737C38.9991 20.2175 31.7616 18.7631 29.4521 22.3435Z" fill="#9AE3BA"/>
<g style="mix-blend-mode:screen">
<path d="M3.99707 0.429443C3.99707 1.1456 24.6546 46.6927 24.6546 46.6927H41.1879L28.7578 0.429443H3.99707Z" fill="url(#paint1_linear_13432_246816)"/>
</g>
<path d="M7.72222 48L1.20265 0.859417H69.6836L70.4347 5.29524L70.1081 0H0L7.72222 48Z" fill="#FEFCDD"/>
<defs>
<linearGradient id="paint0_linear_13432_246816" x1="-12.435" y1="-41.7449" x2="48.1246" y2="35.6189" gradientUnits="userSpaceOnUse">
<stop stop-color="#9AE3BA"/>
<stop offset="1" stop-color="#2D7884"/>
</linearGradient>
<linearGradient id="paint1_linear_13432_246816" x1="13.8688" y1="-11.1381" x2="35.8743" y2="74.289" gradientUnits="userSpaceOnUse">
<stop stop-color="#2A6045"/>
<stop offset="1"/>
</linearGradient>
</defs>
</svg>
