<svg width="72" height="80" fill="none" xmlns="http://www.w3.org/2000/svg"><path d="M51.428 60.498c-6.68-1.11-27.858-1.071-27.787 1.106l3.315 15.843h.001c-.191 1.455 5.9 2.68 11.925 2.543 4.923-.113 9.813-1.219 11.113-3.16.045-.15.08-.301.103-.456l2.234-14.17c.167-1.06.554-1.465-.904-1.706Z" fill="url(#a)"/><path fill-rule="evenodd" clip-rule="evenodd" d="M37.645 79.09c4.601-.019 9.49-.653 11.498-2.415.036-.12.065-.248.085-.38l2.158-14.116c-4.894.792-18.953.879-26.456.265l2.893 14.907c.587.61 4.22 1.762 9.822 1.739Z" fill="url(#b)"/><path fill-rule="evenodd" clip-rule="evenodd" d="M24.634 61.339c.048.578 7.417.898 14.426.809 6.545-.083 12.765-.536 12.72-1.077-.039-.47-6.434-.91-13.734-.844-6.18.056-13.46.528-13.412 1.112Z" fill="#DB863D"/><path d="M38.043 60.703c2.87-.016 5.479.005 7.377.052 2.08.052 3.376.147 3.394.274.018.127-1.248.237-3.31.313-1.882.068-4.48.12-7.35.136a256.17 256.17 0 0 1-7.378-.053c-2.08-.051-3.375-.147-3.393-.274-.019-.127 1.248-.237 3.31-.312 1.881-.069 4.48-.12 7.35-.136Z" fill="#724B36"/><path fill-rule="evenodd" clip-rule="evenodd" d="M41.946 61.434c4.743-8.123 8.175-28.402 8.578-32.94l.618-9.984c-2.784 11.125-5.354 30.343-10.923 39.508 5.809-15.365 8.617-41.722 1.483-51.712 1.112 10.541 1.605 18.428 1.29 25.952-.339-4.63-1.397-9.308-3.3-14.065l.006.116c.816 14.978 1.409 17.385-.27 26.422-.162-4.463-.467-9.006-.981-13.405C36.672 16.156 32.39 2.68 22.769 0c6.554 6.585 10.154 15.658 12.351 26.141-2.268-5.771-5.5-10.6-9.387-14.733a56.335 56.335 0 0 0-6.391-5.795c3.338 5.905 6.1 9.954 8.406 13.558 4.588 7.17 7.367 12.58 9.26 27.321.113.875.222 1.78.328 2.723l-.5-.902-.167-.301c-1.228-5.94-3.358-11.919-5.73-16.56-2.527-4.943-5.33-8.371-7.607-8.619 2.12 2.774 4.737 8.267 7.117 14.57-6.901-10.88-15.131-20.205-24.165-17.367 11.978 4.31 18.3 14.962 27.224 26.467-5.002-5.907-11.965-8.53-14.814-6.707 3.115 7.34 19.778 6.114 17.14 21.686a326.596 326.596 0 0 0 6.112-.048Z" fill="#506518"/><path fill-rule="evenodd" clip-rule="evenodd" d="M14.151 43.887c3.786 6.373 20.286.529 19.012 16.74a9.58 9.58 0 0 1-.1.838c1.398.016 2.992.022 4.685.014 5.052-6.928 6.938-32.35 6.91-37.451l-.319-9.98c-1.722 11.696-2.475 31.287-7.142 41.823 4.325-16.695 4.65-43.364-3.358-51.218 2.087 10.05 3.313 17.665 3.702 25.144a40.002 40.002 0 0 0-4.586-12.911l.018.112c2.208 14.492 3.02 16.694 2.198 26.036-.577-4.34-1.303-8.72-2.224-12.903-3.176-14.416-8.68-26.48-18.47-26.468 7.112 4.668 11.53 12.592 14.687 22.288-2.788-5.046-6.444-8.9-10.685-11.894-2.154-1.52-4.459-2.818-6.877-3.936 3.86 4.883 6.978 8.102 9.602 11.01 5.219 5.783 8.48 10.334 11.733 24.297.193.83.386 1.69.58 2.586l-.581-.75-.194-.249C30.97 41.516 28.3 36.228 25.513 32.32c-2.967-4.163-6.065-6.76-8.346-6.377 2.36 2.143 5.468 6.82 8.417 12.358C17.724 29.509 8.694 22.61 0 27.883c12.28.94 19.544 9.669 29.467 18.52-5.512-4.429-12.662-5.092-15.316-2.516Z" fill="url(#c)"/><path fill-rule="evenodd" clip-rule="evenodd" d="M45.912 35.416c2.102-5.831 4.536-10.956 6.65-13.607-2.504.4-5.32 3.69-7.7 8.317-2.236 4.343-4.088 9.864-4.944 15.28l-.159.283-.478.848c.038-.853.082-1.673.131-2.465.843-13.35 3.463-18.414 7.94-25.196 2.25-3.408 4.97-7.252 8.167-12.802-2.368 1.767-4.582 3.656-6.593 5.692-3.959 4.008-7.132 8.586-9.156 13.932 1.543-9.56 4.762-17.97 11.469-24.381-10.442 3.156-14.042 15.56-14.716 29.285-.195 3.981-.145 8.073.056 12.083-2.633-7.961-2.182-10.163-2.554-23.641l-.003-.104c-1.705 4.41-2.48 8.68-2.46 12.854-.992-6.713-1.118-13.815-.784-23.342-7.06 9.507-1.697 32.89 6.056 46.194-6.958-7.77-11.448-24.779-15.485-34.523l1.537 8.892c.891 4.31 6.963 26.085 13.279 32.468a337.716 337.716 0 0 0 6.116-.055c.42-1.008.236-2.367-.25-3.898-4.41-13.865 14.285-14.055 17.123-20.894-3.315-1.409-10.814 1.488-15.859 7.171 8.916-11.005 15.02-21.042 27.938-25.842-10.262-1.832-18.595 7.165-25.321 17.45Z" fill="url(#d)"/><path fill-rule="evenodd" clip-rule="evenodd" d="M46.679 39.168c2.102-5.83 4.536-10.955 6.65-13.606-2.504.4-5.32 3.69-7.7 8.316-2.236 4.343-4.088 9.865-4.943 15.28l-.16.283-.478.848c.037-.853.081-1.673.132-2.465.842-13.35 3.462-18.413 7.94-25.195 2.25-3.409 4.968-7.252 8.166-12.802-2.368 1.766-4.582 3.655-6.593 5.691-3.959 4.008-7.132 8.586-9.155 13.932C42.08 19.89 45.3 11.48 52.005 5.07 41.564 8.225 37.965 20.63 37.29 34.353c-.195 3.982-.145 8.074.056 12.084-2.633-7.962-2.182-10.164-2.554-23.642l-.003-.104c-1.705 4.41-2.48 8.681-2.46 12.855-.992-6.713-1.119-13.816-.784-23.343-7.06 9.508-1.697 32.891 6.056 46.195-6.958-7.77-11.448-24.779-15.485-34.523l1.537 8.892c.83 4.011 6.313 21.736 12.232 28.715a305.778 305.778 0 0 0 6.958-.066l-.045-.135c-4.41-13.865 14.286-14.055 17.123-20.893-3.314-1.409-10.814 1.487-15.859 7.17C52.978 36.554 59.082 26.518 72 21.717c-10.262-1.832-18.594 7.166-25.321 17.45Z" fill="url(#e)"/><defs><linearGradient id="a" x1="38.372" y1="55.712" x2="37.262" y2="76.989" gradientUnits="userSpaceOnUse"><stop stop-color="#724B36"/><stop offset="1" stop-color="#DF6618"/></linearGradient><linearGradient id="b" x1="38.66" y1="69.998" x2="72.891" y2="65.591" gradientUnits="userSpaceOnUse"><stop stop-color="#DC7A1D"/><stop offset="1" stop-color="#FFFF3C"/></linearGradient><linearGradient id="c" x1="18.658" y1="85.503" x2="22.78" y2="19.228" gradientUnits="userSpaceOnUse"><stop stop-color="#181B06"/><stop offset="1" stop-color="#89B02A"/></linearGradient><linearGradient id="d" x1="60.834" y1="70.284" x2="46.425" y2="21.468" gradientUnits="userSpaceOnUse"><stop stop-color="#393D0E"/><stop offset="1" stop-color="#C3F339"/></linearGradient><linearGradient id="e" x1="60.539" y1="70.38" x2="47.022" y2="24.488" gradientUnits="userSpaceOnUse"><stop stop-color="#393D0E"/><stop offset="1" stop-color="#C3F339"/></linearGradient></defs></svg>