<svg width="71" height="56" viewBox="0 0 71 56" fill="none" xmlns="http://www.w3.org/2000/svg">
<path d="M2.19165 6.03033C3.09702 5.29396 4.9997 3.72939 6.14791 3.48608C6.08899 3.50601 6.03 3.52586 5.97745 3.54512C5.07181 3.89374 4.33045 4.42664 4.06165 5.28114C5.14418 6.35265 6.05599 7.94352 6.82391 9.79695C7.68985 11.8681 8.3591 14.2544 8.88386 16.6015C8.65448 16.5489 8.4379 16.5027 8.24762 16.4635C7.83433 16.391 7.49958 16.3582 7.26987 16.3781L2.66388 17.2191C2.30314 15.8979 1.55507 13.7876 1.29269 12.8542C0.918823 11.6581 0.426733 10.5006 0 9.35721C0.216565 8.08795 1.16134 6.9503 2.19165 6.03033Z" fill="#E45E21"/>
<path d="M16.3903 26.4956C14.7436 24.8976 0.735352 17.5679 0.735352 17.5679L2.6643 17.2193L7.2703 16.3783C7.50001 16.3584 7.83476 16.3911 8.24805 16.4636C8.43832 16.5028 8.65491 16.549 8.88429 16.6017C9.55353 16.7532 10.3673 16.9831 11.2794 17.2719C11.7058 17.4035 12.1585 17.5551 12.6243 17.7123C13.0376 17.8575 13.4576 18.0083 13.8907 18.1663C14.3498 18.3306 14.8157 18.5078 15.2814 18.6856C17.6435 19.5928 20.1107 20.6778 22.1707 21.7493C22.6497 21.999 23.1155 22.2487 23.5486 22.4921C24.7558 23.1822 25.7204 23.8531 26.3044 24.4444L16.5152 26.6664C16.4758 26.5944 16.4364 26.5353 16.3903 26.4956Z" fill="#F7941E"/>
<path d="M40.8435 3.34804C33.318 1.7437 17.0002 8.6536 12.624 17.7122C12.1582 17.5549 11.7055 17.4034 11.279 17.2718C10.2161 11.5329 8.31982 4.41956 5.97754 3.54513C6.03009 3.52587 6.08908 3.50602 6.148 3.4861C7.61784 2.96675 9.44848 2.88772 10.4195 2.74973C18.3913 1.58645 28.5348 -0.445537 36.9135 0.0873547C39.5444 0.146399 39.7152 1.03363 40.8435 3.34804Z" fill="#F7941E"/>
<path d="M70.7293 18.679C70.9721 20.4797 71.031 23.0702 70.9852 25.8834C70.2634 30.6439 67.5406 35.9687 64.3779 38.9598C64.6471 33.3063 65.0209 24.5885 64.739 20.1446L70.7293 18.679Z" fill="#F7941E"/>
<path d="M70.9866 25.8835C70.9078 31.4657 70.4353 37.9545 70.2844 41.083C68.3881 42.74 66.1904 43.3511 64.1826 43.3909C64.2153 42.4703 64.2941 40.8923 64.3793 38.9599C67.542 35.9688 70.2648 30.644 70.9866 25.8835Z" fill="#F7941E"/>
<path d="M49.9102 13.6104C54.1093 12.0196 61.9301 13.3074 65.5455 14.2935L65.6045 14.0245C67.494 14.6492 68.9834 15.3322 69.7578 16.0686L64.0363 17.2519C62.5469 16.2793 55.31 14.6883 49.9102 13.6104Z" fill="#F7941E"/>
<path d="M64.0371 17.2516L69.7586 16.0684C69.9815 16.2854 70.1523 16.5024 70.2507 16.7194C70.4541 17.1668 70.6114 17.8371 70.7297 18.6788L64.7394 20.1444C64.6538 18.698 64.4965 17.6991 64.2405 17.4102C64.1947 17.3569 64.129 17.3042 64.0371 17.2516Z" fill="#F9A01F"/>
<path d="M64.1742 43.5752C63.118 42.6147 61.5434 42.2405 60.3689 41.524C60.9792 37.8293 60.8805 33.4181 60.9856 29.414C61.5366 29.0987 61.8583 28.8091 61.924 28.5466C61.9634 27.2581 62.3045 24.2272 61.9371 23.3599C61.9634 23.3464 61.9829 23.3399 62.0092 23.3329C59.6276 21.2034 55.4217 20.2827 52.2526 19.547C50.0023 18.8562 47.6008 18.5538 45.3044 18.4357C45.2519 16.4172 44.6547 14.4059 43.9922 12.46C44.681 12.5845 47.0366 13.0249 49.9104 13.6104C55.3102 14.6883 62.5471 16.2792 64.0365 17.2519C64.1284 17.3045 64.1941 17.3571 64.2399 17.4104C64.4959 17.6993 64.6532 18.6982 64.7387 20.1447C65.0207 24.5886 64.6468 33.3064 64.3777 38.9599C64.2924 40.8923 64.2136 42.4703 64.181 43.3909C64.181 43.4564 64.181 43.5155 64.1742 43.5752Z" fill="#E45E21"/>
<path d="M27.7871 30.2819C38.1998 28.7373 59.0774 24.6021 61.9383 23.3599C62.3057 24.2272 61.9646 27.2581 61.9252 28.5466C61.8595 28.8091 61.5378 29.0987 60.9868 29.4139C56.5186 31.9717 37.1041 35.936 27.9841 36.8496C27.9905 34.7002 27.9511 32.6027 27.8265 30.7557C27.8134 30.5914 27.8002 30.4398 27.7871 30.2819Z" fill="#F58422"/>
<path d="M52.254 19.5471C55.4231 20.2829 59.629 21.2035 62.0106 23.333C61.9843 23.3401 61.9648 23.3465 61.9385 23.36C59.0776 24.6022 38.2 28.7374 27.7873 30.282C27.7217 29.4474 27.6364 28.6719 27.5317 27.9747C27.2953 26.3902 26.9409 25.2006 26.4424 24.5959C26.403 24.5496 26.3504 24.497 26.3046 24.4443C25.7206 23.853 24.756 23.1822 23.5488 22.492C23.1157 22.2486 22.6499 21.999 22.1709 21.7492C24.625 21.276 26.9082 20.9011 28.3057 20.5916C33.1677 19.4938 38.0033 18.5539 42.8912 18.3633C42.9043 18.3633 42.9111 18.3633 42.9242 18.3633C43.6918 18.3697 44.4921 18.3967 45.3059 18.4358C47.6023 18.5539 50.0037 18.8563 52.254 19.5471Z" fill="#F16B23"/>
<path d="M47.7388 37.7438C50.5075 38.4268 52.3317 41.2343 53.5126 43.9038C47.1943 45.7046 37.6937 48.3541 27.4844 51.1808C27.5501 49.6362 27.6615 47.5195 27.7666 45.1325C27.8323 43.568 27.8977 41.8917 27.9371 40.202C28.3308 40.0967 28.7309 39.9921 29.1247 39.8932C34.3867 38.4602 42.2734 36.0675 47.7388 37.7438Z" fill="#CB5B1D"/>
<path d="M65.606 14.0247L65.5471 14.2937C61.9316 13.3076 54.1108 12.0197 49.9117 13.6106C47.0379 13.0251 44.6823 12.5846 43.9935 12.4601C43.7243 11.6839 43.4424 10.9148 43.1797 10.1592C45.6401 10.1849 58.487 11.6711 65.606 14.0247Z" fill="#F16B23"/>
<path d="M43.1784 10.1589C43.4411 10.9145 43.723 11.6836 43.9922 12.4598C44.6547 14.4057 45.2519 16.4171 45.3044 18.4355C44.4906 18.3964 43.6904 18.3694 42.9228 18.363C42.9096 18.363 42.9029 18.363 42.8898 18.363C38.0019 18.5537 33.1662 19.4935 28.3042 20.5914C26.9068 20.9008 24.6235 21.2757 22.1694 21.7489C20.1095 20.6774 17.6423 19.5924 15.2802 18.6853C14.8144 18.5074 14.3486 18.3303 13.8895 18.1659C13.4563 18.0079 13.0363 17.8571 12.623 17.712C16.9993 8.65339 33.3171 1.74349 40.8426 3.34783C40.8688 3.38702 40.8887 3.43324 40.9083 3.47308C41.6496 5.13586 42.2141 7.34495 42.785 8.99492C42.9096 9.38266 43.0407 9.77106 43.1784 10.1589Z" fill="#F58422"/>
<path d="M60.9863 29.4141C60.8812 33.4182 60.9799 37.8294 60.3695 41.5241C60.3564 41.6487 60.3302 41.7803 60.3039 41.9119C59.0506 42.3061 56.6821 43.0033 53.513 43.904C52.3321 41.2346 50.5079 38.4271 47.7392 37.744C42.2738 36.0677 34.3871 38.4605 29.1251 39.8934C28.7313 39.9923 28.3312 40.097 27.9375 40.2022C27.9506 39.5191 27.9637 38.8347 27.9769 38.1446C27.9769 37.7112 27.9769 37.2837 27.9836 36.8497C37.1036 35.9362 56.518 31.9718 60.9863 29.4141Z" fill="#BA5423"/>
<path d="M27.8249 30.7558C27.9496 32.6028 27.9889 34.7002 27.9826 36.8496C27.9758 37.2837 27.9758 37.7112 27.9758 38.1445C27.9627 38.8347 27.9496 39.519 27.9364 40.2022C27.897 41.8919 27.8317 43.5682 27.766 45.1327C27.6609 47.5197 27.5494 49.6364 27.4837 51.181C27.4774 51.2927 27.4706 51.4044 27.4642 51.5033C27.4444 52.049 27.4248 52.5093 27.418 52.8644C24.938 55.1845 19.9647 55.9344 17.196 55.9999C17.255 52.5485 17.7403 37.1912 17.1367 30.0585L27.5298 27.9746C27.6346 28.6718 27.7199 29.4473 27.7855 30.282C27.7987 30.4399 27.8118 30.5914 27.8249 30.7558Z" fill="#F7941E"/>
<path d="M17.1378 30.0584C17 28.3821 16.7966 27.1655 16.5146 26.6661L26.3039 24.4441C26.3497 24.4968 26.4022 24.5493 26.4417 24.5956C26.9401 25.2004 27.2945 26.39 27.5309 27.9744L17.1378 30.0584Z" fill="#F9A01F"/>
<path d="M16.5147 26.6661C16.7967 27.1655 17.0001 28.3821 17.1379 30.0584C17.7414 37.191 17.2561 52.5484 17.1971 55.9998C16.8624 55.75 15.8977 54.8365 14.5855 53.5608C14.1853 49.9913 12.0398 45.4221 10.7606 42.4375C8.12935 36.6652 4.53384 33.1484 0.564453 29.1378L0.734886 17.5676C0.734886 17.5676 14.7431 24.8973 16.3898 26.4953C16.4359 26.5351 16.4753 26.5942 16.5147 26.6661Z" fill="#E46725"/>
<path d="M0.564492 29.1377C4.53388 33.1483 8.12939 36.6652 10.7606 42.4374C12.0399 45.4221 16.797 52.4302 17.1971 55.9997C12.2401 52.6331 1.16134 45.2725 0 44.5432L0.564492 29.1377Z" fill="#E45E21"/>
<path d="M5.97732 3.54517C8.3196 4.41959 10.2158 11.533 11.2788 17.2718C10.3668 16.9829 9.55297 16.7531 8.88373 16.6016C8.35897 14.2544 7.68972 11.8681 6.82378 9.797C6.05586 7.94357 5.14405 6.3527 4.06152 5.28119C4.33032 4.42668 5.07168 3.89379 5.97732 3.54517Z" fill="#F58422"/>
</svg>
