<svg width="13" height="56" viewBox="0 0 13 56" fill="none" xmlns="http://www.w3.org/2000/svg">
<path d="M5.83486 30.7404C5.99024 24.2863 0.457374 18.6337 0 12.1906C2.49263 15.4989 4.38148 19.1884 5.20214 23.0874C4.66023 17.2847 6.26707 11.1487 9.12243 5.89209C8.99012 12.1282 9.05012 18.2032 8.91787 24.4393C10.1735 20.3016 11.1361 16.401 12.3917 12.2633C13.2652 18.4948 11.0099 24.701 8.78389 30.6685C7.88204 30.6691 6.73671 30.7398 5.83486 30.7404Z" fill="#AE8D20"/>
<path d="M6.77608 30.1582C6.5371 27.005 5.48265 23.9509 4.66625 20.8729C3.84981 17.7949 3.26793 14.5834 3.98313 11.4861C5.17888 15.6687 6.14618 19.6978 7.34202 23.8803C6.98399 20.1691 8.47366 16.5113 9.42255 12.8809C10.5235 8.66854 10.7377 4.27936 10.0511 0C11.4103 2.05931 11.9554 4.60547 11.9924 6.98436C12.0294 9.36327 11.6048 11.727 11.1814 14.077C10.2136 19.4484 9.24582 24.8198 8.27803 30.1913C7.81581 30.1579 7.23833 30.1915 6.77608 30.1582Z" fill="#DDBF2C"/>
<path d="M12.9993 52.7702C12.5917 53.9135 12.1189 55.0998 11.2875 56.0001H7.46429H3.64936C2.80975 55.0998 2.34511 53.9135 1.9375 52.7702C4.84767 45.1525 5.5813 37.2061 4.33411 29.4241H7.46429H10.5946C9.07832 37.542 10.0484 45.4455 12.9993 52.7702Z" fill="url(#paint0_linear_13345_316404)"/>
<path d="M8.94657 40.9982C9.12712 38.9806 9.45886 36.9333 9.94858 34.9174C10.0424 33.0999 10.252 31.268 10.5964 29.4241H7.46612H4.33594C4.75794 32.0573 4.94735 34.7093 4.9082 37.361C4.92935 37.4379 4.94917 37.5166 4.9703 37.5933C5.51755 35.8461 6.06479 34.0989 6.61198 32.3517C6.50135 34.5917 6.74447 36.8449 7.33208 39.027C7.60242 37.8458 7.87265 36.6646 8.143 35.4834C8.41088 37.3217 8.67869 39.1599 8.94657 40.9982Z" fill="url(#paint1_linear_13345_316404)"/>
<g style="mix-blend-mode:screen">
<path d="M7.06162 29.8665C7.83863 37.3428 6.42196 46.1018 5.06001 52.2608C5.24995 53.2492 5.50455 54.1502 5.69452 55.1386H4.63892C4.20318 54.288 3.85763 53.2717 3.42188 52.4211C5.37619 45.0485 5.93944 37.394 5.08195 29.8624C5.6374 29.9201 6.50617 29.8089 7.06162 29.8665Z" fill="url(#paint2_linear_13345_316404)"/>
</g>
<defs>
<linearGradient id="paint0_linear_13345_316404" x1="-3.09987" y1="42.7121" x2="11.8571" y2="42.7121" gradientUnits="userSpaceOnUse">
<stop stop-color="#429799"/>
<stop offset="0.282078" stop-color="#419496"/>
<stop offset="0.525809" stop-color="#3E8A8B"/>
<stop offset="0.755245" stop-color="#397979"/>
<stop offset="0.974818" stop-color="#326160"/>
<stop offset="1" stop-color="#315E5D"/>
</linearGradient>
<linearGradient id="paint1_linear_13345_316404" x1="4.33594" y1="35.2111" x2="10.5964" y2="35.2111" gradientUnits="userSpaceOnUse">
<stop stop-color="#FCAF3B"/>
<stop offset="1" stop-color="#E56F18"/>
</linearGradient>
<linearGradient id="paint2_linear_13345_316404" x1="5.71514" y1="30.8478" x2="5.02802" y2="55.1667" gradientUnits="userSpaceOnUse">
<stop stop-color="#97A27D"/>
<stop offset="0.7363" stop-color="#1A1B15"/>
<stop offset="0.882682"/>
</linearGradient>
</defs>
</svg>
