<svg width="72" height="42" viewBox="0 0 72 42" fill="none" xmlns="http://www.w3.org/2000/svg">
<path d="M71.999 1.12141V40.2008L1.09065 41.5001L0.280273 40.8717L70.9092 39.5806V0.508789L71.999 1.12141Z" fill="#A77840"/>
<path d="M4.01374 31.2504V36.7725L5.10359 36.7558V37.3933L15.1399 37.261L62.3344 36.6568L68.044 36.5818V4.70595L66.9557 4.77256V4.08496L4.01374 7.96051V31.2504ZM70.9089 0.508213V39.58L0.279904 40.8711L-0.000976562 40.6555L1.09028 5.98943L70.8394 0.508213L70.9089 0.5V0.508213Z" fill="#C49A6C"/>
<path d="M70.8394 0.508789L1.09028 5.99001L-0.000976562 40.6561V5.36902L70.8394 0.508789Z" fill="#C49A6C"/>
<path d="M66.955 26.0663V4.77242L68.0432 4.70581V36.5817L62.3336 36.6566V36.6158C60.5492 36.6158 58.7772 36.4327 57.0762 36.0848L66.955 35.9607V26.0663Z" fill="#C49A6C"/>
<path d="M66.9586 26.0669V35.9613L57.0798 36.0854C56.3467 35.9371 55.6196 35.7548 54.9187 35.5476C52.2407 34.5795 46.8938 34.0319 45.3456 31.5489C42.3897 32.5086 39.9894 34.7195 36.6106 34.0319C34.9204 33.6182 33.3753 32.65 31.8285 32.0949C28.8711 32.9231 26.3366 35.134 23.2372 35.9613C22.1473 36.2186 21.0499 36.4091 19.9493 36.5657L5.10645 36.7562V31.8469C7.97907 32.7908 14.0606 31.6888 14.6442 29.7517C14.9898 28.7248 13.3013 28.5265 11.5446 28.2785L11.5523 28.2368C11.4335 22.8222 17.9567 26.7303 21.3695 28.3533C21.3771 28.3533 21.3771 28.3533 21.3771 28.3533C22.0439 29.4788 22.7649 30.3977 24.3594 30.58C26.616 30.8531 29.717 29.8926 31.5415 28.7836C33.653 27.4088 35.6288 25.0572 33.5173 22.5735C32.3859 21.0584 29.717 21.1998 27.8832 20.9177C27.908 20.9587 27.9343 21.0009 27.9512 21.0418C27.1068 20.9345 26.6315 20.1561 26.8953 19.2622C27.3183 17.3328 30.8393 17.4734 32.3859 17.6057C35.3927 18.1026 37.6247 20.0071 40.3522 21.0093C41.5284 22.4909 42.6598 24.0309 43.9348 25.3385C46.6129 28.0962 52.2407 29.7517 55.9066 27.5418C59.8027 25.2228 54.0652 20.7522 51.489 22.3911C51.0397 21.4889 54.8015 20.802 55.7631 20.9177C57.6309 21.2082 59.0834 21.8942 60.7905 22.292C60.9835 22.4743 61.1873 22.665 61.3988 22.8555C62.6906 24.2547 64.9551 26.1259 66.9586 26.0669Z" fill="#95AAD8"/>
<path d="M60.7887 22.2914C59.969 21.5216 59.1926 20.7931 58.356 20.2054C59.0908 19.9658 59.4288 18.8305 59.7746 18.2269C58.5922 17.7216 57.3419 17.2656 56.0576 16.8602L56.5053 15.5518C57.2647 15.7922 58.035 15.9911 58.8036 16.1236C57.5009 15.4118 56.9606 13.5149 56.9606 12.1572C57.0286 10.0213 58.018 8.70455 59.7746 7.53755C59.3685 7.45437 58.9457 7.4302 58.5227 7.45437L58.39 5.30268L66.9567 4.77246V26.0663C64.9533 26.1253 62.6888 24.2542 61.3969 22.855C61.1854 22.6644 60.9817 22.4738 60.7887 22.2914Z" fill="#ACBCE1"/>
<path d="M66.9566 4.08521V4.7728L58.3899 5.30302L5.1045 8.58098V31.8467C4.64756 31.706 4.27561 31.5077 4.01465 31.2506V7.96075L66.9566 4.08521Z" fill="#A77840"/>
<path d="M62.3332 36.616V36.6568L15.1387 37.2611C16.7193 37.004 18.3323 36.8141 19.9453 36.5653L57.0757 36.085C58.7768 36.4329 60.5488 36.616 62.3332 36.616Z" fill="#C49A6C"/>
<path d="M58.3547 20.206C59.1913 20.7937 59.9677 21.5222 60.7874 22.292C59.0802 21.8942 57.6277 21.2082 55.7599 20.9178C54.7983 20.802 51.0366 21.4889 51.4858 22.3911C51.4504 22.3995 51.418 22.4252 51.3916 22.441C51.4427 22.4502 51.4951 22.4578 51.5367 22.466C52.4305 22.6399 52.9121 23.3108 52.3811 24.2206V24.2298C50.6662 24.9498 47.9711 25.0913 47.1685 23.1286C46.0787 20.3219 50.9439 19.1956 53.2934 18.8726C53.3011 18.8726 53.3087 18.865 53.318 18.8726C53.6221 18.8561 53.9185 18.8401 54.2149 18.8228C55.9034 18.8401 57.1877 19.3863 58.3547 20.206Z" fill="#CED7ED"/>
<path d="M54.2141 18.8225C53.9857 18.8225 53.748 18.8308 53.5025 18.8482C53.4439 18.8558 53.3775 18.8648 53.3173 18.8724C53.308 18.8648 53.3003 18.8724 53.2926 18.8724C52.135 18.914 50.9694 18.8891 49.9137 18.3679C48.3671 17.6804 47.7342 16.0905 46.8203 14.7829L46.862 14.6006C49.8118 15.1799 53.0225 15.8917 56.0555 16.8605C57.3398 17.2659 58.59 17.7219 59.7725 18.2272C59.4267 18.8308 59.0887 19.9661 58.3539 20.2057C57.1869 19.386 55.9026 18.8398 54.2141 18.8225Z" fill="#EBDFE2"/>
<path d="M58.5217 7.45421C58.9447 7.43005 59.3675 7.45421 59.7735 7.5374C58.017 8.70439 57.0275 10.0212 56.9596 12.1571C56.9596 13.5148 57.4999 15.4116 58.8026 16.1234C58.0339 15.991 57.2637 15.7921 56.5042 15.5517C54.7214 14.9889 52.9896 14.2106 51.375 13.6478L51.3919 13.6063C51.5787 10.5674 55.3219 7.63731 58.5217 7.45421Z" fill="#EBDFE2"/>
<path d="M52.3842 24.2204C52.9153 23.3105 52.4337 22.6396 51.5399 22.4657C51.523 22.4408 51.5061 22.4166 51.489 22.3909C54.0652 20.7519 59.8027 25.2226 55.9066 27.5416C52.2407 29.7515 46.6129 28.0959 43.9348 25.3383C42.6598 24.0306 41.5284 22.4906 40.3522 21.009C38.1835 18.2597 35.8588 15.7101 32.108 15.2623C28.4497 14.8487 23.2372 15.4039 21.547 19.1287C20.2797 21.8856 21.6905 24.6433 24.648 25.057C28.1102 25.4624 29.5302 23.7417 27.9512 21.0416C27.9343 21.0007 27.908 20.9584 27.8832 20.9175C29.717 21.1996 32.3859 21.0581 33.5173 22.5732C35.6288 25.057 33.653 27.4085 31.5415 28.7834C29.717 29.8923 26.616 30.8528 24.3594 30.5797C22.7649 30.3974 22.0439 29.4785 21.3771 28.3531C21.3771 28.3531 21.3771 28.3531 21.3695 28.3531C21.0298 27.7895 20.7026 27.1769 20.2797 26.5802C17.8887 23.5427 12.8197 21.1996 9.44077 24.5108C6.46782 27.4991 9.05956 27.9303 11.5446 28.2782C13.3013 28.5262 14.9898 28.7245 14.6442 29.7515C14.0606 31.6885 7.97907 32.7906 5.10645 31.8466V8.58094L58.3918 5.30298L58.5246 7.45467C55.3248 7.63776 51.5816 10.5678 51.3948 13.6068L51.3779 13.6483C52.9925 14.211 54.7243 14.9894 56.5071 15.5521L56.0595 16.8606C53.0265 15.8917 49.8158 15.1799 46.866 14.6006L46.8243 14.7829C47.7382 16.0906 48.3711 17.6804 49.9177 18.3679C50.9734 18.8891 52.1389 18.914 53.2966 18.8724C50.9471 19.1953 46.0819 20.3216 47.1717 23.1283C47.9743 25.0911 50.6694 24.9495 52.3842 24.2295V24.2204Z" fill="#ACBCE1"/>
<path d="M57.0767 36.0851L19.9463 36.5654C21.0469 36.4088 22.1443 36.2183 23.2341 35.961C26.3336 35.1337 28.868 32.9228 31.8255 32.0946C33.3723 32.6498 34.9174 33.6179 36.6075 34.0316C39.9864 34.7192 42.3867 32.5083 45.3426 31.5486C46.8908 34.0316 52.2377 34.5792 54.9157 35.5473C55.6166 35.7545 56.3436 35.9368 57.0767 36.0851Z" fill="#CED7ED"/>
<path d="M32.1061 15.2621C35.8569 15.7099 38.1817 18.2595 40.3503 21.0088C37.6228 20.0066 35.3908 18.1022 32.384 17.6053C30.8374 17.473 27.3164 17.3323 26.8934 19.2617C26.6296 20.1556 27.1049 20.934 27.9493 21.0414C29.5283 23.7415 28.1083 25.4622 24.6461 25.0568C21.6886 24.6431 20.2778 21.8854 21.5451 19.1285C23.2353 15.4037 28.4478 14.8485 32.1061 15.2621Z" fill="#CED7ED"/>
<path d="M20.2767 26.5809C20.6997 27.1775 21.0269 27.7902 21.3666 28.3537C17.9537 26.7307 11.4305 22.8226 11.5494 28.2372L11.5417 28.2789C9.05662 27.931 6.46488 27.4997 9.43784 24.5114C12.8167 21.2002 17.8858 23.5433 20.2767 26.5809Z" fill="#CED7ED"/>
<path d="M5.10645 36.7557L19.9493 36.5652C18.3363 36.814 16.7233 37.0038 15.1427 37.261L5.10645 37.3933V36.7557Z" fill="#C49A6C"/>
<path d="M5.1045 31.847V36.7564L4.01465 36.7731V31.251C4.27561 31.5081 4.64756 31.7064 5.1045 31.847Z" fill="#A77840"/>
</svg>
