<svg width="37" height="56" viewBox="0 0 37 56" fill="none" xmlns="http://www.w3.org/2000/svg">
<path d="M24.1795 49.5498C31.2572 49.5498 36.9994 50.6112 36.9994 51.941C36.9994 53.2569 31.2572 54.3324 24.1795 54.3324C23.96 54.3324 23.7556 54.3324 23.5515 54.3172C23.0866 54.3172 22.6233 54.3172 22.1885 54.3044V49.5765C22.8289 49.5626 23.4979 49.5498 24.1795 49.5498Z" fill="#B2C9DC"/>
<path d="M24.1767 8.12864C31.2544 8.12864 36.9967 7.58319 36.9967 6.92651V47.8845C30.4083 48.8487 24.3535 41.4793 22.1857 34.6975V20.3382C22.1857 19.6931 17.3705 19.1476 11.3555 19.1348V6.92651C11.3555 7.58319 17.0987 8.12864 24.1767 8.12864Z" fill="#CBD9E6"/>
<path d="M22.1885 34.6997C24.3563 41.4816 30.4111 48.851 36.9994 47.8867V51.9422C36.9994 50.6125 31.2572 49.5511 24.1795 49.5511C23.4979 49.5511 22.8289 49.5639 22.1885 49.5777V34.6997Z" fill="#B2C9DC"/>
<path d="M22.1857 46.6562C16.0472 46.8404 11.3555 47.8176 11.3555 49.0207V18.6195C17.3705 18.6069 22.1857 18.0753 22.1857 17.4189V31.7782V46.6562Z" fill="#FABEA1"/>
<path d="M11.3555 49.0198C11.3555 47.8166 16.0472 46.8395 22.1857 46.6553V51.3832C16.0472 51.1993 11.3555 50.208 11.3555 49.0198Z" fill="#FABEA1"/>
<path d="M24.1767 5.73877C31.2544 5.73877 36.9967 6.27064 36.9967 6.92925C36.9967 7.58659 31.2544 8.13261 24.1767 8.13261C17.0987 8.13261 11.3555 7.58659 11.3555 6.92925C11.3555 6.27064 17.0987 5.73877 24.1767 5.73877Z" fill="#BACDDF"/>
<path d="M11.3555 16.2136C17.3705 16.2265 22.1857 16.7725 22.1857 17.4183C22.1857 18.0754 17.3705 18.6075 11.3555 18.62V16.2136Z" fill="#D9A68D"/>
<path d="M22.1893 51.9309C16.4332 53.6197 8.59058 50.1399 5.00491 45.3432C2.95932 42.2109 1.77057 38.0146 0.912226 34.5196C-0.0969085 30.8419 0.747908 27.5283 0.0663977 23.8494H-0.000976562V17.4189C-0.000976562 18.0882 4.96255 18.6195 11.0873 18.6195C11.1819 18.6195 11.2779 18.6195 11.359 18.6195V49.0207C11.359 50.209 16.0508 51.2002 22.1893 51.3841V51.9309Z" fill="#FABEA1"/>
<path d="M11.0873 53.1716C17.2232 53.1716 22.1893 53.8033 22.1893 54.5884C22.1893 55.3555 17.2232 56 11.0873 56C4.96255 56 -0.000976562 55.3555 -0.000976562 54.5884C-0.000976562 53.8033 4.96255 53.1716 11.0873 53.1716Z" fill="#F8A27D"/>
<path d="M11.359 16.2134V18.6198C11.2779 18.6198 11.1819 18.6198 11.0873 18.6198C4.96254 18.6198 -0.000976562 18.0879 -0.000976562 17.418C-0.000976562 16.7581 4.96254 16.2134 11.0873 16.2134C11.1819 16.2134 11.2779 16.2134 11.359 16.2134Z" fill="#D9A68D"/>
<path d="M5.00491 45.3417C8.59058 50.1384 16.4332 53.6181 22.1893 51.9294V54.5863C22.1893 53.8021 17.2232 53.171 11.0873 53.171C4.96255 53.171 -0.000976562 53.8021 -0.000976562 54.5863V23.8479H0.0663977C0.747908 27.5267 -0.0969085 30.8404 0.912226 34.5181C1.77057 38.0131 2.95932 42.2094 5.00491 45.3417Z" fill="#F8A27D"/>
<path d="M24.6044 6.55595C24.3166 4.44578 25.3219 2.19353 24.3987 0.1804C24.2119 -0.227216 23.6238 0.128066 23.8106 0.533047C24.6654 2.39812 23.6748 4.75603 23.9466 6.74249C24.0076 7.18695 24.6641 6.99678 24.6044 6.55595Z" fill="#567168"/>
<path d="M9.45059 12.8988C8.94105 14.3168 9.11533 15.7962 9.99612 17.0148C10.2541 17.3725 10.847 17.025 10.5842 16.6621C9.80194 15.5788 9.65726 14.3424 10.1084 13.0854C10.2602 12.6613 9.60114 12.48 9.45059 12.8988Z" fill="#567168"/>
</svg>
