<svg width="72" height="44" viewBox="0 0 72 44" fill="none" xmlns="http://www.w3.org/2000/svg">
<path d="M64.3585 37.0778C64.6438 38.2628 63.5851 38.9777 61.7722 40.2371C61.324 40.5556 60.4917 40.4068 59.772 40.2187C63.7985 35.1349 60.2445 26.632 62.1875 20.8954C63.469 17.0457 67.3445 10.0269 63.7854 6.22174C64.3369 6.22613 64.9455 6.17801 65.6686 6.07737C66.6215 5.99601 67.7 5.73612 68.6936 5.78075L68.6945 5.83497C70.2447 5.84985 74.1055 8.4097 70.5169 11.9007C67.1442 15.1825 71.4369 17.2662 67.6445 30.3286C67.354 31.3482 64.0741 36.1554 64.3585 37.0778Z" fill="#E45E21"/>
<path d="M55.7374 7.3689C56.9122 7.26478 58.2864 6.90245 59.4777 7.09504L59.4681 7.14835C60.9724 7.44158 62.4663 9.14373 60.9707 13.67C59.241 18.913 53.575 32.5829 53.1935 36.4553C53.1147 37.1074 52.6386 37.9825 52.3022 38.792L52.2936 38.7911C52.0577 39.3933 51.8861 39.9621 52.0196 40.3839C52.3334 41.6721 53.4267 42.0555 51.4881 43.4076C50.7372 43.9457 49.2017 44.1016 48.4552 43.9379C41.7558 42.4519 34.6775 41.9347 28.2242 40.3358C21.9634 38.8822 13.6098 37.5178 7.99924 35.1452C5.71635 34.1817 5.41379 33.5621 3.00264 33.4947C1.87465 33.4632 0.19523 33.8221 0.0165964 32.3133C-0.14028 31.3033 0.780495 30.7783 1.68908 30.7249C1.96395 29.2826 2.32726 27.8658 2.76069 26.4734C6.12911 33.2515 22.0511 35.0132 28.2988 35.596C42.1208 36.8624 58.4624 28.5589 54.8616 12.9944C54.5218 11.0944 53.9374 9.19715 52.7843 7.68658C53.6366 7.6778 54.5261 7.54392 55.7374 7.3689Z" fill="#F58422"/>
<path d="M49.1892 6.865C50.6866 7.47672 51.6983 7.69286 52.7839 7.68676C53.937 9.19733 54.5213 11.0946 54.8612 12.9946C58.462 28.5591 42.1203 36.8625 28.2984 35.5962C22.0506 35.0133 6.12868 33.2517 2.76025 26.4736V26.4657C3.70013 23.3764 4.90881 20.3765 5.99863 17.3528C6.77022 15.1308 7.63036 12.1019 7.94945 9.2122C9.51005 4.49333 15.8757 2.49626 21.0033 1.73668C21.012 1.73668 21.0215 1.727 21.0302 1.73668C22.1651 1.7183 23.3303 1.75235 24.5 1.90991C33.1416 3.05895 41.6097 3.76261 49.1892 6.865Z" fill="#F7941E"/>
<path d="M59.4774 7.0957C58.2861 6.90311 56.9118 7.26543 55.7371 7.36956C54.5258 7.54458 53.6363 7.67846 52.784 7.68724C51.6984 7.69334 50.6867 7.47719 49.1893 6.86548C41.6098 3.76309 33.1417 3.05943 24.5001 1.91038C23.3304 1.75283 22.1652 1.71878 21.0303 1.73716C21.104 0.894323 21.416 0.210832 22.4322 0.032315C24.1819 -0.221478 26.1257 1.10268 27.5866 1.11226C30.4365 1.13064 33.4546 0.628346 36.5898 1.03789C44.6505 2.09678 52.51 2.20531 59.5528 5.07756C61.3353 5.80309 62.3887 6.19076 63.7847 6.22222C67.3438 10.0274 63.4683 17.0461 62.1868 20.8959C60.2438 26.6325 63.7977 35.1354 59.7712 40.2192C59.3699 40.1185 59.0048 40.0108 58.7621 39.9513C56.1723 39.3816 54.1097 39.0658 52.3019 38.7927C52.6383 37.9832 53.1143 37.108 53.1932 36.456C53.5747 32.5835 59.2407 18.9137 60.9704 13.6707C62.466 9.14439 60.972 7.44224 59.4678 7.14901L59.4774 7.0957Z" fill="#E45E21"/>
<path d="M7.95269 5.27784C8.20144 3.48294 8.6957 1.12883 10.7644 0.767322C12.6363 0.490774 13.2926 1.97157 14.855 1.98296C16.8318 1.99693 18.8901 1.77469 21.003 1.73705C15.8755 2.49663 9.50983 4.49371 7.94922 9.21258C8.10173 7.83769 8.1226 6.48647 7.95269 5.27784Z" fill="#F58422"/>
</svg>
