<svg width="20" height="56" viewBox="0 0 20 56" fill="none" xmlns="http://www.w3.org/2000/svg">
<path d="M9.51882 13.6527C10.1057 13.6728 10.6716 13.6877 11.2114 13.6877C11.0645 15.2759 10.7294 19.6398 10.4516 24.9558C10.1057 21.4787 9.50294 17.5657 8.20899 16.5786C8.11484 15.2458 8.03604 14.2139 7.97852 13.5776C8.47096 13.6077 8.98467 13.6326 9.51882 13.6527Z" fill="#AE7A3D"/>
<path d="M10.5717 51.149C13.857 51.4049 16.4398 52.151 16.7959 52.9427C16.8015 52.9476 16.8067 52.9579 16.8067 52.9627C16.8378 53.0278 16.8486 53.088 16.8435 53.1531C16.7856 54.0797 13.5423 54.6615 9.59748 54.4555C5.75702 54.2505 2.66563 53.3737 2.54517 52.4818C2.54004 52.4514 2.54004 52.4265 2.54004 52.4015C2.59248 51.5698 5.17017 51.0189 8.52327 51.0589C8.93697 51.0589 9.3616 51.0736 9.79139 51.0986C10.0534 51.1137 10.3153 51.1289 10.5717 51.149Z" fill="#BF8544"/>
<path d="M10.4516 24.9558C9.97468 33.879 9.63958 45.4827 10.5718 51.149C10.3154 51.129 10.0535 51.1138 9.79152 51.0986C9.36173 51.0736 8.9371 51.059 8.5234 51.059C9.81761 43.4033 8.7851 24.5949 8.20898 16.5786C9.50293 17.5657 10.1057 21.4787 10.4516 24.9558Z" fill="#BF8544"/>
<path d="M9.86468 1.00219C11.1325 1.00219 12.3216 0.976992 13.3541 0.937112L13.3592 1.04718C15.8899 3.05126 15.7169 7.05942 13.7942 9.31401C11.7716 11.7841 9.24093 12.6509 6.43278 13.4575C2.31474 13.0717 -0.000976562 12.3302 -0.000976562 12.0696C-0.000976562 11.9444 2.26769 1.45306 2.71817 0.526123C2.90673 0.796674 6.03983 1.00219 9.86468 1.00219Z" fill="#F7941E"/>
<path d="M6.43311 13.4573C9.24126 12.6507 11.7719 11.7839 13.7945 9.31382C15.7173 7.05923 15.8902 3.05107 13.3596 1.04699L13.3544 0.936915C15.5443 0.856651 17.0271 0.691313 17.0271 0.500977C17.3888 1.24735 19.7409 11.7538 19.9977 12.5704C20.0816 12.8511 16.9483 13.733 11.2117 13.6877C10.6719 13.6877 10.106 13.6728 9.5191 13.6528C8.98495 13.6327 8.47124 13.6077 7.9788 13.5776C7.43926 13.5424 6.92047 13.5023 6.43311 13.4573Z" fill="#EA8D1F"/>
<path d="M9.86451 0C13.6942 0 16.8275 0.210419 17.0164 0.475911C17.0214 0.481023 17.0266 0.491093 17.0266 0.501117C17.0266 0.691491 15.5438 0.856861 13.3539 0.937141C12.3214 0.977028 11.1324 1.00223 9.86451 1.00223C6.03967 1.00223 2.90656 0.796675 2.718 0.526072C2.71292 0.516051 2.70752 0.511138 2.70752 0.501117C2.70752 0.225352 5.91403 0 9.86451 0Z" fill="#E45E21"/>
<path d="M16.8065 52.9626C17.1575 53.5038 16.9897 54.3507 16.9743 54.656C16.9165 55.5827 13.6732 56.1645 9.72834 55.9585C5.77765 55.7481 2.61845 54.8263 2.6709 53.9045C2.68651 53.6789 2.47186 52.9876 2.54505 52.4817C2.6655 53.3737 5.75689 54.2504 9.59736 54.4554C13.5422 54.6614 16.7855 54.0796 16.8434 53.153C16.8485 53.0879 16.8377 53.0277 16.8065 52.9626Z" fill="#926435"/>
</svg>
