<svg width="53" height="56" viewBox="0 0 53 56" fill="none" xmlns="http://www.w3.org/2000/svg">
<path d="M51.9105 0L53 7.21912L52.995 7.46239H41.2227L40.4487 0H51.9105ZM10.293 0L11.7473 7.21912L13.315 48.8803H52.5612L52.9803 9.07601H40.9269L40.7839 7.46239L40.0247 0H10.293ZM16.8792 6.9808C15.3411 5.94311 14.2812 2.37326 16.4947 1.57393H19.004C20.335 1.51931 21.5231 2.69104 21.6661 4.19542C21.809 5.69485 20.8477 6.96091 19.5167 7.01553C19.5019 7.01553 19.4821 7.01553 19.4674 7.01553H19.4181L16.8792 6.9808ZM16.9236 27.5855C16.9236 18.7577 23.9732 11.8366 32.9701 11.8366C41.6663 11.8366 49.0117 19.3933 49.0117 28.3352C49.0117 37.2076 41.9671 44.1537 32.9701 44.1537C24.2739 44.1537 16.9236 36.5672 16.9236 27.5855ZM25.0282 7.46239L23.9979 0.670282H37.8457L38.319 7.46239H25.0282Z" fill="url(#paint0_linear_13345_317278)"/>
<path d="M13.3398 49.5605L13.5518 55.1809H14.7941H17.6189H37.4171H40.2419H49.012H51.8368H52.4974L52.5566 49.5605H13.3398Z" fill="url(#paint1_linear_13345_317278)"/>
<g style="mix-blend-mode:screen">
<path d="M50.4248 7.4623L36.3519 55.1808H28.7998L34.338 7.39404L50.4248 7.4623Z" fill="url(#paint2_linear_13345_317278)"/>
</g>
<g style="mix-blend-mode:screen">
<path d="M31.6438 7.4623L26.8471 55.1808H23.3447L26.8471 7.39404L31.6438 7.4623Z" fill="url(#paint3_linear_13345_317278)"/>
</g>
<g style="mix-blend-mode:screen">
<path d="M51.9105 0H10.293L11.7473 7.21912L52.9951 7.46239L51.9105 0Z" fill="url(#paint4_linear_13345_317278)"/>
</g>
<path d="M3.19922 55.1807L3.2929 55.9999H5.92542L6.01906 55.1807H3.19922Z" fill="#326D78"/>
<path d="M37.416 55.1807L37.5097 55.9999H40.1471L40.2408 55.1807H37.416Z" fill="#326D78"/>
<path d="M14.793 55.1807L14.8866 55.9999H17.5241L17.6178 55.1807H14.793Z" fill="#326D78"/>
<path d="M49.0117 55.1807L49.1054 55.9999H51.7428L51.8365 55.1807H49.0117Z" fill="#326D78"/>
<path d="M25.2598 5.46143L25.4619 6.70269H28.4346L28.2768 5.46143H25.2598Z" fill="#53CFC5"/>
<path d="M24.9346 3.38623L25.1416 4.62746H28.1143L27.9565 3.38623H24.9346Z" fill="#53CFC5"/>
<path d="M0 0L1.82355 48.8803H13.315L11.7473 7.21912L10.293 0H0Z" fill="#DB8960"/>
<path d="M1.82422 48.8804L1.87845 49.5606H13.3403L13.3156 48.8804H1.82422Z" fill="#F2C785"/>
<path d="M1.87891 49.5605L2.30781 55.1809H3.2001H6.01994H13.5527L13.3408 49.5605H1.87891Z" fill="#DB8960"/>
<path d="M13.3154 48.8804L13.3401 49.5606H52.5568L52.5617 48.8804H13.3154Z" fill="#DB8960"/>
<path d="M16.4949 1.57422C14.2814 2.37355 15.3414 5.9434 16.8795 6.98108L19.4183 7.01582C18.1316 7.01087 16.9929 5.85401 16.8597 4.3943C16.7168 2.88992 17.6781 1.62881 19.0042 1.57422H16.4949Z" fill="#DB8960"/>
<path d="M21.6664 4.19559C21.8093 5.69502 20.848 6.96108 19.517 7.0157C19.5022 7.0157 19.4824 7.0157 19.4677 7.0157H19.4184C18.1317 7.01075 16.9929 5.85389 16.8598 4.39418C16.7168 2.8898 17.6781 1.62869 19.0043 1.5741C20.3353 1.51948 21.5234 2.69121 21.6664 4.19559ZM19.9212 3.14301C20.1233 3.14301 20.286 2.97919 20.286 2.77561C20.286 2.57206 20.1233 2.40821 19.9212 2.40821C19.7191 2.40821 19.5564 2.57206 19.5564 2.77561C19.5564 2.97919 19.7191 3.14301 19.9212 3.14301Z" fill="url(#paint5_linear_13345_317278)"/>
<path d="M19.9205 3.14301C20.1219 3.14301 20.2853 2.97852 20.2853 2.77561C20.2853 2.5727 20.1219 2.4082 19.9205 2.4082C19.719 2.4082 19.5557 2.5727 19.5557 2.77561C19.5557 2.97852 19.719 3.14301 19.9205 3.14301Z" fill="#F15A24"/>
<path d="M20.2764 27.1337C20.2715 27.3124 20.2666 27.4912 20.2666 27.6699C20.2666 27.8536 20.2715 28.0324 20.2764 28.2161C20.2814 28.3352 20.2912 28.4594 20.3011 28.5785C20.3011 28.6381 20.306 28.6927 20.311 28.7523C20.3208 28.8863 20.3356 29.0254 20.3553 29.1594C20.3898 29.502 20.4441 29.8446 20.5082 30.1772C20.5328 30.3014 20.5574 30.4205 20.587 30.5397C20.5969 30.5943 20.6067 30.644 20.6215 30.6986C20.6462 30.8028 20.6709 30.9021 20.7004 31.0014C20.73 31.1305 20.7645 31.2596 20.8089 31.3887C20.868 31.6121 20.937 31.8306 21.0159 32.0441C21.0504 32.1434 21.0849 32.2427 21.1244 32.342C21.1539 32.4214 21.1835 32.4959 21.2131 32.5753C21.2575 32.6846 21.3019 32.7889 21.3511 32.8981C21.366 32.9378 21.3857 32.9775 21.4004 33.0172C21.4547 33.1414 21.5138 33.2655 21.573 33.3896C21.6568 33.5683 21.7505 33.752 21.8441 33.9258C21.923 34.0797 22.0117 34.2336 22.1005 34.3826C22.1054 34.3925 22.1103 34.4024 22.1153 34.4124C22.1892 34.5365 22.2681 34.6606 22.347 34.7848C22.4012 34.8692 22.4554 34.9536 22.5097 35.038C22.6921 35.311 22.8843 35.5742 23.0864 35.8324C23.1752 35.9466 23.2639 36.0608 23.3625 36.17C23.4315 36.2594 23.5055 36.3438 23.5794 36.4282C23.6632 36.5324 23.7569 36.6317 23.8506 36.731C23.9097 36.7956 23.9689 36.8552 24.0281 36.9147C24.1365 37.029 24.2499 37.1431 24.3633 37.2524C24.4668 37.3467 24.5703 37.446 24.6738 37.5403C24.8267 37.6794 24.9795 37.8134 25.1422 37.9425C25.2408 38.0219 25.3443 38.1063 25.4478 38.1858C25.6943 38.3794 25.9556 38.5631 26.2218 38.7369C26.3451 38.8213 26.4732 38.9007 26.6014 38.9752C26.6162 38.9851 26.6261 38.9951 26.6408 39C26.769 39.0795 26.9021 39.1589 27.0352 39.2284C27.3113 39.3873 27.5972 39.5313 27.8832 39.6604C28.0311 39.7299 28.174 39.7945 28.3219 39.854C28.9135 39.9533 29.5199 40.0079 30.1361 40.0079C36.6533 40.0079 41.9381 34.8841 41.9381 28.2508C41.9381 21.6176 36.6533 15.9873 30.1361 15.9873C29.3966 15.9873 28.6769 16.0568 27.9719 16.1809H27.967C27.824 16.2405 27.686 16.3001 27.5479 16.3647C27.469 16.3994 27.3951 16.4342 27.3212 16.4689C27.188 16.5335 27.0599 16.598 26.9317 16.6675C26.4437 16.9158 25.9753 17.1988 25.5316 17.5165C25.438 17.5761 25.3443 17.6456 25.2556 17.7151C25.2408 17.7201 25.226 17.735 25.2112 17.7449C24.9696 17.9236 24.7379 18.1123 24.5112 18.306C24.4668 18.3457 24.4224 18.3854 24.3781 18.4251C24.2597 18.5294 24.1414 18.6386 24.0281 18.7478C24.0083 18.7677 23.9837 18.7876 23.964 18.8124C23.8308 18.9415 23.6977 19.0805 23.5696 19.2145C23.397 19.3982 23.2294 19.5919 23.0667 19.7855C22.9928 19.8749 22.9188 19.9692 22.8449 20.0636C22.6083 20.3714 22.3815 20.6891 22.1744 21.0218C22.1054 21.1261 22.0413 21.2303 21.9772 21.3396C21.9033 21.4637 21.8293 21.5878 21.7652 21.7169C21.6814 21.8609 21.6026 22.0099 21.5286 22.1637C21.4547 22.3227 21.3807 22.4815 21.3068 22.6454C21.2673 22.7347 21.2279 22.8241 21.1934 22.9184C21.1589 22.9929 21.1293 23.0724 21.0997 23.1518C21.0603 23.2461 21.0258 23.3454 20.9913 23.4447C20.8779 23.7526 20.7842 24.0654 20.7004 24.3781C20.6758 24.4625 20.6511 24.547 20.6314 24.6313C20.6018 24.7406 20.5772 24.8548 20.5574 24.964C20.5328 25.0534 20.518 25.1428 20.5032 25.2321C20.4983 25.247 20.4934 25.257 20.4934 25.2669C20.4342 25.5747 20.3849 25.8925 20.3504 26.2102C20.3504 26.2152 20.3455 26.2251 20.3504 26.2301C20.3356 26.3244 20.3258 26.4188 20.3208 26.5131C20.306 26.6323 20.2962 26.7564 20.2912 26.8805C20.2863 26.9649 20.2814 27.0493 20.2764 27.1337Z" fill="#21324D"/>
<path d="M49.012 28.3351C49.012 37.2075 41.9673 44.1535 32.9704 44.1535C24.2742 44.1535 16.9238 36.567 16.9238 27.5854C16.9238 18.7576 23.9735 11.8364 32.9704 11.8364C41.6666 11.8364 49.012 19.3931 49.012 28.3351ZM32.9704 43.7712C41.7553 43.7712 48.6324 36.9891 48.6324 28.3351C48.6324 19.6017 41.4595 12.2187 32.9704 12.2187C24.1854 12.2187 17.3034 18.9711 17.3034 27.5854C17.3034 36.3585 24.4763 43.7712 32.9704 43.7712Z" fill="#DB8960"/>
<path d="M48.6317 28.3356C48.6317 36.9896 41.7547 43.7717 32.9697 43.7717C24.4756 43.7717 17.3027 36.359 17.3027 27.5859C17.3027 18.9716 24.1848 12.2192 32.9697 12.2192C41.4588 12.2192 48.6317 19.6022 48.6317 28.3356ZM20.2754 28.2164C20.2804 28.3356 20.2902 28.4597 20.3001 28.5789C20.3001 28.6385 20.305 28.6931 20.3099 28.7526C20.3198 28.8917 20.3346 29.0257 20.3543 29.1598C20.3888 29.5023 20.443 29.8449 20.5071 30.1776C20.5318 30.3017 20.5564 30.4209 20.586 30.54C20.5958 30.5947 20.6057 30.6443 20.6205 30.6989C20.6402 30.7982 20.6698 30.9025 20.6994 31.0018C20.729 31.1358 20.7635 31.26 20.8079 31.3891C20.867 31.6125 20.936 31.8309 21.0149 32.0444C21.0494 32.1437 21.0839 32.243 21.1233 32.3423C21.1529 32.4218 21.1825 32.4963 21.2121 32.5757C21.2565 32.6849 21.3008 32.7892 21.3501 32.8984C21.3649 32.9381 21.3846 32.9779 21.3994 33.0176C21.4536 33.1467 21.5128 33.2658 21.5719 33.3899C21.6557 33.5687 21.7494 33.7524 21.8431 33.9262C21.9269 34.0801 22.0107 34.234 22.0994 34.3829C22.1044 34.3929 22.1093 34.4028 22.1142 34.4127C22.1931 34.5368 22.2671 34.661 22.3459 34.7851C22.3952 34.8695 22.4544 34.9539 22.5086 35.0383C22.691 35.3114 22.8833 35.5745 23.0854 35.8327C23.1692 35.9469 23.2629 36.0611 23.3615 36.1703C23.4305 36.2597 23.5044 36.3441 23.5784 36.4285C23.6671 36.5328 23.7559 36.6321 23.8495 36.7314C23.9038 36.791 23.9629 36.8555 24.027 36.9151C24.1355 37.0293 24.2488 37.1435 24.3622 37.2527C24.4658 37.352 24.5693 37.4513 24.6728 37.5407C24.8256 37.6797 24.9785 37.8137 25.1411 37.9428C25.2398 38.0273 25.3433 38.1117 25.4468 38.1861C25.6933 38.3798 25.9546 38.5635 26.2208 38.7372C26.344 38.8216 26.4722 38.906 26.6004 38.9755C26.6152 38.9855 26.625 38.9954 26.6398 39.0004C26.768 39.0848 26.9011 39.1592 27.0342 39.2288C27.3103 39.3877 27.5913 39.5316 27.8821 39.6607C28.0251 39.7352 28.173 39.7948 28.3209 39.8544C29.7604 40.4551 31.3281 40.7878 32.9697 40.7878C39.9848 40.7878 45.6738 35.3362 45.6738 28.2711C45.6738 21.2009 39.9848 15.2032 32.9697 15.2032C31.195 15.2032 29.5041 15.5507 27.9709 16.1813H27.9659C27.823 16.2409 27.6849 16.3005 27.5469 16.365C27.468 16.3998 27.3941 16.4345 27.3201 16.4693C27.187 16.5338 27.0588 16.5984 26.9307 16.6679C26.4426 16.9161 25.9743 17.1991 25.5306 17.5169C25.4369 17.5765 25.3433 17.646 25.2545 17.7155C25.2398 17.7204 25.2249 17.7353 25.2101 17.7453C24.9686 17.924 24.732 18.1127 24.5101 18.3063C24.4658 18.346 24.4214 18.3857 24.377 18.4255C24.2587 18.5298 24.1404 18.6389 24.027 18.7482C24.0073 18.7681 23.9826 18.7879 23.9629 18.8128C23.8298 18.9418 23.6967 19.0759 23.5685 19.2149C23.396 19.3986 23.2284 19.5922 23.0657 19.7859C22.9917 19.8752 22.9178 19.9696 22.8439 20.0639C22.6072 20.3717 22.3804 20.6895 22.1734 21.0222C22.1044 21.1264 22.0403 21.2307 21.9762 21.3399C21.9022 21.4641 21.8283 21.5882 21.7642 21.7173C21.6804 21.8612 21.6065 22.0102 21.5276 22.1641C21.4536 22.323 21.3797 22.4819 21.3057 22.6457C21.2663 22.7351 21.2269 22.8245 21.1924 22.9188C21.1579 22.9933 21.1283 23.0727 21.0987 23.1521C21.0593 23.2465 21.0247 23.3458 20.9903 23.4451C20.8768 23.7529 20.7832 24.0657 20.6994 24.3785C20.6747 24.4629 20.6501 24.5473 20.6304 24.6317C20.6057 24.7409 20.5761 24.8502 20.5564 24.9644C20.5318 25.0537 20.517 25.1431 20.5022 25.2325C20.4972 25.2474 20.4923 25.2573 20.4923 25.2672C20.4332 25.58 20.3839 25.8928 20.3494 26.2106C20.3494 26.2155 20.3444 26.2255 20.3494 26.2304C20.3346 26.3248 20.3247 26.4191 20.3198 26.5134C20.305 26.6326 20.2951 26.7567 20.2902 26.8809C20.2853 26.9653 20.2804 27.0497 20.2754 27.1341C20.2705 27.3128 20.2656 27.4915 20.2656 27.6703C20.2656 27.854 20.2705 28.0327 20.2754 28.2164Z" fill="url(#paint6_linear_13345_317278)"/>
<path d="M37.8449 0.67041L38.3182 7.46252H25.0274L23.9971 0.67041H37.8449ZM27.7931 2.55214L27.6353 1.3109H24.6133L24.8203 2.55214H27.7931ZM28.1135 4.62751L27.9557 3.38628H24.9338L25.1408 4.62751H28.1135ZM28.4339 6.70288L28.2761 5.46161H25.2591L25.4612 6.70288H28.4339Z" fill="#343D64"/>
<path d="M24.6143 1.31104L24.8213 2.55227H27.794L27.6362 1.31104H24.6143Z" fill="#53CFC5"/>
<path d="M27.9707 16.1812C28.6757 16.0571 29.3954 15.9876 30.1349 15.9876C36.6521 15.9876 41.9369 21.6179 41.9369 28.2511C41.9369 34.8843 36.6521 40.0082 30.1349 40.0082C29.5187 40.0082 28.9123 39.9536 28.3207 39.8543C29.7602 40.4551 31.3279 40.7877 32.9695 40.7877C39.9847 40.7877 45.6737 35.3361 45.6737 28.271C45.6737 21.2008 39.9847 15.2031 32.9695 15.2031C31.1948 15.2031 29.5039 15.5506 27.9707 16.1812Z" fill="#DB8960"/>
<path d="M40.0244 0L40.7836 7.46239L40.9266 9.07601H52.98V9.07106L52.9948 7.46239H41.2224L40.4484 0H40.0244Z" fill="#DB8960"/>
<g style="mix-blend-mode:screen">
<path d="M37.3576 0.67041L34.3368 7.39426H30.7705L32.9671 0.67041H37.3576Z" fill="url(#paint7_linear_13345_317278)"/>
</g>
<g style="mix-blend-mode:screen">
<path d="M29.3118 17.6831C33.7246 17.8406 36.9043 19.5678 38.8882 22.8172L30.3418 40.0026C30.2725 40.0038 30.2038 40.0077 30.1341 40.0077C29.5179 40.0077 28.9115 39.9531 28.32 39.8538C28.1721 39.7942 28.0291 39.7297 27.8812 39.6602C27.5952 39.5311 27.3093 39.3871 27.0333 39.2282C26.9002 39.1587 26.7671 39.0792 26.6389 38.9998C26.6241 38.9949 26.6142 38.9849 26.5995 38.975C26.4713 38.9005 26.3431 38.8211 26.2199 38.7367C25.9536 38.5629 25.6924 38.3792 25.4459 38.1856C25.3423 38.1061 25.2388 38.0217 25.1402 37.9423C24.9775 37.8132 24.8247 37.6792 24.6719 37.5401C24.5684 37.4458 24.4648 37.3465 24.3613 37.2521C24.248 37.1429 24.1346 37.0287 24.0261 36.9145C23.9669 36.855 23.9078 36.7954 23.8486 36.7308C23.7549 36.6315 23.6613 36.5322 23.5775 36.4279C23.5035 36.3435 23.4296 36.2592 23.3606 36.1698C23.262 36.0605 23.1733 35.9464 23.0845 35.8322C22.8824 35.574 22.6901 35.3108 22.5077 35.0377C22.4535 34.9534 22.3993 34.869 22.345 34.7845C22.2858 34.6913 22.2281 34.598 22.1709 34.5047L29.3118 17.6831Z" fill="url(#paint8_linear_13345_317278)"/>
</g>
<path d="M51.5806 5.46143L51.9162 6.70269H46.7236L47.0493 5.46143H51.5806Z" fill="#53CFC5"/>
<path d="M19.5439 20.7834C19.5439 20.7834 19.636 20.6456 19.8112 20.3832C19.9004 20.2534 20.002 20.0871 20.1375 19.9015C20.2768 19.719 20.4375 19.5084 20.6185 19.2713C21.3563 18.3397 22.5642 17.0876 24.3209 15.925C26.08 14.7874 28.4224 13.7588 31.154 13.4671C33.8721 13.1505 36.9447 13.7116 39.7441 15.1763C42.533 16.6612 44.7396 18.8865 46.0278 21.3178C47.3441 23.746 47.8371 26.2712 47.9093 28.3754C47.9598 30.4918 47.6248 32.2047 47.284 33.3459C47.1934 33.6306 47.1129 33.8835 47.0432 34.1028C46.9688 34.3206 46.8908 34.4993 46.8356 34.6472C46.721 34.9416 46.6609 35.0962 46.6609 35.0962C46.6609 35.0962 46.7344 34.9476 46.8743 34.6645C46.942 34.5218 47.0354 34.3488 47.1278 34.1366C47.2153 33.9219 47.3163 33.6742 47.4301 33.3953C47.8615 32.2725 48.3287 30.5584 48.4023 28.3745C48.4525 26.2055 48.0728 23.545 46.7644 20.9283C45.4836 18.3055 43.1692 15.8734 40.2018 14.2968C37.2259 12.7364 33.9232 12.2037 31.0528 12.6355C28.1719 13.0409 25.7835 14.2404 24.0411 15.5163C22.3 16.8199 21.1662 18.1823 20.495 19.1785C20.332 19.4314 20.1872 19.656 20.0617 19.8507C19.9411 20.048 19.853 20.2237 19.775 20.361C19.6235 20.638 19.5439 20.7834 19.5439 20.7834Z" fill="url(#paint9_linear_13345_317278)"/>
<defs>
<linearGradient id="paint0_linear_13345_317278" x1="8.66868" y1="56.4748" x2="51.4861" y2="-2.9439" gradientUnits="userSpaceOnUse">
<stop stop-color="#F2C785"/>
<stop offset="0.0741407" stop-color="#F3CB8C"/>
<stop offset="0.698587" stop-color="#FBE8C4"/>
<stop offset="1" stop-color="#FEF4DA"/>
</linearGradient>
<linearGradient id="paint1_linear_13345_317278" x1="18.5274" y1="68.2429" x2="59.8746" y2="23.2846" gradientUnits="userSpaceOnUse">
<stop stop-color="#F2C785"/>
<stop offset="0.0741413" stop-color="#F3CB8C"/>
<stop offset="0.698587" stop-color="#FBE8C4"/>
<stop offset="1" stop-color="#FEF4DA"/>
</linearGradient>
<linearGradient id="paint2_linear_13345_317278" x1="45.5668" y1="3.40736" x2="26.3837" y2="54.9904" gradientUnits="userSpaceOnUse">
<stop stop-color="#F1E3B4"/>
<stop offset="0.563543" stop-color="#6B6550"/>
<stop offset="1"/>
</linearGradient>
<linearGradient id="paint3_linear_13345_317278" x1="35.7707" y1="6.94853" x2="18.2924" y2="53.9471" gradientUnits="userSpaceOnUse">
<stop stop-color="#F1E3B4"/>
<stop offset="0.563543" stop-color="#6B6550"/>
<stop offset="1"/>
</linearGradient>
<linearGradient id="paint4_linear_13345_317278" x1="32.0895" y1="7.90748" x2="30.9832" y2="-2.31661" gradientUnits="userSpaceOnUse">
<stop stop-color="#F1E3B4"/>
<stop offset="0.563543" stop-color="#6B6550"/>
<stop offset="1"/>
</linearGradient>
<linearGradient id="paint5_linear_13345_317278" x1="17.7173" y1="7.78371" x2="21.6657" y2="-1.00562" gradientUnits="userSpaceOnUse">
<stop stop-color="#F2C785"/>
<stop offset="0.0741407" stop-color="#F3CB8C"/>
<stop offset="0.698587" stop-color="#FBE8C4"/>
<stop offset="1" stop-color="#FEF4DA"/>
</linearGradient>
<linearGradient id="paint6_linear_13345_317278" x1="23.6451" y1="45.7335" x2="42.3541" y2="10.6026" gradientUnits="userSpaceOnUse">
<stop stop-color="#F2C785"/>
<stop offset="0.0741413" stop-color="#F3CB8C"/>
<stop offset="0.698587" stop-color="#FBE8C4"/>
<stop offset="1" stop-color="#FEF4DA"/>
</linearGradient>
<linearGradient id="paint7_linear_13345_317278" x1="38.2564" y1="-6.09957" x2="30.6788" y2="10.3392" gradientUnits="userSpaceOnUse">
<stop stop-color="#8DA87E"/>
<stop offset="0.710409" stop-color="#1C2119"/>
<stop offset="0.882682"/>
</linearGradient>
<linearGradient id="paint8_linear_13345_317278" x1="41.2419" y1="10.161" x2="23.9468" y2="38.0665" gradientUnits="userSpaceOnUse">
<stop stop-color="#8DA87E"/>
<stop offset="0.710409" stop-color="#1C2119"/>
<stop offset="0.882682"/>
</linearGradient>
<linearGradient id="paint9_linear_13345_317278" x1="43.5099" y1="11.24" x2="27.298" y2="36.8061" gradientUnits="userSpaceOnUse">
<stop stop-color="#F1E3B4"/>
<stop offset="0.563543" stop-color="#6B6550"/>
<stop offset="1"/>
</linearGradient>
</defs>
</svg>
