<svg width="9" height="56" viewBox="0 0 9 56" fill="none" xmlns="http://www.w3.org/2000/svg">
<path d="M1.08383 7.45605C-0.547036 22.7886 -0.33646 38.3292 1.70921 53.6086C1.72744 53.7448 1.92911 53.6513 2.06197 53.6441C2.42602 53.6246 2.79007 53.605 3.15412 53.5855C2.8629 51.2884 3.41041 49.2361 3.50929 46.9216C3.69856 42.4908 3.26458 38.0871 3.18526 33.662C3.11043 29.4875 3.29817 25.3184 2.99563 21.1479C2.66194 16.5478 1.89008 11.9885 1.08383 7.45605Z" fill="#007265"/>
<path d="M1.12834 5.86924C0.654504 12.6555 0.723652 19.4715 1.07331 26.2621C1.41095 32.82 2.26027 39.3699 2.26091 45.9421C2.2611 47.932 2.07589 49.9282 2.16616 51.9099C2.20512 52.7653 2.04499 54.3113 2.38274 54.9932C3.194 55.0914 4.76431 55.7689 5.5507 56C6.09905 54.0681 6.74779 51.5641 6.64729 49.5817C7.34064 49.4398 8.51337 49.6492 8.96234 49.4558C9.1565 43.2595 8.55494 37.2055 8.06173 31.0334C7.58565 25.0754 7.59066 19.0029 6.8534 13.0784C6.7114 11.9372 6.06221 8.89655 6.06221 8.89655L4.27226 7.47507C4.27226 7.47507 4.4715 4.73246 4.11053 3.54534C3.71677 2.25034 2.74846 1.05801 1.95429 0C2.12242 0.224005 1.37368 2.94157 1.33049 3.39926C1.25308 4.22001 1.18599 5.04349 1.12834 5.86924Z" fill="#00A396"/>
<g style="mix-blend-mode:screen">
<path d="M6.85448 13.0781C6.71248 11.9369 6.06329 8.89625 6.06329 8.89625L4.27335 7.47477C4.27335 7.47477 4.47259 4.73216 4.11164 3.54503C3.84735 2.67593 3.32362 1.85445 2.76811 1.0874C1.47293 9.08752 1.18308 17.2607 1.91305 25.3368C2.35677 25.5392 2.75396 25.6184 3.21381 25.4591C3.24357 20.2584 3.62559 15.13 4.41296 9.99317C5.03478 17.9906 4.1424 26.2096 4.42212 34.2275C4.51127 36.7825 4.72084 39.3317 4.99088 41.8726C5.20463 43.8839 5.02664 46.8599 6.76791 48.2147C7.39501 48.7026 8.19369 48.9395 8.9766 48.8954C9.11915 42.8941 8.54114 37.019 8.06284 31.033C7.58674 25.0751 7.59177 19.0026 6.85448 13.0781Z" fill="url(#paint0_linear_13345_317502)"/>
</g>
<path d="M4.52293 49.7461C3.87779 43.0987 3.37714 36.4363 3.02148 29.7656C3.48637 36.2967 3.96412 43.225 5.82973 49.4837C5.44118 49.6272 4.91148 49.6027 4.52293 49.7461Z" fill="#007265"/>
<defs>
<linearGradient id="paint0_linear_13345_317502" x1="4.18962" y1="2.91864" x2="6.00926" y2="49.059" gradientUnits="userSpaceOnUse">
<stop stop-color="#A38133"/>
<stop offset="0.829092" stop-color="#1C1609"/>
<stop offset="1"/>
</linearGradient>
</defs>
</svg>
