<svg width="22" height="56" viewBox="0 0 22 56" fill="none" xmlns="http://www.w3.org/2000/svg">
<path d="M3.36645 4.06056C3.36645 4.40639 2.75645 4.40639 2.75645 4.06056L2.67188 0.337298C2.67188 -0.112433 3.45102 -0.112433 3.45102 0.337298L3.36645 4.06056Z" fill="url(#paint0_linear_13345_317309)"/>
<path d="M3.4316 1.19043H3.81401L3.6635 2.09302L3.41113 2.09194L3.4316 1.19043Z" fill="#326D78"/>
<g style="mix-blend-mode:screen">
<path d="M2.74219 0.311345L2.84846 4.12534C2.90035 4.19988 2.97169 4.19783 3.06096 4.12534V0.0605469C2.90864 0.0894679 2.78769 0.155623 2.74219 0.311345Z" fill="url(#paint1_linear_13345_317309)"/>
</g>
<path d="M9.53832 4.06056C9.53832 4.40639 8.92833 4.40639 8.92833 4.06056L8.84375 0.337298C8.84378 -0.112433 9.6229 -0.112433 9.6229 0.337298L9.53832 4.06056Z" fill="url(#paint2_linear_13345_317309)"/>
<path d="M9.60348 1.17578H9.98589L9.83537 2.10831L9.58301 2.10721L9.60348 1.17578Z" fill="#326D78"/>
<g style="mix-blend-mode:screen">
<path d="M8.91504 0.311345L9.02127 4.12534C9.07316 4.19988 9.14453 4.19783 9.23377 4.12534V0.0605469C9.08147 0.0894679 8.96052 0.155623 8.91504 0.311345Z" fill="url(#paint3_linear_13345_317309)"/>
</g>
<path d="M12.1477 4.06056C12.1477 4.40639 11.5377 4.40639 11.5377 4.06056L11.4531 0.337298C11.4531 -0.112433 12.2323 -0.112433 12.2322 0.337298L12.1477 4.06056Z" fill="url(#paint4_linear_13345_317309)"/>
<path d="M12.2129 1.1416H12.5953L12.4447 2.14205L12.1924 2.14089L12.2129 1.1416Z" fill="#326D78"/>
<g style="mix-blend-mode:screen">
<path d="M11.5244 0.311345L11.6306 4.12534C11.6825 4.19988 11.7539 4.19783 11.8431 4.12534V0.0605469C11.6908 0.0894679 11.5699 0.155623 11.5244 0.311345Z" fill="url(#paint5_linear_13345_317309)"/>
</g>
<path d="M17.1467 4.06056C17.1467 4.40639 16.5367 4.40639 16.5367 4.06056L16.4521 0.337298C16.4521 -0.112433 17.2313 -0.112433 17.2313 0.337298L17.1467 4.06056Z" fill="url(#paint6_linear_13345_317309)"/>
<path d="M17.2119 1.15771H17.5943L17.4438 2.15091L17.1914 2.14973L17.2119 1.15771Z" fill="#326D78"/>
<g style="mix-blend-mode:screen">
<path d="M16.5234 0.311345L16.6297 4.12534C16.6816 4.19988 16.7529 4.19783 16.8422 4.12534V0.0605469C16.6899 0.0894679 16.5689 0.155623 16.5234 0.311345Z" fill="url(#paint7_linear_13345_317309)"/>
</g>
<path d="M20.8098 4.06056C20.8098 4.40639 20.1998 4.40639 20.1998 4.06056L20.1152 0.337298C20.1152 -0.112433 20.8944 -0.112433 20.8944 0.337298L20.8098 4.06056Z" fill="url(#paint8_linear_13345_317309)"/>
<path d="M20.874 1.1416H21.2564L21.1059 2.16614L20.8535 2.16494L20.874 1.1416Z" fill="#326D78"/>
<g style="mix-blend-mode:screen">
<path d="M20.1855 0.311345L20.2918 4.12534C20.3437 4.19988 20.415 4.19783 20.5043 4.12534V0.0605469C20.352 0.0894679 20.231 0.155623 20.1855 0.311345Z" fill="url(#paint9_linear_13345_317309)"/>
</g>
<path d="M2.15916 5.04857C2.19619 4.76686 2.27837 4.48006 2.46759 4.26551C2.65683 4.05096 2.97299 3.92669 3.24428 4.02407C3.45027 4.09802 3.59689 4.28349 3.68251 4.48208C3.86308 4.90071 3.76749 5.32578 4.05001 5.71024C4.3049 6.05709 4.69018 6.3086 5.1077 6.42342C6.26636 6.74205 7.42614 6.13292 7.96841 5.11642C8.23487 4.61695 8.52517 3.82236 9.21718 3.82003C9.73165 3.81831 9.68739 4.14147 9.7639 4.52163C9.87063 5.05208 10.0048 5.57869 10.1251 6.10636C10.14 6.17172 10.1558 6.23905 10.1954 6.29352C10.235 6.348 10.3051 6.38684 10.371 6.37017C10.467 6.34593 10.4991 6.23031 10.5143 6.13407C10.6381 5.35302 10.6523 4.44182 11.1186 3.76744C11.498 3.21884 12.4275 3.83058 12.5325 4.30433C12.7105 5.10713 12.9231 5.87653 13.2444 6.65125C13.3557 6.91944 13.5358 7.22801 13.8302 7.23057C14.0909 7.23283 14.2761 6.98906 14.4051 6.76631C14.8517 5.99538 15.04 5.14303 15.427 4.35694C15.6186 3.96796 15.983 3.6285 16.4214 3.59952C17.1425 3.55187 17.2418 4.23825 17.3668 4.7566C17.5296 5.4324 17.7278 6.09998 17.9603 6.75584C18.0557 7.02493 18.3475 7.4767 18.6763 7.17572C18.7567 7.10207 18.806 7.00197 18.8509 6.90332C19.041 6.48631 19.1872 6.04999 19.2869 5.60361C19.3818 5.17821 19.399 4.72829 19.5678 4.32138C19.6998 4.00318 19.9509 3.70955 20.2905 3.62849C20.63 3.54742 21.0433 3.75466 21.0896 4.0953C23.0294 18.3605 21.4278 33.058 20.3548 47.4114C20.1675 49.9171 20.0612 52.3679 20.2153 54.8757C13.3387 56.2137 6.94536 56.3221 0 55.3895C3.07845 38.8064 -0.038997 21.7666 2.15916 5.04857Z" fill="#FBA746"/>
<path d="M20.3031 6.19849C20.0204 6.99643 19.3228 7.72227 18.7217 8.32595C18.3645 19.5343 17.9566 30.801 17.6414 42.0351C17.6414 46.4786 17.3853 50.9374 17.2256 55.3814C17.7199 55.3096 18.2157 55.2324 18.7139 55.1476C18.8236 53.022 18.8856 48.3034 18.9049 47.7455C19.1911 39.4373 20.0624 31.0184 20.2737 22.6814C20.4131 17.1826 20.1003 11.6905 20.3031 6.19849Z" fill="#F28E29"/>
<path d="M9.70605 55.9894C10.0331 55.9841 10.3601 55.9759 10.687 55.9651C11.3763 39.601 12.1345 23.3075 11.1799 6.95093C10.918 7.15628 10.4033 7.56929 10.1415 7.77465C10.0517 13.5054 10.0203 19.2369 10.0471 24.9682C10.0729 30.5055 10.3609 36.0979 10.1393 41.6102C9.94644 46.4098 9.98655 51.1943 9.70605 55.9894Z" fill="#F28E29"/>
<path d="M3.32031 55.7552C4.66619 55.8725 5.99769 55.9483 7.32138 55.98C7.70117 39.3406 8.04778 22.9096 8.42895 6.26147C8.19309 6.73425 7.63871 7.127 7.28294 7.52053C6.92718 7.91409 6.43511 8.21812 5.90001 8.23498C5.41714 8.25019 4.95106 8.03037 4.58177 7.72398C4.21246 7.41762 3.72925 7.20543 3.4462 6.8203C4.3502 22.9632 4.31596 39.1569 3.3437 55.296C3.33449 55.4492 3.32739 55.6023 3.32031 55.7552Z" fill="#F28E29"/>
<path d="M14.6242 48.6931C14.5682 45.8537 14.5529 43.0131 14.6042 40.1735C14.7438 32.4395 14.7051 24.7537 15.1919 17.0267C15.4379 13.1234 16.3803 8.90339 15.5917 5.05786C15.2857 5.94097 14.5528 7.33066 14.4816 8.261C13.2708 24.0748 12.9522 39.9543 13.5221 55.803C13.995 55.7642 14.4686 55.7206 14.9433 55.6701C14.8962 53.4238 14.6349 49.2373 14.6242 48.6931Z" fill="#F28E29"/>
<g style="mix-blend-mode:screen">
<path d="M3.01766 44.0294C2.64314 44.0749 2.31226 43.9194 1.93774 43.9648C1.4652 31.6501 1.6113 19.3124 2.37535 7.01181C3.166 19.2886 3.72367 31.7476 3.01766 44.0294ZM9.05084 9.36445C8.38906 21.7833 8.10709 34.2217 8.20544 46.6572C8.57999 46.6784 8.96171 46.8541 9.33627 46.8752C9.75646 34.3092 9.41473 21.9322 9.05084 9.36445ZM11.9579 6.66577C11.807 7.12718 11.6345 7.56821 11.6615 8.05217C12.369 20.7221 12.4496 33.4258 11.9028 46.1034C12.1839 46.0838 12.2869 46.1443 12.5679 46.1247C12.386 33.4262 12.9936 20.8367 14.1546 8.18833C13.2385 8.2729 12.2567 7.52174 11.9579 6.66577ZM16.4174 7.97528C15.09 20.5635 14.7772 33.255 15.4831 45.8917C15.9746 45.8699 16.4275 46.0484 16.9191 46.0266C17.789 33.63 18.3526 21.1439 17.7616 8.73148C17.3193 8.45163 16.8597 8.25515 16.4174 7.97528ZM21.0373 9.64905C20.3505 19.1836 20.0116 28.7425 20.0216 38.301C21.1909 28.9766 21.6295 19.0261 21.0373 9.64905Z" fill="url(#paint10_linear_13345_317309)"/>
</g>
<defs>
<linearGradient id="paint0_linear_13345_317309" x1="3.04641" y1="-0.575308" x2="3.12244" y2="4.25063" gradientUnits="userSpaceOnUse">
<stop stop-color="#BDE8BF"/>
<stop offset="1" stop-color="#4C8B8F"/>
</linearGradient>
<linearGradient id="paint1_linear_13345_317309" x1="2.83395" y1="-0.38397" x2="3.07051" y2="4.70189" gradientUnits="userSpaceOnUse">
<stop stop-color="#8DA87E"/>
<stop offset="0.710409" stop-color="#1C2119"/>
<stop offset="0.882682"/>
</linearGradient>
<linearGradient id="paint2_linear_13345_317309" x1="9.21828" y1="-0.575308" x2="9.29431" y2="4.25063" gradientUnits="userSpaceOnUse">
<stop stop-color="#BDE8BF"/>
<stop offset="1" stop-color="#4C8B8F"/>
</linearGradient>
<linearGradient id="paint3_linear_13345_317309" x1="9.00678" y1="-0.38397" x2="9.24334" y2="4.70189" gradientUnits="userSpaceOnUse">
<stop stop-color="#8DA87E"/>
<stop offset="0.710409" stop-color="#1C2119"/>
<stop offset="0.882682"/>
</linearGradient>
<linearGradient id="paint4_linear_13345_317309" x1="11.8276" y1="-0.575308" x2="11.9037" y2="4.25063" gradientUnits="userSpaceOnUse">
<stop stop-color="#BDE8BF"/>
<stop offset="1" stop-color="#4C8B8F"/>
</linearGradient>
<linearGradient id="paint5_linear_13345_317309" x1="11.6162" y1="-0.38397" x2="11.8527" y2="4.70189" gradientUnits="userSpaceOnUse">
<stop stop-color="#8DA87E"/>
<stop offset="0.710409" stop-color="#1C2119"/>
<stop offset="0.882682"/>
</linearGradient>
<linearGradient id="paint6_linear_13345_317309" x1="16.8267" y1="-0.575308" x2="16.9027" y2="4.25063" gradientUnits="userSpaceOnUse">
<stop stop-color="#BDE8BF"/>
<stop offset="1" stop-color="#4C8B8F"/>
</linearGradient>
<linearGradient id="paint7_linear_13345_317309" x1="16.6152" y1="-0.38397" x2="16.8517" y2="4.70189" gradientUnits="userSpaceOnUse">
<stop stop-color="#8DA87E"/>
<stop offset="0.710409" stop-color="#1C2119"/>
<stop offset="0.882682"/>
</linearGradient>
<linearGradient id="paint8_linear_13345_317309" x1="20.4898" y1="-0.575308" x2="20.5658" y2="4.25063" gradientUnits="userSpaceOnUse">
<stop stop-color="#BDE8BF"/>
<stop offset="1" stop-color="#4C8B8F"/>
</linearGradient>
<linearGradient id="paint9_linear_13345_317309" x1="20.2773" y1="-0.38397" x2="20.5139" y2="4.70189" gradientUnits="userSpaceOnUse">
<stop stop-color="#8DA87E"/>
<stop offset="0.710409" stop-color="#1C2119"/>
<stop offset="0.882682"/>
</linearGradient>
<linearGradient id="paint10_linear_13345_317309" x1="12.4739" y1="-15.6169" x2="10.6398" y2="57.5711" gradientUnits="userSpaceOnUse">
<stop stop-color="#A38133"/>
<stop offset="0.829092" stop-color="#1C1609"/>
<stop offset="1"/>
</linearGradient>
</defs>
</svg>
