<svg width="70" height="70" fill="none" xmlns="http://www.w3.org/2000/svg"><path fill-rule="evenodd" clip-rule="evenodd" d="M67.633 32.652a15.054 15.054 0 0 1 1.845 3.901 27.36 27.36 0 0 0-.65-6.77c-.283.993-.69 1.947-1.195 2.87Z" fill="#E5DEA4"/><path fill-rule="evenodd" clip-rule="evenodd" d="M35.14 1.158c-7.835-.064-15.68 2.421-22.16 7.548a9.89 9.89 0 0 0-.92 2.098 9.295 9.295 0 0 0-.383 2.306c.88.062 1.757.151 2.63.272.919.127 1.838.29 2.759.494 2.169-1.732 4.473-3.079 6.877-4.146 2.401-1.068 4.905-1.856 7.473-2.471a19.657 19.657 0 0 1 2.474-3.053 17.782 17.782 0 0 1 2.549-2.115 3.525 3.525 0 0 0-.693-.597 4.232 4.232 0 0 0-.606-.336Z" fill="#F9F5AF"/><path fill-rule="evenodd" clip-rule="evenodd" d="M49.41 4.348c-4.272-1.141-8.55-1.99-12.845-2.087-.53-.829-1.527-1.42-2.484-1.655 2.99-.952 12.413 1.614 15.33 3.742Z" fill="#5A4232"/><path d="M43.067 2.513a62.4 62.4 0 0 1 2.972.588 38.407 38.407 0 0 0-4.762-1.485C39.165 1.1 37.093.776 35.6.806a4.072 4.072 0 0 1 1.184 1.055c2.1.06 4.193.294 6.283.652Zm6.237 2.226c-2.127-.568-4.254-1.062-6.378-1.427-2.122-.364-4.245-.598-6.371-.646a.411.411 0 0 1-.343-.198 3.135 3.135 0 0 0-.905-.888c-.406-.27-.87-.47-1.326-.58a.405.405 0 0 1-.025-.78c1.505-.48 4.492-.129 7.516.61 3.271.797 6.62 2.052 8.182 3.19.182.134 1.134.752 1 .932-.104.139-1.192-.17-1.35-.213ZM17.9 13.6a.405.405 0 1 1-.195.787 32.369 32.369 0 0 0-3.107-.582 38.226 38.226 0 0 0-3.133-.299.407.407 0 0 1-.386-.427.408.408 0 0 1 .432-.382c1.074.06 2.138.158 3.198.305 1.063.147 2.124.343 3.191.598Z" fill="#907451"/><path d="M31.556 7.995c-.12.19.155-.29-.038-.408-.192-.118-.78.17-.66-.02a19.041 19.041 0 0 1 2.666-3.38 17.05 17.05 0 0 1 3.034-2.416c.19-.12-.155.206-.033.395.12.189.662.17.472.29a16.187 16.187 0 0 0-2.891 2.302c-.91.911-1.763 1.979-2.55 3.237Z" fill="#907451"/><path fill-rule="evenodd" clip-rule="evenodd" d="M9.323 57.68c-12.8-14.25-11.68-35.902 2.502-48.359C26.006-3.137 47.878-1.683 60.678 12.568c12.8 14.25 11.68 35.901-2.502 48.358-14.18 12.459-36.053 11.005-48.853-3.246Z" fill="#F9F5AF"/><path fill-rule="evenodd" clip-rule="evenodd" d="M54.807 18.592c-2.23-.905-4.454-1.527-6.672-1.837a22.375 22.375 0 0 0-6.73.06 60.92 60.92 0 0 0-4.455 5.34 94.631 94.631 0 0 0-4.03 5.883.294.294 0 0 1-.033.045 46.638 46.638 0 0 0 2.108 6.721c.925 2.333 1.97 4.277 3.194 6.478 5.573.916 10.795 1.512 16.22 2.325 1.412-2.042 2.476-3.717 3.534-5.752a47.83 47.83 0 0 0 2.65-6.073c-.532-2.306-1.333-4.54-2.32-6.723-.998-2.208-2.181-4.354-3.466-6.467Z" fill="url(#a)"/><path fill-rule="evenodd" clip-rule="evenodd" d="M59.669 55.876a34.114 34.114 0 0 0 3.608-2.858 43.931 43.931 0 0 0 2.708-2.685A33.335 33.335 0 0 0 69 41.215c.12-1.54.081-3.03-.135-4.462a15.736 15.736 0 0 0-1.162-4.038 20.096 20.096 0 0 0-3.535-.744 18.637 18.637 0 0 0-3.204-.096 48.038 48.038 0 0 1-2.697 5.994 57.548 57.548 0 0 1-3.86 6.223c.576 1.757.826 3.638.773 5.633-.05 1.934-.385 3.974-.979 6.112a9.657 9.657 0 0 0 2.633.397c.947.01 1.88-.122 2.835-.358Z" fill="url(#b)"/><path fill-rule="evenodd" clip-rule="evenodd" d="M60.286 56.264c-.978.237-1.938.367-2.914.356a10.373 10.373 0 0 1-3.05-.501c-1.93 1.696-4.03 3.168-6.35 4.355a29.473 29.473 0 0 1-7.67 2.663 13.143 13.143 0 0 1-1.724 2.61 10.863 10.863 0 0 1-2.262 1.997c.132.317.307.597.511.853.18.225.384.435.603.634 7.484-.532 14.826-3.396 20.833-8.673a35.062 35.062 0 0 0 3.468-3.506 3.272 3.272 0 0 1-.542-.178 2.918 2.918 0 0 1-.903-.61Z" fill="url(#c)"/><path fill-rule="evenodd" clip-rule="evenodd" d="M25.368 67.375c-2.656-1.21-5.012-2.653-7.166-4.086-2.294-1.526-4.364-3.064-6.164-4.895-1.489-.756-2.836-1.61-4.026-2.608.394.464.802.923 1.223 1.374 2.781 2.979 5.82 5.873 9.198 7.766 2.188 1.226 4.583 1.766 6.927 2.532.002-.028.004-.056.008-.083Z" fill="#E5DEA4"/><path fill-rule="evenodd" clip-rule="evenodd" d="M30.317 54.397a34.706 34.706 0 0 1-6.994-.501 35.171 35.171 0 0 1-6.224-1.7 18.175 18.175 0 0 0-2.553 2.684 23.748 23.748 0 0 0-2.093 3.23c.622.65 1.276 1.28 1.965 1.89a36.224 36.224 0 0 0 3.393 2.654 43.572 43.572 0 0 0 3.844 2.374c.916.504 1.87.991 2.864 1.462a.64.64 0 0 1 .054.008c2.041.409 4.072.747 6.075.887 1.955.135 3.88.082 5.758-.282a9.758 9.758 0 0 0 2.246-1.933 11.827 11.827 0 0 0 1.459-2.167 26.527 26.527 0 0 1-5.48-3.692 25.211 25.211 0 0 1-4.314-4.914Z" fill="url(#d)"/><path fill-rule="evenodd" clip-rule="evenodd" d="M32.262 27.807c-2.427-.54-4.82-.999-7.129-1.26-2.41-.271-4.732-.328-6.917-.039-.72.78-1.379 1.544-1.984 2.294a36.773 36.773 0 0 0-2.602 3.638 30.442 30.442 0 0 0-1.739 3.19c-.37.788-.689 1.562-.968 2.325a37.363 37.363 0 0 0 2.409 6.858c1.06 2.298 2.373 4.59 3.945 6.877.922.345 1.861.653 2.82.923a33.162 33.162 0 0 0 7.14 1.188 34.61 34.61 0 0 0 2.81.041c1.056-2.327 2.274-4.461 3.581-6.49 1.288-1.998 2.662-3.897 4.05-5.78a58.46 58.46 0 0 1-3.245-6.804 47.195 47.195 0 0 1-2.17-6.96Z" fill="url(#e)"/><path fill-rule="evenodd" clip-rule="evenodd" d="M2.732 36.4a13.678 13.678 0 0 1-1.424-1.944c-.19-.318-.362-.64-.512-.965a37 37 0 0 0 1.386 10.986 21.822 21.822 0 0 1-.08-2.62c.053-1.879.322-3.676.63-5.457Z" fill="#E5DEA4"/><path fill-rule="evenodd" clip-rule="evenodd" d="M17.338 13.893c-.82-.178-1.641-.32-2.464-.434-.93-.128-1.863-.22-2.801-.28a26.152 26.152 0 0 0-4.7 4.154c-1.46 1.63-2.775 3.466-3.962 5.484a.425.425 0 0 1-.592.141 34.286 34.286 0 0 0-1.999 9.15c.11.052.198.15.23.275.175.691.477 1.378.88 2.053.365.61.81 1.207 1.318 1.785 1.336.65 3.103.951 5.041 1.282.842.143 1.715.293 2.624.483a30.518 30.518 0 0 1 2.732-5.53c1.205-1.935 2.74-3.957 4.716-6.098a26.876 26.876 0 0 1-1.289-6.212 24.899 24.899 0 0 1 .266-6.253Z" fill="url(#f)"/><path fill-rule="evenodd" clip-rule="evenodd" d="M56.3 8.942a35.512 35.512 0 0 0-6.792-4.285.428.428 0 0 1-.28.021c-2.173-.58-4.346-1.086-6.518-1.458-2.131-.365-4.264-.603-6.399-.658a16.63 16.63 0 0 0-2.616 2.136 18.286 18.286 0 0 0-2.174 2.644c2.035 1.248 3.937 2.578 5.596 4.054 1.705 1.518 3.157 3.192 4.24 5.092a23.196 23.196 0 0 1 6.765-.031c2.248.313 4.502.94 6.763 1.848a12.353 12.353 0 0 0 1.913-2.776 13.033 13.033 0 0 0 1.092-3.187c.002-.012.006-.024.01-.035-.292-1.22-.856-2.207-1.52-3.106a.41.41 0 0 1-.08-.259Z" fill="url(#g)"/><path d="M.864 32.849C.417 41.497 3.304 50.367 9.63 57.41a34.815 34.815 0 0 0 23.628 11.504c8.735.58 17.64-2.138 24.645-8.292 7.006-6.154 10.785-14.578 11.232-23.224.448-8.648-2.439-17.518-8.765-24.562A34.811 34.811 0 0 0 36.741 1.333C28.007.753 19.103 3.47 12.097 9.624 5.091 15.78 1.312 24.203.864 32.85ZM9.015 57.95C2.542 50.742-.412 41.662.046 32.808c.458-8.858 4.33-17.488 11.505-23.79C18.727 2.713 27.849-.07 36.796.524a35.629 35.629 0 0 1 24.189 11.773c6.473 7.208 9.427 16.288 8.969 25.142-.458 8.857-4.33 17.487-11.505 23.79-7.176 6.304-16.298 9.088-25.245 8.493A35.631 35.631 0 0 1 9.014 57.95Z" fill="#907451"/><path fill-rule="evenodd" clip-rule="evenodd" d="M54.28 44.102c-5.006-.753-10.337-1.44-16.114-2.394-2.817 3.815-5.586 7.683-7.663 12.321 2.407 3.68 5.703 6.623 9.926 8.707 5.47-1.055 9.885-3.483 13.614-6.807 1.245-4.4 1.396-8.37.238-11.827Z" fill="url(#h)"/><path d="M35.098 58.714a25.226 25.226 0 0 0 5.388 3.598c2.641-.522 5.03-1.37 7.213-2.488 2.187-1.12 4.166-2.511 5.98-4.116.593-2.127.926-4.148.974-6.055.045-1.84-.176-3.571-.687-5.189-1.61-.24-3.392-.495-5.218-.755-3.307-.47-6.76-.963-10.4-1.56-1.354 1.836-2.693 3.686-3.945 5.63-1.258 1.952-2.428 3.997-3.435 6.212a23.83 23.83 0 0 0 4.13 4.723Zm5.133 4.377a26.073 26.073 0 0 1-5.678-3.77 24.686 24.686 0 0 1-4.395-5.07.402.402 0 0 1-.016-.416c1.047-2.333 2.263-4.467 3.569-6.493 1.31-2.033 2.71-3.96 4.124-5.873.099-.135.267-.191.421-.157 3.702.611 7.23 1.114 10.608 1.595 1.817.258 3.588.511 5.477.796.157.023.28.132.327.272h.001c.594 1.772.853 3.674.803 5.696-.05 2.01-.404 4.136-1.036 6.368a.405.405 0 0 1-.14.208c-1.884 1.678-3.942 3.13-6.218 4.296a28.187 28.187 0 0 1-7.57 2.591.408.408 0 0 1-.277-.043Z" fill="#907451"/><path fill-rule="evenodd" clip-rule="evenodd" d="M3.04 36.286c-.588 3.358-1.047 6.759.065 10.683.554 2.29 1.625 4.126 3.005 5.69 1.488 2.42 3.603 4.165 6.248 5.568 1.346-2.531 2.93-4.645 5.01-6.36-3.139-4.555-5.239-9.13-6.34-13.72-3.055-.675-5.973-.855-7.988-1.86Z" fill="url(#i)"/><path d="M14.913 54.988a23.536 23.536 0 0 0-2.194 3.431.41.41 0 0 1-.555.165c-1.35-.716-2.566-1.52-3.636-2.457A14.132 14.132 0 0 1 5.779 52.9c-1.403-1.597-2.493-3.47-3.064-5.802l-.004-.018c-.568-2.005-.735-3.876-.685-5.675.05-1.779.312-3.478.606-5.164a.413.413 0 0 1 .594-.317c1.307.654 3.05.95 4.965 1.278.926.158 1.893.323 2.902.545.16.025.295.142.334.307a36.614 36.614 0 0 0 2.38 6.8c1.045 2.264 2.34 4.523 3.893 6.777a.402.402 0 0 1-.07.548 17.728 17.728 0 0 0-2.717 2.81Zm-2.72 2.687a23.856 23.856 0 0 1 2.07-3.181 18.569 18.569 0 0 1 2.56-2.7c-1.491-2.199-2.743-4.4-3.761-6.606a37.484 37.484 0 0 1-2.372-6.7c-.886-.19-1.78-.342-2.64-.489-1.754-.299-3.367-.574-4.696-1.124-.252 1.493-.465 2.998-.509 4.551-.047 1.722.112 3.514.655 5.434.005.015.009.03.011.045.539 2.206 1.574 3.977 2.907 5.489a.307.307 0 0 1 .044.06 13.334 13.334 0 0 0 2.612 3.066c.924.81 1.967 1.518 3.118 2.155Z" fill="#907451"/><path fill-rule="evenodd" clip-rule="evenodd" d="M36.456 67.32c-3.807.758-7.794.233-11.822-.575-.155.233-.222.54.118.994 4.736 1.476 9.194 2.105 13.335 1.767-.707-.585-1.339-1.236-1.63-2.185Z" fill="#5A4232"/><path d="M30.66 67.216c1.94.135 3.852.079 5.715-.293v.002a.409.409 0 0 1 .473.278c.13.42.336.777.59 1.095.261.327.577.62.913.897v.002c.08.066.135.164.144.275a.406.406 0 0 1-.374.438c-2.102.17-4.281.097-6.534-.206-2.246-.302-4.567-.833-6.957-1.578v-.001a.407.407 0 0 1-.206-.144c-.225-.302-.316-.569-.325-.807-.01-.263.076-.475.196-.653a.411.411 0 0 1 .423-.172c1.996.4 3.982.73 5.941.867Zm5.53.568c-1.832.327-3.7.372-5.59.24-1.872-.13-3.767-.434-5.672-.808a.67.67 0 0 0 .082.178c2.298.71 4.53 1.217 6.689 1.508 1.86.25 3.665.34 5.413.26a5.5 5.5 0 0 1-.316-.36 4.196 4.196 0 0 1-.606-1.018Z" fill="#907451"/><path fill-rule="evenodd" clip-rule="evenodd" d="M68.508 27.028c-.168-3.413-1.648-6.792-4.56-10.134-1.637-1.958-3.444-3.66-5.77-4.575-.459 2.19-1.398 4.3-3.25 6.253 2.568 4.216 4.727 8.555 5.782 13.224 2.208-.157 4.525.086 6.99.874.62-1.719.95-3.57.808-5.642Z" fill="url(#j)"/><path d="M64.159 31.477c1.067.128 2.16.353 3.283.688.24-.724.426-1.47.544-2.244a13.005 13.005 0 0 0 .113-2.872c-.082-1.658-.482-3.308-1.216-4.951-.738-1.65-1.811-3.294-3.235-4.93l-.014-.015c-.803-.96-1.647-1.858-2.575-2.627a11.435 11.435 0 0 0-2.589-1.643 13.27 13.27 0 0 1-1.026 2.831 12.88 12.88 0 0 1-2.008 2.909c1.235 2.041 2.37 4.109 3.326 6.225.954 2.11 1.736 4.276 2.27 6.522a18.29 18.29 0 0 1 3.127.107Zm3.392 1.57a18.858 18.858 0 0 0-3.49-.767 17.437 17.437 0 0 0-3.32-.08.408.408 0 0 1-.434-.333c-.52-2.296-1.313-4.518-2.295-6.687-.987-2.185-2.16-4.308-3.434-6.398a.401.401 0 0 1 .062-.498 12.167 12.167 0 0 0 2.069-2.93 12.737 12.737 0 0 0 1.068-3.118.41.41 0 0 1 .551-.293c1.21.475 2.28 1.151 3.258 1.962.966.8 1.844 1.732 2.68 2.731l.002.005c1.478 1.698 2.595 3.409 3.364 5.13.776 1.736 1.2 3.482 1.285 5.238v.004c.073 1.06.024 2.067-.123 3.03a14.57 14.57 0 0 1-.707 2.762.411.411 0 0 1-.524.246l-.012-.004Z" fill="#907451"/><path fill-rule="evenodd" clip-rule="evenodd" d="M31.41 7.474c-5 1.18-9.75 3.044-13.944 6.439-.794 4.291-.399 8.485 1.007 12.596 4.396-.598 9.341.219 14.416 1.366 2.505-3.94 5.217-7.74 8.474-11.17-2.095-3.813-5.746-6.69-9.953-9.231Z" fill="url(#k)"/><path d="M25.473 26.135c2.352.265 4.774.733 7.225 1.28a92.147 92.147 0 0 1 3.818-5.558 60.616 60.616 0 0 1 4.345-5.213c-1.01-1.759-2.365-3.314-3.957-4.73-1.643-1.463-3.536-2.776-5.563-4.008-2.417.578-4.774 1.32-7.036 2.326-2.264 1.006-4.43 2.273-6.462 3.9a23.462 23.462 0 0 0-.29 6.113 25.31 25.31 0 0 0 1.203 5.82c2.134-.255 4.389-.192 6.717.07Zm7.324 2.134c-2.526-.57-5.018-1.06-7.417-1.33-2.387-.268-4.689-.323-6.85-.029a.41.41 0 0 1-.45-.288 26.26 26.26 0 0 1-1.344-6.31 24.3 24.3 0 0 1 .328-6.472.403.403 0 0 1 .143-.24c2.128-1.723 4.394-3.056 6.76-4.107 2.36-1.049 4.822-1.817 7.347-2.414a.419.419 0 0 1 .312.05c2.124 1.284 4.11 2.653 5.828 4.183 1.732 1.542 3.198 3.248 4.27 5.197a.402.402 0 0 1-.079.49 59.47 59.47 0 0 0-4.472 5.341 92.305 92.305 0 0 0-3.937 5.751.413.413 0 0 1-.44.178Z" fill="#907451"/><path fill-rule="evenodd" clip-rule="evenodd" d="M3.089 22.706c2.336-3.974 5.183-7.233 8.673-9.592.012-1.985.576-3.572 1.413-4.967-4.168 2.163-11.18 10.687-10.086 14.56Z" fill="#5A4232"/><path d="M7.299 17.575c-1.421 1.585-2.701 3.372-3.856 5.336-.051.088-.823.968-.93.998-.218.06.09-.811.03-1.027-.538-1.902.844-4.838 2.753-7.595 2.22-3.203 5.375-6.298 7.688-7.498a.413.413 0 0 1 .4.011.402.402 0 0 1 .142.555 9.543 9.543 0 0 0-.975 2.17 9.072 9.072 0 0 0-.379 2.592.405.405 0 0 1-.179.331A25.414 25.414 0 0 0 7.3 17.575ZM3.4 21.409a32.872 32.872 0 0 1 3.284-4.373 26.25 26.25 0 0 1 4.67-4.135c.024-.947.171-1.81.412-2.607a9.87 9.87 0 0 1 .374-1.027c-2.016 1.433-4.393 3.915-6.17 6.48-1.4 2.023-2.42 4.077-2.57 5.662Z" fill="#907451"/><path fill-rule="evenodd" clip-rule="evenodd" d="M62.194 57.015c-1.152-.103-1.66-.332-2.233-.943 2.566-1.791 4.687-3.85 6.611-6.027-1.421 3.124-2.302 4.227-4.378 6.97Z" fill="#5A4232"/><path d="M61.023 56.362c.257.11.568.18.982.227l.14-.185c1.22-1.612 2.01-2.653 2.785-4.008-.372.373-.753.741-1.143 1.103a33.648 33.648 0 0 1-3.182 2.615c.13.101.266.183.419.248Zm1.133 1.057c-.62-.056-1.074-.148-1.459-.312-.398-.17-.71-.411-1.036-.76a.402.402 0 0 1 .063-.605 32.646 32.646 0 0 0 3.505-2.835 43.697 43.697 0 0 0 3.035-3.128.413.413 0 0 1 .578-.038c.139.12.176.313.103.471-1.373 3.02-2.247 4.172-4.144 6.678l-.28.368a.414.414 0 0 1-.364.161ZM11.368 38.342a.41.41 0 0 1-.522.246.403.403 0 0 1-.25-.516 29.69 29.69 0 0 1 2.806-5.782c1.25-2.003 2.86-4.104 4.965-6.336a.413.413 0 0 1 .58-.02.402.402 0 0 1 .019.572c-2.062 2.186-3.64 4.246-4.866 6.212a28.814 28.814 0 0 0-2.732 5.624ZM38.685 41.79c.111.196-.076.178-.273.288-.198.11-.33.306-.442.11-1.315-2.323-2.489-4.711-3.471-7.188-.982-2.477-1.873-4.91-2.42-7.586-.045-.22.365.212.587.168.222-.045.27-.682.316-.463a44.997 44.997 0 0 0 2.28 7.584c.967 2.439 2.126 4.794 3.423 7.087ZM30.705 53.69a.408.408 0 0 1 .427.39.409.409 0 0 1-.394.422c-2.537.1-4.944-.074-7.242-.477a34.523 34.523 0 0 1-6.566-1.845.404.404 0 0 1-.23-.526.411.411 0 0 1 .532-.228 33.68 33.68 0 0 0 6.407 1.802c2.233.392 4.581.56 7.066.463ZM25.223 66.602a.403.403 0 0 1 .198.538.411.411 0 0 1-.543.195c-2.704-1.245-5.108-2.599-7.243-4.08-2.143-1.485-4.024-3.105-5.674-4.883a.4.4 0 0 1 .024-.572.412.412 0 0 1 .578.025c1.605 1.727 3.442 3.31 5.543 4.765 2.107 1.461 4.469 2.792 7.117 4.012ZM3.592 36.292a.402.402 0 0 1-.025.572.413.413 0 0 1-.579-.025 13.205 13.205 0 0 1-1.69-2.207 8.298 8.298 0 0 1-.946-2.217.405.405 0 0 1 .298-.49c.219-.054.274.078.329.294.17.672.63 1.34 1.024 1.997.427.714.966 1.409 1.59 2.076ZM55.438 18.32c.207.087.026.094-.063.3-.09.204-.054.53-.261.443-2.343-.995-4.68-1.673-7.008-1.998a21.831 21.831 0 0 0-6.934.12.404.404 0 1 1-.148-.795 22.641 22.641 0 0 1 7.198-.127c2.397.334 4.803 1.032 7.216 2.056ZM54.5 44.475c-.13.184-.15.006-.336-.122-.185-.127-.465-.156-.336-.34a56.14 56.14 0 0 0 3.86-6.329 46.67 46.67 0 0 0 2.72-6.3.41.41 0 0 1 .774.262 47.247 47.247 0 0 1-2.766 6.41 56.61 56.61 0 0 1-3.916 6.42Z" fill="#907451"/><path d="M60.07 55.627a.404.404 0 1 1 .22.78c-1.093.299-2.155.468-3.238.456a10.03 10.03 0 0 1-3.372-.636.403.403 0 0 1-.242-.52.412.412 0 0 1 .526-.24c1.081.395 2.099.574 3.098.585 1.005.011 1.992-.146 3.008-.425ZM36.436 67.803a.413.413 0 0 1-.562-.143.404.404 0 0 1 .145-.556 9.544 9.544 0 0 0 2.466-2.054c.682-.794 1.233-1.687 1.696-2.65a.411.411 0 0 1 .546-.193.404.404 0 0 1 .195.54c-.492 1.023-1.082 1.977-1.813 2.83a10.36 10.36 0 0 1-2.673 2.226ZM58.68 12.476a.406.406 0 0 1-.332.47.41.41 0 0 1-.476-.329c-.248-1.388-.849-2.474-1.572-3.453-.134-.18-.748-1.038-.565-1.17.182-.133 1.092.51 1.225.691.79 1.07 1.447 2.26 1.72 3.79ZM69.484 41.758a.408.408 0 0 1-.444.367.407.407 0 0 1-.372-.44c.147-1.63.118-3.204-.107-4.713a15.66 15.66 0 0 0-1.27-4.305.403.403 0 0 1 .2-.537.411.411 0 0 1 .542.198 16.463 16.463 0 0 1 1.34 4.525c.234 1.57.263 3.208.111 4.905Z" fill="#907451"/><path fill-rule="evenodd" clip-rule="evenodd" d="M57.91 10.243c.257.553.47 1.145.621 1.793.88.374 1.696.842 2.462 1.382a40.028 40.028 0 0 0-3.083-3.175Z" fill="#E5DEA4"/><defs><linearGradient id="f" x1="7.604" y1="33.638" x2="13.056" y2="16.824" gradientUnits="userSpaceOnUse"><stop stop-color="#E5DEA4"/><stop offset="1" stop-color="#F9F5AF"/></linearGradient><linearGradient id="a" x1="41.88" y1="48.587" x2="48.816" y2="21.366" gradientUnits="userSpaceOnUse"><stop stop-color="#E5DEA4"/><stop offset="1" stop-color="#F9F5B0"/></linearGradient><linearGradient id="c" x1="47.018" y1="69.058" x2="56.262" y2="37.672" gradientUnits="userSpaceOnUse"><stop stop-color="#E5DEA4"/><stop offset="1" stop-color="#F9F5AF"/></linearGradient><linearGradient id="d" x1="26.221" y1="67.46" x2="26.521" y2="32.792" gradientUnits="userSpaceOnUse"><stop stop-color="#E5DEA4"/><stop offset="1" stop-color="#F9F5AF"/></linearGradient><linearGradient id="e" x1="22.899" y1="50.216" x2="26.289" y2="24.361" gradientUnits="userSpaceOnUse"><stop stop-color="#E5DEA4"/><stop offset="1" stop-color="#F9F5AF"/></linearGradient><linearGradient id="b" x1="58.756" y1="52.958" x2="66.146" y2="27.515" gradientUnits="userSpaceOnUse"><stop stop-color="#E5DEA4"/><stop offset="1" stop-color="#F9F5AF"/></linearGradient><linearGradient id="g" x1="33.928" y1="32.285" x2="46.539" y2="6.008" gradientUnits="userSpaceOnUse"><stop stop-color="#E5DEA4"/><stop offset="1" stop-color="#F9F5AF"/></linearGradient><linearGradient id="h" x1="42.118" y1="55.536" x2="50.883" y2="23.351" gradientUnits="userSpaceOnUse"><stop stop-color="#5A4232"/><stop offset="1" stop-color="#F9F5B0"/></linearGradient><linearGradient id="i" x1="10.188" y1="52.565" x2="8.242" y2="15.824" gradientUnits="userSpaceOnUse"><stop stop-color="#5A4232"/><stop offset="1" stop-color="#F9F5B0"/></linearGradient><linearGradient id="j" x1="62.021" y1="27.264" x2="60.059" y2="-2.379" gradientUnits="userSpaceOnUse"><stop stop-color="#5A4232"/><stop offset="1" stop-color="#F9F5B0"/></linearGradient><linearGradient id="k" x1="23.131" y1="23.376" x2="40.235" y2="2.17" gradientUnits="userSpaceOnUse"><stop stop-color="#5A4232"/><stop offset="1" stop-color="#F9F5B0"/></linearGradient></defs></svg>