<svg width="72" height="16" viewBox="0 0 72 16" fill="none" xmlns="http://www.w3.org/2000/svg">
<path d="M8.63256 0.5H58.8825L72 15.5L0 14.6205L8.63256 0.5Z" fill="#26A3A8"/>
<path d="M63.1481 12.5964L56.1981 2.22514L56.0743 2.04042L55.8599 2.03993L12.1888 1.93476L11.8909 1.93408L11.7255 2.23376C10.8416 3.83565 9.93083 5.53228 9.0752 7.32895C8.21716 9.12293 7.4288 10.9988 6.69922 12.8627C16.0005 13.1243 25.3477 13.3565 34.6738 13.5014C44.0004 13.6494 53.2831 13.711 62.4778 13.7476L63.9235 13.7534L63.1481 12.5964ZM9.22112 11.2662C9.9011 9.91832 10.5223 8.58235 11.0738 7.16443C11.593 5.83786 12.0645 4.42006 12.5544 2.92209L55.6308 2.81839L61.1349 12.1963C52.6186 11.9402 44.177 11.7084 35.7776 11.5554C26.9266 11.391 18.0969 11.3139 9.22112 11.2662Z" fill="#40DBBA"/>
</svg>
