<svg width="62" height="56" viewBox="0 0 62 56" fill="none" xmlns="http://www.w3.org/2000/svg">
<path d="M5.05231 11.923C2.26668 11.923 0 9.64871 0 6.85365C0 4.05818 2.26668 1.78394 5.05231 1.78394C7.83784 1.78394 10.1045 4.05818 10.1045 6.85365C10.1045 9.64871 7.83784 11.923 5.05231 11.923Z" fill="#326D78"/>
<path d="M4.76533 11.4599C7.39714 11.4599 9.53065 9.31913 9.53065 6.67841C9.53065 4.0377 7.39714 1.89697 4.76533 1.89697C2.13351 1.89697 0 4.0377 0 6.67841C0 9.31913 2.13351 11.4599 4.76533 11.4599Z" fill="url(#paint0_linear_13345_317341)"/>
<path d="M4.47656 8.88757L5.58475 11.3848C7.45642 11.059 8.95025 9.64047 9.39276 7.80584L7.33027 6.48975L4.47656 8.88757Z" fill="#326D78"/>
<path d="M56.9478 12.6508C54.1621 12.6508 51.8955 10.3765 51.8955 7.58152C51.8955 4.78604 54.1621 2.51172 56.9478 2.51172C59.7334 2.51172 62 4.78604 62 7.58152C62 10.3765 59.7334 12.6508 56.9478 12.6508Z" fill="#326D78"/>
<path d="M61.5907 7.44207C61.5907 4.8014 59.4572 2.66064 56.8254 2.66064C54.1935 2.66064 52.0601 4.8014 52.0601 7.44207C52.0601 10.0828 54.1935 12.2236 56.8254 12.2236C59.4572 12.2236 61.5907 10.0828 61.5907 7.44207Z" fill="url(#paint1_linear_13345_317341)"/>
<path d="M56.5356 9.65028L57.6439 12.1476C59.5156 11.8217 61.0093 10.4032 61.452 8.56855L59.3895 7.25244L56.5356 9.65028Z" fill="#326D78"/>
<path d="M53.2197 7.44215L53.7567 6.08984L54.5788 6.09824L54.5033 8.60972L4.3943 8.08898C4.24333 7.84539 4.12589 7.6018 4.04199 7.37501H4.05035L53.2197 7.44215Z" fill="#326D78"/>
<path d="M53.7565 6.08961L53.2196 7.44092L4.05019 7.37383H4.04183C3.83208 6.72757 3.92434 6.12325 4.39413 5.57764L53.7565 6.08961Z" fill="url(#paint2_linear_13345_317341)"/>
<g style="mix-blend-mode:screen">
<path d="M4.70599 5.58105L4.38672 6.70943L53.0086 6.85235L53.4013 6.03086L4.70599 5.58105Z" fill="url(#paint3_linear_13345_317341)"/>
</g>
<path d="M50.2914 50.1621C50.2663 49.2718 50.2495 48.3143 50.2243 47.2979C49.9978 35.9921 49.8551 17.7566 50.4927 8.55908L52.4726 8.60945C52.3132 25.333 52.6572 40.6791 53.7562 53.9336L50.3501 52.5476C50.3334 51.8253 50.3082 51.0273 50.2914 50.1621Z" fill="#C45E16"/>
<path d="M40.3668 45.5258C40.2996 46.4245 40.2241 47.3233 40.1402 48.222C37.5479 47.9617 34.9305 47.8861 32.3214 47.9869C31.6251 48.012 30.9204 48.0541 30.2241 48.0961C30.3667 47.2981 30.4842 46.4834 30.5848 45.677C33.2359 45.6182 35.8868 45.4754 38.5378 45.4838C39.1419 45.4838 39.7543 45.5006 40.3668 45.5258Z" fill="#D94922"/>
<path d="M50.225 47.2982C50.2501 48.3145 50.267 49.2721 50.292 50.1624C46.9783 49.2132 43.5723 48.5581 40.1411 48.2221C40.225 47.3234 40.3005 46.4246 40.3677 45.5259C43.7317 45.6351 47.1126 46.0887 50.225 47.2982Z" fill="#F15A24"/>
<path d="M30.586 45.6771C30.4854 46.4835 30.3679 47.2982 30.2253 48.0962C27.4149 48.2726 24.613 48.5246 21.8025 48.3313C18.9837 48.1382 16.1146 47.4326 13.7656 45.9039C13.8243 44.8791 13.8662 43.8544 13.9082 42.8296C17.2975 44.6608 21.232 45.4167 25.1079 45.6267C26.9283 45.7275 28.7572 45.719 30.586 45.6771Z" fill="#F15A24"/>
<path d="M40.1407 48.222C40.0148 49.7676 39.8555 51.3131 39.6877 52.8586C38.4964 52.7998 37.2967 52.8838 36.0719 53.1442C33.6222 53.6734 31.1391 53.9506 28.6475 54.0177C29.3773 52.0858 29.8722 50.112 30.2246 48.096C30.9209 48.0541 31.6256 48.012 32.3219 47.9869C34.9309 47.886 37.5484 47.9617 40.1407 48.222Z" fill="#DE731F"/>
<path d="M40.5189 15.1956C41.5927 21.5373 41.0809 28.2653 40.9215 34.6658C40.8292 38.2944 40.6447 41.9147 40.3679 45.5265C39.7554 45.5013 39.143 45.4844 38.5389 45.4844C35.8879 45.476 33.237 45.6189 30.5859 45.6776C30.9551 42.7378 31.0977 39.7476 31.2907 36.7657C31.7353 30.0965 32.7084 23.318 35.586 17.2115C36.3326 15.6155 39.7638 10.7019 40.5189 15.1956Z" fill="#DE731F"/>
<path d="M50.493 8.55915C49.8554 17.7567 49.998 35.9922 50.2246 47.298C47.1122 46.0885 43.7313 45.6349 40.3673 45.5257C40.644 41.9139 40.8286 38.2937 40.9209 34.6651C41.0803 28.2645 41.592 21.5365 40.5182 15.1948C39.7632 10.7011 36.3319 15.6148 35.5854 17.2107C32.7078 23.3172 31.7347 30.0957 31.29 36.7649C31.0971 39.7468 30.9545 42.737 30.5853 45.6769C28.7565 45.7188 26.9276 45.7273 25.1072 45.6265C21.2313 45.4165 17.2968 44.6606 13.9075 42.8294C14.4192 30.3644 14.0585 17.6139 12.9512 4.61134C14.436 2.42746 16.3572 1.01631 18.7984 0C20.9293 1.15908 23.1776 2.41067 25.3086 3.56976C26.0551 3.35136 26.8605 2.94821 27.6072 2.72981C28.9159 3.42699 30.2917 4.29213 31.7263 4.65331C36.3488 4.80456 49.8974 4.18292 50.7447 5.82087C50.6524 6.602 50.5686 7.52598 50.493 8.55915Z" fill="#FBA746"/>
<path d="M50.3512 52.5479C50.3931 54.0347 50.4351 55.219 50.4687 56.0002C46.8948 54.505 43.363 53.0267 39.6885 52.8588C39.8563 51.3132 40.0156 49.7677 40.1415 48.2222C43.5727 48.5582 46.9787 49.2133 50.2924 50.1625C50.3093 51.0277 50.3344 51.8256 50.3512 52.5479Z" fill="#FBA746"/>
<path d="M30.2245 48.0956C29.8721 50.1115 29.3772 52.0854 28.6474 54.0173C23.5215 54.1601 18.3705 53.3873 13.3789 52.0098C13.5299 49.9855 13.6641 47.9444 13.7648 45.9033C16.1138 47.4321 18.9829 48.1376 21.8017 48.3308C24.6121 48.524 27.4141 48.272 30.2245 48.0956Z" fill="#FBA746"/>
<g style="mix-blend-mode:screen">
<path d="M14.0557 5.9061C15.6974 20.808 15.8455 35.8752 14.4975 50.8067C17.4162 52.1991 20.5632 53.0375 23.7924 52.9054C25.8928 37.7651 20.4659 15.3873 24.9949 5.24974C24.9842 4.96113 25.0353 4.8572 25.1782 4.60645C23.2902 3.36326 20.8651 2.23742 18.6325 1.89648C17.3218 3.05417 15.3665 4.74841 14.0557 5.9061Z" fill="url(#paint4_linear_13345_317341)"/>
</g>
<path d="M59.8938 7.44184C59.8938 5.74136 58.5199 4.36279 56.8251 4.36279C55.1303 4.36279 53.7563 5.74136 53.7563 7.44184C53.7563 9.14243 55.1303 10.521 56.8251 10.521C58.5199 10.521 59.8938 9.14243 59.8938 7.44184Z" fill="url(#paint5_linear_13345_317341)"/>
<g style="mix-blend-mode:screen">
<path d="M54.0103 6.21671L57.8451 10.2808C58.5058 10.0794 59.0383 9.71859 59.3902 9.1334L56.1085 4.44824C55.1542 4.68031 54.4636 5.28228 54.0103 6.21671Z" fill="url(#paint6_linear_13345_317341)"/>
</g>
<path d="M7.83478 6.67916C7.83478 4.97866 6.46089 3.6001 4.76602 3.6001C3.07116 3.6001 1.69727 4.97866 1.69727 6.67916C1.69727 8.37973 3.07116 9.7583 4.76602 9.7583C6.46089 9.7583 7.83478 8.37973 7.83478 6.67916Z" fill="url(#paint7_linear_13345_317341)"/>
<g style="mix-blend-mode:screen">
<path d="M1.94922 5.45353L5.78417 9.51762C6.44478 9.31617 6.97725 8.9554 7.32916 8.37023L4.0475 3.68506C3.09325 3.91713 2.40269 4.5191 1.94922 5.45353Z" fill="url(#paint8_linear_13345_317341)"/>
</g>
<defs>
<linearGradient id="paint0_linear_13345_317341" x1="1.32338" y1="1.80552" x2="11.56" y2="16.2003" gradientUnits="userSpaceOnUse">
<stop stop-color="#BDE8BF"/>
<stop offset="1" stop-color="#4C8B8F"/>
</linearGradient>
<linearGradient id="paint1_linear_13345_317341" x1="53.3834" y1="2.56918" x2="63.6201" y2="16.9641" gradientUnits="userSpaceOnUse">
<stop stop-color="#BDE8BF"/>
<stop offset="1" stop-color="#4C8B8F"/>
</linearGradient>
<linearGradient id="paint2_linear_13345_317341" x1="3.93555" y1="6.50928" x2="53.7565" y2="6.50928" gradientUnits="userSpaceOnUse">
<stop stop-color="#BDE8BF"/>
<stop offset="1" stop-color="#4C8B8F"/>
</linearGradient>
<linearGradient id="paint3_linear_13345_317341" x1="4.38672" y1="6.2167" x2="53.4013" y2="6.2167" gradientUnits="userSpaceOnUse">
<stop stop-color="#8DA87E"/>
<stop offset="0.710409" stop-color="#1C2119"/>
<stop offset="0.882682"/>
</linearGradient>
<linearGradient id="paint4_linear_13345_317341" x1="27.6846" y1="27.3502" x2="15.0472" y2="27.4569" gradientUnits="userSpaceOnUse">
<stop stop-color="#8DA87E"/>
<stop offset="0.710409" stop-color="#1C2119"/>
<stop offset="0.882682"/>
</linearGradient>
<linearGradient id="paint5_linear_13345_317341" x1="59.2897" y1="10.6007" x2="54.4883" y2="4.48833" gradientUnits="userSpaceOnUse">
<stop stop-color="#BDE8BF"/>
<stop offset="1" stop-color="#4C8B8F"/>
</linearGradient>
<linearGradient id="paint6_linear_13345_317341" x1="54.5182" y1="3.19935" x2="58.4834" y2="11.2779" gradientUnits="userSpaceOnUse">
<stop stop-color="#8DA87E"/>
<stop offset="0.710409" stop-color="#1C2119"/>
<stop offset="0.882682"/>
</linearGradient>
<linearGradient id="paint7_linear_13345_317341" x1="7.23063" y1="9.83803" x2="2.42925" y2="3.72561" gradientUnits="userSpaceOnUse">
<stop stop-color="#BDE8BF"/>
<stop offset="1" stop-color="#4C8B8F"/>
</linearGradient>
<linearGradient id="paint8_linear_13345_317341" x1="2.45716" y1="2.43619" x2="6.42241" y2="10.5148" gradientUnits="userSpaceOnUse">
<stop stop-color="#8DA87E"/>
<stop offset="0.710409" stop-color="#1C2119"/>
<stop offset="0.882682"/>
</linearGradient>
</defs>
</svg>
