<svg width="72" height="20" viewBox="0 0 72 20" fill="none" xmlns="http://www.w3.org/2000/svg">
<path d="M10.5523 13.4848L10.5835 6.43945L7.98438 6.42596L7.95315 13.4713L10.5523 13.4848Z" fill="#73C5D8"/>
<path d="M68.8663 19.3016L68.9478 0.673828L13.0783 0.379629L12.9969 19.0074L68.8663 19.3016Z" fill="#81DBF7"/>
<path d="M13.0797 0.383057L9.46946 6.4282L9.43848 13.5175L12.9982 19.0108L13.0797 0.383057Z" fill="#99ECFF"/>
<path d="M71.9122 20L71.9995 0.0161133L68.9456 3.12271e-05L68.8582 19.984L71.9122 20Z" fill="#99ECFF"/>
<path d="M-0.000488281 12.4769L0.0114898 9.73864L0.0124533 9.51745L0.0244207 6.77923L9.00866 5.29395L8.98999 9.56473L8.98902 9.78592L8.97035 14.0567L-0.000488281 12.4769Z" fill="#81DBF7"/>
<path d="M12.9961 19.0095L13.0292 11.4448C13.5763 12.1414 14.2364 12.742 14.95 13.2185C16.6072 14.3253 18.5334 14.8432 20.4475 15.1894C24.2666 15.8802 28.1536 15.9469 32.0238 16.012C41.1228 16.1651 50.3139 16.3088 59.2136 14.2241C61.8905 13.5971 64.7497 12.6041 66.2958 10.125C67.5107 8.17709 67.6707 5.68834 67.7915 3.33146C67.837 2.44453 67.8825 1.55758 67.9279 0.670654L68.947 0.67602L68.8656 19.3037L12.9961 19.0095Z" fill="#7DCDF4"/>
<path d="M48.6712 19.1963L48.7529 0.568604L28.4937 0.46226L28.412 19.09L48.6712 19.1963Z" fill="#57ACEA"/>
<path d="M8.99864 7.58472C8.99864 7.58472 9.00493 8.53812 6.00491 9.65849C3.00489 10.7789 0.00849659 10.4207 0.00849659 10.4207L-0.000488281 12.4758L8.97035 14.0556L8.99864 7.58472Z" fill="#7DCDF4"/>
<path d="M0.889233 7.18603C3.42701 6.70501 5.98066 6.28654 8.54549 5.9314C8.59828 6.14712 8.26133 6.2822 7.99615 6.33369C6.49519 6.62519 4.9941 6.9162 3.49309 7.20745C2.73488 7.35456 1.97657 7.50127 1.21847 7.64879C1.00061 7.69119 0.633654 7.83626 0.479814 7.64414C0.289465 7.40642 0.660164 7.22945 0.889233 7.18603Z" fill="white"/>
<path d="M1.02876 8.15858C3.36614 8.00787 5.69324 7.66558 7.98431 7.13548C8.19891 7.08583 8.4728 7.06016 8.58781 7.26513C7.21771 7.73342 5.78574 7.93513 4.36234 8.13484C3.46036 8.26139 2.55839 8.38793 1.65642 8.51449C1.4481 8.54371 0.662075 8.78598 0.507198 8.59321C0.223228 8.23976 0.827476 8.17156 1.02876 8.15858Z" fill="white"/>
<path d="M35.2821 14.2966C34.6532 14.1604 34.0137 13.7317 33.7374 13.076C33.4387 12.3672 33.3513 11.3005 33.5853 10.0833C33.362 8.85281 33.4522 7.67694 33.8385 6.92725C34.1625 6.29842 34.8317 5.92833 35.4686 5.8488C36.2754 5.74806 37.0783 6.01359 37.8571 6.26558C39.5187 6.80318 41.1932 7.29267 42.8783 7.73339C43.2429 7.82877 43.6859 8.0159 43.713 8.42623C43.7308 8.69351 43.5382 8.93596 43.3105 9.03276C43.0828 9.12952 42.8288 9.11026 42.5872 9.07198C42.1844 9.00818 41.7633 8.74675 41.3786 8.89254C39.6973 9.52969 40.3483 11.7453 41.3983 11.7911C41.8049 11.8088 42.2099 11.7478 42.6161 11.7202C42.8598 11.7037 43.1144 11.7072 43.3341 11.824C43.5539 11.9408 43.7278 12.1997 43.6904 12.4645C43.6328 12.871 43.1775 13.0179 42.807 13.0804C41.0948 13.3691 39.3896 13.7073 37.6936 14.0946C36.8987 14.2762 36.0788 14.4691 35.2821 14.2966Z" fill="white"/>
<path d="M38.601 17.8581C38.583 17.8581 38.5656 17.8581 38.5474 17.858C36.1711 17.8455 33.9365 17.0115 32.2552 15.5095C30.5453 13.9819 29.6088 11.9484 29.6182 9.78344C29.6277 7.61853 30.5819 5.59489 32.3052 4.08545C33.9865 2.61259 36.2072 1.80322 38.5634 1.80322C38.5815 1.80322 38.5995 1.80322 38.6177 1.80334C40.994 1.81585 43.2286 2.64985 44.9099 4.15183C46.6198 5.67936 47.5563 7.7129 47.5469 9.87787C47.5275 14.288 43.5192 17.8581 38.601 17.8581ZM38.5633 2.80636C36.4134 2.80636 34.3954 3.53797 32.8753 4.8695C31.3724 6.18591 30.5403 7.93279 30.5322 9.78829C30.5241 11.6437 31.3409 13.3993 32.8321 14.7315C34.3521 16.0894 36.3834 16.8434 38.5519 16.8549C38.5681 16.8549 38.585 16.855 38.6012 16.855C43.018 16.8553 46.616 13.7321 46.6329 9.87301C46.641 8.01759 45.8242 6.26206 44.333 4.92984C42.813 3.57199 40.7817 2.81787 38.6132 2.80649C38.5967 2.80643 38.5798 2.80636 38.5633 2.80636Z" fill="#81DBF7"/>
<g opacity="0.28">
<path d="M14.7567 3.39296C15.2234 2.66217 16.0418 2.28143 16.8497 2.18059C17.6576 2.07974 18.472 2.22176 19.2782 2.33866C22.2837 2.77451 25.3309 2.8637 28.3533 2.60429C28.7738 2.5682 29.2105 2.52767 29.6055 2.68991C30.0006 2.85215 30.3391 3.28398 30.2745 3.74147C30.1889 4.34787 29.5238 4.59614 28.9697 4.67798C25.5848 5.17798 21.9915 4.11674 18.8054 5.46738C18.2989 5.68211 17.7944 5.97205 17.473 6.45239C17.1288 6.96686 17.0385 7.63051 16.7896 8.20744C16.0931 9.8224 14.7033 9.03525 14.4502 7.5995C14.242 6.41791 14.1155 4.39684 14.7567 3.39296Z" fill="white"/>
</g>
</svg>
