<svg width="36" height="56" viewBox="0 0 36 56" fill="none" xmlns="http://www.w3.org/2000/svg">
<path d="M18.2573 26.1821H2.54736L7.91898 55.9998H12.1828H24.3318H28.5393L33.9672 26.1821H18.2573Z" fill="#86EAEF"/>
<path d="M18.3615 26.1821H4.45508L8.99785 52.8963C8.99785 52.8963 9.83223 54.0568 12.9844 54.7783C16.1365 55.4999 18.3615 55.5564 18.3615 55.5564C18.3615 55.5564 20.5866 55.4999 23.7387 54.7783C26.8908 54.0568 27.7252 52.8963 27.7252 52.8963L32.268 26.1821H18.3615Z" fill="#B6FAFF"/>
<path d="M18.2573 28.8656C26.9337 28.8656 33.9672 27.6616 33.9672 26.1765C33.9672 24.6913 26.9337 23.4873 18.2573 23.4873C9.58094 23.4873 2.54736 24.6913 2.54736 26.1765C2.54736 27.6616 9.58094 28.8656 18.2573 28.8656Z" fill="#D9FDFF"/>
<path d="M18.3615 27.8218C26.5517 27.8218 33.1912 27.0324 33.1912 26.0586C33.1912 25.0848 26.5517 24.2954 18.3615 24.2954C10.1712 24.2954 3.53174 25.0848 3.53174 26.0586C3.53174 27.0324 10.1712 27.8218 18.3615 27.8218Z" fill="#B6FAFF"/>
<g opacity="0.53">
<path d="M7.24518 30.7637C7.07249 31.2349 7.21079 31.7555 7.34675 32.2383C7.92289 34.2841 8.44362 36.352 8.7036 38.46C9.01159 40.9574 8.96456 43.5527 9.93075 45.8799C10.0481 46.1626 10.1877 46.4496 10.4276 46.6421C10.6676 46.8346 11.034 46.9046 11.2859 46.7278C11.5039 46.5747 11.5781 46.2903 11.6077 46.0275C11.7269 44.9701 11.3802 43.9239 11.1901 42.8767C11.0109 41.8893 10.9703 40.8833 10.9121 39.8818C10.7487 37.0734 10.4427 34.2725 9.97809 31.4972C9.86513 30.8225 9.63989 30.2504 8.91353 30.0683C8.33611 29.9236 7.46712 30.1582 7.24518 30.7637Z" fill="white"/>
</g>
<path d="M3.99747 15.8134C3.70638 15.0967 3.47134 14.3512 3.29792 13.5945C3.99129 13.3565 4.66391 13.0531 5.30949 12.6871C4.63689 12.9107 3.93805 13.05 3.22449 13.1028C2.69048 11.8511 2.2739 10.5342 1.98907 9.19727C2.6459 9.36751 3.30767 9.32343 3.89425 9.07037C3.22098 9.056 2.53381 8.9211 1.85768 8.67055C1.44385 7.37393 1.09492 6.05477 0.81419 4.72556C1.15699 4.79648 1.49927 4.78971 1.82048 4.70562C1.54703 4.65401 1.27286 4.55774 1.00662 4.41985C0.920029 4.37499 0.830813 4.32266 0.764866 4.23186C0.699724 4.14214 0.665288 4.02599 0.633826 3.91399C0.347692 2.8955 0.134905 1.85686 -0.000488281 0.817871C0.843738 1.49384 1.79165 1.85589 2.71797 1.98842C3.6443 2.12096 4.55345 2.03239 5.43808 1.86495C5.71077 2.55692 5.95978 3.26052 6.18395 3.97255C6.56454 5.18136 6.8729 6.412 7.1808 7.64103C7.41511 8.57632 7.64943 9.51161 7.88374 10.4469C8.10395 11.3259 8.45597 12.3068 8.56877 13.1961C8.64729 13.8152 8.28605 13.9057 7.90588 14.0036C7.27263 14.1668 6.66193 14.3751 6.06735 14.6585C5.35791 14.9966 4.67704 15.4049 3.99747 15.8134Z" fill="#F4DCBD"/>
<path d="M4.05199 14.0517C5.37852 13.9376 6.91583 13.5604 8.05536 12.8558C8.12126 12.8151 8.17001 12.7428 8.16695 12.6634C8.16659 12.6541 8.16624 12.6448 8.16589 12.6355C8.16173 12.5273 8.07935 12.4465 7.96994 12.4417C7.75314 12.4322 7.56566 12.6628 7.39325 12.7715C7.0309 13 6.64115 13.159 6.23715 13.3013C5.51106 13.557 4.76171 13.7394 4.04933 14.0322C4.03995 14.0361 4.03961 14.0528 4.05199 14.0517Z" fill="#EFCFAC"/>
<path d="M3.67325 12.3912C4.42088 12.4993 5.17272 12.5233 5.92375 12.4324C6.61805 12.3484 7.39704 12.2489 8.028 11.9377C8.26938 11.8186 8.09888 11.4012 7.84169 11.5005C7.80219 11.5157 7.76268 11.531 7.72317 11.5462C7.61752 11.587 7.53325 11.7442 7.64689 11.8321C7.67626 11.8548 7.70564 11.8775 7.73502 11.9003C7.77057 11.767 7.80614 11.6337 7.84169 11.5005C7.17585 11.6354 6.54216 11.8996 5.8677 12.0227C5.14742 12.1543 4.42005 12.2324 3.68924 12.2743C3.626 12.2779 3.60239 12.3809 3.67325 12.3912Z" fill="#EFCFAC"/>
<path d="M4.24603 11.5923C4.83188 11.614 5.41445 11.5497 5.991 11.4477C6.53856 11.3509 7.19658 11.2466 7.6681 10.9411C7.77792 10.8699 7.7039 10.724 7.58316 10.7417C7.0282 10.8234 6.47765 11.0882 5.92803 11.2218C5.37021 11.3574 4.80281 11.4315 4.23538 11.5144C4.1891 11.5212 4.20285 11.5907 4.24603 11.5923Z" fill="#EFCFAC"/>
<path d="M3.01284 10.2855C3.65581 10.6408 4.63721 10.4214 5.31533 10.2579C6.03419 10.0846 7.09661 9.78048 7.57674 9.1897C7.72346 9.00918 7.59374 8.70144 7.33298 8.77543C6.98412 8.87442 6.68796 9.10736 6.36236 9.26614C5.97808 9.45355 5.57968 9.61165 5.16853 9.7311C4.75531 9.85115 4.32866 9.93408 3.90181 9.9889C3.59554 10.0282 3.29732 10.037 3.01284 10.1657C2.96422 10.1876 2.97002 10.2618 3.01284 10.2855Z" fill="#EFCFAC"/>
<path d="M2.86282 7.89387C3.72121 7.98531 4.54924 7.97534 5.40701 7.86336C6.10675 7.77202 6.96347 7.68321 7.57288 7.31077C7.67342 7.24933 7.64115 7.06371 7.50839 7.07522C6.79275 7.13729 6.07851 7.44041 5.36651 7.56739C4.54653 7.71361 3.69555 7.78301 2.86282 7.8096C2.80693 7.81138 2.80927 7.88817 2.86282 7.89387Z" fill="#EFCFAC"/>
<path d="M1.88433 6.64127C2.76392 6.67167 3.62352 6.67604 4.49641 6.53433C4.927 6.46442 5.35464 6.37209 5.76822 6.23303C6.10503 6.11975 6.47223 6.03353 6.66347 5.72279C6.74675 5.58748 6.63485 5.45158 6.4969 5.43561C6.13378 5.39359 5.79398 5.63009 5.45088 5.74131C5.06321 5.86699 4.66896 5.9646 4.26888 6.04281C3.47031 6.19891 2.66027 6.31503 1.8577 6.44653C1.7424 6.46542 1.77597 6.63753 1.88433 6.64127Z" fill="#EFCFAC"/>
<path d="M3.12953 4.68906C3.7647 4.67707 4.39727 4.64306 5.02706 4.55757C5.39246 4.50796 5.89426 4.49393 5.94531 4.05986C5.95543 3.97379 5.8592 3.93131 5.78991 3.94275C5.38508 4.00958 4.97469 4.18995 4.56529 4.28065C4.08311 4.38748 3.59909 4.47658 3.10955 4.543C3.02489 4.55449 3.04639 4.69063 3.12953 4.68906Z" fill="#EFCFAC"/>
<path d="M1.00473 2.91606C2.18846 3.59261 4.02568 3.67403 5.30882 3.19296C5.69378 3.04863 5.61579 2.54826 5.21436 2.50258C4.95523 2.47307 4.63186 2.63557 4.3757 2.68684C3.99175 2.7637 3.60206 2.80097 3.21115 2.82052C2.49045 2.85655 1.76856 2.76824 1.04898 2.7544C0.961583 2.75271 0.930189 2.87345 1.00473 2.91606Z" fill="#EFCFAC"/>
<path d="M4.84295 0.363106C4.03693 1.24396 4.38193 2.62417 4.75313 3.75419C6.03006 7.64148 7.05977 11.6082 7.83416 15.6232C7.9447 16.1963 8.04935 16.7932 7.8966 17.3567C7.75574 17.8763 7.40994 18.3145 7.17663 18.8005C6.41297 20.3911 6.96412 22.3718 8.13159 23.701C8.92014 24.5988 9.95899 25.2684 10.6751 26.2238C11.3862 27.1727 11.7292 28.3355 12.0539 29.4722C14.0453 36.4436 16.3412 41.76 17.0173 48.9734C17.1155 50.0215 16.9012 51.9876 17.2029 53.1795C17.3313 53.6863 17.5172 54.2193 17.9426 54.529C18.789 55.1453 20.0817 54.4427 20.4312 53.4621C20.7808 52.4816 20.4883 51.4035 20.1948 50.4052C17.9091 42.6301 15.6233 34.855 13.3376 27.08C12.9964 25.9195 12.638 24.7256 11.8715 23.7847C11.2865 23.0667 10.4974 22.5397 9.85812 21.8684C9.21888 21.1971 8.71639 20.2796 8.91959 19.3795C9.10583 18.5545 9.83831 17.9384 10.0578 17.1214C10.2258 16.4963 10.0729 15.8359 9.91996 15.207C8.79031 10.561 7.66066 5.91498 6.531 1.26897C6.39338 0.702991 6.09912 0.00812245 5.51077 0.0151902C5.25188 0.0183013 5.01671 0.173191 4.84295 0.363106Z" fill="#EA8CD9"/>
<path d="M4.90256 0.347971C4.87634 0.376631 4.85146 0.405875 4.82764 0.435569C5.38592 0.463648 5.66941 1.1353 5.80345 1.68656C6.9331 6.33257 8.06276 10.9786 9.19241 15.6246C9.34531 16.2535 9.49821 16.9139 9.33027 17.539C9.11076 18.356 8.37829 18.9721 8.19204 19.7971C7.98884 20.6972 8.49132 21.6147 9.13057 22.286C9.76981 22.9573 10.5589 23.4842 11.1439 24.2023C11.9105 25.1432 12.2689 26.3371 12.61 27.4975C14.8958 35.2726 17.1815 43.0477 19.4673 50.8228C19.7608 51.8211 20.0532 52.8992 19.7037 53.8797C19.5942 54.1868 19.3922 54.4666 19.1403 54.6873C19.7301 54.5247 20.2808 54.0362 20.4908 53.447C20.8404 52.4664 20.5479 51.3884 20.2544 50.39C17.9687 42.615 15.6829 34.8399 13.3972 27.0648C13.0561 25.9044 12.6976 24.7105 11.9311 23.7696C11.3461 23.0515 10.557 22.5245 9.91774 21.8533C9.27849 21.182 8.77601 20.2644 8.97921 19.3644C9.16545 18.5393 9.89792 17.9232 10.1174 17.1063C10.2854 16.4812 10.1325 15.8207 9.97957 15.1919C8.84993 10.5459 7.72027 5.89985 6.59062 1.25383C6.453 0.687855 6.15873 -0.00701276 5.57038 5.3457e-05C5.31149 0.00316609 5.07633 0.158056 4.90256 0.347971Z" fill="#DD76D1"/>
<path d="M30.9971 18.3186C31.33 17.6703 31.6127 16.9904 31.8386 16.2949C31.2083 16.015 30.6028 15.6755 30.028 15.2795C30.6401 15.5442 31.2838 15.732 31.9485 15.8399C32.5539 14.7097 33.0547 13.5088 33.4335 12.2784C32.8033 12.3843 32.1864 12.2888 31.6575 12.0035C32.2901 12.0451 32.9457 11.9748 33.6008 11.7952C34.0972 10.613 34.5347 9.4045 34.909 8.18095C34.5816 8.21942 34.2612 8.18505 33.967 8.07994C34.2277 8.05391 34.4929 7.98604 34.7541 7.87851C34.8391 7.84353 34.9271 7.80175 34.9965 7.72199C35.0651 7.64319 35.1071 7.53708 35.146 7.43462C35.4995 6.5029 35.7858 5.54627 35.9996 4.58301C35.1514 5.14785 34.2322 5.40985 33.3524 5.45836C32.4727 5.50688 31.6275 5.34945 30.8119 5.12007C30.4983 5.74668 30.206 6.38614 29.9363 7.03554C29.4783 8.13802 29.0863 9.26687 28.6948 10.3942C28.3969 11.2522 28.099 12.1101 27.8011 12.9681C27.5212 13.7744 27.109 14.6655 26.9289 15.4902C26.8036 16.0643 27.1348 16.1788 27.4831 16.3017C28.0633 16.5065 28.6186 16.7519 29.1525 17.0662C29.7896 17.4413 30.394 17.8799 30.9971 18.3186Z" fill="#F4DCBD"/>
<path d="M31.0995 16.6449C30.4468 16.3065 29.7483 16.0741 29.0804 15.7677C28.736 15.6098 28.407 15.4405 28.1035 15.2134C27.9375 15.0891 27.7624 14.8409 27.538 14.8312C27.4299 14.8266 27.365 14.9193 27.3535 15.0137C27.303 15.4318 28.5483 15.8431 28.8576 15.9717C29.5707 16.2681 30.3302 16.5289 31.0922 16.662C31.102 16.6637 31.1096 16.6502 31.0995 16.6449Z" fill="#EFCFAC"/>
<path d="M31.5935 15.026C30.9308 14.9298 30.2768 14.7984 29.6295 14.6276C28.9747 14.4548 28.3776 14.1464 27.735 13.9528C27.7531 14.09 27.7712 14.2272 27.7893 14.3644C27.8217 14.3434 27.8542 14.3224 27.8866 14.3014C27.982 14.2397 28.0021 14.0803 27.8866 14.0234C27.8542 14.0074 27.8217 13.9915 27.7893 13.9755C27.5288 13.8473 27.3065 14.213 27.5596 14.3644C28.6848 15.0377 30.2919 15.2093 31.5785 15.1361C31.638 15.1327 31.6602 15.0357 31.5935 15.026Z" fill="#EFCFAC"/>
<path d="M31.1303 14.2659C30.6031 14.1406 30.0752 14.0248 29.5612 13.8513C29.0519 13.6795 28.5684 13.3929 28.0499 13.2656C27.9282 13.2357 27.8808 13.3854 27.9699 13.4533C28.3906 13.7739 28.9955 13.9282 29.5019 14.064C30.0326 14.2064 30.5709 14.3114 31.1203 14.3392C31.1628 14.3413 31.1716 14.2757 31.1303 14.2659Z" fill="#EFCFAC"/>
<path d="M32.3891 13.1008C32.091 12.9345 31.7504 12.9078 31.4221 12.829C31.0722 12.7451 30.725 12.6445 30.39 12.5138C30.0252 12.3714 29.6749 12.1917 29.3388 11.9919C29.0355 11.8117 28.7673 11.5696 28.4391 11.4405C28.2494 11.366 28.062 11.6225 28.1727 11.7833C28.5904 12.3897 29.4948 12.7466 30.1733 12.9833C30.8082 13.2047 31.7364 13.4953 32.3891 13.2137C32.4356 13.1936 32.4287 13.1229 32.3891 13.1008Z" fill="#EFCFAC"/>
<path d="M32.7269 10.9053C31.9725 10.8137 31.2077 10.6843 30.4728 10.4914C29.7976 10.3143 29.137 9.96488 28.4567 9.84049C28.3195 9.81543 28.253 9.97764 28.364 10.058C28.9418 10.4767 29.7987 10.639 30.4881 10.7807C31.2361 10.9343 31.9639 11.0007 32.7269 10.9846C32.7799 10.9835 32.7768 10.9113 32.7269 10.9053Z" fill="#EFCFAC"/>
<path d="M33.7742 9.70804C33.0272 9.51585 32.2728 9.33849 31.5308 9.12687C31.1429 9.01622 30.7609 8.88525 30.3916 8.72309C30.0949 8.59277 29.8306 8.3792 29.5 8.38236C29.358 8.38371 29.2795 8.53276 29.3432 8.65272C29.6367 9.20544 30.7441 9.43795 31.3149 9.58253C32.1177 9.78585 32.9254 9.84952 33.7491 9.89138C33.856 9.89681 33.8763 9.73432 33.7742 9.70804Z" fill="#EFCFAC"/>
<path d="M32.7688 7.81911C32.3023 7.71338 31.8436 7.58636 31.3879 7.44177C31.0223 7.32576 30.665 7.12731 30.3016 7.03575C30.2305 7.01783 30.1536 7.07032 30.1553 7.14601C30.1643 7.5315 30.6126 7.59566 30.928 7.66853C31.5281 7.80717 32.1379 7.89105 32.75 7.95662C32.8295 7.96514 32.8457 7.83656 32.7688 7.81911Z" fill="#EFCFAC"/>
<path d="M34.848 6.31293C34.1315 6.26303 33.4093 6.28825 32.697 6.18093C32.3748 6.13239 32.0562 6.06728 31.7431 5.97751C31.4914 5.90535 31.2043 5.72776 30.9407 5.73508C30.6302 5.74373 30.458 6.20151 30.7719 6.35168C31.961 6.92067 33.6916 7.01747 34.8897 6.46513C34.9701 6.42805 34.9219 6.31808 34.848 6.31293Z" fill="#EFCFAC"/>
<path d="M31.4954 3.76071C32.1777 4.6527 31.7388 5.91883 31.2963 6.94817C29.7739 10.4892 28.4767 14.1249 27.415 17.8268C27.2634 18.3551 27.1154 18.9063 27.2115 19.4473C27.3002 19.9461 27.5879 20.3854 27.766 20.8602C28.3493 22.4143 27.6669 24.2267 26.4609 25.3777C25.6464 26.1552 24.6162 26.6981 23.8649 27.5355C23.1186 28.3672 22.6998 29.4296 22.3003 30.469C19.8502 36.8438 17.2527 41.6416 16.0159 48.351C15.8362 49.3258 15.8728 51.1872 15.4902 52.2803C15.3276 52.745 15.1086 53.2296 14.6839 53.4853C13.8386 53.994 12.685 53.2294 12.4392 52.2812C12.1933 51.3331 12.5577 50.346 12.9164 49.4338C15.7097 42.3294 18.5031 35.225 21.2964 28.1206C21.7133 27.0603 22.1492 25.9699 22.9467 25.1503C23.5554 24.5248 24.3394 24.0951 24.995 23.5179C25.6506 22.9406 26.1985 22.1213 26.0831 21.2606C25.9774 20.4717 25.342 19.834 25.2044 19.0499C25.0992 18.4499 25.2978 17.8431 25.4937 17.2658C26.9414 13.0013 28.389 8.7367 29.8367 4.47213C30.0131 3.95262 30.3471 3.32506 30.8983 3.37981C31.1408 3.4039 31.3484 3.56839 31.4954 3.76071Z" fill="#57ACEA"/>
<path d="M31.4437 3.74167C31.4659 3.7707 31.4868 3.80015 31.5066 3.82995C30.9807 3.81061 30.6588 4.41728 30.487 4.92329C29.0393 9.18786 27.5917 13.4524 26.144 17.717C25.948 18.2942 25.7494 18.9011 25.8547 19.501C25.9923 20.2851 26.6277 20.9228 26.7334 21.7117C26.8487 22.5725 26.3008 23.3918 25.6452 23.969C24.9897 24.5463 24.2056 24.9759 23.597 25.6014C22.7995 26.4211 22.3636 27.5114 21.9467 28.5718C19.1533 35.6762 16.36 42.7806 13.5666 49.885C13.208 50.7972 12.8436 51.7843 13.0895 52.7324C13.1664 53.0294 13.3325 53.3083 13.5503 53.5358C13.0108 53.3351 12.5352 52.832 12.3874 52.2622C12.1416 51.3141 12.5059 50.327 12.8646 49.4148C15.6579 42.3104 18.4513 35.206 21.2447 28.1016C21.6616 27.0412 22.0975 25.9509 22.895 25.1312C23.5036 24.5057 24.2876 24.0761 24.9432 23.4988C25.5988 22.9216 26.1467 22.1023 26.0314 21.2415C25.9257 20.4526 25.2902 19.8149 25.1527 19.0308C25.0474 18.4309 25.246 17.824 25.4419 17.2468C26.8896 12.9822 28.3373 8.71767 29.7849 4.45309C29.9613 3.93359 30.2953 3.30602 30.8465 3.36077C31.089 3.38486 31.2966 3.54935 31.4437 3.74167Z" fill="#2B8ED8"/>
<g opacity="0.58">
<path d="M26.0665 28.5111C28.7309 31.6105 20.9754 37.2082 22.7407 40.883C24.0877 43.687 25.443 46.5292 26.0486 49.5755C26.1767 50.2199 26.2674 50.9048 26.0337 51.5196C25.6586 52.5059 24.5845 53.0176 23.6061 53.434C22.4596 53.9219 21.3132 54.4097 20.1667 54.8976C19.1188 55.3436 17.9342 55.7942 16.8724 55.3818C15.8773 54.9953 11.7779 54.3218 11.373 53.343C9.66566 49.2157 12.8926 44.3242 12.1039 39.9334C11.7484 37.9547 11.2922 35.9953 10.8361 34.0369C10.4223 32.2598 9.19713 28.3487 9.06787 28.3579C9.40629 28.7707 15.0869 28.788 15.668 28.8662C16.5681 28.9873 26.0665 28.5111 26.0665 28.5111Z" fill="#B6FAFF"/>
</g>
<g opacity="0.53">
<path d="M10.0318 49.5986C10.0479 50.008 10.2302 50.4013 10.4655 50.7597C10.6216 50.9975 10.8125 51.2325 11.0934 51.3659C11.3744 51.4994 11.7653 51.5018 11.9899 51.3067C12.1646 51.155 12.2013 50.9283 12.228 50.7182C12.3121 50.0567 12.598 48.5454 11.6492 48.1934C10.7445 47.8578 10.0078 48.9856 10.0318 49.5986Z" fill="white"/>
</g>
<path d="M11.4127 27.6006C11.2264 27.5976 11.0696 27.7742 11.0584 27.9582C11.0472 28.1422 11.1555 28.3184 11.3024 28.4317C11.4494 28.545 11.631 28.6047 11.8115 28.6504C12.5971 28.8492 13.4208 28.82 14.2312 28.7895C14.3797 28.7839 14.5404 28.7739 14.6539 28.679C14.8496 28.5155 14.7859 28.1799 14.5944 28.0117C14.2465 27.7063 13.6496 27.7645 13.2176 27.7161C12.6183 27.6489 12.0157 27.6104 11.4127 27.6006Z" fill="#D9FDFF"/>
<path d="M20.9974 27.7948L24.1611 27.6826L24.0796 28.6058L20.4893 28.7626L20.9974 27.7948Z" fill="#D9FDFF"/>
</svg>
