<svg width="72" height="30" viewBox="0 0 72 30" fill="none" xmlns="http://www.w3.org/2000/svg">
<path d="M0.927366 12.8742C5.01605 3.10003 21.659 -0.198721 31.5344 0.00916753C41.1394 0.211351 50.8585 1.09963 59.891 4.36266C66.3966 6.71266 74.7203 14.4657 71.1363 22.1565C69.5279 25.6079 66.0359 27.8932 62.3691 28.952C58.7021 30.011 54.8232 30.0086 51.0054 29.9981C37.9397 29.9624 24.8741 29.9267 11.8085 29.891C9.23201 29.8838 6.46705 29.8188 4.37802 28.3157C3.05868 27.3664 2.162 25.9335 1.53156 24.4382C-0.404083 19.8451 -0.389941 16.0234 0.927366 12.8742Z" fill="#FBA746"/>
<g style="mix-blend-mode:screen">
<path d="M57.1483 11.968C58.7002 9.39198 58.4447 6.1949 57.1114 3.45532C48.8793 0.942196 40.1633 0.190838 31.5348 0.00914893C21.6593 -0.198522 5.01646 3.10023 0.927778 12.8744C-0.190366 15.548 -0.355412 18.712 0.800202 22.4154C0.809825 22.4187 0.816094 22.4253 0.825426 22.4285C2.09316 22.8554 3.47972 22.6318 4.78886 22.356C11.8014 20.8796 18.5289 18.0283 25.6598 17.3069C33.2468 16.5396 40.9867 18.2216 48.4955 16.894C51.8699 16.2974 55.3839 14.8967 57.1483 11.968Z" fill="url(#paint0_linear_13345_317481)"/>
</g>
<path d="M56.3818 24.5541C45.0433 26.825 33.2364 22.4508 21.8106 24.2345C15.9554 25.1485 10.2766 27.6431 4.479 28.3649C6.55695 29.8056 9.27321 29.8828 11.8126 29.8897C24.8781 29.9254 37.9438 29.9612 51.0096 29.9969C54.8274 30.0074 58.7063 30.0095 62.3733 28.9507C66.04 27.8919 69.5321 25.6067 71.1404 22.1553C72.0692 20.1623 72.1864 18.1676 71.7548 16.2615C67.5832 20.4347 62.1798 23.3927 56.3818 24.5541Z" fill="#DE731F"/>
<defs>
<linearGradient id="paint0_linear_13345_317481" x1="29.8697" y1="-9.56613" x2="27.4451" y2="62.1819" gradientUnits="userSpaceOnUse">
<stop stop-color="#8DA87E"/>
<stop offset="0.710409" stop-color="#1C2119"/>
<stop offset="0.882682"/>
</linearGradient>
</defs>
</svg>
