<svg width="72" height="54" viewBox="0 0 72 54" fill="none" xmlns="http://www.w3.org/2000/svg">
<path d="M53.3937 7.15517C55.2542 8.30554 56.7492 9.91521 58.5112 11.1988C62.2923 13.9533 67.3242 15.088 71.9996 14.2405C67.7209 19.7837 65.3262 26.4532 63.7656 33.1721C62.2049 39.891 61.4183 46.7523 60.0015 53.5001C58.9325 50.5872 56.1746 48.4289 53.1137 47.4226C50.0528 46.4164 46.7149 46.4409 43.5085 46.8703C43.2415 46.9061 42.9467 46.939 42.7224 46.7963C42.5064 46.6589 42.4221 46.3998 42.3561 46.1605C41.1113 41.6486 41.0743 36.9284 40.8393 32.2686C40.5967 27.4593 40.1354 22.638 40.5398 17.8385C40.8749 13.8597 41.837 9.84248 43.9128 6.34381C45.0042 4.5042 45.3905 4.17715 47.403 4.81625C49.4676 5.4719 51.546 6.01272 53.3937 7.15517Z" fill="#FFDBD9"/>
<path d="M-0.000488281 5.15503V46.6465C-0.000488281 49.2172 10.8248 51.3011 24.1785 51.3011C37.5322 51.3011 48.3575 49.2172 48.3575 46.6465V5.15503H-0.000488281Z" fill="#FFDBD9"/>
<path d="M44.1931 31.8715C42.9651 38.733 39.9704 45.4228 35.3442 50.7569C42.9757 49.9742 48.1713 48.4273 48.1713 46.6465V5.15503H39.0445C44.4182 12.8746 45.8291 22.7294 44.1931 31.8715Z" fill="#FFCDCC"/>
<path d="M24.1785 9.80929C37.5322 9.80929 48.3575 7.72533 48.3575 5.15465C48.3575 2.58396 37.5322 0.5 24.1785 0.5C10.8248 0.5 -0.000488281 2.58396 -0.000488281 5.15465C-0.000488281 7.72533 10.8248 9.80929 24.1785 9.80929Z" fill="#FFEEEE"/>
<path d="M24.1759 6.75592C28.487 6.75592 31.9818 6.03908 31.9818 5.15482C31.9818 4.27055 28.487 3.55371 24.1759 3.55371C19.8649 3.55371 16.3701 4.27055 16.3701 5.15482C16.3701 6.03908 19.8649 6.75592 24.1759 6.75592Z" fill="#BA8379"/>
<g opacity="0.45">
<path d="M3.84141 11.4622C3.43864 12.4251 3.63031 13.507 3.77877 14.534C4.71364 21.001 3.67764 27.5605 3.53716 34.0872C3.5185 34.9531 3.5252 35.8591 3.94472 36.6273C4.36427 37.3956 5.33134 37.964 6.18786 37.6747C7.0514 37.3831 7.41144 36.4183 7.58276 35.5605C8.62509 30.3416 6.79382 24.7665 8.53875 19.7209C9.15955 17.9258 10.215 16.2729 10.6628 14.4317C10.9843 13.1097 10.8315 11.4539 9.59809 10.7758C8.13194 9.96984 4.60817 9.62897 3.84141 11.4622Z" fill="white"/>
</g>
<g opacity="0.45">
<path d="M3.34096 40.8159C3.15636 41.2932 3.16364 41.8176 3.21141 42.3243C3.32804 43.5615 3.7112 44.841 4.6486 45.7041C5.58605 46.5672 7.1862 46.855 8.20642 46.0819C8.994 45.485 9.25007 44.4487 9.27116 43.4899C9.29074 42.6004 9.13893 41.6764 8.62016 40.9367C7.58758 39.4641 4.14911 38.7262 3.34096 40.8159Z" fill="white"/>
</g>
<g opacity="0.45">
<path d="M62.2129 17.6702C60.7687 18.9935 59.8332 20.7359 59.0404 22.4894C56.1245 28.9396 54.7976 36.0366 55.1962 43.0498C55.6346 37.6387 57.4279 32.3316 60.3854 27.6937C62.2824 24.7187 64.6368 22.0337 66.6713 19.1421C67.4384 18.0517 68.4821 16.1796 66.6782 15.7605C65.2321 15.4245 63.17 16.7932 62.2129 17.6702Z" fill="white"/>
</g>
</svg>
