<svg width="59" height="56" viewBox="0 0 59 56" fill="none" xmlns="http://www.w3.org/2000/svg">
<g clip-path="url(#clip0_13345_316467)">
<path d="M39.8754 51.3025C39.8781 52.4003 38.5791 53.3074 36.975 53.3292L4.14234 53.3382C2.53761 53.3599 1.23451 52.4874 1.23222 51.3897C1.22989 50.2925 2.52883 49.3849 4.13357 49.3635L36.9662 49.3542C38.5704 49.3326 39.8735 50.2052 39.8754 51.3025Z" fill="#737373"/>
<path d="M20.3454 37.1931C18.167 38.5953 2.10823 48.9378 1.57835 49.4372C1.19621 49.8646 1.26057 50.5158 1.18683 51.2013C1.57047 50.5608 1.67091 49.9007 3.35421 49.4495L43.0299 49.7247L55.6612 37.2795L20.8868 37.0383C20.6926 37.0369 20.5087 37.0879 20.3454 37.1931Z" fill="#BAC8DC"/>
<path d="M8.35719 47.724L22.0006 38.0378L29.9898 38.0932L19.2285 47.7994L8.35719 47.724Z" fill="#383D45"/>
<path d="M27.3947 41.5884L28.7188 40.4264L30.2854 40.4373L29.1493 41.6005L27.3947 41.5884Z" fill="#383D45"/>
<path d="M25.627 43.395L26.9511 42.2331L28.5176 42.2439L27.3815 43.4072L25.627 43.395Z" fill="#383D45"/>
<path d="M23.8599 45.2527L25.184 44.0908L26.7505 44.1016L25.6144 45.2649L23.8599 45.2527Z" fill="#383D45"/>
<path d="M22.0915 47.2635L23.4156 46.1016L24.9821 46.1124L23.846 47.2757L22.0915 47.2635Z" fill="#383D45"/>
<path d="M25.1616 47.2848L26.4857 46.1228L28.0522 46.1337L26.9161 47.2969L25.1616 47.2848Z" fill="#383D45"/>
<path d="M26.7423 45.2727L28.0664 44.1107L29.633 44.1216L28.4968 45.2848L26.7423 45.2727Z" fill="#383D45"/>
<path d="M28.5094 43.415L29.8335 42.253L31.4001 42.2639L30.2639 43.4271L28.5094 43.415Z" fill="#383D45"/>
<path d="M30.2772 41.6083L31.6013 40.4464L33.1678 40.4572L32.0317 41.6205L30.2772 41.6083Z" fill="#383D45"/>
<path d="M32.0437 39.8342L33.3678 38.6722L34.9344 38.6831L33.7982 39.8463L32.0437 39.8342Z" fill="#383D45"/>
<path d="M30.4854 38.6523L29.1612 39.8142L30.9158 39.8264L32.0519 38.6631L30.4854 38.6523Z" fill="#383D45"/>
<path d="M29.3681 46.1428L28.044 47.3047L29.7985 47.3169L30.9347 46.1536L29.3681 46.1428Z" fill="#383D45"/>
<path d="M31.1369 44.132L29.8127 45.2939L31.5673 45.3061L32.7034 44.1428L31.1369 44.132Z" fill="#383D45"/>
<path d="M32.4659 42.2713L31.1418 43.4332L32.8963 43.4453L34.0324 42.2821L32.4659 42.2713Z" fill="#383D45"/>
<path d="M34.2332 40.4646L32.9091 41.6265L34.6636 41.6387L35.7997 40.4755L34.2332 40.4646Z" fill="#383D45"/>
<path d="M36.2503 38.6921L34.9261 39.854L36.6807 39.8662L37.8168 38.703L36.2503 38.6921Z" fill="#383D45"/>
<path d="M32.2506 46.1628L30.9264 47.3247L32.681 47.3368L33.8171 46.1736L32.2506 46.1628Z" fill="#383D45"/>
<path d="M34.0193 44.152L32.6952 45.3139L34.4497 45.326L35.5858 44.1628L34.0193 44.152Z" fill="#383D45"/>
<path d="M35.599 42.293L34.2749 43.4549L36.0294 43.467L37.1655 42.3038L35.599 42.293Z" fill="#383D45"/>
<path d="M37.1156 40.4846L35.7915 41.6465L37.546 41.6587L38.6822 40.4954L37.1156 40.4846Z" fill="#383D45"/>
<path d="M36.1976 46.1901L34.8735 47.352L36.628 47.3642L37.7641 46.2009L36.1976 46.1901Z" fill="#383D45"/>
<path d="M56.4248 35.999C56.4228 36.2747 56.3071 36.5373 56.105 36.7249L37.9726 53.5522C37.3301 54.1485 36.2861 53.6887 36.2925 52.8123L36.5708 14.7755C36.5756 14.119 36.9023 13.5066 37.4449 13.1368L55.1116 1.09932C55.7782 0.645119 56.6804 1.1262 56.6745 1.93271L56.4248 35.999Z" fill="#A9ABAE"/>
<path d="M57.4672 34.7558C57.4634 35.2919 57.2445 35.804 56.8596 36.1772L39.0264 53.4683C38.3897 54.0857 37.3239 53.63 37.3302 52.7431L37.5934 15.6214C37.5981 14.9649 37.9246 14.3525 38.4672 13.9829L56.1314 1.94954C56.7979 1.4955 57.7002 1.97678 57.6945 2.78328L57.4672 34.7558Z" fill="#737373"/>
</g>
<defs>
<clipPath id="clip0_13345_316467">
<rect width="59" height="56" fill="white" transform="translate(0 0.000488281)"/>
</clipPath>
</defs>
</svg>
