<svg width="50" height="56" viewBox="0 0 50 56" fill="none" xmlns="http://www.w3.org/2000/svg">
<path d="M22.8747 0.148926C21.7861 0.148926 20.8753 0.897321 20.5869 1.91184H21.1958C21.4601 1.22939 22.1109 0.743139 22.8747 0.743139C23.8712 0.743139 24.6821 1.56836 24.6821 2.5827V8.08286C24.6821 8.24701 24.8127 8.37998 24.9742 8.37998C25.1357 8.37998 25.2663 8.24701 25.2663 8.08286V2.5827C25.2663 1.24063 24.1934 0.148926 22.8747 0.148926Z" fill="#8E8E8E"/>
<g style="mix-blend-mode:multiply" opacity="0.5">
<path d="M24.6807 7.11401V8.0827C24.6807 8.24685 24.8113 8.37999 24.9728 8.37999C25.1342 8.37999 25.2647 8.24685 25.2647 8.0827V7.11401H24.6807Z" fill="#8E8E8E"/>
</g>
<g style="mix-blend-mode:multiply" opacity="0.5">
<path d="M22.8743 0.148682C22.8332 0.148682 22.7947 0.159007 22.7539 0.160997C24.0159 0.226402 25.0251 1.28259 25.0251 2.58281V8.0828C25.0251 8.2031 24.9543 8.30527 24.8533 8.35202C24.8903 8.36923 24.9306 8.38009 24.9738 8.38009C25.1353 8.38009 25.2658 8.24695 25.2658 8.0828V2.58281C25.2658 1.24056 24.1932 0.148682 22.8743 0.148682Z" fill="#8E8E8E"/>
</g>
<path d="M22.8745 0C21.7045 0 20.7268 0.814339 20.4346 1.91183H20.5867C20.8752 0.897312 21.7859 0.148916 22.8745 0.148916C24.1932 0.148916 25.2661 1.24062 25.2661 2.58269V8.08285C25.2661 8.247 25.1355 8.37997 24.974 8.37997C24.8126 8.37997 24.6819 8.247 24.6819 8.08285V2.58269C24.6819 1.56835 23.871 0.743129 22.8745 0.743129C22.1108 0.743129 21.4599 1.22938 21.1956 1.91183H21.3508C21.6066 1.31253 22.1926 0.891686 22.8745 0.891686C23.7907 0.891686 24.5359 1.65023 24.5359 2.58269V8.08285C24.5359 8.32852 24.7324 8.5287 24.974 8.5287C25.2156 8.5287 25.4121 8.32852 25.4121 8.08285V2.58269C25.4121 1.15854 24.2737 0 22.8745 0Z" fill="#5E5E5E"/>
<path d="M47.93 23.5305H2.13254C1.5764 23.5305 1.05111 23.2383 0.761817 22.7675L0.304655 22.0229C0.0701794 21.6412 0.00895293 21.1765 0.136621 20.7478C0.267278 20.3096 0.582157 19.9478 1.00091 19.7558L22.2013 10.0301C23.6983 9.25255 24.4447 7.82333 24.4522 7.8092C24.5529 7.61299 24.7528 7.48926 24.9704 7.48926C24.9709 7.48926 24.9713 7.48926 24.9718 7.48926C25.1901 7.48999 25.39 7.61336 25.4902 7.81064C25.4966 7.82333 26.2433 9.25235 27.7655 10.0426L48.9942 19.78C49.3978 19.9652 49.7082 20.3121 49.8458 20.7313C49.9819 21.1469 49.9422 21.5881 49.7337 21.9731L49.344 22.6925C49.0638 23.2095 48.5221 23.5305 47.93 23.5305ZM22.7067 12.2881L1.48116 20.8395C1.36816 20.8911 1.28787 20.9812 1.25473 21.0926C1.22447 21.1942 1.2387 21.3008 1.29553 21.3928L1.75231 22.1372C1.82972 22.2633 1.97537 22.3417 2.13254 22.3417H47.93C48.0966 22.3417 48.2463 22.2562 48.3211 22.1187L48.7102 21.3995C48.7736 21.2826 48.7601 21.1763 48.7375 21.1074C48.7024 21.0004 48.6232 20.914 48.5139 20.864L27.2601 12.3006C25.9591 11.7207 23.9546 11.7278 22.7067 12.2881Z" fill="#D39257"/>
<path d="M47.9317 23.6046H2.13422C1.55298 23.6046 1.004 23.299 0.701725 22.8066L0.244563 22.0622C-0.00110354 21.6622 -0.0653723 21.1752 0.0684894 20.7261C0.205393 20.2674 0.534724 19.8887 0.972491 19.6878L22.1729 9.96235C23.6314 9.20488 24.3592 7.8322 24.3894 7.77423C24.503 7.55267 24.7264 7.41479 24.9721 7.41479C25.2204 7.41535 25.4438 7.55412 25.5565 7.77658C25.5636 7.79017 26.3052 9.19981 27.8003 9.97629L49.0258 19.7123C49.4482 19.906 49.7728 20.2688 49.9168 20.7076C50.0594 21.1435 50.0177 21.6056 49.7993 22.0087L49.4098 22.7283C49.1166 23.2687 48.5503 23.6046 47.9317 23.6046ZM24.9731 7.56335C24.7811 7.56335 24.6073 7.67079 24.5187 7.84326C24.4873 7.90358 23.7382 9.31594 22.2361 10.0962L1.03247 19.8232C0.633164 20.0067 0.332845 20.3514 0.208219 20.769C0.0866347 21.1772 0.144873 21.6198 0.368266 21.9832L0.825428 22.7278C1.10119 23.1771 1.60285 23.4559 2.13422 23.4559H47.9317C48.4971 23.4559 49.0144 23.1495 49.282 22.6564L49.6714 21.9368C49.8701 21.5705 49.908 21.1504 49.7783 20.7545C49.6473 20.3549 49.351 20.0244 48.9658 19.8474L27.7372 10.1102C26.1917 9.30797 25.4344 7.85937 25.4271 7.84489C25.3391 7.67169 25.1654 7.56408 24.9731 7.56335ZM47.9317 22.4156H2.13422C1.95195 22.4156 1.78262 22.324 1.69222 22.1765L1.23522 21.4321C1.16742 21.3218 1.14998 21.1935 1.18643 21.071C1.22582 20.9386 1.32051 20.8321 1.45296 20.7717L22.6801 12.2193C23.9608 11.645 25.9857 11.6503 27.2911 12.2323L48.5423 20.7948C48.6733 20.8544 48.7668 20.9567 48.8085 21.0837C48.8355 21.1669 48.8522 21.2951 48.776 21.4354L48.3867 22.1544C48.2991 22.3156 48.1249 22.4156 47.9317 22.4156ZM24.9559 11.9392C24.1536 11.9392 23.3567 12.078 22.7377 12.3557C22.7369 12.3564 22.736 12.3566 22.7353 12.357L1.50973 20.9085C1.41949 20.95 1.35311 21.0234 1.32621 21.114C1.30236 21.1949 1.31372 21.2795 1.35897 21.3531L1.81592 22.0977C1.88002 22.2022 2.00193 22.2671 2.13422 22.2671H47.9317C48.0718 22.2671 48.197 22.1962 48.2589 22.0825L48.6482 21.3632C48.6986 21.2703 48.6877 21.1857 48.6699 21.1308C48.6413 21.0435 48.5759 20.9728 48.4857 20.9317L27.2349 12.3695C26.592 12.0829 25.7714 11.9392 24.9559 11.9392ZM22.7084 12.288H22.7102H22.7084Z" fill="#935624"/>
<g style="mix-blend-mode:screen" opacity="0.6">
<path d="M0.248533 21.1628C0.378483 20.7263 0.69195 20.3664 1.10869 20.1751L22.2139 10.4934C23.7041 9.71929 24.4471 8.29642 24.4546 8.28228C24.5548 8.08699 24.7539 7.9638 24.9705 7.9638C24.9711 7.9638 24.9712 7.9638 24.9719 7.9638C25.1891 7.96451 25.3881 8.08717 25.4878 8.28373C25.4944 8.29642 26.2377 9.71893 27.7529 10.5057L48.8861 20.1993C49.2879 20.3838 49.5971 20.729 49.734 21.1463C49.7641 21.238 49.7821 21.3311 49.7951 21.4245C49.825 21.1956 49.8083 20.9615 49.734 20.7345C49.5971 20.3173 49.2879 19.972 48.8861 19.7875L27.7529 10.0939C26.2377 9.30714 25.4944 7.88462 25.4878 7.87195C25.3881 7.67538 25.1891 7.55273 24.9719 7.552C24.9712 7.552 24.9711 7.552 24.9705 7.552C24.7539 7.552 24.5548 7.6752 24.4546 7.8705C24.4471 7.88462 23.7041 9.3075 22.2139 10.0816L1.10869 19.7633C0.69195 19.9546 0.378483 20.3145 0.248533 20.751C0.183177 20.9698 0.169107 21.1977 0.200834 21.4195C0.211319 21.3332 0.223216 21.247 0.248533 21.1628Z" fill="#D39257"/>
</g>
<g style="mix-blend-mode:multiply" opacity="0.7">
<path d="M49.2038 20.8615C49.168 20.737 49.0872 20.6363 48.9759 20.5784L27.3054 11.0581C25.9789 10.3838 23.9351 10.3922 22.6628 11.0436L1.02125 20.5501C0.906078 20.6101 0.82399 20.7148 0.790145 20.8443C0.759396 20.9624 0.773955 21.0863 0.831813 21.1934L1.57647 22.496C1.65443 22.6424 1.80133 22.7335 1.95959 22.7335H48.1054C48.2733 22.7335 48.4241 22.6344 48.4994 22.4744L49.1762 21.201C49.2408 21.0653 49.2268 20.9416 49.2038 20.8615ZM48.7112 21.3992L48.322 22.1184C48.2473 22.2559 48.0976 22.3415 47.9309 22.3415H2.13349C1.97632 22.3415 1.83067 22.263 1.75325 22.1369L1.29647 21.3925C1.23965 21.3005 1.22541 21.194 1.25567 21.0923C1.28881 20.9809 1.36911 20.8909 1.48211 20.8392L22.7077 12.2879C23.9556 11.7275 25.9601 11.7205 27.261 12.3004L48.5149 20.8637C48.6242 20.9137 48.7034 21.0001 48.7385 21.1072C48.7611 21.176 48.7746 21.2824 48.7112 21.3992Z" fill="#D39257"/>
</g>
<path d="M16.6315 55.8508C15.9737 55.9461 15.8184 55.0726 15.6978 55.1041C15.0954 55.2624 14.8789 54.2356 14.7659 54.2707C13.871 54.5501 13.7369 53.3069 13.6307 53.3084C12.4843 53.323 12.4234 52.1928 12.2986 52.1958C11.1744 52.2219 11.2678 51.238 11.1667 51.2427C10.0276 51.2971 10.1707 50.0891 10.0693 50.1476C9.47161 50.4903 8.8751 49.4809 8.8418 48.9912C11.3207 45.3228 16.7257 38.4985 16.7517 37.5564C16.7978 35.895 16.2091 34.9913 15.3876 33.6351C13.9053 31.1897 9.44081 25.9186 11.6176 23.0752C12.7683 21.5717 14.9523 21.7916 16.8943 23.8536C17.927 24.9506 20.1114 27.9172 20.9962 29.1158C22.7311 31.4649 24.0542 31.5265 25.8994 33.7864C27.4529 35.6882 27.8631 38.0073 25.7434 39.588C21.027 43.1061 18.6359 50.7626 16.6315 55.8508Z" fill="#0087CB"/>
<path d="M16.9934 23.7557C18.011 24.8364 20.1408 27.7227 21.0503 28.9553L21.1062 29.0307C22.0013 30.2429 22.7755 30.8302 23.5955 31.4523C24.3421 32.019 25.1145 32.6047 26.0053 33.6959C26.9862 34.8968 27.4512 36.1811 27.3146 37.3118C27.2018 38.2442 26.7005 39.0484 25.8246 39.7017C21.758 42.7349 19.4364 48.8632 17.5711 53.7871C17.2911 54.5264 17.022 55.2368 16.7593 55.9031C16.7409 55.95 16.6994 55.9832 16.6503 55.9904C16.4629 56.0174 16.2912 55.981 16.1393 55.8821C15.9216 55.7404 15.7934 55.5009 15.7087 55.3428C15.6936 55.3142 15.6747 55.279 15.6619 55.2551C15.5168 55.2768 15.3786 55.2459 15.2506 55.1627C15.0221 55.0138 14.8773 54.7254 14.7817 54.5348C14.7633 54.4982 14.7421 54.4556 14.7278 54.4268C14.4974 54.4812 14.2902 54.4498 14.1112 54.3331C13.8166 54.1415 13.6775 53.7663 13.5945 53.5422C13.5832 53.5112 13.5701 53.476 13.5589 53.4487C13.2905 53.4414 13.0552 53.373 12.8583 53.2447C12.4981 53.0103 12.3539 52.6411 12.2676 52.4204C12.2562 52.3912 12.2429 52.3573 12.2373 52.3372C11.9644 52.3347 11.7344 52.2737 11.5532 52.1555C11.2212 51.9394 11.1343 51.5937 11.088 51.4081C11.0859 51.4003 11.0841 51.3926 11.0823 51.3852C10.8456 51.3838 10.6421 51.3287 10.4771 51.2213C10.1144 50.9852 10.0276 50.5575 9.98737 50.3343C9.80293 50.3879 9.60925 50.3526 9.41982 50.2294C9.02888 49.9749 8.72802 49.3774 8.70243 49.0004C8.70047 48.9688 8.70884 48.9371 8.7266 48.9109C9.63327 47.5692 10.9435 45.7885 12.2106 44.0665C14.2665 41.2724 16.5968 38.1054 16.6121 37.5522C16.6552 35.9934 16.1391 35.143 15.3575 33.8557L15.2684 33.7089C15.0112 33.2847 14.6692 32.7826 14.2732 32.2016C12.4315 29.4996 9.64859 25.4163 11.5074 22.9881C12.47 21.7303 14.0859 21.6116 15.7245 22.6781C15.7247 22.6781 15.7249 22.6783 15.7249 22.6783C16.1602 22.9617 16.587 23.324 16.9934 23.7557ZM9.56916 49.9915C9.72318 50.0917 9.86416 50.1024 10.0001 50.0245C10.0448 49.9988 10.1125 50 10.1559 50.0281C10.2225 50.0714 10.2352 50.143 10.2562 50.2615C10.2925 50.4647 10.3532 50.8055 10.6264 50.9834C10.7628 51.0722 10.9422 51.1118 11.1596 51.1015C11.1883 51.1002 11.2258 51.1108 11.25 51.1263C11.3139 51.168 11.331 51.2358 11.3567 51.3383C11.3963 51.4966 11.4628 51.7617 11.7026 51.9178C11.8507 52.014 12.0499 52.0601 12.2943 52.0546C12.3219 52.0537 12.363 52.0659 12.3863 52.0809C12.4495 52.122 12.478 52.1952 12.5254 52.3162C12.6039 52.5173 12.723 52.8217 13.0076 53.007C13.1758 53.1164 13.3845 53.1701 13.6278 53.167C13.6549 53.1668 13.6914 53.1777 13.7141 53.1925C13.7763 53.2331 13.8041 53.3072 13.8541 53.4425C13.9294 53.6462 14.0435 53.9541 14.2607 54.0953C14.3899 54.1795 14.5416 54.1927 14.7244 54.1359C14.7633 54.1235 14.8264 54.1339 14.861 54.1561C14.9236 54.1969 14.9631 54.2757 15.0286 54.4065C15.1157 54.5797 15.2348 54.8172 15.4 54.9248C15.4833 54.979 15.5666 54.9924 15.6622 54.9674C15.6996 54.9576 15.7644 54.9694 15.797 54.9906C15.8571 55.0299 15.8951 55.1006 15.9524 55.2078C16.0638 55.4156 16.2561 55.7178 16.5338 55.7169C16.7859 55.0752 17.044 54.3938 17.3123 53.6857C19.1907 48.7272 21.5287 42.5561 25.6608 39.4738C26.4724 38.8685 26.9362 38.1295 27.0392 37.2773C27.1665 36.2246 26.7236 35.0168 25.7919 33.8762C24.922 32.8109 24.1635 32.2353 23.4297 31.6788C22.5936 31.0442 21.8035 30.4449 20.8844 29.2003L20.8287 29.1246C19.922 27.8963 17.7992 25.0195 16.7932 23.9508C16.4021 23.5356 15.9923 23.1876 15.5752 22.916C15.5752 22.916 15.5752 22.916 15.575 22.9158C14.0679 21.9348 12.593 22.029 11.7262 23.1617C9.99253 25.4259 12.7057 29.4066 14.501 32.041C14.8996 32.625 15.2433 33.1299 15.5047 33.5609L15.5935 33.7073C16.3724 34.9903 16.9349 35.917 16.8895 37.5601C16.8729 38.1598 15.1946 40.4822 12.4326 44.2355C11.1806 45.937 9.88643 47.6962 8.98406 49.0281C9.02622 49.3341 9.27742 49.8015 9.56916 49.9915Z" fill="#0071BB"/>
<path d="M24.1324 41.0458C22.2232 38.7959 22.5472 34.7088 24.4189 32.2803C24.8856 32.6729 25.3718 33.1381 25.902 33.7877C27.4555 35.6896 27.8657 38.0087 25.746 39.5894C25.1741 40.0162 24.6395 40.5092 24.1324 41.0458Z" fill="#A8CFE1"/>
<path d="M24.5059 32.1712C25.0631 32.64 25.5401 33.125 26.0073 33.6973C26.9882 34.8982 27.4531 36.1825 27.3166 37.3132C27.2037 38.2456 26.7025 39.0498 25.8268 39.7029C25.2911 40.1028 24.769 40.5738 24.2308 41.1434C24.2037 41.172 24.1662 41.1878 24.1272 41.1867C24.0882 41.1858 24.0512 41.1675 24.0261 41.1378C22.148 38.9246 22.2774 34.8283 24.3083 32.1929C24.3312 32.1628 24.3656 32.1436 24.4026 32.1395C24.4341 32.136 24.4657 32.1438 24.4922 32.161C24.4968 32.1641 24.5014 32.1676 24.5059 32.1712ZM25.6628 39.4752C26.4744 38.8699 26.9381 38.131 27.0412 37.2788C27.1685 36.226 26.7256 35.0182 25.7938 33.8776C25.3694 33.3576 24.9363 32.9112 24.4395 32.4826C22.6367 34.9348 22.5013 38.7556 24.1388 40.8347C24.6504 40.3035 25.1501 39.8578 25.6628 39.4752Z" fill="#0071BB"/>
<path d="M15.0126 50.3233C15.9804 51.0269 17.0205 51.5659 18.1012 52.0115C17.5754 53.3728 17.0931 54.681 16.6315 55.8521C15.9737 55.9474 15.8184 55.0738 15.6978 55.1053C15.0954 55.2636 14.8789 54.2368 14.7659 54.2719C13.871 54.5513 13.7369 53.3081 13.6307 53.3096C12.4843 53.3243 12.4234 52.194 12.2986 52.1971C11.1744 52.2231 11.2678 51.2392 11.1667 51.2439C10.0276 51.2983 10.1707 50.0903 10.0693 50.1488C9.47161 50.4916 8.8751 49.4821 8.8418 48.9924C9.46591 48.069 10.2754 46.9456 11.1377 45.7666C12.2544 47.4444 13.3736 49.1312 15.0126 50.3233Z" fill="#A8CFE1"/>
<path d="M11.2664 45.7098C12.3552 47.3455 13.481 49.0367 15.0926 50.2087C15.9937 50.8641 16.9683 51.3928 18.1526 51.8808C18.2219 51.9107 18.2574 51.9913 18.2294 52.0634C18.0044 52.6462 17.7873 53.2195 17.5761 53.7764C17.2943 54.5202 17.0237 55.2349 16.7593 55.9049C16.7409 55.9518 16.6992 55.9851 16.6503 55.9922C16.4629 56.0192 16.2912 55.9828 16.1393 55.8839C15.9216 55.7422 15.7934 55.5027 15.7087 55.3445C15.6936 55.3159 15.6747 55.2808 15.6619 55.2568C15.5168 55.2786 15.3786 55.2476 15.2506 55.1644C15.0221 55.0155 14.8773 54.7271 14.7817 54.5365C14.7633 54.4999 14.7421 54.4574 14.7278 54.4286C14.4974 54.4829 14.2902 54.4516 14.1112 54.3349C13.8166 54.1432 13.6775 53.768 13.5945 53.5439C13.5832 53.5129 13.5701 53.4778 13.5589 53.4504C13.2905 53.4432 13.0552 53.3747 12.8583 53.2464C12.4981 53.012 12.3539 52.6428 12.2676 52.4222C12.2562 52.393 12.2429 52.3591 12.2373 52.339C11.9644 52.3365 11.7344 52.2754 11.5532 52.1573C11.2212 51.9412 11.1343 51.5955 11.088 51.4098C11.0859 51.402 11.0841 51.3944 11.0823 51.387C10.8456 51.3855 10.6421 51.3305 10.4771 51.223C10.1144 50.987 10.0276 50.5592 9.98737 50.336C9.80293 50.3897 9.60925 50.3543 9.41982 50.2311C9.02888 49.9766 8.72802 49.3791 8.70243 49.0021C8.70047 48.9706 8.70884 48.9389 8.7266 48.9126C9.26439 48.1173 9.9733 47.1211 11.0257 45.6825C11.0525 45.6459 11.1024 45.6357 11.1473 45.6368C11.1703 45.6373 11.1943 45.6464 11.2159 45.6603C11.2361 45.6736 11.2541 45.6913 11.2664 45.7098ZM9.56916 49.9933C9.72318 50.0935 9.86416 50.1041 10.0001 50.0262C10.0448 50.0005 10.1125 50.0018 10.1559 50.0299C10.2225 50.0732 10.2352 50.1447 10.2562 50.2632C10.2925 50.4665 10.3532 50.8072 10.6264 50.9851C10.7628 51.0739 10.9422 51.1136 11.1596 51.1033C11.1883 51.102 11.2258 51.1123 11.25 51.1281C11.3139 51.1698 11.331 51.2375 11.3567 51.34C11.3963 51.4984 11.4628 51.7634 11.7026 51.9196C11.8507 52.0158 12.0499 52.0618 12.2943 52.0564C12.3219 52.0555 12.363 52.0676 12.3863 52.0827C12.4495 52.1238 12.478 52.197 12.5254 52.318C12.6039 52.5191 12.723 52.8234 13.0076 53.0088C13.1758 53.1182 13.3845 53.1718 13.6278 53.1687C13.6549 53.1685 13.6914 53.1794 13.7141 53.1943C13.7763 53.2349 13.8041 53.3089 13.8541 53.4443C13.9294 53.6479 14.0435 53.9559 14.2607 54.097C14.3899 54.1813 14.5416 54.1945 14.7244 54.1376C14.7633 54.1253 14.8264 54.1356 14.861 54.1579C14.9236 54.1987 14.9631 54.2775 15.0286 54.4083C15.1157 54.5815 15.2348 54.819 15.4 54.9266C15.4833 54.9808 15.5666 54.9942 15.6622 54.9692C15.6996 54.9594 15.7644 54.9711 15.797 54.9923C15.8571 55.0317 15.8951 55.1023 15.9524 55.2096C16.0638 55.4174 16.2561 55.7195 16.5338 55.7186C16.7873 55.0733 17.0472 54.3874 17.3173 53.6747C17.5127 53.1586 17.7137 52.6285 17.9213 52.0897C16.7731 51.6069 15.819 51.0837 14.9311 50.4382C13.3264 49.2715 12.2049 47.6218 11.1315 46.0107C10.1636 47.3358 9.49582 48.2744 8.98406 49.0298C9.02622 49.3358 9.27742 49.8032 9.56916 49.9933Z" fill="#0071BB"/>
<path d="M14.7955 24.5688C13.9084 25.46 12.7513 26.5611 11.479 27.0669C10.9212 25.5794 10.7918 24.1538 11.6162 23.0769C12.6145 21.7724 14.3907 21.7678 16.1116 23.1353C15.6763 23.6646 15.2122 24.1505 14.7955 24.5688Z" fill="#A8CFE1"/>
<path d="M16.1962 23.0238C16.2259 23.0473 16.2449 23.0821 16.2488 23.1202C16.253 23.1582 16.2416 23.1962 16.2173 23.2256C15.7399 23.8064 15.2324 24.3274 14.8925 24.6691C13.8725 25.6936 12.759 26.709 11.5289 27.1982C11.4945 27.2118 11.4561 27.2111 11.4223 27.1956C11.3879 27.1802 11.3619 27.1522 11.3489 27.117C10.6845 25.3456 10.736 23.9957 11.5063 22.9899C12.4681 21.733 14.0836 21.6149 15.7226 22.6815C15.8811 22.7848 16.0406 22.9 16.1962 23.0238ZM14.6974 24.468C15.0113 24.153 15.4691 23.6834 15.9108 23.1573C15.7989 23.0725 15.6856 22.9928 15.5731 22.9194C14.0654 21.938 12.5911 22.0317 11.725 23.1635C11.0388 24.0597 10.9838 25.2767 11.5584 26.8811C12.6914 26.3915 13.7356 25.4345 14.6974 24.468Z" fill="#0071BB"/>
<path d="M12.4874 45.9439C12.7055 45.7279 12.7099 45.373 12.4974 45.1513C12.2847 44.9295 11.9359 44.925 11.718 45.1411C11.5001 45.3572 11.4958 45.7123 11.7084 45.9343C11.921 46.156 12.2695 46.1602 12.4874 45.9439Z" fill="#A8CFE1"/>
<path d="M14.712 42.8714C14.9077 42.6773 14.9114 42.3587 14.7208 42.1597C14.5301 41.9608 14.217 41.9566 14.0215 42.1507C13.8259 42.3449 13.8218 42.6637 14.0124 42.8627C14.2033 43.0616 14.5164 43.0654 14.712 42.8714Z" fill="#A8CFE1"/>
<path d="M18.9151 46.5335C19.1106 46.3393 19.1145 46.0206 18.924 45.8217C18.733 45.6227 18.42 45.6189 18.2244 45.813C18.0289 46.0072 18.025 46.3255 18.2156 46.5246C18.4063 46.7233 18.7193 46.7275 18.9151 46.5335Z" fill="#A8CFE1"/>
<path d="M17.5038 43.0973C17.6992 42.9035 17.7032 42.5846 17.5124 42.3859C17.3219 42.1868 17.0088 42.1828 16.8133 42.3768C16.6178 42.5709 16.6139 42.8897 16.8044 43.0886C16.995 43.2875 17.3084 43.2915 17.5038 43.0973Z" fill="#A8CFE1"/>
<path d="M21.0225 42.7415C21.218 42.5473 21.2219 42.2288 21.0313 42.0295C20.8406 41.8308 20.5275 41.827 20.332 42.021C20.1362 42.215 20.1324 42.5335 20.3233 42.7324C20.5139 42.9312 20.8267 42.9357 21.0225 42.7415Z" fill="#A8CFE1"/>
<path d="M16.6788 39.1746C16.8744 38.9804 16.878 38.6619 16.6873 38.4628C16.4964 38.2639 16.1837 38.2601 15.9882 38.4541C15.7927 38.6481 15.7885 38.9666 15.9793 39.1657C16.17 39.3644 16.4833 39.3686 16.6788 39.1746Z" fill="#A8CFE1"/>
<path d="M19.5693 38.9146C19.7644 38.7206 19.7687 38.402 19.578 38.203C19.387 38.0041 19.0742 38.0003 18.8789 38.1942C18.6831 38.3884 18.6793 38.7068 18.87 38.906C19.0605 39.1047 19.3736 39.1087 19.5693 38.9146Z" fill="#A8CFE1"/>
<path d="M22.4747 39.895C22.6701 39.701 22.6741 39.3821 22.4832 39.183C22.2927 38.9841 21.9798 38.9803 21.784 39.1743C21.5885 39.3685 21.5846 39.687 21.7752 39.8859C21.9659 40.085 22.2788 40.089 22.4747 39.895Z" fill="#A8CFE1"/>
<path d="M21.6721 35.3839C21.8677 35.1898 21.8713 34.8715 21.6804 34.6724C21.4897 34.4735 21.1768 34.4693 20.9815 34.6634C20.7857 34.8576 20.7818 35.1762 20.9724 35.3752C21.1631 35.5741 21.4766 35.5781 21.6721 35.3839Z" fill="#A8CFE1"/>
<path d="M20.2071 32.9359C20.4025 32.7419 20.4065 32.423 20.2158 32.2241C20.025 32.025 19.712 32.0214 19.5164 32.2152C19.3211 32.4094 19.3168 32.7279 19.5077 32.9272C19.6983 33.1259 20.0116 33.1299 20.2071 32.9359Z" fill="#A8CFE1"/>
<path d="M19.9053 29.5213C20.1009 29.327 20.1046 29.0085 19.914 28.8095C19.7235 28.6106 19.4103 28.6066 19.2145 28.8007C19.0192 28.9949 19.0152 29.3134 19.206 29.5123C19.3966 29.7114 19.7098 29.7154 19.9053 29.5213Z" fill="#A8CFE1"/>
<path d="M17.9435 35.886C18.1391 35.6919 18.1427 35.3735 17.9522 35.1744C17.7612 34.9754 17.4482 34.9713 17.253 35.1655C17.0573 35.3595 17.0532 35.6782 17.2441 35.8771C17.4347 36.076 17.7478 36.0802 17.9435 35.886Z" fill="#A8CFE1"/>
<path d="M16.4502 32.2479C16.6457 32.0539 16.6498 31.7351 16.459 31.5362C16.2687 31.3371 15.9553 31.3332 15.7597 31.5275C15.5641 31.7217 15.5602 32.0402 15.7508 32.2389C15.9415 32.4382 16.2546 32.442 16.4502 32.2479Z" fill="#A8CFE1"/>
<path d="M16.7238 28.8349C16.9192 28.6408 16.9232 28.322 16.7324 28.1231C16.5417 27.924 16.2287 27.9202 16.0331 28.1144C15.8373 28.3086 15.8337 28.6267 16.0245 28.826C16.215 29.0247 16.5281 29.0291 16.7238 28.8349Z" fill="#A8CFE1"/>
<path d="M13.045 27.9761C13.2404 27.7825 13.2444 27.4634 13.0535 27.2647C12.8628 27.0654 12.5499 27.062 12.3546 27.2558C12.159 27.4497 12.1547 27.7683 12.3455 27.9674C12.5361 28.1663 12.8495 28.1705 13.045 27.9761Z" fill="#A8CFE1"/>
<path d="M16.2118 25.1193C16.4076 24.9251 16.4113 24.6068 16.2205 24.4078C16.0299 24.2088 15.7173 24.2048 15.5214 24.3988C15.3258 24.593 15.3219 24.9117 15.5125 25.1108C15.7032 25.3095 16.0163 25.3135 16.2118 25.1193Z" fill="#A8CFE1"/>
<path d="M17.3007 50.2444C17.4962 50.0506 17.5 49.7315 17.3093 49.5326C17.1186 49.3337 16.8057 49.3299 16.6102 49.5239C16.4148 49.7179 16.4106 50.0364 16.6013 50.2353C16.792 50.4344 17.1053 50.4384 17.3007 50.2444Z" fill="#A8CFE1"/>
<path d="M15.093 47.221C15.2883 47.0269 15.2922 46.7083 15.1016 46.5092C14.9109 46.3102 14.5978 46.3064 14.4023 46.5005C14.2066 46.6947 14.2027 47.013 14.3934 47.2121C14.5842 47.4112 14.8972 47.4152 15.093 47.221Z" fill="#A8CFE1"/>
<g opacity="0.5">
<g style="mix-blend-mode:multiply">
<path d="M12.126 27.262C13.7933 29.9874 16.5787 32.1937 17.5388 35.3237C18.5131 38.5004 15.4831 41.373 13.775 43.6681C12.2208 45.7566 10.8674 47.821 9.93258 50.1609C9.90449 50.0162 9.89575 49.9165 9.86494 49.9343C9.26718 50.277 8.67062 49.2676 8.6377 48.7779C11.1163 45.1095 16.5213 38.2854 16.5472 37.3433C16.5935 35.6818 16.0048 34.778 15.1829 33.4218C13.9113 31.3234 10.4469 27.1451 10.864 24.2048C11.0683 25.2855 11.5665 26.3471 12.126 27.262Z" fill="#0087CB"/>
</g>
<g style="mix-blend-mode:multiply">
<path d="M16.4285 55.6379C15.7705 55.7334 15.6149 54.8594 15.4946 54.8913C15.4705 54.8977 15.4481 54.8989 15.4252 54.9016C16.4872 50.6055 18.1832 46.2947 20.6477 42.6561C22.5157 39.8988 26.1319 36.8259 23.7308 33.2988C22.814 31.952 21.3854 31.0723 20.2258 29.9692C18.5104 28.3361 17.3812 26.2234 16.204 24.1851C15.5994 23.1385 14.7245 22.3001 13.7578 21.9146C14.6897 22.0397 15.7205 22.6101 16.691 23.6405C17.7239 24.7376 19.9084 27.704 20.7929 28.9026C22.5279 31.252 23.8513 31.3136 25.6963 33.5731C27.2499 35.4751 27.6597 37.7942 25.5404 39.3749C20.8241 42.8931 18.4326 50.5495 16.4285 55.6379Z" fill="#0087CB"/>
</g>
</g>
<path d="M29.4888 55.4521C28.825 55.4219 28.8312 54.5342 28.7072 54.5425C28.0862 54.5844 28.0604 53.5347 27.9427 53.5479C27.0126 53.6539 27.107 52.4069 27.0023 52.3885C25.8731 52.1868 26.0187 51.0647 25.8955 51.044C24.7861 50.8578 25.0569 49.9089 24.9565 49.8944C23.8271 49.7331 24.1876 48.573 24.0772 48.6112C23.4277 48.8356 23.025 47.7313 23.0814 47.2436C26.1846 44.1054 32.7375 38.4174 32.9344 37.4965C33.2819 35.8724 32.8678 34.8734 32.307 33.386C31.2953 30.7035 27.8666 24.6827 30.5229 22.2984C31.9272 21.0376 34.0335 21.665 35.5668 24.0573C36.3823 25.33 37.9893 28.6567 38.6408 30.0012C39.9184 32.6366 41.2075 32.9464 42.6097 35.5147C43.7905 37.6762 43.7718 40.0326 41.4013 41.1868C36.1264 43.7556 32.3841 50.8294 29.4888 55.4521Z" fill="#0087CB"/>
<path d="M35.6821 23.9803C36.4853 25.2342 38.0535 28.4716 38.723 29.8543L38.7643 29.939C39.4235 31.2989 40.0774 32.0221 40.77 32.7877C41.4008 33.4852 42.0532 34.2064 42.7302 35.4463C43.4757 36.8114 43.6991 38.1609 43.3592 39.2462C43.0786 40.1415 42.4398 40.8374 41.4604 41.3144C36.9122 43.5291 33.5161 49.1143 30.7875 53.6017C30.3778 54.2755 29.9841 54.923 29.6049 55.5283C29.5782 55.5708 29.5314 55.5956 29.4819 55.5935C29.2928 55.5848 29.1306 55.5165 28.9993 55.3909C28.8113 55.2105 28.7288 54.9511 28.6744 54.7797C28.6646 54.7487 28.6525 54.7105 28.6441 54.6846C28.4976 54.6788 28.3677 54.6224 28.2569 54.5163C28.0593 54.3269 27.9696 54.0162 27.9103 53.811C27.8987 53.7715 27.8856 53.7257 27.8768 53.6947C27.6406 53.7048 27.4429 53.6349 27.2881 53.4865C27.0334 53.2427 26.9648 52.8477 26.9243 52.6119C26.9186 52.5794 26.9121 52.5423 26.9063 52.5135C26.6439 52.4557 26.4249 52.3439 26.2547 52.1809C25.9434 51.8827 25.8688 51.4926 25.8243 51.2596C25.8183 51.2287 25.8113 51.193 25.8095 51.1721C25.5418 51.1182 25.3269 51.0149 25.1703 50.8647C24.8833 50.5897 24.861 50.2339 24.8491 50.0426C24.8484 50.0344 24.848 50.0266 24.8475 50.019C24.6152 49.973 24.4254 49.8806 24.2827 49.7438C23.9694 49.4436 23.9617 49.0068 23.9627 48.78C23.7717 48.798 23.588 48.7268 23.4241 48.5699C23.0862 48.2461 22.8994 47.6025 22.9427 47.2271C22.9464 47.1958 22.9605 47.166 22.9828 47.1438C24.1176 45.9961 25.7292 44.4928 27.2878 43.0393C29.8162 40.6807 32.6823 38.0076 32.798 37.4666C33.1238 35.943 32.7713 35.01 32.2374 33.5977L32.1765 33.4368C32.001 32.9712 31.7561 32.4136 31.4727 31.7679C30.1543 28.7656 28.162 24.2287 30.4304 22.1926C31.6051 21.1379 33.2147 21.3257 34.631 22.6823C34.6313 22.6825 34.6313 22.6827 34.6313 22.6827C35.0076 23.0432 35.3611 23.4796 35.6821 23.9803ZM23.6142 48.3644C23.7473 48.4918 23.8839 48.5288 24.0317 48.4778C24.0802 48.461 24.1466 48.4749 24.184 48.5108C24.2417 48.5661 24.2412 48.6385 24.2403 48.759C24.239 48.9657 24.2367 49.3119 24.4728 49.5382C24.5906 49.6511 24.7598 49.7239 24.9752 49.7547C25.0036 49.7589 25.0387 49.7763 25.0595 49.7962C25.1149 49.8491 25.1194 49.919 25.1258 50.0246C25.1361 50.1877 25.153 50.4605 25.3602 50.6593C25.4882 50.7817 25.6758 50.8643 25.917 50.9051C25.9443 50.9095 25.9826 50.929 26.0027 50.9484C26.0571 51.0008 26.0719 51.0779 26.0965 51.2057C26.1371 51.4182 26.1987 51.7395 26.4447 51.9754C26.5902 52.1146 26.7854 52.2068 27.0252 52.2495C27.0517 52.2544 27.0856 52.2718 27.1053 52.2908C27.1591 52.3423 27.1728 52.4205 27.1974 52.5629C27.2344 52.7773 27.2906 53.1014 27.4781 53.2811C27.5899 53.3882 27.7366 53.4295 27.9265 53.4081C27.9669 53.4032 28.0271 53.4253 28.057 53.4539C28.1111 53.5057 28.1357 53.5907 28.1763 53.7315C28.2302 53.9181 28.3041 54.1739 28.447 54.3106C28.519 54.3797 28.5983 54.4085 28.6968 54.402C28.7354 54.3994 28.797 54.4231 28.8252 54.4501C28.8772 54.5001 28.9015 54.5768 28.9384 54.6929C29.0099 54.9183 29.144 55.2513 29.4171 55.3027C29.7815 54.7197 30.1591 54.0985 30.5516 53.4532C33.2993 48.9342 36.7192 43.3103 41.3408 41.0597C42.2485 40.6176 42.8384 39.9787 43.0948 39.1607C43.4113 38.1502 43.1957 36.8797 42.4876 35.5834C41.8268 34.3727 41.1859 33.664 40.566 32.979C39.8596 32.1978 39.1923 31.4601 38.5154 30.0639L38.4745 29.9791C37.8069 28.601 36.2439 25.374 35.4497 24.1345C35.1409 23.6528 34.8016 23.2336 34.4411 22.8881C34.4411 22.8881 34.4409 22.8881 34.4408 22.8879C33.1382 21.6399 31.6717 21.4547 30.6139 22.4046C28.4983 24.303 30.4405 28.7261 31.7258 31.6529C32.0112 32.3022 32.2572 32.8631 32.4356 33.3359L32.4963 33.4964C33.0282 34.9039 33.4127 35.9206 33.069 37.5268C32.9436 38.1129 30.872 40.079 27.4751 43.2471C25.9352 44.6835 24.3433 46.1684 23.2145 47.3073C23.2001 47.6159 23.3619 48.1226 23.6142 48.3644Z" fill="#0071BB"/>
<path d="M39.5515 42.3141C38.0844 39.7434 39.1463 35.788 41.4273 33.7539C41.8145 34.2278 42.2077 34.7766 42.6106 35.5148C43.7914 37.6763 43.7727 40.0327 41.4022 41.1869C40.7624 41.4987 40.1475 41.8822 39.5515 42.3141Z" fill="#A8CFE1"/>
<path d="M41.5337 33.6637C41.996 34.2297 42.3766 34.796 42.7316 35.4462C43.4771 36.8113 43.7005 38.1608 43.3605 39.2462C43.0799 40.1415 42.4412 40.8373 41.4617 41.3142C40.8627 41.6062 40.2639 41.9709 39.6316 42.4291C39.5997 42.4523 39.5598 42.4606 39.5219 42.4521C39.4836 42.4439 39.4505 42.4189 39.4313 42.385C37.9882 39.8563 38.8603 35.8551 41.3355 33.6478C41.3637 33.6228 41.4007 33.6103 41.4379 33.6132C41.4694 33.6157 41.4992 33.6293 41.5221 33.6513C41.526 33.6551 41.5299 33.6594 41.5337 33.6637ZM41.3421 41.0596C42.2498 40.6176 42.8398 39.9786 43.0962 39.1607C43.4127 38.1501 43.1971 36.8796 42.4889 35.5834C42.1665 34.9924 41.8221 34.4723 41.4117 33.9574C39.1941 36.0276 38.3662 39.7567 39.5972 42.1084C40.1966 41.6827 40.7687 41.339 41.3421 41.0596Z" fill="#0071BB"/>
<path d="M28.9035 49.7138C29.7265 50.5876 30.6508 51.3131 31.6316 51.9547C30.8674 53.1933 30.1555 54.3882 29.4888 55.452C28.825 55.4218 28.8312 54.5341 28.7072 54.5424C28.0862 54.5843 28.0604 53.5346 27.9427 53.5478C27.0126 53.6538 27.107 52.4068 27.0023 52.3884C25.8731 52.1867 26.0187 51.0646 25.8955 51.0439C24.7861 50.8577 25.0569 49.9087 24.9565 49.8943C23.8271 49.733 24.1876 48.5728 24.0772 48.6111C23.4277 48.8355 23.025 47.7311 23.0814 47.2434C23.8627 46.4536 24.8625 45.5021 25.9244 44.5059C26.7167 46.3652 27.5096 48.2337 28.9035 49.7138Z" fill="#A8CFE1"/>
<path d="M26.0612 44.4747C26.8335 46.2872 27.6323 48.1614 29.0028 49.6165C29.7692 50.4305 30.631 51.1334 31.7057 51.8363C31.7687 51.8785 31.7886 51.9646 31.7484 52.03C31.421 52.5604 31.1034 53.0829 30.7946 53.5905C30.3824 54.2683 29.9864 54.9197 29.6049 55.5283C29.5782 55.5708 29.5312 55.5957 29.4819 55.5935C29.2928 55.5848 29.1306 55.5165 28.9993 55.3909C28.8113 55.2105 28.7288 54.9511 28.6744 54.7797C28.6646 54.7487 28.6525 54.7105 28.6441 54.6846C28.4976 54.6788 28.3677 54.6224 28.2569 54.5163C28.0593 54.327 27.9696 54.0163 27.9103 53.811C27.8987 53.7715 27.8856 53.7257 27.8768 53.6947C27.6406 53.7048 27.4429 53.6349 27.2881 53.4865C27.0334 53.2427 26.9648 52.8477 26.9243 52.6119C26.9186 52.5794 26.9121 52.5423 26.9063 52.5135C26.6439 52.4557 26.4249 52.3439 26.2547 52.1809C25.9434 51.8827 25.8688 51.4926 25.8243 51.2597C25.8183 51.2287 25.8113 51.193 25.8095 51.1721C25.5418 51.1182 25.3269 51.0149 25.1703 50.8647C24.8833 50.5897 24.861 50.2339 24.8491 50.0426C24.8484 50.0344 24.848 50.0267 24.8475 50.019C24.6152 49.973 24.4254 49.8806 24.2827 49.7438C23.9694 49.4437 23.9617 49.0069 23.9627 48.78C23.7717 48.798 23.588 48.7268 23.4241 48.5699C23.0862 48.2462 22.8994 47.6025 22.9427 47.2271C22.9464 47.1958 22.9605 47.166 22.9828 47.1438C23.6558 46.4633 24.5337 45.618 25.8296 44.4024C25.8624 44.3714 25.9135 44.371 25.9575 44.3803C25.9799 44.3854 26.002 44.3987 26.0205 44.4165C26.0381 44.4334 26.0525 44.4542 26.0612 44.4747ZM23.6142 48.3645C23.7473 48.4918 23.8839 48.5288 24.0317 48.4779C24.0802 48.461 24.1466 48.475 24.184 48.5108C24.2417 48.5661 24.2412 48.6386 24.2403 48.759C24.239 48.9657 24.2367 49.312 24.4728 49.5382C24.5906 49.6511 24.7598 49.7239 24.9752 49.7547C25.0036 49.7589 25.0387 49.7763 25.0595 49.7962C25.1149 49.8491 25.1194 49.919 25.1258 50.0246C25.1361 50.1877 25.153 50.4605 25.3602 50.6593C25.4882 50.7817 25.6758 50.8643 25.917 50.9051C25.9443 50.9095 25.9826 50.929 26.0027 50.9484C26.0571 51.0008 26.0719 51.078 26.0965 51.2057C26.1371 51.4182 26.1987 51.7396 26.4447 51.9754C26.5902 52.1146 26.7854 52.2068 27.0252 52.2495C27.0517 52.2544 27.0856 52.2718 27.1053 52.2908C27.1591 52.3423 27.1728 52.4206 27.1974 52.563C27.2344 52.7773 27.2906 53.1014 27.4781 53.2811C27.5899 53.3882 27.7366 53.4295 27.9265 53.4081C27.9669 53.4032 28.0271 53.4253 28.057 53.4539C28.1111 53.5057 28.1357 53.5907 28.1763 53.7315C28.2302 53.9181 28.3041 54.1739 28.447 54.3107C28.519 54.3797 28.5984 54.4085 28.6968 54.402C28.7354 54.3994 28.797 54.4232 28.8252 54.4502C28.8772 54.5002 28.9015 54.5768 28.9384 54.6929C29.0099 54.9183 29.144 55.2513 29.4171 55.3027C29.7836 54.7163 30.1638 54.0911 30.5587 53.4418C30.8448 52.9713 31.1387 52.4883 31.4406 51.9979C30.3999 51.3071 29.5577 50.6133 28.8026 49.8118C27.4379 48.3628 26.6357 46.5305 25.874 44.7448C24.6816 45.8647 23.8549 46.6613 23.2145 47.3074C23.2001 47.6159 23.3619 48.1226 23.6142 48.3645Z" fill="#0071BB"/>
<path d="M33.3756 24.3633C32.3417 25.0721 31.0042 25.9362 29.662 26.1937C29.3845 24.6266 29.5164 23.2012 30.5225 22.2984C31.7409 21.2044 33.4872 21.5344 34.9296 23.2024C34.4056 23.6409 33.8611 24.0309 33.3756 24.3633Z" fill="#A8CFE1"/>
<path d="M35.0322 23.1094C35.0571 23.138 35.0694 23.1759 35.0664 23.2139C35.0633 23.2521 35.0452 23.2875 35.0164 23.3116C34.4414 23.7925 33.8478 24.2089 33.4517 24.4806C32.2629 25.2951 30.984 26.0836 29.6861 26.3325C29.65 26.3394 29.6122 26.3314 29.582 26.3098C29.5508 26.2883 29.5305 26.2557 29.5241 26.2187C29.1934 24.3529 29.4896 23.036 30.4294 22.1925C31.6032 21.1385 33.2123 21.3269 34.629 22.6838C34.7659 22.8152 34.9017 22.9583 35.0322 23.1094ZM33.2965 24.2464C33.6624 23.9958 34.1976 23.6206 34.7274 23.1867C34.6329 23.0824 34.536 22.9827 34.4389 22.8894C33.1358 21.641 31.6698 21.4553 30.6129 22.4045C29.7753 23.1559 29.5001 24.3417 29.7728 26.0265C30.9753 25.7587 32.1755 25.0149 33.2965 24.2464Z" fill="#0071BB"/>
<path d="M27.2164 44.935C27.4699 44.7635 27.5389 44.4158 27.3703 44.1578C27.2017 43.8998 26.8596 43.8296 26.6063 44.0009C26.3529 44.1723 26.2841 44.5205 26.4526 44.7785C26.621 45.0365 26.963 45.1064 27.2164 44.935Z" fill="#A8CFE1"/>
<path d="M29.964 42.3345C30.1915 42.1806 30.2531 41.8683 30.102 41.6368C29.9509 41.4053 29.6437 41.3426 29.4164 41.4962C29.1889 41.6504 29.1268 41.9627 29.2779 42.1942C29.4294 42.4256 29.7363 42.4884 29.964 42.3345Z" fill="#A8CFE1"/>
<path d="M33.4247 46.7245C33.652 46.5705 33.7138 46.2581 33.5628 46.0268C33.4113 45.7953 33.1044 45.7328 32.8769 45.8864C32.6496 46.0406 32.5878 46.3525 32.739 46.5841C32.8903 46.8154 33.197 46.8785 33.4247 46.7245Z" fill="#A8CFE1"/>
<path d="M32.6649 43.0821C32.8923 42.9283 32.954 42.6158 32.8027 42.3844C32.6518 42.1529 32.3447 42.09 32.1173 42.2438C31.8898 42.3978 31.8281 42.7102 31.9792 42.9417C32.1303 43.173 32.4374 43.2361 32.6649 43.0821Z" fill="#A8CFE1"/>
<path d="M36.1863 43.396C36.4138 43.242 36.4756 42.9297 36.3244 42.6981C36.1733 42.4666 35.8662 42.4041 35.6387 42.5579C35.4112 42.7117 35.3496 43.0241 35.5007 43.2554C35.652 43.4868 35.9586 43.5502 36.1863 43.396Z" fill="#A8CFE1"/>
<path d="M32.5653 39.0722C32.7928 38.9184 32.8544 38.6061 32.7032 38.3744C32.5517 38.1428 32.2452 38.0803 32.0177 38.2343C31.7903 38.388 31.7284 38.7001 31.8795 38.9318C32.0308 39.1632 32.338 39.226 32.5653 39.0722Z" fill="#A8CFE1"/>
<path d="M35.4559 39.3611C35.6829 39.2073 35.745 38.8949 35.5939 38.6636C35.4424 38.4321 35.1355 38.3694 34.9085 38.5232C34.6807 38.6772 34.6191 38.9895 34.7704 39.2209C34.9213 39.4522 35.2282 39.5153 35.4559 39.3611Z" fill="#A8CFE1"/>
<path d="M38.1309 40.8717C38.3583 40.7179 38.4201 40.4054 38.2688 40.1737C38.1177 39.9423 37.8109 39.8796 37.5832 40.0335C37.3557 40.1876 37.2938 40.4998 37.4451 40.7311C37.5964 40.9628 37.9032 41.0255 38.1309 40.8717Z" fill="#A8CFE1"/>
<path d="M38.163 36.2877C38.3906 36.1338 38.4521 35.8215 38.3007 35.59C38.1496 35.3585 37.8429 35.2956 37.6154 35.4494C37.3879 35.6034 37.3261 35.9159 37.4772 36.1473C37.6284 36.3786 37.9357 36.4416 38.163 36.2877Z" fill="#A8CFE1"/>
<path d="M37.168 33.6053C37.3955 33.4513 37.4573 33.1386 37.3061 32.9072C37.1547 32.6757 36.8479 32.613 36.6203 32.7668C36.3931 32.9208 36.3308 33.2332 36.4821 33.4649C36.6334 33.6962 36.9405 33.7591 37.168 33.6053Z" fill="#A8CFE1"/>
<path d="M37.492 30.1938C37.7196 30.0398 37.7812 29.7277 37.6299 29.4961C37.4789 29.2648 37.172 29.2018 36.9443 29.3557C36.717 29.5097 36.6551 29.8221 36.8066 30.0534C36.9577 30.2849 37.2644 30.3478 37.492 30.1938Z" fill="#A8CFE1"/>
<path d="M34.4072 36.0782C34.6347 35.9244 34.6961 35.6119 34.5451 35.3805C34.3937 35.149 34.0869 35.0861 33.8596 35.2399C33.6321 35.3939 33.5701 35.7061 33.7215 35.9378C33.8726 36.1691 34.1798 36.232 34.4072 36.0782Z" fill="#A8CFE1"/>
<path d="M33.6004 32.2228C33.8279 32.069 33.8899 31.7565 33.7386 31.525C33.5876 31.2934 33.2805 31.2306 33.0529 31.3847C32.8253 31.5387 32.7636 31.8509 32.9149 32.0822C33.066 32.3139 33.3729 32.3766 33.6004 32.2228Z" fill="#A8CFE1"/>
<path d="M34.492 28.9196C34.7195 28.7656 34.7813 28.4531 34.63 28.2215C34.4788 27.99 34.1719 27.9275 33.9442 28.0815C33.7167 28.2355 33.6553 28.5475 33.8065 28.7792C33.9576 29.0101 34.2645 29.0735 34.492 28.9196Z" fill="#A8CFE1"/>
<path d="M31.0343 27.3828C31.2614 27.229 31.3232 26.9165 31.172 26.6851C31.0207 26.4534 30.7139 26.3909 30.4867 26.5447C30.2592 26.6984 30.197 27.0109 30.3483 27.2424C30.4995 27.4737 30.8068 27.5368 31.0343 27.3828Z" fill="#A8CFE1"/>
<path d="M34.6619 25.1719C34.8896 25.0178 34.9512 24.7058 34.7999 24.4743C34.6487 24.2427 34.3422 24.1799 34.1143 24.3337C33.887 24.4877 33.8251 24.8 33.9762 25.0315C34.1275 25.2629 34.4344 25.3259 34.6619 25.1719Z" fill="#A8CFE1"/>
<path d="M31.1648 50.068C31.3923 49.9142 31.4538 49.6015 31.3028 49.37C31.1515 49.1386 30.8448 49.0759 30.6174 49.2297C30.3899 49.3837 30.328 49.6959 30.4793 49.9272C30.6304 50.1588 30.9375 50.2218 31.1648 50.068Z" fill="#A8CFE1"/>
<path d="M29.546 46.6812C29.7733 46.5274 29.8351 46.2149 29.6839 45.9834C29.5326 45.752 29.2257 45.6892 28.9982 45.843C28.7707 45.997 28.7089 46.3091 28.8601 46.5406C29.0114 46.7722 29.3183 46.8352 29.546 46.6812Z" fill="#A8CFE1"/>
<g opacity="0.5">
<g style="mix-blend-mode:multiply">
<path d="M30.2629 26.5081C31.4055 29.5007 33.7417 32.1934 34.1157 35.4502C34.4954 38.7555 30.9954 41.0076 28.8994 42.9414C26.9921 44.7012 25.2865 46.4748 23.9425 48.5982C23.9409 48.4508 23.9505 48.3511 23.9172 48.3627C23.2674 48.587 22.8646 47.4826 22.9213 46.9953C26.0244 43.8572 32.5771 38.1689 32.7741 37.2481C33.1218 35.6239 32.7076 34.625 32.1467 33.1374C31.2786 30.8357 28.6338 26.0771 29.5787 23.2661C29.583 24.3667 29.8792 25.5037 30.2629 26.5081Z" fill="#0087CB"/>
</g>
<g style="mix-blend-mode:multiply">
<path d="M29.3295 55.2034C28.6656 55.1731 28.6718 54.2851 28.5477 54.2936C28.523 54.2954 28.5007 54.2925 28.4775 54.2907C30.3026 50.2688 32.7534 46.352 35.8372 43.2407C38.1743 40.8828 42.2868 38.5442 40.5688 34.6259C39.9128 33.1295 38.6688 31.996 37.7301 30.6934C36.3414 28.7654 35.6159 26.4764 34.8296 24.2517C34.4259 23.1094 33.7186 22.1206 32.8389 21.5596C33.7319 21.8583 34.6411 22.6129 35.4075 23.8082C36.2228 25.0811 37.8299 28.4076 38.4813 29.752C39.7591 32.3878 41.0483 32.6976 42.4506 35.2656C43.6314 37.4275 43.6122 39.7835 41.2421 40.9377C35.9673 43.5066 32.2247 50.5804 29.3295 55.2034Z" fill="#0087CB"/>
</g>
</g>
<path opacity="0.7" d="M15.4786 23.5121C15.5612 23.3701 15.6178 23.2099 15.6319 23.0347L15.6851 22.374H13.3402L13.3379 22.934C13.3368 23.1409 13.3945 23.3382 13.4969 23.5121H15.4786Z" fill="#D39257"/>
<path d="M14.1628 23.9925C13.5951 23.945 13.1688 23.4336 13.2154 22.8558L13.6073 18.0004C13.6539 17.4227 14.1565 16.9888 14.7243 17.0363C15.292 17.0837 15.7184 17.5952 15.6717 18.1729L15.2801 23.0283C15.2334 23.606 14.7307 24.0399 14.1628 23.9925Z" fill="#D39257"/>
<path d="M14.2463 24.0706C14.216 24.0706 14.1858 24.0695 14.155 24.0668C13.5458 24.0157 13.0906 23.4697 13.1405 22.8499L13.5324 17.9947C13.5826 17.3744 14.1177 16.912 14.7284 16.9622C15.3375 17.0133 15.7924 17.5593 15.7426 18.1793L15.3508 23.0347C15.3034 23.6233 14.817 24.0706 14.2463 24.0706ZM14.1671 23.9188C14.6981 23.9583 15.1622 23.5606 15.2051 23.0226L15.5971 18.1672C15.6404 17.6287 15.2451 17.1546 14.7164 17.1102C14.1913 17.0695 13.7215 17.4686 13.6779 18.007L13.2861 22.862C13.2426 23.4005 13.638 23.8744 14.1671 23.9188Z" fill="#935624"/>
<g style="mix-blend-mode:multiply" opacity="0.7">
<path d="M14.7234 17.036C14.289 16.9996 13.8948 17.246 13.7116 17.6217C13.8911 17.4147 14.1588 17.2907 14.4485 17.3148C14.9352 17.3556 15.3008 17.794 15.2608 18.2895L14.9249 22.4518C14.885 22.9471 14.454 23.319 13.9673 23.2784C13.6271 23.25 13.3498 23.0254 13.225 22.7248L13.2144 22.8556C13.1678 23.4333 13.5942 23.9448 14.1618 23.9922C14.7297 24.0397 15.2325 23.6058 15.2791 23.0281L15.6708 18.1727C15.7174 17.5949 15.291 17.0835 14.7234 17.036Z" fill="#D39257"/>
</g>
<path d="M14.1582 23.9925C13.5887 23.9899 13.1245 23.5136 13.127 22.9339L13.1476 18.0624C13.1501 17.4826 13.6181 17.0103 14.1878 17.0127C14.7576 17.0152 15.2217 17.4917 15.2192 18.0714L15.1986 22.943C15.1961 23.5227 14.7281 23.995 14.1582 23.9925Z" fill="#D39257"/>
<path d="M14.1632 24.0668C14.1615 24.0668 14.16 24.0668 14.1586 24.0668C13.8634 24.0653 13.5861 23.9467 13.3769 23.7318C13.1678 23.5173 13.0533 23.2338 13.0547 22.9336L13.0752 18.0619C13.0766 17.7615 13.1932 17.4791 13.4043 17.2664C13.6138 17.0548 13.8905 16.9385 14.1835 16.9385C14.1851 16.9385 14.1869 16.9385 14.1885 16.9385C14.4838 16.9399 14.7613 17.0586 14.9703 17.2733C15.1793 17.4879 15.2942 17.7715 15.2928 18.0717L15.2721 22.9432C15.2692 23.5637 14.7722 24.0668 14.1632 24.0668ZM14.1593 23.9182C14.1607 23.9182 14.1618 23.9182 14.1632 23.9182C14.6919 23.9182 15.1238 23.4812 15.1261 22.9427L15.1466 18.0709C15.1478 17.8104 15.0485 17.5642 14.8669 17.3778C14.6852 17.1916 14.4441 17.0881 14.188 17.087C14.1865 17.087 14.1851 17.087 14.1835 17.087C13.9293 17.087 13.6893 17.1881 13.507 17.3718C13.3238 17.5566 13.2224 17.8019 13.2212 18.0626L13.2007 22.9341C13.1996 23.1948 13.2987 23.441 13.4805 23.6273C13.6621 23.8137 13.9031 23.917 14.1593 23.9182Z" fill="#935624"/>
<g style="mix-blend-mode:multiply" opacity="0.7">
<path d="M14.1897 17.0134C13.7541 17.0114 13.3797 17.2881 13.2258 17.6772C13.389 17.4567 13.6464 17.3118 13.9371 17.3131C14.4254 17.3153 14.8233 17.7236 14.8211 18.2207L14.8071 21.5817L13.3815 21.5819C13.3815 21.5819 13.3071 21.5813 13.3071 21.7168C13.3071 21.8524 13.3815 21.8605 13.3815 21.8605L14.8058 21.8661L14.8035 22.3969C14.8014 22.8941 14.4002 23.2988 13.9118 23.2968C13.5706 23.2952 13.2768 23.0932 13.1295 22.8033L13.1289 22.9345C13.1266 23.5142 13.5907 23.9905 14.1602 23.993C14.73 23.9955 15.198 23.5232 15.2005 22.9435L15.2212 18.072C15.2237 17.4923 14.7595 17.0158 14.1897 17.0134Z" fill="#D39257"/>
</g>
<path opacity="0.5" d="M15.3829 19.2019C15.369 19.187 15.3498 19.1787 15.3298 19.1787H15.2134V19.3273H15.2527L15.1315 21.6647H13.4197C13.3794 21.6647 13.3467 21.6982 13.3467 21.7389C13.3467 21.7799 13.3794 21.8134 13.4197 21.8134H15.201C15.2398 21.8134 15.2716 21.7822 15.2739 21.7427L15.4028 19.2568C15.4037 19.2365 15.3966 19.2168 15.3829 19.2019Z" fill="#618FC4"/>
<path d="M15.3829 19.1858C15.369 19.1711 15.3498 19.1626 15.3298 19.1626H15.2134V19.3111H15.2527L15.1315 21.6485H13.4197C13.3794 21.6485 13.3467 21.6821 13.3467 21.723C13.3467 21.7639 13.3794 21.7973 13.4197 21.7973H15.201C15.2398 21.7973 15.2716 21.7661 15.2739 21.7268L15.4028 19.2407C15.4037 19.2204 15.3966 19.2006 15.3829 19.1858Z" fill="#8E8E8E"/>
<g opacity="0.7">
<path d="M15.3829 19.186C15.3768 19.1796 15.3676 19.1798 15.3599 19.176C15.3606 19.1807 15.3649 19.1842 15.3647 19.1891L15.2358 21.675C15.2335 21.7147 15.2015 21.7457 15.1627 21.7457H13.3816C13.3695 21.7457 13.3606 21.7379 13.3506 21.7326C13.3557 21.7685 13.3832 21.7975 13.4197 21.7975H15.201C15.2398 21.7975 15.2716 21.7663 15.2739 21.727L15.4028 19.2409C15.4037 19.2206 15.3966 19.2008 15.3829 19.186Z" fill="#8E8E8E"/>
<path d="M15.2139 19.281L15.2151 19.2595H15.2139V19.281Z" fill="#8E8E8E"/>
</g>
<path opacity="0.7" d="M33.543 23.5121C33.6256 23.3701 33.6822 23.2099 33.6963 23.0347L33.7497 22.374H31.4046L31.4024 22.934C31.4013 23.1409 31.459 23.3382 31.5611 23.5121H33.543Z" fill="#D39257"/>
<path d="M32.2236 23.9925C31.6557 23.945 31.2293 23.4336 31.2759 22.8558L31.6678 18.0004C31.7144 17.4227 32.2172 16.9888 32.7848 17.0363C33.3525 17.0837 33.7789 17.5952 33.7323 18.1729L33.3404 23.0283C33.294 23.606 32.7912 24.0399 32.2236 23.9925Z" fill="#D39257"/>
<path d="M32.3106 24.0706C32.2803 24.0706 32.2502 24.0695 32.2195 24.0668C31.6101 24.0157 31.1549 23.4697 31.2049 22.8499L31.5967 17.9947C31.6469 17.3744 32.1819 16.912 32.7927 16.9622C33.4019 17.0133 33.8567 17.5593 33.8069 18.1793L33.4151 23.0347C33.3677 23.6233 32.8814 24.0706 32.3106 24.0706ZM32.2314 23.9188C32.7624 23.9583 33.2263 23.5606 33.2696 23.0226L33.6614 18.1672C33.7047 17.6287 33.3095 17.1546 32.7807 17.1102C32.2556 17.0695 31.7858 17.4686 31.7422 18.007L31.3504 22.862C31.307 23.4005 31.7023 23.8744 32.2314 23.9188Z" fill="#935624"/>
<g style="mix-blend-mode:multiply" opacity="0.7">
<path d="M32.7858 17.0363C32.3516 16.9999 31.9573 17.2462 31.7741 17.622C31.9536 17.4149 32.2213 17.291 32.511 17.3151C32.9978 17.3558 33.3633 17.7943 33.3233 18.2897L32.9875 22.452C32.9475 22.9473 32.5165 23.3193 32.0298 23.2787C31.6896 23.2502 31.4123 23.0256 31.2875 22.725L31.2769 22.8558C31.2303 23.4336 31.6567 23.945 32.2245 23.9925C32.7922 24.0399 33.295 23.606 33.3414 23.0283L33.7333 18.1729C33.7799 17.5952 33.3535 17.0837 32.7858 17.0363Z" fill="#D39257"/>
</g>
<path d="M32.2238 23.9925C31.654 23.9899 31.1899 23.5136 31.1924 22.9339L31.213 18.0624C31.2155 17.4826 31.6836 17.0103 32.2534 17.0127C32.8229 17.0152 33.2871 17.4917 33.2846 18.0714L33.264 22.943C33.2615 23.5227 32.7935 23.995 32.2238 23.9925Z" fill="#D39257"/>
<path d="M32.2286 24.0668C32.227 24.0668 32.2256 24.0668 32.2242 24.0668C31.9288 24.0653 31.6513 23.9467 31.4423 23.7318C31.2333 23.5173 31.1187 23.2338 31.1201 22.9336L31.1406 18.0619C31.142 17.7615 31.2586 17.4791 31.4697 17.2664C31.6793 17.0548 31.9559 16.9385 32.2489 16.9385C32.2507 16.9385 32.2523 16.9385 32.2541 16.9385C32.5493 16.9399 32.8268 17.0586 33.0358 17.2733C33.245 17.4879 33.3596 17.7715 33.3582 18.0717L33.3375 22.9432C33.3347 23.5637 32.8376 24.0668 32.2286 24.0668ZM32.2247 23.9182C32.2261 23.9182 32.2272 23.9182 32.2286 23.9182C32.7575 23.9182 33.1892 23.4812 33.1916 22.9427L33.212 18.0709C33.2132 17.8104 33.1139 17.5642 32.9323 17.3778C32.7506 17.1916 32.5095 17.0881 32.2536 17.087C32.2521 17.087 32.2507 17.087 32.2489 17.087C31.9947 17.087 31.7546 17.1881 31.5723 17.3718C31.3893 17.5566 31.2878 17.8019 31.2865 18.0626L31.2661 22.9341C31.2649 23.1948 31.3642 23.441 31.5457 23.6273C31.7275 23.8137 31.9686 23.917 32.2247 23.9182Z" fill="#935624"/>
<g style="mix-blend-mode:multiply" opacity="0.7">
<path d="M32.2534 17.0132C31.8176 17.0112 31.4432 17.2878 31.2892 17.677C31.4525 17.4565 31.7101 17.3116 32.0006 17.3128C32.4889 17.315 32.8867 17.7234 32.8848 18.2205L32.8708 21.5815L31.445 21.5816C31.445 21.5816 31.3706 21.5811 31.3706 21.7166C31.3706 21.8521 31.445 21.8603 31.445 21.8603L32.8693 21.8659L32.867 22.3967C32.8649 22.8938 32.4636 23.2985 31.9753 23.2965C31.6339 23.2949 31.3403 23.0929 31.1929 22.8031L31.1924 22.9342C31.1899 23.5139 31.654 23.9902 32.2238 23.9928C32.7935 23.9953 33.2615 23.523 33.264 22.9433L33.2846 18.0717C33.2871 17.492 32.8229 17.0155 32.2534 17.0132Z" fill="#D39257"/>
</g>
<path opacity="0.5" d="M33.4483 19.2019C33.4342 19.187 33.4152 19.1787 33.3953 19.1787H33.2788V19.3273H33.3182L33.1969 21.6647H31.4851C31.4449 21.6647 31.4121 21.6982 31.4121 21.7389C31.4121 21.7799 31.4449 21.8134 31.4851 21.8134H33.2663C33.3052 21.8134 33.337 21.7822 33.3394 21.7427L33.4682 19.2568C33.4691 19.2365 33.462 19.2168 33.4483 19.2019Z" fill="#618FC4"/>
<path d="M33.4483 19.1858C33.4342 19.1711 33.4152 19.1626 33.3953 19.1626H33.2788V19.3111H33.3182L33.1969 21.6485H31.4851C31.4449 21.6485 31.4121 21.6821 31.4121 21.723C31.4121 21.7639 31.4449 21.7973 31.4851 21.7973H33.2663C33.3052 21.7973 33.337 21.7661 33.3394 21.7268L33.4682 19.2407C33.4691 19.2204 33.462 19.2006 33.4483 19.1858Z" fill="#8E8E8E"/>
<g opacity="0.7">
<path d="M33.4493 19.186C33.4432 19.1796 33.434 19.1798 33.4263 19.176C33.427 19.1807 33.4313 19.1842 33.4311 19.1891L33.302 21.675C33.2999 21.7147 33.2679 21.7457 33.2291 21.7457H31.448C31.4359 21.7457 31.427 21.7379 31.417 21.7326C31.4222 21.7685 31.4494 21.7975 31.4861 21.7975H33.2673C33.3062 21.7975 33.338 21.7663 33.3403 21.727L33.4692 19.2409C33.4701 19.2206 33.463 19.2008 33.4493 19.186Z" fill="#8E8E8E"/>
<path d="M33.2793 19.281L33.2805 19.2595H33.2793V19.281Z" fill="#8E8E8E"/>
</g>
</svg>
