<svg width="72" height="38" viewBox="0 0 72 38" fill="none" xmlns="http://www.w3.org/2000/svg">
<g clip-path="url(#clip0_13345_316477)">
<path d="M11.4778 28.0476C9.69297 28.0112 8.6297 27.1215 9.10725 26.0623C9.58901 24.9937 11.4247 24.1702 13.2095 24.2067C14.9945 24.2431 16.0558 25.1257 15.574 26.1942C15.0965 27.2534 13.2627 28.0841 11.4778 28.0476Z" fill="#747474"/>
<path d="M33.6106 26.8447C31.0305 27.9105 29.4126 28.5738 29.4126 28.5738C26.8331 29.6384 23.4364 29.5683 21.8378 28.3898L12.9574 21.9073C11.3521 20.7551 12.1435 18.9378 14.7236 17.8719C14.7236 17.8719 16.5051 17.1343 19.2966 15.989L19.3113 16.0277C30.4414 11.4303 48.573 3.92897 48.573 3.92897C51.1607 2.85493 54.5441 2.94266 56.1314 4.12334L65.0218 10.5953C66.6255 11.7654 65.8283 13.567 63.2475 14.6401C63.2475 14.6401 44.7038 22.2969 33.6261 26.8844L33.6106 26.8447Z" fill="#383D45"/>
<path d="M2.45073 27.7173C0.963382 26.6224 1.85895 24.0429 3.06261 22.5355C2.45823 23.4818 2.62083 24.4538 3.6267 25.212L13.6415 32.6582C15.4459 33.9913 19.3088 34.0823 22.2788 32.8607L65.5865 14.9781C67.3574 14.2306 68.4182 13.198 68.5748 12.1846C68.449 14.5416 66.8667 16.4731 64.41 17.4847L21.0978 35.3767C18.1328 36.5876 14.2654 36.5061 12.4599 35.1754L2.45073 27.7173Z" fill="#434343"/>
<path d="M14.7211 17.8397C12.1407 18.9056 11.3488 20.7228 12.9539 21.8751L21.8331 28.3576C23.4316 29.5361 26.8283 29.6063 29.4082 28.5417C29.4082 28.5417 31.0263 27.8785 33.6068 26.8127L33.6223 26.8524C44.7015 22.2651 63.2478 14.6087 63.2478 14.6087C65.829 13.5357 66.6266 11.7341 65.0231 10.564L56.1339 4.09201C54.5468 2.91132 51.1633 2.82353 48.5753 3.89752C48.5753 3.89752 30.4411 11.3985 19.3095 15.9956L19.2948 15.9569C16.5029 17.1022 14.7211 17.8397 14.7211 17.8397ZM9.12199 26.2602C8.63735 27.3203 9.69037 28.211 11.4696 28.2477C13.2491 28.2845 15.0841 27.4534 15.5687 26.3934C16.0576 25.324 15.0065 24.4404 13.2271 24.4036C11.4478 24.3669 9.6109 25.1908 9.12199 26.2602ZM68.4585 12.2687C68.3166 13.2796 67.2672 14.3099 65.5008 15.0561L22.2938 32.9069C19.3307 34.1263 15.4513 34.0367 13.6196 32.7074L3.45295 25.2826C2.43166 24.5267 2.25372 23.5571 2.84616 22.613C2.85049 22.6035 2.85049 22.6035 2.85859 22.5858C3.31108 21.8769 4.2024 21.1868 5.48239 20.6507L48.695 2.79045C51.6492 1.57084 55.5229 1.66996 57.3533 2.99919L67.5397 10.4148C68.0975 10.8286 68.3983 11.3027 68.4382 11.8111C68.4579 11.9635 68.4605 12.1167 68.4585 12.2687Z" fill="#212121"/>
</g>
<defs>
<clipPath id="clip0_13345_316477">
<rect width="72" height="37" fill="white" transform="translate(0 0.500488)"/>
</clipPath>
</defs>
</svg>
