<svg width="62" height="56" viewBox="0 0 62 56" fill="none" xmlns="http://www.w3.org/2000/svg">
<path d="M41.8491 6.03359C39.5011 6.80431 37.2422 7.37984 34.7666 7.6742C32.1856 7.97974 29.7546 7.87252 27.1683 7.82245C27.1035 7.82049 26.8508 7.97443 26.9821 7.99563C31.7634 8.73906 37.7598 8.93287 42.0616 6.49916C42.4972 6.2545 42.3378 5.871 41.8491 6.03359Z" fill="#231F20"/>
<path d="M57.058 28.6849C55.0981 26.0782 54.1532 23.0002 54.8479 19.8235C55.0693 18.8077 55.3202 17.7999 55.5787 16.7938C55.6812 16.3928 56.0628 14.513 56.23 14.4412C56.4579 14.3414 56.3787 14.1741 56.1483 14.2648C55.7281 14.4314 55.6127 15.1697 55.4832 15.5288C55.0485 16.728 54.6804 17.9508 54.3133 19.1717C53.371 22.2909 53.0317 26.9559 56.1518 29.1367C56.3661 29.2883 57.2579 28.947 57.058 28.6849Z" fill="#231F20"/>
<path d="M21.9123 8.49096C21.9123 8.49096 0.535175 2.4601 0.245286 6.03899C-0.0461856 9.61847 0.321912 19.9685 12.2724 29.2354C24.2234 38.5011 29.6242 42.116 33.8043 47.5157C37.9853 52.9143 47.0272 57.0613 53.7595 55.4758C53.7595 55.4758 59.4672 54.9869 58.7335 52.5035C58.0019 50.0209 53.3754 36.9915 53.3754 36.9915L21.9123 8.49096Z" fill="#796146"/>
<path d="M50.6701 56.0004H50.6693C44.6674 55.9995 37.3547 52.3997 33.6575 47.6268C30.2882 43.275 26.0351 40.0203 18.3136 34.112C16.4964 32.7214 14.4366 31.145 12.1587 29.3791C0.276772 20.166 -0.260369 9.97696 0.060918 6.024C0.132799 5.14784 1.1741 4.72192 3.24681 4.72192C9.15567 4.72192 21.835 8.27941 21.962 8.31535C21.9888 8.3232 22.0139 8.33715 22.0349 8.35599L53.4977 36.8569C53.5202 36.8766 53.5374 36.9031 53.5481 36.9308C53.5941 37.0615 58.1846 49.9927 58.9082 52.4518C59.0521 52.9374 58.9838 53.3869 58.7065 53.79C57.6627 55.3087 53.9316 55.6442 53.774 55.6572C52.8228 55.8832 51.7698 56.0004 50.6701 56.0004ZM3.24681 5.08696C1.9958 5.08696 0.491029 5.25427 0.426259 6.05384C0.110486 9.94751 0.643077 19.9871 12.3846 29.0908C14.6615 30.8555 16.7206 32.4319 18.5376 33.8225C26.2834 39.7493 30.551 43.0146 33.9492 47.4043C37.5821 52.0962 44.7701 55.6344 50.6693 55.6352H50.6701C51.741 55.6352 52.767 55.5217 53.7155 55.2984C53.7793 55.2908 57.4575 54.9597 58.4032 53.5842C58.6185 53.2716 58.6688 52.9344 58.5573 52.5547C57.8552 50.1767 53.5111 37.9263 53.2159 37.0959L21.8198 8.65485C21.0133 8.42982 8.93608 5.08696 3.24681 5.08696Z" fill="#5E4243"/>
<g style="mix-blend-mode:multiply" opacity="0.5">
<path d="M58.7335 52.5035C58.0019 50.0209 53.3754 36.9915 53.3754 36.9915L21.9123 8.49096C21.9123 8.49096 0.535175 2.4601 0.245286 6.03899C-0.0461856 9.61847 0.321912 19.9685 12.2724 29.2354C24.2234 38.5011 29.6242 42.116 33.8043 47.5157C37.9853 52.9143 47.0272 57.0613 53.7595 55.4758C53.7595 55.4758 59.4672 54.9869 58.7335 52.5035ZM14.0676 27.0438C13.4655 26.9696 12.9363 26.612 12.4712 26.2407C11.1428 25.1745 10.0583 23.8209 9.03059 22.4755C7.65538 20.6778 6.31649 18.8544 5.21497 16.8733C4.22857 15.0985 3.04233 12.8808 3.26746 10.7768C3.4752 8.8503 5.10339 8.18758 6.80049 8.07449C5.55857 7.70847 4.2033 7.78229 3.00995 7.22463C2.91003 7.17828 2.89659 7.02433 2.99573 6.96797C4.64426 6.02387 6.57103 6.37693 8.36096 6.6646C10.1007 6.94324 11.8259 7.30042 13.5088 7.80506C14.5248 7.83139 15.5516 7.86948 16.4462 8.36824C16.5371 8.41929 16.5487 8.51964 16.4912 8.59974C15.3429 10.2113 14.9728 12.3077 15.2349 14.2471C15.368 15.2315 15.6614 16.1793 15.9539 17.1268C16.2464 18.0736 16.5191 19.1416 17.0616 19.9828C17.5981 20.8115 18.8175 22.2159 18.0209 23.2531C17.3795 24.0898 16.2302 24.2973 15.2061 24.5453C17.0627 24.7941 18.9534 24.7591 20.8179 24.6107C20.9854 24.5981 21.035 24.854 20.871 24.8992C19.2594 25.3488 17.6441 25.8621 16.1042 26.5176C15.4869 26.7799 14.7606 27.1286 14.0676 27.0438ZM54.9854 52.5027C54.1134 53.0231 53.0352 53.1586 52.0373 53.2245C48.4517 53.4616 45.1318 52.7295 42.1161 50.7433C39.0033 48.6933 36.5959 45.7465 34.2102 42.9371C31.0559 39.2202 26.9233 36.8788 22.8997 34.2228C22.0851 33.6836 21.295 33.1106 20.4878 32.5588C19.9775 32.2111 19.4194 31.8533 19.0308 31.3648C18.1415 30.2433 19.2188 29.655 20.0774 29.0487C18.9066 28.8541 17.7016 29.3248 16.5451 28.9642C16.4425 28.9334 16.3795 28.8103 16.4642 28.7221C16.9555 28.2077 17.608 27.7916 18.2739 27.4299C18.6483 27.1559 19.0272 26.8899 19.4214 26.6474C19.9613 26.3145 20.5976 25.901 21.2581 25.8965C22.7457 25.8863 21.8566 27.8526 21.6118 28.7243C22.1807 28.7266 22.735 28.4005 23.2894 28.2974C23.4045 28.2778 23.4766 28.4223 23.4315 28.5118C23.0642 29.2549 22.564 29.9146 22.1167 30.6086C22.788 30.1204 23.4037 29.2081 24.2082 29.2837C25.1359 29.3699 25.5354 30.4746 26.1241 31.052C28.7099 33.5884 31.7415 35.6354 34.9939 37.2358C38.3005 38.8609 41.7417 39.9169 45.2732 40.9276C46.4286 41.2579 47.8559 41.3191 48.4571 42.4838C48.5562 42.6783 48.6137 42.8757 48.6731 43.0856C48.8279 43.644 49.4579 43.8813 49.7476 43.2959C49.9447 42.8973 50.0967 42.4551 50.4145 42.1338C50.482 42.0669 50.5981 42.0669 50.6512 42.1521C51.4279 43.4061 51.7978 44.955 52.0164 46.4762C52.1378 45.0096 52.3864 43.5575 52.7472 42.1236C52.7913 41.9528 53.0144 41.9822 53.0415 42.146C53.5093 45.0239 55.0115 47.641 55.5838 50.4875C55.7412 51.2745 55.7619 52.0391 54.9854 52.5027Z" fill="#ACA78F"/>
</g>
<path d="M55.1717 54.5864C52.8993 54.8511 50.2419 55.1788 47.5068 54.8126C44.4937 54.4097 41.6896 53.3022 39.2806 51.443C36.6697 49.4295 34.6071 46.8014 32.4949 44.2994C29.2802 40.4855 13.6365 29.3225 9.99092 26.3533C6.57557 23.5706 3.98825 20.1616 2.58518 15.9777C1.43606 12.5518 0.87543 8.94916 0.724165 5.34277C0.438028 5.51597 0.268789 5.74414 0.245286 6.03888C-0.0461856 9.61835 0.321912 19.9684 12.2724 29.2353C24.2234 38.501 29.6242 42.1158 33.8044 47.5156C37.9853 52.9142 47.0272 57.0611 53.7595 55.4757C53.7595 55.4757 57.0858 55.189 58.333 53.9468C57.3001 54.3133 56.1561 54.4713 55.1717 54.5864Z" fill="#ACA78F"/>
<path d="M50.6693 56.0006C44.6674 56.0006 37.3547 52.3999 33.6575 47.6269C30.2882 43.2752 26.0351 40.0205 18.3136 34.1121C16.4964 32.7215 14.4366 31.1451 12.1587 29.3792C0.276772 20.1661 -0.260369 9.9771 0.060918 6.02415C0.0887755 5.67914 0.279529 5.39814 0.626896 5.18745C0.681782 5.15329 0.752096 5.15152 0.809559 5.18195C0.866238 5.21278 0.903165 5.27011 0.906916 5.3355C1.06707 9.17576 1.69169 12.7374 2.75806 15.9204C4.0764 19.8525 6.5494 23.3152 10.1061 26.2127C11.1618 27.0714 13.2665 28.6513 15.7038 30.4804C21.8808 35.1134 30.3385 41.4594 32.6352 44.1829C32.9026 44.5007 33.1698 44.8201 33.4379 45.141C35.2523 47.31 37.1295 49.554 39.392 51.2993C41.7264 53.1007 44.4642 54.2215 47.5292 54.6319C48.3428 54.7405 49.1815 54.7939 50.0958 54.7939C51.8292 54.7939 53.5084 54.5966 54.9926 54.4234L55.1482 54.405C56.1921 54.2832 57.2918 54.1226 58.2701 53.7754C58.3521 53.7477 58.4411 53.7782 58.4879 53.8506C58.5338 53.9217 58.5231 54.0165 58.4617 54.0766C57.183 55.3514 53.9136 55.6461 53.774 55.6573C52.8228 55.8834 51.7698 56.0006 50.6693 56.0006ZM0.555798 5.72194C0.480166 5.82091 0.437122 5.93087 0.426259 6.05399C0.110486 9.94765 0.643077 19.9872 12.3846 29.091C14.6615 30.8557 16.7206 32.4321 18.5376 33.8227C26.2834 39.7495 30.551 43.0148 33.9492 47.4045C37.5821 52.0967 44.7719 55.6353 50.6693 55.6353C51.741 55.6353 52.7671 55.5218 53.7155 55.2986C53.7624 55.2927 55.8106 55.1075 57.2486 54.4426C56.5683 54.5938 55.8682 54.6887 55.1915 54.7678L55.0349 54.7867C53.5428 54.9608 51.8508 55.1586 50.0958 55.1586C49.1653 55.1586 48.3094 55.1048 47.4816 54.9934C44.3499 54.5756 41.5528 53.4292 39.1669 51.5872C36.8722 49.8179 34.9832 47.5584 33.1563 45.3741C32.8891 45.0538 32.6218 44.7347 32.3544 44.4174C30.0848 41.7257 21.6451 35.395 15.4842 30.7716C13.0426 28.9398 10.9332 27.3581 9.87389 26.4951C6.26246 23.5532 3.75155 20.0346 2.4097 16.0359C1.36663 12.9235 0.743011 9.45498 0.555798 5.72194Z" fill="#8D8A76"/>
<path d="M34.894 0.436889C34.894 0.436889 30.9972 2.03783 27.0526 4.16128C23.1072 6.28572 17.3307 8.66603 16.6934 10.5309C16.0582 12.394 16.7989 23.5239 35.0109 34.8198C35.0109 34.8198 42.1735 40.6109 51.8274 40.3478C51.8274 40.3478 53.4382 40.0839 54.609 38.4977C55.7799 36.9117 62.4269 22.9186 61.7754 19.8398C61.123 16.7606 54.3327 8.52778 49.4316 5.99079C44.5288 3.45222 38.8485 -0.913877 34.894 0.436889Z" fill="#796146"/>
<path d="M51.1872 40.5392C41.8999 40.5392 34.9629 35.0175 34.8936 34.9621C16.759 23.7153 15.787 12.6163 16.5187 10.4723C17.0244 8.98934 20.3507 7.33342 23.8713 5.57991C24.9223 5.0568 26.0086 4.51602 26.9642 4.00155C30.8708 1.89714 34.784 0.284622 34.8225 0.268517C35.3446 0.0894317 35.9078 0.000488281 36.5054 0.000488281C39.3663 0.000488281 42.7942 1.99296 46.1079 3.9185C47.24 4.57728 48.4101 5.25749 49.5149 5.82869C54.347 8.33034 61.262 16.5375 61.9541 19.802C62.6129 22.9132 55.9669 36.9656 54.7554 38.6064C53.5549 40.2329 51.9251 40.5178 51.8558 40.5286C51.6155 40.5366 51.4004 40.5392 51.1872 40.5392ZM36.5054 0.366494C35.9483 0.366494 35.4246 0.448382 34.9523 0.6094C34.9242 0.621969 31.0294 2.22782 27.1389 4.3226C26.1778 4.83903 25.0889 5.38276 24.036 5.90665C20.7366 7.54961 17.3242 9.24893 16.866 10.5893C16.2748 12.3214 17.0667 23.4759 35.1079 34.6654C35.1961 34.7355 42.3624 40.417 51.8217 40.1653C51.8118 40.1653 53.3507 39.8922 54.4593 38.3898C55.7526 36.639 62.2043 22.7572 61.5942 19.8776C60.9832 16.9944 54.2784 8.70618 49.3441 6.15211C48.2327 5.57677 47.0591 4.89461 45.9225 4.23443C42.6513 2.33306 39.2665 0.366494 36.5054 0.366494Z" fill="#5E4243"/>
<g style="mix-blend-mode:multiply" opacity="0.5">
<path d="M61.7735 19.8398C61.121 16.7606 54.3308 8.52778 49.4296 5.99079C44.5269 3.45222 38.8465 -0.913877 34.892 0.436889C34.892 0.436889 30.9953 2.03783 27.0507 4.16128C23.1053 6.28572 17.3287 8.66603 16.6915 10.5309C16.0562 12.394 16.7969 23.5239 35.009 34.8198C35.009 34.8198 42.1716 40.6109 51.8254 40.3478C51.8254 40.3478 53.4362 40.0839 54.607 38.4977C55.7779 36.9117 62.4249 22.9186 61.7735 19.8398ZM49.5045 32.0816C48.4685 33.2356 47.3184 33.9492 45.6697 33.7518C43.9445 33.5447 42.3254 32.7209 40.8667 31.8131C37.1526 29.503 33.5798 26.6734 30.6155 23.49C28.8066 21.5472 27.1524 19.4376 25.8925 17.1155C24.8468 15.1896 23.5978 12.8841 23.4772 10.6813C23.4286 9.78156 23.5382 8.80426 24.1405 8.09244C24.9367 7.15246 26.177 6.61227 27.2631 6.05088C29.2278 5.03215 30.9854 3.68924 32.9033 2.59805C33.2749 2.38598 33.9003 2.0775 34.298 2.4551C35.0198 3.14158 34.7534 4.15598 35.0153 5.01193C35.4554 6.45126 37.2633 8.08185 38.5835 8.74574C39.92 9.41554 40.8227 9.50644 42.3029 9.7197C43.7186 9.9247 45.1928 9.68042 46.5832 9.58186C47.5038 9.51705 48.3066 9.66511 49.0309 10.2738C50.622 11.6062 50.0856 12.9608 49.9553 14.7672C49.7861 17.0715 50.3414 19.1914 51.6066 21.1768C52.5624 22.676 53.9826 24.0922 53.3363 25.9413C52.5697 28.1371 51.0568 30.3536 49.5045 32.0816Z" fill="#ACA78F"/>
</g>
<g style="mix-blend-mode:multiply" opacity="0.5">
<path d="M61.7733 19.84C61.1208 16.7608 54.3306 8.52798 49.4294 5.99098C45.0881 3.74323 40.1394 0.0651773 36.3164 0.189087C35.8403 0.478719 35.4884 0.907376 35.3841 1.53024C34.9791 3.96238 37.8228 6.66175 39.8271 7.75981C41.1779 8.50029 42.6953 8.95663 44.236 8.75046C45.2879 8.60849 46.3085 8.31001 47.3615 8.17452C49.0236 7.9656 51.3752 8.26583 51.9403 10.1713C52.5369 12.1776 51.3518 14.2266 51.4543 16.2613C51.5776 18.6663 52.7259 20.5394 54.6392 22.0208C55.8865 22.9859 57.3778 24.0419 57.3624 25.7454C57.3516 26.8964 56.6055 28.1107 56.0549 29.0688C55.3683 30.267 54.6923 31.4603 54.0857 32.7019C53.1074 34.7063 52.1536 36.7458 50.8568 38.5643C50.5697 39.1543 50.2754 39.7401 49.9784 40.3235C50.5805 40.3543 51.1978 40.3647 51.8252 40.348C51.8252 40.348 53.436 40.0841 54.6068 38.4979C55.7777 36.9119 62.4247 22.9188 61.7733 19.84Z" fill="#ACA78F"/>
</g>
<path d="M46.9177 36.4401C44.172 35.5912 41.6836 34.22 39.3148 32.6128C36.94 31.0024 34.5713 29.3598 32.4079 27.4814C28.5192 24.1115 25.2498 20.1601 23.0258 15.5601C21.92 13.2711 20.4367 9.6942 21.3538 7.05981C19.0078 8.28708 17.0477 9.4892 16.693 10.5309C16.0577 12.394 16.7056 24.1335 34.9179 35.4288C34.9179 35.4288 42.1731 40.611 51.8269 40.3479C51.8269 40.3479 53.4377 40.0839 54.6086 38.4977C54.7571 38.2972 54.9946 37.8933 55.2934 37.3386C52.5396 37.7904 49.4797 37.232 46.9177 36.4401Z" fill="#E0B860"/>
<path d="M51.1131 40.5406C41.8651 40.5406 34.8797 35.6269 34.8094 35.5778C16.4965 24.2202 15.8812 12.3403 16.5182 10.4723C16.9169 9.30319 19.1425 8.01015 21.2671 6.89815C21.3337 6.8632 21.4156 6.87263 21.4733 6.92152C21.5292 6.97062 21.5517 7.04936 21.5262 7.12004C20.5311 9.9775 22.5326 14.1205 23.1894 15.4813C25.2709 19.7866 28.4128 23.7776 32.5264 27.3445C34.6917 29.2237 37.0216 30.8382 39.4163 32.4627C42.1297 34.302 44.5298 35.511 46.9714 36.2654C50.0923 37.2315 52.9371 37.5388 55.2626 37.1585C55.3292 37.1469 55.4012 37.176 55.4407 37.2323C55.483 37.2897 55.4883 37.3635 55.4542 37.4252C55.142 38.0056 54.9062 38.4028 54.7541 38.6065C53.5545 40.2329 51.9247 40.5178 51.8554 40.5286C51.5908 40.5375 51.3506 40.5406 51.1131 40.5406ZM21.0538 7.42441C19.21 8.40504 17.2013 9.6052 16.8656 10.5894C16.2437 12.4124 16.8944 24.037 35.0148 35.2744C35.094 35.3312 42.3493 40.4238 51.8212 40.1654C51.8113 40.1654 53.3502 39.8922 54.4589 38.3899C54.5697 38.2404 54.7397 37.9612 54.9557 37.5734C52.6384 37.878 49.879 37.5483 46.8624 36.615C44.3858 35.8484 41.9533 34.6252 39.2094 32.7643C36.8047 31.1333 34.4658 29.5118 32.2861 27.6202C28.1338 24.0201 24.9615 19.9896 22.8592 15.6396C22.2168 14.3094 20.3222 10.3863 21.0538 7.42441Z" fill="#C7984D"/>
<path d="M46.9159 36.4398C44.1702 35.591 41.6818 34.2198 39.313 32.6126C36.9382 31.0022 34.5694 29.3596 32.4061 27.4812C29.9815 25.3808 27.7992 23.0541 25.9589 20.4849C28.7109 25.2356 32.5428 29.416 36.6708 33.2755C36.8104 33.4053 36.6943 33.6621 36.4972 33.6075C34.6198 33.0819 32.9189 32.1136 31.2919 31.0607C29.6207 29.9784 27.8857 28.9274 26.3377 27.676C24.7782 26.4177 23.259 25.0956 21.7398 23.7904C21.5043 23.587 21.2748 23.3802 21.0469 23.1703C23.7989 26.9646 28.1412 31.2268 34.916 35.4286C34.916 35.4286 42.1713 40.6108 51.8251 40.3477C51.8251 40.3477 53.4359 40.0837 54.6067 38.4975C54.7553 38.297 54.9928 37.8931 55.2916 37.3384C52.5378 37.7902 49.4779 37.2318 46.9159 36.4398Z" fill="#E2CC63"/>
<path opacity="0.5" d="M46.9444 8.64293C44.5251 8.92019 41.0641 9.18254 38.9924 7.55254C37.3788 6.28403 35.9181 3.98956 35.2684 2.06167C35.2532 2.01553 35.1128 2.07051 35.1199 2.11391C35.4566 4.52287 37.0171 6.76591 38.9231 8.2881C39.5935 8.82536 41.0057 9.02329 41.8408 9.09397C43.5569 9.24242 45.2316 9.01426 46.9057 8.7154C46.9487 8.70813 47.0307 8.63213 46.9444 8.64293Z" fill="#ACA78F"/>
<path opacity="0.5" d="M55.5805 22.7478C53.7337 21.1731 52.0994 19.4287 51.9139 16.9533C51.7718 15.059 52.409 13.3305 52.8212 11.5283C52.8318 11.48 52.6932 11.5202 52.6808 11.5583C51.9625 13.6464 51.266 15.4384 51.3849 17.7235C51.5018 19.9759 53.4699 21.8345 55.3321 22.8909C55.4067 22.9324 55.6668 22.8206 55.5805 22.7478Z" fill="#ACA78F"/>
<path opacity="0.5" d="M32.9165 3.85252C29.9745 5.06467 27.4042 6.84586 24.881 8.69676C24.7224 8.8142 24.9329 8.84993 25.0328 8.80693C27.9407 7.56887 30.5442 5.83341 33.0622 3.95776C33.2151 3.84349 33.0127 3.81266 32.9165 3.85252Z" fill="#ACA78F"/>
<path opacity="0.5" d="M23.8468 23.8484C22.1523 21.6377 21.0095 19.3933 20.1886 16.7634C19.4857 14.5129 19.2411 11.941 18.3311 9.7745C18.2762 9.64608 17.9891 9.80671 17.9541 9.88153C16.9513 11.9482 17.5274 14.8086 18.3518 16.882C19.3509 19.3925 21.3343 22.3501 23.549 23.9974C23.6201 24.0512 23.9118 23.9326 23.8468 23.8484Z" fill="#E0B860"/>
<path opacity="0.5" d="M13.6513 18.4034C13.2023 16.676 12.9539 14.7412 12.9675 12.9636C12.9783 11.6167 12.8514 9.90858 13.1906 8.62162C13.224 8.49419 12.9009 8.63654 12.8658 8.69016C10.9354 11.5645 11.5808 15.6973 13.2951 18.5524C13.3644 18.664 13.6837 18.5247 13.6513 18.4034Z" fill="#ACA78F"/>
</svg>
