<svg width="72" height="18" fill="none" xmlns="http://www.w3.org/2000/svg"><path fill-rule="evenodd" clip-rule="evenodd" d="M47.181 0 7.22.202l27.294 2.761 35.567-1.32L47.181 0Z" fill="#C38764"/><path fill-rule="evenodd" clip-rule="evenodd" d="m21.53 12.592 39.23-.368a2.872 2.872 0 0 1-.245 2.704L20.305 18l1.226-5.408Z" fill="#AE3664"/><path fill-rule="evenodd" clip-rule="evenodd" d="m1.67 7.883 18.627 4.414a2.703 2.703 0 0 1 1.614 3.772c-.3.78-.287 1.654-1.614 1.894l-18.505-5.98a4.183 4.183 0 0 0-.122-4.1" fill="#E6CA98"/><path fill-rule="evenodd" clip-rule="evenodd" d="m1.29 4.956 20.854 2.437c4.514 1.559 5.209 5.654 0 6.503L1.313 10.205c.736-1.965.954-3.791-.024-5.249Z" fill="#E2E2E2"/><path fill-rule="evenodd" clip-rule="evenodd" d="M62.575 7.292.748 4.672c.166.15 21.545 3.445 21.667 3.635a5.589 5.589 0 0 1 .01 5.266c-.076.113-16.728-2.72-21.105-3.365l.135-.4a5.77 5.77 0 0 0-.762.1c-.223.032-.474.06-.599.08-.166.053-.061.304-.064.306l22.029 4.05 40.617-.853c2.699-.95 2.16-5.858-.1-6.2" fill="#96963F"/><path fill-rule="evenodd" clip-rule="evenodd" d="M7.084.238 29.65 1.54c4.514 1.559 5.209 5.654 0 6.503L7.673 5.559a5.75 5.75 0 0 0-.589-5.32" fill="#E6CA98"/><path fill-rule="evenodd" clip-rule="evenodd" d="m70.082 1.438-40.431.102c1.72 1.559 1.012 5.654 0 6.503l40.532-.406c2.699-.95 2.16-5.857-.1-6.199" fill="#B90602"/></svg>