<svg width="23" height="56" viewBox="0 0 23 56" fill="none" xmlns="http://www.w3.org/2000/svg">
<path d="M22.0216 17.9246C21.8437 15.8144 21.056 11.6018 21.056 11.6018L20.2034 11.3496C15.1081 12.8742 3.20461 11.3496 3.20461 11.3496L2.35157 11.6018C2.35157 11.6018 1.56396 15.8144 1.38656 17.9246C1.20905 20.0352 1.14844 54.4624 1.14844 54.4624C1.14844 54.4624 7.94877 55.7895 10.9997 54.9108L11.7038 19.5273L12.408 54.9108C15.4594 55.7895 22.2595 54.4624 22.2595 54.4624C22.2595 54.4624 22.1988 20.0352 22.0216 17.9246Z" fill="#29527E"/>
<path d="M15.2176 55.2994C15.2174 55.2994 15.2174 55.2994 15.2169 55.2994C14.0388 55.2994 13.0871 55.1972 12.3885 54.9963C12.356 54.9869 12.3322 54.9553 12.3298 54.9179L11.7034 20.6791L11.0773 54.9179C11.0744 54.9553 11.0509 54.9869 11.0183 54.9963C10.3197 55.1972 9.36812 55.2994 8.19 55.2994C5.01722 55.2994 1.17325 54.5564 1.13445 54.5491C1.09722 54.5415 1.0696 54.5049 1.06983 54.4618C1.0704 54.368 1.13272 20.0067 1.30794 17.9166C1.48419 15.8256 2.26679 11.6263 2.27479 11.5841C2.28073 11.5516 2.30264 11.5256 2.33129 11.5172L3.18445 11.2649C3.19403 11.262 3.20373 11.2613 3.21343 11.2625C3.26605 11.2694 8.55675 11.9396 13.5313 11.9394C16.4487 11.9394 18.6865 11.7123 20.1825 11.2649C20.1955 11.2611 20.2096 11.2611 20.2223 11.2649L21.0754 11.5172C21.1041 11.5256 21.1261 11.5516 21.1319 11.5841C21.1401 11.6263 21.9228 15.8256 22.0989 17.9166C22.2745 20.0067 22.3364 54.368 22.3371 54.4618C22.3375 54.5049 22.3098 54.5415 22.2726 54.5491C22.2339 54.5564 18.3908 55.2994 15.2176 55.2994ZM12.4815 54.8416C13.1622 55.0288 14.0821 55.1238 15.2169 55.1238C15.2171 55.1238 15.2176 55.1238 15.2176 55.1238C18.1502 55.1241 21.6604 54.486 22.1802 54.3885C22.1741 53.4964 22.11 19.9165 21.9433 17.9331C21.7787 15.9792 21.0805 12.1678 20.9887 11.673L20.2029 11.4405C18.694 11.8883 16.4492 12.115 13.5313 12.115C8.67707 12.115 3.52312 11.4781 3.21012 11.4388L2.41782 11.673C2.32638 12.1678 1.62824 15.9794 1.46387 17.9331C1.29734 19.9165 1.23284 53.4964 1.22667 54.3885C1.74673 54.486 5.25751 55.1238 8.19 55.1238C9.32453 55.1238 10.2443 55.0288 10.9252 54.8416L11.6254 19.5208C11.6285 19.4751 11.6624 19.4398 11.7034 19.4398C11.7444 19.4398 11.7783 19.4751 11.7814 19.5208L12.4815 54.8416Z" fill="#182F49"/>
<path d="M17.3842 17.925C16.4758 18.1764 15.5783 18.5204 14.6792 18.816C14.2916 18.9434 13.9035 19.074 13.5203 19.2163C13.2206 19.3272 12.8183 19.4248 12.5657 19.6471C12.5563 19.6557 12.551 19.6802 12.5695 19.6769C12.6135 19.6733 12.6555 19.6622 12.6965 19.6439C12.6996 19.6426 12.7021 19.6353 12.6974 19.6364C12.6102 19.6546 12.6208 19.6502 12.7285 19.6237C12.8293 19.5968 12.9285 19.5693 13.0288 19.5388C13.2335 19.4761 13.4391 19.4169 13.6442 19.3539C14.0681 19.2236 14.4903 19.0892 14.914 18.9598C15.7429 18.7063 16.6189 18.4964 17.3848 18.047C17.4265 18.0228 17.4621 17.9032 17.3842 17.925Z" fill="#182F49"/>
<path d="M9.90464 19.4559C9.35946 19.1027 8.77092 18.8655 8.19195 18.5944C7.61401 18.3239 7.06941 17.9523 6.48269 17.7107C6.46773 17.7047 6.44833 17.7356 6.46477 17.7432C6.55506 17.7838 6.64614 17.82 6.73781 17.8554C6.65915 17.832 6.57983 17.8098 6.56407 17.8004C6.7039 17.8816 6.83951 17.9722 6.97593 18.061C7.271 18.2532 7.56618 18.4434 7.87301 18.6108C8.51693 18.9614 9.19156 19.2496 9.85738 19.5426C9.89666 19.5594 9.94642 19.483 9.90464 19.4559Z" fill="#182F49"/>
<path d="M21.0886 19.0228C20.7738 18.2314 20.6092 17.3405 20.4212 16.5083C20.2378 15.7001 20.1695 14.8689 19.994 14.0578C19.8495 13.3906 19.7044 12.7171 19.5708 12.0479C19.5673 12.032 19.5461 12.0471 19.5474 12.0592C19.5496 12.0755 19.5513 12.092 19.5536 12.1079C19.5545 12.1155 19.564 12.1093 19.5644 12.1041C19.5527 12.2071 19.6154 12.5595 19.6446 12.758C19.7053 13.1681 19.7564 13.58 19.8233 13.9891C19.9647 14.8488 20.0857 15.7282 20.2724 16.5785C20.4516 17.3936 20.6931 18.1933 20.9345 18.9904C21.1573 19.7255 21.7723 20.1463 22.1394 20.7831C22.1479 20.7982 22.17 20.778 22.1642 20.7644C21.9013 20.1294 21.3469 19.6716 21.0886 19.0228Z" fill="#182F49"/>
<path d="M2.30867 19.0228C2.62362 18.2314 2.78777 17.3405 2.97578 16.5083C3.15943 15.7001 3.22724 14.8689 3.40314 14.0578C3.54778 13.3906 3.69274 12.7171 3.82663 12.0479C3.82972 12.032 3.85095 12.0471 3.84957 12.0592C3.84741 12.0755 3.84546 12.092 3.84341 12.1079C3.84262 12.1155 3.83303 12.1093 3.83235 12.1041C3.84433 12.2071 3.78211 12.5595 3.75243 12.758C3.69149 13.1681 3.64058 13.58 3.57368 13.9891C3.43282 14.8488 3.31159 15.7282 3.12485 16.5785C2.94563 17.3936 2.70387 18.1933 2.46256 18.9904C2.23974 19.7255 1.6247 20.1463 1.25783 20.7831C1.24926 20.7982 1.22724 20.778 1.23283 20.7644C1.49547 20.1294 2.05037 19.6716 2.30867 19.0228Z" fill="#182F49"/>
<path opacity="0.3" d="M22.0211 17.9253C21.8432 15.8152 21.0556 11.6026 21.0556 11.6026L20.2029 11.3503C15.1076 12.875 3.20412 11.3503 3.20412 11.3503L2.35108 11.6026C2.35108 11.6026 2.34892 11.6147 2.34561 11.6326C2.49595 11.7906 2.6546 11.9399 2.80894 12.0889C2.96624 12.2402 3.16383 12.3471 3.29762 12.5278C3.37626 12.6336 3.32467 12.8474 3.29932 12.966C3.23209 13.2791 3.16759 13.5915 3.10447 13.9058C2.92697 14.7897 2.79102 15.6951 2.51991 16.5509C2.27164 17.3348 1.96503 18.0927 1.69576 18.8674C1.66996 18.9415 1.56322 18.9602 1.54507 18.8674C1.46197 18.446 1.43013 18.0206 1.41723 17.594C1.40559 17.7086 1.39464 17.8202 1.38607 17.9253C1.20856 20.0359 1.14795 54.4632 1.14795 54.4632C1.14795 54.4632 7.94828 55.7902 10.9993 54.9116L11.7033 19.5281L12.4075 54.9116C15.459 55.7902 22.259 54.4632 22.259 54.4632C22.259 54.4632 22.1983 20.0359 22.0211 17.9253ZM11.5054 18.8855C10.8331 18.92 9.33246 18.4689 9.11157 18.4296C8.4253 18.307 7.73345 18.2004 7.07402 17.964C7.06818 17.9644 7.06294 17.9655 7.05689 17.9662C7.0013 17.9715 6.9457 17.9745 6.88967 17.978C6.911 18 6.93224 18.0227 6.95415 18.044C7.77592 18.8517 8.78658 19.3955 9.67614 20.1001C9.84738 20.2359 10.0122 20.4522 9.91587 20.6984C9.74989 21.1216 9.56497 51.4722 9.54522 52.1328C9.53712 52.4161 9.51977 52.7586 9.2812 52.9287C8.9948 53.1331 8.6367 53.1644 8.30545 53.1795C7.86233 53.2 7.41795 53.2383 6.97458 53.24C5.78595 53.2458 4.56011 53.148 3.39556 52.8691C3.07787 52.7931 2.76864 52.695 2.45588 52.5974C2.32779 52.5575 1.87953 52.4336 1.7767 52.3278C1.54063 52.0848 1.59177 21.3665 1.68172 20.9931C1.78297 20.5732 2.02176 20.2414 2.2592 19.9067C2.58476 19.4487 2.92571 18.9541 3.06897 18.3818C3.21337 17.8062 3.31815 17.2215 3.43093 16.6378C3.54566 16.0472 3.69634 15.4651 3.83206 14.8797C3.9074 14.3579 3.98605 13.8376 4.11801 13.3297C4.12554 13.2659 4.13513 13.2023 4.14105 13.1381C4.14243 13.1263 4.14529 13.1158 4.1495 13.1066C4.16481 13.0085 4.18319 12.9109 4.20909 12.8152C4.22132 12.7705 4.26401 12.7396 4.30544 12.7539C6.41343 13.4735 8.56628 14.0883 10.7835 14.1089C11.9089 14.1194 13.0049 13.9758 14.108 13.7309C15.1264 13.5048 16.8705 12.9554 17.1866 13.4819C17.2043 13.5116 17.5029 14.5648 17.5169 15.606C17.5208 15.9128 12.2073 18.8494 11.5054 18.8855ZM18.588 52.9058C17.9381 53.172 13.8058 53.2274 13.7552 52.8984C13.5206 51.3841 13.0846 22.7904 13.1595 22.0039C13.1628 21.9682 13.6249 21.0621 13.6492 21.0394C15.7493 19.0999 18.5715 17.2808 18.5592 17.3676C18.469 18.0135 18.2177 18.6655 17.9419 19.2405C17.8117 19.5116 17.6664 19.7876 17.5773 20.0806C17.509 20.3066 17.4294 20.5389 17.7705 20.6497C17.8976 20.6913 18.0219 20.7379 18.1468 20.788C18.3542 20.8716 18.5631 20.9612 18.6322 21.2203C18.7686 21.7352 18.7606 22.3078 18.8117 22.8391C18.9247 24.0098 19.0898 50.2084 19.2102 51.377C19.2804 52.0616 19.2247 52.6439 18.588 52.9058Z" fill="#214265"/>
<path opacity="0.6" d="M1.98687 19.8318C2.51207 19.1538 2.7721 18.3536 2.88854 17.4721C3.01375 16.5256 3.44615 14.7866 3.57387 13.8402C3.66028 13.2023 3.07903 14.3788 2.90817 15.2445C2.73157 16.1373 2.6237 17.0901 2.35431 17.9547C2.15237 18.6023 1.83048 19.3087 1.34431 19.7458C1.32856 19.7603 1.31282 19.7714 1.29706 19.782C1.28896 20.0433 1.28096 20.3199 1.27344 20.6084C1.5241 20.3628 1.76953 20.1123 1.98687 19.8318Z" fill="#214265"/>
<path opacity="0.3" d="M22.0211 17.9253C21.8432 15.8152 21.0556 11.6026 21.0556 11.6026L20.2029 11.3503C15.1076 12.875 3.20412 11.3503 3.20412 11.3503L2.48454 11.5632C3.39395 12.088 4.45942 12.1913 5.44749 12.4607C6.94971 12.8705 8.43375 12.9425 9.9734 12.9176C11.5177 12.8925 13.0611 12.8243 14.6035 12.7445C16.084 12.6675 17.5761 12.5196 19.0569 12.5167C19.0939 12.5162 19.1221 12.5458 19.131 12.5834C19.1549 12.5895 19.1828 12.6039 19.1848 12.6396C19.2655 14.2356 20.1136 17.9206 20.0642 18.4672C20.0221 18.9346 19.6032 19.2707 19.4318 19.6739C19.2745 20.0428 20.409 20.1899 20.5847 20.3533C20.9083 20.6531 20.8 21.172 20.8287 21.5872C20.8841 22.39 21.215 51.9716 21.002 52.2159C20.7894 52.4608 20.4806 52.5744 20.1955 52.6711C19.267 52.9864 18.3581 53.2721 17.3886 53.3856C16.4778 53.4921 15.5612 53.4938 14.6476 53.5448C14.2172 53.5687 13.2561 53.6803 13.0227 53.1081C12.8527 52.6903 12.4354 21.6973 12.4966 21.1309C12.5323 20.798 12.6718 20.5588 12.9207 20.3704C13.3595 20.0376 13.8197 19.7441 14.2953 19.484C15.2967 18.937 16.3389 18.4939 17.35 17.9707C17.4088 17.9407 17.4617 17.9922 17.4683 18.046C17.5743 17.9733 17.6764 17.9042 17.7701 17.8422C15.9588 18.306 14.1747 18.9879 12.3162 19.1625C11.3578 19.2524 10.2435 19.3648 9.24673 19.1218C9.25425 19.1255 9.26167 19.1292 9.26944 19.133C9.85821 19.4402 10.5369 19.8614 10.5829 20.6813C10.6184 21.323 10.4084 52.5937 10.274 52.9656C10.0922 53.4699 9.34056 53.5687 8.9399 53.6236C8.3018 53.7112 7.66166 53.7043 7.0199 53.703C5.9146 53.7006 4.79868 53.655 3.70888 53.4312C3.13495 53.3133 2.57243 53.152 2.02371 52.9287C1.79096 52.8344 1.57671 52.7375 1.45342 52.4839C1.24875 52.0643 1.26404 26.3826 1.21678 25.9161C1.20618 25.8099 1.19578 25.7034 1.18517 25.5971C1.15903 27.7198 1.14795 54.4632 1.14795 54.4632C1.14795 54.4632 7.94828 55.7902 10.9993 54.9116L11.7033 19.5281L12.4075 54.9116C15.459 55.7902 22.259 54.4632 22.259 54.4632C22.259 54.4632 22.1983 20.0359 22.0211 17.9253ZM21.6273 19.4158C21.6149 19.5 21.5194 19.4896 21.4842 19.4367C21.1987 19.0077 21.0881 18.4276 20.9012 17.9409C20.7006 17.4188 20.5315 16.8614 20.4595 16.2966C20.3567 15.4858 20.169 14.695 20.046 13.8916C19.9097 13.4608 19.5877 12.5911 19.9259 12.3682C20.5333 11.9689 20.7269 12.5749 20.8339 13.151C21.0184 14.146 21.2291 15.1454 21.3641 16.1503C21.5046 17.1922 21.7784 18.363 21.6273 19.4158Z" fill="#214265"/>
<path d="M2.3501 10.1907V11.6025C2.3501 12.1036 6.54668 12.5097 11.7235 12.5097C16.8999 12.5097 21.0965 12.1036 21.0965 11.6025V10.1907H2.3501Z" fill="#29527E"/>
<path d="M11.723 12.5977C9.21689 12.5977 6.86086 12.5033 5.08834 12.3316C2.27148 12.059 2.27148 11.7274 2.27148 11.6027V10.1909C2.27148 10.1424 2.30653 10.1033 2.34967 10.1033H21.096C21.1392 10.1033 21.1742 10.1424 21.1742 10.1909V11.6027C21.1742 11.7274 21.1742 12.059 18.3571 12.3316C16.585 12.5033 14.2288 12.5977 11.723 12.5977ZM2.42788 10.2787V11.6027C2.50584 11.9368 5.86113 12.4221 11.723 12.4221C17.5848 12.4221 20.9399 11.9368 21.0181 11.6013L21.0179 10.2787H2.42788Z" fill="#182F49"/>
<path opacity="0.3" d="M2.3501 10.1904V10.2258C3.03683 10.7814 3.91303 10.9606 4.73388 11.1295C4.89233 11.1622 5.76396 11.2676 5.48042 11.6904C5.29173 11.9709 3.03568 11.8011 2.41745 11.7096C2.96651 12.16 6.92212 12.5095 11.7235 12.5095C16.8999 12.5095 21.0965 12.1033 21.0965 11.6022V10.1904H2.3501ZM9.65553 12.212C9.14266 12.2188 7.13831 12.1106 7.03375 12.0749C6.69998 11.9607 6.76505 11.3161 7.14871 11.3446C8.02606 11.4099 8.90477 11.417 9.78486 11.4295C10.0112 11.4019 9.90506 12.2089 9.65553 12.212ZM16.4507 11.9312C16.157 12.0799 12.7742 12.294 12.42 12.1628C12.2214 12.0888 12.1852 11.8202 12.2678 11.634C12.3571 11.4324 15.1077 11.4844 16.2225 11.3198C16.6722 11.2435 16.6808 11.8147 16.4507 11.9312ZM19.2645 11.8296C19.0416 11.8991 18.1762 11.9603 17.9748 11.9147C17.7968 11.8743 17.6964 11.7604 17.7275 11.4482C17.7664 11.0532 19.4004 10.9833 19.4697 11.1444C19.5887 11.422 19.5436 11.7424 19.2645 11.8296Z" fill="#214265"/>
<path d="M17.6083 10.8966C19.7351 10.7302 21.0965 10.4759 21.0965 10.1905C21.0965 9.68947 16.8999 9.2832 11.7235 9.2832C6.54668 9.2832 2.3501 9.68947 2.3501 10.1905C2.3501 10.4759 3.71168 10.7302 5.83862 10.8966C7.4471 10.7706 9.49356 10.6952 11.7235 10.6952C13.9523 10.6952 15.9995 10.7706 17.6083 10.8966Z" fill="#214265"/>
<path d="M17.6079 10.9845C17.6061 10.9845 17.6041 10.9845 17.6021 10.9844C15.9454 10.8545 13.8576 10.7829 11.723 10.7829C9.5881 10.7829 7.50032 10.8545 5.84343 10.9844C2.27148 10.7056 2.27148 10.3183 2.27148 10.1907C2.27148 10.0659 2.27148 9.73435 5.08834 9.46186C6.86096 9.29005 9.21712 9.19556 11.723 9.19556C14.2286 9.19556 16.5848 9.29005 18.3571 9.46186C21.1742 9.73435 21.1742 10.0659 21.1742 10.1907C21.1742 10.3183 21.1742 10.7056 17.6131 10.9844C17.6116 10.9845 17.6096 10.9845 17.6079 10.9845ZM11.723 9.37126C5.86136 9.37126 2.50607 9.85656 2.42763 10.1922C2.43119 10.204 2.54989 10.5514 5.84343 10.8092C7.49278 10.6792 9.58479 10.6076 11.723 10.6076C13.8589 10.6076 15.9484 10.6789 17.6079 10.8087C20.8961 10.551 21.0145 10.204 21.0181 10.1893C20.9394 9.85656 17.5844 9.37126 11.723 9.37126Z" fill="#14293F"/>
<path d="M17.6081 10.8965C15.9992 10.7706 13.9521 10.6953 11.7232 10.6953C9.49332 10.6953 7.44686 10.7706 5.83838 10.8965C7.44686 11.0221 9.49332 11.0974 11.7232 11.0974C13.9521 11.0974 15.9992 11.0221 17.6081 10.8965Z" fill="#14293F"/>
<path d="M11.7233 11.185C9.58687 11.185 7.49475 11.1136 5.83285 10.9839C5.79187 10.9807 5.76025 10.9425 5.76025 10.8964C5.76025 10.8501 5.79187 10.8121 5.83285 10.8088C7.49303 10.6789 9.58504 10.6074 11.7233 10.6074C13.8614 10.6074 15.9533 10.6789 17.6134 10.8088C17.6544 10.8121 17.6863 10.8501 17.6863 10.8964C17.6863 10.9425 17.6544 10.9807 17.6134 10.9839C15.9513 11.1136 13.8596 11.185 11.7233 11.185ZM7.1886 10.8961C8.56911 10.9698 10.1338 11.0096 11.7233 11.0096C13.3127 11.0096 14.8774 10.9698 16.2576 10.8961C14.8781 10.8225 13.3138 10.7826 11.7233 10.7826C10.1326 10.7826 8.56821 10.8225 7.1886 10.8961Z" fill="#14293F"/>
<path opacity="0.5" d="M16.7349 9.42383C16.9812 9.50836 17.2113 9.62748 17.3917 9.82082C17.4308 9.86308 17.4154 9.92665 17.3761 9.95884C16.8643 10.3734 16.0567 10.1666 15.469 10.1796C14.4372 10.2025 13.4055 10.1678 12.3738 10.1774C11.2596 10.1876 10.1462 10.2258 9.03284 10.2671C8.26268 10.2958 7.49675 10.3049 6.73149 10.4081C6.12787 10.4889 5.40394 10.6397 4.81081 10.4158C4.59793 10.3353 4.17774 10.0746 4.34783 9.74637C4.37157 9.70044 4.4017 9.65898 4.43469 9.62038C3.13203 9.77592 2.3501 9.97464 2.3501 10.1904C2.3501 10.4759 3.71168 10.7301 5.83862 10.8966C7.4471 10.7706 9.49356 10.6952 11.7235 10.6952C13.9523 10.6952 15.9995 10.7706 17.6083 10.8966C19.7351 10.7301 21.0965 10.4759 21.0965 10.1904C21.0965 9.86801 19.3555 9.58499 16.7349 9.42383Z" fill="#264C74"/>
<path d="M6.49614 12.7172L5.94971 12.6845L6.03542 10.8662L6.58185 10.8986L6.49614 12.7172Z" fill="#29527E"/>
<path d="M6.49658 12.805C6.4951 12.805 6.49372 12.805 6.49234 12.8048L5.94614 12.7722C5.90277 12.7696 5.86988 12.7282 5.87218 12.6798L5.9579 10.8615C5.95915 10.8384 5.9683 10.8164 5.98381 10.8009C5.99933 10.7856 6.01921 10.7757 6.04009 10.7786L6.58652 10.8111C6.62989 10.814 6.66243 10.8551 6.66027 10.9033L6.57454 12.7218C6.57339 12.745 6.56391 12.767 6.54862 12.7825C6.53423 12.797 6.51563 12.805 6.49658 12.805ZM6.0321 12.6016L6.42238 12.6249L6.50011 10.9818L6.11006 10.9584L6.0321 12.6016Z" fill="#182F49"/>
<path d="M16.9571 12.7174L17.5035 12.6847L17.4175 10.8665L16.8711 10.8989L16.9571 12.7174Z" fill="#29527E"/>
<path d="M16.957 12.8052C16.9156 12.8052 16.8814 12.7686 16.879 12.722L16.7931 10.9035C16.7919 10.8806 16.7991 10.8577 16.8128 10.8404C16.8268 10.8231 16.8463 10.8125 16.8668 10.8113L17.4135 10.7788C17.4346 10.7761 17.4544 10.7857 17.4698 10.8011C17.4853 10.8165 17.4946 10.8385 17.4957 10.8617L17.5814 12.68C17.5839 12.7284 17.5507 12.7698 17.5077 12.7724L16.9612 12.8049C16.9596 12.8052 16.9586 12.8052 16.957 12.8052ZM16.953 10.9819L17.031 12.6251L17.4212 12.6018L17.3437 10.9586L16.953 10.9819Z" fill="#182F49"/>
<path opacity="0.6" d="M11.7922 19.4867C11.7887 19.4645 11.7734 19.444 11.7519 19.444C11.6904 19.4452 11.6332 19.417 11.58 19.3793C11.522 19.2653 11.4598 19.1538 11.3935 19.0417C11.2351 18.775 11.2484 18.509 11.2227 18.1969C11.1718 17.5713 11.12 16.9418 11.1122 16.3126C11.1047 15.6916 11.0519 15.0655 11.0163 14.4457C10.9806 13.8222 10.9796 13.1735 10.8896 12.5545C10.9459 12.578 11.0212 12.5812 11.1308 12.555C11.1551 12.5491 11.2024 12.4811 11.1589 12.4683C11.0799 12.4442 10.9789 12.4222 10.9299 12.3383C10.8883 12.2662 10.8925 12.0386 10.8889 11.9484C10.8835 11.7782 10.8673 11.6092 10.8569 11.4396C10.855 11.4099 10.8797 11.0914 10.8823 11.1224C10.8825 11.126 10.8871 11.1227 10.8871 11.1207C10.8878 11.107 10.8892 11.0931 10.8911 11.0791C10.8925 11.0696 10.8821 11.074 10.8797 11.0787C10.7084 11.353 10.7229 11.7742 10.7354 12.0923C10.7443 12.3069 10.7585 12.4616 10.8468 12.5318C10.812 12.7838 10.8555 13.1381 10.8685 13.3857C10.8883 13.7569 10.8982 14.1278 10.9113 14.4993C10.9353 15.1607 11.0043 15.8206 11.0185 16.4824C11.0329 17.1714 11.1 17.8602 11.1563 18.5459C11.194 19.0042 11.4184 19.3631 11.6657 19.7227C11.6678 19.8436 11.6768 19.9599 11.7491 20.0613C11.7719 20.0934 11.8214 20.0424 11.8214 20.0137C11.8214 19.8384 11.8193 19.6591 11.7922 19.4867Z" fill="#214265"/>
<path d="M12.0174 11.9146C12.0174 12.2326 11.7878 12.4905 11.5049 12.4905C11.2219 12.4905 10.9927 12.2326 10.9927 11.9146C10.9927 11.5972 11.2219 11.3394 11.5049 11.3394C11.7878 11.3394 12.0174 11.5972 12.0174 11.9146Z" fill="#29527E"/>
<path d="M11.5049 12.5781C11.1792 12.5781 10.9146 12.2805 10.9146 11.9147C10.9146 11.549 11.1792 11.2517 11.5049 11.2517C11.8305 11.2517 12.0957 11.549 12.0957 11.9147C12.0957 12.2805 11.8305 12.5781 11.5049 12.5781ZM11.5049 11.4273C11.2657 11.4273 11.0709 11.646 11.0709 11.9147C11.0709 12.1836 11.2657 12.4027 11.5049 12.4027C11.7443 12.4027 11.9393 12.1836 11.9393 11.9147C11.9393 11.646 11.7443 11.4273 11.5049 11.4273Z" fill="#182F49"/>
<path d="M11.3946 11.1249C11.392 11.1238 11.388 11.13 11.3915 11.1313C11.3993 11.1358 11.4073 11.14 11.4149 11.1442C11.4175 11.1466 11.4222 11.1411 11.4195 11.1386C11.4075 11.128 11.4142 11.1327 11.3946 11.1249Z" fill="#070D14"/>
<path d="M0.986449 54.7753C0.95541 54.8557 6.91581 56.6685 11.0865 55.4332L11.1904 53.6964C11.1904 53.6964 4.84572 54.6562 1.02653 52.7576C1.02653 52.7576 1.01728 54.695 0.986449 54.7753Z" fill="#29527E"/>
<path d="M7.70721 55.9506C7.70721 55.9506 7.70721 55.9506 7.70709 55.9506C4.4317 55.9506 1.01727 54.9897 0.921267 54.8257C0.90688 54.8011 0.904041 54.7676 0.914422 54.7406C0.93177 54.6482 0.944781 53.4735 0.948317 52.7572C0.948317 52.7275 0.961798 52.6999 0.984058 52.6839C1.00597 52.668 1.03405 52.665 1.05801 52.6772C3.00962 53.6474 5.6418 53.8511 7.5062 53.8511C9.55653 53.8511 11.1638 53.6117 11.1795 53.6093C11.2017 53.6063 11.2262 53.6143 11.2435 53.6322C11.2608 53.6502 11.2697 53.676 11.2683 53.702L11.1645 55.439C11.1619 55.4768 11.1388 55.5085 11.1066 55.5181C10.1371 55.8053 8.99355 55.9506 7.70721 55.9506ZM1.06932 54.7255C1.47376 54.8976 4.57416 55.775 7.70709 55.775C7.70721 55.775 7.70721 55.775 7.70721 55.775C8.95635 55.775 10.0676 55.637 11.0123 55.3643L11.1058 53.797C10.7306 53.8477 9.28384 54.0267 7.5062 54.0267C5.66097 54.0267 3.06808 53.8277 1.10379 52.8908C1.09957 53.6309 1.09032 54.4573 1.06932 54.7255Z" fill="#182F49"/>
<path opacity="0.3" d="M1.02653 52.8071C1.02653 52.8071 1.01728 54.7445 0.986449 54.8251C0.95541 54.9057 6.91581 56.7184 11.0865 55.4831L11.1904 53.7461C11.1904 53.7461 4.84572 54.7061 1.02653 52.8071ZM8.14782 55.5776C7.60562 55.718 7.03305 55.6738 6.48456 55.6093C5.8637 55.5367 5.24353 55.4629 4.62176 55.3973C3.70583 55.3013 2.76296 55.1915 1.89486 54.8277C1.72648 54.757 1.35813 54.667 1.31143 54.4198C1.25116 54.1011 1.17491 53.2755 1.55446 53.4286C1.81574 53.5346 2.32325 53.6901 2.63419 53.8128C3.4338 54.1296 6.58273 54.3803 7.30323 54.3927C7.57833 54.3972 7.85527 54.4047 8.12944 54.383C8.24987 54.3734 8.38526 54.3499 8.50466 54.3803C8.70179 54.4309 8.82518 54.5903 8.81126 54.8292C8.78615 55.2513 8.49666 55.4866 8.14782 55.5776Z" fill="#214265"/>
<path d="M22.388 54.8251C22.4188 54.9057 16.4582 56.7184 12.288 55.4831L12.1841 53.7461C12.1841 53.7461 18.5287 54.7061 22.3479 52.8071C22.3479 52.8071 22.3572 54.7445 22.388 54.8251Z" fill="#29527E"/>
<path d="M15.6676 56.0008C14.3811 56.0008 13.2374 55.8553 12.2683 55.5682C12.236 55.5585 12.2125 55.5267 12.2106 55.4892L12.1067 53.7519C12.1048 53.7259 12.114 53.7004 12.131 53.6822C12.1483 53.6641 12.1724 53.6561 12.195 53.6593C12.211 53.6617 13.8182 53.9011 15.8687 53.9011C17.733 53.9011 20.3649 53.6975 22.3165 52.7274C22.3407 52.7151 22.3686 52.7178 22.3907 52.7338C22.4129 52.75 22.4264 52.7773 22.4267 52.8069C22.43 53.5237 22.4428 54.6983 22.463 54.7994C22.4734 54.8263 22.4681 54.8512 22.4535 54.8757C22.3573 55.0397 18.9424 56.0008 15.6676 56.0008ZM12.3625 55.4145C13.3067 55.687 14.4184 55.825 15.6676 55.825C18.8003 55.825 21.9012 54.9475 22.3052 54.7755C22.2842 54.5077 22.2749 53.6813 22.2708 52.9407C20.3068 53.8777 17.7135 54.0767 15.8687 54.0767C14.091 54.0767 12.644 53.8975 12.269 53.8467L12.3625 55.4145Z" fill="#182F49"/>
<path opacity="0.3" d="M22.3489 52.8071C18.5297 54.7061 12.1851 53.7461 12.1851 53.7461L12.2889 55.4831C16.4592 56.7184 22.4198 54.9057 22.389 54.8251C22.3582 54.7445 22.3489 52.8071 22.3489 52.8071ZM19.5482 55.0924C18.9785 55.3337 18.2207 55.4774 17.6245 55.4876C17.372 55.4916 15.0585 55.598 14.1651 55.4847C13.8406 55.4438 13.2654 55.4653 12.9978 55.1842C12.971 55.1662 12.9456 55.1462 12.9249 55.1213C12.8151 54.9897 12.7704 54.7592 12.8081 54.5643C12.7982 54.0171 14.9452 54.3612 15.9552 54.3209C18.621 54.2145 19.6957 53.7757 19.7269 54.2218C19.7568 54.6503 19.8917 54.9471 19.5482 55.0924Z" fill="#214265"/>
<g opacity="0.6">
<path opacity="0.7" d="M2.24235 14.1051C2.22432 14.1897 2.20685 14.2729 2.19111 14.3541C2.09522 14.8467 1.99693 15.3365 1.90789 15.8291C1.89385 16.0266 1.88576 16.2246 1.88232 16.4195C1.95104 16.2008 1.99247 15.9501 2.02569 15.8219C2.13358 15.4047 2.22706 14.9847 2.30582 14.5595C2.37431 14.1887 2.4363 13.8167 2.47556 13.4429C2.40238 13.6645 2.32009 13.8843 2.24235 14.1051Z" fill="#29527E"/>
<path opacity="0.7" d="M6.03383 16.404C5.67907 16.1684 5.34163 15.9037 4.99143 15.6612C4.84794 15.562 4.69362 15.4898 4.54785 15.4004C4.7855 15.8383 5.28457 16.0956 5.65783 16.3476C6.29764 16.78 6.95354 17.1816 7.62965 17.5391C7.64905 17.5495 7.67257 17.5419 7.69334 17.5261C7.15421 17.1274 6.59101 16.7731 6.03383 16.404Z" fill="#29527E"/>
<path opacity="0.7" d="M2.27171 24.5615C2.258 25.2974 2.22626 51.0684 2.23003 51.8043C2.26462 51.572 2.29693 26.3033 2.32683 26.0684C2.38356 25.2425 2.46085 24.4183 2.55102 23.596C2.5807 23.0662 2.59885 22.5383 2.60501 22.0155C2.49589 21.8229 2.3967 21.6256 2.34019 21.4317C2.2773 21.215 2.34476 21.0518 2.48584 20.8927C2.92839 20.3938 3.35555 19.8901 3.76991 19.3667C3.40954 19.7754 3.01332 20.1497 2.63607 20.533C2.46747 20.7043 1.87629 21.2274 2.11599 21.5948C2.55638 22.2689 2.28677 23.7487 2.27171 24.5615Z" fill="#29527E"/>
<path opacity="0.7" d="M13.9546 24.2354C13.9152 23.7265 13.8547 23.2237 13.785 22.7192C13.7497 22.467 13.7272 22.1751 13.6217 21.9385C13.5502 23.3773 13.701 50.0987 14.0818 51.466C14.0992 50.7359 14.0105 24.955 13.9546 24.2354Z" fill="#29527E"/>
<path opacity="0.7" d="M20.1663 13.2407C20.1639 13.2194 20.1374 13.2393 20.1382 13.2552C20.1794 14.2969 20.4276 15.3627 20.7134 16.3512C20.7277 16.401 20.7979 16.3385 20.7918 16.2995C20.6382 15.2684 20.2802 14.2808 20.1663 13.2407Z" fill="#29527E"/>
<path opacity="0.7" d="M2.86687 53.952C2.53083 53.8623 2.19442 53.7753 1.85791 53.6882C1.90243 53.7384 1.94901 53.7855 1.99809 53.8294C2.21919 53.952 2.48185 54.0193 2.69142 54.0806C3.15705 54.2165 3.63658 54.306 4.11452 54.3843C4.11875 54.3841 4.12297 54.3835 4.12743 54.3835C3.70507 54.2487 3.29528 54.0666 2.86687 53.952Z" fill="#29527E"/>
<path opacity="0.7" d="M15.4572 54.5141C15.7454 54.4703 16.0322 54.4175 16.3165 54.3476C15.366 54.3667 14.414 54.3978 13.4644 54.3281C13.5419 54.3847 13.6316 54.428 13.7286 54.4597C14.144 54.5173 14.5934 54.4824 14.9852 54.5046C15.1429 54.5131 15.2998 54.5148 15.4572 54.5141Z" fill="#29527E"/>
</g>
<path d="M10.5207 0.067627C10.0626 0.067627 9.66979 0.350308 9.50439 0.750619H9.80677C9.95163 0.504474 10.2158 0.337248 10.5207 0.337248C10.9791 0.337248 11.352 0.711448 11.352 1.17155V3.66609C11.352 3.74065 11.4122 3.8009 11.4864 3.8009C11.5607 3.8009 11.6207 3.74065 11.6207 3.66609V1.17155C11.6207 0.562892 11.1272 0.067627 10.5207 0.067627Z" fill="#8E8E8E"/>
<path opacity="0.5" d="M11.3525 3.22705V3.66602C11.3525 3.74052 11.4127 3.80072 11.4869 3.80072C11.5612 3.80072 11.6212 3.74052 11.6212 3.66602V3.22705H11.3525Z" fill="#8E8E8E"/>
<path opacity="0.5" d="M10.5202 0.067627C10.5012 0.067627 10.4836 0.0723196 10.4648 0.0732371C11.0453 0.102905 11.5095 0.581903 11.5095 1.17155V3.66609C11.5095 3.72072 11.477 3.76699 11.4305 3.7883C11.4476 3.79609 11.466 3.8009 11.4859 3.8009C11.5602 3.8009 11.6203 3.74065 11.6203 3.66609V1.17155C11.6203 0.562892 11.1268 0.067627 10.5202 0.067627Z" fill="#8E8E8E"/>
<path d="M10.5208 0.000488281C10.0254 0.000488281 9.60375 0.312946 9.43457 0.750829H9.50455C9.66995 0.350518 10.0627 0.0678367 10.5208 0.0678367C11.1274 0.0678367 11.6209 0.563102 11.6209 1.17176V3.6663C11.6209 3.74086 11.5608 3.80111 11.4865 3.80111C11.4123 3.80111 11.3522 3.74086 11.3522 3.6663V1.17176C11.3522 0.711658 10.9792 0.337458 10.5208 0.337458C10.2159 0.337458 9.95179 0.504684 9.80693 0.750829H9.88306C10.0199 0.542828 10.2543 0.404806 10.5208 0.404806C10.9421 0.404806 11.2851 0.748885 11.2851 1.17176V3.6663C11.2851 3.77786 11.3755 3.86857 11.4865 3.86857C11.5977 3.86857 11.6881 3.77786 11.6881 3.6663V1.17176C11.6881 0.525875 11.1644 0.000488281 10.5208 0.000488281Z" fill="#5E5E5E"/>
<path d="M22.0487 10.6727H0.981875C0.725956 10.6727 0.484302 10.5402 0.351317 10.3267L0.140945 9.98903C0.0331814 9.81585 0.00499947 9.6051 0.0637844 9.41072C0.123823 9.21189 0.26867 9.04787 0.461241 8.9607L10.2135 4.5497C10.9021 4.19693 11.2455 3.54875 11.2489 3.54233C11.2951 3.45334 11.3871 3.39722 11.4873 3.39722C11.4875 3.39722 11.4876 3.39722 11.4879 3.39722C11.5883 3.39744 11.6803 3.45345 11.7263 3.54291C11.7294 3.54875 12.0728 4.19681 12.773 4.55531L22.5381 8.9717C22.7239 9.05577 22.8667 9.21303 22.93 9.40317C22.9926 9.5917 22.9743 9.79179 22.8784 9.96635L22.6992 10.2927C22.5702 10.5271 22.321 10.6727 22.0487 10.6727ZM10.446 5.57379L0.682133 9.4523C0.630193 9.47567 0.593198 9.51656 0.578027 9.56707C0.564093 9.61312 0.570711 9.66145 0.596734 9.70314L0.807001 10.0409C0.842498 10.098 0.909626 10.1336 0.981875 10.1336H22.0487C22.1253 10.1336 22.1942 10.0949 22.2286 10.0324L22.4077 9.70623C22.4368 9.65332 22.4305 9.60498 22.4201 9.57371C22.404 9.52526 22.3675 9.48598 22.3173 9.4633L12.5405 5.5794C11.942 5.31642 11.0199 5.31963 10.446 5.57379Z" fill="#D39257"/>
<path d="M22.0486 10.7061H0.981786C0.714336 10.7061 0.461848 10.5675 0.322697 10.3443L0.11243 10.0066C-0.000576632 9.82521 -0.0300301 9.60426 0.0315069 9.40073C0.0944025 9.1925 0.245989 9.02092 0.447339 8.92974L10.1996 4.51874C10.8704 4.17513 11.2052 3.55261 11.2191 3.52627C11.2713 3.42582 11.3742 3.36328 11.4872 3.36328C11.6014 3.36351 11.7042 3.42651 11.756 3.5273C11.7593 3.53348 12.1004 4.17284 12.7881 4.52504L22.5519 8.94086C22.7461 9.02859 22.8955 9.19318 22.9618 9.39225C23.0273 9.58995 23.0081 9.79955 22.9077 9.98235L22.7285 10.3088C22.5936 10.5539 22.3332 10.7061 22.0486 10.7061ZM11.4877 3.43063C11.3993 3.43063 11.3194 3.47942 11.2786 3.55754C11.2641 3.58491 10.9196 4.22553 10.2286 4.57945L0.474963 8.99114C0.29131 9.07429 0.153187 9.23064 0.0957611 9.4202C0.0398325 9.6053 0.066656 9.80596 0.169386 9.97079L0.379653 10.3084C0.506594 10.5123 0.737397 10.6388 0.981786 10.6388H22.0486C22.3086 10.6388 22.5466 10.4997 22.6697 10.2761L22.8489 9.94971C22.9402 9.78363 22.9577 9.59315 22.898 9.41356C22.8378 9.23224 22.7014 9.08231 22.5244 9.00213L12.7591 4.58575C12.0482 4.22186 11.6998 3.56498 11.6964 3.55834C11.656 3.47977 11.5761 3.43097 11.4877 3.43063ZM22.0486 10.167H0.981786C0.897884 10.167 0.820044 10.1254 0.778381 10.0585L0.568236 9.72086C0.536953 9.67081 0.528958 9.61262 0.545749 9.55708C0.563899 9.49705 0.607495 9.44872 0.668336 9.42134L10.4329 5.54238C11.0219 5.2818 11.9535 5.28421 12.5539 5.54834L22.3295 9.43177C22.3898 9.45891 22.4328 9.50519 22.4519 9.56291C22.4643 9.60048 22.472 9.65867 22.4369 9.72224L22.2578 10.0484C22.2176 10.1215 22.1374 10.167 22.0486 10.167ZM11.4796 5.41536C11.1106 5.41536 10.744 5.47824 10.4594 5.60423C10.459 5.60457 10.4586 5.60469 10.4582 5.6048L0.694358 9.48331C0.652921 9.5021 0.622457 9.53554 0.610125 9.57655C0.599048 9.61331 0.604308 9.65168 0.625192 9.68501L0.835337 10.0227C0.864895 10.0701 0.920841 10.0995 0.981786 10.0995H22.0486C22.113 10.0995 22.1706 10.0675 22.199 10.0158L22.3783 9.6896C22.4014 9.64745 22.3964 9.60907 22.3882 9.58422C22.375 9.54459 22.3449 9.51263 22.3034 9.49385L12.5281 5.61041C12.2323 5.48053 11.8548 5.41536 11.4796 5.41536ZM10.4459 5.57342H10.4466H10.4459Z" fill="#935624"/>
<path opacity="0.6" d="M0.114316 9.59847C0.174128 9.40066 0.318295 9.23733 0.510065 9.15062L10.2185 4.75932C10.9039 4.40826 11.2458 3.76295 11.2492 3.75654C11.2952 3.668 11.3869 3.61211 11.4865 3.61211C11.4868 3.61211 11.4869 3.61211 11.4871 3.61211C11.5871 3.61233 11.6786 3.668 11.7244 3.75722C11.7274 3.76295 12.0694 4.40815 12.7665 4.76493L22.4877 9.16162C22.6725 9.24523 22.8147 9.40181 22.8777 9.59102C22.8915 9.6326 22.8998 9.67487 22.9058 9.71724C22.9195 9.61336 22.9118 9.50718 22.8777 9.40421C22.8147 9.21499 22.6725 9.05842 22.4877 8.97481L12.7665 4.57824C12.0694 4.22134 11.7274 3.57614 11.7244 3.57041C11.6786 3.4813 11.5871 3.42563 11.4871 3.42529C11.4869 3.42529 11.4868 3.42529 11.4865 3.42529C11.3869 3.42529 11.2952 3.48119 11.2492 3.56972C11.2458 3.57614 10.9039 4.22145 10.2185 4.57251L0.510065 8.96381C0.318295 9.05051 0.174128 9.21385 0.114316 9.41177C0.0842873 9.51096 0.0778951 9.61439 0.0924041 9.71495C0.0972985 9.6759 0.102785 9.63673 0.114316 9.59847Z" fill="#D39257"/>
<path opacity="0.7" d="M22.6344 9.46228C22.618 9.40581 22.5808 9.36023 22.5296 9.33388L12.5612 5.01589C11.951 4.71007 11.0109 4.71385 10.4256 5.00924L0.470453 9.32094C0.417486 9.3482 0.379811 9.39562 0.36417 9.45449C0.350009 9.5081 0.35675 9.56422 0.383347 9.61278L0.725902 10.2036C0.761748 10.27 0.829329 10.3114 0.902153 10.3114H22.1292C22.2064 10.3114 22.2758 10.2663 22.3105 10.1937L22.6218 9.61622C22.6515 9.55471 22.6451 9.49859 22.6344 9.46228ZM22.408 9.70613L22.2289 10.0323C22.1945 10.0948 22.1256 10.1335 22.049 10.1335H0.98217C0.909921 10.1335 0.842793 10.0979 0.807296 10.0408L0.597028 9.70304C0.571006 9.66135 0.564387 9.61301 0.578322 9.56697C0.593493 9.51646 0.630488 9.47557 0.682428 9.4522L10.4463 5.57358C11.0202 5.31953 11.9423 5.31632 12.5408 5.5793L22.3176 9.46319C22.3678 9.48588 22.4043 9.52516 22.4204 9.57361C22.4308 9.60488 22.4371 9.65322 22.408 9.70613Z" fill="#D39257"/>
<path opacity="0.7" d="M4.57303 10.6642C4.61105 10.5999 4.63707 10.5272 4.64359 10.4479L4.66813 10.1484H3.58941L3.58838 10.4023C3.58793 10.496 3.61441 10.5854 3.66143 10.6642H4.57303Z" fill="#D39257"/>
<path d="M3.96731 10.8819C3.70614 10.8605 3.51004 10.6284 3.53137 10.3664L3.71161 8.16426C3.73307 7.9022 3.96434 7.70542 4.22551 7.72695C4.48669 7.74837 4.68279 7.98043 4.66133 8.24249L4.4811 10.4446C4.45964 10.7067 4.22849 10.9035 3.96731 10.8819Z" fill="#D39257"/>
<path d="M4.00599 10.9174C3.99206 10.9174 3.97814 10.9168 3.96398 10.9157C3.68375 10.8924 3.47428 10.6449 3.49734 10.3637L3.67758 8.16158C3.70064 7.88027 3.94674 7.67055 4.22767 7.69335C4.5079 7.71649 4.71714 7.96412 4.69419 8.24531L4.51395 10.4475C4.49214 10.7145 4.26841 10.9174 4.00599 10.9174ZM3.96947 10.8485C4.21373 10.8664 4.42719 10.686 4.44706 10.442L4.6273 8.23981C4.64728 7.99561 4.46544 7.78063 4.22218 7.76047C3.98065 7.74191 3.76456 7.923 3.74446 8.16708L3.56423 10.3692C3.54425 10.6134 3.72609 10.8284 3.96947 10.8485Z" fill="#935624"/>
<path opacity="0.7" d="M4.22551 7.72695C4.02576 7.71046 3.84437 7.82213 3.76012 7.99269C3.84266 7.89876 3.96583 7.84241 4.09904 7.8534C4.32299 7.87184 4.49115 8.0708 4.47277 8.29541L4.3182 10.1832C4.29983 10.408 4.10167 10.5767 3.87771 10.5582C3.72121 10.5453 3.59359 10.4435 3.53629 10.307L3.53137 10.3664C3.51004 10.6284 3.70614 10.8605 3.96731 10.8819C4.22849 10.9035 4.45964 10.7067 4.4811 10.4446L4.66133 8.24249C4.68279 7.98043 4.48669 7.74849 4.22551 7.72695Z" fill="#D39257"/>
<path d="M3.96758 10.8822C3.70549 10.8811 3.49204 10.665 3.49317 10.4021L3.50264 8.19258C3.50379 7.92971 3.71908 7.71541 3.98116 7.71656C4.24325 7.7177 4.4566 7.93372 4.45557 8.1967L4.44609 10.4063C4.44495 10.6691 4.22956 10.8834 3.96758 10.8822Z" fill="#D39257"/>
<path d="M3.9689 10.9159C3.9681 10.9159 3.9674 10.9159 3.96684 10.9159C3.831 10.9153 3.70338 10.8614 3.60727 10.7641C3.51104 10.6667 3.45829 10.5381 3.45899 10.402L3.46847 8.19244C3.46902 8.05626 3.52269 7.92809 3.61983 7.83165C3.71629 7.73566 3.84356 7.68286 3.97825 7.68286C3.97905 7.68286 3.97985 7.68286 3.98053 7.68286C4.11637 7.68355 4.24399 7.73738 4.34023 7.83474C4.43634 7.9321 4.48906 8.06073 4.4885 8.1968L4.47903 10.4064C4.47765 10.6878 4.24901 10.9159 3.9689 10.9159ZM3.96707 10.8486C3.96775 10.8486 3.9682 10.8486 3.9689 10.8486C4.21214 10.8486 4.41077 10.6504 4.4119 10.4061L4.42127 8.19657C4.42183 8.07837 4.37618 7.96669 4.29262 7.88216C4.20905 7.79763 4.0981 7.75078 3.98031 7.75033C3.97973 7.75033 3.97905 7.75033 3.97825 7.75033C3.86136 7.75033 3.75086 7.79614 3.66708 7.87941C3.58283 7.96325 3.53615 8.07447 3.53558 8.19279L3.5261 10.4022C3.52565 10.5204 3.5713 10.6321 3.65487 10.7167C3.73842 10.8012 3.84925 10.848 3.96707 10.8486Z" fill="#935624"/>
<path opacity="0.7" d="M3.98116 7.71656C3.78072 7.71576 3.60858 7.84118 3.53769 8.01768C3.61269 7.91758 3.73118 7.85194 3.86497 7.85252C4.0895 7.85355 4.27258 8.03875 4.27155 8.26417L4.26516 9.78856H3.60938C3.60938 9.78856 3.57514 9.78845 3.57514 9.84984C3.57514 9.91123 3.60938 9.91502 3.60938 9.91502L4.26448 9.91753L4.26345 10.1584C4.26242 10.3837 4.07785 10.5674 3.85321 10.5664C3.69624 10.5657 3.5611 10.4741 3.49341 10.3426L3.49317 10.4021C3.49204 10.665 3.70549 10.8811 3.96758 10.8822C4.22956 10.8834 4.44495 10.6691 4.44609 10.4063L4.45557 8.1967C4.4567 7.93372 4.24314 7.7177 3.98116 7.71656Z" fill="#D39257"/>
<path opacity="0.5" d="M4.53034 8.70902C4.52395 8.70238 4.51515 8.69849 4.50602 8.69849H4.45248V8.76595H4.47053L4.41482 9.82612H3.6273C3.60882 9.82612 3.59375 9.84124 3.59375 9.85979C3.59375 9.87835 3.60882 9.89346 3.6273 9.89346H4.44666C4.46446 9.89346 4.4792 9.87938 4.48023 9.86151L4.53959 8.73399C4.53992 8.72472 4.53661 8.71578 4.53034 8.70902Z" fill="#618FC4"/>
<path d="M4.53034 8.70195C4.52395 8.69519 4.51515 8.69141 4.50602 8.69141H4.45248V8.75875H4.47053L4.41482 9.81893H3.6273C3.60882 9.81893 3.59375 9.83404 3.59375 9.8526C3.59375 9.87115 3.60882 9.88628 3.6273 9.88628H4.44666C4.46446 9.88628 4.4792 9.8723 4.48023 9.85432L4.53959 8.7268C4.53992 8.71764 4.53661 8.70859 4.53034 8.70195Z" fill="#8E8E8E"/>
<g opacity="0.7">
<path d="M4.53048 8.70185C4.52775 8.69887 4.52341 8.69898 4.51986 8.69727C4.5202 8.69933 4.52226 8.70105 4.52214 8.70322L4.46279 9.83074C4.46177 9.84861 4.44703 9.8627 4.42923 9.8627H3.60986C3.60438 9.8627 3.60028 9.85926 3.5957 9.85686C3.59798 9.87301 3.61067 9.88618 3.62744 9.88618H4.44681C4.46461 9.88618 4.47934 9.87221 4.48037 9.85422L4.53973 8.7267C4.54006 8.71754 4.53675 8.70849 4.53048 8.70185Z" fill="#8E8E8E"/>
<path d="M4.45264 8.74524L4.45307 8.73535H4.45264V8.74524Z" fill="#8E8E8E"/>
</g>
<path opacity="0.7" d="M19.2615 10.6642C19.2995 10.5999 19.3256 10.5272 19.332 10.4479L19.3566 10.1484H18.2779L18.2769 10.4023C18.2764 10.496 18.3029 10.5854 18.3499 10.6642H19.2615Z" fill="#D39257"/>
<path d="M18.6557 10.8819C18.3946 10.8605 18.1984 10.6284 18.2199 10.3664L18.4001 8.16426C18.4216 7.9022 18.6528 7.70542 18.914 7.72695C19.1752 7.74837 19.3713 7.98043 19.3498 8.24249L19.1696 10.4446C19.1481 10.7067 18.917 10.9035 18.6557 10.8819Z" fill="#D39257"/>
<path d="M18.695 10.9174C18.681 10.9174 18.6671 10.9168 18.6529 10.9157C18.3727 10.8924 18.1632 10.6449 18.1863 10.3637L18.3665 8.16158C18.3896 7.88027 18.6357 7.67055 18.9166 7.69335C19.1969 7.71649 19.4061 7.96412 19.3832 8.24531L19.2029 10.4475C19.1811 10.7145 18.9574 10.9174 18.695 10.9174ZM18.6584 10.8485C18.9027 10.8664 19.1162 10.686 19.136 10.442L19.3163 8.23981C19.3362 7.99561 19.1544 7.78063 18.9111 7.76047C18.6696 7.74191 18.4535 7.923 18.4334 8.16708L18.2532 10.3692C18.2332 10.6134 18.4151 10.8284 18.6584 10.8485Z" fill="#935624"/>
<path opacity="0.7" d="M18.914 7.72695C18.7142 7.71046 18.5329 7.82213 18.4486 7.99269C18.5311 7.89876 18.6543 7.84241 18.7875 7.8534C19.0115 7.87184 19.1796 8.0708 19.1612 8.29541L19.0067 10.1832C18.9883 10.408 18.79 10.5767 18.5662 10.5582C18.4097 10.5453 18.2821 10.4435 18.2248 10.307L18.2199 10.3664C18.1985 10.6284 18.3946 10.8605 18.6557 10.8819C18.917 10.9035 19.1481 10.7067 19.1696 10.4446L19.3498 8.24249C19.3713 7.98043 19.1752 7.74849 18.914 7.72695Z" fill="#D39257"/>
<path d="M18.6555 10.8822C18.3935 10.8811 18.18 10.665 18.1812 10.4021L18.1906 8.19258C18.1918 7.92971 18.4071 7.71541 18.669 7.71656C18.9311 7.7177 19.1446 7.93372 19.1436 8.1967L19.1341 10.4063C19.1329 10.6691 18.9175 10.8834 18.6555 10.8822Z" fill="#D39257"/>
<path d="M18.6574 10.9159C18.6566 10.9159 18.6559 10.9159 18.6553 10.9159C18.5195 10.9153 18.3919 10.8614 18.2956 10.7641C18.1995 10.6667 18.1468 10.5381 18.1475 10.402L18.1568 8.19244C18.1575 8.05626 18.2112 7.92809 18.3083 7.83165C18.4047 7.73566 18.532 7.68286 18.6667 7.68286C18.6675 7.68286 18.6683 7.68286 18.669 7.68286C18.8048 7.68355 18.9325 7.73738 19.0287 7.83474C19.1248 7.9321 19.1775 8.06073 19.177 8.1968L19.1675 10.4064C19.1661 10.6878 18.9375 10.9159 18.6574 10.9159ZM18.6555 10.8486C18.6562 10.8486 18.6567 10.8486 18.6574 10.8486C18.9006 10.8486 19.0992 10.6504 19.1003 10.4061L19.1097 8.19657C19.1103 8.07837 19.0647 7.96669 18.9811 7.88216C18.8975 7.79763 18.7866 7.75078 18.6688 7.75033C18.6682 7.75033 18.6675 7.75033 18.6667 7.75033C18.5498 7.75033 18.4393 7.79614 18.3554 7.87941C18.2713 7.96325 18.2245 8.07447 18.2241 8.19279L18.2146 10.4022C18.2141 10.5204 18.2597 10.6321 18.3433 10.7167C18.4269 10.8012 18.5377 10.848 18.6555 10.8486Z" fill="#935624"/>
<path opacity="0.7" d="M18.669 7.71656C18.4687 7.71576 18.2966 7.84118 18.2257 8.01768C18.3007 7.91758 18.4192 7.85194 18.5528 7.85252C18.7775 7.85355 18.9606 8.03875 18.9595 8.26417L18.9531 9.78856H18.2974C18.2974 9.78856 18.2631 9.78845 18.2631 9.84984C18.2631 9.91123 18.2974 9.91502 18.2974 9.91502L18.9525 9.91753L18.9514 10.1584C18.9504 10.3837 18.7658 10.5674 18.5412 10.5664C18.3842 10.5657 18.2491 10.4741 18.1814 10.3426L18.1812 10.4021C18.18 10.665 18.3935 10.8811 18.6555 10.8822C18.9175 10.8834 19.1329 10.6691 19.1341 10.4063L19.1436 8.1967C19.1446 7.93372 18.9311 7.7177 18.669 7.71656Z" fill="#D39257"/>
<path opacity="0.5" d="M19.2193 8.70926C19.2129 8.70262 19.2041 8.69873 19.195 8.69873H19.1415V8.76619H19.1595L19.1037 9.82636H18.3163C18.2978 9.82636 18.2827 9.84148 18.2827 9.86003C18.2827 9.87859 18.2978 9.89371 18.3163 9.89371H19.1356C19.1534 9.89371 19.1682 9.87962 19.1692 9.86176L19.2286 8.73424C19.2289 8.72496 19.2256 8.71602 19.2193 8.70926Z" fill="#618FC4"/>
<path d="M19.2193 8.70195C19.2129 8.69519 19.2041 8.69141 19.195 8.69141H19.1415V8.75875H19.1595L19.1037 9.81893H18.3163C18.2978 9.81893 18.2827 9.83404 18.2827 9.8526C18.2827 9.87115 18.2978 9.88628 18.3163 9.88628H19.1356C19.1534 9.88628 19.1682 9.8723 19.1692 9.85432L19.2286 8.7268C19.2289 8.71764 19.2256 8.70859 19.2193 8.70195Z" fill="#8E8E8E"/>
<g opacity="0.7">
<path d="M19.2195 8.70185C19.2168 8.69887 19.2125 8.69898 19.2089 8.69727C19.2093 8.69933 19.2113 8.70105 19.2112 8.70322L19.1518 9.83074C19.1508 9.84861 19.1361 9.8627 19.1183 9.8627H18.2989C18.2933 9.8627 18.2893 9.85926 18.2847 9.85686C18.2871 9.87301 18.2997 9.88618 18.3165 9.88618H19.1359C19.1537 9.88618 19.1684 9.87221 19.1694 9.85422L19.2288 8.7267C19.2291 8.71754 19.2258 8.70849 19.2195 8.70185Z" fill="#8E8E8E"/>
<path d="M19.1416 8.74524L19.142 8.73535H19.1416V8.74524Z" fill="#8E8E8E"/>
</g>
</svg>
