<svg width="68" height="56" viewBox="0 0 68 56" fill="none" xmlns="http://www.w3.org/2000/svg">
<path d="M31.1074 0.204834C29.6271 0.204834 28.3883 1.23601 27.9961 2.63412H28.824C29.1839 1.6938 30.069 1.02357 31.1074 1.02357C32.4626 1.02357 33.5655 2.16085 33.5655 3.55822V11.1369C33.5655 11.3628 33.7434 11.546 33.9627 11.546C34.1823 11.546 34.3601 11.3628 34.3601 11.1369V3.55822C34.3601 1.70904 32.9012 0.204834 31.1074 0.204834Z" fill="#8E8E8E"/>
<g style="mix-blend-mode:multiply" opacity="0.5">
<path d="M33.5664 9.80273V11.1374C33.5664 11.3639 33.7442 11.5471 33.9635 11.5471C34.183 11.5471 34.3608 11.3639 34.3608 11.1374V9.80273H33.5664Z" fill="#8E8E8E"/>
</g>
<g style="mix-blend-mode:multiply" opacity="0.5">
<path d="M31.1072 0.204834C31.0511 0.204834 30.999 0.21906 30.9434 0.221803C32.6596 0.311673 34.0321 1.76695 34.0321 3.55846V11.1366C34.0321 11.3024 33.936 11.4434 33.7987 11.5078C33.8488 11.5316 33.9036 11.5463 33.9624 11.5463C34.1819 11.5463 34.3597 11.3631 34.3597 11.1366V3.55846C34.3597 1.70929 32.9008 0.204834 31.1072 0.204834Z" fill="#8E8E8E"/>
</g>
<path d="M31.1079 0.000488281C29.5168 0.000488281 28.1871 1.12228 27.7896 2.63472H27.9966C28.3888 1.23661 29.6276 0.205425 31.1079 0.205425C32.9016 0.205425 34.3606 1.70963 34.3606 3.55881V11.1375C34.3606 11.3634 34.1828 11.5466 33.9632 11.5466C33.7439 11.5466 33.5659 11.3634 33.5659 11.1375V3.55881C33.5659 2.16144 32.4631 1.02416 31.1079 1.02416C30.0695 1.02416 29.1843 1.6944 28.8245 2.63472H29.0357C29.3835 1.80897 30.1806 1.22885 31.1079 1.22885C32.3539 1.22885 33.3674 2.27426 33.3674 3.55881V11.1375C33.3674 11.4757 33.6347 11.7516 33.9632 11.7516C34.292 11.7516 34.559 11.4757 34.559 11.1375V3.55881C34.559 1.59655 33.0108 0.000488281 31.1079 0.000488281Z" fill="#5E5E5E"/>
<path d="M65.1857 32.4224H2.90106C2.14463 32.4224 1.43016 32.0195 1.03688 31.3707L0.415061 30.345C0.0962487 29.8191 0.0127589 29.1788 0.18661 28.5882C0.364154 27.9841 0.792391 27.4859 1.36189 27.2211L30.1944 13.8207C32.2305 12.7494 33.2457 10.7801 33.2558 10.7607C33.3926 10.4901 33.6644 10.3198 33.9606 10.3198C33.9613 10.3198 33.9615 10.3198 33.9625 10.3198C34.2591 10.3206 34.531 10.4906 34.6673 10.7626C34.6762 10.7801 35.6916 12.7489 37.7619 13.838L66.6327 27.2548C67.1816 27.5099 67.6041 27.9879 67.7909 28.5653C67.9762 29.1379 67.9221 29.746 67.6386 30.2762L67.1087 31.2676C66.7273 31.9798 65.9909 32.4224 65.1857 32.4224ZM30.8817 16.932L2.01504 28.7145C1.86143 28.7857 1.75208 28.9097 1.70708 29.0632C1.666 29.2033 1.68544 29.3498 1.76257 29.4769L2.38402 30.5026C2.48908 30.676 2.68739 30.7841 2.90106 30.7841H65.1857C65.4121 30.7841 65.6156 30.6665 65.7173 30.4771L66.2468 29.4858C66.333 29.3251 66.3143 29.1783 66.2836 29.0837C66.2359 28.9359 66.1281 28.8169 65.9795 28.748L37.0745 16.9492C35.3052 16.1502 32.5789 16.1599 30.8817 16.932Z" fill="#D39257"/>
<path d="M65.1872 32.524H2.90259C2.11203 32.524 1.36535 32.1032 0.95418 31.4247L0.332366 30.399C-0.00159332 29.8479 -0.0887773 29.1766 0.0930531 28.5581C0.279243 27.9258 0.72728 27.4043 1.32272 27.1275L30.1553 13.7272C32.1386 12.6833 33.1285 10.7922 33.1695 10.712C33.3239 10.407 33.628 10.217 33.9621 10.217C34.2998 10.2178 34.6037 10.409 34.7567 10.7153C34.7666 10.7342 35.775 12.6766 37.8082 13.7464L66.6749 27.1612C67.2495 27.4281 67.6908 27.9278 67.8867 28.5326C68.0808 29.1332 68.0242 29.77 67.7271 30.3254L67.1972 31.3166C66.7984 32.0615 66.0285 32.524 65.1872 32.524ZM33.9636 10.4217C33.7021 10.4217 33.4658 10.5698 33.3452 10.8074C33.3026 10.8905 32.2841 12.8365 30.241 13.9117L1.40414 27.314C0.861011 27.5666 0.45265 28.0419 0.283085 28.6172C0.117878 29.1796 0.197083 29.7894 0.500749 30.2902L1.12256 31.3159C1.4976 31.9352 2.17985 32.3193 2.90259 32.3193H65.1872C65.9559 32.3193 66.6594 31.8972 67.0233 31.2175L67.5533 30.226C67.8233 29.7213 67.8748 29.1427 67.6983 28.5973C67.5201 28.0466 67.1172 27.5911 66.5936 27.3474L37.7228 13.9309C35.6208 12.8253 34.5909 10.8296 34.5807 10.8096C34.4613 10.571 34.2251 10.4225 33.9636 10.4217ZM65.1872 30.886H2.90259C2.65471 30.886 2.42434 30.7597 2.30139 30.5565L1.67995 29.5306C1.58759 29.3788 1.56402 29.2021 1.61353 29.0333C1.66709 28.8509 1.79587 28.7041 1.97586 28.6207L30.845 16.8369C32.5865 16.0456 35.3407 16.0529 37.116 16.8549L66.0176 28.6524C66.1956 28.7348 66.3229 28.8756 66.3796 29.0508C66.4164 29.1652 66.4389 29.3419 66.3352 29.5351L65.8058 30.5261C65.6867 30.748 65.4496 30.886 65.1872 30.886ZM33.9399 16.451C32.8487 16.451 31.765 16.6423 30.9232 17.0249C30.922 17.0257 30.921 17.0262 30.9198 17.0267L2.05307 28.8092C1.93042 28.8663 1.84006 28.9677 1.80363 29.0925C1.77105 29.2041 1.78664 29.3206 1.84833 29.422L2.46963 30.4477C2.55696 30.5917 2.72254 30.6813 2.90259 30.6813H65.1872C65.3775 30.6813 65.5479 30.5837 65.6319 30.427L66.1615 29.436C66.2302 29.3079 66.2154 29.1911 66.1909 29.1155C66.1522 28.9952 66.0633 28.8981 65.9404 28.8411L37.0395 17.0436C36.1653 16.649 35.049 16.451 33.9399 16.451ZM30.8833 16.9316H30.8857H30.8833Z" fill="#935624"/>
<g style="mix-blend-mode:screen" opacity="0.6">
<path d="M0.338914 29.1594C0.515794 28.5583 0.942035 28.0623 1.50888 27.7987L30.2118 14.4588C32.2387 13.3922 33.2492 11.4317 33.2591 11.4122C33.3955 11.1431 33.6661 10.9734 33.9608 10.9734C33.9617 10.9734 33.9619 10.9734 33.9627 10.9734C34.2583 10.9741 34.5287 11.1434 34.6643 11.4142C34.6733 11.4317 35.6843 13.3917 37.7451 14.4758L66.4862 27.8322C67.0326 28.086 67.4532 28.5621 67.6391 29.1369C67.68 29.2633 67.7044 29.3916 67.7221 29.5201C67.7628 29.2048 67.7403 28.8823 67.6391 28.5693C67.4532 27.9944 67.0326 27.5187 66.4862 27.2648L37.7451 13.9084C35.6843 12.8241 34.6733 10.8643 34.6643 10.8466C34.5287 10.576 34.2583 10.4068 33.9627 10.406C33.9619 10.406 33.9617 10.406 33.9608 10.406C33.6661 10.406 33.3955 10.5757 33.2591 10.8446C33.2492 10.8643 32.2387 12.8246 30.2118 13.8912L1.50888 27.2313C0.942035 27.4949 0.515793 27.9909 0.338914 28.592C0.250104 28.8938 0.230968 29.2078 0.273969 29.5134C0.288377 29.3945 0.304631 29.2757 0.338914 29.1594Z" fill="#D39257"/>
</g>
<g style="mix-blend-mode:multiply" opacity="0.7">
<path d="M66.9168 28.7448C66.8681 28.5733 66.7579 28.4345 66.6066 28.3547L37.1349 15.2369C35.331 14.3081 32.5513 14.3193 30.8207 15.2169L1.38817 28.3157C1.23153 28.3983 1.12012 28.5426 1.07423 28.7211C1.03227 28.8838 1.05207 29.0546 1.13076 29.2021L2.14364 30.9966C2.24944 31.1986 2.44923 31.3241 2.66453 31.3241H65.423C65.6513 31.3241 65.8563 31.1876 65.9588 30.9669L66.879 29.2126C66.9669 29.0256 66.948 28.8551 66.9168 28.7448ZM66.2468 29.4854L65.7174 30.4767C65.6156 30.6661 65.4121 30.7837 65.1857 30.7837H2.90111C2.68743 30.7837 2.48913 30.6756 2.38406 30.5021L1.76262 29.4764C1.68548 29.3494 1.66605 29.2029 1.70713 29.0628C1.75213 28.9093 1.86148 28.7853 2.01508 28.7141L30.8818 16.9316C32.5789 16.1595 35.3052 16.1498 37.0746 16.9485L65.9795 28.7475C66.1282 28.8164 66.2359 28.9355 66.2836 29.0833C66.3144 29.1779 66.333 29.3247 66.2468 29.4854Z" fill="#D39257"/>
</g>
<path d="M23.3102 44.5266C24.02 42.6692 24.5926 40.6785 24.495 38.6853C24.4492 37.7477 24.1754 36.9237 23.6118 36.1876C23.9561 35.5683 24.2558 34.8983 24.5207 34.263C24.6846 33.8684 25.0245 33.2801 24.704 32.8612C24.0905 32.0589 22.6637 31.685 21.7803 31.3133C20.5548 30.7973 19.2711 30.3665 17.9333 30.3735C17.3992 30.3765 16.6084 30.2981 16.2907 30.84C16.1461 31.0869 16.1586 31.4788 16.1308 31.7524C16.0823 32.2286 16.0476 32.7052 16.0278 33.1834C16.0171 33.4368 16.0026 33.6912 15.9899 33.9463C14.0329 34.314 12.6122 36.5441 11.7457 38.2008C11.401 38.8603 11.1376 39.4806 10.5189 39.9204C10.0772 40.2344 9.6007 40.4955 9.1701 40.827C8.44522 41.3867 7.59768 42.2386 7.72344 43.2596C7.76681 43.6123 7.93571 43.8135 8.16468 43.9136C8.30713 43.9934 8.47137 44.0321 8.65261 44.0474C9.96429 44.1564 11.2055 43.1702 12.2269 42.4328C12.4157 42.2963 12.6092 42.1375 12.8095 41.9885C11.8619 43.9435 8.98169 50.028 8.94401 51.1895C8.92488 51.7808 8.84412 52.8242 9.43764 53.0946C11.4285 54.0019 14.2362 45.8581 15.1956 43.94C14.6498 46.0141 14.0678 48.1152 13.4805 50.177C13.2302 51.0559 12.059 54.5683 13.7686 55.1295C15.9452 55.8441 17.5132 46.107 17.8846 45.0503C17.8082 45.4405 16.5958 52.9208 16.72 53.9161C16.7833 54.4248 16.9964 55.2151 17.5808 55.3322C18.3489 55.4867 18.8554 54.8983 19.0922 54.1919C19.4491 53.1285 20.6088 45.7223 20.6731 45.3546C20.6707 45.5334 20.4654 51.2469 20.6058 51.979C20.7628 52.7988 21.2564 52.8484 21.8067 52.7543C22.9441 52.5596 23.2552 45.5403 23.3102 44.5266Z" fill="#FFD660"/>
<path d="M24.9143 33.0341C25.0227 33.4043 24.8402 33.8139 24.6934 34.1426C24.6678 34.2006 24.6434 34.2555 24.6218 34.3069C24.3051 35.0672 24.025 35.6643 23.744 36.1775C24.0531 36.5952 24.2744 37.0387 24.4184 37.5307C24.5226 37.8869 24.5852 38.2731 24.6049 38.6792C24.7114 40.8454 24.0289 42.953 23.4195 44.5505L23.4115 44.7048C23.1372 49.9865 22.6036 52.7321 21.8252 52.8654C21.3089 52.9537 20.6828 52.9472 20.4985 52.0002C20.4259 51.6222 20.4304 49.9548 20.5128 47.0377C20.13 49.3976 19.4565 53.4532 19.1964 54.2283C18.8928 55.1336 18.2811 55.5877 17.5602 55.4427C17.176 55.3658 16.885 55.0248 16.7187 54.4564C16.6712 54.2942 16.6341 54.1119 16.6115 53.93C16.5356 53.3229 16.9261 50.4907 17.2754 48.1798C16.6433 50.9061 15.6823 54.4245 14.4662 55.1421C14.2244 55.2849 13.9787 55.3166 13.7357 55.237C13.3012 55.0942 13.0062 54.7659 12.8584 54.261C12.5106 53.073 13.0745 51.1657 13.3152 50.3512L13.3756 50.1447C13.8768 48.3852 14.3236 46.7746 14.7308 45.26C14.6578 45.4329 14.5814 45.6149 14.5027 45.8029C13.3703 48.504 11.6588 52.586 10.1452 53.1971C9.88044 53.3042 9.62761 53.3042 9.39369 53.1973C9.16672 53.094 9.0055 52.8848 8.91499 52.5755C8.79788 52.1754 8.81665 51.6724 8.83032 51.3052L8.83468 51.1854C8.87273 50.0142 11.6605 44.1249 12.507 42.3619C12.434 42.4185 12.3619 42.4732 12.2903 42.5249L12.0683 42.6861C11.1031 43.389 9.90165 44.2642 8.64413 44.1599C8.43105 44.1416 8.2572 44.0935 8.11268 44.0124C7.83502 43.8918 7.65999 43.6387 7.61484 43.2732C7.5114 42.4323 8.01264 41.5786 9.1048 40.7359C9.35446 40.5436 9.62163 40.3732 9.88 40.2084C10.0715 40.0863 10.2697 39.9598 10.457 39.8265C10.979 39.4556 11.233 38.9588 11.5271 38.3839C11.5673 38.3056 11.6077 38.2262 11.6495 38.1466C12.9902 35.5827 14.377 34.1764 15.8853 33.8516L15.894 33.6863C15.9025 33.5166 15.9114 33.3471 15.9185 33.1781C15.938 32.7071 15.9726 32.2233 16.022 31.7398C16.0282 31.6804 16.0321 31.6153 16.0364 31.5471C16.0526 31.289 16.0711 30.9964 16.1971 30.7808C16.5114 30.2448 17.2239 30.2528 17.7447 30.2586C17.8101 30.2593 17.8731 30.2601 17.9331 30.2598C19.3582 30.2523 20.6987 30.7349 21.8224 31.2081C22.0109 31.287 22.224 31.3666 22.4489 31.4503C23.3113 31.7713 24.2894 32.1352 24.7905 32.7905C24.8467 32.8641 24.8884 32.946 24.9143 33.0341ZM23.5072 36.2197C23.4987 36.1905 23.5015 36.1583 23.5168 36.1306C23.8062 35.6107 24.0933 35.0028 24.4201 34.2178C24.4422 34.1646 24.4674 34.1077 24.4937 34.0483C24.6252 33.754 24.7884 33.3878 24.7041 33.0992C24.686 33.0376 24.6578 32.9824 24.6182 32.9308C24.1557 32.3259 23.1679 31.9585 22.3744 31.6629C22.1463 31.5786 21.9301 31.4979 21.7393 31.4176C20.6358 30.953 19.3209 30.479 17.9346 30.4862C17.8736 30.4865 17.8089 30.4857 17.7421 30.485C17.2488 30.4795 16.6345 30.4727 16.3851 30.8979C16.2865 31.0661 16.2701 31.3294 16.2554 31.5618C16.251 31.633 16.2466 31.7014 16.2404 31.7635C16.1918 32.2423 16.1572 32.7216 16.138 33.1876C16.1309 33.3576 16.1221 33.5278 16.1131 33.6986L16.0999 33.9514C16.0975 34.0039 16.06 34.0478 16.0098 34.057C14.5383 34.3336 13.175 35.7063 11.8427 38.2541C11.8014 38.3333 11.7611 38.4116 11.7215 38.4895C11.4266 39.0659 11.148 39.6103 10.5816 40.0129C10.39 40.1492 10.1895 40.2773 9.99541 40.4009C9.74124 40.5631 9.47829 40.7309 9.23624 40.9171C8.21213 41.7074 7.73986 42.4904 7.83265 43.2445C7.86701 43.5286 7.99032 43.7136 8.20777 43.8087C8.33463 43.8793 8.47996 43.9187 8.66179 43.934C9.8401 44.0318 10.9565 43.2188 11.9416 42.5012L12.1644 42.3394C12.2674 42.2653 12.3718 42.1839 12.4782 42.1013C12.5661 42.0329 12.6553 41.9635 12.7457 41.8963C12.7868 41.8656 12.8428 41.8681 12.8811 41.9018C12.9198 41.9353 12.9312 41.9917 12.9082 42.0386C11.4923 44.9594 9.08714 50.1742 9.05404 51.1926L9.04983 51.3137C9.03675 51.6652 9.01865 52.1462 9.12512 52.5101C9.19738 52.7568 9.31426 52.9138 9.48243 52.9904C9.66352 53.073 9.85421 53.0718 10.0653 52.9864C11.4934 52.4098 13.2511 48.2177 14.3011 45.713C14.623 44.9452 14.9015 44.2817 15.0983 43.8878C15.1241 43.8361 15.1833 43.8131 15.2357 43.8341C15.2881 43.8551 15.3169 43.9132 15.3017 43.9692C14.8006 45.874 14.2395 47.9149 13.5863 50.2087L13.5251 50.4173C13.2902 51.2119 12.74 53.0733 13.0684 54.1956C13.1959 54.6307 13.436 54.901 13.8024 55.0211C13.987 55.0817 14.1684 55.057 14.3573 54.9457C15.7527 54.1222 16.8824 48.9785 17.425 46.5065C17.5882 45.7627 17.7065 45.2253 17.7818 45.0111C17.8013 44.9554 17.8593 44.9247 17.9145 44.9407C17.9697 44.9567 18.0038 45.0136 17.9925 45.0722C17.8898 45.5964 16.7096 52.941 16.8293 53.901C16.8505 54.0713 16.8849 54.2405 16.929 54.391C17.0275 54.7275 17.2241 55.1446 17.6023 55.2205C18.4724 55.3955 18.8621 54.5331 18.9892 54.1544C19.2923 53.25 20.1847 47.6982 20.478 45.874C20.5254 45.5787 20.5561 45.386 20.5656 45.3338C20.5755 45.2759 20.6273 45.2357 20.6839 45.2415C20.7408 45.247 20.7839 45.2966 20.7835 45.3556C20.7832 45.3778 20.7798 45.4836 20.774 45.6541C20.6244 50.3427 20.659 51.6692 20.7139 51.9565C20.8478 52.6609 21.2226 52.739 21.7894 52.6419C22.0896 52.5908 22.8278 51.7131 23.1919 44.6928L23.2011 44.5198C23.2019 44.5076 23.2043 44.4956 23.2087 44.4844C23.8117 42.9063 24.4901 40.8212 24.3857 38.6905C24.3398 37.7444 24.0608 36.9561 23.526 36.2572C23.5173 36.2457 23.511 36.233 23.5072 36.2197Z" fill="#F47721"/>
<g style="mix-blend-mode:multiply">
<path d="M7.91011 43.3992C8.47334 43.7861 9.45866 43.2771 9.97977 43.0512C11.4515 42.4137 12.6916 41.3284 13.8731 40.2273C13.448 40.9472 13.0082 41.6509 12.4441 42.2682C12.3709 42.3246 12.298 42.3808 12.2264 42.4322C11.2051 43.1696 9.96381 44.1558 8.65214 44.0467C8.4709 44.0315 8.30665 43.9928 8.1642 43.9129C7.93524 43.8128 7.76633 43.6116 7.72296 43.2589C7.72193 43.2507 7.7223 43.2427 7.72119 43.2347C7.77424 43.2931 7.83601 43.348 7.91011 43.3992Z" fill="#FFD660"/>
</g>
<path d="M13.1392 42.136C12.0928 44.3296 11.2186 46.5899 10.2301 48.8141C9.66203 50.0924 8.89185 51.5399 9.2329 52.9437C8.86585 52.5484 8.92724 51.7004 8.94416 51.1889C8.97616 50.2084 11.0306 45.7255 12.2417 43.1739C12.5279 42.8172 12.834 42.4772 13.1392 42.136Z" fill="#FFD660"/>
<path d="M15.87 43.0911C15.6399 43.9755 15.3415 44.8387 15.1189 45.7273C14.7966 47.0136 14.4769 48.3006 14.1546 49.5869C13.8574 50.7726 13.5996 51.9555 13.4615 53.1734C13.3922 53.7898 13.3714 54.4068 13.4949 54.9994C12.1938 54.1619 13.244 51.0037 13.4795 50.1768C13.9552 48.5061 14.4268 46.8106 14.879 45.1237C15.1671 44.4243 15.5088 43.7528 15.87 43.0911Z" fill="#FFD660"/>
<path d="M18.1405 44.6833C18.1023 45.4859 17.9449 46.2689 17.8517 47.0687C17.7495 47.9464 17.6474 48.8235 17.545 49.7007C17.4341 50.6512 17.2597 51.5731 17.1162 52.5169C17.016 53.1779 16.8708 54.2892 17.1278 55.0475C16.8746 54.7415 16.7611 54.2627 16.7179 53.9153C16.6022 52.9867 17.6491 46.416 17.8525 45.221C17.9362 45.0356 18.0321 44.8558 18.1405 44.6833Z" fill="#FFD660"/>
<g style="mix-blend-mode:multiply">
<path d="M20.9295 44.6331C20.9842 46.6535 20.7521 48.6684 20.8363 50.6871C20.8649 51.369 20.967 52.0497 21.3115 52.6446C21.336 52.6865 21.365 52.736 21.3977 52.7874C21.0239 52.7724 20.7208 52.5887 20.6038 51.9789C20.4978 51.4265 20.5886 48.0409 20.6404 46.3332C20.7295 45.7656 20.7915 45.1895 20.9295 44.6331Z" fill="#FFD660"/>
</g>
<g style="mix-blend-mode:multiply">
<path d="M10.6642 51.6204C11.6262 50.1125 12.2758 48.3646 12.9656 46.7147C13.3546 45.7833 13.6862 44.7581 14.2439 43.9157C14.3463 43.7507 14.4603 43.5954 14.5865 43.4491C14.7355 43.198 14.9021 43.2587 15.086 43.6299C15.0904 43.8595 15.0705 44.0867 15.0044 44.3073C14.9881 44.3615 14.9685 44.4139 14.9508 44.4668C13.8214 47.0229 11.2794 53.9339 9.43726 53.0939C9.11896 52.9489 8.9955 52.5812 8.95117 52.1806C9.4414 52.7365 10.3028 52.1876 10.6642 51.6204Z" fill="#FFD660"/>
</g>
<g style="mix-blend-mode:multiply">
<path d="M17.2846 54.7211C17.5827 54.8224 17.9773 54.5139 18.1506 54.2972C18.5024 53.8561 18.6794 53.3407 18.7615 52.7783C19.1677 49.9888 19.2675 46.923 20.6363 44.415C20.6576 44.8846 20.6365 45.3526 20.5974 45.8196C20.323 47.5278 19.4033 53.2653 19.0922 54.1916C18.8554 54.8981 18.3489 55.4864 17.5807 55.3319C17.0998 55.2358 16.8708 54.6839 16.769 54.2076C16.8763 54.446 17.0386 54.6377 17.2846 54.7211Z" fill="#FFD660"/>
</g>
<g style="mix-blend-mode:multiply">
<path d="M16.1855 48.3332C16.5026 47.4133 16.8534 46.5084 17.2221 45.6088C17.3916 45.1954 17.5149 44.7541 17.7099 44.355C17.7745 44.7474 17.7813 45.1493 17.7502 45.5517C17.2166 47.8199 15.7426 55.7773 13.7676 55.1288C13.3378 54.988 13.09 54.6598 12.9644 54.2339C13.0337 54.3407 13.1113 54.4389 13.1995 54.5247C13.8946 55.1989 14.6639 53.9264 14.858 53.3947C15.454 51.7614 15.6176 49.9819 16.1855 48.3332Z" fill="#FFD660"/>
</g>
<g style="mix-blend-mode:multiply">
<path d="M21.9439 52.6943C22.4182 51.4317 22.4102 50.0546 22.4761 48.7026C22.5199 47.8112 22.4025 46.9276 22.4095 46.0374C22.4168 45.0617 22.6628 44.1798 22.8925 43.2437C23.2111 41.9462 23.2559 40.6696 22.6371 39.454C22.0877 38.3736 21.227 37.4795 20.2194 36.8437C17.9538 35.4139 14.8611 35.0352 13.0231 37.3904C12.0191 38.6772 11.4553 40.2545 9.97454 41.0843C9.13979 41.5528 8.30223 42.0296 7.74219 42.7365C7.89291 41.9474 8.57199 41.2879 9.16935 40.8267C9.59995 40.4951 10.0764 40.234 10.5182 39.92C11.1368 39.4802 11.4002 38.8599 11.745 38.2004C12.6114 36.5437 14.0321 34.3136 15.9891 33.9459C16.0018 33.6908 16.0164 33.4364 16.027 33.1831C16.0468 32.7048 16.0816 32.2283 16.13 31.752C16.1481 31.5768 16.1497 31.3528 16.1866 31.1494C16.1923 31.3099 16.1963 31.4702 16.2171 31.6227C16.2599 31.9459 16.3153 32.2655 16.3729 32.5862C16.4505 33.0138 16.4629 33.2547 16.9123 33.3323C17.6554 33.4609 18.4218 33.4055 19.1692 33.5727C19.8449 33.724 20.4969 33.9601 21.1716 34.1139C21.229 34.1274 21.2968 34.1022 21.3239 34.0457C21.7171 33.2297 22.0262 32.3795 22.2976 31.5149C23.1465 31.8321 24.1989 32.2021 24.7032 32.8608C25.0238 33.2797 24.6838 33.868 24.5199 34.2627C24.2551 34.8979 23.9554 35.5679 23.6111 36.1872C24.1747 36.9233 24.4485 37.7473 24.4943 38.6849C24.5918 40.6781 24.0193 42.6688 23.3094 44.5262C23.2569 45.4978 22.969 51.9834 21.9439 52.6943Z" fill="#FFD660"/>
</g>
<path d="M22.2214 35.8671C21.3985 35.3478 20.3855 35.0171 19.4645 34.728C18.5744 34.4482 17.3378 34.0279 16.405 34.1831C16.3738 34.1886 16.3628 34.117 16.3922 34.1067C17.3064 33.7932 18.5673 34.2131 19.4636 34.4569C20.3828 34.7066 21.4944 35.1539 22.2359 35.7807C22.2604 35.8014 22.2652 35.8943 22.2214 35.8671Z" fill="#FFD660"/>
<g style="mix-blend-mode:multiply">
<path d="M16.5065 33.5586C16.4354 33.1879 16.4533 32.7888 16.4682 32.4141C16.4873 31.9291 16.4623 31.4112 16.6357 30.9519C16.6637 30.878 16.7282 30.9501 16.7332 30.998C16.7815 31.4451 16.7394 31.9156 16.701 32.363C16.6671 32.7651 16.653 33.1802 16.5769 33.5771C16.5652 33.6403 16.5147 33.6013 16.5065 33.5586Z" fill="#FFD660"/>
</g>
<g style="mix-blend-mode:multiply">
<path d="M17.0919 33.6492C17.0576 33.7036 17.0262 33.5978 17.0281 33.5736C17.0796 33.0511 17.0019 32.5007 17.0256 31.974C17.0454 31.5457 17.0828 31.0914 17.1592 30.671C17.1867 30.5212 17.2988 30.6211 17.3209 30.7134C17.4485 31.2354 17.237 31.8889 17.2224 32.4176C17.2126 32.7596 17.2819 33.3527 17.0919 33.6492Z" fill="#FFD660"/>
</g>
<g style="mix-blend-mode:multiply">
<path d="M17.5195 33.5415C17.5252 33.0515 17.5362 32.5587 17.5727 32.0705C17.6057 31.6217 17.5582 31.0935 17.7291 30.6766C17.779 30.554 17.8656 30.7066 17.8675 30.7725C17.8942 31.6763 17.8186 32.713 17.5803 33.5834C17.5652 33.6391 17.5191 33.5694 17.5195 33.5415Z" fill="#FFD660"/>
</g>
<g style="mix-blend-mode:multiply">
<path d="M18.0329 33.678C18.0943 33.1176 18.1015 32.5504 18.1629 31.9883C18.2089 31.5714 18.1943 31.0605 18.3936 30.6855C18.4383 30.6009 18.5135 30.729 18.519 30.7712C18.5778 31.2147 18.456 31.7112 18.3967 32.152C18.3271 32.6765 18.2889 33.2454 18.1028 33.7424C18.0764 33.8125 18.0292 33.7132 18.0329 33.678Z" fill="#FFD660"/>
</g>
<g style="mix-blend-mode:multiply">
<path d="M18.6448 34.0299C18.7839 33.0164 18.7582 31.9116 19.1586 30.9565C19.2052 30.8445 19.286 30.9825 19.2869 31.0457C19.2944 31.5998 19.1095 32.1425 19.0198 32.6856C18.9427 33.1502 18.8682 33.6447 18.706 34.0873C18.6838 34.1484 18.6407 34.0623 18.6448 34.0299Z" fill="#FFD660"/>
</g>
<g style="mix-blend-mode:multiply">
<path d="M19.084 34.0065C19.099 33.4728 19.231 32.9389 19.312 32.4124C19.3869 31.9289 19.4355 31.4142 19.6446 30.9686C19.6862 30.8803 19.756 30.9851 19.7524 31.0435C19.6922 32.0472 19.3852 33.0674 19.157 34.0414C19.1401 34.1126 19.0825 34.0554 19.084 34.0065Z" fill="#FFD660"/>
</g>
<g style="mix-blend-mode:multiply">
<path d="M19.4907 34.1877C19.6277 33.2359 19.679 31.9848 20.2029 31.163C20.2438 31.0989 20.2947 31.2107 20.2928 31.2459C20.2402 32.2324 19.908 33.334 19.5614 34.2538C19.5347 34.3247 19.4851 34.2254 19.4907 34.1877Z" fill="#FFD660"/>
</g>
<g style="mix-blend-mode:multiply">
<path d="M19.9329 34.405C19.9024 34.4574 19.8709 34.3509 19.8779 34.3244C20.1538 33.3421 20.2985 32.1267 20.8311 31.2551C20.8725 31.1874 20.9174 31.3175 20.912 31.3504C20.7507 32.3457 20.4293 33.5309 19.9329 34.405Z" fill="#FFD660"/>
</g>
<g style="mix-blend-mode:multiply">
<path d="M20.3359 34.5486C20.4047 34.0609 20.5536 33.5721 20.7201 33.1121C20.8945 32.6303 20.9799 32.0422 21.2624 31.6159C21.3223 31.5255 21.3818 31.7002 21.3736 31.7474C21.2874 32.2297 21.1106 32.6932 20.9487 33.1525C20.7768 33.642 20.6344 34.1488 20.4076 34.6146C20.3742 34.6825 20.3306 34.5876 20.3359 34.5486Z" fill="#FFD660"/>
</g>
<g style="mix-blend-mode:multiply">
<path d="M20.7951 34.8302C20.8518 34.2455 21.0707 33.6774 21.2413 33.1193C21.3837 32.6515 21.5193 32.1537 21.7064 31.7037C21.7544 31.5884 21.8462 31.7014 21.8587 31.7751C21.926 32.1804 21.6687 32.6308 21.5416 33.0052C21.3276 33.6362 21.145 34.2867 20.8564 34.8871C20.8276 34.947 20.7917 34.8626 20.7951 34.8302Z" fill="#FFD660"/>
</g>
<g style="mix-blend-mode:multiply">
<path d="M21.3233 34.8892C21.2964 34.9259 21.2686 34.8497 21.28 34.8258C21.5037 34.3485 21.564 33.6992 21.7371 33.1873C21.8792 32.7689 21.8784 32.0582 22.2261 31.7485C22.2922 31.6893 22.328 31.8553 22.3225 31.8915C22.2464 32.399 22.09 32.9207 21.9211 33.4047C21.762 33.86 21.6056 34.506 21.3233 34.8892Z" fill="#FFD660"/>
</g>
<g style="mix-blend-mode:multiply">
<path d="M21.796 34.9969C21.7687 35.0353 21.7452 34.9554 21.753 34.9332C22.0702 34.0139 22.2263 33.0324 22.7124 32.1749C22.7671 32.0786 22.8325 32.2631 22.8247 32.3082C22.7437 32.8204 22.4742 33.2985 22.305 33.7862C22.1652 34.1856 22.0444 34.6527 21.796 34.9969Z" fill="#FFD660"/>
</g>
<g style="mix-blend-mode:multiply">
<path d="M22.2727 35.2783C22.2396 35.3302 22.2103 35.2244 22.2181 35.1979C22.4868 34.2769 22.7794 33.3038 23.2227 32.4539C23.2874 32.3298 23.3746 32.5011 23.3588 32.5804C23.2521 33.1209 22.9639 33.6121 22.7758 34.1278C22.6334 34.5177 22.4955 34.9266 22.2727 35.2783Z" fill="#FFD660"/>
</g>
<g style="mix-blend-mode:multiply">
<path d="M22.8266 35.3971C22.7961 35.445 22.7582 35.3471 22.772 35.3164C23.1545 34.4807 23.3673 33.5569 23.8007 32.7439C23.8694 32.6148 23.9818 32.8742 23.9459 32.958C23.6063 33.7558 23.2915 34.6697 22.8266 35.3971Z" fill="#FFD660"/>
</g>
<g style="mix-blend-mode:multiply">
<path d="M23.1878 36.0054C23.1519 36.0528 23.1219 35.9537 23.1333 35.9248C23.3374 35.3918 23.5369 34.8759 23.7676 34.3524C23.9388 33.9643 24.0998 33.3402 24.3964 33.0384C24.4641 32.9695 24.5247 33.0656 24.5358 33.1338C24.6014 33.5327 24.2037 34.0621 24.0446 34.4096C23.7991 34.9465 23.5425 35.5369 23.1878 36.0054Z" fill="#FFD660"/>
</g>
<path d="M31.2953 47.8652C31.6775 48.2846 32.0991 48.5534 32.7062 47.9997C33.2483 47.5052 36.4448 42.8336 36.5482 42.6893C36.3828 43.0223 32.9503 49.6365 32.6086 50.7056C32.3818 51.4155 32.4382 52.2001 33.1403 52.5573C33.6735 52.8291 34.3075 52.3341 34.6571 51.9694C35.3413 51.255 38.7758 44.5485 38.9448 44.191C38.6187 45.2632 34.1395 53.9866 36.2904 54.7791C37.9803 55.4014 39.1145 51.8758 39.4319 51.0206C40.1778 49.0137 40.9499 46.979 41.7355 44.9883C41.3709 47.1136 38.8148 55.3453 40.9315 55.868C41.5629 56.024 42.112 55.1438 42.4445 54.6618C43.0976 53.714 44.3851 47.0754 44.781 44.9279C44.8529 45.1718 44.913 45.4194 44.9831 45.6458C45.3616 46.8707 45.7691 48.4306 46.8761 49.1642C47.0292 49.2651 47.1825 49.3369 47.3427 49.3624C47.5834 49.4258 47.8361 49.3716 48.0785 49.118C48.7784 48.3849 48.6056 47.1772 48.3578 46.2796C48.2107 45.7464 47.9855 45.2414 47.8187 44.7155C47.5853 43.9786 47.7407 43.3214 47.8538 42.5812C48.1392 40.7213 48.3208 38.0606 46.9808 36.5442C47.1205 36.3338 47.2584 36.1224 47.3994 35.9142C47.6645 35.5218 47.9173 35.1206 48.1589 34.7115C48.2978 34.4769 48.5383 34.1723 48.568 33.8863C48.6341 33.2567 47.9591 32.8244 47.5362 32.4886C46.4762 31.6464 45.202 31.1871 43.9239 30.8312C43.0032 30.5746 41.6487 29.9802 40.6889 30.2346C40.1877 30.3674 40.1124 31.0471 40.0106 31.4637C39.8473 32.1347 39.692 32.8548 39.6014 33.5625C38.7199 33.7954 38.018 34.2794 37.4299 34.9968C36.1807 36.5205 35.4652 38.4615 34.9377 40.3823C34.385 41.2231 30.5048 46.9995 31.2953 47.8652Z" fill="#FFD660"/>
<path d="M48.3293 33.0153C48.5951 33.3061 48.7089 33.5952 48.6769 33.899C48.651 34.1488 48.4934 34.3935 48.3544 34.6089C48.3179 34.6658 48.283 34.7199 48.2527 34.7709C48.0056 35.1887 47.7487 35.5954 47.4893 35.9793C47.3954 36.1181 47.3027 36.2584 47.21 36.3986L47.1197 36.5354C48.1278 37.7373 48.4036 39.7226 47.9622 42.5992C47.9487 42.6896 47.9341 42.7789 47.9196 42.8673C47.816 43.5071 47.7264 44.06 47.923 44.6808C47.9935 44.9034 48.0765 45.1268 48.1566 45.3432C48.2656 45.6363 48.3779 45.9393 48.4631 46.2491C48.8367 47.6016 48.7336 48.5935 48.1566 49.1979C47.9087 49.4572 47.6179 49.5523 47.3156 49.4725C47.163 49.4487 46.9965 49.3786 46.8166 49.26C46.6326 49.1377 46.458 48.9872 46.2985 48.8127C45.6007 48.0494 45.2605 46.9323 44.9601 45.9471L44.8783 45.6807C44.8519 45.5946 44.8267 45.506 44.8018 45.4151C44.4386 47.3459 43.1935 53.7709 42.5338 54.7277L42.4667 54.8258C42.1093 55.35 41.569 56.1423 40.9061 55.9785C40.7313 55.9353 40.579 55.8437 40.4533 55.7064C39.36 54.5105 40.4618 49.934 41.1907 46.9059C41.2389 46.7062 41.2854 46.513 41.3295 46.329C40.7658 47.7795 40.1742 49.3402 39.5343 51.0618L39.4612 51.263C39.0435 52.4232 37.9337 55.505 36.2535 54.8862C36.1233 54.8383 36.0105 54.7629 35.9182 54.662C34.9563 53.6096 36.3862 49.8586 37.5923 47.0519C36.5087 49.112 35.1485 51.6179 34.735 52.0495C34.4551 52.3418 33.7339 52.9866 33.0916 52.6591C32.4391 52.3261 32.2191 51.563 32.5043 50.6706C32.7534 49.8908 34.6011 46.2479 35.6857 44.1293C34.0353 46.501 33.0589 47.8297 32.7788 48.0851C32.0856 48.7173 31.5806 48.3432 31.2179 47.9465C30.6739 47.3504 31.8646 44.8323 34.7544 40.459L34.8367 40.3344C35.2911 38.6836 35.9872 36.5816 37.3462 34.9244C37.9502 34.1873 38.6564 33.712 39.5021 33.4731C39.5808 32.8885 39.7091 32.2387 39.9042 31.4365C39.9173 31.382 39.9301 31.3231 39.9439 31.261C40.0359 30.8379 40.1621 30.2578 40.6615 30.1255C41.4454 29.9175 42.4369 30.2393 43.3116 30.5231C43.5399 30.5972 43.7561 30.6676 43.9527 30.7223C45.1245 31.0488 46.4747 31.5029 47.6032 32.3995C47.6499 32.4367 47.6998 32.4749 47.7516 32.5148C47.9404 32.6598 48.1545 32.8241 48.3293 33.0153ZM46.4583 48.6575C46.6057 48.8187 46.7662 48.9572 46.9352 49.0693C47.0887 49.1707 47.2274 49.2301 47.3596 49.2508C47.5985 49.3137 47.8048 49.2435 48.0003 49.0389C48.5174 48.4972 48.6023 47.5793 48.2523 46.311C48.1692 46.011 48.0589 45.7127 47.9518 45.4241C47.8704 45.2052 47.7864 44.9788 47.7143 44.7509C47.5008 44.0774 47.5993 43.4714 47.7032 42.8298C47.7174 42.7422 47.7318 42.6536 47.7453 42.564C48.184 39.7051 47.9072 37.7613 46.8994 36.6211C46.8652 36.5821 46.8616 36.524 46.8901 36.4805L47.0287 36.2713C47.1218 36.1301 47.2149 35.9893 47.3093 35.85C47.5661 35.4698 47.8206 35.0669 48.0654 34.653C48.0968 34.5999 48.1334 34.543 48.1717 34.4833C48.2968 34.2896 48.4385 34.0697 48.4586 33.8747C48.4832 33.6404 48.3886 33.4105 48.1695 33.1706C48.0077 32.9938 47.802 32.8358 47.6203 32.6963C47.5678 32.6556 47.5165 32.6169 47.469 32.5787C46.3713 31.7065 45.0466 31.2615 43.8953 30.9407C43.6961 30.8853 43.477 30.8144 43.2458 30.7393C42.441 30.4782 41.4394 30.1529 40.7163 30.3449C40.3468 30.4427 40.2419 30.924 40.1579 31.3107C40.1442 31.3746 40.1308 31.4355 40.1173 31.4916C39.9156 32.3196 39.7863 32.9826 39.71 33.5779C39.7043 33.6236 39.6718 33.6613 39.6285 33.6728C38.7961 33.8927 38.1044 34.3498 37.5137 35.0702C36.1772 36.7007 35.4911 38.7823 35.0432 40.4138C35.0398 40.4252 35.035 40.4365 35.0282 40.4465L34.936 40.5865C31.0947 46.3994 31.1661 47.5594 31.3751 47.7883C31.7685 48.2186 32.1147 48.3884 32.6333 47.9156C32.8459 47.7216 33.653 46.6882 36.2906 42.867C36.3871 42.7275 36.447 42.6404 36.4598 42.6226C36.4939 42.5752 36.5574 42.5627 36.6061 42.5937C36.6539 42.6249 36.6721 42.6891 36.6457 42.7417C36.6227 42.7881 36.5353 42.9584 36.4012 43.2192C35.5606 44.8548 33.0035 49.8314 32.7127 50.7415C32.5171 51.3541 32.5774 51.8948 32.8786 52.224C32.9628 52.3161 33.0672 52.3945 33.189 52.4562C33.7172 52.7257 34.3864 52.0912 34.5791 51.8903C35.2311 51.2096 38.6184 44.6238 38.8459 44.1418C38.8709 44.0887 38.9319 44.0642 38.9852 44.0862C39.0389 44.1081 39.0666 44.1688 39.0493 44.2254C38.9832 44.4426 38.7613 44.9434 38.454 45.6363C37.3422 48.1432 35.0294 53.3598 36.078 54.5068C36.1472 54.5824 36.2286 54.6366 36.3274 54.673C37.8032 55.2167 38.8963 52.1816 39.2554 51.1843L39.3294 50.9806C40.1647 48.7328 40.9184 46.7591 41.6338 44.9464C41.6549 44.8927 41.712 44.8642 41.766 44.8799C41.8197 44.8964 41.8536 44.9518 41.844 45.0085C41.7687 45.4458 41.5997 46.1478 41.4041 46.9603C40.7301 49.7598 39.6021 54.4449 40.6131 55.5512C40.7104 55.6575 40.8228 55.7254 40.9569 55.7586C41.4748 55.8864 41.9638 55.1695 42.2873 54.6952L42.355 54.5966C42.9288 53.7642 44.082 48.1143 44.6727 44.9072C44.6822 44.856 44.7245 44.8178 44.7749 44.8153C44.8257 44.8121 44.871 44.8455 44.8858 44.8952C44.9187 45.0073 44.9497 45.1196 44.9797 45.2307C45.0151 45.3612 45.0499 45.4895 45.0879 45.6118L45.1697 45.8792C45.4627 46.8417 45.7951 47.932 46.4583 48.6575Z" fill="#F47721"/>
<g style="mix-blend-mode:multiply">
<path d="M47.846 49.113C47.1708 49.0686 46.6871 48.0476 46.405 47.5427C45.6094 46.1156 45.2617 44.4776 44.9695 42.863C44.8843 43.7015 44.8199 44.5362 44.9058 45.3792C44.9306 45.4703 44.956 45.5597 44.9826 45.6461C45.361 46.8709 45.7685 48.4308 46.8756 49.1644C47.0286 49.2653 47.1819 49.3372 47.3422 49.3626C47.5828 49.426 47.8356 49.3719 48.0779 49.1183C48.0835 49.1125 48.0876 49.1063 48.0932 49.1C48.0169 49.1135 47.9351 49.1185 47.846 49.113Z" fill="#FFD660"/>
</g>
<path d="M44.4308 44.8406C43.9734 47.2389 43.3393 49.5833 42.8173 51.9697C42.5174 53.3416 42.2784 54.9741 41.1821 55.8775C41.7068 55.7924 42.1559 55.0795 42.4436 54.6626C42.9948 53.8628 43.9971 49.0132 44.5341 46.227C44.5162 45.7644 44.4729 45.3026 44.4308 44.8406Z" fill="#FFD660"/>
<path d="M41.6953 43.8918C41.3583 44.7386 41.0878 45.6122 40.7427 46.4579C40.2425 47.6818 39.7398 48.9054 39.2399 50.1296C38.7792 51.2584 38.2884 52.3604 37.6815 53.4153C37.3749 53.9488 37.0285 54.4525 36.5815 54.8466C38.109 54.9934 39.1304 51.826 39.4294 51.021C40.0337 49.3949 40.6562 47.752 41.2879 46.1277C41.4704 45.3913 41.5931 44.6439 41.6953 43.8918Z" fill="#FFD660"/>
<path d="M38.9529 43.738C38.5113 44.4003 38.1759 45.1212 37.7799 45.8156C37.3451 46.5772 36.9102 47.3391 36.4759 48.1006C36.005 48.9256 35.6016 49.7678 35.161 50.6078C34.8521 51.1964 34.3139 52.1709 33.6636 52.6128C34.0449 52.5286 34.4168 52.2186 34.6553 51.9695C35.2937 51.303 38.3251 45.423 38.8662 44.3459C38.9081 44.1457 38.9376 43.9432 38.9529 43.738Z" fill="#FFD660"/>
<g style="mix-blend-mode:multiply">
<path d="M36.7654 41.9553C35.534 43.5277 34.5337 45.2748 33.2796 46.8274C32.8556 47.3523 32.3741 47.8294 31.7504 48.087C31.7066 48.1055 31.6545 48.1264 31.5977 48.1471C31.9044 48.3686 32.253 48.412 32.7048 48.0004C33.1137 47.6272 35.0324 44.8784 35.9953 43.4878C36.2582 42.9805 36.5477 42.4833 36.7654 41.9553Z" fill="#FFD660"/>
</g>
<g style="mix-blend-mode:multiply">
<path d="M40.823 53.93C40.945 52.129 41.4561 50.3332 41.8779 48.5896C42.1156 47.6059 42.4548 46.5834 42.5066 45.5648C42.5224 45.3698 42.5233 45.1748 42.5091 44.9801C42.5379 44.6871 42.3701 44.6307 42.0057 44.8111C41.8672 44.9911 41.7493 45.1841 41.6721 45.401C41.653 45.4539 41.6377 45.5081 41.621 45.5612C41.016 48.3001 38.9733 55.385 40.9322 55.8685C41.2707 55.9524 41.5854 55.7372 41.8561 55.4457C41.1395 55.5815 40.7768 54.6067 40.823 53.93Z" fill="#FFD660"/>
</g>
<g style="mix-blend-mode:multiply">
<path d="M33.7331 52.2569C33.4363 52.151 33.3034 51.659 33.2934 51.3785C33.2733 50.8076 33.4353 50.2874 33.7009 49.7884C35.0182 47.3164 36.7418 44.8162 37.1279 41.9658C36.8347 42.3263 36.5759 42.7112 36.3328 43.1073C35.5467 44.6372 32.9041 49.7749 32.6068 50.706C32.38 51.4159 32.4363 52.2005 33.1385 52.5577C33.5772 52.7816 34.0841 52.4858 34.4446 52.171C34.219 52.2933 33.9779 52.3445 33.7331 52.2569Z" fill="#FFD660"/>
</g>
<g style="mix-blend-mode:multiply">
<path d="M38.362 47.864C38.6509 46.9339 38.9043 45.9954 39.1399 45.0498C39.2484 44.6152 39.4094 44.1866 39.4893 43.7476C39.2072 44.0194 38.9653 44.3349 38.7537 44.6741C37.8439 46.8119 34.3371 54.0608 36.2884 54.78C36.7136 54.9365 37.1033 54.8304 37.4537 54.5708C37.3363 54.6117 37.2166 54.6412 37.0961 54.6547C36.1468 54.7565 36.283 53.263 36.4414 52.7199C36.928 51.0482 37.8441 49.5302 38.362 47.864Z" fill="#FFD660"/>
</g>
<g style="mix-blend-mode:multiply">
<path d="M31.2201 47.7318C31.5855 46.4313 32.4018 45.3412 33.1444 44.2244C33.6337 43.4888 34.2467 42.8593 34.7645 42.1471C35.3328 41.3666 35.6555 40.5116 36.0235 39.6232C36.5331 38.3926 37.2481 37.3489 38.4545 36.7691C39.5268 36.2533 40.7375 36.0806 41.912 36.2052C44.5543 36.4845 47.2368 38.1163 47.3136 41.1376C47.3555 42.7894 46.8766 44.3952 47.5659 45.981C47.9545 46.8751 48.3401 47.778 48.3694 48.6909C48.7137 47.9687 48.5614 47.0199 48.3575 46.2798C48.2104 45.7466 47.9852 45.2416 47.8184 44.7157C47.585 43.9788 47.7404 43.3216 47.8535 42.5814C48.1389 40.7215 48.3205 38.0608 46.9805 36.5444C47.1202 36.334 47.2581 36.1226 47.3991 35.9144C47.6642 35.522 47.917 35.1208 48.1586 34.7117C48.2477 34.5614 48.3776 34.3824 48.468 34.1975C48.3687 34.3215 48.2716 34.4461 48.1654 34.5552C47.9414 34.7846 47.7094 35.0048 47.4748 35.2232C47.1618 35.5152 47.0102 35.6987 46.6069 35.4798C45.9402 35.1171 45.3636 34.5944 44.6711 34.2601C44.0447 33.9578 43.3872 33.7382 42.7605 33.4386C42.7068 33.4137 42.6676 33.3518 42.6795 33.2894C42.846 32.3942 43.1007 31.5251 43.3932 30.6681C42.5313 30.3895 41.4772 30.0253 40.6886 30.2348C40.1874 30.3676 40.1121 31.0473 40.0103 31.4639C39.847 32.1349 39.6917 32.855 39.6011 33.5627C38.7196 33.7956 38.0177 34.2796 37.4296 34.997C36.1804 36.5207 35.4649 38.4617 34.9374 40.3825C34.4077 41.1881 30.8228 46.5262 31.2201 47.7318Z" fill="#FFD660"/>
</g>
<g style="mix-blend-mode:multiply">
<path d="M40.897 34.1779C41.8564 34.2795 42.8568 34.65 43.7589 34.9952C44.6314 35.3302 45.8618 35.7688 46.5123 36.4752C46.5346 36.4989 46.585 36.4485 46.5672 36.4223C46.0249 35.6015 44.7762 35.1472 43.9194 34.7808C43.0412 34.4053 41.8939 34.0661 40.9361 34.1006C40.9046 34.1018 40.8461 34.1729 40.897 34.1779Z" fill="#FFD660"/>
</g>
<g style="mix-blend-mode:multiply">
<path d="M46.7985 35.9158C47.0732 35.6649 47.2933 35.3362 47.5021 35.0291C47.7717 34.6317 48.0964 34.2354 48.2286 33.7621C48.2496 33.6859 48.1562 33.7024 48.124 33.7374C47.8226 34.0629 47.5797 34.4633 47.3468 34.8427C47.1371 35.1846 46.9045 35.5229 46.7314 35.8861C46.7038 35.944 46.7668 35.9447 46.7985 35.9158Z" fill="#FFD660"/>
</g>
<g style="mix-blend-mode:multiply">
<path d="M46.279 35.6207C46.2744 35.6859 46.3618 35.6217 46.3744 35.6005C46.6407 35.1532 47.0264 34.7643 47.3167 34.3302C47.5532 33.9777 47.7904 33.5923 47.9766 33.2104C48.0432 33.0743 47.8956 33.0833 47.8234 33.1427C47.4147 33.4785 47.199 34.1307 46.9 34.5601C46.7063 34.8381 46.3027 35.2665 46.279 35.6207Z" fill="#FFD660"/>
</g>
<g style="mix-blend-mode:multiply">
<path d="M46.0025 35.2692C46.2861 34.8758 46.5669 34.4774 46.8255 34.066C47.063 33.6886 47.4114 33.2979 47.5206 32.8599C47.5528 32.7311 47.3947 32.7985 47.3542 32.8496C46.8013 33.5518 46.2517 34.4235 45.9292 35.2649C45.9086 35.3184 45.9863 35.2916 46.0025 35.2692Z" fill="#FFD660"/>
</g>
<g style="mix-blend-mode:multiply">
<path d="M45.5165 35.0558C45.7973 34.5715 46.1249 34.1162 46.4065 33.631C46.6149 33.2707 46.927 32.8734 46.9892 32.4503C47.003 32.3554 46.8679 32.4101 46.8384 32.4403C46.5309 32.756 46.3363 33.2273 46.1242 33.6145C45.8714 34.0758 45.5668 34.5521 45.4233 35.0633C45.4027 35.1362 45.499 35.0862 45.5165 35.0558Z" fill="#FFD660"/>
</g>
<g style="mix-blend-mode:multiply">
<path d="M44.8221 34.9535C45.3071 34.0611 45.9773 33.1977 46.22 32.1877C46.2486 32.0692 46.1034 32.1288 46.0658 32.1782C45.7337 32.6146 45.5618 33.1612 45.3138 33.65C45.102 34.0676 44.8703 34.5069 44.7393 34.9607C44.7212 35.0234 44.8066 34.9817 44.8221 34.9535Z" fill="#FFD660"/>
</g>
<g style="mix-blend-mode:multiply">
<path d="M44.4852 34.6594C44.7873 34.2256 44.9963 33.7189 45.241 33.2488C45.4655 32.818 45.7296 32.3774 45.8252 31.8929C45.8439 31.7963 45.7262 31.8367 45.6947 31.8852C45.1526 32.7209 44.7978 33.7244 44.4065 34.6422C44.3779 34.7091 44.4576 34.6989 44.4852 34.6594Z" fill="#FFD660"/>
</g>
<g style="mix-blend-mode:multiply">
<path d="M44.0573 34.5506C44.5082 33.7079 45.2028 32.6807 45.2693 31.6994C45.2747 31.6228 45.1684 31.68 45.1488 31.7094C44.6108 32.5269 44.2271 33.6103 43.9617 34.5583C43.9414 34.6315 44.0397 34.5838 44.0573 34.5506Z" fill="#FFD660"/>
</g>
<g style="mix-blend-mode:multiply">
<path d="M43.5766 34.4464C43.5691 34.5073 43.6578 34.4426 43.6674 34.4167C44.0255 33.4634 44.6254 32.4065 44.7143 31.3801C44.7213 31.3004 44.6092 31.3761 44.5939 31.4058C44.1371 32.2979 43.6952 33.4412 43.5766 34.4464Z" fill="#FFD660"/>
</g>
<g style="mix-blend-mode:multiply">
<path d="M43.1693 34.3075C43.4012 33.8774 43.5704 33.3954 43.7082 32.9254C43.853 32.4332 44.1312 31.9122 44.157 31.3967C44.1627 31.2874 44.0127 31.3887 43.9915 31.4319C43.7762 31.869 43.6443 32.3478 43.5029 32.8143C43.3518 33.3113 43.1671 33.8031 43.0736 34.3155C43.0603 34.3902 43.1504 34.3425 43.1693 34.3075Z" fill="#FFD660"/>
</g>
<g style="mix-blend-mode:multiply">
<path d="M42.6398 34.2459C42.9381 33.7455 43.0979 33.1566 43.2906 32.6062C43.4525 32.1449 43.6373 31.6646 43.7532 31.1898C43.7828 31.0683 43.6433 31.1005 43.5901 31.1517C43.2983 31.4315 43.238 31.9509 43.1184 32.3284C42.918 32.9634 42.6807 33.5952 42.5575 34.2527C42.5451 34.3181 42.6231 34.2739 42.6398 34.2459Z" fill="#FFD660"/>
</g>
<g style="mix-blend-mode:multiply">
<path d="M42.1875 33.9619C42.1875 34.0081 42.2541 33.9642 42.2594 33.9382C42.3621 33.419 42.6962 32.8651 42.8589 32.3496C42.9925 31.9282 43.4111 31.3636 43.3167 30.9001C43.299 30.8115 43.1726 30.921 43.1559 30.9535C42.9175 31.4045 42.7357 31.9173 42.5855 32.4075C42.4442 32.8693 42.1885 33.4806 42.1875 33.9619Z" fill="#FFD660"/>
</g>
<g style="mix-blend-mode:multiply">
<path d="M41.7466 33.7526C41.7459 33.8008 41.8115 33.7516 41.8183 33.7289C42.1068 32.7996 42.5601 31.9209 42.6775 30.9357C42.6908 30.8251 42.5303 30.9307 42.5095 30.9711C42.2732 31.4302 42.2061 31.9784 42.0545 32.4721C41.9303 32.8762 41.7522 33.3236 41.7466 33.7526Z" fill="#FFD660"/>
</g>
<g style="mix-blend-mode:multiply">
<path d="M41.2033 33.6788C41.1987 33.7399 41.2844 33.675 41.2936 33.6488C41.6214 32.7484 41.9608 31.7916 42.1083 30.8388C42.1298 30.6995 41.9599 30.7817 41.9257 30.8543C41.6923 31.3511 41.6328 31.9219 41.4793 32.4494C41.3636 32.8485 41.2329 33.2599 41.2033 33.6788Z" fill="#FFD660"/>
</g>
<g style="mix-blend-mode:multiply">
<path d="M40.691 33.4265C40.6874 33.4834 40.7753 33.4292 40.7821 33.3963C40.9692 32.4927 41.3437 31.6252 41.4772 30.7076C41.4984 30.5619 41.2563 30.6982 41.2353 30.7875C41.0363 31.634 40.7491 32.5571 40.691 33.4265Z" fill="#FFD660"/>
</g>
<g style="mix-blend-mode:multiply">
<path d="M40.0476 33.6851C40.0483 33.7453 40.1304 33.6854 40.1386 33.6552C40.2895 33.1038 40.434 32.5686 40.5587 32.0079C40.6509 31.5926 40.8894 30.9955 40.8313 30.5704C40.818 30.4725 40.7131 30.5117 40.664 30.5589C40.3773 30.835 40.3826 31.5042 40.3047 31.8804C40.1846 32.4605 40.0411 33.0905 40.0476 33.6851Z" fill="#FFD660"/>
</g>
<path opacity="0.7" d="M21.0505 32.3967C21.1628 32.2008 21.2398 31.9804 21.259 31.739L21.3316 30.8286H18.1423L18.1392 31.6002C18.1377 31.8853 18.2164 32.1571 18.3554 32.3967H21.0505Z" fill="#D39257"/>
<path d="M19.2583 33.059C18.4862 32.9936 17.9063 32.2887 17.9696 31.4926L18.5024 24.8028C18.5658 24.0066 19.2495 23.4087 20.0216 23.4741C20.794 23.5395 21.3738 24.2444 21.3103 25.0405L20.7775 31.7305C20.714 32.5266 20.0304 33.1244 19.2583 33.059Z" fill="#D39257"/>
<path d="M19.3721 33.1661C19.3312 33.1661 19.29 33.1644 19.2481 33.1609C18.4197 33.0905 17.8006 32.3382 17.8684 31.484L18.4015 24.7944C18.4696 23.9397 19.1973 23.3027 20.0277 23.3718C20.8562 23.4422 21.475 24.1946 21.407 25.0488L20.8741 31.7388C20.8097 32.5498 20.1485 33.1661 19.3721 33.1661ZM19.2643 32.957C19.9866 33.0114 20.6178 32.4635 20.6763 31.7221L21.2092 25.0321C21.2682 24.2902 20.7306 23.6369 20.0115 23.5758C19.2973 23.5194 18.6584 24.0693 18.5993 24.8111L18.0661 31.5007C18.0071 32.2428 18.5448 32.8958 19.2643 32.957Z" fill="#935624"/>
<g style="mix-blend-mode:multiply" opacity="0.7">
<path d="M20.0216 23.4741C19.4312 23.4242 18.8948 23.7634 18.6458 24.2814C18.89 23.9961 19.2541 23.8251 19.6481 23.8585C20.3099 23.9144 20.807 24.5187 20.7525 25.2015L20.2959 30.9365C20.2414 31.6189 19.6555 32.1314 18.9934 32.0755C18.5307 32.0363 18.1535 31.7268 17.984 31.3124L17.9696 31.4926C17.9063 32.2886 18.4862 32.9936 19.2583 33.059C20.0304 33.1244 20.714 32.5265 20.7775 31.7305L21.3103 25.0404C21.3738 24.2444 20.794 23.5395 20.0216 23.4741Z" fill="#D39257"/>
</g>
<path d="M19.2546 33.058C18.4799 33.0545 17.8487 32.398 17.8521 31.5995L17.8802 24.887C17.8833 24.0884 18.5201 23.4374 19.2948 23.4409C20.0696 23.4444 20.7007 24.1009 20.6973 24.8995L20.6692 31.612C20.6661 32.4107 20.0294 33.0615 19.2546 33.058Z" fill="#D39257"/>
<path d="M19.2617 33.1616C19.2593 33.1616 19.2573 33.1616 19.2554 33.1616C18.854 33.1596 18.4765 32.9959 18.1923 32.7001C17.9078 32.4045 17.7519 32.0136 17.7539 31.6002L17.7818 24.8877C17.7837 24.4739 17.9425 24.0847 18.2294 23.7917C18.5146 23.5001 18.8908 23.3398 19.289 23.3398C19.2915 23.3398 19.2939 23.3398 19.296 23.3398C19.6975 23.3418 20.0749 23.5053 20.3594 23.8011C20.6436 24.0967 20.7995 24.4873 20.7976 24.901L20.7695 31.6135C20.7656 32.4684 20.0897 33.1616 19.2617 33.1616ZM19.2562 32.9567C19.2581 32.9567 19.2598 32.9567 19.2617 32.9567C19.9807 32.9567 20.5678 32.3548 20.571 31.6125L20.5991 24.9002C20.6006 24.541 20.4656 24.2018 20.2185 23.9452C19.9715 23.6886 19.6438 23.546 19.2953 23.5445C19.2934 23.5445 19.2915 23.5445 19.289 23.5445C18.9435 23.5445 18.617 23.6836 18.369 23.9367C18.1199 24.1915 17.9819 24.5295 17.9805 24.8885L17.9524 31.601C17.9509 31.9602 18.0857 32.2992 18.333 32.556C18.5802 32.8129 18.9079 32.9552 19.2562 32.9567Z" fill="#935624"/>
<g style="mix-blend-mode:multiply" opacity="0.7">
<path d="M19.2953 23.4414C18.7029 23.4389 18.1937 23.8201 17.9841 24.3563C18.2063 24.0522 18.5564 23.8528 18.9517 23.8545C19.6158 23.8575 20.1569 24.4202 20.1541 25.1049L20.1349 29.7361H18.1961C18.1961 29.7361 18.095 29.7356 18.095 29.9223C18.095 30.109 18.1961 30.1202 18.1961 30.1202L20.133 30.128L20.13 30.8593C20.1272 31.5441 19.5815 32.102 18.9172 32.099C18.453 32.097 18.0535 31.8186 17.8533 31.4192L17.8526 31.6C17.8492 32.3985 18.4804 33.055 19.2551 33.0585C20.0299 33.062 20.6666 32.4112 20.6697 31.6125L20.6978 24.8999C20.7012 24.1012 20.0701 23.4449 19.2953 23.4414Z" fill="#D39257"/>
</g>
<path opacity="0.5" d="M20.9211 26.4577C20.9021 26.4373 20.876 26.4258 20.8489 26.4258H20.6908V26.6305H20.7443L20.5794 29.8511H18.2513C18.1966 29.8511 18.1519 29.897 18.1519 29.9534C18.1519 30.0098 18.1966 30.0557 18.2513 30.0557H20.6736C20.7264 30.0557 20.7697 30.0131 20.7731 29.9586L20.9484 26.5334C20.9496 26.5052 20.9397 26.478 20.9211 26.4577Z" fill="#618FC4"/>
<path d="M20.9211 26.4353C20.9021 26.4148 20.876 26.4033 20.8489 26.4033H20.6908V26.608H20.7443L20.5794 29.8286H18.2513C18.1966 29.8286 18.1519 29.8745 18.1519 29.9312C18.1519 29.9874 18.1966 30.0333 18.2513 30.0333H20.6736C20.7264 30.0333 20.7697 29.9906 20.7731 29.9362L20.9484 26.5109C20.9496 26.4827 20.9397 26.4557 20.9211 26.4353Z" fill="#8E8E8E"/>
<g opacity="0.7">
<path d="M20.9216 26.4351C20.9133 26.4264 20.9008 26.4266 20.8903 26.4214C20.8913 26.4276 20.8971 26.4326 20.8968 26.4394L20.7216 29.8646C20.7184 29.9191 20.6751 29.962 20.6223 29.962H18.1998C18.1834 29.962 18.1712 29.9513 18.1577 29.944C18.1647 29.9932 18.202 30.0331 18.2518 30.0331H20.6742C20.7269 30.0331 20.7703 29.9904 20.7736 29.936L20.9489 26.5108C20.9501 26.4826 20.9402 26.4556 20.9216 26.4351Z" fill="#8E8E8E"/>
<path d="M20.6904 26.5661L20.6919 26.5366H20.6904V26.5661Z" fill="#8E8E8E"/>
</g>
<path opacity="0.7" d="M45.6183 32.3967C45.7307 32.2008 45.8077 31.9804 45.8268 31.739L45.8995 30.8286H42.7104L42.707 31.6002C42.7058 31.8853 42.7843 32.1571 42.9232 32.3967H45.6183Z" fill="#D39257"/>
<path d="M43.8265 33.059C43.0544 32.9936 42.4743 32.2887 42.538 31.4926L43.0706 24.8028C43.134 24.0066 43.8177 23.4087 44.5898 23.4741C45.3622 23.5395 45.942 24.2444 45.8785 25.0405L45.3457 31.7305C45.2822 32.5266 44.5988 33.1244 43.8265 33.059Z" fill="#D39257"/>
<path d="M43.9427 33.1661C43.9015 33.1661 43.8604 33.1644 43.8185 33.1609C42.99 33.0905 42.3709 32.3382 42.4387 31.484L42.9715 24.7944C43.0399 23.9397 43.7676 23.3027 44.598 23.3718C45.4265 23.4422 46.0453 24.1946 45.9775 25.0488L45.4444 31.7388C45.38 32.5498 44.7186 33.1661 43.9427 33.1661ZM43.8346 32.957C44.5569 33.0114 45.1881 32.4635 45.2467 31.7221L45.7795 25.0321C45.8385 24.2902 45.3011 23.6369 44.5818 23.5758C43.8676 23.5194 43.2289 24.0693 43.1694 24.8111L42.6365 31.5007C42.5776 32.2428 43.1152 32.8958 43.8346 32.957Z" fill="#935624"/>
<g style="mix-blend-mode:multiply" opacity="0.7">
<path d="M44.5898 23.4741C43.9992 23.4242 43.463 23.7634 43.2139 24.2814C43.458 23.9961 43.8223 23.8251 44.2162 23.8585C44.8781 23.9144 45.3752 24.5187 45.321 25.2015L44.8641 30.9365C44.8098 31.6189 44.2235 32.1314 43.5618 32.0755C43.0991 32.0363 42.7219 31.7268 42.5522 31.3124L42.538 31.4926C42.4745 32.2886 43.0543 32.9936 43.8264 33.059C44.5987 33.1244 45.2822 32.5265 45.3456 31.7305L45.8785 25.0404C45.942 24.2444 45.3621 23.5395 44.5898 23.4741Z" fill="#D39257"/>
</g>
<path d="M43.8249 33.0585C43.0502 33.055 42.419 32.3985 42.4224 31.6L42.4505 24.8875C42.4536 24.0889 43.0904 23.4379 43.8651 23.4414C44.6399 23.4449 45.271 24.1014 45.2676 24.8999L45.2395 31.6125C45.2361 32.4112 44.5997 33.062 43.8249 33.0585Z" fill="#D39257"/>
<path d="M43.8316 33.1616C43.8291 33.1616 43.8272 33.1616 43.8253 33.1616C43.4239 33.1596 43.0464 32.9959 42.7622 32.7001C42.4777 32.4045 42.3218 32.0136 42.3237 31.6002L42.3518 24.8877C42.3537 24.4739 42.5121 24.0847 42.7992 23.7917C43.0845 23.5001 43.4607 23.3398 43.8589 23.3398C43.8614 23.3398 43.8635 23.3398 43.8659 23.3398C44.2676 23.3418 44.6448 23.5053 44.9291 23.8011C45.2135 24.0967 45.3694 24.4873 45.3675 24.901L45.3396 31.6135C45.3358 32.4684 44.6595 33.1616 43.8316 33.1616ZM43.826 32.9567C43.828 32.9567 43.8297 32.9567 43.8316 32.9567C44.5506 32.9567 45.1379 32.3548 45.1411 31.6125L45.169 24.9002C45.1704 24.541 45.0355 24.2018 44.7884 23.9452C44.5412 23.6886 44.2136 23.546 43.8652 23.5445C43.8633 23.5445 43.8614 23.5445 43.8589 23.5445C43.5134 23.5445 43.1869 23.6836 42.9389 23.9367C42.6898 24.1915 42.5518 24.5295 42.5504 24.8885L42.5223 31.601C42.5208 31.9602 42.6556 32.2992 42.9029 32.556C43.1501 32.8129 43.4776 32.9552 43.826 32.9567Z" fill="#935624"/>
<g style="mix-blend-mode:multiply" opacity="0.7">
<path d="M43.8651 23.4414C43.2726 23.4389 42.7635 23.8201 42.5541 24.3563C42.7758 24.0522 43.1262 23.8528 43.5213 23.8545C44.1856 23.8575 44.7268 24.4202 44.7239 25.1049L44.7048 29.7361H42.7659C42.7659 29.7361 42.6645 29.7356 42.6645 29.9223C42.6645 30.109 42.7659 30.1202 42.7659 30.1202L44.7028 30.128L44.6999 30.8593C44.697 31.5441 44.1513 32.102 43.4869 32.099C43.0228 32.097 42.6233 31.8186 42.4231 31.4192L42.4224 31.6C42.419 32.3985 43.0502 33.055 43.8249 33.0585C44.5997 33.062 45.2364 32.4112 45.2395 31.6125L45.2676 24.8999C45.271 24.1012 44.6399 23.4449 43.8651 23.4414Z" fill="#D39257"/>
</g>
<path opacity="0.5" d="M45.4914 26.4577C45.4722 26.4373 45.4461 26.4258 45.419 26.4258H45.2608V26.6305H45.3143L45.1495 29.8511H42.8214C42.7667 29.8511 42.7222 29.897 42.7222 29.9534C42.7222 30.0098 42.7667 30.0557 42.8214 30.0557H45.2437C45.2965 30.0557 45.3401 30.0131 45.3429 29.9586L45.5185 26.5334C45.5194 26.5052 45.5098 26.478 45.4914 26.4577Z" fill="#618FC4"/>
<path d="M45.4914 26.4353C45.4722 26.4148 45.4461 26.4033 45.419 26.4033H45.2608V26.608H45.3143L45.1495 29.8286H42.8214C42.7667 29.8286 42.7222 29.8745 42.7222 29.9312C42.7222 29.9874 42.7667 30.0333 42.8214 30.0333H45.2437C45.2965 30.0333 45.3401 29.9906 45.3429 29.9362L45.5185 26.5109C45.5194 26.4827 45.5098 26.4557 45.4914 26.4353Z" fill="#8E8E8E"/>
<g opacity="0.7">
<path d="M45.4921 26.4359C45.4839 26.4271 45.4711 26.4274 45.4607 26.4221C45.4616 26.4284 45.4675 26.4334 45.4672 26.4401L45.2919 29.8654C45.2887 29.9198 45.2451 29.9627 45.1926 29.9627H42.7701C42.7537 29.9627 42.7418 29.952 42.728 29.9448C42.735 29.9939 42.7723 30.0339 42.8222 30.0339H45.2445C45.2972 30.0339 45.3408 29.9912 45.3437 29.9368L45.5192 26.5115C45.5202 26.4833 45.5105 26.4563 45.4921 26.4359Z" fill="#8E8E8E"/>
<path d="M45.2612 26.5663L45.2627 26.5369H45.2612V26.5663Z" fill="#8E8E8E"/>
</g>
</svg>
