<svg width="70" height="56" viewBox="0 0 70 56" fill="none" xmlns="http://www.w3.org/2000/svg">
<path d="M69.2783 39.0151C69.7892 34.9714 68.9584 29.0613 67.8052 23.4628C67.3058 21.5181 66.8182 19.9105 66.4624 18.9691C65.0547 15.2418 63.3984 6.79272 63.3984 6.79272L62.2388 21.7027C68.0362 32.6369 66.38 41.4174 66.38 41.4174C66.2431 41.4656 66.0218 41.5477 65.7215 41.6548C66.5796 41.3834 67.3685 41.0879 68.0803 40.7757C68.7469 40.4835 69.2003 39.6338 69.2783 39.0151Z" fill="url(#paint0_linear_13345_316745)"/>
<path d="M61.0789 43.675C63.3151 43.0537 67.8987 41.5382 68.7189 41.1279C69.1703 40.9024 69.489 40.5941 69.7256 40.2372C70.617 36.57 69.167 28.7638 67.8048 23.4634C68.958 29.0619 69.7888 34.9719 69.2779 39.0157C69.1999 39.6343 68.7465 40.484 68.0799 40.7762C67.3681 41.0884 66.5792 41.3839 65.7211 41.6553C62.9295 42.6522 53.0979 45.9073 36.6476 46.0567C33.1075 46.0887 30.0668 46.0299 27.4614 45.9149C35.5351 46.5619 49.3149 46.9434 61.0789 43.675Z" fill="url(#paint1_linear_13345_316745)"/>
<path d="M68.7188 41.1275C67.8987 41.5378 63.3151 43.0533 61.0789 43.6746C49.3148 46.943 35.535 46.5615 27.4614 45.9145C16.6572 45.4369 13.3758 43.9853 13.3758 43.9853L13.0444 49.3697C27.3719 54.0911 48.9046 51.7719 57.0206 50.0322C65.137 48.2927 67.5388 45.3108 69.4435 41.0861C69.556 40.8366 69.6493 40.5514 69.7256 40.2368C69.489 40.5937 69.1703 40.902 68.7188 41.1275Z" fill="url(#paint2_radial_13345_316745)"/>
<path d="M63.1512 19.4669C63.1512 19.4669 63.979 35.4538 63.8134 38.0217C63.648 40.5896 63.8961 41.6665 61.8259 41.8322C59.7555 41.9978 15.1162 42.0805 13.7087 42.0805C12.3006 42.0805 11.3069 41.6665 11.224 38.933C11.1411 36.1995 11.1411 18.9697 11.1411 18.9697L63.1512 19.4669Z" fill="url(#paint3_radial_13345_316745)"/>
<g style="mix-blend-mode:multiply">
<path d="M63.1512 19.4669C63.1512 19.4669 63.979 35.4538 63.8134 38.0217C63.648 40.5896 63.8961 41.6665 61.8259 41.8322C59.7555 41.9978 15.1162 42.0805 13.7087 42.0805C12.3006 42.0805 11.3069 41.6665 11.224 38.933C11.1411 36.1995 11.1411 18.9697 11.1411 18.9697L63.1512 19.4669Z" fill="url(#paint4_linear_13345_316745)"/>
</g>
<g style="mix-blend-mode:multiply">
<path d="M63.1512 19.4669L11.1411 18.9697C11.1411 18.9697 11.1411 36.1995 11.224 38.933C11.3069 41.6665 12.3006 42.0805 13.7087 42.0805C15.1162 42.0805 59.7555 41.9978 61.8259 41.8322C63.8961 41.6665 63.648 40.5896 63.8134 38.0217C63.979 35.4538 63.1512 19.4669 63.1512 19.4669ZM62.2131 24.9335C62.1883 27.6658 62.0918 30.396 61.9869 33.1261C61.9356 34.4599 62.0718 35.8346 62.0167 37.183C62.0288 37.2292 62.0354 37.2799 62.0303 37.3383C61.9591 38.1395 62.1854 39.931 61.224 40.2801C61.1608 40.4189 61.0313 40.5249 60.832 40.5249H14.9467C14.8787 40.571 14.7903 40.5957 14.6817 40.5872C12.773 40.4363 12.6873 38.2393 12.7217 36.7426C12.7954 33.5475 12.5285 30.3456 12.6759 27.1498C12.723 26.1228 12.528 23.6495 14.0865 23.5648C16.1612 23.4522 16.0362 25.5864 15.9087 27.0364C15.8618 27.5706 15.7881 28.1315 15.8522 28.6677C15.966 29.6201 16.6444 29.4395 17.3049 29.8077C18.1823 30.2964 18.1469 31.4324 18.2356 32.3382C18.372 33.7303 18.3926 35.2686 18.7598 36.6277C18.9975 37.5079 19.5022 37.8165 20.3913 37.8104C20.8817 37.8069 21.6878 37.8641 22.0418 37.4355C22.8302 36.4809 22.638 34.9009 22.7496 33.7441C22.8394 32.8169 22.8826 31.6858 23.2954 30.8436C23.513 30.3993 23.8187 30.1896 24.1142 29.8173C24.6479 29.1453 24.5237 27.8718 24.4917 27.0603C24.4368 25.6599 23.985 24.3078 23.9804 22.9253C23.9793 22.5457 24.3596 22.4143 24.6276 22.5273C24.6797 22.506 24.7386 22.4928 24.806 22.4928H51.2325C51.5113 22.3375 51.9361 22.4593 51.9059 22.8629C51.857 23.511 51.4889 23.9919 51.3542 24.6279C51.1689 25.5009 51.0463 26.3863 50.9803 27.2766C50.8745 28.7052 50.8478 30.1051 52.567 30.378C52.719 30.4024 52.812 30.4811 52.859 30.5818C52.9471 30.6305 53.0237 30.7067 53.0697 30.8188C53.0701 30.8197 53.0703 30.8208 53.0706 30.8214C53.1917 30.8603 53.29 30.9577 53.3182 31.1294C53.5567 32.5746 53.4089 34.0714 53.7146 35.5044C54.08 37.2183 55.4577 38.3589 57.291 37.6259C58.2651 37.2363 58.5051 36.2313 58.6561 35.2919C58.8497 34.0868 58.9455 32.8766 59.0203 31.6617C59.0571 31.0614 59.2039 30.7065 59.5092 30.2135C60.1293 29.212 60.3616 28.191 60.4034 27.0214C60.45 25.7216 59.8669 23.316 61.1576 22.4349C62.3025 21.6537 62.2155 24.6854 62.2131 24.9335Z" fill="url(#paint5_radial_13345_316745)"/>
</g>
<path d="M2.44452 39.3473C2.83758 39.5083 3.19141 39.636 3.51205 39.7365C3.40829 39.4477 2.43903 36.3889 5.50895 30.4838C8.73906 24.2713 10.8919 22.6976 11.6374 17.0646C12.3828 11.4319 10.6436 6.46191 10.6436 6.46191C10.6436 6.46191 9.81516 14.2482 7.33061 19.8811C5.23236 24.6385 0.593738 31.6411 0.0512695 36.6973C0.452699 37.7624 1.16773 38.8242 2.44452 39.3473Z" fill="url(#paint6_linear_13345_316745)"/>
<path d="M24.8875 52.0618C24.2249 50.0737 16.7297 46.3876 14.4525 45.3108C12.1748 44.2341 3.81018 41.2105 1.6154 40.2164C0.953651 39.9168 0.454626 39.3301 0.0791016 38.6577C0.112236 38.8648 0.152399 39.0682 0.20769 39.2639C1.6154 44.2339 1.86415 45.0623 3.27213 45.8907C4.67984 46.7188 10.1459 49.287 15.3632 50.8606C20.5807 52.4345 22.8999 55.9965 22.8999 55.9965C22.8999 55.9965 23.6943 56.0664 24.4392 55.611C25.2782 54.6378 25.2955 53.2873 24.8875 52.0618Z" fill="url(#paint7_linear_13345_316745)"/>
<path d="M25.7159 52.7659C25.7159 49.2867 19.339 46.6358 16.4406 45.2278C13.5417 43.8196 3.52079 39.7607 3.52079 39.7607C3.52079 39.7607 3.51684 39.7511 3.51155 39.7359C3.19092 39.6354 2.83708 39.5078 2.44402 39.3467C1.16724 38.8237 0.452205 37.7619 0.0507756 36.6968C-0.0239945 37.3914 -0.0176354 38.0473 0.0794921 38.6576C0.455016 39.3301 0.954042 39.9167 1.61579 40.2164C3.81057 41.2104 12.1752 44.234 14.4529 45.3107C16.7301 46.3875 24.2253 50.0736 24.8879 52.0617C25.2959 53.2872 25.2786 54.6377 24.4396 55.6109C25.097 55.2086 25.7159 54.3969 25.7159 52.7659Z" fill="url(#paint8_radial_13345_316745)"/>
<g style="mix-blend-mode:multiply" opacity="0.7">
<path d="M14.0656 45.1352C12.6921 44.5281 10.0475 43.515 7.50154 42.5405C7.49297 42.5405 7.48467 42.541 7.47563 42.5407C7.72418 42.9604 7.72418 44.4825 7.7553 46.6569C7.7634 47.233 7.81735 48.0546 7.31117 47.8027C7.29818 47.7961 7.28834 47.82 7.27783 47.8299C7.9839 48.1399 8.75068 48.464 9.55548 48.7891C9.24796 48.1074 9.36704 47.3925 9.35085 46.6707C9.33043 45.7806 9.22621 44.8886 9.355 44.0016C9.48305 43.1206 11.2688 44.2721 11.451 44.467C11.7888 44.8281 11.7761 46.894 11.7324 47.7926C11.7092 48.2792 11.8237 49.639 11.5324 49.5571C12.2086 49.8101 12.897 50.0578 13.5923 50.2928C13.8182 49.18 13.6467 47.9245 13.6429 46.8317C13.6416 46.3776 13.5697 45.3998 14.0656 45.1352Z" fill="url(#paint9_radial_13345_316745)"/>
</g>
<path opacity="0.5" d="M13.2786 43.814C12.023 43.2743 10.6081 42.6795 9.25273 42.1157C8.72478 42.4404 8.11524 42.5492 7.50195 42.5409C10.0479 43.5154 12.6925 44.5285 14.066 45.1356C14.0691 45.134 14.072 45.1332 14.0748 45.1316C13.6377 44.8675 13.3694 44.3146 13.2786 43.814Z" fill="url(#paint10_radial_13345_316745)"/>
<path d="M10.147 21.3718H64.4755C64.4755 21.3718 64.3099 7.37274 64.1443 4.55646C63.9787 1.73999 63.0676 0.000488281 59.5892 0.000488281C56.1109 0.000488281 15.8613 0.000488281 14.0392 0.000488281C12.2174 0.000488281 10.3126 1.49166 10.2299 4.22499C10.147 6.95875 10.147 21.3718 10.147 21.3718Z" fill="url(#paint11_linear_13345_316745)"/>
<g style="mix-blend-mode:multiply" opacity="0.4">
<path d="M64.1443 4.55658C64.0248 2.52441 63.5168 1.05342 61.9366 0.391336C62.016 0.476464 62.093 0.563535 62.1654 0.654354C63.1026 1.82547 63.4637 3.20979 63.5615 4.69109C63.707 6.888 63.7144 9.1376 63.6201 11.3385C63.5403 13.1947 63.3462 15.0393 62.5891 16.7547C62.4861 16.9884 62.1687 17.0213 61.9695 16.9172C59.8138 15.7936 58.1387 11.6134 55.2844 12.3505C52.6075 13.0418 50.7773 15.5549 48.2544 16.6514C42.8403 19.0047 36.1719 20.0815 30.3663 18.6612C27.4622 17.9508 24.6666 16.4324 22.6326 14.2236C22.0784 13.6219 21.4021 12.7024 20.5454 12.5449C19.5778 12.3668 18.772 12.8939 18.1041 13.5383C17.1719 14.438 16.3834 15.5193 15.35 16.3091C14.8442 16.6961 13.679 17.7018 12.9434 17.2904C12.3514 16.9592 12.3733 16.1463 12.3397 15.5549C12.231 13.6291 11.9054 11.7222 11.723 9.80279C11.5089 7.5556 11.34 5.23801 11.6909 2.99521C11.8298 2.1078 12.057 1.16158 12.501 0.36499C11.2777 0.959753 10.2889 2.27387 10.2299 4.22511C10.147 6.95887 10.147 21.3719 10.147 21.3719H64.4755C64.4755 21.3719 64.3099 7.37286 64.1443 4.55658Z" fill="url(#paint12_radial_13345_316745)"/>
</g>
<path d="M15.9846 15.118C15.9846 15.118 18.5106 11.763 19.1732 11.1833C19.8358 10.6035 20.0429 10.7691 20.5397 11.349C21.0367 11.9288 23.2729 14.7865 23.5213 15.118C23.7697 15.4493 23.811 15.8635 23.6866 16.9817C23.5625 18.0999 22.1959 34.0043 22.1959 35.2052C22.1959 36.4064 21.9475 36.6547 21.2021 36.6133C20.4568 36.572 18.9661 37.1519 18.8005 35.8266C18.6349 34.5013 17.3511 24.644 16.7716 21.4133C16.1918 18.1829 15.9019 17.0232 15.6948 16.4019C15.4878 15.7806 15.7361 15.4079 15.9846 15.118Z" fill="url(#paint13_radial_13345_316745)"/>
<g style="mix-blend-mode:multiply">
<path d="M22.54 30.3698C22.6821 28.5943 22.8524 26.5451 23.0178 24.5888C22.129 24.6009 21.2406 24.6072 20.3525 24.5815C19.3576 24.5528 18.2483 24.3183 17.2705 24.582C17.5184 26.2653 17.7917 28.2359 18.0391 30.0603C19.5396 30.1559 21.0395 30.2652 22.54 30.3698Z" fill="url(#paint14_linear_13345_316745)"/>
</g>
<g style="mix-blend-mode:multiply" opacity="0.4">
<path d="M23.5213 15.118C23.2729 14.7865 21.0367 11.9288 20.5397 11.349C20.0429 10.7691 19.8358 10.6035 19.1732 11.1833C18.5106 11.763 15.9846 15.118 15.9846 15.118C15.7361 15.4079 15.4878 15.7806 15.6948 16.4019C15.9019 17.0232 16.1918 18.1829 16.7716 21.4133C17.3511 24.644 18.6349 34.5013 18.8005 35.8266C18.9661 37.1519 20.4568 36.572 21.2021 36.6133C21.9475 36.6547 22.1959 36.4064 22.1959 35.2052C22.1959 34.0043 23.5625 18.0999 23.6866 16.9817C23.811 15.8635 23.7697 15.4493 23.5213 15.118ZM21.1401 31.2293C21.0889 32.5577 20.9953 33.7143 20.9124 34.8946C20.8867 35.2581 20.0776 35.0411 20.0429 34.7081C19.8791 33.143 19.8018 31.422 19.5873 29.8623C19.5665 29.7101 18.9646 26.7903 19.7115 27.4394C20.0539 27.5234 20.2495 27.8742 20.7896 27.5375C20.9374 27.4995 21.1672 27.5822 21.1664 27.7518C21.1609 28.8268 21.1877 30.0003 21.1401 31.2293ZM21.7156 17.7687C21.6573 18.9564 21.6454 19.9349 21.6165 21.1233C21.6064 21.5305 21.5335 22.5938 21.4921 22.6972C21.1885 23.4569 20.8196 22.711 20.4914 22.51C20.0148 22.2185 19.539 22.546 19.3859 23.0271C19.3134 23.2549 18.9405 23.3601 18.8257 23.1004C18.0848 21.4212 18.1495 19.5018 17.8104 17.7232C17.6749 17.012 17.7668 16.3271 18.1208 15.6935C18.3055 15.3626 19.5266 13.3647 19.9279 13.8245C20.9075 14.9463 21.7922 16.2042 21.7156 17.7687Z" fill="url(#paint15_radial_13345_316745)"/>
</g>
<path d="M18.7188 33.2583C18.7188 33.2583 17.0623 20.9575 16.8553 19.6734C16.6484 18.3896 16.1516 16.36 16.2758 15.9873C16.4002 15.6146 18.5115 12.7568 18.9673 12.2182C19.4229 11.6799 19.8675 11.6184 20.411 12.374C20.9551 13.1296 21.8245 14.1234 21.8245 14.1234C21.8245 14.1234 20.458 12.0526 20.0853 11.6799C19.7127 11.3071 19.5473 10.8515 18.6776 11.9284C17.8082 13.0052 16.2344 15.3658 15.9446 15.7802C15.6546 16.1944 15.8202 16.1529 15.9858 17.147C16.1516 18.141 18.7188 33.2583 18.7188 33.2583Z" fill="url(#paint16_radial_13345_316745)"/>
<g style="mix-blend-mode:multiply" opacity="0.6">
<path d="M23.5206 15.118C23.2723 14.7865 21.0361 11.9288 20.539 11.349C20.0422 10.7691 19.8352 10.6035 19.1726 11.1833C18.5099 11.763 15.984 15.118 15.984 15.118C15.7793 15.3567 15.5788 15.6544 15.6288 16.0987C15.6705 15.8172 15.8161 15.607 15.9618 15.4289C15.9618 15.4289 18.3334 12.1223 18.9551 11.5508C19.5775 10.9793 19.772 11.1427 20.2384 11.7142C20.7051 12.2857 22.8046 15.1022 23.0378 15.4289C23.2712 15.7553 23.31 16.1636 23.1933 17.2658C23.0767 18.368 21.7935 34.0432 21.7935 35.2268C21.7935 36.2471 21.6193 36.5692 21.1234 36.6128C21.1497 36.6128 21.1767 36.612 21.2015 36.6133C21.9468 36.6547 22.1953 36.4064 22.1953 35.2052C22.1953 34.0043 23.5618 18.0999 23.6859 16.9817C23.8103 15.8635 23.7691 15.4493 23.5206 15.118Z" fill="url(#paint17_radial_13345_316745)"/>
</g>
<g style="mix-blend-mode:multiply" opacity="0.5">
<path d="M20.3734 36.1031L20.3101 35.7361L20.3437 35.7302C20.5099 35.7012 20.6847 35.6714 20.84 35.6817C20.8687 35.6837 20.8957 35.6848 20.9216 35.6848C21.0802 35.6848 21.146 35.6461 21.182 35.6172L21.4162 35.9072C21.2706 36.0248 21.0745 36.0704 20.8154 36.0538C20.7014 36.0465 20.5588 36.0709 20.4077 36.0974L20.3734 36.1031Z" fill="#567BA6"/>
<path d="M19.5249 36.047C19.2889 35.9086 19.1528 35.6394 19.1099 35.2241L19.0879 35.0231L19.4591 34.9814L19.4816 35.1857C19.5112 35.4707 19.5895 35.6526 19.7142 35.7258L19.5249 36.047Z" fill="#567BA6"/>
<path d="M21.7388 35.1064L21.3667 35.0698C21.3801 34.9336 21.3867 34.7745 21.3867 34.5835C21.3867 34.4994 21.3925 34.3314 21.4037 34.0918L21.7768 34.1087C21.7663 34.3404 21.7604 34.5027 21.7604 34.5837C21.7604 34.7868 21.7533 34.9579 21.7388 35.1064Z" fill="#567BA6"/>
<path d="M19.0035 34.2869L18.8867 33.3062L19.2575 33.2617L19.3747 34.2435L19.0035 34.2869Z" fill="#567BA6"/>
<path d="M21.8149 33.3684L21.4419 33.3483C21.4579 33.0582 21.4765 32.7263 21.4977 32.3604L21.8705 32.3816C21.8494 32.7474 21.8309 33.0788 21.8149 33.3684Z" fill="#567BA6"/>
<path d="M19.0511 31.5457L18.6802 31.5908L18.7993 32.571L19.1703 32.5259L19.0511 31.5457Z" fill="#567BA6"/>
<path d="M21.5996 30.6337L21.542 31.6206L21.9148 31.6424L21.9724 30.6555L21.5996 30.6337Z" fill="#567BA6"/>
<path d="M18.8378 29.8298L18.4673 29.8755L18.5882 30.8554L18.9587 30.8097L18.8378 29.8298Z" fill="#567BA6"/>
<path d="M21.7046 28.9074L21.6436 29.8936L22.0164 29.9167L22.0775 28.9305L21.7046 28.9074Z" fill="#567BA6"/>
<path d="M18.6241 28.1154L18.2534 28.1616L18.3756 29.1414L18.7463 29.0952L18.6241 28.1154Z" fill="#567BA6"/>
<path d="M21.8121 27.1815L21.7505 28.1675L22.1236 28.1908L22.1852 27.2048L21.8121 27.1815Z" fill="#567BA6"/>
<path d="M18.4107 26.4004L18.04 26.4473L18.1638 27.4268L18.5344 27.3799L18.4107 26.4004Z" fill="#567BA6"/>
<path d="M21.9236 25.4559L21.8613 26.4424L22.234 26.4659L22.2963 25.4795L21.9236 25.4559Z" fill="#567BA6"/>
<path d="M18.1899 24.6857L17.8193 24.7334L17.9455 25.7127L18.316 25.665L18.1899 24.6857Z" fill="#567BA6"/>
<path d="M22.0356 23.731L21.9717 24.7168L22.3445 24.741L22.4085 23.7552L22.0356 23.731Z" fill="#567BA6"/>
<path d="M17.7234 24C17.6776 23.6546 17.6338 23.3269 17.5928 23.0217L17.9628 22.9717C18.0042 23.2773 18.048 23.6055 18.0935 23.951L17.7234 24Z" fill="#567BA6"/>
<path d="M22.1481 22.0048L22.0835 22.9907L22.4563 23.0152L22.5209 22.0292L22.1481 22.0048Z" fill="#567BA6"/>
<path d="M17.4944 22.2887C17.4538 21.9987 17.4171 21.7416 17.3845 21.5237L17.353 21.3135L17.7225 21.2578L17.7542 21.4688C17.7867 21.6876 17.8239 21.946 17.8641 22.2374L17.4944 22.2887Z" fill="#567BA6"/>
<path d="M22.263 20.2784L22.1973 21.2646L22.57 21.2895L22.6357 20.3032L22.263 20.2784Z" fill="#567BA6"/>
<path d="M17.2406 20.5836C17.1854 20.2251 17.1339 19.9028 17.0864 19.6124L17.4553 19.5522C17.503 19.8438 17.5544 20.1672 17.6098 20.5268L17.2406 20.5836Z" fill="#567BA6"/>
<path d="M22.3789 18.5519L22.312 19.5386L22.6847 19.5639L22.7516 18.5772L22.3789 18.5519Z" fill="#567BA6"/>
<path d="M16.9665 18.8852C16.8984 18.494 16.8392 18.1797 16.7871 17.9221L17.1532 17.8481C17.2062 18.1086 17.2656 18.4262 17.3347 18.8213L16.9665 18.8852Z" fill="#567BA6"/>
<path d="M22.8054 17.8376L22.4326 17.8097C22.4416 17.6917 22.4485 17.6059 22.4533 17.5555C22.4662 17.4091 22.4803 17.2696 22.4933 17.1371L22.5238 16.8223L22.8955 16.8565L22.8652 17.1735C22.8522 17.3054 22.8386 17.444 22.8252 17.5899C22.8205 17.639 22.8139 17.7226 22.8054 17.8376Z" fill="#567BA6"/>
<path d="M16.6255 17.2124L16.5977 17.1091C16.5333 16.8752 16.499 16.6137 16.499 16.3524C16.499 16.2938 16.501 16.2364 16.5043 16.1804L16.8773 16.2037C16.8742 16.2522 16.8726 16.3017 16.8726 16.3524C16.8726 16.5806 16.9023 16.8081 16.9579 17.0097L16.9874 17.1187L16.6255 17.2124Z" fill="#567BA6"/>
<path d="M22.5653 16.1051C22.5618 15.9169 22.5372 15.785 22.4922 15.7126C22.471 15.6782 22.4056 15.5849 22.2168 15.3366L22.5135 15.1108C22.7274 15.3927 22.7846 15.4768 22.809 15.5158C22.8919 15.6496 22.9329 15.8346 22.938 16.0976L22.5653 16.1051Z" fill="#567BA6"/>
<path d="M17.0009 15.6861L16.7041 15.4608C16.7041 15.4608 16.9579 15.1269 17.3062 14.6738L17.6014 14.9011C17.254 15.3528 17.0009 15.6859 17.0009 15.6861Z" fill="#567BA6"/>
<path d="M21.4529 13.7428L21.1582 13.9722L21.765 14.7522L22.0597 14.5229L21.4529 13.7428Z" fill="#567BA6"/>
<path d="M18.0536 14.3152L17.7593 14.0864C17.9617 13.826 18.1718 13.557 18.3693 13.3076L18.6614 13.5391C18.4647 13.7876 18.2552 14.0557 18.0536 14.3152Z" fill="#567BA6"/>
<path d="M20.7045 13.3874C20.4336 13.0372 20.2672 12.817 20.1799 12.6941L20.1079 12.5943L20.4084 12.374L20.4832 12.4778C20.5668 12.5952 20.7355 12.8178 20.9993 13.1592L20.7045 13.3874Z" fill="#567BA6"/>
<path d="M19.1239 12.9646L18.8359 12.7278C18.9945 12.535 19.1147 12.3948 19.1939 12.3112C19.3512 12.1451 19.4788 12.0418 19.5953 11.9863L19.7554 12.3229C19.6834 12.3571 19.5856 12.4394 19.4646 12.5673C19.3915 12.6447 19.2768 12.7783 19.1239 12.9646Z" fill="#567BA6"/>
</g>
<path d="M20.7462 26.4457C20.7462 26.7772 20.4774 27.0462 20.1456 27.0462C19.8141 27.0462 19.5454 26.7772 19.5454 26.4457V23.5878C19.5454 23.256 19.8141 22.9873 20.1456 22.9873C20.4774 22.9873 20.7462 23.256 20.7462 23.5878V26.4457Z" fill="url(#paint18_linear_13345_316745)"/>
<g style="mix-blend-mode:multiply">
<path d="M20.1456 22.9873C19.8141 22.9873 19.5454 23.256 19.5454 23.5878V26.4457C19.5454 26.7772 19.8141 27.0462 20.1456 27.0462C20.4774 27.0462 20.7462 26.7772 20.7462 26.4457V23.5878C20.7462 23.256 20.4774 22.9873 20.1456 22.9873ZM19.9642 23.1916C19.9764 23.1326 20.0161 23.0869 20.0883 23.0764C20.0934 23.0733 20.0982 23.0692 20.1037 23.0663C20.1681 23.0338 20.2278 23.061 20.2621 23.106C20.3649 23.1527 20.4449 23.2455 20.4281 23.3664C20.4048 23.5325 20.0659 23.695 19.9446 23.5498C19.8565 23.4445 19.8865 23.3004 19.9642 23.1916ZM20.3151 26.7336C20.1155 27.0673 19.8573 26.6807 19.8207 26.46C19.7659 26.1283 19.7192 24.9927 20.3441 25.2075C20.4182 25.233 20.4397 25.304 20.4248 25.3635C20.4265 25.3683 20.4303 25.3718 20.4309 25.3771C20.4882 25.79 20.5399 26.3571 20.3151 26.7336Z" fill="url(#paint19_linear_13345_316745)"/>
</g>
<path d="M22.2365 23.7744H18.3028C17.5152 23.7744 16.956 23.9519 16.5937 24.3167C16.1429 24.7704 16.1469 25.3459 16.1493 25.727L16.1495 27.9577C16.1495 28.652 16.463 29.0254 16.726 29.2165C17.11 29.4958 17.5825 29.5355 17.9637 29.5045C17.9078 29.0954 17.8509 28.6816 17.7937 28.2672C17.6513 28.2722 17.5206 28.2582 17.4559 28.2113C17.3963 28.1678 17.3917 28.0061 17.3917 27.9577L17.3914 25.7188C17.3901 25.5027 17.3886 25.2792 17.475 25.1925C17.5158 25.1513 17.6963 25.017 18.3028 25.017H22.2365C22.8943 25.017 23.0235 25.08 23.0235 25.8039V27.8747C23.0235 28.0663 22.9711 28.1167 22.954 28.1332C22.9308 28.1555 22.8643 28.2036 22.7133 28.2413C22.6776 28.6731 22.643 29.0985 22.6092 29.5127C23.1345 29.4591 23.5339 29.3001 23.8167 29.0274C24.1146 28.7398 24.2656 28.3519 24.2656 27.8747V25.8039C24.2656 23.9848 23.1075 23.7744 22.2365 23.7744Z" fill="url(#paint20_linear_13345_316745)"/>
<g style="mix-blend-mode:multiply">
<path d="M22.2365 23.7744H18.3028C17.5152 23.7744 16.956 23.9519 16.5937 24.3167C16.1429 24.7704 16.1469 25.3459 16.1493 25.727L16.1495 27.9577C16.1495 28.652 16.463 29.0254 16.726 29.2165C17.11 29.4958 17.5825 29.5355 17.9637 29.5045C17.9078 29.0954 17.8509 28.6816 17.7937 28.2672C17.6513 28.2722 17.5206 28.2582 17.4559 28.2113C17.3963 28.1678 17.3917 28.0061 17.3917 27.9577L17.3914 25.7188C17.3901 25.5027 17.3886 25.2792 17.475 25.1925C17.5158 25.1513 17.6963 25.017 18.3028 25.017H22.2365C22.8943 25.017 23.0235 25.08 23.0235 25.8039V27.8747C23.0235 28.0663 22.9711 28.1167 22.954 28.1332C22.9308 28.1555 22.8643 28.2036 22.7133 28.2413C22.6776 28.6731 22.643 29.0985 22.6092 29.5127C23.1345 29.4591 23.5339 29.3001 23.8167 29.0274C24.1146 28.7398 24.2656 28.3519 24.2656 27.8747V25.8039C24.2656 23.9848 23.1075 23.7744 22.2365 23.7744ZM23.6779 28.5796C23.6285 28.6117 23.5659 28.6125 23.4865 28.5662C23.24 28.4225 23.4214 27.7681 23.4216 27.5355C23.4221 27.1762 23.4023 26.8171 23.4144 26.4573C23.4331 25.9031 23.5416 24.9556 22.9715 24.6805C21.882 24.4732 20.7198 24.5449 19.6121 24.5495C18.9657 24.5521 18.0326 24.6149 17.3969 24.7737C16.8999 24.8979 16.9161 26.1497 16.9619 26.9325C16.9813 27.2598 16.8929 28.0463 16.8843 28.1441C16.8532 28.5013 16.3875 28.4701 16.4031 27.6161C16.4127 27.0766 16.3522 26.4228 16.3989 25.8856C16.4397 25.4154 16.4057 24.9466 16.6979 24.5563C17.0881 24.0357 17.9926 24.0679 18.5757 24.0251C19.387 23.9653 20.2008 23.9484 21.0139 23.9519C21.7085 23.9547 22.8384 23.8757 23.4087 24.3738C23.9586 24.8538 23.9441 25.6822 23.9114 26.3491C23.8877 26.8311 23.9299 27.3159 23.8779 27.7969C23.8619 27.9467 23.8557 28.4644 23.6779 28.5796Z" fill="url(#paint21_linear_13345_316745)"/>
</g>
<path d="M16.6383 27.4606C16.6383 27.4606 16.632 27.2965 16.6213 27.0093C16.6158 26.7221 16.598 26.3116 16.594 25.8195C16.5936 25.6951 16.5928 25.5657 16.5923 25.4314C16.5936 25.3064 16.6035 25.1464 16.6669 25.0012L16.7144 24.892L16.7869 24.795C16.8316 24.7246 16.8959 24.6761 16.9599 24.6252C17.0213 24.5675 17.0948 24.5359 17.1672 24.4991L17.2767 24.4449L17.3909 24.4073C17.6909 24.2987 18.029 24.2564 18.3468 24.2378C18.669 24.2147 18.9941 24.179 19.3266 24.1825C19.6576 24.1805 19.9884 24.1785 20.3141 24.1768C20.6374 24.1845 20.9555 24.1921 21.2634 24.1996C21.571 24.2062 21.8666 24.2202 22.1478 24.2318C22.4286 24.2386 22.7113 24.2558 22.9561 24.345C23.2028 24.4326 23.393 24.6083 23.4904 24.7928C23.5924 24.9773 23.6198 25.1566 23.6455 25.2985C23.6604 25.4433 23.6637 25.5567 23.6593 25.6339C23.6578 25.7109 23.6571 25.752 23.6571 25.752C23.6571 25.752 23.6531 25.7111 23.6459 25.6344C23.6426 25.5576 23.6229 25.4466 23.5979 25.3068C23.5612 25.1708 23.5189 25.001 23.4114 24.8408C23.3057 24.6805 23.132 24.5473 22.9111 24.4775C22.687 24.4093 22.4294 24.4052 22.1478 24.4131C21.8656 24.4146 21.5677 24.4165 21.2595 24.4183C20.9526 24.4179 20.6352 24.4172 20.3128 24.4168C19.9928 24.4212 19.6675 24.4255 19.3422 24.4302C19.018 24.4231 18.6899 24.4563 18.3676 24.4765L18.1272 24.4929L18.0077 24.5001C17.9803 24.5001 17.9349 24.5115 17.8993 24.5166C17.7476 24.5418 17.5976 24.5664 17.4598 24.6145C17.1827 24.6998 16.9347 24.842 16.8329 25.0725C16.7768 25.1833 16.7603 25.3038 16.7509 25.4417C16.745 25.5729 16.7392 25.6993 16.7333 25.8211C16.7144 26.3129 16.6837 26.7228 16.6693 27.0097C16.6493 27.2967 16.6383 27.4606 16.6383 27.4606Z" fill="white"/>
<path d="M51.5985 15.118C51.5985 15.118 54.1243 11.763 54.7869 11.1833C55.4496 10.6035 55.6566 10.7691 56.1534 11.349C56.6505 11.9288 58.8864 14.7865 59.135 15.118C59.3833 15.4493 59.425 15.8635 59.3006 16.9817C59.1764 18.0999 57.8099 34.0043 57.8099 35.2052C57.8099 36.4064 57.5614 36.6547 56.8161 36.6133C56.0707 36.572 54.5801 37.1519 54.4143 35.8266C54.2487 34.5013 52.9651 24.644 52.3851 21.4133C51.8056 18.1829 51.5157 17.0232 51.3086 16.4019C51.1015 15.7806 51.3501 15.4079 51.5985 15.118Z" fill="url(#paint22_radial_13345_316745)"/>
<g style="mix-blend-mode:multiply">
<path d="M58.1551 30.3698C58.2974 28.5943 58.4674 26.5451 58.6328 24.5888C57.7442 24.6009 56.8557 24.6072 55.9675 24.5815C54.9728 24.5528 53.8636 24.3183 52.8857 24.582C53.1332 26.2653 53.4069 28.2359 53.6539 30.0603C55.1547 30.1559 56.6545 30.2652 58.1551 30.3698Z" fill="url(#paint23_linear_13345_316745)"/>
</g>
<g style="mix-blend-mode:multiply" opacity="0.4">
<path d="M59.135 15.118C58.8864 14.7865 56.6505 11.9288 56.1534 11.349C55.6566 10.7691 55.4496 10.6035 54.7869 11.1833C54.1243 11.763 51.5985 15.118 51.5985 15.118C51.3501 15.4079 51.1015 15.7806 51.3086 16.4019C51.5157 17.0232 51.8056 18.1829 52.3851 21.4133C52.9651 24.644 54.2487 34.5013 54.4143 35.8266C54.5801 37.1519 56.0707 36.572 56.8161 36.6133C57.5614 36.6547 57.8099 36.4064 57.8099 35.2052C57.8099 34.0043 59.1764 18.0999 59.3006 16.9817C59.425 15.8635 59.3833 15.4493 59.135 15.118ZM56.754 31.2293C56.7024 32.5577 56.609 33.7143 56.5261 34.8946C56.5007 35.2581 55.6913 35.0411 55.6566 34.7081C55.4928 33.143 55.4156 31.422 55.2013 29.8623C55.18 29.7101 54.5786 26.7903 55.3254 27.4394C55.6676 27.5234 55.8634 27.8742 56.403 27.5375C56.5509 27.4995 56.781 27.5822 56.7803 27.7518C56.7746 28.8268 56.8014 30.0003 56.754 31.2293ZM57.3296 17.7687C57.271 18.9564 57.2592 19.9349 57.23 21.1233C57.2203 21.5305 57.1473 22.5938 57.1058 22.6972C56.8025 23.4569 56.4334 22.711 56.1052 22.51C55.6286 22.2185 55.1526 22.546 54.9995 23.0271C54.9271 23.2549 54.5544 23.3601 54.4397 23.1004C53.6985 21.4212 53.7633 19.5018 53.4241 17.7232C53.2886 17.012 53.3805 16.3271 53.7347 15.6935C53.919 15.3626 55.1403 13.3647 55.5419 13.8245C56.5215 14.9463 57.4061 16.2042 57.3296 17.7687Z" fill="url(#paint24_radial_13345_316745)"/>
</g>
<path d="M54.3323 33.2583C54.3323 33.2583 52.6757 20.9575 52.469 19.6734C52.2617 18.3896 51.7649 16.36 51.8891 15.9873C52.0132 15.6146 54.1251 12.7568 54.5809 12.2182C55.0362 11.6799 55.4808 11.6184 56.0244 12.374C56.5683 13.1296 57.438 14.1234 57.438 14.1234C57.438 14.1234 56.0715 12.0526 55.6989 11.6799C55.3262 11.3071 55.1603 10.8515 54.2909 11.9284C53.4212 13.0052 51.8478 15.3658 51.5579 15.7802C51.2679 16.1944 51.4335 16.1529 51.5993 17.147C51.7649 18.141 54.3323 33.2583 54.3323 33.2583Z" fill="url(#paint25_radial_13345_316745)"/>
<g style="mix-blend-mode:multiply" opacity="0.6">
<path d="M59.1339 15.118C58.8853 14.7865 56.6494 11.9288 56.1523 11.349C55.6555 10.7691 55.4485 10.6035 54.7858 11.1833C54.1232 11.763 51.5974 15.118 51.5974 15.118C51.3926 15.3567 51.1921 15.6544 51.2421 16.0987C51.284 15.8172 51.4294 15.607 51.5751 15.4289C51.5751 15.4289 53.9466 12.1223 54.5687 11.5508C55.191 10.9793 55.3853 11.1427 55.8518 11.7142C56.3184 12.2857 58.4177 15.1022 58.6513 15.4289C58.8845 15.7553 58.9235 16.1636 58.8066 17.2658C58.6902 18.368 57.407 34.0432 57.407 35.2268C57.407 36.2471 57.2328 36.5692 56.7369 36.6128C56.7632 36.6128 56.7902 36.612 56.815 36.6133C57.5603 36.6547 57.8088 36.4064 57.8088 35.2052C57.8088 34.0043 59.1753 18.0999 59.2995 16.9817C59.4239 15.8635 59.3822 15.4493 59.1339 15.118Z" fill="url(#paint26_radial_13345_316745)"/>
</g>
<g style="mix-blend-mode:multiply" opacity="0.5">
<path d="M55.9864 36.1031L55.9229 35.7361L55.9567 35.7302C56.1229 35.7012 56.298 35.6714 56.4535 35.6817C56.4818 35.6837 56.5088 35.6848 56.5348 35.6848C56.6932 35.6848 56.759 35.6461 56.795 35.6172L57.0292 35.9072C56.8833 36.0248 56.6877 36.0704 56.4287 36.0538C56.3146 36.0465 56.1718 36.0709 56.0207 36.0974L55.9864 36.1031Z" fill="#567BA6"/>
<path d="M55.1404 36.047C54.9041 35.9086 54.768 35.6394 54.7251 35.2241L54.7031 35.0231L55.0744 34.9814L55.0968 35.1857C55.1265 35.4707 55.2048 35.6526 55.3297 35.7258L55.1404 36.047Z" fill="#567BA6"/>
<path d="M57.353 35.1064L56.9814 35.0698C56.9946 34.9336 57.0014 34.7745 57.0014 34.5835C57.0014 34.4994 57.0071 34.3314 57.0184 34.0918L57.3916 34.1087C57.3808 34.3404 57.3751 34.5027 57.3751 34.5837C57.3751 34.7868 57.3678 34.9579 57.353 35.1064Z" fill="#567BA6"/>
<path d="M54.6202 34.2869L54.5034 33.3062L54.8744 33.2617L54.9914 34.2435L54.6202 34.2869Z" fill="#567BA6"/>
<path d="M57.4301 33.3684L57.0571 33.3483C57.0729 33.0582 57.0916 32.7263 57.1128 32.3604L57.4855 32.3816C57.4646 32.7474 57.4459 33.0788 57.4301 33.3684Z" fill="#567BA6"/>
<path d="M54.6659 31.5458L54.2949 31.5908L54.4139 32.571L54.7848 32.526L54.6659 31.5458Z" fill="#567BA6"/>
<path d="M57.2149 30.6337L57.1572 31.6206L57.53 31.6424L57.5876 30.6555L57.2149 30.6337Z" fill="#567BA6"/>
<path d="M54.4535 29.8299L54.0825 29.8755L54.203 30.8554L54.574 30.8098L54.4535 29.8299Z" fill="#567BA6"/>
<path d="M57.3198 28.9074L57.2588 29.8936L57.6318 29.9167L57.6929 28.9305L57.3198 28.9074Z" fill="#567BA6"/>
<path d="M54.2393 28.1153L53.8687 28.1616L53.9911 29.1414L54.3617 29.0951L54.2393 28.1153Z" fill="#567BA6"/>
<path d="M57.4278 27.1815L57.3662 28.1675L57.7394 28.1908L57.801 27.2048L57.4278 27.1815Z" fill="#567BA6"/>
<path d="M54.026 26.4004L53.6553 26.4473L53.779 27.4268L54.1497 27.3799L54.026 26.4004Z" fill="#567BA6"/>
<path d="M57.5383 25.4554L57.4761 26.4419L57.8489 26.4654L57.9112 25.479L57.5383 25.4554Z" fill="#567BA6"/>
<path d="M53.8053 24.686L53.4346 24.7339L53.5609 25.7132L53.9317 25.6653L53.8053 24.686Z" fill="#567BA6"/>
<path d="M57.6504 23.731L57.5864 24.7168L57.9594 24.741L58.0233 23.7552L57.6504 23.731Z" fill="#567BA6"/>
<path d="M53.3374 24C53.2917 23.6546 53.248 23.3269 53.2065 23.0217L53.5769 22.9717C53.6183 23.2773 53.662 23.6055 53.7077 23.951L53.3374 24Z" fill="#567BA6"/>
<path d="M57.7628 22.0048L57.6982 22.9907L58.071 23.0151L58.1355 22.0292L57.7628 22.0048Z" fill="#567BA6"/>
<path d="M53.1075 22.2887C53.067 21.9987 53.0303 21.7416 52.998 21.5237L52.9663 21.3135L53.336 21.2578L53.3674 21.4688C53.4 21.6876 53.4372 21.946 53.4776 22.2374L53.1075 22.2887Z" fill="#567BA6"/>
<path d="M57.8782 20.2784L57.8125 21.2646L58.1854 21.2895L58.2511 20.3032L57.8782 20.2784Z" fill="#567BA6"/>
<path d="M52.8556 20.5836C52.8 20.2251 52.749 19.9028 52.7012 19.6124L53.07 19.5522C53.1177 19.8438 53.1694 20.1672 53.2248 20.5268L52.8556 20.5836Z" fill="#567BA6"/>
<path d="M58.2988 19.564L57.9263 19.5388L57.9944 18.5518L58.3669 18.5779L58.2988 19.564Z" fill="#567BA6"/>
<path d="M52.5813 18.8852C52.5131 18.494 52.4537 18.1797 52.4019 17.9221L52.768 17.8481C52.8206 18.1086 52.8806 18.4262 52.949 18.8213L52.5813 18.8852Z" fill="#567BA6"/>
<path d="M58.4204 17.8376L58.0479 17.8097C58.0568 17.6917 58.0639 17.6059 58.0685 17.5555C58.0819 17.4091 58.0954 17.2696 58.1085 17.1371L58.1389 16.8223L58.511 16.8565L58.4804 17.1735C58.4676 17.3054 58.4538 17.444 58.4404 17.5899C58.436 17.639 58.4292 17.7226 58.4204 17.8376Z" fill="#567BA6"/>
<path d="M52.2407 17.2124L52.213 17.1091C52.1484 16.8752 52.1143 16.6137 52.1143 16.3524C52.1143 16.2938 52.116 16.2364 52.1196 16.1804L52.4923 16.2037C52.4894 16.2522 52.4879 16.3017 52.4879 16.3524C52.4879 16.5806 52.5173 16.8081 52.573 17.0097L52.6024 17.1187L52.2407 17.2124Z" fill="#567BA6"/>
<path d="M58.1808 16.1051C58.177 15.9169 58.1527 15.785 58.1075 15.7126C58.0863 15.6782 58.0209 15.5849 57.832 15.3366L58.1286 15.1108C58.3429 15.3927 58.3999 15.4768 58.424 15.5158C58.5074 15.6496 58.5482 15.8346 58.5534 16.0976L58.1808 16.1051Z" fill="#567BA6"/>
<path d="M52.6161 15.6861L52.3193 15.4608C52.3193 15.4608 52.5731 15.1269 52.9216 14.6738L53.2167 14.9011C52.8692 15.3528 52.6165 15.6859 52.6161 15.6861Z" fill="#567BA6"/>
<path d="M57.0681 13.7428L56.7734 13.9722L57.3803 14.7522L57.6749 14.5229L57.0681 13.7428Z" fill="#567BA6"/>
<path d="M53.6686 14.3152L53.3745 14.0864C53.5767 13.826 53.7871 13.557 53.9845 13.3076L54.2767 13.5391C54.0797 13.7876 53.8703 14.0557 53.6686 14.3152Z" fill="#567BA6"/>
<path d="M56.32 13.3874C56.0491 13.0372 55.8826 12.817 55.7953 12.6941L55.7236 12.5943L56.0239 12.374L56.0987 12.4778C56.1822 12.5952 56.3511 12.8178 56.615 13.1592L56.32 13.3874Z" fill="#567BA6"/>
<path d="M54.7384 12.9646L54.4502 12.7278C54.6088 12.535 54.7292 12.3948 54.8084 12.3112C54.9656 12.1451 55.0933 12.0418 55.2097 11.9863L55.3699 12.3229C55.298 12.3571 55.1999 12.4394 55.0788 12.5673C55.0058 12.6447 54.8913 12.7783 54.7384 12.9646Z" fill="#567BA6"/>
</g>
<path d="M56.3601 26.4457C56.3601 26.7772 56.0912 27.0462 55.7598 27.0462C55.4281 27.0462 55.1592 26.7772 55.1592 26.4457V23.5878C55.1592 23.256 55.4281 22.9873 55.7598 22.9873C56.0912 22.9873 56.3601 23.256 56.3601 23.5878V26.4457Z" fill="url(#paint27_linear_13345_316745)"/>
<g style="mix-blend-mode:multiply">
<path d="M55.7598 22.9873C55.4281 22.9873 55.1592 23.256 55.1592 23.5878V26.4457C55.1592 26.7772 55.4281 27.0462 55.7598 27.0462C56.0912 27.0462 56.3601 26.7772 56.3601 26.4457V23.5878C56.3601 23.256 56.0912 22.9873 55.7598 22.9873ZM55.5783 23.1916C55.5904 23.1326 55.6301 23.0869 55.7023 23.0764C55.7073 23.0733 55.7122 23.0692 55.7176 23.0663C55.7821 23.0338 55.8418 23.061 55.8762 23.106C55.9791 23.1527 56.0592 23.2455 56.0423 23.3664C56.0186 23.5325 55.6802 23.695 55.5586 23.5498C55.4704 23.4445 55.5007 23.3004 55.5783 23.1916ZM55.9291 26.7336C55.7297 27.0673 55.4713 26.6807 55.4347 26.46C55.3799 26.1283 55.3334 24.9927 55.9583 25.2075C56.0326 25.233 56.0539 25.304 56.0387 25.3635C56.0405 25.3683 56.044 25.3718 56.0451 25.3771C56.1021 25.79 56.1539 26.3571 55.9291 26.7336Z" fill="url(#paint28_linear_13345_316745)"/>
</g>
<path d="M57.8493 23.7744H53.9156C53.128 23.7744 52.5686 23.9519 52.2065 24.3167C51.7559 24.7704 51.7597 25.3459 51.7621 25.727L51.7623 27.9577C51.7623 28.652 52.0758 29.0254 52.3388 29.2165C52.7231 29.4958 53.1953 29.5355 53.5763 29.5045C53.5208 29.0954 53.464 28.6816 53.4067 28.2672C53.2642 28.2722 53.1335 28.2582 53.0689 28.2113C53.0093 28.1678 53.0045 28.0061 53.0045 27.9577L53.0043 25.7188C53.0031 25.5027 53.0016 25.2792 53.0876 25.1925C53.1286 25.1513 53.3094 25.017 53.9156 25.017H57.8493C58.5073 25.017 58.6363 25.08 58.6363 25.8039V27.8747C58.6363 28.0663 58.5839 28.1167 58.5668 28.1332C58.5437 28.1555 58.4771 28.2036 58.3262 28.2413C58.2904 28.6731 58.2558 29.0985 58.222 29.5127C58.7475 29.4591 59.1469 29.3001 59.4295 29.0274C59.7274 28.7398 59.8784 28.3519 59.8784 27.8747V25.8039C59.8784 23.9848 58.7203 23.7744 57.8493 23.7744Z" fill="url(#paint29_linear_13345_316745)"/>
<g style="mix-blend-mode:multiply">
<path d="M57.8493 23.7744H53.9156C53.128 23.7744 52.5686 23.9519 52.2065 24.3167C51.7559 24.7704 51.7597 25.3459 51.7621 25.727L51.7623 27.9577C51.7623 28.652 52.0758 29.0254 52.3388 29.2165C52.7231 29.4958 53.1953 29.5355 53.5763 29.5045C53.5208 29.0954 53.464 28.6816 53.4067 28.2672C53.2642 28.2722 53.1335 28.2582 53.0689 28.2113C53.0093 28.1678 53.0045 28.0061 53.0045 27.9577L53.0043 25.7188C53.0031 25.5027 53.0016 25.2792 53.0876 25.1925C53.1286 25.1513 53.3094 25.017 53.9156 25.017H57.8493C58.5073 25.017 58.6363 25.08 58.6363 25.8039V27.8747C58.6363 28.0663 58.5839 28.1167 58.5668 28.1332C58.5437 28.1555 58.4771 28.2036 58.3262 28.2413C58.2904 28.6731 58.2558 29.0985 58.222 29.5127C58.7475 29.4591 59.1469 29.3001 59.4295 29.0274C59.7274 28.7398 59.8784 28.3519 59.8784 27.8747V25.8039C59.8784 23.9848 58.7203 23.7744 57.8493 23.7744ZM59.2906 28.5796C59.2417 28.6117 59.179 28.6125 59.0993 28.5662C58.8528 28.4225 59.034 27.7681 59.0342 27.5355C59.0349 27.1762 59.0153 26.8171 59.0272 26.4573C59.0456 25.9031 59.1544 24.9556 58.5846 24.6805C57.4951 24.4732 56.333 24.5449 55.2251 24.5495C54.5785 24.5521 53.6456 24.6149 53.01 24.7737C52.5129 24.8979 52.5289 26.1497 52.575 26.9325C52.5939 27.2598 52.5056 28.0463 52.4973 28.1441C52.4664 28.5013 52.0005 28.4701 52.0159 27.6161C52.0258 27.0766 51.965 26.4228 52.0115 25.8856C52.0525 25.4154 52.0185 24.9466 52.3111 24.5563C52.7013 24.0357 53.6054 24.0679 54.1885 24.0251C54.9998 23.9653 55.8138 23.9484 56.6267 23.9519C57.3214 23.9547 58.451 23.8757 59.0215 24.3738C59.5714 24.8538 59.5571 25.6822 59.5242 26.3491C59.5008 26.8311 59.5427 27.3159 59.4909 27.7969C59.4749 27.9467 59.4687 28.4644 59.2906 28.5796Z" fill="url(#paint30_linear_13345_316745)"/>
</g>
<path d="M52.2526 27.4606C52.2526 27.4606 52.2462 27.2965 52.2354 27.0093C52.2298 26.7221 52.2119 26.3116 52.2083 25.8195C52.2076 25.6951 52.2069 25.5657 52.2061 25.4314C52.2078 25.3064 52.2174 25.1464 52.2811 25.0012L52.3287 24.892L52.4008 24.795C52.4456 24.7246 52.5101 24.6761 52.5741 24.6252C52.6353 24.5675 52.7088 24.5359 52.7812 24.4991L52.8906 24.4449L53.0049 24.4073C53.305 24.2987 53.6432 24.2564 53.961 24.2378C54.2832 24.2147 54.6083 24.179 54.9408 24.1825C55.2718 24.1805 55.6024 24.1785 55.9281 24.1768C56.2512 24.1845 56.5692 24.1921 56.8772 24.1996C57.1851 24.2062 57.4806 24.2202 57.762 24.2318C58.0425 24.2386 58.3253 24.2558 58.5701 24.345C58.8171 24.4326 59.007 24.6083 59.1044 24.7928C59.2062 24.9773 59.2338 25.1566 59.2597 25.2985C59.2746 25.4433 59.2777 25.5567 59.2733 25.6339C59.2717 25.7109 59.2713 25.752 59.2713 25.752C59.2713 25.752 59.2674 25.7111 59.2599 25.6344C59.2564 25.5576 59.2367 25.4466 59.2121 25.3068C59.1753 25.1708 59.1329 25.001 59.0255 24.8408C58.9199 24.6805 58.7462 24.5473 58.5253 24.4775C58.3012 24.4093 58.0437 24.4052 57.7618 24.4131C57.4795 24.4146 57.1816 24.4165 56.8735 24.4183C56.5664 24.4179 56.249 24.4172 55.9268 24.4168C55.6065 24.4212 55.2815 24.4255 54.9564 24.4302C54.6322 24.4231 54.3038 24.4563 53.9819 24.4765L53.7412 24.4929L53.6219 24.5001C53.594 24.5001 53.5491 24.5115 53.5134 24.5166C53.3617 24.5418 53.2115 24.5664 53.074 24.6145C52.7965 24.6998 52.5488 24.842 52.4467 25.0725C52.3907 25.1833 52.3743 25.3038 52.3651 25.4417C52.3589 25.5729 52.353 25.6993 52.3475 25.8211C52.3287 26.3129 52.298 26.7228 52.2835 27.0097C52.2635 27.2967 52.2526 27.4606 52.2526 27.4606Z" fill="white"/>
<path d="M13.2119 44.8552C13.2119 44.3582 13.3363 43.3227 11.8454 42.7014C10.3547 42.0801 9.23651 41.5832 8.57368 42.0389C7.91146 42.4943 7.9527 43.0744 7.91146 43.4057C7.76252 44.5974 7.9527 48.3754 7.9527 48.9555C7.9527 49.5353 8.16 50.1564 9.19487 50.5706C10.2306 50.9848 11.9697 51.6059 12.4665 51.1919C12.9636 50.7779 13.1705 50.1978 13.2119 47.92C13.2531 45.6421 13.2119 45.352 13.2119 44.8552ZM11.9772 47.6517C11.9531 49.3616 11.8322 49.797 11.5416 50.1079C11.2516 50.4188 10.2358 49.9524 9.63131 49.6415C9.02659 49.3304 8.90576 48.8644 8.90576 48.429C8.90576 47.9937 8.79451 45.1577 8.8816 44.263C8.90576 44.0147 8.8816 43.5792 9.26877 43.2374C9.65547 42.8952 10.3087 43.2683 11.1793 43.7345C12.0498 44.2009 11.9772 44.9782 11.9772 45.3512C11.9772 45.7241 12.0011 45.942 11.9772 47.6517Z" fill="url(#paint31_linear_13345_316745)"/>
<g style="mix-blend-mode:multiply">
<path d="M13.0994 46.8541C13.0399 47.8356 13.3582 49.564 12.5771 50.3537C11.9118 51.0261 10.8415 50.69 10.0413 50.4559C9.30385 50.2403 8.41571 49.8917 8.2995 49.0431C8.29863 49.0416 8.29816 49.0403 8.29749 49.039C8.29796 49.039 8.29816 49.039 8.29863 49.039C8.29683 49.0247 8.29334 49.0115 8.29201 48.997C8.27253 48.804 8.54075 48.8051 8.6022 48.9549C8.94874 49.8024 10.4236 50.2728 11.2617 50.2631C12.6758 50.2465 12.3959 48.6673 12.4277 47.6682C12.451 46.9247 12.5335 46.1858 12.5317 45.4406C12.5302 44.8456 12.6243 43.9942 12.1509 43.5332C11.4071 42.8088 9.47387 41.9782 8.6441 42.8134C8.53198 42.9262 8.339 42.8119 8.38023 42.6596C8.45152 42.3961 8.5368 42.1772 8.67282 41.9822C8.63928 41.9997 8.60568 42.0173 8.57368 42.039C7.91146 42.4944 7.9527 43.0745 7.91146 43.4058C7.76252 44.5975 7.9527 48.3755 7.9527 48.9556C7.9527 49.5354 8.16 50.1565 9.19487 50.5707C10.2306 50.9849 11.9697 51.606 12.4665 51.192C12.9636 50.778 13.1705 50.198 13.2119 47.9201C13.2351 46.6375 13.2323 45.9853 13.2251 45.5715C13.1786 46.0007 13.125 46.4291 13.0994 46.8541ZM8.8816 44.2631C8.90576 44.0148 8.8816 43.5793 9.26877 43.2375C9.65547 42.8953 10.3087 43.2684 11.1793 43.7346C12.0498 44.201 11.9772 44.9783 11.9772 45.3513C11.9772 45.7242 12.0011 45.9421 11.9772 47.6518C11.9531 49.3617 11.8322 49.7971 11.5416 50.108C11.2516 50.4189 10.2358 49.9525 9.63131 49.6416C9.02659 49.3305 8.90576 48.8645 8.90576 48.4291C8.90576 47.9938 8.79451 45.1578 8.8816 44.2631Z" fill="url(#paint32_linear_13345_316745)"/>
</g>
<path d="M13.1188 44.09C12.8934 43.3395 12.2822 43.006 11.5863 42.7438C10.785 42.4422 9.90042 42.0036 9.02634 42.151C8.98396 42.1583 8.98925 42.2164 9.03156 42.2169C9.89861 42.2239 10.6852 42.6642 11.4873 42.9593C11.8284 43.0845 12.1467 43.2427 12.4378 43.4623C12.9389 43.8408 12.9276 44.4564 12.8989 45.0156C12.8135 46.6809 12.7742 48.3487 12.715 50.0152C12.7135 50.0645 12.7848 50.0604 12.7962 50.0189C13.0616 49.0266 13.0197 47.9027 13.1217 46.8808C13.1702 46.3924 13.164 45.8924 13.1734 45.4024C13.1818 44.9715 13.2449 44.511 13.1188 44.09Z" fill="white"/>
<g style="mix-blend-mode:screen">
<path d="M9.46331 44.2753C9.46331 45.3523 9.2977 48.7278 9.89821 48.914C10.4986 49.1005 11.1818 49.5145 11.3062 49.3488C11.4304 49.1834 11.4716 48.0856 11.451 46.9882C11.4304 45.8907 11.4302 45.1864 11.3889 44.6895C11.3477 44.1926 10.685 44.027 10.4159 43.9026C10.1468 43.7784 9.46331 43.385 9.46331 44.2753Z" fill="url(#paint33_linear_13345_316745)"/>
</g>
<defs>
<linearGradient id="paint0_linear_13345_316745" x1="64.0684" y1="17.8152" x2="68.2937" y2="40.8013" gradientUnits="userSpaceOnUse">
<stop offset="0.0165019" stop-color="#32538C"/>
<stop offset="1" stop-color="#738DBA"/>
</linearGradient>
<linearGradient id="paint1_linear_13345_316745" x1="48.6089" y1="46.6522" x2="49.2003" y2="22.9982" gradientUnits="userSpaceOnUse">
<stop stop-color="#C1D3E8"/>
<stop offset="0.478675" stop-color="#8AACDB"/>
<stop offset="1" stop-color="#738DBA"/>
</linearGradient>
<radialGradient id="paint2_radial_13345_316745" cx="0" cy="0" r="1" gradientUnits="userSpaceOnUse" gradientTransform="translate(44.8052 48.8312) scale(28.8948 28.9005)">
<stop stop-color="#C1D3E8"/>
<stop offset="0.478675" stop-color="#8AACDB"/>
<stop offset="0.916275" stop-color="#456BAA"/>
</radialGradient>
<radialGradient id="paint3_radial_13345_316745" cx="0" cy="0" r="1" gradientUnits="userSpaceOnUse" gradientTransform="translate(38.2226 3.8525) scale(44.973 44.9817)">
<stop stop-color="#C1D3E8"/>
<stop offset="0.618434" stop-color="#8AACDB"/>
<stop offset="0.871991" stop-color="#738DBA"/>
</radialGradient>
<linearGradient id="paint4_linear_13345_316745" x1="37.4882" y1="34.4805" x2="37.4882" y2="20.5288" gradientUnits="userSpaceOnUse">
<stop stop-color="white"/>
<stop offset="0.583335" stop-color="#8AACDB"/>
<stop offset="0.725829" stop-color="#738DBA"/>
<stop offset="0.777192" stop-color="#6383B0"/>
<stop offset="0.877085" stop-color="#3A6A97"/>
<stop offset="1" stop-color="#004673"/>
</linearGradient>
<radialGradient id="paint5_radial_13345_316745" cx="0" cy="0" r="1" gradientUnits="userSpaceOnUse" gradientTransform="translate(36.9804 15.4078) scale(33.9198 33.9264)">
<stop offset="0.596534" stop-color="#C1D3E8"/>
<stop offset="0.776028" stop-color="#8AACDB"/>
<stop offset="1" stop-color="#738DBA"/>
</radialGradient>
<linearGradient id="paint6_linear_13345_316745" x1="0.0512698" y1="23.0992" x2="11.8231" y2="23.0992" gradientUnits="userSpaceOnUse">
<stop offset="0.0165019" stop-color="#32538C"/>
<stop offset="1" stop-color="#738DBA"/>
</linearGradient>
<linearGradient id="paint7_linear_13345_316745" x1="0.0791016" y1="47.329" x2="25.1476" y2="47.329" gradientUnits="userSpaceOnUse">
<stop stop-color="#C1D3E8"/>
<stop offset="0.478675" stop-color="#8AACDB"/>
<stop offset="0.916275" stop-color="#456BAA"/>
</linearGradient>
<radialGradient id="paint8_radial_13345_316745" cx="0" cy="0" r="1" gradientUnits="userSpaceOnUse" gradientTransform="translate(11.1399 41.7489) scale(20.6926 20.6967)">
<stop stop-color="#6487BF"/>
<stop offset="0.521325" stop-color="#8AACDB"/>
<stop offset="1" stop-color="#C1D3E8"/>
</radialGradient>
<radialGradient id="paint9_radial_13345_316745" cx="0" cy="0" r="1" gradientUnits="userSpaceOnUse" gradientTransform="translate(10.6717 46.4166) scale(3.6426 3.64331)">
<stop offset="0.418569" stop-color="#C1D3E8"/>
<stop offset="0.680042" stop-color="#8AACDB"/>
<stop offset="0.916275" stop-color="#456BAA"/>
</radialGradient>
<radialGradient id="paint10_radial_13345_316745" cx="0" cy="0" r="1" gradientUnits="userSpaceOnUse" gradientTransform="translate(11.1409 41.7492) scale(20.6935 20.6975)">
<stop stop-color="#6487BF"/>
<stop offset="0.521325" stop-color="#8AACDB"/>
<stop offset="1" stop-color="#C1D3E8"/>
</radialGradient>
<linearGradient id="paint11_linear_13345_316745" x1="37.3112" y1="0.37324" x2="37.3112" y2="33.5819" gradientUnits="userSpaceOnUse">
<stop stop-color="#C1D3E8"/>
<stop offset="0.478675" stop-color="#8AACDB"/>
<stop offset="1" stop-color="#738DBA"/>
</linearGradient>
<radialGradient id="paint12_radial_13345_316745" cx="0" cy="0" r="1" gradientUnits="userSpaceOnUse" gradientTransform="translate(38.098 -17.1463) scale(43.8973 43.9058)">
<stop offset="0.596534" stop-color="#C1D3E8"/>
<stop offset="0.776028" stop-color="#8AACDB"/>
<stop offset="1" stop-color="#738DBA"/>
</radialGradient>
<radialGradient id="paint13_radial_13345_316745" cx="0" cy="0" r="1" gradientUnits="userSpaceOnUse" gradientTransform="translate(8.40672 18.6383) scale(21.2935 21.2977)">
<stop stop-color="#C1D3E8"/>
<stop offset="0.618434" stop-color="#8AACDB"/>
<stop offset="0.871991" stop-color="#738DBA"/>
</radialGradient>
<linearGradient id="paint14_linear_13345_316745" x1="20.1441" y1="27.2735" x2="20.1441" y2="25.0336" gradientUnits="userSpaceOnUse">
<stop stop-color="white"/>
<stop offset="0.265393" stop-color="#8AACDB"/>
<stop offset="0.64255" stop-color="#738DBA"/>
<stop offset="0.709515" stop-color="#6383B0"/>
<stop offset="0.83975" stop-color="#3A6A97"/>
<stop offset="1" stop-color="#004673"/>
</linearGradient>
<radialGradient id="paint15_radial_13345_316745" cx="0" cy="0" r="1" gradientUnits="userSpaceOnUse" gradientTransform="translate(8.40672 18.6383) scale(21.2935 21.2977)">
<stop offset="0.618434" stop-color="#8AACDB"/>
<stop offset="0.871991" stop-color="#738DBA"/>
</radialGradient>
<radialGradient id="paint16_radial_13345_316745" cx="0" cy="0" r="1" gradientUnits="userSpaceOnUse" gradientTransform="translate(16.6071 15.8217) scale(12.9083 12.9108)">
<stop stop-color="white"/>
<stop offset="0.64255" stop-color="#738DBA"/>
<stop offset="0.709515" stop-color="#6383B0"/>
<stop offset="0.83975" stop-color="#3A6A97"/>
<stop offset="1" stop-color="#004673"/>
</radialGradient>
<radialGradient id="paint17_radial_13345_316745" cx="0" cy="0" r="1" gradientUnits="userSpaceOnUse" gradientTransform="translate(8.406 18.6384) scale(21.2934 21.2975)">
<stop offset="0.618434" stop-color="#8AACDB"/>
<stop offset="0.871991" stop-color="#738DBA"/>
</radialGradient>
<linearGradient id="paint18_linear_13345_316745" x1="20.0951" y1="27.0451" x2="20.1965" y2="22.9884" gradientUnits="userSpaceOnUse">
<stop stop-color="#C8731B"/>
<stop offset="0.150909" stop-color="#D2AB47"/>
<stop offset="0.245377" stop-color="white"/>
<stop offset="0.393945" stop-color="#DFB346"/>
<stop offset="0.45671" stop-color="#ECC561"/>
<stop offset="0.556003" stop-color="#FFDE87"/>
<stop offset="0.816745" stop-color="#D0842F"/>
</linearGradient>
<linearGradient id="paint19_linear_13345_316745" x1="20.0951" y1="27.0451" x2="20.1965" y2="22.9884" gradientUnits="userSpaceOnUse">
<stop stop-color="#C8731B"/>
<stop offset="0.393945" stop-color="#DFB346"/>
<stop offset="0.466116" stop-color="#DCAA42"/>
<stop offset="0.816745" stop-color="#D0842F"/>
</linearGradient>
<linearGradient id="paint20_linear_13345_316745" x1="20.2073" y1="23.6088" x2="20.2073" y2="28.8909" gradientUnits="userSpaceOnUse">
<stop stop-color="#C8731B"/>
<stop offset="0.150909" stop-color="#D2AB47"/>
<stop offset="0.245377" stop-color="white"/>
<stop offset="0.393945" stop-color="#DFB346"/>
<stop offset="0.45671" stop-color="#ECC561"/>
<stop offset="0.556003" stop-color="#FFDE87"/>
<stop offset="0.816745" stop-color="#D0842F"/>
</linearGradient>
<linearGradient id="paint21_linear_13345_316745" x1="20.2073" y1="23.6088" x2="20.2073" y2="28.8909" gradientUnits="userSpaceOnUse">
<stop stop-color="#C8731B"/>
<stop offset="0.393945" stop-color="#DFB346"/>
<stop offset="0.466116" stop-color="#DCAA42"/>
<stop offset="0.816745" stop-color="#D0842F"/>
</linearGradient>
<radialGradient id="paint22_radial_13345_316745" cx="0" cy="0" r="1" gradientUnits="userSpaceOnUse" gradientTransform="translate(44.0204 18.6383) scale(21.2936 21.2978)">
<stop stop-color="#C1D3E8"/>
<stop offset="0.618434" stop-color="#8AACDB"/>
<stop offset="0.871991" stop-color="#738DBA"/>
</radialGradient>
<linearGradient id="paint23_linear_13345_316745" x1="55.7593" y1="27.2735" x2="55.7593" y2="25.0336" gradientUnits="userSpaceOnUse">
<stop stop-color="white"/>
<stop offset="0.265393" stop-color="#8AACDB"/>
<stop offset="0.64255" stop-color="#738DBA"/>
<stop offset="0.709515" stop-color="#6383B0"/>
<stop offset="0.83975" stop-color="#3A6A97"/>
<stop offset="1" stop-color="#004673"/>
</linearGradient>
<radialGradient id="paint24_radial_13345_316745" cx="0" cy="0" r="1" gradientUnits="userSpaceOnUse" gradientTransform="translate(44.0204 18.6383) scale(21.2936 21.2978)">
<stop offset="0.618434" stop-color="#8AACDB"/>
<stop offset="0.871991" stop-color="#738DBA"/>
</radialGradient>
<radialGradient id="paint25_radial_13345_316745" cx="0" cy="0" r="1" gradientUnits="userSpaceOnUse" gradientTransform="translate(52.2204 15.8217) scale(12.9083 12.9108)">
<stop stop-color="white"/>
<stop offset="0.64255" stop-color="#738DBA"/>
<stop offset="0.709515" stop-color="#6383B0"/>
<stop offset="0.83975" stop-color="#3A6A97"/>
<stop offset="1" stop-color="#004673"/>
</radialGradient>
<radialGradient id="paint26_radial_13345_316745" cx="0" cy="0" r="1" gradientUnits="userSpaceOnUse" gradientTransform="translate(44.0192 18.6384) scale(21.2935 21.2976)">
<stop offset="0.618434" stop-color="#8AACDB"/>
<stop offset="0.871991" stop-color="#738DBA"/>
</radialGradient>
<linearGradient id="paint27_linear_13345_316745" x1="55.7089" y1="27.0451" x2="55.8104" y2="22.9884" gradientUnits="userSpaceOnUse">
<stop stop-color="#C8731B"/>
<stop offset="0.150909" stop-color="#D2AB47"/>
<stop offset="0.245377" stop-color="white"/>
<stop offset="0.393945" stop-color="#DFB346"/>
<stop offset="0.45671" stop-color="#ECC561"/>
<stop offset="0.556003" stop-color="#FFDE87"/>
<stop offset="0.816745" stop-color="#D0842F"/>
</linearGradient>
<linearGradient id="paint28_linear_13345_316745" x1="55.7089" y1="27.0451" x2="55.8104" y2="22.9884" gradientUnits="userSpaceOnUse">
<stop stop-color="#C8731B"/>
<stop offset="0.393945" stop-color="#DFB346"/>
<stop offset="0.466116" stop-color="#DCAA42"/>
<stop offset="0.816745" stop-color="#D0842F"/>
</linearGradient>
<linearGradient id="paint29_linear_13345_316745" x1="55.8201" y1="23.6088" x2="55.8201" y2="28.8909" gradientUnits="userSpaceOnUse">
<stop stop-color="#C8731B"/>
<stop offset="0.150909" stop-color="#D2AB47"/>
<stop offset="0.245377" stop-color="white"/>
<stop offset="0.393945" stop-color="#DFB346"/>
<stop offset="0.45671" stop-color="#ECC561"/>
<stop offset="0.556003" stop-color="#FFDE87"/>
<stop offset="0.816745" stop-color="#D0842F"/>
</linearGradient>
<linearGradient id="paint30_linear_13345_316745" x1="55.8201" y1="23.6088" x2="55.8201" y2="28.8909" gradientUnits="userSpaceOnUse">
<stop stop-color="#C8731B"/>
<stop offset="0.393945" stop-color="#DFB346"/>
<stop offset="0.466116" stop-color="#DCAA42"/>
<stop offset="0.816745" stop-color="#D0842F"/>
</linearGradient>
<linearGradient id="paint31_linear_13345_316745" x1="7.8545" y1="46.5951" x2="13.2302" y2="46.5951" gradientUnits="userSpaceOnUse">
<stop stop-color="#C8731B"/>
<stop offset="0.150909" stop-color="#D2AB47"/>
<stop offset="0.245377" stop-color="white"/>
<stop offset="0.393945" stop-color="#DFB346"/>
<stop offset="0.45671" stop-color="#ECC561"/>
<stop offset="0.556003" stop-color="#FFDE87"/>
<stop offset="0.816745" stop-color="#D0842F"/>
</linearGradient>
<linearGradient id="paint32_linear_13345_316745" x1="7.8545" y1="46.6554" x2="13.2302" y2="46.6554" gradientUnits="userSpaceOnUse">
<stop stop-color="#C8731B"/>
<stop offset="0.393945" stop-color="#DFB346"/>
<stop offset="0.466116" stop-color="#DCAA42"/>
<stop offset="0.816745" stop-color="#D0842F"/>
</linearGradient>
<linearGradient id="paint33_linear_13345_316745" x1="9.44236" y1="46.5478" x2="11.4561" y2="46.5478" gradientUnits="userSpaceOnUse">
<stop offset="0.418569" stop-color="#C1D3E8"/>
<stop offset="0.548066" stop-color="#8AACDB"/>
<stop offset="0.728177" stop-color="#456BAA"/>
<stop offset="0.921536"/>
</linearGradient>
</defs>
</svg>
