<svg width="56" height="56" viewBox="0 0 56 56" fill="none" xmlns="http://www.w3.org/2000/svg">
<path opacity="0.5" d="M56.0002 29.0043C56.0002 43.9149 43.6202 56.0005 28.343 56.0005C13.059 56.0005 0.677734 43.9149 0.677734 29.0043C0.677734 14.0997 13.059 2.01025 28.343 2.01025C43.6202 2.01025 56.0002 14.0997 56.0002 29.0043Z" fill="#7F807F"/>
<path d="M55.4826 27.1606C55.4826 42.0741 43.1052 54.1606 27.8239 54.1606C12.5516 54.1606 0.167969 42.0741 0.167969 27.1606C0.167969 12.256 12.5516 0.169434 27.8239 0.169434C43.1052 0.169434 55.4826 12.256 55.4826 27.1606Z" fill="#FF4F28"/>
<path d="M27.8222 54.3227C12.4846 54.3227 0 42.1379 0 27.1604C0 12.1879 12.4846 0.000488281 27.8222 0.000488281C43.1665 0.000488281 55.6538 12.1879 55.6538 27.1604C55.6538 42.1379 43.1665 54.3227 27.8222 54.3227ZM27.8222 0.33249C12.6707 0.33249 0.341312 12.3695 0.341312 27.1604C0.341312 41.9613 12.6707 53.9933 27.8222 53.9933C42.991 53.9933 55.3175 41.9613 55.3175 27.1604C55.3175 12.3695 42.991 0.33249 27.8222 0.33249Z" fill="#9F261A"/>
<path d="M1.5308 28.3718C1.5308 28.3718 1.32306 27.1882 1.39985 25.0777C1.43281 24.0281 1.55834 22.7503 1.837 21.3124C2.12205 19.8687 2.57334 18.2599 3.27048 16.5799C3.97654 14.9087 4.95769 13.1696 6.24094 11.5113C7.52665 9.84629 9.14049 8.30551 10.9955 6.95585C12.8551 5.61284 14.9259 4.45738 17.139 3.48422C17.6806 3.24337 18.2418 2.98277 18.8187 2.79261C19.3796 2.58056 19.9408 2.3547 20.5372 2.19119C21.1219 2.00985 21.7024 1.81302 22.2937 1.68546L23.1963 1.45817C23.4996 1.38677 23.8034 1.34846 24.1094 1.28729L25.0118 1.1276L25.9315 1.02169C26.2375 0.988612 26.5447 0.942437 26.8507 0.926971L27.7758 0.882463C29.0066 0.831295 30.2372 0.910548 31.4487 1.03573C33.8697 1.33322 36.1949 2.00985 38.3284 2.91375C40.4618 3.81884 42.3859 5.0012 44.0509 6.29446C45.7252 7.58534 47.1428 8.99236 48.3241 10.3839C49.5052 11.7833 50.4549 13.1632 51.1744 14.4489C51.8961 15.7424 52.4325 16.9145 52.7726 17.9153C52.9465 18.4134 53.0735 18.8639 53.1818 19.2556C53.2698 19.6555 53.3649 19.9927 53.4175 20.2695C53.4998 20.8288 53.5456 21.1277 53.5456 21.1277L53.4776 21.1303C53.4776 21.1303 53.4175 20.8402 53.2869 20.2952C53.2262 20.0244 53.1113 19.7014 53.0016 19.3123C52.8734 18.9239 52.7178 18.486 52.5203 18.0097C51.7408 16.0779 50.2613 13.4391 47.8755 10.7552C46.6774 9.42266 45.2517 8.08441 43.6191 6.8359C42.7979 6.21283 41.9123 5.63307 40.9851 5.06117C40.5167 4.797 40.0432 4.51855 39.5541 4.26722C39.0557 4.0347 38.5691 3.74744 38.0421 3.53682C35.9819 2.63029 33.727 1.94201 31.37 1.60383C29.0114 1.28729 26.5711 1.29253 24.1694 1.64714C23.8688 1.69307 23.5628 1.71878 23.2617 1.78637L22.3749 1.97533C21.7783 2.08505 21.1936 2.25998 20.6194 2.42062C20.0283 2.57532 19.4595 2.79903 18.8982 2.99657C18.3163 3.18696 17.7747 3.43591 17.2164 3.66843C15.0227 4.62326 12.985 5.82847 11.223 7.2343C10.9955 7.40137 10.777 7.58534 10.5768 7.77288C10.3608 7.94923 10.1452 8.13535 9.93726 8.3167C9.52891 8.68964 9.14607 9.0778 8.76376 9.4505C8.03009 10.2445 7.3186 11.0275 6.71686 11.8559C5.48629 13.4876 4.50127 15.1652 3.80153 16.7995C3.08468 18.43 2.60876 19.9927 2.27251 21.3983C1.93626 22.8013 1.78193 24.0641 1.68662 25.0955C1.58029 26.1325 1.57128 26.9545 1.57396 27.5124C1.57396 28.0702 1.60811 28.3692 1.60811 28.3692L1.5308 28.3718Z" fill="white"/>
<g opacity="0.5">
<path d="M50.6934 11.9924C54.1899 17.2873 54.6214 21.8682 54.756 26.2844C54.8348 29.0742 54.2054 31.6988 53.435 33.7584C52.0447 37.4504 51.876 34.9034 52.1768 33.89C53.9165 28.0858 53.2426 24.7712 52.9537 22.9994C50.6332 8.66162 35.5287 2.69296 28.6788 2.58063C21.8118 2.47591 14.61 3.90078 7.86708 11.9098C1.12083 19.9185 2.92069 29.3586 3.04086 31.883C3.14548 34.4069 1.12083 33.5335 0.672143 27.4908C0.448322 24.4435 1.07737 20.89 1.76692 18.125C0.729735 20.9462 0.166016 23.9901 0.166016 27.1602C0.166016 42.0737 12.5497 54.1602 27.822 54.1602C43.1032 54.1602 55.4807 42.0737 55.4807 27.1602C55.4807 21.5388 53.7188 16.3129 50.6934 11.9924Z" fill="#B82522"/>
</g>
<path d="M52.2774 27.1608C52.2774 40.3507 41.3244 51.0393 27.822 51.0393C14.3172 51.0393 3.36914 40.3507 3.36914 27.1608C3.36914 13.9862 14.3172 3.29761 27.822 3.29761C41.3244 3.29761 52.2774 13.9862 52.2774 27.1608Z" fill="#F8F6EC"/>
<path d="M27.8228 51.1946C14.2473 51.1946 3.20117 40.4113 3.20117 27.1602C3.20117 13.9115 14.2473 3.13086 27.8228 3.13086C41.4022 3.13086 52.4511 13.9115 52.4511 27.1602C52.4511 40.4113 41.4022 51.1946 27.8228 51.1946ZM27.8228 3.45525C14.4328 3.45525 3.54256 14.0929 3.54256 27.1602C3.54256 40.2375 14.4328 50.8678 27.8228 50.8678C41.2101 50.8678 52.1109 40.2375 52.1109 27.1602C52.1109 14.0929 41.2101 3.45525 27.8228 3.45525Z" fill="#9F261A"/>
<path opacity="0.3" d="M42.5697 31.9608C34.6342 35.3479 26.3808 36.8468 17.8734 34.6508C14.0713 33.6653 9.95627 32.3849 6.69025 30.1825C5.5143 29.3869 4.41953 28.5327 3.38086 27.6264C3.63229 40.585 14.4752 51.0389 27.8221 51.0389C41.3245 51.0389 52.2774 40.3503 52.2774 27.1604C52.2774 26.8832 52.2618 26.5947 52.2579 26.3101C49.2023 28.4868 46.049 30.4759 42.5697 31.9608Z" fill="#FBD87E"/>
<path opacity="0.5" d="M27.824 3.29736C14.3192 3.29736 3.37109 13.9859 3.37109 27.1606C3.37109 40.3505 14.3192 51.039 27.824 51.039C41.3264 51.039 52.2793 40.3505 52.2793 27.1606C52.2793 13.9859 41.3264 3.29736 27.824 3.29736ZM27.824 49.0604C15.1287 49.0604 4.82965 39.0099 4.82965 26.6153C4.82965 14.2261 15.1287 4.17318 27.824 4.17318C40.5193 4.17318 50.8159 14.2261 50.8159 26.6153C50.8159 39.0099 40.5193 49.0604 27.824 49.0604Z" fill="#FBD87E"/>
<path d="M27.9748 26.3383C27.9889 26.3292 27.9916 26.3292 28.0021 26.3292C28.6038 26.2654 29.2252 26.2704 29.8296 26.2654C30.4664 26.2502 31.1074 26.2169 31.7365 26.2066C32.3958 26.1878 33.0527 26.1878 33.7037 26.2119C34.0201 26.2271 34.3381 26.249 34.6611 26.2502C34.8143 26.2502 34.9728 26.2807 35.1307 26.2988C35.1426 26.2502 35.1283 26.1276 35.1283 26.111C35.1283 26.111 35.1426 25.5876 35.1478 25.5122C35.1558 25.4317 35.1609 25.3308 35.1751 25.2275C35.2902 25.2951 35.4214 25.3615 35.5442 25.4317C36.0253 25.6885 36.4661 25.9717 36.8653 26.3383C37.1439 26.5948 37.446 26.8759 37.7077 27.1605C37.6589 27.2103 37.6226 27.2486 37.5794 27.2869L37.5768 27.2779C37.5323 27.3176 37.4995 27.3507 37.459 27.3876C37.3217 27.499 37.1779 27.6046 37.043 27.7108C36.7397 27.9354 36.4337 28.1487 36.126 28.3529C35.7718 28.5866 35.416 28.7946 35.0324 28.99C35.0051 29.0043 34.983 29.0102 34.9556 29.0155C34.9556 29.0155 34.9371 29.0155 34.9281 29.0155C34.9281 29.0283 34.9201 29.0359 34.9201 29.0435C34.8678 29.0719 34.8143 29.0947 34.7594 29.1216C34.7672 29.0155 34.7813 28.9031 34.7867 28.8251C34.8143 28.6375 34.8143 28.4476 34.8416 28.2672C34.0755 28.3529 33.2736 28.2751 32.5214 28.2458C31.4961 28.1982 30.4533 28.1423 29.4253 28.0006C29.0144 28.0363 28.5933 28.0706 28.1776 28.0887C27.712 28.1027 27.2304 28.0887 27.1048 27.5525C27.0227 27.1922 27.2199 26.7762 27.4803 26.5337C27.6005 26.4187 27.7788 26.3599 27.9748 26.3383Z" fill="#FBD87E"/>
<path d="M30.1564 13.9984C29.9112 13.5479 29.6454 13.138 29.3013 12.7511C29.0634 12.4883 28.7925 12.2061 28.5323 11.9507C28.4904 11.9926 28.4497 12.0285 28.4041 12.0706L28.4119 12.0744C28.3765 12.104 28.3438 12.1423 28.2968 12.1768C28.1934 12.3005 28.0837 12.4271 27.9737 12.5583C27.7606 12.8265 27.5393 13.1035 27.3315 13.3806C27.0984 13.6997 26.8804 14.0317 26.6853 14.3663C26.6776 14.3982 26.6695 14.4237 26.6605 14.4427C26.6551 14.4491 26.6551 14.4608 26.6551 14.4699C26.6551 14.4699 26.642 14.4699 26.6332 14.4699C26.6003 14.522 26.573 14.5755 26.5547 14.6231C26.6551 14.6231 26.76 14.6088 26.8476 14.6024C27.0306 14.5834 27.202 14.5884 27.3942 14.5755C27.2794 15.274 27.3315 17.7701 27.3418 18.4646C27.3588 19.3023 27.567 25.4559 27.6675 26.8934C27.6621 26.9217 27.6621 26.9548 27.6621 26.9817C27.6546 27.0069 27.6546 27.0314 27.6621 27.0669C27.6675 27.094 27.678 27.1604 27.6675 27.0812C27.678 27.1669 27.7606 27.2102 27.8431 27.214C27.9357 27.2268 28.0235 27.2268 28.1162 27.2268C28.2641 27.2268 28.4223 27.3058 28.5648 27.2537C28.6801 27.2102 28.8605 27.2204 28.939 27.1209C28.948 27.1157 28.948 27.1055 28.948 27.1055C28.9639 27.1055 28.981 27.1005 29.0085 27.1005C29.0239 26.5309 29.2738 19.8126 29.3013 19.2447C29.3277 18.6381 29.3445 18.0355 29.3365 17.4343C29.3365 17.1418 29.3277 15.0863 29.3277 14.7876C29.3277 14.6483 29.304 14.5032 29.3013 14.3485C29.3365 14.3432 29.4674 14.3637 29.4725 14.3561C29.4725 14.3561 29.9765 14.3561 30.0506 14.3561C30.1372 14.3561 30.2391 14.3485 30.332 14.3368C30.272 14.2309 30.2091 14.1162 30.1564 13.9984Z" fill="#FBD87E"/>
<path d="M30.3812 27.6919C30.3812 28.8317 29.4237 29.7589 28.2636 29.7589C27.0901 29.7589 26.1406 28.8317 26.1406 27.6919C26.1406 26.5491 27.0901 25.6223 28.2636 25.6223C29.4237 25.6223 30.3812 26.5491 30.3812 27.6919Z" fill="#FBD87E"/>
<path d="M25.4435 9.32312V9.07823L26.015 9.02706C26.0857 9.01802 26.1238 8.99897 26.1511 8.97089C26.184 8.94662 26.2008 8.88664 26.2113 8.80739C26.2388 8.65174 26.2532 8.30855 26.2532 7.77973V7.06337C26.2532 6.81585 26.2532 6.55263 26.2439 6.26799L26.2388 6.01405C26.2388 5.95026 26.2361 5.90814 26.2205 5.89029C26.2059 5.8684 26.1954 5.86363 26.1954 5.86363C26.1654 5.86363 26.1183 5.88387 26.0452 5.91838C25.6398 6.08045 25.3911 6.1954 25.2867 6.25656L25.2484 6.23467C25.2353 6.1854 25.233 6.12757 25.2211 6.04213C25.208 5.97454 25.1909 5.91838 25.1831 5.86363L25.1885 5.84293C25.5439 5.73679 25.8319 5.65135 26.053 5.57733C26.2661 5.50974 26.5997 5.39098 27.0576 5.2251L27.1256 5.27365C27.1256 5.30697 27.1178 5.40121 27.1031 5.5521C27.09 5.7037 27.09 5.80485 27.09 5.85078C27.0807 6.02166 27.0758 6.45838 27.0654 7.17094V7.61266C27.0654 8.04533 27.0654 8.33521 27.0705 8.50871C27.0758 8.76145 27.09 8.9033 27.1086 8.95185C27.1178 8.97875 27.1361 8.99897 27.1688 9.01182C27.2183 9.03991 27.3714 9.05014 27.6067 9.06657C27.6774 9.06657 27.7442 9.0718 27.7978 9.07823V9.32312C27.3714 9.30265 27.0051 9.29266 26.7292 9.29266C26.546 9.29266 26.1133 9.30265 25.4435 9.32312Z" fill="#FBD87E"/>
<path d="M28.2456 9.32353V9.01842L28.8147 8.46842C29.1076 8.18259 29.3262 7.95007 29.466 7.79418C29.6086 7.63067 29.7237 7.48883 29.7995 7.34603C29.8714 7.20681 29.9371 7.08948 29.9646 6.97976C29.997 6.87005 30.0129 6.75866 30.0129 6.64133C30.0129 6.41286 29.9475 6.2415 29.8349 6.12417C29.7118 6.00018 29.5484 5.94282 29.3431 5.94282C29.2304 5.94282 29.118 5.96971 29.0173 6.01445C28.9193 6.05777 28.8238 6.12798 28.7543 6.21366C28.7165 6.34122 28.6787 6.49211 28.6287 6.68632H28.3934L28.4707 6.01065C28.489 5.90474 28.4955 5.79122 28.5085 5.67627C28.6458 5.55251 28.7911 5.4604 28.9718 5.40162C29.1429 5.34046 29.335 5.30737 29.5484 5.30737C29.849 5.30737 30.0926 5.35307 30.2757 5.45279C30.4639 5.54347 30.5988 5.67627 30.6914 5.85119C30.7846 6.02207 30.8343 6.19581 30.8343 6.38097C30.8343 6.49211 30.8172 6.61301 30.7792 6.71939C30.7411 6.8303 30.6863 6.95668 30.5988 7.08948C30.5112 7.22489 30.4232 7.34223 30.32 7.44052L29.9826 7.78656L29.6608 8.09048C29.4935 8.25637 29.3182 8.42367 29.1102 8.59598L29.1273 8.6343H29.6608C29.7393 8.6343 30.0129 8.62906 30.4639 8.61883C30.6116 8.61621 30.8016 8.60764 31.0094 8.59598L31.0252 8.6343C31.0094 8.8078 31.0001 8.94702 31.0001 9.04674C31.0001 9.10672 31.0094 9.19216 31.0252 9.29307L31.0145 9.32353L30.1121 9.29568C29.9098 9.29307 29.7668 9.29307 29.6793 9.29307L28.2456 9.32353Z" fill="#FBD87E"/>
<path d="M38.3925 12.5727V12.334L38.9681 12.2779C39.0334 12.2676 39.0686 12.2498 39.0989 12.2217C39.1317 12.1988 39.1486 12.1427 39.1644 12.0556C39.1814 11.9014 39.2088 11.5567 39.2088 11.0282V10.312C39.2088 10.0678 39.1995 9.80129 39.1919 9.51641L39.1814 9.26223C39.1814 9.20107 39.1814 9.16013 39.1749 9.13847C39.1591 9.12467 39.1447 9.11182 39.1266 9.11182C39.1119 9.11182 39.0686 9.13205 38.9891 9.16656C38.5953 9.33886 38.3442 9.4512 38.2291 9.50237L38.1991 9.48452C38.1872 9.44477 38.1794 9.37456 38.1638 9.29293C38.1638 9.22415 38.1467 9.16656 38.1362 9.11182V9.09135C38.4997 8.98544 38.7811 8.90096 39.0006 8.83336C39.2139 8.76173 39.5528 8.64059 40.0014 8.47852L40.0787 8.52302C40.0787 8.55515 40.0668 8.6494 40.0536 8.80147C40.0419 8.95212 40.0366 9.06041 40.0366 9.10016C40.029 9.27127 40.0185 9.71561 40.0119 10.4179V10.8623C40.0119 11.2949 40.0119 11.5936 40.0119 11.7595C40.0185 12.0096 40.0366 12.1555 40.0536 12.2C40.0668 12.2281 40.0892 12.2498 40.1165 12.26C40.166 12.2881 40.3102 12.3098 40.5598 12.3162C40.6251 12.3162 40.6959 12.3212 40.7561 12.334V12.5727C40.3102 12.5513 39.9517 12.5449 39.6783 12.5449C39.4926 12.5449 39.0686 12.5513 38.3925 12.5727Z" fill="#FBD87E"/>
<path d="M45.2769 19.9677V19.6588L45.8379 19.1112C46.1308 18.8263 46.3495 18.6016 46.4867 18.4419C46.6303 18.2746 46.7379 18.1304 46.8203 17.99C46.8985 17.8574 46.9588 17.7322 46.9863 17.6299C47.0192 17.5137 47.0307 17.3988 47.0307 17.2815C47.0307 17.0568 46.9785 16.8816 46.853 16.7643C46.7379 16.6444 46.5706 16.587 46.3716 16.587C46.2539 16.587 46.1413 16.6101 46.0435 16.6482C45.9386 16.7043 45.8511 16.7695 45.7777 16.859C45.737 16.9854 45.6926 17.1358 45.6497 17.3286H45.4193L45.5017 16.6482C45.5071 16.5472 45.5226 16.4373 45.5346 16.32C45.6653 16.1936 45.813 16.1005 45.9881 16.0417C46.1637 15.9832 46.3599 15.9473 46.5706 15.9473C46.8688 15.9473 47.1158 15.9972 47.3016 16.0903C47.4874 16.1872 47.6247 16.32 47.7202 16.4925C47.8078 16.6648 47.8485 16.8371 47.8485 17.0209C47.8485 17.1358 47.8326 17.2536 47.8078 17.3671C47.766 17.4742 47.7058 17.598 47.618 17.7322C47.532 17.865 47.4376 17.9862 47.3564 18.0897L46.9956 18.4307L46.6882 18.7332C46.5194 18.9015 46.3324 19.0636 46.1308 19.2361L46.1493 19.2782H46.6882C46.7703 19.2782 47.0307 19.2706 47.4952 19.2642C47.6402 19.2563 47.8128 19.249 48.0236 19.2361L48.0513 19.2782C48.0316 19.4517 48.0131 19.5912 48.0131 19.6869C48.0131 19.7468 48.0316 19.8323 48.0513 19.9308L48.0408 19.9677L47.1316 19.941C46.9353 19.9308 46.7873 19.9308 46.7023 19.9308L45.2769 19.9677Z" fill="#FBD87E"/>
<path d="M47.9088 29.9648C47.8934 29.8829 47.8763 29.7363 47.8332 29.5166C47.8057 29.2972 47.7666 29.1437 47.7534 29.0609L47.9587 29.0049C48.0322 29.1822 48.1116 29.3277 48.2098 29.4388C48.3026 29.5552 48.4128 29.6418 48.5434 29.693C48.6612 29.7491 48.7958 29.7746 48.9289 29.7746C49.162 29.7746 49.3424 29.702 49.4904 29.5602C49.6187 29.4157 49.6906 29.2206 49.6906 28.983C49.6906 28.7277 49.616 28.5335 49.4629 28.4097C49.31 28.2757 49.1098 28.2143 48.8768 28.2143C48.7736 28.2143 48.6534 28.2272 48.5251 28.2603L48.4895 28.2272L48.4949 28.1889L48.5434 28.0151L48.6037 27.7881L48.6256 27.7764L48.8509 27.7881C48.9594 27.7881 49.0742 27.755 49.1791 27.695C49.2824 27.6372 49.3676 27.566 49.4251 27.4663C49.4904 27.3668 49.5229 27.2592 49.5229 27.1471C49.5229 26.9939 49.4575 26.8625 49.3424 26.7614C49.2327 26.649 49.0796 26.6057 48.8992 26.6057C48.7814 26.6057 48.6612 26.6276 48.5707 26.6569C48.4676 26.6897 48.4023 26.7385 48.3498 26.7973C48.3026 26.8508 48.2569 26.9503 48.2098 27.0857C48.1874 27.1419 48.177 27.1778 48.1616 27.2147L47.9444 27.1928L48.0738 26.5929C48.0897 26.5012 48.1067 26.3989 48.1275 26.2854C48.2543 26.1909 48.4023 26.1207 48.5707 26.0757C48.7304 26.0221 48.9162 26.0007 49.1098 26.0007C49.4734 26.0007 49.7362 26.0783 49.9286 26.2497C50.1195 26.4053 50.2151 26.6095 50.2151 26.8508C50.2151 27.0322 50.1471 27.2009 50.0422 27.3385C49.9337 27.488 49.7665 27.617 49.5333 27.7383C49.5782 27.7383 49.6357 27.7448 49.714 27.7662C49.8186 27.7881 49.9115 27.8162 50.0149 27.8685C50.1117 27.9221 50.1849 27.9835 50.2621 28.0537C50.3224 28.1277 50.3706 28.2143 50.4097 28.3064C50.4372 28.4007 50.453 28.5118 50.453 28.6446C50.453 29.029 50.2999 29.3572 49.9795 29.634C49.6107 29.9583 49.1673 30.118 48.6585 30.118C48.5054 30.118 48.3798 30.1104 48.2701 30.0835C48.1616 30.0657 48.0414 30.0195 47.9088 29.9648Z" fill="#FBD87E"/>
<path d="M46.3202 38.9229V38.6766C46.6433 38.6573 46.824 38.6382 46.8842 38.6318C46.922 38.6166 46.9571 38.6037 46.9768 38.5871C46.9939 38.5566 47.0175 38.4952 47.029 38.4148C47.029 38.3738 47.0368 38.2003 47.0539 37.8864H46.6537C46.2849 37.8864 45.9162 37.894 45.5549 37.9014L45.5054 37.6551C45.5653 37.508 45.6909 37.2388 45.9043 36.8545C46.18 36.3185 46.4302 35.8996 46.616 35.5905C46.8186 35.2894 46.9495 35.085 47.0368 34.9803L47.3982 34.9191C47.6385 34.8682 47.7643 34.8398 47.8061 34.8398L47.8468 34.886C47.8468 35.0236 47.8309 35.2359 47.8309 35.5129C47.8193 35.7002 47.8111 36.1064 47.8061 36.7295V37.4061H47.9146L48.3398 37.3845L48.3632 37.4138L48.3557 37.6767C48.3557 37.7227 48.3557 37.7905 48.3632 37.8864H48.1747H47.8061C47.8061 38.1784 47.8061 38.3779 47.8193 38.4773C47.8309 38.5271 47.8387 38.5566 47.8663 38.5871C47.8911 38.6037 47.9341 38.623 47.9891 38.6382L48.383 38.6766V38.9229C48.2874 38.9229 48.2076 38.9229 48.1423 38.9179L47.3625 38.895L46.3202 38.9229ZM45.9567 37.4061H47.0539L47.0697 36.3233V35.933L47.0812 35.3839C46.8015 35.828 46.5962 36.1638 46.4731 36.3849C46.3529 36.6017 46.18 36.939 45.9567 37.4061Z" fill="#FBD87E"/>
<path d="M38.5332 44.9029L38.41 44.8456C38.4259 44.7371 38.4295 44.5866 38.4295 44.3924L38.4532 43.92V43.5304L38.44 43.1987C38.44 43.0506 38.4295 42.9688 38.4295 42.9395C38.4295 42.8897 38.4259 42.8371 38.4259 42.7874C38.4203 42.7429 38.41 42.6841 38.4049 42.6215L38.4427 42.5908C38.9347 42.6075 39.3531 42.6215 39.7113 42.6215C39.8434 42.6215 39.9522 42.6215 40.037 42.6151L40.6151 42.5908L40.6388 42.6356C40.6151 42.8538 40.5956 42.993 40.5956 43.0594C40.5956 43.1106 40.6086 43.177 40.6151 43.2601L40.5761 43.2981C40.4949 43.2919 40.4074 43.2919 40.3106 43.2919C39.9861 43.2855 39.7781 43.2815 39.6788 43.2815C39.2473 43.2815 38.9489 43.2855 38.7816 43.2981L38.7604 44.2418C38.9294 44.1637 39.0691 44.114 39.1924 44.0807C39.31 44.054 39.4409 44.04 39.5808 44.04C39.9522 44.04 40.2504 44.1423 40.461 44.3386C40.6912 44.5443 40.7868 44.8099 40.7868 45.1433C40.7868 45.4061 40.7134 45.6588 40.5603 45.9066C40.4074 46.1567 40.1665 46.3535 39.8434 46.508C39.5977 46.6293 39.3232 46.6893 39.001 46.6893C38.8693 46.6893 38.7487 46.6803 38.6533 46.6586C38.5634 46.6396 38.4427 46.6089 38.3054 46.5475C38.2898 46.463 38.2781 46.374 38.2596 46.2895C38.2296 46.1952 38.1799 45.996 38.1011 45.7024L38.2952 45.6257C38.372 45.7788 38.4427 45.9066 38.5332 46.0037C38.6204 46.1031 38.7331 46.181 38.8745 46.2424C39.0091 46.3023 39.1452 46.3307 39.2797 46.3307C39.5035 46.3307 39.6906 46.264 39.8386 46.1108C39.9795 45.9677 40.0463 45.7638 40.0463 45.5084C40.0463 45.2428 39.969 45.0357 39.8266 44.8853C39.6788 44.7371 39.4775 44.6642 39.2249 44.6642C39.1271 44.6642 39.0339 44.6733 38.9567 44.6911C38.8745 44.7152 38.8118 44.7371 38.7487 44.7628C38.7265 44.7766 38.648 44.8292 38.5332 44.9029Z" fill="#FBD87E"/>
<path d="M30.1709 45.5288L30.4028 45.7125L30.3162 45.8046C30.2365 45.7982 30.1709 45.7918 30.1109 45.7918C29.9134 45.7918 29.7276 45.8403 29.5577 45.9322C29.385 46.0241 29.2385 46.1495 29.1261 46.3128C29.0059 46.4696 28.9181 46.6398 28.8579 46.8475C28.8135 46.992 28.7728 47.2243 28.7428 47.5358C28.9888 47.3085 29.1417 47.1848 29.1864 47.1565C29.2215 47.14 29.2895 47.1184 29.3995 47.0915C29.4923 47.0674 29.593 47.0584 29.6952 47.0584C29.9305 47.0584 30.1346 47.1488 30.3294 47.3304C30.523 47.5156 30.6105 47.8014 30.6105 48.1846C30.6105 48.6301 30.4903 48.9862 30.2365 49.2529C29.9739 49.5162 29.6596 49.6452 29.2712 49.6452C28.9559 49.6452 28.7102 49.5723 28.5073 49.4214C28.311 49.2737 28.1686 49.0795 28.0731 48.8495C27.9765 48.6185 27.9331 48.3236 27.9331 47.9647C27.9331 47.5411 27.9879 47.1848 28.1189 46.8973C28.2444 46.6091 28.4197 46.3537 28.6275 46.1569C28.8501 45.9524 29.0815 45.7918 29.3419 45.6873C29.6074 45.5774 29.8703 45.5288 30.1709 45.5288ZM28.7258 48.2736C28.7258 48.6082 28.7808 48.8712 28.8826 49.0604C28.9888 49.2468 29.1417 49.3389 29.3338 49.3389C29.4975 49.3389 29.6257 49.2737 29.7276 49.1558C29.8337 49.0295 29.8807 48.8088 29.8807 48.5114C29.8807 48.2917 29.8532 48.113 29.7983 47.9737C29.7381 47.8409 29.6596 47.74 29.5655 47.6777C29.4699 47.6163 29.3722 47.5846 29.2619 47.5846C29.1588 47.5846 29.0659 47.6086 28.9784 47.6634C28.8957 47.7148 28.8226 47.781 28.7899 47.8754C28.7428 47.9647 28.7258 48.1001 28.7258 48.2736Z" fill="#FBD87E"/>
<path d="M17.57 47.5971L17.5448 47.5233C18.0264 46.7149 18.3168 46.2363 18.4043 46.0832C18.7507 45.5201 18.9394 45.21 18.9734 45.1536L19.3996 44.3877L19.3723 44.3354H18.6033L18.1142 44.348C17.9139 44.348 17.7857 44.3544 17.7411 44.3659C17.7153 44.3749 17.6928 44.3877 17.6731 44.3989C17.655 44.427 17.6431 44.4527 17.6275 44.4998C17.6104 44.5665 17.5778 44.7514 17.5448 45.0489L17.2847 45.0425C17.3017 44.7833 17.3095 44.5665 17.3095 44.3877C17.3095 44.1935 17.3017 43.9484 17.2847 43.6319L17.3371 43.605L18.1295 43.6216C18.3168 43.6319 18.5301 43.6319 18.7507 43.6319C18.9066 43.6319 19.3343 43.6216 20.0564 43.6164V43.882C19.7504 44.427 19.5724 44.7631 19.4954 44.9032C19.2793 45.3028 19.1121 45.6325 18.9839 45.8969C18.8636 46.1634 18.7183 46.484 18.5576 46.8503C18.4372 47.1402 18.3377 47.3905 18.267 47.5971C18.1361 47.5847 18.0264 47.5769 17.9334 47.5769C17.8406 47.5769 17.7231 47.5847 17.57 47.5971Z" fill="#FBD87E"/>
<path d="M10.4038 39.2667C10.2402 39.1734 10.1173 39.0889 10.04 39.0173C9.97222 38.9359 9.90421 38.8438 9.86232 38.7162C9.80718 38.6039 9.79156 38.4723 9.79156 38.333C9.79156 38.106 9.85696 37.9015 9.97222 37.728C10.082 37.5557 10.2326 37.4294 10.4263 37.3346C10.6094 37.2454 10.842 37.1992 11.118 37.1992C11.4584 37.1992 11.7117 37.2837 11.9065 37.4508C12.0896 37.6233 12.1879 37.8287 12.1879 38.075C12.1879 38.2005 12.1603 38.3245 12.1054 38.4339C12.0571 38.5451 11.9746 38.6446 11.8702 38.7379C11.827 38.7928 11.7287 38.8566 11.6085 38.9359C11.7748 39.0099 11.9065 39.0777 11.9904 39.1403C12.0896 39.2167 12.1603 39.2881 12.2103 39.3674C12.2679 39.4518 12.3081 39.5385 12.3278 39.6377C12.3552 39.7453 12.3683 39.85 12.3683 39.9647C12.3683 40.2496 12.3029 40.5038 12.1554 40.7115C12.0101 40.9326 11.8048 41.0985 11.5417 41.2109C11.3613 41.2811 11.1479 41.3208 10.9022 41.3208C10.6642 41.3208 10.4731 41.2875 10.3161 41.2173C10.1958 41.1702 10.0978 41.0985 9.99953 41.0043C9.90421 40.9122 9.82422 40.8048 9.76425 40.6875C9.70941 40.5661 9.6792 40.4207 9.6792 40.2496C9.6792 40.118 9.69624 39.9957 9.73672 39.8936C9.77474 39.7836 9.82965 39.6905 9.90421 39.6111C9.97222 39.5332 10.04 39.4656 10.1173 39.4209C10.1356 39.4121 10.2326 39.3597 10.4038 39.2667ZM10.6642 39.3776C10.5189 39.4937 10.4104 39.6111 10.3385 39.7453C10.2731 39.8781 10.2326 40.0225 10.2326 40.182C10.2326 40.4207 10.3109 40.6185 10.4587 40.7729C10.6094 40.9326 10.7922 41.0043 11.0093 41.0043C11.2082 41.0043 11.3704 40.9379 11.4986 40.8048C11.619 40.6799 11.6895 40.5152 11.6895 40.3224C11.6895 40.1768 11.6658 40.0556 11.611 39.9647C11.5615 39.8717 11.4815 39.7836 11.3559 39.7046C11.2411 39.633 11.0329 39.5332 10.7493 39.4121L10.6642 39.3776ZM11.3011 38.8223C11.4162 38.7495 11.5039 38.6574 11.5693 38.5375C11.6295 38.4173 11.6658 38.2949 11.6658 38.1569C11.6658 37.9603 11.6085 37.8073 11.4986 37.695C11.3704 37.5772 11.2082 37.5162 11.0093 37.5162C10.842 37.5162 10.6888 37.5724 10.5842 37.6769C10.4731 37.7752 10.4263 37.908 10.4263 38.0574C10.4263 38.1288 10.4311 38.1786 10.4536 38.235C10.4731 38.2885 10.5031 38.3383 10.5413 38.3947C10.5842 38.4444 10.6287 38.4839 10.6888 38.5272C10.7493 38.5734 10.8198 38.6115 10.9127 38.6574L11.1375 38.7557L11.3011 38.8223Z" fill="#FBD87E"/>
<path d="M6.2931 30.9257L6.0605 30.7329L6.13245 30.6191C6.1922 30.6408 6.26825 30.6472 6.35069 30.6472C6.54423 30.6472 6.73665 30.5987 6.91441 30.5092C7.08942 30.4085 7.23742 30.2821 7.3462 30.1317C7.45856 29.9642 7.54614 29.793 7.60656 29.5938C7.64704 29.4496 7.6861 29.22 7.71899 28.911C7.52664 29.0922 7.38519 29.2035 7.3186 29.2554C7.28571 29.2761 7.25327 29.2966 7.21547 29.3156C7.07015 29.3654 6.91977 29.387 6.77683 29.387C6.52057 29.387 6.2931 29.2887 6.11266 29.0948C5.93497 28.8982 5.84717 28.6226 5.84717 28.2596C5.84717 27.8155 5.97932 27.4593 6.22777 27.1922C6.48135 26.9333 6.80466 26.7993 7.20111 26.7993C7.50566 26.7993 7.75411 26.876 7.9504 27.0214C8.15056 27.1746 8.29833 27.3598 8.3912 27.5985C8.479 27.8282 8.52848 28.1218 8.52848 28.4807C8.52848 28.9032 8.46315 29.2635 8.34268 29.5481C8.21589 29.8378 8.04721 30.0829 7.83016 30.2885C7.60879 30.4968 7.37887 30.6548 7.11725 30.7581C6.86485 30.8657 6.58865 30.9257 6.2931 30.9257ZM7.73432 28.1678C7.73432 27.8372 7.6861 27.5714 7.58148 27.3876C7.47173 27.2003 7.3186 27.1056 7.11725 27.1056C6.96263 27.1056 6.83219 27.167 6.72861 27.2996C6.63203 27.4262 6.58106 27.6366 6.58106 27.9355C6.58106 28.1537 6.60837 28.3351 6.66202 28.4665C6.72616 28.6045 6.7993 28.7052 6.89752 28.7651C6.99291 28.8315 7.08942 28.8649 7.20111 28.8649C7.30275 28.8649 7.39836 28.8368 7.48587 28.7859C7.57367 28.7321 7.63387 28.658 7.67434 28.5659C7.70701 28.4807 7.73432 28.3377 7.73432 28.1678Z" fill="#FBD87E"/>
<path d="M7.43351 20.7143V20.4755L8.01427 20.4168C8.07454 20.4091 8.11747 20.3899 8.15036 20.3646C8.17521 20.3363 8.19984 20.2854 8.21056 20.2061C8.23548 20.0453 8.24858 19.7083 8.24858 19.1694V18.4621C8.24858 18.2144 8.24858 17.9438 8.2459 17.6655L8.23273 17.4076C8.23273 17.3412 8.22105 17.2978 8.21569 17.2876C8.20252 17.2671 8.18816 17.2595 8.17008 17.2595C8.1555 17.2595 8.11747 17.2721 8.04039 17.309C7.64148 17.4804 7.38499 17.5915 7.28067 17.6475L7.23722 17.6296C7.23722 17.5863 7.22554 17.5199 7.21527 17.4406C7.20091 17.3669 7.19287 17.3133 7.17725 17.2533V17.2367C7.54594 17.1355 7.82996 17.0425 8.04701 16.9761C8.25498 16.9085 8.59897 16.7909 9.05301 16.6265L9.11834 16.6645C9.11834 16.6976 9.11298 16.7909 9.10249 16.9428C9.08538 17.0998 9.08054 17.1996 9.08054 17.2391C9.07518 17.4126 9.06737 17.8571 9.05301 18.5692V19.0033C9.05301 19.4348 9.05807 19.7337 9.05807 19.8972C9.07518 20.1576 9.08054 20.3032 9.10785 20.3454C9.11298 20.3696 9.13538 20.3899 9.16782 20.4027C9.21217 20.4308 9.36017 20.4513 9.60088 20.4627C9.66889 20.4627 9.7369 20.4691 9.79955 20.4755V20.7143C9.36017 20.7014 9.00718 20.6886 8.72725 20.6886C8.54413 20.6886 8.11747 20.7014 7.43351 20.7143Z" fill="#FBD87E"/>
<path d="M10.2944 18.8327C10.2944 18.4931 10.3154 18.1766 10.3703 17.8917C10.3978 17.7065 10.4581 17.538 10.5458 17.3822C10.628 17.2279 10.7289 17.1001 10.8413 17.0042C10.951 16.9088 11.0766 16.8371 11.2219 16.7836C11.3606 16.73 11.5174 16.7043 11.6888 16.7043C12.0173 16.7043 12.2852 16.7772 12.4659 16.9152C12.6582 17.063 12.7992 17.2598 12.8792 17.5202C12.9589 17.7858 12.997 18.1433 12.997 18.6081C12.997 18.9324 12.984 19.2233 12.9496 19.4634C12.9145 19.7085 12.8541 19.9192 12.7668 20.0953C12.679 20.2702 12.5757 20.4094 12.4659 20.5127C12.3677 20.6151 12.2421 20.6888 12.1048 20.7403C11.9661 20.7964 11.7988 20.8195 11.5959 20.8195C11.3777 20.8195 11.162 20.7836 10.9945 20.6967C10.8192 20.6125 10.6806 20.4758 10.5758 20.3135C10.4634 20.1465 10.3927 19.9308 10.3522 19.6805C10.3154 19.4303 10.2944 19.1531 10.2944 18.8327ZM11.0323 18.4243C11.0323 18.871 11.0547 19.2783 11.1015 19.6348C11.1473 19.9934 11.2246 20.2307 11.3251 20.3457C11.4299 20.463 11.5504 20.5206 11.6784 20.5206C11.8485 20.5206 11.9819 20.439 12.0889 20.2778C12.1926 20.1134 12.2526 19.7162 12.2526 19.0752C12.2526 18.659 12.2228 18.2494 12.1701 17.837C12.1443 17.6173 12.1048 17.4564 12.0565 17.3415C12.0095 17.237 11.9466 17.1577 11.8695 17.1001C11.7988 17.0492 11.711 17.0209 11.6103 17.0209C11.5033 17.0209 11.4051 17.0568 11.3228 17.122C11.2405 17.1894 11.1803 17.2929 11.1293 17.4436C11.0661 17.6594 11.0323 17.9862 11.0323 18.4243Z" fill="#FBD87E"/>
<path d="M14.7914 12.5727V12.334L15.3605 12.2779C15.4258 12.2676 15.4707 12.2498 15.5031 12.2217C15.5214 12.1988 15.5487 12.1427 15.5684 12.0556C15.5843 11.9014 15.6091 11.5567 15.6091 11.0282V10.312C15.6091 10.0678 15.6013 9.80129 15.596 9.51641L15.5843 9.26223C15.5843 9.20107 15.5816 9.16013 15.5684 9.13847C15.5633 9.12467 15.5385 9.11182 15.5214 9.11182C15.5136 9.11182 15.4707 9.13205 15.3907 9.16656C14.9996 9.33886 14.7366 9.4512 14.6334 9.50237L14.5966 9.48452C14.589 9.44477 14.5732 9.37456 14.5615 9.29293C14.5537 9.22415 14.5456 9.16656 14.5366 9.11182V9.09135C14.907 8.98544 15.1854 8.90096 15.4102 8.83336C15.6145 8.76173 15.9544 8.64059 16.4108 8.47852L16.4711 8.52302C16.4711 8.55515 16.4711 8.6494 16.4552 8.80147C16.4384 8.95212 16.4384 9.06041 16.4384 9.10016C16.4333 9.27127 16.4189 9.71561 16.4108 10.4179V10.8623C16.4108 11.2949 16.4189 11.5936 16.4189 11.7595C16.4189 12.0096 16.4384 12.1555 16.4552 12.2C16.4711 12.2281 16.4881 12.2498 16.5206 12.26C16.5666 12.2881 16.7146 12.3098 16.955 12.3162C17.0295 12.3162 17.0899 12.3212 17.155 12.334V12.5727C16.7146 12.5513 16.356 12.5449 16.0827 12.5449C15.902 12.5449 15.4707 12.5513 14.7914 12.5727Z" fill="#FBD87E"/>
<path d="M17.6798 12.5727V12.334L18.2579 12.2779C18.3206 12.2676 18.3613 12.2498 18.3964 12.2217C18.4189 12.1988 18.4359 12.1427 18.4513 12.0556C18.4815 11.9014 18.4962 11.5567 18.4962 11.0282V10.312C18.4962 10.0678 18.4962 9.80129 18.4908 9.51641L18.4815 9.26223C18.4815 9.20107 18.4737 9.16013 18.4632 9.13847C18.4488 9.12467 18.4359 9.11182 18.4135 9.11182C18.4084 9.11182 18.3613 9.13205 18.2735 9.16656C17.8824 9.33886 17.6313 9.4512 17.5216 9.50237L17.4835 9.48452C17.4782 9.44477 17.4667 9.37456 17.4509 9.29293C17.4509 9.22415 17.4338 9.16656 17.4233 9.11182L17.4287 9.09135C17.7844 8.98544 18.0799 8.90096 18.2882 8.83336C18.509 8.76173 18.8399 8.64059 19.3003 8.47852L19.3632 8.52302C19.3632 8.55515 19.3605 8.6494 19.3461 8.80147C19.333 8.95212 19.333 9.06041 19.333 9.10016C19.3161 9.27127 19.3107 9.71561 19.3003 10.4179V10.8623C19.3003 11.2949 19.3003 11.5936 19.3107 11.7595C19.3161 12.0096 19.333 12.1555 19.3539 12.2C19.3605 12.2281 19.3788 12.2498 19.4141 12.26C19.4587 12.2881 19.6038 12.3098 19.8469 12.3162C19.9149 12.3162 19.9779 12.3212 20.0432 12.334V12.5727C19.6038 12.5513 19.2507 12.5449 18.9721 12.5449C18.7851 12.5449 18.3482 12.5513 17.6798 12.5727Z" fill="#FBD87E"/>
<path d="M25.4435 8.97888V8.7297L26.015 8.67234C26.0857 8.66853 26.1238 8.65187 26.1511 8.61855C26.184 8.5957 26.2008 8.54097 26.2113 8.4629C26.2388 8.30868 26.2532 7.96383 26.2532 7.435V6.71912C26.2532 6.46994 26.2532 6.20696 26.2439 5.92112L26.2388 5.66433C26.2388 5.59793 26.2361 5.56342 26.2205 5.54319C26.2059 5.52391 26.1954 5.51891 26.1954 5.51891C26.1654 5.51891 26.1183 5.53034 26.0452 5.56342C25.6398 5.73692 25.3911 5.85091 25.2867 5.90827L25.2484 5.884C25.2353 5.84306 25.233 5.78451 25.2211 5.69741C25.208 5.63363 25.1909 5.57246 25.1831 5.50987L25.1885 5.49059C25.5439 5.39111 25.8319 5.3071 26.053 5.23046C26.2661 5.16406 26.5997 5.04649 27.0576 4.88037L27.1256 4.92155C27.1256 4.9532 27.1178 5.04649 27.1031 5.20476C27.09 5.36184 27.09 5.46013 27.09 5.50344C27.0807 5.66956 27.0758 6.1139 27.0654 6.82621V7.2627C27.0654 7.6918 27.0654 7.99072 27.0705 8.15779C27.0758 8.40793 27.09 8.56238 27.1086 8.60736C27.1178 8.63402 27.1361 8.64925 27.1688 8.6621C27.2183 8.69019 27.3714 8.70804 27.6067 8.72208C27.6774 8.72208 27.7442 8.72851 27.7978 8.7297V8.97888C27.3714 8.96079 27.0051 8.94675 26.7292 8.94675C26.546 8.94675 26.1133 8.96079 25.4435 8.97888Z" fill="#1F1F1F"/>
<path d="M28.2456 8.97856V8.67202L28.8147 8.12296C29.1076 7.8369 29.3262 7.60604 29.466 7.44635C29.6086 7.28546 29.7237 7.14504 29.7995 7.00201C29.8714 6.86398 29.9371 6.74403 29.9646 6.63431C29.997 6.52721 30.0129 6.41226 30.0129 6.29469C30.0129 6.06741 29.9475 5.89629 29.8349 5.77896C29.7118 5.65758 29.5484 5.59761 29.3431 5.59761C29.2304 5.59761 29.118 5.61926 29.0173 5.66401C28.9193 5.71113 28.8238 5.77896 28.7543 5.86821C28.7165 5.98839 28.6787 6.14666 28.6287 6.34063H28.3934L28.4707 5.66401C28.489 5.55191 28.4955 5.44553 28.5085 5.33462C28.6458 5.20444 28.7911 5.11257 28.9718 5.04617C29.1429 4.98881 29.335 4.95288 29.5484 4.95288C29.849 4.95288 30.0926 5.00786 30.2757 5.10234C30.4639 5.1992 30.5988 5.33462 30.6914 5.50312C30.7846 5.66924 30.8343 5.85059 30.8343 6.02909C30.8343 6.14666 30.8172 6.2628 30.7792 6.37418C30.7411 6.4839 30.6863 6.61242 30.5988 6.74403C30.5112 6.87564 30.4232 6.99939 30.32 7.0965L29.9826 7.43992L29.6608 7.74503C29.4935 7.91115 29.3182 8.07822 29.1102 8.24934L29.1273 8.28909H29.6608C29.7393 8.28909 30.0129 8.28385 30.4639 8.27123C30.6116 8.27123 30.8016 8.26338 31.0094 8.24934L31.0252 8.28909C31.0094 8.46258 31.0001 8.59538 31.0001 8.69368C31.0001 8.76127 31.0094 8.83933 31.0252 8.94643L31.0145 8.97856L30.1121 8.95166C29.9098 8.94643 29.7668 8.94643 29.6793 8.94643L28.2456 8.97856Z" fill="#1F1F1F"/>
<path d="M38.3925 12.2281V11.993L38.9681 11.9321C39.0334 11.923 39.0686 11.9014 39.0989 11.8773C39.1317 11.8504 39.1486 11.7905 39.1644 11.711C39.1814 11.5568 39.2088 11.2133 39.2088 10.6836V9.9672C39.2088 9.71945 39.1995 9.45646 39.1919 9.17063L39.1814 8.91502C39.1814 8.85386 39.1814 8.81293 39.1749 8.79508C39.1591 8.77342 39.1447 8.76699 39.1266 8.76699C39.1119 8.76699 39.0686 8.77985 38.9891 8.82316C38.5953 8.98547 38.3442 9.10661 38.2291 9.16016L38.1991 9.1385C38.1872 9.10019 38.1794 9.03259 38.1638 8.94692C38.1638 8.87933 38.1467 8.82316 38.1362 8.76699V8.74415C38.4997 8.64062 38.7811 8.55518 39.0006 8.48116C39.2139 8.41714 39.5528 8.29719 40.0014 8.12988L40.0787 8.17986C40.0787 8.20271 40.0668 8.30624 40.0536 8.45665C40.0419 8.60754 40.0366 8.70821 40.0366 8.75152C40.029 8.9255 40.0185 9.36293 40.0119 10.0717V10.516C40.0119 10.9501 40.0119 11.2388 40.0119 11.4123C40.0185 11.6665 40.0366 11.8119 40.0536 11.8566C40.0668 11.8833 40.0892 11.9014 40.1165 11.918C40.166 11.9433 40.3102 11.9575 40.5598 11.9716C40.6251 11.9716 40.6959 11.9766 40.7561 11.993V12.2281C40.3102 12.2065 39.9517 12.1989 39.6783 12.1989C39.4926 12.1989 39.0686 12.2065 38.3925 12.2281Z" fill="#1F1F1F"/>
<path d="M45.2769 19.6226V19.3172L45.8379 18.7632C46.1308 18.4747 46.3495 18.2488 46.4867 18.0892C46.6303 17.9295 46.7379 17.7852 46.8203 17.6472C46.8985 17.5046 46.9588 17.3868 46.9863 17.2719C47.0192 17.1674 47.0307 17.0563 47.0307 16.9363C47.0307 16.7128 46.9785 16.5365 46.853 16.4191C46.7379 16.298 46.5706 16.2404 46.3716 16.2404C46.2539 16.2404 46.1413 16.2621 46.0435 16.3044C45.9386 16.3527 45.8511 16.4191 45.7777 16.5134C45.737 16.6262 45.6926 16.7907 45.6497 16.9849H45.4193L45.5017 16.3044C45.5071 16.2021 45.5226 16.0898 45.5346 15.9748C45.6653 15.8472 45.813 15.7551 45.9881 15.6978C46.1637 15.63 46.3599 15.6045 46.5706 15.6045C46.8688 15.6045 47.1158 15.6478 47.3016 15.7425C47.4874 15.8432 47.6247 15.9748 47.7202 16.1459C47.8078 16.3194 47.8485 16.492 47.8485 16.6695C47.8485 16.7907 47.8326 16.903 47.8078 17.0141C47.766 17.1288 47.7058 17.2531 47.618 17.3868C47.532 17.5196 47.4376 17.637 47.3564 17.7393L46.9956 18.0839L46.6882 18.3878C46.5194 18.5513 46.3324 18.7187 46.1308 18.8921L46.1493 18.9319H46.6882C46.7703 18.9319 47.0307 18.924 47.4952 18.919C47.6402 18.9126 47.8128 18.9036 48.0236 18.8921L48.0513 18.9319C48.0316 19.1028 48.0131 19.2356 48.0131 19.3351C48.0131 19.4015 48.0316 19.4909 48.0513 19.5907L48.0408 19.6226L47.1316 19.593C46.9353 19.5907 46.7873 19.5907 46.7023 19.5907L45.2769 19.6226Z" fill="#1F1F1F"/>
<path d="M47.9088 29.612C47.8934 29.5327 47.8763 29.3871 47.8332 29.1703C47.8057 28.9492 47.7666 28.7947 47.7534 28.7155L47.9587 28.6543C48.0322 28.8368 48.1116 28.9825 48.2098 29.0948C48.3026 29.2098 48.4128 29.2966 48.5434 29.3488C48.6612 29.4023 48.7958 29.4216 48.9289 29.4216C49.162 29.4216 49.3424 29.3566 49.4904 29.2098C49.6187 29.072 49.6906 28.8766 49.6906 28.6329C49.6906 28.3813 49.616 28.1883 49.4629 28.0531C49.31 27.9329 49.1098 27.8641 48.8768 27.8641C48.7736 27.8641 48.6534 27.8829 48.5251 27.9151L48.4895 27.8829L48.4949 27.8437L48.5434 27.6647L48.6037 27.43H48.6256H48.8509C48.9594 27.43 49.0742 27.4043 49.1791 27.3508C49.2824 27.292 49.3676 27.2206 49.4251 27.1211C49.4904 27.015 49.5229 26.9141 49.5229 26.7994C49.5229 26.6485 49.4575 26.5157 49.3424 26.4112C49.2327 26.3065 49.0796 26.2503 48.8992 26.2503C48.7814 26.2503 48.6612 26.2705 48.5707 26.3103C48.4676 26.3448 48.4023 26.3881 48.3498 26.444C48.3026 26.5007 48.2569 26.5949 48.2098 26.738C48.1874 26.7967 48.177 26.8336 48.1616 26.8619L47.9444 26.8503L48.0738 26.2491C48.0897 26.1558 48.1067 26.0537 48.1275 25.9388C48.2543 25.8429 48.4023 25.7677 48.5707 25.7191C48.7304 25.6758 48.9162 25.6477 49.1098 25.6477C49.4734 25.6477 49.7362 25.7331 49.9286 25.8902C50.1195 26.0613 50.2151 26.2655 50.2151 26.5007C50.2151 26.6892 50.1471 26.8555 50.0422 26.9933C49.9337 27.1414 49.7665 27.2715 49.5333 27.3929C49.5782 27.3929 49.6357 27.3993 49.714 27.4096C49.8186 27.43 49.9115 27.4734 50.0149 27.5243C50.1117 27.5714 50.1849 27.6366 50.2621 27.7109C50.3224 27.7875 50.3706 27.868 50.4097 27.961C50.4372 28.0531 50.453 28.1678 50.453 28.2994C50.453 28.6838 50.2999 29.0103 49.9795 29.2812C49.6107 29.612 49.1673 29.7741 48.6585 29.7741C48.5054 29.7741 48.3798 29.7588 48.2701 29.7369C48.1616 29.7153 48.0414 29.672 47.9088 29.612Z" fill="#1F1F1F"/>
<path d="M46.3202 38.5757V38.3332C46.6433 38.3129 46.824 38.2951 46.8842 38.2887C46.922 38.2732 46.9571 38.2606 46.9768 38.2351C46.9939 38.2068 47.0175 38.1494 47.029 38.0576C47.029 38.0281 47.0368 37.8558 47.0539 37.5442H46.6537C46.2849 37.5442 45.9162 37.5442 45.5549 37.5559L45.5054 37.3119C45.5653 37.1599 45.6909 36.8942 45.9043 36.5089C46.18 35.9713 46.4302 35.5553 46.616 35.2488C46.8186 34.9477 46.9495 34.7406 47.0368 34.6409L47.3982 34.5671C47.6385 34.5234 47.7643 34.4917 47.8061 34.4917L47.8468 34.5414C47.8468 34.6795 47.8309 34.8863 47.8309 35.1683C47.8193 35.3482 47.8111 35.7519 47.8061 36.3852V37.0516L47.9146 37.0618L48.3398 37.0399L48.3632 37.072L48.3557 37.3336C48.3557 37.3733 48.3557 37.4447 48.3632 37.5442H48.1747H47.8061C47.8061 37.8341 47.8061 38.0345 47.8193 38.1342C47.8309 38.1737 47.8387 38.2132 47.8663 38.2351C47.8911 38.2606 47.9341 38.2796 47.9891 38.2951L48.383 38.3332V38.5757C48.2874 38.5757 48.2076 38.5735 48.1423 38.5735L47.3625 38.5516L46.3202 38.5757ZM45.9567 37.0516H47.0539L47.0697 35.9713V35.5908L47.0812 35.0291C46.8015 35.481 46.5962 35.8119 46.4731 36.0301C46.3529 36.2562 46.18 36.5956 45.9567 37.0516Z" fill="#1F1F1F"/>
<path d="M38.5332 44.5587L38.41 44.4923C38.4259 44.3878 38.4295 44.2422 38.4295 44.0506L38.4532 43.5705V43.1876L38.44 42.8542C38.44 42.709 38.4295 42.6219 38.4295 42.5938C38.4295 42.5441 38.4259 42.4905 38.4259 42.4446C38.4203 42.3884 38.41 42.337 38.4049 42.2706L38.4427 42.2466C38.9347 42.2642 39.3531 42.2706 39.7113 42.2706C39.8434 42.2706 39.9522 42.2706 40.037 42.2706L40.6151 42.2466L40.6388 42.2925C40.6151 42.5136 40.5956 42.6486 40.5956 42.709C40.5956 42.7649 40.6086 42.8375 40.6151 42.9142L40.5761 42.9553C40.4949 42.9475 40.4074 42.9475 40.3106 42.9399C39.9861 42.9361 39.7781 42.9361 39.6788 42.9361C39.2473 42.9361 38.9489 42.9399 38.7816 42.9553L38.7604 43.8976C38.9294 43.8183 39.0691 43.7648 39.1924 43.7364C39.31 43.7086 39.4409 43.6945 39.5808 43.6945C39.9522 43.6945 40.2504 43.7964 40.461 43.9932C40.6912 44.1936 40.7868 44.4654 40.7868 44.791C40.7868 45.0566 40.7134 45.3134 40.5603 45.5597C40.4074 45.8048 40.1665 46.0117 39.8434 46.1635C39.5977 46.2823 39.3232 46.346 39.001 46.346C38.8693 46.346 38.7487 46.331 38.6533 46.3156C38.5634 46.2963 38.4427 46.2644 38.3054 46.2032C38.2898 46.119 38.2781 46.0243 38.2596 45.9376C38.2296 45.8508 38.1799 45.6528 38.1011 45.3477L38.2952 45.2813C38.372 45.4345 38.4427 45.5597 38.5332 45.6528C38.6204 45.7589 38.7331 45.8405 38.8745 45.8969C39.0091 45.9543 39.1452 45.9862 39.2797 45.9862C39.5035 45.9862 39.6906 45.9093 39.8386 45.7641C39.9795 45.6185 40.0463 45.4179 40.0463 45.1601C40.0463 44.8969 39.969 44.6839 39.8266 44.5408C39.6788 44.3878 39.4775 44.3136 39.2249 44.3136C39.1271 44.3136 39.0339 44.3264 38.9567 44.3481C38.8745 44.3659 38.8118 44.3878 38.7487 44.4157C38.7265 44.4311 38.648 44.4771 38.5332 44.5587Z" fill="#1F1F1F"/>
<path d="M30.1709 45.1736L30.4028 45.3687L30.3162 45.4585C30.2365 45.452 30.1709 45.4482 30.1109 45.4482C29.9134 45.4482 29.7276 45.4954 29.5577 45.587C29.385 45.6805 29.2385 45.8043 29.1261 45.9675C29.0059 46.1184 28.9181 46.2957 28.8579 46.4937C28.8135 46.6394 28.7728 46.8793 28.7428 47.1908C28.9888 46.9673 29.1417 46.8407 29.1864 46.8129C29.2215 46.7846 29.2895 46.7705 29.3995 46.7465C29.4923 46.7184 29.593 46.7144 29.6952 46.7144C29.9305 46.7144 30.1346 46.8 30.3294 46.9864C30.523 47.1625 30.6105 47.4474 30.6105 47.8405C30.6105 48.2849 30.4903 48.64 30.2365 48.9001C29.9739 49.1671 29.6596 49.2973 29.2712 49.2973C28.9559 49.2973 28.7102 49.2245 28.5073 49.0779C28.311 48.9284 28.1686 48.7356 28.0731 48.5034C27.9765 48.2732 27.9331 47.9798 27.9331 47.6197C27.9331 47.1961 27.9879 46.8407 28.1189 46.5549C28.2444 46.2638 28.4197 46.0111 28.6275 45.8043C28.8501 45.5972 29.0815 45.4482 29.3419 45.3407C29.6074 45.2297 29.8703 45.1736 30.1709 45.1736ZM28.7258 47.9286C28.7258 48.2632 28.7808 48.5238 28.8826 48.7076C28.9888 48.9001 29.1417 48.9948 29.3338 48.9948C29.4975 48.9948 29.6257 48.9284 29.7276 48.802C29.8337 48.6795 29.8807 48.4622 29.8807 48.1559C29.8807 47.9403 29.8532 47.7615 29.7983 47.6299C29.7381 47.4933 29.6596 47.39 29.5655 47.33C29.4699 47.2701 29.3722 47.2379 29.2619 47.2379C29.1588 47.2379 29.0659 47.2637 28.9784 47.3082C28.8957 47.3617 28.8226 47.4371 28.7899 47.529C28.7428 47.6197 28.7258 47.7475 28.7258 47.9286Z" fill="#1F1F1F"/>
<path d="M17.57 47.2496L17.5448 47.1844C18.0264 46.3685 18.3168 45.8921 18.4043 45.7405C18.7507 45.1736 18.9394 44.8646 18.9734 44.8032L19.3996 44.05L19.3723 43.9888H18.6033L18.1142 44.0041C17.9139 44.0041 17.7857 44.0067 17.7411 44.0205C17.7153 44.0281 17.6928 44.0397 17.6731 44.0538C17.655 44.0757 17.6431 44.1088 17.6275 44.1521C17.6104 44.2197 17.5778 44.4075 17.5448 44.7038L17.2847 44.6973C17.3017 44.4305 17.3095 44.2133 17.3095 44.0397C17.3095 43.847 17.3017 43.598 17.2847 43.2853L17.3371 43.2534L18.1295 43.2813C18.3168 43.2813 18.5301 43.2853 18.7507 43.2853C18.9066 43.2853 19.3343 43.2813 20.0564 43.2663V43.5366C19.7504 44.0757 19.5724 44.4151 19.4954 44.5581C19.2793 44.9579 19.1121 45.2883 18.9839 45.5515C18.8636 45.8197 18.7183 46.1389 18.5576 46.5013C18.4372 46.7924 18.3377 47.0451 18.267 47.2496C18.1361 47.2379 18.0264 47.2303 17.9334 47.2303C17.8406 47.2303 17.7231 47.2379 17.57 47.2496Z" fill="#1F1F1F"/>
<path d="M10.4038 38.9227C10.2402 38.822 10.1173 38.7439 10.04 38.6661C9.97222 38.5895 9.90421 38.4938 9.86232 38.3777C9.80718 38.2601 9.79156 38.1285 9.79156 37.9881C9.79156 37.7558 9.85696 37.5554 9.97222 37.3843C10.082 37.2117 10.2326 37.0815 10.4263 36.9923C10.6094 36.9002 10.842 36.8542 11.118 36.8542C11.4584 36.8542 11.7117 36.9387 11.9065 37.1072C12.0896 37.2731 12.1879 37.4837 12.1879 37.7225C12.1879 37.8553 12.1603 37.9754 12.1054 38.089C12.0571 38.2001 11.9746 38.2984 11.8702 38.3943C11.827 38.4441 11.7287 38.5116 11.6085 38.5868C11.7748 38.6571 11.9065 38.7325 11.9904 38.7963C12.0896 38.8639 12.1603 38.9431 12.2103 39.0221C12.2679 39.0988 12.3081 39.1947 12.3278 39.2942C12.3552 39.3901 12.3683 39.5074 12.3683 39.6171C12.3683 39.9044 12.3029 40.1598 12.1554 40.3668C12.0101 40.5801 11.8048 40.7445 11.5417 40.8606C11.3613 40.9375 11.1479 40.9782 10.9022 40.9782C10.6642 40.9782 10.4731 40.9425 10.3161 40.8709C10.1958 40.82 10.0978 40.7536 9.99953 40.6603C9.90421 40.5658 9.82422 40.4596 9.76425 40.3423C9.70941 40.2209 9.6792 40.0769 9.6792 39.9044C9.6792 39.7706 9.69624 39.6528 9.73672 39.5483C9.77474 39.4386 9.82965 39.3451 9.90421 39.2599C9.97222 39.1806 10.04 39.1207 10.1173 39.0709C10.1356 39.0607 10.2326 39.0169 10.4038 38.9227ZM10.6642 39.035C10.5189 39.1399 10.4104 39.2599 10.3385 39.3989C10.2731 39.5329 10.2326 39.6785 10.2326 39.8392C10.2326 40.0769 10.3109 40.2773 10.4587 40.4268C10.6094 40.5801 10.7922 40.6603 11.0093 40.6603C11.2082 40.6603 11.3704 40.5939 11.4986 40.4596C11.619 40.3273 11.6895 40.1674 11.6895 39.9772C11.6895 39.8316 11.6658 39.7116 11.611 39.6171C11.5615 39.5264 11.4815 39.4386 11.3559 39.3594C11.2411 39.2813 11.0329 39.1883 10.7493 39.0709L10.6642 39.035ZM11.3011 38.4771C11.4162 38.4055 11.5039 38.3048 11.5693 38.1951C11.6295 38.0747 11.6658 37.9462 11.6658 37.8069C11.6658 37.6165 11.6085 37.4621 11.4986 37.3445C11.3704 37.2322 11.2082 37.1736 11.0093 37.1736C10.842 37.1736 10.6888 37.2246 10.5842 37.3243C10.4731 37.429 10.4263 37.5554 10.4263 37.7136C10.4263 37.7748 10.4311 37.8336 10.4536 37.8862C10.4731 37.9436 10.5031 37.9945 10.5413 38.0392C10.5842 38.094 10.6287 38.1389 10.6888 38.1782C10.7493 38.2282 10.8198 38.2663 10.9127 38.3124L11.1375 38.4145L11.3011 38.4771Z" fill="#1F1F1F"/>
<path d="M6.2931 30.5756L6.0605 30.3818L6.13245 30.2693C6.1922 30.2973 6.26825 30.3026 6.35069 30.3026C6.54423 30.3026 6.73665 30.2555 6.91441 30.1596C7.08942 30.0651 7.23742 29.9375 7.3462 29.779C7.45856 29.6195 7.54614 29.4496 7.60656 29.248C7.64704 29.1024 7.6861 28.8765 7.71899 28.5659C7.52664 28.7373 7.38519 28.8587 7.3186 28.911C7.28571 28.9315 7.25327 28.9491 7.21547 28.971C7.07015 29.0155 6.91977 29.0436 6.77683 29.0436C6.52057 29.0436 6.2931 28.9429 6.11266 28.7528C5.93497 28.5548 5.84717 28.2751 5.84717 27.915C5.84717 27.4657 5.97932 27.1158 6.22777 26.8502C6.48135 26.5834 6.80466 26.4492 7.20111 26.4492C7.50566 26.4492 7.75411 26.5311 7.9504 26.6767C8.15056 26.8224 8.29833 27.0149 8.3912 27.2486C8.479 27.4771 8.52848 27.7758 8.52848 28.1323C8.52848 28.5598 8.46315 28.9186 8.34268 29.2035C8.21589 29.4946 8.04721 29.7369 7.83016 29.9477C7.60879 30.1519 7.37887 30.3102 7.11725 30.4149C6.86485 30.5208 6.58865 30.5756 6.2931 30.5756ZM7.73432 27.8282C7.73432 27.4873 7.6861 27.227 7.58148 27.043C7.47173 26.8555 7.3186 26.7608 7.11725 26.7608C6.96263 26.7608 6.83219 26.8224 6.72861 26.9497C6.63203 27.0723 6.58106 27.287 6.58106 27.5921C6.58106 27.8105 6.60837 27.9917 6.66202 28.1218C6.72616 28.2596 6.7993 28.3594 6.89752 28.4208C6.99291 28.4869 7.08942 28.5112 7.20111 28.5112C7.30275 28.5112 7.39836 28.4948 7.48587 28.4386C7.57367 28.3877 7.63387 28.3134 7.67434 28.2201C7.70701 28.1323 7.73432 27.9943 7.73432 27.8282Z" fill="#1F1F1F"/>
<path d="M7.43351 20.3693V20.1316L8.01427 20.073C8.07454 20.064 8.11747 20.0449 8.15036 20.0169C8.17521 19.9928 8.19984 19.9405 8.21056 19.8574C8.23548 19.7015 8.24858 19.3569 8.24858 18.8257V18.1096C8.24858 17.8644 8.24858 17.5974 8.2459 17.313L8.23273 17.0624C8.23273 16.9962 8.22105 16.9541 8.21569 16.9363C8.20252 16.9248 8.18816 16.9082 8.17008 16.9082C8.1555 16.9082 8.11747 16.9286 8.04039 16.9629C7.64148 17.1352 7.38499 17.2478 7.28067 17.2975L7.23722 17.2809C7.23722 17.2387 7.22554 17.1738 7.21527 17.0867C7.20091 17.0203 7.19287 16.9629 7.17725 16.9082V16.8889C7.54594 16.783 7.82996 16.6973 8.04701 16.6261C8.25498 16.5583 8.59897 16.4431 9.05301 16.2734L9.11834 16.3194C9.11834 16.3527 9.11298 16.4431 9.10249 16.5978C9.08538 16.7509 9.08054 16.8584 9.08054 16.8965C9.07518 17.0676 9.06737 17.5132 9.05301 18.214V18.6584C9.05301 19.0913 9.05807 19.39 9.05807 19.5523C9.07518 19.8077 9.08054 19.9581 9.10785 20.0004C9.11298 20.0245 9.13538 20.0449 9.16782 20.0604C9.21217 20.0859 9.36017 20.1037 9.60088 20.1128C9.66889 20.1128 9.7369 20.1178 9.79955 20.1316V20.3693C9.36017 20.3489 9.00718 20.345 8.72725 20.345C8.54413 20.345 8.11747 20.3489 7.43351 20.3693Z" fill="#1F1F1F"/>
<path d="M10.2944 18.4864C10.2944 18.1429 10.3154 17.8302 10.3703 17.5468C10.3978 17.363 10.4581 17.1891 10.5458 17.0348C10.628 16.8813 10.7289 16.7576 10.8413 16.6595C10.951 16.5586 11.0766 16.487 11.2219 16.437C11.3606 16.3861 11.5174 16.3608 11.6888 16.3608C12.0173 16.3608 12.2852 16.422 12.4659 16.57C12.6582 16.7131 12.7992 16.9149 12.8792 17.1741C12.9589 17.4344 12.997 17.7983 12.997 18.2603C12.997 18.5873 12.984 18.8707 12.9496 19.1185C12.9145 19.3598 12.8541 19.569 12.7668 19.7465C12.679 19.9189 12.5757 20.0607 12.4659 20.1678C12.3677 20.2661 12.2421 20.3453 12.1048 20.3951C11.9661 20.4513 11.7988 20.4755 11.5959 20.4755C11.3777 20.4755 11.162 20.4308 10.9945 20.3453C10.8192 20.257 10.6806 20.1319 10.5758 19.9674C10.4634 19.7951 10.3927 19.5909 10.3522 19.3353C10.3154 19.0852 10.2944 18.807 10.2944 18.4864ZM11.0323 18.0754C11.0323 18.5259 11.0547 18.9243 11.1015 19.292C11.1473 19.6468 11.2246 19.8896 11.3251 20.0007C11.4299 20.1181 11.5504 20.1757 11.6784 20.1757C11.8485 20.1757 11.9819 20.095 12.0889 19.9253C12.1926 19.7618 12.2526 19.3598 12.2526 18.7303C12.2526 18.3138 12.2228 17.8966 12.1701 17.492C12.1443 17.2671 12.1048 17.1074 12.0565 16.9965C12.0095 16.8813 11.9466 16.7999 11.8695 16.7512C11.7988 16.704 11.711 16.6762 11.6103 16.6762C11.5033 16.6762 11.4051 16.7131 11.3228 16.7769C11.2405 16.8368 11.1803 16.9427 11.1293 17.0998C11.0661 17.3133 11.0323 17.6372 11.0323 18.0754Z" fill="#1F1F1F"/>
<path d="M14.7914 12.2277V11.9925L15.3605 11.9316C15.4258 11.9225 15.4707 11.9009 15.5031 11.8769C15.5214 11.85 15.5487 11.79 15.5684 11.7105C15.5843 11.5563 15.6091 11.2128 15.6091 10.6831V9.96671C15.6091 9.71896 15.6013 9.45598 15.596 9.17014L15.5843 8.91454C15.5843 8.85337 15.5816 8.81244 15.5684 8.79459C15.5633 8.77293 15.5385 8.76651 15.5214 8.76651C15.5136 8.76651 15.4707 8.77936 15.3907 8.82267C14.9996 8.98498 14.7366 9.10612 14.6334 9.15967L14.5966 9.13801C14.589 9.0997 14.5732 9.03211 14.5615 8.94643C14.5537 8.87884 14.5456 8.82267 14.5366 8.76651V8.74366C14.907 8.64013 15.1854 8.55469 15.4102 8.48067C15.6145 8.41665 15.9544 8.2967 16.4108 8.12939L16.4711 8.17937C16.4711 8.20222 16.4711 8.30575 16.4552 8.45616C16.4384 8.60705 16.4384 8.70772 16.4384 8.75104C16.4333 8.92501 16.4189 9.36244 16.4108 10.0712V10.5155C16.4108 10.9496 16.4189 11.2383 16.4189 11.4118C16.4189 11.666 16.4384 11.8114 16.4552 11.8561C16.4711 11.8828 16.4881 11.9009 16.5206 11.9176C16.5666 11.9428 16.7146 11.9571 16.955 11.9711C17.0295 11.9711 17.0899 11.9761 17.155 11.9925V12.2277C16.7146 12.206 16.356 12.1984 16.0827 12.1984C15.902 12.1984 15.4707 12.206 14.7914 12.2277Z" fill="#1F1F1F"/>
<path d="M17.6798 12.2277V11.9925L18.2579 11.9316C18.3206 11.9225 18.3613 11.9009 18.3964 11.8769C18.4189 11.85 18.4359 11.79 18.4513 11.7105C18.4815 11.5563 18.4962 11.2128 18.4962 10.6831V9.96671C18.4962 9.71896 18.4962 9.45598 18.4908 9.17014L18.4815 8.91454C18.4815 8.85337 18.4737 8.81244 18.4632 8.79459C18.4488 8.77293 18.4359 8.76651 18.4135 8.76651C18.4084 8.76651 18.3613 8.77936 18.2735 8.82267C17.8824 8.98498 17.6313 9.10612 17.5216 9.15967L17.4835 9.13801C17.4782 9.0997 17.4667 9.03211 17.4509 8.94643C17.4509 8.87884 17.4338 8.82267 17.4233 8.76651L17.4287 8.74366C17.7844 8.64013 18.0799 8.55469 18.2882 8.48067C18.509 8.41665 18.8399 8.2967 19.3003 8.12939L19.3632 8.17937C19.3632 8.20222 19.3605 8.30575 19.3461 8.45616C19.333 8.60705 19.333 8.70772 19.333 8.75104C19.3161 8.92501 19.3107 9.36244 19.3003 10.0712V10.5155C19.3003 10.9496 19.3003 11.2383 19.3107 11.4118C19.3161 11.666 19.333 11.8114 19.3539 11.8561C19.3605 11.8828 19.3788 11.9009 19.4141 11.9176C19.4587 11.9428 19.6038 11.9571 19.8469 11.9711C19.9149 11.9711 19.9779 11.9761 20.0432 11.9925V12.2277C19.6038 12.206 19.2507 12.1984 18.9721 12.1984C18.7851 12.1984 18.3482 12.206 17.6798 12.2277Z" fill="#1F1F1F"/>
<path d="M28.4006 26.1276L28.4083 26.1199C29.0203 26.0535 29.6419 26.0664 30.2461 26.0535C30.887 26.0381 31.5239 26.0074 32.1634 25.9898C32.8123 25.9819 33.4688 25.9819 34.1138 26C34.4368 26.01 34.7626 26.0331 35.0778 26.0381C35.2258 26.0381 35.389 26.075 35.5472 26.084C35.5591 26.0381 35.5445 25.9117 35.5445 25.9029C35.5445 25.9029 35.5643 25.3834 35.5643 25.3105C35.5721 25.2275 35.5748 25.1177 35.5919 25.0166C35.7174 25.0856 35.8325 25.1573 35.9607 25.2094C36.4445 25.4764 36.8777 25.761 37.2934 26.1328C37.5577 26.3827 37.8557 26.6611 38.1188 26.9548C38.0834 26.9931 38.0405 27.0315 37.9986 27.0722C37.9986 27.0722 37.9986 27.0722 37.9906 27.0669C37.9555 27.1055 37.9226 27.1412 37.8781 27.1745C37.7475 27.2918 37.5995 27.3992 37.4544 27.5053C37.1535 27.7259 36.85 27.9427 36.5439 28.1422C36.1882 28.3721 35.8325 28.5903 35.4519 28.7857C35.427 28.7933 35.3994 28.7945 35.3838 28.8086C35.3641 28.8112 35.3509 28.8086 35.3509 28.8086C35.3488 28.8164 35.3395 28.825 35.3395 28.8366C35.2856 28.8647 35.2308 28.889 35.1758 28.9185C35.1863 28.8086 35.2035 28.6991 35.2035 28.612C35.2308 28.4283 35.2361 28.2417 35.2556 28.0529C34.4944 28.1422 33.6991 28.0644 32.9498 28.0363C31.9099 27.9915 30.8702 27.9327 29.8469 27.7897C29.4312 27.828 29.0152 27.8549 28.5941 27.8763C28.1231 27.8892 27.6511 27.8763 27.5216 27.3378C27.4431 26.9817 27.6366 26.5707 27.8917 26.3265C28.02 26.2066 28.2003 26.153 28.4006 26.1276Z" fill="#1F1F1F"/>
<path d="M27.901 26.8685C27.8291 27.1058 27.7964 27.3317 28.0544 27.4773C28.2123 27.5716 28.4701 27.5323 28.6452 27.5437C28.8507 27.5528 29.0497 27.5832 29.2549 27.6049C29.4381 27.6268 29.6131 27.6368 29.7989 27.6587C29.816 27.6508 29.8265 27.647 29.8379 27.647C30.8442 27.6587 31.8511 27.6946 32.8542 27.7658C33.3555 27.79 33.8393 27.8231 34.3296 27.8767C34.5534 27.8998 34.7836 27.91 35.0125 27.9152C35.0794 27.9216 35.1773 27.9216 35.273 27.9331C35.273 27.9216 35.273 27.9216 35.273 27.9152C35.3356 27.9216 35.4009 27.9331 35.4614 27.9331C35.4614 28.029 35.4456 28.1273 35.4456 28.2344C35.4285 28.3596 35.4129 28.495 35.3905 28.6202C35.3905 28.6202 35.3905 28.6202 35.3905 28.6228C35.762 28.2932 36.2578 28.089 36.6869 27.8374C36.9275 27.692 37.1681 27.5437 37.4091 27.3931C37.5512 27.2998 37.7595 27.1213 37.9294 27.0216C37.6887 26.8504 37.4639 26.6053 37.2479 26.4113C36.7993 26.0217 36.2629 25.7397 35.834 25.3413C35.834 25.3772 35.8222 25.4103 35.8142 25.4436C35.7989 25.5662 35.774 25.7014 35.7516 25.843C35.7189 25.9325 35.686 26.0384 35.6536 26.1391C35.4614 26.1391 35.2571 26.1674 35.057 26.1993C34.857 26.2171 34.6581 26.2376 34.4551 26.2493C33.7608 26.2809 33.0544 26.2809 32.36 26.3066C31.6812 26.3295 30.9995 26.3718 30.3194 26.3882C29.7036 26.4113 29.0665 26.4239 28.453 26.2926C28.3876 26.3066 28.3116 26.3066 28.237 26.3204C28.0044 26.3499 27.9558 26.7048 27.901 26.8685Z" fill="#328AE0"/>
<path d="M28.235 26.3206C28.3096 26.3068 28.3857 26.3068 28.451 26.2927C29.0645 26.4241 29.7016 26.4115 30.3175 26.3884C30.4206 26.3832 30.5216 26.3832 30.6184 26.377C30.634 26.7549 30.5386 27.2145 30.5386 27.2145L35.7876 27.2399L35.7338 27.8832L37.8448 26.9705C37.8726 26.9886 37.9028 27.0074 37.9275 27.0217C37.7575 27.1214 37.5493 27.2999 37.4071 27.3932C37.1662 27.5439 36.9256 27.6921 36.6849 27.8375C36.2558 28.0891 35.7601 28.2933 35.3885 28.6229C35.3885 28.6203 35.3885 28.6203 35.3885 28.6203C35.411 28.4951 35.4265 28.3597 35.4436 28.2345C35.4436 28.1274 35.4595 28.0291 35.4595 27.9332C35.399 27.9332 35.3337 27.9218 35.271 27.9154C35.271 27.9218 35.271 27.9218 35.271 27.9332C35.1754 27.9218 35.0774 27.9218 35.0106 27.9154C34.7816 27.9101 34.5515 27.8999 34.3277 27.8768C33.8373 27.8233 33.3536 27.7902 32.8523 27.7659C31.8492 27.6947 30.8422 27.6588 29.836 27.6471C29.8245 27.6471 29.814 27.651 29.7969 27.6588C29.6112 27.6369 29.4361 27.6269 29.253 27.605C29.0477 27.5834 28.8487 27.5529 28.6432 27.5439C28.4681 27.5324 28.2104 27.5717 28.0524 27.4775C27.7944 27.3318 27.8271 27.106 27.8991 26.8687C27.9539 26.7049 28.0024 26.3501 28.235 26.3206Z" fill="#328AE0"/>
<path d="M30.1545 13.5337C29.9092 13.0818 29.6434 12.6722 29.2994 12.2876C29.0614 12.022 28.7906 11.7436 28.5304 11.4937C28.4885 11.5267 28.4477 11.5651 28.4022 11.606L28.4099 11.611C28.3746 11.6441 28.3419 11.6762 28.2949 11.7105C28.1914 11.8357 28.0818 11.9646 27.9718 12.0963C27.7587 12.3592 27.5373 12.636 27.3296 12.9183C27.0964 13.2377 26.8785 13.5656 26.6834 13.9117C26.6757 13.9319 26.6675 13.9538 26.6585 13.9807C26.6532 13.9857 26.6532 13.9897 26.6532 14.0047H26.64C26.5983 14.0599 26.571 14.1109 26.5527 14.1594C26.6532 14.1594 26.758 14.144 26.8456 14.1387C27.0287 14.1161 27.2001 14.1247 27.3922 14.1109C27.2774 14.8042 27.3296 17.3131 27.3398 18.0059C27.3569 18.8474 27.5651 24.9939 27.6655 26.4314C27.6602 26.4554 27.6602 26.4887 27.6602 26.5154C27.6526 26.5437 27.6526 26.5768 27.6602 26.5946C27.6655 26.6368 27.676 26.7044 27.6655 26.6268C27.676 26.7044 27.7587 26.7377 27.8411 26.7505C27.9338 26.7605 28.0216 26.7605 28.1142 26.7605C28.2622 26.7605 28.4204 26.85 28.5628 26.7888C28.6781 26.7441 28.8586 26.7605 28.9371 26.656C28.9461 26.6482 28.9461 26.6482 28.9461 26.6432C28.9619 26.6368 28.979 26.6368 29.0066 26.6368C29.0219 26.0663 29.2718 19.3518 29.2994 18.7787C29.3257 18.1761 29.3425 15.8152 29.3345 15.2126C29.3345 14.9203 29.3257 14.623 29.3257 14.3239C29.3257 14.1851 29.3021 14.0316 29.2994 13.886C29.3345 13.8784 29.4655 13.8988 29.4655 13.8988C29.4655 13.8988 29.9746 13.8988 30.0487 13.8926C30.1352 13.8926 30.2371 13.886 30.33 13.8784C30.27 13.766 30.2072 13.6435 30.1545 13.5337Z" fill="#1F1F1F"/>
<path d="M29.9309 13.6618C29.8039 13.6806 29.6706 13.687 29.5423 13.7153C29.438 13.7396 29.3424 13.7662 29.2522 13.7946C29.239 13.9809 29.2115 14.1596 29.1749 14.337C29.1593 14.5221 29.1266 14.7085 29.1095 14.8974C29.0664 15.4974 28.9459 24.9249 28.9016 26.4237C28.883 26.4775 28.8533 26.5834 28.8584 26.577C28.8584 26.577 28.628 26.498 28.5955 26.5006C28.4097 26.5311 28.2294 26.5109 28.0318 26.5156C27.909 26.522 27.8629 26.5156 27.829 26.4556C27.829 25.5044 27.638 18.9322 27.6052 18.0894C27.5832 17.6308 27.5727 15.4198 27.5284 14.9638C27.5074 14.7544 27.5074 14.5478 27.5074 14.337C27.5047 14.277 27.5047 14.1854 27.5047 14.0997H27.5074C27.5074 14.0383 27.5074 13.9809 27.5074 13.9183C27.4169 13.9259 27.3097 13.9321 27.2167 13.9321C27.0885 13.9402 26.9591 13.954 26.834 13.9707V13.9809C27.157 13.6334 27.3804 13.1853 27.638 12.7986C27.7756 12.5725 27.9258 12.3542 28.0816 12.1488C28.1745 12.0172 28.3498 11.8218 28.4475 11.6726C28.6126 11.8985 28.8506 12.1041 29.0217 12.3159C29.3897 12.7374 29.646 13.2379 30.0149 13.6437C29.9885 13.6553 29.9519 13.6553 29.9309 13.6618Z" fill="#328AE0"/>
<path d="M28.3744 13.5937H27.6052L28.5302 11.7718C28.5024 11.7373 28.47 11.704 28.4475 11.6724C28.3498 11.8216 28.1745 12.017 28.0816 12.1486C27.9258 12.354 27.7756 12.5722 27.638 12.7983C27.3804 13.1851 27.157 13.6332 26.834 13.9807V13.9704C26.9591 13.9538 27.0885 13.94 27.2167 13.9319C27.3097 13.9319 27.4169 13.9257 27.5074 13.9181C27.5074 13.9807 27.5074 14.038 27.5074 14.0994H27.5047C27.5047 14.1851 27.5047 14.2767 27.5074 14.3367C27.5074 14.5476 27.5074 14.7542 27.5284 14.9636C27.5727 15.4196 27.5832 17.6306 27.6052 18.0892C27.638 18.9319 27.829 25.5041 27.829 26.4554C27.8629 26.5154 27.909 26.5218 28.0318 26.5154C28.2294 26.5106 28.4097 26.5308 28.5955 26.5004C28.628 26.4978 28.8584 26.5768 28.8584 26.5768C28.8533 26.5832 28.883 26.4773 28.9016 26.4235C28.9016 26.0775 28.9291 25.4046 28.9459 24.5657C28.6178 24.4013 28.3744 24.3837 28.3744 24.3837V13.5937Z" fill="#328AE0"/>
<path d="M30.3812 27.2714C30.3812 28.4142 29.4237 29.3421 28.2636 29.3421C27.0901 29.3421 26.1406 28.4142 26.1406 27.2714C26.1406 26.1328 27.0901 25.2056 28.2636 25.2056C29.4237 25.2056 30.3812 26.1328 30.3812 27.2714Z" fill="#A16616"/>
<path d="M30.1595 27.2776C30.1595 28.3055 29.3018 29.1352 28.2619 29.1352C27.1998 29.1352 26.3574 28.3055 26.3574 27.2776C26.3574 26.2488 27.1998 25.4175 28.2619 25.4175C29.3018 25.4175 30.1595 26.2488 30.1595 27.2776Z" fill="#FFBA19"/>
<path d="M29.5951 26.8333C29.5951 27.5432 29.0081 28.1216 28.2792 28.1216C27.5415 28.1216 26.9531 27.5432 26.9531 26.8333C26.9531 26.1274 27.5415 25.5491 28.2792 25.5491C29.0081 25.5491 29.5951 26.1274 29.5951 26.8333Z" fill="#FFE226"/>
<g opacity="0.5">
<path d="M28.2639 25.4175C27.2018 25.4175 26.3594 26.2488 26.3594 27.2776C26.3594 28.3055 27.2018 29.1352 28.2639 29.1352C29.3037 29.1352 30.1615 28.3055 30.1615 27.2776C30.1615 26.2488 29.3037 25.4175 28.2639 25.4175ZM28.2312 28.5404C27.3744 28.5404 26.6851 27.8638 26.6851 27.0211C26.6851 26.19 27.3744 25.5093 28.2312 25.5093C29.0838 25.5093 29.7902 26.19 29.7902 27.0211C29.7902 27.8638 29.0838 28.5404 28.2312 28.5404Z" fill="#F1AA11"/>
</g>
<g opacity="0.6">
<path d="M5.78516 40.5034C5.78516 40.5034 5.85971 40.6272 6.01798 40.8504C6.17379 41.0763 6.41688 41.4097 6.71772 41.8209C7.02398 42.232 7.41872 42.7149 7.88318 43.2534C8.36743 43.787 8.91262 44.3794 9.54167 44.9975C10.1785 45.5972 10.8903 46.2422 11.6802 46.8638C12.0689 47.1908 12.4951 47.4845 12.9164 47.801C13.3651 48.0912 13.8032 48.4113 14.2818 48.6871C15.2042 49.2795 16.2217 49.7823 17.2667 50.2743C18.3327 50.7336 19.4328 51.1565 20.5654 51.4552C20.8545 51.528 21.1345 51.6223 21.4236 51.6823L22.2777 51.8712L22.7093 51.9669L23.145 52.0285C23.4381 52.0704 23.7216 52.1164 24.0118 52.1623C24.2905 52.2096 24.5811 52.2235 24.8793 52.2492C25.1553 52.2775 25.443 52.3053 25.7244 52.3272C26.2881 52.3615 26.8516 52.3705 27.4087 52.3834C27.9675 52.377 28.5089 52.3448 29.0453 52.3336C29.5763 52.3106 30.0929 52.2439 30.5991 52.202C31.1131 52.1713 31.5893 52.0704 32.0706 52.0054C32.5414 51.9248 33.0059 51.8712 33.4387 51.7641C34.3086 51.5828 35.113 51.4269 35.8152 51.2227C36.5021 51.0387 37.1206 50.8831 37.6205 50.7117C38.6145 50.3942 39.1836 50.2164 39.1836 50.2164C39.1836 50.2164 38.6221 50.4337 37.6568 50.8321C37.1757 51.0387 36.5725 51.2277 35.8781 51.4628C35.5343 51.5661 35.173 51.7118 34.7726 51.8124C34.3766 51.9107 33.958 52.0259 33.5262 52.1383C33.0934 52.262 32.6238 52.3448 32.1532 52.4369C31.6717 52.5221 31.1734 52.6399 30.6725 52.6885C30.1554 52.747 29.6248 52.8339 29.0782 52.8748C28.5364 52.907 27.978 52.9462 27.418 52.9681C26.8516 52.9579 26.2657 52.9579 25.6915 52.9386C25.1053 52.8927 24.5104 52.8748 23.9218 52.793C23.629 52.747 23.3332 52.6999 23.0324 52.6602L22.5957 52.5938L22.1519 52.5007L21.2546 52.3132C20.9618 52.2568 20.6741 52.1623 20.3825 52.0842C19.2195 51.7717 18.092 51.3236 16.9987 50.8512C16.4675 50.5906 15.9208 50.3519 15.4275 50.0532C15.1713 49.9101 14.9241 49.7673 14.6729 49.6293C14.4322 49.4799 14.1865 49.3283 13.9512 49.1747C13.7154 49.0291 13.4801 48.8708 13.2617 48.7076C13.0315 48.5505 12.805 48.4001 12.5829 48.2299C12.1615 47.9005 11.7458 47.5842 11.3572 47.2418C10.5672 46.587 9.8806 45.8964 9.26443 45.2528C8.65487 44.6041 8.13557 43.976 7.69232 43.4065C7.25413 42.837 6.89838 42.3238 6.60923 41.8862C6.32127 41.4606 6.12669 41.111 5.98532 40.8709C5.84803 40.6272 5.78516 40.5034 5.78516 40.5034Z" fill="#88CCB1"/>
</g>
</svg>
