<svg width="50" height="56" viewBox="0 0 50 56" fill="none" xmlns="http://www.w3.org/2000/svg">
<path d="M14.4363 7.2239C9.7761 10.7917 6.31155 16.5086 4.6235 22.1004C3.81873 24.7676 3.43292 27.6166 3.12073 30.4019C3.0373 31.1453 3.01642 31.8339 2.98222 32.5784C2.95355 33.1939 2.93224 33.8319 2.89868 34.4762C2.74365 37.4714 2.09221 40.6339 0.124464 42.9141C-0.30397 43.4104 0.477035 44.0611 0.905788 43.5644C2.80588 41.3626 3.1365 37.8791 3.31209 35.0991C3.4277 33.2695 3.44933 31.4483 3.6962 29.6286C3.94861 27.7663 4.35425 25.9258 4.80644 24.1032C5.60385 20.8873 6.8688 17.8499 8.55302 15.0034C10.223 12.1812 12.3611 9.76318 14.5516 7.34973C14.6169 7.27767 14.5132 7.1652 14.4363 7.2239Z" fill="url(#paint0_linear_13345_316925)"/>
<path d="M9.41764 13.7694C7.99106 15.8648 6.73378 18.0237 5.76738 20.376C4.72384 22.916 4.16414 25.6251 3.77065 28.3348C3.36214 31.15 3.08075 33.9825 2.68449 36.7995C2.35632 39.1292 2.19959 42.1304 0.721324 44.0658C0.366516 44.5301 1.07038 45.1175 1.41847 44.6461C2.59094 43.0584 2.92859 41.001 3.241 39.0927C3.72803 36.1189 3.97043 33.1093 4.34985 30.1208C4.7249 27.1692 5.19724 24.2458 6.15074 21.4189C7.02924 18.8139 8.35354 16.334 9.71023 13.9543C9.80836 13.7828 9.52941 13.606 9.41764 13.7694Z" fill="url(#paint1_linear_13345_316925)"/>
<path d="M15.7787 5.59699C12.9084 7.17385 10.4689 9.72966 8.72218 12.4827C6.80994 15.4961 4.948 18.7479 3.93301 22.1895C2.8053 26.0143 3.17897 30.239 3.7375 34.1232C4.33279 38.2614 5.72165 42.4697 5.22769 46.6867C5.16834 47.1925 5.91621 47.3338 6.0056 46.8245C6.65566 43.127 5.56002 39.3824 4.90538 35.7556C4.19246 31.8078 4.07515 27.4688 4.72979 23.4809C5.32156 19.8727 7.05714 16.9925 8.85387 13.8845C10.7112 10.6724 13.1249 8.19884 15.9669 5.86695C16.1331 5.73092 15.9623 5.49611 15.7787 5.59699Z" fill="url(#paint2_linear_13345_316925)"/>
<path d="M15.6121 6.2356C14.2449 6.61944 13.081 7.83565 12.133 8.84976C10.9899 10.0723 10.0452 11.4643 9.10009 12.8415C7.09313 15.7667 5.68338 19.074 4.84121 22.5198C3.94354 26.1934 4.00917 30.2055 4.53467 33.9252C5.0346 37.467 5.9717 41.1195 7.69268 44.2612C8.00583 44.8335 8.90489 44.23 8.5309 43.67C6.66448 40.8717 5.84501 37.1436 5.3356 33.8591C4.78016 30.2794 4.86082 26.6044 5.53634 23.0492C6.19343 19.5928 7.75405 16.2402 9.68174 13.3258C10.5391 12.0298 11.4308 10.7486 12.4245 9.55417C13.4157 8.36292 14.6856 7.52352 15.7414 6.42155C15.8283 6.33121 15.7144 6.20713 15.6121 6.2356Z" fill="url(#paint3_linear_13345_316925)"/>
<path d="M15.935 6.98921C13.2315 7.8251 11.1625 10.7032 9.74788 12.9979C8.08347 15.6985 6.99657 18.7436 5.85596 21.6917C5.19781 23.393 4.64897 25.0556 4.36342 26.8659C4.06349 28.7689 4.04356 30.7173 4.05965 32.6397C4.07638 34.6553 4.13402 36.6697 4.14904 38.6853C4.16503 40.8544 4.36971 43.0046 4.11516 45.1692C4.04676 45.7516 4.92344 45.9158 5.01103 45.328C5.26728 43.6106 5.1961 41.8755 5.1343 40.1461C5.06792 38.2965 5.0903 36.4451 5.04597 34.5951C4.94784 30.5071 4.98279 26.521 6.4911 22.6643C7.60827 19.8066 8.66481 16.9221 10.1256 14.2179C10.8588 12.8601 11.704 11.5936 12.684 10.4045C13.6952 9.177 14.9689 8.31018 16.0955 7.22087C16.2069 7.1133 16.0599 6.95056 15.935 6.98921Z" fill="url(#paint4_linear_13345_316925)"/>
<path d="M16.2486 6.04944C10.2608 9.06572 6.93663 16.3633 4.77091 22.3485C3.52248 25.7985 3.40229 29.5262 3.30426 33.1569C3.19217 37.2864 3.13378 41.5523 2.38283 45.6235C2.28608 46.1483 3.3227 46.324 3.45226 45.8069C5.00457 39.6116 3.49168 30.8092 5.39273 23.6487C6.32429 20.1403 7.83047 16.718 9.69806 13.6286C11.48 10.6805 13.8472 8.59751 16.426 6.39497C16.5806 6.26315 16.4591 5.94363 16.2486 6.04944Z" fill="url(#paint5_linear_13345_316925)"/>
<path d="M15.5684 7.84701C13.1995 9.33072 11.4493 11.6679 10.1152 14.0954C8.39187 17.2315 7.12031 20.0721 6.05961 23.4813C5.02119 26.8206 4.73915 30.5484 5.27754 34.0191C5.77396 37.2164 6.99671 40.3653 8.87677 42.9959C9.14069 43.3654 9.71371 42.9622 9.4515 42.5906C7.57176 39.9266 6.51138 36.7458 6.04949 33.5298C5.55265 30.0693 5.85078 26.3841 6.89123 23.0908C7.85699 20.0345 8.98673 17.7135 10.384 14.8301C11.6493 12.2184 13.8482 10.1772 15.7608 8.05652C15.8735 7.93138 15.7007 7.76442 15.5684 7.84701Z" fill="url(#paint6_linear_13345_316925)"/>
<path d="M6.03254 30.6615C6.0318 30.6558 6.03116 30.6502 6.02977 30.6449C6.02828 30.6365 6.0269 30.6277 6.02551 30.6193C6.02061 30.5929 6.0042 30.5764 5.9847 30.5651C5.95849 30.5409 5.92429 30.5272 5.8821 30.5363C4.86008 30.7536 3.89123 30.5532 2.86718 30.5318C2.84172 30.531 2.82606 30.549 2.81657 30.5701C2.7991 30.5775 2.7845 30.5898 2.78173 30.6144C2.70981 31.2154 2.5795 31.7877 2.55819 32.4011C2.53486 33.0823 2.65323 33.7393 2.69617 34.4145C2.70246 34.5087 2.77545 34.5502 2.84769 34.5467C3.03447 34.7562 3.57946 34.6767 3.7931 34.6658C4.52146 34.6289 5.40614 34.631 6.06706 34.2764C6.10617 34.2553 6.12364 34.2229 6.12748 34.1881C6.13941 34.1755 6.14879 34.1597 6.15507 34.14C6.5021 33.0478 6.21932 31.7568 6.03254 30.6615Z" fill="url(#paint7_linear_13345_316925)"/>
<path d="M6.03254 30.6615C6.0318 30.6558 6.03116 30.6502 6.02977 30.6449C6.02828 30.6365 6.0269 30.6277 6.02551 30.6193C6.02061 30.5929 6.0042 30.5764 5.9847 30.5651C5.95849 30.5409 5.92429 30.5272 5.8821 30.5363C5.12688 30.697 4.40032 30.6295 3.65906 30.5746C4.29132 30.7026 5.51578 30.537 5.65898 31.3634C5.73719 31.8141 5.64982 32.251 5.58525 32.6981C5.52974 33.0812 5.59047 33.5002 5.38174 33.8429C5.06369 34.3642 3.51458 34.5924 3.08753 34.1308C2.7894 33.8085 2.86196 33.3596 2.85919 32.9484C2.85429 32.2056 2.92408 31.4738 3.02466 30.7384C3.04075 30.6221 3.10948 30.5616 3.19227 30.5448C3.08444 30.5391 2.97618 30.5339 2.86718 30.5318C2.84172 30.531 2.82606 30.549 2.81657 30.5701C2.7991 30.5775 2.7845 30.5898 2.78173 30.6144C2.70981 31.2154 2.5795 31.7877 2.55819 32.4011C2.53486 33.0823 2.65323 33.7393 2.69617 34.4145C2.70246 34.5087 2.77545 34.5502 2.84769 34.5467C3.03447 34.7562 3.57946 34.6767 3.7931 34.6658C4.52146 34.6289 5.40614 34.631 6.06706 34.2764C6.10617 34.2553 6.12364 34.2229 6.12748 34.1881C6.13941 34.1755 6.14879 34.1597 6.15507 34.14C6.5021 33.0478 6.21932 31.7568 6.03254 30.6615Z" fill="url(#paint8_linear_13345_316925)"/>
<path opacity="0.5" d="M3.62033 30.3279C3.62033 30.3279 1.99408 19.2023 13.8949 7.44409C13.8949 7.44409 9.7924 10.9788 6.57686 18.5324C3.36163 26.0859 3.62033 30.3279 3.62033 30.3279Z" fill="url(#paint9_radial_13345_316925)"/>
<path opacity="0.5" d="M4.80423 30.0305C4.80423 30.0305 4.76715 24.0398 7.35437 18.384C9.94149 12.7279 12.4912 9.86282 14.2656 8.63501C14.2656 8.63501 10.4083 12.0833 7.53902 19.0164C4.95159 25.2676 4.80423 30.0305 4.80423 30.0305Z" fill="url(#paint10_radial_13345_316925)"/>
<path opacity="0.5" d="M4.47073 30.0305C4.47073 30.0305 4.43408 24.0398 7.02088 18.384C9.60799 12.7279 12.1581 9.86282 13.9321 8.63501C13.9321 8.63501 10.0751 12.0833 7.20552 19.0164C4.61841 25.2676 4.47073 30.0305 4.47073 30.0305Z" fill="url(#paint11_radial_13345_316925)"/>
<path opacity="0.5" d="M3.36087 29.7324C3.36087 29.7324 3.32422 23.7417 5.91101 18.086C8.49813 12.4299 11.0482 9.56508 12.8222 8.33691C12.8222 8.33691 8.96524 11.7852 6.09566 18.7187C3.50854 24.9695 3.36087 29.7324 3.36087 29.7324Z" fill="url(#paint12_radial_13345_316925)"/>
<path opacity="0.9" d="M3.53976 35.0237C3.5289 34.9879 3.47168 35.0005 3.47584 35.0378C3.56907 35.8649 3.46955 36.6593 3.43567 37.4853C3.40072 38.343 3.36023 39.2003 3.32294 40.058C3.28 41.05 3.20946 42.0391 3.09322 43.0251C2.9937 43.8683 2.8879 44.7819 2.61801 45.589C2.54183 45.8164 2.88087 45.977 2.95801 45.7464C3.51387 44.0842 3.52048 42.2033 3.58931 40.4675C3.62703 39.5286 3.6672 38.5891 3.6445 37.6491C3.62383 36.783 3.79527 35.8663 3.53976 35.0237Z" fill="url(#paint13_radial_13345_316925)"/>
<path opacity="0.9" d="M4.79297 34.8925C4.79084 34.8422 4.71785 34.8503 4.71722 34.8988C4.6942 36.5699 4.68887 38.2413 4.63933 39.9116C4.61205 40.8305 4.53459 41.7479 4.47524 42.6653C4.42037 43.5068 4.43017 44.3543 4.34951 45.1937C4.33034 45.3958 4.62995 45.4549 4.66202 45.2489C4.79116 44.4193 4.7462 43.5578 4.78562 42.7202C4.82334 41.9205 4.87224 41.1215 4.89878 40.3215C4.95876 38.519 4.88375 36.6929 4.79297 34.8925Z" fill="url(#paint14_radial_13345_316925)"/>
<path opacity="0.9" d="M2.61769 38.964C2.27791 40.8322 1.96028 42.7152 1.01615 44.387C0.982697 44.4467 1.07167 44.4963 1.11397 44.4485C1.67814 43.8123 1.9606 43.0077 2.16486 42.1918C2.4291 41.138 2.58413 40.0561 2.68056 38.9749C2.68439 38.9341 2.62504 38.9225 2.61769 38.964Z" fill="url(#paint15_radial_13345_316925)"/>
<path d="M44.9086 39.6503C44.2104 41.4546 42.7838 42.9094 40.1708 43.7278C36.7845 44.7886 33.2955 45.2354 29.7546 45.1584C26.5131 45.0881 23.321 44.5612 20.112 44.1534C17.9233 43.875 15.7174 43.6276 13.5905 43.0146C10.2614 42.0556 7.22074 40.0085 7.72003 36.1791C7.83106 35.3281 7.96797 34.4796 8.13302 33.6378C8.46374 31.9558 8.93991 30.3055 9.46989 28.678C10.5016 25.5123 11.7704 22.431 12.792 19.2618C13.2986 17.6902 13.7535 16.0955 14.2022 14.506C14.6578 12.8936 14.9965 11.2454 14.9465 9.56131C14.8976 7.91239 14.3359 6.24133 13.8883 4.66587C13.6777 3.92384 13.4397 3.18182 13.1562 2.45806C13.3282 2.44681 13.5043 2.35577 13.6732 2.14592C13.9746 1.77227 14.0286 1.09175 14.6075 1.03938C15.0296 1.00142 15.5051 1.47841 15.8529 1.6742C16.8675 2.2461 17.748 1.28121 18.6425 0.877681C19.3463 0.560628 20.0537 0.588049 20.795 0.728641C21.1794 0.80176 21.5505 0.920925 21.8766 1.14237C22.2352 1.38632 22.032 1.92658 22.0941 2.28547C22.2691 3.29465 23.468 3.23207 24.1809 2.97407C25.3586 2.54839 26.1389 1.37787 27.3794 1.12373C28.1538 0.965215 28.8825 1.37824 29.4155 1.90022C29.8199 2.29601 30.162 2.67634 30.7354 2.78566C32.0348 3.03382 33.114 2.26121 33.8793 1.30722C34.4379 0.610536 35.0835 0.0734415 36.0056 0.00348713C36.8019 -0.0566251 37.1114 0.805622 37.818 0.917412C38.5348 1.0306 39.1028 0.578555 39.7724 1.0907C40.2501 1.45661 40.3157 2.05067 40.3007 2.63979C39.9271 3.58921 39.5706 4.54426 39.2945 5.52988C38.8594 7.08318 38.7404 8.62419 38.8459 10.2292C39.0672 13.6068 40.5692 16.7468 41.6892 19.8879C42.8791 23.2251 43.9419 26.6146 44.6649 30.0879C45.3576 33.4131 45.962 36.9289 44.9086 39.6503Z" fill="url(#paint16_radial_13345_316925)"/>
<path opacity="0.8" d="M44.6649 30.0882C44.5277 29.4277 44.3742 28.7714 44.2138 28.1169C44.2222 28.2343 44.2317 28.3517 44.2386 28.4698C44.3403 30.2266 44.3609 31.993 44.2376 33.7498C44.1552 34.9231 44.0417 36.19 43.482 37.2466C42.3334 39.4168 40.0678 40.5915 37.788 41.2292C36.3641 41.6274 34.9536 41.606 33.5096 41.31C31.943 40.9891 30.285 40.395 28.6687 40.5616C27.2125 40.7117 25.7548 41.3343 24.2759 41.1427C23.0835 40.9884 21.8612 40.6583 20.7879 40.0987C18.9623 39.1465 18.0584 37.6122 17.689 35.6068C17.0773 32.2847 16.8134 28.8769 16.7387 25.5021C16.6747 22.6141 16.879 19.7296 16.827 16.8448C16.7911 14.8247 16.5421 12.4387 14.8749 11.2231C14.7559 12.3336 14.507 13.4281 14.2022 14.5062C13.8261 15.8377 13.4442 17.172 13.0329 18.4944C13.0548 19.6013 12.7543 20.7086 12.5702 21.7951C12.2295 23.8117 12.1038 25.9446 12.0096 27.9879C11.9181 29.9679 11.8737 31.9979 12.1062 33.9702C12.1901 34.6785 12.5054 35.8455 12.0913 36.5084C11.054 38.1696 8.67247 35.1794 8.41548 34.1516C8.32821 33.8025 8.27515 33.4528 8.24447 33.103C8.206 33.2809 8.16828 33.4591 8.13302 33.638C7.96797 34.4799 7.83106 35.3284 7.72003 36.1794C7.22074 40.0087 10.2614 42.0559 13.5905 43.0148C15.7174 43.6278 17.9233 43.8753 20.112 44.1537C23.321 44.5614 26.5131 45.0883 29.7546 45.1587C33.2955 45.2356 36.7845 44.7889 40.1708 43.728C42.7838 42.9097 44.2104 41.4548 44.9086 39.6506C45.962 36.9292 45.3576 33.4134 44.6649 30.0882Z" fill="url(#paint17_linear_13345_316925)"/>
<path opacity="0.8" d="M30.4242 7.4382C30.4402 10.6699 30.1979 13.8904 29.9888 17.1127C30.0869 17.0997 30.185 17.0864 30.2828 17.074C31.0869 16.9707 31.8927 16.8642 32.6999 16.7623C32.6182 14.2254 32.8309 11.6689 32.829 9.13702C32.827 6.57701 33.2871 4.06443 33.6768 1.54272C32.9282 2.38318 31.9234 3.01308 30.7332 2.78565C30.4514 2.73187 30.2258 2.61235 30.0213 2.45804C30.0478 2.58599 30.0712 2.71114 30.0925 2.82994C30.3628 4.34845 30.4161 5.8986 30.4242 7.4382Z" fill="url(#paint18_linear_13345_316925)"/>
<path opacity="0.6" d="M37.572 3.72713C36.9617 5.28888 36.5248 6.89948 36.2097 8.54805C35.7099 11.1615 35.461 13.8045 35.3486 16.457C36.9965 16.291 38.6487 16.1845 40.3029 16.2039C39.5917 14.2646 38.9787 12.2912 38.8435 10.2293C38.7381 8.62432 38.8571 7.08332 39.2921 5.53001C39.5683 4.54439 39.9248 3.58934 40.2984 2.63992C40.3134 2.0508 40.2478 1.45675 39.7701 1.09083C39.1815 0.640562 38.6714 0.935115 38.0695 0.936174C38.2385 1.8645 37.9221 2.83044 37.572 3.72713Z" fill="url(#paint19_linear_13345_316925)"/>
<path opacity="0.8" d="M19.7808 18.1692C19.9252 18.1727 20.0698 18.1773 20.2147 18.1762C21.3673 18.1657 22.5156 18.0834 23.6611 17.9636C23.5487 15.6404 23.6175 13.3068 23.7958 10.9907C23.9164 9.42335 24.005 7.81801 24.3223 6.27561C24.5804 5.02564 24.9254 3.78518 25.0387 2.51553C24.7693 2.69937 24.4882 2.86248 24.1795 2.97425C23.4855 3.22523 22.3343 3.28814 22.1116 2.36157C22.1144 3.38762 21.9405 4.42457 21.8166 5.45624C21.5669 7.5354 21.2153 9.58328 20.7534 11.6273C20.2661 13.7855 19.9211 15.9603 19.7808 18.1692Z" fill="url(#paint20_linear_13345_316925)"/>
<path opacity="0.6" d="M16.1285 12.5266C15.8866 14.2662 15.5158 16.0128 15.1313 17.7384C15.1332 17.7384 15.1341 17.7384 15.1359 17.7384C15.2885 17.7472 15.4408 17.7602 15.5932 17.7725C15.8737 16.8635 16.14 15.9506 16.3754 15.0293C16.9713 12.695 17.5003 10.3543 17.8152 7.96439C17.9758 6.74431 18.025 5.52001 17.8759 4.29467C17.7967 3.64437 17.7471 2.41445 17.4553 1.55713C16.9451 1.83236 16.419 1.99405 15.851 1.67383C15.801 1.64571 15.7479 1.61091 15.6932 1.57365C17.1236 4.93968 16.6173 9.01153 16.1285 12.5266Z" fill="url(#paint21_linear_13345_316925)"/>
<path opacity="0.6" d="M16.6614 7.32768C16.6715 9.52601 16.4721 11.6892 16.0902 13.8436C16.417 12.9036 16.7235 11.9556 17.0087 10.9974C17.5817 9.06976 17.8687 7.14068 17.794 5.12409C17.7507 3.94479 17.6952 2.73068 17.427 1.57353C16.9267 1.83856 16.4107 1.98831 15.8538 1.6744C15.7298 1.60446 15.5889 1.49865 15.4404 1.39355C15.7937 2.14121 16.1205 2.87234 16.2829 3.73353C16.5067 4.92057 16.6558 6.1178 16.6614 7.32768Z" fill="url(#paint22_linear_13345_316925)"/>
<path opacity="0.6" d="M20.3005 13.8515C20.2546 14.1355 20.2045 14.4188 20.1499 14.7011C20.3402 14.101 20.5414 13.5045 20.7623 12.9151C21.418 11.1646 21.8956 9.36203 22.4693 7.58481C22.9486 6.09865 23.3945 4.60369 23.7653 3.08694C23.0754 3.22016 22.2371 3.11682 22.0929 2.2855C22.0308 1.92661 22.234 1.38636 21.8754 1.14241C21.799 1.09038 21.7197 1.04539 21.639 1.00391C22.2333 3.53159 21.6634 6.4839 21.1687 8.87274C20.8252 10.5311 20.569 12.1808 20.3005 13.8515Z" fill="url(#paint23_linear_13345_316925)"/>
<path opacity="0.6" d="M30.0178 15.3135C30.0614 14.989 30.1113 14.6664 30.1756 14.3483C30.4088 13.1999 30.7694 12.0817 31.0243 10.9362C31.2421 9.95688 31.4715 8.98988 31.8514 8.05945C31.9642 7.78316 32.3797 7.8025 32.3884 8.13256C32.4579 10.8409 32.5127 13.5567 32.7682 16.251C32.778 14.1416 32.8199 12.0322 32.9167 9.9249C33.0461 7.1023 33.4571 4.32469 33.7001 1.52002C32.9495 2.37173 31.9369 3.01533 30.7356 2.78579C30.3969 2.72112 30.1396 2.56083 29.9019 2.35977C30.2178 6.671 30.1106 10.9928 30.0178 15.3135Z" fill="url(#paint24_linear_13345_316925)"/>
<path opacity="0.6" d="M36.1481 9.43367C35.8066 11.3954 35.6376 13.3899 35.4868 15.3762C35.6051 14.502 35.7622 13.6345 35.9214 12.7667C36.1117 11.7311 36.2985 10.6935 36.5021 9.66074C36.6078 9.12189 36.6871 8.42941 37.0021 7.96262C37.9244 6.59385 38.4303 9.78483 38.489 10.1226C38.8612 12.2675 39.4855 14.2648 40.3147 16.2297C39.5993 14.282 38.9816 12.3006 38.8459 10.2295C38.7404 8.6245 38.8594 7.08349 39.2945 5.53019C39.5706 4.54457 39.9271 3.58952 40.3007 2.6401C40.3157 2.05098 40.2501 1.45692 39.7724 1.09101C39.1161 0.589059 38.5568 1.01227 37.8596 0.922646C38.1703 1.70614 38.1483 2.44536 37.7341 3.41939C36.9294 5.3126 36.5011 7.4111 36.1481 9.43367Z" fill="url(#paint25_linear_13345_316925)"/>
<path opacity="0.6" d="M24.7122 2.71745C24.6081 4.16812 24.1727 5.55974 24.0491 7.009C23.9192 8.53735 23.6173 10.0446 23.5883 11.5824C23.5593 13.1315 23.6654 14.6725 23.8002 16.2121C23.8205 14.2142 23.877 12.2166 24.0383 10.226C24.254 7.56614 24.8801 4.98432 25.2586 2.35962C25.0819 2.48898 24.9003 2.60953 24.7122 2.71745Z" fill="url(#paint26_linear_13345_316925)"/>
<path d="M47.9708 27.0537C45.5869 19.7421 44.0901 20.2444 42.4823 15.8351C40.8746 11.4258 41.2348 10.4208 40.3201 9.61164C39.625 8.9965 38.9309 9.42955 38.6861 10.0159C39.1128 9.25204 40.0327 8.48681 41.0411 13.1559C42.4268 19.5744 44.9769 18.6816 48.1369 29.7326C49.9888 36.2091 49.2318 39.4834 47.63 41.5123C46.4984 42.9454 44.9452 43.7573 43.5911 44.6351C40.3201 46.7561 32.0598 51.0539 28.789 50.3284C25.518 49.6026 22.4134 49.1002 18.81 42.5141C15.2065 35.9282 16.2598 23.2023 16.6481 17.007C17.0359 10.8117 15.8209 9.80461 14.4859 10.4767C13.8204 10.8117 12.8225 11.1463 13.2663 15.5001C13.7097 19.8535 13.6542 26.9979 13.5986 30.3467C13.5435 33.6955 14.3749 44.0213 19.4754 49.1561C24.5756 54.291 30.5076 55.0165 39.4333 50.3839C48.3587 45.7514 47.6381 46.3096 49.0797 42.9049C50.5209 39.5002 50.3548 34.3654 47.9708 27.0537Z" fill="url(#paint27_linear_13345_316925)"/>
<path opacity="0.9" d="M48.4442 41.4379C49.1349 40.5633 49.7123 39.2072 49.9983 37.4296C49.9553 34.6102 49.3168 31.1784 47.9719 27.0538C45.588 19.7422 44.0912 20.2445 42.4833 15.8352C40.8756 11.4259 41.2359 10.4209 40.3211 9.61174C40.215 9.51753 40.1089 9.45074 40.0045 9.40259C39.9033 9.44371 39.8097 9.51963 39.7262 9.61454C40.1176 9.97625 40.5705 10.971 41.0422 13.156C42.4278 19.5745 44.978 18.6817 48.138 29.7327C49.9898 36.2092 49.2329 39.4835 47.6311 41.5124C46.4995 42.9455 44.9462 43.7574 43.5922 44.6352C40.8249 46.4296 34.4877 49.7809 30.6206 50.3317C34.3463 50.2097 41.4343 46.4876 44.4054 44.561C45.7594 43.6829 47.3127 42.8709 48.4442 41.4379Z" fill="url(#paint28_radial_13345_316925)"/>
<path d="M16.0551 17.1555C15.6671 23.3508 14.6138 36.0764 18.2173 42.6626C21.8208 49.2488 24.9253 49.7511 28.196 50.4766C29.0466 50.6654 30.2354 50.5125 31.5845 50.1487C30.4801 50.4021 29.5113 50.4882 28.7875 50.3279C25.5164 49.6021 22.4119 49.0998 18.8084 42.5136C15.2049 35.9278 16.2583 23.2018 16.6465 17.0065C17.0285 10.9093 15.8574 9.83858 14.5479 10.4467C15.5903 10.4386 16.378 11.9993 16.0551 17.1555Z" fill="url(#paint29_linear_13345_316925)"/>
<path d="M14.3376 12.1695C14.3376 12.1695 15.1875 12.0577 15.2985 13.211C15.4095 14.3646 15.1139 15.0718 14.5594 15.2578C14.5594 15.2578 13.3765 15.146 13.3765 13.7692C13.3765 12.3927 14.3376 12.1695 14.3376 12.1695Z" fill="url(#paint30_radial_13345_316925)"/>
<path d="M15.3 13.211C15.1889 12.0577 14.3391 12.1695 14.3391 12.1695C14.3391 12.1695 14.3265 12.1726 14.3081 12.1786C14.4278 12.244 14.5312 12.3529 14.61 12.4605C14.888 12.8412 14.9285 13.4236 14.8014 13.869C14.7099 14.1892 14.4673 14.6419 14.0727 14.6268C13.7976 14.6163 13.5846 14.462 13.4331 14.2426C13.6653 15.1724 14.5608 15.2578 14.5608 15.2578C15.1153 15.0718 15.411 14.3646 15.3 13.211Z" fill="url(#paint31_linear_13345_316925)"/>
<path d="M17.5334 7.25315C18.0648 7.13294 17.8518 6.41797 17.4862 6.13114C17.3484 6.12481 17.2105 6.12095 17.0722 6.12271C16.2653 6.13219 14.3234 5.81091 13.7501 6.55049C13.5811 6.76807 13.6855 7.12626 13.9756 7.16703C14.8704 7.29392 16.1148 7.26897 17.164 7.24963C17.2872 7.24753 17.4101 7.24894 17.5334 7.25315Z" fill="url(#paint32_linear_13345_316925)"/>
<path d="M24.2762 6.11517C24.2076 6.11237 24.1392 6.10815 24.0708 6.10639C23.2929 6.08389 22.5297 6.19813 21.7644 6.28882C21.408 6.56721 21.3413 7.06354 21.5288 7.45441C22.2693 7.37884 23.0056 7.25124 23.7542 7.22559C23.8704 7.22137 23.987 7.22243 24.1033 7.22243C24.1386 6.85298 24.2063 6.48425 24.2762 6.11517Z" fill="url(#paint33_linear_13345_316925)"/>
<path d="M32.862 6.05298C32.7513 6.06388 32.6407 6.07477 32.5328 6.08673C31.8373 6.16194 31.1526 6.26177 30.4658 6.3377C30.5266 6.71275 30.5416 7.09661 30.5287 7.48221C30.9582 7.43827 31.3879 7.38342 31.8191 7.32367C32.1218 7.28184 32.4305 7.24494 32.7433 7.21365C32.7852 6.82699 32.8306 6.44068 32.862 6.05298Z" fill="url(#paint34_linear_13345_316925)"/>
<path d="M39.7784 6.55456C38.9785 6.25544 38.0833 6.08109 37.1595 5.99146C37.0861 6.39006 37.0097 6.78938 36.9189 7.18411C37.7883 7.26672 38.6409 7.40872 39.4443 7.63123C40.0626 7.80241 40.3778 6.77848 39.7784 6.55456Z" fill="url(#paint35_linear_13345_316925)"/>
<path opacity="0.6" d="M17.4862 6.13092C17.3484 6.12459 17.2105 6.12073 17.0722 6.12249C16.6224 6.12776 15.8209 6.03074 15.0995 6.07116C15.3677 6.1035 15.6361 6.13901 15.9078 6.16396C16.3708 6.20614 16.8323 6.18891 17.2925 6.2666C17.5693 6.31335 17.5373 6.72953 17.2925 6.79737C16.648 6.97628 16.0164 6.79245 15.3656 6.80511C14.9169 6.81389 14.3447 6.92532 13.9401 6.67681C13.873 6.63532 13.8307 6.56116 13.8154 6.48277C13.7938 6.50492 13.7693 6.5253 13.7501 6.55027C13.5811 6.76784 13.6855 7.12604 13.9756 7.16681C14.8704 7.2937 16.1148 7.26875 17.164 7.24941C17.2872 7.24731 17.4101 7.24871 17.5334 7.25292C18.0648 7.13271 17.8518 6.41775 17.4862 6.13092Z" fill="url(#paint36_linear_13345_316925)"/>
<path opacity="0.6" d="M24.0708 6.1064C23.6983 6.0955 23.3293 6.11659 22.9617 6.15104C23.2469 6.16721 23.5311 6.18971 23.8152 6.22908C24.0894 6.26739 24.0638 6.70115 23.8152 6.76021C23.4835 6.83859 23.1469 6.79886 22.8157 6.86004C22.5294 6.91276 22.2588 6.96548 21.9694 6.90888C21.7837 6.87233 21.7361 6.65299 21.8059 6.50466C21.8489 6.41397 21.9097 6.34859 21.9801 6.29726C21.9847 6.28391 21.9927 6.27266 21.999 6.26036C21.9208 6.26986 21.8426 6.27934 21.7644 6.28883C21.408 6.56723 21.3413 7.06356 21.5288 7.45443C22.2693 7.37885 23.0056 7.25125 23.7542 7.2256C23.8704 7.22138 23.987 7.22244 24.1033 7.22244C24.1386 6.853 24.2063 6.48426 24.2762 6.11518C24.2076 6.11238 24.1392 6.10816 24.0708 6.1064Z" fill="url(#paint37_linear_13345_316925)"/>
<path opacity="0.6" d="M32.5328 6.08673C32.4158 6.09937 32.2995 6.11485 32.183 6.1289C32.3009 6.13664 32.4193 6.14999 32.5369 6.1739C32.7845 6.22487 32.7845 6.55564 32.6019 6.67726C32.1131 7.00309 31.3739 7.11101 30.8024 7.02138C30.6227 6.9929 30.5598 6.75775 30.6391 6.6168C30.7326 6.44948 30.8848 6.34543 31.0531 6.26599C30.8573 6.2906 30.6613 6.3159 30.4658 6.3377C30.5266 6.71275 30.5416 7.09661 30.5287 7.48221C30.9582 7.43827 31.3879 7.38342 31.8191 7.32367C32.1218 7.28184 32.4305 7.24494 32.7433 7.21365C32.7852 6.82699 32.8306 6.44068 32.862 6.05298C32.7513 6.06388 32.6407 6.07477 32.5328 6.08673Z" fill="url(#paint38_linear_13345_316925)"/>
<path opacity="0.6" d="M39.7784 6.55456C39.762 6.54823 39.7442 6.54402 39.7274 6.53804C39.8088 6.61257 39.8828 6.69833 39.9449 6.80237C40.0343 6.95177 39.9523 7.16443 39.7815 7.20661C39.3762 7.30679 38.9677 7.18447 38.5823 7.05441C38.3043 6.96056 37.9876 6.90924 37.7226 6.7841C37.4989 6.679 37.3564 6.4456 37.4954 6.20692C37.5376 6.13417 37.5966 6.08565 37.6644 6.05296C37.4968 6.03048 37.3295 6.00797 37.1595 5.99146C37.0861 6.39006 37.0097 6.78938 36.9189 7.18411C37.7883 7.26672 38.6409 7.40872 39.4443 7.63123C40.0626 7.80241 40.3778 6.77848 39.7784 6.55456Z" fill="url(#paint39_linear_13345_316925)"/>
<g opacity="0.5">
<path d="M26.4362 22.3115C26.3667 22.1248 26.11 22.0682 25.9816 22.231C25.6021 22.7122 25.5357 23.4268 25.4614 24.0107C25.3623 24.7889 25.1884 25.9063 25.5158 26.6319C25.5752 26.7644 25.7487 26.854 25.8779 26.7486C26.4983 26.241 26.3866 25.3439 26.4083 24.6121C26.4278 23.9446 26.6778 22.9586 26.4362 22.3115Z" fill="url(#paint40_linear_13345_316925)"/>
<path d="M26.0255 29.5278C25.9149 29.4061 25.7466 29.4093 25.6617 29.5608C25.2976 30.2121 25.1963 30.9535 25.1691 31.693C25.1408 32.4558 24.9757 33.471 25.4247 34.129C25.5221 34.272 25.7271 34.2394 25.8021 34.0949C26.1805 33.3634 26.1317 32.2428 26.1799 31.4248C26.2141 30.8448 26.4561 30.0012 26.0255 29.5278Z" fill="url(#paint41_linear_13345_316925)"/>
<path d="M24.4072 28.248C23.7264 27.9629 22.9715 27.9808 22.2481 27.8916C21.6329 27.8153 20.9873 27.6803 20.4441 28.0462C20.3652 28.0993 20.3569 28.2283 20.4343 28.2873C21.3665 28.9963 23.3375 29.0413 24.3919 28.6016C24.5377 28.5404 24.5692 28.3158 24.4072 28.248Z" fill="url(#paint42_linear_13345_316925)"/>
<path d="M30.7711 28.4383C30.1583 28.0759 29.3571 28.1047 28.6661 28.02C28.0107 27.9395 27.3694 27.9384 26.7217 28.0752C26.537 28.1142 26.478 28.3019 26.6079 28.4404C27.0457 28.9075 27.9426 28.7258 28.5258 28.8214C29.2551 28.9409 30.1499 29.1979 30.7965 28.723C30.904 28.6443 30.8765 28.5008 30.7711 28.4383Z" fill="url(#paint43_linear_13345_316925)"/>
<path d="M24.7466 29.2525C24.0096 29.5045 23.4981 29.9422 22.9335 30.4733C22.3051 31.0638 21.8421 31.6466 21.6473 32.4955C21.6253 32.5922 21.7192 32.7015 21.8194 32.6853C22.671 32.5458 23.0445 31.8997 23.6406 31.3419C24.1719 30.8441 24.9135 30.2743 25.0654 29.5239C25.1024 29.3411 24.9146 29.1948 24.7466 29.2525Z" fill="url(#paint44_linear_13345_316925)"/>
<path d="M30.0108 32.046C29.7305 31.3236 29.1384 30.7981 28.5689 30.3042C28.0184 29.8269 27.401 29.1833 26.6406 29.1439C26.4769 29.1355 26.3198 29.2701 26.3854 29.448C26.6277 30.106 27.2484 30.4719 27.7746 30.8958C28.3964 31.3967 29.0047 31.9975 29.7704 32.2674C29.9058 32.3149 30.0709 32.2013 30.0108 32.046Z" fill="url(#paint45_linear_13345_316925)"/>
<path d="M30.8259 24.531C30.475 24.0262 29.2519 24.8948 28.9304 25.093C28.1903 25.5493 26.7514 26.1964 26.6662 27.1989C26.6585 27.2903 26.7165 27.3487 26.8048 27.3522C27.4291 27.3768 31.3413 25.2713 30.8259 24.531Z" fill="url(#paint46_linear_13345_316925)"/>
<path d="M25.0603 27.4014C24.4674 26.1444 23.6826 24.0857 22.1313 23.8101C22.0504 23.7957 21.9924 23.8621 21.9918 23.9384C21.984 24.6386 22.7368 25.4056 23.117 25.9536C23.5789 26.6193 24.1532 27.206 24.884 27.5638C24.9786 27.6102 25.1102 27.5058 25.0603 27.4014Z" fill="url(#paint47_linear_13345_316925)"/>
</g>
<g opacity="0.6">
<path d="M26.2145 24.3887C26.1929 25.1202 26.3045 26.0176 25.6842 26.5248C25.6241 26.574 25.5543 26.58 25.4907 26.5596C25.5002 26.5832 25.5057 26.6092 25.5162 26.6317C25.5755 26.7642 25.7491 26.8538 25.8782 26.7484C26.4987 26.2408 26.387 25.3438 26.4086 24.6119C26.4281 23.9444 26.6782 22.9584 26.4366 22.3113C26.4054 22.2284 26.3367 22.1725 26.2588 22.1489C26.4659 22.7957 26.2334 23.7409 26.2145 24.3887Z" fill="url(#paint48_linear_13345_316925)"/>
<path d="M25.9434 29.4663C26.2108 29.9535 26.0153 30.6825 25.9846 31.201C25.9365 32.0193 25.9857 33.1399 25.6068 33.871C25.5542 33.9726 25.4378 34.0173 25.3394 33.9863C25.3649 34.0352 25.3924 34.083 25.4235 34.1287C25.5209 34.2718 25.7259 34.2391 25.8009 34.0946C26.1794 33.3631 26.1306 32.2425 26.1787 31.4245C26.213 30.8446 26.4549 30.0009 26.0244 29.5275C26 29.5008 25.9724 29.4807 25.9434 29.4663Z" fill="url(#paint49_linear_13345_316925)"/>
<path d="M24.3909 28.601C24.5368 28.5398 24.5682 28.3152 24.4062 28.2474C24.3773 28.2351 24.3472 28.2266 24.3175 28.2154C24.3081 28.2832 24.2658 28.3486 24.1968 28.3778C23.1926 28.7964 21.3589 28.7743 20.3809 28.1584C20.3771 28.2066 20.3932 28.2562 20.4333 28.2867C21.3655 28.9957 23.3365 29.0407 24.3909 28.601Z" fill="url(#paint50_linear_13345_316925)"/>
<path d="M30.7698 28.4382C30.737 28.4189 30.7021 28.4048 30.6682 28.3876C30.6637 28.4291 30.6427 28.4692 30.6012 28.4997C29.9545 28.9746 29.0597 28.7177 28.3304 28.5982C27.8 28.5113 27.0113 28.6523 26.5435 28.3271C26.5529 28.3658 26.5735 28.4048 26.6066 28.4403C27.0445 28.9075 27.9414 28.7258 28.5245 28.8214C29.2539 28.9409 30.1486 29.1978 30.7953 28.723C30.9028 28.6442 30.8752 28.5008 30.7698 28.4382Z" fill="url(#paint51_linear_13345_316925)"/>
<path d="M24.8747 29.2451C24.8751 29.263 24.8751 29.2813 24.8716 29.3003C24.7194 30.0508 23.9778 30.6206 23.4464 31.1179C22.8588 31.6684 22.4853 32.3018 21.6592 32.453C21.6557 32.4674 21.6505 32.4804 21.6473 32.4951C21.6253 32.5918 21.7192 32.7011 21.8194 32.685C22.671 32.5454 23.0445 31.8993 23.6406 31.3415C24.1719 30.8438 24.9135 30.274 25.0654 29.5235C25.093 29.3875 24.9956 29.2715 24.8747 29.2451Z" fill="url(#paint52_linear_13345_316925)"/>
<path d="M29.822 31.6657C29.8528 31.7975 29.7076 31.8896 29.5849 31.8478C28.8483 31.5947 28.2632 31.0312 27.665 30.5616C27.1892 30.1883 26.6372 29.8597 26.3785 29.3096C26.3666 29.3507 26.3663 29.3964 26.3844 29.4463C26.6267 30.1043 27.2475 30.4702 27.7736 30.8942C28.3954 31.3951 29.0037 31.9958 29.7694 32.2657C29.9048 32.3132 30.07 32.1997 30.0099 32.0443C29.9582 31.9111 29.893 31.7863 29.822 31.6657Z" fill="url(#paint53_linear_13345_316925)"/>
<path d="M26.6788 27.1241C26.6749 27.1487 26.6683 27.1726 26.6662 27.1979C26.6585 27.2893 26.7165 27.3476 26.8048 27.3512C27.4291 27.3758 31.3413 25.2702 30.8259 24.53C30.7857 24.4716 30.7323 24.4336 30.6716 24.4087C30.8133 25.1961 27.441 27.0267 26.6788 27.1241Z" fill="url(#paint54_linear_13345_316925)"/>
<path d="M24.884 27.5625C24.9786 27.6089 25.1102 27.5046 25.0603 27.4002C24.956 27.1784 24.8452 26.9312 24.7255 26.6739C24.774 26.7833 24.8215 26.8901 24.8672 26.9903C24.9129 27.0898 24.7922 27.1885 24.7049 27.1446C24.0335 26.8054 23.5059 26.249 23.0813 25.618C22.7525 25.1291 22.1209 24.4563 22.0531 23.8257C22.0165 23.8482 21.9921 23.8897 21.9918 23.9371C21.984 24.6373 22.7368 25.4043 23.117 25.9523C23.5789 26.6181 24.1532 27.2047 24.884 27.5625Z" fill="url(#paint55_linear_13345_316925)"/>
</g>
<path d="M48.1377 29.7322C44.9777 18.6812 42.4275 19.574 41.0419 13.1555C40.1324 8.94414 39.2951 9.15399 38.8262 9.79618C38.8321 9.93995 38.8377 10.0837 38.8472 10.2289C39.0685 13.6065 40.5705 16.7465 41.6905 19.8876C42.1734 21.242 42.6336 22.6058 43.0605 23.9795C43.2145 24.2758 43.372 24.5742 43.5364 24.8765C47.7188 32.5706 48.4858 37.6492 47.6307 41.5119C49.2326 39.483 49.9895 36.2088 48.1377 29.7322Z" fill="url(#paint56_linear_13345_316925)"/>
<path opacity="0.5" d="M23.862 6.47867C23.1896 6.30221 22.4668 6.43085 21.8248 6.65899C21.7996 6.66812 21.8076 6.70784 21.8346 6.70467C22.5035 6.62875 23.2098 6.69589 23.868 6.54756C23.906 6.53911 23.8928 6.48675 23.862 6.47867Z" fill="url(#paint57_radial_13345_316925)"/>
<path opacity="0.5" d="M17.2922 6.5713C16.1537 6.47569 15.0717 6.17198 13.9321 6.41348C13.7401 6.45425 13.7561 6.75971 13.9576 6.72632C15.0759 6.54142 16.1711 6.73616 17.2884 6.65249C17.3334 6.64934 17.339 6.57516 17.2922 6.5713Z" fill="url(#paint58_radial_13345_316925)"/>
<path opacity="0.5" d="M32.5481 6.43949C31.9636 6.34247 31.2472 6.52525 30.6921 6.71225C30.6617 6.72244 30.6752 6.76181 30.7028 6.76322C31.2866 6.78923 31.9653 6.75549 32.5387 6.64511C32.6479 6.62402 32.6713 6.45987 32.5481 6.43949Z" fill="url(#paint59_radial_13345_316925)"/>
<path opacity="0.5" d="M39.8063 6.81463C39.0745 6.56962 38.3791 6.44659 37.6092 6.39634C37.5662 6.39352 37.5541 6.45363 37.5973 6.46311C38.018 6.55802 38.4506 6.63782 38.8602 6.77455C39.1618 6.87544 39.4502 7.0178 39.7732 7.00233C39.8667 6.99775 39.9012 6.84661 39.8063 6.81463Z" fill="url(#paint60_radial_13345_316925)"/>
<path d="M14.548 10.4473C14.5427 10.461 14.7418 10.4149 15.0434 10.583C15.3527 10.7446 15.6314 11.2012 15.8149 11.8087C16.0011 12.4206 16.0988 13.1946 16.1474 14.0808C16.1931 14.968 16.1862 15.9716 16.1222 17.0619C16.0597 18.1512 15.992 19.3309 15.9204 20.5787C15.8545 21.8269 15.7976 23.143 15.7546 24.5047C15.6771 27.2278 15.682 30.139 15.9337 33.0316C16.052 34.478 16.2406 35.9185 16.5171 37.3182C16.7891 38.7182 17.1773 40.0723 17.686 41.3271C17.9546 41.9517 18.2422 42.5423 18.5784 43.1082C18.7435 43.3905 18.893 43.6805 19.0659 43.9476C19.2355 44.2169 19.4038 44.483 19.5693 44.7455C20.2609 45.7772 20.9973 46.6989 21.7755 47.45C22.5524 48.2026 23.3694 48.778 24.149 49.1808C24.9297 49.584 25.6596 49.8329 26.2675 50.002C26.8757 50.1731 27.3604 50.2828 27.6903 50.3605C28.0202 50.4368 28.1962 50.4772 28.1962 50.4772C28.1962 50.4772 28.0195 50.4399 27.6882 50.37C27.3569 50.299 26.8701 50.1981 26.2578 50.0382C25.6454 49.8803 24.9076 49.6445 24.113 49.2529C23.3191 48.8627 22.4804 48.2957 21.6896 47.5414C20.895 46.7906 20.143 45.8689 19.4353 44.8366C19.2652 44.5729 19.0927 44.3061 18.9182 44.0362C18.7408 43.7673 18.5893 43.4815 18.4209 43.2003C18.0795 42.6439 17.7807 42.0277 17.5086 41.402C16.9895 40.1334 16.5929 38.7682 16.3147 37.3593C16.0307 35.9512 15.8359 34.5033 15.7131 33.0509C15.4704 30.1443 15.4756 27.2264 15.5625 24.4987C15.6522 21.7704 15.8534 19.2304 15.9983 17.0545C16.0698 15.9673 16.0964 14.9683 16.0678 14.0843C16.0364 13.2013 15.9529 12.4294 15.7794 11.8192C15.6083 11.2136 15.3412 10.7569 15.0385 10.5914C14.7438 10.4191 14.5423 10.4606 14.548 10.4473Z" fill="white"/>
<path d="M31.9229 51.2492C31.9229 51.2492 32.5604 51.5561 34.2237 50.942C35.8867 50.3283 39.7953 49.6583 42.0127 51.3047C44.2304 52.9512 44.4241 55.1003 43.0661 55.7699C41.7079 56.4399 40.3773 55.4908 39.1298 54.9049C37.8827 54.3189 33.7803 53.5094 32.117 54.4026L31.9229 51.2492Z" fill="url(#paint61_linear_13345_316925)"/>
<path d="M43.2047 53.2589C42.6502 52.1984 40.7377 50.8311 38.3537 50.8311C35.9701 50.8311 34.4175 51.5007 33.2534 51.6125C32.758 51.6599 32.4197 51.5049 32.1927 51.3116C32.0078 51.2894 31.9229 51.2497 31.9229 51.2497L32.117 54.4031C33.7803 53.5099 37.8827 54.3194 39.1298 54.9054C40.3773 55.4913 41.7079 56.4404 43.0661 55.7704C43.1093 55.749 43.1463 55.7223 43.1861 55.698C43.8419 54.8323 43.616 54.0456 43.2047 53.2589Z" fill="url(#paint62_radial_13345_316925)"/>
<path opacity="0.9" d="M42.0109 51.3047C39.7935 49.6583 35.8849 50.3283 34.2218 50.942C33.1598 51.3339 32.5174 51.3504 32.1909 51.3111C32.4179 51.5044 32.7562 51.6594 33.2516 51.612C34.4157 51.5002 35.9683 50.8306 38.3519 50.8306C40.7358 50.8306 42.6484 52.1979 43.2029 53.2584C43.6141 54.0451 43.84 54.8318 43.1843 55.6975C44.4039 54.9604 44.1581 52.8992 42.0109 51.3047Z" fill="url(#paint63_radial_13345_316925)"/>
<path d="M43.1762 55.6884C43.1762 55.6884 43.2247 55.6525 43.3158 55.5847C43.3381 55.5675 43.365 55.5499 43.3909 55.5271C43.4142 55.5021 43.4404 55.475 43.468 55.4455C43.4959 55.416 43.526 55.3847 43.5577 55.3509C43.5836 55.3119 43.6108 55.2705 43.6398 55.2269C43.7054 55.1439 43.74 55.0311 43.7937 54.9175C43.8241 54.7952 43.8675 54.6648 43.873 54.5179C43.8982 54.2286 43.8622 53.8943 43.7428 53.5544C43.6234 53.2152 43.4338 52.8714 43.1888 52.5406C42.944 52.2088 42.6321 51.9027 42.2911 51.612C42.2024 51.5427 42.1137 51.4728 42.024 51.4025C41.9427 51.335 41.8333 51.2766 41.7387 51.2127C41.5457 51.0756 41.3334 50.9894 41.1256 50.8861C40.6931 50.7118 40.2356 50.5666 39.7633 50.4966C39.2937 50.4123 38.8153 50.3845 38.3458 50.3799C37.8752 50.3803 37.4125 50.4063 36.967 50.4566C36.7436 50.4759 36.5254 50.5107 36.3118 50.5381C36.0994 50.5771 35.8896 50.6045 35.6884 50.6471C35.2831 50.7195 34.9068 50.8197 34.5621 50.9184C34.2249 51.032 33.8929 51.1188 33.615 51.2011C33.4756 51.2467 33.3315 51.2577 33.2065 51.2844C33.0783 51.3019 32.9635 51.3339 32.8555 51.3325C32.6419 51.3413 32.4761 51.3557 32.3619 51.3371C32.2484 51.3272 32.188 51.322 32.188 51.322L32.1908 51.2998C32.1908 51.2998 32.2509 51.2998 32.3633 51.3005C32.4754 51.3097 32.6398 51.2815 32.8469 51.2566C32.9512 51.2492 33.0616 51.2074 33.1838 51.1821C33.3056 51.1487 33.4387 51.1329 33.5773 51.0791C33.8544 50.981 34.1672 50.8703 34.5087 50.7497C34.8565 50.6379 35.236 50.5237 35.6452 50.4369C36.0529 50.3423 36.4894 50.2766 36.943 50.2253C37.3972 50.1796 37.8689 50.1578 38.3485 50.1697C38.8276 50.1848 39.3157 50.2239 39.7947 50.3209C40.2769 50.401 40.744 50.5575 41.1882 50.7458C41.4043 50.8573 41.6284 50.9561 41.8148 51.0942C41.9123 51.162 42.0086 51.2141 42.1046 51.2942C42.1951 51.3677 42.2845 51.4404 42.3734 51.5129C42.7163 51.8155 43.0305 52.1322 43.2728 52.4781C43.5159 52.8222 43.702 53.179 43.8164 53.5298C43.931 53.8813 43.9607 54.2261 43.9275 54.5238C43.9184 54.6746 43.871 54.8082 43.8364 54.933C43.7787 55.0493 43.74 55.1636 43.6709 55.2476C43.6405 55.2915 43.6115 55.333 43.5839 55.3724C43.5504 55.4065 43.5186 55.4385 43.4893 55.4683C43.46 55.4979 43.4327 55.5249 43.4076 55.5502C43.3808 55.5724 43.3539 55.5893 43.3312 55.6061C43.2386 55.6715 43.1894 55.7063 43.1894 55.7063L43.1762 55.6884Z" fill="white"/>
<path d="M25.6571 51.0257C25.6571 51.0257 25.186 49.4351 26.4332 49.1838C27.6806 48.9328 27.9858 49.9719 31.0348 49.8538C31.7555 49.8256 32.4206 50.077 32.5316 51.863C32.6426 53.649 33.1136 55.184 31.3117 55.2954C29.5102 55.4072 26.2114 55.2399 25.8512 53.984C25.4908 52.728 25.6571 51.0257 25.6571 51.0257Z" fill="url(#paint64_linear_13345_316925)"/>
<path d="M32.5312 51.863C32.4736 50.9368 32.2665 50.4257 31.9803 50.1498C32.1489 50.4219 32.2299 50.7632 32.1946 51.1653C32.1681 51.4718 32.048 51.5544 31.9492 51.2493C31.6266 50.2524 29.8323 50.5597 29.0458 50.406C28.1687 50.2349 27.3256 49.9389 26.4328 49.85C26.253 49.832 26.0578 49.6197 26.1968 49.4359C26.2722 49.3364 26.3455 49.2563 26.4223 49.187C25.1895 49.4457 25.6567 51.0257 25.6567 51.0257C25.6567 51.0257 25.4905 52.7281 25.8508 53.984C26.211 55.24 29.5098 55.4073 31.3113 55.2955C33.1132 55.1841 32.6422 53.649 32.5312 51.863Z" fill="url(#paint65_linear_13345_316925)"/>
<path d="M26.3212 50.1886C26.3212 50.1886 25.6837 50.1331 25.7113 51.0541C25.7389 51.975 25.6837 53.9283 26.5984 54.347C27.5132 54.7656 30.0354 55.4074 31.6707 54.8215C31.6707 54.8215 32.0035 54.8493 31.8648 53.7329C31.7262 52.6168 31.7542 51.3887 31.3105 51.1099C30.867 50.8308 28.7534 50.7683 27.9566 50.5795C27.0143 50.3563 26.3212 50.1886 26.3212 50.1886Z" fill="url(#paint66_linear_13345_316925)"/>
<path opacity="0.5" d="M31.8649 53.7327C31.7263 52.6166 31.7543 51.3885 31.3106 51.1098C30.8671 50.8306 28.7535 50.7681 27.9567 50.5793C27.8757 50.5603 27.7975 50.5417 27.7207 50.5234C28.132 50.728 28.5603 50.8939 29.0855 50.941C29.532 50.9814 30.1933 50.9575 30.5941 51.1994C30.8448 51.3509 30.9887 51.5744 31.0707 51.8356C31.1905 52.6539 31.3015 53.398 31.371 54.1524C31.4069 54.5422 31.1793 54.8164 30.9645 54.9935C31.2117 54.9556 31.4498 54.9008 31.6708 54.8213C31.6708 54.8213 32.0035 54.8491 31.8649 53.7327Z" fill="url(#paint67_linear_13345_316925)"/>
<path d="M31.8648 53.7323C31.8484 53.5987 31.8341 53.463 31.8213 53.3277C31.7741 53.7112 31.6596 54.0546 31.4333 54.3007C30.9687 54.8054 29.8084 53.9615 29.4984 53.6159C29.1227 53.1973 29.0917 52.6549 28.8134 52.1941C28.4381 51.5726 27.5942 52.1442 27.0523 52.0071C26.1275 51.7733 25.8331 51.3456 25.7989 50.522C25.7409 50.6471 25.7043 50.8179 25.7113 51.0535C25.7389 51.9744 25.6837 53.9277 26.5984 54.3464C27.5132 54.765 30.0354 55.4069 31.6707 54.8209C31.6707 54.8209 32.0035 54.8487 31.8648 53.7323Z" fill="url(#paint68_linear_13345_316925)"/>
<path d="M28.794 52.6763C28.8478 53.1224 28.669 53.5108 28.3957 53.5442C28.122 53.5776 27.857 53.243 27.8035 52.7969C27.7498 52.3508 27.9282 51.9624 28.2019 51.9291C28.4753 51.8956 28.7406 52.2303 28.794 52.6763Z" fill="url(#paint69_linear_13345_316925)"/>
<path d="M28.5942 52.7457C28.6347 53.0831 28.4933 53.3781 28.279 53.4044C28.0639 53.4304 27.8576 53.1777 27.8171 52.8403C27.7763 52.5025 27.9177 52.2079 28.132 52.1815C28.3467 52.1555 28.5534 52.4079 28.5942 52.7457Z" fill="url(#paint70_linear_13345_316925)"/>
<path d="M28.1512 52.31C28.1512 52.31 28.7608 52.7567 28.3174 53.1754C28.3174 53.1754 26.4603 53.3149 25.5176 52.4776C25.5176 52.4776 24.9081 51.5008 25.6287 51.5289C25.6287 51.5289 26.2386 52.4495 28.1512 52.31Z" fill="url(#paint71_linear_13345_316925)"/>
<path d="M28.1504 52.3094C27.4849 52.3579 26.9807 52.2771 26.6016 52.1527C27.0572 52.3512 27.5625 52.3966 28.0477 52.4813C28.3944 52.5421 28.0293 52.8398 27.6794 52.8398C27.014 52.8398 26.4127 52.7629 25.7637 52.2947C25.5741 52.1579 25.3607 51.9502 25.2853 51.728C25.2239 52.0068 25.5168 52.4771 25.5168 52.4771C26.4595 53.3144 28.3166 53.1748 28.3166 53.1748C28.76 52.7562 28.1504 52.3094 28.1504 52.3094Z" fill="url(#paint72_linear_13345_316925)"/>
<path d="M31.9475 50.4697C31.3117 49.7024 30.1749 49.9006 29.2852 49.8395C28.2371 49.7674 27.2662 48.9923 26.2442 49.5287C26.2219 49.5403 26.2414 49.5751 26.2638 49.567C26.8968 49.3396 27.4498 49.5881 28.0406 49.8131C28.4298 49.9611 28.8314 50.0335 29.2444 50.075C30.1176 50.1632 31.1682 49.9087 31.8829 50.5295C31.9202 50.5618 31.9799 50.5087 31.9475 50.4697Z" fill="white"/>
<path d="M27.6048 52.5415C26.823 52.2885 26.0877 52.208 25.4306 51.6575C25.3992 51.6312 25.3492 51.6747 25.3765 51.7081C25.8528 52.2895 26.8362 52.7552 27.5911 52.6213C27.627 52.6147 27.6491 52.5556 27.6048 52.5415Z" fill="white"/>
<defs>
<linearGradient id="paint0_linear_13345_316925" x1="1.48941e-05" y1="25.4748" x2="14.5723" y2="25.4748" gradientUnits="userSpaceOnUse">
<stop stop-color="#7D873E"/>
<stop offset="0.337549" stop-color="#6F7D3D"/>
<stop offset="0.971991" stop-color="#4B6239"/>
<stop offset="1" stop-color="#496139"/>
</linearGradient>
<linearGradient id="paint1_linear_13345_316925" x1="0.624044" y1="29.2622" x2="9.73079" y2="29.2622" gradientUnits="userSpaceOnUse">
<stop stop-color="#636C30"/>
<stop offset="0.394571" stop-color="#55622F"/>
<stop offset="1" stop-color="#384D2C"/>
</linearGradient>
<linearGradient id="paint2_linear_13345_316925" x1="13.6577" y1="46.1871" x2="12.6841" y2="39.8635" gradientUnits="userSpaceOnUse">
<stop stop-color="#A9B857"/>
<stop offset="0.0760231" stop-color="#9BAD56"/>
<stop offset="0.218818" stop-color="#779252"/>
<stop offset="0.280672" stop-color="#658450"/>
<stop offset="0.420877" stop-color="#607E48"/>
<stop offset="0.638957" stop-color="#546D32"/>
<stop offset="0.906296" stop-color="#3F520E"/>
<stop offset="1" stop-color="#374700"/>
</linearGradient>
<linearGradient id="paint3_linear_13345_316925" x1="13.4456" y1="43.7355" x2="11.2733" y2="28.3719" gradientUnits="userSpaceOnUse">
<stop stop-color="#A9B857"/>
<stop offset="0.17436" stop-color="#9BAD55"/>
<stop offset="0.458725" stop-color="#7C9552"/>
<stop offset="0.761998" stop-color="#576B26"/>
<stop offset="1" stop-color="#374700"/>
</linearGradient>
<linearGradient id="paint4_linear_13345_316925" x1="4.05571" y1="26.3395" x2="16.135" y2="26.3395" gradientUnits="userSpaceOnUse">
<stop stop-color="#636C30"/>
<stop offset="0.394571" stop-color="#55622F"/>
<stop offset="1" stop-color="#384D2C"/>
</linearGradient>
<linearGradient id="paint5_linear_13345_316925" x1="6.7426" y1="45.832" x2="8.20334" y2="33.2573" gradientUnits="userSpaceOnUse">
<stop stop-color="#A9B857"/>
<stop offset="0.17436" stop-color="#9BAD55"/>
<stop offset="0.458725" stop-color="#7C9552"/>
<stop offset="0.761998" stop-color="#576B26"/>
<stop offset="1" stop-color="#374700"/>
</linearGradient>
<linearGradient id="paint6_linear_13345_316925" x1="5.01021" y1="25.4836" x2="15.7972" y2="25.4836" gradientUnits="userSpaceOnUse">
<stop stop-color="#4A5122"/>
<stop offset="0.49029" stop-color="#3C4721"/>
<stop offset="1" stop-color="#293920"/>
</linearGradient>
<linearGradient id="paint7_linear_13345_316925" x1="2.55521" y1="32.6107" x2="6.31916" y2="32.6107" gradientUnits="userSpaceOnUse">
<stop stop-color="#C8731B"/>
<stop offset="0.150909" stop-color="#D2AB47"/>
<stop offset="0.245377" stop-color="white"/>
<stop offset="0.393945" stop-color="#DFB346"/>
<stop offset="0.45671" stop-color="#ECC561"/>
<stop offset="0.556003" stop-color="#FFDE87"/>
<stop offset="0.816745" stop-color="#D0842F"/>
</linearGradient>
<linearGradient id="paint8_linear_13345_316925" x1="1.73595" y1="32.6107" x2="6.61515" y2="32.6107" gradientUnits="userSpaceOnUse">
<stop stop-color="#C8731B"/>
<stop offset="0.150909" stop-color="#D2AB47"/>
<stop offset="0.245377" stop-color="white"/>
<stop offset="0.393945" stop-color="#DFB346"/>
<stop offset="0.45671" stop-color="#ECC561"/>
<stop offset="0.556003" stop-color="#FFDE87"/>
<stop offset="0.816745" stop-color="#D0842F"/>
</linearGradient>
<radialGradient id="paint9_radial_13345_316925" cx="0" cy="0" r="1" gradientUnits="userSpaceOnUse" gradientTransform="translate(0.959164 16.0766) scale(13.637 13.7295)">
<stop stop-color="#A9B857"/>
<stop offset="0.17436" stop-color="#9BAD55"/>
<stop offset="0.458725" stop-color="#7C9552"/>
<stop offset="0.761998" stop-color="#576B26"/>
<stop offset="1" stop-color="#374700"/>
</radialGradient>
<radialGradient id="paint10_radial_13345_316925" cx="0" cy="0" r="1" gradientUnits="userSpaceOnUse" gradientTransform="translate(2.4399 16.7061) scale(12.622 12.7076)">
<stop stop-color="#A9B857"/>
<stop offset="0.17436" stop-color="#9BAD55"/>
<stop offset="0.458725" stop-color="#7C9552"/>
<stop offset="0.761998" stop-color="#576B26"/>
<stop offset="1" stop-color="#374700"/>
</radialGradient>
<radialGradient id="paint11_radial_13345_316925" cx="0" cy="0" r="1" gradientUnits="userSpaceOnUse" gradientTransform="translate(2.10641 16.7061) scale(12.622 12.7076)">
<stop stop-color="#A9B857"/>
<stop offset="0.17436" stop-color="#9BAD55"/>
<stop offset="0.458725" stop-color="#7C9552"/>
<stop offset="0.761998" stop-color="#576B26"/>
<stop offset="1" stop-color="#374700"/>
</radialGradient>
<radialGradient id="paint12_radial_13345_316925" cx="0" cy="0" r="1" gradientUnits="userSpaceOnUse" gradientTransform="translate(0.996544 16.408) scale(12.622 12.7076)">
<stop stop-color="#A9B857"/>
<stop offset="0.17436" stop-color="#9BAD55"/>
<stop offset="0.458725" stop-color="#7C9552"/>
<stop offset="0.761998" stop-color="#576B26"/>
<stop offset="1" stop-color="#374700"/>
</radialGradient>
<radialGradient id="paint13_radial_13345_316925" cx="0" cy="0" r="1" gradientUnits="userSpaceOnUse" gradientTransform="translate(3.14436 40.4306) scale(3.83133 3.8573)">
<stop stop-color="#A9B857"/>
<stop offset="0.17436" stop-color="#9BAD55"/>
<stop offset="0.458725" stop-color="#7C9552"/>
<stop offset="0.761998" stop-color="#576B26"/>
<stop offset="1" stop-color="#374700"/>
</radialGradient>
<radialGradient id="paint14_radial_13345_316925" cx="0" cy="0" r="1" gradientUnits="userSpaceOnUse" gradientTransform="translate(4.63453 40.1179) scale(3.69948 3.72456)">
<stop stop-color="#A9B857"/>
<stop offset="0.17436" stop-color="#9BAD55"/>
<stop offset="0.458725" stop-color="#7C9552"/>
<stop offset="0.761998" stop-color="#576B26"/>
<stop offset="1" stop-color="#374700"/>
</radialGradient>
<radialGradient id="paint15_radial_13345_316925" cx="0" cy="0" r="1" gradientUnits="userSpaceOnUse" gradientTransform="translate(1.84479 41.7028) scale(2.02985 2.04361)">
<stop stop-color="#A9B857"/>
<stop offset="0.17436" stop-color="#9BAD55"/>
<stop offset="0.458725" stop-color="#7C9552"/>
<stop offset="0.761998" stop-color="#576B26"/>
<stop offset="1" stop-color="#374700"/>
</radialGradient>
<radialGradient id="paint16_radial_13345_316925" cx="0" cy="0" r="1" gradientUnits="userSpaceOnUse" gradientTransform="translate(25.9805 28.5372) scale(20.7436 20.8842)">
<stop stop-color="#A9B857"/>
<stop offset="0.270861" stop-color="#9BAD56"/>
<stop offset="0.779622" stop-color="#779252"/>
<stop offset="1" stop-color="#658450"/>
</radialGradient>
<linearGradient id="paint17_linear_13345_316925" x1="29.1909" y1="27.4486" x2="22.5329" y2="46.2483" gradientUnits="userSpaceOnUse">
<stop offset="0.0279018" stop-color="white"/>
<stop offset="0.415458" stop-color="#A9B857"/>
<stop offset="0.573788" stop-color="#9BAD56"/>
<stop offset="0.87118" stop-color="#779252"/>
<stop offset="1" stop-color="#658450"/>
</linearGradient>
<linearGradient id="paint18_linear_13345_316925" x1="31.0035" y1="17.6418" x2="31.9026" y2="1.23293" gradientUnits="userSpaceOnUse">
<stop offset="0.0279018" stop-color="white"/>
<stop offset="0.415458" stop-color="#A9B857"/>
<stop offset="0.573788" stop-color="#9BAD56"/>
<stop offset="0.87118" stop-color="#779252"/>
<stop offset="1" stop-color="#658450"/>
</linearGradient>
<linearGradient id="paint19_linear_13345_316925" x1="37.8303" y1="16.0845" x2="38.1113" y2="0.958597" gradientUnits="userSpaceOnUse">
<stop offset="0.0279018" stop-color="white"/>
<stop offset="0.415458" stop-color="#A9B857"/>
<stop offset="0.573788" stop-color="#9BAD56"/>
<stop offset="0.87118" stop-color="#779252"/>
<stop offset="1" stop-color="#658450"/>
</linearGradient>
<linearGradient id="paint20_linear_13345_316925" x1="22.0417" y1="17.1511" x2="22.9408" y2="0.741925" gradientUnits="userSpaceOnUse">
<stop offset="0.0279018" stop-color="white"/>
<stop offset="0.415458" stop-color="#A9B857"/>
<stop offset="0.573788" stop-color="#9BAD56"/>
<stop offset="0.87118" stop-color="#779252"/>
<stop offset="1" stop-color="#658450"/>
</linearGradient>
<linearGradient id="paint21_linear_13345_316925" x1="16.1298" y1="16.8263" x2="17.0289" y2="0.417709" gradientUnits="userSpaceOnUse">
<stop offset="0.0279018" stop-color="white"/>
<stop offset="0.415458" stop-color="#A9B857"/>
<stop offset="0.573788" stop-color="#9BAD56"/>
<stop offset="0.87118" stop-color="#779252"/>
<stop offset="1" stop-color="#658450"/>
</linearGradient>
<linearGradient id="paint22_linear_13345_316925" x1="16.0951" y1="15.3511" x2="16.8444" y2="-0.871874" gradientUnits="userSpaceOnUse">
<stop stop-color="#A9B857"/>
<stop offset="0.270861" stop-color="#9BAD56"/>
<stop offset="0.779622" stop-color="#779252"/>
<stop offset="1" stop-color="#658450"/>
</linearGradient>
<linearGradient id="paint23_linear_13345_316925" x1="21.6517" y1="15.6075" x2="22.401" y2="-0.615414" gradientUnits="userSpaceOnUse">
<stop stop-color="#A9B857"/>
<stop offset="0.270861" stop-color="#9BAD56"/>
<stop offset="0.779622" stop-color="#779252"/>
<stop offset="1" stop-color="#658450"/>
</linearGradient>
<linearGradient id="paint24_linear_13345_316925" x1="31.1581" y1="16.0465" x2="31.9074" y2="-0.17616" gradientUnits="userSpaceOnUse">
<stop stop-color="#A9B857"/>
<stop offset="0.270861" stop-color="#9BAD56"/>
<stop offset="0.779622" stop-color="#779252"/>
<stop offset="1" stop-color="#658450"/>
</linearGradient>
<linearGradient id="paint25_linear_13345_316925" x1="37.8754" y1="16.3573" x2="38.6248" y2="0.134196" gradientUnits="userSpaceOnUse">
<stop stop-color="#A9B857"/>
<stop offset="0.270861" stop-color="#9BAD56"/>
<stop offset="0.779622" stop-color="#779252"/>
<stop offset="1" stop-color="#658450"/>
</linearGradient>
<linearGradient id="paint26_linear_13345_316925" x1="24.0224" y1="15.7175" x2="24.7718" y2="-0.505644" gradientUnits="userSpaceOnUse">
<stop stop-color="#A9B857"/>
<stop offset="0.270861" stop-color="#9BAD56"/>
<stop offset="0.779622" stop-color="#779252"/>
<stop offset="1" stop-color="#658450"/>
</linearGradient>
<linearGradient id="paint27_linear_13345_316925" x1="13.1563" y1="31.3909" x2="49.9998" y2="31.3909" gradientUnits="userSpaceOnUse">
<stop stop-color="#A9B857"/>
<stop offset="0.0760231" stop-color="#9BAD56"/>
<stop offset="0.218818" stop-color="#779252"/>
<stop offset="0.280672" stop-color="#658450"/>
<stop offset="0.420877" stop-color="#607E48"/>
<stop offset="0.638957" stop-color="#546D32"/>
<stop offset="0.906296" stop-color="#3F520E"/>
<stop offset="1" stop-color="#374700"/>
</linearGradient>
<radialGradient id="paint28_radial_13345_316925" cx="0" cy="0" r="1" gradientUnits="userSpaceOnUse" gradientTransform="translate(48.1564 32.0399) scale(21.5148 21.6606)">
<stop stop-color="#A9B857"/>
<stop offset="0.17436" stop-color="#9BAD55"/>
<stop offset="0.458725" stop-color="#7C9552"/>
<stop offset="0.678595" stop-color="#576B26"/>
<stop offset="0.851144" stop-color="#374700"/>
<stop offset="0.980728"/>
</radialGradient>
<linearGradient id="paint29_linear_13345_316925" x1="25.6479" y1="50.7619" x2="15.8403" y2="9.78671" gradientUnits="userSpaceOnUse">
<stop stop-color="#A9B857"/>
<stop offset="0.0760231" stop-color="#9BAD56"/>
<stop offset="0.218818" stop-color="#779252"/>
<stop offset="0.280672" stop-color="#658450"/>
<stop offset="0.420877" stop-color="#607E48"/>
<stop offset="0.638957" stop-color="#546D32"/>
<stop offset="0.906296" stop-color="#3F520E"/>
<stop offset="1" stop-color="#374700"/>
</linearGradient>
<radialGradient id="paint30_radial_13345_316925" cx="0" cy="0" r="1" gradientUnits="userSpaceOnUse" gradientTransform="translate(12.7851 12.802) scale(2.49205 2.50895)">
<stop offset="0.245377" stop-color="white"/>
<stop offset="0.556003" stop-color="#FFDE87"/>
<stop offset="0.816745" stop-color="#D0842F"/>
</radialGradient>
<linearGradient id="paint31_linear_13345_316925" x1="13.4331" y1="13.7121" x2="15.3231" y2="13.7121" gradientUnits="userSpaceOnUse">
<stop stop-color="#C8731B"/>
<stop offset="0.393945" stop-color="#DFB346"/>
<stop offset="0.466116" stop-color="#DCAA42"/>
<stop offset="0.816745" stop-color="#D0842F"/>
</linearGradient>
<linearGradient id="paint32_linear_13345_316925" x1="15.761" y1="7.26548" x2="15.761" y2="6.06128" gradientUnits="userSpaceOnUse">
<stop offset="0.102858" stop-color="#374700"/>
<stop offset="0.533243" stop-color="#658450"/>
<stop offset="0.624219" stop-color="#607E48"/>
<stop offset="0.765727" stop-color="#546D32"/>
<stop offset="0.939197" stop-color="#3F520E"/>
<stop offset="1" stop-color="#374700"/>
</linearGradient>
<linearGradient id="paint33_linear_13345_316925" x1="22.8996" y1="7.45055" x2="22.8176" y2="5.98" gradientUnits="userSpaceOnUse">
<stop offset="0.102858" stop-color="#374700"/>
<stop offset="0.533243" stop-color="#658450"/>
<stop offset="0.624219" stop-color="#607E48"/>
<stop offset="0.765727" stop-color="#546D32"/>
<stop offset="0.939197" stop-color="#3F520E"/>
<stop offset="1" stop-color="#374700"/>
</linearGradient>
<linearGradient id="paint34_linear_13345_316925" x1="31.7509" y1="7.4755" x2="31.6375" y2="6.05066" gradientUnits="userSpaceOnUse">
<stop offset="0.102858" stop-color="#374700"/>
<stop offset="0.533243" stop-color="#658450"/>
<stop offset="0.624219" stop-color="#607E48"/>
<stop offset="0.765727" stop-color="#546D32"/>
<stop offset="0.939197" stop-color="#3F520E"/>
<stop offset="1" stop-color="#374700"/>
</linearGradient>
<linearGradient id="paint35_linear_13345_316925" x1="38.409" y1="7.62978" x2="38.7444" y2="6.00568" gradientUnits="userSpaceOnUse">
<stop offset="0.102858" stop-color="#374700"/>
<stop offset="0.533243" stop-color="#658450"/>
<stop offset="0.624219" stop-color="#607E48"/>
<stop offset="0.765727" stop-color="#546D32"/>
<stop offset="0.939197" stop-color="#3F520E"/>
<stop offset="1" stop-color="#374700"/>
</linearGradient>
<linearGradient id="paint36_linear_13345_316925" x1="15.761" y1="7.26526" x2="15.761" y2="6.06127" gradientUnits="userSpaceOnUse">
<stop stop-color="#7C9552"/>
<stop offset="0.560293" stop-color="#576B26"/>
<stop offset="1" stop-color="#374700"/>
</linearGradient>
<linearGradient id="paint37_linear_13345_316925" x1="22.8996" y1="7.45055" x2="22.8176" y2="5.98028" gradientUnits="userSpaceOnUse">
<stop stop-color="#7C9552"/>
<stop offset="0.560293" stop-color="#576B26"/>
<stop offset="1" stop-color="#374700"/>
</linearGradient>
<linearGradient id="paint38_linear_13345_316925" x1="31.7509" y1="7.4755" x2="31.6375" y2="6.05066" gradientUnits="userSpaceOnUse">
<stop stop-color="#7C9552"/>
<stop offset="0.560293" stop-color="#576B26"/>
<stop offset="1" stop-color="#374700"/>
</linearGradient>
<linearGradient id="paint39_linear_13345_316925" x1="38.409" y1="7.62978" x2="38.7444" y2="6.00559" gradientUnits="userSpaceOnUse">
<stop stop-color="#7C9552"/>
<stop offset="0.560293" stop-color="#576B26"/>
<stop offset="1" stop-color="#374700"/>
</linearGradient>
<linearGradient id="paint40_linear_13345_316925" x1="25.3256" y1="24.4651" x2="26.5408" y2="24.4651" gradientUnits="userSpaceOnUse">
<stop stop-color="#A9B857"/>
<stop offset="0.270861" stop-color="#9BAD56"/>
<stop offset="0.779622" stop-color="#779252"/>
<stop offset="1" stop-color="#658450"/>
</linearGradient>
<linearGradient id="paint41_linear_13345_316925" x1="25.1162" y1="31.8313" x2="26.2785" y2="31.8313" gradientUnits="userSpaceOnUse">
<stop stop-color="#A9B857"/>
<stop offset="0.270861" stop-color="#9BAD56"/>
<stop offset="0.779622" stop-color="#779252"/>
<stop offset="1" stop-color="#658450"/>
</linearGradient>
<linearGradient id="paint42_linear_13345_316925" x1="20.3804" y1="28.3444" x2="24.5157" y2="28.3444" gradientUnits="userSpaceOnUse">
<stop stop-color="#A9B857"/>
<stop offset="0.270861" stop-color="#9BAD56"/>
<stop offset="0.779622" stop-color="#779252"/>
<stop offset="1" stop-color="#658450"/>
</linearGradient>
<linearGradient id="paint43_linear_13345_316925" x1="26.5381" y1="28.4818" x2="30.8648" y2="28.4818" gradientUnits="userSpaceOnUse">
<stop stop-color="#A9B857"/>
<stop offset="0.270861" stop-color="#9BAD56"/>
<stop offset="0.779622" stop-color="#779252"/>
<stop offset="1" stop-color="#658450"/>
</linearGradient>
<linearGradient id="paint44_linear_13345_316925" x1="21.6441" y1="30.9633" x2="25.07" y2="30.9633" gradientUnits="userSpaceOnUse">
<stop stop-color="#A9B857"/>
<stop offset="0.270861" stop-color="#9BAD56"/>
<stop offset="0.779622" stop-color="#779252"/>
<stop offset="1" stop-color="#658450"/>
</linearGradient>
<linearGradient id="paint45_linear_13345_316925" x1="26.3702" y1="30.7109" x2="30.0235" y2="30.7109" gradientUnits="userSpaceOnUse">
<stop stop-color="#A9B857"/>
<stop offset="0.270861" stop-color="#9BAD56"/>
<stop offset="0.779622" stop-color="#779252"/>
<stop offset="1" stop-color="#658450"/>
</linearGradient>
<linearGradient id="paint46_linear_13345_316925" x1="26.6656" y1="25.8639" x2="30.8725" y2="25.8639" gradientUnits="userSpaceOnUse">
<stop stop-color="#A9B857"/>
<stop offset="0.270861" stop-color="#9BAD56"/>
<stop offset="0.779622" stop-color="#779252"/>
<stop offset="1" stop-color="#658450"/>
</linearGradient>
<linearGradient id="paint47_linear_13345_316925" x1="21.9917" y1="25.6916" x2="25.0712" y2="25.6916" gradientUnits="userSpaceOnUse">
<stop stop-color="#A9B857"/>
<stop offset="0.270861" stop-color="#9BAD56"/>
<stop offset="0.779622" stop-color="#779252"/>
<stop offset="1" stop-color="#658450"/>
</linearGradient>
<linearGradient id="paint48_linear_13345_316925" x1="25.4907" y1="24.4718" x2="26.5412" y2="24.4718" gradientUnits="userSpaceOnUse">
<stop stop-color="#7C9552"/>
<stop offset="0.560293" stop-color="#576B26"/>
<stop offset="1" stop-color="#374700"/>
</linearGradient>
<linearGradient id="paint49_linear_13345_316925" x1="25.3394" y1="31.8436" x2="26.2773" y2="31.8436" gradientUnits="userSpaceOnUse">
<stop stop-color="#7C9552"/>
<stop offset="0.560293" stop-color="#576B26"/>
<stop offset="1" stop-color="#374700"/>
</linearGradient>
<linearGradient id="paint50_linear_13345_316925" x1="20.3804" y1="28.5219" x2="24.5147" y2="28.5219" gradientUnits="userSpaceOnUse">
<stop stop-color="#7C9552"/>
<stop offset="0.560293" stop-color="#576B26"/>
<stop offset="1" stop-color="#374700"/>
</linearGradient>
<linearGradient id="paint51_linear_13345_316925" x1="26.5435" y1="28.663" x2="30.8636" y2="28.663" gradientUnits="userSpaceOnUse">
<stop stop-color="#7C9552"/>
<stop offset="0.560293" stop-color="#576B26"/>
<stop offset="1" stop-color="#374700"/>
</linearGradient>
<linearGradient id="paint52_linear_13345_316925" x1="21.6441" y1="30.9658" x2="25.07" y2="30.9658" gradientUnits="userSpaceOnUse">
<stop stop-color="#7C9552"/>
<stop offset="0.560293" stop-color="#576B26"/>
<stop offset="1" stop-color="#374700"/>
</linearGradient>
<linearGradient id="paint53_linear_13345_316925" x1="26.3702" y1="30.7931" x2="30.0225" y2="30.7931" gradientUnits="userSpaceOnUse">
<stop stop-color="#7C9552"/>
<stop offset="0.560293" stop-color="#576B26"/>
<stop offset="1" stop-color="#374700"/>
</linearGradient>
<linearGradient id="paint54_linear_13345_316925" x1="26.6656" y1="25.88" x2="30.8725" y2="25.88" gradientUnits="userSpaceOnUse">
<stop stop-color="#7C9552"/>
<stop offset="0.560293" stop-color="#576B26"/>
<stop offset="1" stop-color="#374700"/>
</linearGradient>
<linearGradient id="paint55_linear_13345_316925" x1="21.9917" y1="25.6998" x2="25.0712" y2="25.6998" gradientUnits="userSpaceOnUse">
<stop stop-color="#7C9552"/>
<stop offset="0.560293" stop-color="#576B26"/>
<stop offset="1" stop-color="#374700"/>
</linearGradient>
<linearGradient id="paint56_linear_13345_316925" x1="52.3321" y1="24.0292" x2="43.6809" y2="25.4247" gradientUnits="userSpaceOnUse">
<stop stop-color="#A9B857"/>
<stop offset="0.0760231" stop-color="#9BAD56"/>
<stop offset="0.218818" stop-color="#779252"/>
<stop offset="0.280672" stop-color="#658450"/>
<stop offset="0.420877" stop-color="#607E48"/>
<stop offset="0.638957" stop-color="#546D32"/>
<stop offset="0.906296" stop-color="#3F520E"/>
<stop offset="1" stop-color="#374700"/>
</linearGradient>
<radialGradient id="paint57_radial_13345_316925" cx="0" cy="0" r="1" gradientUnits="userSpaceOnUse" gradientTransform="translate(22.8504 6.55055) scale(0.743917 0.74896)">
<stop stop-color="#A9B857"/>
<stop offset="0.17436" stop-color="#9BAD55"/>
<stop offset="0.458725" stop-color="#7C9552"/>
<stop offset="0.761998" stop-color="#576B26"/>
<stop offset="1" stop-color="#374700"/>
</radialGradient>
<radialGradient id="paint58_radial_13345_316925" cx="0" cy="0" r="1" gradientUnits="userSpaceOnUse" gradientTransform="translate(15.5608 6.52556) scale(1.25546 1.26397)">
<stop stop-color="#A9B857"/>
<stop offset="0.17436" stop-color="#9BAD55"/>
<stop offset="0.458725" stop-color="#7C9552"/>
<stop offset="0.761998" stop-color="#576B26"/>
<stop offset="1" stop-color="#374700"/>
</radialGradient>
<radialGradient id="paint59_radial_13345_316925" cx="0" cy="0" r="1" gradientUnits="userSpaceOnUse" gradientTransform="translate(31.6528 6.59207) scale(0.703014 0.70778)">
<stop stop-color="#A9B857"/>
<stop offset="0.17436" stop-color="#9BAD55"/>
<stop offset="0.458725" stop-color="#7C9552"/>
<stop offset="0.761998" stop-color="#576B26"/>
<stop offset="1" stop-color="#374700"/>
</radialGradient>
<radialGradient id="paint60_radial_13345_316925" cx="0" cy="0" r="1" gradientUnits="userSpaceOnUse" gradientTransform="translate(38.7165 6.69986) scale(0.838065 0.843746)">
<stop stop-color="#A9B857"/>
<stop offset="0.17436" stop-color="#9BAD55"/>
<stop offset="0.458725" stop-color="#7C9552"/>
<stop offset="0.761998" stop-color="#576B26"/>
<stop offset="1" stop-color="#374700"/>
</radialGradient>
<linearGradient id="paint61_linear_13345_316925" x1="31.9229" y1="53.136" x2="43.9214" y2="53.136" gradientUnits="userSpaceOnUse">
<stop stop-color="#A9B857"/>
<stop offset="0.0760231" stop-color="#9BAD56"/>
<stop offset="0.218818" stop-color="#779252"/>
<stop offset="0.280672" stop-color="#658450"/>
<stop offset="0.420877" stop-color="#607E48"/>
<stop offset="0.638957" stop-color="#546D32"/>
<stop offset="0.906296" stop-color="#3F520E"/>
<stop offset="1" stop-color="#374700"/>
</linearGradient>
<radialGradient id="paint62_radial_13345_316925" cx="0" cy="0" r="1" gradientUnits="userSpaceOnUse" gradientTransform="translate(39.5826 56.0401) scale(9.2 9.26236)">
<stop offset="0.147936" stop-color="#A9B857"/>
<stop offset="0.260833" stop-color="#9BAD56"/>
<stop offset="0.472887" stop-color="#779252"/>
<stop offset="0.564742" stop-color="#658450"/>
<stop offset="0.649579" stop-color="#607E48"/>
<stop offset="0.781537" stop-color="#546D32"/>
<stop offset="0.943301" stop-color="#3F520E"/>
<stop offset="1" stop-color="#374700"/>
</radialGradient>
<radialGradient id="paint63_radial_13345_316925" cx="0" cy="0" r="1" gradientUnits="userSpaceOnUse" gradientTransform="translate(39.0267 49.4909) scale(7.85208 7.90531)">
<stop stop-color="#A9B857"/>
<stop offset="0.17436" stop-color="#9BAD55"/>
<stop offset="0.458725" stop-color="#7C9552"/>
<stop offset="0.678595" stop-color="#576B26"/>
<stop offset="0.851144" stop-color="#374700"/>
<stop offset="0.980728"/>
</radialGradient>
<linearGradient id="paint64_linear_13345_316925" x1="25.5698" y1="52.2345" x2="32.6697" y2="52.2345" gradientUnits="userSpaceOnUse">
<stop stop-color="#C8731B"/>
<stop offset="0.150909" stop-color="#D2AB47"/>
<stop offset="0.245377" stop-color="white"/>
<stop offset="0.393945" stop-color="#DFB346"/>
<stop offset="0.45671" stop-color="#ECC561"/>
<stop offset="0.556003" stop-color="#FFDE87"/>
<stop offset="0.816745" stop-color="#D0842F"/>
</linearGradient>
<linearGradient id="paint65_linear_13345_316925" x1="25.5698" y1="52.2557" x2="32.6693" y2="52.2557" gradientUnits="userSpaceOnUse">
<stop stop-color="#C8731B"/>
<stop offset="0.150909" stop-color="#D2AB47"/>
<stop offset="0.393945" stop-color="#DFB346"/>
<stop offset="0.45671" stop-color="#ECC561"/>
<stop offset="0.556003" stop-color="#FFDE87"/>
<stop offset="0.816745" stop-color="#D0842F"/>
</linearGradient>
<linearGradient id="paint66_linear_13345_316925" x1="25.154" y1="52.6099" x2="31.9175" y2="52.6374" gradientUnits="userSpaceOnUse">
<stop stop-color="#536C31"/>
<stop offset="0.177814" stop-color="#A9B857"/>
<stop offset="0.315771" stop-color="#9BAD56"/>
<stop offset="0.574896" stop-color="#779252"/>
<stop offset="0.687141" stop-color="#658450"/>
<stop offset="0.748121" stop-color="#607E48"/>
<stop offset="0.842971" stop-color="#546D32"/>
<stop offset="0.959245" stop-color="#3F520E"/>
<stop offset="1" stop-color="#374700"/>
</linearGradient>
<linearGradient id="paint67_linear_13345_316925" x1="25.1537" y1="52.7412" x2="31.917" y2="52.7687" gradientUnits="userSpaceOnUse">
<stop offset="0.0327248" stop-color="white"/>
<stop offset="0.415458" stop-color="#A9B857"/>
<stop offset="0.573788" stop-color="#9BAD56"/>
<stop offset="0.87118" stop-color="#779252"/>
<stop offset="1" stop-color="#658450"/>
</linearGradient>
<linearGradient id="paint68_linear_13345_316925" x1="28.9909" y1="52.0643" x2="28.0847" y2="54.743" gradientUnits="userSpaceOnUse">
<stop offset="0.0327248" stop-color="white"/>
<stop offset="0.415458" stop-color="#A9B857"/>
<stop offset="0.573788" stop-color="#9BAD56"/>
<stop offset="0.87118" stop-color="#779252"/>
<stop offset="1" stop-color="#658450"/>
</linearGradient>
<linearGradient id="paint69_linear_13345_316925" x1="28.7332" y1="52.0605" x2="27.8098" y2="53.4781" gradientUnits="userSpaceOnUse">
<stop offset="0.415458" stop-color="#A9B857"/>
<stop offset="0.573788" stop-color="#9BAD56"/>
<stop offset="0.87118" stop-color="#779252"/>
<stop offset="1" stop-color="#658450"/>
</linearGradient>
<linearGradient id="paint70_linear_13345_316925" x1="28.5484" y1="52.2794" x2="27.8584" y2="53.3804" gradientUnits="userSpaceOnUse">
<stop offset="0.415458" stop-color="#A9B857"/>
<stop offset="0.573788" stop-color="#9BAD56"/>
<stop offset="0.87118" stop-color="#779252"/>
<stop offset="1" stop-color="#658450"/>
</linearGradient>
<linearGradient id="paint71_linear_13345_316925" x1="25.2768" y1="52.3562" x2="28.479" y2="52.3562" gradientUnits="userSpaceOnUse">
<stop stop-color="#C8731B"/>
<stop offset="0.150909" stop-color="#D2AB47"/>
<stop offset="0.245377" stop-color="white"/>
<stop offset="0.393945" stop-color="#DFB346"/>
<stop offset="0.45671" stop-color="#ECC561"/>
<stop offset="0.556003" stop-color="#FFDE87"/>
<stop offset="0.816745" stop-color="#D0842F"/>
</linearGradient>
<linearGradient id="paint72_linear_13345_316925" x1="25.2769" y1="52.4558" x2="28.4782" y2="52.4558" gradientUnits="userSpaceOnUse">
<stop stop-color="#C8731B"/>
<stop offset="0.150909" stop-color="#D2AB47"/>
<stop offset="0.393945" stop-color="#DFB346"/>
<stop offset="0.45671" stop-color="#ECC561"/>
<stop offset="0.556003" stop-color="#FFDE87"/>
<stop offset="0.816745" stop-color="#D0842F"/>
</linearGradient>
</defs>
</svg>
