<svg width="90" height="72" fill="none" xmlns="http://www.w3.org/2000/svg"><path fill-rule="evenodd" clip-rule="evenodd" d="M44.76 60.452c8.034 2.06 12.55 2.56 17.396 2.483 1.94-.031 3.696-.791 6.12-.605-.015.056-1.193.683-1.32.732-.353.137-.715.268-1.082.387 3.733 4.307 6.698 6.99 8.285 6.48 1.567-.504 2.026-4.258.903-12.843-.78 1.038-1.906 1.821-3.015 2.492-.117.072-1.333.621-1.386.6.488-.749 4.237-4.3 4.196-4.594-.026-.128 5.527-12.192 6.045-13.863 1.174-3.792 3.232-9.377 2.775-13.154-1.69 1.492-.392 1.7-2.099 2.866l2.357-5.514c.01-.118.058-.133.13-.236 2.503-3.526 3.681-5.915 3.896-7.417.092-.643-.003-1.06-.248-1.29-.268-.252-.75-.354-1.393-.333-1.746.057-4.384 1.023-7.232 2.446-.197.115 1.416 2.615 1.197 2.506-.373-.188-2.611-2.857-2.99-3.04-6.95-3.375-14.574-6.04-22.039-7.956-7.818-2.007-16.415-3.485-22.52-3.39-.633.01 1.4.995.75.98-.178.005-2.555-1.244-2.695-1.377-2.052-1.954-6.066-4.182-8.908-4.758-.82-.167-1.51-.19-1.97-.02-.319.12-.516.382-.533.826-.04 1.058.705 2.862 2.625 5.672.148.189.563 4.155.465 4.393-.478 1.17-.42-2.335-.93-1.439-2.771 4.87-5.56 13.791-7.23 19.136l-.033.105c-1.197 3.828-2.102 7.155-2.616 9.662l.003.036c-.086 1.38-.023 5.29-.167 6.004-.053-.022-.537-1.26-.571-1.393l-.08-.315c-2.78 3.578-4.139 6.32-4.305 8.12-.067.727.072 1.258.396 1.584.335.336.904.501 1.685.485 1.988-.041 5.072-1.231 8.999-3.711a15.757 15.757 0 0 1-1.412-1.394c-.093-.101-.864-1.187-.853-1.242 1.938.783 3.603 2.267 5.332 3.063 7.386 3.404 13.646 6.15 24.072 8.826Z" fill="#C56F8A"/><path fill-rule="evenodd" clip-rule="evenodd" d="M78.669 17.193c2.504-1.553 8.121-4.003 10.56-1.381s-1.488 8.746-3.756 11.481c.654 2.608-.155 7.382-1.6 11.408-1.47 4.097-4.94 13.209-7.062 16.883.182 1.501 2.653 12.82-1.748 16.02-3.015 1.993-10.27-5.973-10.755-7.064-.728.12-2.585.374-4.188.422-2.003.06-10.326-1.035-15.36-2.027-5.033-.992-24.322-8.721-25.73-9.687-1.408.483-9.833 6.935-13.232 2.657-2.974-3.623.122-11.232 3.096-13.587.304-2.739 3.215-13.963 6.463-21.678 1.11-2.689 3.576-8.603 4.558-10.749-.885-1.359-4.83-6.038-1.856-8.937 2.974-2.898 10.925 1.462 14.02 4.348 3.581.06 14.992.483 24.096 3.503 9.104 3.019 18.464 6.491 22.494 8.388ZM62.157 62.935c-4.846.078-9.362-.422-17.396-2.484-10.426-2.675-16.687-5.42-24.072-8.825-1.729-.797-3.394-2.28-5.332-3.064-.011.056.76 1.142.853 1.242.438.482.906.963 1.412 1.394-3.927 2.48-7.011 3.67-8.999 3.712-.781.016-1.35-.15-1.685-.485-.324-.326-.463-.857-.396-1.584.167-1.8 1.526-4.542 4.306-8.12l.079.315c.034.132.518 1.371.571 1.393.144-.715.08-4.623.167-6.004l-.003-.036c.514-2.507 1.42-5.834 2.616-9.662l.033-.105c1.67-5.345 4.459-14.267 7.23-19.136.51-.896.452 2.608.93 1.438.098-.237-.317-4.203-.465-4.392-1.92-2.81-2.665-4.614-2.625-5.672.017-.444.214-.706.534-.825.458-.172 1.148-.148 1.97.019 2.84.576 6.855 2.803 8.907 4.758.14.133 2.517 1.382 2.696 1.377.65.015-1.384-.97-.752-.98 6.106-.095 14.703 1.383 22.521 3.39 7.465 1.916 15.089 4.58 22.04 7.956.378.183 2.616 2.852 2.99 3.04.219.109-1.394-2.39-1.198-2.506 2.848-1.423 5.486-2.39 7.232-2.446.642-.021 1.125.08 1.393.333.245.23.34.647.248 1.29-.215 1.502-1.393 3.89-3.895 7.416-.073.104-.122.12-.131.237l-2.357 5.514c1.707-1.166.41-1.374 2.099-2.866.457 3.776-1.6 9.361-2.775 13.154-.518 1.671-6.07 13.735-6.045 13.863.041.295-3.708 3.845-4.196 4.593.053.022 1.27-.528 1.386-.599 1.11-.671 2.235-1.454 3.015-2.493 1.123 8.586.664 12.34-.903 12.843-1.587.51-4.552-2.173-8.285-6.48.367-.118.729-.25 1.081-.386.128-.05 1.306-.676 1.322-.732-2.425-.187-4.18.574-6.121.605Z" fill="url(#a)"/><path fill-rule="evenodd" clip-rule="evenodd" d="M18.07 32.72c.503-5.082.995-10.755 3.666-13.459 9.978-10.104 33.407-4.001 45.306-3.039 9.844.797 10.48 4.664 10.667 14.87.144 7.86-9.712 19.888-19.994 19.3-.878-.05-18.315-4.954-29.766-10.153-5.932-2.693-9.94-6.91-9.879-7.52Z" fill="#DD97AB"/><path d="M65.642 24.67c-1.548-1.295-5.271-.023-10.14 2.48-4.333-2.39-10.206-3.818-16.214-4.626-8.864-1.192-18.05-1.035-22.977-.627-2.456-3.482-4.706-5.587-6.452-6.337-.902-.387-1.703-.436-2.37-.153-.68.289-1.178.9-1.462 1.829-.505 1.653-.329 4.447.766 8.341-.735 1.912-1.376 6.093-1.835 11.445-.468 5.452-.754 12.143-.763 18.894-2.45 1.651-3.677 2.964-4.05 3.983-.31.85-.109 1.524.457 2.044.473.435 1.211.725 2.102.892 2.499.466 6.439.012 8.833-.869 5.459 2.042 12.379 3.737 19.771 4.73 6.72.903 13.832 1.227 20.59.708 1.8 2.02 3.606 3.623 5.056 4.267.774.343 1.478.431 2.074.201.623-.24 1.076-.791 1.309-1.715.347-1.378.207-3.731-.626-7.35a63.454 63.454 0 0 0 2.625-13.203c.4-4.526.253-8.742-.352-12.302 4.395-7.537 5.231-11.315 3.658-12.631Z" fill="url(#b)"/><path fill-rule="evenodd" clip-rule="evenodd" d="M39.134 23.666c6.873.924 10.527 1.953 14.255 3.534 1.493.633 2.61 1.772 4.546 2.388.006-.048-.707-.903-.79-.981-.23-.216-.468-.432-.715-.638 4.255-2.164 7.4-3.31 8.467-2.419 1.054.883.22 3.933-3.37 10.227-.275-1.049-.899-2.008-1.544-2.876-.068-.091-.836-.899-.884-.899.141.733 1.919 4.657 1.793 4.873-.06.09.416 11.172.287 12.629-.293 3.304-.47 8.273-2.02 11.054-.835-1.685.235-1.44-.717-2.877l.077 5.008c-.03.094.003.12.027.224.82 3.515.975 5.733.665 6.964-.132.526-.338.82-.6.92-.287.111-.694.04-1.185-.178-1.333-.593-3.07-2.168-4.823-4.163-.116-.15 1.925-1.58 1.72-1.565-.348.029-2.926 1.393-3.277 1.416-6.451.433-13.197.104-19.584-.754-6.689-.898-13.813-2.45-18.51-4.44-.486-.206 1.4-.33.893-.521-.137-.061-2.373.16-2.524.22-2.208.869-6.021 1.334-8.404.89-.688-.13-1.23-.327-1.53-.604-.21-.193-.28-.457-.152-.806.304-.832 1.453-1.995 3.83-3.568.174-.1 1.752-3.04 1.752-3.254 0-1.056-1.066 1.674-1.177.82-.606-4.668.076-12.523.475-17.174.287-3.338.64-6.198 1.036-8.3l.014-.027c.37-1.096 1.658-4.102 1.773-4.7-.047 0-.815.807-.883.899l-.161.219c-1.018-3.642-1.202-6.191-.76-7.637.179-.584.454-.951.808-1.102.366-.155.858-.105 1.458.153 1.526.655 3.537 2.544 5.791 5.696-.528.175-1.043.4-1.535.636-.103.05-1.045.647-1.054.694 1.75.001 3.508-.625 5.099-.699 6.796-.319 12.514-.481 21.433.718Z" fill="#D87B6A"/><path fill-rule="evenodd" clip-rule="evenodd" d="M53.576 29.704c.887 4.176 1.932 8.821.489 11.646-5.392 10.556-25.611 11.568-35.339 13.786-8.047 1.834-9.534-1.089-12.27-9.175-2.106-6.23 2.7-18.287 11.045-20.398.711-.18 15.852-.645 26.295.626 5.41.658 9.673 3.014 9.78 3.515Z" fill="#E09D93"/><defs><linearGradient id="a" x1="50.645" y1="38.468" x2="92.745" y2="9.703" gradientUnits="userSpaceOnUse"><stop stop-color="#E697C8"/><stop offset="1" stop-color="#FFFFA7"/></linearGradient><linearGradient id="b" x1="28.675" y1="46.731" x2="62.123" y2="23.968" gradientUnits="userSpaceOnUse"><stop stop-color="#AB4C3C"/><stop offset="1" stop-color="#FFFFA1"/></linearGradient></defs></svg>