<svg width="58" height="34" fill="none" xmlns="http://www.w3.org/2000/svg"><path fill-rule="evenodd" clip-rule="evenodd" d="M15.049 16.735c5.204 1.432 10.732 2.966 16.616 4.575l19.118 5.229c2.143-.932 2.649-1.792 1.776-2.4 1.737.479 1.333 4.163-.08 4.859l-3.425 1.69c-1.187.584-2.395 1.18-3.628 1.789-1.623.8-4.49.983-6.296.398l-20.74-6.72c-5.969-1.934-11.553-3.74-16.77-5.432-1.159-.375-2.064-3.501-.355-3.995-1.408.612.004.857 3.556 1.912 1.245-.36 4.167-1.333 5.376-1.683 1.53-.442 3.691-.542 4.852-.222Z" fill="#DF6618"/><path d="m20.429 18.514-5.473-1.51c-.545-.15-1.336-.201-2.177-.162-.849.039-1.743.17-2.482.383-.6.175-1.616.5-2.64.827-1.05.336-2.11.675-2.736.856a.358.358 0 0 1-.2-.001c-.44-.13-.915-.268-1.347-.393-1.309-.379-2.197-.636-2.636-.908a1.97 1.97 0 0 0-.095.774c.018.311.09.636.202.937.21.564.542 1.03.886 1.141 2.845.922 5.8 1.88 8.866 2.872l7.904 2.56 9.482 3.072c3.609 1.17 7.36 2.386 11.258 3.648.86.279 1.98.374 3.082.304 1.103-.07 2.178-.304 2.949-.683l3.628-1.79 3.426-1.69c.355-.174.643-.608.831-1.14.162-.457.245-.979.231-1.473-.01-.36-.07-.702-.188-.99a1.545 1.545 0 0 1-.26.387c-.36.4-1.024.826-2.014 1.256a.357.357 0 0 1-.235.017l-19.119-5.229c-3.997-1.093-7.644-2.1-11.143-3.066Zm-5.283-2.048c1.785.49 3.61.995 5.473 1.509 3.633 1.003 7.41 2.045 11.14 3.066l18.998 5.195c.84-.374 1.394-.728 1.682-1.05a.798.798 0 0 0 .199-.341.333.333 0 0 0-.035-.242.777.777 0 0 0-.24-.243c-.138-.097-.162-.273-.053-.395a.345.345 0 0 1 .345-.094c.423.116.74.378.964.73.262.413.391.956.407 1.524a4.679 4.679 0 0 1-.258 1.654c-.234.66-.623 1.214-1.132 1.465l-3.426 1.69-3.628 1.789c-.854.42-2.025.679-3.214.754-1.187.075-2.402-.031-3.347-.337l-11.258-3.648-9.482-3.073-7.904-2.56-8.866-2.871C.976 20.815.503 20.206.237 19.49a3.773 3.773 0 0 1-.232-1.084 2.393 2.393 0 0 1 .154-1.05 1.5 1.5 0 0 1 1.008-.897c.168-.049.349.033.403.18.051.14-.026.288-.175.346a1.583 1.583 0 0 1-.165.06.877.877 0 0 0-.16.094c.193.17 1.07.423 2.502.837.359.104.755.22 1.25.366.636-.188 1.63-.505 2.617-.82 1.035-.332 2.063-.66 2.661-.834.79-.228 1.743-.369 2.647-.41.912-.042 1.783.017 2.399.187Z" fill="#BD360D"/><path d="m25.103 16.84-10.782-2.97c-.531-.146-1.314-.195-2.154-.156-.857.039-1.758.171-2.502.386l-3.84 1.111-4.018 1.163c-.556.161-.954.335-1.178.502.033.012.07.026.114.04l9.4 3.044 8.09 2.62 9.888 3.205 11.741 3.804c.852.276 1.97.37 3.077.3 1.104-.07 2.176-.302 2.937-.676l3.783-1.866 3.574-1.762c.26-.129.435-.257.527-.379l.003-.002c.04-.055.058-.1.052-.135-.01-.054-.06-.12-.148-.193-.193-.161-.52-.313-.977-.438l-6.33-1.744-14.71-4.052-6.547-1.803Z" fill="#9F2F0B"/><path fill-rule="evenodd" clip-rule="evenodd" d="M1.012 16.851c.016-.016.034-.032.053-.047a1.37 1.37 0 0 1 .2-.076 3.001 3.001 0 0 0-.253.123Zm51.849 7.583c.577.486.427 1.092-.55 1.574l-3.426 1.69-3.628 1.789c-1.624.8-4.49.984-6.296.398l-20.74-6.72c-5.969-1.934-11.553-3.74-16.77-5.432-.337-.109-.534-.246-.602-.399.4.312 1.777.654 3.972 1.306 1.245-.36 4.167-1.333 5.377-1.683 1.53-.442 3.69-.542 4.851-.222 5.204 1.432 10.732 2.966 16.616 4.575l19.119 5.229c1.816-.79 2.456-1.528 2.077-2.105Z" fill="#C47B1D"/><path d="M25.03 17.13c-3.584-.985-7.028-1.934-10.34-2.846-.509-.14-1.26-.187-2.064-.15-.822.038-1.686.164-2.4.37L6.544 15.57l-3.852 1.115c-.533.154-.915.321-1.13.481a43251.371 43251.371 0 0 0 9.121 2.957l7.759 2.513 9.481 3.072c3.61 1.17 7.36 2.386 11.258 3.648.817.265 1.889.355 2.95.288 1.06-.067 2.087-.29 2.816-.649l3.628-1.79L52 25.518c.25-.124.418-.247.506-.363l.003-.003c.039-.052.055-.096.05-.129-.01-.052-.058-.114-.142-.185-.186-.154-.5-.3-.938-.42l-6.069-1.673-14.105-3.885-6.277-1.728Zm-9.96-3.923 10.34 2.847 6.276 1.728 14.105 3.885 6.07 1.673c.623.171 1.106.407 1.433.68.294.247.472.527.526.826.057.316-.023.631-.248.93-.198.262-.514.51-.95.725l-3.427 1.69-3.628 1.788c-.895.442-2.114.712-3.346.79-1.23.078-2.492-.033-3.48-.353l-11.258-3.648-9.482-3.073-7.758-2.512c-3.118-1.01-6.121-1.982-9.012-2.92-.364-.117-.63-.275-.803-.463-.215-.233-.288-.494-.227-.77.05-.221.19-.433.415-.627.335-.288.907-.567 1.68-.79l3.853-1.116 3.682-1.065c.817-.236 1.799-.38 2.73-.424.947-.043 1.858.02 2.51.2Z" fill="#F0C931"/><path fill-rule="evenodd" clip-rule="evenodd" d="M18.818 10.806c5.206 1.422 10.747 2.923 16.628 4.54l19.11 5.254c1.166 1.84 1.03 2.8-.08 2.865 1.739.475 3.773-2.762 3.057-4.042l-1.737-3.105-1.839-3.289c-.823-1.47-3.066-3.056-4.93-3.477C41.351 7.817 34.23 6.21 27.622 4.717L10.317.804c-1.195-.27-3.95 1.852-2.86 3.114-.765-1.209.555-.704 4.159.203.794.92 2.576 3.182 3.348 4.075.975 1.13 2.692 2.292 3.854 2.61Z" fill="#82A142"/><path d="m24.393 12.03-5.479-1.494c-.545-.149-1.229-.502-1.897-.954-.674-.457-1.326-1.012-1.798-1.557-.383-.444-1.012-1.22-1.644-2.002-.65-.802-1.304-1.61-1.704-2.073a.323.323 0 0 0-.165-.1c-.446-.112-.926-.236-1.362-.35-1.322-.342-2.22-.574-2.755-.57.078-.23.226-.464.418-.685.215-.248.483-.478.77-.67.534-.36 1.108-.578 1.463-.498l9.148 2.069 8.157 1.844L37.33 7.2 48.95 9.825c.887.2 1.87.683 2.734 1.291.863.61 1.6 1.34 1.99 2.038l1.839 3.288 1.737 3.106c.18.321.138.823-.048 1.355a4.496 4.496 0 0 1-.757 1.329c-.239.291-.509.543-.791.723.035-.135.046-.285.034-.45-.038-.51-.312-1.193-.85-2.042a.314.314 0 0 0-.184-.131l-19.11-5.255a4548.518 4548.518 0 0 0-11.15-3.047Zm-5.668-.955 5.478 1.494c3.638.99 7.418 2.02 11.148 3.046l18.988 5.22c.452.73.681 1.298.712 1.706a.74.74 0 0 1-.056.382.393.393 0 0 1-.184.181.921.921 0 0 1-.354.08c-.176.01-.309.145-.297.3.009.119.101.216.223.25.423.116.853.058 1.264-.12.481-.21.936-.592 1.314-1.053.37-.45.67-.978.85-1.49.232-.662.268-1.312.01-1.773l-1.738-3.106-1.838-3.288c-.433-.774-1.232-1.572-2.163-2.229-.93-.655-1.999-1.176-2.974-1.396-4.023-.91-7.894-1.784-11.618-2.625l-9.786-2.211-8.157-1.844L10.398.531c-.55-.125-1.332.14-2.01.596a4.55 4.55 0 0 0-.89.777c-.256.297-.453.62-.547.943-.126.434-.07.866.255 1.243a.349.349 0 0 0 .448.052c.13-.09.162-.25.077-.372a1.293 1.293 0 0 0-.097-.132.697.697 0 0 1-.071-.158c.268-.042 1.153.187 2.599.562.363.094.762.197 1.265.324.403.472 1.018 1.232 1.628 1.985.64.79 1.275 1.575 1.657 2.017.504.583 1.199 1.175 1.917 1.661.724.49 1.48.877 2.096 1.046Z" fill="#5C6F3C"/><path d="m27.17 15.749-10.79-2.947c-.532-.145-1.208-.496-1.875-.948-.682-.46-1.339-1.02-1.813-1.57l-2.45-2.835L7.68 4.48c-.354-.41-.57-.753-.647-1.002.035.006.074.014.119.024 3.111.703 6.343 1.433 9.7 2.193l8.348 1.887L35.404 9.89l12.117 2.738c.88.198 1.86.68 2.727 1.29.865.611 1.6 1.338 1.985 2.027l1.918 3.43 1.811 3.238c.133.237.194.43.191.575h.002v.004c-.002.065-.017.111-.045.137-.042.04-.125.068-.245.084-.263.037-.63-.002-1.087-.127l-6.335-1.729c-5.148-1.405-10.052-2.743-14.722-4.019L27.17 15.75Z" fill="#7AB744"/><path fill-rule="evenodd" clip-rule="evenodd" d="m7.329 3.69.012.065c.033.056.071.11.117.163a2.374 2.374 0 0 1-.13-.228Zm47.585 19.683c.788-.112 1.054-.687.559-1.572-.568-1.016-1.148-2.05-1.737-3.105l-1.839-3.289c-.823-1.471-3.066-3.055-4.93-3.476L25.562 7.095 8.257 3.182c-.347-.078-.597-.063-.752.028.53-.057 1.884.35 4.111.911.794.92 2.577 3.182 3.348 4.075.976 1.13 2.693 2.292 3.854 2.61 5.207 1.422 10.747 2.923 16.628 4.54l19.11 5.254c.989 1.56 1.041 2.487.358 2.773Z" fill="#47683C"/><path d="M27.295 15.47 16.95 12.646c-.51-.139-1.158-.476-1.798-.909-.653-.442-1.283-.978-1.738-1.505l-2.349-2.72-2.457-2.844c-.34-.394-.547-.722-.621-.961.033.005.072.013.114.023l9.3 2.102 8.006 1.81 9.785 2.21 11.618 2.626c.843.19 1.784.652 2.614 1.238.83.585 1.535 1.282 1.904 1.943l1.839 3.288 1.737 3.105c.127.227.186.412.183.552h.001v.003c-.001.063-.016.107-.042.132-.041.037-.12.065-.235.081-.252.035-.604-.002-1.042-.122l-6.075-1.658c-4.936-1.347-9.638-2.63-14.116-3.854l-6.282-1.714ZM16.57 13.723l10.346 2.826 6.282 1.715 14.116 3.853 6.074 1.658c.624.17 1.173.217 1.618.155.401-.055.728-.196.964-.415.251-.232.387-.533.393-.89h.001c.005-.316-.096-.678-.317-1.073l-1.737-3.105-1.84-3.289c-.453-.812-1.284-1.644-2.25-2.324-.961-.679-2.073-1.219-3.093-1.45L35.51 8.76l-9.785-2.21-8.006-1.811c-3.217-.728-6.317-1.429-9.3-2.102-.375-.085-.696-.088-.958-.02-.328.085-.557.263-.683.521-.102.207-.122.452-.061.724.09.405.383.92.877 1.492l2.457 2.845 2.348 2.72c.52.602 1.237 1.213 1.977 1.713.753.51 1.543.913 2.195 1.091Z" fill="#39603B"/><path fill-rule="evenodd" clip-rule="evenodd" d="m16.853 17.836 3.425 1.008c-.274-.716.04-1.544.745-1.973L17.6 15.864c-.972-.106-1.488 1.62-.746 1.973Z" fill="url(#a)"/><path d="M20.392 17.78c-.125.33-.135.696-.006 1.034l.073.192-.217-.064c-.593-.174-1.17-.345-1.748-.516l-1.675-.495-.01-.002-.008-.005c-.252-.118-.38-.363-.409-.647-.02-.204.012-.431.087-.645.075-.215.194-.418.348-.573.206-.207.473-.331.784-.297l.012.001.01.004 1.713.507 1.715.504.22.065-.192.114c-.333.2-.573.494-.697.823Zm-.281.911a1.64 1.64 0 0 1 .064-.973c.117-.31.325-.593.609-.809-.504-.147-1.007-.296-1.51-.444-.57-.168-1.139-.336-1.702-.504-.22-.02-.417.075-.572.231-.134.135-.237.311-.303.5a1.35 1.35 0 0 0-.077.568c.021.216.11.399.28.483l1.667.492 1.544.456Z" fill="#82001E"/><path fill-rule="evenodd" clip-rule="evenodd" d="M21.294 18.7c-.247-.794-.721-.459.009-.96-.437-.13-.259-.758-.695-.888-.182-.055-.154-.292-.336-.346l-1.199-.359c-.318-.095-.39-.146-.651.087a1.884 1.884 0 0 0-.605 1.78c.064.306.056.254.346.34l1.019.305c.088.027.45-.197.538-.17.616.184.958.026 1.574.21Z" fill="#CACACA"/><path d="M21.068 18.1c.086.088.23.236.336.572l.058.184-.204-.061a2.705 2.705 0 0 0-.757-.101 2.878 2.878 0 0 1-.816-.11c-.003 0-.098.041-.192.083-.13.057-.258.113-.343.092l-.005-.002c-.17-.053-.335-.102-.5-.151a77.719 77.719 0 0 1-.52-.158l-.108-.03c-.243-.066-.244-.066-.314-.384v-.001a1.925 1.925 0 0 1 .067-1.011c.109-.32.301-.618.572-.859.286-.257.385-.227.689-.134l.078.023v.001l1.199.359c.138.04.187.132.235.225.027.052.054.105.098.117l.003.001c.275.084.348.299.42.513.057.164.113.328.273.377l.2.061-.167.114-.02.014c-.24.165-.323.222-.323.23 0 .007.015.01.04.036Zm.05.45a1.035 1.035 0 0 0-.223-.32c-.06-.06-.098-.1-.098-.167 0-.091.081-.159.3-.31-.141-.105-.196-.266-.25-.427-.057-.165-.114-.33-.277-.38-.139-.04-.187-.133-.235-.225-.028-.053-.055-.106-.098-.118h-.003l-1.199-.36a5.393 5.393 0 0 1-.078-.023c-.202-.062-.267-.082-.452.084v.001a1.828 1.828 0 0 0-.517.775c-.1.296-.123.612-.06.916.043.199.044.199.156.229l.115.032.52.158.495.15.177-.078c.137-.06.276-.122.367-.094.291.086.52.093.75.1.192.005.383.01.61.057Z" fill="#979797"/><path fill-rule="evenodd" clip-rule="evenodd" d="M43.275 25.615c-2.006-1.206-1.679-2.07.747-1.973l2.903 1.631c-.339.023-.464.423-.218.575l-3.432-.233Z" fill="#D9BCAD"/><path d="M42.155 24.53c.158.278.542.613 1.16.987l1.398.096 1.768.12a.352.352 0 0 1-.017-.084.416.416 0 0 1 .094-.295.454.454 0 0 1 .114-.103l-2.685-1.509c-.748-.027-1.284.038-1.6.177-.157.069-.255.154-.293.253-.037.1-.017.22.061.357Zm1.055 1.169c-.664-.4-1.081-.767-1.26-1.08-.106-.187-.13-.359-.073-.51.058-.153.194-.277.407-.371.355-.156.94-.228 1.743-.196l.03.002.026.014 2.903 1.63.292.164-.344.022a.256.256 0 0 0-.232.176.22.22 0 0 0-.01.084c.004.053.03.102.08.133l.342.21-.417-.027a1406.423 1406.423 0 0 1-3.431-.234l-.03-.002-.026-.015Z" fill="#6A473F"/><path fill-rule="evenodd" clip-rule="evenodd" d="M43.007 23.343c-7.566-2.21-15.124-4.452-22.685-6.677-.446-.131-.742.256-.929.592-.183.329-.248.69-.147 1.057.052.19.105.257.395.342l22.298 6.566c.178.052 1.164.346 1.28.359.093.01.3-.093.123-.243-.316-.27-.675-.32-.19-.663.374-.263.29-.274.175-.632-.142-.446 1.328.15.667-.408-.048-.04-.856-.255-.987-.293Z" fill="url(#b)"/><path d="M19.324 17.795c-.023.162-.014.329.031.497.021.077.042.128.08.162.043.039.116.07.243.108l11.148 3.282 11.149 3.282h.001c.113.034.553.167.885.26.184.051.334.09.368.094h.006a.088.088 0 0 0 .04-.012.06.06 0 0 0 .02-.016c-.001-.01-.011-.023-.033-.042a2.199 2.199 0 0 0-.195-.142c-.08-.054-.148-.1-.197-.154-.132-.145-.118-.288.21-.519.257-.18.246-.21.184-.383a3.971 3.971 0 0 1-.049-.14c-.054-.171.03-.255.18-.292.122-.03.29-.016.444-.002l.23.02c.016-.014-.06-.008-.157-.09l-.005-.004a16.7 16.7 0 0 0-.77-.219 11.93 11.93 0 0 1-.169-.046c-5.047-1.475-10.085-2.963-15.123-4.45-2.531-.747-5.063-1.495-7.56-2.23a.477.477 0 0 0-.448.103c-.14.112-.253.282-.341.441h-.001a1.414 1.414 0 0 0-.171.492Zm-.191.543a1.419 1.419 0 0 1-.036-.568c.027-.192.094-.38.194-.556.097-.176.226-.367.391-.5a.711.711 0 0 1 .673-.147l7.562 2.23c5.044 1.49 10.087 2.979 15.122 4.45.031.01.09.025.165.046.286.078.792.216.865.269h.001l.004.003c.215.182.244.295.161.371-.078.073-.24.059-.42.043-.132-.012-.277-.025-.358-.005-.02.005-.03.017-.022.043l.046.134c.104.286.121.335-.259.602-.187.131-.213.19-.174.234a.94.94 0 0 0 .158.12c.067.046.142.097.215.158h.001c.058.05.088.101.099.15a.18.18 0 0 1-.03.142.278.278 0 0 1-.101.085.349.349 0 0 1-.18.038 3.995 3.995 0 0 1-.419-.103 38151.486 38151.486 0 0 0-12.037-3.542l-11.148-3.282h-.001c-.163-.05-.263-.094-.333-.157a.48.48 0 0 1-.14-.257h.001ZM46.567 25.608c.023.049.065.1.124.151.325.008.677.036 1.018.065-.253-.136-.51-.274-.748-.41l-.002-.002c-.038-.023-.061-.04-.08-.052-.014-.01-.017-.013-.063-.006a.483.483 0 0 0-.194.059.15.15 0 0 0-.07.082.162.162 0 0 0 .015.113Zm-.001.322a.703.703 0 0 1-.21-.244.335.335 0 0 1-.025-.242.347.347 0 0 1 .16-.197.732.732 0 0 1 .291-.093c.145-.02.16-.009.241.049.016.01.036.025.062.04.25.144.52.288.784.43l.383.207c.053.03.07.091.037.139a.12.12 0 0 1-.108.047l-.388-.032a17.71 17.71 0 0 0-1.149-.074.12.12 0 0 1-.078-.03Z" fill="#3A6639"/><path fill-rule="evenodd" clip-rule="evenodd" d="M18.74 16.232c-.067.034-.455.437.094.305.028-.007.506.053.275-.201-.048-.053-.332-.123-.37-.104Z" fill="#fff"/><path fill-rule="evenodd" clip-rule="evenodd" d="m13.396 18.605 3.48 1.1c-.26-.739.081-1.58.815-2.004l-3.48-1.1c-.992-.13-1.565 1.627-.815 2.004Z" fill="url(#c)"/><path d="M17.023 18.617c-.136.337-.155.71-.032 1.059l.07.198-.222-.07c-.601-.19-1.189-.376-1.775-.563-.572-.182-1.144-.364-1.703-.54l-.01-.003-.008-.005c-.255-.126-.38-.379-.401-.67-.016-.21.022-.442.104-.66.083-.218.21-.423.372-.578.216-.209.493-.33.81-.29l.012.002.011.004a891.12 891.12 0 0 0 3.482 1.104l.223.07-.198.114a1.694 1.694 0 0 0-.735.828Zm-.311.927a1.683 1.683 0 0 1 .09-.995c.129-.315.349-.6.645-.815a5724.446 5724.446 0 0 1-3.264-1.035c-.226-.026-.429.068-.592.225-.14.135-.25.314-.323.505a1.4 1.4 0 0 0-.093.58c.016.222.103.41.275.5l1.693.538c.525.167 1.051.334 1.569.497Z" fill="#82001E"/><path fill-rule="evenodd" clip-rule="evenodd" d="M17.922 19.577c-.234-.818-.727-.483.033-.982-.443-.142-.245-.78-.688-.923-.185-.06-.15-.302-.335-.362l-1.218-.39c-.324-.105-.397-.158-.67.076a1.938 1.938 0 0 0-.664 1.81c.057.314.05.26.345.355l1.035.332c.09.03.466-.192.556-.163.625.2.98.046 1.606.247Z" fill="#CACACA"/><path d="M17.706 18.96c.087.091.23.246.33.592l.054.189-.207-.067a2.749 2.749 0 0 0-.772-.118 2.932 2.932 0 0 1-.833-.129c-.002 0-.101.04-.198.081-.135.056-.267.111-.354.087l-.005-.002-.508-.165c-.18-.057-.359-.115-.529-.171-.045-.015-.08-.025-.11-.034-.246-.071-.247-.072-.31-.398v-.002a1.972 1.972 0 0 1 .094-1.033 2.09 2.09 0 0 1 .607-.868c.3-.258.4-.225.71-.123l.078.026 1.219.391c.14.043.187.139.234.235.027.054.054.109.098.122l.003.001c.279.091.348.313.418.534.053.169.106.338.27.391l.202.067-.174.113-.02.014c-.25.164-.338.22-.338.229 0 .007.016.01.041.037Zm.04.46a1.05 1.05 0 0 0-.22-.33c-.06-.063-.098-.104-.096-.174.003-.093.087-.16.314-.311-.14-.11-.193-.276-.245-.442-.053-.17-.107-.34-.273-.395-.14-.044-.187-.14-.235-.235-.026-.055-.053-.11-.097-.123h-.003l-1.218-.392-.08-.026c-.205-.067-.271-.089-.465.078a1.89 1.89 0 0 0-.548.783c-.111.301-.142.625-.086.937.04.205.04.205.154.238.034.01.074.021.117.035l.528.172.504.163.183-.076c.141-.06.286-.12.378-.089.295.095.53.106.766.117.195.01.391.02.621.07Z" fill="#979797"/><path fill-rule="evenodd" clip-rule="evenodd" d="M40.246 27.096c-2.023-1.275-1.666-2.152.814-2.005l2.93 1.729c-.346.016-.485.424-.236.584-1.179-.103-2.347-.205-3.508-.308Z" fill="#D9BCAD"/><path d="M39.129 25.963c.155.288.54.64 1.161 1.034l1.43.126 1.807.159a.41.41 0 0 1 .008-.243.457.457 0 0 1 .2-.247c-.907-.533-1.809-1.066-2.71-1.598-.766-.044-1.316.012-1.645.148-.161.068-.264.153-.304.253-.041.102-.024.225.053.368Zm1.05 1.218c-.67-.422-1.088-.806-1.262-1.13-.104-.194-.124-.37-.062-.525.063-.154.206-.28.427-.37.366-.153.966-.215 1.789-.166l.03.001.027.016 2.93 1.727.294.174-.353.015a.265.265 0 0 0-.241.176.23.23 0 0 0-.013.086.169.169 0 0 0 .079.137l.345.223-.426-.037-2.047-.18-1.46-.128-.032-.003-.025-.016Z" fill="#6A473F"/><path fill-rule="evenodd" clip-rule="evenodd" d="M40.031 24.764c-7.688-2.413-15.368-4.86-23.051-7.289-.454-.144-.767.247-.967.588-.195.333-.271.7-.178 1.079.049.195.101.265.396.358 7.553 2.39 15.106 4.778 22.66 7.167.18.058 1.182.38 1.301.394.095.012.309-.09.131-.247-.316-.282-.682-.341-.176-.682.39-.262.303-.274.195-.644-.135-.458 1.355.18.693-.404-.048-.042-.87-.278-1.004-.32Z" fill="url(#d)"/><path d="M15.93 18.613c-.028.165-.023.336.019.508.02.08.038.132.077.168.043.04.117.074.247.115 3.775 1.195 7.551 2.39 11.328 3.583L38.93 26.57h.002c.115.038.562.182.898.283.188.057.34.1.375.104h.006c.008.002.024-.002.041-.01a.06.06 0 0 0 .022-.017c-.001-.01-.011-.023-.033-.043a2.275 2.275 0 0 0-.196-.15c-.08-.056-.15-.106-.198-.161-.13-.151-.114-.297.228-.527.268-.18.258-.21.198-.39a4.977 4.977 0 0 1-.046-.142c-.051-.177.037-.262.192-.297.126-.028.298-.01.454.008.124.013.235.025.236.024.016-.014-.06-.008-.159-.095l-.004-.003c-.014-.014-.508-.16-.783-.24l-.172-.051a6028.014 6028.014 0 0 1-15.37-4.858c-2.571-.816-5.144-1.631-7.682-2.435a.491.491 0 0 0-.46.097 1.568 1.568 0 0 0-.361.445h-.001a1.442 1.442 0 0 0-.188.5Zm-.21.552a1.452 1.452 0 0 1-.022-.583c.033-.196.105-.386.212-.565a1.77 1.77 0 0 1 .414-.506.73.73 0 0 1 .692-.135c2.585.817 5.135 1.626 7.685 2.434 5.125 1.626 10.25 3.25 15.367 4.859l.168.049c.29.085.805.237.879.293h.001l.003.003c.216.191.243.307.156.384-.082.073-.247.054-.431.034-.135-.014-.284-.03-.367-.011-.02.004-.03.017-.023.044.016.053.03.098.044.137.098.295.115.345-.281.611-.195.131-.223.192-.184.237.032.037.09.079.159.126.067.048.142.101.215.165l.001.001a.278.278 0 0 1 .097.155.183.183 0 0 1-.035.145.286.286 0 0 1-.104.084.36.36 0 0 1-.186.037 3.977 3.977 0 0 1-.425-.114 38724.04 38724.04 0 0 0-12.232-3.867l-11.33-3.583c-.167-.054-.268-.102-.338-.168a.492.492 0 0 1-.136-.266Z" fill="#000064"/><path d="M43.617 27.155c.022.05.063.104.124.157.332.015.691.05 1.04.087-.256-.144-.515-.29-.756-.436h-.002a1.364 1.364 0 0 1-.08-.056c-.014-.01-.017-.013-.065-.007a.511.511 0 0 0-.2.056.154.154 0 0 0-.074.083.164.164 0 0 0 .013.116Zm-.01.33a.713.713 0 0 1-.208-.254.346.346 0 0 1-.02-.248.362.362 0 0 1 .17-.199.752.752 0 0 1 .3-.09c.15-.016.164-.005.245.055.016.012.036.027.062.043.253.152.525.305.792.456.117.066.235.132.387.22.054.03.069.094.034.142a.122.122 0 0 1-.111.046c-.11-.01-.252-.025-.397-.04-.391-.042-.8-.085-1.174-.1a.12.12 0 0 1-.08-.031Z" fill="#1F3694"/><path fill-rule="evenodd" clip-rule="evenodd" d="M15.37 17c-.07.034-.478.439.088.314.03-.006.516.064.286-.2-.047-.056-.336-.133-.375-.114Z" fill="#fff"/><path fill-rule="evenodd" clip-rule="evenodd" d="m10.719 19.746 3.493 1.135c-.255-.745.098-1.59.84-2.011-1.164-.38-2.329-.758-3.493-1.136-.998-.137-1.592 1.627-.84 2.012Z" fill="url(#e)"/><path d="M14.369 19.787a1.497 1.497 0 0 0-.043 1.066l.068.2-.222-.073-1.782-.58-1.71-.558-.01-.003-.008-.004c-.255-.13-.378-.385-.397-.68a1.583 1.583 0 0 1 .112-.662c.085-.218.216-.424.38-.58.22-.207.5-.328.82-.284l.01.001.012.004a941.744 941.744 0 0 0 3.495 1.14l.224.072-.2.113c-.351.196-.609.493-.749.828Zm-.323.931a1.692 1.692 0 0 1 .102-1.002c.132-.316.356-.601.657-.816l-1.54-.5-1.737-.567c-.226-.028-.432.065-.598.223a1.403 1.403 0 0 0-.33.505 1.403 1.403 0 0 0-.1.584c.014.223.1.414.272.506l1.7.553 1.574.514Z" fill="#82001E"/><path fill-rule="evenodd" clip-rule="evenodd" d="M15.266 20.76c-.226-.824-.726-.492.044-.988-.445-.147-.239-.788-.684-.935-.185-.061-.148-.305-.333-.366l-1.223-.404c-.325-.107-.398-.162-.675.072a1.953 1.953 0 0 0-.687 1.817c.054.317.048.263.343.36l1.04.344c.09.03.47-.19.561-.16.628.206.986.053 1.614.26Z" fill="#CACACA"/><path d="M15.054 20.136c.086.094.23.25.326.6l.053.19-.208-.068c-.3-.099-.538-.112-.776-.125-.255-.015-.51-.029-.837-.136-.003-.001-.103.04-.201.08-.136.055-.27.11-.357.084l-.005-.002-.51-.17-.53-.176c-.046-.016-.081-.026-.11-.035-.249-.075-.25-.075-.31-.404v-.001a1.998 1.998 0 0 1 .104-1.04 2.11 2.11 0 0 1 .622-.87c.304-.257.404-.223.715-.118l.078.026 1.224.404c.141.045.187.142.234.239.026.055.053.11.097.123l.003.002c.28.094.348.317.416.54.051.17.103.341.267.396l.203.069-.176.113-.02.014c-.254.162-.343.22-.343.227 0 .008.016.01.041.038Zm.035.466c-.075-.18-.161-.273-.218-.335-.059-.065-.097-.107-.094-.176.004-.095.089-.162.32-.311-.142-.112-.192-.28-.243-.447-.052-.172-.104-.344-.272-.4-.14-.045-.187-.142-.233-.239-.027-.055-.053-.11-.097-.124h-.003l-1.222-.404-.08-.027c-.207-.069-.273-.091-.47.075-.26.218-.448.49-.56.785-.115.302-.149.627-.096.942.039.206.039.206.153.24l.118.037.53.177c.17.056.34.112.505.168l.186-.075c.142-.058.288-.117.381-.086.296.097.533.11.77.124.197.01.394.022.625.076Z" fill="#979797"/><path fill-rule="evenodd" clip-rule="evenodd" d="M37.673 28.506c-2.024-1.3-1.656-2.181.84-2.013l2.934 1.764c-.35.013-.494.423-.245.586l-3.529-.337Z" fill="#D9BCAD"/><path d="M36.557 27.356c.153.292.537.648 1.16 1.05l1.437.139 1.819.173a.411.411 0 0 1 .01-.245.49.49 0 0 1 .204-.247c-.907-.543-1.81-1.086-2.714-1.63-.77-.05-1.324.003-1.656.137-.164.067-.268.152-.31.253-.042.101-.026.226.05.37Zm1.045 1.235c-.67-.43-1.087-.82-1.259-1.148-.103-.196-.121-.374-.057-.528.065-.155.21-.28.433-.37.37-.151.975-.21 1.804-.154l.03.003.027.015 2.933 1.763.294.177-.355.012a.268.268 0 0 0-.198.093.257.257 0 0 0-.06.169.172.172 0 0 0 .077.138l.345.228-.428-.041-2.06-.197-1.469-.14-.031-.004-.026-.016Z" fill="#6A473F"/><path fill-rule="evenodd" clip-rule="evenodd" d="M37.478 26.157c-7.718-2.49-15.427-5.014-23.14-7.52-.454-.148-.774.243-.978.584-.201.334-.281.703-.19 1.086.046.196.098.268.394.364l22.747 7.393c.18.06 1.187.39 1.306.406.095.013.312-.086.135-.247-.316-.286-.684-.349-.171-.688.395-.26.308-.274.203-.647-.131-.463 1.363.192.701-.402-.047-.042-.872-.286-1.007-.33Z" fill="url(#f)"/><path d="M13.269 19.773c-.03.167-.026.339.014.513.02.08.038.133.077.17.043.04.117.075.247.118 3.79 1.232 7.58 2.464 11.372 3.695l11.372 3.697h.001c.116.039.565.188.902.292.19.059.342.104.377.108h.007a.086.086 0 0 0 .04-.011.065.065 0 0 0 .023-.016c-.001-.01-.011-.024-.033-.044-.066-.059-.134-.108-.196-.152-.08-.058-.15-.108-.198-.165-.13-.152-.112-.299.235-.528.272-.18.262-.21.204-.39-.014-.042-.03-.09-.045-.145-.05-.178.039-.263.195-.297.127-.027.3-.007.458.011l.238.027c.016-.014-.062-.01-.16-.097l-.004-.004c-.014-.014-.51-.164-.786-.248l-.173-.052c-5.15-1.662-10.288-3.337-15.427-5.012-2.582-.841-5.165-1.683-7.713-2.511a.493.493 0 0 0-.465.094c-.147.111-.27.283-.367.445a1.449 1.449 0 0 0-.195.502Zm-.216.555a1.459 1.459 0 0 1-.017-.587c.036-.197.11-.388.22-.568h-.001c.108-.179.247-.372.423-.505a.736.736 0 0 1 .698-.131c2.594.843 5.154 1.677 7.714 2.511 5.145 1.677 10.29 3.353 15.426 5.011l.169.052c.291.088.808.244.881.301h.001v.001l.004.003c.216.194.24.31.153.387-.083.073-.25.053-.434.032-.136-.016-.285-.033-.37-.015-.02.005-.03.017-.023.045.015.053.03.099.042.138.096.298.112.349-.288.613-.198.13-.228.191-.188.237.032.038.09.08.158.128.067.049.143.104.215.169h.002a.283.283 0 0 1 .096.157.183.183 0 0 1-.037.146.288.288 0 0 1-.105.084.368.368 0 0 1-.189.036 4.077 4.077 0 0 1-.426-.119 56.573 56.573 0 0 1-.908-.294l-11.371-3.695-11.373-3.696c-.167-.056-.269-.105-.34-.172a.49.49 0 0 1-.133-.269Z" fill="url(#g)"/><path d="M41.066 28.593c.022.05.063.104.123.158.335.017.696.056 1.047.096a31.928 31.928 0 0 1-.757-.445l-.002-.002c-.038-.024-.061-.041-.08-.055-.014-.011-.017-.013-.065-.008h-.001a.504.504 0 0 0-.2.055.155.155 0 0 0-.077.083.16.16 0 0 0 .012.117Zm-.013.331a.722.722 0 0 1-.207-.258.345.345 0 0 1-.017-.25.365.365 0 0 1 .172-.198.768.768 0 0 1 .303-.088c.15-.016.166-.004.247.057a.8.8 0 0 0 .062.044c.252.154.525.311.793.465l.387.224c.054.031.069.095.033.143a.123.123 0 0 1-.112.046c-.11-.011-.254-.027-.4-.044a18.224 18.224 0 0 0-1.18-.108.125.125 0 0 1-.08-.033Z" fill="#000"/><path fill-rule="evenodd" clip-rule="evenodd" d="M12.722 18.145c-.07.034-.485.438.087.317.029-.006.52.069.29-.2-.047-.056-.338-.135-.377-.117Z" fill="#fff"/><path fill-rule="evenodd" clip-rule="evenodd" d="M46.647 25.86c-.334-.253-.278-.55.151-.607.128-.017.102.003.225.075.371.216.786.43 1.166.638-.493-.04-1.05-.1-1.542-.107Z" fill="#3A6639"/><path fill-rule="evenodd" clip-rule="evenodd" d="M43.694 27.414c-.335-.265-.27-.568.17-.618.131-.015.105.005.23.081.373.23.792.458 1.176.677-.504-.051-1.073-.122-1.576-.14Z" fill="#1F3694"/><path fill-rule="evenodd" clip-rule="evenodd" d="M41.14 28.853c-.336-.27-.267-.574.178-.621.132-.014.104.006.229.084.374.233.794.466 1.178.69-.507-.055-1.079-.131-1.586-.153Z" fill="#000"/><defs><linearGradient id="a" x1="18.793" y1="16.8" x2="18.478" y2="17.666" gradientUnits="userSpaceOnUse"><stop stop-color="#AA5D74"/><stop offset="1" stop-color="#B14B68"/></linearGradient><linearGradient id="b" x1="31.313" y1="22.055" x2="32.09" y2="20.057" gradientUnits="userSpaceOnUse"><stop stop-color="#3A6639"/><stop offset="1" stop-color="#79CA6C"/></linearGradient><linearGradient id="c" x1="15.407" y1="17.595" x2="15.065" y2="18.451" gradientUnits="userSpaceOnUse"><stop stop-color="#AA5D74"/><stop offset="1" stop-color="#B14B68"/></linearGradient><linearGradient id="d" x1="28.099" y1="23.215" x2="28.941" y2="21.183" gradientUnits="userSpaceOnUse"><stop stop-color="#1F3694"/><stop offset="1" stop-color="#73CAFC"/></linearGradient><linearGradient id="e" x1="12.758" y1="18.744" x2="12.402" y2="19.603" gradientUnits="userSpaceOnUse"><stop stop-color="#AA5D74"/><stop offset="1" stop-color="#B14B68"/></linearGradient><linearGradient id="f" x1="25.687" y1="23.695" x2="25.876" y2="23.241" gradientUnits="userSpaceOnUse"><stop stop-color="#820000"/><stop offset="1" stop-color="#DA0100"/></linearGradient><linearGradient id="g" x1="25.475" y1="24.538" x2="26.359" y2="22.455" gradientUnits="userSpaceOnUse"><stop stop-color="#820000"/><stop offset="1" stop-color="#DA0100"/></linearGradient></defs></svg>