<svg xmlns="http://www.w3.org/2000/svg" xmlns:xlink="http://www.w3.org/1999/xlink" width="850" height="646" viewBox="0 0 637 485"><defs><linearGradient id="f" x1="14" y1="525" x2="16" y2="525" gradientTransform="rotate(14 693506 64939) scale(315.485)" gradientUnits="userSpaceOnUse"><stop offset="0" stop-color="#1187c9"/><stop offset="0" stop-color="#1187c9"/><stop offset="0" stop-color="#0e7ebf"/><stop offset="1" stop-color="#0665a4"/><stop offset="1" stop-color="#005490"/><stop offset="1" stop-color="#005490"/></linearGradient><linearGradient id="d" x1="14" y1="525" x2="16" y2="525" gradientTransform="scale(359.288) rotate(26 1134 233)" gradientUnits="userSpaceOnUse"><stop offset="0" stop-color="#fff"/><stop offset="1" stop-color="#78cfe4"/><stop offset="1" stop-color="#78cfe4"/></linearGradient><linearGradient id="a" x1="14" y1="525" x2="16" y2="525" gradientTransform="matrix(422.022 175.519 -175.52 422.022 86258 -223969)" gradientUnits="userSpaceOnUse"><stop offset="0" stop-color="#fff"/><stop offset="1" stop-color="#78cfe4"/><stop offset="1" stop-color="#78cfe4"/></linearGradient><linearGradient id="g" x1="14" y1="525" x2="16" y2="525" gradientTransform="translate(-6397 -226398) scale(431.311)" xlink:href="#a"/><linearGradient id="h" x1="14" y1="525" x2="16" y2="525" gradientTransform="rotate(14 678751 68078) scale(327.442)" gradientUnits="userSpaceOnUse"><stop offset="0" stop-color="#fff"/><stop offset="1" stop-color="#78cfe4"/><stop offset="1" stop-color="#78cfe4"/></linearGradient><linearGradient id="i" x1="14" y1="525" x2="16" y2="525" gradientTransform="rotate(25 136127 27485) scale(116.336)" gradientUnits="userSpaceOnUse"><stop offset="0" stop-color="#fff"/><stop offset="0" stop-color="#e5f5fd"/><stop offset="1" stop-color="#78cfe4"/></linearGradient><linearGradient id="b" x1="16" y1="525" x2="17" y2="525" gradientTransform="rotate(6 194699 9218) scale(39.074)" gradientUnits="userSpaceOnUse"><stop offset="0" stop-color="#fff"/><stop offset="0" stop-color="#fff"/><stop offset="1" stop-color="#e0f3f8"/></linearGradient><linearGradient id="j" x1="14" y1="525" x2="16" y2="525" gradientTransform="rotate(63 48749 28197) scale(110.909)" xlink:href="#b"/><linearGradient id="c" x1="14" y1="525" x2="16" y2="525" gradientTransform="rotate(63 48750 28197) scale(110.909)" gradientUnits="userSpaceOnUse"><stop offset="0" stop-color="#e5f4f9"/><stop offset="0" stop-color="#e5f4f9"/><stop offset="1" stop-color="#c8eaf4"/></linearGradient><linearGradient id="k" x1="16" y1="525" x2="17" y2="525" gradientTransform="rotate(6 194684 9218) scale(39.074)" xlink:href="#c"/><linearGradient id="l" x1="15" y1="525" x2="16" y2="525" gradientTransform="translate(-589 -34649) scale(66.541)" xlink:href="#b"/><linearGradient id="m" x1="20" y1="525" x2="21" y2="525" gradientTransform="translate(293 -5731) scale(11.464)" xlink:href="#b"/><linearGradient id="n" x1="21" y1="525" x2="22" y2="525" gradientTransform="translate(325 -5747) scale(11.464)" xlink:href="#b"/><linearGradient id="o" x1="15" y1="525" x2="16" y2="525" gradientTransform="scale(218.501) rotate(-2 -14406 614)" xlink:href="#a"/><linearGradient id="p" x1="14" y1="525" x2="16" y2="525" gradientTransform="scale(190.577) rotate(51 563 250)" xlink:href="#a"/><linearGradient id="q" x1="14" y1="525" x2="16" y2="525" gradientTransform="rotate(26 621490 127494) scale(548.101)" xlink:href="#d"/><linearGradient id="r" x1="14" y1="526" x2="16" y2="526" gradientTransform="rotate(5 1015625 23180) scale(185.986)" gradientUnits="userSpaceOnUse"><stop offset="0" stop-color="#90cae8"/><stop offset="0" stop-color="#90cae8"/><stop offset="0" stop-color="#1187c9"/><stop offset="1" stop-color="#1187c9"/></linearGradient><clipPath id="s" transform="translate(-132 -47)"><path d="M741 229c-20 13-70 44-143 80 14 0 26 5 27 18 1 7-2 16-9 27 51-28 84-52 86-54z" fill="none"/></clipPath><linearGradient id="t" x1="14" y1="525" x2="16" y2="525" gradientTransform="rotate(14 693885 64901) scale(315.485)" gradientUnits="userSpaceOnUse"><stop offset="0" stop-color="#0675bc"/><stop offset="0" stop-color="#0675bc"/><stop offset="0" stop-color="#096cb1"/><stop offset="1" stop-color="#0f5693"/><stop offset="1" stop-color="#134a84"/><stop offset="1" stop-color="#134a84"/></linearGradient><linearGradient id="u" x1="14" y1="525" x2="16" y2="525" gradientTransform="rotate(14 693403 64925) scale(315.485)" gradientUnits="userSpaceOnUse"><stop offset="0" stop-color="#21407f"/><stop offset="0" stop-color="#21407f"/><stop offset="1" stop-color="#203a75"/><stop offset="1" stop-color="#1d2a5a"/><stop offset="1" stop-color="#1d2a5a"/></linearGradient><linearGradient id="v" x1="14" y1="525" x2="16" y2="525" gradientTransform="rotate(14 693801 64973) scale(315.485)" gradientUnits="userSpaceOnUse"><stop offset="0" stop-color="#233974"/><stop offset="0" stop-color="#233974"/><stop offset="1" stop-color="#20336a"/><stop offset="1" stop-color="#1a2553"/><stop offset="1" stop-color="#1a2553"/></linearGradient><linearGradient id="e" x1="13" y1="525" x2="15" y2="525" gradientTransform="rotate(150 6914 22500) scale(85.569)" gradientUnits="userSpaceOnUse"><stop offset="0" stop-color="#1187c9"/><stop offset="0" stop-color="#1187c9"/><stop offset="1" stop-color="#025996"/><stop offset="1" stop-color="#005490"/><stop offset="1" stop-color="#005490"/></linearGradient><linearGradient id="w" x1="13" y1="525" x2="15" y2="525" gradientTransform="rotate(150 6910 22487) scale(85.564)" xlink:href="#e"/><linearGradient id="x" x1="13" y1="525" x2="15" y2="525" gradientTransform="rotate(150 6915 22494) scale(85.57)" xlink:href="#e"/><linearGradient id="y" x1="13" y1="525" x2="15" y2="525" gradientTransform="scale(-85.572) rotate(-30 -978 300)" xlink:href="#e"/><linearGradient id="z" x1="13" y1="525" x2="15" y2="525" gradientTransform="rotate(150 6918 22514) scale(85.57)" xlink:href="#e"/><linearGradient id="A" x1="12" y1="525" x2="14" y2="525" gradientTransform="rotate(135 7312 16078) scale(61.241)" gradientUnits="userSpaceOnUse"><stop offset="0" stop-color="#f8b3b4"/><stop offset="0" stop-color="#f8b3b4"/><stop offset="1" stop-color="#f58d87"/><stop offset="1" stop-color="#f58d87"/></linearGradient><linearGradient id="B" x1="14" y1="525" x2="15" y2="525" gradientTransform="rotate(101 38028 43566) scale(168.587)" gradientUnits="userSpaceOnUse"><stop offset="0" stop-color="#fff0a5"/><stop offset="0" stop-color="#fff0a5"/><stop offset="1" stop-color="#d3a52a"/></linearGradient><linearGradient id="C" x1="12" y1="525" x2="14" y2="525" gradientTransform="rotate(135 7312 16078) scale(61.241)" gradientUnits="userSpaceOnUse"><stop offset="0" stop-color="#f58a89"/><stop offset="0" stop-color="#f58a89"/><stop offset="1" stop-color="#f06c65"/><stop offset="1" stop-color="#f06c65"/></linearGradient><linearGradient id="D" x1="15" y1="525" x2="16" y2="525" gradientTransform="translate(-589 -34648) scale(66.541)" xlink:href="#c"/><linearGradient id="E" x1="14" y1="525" x2="15" y2="525" gradientTransform="rotate(-14 -214600 31243) scale(98.761)" xlink:href="#d"/></defs><path d="M79 439s-45 14-27 33 138 34 364-79c233-117 172-133 135-128S79 439 79 439z" fill="#d9dcdb"/><path d="M14 329l25 63c6 5 49 34 205 5a942 942 0 0 0 327-143l47-87s-82 57-216 117a716 716 0 0 1-388 45z" fill="#78cfe4"/><path d="M14 329h-1l25 63c5 4 26 19 88 19 29 0 68-4 118-13 171-32 326-142 328-144l47-86-1-1-1 1c-10 6-90 59-216 115-96 43-189 54-264 54-50 0-93-5-123-9h-1v1h1v1c30 3 73 8 123 8 75 0 168-11 265-53 134-60 217-117 217-117l-1-1-47 86v1-1c-2 2-157 112-327 144-51 9-89 12-118 12-62 0-83-14-87-18v1-1a3191 3191 0 0 1-24-62h-1v1z" fill="#94c2d2"/><path d="M172 441l21 49a37 37 0 0 0 5 3l-20-48a48 48 0 0 1-6-4zm442-85c-61 33-148 72-239 89-50 10-88 13-118 13-38 0-60-6-73-11a357 357 0 0 1 14 47c11 7 30 11 57 11 56 0 147-21 275-85l31-16c24-17 42-33 53-48z" transform="translate(-132 -47)" fill="url(#f)"/><path d="M39 392h-1l24 56c4 6 11 12 21 15s24 7 42 7c55 0 145-23 273-91 79-41 120-68 141-85s24-24 24-24l9-16-1-1c-2 2-157 112-327 144-51 9-89 12-118 12-62 0-83-14-87-18l-1 1h1-1c5 4 26 19 88 19 29 0 68-4 118-13 171-32 326-142 328-144h-1v-1l-9 17s-3 7-24 23-63 44-140 85a634 634 0 0 1-273 90c-18 0-31-2-42-6s-16-9-19-15c-7-12-16-34-25-56v1h-1z" fill="#067eb5"/><path d="M618 132L460 92s-18-5-32 1l-36 14 14 6-2-1 32-12c10-4 21 0 21 0l30 7 126 32s19 3 3 14c-16 12-89 53-110 64s-29-7-29-7l-21-72c-3-9-13-12-13-12l-37-13-14-6-89-28s-7-2-18 0-81 28-81 28-7 2-12 11l-19 39s-3 5-8 8-41 14-41 14a18 18 0 0 0-9 6c-4 4-28 51-28 51s-67 55-80 68c-12 12-4 24 7 25 75 9 226 27 388-45 134-60 216-117 216-117s18-10 19-19c0-14-19-16-19-16z" fill="#78cfe4"/><path d="M618 132v-1L460 91a63 63 0 0 0-15-1 45 45 0 0 0-17 3 769 769 0 0 1-32 12l-4 2h-2l16 6v-1l30-11a26 26 0 0 1 11-2 32 32 0 0 1 7 0 31 31 0 0 1 2 1l31 8 126 31a21 21 0 0 1 5 2 9 9 0 0 1 3 2 4 4 0 0 1 1 2 6 6 0 0 1-1 3 23 23 0 0 1-5 5l-21 13-90 51-12 3a15 15 0 0 1-12-5 18 18 0 0 1-2-3l-1-2h-1 1l-22-72a19 19 0 0 0-7-10 22 22 0 0 0-6-2l-37-14-14-5-89-28a33 33 0 0 0-8-1 45 45 0 0 0-10 1l-17 5-64 22v1-1s-7 2-13 11a426 426 0 0 0-19 40h1-1s-3 5-7 7l-3 1a852 852 0 0 1-33 12l-5 1v1-1a19 19 0 0 0-10 6 28 28 0 0 0-2 4l-25 48-35 29-46 39c-4 4-6 8-6 12a13 13 0 0 0 4 10 16 16 0 0 0 10 4v-1 1c30 3 73 8 123 8 75 0 168-11 265-53 134-60 217-117 217-117l-1-1 1 1a78 78 0 0 0 9-6 42 42 0 0 0 6-7c2-2 3-4 3-7v-1a13 13 0 0 0-3-8l-10-7a35 35 0 0 0-6-1v1-1 1a34 34 0 0 1 10 4 18 18 0 0 1 6 4 12 12 0 0 1 2 7v1a12 12 0 0 1-3 7 49 49 0 0 1-9 8 83 83 0 0 1-6 4l-1 1c-10 6-90 59-216 115-96 43-189 54-264 54-50 0-93-5-123-9a15 15 0 0 1-9-3 11 11 0 0 1-4-9c0-3 2-7 6-11a1296 1296 0 0 1 78-66l3-2 1-2a2161 2161 0 0 1 25-47 23 23 0 0 1 1-3 17 17 0 0 1 6-4 18 18 0 0 1 3-1h1l18-7a1140 1140 0 0 0 22-8 18 18 0 0 0 6-5 24 24 0 0 0 2-3l2-4 17-35a26 26 0 0 1 8-9 21 21 0 0 1 3-1l1-1h1l3-1a4769 4769 0 0 1 77-26 43 43 0 0 1 10-1 38 38 0 0 1 6 0l1 1h1v-1 1l89 28 14 5 37 14a22 22 0 0 1 5 3 17 17 0 0 1 7 8 2643 2643 0 0 1 19 62l2 8 1 2a19 19 0 0 0 3 6 16 16 0 0 0 13 6l13-4a2330 2330 0 0 0 111-64 24 24 0 0 0 5-5 7 7 0 0 0 1-4 5 5 0 0 0-1-4 14 14 0 0 0-6-2 23 23 0 0 0-3-1v1-1l-126-32-30-7v1-1a32 32 0 0 0-10-2 28 28 0 0 0-11 2v1-1l-33 13 3 1v-1l-14-5v1l37-14a44 44 0 0 1 16-3 64 64 0 0 1 10 1 63 63 0 0 1 4 0l159 40z" fill="#01accd"/><path d="M260 228s-6 2-2 6 51 38 125 59l8 3c7 2 5 10 5 10l-12 54a288 288 0 0 1-162-74l25-51s3-6 13-7z" transform="translate(-132 -47)" fill="url(#d)"/><path d="M456 138l21 72s7 19 29 7 94-52 110-64c16-11-3-14-3-14l-126-32-30-7s-11-4-21 0l-32 12 39 14s10 3 13 12z" fill="#40c3da"/><path d="M613 139l-126-32-30-7s-11-4-21 0l-32 12 2 1 37 13s10 3 13 12l21 72s7 19 29 7l110-64c18-11-3-14-3-14z" fill="#40c3da"/><path d="M86 247h-1l1 1-1 20s33 30 115 58c22-2 38-5 48-7-109-18-162-72-162-72z" fill="#06bfda"/><path d="M85 247l-71 60s-5 3-6 6c-1 6 8 7 8 7h1l68-52 1-20z" fill="#1099bc"/><path d="M466 262a84 84 0 0 0-23 4l-41 19c-97 42-190 53-265 53a823 823 0 0 1-122-8l2 4 1 3c30 3 71 8 121 8a647 647 0 0 0 327-83z" fill="#54adcc"/><path d="M14 330l3 7h1a353 353 0 0 1-3-7 1234 1234 0 0 0-1 0zm604-161l-7 12z" fill="#6aa0b8"/><path d="M443 266l-5 1-36 17c-97 43-190 54-265 54-49 0-91-5-121-9h-2v1a1242 1242 0 0 0 123 8c75 0 168-11 265-53l41-19zm6-4zm1 0h-1zm168-94zm0-1v1zm0 0zm0 0zm0 0zm0 0zm0 0v2z" fill="#0b89b2"/><path d="M216 289l-77 64s-7 5-5 12 14 8 17 8a948 948 0 0 0 118 8c37 0 78-3 113-11 0 0 6-2 1-2l-2-2s-42 11-118 11a913 913 0 0 1-110-6s-15-1-16-8c-1-4 3-8 3-8z" transform="translate(-132 -47)" fill="url(#a)"/><path d="M416 133a59 59 0 0 0-15 1s-60 19-67 23c-6 3-9 8-8 8h1c3-2 5-6 11-6a19 19 0 0 1 7 2l75 31c19 7 36 10 52 10 25 0 45-8 59-16 23-14-67-53-115-53z" transform="translate(-132 -47)" fill="url(#g)"/><path d="M307 216s65 34 86 43 18 23-30 13-110-38-90-47 30-10 34-9z" transform="translate(-132 -47)" fill="url(#h)"/><path d="M252 233s-3 1-9 13-20 40-12 29 18-32 29-26 50 28 78 35c33 8-22-9-62-33 0 0-20-12-21-15s-1-5-3-3z" transform="translate(-132 -47)" fill="url(#i)"/><path d="M359 232a12 12 0 0 1 2 0 7 7 0 0 1 3 1 5 5 0 0 1 2 1 8 8 0 0 1 1 4v1l-2 16-4 25a16 16 0 0 1-5 9 14 14 0 0 1-4 3 252 252 0 0 1-74 19 8 8 0 0 1-4-1 6 6 0 0 1-2-2 8 8 0 0 1-1-4v-1l5-37c1-5 4-8 6-9a11 11 0 0 1 4-2c31-8 63-20 70-22l1-1h2zm83-83h1a5 5 0 0 1 3 2 4 4 0 0 1 1 2l2 18v1a11 11 0 0 1-2 7 9 9 0 0 1-2 2c-37 20-76 31-84 33a8 8 0 0 1-2 0 3 3 0 0 1-2 0 3 3 0 0 1-1-2v-1h-1v-1a17 17 0 0 1 2-5l7-18a21 21 0 0 1 7-10 14 14 0 0 1 5-2 517 517 0 0 0 62-24 15 15 0 0 1 3-1l1-1zm-247-27c3-6 8-7 11-7a16 16 0 0 1 7 1c56 28 116 48 131 52l3 1a17 17 0 0 1 5 3 12 12 0 0 1 5 10 15 15 0 0 1-1 4c-4 12-10 24-11 25a20 20 0 0 1-5 7c-3 3-9 7-18 7a52 52 0 0 1-15-3c-56-16-122-54-127-57a5 5 0 0 1-2-3 6 6 0 0 1-1-2 12 12 0 0 1 2-6zm175-21c21 8 52 20 64 26 18 9-29 26-29 26-31 12-43 14-51 14a49 49 0 0 1-6 0 671 671 0 0 1-129-48c0-1-7-5-13-5a14 14 0 0 0-2 0c-8 1-12 10-12 10l-14 31s-6 8 1 11 39 24 104 50c0 0 34 12 24 16a516 516 0 0 1-37 18l30-8c35-11 40-18 46-29s17-34 10-39l-4-3h3l4 1a51 51 0 0 0 16-3c19-6 50-20 55-21a5 5 0 0 1 2-1c2 0-1 5-10 9l-48 18s-8 2-11 10-8 20-10 30c-1 3 0 5 3 5 4 0 13-4 28-9 23-8 55-22 55-22a6 6 0 0 1 2-1c2 0 5 1 7 6 3 8-3 16-14 20a10 10 0 0 0-4 7c0 5 2 20-11 25a10 10 0 0 1-4 1 2 2 0 0 1-3-2v-13s-1-6-7-6-18 6-18 6-4 2-5 13-5 30-12 33a6 6 0 0 1-2 1c-4 0-3-8 1-29 3-17 0-21-5-21l-10 2-69 22s-11 2-12 18a315 315 0 0 1-6 33s-1 12 10 12a20 20 0 0 0 3 0c13-2 42-6 75-22s78-34 93-46 18-11 17-29-14-65-14-65-2-8-7-8 5-1 7-8v-1c3 0 10 32 18 59 6 20 11 31 22 31 5 0 12-3 21-8 28-17 100-57 108-65 6-5 10-10 0-15l-134-35v3h1l126 32a23 23 0 0 1 3 1 14 14 0 0 1 6 2 5 5 0 0 1 1 3 4 4 0 0 1 0 1 5 5 0 0 1-1 3v1a24 24 0 0 1-5 5l-21 13-33 19-57 32-13 4h-1a16 16 0 0 1-12-6 19 19 0 0 1-3-6l-1-2-2-8a18422 18422 0 0 0-19-62 17 17 0 0 0-7-8 22 22 0 0 0-5-3l-37-14-14-5zm117-2l-1 1 135 34c15 5 11 14 11 14s0 7-19 18-83 50-131 75-97 57-203 79a690 690 0 0 1-147 16c-36 0-67-3-89-5-17-1-30-2-38-6a15 15 0 0 0 9 3c30 4 73 9 123 9 75 0 168-11 264-54a1468 1468 0 0 0 217-116l2-1 4-3a49 49 0 0 0 9-8 12 12 0 0 0 3-7v-1a12 12 0 0 0-2-7 18 18 0 0 0-6-4 34 34 0 0 0-10-4zm-42-8a44 44 0 0 0-16 3l-35 13 10 4 32-12a28 28 0 0 1 11-2 32 32 0 0 1 10 2l20 5v-3l-18-5a44 44 0 0 0-11-1 32 32 0 0 0-10 1l-36 13-5-2 34-13a41 41 0 0 1 14-2 68 68 0 0 1 14 1l19 5v-1l-19-4v-1h-1-3a64 64 0 0 0-10-1z" fill="#4cb4d3"/><path d="M486 106l-1 1h2l126 32a22 22 0 0 1 5 1c2 1 5 2 5 4a5 5 0 0 0-1-3 14 14 0 0 0-6-2 23 23 0 0 0-3-1l-126-32zm1-7l131 33a34 34 0 0 1 10 4 18 18 0 0 1 6 4 12 12 0 0 1 2 7v1a12 12 0 0 1-3 7 49 49 0 0 1-9 8 83 83 0 0 1-6 4l-1 1c-10 6-90 59-216 115-96 43-189 54-264 54-50 0-93-5-123-9a15 15 0 0 1-9-3 21 21 0 0 1-2-1 15 15 0 0 0 11 5h2c30 4 72 9 121 9 75 0 168-11 265-54l36-17 11-5h1c104-50 166-93 168-94v-1s18-10 19-19c0-14-19-16-19-16zm-42-9a44 44 0 0 0-17 3l-36 14-34-10 12 4 22 7 14 5 37 14a22 22 0 0 1 5 3 17 17 0 0 1 7 8 2643 2643 0 0 1 19 62l2 8 1 2a19 19 0 0 0 3 6 16 16 0 0 0 12 6h1l13-4a2330 2330 0 0 0 111-64 24 24 0 0 0 5-5v-1a21 21 0 0 1-6 5c-16 12-89 53-110 64-6 3-10 4-13 4-12 0-16-10-16-11l-21-72c-3-9-13-12-13-12l-39-14 32-12a27 27 0 0 1 11-2 31 31 0 0 1 10 2l20 5v-1l-20-5a32 32 0 0 0-10-2 28 28 0 0 0-11 2l-32 12-10-4 35-13a44 44 0 0 1 16-3 64 64 0 0 1 10 1 63 63 0 0 1 4 1l19 4v-1l-18-4a62 62 0 0 0-15-2z" fill="#0797bf"/><path d="M616 153a1595 1595 0 0 0 0 0zm-212-41l39 14s10 3 13 12l21 72-21-72c-3-9-13-12-13-12l-37-13z" fill="#27aaca"/><path d="M623 145c0 2-1 5-7 8a21 21 0 0 0 6-5 5 5 0 0 0 1-3zm-219-33l2 1 37 13s10 3 13 12l21 72-21-72c-3-9-13-12-13-12l-37-13z" fill="#27aaca"/><path d="M137 338zm-121-9zm-1 0zm0 0zm0 0zm-1 0h1zm388-45z" fill="#0277a6"/><path d="M448 133a1 1 0 0 1 0 1 2 2 0 0 1-1 1 16 16 0 0 1-4 3l-23 11a514 514 0 0 1-52 19 32 32 0 0 1-8 1 20 20 0 0 1-5 0v1a22 22 0 0 0 5 1 33 33 0 0 0 9-2 516 516 0 0 0 51-19l23-11a17 17 0 0 0 5-3 4 4 0 0 0 1-2 2 2 0 0 0 0-1zM273 249s24-6 56-20l-1-1a436 436 0 0 1-54 19l-1 1z" fill="#01accd"/><path d="M449 171l-2-18s-1-3-5-3a3 3 0 0 1 0 1l2 18c1 6-4 9-4 9-37 20-76 31-84 33 0 2 2 3 5 2 8-2 46-13 83-33 0 0 5-3 5-9z" fill="#0596a6"/><path d="M449 171l-2-18a4 4 0 0 0-1-2 5 5 0 0 0-3-2h-1l-1 1a3 3 0 0 1 0 1h1-1 1-1 1-1l3 18a9 9 0 0 1-2 6 9 9 0 0 1-2 2c-37 20-76 31-84 34h-1 1a4 4 0 0 0 1 3 3 3 0 0 0 2 0 8 8 0 0 0 2 0c8-2 47-13 84-33a9 9 0 0 0 2-2 11 11 0 0 0 2-7v-1h-1v1a9 9 0 0 1-2 6 9 9 0 0 1-1 1h-1v1c-37 19-75 31-83 33a6 6 0 0 1-2 0 2 2 0 0 1-2 0 2 2 0 0 1 0-2h-1v1h1c7-2 46-13 83-34a9 9 0 0 0 3-2 11 11 0 0 0 2-7l-2-18a4 4 0 0 0 0-1h-1v1h1a3 3 0 0 1 2 1 3 3 0 0 1 1 1h1-1l2 18h1-1z" fill="#01accd"/><path d="M560 205a19 19 0 0 0-4 0 475 475 0 0 1-49 19h-1a15 15 0 0 0-3 2 19 19 0 0 0-7 9l-4 10 5 1c8 0 22-4 37-10 22-9 35-14 33-25 0-5-4-6-7-6z" transform="translate(-132 -47)" fill="url(#b)"/><path d="M440 178a9 9 0 0 0 3-2 11 11 0 0 0 2-7l-2-18a4 4 0 0 0 0-1l-1-1a14 14 0 0 0-4 2h-2c-6 3-34 16-60 24v1-1a14 14 0 0 0-5 2 21 21 0 0 0-7 10l-7 18a17 17 0 0 0-2 5 7 7 0 0 0 1 1v1h1c7-2 46-13 83-34v-1c-37 20-76 31-84 34h1a6 6 0 0 1 0-1 13 13 0 0 1 0-3 20 20 0 0 1 1-1v-2l7-17a19 19 0 0 1 7-8 15 15 0 0 1 3-2h1c30-10 62-25 62-25v-1 1a12 12 0 0 1 4-1v-1h-1a3 3 0 0 1 0 1h1-1 1-1 1-1l3 18a9 9 0 0 1-2 6 9 9 0 0 1-2 2z" fill="#94c2d2"/><path d="M339 164a9 9 0 0 0-8 5l-13 27c-4 8-3 9-3 9s58 31 103 48c10 4 18 6 25 6 22 0 27-18 31-29 2-7-2-12-7-15-21-8-73-26-122-50a17 17 0 0 0-6-1z" transform="translate(-132 -47)" fill="url(#j)"/><path d="M195 122l-16 32 1 1-1-1a12 12 0 0 0-2 6 6 6 0 0 0 1 2 5 5 0 0 0 2 3c5 3 71 41 127 57a52 52 0 0 0 15 3c9 0 15-4 18-7a20 20 0 0 0 5-7s7-12 11-25a15 15 0 0 0 1-4 12 12 0 0 0-5-10 17 17 0 0 0-5-3l-1 1 1-1-3-1c-15-4-75-24-131-52v1-1a16 16 0 0 0-7-1c-3 0-8 1-11 7h1c3-5 7-6 10-6a15 15 0 0 1 5 1 15 15 0 0 1 1 0l1 1c64 31 133 53 133 53a16 16 0 0 1 5 2 10 10 0 0 1 4 9 14 14 0 0 1 0 4 127 127 0 0 1-7 17 163 163 0 0 1-4 7v1a19 19 0 0 1-5 6c-3 3-9 6-17 6a50 50 0 0 1-15-2c-55-17-121-54-126-57a4 4 0 0 1-2-2 5 5 0 0 1 0-2 10 10 0 0 1 0-4 13 13 0 0 1 1-1l16-33h-1 1z" fill="#94c2d2"/><path d="M338 163c-4 0-7 2-11 7l-15 32v1l-1 1a10 10 0 0 0-1 3 5 5 0 0 0 1 2 4 4 0 0 0 1 2c5 3 71 41 127 57a50 50 0 0 0 14 3c9 0 14-3 18-6a19 19 0 0 0 5-7v-1l1-1 3-6a127 127 0 0 0 6-17 14 14 0 0 0 1-4 10 10 0 0 0-4-8 16 16 0 0 0-5-3l-11-3c5 3 9 8 7 15-4 11-9 29-31 29-7 0-15-2-25-6-45-17-103-48-103-48s-1-2 3-9l13-27a9 9 0 0 1 8-5 17 17 0 0 1 6 1h-1a15 15 0 0 0-2-1 15 15 0 0 0-4-1z" transform="translate(-132 -47)" fill="url(#c)"/><path d="M206 115c-3 0-7 2-11 7l-15 33s-4 6 0 9 71 41 127 58a51 51 0 0 0 15 2c18 0 23-13 23-13s7-13 10-25-9-16-9-16l-12-4 2 1 10 4a16 16 0 0 1 5 2 10 10 0 0 1 4 9 14 14 0 0 1 0 4 127 127 0 0 1-7 17 163 163 0 0 1-4 7v1a19 19 0 0 1-5 6c-3 3-9 6-17 6a50 50 0 0 1-15-2c-55-17-122-54-126-57a4 4 0 0 1-2-2 5 5 0 0 1 0-2 10 10 0 0 1 0-4 13 13 0 0 1 1-1l16-33c3-5 7-6 10-6a15 15 0 0 1 5 1 15 15 0 0 1 1 0l1 1 2 1a6 6 0 0 0 3 0l-5-2a15 15 0 0 0-7-2z" fill="#85bbcf"/><path fill="#fff" d="M245 138l-61 24 24 12 65-25-28-11zM282 154l-62 26 25 12 67-26-30-12z"/><path d="M573 198a13 13 0 0 0-3 1l-14 6a19 19 0 0 1 4 0c3 0 7 1 7 6 2 11-11 16-33 25-15 6-29 10-37 10l-5-1a345 345 0 0 0-3 8 29 29 0 0 0 0 1 13 13 0 0 0-1 4c9-3 47-14 83-33v-1h1a9 9 0 0 0 1-1 9 9 0 0 0 2-6v-1l-2-18z" transform="translate(-132 -47)" fill="url(#k)"/><path d="M440 177c-37 20-74 31-83 33a13 13 0 0 1 0-3 20 20 0 0 1 1-1v-2l3-7a77 77 0 0 1-4 8l-1 6c8-2 47-13 84-33zm2-27a13 13 0 0 0-4 1l-18 8a25 25 0 0 1 4-1l14-6a13 13 0 0 1 3-1l3 18a9 9 0 0 1-2 6 9 9 0 0 1-2 2v1s5-3 4-9l-2-18a3 3 0 0 0 0-1z" fill="#85bbcf"/><path d="M417 166l-36 13c-16 6-10 17 14 7s33-23 22-20z" fill="#fff"/><path d="M359 233c2 1 2 4 2 4l-6 39a14 14 0 0 1-9 11c-31 14-61 18-68 19-3 0-5-1-6-3v1s0 7 7 7 39-5 73-20a15 15 0 0 0 9-11l5-41s1-8-7-6z" fill="#0596a6"/><path d="M359 233h-1a4 4 0 0 1 2 2 7 7 0 0 1 0 2h1-1a972 972 0 0 1-6 39 14 14 0 0 1-4 8 13 13 0 0 1-3 2h-1a238 238 0 0 1-69 19 5 5 0 0 1-5-2l-1-1v2a8 8 0 0 0 1 4 6 6 0 0 0 2 2 8 8 0 0 0 4 1h1c8 0 39-5 73-19v-1 1a14 14 0 0 0 4-3 16 16 0 0 0 5-9 414 414 0 0 0 6-41v-1a8 8 0 0 0-1-4 5 5 0 0 0-2-1 7 7 0 0 0-3-1 12 12 0 0 0-2 0h-2l1 1h1a11 11 0 0 1 2 0 5 5 0 0 1 3 1 4 4 0 0 1 1 2 7 7 0 0 1 1 2v1a1078 1078 0 0 1-6 41 15 15 0 0 1-5 8 14 14 0 0 1-3 2h-1c-33 15-64 19-72 20h-1a6 6 0 0 1-3-1 5 5 0 0 1-2-3 7 7 0 0 1-1-1v-1-1l-1 1a7 7 0 0 0 6 2h1a239 239 0 0 0 69-18l-1-1 1 1a13 13 0 0 0 3-3 15 15 0 0 0 6-8 392 392 0 0 0 5-40 8 8 0 0 0 0-2 6 6 0 0 0-2-3v1z" fill="#01accd"/><path d="M475 287h-2l-42 13a12 12 0 0 1-4 2c-13 3-13 11-13 11l-5 24c-1 5 1 7 7 7s18-3 34-8c29-8 30-23 33-40 1-7-3-9-8-9z" transform="translate(-132 -47)" fill="url(#l)"/><path d="M278 306a239 239 0 0 0 69-18l-1-1 1 1a13 13 0 0 0 3-3 15 15 0 0 0 6-8 392 392 0 0 0 5-40 8 8 0 0 0 0-2 6 6 0 0 0-2-3h-1l-2 1c-7 2-39 14-70 22v1-1a10 10 0 0 0-4 2c-2 2-5 4-6 9l-5 37v1a7 7 0 0 0 6 2h1v-1h-1a5 5 0 0 1-5-2l6-37c1-4 3-7 5-8a10 10 0 0 1 2-1 8 8 0 0 1 1 0h1c35-10 71-24 71-24h1-1a4 4 0 0 1 2 2 7 7 0 0 1 0 2h1-1a972 972 0 0 1-6 39 14 14 0 0 1-4 8 13 13 0 0 1-3 2h-1c-31 14-61 18-68 19z" fill="#94c2d2"/><path d="M405 231a4 4 0 0 1 0 2l1 9c0 5-3 6-3 6a52 52 0 0 1-8 3 6 6 0 0 1-4 1s1 4 7 2l8-3s3-2 3-7v-10s0-4-4-3z" fill="#0596a6"/><path d="M405 231h-1a3 3 0 0 1 1 2v9a7 7 0 0 1-1 4 5 5 0 0 1-1 1v1-1 1-1l-1 1a54 54 0 0 1-7 3 7 7 0 0 1-3 0 4 4 0 0 1-1 0h-1l1 1a5 5 0 0 0 4 4 9 9 0 0 0 3-1l8-4a6 6 0 0 0 2-1 9 9 0 0 0 2-6v-7-3h-1 1a5 5 0 0 0-1-2 3 3 0 0 0-1-1 3 3 0 0 0-2-1 6 6 0 0 0-1 0l-1 1h1v1a5 5 0 0 1 1-1 2 2 0 0 1 1 1 2 2 0 0 1 1 1 4 4 0 0 1 0 1l1 10a8 8 0 0 1-2 5 6 6 0 0 1-1 1l-8 4a8 8 0 0 1-3 0 3 3 0 0 1-2-1 3 3 0 0 1-1-1h-1 1-1a5 5 0 0 0 1 1 8 8 0 0 0 3-1 52 52 0 0 0 8-3v-1 1a6 6 0 0 0 2-2 8 8 0 0 0 1-5v-6-3a5 5 0 0 0-1-2v1z" fill="#01accd"/><path d="M526 299a52 52 0 0 0 8-4s3-1 3-6v-9a4 4 0 0 0-1-2l-10 4a7 7 0 0 0-4 7 62 62 0 0 0 1 10 6 6 0 0 0 3 0z" transform="translate(-132 -47)" fill="url(#m)"/><path d="M395 251v1a52 52 0 0 0 8-3v-1 1a6 6 0 0 0 2-2 8 8 0 0 0 1-5v-6-3a5 5 0 0 0-1-2v-1h-1l-9 4v1-1a7 7 0 0 0-3 2 8 8 0 0 0-2 6 64 64 0 0 0 1 10 5 5 0 0 0 1 0 8 8 0 0 0 3 0v-1a7 7 0 0 1-3 0 4 4 0 0 1-1 0v1h1a63 63 0 0 1-1-10 6 6 0 0 1 2-5 6 6 0 0 1 1-1h1l10-4v-1h-1a3 3 0 0 1 1 1 4 4 0 0 1 0 1v9a7 7 0 0 1-1 4 5 5 0 0 1-1 1v1-1 1-1h-1a54 54 0 0 1-7 4z" fill="#94c2d2"/><path d="M448 210a4 4 0 0 1 1 2v9c0 5-2 6-2 6a52 52 0 0 1-8 3 6 6 0 0 1-4 1s1 4 7 2l8-3s3-2 3-7v-10s0-4-5-3z" fill="#0596a6"/><path d="M448 210a3 3 0 0 1 0 1 4 4 0 0 1 0 1h1-1l1 9a7 7 0 0 1-1 4 5 5 0 0 1-1 1h-1v1-1 1-1a54 54 0 0 1-8 4 7 7 0 0 1-2 0 4 4 0 0 1-1 0h-1v1a5 5 0 0 0 5 4 9 9 0 0 0 3-1l8-4a6 6 0 0 0 2-2 9 9 0 0 0 2-5l-1-7v-3a5 5 0 0 0 0-2 3 3 0 0 0-1-1 3 3 0 0 0-2-1 6 6 0 0 0-2 0l-1 1h1l1 1a5 5 0 0 1 1-1 2 2 0 0 1 1 1 2 2 0 0 1 1 1 4 4 0 0 1 0 1v10a7 7 0 0 1-1 5 6 6 0 0 1-1 1h-1l-7 4a8 8 0 0 1-3 0 3 3 0 0 1-3-1 3 3 0 0 1 0-1h-1a5 5 0 0 0 1 1 8 8 0 0 0 3-1 52 52 0 0 0 8-3v-1 1a6 6 0 0 0 2-2 8 8 0 0 0 1-5v-6-3a5 5 0 0 0-1-2h-1l1 1z" fill="#01accd"/><path d="M570 278a52 52 0 0 0 8-4s3-1 3-6v-9a4 4 0 0 0-1-2l-10 4a7 7 0 0 0-4 7 63 63 0 0 0 1 10 6 6 0 0 0 3 0z" transform="translate(-132 -47)" fill="url(#n)"/><path d="M439 230v1a52 52 0 0 0 8-3v-1 1a6 6 0 0 0 2-2 8 8 0 0 0 1-5v-6-3a5 5 0 0 0-1-2v-1h-1l-10 5h1l-1-1a7 7 0 0 0-2 2 8 8 0 0 0-2 6 64 64 0 0 0 0 10h1a5 5 0 0 0 1 1 8 8 0 0 0 3-1v-1h-1a7 7 0 0 1-2 0 4 4 0 0 1-1 0v1h1a63 63 0 0 1-1-10 6 6 0 0 1 2-5 6 6 0 0 1 1-1h1l9-4h1l-1-1a3 3 0 0 1 0 1 4 4 0 0 1 0 1h1-1l1 9a7 7 0 0 1-1 4 5 5 0 0 1-1 1h-1v1-1 1-1a54 54 0 0 1-8 4z" fill="#94c2d2"/><path d="M557 242l-50 20s-34 12-13 8c28-4 69-22 69-22s13-3 12-9c0-4-18 3-18 3z" transform="translate(-132 -47)" fill="url(#o)"/><path d="M400 298c6 0 27-6 17-2-14 4-13 12-13 12l-7 40c-1 8-3 10 2 13s-6 5-9 1-1-13-1-13l8-40s1-7-11-12c-15-7-9-2 14 1z" transform="translate(-132 -47)" fill="url(#p)"/><path d="M209 107a19 19 0 0 0-9 4c-3 3 13-3 9-4z" fill="#e9f7fe"/><path d="M432 379s-136 36-280 8l19 49s48 31 167 11c116-20 142-83 94-68z" transform="translate(-132 -47)" fill="url(#q)"/><path d="M175 445s47 29 150 12c96-15 4 46-70 44-55-1-61-14-61-14z" transform="translate(-132 -47)" fill="url(#r)"/><path d="M67 449L23 340s30 47 44 109z" fill="#e9f7fe"/><g clip-path="url(#s)"><path fill="#3bb3d2" d="M466 181h144v125H466z"/></g><path d="M611 181h-1l-39 72h1l39-72z" fill="#49a7c2"/><path d="M701 303c-9 6-41 28-87 53-11 15-29 31-53 48 69-36 104-60 122-75 9-8 10-12 11-12z" transform="translate(-132 -47)" fill="url(#t)"/><path d="M571 253c-3 2-36 25-87 53l-2 3c47-25 79-47 88-53l-8 14s-1 3-11 12l7-5a639 639 0 0 1 5-7l8-16 1-1z" fill="#046da8"/><path d="M616 170c-12 8-75 49-173 96a84 84 0 0 1 23-4c73-36 124-67 144-81z" fill="#2c96bd"/><path d="M618 169a1400 1400 0 0 1-2 1l-6 11h1z" fill="#368ba9"/><path d="M618 167v1c-2 1-64 44-168 94h-1l-11 5 5-1c102-49 166-91 175-97z" fill="#0477a5"/><path d="M449 262l-11 5 11-5zm0 0zm1 0zm168-94zm0-1zm0 0zm0 0z" fill="#0481af"/><path d="M398 379h-1zm0 0zm0 0zm1-1zm0 0zm0 0zm0 0zm1 0zm0 0zm0 0zm0 0zm1-1h-1zm0 0zm0 0zm0 0zm0 0zm1 0zm0 0zm0 0zm0-1v1zm1 0h-1zm0 0zm0 0zm0 0zm1 0h-1zm0 0zm0 0zm0 0zm1-1l-1 1zm0 0zm0 0zm1 0h-1z" fill="#046da8"/><path d="M86 247l-1-1-1 1-71 60h1-1a23 23 0 0 0-2 1 10 10 0 0 0-3 5 6 6 0 0 0 0 1 5 5 0 0 0 1 4 10 10 0 0 0 4 2 15 15 0 0 0 2 1h6a1067 1067 0 0 0 168 6l11-1c22-2 38-5 48-7v-1c-54-9-95-27-122-42a250 250 0 0 1-30-21 157 157 0 0 1-9-8l-1-1h-1l1 1h-1s53 55 163 72v-1c-10 2-26 5-48 7l-11 1-48 1c-33 0-72-2-119-7h-5l-1-1v1-1a14 14 0 0 1-4-1 7 7 0 0 1-2-1 3 3 0 0 1-1-3 5 5 0 0 1 0-1 9 9 0 0 1 3-4 22 22 0 0 1 2-1l2-2 69-58 1-1h-1z" fill="#01accd"/><path d="M561 404l-31 16a662 662 0 0 1-275 85c-27 0-46-4-57-11l1 2-1-3a37 37 0 0 1-5-3l2 5c3 5 10 11 20 15s24 6 42 6a630 630 0 0 0 304-112z" transform="translate(-132 -47)" fill="url(#u)"/><path d="M397 379l-12 7 10-6a630 630 0 0 1-270 88c-18 0-31-2-42-6s-16-9-19-15l-3-4-1-2 3 7c6 12 27 21 62 21 55 0 145-22 272-90zm1 0zm0 0zm1-1l-1 1zm0 0zm0 0zm0 0zm1 0h-1zm0 0zm0 0zm0 0zm0-1v1zm1 0zm0 0zm0 0zm0 0zm1 0h-1zm0 0zm0 0zm0 0zm0-1zm1 0zm0 0zm0 0zm0 0zm1 0zm0 0zm0 0zm0 0zm1-1zm0 0zm0 0zm1 0z" fill="#203a70"/><path d="M66 446l1 3v-3h-1z" fill="#0069a3"/><path d="M683 329c-18 15-53 39-122 75a548 548 0 0 1-32 22 1021 1021 0 0 0 154-97z" transform="translate(-132 -47)" fill="url(#v)"/><path d="M558 277a206 206 0 0 1-20 16 1021 1021 0 0 1-143 87l-10 6 12-7h1l1-1h1l1-1h1v-1h2l1-1h1c106-57 140-86 152-98z" fill="#203367"/><path d="M444 124h-1l1-24 1 1zm3-26a27 27 0 0 0-11 2l-32 12 2 1 37 13s10 3 13 12l21 72s4 11 15 11h1c3 0 7-1 13-4 21-11 93-53 110-64 10-7 6-11 2-13a27 27 0 0 0-5-1l-126-32h-2v3l119 30c27 9-29 33-29 33l-93-29-2-1-4 28a2 2 0 0 1-1 1 3 3 0 0 1-1 1 6 6 0 0 1-2 0h-1a7 7 0 0 1-2 0 4 4 0 0 1-2-1 2 2 0 0 1 0-2l5-31c-19-8-25-20-24-30 1-5 4-7 7-7a17 17 0 0 1 7 2l14 4 1-3-20-5a31 31 0 0 0-10-2z" fill="#1395ba"/><path d="M493 221zm13-4zm112-77c4 2 8 6-2 13 6-3 7-6 7-8s-2-4-5-5zM447 98a27 27 0 0 0-11 2 27 27 0 0 1 11-2zm0 0z" fill="#0d83ae"/><path d="M631 206l-33 15 5 16 50-24z" transform="translate(-132 -47)" fill="url(#e)"/><path d="M499 159v-1l-33 16 5 16v1l53-25-25-8v1l21 7-49 23v1l1-1-5-15v1l32-16z" fill="#067eb5"/><path d="M590 193l4 14 16-8z" transform="translate(-132 -47)" fill="url(#w)"/><path d="M458 146h-1 1l4 14 18-8-23-8v2h1l19 6-15 7v1l1-1-4-13v-1l-1 1z" fill="#067eb5"/><path d="M610 199l-16 8 4 14 33-15z" transform="translate(-132 -47)" fill="url(#x)"/><path d="M478 152v-1l-16 8v1l4 14v1l35-17-23-7v2l19 6-31 14 1 1-4-15-1 1h1l16-7-1-1v1z" fill="#067eb5"/><path d="M653 213l-50 24 5 17 69-33z" transform="translate(-132 -47)" fill="url(#y)"/><path d="M522 166v-1l-51 24v1l5 17v1l71-35-25-8v1l21 7-67 34h1l-5-18-1 1h1l50-24z" fill="#067eb5"/><path d="M677 221l-69 33 2 5s5 17 25 7l67-37z" transform="translate(-132 -47)" fill="url(#z)"/><path d="M545 173l-69 34 1 5a17 17 0 0 0 4 5 15 15 0 0 0 11 5l12-3 67-37 1-1-27-8v1l25 8 1-1h-1a2402 2402 0 0 1-78 40 13 13 0 0 1-10-5 17 17 0 0 1-3-3 14 14 0 0 1 0-1h-1 1l-2-5v1l68-34v-1 1z" fill="#067eb5"/><path fill="#066697" d="M443 125l1-24h1l-1 24z"/><path d="M481 173c0-3-4-6-9-6a14 14 0 0 0-7 1l2 6 1 3a16 16 0 0 0 3 0c5 1 9-1 10-4z" fill="#9d822f"/><path d="M672 53a40 40 0 0 0-5 3 19 19 0 0 1-8 4 32 32 0 0 1-6 0l-17-1c-2 12-9 32 3 32 14 0 15-19 33-38zm18-4a47 47 0 0 0-10 1c-5 5-10 11-11 16l-1 5c2 0 11-15 29-22h-7z" transform="translate(-132 -47)" fill="url(#A)"/><path d="M542 4V3a32 32 0 0 0-7 5 17 17 0 0 1-7 3 31 31 0 0 1-7 1l-20-2h-3l-7 51h1c21-5 32-10 39-16s10-13 15-22a47 47 0 0 1 18-16 54 54 0 0 1 8-3 41 41 0 0 1 3-1V2a87 87 0 0 0-16-2 43 43 0 0 0-17 3v1h1a41 41 0 0 1 16-3 86 86 0 0 1 16 2V2s-19 4-30 21c-5 8-8 15-15 21s-17 11-39 16l1 1 8-50h-1 2l20 2a32 32 0 0 0 7-1 19 19 0 0 0 8-3 31 31 0 0 1 7-5z" fill="#f26e63"/><path d="M628 53h-4l-24 165a2 2 0 0 0 1 1 5 5 0 0 0 2 0 5 5 0 0 0 2 0 2 2 0 0 0 1-1l25-165h-3z" transform="translate(-132 -47)" fill="url(#B)"/><path d="M496 5h-4l-25 165a2 2 0 0 0 0 2 4 4 0 0 0 2 1 7 7 0 0 0 2 0h1a6 6 0 0 0 2 0 3 3 0 0 0 1-1 2 2 0 0 0 1-1h-1 1L501 5h-5v1h3l-24 165a1 1 0 0 1-1 0 2 2 0 0 1-1 1 5 5 0 0 1-1 0h-1a5 5 0 0 1-2-1 2 2 0 0 1-1 0 1 1 0 0 1 0-1v1L493 6h3z" fill="#d3a52a"/><ellipse cx="628" cy="53" rx="2" ry="4" transform="rotate(-88 537 97)" fill="#fff0a5"/><path d="M500 5h-1a1 1 0 0 1 0 1 2 2 0 0 1-1 0 5 5 0 0 1-2 1 5 5 0 0 1-2-1 2 2 0 0 1-1 0 1 1 0 0 1 0-1 2 2 0 0 1 1-1 5 5 0 0 1 2 0 5 5 0 0 1 3 1h1-1 2a2 2 0 0 0-1-1 4 4 0 0 0-1-1 7 7 0 0 0-3 0 6 6 0 0 0-3 0 3 3 0 0 0-1 1 2 2 0 0 0 0 1 2 2 0 0 0 0 1 4 4 0 0 0 2 2 7 7 0 0 0 2 0 6 6 0 0 0 3-1 3 3 0 0 0 1 0 2 2 0 0 0 1-1V5z" fill="#d3a52a"/><path d="M537 14s-6 6-7 14z" fill="#f58d87"/><path d="M537 13s-6 7-8 15h2a28 28 0 0 1 4-10 35 35 0 0 1 2-3v-1h1z" fill="#f26e63"/><path fill="#fff" d="M493 8l-22 147L496 8h-3z"/><path d="M662 76l-1-1c1-8 7-15 7-15l1 1v1a26 26 0 0 0-2 2l-4 9a23 23 0 0 0-1 3zm35-27c-18 7-27 22-29 22l1-5c1-5 6-11 11-16a34 34 0 0 0-6 2l-2 1c-18 19-19 38-33 38-12 0-5-20-3-32h-4-1l-7 48c21-5 31-10 38-16 6-6 9-13 15-21 8-13 21-18 26-20l-6-1z" transform="translate(-132 -47)" fill="url(#C)"/><path d="M501 11h-1 1l3 1 1-1h-4zm48-9a35 35 0 0 0-7 2l-1 1 2-1a34 34 0 0 1 5-1l1-1zm18-1l-2 1 7 1c-6 1-19 7-27 20-5 8-8 15-15 21s-17 11-37 16h-1c42-9 43-21 54-37 10-17 29-21 29-21l-8-1z" fill="#ec554b"/><path d="M500 11h-1l-7 50v-1h1l7-49z" fill="#ce7e29"/><path d="M536 17l-1 1a31 31 0 0 0-4 8z" fill="#f06c65"/><path d="M537 13s-6 7-8 15h2a23 23 0 0 1 0-2 31 31 0 0 1 4-8 35 35 0 0 1 2-4h1-1z" fill="#ec554b"/><path d="M490 281l-17 6h2c5 0 9 2 8 9-3 17-4 32-33 40-16 5-28 8-34 8s-8-2-7-7l5-24s0-8 13-11a12 12 0 0 0 4-2l-13 4a8 8 0 0 0-1 0 10 10 0 0 0-3 2c-2 1-4 3-5 8l-5 37a5 5 0 0 0 4 1h1v1-1c8 0 37-4 69-18l1-1a13 13 0 0 0 2-1 14 14 0 0 0 5-8l5-35v-5a7 7 0 0 0 0-2 4 4 0 0 0-1-1z" transform="translate(-132 -47)" fill="url(#D)"/><path d="M301 252l-15 4s-7 1-9 10l-5 37a6 6 0 0 0 5 3h1v-1h-1a5 5 0 0 1-5-2l6-37c1-4 3-7 5-8a10 10 0 0 1 2-1 8 8 0 0 1 1 0h1l13-4a16 16 0 0 0 1-1zm58-19h-1l-20 7a30 30 0 0 1 3-1l17-6h1a4 4 0 0 1 1 2 7 7 0 0 1 0 2l-1 5-5 34a14 14 0 0 1-4 8 13 13 0 0 1-3 2h-1c-31 14-61 18-68 19v1c7-1 37-5 68-19a14 14 0 0 0 9-11l6-39s0-3-2-4z" fill="#85bbcf"/><path d="M336 246l-39 13s-11 3-11 11 11 11 34 4c27-9 30-32 16-28z" fill="#fff"/><ellipse cx="88" cy="301" rx="39" ry="23" fill="#36a8bc"/><path d="M220 338c-8 0-14 3-14 7a12 12 0 0 0 2 1l1 1a25 25 0 0 0 9 1v1-1h5c6-1 9-3 11-4-1-4-7-6-14-6z" transform="translate(-132 -47)" fill="url(#E)"/><path d="M127 295c-1-14-18-24-39-23s-38 13-37 26 18 24 39 23 37-13 37-26zm-53-9a8 8 0 0 0-2 9 8 8 0 0 1 2-9zm13 15c-14 0-15-7-15-7s1-8 15-8c17-1 17 8 17 8a3 3 0 0 1 0 1c3-4 0-9 0-9s3 5 0 9c-2 3-7 7-17 6z" fill="#fbf9d9"/><path d="M127 295c0-7-4-12-11-17s-16-6-26-6h-2c-21 1-37 12-37 25v1c0 7 4 13 11 17s16 6 25 6h3c21-1 37-12 37-25v-1 1c0 13-16 24-37 25h-3c-9 0-18-2-25-7s-10-9-11-16v-1c0-13 16-24 37-25h2c10 0 19 3 26 7s10 10 11 16zm-53-9a8 8 0 0 0-3 6 8 8 0 0 0 1 3 8 8 0 0 1-1-3 7 7 0 0 1 2-4 8 8 0 0 1 0-1l1-1a8 8 0 0 0-3 6 8 8 0 0 0 1 3 8 8 0 0 1-1-3 7 7 0 0 1 2-4 8 8 0 0 1 0-1l1-1zm13 15c-7 0-11-2-13-4a7 7 0 0 1-2-2 5 5 0 0 1 0-1c0-2 3-8 15-8h1c8 0 12 2 14 4a7 7 0 0 1 2 3 2 2 0 0 1 0 1 3 3 0 0 1-1 1h1a7 7 0 0 0 1-4 8 8 0 0 0-1-5v1a7 7 0 0 1 1 4 6 6 0 0 1-2 4c-1 2-6 6-15 6h-1 1c9 0 14-3 16-6a7 7 0 0 0 2-4 8 8 0 0 0-2-5v1a7 7 0 0 1 1 4 6 6 0 0 1-2 4h1a3 3 0 0 0 0-1 7 7 0 0 0-2-4c-2-2-6-4-14-4h-1c-7 0-11 2-13 4a8 8 0 0 0-2 4 6 6 0 0 0 2 4c2 1 6 3 13 3z" fill="#f7e6a6"/><path d="M98 282c-2 5 0 5 0 5a11 11 0 0 1 5 4v1l2-3a8 8 0 0 0-1-3 8 8 0 0 1 1 3c1-2 3-4 7-5a15 15 0 0 1 12 2c-4-6-11-11-21-13l-1 1a14 14 0 0 0-4 8z" fill="#ef3f47"/><path d="M98 282a18 18 0 0 0-1 3 3 3 0 0 0 0 2 1 1 0 0 0 1 0 11 11 0 0 1 5 4v1h1v-1l1-2a8 8 0 0 0-1-3v1a8 8 0 0 1 1 2c1-2 3-4 7-5a16 16 0 0 1 4 0 15 15 0 0 1 8 3v-1c-4-6-11-11-21-13h-1a14 14 0 0 0-4 9 15 15 0 0 1 3-6 12 12 0 0 1 1-2l1-1c10 3 17 7 21 14v-1a15 15 0 0 0-8-2 17 17 0 0 0-4 0c-4 1-6 3-7 4v1a8 8 0 0 0-1-3v1a8 8 0 0 1 1 2v-1l-2 3v1l1-1h-1a11 11 0 0 0-5-4 3 3 0 0 1-1-2 18 18 0 0 1 1-3z" fill="#d91e37"/><path d="M71 282c5 4 4 7 4 7a17 17 0 0 1 10-3h1s1-1 0-7c-1-4-4-6-4-6a47 47 0 0 0-21 7 11 11 0 0 1 10 2z" fill="#ef3f47"/><path d="M71 282c4 3 4 6 4 7v1-1a17 17 0 0 1 10-3h1l1-3a17 17 0 0 0-1-4c-1-5-4-6-4-6v-1a48 48 0 0 0-21 8v1h1a11 11 0 0 1 3-1 11 11 0 0 1 6 2h1a11 11 0 0 0-7-2 10 10 0 0 0-4 0v1a47 47 0 0 1 21-8 10 10 0 0 1 4 6 17 17 0 0 1 0 4 4 4 0 0 1 0 2v1-1l-1 1a17 17 0 0 0-10 3h1c0-1-1-4-4-7z" fill="#d91e37"/><path d="M114 302c-5-6-11-5-11-5h-1c-2 2-5 4-12 4s3 7 2 20c10-1 19-4 25-9a11 11 0 0 0-3-10z" fill="#ef3f47"/><path d="M114 302a16 16 0 0 0-11-6l-1 1c-2 2-5 3-12 4s0 0 1 1a42 42 0 0 1 1 12v7c10-1 19-4 25-9a12 12 0 0 0-3-10 11 11 0 0 1 3 10c-6 5-15 8-25 9v-7l-1-13h-1 1-1c7 0 10-2 12-4h1a16 16 0 0 1 11 5z" fill="#d91e37"/><path d="M70 306c2-4 5-6 7-7-5-2-5-5-5-5a6 6 0 0 1 0-2 5 5 0 0 0-1 0 8 8 0 0 0 1 3 8 8 0 0 1-1-3c-1-1-4-3-9-2-6 0-9 3-11 6a16 16 0 0 0 0 2c0 8 7 15 16 19h1a16 16 0 0 1 2-11z" fill="#ef3f47"/><path d="M70 306l7-7a10 10 0 0 1-4-3 6 6 0 0 1-1-1v-1a7 7 0 0 1 1-1v-1h-1a5 5 0 0 0-1 0v-1 1a8 8 0 0 0 1 3 8 8 0 0 1-1-3c-1-1-3-2-8-2h-1c-6 0-10 3-11 6v2c0 8 7 15 16 19h1v-1a13 13 0 0 1 0-1 17 17 0 0 1 2-9 17 17 0 0 0-3 9 11 11 0 0 0 0 2h1-1c-9-4-15-11-16-19a12 12 0 0 1 0-1v-1 1c2-4 6-7 11-7h1l8 2a8 8 0 0 0 1 3 8 8 0 0 1-1-3 7 7 0 0 1 1 0v1-1a7 7 0 0 0 0 2s0 3 5 5c-2 1-5 2-7 7z" fill="#d91e37"/><path d="M73 302a20 20 0 0 0-3 4 18 18 0 0 0-1 2 43 43 0 0 0 18 3h5a44 44 0 0 0-1-7l-2 1h-2a32 32 0 0 1-14-3zm43-18a16 16 0 0 0-4 0l-1 1a11 11 0 0 1 1 2c2 3 1 7-3 11a17 17 0 0 1 5 4h1c5-5 7-11 5-15a14 14 0 0 0-1-3 15 15 0 0 0-3 0zm-51-4h-1a20 20 0 0 0-4 4 14 14 0 0 0-3 7 16 16 0 0 1 5-1h3a10 10 0 0 1 2-5 15 15 0 0 1 3-3 10 10 0 0 0-5-2zm23-7a49 49 0 0 0-5 0 11 11 0 0 1 2 4h3a51 51 0 0 1 11 1 14 14 0 0 1 2-3 69 69 0 0 0-13-2z" fill="#fffffd"/><path d="M101 275v1a14 14 0 0 0-2 2c6 1 10 4 12 6h1a17 17 0 0 1 4 0 15 15 0 0 1 2 0c-3-4-8-7-17-9z" fill="#f26e85"/><path d="M116 284a17 17 0 0 0-4 0h-1v1l1-1a16 16 0 0 1 4 0 15 15 0 0 1 3 0h-1a15 15 0 0 0-2 0zm-15-9a14 14 0 0 0-2 3 14 14 0 0 1 2-2v-1z" fill="#ee3767"/><path d="M83 274c-5 0-13 2-19 6h1a11 11 0 0 1 6 1c4-3 10-4 14-4a10 10 0 0 0-2-3z" fill="#f26e85"/><path d="M65 280h-1 1a10 10 0 0 1 5 2l1-1a11 11 0 0 0-6-1zm18-7v1a10 10 0 0 1 2 3 11 11 0 0 0-2-4z" fill="#ee3767"/><path d="M108 298c-3 3-9 6-17 6a45 45 0 0 1 1 7c11-1 18-4 22-8v-1a17 17 0 0 0-6-4z" fill="#f26e85"/><path d="M91 304a44 44 0 0 1 1 7 45 45 0 0 0-1-7zm23-2v1l1-1zm-5-4h-1a17 17 0 0 1 6 4 17 17 0 0 0-5-4z" fill="#ee3767"/><path d="M63 290h-1a15 15 0 0 0-5 1c-1 6 3 13 12 17a18 18 0 0 1 1-2 20 20 0 0 1 3-4c-6-3-8-8-8-12h-2z" fill="#f26e85"/><path d="M73 302a20 20 0 0 0-3 4 18 18 0 0 0-1 2 18 18 0 0 1 1-2 20 20 0 0 1 3-4zm-10-12h-1a16 16 0 0 0-5 1 15 15 0 0 1 5-1 23 23 0 0 1 3 0h-2z" fill="#ee3767"/><path d="M68 313a16 16 0 0 0 0 2 13 13 0 0 0 0 1v1a52 52 0 0 0 19 4h5v-4h-4a50 50 0 0 1-20-4zm-16-21a17 17 0 0 0-1 4 9 9 0 0 1 1-2 15 15 0 0 1 0-2zm74-2v1c0 6-3 12-9 16a11 11 0 0 1 1 3 12 12 0 0 1-1 2c6-5 10-10 10-16v-1a16 16 0 0 0-1-5z" fill="#ece5bb"/><path d="M68 317h-1a52 52 0 0 0 20 4h5-5a52 52 0 0 1-19-4zm-16-26a17 17 0 0 0-1 5 17 17 0 0 1 1-4v-1zm74-1a16 16 0 0 1 1 5v1c0 6-4 11-10 16 6-5 10-11 10-17a16 16 0 0 0-1-5z" fill="#e9d591"/><path d="M117 308c-6 4-15 8-25 9v4c10-1 19-4 25-9a11 11 0 0 0 0-2 11 11 0 0 0 0-2z" fill="#e0393e"/><path d="M117 307v1a11 11 0 0 1 0 2 11 11 0 0 1 0 2c-6 5-15 8-25 9v-4 4c10-1 19-4 25-9a12 12 0 0 0 1-2 11 11 0 0 0-1-3z" fill="#cc202f"/><path d="M52 295a9 9 0 0 0-1 2 18 18 0 0 0 0 1c1 8 7 15 16 19a12 12 0 0 1 0-2 16 16 0 0 1 0-2c-8-4-14-11-15-18z" fill="#e0393e"/><path d="M52 294a9 9 0 0 0-1 2 16 16 0 0 0 0 2c0 8 7 15 16 19h1v-1a13 13 0 0 1 0-1 16 16 0 0 1 0-2h-1a16 16 0 0 0 0 2 12 12 0 0 0 0 2c-9-4-15-11-16-19a12 12 0 0 1 0-1 9 9 0 0 1 1-2v-1z" fill="#cc202f"/><path d="M105 289l-1 2a6 6 0 0 1 0 3 6 6 0 0 0 1-2 10 10 0 0 0 0-2 7 7 0 0 0 0-1zm-31-3l-1 1a8 8 0 0 0 0 1 8 8 0 0 0-2 2 7 7 0 0 0 0 2 6 6 0 0 1 1 0 10 10 0 0 1 2-2 11 11 0 0 1 1-1 6 6 0 0 0-1-3zm14-4h-1v1l-1 3h2a29 29 0 0 1 9 1 3 3 0 0 1 0-2 14 14 0 0 1 0-2 34 34 0 0 0-9-1z" fill="#ece5bb"/><path d="M104 291v1a5 5 0 0 1 0 2 2 2 0 0 1 0 1 5 5 0 0 0 1-3 6 6 0 0 1-1 2 6 6 0 0 0 0-3zm-29-2a11 11 0 0 0-1 1 10 10 0 0 0-2 2 10 10 0 0 1 3-3zm30 0a7 7 0 0 1 0 1v-1zm-31-3a7 7 0 0 0-3 4 8 8 0 0 1 2-2 8 8 0 0 1 0-1l1-1zm14 0h-1-2a20 20 0 0 0-5 1 27 27 0 0 1 7-1h1a28 28 0 0 1 10 1h-1a29 29 0 0 0-9-1z" fill="#e9d591"/><path d="M98 283a13 13 0 0 0-1 2 3 3 0 0 0 1 2 11 11 0 0 1 5 4l2-2a8 8 0 0 0-1-2v-1a14 14 0 0 0-6-3z" fill="#e0393e"/><path d="M97 283a14 14 0 0 0 0 2 3 3 0 0 0 0 2h1c3 1 5 3 6 5v-1a44 44 0 0 1 1-2 5 5 0 0 0-1-3v1a8 8 0 0 1 1 2l-2 2a11 11 0 0 0-5-4 3 3 0 0 1-1-2 13 13 0 0 1 1-2z" fill="#cc202f"/><path d="M86 282a29 29 0 0 0-8 2 14 14 0 0 0-3 1 7 7 0 0 1 1 4 17 17 0 0 1 9-3l1-1a4 4 0 0 0 0-2v-1z" fill="#e0393e"/><path d="M87 282h-1v1a4 4 0 0 1 0 2l-1 1a17 17 0 0 0-9 3 7 7 0 0 0-1-4l-1 1a6 6 0 0 1 1 3 15 15 0 0 1 5-2 20 20 0 0 1 5-1h1l1-3v-1z" fill="#cc202f"/><path d="M71 292a9 9 0 0 0 1 2 8 8 0 0 1 0-1v-1z" fill="#e0393e"/><path d="M71 292h1v1a8 8 0 0 0 0 1 7 7 0 0 1 0-2 6 6 0 0 0-1 0z" fill="#cc202f"/></svg>