<svg xmlns="http://www.w3.org/2000/svg" xmlns:xlink="http://www.w3.org/1999/xlink" viewBox="0 0 637.47 425.28"><defs><style>.cls-1{fill:none;}.cls-2{isolation:isolate;}.cls-3{clip-path:url(#clip-path);}.cls-4{fill:#fff;}.cls-5{fill:#a8b1b3;}.cls-6{fill:#808382;}.cls-7{fill:#ada696;}.cls-8{fill:#c2c3bf;}.cls-9{fill:#99a7ad;}.cls-10{fill:#4c423e;}.cls-11{fill:#2c231a;}.cls-12{fill:#646c72;}.cls-13{fill:#868b8b;}.cls-14{opacity:0.4;mix-blend-mode:multiply;}.cls-15{fill:#747474;}.cls-16{fill:#454a4f;}.cls-17{fill:#ea4f4e;}.cls-18{fill:#46535d;}.cls-19{fill:#9a191a;}.cls-20{fill:#172938;}.cls-21{fill:#4e5d67;}.cls-22{fill:#576878;}.cls-23{fill:#4fbfd3;}.cls-24{fill:#8ccfdb;}.cls-25{fill:#e4edf2;}.cls-26{fill:#8b1819;}.cls-27{fill:#b1342d;}.cls-28{fill:#00b0bc;}.cls-29{fill:#58391e;}.cls-30{fill:#674528;}.cls-31{fill:#734c2e;}.cls-32{fill:#815738;}.cls-33{fill:#875e41;}.cls-34{fill:#926645;}.cls-35{fill:#9b764c;}.cls-36{fill:#a48059;}.cls-37{fill:#c5c9cd;}.cls-38{fill:#46393a;}.cls-39{fill:#f8d563;}.cls-40{fill:#bfc1c4;}</style><clipPath id="clip-path"><rect class="cls-1" width="637.47" height="424.98"/></clipPath></defs><title>Монтажная область 1</title><g class="cls-2"><g id="Слой_1" data-name="Слой 1"><g class="cls-3"><rect class="cls-4" width="637.47" height="424.98"/><rect class="cls-1" width="637.47" height="424.98"/><polygon class="cls-5" points="-19.13 400.75 246.04 276.08 246.04 197.92 194.02 166.31 194.02 117.71 -26.78 62.84 -19.13 400.75"/><path class="cls-6" d="M296,280.77s20.43-12.89,49.59-13,173.18,31.66,173.18,31.66S615.58,329.09,654.68,335V431.5H374.76Z"/><rect class="cls-7" x="423.43" y="398.61" width="109.85" height="5.4"/><rect class="cls-7" x="408.08" y="385.51" width="109.85" height="5.4"/><rect class="cls-7" x="393.82" y="371.88" width="101.88" height="5.93"/><rect class="cls-7" x="385.38" y="358.4" width="94.58" height="5.22"/><rect class="cls-7" x="438.87" y="416.08" width="116.31" height="5.93"/><polygon class="cls-7" points="661.7 341.94 573.85 341.94 570.96 339.62 658.81 339.62 661.7 341.94"/><polygon class="cls-7" points="642.43 336.31 554.57 336.31 551.69 333.99 639.54 333.99 642.43 336.31"/><polygon class="cls-7" points="617.65 330.68 536.17 330.68 533 328.13 614.48 328.13 617.65 330.68"/><polygon class="cls-7" points="688.82 349.68 595.8 349.68 592.64 347.13 685.66 347.13 688.82 349.68"/><polygon class="cls-7" points="575.86 316.65 488 316.65 485.12 314.33 572.97 314.33 575.86 316.65"/><polygon class="cls-7" points="556.58 311.02 468.73 311.02 465.84 308.7 553.69 308.7 556.58 311.02"/><polygon class="cls-7" points="531.8 305.39 450.32 305.39 447.16 302.84 528.64 302.84 531.8 305.39"/><polygon class="cls-7" points="602.98 324.39 509.96 324.39 506.79 321.84 599.81 321.84 602.98 324.39"/><path class="cls-8" d="M522.42,262.64c26.68.3,120.37,5.17,120.37,5.17l-1.07,35.63S532.36,285,518.16,280.77,509.45,262.5,522.42,262.64Z"/><path class="cls-4" d="M641.72,299.37s-105.51-18.78-116.77-22.82.9,19.71.9,19.71L647,328.13Z"/><path class="cls-9" d="M641.72,303.44s-104.61-19.69-115.87-23.73,0,20.61,0,20.61L647,332.2Z"/><polygon class="cls-10" points="466.28 309.17 458.24 297.58 664.43 371.56 665.15 383.04 466.28 309.17"/><polygon class="cls-11" points="452.55 298.72 460.04 298.72 704.81 386.55 697.32 386.55 452.55 298.72"/><polygon class="cls-12" points="442.85 292.56 451.08 291.79 695.85 379.62 687.62 380.39 442.85 292.56"/><polygon class="cls-10" points="508.12 304.2 501.39 295.26 667.23 339.71 673.61 348.19 508.12 304.2"/><polygon class="cls-11" points="479.32 292.46 494.88 292.46 679.81 340.86 663.89 340.86 479.32 292.46"/><polygon class="cls-12" points="469.33 286.3 476.83 286.3 662.18 334.69 652.14 335.01 469.33 286.3"/><polygon class="cls-13" points="333.33 136.71 456.35 -126.36 456.35 -143.35 215.78 -143.35 -13.67 -4.81 -13.67 110.78 333.33 136.71"/><polygon class="cls-10" points="376.13 354.79 379.86 345.85 452.39 433.68 446.65 447.43 376.13 354.79"/><polygon class="cls-11" points="374.76 347 379.86 347 452.39 434.83 447.29 434.83 374.76 347"/><polygon class="cls-12" points="374.76 340.84 379.86 340.84 452.39 428.67 447.29 428.67 374.76 340.84"/><polygon class="cls-10" points="457.43 358.74 461.16 349.8 587.41 433.68 581.66 447.43 457.43 358.74"/><polygon class="cls-11" points="448.75 347 459.33 347 594.9 434.83 584.07 434.83 448.75 347"/><polygon class="cls-12" points="447.68 340.84 452.78 340.84 588.63 428.67 583.53 428.67 447.68 340.84"/><path class="cls-8" d="M313.42,274.54c2.42-.45,10.15-.24,14-.09v-6.64s-28.12,1.91-58.51,3.61c-51.13,2.86-85.85,15.72-85.85,15.72L-4.25,378.94v49.72H382.41s-71.8-140.25-75.22-147.47C304.64,275.82,310.15,275.15,313.42,274.54Z"/><path class="cls-9" d="M315.09,295.58s-2.51-7,16.56-6.17l-10.44-13.93s-15.88-2-12.11,5.1C314.07,289.9,315.09,295.58,315.09,295.58Z"/><path class="cls-4" d="M310.17,279.92c-3.6-6.21,17.28-3.61,17.28-3.61v-1.86c-3.88-.14-11.61-.36-14,.09-3.27.61-8.78,1.27-6.23,6.66,3.42,7.22,75.22,147.47,75.22,147.47h13.92Z"/><g class="cls-14"><path class="cls-15" d="M416.65,291.16c-1.4-.05-2.93-.05-4.68-.07-17.12-.14-36-4.62-53-1.83-7.43,1.22-33.05-5.84-33.05,5.47-.39,3.83,30.37,51.46,40.92,65.93,2.6,3.57,5.33,7.25,9.21,9.35,5.08,2.76,115.77,4.25,127.94.91,1.48-.41,3.07-1,3.87-2.29,1.38-2.25-.31-5.09-2-7.09-10.34-12-52.8-47.12-61.57-55C436.41,299.62,427.71,291.59,416.65,291.16Z"/></g><polygon class="cls-16" points="376.21 355.19 353.23 321.29 314.98 271.71 314.98 269.44 355.6 308.81 376.21 355.19"/><polygon class="cls-17" points="516.02 146.48 454.62 136.71 429.12 136.71 367.71 146.48 355.6 176.65 355.6 312.65 528.14 312.65 528.14 176.65 516.02 146.48"/><polygon class="cls-4" points="359.04 267 359.04 176.65 357.32 172.36 355.6 176.65 355.6 267 355.6 271.99 355.6 276.98 393.83 276.98 393.83 267 359.04 267"/><polygon class="cls-4" points="524.25 267 524.25 176.65 525.97 172.36 527.69 176.65 527.69 267 527.69 271.99 527.69 276.98 489.46 276.98 489.46 267 524.25 267"/><polygon class="cls-18" points="393.86 312.65 429.12 357.69 454.62 357.69 463.27 357.29 491.5 312.65 393.86 312.65"/><polygon class="cls-16" points="355.6 312.65 376.21 355.19 429.12 357.69 393.86 312.65 355.6 312.65"/><polygon class="cls-12" points="528.14 312.65 491.5 312.65 463.27 357.29 507.52 355.19 528.14 312.65"/><rect class="cls-19" x="355.59" y="286.3" width="172.54" height="26.35"/><rect class="cls-18" x="355.59" y="308.81" width="172.54" height="3.84"/><rect class="cls-19" x="396.34" y="306.24" width="91.06" height="6.18"/><rect class="cls-20" x="420.72" y="294.73" width="42.29" height="16.5"/><rect class="cls-21" x="425.58" y="295.72" width="4.73" height="14.52"/><rect class="cls-21" x="453.43" y="295.72" width="4.73" height="14.52"/><rect class="cls-17" x="405.13" y="290.2" width="73.47" height="4.53"/><rect class="cls-17" x="405.13" y="311.23" width="73.47" height="2.38"/><rect class="cls-21" x="435" y="299.12" width="13.74" height="6.37"/><rect class="cls-22" x="361.97" y="166.31" width="159.79" height="88.4" rx="14.03" ry="14.03"/><path class="cls-23" d="M436.68,190.23H405.81q-20,10.21-39.6,21.31v21a7.47,7.47,0,0,0,7.47,7.47h19.93c14.07-8.8,28.46-17,43.06-24.83Z"/><path class="cls-24" d="M436.68,215.14c-14.61,7.8-29,16-43.06,24.83h43.06Z"/><path class="cls-24" d="M366.21,190.23v21.31q19.59-11.08,39.6-21.31Z"/><path class="cls-24" d="M436.68,175.12v-4.79h-63a7.47,7.47,0,0,0-7.47,7.47v6.62h51.16Q427,179.67,436.68,175.12Z"/><path class="cls-23" d="M436.68,175.12q-9.71,4.55-19.32,9.3h19.32Z"/><path class="cls-23" d="M447,190.23V209.7q19.61-10.14,39.63-19.47Z"/><path class="cls-24" d="M517.52,190.23H486.68q-20,9.38-39.63,19.47V240h16.3c17.43-10.24,35.73-18.8,54.18-27Z"/><path class="cls-23" d="M463.34,240H510a7.47,7.47,0,0,0,7.47-7.47V213C499.07,221.18,480.77,229.73,463.34,240Z"/><path class="cls-23" d="M447,170.33h0Z"/><path class="cls-23" d="M510,170.33H447v14.08H499.2q9.05-4.15,18.15-8.21A7.47,7.47,0,0,0,510,170.33Z"/><path class="cls-24" d="M499.2,184.43h18.32v-6.62a7.49,7.49,0,0,0-.17-1.59Q508.25,180.28,499.2,184.43Z"/><rect class="cls-25" x="429.93" y="147.04" width="23.86" height="14.28" rx="3.42" ry="3.42"/><path class="cls-21" d="M384.52,291h1.72a17.54,17.54,0,0,1,17.54,17.54v3.26a4.13,4.13,0,0,1-4.13,4.13H371.11a4.13,4.13,0,0,1-4.13-4.13v-3.26A17.54,17.54,0,0,1,384.52,291Z"/><path class="cls-21" d="M497.5,291h1.72a17.54,17.54,0,0,1,17.54,17.54v3.26a4.13,4.13,0,0,1-4.13,4.13H484.09a4.13,4.13,0,0,1-4.13-4.13v-3.26A17.54,17.54,0,0,1,497.5,291Z"/><polygon class="cls-26" points="315.77 270.2 355.6 308.81 355.6 176.65 315.77 205.29 315.77 270.2"/><polygon class="cls-27" points="315.77 205.29 322.42 191.1 367.71 146.48 355.6 176.65 315.77 205.29"/><path class="cls-23" d="M327.45,220q-2.88,3-5.67,6v14.39q2.79-2.33,5.67-4.57Z"/><path class="cls-28" d="M321.78,240.38v.16l5.67,1.42V235.8Q324.57,238,321.78,240.38Z"/><path class="cls-28" d="M327.45,206.22l-5.67,3.4V226q2.79-3.06,5.67-6Z"/><path class="cls-28" d="M320.22,210.55,317,212.49v18.92q1.6-1.87,3.24-3.7Z"/><path class="cls-23" d="M320.22,227.71q-1.64,1.83-3.24,3.7v7.93l3.24.81Z"/><path class="cls-23" d="M337.65,209.89q-4.4,4.15-8.64,8.45V234.6q4.25-3.26,8.64-6.38Z"/><path class="cls-28" d="M329,234.6v7.75l8.64,2.17v-16.3Q333.26,231.34,329,234.6Z"/><path class="cls-28" d="M337.65,200.1,329,205.28v13.05q4.24-4.31,8.64-8.45Z"/><path class="cls-28" d="M350.89,192.17l-11.69,7v9.27q5.75-5.36,11.69-10.52Z"/><path class="cls-23" d="M350.89,197.92q-5.93,5.17-11.69,10.52v18.69q5.77-4.05,11.69-7.93Z"/><path class="cls-28" d="M339.21,227.13v17.78l11.69,2.93V219.2Q345,223.09,339.21,227.13Z"/><path class="cls-29" d="M176.55,316.59V301.41h-8.36s-2-71.89,34.55-112.3,67.47-54.89,116.92-54.89v-6.13H255.13S212.56,144.47,185,182.75c-31.18,43.22-36.14,94.47-36.14,119.86h-7.44v14Z"/><path class="cls-30" d="M165,320.69V304.34h-9s-2.1-77.41,37.21-120.92,81-59.11,134.29-59.11v-6.6H249.57S203.74,135.35,174,176.57C140.44,223.11,135.1,278.3,135.1,305.64h-8v15.05Z"/><path class="cls-31" d="M150,335.43V316.75H139.71s-2.4-88.46,42.52-138.18S274.84,111,335.68,111v-7.54h-89s-52.38,20.16-86.35,67.26C122,223.92,115.87,287,115.87,318.22h-9.15v17.2Z"/><path class="cls-32" d="M130.23,354.45V332H117.87S115,225.71,169,166,280.23,84.82,353.33,84.82V75.76H246.41S183.47,100,142.65,156.57c-46.09,63.9-53.43,139.67-53.43,177.21h-11v20.67Z"/><path class="cls-33" d="M105.3,370.23v-26H91s-3.34-123.15,59.19-192.37,128.93-94,213.63-94V47.32H239.91S167,75.38,119.69,141c-53.41,74-61.9,161.84-61.9,205.33H45v23.95Z"/><path class="cls-34" d="M71.11,392.06V361.37H54.21s-3.94-145.35,69.86-227,152.16-111,252.14-111V10.95H230S143.92,44.07,88.1,121.46C25.07,208.85,15,312.47,15,363.8H0v28.26Z"/><path class="cls-35" d="M24,418.29V381.87H3.92S-.76,209.39,86.81,112.45,275.76-19.25,394.39-19.25V-34H212.5S110.37,5.35,44.13,97.18c-74.8,103.69-86.7,226.66-86.7,287.57H-60.41v33.54Z"/><path class="cls-36" d="M-60.78,537.11V481.55H-91.38s-7.14-263.12,126.46-411S294.37-130.34,475.34-130.34v-22.44H226.81S71-92.82-30,47.27C-144.13,205.46-162.28,393-162.28,486h-27.23v51.16Z"/><polygon class="cls-12" points="333.33 136.71 350.89 124.95 475.34 -130.34 456.35 -130.14 333.33 136.71"/><polygon class="cls-37" points="569.35 267.36 569.35 121.18 637.47 80.16 637.47 279.39 569.35 267.36"/><rect class="cls-4" x="372.51" y="264.06" width="25.5" height="15.87" rx="1.86" ry="1.86"/><rect class="cls-38" x="375.13" y="265.69" width="20.26" height="12.61" rx="1.86" ry="1.86"/><circle class="cls-39" cx="388.83" cy="271.99" r="4.99"/><circle class="cls-40" cx="379.64" cy="271.99" r="2.5"/><rect class="cls-4" x="485.72" y="264.06" width="25.5" height="15.87" rx="1.86" ry="1.86" transform="translate(996.95 543.98) rotate(180)"/><rect class="cls-38" x="488.34" y="265.69" width="20.26" height="12.61" rx="1.86" ry="1.86" transform="translate(996.95 543.98) rotate(180)"/><circle class="cls-39" cx="494.9" cy="271.99" r="4.99"/><circle class="cls-40" cx="504.09" cy="271.99" r="2.5"/><polygon class="cls-12" points="357.02 172.83 317.19 202.27 315.77 205.29 355.6 176.65 357.02 172.83"/></g></g></g></svg>