<svg xmlns="http://www.w3.org/2000/svg" xmlns:xlink="http://www.w3.org/1999/xlink" viewBox="0 0 460.42 410.43"><defs><style>.cls-1{fill:none;}.cls-2{fill:#68c8c9;}.cls-3{clip-path:url(#clip-path);}.cls-4{fill:#9d474e;}.cls-5{fill:#59595b;}.cls-6{fill:#3a3b3d;}.cls-7{fill:#939392;}.cls-8{fill:#f1f1e9;}.cls-9{fill:#80353e;}.cls-10{fill:#fff;}.cls-11{fill:#127ea3;}.cls-12{fill:#115d74;}</style><clipPath id="clip-path"><rect class="cls-1" x="0.27" y="49.81" width="458" height="351.18"/></clipPath></defs><title>31</title><g id="Шар_2" data-name="Шар 2"><g id="Шар_1-2" data-name="Шар 1"><rect class="cls-2" width="460" height="410"/><g class="cls-3"><path class="cls-4" d="M405.34,286.82C401,309,393.61,331.2,380.93,345.66L152.84,363.51,116,331"/><polygon class="cls-5" points="360.45 214.59 351.34 170.09 300.61 183.1 315.57 228.28 360.45 214.59"/><path class="cls-5" d="M351.34,170.09s5.84-2.18,3.51-3.56S295.83,181,297.37,182a27.05,27.05,0,0,0,5.52,2.07"/><path class="cls-6" d="M338.07,175.26l1-.47,2.63-1.18c2.19-1,5.14-2.18,8.05-3.42,1.46-.61,2.93-1.24,4.21-1.91a4.86,4.86,0,0,0,.83-.53s0-.1,0,0a.25.25,0,0,0,0,.12l0-.06,0-.13a1.16,1.16,0,0,0-.18-.35,2,2,0,0,0-1.47-.55,16.63,16.63,0,0,0-2.82.17l-1.08.14s.37-.15,1-.35a13.32,13.32,0,0,1,2.86-.58,2.5,2.5,0,0,1,2.06.64,2.3,2.3,0,0,1,.35.59l.05.12,0,.07a.75.75,0,0,1,0,.26.92.92,0,0,1-.25.5,4.73,4.73,0,0,1-1,.74,38.09,38.09,0,0,1-4.26,2.08c-2.95,1.24-6,2.28-8.23,3-1.14.36-2.11.61-2.77.8S338.07,175.26,338.07,175.26Z"/><path class="cls-6" d="M314,176.37l-5.76,1.94c-1.73.6-3.75,1.26-5.87,2.08a34.12,34.12,0,0,0-3.19,1.38,5.41,5.41,0,0,0-.74.42,1.32,1.32,0,0,0-.26.22s0,.05,0-.06a.36.36,0,0,0-.07-.24,1.91,1.91,0,0,0,.63.13l.89,0a57,57,0,0,0,7,0c2.24-.13,4.33-.36,6.13-.6l6-.9s-.57.2-1.6.5-2.48.73-4.27,1.1a44.55,44.55,0,0,1-6.18.94,41.88,41.88,0,0,1-7.17,0l-.91-.09a2.26,2.26,0,0,1-1.1-.34.91.91,0,0,1-.2-.24.77.77,0,0,1-.07-.4.88.88,0,0,1,.23-.46,2.22,2.22,0,0,1,.44-.37,7,7,0,0,1,.85-.46,33.42,33.42,0,0,1,3.32-1.28c2.18-.72,4.22-1.33,6-1.8C311.67,176.9,314,176.37,314,176.37Z"/><path class="cls-7" d="M351.34,170.09l.46,1.75c.27,1.13.7,2.72,1.14,4.65s1,4.17,1.52,6.58,1.07,5,1.61,7.58,1.05,5.17,1.5,7.6.84,4.71,1.19,6.66.58,3.58.77,4.72l.27,1.8-.46-1.75c-.27-1.12-.7-2.72-1.14-4.64s-1-4.17-1.51-6.59-1.07-5-1.62-7.58-1-5.17-1.49-7.6-.84-4.71-1.19-6.65-.59-3.59-.78-4.73Z"/><path class="cls-6" d="M300.61,183.1l.65,1.65c.39,1.06,1,2.55,1.65,4.38s1.44,3.94,2.23,6.23,1.62,4.73,2.45,7.18,1.6,4.91,2.32,7.22,1.36,4.49,1.93,6.34,1,3.43,1.29,4.52l.47,1.72-.66-1.65c-.39-1.06-1-2.56-1.65-4.38s-1.44-3.94-2.23-6.23-1.62-4.74-2.44-7.18-1.61-4.92-2.33-7.23-1.36-4.49-1.93-6.34-1-3.42-1.29-4.51Z"/><polygon class="cls-5" points="271.33 239.24 260.93 175.56 206.94 187.89 229.63 252.93 271.33 239.24"/><polygon class="cls-5" points="260.93 175.56 264.62 171.08 201.69 186.56 206.94 187.89 260.93 175.56"/><path class="cls-6" d="M264.62,171.08c-.55.81-1.12,1.59-1.69,2.38s-1.16,1.56-1.75,2.34l-.06.08-.12,0c-3.72,1-7.47,1.93-11.24,2.74l-2.83.59c-.94.2-1.9.36-2.84.54-1.89.36-3.8.67-5.71.93,1.84-.6,3.7-1.14,5.56-1.63.94-.25,1.86-.52,2.8-.75l2.81-.7c3.75-.9,7.51-1.73,11.3-2.41l-.18.11c.65-.72,1.28-1.45,1.95-2.15S263.94,171.76,264.62,171.08Z"/><path class="cls-6" d="M201.69,186.56c.9.13,1.78.3,2.67.46s1.77.35,2.66.53h-.15c3.56-1,7.15-1.85,10.75-2.63l2.71-.56c.9-.19,1.81-.34,2.72-.51q2.72-.53,5.47-.88-2.66.85-5.32,1.58c-.9.24-1.78.5-2.68.72l-2.69.67c-3.58.86-7.18,1.66-10.82,2.3h-.15c-.87-.27-1.73-.51-2.59-.8S202.55,186.88,201.69,186.56Z"/><path class="cls-6" d="M206.94,187.89l.92,2.32c.56,1.49,1.4,3.6,2.35,6.16s2.07,5.53,3.21,8.74L217,215.18l3.45,10.11c1.11,3.23,2.07,6.27,2.93,8.86s1.51,4.77,2,6.29l.73,2.4-.92-2.33c-.56-1.48-1.4-3.6-2.35-6.15s-2.07-5.53-3.21-8.75L216,215.55l-3.45-10.11c-1.11-3.23-2.07-6.27-2.93-8.86s-1.51-4.78-2-6.29Z"/><path class="cls-7" d="M270.28,232.8l-.5-2.45c-.29-1.55-.76-3.77-1.24-6.45s-1.09-5.78-1.66-9.13l-1.78-10.5-1.65-10.52c-.54-3.35-.95-6.5-1.35-9.19s-.66-4.95-.87-6.52l-.3-2.48.5,2.45c.29,1.55.76,3.77,1.24,6.45s1.09,5.78,1.66,9.13l1.78,10.5,1.65,10.52c.53,3.35.95,6.5,1.34,9.19s.66,4.95.87,6.52Z"/><polygon class="cls-5" points="195.23 261.15 185.47 228.28 147.09 241.98 157.5 277.58 195.23 261.15"/><polyline class="cls-5" points="185.47 228.28 186.57 224.48 147.09 241.98"/><path class="cls-6" d="M186.57,224.48c-.1.66-.24,1.31-.37,2s-.27,1.3-.42,1.94v-.2c.67,2,1.32,3.94,1.94,5.93s1.21,4,1.78,6,1.12,4,1.63,6,1,4,1.44,6.09q-1.12-2.91-2.1-5.87c-.68-2-1.31-4-1.92-5.93s-1.2-4-1.77-6-1.1-4-1.61-6l0-.11,0-.09c.21-.62.43-1.24.67-1.86S186.31,225.09,186.57,224.48Z"/><path class="cls-6" d="M185.47,228.28a13.12,13.12,0,0,1-1.41.92,28.66,28.66,0,0,1-6.69,2.75,12.74,12.74,0,0,1-1.63.34,14.33,14.33,0,0,1,1.42-.92,28.77,28.77,0,0,1,6.68-2.75A13.11,13.11,0,0,1,185.47,228.28Z"/><path class="cls-8" d="M106.51,335.35l3.8-10,298.6-62.26c-.85,7.65-2,15.68-3.57,23.73"/><path class="cls-9" d="M110.31,325.35l15.82-58.56,291.49-69.5a1.89,1.89,0,0,1,2.28,1.5,2,2,0,0,1,0,.85l-1,4.82a9.57,9.57,0,0,1-2.73,5.06l-5.14,4.92s1.71,29.18-3.22,57.06"/><ellipse class="cls-10" cx="356.47" cy="307.68" rx="4.08" ry="4.29"/><ellipse class="cls-10" cx="374.06" cy="305.8" rx="4.08" ry="4.29"/><ellipse class="cls-10" cx="391.65" cy="303.91" rx="4.08" ry="4.29"/><ellipse class="cls-10" cx="302.89" cy="314.56" rx="4.08" ry="4.29"/><ellipse class="cls-10" cx="320.48" cy="312.68" rx="4.08" ry="4.29"/><ellipse class="cls-10" cx="338.07" cy="310.79" rx="4.08" ry="4.29"/><ellipse class="cls-10" cx="327.8" cy="264.28" rx="4.08" ry="4.29"/><ellipse class="cls-10" cx="362.48" cy="257.01" rx="4.08" ry="4.29"/><ellipse class="cls-10" cx="379.82" cy="253.37" rx="4.08" ry="4.29"/><ellipse class="cls-10" cx="397.16" cy="249.73" rx="4.08" ry="4.29"/><ellipse class="cls-10" cx="345.14" cy="260.64" rx="4.08" ry="4.29"/><ellipse class="cls-10" cx="241.28" cy="283.06" rx="4.08" ry="4.29"/><ellipse class="cls-10" cx="275.96" cy="275.79" rx="4.08" ry="4.29"/><ellipse class="cls-10" cx="293.3" cy="272.15" rx="4.08" ry="4.29"/><ellipse class="cls-10" cx="310.64" cy="268.51" rx="4.08" ry="4.29"/><ellipse class="cls-10" cx="258.62" cy="279.42" rx="4.08" ry="4.29"/></g><path class="cls-11" d="M439.43,334.65a20.2,20.2,0,0,0-16.67,3.65c-16.08,12.21-39.5,9-53.07-5.8-3.76-4.11-7.2-9.27-12.4-10.56-3.78-.93-7.68.42-11.29,1.94-13.63,5.73-27,14.19-41.62,13.69-8.8-.3-17.22-3.89-25.95-5.08-17-2.31-33.85,4.53-50.89,6.61s-37.43-2.9-44.37-19.93c-1.27-3.11-2.09-6.61-4.38-8.93a13,13,0,0,0-7-3.23c-14.42-2.86-29.15,2.71-42.14,10.09s-25.12,16.69-38.85,22.24c-5.65,2.29-11.77,3.93-17.68,2.25-4.67-1.19-8.56-5.41-10.32-11.2a8.45,8.45,0,0,0-3.31-4.67,15.92,15.92,0,0,0-12.38-2.87c-6.15,1.11-9.91,1.74-19.2,7.5-7.43,4.61-18.07,10-23.49,17.82H1.05S.42,363.66.42,365.42H.6c-.54,14.91.45,30.21.45,45H460.42V348.17C448.43,346.17,451.27,337.31,439.43,334.65Z"/><path class="cls-12" d="M4.8,347.65c-.42.05-1,.5.29-1.2,0,.59,1-.46,0,1.41,1.18-1.34-.07-.59,1.18-1.87.1.13-.32.65-.07.66.23-.26,1.61-1.36,1.46-1.62-1,.71-.45.1.47-.74a24,24,0,0,1,2.78-2.11c-.23-.31,1-1.33,2.25-2.2s2.48-1.68,2.11-1.87c1.17-.57,1.21-.58,1.56-.59,0-.19.46-.39.9-.59.46-.64-1.43.36-.29-.42.31.36,1.78-1.13,2-.95a8.21,8.21,0,0,0-1.22,1.08c1.44-.81,1.58-1.16,2.66-1.82.19.05.92-.21,1-.46-.61.31-1,.44-1.13.24-1.62.84-1.89,1.29-2.8,1.62,1.28-.76.16-.67,1.08-1.3,1.76-1-.1.56,1.65-.42q-.34-.28,1.17-1.17c0-1-4.9,2.79-6.52,3.86-.7.44-.11-.28-.82.72-2.13,1-1.14.69-2.13,1.71-.76.2-1.87,1.5-2.81,1.79-.85.78.84-.29-.59,1a3.33,3.33,0,0,0-1.07.49c-.72,1.4.55-.42.75,0-2.55,2-.37.9-1.6,2.3-.7.32-.11-.21-.83,0,.65-.5,1-.9,1.06-1.3a10.41,10.41,0,0,0-1.62,1.57c.36-.18,0,.28-.42.87A18.82,18.82,0,0,0,4,348.07l.13-.07c-.24.05-.3.11,0,.22h0l0,0A8.24,8.24,0,0,0,4.8,347.65Z"/><path class="cls-12" d="M22.07,332.72c2.8-1.69,2.47-1.12,4.13-2.51l.21.32c.82-.76,3.29-2.06,2.94-2.42.27.43,1.85-.85,1.4.21a19,19,0,0,1,2.64-1.88,6.73,6.73,0,0,0-2,.92c-.38-.46,1.84-1.69,4.09-2.67-.84.72.19.06.67.13.94-.44-.22-.58,1.85-1.16-.28.25-1.11.57-.85.75l1.66-.2c1.79-.62-1.24,0,.36-.54A23.36,23.36,0,0,0,42.9,323c0-.22-.48-.25-1.15-.13-.17-.26,1.83-.5,2.56-.7,1.68-.22-.87.33-1.52.45.25.25,1.86-.14,1.73.31-.55.3-2.09.6-1.91.94s2.76-1.1,1.57-.2a13.08,13.08,0,0,1,3.08-.58,4.13,4.13,0,0,1-2.37-.77c1.1-.13,1.15,0,.62.28a4.66,4.66,0,0,1,2.65-.3c.39-.13,2-.9-.14-.64.4-.43.8-.25,2.18-.23.26.28-.34.34-.49.53,1-.24,1.37,0,2.69.2.64-.64,1.5.5,2.16.08a13.37,13.37,0,0,1,2,.93c.71.38,1.26.68,1.11.33A37.29,37.29,0,0,1,61,326.09c1.08,1.08,1.59,2.24,1.23,2.07.53,1,.77,1.62,1,1.9a2.71,2.71,0,0,0,.62.6,26.23,26.23,0,0,0,.77,2.7c-.14-.93.05-.3.39.5s.92,1.75,1.2,1.58a18.79,18.79,0,0,0,1.92,2.6c.92.66-.4-.57.56,0,1.14,1.05,1.48,1.07,3.38,1.95a2.66,2.66,0,0,0,.84.8,15.42,15.42,0,0,0,1.51.78c1.48.15-.29-.48,0-.66,2.49.75,5.71.5,6.92-.27a9.39,9.39,0,0,0,3.49-.65c-.06.13-.46.26-.41.38.93-.31,1.15-.61,2.37-1,.21.15-.38.36-.35.53,1.58-.58,2.35-1.39,2.93-1.07,1-.4.48-.57,1.83-1.05,1,.24,5-2.33,6.5-2.37-.21-.32.9-.88,2-1.81.33.35,2.93-1.82,2-.71,6.94-4.14,11.77-7.26,15.28-9,.52-.36.25-.44.24-.61-1.44.71,1-.75.6-.08,1.68-1.34,3.5-2.2,4.8-3.5a46.44,46.44,0,0,0,6.36-3.24c2.46-1.4,4.95-2.86,6.43-3.75.42-.09.65,0,.72.21,1.2-.78,3.07-1.67,3.1-2.17,1.3-.12.29.23,2-.73.29.37,2.69-.59,5.08-1.42s4.74-1.56,4.69-1.35c.57-.18.24-.2,0-.13a66.24,66.24,0,0,1,12-1.6c1,0,2,0,3,0s2,.17,3,.3a23.24,23.24,0,0,1,6.1,1.62c0-.13-.61-.34-1-.49a11.35,11.35,0,0,1,3.94,1.95,10.13,10.13,0,0,1,2.57,3.2c1.29,2.37,1.74,5,3,7.88.28.23.43.08,1.56,2.25-.23-.17-.46-.35-.57-.21.41.54.73.86.86.67a23,23,0,0,0,10.23,10.21c-1.28-.66-.51.08.51.62s2.14,1.14,1.29.61a27.49,27.49,0,0,0,6.64,2.6c1.23.32,2.45.61,3.6.95a19.4,19.4,0,0,1,3.17,1,110.39,110.39,0,0,0,11.77.44,95.58,95.58,0,0,0,14.65-1.85c.13.21-.56.4-.37.61,1.31-.29.68-.64,1.35-1,4.26-.56,6.79-2,9.36-1.55,1.17-.94,5.9-1.6,6.66-1.41.7-.19,0-.23-.59-.15,1.5-.93,3.73-.32,4.06-1,5.68-.4,12.93-1.63,19.35-.43-.73-.39,2.77.22,5.16.94-.1-.75,6.42,1.52,9.18,2.29a77,77,0,0,0,7.7,1.29,40.17,40.17,0,0,0,12.52.37c5.32-.9,9.8-3.2,13.44-4.5-.5.19,1.51.06,1-.41,2.42-.6,5.71-2.69,7.91-3.17a28.1,28.1,0,0,1,6.79-3.08c3.83-1.77,7.57-3.81,11.66-4.47a11.18,11.18,0,0,1,6.09.66,16.71,16.71,0,0,1,5.19,3.64c1.54,1.51,2.93,3.18,4.34,4.8a51.66,51.66,0,0,0,4.45,4.54,40.89,40.89,0,0,0,34.26,9.54,34.64,34.64,0,0,0,11.74-4.48c1.88-1.14,3.57-2.52,5.5-3.78a21.32,21.32,0,0,1,6.25-2.6,20.87,20.87,0,0,1,8.69-.22c.75.15,1.46.35,2.19.53s1.44.51,2.16.8a16,16,0,0,1,3.94,2.61c2.38,2.2,3.95,4.91,6,6.57a13.54,13.54,0,0,0,3.29,2.07c.59.21,1.14.47,1.74.67l1.85.53c-.48.47-2.13.25-4-.59a15.3,15.3,0,0,1-5-4.12,37.44,37.44,0,0,0-5-5.28,15.35,15.35,0,0,0-6.79-2.92,22.13,22.13,0,0,0-13.84,1.88c-1,.72-2,1.43-3,2.27s-2.16,1.55-3.35,2.25a49.44,49.44,0,0,1-7.64,3.34c-1.11.32-1.58.61-1.39.84a31.88,31.88,0,0,1-10,1.23,52.09,52.09,0,0,1-9.45-1.12,35.56,35.56,0,0,1-8.13-2.36s.69,0,.54,0a20.62,20.62,0,0,0-2-.88c-.9-.39-2-1-3.07-1.52a31.7,31.7,0,0,1-3.18-2,15,15,0,0,1-2.34-2.18c-1.25-.58-2.43-2-3.76-3.29a35.29,35.29,0,0,0-3.79-4,4.69,4.69,0,0,1-.53-1.13c-.16,0-1.87-1.38-.83-.69a13.91,13.91,0,0,0-7.62-4.63c-3-.5-6.39.46-9.7,1.68-1,.62-1.62,1.36-2.86,1.39-1.31,1.51-9,4.1-11.43,5.66a2.92,2.92,0,0,1,1.33-.91,26.54,26.54,0,0,1-3.5,1.34c.59-.1-1.94,1.46-2.93,1.29-.11.7-3.09,1.09-2.79,1.58-2,1.16-3.23.65-4.7,1.15-1.06.34-1.89,1.54-3.56,1.05-.94.27-.18.5-.87.77-3.4.47-3.64.76-6.3,1.07.16-.56-1.8.27-.6-.35a15.57,15.57,0,0,1-4.14.25,45,45,0,0,1-4.84-.66c.76.8-1.38-.12-1.57.42A15.12,15.12,0,0,1,292,336.5c-1.25-.28-.13.41.49.52-.46.21-1.24-.66-3.06-.87,2.1.14-.51-.18-.47-.66-1.63-.41-2.43.15-2.55-.62-1-.25-.67.2-2.05-.22.63,0,.21-.16,0-.4-.26.15-3.12-.24-1.56.33-1-.1-2.9-.51-4.53-.78a22.41,22.41,0,0,1-3.13-.59c-1-.07-.63.33-2,.18-1.29-.5-1.88-.29-4.13-.26,0-.24-.67-.27-.59-.51-1.54.19.54.24.08.52l-2.06.14c.86-.6-2.08.32-1.64-.39-4,.73-2,.75-5.67.73-.86.27-3.53.77-6.38,1.34s-5.89,1.17-7.48,1.36c-.59.73-2.85.76-3.9,1.56-1.62.26-5.75,1.14-10.42,1.68l-.1-.39c-1,.44-1,.1-2.1.19-.55.51,1.7-.15,1.16.36-2-.05-4.38.14-6.63.28s-4.42.24-6,.31c-1-.38-3.37-.74-4.21-.32a32.46,32.46,0,0,0-4.53-1c-1.73-.3-3.3-.84-3.72-1.36.33.35-2.05.26-2.55-.54-1.36-.28-1.59-.43-1.1.18-1.05-.71-1.75-1.25-.36-1a21.82,21.82,0,0,1-2.59-.69c-1-.37-2-.87-3.06-1.37s-2-1.25-2.78-1.88a14,14,0,0,1-1.83-1.92c0,.36-2.41-1.91-1.41-.79-.08.47-1-1.43-1.28-1.08-.81-1.24,2.16,1.45,2.44,1.18a8.18,8.18,0,0,0-1.41-1,6.1,6.1,0,0,1-1.87-1.91c-.06.11.38.62.65,1-.37.2-2-2.26-1.65-2.41a37,37,0,0,1-2.23-3.32c-.67-1.33-.52-1.59-1.09-2.78a19.45,19.45,0,0,1-1.4-2.68c.48,1.17-.33-2.46-.81-2.64.07-.32.37.26.64.91.2-.33-.88-2-1-2-.75-1.48.56.62.54.26a4.69,4.69,0,0,0-1.35-1.77c-.9-1.29,1,.48-.44-1.28-.05.33-.34-.11-.79-.58a2.27,2.27,0,0,0-1.51-.89c.35.65,2,1.3,1.59,1.63a11.72,11.72,0,0,0-3.56-2.37,3.2,3.2,0,0,0,.93.65c-.89-.29-2.65-.85-4.34-1.22-.86-.18-1.68-.39-2.35-.58a6.16,6.16,0,0,1-1.42-.45c.1.12-.2.1-.51.08a7.77,7.77,0,0,0,1.56.4,7.58,7.58,0,0,1-1.52.4c-1.23-.26-3-.61-2.13-.88-.42,0-.5.12-1,.11.33.33,2,.32,1.64.82-2.44-.56-2.73-.19-2.66-.67-2.64,0,0,.62-2,.35.07-.12-.23-.1-.54-.08,0-.13.61-.17,1-.2-.12-.27-1.77.07-2.12-.08.84.1,0,.42-1,.64s-2.17.47-2,.17c-.59.12-.37.3-.41.47-.66-.19-3.84.93-3.19.13-1.5,1.1-3.9.88-5.88,2.13-1.42-.13-4.34,1.62-4.69,1.07-.94.69-4,1.82-4.59,1.5-2.66,2.21-5.08,2.23-9.56,5.89-.71.31-5.62,3.09-6.79,4.34.68-1.11-1.8.25-2.77.71.24.23.94,0,2.1-.74-1.64,1.21-3.49,2.31-4.85,3.42-1.48.76.3-.65.84-.69-.53-.13-.45,0-.35-.53,0,.35-1.92,1.38-1.53,1.59-2.93,1.56-2.66,1.58-4.38,2.18-.64,1.27-3.1,1.64-3.39,2.69-.45.18-.9.37-.92.56-1.69.59-4.44,1.67-4.65,2.69-.89.36-1.76.67-1.74.21-1,.57-.85.82-.62,1.06-2.71,1.12-4.11,1.61-7.84,3.43,1.83-1.48-2.49,1.08-1.2-.06-1.08.4-1.52.7-1.32.92-1.21,0-2.55.93-4.11,1,.09.48-2.27.73-1.42.74a6.13,6.13,0,0,1-2,.48c.23-.39-.31-.42-1.65-.25a3,3,0,0,1,1.51-.4c-.17-.17-2.92.18-2.55.45-1.34.15-3.58-.86-3.65-.29-.77-.24-1.62-.58-1.5-.87.4.12.49.25,1,.37-.09-.13-.49-.25-.48-.38-.85-.16-1.17-.11-1,.25-1.15-.64-2.35-.69-2.36-1.3-.59-.26-1-.41-1-.19a25.87,25.87,0,0,1-4.38-4.26c-.37-.57-.12-.57-.06-.75-.51-.84-.79-1.23-1-1.34-.45-1,.12-.61-.4-1.82,0,.17-.18-.06-.41-.53s-.47-1.21-.8-1.9c-.63-1.42-1.77-2.58-1.82-3.05-.55.13,0-.18-2.22-1.58,0,.2.81.62,1.31,1-1-.29-2.3-1.56-3.22-2-1.3-.54.32.87-1.56,0,.43,0,.7-.14.58-.5a7.64,7.64,0,0,0-2.35-.69,8.89,8.89,0,0,1-2.35-.54c-1.15.55-2.34.16-3.66.57a27.88,27.88,0,0,1,3.12.1,6.65,6.65,0,0,1-2,.12c-.07.33,2-.07,1.63.4a17.59,17.59,0,0,0-4.37.62,37.09,37.09,0,0,1-3.78.73h-.14c2.31-.85-.74,0,0,0l-.36.13c-1.54.57-4,1.27-6.07,1.81.13.06-.13.2-.42.36a8.09,8.09,0,0,0,2-.68c-.66.69-2.74,1.29-2.57.8-.88.53-.13.62-1.68,1.34-.52-.11.79-.74.67-.95-1.49.71-.35.68-2.19,1.53.07.1.61-.25,1-.42-.92.83-1.67.9-3.15,2-.19-.34-1.24.18-1.79.21-1,.76,1.43-.52.88.36-.65.1-1.47.21-1.38.85-2.34,1.73-3.48,1.35-4.34,2.19C19.8,334.84,23,332.76,22.07,332.72ZM146.83,309.3c.39-.12,1-.32,1-.2-.28.08-.53.27,0,.12,0-.24,1.9-.5,2.55-.62,0-.27-.66-.13-.67-.36.28-.08.54-.26-.05-.13a1.78,1.78,0,0,1-1,.43c0-.07-.46,0-.5.16.56-.14,1.28-.17.59.09C149,308.53,146.85,308.94,146.83,309.3ZM81.06,341.59c3-.19,2-1.51.38-.59.39,0,1-.18,1-.06C82.71,341.21,81.06,341.35,81.06,341.59Zm-14.42-4.1c.28.33.39.55.25.61a12.41,12.41,0,0,0,1.73,1.3c.41.06-.13-.41-.72-.92s-1.24-1.11-1.26-1Zm-6.5-11.3c.55.51.28.54.67,1,.88.63,0-.24-.19-.74A10.56,10.56,0,0,0,62,327.54c-1.19-1.75-1.59-1.45-1.84-1.35Z"/><path class="cls-12" d="M53.94,323.1l-4.09-.38a7.85,7.85,0,0,0,2.7.52C53.61,323.34,54.47,323.42,53.94,323.1Z"/><polygon class="cls-12" points="49.82 322.7 49.74 322.71 49.85 322.72 49.82 322.7"/><path class="cls-12" d="M.78,348.71a4.64,4.64,0,0,1,1.57.12c-.72.31-1.68-.24-1.53.28a11.44,11.44,0,0,1,2.11.11c.06-.2-.25-.48.45-.53a3.06,3.06,0,0,1,.74.09l.15,0,.28-.26.23-.25c-.1-.08-.23,0-.39.1l-.19.16H4.13c-.71-.19-2.43.11-2.86-.1,1.19-.21,2.25,0,2.59-.16-1.57-.07.46-.28-.07-.52C2.23,348,.43,348.08.78,348.71Z"/><path class="cls-12" d="M4.8,389.57c-.42.05-1,.5.29-1.19,0,.59,1-.46,0,1.4,1.18-1.33-.07-.58,1.18-1.87.1.13-.32.65-.07.66.23-.26,1.61-1.35,1.46-1.62-1,.71-.45.11.47-.74a24,24,0,0,1,2.78-2.11c-.23-.31,1-1.33,2.25-2.2s2.48-1.68,2.11-1.86c1.17-.57,1.21-.59,1.56-.6,0-.19.46-.39.9-.58.46-.65-1.43.36-.29-.43.31.36,1.78-1.13,2-.94a8.74,8.74,0,0,0-1.22,1.07c1.44-.8,1.58-1.16,2.66-1.82.19.05.92-.21,1-.46-.61.31-1,.44-1.13.25-1.62.83-1.89,1.28-2.8,1.61,1.28-.76.16-.67,1.08-1.29,1.76-1-.1.56,1.65-.43-.23-.18.16-.58,1.17-1.17,0-1-4.9,2.79-6.52,3.86-.7.45-.11-.27-.82.72-2.13,1-1.14.69-2.13,1.72-.76.2-1.87,1.5-2.81,1.78-.85.79.84-.28-.59,1a3.13,3.13,0,0,0-1.07.49c-.72,1.4.55-.42.75,0-2.55,2-.37.9-1.6,2.3-.7.32-.11-.21-.83,0,.65-.49,1-.9,1.06-1.3a10.48,10.48,0,0,0-1.62,1.58c.36-.19,0,.27-.42.86A20.23,20.23,0,0,0,4,390l.13-.06c-.24,0-.3.11,0,.21h0A8.39,8.39,0,0,0,4.8,389.57Z"/><path class="cls-12" d="M22.07,374.64c2.8-1.69,2.47-1.12,4.13-2.51l.21.32c.82-.76,3.29-2.06,2.94-2.41.27.42,1.85-.86,1.4.21a18.25,18.25,0,0,1,2.64-1.89,7.29,7.29,0,0,0-2,.92c-.38-.45,1.84-1.68,4.09-2.67-.84.72.19.06.67.13.94-.43-.22-.58,1.85-1.15-.28.24-1.11.57-.85.74l1.66-.2c1.79-.62-1.24,0,.36-.54a21.3,21.3,0,0,0,3.69-.72c0-.22-.48-.24-1.15-.13-.17-.26,1.83-.49,2.56-.7,1.68-.22-.87.34-1.52.45.25.26,1.86-.14,1.73.31-.55.3-2.09.6-1.91.94s2.76-1.09,1.57-.2a13.08,13.08,0,0,1,3.08-.58,4.19,4.19,0,0,1-2.37-.76c1.1-.14,1.15,0,.62.28a4.49,4.49,0,0,1,2.65-.3c.39-.14,2-.9-.14-.65.4-.42.8-.25,2.18-.23.26.28-.34.34-.49.53,1-.24,1.37,0,2.69.2.64-.63,1.5.5,2.16.08a15.71,15.71,0,0,1,2,.93c.71.38,1.26.68,1.11.34A37.16,37.16,0,0,1,61,368c1.08,1.08,1.59,2.24,1.23,2.08.53,1,.77,1.62,1,1.9a2.93,2.93,0,0,0,.62.6,27,27,0,0,0,.77,2.7c-.14-.93.05-.31.39.5s.92,1.75,1.2,1.57a18.79,18.79,0,0,0,1.92,2.6c.92.67-.4-.56.56,0,1.14,1.06,1.48,1.08,3.38,1.95a2.66,2.66,0,0,0,.84.8,12,12,0,0,0,1.51.78c1.48.15-.29-.48,0-.66,2.49.76,5.71.51,6.92-.26a9.6,9.6,0,0,0,3.49-.66c-.06.13-.46.26-.41.38.93-.31,1.15-.61,2.37-1,.21.15-.38.37-.35.53,1.58-.58,2.35-1.39,2.93-1.07,1-.4.48-.56,1.83-1.05,1,.24,5-2.32,6.5-2.37-.21-.32.9-.88,2-1.81.33.36,2.93-1.82,2-.7,6.94-4.14,11.77-7.27,15.28-9,.52-.36.25-.44.24-.61-1.44.71,1-.76.6-.08,1.68-1.35,3.5-2.2,4.8-3.5a46.44,46.44,0,0,0,6.36-3.24c2.46-1.4,4.95-2.86,6.43-3.76.42-.09.65,0,.72.21,1.2-.77,3.07-1.66,3.1-2.17,1.3-.11.29.23,2-.73.29.38,2.69-.59,5.08-1.41s4.74-1.56,4.69-1.36c.57-.17.24-.2,0-.12a65.28,65.28,0,0,1,12-1.61c1,0,2,0,3,0s2,.16,3,.3a22.42,22.42,0,0,1,6.09,1.62c0-.14-.61-.35-1-.49a11.1,11.1,0,0,1,3.94,1.95,9.79,9.79,0,0,1,2.57,3.2c1.29,2.37,1.75,5,3,7.88.27.22.42.08,1.55,2.25-.23-.18-.46-.35-.56-.22.41.55.73.86.86.68a23,23,0,0,0,10.23,10.2c-1.29-.66-.51.08.51.62s2.13,1.14,1.29.62a27.75,27.75,0,0,0,6.64,2.6c1.22.31,2.45.61,3.59.94a20.42,20.42,0,0,1,3.17,1,110.51,110.51,0,0,0,11.77.44,94.36,94.36,0,0,0,14.65-1.85c.13.21-.55.4-.37.62,1.32-.3.69-.65,1.36-1,4.25-.57,6.78-2,9.35-1.56,1.17-.94,5.91-1.6,6.66-1.41.71-.19,0-.23-.58-.15,1.49-.92,3.73-.31,4.05-1,5.68-.4,12.94-1.64,19.35-.44-.72-.39,2.78.22,5.17.94-.11-.75,6.41,1.53,9.17,2.3,2.22.58,4.91.86,7.7,1.29a40.53,40.53,0,0,0,12.53.36c5.31-.9,9.8-3.2,13.43-4.5-.5.19,1.52.06,1-.41,2.43-.6,5.72-2.68,7.92-3.16a27.36,27.36,0,0,1,6.79-3.08c3.82-1.77,7.57-3.81,11.66-4.47a11,11,0,0,1,6.08.66,16.75,16.75,0,0,1,5.2,3.64c1.53,1.51,2.93,3.17,4.33,4.8a54.48,54.48,0,0,0,4.45,4.53A40.2,40.2,0,0,0,383,383.82a39.66,39.66,0,0,0,23.87,2.88,34.77,34.77,0,0,0,11.75-4.48c1.88-1.13,3.57-2.52,5.5-3.78a21.59,21.59,0,0,1,6.25-2.6,20.83,20.83,0,0,1,8.68-.22c.76.15,1.46.36,2.2.54s1.44.5,2.15.8a15.69,15.69,0,0,1,4,2.6c2.37,2.2,3.95,4.91,6,6.58a14,14,0,0,0,3.28,2.06c.59.22,1.14.48,1.75.67l1.84.54c-.48.46-2.12.25-4-.6a15.33,15.33,0,0,1-5-4.12,37.41,37.41,0,0,0-5-5.28,15.12,15.12,0,0,0-6.79-2.91,22.07,22.07,0,0,0-13.84,1.88c-1,.71-2,1.42-3,2.26s-2.17,1.55-3.35,2.25a49.86,49.86,0,0,1-7.64,3.34c-1.12.33-1.58.61-1.39.85a32,32,0,0,1-10,1.23,53.12,53.12,0,0,1-9.45-1.13,36,36,0,0,1-8.13-2.35s.69,0,.55-.05a21.1,21.1,0,0,0-2-.88c-.9-.39-1.95-1-3.07-1.52a32.74,32.74,0,0,1-3.17-2,14.52,14.52,0,0,1-2.34-2.18c-1.25-.57-2.43-2-3.77-3.29a35.29,35.29,0,0,0-3.79-4,4.69,4.69,0,0,1-.53-1.13c-.15,0-1.86-1.38-.82-.68a13.9,13.9,0,0,0-7.62-4.64c-3-.5-6.4.47-9.71,1.68-1,.62-1.62,1.36-2.85,1.39-1.31,1.51-9,4.1-11.43,5.66a3,3,0,0,1,1.33-.91,25.83,25.83,0,0,1-3.51,1.34c.6-.1-1.94,1.46-2.92,1.3-.11.7-3.09,1.08-2.8,1.57-2,1.16-3.22.65-4.7,1.16-1.05.33-1.89,1.53-3.56,1-.94.27-.17.5-.86.77-3.41.47-3.65.76-6.3,1.07.15-.56-1.8.28-.61-.35a15.14,15.14,0,0,1-4.14.25,44.75,44.75,0,0,1-4.83-.65c.76.8-1.38-.12-1.58.42a15,15,0,0,1-5.67-1.72c-1.26-.29-.14.41.49.51-.46.21-1.25-.66-3.06-.87,2.1.14-.51-.17-.48-.66-1.62-.41-2.43.15-2.54-.62-1-.24-.67.21-2.05-.21.62,0,.21-.17,0-.4-.25.15-3.11-.25-1.56.33-1-.11-2.89-.52-4.52-.79a22.54,22.54,0,0,1-3.14-.59c-1-.07-.63.33-2,.18-1.28-.5-1.88-.29-4.12-.26,0-.24-.67-.26-.6-.51-1.53.19.54.25.08.52l-2,.14c.85-.6-2.09.32-1.65-.39-4,.73-1.95.75-5.66.74-.86.26-3.54.77-6.39,1.33s-5.88,1.18-7.47,1.37c-.6.72-2.86.75-3.91,1.55-1.61.26-5.75,1.15-10.42,1.68l-.09-.38c-1,.43-1,.1-2.11.19-.54.51,1.71-.15,1.16.36-2-.06-4.38.13-6.62.27s-4.42.25-6,.32c-1-.38-3.36-.74-4.2-.32a31.25,31.25,0,0,0-4.54-1c-1.73-.29-3.29-.84-3.72-1.36.33.35-2,.26-2.55-.54-1.36-.28-1.58-.43-1.09.19-1.05-.71-1.75-1.26-.37-1a24.92,24.92,0,0,1-2.59-.7c-1-.37-2-.86-3.05-1.37s-2-1.25-2.78-1.87a13.45,13.45,0,0,1-1.83-1.93c-.05.36-2.42-1.91-1.42-.79-.07.48-1-1.42-1.28-1.08-.81-1.24,2.17,1.45,2.44,1.18a9,9,0,0,0-1.41-1,6.1,6.1,0,0,1-1.87-1.91c-.06.12.39.63.65,1-.37.2-2-2.25-1.64-2.41a39.12,39.12,0,0,1-2.24-3.31c-.66-1.34-.52-1.59-1.08-2.79a17.81,17.81,0,0,1-1.41-2.67c.48,1.16-.33-2.47-.81-2.64.08-.32.37.26.65.9.19-.33-.89-2-1.06-2-.75-1.47.56.63.54.26a4.59,4.59,0,0,0-1.35-1.77c-.9-1.29,1,.48-.43-1.28-.06.33-.34-.11-.8-.58a2.2,2.2,0,0,0-1.5-.88c.34.64,2,1.3,1.58,1.62a12,12,0,0,0-3.55-2.37,3,3,0,0,0,.92.65c-.89-.28-2.65-.84-4.33-1.21-.86-.19-1.69-.39-2.36-.59a6.09,6.09,0,0,1-1.41-.45c.1.12-.2.11-.52.09a9.66,9.66,0,0,0,1.56.4,9,9,0,0,1-1.52.4c-1.23-.26-3-.62-2.12-.89a8.81,8.81,0,0,1-1,.11c.33.33,2,.32,1.63.82-2.44-.55-2.72-.19-2.65-.67-2.65,0,0,.63-2,.35.08-.12-.22-.1-.54-.08,0-.12.62-.17,1-.2-.12-.26-1.76.07-2.12-.07.84.1,0,.41-1.05.63s-2.17.47-1.95.18c-.6.11-.37.3-.41.46-.66-.19-3.84.93-3.2.13-1.49,1.11-3.9.88-5.88,2.13-1.41-.13-4.33,1.62-4.68,1.08-.95.68-4,1.82-4.6,1.49-2.66,2.21-5.07,2.23-9.56,5.89-.7.31-5.62,3.09-6.78,4.34.68-1.11-1.8.26-2.77.71.24.24.93,0,2.1-.73-1.64,1.21-3.49,2.3-4.85,3.41-1.49.76.29-.64.84-.69-.54-.12-.46,0-.36-.53,0,.35-1.92,1.38-1.53,1.59-2.93,1.56-2.65,1.58-4.37,2.18-.64,1.27-3.11,1.64-3.39,2.69-.45.18-.91.37-.92.56-1.7.59-4.44,1.68-4.66,2.69-.88.36-1.76.68-1.73.21-1,.57-.86.82-.63,1.07-2.71,1.11-4.1,1.6-7.83,3.43,1.82-1.48-2.49,1.08-1.2-.07-1.08.4-1.53.7-1.32.93-1.22,0-2.55.92-4.12,1,.1.49-2.27.73-1.41.74a6.24,6.24,0,0,1-2.06.48c.24-.38-.3-.41-1.64-.24a2.89,2.89,0,0,1,1.5-.4c-.17-.18-2.91.17-2.55.44-1.33.15-3.58-.85-3.65-.29-.76-.24-1.61-.57-1.49-.87a9.47,9.47,0,0,0,1,.38c-.09-.13-.5-.26-.49-.39-.85-.16-1.16-.11-1,.25-1.14-.63-2.34-.68-2.36-1.3-.58-.26-1-.41-1-.19a26.64,26.64,0,0,1-4.38-4.26c-.36-.57-.11-.57-.06-.75-.5-.83-.78-1.23-1-1.34-.44-1,.12-.61-.4-1.82,0,.17-.18-.05-.41-.53s-.47-1.21-.79-1.9c-.63-1.42-1.77-2.58-1.82-3-.56.12,0-.19-2.22-1.58,0,.19.8.61,1.31,1-1.05-.28-2.3-1.56-3.23-2-1.3-.54.33.86-1.56,0,.43,0,.7-.13.58-.5a7.58,7.58,0,0,0-2.34-.69,8,8,0,0,1-2.35-.54c-1.16.55-2.35.16-3.66.57a28,28,0,0,1,3.12.1,6.67,6.67,0,0,1-2,.12c-.08.33,2-.07,1.62.4a17.15,17.15,0,0,0-4.37.63,35.55,35.55,0,0,1-3.78.72h-.14c2.31-.85-.74,0,0,0l-.36.14c-1.53.57-4,1.26-6.07,1.81.14,0-.13.2-.42.35a7.47,7.47,0,0,0,2-.68c-.65.69-2.73,1.29-2.56.8-.88.53-.14.62-1.69,1.35-.52-.11.8-.74.68-1-1.49.71-.35.68-2.2,1.53.08.1.62-.25,1-.42-.91.84-1.67.9-3.14,2-.2-.34-1.24.18-1.79.21-1,.76,1.43-.52.87.36-.64.1-1.46.21-1.37.85-2.35,1.73-3.49,1.35-4.35,2.19C19.8,376.77,23,374.69,22.07,374.64Zm124.76-23.42c.39-.12,1-.32,1-.2-.28.09-.53.28,0,.12,0-.24,1.9-.5,2.55-.62,0-.26-.66-.13-.67-.36.28-.08.54-.26-.05-.12a1.85,1.85,0,0,1-1,.43c0-.07-.46,0-.5.15.56-.14,1.28-.17.59.09C149,350.45,146.85,350.86,146.83,351.22ZM81.06,383.51c3-.19,2-1.51.38-.59.39,0,1-.18,1-.05.24.27-1.41.41-1.41.64Zm-14.42-4.1c.28.33.39.55.26.62a12.53,12.53,0,0,0,1.72,1.3c.41.05-.13-.42-.72-.93s-1.24-1.11-1.26-1Zm-6.49-11.3c.54.51.27.54.66,1,.88.64,0-.23-.19-.73A10.47,10.47,0,0,0,62,369.46c-1.19-1.75-1.59-1.45-1.84-1.34Z"/><path class="cls-12" d="M53.94,365l-4.09-.38a7.62,7.62,0,0,0,2.7.52C53.61,365.27,54.47,365.34,53.94,365Z"/><polygon class="cls-12" points="49.82 364.62 49.74 364.63 49.85 364.64 49.82 364.62"/><path class="cls-12" d="M.78,390.64a4.4,4.4,0,0,1,1.57.12c-.72.31-1.68-.25-1.53.27a10.63,10.63,0,0,1,2.11.12c.06-.2-.25-.49.45-.53a3.65,3.65,0,0,1,.74.08l.15,0,.28-.26c.08-.07.15-.16.23-.24-.1-.08-.23,0-.39.1l-.19.16-.07,0c-.71-.19-2.43.11-2.86-.1,1.19-.21,2.25,0,2.59-.15-1.57-.08.46-.29-.07-.53C2.23,389.88.43,390,.78,390.64Z"/></g></g></svg>