<svg xmlns="http://www.w3.org/2000/svg" width="100" height="100" fill="none"><path d="M48.925 15.882a6.25 6.25 0 0 1-.066-1.68 7.33 7.33 0 0 1 .338-1.667c.177-.562.435-1.095.765-1.584.34-.521.793-.957 1.327-1.276.546-.307 1.158-.477 1.784-.493.58-.006 1.158.056 1.723.187.576.098 1.123.318 1.606.647a2.07 2.07 0 0 1 .619.729c.151.315.209.666.168 1.013-.049.344-.172.673-.36.966s-.436.541-.729.729a3.66 3.66 0 0 1-1.855.6c-.624.038-1.251-.029-1.853-.197-.601-.158-1.172-.417-1.687-.764-.559-.381-1.01-.9-1.309-1.507a3.6 3.6 0 0 1-.295-.971 3.87 3.87 0 0 1-.015-.969 4.74 4.74 0 0 1 .553-1.702 5.12 5.12 0 0 1 1.029-1.35l.137.093c-.31 1.03-.527 2.075-.407 2.975a2.65 2.65 0 0 0 .415 1.152c.234.324.532.598.876.803a6.59 6.59 0 0 0 1.219.579 4.67 4.67 0 0 0 1.307.29 2.99 2.99 0 0 0 1.223-.188c.372-.125.681-.389.863-.736a.97.97 0 0 0-.258-1.114 2.26 2.26 0 0 0-1.333-.546 3.21 3.21 0 0 0-1.471.185 3.79 3.79 0 0 0-1.158.728c-.334.306-.64.64-.917.999a9.12 9.12 0 0 0-.775 1.226c-.475.88-.87 1.848-1.299 2.859l-.165-.013z" fill="#69a744"/><path d="M6.8 54.484c0-21.786 19.335-39.448 43.185-39.448S93.17 32.698 93.17 54.484 73.835 93.932 49.985 93.932 6.8 76.271 6.8 54.485" fill="#009344"/><path d="M52.892 93.517S67.84 66.734 62.65 58.844s-3.737-9.549-3.53-12.665.208-5.606-2.699-14.326-4.153-17.232-4.775-17.025-3.114 0-3.114 0-4.36 6.644-1.245 13.289 6.851 7.89 6.644 15.572-3.737 10.381-.415 19.933-3.531 30.311-3.531 30.311l2.907-.415zm4.983 0s15.987-9.966 16.402-18.063-3.737-8.928 0-17.855 5.606-15.779 2.284-20.968-10.174-18.478-10.174-18.478l3.114.83s12.042 11.627 15.156 21.8-.83 20.762-1.661 24.084-1.453 9.343-4.567 13.495S62.442 92.48 62.442 92.48l-4.568 1.037zm-17.648-.415c-.623-.208-14.326-17.648-13.911-26.368s4.36-13.911 2.284-27.406 0-19.516 0-19.516-6.644 3.945-8.928 6.436.623 9.966 2.491 18.686.415 17.648 1.661 23.046-.623 12.457 4.36 16.817 9.135 7.474 9.135 7.474l2.907.831z" fill="#006734"/><path opacity=".4" d="M35.89 91.849a46.84 46.84 0 0 0 14.095 2.149c23.85 0 43.185-17.661 43.185-39.448 0-16.937-11.685-31.381-28.094-36.972 0 0 27.471 19.324 14.599 47.769S35.89 91.849 35.89 91.849z" fill="#003f1e"/><path opacity=".5" d="M23.48 37.89c-1.126-3.043-.005-6.086 2.08-9.071a13.39 13.39 0 0 1 6.208-4.892c3.423-1.346 6.685-.401 7.748 2.324 1.725 4.421-2.126 11.449-7.65 13.959-3.897 1.771-7.126.875-8.386-2.321" fill="#45dd86"/></svg>
