<svg xmlns="http://www.w3.org/2000/svg" width="81" height="104" fill="none"><path d="M72.93 50.725c3.13-6.392 1.442-11.936-4.905-15.769-5.57 3.79-11.183 2.676-17.562-.449l2.697 9.841c-5.179-1.822-8.997-5.377-12.227-9.983-2.62 3.114-5.484 6.142-9.822 7.109a100.37 100.37 0 0 1-12.598 1.887c4.453-2.584 9.657-4.095 11.825-9.285-5.197 3.026-10.699 2.455-16.232 1.562-6.778 3.38-8.911 9.284-5.803 15.797.152.367.228.761.225 1.158s-.086.79-.243 1.155c-2.51 5.241-1.626 9.822 2.719 13.903.541.504.883 1.185.965 1.92.208 5.528 2.673 9.029 7.923 11.172-.02.258-.034.517-.034.78 0 5.787 5.001 10.484 11.196 10.552.319.118.645.229.98.332a11.81 11.81 0 0 0 4.15 3.39c1.625.797 3.411 1.21 5.221 1.207a11.81 11.81 0 0 0 9.357-4.628l.663-.311c.177.008.357.013.536.013 5.958 0 10.838-4.284 11.293-9.724.133-.091.273-.171.419-.239 5.476-2.483 8.222-7.599 7.043-13.168a3.41 3.41 0 0 1 .617-2.622c3.537-4.163 4.05-8.549 1.652-13.339a2.84 2.84 0 0 1-.052-2.258" fill="#e9287f"/><path d="M68.025 34.956c6.347 3.834 8.035 9.378 4.905 15.769a2.84 2.84 0 0 0 .052 2.257c2.398 4.789 1.885 9.175-1.652 13.339a3.41 3.41 0 0 0-.617 2.622c1.179 5.57-1.566 10.686-7.043 13.168a2.99 2.99 0 0 0-.419.239c-.455 5.441-5.335 9.724-11.293 9.724-.18 0-.358-.005-.536-.013l-.663.311a11.81 11.81 0 0 1-9.357 4.628c-1.81.003-3.596-.41-5.221-1.207a11.81 11.81 0 0 1-4.15-3.39s8.975 6.708 14.263-3.495c0 0 12.653-2.463 5.099-12.667 0 0 14.542 3.167 12.087-10.555 0 0 12.275-3.343 5.351-13.136 0 0 7.708-12.906-.804-17.595" fill="#bf00b2"/><path d="M74.935 44.516c0 5.376-4.678 9.734-10.45 9.734s-10.45-4.358-10.45-9.734 4.679-9.734 10.45-9.734 10.45 4.358 10.45 9.734M56.553 79.114c0 5.376-4.678 9.734-10.45 9.734s-10.45-4.358-10.45-9.734 4.679-9.734 10.45-9.734 10.45 4.358 10.45 9.734z" fill="#e9287f"/><path d="M30.066 51.318c-1.286 2.076-3.745 2.997-5.491 2.058s-2.119-3.383-.834-5.459 3.745-2.996 5.491-2.057 2.119 3.383.834 5.458" fill="#ff57ab"/><path d="M68.025 34.956c-5.57 3.789-11.183 2.676-17.562-.449l2.697 9.841c-5.179-1.822-8.998-5.377-12.227-9.983-2.621 3.114-5.484 6.141-9.822 7.108-4.155.895-8.363 1.525-12.598 1.887 4.453-2.584 9.657-4.095 11.825-9.285-5.197 3.027-10.699 2.455-16.232 1.562L9.13 32.842l.239-.563c2.607-.32 5.365-.247 7.786-1.052 3.739-1.243 7.316-2.968 10.835-4.71 2.981-1.475 5.874-2.76 9.416-1.187 0-2.337-.253-4.455.059-6.498.466-3.061 1.068-6.154 2.145-9.062.452-1.221 2.112-2.406 3.504-2.862 1.117-.366 2.658.395 4.01.656-.295 1.005-.485 2.049-.905 3.006l-4.814 10.779c-.488 1.185-.422 2.568-.632 4.005 7.393-2.754 11.648-1.853 17.116 3.442 3.142 3.044 4.605 3.51 12.289 3.801l-2.154 2.359z" fill="#69a744"/><path d="M40.773 25.354l12.386 18.993s-1.413-16.165-12.386-18.993zm-3.368-.025s-5.842.48-7.353 9.863c0 0-5.036 6.334-10.576 7.975 0 0 9.568-1.876 13.345-5.864s6.649-8.936 4.584-11.975" fill="#90c13d"/></svg>
