<svg xmlns="http://www.w3.org/2000/svg" width="78" height="94" fill="none"><path d="M43.521 13.183c0 3.88-2.024 7.025-4.522 7.025s-4.522-3.145-4.522-7.025 2.024-7.025 4.522-7.025 4.522 3.146 4.522 7.025z" fill="#69a744"/><path d="M46.427 80.07c0 3.88-3.325 7.025-7.427 7.025s-7.427-3.145-7.427-7.025 3.325-7.025 7.427-7.025 7.427 3.145 7.427 7.025z" fill="#d1bd00"/><path d="M46.512 11.605C44.994 9.536 42.199 8.147 39 8.147s-5.994 1.389-7.512 3.457C17.393 15.436 6.916 29.806 6.916 46.949 6.916 67.024 21.28 83.298 39 83.298s32.084-16.274 32.084-36.348c0-17.144-10.477-31.513-24.572-35.344z" fill="#ffc217"/><path d="M46.512 11.605c14.095 3.831 24.573 18.201 24.573 35.344 0 20.075-14.365 36.348-32.084 36.348A28.87 28.87 0 0 1 25.439 79.9s21.149 4.632 29.956-6.227c9.221-11.368 15.789-26.147 5.937-49.137-3.567-8.324-14.82-12.932-14.82-12.932z" fill="#d1bd00"/><path opacity=".8" d="M20.086 25.29c1.124-4.775 6.461-8.251 10.495-6.834 2.15.755 3.178 3.346 2.405 6.06-1.17 4.105-6.088 7.499-9.724 6.71-2.686-.583-3.901-2.855-3.176-5.937" fill="#ffe36c"/></svg>
