<svg xmlns="http://www.w3.org/2000/svg" width="84" height="107" fill="none"><path d="M66.721 49.714s-3.81-3.354-7.143-9.584c-4-7.476-3.81-16.292-17.619-15.335-.015 0-.03.006-.045.007s-.03-.006-.045-.007c-13.809-.958-13.617 7.857-17.618 15.335-3.333 6.229-7.142 9.584-7.142 9.584-18.571 14.375-10.476 42.647 1.428 47.918s23.332.48 23.332.48c.016 0 .03-.003.045-.005s.03.004.045.005c0 0 11.428 4.792 23.332-.48s19.999-33.543 1.429-47.918" fill="#c3ce2e"/><path d="M41.915 24.802c.016 0 .031-.005.045-.006 5.626-.391 8.928.841 11.137 2.944 3.213 3.058 4.111 7.959 6.482 12.39 3.333 6.229 7.142 9.584 7.142 9.584 18.571 14.375 10.476 42.647-1.428 47.918s-23.407.48-23.422.48c0 0 20.676-3.092 24.087-19.008 3.057-14.27-5.684-24.253-8.716-30.695s-3.6-17.053-6.063-19.516-5.262-4.579-9.263-4.09" fill="#8bbc4e"/><path d="M42.061 25.629s-3.22-10.941 6.614-15.898c0 0 4.991-2.002 12.863-3.205L42.061 25.629z" fill="#90c13d"/><path d="M41.991 25.557s10.748 3.586 15.968-6.169c0 0 2.14-4.966 3.578-12.861l-19.547 19.03z" fill="#69a744"/><path opacity=".7" d="M31.064 37.246c-.195-2.111.861-3.811 2.446-5.3 1.128-1.091 2.591-1.771 4.153-1.931 2.098-.218 3.781.968 3.986 2.868.334 3.082-2.809 6.78-6.243 7.344-2.422.398-4.094-.751-4.342-2.981" fill="#e3ff6e"/></svg>
