<svg xmlns="http://www.w3.org/2000/svg" width="84" height="96" fill="none"><path d="M70.8 38.791l-.03-.223c-1.69-8.53-10.268-28.651-38.458-24.065C3.77 19.145 6.1 49.825 6.217 49.891a41.27 41.27 0 0 0 1.482 7.844c1.551 5.574 3.328 11.096 4.674 16.714.695 2.902.544 5.986 1.004 8.948s2.517 4.987 6.101 5.937c4.851 1.288 9.765.398 14.384-1.353 11.59-4.392 20.499-11.355 27.464-19.878 7.579-9.275 11.497-19.033 9.474-29.314" fill="#feae36"/><path d="M64.459 24.881a33.53 33.53 0 0 1 6.311 13.686c.014.072.021.148.03.223 2.023 10.282-1.895 20.038-9.474 29.314-6.964 8.523-15.874 15.486-27.464 19.877-4.619 1.751-9.533 2.64-14.384 1.353-3.584-.951-5.64-2.972-6.101-5.937 0 0 11.909 3.972 23.188-1.888C47.6 75.776 64.046 60.76 65.395 45.092s-.937-20.211-.937-20.211m-11.684-3.95c-.253 1.284-2.574 1.91-5.185 1.397s-4.524-1.971-4.271-3.254 2.574-1.909 5.185-1.396 4.524 1.97 4.272 3.254z" fill="#fc9003"/><path d="M49.509 20.17S50.721 7.437 63.026 6.379c0 0 6.03-.002 14.727 2.029L49.509 20.17z" fill="#90c13d"/><path d="M49.466 20.065s9.692 8.216 19.196.24c0 0 4.3-4.277 9.091-11.896L49.466 20.065z" fill="#69a744"/><path d="M21.289 27.159c.758-2.865 2.962-4.591 5.76-5.785a9.78 9.78 0 0 1 6.381-.539c2.86.722 4.5 3.088 3.857 5.682-1.043 4.208-6.947 7.554-11.727 6.644-3.372-.641-5.015-2.956-4.27-6.003" fill="#ffc885"/></svg>
