<svg xmlns="http://www.w3.org/2000/svg" width="80" height="96" fill="none"><path d="M37.42 24.316S35.803 11.628 47.576 7.891c0 0 5.882-1.328 14.813-1.257L37.42 24.316z" fill="#90c13d"/><path d="M37.356 24.224s11.261 5.885 18.779-3.986c0 0 3.255-5.118 6.253-13.603L37.356 24.224z" fill="#69a744"/><path d="M44.58 21.2a25.09 25.09 0 0 0-6.21.782 20.88 20.88 0 0 0-5.65-.782c-14.676 0-26.574 15.397-26.574 34.39s11.897 34.39 26.574 34.39c1.91-.001 3.811-.265 5.65-.783 2.029.519 4.115.781 6.21.781 16.132 0 29.209-15.397 29.209-34.389S60.712 21.199 44.58 21.199" fill="#fdae75"/><g fill="#e87f38"><path d="M38.371 21.982a25.09 25.09 0 0 1 6.21-.782c16.132 0 29.209 15.397 29.209 34.39S60.712 89.98 44.581 89.98c-2.094-.001-4.181-.264-6.21-.783 0 0-4.405-1.115-5.137-4.045 0 0 11.419 2.758 21.23-5.861 7.717-6.78 12.01-23.68 7.32-38.097-5.271-16.204-14.03-18.778-23.413-19.214"/><path d="M25.474 76.534s3.514 11.205 12.897 12.664l-.891-3.701s-7.027-1.724-12.006-8.964z"/></g><path opacity=".8" d="M16.712 39.932c-.75-2.883.328-5.482 2.19-7.907a9.83 9.83 0 0 1 5.323-3.622c2.862-.779 5.465.485 6.182 3.074 1.162 4.201-2.358 10.044-6.994 11.607-3.27 1.103-5.851-.113-6.702-3.151" fill="#ffc49c"/></svg>
