<svg xmlns="http://www.w3.org/2000/svg" width="81" height="104" fill="none"><path d="M72.931 50.724c3.13-6.392 1.442-11.936-4.905-15.769-7.236-3.134-14.624-.262-21.004-3.387 1.023 3.734.167 4.12 1.011 7.2-5.179-1.822-3.869.202-7.1-4.405-2.621 3.114 1.964-3.257-2.373-2.29-4.118.918.483.361-3.79.758 4.453-2.584-6.601 6.432-4.433 1.242-5.197 3.026-10.699 2.455-16.232 1.562-6.779 3.38-8.911 9.284-5.803 15.797.152.367.228.761.225 1.158s-.086.79-.243 1.155c-2.51 5.241-1.626 9.822 2.718 13.903a3.09 3.09 0 0 1 .965 1.92c.208 5.528 2.674 9.029 7.923 11.172-.02.258-.034.517-.034.78 0 5.787 5.001 10.484 11.196 10.552.319.118.645.229.98.332a11.81 11.81 0 0 0 9.372 4.597 11.81 11.81 0 0 0 9.357-4.627l.663-.311a12.53 12.53 0 0 0 .537.013c5.957 0 10.838-4.284 11.293-9.725a3 3 0 0 1 .42-.239c5.476-2.483 8.222-7.599 7.043-13.168a3.41 3.41 0 0 1 .617-2.622c3.537-4.163 4.05-8.549 1.651-13.339a2.84 2.84 0 0 1-.052-2.258" fill="#6859f7"/><path d="M68.026 34.956c6.347 3.834 8.034 9.378 4.905 15.769a2.84 2.84 0 0 0 .052 2.257c2.398 4.789 1.885 9.175-1.651 13.339a3.41 3.41 0 0 0-.617 2.622c1.18 5.57-1.566 10.685-7.043 13.168a3.01 3.01 0 0 0-.42.239c-.455 5.441-5.335 9.724-11.293 9.724-.18 0-.359-.005-.537-.013l-.663.311a11.81 11.81 0 0 1-9.357 4.628c-1.81.003-3.596-.41-5.221-1.207a11.81 11.81 0 0 1-4.151-3.39s8.975 6.708 14.263-3.495c0 0 12.653-2.463 5.099-12.667 0 0 14.541 3.167 12.086-10.555 0 0 12.275-3.342 5.351-13.137 0 0 7.708-12.906-.805-17.595" fill="#3932d6"/><path d="M74.936 44.516c0 5.376-4.679 9.734-10.45 9.734s-10.45-4.358-10.45-9.734 4.679-9.734 10.45-9.734 10.45 4.358 10.45 9.734zM56.554 79.114c0 5.376-4.678 9.734-10.45 9.734s-10.45-4.358-10.45-9.734 4.679-9.734 10.45-9.734 10.45 4.358 10.45 9.734z" fill="#6859f7"/><path opacity=".5" d="M31.587 52.432c-.843 3.128-3.615 5.236-6.192 4.709s-3.983-3.49-3.14-6.618 3.614-5.236 6.191-4.709 3.983 3.49 3.141 6.617z" fill="#809eff"/><path d="M11.284 34.956c5.57 3.789 11.183 2.676 17.562-.449l-2.697 9.841c5.178-1.822 8.997-5.377 12.227-9.983 2.621 3.114 5.484 6.141 9.822 7.108 4.155.895 8.363 1.525 12.598 1.887-4.453-2.584-9.657-4.095-11.825-9.285 5.197 3.026 10.699 2.455 16.232 1.562l4.975-2.795-.239-.563c-2.607-.32-5.365-.247-7.786-1.052-3.739-1.243-7.316-2.968-10.835-4.71-2.981-1.475-5.874-2.76-9.416-1.187 0-2.337.253-4.455-.059-6.498-.466-3.061-1.068-6.154-2.145-9.062-.452-1.221-2.112-2.406-3.504-2.862-1.116-.366-2.657.395-4.01.657.296 1.005.486 2.049.905 3.006 1.58 3.603 3.318 7.148 4.814 10.78.488 1.185.422 2.568.632 4.005-7.393-2.754-11.648-1.853-17.116 3.442-3.142 3.044-4.605 3.509-12.289 3.801l2.153 2.358" fill="#69a744"/><path d="M38.535 25.354L26.149 44.347s1.413-16.165 12.386-18.993zm3.368-.025s5.842.48 7.353 9.863c0 0 5.036 6.333 10.576 7.975 0 0-9.568-1.876-13.345-5.864s-6.649-8.936-4.584-11.975" fill="#90c13d"/></svg>
