<svg xmlns="http://www.w3.org/2000/svg" width="90" height="89" fill="none"><path d="M83.132 44.697c0 21.122-17.076 38.245-38.14 38.245S6.853 65.819 6.853 44.697 23.928 6.453 44.993 6.453s38.14 17.123 38.14 38.245" fill="#f77c37"/><path d="M62.749 10.842c6.157 3.253 11.31 8.126 14.902 14.092s5.487 12.8 5.481 19.764c0 21.122-17.076 38.245-38.14 38.245-5.975.008-11.867-1.396-17.195-4.098 0 0 29.196 6.788 43.785-22.202 13.792-27.404-8.833-45.8-8.833-45.8z" fill="#e84215"/><path d="M54.675 12.321c0 1.56-2.154 2.826-4.811 2.826s-4.811-1.265-4.811-2.826 2.154-2.825 4.811-2.825 4.811 1.265 4.811 2.825z" fill="#90c13d"/><path d="M69.579 28.413a1.05 1.05 0 0 1-.118 1.937 1.05 1.05 0 0 1-1.285-1.453 1.05 1.05 0 0 1 1.404-.484zM64.25 17.766a.75.75 0 0 1-.085 1.383.75.75 0 0 1-.918-1.038.75.75 0 0 1 1.003-.345zM20.274 61.869a1.2 1.2 0 0 1-.469 2.167 1.2 1.2 0 0 1-1.201-1.864 1.2 1.2 0 0 1 1.669-.303zm-5.097-11.122a1.05 1.05 0 0 1-.409 1.896 1.05 1.05 0 0 1-1.051-1.63 1.05 1.05 0 0 1 1.46-.265zm6.204-7.908a1.35 1.35 0 0 1-.527 2.438 1.35 1.35 0 0 1-1.352-2.096 1.35 1.35 0 0 1 1.878-.342z" fill="#e84215"/><path opacity=".5" d="M39.507 21.762c1.358 3.79-1.391 8.243-6.139 9.944s-9.7.008-11.058-3.782 1.391-8.243 6.139-9.945 9.7-.008 11.058 3.783z" fill="#fcb57a"/></svg>
