<svg xmlns="http://www.w3.org/2000/svg" width="76" height="104" fill="none"><g fill="#69a744"><path d="M32 30.99L23.758 7.116s14.211 4.547 15.063 19.61L32 30.99z"/><path d="M34.273 21.326c.373-4.647 11.368-14.779 11.368-14.779s.568 10.516-2.558 17.905-8.997-.797-8.81-3.126z"/></g><path d="M69.8 63.318c0 19.145-14.188 34.666-31.69 34.666S6.421 82.464 6.421 63.318 20.609 28.653 38.11 28.653 69.8 44.173 69.8 63.318z" fill="#fff42e"/><g fill="#edc107"><path d="M25.86 93.068s12.027 4.663 21.611.538l-11.839-5.74-9.773 5.202zm-2.443-1.614l9.96-4.843-23.303-12.196s3.758 11.837 13.343 17.038zm14.846-5.022l12.027 6.277s13.155-6.277 15.786-20.984L38.263 86.432zm-20.671-11.12l18.98 9.864L54.8 75.491l-18.793-9.326-18.416 9.147zm-8.081-3.946l6.013 3.228 18.041-9.865-23.303-11.837S6.315 62.04 9.51 71.366m26.498-8.25l-18.416-9.147 18.041-9.326 19.168 9.147-18.793 9.326z"/><path d="M10.827 50.562l3.758 2.152 18.604-9.505L20.41 37.29s-6.953 6.098-9.584 13.272zm27.436-7.533l18.98 9.326 6.577-3.408s-3.383-8.25-10.712-12.734l-14.846 6.816zm-15.785-6.815c-.476.34 13.155 5.56 13.155 5.56l15.034-6.815s-14.094-8.788-28.188 1.255zM38.263 64.91c.564.179 18.98 9.685 18.98 9.685l9.584-5.56s2.443-9.865-2.255-18.473L38.263 64.91z"/></g><g fill="#90c13d"><path d="M28.874 32.411L16.937 19.053c-.284-.568 18.474.853 25.863 9.947 0 0-3.41 6.821-13.926 3.411z"/><path d="M44.79 29.853l12.505-14.21S38.253 17.632 32 27.863c0 0 7.105 6.821 12.789 1.989z"/></g><path opacity=".8" d="M17.772 45.633c.419-2.609 2.222-4.336 4.598-5.642a8.72 8.72 0 0 1 5.614-1.043c2.602.387 4.266 2.342 3.925 4.7-.553 3.826-5.496 7.316-9.817 6.933-3.049-.271-4.712-2.178-4.32-4.948" fill="#ffe36c"/><path opacity=".4" d="M50.338 31.327C61.769 36.562 69.8 48.914 69.8 63.318c0 19.145-14.188 34.666-31.689 34.666-4.69-.001-9.311-1.126-13.477-3.282 0 0 23.282.424 32.945-15.681 9.2-15.333 8.256-35.134-7.24-47.694z" fill="#6d5800"/></svg>
