<svg xmlns="http://www.w3.org/2000/svg" width="87" height="109" fill="none"><path d="M39.836 29.841s-5.834-3.551-4.312-11.16 1.014-12.428 1.014-12.428 4.819 12.682 5.326 17.247 2.536 8.624-2.029 6.341z" fill="#69a744"/><path d="M42.879 29.841s-3.805-4.819-2.79-10.399 2.283-11.414 2.283-11.414 4.565 4.058 3.804 9.638-3.297 12.174-3.297 12.174z" fill="#90c13d"/><path d="M42.879 29.841s.761-7.102 3.551-10.399 3.804-4.312 3.297-7.355 3.044 3.551 1.015 8.623-3.805 10.653-7.863 9.131zM15.233 80.567s-7.102-4.312-8.37-12.682l6.341 2.79 2.029 9.892zm57.325 0s7.102-4.312 8.37-12.682l-6.341 2.79-2.029 9.892z" fill="#69a744"/><path d="M75.852 67.252c0 19.261-14.421 34.875-32.21 34.875s-32.21-15.614-32.21-34.875c0-8.711 6.594-16.519 11.413-24.222 5.838-9.329 10.801-17.754 20.545-17.754 8.895 0 12.369 7.892 18.262 15.979s14.204 16.367 14.204 25.997" fill="#e92940"/><path d="M50.191 27.231c4.415 2.84 7.348 8.384 11.457 14.023 5.892 8.087 14.203 16.367 14.203 25.997 0 19.261-14.422 34.875-32.211 34.875-7.65 0-14.678-2.887-20.202-7.71 0 0 27.051 11.515 39.986-8.269 10.063-15.39 6.088-28.661-.761-38.299S50.192 27.231 50.192 27.231" fill="#d80529"/><path d="M17.77 55.457l-.507-12.174 4.312 5.073-3.805 7.102zm10.398 41.597s-9.131-1.269-13.696-5.58l7.355-2.029 6.341 7.609zm41.853-41.597l.507-12.174-4.312 5.073 3.805 7.102zM59.623 97.054s9.131-1.269 13.696-5.58l-7.355-2.029-6.341 7.609z" fill="#69a744"/><path d="M29.636 42.082c-.571-1.881.07-3.624 1.233-5.272.821-1.203 2.023-2.094 3.413-2.53 1.866-.591 3.616.174 4.158 1.861.879 2.739-1.286 6.685-4.301 7.84-2.127.814-3.861.082-4.503-1.898z" fill="#fc4c6a"/></svg>
