<svg xmlns="http://www.w3.org/2000/svg" width="92" height="92" fill="none"><path d="M40.558 84.91c-4.67-.101-9.108-1.279-13.3-3.22-14.396-6.665-21.837-20.1-20.19-36.278C8.28 33.49 13.232 23.414 22.207 15.403c4.584-4.093 9.969-6.711 15.955-8.102l.901-.101c.319.173.619.429.96.505 3.223.733 6.589 1.074 9.653 2.221a40.3 40.3 0 0 1 14.557 9.364c8.639 8.701 13.6 19.069 13.679 31.485.046 7.2-2.265 13.69-6.485 19.483-3.385 4.648-7.841 8.013-12.903 10.733-5.176 2.781-10.585 4.052-16.428 3.611-.502-.038-1.024.199-1.537.308v-.001zM19.777 30.673c.404 3.183 2.036 5.268 4.881 5.686 1.404.206 2.951 0 4.342-.369 4.907-1.297 9.391-7.721 9.015-12.766-.266-3.57-3.136-7.483-9.03-5.788-5.616 1.614-9.906 7.741-9.208 13.238" fill="#84444a"/><path d="M40.558 84.91c.513-.109 1.036-.346 1.537-.308 5.843.44 11.251-.83 16.428-3.611 5.063-2.72 9.518-6.086 12.904-10.733 4.22-5.794 6.531-12.284 6.485-19.483-.079-12.416-5.04-22.785-13.679-31.485a40.3 40.3 0 0 0-14.557-9.364c-3.064-1.147-6.429-1.491-9.653-2.221-.341-.077-.641-.333-.96-.505l3.385-.469c12.187-.569 22.115 4.237 30.457 12.773 3.627 3.71 6.442 7.99 8.661 12.664.281.591.451 1.234.672 1.853l.086.604a.78.78 0 0 1 .053.249l.421 1.232c.049.072.078.156.084.243l.418.935.084.551.499 1.839a.42.42 0 0 1 .086.242l1.208 9.242.098.849.101.916c-.248 8.257-3.194 15.476-8.946 21.35-9.835 10.044-22.076 13.632-35.874 12.639" fill="#763439"/><path d="M78.522 50.026l-1.208-9.243c.197.426.505.834.572 1.279l.866 6.583c.051.446-.147.919-.231 1.38zm-1.289-9.485l-.477-1.842.477 1.842zm1.491 11.25l-.103-.916.103.916zm-2.051-13.643l-.393-.938.393.938zm-.473-1.183l-.399-1.234.399 1.234zm-.45-1.483l-.085-.605.085.605z" fill="#763438"/><path d="M19.776 30.673c-.698-5.495 3.592-11.623 9.208-13.238 5.894-1.694 8.763 2.218 9.03 5.788.376 5.045-4.107 11.47-9.015 12.766-1.389.368-2.938.575-4.342.369-2.845-.418-4.476-2.501-4.881-5.686" fill="#84444a"/><path d="M19.218 30.959c-.232-3.609 1.651-6.459 4.427-8.923a11.93 11.93 0 0 1 7.175-3.094c3.59-.272 6.403 1.833 6.663 5.084.421 5.274-5.117 11.43-11.001 12.227-4.151.563-6.947-1.478-7.264-5.295" fill="#9b686e"/></svg>
