<svg xmlns="http://www.w3.org/2000/svg" width="94" height="98" fill="none"><path d="M47.473 91.06c-13.125-.239-41.406-4.717-41.145-27.517S17.597 34.716 32.011 27.64s14.152-14.676 14.152-14.676l9.959 2.097s-.524 9.959 14.152 18.083 22.276 30.4 13.627 42.979-22.014 15.2-36.427 14.938" fill="#9365b5"/><path d="M46.162 12.964s.786-6.814 5.241-6.027 6.552 1.572 4.717 8.124c0 0-5.241.786-9.958-2.097" fill="#69a744"/><path opacity=".7" d="M26.899 37.931c2.448-2.989 5.305-4.342 8.285-4.951 2.145-.438 3.986-.167 5.391 1.036 1.795 1.534 1.563 4.584-.619 7.301-3.54 4.409-10.365 6.614-13.557 4.379-2.251-1.576-2.057-4.567.5-7.764" fill="#b785ed"/><path d="M33.738 89.554s36.758 7.958 49.263-12.126-3.032-39.411-10.231-42.821-17.381-10.669-16.649-19.545c0 0-3.057 11.587 9.449 21.819s14.779 31.832 2.274 42.821c-11.846 10.41-17.811 9.853-34.105 9.853z" fill="#874aa0"/></svg>
