<svg xmlns="http://www.w3.org/2000/svg" width="78" height="87" fill="none"><path d="M43.521 13.394c0 3.543-2.024 6.415-4.522 6.415s-4.522-2.872-4.522-6.415 2.024-6.415 4.522-6.415 4.522 2.872 4.522 6.415z" fill="#69a744"/><path d="M46.427 74.468c0 3.543-3.325 6.415-7.427 6.415s-7.427-2.873-7.427-6.415 3.325-6.415 7.427-6.415 7.427 2.872 7.427 6.415z" fill="#61c105"/><path d="M46.512 11.953C44.994 10.064 42.199 8.795 39 8.795s-5.994 1.268-7.512 3.158C17.393 15.451 6.916 28.572 6.916 44.226c0 18.33 14.364 33.19 32.084 33.19s32.084-14.86 32.084-33.19c0-15.654-10.477-28.775-24.573-32.273z" fill="#99e52c"/><path d="M46.512 11.953c14.095 3.498 24.573 16.619 24.573 32.273 0 18.33-14.365 33.19-32.084 33.19-4.697.004-9.334-1.056-13.562-3.102 0 0 21.149 4.229 29.956-5.686 9.221-10.381 15.789-23.875 5.937-44.867-3.567-7.6-14.82-11.808-14.82-11.808" fill="#61c105"/><path d="M20.086 24.448c1.124-4.36 6.461-7.534 10.494-6.24 2.15.689 3.178 3.057 2.405 5.533-1.17 3.748-6.088 6.846-9.724 6.127-2.687-.531-3.901-2.605-3.176-5.42z" fill="#d3ff94"/></svg>
