<svg xmlns="http://www.w3.org/2000/svg" width="80" height="80" fill="none"><path d="M14.889 62.618c12.095 13.332 33.095 13.984 46.903 1.457s15.197-33.491 3.101-46.822S31.798 3.268 17.99 15.795 2.794 49.286 14.889 62.618z" fill="#3d4af9"/><path d="M49.2 18.86c1.951 1.121 4.282.723 5.207-.887s.093-3.824-1.858-4.944-4.282-.723-5.207.888-.093 3.824 1.858 4.944z" fill="#8b5caa"/><path opacity=".5" d="M24.409 30.311c2.448 1.81 6.111 1.008 8.182-1.794s1.765-6.538-.682-8.348-6.111-1.008-8.182 1.794-1.765 6.538.682 8.348z" fill="#4390ff"/><path opacity=".8" d="M64.893 17.252C76.989 30.584 75.6 51.548 61.792 64.075s-34.807 11.874-46.902-1.457c0 0 60.429 15.724 50.004-45.365z" fill="#0c22ea"/></svg>
