<svg xmlns="http://www.w3.org/2000/svg" width="72" height="93" fill="none"><path d="M65.552 60.668c0 14.427-13.176 26.122-29.429 26.122S6.695 75.094 6.695 60.668s6.819-29.278 32.3-21.564c1.771.536 1.447.404 3.23.351 19.739-.584 23.328 8.433 23.328 21.213z" fill="#bf063b"/><path d="M38.407 39.367s.296-20.149 9.752-26.953c0 0 6.205-2.617 7.091-1.047s.295 2.355-3.84 4.187-8.864 4.71-10.342 24.075c0 0-1.477 1.308-2.659-.262" fill="#a17c3d"/><path d="M19.615 82.583s28.472 3.273 35.171-15.779c5.35-15.215 1.077-24.544-4.307-26.648 0 0 17.107-.818 14.834 22.791-.416 4.32-2.393 9.467-5.503 13.44 0 0-15.073 18.818-40.195 6.195" fill="#91004c"/><path d="M41.524 22.901s-12.787 7.825-23.802-1.999c0 0-4.92-5.174-10.129-14.052l33.931 16.051z" fill="#90c13d"/><path d="M41.461 23.011S41.171 8.972 26.029 6.369c0 0-7.47-.712-18.436.48l33.868 16.162z" fill="#69a744"/><path opacity=".5" d="M16.459 47.964c-.032-1.966 1.065-3.465 2.636-4.73a6.49 6.49 0 0 1 3.977-1.493c1.956-.054 3.429 1.162 3.486 2.934.091 2.875-3.077 6.073-6.293 6.353-2.269.197-3.734-.984-3.806-3.065" fill="#fc4c6a"/></svg>
