<svg xmlns="http://www.w3.org/2000/svg" width="83" height="98" fill="none"><path d="M42.892 19.366l3.237-3.633 3.996 6.627 6.613-3.557 1.944 7.597 7.046-1.153v7.909l7.029 1.282-2.248 6.276c-.364.935-.182 1.421.753 1.888l5.305 2.95-4.629 6.302 5.051 5.641-4.648 3.297c-1.206.763-1.592 1.481-.847 2.836.928 1.686 1.6 3.506 2.454 5.43l-7.082 2.226.893 7.72h-7.315l-1.332 7.687-6.864-2.605-3.501 7.063-5.69-4.862-5.376 5.586-3.979-6.576-6.613 3.545-1.916-7.581-7.248 1.131.316-6.594c.07-.964-.113-1.438-1.245-1.571-1.9-.222-3.775-.657-5.895-1.044l2.62-7.472-6.429-3.628 4.611-6.284-5.016-5.639 6.158-4.494-3.145-7.099 5.752-1.761c1.102-.281 1.363-.788 1.206-1.823l-.775-6.365h7.307l1.366-7.716 6.811 2.653 3.522-6.96 3.191 2.384 2.329 2.373 2.284-1.989" fill="#a6b700"/><path d="M43.533 21.882l-1.757 1.801-1.792-2.149a26.24 26.24 0 0 1 .225-11.731c.853-3.442 3.438-3.439 5.277-2.136 1.1.779 1.252 1.619.579 2.869-1.635 3.039-2.824 6.263-2.937 9.885-.015.48.262.973.404 1.461" fill="#a37339"/><path d="M33.701 85.299l3.979 6.575 5.376-5.586 5.69 4.861 3.499-7.063 6.864 2.605 1.333-7.687h7.315l-.893-7.72 7.082-2.225-2.981-7.23 6.024-4.333-5.052-5.641 4.628-6.301-6.32-3.463 2.513-7.651-7.029-1.283v-7.909L58.682 26.4s9.705 24.17-.546 40.59-24.434 18.308-24.434 18.308" fill="#748e04"/><path opacity=".4" d="M22.992 37.203c-.212-2.09.82-3.785 2.378-5.275a6.93 6.93 0 0 1 4.099-1.951c2.078-.235 3.756.926 3.977 2.808.358 3.052-2.725 6.745-6.124 7.335-2.398.416-4.065-.709-4.331-2.918z" fill="#f1ff6e"/><path d="M56.146 67.274l9.379.568-4.832-8.242-4.547 7.674zm5.116-15.347l7.105-5.116-6.253-5.4-.853 10.516zM44.209 77.506l5.684 2.558.853-6.253-6.537 3.695z" fill="#a6b700"/></svg>
