<svg xmlns="http://www.w3.org/2000/svg" width="88" height="99" fill="none"><path d="M49.678 15.239a7.34 7.34 0 0 1 .672-3.078 6.66 6.66 0 0 1 .846-1.401c.349-.463.797-.843 1.31-1.112a3.31 3.31 0 0 1 1.726-.362 5.08 5.08 0 0 1 1.605.414c.252.102.494.226.724.372.236.155.449.344.63.561a2.09 2.09 0 0 1 .39.804 2.03 2.03 0 0 1-.013.935 2.35 2.35 0 0 1-1.172 1.477c-.571.299-1.222.41-1.859.318-.597-.081-1.174-.275-1.698-.573a4.58 4.58 0 0 1-1.377-1.137 3.56 3.56 0 0 1-.753-1.722 3.88 3.88 0 0 1 .168-1.784 4.58 4.58 0 0 1 .333-.776c.125-.243.271-.474.435-.692.312-.433.689-.817 1.116-1.137l.118.101a8.93 8.93 0 0 0-.801 2.763c-.041.41-.003.824.111 1.22a2.73 2.73 0 0 0 .222.515c.097.162.208.315.333.456.275.304.588.572.931.796.337.234.71.41 1.105.52a2.2 2.2 0 0 0 1.105-.007 1.86 1.86 0 0 0 .5-.227 1.33 1.33 0 0 0 .384-.407c.104-.172.158-.369.158-.57s-.057-.398-.163-.569c-.121-.187-.279-.348-.463-.473-.096-.065-.197-.121-.303-.168l-.16-.071-.169-.052c-.443-.135-.915-.146-1.364-.03a3.04 3.04 0 0 0-1.109.606c-.69.575-1.291 1.249-1.784 2l-1.58 2.526-.152-.036z" fill="#69a744"/><path d="M6.708 47.006c3.7-21.47 23.415-35.995 44.036-32.441s34.338 23.839 30.638 45.309-23.415 35.994-44.036 32.441S3.008 68.475 6.708 47.006z" fill="#bedb42"/><g fill="#f1ff6e"><path d="M8.324 41.954l18.394 23.934 10.617 26.49 2.329.19L29.08 66.871 16.894 49.486l-2.418-19.739-1.663 2.309 1.913 15.326-5.77-7.627-.632 2.198zM29.272 17.3l7.556 29.565 26.786 17.658 7.748 15.403 1.417-2.352-8.245-13.822-26.481-18.118-7.455-28.682-1.325.348z"/><path d="M16.894 49.487c.145-.84 21.163-2.41 21.163-2.41l-1.036-1.332-21.211 2.69 1.084 1.052zm-4.013 26.386l15.937-8.79 26.007-8.497 17.073-22.725.924-8.461-.854-.756-1.106 7.885-16.533 22.53-27.872 9.04-14.414 8.764.838 1.01z"/><path d="M71.213 36.896l6.231-2.387.939 1.892-9.03 2.481 1.86-1.986zm-6.381 28.061c.737.126 16.539-5.02 16.539-5.02l.016-1.324-17.886 5.25 1.331 1.094z"/></g><path opacity=".4" d="M25.514 88.159a36.49 36.49 0 0 0 11.821 4.218c20.621 3.553 40.336-10.971 44.036-32.441 2.876-16.691-4.775-32.666-18.013-40.621 0 0 20.47 23.137 4.51 49.25S25.514 88.159 25.514 88.159z" fill="#990"/><path opacity=".6" d="M23.947 33.136c-.456-3.167 1.029-5.999 3.339-8.63 1.616-1.905 3.78-3.266 6.198-3.896 3.189-.816 5.848.601 6.304 3.445.741 4.614-3.782 10.966-8.984 12.617-3.67 1.165-6.31-.199-6.857-3.537" fill="#f1ff6e"/></svg>
