<svg xmlns="http://www.w3.org/2000/svg" width="74" height="91" fill="none"><path d="M42.584 83.452c-12.994 2.405-22.996-1.624-30.311-12.317C4.949 60.429 4.921 48.9 9.917 37.033c2.75-6.533 5.248-13.079 5.985-20.045.421-3.977 2.758-5.965 7.041-7.054a17.25 17.25 0 0 0 5.078-2.12c3.253-2.119 5.642-2.297 8.301.256 2.438 2.342 4.883 4.79 6.669 7.549 4.434 6.846 9.578 13.18 15.105 19.308 5.471 6.063 9.035 12.966 9.335 21.085.505 13.685-7.312 23.174-22.131 26.84-1.075.266-2.163.48-2.716.601" fill="#00a537"/><path d="M59.369 62.178c2.764-16.588-1.989-23.874-11.084-33.537C44.839 24.98 36.322 8.07 36.322 8.07c2.438 2.342 4.883 4.79 6.669 7.549 4.434 6.846 9.578 13.18 15.105 19.308 5.471 6.063 9.035 12.966 9.335 21.085.505 13.686-7.312 23.174-22.131 26.84-1.075.266-2.163.48-2.716.601C56.495 74.6 58.518 67.294 59.37 62.178" fill="#008200"/><path d="M24.566 18.735c-.412 2.478-1.876 4.298-3.269 4.067s-2.189-2.428-1.777-4.905 1.875-4.298 3.269-4.067 2.189 2.428 1.778 4.905" fill="#25ce25"/><path d="M28.058 10.903c.107.441-.549.978-1.465 1.199s-1.743.044-1.851-.396.549-.978 1.464-1.199 1.743-.044 1.851.397" fill="#84444a"/></svg>
