<svg xmlns="http://www.w3.org/2000/svg" xmlns:xlink="http://www.w3.org/1999/xlink" width="82" height="97" fill="none"><path d="M40.981 26.143l-.63-5.363a21.94 21.94 0 0 1 5.047-13.625c.68-.841 1.395-1.402 2.526-.73 1.112.66 1.327 1.549.688 2.632l-3.284 5.758c-.168.306-.092.721-.129 1.086l.006-.02-.236.379.012-.025-.128.767c-1.017 2.789-.787 5.555.193 8.307l-4.064.835M60.791 8.295s5.859 10.029-3.615 16.852c0 0-4.921 2.962-13.111 5.726L60.791 8.295z" fill="#69a744"/><path d="M60.882 8.352s-12.331-1.329-15.798 9.246c0 0-1.209 5.28-1.021 13.275L60.882 8.352z" fill="#90c13d"/><path d="M23.371 8.828s-6.457 10.667 3.58 18.116c0 0 5.223 3.245 13.956 6.323L23.371 8.828z" fill="#69a744"/><path d="M23.273 8.888s13.242-1.25 16.773 10.135c0 0 1.204 5.677.862 14.245L23.273 8.888zm44.645 15.611S64.504 19.944 59 22.185a36.15 36.15 0 0 0-5.838 3.928l14.756-1.614zm-53.931 1.046s4.23-6.332 11.796-3.669c0 0 3.566 1.574 8.147 4.907l-19.944-1.239z" fill="#90c13d"/><path d="M75.768 46.661c0 18.74-21.541 43.152-34.816 43.365-12.524.201-34.816-24.624-34.816-43.365s15.587-22.585 34.816-22.585 34.816 3.845 34.816 22.585z" fill="#dd1f3f"/><path d="M63.552 27.394c7.476 3.128 12.216 8.933 12.216 19.267 0 18.74-21.541 43.152-34.816 43.365-2.437.039-5.245-.87-8.185-2.498 0 0 21.402-7.26 28.791-21.755s10.81-25.033 1.994-38.379" fill="#c10046"/><g fill="#fad457"><use xlink:href="#B"/><path d="M62.455 35.757c0 1.242-.615 2.249-1.373 2.249s-1.374-1.007-1.374-2.248 1.374-2.248 1.374-2.248 1.374 1.007 1.374 2.248zm2.099 14.003c0 1.242-.615 2.249-1.373 2.249s-1.374-1.007-1.374-2.248 1.374-2.248 1.374-2.248 1.373 1.007 1.373 2.248z"/><use xlink:href="#B" x="-43.708" y="31.052"/><path d="M20.281 62.602c0 1.242-.615 2.248-1.374 2.248s-1.373-1.007-1.373-2.248 1.373-2.248 1.373-2.248 1.374 1.007 1.374 2.249z"/></g><path opacity=".6" d="M15.195 37.593c.419-2.609 2.223-4.335 4.598-5.641a8.72 8.72 0 0 1 5.614-1.044c2.602.387 4.266 2.342 3.925 4.701-.553 3.826-5.496 7.316-9.818 6.933-3.049-.271-4.711-2.177-4.32-4.949" fill="#f79e60"/><defs ><path id="B" d="M69.079 40.836c0 1.242-.615 2.248-1.374 2.248s-1.373-1.007-1.373-2.248 1.373-2.248 1.373-2.248 1.374 1.007 1.374 2.248z"/></defs></svg>
