<svg xmlns="http://www.w3.org/2000/svg" width="88" height="86" fill="none"><path d="M81.909 37.816C81.42 26.31 75.381 18.39 64.727 15.72c.359.533-12.674-3.909-20.696-3.909-8.052 0-21.275 5.298-20.825 4.824-3.706 1.13-6.328 3.091-9.641 5.841-7.083 5.88-7.46 20.849-7.46 23.414 0 18.821 16.98 34.079 37.926 34.079S81.958 64.71 81.958 45.889l-.048-8.073z" fill="#ef8c18"/><path d="M64.727 15.72C75.381 18.39 81.419 26.31 81.91 37.816c.072 1.679.049 6.977.049 8.073 0 18.821-16.98 34.079-37.926 34.079a40.99 40.99 0 0 1-19.719-4.963s23.07 4.409 38.133-12.36c11.578-12.888 14.226-35.018 2.281-46.925z" fill="#d15400"/><path d="M62.622 14.475l1.095 1.625c-2.145 2.752-5.369 3.491-8.535 4.049-2.17.383-3.511 1.011-4.633 3.192-1.197 2.324-3.4 4.183-5.378 6.015-.448.415-2.125.227-2.637-.284a44.91 44.91 0 0 1-5.097-6.019c-.735-1.054-1.287-1.635-2.639-1.526-3.545.285-6.627-.919-9.533-2.951-1.539-1.076-1.808-1.931-.539-3.266l2.934-2.05c2.356-1.518 4.913-2.459 7.751-2.203 1.339.121 2.129-.441 3.114-1.27 1.487-1.222 3.15-2.212 4.933-2.937.752-.312 1.971.076 2.815.48 3.114 1.493 5.872 3.504 9.625 3.824 2.32.198 4.49 2.154 6.727 3.32h-.001zm-25.305.4c2.07 2.113 11.109 2.526 12.859.767.958-.963.168-1.469-.661-1.666-1.607-.379-3.241-.785-4.878-.863-2.505-.118-5.017.055-7.32 1.761z" fill="#90c13d"/><path d="M37.315 14.876c2.303-1.707 4.815-1.88 7.32-1.761 1.638.077 3.272.482 4.878.862.829.197 1.619.703.661 1.666-1.75 1.76-10.789 1.347-12.859-.767z" fill="#69a744"/><path opacity=".8" d="M15.755 32.067c.419-2.609 2.222-4.336 4.598-5.642a8.72 8.72 0 0 1 5.614-1.043c2.602.387 4.266 2.342 3.925 4.7-.553 3.826-5.496 7.316-9.817 6.933-3.049-.271-4.711-2.177-4.32-4.948" fill="#f79e60"/></svg>
