<svg xmlns="http://www.w3.org/2000/svg" width="88" height="81" fill="none"><path d="M44.972 7.963c3.833-1.407 7.904-2.052 11.984-1.898 12.181.485 23.034 10.782 24.339 22.91.719 6.681.587 13.198-1.94 19.46-3.194 7.913-9.034 13.457-16.381 17.552-8.225 4.584-17.136 6.908-26.404 8.07-1.939.243-3.21-.323-4.49-2.089-1.723-2.404-3.853-4.488-6.294-6.157-8.744-5.819-15.4-13.267-18.233-23.481-3.038-10.953-.407-23.646 9.322-31.046 7.164-5.448 15.071-6.103 23.379-2.804.665.264 1.422.3 2.136.442 1.644 1.787 1.75-.564 2.582-.96" fill="#fc9b8b"/><path d="M18.056 19.249c.419-2.609 2.222-4.336 4.598-5.641a8.72 8.72 0 0 1 5.614-1.043c2.602.387 4.266 2.342 3.925 4.7-.553 3.826-5.496 7.316-9.817 6.933-3.049-.27-4.712-2.177-4.32-4.948" fill="#f9b5ac"/><path d="M44.972 7.963c3.833-1.407 7.904-2.052 11.984-1.898 12.181.485 23.034 10.782 24.339 22.91.719 6.681.587 13.198-1.94 19.46-3.194 7.913-9.034 13.457-16.381 17.552-8.225 4.584-17.136 6.908-26.404 8.07 0 0 26.404-8.07 32.283-28.494 4.297-14.927-.253-25.516-6.189-31.453C56.6 8.047 44.972 7.963 44.972 7.963z" fill="#ef7060"/></svg>
