<svg xmlns="http://www.w3.org/2000/svg" width="86" height="94" fill="none"><path d="M42.273 27.088s-4.145-10.174 4.886-15.872c0 0 4.632-2.399 12.122-4.31L42.273 27.088z" fill="#90c13d"/><path d="M42.199 27.025s10.721 2.4 14.842-7.45c0 0 1.598-4.966 2.241-12.67L42.199 27.025z" fill="#69a744"/><path d="M74.761 32.252c-9.743-9.62-19.811-9.889-26.476-7.427-3.48 1.286-7.305 1.286-10.785 0-6.665-2.462-16.733-2.194-26.476 7.427-13.049 12.884 3.311 42.821 9.933 50.969 4.118 5.067 12.076 5.078 17.507 4.361a33.88 33.88 0 0 1 8.859 0c5.429.717 13.388.706 17.507-4.361 6.622-8.147 22.982-38.084 9.933-50.968" fill="#e93337"/><path d="M48.285 24.825c6.665-2.462 16.733-2.193 26.476 7.427 13.049 12.884-3.311 42.821-9.933 50.968-4.118 5.067-12.076 5.078-17.507 4.361 0 0 11.506-.951 14.727-9.288s15.347-31.074 8.716-41.684-11.99-12.769-22.479-11.784" fill="#c0202f"/><path opacity=".6" d="M14.828 41.726c.044-5.373 5.642-10.383 11.005-9.851 2.859.283 4.853 2.8 4.663 5.884-.288 4.668-5.392 9.488-10.091 9.531-3.471.032-5.605-2.097-5.577-5.565z" fill="#f79e60"/></svg>
