<svg xmlns="http://www.w3.org/2000/svg" width="84" height="88" fill="none"><path d="M77.747 42.783c-.432 8.909-1.816 17.491-7.004 25.153-6.823 10.075-16.982 14.164-29.31 14.04-8.099-.081-15.64-2.025-22.109-6.846-8.335-6.213-11.934-14.709-12.882-24.336-1.198-12.162.823-23.646 9.651-33.186C25.756 7.162 38.114 4.189 52.129 7.496c13.454 3.174 21.195 11.762 24.12 24.271.842 3.602 1.018 7.341 1.499 11.017l-.001-.001zM41.487 9.902c2.149 1.961 4.436 2.412 7.011 1.432.493-.188 1.173-.629 1.213-1.005.046-.435-.406-1.077-.84-1.368-1.701-1.143-5.455-.705-7.383.942" fill="#a17c3d"/><path d="M50.997 10.529c0 1.266-2.294 2.293-5.124 2.293s-5.124-1.026-5.124-2.293 2.294-2.293 5.124-2.293 5.124 1.026 5.124 2.293z" fill="#774d31"/><path d="M52.128 7.495c13.454 3.174 21.195 11.763 24.12 24.271.842 3.602 1.018 7.342 1.499 11.018-.432 8.909-1.816 17.491-7.004 25.153-6.823 10.075-16.982 14.164-29.31 14.04 0 0 23.621-8.029 27.883-29.913 4.598-23.599-2.842-39.505-17.188-44.568z" fill="#845f2b"/><path opacity=".6" d="M20.617 27.03c.044-5.372 5.642-10.383 11.005-9.851 2.86.283 4.853 2.8 4.662 5.885-.288 4.668-5.392 9.488-10.091 9.531-3.471.032-5.605-2.097-5.577-5.565z" fill="#ba9663"/></svg>
