<svg xmlns="http://www.w3.org/2000/svg" width="86" height="92" fill="none"><path d="M47.944 10.514h5.496c-1.23.989-2.115 1.551-2.815 2.291-2.225 2.353-2.014 4.781.653 6.547 1.433.949 3.038 1.649 4.6 2.389l6.37 2.892c10.473 4.909 15.457 13.566 16.977 24.675.944 6.901-.518 13.409-3.015 19.729-2.649 6.705-7.593 11.257-14.308 13.662-11.195 4.011-22.653 4.307-33.998.927C16.126 80.116 9.447 71.755 7.14 59.811c-1.022-5.291-1.069-10.611.101-15.887 1.999-9.019 7.918-14.706 15.981-18.487 2.229-1.045 4.544-1.908 6.821-2.855.861-.358 1.753-.653 2.577-1.081 1.819-.944 4.011-1.718 4.022-4.221.012-2.547-1.488-4.335-3.642-5.583-.337-.195-.687-.367-1.031-.55l-.003-.679 4.07-.231 1.571-.073 3.262 2.774.591-.358-.302-2.1 1.994-3.554 1.971 2.87.749 2.944 2.073-2.227" fill="#d6345f"/><path d="M41.158 10.481l.302 2.1-.591.358-3.262-2.774-.91-2.344c2.169-.029 3.436 1.11 4.46 2.66m6.787.033l-2.073 2.227-.75-2.944 3.455-2.548-.632 3.265m3.335 8.839c1.433.949 3.038 1.648 4.6 2.389l6.37 2.891C72.722 29.542 77.705 38.2 79.225 49.308c.944 6.901-.518 13.409-3.015 19.729-2.649 6.705-7.593 11.257-14.307 13.662-11.195 4.011-22.653 4.307-33.998.927 0 0 28.495 2.28 37.21-8.71s9.853-31.074 4.674-38.905-14.905-14.147-16.042-14.526-5.133-3.898-2.466-2.132" fill="#bb1054"/><path d="M19.825 34.683c1.124-4.775 6.462-8.251 10.495-6.834 2.15.755 3.178 3.346 2.405 6.06-1.17 4.105-6.088 7.499-9.724 6.71-2.686-.582-3.901-2.854-3.176-5.937" fill="#e24b7a"/></svg>
