<svg xmlns="http://www.w3.org/2000/svg" viewBox="0 0 531 550"><defs><style>.cls-1{fill:#f8995a}.cls-4{fill:#ffb07b}.cls-5{fill:#387a2b}.cls-6{fill:#63bc46}.cls-7{fill:#f39ac0}.cls-8{fill:#ee509b}.cls-9{fill:#55a33d}.cls-10{fill:#f8c7db}.cls-11{fill:#f174ac}.cls-12{fill:#9d1869}.cls-13{fill:#fcb21a}.cls-14{fill:#f89d1c}.cls-17{fill:#fff}.cls-20{fill:#fdd1b0}.cls-21{fill:#ffd999}.cls-23{fill:#fdbf4b}.cls-24{fill:#f289b6}.cls-25{fill:#ba4a84}.cls-26{fill:#cb82a4}.cls-27{fill:#8dc970}.cls-28{fill:#f48221}.cls-29{fill:#ba586d}.cls-30{fill:#b1451c}.cls-31{fill:#73004b}.cls-33{fill:#3c2415}.cls-34{fill:#39b54a}.cls-35{fill:#006838}.cls-36{fill:#004821}.cls-38{fill:#fa493f}.cls-39{fill:#f58a74}.cls-40{fill:#efba95}.cls-41{fill:#f4bd40}.cls-42{fill:#bf733e}.cls-43{fill:#e9a677}.cls-44{fill:#2f8aa1}.cls-45{fill:#fca30b}.cls-46{fill:#f7901e}.cls-47{fill:#205e6e}.cls-48{fill:#f37561}.cls-49{fill:#bf7d31}.cls-50{fill:#629bb0}.cls-52{fill:#a1e0ff}.cls-53{fill:#c60d05}.cls-54{fill:#75a5b8}.cls-56{fill:#ef3839}.cls-57{fill:#f6c96b}.cls-58{fill:#64cafa}.cls-59{fill:#007b92}.cls-64{fill:#f4d2b8}.cls-65{fill:#fcb859}.cls-66{fill:#d1eefc}.cls-67{fill:#f37460}.cls-68{fill:#649db1}.cls-69{fill:#b0c7d3}.cls-70{fill:#f9d794}</style></defs><g id="Слой_2" data-name="Слой 2"><g id="Слой_1-2" data-name="Слой 1"><g id="_Группа_" data-name="&lt;Группа&gt;"><path class="cls-1" d="M254 180c-5-2-11-4-8 1l10 9a9 9 0 0 1 2-5 14 14 0 0 1 1-2 20 20 0 0 1-5-3z"/><path class="cls-1" d="M262 181a21 21 0 0 1 1-2l-7-5-7-3c-5 1 0 6 5 9l5 3a21 21 0 0 1 3-2z"/><path d="M326 429c12-1 14-6 23-12 10-6 6-5 16 2l9 7a36 36 0 0 0 9 5c15 7 30-5 37-18a12 12 0 0 1-7-3c-4 8-16 12-23 11a50 50 0 0 1-17-7c-5-4-9-11-16-11s-12 5-16 9c-5 6-9 7-17 7-12 0-23-2-33-10l-9-10c-2-3-1-3-4-3l-6 1c-5-2-9-6-13-10a13 13 0 0 1-3-9 20 20 0 0 1-7 1c3 9 10 19 16 26 4-4 8-2 13 3 6 5 13 16 19 18a62 62 0 0 0 29 3z" fill="#be598c"/><path class="cls-1" d="M255 167c-4 0-3 4 1 7l7 5a22 22 0 0 1 3-2c-1-4-8-7-11-10z"/><path d="M256 378a13 13 0 0 0 3 9c4 4 8 8 13 10 3 1 4 0 6-1s2 0 4 3l9 10c10 8 21 10 33 10 8 0 12-1 17-7 4-4 10-8 16-9s11 7 16 11a50 50 0 0 0 17 7c7 1 19-3 23-11-9-8-17-30-20-44a9 9 0 0 0-3-1c-5-1-5 4-7 7-6 9-15-1-19-7-11 11-32 4-43-5a23 23 0 0 1-7-8c-1-2-1-6-4-7-2-1-5 3-7 4a15 15 0 0 1-8 2 16 16 0 0 1-7-3c-9 13-20 28-32 30z" fill="#b21f76"/><path class="cls-4" d="M258 168a9 9 0 0 0-3-1c3 3 10 6 11 10a13 13 0 0 1 2-1c-3-2-6-6-9-7l-1-1z"/><path class="cls-1" d="M258 168l1 1c3 1 6 5 9 7a7 7 0 0 1 2 0 12 12 0 0 1 3-2c-5-3-12-7-15-6z"/><path class="cls-4" d="M258 185a9 9 0 0 0-2 5 41 41 0 0 0 9 5c4-7 15-14 22-12 0-5 1-11 4-16a26 26 0 0 0-8 8 63 63 0 0 1-7 0 20 20 0 0 1-3-1 12 12 0 0 0-3 2 7 7 0 0 0-1 0 13 13 0 0 0-3 1 22 22 0 0 0-3 2 21 21 0 0 0-1 2 21 21 0 0 0-3 2 14 14 0 0 0-1 2z"/><path class="cls-1" d="M289 186c4-3 5-9 5-10 2-3 11-8 2-10a8 8 0 0 0-5 1c-3 5-4 11-4 16-7-2-18 5-22 12a18 18 0 0 0 4 1c4 9 4 19 7 28v1l1-1a46 46 0 0 1 5-6l1-1a10 10 0 0 1 1 0 4 4 0 0 1 0-1l1-1a3 3 0 0 1 1 0l1-1-2-4a22 22 0 0 1-1-9c0-4 4-11 9-11l-4-4z"/><path class="cls-5" d="M313 527h-2a78 78 0 0 1-23 3l-17-1-1 1v3a5 5 0 0 0 1 0h1a35 35 0 0 0 4 1 2 2 0 0 1 1 0h1l12 1c8 0 16-1 24-4 4-1 9-3 12-6 2-2 2-5 1-7l-1-1c0 3-8 7-13 10z"/><path class="cls-6" d="M271 529l17 1c-1-7-5-11-9-15l-6 3c-2 4-2 7-2 11z"/><path class="cls-4" d="M290 503a7 7 0 0 1 0 1v1c0 1 0 0 0 0a7 7 0 0 1 0 1l-1 1a10 10 0 0 1-1 2h4c5 0 11 0 15-5 3-5 3-12 3-17 0-6-1-11-3-16-2-6-6-13-11-17l7-2v-11c-1-4-6-9-9-11l-13-9-6-6c-12 32 0 56 15 88z"/><path class="cls-1" d="M321 501c-4-8 1-20-3-29-3-8-9-13-8-21 4-6 9-14 10-21-7 0-16-1-23-4-6-2-13-13-19-18l-3 7 5 6 13 9c3 2 9 7 10 11v12l-7 1a47 47 0 0 1 14 32c0 6 0 13-3 18-4 5-10 5-15 5h-4a3 3 0 0 1-1 1 12 12 0 0 1-2 2l7 6c3 3 9 0 12-1 5-1 9-4 13-7l6-4-3-6 1 1z"/><path class="cls-7" d="M277 224l-1 1a44 44 0 0 0 3 7 46 46 0 0 1 4-4l3-3a43 43 0 0 0-2-8 10 10 0 0 0-1 0l-1 1a46 46 0 0 0-5 6z"/><path class="cls-8" d="M315 288l3-4 5-5c-5-2-8-7-11-11-4-5-9-11-12-17-4-5-9-11-12-18a60 60 0 0 1-2-8l-3 3a46 46 0 0 0-4 4 35 35 0 0 0 6 8h1c2 9 5 19 9 27s12 16 18 23l2-2z"/><path class="cls-4" d="M282 218z"/><path class="cls-9" d="M284 512a52 52 0 0 1-5 3c4 4 8 8 9 15a78 78 0 0 0 23-3h2c-2-5 2-12 4-17l-13 7c-3 1-9 4-12 1l-7-6a10 10 0 0 1-1 0z"/><path class="cls-10" d="M287 214a11 11 0 0 0-1 1 3 3 0 0 0-1 0l-1 1a4 4 0 0 0 0 1 43 43 0 0 1 2 8 66 66 0 0 1 8-7c3-2 10-7 14-6a55 55 0 0 0-4-7c-7 3-12 5-17 9z"/><path class="cls-4" d="M284 201a22 22 0 0 0 1 9l2 4a67 67 0 0 1 17-9 119 119 0 0 0-11-15c-5 0-9 7-9 11z"/><path class="cls-11" d="M284 216l1-1-1 1zM286 215a11 11 0 0 1 1-1l-1 1zM287 214c5-4 10-6 17-9a67 67 0 0 0-17 9zM312 223a39 39 0 0 0-4-11c-4-1-11 4-14 6a66 66 0 0 0-8 7 60 60 0 0 0 2 8c3 7 8 13 11 18 4 7 9 12 13 17 3 4 6 9 11 11l3-1v-1a77 77 0 0 1 0-17l4-11a566 566 0 0 1-18-26z"/><path class="cls-4" d="M288 509l-1 1a3 3 0 0 0 1-1zM289 507zM290 506a6 6 0 0 1-1 1l1-1zM290 505zM290 504a7 7 0 0 1 0 1v-1z"/><path class="cls-12" d="M288 348a16 16 0 0 0 7 3 15 15 0 0 0 8-2c2-1 5-5 7-4 3 1 3 5 4 7a23 23 0 0 0 7 8c11 9 32 16 43 5 4 6 13 16 19 7 2-3 2-8 7-7a9 9 0 0 1 3 1l-3-10c-42-18-67-23-91-26l-11 18z"/><path class="cls-12" d="M375 341l-33-12-9-3a237 237 0 0 0-32-6 33 33 0 0 0-2 10c24 3 49 8 91 26l3-9c-4-4-11-4-17-6h-1z"/><path class="cls-11" d="M314 291c-4 8-10 19-13 28v1a237 237 0 0 1 32 6h1c2-9 4-18 9-27a132 132 0 0 1 7-14l-1 1c-5 2-7 7-13 6s-10-8-10-14l-3 1-5 5-3 4-1 3z"/><path class="cls-13" d="M308 212a39 39 0 0 1 4 11l7 11c3 2 8 4 7 0 1 2 5 5 8 4a6 6 0 0 0 1-1v-1c2-6 4-10 5-17v-1c0 1-1 2-3 2-3 1-6-4-9-6 1 5-6 3-10-1-5 0-8 1-11-4h-1l2 3z"/><path class="cls-14" d="M317 213a8 8 0 0 0 2 0h-1c4 4 11 6 10 1 3 2 6 7 9 6 2 0 3-1 3-2l4-21a141 141 0 0 0 1-7l-8-2a49 49 0 0 1 11-17 50 50 0 0 1 5-4l-1-2c-8 5-15 15-18 23-2 7-3 18-13 14-8-3-7-13 1-15-14-3-14 21-5 26z"/><path class="cls-6" d="M317 510c-2 5-6 12-4 17 5-3 13-7 13-9a1 1 0 0 0 0-1 15 15 0 0 0 0-2v-1l-1-1a51 51 0 0 0-2-7l-6 4z"/><path class="cls-11" d="M313 290l1 1 1-3-2 2z"/><path class="cls-14" d="M330 249l4 6 1-2a27 27 0 0 1-1-13l1-3a6 6 0 0 1-1 1c-3 1-7-2-8-4 1 4-4 2-7 0l11 15z"/><path class="cls-4" d="M326 433c-1 8-1 16 1 21 3 9 16 13 29 18l27 12a32 32 0 0 0 0 4l1 3 1 4h1a10 10 0 0 1 6-2c4-3 5-10-1-12 8-4-1-19-5-24-5-7-19-13-28-10 2-4 4-8 3-12l-3-6a18 18 0 0 0-3-5l-7 5-10 4c-4 1-9 2-12 0z"/><path class="cls-8" d="M359 276a8 8 0 0 1 1 0l-3-1c-9 3-10 13-18 11-6-1-8-11-9-17l4-14-4-6-4 11a77 77 0 0 0 0 17v1c0 6 4 13 10 14s8-4 13-6l1-1 9-9z"/><path class="cls-1" d="M406 473c1-4 1-9-1-11-23-27-35-23-35-23 0-5 2-9 4-13l-9-7c-10-7-6-8-16-2-9 6-11 11-23 12v4c3 2 9 0 12 0l10-4 7-5a18 18 0 0 1 3 5l3 6c1 4-1 8-3 12 9-3 23 3 28 10 4 5 13 20 5 24 6 2 5 9 1 12a17 17 0 0 1 9 3c3-4 4-13 5-17v-6z"/><path class="cls-7" d="M334 255l-4 14c1 6 3 16 9 17 8 2 9-8 18-11a62 62 0 0 1-7-4c-2 2-7 5-10 4-6-2-3-8 0-13a26 26 0 0 1-5-9l-1 2z"/><path class="cls-11" d="M343 299a132 132 0 0 1 7-14c2 5 8 10 11 13 5 5 13 9 20 7a17 17 0 0 0 4-1l6 3 4 5c-2 0-5-1-7 1 8 4 3 11-1 16-3 4-7 10-12 11l-33-11-9-3h1c2-9 4-18 9-27zm-2 27a4 4 0 1 0-4-4 4 4 0 0 0 4 4zm5-14a4 4 0 1 0-4-3 4 4 0 0 0 4 3zm6-12a4 4 0 1 0-4-4 4 4 0 0 0 4 4z"/><path class="cls-4" d="M366 241c1 3 13 9 13 3a36 36 0 0 1-6-1l-8-5 1 3zm-7 14a17 17 0 0 1 0 3c0 2 0 4 3 6s8 4 12 2a8 8 0 0 0 2-1c3-1 5-4 7-7l2-3c-10 1-22-4-30-11v1a43 43 0 0 1 2 4l2 6zm41-17a10 10 0 0 0 5-1c-1-3-2-6-7-7-3 0-6 1-7 5a22 22 0 0 1 9 3zm-41-14c3-6-7-9-11-5a5 5 0 0 0-1 3 19 19 0 0 1 12 2zm-25 16l1-3a1 1 0 0 0 0-1c2-6 4-10 5-17v-1l4-21 12 4 5 1 13 5 19 6a50 50 0 0 1 8 2 26 26 0 0 1 8 6c4 4 5 10 4 15l-2 18a75 75 0 0 1-4 15c-2 4-7 13-13 13h-1a99 99 0 0 1-24-3 82 82 0 0 1-9-3l-2-1a62 62 0 0 1-7-4 39 39 0 0 1-11-9 26 26 0 0 1-5-9 27 27 0 0 1-1-13z"/><path class="cls-4" d="M335 236v1a1 1 0 0 0 0-1z"/><path class="cls-11" d="M340 262c-3 5-6 11 0 13 3 1 8-2 11-4a39 39 0 0 1-11-9z"/><path class="cls-10" d="M341 319a4 4 0 1 0 4 3 4 4 0 0 0-4-3z"/><path d="M421 219c7 2 15 3 18 2-4-3 0-11 1-18a25 25 0 0 1-12 4c-6 1-10-2-14-8-5 3-8-4-8-8-10 7-24-2-30-11l-3 3a15 15 0 0 1-4 1c-5 0-5-3-9-5l-8-1c-3-1-4-3-4-6v-1a49 49 0 0 0-11 17l8 2a51 51 0 0 1 7 3l9-7a21 21 0 0 0-2 11c11 3 22 8 33 10l2-4c0 6 3 7 8 9l3-4c-1 5 7 9 16 11z" fill="#fdc561"/><path class="cls-1" d="M418 259v-11a249 249 0 0 1 3-29c-9-2-17-6-16-11l-3 4c-5-2-8-4-8-9l-2 4c-11-2-22-7-33-10a21 21 0 0 1 2-11l-9 7a51 51 0 0 0-7-3 69 69 0 0 0-1 7l12 4 5 1 13 5c7 1 12 4 19 6a50 50 0 0 1 8 2 26 26 0 0 1 8 6c4 4 5 10 4 15l-2 18a75 75 0 0 1-4 15c-2 4-7 13-13 13h2a41 41 0 0 0 9-2 57 57 0 0 0 13-5 7 7 0 0 1 3-2c-2-2-3-8-3-14z"/><path class="cls-10" d="M346 305a4 4 0 1 0 3 4 4 4 0 0 0-3-4z"/><path class="cls-13" d="M429 169c-21-21-55-19-76-2a50 50 0 0 0-5 4v1c0 3 1 5 4 6l8 1c3 2 4 5 9 5a15 15 0 0 0 4-1l3-3c6 9 20 18 30 11 0 4 3 11 8 8 4 6 8 9 14 8a25 25 0 0 0 12-4 19 19 0 0 0 1-3 37 37 0 0 0-1-5c0-6-2-13-4-17v-1l-7-8z"/><path class="cls-1" d="M348 219a5 5 0 0 0-1 3 19 19 0 0 1 12 2c3-6-7-9-11-5z"/><path class="cls-8" d="M416 279a85 85 0 0 1-15 13l-16 12a17 17 0 0 1-4 1c-7 2-15-2-20-7-3-3-9-8-11-13l9-9 12 21c3 4 10 2 15 0 7-4 12-10 19-17a57 57 0 0 0 13-5v1l-1 1-1 2zm-59 9a4 4 0 1 0-3-4 4 4 0 0 0 3 4z"/><path class="cls-10" d="M352 293a4 4 0 1 0 3 3 4 4 0 0 0-3-3z"/><path d="M430 157c-40-25-75 5-78 8l1 2c21-17 55-19 76 2 3 3 6 6 7 9 2 4 4 11 4 17a34 34 0 0 0 7 0c-1 4 7 6 9 3-1-14-5-30-26-41z" fill="#f58520"/><path class="cls-17" d="M355 244v1a43 43 0 0 1 2 4c8 5 16 9 26 9l2-3c-10 1-22-4-30-11z"/><path class="cls-7" d="M357 281a4 4 0 1 0 4 3 4 4 0 0 0-4-3z"/><path d="M357 249l2 6a17 17 0 0 1 0 3h1a11 11 0 0 1 4 1c5 1 10 3 10 7a8 8 0 0 0 2-1c3-1 5-4 7-7-10 0-18-4-26-9z" fill="#800b15"/><path d="M364 259a11 11 0 0 0-4-1h-1c0 2 0 4 3 6s8 4 12 2c0-4-5-6-10-7z" fill="#ef4136"/><path class="cls-7" d="M360 276a8 8 0 0 0-1 0l12 21c3 4 10 2 15 0 7-4 12-10 19-17a41 41 0 0 1-9 2h-3c-3 3-9 6-11 6-5 1-11-4-13-9a82 82 0 0 1-9-3z"/><path class="cls-1" d="M365 238l1 3c1 3 13 9 13 3a36 36 0 0 1-6-1l-8-5z"/><path class="cls-8" d="M408 321c11-4 46-21 53-27a45 45 0 0 0 15-8 37 37 0 0 0-4-10 48 48 0 0 1-6 3c-6 4-12 2-18 3a5 5 0 0 1 0 1c0 5-7 11-11 15l-15 9c-11 4-21 0-31 1l4 4c-2 0-5-1-7 1 8 4 3 11-1 16-3 4-7 10-12 12h1c6 2 13 2 17 6 6-15 12-22 15-26z"/><path class="cls-11" d="M369 279c2 5 8 10 13 9 2 0 8-3 10-6a99 99 0 0 1-23-3z"/><path class="cls-4" d="M383 488l1 3-1-3z"/><path class="cls-5" d="M414 479a73 73 0 0 1-4 23l-1 2a16 16 0 0 1-1 2 36 36 0 0 1-2 4c-5 8-12 10-17 7a15 15 0 0 1-4-2c-1 3 0 5 2 7a12 12 0 0 0 5 1 18 18 0 0 0 2 0c7 0 10-3 14-8 6-9 9-20 10-31 0-7 1-21-9-21 4 3 5 9 5 16z"/><path class="cls-6" d="M389 517c5 2 12 0 17-7-1-5-15-7-19-5a19 19 0 0 1-1 8 18 18 0 0 1-1 2 15 15 0 0 0 4 2z"/><path class="cls-11" d="M385 304l6 4c10-1 20 3 31-1l15-9c4-4 11-10 11-15a5 5 0 0 0 0-1c6-1 12 1 18-3a48 48 0 0 0 6-3 135 135 0 0 0-11-17 81 81 0 0 0-9 7l-28 8-7 2-1 3a85 85 0 0 1-15 13l-16 12z"/><path class="cls-9" d="M408 506l1-2 1-2a73 73 0 0 0 4-23c-3 0-7-3-8-6v6c-1 5-2 13-5 17a17 17 0 0 0-9-3 10 10 0 0 0-6 2h-1a46 46 0 0 1 2 10c4-2 18 1 19 5a26 26 0 0 0 2-4z"/><path class="cls-1" d="M391 235a22 22 0 0 1 9 3 10 10 0 0 0 5-1c-1-3-2-6-7-7-3 0-6 1-7 5z"/><path class="cls-5" d="M406 510c-5 7-12 9-17 7 5 3 12 1 17-7zM406 510a36 36 0 0 0 2-4 26 26 0 0 1-2 4z"/><path class="cls-6" d="M409 463a7 7 0 0 0-4-1c2 2 2 7 1 11 2 3 6 6 8 6 0-7-1-13-5-16z"/><path class="cls-5" d="M408 506z"/><path class="cls-4" d="M418 275l-1 2 7-3a4 4 0 0 1-3-1 7 7 0 0 0-3 2z"/><path class="cls-13" d="M467 246c8-4 12-12 11-21 0-4-1-9-5-11 2 3 2 10-1 12-5 5-11 3-14-1-2 3-5 6-8 2 1 3 3 11 1 13-4 3-11-4-12-7 0 6-9 9-12 4 1 3-5 3-9 2v20c3 3 10 6 11-1 3 2 6 5 10 5s8-3 7-7c4 6 21-5 21-10z"/><path class="cls-14" d="M427 237c3 5 12 2 12-4 1 3 8 10 12 7 2-2 0-10-1-13 3 4 6 1 8-2a11 11 0 0 1-2-6v-21c-2 3-10 1-9-3a34 34 0 0 1-7 0 37 37 0 0 1 1 5 19 19 0 0 1-1 3c-1 7-5 15-1 18-3 1-11 0-18-2l-3 20c4 1 10 1 9-2zM421 273a4 4 0 0 0 3 1l28-8a81 81 0 0 1 9-7l6-4h1a42 42 0 0 1 9 11 37 37 0 0 0-9-11l5-3a14 14 0 0 0 3-8v-1c-1 4-6 4-9 3 0 5-17 16-21 10 1 4-4 7-7 7s-7-3-10-5c-1 7-8 4-11 1 0 6 1 12 3 14z"/><path class="cls-10" d="M478 270a13 13 0 0 0 1-1l-1-2-1-1a42 42 0 0 0-9-11h-1l-6 4 8 13 3 4a28 28 0 0 0 6-6z"/><path class="cls-4" d="M473 252l-5 3a37 37 0 0 1 9 11l1 1 1 2v1c5 0 10-2 12-5a16 16 0 0 0 2-6 13 13 0 0 0 0-2c4 3 11 6 16 6a86 86 0 0 0 19-1l-7-2a20 20 0 0 1-7 0 26 26 0 0 0 0-3 28 28 0 0 0-1-3l-1-2a16 16 0 0 0-2-3 4 4 0 0 0 0-1 11 11 0 0 0-2-3 16 16 0 0 1-3-1v1c-3-2-10 0-12-2-1-2 1-6-1-9a12 12 0 0 0-5-5l1 6c0 2-2 8-1 12a68 68 0 0 0-14 5z"/><path class="cls-7" d="M478 270a28 28 0 0 1-6 6 37 37 0 0 1 4 10 88 88 0 0 0 8-7l-5-9a7 7 0 0 1-1 0z"/><path class="cls-11" d="M478 270a7 7 0 0 0 1 0v-1a13 13 0 0 1-1 1z"/><path class="cls-1" d="M479 270l5 9h1c4-5 9-10 15-13a11 11 0 0 1-7-7 16 16 0 0 1-2 6c-2 3-8 5-12 5zM498 240c0-5-3-13-7-14s-5 0-4 3a12 12 0 0 1 5 5c2 2 0 6 1 9 2 2 9 0 12 2v-1a72 72 0 0 1-7-4z"/><path class="cls-1" d="M493 257a13 13 0 0 1 0 2 11 11 0 0 0 7 7c8 3 20 0 26-1 3-2 3-3 2-3a86 86 0 0 1-19 1c-5 0-12-3-16-6zM508 245a11 11 0 0 1 2 3 4 4 0 0 1 0 1l13-2 1 1c-3-3-11-3-16-3z"/><path class="cls-4" d="M510 249a16 16 0 0 1 2 3 48 48 0 0 1 16-3l-4-1-2-1-12 2z"/><path class="cls-1" d="M512 252l1 2 9-1c5 0 7-2 6-4a48 48 0 0 0-16 3z"/><path class="cls-4" d="M522 253l-9 1a28 28 0 0 1 1 3c5-1 11-2 16-1a4 4 0 0 0 0-1c-2-2-5-2-8-2z"/><path class="cls-1" d="M514 257a26 26 0 0 1 0 3h7c5 0 11-2 9-5l-16 2z"/></g><path class="cls-20" d="M327 431a26 26 0 0 0 10 33c7 4 16 6 24 9l24 12a1 1 0 0 0 1-2c-3-4-8-6-12-8l-18-8c-8-3-16-5-22-10s-6-18-7-26zM371 440c10 5 19 11 27 19 9 9 4 21 4 33h1c3-11 6-24-1-34-6-9-20-18-30-19l-1 1zM369 437c2-3 2-6 3-10a1 1 0 0 0 0-1l-2-1a1 1 0 0 0-1 1l-1 11h1zM318 431l-8 14c-2 2-5 7-3 9a1 1 0 0 0 1 0l2-4 4-7c3-3 5-8 5-12a1 1 0 0 0-1 0z"/><path class="cls-20" d="M307 453c3 11 10 22 11 33 1 7-4 16 3 21 1 1 2 0 1-1-4-6-2-11-1-17 0-5-1-9-3-14-3-7-4-17-10-23a1 1 0 0 0-1 1zM277 409c-5 16-8 29-5 45s7 33 17 47l1-1c-5-15-11-28-14-44-1-9-3-16-1-25l3-21-1-1z"/><path class="cls-20" d="M283 446a4 4 0 0 0-4-1c-2 1-1 4 1 3a14 14 0 0 0 3-1 1 1 0 0 0 0-1zM280 450a1 1 0 0 0 0 1 1 1 0 0 0 0 1 1 1 0 0 0 1 0c1-1 0-2-1-2zM342 449a13 13 0 0 0-4 2c-1 2 0 4 2 2 1-1 3-2 3-4h-1zM343 454a1 1 0 0 0-1 2 1 1 0 0 0 1 0 1 1 0 0 0 1 0 1 1 0 0 0-1-2zM313 510c-2 3-7 3-10 4a16 16 0 0 1-8 1l-6-5a1 1 0 0 0-1 1c2 12 22 7 26-1h-1zM393 492l-3-1h-5l2 2v-8c0-1-1-4-3-4a1 1 0 0 0-1 2l1 2a7 7 0 0 1 0 2v6a1 1 0 0 0 1 1 26 26 0 0 0 6-1l2-1zM530 257c3-2-3-3-4-4a26 26 0 0 0-7 0l-5 1a1 1 0 0 0 0 2h8c2 0 7-1 8 1zM527 250c0-2-3-2-5-3a13 13 0 0 0-5 1l-6 1a1 1 0 0 0 0 2c2 1 5 0 7-1s7-2 9 0zM527 262c-1-2-3-2-5-2h-7a1 1 0 0 0-1 1 1 1 0 0 0 1 1c4 1 9-2 11 1l1-1z"/><path class="cls-20" d="M508 248a30 30 0 0 1 3 9c1 2 0 4 2 6a1 1 0 0 0 1 0c2-2 0-5 0-7a19 19 0 0 0-5-8h-1zM515 246l-9-2-7-3a1 1 0 0 0-1 1c1 3 5 3 7 4a25 25 0 0 0 10 0zM497 235c0-3-1-6-3-8-2-1-5-2-6 1a5 5 0 0 0-1 3v11c0 4 0 8 3 9a1 1 0 0 0 1 0c-1-3-2-5-1-8v-7c0-1-2-8 2-7 2 0 4 4 4 6h1zM515 265l-12-2a20 20 0 0 1-6-4l-5-5a1 1 0 0 0-1 1c0 4 4 8 8 9a28 28 0 0 0 16 2v-1z"/><path class="cls-20" d="M489 249c-3-2-6 0-8 1-4 1-9 2-12 5-1 1 0 2 1 2 7-2 12-7 19-8z"/><path class="cls-20" d="M484 276a108 108 0 0 1-5-13c-2-4-4-9-8-10a1 1 0 0 0-1 3l4 4a37 37 0 0 1 4 7c1 3 2 8 6 9zM301 204l-4-7-7-10c-2-1-4 1-2 2l6 8c2 2 5 4 6 7h1z"/><path class="cls-20" d="M300 204v1l2-2a18 18 0 0 0-16 11c5-3 10-8 16-8a1 1 0 0 0 1-3h-1a1 1 0 0 0-2 1zM296 173c1-1 3-1 3-3a3 3 0 0 0-3-3c-3-1-6 2-8 3s-5 4-5 6l3-2a37 37 0 0 1 5-2l5-2-1 3h1zM275 175c-7 0-18 4-17 12h1c4-4 9-9 16-11v-1zM271 174l-5-3c-2-1-3-3-4-2a1 1 0 0 0-1 0l4 4 5 2 1-1z"/><path class="cls-20" d="M267 175a30 30 0 0 0-6-5c-1-1-3-3-6-3a1 1 0 0 0 0 1l5 4 6 4 1-1zM262 179c-2-3-8-9-13-7a1 1 0 0 0 1 2c4 0 8 4 12 6v-1zM257 183a16 16 0 0 0-5-3c-1-1-3-2-4-1s1 2 2 2a35 35 0 0 1 7 3v-1zM276 215c-1-6 0-14-4-19-1-1-2 0-2 1l3 9 2 9h1z"/><path class="cls-20" d="M279 192l-8 2a20 20 0 0 1-5-1 29 29 0 0 0-3-1l-1 1c2 3 6 3 9 3s7-1 8-4zM403 241l-5-4-8-2v1l6 2 7 4v-1zM358 225c-1-2-4-2-5-3-3 0-5-1-7 1a1 1 0 0 0 0 1l5 1a21 21 0 0 1 6 1 1 1 0 0 0 1-1zM377 243c0-1-2-3-3-2a1 1 0 0 0-1 1l3 2a1 1 0 0 0 1-1zM372 241c-1-2-2-3-4-2 1 2 2 2 3 2a1 1 0 0 0 1 0zM350 238c0-2-2-4-3-4a1 1 0 0 0-2 1 7 7 0 0 0 4 4 1 1 0 0 0 1-1zM344 232l-2-2a1 1 0 0 0 0 1l1 2a1 1 0 0 0 1-1zM397 252a5 5 0 0 0 3-1 2 2 0 0 0 0-3 5 5 0 0 0-3 1 1 1 0 0 0 0 3zM404 250a3 3 0 0 0 3 0 1 1 0 0 0-1-3 7 7 0 0 0-2 1 1 1 0 0 0 0 2z"/><path class="cls-20" d="M344 191c3 24-22 59 3 77a66 66 0 0 0 38 13c12 0 26 1 35-9 1-1-1-3-2-2-10 7-21 7-33 7-14 1-30-4-40-15-12-12-4-32-1-46 2-8 5-18 1-25h-1z"/><path class="cls-20" d="M385 254h-5a49 49 0 0 1-6-2c-6-2-11-6-17-7a47 47 0 0 0 15 8c4 1 8 3 12 2a1 1 0 0 0 1 0v-1z"/><path class="cls-21" d="M430 177c5 11 3 20 1 32 0 4 0 9 3 12l2-2c-4-7 0-15 0-23 1-6-2-13-6-19zM425 182c2 9-1 15-2 24-1 4-1 9 1 13 1 1 3 0 2-2-3-7 0-14 1-21 1-5 0-10-2-15v1zM416 172c2 10 1 19-2 28-2 6-2 11-1 16a1 1 0 0 0 2 0c-2-9 2-18 3-26a45 45 0 0 0-1-18h-1zM411 184l-5 12a26 26 0 0 0 0 12 1 1 0 0 0 1 0l2-13c1-4 3-7 3-11h-1zM409 174a48 48 0 0 0-13 32 1 1 0 0 0 2 0 49 49 0 0 1 11-31v-1zM398 173c-2 7-7 13-11 20-1 3-3 7-3 11h1c3-3 3-8 4-11 3-7 8-12 10-20h-1zM398 163c-11 11-23 23-23 39a1 1 0 0 0 2 0c1-17 12-26 21-38v-1zM387 166c-10 5-24 20-21 32a1 1 0 0 0 2 0 43 43 0 0 1 19-32z"/><path class="cls-21" d="M379 163c-10 5-19 21-19 32-1 1 1 2 1 1 4-12 8-25 19-32l-1-1z"/><path class="cls-21" d="M379 159l-18 12c-6 5-8 12-12 19 0 2 2 3 3 2 3-7 5-14 10-20 5-5 12-9 18-13h-1z"/><path class="cls-21" d="M373 158c-8 0-14 5-20 10-4 5-14 14-12 20a1 1 0 0 0 1 1l4-6a66 66 0 0 1 7-10c4-6 12-13 20-14v-1z"/><path d="M439 164c8 9 12 20 12 32 0 9-1 18 1 26 3 11 15 17 22 6 1-1-1-2-2-1-22 11-16-25-18-36-1-11-7-20-15-27 0 0-1 0 0 0z" fill="#fcb831"/><path class="cls-23" d="M428 162c13 7 16 22 17 36 1 9-1 20 3 30 8 16 32 14 30-6a1 1 0 0 0-2 0c0 6-2 13-10 14-7 0-13-5-15-12-4-8-2-18-3-26-2-14-6-30-19-37l-1 1z"/><path class="cls-23" d="M443 201c-1 14-4 30 6 42 7 7 22 5 25-5a1 1 0 0 0 0-1c-10 10-23 8-28-5-4-10-2-21-3-31z"/><path class="cls-23" d="M436 223c-1 12-1 26 11 31 9 4 25 1 27-10 1-1-1-1-1-1-7 8-15 12-25 9s-11-20-12-29z"/><path class="cls-23" d="M430 225c-2 12-3 25 6 35 4 4 16 11 19 3l-1-1c-7 5-16-4-19-9-5-8-4-19-4-28h-1z"/><path class="cls-23" d="M424 222c-2 12-3 24 1 36 2 5 6 14 13 13v-1c-6-2-10-10-11-16-4-10-2-21-2-32h-1z"/><path class="cls-23" d="M422 221a303 303 0 0 0-4 35c0 5-1 15 4 18 1 1 2 0 1-1-3-7-2-16-1-23 0-10 2-19 0-29zM406 152c-9-6-25-3-34 1-12 5-29 15-32 28h1a80 80 0 0 1 27-24c10-5 27-11 38-5zM336 190c-1 6-3 12-10 14-3 1-7 0-9-3-4-3-1-8-1-12v-1c-3 4-6 9-3 13a13 13 0 0 0 10 6c9 1 16-9 14-17a1 1 0 0 0-1 0z"/><path class="cls-23" d="M340 196c-1 7-4 16-13 16-8 0-12-6-15-12h-1c0 9 8 14 16 14 9 0 12-11 13-18z"/><path class="cls-23" d="M339 208c-2 7-6 11-13 13s-11-3-16-6a1 1 0 0 0-1 1c3 7 11 9 18 8 7-2 12-9 13-16h-1zM336 221c-1 4-3 7-8 9-4 1-7-1-11-1a1 1 0 0 0-1 1c2 4 9 4 13 3a13 13 0 0 0 8-12h-1zM332 235a6 6 0 0 1-2 3 8 8 0 0 1-3 3 1 1 0 0 0 0 2c4 0 6-5 6-8h-1z"/><path class="cls-24" d="M332 253c-5-4-8-11-11-16s-8-8-10-14c-1-4-2-8-6-11a1 1 0 0 0-1 1l5 16c2 5 7 7 10 12 3 4 7 13 12 14a1 1 0 0 0 1-2zM305 242c-1 2 1 5 2 6a2 2 0 0 0 2 1 2 2 0 0 0 1-1 2 2 0 0 0 0-1l-4-6-1 1zM310 253c1 1 3 0 2-1s-2 0-2 1zM321 281c-5 4-7 12-10 18l-9 18c-1 3 3 4 4 1l9-18a597 597 0 0 1 6-19z"/><path class="cls-24" d="M335 325c-8-4-19-9-28-8a1 1 0 0 0 0 3l12 2a101 101 0 0 1 15 3h1zM460 261c-8 6-17 8-26 11-8 3-17 3-24 7v1c10 2 21-3 31-6 6-2 17-5 20-12a1 1 0 0 0-1-1zM431 285a18 18 0 0 0-3 0 1 1 0 0 0-1 1 1 1 0 0 0 0 1 1 1 0 0 0 1 1 10 10 0 0 0 3-2 1 1 0 0 0 0-1zM475 285c-10 3-18 9-27 13s-17 9-27 12c-6 2-13 3-18 9-6 6-10 17-12 24-1 2 2 3 2 1 4-8 8-18 14-24 5-5 15-6 22-9l23-11a39 39 0 0 0 9-6l14-8v-1z"/><path class="cls-24" d="M393 344l-14-6-22-6-1 1 20 8c5 2 12 4 17 4a1 1 0 0 0 1 0l-1-1z"/><path class="cls-25" d="M390 346l-1 3-2 4c0 2 2 3 3 1s3-5 2-8h-2z"/><path class="cls-25" d="M389 353c-3-3-6-4-10-5l-19-6-22-6c-5-2-12-4-18-4v1l36 11a284 284 0 0 1 32 10c1 1 2-1 1-1zM392 346c-12-8-28-10-42-14-13-4-27-8-41-9h-1c5 3 11 3 16 4l22 7 45 13a1 1 0 0 0 1-1zM390 362c0 11 4 23 8 33 2 7 7 16 14 18h1c-13-15-17-33-22-51h-1zM360 373c0 15-2 33 6 46a1 1 0 0 0 2 0c-4-16-7-30-7-46h-1zM355 377c0 13-2 25-5 37a1 1 0 0 0 2 0 128 128 0 0 0 4-37h-1zM300 356c-1 9-6 17-11 24-5 8-10 16-18 22l1 2c9-3 13-13 17-21 5-8 11-16 11-27zM295 389l-8 9-7 8a1 1 0 0 0 1 1l7-8 7-10zM299 331c-11 19-22 45-47 48-2 1-2 3 0 4 10 1 21-8 27-14 5-5 8-11 11-17 3-7 9-14 10-21h-1z"/><path class="cls-26" d="M416 414c-4 10-16 16-26 14s-18-11-27-14l-1 1c10 8 22 20 36 17 7-2 19-9 19-18h-1zM353 413c-13 8-27 13-42 10s-24-12-34-21a1 1 0 0 0-1 1c4 5 7 11 12 15 7 6 16 8 24 10 16 3 30-4 41-14v-1zM269 401c-5 1-7-6-9-10l-3-6-3-6a1 1 0 0 0-1 1c-1 2 1 5 2 7l4 9c2 4 5 9 10 6v-1z"/><path class="cls-27" d="M323 507l-18 10a29 29 0 0 1-11 1c-5 0-6-3-9-6a1 1 0 0 0-2 1c-1 7 10 10 15 9a48 48 0 0 0 15-5c3-2 9-5 10-9v-1zM280 521a3 3 0 0 0-3-1c-2 0-2 3 0 3a4 4 0 0 0 3-1 1 1 0 0 0 0-1zM283 524l-1 1a1 1 0 0 0 0 1h1v-2z"/><path class="cls-27" d="M325 515c1-2-1-5-2-6s-3 0-2 1 2 5 4 5zM402 498c0-3-5-5-8-5s-8 0-9 3a2 2 0 0 0 1 2l3-1a13 13 0 0 1 4-1l9 2z"/><path class="cls-27" d="M407 462l-1 17a60 60 0 0 1-2 13c-1 3-2 3-4 5a1 1 0 0 0-1 1 2 2 0 0 0 2 2c12 0 10-31 7-38h-1zM398 512a4 4 0 0 0-3-1c-2-1-3 2-1 3a7 7 0 0 0 3 0 1 1 0 0 0 1-2zM392 511v-1a1 1 0 0 0-1 0h-1a1 1 0 0 0 0 1 2 2 0 0 0 1 1l1-1z"/><path class="cls-28" d="M432 157c-32-20-76-8-95 24l-5 11a29 29 0 0 1-2 7q-6 7-13 0-3-9 6-11c-1-4-9-1-10 2-3 4-3 10-2 15a14 14 0 0 0 3 6 13 13 0 0 0 3 3c-2-2-7-2-10-5h-1c4 5 7 5 13 5v-1c-11-4-10-29 5-25 0 1 1 0 0 0v-1a1 1 0 0 0 0-1c-9 1-12 12-4 17 13 6 15-15 18-22 7-12 19-21 31-26 21-11 42-8 62 3l1-1zM421 218c-2 7-11 56 3 57v-1c-7-3-6-16-6-23 0-11 2-22 4-32l-1-1z"/><path class="cls-29" d="M334 255c-3-7-9-13-13-19l-10-15-1 1 11 16c4 6 7 13 13 17zM285 239c5 20 12 39 29 52h1l-18-23c-6-9-8-19-12-29z"/><path class="cls-30" d="M304 205c-1-4-4-8-6-11l-8-8-1 1 6 8c3 3 5 8 9 10z"/><path class="cls-29" d="M312 223c1-3-1-6-2-8-1-3-3-8-6-10 0 4 3 7 4 10l3 8h1z"/><path class="cls-30" d="M276 224l-2-13c-1-5-2-11-5-15h-1l5 15c1 5 1 9 3 13z"/><path class="cls-29" d="M285 240l-5-8c-1-2-1-6-3-8l-1 1 3 8c1 2 3 6 6 8v-1z"/><path class="cls-30" d="M284 188c4 3 8-2 9-5a37 37 0 0 0 2-6l5-6c2-3-2-6-5-6-6 2-11 6-13 11-1 1 1 2 1 1a21 21 0 0 1 10-10c4-1 7 1 4 4l-3 4-2 6a13 13 0 0 1-3 5l-5 2z"/><path class="cls-30" d="M283 175a13 13 0 0 0-4-1h-5v1l5 1a11 11 0 0 0 4-1zM280 191c-11 12-24-4-33-10h-1c8 10 24 23 35 10h-1z"/><path class="cls-30" d="M259 183a32 32 0 0 0-10-5h-4l2 4c0-1-2-4 0-4l5 2 7 3z"/><path class="cls-30" d="M271 175c-3 0-5 2-7 3s-5 4-6 7l6-5a17 17 0 0 1 7-4v-1z"/><path class="cls-30" d="M264 179l-11-8c-2 0-6-1-6 1-1 3 3 6 4 7 2 2 5 4 8 4 1 0 1 0 0 0a33 33 0 0 1-5-4c-3-1-5-3-6-6-1-2 2-2 3-1a16 16 0 0 1 5 2l7 5s1 0 0 0z"/><path class="cls-30" d="M269 176a39 39 0 0 0-8-7c-2-1-5-3-7-2-5 1 0 6 2 7l-3-5c-1-3 5 0 5 0 4 2 7 6 11 7z"/><path class="cls-30" d="M277 175l-11-6c-3-1-6-2-8-1l10 4 8 3h1z"/><path class="cls-29" d="M410 281c12-8 29-7 42-14a1 1 0 0 0 0-1l-24 6c-6 2-15 3-18 8v1zM461 294c-16 12-37 17-54 26a1 1 0 0 0 0 1c9 0 19-7 26-11 10-4 20-9 28-16 0 0 0-1 0 0z"/><path class="cls-29" d="M452 267l6-5c3-2 7-3 10-6l-1-1-10 6-6 5 1 1z"/><path class="cls-30" d="M485 279c3-1 5-4 7-6l8-7-1-1c-3 1-5 4-7 6l-7 7v1z"/><path class="cls-29" d="M461 294c4 0 9-3 13-5s8-6 11-10h-1l-10 8-13 7z"/><path class="cls-30" d="M491 251c-1-2-3-3-3-5v-6l1-7-1-4c-1-4 3-3 5-1 3 3 5 10 4 14h2c0-5-2-12-5-16-3-2-7-2-8 1l1 6c1 2 0 4-1 7-1 4-1 11 5 11z"/><path class="cls-30" d="M498 240a11 11 0 0 0 3 3l5 2-4-3-4-2zM492 256c2 15 23 13 34 9v-1c-10 0-30 8-34-8 0-1 0-1 0 0z"/><path class="cls-30" d="M514 260h9a15 15 0 0 1 5 2c2 1-2 2-2 3-1 0 0 0 0 0 1 0 3-1 3-3s-2-1-3-2a31 31 0 0 0-12 0z"/><path class="cls-30" d="M508 247c4 4 5 9 6 15h1c1-3-1-6-2-9s-2-5-4-6h-1z"/><path class="cls-30" d="M513 254h8c2-1 12 0 9 3-2 2-6 2-9 2a32 32 0 0 1-7 0v1h9c2 0 7-1 8-3s-3-4-5-4a29 29 0 0 0-13 1z"/><path class="cls-30" d="M510 249c5 0 9-2 14-1 1 0 5 1 3 3l-5 2c-1 0-1 0 0 0 1 1 8-1 6-4-1-2-4-2-6-2l-12 2z"/><path class="cls-30" d="M504 244l8 1c4 1 8 1 11 3l1-1c-1-2-5-2-7-2l-13-2v1z"/><path class="cls-28" d="M429 156c15 9 24 21 26 39a103 103 0 0 1 0 16c0 4-1 9 1 12 3 6 16 11 18 1 1-2 2-15-4-11l1 1c3-2 3 6 3 7-1 12-16 7-17-2a47 47 0 0 1 0-8 100 100 0 0 0-1-18c-2-17-12-30-27-38v1z"/><path class="cls-28" d="M471 214c6 1 6 11 6 15 0 8-4 13-10 16a1 1 0 0 0 0 1c4 2 8 2 10-2l-1-1c0 5-2 7-4 11-1 0 0 0 0 0 4-3 5-6 5-11a1 1 0 0 0-1 0c3-7-12 7-5 1a20 20 0 0 0 5-5 22 22 0 0 0 3-12c0-5-1-15-8-14a1 1 0 0 0 0 1z"/><path class="cls-31" d="M301 319a1 1 0 0 0-1 1c-1 3-3 7-2 10h1a19 19 0 0 0 1-4l2-6a1 1 0 0 0-1-1z"/><path class="cls-29" d="M319 280c-4 2-7 11-8 14-4 8-8 16-10 25 0 1 0 1 0 0l12-24c1-3 7-11 6-15zM409 318c-7 9-13 18-16 29h1l16-28-1-1z"/><path class="cls-30" d="M325 429c-1 11-2 25 7 33 9 9 26 12 38 17-9-7-20-10-30-14-15-7-15-21-14-36h-1zM374 426c-3 4-4 8-5 13a1 1 0 0 0 1 1c3-1 7 0 9 2 10 4 18 12 26 20l1-1c-7-9-17-18-28-22a19 19 0 0 0-7-1 9 9 0 0 0-1 0l4-12c1 0 0-1 0 0zM277 408c-6 15-9 29-7 46 3 17 11 34 20 49 0 0 1 0 0 0-5-15-13-29-17-44-4-18-2-35 5-51h-1zM320 430c-2 7-6 14-11 20-2 3 1 8 2 11 4 9 8 14 8 25 0 5-1 11 2 16-2-11 2-23-3-33-4-8-9-14-4-22a55 55 0 0 0 6-17z"/><path class="cls-30" d="M289 502c0 4-1 6-4 9-1 1 0 2 1 2 3-3 6-7 5-12-1-1-2 0-2 1zM320 500c-1 2 2 4 1 6 0 3 4 1 2-1-2-1 0-4-2-6a1 1 0 0 0-1 1z"/><path class="cls-5" d="M405 462c17 8 6 33 1 46l1 1c9-5 14-51-2-48v1z"/><path class="cls-30" d="M356 473l17 8 8 4 1 5a24 24 0 0 0 2 6 1 1 0 0 0 2-1l-2-11a1 1 0 0 0-1-1c-9-4-18-10-27-11v1z"/><path class="cls-5" d="M410 502c-4 5-6 11-12 14-5 2-8 0-12-1a1 1 0 0 0-1 1c2 4 9 4 13 2 6-2 12-10 12-16 0-1 0-1 0 0z"/><path class="cls-31" d="M390 356a330 330 0 0 0-72-24c-6-2-13-4-19-3a1 1 0 0 0 0 1c5 2 11 2 17 3l20 4c19 5 36 13 54 19z"/><path class="cls-5" d="M409 463c10 4 8 15 8 24a60 60 0 0 1-7 22 36 36 0 0 1-6 9c-4 4-18 8-19-3a1 1 0 0 0-1 0c0 7 4 10 11 9 10-2 16-10 19-19 3-7 12-45-5-42z"/><path class="cls-5" d="M405 461c3 9 0 20-2 28-2 7-3 4-8 4-3-1-7-1-10 1-1 1 0 2 1 2 4-3 10-2 15 1a1 1 0 0 0 1-1c3-5 4-12 5-19 0-5 2-12-1-16h-1zM326 518c3 17-45 18-55 14-2-1-2 2-1 2 11 4 27 2 38 0 8-2 24-6 19-17a1 1 0 0 0-1 1z"/><path class="cls-5" d="M270 529a4 4 0 0 0-1 4 1 1 0 0 0 2 0 4 4 0 0 0 0-4h-1zM323 506l-15 8a51 51 0 0 1-9 4c-6 1-9-4-13-7l-1 1c6 6 7 10 16 7 8-2 16-7 22-13 1 0 0 0 0 0z"/><path class="cls-29" d="M358 275c3 8 8 22 16 25 11 4 26-13 32-19a1 1 0 0 0-2-1l-10 10c-5 5-17 13-23 5-5-6-7-14-12-20h-1zM357 275c-8 1-15 17-22 6-2-3-4-10-4-14l5-14a1 1 0 0 0-2-1c-4 10-8 23 0 32 8 10 17-4 23-9z"/><path class="cls-29" d="M361 275c-6 0-11 9-14 14-7 12-11 24-14 37a1 1 0 0 0 1 0c3-11 6-21 11-31 4-7 9-16 17-19l-1-1z"/><path class="cls-29" d="M357 288a4 4 0 1 1 4-4 4 4 0 0 1-4 4zm0-7a3 3 0 1 0 3 3 3 3 0 0 0-3-3zM352 300a4 4 0 1 1 4-4 4 4 0 0 1-4 4zm0-7a3 3 0 1 0 3 3 3 3 0 0 0-3-3zM346 313a4 4 0 1 1 4-4 4 4 0 0 1-4 4zm0-7a3 3 0 1 0 3 3 3 3 0 0 0-3-3zM341 326a4 4 0 1 1 4-4 4 4 0 0 1-4 4zm0-7a3 3 0 1 0 3 3 3 3 0 0 0-3-3zM304 205c-5 0-11 4-15 6-5 3-10 8-13 13l1 1c4-5 8-9 13-12 4-3 10-4 14-8z"/><path class="cls-30" d="M387 255c-12 0-24-3-32-12-1-1-2 0-1 1 9 7 21 14 33 11z"/><path class="cls-30" d="M388 255l-2-3v1a3 3 0 0 0 1 3l1-1zM355 242a2 2 0 0 0-2 2 1 1 0 0 0 1 1 3 3 0 0 0 2-2 1 1 0 0 0-1-1zM373 270a12 12 0 0 1-8 0l-6-3a1 1 0 0 0-1 0c2 3 5 4 8 5 2 0 5 1 7-1v-1z"/><path d="M374 266c1-2-2-5-4-6-3-1-7-3-10-2v1a19 19 0 0 1 8 1 10 10 0 0 1 4 3l2 3z" fill="#be1e2d"/><path class="cls-17" d="M383 258l-13-3-13-6v1c7 4 17 10 26 8z"/><path class="cls-30" d="M376 239l-9-3c-3 0-3 4-1 6s15 9 13 1l-1 1c0 3-3 2-5 1a18 18 0 0 1-6-3c-1-1-2-3-1-4l3-1a16 16 0 0 1 7 2z"/><path class="cls-33" d="M410 239a12 12 0 0 1-4 0l-3-1v1c1 2 5 1 7 0h-1z"/><path class="cls-33" d="M406 237h-6v1a7 7 0 0 0 6-1zM347 217c0 2 3 5 5 5v-1l-3-2-2-2zM345 220a2 2 0 0 0 2 1 1 1 0 0 0 1 0 4 4 0 0 0-2-2l-1 1z"/><path class="cls-28" d="M414 229c0-4-3-7-5-10s-6-5-9-4l8 6 6 8zM348 207a17 17 0 0 1 9-3l7-1a1 1 0 0 0 1-1c-3-2-7-1-9-1a13 13 0 0 0-8 5v1z"/><path class="cls-5" d="M384 495l1 8c1 4-1 8-1 12l1 1c4-5 4-17 0-21h-1zM322 506l2 6c2 6 0 7-4 10a44 44 0 0 1-13 6c-12 3-24 2-36 0-2 0-2 3 0 3 15 0 32 1 46-5 11-5 12-10 7-20a1 1 0 0 0-2 0z"/><path class="cls-5" d="M285 511l-3 1-8 4c-5 2-4 8-4 13-1 1 2 2 2 0l1-8c1-3 4-4 7-5 0 0 7-4 5-5z"/><path class="cls-31" d="M299 329c-11 17-26 50-50 48a1 1 0 0 0-1 2c3 10 9 19 16 27a1 1 0 0 0 2 0c9-8 22 19 31 22 13 4 33 6 45-3l10-8c4-3 6-2 10 1 6 5 13 12 21 14 16 6 30-4 38-18a1 1 0 0 0-1-2c-10-2-16-18-20-27a201 201 0 0 1-9-29h-1a172 172 0 0 0 19 51 25 25 0 0 0 5 5c1 1 4 2 3 3-6 11-18 19-31 16-10-2-18-12-26-18-4-2-6-1-9 2-7 4-13 11-21 13-10 2-25 1-33-3-7-4-11-11-16-16-3-4-7-7-11-7a7 7 0 0 0-5 1c-1 1-8-11-9-12-2-2-8-11-3-11a23 23 0 0 0 7-2c6-2 11-7 15-11 10-11 17-24 24-37l-1-1zM394 347c-5-4-12-5-17-7l-29-10c-15-5-32-10-48-11v2l45 9 25 9c8 3 16 4 23 8 0 0 1 0 0 0z"/><path class="cls-31" d="M393 347a14 14 0 0 0-3 9h1a15 15 0 0 0 3-9h-1z"/><path class="cls-30" d="M344 190l-3 22-7 25c-3 12 0 23 10 31 17 15 54 22 74 8v-1a77 77 0 0 1-73-9c-12-10-11-23-7-36s5-26 7-40h-1zM468 255c3 0 6-2 9-4l10-4v-1c-3 0-6 2-8 3-4 1-9 3-11 6z"/><path class="cls-29" d="M485 279c0-2-2-3-3-5l-3-7c-3-4-6-10-11-12l-1 1 7 7a39 39 0 0 1 5 8c1 2 3 9 6 8z"/><path class="cls-30" d="M406 242c-2-5-10-8-16-8-1 0-2 2 0 2l9 2 7 4zM346 223h6a18 18 0 0 1 7 2c1 1 3-2 1-2-4-2-11-4-14-1a1 1 0 0 0 0 1zM385 255l-5 7c-5 5-11 5-17 2-4-2-3-6-4-9 0-3-3-7-3-11a1 1 0 0 0-1 0l2 7a33 33 0 0 1 2 9c0 3 3 5 5 6 11 4 16-3 22-11h-1z"/><path class="cls-28" d="M429 169c-27-28-78-17-93 18a1 1 0 0 0 1 2 84 84 0 0 1 14 5 1 1 0 0 0 2 0l9-7-2-1a26 26 0 0 0-2 11 1 1 0 0 0 1 1c11 3 21 8 33 10a1 1 0 0 0 1 0 14 14 0 0 1 2-5h-2c1 6 4 7 9 10a1 1 0 0 0 1-1c3-5 1-2 4 1 2 3 6 4 9 6 7 2 16 4 23 3l1-1c-4-5 0-12 1-17a27 27 0 0 0 0-10c-1-7-2-14-7-19 0-1 0 0 0 0 4 7 6 16 6 25-1 6-5 12-4 19 1 2 2 2-1 2a49 49 0 0 1-9-2c-6-1-20-4-20-11a1 1 0 0 0-1-1c-5 5-9 2-10-5a1 1 0 0 0-2 0c-3 6-10 2-16 0l-12-4c-6-2-5-6-3-12 1-1-1-1-2-1-5 5-7 7-14 4l-6-2c-4-1-1-1 1-4a57 57 0 0 1 88-13v-1z"/><ellipse class="cls-17" cx="119" cy="90" rx="12" ry="14"/><ellipse class="cls-17" cx="153" cy="80" rx="13" ry="15"/><path class="cls-34" d="M113 92c0 4 3 6 6 6s6-5 5-8-4-7-7-6-5 4-4 8z"/><path class="cls-35" d="M118 98c-3 0-5-2-6-6s2-8 5-9a5 5 0 0 1 1 0c3 0 6 3 7 7 0 4-2 7-5 8a6 6 0 0 1-2 0zm0-14a5 5 0 0 0-1 1c-3 0-4 3-4 7s3 6 6 5 5-4 5-7c-1-3-3-6-6-6z"/><path class="cls-36" d="M114 91c0 3 2 4 5 4s3-3 3-6-3-4-5-3-3 2-3 5z"/><path class="cls-17" d="M114 89a2 2 0 1 0 2-2 2 2 0 0 0-2 2zM118 91a1 1 0 1 0 0-1 1 1 0 0 0 0 1z"/><path class="cls-34" d="M149 80c0 4 3 6 6 6s6-4 5-8-4-6-7-6-5 4-4 8z"/><path class="cls-35" d="M154 87c-3 0-5-3-6-7s2-8 5-8a5 5 0 0 1 1 0c3 0 6 2 7 6 0 4-2 8-5 8a6 6 0 0 1-2 1zm0-14a5 5 0 0 0-1 0c-3 0-4 4-4 7 1 3 3 5 5 5a5 5 0 0 0 1 0c3 0 5-4 5-7-1-3-3-5-6-5z"/><path class="cls-36" d="M150 79c0 3 3 4 5 4s3-3 3-5-3-5-5-4-3 3-3 5z"/><path class="cls-17" d="M150 77a2 2 0 1 0 2-1 2 2 0 0 0-2 1zM154 79a1 1 0 1 0 1-1 1 1 0 0 0-1 1z"/><g id="_Группа_2" data-name="&lt;Группа&gt;"><path d="M51 210l3 7c-3 0-5-1-7-3a1 1 0 0 0-1 0h1a33 33 0 0 0 4-4z" fill="#7a110e"/><path class="cls-38" d="M144 206l2-10a176 176 0 0 0 5-33 83 83 0 0 0-1-22c9-2 20 2 27 4a126 126 0 0 1 18 6l7 3 7 7a24 24 0 0 0 6 3c-1 7-5 15-9 20s-9 7-15 11a124 124 0 0 1-11-16 1 1 0 0 0-1 0l-3-9v-3h-1l2 6 3 22-1 36c-1 16 1 31-3 47l-2 14c3-1 5-4 7-7v3h1v-2a43 43 0 0 1 2 9 203 203 0 0 1-69 10h-8a38 38 0 0 1-3-5c-3-7-3-15-8-20 6 3 9 8 14 13-3-10-9-20-14-29l-8-14c2-4 9-2 12 0-6-4-7-14-11-19-4-7-8-15-13-21v2c0-9-1-21 2-29a58 58 0 0 1-6 6 1 1 0 0 0-1 0 32 32 0 0 0-2 4l-7 13a41 41 0 0 1-3 4 22 22 0 0 0-4-8 143 143 0 0 0-11-11c-2-2-8-8-12-9l19-19c9-4 20-6 27-6l22-2h1a31 31 0 0 1 4 4c6 7 12 11 18 19l15 19c2 3 5 5 6 9z"/><path class="cls-39" d="M151 163a176 176 0 0 1-5 33l-2 10c-1-4-4-6-6-9l-15-19c-6-8-12-12-18-19a31 31 0 0 0-4-4l11 1 6 6a120 120 0 0 1 12 12l10 17 1 1a1 1 0 0 0 0-1l3-9v-1l2-15a90 90 0 0 0-1-23 19 19 0 0 1 5-2 83 83 0 0 1 1 22z"/><path class="cls-40" d="M159 68c-3-5-10-5-12 0-1 3 0 16 4 18a8 8 0 0 0 9 2 5 5 0 0 0 2-3 7 7 0 0 1 4-3 5 5 0 0 0-4 2 11 11 0 0 0 1-3l1-3a11 11 0 0 0-1 2 17 17 0 0 0-1-3 10 10 0 0 0-1-2 29 29 0 0 0-1-4 3 3 0 0 1 1 0l-1-1a16 16 0 0 0-1-2zm-15-7a1 1 0 0 0 0 2l6-2c4-1 7-3 11 0h1a6 6 0 0 0-7-4 27 27 0 0 0-11 4zm-4 38c0 2 1 2 3 3a8 8 0 0 0 6-2 5 5 0 0 0 1-6 4 4 0 0 0-5-1 4 4 0 0 1 5 1c-3 3-6 5-10 5a3 3 0 0 1 0-1 2 2 0 0 0 0 1zm-2 24c4 1 8 0 11-2-4 2-7 2-11 2zm-9-14a30 30 0 0 0 2-2 19 19 0 0 0 1 3 16 16 0 0 0 5 7 10 10 0 0 0 5 2c3 1 5-1 6-3a26 26 0 0 0 3-5l1-3a14 14 0 0 0 4-6 3 3 0 0 0 2 1 17 17 0 0 1-1-2 7 7 0 0 1-1-2 5 5 0 0 0 0 2c-4 11-16 13-24 6h-1v-1a6 6 0 0 0 1-3h-1a22 22 0 0 1-1 3l-1 3zm-14-11a7 7 0 0 0-6 2 6 6 0 0 1 7-1 8 8 0 0 0 7 0c4-1 4-7 3-10v-1a20 20 0 0 0-3-5 5 5 0 0 1 1 0l1-1a13 13 0 0 0-2 0c-4-6-10-10-13-2-1 4 0 12 3 16a5 5 0 0 0-2-1 9 9 0 0 1 2 1l1 1a3 3 0 0 0 1 1zm-10-19a14 14 0 0 1 5-9l8-4c11-1 21-4 30-8l20-8a68 68 0 0 1 3 21l1 9a7 7 0 0 0 0 2l1 14c1 14-9 28-22 35a37 37 0 0 1-8 3 40 40 0 0 1-26-3 42 42 0 0 1-6-7 72 72 0 0 1-8-21 121 121 0 0 1-3-15c-1-6-5-14-3-20 1-2 4-2 7-2h8a17 17 0 0 0-3 2c-2 3-4 7-4 11z"/><path class="cls-41" d="M221 493a34 34 0 0 1 8-18 8 8 0 0 1 1 3l-3 13-6 2z"/><path class="cls-42" d="M202 268z"/><path class="cls-43" d="M80 97c3-1 8 0 9 3a17 17 0 0 1 2 5 1 1 0 0 0 1 1c3 0 7 0 9-2a1 1 0 0 0 1 0l1-1a72 72 0 0 0 8 20 42 42 0 0 0 6 8 50 50 0 0 1-22-17c-2-3-5-9-9-10-1-3-3-7-6-7z"/><path class="cls-42" d="M201 277a22 22 0 0 1-6 0v-1h1a5 5 0 0 0 1 0h4a18 18 0 0 1 0-3 14 14 0 0 1 1-5 2 2 0 0 1 0 1 8 8 0 0 0 0 1 18 18 0 0 0-1 7zM166 46l2 4-2-4zM95 114a50 50 0 0 0 22 17 21 21 0 0 0 2 2c-10-3-18-9-24-18h1l-1-1z"/><path class="cls-42" d="M198 268a24 24 0 0 1-1 8 5 5 0 0 1-1 0 17 17 0 0 1 1-4 20 20 0 0 0 0-3 4 4 0 0 1 1-1z"/><path class="cls-43" d="M95 115c6 9 14 15 24 19a45 45 0 0 0 24 1 9 9 0 0 0 0 1v1a19 19 0 0 1-2 0h-28c-3 0-6-2-9-1 3 2 4 5 6 8l9 8a138 138 0 0 1 20 23l3 5v4a28 28 0 0 1-1 4c-4-11-14-21-22-28l-14-11c-3-3-7-6-11-7a1 1 0 0 0 0-1c4-7 2-18 1-26z"/><path class="cls-42" d="M195 261h1a15 15 0 0 1 1 2v1a15 15 0 0 1 1 3v1a4 4 0 0 0-1 0 14 14 0 0 0-2-7z"/><path class="cls-41" d="M68 524a59 59 0 0 1-7-8l2-8v-1a72 72 0 0 0 6 9 30 30 0 0 1-1 8z"/><path d="M123 83v-1a13 13 0 0 1 2 0l-1 1a5 5 0 0 0-1 0z"/><path class="cls-44" d="M142 15a27 27 0 0 0-5 0 11 11 0 0 0-1-1 22 22 0 0 1 10 1l3 2v-1c7 3 14 10 13 16v-1a13 13 0 0 0-1-1c-1-4-4-7-7-9-3-3-7-5-12-6z"/><path class="cls-45" d="M79 97a2 2 0 0 1-2-1c-2 2-6 8-7 12a91 91 0 0 1-1-15l9-9c2 9 4-1 6-5 0-2 1-4 3-5l5-1 1 8 1 9c-3 2-7 6-8 3a42 42 0 0 0-4 3h-1a6 6 0 0 0-2 1z"/><path class="cls-46" d="M168 50l-2-4h4l2 6a48 48 0 0 1 2 12 24 24 0 0 1-1 14l-1-7a72 72 0 0 0-4-21z"/><path class="cls-40" d="M58 289v1a4 4 0 0 1 0-1z"/><path class="cls-45" d="M73 509a58 58 0 0 0 9 7 1 1 0 0 0 1 0 24 24 0 0 0 4-1l4-1a21 21 0 0 1 4-2 14 14 0 0 0 1 3 20 20 0 0 0-6 4 5 5 0 0 0-3-1 2 2 0 0 0-2 1 3 3 0 0 0 0 3 3 3 0 0 0 4 3 4 4 0 0 0 0 1 2 2 0 0 0 0 2 3 3 0 0 0 3 1 3 3 0 0 0 2-4 62 62 0 0 1 7-3 39 39 0 0 1 2 6l-9 2c-2-1-4 1-5 3a17 17 0 0 1-5-3 94 94 0 0 1-14-13v-6a53 53 0 0 0 0-5 30 30 0 0 0 3 3z"/><path class="cls-42" d="M58 289a6 6 0 0 1-1 0h1z"/><path class="cls-47" d="M60 417l1 15a1 1 0 0 1-1 0 41 41 0 0 1-1-6l-1-2a71 71 0 0 1 0-8l2 1z"/><path class="cls-48" d="M86 146a45 45 0 0 0 8-4 147 147 0 0 1 18 14l-11-1-10-6a20 20 0 0 0-5-3z"/><path class="cls-44" d="M95 36c-1-9 0-22 10-26s21-3 27 4l1 1-2 1v-1a22 22 0 0 0-3-3c-7-4-17-6-24-1-5 3-7 9-8 15a50 50 0 0 0 0 9v1h-1z"/><path class="cls-49" d="M198 519a18 18 0 0 0-2-6h2a15 15 0 0 1 2 6h-2z"/><path class="cls-43" d="M113 96c-3-4-4-12-3-16 3-8 9-4 13 2a8 8 0 0 0-4-1 10 10 0 0 0-5 2c-3 2-3 7-1 9a17 17 0 0 0 1 4 4 4 0 0 0-1 0z"/><path class="cls-44" d="M80 60h1l-1 1a109 109 0 0 0-7 11 9 9 0 0 0-1-1 100 100 0 0 1 8-11z"/><path class="cls-50" d="M182 438a116 116 0 0 1-22 2 82 82 0 0 0-7-17c7 0 13 1 20-1 2 6 5 12 9 16z"/><path d="M143 118a7 7 0 0 1-5-1c3-2 6-2 10-1a7 7 0 0 1-5 2z" fill="#e63f22"/><path d="M160 71v-1l1 1c0 1 0 0 0 0a3 3 0 0 0-1 0z"/><path class="cls-43" d="M197 276a24 24 0 0 0 1-8 13 13 0 0 1 2-1l2 1a14 14 0 0 0-1 5 18 18 0 0 0 0 3h-4z"/><path class="cls-52" d="M84 50a44 44 0 0 1 6-8l3-3a103 103 0 0 1 44-24 27 27 0 0 1 5 0c5 1 9 3 12 6 3 2 6 5 7 9-5-5-12-6-18-5-9 0-18 4-25 8a109 109 0 0 0-24 18l-3 3-2 2a4 4 0 0 0 1-1c1-2 0-5-3-6a3 3 0 0 0-3 2z"/><path class="cls-42" d="M80 97a9 9 0 0 0 2-1c2 0 5 0 6 2l1 2c-1-3-6-4-9-3zM202 268a2 2 0 0 1 0-1c2-2 3 0 5 2a10 10 0 0 1 0 2l-1-1a5 5 0 0 0-2-3l-2 2a2 2 0 0 0 0-1z"/><path class="cls-53" d="M42 169l2-2a36 36 0 0 1 6-4l-18 19a4 4 0 0 0-3 0 148 148 0 0 1 10-10l3-3z"/><path class="cls-47" d="M132 373a91 91 0 0 1-1-5v-1 1l1 4c3 11 8 22 13 33l8 18h-2l-8-18-11-32z"/><path class="cls-49" d="M62 505l1 2v1l-2 8-1-2a8 8 0 0 0 1 3 1 1 0 0 1-1 0h-1l3-12z"/><path class="cls-42" d="M113 96a4 4 0 0 1 1 0v1-1z"/><path class="cls-49" d="M79 126a18 18 0 0 1-4-8l-1 3a1 1 0 0 1-1 0l-4-16-1-12 1-3v4a91 91 0 0 0 1 14 63 63 0 0 0 3 11l1-4a1 1 0 0 1 2 0 16 16 0 0 0 4 10l-1 1z"/><path class="cls-53" d="M142 180l1-4 1-13a160 160 0 0 0 0-19 14 14 0 0 1 1-1 90 90 0 0 1 1 23l-2 15v1a17 17 0 0 1-2-2z"/><path class="cls-45" d="M98 515l-2-3a17 17 0 0 1 5 0 21 21 0 0 1 3 1l1 2a14 14 0 0 0-7 0z"/><path class="cls-40" d="M195 280c-4-1-3-1-4-6 0-8 0-17 2-25 3-8 11-17 17-24l21-24c-5-1-17-2-15-9l7-20 7 6 14 13c7 12-3 27-11 36a188 188 0 0 1-18 19l-18 17a15 15 0 0 0-2-2c0-1 0 0 0 0a14 14 0 0 1 2 7 20 20 0 0 1 0 4 17 17 0 0 0-1 4h-1v1a22 22 0 0 0 6 0 18 18 0 0 1 1-7 8 8 0 0 1 0-1l2-2a5 5 0 0 1 2 3v9c-3 1-7 2-11 1z"/><path class="cls-42" d="M79 97a6 6 0 0 1 2-1h1a9 9 0 0 1-2 1 2 2 0 0 0-1 0z"/><path class="cls-54" d="M219 423c-9 5-18 9-28 12a89 89 0 0 1-9 3c-4-4-7-10-9-16a45 45 0 0 0 5-1c12-4 25-9 36-17l5 19z"/><path d="M132 14c-7-7-18-9-27-4S94 27 95 36a71 71 0 0 0-5 5c-2-9-3-19 3-27a28 28 0 0 1 23-12 25 25 0 0 1 15 6 31 31 0 0 1 6 6 29 29 0 0 0-4 1l-1-1z" fill="#a9d8f4"/><path class="cls-46" d="M89 533a13 13 0 0 0-2 5c-5-2-9-6-13-9a44 44 0 0 1-6-5l2-7a94 94 0 0 0 14 13 17 17 0 0 0 5 3z"/><path class="cls-42" d="M142 119a10 10 0 0 1-5-2 2 2 0 0 1 1 0 7 7 0 0 0 5 1 7 7 0 0 0 5-2c-1 2-3 4-6 3z"/><path class="cls-50" d="M60 432a1 1 0 0 0 1 0l-1-15 10 5a78 78 0 0 0 10 2 153 153 0 0 0 5 19c-9 0-21-2-27-9a44 44 0 0 0 1-8 41 41 0 0 0 1 6z"/><path class="cls-49" d="M68 496a1 1 0 0 1 0 1 54 54 0 0 0-5 10l-1-2a27 27 0 0 1 6-9z"/><path class="cls-47" d="M86 445c-7 0-15-1-22-4a22 22 0 0 1-8-7 1 1 0 0 1 1-1l1-9 1 2a44 44 0 0 1-1 8c6 7 18 9 27 9l1 2z"/><path class="cls-44" d="M89 56a3 3 0 0 1-4 1 4 4 0 0 1-1-4 4 4 0 0 1 0-2 3 3 0 0 1 4-2c2 1 3 4 2 6a4 4 0 0 1-1 1zm-2-6c-2 0-2 2-3 4a3 3 0 0 0 1 2 2 2 0 0 0 4-1c1-1 1-5-2-5z"/><path class="cls-49" d="M93 81l-1-8a6 6 0 0 0 1 0 158 158 0 0 0 2 16l-1 1-1-9z"/><path class="cls-43" d="M80 289c-2 5-10 6-14 6s-11 1-14-2-5-7-2-11a1 1 0 0 1 2 0 5 5 0 0 1 1 2 8 8 0 0 1 1 5h4a4 4 0 0 0 0 1 6 6 0 0 0 1 1v-1a6 6 0 0 0 2 1c8 2 11-9 11-14 1-9-3-16-7-23-6-8-14-16-21-21-7-6-14-15-24-14 1-3 5-6 8-8a29 29 0 0 1 12-4c-1-4-11-14-17-15l4-4c6 2 12 7 17 12a45 45 0 0 1 7 9v1l-4 3-6 4a29 29 0 0 0-13-2c24 0 33 24 45 41a44 44 0 0 1 4 6 21 21 0 0 0 1 2c3 8 4 16 2 25zM184 440a133 133 0 0 0 27-11l1 6c-4 1-8 4-11 6-9 5-10 12-10 22-1 8 0 13 4 21 1 4 1 5 6 5h10c1-9 5-15 9-20l2 6a38 38 0 0 0-3 7 87 87 0 0 0-2 12l-8 2a40 40 0 0 1-20-2l-13-24c-4-9-7-18-7-28a106 106 0 0 0 15-2z"/><path class="cls-46" d="M200 519a15 15 0 0 0-2-6c9 2 18 2 27 2l19-2a20 20 0 0 0-2 7 190 190 0 0 1-42-1z"/><path class="cls-42" d="M148 116a17 17 0 0 0 2-4 6 6 0 0 0 1-1 26 26 0 0 1-3 5z"/><path class="cls-49" d="M86 128a15 15 0 0 0-2-4c0-1 0-2 1-1 4 0 7 6 10 4v2c-4 1-5-3-9-5a13 13 0 0 1 1 5 1 1 0 0 1-1 1 13 13 0 0 1-3-1l-1-1a16 16 0 0 1-3-2l1-1a14 14 0 0 0 6 3z"/><path class="cls-48" d="M149 137l1 4a19 19 0 0 0-5 2l-1-5 5-1z"/><path class="cls-49" d="M105 528h-1a41 41 0 0 1 10-1 18 18 0 0 1 4 1 11 11 0 0 1 4 2l-3 1c-4-3-9-3-15-2a1 1 0 0 0 1-1z"/><path class="cls-53" d="M144 138a1 1 0 0 0 0-1l5-1v1l-5 1z"/><path class="cls-49" d="M87 515a24 24 0 0 1-4 1l-1 1v-1h1l4-2v1z"/><path class="cls-56" d="M91 149l10 6h-1l-22 2c-7 0-19 2-28 6a59 59 0 0 1 9-6c8-5 18-7 27-11a20 20 0 0 1 5 3z"/><path class="cls-47" d="M211 429a133 133 0 0 1-27 11 20 20 0 0 1-2-2 89 89 0 0 0 9-3c10-3 19-7 28-12h1a1 1 0 0 1 1 0 1 1 0 0 1 0 1l-9 5a2 2 0 0 1-1 0z"/><path class="cls-57" d="M87 514l-4 2c0-8 0-18 9-20 8-3 9 8 12 14a12 12 0 0 0-3 0c-1-4-5-8-8-8-6-1-6 7-6 12z"/><path class="cls-43" d="M93 73l-1-16c10 4 21 4 31 3 12-2 23-8 34-10a1 1 0 0 0 0-2 40 40 0 0 0-6-1l11-1h4l2 4-20 8c-9 4-19 7-30 8l2-1v-1c-3-1-6 0-8 2h-8c-3 0-6-1-7 2-2 6 2 14 3 20a121 121 0 0 0 3 15l-1 1a1 1 0 0 0 0-1 39 39 0 0 1-7-14 98 98 0 0 1-2-16z"/><path class="cls-49" d="M231 474c2 6-2 13-2 18a1 1 0 0 1 0 1 1 1 0 0 1-2-1v-1l3-13a8 8 0 0 0-1-3l1-1a3 3 0 0 1 1 0zM69 512v-8-1h1v3a53 53 0 0 1 0 5v6l-1-1a37 37 0 0 0 0-4z"/><path class="cls-40" d="M114 97l-1-1h1v1z"/><path class="cls-53" d="M65 296a28 28 0 0 1-1 4h-1l1-4h1z"/><path class="cls-47" d="M125 425l2-15 2-30 2-12 1 5-1 10-2 30-2 11-2 1z"/><path class="cls-42" d="M87 104a4 4 0 0 1-1 0c4 1 7 7 9 10l-4-5-1-1a11 11 0 0 0-3-4z"/><path d="M113 92c-2-2-2-7 1-9a10 10 0 0 1 5-2 8 8 0 0 1 4 1v1a11 11 0 0 0-3 0 12 12 0 0 0-1 0 8 8 0 0 0-4 2c-2 2-1 5-2 8v-1zM149 81c-2-3-1-8 1-10a10 10 0 0 1 6-2 9 9 0 0 1 4 1v1a10 10 0 0 0-4 0 13 13 0 0 0-1 0 7 7 0 0 0-4 2c-2 3-1 5-1 8h-1z"/><path class="cls-47" d="M158 442l-7-19h2a82 82 0 0 1 7 17 116 116 0 0 0 22-2 20 20 0 0 0 2 2 106 106 0 0 1-15 2h-1l-9 1a1 1 0 0 1-1-1z"/><path class="cls-43" d="M53 282c0-2 1-3 3-3a24 24 0 0 0 2 10h-1a8 8 0 0 1-2 0 7 7 0 0 0 0-2 10 10 0 0 0-1-4 6 6 0 0 0-1-1z"/><path class="cls-40" d="M139 175a138 138 0 0 0-20-23l-9-8c-2-3-3-7-6-8 3-1 7 1 9 1h28a19 19 0 0 0 2 0 1 1 0 0 0 0 1l1 6a160 160 0 0 1 0 19l-1 13-1 4-3-5z"/><path class="cls-42" d="M155 71a13 13 0 0 1 1 0 7 7 0 0 1 5 4v2c-1-3-3-6-6-6zM192 287l-1-1c5 1 12-1 14-5a8 8 0 0 0 1-2h2a8 8 0 0 1-3 4c-3 3-9 5-13 4z"/><path class="cls-58" d="M116 2a28 28 0 0 0-23 12c-6 8-5 18-3 27a58 58 0 0 0-7 9c-2 3-4 7-3 10a100 100 0 0 0-8 11l-4-8a40 40 0 0 1-2-16 83 83 0 0 1 3-21l1-4a87 87 0 0 1 7-7 59 59 0 0 1 39-13z"/><path class="cls-45" d="M96 26c1-6 3-11 8-15 7-5 17-3 23 1a61 61 0 0 0-13 2c-1 0-9 1-10 3 0 3 5 4 6 4a51 51 0 0 0-14 5z"/><path class="cls-42" d="M77 109c2 4 4 8 9 8a13 13 0 0 0 1 0 3 3 0 0 0 1 0 21 21 0 0 0 7-3v2c-4 2-9 4-12 2-4-3-7-8-7-12-1-3 0-7 3-9a3 3 0 0 0 1 0 5 5 0 0 0-3 3v9zM149 81h1a48 48 0 0 0 0 3 5 5 0 0 0 1 1c2 3 7 4 9 1a10 10 0 0 0 1-8v-1-2a10 10 0 0 1 1 2 17 17 0 0 1 1 3 7 7 0 0 0-1 1v1l1-1a11 11 0 0 1-1 3 7 7 0 0 0-1 2 18 18 0 0 1 1-1 5 5 0 0 1-2 3 8 8 0 0 1-9-2 4 4 0 0 1-1-2 17 17 0 0 1-1-3z"/><path class="cls-53" d="M86 146l-3-1 11-4a1 1 0 0 1 0 1l-1-1v1h1a45 45 0 0 1-8 4zM140 191a21 21 0 0 1 1-3 28 28 0 0 0 1-4v-4a17 17 0 0 0 2 2l-3 9a1 1 0 0 1 0 1l-1-1z"/><path class="cls-49" d="M101 512a9 9 0 0 0 0-2 12 12 0 0 1 3 0 12 12 0 0 1 1 1 1 1 0 0 1 1 0 1 1 0 0 1 0 1 1 1 0 0 1-1 1h-1a21 21 0 0 0-3-1z"/><path class="cls-40" d="M90 108a28 28 0 0 1-3-4 11 11 0 0 1 3 4z"/><path class="cls-56" d="M178 179a1 1 0 0 0 0 1l1 2a91 91 0 0 1 3 14l2 31a174 174 0 0 1-1 29c-1 10-3 20-2 29-2 3-4 6-7 7l2-14c4-16 2-31 3-47l1-36-3-22 1 6z"/><path class="cls-40" d="M82 105c-2 4 1 12 5 12a13 13 0 0 1-1 0c-5 0-7-4-9-8v-9a5 5 0 0 1 3-3c3 0 5 4 6 7a4 4 0 0 0-3 0 2 2 0 0 0-1 1z"/><path class="cls-42" d="M54 289a8 8 0 0 0-1-5 5 5 0 0 0-1-2 3 3 0 0 1 0-1 3 3 0 0 1 1 1 3 3 0 0 0 0 1 3 3 0 0 1 0-1 6 6 0 0 1 1 1 10 10 0 0 1 1 4 7 7 0 0 1 0 2 8 8 0 0 0 2 0 6 6 0 0 0 1 0h-3-1z"/><path class="cls-46" d="M76 115a1 1 0 0 0-2 0l-1 4a63 63 0 0 1-3-11c1-4 5-10 7-12a2 2 0 0 0 2 1c-3 2-4 6-3 9 0 5 3 9 7 12 3 2 8 0 12-2v11c-3 2-6-4-10-4l-1 1a15 15 0 0 1 2 4 14 14 0 0 1-6-3 16 16 0 0 1-4-10z"/><path class="cls-42" d="M53 294a12 12 0 0 1-1-1 12 12 0 0 1-2-2 8 8 0 0 1-2-4c0-1 0-5 2-6a2 2 0 0 1 2 0 3 3 0 0 0 0 1 1 1 0 0 0-2 0c-3 4-1 8 2 11a14 14 0 0 0 1 1z"/><path class="cls-49" d="M87 515v-1c5-2 9-5 14-5a9 9 0 0 1 0 3 17 17 0 0 0-5 0l-1-1a8 8 0 0 0 0 1 21 21 0 0 0-4 2l-4 1zM68 524a30 30 0 0 0 1-8l1 1-2 7z"/><path class="cls-44" d="M93 39l-3 3v-1a71 71 0 0 1 5-5h1v-1a113 113 0 0 1 16-11c5-3 12-7 19-9v1l2-1a29 29 0 0 1 4-1 11 11 0 0 1 0 1c-7 1-15 5-21 8L93 39z"/><path class="cls-49" d="M269 527a1 1 0 0 1 0 1 1 1 0 0 1-1 0 5 5 0 0 1-1 1 21 21 0 0 1-5 1h-40a224 224 0 0 1-28-2c-3-1-10-1-13-5h1l6 2a97 97 0 0 0 10 2 283 283 0 0 0 64 0h4a9 9 0 0 1 2 0 1 1 0 0 1 1 0z"/><path class="cls-49" d="M268 528a1 1 0 0 0 1 0 1 1 0 0 1-2 1 5 5 0 0 0 1-1zM268 523l1 4a1 1 0 0 0-1 0 9 9 0 0 0-2 0v-3-5a1 1 0 0 0 1 0 17 17 0 0 1 1 4z"/><path class="cls-49" d="M267 518a1 1 0 0 1 0 1 1 1 0 0 1-1 0 1 1 0 0 0 0-2h-1a33 33 0 0 0-2-6h2a33 33 0 0 1 2 7z"/><path class="cls-49" d="M266 517a1 1 0 0 1 0 2c-8 0-16 2-23 3a190 190 0 0 1-20 0l-22-2-18-3h-1 1l15 2h6a289 289 0 0 0 38 1v1h1v-1h2c6-1 13-3 20-3h1z"/><path class="cls-57" d="M266 519v8h-4a321 321 0 0 1-64 0 97 97 0 0 1-10-2l-6-2a5 5 0 0 0 1-2 15 15 0 0 0 0-3 1 1 0 0 0 0-1l18 3 22 2a190 190 0 0 0 20 0c7-1 15-3 23-2z"/><path class="cls-49" d="M256 503c5 1 8 4 9 8h-2a8 8 0 0 0-6-5 38 38 0 0 0-6 0l1-1-1-1a5 5 0 0 0-2 1 18 18 0 0 1-3 0 28 28 0 0 1-5-2 1 1 0 0 0 0-1h-1a35 35 0 0 1-5-3v-1a2 2 0 0 0-1 0 74 74 0 0 1-5-5 1 1 0 0 0 0-1 43 43 0 0 0 12 8c5 3 9 3 15 3z"/><path class="cls-41" d="M263 511a33 33 0 0 1 2 6c-7 0-14 2-20 3h-2a39 39 0 0 1 2-7h1a123 123 0 0 0 17-2z"/><path class="cls-57" d="M257 506a8 8 0 0 1 6 5 123 123 0 0 1-17 2h-1v-1a19 19 0 0 1 6-7 38 38 0 0 1 6 1z"/><path class="cls-49" d="M251 504l1 1-1 1a19 19 0 0 0-6 6v1h-1a24 24 0 0 1 1-2 19 19 0 0 1 4-6 5 5 0 0 1 2-1z"/><path class="cls-45" d="M246 505a18 18 0 0 0 3 0 19 19 0 0 0-4 6 24 24 0 0 0-1 2l-19 2c-9 0-18 0-27-2l-10-13a20 20 0 0 0 0-5c6 4 13 4 19 3l21-4a1 1 0 0 0 1-1 74 74 0 0 0 5 5 6 6 0 0 0-2 2v1a3 3 0 0 0-3 0 3 3 0 0 0-2 4c0 2 2 2 3 1a5 5 0 0 0 3-4 1 1 0 0 0-1-1h1a18 18 0 0 1 1-1 3 3 0 0 0 1-1 35 35 0 0 0 5 3 5 5 0 0 0-1 1l-1 2-1 1a3 3 0 0 0-1-1h-1c-2 1-2 5 1 6a3 3 0 0 0 3-2 3 3 0 0 0-1-3 13 13 0 0 1 1-1l2-2a28 28 0 0 0 5 2z"/><path class="cls-42" d="M233 227c8-9 18-24 11-36a19 19 0 0 0-1-2l1 2h1c7 11-2 26-9 35a179 179 0 0 1-19 20c-6 6-12 13-20 18v-1l19-17a188 188 0 0 0 17-19z"/><path class="cls-49" d="M244 513h1a39 39 0 0 0-2 7v1h-1v-1a20 20 0 0 1 2-7z"/><path class="cls-42" d="M245 191h-1 1zM243 189a19 19 0 0 1 1 2l-14-13-7-6v-1l8 6 12 12z"/><path class="cls-49" d="M241 502a1 1 0 0 1 0 1l-2 2a13 13 0 0 0-1 1 4 4 0 0 0-1-1h1l1-2a5 5 0 0 1 1-1h1z"/><path class="cls-49" d="M238 506a3 3 0 0 1 1 3 3 3 0 0 1-3 2c-3-1-3-5-1-6h1a3 3 0 0 1 1 0 4 4 0 0 1 1 1zm-3 3c1 1 3 0 3-1a2 2 0 0 0-1-1h-1a3 3 0 0 1-1 0v2z"/><path class="cls-57" d="M238 508c0 1-2 2-3 1v-3a3 3 0 0 0 1 0h1a6 6 0 0 0-1 2 8 8 0 0 1 1-1 2 2 0 0 1 1 1z"/><path class="cls-49" d="M237 507a8 8 0 0 0-1 1c0 1 0 1 0 0a6 6 0 0 1 1-1zM235 498v1a3 3 0 0 1-1 1 18 18 0 0 0-1 1h-1v-1a6 6 0 0 1 2-2 2 2 0 0 1 1 0z"/><path class="cls-49" d="M233 502a5 5 0 0 1-3 4c-1 1-3 1-3-1a3 3 0 0 1 2-4 3 3 0 0 1 3 0 1 1 0 0 1 1 1zm-1 0h-1a3 3 0 0 0-3 1 2 2 0 0 0 0 2h2a4 4 0 0 0 2-3z"/><path class="cls-57" d="M232 502a4 4 0 0 1-2 3h-2a2 2 0 0 1 0-2 3 3 0 0 1 3-1l-1 2 2-2z"/><path class="cls-49" d="M232 502l-2 2 1-2h1z"/><path class="cls-45" d="M231 502z"/><path class="cls-49" d="M230 474l-1 1c0-2-2-4-4-2a12 12 0 0 0-2 4l-5 17v1a1 1 0 0 1-1 0 4 4 0 0 1 0-1 87 87 0 0 1 2-12 38 38 0 0 1 3-7v-1a10 10 0 0 1 3-2c2-2 4 0 5 2z"/><path class="cls-49" d="M221 493l6-2v1a1 1 0 0 0 2 1 1 1 0 0 1-1 1l-21 4c-6 1-13 1-19-3v-1h1a40 40 0 0 0 20 2l8-2a4 4 0 0 0 0 1 1 1 0 0 0 1 0v-1l3-1z"/><path class="cls-57" d="M225 473c2-2 3 0 4 2a34 34 0 0 0-8 18l-3 1 5-17a12 12 0 0 1 2-4z"/><path class="cls-42" d="M223 171v1l-5-5v-1l5 5zM222 474v1l-2-6 1-1 1 6z"/><path class="cls-43" d="M231 201l-21 24c-6 7-14 16-17 24-2 8-2 17-2 25 0 5 0 5 4 6s8 0 11-1a8 8 0 0 1-1 2c-2 4-9 6-14 5l-1-4a185 185 0 0 1-6-20l1-4v-8a131 131 0 0 1 14-29c4-7 10-15 18-19h-1a14 14 0 0 0-3 2l-6-3-5-4a58 58 0 0 0 12-14c3-5 6-11 4-16l5 5c-1 7-5 13-7 20s10 8 15 9z"/><path class="cls-42" d="M221 468l-1 1-5-21a304 304 0 0 1-2-13l3 14 5 19z"/><path class="cls-47" d="M221 423a1 1 0 0 0-1 0h-1l-5-19 2-2 5 21z"/><path class="cls-39" d="M191 195l4 4c7-4 13-9 17-16 4-5 7-12 4-18l1-1v1a13 13 0 0 1 1 1v1c1 5-1 11-4 16a58 58 0 0 1-12 14h-1a49 49 0 0 1-5 4 1 1 0 0 1-2 0 88 88 0 0 1-13-17l-2-6a1 1 0 0 1 1 1 124 124 0 0 0 11 16z"/><path class="cls-53" d="M217 164a1 1 0 0 1 0 1v-1l-1 1-1-1a19 19 0 0 0 0-2 18 18 0 0 1 2 2z"/><path class="cls-40" d="M220 469c-4 5-8 11-9 20h-10c-5 0-5-1-6-5-4-8-5-13-4-21 0-10 1-17 10-22 3-2 7-5 11-6l3 13 5 21z"/><path class="cls-39" d="M216 165c3 6 0 13-4 18-4 7-10 12-17 16l-4-4c6-4 11-6 15-11s8-13 9-20l1 1z"/><path class="cls-42" d="M216 202h1c-8 4-14 12-18 19a131 131 0 0 0-14 29l1-4c2-9 8-19 13-27 3-5 7-12 13-15h1a14 14 0 0 1 3-2z"/><path class="cls-47" d="M215 398l1 4-2 2-1-6-10-37-14-49h1c6 16 10 33 15 50l10 36z"/><path class="cls-53" d="M212 160l3 2a19 19 0 0 1 0 2 24 24 0 0 1-6-3l-7-7a53 53 0 0 1 6 3l2 2a25 25 0 0 0 2 1z"/><path class="cls-44" d="M213 398l1 6c-11 8-24 13-36 17a45 45 0 0 1-5 1 131 131 0 0 1-6-17 50 50 0 0 1-3-12l2-9c0-4 1-4-4-4a34 34 0 0 0-7 0l8-7c-4-2-10-1-15 0a159 159 0 0 0-6-20l-5-17 1-11h2c15-1 36-3 48-13l15 49 10 37z"/><path class="cls-42" d="M213 435h-1l-1-6a2 2 0 0 0 1 0l1 6zM213 204h-1c-4-1-8-4-11-7h1l5 4 6 3zM207 271a19 19 0 0 1 1 8h-2v-9l1 1zM207 269z"/><path class="cls-53" d="M208 157a53 53 0 0 0-6-3h-1l-17-14c-11-6-23-5-35-3v-1c10-4 23-4 32 1 7 3 13 8 19 13l8 7z"/><path class="cls-42" d="M202 268zM202 268l-2-1a13 13 0 0 0-2 1 4 4 0 0 1 1-1 3 3 0 0 1 1-1 3 3 0 0 1 2 2zM202 268z"/><path class="cls-56" d="M201 154h1l-7-3a126 126 0 0 0-18-6c-8-2-18-6-27-3l-1-5c12-2 24-3 35 3l17 14z"/><path class="cls-42" d="M198 267a4 4 0 0 1 1 0 4 4 0 0 0-1 1v-1z"/><path class="cls-53" d="M198 301h-1a4 4 0 0 1-1-2h-1a50 50 0 0 1-3-6l2-1 4 9z"/><path class="cls-53" d="M184 301a1 1 0 0 1 0-1c4 0 8-2 11-1h1a1 1 0 0 1 1 2 1 1 0 0 1-1 0 33 33 0 0 0-10 1l-19 5c-12 1-23 5-34 4h-5v-1a139 139 0 0 0 22-2c7 0 13-2 19-3l15-4z"/><path class="cls-49" d="M198 513h-2l-9-12v-1h1l10 13z"/><path class="cls-41" d="M196 513a18 18 0 0 1 2 6l-15-2 2-8a49 49 0 0 0 11 4z"/><path class="cls-57" d="M187 501l9 12a49 49 0 0 1-11-4l1-3 1-5z"/><path class="cls-48" d="M195 299c-3-1-7 0-11 1a16 16 0 0 0 0-5l4-1 4-1a50 50 0 0 0 3 6z"/><path class="cls-53" d="M194 292l-2 1a106 106 0 0 1-4-11 150 150 0 0 1-4-17 240 240 0 0 1 0-5v2a185 185 0 0 0 6 20l1 4 1 1 2 5z"/><path class="cls-56" d="M192 293l-4 1-4 1a43 43 0 0 0-2-9l2-21a150 150 0 0 0 4 17 106 106 0 0 0 4 11z"/><path class="cls-47" d="M190 311l-1 1-3-10 4 9z"/><path class="cls-42" d="M189 494h-1c-9-15-20-33-20-52h1c0 10 3 19 7 28l13 24z"/><path class="cls-59" d="M112 311h21c11 1 22-3 34-4l19-5 3 10c-13 10-34 12-49 13h-2c-8 0-16 0-24 2-10 3-16 10-20 20-5 10-11 21-14 32a81 81 0 0 0 14 5c-4 4-8 3-12 4a48 48 0 0 0 9 9c-13-1-13 13-11 27a78 78 0 0 1-10-2l-10-5c-1-17 0-34 2-51l5-59a315 315 0 0 0 45 4z"/><path class="cls-49" d="M188 495a20 20 0 0 1 0 5h-1v1l-1 5-1 3-2-1 1-3 4-11v1z"/><path class="cls-53" d="M185 227a153 153 0 0 1 1 19l-1 4v8l-1 4v-2h-1l1 5-2 21v-1h-1c-1-9 1-19 2-29a174 174 0 0 0 1-29l-2-31a91 91 0 0 0-3-14l-1-3-1-6v-3l2 9 2 6a73 73 0 0 1 2 10l2 32z"/><path class="cls-39" d="M184 295a16 16 0 0 1 0 6l-15 4c-6 1-12 3-19 3l-22 1h-17l-4-4h8a203 203 0 0 0 69-10z"/><path class="cls-49" d="M183 508l2 1-2 8h-1 1a1 1 0 0 1-1 0 38 38 0 0 1 1-9z"/><path class="cls-49" d="M183 518a15 15 0 0 1 0 3 5 5 0 0 1-1 2 3 3 0 0 1 0-1l-1 1a4 4 0 0 1 0-3 11 11 0 0 1 0-3 1 1 0 0 1 1 0 1 1 0 0 0 1 0 1 1 0 0 1 0 1z"/><path class="cls-53" d="M182 286v1h-1v-2h1v1z"/><path class="cls-42" d="M181 85a12 12 0 0 0 0-3c0-3-1-9-5-10h-1a3 3 0 0 1 1 0c4 0 5 7 5 10 1 5-1 12-7 13v-1c4-1 7-5 7-9z"/><path class="cls-40" d="M181 82a12 12 0 0 1 0 3c0-3-1-6-3-6s-4 1-5 3a7 7 0 0 0 0 1v-1l3-9v-1c4 1 5 7 5 10z"/><path class="cls-43" d="M178 79c2 0 3 3 3 6 0 4-3 8-7 9l-1-7a7 7 0 0 0 0-2 9 9 0 0 1 1-2c0-2 2-4 4-4-2 0-3 1-4 3a10 10 0 0 0-1 0c1-2 2-4 5-3z"/><path class="cls-49" d="M179 45v1h-17l-11 1a40 40 0 0 1 6 1 1 1 0 0 1 0 2c-11 2-22 8-33 10-11 1-22 1-32-3 12 2 23 3 36 1 9-2 17-7 26-9a46 46 0 0 0-10-1 1 1 0 0 1 0-1c11-1 23-4 33-2l1 1a1 1 0 0 0 1-1z"/><path class="cls-49" d="M179 45a1 1 0 0 1-1 1l-1-1a43 43 0 0 0-7-6l-7-5-3-2h2l1 1 2 1c5 3 11 6 14 11z"/><path class="cls-53" d="M178 179l1 3-1-2a1 1 0 0 1 0-1z"/><path class="cls-42" d="M173 82a10 10 0 0 1 1 0c1-2 2-3 4-3-2 0-4 2-4 4a9 9 0 0 0-1 2 7 7 0 0 1 0 2v-4a7 7 0 0 1 0-1z"/><path class="cls-53" d="M176 170l1 3-2-6h1v3z"/><path class="cls-49" d="M176 63a38 38 0 0 1 0 9 3 3 0 0 0-1 0h1v1l-3 9v-4-2c2-4 2-8 2-12a48 48 0 0 0-3-12l-2-6h1l2 7a39 39 0 0 1 3 10z"/><path class="cls-42" d="M174 95a37 37 0 0 1 0 5c-1 13-11 26-23 32a38 38 0 0 1-7 2 3 3 0 0 0-1 0 37 37 0 0 0 8-3c13-7 23-21 22-36l-1-13v-2l-1-9a68 68 0 0 0-3-21 72 72 0 0 1 4 21l1 7v9l1 7v1z"/><path class="cls-49" d="M172 80v2a7 7 0 0 1 0-2z"/><path class="cls-45" d="M170 39a43 43 0 0 1 7 6c-10-2-22 1-33 2a1 1 0 0 0 0 1 46 46 0 0 1 10 1c-9 2-17 7-26 9-13 2-24 1-36-1v-1l3-4c4 2 11 1 15 0l20-3a22 22 0 0 1-9-6l17-2 19-3a31 31 0 0 1-12-5c3-2 9-2 15-1l3 2 7 5z"/><path class="cls-59" d="M167 405a131 131 0 0 0 6 17c-7 2-13 1-20 1l-8-18c-5-11-10-22-13-33l5-36 5 17a159 159 0 0 1 6 20c5-1 11-2 15 0l-8 7a34 34 0 0 1 7 0c5 0 4 0 4 4l-2 9a50 50 0 0 0 3 12z"/><path class="cls-42" d="M166 82a7 7 0 0 0-4 3 18 18 0 0 0-1 1 7 7 0 0 1 1-2 5 5 0 0 1 4-2zM164 78l-1 3-1 1v-1a7 7 0 0 1 1-1 11 11 0 0 1 1-2z"/><path class="cls-44" d="M163 32v1l-1-1z"/><path class="cls-49" d="M162 32h-2l-7-5a19 19 0 0 1 8 5 1 1 0 0 0 1 0z"/><path class="cls-44" d="M162 31v1a1 1 0 0 1-1 0 19 19 0 0 0-8-5c-13-4-30 5-40 11a111 111 0 0 0-18 14 4 4 0 0 1-1-1 109 109 0 0 1 24-18c8-4 16-8 25-8 6-1 14 0 18 5a13 13 0 0 1 1 1z"/><path class="cls-49" d="M162 61h-1c-4-3-7-1-11 0l-6 2a1 1 0 0 1 0-2 27 27 0 0 1 11-4 6 6 0 0 1 7 4z"/><path class="cls-40" d="M161 75a7 7 0 0 0-5-4 10 10 0 0 1 4 0 29 29 0 0 1 1 4z"/><path class="cls-43" d="M159 68a16 16 0 0 1 1 2 9 9 0 0 0-4-1 10 10 0 0 0-6 2c-2 2-3 7-1 10a17 17 0 0 0 1 3 4 4 0 0 0 1 2c-4-2-5-15-4-18 2-5 9-5 12 0z"/><path class="cls-42" d="M158 103a3 3 0 0 1-2-1 5 5 0 0 1 0-1 5 5 0 0 1 0-2 7 7 0 0 0 1 2 17 17 0 0 0 1 2z"/><path class="cls-42" d="M156 101a5 5 0 0 0 0 1 14 14 0 0 1-4 6h0l-1 1a13 13 0 0 1-3 2h-2a17 17 0 0 1-8 0 1 1 0 0 0-1 0l-1-1h-1a20 20 0 0 1-3-3h-1c9 7 21 5 25-6z"/><path class="cls-46" d="M153 27l7 5c-6-1-12-1-15 1a31 31 0 0 0 12 5l-19 3-17 2a22 22 0 0 0 9 6c-6 2-14 2-20 3-4 1-11 2-15 0a111 111 0 0 1 18-14c10-6 27-15 40-11z"/><path class="cls-42" d="M152 108h0l-1 3a6 6 0 0 1-1 1l1-3 1-1zM150 94a5 5 0 0 1-1 6 8 8 0 0 1-6 2c-2-1-3-1-3-3 1 2 2 2 4 2a8 8 0 0 0 5-1 4 4 0 0 0 1-5v-1z"/><path class="cls-43" d="M150 95a4 4 0 0 1-1 5 8 8 0 0 1-5 1c-2 0-3 0-4-2 4 0 7-1 10-5v1z"/><path class="cls-17" d="M151 109l-1 3c-5 2-12 2-17-1a26 26 0 0 1-1-4 20 20 0 0 0 3 3h2a1 1 0 0 1 1 1 16 16 0 0 0 8 0h2a13 13 0 0 0 3-2z"/><path class="cls-53" d="M150 308a139 139 0 0 1-22 2v1h5-21l-1-2h17l22-1z"/><path class="cls-42" d="M150 94a4 4 0 0 0-5-1 4 4 0 0 1 5 1z"/><path class="cls-44" d="M149 16v1l-3-2c-9-8-18-13-30-13h-3c-13 0-26 5-35 13a87 87 0 0 0-8 7l1-3a75 75 0 0 1 7-6 60 60 0 0 1 37-13 46 46 0 0 1 34 16z"/><path class="cls-42" d="M149 121c0-1 0 0 0 0-3 2-7 3-11 2 4 0 7 0 11-2z"/><path d="M150 112a17 17 0 0 1-2 4c-4-1-7-1-10 1a16 16 0 0 1-5-6c5 3 12 3 17 1z" fill="#9a1503"/><path class="cls-58" d="M146 15a22 22 0 0 0-9-1 31 31 0 0 0-6-6 25 25 0 0 0-15-6c12 0 21 5 30 13z"/><path class="cls-53" d="M144 138l1 5a14 14 0 0 0-1 1l-1-6h1z"/><path class="cls-42" d="M144 137a1 1 0 0 1 0 1h-1a1 1 0 0 1 0-1 4 4 0 0 0 1 0z"/><path class="cls-42" d="M144 136v1a4 4 0 0 1-1 0v-1a9 9 0 0 1 0-1 2 2 0 0 1 0-1 3 3 0 0 1 1 0 10 10 0 0 1 0 2z"/><path class="cls-40" d="M138 111a17 17 0 0 0 8 0 16 16 0 0 1-8 0z"/><path class="cls-42" d="M143 134a2 2 0 0 0 0 1 45 45 0 0 1-24-2 21 21 0 0 1-2-2 40 40 0 0 0 26 3z"/><path class="cls-53" d="M141 191a1 1 0 0 1 0 1 7 7 0 0 0 0-1z"/><path class="cls-42" d="M140 98a3 3 0 0 0 0 1 2 2 0 0 1 0-1z"/><path class="cls-53" d="M112 156a147 147 0 0 0-18-14h-1v-1l1 1c4 1 8 4 11 7l14 11c8 7 18 17 22 28a21 21 0 0 0-1 3l-10-17a120 120 0 0 0-12-12l-6-6z"/><path class="cls-47" d="M138 325a637 637 0 0 1-2 9l2-9zM138 325z"/><path class="cls-44" d="M136 334l-5 33v1l-2 12-2 30-2 15c-11 3-23 1-33 1a109 109 0 0 1-12-2c-2-14-1-28 11-27a48 48 0 0 1-9-9c4-1 8 0 12-4a81 81 0 0 1-14-5c3-11 9-22 14-32 4-10 10-17 20-20 8-2 16-2 24-2l-2 9z"/><path class="cls-42" d="M138 117a2 2 0 0 0-1 0 16 16 0 0 1-5-7 9 9 0 0 0 1 1 16 16 0 0 0 5 6z"/><path class="cls-47" d="M136 334l1 2-5 36-1-4v-1l5-33z"/><path class="cls-42" d="M133 111a9 9 0 0 1-1-1 19 19 0 0 1-1-3h1a26 26 0 0 0 1 4zM132 103a6 6 0 0 1-1 3 1 1 0 0 0 0 1 30 30 0 0 1-2 2l1-3a22 22 0 0 0 1-3h1z"/><path class="cls-42" d="M131 107a1 1 0 0 1 0-1v1z"/><path class="cls-46" d="M128 12a22 22 0 0 1 3 3c-7 2-14 6-19 9a113 113 0 0 0-16 11 50 50 0 0 1 0-9 51 51 0 0 1 14-5c-1 0-6-1-6-4 1-2 9-3 10-3a61 61 0 0 1 14-2z"/><path class="cls-47" d="M127 424a85 85 0 0 1-2 14 1 1 0 0 0-2 0l2-13 2-1z"/><path class="cls-42" d="M114 97v-1 0a17 17 0 0 1-1-4v1l1 2v1c1 3 8 5 10 1a10 10 0 0 0 2-6 2 2 0 0 0 0-1 9 9 0 0 0 0-2v1c1 3 1 9-3 10a8 8 0 0 1-7 0 6 6 0 0 1 1 1v-1a4 4 0 0 0-2-1 3 3 0 0 1-1-1z"/><path class="cls-49" d="M126 545a1 1 0 0 1-1 2c-13 4-28 4-41 1 13 2 27 0 40-4a1 1 0 0 1 2 1z"/><path class="cls-49" d="M126 543a8 8 0 0 1 0 2 1 1 0 0 0-2-1 7 7 0 0 1 0-1 9 9 0 0 0 0-2v-3h1a23 23 0 0 1 0 3 22 22 0 0 0 1 2z"/><path class="cls-42" d="M126 88a9 9 0 0 1 0 2 2 2 0 0 1 0 1 10 10 0 0 0-1-2c-1-3-3-6-6-6a12 12 0 0 1 1 0 8 8 0 0 1 6 5z"/><path class="cls-49" d="M125 536v2h-1c-3-1-7 0-11 1l-10 2c-6 0-12 1-18-2a77 77 0 0 1-17-12l-7-9a9 9 0 0 1 0-1 8 8 0 0 1-1-3l1 2a59 59 0 0 0 7 8 44 44 0 0 0 6 5c4 3 8 7 13 9v1h1a16 16 0 0 0 2 0c7 1 14 0 21-1l12-2a18 18 0 0 1 2 0z"/><path class="cls-49" d="M125 536a18 18 0 0 0-2 0 10 10 0 0 0-4-5l3-1a12 12 0 0 1 3 6z"/><path class="cls-47" d="M125 438a1 1 0 0 1-1 2c-3 3-7 4-12 4l-5 1H86l-1-2h20c7-1 13-1 18-5a1 1 0 0 1 2 0z"/><path class="cls-40" d="M126 88a8 8 0 0 0-6-5 11 11 0 0 1 3 0 20 20 0 0 1 3 5z"/><path class="cls-57" d="M124 541a9 9 0 0 1 0 2 7 7 0 0 0 0 1c-13 4-27 6-40 4a1 1 0 0 0 0-2l-13-7a76 76 0 0 1-9-11l-1-6v-4l7 9a77 77 0 0 0 17 12c6 3 12 2 18 2l10-2c4-1 8-2 11-1v3z"/><path class="cls-54" d="M125 425l-2 13c-5 4-11 4-17 5H85a153 153 0 0 1-5-19 109 109 0 0 0 12 2c10 0 22 2 33-1z"/><path class="cls-49" d="M120 64v1l-2 1h-6c2-2 5-3 8-2z"/><path class="cls-41" d="M119 531a10 10 0 0 1 4 5l-11 2c-8 1-15 2-22 1a16 16 0 0 1-2-1 16 16 0 0 1 2-4 7 7 0 0 1 0-1c9 2 21 0 29-2z"/><path class="cls-42" d="M117 99v1a6 6 0 0 0-1-1 6 6 0 0 0-7 1 7 7 0 0 1 6-2 4 4 0 0 1 2 1z"/><path class="cls-49" d="M114 66h4l-8 4a14 14 0 0 0-5 9c0-4 2-8 4-11a17 17 0 0 1 3-2h2zM111 520l7 8a18 18 0 0 0-4-1 28 28 0 0 1-4-4v-1a6 6 0 0 0-1-1l-3-5h1v-1a9 9 0 0 0-2 0l-1-3 1 1a1 1 0 0 0 1-1l5 8z"/><path class="cls-42" d="M113 96a9 9 0 0 0-2-1 5 5 0 0 1 2 1z"/><path class="cls-45" d="M114 527a41 41 0 0 0-10 1 36 36 0 0 0-2-6 12 12 0 0 1 8 1 28 28 0 0 0 4 4z"/><path class="cls-42" d="M112 444v6h-1l1-6z"/><path class="cls-57" d="M104 529c6-1 11-1 15 2-8 2-20 4-29 2a9 9 0 0 1 2-2 16 16 0 0 0 2-1l10-1z"/><path class="cls-53" d="M111 309l1 2a328 328 0 0 1-45-4h-1l-7-1v-1a11 11 0 0 0 4-5h1a13 13 0 0 1-2 5l19 3a199 199 0 0 0 24 1h6z"/><path class="cls-42" d="M111 450h1l-3 17-4 27a5 5 0 0 0-1-2l4-25 3-17z"/><path class="cls-48" d="M111 309h-6a199 199 0 0 1-24-1l-19-3a13 13 0 0 0 2-5c14 3 29 4 43 5l4 4z"/><path class="cls-43" d="M86 445h21l5-1-1 6-17 4c-7 2-16 4-19 11-3 10-1 27 2 38 2-6 10-11 16-12 3-1 8-1 11 1l-1 8-1-1c-2-3-5-5-10-5-9 1-11 12-10 20-5-3-11-7-13-13v-1a454 454 0 0 1-5-59c7 3 15 4 22 4z"/><path class="cls-49" d="M110 522v1a12 12 0 0 0-8-1h-1a62 62 0 0 0-7 3 3 3 0 0 0 0-1 25 25 0 0 1 6-3h9a6 6 0 0 1 1 1z"/><path class="cls-40" d="M111 450l-3 17-4 25c-3-2-8-2-11-1-6 1-14 6-17 11-2-10-5-27-1-38 3-6 12-8 19-10l17-4z"/><path class="cls-45" d="M106 516l3 5h-8v-1l-3-4a12 12 0 0 1 8 0z"/><path class="cls-49" d="M107 515v1h-1a12 12 0 0 0-8 0h-1a29 29 0 0 0-6 4l-1-1a20 20 0 0 1 6-4h2a14 14 0 0 1 7 0 9 9 0 0 1 2 0zM103 501c2 4 4 7 3 11a1 1 0 0 0 0-1 1 1 0 0 0-1 0v-1a1 1 0 0 0-1 0c-3-6-4-17-12-14-9 2-9 12-9 20a1 1 0 0 0 0-2h-1c0-8 1-19 10-20 5 0 8 2 10 5l1 1v1z"/><path class="cls-49" d="M105 510v1a12 12 0 0 0-1-1 1 1 0 0 1 1 0z"/><path class="cls-56" d="M110 293c-5-5-8-10-14-13 5 5 5 13 8 20a38 38 0 0 0 3 5c-14-1-29-2-43-5a28 28 0 0 0 1-4h3c3 0 9-1 12-4a37 37 0 0 0 2-12l4 8h1a42 42 0 0 0-5-11 37 37 0 0 0-1-9l2 4 11 15c0 1 1 0 0 0l-9-15-5-7-3-8-1-12-3-16-8-24c3-5 6-10 7-15v-1a58 58 0 0 0 6-6c-3 8-2 20-2 29v-2l13 20c4 6 5 16 11 20-3-2-10-5-12 0l7 14c6 9 12 18 15 29z"/><path class="cls-49" d="M105 528a1 1 0 0 1-1 1 1 1 0 0 1-1-1 39 39 0 0 0-2-6h1a36 36 0 0 1 2 6h1z"/><path class="cls-42" d="M105 494l-2 7v-1l1-8a5 5 0 0 1 1 2z"/><path class="cls-49" d="M103 528a1 1 0 0 0 1 1l-10 1 9-2zM102 103a1 1 0 0 1 0 1 1 1 0 0 1-1 0 1 1 0 0 0 0-1h-1a37 37 0 0 1-6-13l1-1a39 39 0 0 0 7 14z"/><path class="cls-49" d="M101 103a1 1 0 0 1 0 1c-3 2-6 2-9 2a1 1 0 0 1-1-1 17 17 0 0 0-2-5l-1-2h1a16 16 0 0 1 3 6c1 1 6 0 8-1h1zM101 520v1h-1l-1-2-2-3h1l3 4z"/><path class="cls-41" d="M101 509c-5 0-9 3-14 5 0-5 0-13 6-12 3 0 7 4 8 7z"/><path class="cls-45" d="M99 519l1 2a25 25 0 0 0-6 3 3 3 0 0 0-1-1 3 3 0 0 0-1 0 3 3 0 0 0-1-2 5 5 0 0 0 0-1 29 29 0 0 1 6-4l2 3z"/><path class="cls-49" d="M98 515h-2a14 14 0 0 1-1-3 8 8 0 0 1 0-1l1 1 2 3z"/><path class="cls-42" d="M95 114l1 1h-1v-1z"/><path class="cls-46" d="M94 90a37 37 0 0 0 6 13c-2 1-7 2-8 1a16 16 0 0 0-4-6c-1-2-4-2-6-2a42 42 0 0 1 4-3c1 3 5-1 8-3z"/><path class="cls-42" d="M95 115c1 8 3 19-1 26a50 50 0 0 0 1-12v-2-13 1z"/><path class="cls-43" d="M88 117h-1c-4 0-7-8-5-12l5-1a28 28 0 0 0 3 4l1 1 4 5a21 21 0 0 1-7 3z"/><path class="cls-42" d="M95 114z"/><path class="cls-44" d="M63 105a99 99 0 0 1 9-21 213 213 0 0 1 12-20l2-3a70 70 0 0 1 5-7l3-3a4 4 0 0 0 1 1l-3 4-3 4a184 184 0 0 0-21 33l-7 25v1a48 48 0 0 1 0-6l2-8z"/><path class="cls-49" d="M94 525a3 3 0 0 1-2 4 3 3 0 0 1-3-1 2 2 0 0 1 0-2 3 3 0 0 1 0-1 3 3 0 0 1 1-1 3 3 0 0 1 2-1 3 3 0 0 1 1 0 3 3 0 0 1 1 1 3 3 0 0 1 0 1zm-4 2c1 1 3 1 3-1a2 2 0 0 0 0-1 2 2 0 0 0-2-1 2 2 0 0 0-1 2v1z"/><path class="cls-53" d="M94 287s0 1 0 0l-11-15-2-4a34 34 0 0 0-5-10v-1a2 2 0 0 1 1 0l3 8 5 7 9 15z"/><path class="cls-49" d="M94 530a16 16 0 0 1-2 1 9 9 0 0 0-2 2h-1v-1c1-1 3-3 5-2z"/><path class="cls-57" d="M93 526c0 2-2 2-3 1v-1a2 2 0 0 1 1-2 2 2 0 0 1 2 1 12 12 0 0 0-2 1h2z"/><path class="cls-49" d="M93 525a2 2 0 0 1 0 1h-2a12 12 0 0 1 2-1zM93 73a6 6 0 0 1-1 0l-1-17h1v1l1 16zM91 521a3 3 0 0 1 1 2 3 3 0 0 0-2 1 3 3 0 0 0-1 1 3 3 0 0 1-4-3 3 3 0 0 1 1-3 2 2 0 0 1 1-1 5 5 0 0 1 3 1l1 1a5 5 0 0 1 0 1zm-1 2v-2a5 5 0 0 0 0-1 5 5 0 0 0-1 0 3 3 0 0 0-2-1l-1 3a2 2 0 0 0 1 2 4 4 0 0 0 3-1z"/><path class="cls-46" d="M92 56v17l-5 1c-2 1-3 3-3 5-2 4-4 14-6 5-4 2-6 7-9 10v-4l2-3a193 193 0 0 1 21-31z"/><path class="cls-57" d="M90 521v2a4 4 0 0 1-3 1 2 2 0 0 1-1-2l1-3a3 3 0 0 1 2 1 13 13 0 0 0-1 2l2-2a5 5 0 0 1 0 1z"/><path class="cls-49" d="M90 533a7 7 0 0 0 0 1 16 16 0 0 0-2 4v1h-1v-1a13 13 0 0 1 2-5h1z"/><path class="cls-44" d="M90 41v1a44 44 0 0 0-6 8v1a28 28 0 0 0-2 4 15 15 0 0 0-1 3q-1 3 4 4v-1l-1 3a3 3 0 0 1-4-3l1-1h-1c-1-3 1-7 3-10a58 58 0 0 1 7-9z"/><path class="cls-52" d="M89 56l-4 5v1q-5-1-4-4a15 15 0 0 1 1-3 28 28 0 0 1 2-4 4 4 0 0 0-1 2 4 4 0 0 0 2 3 3 3 0 0 0 4 0z"/><path class="cls-49" d="M89 520a5 5 0 0 1 1 0l-2 2a13 13 0 0 1 1-2z"/><path class="cls-58" d="M87 50c3 0 3 4 2 5a2 2 0 0 1-4 1 3 3 0 0 1-1-2c1-2 1-4 3-4z"/><path class="cls-42" d="M87 117h1a3 3 0 0 1-1 0zM83 104a4 4 0 0 1 3 0 4 4 0 0 0 1 0l-5 1a2 2 0 0 1 1-1z"/><path class="cls-53" d="M87 288h-1l-4-8v-3a42 42 0 0 1 5 11zM83 145l3 1c-9 4-19 6-27 11a59 59 0 0 0-9 6 36 36 0 0 0-6 4l14-11a75 75 0 0 1 7-4 138 138 0 0 1 18-7z"/><path class="cls-49" d="M84 546a1 1 0 0 1 0 2 1 1 0 0 1-1 0c-10-3-17-11-22-19a1 1 0 0 0 1-1 76 76 0 0 0 9 11l13 7z"/><path class="cls-52" d="M73 72a109 109 0 0 1 7-11 3 3 0 0 0 4 3 213 213 0 0 0-12 20 99 99 0 0 0-9 21 32 32 0 0 0-2 8l-1 7a94 94 0 0 0-3 20l2 8a14 14 0 0 1-2-5c-2-5-2-10-1-15a121 121 0 0 1 8-38 1 1 0 0 0 0-1 123 123 0 0 1 9-17z"/><path class="cls-49" d="M83 514a1 1 0 0 1 0 2h-1v1l1-1a1 1 0 0 1-1 0 58 58 0 0 1-9-7 30 30 0 0 1-3-3v-3h-1v1a6 6 0 0 1 0-3v-1 1c2 6 8 10 13 13h1zM83 516zM83 548z"/><path class="cls-44" d="M82 128l1 1-8 10c-3 4-6 8-10 10l-1 1c-8 4-10-12-10-17a110 110 0 0 1 9-43l1-2a115 115 0 0 1 8-17 9 9 0 0 1 1 1 123 123 0 0 0-9 17v1a121 121 0 0 0-8 38c-1 5-1 10 1 15a14 14 0 0 0 2 5 6 6 0 0 0 2 2 4 4 0 0 1-1-1 3 3 0 0 0 2 0 12 12 0 0 0 5-3c6-5 10-11 15-18z"/><path class="cls-42" d="M82 277v3a37 37 0 0 1-2 12v-3a42 42 0 0 0-3-27 44 44 0 0 0-4-6l1-1 1 2 1 1a34 34 0 0 1 5 10 37 37 0 0 1 1 9z"/><path class="cls-40" d="M82 105z"/><path class="cls-42" d="M82 105zM80 97zM80 289v2c-3 4-9 5-12 5h-3-1c-4 1-10 0-12-3a12 12 0 0 0 1 1 14 14 0 0 1-1-1c3 3 10 3 14 2s12-1 14-6z"/><path d="M79 126a16 16 0 0 0 3 2c-5 7-9 13-15 18a12 12 0 0 1-5 3 3 3 0 0 1-2 0 7 7 0 0 1-2-3v-9a112 112 0 0 1 3-18l1 11c5 9 13 3 17-4z" fill="#006a8c"/><path class="cls-42" d="M80 97a3 3 0 0 1-1 0 2 2 0 0 1 1 0z"/><path d="M75 118a18 18 0 0 0 4 8c-4 7-12 13-17 4l-1-11v-1l7-25 1 12 4 16a1 1 0 0 0 1 0l1-3z" fill="#005b78"/><path class="cls-53" d="M77 262l1 2a21 21 0 0 1-1-2zM76 245l1 12a2 2 0 0 0-1 0v1l-1-1c-2-5-2-10-2-15l-3-15-6-21v-2h1v1l8 24 3 16z"/><path class="cls-38" d="M76 258z"/><path class="cls-42" d="M74 255l-1 1c-12-17-21-41-45-41a29 29 0 0 1 13 2 43 43 0 0 1 14 11 136 136 0 0 1 19 27z"/><path class="cls-40" d="M57 279v-8l5 2v-1a189 189 0 0 1-23-12l-16-12a119 119 0 0 1-15-11c-4-4-9-10-7-16 5-6 8-13 13-18l9-11c6 1 16 11 17 15a29 29 0 0 0-12 4c-3 2-7 5-8 8 10-1 17 8 24 14 7 5 15 13 21 21 4 7 8 14 7 23 0 5-3 16-11 14a6 6 0 0 1-2-1 46 46 0 0 1-2-10v-1z"/><path class="cls-53" d="M72 189c-1 6-4 11-7 16v-1h-1v2l-4 6-1-2a41 41 0 0 0 3-4l7-13 3-4z"/><path class="cls-53" d="M71 189a1 1 0 0 1 1 0l-3 4a32 32 0 0 1 2-4z"/><path d="M72 71a115 115 0 0 0-8 17c-6-11-10-23-9-36 1-11 8-21 15-30l-1 4a83 83 0 0 0-3 21 40 40 0 0 0 2 16l4 8z" fill="#4bbbeb"/><path class="cls-44" d="M71 19l-1 3c-7 9-14 19-15 30-1 13 3 25 9 36l-1 2c-7-12-11-27-9-40 2-12 9-23 17-31z"/><path class="cls-57" d="M69 512a37 37 0 0 1 0 4 72 72 0 0 1-6-9 54 54 0 0 1 5-10l1 3v1a6 6 0 0 0 0 3v8z"/><path class="cls-42" d="M69 500l-1-3a1 1 0 0 0 0-1c-4-18-5-37-4-55a454 454 0 0 0 5 59z"/><path class="cls-47" d="M66 307h1l-5 59c-2 17-3 34-2 51l-2-1v-11a563 563 0 0 1 8-98z"/><path class="cls-44" d="M64 89a1 1 0 0 1 0 1v-1z"/><path class="cls-42" d="M62 272v1l-4-2h-1c-8-3-15-8-22-13l-17-13c-6-4-22-15-17-24v-1 1c0 1 0 0 0 0-2 6 3 12 7 16a119 119 0 0 0 15 11l16 12a189 189 0 0 0 23 12z"/><path class="cls-49" d="M61 522l1 6a1 1 0 0 1-1 1 1 1 0 0 1-1 0l-1-7a17 17 0 0 1 1-5 1 1 0 0 0 1 0 9 9 0 0 0 0 1v4z"/><path class="cls-52" d="M63 105l-2 8a32 32 0 0 1 2-8z"/><path class="cls-44" d="M61 113a48 48 0 0 0 0 6 112 112 0 0 0-3 18v9a7 7 0 0 0 2 3 4 4 0 0 0 1 1 6 6 0 0 1-2-2l-2-8a94 94 0 0 1 3-20l1-7z"/><path class="cls-53" d="M59 210l1 2a40 40 0 0 0-4 6h-1a1 1 0 0 0 1-1 6 6 0 0 0 0-2 22 22 0 0 1 3-5z"/><path class="cls-39" d="M59 210a22 22 0 0 0-3 5 20 20 0 0 0-3-6 46 46 0 0 0-7-9c-6-6-12-11-19-13l5-5 12 9a143 143 0 0 1 11 11 22 22 0 0 1 4 8z"/><path class="cls-42" d="M59 290a7 7 0 0 1-1 0v-1a24 24 0 0 1-2-10l1-1a3 3 0 0 1 0 1v1a46 46 0 0 0 2 10z"/><path class="cls-42" d="M59 290v1a6 6 0 0 1-1-1 7 7 0 0 0 1 0zM57 271v8a3 3 0 0 0 0-1h-1a56 56 0 0 1 1-7z"/><path class="cls-42" d="M57 278l-1 1c-2 0-3 1-3 3 0-2 1-4 3-4h1zM56 278z"/><path class="cls-53" d="M56 215a6 6 0 0 1 0 2 1 1 0 0 1-1 1 1 1 0 0 1-1 0v-1l-3-7v-1a45 45 0 0 0-7-9c-5-5-11-10-17-12l-1-1h-1 2c7 2 13 7 19 13a46 46 0 0 1 7 9 20 20 0 0 1 3 6z"/><path class="cls-53" d="M54 218a13 13 0 0 1-9-1 1 1 0 0 1 0-2l1-1a1 1 0 0 1 1 0c2 2 4 3 7 3v1z"/><path class="cls-40" d="M52 293h-1a13 13 0 0 1-1-2 12 12 0 0 0 2 2z"/><path class="cls-42" d="M51 210a33 33 0 0 1-4 4h-1l-1 1a23 23 0 0 1-4 2l6-4 4-3z"/><path class="cls-53" d="M29 182a4 4 0 0 1 3 0l-5 5h-1-1a1 1 0 0 1 1 0 47 47 0 0 1 3-5z"/><path class="cls-42" d="M26 187l1 1-4 4a4 4 0 0 0-1 0l4-5z"/><path class="cls-42" d="M22 192a4 4 0 0 1 1 0l-9 11c-5 5-8 12-13 18s0-1 0-1v0l11-17 10-11z"/></g><path class="cls-64" d="M144 98l2-2a4 4 0 0 0-3 2h1zM149 96a1 1 0 0 0 0-1h-1a1 1 0 0 0 1 1zM131 106c1 3 5 4 8 5 5 0 9 1 13-3h-1c-5 1-16 3-19-2h-1z"/><path class="cls-64" d="M165 47c4 11 4 24 5 35 1 7 2 14 1 21-2 8-7 14-12 19-9 11-26 13-39 9a53 53 0 0 1-19-11l-11-14h-1c14 24 44 40 68 21 12-9 18-22 16-37l-3-28a36 36 0 0 0-4-16c0-1-2 0-1 1z"/><path class="cls-64" d="M132 112c0 4 5 7 9 8a6 6 0 0 0 8-6c-4 10-14 3-17-3v1zM122 104l-4-1c-2-1-2 2 0 2a19 19 0 0 0 3 0 1 1 0 0 0 1-1zM114 103h-1a1 1 0 0 0-1 0h-1a1 1 0 0 0 0 1 1 1 0 0 0 2 1 3 3 0 0 0 1-1v-1zM159 95a10 10 0 0 0 3-2c1-2 0-3-1-2a7 7 0 0 0-2 3zM164 90l2-2a1 1 0 0 0-1-1 3 3 0 0 0-1 2 1 1 0 0 0 0 1zM116 99c-2-5-4-8-3-13a5 5 0 0 1 8-3l4 6h1c-1-3-2-7-5-9-2-2-6-1-8 1-5 4-2 14 2 18h1zM152 86a13 13 0 0 1-2-13c2-3 6-4 8-2l4 6c0-3-1-7-4-9s-6 0-8 2c-5 3-4 14 1 16h1zM129 66l3-2c-1-1-2 0-3 1a1 1 0 0 0 0 1zM136 64a6 6 0 0 0 1-1 2 2 0 0 0-1 0v1zM96 115c-2 8 3 17-1 25-1 1 2 3 3 1 4-7 0-18-2-26z"/><path class="cls-64" d="M95 141a226 226 0 0 1 26 20l10 11c5 5 7 11 10 17-3-12-10-20-19-29-4-5-10-8-15-12-3-4-7-7-12-8v1zM144 156a87 87 0 0 0-1-11v-11a1 1 0 0 0-1 0c-3 6 1 16 2 22zM27 189c-8 2-11 12-16 17-4 6-14 16-9 24 5 9 15 16 24 21l16 11c5 4 12 7 19 10a1 1 0 0 0 0-1l-23-14-24-18c-5-4-12-9-10-16 0-4 5-9 8-13 4-6 8-17 15-20a1 1 0 0 0 0-1z"/><path class="cls-64" d="M27 216c7-1 16 6 22 10 7 5 11 13 15 20s10 13 12 21c3 8 5 20-2 26l1 1c6-2 6-11 6-16-1-11-5-21-11-29-6-9-11-18-19-25-6-4-17-11-24-8z"/><path class="cls-64" d="M52 282c-7 0-2 9 1 11 7 5 16 3 23 0v-1l-12 2a25 25 0 0 1-7-1c-1 0-12-8-5-10v-1z"/><path class="cls-64" d="M57 273a34 34 0 0 0 1 17c1 1 3 0 2-1l-2-16h-1zM61 292a1 1 0 0 0 2 1v-1a2 2 0 0 0-1-1 1 1 0 0 0-1 1zM67 292h1v-1a2 2 0 0 0-1 0v1zM71 291a3 3 0 0 0 2 0v-1a3 3 0 0 0-2 1zM186 250c1-4 4-7 6-11l6-13c4-9 13-16 20-23a1 1 0 0 0-1-2c-9 5-15 14-20 22-3 4-5 10-7 15-2 4-4 8-4 12z"/><path class="cls-64" d="M203 198l5 3c1 1 4 3 6 2v-1l-6-2a19 19 0 0 1-4-3 1 1 0 0 0-1 0z"/><path class="cls-64" d="M219 169l16 17c4 5 8 8 9 15 0 6-4 13-7 18-11 17-27 29-41 43l1 1c18-17 37-31 47-53 3-7 3-15-2-21-7-8-15-15-23-20z"/><path class="cls-64" d="M194 261a29 29 0 0 1 0 16 1 1 0 0 0 1 2 19 19 0 0 0 8-1 1 1 0 0 0 0-1 33 33 0 0 1 0-4q-1-4 2-2a25 25 0 0 1 0 7 9 9 0 0 1-4 6c-3 2-6 0-9 1a1 1 0 0 0 0 1c4 0 8 1 12-2 3-2 3-7 3-11 0-1 0-7-3-6s-3 8-3 10l1-1h-7l1 2c2-6 1-12-2-18v1zM110 445c-3 8-4 16-5 25s-5 20-4 30h2a579 579 0 0 0 7-55zM64 441a254 254 0 0 0 3 44c2 13 3 23 15 30a1 1 0 0 0 0-1c-4-5-8-9-10-15-2-5-2-12-3-17l-4-41h-1zM168 443c1 16 9 31 18 44 7 12 18 10 30 8v-1h-18c-7-1-11-10-14-15a131 131 0 0 1-11-22l-4-15-1 1zM211 431c-1 7 2 15 4 22l5 24a1 1 0 0 0 2 0c-1-16-8-31-11-46z"/><path class="cls-65" d="M92 57c9 3 19 3 28 2 11-2 20-6 31-9a1 1 0 0 0 0-1c-9 0-17 4-26 6-11 2-22 1-33 1v1zM110 52c9 1 17-1 26-4l16-3c6-1 17-3 23 0a1 1 0 0 0 1-2c-3-5-20-2-24-1-14 3-28 11-41 9h-1z"/><path class="cls-65" d="M116 45c9-4 20-6 30-6l16-1 9 2v-2c-8-4-17-2-25-1a103 103 0 0 0-30 7v1z"/><path class="cls-65" d="M124 36c11-6 28-5 40-1a1 1 0 0 0 0-1c-4-5-12-3-18-3-8 0-16 1-22 5zM101 25a24 24 0 0 1 7-2l6-1v-1c-4-1-10 1-13 4zM100 19a39 39 0 0 1 13-3l12 1v-2c-8-2-18-1-25 3v1zM169 48c-1 3 0 7 1 10 2 6 1 12 2 19a1 1 0 0 0 1 0c4-9-2-20-3-29h-1zM91 60c-3 14-4 32 7 44a1 1 0 0 0 1-2c-8-13-7-27-7-42h-1z"/><path class="cls-65" d="M84 69c0 12 1 26 9 36l1-1c-6-11-9-22-10-35zM81 76a42 42 0 0 0 3 20h1a48 48 0 0 1-3-20h-1zM76 82c-1 5-3 12 1 16h1c-2-5-3-10-2-16zM71 89a33 33 0 0 0-1 16c1 4 1 11 4 14l1-1c-1-9-5-18-3-28l-1-1zM75 105a34 34 0 0 0 2 15c1 4 5 10 9 10a1 1 0 0 0 0-1l-3-3a22 22 0 0 1-4-6 36 36 0 0 1-4-15zM84 118l3 6c1 1 4 4 7 4a1 1 0 0 0 0-1 6 6 0 0 0-2-2 17 17 0 0 1-3-2 20 20 0 0 1-5-6l-1 1zM91 118a4 4 0 0 0 1 3l3 3v-1l-1-2a6 6 0 0 1-2-3h-1z"/><path class="cls-66" d="M85 60q-4-5-1-9a36 36 0 0 1 4-4l8-7a128 128 0 0 1 20-15c13-8 33-12 42 3 1 2 3 1 3-1-9-23-39-9-53 0-9 6-19 14-26 23-2 3-3 14 3 10z"/><path class="cls-66" d="M90 54c8-10 20-18 32-24 11-5 25-9 36-1l1-1c-1-5-7-6-11-6-7-1-14 1-21 3a81 81 0 0 0-37 29z"/><path class="cls-66" d="M63 87c-3-10-5-19-5-29-1-12 6-25 14-33 7-9 18-15 28-20 11-4 30-3 39 5h1c-20-19-49-6-66 9a55 55 0 0 0-18 34c-2 10 1 25 7 34z"/><path class="cls-66" d="M78 67a134 134 0 0 0-18 37c-4 12-7 26-4 38l1-1c1-12 2-24 5-36 4-13 10-26 16-38h-1zM95 36c0-11 1-22 12-27 10-4 18 1 26 6 1 1 2-1 1-2-9-6-19-11-30-6-10 6-14 19-10 29h1zM84 53l2-2a5 5 0 0 1 1 1 2 2 0 0 1 1 2l-2 1v1a3 3 0 0 0 4-2c1-1 0-2-1-3a3 3 0 0 0-3-1c-2 0-2 2-2 3z"/><path class="cls-67" d="M31 184c7-9 17-17 26-23 10-7 21-9 32-15l-1-1c-21 3-47 19-58 39h1zM71 190c-3 1-5 4-7 6l-6 10a2 2 0 0 0 0 2l1 1a1 1 0 0 0 1 0c3 0 4-5 5-7l6-12z"/><path class="cls-67" d="M69 192c-8 14 0 29 3 43 2 9 3 19 7 29 3 9 10 16 16 25l1-1-7-13c-7-10-9-19-10-31-2-16-15-35-9-51l-1-1zM91 293l-4-9-4-8a1 1 0 0 0-1 0c0 3 2 6 3 8l5 9h1zM85 298a22 22 0 0 0 0-8c-1-2-1-5-3-6a1 1 0 0 0-1 0l1 6a80 80 0 0 1 2 8h1zM67 296c-2-1-4 4-4 6a1 1 0 0 0 1 0c2 0 2-2 3-3v-3zM174 239l-5 41a1 1 0 0 0 2 0c3-5 3-11 3-16l1-25a1 1 0 0 0-1 0zM167 253c-1 6-5 11-6 17a1 1 0 0 0 2 0c3-4 5-11 6-17 0-1-2-2-2 0zM177 177c8 38 3 74 2 113h2c4-38 7-77-4-113z"/><path class="cls-67" d="M183 266c-1 5 2 11 3 16 2 7 4 14 8 19h1c-1-7-4-13-6-19l-5-16h-1zM149 138c14-3 31 0 41 10l15 11c3 3 4 4 8 4 0 1 0 0 0 0-6-3-10-9-15-13-6-4-10-10-17-13-11-3-22-5-32 0v2zM175 169c1 5 4 9 7 13l9 14a1 1 0 0 0 1-1c-1-4-3-9-6-12-4-5-8-8-10-15l-1 1z"/><path class="cls-68" d="M68 308c-7 2-5 25-5 31l-3 49c-1 14-4 29 0 44a1 1 0 0 0 2-1c-1-25 2-51 4-76l2-24c0-7-1-16 1-22l-1-1zM135 325l-9 51c-2 20-4 42-2 62a1 1 0 0 0 2 0l4-56c1-19 8-39 6-57h-1z"/><path class="cls-68" d="M131 371c1 10 7 21 12 30 5 11 8 24 15 34a511 511 0 0 0-9-28c-5-12-12-24-16-36h-2zM185 302c-2 19 8 39 14 57 7 21 10 41 19 61 1 1 2 0 2-1-1-7-5-15-7-22-2-11-4-22-8-33-6-21-15-41-19-62h-1zM72 330l7-4 9-3a2 2 0 0 0 0-4c-4 0-7 1-10 3s-7 3-8 7a1 1 0 0 0 2 1z"/><path class="cls-68" d="M88 318a8 8 0 0 0 0 6c1 2 4 1 3-1a19 19 0 0 0-2-5 1 1 0 0 0-1 0zM69 326a6 6 0 0 0 0 5c1 2 4 0 3-1v1a1 1 0 0 0 0-1 6 6 0 0 1-1-3 1 1 0 0 0-2-1z"/><path class="cls-69" d="M80 331c-1 2-3 4-2 6a1 1 0 0 0 1 0c2-1 1-4 2-5l-1-1zM77 343l-1 5h1l1-5h-1zM75 354c0 2-2 5 0 6 2-1 2-4 1-6a1 1 0 0 0-1 0zM74 367v5c2-1 1-3 1-5a1 1 0 0 0-1 0zM74 379a18 18 0 0 0-1 7 1 1 0 0 0 0 1 1 1 0 0 0 1 0 1 1 0 0 0 0-1v-7zM72 394l1 4c2-1 1-3 0-5a1 1 0 0 0-1 1zM73 407l-1 5a1 1 0 0 0 2 0v-5a1 1 0 0 0-1 0zM72 416a19 19 0 0 0-1 4 1 1 0 1 0 2 0 19 19 0 0 0 0-4h-1zM63 424a4 4 0 0 0 4 2v-1a6 6 0 0 0-4-1zM71 427c1 1 3 2 5 1-1-2-3-1-4-2l-1 1zM81 429h6-6v1zM91 430l4 1v-1l-4-1a1 1 0 0 0 0 1zM100 432l5 1v-1l-5-1v1zM112 431h3l1-1-5-1c-1 1 0 2 1 2zM139 339a20 20 0 0 0 3 6c1-2-1-4-2-6a1 1 0 0 0-1 0zM144 353l2 7 1-1-2-6h-1zM149 368l2 5h1c1-2-1-4-2-5a1 1 0 0 0-1 0zM153 380l2 5h1l-2-5a1 1 0 0 0-1 0zM158 392l3 5h1l-3-6a1 1 0 0 0-1 1zM163 404l1 4h1c1-2 0-4-2-5v1zM167 416l2 5 1-1c1-1-1-3-1-4h-2zM160 429h5v-1h-5v1zM171 427h5v-1h-5v1zM182 425l5-2v-1l-5 2v1zM192 420a8 8 0 0 1 2-1 4 4 0 0 0 2 0v-1c-2-1-3 1-4 2-1 0 0 1 0 0zM199 418l4-2-1-1-3 2v1zM209 414l2-2-1-1-2 2c-1 1 0 1 1 1z"/><path class="cls-70" d="M89 538c2-5 7-6 12-7 8-2 14-1 20 5a1 1 0 0 0 2-1c-5-8-13-8-21-7-5 1-14 3-14 9l1 1z"/><path class="cls-70" d="M102 539c3 1 7 0 11-1a21 21 0 0 0 8-3v-1c-6 2-12 5-19 5z"/><path class="cls-70" d="M61 519c4 10 15 18 25 22 11 6 27 0 38-2 2 0 1-3-1-3-11 3-23 6-34 4-5-1-11-6-15-9a54 54 0 0 1-13-12zM62 517c-1-2 2-7 3-9 2-3 4-6 3-10h-1l-3 7-2 5c-1 2-2 6 0 8v-1z"/><path class="cls-70" d="M67 498l1 13-2 13h1c4-8 2-18 1-26h-1zM84 513c0-5 2-11 7-14 6-5 9 7 11 11a1 1 0 0 0 2 0c1-3-2-8-3-10-2-3-5-5-9-5-7 2-12 12-9 18h1z"/><path class="cls-70" d="M69 506c3 4 9 14 15 12 5-1 16-9 20-4 2 4 4 8 8 12v-1c-3-6-6-14-14-13l-10 3c-8 2-13-5-19-9zM99 535a2 2 0 0 0 1 0 16 16 0 0 0 3 0 1 1 0 0 0 0-2c-1-2-5 1-4 2zM107 534a3 3 0 0 0 3-1l-1-1a11 11 0 0 0-2 1v1zM219 494l5-15a22 22 0 0 1 1-2c2-3 4-1 4 1v6c3-2 3-14-3-11-2 1-4 4-5 7-1 4-5 10-3 14h1z"/><path class="cls-70" d="M187 496c5 4 12 4 18 4 8 1 17-1 25-5 1-1 0-2-1-2-13 3-28 8-41 3h-1z"/><path class="cls-70" d="M228 495c1 3 4 5 7 7a26 26 0 0 0 14 4 1 1 0 0 0 0-1l-11-5-9-6a1 1 0 0 0-1 1zM250 510h3a1 1 0 0 0 0-2l-3 1a1 1 0 0 0 0 1zM258 510a4 4 0 0 0 2-1 1 1 0 0 0-1-1 3 3 0 0 0-1 1 1 1 0 0 0 0 1zM189 496c-3 5-6 13-6 18 0 3 2 4 4 4 18 2 37 5 55 2-13-2-27-1-40-3a130 130 0 0 0-15-2c-3 0 1-16 2-18v-1z"/><path class="cls-70" d="M182 519c12 4 25 4 38 5a153 153 0 0 0 45-3l-2-1a64 64 0 0 1 1 6c0 2 2 2 2 0a44 44 0 0 0 0-6 1 1 0 0 0-2-2c-14 4-29 4-44 3l-19-1-19-2v1z"/><path class="cls-47" d="M66 306a602 602 0 0 0-8 99c0 9-1 19 2 27a1 1 0 0 0 1 0c-3-22-1-44 0-66l6-60h-1z"/><path class="cls-53" d="M55 217c-2 0-6 0-8-3a1 1 0 0 0-2 0 1 1 0 0 0 0 1 1 1 0 0 0 0 2c3 1 7 2 10 1v-1z"/><path class="cls-49" d="M170 45c0 5 3 10 4 15a33 33 0 0 1 0 14l-2 8h1l3-10V62c-1-6-3-12-6-17 0-1 0-1 0 0z"/><path class="cls-42" d="M165 45c7 15 6 32 8 48s-8 29-21 37c-20 12-44 1-57-16 11 19 37 27 56 18 12-6 22-19 23-32 1-9-1-19-2-28a74 74 0 0 0-6-27h-1z"/><path class="cls-42" d="M89 100c0-4-5-4-8-4-4 1-6 6-5 10 0 4 3 9 7 12s9-1 13-3l-1-1-9 3c-5 0-7-4-9-8v-9c3-5 10-4 12 0z"/><path class="cls-42" d="M82 105c4-3 6 0 9 4 1 1 2 5 4 5-3-3-7-15-13-9zM175 72c5 1 6 7 6 10 0 5-2 11-7 12v1c6-1 8-8 7-13 0-3-1-10-6-10z"/><path class="cls-44" d="M85 62q-6-4-2-9l1-3 9-11c6-6 14-10 21-15 8-5 17-9 26-9 8 0 22 9 21 18h1c1-9-10-16-17-18-12-4-26 5-35 10-11 7-22 15-28 27-2 4-3 7-1 11 1 2 4 0 5-1h-1z"/><path class="cls-44" d="M149 16a51 51 0 0 0-70-4 66 66 0 0 0-25 38c-3 14 3 28 9 40 0 1 2 0 1-1-6-11-10-23-9-36 1-15 11-28 22-37C87 7 99 3 112 2c15-2 26 6 37 15v-1z"/><path class="cls-44" d="M80 60c-16 20-27 49-26 76 1 5 2 17 10 14s15-15 19-22c0 0 0-1 0 0l-14 17a25 25 0 0 1-5 4c-5 3-7-6-8-8v-14a125 125 0 0 1 24-67z"/><path class="cls-49" d="M92 55c-1 16-1 36 9 49l1-1C92 90 92 71 92 55z"/><path class="cls-49" d="M88 98a18 18 0 0 1 3 7 1 1 0 0 0 1 1c3 0 7 0 9-2a1 1 0 0 0 0-1c-1 0-8 2-9 1a16 16 0 0 0-4-6zM69 89c-3 9 0 24 4 32a1 1 0 0 0 1 0 10 10 0 0 0 0-4 23 23 0 0 0 3 6 16 16 0 0 0 9 7 1 1 0 0 0 1-1 10 10 0 0 0-1-4l5 4c2 1 3 0 5-1l-1-1c-3 2-7-4-10-4a1 1 0 0 0-1 1q1 7-3 1a16 16 0 0 1-5-10h-2c0 2 0 7-1 3l-2-8a88 88 0 0 1-2-21zM92 57a70 70 0 0 0 30 3c12-2 23-8 35-10a1 1 0 0 0 0-2 52 52 0 0 0-7-1c-4 0-3 1 0 0a179 179 0 0 1 29-1v-1c-11-2-23 0-35 2a1 1 0 0 0 0 1 51 51 0 0 1 10 1l-5 2-16 5c-13 5-27 4-41 1z"/><path class="cls-49" d="M149 25c5 2 9 6 14 9a75 75 0 0 0 6 4c4 2 6 5 9 8l1-1c-4-5-9-8-14-11s-9-8-16-9z"/><path class="cls-44" d="M85 50c-2 2-2 5 0 6a3 3 0 0 0 5 0c1-3 0-6-2-7s-5 3-4 5c1-2 1-4 3-4 3 0 3 4 2 5s-3 2-4 1c-1-2 0-4 1-5l-1-1z"/><path class="cls-42" d="M178 79c-2-1-3 1-4 2s-2 5-1 6a7 7 0 0 0 0-2 8 8 0 0 1 1-3c1-1 2-3 4-3zM145 93c2-1 4 0 5 2a4 4 0 0 1-1 5 8 8 0 0 1-5 1c-2 0-4 0-4-3-1 2 1 3 3 4a8 8 0 0 0 6-2 5 5 0 0 0 1-6c-1-2-3-2-5-1zM130 106c9 8 22 7 27-4l-1-1c-4 12-17 13-25 5h-1z"/><path class="cls-42" d="M129 109l3-6h-1a20 20 0 0 1 0 3l-2 3zM156 99a4 4 0 0 0 2 4 9 9 0 0 1-2-4zM131 107c1 5 5 11 11 12s8-7 11-11h-1c-3 4-3 10-9 10-6 1-10-6-11-11h-1zM138 123c4 1 8 0 11-2-4 2-7 2-11 2zM114 96c-1-4-3-10 3-13 4-1 7 3 8 6a10 10 0 0 1-1 8c-2 4-9 2-10-2v1c0 4 6 5 9 3 4-1 4-7 3-10-1-4-5-8-9-6-6 2-5 10-3 14h1l-1-1z"/><path d="M125 82a9 9 0 0 0-6-1 10 10 0 0 0-5 2c-3 2-3 7-1 10 1-3 0-6 2-8s7-3 9-2h1z"/><path class="cls-42" d="M150 85c-1-4-2-11 3-13 4-2 7 2 8 5a10 10 0 0 1 0 8c-3 4-10 2-11-1 0-1 0-1 0 0 0 4 6 5 10 4 3-2 3-7 2-11s-4-7-9-6c-6 2-5 10-3 14h1-1z"/><path d="M161 71a9 9 0 0 0-5-2 10 10 0 0 0-6 2c-2 2-3 7-1 10h1c0-3-1-5 1-8 2-2 7-3 10-2z"/><path class="cls-49" d="M105 79a14 14 0 0 1 5-9c3-3 6-3 10-5a1 1 0 0 0 0-1c-4-1-8 1-11 4-2 3-4 7-4 11zM162 61a6 6 0 0 0-7-4 27 27 0 0 0-11 4 1 1 0 0 0 0 2l6-2c4-1 7-3 11 0h1z"/><path class="cls-42" d="M95 114c0 9 1 18-2 27l1 1c4-8 2-20 1-28zM26 187c-9 9-19 21-25 33v1l12-18 14-15-1-1z"/><path class="cls-53" d="M94 141c-12 5-25 9-36 15-6 3-11 9-16 14-6 5-12 10-16 17-1 0 0 0 0 0 11-10 20-22 33-30 11-6 24-8 35-15v-1z"/><path class="cls-42" d="M1 220c-4 10 9 19 15 24 14 11 29 23 46 29v-1c-14-6-25-14-37-22-8-6-28-18-24-29v-1z"/><path class="cls-42" d="M57 271c-1 6-2 14 2 20v-1a46 46 0 0 1-2-10v-9zM51 292c4 7 28 6 29-3-3 8-23 9-29 3z"/><path class="cls-42" d="M53 294c-3-3-6-8-3-12 1-1 3 1 3 2a8 8 0 0 1 1 5h1a8 8 0 0 0 0-2 9 9 0 0 0-1-4l-4-2c-2 1-2 5-2 6 1 3 3 6 5 7z"/><path class="cls-42" d="M53 282c0-2 1-4 3-3v-1c-2 0-4 2-3 4 0 1 0 1 0 0zM217 166l13 12 14 13h1a156 156 0 0 0-28-25z"/><path class="cls-53" d="M144 138c14-3 27-5 41 3 11 6 20 18 32 24v-1c-11-10-24-22-38-28-10-5-25-3-35 2-1 0 0 0 0 0zM56 218l8-12c3-5 7-11 8-17a1 1 0 0 0-1 0l-9 18c-3 3-6 6-7 11h1z"/><path class="cls-53" d="M64 204l6 23c2 10 2 21 5 31a1 1 0 0 0 2-1c1-18-7-36-12-53h-1z"/><path class="cls-53" d="M94 287l-9-15-9-15c1 12 13 21 18 30 0 1 0 0 0 0zM87 288a41 41 0 0 0-5-11h-1l5 11h1zM65 296a18 18 0 0 1-6 9v1c30 4 61 9 91 3v-1c-18 1-35 2-53 1-10 0-19-2-28-3l-7-2a20 20 0 0 0 3-8zM93 142c20 12 37 29 47 49h1c-2-12-12-22-21-30l-15-13c-4-3-7-6-12-7v1z"/><path class="cls-53" d="M143 138c1 18 2 35-3 53a1 1 0 0 0 1 0c5-7 4-17 5-25a91 91 0 0 0-2-28h-1z"/><path class="cls-42" d="M143 134a6 6 0 0 0 0 4h1a6 6 0 0 0-1-4zM201 197c3 3 7 7 12 7l-6-3-6-5v1zM243 189c9 13-3 30-11 40-11 13-24 22-35 34v1c15-10 29-25 40-39 7-10 16-25 6-36z"/><path class="cls-42" d="M216 202c-7 2-13 11-17 17-7 11-13 22-15 34a129 129 0 0 1 13-30c5-8 11-16 19-21 1 0 0 0 0 0zM195 261a16 16 0 0 1 2 11l-1 5h1c2-6 2-11-1-16h-1zM190 286c4 3 12 0 15-3 4-3 3-10 2-14h-1c0 4 2 9-1 12-2 4-11 7-15 5z"/><path class="cls-42" d="M195 277a22 22 0 0 0 6 0 18 18 0 0 1 1-7l2-3 3 4c0-2-3-7-5-4a12 12 0 0 0-1 6 17 17 0 0 0 0 3h-6v1z"/><path class="cls-42" d="M198 268a19 19 0 0 1 2-1l2 1c-1-2-3-2-4-1v1z"/><path class="cls-53" d="M216 164c5 11-6 24-14 30l-6 4c-2 2-5-4-6-5l-10-14c-1-1-3 0-2 1 5 7 10 15 16 21a1 1 0 0 0 2 0c10-6 28-23 21-37h-1z"/><path class="cls-44" d="M96 36c-1-9 0-19 8-25 9-6 21-2 27 5l2-2c-7-6-19-9-28-5-9 5-11 17-10 27h1z"/><path class="cls-47" d="M138 325l-9 53-2 31-4 30h1c6-17 5-37 7-56l7-58zM185 301l17 59 17 64h2l-6-24-10-38c-6-21-11-41-19-61h-1z"/><path class="cls-42" d="M112 443a628 628 0 0 0-9 60c3-12 4-25 6-37l4-23h-1zM64 440zM211 428a256 256 0 0 0 11 47h1a645 645 0 0 0-12-47zM168 440c-1 20 11 38 20 54h1c-9-18-20-33-20-54h-1z"/><path class="cls-49" d="M83 516c0-7 0-18 9-20 9-3 10 11 13 16a1 1 0 0 0 1 0c1-8-5-19-14-18-10 2-11 14-9 22 0 1 0 1 0 0z"/><path class="cls-49" d="M104 511a65 65 0 0 0 6 11c2 2 4 6 7 7l1-1-7-8-6-10a1 1 0 0 0-1 1zM124 537v4a9 9 0 0 1 0 2 13 13 0 0 0-1 2c0 2 3 2 3 0a9 9 0 0 0 0-2 21 21 0 0 1-1-2 19 19 0 0 0 0-4h-1z"/><path class="cls-49" d="M93 530c10 0 26-7 30 7a1 1 0 0 0 2-1c-4-15-21-8-32-6zM83 548c14 3 28 3 42-1 2-1 1-4-1-3-13 4-27 6-41 3v1z"/><path class="cls-49" d="M60 527c6 9 13 18 23 21a1 1 0 0 0 1-2l-13-7c-4-3-7-8-10-12h-1z"/><path class="cls-49" d="M60 516a16 16 0 0 0-1 6l1 7a1 1 0 0 0 2-1l-1-6a50 50 0 0 0 0-6 1 1 0 0 0-1 0z"/><path class="cls-49" d="M67 496c-4 5-9 14-8 21h2l2-10a56 56 0 0 1 5-10 1 1 0 0 0-1-1zM69 501c-1 3 2 6 4 8a58 58 0 0 0 9 7c1 1 2-1 1-2-5-3-12-7-14-13 0-1 0-1 0 0z"/><path class="cls-49" d="M82 517a30 30 0 0 0 9-3 19 19 0 0 1 14-1l1-2c-9-4-16 2-24 5v1zM182 517l-1 3a6 6 0 0 0 0 3 1 1 0 0 0 1 0 6 6 0 0 0 1-3l-1-3zM188 494l-4 10-2 13a1 1 0 0 0 1 0l3-12 2-11zM188 495c11 7 28 2 40-1 1-1 1-3-1-3-13 4-26 8-39 3v1zM266 519v5a23 23 0 0 0 0 4h3l-1-5a21 21 0 0 0-1-5l-1 1z"/><path class="cls-49" d="M228 492c4 5 9 10 15 12a36 36 0 0 0 9 2c8 0 11 5 13 13 0 1 3 1 2-1-1-7-2-12-9-14l-12-2c-7-1-13-6-17-10h-1zM181 523c3 4 9 4 13 5l28 2h30c4 0 12 1 16-2a1 1 0 0 0 0-1c-4-1-10 1-15 1a371 371 0 0 1-54-1c-4-1-14-1-17-4h-1zM60 514c2 11 17 21 27 26 11 6 26-4 38-2v-2c-10-1-21 4-31 4-7-1-13-5-18-9-7-5-12-10-16-17z"/><path class="cls-49" d="M218 495l5-17c1-4 5-8 7-2 1 5-3 11-3 16a1 1 0 0 0 2 0c0-5 4-12 2-18-1-2-4-4-6-2-3 2-5 7-6 11a88 88 0 0 0-2 12 1 1 0 0 0 1 0zM182 517c13 3 28 5 41 5a191 191 0 0 0 21 0c7-1 14-3 22-3a1 1 0 0 0 0-2c-7 0-13 2-19 3a178 178 0 0 1-21 1c-15 0-29-3-44-4z"/><path class="cls-49" d="M243 521a40 40 0 0 1 2-9l7-7-1-1c-3 1-5 4-6 7-2 3-3 7-3 10h1zM187 500c3 7 10 11 11 19h2c-1-7-9-14-13-19zM236 508a11 11 0 0 1 3-3l2-3h-1l-2 2a8 8 0 0 0-2 4zM230 504l3-3 2-2v-1c-2 0-4 4-5 6z"/><path class="cls-49" d="M231 502c-2-1-5 0-4 3 0 1 1 2 3 2a5 5 0 0 0 3-4c0-2-3-3-4-2v1h3a4 4 0 0 1-2 3l-2 1c-1-2 1-5 3-4 0 1 0 0 0 0zM235 505a3 3 0 0 0-1 4c0 2 2 2 4 1 3-1 0-6-3-5a1 1 0 0 0 0 1l1 1a2 2 0 0 1 2 1c0 2-2 2-3 1s0-3 1-4h-1zM95 511c0 3 2 6 4 8a47 47 0 0 1 4 9h2a41 41 0 0 0-4-8l-6-9zM88 539a16 16 0 0 1 2-5 8 8 0 0 1 2-3 11 11 0 0 0 2-1c-2-1-4 1-5 3a13 13 0 0 0-2 6h1zM68 524c3-6 3-15 2-21h-1v9a31 31 0 0 1-1 12z"/><path class="cls-49" d="M88 522c5-4 12-9 19-6v-1c-6-3-15 1-19 7zM91 526c6-2 12-6 19-3a1 1 0 0 0 0-1c-5-4-15 0-19 4z"/><path class="cls-49" d="M86 520v4l4 1a3 3 0 0 0 1-4 5 5 0 0 0-4-3c-2 0-2 3-1 4l1-3a4 4 0 0 1 3 2v2a4 4 0 0 1-1 1c-3 0-4-2-3-3 0-1 0-1 0 0z"/><path class="cls-49" d="M89 525c-2 4 5 5 6 1a3 3 0 0 0-4-3c-1 0-3 3-2 4h1l1-3a2 2 0 0 1 2 2c1 3-4 2-3-1h-1z"/><path class="cls-42" d="M109 100a6 6 0 0 1 8 0v-1c-2-2-6-1-8 1zM166 82c-3 0-5 2-5 4 1-2 2-3 5-4zM164 78a10 10 0 0 0-2 3v1l2-4zM111 95a12 12 0 0 1 3 2 6 6 0 0 0-3-2z"/><path class="cls-44" d="M61 150c-8-6-1-26 0-33 3-10 5-21 10-30 11-19 23-36 41-48 13-9 35-20 49-7a1 1 0 0 0 1-1c-10-13-31-5-42 1-21 11-35 29-47 49-7 12-10 25-13 39-2 7-7 24 1 30z"/><path class="cls-42" d="M40 218a29 29 0 0 0 7-4 23 23 0 0 0 5-5l-5 4-7 4v1z"/><path class="cls-53" d="M26 187c6 3 12 7 17 13 6 5 8 10 11 17a1 1 0 0 0 2 0c1-6-6-13-10-18-6-5-13-10-20-12-1 0-1 0 0 0z"/><path class="cls-42" d="M28 215c23 0 33 24 45 41l1-1c-10-17-24-41-46-40z"/><path class="cls-42" d="M73 256c8 11 10 22 7 36 4-13 2-26-6-37l-1 1z"/><path class="cls-53" d="M175 167l7 26c2 11 1 23 2 34 1 20-5 40-3 60h1c2-21 5-42 3-63 0-10 0-20-2-29l-7-28h-1z"/><path class="cls-53" d="M183 260c3 14 6 29 14 41h1a224 224 0 0 1-15-41z"/><path class="cls-53" d="M128 311c14 1 27-3 40-4 10-1 18-6 28-6 1 1 2-2 0-2-8-1-17 3-25 5a149 149 0 0 1-43 6v1z"/><path class="cls-47" d="M58 424l-1 9a1 1 0 0 0-1 1c7 9 21 11 31 11 11 1 28 2 37-5 2-1 1-3-1-2-9 6-22 5-32 5-11 1-26-1-33-10l-1 2a1 1 0 0 0 1-1 59 59 0 0 0 0-10zM131 368c2 12 7 24 12 36 4 13 12 25 15 38a1 1 0 0 0 1 1c22 0 42-8 62-18 1-1 0-3-1-2l-33 14a103 103 0 0 1-18 3h-8c-2 0-4-7-4-9-9-21-21-41-26-64v1z"/></g></g></svg>