<svg id="Слой_1" data-name="Слой 1" xmlns="http://www.w3.org/2000/svg" xmlns:xlink="http://www.w3.org/1999/xlink" viewBox="0 0 306 519"><defs><style>.cls-1{fill:#010101}.cls-3{fill:#f9c0a7}.cls-4{fill:#f5a68a}.cls-7{fill:#b5dddb}.cls-9{fill:#8ac2c2}.cls-11{fill:#a51916}.cls-14{fill:#ce8135}.cls-15{fill:#db9240}.cls-16{fill:#e8a050}.cls-17{fill:#c07232}.cls-18{fill:#aa5726}.cls-19{fill:#b26122}.cls-25{fill:#e27559}.cls-26{fill:#bd1818}.cls-36{fill:#fdfadb}.cls-43{fill:#aa5740}.cls-57{fill:#f29087}.cls-61{fill:#fff}.cls-66{fill:#d76027}</style><linearGradient id="linear-gradient" x1="6" y1="512" x2="7" y2="512" gradientTransform="scale(20.46 -20.46) rotate(55 526 244)" gradientUnits="userSpaceOnUse"><stop offset="0" stop-color="#e52521"/><stop offset="1" stop-color="#ea5051"/></linearGradient><linearGradient id="linear-gradient-2" x1="7" y1="512" x2="8" y2="512" gradientTransform="rotate(-123 -2527 5451) scale(20.41)" xlink:href="#linear-gradient"/><linearGradient id="linear-gradient-3" x1="16" y1="522" x2="17" y2="522" gradientTransform="scale(78.19 -78.19) rotate(86 290 251)" gradientUnits="userSpaceOnUse"><stop offset="0" stop-color="#9cd3d1"/><stop offset="1" stop-color="#b5dddb"/></linearGradient><linearGradient id="linear-gradient-4" x1="-16" y1="498" x2="-15" y2="498" gradientTransform="scale(8.45 -8.45) rotate(55 519 266)" xlink:href="#linear-gradient"/><linearGradient id="linear-gradient-5" x1="-16" y1="498" x2="-15" y2="498" gradientTransform="scale(8.45 -8.45) rotate(55 522 265)" xlink:href="#linear-gradient"/><radialGradient id="radial-gradient" cx="-16" cy="516" r="1" gradientTransform="matrix(4.91 -11.18 -17.54 -6.94 9334 3783)" gradientUnits="userSpaceOnUse"><stop offset="0" stop-color="#fbd2c0"/><stop offset="1" stop-color="#f9c0a7"/></radialGradient><linearGradient id="linear-gradient-6" x1="31" y1="502" x2="32" y2="502" gradientTransform="scale(17 -17) rotate(-29 -993 277)" gradientUnits="userSpaceOnUse"><stop offset="0" stop-color="#e52521"/><stop offset="1" stop-color="#e00814"/></linearGradient><radialGradient id="radial-gradient-2" cx="33" cy="496" r="1" gradientTransform="matrix(14.8 10.46 9.86 -12.57 -5203 6262)" xlink:href="#radial-gradient"/><linearGradient id="linear-gradient-7" x1="33" y1="537" x2="34" y2="537" gradientTransform="scale(-19.38 19.38) rotate(37 780 217)" xlink:href="#linear-gradient-6"/><linearGradient id="linear-gradient-8" x1="16" y1="522" x2="16" y2="522" gradientTransform="scale(69.26 -69.26) rotate(88 283 252)" xlink:href="#linear-gradient"/><linearGradient id="linear-gradient-9" x1="-22" y1="524" x2="-21" y2="524" gradientTransform="matrix(-.02 -8.88 -8.88 .02 4808 73)" xlink:href="#linear-gradient-6"/><linearGradient id="linear-gradient-10" x1="26" y1="521" x2="27" y2="521" gradientTransform="scale(68.33 -68.33) rotate(-78 -308 273)" xlink:href="#linear-gradient-6"/><linearGradient id="linear-gradient-11" x1="26" y1="521" x2="27" y2="521" gradientTransform="scale(79.16 -79.16) rotate(-78 -307 272)" xlink:href="#linear-gradient-6"/><linearGradient id="linear-gradient-12" x1="14" y1="521" x2="15" y2="521" gradientTransform="scale(53.2 -53.2) rotate(79 330 249)" xlink:href="#linear-gradient-6"/><linearGradient id="linear-gradient-13" x1="9" y1="520" x2="9" y2="520" gradientTransform="scale(29.35 -29.35) rotate(79 334 254)" xlink:href="#linear-gradient-6"/><linearGradient id="linear-gradient-14" x1="13" y1="524" x2="14" y2="524" gradientTransform="scale(-46.84 46.84) rotate(-78 -320 273)" xlink:href="#linear-gradient"/><linearGradient id="linear-gradient-15" x1="9" y1="521" x2="10" y2="521" gradientTransform="scale(32.5 -32.5) rotate(85 290 254)" xlink:href="#linear-gradient-6"/><linearGradient id="linear-gradient-16" x1="50" y1="550" x2="51" y2="550" gradientTransform="matrix(5.56 7.43 -6.6 6.1 3584 -3526)" gradientUnits="userSpaceOnUse"><stop offset="0" stop-color="#e48770"/><stop offset="1" stop-color="#f9c0a7"/></linearGradient><linearGradient id="linear-gradient-17" x1="-1" y1="633" x2="-1" y2="633" gradientTransform="scale(-3.4 3.4) rotate(-15 -2173 644)" gradientUnits="userSpaceOnUse"><stop offset="0" stop-color="#963b15"/><stop offset="1" stop-color="#6e240d"/></linearGradient><linearGradient id="linear-gradient-18" x1="-1" y1="633" x2="0" y2="633" gradientTransform="scale(-3.4 3.4) rotate(-15 -2174 645)" gradientUnits="userSpaceOnUse"><stop offset="0" stop-color="#69270c"/><stop offset="1" stop-color="#531e0d"/></linearGradient><linearGradient id="linear-gradient-19" x1="-1" y1="633" x2="0" y2="633" gradientTransform="scale(-3.4 3.4) rotate(-15 -2174 645)" gradientUnits="userSpaceOnUse"><stop offset="0" stop-color="#62280d"/><stop offset="1" stop-color="#39180f"/></linearGradient><linearGradient id="linear-gradient-20" x1="52" y1="547" x2="53" y2="547" gradientTransform="scale(-9.65 9.65) rotate(50 586 219)" xlink:href="#linear-gradient-16"/><radialGradient id="radial-gradient-3" cx="17" cy="492" r="1" gradientTransform="matrix(37.52 0 0 -14.65 -471 7445)" xlink:href="#radial-gradient"/><radialGradient id="radial-gradient-4" cx="19" cy="502" r="1" gradientTransform="scale(23.2 -23.2) rotate(-4 -7998 468)" gradientUnits="userSpaceOnUse"><stop offset="0" stop-color="#f08583"/><stop offset="1" stop-color="#f9c0a7"/></radialGradient><radialGradient id="radial-gradient-5" cx="19" cy="502" r="1" gradientTransform="scale(23.2 -23.2) rotate(-4 -7989 383)" xlink:href="#radial-gradient-4"/><linearGradient id="linear-gradient-21" x1="46" y1="518" x2="47" y2="518" gradientTransform="scale(15.3 -15.3) rotate(-82 -274 274)" xlink:href="#linear-gradient-16"/><linearGradient id="linear-gradient-22" x1="84" y1="513" x2="85" y2="513" gradientTransform="matrix(.62 6.05 6.05 -.62 -2985 1)" gradientUnits="userSpaceOnUse"><stop offset="0" stop-color="#d37760"/><stop offset="1" stop-color="#f1b295"/></linearGradient><linearGradient id="linear-gradient-23" x1="28" y1="496" x2="29" y2="496" gradientTransform="scale(14.4 -14.4) rotate(-17 -1683 292)" gradientUnits="userSpaceOnUse"><stop offset="0" stop-color="#f9c0a7"/><stop offset="1" stop-color="#f2907b"/></linearGradient><linearGradient id="linear-gradient-24" x1="24" y1="499" x2="25" y2="499" gradientTransform="scale(16.3 -16.3) rotate(-9 -3147 324)" gradientUnits="userSpaceOnUse"><stop offset="0" stop-color="#eca687"/><stop offset="1" stop-color="#ec785c"/></linearGradient><linearGradient id="linear-gradient-25" x1="24" y1="500" x2="25" y2="500" gradientTransform="scale(17.08 -17.08) rotate(-9 -3144 327)" xlink:href="#linear-gradient-24"/><linearGradient id="linear-gradient-26" x1="42" y1="486" x2="43" y2="486" gradientTransform="scale(9.4 -9.4) rotate(-32 -849 271)" gradientUnits="userSpaceOnUse"><stop offset="0" stop-color="#f9c0a7"/><stop offset="1" stop-color="#ed7458"/></linearGradient><linearGradient id="linear-gradient-27" x1="2" y1="524" x2="3" y2="524" gradientTransform="scale(-20.27 20.27) rotate(-84 -287 272)" xlink:href="#linear-gradient-18"/><linearGradient id="linear-gradient-28" x1="2" y1="524" x2="3" y2="524" gradientTransform="scale(-20.27 20.27) rotate(-84 -287 272)" xlink:href="#linear-gradient-17"/><linearGradient id="linear-gradient-29" x1="62" y1="508" x2="62" y2="508" gradientTransform="scale(8.97 -8.97) rotate(-72 -328 275)" gradientUnits="userSpaceOnUse"><stop offset="0" stop-color="#963b15"/><stop offset="1" stop-color="#d76027"/></linearGradient><linearGradient id="linear-gradient-30" x1="-25" y1="526" x2="-24" y2="526" gradientTransform="matrix(8.33 -1 -1 -8.33 848 4557)" gradientUnits="userSpaceOnUse"><stop offset="0" stop-color="#50220f"/><stop offset="1" stop-color="#28120c"/></linearGradient><linearGradient id="linear-gradient-31" x1="1" y1="522" x2="2" y2="522" gradientTransform="matrix(.53 -19.4 -19.39 -.53 10334 502)" xlink:href="#linear-gradient-18"/><linearGradient id="linear-gradient-32" x1="1" y1="522" x2="2" y2="522" gradientTransform="scale(19.4 -19.4) rotate(88 280 261)" xlink:href="#linear-gradient-17"/><linearGradient id="linear-gradient-33" x1="65" y1="512" x2="66" y2="512" gradientTransform="scale(8.64 -8.64) rotate(-79 -279 269)" xlink:href="#linear-gradient-29"/><linearGradient id="linear-gradient-34" x1="-27" y1="521" x2="-26" y2="521" gradientTransform="scale(8.03 -8.03) rotate(86 293 276)" xlink:href="#linear-gradient-30"/><linearGradient id="linear-gradient-35" x1="25" y1="522" x2="26" y2="522" gradientTransform="scale(104.66 -104.66) rotate(-85 -271 273)" xlink:href="#linear-gradient-17"/><linearGradient id="linear-gradient-36" x1="17" y1="522" x2="17" y2="522" gradientTransform="scale(86.64 -86.64) rotate(85 293 252)" gradientUnits="userSpaceOnUse"><stop offset="0" stop-color="#963b15"/><stop offset="1" stop-color="#b75426"/></linearGradient><linearGradient id="linear-gradient-37" x1="15" y1="522" x2="16" y2="522" gradientTransform="scale(61.2 -61.2) rotate(85 293 254)" xlink:href="#linear-gradient-36"/><linearGradient id="linear-gradient-38" x1="26" y1="521" x2="27" y2="521" gradientTransform="scale(74.96 -74.96) rotate(-85 -271 273)" xlink:href="#linear-gradient-18"/><linearGradient id="linear-gradient-39" x1="9" y1="522" x2="9" y2="522" gradientTransform="scale(31.5 -31.5) rotate(85 292 257)" xlink:href="#linear-gradient-36"/><linearGradient id="linear-gradient-40" x1="2" y1="521" x2="3" y2="521" gradientTransform="scale(20.99 -20.99) rotate(85 292 261)" gradientUnits="userSpaceOnUse"><stop offset="0" stop-color="#9f4316"/><stop offset="1" stop-color="#cd6630"/></linearGradient><linearGradient id="linear-gradient-41" x1="25" y1="522" x2="26" y2="522" gradientTransform="scale(105.4 -105.4) rotate(-85 -271 273)" xlink:href="#linear-gradient-19"/></defs><path class="cls-1" d="M282 389c0-1-21-14-28-49-3-17-8-31-14-42a91 91 0 0 0-6-8l-1-3h-1l-1-2-1-1-2-2-2-2a79 79 0 0 0-7-7h-1l-2-2h-1l-1-2h-1l-2-1v-1h-1l-2-1-1-1a106 106 0 0 0 31-16 111 111 0 0 0 40-62v-2l1-1v-1-2-2-2l1-1v-2-3-4-3-2l-1-1v-4-2l-1-3c-5-24-21-48-49-70l-46-40-22-20-3-3c-4-5-10-10-18-10-10 0-17 12-17 13-8 19-22 36-66 82l-1 2h-1v1l-1 1-1 1-1 1-1 1-1 1v1l-2 2v1h-1v1l-1 1-1 1-1 1v1l-1 1v1l-3 5h-1v2h-1v2l-1 1-3 7a101 101 0 0 0-6 57v2l1 1a2 2 0 0 0 0 1v2l1 3v1l1 3 1 3v1h1l1 3 1 3v1h1l1 2v1l2 3 1 2 1 1 2 2 2 3 2 2v1l2 2h1l1 2 1 1 2 1 1 1 2 1 1 1 1 1 2 1 1 1 1 1h1l1 1 2 1 1 1h1l1 1 6 3a152 152 0 0 0 37 11c-10 7-28 21-38 43-6 12-12 30-16 45l-9 25c-4 6-14 9-14 9a3 3 0 0 0-2 4c6 10 14 16 24 18a38 38 0 0 0 6 1l7-1h4a7 7 0 0 1 1 0h1v1h2v1h1v1h1a33 33 0 0 1 4 5c-1 1-3 5-6 6a3 3 0 0 0-1 3s0 6 7 8c1 2 6 7 21 11a265 265 0 0 0 1 40 3 3 0 0 0 1 2c13 9 24 11 24 11h1a107 107 0 0 0 12 1c8 0 14-2 18-5a9 9 0 0 0 3-8c0-6-5-10-9-13h-1a88 88 0 0 1-3-12 30 30 0 0 0 3 2 71 71 0 0 0 25 6v2h-2c-4 3-9 7-9 12a9 9 0 0 0 3 9c4 3 11 5 20 5h10c1-1 12-2 25-10a3 3 0 0 0 2-2 264 264 0 0 0 2-40c8-1 19-4 27-12a3 3 0 0 0 0-3c-2-3-7-12-8-17a29 29 0 0 1 3-5v-1a9 9 0 0 1 1-1h1v-1h3a53 53 0 0 0 9-2l1-1h2l1-1a21 21 0 0 0 11-13 3 3 0 0 0-1-3z"/><path d="M145 501a106 106 0 0 1-12-1c-1 0-11-1-24-10a1 1 0 0 1-1-1 264 264 0 0 1 0-40 1 1 0 0 0-1-2c-15-3-20-8-21-10a1 1 0 0 0-1 0c-6-2-6-7-6-7a1 1 0 0 1 1-1l6-7a1 1 0 0 0 0-2 34 34 0 0 0-4-5l-1-1h-1v-1h-1l-1-1h-1a7 7 0 0 0-1 0H64a36 36 0 0 1-6 0c-9-2-17-8-22-18a1 1 0 0 1 1-1s10-3 14-10c2-3 6-14 9-26l16-44c11-22 29-36 38-43a1 1 0 0 0 0-2 151 151 0 0 1-37-11l-1-1-5-2-1-1-1-1h-1l-3-2h-1l-1-1-1-1-2-1-1-1-1-1-1-1h-1v-1l-2-2h-1l-2-2-2-2-1-1-1-2h-1l-2-2v-1l-2-2v-1l-2-2-1-3-1-1-1-2-2-3v-1l-1-2v-1l-1-3-1-1v-2l-1-1v-4l-1-1v-1-1l-1-1v-1a100 100 0 0 1 6-56l3-7 1-2 1-1v-1l1-1v-1l3-4v-1l1-1 1-1v-1l1-1 1-1 1-1v-1l2-2v-1l1-1 1-1 1-1 1-1 1-1v-1h1l1-2c44-46 58-64 66-82 0-1 7-13 16-13 8 0 13 5 17 10l3 3 23 20 46 40c27 22 43 45 48 70v2a65 65 0 0 1 1 6v21l-1 1v4a109 109 0 0 1-39 61 105 105 0 0 1-31 16 1 1 0 0 0-1 2h1v1h1l1 1 1 1 2 1 1 1 2 1h1l2 2a92 92 0 0 1 7 7l2 2h1l1 2 1 1 1 2h1l2 2a89 89 0 0 1 5 9c6 11 11 24 14 41 7 36 28 50 29 50a1 1 0 0 1 0 1 20 20 0 0 1-10 13h-2l-1 1h-1a52 52 0 0 1-9 2h-2l-1 1h-1v1a10 10 0 0 0-1 1 14 14 0 0 0-1 1 30 30 0 0 0-3 5 1 1 0 0 0 0 1c1 6 8 17 8 17a1 1 0 0 1 0 2c-8 7-19 10-27 11a1 1 0 0 0-1 2 262 262 0 0 1-2 40c-13 9-24 10-25 10h-10c-9 0-15-1-18-5a8 8 0 0 1-3-7c0-5 5-9 8-11h2a1 1 0 0 0 0-1l1-2a1 1 0 0 0-1-2h-3c-6-1-14-2-22-6a28 28 0 0 1-3-2 1 1 0 0 0-1 0 1 1 0 0 0-1 2 90 90 0 0 0 3 12 1 1 0 0 0 1 0l1 1c4 3 8 7 8 11a8 8 0 0 1-3 7c-4 3-9 5-16 5z" fill="#78170e"/><path class="cls-3" d="M109 489s-2-25 1-49l37 5s4 32 9 38z"/><path class="cls-4" d="M110 440c-3 24-1 49-1 49l7-1c-3-11-3-24-2-31a71 71 0 0 0 13 1 178 178 0 0 1 22 2l-2-15z"/><path d="M109 489a34 34 0 0 1 27-14 35 35 0 0 1 20 5c6 3 11 10 5 16-7 5-20 4-28 3 0 0-11-1-24-10z" fill="url(#linear-gradient)"/><path class="cls-3" d="M122 482s16-12 34 1c0 0-12-3-34-1zM227 489s3-25 1-49l-37 4s-5 31-11 37z"/><path class="cls-4" d="M228 440c2 24-1 49-1 49l-7-2c4-11 4-23 4-30a71 71 0 0 1-14 0 179 179 0 0 0-22 1l3-14z"/><path d="M227 489a34 34 0 0 0-26-16 35 35 0 0 0-20 5c-6 3-12 10-6 15 7 7 20 5 28 5 0 0 11-1 24-9z" fill="url(#linear-gradient-2)"/><path class="cls-3" d="M214 482s-15-13-34-1c0 0 13-3 34 1z"/><path class="cls-7" d="M88 421s-3 6-8 9c0 0 1 4 6 6 0 0 3 6 22 10s22 1 31 2 48 21 81-1c0 0 24 1 37-12 0 0-8-12-9-18l-2-22-6-47-30-55-25-24s-19-5-21-4l-23 15-42 66-6 39z"/><path d="M88 421s-3 6-8 9c0 0 1 4 6 6 0 0 3 6 22 10s22 1 31 2 48 21 81-1c0 0 24 1 37-12 0 0-8-12-9-18l-2-22-3-24-146-9-4 23z" fill="url(#linear-gradient-3)"/><path class="cls-7" d="M114 366s-4 41-21 70c0 0 13 10 30 7 0 0 11-51 9-71zm29 13l-5-3-2 10c-5 34-2 57-2 57 5 0 12 3 12 3-9-23-3-67-3-67zm87-17l-13 11s12 35 6 68c0 0 13 4 27-8 0 0-17-30-20-71z"/><path class="cls-9" d="M220 431a3 3 0 0 0 1-2 3 3 0 0 0-1-1 8 8 0 0 0 0-1 7 7 0 0 0 0-1v-1c0-9-1-19-7-27a24 24 0 0 0-4-5l3-2a13 13 0 0 0 4-5 47 47 0 0 0 3-7c2-2 12-12 15-24 3-14-18-35-18-35a104 104 0 0 1-16 42s-2 1-2 3a5 5 0 0 1 1 0 3 3 0 0 1-2 2 13 13 0 0 0-3 1 21 21 0 0 0-5 3 34 34 0 0 0-6 6 46 46 0 0 0-5-4 32 32 0 0 0-10-6h1a87 87 0 0 1-10-6c-4-3-24-20-26-38l-15 10-10 17s7 13 18 22c12 10 23 12 23 12v-1c1 5 4 9 8 10a34 34 0 0 0-11 25v1h-1v1a9 9 0 0 0 0 1c-1 3 1 5 3 7a140 140 0 0 0 2 24c14 4 39 10 62 0a90 90 0 0 0 4-17 9 9 0 0 0 4-4zm-40-35v0zm31 23c-8-4-18-6-27-7a89 89 0 0 0-31 1h1v-2-2l1-2 1-1v-1l1-1 1-2 1-2a24 24 0 0 1 3-3l1-1a1 1 0 0 1 0 1 25 25 0 0 1-2 4v1a10 10 0 0 0 9 0c3 0 6 0 8-2h1a13 13 0 0 0 4-3 17 17 0 0 0 3-2h1v1a4 4 0 0 0 2 1 5 5 0 0 0 4 1h1c1 2 4 2 5 1h1a8 8 0 0 0 6 2h1c5 5 6 12 6 19l-2-1z"/><path class="cls-9" d="M240 348l-30-55-25-24s-19-5-21-4l-23 15-42 66-6 39-5 36 1 1a163 163 0 0 0 17-47c6-26 33-47 43-57s20-18 23-35l1-6s15 22 28 34 29 29 34 66c3 18 8 30 13 39l-2-21z"/><path d="M198 287c-6-9-20-10-25-19-1-2-3-1-3 0-5 10-19 11-23 20-4 7 2 13 10 14 10 1 14-7 15-16 2 9 8 17 17 15 8-1 13-7 9-14zm-41 13c-5 0-8-3-8-7s3-7 6-10c5-3 10-5 14-9 2 8 1 26-12 26zm14-28v-1h1a1 1 0 0 0-1 1zm18 27c-13 1-16-17-15-26 4 4 9 6 14 9 4 2 8 5 8 9s-3 7-7 8zm-15 17a8 8 0 0 0 5-1 7 7 0 0 0 4-6 7 7 0 0 0-7-8 8 8 0 0 0-1 0 8 8 0 0 0-8 7 7 7 0 0 0 7 8zm2 5a7 7 0 0 0-1 0 8 8 0 0 0-8 7 7 7 0 0 0 7 7 8 8 0 0 0 5-1 7 7 0 0 0 4-6 7 7 0 0 0-7-7z" fill="#77aeb0"/><path class="cls-11" d="M182 308a8 8 0 0 1-8 6 7 7 0 0 1-7-7 8 8 0 0 1 8-7 7 7 0 0 1 7 8z"/><path d="M183 307a7 7 0 0 1-8 7 7 7 0 0 1-7-8 7 7 0 0 1 8-6 7 7 0 0 1 7 7z" fill="url(#linear-gradient-4)"/><path class="cls-11" d="M178 303a2 2 0 0 1-2 2 2 2 0 0 1-2-2 2 2 0 0 1 2-1 2 2 0 0 1 2 1zM177 310a2 2 0 0 1-2 2 2 2 0 0 1-2-2 2 2 0 0 1 2-2 2 2 0 0 1 2 2zM182 327a8 8 0 0 1-8 7 7 7 0 0 1-7-8 8 8 0 0 1 8-7 7 7 0 0 1 7 8z"/><path d="M183 327a7 7 0 0 1-8 6 7 7 0 0 1-7-7 7 7 0 0 1 8-7 7 7 0 0 1 7 8z" fill="url(#linear-gradient-5)"/><path class="cls-11" d="M178 323a2 2 0 0 1-2 1 2 2 0 0 1-2-1 2 2 0 0 1 2-2 2 2 0 0 1 2 2zM177 329a2 2 0 0 1-2 2 2 2 0 0 1-1-2 2 2 0 0 1 2-1 2 2 0 0 1 1 1z"/><path class="cls-14" d="M208 421l-25-3c-4-1-12 1-17 3a8 8 0 0 1 0-1l-16-3a134 134 0 0 0 3 38c0 4 11 9 26 11a70 70 0 0 0 19-1 21 21 0 0 0 6-1c2-1 3-2 3-4 7-10 11-22 12-35l-11-4z"/><path class="cls-15" d="M153 430s30 13 61 6a52 52 0 0 1-9 26s-20 8-47-4c0 0-5-11-5-28z"/><path class="cls-14" d="M201 456l5-4 3 2a28 28 0 0 0-2-2l2-2-2 1a28 28 0 0 0-3-3l5-3a18 18 0 0 0-6 2l-2-1-2-2 6-4a40 40 0 0 0-7 3l-5-1 3 2a50 50 0 0 0-6 4 46 46 0 0 0-6-2l6 3a43 43 0 0 0-7 7l8-6 4 3a31 31 0 0 0-6 6l7-5 3 2-2 2 3-1 5 3-4-4zm-9-6l6-5 3 3-4 3-1 1-4-2zm5 3l5-4 4 3a32 32 0 0 0-6 4l-3-3z"/><path class="cls-16" d="M194 444l-6 2 3 1zm6 4l-2-1-4 2 2 2zm4 4l-2-1-3 2 2 2zm1 6l1-4-4 2zm-6 1h3l-2-1zm-7-2l4 1 2-2-2-1zm-1-6l-4 4 3 1 3-3zm-5-3l-1 4 3-2zm20-4h-5l2 2zm-1 4l2 2 1-3z"/><path class="cls-14" d="M160 458l3-2 2 1-2-2 3-1 4 4a20 20 0 0 0-3-5l2-2 5 5a29 29 0 0 0-4-6l4-2a34 34 0 0 0-4 2 28 28 0 0 0-3-4l2-1a5 5 0 0 0-3 1 20 20 0 0 0-5-3l4 4-2 1-1 1a8 8 0 0 0-3-2l2 2a23 23 0 0 0-2 2h-1l1 1-1 1 2-1 3 3-3 3zm6-6h-1l-2-3 2-2 4 4-3 1zm-3 3a17 17 0 0 0-3-3l2-2 3 3-2 2z"/><path class="cls-16" d="M170 449l2-1-4-1zm-4 3l1-2-2-2-1 1zm-3 2l1-1-2-2-1 1zm-1 1l-3-2 1 4zm1 1l-2 2 2-1zm3-2l-2 1 1 2h3zm2-1l1 3 3-1-3-3zm4-2l1 2v-3zm-10-4l2-1h-4zm-3 1l1 2v-1z"/><path class="cls-17" d="M209 458a24 24 0 0 1-2 3 7 7 0 0 1-3 2 32 32 0 0 1-7 2 69 69 0 0 1-18 0 70 70 0 0 1-16-4c-4-1-7-3-9-6l-1-3a7 7 0 0 0-3 4c-1 4 5 7 8 9 6 3 14 4 21 5a67 67 0 0 0 22-1c4 0 8-2 9-5a2 2 0 0 0 0-2 2 2 0 0 0 0-1 8 8 0 0 0-1-3z"/><path class="cls-18" d="M153 460l4 4 8 2 10 2h11l18-1a20 20 0 0 0 2-2s-9 3-24 2-29-7-29-7z"/><path class="cls-19" d="M205 466c-4 1-12 3-24 2-16-1-25-7-29-10a7 7 0 0 1-2-2c-1 4 5 7 8 9 6 3 14 4 21 5a67 67 0 0 0 22-1c4-1 7-2 9-5a2 2 0 0 0 0-1 9 9 0 0 1-5 3z"/><path class="cls-15" d="M186 466a2 2 0 0 0 0 1h3v-1a16 16 0 0 0-3 0zm4 0v1h3v-1a9 9 0 0 0-3 0zm-8 0a4 4 0 0 0 0 1h3a3 3 0 0 1 0-1 30 30 0 0 0-3 0zm12 0v1h3a5 5 0 0 0-1-1 7 7 0 0 0-2 0zm9-2l-2 1a4 4 0 0 0 0 1l3-1-1-1zm-6 1a2 2 0 0 0 1 1h2v-1h-3zm-20 0a11 11 0 0 1 0 2h3a10 10 0 0 1 0-1l-3-1zm-15-4l-1 1 3 1a6 6 0 0 0 0-1 6 6 0 0 0-2-1zm-4-1a7 7 0 0 0-1 1l3 1a3 3 0 0 0 0-2h-2zm-3-2l-1 1 2 1 1-1a6 6 0 0 0-2-1zm14 6v1l3 1v-2a6 6 0 0 0-3 0zm7 1a6 6 0 0 0-3 0v1l3 1v-1-1zm-11-1l3 1a6 6 0 0 1 0-2 9 9 0 0 0-3 0v1zm39 0l1 1 2-1-1-1-2 1zm3-3l-1 2 1 1 2-1-2-2zm2-1l-1 1h1l1 1a5 5 0 0 0-1-2zm-56-4a3 3 0 0 0-2 1l2 1 1-1c0-1 0-2-1-1zm0-1l-1-2-1 2v1a4 4 0 0 1 2-1z"/><path d="M219 425c0 5-16 8-36 6s-34-8-33-14 17-8 36-6 34 8 33 14z" fill="#984b1c"/><path d="M212 429c-3-7-11-11-20-12h-1a18 18 0 0 0-8-2 17 17 0 0 0-10 2h-2c-5 0-10 1-14 4a1 1 0 0 0 0 1 1 1 0 0 0 0 1l6 4a1 1 0 0 0 1 0l4 1a1 1 0 0 0 0 1 1 1 0 0 0 1 0l17 3a53 53 0 0 0 8-1l16-1a1 1 0 0 0 1 0 1 1 0 0 0 1 0 1 1 0 0 0 0-1z" fill="#7d3111"/><path d="M191 418h-1c-4-2-13-3-17 0-5 0-11 0-15 4l6 4 6 1v1l16 2a47 47 0 0 0 8-1h17c-4-8-12-10-20-11z" fill="#f1f9fb"/><path d="M173 418c-5-1-11 0-15 4 6-5 14-4 21-2a35 35 0 0 0-6-2c5-3 12-2 17 0-5-3-12-3-17 0zm38 11c-4-7-12-11-20-11 4 1 8 1 11 3a18 18 0 0 1 9 8z" fill="#a0b1c1"/><path class="cls-17" d="M222 423c0-4-5-7-9-9-8-3-18-5-27-6s-19-1-28 1c-5 1-10 3-11 8s5 9 9 11l27 6c9 1 19 1 28-1 4-1 9-2 11-7a3 3 0 0 0 1-1 3 3 0 0 0-1-2zm-17 5h-21a92 92 0 0 1-22-5c-2 0-9-3-9-6 0-2 9-3 11-3h22a92 92 0 0 1 21 5c2 0 9 3 9 6 0 2-8 3-11 3z"/><path class="cls-18" d="M174 412l17 1 20 5 4 2 1-1s-9-6-28-8-33 1-33 1l-3 3 8-1zm12 19c-19-1-35-9-35-9l4 4 11 3 12 3h14l22-1a24 24 0 0 0 3-2s-11 3-31 2z"/><path class="cls-19" d="M222 423a8 8 0 0 0-1-3l-2 4a8 8 0 0 1-3-1 2 2 0 0 1 0 2l-3 1a22 22 0 0 1 3 3c-5 2-15 4-31 3-20-1-32-9-36-12l5-1a2 2 0 0 1-1-2l1-1h-1a28 28 0 0 0-3-4 8 8 0 0 0-3 5c-1 5 5 9 9 11l27 6c9 1 19 1 28-1 4-1 9-2 11-7a3 3 0 0 0 1-1 3 3 0 0 0-1-2zm-62-9a71 71 0 0 1 26 0 92 92 0 0 1 21 5l8 4 1-3s-10-6-29-9-33 2-33 2l1 3a27 27 0 0 1 5-1z"/><path class="cls-15" d="M153 420h-2l3 2 2-1a7 7 0 0 0-3-1zm3 2a10 10 0 0 0-1 1l4 1a4 4 0 0 0 0-2h-3zm5 2l-1 1 4 1a7 7 0 0 0 0-2 8 8 0 0 0-3 0zm4 3l4 1a7 7 0 0 1 0-2 12 12 0 0 0-3-1l-1 2zm6 0l-1 1 4 1v-2h-3zm8 1a7 7 0 0 0-3 0l-1 1 4 1 1-1-1-1zm2 1a13 13 0 0 1 0 1l4 1a11 11 0 0 1 0-2h-4zm5 0a4 4 0 0 0 0 2h5a3 3 0 0 1-1-2 38 38 0 0 0-4 0zm6 0a3 3 0 0 0 0 2h4v-2a21 21 0 0 0-4 0zm5 1v1h4v-1a12 12 0 0 0-4 0zm5-1v2l4-1a7 7 0 0 0-1-1 9 9 0 0 0-3 0zm4 0a2 2 0 0 0 1 1h3v-2l-4 1zm7-2l-2 1a4 4 0 0 0 0 1h4l-2-2zm-56-18a20 20 0 0 0-2 1l-1 2a22 22 0 0 0 4-1 14 14 0 0 0-1-2zm1 1h4l-1-1h-1c-1 0-3 0-2 1zm7-2h-2l-1 1 1 1h3l-1-2zm5 1v-1a30 30 0 0 1-4 0 3 3 0 0 0 0 1zm4-1h-2c-1 0-2 0-1 1h3v-1zm5 1v-1h-2-2c-1 1 1 1 1 1zm5 1a5 5 0 0 1 0-2h-3v1zm1-1a4 4 0 0 0 0 1h2a7 7 0 0 0 0-1 10 10 0 0 0-2 0zm6 1a3 3 0 0 0 1-1h-3l-1 1zm4 0c-1 0-2-1-2 1h3l-1-1zm5 1l-2-1-1 2h2a10 10 0 0 0 1-1zm4 1a7 7 0 0 0-3-1v1l2 1a3 3 0 0 0 1-1zm1 0l-1 1 3 1a3 3 0 0 0 0-1 6 6 0 0 0-2-1zm6 2h-2a3 3 0 0 0-1 1l2 1 1-2zm4 2a6 6 0 0 0-3-1v1l2 1 1-1z"/><path class="cls-17" d="M155 415c0-12 6-24 19-27 12-3 28 0 35 9 7 7 6 19 5 27 0 5 7 5 7 1 1-11 1-22-6-32-8-11-26-14-39-12-18 2-28 18-28 34 0 4 7 4 7 0z"/><path class="cls-18" d="M155 399c-3 8-3 17-3 17l2-3 1-6 2-6 6-9-1-2s-4 3-7 9zm56-7l-1-1-1 3a13 13 0 0 0 2 2l6 17 1 10c3-21-7-31-7-31z"/><path class="cls-19" d="M210 394a5 5 0 0 1 2-3 3 3 0 0 1 1 0 28 28 0 0 0-5-4 5 5 0 0 0-1 0l-4 5a24 24 0 0 1 6 5c7 7 6 19 5 27a3 3 0 0 0 3 4v-1c4-17-3-29-7-33zm-45-9a4 4 0 0 0-1 0 30 30 0 0 0-6 5l4 1c-8 6-10 24-10 27a3 3 0 0 0 3-3c0-11 5-22 16-26a10 10 0 0 0-6-4z"/><path class="cls-15" d="M213 392l-1 1 2 2 1-1zm3 4h-2l2 4 2-1zm2 5h-1l1 3h2zm2 4l-2 1 1 3h2zm1 10v-4l-2-1v5zm-2 1v4h2v-3zm2 6l-2-1-1 3 3 1zm-3 5a3 3 0 0 0 3-1l-3-1zm-62-34l2 1 2-3h-2zm-2 3l2 1 1-2-2-1zm-2 4l2 1 1-3-1-1zm-1 4l2 1v-3l-1-1zm-2 4l3 1v-3l-2-1zm3 2l-2-1-1 4h3zm-1 7l1-3h-2l1 3z"/><path class="cls-3" d="M221 373c-2 5-3 12-8 15-6 3-4 2-5 8-2 1-4 0-6-1-2 1-5 0-6-1v-1c-3 1-6 0-7-2a11 11 0 0 1-2-1l-2-8-2-5c3-5 10-13 17-14a13 13 0 0 0 1-3l7-1 8 3z"/><path d="M195 385c10 4 20 2 23-4s-3-15-13-19a30 30 0 0 0-4-1 21 21 0 0 1-1 2c-7 1-13 8-16 14a25 25 0 0 0 11 8z" fill="url(#radial-gradient)"/><path class="cls-4" d="M213 388c5-3 6-10 8-15l-5-11-8-3c-1-1-7 1-7 1a11 11 0 0 1-1 2c13 1 18 11 18 11-1 8-6 12-10 15s-1 8-1 8v1a5 5 0 0 0 1-1c1-6-1-5 5-8z"/><path class="cls-25" d="M199 363h1a21 21 0 0 0 1-3l-2 3a13 13 0 0 0-3 1 21 21 0 0 0-5 3 32 32 0 0 0-8 10h1a42 42 0 0 1 8-10 18 18 0 0 1 7-4zm22 10l-3 9-8 7a4 4 0 0 0-2 3v2c0 2 0 2-2 2a8 8 0 0 1-4-1 8 8 0 0 0 7 2v-1-5l5-4a13 13 0 0 0 4-6 48 48 0 0 0 3-8zm-19 22c-1-3-2-6 0-8a8 8 0 0 1-1 1l-1 1a19 19 0 0 0 1 6 5 5 0 0 1-5-1c1 1 4 2 5 1h1zm-6-1v-1l-1-4c-1-2 0-4 1-6l-2 5a19 19 0 0 0 1 5c-2 1-5 0-5-2v-1a29 29 0 0 1-1-5 18 18 0 0 0 0 5h-2v1h2l1 1a4 4 0 0 0 1 1 5 5 0 0 0 5 1c-1 0 0 0 0 0z"/><path class="cls-26" d="M200 361s5-1 12 3 8 11 8 11 13-11 16-25-18-35-18-35a104 104 0 0 1-16 43s-2 1-2 3z"/><path d="M204 358a87 87 0 0 0 13-28s10 6 13 23c0 0-4 9-9 13 0 0-7-8-17-8z" fill="url(#linear-gradient-6)"/><path class="cls-3" d="M188 376c-6-5-12-11-19-13l-3-1-7 2-5 4-3 8c0 6 4 13 12 13l1 1 2 2a15 15 0 0 1-3 5 9 9 0 0 0 9 1c4-1 8 0 9-4a5 5 0 0 0 0-2h1l-1 4a13 13 0 0 0 3-3h1c5-4 8-12 3-17z"/><path d="M164 381c8 6 18 5 24-2a14 14 0 0 0 1-2 10 10 0 0 0-1-1c-6-5-11-11-19-13h-3l-7 2-3 1c0 6 3 12 8 15z" fill="url(#radial-gradient-2)"/><path class="cls-4" d="M168 392c0-2-3-5-7-6s-7-8-7-8c4-10 17-14 17-14v-1h-2l-3-1-7 2-5 4-3 8c0 6 4 13 12 13l1 1 2 2a15 15 0 0 1-3 5 8 8 0 0 0 3 1l2-6z"/><path class="cls-25" d="M154 385l-3-9c-1 6 4 14 12 13l-9-4zm35-8l-4-4a47 47 0 0 0-5-4 31 31 0 0 0-11-6c7 3 13 7 18 12s3 13-2 18a8 8 0 0 0 1-2c1-3 0-5-1-8 2 5 0 9-4 12 2-3 0-6-1-9a27 27 0 0 1 1 5c1 1 0 4-2 5l-6 2v-1c3-2 3-5 1-7 3 4-1 8-7 8a9 9 0 0 1-3-1l2-3-2-4c1 1 2 2 1 3a25 25 0 0 1-2 4 10 10 0 0 0 9 1c3 0 6 0 8-2h1a13 13 0 0 0 4-3c5-4 8-11 4-16z"/><path class="cls-26" d="M151 379s7-15 20-16a87 87 0 0 1-10-7c-4-3-24-19-26-38l-15 11-10 17s7 13 18 22c12 10 23 11 23 11z"/><path d="M151 372s6-8 15-10c0 0-21-12-30-31 0 0-10 4-15 17a56 56 0 0 0 30 24z" fill="url(#linear-gradient-7)"/><path d="M124 266s-31 16-47 48c-10 21-20 63-25 70s-15 10-15 10c13 23 32 16 39 16s13 11 13 11c11-22 12-45 18-62s28-36 28-36c26-21 38-53 38-53s19 24 34 37c17 14 28 35 29 53s11 54 12 57c0 0 3-9 8-10s20-1 25-16c0 0-23-13-30-51s-22-60-51-76z" fill="url(#linear-gradient-8)"/><path d="M237 299c-8-15-20-26-37-35l-76 2s-31 16-47 48v1s16-29 49-41a304 304 0 0 0 45 1l2-5 4 5c9-1 17-2 24-5a114 114 0 0 1 36 29z" fill="url(#linear-gradient-9)"/><path d="M114 326s-15 10-25 37c-8 25-18 46-31 47 8 2 14 0 18 0l7 4 7-31c3-17 11-45 24-57z" fill="url(#linear-gradient-10)"/><path d="M256 407c2-1 9-1 15-4-11-7-25-29-26-45-2-17-14-38-14-38s8 20 10 39c1 16 8 44 10 51a9 9 0 0 1 5-3z" fill="url(#linear-gradient-11)"/><path d="M63 401s9-50 19-82c0 0-14 28-18 48s-1 34-1 34z" fill="url(#linear-gradient-12)"/><path d="M267 396l-10-27-9-24s4 37 19 51z" fill="url(#linear-gradient-13)"/><path class="cls-11" d="M198 287c-6-9-20-10-25-19-1-2-3-1-3 0-5 10-19 11-23 20-4 7 1 13 8 14l2-2c-5 0-8-3-8-7s3-7 7-10 9-5 13-9a31 31 0 0 1 1 5l3-9 6 7 9 5c4 2 8 5 8 9a6 6 0 0 1-1 4l2 2c2-3 3-6 1-10zm-27-15v-1h1a1 1 0 0 0-1 1z"/><path class="cls-36" d="M174 271c-1 8 2 27 15 26 4 0 8-3 7-8s-4-6-8-9c-6-4-14-6-18-13-1-1 2-2 3-1 5 9 19 10 25 19 4 7-1 13-9 15-15 2-19-20-18-29 0-2 3-2 3 0z"/><path class="cls-36" d="M169 272c2 7 1 26-12 26-5 0-8-3-8-7s3-7 7-9c6-5 13-8 17-14 0-2-2-3-3-1-5 9-19 11-23 20-4 7 2 13 10 14 15 1 17-21 15-30-1-1-4-1-3 1z"/><path d="M174 269S50 282 32 202c0 0-17-50 27-96s58-64 66-83c0 0 7-12 15-12s14 8 20 13c22 20 44 41 68 60 31 25 57 60 47 102-8 37-40 80-101 83z" fill="url(#linear-gradient-14)"/><path d="M32 202c18 80 142 67 142 67 61-3 93-46 101-83 6-27-2-50-16-71 0 10-12 0-12 0-16-17-38-31-79-24s-87 40-100 38c-12-3-7-22-6-26l-3 3c-43 46-27 96-27 96z" fill="#e00814"/><path d="M96 231c-5-19-1-39 5-57a220 220 0 0 1 28-57l2-3-17 4s-40 47-29 98 23 46 23 46l4 1a88 88 0 0 1-16-32z" fill="#e52521"/><path d="M70 245c-54-55-18-113-18-113l-10-3c-21 38-10 73-10 73 6 28 25 44 47 54a79 79 0 0 0-9-11z" fill="url(#linear-gradient-15)"/><path d="M247 115c-16-17-38-31-79-24s-87 40-100 38c-12-3-7-22-6-26l-3 3a115 115 0 0 0-20 29c16 9 43-4 61-9 24-7 51-15 76-13a151 151 0 0 1 58 15c11 5 25 11 38 11a104 104 0 0 0-13-24c0 10-12 0-12 0z" fill="#d41216"/><path class="cls-26" d="M32 202c18 80 142 67 142 67 61-3 93-46 101-83 5-20 1-38-7-55l1 2c10 40-9 75-9 75-43 74-147 51-147 51-101-16-77-118-77-118-13 33-4 61-4 61z"/><path class="cls-11" d="M240 224l-2-7a13 13 0 0 0 5-5c3-5 5-18 1-18-1-1-3 0-6 2 3-9 8-18 13-26s10-18 8-28c-3-18-20-31-36-38a85 85 0 0 0-18-5c-8-2-17-3-26-2v1h-1a102 102 0 0 0-56 29 143 143 0 0 0-17 22 92 92 0 0 0-13 33 144 144 0 0 0-2 30v9c-4-4-11-9-15-8-5 0-2 13 2 19a19 19 0 0 0 16 6l1 2c3 8 9 16 16 21a29 29 0 0 0 11 4 46 46 0 0 0 6 1l7-1a1 1 0 0 0 1-1h-1a15 15 0 0 0-3 0 27 27 0 0 1-16-8 36 36 0 0 1-6-8l24 12c13 4 29 6 42 6 16 0 35-11 48-25a43 43 0 0 0 9-15 39 39 0 0 1 1 12c-1 8-6 15-13 19a102 102 0 0 0 19-12v-1c3-6 3-14 1-20z"/><path class="cls-3" d="M231 201l-2 14s7 3 12-6c3-5 5-18 2-18s-11 6-12 10z"/><path d="M229 212c2-5 8-18 14-16 0 0-1 19-13 18z" fill="url(#linear-gradient-16)"/><path class="cls-43" d="M229 212a70 70 0 0 1 5-10l1-1c2-3 5-6 8-5-3 0-7 3-9 6l2 2a7 7 0 0 1-1 5 8 8 0 0 0 1-4 4 4 0 0 0-1-2h-1a55 55 0 0 0-5 9z"/><path d="M228 213c6 15 6 33-10 41 0 0 20-4 21-20s-5-18-5-29z" fill="url(#linear-gradient-17)"/><path d="M235 223l1-7-2-11-6 8c6 15 6 33-10 41a29 29 0 0 0 4-1c17-9 13-30 13-30z" fill="url(#linear-gradient-18)"/><path d="M228 213c2 7 4 15 3 22-1 8-6 15-13 19 8-1 16-6 20-13 3-6 2-14 0-20-1-6-4-10-4-16-1 5 1 9 3 13 2 7 3 15 0 21-2 8-11 13-19 15a25 25 0 0 0 14-17c1-8-1-17-4-24z" fill="url(#linear-gradient-19)"/><path class="cls-3" d="M234 202l-1-24 1-13s-12-21-18-27-62 6-73 7-35 33-43 43-4 26-3 36 10 20 10 20c10 7 16 10 25 13 12 4 28 6 41 6 16 0 35-11 49-25 8-9 13-24 12-36zm-161 8c-5 1-2 13 3 19 7 8 17 6 17 6l-2-14c-2-4-13-12-18-11z"/><path d="M94 232c-3-5-13-18-21-17 0 0 1 19 19 18z" fill="url(#linear-gradient-20)"/><path class="cls-43" d="M94 232a71 71 0 0 0-8-10l-1-2c-3-3-7-6-12-5 5 0 9 4 12 7a3 3 0 0 0-2 2 5 5 0 0 0 1 5 6 6 0 0 1 0-4 3 3 0 0 1 0-2l2-1a56 56 0 0 1 8 10z"/><ellipse cx="180" cy="240" rx="36" ry="14" transform="rotate(-7 180 240)" fill="url(#radial-gradient-3)"/><path d="M136 221a25 25 0 0 0-41-19l2 22c0 7 7 17 9 20a24 24 0 0 0 30-23z" fill="url(#radial-gradient-4)"/><path d="M234 202l-1-15h-1a25 25 0 0 0-8 48c7-9 11-22 10-33z" fill="url(#radial-gradient-5)"/><path d="M234 165s-12-21-18-27-62 6-73 7-35 33-43 43c-5 7-5 15-5 22l3 2s26-29 77-31c42-1 55 11 59 15l-1-18z" fill="url(#linear-gradient-21)"/><path d="M238 165a10 10 0 0 0-7-13 95 95 0 0 0-12-1l3-9c0-3-16-13-18-12a897 897 0 0 1-58 22c3-12 3-14 0-13-4 0-24 15-24 15l-12 14-7 33a198 198 0 0 0 23-19c1 0 39 0 62-6 2 0 22 3 35 1 2 3 7 11 10 12 5 2 6-13 6-13a94 94 0 0 0-1-11z" fill="url(#linear-gradient-22)"/><path d="M185 203c-1 2 0 5 2 6 3 2 6 2 6 6-1 5-6 7-13 6 0 0-7-2-5-8s5-11 7-11l3 1z" fill="url(#linear-gradient-23)"/><path d="M180 221a10 10 0 0 1-4-2 5 5 0 0 0-1 1c-1 4 4 7 7 7s6-3 6-6a4 4 0 0 0 2-2c-2 2-5 3-10 2z" fill="url(#linear-gradient-24)"/><path d="M192 216c-2 6-13-2-16 3a10 10 0 0 0 4 2c5 1 8 0 10-2a21 21 0 0 0 2-1z" fill="url(#linear-gradient-25)"/><path d="M184 203c0 2 0 4 2 6l6 4c1 2-1 6-3 7-3 2-6 1-9 1 5 1 11 1 13-5a5 5 0 0 0-1-5 16 16 0 0 0-4-2c-3-1-3-3-3-6z" fill="url(#linear-gradient-26)"/><circle class="cls-57" cx="116" cy="232" r="2" transform="rotate(-87 115 232)"/><circle class="cls-57" cx="217" cy="225" r="2" transform="rotate(-86 217 225)"/><path d="M217 226c-8 10-19 18-32 21-22 5-51-2-68-14 0 0 21 22 60 19 0 0 20-1 36-21z" fill="#f18a75"/><path d="M217 226c-8 10-19 18-32 21-22 5-51-2-68-14 0 0 30 15 60 12s40-19 40-19z" fill="#ef7763"/><path d="M116 233c15 11 35 16 54 16a60 60 0 0 0 47-23v-1c-6 7-12 14-21 18-8 4-18 5-27 5-18 0-37-5-52-15z" fill="#e94c58"/><path class="cls-1" d="M107 207s-1-24 21-25c19-1 21 17 21 17z"/><path class="cls-61" d="M150 200c-10-24-41-17-43 7 0 0 9 10 25 8s18-15 18-15z"/><path d="M124 214a15 15 0 0 0 5-29 22 22 0 0 0-19 12v1a15 15 0 0 0 14 16z" fill="url(#linear-gradient-27)"/><path d="M124 212a13 13 0 1 0-1-26 22 22 0 0 0-10 7 13 13 0 0 0 11 19z" fill="url(#linear-gradient-28)"/><path d="M124 212a13 13 0 0 0 14-12c-2-4-5-7-10-6-3 1-6 5-7 8-2 4-5 5-8 3a13 13 0 0 0 11 7z" fill="url(#linear-gradient-29)"/><circle cx="124" cy="199" r="9" transform="rotate(-86 124 199)" fill="url(#linear-gradient-30)"/><circle class="cls-61" cx="132" cy="196" r="2" transform="rotate(-86 132 196)"/><circle class="cls-66" cx="125" cy="193" r="1" transform="rotate(-86 125 193)"/><path class="cls-1" d="M107 207c1-10 9-19 19-21a21 21 0 0 1 13 2c5 2 8 7 10 12h1c-4-10-14-17-24-15a22 22 0 0 0-13 7c-4 4-5 9-6 15zM228 195s-6-21-24-17c-17 4-14 22-14 22z"/><path class="cls-61" d="M190 201c2-25 29-27 37-6a25 25 0 0 1-17 14 17 17 0 0 1-20-8z"/><path d="M201 208c7 2 14-3 15-11s-3-15-10-16c-6 0-12 5-15 13 0 7 4 12 10 14z" fill="url(#linear-gradient-31)"/><path d="M201 206c6 2 13-2 14-9s-3-14-9-15a10 10 0 0 0-6 1 17 17 0 0 0-6 5 13 13 0 0 0-1 4c-2 6 2 13 8 14z" fill="url(#linear-gradient-32)"/><path d="M201 206c6 2 13-2 14-9-1-4-3-8-7-7l-8 6c-2 3-4 5-7 2a12 12 0 0 0 8 8z" fill="url(#linear-gradient-33)"/><path d="M212 196c-1 5-6 8-10 7s-7-6-6-11 5-7 9-7 8 6 7 11z" fill="url(#linear-gradient-34)"/><path class="cls-61" d="M212 192a2 2 0 0 1-2 2 2 2 0 0 1-1-2 2 2 0 0 1 2-2 2 2 0 0 1 1 2z"/><path class="cls-66" d="M206 189a1 1 0 0 1-1 1 1 1 0 0 1-1-2 1 1 0 0 1 1-1 1 1 0 0 1 1 2z"/><path class="cls-1" d="M227 195c-3-9-12-15-20-14a17 17 0 0 0-11 5c-3 4-5 9-6 15 0-11 7-20 16-21a19 19 0 0 1 13 3c4 3 7 7 9 12z"/><path d="M208 98c-9-2-21-4-30-3h-2c-39 8-58 29-73 52-13 20-16 49-14 73 2 12 5 23 13 32 9 10 18 10 31 10-25-1-33-27-34-50h1c4-28 30-37 43-57l1 2c-4 8-7 15-14 21 27-1 63-2 79-28v5c-2 7-8 13-14 18 11 1 22 1 32-3l1 1c-1 7 3 12 5 18s1 12 1 18l2-7c0-17 12-29 18-44 13-29-21-53-46-58z" fill="url(#linear-gradient-35)"/><path d="M100 161s28-65 93-64c0 0-54 1-93 64z" fill="url(#linear-gradient-36)"/><path d="M219 106s46 14 30 52c0 0 8-27-30-52z" fill="url(#linear-gradient-37)"/><path d="M131 178c27-1 60-2 77-26l3-7 3-7c-22 35-83 40-83 40zm125-26a12 12 0 0 0-1 2c-5 12-16 19-14 15s2-13 2-13c-18 16-47 17-47 17 10 1 22 1 31-3l1 1c-1 7 3 12 5 18s1 12 1 18l2-7c0-17 12-29 18-44a34 34 0 0 0 2-4zM99 212h1c4-27 28-36 42-55l4-8c-5 7-14 14-26 24a96 96 0 0 0-20 23 57 57 0 0 1 0-9c-7 22-6 36 2 56 7 19 27 19 30 19h1c-25-1-33-27-34-50z" fill="url(#linear-gradient-38)"/><path d="M140 114l-3 5c5-1 6-2 9 1s3 5 8 5l21-2c10-1 20 1 29 2 9 2 24 11 32 6 5-2 10-6 5-11 9 7 13 14 11 26-1-6-5-2-8-2s-7-3-10-5a61 61 0 0 0-25-8c-15-2-27 1-41 6-11 3-16 2-25-3-5-2-8-4-13-4l-12 2a128 128 0 0 1 10-11c7-7 12-7 12-7z" fill="url(#linear-gradient-39)"/><path d="M192 126l-19 2c-8 1-17 3-24-1-6-2-9-6-15-6a7 7 0 0 1 1-3l-1 1c-7 3-12 10-12 10 11-2 15 0 23 4s15 3 30-2 33-2 33-2c-4-2-12-3-16-3zm52-1c-2 10-14 9-14 9l9 5a10 10 0 0 0 8 1 4 4 0 0 1 4 1 20 20 0 0 0-7-16z" fill="url(#linear-gradient-40)"/><path d="M133 261a15 15 0 0 0-3 0 27 27 0 0 1-17-8c-5-6-8-13-10-20-4-15-5-31-2-45a102 102 0 0 0 1 45c3 13 11 24 23 28a41 41 0 0 1-8-1 28 28 0 0 1-15-9c-8-10-11-22-12-34a114 114 0 0 1 42-102c13-10 28-16 44-20a102 102 0 0 0-56 29 143 143 0 0 0-17 22 92 92 0 0 0-12 33 144 144 0 0 0-3 30c0 9 1 19 4 28 3 8 9 17 17 22a29 29 0 0 0 10 3 45 45 0 0 0 7 1l7-1a1 1 0 0 0 0-1zm13-111c-7 11-17 20-27 29s-17 19-19 33c2-14 11-24 22-34 9-8 19-16 25-28h-1zm-2 9v-2 2zm-14 20c29-1 68-3 82-34-15 30-52 31-81 32l3-3a46 46 0 0 0 4-5l4-8-4 7-3 5-5 5v1zm98-8a29 29 0 0 0 15-14h-1c-5 8-12 12-21 14-8 2-16 2-25 2l4-4 4-4a23 23 0 0 0 5-10 25 25 0 0 1-5 9 48 48 0 0 1-4 5l-5 4a1 1 0 0 0 0 1c10 1 22 1 32-3 0 6 2 11 4 16 3 6 3 13 3 20 1-6 1-12-1-19-2-5-5-11-5-17zm29-32c-2-18-20-31-36-38a85 85 0 0 0-18-5c-8-1-17-3-25-1-1 0 0 0 0 0 12-1 24 1 35 5a80 80 0 0 1 26 13c7 6 14 14 16 23 3 11-1 20-6 29-6 12-13 22-13 35 0-12 8-23 14-33 5-9 9-18 7-28z" fill="url(#linear-gradient-41)"/></svg>