<svg xmlns="http://www.w3.org/2000/svg" width="106.548mm" height="172.671mm" viewBox="0 0 302.027 489.46">
  <title>юбка</title>
  <g style="isolation: isolate">
    <g>
      <path d="M551.2,131.986l-.745-2.725h.009V110.342h-4.233L551.2,71.154H331.833l4.966,39.188h-4.382v18.919h.158l-.742,2.725s-42.122,64.059-34.225,138.645c14.04,112.326,50.019,208.852,37.734,280.808H547.692c-12.285-71.957,23.7-168.482,37.735-280.808C593.324,196.046,551.2,131.986,551.2,131.986Z" transform="translate(-284.386 -61.979)" fill="#a9b8ba" style="mix-blend-mode: multiply"/>
      <g>
        <g>
          <path d="M319.595,61.979,324.86,103.5l-5.266,19.3s-42.119,64.06-34.222,138.651c14.041,112.326,50.019,208.852,37.732,280.808H423.145V61.979Z" transform="translate(-284.386 -61.979)" fill="#43beaa"/>
          <path d="M573.19,261.456c-14.038,112.326-50.019,208.852-37.735,280.808H423.133V61.979H538.966L533.7,103.5l5.263,19.3S581.09,186.865,573.19,261.456Z" transform="translate(-284.386 -61.979)" fill="#16af9a"/>
          <path d="M550.341,261.456c-14.04,112.326-50.019,208.852-37.734,280.808H423.133V61.979h92.983L510.851,103.5l5.266,19.3S558.235,186.865,550.341,261.456Z" transform="translate(-284.386 -61.979)" fill="#2abbad"/>
          <rect x="35.796" y="39.182" width="218.051" height="18.925" fill="#5b5b5b"/>
          <path d="M468.94,101.161c6.438,3.857,9.1,10.465,3.343,18.138-.187.278-.409.52-.608.787h11a77.327,77.327,0,0,0-4.454-18.925Z" transform="translate(-284.386 -61.979)" fill="#383938"/>
          <g>
            <rect x="70.312" y="28.269" width="9.944" height="41.338" fill="#2abbad"/>
            <rect x="212.76" y="28.269" width="9.947" height="41.338" fill="#10a994"/>
          </g>
          <path d="M429.892,119.959v4.857H421.2a13.1,13.1,0,0,1-12.972-14.431c.66-6.819,6.749-11.815,13.554-11.815h8.106v3.282h.309v-.763h6.211V95.9A3.882,3.882,0,0,0,432.541,92H421.2a19.665,19.665,0,0,0-19.388,22.28c1.266,9.926,10.131,17.1,20.066,17.1h10.658a3.882,3.882,0,0,0,3.87-3.894v-7.528Z" transform="translate(-284.386 -61.979)" fill="#b0b0b0"/>
          <circle cx="141.163" cy="46.571" r="3.282" fill="#383938"/>
          <path d="M422.291,111.832h-33a3.282,3.282,0,0,1,0-6.565h33a3.282,3.282,0,0,1,0,6.565Z" transform="translate(-284.386 -61.979)" fill="#b0b0b0"/>
        </g>
        <circle cx="161.975" cy="46.571" r="3.282" fill="#383938"/>
        <circle cx="90.311" cy="46.571" r="3.282" fill="#383938"/>
      </g>
    </g>
  </g>
</svg>
