<svg xmlns="http://www.w3.org/2000/svg" viewBox="0 0 594 595"><defs><style>.cls-1{fill:none}.cls-8{fill:#e8e4da}.cls-16{fill:#52712a}.cls-13{fill:#afa794}.cls-14{fill:#4d3919}.cls-15{fill:#602724}.cls-17{fill:#66972f}.cls-17,.cls-36,.cls-44{opacity:.5}.cls-18{fill:#879c91}.cls-19{fill:#bdd3c8}.cls-20,.cls-23{fill:#fff6df}.cls-21{fill:#697d72}.cls-22{fill:#a43030}.cls-23{stroke:#c7bc9e;stroke-miterlimit:10;stroke-width:1.19px}.cls-24{fill:#d5cfbd}.cls-25{fill:#bdb4a1;opacity:.7;mix-blend-mode:multiply}.cls-26{fill:#8f2929}.cls-28{fill:#c0b8a2}.cls-30{fill:#837772}.cls-31{fill:#fff}.cls-32{fill:#928581}.cls-36{fill:#681718}.cls-39{fill:#c7bc9e}.cls-41{fill:#eaeaea}.cls-42{fill:#d1e8ed}.cls-45{fill:#bdbec0}.cls-46{fill:#d1d1d1}.cls-47{fill:#f9c931}</style><clipPath id="clip-path"><path class="cls-1" d="M0 0h592v592H0z"/></clipPath></defs><g style="isolation:isolate"><g id="Слой_1" data-name="Слой 1"><path fill="#275e64" d="M0 0h594v594H0z"/><g clip-path="url(#clip-path)"><path d="M-28 357s19-66 72-53c2-67 76-78 113-44 5-38 53-49 80-21 0 0-11-24 12-45 21-19 45-17 64-5 29 18 19 52 19 52s25-38 57-1c0-35 35-99 113-59 64 33 25 105 25 105s36-20 66 13c35 38 18 72 18 72s93 22 61 99l-776 1c1-88 76-114 76-114z" fill="#215154"/><path fill="#939393" d="M0 479h594v115H0z"/><path fill="#737373" d="M0 437h594v44H0z"/><path class="cls-8" d="M12 485l-1 2H-3l-1-2v-3l1-2h14l1 2zM29 485l-1 2H14l-1-2v-3l1-2h14l1 2zM46 485l-2 2H31l-1-2v-3l1-2h13l2 2zM62 485l-1 2H48l-2-2v-3l2-2h13l1 2zM79 485l-1 2H64l-1-2v-3l1-2h14l1 2zM96 485l-2 2H81l-1-2v-3l1-2h13l2 2zM113 485l-2 2H98l-2-2v-3l2-2h13l2 2zM129 485l-1 2h-13l-2-2v-3l2-2h13l1 2zM146 485l-1 2h-14l-1-2v-3l1-2h14l1 2zM163 485l-2 2h-13l-1-2v-3l1-2h13l2 2zM179 485l-1 2h-13l-2-2v-3l2-2h13l1 2zM196 485l-1 2h-14l-1-2v-3l1-2h14l1 2zM213 485l-2 2h-13l-1-2v-3l1-2h13l2 2zM230 485l-2 2h-13l-2-2v-3l2-2h13l2 2zM246 485l-1 2h-13l-2-2v-3l2-2h13l1 2zM263 485l-1 2h-14l-1-2v-3l1-2h14l1 2zM280 485l-2 2h-13l-1-2v-3l1-2h13l2 2zM296 485l-1 2h-13l-2-2v-3l2-2h13l1 2zM313 485l-1 2h-13l-2-2v-3l2-2h13l1 2zM330 485l-1 2h-14l-1-2v-3l1-2h14l1 2zM347 485l-2 2h-13l-1-2v-3l1-2h13l2 2zM363 485l-1 2h-13l-2-2v-3l2-2h13l1 2zM380 485l-1 2h-14l-1-2v-3l1-2h14l1 2zM397 485l-2 2h-13l-1-2v-3l1-2h13l2 2zM414 485l-2 2h-13l-2-2v-3l2-2h13l2 2zM430 485l-1 2h-13l-2-2v-3l2-2h13l1 2zM447 485l-1 2h-14l-1-2v-3l1-2h14l1 2zM464 485l-2 2h-13l-1-2v-3l1-2h13l2 2zM480 485l-1 2h-13l-2-2v-3l2-2h13l1 2zM497 485l-1 2h-14l-1-2v-3l1-2h14l1 2zM514 485l-2 2h-13l-1-2v-3l1-2h14l1 2zM531 485l-2 2h-13l-2-2v-3l2-2h13l2 2zM547 485l-1 2h-13l-2-2v-3l2-2h13l1 2zM564 485l-1 2h-14l-1-2v-3l1-2h14l1 2zM581 485l-2 2h-13l-1-2v-3l1-2h13l2 2zM598 485l-2 2h-13l-2-2v-3l2-2h13l2 2z"/><path d="M154 453c0-8 8-17 0-17-12-1-17 1-18 2a11 11 0 0 0-5-5c-1-2-9-1-11-2l7-13c0-9-14-9-23-10-3-7 8-12 1-12s-30 5-34 10c-2-4 2-8-3-8-8 0-22 8-22 16v1a14 14 0 0 0-14 13v1a14 14 0 0 0-14 13 14 14 0 0 0-8 13 13 13 0 0 0 1 4h140l3-6z" fill="#7fa92a"/><path d="M114 436a9 9 0 0 0-2 0c-1-8 10-19 1-19-4 0-27 6-30 8-3-3 3-7-1-7l-16 4c-3-4 11-11 6-11-4 0-26 5-29 8-1-1 4-7 3-7-8 0-21 12-21 20a13 13 0 0 0-7 6c-1-1 4-7 3-8-6-3-20 2-26 6a21 21 0 0 0-9 17 21 21 0 0 0 1 6h136c1-2 17-12 17-15 0-7-20-8-26-8z" fill="#9bbb27"/><path d="M587 441c0-10 9-21-1-22-14 0-20 2-22 3-1-3-3-4-5-6s-12-2-15-2c1-2 10-14 10-16 0-12-18-12-29-13-4-8 10-14 1-14-8 0-37 6-41 12-3-4 2-10-4-10-10 0-27 10-27 19v1a17 17 0 0 0-17 17v2a17 17 0 0 0-17 15 17 17 0 0 0-10 16 16 16 0 0 0 1 5h171c0-2 5-5 5-7z" fill="#3b5a25"/><path class="cls-13" d="M467 452h-28l-6 8h28l6-8z"/><path class="cls-14" d="M463 452h-22l-5 6h23l4-6z"/><path class="cls-15" d="M480 391a24 24 0 0 1-4 2c-2 11-8 27-15 31 1-8 6-14 7-22h-6c0 6-1 6-2 11a4 4 0 0 1 0 2c-1 1-2-1-2-2-1-6-5-11-7-17h-3c3 7 6 22 7 31s-8 20-9 29h7a1 1 0 0 0 1-1 4 4 0 0 0 0-2c0-6 7-15 7-22a42 42 0 0 0 12-15c3-7 8-16 7-25z"/><path class="cls-16" d="M537 329c-11-28 13-55-1-55-1 0-36 7-42 12-4-4 16-13 15-13-25 4-76 31-77 66-1 9-4 32-2 40 4 18 30 24 41 24h1c11 0 37-6 41-24 2-8 27-41 24-50zM525 269c2-3 6-4 5-5l-2-1c-2-2-7-3-10-1a37 37 0 0 0-3 3v5c1 0 3 2 5 1l5-2zM577 281c1-2 5-3 4-4l-1-1a8 8 0 0 0-8 1l-4 3a3 3 0 0 0 0 4 3 3 0 0 0 4 0l5-3zM562 317l4-4-1-1a8 8 0 0 0-9 1l-3 3a3 3 0 0 0 0 4 3 3 0 0 0 4 0l5-3zM512 404l3-2-1-1a6 6 0 0 0-6 1l-2 1a2 2 0 0 0 0 3 2 2 0 0 0 3 0l3-2z"/><path class="cls-17" d="M434 340s0-35 31-41-14 0-15 26c0 0 11-18 45-29s39-18 39-18 8-7-10 31 7 18-2 32-20 41-41 40c0 0-19-1-18-17 0-8-12 3-17-3s0-11 0-12-11 0-12-9z"/><path class="cls-15" d="M464 426s15-2 21-8 6-3 6-3a4 4 0 0 0-1 2l-27 12c-4 1 1-3 1-3z"/><path class="cls-16" d="M478 420a27 27 0 0 1 7-11c5-5 9-2 9-1s1 2 8-2 3 1 1 4 2 2-3 6-12 9-16 8-9-1-6-4z"/><path class="cls-17" d="M482 416a18 18 0 0 1 5-6c4-3 7-1 7-1s1 1 6-1 2 0 0 2 2 1-3 4-9 5-12 4-6 0-3-2z"/><path class="cls-8" d="M438 463v-44a5 5 0 0 0-5-5 5 5 0 0 0-5 5v44zM454 463v-44a5 5 0 0 0-4-5 5 5 0 0 0-5 5v44zM470 463v-44a5 5 0 0 0-4-5 5 5 0 0 0-5 5v44zM486 463v-44a5 5 0 0 0-4-5 5 5 0 0 0-5 5v44zM502 463v-44a5 5 0 0 0-4-5 5 5 0 0 0-5 5v44zM518 463v-44a5 5 0 0 0-4-5 5 5 0 0 0-5 5v44zM534 463v-44a5 5 0 0 0-4-5 5 5 0 0 0-5 5v44zM550 463v-44a5 5 0 0 0-5-5 5 5 0 0 0-4 5l-1 44zM565 463v-44a5 5 0 0 0-4-5 5 5 0 0 0-5 5v44zM581 463v-44a5 5 0 0 0-5-5 5 5 0 0 0-4 5l-1 44zM596 463v-44a5 5 0 0 0-4-5 5 5 0 0 0-5 5v44z"/><path class="cls-8" d="M429 426h175v4H429zM429 450h175v4H429z"/><path class="cls-18" d="M406 322v21l-21-21h21z"/><path class="cls-19" d="M192 295l-22-31 1-49h21v80z"/><path class="cls-20" d="M169 213h25v4h-25z"/><path class="cls-19" d="M168 210h28v3h-28z"/><path class="cls-18" transform="rotate(180 265 415)" d="M198 374h133v81H198z"/><path class="cls-21" d="M25 458h31l1-70H25v70z"/><path class="cls-22" d="M66 324l-49 56 40-1 9-40v-15z"/><path class="cls-18" transform="rotate(180 39 442)" d="M24 433h31v17H24z"/><path class="cls-13" transform="rotate(180 40 454)" d="M25 450h31v8H25z"/><path class="cls-23" transform="rotate(180 36 381)" d="M16 379h40v5H16z"/><path class="cls-24" d="M408 315v7h-25l-6-7h31z"/><path class="cls-25" transform="rotate(180 215 415)" d="M201 374h29v81h-29z"/><path class="cls-22" d="M440 375L302 240H145l-4 123 152-4 41 17 106-1z"/><path class="cls-26" d="M376 271l40 37-47-1-35-36z"/><path class="cls-23" d="M416 307v4l-40 1-5-5h45zM380 315l-4-3h38v4h-7v-1h-27z"/><path class="cls-19" d="M52 464h153v-92l-76-102-76 98-1 96z"/><path class="cls-19" d="M244 240l51 70v50l-106 1v-47l55-74z"/><path class="cls-20" transform="rotate(180 387 377)" d="M332 375h109v4H332z"/><path class="cls-20" transform="rotate(180 385 381)" d="M331 379h108v4H331z"/><path class="cls-22" d="M151 240h-49l-48 55h49l24-32 1-7 17 26 6-42z"/><path class="cls-19" d="M428 384v80h-97v-80h97z"/><path class="cls-20" d="M93 303H57v-4h39l-3 4z"/><path class="cls-24" d="M88 310H63v-7h30z"/><path class="cls-18" d="M66 310v29l22-29H66z"/><path class="cls-20" transform="rotate(180 30 391)" d="M23 388h13v7H23z"/><path class="cls-20" transform="rotate(180 30 414)" d="M25 394h10v40H25z"/><path class="cls-28" transform="rotate(180 380 462)" d="M331 457h97v8h-97z"/><path transform="rotate(180 242 415)" fill="#a9a18e" d="M241 383h2v66h-2z"/><path class="cls-30" d="M240 452v-56c0-10 9-18 21-18s21 8 21 18v56z"/><path class="cls-31" d="M238 396c0-11 10-20 23-20s23 9 23 20v58h-46zm41 0c0-9-8-16-18-16s-19 7-19 16v56h37z"/><path class="cls-31" d="M260 377h3v76h-3z"/><path class="cls-31" d="M240 401h42v2h-42zM240 429h42v2h-42z"/><path class="cls-32" d="M265 406h12v21h-12zM265 433h12v18h-12zM245 433h12v18h-12zM245 406h12v21h-12zM277 400v-5s0-10-13-13v18zM244 400v-5s1-10 13-13v18z"/><path class="cls-26" d="M343 372l-48-13h-95l10 13z"/><path class="cls-20" d="M178 329h-12l79-103 75 105h-10l-66-91z"/><path fill="#541515" d="M310 331l-15-5 1-15 14 20z"/><path style="mix-blend-mode:multiply" fill="#a9a18e" d="M178 329l66-88 52 70-1 10-52-70-65 88v-10z"/><path class="cls-20" transform="rotate(180 128 436)" d="M68 434h120v4H68z"/><path class="cls-30" d="M108 430v-59a18 18 0 1 1 37 0v59z"/><path class="cls-31" d="M106 371a20 20 0 1 1 41 0v61h-41zm37 0a16 16 0 1 0-33 0v59h33z"/><path class="cls-31" d="M125 352h2v79h-2z"/><path class="cls-31" d="M108 377h38v2h-38zM108 405h38v2h-38z"/><path class="cls-32" d="M130 381h11v21h-11zM130 409h11v19h-11zM112 409h11v19h-11zM112 381h11v21h-11zM141 375v-5s0-10-11-14v19zM112 375v-5s0-10 11-14v19z"/><path class="cls-30" d="M74 430v-39a12 12 0 0 1 24 0v39z"/><path class="cls-31" d="M72 391a14 14 0 1 1 28 0v41H72zm25 0a11 11 0 0 0-22 0v39h22z"/><path class="cls-31" d="M85 378h2v53h-2z"/><path class="cls-31" d="M73 395h25v2H73zM73 414h25v2H73z"/><path class="cls-32" d="M88 398h7v14h-7zM88 417h7v13h-7zM76 417h7v13h-7zM76 398h7v14h-7zM96 394v-4s0-7-8-9v13zM76 394v-4s0-7 8-9v13z"/><path class="cls-30" d="M155 430v-39a12 12 0 1 1 25 0v39z"/><path class="cls-31" d="M154 391a14 14 0 1 1 27 0v41h-27zm24 0a11 11 0 0 0-22 0v39h22z"/><path class="cls-31" d="M167 378h2v53h-2z"/><path class="cls-31" d="M155 395h25v2h-25zM155 414h25v2h-25z"/><path class="cls-32" d="M170 398h7v14h-7zM170 417h7v13h-7zM158 417h7v13h-7zM158 398h7v14h-7zM177 394v-4s0-7-8-9v13zM158 394v-4s0-7 7-9v13z"/><path class="cls-30" d="M226 342v-42c0-7 7-12 16-12s15 5 15 12v42z"/><path class="cls-31" d="M224 300c0-7 8-14 18-14s17 7 17 14v44h-35zm32 0c0-6-7-11-14-11s-14 5-14 11v42h28z"/><path class="cls-31" d="M241 287h2v56h-2z"/><path class="cls-31" d="M226 305h32v2h-32zM226 325h32v2h-32z"/><path class="cls-32" d="M245 308h9v15h-9zM245 328h9v13h-9zM229 328h9v13h-9zM229 308h9v15h-9zM254 304v-4s0-7-10-10v14zM229 304v-4s0-7 10-10v14z"/><path class="cls-20" d="M95 300H53v-5h46z"/><path class="cls-36" d="M295 359l-85 12-9-12h94z"/><path transform="rotate(180 380 387)" style="mix-blend-mode:multiply" fill="#c0b8a2" d="M331 384h97v8h-97z"/><path transform="rotate(180 30 396)" fill="#ede3cc" d="M25 394h10v2H25z"/><path class="cls-25" d="M52 366l62-73v-1l15-19 43 56 32 48v33l-86-111-66 82v-15z"/><path class="cls-20" d="M417 462l-1-59s-33-14-73 1v61h73z"/><path class="cls-39" d="M342 404l1-1a110 110 0 0 1 38-7c21 0 35 6 35 6l1 1v63h-75zm74 58l-1-59a103 103 0 0 0-34-5 109 109 0 0 0-38 6v61l73-1z"/><path class="cls-20" transform="rotate(180 380 442)" d="M347 420h65v45h-65z"/><path class="cls-39" d="M347 419h66v47h-66zm65 2h-64v43h64z"/><path class="cls-39" d="M347 427h65v1h-65zM347 434h65v1h-65zM347 442h65v1h-65zM347 449h65v1h-65zM347 456h65v1h-65z"/><path class="cls-20" transform="rotate(180 274 374)" d="M204 372h141v4H204z"/><path class="cls-20" transform="rotate(180 271 378)" d="M208 376h125v5H208z"/><path transform="rotate(180 36 386)" fill="#ded4ba" d="M15 383h41v4H15z"/><path class="cls-28" transform="rotate(180 129 460)" d="M52 455h152v10H52z"/><path class="cls-20" transform="rotate(180 242 348)" d="M217 345h51v6h-51z"/><path class="cls-20" d="M39 374l89-117 87 123-7 7-81-114-80 107-8-6z"/><path class="cls-20" transform="rotate(180 262 457)" d="M235 455h53v4h-53z"/><path class="cls-21" d="M331 466l-18-11v-74h18v85z"/><path class="cls-36" d="M345 372l-21-24 32 27h-11v-3z"/><path class="cls-26" d="M163 306l10 14 72-94-44 15M128 257l-38 38-24 36-27 43"/><path class="cls-13" d="M41 472H17l-5 7h24l5-7z"/><path class="cls-14" d="M38 473H19l-4 5h19l4-5z"/><path class="cls-15" d="M53 443c-2 0-2 3-3 3-2 6-10 14-15 15 0-4 6-8 7-13h-2c0 3-5 6-6 9a9 9 0 0 1 0 3l-2-3-1-9-8-8 8 21c1 4-7 11-7 15h5a1 1 0 0 0 1 0 1 1 0 0 0 0-1c0-8 6-8 6-12a29 29 0 0 0 10-7c3-4 7-9 7-13z"/><path class="cls-16" d="M98 387c-9-24 12-47 0-47-1 0-31 7-36 11-4-4 13-11 13-11-22 3-66 26-67 56 0 9-3 28-1 35 3 16 25 21 35 21h1c9 0 32-5 35-21 2-7 24-36 20-44zM89 336c1-3 4-3 4-4l-2-1c-1-1-6-3-8 0a32 32 0 0 0-3 2v4c1 0 2 2 4 1l5-2zM133 347l4-3-1-2a7 7 0 0 0-8 1l-2 3a2 2 0 0 0 0 3 3 3 0 0 0 3 0l4-2zM120 378c1-2 4-3 3-4v-1a7 7 0 0 0-8 1l-2 3a2 2 0 0 0-1 3 3 3 0 0 0 4 0l4-2zM77 453l3-3h-1a5 5 0 0 0-5 0l-2 2a2 2 0 0 0 0 2 2 2 0 0 0 2 0l3-1z"/><path class="cls-17" d="M10 397s0-30 27-35-12 0-13 22c0 0 9-15 39-24s33-16 33-16 7-6-9 27 6 15-1 27-17 35-36 35c0 0-16-1-15-15 0-7-11 3-14-2s-1-10-1-11-9 0-10-8z"/><path class="cls-15" d="M33 467s13 1 20-2 6-1 6-1a3 3 0 0 0-2 1l-25 4c-4 0 1-2 1-2z"/><path class="cls-16" d="M47 465a23 23 0 0 1 8-8c6-3 8 1 8 2s0 1 7 0 2 1 0 3 1 2-4 5-12 5-15 3-7-3-4-5z"/><path class="cls-17" d="M51 462a16 16 0 0 1 6-4c4-1 5 1 6 1l5 1c5 0 1 1-1 2s1 1-3 2-9 2-11 1-5-2-2-3z"/><path class="cls-41" d="M0 564h48v13H0zM90 564h48v13H90zM181 564h48v13h-48zM271 564h48v13h-48zM361 564h48v13h-48zM451 564h48v13h-48zM589 564h-47v13h47"/><path class="cls-42" d="M46 99c-1 4-2 5-4 5s-1-3 1-7l7-15-4 17zM26 151l-4 5v-7l8-15-4 17zM188 96c-1 4-2 6-4 5s-1-3 1-6l7-15s-1 10-4 16zM168 148c-1 4-2 6-4 5s-1-3 1-6l7-15-4 16zM148 200c-2 4-3 6-4 5s-1-3 0-6l8-15-4 16zM128 252c-2 4-3 6-4 5s-1-3 0-7c2-6 8-15 8-15l-4 17zM140 109l-4 5v-7l7-15-3 17zM119 161c-1 4-2 5-4 5s-1-3 1-7l7-15s-1 11-4 17zM99 212c-1 4-2 6-4 6s-1-3 1-7l7-15-4 16zM79 264c-2 4-3 6-4 5s-1-3 0-6l8-15-4 16zM59 316c-2 4-3 6-4 5s-1-3 0-6c2-6 8-15 8-15l-4 16zM38 368c-1 4-2 6-4 5s0-3 1-7l7-14s-1 10-4 16zM109 58c-1 4-2 5-4 5s-1-3 1-7l7-15-4 17zM89 109c-1 4-3 6-4 5s-1-3 0-6l8-15-4 16zM69 161c-2 4-3 6-4 5s-1-3 0-6c2-6 8-15 8-15l-4 16zM49 213c-2 4-3 6-4 5s-1-3 0-7l7-14-3 16zM28 265c-1 4-2 6-4 5s-1-3 1-7l7-15s-1 11-4 17zM8 317c-1 4-2 5-4 5s-1-3 1-7l7-15-4 17zM243 72c-1 4-2 6-4 5s-1-3 1-6l7-15s-1 10-4 16zM223 124c-1 4-2 6-4 5s-1-3 1-7l7-15-4 17zM203 176l-4 5v-7c2-6 8-15 8-15l-4 17zM183 228l-4 5v-7c2-6 8-15 8-15l-4 17zM162 279c-1 4-2 6-4 6s-1-3 1-7l7-15s-1 10-4 16zM142 331c-1 4-2 6-4 5s-1-3 1-6l7-15-4 16zM122 383c-1 4-3 6-4 5s-1-3 0-6l8-15-4 16zM102 435c-2 4-3 6-4 5s-1-3 0-7c2-6 8-14 8-14l-4 16zM289 92c-1 4-2 5-4 5s0-3 1-7l7-15s-1 11-4 17zM269 144c-1 4-2 5-4 5s-1-3 1-7l7-15-4 17zM249 195c-1 4-3 6-4 5s-1-2 0-6l8-15-4 16zM229 247c-2 4-3 6-4 5s-1-3 0-6c2-6 8-15 8-15l-4 16zM209 299c-2 4-3 6-4 5s-1-3 0-6c2-6 8-15 8-15l-4 16zM188 351c-1 4-2 6-4 5s-1-3 1-7l7-15s-1 11-4 17zM168 403c-1 4-2 5-4 5s-1-3 1-7l7-15-4 17zM148 455l-4 5v-7l8-15-4 17zM352 87c-1 4-2 6-4 5s-1-3 1-6l7-15s-1 10-4 16zM332 139c-1 4-2 6-4 5s-1-3 1-7l7-14-4 16zM312 191c-1 4-3 5-4 5s-1-3 0-7l8-15-4 17zM292 243l-4 5v-7c2-6 8-15 8-15l-4 17zM272 295l-4 5v-7l7-15-3 17zM251 346c-1 4-2 6-4 5s-1-3 1-6l7-15-4 16zM231 398c-1 4-2 6-4 5s-1-3 0-6l8-15-4 16zM211 450c-2 4-3 6-4 5s-1-3 0-6c2-6 8-15 8-15l-4 16zM395 116c-1 4-2 6-4 5s-1-3 1-6l7-15-4 16zM375 168c-1 4-3 6-4 5s-1-3 0-6l8-15-4 16zM355 220c-2 4-3 6-4 5s-1-3 0-7l8-14-4 16zM335 272l-4 5v-7l7-15-3 17zM314 324c-1 4-2 5-4 5s-1-3 1-7l7-15s-1 11-4 17zM294 375c-1 4-2 6-4 6s-1-3 0-7l8-15-4 16zM274 427c-2 4-3 6-4 5s-1-3 0-6c2-6 8-15 8-15l-4 16zM254 479c-2 4-3 6-4 5s-1-3 0-6c2-6 8-15 8-15l-4 16zM459 90c-2 4-3 6-4 5s-1-3 0-6c2-6 8-15 8-15l-4 16zM439 142c-2 4-3 6-4 5s-1-3 0-6c2-6 8-15 8-15l-4 16zM418 194c-1 4-2 6-4 5s-1-3 1-7l7-14s-1 10-4 16zM398 246c-1 4-2 6-4 5s-1-3 1-7l7-15-4 17zM416 286c-2 4-3 6-4 5s-1-3 0-6l27-68-23 69zM382 217c-1 4-2 5-4 5s-1-3 1-7l26-68-23 70zM288 321l-4 5v-7l27-68-23 70zM237 162l-4 5v-7l27-68-23 70zM365 113c-1 4-2 6-4 5s0-3 1-6l26-68-23 69zM107 256l-4 5v-7l27-68-23 70zM90 165c-1 4-2 5-4 5s-1-3 1-7l26-68-23 70zM21 225l-4 5v-7l27-68-23 70zM532 296c-1 4-2 6-4 5s-1-3 1-6l26-68-23 69zM459 408c-1 4-2 6-4 5s-1-3 0-6l27-68-23 69zM378 298l-4 5v-7l8-15-4 17zM358 350l-4 5v-7c2-6 8-15 8-15l-4 17zM337 401c-1 4-2 6-4 5s0-3 1-6l7-15s-1 10-4 16zM317 453c-1 4-2 6-4 5s-1-3 1-6l7-15-4 16zM509 115c-1 4-2 5-4 5s-1-3 1-7l7-15s-1 11-4 17zM489 167c-1 4-2 5-4 5s-1-3 1-7l7-15-4 17zM469 218l-4 6v-7l8-15-4 16zM449 270c-2 4-3 6-4 5s-1-3 0-6c2-6 8-15 8-15l-4 16zM428 322c-1 4-2 6-4 5s0-3 1-6l7-15s-1 10-4 16zM408 374c-1 4-2 6-4 5s-1-3 1-7l7-15-4 17zM388 426c-1 4-3 5-4 5s-1-3 0-7l8-15-4 17zM368 478l-4 5v-7c2-6 8-15 8-15l-4 17zM594 211c-2 4-3 6-4 5s-1-3 0-7l8-14-4 16zM574 263l-4 5v-7c2-6 8-15 8-15l-4 17zM553 315c-1 4-2 5-4 5s-1-3 1-7l7-15s-1 11-4 17zM533 367c-1 4-2 5-4 5s-1-3 1-7l7-15-4 17zM513 418c-1 4-3 6-4 5s-1-3 0-6l8-15-4 16zM493 470c-2 4-3 6-4 5s-1-3 0-6c2-6 8-15 8-15l-4 16zM586 381c-1 4-2 6-4 5s-1-3 1-6l7-15-4 16zM566 433c-1 4-2 6-4 5s-1-3 0-7l8-14-4 16zM546 485l-4 5v-7c2-6 8-15 8-15l-4 17zM555 159l-4 5v-7l8-15-4 17zM535 211l-4 5v-7c2-6 8-15 8-15l-4 17zM514 262c-1 4-2 6-4 5s0-3 1-6l7-15s-1 10-4 16zM494 314c-1 4-2 6-4 5s-1-3 1-6l7-15-4 16z"/><g class="cls-44"><path class="cls-45" d="M293 29a20 20 0 0 1 12 4l1-2a25 25 0 0 1 28-17 31 31 0 0 1 61 4 26 26 0 1 1 10 52c-6 5-14 9-24 9a34 34 0 0 1-21-8 34 34 0 0 1-51-1h-16a20 20 0 1 1 0-41z"/><path class="cls-46" d="M403 27l-12 1c-1-16-10-29-26-29-15 0-24 11-27 25l-8-1c-12 0-19 9-22 20-3-2-10-4-15-4a20 20 0 0 0-20 15 20 20 0 0 1 32-20 25 25 0 0 1 29-20 31 31 0 0 1 61 4 26 26 0 0 1 34 30 26 26 0 0 0-26-21z"/></g><g class="cls-44"><path class="cls-45" d="M16 90a14 14 0 0 1 8 3l1-2a17 17 0 0 1 18-11 21 21 0 0 1 41 3 18 18 0 1 1 7 35 23 23 0 0 1-16 6 23 23 0 0 1-15-5 23 23 0 0 1-34-1H16a14 14 0 1 1 0-28z"/><path class="cls-46" d="M90 89a41 41 0 0 0-9 1c0-11-6-20-17-20-10 0-16 7-18 17h-6c-8 0-12 6-14 13-2-2-7-3-11-3a14 14 0 0 0-13 10 14 14 0 0 1 22-14 17 17 0 0 1 19-13 21 21 0 0 1 41 3 18 18 0 0 1 23 20 18 18 0 0 0-17-14z"/></g><g class="cls-44"><path class="cls-45" d="M606 118a19 19 0 0 0-6 1l-1-1a25 25 0 0 0-47-4 17 17 0 0 0-26 15v1a11 11 0 0 0 7 20 25 25 0 0 0 38 10 25 25 0 0 0 33-4h2a19 19 0 0 0 0-38z"/><path class="cls-46" d="M526 135a17 17 0 0 1 26-15 25 25 0 0 1 47 4l1 1a19 19 0 0 1 25 15 19 19 0 0 0-25-21l-1-1a25 25 0 0 0-47-4 17 17 0 0 0-26 15v1a11 11 0 0 0-7 13 11 11 0 0 1 7-8z"/></g><path class="cls-47" d="M517 42l19 7-54 77-21-9-36 46 31-59 22 8 39-70zM86 49l12 74 30-15 13 67-6-79-25 3-5-53-19 3z"/><path class="cls-45" d="M590 32a26 26 0 0 0-16 5l-2-3a33 33 0 0 0-37-21 40 40 0 0 0-79 5 35 35 0 1 0-13 67c7 7 18 12 31 12 11 0 21-4 28-10a44 44 0 0 0 67-2h21a27 27 0 0 0 0-53z"/><path class="cls-46" d="M445 29l16 1c1-21 13-38 35-38 20 0 31 15 34 33l12-1c15 0 24 12 27 27 5-4 15-6 21-6a27 27 0 0 1 26 20 27 27 0 0 0-43-27 33 33 0 0 0-38-25 40 40 0 0 0-79 5 34 34 0 0 0-45 39 35 35 0 0 1 34-28z"/><path d="M7 24a28 28 0 0 1 17 5l2-3A35 35 0 0 1 64 1a43 43 0 0 1 86 3 37 37 0 1 1 16 71c-8 8-19 14-33 14-12 1-23-3-31-9a47 47 0 0 1-71 0L9 81a28 28 0 1 1-2-57z" fill="#aeaeaf"/><path class="cls-46" d="M161 15c-4 0-13 1-17 3-2-23-15-40-38-40-21 1-33 17-36 37l-12-1c-17 1-26 14-29 30-5-4-15-7-22-6a28 28 0 0 0-27 22 28 28 0 0 1 45-30A35 35 0 0 1 64 1a43 43 0 0 1 86 3 37 37 0 0 1 49 40 37 37 0 0 0-38-29z"/><path class="cls-45" d="M239 54a27 27 0 0 0-7 1l-3-1a36 36 0 0 0-66-6 25 25 0 0 0-37 21v1a15 15 0 0 0 10 29 36 36 0 0 0 54 13 36 36 0 0 0 47-4h2a27 27 0 1 0 0-54z"/><path class="cls-46" d="M126 78v-1a25 25 0 0 1 37-21 36 36 0 0 1 66 6l3 1a27 27 0 0 1 34 22 27 27 0 0 0-34-30l-3-1a36 36 0 0 0-66-6 25 25 0 0 0-37 21v1a15 15 0 0 0-9 18 15 15 0 0 1 9-10z"/><path class="cls-1" d="M0 0h594v594H0z"/></g></g></g></svg>