<svg xmlns="http://www.w3.org/2000/svg" viewBox="0 0 800 800"><defs><style>.cls-1{fill:none;clip-rule:evenodd}.cls-4{fill:#6f0602}.cls-6{fill:#bd150c}.cls-8{fill:#783407}.cls-9{fill:#e0ad74}.cls-11{fill:#760700}.cls-143{fill:#fb0e32}.cls-181{fill:#98091d}.cls-181,.cls-183,.cls-187,.cls-189,.cls-192,.cls-390,.cls-396{fill-rule:evenodd}.cls-183{fill:#ff6082}.cls-187{fill:#ef1935}.cls-189{fill:#7eab16}.cls-192{fill:#677c1c}.cls-196{fill:#680000}.cls-342{fill:#fb1052}.cls-390{fill:#f4f0d3}.cls-396{fill:#c36326}</style><clipPath id="clip-path"><path class="cls-1" d="M664 487c46-100 18-157-5-182-29-32-73-79-162-73-129 9-213 62-181 217a180 180 0 0 0 181 148c49-2 121-9 167-110z"/></clipPath><radialGradient id="radial-gradient" cx="3016" cy="1511" r="364" gradientTransform="matrix(1.04 .28 -.26 .97 -2235 -2049)" gradientUnits="userSpaceOnUse"><stop offset="0" stop-color="#fb0e32"/><stop offset="1" stop-color="#760700"/></radialGradient><linearGradient id="linear-gradient" x1="-4924" y1="989" x2="-4924" y2="778" gradientTransform="scale(-1 1) rotate(-12 -5988 -20255)" gradientUnits="userSpaceOnUse"><stop offset="0" stop-color="#394911"/><stop offset="0" stop-color="#445611"/><stop offset="0" stop-color="#5e7413"/><stop offset="0" stop-color="#748d13"/><stop offset="0" stop-color="#85a114"/><stop offset="0" stop-color="#91af15"/><stop offset="0" stop-color="#98b715"/><stop offset="1" stop-color="#9ab915"/><stop offset="1" stop-color="#2f3c13"/></linearGradient><clipPath id="clip-path-2"><path class="cls-1" d="M257 632c93-16 120-62 127-91 9-36 22-89-26-150-67-87-145-122-240-25-69 70-50 156-19 199 25 35 64 82 158 67z"/></clipPath><linearGradient id="linear-gradient-2" x1="-7747" y1="1303" x2="-7747" y2="1122" gradientTransform="matrix(-.37 -.93 -.61 .24 -1763 -7103)" gradientUnits="userSpaceOnUse"><stop offset="0" stop-color="#2e2e0b"/><stop offset="0" stop-color="#4c480d"/><stop offset="0" stop-color="#6a630f"/><stop offset="0" stop-color="#837911"/><stop offset="0" stop-color="#978a12"/><stop offset="0" stop-color="#a59613"/><stop offset="0" stop-color="#ad9d14"/><stop offset="1" stop-color="#af9f14"/><stop offset="1" stop-color="#1e1f0a"/></linearGradient></defs><g id="foreground"><path d="M219 600c-31 12-58 16-95 14-30 0-60 6-88 15 0 0 9-23 26-28s46-12 66-9 55-31 55-31c59 33 89 8 128-44 14-19 19-36 46-31 21 4 22 28 38 39 13 10 47 22 64 27 57 17 115-10 173-8 59 2 61 38 72 87-3-13-60-13-71-14-26-3-46-9-69-22-22-13-32-17-58-19-46-5-88-18-132-21-50-2-86 13-129 34-9 5-18 8-26 11z" fill="#3c4e12"/><path d="M495 378s13-47 3-88c-16-66-141-217-282-104-75 60-68 114-75 139l3 23s-4 145 112 155c95 8 219-23 239-125z" fill="#940001"/><path class="cls-4" d="M311 342s-55 25-67 43c0 0-28-1-36-3-43-12-51-24-62-71 0 0-12 46 6 99s266 4 159-68z"/><path d="M365 159a184 184 0 0 0-28-3c-15-1-47-21-142 54-4 3 67-46 109-23s6 52 57 69c23 8 97 23 120 50s2-117-116-147z" fill="#de413a"/><path class="cls-4" d="M293 209s-34-8-44 14-31 7-31 7l-40-7s28 29 35 42-25 3-19 52l38-37 38 15-2-26s29-19 86-1c0 0-64-32-91-18 0 0-7-31 30-41z"/><path class="cls-6" d="M247 312s-36 6-46 18 19 44 40 27 31-38 6-45zM308 275s-39-6-28 20 180 4 28-20z"/><path class="cls-4" d="M219 274s-38-17-70 9l12-31s28-7 47 4 11 18 11 18z"/><path d="M245 254c-29-27-69-46-110-49-9-1-13 16-3 18 40 11 76 18 109 39 5 4 9-3 4-8z" fill="#c68746"/><path class="cls-8" d="M243 252c9 35-23-10-33-16-12-7-20-10-33-10-7 0-25 7-18 7 62 3 63 38 86 40 11 1 9-19-2-21z"/><path class="cls-8" d="M152 235c71 6-11-10-9-13 3-3-3-16-8-17-7-3-13 6-18 11-4 4-2 10 3 13 2 2 9 8 13 8 0 0 7-3 19-2z"/><path class="cls-9" d="M151 211s7 8 13 7 32 3 32 3-34-14-45-10zM218 234l21 23 4-5-25-18z"/><g clip-path="url(#clip-path)"><path class="cls-11" d="M284 226h426v373H284z"/><path class="cls-11" d="M722 326v163h40a340 340 0 0 1-54 36c-78 42-174 55-269 29s-172-84-219-158h52V214h450z"/><path d="M722 325v163h39a340 340 0 0 1-54 36c-78 41-173 54-268 29s-171-84-218-158h51V214h450z" fill="#770700"/><path d="M722 325v162h38a334 334 0 0 1-54 36c-77 41-172 54-266 29s-171-83-218-157h50V214h450z" fill="#780701"/><path d="M722 324v116h83a328 328 0 0 1-100 82c-76 41-171 53-265 29s-170-83-216-157h48V214h450z" fill="#790701"/><path d="M722 324v116h82a327 327 0 0 1-99 81c-77 40-171 53-265 28s-169-82-215-156h47V214h450z" fill="#7a0702"/><path d="M722 324v115h81a325 325 0 0 1-99 80c-76 41-170 54-263 29s-169-82-215-155h46V214h450z" fill="#7b0702"/><path d="M722 323v115h80a325 325 0 0 1-99 80c-76 41-169 53-262 29s-168-82-214-155h45V214h450z" fill="#7c0702"/><path d="M722 323v114h78a322 322 0 0 1-98 80c-75 40-168 53-261 28s-167-81-212-154h43V214h450z" fill="#7d0703"/><path d="M722 322v114h77a320 320 0 0 1-97 80c-76 40-168 52-260 28s-167-81-212-153h42V214h450z" fill="#7e0703"/><path d="M722 322v113h76a318 318 0 0 1-97 79c-75 40-167 53-259 29s-166-81-211-153h41V214h450z" fill="#7f0703"/><path d="M722 322v112h75a317 317 0 0 1-97 79c-75 40-166 52-258 28s-165-80-210-152h40V214h450z" fill="#800804"/><path d="M722 321v113h74a316 316 0 0 1-97 78c-74 40-165 52-256 28s-164-80-209-152h38V214h450z" fill="#810804"/><path d="M722 321v112h73a315 315 0 0 1-96 78c-74 39-165 52-256 28s-163-80-208-151h37V214h450z" fill="#820805"/><path d="M722 321v111h71a314 314 0 0 1-95 78c-74 39-164 51-255 27s-162-79-207-150h36V214h450z" fill="#830805"/><path d="M722 320v111h70a313 313 0 0 1-95 77c-73 39-163 52-253 28s-162-79-207-150h35V214h450z" fill="#840805"/><path d="M722 320v110h69a311 311 0 0 1-95 77c-73 39-163 51-252 28s-161-79-205-149h33V214h450z" fill="#850806"/><path d="M722 319v110h68a310 310 0 0 1-94 77c-73 39-163 51-252 27s-160-78-204-148h32V214h450z" fill="#860806"/><path d="M722 319v109h67a309 309 0 0 1-94 77c-73 38-162 50-250 27s-160-78-204-148h31V214h450z" fill="#870806"/><path d="M722 319v108h65a307 307 0 0 1-93 77c-72 38-161 50-249 27s-159-78-203-147h30V214h450z" fill="#880807"/><path d="M722 318v109h64a305 305 0 0 1-93 75 346 346 0 0 1-450-119h29V214h450z" fill="#890807"/><path d="M722 318v108h63a304 304 0 0 1-93 75c-71 38-159 50-246 27s-158-77-201-146h27V214h450z" fill="#8a0808"/><path d="M722 318v107h62a303 303 0 0 1-92 75c-71 38-159 50-246 27s-157-77-200-145h26V214h450z" fill="#8b0808"/><path d="M722 317v107h61a302 302 0 0 1-92 75c-71 37-158 49-244 26s-157-76-199-144h24V214h450z" fill="#8c0808"/><path d="M722 317v106h60a300 300 0 0 1-92 75c-70 37-157 49-243 26s-156-76-198-144h23V214h450z" fill="#8d0809"/><path d="M722 316v106h58a299 299 0 0 1-91 74c-70 38-156 49-242 27s-155-76-197-143h22V214h450z" fill="#8e0809"/><path d="M722 316v105h57a298 298 0 0 1-90 74c-70 37-156 49-241 26s-155-75-197-142h21V214h450z" fill="#8f0809"/><path d="M722 316v105h56a296 296 0 0 1-90 73c-70 37-155 49-240 26s-154-75-195-142h19V214h450z" fill="#90080a"/><path d="M722 315v105h55a295 295 0 0 1-90 73c-69 37-154 48-239 26s-152-75-194-141h18V214h450z" fill="#91080a"/><path d="M722 315v104h54a292 292 0 0 1-90 73c-68 36-153 48-237 25s-152-74-194-140h17V214h450z" fill="#92080b"/><path d="M722 315v103h52a293 293 0 0 1-88 72c-69 37-153 48-237 26s-151-74-193-140h16V214h450z" fill="#93090b"/><path d="M722 314v103h51a292 292 0 0 1-88 72c-68 36-152 48-236 26s-150-74-191-139h14V214h450z" fill="#94090b"/><path d="M722 314v102h50a290 290 0 0 1-88 72c-68 36-151 47-234 25s-150-73-191-138h13V214h450z" fill="#95090c"/><path d="M722 313v102h49a288 288 0 0 1-88 72c-67 36-150 47-233 25s-149-73-190-138h12V214h450z" fill="#96090c"/><path d="M722 313v101h48a286 286 0 0 1-87 71c-68 36-150 47-233 26s-148-73-189-137h11V214h450z" fill="#97090d"/><path d="M722 313v101h47a285 285 0 0 1-87 70c-67 36-149 47-231 25s-148-72-188-136h9V214h450z" fill="#98090d"/><path d="M722 312v101h45a282 282 0 0 1-86 70c-66 35-148 47-230 25-163-43-262-201-222-352l43 58h450z" fill="#99090d"/><path d="M722 312v100h44a282 282 0 0 1-86 70c-66 35-147 46-228 25-163-43-262-200-222-351l42 58h450z" fill="#9a090e"/><path d="M722 311v100h43a281 281 0 0 1-85 70c-66 35-147 46-228 24-161-42-260-199-220-349l40 58h450z" fill="#9b090e"/><path d="M722 311v99h42a280 280 0 0 1-85 69c-66 35-146 46-227 25-160-43-258-198-219-347l39 57h450z" fill="#9c090e"/><path d="M722 311v98h41a279 279 0 0 1-85 69c-65 35-146 46-225 25-160-43-258-197-218-346l37 57h450z" fill="#9d090f"/><path d="M722 310v98h39a277 277 0 0 1-84 69c-65 35-145 45-224 24-159-42-256-196-217-343l36 56h450z" fill="#9e090f"/><path d="M722 310v98h38a275 275 0 0 1-84 68c-64 34-144 45-223 24-158-42-254-195-216-342l35 56h450z" fill="#9f0910"/><path d="M722 310v97h37a274 274 0 0 1-83 68c-65 34-144 45-222 24-158-42-254-194-215-341l33 56h450z" fill="#a00910"/><path d="M722 309v97h36a273 273 0 0 1-83 67c-64 34-143 45-221 24-157-41-252-193-214-338l32 55h450z" fill="#a10910"/><path d="M722 309v96h35a271 271 0 0 1-83 67c-63 34-142 45-220 24-155-41-251-192-212-337l30 55h450z" fill="#a20911"/><path d="M805 308c-39 144-195 228-350 187S205 303 243 159l29 55h450v94z" fill="#a30911"/><path d="M803 308c-38 143-194 226-348 185S207 303 245 160l27 54h450v94z" fill="#a40911"/><path d="M802 308c-38 142-193 225-347 184S208 303 246 160l26 54h450v94z" fill="#a50912"/><path d="M800 307c-37 142-192 224-344 184S210 302 248 161l24 53h450v93z" fill="#a60a12"/><path d="M799 307c-38 141-191 223-343 182S212 302 249 161l23 53h450v93z" fill="#a70a13"/><path d="M797 307c-37 140-189 221-341 181S213 302 250 161l22 53h450v93z" fill="#a80a13"/><path d="M796 306c-37 140-189 221-339 181S215 301 252 162l20 52h450v92z" fill="#a90a13"/><path d="M795 306c-37 139-188 219-338 179S216 301 253 162l19 52h450v92z" fill="#aa0a14"/><path d="M793 305c-37 139-187 218-335 179S218 301 255 162l17 52h450v91z" fill="#ab0a14"/><path d="M792 305c-37 137-186 217-334 178S220 300 256 163l16 51h450v91z" fill="#ac0a14"/><path d="M790 305c-36 136-185 215-332 176S221 300 258 163l14 51h450v91z" fill="#ad0a15"/><path d="M789 304c-36 136-184 215-330 176S223 300 259 164l13 50h450v90z" fill="#ae0a15"/><path d="M787 304c-35 135-183 213-328 175S225 299 260 164l12 50h450v90z" fill="#af0a16"/><path d="M786 303c-36 135-182 213-327 174S226 299 262 164l10 50h450v89z" fill="#b00a16"/><path d="M785 303c-36 134-181 211-325 173S228 299 263 165l9 49h450v89z" fill="#b10a16"/><path d="M783 303c-35 133-180 210-323 172S229 298 265 165l7 49h450v89z" fill="#b20a17"/><path d="M782 302c-35 133-179 209-322 171S231 298 266 166l6 48h450v88z" fill="#b30a17"/><path d="M780 302c-35 131-178 208-319 170S233 297 268 166l4 48h450v88z" fill="#b40a17"/><path d="M779 302c-35 130-177 206-318 169S234 297 269 166l3 48h450v88z" fill="#b50a18"/><path d="M777 301c-34 130-176 206-316 168S236 297 270 167l2 47h450v87z" fill="#b60a18"/><path d="M776 301c-34 129-175 204-314 167S238 296 272 167v47h450v87z" fill="#b70a19"/><path d="M775 300c-35 129-174 204-313 167S239 296 273 167v47h449v86z" fill="#b90b19"/><path d="M773 300c-34 128-173 202-311 165S241 296 275 168v46h447v86z" fill="#ba0b19"/><path d="M772 300c-34 127-172 200-309 164S242 295 276 168v46h446v86z" fill="#bb0b1a"/><path d="M770 299c-33 127-171 200-307 164S244 295 278 169v45h444v85z" fill="#bc0b1a"/><path d="M769 299c-34 126-170 198-306 162S246 295 279 169v45h443v85z" fill="#bd0b1b"/><path d="M767 299c-33 124-169 197-303 161S247 294 280 169v45h442v85z" fill="#be0b1b"/><path d="M766 298c-33 124-168 196-302 161S249 294 282 170v44h440v84z" fill="#bf0b1b"/><path d="M765 298c-33 123-167 195-300 159S251 294 283 170v44h439v84z" fill="#c00b1c"/><path d="M763 297c-32 123-166 194-298 159S252 293 285 170v44h437v83z" fill="#c10b1c"/><path d="M762 297c-33 122-165 193-297 158S254 293 286 171v43h436v83z" fill="#c20b1c"/><path d="M760 297c-32 121-164 191-294 156S255 292 288 171v43h434v83z" fill="#c30b1d"/><path d="M759 296c-32 121-163 191-293 156S257 292 289 172v42h433v82z" fill="#c40b1d"/><path d="M757 296c-31 120-162 189-291 155S259 292 290 172v42h432v82z" fill="#c50b1e"/><path d="M756 296c-32 119-161 188-289 153S260 291 292 172v42h430v82z" fill="#c60b1e"/><path d="M755 295c-32 118-161 187-288 153S262 291 293 173v41h429v81z" fill="#c70b1e"/><path d="M753 295c-31 117-159 185-286 152S264 291 295 173v41h427v81z" fill="#c80b1f"/><path d="M752 294c-31 117-158 185-284 151S265 290 296 173v41h426v80z" fill="#c90b1f"/><path d="M750 294c-31 116-157 183-282 150S267 290 298 174v40h424v80z" fill="#ca0b1f"/><path d="M749 294c-31 115-156 182-281 149S268 290 299 174v40h423v80z" fill="#cb0b20"/><path d="M747 293c-30 115-155 181-278 149S270 289 300 175v39h422v79z" fill="#cc0c20"/><path d="M746 293c-30 114-154 180-277 147S272 289 302 175v39h420v79z" fill="#cd0c21"/><path d="M744 292c-30 114-153 179-274 147S273 289 303 175v39h415v-84c30 48 42 106 26 162z" fill="#ce0c21"/><path d="M743 292c-30 113-152 178-273 146S275 288 305 176v38h412v-83c30 47 41 105 26 161z" fill="#cf0c21"/><path d="M742 292c-30 111-152 176-272 144S277 288 306 176v38h410v-82c29 47 40 104 26 160z" fill="#d00c22"/><path d="M740 291c-29 111-150 176-269 144S278 288 308 177v37h407v-82c29 47 40 104 25 159z" fill="#d10c22"/><path d="M739 291c-30 110-149 174-268 143S280 287 309 177v37h404v-81c30 47 40 103 26 158z" fill="#d20c22"/><path d="M737 291c-29 109-148 172-266 141S281 287 310 177v37h402v-80c29 46 40 102 25 157z" fill="#d30c23"/><path d="M736 290c-29 109-147 172-264 141S283 286 312 178v36h399v-80c29 46 39 102 25 156z" fill="#d40c23"/><path d="M734 290c-28 108-146 170-262 140S285 286 313 178v36h396v-79c29 46 40 101 25 155z" fill="#d50c24"/><path d="M733 289c-28 108-145 170-261 139S286 286 315 178v36h393v-78c29 45 39 100 25 153z" fill="#d60c24"/><path d="M732 289c-29 107-145 168-259 138S288 285 316 179v35h391v-78c28 45 39 100 25 153z" fill="#d70c24"/><path d="M730 289c-28 105-143 167-257 137S290 285 318 179v35h388v-77c28 45 38 99 24 152z" fill="#d80c25"/><path d="M729 288c-28 105-142 166-256 136S291 285 319 180v34h385v-76c28 44 39 98 25 150z" fill="#d90c25"/><path d="M727 288c-27 104-141 165-253 135S293 284 321 180v34h382v-76c28 44 38 98 24 150z" fill="#da0c26"/><path d="M726 288c-28 103-140 163-252 134S294 284 322 180v34h380v-75c27 44 38 97 24 149z" fill="#db0c26"/><path d="M724 287c-27 103-139 163-250 133S296 284 323 181v33h378v-74c27 43 37 96 23 147z" fill="#dc0c26"/><path d="M723 287c-27 102-138 161-248 132S298 283 325 181v33h374v-73c28 43 38 95 24 146z" fill="#dd0c27"/><path d="M722 286c-27 102-138 161-247 132S299 283 326 181v33h372v-73c27 43 37 95 24 145z" fill="#de0c27"/><path d="M720 286c-27 101-136 159-244 130S301 283 328 182v32h369v-72c27 42 37 94 23 144z" fill="#df0d27"/><path d="M719 286c-27 100-136 157-243 129S303 282 329 182v32h367v-71c26 42 36 93 23 143z" fill="#e00d28"/><path d="M717 285c-26 99-134 157-241 129S304 282 330 183v31h364v-71c27 42 36 93 23 142z" fill="#e10d28"/><path d="M716 285c-26 98-133 155-239 127S306 281 332 183v31h361v-70c26 41 36 92 23 141z" fill="#e20d29"/><path d="M714 284c-26 98-132 155-237 127S307 281 333 183v31h359v-69c26 41 35 91 22 139z" fill="#e30d29"/><path d="M713 284c-26 97-131 153-236 126S309 281 335 184v30h356v-69c25 41 35 91 22 139z" fill="#e40d29"/><path d="M712 284c-26 96-131 152-234 124S311 280 336 184v30h353v-68c26 40 35 90 23 138z" fill="#e50d2a"/><path d="M710 283c-25 96-129 151-232 124S312 280 338 185v29h350v-67c25 40 35 89 22 136z" fill="#e60d2a"/><path d="M709 283c-25 95-129 150-231 123S314 280 339 185v29h348v-67c25 40 34 89 22 136z" fill="#e70d2a"/><path d="M707 283c-25 94-127 148-228 121S316 279 341 185v29h345v-66c24 40 34 88 21 135z" fill="#e80d2b"/><path d="M706 282c-25 94-126 148-227 121S317 279 342 186v28h342v-65c25 39 34 87 22 133z" fill="#e90d2b"/><path d="M704 282c-24 92-125 146-225 120S319 279 343 186v28h340v-65c25 39 34 87 21 133z" fill="#ea0d2c"/><path d="M703 281c-24 92-124 146-223 119S320 278 345 186v28h337v-64c24 39 33 85 21 131z" fill="#eb0d2c"/><path d="M702 281c-25 91-124 144-222 118S322 278 346 187v27h334v-63c25 38 34 84 22 130z" fill="#ec0d2c"/><path d="M700 281c-24 90-122 142-220 117S324 278 348 187v27h331v-63c24 38 33 84 21 130z" fill="#ed0d2d"/><path d="M699 280c-24 90-122 142-218 116S325 277 349 188v26h329v-62c24 38 33 83 21 128z" fill="#ee0d2d"/><path d="M697 280c-23 89-120 140-216 115S327 277 351 188v26h326v-61c23 37 32 82 20 127z" fill="#ef0d2d"/><path d="M696 280c-24 88-120 139-215 114S329 277 352 188v26h323v-61c24 37 33 82 21 127z" fill="#f00d2e"/><path d="M694 279c-23 88-118 138-212 113S330 276 353 189v25h321v-60c23 37 32 81 20 125z" fill="#f10d2e"/><path d="M693 279c-23 87-117 137-211 112S332 276 355 189v25h318v-59c23 36 31 80 20 124z" fill="#f20e2f"/><path d="M692 278c-23 86-117 136-209 112S333 275 356 189v25h316v-59c23 36 31 80 20 123z" fill="#f30e2f"/><path d="M690 278c-23 85-115 135-207 110S335 275 358 190v24h312v-58c23 36 31 79 20 122z" fill="#f40e2f"/><path d="M689 278c-23 84-115 133-206 109S337 275 359 190v24h310v-57c23 35 31 78 20 121z" fill="#f50e30"/><path d="M687 277c-22 84-113 133-203 109S338 274 361 191v23h307v-57c22 36 30 78 19 120z" fill="#f60e30"/><path d="M686 277c-22 83-113 131-202 107S340 274 362 191v23h305v-56c22 35 30 77 19 119z" fill="#f70e30"/><path d="M684 277c-21 82-111 130-200 106S342 274 363 191v23h302v-55c22 34 30 76 19 118z" fill="#f80e31"/><path d="M683 276c-22 82-110 129-198 106S343 273 365 192v22h299v-55c22 35 30 76 19 117z" fill="#f90e31"/><path d="M682 276c-22 81-110 127-197 104S345 273 366 192v22h297v-54c21 34 29 75 19 116z" fill="#fa0e32"/><path class="cls-143" d="M680 275c-21 81-108 127-195 104S346 273 368 193v21h294v-53c21 33 29 74 18 114z"/><path class="cls-143" d="M679 275c-21 79-108 125-193 103S348 272 369 193v21h291v-53c21 34 29 74 19 114z"/><path d="M675 274c-21 77-105 122-188 100S353 271 373 194v20h284v-51c20 33 28 72 18 111z" fill="#fb0f33"/><path d="M671 273c-20 75-102 119-183 97S357 270 377 195v19h276v-49c20 32 27 70 18 108z" fill="#fb1034"/><path d="M666 272c-19 73-99 115-177 94s-127-97-108-170v18h269v-47c19 31 26 68 16 105z" fill="#fb1135"/><path d="M662 271c-19 71-96 112-172 92s-123-95-105-166v17h261v-45c19 30 26 66 16 102z" fill="#fb1236"/><path d="M658 270c-18 69-93 108-167 89s-120-92-101-161v16h252v-43c19 29 25 64 16 99z" fill="#fc1337"/><path d="M654 268c-18 67-90 106-162 87s-116-89-98-156v15h245v-41c18 28 24 62 15 95z" fill="#fc1438"/><path d="M650 267c-17 65-88 103-157 84s-113-86-95-151v14h237v-39c17 27 24 60 15 92z" fill="#fc1539"/><path d="M646 266c-17 63-85 99-152 81s-109-83-92-145v12h230v-37c16 26 22 58 14 89z" fill="#fc163a"/><path d="M642 265c-16 61-82 96-147 79s-105-81-89-141v11h222v-35c16 25 22 56 14 86z" fill="#fc173b"/><path d="M638 264c-16 59-79 93-142 76s-102-78-86-136v10h214v-34c16 25 22 55 14 84z" fill="#fc183c"/><path d="M634 263c-15 57-77 89-137 73s-98-75-83-131v9h137v-82c61 16 98 75 83 131z" fill="#fc193d"/><path d="M630 262c-15 54-74 86-132 70s-94-72-80-126v8h132v-78c58 15 94 72 80 126z" fill="#fc1a3e"/><path d="M626 261c-14 52-71 82-127 68s-91-70-77-122v7h127v-75c56 15 91 70 77 122z" fill="#fc1b3f"/><path d="M622 260c-14 50-68 79-122 65s-87-67-74-117v6h122v-71c54 14 87 67 74 117z" fill="#fd1c40"/><path d="M618 259c-13 48-65 76-117 62s-84-64-71-112v5h117v-67c52 14 83 64 71 112z" fill="#fd1d41"/><path d="M614 258c-13 46-63 72-112 59s-80-61-68-107v4h112v-63c49 13 80 61 68 107z" fill="#fd1e42"/><path d="M609 257c-11 43-59 69-106 56s-76-58-65-102v3h107v-60c47 13 76 59 64 103z" fill="#fd1f43"/><path d="M605 256c-11 41-56 66-101 54s-73-56-62-98v2h102v-56c45 12 72 56 61 98z" fill="#fd2044"/><path d="M601 254c-10 40-53 63-96 52s-69-53-58-93v1h96v-52c43 11 69 53 58 92z" fill="#fd2146"/><path d="M597 253c-10 38-51 60-91 49s-65-50-55-88 50-59 91-48 65 50 55 87z" fill="#fd2247"/><path d="M593 252c-9 36-48 56-86 46s-62-47-52-82 48-57 86-46 62 47 52 82z" fill="#fd2348"/><path d="M589 251c-9 34-45 53-81 43s-58-44-49-77 45-53 81-44 58 45 49 78z" fill="#fd2449"/><path d="M585 250c-8 31-42 50-76 41s-54-42-46-73 42-50 76-41 54 42 46 73z" fill="#fd254a"/><path d="M581 249c-8 29-40 46-71 38s-51-39-43-68 39-46 71-38 51 39 43 68z" fill="#fe264b"/><path d="M577 248c-7 27-37 43-66 35s-47-36-40-63 37-43 66-35 47 36 40 63z" fill="#fe274c"/><path d="M573 247c-7 25-34 39-61 32s-44-33-37-58 34-40 61-32 43 33 37 58z" fill="#fe284d"/><path d="M569 246c-6 23-31 36-56 30s-40-31-34-54 31-36 56-30 40 31 34 54z" fill="#fe294e"/><path d="M565 245c-6 21-29 33-51 27s-36-28-31-49 28-33 51-27 36 28 31 49z" fill="#fe2a4f"/><path d="M561 244c-5 18-26 29-46 24s-33-25-28-44 26-29 46-24 33 25 28 44z" fill="#fe2b50"/><path d="M556 243c-4 16-22 26-40 21s-29-22-25-39 23-26 41-21 29 22 24 39z" fill="#fe2c51"/><path d="M552 242c-3 14-19 23-35 18s-25-19-22-34 20-23 36-19 25 20 21 35z" fill="#fe2d52"/><path d="M548 240c-3 13-17 20-30 17s-22-17-19-30 17-19 31-16 22 17 18 29z" fill="#fe2e53"/><path d="M544 239c-3 11-14 17-25 14s-18-14-15-25 14-16 25-13 18 14 15 24z" fill="#ff2f54"/><path d="M540 238c-2 9-11 13-20 11s-15-11-12-19 11-14 20-11 14 11 12 19z" fill="#ff3055"/><path d="M536 237c-2 6-8 10-15 8s-11-8-9-14 8-10 15-8 11 8 9 14z" fill="#ff3156"/><path d="M532 236c-1 4-6 7-10 6s-7-6-6-10 5-7 10-6 7 6 6 10z" fill="#ff3257"/><path d="M528 235a4 4 0 1 1-3-5 4 4 0 0 1 3 5z" fill="#ff3358"/></g><path class="cls-181" d="M441 283s10-6 60-5c42 0 87 24 100 63 0 0-28-30-96-29s-57-18-64-29z"/><path d="M602 482s-60 16-91-12-44-49-55-44-17 146 49 144 122-50 97-88z" fill="url(#radial-gradient)" fill-rule="evenodd"/><path class="cls-183" d="M487 247c-34-22-126 15-39 19 19 1 55-9 39-19z"/><path class="cls-181" d="M518 287s19-25 34-23c29 3 78 12 78 12s-34-44-108-43c0 0-3 9 2 18s-10 21-26 33 21 17 21 17z"/><path class="cls-183" d="M374 287c17-11 53-20 53 0 0 25 10 23 23 34 16 13 18 31 1 32-93 7-19 84-83 29-40-34-23-76 6-95z"/><path d="M416 287s1 11 8 24 8 27-16 30-44 7-44-17 31-53 52-37z" fill="#ff89ad" fill-rule="evenodd"/><path d="M388 547s-63-54-63-126c0 0 33 69 40 79 34 45 59 52 80 66 0 0-37 0-57-19z" fill="#b1141d" fill-rule="evenodd"/><path class="cls-183" d="M579 337s42 27 43 73-32 68-48 41-24-91-64-100 19-38 69-14z"/><path d="M619 328s-28-26-43-34-22-25-4-23c47 6 94 11 47 57z" fill="#ff4a70" fill-rule="evenodd"/><path class="cls-187" d="M517 568s53-28 64-70c0 0 14-14 18-2s-11 61-82 72zM661 335s36-8 7 96c-20 69-25 65-25 65s42-120 11-152c-15-16 7-9 7-9z"/><path d="M481 301s30-55 24-90-28-87-16-105 36-10 43-9-32 37-20 60 8 45 8 45-9 56-11 76-5 19 5 28-32 0-33-5" fill="url(#linear-gradient)" fill-rule="evenodd"/><path class="cls-189" d="M520 245s-10-58 22-114 127-70 161-84 69 212-183 198z"/><path d="M621 142s21 11 38 6 54-24 51-3-45 77-114 81 2-73 25-84z" fill="#759b15" fill-rule="evenodd"/><path d="M520 197a180 180 0 0 1 22-66c32-57 127-70 161-84-6 47-73 87-104 107s-79 91-79 91v-48z" fill="#95c51a" fill-rule="evenodd"/><path class="cls-189" d="M544 210s-24-53 16-93c0 0 4 42 15 48z"/><path class="cls-192" d="M539 214l-1 5c1-5 30-69 52-71s69-36 69-36c-11 11-52 38-52 38-14 4-53 73-39 81s68-9 68-9c103-39 90-136 90-136l1 2c5 61-32 167-207 157 0 0-6-36 7-80l1-1c-5 47 11 50 11 50z"/><path class="cls-192" d="M581 183s76 13 108-20c0 0-74 35-103 3 0 0 18-22 35-24 0 0 39 23 64-4 0 0-42 17-54-6 0 0-40 24-49 24s-25 46-25 46z"/><path d="M681 72s-8 22-34 39-65 32-65 32-18-24-3-39 102-32 102-32z" fill="#afd937" fill-rule="evenodd"/><path class="cls-192" d="M552 196s-16-34 8-79c0 0-17 49 7 68s-15 11-15 11zM678 93s36-37 32-70c0 0 18 57 16 72 0 0-1-26-18-18a188 188 0 0 0-30 16z"/><path d="M520 245s16-15 26-27 29-47 29-47-17 49-27 60 29 12 41 12c0 0-58 4-69 2z" fill="#526118" fill-rule="evenodd"/><g clip-path="url(#clip-path-2)"><path class="cls-196" d="M49 269h356v378H49z"/><path class="cls-196" d="M418 659H250v22c-66-35-121-97-149-177s-22-163 9-232a284 284 0 0 1 64-91v76h244z"/><path d="M418 659H251v21c-66-35-121-97-149-177s-22-162 9-230a284 284 0 0 1 63-91v75h244z" fill="#690001"/><path d="M418 659H251v20c-66-35-120-97-148-176s-22-161 9-230a282 282 0 0 1 63-91v75h243z" fill="#6a0001"/><path d="M418 659H252v19c-66-35-120-96-148-175s-22-161 9-229a281 281 0 0 1 63-91v74h242z" fill="#6b0002"/><path d="M418 659H252v18c-65-35-119-96-147-175s-22-160 9-228a279 279 0 0 1 63-90v73h241z" fill="#6c0002"/><path d="M418 659H253v17c-66-35-120-96-147-174s-21-160 9-227a280 280 0 0 1 62-90v72h241z" fill="#6d0103"/><path d="M418 659H253v16c-65-35-119-95-146-173s-21-159 9-227a278 278 0 0 1 62-89v71h240z" fill="#6e0103"/><path d="M467 693c-144 50-305-36-359-192-26-77-21-158 9-225a277 277 0 0 1 62-89v70h239v402z" fill="#6f0104"/><path d="M467 692c-144 49-304-36-358-191-26-78-21-158 8-225a276 276 0 0 1 63-88v69h238v402z" fill="#700104"/><path d="M466 691c-143 49-302-36-356-190-26-78-21-157 8-224a275 275 0 0 1 62-89v69h238v402z" fill="#710105"/><path d="M466 690c-143 49-302-36-355-190-26-77-21-156 8-223a274 274 0 0 1 62-88v68h237v402z" fill="#720106"/><path d="M466 689c-143 49-301-36-354-189-26-77-21-156 8-222a273 273 0 0 1 62-88v67h236v402z" fill="#730106"/><path d="M465 688c-142 48-299-36-352-188-26-77-21-156 8-222a272 272 0 0 1 62-87v66h235v402z" fill="#740107"/><path d="M465 686c-141 49-298-35-351-187-26-76-21-154 8-220a270 270 0 0 1 61-87v65h235v402z" fill="#750107"/><path d="M464 685c-140 49-296-35-349-186-26-76-21-154 8-220a269 269 0 0 1 61-86v64h234v402z" fill="#760208"/><path d="M464 684c-140 48-296-35-347-185-26-76-21-154 7-219a268 268 0 0 1 61-86v63h233v402z" fill="#770208"/><path d="M464 683c-140 48-295-35-346-185-26-75-21-153 7-218a267 267 0 0 1 61-85v62h232v402z" fill="#780209"/><path d="M463 682c-139 48-293-35-344-184-26-75-21-152 7-217a267 267 0 0 1 60-86v62h232v402z" fill="#79020a"/><path d="M463 681c-138 48-292-35-343-183-26-75-21-152 7-216a266 266 0 0 1 60-86v61h231v402z" fill="#7a020a"/><path d="M463 680c-138 47-291-34-342-183-26-74-21-151 7-215a265 265 0 0 1 60-85v60h230v402z" fill="#7b020b"/><path d="M462 679c-137 47-290-34-340-182-26-74-21-151 7-214a263 263 0 0 1 60-85v59h229v402z" fill="#7c020b"/><path d="M462 678c-137 47-289-34-339-182-26-73-21-149 7-213a261 261 0 0 1 59-84v58h229v402z" fill="#7d020c"/><path d="M461 677c-136 47-287-34-337-181-26-73-21-149 7-212a260 260 0 0 1 59-84v57h228v402z" fill="#7e020c"/><path d="M461 676c-135 46-286-34-336-180-26-73-21-149 7-212a260 260 0 0 1 59-83v56h227v402z" fill="#7f030d"/><path d="M461 675c-135 46-285-34-335-180-25-72-21-147 7-210a259 259 0 0 1 58-84v56h227v402z" fill="#80030d"/><path d="M460 673c-134 47-284-33-333-178-25-72-21-147 7-210a258 258 0 0 1 58-83v55h226v402z" fill="#81030e"/><path d="M460 672c-134 46-283-33-332-177-25-72-21-147 7-209a257 257 0 0 1 58-83v54h225v402z" fill="#82030f"/><path d="M460 671c-134 46-282-33-331-177-25-71-20-146 7-208a256 256 0 0 1 58-82v53h224v402z" fill="#83030f"/><path d="M459 670c-133 46-280-33-329-176-25-71-20-145 7-207a255 255 0 0 1 57-82v52h224v402z" fill="#840310"/><path d="M459 669c-132 46-279-33-328-175-25-72-20-145 7-207a254 254 0 0 1 57-81v51h223v402z" fill="#850310"/><path d="M459 668c-132 45-279-33-327-175-25-71-20-144 7-205a252 252 0 0 1 57-81v50h222v402z" fill="#860311"/><path d="M458 667c-131 45-277-33-325-174-25-71-20-144 7-205a251 251 0 0 1 57-80v49h221v402z" fill="#870311"/><path d="M458 666c-131 45-276-33-324-173-25-71-20-143 7-204a249 249 0 0 1 56-81v49h221v402z" fill="#880412"/><path d="M457 665c-130 45-274-33-322-173-24-70-20-142 7-203a248 248 0 0 1 56-80v48h220v402z" fill="#890413"/><path d="M457 664c-129 44-273-33-321-172-24-70-20-142 7-202a248 248 0 0 1 56-80v47h219v402z" fill="#8a0413"/><path d="M457 663c-129 44-273-33-320-171-24-70-20-142 7-202a247 247 0 0 1 56-79v46h218v402z" fill="#8b0414"/><path d="M456 661c-128 45-271-32-318-170-24-69-20-140 7-200a247 247 0 0 1 55-79v45h218v402z" fill="#8c0414"/><path d="M456 660c-128 44-270-31-317-169-24-69-20-140 7-200a245 245 0 0 1 55-78v44h217v402z" fill="#8d0415"/><path d="M456 659c-128 44-269-31-316-168-24-69-19-140 7-199a244 244 0 0 1 55-78v43h216v402z" fill="#8e0415"/><path d="M455 658c-127 44-267-31-314-168-24-68-19-139 7-198a243 243 0 0 1 55-78v43h215v401z" fill="#8f0416"/><path d="M455 657c-126 44-267-31-313-167-24-68-19-138 7-197a242 242 0 0 1 54-78v42h215v400z" fill="#900416"/><path d="M454 656c-125 43-265-31-311-166-24-68-19-138 7-196a241 241 0 0 1 54-78v41h214v399z" fill="#910417"/><path d="M454 655c-125 43-264-31-310-166-24-67-19-137 7-195a240 240 0 0 1 54-77v40h213v398z" fill="#920518"/><path d="M454 654c-125 43-263-31-309-165-23-67-19-137 7-194a239 239 0 0 1 53-77v39h213v397z" fill="#930518"/><path d="M453 653c-124 42-261-31-307-165-23-66-19-135 7-193a238 238 0 0 1 53-76v38h212v396z" fill="#940519"/><path d="M453 652c-123 42-261-31-306-164-23-66-19-135 7-192a237 237 0 0 1 53-76v37h211v395z" fill="#950519"/><path d="M453 651c-123 42-260-31-305-163-23-66-19-135 7-192a235 235 0 0 1 53-75v36h210v394z" fill="#96051a"/><path d="M452 650c-122 42-258-31-303-163-23-65-19-133 7-190a235 235 0 0 1 52-76v36h210v393z" fill="#97051a"/><path d="M452 648c-122 42-257-30-302-161s17-271 139-313v83h129v391z" fill="#98051b"/><path d="M451 647c-121 42-255-30-300-160s17-270 138-312v82h129v390z" fill="#99051c"/><path d="M451 646c-121 42-255-30-299-160s17-268 137-310v81h129v389z" fill="#9a051c"/><path d="M451 645c-120 42-254-30-298-159s17-267 137-309v80h128v388z" fill="#9b061d"/><path d="M450 644c-119 41-252-30-296-158s17-266 136-308v79h128v387z" fill="#9c061d"/><path d="M450 643c-119 41-251-30-295-158s16-265 135-305v77h128v386z" fill="#9d061e"/><path d="M450 642c-119 41-250-30-294-157s16-264 135-304v76h127v385z" fill="#9e061e"/><path d="M449 641c-118 40-248-29-292-156s16-263 134-303v75h127v384z" fill="#9f061f"/><path d="M449 640c-117 40-248-29-291-156s16-261 134-301v74h126v383z" fill="#a0061f"/><path d="M448 639c-116 40-246-29-289-155s16-260 133-300v73h126v382z" fill="#a10620"/><path d="M448 638c-116 40-245-29-288-154s16-259 132-299v72h126v381z" fill="#a20621"/><path d="M448 637c-116 39-244-29-287-154s16-257 132-297v71h125v380z" fill="#a30621"/><path d="M447 635c-115 40-243-28-285-152s16-256 131-296v70h125v378z" fill="#a40722"/><path d="M447 634c-115 40-242-28-284-151s16-255 130-295v69h125v377z" fill="#a50722"/><path d="M447 633c-114 39-241-28-283-151s16-253 130-293v68h124v376z" fill="#a60723"/><path d="M446 632c-113 39-239-28-281-150s16-253 129-292v67h124v375z" fill="#a70723"/><path d="M446 631c-113 39-238-28-280-149s16-252 129-291v66h123v374z" fill="#a80724"/><path d="M445 630c-112 39-237-28-278-149s16-250 128-288v64h123v373z" fill="#a90725"/><path d="M445 629c-112 38-236-28-277-148s16-249 127-287v63h123v372z" fill="#aa0725"/><path d="M445 628c-111 38-235-28-276-147s15-248 127-286v62h122v371z" fill="#ab0726"/><path d="M444 627c-110 38-233-28-274-147s15-246 126-284v61h122v370z" fill="#ac0726"/><path d="M444 626c-110 38-232-28-273-146s15-245 125-283v60h122v369z" fill="#ad0827"/><path d="M444 625c-110 37-231-28-272-146s15-243 125-281v59h121v368z" fill="#ae0827"/><path d="M443 624c-109 37-230-28-270-145s15-242 124-280v58h121v367z" fill="#af0828"/><path d="M443 622c-109 38-229-27-269-143s15-242 123-279v57h121v365z" fill="#b00828"/><path d="M442 621c-107 37-227-27-267-143s15-240 123-277v56h120v364z" fill="#b20829"/><path d="M442 620c-107 37-226-27-266-142s15-239 122-276v55h120v363z" fill="#b3082a"/><path d="M442 619c-107 37-225-26-265-141s15-238 122-275v54h119v362z" fill="#b4082a"/><path d="M441 618c-106 37-224-26-263-141s15-236 121-273v53h119v361z" fill="#b5082b"/><path d="M441 617c-106 36-223-26-262-140s15-235 120-271v51h119v360z" fill="#b6082b"/><path d="M441 616c-105 36-222-26-261-139s15-234 120-270v50h118v359z" fill="#b7092c"/><path d="M440 615c-104 36-220-26-259-139s15-232 119-268v49h118v358z" fill="#b8092c"/><path d="M440 614c-104 35-219-26-258-138s15-231 118-267v48h118v357z" fill="#b9092d"/><path d="M439 613c-103 35-218-26-256-137s15-231 118-266v47h117v356z" fill="#ba092d"/><path d="M439 612c-103 35-217-26-255-137s14-229 117-264v46h117v355z" fill="#bb092e"/><path d="M439 610c-103 36-216-25-254-135s14-228 117-263v45h116v353z" fill="#bc092f"/><path d="M438 609c-101 35-214-25-252-134s14-227 116-262v44h116v352z" fill="#bd092f"/><path d="M438 608c-101 35-213-25-251-134s14-225 115-260v43h116v351z" fill="#be0930"/><path d="M438 607c-101 35-213-25-250-133s14-224 115-259v42h115v350z" fill="#bf0930"/><path d="M437 606c-100 35-211-25-248-132s14-223 114-258v41h115v349z" fill="#c00a31"/><path d="M437 605c-100 34-210-25-247-132s14-221 113-256v40h115v348z" fill="#c10a31"/><path d="M436 604c-98 34-208-25-245-131s14-220 113-254v38h114v347z" fill="#c20a32"/><path d="M436 603c-98 34-207-25-244-130s14-219 112-253v37h114v346z" fill="#c30a33"/><path d="M436 602c-98 33-207-25-243-130s14-218 112-251v36h113v345z" fill="#c40a33"/><path d="M435 601c-97 33-205-25-241-129s14-217 111-250v35h113v344z" fill="#c50a34"/><path d="M435 600c-97 33-204-24-240-129s14-215 110-248v34h113v343z" fill="#c60a34"/><path d="M435 599c-96 33-203-24-239-128s14-214 110-247v33h112v342z" fill="#c70a35"/><path d="M434 597c-95 33-201-23-237-126s14-213 109-246v32h112v340z" fill="#c80a35"/><path d="M434 596c-95 33-201-23-236-126s13-211 108-244v31h112v339z" fill="#c90b36"/><path d="M433 595c-94 33-199-23-234-125s13-210 108-243v30h111v338z" fill="#ca0b36"/><path d="M433 594c-94 33-198-23-233-124s13-209 107-242v29h111v337z" fill="#cb0b37"/><path d="M433 593c-94 32-197-23-232-124s13-207 107-240v28h110v336z" fill="#cc0b38"/><path d="M432 592c-92 32-195-23-230-123s13-207 106-239v27h110v335z" fill="#cd0b38"/><path d="M432 591c-92 32-195-23-229-122s13-206 105-237v25h110v334z" fill="#ce0b39"/><path d="M432 590c-92 31-194-23-228-122s13-204 105-235v24h109v333z" fill="#cf0b39"/><path d="M431 589c-91 31-192-23-226-121s13-203 104-234v23h109v332z" fill="#d00b3a"/><path d="M431 588c-91 31-191-23-225-120s13-202 103-233v22h109v331z" fill="#d10b3a"/><path d="M430 587c-90 31-189-23-223-120s13-200 103-231v21h108v330z" fill="#d20c3b"/><path d="M430 586c-89 30-189-23-222-119s13-199 102-230v20h108v329z" fill="#d30c3c"/><path d="M430 584c-89 31-188-22-221-117s13-198 102-229v19h107v327z" fill="#d40c3c"/><path d="M429 583c-88 31-186-22-219-117s13-196 101-227v18h107v326z" fill="#d50c3d"/><path d="M429 582c-88 30-185-22-218-116s13-196 100-226v17h107v325z" fill="#d60c3d"/><path d="M429 581c-88 30-184-22-217-115s12-195 100-225v16h106v324z" fill="#d70c3e"/><path d="M428 580c-86 30-183-22-215-115s12-193 99-223v15h106v323z" fill="#d80c3e"/><path d="M428 579c-86 30-182-21-214-114s12-192 98-221v13h106v322z" fill="#d90c3f"/><path d="M427 578c-85 29-180-21-212-113s12-191 98-220v12h105v321z" fill="#da0c3f"/><path d="M427 577c-85 29-179-21-211-113s12-189 97-218v11h105v320z" fill="#db0c40"/><path d="M427 576c-85 29-178-21-210-112s12-188 97-217c42-15 86-9 124 11h-20v318z" fill="#dc0d41"/><path d="M426 575c-83 28-177-21-208-112s12-186 96-215c42-15 86-9 124 11h-20v316z" fill="#dd0d41"/><path d="M426 574c-83 28-176-21-207-111s12-185 95-214c42-14 86-9 123 11h-19v314z" fill="#de0d42"/><path d="M426 573c-83 28-175-21-206-110s12-184 95-213c41-14 85-9 122 11h-19v312z" fill="#df0d42"/><path d="M425 571c-82 29-173-20-204-109s12-183 94-211c41-14 84-9 121 11h-18v309z" fill="#e00d43"/><path d="M425 570c-82 28-172-20-203-108s12-182 93-210c41-14 84-9 121 11h-18v307z" fill="#e10d43"/><path d="M425 569c-81 28-172-20-202-107s12-181 93-209c40-14 83-9 119 11h-17v305z" fill="#e20d44"/><path d="M424 568c-80 28-170-20-200-107s12-179 92-207c40-13 83-8 119 11h-17v303z" fill="#e30d45"/><path d="M424 567c-80 28-169-20-199-106s12-178 92-206c40-13 82-8 118 11h-17v301z" fill="#e40d45"/><path d="M423 566c-79 27-167-20-197-105s12-177 91-204c40-14 81-9 117 10h-16v299z" fill="#e50e46"/><path d="M423 565c-79 27-166-20-196-105s11-175 90-202c40-14 81-9 117 10h-16v297z" fill="#e60e46"/><path d="M423 564c-79 27-166-20-195-104s11-174 90-201c39-14 80-9 115 10h-15v295z" fill="#e70e47"/><path d="M422 563c-77 26-164-20-193-103s11-173 89-200c39-14 80-9 115 10h-15v293z" fill="#e80e47"/><path d="M422 562c-77 26-163-20-192-103s11-172 88-198c39-13 80-9 114 10h-14v291z" fill="#e90e48"/><path d="M422 561c-77 26-162-20-191-102s11-171 88-197c38-13 78-8 113 10h-14v289z" fill="#ea0e48"/><path d="M421 559c-76 27-160-18-189-100s11-170 87-196c38-13 78-8 112 10h-13v286z" fill="#eb0e49"/><path d="M421 558c-76 26-160-18-188-100s11-168 86-194c38-13 78-8 112 10h-13v284z" fill="#ec0e4a"/><path d="M420 557c-75 26-158-18-185-99s10-167 85-193c37-13 77-8 111 10h-13v282z" fill="#ed0e4a"/><path d="M420 556c-74 26-157-18-185-98s11-166 85-192c37-12 77-8 110 10h-12v280z" fill="#ee0f4b"/><path d="M420 555c-74 26-156-18-183-98s10-164 84-190c37-12 75-8 109 10h-12v278z" fill="#ef0f4b"/><path d="M419 554c-73 25-154-18-182-97s11-163 84-189c37-12 75-8 108 10h-11v276z" fill="#f00f4c"/><path d="M419 553c-73 25-154-18-180-96s10-162 82-187c37-13 75-8 108 9h-11v274z" fill="#f10f4c"/><path d="M419 552c-73 25-153-18-179-96s10-161 82-185 152 18 179 95h-83v186z" fill="#f20f4d"/><path d="M418 551c-71 24-151-18-177-95s10-160 81-184 151 18 178 95h-82v184z" fill="#f30f4e"/><path d="M418 550c-71 24-150-18-176-94s9-159 81-183 149 18 176 94h-81v183z" fill="#f40f4e"/><path d="M417 549c-70 24-148-18-174-94s9-157 80-181 149 18 175 93h-80v110h76c-15 33-41 59-77 72z" fill="#f50f4f"/><path d="M417 548c-70 24-148-18-173-93s9-156 79-180 148 17 174 93h-79v109h75c-15 32-41 59-76 71z" fill="#f60f4f"/><path d="M417 546c-70 24-147-17-172-92s9-154 79-178 146 17 172 92h-78v108h74c-14 33-41 58-75 70z" fill="#f71050"/><path d="M416 545c-68 24-145-17-170-91s9-153 78-177 145 17 171 91h-77v108h73c-14 32-40 58-75 69z" fill="#f81050"/><path d="M416 544c-68 24-144-17-169-90s9-152 77-176 144 17 170 91h-76v106h72c-14 32-40 58-74 69z" fill="#f91051"/><path d="M416 543c-68 23-143-17-168-90s9-150 77-174 143 17 168 90h-75v106h71c-14 31-40 57-73 68z" fill="#fa1051"/><path class="cls-342" d="M415 542c-67 23-142-17-166-89s9-149 76-173 142 17 167 89h-74v105h70c-14 31-39 57-73 68z"/><path class="cls-342" d="M415 541c-67 23-141-17-165-88s9-149 76-172 140 17 165 89h-73v104h69c-14 31-39 56-72 67z"/><path d="M414 538c-65 22-137-16-162-86s10-145 75-167 137 16 161 86h-70v101h66c-13 30-38 55-70 66z" fill="#fb1153"/><path d="M413 535c-64 22-134-16-158-84s9-142 73-163 134 15 157 84h-67v99h64c-14 29-38 53-69 64z" fill="#fb1254"/><path d="M412 532c-62 21-131-15-154-82s9-138 71-159 130 15 153 82h-64v96h61c-13 29-36 52-67 63z" fill="#fb1355"/><path d="M411 529c-61 21-128-15-150-80s8-135 69-155 127 15 149 80h-61v94h58c-12 28-35 51-65 61z" fill="#fb1456"/><path d="M410 526c-59 20-125-15-146-78s8-131 67-151 124 14 146 78-9 131-67 151z" fill="#fb1557"/><path d="M409 523c-58 20-121-14-143-76s8-128 66-147 121 14 142 76-8 127-65 147z" fill="#fc1657"/><path d="M408 520c-56 19-118-14-139-74s8-124 64-143 117 14 138 74-8 124-63 143z" fill="#fc1758"/><path d="M406 517c-54 19-114-14-134-72s8-121 62-139 114 13 134 72-7 120-62 139z" fill="#fc1859"/><path d="M405 514c-52 18-111-13-130-70s7-117 60-135 111 13 130 69-7 118-60 136z" fill="#fc195a"/><path d="M404 511c-51 17-107-13-126-68s7-114 58-131 108 12 127 67-7 114-59 132z" fill="#fc1a5b"/><path d="M403 508c-49 17-104-13-123-66s7-110 57-127 105 12 123 65-7 111-57 128z" fill="#fc1b5c"/><path d="M402 505c-48 16-101-12-119-64s7-107 55-123 101 12 119 63-7 107-55 124z" fill="#fc1c5d"/><path d="M401 502c-46 16-98-12-115-62s7-103 53-119 98 11 115 61-6 104-53 120z" fill="#fc1d5e"/><path d="M400 499c-45 15-95-11-111-60s6-100 51-115 95 11 111 59-6 100-51 116z" fill="#fc1e5f"/><path d="M399 496c-43 15-91-11-107-58s6-96 49-111 92 11 108 57-6 97-50 112z" fill="#fc1f60"/><path d="M398 493c-42 14-88-11-104-56s6-93 48-107 88 10 104 55-6 93-48 108z" fill="#fd2060"/><path d="M397 490c-40 14-85-10-100-54s6-89 46-103 85 10 100 53-6 90-46 104z" fill="#fd2161"/><path d="M396 487c-39 13-82-10-96-52s5-86 44-99 82 9 96 51-5 86-44 100z" fill="#fd2262"/><path d="M395 484c-37 12-78-10-92-50s5-82 42-95 79 9 92 49-5 83-42 96z" fill="#fd2363"/><path d="M394 481c-36 12-75-9-88-48s5-79 40-91 75 9 89 47-5 79-41 92z" fill="#fd2464"/><path d="M393 478c-34 11-72-9-84-46s4-75 38-87 72 8 85 45-5 76-39 88z" fill="#fd2665"/><path d="M392 475c-33 11-69-8-81-43s5-73 37-84 69 8 81 43-4 72-37 84z" fill="#fd2766"/><path d="M391 472c-31 10-65-8-77-41s4-69 35-80 66 8 77 41-4 69-35 80z" fill="#fd2867"/><path d="M390 469c-30 10-62-8-73-39s4-66 33-76 63 7 73 39-4 65-33 76z" fill="#fd2968"/><path d="M389 466c-28 9-59-7-69-37s4-62 31-72 59 7 70 37-4 62-32 72z" fill="#fd2a69"/><path d="M388 463c-26 9-56-7-65-35s3-59 30-68 55 7 65 35-4 58-30 68z" fill="#fd2b6a"/><path d="M387 460c-25 8-53-7-62-33s4-55 29-64 52 6 61 33-3 55-28 64z" fill="#fe2c6a"/><path d="M386 457c-24 8-49-6-58-31s3-52 27-60 49 6 57 31-3 52-26 60z" fill="#fe2d6b"/><path d="M385 453c-22 8-46-5-54-28s3-49 25-56 45 5 53 29-3 48-24 55z" fill="#fe2e6c"/><path d="M384 450c-20 7-43-5-50-26s3-45 23-52 42 5 50 27-3 45-23 51z" fill="#fe2f6d"/><path d="M383 447c-19 7-40-4-47-24s3-42 22-48 39 5 46 25-3 41-21 47z" fill="#fe306e"/><path d="M382 444c-17 6-36-4-43-22s3-38 20-44 36 4 42 23-2 38-19 43z" fill="#fe316f"/><path d="M381 441c-16 6-33-3-39-20s2-35 18-40 32 4 38 21-2 34-17 39z" fill="#fe3270"/><path d="M380 438c-14 5-30-3-35-18s2-31 16-36 29 4 34 19-2 31-15 35z" fill="#fe3371"/><path d="M378 435c-12 5-26-3-30-16s1-28 14-32 26 3 31 17-2 27-15 31z" fill="#fe3472"/><path d="M377 432c-10 4-22-2-26-14s1-24 12-28 23 3 27 15-2 24-13 27z" fill="#fe3573"/><path d="M376 429c-9 4-19-2-23-12s2-21 11-24 20 3 23 12-1 21-11 24z" fill="#ff3673"/><path d="M375 426c-7 3-16-2-19-10s1-17 9-20 16 2 19 10-1 18-9 20z" fill="#ff3774"/><path d="M374 423c-6 2-13-1-15-8s1-14 7-16 13 2 15 8-1 14-7 16z" fill="#ff3875"/><path d="M373 420c-4 2-10-1-11-6s0-10 5-12 10 1 12 6-1 11-6 12z" fill="#ff3976"/><path d="M372 417a6 6 0 1 1 4-8 6 6 0 0 1-4 8z" fill="#ff3a77"/><path d="M371 414a3 3 0 0 1-4-2 3 3 0 1 1 6-2 3 3 0 0 1-2 4z" fill="#ff3b78"/></g><path d="M297 374a64 64 0 0 1 12 18c4 10 5 21 13 29 9 10 31 20 31 35-8 0-14-7-23-4-3 1 7 33 7 36 1 13 0 25-10 35-3-7-1-17-4-25a108 108 0 0 0-12-25c-9-12-21-35-39-36 12-12 12-36 9-52-2-13-13-26-14-37 10 5 18 14 26 22l4 4z" fill="#8e092c" fill-rule="evenodd"/><path d="M343 391c0-35-70-82-32-18 8 14 32 34 32 18z" fill="#ff6ea2" fill-rule="evenodd"/><path d="M349 524s5-32 3-47 8-28 14-14c19 37 38 72-17 61z" fill="#ff5592" fill-rule="evenodd"/><path d="M364 557s22 22-65 51c-59 19-58 13-58 13s105-27 113-65c4-18 10 1 10 1z" fill="#ed1d51" fill-rule="evenodd"/><path d="M273 436c20-67-14-149-87-113-51 25-97 75-104 132-6 61 23 135 86 154 31 9 83 6 112-9 34-18 41-43 44-78 2-13-4-58-51-86z" fill="#d2cea1" fill-rule="evenodd"/><path class="cls-390" d="M185 431c23-7 51 5 71-9 27-20 14-62-9-77-53-35-119 19-139 68-9 19-15 58 15 57 19 0 38-25 52-35a37 37 0 0 1 10-4z"/><path d="M283 441c-5-3-10-5-14-2 19-13 12-41 4-58 11 22-10 51-30 61-23 12-52 5-75 19-16 10-31 27-51 31-30 6-21-15-33-33 1 1-4 32-3 38l12 45c10 32 48 65 82 66-22-9-72-48-75-75-3-33 39-23 60-27 30-6 47-33 76-44 30-11 53 7 74 25 3-8-13-35-27-46z" fill="#c2b243" fill-rule="evenodd"/><path class="cls-390" d="M291 571c-12 5-28-2-43-33-13-29-31-23-58-28 14-25 57-44 85-32 47 22 39 82 16 93z"/><path d="M232 453c-9 35-71 37-102 39 26-13 53-46 84-36z" fill="#543600" fill-rule="evenodd"/><path d="M211 602a56 56 0 0 1-16-2c-31-9-60-22-77-52-7-13-15-25 4-25 11 0 24 9 36 11 31 6 56 4 76 34 16 24-3 34-23 34z" fill="#d1c47e" fill-rule="evenodd"/><path d="M151 480c-9 17 36-4 34-18s-30 11-34 18z" fill="#873817" fill-rule="evenodd"/><path d="M177 479c-9 17 36-4 34-18s-30 11-34 18z" fill="#84350e" fill-rule="evenodd"/><path class="cls-396" d="M174 461c-4 0-9 3-9 7a24 24 0 0 0 21-8c-3-5-10-3-14 1M198 463c-4 0-8 3-8 7a24 24 0 0 0 20-8c-3-4-9-3-14 1"/><path d="M289 415s38 2 51-16 27-52 40-50 20 23 22 28-30-10-35 8-17 23-17 23l-38 19c-10 6-11 4-11 15s-13-24-12-27" fill="url(#linear-gradient-2)" fill-rule="evenodd"/><path d="M282 350l2 2c8 6 21 24 32 21 21-5-20-37-29-38-18-3-13 8-5 15z" fill="#ff9ecc" fill-rule="evenodd"/><path d="M291 351l2 1c4 4 13 15 20 14 14-4-13-24-19-25-11-2-8 5-3 10z" fill="#fff" fill-rule="evenodd"/></g></svg>