<svg xmlns="http://www.w3.org/2000/svg" xmlns:xlink="http://www.w3.org/1999/xlink" viewBox="0 0 401 595.28"><defs><style>.cls-1{isolation:isolate;}.cls-2{fill:#2d296b;}.cls-3{fill:url(#linear-gradient);}.cls-4{fill:#3f2505;}.cls-5{fill:#96003b;}.cls-6{fill:#c3003b;}.cls-7{fill:url(#linear-gradient-2);}.cls-8{fill:#d8b28a;}.cls-9{fill:#f9e9d8;}.cls-10{fill:#cca882;}.cls-11{fill:url(#linear-gradient-3);}.cls-12{fill:#ba976f;}.cls-13,.cls-14{opacity:0.25;}.cls-13{fill:url(#linear-gradient-4);}.cls-14{fill:url(#linear-gradient-5);}.cls-15{opacity:0.22;fill:url(#linear-gradient-6);}.cls-16{fill:#59381d;}.cls-17{fill:#694930;}.cls-18{opacity:0.47;}.cls-19{fill:#a4774c;}.cls-20{fill:url(#linear-gradient-7);}.cls-21{fill:url(#linear-gradient-8);}.cls-22{fill:#612726;}.cls-23{opacity:0.5;}.cls-24{fill:#82161c;}.cls-25{fill:#fefbdc;}.cls-26{fill:url(#linear-gradient-9);}.cls-27{fill:url(#linear-gradient-10);}.cls-28{fill:#c40058;}.cls-29{fill:#e171a8;opacity:0.4;}.cls-30{fill:url(#linear-gradient-11);}.cls-31{fill:#e5c197;}.cls-32{fill:url(#linear-gradient-12);}.cls-33{fill:url(#linear-gradient-13);}.cls-34{fill:url(#linear-gradient-14);}.cls-35{fill:url(#linear-gradient-15);}.cls-36{fill:url(#linear-gradient-16);}.cls-37{fill:url(#linear-gradient-17);}.cls-38{fill:url(#linear-gradient-18);}.cls-39{fill:#b8c26c;mix-blend-mode:multiply;}.cls-40{fill:#ffffc7;}.cls-41{fill:#f8e4a2;}.cls-42{fill:url(#linear-gradient-19);}.cls-43{fill:#803e1c;}.cls-43,.cls-45{opacity:0.56;}.cls-44{fill:url(#linear-gradient-20);}.cls-45{fill:#558ea7;}.cls-46{fill:url(#linear-gradient-21);}.cls-47{fill:#c6d0ce;}.cls-48{fill:#a9a6b0;}.cls-49{fill:#868a94;}.cls-50{fill:#262947;}.cls-51{fill:url(#linear-gradient-22);}.cls-52{fill:url(#linear-gradient-23);}</style><linearGradient id="linear-gradient" x1="135.53" y1="295.62" x2="274.46" y2="72.51" gradientUnits="userSpaceOnUse"><stop offset="0" stop-color="#51331a"/><stop offset="0.52" stop-color="#59381d"/><stop offset="1" stop-color="#693f20"/></linearGradient><linearGradient id="linear-gradient-2" x1="204.03" y1="237.27" x2="207.82" y2="269.4" gradientUnits="userSpaceOnUse"><stop offset="0" stop-color="#e5c197"/><stop offset="1" stop-color="#ecd8bf"/></linearGradient><linearGradient id="linear-gradient-3" x1="179.07" y1="89.84" x2="209.29" y2="209.13" xlink:href="#linear-gradient-2"/><linearGradient id="linear-gradient-4" x1="219.25" y1="152.37" x2="230.19" y2="191.54" gradientTransform="translate(36.3 -44.78) rotate(7.5)" gradientUnits="userSpaceOnUse"><stop offset="0" stop-color="#ba976f"/><stop offset="1" stop-color="#ba976f" stop-opacity="0"/></linearGradient><linearGradient id="linear-gradient-5" x1="513.16" y1="79.98" x2="524.1" y2="119.15" gradientTransform="matrix(-0.94, 0.33, 0.33, 0.94, 627.99, -106.07)" xlink:href="#linear-gradient-4"/><linearGradient id="linear-gradient-6" x1="201.32" y1="212.82" x2="196.49" y2="195.15" gradientTransform="translate(36.3 -44.78) rotate(7.5)" gradientUnits="userSpaceOnUse"><stop offset="0" stop-color="#c3003b"/><stop offset="1" stop-color="#c3003b" stop-opacity="0"/></linearGradient><linearGradient id="linear-gradient-7" x1="120.5" y1="286.26" x2="259.43" y2="63.15" xlink:href="#linear-gradient"/><linearGradient id="linear-gradient-8" x1="547.97" y1="194.14" x2="546.92" y2="213.98" gradientTransform="matrix(-0.99, 0.1, 0.1, 0.99, 731.81, -27.47)" gradientUnits="userSpaceOnUse"><stop offset="0" stop-color="#3b0e14"/><stop offset="1" stop-color="#551b1e"/></linearGradient><linearGradient id="linear-gradient-9" x1="220.75" y1="233.16" x2="239.7" y2="233.16" gradientTransform="matrix(0.65, 0.76, -0.76, 0.65, 305.83, -220.7)" gradientUnits="userSpaceOnUse"><stop offset="0" stop-color="#86143e"/><stop offset="1" stop-color="#c40058"/></linearGradient><linearGradient id="linear-gradient-10" x1="194.15" y1="243.06" x2="213.12" y2="243.06" gradientTransform="matrix(0.65, 0.76, -0.76, 0.65, 305.83, -220.7)" gradientUnits="userSpaceOnUse"><stop offset="0" stop-color="#c40058"/><stop offset="1" stop-color="#86143e"/></linearGradient><linearGradient id="linear-gradient-11" x1="345.97" y1="330.59" x2="348.65" y2="333.97" gradientTransform="translate(44.67 -49.59) rotate(6.83)" xlink:href="#linear-gradient-2"/><linearGradient id="linear-gradient-12" x1="347.47" y1="316.81" x2="351" y2="321.25" gradientTransform="translate(18.11 -21.06) rotate(2.87)" xlink:href="#linear-gradient-2"/><linearGradient id="linear-gradient-13" x1="347.11" y1="312.35" x2="351.24" y2="317.56" gradientTransform="matrix(1, 0.09, -0.09, 1, 30.57, -36.9)" xlink:href="#linear-gradient-2"/><linearGradient id="linear-gradient-14" x1="352.48" y1="298.32" x2="355.91" y2="302.64" xlink:href="#linear-gradient-2"/><linearGradient id="linear-gradient-15" x1="492.69" y1="313.01" x2="495.38" y2="316.39" gradientTransform="matrix(-0.99, 0.12, 0.12, 0.99, 507.06, -49.59)" xlink:href="#linear-gradient-2"/><linearGradient id="linear-gradient-16" x1="495.06" y1="309.42" x2="498.58" y2="313.87" gradientTransform="matrix(-1, 0.05, 0.05, 1, 533.62, -21.06)" xlink:href="#linear-gradient-2"/><linearGradient id="linear-gradient-17" x1="494.36" y1="299.72" x2="498.49" y2="304.93" gradientTransform="matrix(-1, 0.09, 0.09, 1, 521.17, -36.9)" xlink:href="#linear-gradient-2"/><linearGradient id="linear-gradient-18" x1="500.26" y1="298.32" x2="503.69" y2="302.64" gradientTransform="matrix(-1, 0, 0, 1, 551.74, 0)" xlink:href="#linear-gradient-2"/><linearGradient id="linear-gradient-19" x1="207.8" y1="461.16" x2="207.8" y2="430.67" gradientUnits="userSpaceOnUse"><stop offset="0" stop-color="#c05d20"/><stop offset="1" stop-color="#d47822"/></linearGradient><linearGradient id="linear-gradient-20" x1="82.13" y1="489.25" x2="333.48" y2="489.25" gradientUnits="userSpaceOnUse"><stop offset="0" stop-color="#6eb2b2"/><stop offset="1" stop-color="#7bccb3"/></linearGradient><linearGradient id="linear-gradient-21" x1="267.93" y1="411.45" x2="271.46" y2="442.79" xlink:href="#linear-gradient-2"/><linearGradient id="linear-gradient-22" x1="648.05" y1="411.45" x2="651.58" y2="442.79" gradientTransform="matrix(-1, 0, 0, 1, 783.12, 0)" xlink:href="#linear-gradient-2"/><linearGradient id="linear-gradient-23" x1="170.43" y1="18.81" x2="183.11" y2="70.73" gradientUnits="userSpaceOnUse"><stop offset="0" stop-color="#885423"/><stop offset="1" stop-color="#885423" stop-opacity="0"/></linearGradient></defs><title>Монтажная область 1</title><g class="cls-1"><g id="Слой_1" data-name="Слой 1"><path class="cls-2" d="M138.21,373.26H268.15a0,0,0,0,1,0,0v50a11.53,11.53,0,0,1-11.53,11.53H149.74a11.53,11.53,0,0,1-11.53-11.53v-50A0,0,0,0,1,138.21,373.26Z"/><path class="cls-3" d="M269.05,53.3c-7.1-31.09-88.55-52.57-141-5C71.26,99.92,76.72,172.22,86.28,224c7.84,42.45,8.49,71.18,8.49,71.18S249.32,316.31,307,290c2.61-35.92,19.59-81.63,16.1-143.53C319.86,88.83,292.22,54.21,269.05,53.3Z"/><path class="cls-4" d="M299.58,134.75c6.49,8.29,13.69,65.58,6.13,101.61-.72-7.93-2.16-16.93-2.16-16.93s-2.16,36.75-15.13,55.13S270,277.07,270,277.07l-5.4-27,1.8,27h-4l-2.52-13.69.72,14.41s-79.63,14.77-90.8,9.37c-5.4-6.49-5-25.58-5-25.58l-3.24,15.13L156.18,250s-2.52,25.22-2.88,26.3-21.62,2.52-29.55-3.6c-7.21-9-16.21-41.44-16.21-41.44s-1.44,11.89,0,20.9c-8.29-23.42-9.37-54.77-9.37-54.77Z"/><path class="cls-5" d="M163.19,280.08c9.49-10.82,50.11-29.14,88.3,0-8.1,7.06-30.09,18-48.27,17.4C186.71,296.9,174.12,285.33,163.19,280.08Z"/><ellipse class="cls-6" cx="205.66" cy="267.9" rx="15.37" ry="8.16"/><path class="cls-7" d="M214.73,266.08s-2.34,3.45-9.06,3.45-8.83-3.45-8.83-3.45v-28h17.89Z"/><path class="cls-8" d="M214.72,258.45V238.12H196.84v21.69A31.07,31.07,0,0,1,214.72,258.45Z"/><path class="cls-9" d="M39.61,268l20-19s28,12.36,85.86,22.35c33.41,5.77,51.86,3.08,57.1,21.27,6.25-16.35,15.34-15,39.45-19.27a670.58,670.58,0,0,0,95.52-24.36c11.48,7.51,26.43,20,26.43,20s-106.24,46.11-164.38,47.11S49,272.31,39.61,268Z"/><polygon class="cls-9" points="347.71 260.77 355.31 257.74 361.05 260.69 353.76 263.49 347.71 260.77"/><polygon class="cls-9" points="354.45 258.33 350.26 255.13 349.56 255.48 344.24 258.18 347.21 262.06 354.45 258.33"/><polygon class="cls-9" points="348.81 254.97 344.17 257.41 346.68 258.25 349.95 255.66 348.81 254.97"/><polygon class="cls-9" points="343.33 257.87 350.18 254.52 348.32 253.45 347.29 253.91 343.22 251.26 337.54 254.29 343.33 257.87"/><polygon class="cls-9" points="345.6 265.45 359.71 260.79 362.52 259.86 364.71 261.82 347.94 267.57 345.6 265.45"/><path class="cls-10" d="M207.95,306a29.46,29.46,0,0,1,0-8.5,19.06,19.06,0,0,1,3.24-7.85,22.25,22.25,0,0,1,2.74-3.27,14.21,14.21,0,0,1,3.56-2.37,33.72,33.72,0,0,1,8.11-2.34l33-6.33-32.93,6.76a33.27,33.27,0,0,0-8,2.41,13.64,13.64,0,0,0-3.38,2.31,21.7,21.7,0,0,0-2.61,3.2,18.33,18.33,0,0,0-3,7.6,28.65,28.65,0,0,0,.1,8.25Z"/><path class="cls-10" d="M202.92,306a20,20,0,0,1,.31-6.33c.16-1,.47-2,.73-3s.63-2,1.06-2.94a26.92,26.92,0,0,1,7.08-10.18c.4-.34.84-.64,1.25-1l.63-.47c.22-.15.45-.27.68-.4l1.37-.78,1.47-.59.73-.29.77-.19,1.53-.37,3-.5,12-2c16-2.73,32-5.6,47.72-9.66-15.65,4.35-31.61,7.51-47.56,10.53l-12,2.24-3,.56-1.42.37-.71.18-.68.28-1.35.57-1.26.75c-.21.13-.43.24-.63.38l-.58.45c-.38.31-.78.59-1.15.91a25.5,25.5,0,0,0-6.51,9.76c-.39.91-.65,1.87-1,2.81s-.5,1.91-.64,2.89a18.4,18.4,0,0,0-.19,5.78Z"/><polygon class="cls-10" points="364.14 262.07 362.24 260.14 362.65 260.24 340.61 267.35 362.39 259.49 362.61 259.41 362.8 259.58 364.76 261.44 364.14 262.07"/><polygon class="cls-10" points="325.28 269.64 355.17 257.39 355.32 257.33 355.48 257.41 360.93 260.11 360.53 260.89 355.14 258.07 355.44 258.08 325.28 269.64"/><path class="cls-10" d="M354,258.56l-3.92-3.17.36,0c-3.71,1.83-7.48,3.48-11.28,5.09s-7.62,3.14-11.45,4.64-7.69,2.94-11.56,4.37-7.75,2.79-11.64,4.14q5.8-2.11,11.58-4.3c3.84-1.48,7.68-3,11.49-4.52s7.61-3.13,11.38-4.79,7.52-3.36,11.17-5.22l.19-.09.17.13,4.05,3Z"/><path class="cls-10" d="M348.32,253.45c-4.22,2.06-8.5,4-12.79,5.89s-8.65,3.66-13,5.4q-13.09,5.21-26.45,9.69c-8.92,2.94-17.88,5.75-27,8.2-4.52,1.27-9.08,2.4-13.64,3.52s-9.16,2-13.74,3.08c4.55-1.17,9.12-2.24,13.64-3.5l6.8-1.82c2.27-.6,4.51-1.29,6.76-1.93q13.53-3.87,26.86-8.38c8.91-2.92,17.72-6.15,26.49-9.48,4.39-1.66,8.74-3.39,13.09-5.16S344,255.38,348.32,253.45Z"/><path class="cls-10" d="M347.29,253.91l-4.13-2.56h.11c-3.13,1.76-6.35,3.35-9.6,4.86s-6.53,3-9.82,4.39q-9.92,4.16-20,7.82l-5.07,1.8L293.64,272c-3.39,1.18-6.81,2.24-10.23,3.32s-6.86,2.08-10.3,3.1l-10.36,2.86Q273,278,283.21,274.66c6.78-2.3,13.59-4.54,20.3-7s13.43-5,20-7.7,13.21-5.55,19.61-8.75l.06,0,.05,0Z"/><polygon class="cls-9" points="51.84 260.77 44.25 257.74 38.5 260.69 45.8 263.49 51.84 260.77"/><polygon class="cls-9" points="45.1 258.33 49.29 255.13 49.99 255.48 55.31 258.18 52.34 262.06 45.1 258.33"/><polygon class="cls-9" points="50.74 254.97 55.39 257.41 52.87 258.25 49.6 255.66 50.74 254.97"/><polygon class="cls-9" points="56.23 257.87 49.37 254.52 51.23 253.45 52.27 253.91 56.33 251.26 62.01 254.29 56.23 257.87"/><polygon class="cls-9" points="53.96 265.45 39.85 260.79 37.03 259.86 34.84 261.82 51.62 267.57 53.96 265.45"/><path class="cls-10" d="M190.73,305.89a28.64,28.64,0,0,0,.1-8.25,18.33,18.33,0,0,0-3-7.6,21.7,21.7,0,0,0-2.61-3.2,13.64,13.64,0,0,0-3.38-2.31,33.27,33.27,0,0,0-8-2.41l-32.93-6.76,33,6.33a33.72,33.72,0,0,1,8.11,2.34,14.21,14.21,0,0,1,3.56,2.37,22.24,22.24,0,0,1,2.74,3.27,19.06,19.06,0,0,1,3.24,7.85,29.45,29.45,0,0,1,0,8.5Z"/><path class="cls-10" d="M194.89,305.76a18.41,18.41,0,0,0-.19-5.78c-.13-1-.41-1.93-.64-2.89s-.56-1.9-1-2.81a25.5,25.5,0,0,0-6.51-9.76c-.37-.32-.77-.61-1.15-.91l-.58-.45c-.2-.14-.42-.25-.63-.38L183,282l-1.35-.57-.68-.28-.71-.18-1.42-.37-3-.56-12-2.24c-16-3-31.91-6.18-47.56-10.53C132,271.36,148,274.23,164,277l12,2,3,.5,1.53.37.77.19.73.29,1.47.59,1.37.78c.23.13.46.25.68.4l.63.47c.42.32.85.62,1.25,1a26.92,26.92,0,0,1,7.08,10.18c.43,1,.72,2,1.06,2.94s.57,2,.73,3a20,20,0,0,1,.31,6.33Z"/><polygon class="cls-10" points="34.8 261.44 36.76 259.58 36.94 259.41 37.16 259.49 58.95 267.35 36.91 260.24 37.31 260.14 35.41 262.07 34.8 261.44"/><polygon class="cls-10" points="74.27 269.64 44.11 258.08 44.42 258.07 39.03 260.89 38.63 260.11 44.08 257.41 44.23 257.33 44.38 257.39 74.27 269.64"/><path class="cls-10" d="M45,257.86l4.05-3,.17-.13.19.09c3.65,1.86,7.41,3.56,11.17,5.22s7.56,3.24,11.38,4.79,7.65,3,11.49,4.52,7.71,2.89,11.58,4.3q-5.83-2-11.64-4.14c-3.86-1.42-7.72-2.86-11.56-4.37s-7.66-3-11.45-4.64-7.56-3.26-11.28-5.09l.36,0-3.92,3.17Z"/><path class="cls-10" d="M51.23,253.45c4.28,1.93,8.61,3.73,13,5.5s8.7,3.5,13.09,5.16c8.77,3.33,17.58,6.56,26.49,9.48s17.84,5.8,26.86,8.38c2.26.64,4.5,1.33,6.76,1.93l6.8,1.82c4.52,1.26,9.09,2.32,13.64,3.5-4.58-1-9.18-2-13.74-3.08s-9.12-2.26-13.64-3.52c-9.07-2.45-18-5.26-27-8.2S85.76,268.21,77,264.73q-6.54-2.6-13-5.4C59.73,257.44,55.45,255.51,51.23,253.45Z"/><path class="cls-10" d="M52.24,253.87q2-1.43,4-2.81l.11-.08.13.07c6.39,3.19,13,6,19.51,9s13.26,5.43,20,7.74,13.59,4.53,20.38,6.79l10.22,3.32c3.41,1.09,6.82,2.19,10.22,3.33l0,.08q-5.21-1.34-10.39-2.78c-3.43-1-6.89-2-10.3-3.11s-6.83-2.18-10.2-3.4l-5.07-1.79-5-1.9-20.05-7.78c-3.34-1.31-6.66-2.68-9.91-4.2s-6.48-3.07-9.62-4.85h.24q-2.07,1.27-4.17,2.49Z"/><path class="cls-11" d="M297.4,162.87a18.75,18.75,0,0,0-12.69,2.89A67,67,0,0,0,279.11,153c-15.24-26.42-17-44.64-22.36-64.32C244.46,43.83,155.16,73.92,144.48,107c-3.7,11.47-8.88,43.68-13.28,56.93a113.58,113.58,0,0,0-4.86,20.66,18.63,18.63,0,0,0-8.95-3.72c-10.5-1.38-20.16,6.27-21.59,17.09s5.93,20.71,16.43,22.09a18.93,18.93,0,0,0,16.06-5.68c7.73,24.18,32.38,40.25,81.14,38.37,52.06-2,73.13-26.3,77.84-52.11a18.61,18.61,0,0,0,5,1.39c10.5,1.38,20.16-6.27,21.59-17.09S307.89,164.25,297.4,162.87Z"/><path class="cls-12" d="M297.33,162.87a18.75,18.75,0,0,0-12.69,2.89A67,67,0,0,0,279,153c-15.24-26.42-17-44.64-22.36-64.32C244.4,43.83,155.1,73.92,144.42,107c-3.7,11.48-8.88,43.68-13.28,56.93a113.58,113.58,0,0,0-4.86,20.66,18.63,18.63,0,0,0-8.95-3.72,19,19,0,0,0-17.15,6.89c4.5,13.55,20.21,18.54,28.16,17.77,3.73,6.32,5.17,2.58,12.64-8.9S154.75,153,157,132c4.59-3.16,8-10.05,8-10.05a11.22,11.22,0,0,1-1.15,5.17,39.41,39.41,0,0,0,14.93-13.5c16.94,25.27,52,27.85,71.22,27.28a69.49,69.49,0,0,1,18.38,23.83s8,39.34,6,50.25a58.7,58.7,0,0,0,11.23-8.13,61.21,61.21,0,0,0,1.49-6.24,19.13,19.13,0,0,0,3.47,1.08c9.86-11.57,14.15-25.5,14.59-35.86A18.59,18.59,0,0,0,297.33,162.87Z"/><path class="cls-13" d="M230,134.21c-7.46.58-11.73,13.81-12.33,21.55-.67,8.61.32,15.66,8.84,18.75,10.26,3.72,32.39-.06,31-13.65s-6.12-22.44-11.75-25.28S234.69,133.85,230,134.21Z"/><path class="cls-14" d="M174,138.26c7.42-1,14.32,11.1,16.5,18.55,2.43,8.29,2.91,15.39-4.79,20.17-9.27,5.76-31.71,6.61-33.12-7s1.37-23.22,6.29-27.16S169.37,138.86,174,138.26Z"/><path class="cls-15" d="M198.5,191.09c-1.88-1.47-2.17-4.74.28-9.19s2.79-7.82,5.91-8.65,5.6,1.57,6.61,4.08,5,4.49,6.4,8.82-5.83,6.49-11,6.73S200.09,192.34,198.5,191.09Z"/><path class="cls-16" d="M174.37,136.16c-9.51-.31-20,6.08-13.56,6.09S190.63,136.68,174.37,136.16Z"/><path class="cls-16" d="M231,132.48c9.38-1.63,20.64,3.24,14.27,4.15S215,135.26,231,132.48Z"/><path class="cls-17" d="M198.31,182.91a11.8,11.8,0,0,0-1.24,4.51,4.43,4.43,0,0,0,.45,2.14,4.14,4.14,0,0,0,.65.85l.39.37.46.29a10,10,0,0,0,4.33,1.19,25.79,25.79,0,0,0,4.67-.06c.78-.09,1.57-.13,2.34-.27l1.16-.18,1.13-.26a8.8,8.8,0,0,0,4-1.91,3.79,3.79,0,0,0,.64-.83,3.64,3.64,0,0,0,.28-1,4.13,4.13,0,0,0,0-1.09,7.26,7.26,0,0,0-.31-1.09,14.44,14.44,0,0,0-2.46-4,13,13,0,0,1,3,3.78,7.3,7.3,0,0,1,.44,1.18,4.88,4.88,0,0,1,.11,1.29,4.06,4.06,0,0,1-.28,1.3,4.69,4.69,0,0,1-.74,1.1,9.26,9.26,0,0,1-4.41,2.37l-1.19.3-1.2.2c-.8.16-1.61.22-2.41.31a25.54,25.54,0,0,1-4.89,0,10.32,10.32,0,0,1-4.74-1.54l-.52-.38-.45-.48a4.47,4.47,0,0,1-.72-1.1,5,5,0,0,1-.33-2.52A10.89,10.89,0,0,1,198.31,182.91Z"/><g class="cls-18"><path class="cls-17" d="M198.6,178.47a12.69,12.69,0,0,1,3-1.21,16.92,16.92,0,0,1,3.19-.55,14.31,14.31,0,0,1,3.24.12,10.49,10.49,0,0,1,3.09,1c-1.07-.11-2.11-.25-3.15-.26a28.4,28.4,0,0,0-3.11.07A53.77,53.77,0,0,0,198.6,178.47Z"/></g><g class="cls-18"><path class="cls-17" d="M200.69,175.61a4.73,4.73,0,0,1,1.68-.87,8.42,8.42,0,0,1,1.85-.34,8.19,8.19,0,0,1,3.69.56,17.52,17.52,0,0,1-1.84.2l-1.79.12C203.1,175.36,201.94,175.45,200.69,175.61Z"/></g><path class="cls-17" d="M168.65,176.9a11.08,11.08,0,0,1,3.69-3.88,14.24,14.24,0,0,1,10.5-2.05,11.05,11.05,0,0,1,4.88,2.21,23.1,23.1,0,0,0-5-.84,21,21,0,0,0-9.65,1.88A22.94,22.94,0,0,0,168.65,176.9Z"/><path class="cls-17" d="M222.18,173.72a7.25,7.25,0,0,1,3.59-3.58,14.15,14.15,0,0,1,4.94-1.4,16.33,16.33,0,0,1,5.1.27,8,8,0,0,1,4.47,2.35,13.29,13.29,0,0,0-4.67-1,29.28,29.28,0,0,0-4.72.12,21.83,21.83,0,0,0-4.59.91A10.78,10.78,0,0,0,222.18,173.72Z"/><path class="cls-19" d="M293.94,175.19a5.63,5.63,0,0,1,4.31.15,8,8,0,0,1,3.46,2.85,8.86,8.86,0,0,1,1.48,4.13,7.9,7.9,0,0,1-.69,4.19c-.55-1.33-1-2.53-1.47-3.65a19.09,19.09,0,0,0-1.66-3.07,13.3,13.3,0,0,0-5.43-4.59Z"/><path class="cls-19" d="M300.24,179.59a4.89,4.89,0,0,0-2.79,1.4,6.53,6.53,0,0,0-1.55,3.07,9.87,9.87,0,0,0-.18,3.73,22.36,22.36,0,0,0,.92,3.83A22.74,22.74,0,0,1,295,188a10.37,10.37,0,0,1-.58-4.13,8.4,8.4,0,0,1,1.36-4.2,7.4,7.4,0,0,1,3.77-2.79Z"/><path class="cls-19" d="M115.75,192.49a13.3,13.3,0,0,0-4.21,5.73,19.09,19.09,0,0,0-.9,3.37c-.22,1.2-.36,2.47-.58,3.9a7.9,7.9,0,0,1-1.64-3.91,8.86,8.86,0,0,1,.48-4.36,8,8,0,0,1,2.7-3.57A5.63,5.63,0,0,1,115.75,192.49Z"/><path class="cls-19" d="M110.72,195.42a7.4,7.4,0,0,1,4.32,1.83,8.4,8.4,0,0,1,2.3,3.77,10.37,10.37,0,0,1,.4,4.15,22.74,22.74,0,0,1-.78,3.94,22.36,22.36,0,0,0,0-3.94,9.87,9.87,0,0,0-1-3.59,6.53,6.53,0,0,0-2.22-2.62,4.89,4.89,0,0,0-3-.71Z"/><path class="cls-20" d="M302.73,145.18c-.64-10-12.43-24-28.94-36.8a9.58,9.58,0,0,0,1.79-2c9.3-14.24,6.68-44.46-25-49.11s-88.92-2.62-103.15,11.62-31.38,49.69-31.09,59c.08,2.72,2,3.93,4.9,3.88-6.84,8.22-12.39,18-13.92,28.78-4,28.15,11,32.74,11,32.74s.61-4,.31-13.46c1.84,16.52,8,37.94,16.22,39.17-3.37-21.34.22-44.47.83-48.13A151.12,151.12,0,0,0,137,189.91c4.71-9.7,10.26-40.74,13.68-66.22a99.45,99.45,0,0,0,20.63-23,33.24,33.24,0,0,1-6,12.52c9.71-8.23,11.64-13.92,12.26-20l1.47-.48c10.69,20.1,38.92,41.54,62.84,41-12.64-4.82-31.3-16.85-31.3-16.85s33.11,4.21,54.78,33.71c-3-15.65-10.23-24.68-10.23-24.68s24.68,25.28,25.28,77C289.49,195.14,304.54,173.47,302.73,145.18Z"/><path class="cls-4" d="M274.12,120.7,267,107.65l5-7.14,14.73,2.12c1.3.19,1.56,1.33,1.2,2.76-1.46,5.91-6.55,12.54-10.73,15.47C275.75,121.82,274.75,121.85,274.12,120.7Z"/><path class="cls-4" d="M243.87,99.71l14.73,2.12,5-7.14L256.4,81.64c-.63-1.15-1.24-1.36-3-.16C247.63,85.41,244,92.88,242.66,97,242.15,98.55,242.48,99.8,243.87,99.71Z"/><rect class="cls-4" x="257.79" y="93.96" width="14.74" height="14.74" rx="4.82" ry="4.82" transform="translate(105.03 -133.05) rotate(34.75)"/><path class="cls-21" d="M222.28,216c-10.26,3-25.44,3.65-33.82,1C196.64,243.62,221.95,246.61,222.28,216Z"/><path class="cls-6" d="M209.66,229.84a3.62,3.62,0,0,0-1.41,3.08c1.52-4,7.45-6.42,10.54-1.32-3.89,7-11.17,8-17.67,4C202.55,229.08,209.66,229.84,209.66,229.84Z"/><path class="cls-4" d="M174.94,80.13a28.35,28.35,0,0,0,1.67,5.4,43.41,43.41,0,0,0,2.56,5,72.78,72.78,0,0,0,6.43,9.18,101.5,101.5,0,0,0,7.57,8.27,102.53,102.53,0,0,0,8.38,7.44,97.52,97.52,0,0,0,9.07,6.56,86.85,86.85,0,0,0,9.76,5.46,65.89,65.89,0,0,0,21.55,6.28c-7.64.71-15.46-.91-22.65-3.76a71.23,71.23,0,0,1-10.42-5.15,91.92,91.92,0,0,1-9.52-6.65,84.92,84.92,0,0,1-15.92-16.81,58.43,58.43,0,0,1-5.78-10.06,38.8,38.8,0,0,1-1.94-5.47A23,23,0,0,1,174.94,80.13Z"/><path class="cls-22" d="M202.77,421.2a26.53,26.53,0,0,0,10.87-2.72c33.88-3.22,92.41-19.55,116.58-27.46l43.58-129.89-1.87-1.79c-39.53,11.63-97.81,30.42-146.31,36.8-4.15,5.36-12.87,9.19-22.55,9.42-7.63.18-19.86-3.38-24.68-9.42-48.5-6.38-106.92-25.2-146.44-36.84l-1.74,1.83L73.79,391c34.21,11,81.45,21.16,116.58,27.46A29.23,29.23,0,0,0,202.77,421.2Z"/><path class="cls-6" d="M202.77,423.54a26.53,26.53,0,0,0,10.87-2.72c33.88-3.22,92.41-19.55,116.58-27.46l43.58-132.24c-39.53,11.64-99.68,31-148.18,37.35-4.15,5.36-12.87,9.19-22.55,9.42-7.63.18-19.86-3.38-24.68-9.42-48.5-6.38-108.66-25.71-148.18-37.35L73.79,393.36c34.21,11,81.45,21.16,116.58,27.46A29.23,29.23,0,0,0,202.77,423.54Z"/><g class="cls-23"><path class="cls-24" d="M216.77,354a42.76,42.76,0,0,1-31.44,0c-23.56,40.66-80.5,44.59-124.48.13l12.94,39.27c34.21,11,81.45,21.16,116.58,27.46a29.23,29.23,0,0,0,12.4,2.72,26.53,26.53,0,0,0,10.87-2.72c33.88-3.22,92.41-19.55,116.58-27.46l11.86-36C278.13,425.77,216.77,354,216.77,354Z"/></g><polygon class="cls-25" points="73.65 314.76 141.96 332.13 137.11 309.54 66.39 291.9 73.65 314.76"/><path class="cls-4" d="M204.71,114.86a53.3,53.3,0,0,1,9,1.21c1.49.28,2.95.7,4.43,1.05s2.91.86,4.37,1.29a90.45,90.45,0,0,1,16.71,7.31A81.46,81.46,0,0,1,254,136.42a64.18,64.18,0,0,1,11.38,14.17A108.21,108.21,0,0,0,252.68,138c-1.19-.9-2.37-1.8-3.53-2.72a21.66,21.66,0,0,0-1.8-1.3l-1.84-1.25c-.62-.41-1.21-.86-1.83-1.26l-1.9-1.16c-1.27-.77-2.51-1.58-3.84-2.26a126.9,126.9,0,0,0-16.11-7.68c-2.79-1.06-5.58-2.13-8.44-3S207.65,115.55,204.71,114.86Z"/><path class="cls-4" d="M246.33,117.53a71.69,71.69,0,0,1,16.07,17.41,106.24,106.24,0,0,1,10.73,21.25A135.22,135.22,0,0,1,281.31,203l-1.39-.66a45.94,45.94,0,0,0,6.73-7.07,67.29,67.29,0,0,0,5.46-8.18,82.31,82.31,0,0,0,7.54-18.2,84.35,84.35,0,0,0,3-19.54,93,93,0,0,0-.2-9.93c-.26-3.31-.71-6.59-1.26-9.87a92.54,92.54,0,0,1,1.68,9.83,93.62,93.62,0,0,1,.56,10,82.22,82.22,0,0,1-2.54,19.85,76.4,76.4,0,0,1-7.4,18.64,68.88,68.88,0,0,1-5.53,8.42,47.55,47.55,0,0,1-6.93,7.38l-1.38,1.17V203a147.57,147.57,0,0,0-1.95-23.47,132.87,132.87,0,0,0-5.89-22.8,105.06,105.06,0,0,0-10.14-21.25A75.36,75.36,0,0,0,246.33,117.53Z"/><path class="cls-4" d="M135.51,152.82c0,3.11.12,6.2.29,9.28s.44,6.16.69,9.24.61,6.14.94,9.21.74,6.14,1.12,9.17l-3-.28c1-3.29,1.84-6.65,2.69-10s1.7-6.71,2.49-10.07,1.58-6.73,2.29-10.12q.56-2.53,1-5.08c.33-1.7.73-3.38,1-5.08,1.33-6.79,2.42-13.62,3.42-20.47s1.62-13.75,2.15-20.7c.18,3.47.45,7,.36,10.45,0,1.74,0,3.5-.08,5.24l-.27,5.23c-.5,7-1.26,13.92-2.41,20.81-.56,3.45-1.16,6.89-1.88,10.31s-1.42,6.84-2.25,10.23c-1.65,6.79-3.47,13.51-5.66,20.19l-2.25,6.83-.74-7.11c-.33-3.12-.51-6.21-.69-9.32s-.28-6.22-.32-9.33,0-6.23.14-9.34S135,155.89,135.51,152.82Z"/><path class="cls-4" d="M106.3,163.75c.52,2.86,1,5.6,1.52,8.29a72.66,72.66,0,0,0,2,7.86,36.13,36.13,0,0,0,3.18,7.25,21.38,21.38,0,0,0,5.34,6.12,12.93,12.93,0,0,1-7.57-4.47,22.14,22.14,0,0,1-4.3-7.82,29.94,29.94,0,0,1-1.42-8.66A25.56,25.56,0,0,1,106.3,163.75Z"/><path class="cls-4" d="M117.51,156.28c.58,5.65,1.1,11.24,1.79,16.8.37,2.77.69,5.55,1.15,8.3s.85,5.51,1.41,8.23,1.09,5.45,1.77,8.14,1.44,5.34,2.29,8c.43,1.31.95,2.58,1.47,3.85a30.07,30.07,0,0,0,1.81,3.68,17.39,17.39,0,0,0,2.36,3.32,9.09,9.09,0,0,0,3.32,2.42,8.28,8.28,0,0,1-4-1.69,16.91,16.91,0,0,1-3.14-3.07,34.79,34.79,0,0,1-4.41-7.5,64.16,64.16,0,0,1-3-8.1c-.8-2.76-1.44-5.55-2-8.35a110.56,110.56,0,0,1-1.83-17A90.82,90.82,0,0,1,117.51,156.28Z"/><path class="cls-4" d="M172.11,91.61a14,14,0,0,1,.61,5.86,24.67,24.67,0,0,1-1.23,5.79,28.7,28.7,0,0,1-2.47,5.36,19.41,19.41,0,0,1-3.66,4.6c.88-1.75,1.68-3.48,2.43-5.22s1.43-3.51,2-5.3a50,50,0,0,0,1.54-5.43A31,31,0,0,0,172.11,91.61Z"/><path class="cls-24" d="M203.13,307.9c-7.63.18-19.86-3.38-24.68-9.42l-.31,0,12.32,122.4a29.27,29.27,0,0,0,12.37,2.7,26.53,26.53,0,0,0,10.87-2.72l.19,0,11.51-122C221.16,304,212.61,307.67,203.13,307.9Z"/><path class="cls-25" d="M187.35,328.08a42.06,42.06,0,0,0,30,0l.85-8a46.77,46.77,0,0,1-31.65,0Z"/><path class="cls-25" d="M187.35,332.91a42.06,42.06,0,0,0,30,0l.85-3a46.77,46.77,0,0,1-31.65,0Z"/><path class="cls-26" d="M273.76,118.32l-7.14-13.05,5-7.14,14.73,2.12c1.3.19,1.56,1.33,1.2,2.76-1.46,5.91-6.55,12.54-10.73,15.47C275.39,119.44,274.39,119.47,273.76,118.32Z"/><path class="cls-27" d="M243.51,97.33l14.73,2.12,5-7.14L256,79.26c-.63-1.15-1.24-1.36-3-.16-5.76,3.93-9.41,11.4-10.73,15.47C241.79,96.17,242.12,97.42,243.51,97.33Z"/><rect class="cls-28" x="257.43" y="91.58" width="14.74" height="14.74" rx="4.82" ry="4.82" transform="translate(103.61 -133.28) rotate(34.75)"/><ellipse class="cls-29" cx="254.41" cy="184.83" rx="10.68" ry="2.77"/><ellipse class="cls-29" cx="154.37" cy="184.83" rx="10.68" ry="2.77"/><ellipse class="cls-25" cx="203.18" cy="404.02" rx="6.2" ry="8.81"/><g class="cls-23"><path class="cls-24" d="M343.1,307.61c-5,2.45-9.27,9.27-3.27,12.18-2.27,4.18.09,6.09.64,6.63-2.1,4.11,1.47,10.42,10,5.37l11.86-36C355.21,297.17,342.57,301.65,343.1,307.61Z"/></g><path class="cls-30" d="M357.72,316.68c2.68,2.54,2.22,11-9.34,12.55-4.78.63-6.1-1.32-5.75-2.75.66-2.75,4.88-4.36,9.39-5.56,3.36-.89,4.26-1.19,4.26-1.19Z"/><path class="cls-31" d="M349.12,326.09c5.22-.58,8.31-2.54,9.76-4.22a5.58,5.58,0,0,0-1.16-5.2l-1.44,3s-.9.3-4.26,1.19c-4.51,1.2-8.72,2.81-9.39,5.56a2,2,0,0,0,1.2,2.27C343.69,327.83,345,326.55,349.12,326.09Z"/><path class="cls-32" d="M360.78,308.13c3.79,3,4,13.85-11.16,16.79-6.25,1.22-8.18-1.15-7.86-3,.62-3.56,6-6,11.88-7.9,4.36-1.43,5.52-1.89,5.52-1.89Z"/><path class="cls-31" d="M345.76,320.74c5.83-.2,13.4-2.74,17.07-8.46a6.26,6.26,0,0,0-2.07-4.15l-1.62,4s-1.16.46-5.52,1.89c-5.84,1.91-11.26,4.34-11.88,7.9,0,.05,0,.11,0,.16C342.62,321,344.24,320.79,345.76,320.74Z"/><path class="cls-33" d="M363.2,298.67c4.27,3.78,4,16.85-13.73,19.81-7.33,1.22-9.46-1.71-9-3.93.88-4.27,7.28-7,14.17-9.05,5.13-1.55,6.5-2.06,6.5-2.06Z"/><path class="cls-31" d="M355.2,311.07c8.32-2.16,9.12-5.66,9.88-9.24a6.77,6.77,0,0,0-1.89-3.17l-2.07,4.77s-1.37.51-6.5,2.06c-6.88,2.08-13.29,4.78-14.17,9.05-.26,1.27.34,2.78,2.27,3.6a3.75,3.75,0,0,1,2.37-5.32C348.64,311.86,351.24,312.1,355.2,311.07Z"/><path class="cls-34" d="M363.26,293c3.79,2.82,4.49,13.64-9.94,17.33-6,1.53-7.93-.74-7.71-2.61.42-3.59,5.52-6.28,11.06-8.48,4.13-1.64,5.22-2.16,5.22-2.16Z"/><path class="cls-31" d="M355.12,302.71c5.44-1.53,9.14-2.86,10.35-5.6a6.35,6.35,0,0,0-2.21-4.13l-1.37,4.08s-1.1.52-5.22,2.16c-5.54,2.2-10.63,4.89-11.06,8.48a2.35,2.35,0,0,0,.17,1.11C346.1,306.6,348.53,304.57,355.12,302.71Z"/><g class="cls-23"><path class="cls-24" d="M60.85,307.61c5,2.45,9.27,9.27,3.27,12.18,2.27,4.18-.09,6.09-.64,6.63,2.1,4.11-1.47,10.42-10,5.37l-11.86-36C48.75,297.17,61.39,301.65,60.85,307.61Z"/></g><path class="cls-35" d="M46.24,316.68c-2.68,2.54-2.22,11,9.34,12.55,4.78.63,6.1-1.32,5.75-2.75-.66-2.75-4.88-4.36-9.39-5.56-3.36-.89-4.26-1.19-4.26-1.19Z"/><path class="cls-31" d="M54.84,326.09c-5.22-.58-8.31-2.54-9.76-4.22a5.58,5.58,0,0,1,1.16-5.2l1.44,3s.9.3,4.26,1.19c4.51,1.2,8.72,2.81,9.39,5.56a2,2,0,0,1-1.2,2.27C60.26,327.83,58.93,326.55,54.84,326.09Z"/><path class="cls-36" d="M43.18,308.13c-3.79,3-4,13.85,11.16,16.79,6.25,1.22,8.18-1.15,7.86-3-.62-3.56-6-6-11.88-7.9-4.36-1.43-5.52-1.89-5.52-1.89Z"/><path class="cls-31" d="M58.19,320.74c-5.83-.2-13.4-2.74-17.07-8.46a6.26,6.26,0,0,1,2.07-4.15l1.62,4s1.16.46,5.52,1.89c5.84,1.91,11.26,4.34,11.88,7.9,0,.05,0,.11,0,.16C61.34,321,59.72,320.79,58.19,320.74Z"/><path class="cls-37" d="M40.76,298.67c-4.27,3.78-4,16.85,13.73,19.81,7.33,1.22,9.46-1.71,9-3.93-.88-4.27-7.28-7-14.17-9.05-5.13-1.55-6.5-2.06-6.5-2.06Z"/><path class="cls-31" d="M48.75,311.07c-8.32-2.16-9.12-5.66-9.88-9.24a6.77,6.77,0,0,1,1.89-3.17l2.07,4.77s1.37.51,6.5,2.06c6.88,2.08,13.29,4.78,14.17,9.05.26,1.27-.34,2.78-2.27,3.6a3.75,3.75,0,0,0-2.37-5.32C55.32,311.86,52.72,312.1,48.75,311.07Z"/><path class="cls-38" d="M40.7,293c-3.79,2.82-4.49,13.64,9.94,17.33,6,1.53,7.93-.74,7.71-2.61-.42-3.59-5.52-6.28-11.06-8.48-4.13-1.64-5.22-2.16-5.22-2.16Z"/><path class="cls-31" d="M48.84,302.71c-5.44-1.53-9.14-2.86-10.35-5.6A6.35,6.35,0,0,1,40.7,293l1.37,4.08s1.1.52,5.22,2.16c5.54,2.2,10.63,4.89,11.06,8.48a2.35,2.35,0,0,1-.17,1.11C57.85,306.6,55.43,304.57,48.84,302.71Z"/><ellipse class="cls-39" cx="204.2" cy="581.83" rx="176.8" ry="5.83"/><rect class="cls-6" x="68.38" y="504.18" width="278.85" height="78.33" rx="8.58" ry="8.58"/><path class="cls-24" d="M338.17,504.18H77.41a9,9,0,0,0-8.67,6.47h278.1A9,9,0,0,0,338.17,504.18Z"/><path class="cls-24" d="M68.38,561v12.5a9,9,0,0,0,9,9H338.18a9,9,0,0,0,9-9V561Z"/><rect class="cls-40" x="321.35" y="509.91" width="11.54" height="65.73"/><rect class="cls-40" x="85.43" y="509.91" width="11.54" height="65.73"/><rect class="cls-40" x="335.13" y="509.91" width="2.98" height="65.73"/><rect class="cls-40" x="314.7" y="509.91" width="2.98" height="65.73"/><rect class="cls-40" x="79.35" y="509.91" width="2.98" height="65.73"/><rect class="cls-40" x="155.17" y="533.93" width="103.33" height="7.29"/><rect class="cls-40" x="172.18" y="544.13" width="69.32" height="4.89"/><rect class="cls-41" x="321.35" y="560.89" width="11.54" height="14.75"/><rect class="cls-41" x="85.43" y="560.89" width="11.54" height="14.75"/><rect class="cls-41" x="335.13" y="560.89" width="2.98" height="14.75"/><rect class="cls-41" x="314.7" y="560.89" width="2.98" height="14.75"/><rect class="cls-41" x="79.35" y="560.89" width="2.98" height="14.75"/><rect class="cls-42" x="92.85" y="426.82" width="229.9" height="47.57" rx="4.83" ry="4.83"/><path class="cls-43" d="M92.85,454.8v14.67a4.92,4.92,0,0,0,4.92,4.92H317.84a4.92,4.92,0,0,0,4.92-4.92V454.8Z"/><rect class="cls-40" x="290.96" y="430.64" width="11.94" height="40.08"/><rect class="cls-40" x="284.75" y="430.64" width="3.22" height="40.08"/><rect class="cls-40" x="117.29" y="430.64" width="3.22" height="40.08"/><rect class="cls-40" x="111.39" y="430.64" width="3.22" height="40.08"/><rect class="cls-41" x="290.96" y="454.78" width="11.94" height="15.93"/><rect class="cls-41" x="284.75" y="454.78" width="3.22" height="15.93"/><rect class="cls-41" x="117.29" y="454.78" width="3.22" height="15.93"/><rect class="cls-41" x="111.39" y="454.78" width="3.22" height="15.93"/><rect class="cls-44" x="82.13" y="474.37" width="251.35" height="29.77" rx="7.04" ry="7.04"/><path class="cls-45" d="M82.13,492.45v4.49a7.19,7.19,0,0,0,7.19,7.19h237a7.19,7.19,0,0,0,7.19-7.19v-4.49Z"/><path class="cls-45" d="M326.28,474.37h-237a7.18,7.18,0,0,0-5.94,3.14H332.22A7.18,7.18,0,0,0,326.28,474.37Z"/><rect class="cls-40" x="318.07" y="476.27" width="5.96" height="25.49"/><rect class="cls-40" x="314.6" y="476.27" width="2.17" height="25.49"/><rect class="cls-40" x="93.38" y="476.27" width="2.17" height="25.49"/><rect class="cls-41" x="93.38" y="492.45" width="2.2" height="9.32"/><rect class="cls-41" x="318.07" y="492.58" width="5.96" height="9.18"/><rect class="cls-41" x="314.6" y="492.58" width="2.17" height="9.18"/><path class="cls-2" d="M217.29,422c14.29-7.34,32.76-17,48.69-25.26,11.94-6.19,32.62,12.54,11.8,25.28-9.82,6-17.46,4.85-17.46,4.85Z"/><path class="cls-46" d="M285.82,410.21c-.71,15.63-4.31,53-4.31,53s-10.93,17.91-24.19,14.19c-.23-23.73,1.39-45.09,1.86-53.74S286.11,403.87,285.82,410.21Z"/><path class="cls-8" d="M285.76,411.4c0-.4,0-.81.06-1.18.29-6.34-26.17,4.86-26.64,13.5l0,.76C265.18,417.37,279.08,411.34,285.76,411.4Z"/><path class="cls-8" d="M257.92,446.46c-.4,9.07-.71,19.76-.6,31,13.26,3.72,24.19-14.19,24.19-14.19s1.41-14.71,2.64-29.53C274.91,443.12,263.62,448,257.92,446.46Z"/><path class="cls-47" d="M309.2,436.37c-4.31-7.16-19.15-6.68-27.89-1.79-7.12,4-14.24,10.15-18.29,20a5.6,5.6,0,0,1-5.46,3.74v-2.92c-5.2,3.86-4,19.22-.85,24.19.84,1.48,12.86-4.09,18.42-8.91S313.34,443.24,309.2,436.37Z"/><path class="cls-48" d="M290.44,466.74C276,478.87,262.05,486.92,258.09,482a18,18,0,0,1-1.76-3.07c-2.39-5.56,5.81-18.37,19.32-29.74,14.41-12.13,29.4-18,33.49-13.18.41.48,1.92,2.45,2,4C311.66,446,303.41,455.81,290.44,466.74Z"/><ellipse class="cls-49" cx="284.39" cy="460.5" rx="34.11" ry="11.49" transform="translate(-229.74 291.36) rotate(-40.09)"/><path class="cls-50" d="M259.23,426.34a2.74,2.74,0,0,1-2.34-.88,3.89,3.89,0,0,1-.92-2,10.44,10.44,0,0,1,.12-3.83,25,25,0,0,1,1-3.55l.66-1.71.73-1.67-.52,1.74-.44,1.76a24.32,24.32,0,0,0-.54,3.54,9.4,9.4,0,0,0,.29,3.39,2.47,2.47,0,0,0,.72,1.21,1.05,1.05,0,0,0,1,.23Z"/><path class="cls-2" d="M185.71,422C171.43,414.68,153,405,137,396.76c-11.94-6.19-32.62,12.54-11.8,25.28,9.82,6,18.19,5,18.19,5Z"/><path class="cls-51" d="M117.19,410.21c.71,15.63,4.31,53,4.31,53s10.93,17.91,24.19,14.19c.23-23.73-1.39-45.09-1.86-53.74S116.9,403.87,117.19,410.21Z"/><path class="cls-8" d="M117.24,411.4c0-.4,0-.81-.06-1.18-.29-6.34,26.17,4.86,26.64,13.5l0,.76C137.82,417.37,123.92,411.34,117.24,411.4Z"/><path class="cls-8" d="M145.09,446.46c.4,9.07.71,19.76.6,31-13.26,3.72-24.19-14.19-24.19-14.19s-1.41-14.71-2.64-29.53C128.09,443.12,139.38,448,145.09,446.46Z"/><path class="cls-47" d="M93.8,436.37c4.31-7.16,19.15-6.68,27.89-1.79,7.12,4,14.24,10.15,18.29,20a5.6,5.6,0,0,0,5.46,3.74v-2.92c5.2,3.86,4,19.22.85,24.19-.84,1.48-12.86-4.09-18.42-8.91S89.66,443.24,93.8,436.37Z"/><path class="cls-48" d="M112.56,466.74C127,478.87,140.95,486.92,144.91,482a18,18,0,0,0,1.76-3.07c2.39-5.56-5.81-18.37-19.32-29.74C112.95,437,98,431.13,93.87,436c-.41.48-1.92,2.45-2,4C91.35,446,99.59,455.81,112.56,466.74Z"/><ellipse class="cls-49" cx="118.61" cy="460.5" rx="11.49" ry="34.11" transform="translate(-310.07 254.68) rotate(-49.91)"/><path class="cls-50" d="M144,424.6a1.05,1.05,0,0,0,1-.23,2.47,2.47,0,0,0,.72-1.21,9.4,9.4,0,0,0,.29-3.39,24.32,24.32,0,0,0-.54-3.54l-.44-1.76-.52-1.74.73,1.67.66,1.71a25,25,0,0,1,1,3.55,10.44,10.44,0,0,1,.12,3.83,3.89,3.89,0,0,1-.92,2,2.74,2.74,0,0,1-2.34.88Z"/><path class="cls-52" d="M161.24,29.63C130.59,42.36,110,65.18,105.85,80.15c27.32-9.73,62.87-34.43,62.87-34.43a54.41,54.41,0,0,0-4.49,16.09c10.85-7.11,12.35-16.09,12.35-16.09s20.58,14.6,44.54,13.47c-6-4.87-22.45-13.1-22.45-13.1s27.32,7.48,42.66,2.25C235,45,212.13,44.6,212.13,44.6s33.9-.81,41.76-9.79C226.58,20.59,191.88,16.91,161.24,29.63Z"/></g></g></svg>