<svg xmlns="http://www.w3.org/2000/svg" width="213.709mm" height="187.605mm" viewBox="0 0 605.79 531.792">
  <title>автобус</title>
  <g>
    <path d="M166.068,518.029l68.69,35.154s23.761,16.341,41.16,12.055,83.262-43.37,83.262-43.37l365.513-223.19s20.578-11.695,8.394-19.755c-8.763-5.8-71.469-51.657-71.469-51.657L160.085,452.044,144.83,489.367s-2.769,7.991,2.24,14.462S166.068,518.029,166.068,518.029Z" transform="translate(-131.154 -34.162)" fill="#232323"/>
    <path d="M367.9,440.773s13.23-7,18.641-3.82,3.609,18.462,3.609,18.462-1.829,14.005.288,15.916,9.935,5.093,14.144,3.183,22.135-11.664,22.135-11.664S455.7,419.129,453.292,413.4s-26.576-25.465-26.576-25.465l-49.2,10.824L367.9,417.218Z" transform="translate(-131.154 -34.162)" fill="#505555"/>
    <path d="M622.273,282.892a12.488,12.488,0,0,1,10,1.513c5.411,3.183,12.252,13.13,12.252,13.13s-1.828,14.005.289,15.915,9.935,5.093,14.144,3.183,11.426-5.73,11.426-5.73c1.041-15.084,39.785-51.03,37.284-55.385-3.076-5.358-26.575-25.465-26.575-25.465l-49.2,10.824-9.622,18.461Z" transform="translate(-131.154 -34.162)" fill="#505555"/>
    <path d="M390.453,470.579c-3.477,10.722-2.615,29.268-10.487,33.05-4.485,2.154-17.625-7.677-22.221-9.481-14.146-5.555-17.532-27.646-7.694-45.856,8.445-15.628,23.009-20.878,32.8-14.146,5.07,3.487,16.765,8.4,17.885,15.615C401.632,455.549,392.607,463.936,390.453,470.579Z" transform="translate(-131.154 -34.162)" fill="#373d3d"/>
    <path d="M408.144,481.545c-4.823,16.745-18.23,28.622-30.333,23.928-13.4-5.2-17.027-26.911-8.152-45.1,7.631-15.635,21.246-21.16,30.608-14.713C408.918,451.62,412.384,466.821,408.144,481.545Z" transform="translate(-131.154 -34.162)" fill="#444a4a"/>
    <path d="M400.986,479.313c-3.1,10.321-11.292,17.452-18.5,14.494-7.938-3.255-10.069-16.5-4.739-27.716,4.661-9.812,13.01-13.378,18.729-9.328C401.769,460.514,403.753,470.113,400.986,479.313Z" transform="translate(-131.154 -34.162)" fill="#7c8484"/>
    <path d="M642.121,316.357c-3.477,10.722-2.615,29.27-10.487,33.051-4.485,2.154-17.626-7.676-22.221-9.482-14.145-5.553-17.532-27.645-7.694-45.855,8.445-15.629,23.009-20.879,32.8-14.146,5.07,3.487,16.766,8.4,17.885,15.614C653.3,301.329,644.274,309.716,642.121,316.357Z" transform="translate(-131.154 -34.162)" fill="#373d3d"/>
    <path d="M659.81,327.325c-4.821,16.745-18.229,28.62-30.331,23.927-13.4-5.2-17.027-26.91-8.151-45.1,7.63-15.635,21.245-21.159,30.607-14.713C660.586,297.4,664.052,312.6,659.81,327.325Z" transform="translate(-131.154 -34.162)" fill="#444a4a"/>
    <path d="M652.653,325.091c-3.1,10.322-11.291,17.452-18.5,14.5-7.939-3.255-10.07-16.5-4.739-27.717,4.661-9.811,13.011-13.377,18.729-9.328C653.437,306.292,655.421,315.892,652.653,325.091Z" transform="translate(-131.154 -34.162)" fill="#7c8484"/>
    <path d="M730.482,244.989l.337-145.363-67.653,25.107L293.331,376.793l-86.595-59.205-42.4-6.685s-29.768,148.969-31.053,159.474,8.5,18.143,8.5,18.143,101.427,53.15,106.826,55.385c10.824,4.483,13.653,7.751,22.323,6.685,7.077-.87,25.551-11.459,25.551-11.459l52.156-29.6a32.9,32.9,0,0,0,9.633-9.19c3.242-4.668,3.934-14.683,3.934-14.683l1.4-14.333h0l.461-4.725s1.542-13.156,4.018-17.16a27.985,27.985,0,0,1,7.614-8.352c2.986-3.065,5.138-3.9,6.932-5.087,6.431-3.161,7.362-3.765,14.132-6.844,13.5-6.138,12.77,9.47,12.77,9.47s-.742,18.381,1.684,24.112a7.658,7.658,0,0,0,8.136,4.773S592.807,357.695,604.534,350.055A25.627,25.627,0,0,0,616.261,330s4.209-29.468,6.012-35.2,14.087-14.376,25.814-19.151,11.727,0,13.531,4.775,1.247,15.673,2.223,24.267c.759,6.671,6.54,6.207,6.54,6.207s42.961-28.671,52.884-37.266S730.482,244.989,730.482,244.989Z" transform="translate(-131.154 -34.162)" fill="#5b78bb"/>
    <path d="M730.664,244.989l.088-37.878L423.911,402.091l-146.033,92.8-31.549,47.841c1.238.613,2.093,1.022,2.468,1.178,10.825,4.483,13.654,7.751,22.323,6.685,7.078-.87,25.551-11.459,25.551-11.459l52.157-29.6a32.9,32.9,0,0,0,9.633-9.19c3.242-4.668,3.932-14.683,3.932-14.683l1.4-14.333h0l.461-4.725s1.542-13.156,4.018-17.16a27.991,27.991,0,0,1,7.613-8.352c2.987-3.065,5.14-3.9,6.933-5.087,6.431-3.161,7.362-3.766,14.132-6.844,13.5-6.138,12.77,9.47,12.77,9.47s-.743,18.381,1.684,24.112a7.658,7.658,0,0,0,8.136,4.773S592.99,357.695,604.716,350.055A25.627,25.627,0,0,0,616.442,330s4.209-29.468,6.014-35.2,14.087-14.376,25.814-19.151,11.726,0,13.53,4.775,1.248,15.673,2.225,24.267c.759,6.671,6.539,6.207,6.539,6.207s42.961-28.671,52.883-37.266S730.664,244.989,730.664,244.989Z" transform="translate(-131.154 -34.162)" fill="#3c61ad"/>
    <path d="M294.009,376.331l-.678.462-50.063-73.051L164.341,310.9s-29.768,148.969-31.053,159.474,8.5,18.143,8.5,18.143,69.471,37.289,96.666,50.532h0l10.656,5.063c2.111.893,3.638,1.654,4.854,2.307,0,0,12.907,2.785,15.914-3.686s7.817-47.85,7.817-47.85Z" transform="translate(-131.154 -34.162)" fill="#718ec8"/>
    <path d="M164.341,310.9,604.534,34.162S633.4,44.5,659.558,56.9s71.261,42.724,71.261,42.724L293.331,376.793s-31.993-17.507-69.157-36.606S164.341,310.9,164.341,310.9Z" transform="translate(-131.154 -34.162)" fill="#799bd0"/>
    <polygon points="39.051 291.047 19.347 394.26 30.481 419.344 29.013 431.996 105.349 470.855 112.565 460.319 136.263 452.766 152.769 348.849 39.051 291.047" fill="#4164af"/>
    <path d="M156.566,472.353c.47,5.168-2.366,9.687-6.332,10.091s-7.565-3.458-8.034-8.627,2.364-9.687,6.332-10.092S156.1,467.184,156.566,472.353Z" transform="translate(-131.154 -34.162)" fill="#4c84c4"/>
    <path d="M151.051,454.636c.307,3.381-1.546,6.334-4.14,6.6s-4.946-2.262-5.254-5.641,1.546-6.334,4.14-6.6S150.744,451.257,151.051,454.636Z" transform="translate(-131.154 -34.162)" fill="#4c84c4"/>
    <path d="M253.792,524.93c-.987,5.371-5.13,9.035-9.252,8.187s-6.662-5.891-5.674-11.262,5.129-9.036,9.25-8.187S254.78,519.559,253.792,524.93Z" transform="translate(-131.154 -34.162)" fill="#4c84c4"/>
    <path d="M264.7,510.287c-.718,3.9-3.729,6.566-6.723,5.949s-4.842-4.282-4.125-8.184,3.728-6.566,6.723-5.949S265.416,506.384,264.7,510.287Z" transform="translate(-131.154 -34.162)" fill="#4c84c4"/>
    <path d="M147.941,442.664c.184,2.038-.932,3.82-2.5,3.979s-2.982-1.363-3.168-3.4.932-3.818,2.5-3.978S147.755,440.628,147.941,442.664Z" transform="translate(-131.154 -34.162)" fill="#4c84c4"/>
    <path d="M270.7,499.627c-.447,2.427-2.318,4.085-4.183,3.7s-3.01-2.663-2.564-5.09,2.318-4.084,4.182-3.7S271.148,497.2,270.7,499.627Z" transform="translate(-131.154 -34.162)" fill="#4c84c4"/>
    <polygon points="19.347 394.26 136.263 452.766 152.769 348.849 39.051 291.047 19.347 394.26" fill="#525555"/>
    <path d="M152.935,494.482s6.895,2.381,8.474,0l1.578-2.381,58.895,29.767s-.172,4.061,1.858,6.449,5.322,5.8,5.322,5.8Z" transform="translate(-131.154 -34.162)" fill="#687373"/>
    <path d="M162.987,492.1s1.961-5.207,1.509-9.743-4.33-16.2-4.33-16.2L236.5,505.017s-8.082,5.7-10.6,8.092c-3.383,3.216-4.023,8.759-4.023,8.759Z" transform="translate(-131.154 -34.162)" fill="#4164af"/>
    <polygon points="22.531 427.09 117.753 474.109 94.751 478.947 33.342 448.195 29.013 438.922 22.531 427.09" fill="#9eb5de"/>
    <polygon points="21.217 398.474 136.174 456.586 136.263 452.766 16.808 393.242 16.808 398.654 21.217 398.474" fill="#9eb5de"/>
    <path d="M189.562,448.248s19.044-14.67,33.778-33.574,28.92-47.466,28.92-47.466l-79.8-40.548-19.7,103.211Z" transform="translate(-131.154 -34.162)" fill="#7e8988"/>
    <g>
      <path d="M286.115,474.764l44.2-27.474V364.163l-32.173,20.906Z" transform="translate(-131.154 -34.162)" fill="#5d6463"/>
      <path d="M723.6,115.143,550.411,224.169v.344L377.691,333.435v-.058l-39.259,25.511v83.356l36.375-22.609h0l0,0,2.863-1.779v-.042l176.573-112.4v-.262L723.6,198.7Z" transform="translate(-131.154 -34.162)" fill="#454848"/>
    </g>
    <polygon points="316.426 415.476 316.426 251.832 376.782 213.716 376.782 377.683 316.426 415.476" fill="#6298d1"/>
    <polygon points="320.911 253.546 320.911 405.849 345.235 390.192 345.235 237.312 320.911 253.546" fill="#454848"/>
    <polygon points="347.972 236.157 347.972 388.459 372.296 372.802 372.296 219.923 347.972 236.157" fill="#454848"/>
    <polygon points="538.928 110.901 538.928 271.011 543.414 273.962 571.702 254.638 571.702 90.943 538.928 110.901" fill="#6298d1"/>
    <polygon points="543.414 112.971 543.414 265.274 567.737 249.616 567.737 96.737 543.414 112.971" fill="#454848"/>
    <polygon points="116.31 318.124 560.143 40.321 599.665 65.464 162.178 342.631 116.31 318.124" fill="#4164af"/>
    <polygon points="82.436 300.625 528.404 22.74 560.143 40.321 116.31 318.124 82.436 300.625" fill="#4d7abd"/>
    <polygon points="86.058 265.759 159.021 302.279 159.021 296.317 86.058 259.553 86.058 265.759" fill="#355a88"/>
    <polygon points="228.027 257.324 159.021 302.279 159.021 296.317 228.027 251.436 228.027 257.324" fill="#355a88"/>
    <polygon points="86.058 259.553 159.021 215.811 228.027 251.436 159.021 296.317 86.058 259.553" fill="#456eab"/>
    <polygon points="360.135 96.794 433.097 133.314 433.097 127.352 360.135 90.587 360.135 96.794" fill="#355a88"/>
    <polygon points="551.858 55.993 433.097 133.314 433.097 127.352 551.858 50.105 551.858 55.993" fill="#355a88"/>
    <polygon points="360.135 90.587 479.283 15.474 551.858 50.105 433.097 127.352 360.135 90.587" fill="#456eab"/>
    <path d="M157.019,347.858l-13.21-5.92a4.792,4.792,0,0,0-4,2.961c-1.129,2.818-8.654,38-8.654,38s2.175,3.455,5.6,3.455a6.76,6.76,0,0,0,5.308-3.054l2.271-3.718L150.28,350.9l5.608,2.657Z" transform="translate(-131.154 -34.162)" fill="#373d3d"/>
    <path d="M290.3,406.069l16.085,4.128s3.575,3.821,3.413,6.21-5.362,38.53-5.362,38.53-2.275,3.422-7.149,2.045-6.987-6.88-6.987-6.88l4.144-36.121-5.767-2.276Z" transform="translate(-131.154 -34.162)" fill="#373d3d"/>
    <path d="M295.488,456.235s4.834-.421,5.511-4,4.961-36.049,4.961-36.049a3.492,3.492,0,0,0-2.481-3.82c-2.931-.956-13.183-6.3-13.183-6.3l16.085,4.128s3.67,4.019,3.413,6.21-5.362,38.53-5.362,38.53a7.136,7.136,0,0,1-5.195,2.357C296.038,457.246,295.488,456.235,295.488,456.235Z" transform="translate(-131.154 -34.162)" fill="#7e8988"/>
    <path d="M136.757,386.353s-3.638-1.681-3.161-3.83c.379-1.7,8.419-35.572,8.419-35.572s-.14-1.432,2.072-1.909,12.361,5.013,12.361,5.013l.571-2.2-13.21-5.92s-1.243-.462-2.725,1.156c-2.075,2.266-1.9,3.953-1.9,3.953l-8.034,35.85s2,2.381,3.05,2.794A15.34,15.34,0,0,0,136.757,386.353Z" transform="translate(-131.154 -34.162)" fill="#7e8988"/>
    <path d="M379.312,416.768a154.239,154.239,0,0,0,30.638-56.846c5.373-19.121,4.555-49.7,4.555-49.7l-76.071,48.669v83.356Z" transform="translate(-131.154 -34.162)" fill="#687373"/>
    <path d="M550.953,307.507s28.023-30.611,32.834-57.534a225.318,225.318,0,0,0,3.363-48.932L507.935,251.3v83.592Z" transform="translate(-131.154 -34.162)" fill="#687373"/>
    <polygon points="337.774 315.552 337.774 334.674 342.284 332.126 342.284 312.073 337.774 315.552" fill="#3d4545"/>
    <polygon points="350.703 307.732 350.703 326.852 355.213 324.305 355.213 304.252 350.703 307.732" fill="#3d4545"/>
    <polygon points="339.253 317.671 339.253 336.791 343.763 334.245 343.763 314.192 339.253 317.671" fill="#7c8484"/>
    <polygon points="352.182 309.85 352.182 328.971 356.692 326.424 356.692 306.369 352.182 309.85" fill="#7c8484"/>
    <polygon points="546.93 187.592 546.93 206.714 551.44 204.167 551.44 184.113 546.93 187.592" fill="#3d4545"/>
    <polygon points="548.41 189.71 548.41 208.831 552.919 206.284 552.919 186.232 548.41 189.71" fill="#7c8484"/>
    <path d="M283.642,539.2l-.035-.521L279.6,478.8l14.125-97.441.125-.08,40.843-26.131V509.367l-.162.1ZM294.3,381.772,280.224,478.83l3.978,59.279,49.857-29.137V356.337Z" transform="translate(-131.154 -34.162)" fill="#4e5554"/>
    <path d="M328.937,470.138a7.235,7.235,0,0,1-6.514,2.261c-1.994-.562-3.542-3.092-3.2-4.607a6.835,6.835,0,0,1,3.73-4.365c1.6-.694,2.752-1.054,4.254-.457,2.145.854,3.412,2.906,3.006,4.588A4.588,4.588,0,0,1,328.937,470.138Z" transform="translate(-131.154 -34.162)" fill="#5d6463"/>
    <path d="M322.049,471.78c.7-.075,6.781-4.369,6.781-4.369s1.906-2.168.968-3.411-7.749,3.89-7.749,3.89-4.59,1.582-2.385,3.031S322.049,471.78,322.049,471.78Z" transform="translate(-131.154 -34.162)" fill="#fff"/>
    <path d="M730.578,203l-6.976,4.115v38.857s.887,5.014,3.488,5.49A3.926,3.926,0,0,0,731,250.026l-.337-5.037Z" transform="translate(-131.154 -34.162)" fill="#e45c35"/>
    <path d="M723.6,238.09l7.216-4.058L731,250.026s-4.266,4.059-5.832,0l-1.567-4.058Z" transform="translate(-131.154 -34.162)" fill="#c3d9ee"/>
    <path d="M252.764,524.179c-.987,5.371-5.13,9.036-9.251,8.187s-6.664-5.892-5.676-11.262,5.13-9.036,9.252-8.187S253.751,518.808,252.764,524.179Z" transform="translate(-131.154 -34.162)" fill="#fff"/>
    <path d="M263.67,509.536c-.718,3.9-3.727,6.566-6.723,5.948s-4.842-4.281-4.124-8.184,3.727-6.567,6.723-5.949S264.388,505.632,263.67,509.536Z" transform="translate(-131.154 -34.162)" fill="#fff"/>
    <path d="M269.673,498.876c-.446,2.427-2.319,4.084-4.182,3.7s-3.012-2.663-2.565-5.09,2.318-4.084,4.182-3.7S270.12,496.449,269.673,498.876Z" transform="translate(-131.154 -34.162)" fill="#fec136"/>
    <path d="M155.407,472.353c.469,5.168-2.366,9.687-6.333,10.091s-7.564-3.458-8.034-8.627,2.364-9.687,6.332-10.092S154.936,467.184,155.407,472.353Z" transform="translate(-131.154 -34.162)" fill="#fff"/>
    <path d="M149.892,454.636c.307,3.381-1.547,6.334-4.14,6.6s-4.947-2.262-5.254-5.641,1.546-6.334,4.14-6.6S149.583,451.257,149.892,454.636Z" transform="translate(-131.154 -34.162)" fill="#fff"/>
    <path d="M146.781,442.664c.185,2.038-.932,3.82-2.5,3.979s-2.982-1.363-3.168-3.4.932-3.818,2.5-3.978S146.6,440.628,146.781,442.664Z" transform="translate(-131.154 -34.162)" fill="#fec136"/>
    <path d="M307.452,438.566l-1.859,11.993s-1.371,2.846-2.9,1.967-1.722-1.324-1.659-2.3,1.69-12.006,1.69-12.006,1.323-2.967,3.232-2.78S307.452,438.566,307.452,438.566Z" transform="translate(-131.154 -34.162)" fill="#fec136"/>
    <ellipse cx="219.908" cy="463.71" rx="3.609" ry="3.39" fill="#fec136"/>
    <path d="M576.437,358.187a3.9,3.9,0,0,1-1.992-.556,4.318,4.318,0,0,1-2.1-3.779v-8.96a4.387,4.387,0,0,1,1.845-3.618l22.224-15.446a3.833,3.833,0,0,1,4.184-.19,4.307,4.307,0,0,1,2.145,3.808V339.3a4.363,4.363,0,0,1-1.938,3.683L578.582,357.53A3.905,3.905,0,0,1,576.437,358.187Zm22.216-32.412a3.314,3.314,0,0,0-1.894.61l-22.224,15.446a3.71,3.71,0,0,0-1.558,3.059v8.96a3.657,3.657,0,0,0,1.774,3.2,3.259,3.259,0,0,0,3.5-.084l22.224-14.547a3.7,3.7,0,0,0,1.638-3.115v-9.858a3.644,3.644,0,0,0-1.815-3.22A3.314,3.314,0,0,0,598.653,325.775Z" transform="translate(-131.154 -34.162)" fill="#4e5554"/>
    <path d="M202.591,490.915l-9.437-4.848a7.4,7.4,0,0,1-3.734-6.776h0c.255-2.551,2.34-3.653,4.658-2.462l9.438,4.849a7.4,7.4,0,0,1,3.734,6.774h0C206.995,491,204.909,492.105,202.591,490.915Z" transform="translate(-131.154 -34.162)" fill="#4c84c4"/>
    <path d="M200.2,492.457l-9.436-4.848a7.4,7.4,0,0,1-3.735-6.776h0c.255-2.551,2.341-3.654,4.659-2.462l9.437,4.848a7.4,7.4,0,0,1,3.734,6.775h0C204.6,492.544,202.514,493.647,200.2,492.457Z" transform="translate(-131.154 -34.162)" fill="#bad1ed"/>
  </g>
</svg>
