<svg xmlns="http://www.w3.org/2000/svg" viewBox="0 0 571.55 543.6"><defs><style>.cls-1{fill:#c07e48}.cls-2{fill:#798b3e}.cls-3{fill:#a7c8db}.cls-4{fill:#eaa975}.cls-5{fill:#ca7751}.cls-6{fill:#501e07}.cls-7{fill:#fff}.cls-8{fill:#3f1805}.cls-9{fill:#eec9a8}.cls-25{fill:#15266f}.cls-12{opacity:.2}.cls-12,.cls-13{fill:#fcf8be}.cls-19{fill:#291303;opacity:.14}.cls-23{fill:#6b2a14}.cls-24{fill:#782609}.cls-25{opacity:.43}</style></defs><g id="Слой_2" data-name="Слой 2"><g id="Слой_1-2" data-name="Слой 1"><path class="cls-1" d="m28.12 490.15 4.93 24.68 489.83 28.77 40.38-47.45v-29.33L28.12 490.15z"/><path class="cls-2" d="M326.26 301.76s21.08-18.25 29.5-20 22.19 15 22 20-49.12 3.88-49.12 3.88l.82-.89s36.6-.33 41.11-4.8-6.37-16.55-14.18-14.94-26.93 17.85-26.93 17.85Z"/><path class="cls-2" d="M326.26 306.21s19.93-16.07 29-17.14 29.18 12.64 29.59 18.63-55.12 3.85-55.12 3.85v-1.4s44.74 0 47.67-4.51-15-13.11-21.84-12.9-24.8 15-24.8 15Z"/><path class="cls-3" d="m154.15 293.5-8.89.84s-1 3.13 0 5.4 1.55 1.91 1.55 1.91l7.68-.52a33.49 33.49 0 0 1-.34-7.63Z"/><path class="cls-4" d="M367.43 314.34s14.29 6.35 29.78 21.29c15.79 15.21 74.35 78.5 79.66 94.53s-34.65.43-54-4.52c-9-2.3-48.43-25.35-51.4-32.6s-3.25-6.3-5.35-33.7c-2.62-34.41 1.31-45 1.31-45ZM286.59 310s-22.63 44.63-7.71 43.64c9.15-.61 57.13-2.92 63.47-9.36 2.7-2.74-6.06-36.24-6.06-36.24s-6.31-4-8-8.74.84-10.32.84-10.32l-1.64.3-34.12 5.72s.42.23-.32 5.14l-.1.73a12.32 12.32 0 0 1-1.78 4.44 17.79 17.79 0 0 1-4.58 4.69Z"/><path class="cls-5" d="M291.16 305.27a73.46 73.46 0 0 1 22.94-.57c7.47 1.21 20.67 7.75 23.87 9.64 3.77-1.23-1.68-6.26-1.68-6.26s-6.31-4-8-8.74.84-10.32.84-10.32l-1.64.3L293 300.09l-.1.73a12.32 12.32 0 0 1-1.74 4.45Z"/><path class="cls-4" d="M435 234.82C425.71 256 355.83 291 318.21 299.74a98.56 98.56 0 0 1-12.3 2.32 48.82 48.82 0 0 1-6.42.38c-11 .05-24-2.59-36.26-6.21-21.91-6.42-41.66-16.08-44.2-19.75-4.32-6.15-1.94-16.19-1.46-40.2s-12.41-46.41-15.65-73.55c-1.84-15.38.81-30.17 3.56-40a94.69 94.69 0 0 1 4-12.36c8.36-15.11 29.09-72.37 100.91-71s113.54 29.78 126.06 56.87S445.46 211 435 234.82Z"/><path class="cls-6" d="M323.78 257.75s-25.05-4.26-48.4 0c-18.83 3.43-22.19 15.36-22.19 15.36s14.61 25.64 36.13 25.56c33.57-.1 34.46-40.92 34.46-40.92Z"/><path class="cls-5" d="M301.51 242.7s-15.41 2.83-27.47 2.16-20.85-1.86-20.85-1.86 12.74 13.6 24.19 12.21c8.36-1.01 24.13-12.51 24.13-12.51Z"/><path class="cls-5" d="M383.05 247c-9.83 29.22-64.86 52.79-64.86 52.79 37.61-8.68 104.13-40.4 113.43-61.57 10.47-23.87 17.41-114.85 4.82-141.94s-54.24-55.5-126.06-56.91-92.53 55.82-100.9 71a95.89 95.89 0 0 0-4 12.35c15.12-3.55 68.2-12.86 104.18-1.75 40.71 12.48 83.22 96.77 73.39 126.03Z"/><path class="cls-7" d="M303.47 256.89a9.53 9.53 0 0 1-2 5c-.74.79-9.1 1.36-22 3.38-7.07 1.1-14 2.85-15.18 1.73s-2.51-2.51-2.51-2.51 4.83-4.57 16.48-6.46a133.17 133.17 0 0 1 25.21-1.14Z"/><path class="cls-8" d="M303.43 117.25s20-2.16 39.68 13.71 23.18 40.6 23.18 40.6-9.45-19.79-24.06-28.51c-14.86-8.86-33.75-2.88-38.8-25.8ZM241.78 120.94s-19.6 8.26-28.08 21.06a53.26 53.26 0 0 0-8.61 26.14s6.42-14.78 17.9-20.5 18.81-15.02 18.79-26.7Z"/><ellipse class="cls-9" cx="288.55" cy="237.66" rx="11.8" ry="2.14" transform="rotate(-.75 290.272 238.73)"/><ellipse class="cls-9" cx="270.91" cy="238.18" rx="3.99" ry="1.57" transform="rotate(-6.78 271.083 238.323)"/><path class="cls-5" d="M441.63 249c-22.88 4-24.34 0-24.34 0l-9.61-33.84s.76-.76 2.21-2c8.53-7.5 40.31-33.73 59.47-25a13.71 13.71 0 0 1 7.5 8.63v.11l.05.05c4.87 17.05-16.61 48.77-35.28 52.05Z"/><path class="cls-4" d="M476.87 196.83v.11c-.81-.48-7.93-4.37-22.77.05a71.27 71.27 0 0 0-26.29 14.63l-6-8c8.53-7.5 28.44-24.18 47.6-15.44a13 13 0 0 1 4.75 3.56Z"/><path class="cls-5" d="M184.45 298.68c-.18.4 6.77 18.11 6.77 18.11s-13.59 0-19.62-1.88a25 25 0 0 1-10.09-6.27Z"/><path class="cls-4" d="M200.63 303.49s3.06-18.8-5.66-26.87-17.39-.12-18.44 10 3.81 14.55 5.47 15.38 7.43-2.61 8.26-3.71 10.37 5.2 10.37 5.2ZM159.14 284.8s-6.21 5.9-5.33 13.58 7.53 10.75 10 10.84a7.67 7.67 0 0 0 3.81-.67Z"/><path class="cls-5" d="M167.62 308.53v-.08a9.43 9.43 0 0 1-2 .13c-2.47-.1-9.11-3.28-10-11.24-.61-5.46 2.11-10 3.88-12.38l-.36-1S152.9 290 153.8 298s7.54 11.14 10 11.24a7.44 7.44 0 0 0 3.82-.71Z"/><path class="cls-4" d="M170.86 278s-5.71.07-8.6 2c-3.13 2.08-6 10.19-2.37 19.42 3.44 8.85 8.33 9.6 10.57 9.61s5.53-2.37 5.53-2.37a16 16 0 0 1-7.65-12.66 35.16 35.16 0 0 1 2.52-16Z"/><path class="cls-5" d="M161.33 299.12c-3.26-8.71-1.28-16.43 1.45-19.44-.18.1-.35.2-.51.3-3.13 2.08-6 10.19-2.37 19.42 3.42 8.8 8.26 9.59 10.53 9.61-2.53-.45-6.29-2.37-9.1-9.89Z"/><path class="cls-4" d="M183.51 275s-5.84-1-10.51 1.08-7.7 8.52-5.91 19 7.1 12.52 10 12.46 4.17-6 4.17-6Z"/><path class="cls-5" d="M168.68 295.21c-1.72-10.42.92-17 5.19-19.49-.29.1-.59.22-.87.34-4.67 2-7.7 8.52-5.91 19 1.48 8.66 5.33 11.54 8.26 12.26-2.61-1.32-5.44-4.68-6.67-12.11ZM178.59 286.34c.5-5.33 2.87-10.1 6.19-12.53-4.37 1.62-7.64 6.82-8.26 12.77-1 10.09 3.81 14.58 5.44 15.45a1.89 1.89 0 0 0 1.1.1c-2.06-1.88-5.32-6.73-4.47-15.79ZM196.86 301.15a90.32 90.32 0 0 0-1-11.56c-.87-5-2.2-6.85-2.2-6.85a58.83 58.83 0 0 0-2.69 6.58c-1.16 3.52-.35 9.38-.35 9.38Z"/><path class="cls-5" d="M192.43 295.52a40.49 40.49 0 0 0-4.26-2.62c-1.77-.87-7.73 2.89-7.65 6.83s3.31 7.6 3.31 7.6Z"/><path class="cls-4" d="m196.29 330-2-9.44s10.86-3.29 9.79-10.67-14.41-15.06-14.41-15.06S181.34 296 182 302s5.68 9.38 5.68 9.38a54.44 54.44 0 0 1-9.88 2.83c-5.75 1.1-13.9-3.41-13.9-3.41s4.37 6.07 7.44 8.54a44.36 44.36 0 0 0 5.36 3.76l1.29 10Z"/><path class="cls-4" d="M273 363.83a242.12 242.12 0 0 0-2.56 40.53s-22.85 59.45-41.64 59.5c-5.11 0-12.38-5.1-19.64-13.16l-.15-.14a114.64 114.64 0 0 1-13.63-19h-.05a105.65 105.65 0 0 1-11.78-28.75c-4.91-21.22-6.85-81.15-6.85-81.15l17.65-2.29s27.78 71.8 33.2 70.94c4.61-.81 10.77-18.17 17.64-34.81 4-9.54 8.17-18.79 12.43-24.55a60.22 60.22 0 0 1 29-20.84s-10.4 32.69-13.62 53.72Z"/><path class="cls-5" d="M273 363.83a242.12 242.12 0 0 0-2.56 40.53s-22.85 59.45-41.64 59.5c-5.11 0-12.38-5.1-19.64-13.16l-.15-.14-13.28-18.5c2.86 3.58 19.29 23.46 28.36 21.07 10-2.62 39.19-38.14 33.52-60.79-5.46-21.79-11.93-35.85-12.43-36.86 4-9.54 8.17-18.79 12.43-24.55a60.22 60.22 0 0 1 29-20.84S276.22 342.8 273 363.83Z"/><path class="cls-3" d="M259.3 468c-.4-25.65-.4-57 1.05-82.07.46-7.17 1-13.81 1.64-19.73.26-2.5.53-4.8.92-7 4.67-30.45 8.15-41.5 8.15-41.5s1.32-4.21 7.5-6.44a18.44 18.44 0 0 1 4.73-1 .5.5 0 0 1 .26-.07l3-.2a145.74 145.74 0 0 0-2.43 23.15c0 5.26.66 10 2.43 12.3 5.39 6.84 39.85 6 43.67-3.81 2.63-6.9 4.6-21 5.46-28.54v-.26c.39-2.89.59-4.8.59-4.8s.66-.13 1.71-.26c.46-.06 1.18-.13 1.91-.2a4.48 4.48 0 0 1 1-.13 38.24 38.24 0 0 1 10.32.59c7.5 1.58 9.47 3.48 9.47 3.48s-.4 36.89 4.6 61.42 18.48 47.88 18.48 47.88-.4 30 9.21 54.71a68.6 68.6 0 0 0 4 8.94c1.64 3 3.29 6.44 4.93 10.13l-22-.26-120.28-1.45c.13-2.3.13-4.6.07-6.84-.07-3.81-.2-7.83-.26-12-.06-1.96-.06-4.04-.13-6.04Z"/><path d="M335.72 313.13v-.26c.39-2.89.59-4.8.59-4.8s.66-.13 1.71-.26c.46-.06 1.18-.13 1.91-.2a4.48 4.48 0 0 1 1-.13 38.24 38.24 0 0 1 10.32.59c7.5 1.58 9.47 3.48 9.47 3.48s-.4 36.89 4.6 61.42 18.48 47.88 18.48 47.88-.4 30 9.21 54.71a68.6 68.6 0 0 0 4 8.94c1.64 3 3.29 6.44 4.93 10.13l-22-.26a78.3 78.3 0 0 1-6.12-13.48 34.1 34.1 0 0 1-1.12-5.52c-2-17 5.66-43.21 4.54-47.42-1.25-4.67-11.71-18.08-18.54-42.42s-1.91-55.83-3-62.08-19.98-10.32-19.98-10.32Z" style="opacity:.13;fill:#15266f"/><path d="M286.59 310a147.42 147.42 0 0 0-2.41 23.12s-3 2.76-13.68 18a82.81 82.81 0 0 0-8.5 15.08c.25-2.48.55-4.77.9-7 4.71-30.42 8.17-41.51 8.17-41.51s1.3-4.16 7.52-6.46a27 27 0 0 1 8-1.23Z" style="opacity:.2;fill:#87002a"/><path class="cls-12" d="M358.65 420.15s-19.24 3.14-56 21.1c-20.8 10.15-35 20.07-43.34 26.77-.4-25.69-.4-56.95 1.05-82.08a115.33 115.33 0 0 1 12.73-8.66c25.56-15.21 66.19-28.68 66.19-28.68s1 6.46 6.36 25.17 13.01 46.38 13.01 46.38Z"/><path class="cls-13" d="M332.32 349.59c-10.46 8.61-46.2 9.23-51.16.2-4.76-8.8 1.92-38 2.17-39.5h.25l3-.19a147.42 147.42 0 0 0-2.41 23.12c0 5.29.6 10 2.41 12.31 5.41 6.83 39.89 6 43.64-3.79 2.66-6.93 4.61-21 5.51-28.54v-.28c.35-2.9.55-4.77.55-4.77s1.6-.33 4.11-.56c.12 2.64.23 35.17-8.07 42ZM272.46 315.39l-6.86 3.92s-6 13.9-6.49 35.54a331 331 0 0 0 1 36.43s2.65-31.32 5.49-48.3a160 160 0 0 1 6.86-27.59Z"/><path d="M318.7 274.76a133.07 133.07 0 0 0-25.76 4c-14.8 3.7-22.76 11.23-22.76 11.23a27.42 27.42 0 0 0 22.49 7.67c20.42-2.22 26.03-22.9 26.03-22.9Z" style="fill:#702822"/><path class="cls-7" d="M306.52 292.91s-1.84-3.73-.94-4.23 4.43-2.17 5.1-1.91.9 2 .9 2a16.33 16.33 0 0 1-5.06 4.14ZM279.46 296s-1.26-2.28-.64-2.58 3.6.54 12.34-.49c9-1.06 10.92-3 12.32-3.3s1.59 4 1.59 4-3.41 3.21-12.39 4-13.22-1.63-13.22-1.63Z"/><path class="cls-1" d="m111.96 440.84 459.58-3.33-52.67 39.5L.02 471.1l111.94-30.26z"/><path style="fill:#44220f" d="M571.55 437.49v22.82l-42.82 35.84-126.79-1.51-22.03-.27-120.28-1.44-241.68-2.9L0 471.09l259.44 2.96 113.24 1.32 20.32.19 125.87 1.45 52.68-39.52z"/><path class="cls-3" d="M191.15 289.45a9.71 9.71 0 0 0-.39 3.87 5.78 5.78 0 0 0 1 2.9s47.79-1.41 50.76-.48 10.51 7.53 19.32 7.74c19.95.48 30.19-16.85 30.37-18.7s-101.06 4.67-101.06 4.67Z"/><path d="M292.22 284.79c0 1.11-12.72 4.23-25.73 4.23s-26.75-1.17-26.75-2.28 15.93-2.86 28.94-2.86 23.54-.2 23.54.91Z" style="fill:#86a6c1"/><path class="cls-13" d="M243.6 286.74s-.6-2.63.4-3.71 2.4 0 2.4 0 .77-3 2.17-3.95 2.86 2.63 2.86 2.63 1.62-3 3.95-3.17a5.69 5.69 0 0 1 4.1 1.86s.23-2.26 3.64-1.87a10 10 0 0 1 5.73 3s2.16-2.86 4.95-2.71a3.68 3.68 0 0 1 3.41 2.63s4.41-2.24 7-1.16a5.2 5.2 0 0 1 3 3.54s1-1.22 2.09-.68-1.93 2.79-1.93 2.79-8.59 2-23.37 2.42-20.4-1.62-20.4-1.62Z"/><path d="M351.24 395h-.07a2.76 2.76 0 0 1-.79.53c-13.48 6.51-87.46 7.69-92.27 0-3.55-5.66 3.49-45.38 8.35-67.14v-.13c1.64-7.63 3.09-13 3.68-13.94 2.37-3.68 20.19-7.89 20.19-7.89s-3 12.76-2.37 21.57 37.29 6.64 40.84.92 2.1-25.45 2.1-25.45 20.06 1.31 20.32 4.6 12.19 77.66.02 86.93Z" style="fill:#a0c77b"/><path d="M351.24 395h-.07c-3.75-9.14-14.2-30.45-32.49-42.81-23.67-16-52.22-23.81-52.22-23.81v-.13c1.64-7.63 3.09-13 3.68-13.94 2.37-3.68 20.19-7.89 20.19-7.89s-3 12.76-2.37 21.57 37.29 6.64 40.84.92 2.1-25.45 2.1-25.45 20.06 1.31 20.32 4.6 12.19 77.67.02 86.94Z" style="fill:#8eb567"/><path class="cls-2" d="m291.16 305.27-4.37 2.07s-4.07 21.93-.2 25.82 39.67 5 44.89-1.24 2.84-28.17 2.84-28.17l-3.4-.28s1.32 19.56-2.9 24.62-34.85 7.1-38.53 2.52 1.67-25.34 1.67-25.34Z"/><path class="cls-2" d="M347.34 305.78s12.53 77 2.94 87.12-88.34 7-89.12 0 12.31-81 12.31-81a5 5 0 0 0-3.63 2.41c-1.24 2.19-17.79 74.7-12.69 81.21s86.18 12.48 96.22-.52-2.13-86.94-2.13-86.94.38-2.32-3.9-2.28Z"/><path class="cls-12" d="M288.2 377c3.67-1.57-.63-8.38 2.93-9.62s2.06 2.71 4.11 4.08 3.43-.11 7.4 1.54-3.29 4.11-4 5.76 4.42 2.19 5.15 3.84-5.54-1.51-6.92-.69 1.9 5-1.52 5-3-2.08-5.28-3-6.82.33-7.2-1.3c-.87-4 3.41-4.8 5.33-5.61ZM328.3 348.21c3.2 2.39 6.95-4.74 9.79-2.27s-1.32 3.13-1.48 5.6 1.81 2.91 2.37 7.18-3.11-.11-4.88.12-1.71.33-2.76 1.79-1.84-.67-3.25-1.46-3.06 3.17-4.81.23.33-3.6 0-6.09-3.69-5.75-2.47-6.88c2.99-2.79 5.82.57 7.49 1.78Z"/><path class="cls-19" d="m558.41 471.31-29.68 24.84-500.61-6 1.57 7.84 495.34 24.23-2.15 21.38 40.38-47.45v-29.33l-4.85 4.49z"/><path class="cls-19" d="m166.11 458.21 134.53 16.32 22.58 19.16 21.58.26 16.66 40.17 161.42 9.48 40.38-47.45v-29.33l8.29-6.51v-22.82l-303.7 1.12-109.05 14.66 7.31 4.94z"/><path class="cls-4" d="M399.71 453.85s-.14-8.56-5-15.11S368.09 427 368.09 427s-2.66 3.53-1.09 6.25 11.64 7.41 11.64 7.41-13-.09-18.07-1.09-12.45-7.4-14.59-5.5c-3.51 3.12 8.71 12.06 11.22 13.32s11.57 1.22 11.57 1.22-9.43 1.11-13.4-.78c-4.26-2-13.53-9.22-15.28-7.66-4.42 3.95 9.83 13 11.93 14s12.68 1.2 12.68 1.2-9.45.21-12.86-.27-10.84-7.79-12.84-5.8c-3.53 3.51 8.1 11 9.62 12.09s14.49.43 14.49.43-8.31 1.09-12.57.6-6-3.27-8.67-1.85c-1.76.94 6.22 6.8 11.8 7 18.91.63 35.91-7.39 35.91-7.39Z"/><path class="cls-4" d="M395.63 440.06s14.4-22.51 31.17-28 50.69 13.57 50.46 21.6c-.28 9.28-76 19.58-79.4 20.71s-2.23-14.31-2.23-14.31Z"/><path class="cls-5" d="M395.63 440.06s19.66-23.26 29.94-28.4 21.58-3.35 21.58-3.35-5.46-1.33-26.72-4.67c-38.46-6-54.59-52.6-54.59-52.6a222 222 0 0 0 3.55 27.75c2.74 13.34 5.73 19.26 5.73 19.26l32.76 21.82Z"/><path d="m334.14 411.12-8.42 28.15A26.1 26.1 0 0 1 307.51 457a91 91 0 0 1-19.53 2.5c-1.71.13-3.49.13-5.33.13a128.52 128.52 0 0 1-24.14-2 25.63 25.63 0 0 1-18.94-16.31l-8.88-23.61v-.13l-2.43-6.44Z" style="fill:#9b0c01"/><ellipse cx="281.29" cy="411.1" rx="52.82" ry="6.45" style="fill:#850000"/><path class="cls-13" d="M239.65 415.06s1.91-4.09 4.79-4.22 7.4 2.11 7.4 2.11a11.22 11.22 0 0 1 5.34 0c2.33.77 3.43 1.18 3.43 1.18s1.15-5.49 5.12-4.38a46.91 46.91 0 0 0 8.56 1.35s3.35-.35 6.09-.45 6.21 2.38 6.21 2.38 3.34-4.11 5.26-4.11 4.8 2.74 4.8 2.74 6.17-2.88 9.32-1.37a3.83 3.83 0 0 1 2.36 4.38s3.67-4.25 6.54-3.7 3.15 2.24 3.15 2.24a9.81 9.81 0 0 1 6.85-2.56c4.11.18 5.21 2.55 5.21 2.55a199.61 199.61 0 0 1-48.78 4.34c-27.3-.92-41.65-2.48-41.65-2.48Z"/><path d="M288 459.45c-1.71.13-3.49.13-5.33.13a128.52 128.52 0 0 1-24.14-2 25.63 25.63 0 0 1-18.94-16.31l-8.88-23.61v-.07s3.49 3.22 23.74 5.52 27.42 2.24 27.42 2.24a57.72 57.72 0 0 0 .79 16.7 89.72 89.72 0 0 0 5.34 17.4Z" style="opacity:.2;fill:#fff"/><path class="cls-6" d="M198.75 179.05s-.92-34.28 15.24-54.13 49.66-31.49 49.66-31.49-13.81 3.18-28.05 15.28A134 134 0 0 0 212.67 134s26-14 58.67-32.26a344.74 344.74 0 0 1 64.07-27.62s29.72 52.21 60 77.85 27 50.51 27 50.51l20.23-13.2s10.63-13 16.89-37.39c5.23-20.25 6.71-44.23-5.29-64.14-25.54-42.5-78.44-49.84-81.7-50.25a.22.22 0 0 0-.16 0s7.75-9.54 35.5-13.49c21.83-3.08 28.6-.55 28.6-.55s-10.28-9.58-36.81-5c-22.9 4-31.4 15.22-32.51 16.44.21-1.28 2.43-13.75-2.19-21.29C360.17 5.9 341.42.3 340.33 0a166.26 166.26 0 0 1 14.22 15.41c6.28 8 5.78 19.26 5.78 19.26s-60.68-38.48-132.9-.82c-76.16 39.61-28.68 145.2-28.68 145.2Z"/><path class="cls-23" d="M359.56 66.79c2.62 8.69 31.89 62.07 63.74 77.76 7.1 3.5 27 8.76 36.25 7.39 5.23-20.25 6.71-44.23-5.29-64.14-25.54-42.5-78.44-49.84-81.7-50.25a.22.22 0 0 0-.16 0s-15.52 20.59-12.84 29.24ZM356.55 44.77S278 9.8 221.81 50.24 191.88 152.7 191.88 152.7 173.15 82 228.52 52.45s128.03-7.68 128.03-7.68Z"/><ellipse class="cls-7" cx="331.77" cy="192.71" rx="31.13" ry="37.39"/><path class="cls-5" d="M329.57 166.67c17.19 0 31.13 16.74 31.13 37.39 0 .95-.06 1.88-.12 2.81a43.85 43.85 0 0 0 2.32-14.16c0-20.65-13.94-37.39-31.13-37.39-16.41 0-29.82 15.25-31 34.59 4.63-13.64 15.77-23.24 28.8-23.24Z"/><path class="cls-6" d="M329.51 172.08c17.19 0 31.13 15 31.13 33.46 0 .85-.06 1.68-.12 2.51a35.49 35.49 0 0 0 2.33-12.67c0-18.48-13.94-33.46-31.13-33.46-16.41 0-29.82 13.65-31 30.95 4.62-12.2 15.76-20.79 28.79-20.79Z"/><ellipse class="cls-24" cx="326.8" cy="206.86" rx="18.29" ry="22.7" transform="rotate(-16.95 326.895 206.905)"/><ellipse class="cls-6" cx="326.12" cy="208.55" rx="12.93" ry="16.05" transform="rotate(-16.95 326.232 208.59)"/><ellipse class="cls-7" cx="339" cy="200.57" rx="11.98" ry="2.41" transform="rotate(-8.83 339.034 200.57)"/><ellipse class="cls-7" cx="236.18" cy="196.03" rx="24.04" ry="36.59"/><path class="cls-5" d="M237.89 170.54c-13.28 0-24 16.38-24 36.59 0 .93 0 1.84.09 2.75a53.46 53.46 0 0 1-1.84-13.88c0-20.21 10.76-36.59 24-36.59 12.67 0 23 14.93 23.95 33.85-3.55-13.31-12.15-22.72-22.2-22.72Z"/><path class="cls-6" d="M237.93 175.84c-13.28 0-24 14.66-24 32.74 0 .83 0 1.64.09 2.46a43.11 43.11 0 0 1-1.79-12.4c0-18.08 10.76-32.74 24-32.74 12.67 0 23 13.36 23.95 30.29-3.59-11.94-12.18-20.35-22.25-20.35Z"/><path class="cls-24" d="M218.84 212.94c3.1 11.85 11.81 20.1 19.43 18.41s11.3-12.66 8.19-24.52-11.81-20.1-19.43-18.41-11.3 12.66-8.19 24.52Z"/><path class="cls-6" d="M221.64 213.91c2.2 8.38 8.35 14.21 13.74 13s8-9 5.79-17.34-8.35-14.21-13.74-13-7.99 8.95-5.79 17.34Z"/><path class="cls-7" d="M252.81 203.72c-.2-1.28-4.52-2-9.65-1.52s-9.12 1.83-8.91 3.11 4.52 2 9.65 1.52 9.1-1.83 8.91-3.11Z"/><path class="cls-13" d="m360.7 311.54 7 .9a381.79 381.79 0 0 0-.46 47.41c1.25 23.71 16.6 61 16.6 61s-22.17-30-25.15-59.18c-3.23-31.23 2.01-50.13 2.01-50.13Z"/><path class="cls-25" d="M196.78 374.8 195 408.92l-1.84 35.3a10.64 10.64 0 0 1-10.61 10h-13.34a10.71 10.71 0 0 1-10.61-9.73l-3-35.75v-.37l-2.9-33.57Z"/><ellipse class="cls-25" cx="175.03" cy="371.45" rx="20.92" ry="2.61"/><path d="M200.09 372.42c-.7-2.43-11.6-4.37-25.06-4.37S150.67 370 150 372.42h-.13v.21l6.94 75a11.85 11.85 0 0 0 11.8 10.76h14.78a11.85 11.85 0 0 0 11.83-11.06l5-75Z" style="opacity:.69;fill:#a7c8db"/><path d="m195 408.92-1.84 35.3a10.64 10.64 0 0 1-10.61 10h-13.34a10.71 10.71 0 0 1-10.61-9.73l-3-35.75v-.37a149.34 149.34 0 0 1 20.34-1.11c13.06-.03 19.06 1.66 19.06 1.66Z" style="fill:#f3d393"/><path class="cls-7" d="m154.11 374.06 4.53 52.18 5.87 3.57-3.68-54.94-6.72-.81zM162.32 374.76h4.5l1.61 51.48h-1.84l-4.27-51.48z"/></g></g></svg>