<svg id="Слой_1" data-name="Слой 1" xmlns="http://www.w3.org/2000/svg" xmlns:xlink="http://www.w3.org/1999/xlink" viewBox="0 0 436.09 595.28"><defs><linearGradient id="linear-gradient" x1="2.02" y1="-759.15" x2="3.55" y2="-767.84" gradientTransform="rotate(-.41 126744.284 -24424.277)" gradientUnits="userSpaceOnUse"><stop offset="0" stop-color="#fff" stop-opacity=".2"/><stop offset=".19" stop-color="#c1c1c1" stop-opacity=".15"/><stop offset=".7" stop-color="#343434" stop-opacity=".04"/><stop offset="1" stop-opacity="0"/></linearGradient><linearGradient id="linear-gradient-2" x1="65.32" y1="-758.7" x2="66.85" y2="-767.38" xlink:href="#linear-gradient"/><style>.cls-1{fill:#448dcc}.cls-2{fill:#64360d}.cls-3{fill:#fff}.cls-4{fill:#222}.cls-5{fill:#881811}.cls-6{fill:#0e668e}.cls-7{fill:#eeb891}.cls-9{fill:#f39877}.cls-12{fill:#3b261b}.cls-13{fill:#190e08}</style></defs><g id="_Группа_" data-name="&lt;Группа&gt;"><g id="_Группа_2" data-name="&lt;Группа&gt;"><g id="_Группа_3" data-name="&lt;Группа&gt;"><path id="_Контур_" data-name="&lt;Контур&gt;" class="cls-1" d="M206.23 211.34a379.85 379.85 0 0 1-47.94 25.44c-13.37 5.86-28.19 11.3-43 14.33A107 107 0 0 1 93 253.46a62.25 62.25 0 0 1-21.65-3.78 45.18 45.18 0 0 1-16.57-10.84 47.28 47.28 0 0 1-8.87-13.12c-3.45-7.49-5.36-16.14-5.89-26s.3-21 2.54-33.73l25.78 4.55a130.29 130.29 0 0 0-2.24 25.26 59.72 59.72 0 0 0 1.56 13 26.39 26.39 0 0 0 5.28 11.13 18.67 18.67 0 0 0 7.77 5.34 36.4 36.4 0 0 0 12.57 2.06c8.75.11 19.66-2 30.78-5.49 16.72-5.21 33.94-13.38 46.78-20.23 6.43-3.43 11.78-6.52 15.5-8.73 1.86-1.11 3.31-2 4.28-2.6l1.09-.68.26-.16h.06l14.19 22Z"/></g><g id="_Группа_4" data-name="&lt;Группа&gt;"><path id="_Контур_2" data-name="&lt;Контур&gt;" class="cls-2" d="M69.77 171.27s25.53-15.18 21.23-26c-2.41-6.06-8.37.57-11.87.92 0 0 3.62-1.48 3.05-8.5C81.69 131.61 65.57 117 56 123c-22.76 14.18-12.31 38.73-12.31 38.73Z"/><path id="_Контур_3" data-name="&lt;Контур&gt;" class="cls-3" d="M79.08 179.39a8.54 8.54 0 0 1-11.19 4.54l-30.06-12.8a8.55 8.55 0 0 1-4.53-11.2 8.55 8.55 0 0 1 11.2-4.54l30.06 12.8a8.54 8.54 0 0 1 4.53 11.2Z"/></g></g><g id="_Группа_5" data-name="&lt;Группа&gt;"><g id="_Группа_6" data-name="&lt;Группа&gt;"><g id="_Группа_7" data-name="&lt;Группа&gt;"><path class="cls-4" d="m199.42 519.16 4.81-130.88-32.04-1.18-4.8 130.89" id="_Группа_8" data-name="&lt;Группа&gt;"/></g><g id="_Группа_9" data-name="&lt;Группа&gt;"><path id="_Контур_4" data-name="&lt;Контур&gt;" class="cls-5" d="M140.07 564.62a34.31 34.31 0 0 0 .43 5.13c25.18 13.4 59-2.23 59-2.23l.22-5.17a92.21 92.21 0 0 0 2.1-24.42c-.78-20.36-.8-35.85-.8-35.85-11.64 6.67-36.09 1.37-36.09 1.37l.49 27.51c-22.91 5.56-25.49 24.47-25.35 33.66Z"/><path id="_Контур_5" data-name="&lt;Контур&gt;" class="cls-4" d="M140.07 564.62a34.31 34.31 0 0 0 .43 5.13c25.18 13.4 59-2.23 59-2.23l.22-5.17c-30.56 14.65-59.65 2.27-59.65 2.27Z"/></g></g><g id="_Группа_10" data-name="&lt;Группа&gt;"><g id="_Группа_11" data-name="&lt;Группа&gt;"><path class="cls-4" d="m222.95 519.16-4.81-130.88 32.03-1.18 4.81 130.89" id="_Группа_12" data-name="&lt;Группа&gt;"/></g><g id="_Группа_13" data-name="&lt;Группа&gt;"><path id="_Контур_6" data-name="&lt;Контур&gt;" class="cls-5" d="M282.3 564.62a34.31 34.31 0 0 1-.43 5.13c-25.18 13.4-59-2.23-59-2.23l-.22-5.17a92.19 92.19 0 0 1-2.1-24.42c.78-20.36.8-35.85.8-35.85 11.64 6.67 36.09 1.37 36.09 1.37l-.5 27.55c22.92 5.52 25.49 24.43 25.36 33.62Z"/><path id="_Контур_7" data-name="&lt;Контур&gt;" class="cls-4" d="M282.3 564.62a34.31 34.31 0 0 1-.43 5.13c-25.18 13.4-59-2.23-59-2.23l-.22-5.17c30.56 14.65 59.65 2.27 59.65 2.27Z"/></g></g></g><path id="_Контур_8" data-name="&lt;Контур&gt;" class="cls-6" d="M238 200c-11.15-1.79-24.88-3.72-31.33-3.53-6.12.18-19 3.17-28.84 5.67l25.18 30Z"/><path id="_Контур_9" data-name="&lt;Контур&gt;" class="cls-1" d="M254.72 202.85s-7.48-1.4-16.72-2.85l-35 32.11.58.69-.58-.69-.75.69.75-.69-25.18-30c-7.24 1.84-12.83 3.42-12.83 3.42S140.26 369.79 121.17 401c0 0 106.71 35.36 172 1.6.02.05-44.86-93.98-38.45-199.75Z"/><g id="_Группа_14" data-name="&lt;Группа&gt;"><path id="_Контур_10" data-name="&lt;Контур&gt;" class="cls-3" d="M161 182s43.81 9.08 42.47 53.42c0 0-13.92-21.4-46.74-35.79C137.19 191.09 161 182 161 182Z"/><path id="_Контур_11" data-name="&lt;Контур&gt;" class="cls-6" d="M164.44 326.65c-3.07 7.94-11.43 26-26.09 32.4 0 0-14.83 36.5 25.24 28.05 36.06-7.61 15.33-51.71 10.83-60.45Z"/></g><g id="_Группа_15" data-name="&lt;Группа&gt;"><g id="_Группа_16" data-name="&lt;Группа&gt;"><g id="_Группа_17" data-name="&lt;Группа&gt;"><path id="_Контур_12" data-name="&lt;Контур&gt;" class="cls-1" d="M248.29 186.9a372.08 372.08 0 0 1 40 35c10 10.19 20.19 21.85 28.14 34.36a104.82 104.82 0 0 1 9.91 19.52 61 61 0 0 1 4.11 21.13 44.26 44.26 0 0 1-4.13 18.94 46.31 46.31 0 0 1-8.9 12.7c-5.65 5.77-12.9 10.54-21.73 14.47s-19.31 7.06-31.75 9.46l-4.85-25.18a127.6 127.6 0 0 0 23.9-6.74 58.48 58.48 0 0 0 11.31-6 25.85 25.85 0 0 0 8.33-8.72 18.29 18.29 0 0 0 2.17-9 35.65 35.65 0 0 0-2.51-12.22c-3-8-8.69-17.29-15.77-26.25-10.6-13.48-24.1-26.38-34.85-35.74-5.38-4.69-10.08-8.5-13.4-11.13-1.66-1.31-3-2.33-3.88-3l-1-.76-.24-.18h-.05l15.18-20.67Z"/></g><g id="_Группа_18" data-name="&lt;Группа&gt;"><path id="_Контур_13" data-name="&lt;Контур&gt;" class="cls-2" d="M252.12 329.46s-22.44 10.82-20.3 26.84l9.88 19 9.35 4.81s4.81-12 21.9-28.58Z"/><path id="_Контур_14" data-name="&lt;Контур&gt;" class="cls-3" d="m284.15 339.35-17.49-22.78s-11.73-2-15.21 3.84 1 14.59 1 14.59l19.09 18.9s8.84 1.34 12.62-3.19-.01-11.36-.01-11.36Z"/></g></g><path id="_Контур_15" data-name="&lt;Контур&gt;" class="cls-3" d="M245.91 182s-43.81 9.08-42.47 53.42c0 0 13.92-21.4 46.74-35.79 19.5-8.54-4.27-17.63-4.27-17.63Z"/><path id="_Контур_16" data-name="&lt;Контур&gt;" class="cls-6" d="M242.43 326.65c3.07 7.94 11.43 26 26.09 32.4 0 0 14.83 36.5-25.24 28.05-36.06-7.61-15.33-51.71-10.83-60.45Z"/></g><g id="_Группа_19" data-name="&lt;Группа&gt;"><path id="_Контур_17" data-name="&lt;Контур&gt;" class="cls-3" d="M201.4 310.17c0-20.79.81-39.82 1.62-53.65.4-6.91.81-12.53 1.11-16.41s.5-6 .5-6l-2.39-.22S199 268.46 199 310.17c0 23.17 1 48.55 4.12 71.45a217.23 217.23 0 0 0 7.5 35.38l2.55.08a211.64 211.64 0 0 1-7.67-35.78c-3.1-22.74-4.1-48.03-4.1-71.13Z"/></g><g id="_Группа_20" data-name="&lt;Группа&gt;"><path id="_Контур_18" data-name="&lt;Контур&gt;" class="cls-7" d="M279.62 157.13s23.91-4.78 21.18-19.13c-1.67-8.71-12.21-9.32-14.89-8.34-7.27 2.65-6.29 27.47-6.29 27.47Z"/><path id="_Контур_19" data-name="&lt;Контур&gt;" d="m287.62 142.65-.51-.07c.16-.12.32-.25.49-.36a11.51 11.51 0 0 1 4.87-2 9.55 9.55 0 0 0-6.81 1.93 8.19 8.19 0 0 0-1.37 1.27 3.52 3.52 0 0 0-.4.44c-2.55 3.1-1.34 4.23-1.34 4.23a16.26 16.26 0 0 1 3.52-4.67h.39a9.1 9.1 0 0 1 4.83 1.28 7.42 7.42 0 0 0-3.67-2.05Z" style="fill:#d78d43"/><path id="_Контур_20" data-name="&lt;Контур&gt;" class="cls-7" d="M131.57 124.3c0 1.48 0 3 .07 4.42 0 .92.1 1.84.17 2.75 3.1 41.52 35.92 74.31 76.24 74.66 42.61.35 77.47-35.69 77.85-80.53S252 44.14 209.43 43.77 132 79.46 131.57 124.3Z"/><path id="_Контур_21" data-name="&lt;Контур&gt;" class="cls-9" d="M146.93 165a11.89 11.89 0 1 0 12-11.79 11.91 11.91 0 0 0-12 11.79Z"/><path id="_Контур_22" data-name="&lt;Контур&gt;" class="cls-9" d="M243.06 165.83a11.89 11.89 0 1 0 12-11.79 11.89 11.89 0 0 0-12 11.79Z"/><path id="_Контур_23" data-name="&lt;Контур&gt;" d="M193.83 151.47c-.05 6 5.23 10.95 11.79 11s11.93-4.78 12-10.8-5.22-10.95-11.79-11-11.95 4.79-12 10.8Z" style="opacity:.09;fill:#010101"/><path id="_Контур_24" data-name="&lt;Контур&gt;" class="cls-7" d="M193.85 149c0 4.65 5.25 8.46 11.8 8.51s11.92-3.67 12-8.31-5.25-8.45-11.81-8.5-11.95 3.64-11.99 8.3Z"/><path id="_Контур_25" data-name="&lt;Контур&gt;" d="M255 113a2.54 2.54 0 0 1-.08.29l.11-.08a1.55 1.55 0 0 0-.03-.21Z" style="fill:#e2a584"/><g id="_Группа_21" data-name="&lt;Группа&gt;"><path id="_Контур_26" data-name="&lt;Контур&gt;" class="cls-12" d="M182.37 140.26a7.21 7.21 0 0 1-6.85 7.47 7.09 7.09 0 0 1-6.9-7.32 7.2 7.2 0 0 1 6.84-7.47 7.11 7.11 0 0 1 6.91 7.32Z"/><path id="_Контур_27" data-name="&lt;Контур&gt;" class="cls-13" d="M178.6 140.31a3.26 3.26 0 0 1-3.09 3.37 3.21 3.21 0 0 1-3.13-3.31 3.26 3.26 0 0 1 3.09-3.38 3.21 3.21 0 0 1 3.13 3.32Z"/><path id="_Контур_28" data-name="&lt;Контур&gt;" class="cls-3" d="M174.9 137.86a1.89 1.89 0 0 1-1.78 1.94 1.85 1.85 0 0 1-1.8-1.91 1.87 1.87 0 0 1 1.78-1.94 1.85 1.85 0 0 1 1.8 1.91Z"/><path id="_Контур_29" data-name="&lt;Контур&gt;" class="cls-3" d="M176.35 138.39a.55.55 0 0 1-.52.57.53.53 0 0 1-.52-.55.56.56 0 0 1 .52-.57.54.54 0 0 1 .52.55Z"/><path id="_Контур_30" data-name="&lt;Контур&gt;" d="M170.65 139s-.7 5.33 4.85 5.28c5.38-.07 4.8-5.39 4.8-5.39 1.81 2.17.33 8.39-4.79 8.44s-6.24-6.93-4.86-8.33Z" style="fill:url(#linear-gradient)"/></g><g id="_Группа_22" data-name="&lt;Группа&gt;"><path id="_Контур_31" data-name="&lt;Контур&gt;" class="cls-12" d="M245.68 140.26a7.21 7.21 0 0 1-6.85 7.47 7.09 7.09 0 0 1-6.9-7.32 7.2 7.2 0 0 1 6.84-7.47 7.11 7.11 0 0 1 6.91 7.32Z"/><path id="_Контур_32" data-name="&lt;Контур&gt;" class="cls-13" d="M241.9 140.31a3.26 3.26 0 0 1-3.09 3.37 3.21 3.21 0 0 1-3.13-3.31 3.26 3.26 0 0 1 3.09-3.38 3.21 3.21 0 0 1 3.13 3.32Z"/><path id="_Контур_33" data-name="&lt;Контур&gt;" class="cls-3" d="M238.2 137.86a1.89 1.89 0 0 1-1.78 1.94 1.85 1.85 0 0 1-1.8-1.91 1.87 1.87 0 0 1 1.78-1.94 1.85 1.85 0 0 1 1.8 1.91Z"/><path id="_Контур_34" data-name="&lt;Контур&gt;" class="cls-3" d="M239.65 138.39a.55.55 0 0 1-.52.57.53.53 0 0 1-.52-.55.56.56 0 0 1 .52-.57.54.54 0 0 1 .52.55Z"/><path id="_Контур_35" data-name="&lt;Контур&gt;" d="M234 139s-.7 5.33 4.85 5.28c5.38-.07 4.8-5.39 4.8-5.39 1.81 2.17.33 8.39-4.79 8.44s-6.29-6.93-4.86-8.33Z" style="fill:url(#linear-gradient-2)"/></g><g id="_Группа_23" data-name="&lt;Группа&gt;"><path id="_Контур_36" data-name="&lt;Контур&gt;" class="cls-2" d="m164.52 122.94.17-.21a19.34 19.34 0 0 1 3.19-3 9.56 9.56 0 0 1 5.47-2.14 6.15 6.15 0 0 1 3.79 1.35 15 15 0 0 1 4.08 5.35 1.2 1.2 0 1 0 2.14-1.09 17.37 17.37 0 0 0-4.76-6.2 8.57 8.57 0 0 0-5.24-1.83 12.53 12.53 0 0 0-7.65 3.2 21.08 21.08 0 0 0-3.1 3.13 1.2 1.2 0 1 0 1.91 1.46Z"/></g><g id="_Группа_24" data-name="&lt;Группа&gt;"><path id="_Контур_37" data-name="&lt;Контур&gt;" class="cls-2" d="m229.6 132.17.71-.14a49.35 49.35 0 0 1 8.34-.76c4 0 8.47.65 11.22 2.69a1.2 1.2 0 1 0 1.42-1.94c-3.53-2.55-8.38-3.14-12.64-3.16a50.68 50.68 0 0 0-9.56.95 1.2 1.2 0 1 0 .51 2.35Z"/></g><g id="_Группа_25" data-name="&lt;Группа&gt;"><path id="_Контур_38" data-name="&lt;Контур&gt;" d="M192.15 180.65s-.32-.5-.79-1.44a7.76 7.76 0 0 1-.87-4.48 5 5 0 0 1 1.57-3.09 5.65 5.65 0 0 1 3.73-1.35 12.17 12.17 0 0 1 3.75.51c1.19.35 2.26.72 3.39 1.1a65.11 65.11 0 0 1 11.72 5.58 38.44 38.44 0 0 1 4.84 3.42s-2.31-.62-5.62-1.75-7.67-2.68-12-4.23a25.9 25.9 0 0 0-6.08-1.81 3.76 3.76 0 0 0-2.21.39 3.47 3.47 0 0 0-1.28 1.67 8.54 8.54 0 0 0-.3 3.83Z" style="opacity:.15;fill:#010101"/></g><path class="cls-2" d="M310 154c-.34-34.09-1.78-70.23-20.59-98.65A91.17 91.17 0 0 0 164 29.08c-22.12 14.25-37.19 37.68-45.59 62.62s-9.5 52.3-10.41 78.56A140 140 0 0 0 144.85 185c-4.58-18.31-3.2-37.52-1.78-56.35.47-6.24.78-12.46 1.25-18.69 19.2-9.2 41.27-12 63.19-10.19 2.79-11.05 6-16.47 7.4-18.39a144.46 144.46 0 0 0-.08 19.19A166.83 166.83 0 0 1 273.95 120c2.15 7.94-3.81 54.71-7.22 77.31 20.64 1 35.75-3 43.41-8q-.01-17.63-.14-35.31Z"/><path d="M288 53.51c-30.54 2.46-91.75 5.26-145.7-5.29a124.4 124.4 0 0 0-16.9 26.28C165.8 62.76 237.63 53 306.07 99.77c-2.85-15.82-7.83-31-16.71-44.38-.43-.63-.88-1.25-1.36-1.88Z" style="fill:#944c15"/></g><circle class="cls-3" cx="271.86" cy="79.69" r="20.08"/><circle cx="72.72" cy="136.99" r="20.08" style="stroke:#fff;stroke-miterlimit:10;fill:#dddaee"/><circle class="cls-3" cx="267.33" cy="106.06" r="12.25"/><circle class="cls-3" cx="289.93" cy="130.17" r="4.03"/><circle class="cls-3" cx="265.25" cy="59.37" r="17.72"/><circle class="cls-3" cx="293.19" cy="106.06" r="5.91"/></g><path d="M357.79 534.66a44.72 44.72 0 0 0-36.72 19.18 30.44 30.44 0 0 0-46.92 25.62h128.44a44.79 44.79 0 0 0-44.8-44.8Z" style="fill:#dddaee"/></svg>