<svg id="Слой_1" data-name="Слой 1" xmlns="http://www.w3.org/2000/svg" viewBox="0 0 392.59 595.28"><defs><style>.cls-1{fill:#eecfb0}.cls-2{fill:#7dc0b3}.cls-3{fill:#1758a3}.cls-4{fill:#d31219}.cls-5{fill:#7e1710}.cls-6{fill:#fff}.cls-9{fill:#901916}.cls-10{fill:#62121d}.cls-11{fill:#eaba91}.cls-12{fill:#636467}.cls-14{fill:#9d6243}.cls-16{fill:#302716}.cls-17{fill:#161616}.cls-20{fill:#57bbeb}.cls-22{fill:#3d9ed8}.cls-27{fill:#d56d0d}</style></defs><path class="cls-1" d="M202.37 434.3c2.92 16 6.28 32 10 47.9 6.07 25.63 11.75 52.62 23 76.58a77.43 77.43 0 0 0 7 12.58c2.52 3.45 7 5.88 10 1.78s1.24-12.51.91-17c-1.65-22.25-9.31-55.57-11.45-123.5Z"/><path class="cls-2" d="M253.27 556.09c-.85-11.41-3.27-25.75-5.73-46.17-8.9 3.44-18.22 5.38-27.46 4.14 4 15.36 8.69 30.57 15.35 44.72a77.43 77.43 0 0 0 7 12.58c2.52 3.45 7 5.88 10 1.78s1.18-12.52.84-17.05Z"/><path class="cls-3" d="M239.52 514.89a53.31 53.31 0 0 0 8.32-2.58c-.1-.79-.19-1.57-.29-2.39-8.9 3.44-18.22 5.38-27.46 4.14.23.93.49 1.86.74 2.79 6.23 1.27 12.59-.42 18.69-1.96Z"/><path class="cls-3" d="M239.33 520.2a60.82 60.82 0 0 0 9.08-3.32l-.42-3.31a49.5 49.5 0 0 1-6.78 2.18c-6.53 1.7-13.35 3.6-20 2.44.35 1.3.71 2.62 1.08 3.92 5.39 1.4 12.01-.44 17.04-1.91Z"/><path class="cls-4" d="M251.38 539.13a31.49 31.49 0 0 0-14.86.23 45.88 45.88 0 0 0-7.95 2.73c2.06 5.69 4.32 11.27 6.87 16.7a77.43 77.43 0 0 0 7 12.58c2.52 3.45 7 5.88 10 1.78s1.24-12.51.91-17c-.45-5.06-1.13-10.63-1.97-17.02Z"/><path class="cls-5" d="m248.84 545.84-.32-4.2s-9.48-1.73-14.83 3.75l1 4 .38-3.33s6-4.17 12.13-2.81Z"/><path class="cls-6" d="M249.47 548.06s-8.27 2.81-11.32 8.32c0 0 8.94-4.52 11.32-8.32Z"/><path class="cls-6" d="M236.06 550.45s8.68-1 13.8 2.66c.01-.01-10.02-.25-13.8-2.66ZM250.49 556.13s-6.51 2.21-8.91 6.53c.01.01 7.04-3.55 8.91-6.53Z"/><path class="cls-6" d="M240 558s6.82-.8 10.84 2.09c-.05 0-7.93-.19-10.84-2.09Z"/><path class="cls-3" d="M247 369.12s11 57.62 9.18 66.3c0 0-23.65 17.41-63.39 5.94L185.42 412l-5 29.36S153 450 122.1 432.59c0 0 14.39-63.47 27.8-74.78.01 0 58.94 23.42 97.1 11.31Z"/><path d="M227.54 372.43c3.56 11.21 11.06 27.24 25.35 30.53-2.67-16.9-5.91-33.84-5.91-33.84a78.48 78.48 0 0 1-19.44 3.31Z" style="fill:#62b7b3"/><path d="M122.1 432.59c30.86 17.42 58.32 8.78 58.32 8.78-3.42-7.75-48.42-15.68-58.32-8.78Z" style="fill:#143f6f"/><path class="cls-9" d="M215.79 238.47s-51.93 1.47-77.57 5c0 0-4.64.62-1.49 28.35s8.38 26.07 8.38 26.07l66-18.66Z"/><path class="cls-10" d="M147.2 277.11c-1.08-16-3.36-34.31-9-33.6 0 0-4.64.62-1.49 28.35s8.38 26.07 8.38 26.07h.08c1.67-4.49 2.61-12.22 2.03-20.82Z"/><path class="cls-1" d="M151.26 430.65c-13.42-2.29-22.74-.23-26.82 1.07 1 25.11 6.53 95.13 35.56 144.37 0 0 5.86 8.47 11-4.15 5-12.19-12.48-90.51-9.67-139.18-3.04-.76-6.38-1.48-10.07-2.11Z"/><path class="cls-2" d="M139.12 525.9c5 17.42 11.82 34.82 20.88 50.2 0 0 5.86 8.47 11-4.15 2.38-5.86-.4-27-3.64-52.74a88.77 88.77 0 0 1-28.24 6.69Z"/><path class="cls-3" d="M161.89 523.54c1.91-.69 3.88-1.2 5.78-1.88-.1-.81-.21-1.63-.31-2.45a88.77 88.77 0 0 1-28.23 6.69c.22.77.47 1.55.7 2.32 3.58.25 17.39-3.01 22.06-4.68ZM163.34 527.85c1.55-.54 3.27-1.62 4.83-2.21-.11-.89-.22-1.78-.34-2.68-1.85.65-3.77 1.09-5.6 1.79-5.64 2.15-19.42 4.84-22 4.75.31 1 .66 2.08 1 3.13 7.61.25 15.01-2.32 22.11-4.78Z"/><path class="cls-4" d="M157.27 547.3c-2.06.8-6.51 3.07-8.67 5.77a188.43 188.43 0 0 0 11.4 23s5.86 8.47 11-4.15c1.43-3.53 1-12.6-.3-24.89-3.87-1.93-9.16-1.39-13.43.27Z"/><path class="cls-5" d="m153.06 557.07-2.06-3.66s6.91-6.73 14.4-5.16l1.42 3.93-2.17-2.57s-7.29-.13-11.64 4.44Z"/><path class="cls-6" d="M153.79 559.27s8.43-2.28 14 .6c.03-.01-9.92 1.23-14-.6Z"/><path class="cls-6" d="M166.24 553.78s-7.76 4-10 9.89c.02 0 8.21-5.79 10-9.89ZM157.43 566.54s6.64-1.8 11 .47c.04-.01-7.78.99-11-.47Z"/><path class="cls-6" d="M167.22 562.22s-6.1 3.14-7.84 7.78c0 0 6.44-4.56 7.84-7.78Z"/><path class="cls-11" d="M139.14 244s4.19 1 6 12.91a181.23 181.23 0 0 1 2.23 23.14s-32 .93-41.91-3.15c-9.66-4-5.86-43.77-14.82-55.52-.18-.24-.37-.47-.56-.69-9.68-10.79 7.1-32.84 13.42-11.6s7.23 31.61 11 34.18 24.64.73 24.64.73Z"/><path class="cls-12" d="M35.86 321.55A43 43 0 0 1 22 297.76c-.05-.21-.39-.17-.35.05 1.65 8.92 6.1 18.94 13.92 24.17a.27.27 0 0 0 .29-.43ZM31.68 325.14c-4.08-3.89-7.47-7.61-10.11-12.66a42.24 42.24 0 0 1-4.38-16.19.15.15 0 0 0-.29 0c-.59 10.88 5.09 23.57 14.51 29.2a.22.22 0 0 0 .27-.35Z"/><path class="cls-4" d="M254.06 375.87s-67.68 17.46-108.64-13.68c0 0-3.79-35.74 15-75.63s35.16-51.77 60.33-49.68c0 0 28.06 3.46 27.39 17.34s3.02 98.58 5.92 121.65Z"/><path class="cls-11" d="M201.38 235.68s-3.12 19.85 6.71 21.68 15.5-15.66 13.75-23.66Z"/><path d="M128 90.2s-20.57 17.67-19.69 25.47 7.33 17.62 15.45 26.75 19.64 26.38 10.77 45.86l130.11 34.49s30.79-7.48 54-36.41 31.52-69.24 19-84.61S178.15 40.22 128 90.2Z" style="fill:#1a150f"/><path class="cls-11" d="M143.52 170.76s-6-15.94-15.32-15.27S108 167.16 113.13 183c5.72 17.76 34.64 7.85 30.39-12.24Z"/><path class="cls-14" d="M128.22 168.43c-3.61-4-9.42-2.69-9.23 3.14 0 .16.24.15.26 0a4.25 4.25 0 0 1 7-2.79 9.11 9.11 0 0 1 3 5.2 9.23 9.23 0 0 1-.31.9 7.06 7.06 0 0 1-2 2.33 7.84 7.84 0 0 1-5.28 1.68.16.16 0 0 0-.05.32 7.52 7.52 0 0 0 8.09-2.85 17.78 17.78 0 0 1-.44 8.44.47.47 0 0 0 .8.47c3.76-4.37 1.73-12.92-1.84-16.84Z"/><path d="M328.2 84.49s20.56 2.33 29.64 10.83c0 0-15.18-34.88-67.62-39.73 0 0 8.85-9.07 20.54-8 0 0-20.41-10-45.19 6.47 0 0 4.87-14.64.84-26.78 0 0-5.1 16.76-11 21.45 0 0-24.06-43.73-100.49-17.23 0 0 21.08 1.8 35.31 10.39 0 0-78.81-12.35-106.43 63.82l32.87-12.2s-13.8 14.49-18.72 25.26c0 0 38.05-10.92 55-19.13 0 0-20.2 18-25.6 28.73a68.92 68.92 0 0 0 2.19 10.24c10.12-3.89 20.19-8.12 30.83-10.33 4.83-1 10.37-2.12 15.27-.87 5.91 1.51 7.29 9.25 13.35 10.19 8.5 1.31 17.71-3.75 25.82-6 3.78-1 11.83-4.19 15.64-1.43 4.87 3.54 5.29 11.35 10.44 14.28 9 5.1 12.32-5 16.65-10.53a1.27 1.27 0 0 1 1.71-.41c7.36 4.37 13.44 10.51 20.58 15.13.66-5.32 1.41-8.72 1.41-8.72l9.44 8 2.06-35.63s18.47 19.49 29.72 25.2c0 0-.12-13.31-5.79-23.88 0 0 32.4 14.42 40.38 24.5.01-.04 1.83-32.11-28.85-53.62Z" style="fill:#3e2a16"/><path class="cls-1" d="M253.07 110.9c-3.73 10.34-4.27 27.14-4.27 27.14-10.94-10.38-12.7-30.63-12.7-30.63-24 18.15-45 16.34-45 16.34 12.64-5.69 24.76-21.8 24.76-21.8-26.83 5.2-88.5 26.42-88.5 26.42a81 81 0 0 0 7.39 23.95c4.07 8.37 4.07 21.72-.58 32.17-2.72 6.11-8.28 13.58 3.81 24.91s44.82 34.16 77.73 32.6 61.53-28.48 71.68-40.37c0 0 21.95 6.65 25-20.16 2.92-25.63-16.31-27.75-22.1-21.09s-11.19 20.82-11.47 6.26a127.64 127.64 0 0 1 2.43-26.75c-11.83-9.78-28.18-28.99-28.18-28.99Z"/><path class="cls-14" d="M301 169c-3.65-1.56-7.37 1-9.56 3.71a19.19 19.19 0 0 0-3.78 11.34c0 3.53.31 9.16 3.66 11.36a.28.28 0 0 0 .34-.43c-3-2.66-3.21-7.67-2.46-12a16.36 16.36 0 0 0 1.15 3.64c1.43 3.16 5.35 3.85 8.34 2.81a.32.32 0 0 0-.07-.6c-1.05-.11-2.1-.19-3.14-.24-2.44-.12-3.7-2-4.54-4a12.55 12.55 0 0 1-.75-5.53c.16-.51.32-1 .51-1.43a12.52 12.52 0 0 1 5.2-6.49c5.24-3 7.31 2.7 7.24 6.71a.58.58 0 0 0 1.15.16c.83-3.25.13-7.55-3.29-9.01ZM289.38 161.48c-4.16 3.75-7.1 9.29-8.89 14.54-.07.19.22.4.32.19a128.94 128.94 0 0 1 8.57-14.73ZM283 197.25c-.07-.1-.27 0-.19.12 2.24 4 8.1 6.5 12.74 4.89.21-.08-9.09-.16-12.55-5.01Z"/><path class="cls-16" d="M158 183.47c0 6.75-1.93 12.21-4.3 12.22s-4.31-5.47-4.32-12.22 1.93-12.21 4.31-12.21 4.31 5.46 4.31 12.21Z"/><ellipse class="cls-6" cx="152.09" cy="179.81" rx="1.39" ry="3.93"/><path class="cls-16" d="M211.84 178.31c1 7.23-.16 13.39-2.72 13.77s-5.47-5.19-6.51-12.42.16-13.4 2.71-13.77 5.47 5.18 6.52 12.42Z"/><path class="cls-6" d="M206.41 175.09c.34 2.32 0 4.3-.87 4.42s-1.76-1.67-2.1-4 .06-4.31.88-4.42 1.75 1.67 2.09 4Z"/><path class="cls-17" d="M211.27 145.53s-13.09-8.49-21.72 3.4c0 0 .17-8.77 8.43-10.91 7.74-2.02 13.29 7.51 13.29 7.51ZM143 154s7.27-11.63 16.09.6c0 0-.74-9-7.89-9S143 154 143 154Z"/><path d="M175 216.3s29.91 8 62.15-21.81c0 0 8.11 31.71-13.3 40s-38.2-5.14-48.85-18.19Z" style="fill:#e97f88"/><path d="M210.07 237a35.82 35.82 0 0 0 13.79-2.53c7.55-2.92 11.43-8.75 13.28-15.08-20.3.89-25.67 12.23-27.07 17.61Z" style="fill:#df514c"/><path class="cls-6" d="M221.73 219.95c8.55-3.22 13.8-7.46 16.92-11.92a59.49 59.49 0 0 0-1.5-13.54c-19 17.54-37.09 22-48.83 22.68 4.07 5.45 13.17 10.41 33.41 2.78Z"/><path class="cls-20" d="M115.11 234.72c-4.71 4.21-13.28 12.44-18.16 9.75s-12.11-14-30.09-14.29-38.5 16.31-38.33 50.44 23.37 51.44 45.73 47.08 21-23.37 33.46-21.86 15.5 13.62 19.17 7.4 20.51-45.65 4.64-74c-8.12-14.45-16.42-4.52-16.42-4.52Z"/><path d="M50.55 227.32c-1.41 6-2.19 12.95 1.68 14.63s8.08-1.51 8.74-7.31 3.2-17.4 14.8-16.22 12.79 8.36 11.69 18.47.92 11.62 4.28 12.13 7.64-1.68 8-16.64S86.5 210.7 78.6 209.61s-23.34-2.13-28.05 17.71Z" style="fill:#72c7f1"/><path class="cls-20" d="m126.75 328.36-9.74 2.7 9.74 68.24c.09 2.69 9.43 4.55 20.85 4.14s20.59-2.91 20.5-5.6l6.35-68.84Z"/><ellipse class="cls-22" cx="145.73" cy="330.05" rx="28.74" ry="4.88" transform="translate(-11.58 5.36)"/><path d="m119.45 348.24 7.29 51.06c.09 2.69 9.43 4.55 20.85 4.14s20.59-2.91 20.5-5.6l4.58-49.6Z" style="opacity:.5;fill:#7d4201"/><path d="M172.8 348.13c0 2.69-11.91 4.93-26.63 5s-26.67-2.13-26.67-4.78 11.91-4.93 26.63-5 26.66 2.09 26.67 4.78Z" style="fill:#e39c39"/><path d="M91.76 281.25c-12.11-4.21-47.87-5.79-63 4.25C31 316.38 53 331.85 74.26 327.7c22.37-4.37 21-23.37 33.46-21.86s15.5 13.62 19.17 7.4c.14-.23.29-.51.45-.82-14.1-22.59-27.17-28.25-35.58-31.17Z" style="fill:#d24a19;opacity:.5"/><path d="M127.33 312.42c-14.09-22.59-27.16-28.24-35.57-31.17-12.11-4.21-47.87-5.79-63 4.25 0 0 5.67 5 38 6 26.69.87 54.76 11.76 60.1 21.76.14-.26.31-.53.47-.84Z" style="fill:#d86527;opacity:.5"/><path class="cls-22" d="M131.52 239.26c-6-10.73-12.14-8-14.88-5.94a18 18 0 0 1-2.59 2.36l-.11.09-1.35 1.23c-8.25 8.13-7.06 23.89-5.47 34.12a109.77 109.77 0 0 0 6.23 23.36c.93 2.36 9.55 24.16 13.52 18.78 3.68-6.26 20.52-45.68 4.65-74Z"/><path class="cls-27" d="M128.76 344.62a112.27 112.27 0 0 0-10.56-39.33s-3.2-6.5-4.84-10.84c0 0 22.32 24.27 26.54 49.07a78.77 78.77 0 0 0-11.14 1.1Z"/><path class="cls-27" d="M128.76 344.62c1.63-.33 4.94 5.14 6.71 5 3.11-.29 4.43-6.06 4.43-6.06a62.43 62.43 0 0 0-2.11-8.46c-4-.08-7.89-.38-10.31-.63.8 6.15.8 6.14 1.28 10.15Z"/><path class="cls-1" d="M87.78 232.07s-2.95-9.52 1.8-11.94 7.48-2 9.95 8.28c0 0 3.79-.71 2.62-14.3s-3.55-16.86-10.89-21-17.52-1-22.94 2.36-10 11.18-9.6 20 3.82 11.89 13.94 11.74 5.59 7.79 15.12 4.86Z"/><path class="cls-14" d="M94.47 208.88a.17.17 0 0 0-.17.29 13.48 13.48 0 0 1 5.43 7c1.36 3.7 1 7.52.06 11.26a.26.26 0 0 0 .48.19c2.83-6.4 1.51-16.08-5.8-18.74Z"/><path class="cls-14" d="M97.43 217.93c-2.36-1.25-5-2-7.39-.3-2 1.45-3.74 4.22-3.34 6.8a.2.2 0 0 0 .38 0 14.13 14.13 0 0 1 2.1-5.11c2-2.7 5.42-2.29 8.17-1.22.13.1.21-.1.08-.17Z"/><path class="cls-9" d="M280.81 316.77s.63-17.6-9.24-42-27-33-29.78-31.31-4.88 18.29-4 32.36-3.57 25.83-5.68 31.5 7.14 10.5 26.46 12.18 22.28.18 22.24-2.73Z"/><path class="cls-10" d="M247.05 300.85c-7.73 1.07-12.4 3.68-15.06 6.84-1.61 5.53 7.61 10.2 26.55 11.85 16.23 1.41 20.94.55 22-1.48-2.54-10.06-15.19-19.75-33.49-17.21Z"/><path class="cls-11" d="M177 344.62s22.48 6 46.11-10.17c20.72-14.22 14.89-31.14 14.89-31.14s20.43-8.55 35.88 4.43c0 0 3.07 33-25.86 46.92s-65 9.73-65 9.73Z"/><path class="cls-1" d="M173.24 342s15.65.93 14.94 21.19c-1.05 30.12-15.38 35.71-20.66 33-4.8-2.46 2.37-4.74 8.82-13.68 0 0-10.52 7.5-12.63 4.47-2.68-3.86 10.14-16.09 13.42-17.93 0 0-13.68 8.59-16.31 3.2s11.57-11 17.49-15.26c0 0-24.06 9.92-21.58 1.58 1.54-5.18 15.87-8.15 16.19-12.36Z"/><path d="M170.29 198.06c5-3.9 10.43 1.28 10.43 1.28s-6.06-8.49-13-1.18 3.54 16.45 14.31 9.89c-10.72 4.61-16.73-6.05-11.74-9.99Z" style="fill:#9b6042"/></svg>