<svg viewBox="0 0 400 500" xmlns="http://www.w3.org/2000/svg" xmlns:xlink="http://www.w3.org/1999/xlink"><defs><linearGradient id="e" x2="0" y1="442.77" y2="500.01" gradientUnits="userSpaceOnUse" xlink:href="#a"/><linearGradient id="k" x2="0" y1="382.77" y2="440.01" gradientUnits="userSpaceOnUse" xlink:href="#a"/><linearGradient id="b"><stop stop-color="#fff" offset="0"/><stop stop-color="#fff" stop-opacity="0" offset="1"/></linearGradient><linearGradient id="a"><stop stop-color="#383838" offset="0"/><stop stop-color="#3b3b3b" offset=".058"/><stop stop-color="#626463" offset=".08"/><stop stop-color="#bfbfbf" offset=".124"/><stop stop-color="gray" offset=".189"/><stop stop-color="#e0e0e0" offset=".258"/><stop stop-color="#ececec" offset=".374"/><stop stop-color="#828282" offset=".526"/><stop stop-color="#818181" offset=".573"/><stop stop-color="#acacac" offset=".674"/><stop stop-color="#bcbcbc" offset=".738"/><stop stop-color="#505050" offset=".865"/><stop stop-color="#333" offset=".908"/><stop stop-color="#7a7a7c" offset=".963"/><stop stop-color="#c9c6c1" offset="1"/></linearGradient><linearGradient id="i" x2="0" y1="443.51" y2="502.85" gradientUnits="userSpaceOnUse" xlink:href="#a"/><linearGradient id="g" x2="0" y1="443.01" y2="502.35" gradientUnits="userSpaceOnUse" xlink:href="#a"/><radialGradient id="h" cx="508.3" cy="471.4" r="7.133" fx="506.25" fy="469.36" gradientTransform="matrix(1 0 0 3.9254 0 -1382.3)" gradientUnits="userSpaceOnUse" xlink:href="#b"/><radialGradient id="j" cx="508.3" cy="471.4" r="7.133" fx="506.25" fy="469.36" gradientTransform="matrix(1 0 0 3.9254 22.461 -1381.8)" gradientUnits="userSpaceOnUse" xlink:href="#b"/><clipPath id="c"><path d="M20.944 568.1c29.395-11.077 60.809-18.38 87.841-33.876l376.04-32.61c19.909 13.562 33.488 103.01 15.815 116.35l-391.3-20.053c-27.865-14.21-58.902-19.965-88.405-29.809z"/></clipPath><clipPath id="l"><path d="m75.2 372.5 70.569 27.5c6.861 0 12.438-12.32 12.438-27.5s-5.576-27.5-12.438-27.5L75.2 372.5z"/></clipPath><filter id="d"><feGaussianBlur stdDeviation="3.312"/></filter><filter id="f"><feGaussianBlur stdDeviation=".351"/></filter></defs><path transform="matrix(.78636 -.63775 .67034 .88655 -388.33 3.866)" d="m20.944 568.1 89.694-27.949h372.42c19.909 13.562 18.454 41.66.781 55h-373L20.946 568.1z" clip-path="url(#c)" filter="url(#d)" opacity=".369"/><path d="M629.12 445v55h36.438c6.861 0 16.734-12.32 16.734-27.5s-9.873-27.5-16.734-27.5H629.12z" fill="url(#e)" transform="rotate(-54.642 46.723 775.989) scale(1.22873)"/><path d="M280.086 51.017 335.2 90.124 361.11 53.61c4.878-6.876-.447-25.53-15.66-36.323s-34.577-9.66-39.456-2.784l-25.908 36.514z" fill="#ef2929" opacity=".7"/><path d="M425.75 445v55h91.308c6.861 0 12.438-12.32 12.438-27.5S523.92 445 517.058 445H425.75z" fill="url(#e)" transform="rotate(-54.642 -33.882 619.962) scale(1.22873)"/><path d="M495.3 444.5c-.249.027-1.27.25-1.266.5 6.847.037 12.406 12.343 12.406 27.5s-5.56 27.463-12.406 27.5c-.001.115.88.239.985.344s.229.157.344.156c1.858 0 3.605-.861 5.156-2.313s2.918-3.501 4.062-6.03c2.29-5.062 3.719-12.008 3.719-19.657s-1.43-14.595-3.719-19.656c-1.144-2.53-2.51-4.578-4.062-6.03s-3.298-2.313-5.156-2.313h-.063z" filter="url(#f)" transform="rotate(-54.642 -2.204 681.281) scale(1.22873)"/><path d="M495.4 444.5c-.249.027-1.27.25-1.266.5 6.847.037 12.406 12.343 12.406 27.5s-5.56 27.463-12.406 27.5c-.001.115.88.239.985.344s.229.157.344.156c1.858 0 3.605-.861 5.156-2.313s2.918-3.501 4.062-6.03c2.29-5.062 3.719-12.008 3.719-19.657s-1.43-14.595-3.719-19.656c-1.144-2.53-2.51-4.578-4.062-6.03s-3.298-2.313-5.156-2.313h-.063z" fill="url(#g)" transform="rotate(-54.642 -2.204 681.281) scale(1.22873)"/><path d="M495.3 444.5c-.249.027-1.27.25-1.266.5 6.847.037 12.406 12.343 12.406 27.5s-5.56 27.463-12.406 27.5c-.001.115.88.239.985.344s.229.157.344.156c1.858 0 3.605-.861 5.156-2.313s2.918-3.501 4.062-6.03c2.29-5.062 3.719-12.008 3.719-19.657s-1.43-14.595-3.719-19.656c-1.144-2.53-2.51-4.578-4.062-6.03s-3.298-2.313-5.156-2.313h-.063z" fill="url(#h)" transform="rotate(-54.642 -2.204 681.281) scale(1.22873)"/><path d="M495.3 444.5c-.249.027-1.27.25-1.266.5 6.847.037 12.406 12.343 12.406 27.5s-5.56 27.463-12.406 27.5c-.001.115.88.239.985.344s.229.157.344.156c1.858 0 3.605-.861 5.156-2.313s2.918-3.501 4.062-6.03c2.29-5.062 3.719-12.008 3.719-19.657s-1.43-14.595-3.719-19.656c-1.144-2.53-2.51-4.578-4.062-6.03s-3.298-2.313-5.156-2.313h-.063z" filter="url(#f)" transform="rotate(-54.642 -11.39 663.502) scale(1.22873)"/><path d="M495.4 444.5c-.249.027-1.27.25-1.266.5 6.847.037 12.406 12.343 12.406 27.5s-5.56 27.463-12.406 27.5c-.001.115.88.239.985.344s.229.157.344.156c1.858 0 3.605-.861 5.156-2.313s2.918-3.501 4.062-6.03c2.29-5.062 3.719-12.008 3.719-19.657s-1.43-14.595-3.719-19.656c-1.144-2.53-2.51-4.578-4.062-6.03s-3.298-2.313-5.156-2.313h-.063z" fill="url(#g)" transform="rotate(-54.642 -11.39 663.502) scale(1.22873)"/><path d="M495.3 444.5c-.249.027-1.27.25-1.266.5 6.847.037 12.406 12.343 12.406 27.5s-5.56 27.463-12.406 27.5c-.001.115.88.239.985.344s.229.157.344.156c1.858 0 3.605-.861 5.156-2.313s2.918-3.501 4.062-6.03c2.29-5.062 3.719-12.008 3.719-19.657s-1.43-14.595-3.719-19.656c-1.144-2.53-2.51-4.578-4.062-6.03s-3.298-2.313-5.156-2.313h-.063z" fill="url(#h)" transform="rotate(-54.642 -11.39 663.502) scale(1.22873)"/><path d="M495.3 444.5c-.249.027-1.27.25-1.266.5 6.847.037 12.406 12.343 12.406 27.5s-5.56 27.463-12.406 27.5c-.001.115.88.239.985.344s.229.157.344.156c1.858 0 3.605-.861 5.156-2.313s2.918-3.501 4.062-6.03c2.29-5.062 3.719-12.008 3.719-19.657s-1.43-14.595-3.719-19.656c-1.144-2.53-2.51-4.578-4.062-6.03s-3.298-2.313-5.156-2.313h-.063z" filter="url(#f)" transform="rotate(-54.642 -14.929 656.65) scale(1.22873)"/><path d="M495.4 444.5c-.249.027-1.27.25-1.266.5 6.847.037 12.406 12.343 12.406 27.5s-5.56 27.463-12.406 27.5c-.001.115.88.239.985.344s.229.157.344.156c1.858 0 3.605-.861 5.156-2.313s2.918-3.501 4.062-6.03c2.29-5.062 3.719-12.008 3.719-19.657s-1.43-14.595-3.719-19.656c-1.144-2.53-2.51-4.578-4.062-6.03s-3.298-2.313-5.156-2.313h-.063z" fill="url(#g)" transform="rotate(-54.642 -14.929 656.65) scale(1.22873)"/><path d="M495.3 444.5c-.249.027-1.27.25-1.266.5 6.847.037 12.406 12.343 12.406 27.5s-5.56 27.463-12.406 27.5c-.001.115.88.239.985.344s.229.157.344.156c1.858 0 3.605-.861 5.156-2.313s2.918-3.501 4.062-6.03c2.29-5.062 3.719-12.008 3.719-19.657s-1.43-14.595-3.719-19.656c-1.144-2.53-2.51-4.578-4.062-6.03s-3.298-2.313-5.156-2.313h-.063z" fill="url(#h)" transform="rotate(-54.642 -14.929 656.65) scale(1.22873)"/><path d="M495.3 444.5c-.249.027-1.27.25-1.266.5 6.847.037 12.406 12.343 12.406 27.5s-5.56 27.463-12.406 27.5c-.001.115.88.239.985.344s.229.157.344.156c1.858 0 3.605-.861 5.156-2.313s2.918-3.501 4.062-6.03c2.29-5.062 3.719-12.008 3.719-19.657s-1.43-14.595-3.719-19.656c-1.144-2.53-2.51-4.578-4.062-6.03s-3.298-2.313-5.156-2.313h-.063z" filter="url(#f)" transform="rotate(-54.642 -18.469 649.799) scale(1.22873)"/><path d="M495.4 444.5c-.249.027-1.27.25-1.266.5 6.847.037 12.406 12.343 12.406 27.5s-5.56 27.463-12.406 27.5c-.001.115.88.239.985.344s.229.157.344.156c1.858 0 3.605-.861 5.156-2.313s2.918-3.501 4.062-6.03c2.29-5.062 3.719-12.008 3.719-19.657s-1.43-14.595-3.719-19.656c-1.144-2.53-2.51-4.578-4.062-6.03s-3.298-2.313-5.156-2.313h-.063z" fill="url(#g)" transform="rotate(-54.642 -18.469 649.799) scale(1.22873)"/><path d="M495.3 444.5c-.249.027-1.27.25-1.266.5 6.847.037 12.406 12.343 12.406 27.5s-5.56 27.463-12.406 27.5c-.001.115.88.239.985.344s.229.157.344.156c1.858 0 3.605-.861 5.156-2.313s2.918-3.501 4.062-6.03c2.29-5.062 3.719-12.008 3.719-19.657s-1.43-14.595-3.719-19.656c-1.144-2.53-2.51-4.578-4.062-6.03s-3.298-2.313-5.156-2.313h-.063z" fill="url(#h)" transform="rotate(-54.642 -18.469 649.799) scale(1.22873)"/><path d="M495.3 444.5c-.249.027-1.27.25-1.266.5 6.847.037 12.406 12.343 12.406 27.5s-5.56 27.463-12.406 27.5c-.001.115.88.239.985.344s.229.157.344.156c1.858 0 3.605-.861 5.156-2.313s2.918-3.501 4.062-6.03c2.29-5.062 3.719-12.008 3.719-19.657s-1.43-14.595-3.719-19.656c-1.144-2.53-2.51-4.578-4.062-6.03s-3.298-2.313-5.156-2.313h-.063z" filter="url(#f)" transform="rotate(-54.642 -31.413 624.742) scale(1.22873)"/><path d="M495.4 444.5c-.249.027-1.27.25-1.266.5 6.847.037 12.406 12.343 12.406 27.5s-5.56 27.463-12.406 27.5c-.001.115.88.239.985.344s.229.157.344.156c1.858 0 3.605-.861 5.156-2.313s2.918-3.501 4.062-6.03c2.29-5.062 3.719-12.008 3.719-19.657s-1.43-14.595-3.719-19.656c-1.144-2.53-2.51-4.578-4.062-6.03s-3.298-2.313-5.156-2.313h-.063z" fill="url(#g)" transform="rotate(-54.642 -31.413 624.742) scale(1.22873)"/><path d="M495.3 444.5c-.249.027-1.27.25-1.266.5 6.847.037 12.406 12.343 12.406 27.5s-5.56 27.463-12.406 27.5c-.001.115.88.239.985.344s.229.157.344.156c1.858 0 3.605-.861 5.156-2.313s2.918-3.501 4.062-6.03c2.29-5.062 3.719-12.008 3.719-19.657s-1.43-14.595-3.719-19.656c-1.144-2.53-2.51-4.578-4.062-6.03s-3.298-2.313-5.156-2.313h-.063z" fill="url(#h)" transform="rotate(-54.642 -31.413 624.742) scale(1.22873)"/><path d="M495.3 444.5c-.249.027-1.27.25-1.266.5 6.847.037 12.406 12.343 12.406 27.5s-5.56 27.463-12.406 27.5c-.001.115.88.239.985.344s.229.157.344.156c1.858 0 3.605-.861 5.156-2.313s2.918-3.501 4.062-6.03c2.29-5.062 3.719-12.008 3.719-19.657s-1.43-14.595-3.719-19.656c-1.144-2.53-2.51-4.578-4.062-6.03s-3.298-2.313-5.156-2.313h-.063z" filter="url(#f)" transform="rotate(-54.642 -34.953 617.89) scale(1.22873)"/><path d="M495.4 444.5c-.249.027-1.27.25-1.266.5 6.847.037 12.406 12.343 12.406 27.5s-5.56 27.463-12.406 27.5c-.001.115.88.239.985.344s.229.157.344.156c1.858 0 3.605-.861 5.156-2.313s2.918-3.501 4.062-6.03c2.29-5.062 3.719-12.008 3.719-19.657s-1.43-14.595-3.719-19.656c-1.144-2.53-2.51-4.578-4.062-6.03s-3.298-2.313-5.156-2.313h-.063z" fill="url(#g)" transform="rotate(-54.642 -34.953 617.89) scale(1.22873)"/><path d="M495.3 444.5c-.249.027-1.27.25-1.266.5 6.847.037 12.406 12.343 12.406 27.5s-5.56 27.463-12.406 27.5c-.001.115.88.239.985.344s.229.157.344.156c1.858 0 3.605-.861 5.156-2.313s2.918-3.501 4.062-6.03c2.29-5.062 3.719-12.008 3.719-19.657s-1.43-14.595-3.719-19.656c-1.144-2.53-2.51-4.578-4.062-6.03s-3.298-2.313-5.156-2.313h-.063z" fill="url(#h)" transform="rotate(-54.642 -34.953 617.89) scale(1.22873)"/><path d="M495.3 444.5c-.249.027-1.27.25-1.266.5 6.847.037 12.406 12.343 12.406 27.5s-5.56 27.463-12.406 27.5c-.001.115.88.239.985.344s.229.157.344.156c1.858 0 3.605-.861 5.156-2.313s2.918-3.501 4.062-6.03c2.29-5.062 3.719-12.008 3.719-19.657s-1.43-14.595-3.719-19.656c-1.144-2.53-2.51-4.578-4.062-6.03s-3.298-2.313-5.156-2.313h-.063z" filter="url(#f)" transform="rotate(-54.642 -38.493 611.038) scale(1.22873)"/><path d="M495.4 444.5c-.249.027-1.27.25-1.266.5 6.847.037 12.406 12.343 12.406 27.5s-5.56 27.463-12.406 27.5c-.001.115.88.239.985.344s.229.157.344.156c1.858 0 3.605-.861 5.156-2.313s2.918-3.501 4.062-6.03c2.29-5.062 3.719-12.008 3.719-19.657s-1.43-14.595-3.719-19.656c-1.144-2.53-2.51-4.578-4.062-6.03s-3.298-2.313-5.156-2.313h-.063z" fill="url(#g)" transform="rotate(-54.642 -38.493 611.038) scale(1.22873)"/><path d="M495.3 444.5c-.249.027-1.27.25-1.266.5 6.847.037 12.406 12.343 12.406 27.5s-5.56 27.463-12.406 27.5c-.001.115.88.239.985.344s.229.157.344.156c1.858 0 3.605-.861 5.156-2.313s2.918-3.501 4.062-6.03c2.29-5.062 3.719-12.008 3.719-19.657s-1.43-14.595-3.719-19.656c-1.144-2.53-2.51-4.578-4.062-6.03s-3.298-2.313-5.156-2.313h-.063z" fill="url(#h)" transform="rotate(-54.642 -38.493 611.038) scale(1.22873)"/><path d="M517.76 445c-.249.027-1.27.25-1.266.5 6.847.037 12.406 12.343 12.406 27.5s-5.56 27.463-12.406 27.5c-.001.115.88.239.985.344s.229.157.344.156c1.858 0 3.605-.861 5.156-2.313s2.918-3.501 4.062-6.03c2.29-5.062 3.719-12.008 3.719-19.657s-1.43-14.595-3.719-19.656c-1.144-2.53-2.51-4.578-4.062-6.03S519.68 445 517.823 445h-.063z" filter="url(#f)" transform="rotate(-54.642 -33.882 619.962) scale(1.22873)"/><path d="M518.15 445c-.249.027-1.27.25-1.266.5 6.847.037 12.406 12.343 12.406 27.5s-5.56 27.463-12.406 27.5c-.001.115.88.239.985.344s.229.157.344.156c1.858 0 3.605-.861 5.156-2.313s2.918-3.501 4.062-6.03c2.29-5.062 3.719-12.008 3.719-19.657s-1.43-14.595-3.719-19.656c-1.144-2.53-2.51-4.578-4.062-6.03S520.07 445 518.213 445h-.063z" filter="url(#f)" transform="rotate(-54.642 -33.882 619.962) scale(1.22873)"/><path d="M517.86 445c-.249.027-1.27.25-1.266.5C523.44 445.537 529 457.843 529 473s-5.56 27.463-12.406 27.5c-.001.115.88.239.985.344s.229.157.344.156c1.858 0 3.605-.861 5.156-2.313s2.918-3.501 4.062-6.03c2.29-5.062 3.719-12.008 3.719-19.657s-1.43-14.595-3.719-19.656c-1.144-2.53-2.51-4.578-4.062-6.03S519.78 445 517.923 445h-.063z" fill="url(#i)" transform="rotate(-54.642 -33.882 619.962) scale(1.22873)"/><path d="M517.76 445c-.249.027-1.27.25-1.266.5 6.847.037 12.406 12.343 12.406 27.5s-5.56 27.463-12.406 27.5c-.001.115.88.239.985.344s.229.157.344.156c1.858 0 3.605-.861 5.156-2.313s2.918-3.501 4.062-6.03c2.29-5.062 3.719-12.008 3.719-19.657s-1.43-14.595-3.719-19.656c-1.144-2.53-2.51-4.578-4.062-6.03S519.68 445 517.823 445h-.063z" fill="url(#j)" transform="rotate(-54.642 -33.882 619.962) scale(1.22873)"/><path d="M165.19 385v55h277.84c6.861 0 12.438-12.32 12.438-27.5S449.892 385 443.03 385H165.19z" fill="url(#k)" transform="rotate(-54.642 37.48 583.1) scale(1.22873)"/><path d="m43.505 384.454 55.116 39.107 197.555-278.424c4.879-6.875-3.502-21.224-18.714-32.017s-31.523-13.966-36.401-7.09L43.505 384.454z" fill="#8ae234" opacity=".7"/><path d="m93.983 472.5 70.569 27.5c6.861 0 12.438-12.32 12.438-27.5s-5.576-27.5-12.438-27.5l-70.569 27.5z" fill="url(#e)" transform="matrix(.90508 -1.2756 1.0021 .71104 -552.57 279.63)"/><g transform="matrix(.90508 -1.2756 1.0021 .71104 -435.36 326.774)" clip-path="url(#l)" fill="none" stroke-linecap="round" stroke-linejoin="round" stroke-width=".721"><path d="m75.406 372.97 86.328 33.138" stroke="#8f5902"/><path d="m75.406 372.96 86.547 32.36" stroke="#915a02"/><path d="m75.405 372.95 86.767 31.581" stroke="#935c03"/><path d="m75.404 372.95 86.986 30.802" stroke="#965e04"/><path d="m75.403 372.94 87.206 30.023" stroke="#985f04"/><path d="m75.402 372.94 87.425 29.244" stroke="#9a6105"/><path d="m75.401 372.93 87.644 28.465" stroke="#9d6306"/><path d="m75.4 372.92 87.864 27.686" stroke="#9f6507"/><path d="m75.4 372.92 88.083 26.908" stroke="#a26607"/><path d="m75.399 372.91 88.302 26.129" stroke="#a46808"/><path d="m75.398 372.91 88.522 25.35" stroke="#a66a09"/><path d="m75.397 372.9 88.741 24.571" stroke="#a96b09"/><path d="m75.396 372.89 88.96 23.792" stroke="#ab6d0a"/><path d="m75.395 372.89 89.18 23.013" stroke="#ad6f0b"/><path d="m75.394 372.88 89.399 22.234" stroke="#b0710c"/><path d="m75.393 372.87 89.618 21.456" stroke="#b2720c"/><path d="m75.393 372.87 89.838 20.677" stroke="#b5740d"/><path d="m75.392 372.86 90.057 19.898" stroke="#b7760e"/><path d="m75.391 372.86 90.276 19.119" stroke="#b9770e"/><path d="m75.39 372.85 90.496 18.34" stroke="#bc790f"/><path d="m75.389 372.84 90.715 17.561" stroke="#be7b10"/><path d="m75.388 372.84 90.934 16.782M75.388 372.84l90.934 16.782M75.388 372.84l90.934 16.782" stroke="#c17d11"/><path d="m75.386 372.83 91.008 15.994" stroke="#c27f15"/><path d="m75.385 372.83 91.081 15.206" stroke="#c48219"/><path d="m75.383 372.82 91.154 14.418" stroke="#c6851e"/><path d="m75.381 372.81 91.227 13.63" stroke="#c88822"/><path d="m75.379 372.81 91.3 12.842" stroke="#ca8b27"/><path d="m75.377 372.8 91.373 12.054" stroke="#cc8e2b"/><path d="m75.375 372.8 91.446 11.266" stroke="#ce9130"/><path d="m75.373 372.79 91.519 10.478" stroke="#d09334"/><path d="m75.371 372.79 91.592 9.69" stroke="#d29638"/><path d="m75.369 372.78 91.666 8.902" stroke="#d4993d"/><path d="m75.367 372.77 91.739 8.114" stroke="#d59c41"/><path d="m75.365 372.77 91.812 7.325" stroke="#d79f46"/><path d="m75.363 372.76 91.885 6.537" stroke="#d9a24a"/><path d="m75.362 372.76 91.958 5.75" stroke="#dba54f"/><path d="m75.36 372.75 92.031 4.961" stroke="#dda753"/><path d="m75.358 372.75 92.104 4.173" stroke="#dfaa57"/><path d="m75.356 372.74 92.177 3.385" stroke="#e1ad5c"/><path d="m75.354 372.73 92.25 2.597" stroke="#e3b060"/><path d="m75.352 372.73 92.324 1.809" stroke="#e5b365"/><path d="m75.35 372.72 92.397 1.021" stroke="#e7b669"/><path d="m75.348 372.72 92.47.233M75.348 372.72l92.47.233M75.348 372.72l92.47.233M75.348 372.72l92.47.233M75.348 372.72l92.47.233" stroke="#e9b96e"/><path d="m75.345 372.71 92.381-.656" stroke="#e9bb74"/><path d="m75.342 372.71 92.293-1.545" stroke="#e9be7a"/><path d="m75.338 372.7 92.205-2.433" stroke="#e9c080"/><path d="m75.335 372.69 92.116-3.322" stroke="#e9c386"/><path d="m75.331 372.69 92.028-4.21" stroke="#eac58c"/><path d="m75.328 372.68 91.94-5.1" stroke="#eac892"/><path d="m75.325 372.68 91.851-5.988" stroke="#eaca98"/><path d="m75.321 372.67 91.763-6.877" stroke="#eacd9e"/><path d="m75.318 372.66 91.675-7.766" stroke="#ebcfa4"/><path d="m75.315 372.66 91.586-8.654" stroke="#ebd2aa"/><path d="m75.311 372.65 91.498-9.543" stroke="#ebd4b0"/><path d="m75.308 372.65 91.41-10.432" stroke="#ebd7b6"/><path d="m75.305 372.64 91.321-11.321" stroke="#ecd9bc"/><path d="m75.301 372.63 91.233-12.209" stroke="#ecdcc2"/><path d="m75.298 372.63 91.145-13.098" stroke="#ecdec8"/><path d="m75.295 372.62 91.056-13.987" stroke="#ece1ce"/><path d="m75.291 372.62 90.968-14.876" stroke="#ede3d4"/><path d="m75.288 372.61 90.88-15.764" stroke="#ede6da"/><path d="m75.285 372.6 90.791-16.653" stroke="#ede8e0"/><path d="m75.281 372.6 90.703-17.542" stroke="#edebe6"/><path d="m75.278 372.59 90.615-18.431M75.278 372.59l90.615-18.431M75.278 372.59l90.615-18.431M75.278 372.59l90.615-18.431M75.278 372.59l90.615-18.431M75.278 372.59l90.615-18.431M75.278 372.59l90.615-18.431" stroke="#eeeeec"/><path d="m75.274 372.59 90.403-19.152" stroke="#edebe6"/><path d="m75.27 372.58 90.19-19.873" stroke="#ede8e0"/><path d="m75.267 372.58 89.978-20.594" stroke="#ede6da"/><path d="m75.263 372.57 89.766-21.315" stroke="#ede3d4"/><path d="m75.259 372.57 89.554-22.036" stroke="#ece1ce"/><path d="m75.256 372.57 89.342-22.758" stroke="#ecdec8"/><path d="m75.252 372.56 89.13-23.479" stroke="#ecdcc2"/><path d="m75.248 372.56 88.917-24.2" stroke="#ecd9bc"/><path d="m75.244 372.55 88.705-24.921" stroke="#ebd7b6"/><path d="m75.241 372.55 88.493-25.642" stroke="#ebd4b0"/><path d="m75.237 372.54 88.281-26.364" stroke="#ebd2aa"/><path d="m75.233 372.54 88.069-27.085" stroke="#ebcfa4"/><path d="m75.23 372.54 87.857-27.806" stroke="#eacd9e"/><path d="m75.226 372.53 87.644-28.527" stroke="#eaca98"/><path d="m75.222 372.53 87.432-29.248" stroke="#eac892"/><path d="m75.219 372.52 87.22-29.969" stroke="#eac58b"/><path d="m75.215 372.52 87.008-30.691" stroke="#e9c385"/><path d="m75.211 372.51 86.796-31.412" stroke="#e9c07f"/><path d="m75.207 372.51 86.583-32.133" stroke="#e9be79"/><path d="m75.204 372.5 86.371-32.854" stroke="#e9bb73"/><path d="m75.2 372.5 86.159-33.575M75.2 372.5l86.159-33.575M75.2 372.5l86.159-33.575M75.2 372.5l86.159-33.575" stroke="#e9b96e"/></g><path d="M19.064 456.171 5.971 495.725l33.038-25.462c-4.09-7.586-11.162-12.718-19.945-14.092z"/><path d="M23.13 456.819 6.21 495.358l22.115-36.31c-1.619-.953-3.393-1.62-5.194-2.23z" fill="#eeeeec" opacity=".575"/></svg>