<svg viewBox="0 0 456.027 524.419" xmlns="http://www.w3.org/2000/svg"><defs><filter id="e"><feGaussianBlur stdDeviation="1.278"/></filter><filter id="d"><feGaussianBlur stdDeviation="3.618"/></filter><filter id="c"><feGaussianBlur stdDeviation="3.862"/></filter><filter id="a"><feGaussianBlur stdDeviation="2.289"/></filter><radialGradient id="b" cx="436.01" cy="232.66" r="223.57" gradientTransform="matrix(-.14458 .7908 -.99831 -.18252 685.73 -71.706)" gradientUnits="userSpaceOnUse"><stop stop-color="#9fc1d2" offset="0"/><stop stop-color="#fff" offset="1"/></radialGradient></defs><g stroke-linecap="round" stroke-linejoin="round"><g fill="none" filter="url(#a)" opacity=".773" stroke="#50adcb" stroke-width="11" transform="translate(-128.41 -183.36)"><path d="M551.54 482.64c-9.003 9.481-26.825 21.554-26.264 41.416 6.37 32.296 31.865 66.547 11.112 88.893-10.775 13.765-24.58 10.012-37.376 46.467-4.556 23.087 8.755 27.476 12.122 37.376m-34.345-233.35c-14.817 12.007-36.418 16.102-36.365 45.457 21.813 30.467 24.926 44.968 21.213 54.548-14.288 36.864-5.375 13.66-28.284 50.508-12.538 20.166 18.232 33.279 8.081 65.66m-36.366-234.36c-8.137 14.788-26.465 24.48-20.203 46.467 23.593 39.743 17.016 55.986 15.152 63.64-3.718 15.266-38.908 37.348-42.426 62.629-5.41 38.877 9.362 38.993 23.234 58.589M341.43 432.12c-15.666 9.758-36.656 16.081-34.345 35.355 1.45 12.1 22.492 42.124 12.122 78.792-14.383 50.859-40.336 52.614-46.467 64.65-12.447 26.171.007 33.666 8.081 44.447m-3.03-233.35c-33.626 37.586-42.948 72.461-26.264 90.914 21.496 41.402-36.206 34.132-32.325 62.629 14.152 19.64 12.299 39.312-1.01 48.487l-15.152 17.173m-6.061-228.29c-21.785 15.676-10.302 35.07-6.061 75.761 2.054 19.711-56.994 39.676-35.355 96.975 5.643 14.943-16.266 14.816-16.162 24.244"/></g><path d="M141.42 398.79c5.88-12.303 20.908-18.488 34.345-23.234 17.391-34.306 35.3-66.09 60.609-103.04 42.689-60.369 100.08-96.935 171.73-76.772 48.936 13.217 102.02 39.6 117.18 78.792 27.213 45.488 6.858 78.17 15.152 116.17 1.567 26.671 11.805 33.825 23.234 47.477 21.118 25.226 19.484 39.712 12.122 43.437-20.327 10.282-40.189-5.148-56.569-15.152-14.561 13.437-32.589 4.34-52.528-17.173-20.876 21.805-41.753 5.488-62.629-15.152-20.917 13.114-42.091 21.865-65.66-10.102-39.017 18.502-50.293.721-56.569-7.071-17.02 8.912-42.448 16.103-76.772-9.091-36.523 6.155-79.05 15.913-63.64-9.092z" fill="url(#b)" stroke="#154e73" stroke-width="7.3" transform="translate(-128.41 -183.36)"/><path d="M283.85 412.94c35.08-28.514 52.711-202.74 105.06-202.03v-1.01m9.091 2.02c50.305 46.09 27.373 261.13 50.508 245.47M394.971 209.9c-21.047-19.099-34.15 169.62-56.569 212.13m55.558-213.14c-16.128 60.021-1.763 200.6-29.294 231.32m31.315-230.31c31.047 56.527-14.553 184.89 10.102 223.24m-7.07-224.25c105.21 81.08 44.508 204.11 68.69 235.37m-68.69-232.34c166.06 83.162 52.833 196.95 116.17 250.52m-115.16-255.57c190.77 44.624 62.046 165.49 166.68 271.73m-173.75-270.72c-39.216-6.575-54.543 199.11-94.955 219.2m97.985-219.2c-73.295-16.797-108.71 218.74-157.58 213.14m150.51-214.15c-105.91-.546-124.43 209.89-185.87 200.01m173.75-202.03c-201.84 27.975-83.652 168.12-234.36 202.03" fill="none" filter="url(#c)" opacity=".337" stroke="#154e73" stroke-width="8.1" transform="translate(-128.41 -183.36)"/><g transform="matrix(1.109 .10957 -.1059 .99418 -138.4 -224.357)" fill="#9fc1d2" filter="url(#d)" stroke="#154e73"><path d="M302.2 224.6c6.683 9.047 50.042-1.936 75.854-5.928 5.839-9.045 6.196-15.628-5.497-16.796-30.129-10.754-68.65 16.13-70.357 22.724zm99.627-13.029c-.436 4.929-.74 9.62 5.628 13.917 17.141 7.126 60.577 19.823 57.028 3.678-21.647-17.208-61.426-31.502-62.656-17.596zm7.026 36.904c-10.895 2.804-7.319 25.547 2.385 38.32 28.742 12.053 57.786 17.651 83.457 10.808 2.195-33.926-29.257-63.695-85.842-49.129zm-64.912-13.608c-31.424.965-64.28 27.992-61.516 37.136-8.65 22.834 69.746 22.653 86.385 20.523 4.114-14.628 11.758-49.234-24.868-57.659z" stroke-width="7.531"/></g><g transform="translate(-131.44 -182.35)" fill="none" filter="url(#e)" stroke="#154e73" stroke-width="5.5"><path d="M508.11 471.52c-8.832 1.643-18.421 7.338-14.142 27.274 3.602 16.781 14.789 28.213 4.04 43.437-7.07 10.015-13.984 24.844-11.111 31.315 9.057 20.397-3.545 37.039-11.112 55.558m-41.416-171.73c-11.996 10.368-21.75 24.679-14.142 38.386 6.415 11.558 20.243 19.895 13.132 31.315-5.854 9.401-20.676 14.154-14.142 28.284 12.257 26.506 4.963 38.832-8.082 44.447m-47.477-152.53c-6.998 5.394-18.518 12.591-12.122 27.274 3.584 8.226 8.298 9.34 16.162 23.234 5.937 10.487.095 27.144-9.091 34.345-26.482 20.759-14.853 42.422-22.223 63.64m-32.325-160.61c-31.068 22.934-27.932 33.485-22.223 43.437 11.413 19.896 7.92 35.419 0 40.406-12.494 7.867-26.637 40.997-18.183 56.569m-27.274-149.5c1.917 2.58 5.293 24.766-3.03 36.366-7.902 11.011-24.883 16.274-28.285 34.345-2.65 14.08 9.075 24.183 10.102 34.345 2.053 20.32-12.969 32.223-22.223 35.355"/></g></g></svg>