<svg id="Слой_1" data-name="Слой 1" xmlns="http://www.w3.org/2000/svg" viewBox="0 0 841.89 595.28"><defs><style>.cls-1{fill:#b6223c;}.cls-2{fill:#ce2644;}.cls-3{fill:#9d4816;}.cls-4{fill:#532811;}.cls-5{fill:#ea4f63;}.cls-6{fill:none;stroke:#b6223c;stroke-linecap:round;stroke-linejoin:round;stroke-width:4.58px;}.cls-7{fill:#694e9a;}.cls-8{fill:#856eaf;}.cls-9{fill:#a793c6;}.cls-10{fill:#1e1e1c;}</style></defs><title>Монтажная область 1</title><path class="cls-1" d="M788.28,234l-46.66,103.7L686.81,459.52,666,505.83H153l-20.85-46.31L77.37,337.68,30.72,234C2.14,170.48,32.47,95.89,97.34,70.56c61.41-24,158.65-44,312.16-44s250.74,20,312.16,44C786.52,95.89,816.85,170.48,788.28,234Z"/><path class="cls-2" d="M741.95,327c0,3.58-.1,7.15-.33,10.69L686.81,459.52a284.91,284.91,0,0,1-55.43,46.31H187.61a284.91,284.91,0,0,1-55.43-46.31L77.37,337.68c-.22-3.54-.33-7.11-.33-10.69C77,194.31,225.89,86.77,409.5,86.77S741.95,194.31,741.95,327Z"/><polygon class="cls-3" points="687.46 532.47 660.21 532.47 664.29 581.05 683.37 581.05 687.46 532.47"/><polygon class="cls-4" points="643.9 532.47 616.65 532.47 620.74 581.05 639.81 581.05 643.9 532.47"/><polygon class="cls-3" points="131.54 532.47 158.78 532.47 154.7 581.05 135.62 581.05 131.54 532.47"/><polygon class="cls-4" points="175.09 532.47 202.34 532.47 198.25 581.05 179.18 581.05 175.09 532.47"/><path class="cls-5" d="M749.66,288h0a65.44,65.44,0,0,0-85.09,47.85l-21.5,97.66a9.39,9.39,0,0,1-9.17,7.37H185.1a9.39,9.39,0,0,1-9.17-7.37l-21.5-97.66A65.44,65.44,0,0,0,69.33,288h0A65.44,65.44,0,0,0,31,377.12l59.12,129.6a54.4,54.4,0,0,0,49.49,31.82H679.41a54.4,54.4,0,0,0,49.49-31.82L788,377.12A65.44,65.44,0,0,0,749.66,288Z"/><path class="cls-6" d="M139.58,520.15a36.09,36.09,0,0,1-32.76-21.06L47.71,369.48a47.05,47.05,0,0,1,27.58-64,47,47,0,0,1,61.18,34.4L158,437.5a28,28,0,0,0,27.14,21.81H633.9A28,28,0,0,0,661,437.5l21.5-97.66a47,47,0,0,1,61.18-34.4,47,47,0,0,1,27.58,64l-59.12,129.6a36.09,36.09,0,0,1-32.76,21.06Z"/><path class="cls-7" d="M445.52,277.17c-43.79,3.6-77.19-16.09-119.2-21.42-42.62-5.41-93.57,13.59-120.89,47.22-26.36,32.43-4.68,75.34,26.55,96.11,20.53,13.66,46.6,16.83,70.89,16.6,28.89-.27,55.09-3.17,81.94-12.52,28.05-9.77,62.68-6.49,92-6.49Z"/><path class="cls-7" d="M582.59,207.71C584.52,197,597,186.35,605.9,181.6s23.87-13,33.68-14c3.66,10.22,7.41,21.43,9.58,32.5,1.36,6.93,4,14.56,4.46,21.59.59,9.07-3.66,15.59-6.19,23.83Z"/><path class="cls-7" d="M480.69,206.07c-6.9-2.31-11.29-10.12-17.54-14-11.91-7.4-28.61-16.95-42.49-18.68-12.8-1.6-14,16.95-15.83,27.75-2.87,16.64-8.61,37.8-.56,53.43Z"/><path class="cls-8" d="M668.34,328.3c6.46,3.7,14,1.59,20.46,6.54-6.59,14-18.68,27.14-30.67,37.42-1.57,1.36-3.15,2.65-4.7,3.89-54.52,43.58-127.19,33-191.13,23.63-25.1-3.71-46.78-10.06-65.72-23.74a116.6,116.6,0,0,1-21.65-20.43c-3.93-4.72-10.39-11.57-7.51-17,1.91-3.62,10.88-7.63,14.42-8.6-4.12-2.76-8.83-4.44-12.94-8.25,3.57-6.71,10.87-15,16.59-20.37-6.92,1.33-14.65,1-21.27,2.38,9.27-38.48,36.39-71,67.87-91.16,15.47-9.93,34-18.77,52.21-20.66,7.45-.78,15-1.65,22.65-2.33,12.26-1.11,24.65-1.75,36.82-.74a112.73,112.73,0,0,1,18.34,2.93c27.36,6.84,53.57,21.57,74.57,41.44,11.84,11.2,21.2,24.22,31.59,36.77,7.28,8.8,18.05,16.5,23.08,27.12-7,3.46-14.36,6.79-21.26,10,6.44,2.29,19.73-1.86,22.81,6.41C685.12,316.64,673.69,321,668.34,328.3Z"/><path class="cls-9" d="M658.13,372.26c-1.57,1.36-3.15,2.65-4.7,3.89-54.52,43.58-127.19,33-191.13,23.63-25.1-3.71-46.78-10.06-65.72-23.74,8.41-8.17,28.34-17.55,33.32-20.79,34.19-22.27,63.37-43.78,75.47-86.92,6-21.36,7.27-42.07,4.63-64.1a121,121,0,0,0-3.07-14.65c12.26-1.11,24.65-1.75,36.82-.74-.94,7.49-1.19,15-1.34,21.17-.41,15.48,1.34,29.64,6.36,44.22,8.13,23.61,22.43,46,38.6,64.28,14.21,16,31,31.28,49.22,41.67C643.23,364,651.58,367.39,658.13,372.26Z"/><path class="cls-10" d="M535.78,273.44c-2.15-3.78-5.79-4.38-9.52-3.76-2.83.47-5.3,3-6.53,5.6a8,8,0,0,0,1.1,9.05c2.07,2.2,6,3.11,8.5,1.17a18.93,18.93,0,0,1,3.2-2l-1.7.76.67-.25a10.55,10.55,0,0,0,3.25-2.09c2.24-1.91,2.42-6,1-8.44Z"/><path class="cls-10" d="M511.36,311c4.89,5,12.18-1.26,14.94-5.76,3.72-6.08,5.1-16.08,3-23-.82-2.73-5.2-2.4-4.9.71.53,5.63.77,10.68-.86,16.18A14.22,14.22,0,0,1,519,306.3c-2.25,1.76-5,1.27-7.37,2.62a1.39,1.39,0,0,0-.25,2.09Z"/><path class="cls-10" d="M541.58,310.07c-3.39-3.11-6.71-5.14-8.44-9.8-1.85-5-1.79-10.27-2.46-15.47-.5-3.9-5.8-2.56-6.07.87-.63,8.18,4.71,32.79,16.75,26.21a1.2,1.2,0,0,0,.22-1.81Z"/><path class="cls-10" d="M616.79,270.62a20.09,20.09,0,0,0-.22,2.11,19.79,19.79,0,0,1,0,2.11,8.51,8.51,0,0,0,1.85,5.46,3.57,3.57,0,0,0,5.3,0,8.45,8.45,0,0,0,1.57-6.71c-.11-.69-.24-1.38-.41-2.06a9.56,9.56,0,0,0-1.53-2.81,3.52,3.52,0,0,0-6.57,1.9Z"/><path class="cls-10" d="M442.41,258.93l-.15.42,1-1.75c-3.08,2.94-2.81,9.06-.84,12.52a4.7,4.7,0,0,0,5.38,2.33c2.23-.65,3.24-2.61,3.5-4.89q-.16,1.16.14-1.16-.12-1-.26-2a18.86,18.86,0,0,0-.38-2,9.05,9.05,0,0,0-2.26-4.74l1,1.75-.15-.42c-1.26-3.62-5.65-3.62-6.91,0Z"/><path class="cls-10" d="M648.1,313.77a46.13,46.13,0,0,1,15.39,3.2c3.87,1.43,7.63,4.94,11.73,2.9a1.82,1.82,0,0,0,.86-1.6c-.39-4.89-5.16-6.42-9-8a36.44,36.44,0,0,0-19-2.29c-3.37.45-3.6,5.73,0,5.78Z"/><path class="cls-10" d="M651.17,326.27c4.2,1.35,8.48,2.34,12.72,3.48,4,1.09,8.4,4.1,12.55,3a2.27,2.27,0,0,0,1.23-3.23c-1.81-4.08-6.69-4.8-10.47-5.84-4.78-1.32-9.68-2.14-14.45-3.51-3.73-1.07-5.26,4.95-1.59,6.13Z"/><path class="cls-10" d="M414.22,295.74c-8.86,0-21.45.1-28.72,6.05a2,2,0,0,0,.44,3.59c4.28,1.5,7.84.82,12.18-.11a96,96,0,0,1,16.1-2.26c4.39-.18,4.42-7.27,0-7.28Z"/><path class="cls-10" d="M410.36,313.74c-8.32.65-19-.12-26,5.54-2,1.61-1.34,4.71,1.26,5,8.42.77,17.29-3.91,25.22-6.4,2.05-.65,1.74-4.26-.52-4.09Z"/><path class="cls-7" d="M518.46,400.27c-20.44-3.89-94.84-19.75-105.63,7.36-4,10.11,6,18.35,14.49,21.87,22,9.11,54.31,6.55,78.27,5.1,10-.6,52.5-8.26,42-25.41C543.2,402,525.77,401.66,518.46,400.27Z"/><path class="cls-8" d="M550.44,442.29c-11.66,1-48.6,7.18-55.78-6.44-6.57-12.47,16.72-17.19,24.8-19.77,20.77-6.62,38.63-20.81,60.56-25.12,19.41-3.81,49.38,4.08,37.53,29.8C607.94,441.64,570.11,440.66,550.44,442.29Z"/><path class="cls-10" d="M200.14,314.79c-17.45,6.43-18.23,39.59-17.25,53.76,1.37,19.89,13.45,39.78,31.48,50.83,27.85,17.07,63.8,18.8,96,20.15,28.71,1.2,60.54,2.33,87.13-5.33,18.7-5.39,59.4-31.26,23.21-45.56-19.08-7.53-46.53,11.11-65.84,13.5-24.06,3-49.16,4.65-72.94-.74-42-9.51-85.91-32.11-81.79-75.13Z"/></svg>