<svg data-name="Слой 1" xmlns="http://www.w3.org/2000/svg" viewBox="0 0 300 300"><defs><radialGradient id="a" cx="901" cy="592" r="65" gradientTransform="matrix(2.88 -.03 -.03 -2.88 -2482 1830)" gradientUnits="userSpaceOnUse"><stop offset="0" stop-color="#fed377"/><stop offset="0" stop-color="#fdce72"/><stop offset="0" stop-color="#fcbe64"/><stop offset="0" stop-color="#f9a44d"/><stop offset="1" stop-color="#f5812e"/><stop offset="1" stop-color="#f47624"/><stop offset="1" stop-color="#c35b1f"/><stop offset="1" stop-color="#903f1b"/><stop offset="1" stop-color="#7c3419"/></radialGradient><radialGradient id="b" cx="293" cy="221" r="147" gradientTransform="matrix(1.16 0 0 -1.16 -202 379)" gradientUnits="userSpaceOnUse"><stop offset="0" stop-color="#fed377"/><stop offset="0" stop-color="#fcd176"/><stop offset="0" stop-color="#f5c871"/><stop offset="1" stop-color="#eaba68"/><stop offset="1" stop-color="#d9a65c"/><stop offset="1" stop-color="#c48c4d"/><stop offset="1" stop-color="#aa6c3a"/><stop offset="1" stop-color="#8b4724"/><stop offset="1" stop-color="#7c3419"/></radialGradient><radialGradient id="c" cx="918" cy="572" r="44" gradientTransform="matrix(2.88 -.03 -.03 -2.88 -2482 1830)" gradientUnits="userSpaceOnUse"><stop offset="0" stop-color="#906040"/><stop offset="1" stop-color="#311d0f"/></radialGradient></defs><path d="M281 148A130 130 0 1 1 149 19a130 130 0 0 1 132 129z" fill="url(#a)"/><path d="M136 281a132 132 0 0 1-22-5h-1c-10-9-23-27-27-52l-5-38c-4-27-7-52-16-67a287 287 0 0 0-39 64l-3 6-3-15v-1s13-29 38-61a61 61 0 0 0-24-17 21 21 0 0 1-2-1l-2-1 1-1 2-5 1-1h1a73 73 0 0 1 30 18l17-19-26-26-1-2 9-9 27 29 18-16a38 38 0 0 1-16-30v-1l2-1 1-1 5-2 1 3s-1 14 15 26a232 232 0 0 1 66-34h1l12 3-6 2c0 1-29 11-63 35a97 97 0 0 0 18 7l42 10c40 7 80 14 92 39a127 127 0 0 1 3 16l-4 1s-18-26-51-36l-37-8c-20-4-41-8-59-16a127 127 0 0 1-13-6L98 84l147 155 1 1-6 7-2-2L89 93l-18 18a66 66 0 0 1 11 22c5 16 7 34 9 52 6 42 11 82 45 92z" style="isolation:isolate" fill="#fff"/><path d="M131 72c31 13 66 16 97 24 33 10 51 36 51 37a132 132 0 0 0-2-15c-15-33-86-34-132-48a94 94 0 0 1-22-9c36-26 66-37 66-37l-5-1a230 230 0 0 0-67 35C99 44 99 29 99 29l-2 1-2 1c0 10 4 20 17 30a274 274 0 0 0-21 18L64 51l-7 6 28 28-20 22a72 72 0 0 0-30-19l-3 5c3 1 13 2 29 19-26 33-39 62-39 62l2 8a289 289 0 0 1 41-66c16 21 15 65 23 107 4 24 16 42 26 51a130 130 0 0 0 22 5c-51-14-40-91-56-145a64 64 0 0 0-11-23c6-8 13-15 20-21l151 154 3-4L95 84l23-19a123 123 0 0 0 13 7z" fill="url(#c)"/></svg>