<svg xmlns="http://www.w3.org/2000/svg" xmlns:xlink="http://www.w3.org/1999/xlink" width="297mm" height="185.259mm" viewBox="0 0 841.89 525.143">
  <defs>
    <filter id="b" x="0" y="-8490" width="226.293" height="32766" filterUnits="userSpaceOnUse" color-interpolation-filters="sRGB">
      <feFlood flood-color="#fff" result="bg"/>
      <feBlend in="SourceGraphic" in2="bg"/>
    </filter>
    <mask id="a" x="0" y="-8490" width="226.293" height="32766" maskUnits="userSpaceOnUse">
      <g filter="url(#b)"/>
    </mask>
    <linearGradient id="c" data-name="ЃезымЯнный градиент 10" y1="183.45" x2="226.293" y2="183.45" gradientUnits="userSpaceOnUse">
      <stop offset="0" stop-color="#fff"/>
      <stop offset="1"/>
    </linearGradient>
    <filter id="e" x="682.127" y="-8490" width="66.475" height="32766" filterUnits="userSpaceOnUse" color-interpolation-filters="sRGB">
      <feFlood flood-color="#fff" result="bg"/>
      <feBlend in="SourceGraphic" in2="bg"/>
    </filter>
    <mask id="d" x="682.127" y="-8490" width="66.475" height="32766" maskUnits="userSpaceOnUse">
      <g filter="url(#e)"/>
    </mask>
    <linearGradient id="f" x1="825.386" y1="379.3" x2="888.327" y2="379.3" gradientTransform="translate(1484.15 -152.278) rotate(121.391)" xlink:href="#c"/>
    <filter id="h" x="732.283" y="-8490" width="97.883" height="32766" filterUnits="userSpaceOnUse" color-interpolation-filters="sRGB">
      <feFlood flood-color="#fff" result="bg"/>
      <feBlend in="SourceGraphic" in2="bg"/>
    </filter>
    <mask id="g" x="732.283" y="-8490" width="97.883" height="32766" maskUnits="userSpaceOnUse">
      <g filter="url(#h)"/>
    </mask>
    <linearGradient id="i" x1="716.009" y1="402.738" x2="803.745" y2="402.738" gradientTransform="matrix(-0.95, -0.312, 0.312, -0.95, 1378.621, 1034.683)" xlink:href="#c"/>
    <filter id="k" x="670.364" y="-8490" width="72.054" height="32766" filterUnits="userSpaceOnUse" color-interpolation-filters="sRGB">
      <feFlood flood-color="#fff" result="bg"/>
      <feBlend in="SourceGraphic" in2="bg"/>
    </filter>
    <mask id="j" x="670.364" y="-8490" width="72.054" height="32766" maskUnits="userSpaceOnUse">
      <g filter="url(#k)"/>
    </mask>
    <linearGradient id="l" x1="826.814" y1="449.68" x2="878.64" y2="449.68" gradientTransform="matrix(-0.95, -0.312, 0.312, -0.95, 1378.621, 1034.683)" xlink:href="#c"/>
    <filter id="n" x="277.375" y="-8490" width="138.031" height="32766" filterUnits="userSpaceOnUse" color-interpolation-filters="sRGB">
      <feFlood flood-color="#fff" result="bg"/>
      <feBlend in="SourceGraphic" in2="bg"/>
    </filter>
    <mask id="m" x="277.375" y="-8490" width="138.031" height="32766" maskUnits="userSpaceOnUse">
      <g filter="url(#n)"/>
    </mask>
    <linearGradient id="o" x1="277.375" y1="287.124" x2="415.405" y2="287.124" xlink:href="#c"/>
    <filter id="q" x="652.743" y="-8490" width="76.968" height="32766" filterUnits="userSpaceOnUse" color-interpolation-filters="sRGB">
      <feFlood flood-color="#fff" result="bg"/>
      <feBlend in="SourceGraphic" in2="bg"/>
    </filter>
    <mask id="p" x="652.743" y="-8490" width="76.968" height="32766" maskUnits="userSpaceOnUse">
      <g filter="url(#q)"/>
    </mask>
    <linearGradient id="r" x1="653.252" y1="425.66" x2="744.79" y2="425.66" gradientTransform="translate(-118.344 335.344) rotate(-23.11)" xlink:href="#c"/>
    <filter id="t" x="763.997" y="-8490" width="42.149" height="32766" filterUnits="userSpaceOnUse" color-interpolation-filters="sRGB">
      <feFlood flood-color="#fff" result="bg"/>
      <feBlend in="SourceGraphic" in2="bg"/>
    </filter>
    <mask id="s" x="763.997" y="-8490" width="42.149" height="32766" maskUnits="userSpaceOnUse">
      <g filter="url(#t)"/>
    </mask>
    <linearGradient id="u" x1="760.88" y1="463.244" x2="818.381" y2="463.244" gradientTransform="translate(-118.344 335.344) rotate(-23.11)" xlink:href="#c"/>
    <filter id="w" x="758.811" y="-8490" width="64.522" height="32766" filterUnits="userSpaceOnUse" color-interpolation-filters="sRGB">
      <feFlood flood-color="#fff" result="bg"/>
      <feBlend in="SourceGraphic" in2="bg"/>
    </filter>
    <mask id="v" x="758.811" y="-8490" width="64.522" height="32766" maskUnits="userSpaceOnUse">
      <g filter="url(#w)"/>
    </mask>
    <linearGradient id="x" x1="708.745" y1="346.151" x2="808.532" y2="346.151" gradientTransform="translate(1484.15 -152.278) rotate(121.391)" xlink:href="#c"/>
    <linearGradient id="y" data-name="ЃезымЯнный градиент 67" y1="206.455" x2="309.027" y2="206.455" gradientUnits="userSpaceOnUse">
      <stop offset="0" stop-color="#a4a536"/>
      <stop offset="1" stop-color="#7b8736"/>
    </linearGradient>
    <linearGradient id="z" x1="277.375" y1="298.813" x2="479.423" y2="298.813" xlink:href="#y"/>
    <mask id="aa" x="0" y="55.25" width="226.293" height="218.32" maskUnits="userSpaceOnUse">
      <g transform="translate(0 -19.04)">
        <g mask="url(#a)">
          <path d="M216.671,192.183a159.858,159.858,0,0,1-37.386,57.356c-.5.509-1,.994-1.5,1.479-3.186,3.128-6.349,5.942-9.352,8.488-1.32-7.736-1.661-11.059-1.661-11.059s-13.539,7.3-33.063,16.758c-8.192,3.977-17.453,8.318-27.215,12.684C73.521,292.61,57.024,292.61,57.024,292.61s-30.742-21.827-41.437-32.764C4.892,248.933,0,241.8,0,241.8l28.853-23.985L77.071,177.7,14.222,188.933,0,191.48s3.846-6.669,10.626-16.249a257.1,257.1,0,0,1,30.355-35.99C65.488,115.5,77.958,109.8,77.958,109.8s21.845,1.892,47.694,15.206c24.825,12.781,33.359,22.482,34,23.209-.614-1.091-10.353-18.844-23.324-29.878-13.357-11.374-36.863-22.312-36.863-22.312l16.52-10.453s16.247,6.184,31.675,22.336c15.405,16.128,22.55,37.518,22.55,37.518s-2.8-23.452-10.535-42.586c-3.208-7.955-5.825-13.993-7.782-18.334-2.776-6.136-4.232-8.9-4.232-8.9s36.658-5.7,67.468,6.645c1.138.461,2.23.9,3.277,1.334C224.067,102.208,233.715,146.371,216.671,192.183Z" fill="url(#c)" style="mix-blend-mode: multiply"/>
        </g>
      </g>
    </mask>
    <linearGradient id="ab" data-name="ЃезымЯнный градиент 88" y1="183.45" x2="226.293" y2="183.45" gradientUnits="userSpaceOnUse">
      <stop offset="0" stop-color="#fbf49c"/>
      <stop offset="1" stop-color="#faf398"/>
    </linearGradient>
    <mask id="ac" x="277.375" y="146.843" width="138.031" height="242.482" maskUnits="userSpaceOnUse">
      <g transform="translate(0 -19.04)">
        <g mask="url(#m)">
          <path d="M386.286,305.1C357.8,365.366,332.607,396.263,321.3,408.365l-1.707-61.721L291.1,408.365a234.143,234.143,0,0,1-12.379-53.694c-2.822-28.617-.341-40.21-.341-40.21A128.892,128.892,0,0,1,310.535,287.3c20.525-12.393,30.56-13.63,30.56-13.63s-16.11-1.431-29.513,2.862c-13.38,4.293-31.333,16.1-31.333,16.1l1.5-16.71A77.943,77.943,0,0,1,310.6,263.556c16.725-3.444,32.744.946,33.745,1.213-.933-.534-16.133-8.973-31.106-12.2-15.428-3.347-22.436-4-22.436-4s14.062-28.981,36.408-45.375c22.322-16.37,25.258-16.855,25.258-16.855s13.971,24.494,18.249,37.59l-9.352-56.846s25.258-3.08,44.736.631l7.85,2.013S424.969,223.25,386.286,305.1Z" fill="url(#o)" style="mix-blend-mode: multiply"/>
        </g>
      </g>
    </mask>
    <linearGradient id="ad" x1="277.375" y1="287.124" x2="415.405" y2="287.124" xlink:href="#ab"/>
    <linearGradient id="ae" x1="653.253" y1="433.569" x2="776.762" y2="433.569" gradientTransform="translate(-118.344 335.344) rotate(-23.11)" xlink:href="#y"/>
    <linearGradient id="af" x1="760.88" y1="467.694" x2="841.975" y2="467.694" gradientTransform="translate(-118.344 335.344) rotate(-23.11)" xlink:href="#y"/>
    <mask id="ag" x="652.743" y="376.712" width="76.968" height="108.466" maskUnits="userSpaceOnUse">
      <g transform="translate(0 -19.04)">
        <g mask="url(#p)">
          <path d="M729.694,437.762a75.381,75.381,0,0,1-5.115,28.558c-.105.283-.214.557-.323.83-.686,1.758-1.408,3.391-2.112,4.893-1.567-2.741-2.16-3.957-2.16-3.957s-3.766,5.168-9.347,12.211c-2.341,2.958-5.009,6.243-7.852,9.625-9.6,11.413-15.456,14.294-15.456,14.294s-14-3.013-19.35-5.345a53.1,53.1,0,0,1-8.091-4.207l6.828-14.251,11.406-23.828-20.7,15.29-4.683,3.462s.417-3.233,1.462-8.1a121.309,121.309,0,0,1,5.655-19.124c5.321-13.4,8.934-17.766,8.934-17.766a50.485,50.485,0,0,1,19.076-2.491c10.62.572,15.025,2.807,15.354,2.975-.373-.312-6.348-5.429-12.516-7.4-6.353-2.035-16.243-2.13-16.243-2.13l4.375-6.9a32.953,32.953,0,0,1,14.407,3.046c7.754,3.5,13.326,10.47,13.326,10.47a76.844,76.844,0,0,0-9.785-14.515c-2.268-2.495-4.053-4.357-5.364-5.682-1.856-1.872-2.765-2.679-2.765-2.679s12.193-8.592,24.874-9.233c.469-.022.918-.045,1.352-.06C719.539,401.916,729.233,417.191,729.694,437.762Z" fill="url(#r)" style="mix-blend-mode: multiply"/>
        </g>
      </g>
    </mask>
    <linearGradient id="ah" x1="653.252" y1="425.66" x2="744.79" y2="425.66" gradientTransform="translate(-118.344 335.344) rotate(-23.11)" xlink:href="#ab"/>
    <mask id="ai" x="763.997" y="375.637" width="42.149" height="113.109" maskUnits="userSpaceOnUse">
      <g transform="translate(0 -19.04)">
        <g mask="url(#s)">
          <path d="M805.89,451.5c-1.546,28.122-6.093,44.388-8.385,51.011l-9.371-23.406-1.339,28.68a92.406,92.406,0,0,1-12.016-18.459c-5.065-10.5-5.831-15.383-5.831-15.383a59.977,59.977,0,0,1,7.547-16.048c5.52-8.345,8.9-10.572,8.9-10.572a34.313,34.313,0,0,0-10.062,6.254c-4.136,3.986-8.827,11.658-8.827,11.658l-1.84-6.68a34.192,34.192,0,0,1,8.477-9.79,29.9,29.9,0,0,1,12.141-5.429,44.675,44.675,0,0,0-12.765.748A78.837,78.837,0,0,0,764,446.468s.872-13.587,6.469-23.786,6.565-10.885,6.565-10.885,8.434,6.967,11.811,11.249l-11.39-20.2s8.521-5.595,15.957-7.572l3.07-.6S807.987,413.31,805.89,451.5Z" fill="url(#u)" style="mix-blend-mode: multiply"/>
        </g>
      </g>
    </mask>
    <linearGradient id="aj" x1="760.88" y1="463.244" x2="818.381" y2="463.244" gradientTransform="translate(-118.344 335.344) rotate(-23.11)" xlink:href="#ab"/>
    <linearGradient id="ak" x1="708.746" y1="352.976" x2="843.159" y2="352.976" gradientTransform="translate(1484.15 -152.278) rotate(121.391)" xlink:href="#y"/>
    <linearGradient id="al" x1="825.386" y1="383.299" x2="913.71" y2="383.299" gradientTransform="translate(1484.15 -152.278) rotate(121.391)" xlink:href="#y"/>
    <mask id="am" x="758.811" y="240.337" width="64.522" height="117.382" maskUnits="userSpaceOnUse">
      <g transform="translate(0 -19.04)">
        <g mask="url(#v)">
          <path d="M769.915,352.481A72.12,72.12,0,0,1,759.71,325.8c-.057-.3-.106-.6-.155-.892-.326-1.891-.56-3.7-.743-5.4,2.655,1.181,3.749,1.774,3.749,1.774s.465-6.731,1.465-16.205c.417-3.977.936-8.44,1.549-13.1,2.076-15.728,5.39-21.995,5.39-21.995s12.917-6.931,18.443-8.615a49.531,49.531,0,0,1,8.7-2l1.613,16.178,2.7,27.042,9.156-26.318,2.07-5.957s1.287,2.911,2.884,7.571a122.2,122.2,0,0,1,5.019,19.359c2.411,14.474,1.666,20.451,1.666,20.451a62.029,62.029,0,0,1-14.277,14.811c-8.934,6.651-13.645,7.783-14,7.867.46,0,7.9.165,13.914-2.362,6.2-2.6,14.3-9.151,14.3-9.151l-.09,8.549a35.834,35.834,0,0,1-13.261,7.175,35.226,35.226,0,0,1-16.118.407s7.806,4.037,15.27,5.26c3.1.511,5.492.831,7.226,1.031,2.453.28,3.6.328,3.6.328s-5.6,15.166-15.6,24.185c-.371.332-.725.652-1.07.955A58.759,58.759,0,0,1,769.915,352.481Z" fill="url(#x)" style="mix-blend-mode: multiply"/>
        </g>
      </g>
    </mask>
    <linearGradient id="an" x1="708.745" y1="346.151" x2="808.532" y2="346.151" gradientTransform="translate(1484.15 -152.278) rotate(121.391)" xlink:href="#ab"/>
    <mask id="ao" x="682.127" y="314.698" width="66.475" height="98.575" maskUnits="userSpaceOnUse">
      <g transform="translate(0 -19.04)">
        <g mask="url(#d)">
          <path d="M700.968,392.357c-12.892-23.931-17.375-40.22-18.841-47.148l19.407,12.776-13.341-24.247a72.667,72.667,0,0,1,19.071,6.976c9.406,5.152,12.488,8.616,12.488,8.616a64.437,64.437,0,0,1,1.931,18.122c-.3,10.493-1.929,14.574-1.929,14.574a43.894,43.894,0,0,0,5.044-11.834c1.362-6.017,1.32-15.406,1.32-15.406l4.859,4.2A40.894,40.894,0,0,1,729,372.642a38.15,38.15,0,0,1-7.153,12.556,53.124,53.124,0,0,0,10.016-9.164c4.133-5.133,5.743-7.653,5.743-7.653s6.127,11.646,6.7,23.7.132,13.261.132,13.261-10.372-.02-15.276-1.243l19.437,8.811s-4.122,10.265-9.181,16.858l-2.2,2.545S718.479,424.855,700.968,392.357Z" fill="url(#f)" style="mix-blend-mode: multiply"/>
        </g>
      </g>
    </mask>
    <linearGradient id="ap" x1="825.386" y1="379.3" x2="888.327" y2="379.3" gradientTransform="translate(1484.15 -152.278) rotate(121.391)" xlink:href="#ab"/>
    <linearGradient id="aq" x1="716.009" y1="413.449" x2="836.627" y2="413.449" gradientTransform="matrix(-0.95, -0.312, 0.312, -0.95, 1378.621, 1034.683)" xlink:href="#y"/>
    <linearGradient id="ar" x1="826.814" y1="454.503" x2="905.589" y2="454.503" gradientTransform="matrix(-0.95, -0.312, 0.312, -0.95, 1378.621, 1034.683)" xlink:href="#y"/>
    <mask id="as" x="732.283" y="357.898" width="97.883" height="76.286" maskUnits="userSpaceOnUse">
      <g transform="translate(0 -19.04)">
        <g mask="url(#g)">
          <path d="M745.18,396.946a59.184,59.184,0,0,1,20.174-17.561c.241-.133.479-.255.717-.378,1.52-.8,3-1.475,4.385-2.068-.39,3.252-.64,4.618-.64,4.618s5.785-1.015,14.006-2.056c3.45-.44,7.334-.876,11.4-1.252,13.742-1.261,19.786,1.031,19.786,1.031s8.8,12.928,11.482,18.753a70.336,70.336,0,0,1,3.673,9.323l-13.279,5.508-22.2,9.216,24.294,4.274,5.5.965s-2.162,2.112-5.728,4.97a92.552,92.552,0,0,1-15.185,10.061c-11.66,6.015-16.872,6.544-16.872,6.544a57.692,57.692,0,0,1-15.757-12.656c-7.652-8.518-9.683-13.552-9.834-13.929.1.518,1.665,8.913,5.171,15.092,3.609,6.367,10.986,13.971,10.986,13.971l-7.233,1.852a42.4,42.4,0,0,1-9.083-13.26,52.8,52.8,0,0,1-4.025-18.015,88.379,88.379,0,0,0-.949,18.358c.277,3.6.554,6.36.781,8.354.324,2.82.546,4.119.546,4.119s-14.074-2.83-23.968-12.007c-.365-.341-.716-.666-1.05-.984C732.311,431.612,733.763,412.753,745.18,396.946Z" fill="url(#i)" style="mix-blend-mode: multiply"/>
        </g>
      </g>
    </mask>
    <linearGradient id="at" x1="716.009" y1="402.738" x2="803.745" y2="402.738" gradientTransform="matrix(-0.95, -0.312, 0.312, -0.95, 1378.621, 1034.683)" xlink:href="#ab"/>
    <mask id="au" x="670.364" y="277.614" width="72.054" height="90.153" maskUnits="userSpaceOnUse">
      <g transform="translate(0 -19.04)">
        <g mask="url(#j)">
          <path d="M695.788,328.594c17.243-19.951,29.961-28.71,35.471-31.94l-6.344,24.722,17.407-20.528a106.9,106.9,0,0,1-1.528,23.02c-2.2,11.745-4.415,16-4.415,16a45.262,45.262,0,0,1-14.847,6.31c-8.919,2.066-12.735,1.163-12.735,1.163s5.741,2.805,11.136,2.964,13.3-2.036,13.3-2.036l-2.437,6.42a27.063,27.063,0,0,1-11.968.9,30.15,30.15,0,0,1-12.227-5.168,53.715,53.715,0,0,0,10.019,9.16,84.651,84.651,0,0,0,7.768,4.7s-8.425,9.544-18.463,12.944-11.157,3.179-11.157,3.179-2.353-11.658-2.441-17.447l-2.993,23.85s-9.6-2.286-16.319-6.463l-2.649-1.889S672.373,355.692,695.788,328.594Z" fill="url(#l)" style="mix-blend-mode: multiply"/>
        </g>
      </g>
    </mask>
    <linearGradient id="av" x1="826.814" y1="449.68" x2="878.64" y2="449.68" gradientTransform="matrix(-0.95, -0.312, 0.312, -0.95, 1378.621, 1034.683)" xlink:href="#ab"/>
    <linearGradient id="aw" data-name="ЃезымЯнный градиент 3" x1="55.105" y1="463.545" x2="775.607" y2="463.545" gradientUnits="userSpaceOnUse">
      <stop offset="0" stop-color="#a43422"/>
      <stop offset="1" stop-color="#701811"/>
    </linearGradient>
    <linearGradient id="ax" data-name="ЃезымЯнный градиент 61" x1="71.349" y1="282.887" x2="750.342" y2="282.887" gradientUnits="userSpaceOnUse">
      <stop offset="0" stop-color="#f47c39"/>
      <stop offset="1" stop-color="#fec773"/>
    </linearGradient>
    <linearGradient id="ay" x1="122.144" y1="234.208" x2="336.695" y2="234.208" xlink:href="#aw"/>
    <linearGradient id="az" x1="295.019" y1="156.705" x2="682.307" y2="156.705" xlink:href="#aw"/>
    <linearGradient id="ba" data-name="ЃезымЯнный градиент 2" x1="676.373" y1="151.754" x2="797.694" y2="151.754" gradientUnits="userSpaceOnUse">
      <stop offset="0" stop-color="#701811"/>
      <stop offset="1" stop-color="#a43422"/>
    </linearGradient>
    <linearGradient id="bb" x1="43.109" y1="236.676" x2="125.469" y2="236.676" xlink:href="#ba"/>
    <linearGradient id="bc" x1="647.601" y1="198.44" x2="703.465" y2="198.44" xlink:href="#ba"/>
    <linearGradient id="bd" data-name="ЃезымЯнный градиент 40" x1="740.869" y1="360.441" x2="754.281" y2="360.441" gradientUnits="userSpaceOnUse">
      <stop offset="0" stop-color="#f69056"/>
      <stop offset="1" stop-color="#f9a773"/>
    </linearGradient>
    <linearGradient id="be" x1="539.684" y1="378.331" x2="565.353" y2="378.331" xlink:href="#bd"/>
    <linearGradient id="bf" x1="63.591" y1="374.387" x2="84.994" y2="374.387" xlink:href="#bd"/>
    <linearGradient id="bg" x1="106.144" y1="395.178" x2="163.066" y2="395.178" xlink:href="#aw"/>
    <linearGradient id="bh" x1="194.864" y1="385.976" x2="205.974" y2="385.976" xlink:href="#bd"/>
  </defs>
  <title>избушка (изба)</title>
  <g style="isolation: isolate">
    <g>
      <g>
        <path d="M298.975,219.941l-45.464,1.407,40.276,14.721s-9.534,41.786-35.589,60.8c-26.077,18.989-32.858,19.45-32.858,19.45s-19.524-22.773-29.308-37.979c-3.39-5.262-6.781-10.962-9.762-16.176-2.8-4.9-5.256-9.385-6.986-12.66-1.593-2.934-2.617-4.9-2.822-5.287.068.461.478,2.886,1.32,6.767.66,3.177,1.593,7.348,2.867,12.174a250.727,250.727,0,0,0,12.128,35.82c12.037,28.011,19.3,33.031,19.3,33.031l-15.2,6.645s-15.314-16.176-23.142-52.505c-1.911-8.876-3.322-15.958-4.369-21.487-.341-1.916-.66-3.638-.933-5.19-1.32-7.736-1.661-11.059-1.661-11.059s-13.539,7.3-33.063,16.758c-8.192,3.977-17.453,8.318-27.215,12.684-32.972,14.721-49.469,14.721-49.469,14.721s-30.742-21.827-41.437-32.764C4.892,248.9,0,241.767,0,241.767l28.853-23.985,48.217-40.113L14.222,188.9,0,191.445s3.846-6.669,10.626-16.249a257.091,257.091,0,0,1,30.355-35.99c24.507-23.743,36.977-29.442,36.977-29.442s21.845,1.892,47.694,15.206c24.825,12.781,33.359,22.482,34,23.209-.614-1.091-10.353-18.844-23.324-29.878-13.357-11.374-36.863-22.312-36.863-22.312l16.52-10.453s16.247,6.184,31.675,22.336c15.405,16.127,22.55,37.517,22.55,37.517s-2.8-23.451-10.535-42.586c-3.208-7.954-5.825-13.993-7.782-18.334-2.776-6.135-4.232-8.9-4.232-8.9s36.658-5.7,67.468,6.645c1.138.461,2.23.9,3.277,1.334,27.715,11.2,30.036,13.872,30.036,13.872s-4.551,11.641-10.171,24.033v.024c-3.8,8.391-8.1,17.146-11.787,22.845l15.61-17.34,30.4-33.831s26.805,32.764,34.428,58.883C314.562,178.155,298.975,219.941,298.975,219.941Z" transform="translate(0 -19.04)" fill="url(#y)"/>
        <path d="M438.258,308.01c-13.994-.024-30.332-1.819-30.332-1.819a175.018,175.018,0,0,0,41.437,13.727c22.937,4.39,29.49,1.5,29.49,1.5l-3.208,13.993s-17.248,3.492-43.257-7.761c-19.524-8.44-26.464-12.538-26.464-12.538s-4.073,26.459-10.831,56.968c-6.781,30.485-14.677,42.32-14.677,42.32s-28.1,11.932-39.912,14.527c-11.832,2.619-18.545,2.813-18.545,2.813l-.66-23.379-1.707-61.721L291.1,408.365a234.143,234.143,0,0,1-12.379-53.694c-2.822-28.617-.341-40.21-.341-40.21A128.892,128.892,0,0,1,310.535,287.3c20.525-12.393,30.56-13.63,30.56-13.63s-16.11-1.431-29.513,2.862c-13.38,4.293-31.333,16.1-31.333,16.1l1.5-16.71A77.943,77.943,0,0,1,310.6,263.556c16.725-3.444,32.744.946,33.745,1.213-.933-.534-16.133-8.973-31.106-12.2-15.428-3.347-22.436-4-22.436-4s14.062-28.981,36.408-45.375c22.322-16.37,25.258-16.855,25.258-16.855s13.971,24.494,18.249,37.59l-9.352-56.846s25.258-3.08,44.736.631a60.681,60.681,0,0,1,7.85,2.013c19.66,6.645,37.818,37.251,37.818,37.251l-20.912,33.3,28.33-22.069S480.24,244.446,479.4,272c-.842,27.526-3.8,32.619-3.8,32.619S452.275,308.034,438.258,308.01Z" transform="translate(0 -19.04)" fill="url(#z)"/>
        <g mask="url(#aa)">
          <path d="M216.671,192.183a159.858,159.858,0,0,1-37.386,57.356c-.5.509-1,.994-1.5,1.479-3.186,3.128-6.349,5.942-9.352,8.488-1.32-7.736-1.661-11.059-1.661-11.059s-13.539,7.3-33.063,16.758c-8.192,3.977-17.453,8.318-27.215,12.684C73.521,292.61,57.024,292.61,57.024,292.61s-30.742-21.827-41.437-32.764C4.892,248.933,0,241.8,0,241.8l28.853-23.985L77.071,177.7,14.222,188.933,0,191.48s3.846-6.669,10.626-16.249a257.1,257.1,0,0,1,30.355-35.99C65.488,115.5,77.958,109.8,77.958,109.8s21.845,1.892,47.694,15.206c24.825,12.781,33.359,22.482,34,23.209-.614-1.091-10.353-18.844-23.324-29.878-13.357-11.374-36.863-22.312-36.863-22.312l16.52-10.453s16.247,6.184,31.675,22.336c15.405,16.128,22.55,37.518,22.55,37.518s-2.8-23.452-10.535-42.586c-3.208-7.955-5.825-13.993-7.782-18.334-2.776-6.136-4.232-8.9-4.232-8.9s36.658-5.7,67.468,6.645c1.138.461,2.23.9,3.277,1.334C224.067,102.208,233.715,146.371,216.671,192.183Z" transform="translate(0 -19.04)" opacity="0.47" fill="url(#ab)"/>
        </g>
        <g mask="url(#ac)">
          <path d="M386.286,305.1C357.8,365.366,332.607,396.263,321.3,408.365l-1.707-61.721L291.1,408.365a234.143,234.143,0,0,1-12.379-53.694c-2.822-28.617-.341-40.21-.341-40.21A128.892,128.892,0,0,1,310.535,287.3c20.525-12.393,30.56-13.63,30.56-13.63s-16.11-1.431-29.513,2.862c-13.38,4.293-31.333,16.1-31.333,16.1l1.5-16.71A77.943,77.943,0,0,1,310.6,263.556c16.725-3.444,32.744.946,33.745,1.213-.933-.534-16.133-8.973-31.106-12.2-15.428-3.347-22.436-4-22.436-4s14.062-28.981,36.408-45.375c22.322-16.37,25.258-16.855,25.258-16.855s13.971,24.494,18.249,37.59l-9.352-56.846s25.258-3.08,44.736.631l7.85,2.013S424.969,223.25,386.286,305.1Z" transform="translate(0 -19.04)" opacity="0.47" fill="url(#ad)"/>
        </g>
        <polygon points="479.033 244.775 428.196 254.937 479.393 249.856 479.033 244.775" fill="#365326"/>
        <path d="M134.087,180.2s-39.01,10.67-67.764,26.252A614.765,614.765,0,0,0,13.676,238.73s51.957-23.808,72.057-32.275S134.087,180.2,134.087,180.2Z" transform="translate(0 -19.04)" fill="#365326"/>
        <polygon points="384.254 208.049 386.477 146.873 392.922 146.843 384.254 208.049" fill="#365326"/>
        <polygon points="290.536 99.445 262.461 122.359 295.141 107.053 290.536 99.445" fill="#365326"/>
        <path d="M347.5,426.973s-1.466-25.593-1.107-55.241,5.184-44.5,5.184-44.5-3.8,32.437-1.8,58.2,3.406,38.8,3.406,38.8Z" transform="translate(0 -19.04)" fill="#365326"/>
        <path d="M94.271,263.815a118.587,118.587,0,0,0,31.95-8.912c16.019-7.2,31.2-16.174,31.2-16.174s-18.767,18.1-31.572,21.622S94.271,263.815,94.271,263.815Z" transform="translate(0 -19.04)" fill="#365326"/>
        <path d="M338.157,329.352s-6.23,23.425-8.206,45.21-1.79,25.8-1.79,25.8-2.82-23.646-1.645-36.719S338.157,329.352,338.157,329.352Z" transform="translate(0 -19.04)" fill="#365326"/>
        <path d="M211.924,85.887s1.8,4.584,0,30.856-5.166,35.974-5.166,35.974,8.013-19.806,9.15-36.782A76.517,76.517,0,0,0,211.924,85.887Z" transform="translate(0 -19.04)" fill="#365326"/>
        <path d="M56.625,132.507a162.668,162.668,0,0,1,47.6,3.234c25.117,5.659,40.287,15.663,40.287,15.663a377.347,377.347,0,0,0-43.945-11.217C77.674,135.943,56.625,132.507,56.625,132.507Z" transform="translate(0 -19.04)" fill="#365326"/>
      </g>
      <g>
        <path d="M762.828,434.047,746.9,442.528l16.376-1.381s2.552,17.713-3.988,29.567-8.892,13.209-8.892,13.209-10.159-5.336-15.789-9.467c-1.95-1.429-3.962-3.026-5.76-4.507-1.688-1.393-3.2-2.686-4.276-3.642-.982-.849-1.624-1.424-1.752-1.538.09.165.579,1.025,1.429,2.368.685,1.1,1.609,2.544,2.746,4.175a96.324,96.324,0,0,0,9.389,11.638c8.247,8.655,11.535,9.315,11.535,9.315l-4.448,5.207s-7.729-3.537-15.665-16.123c-1.939-3.075-3.445-5.548-4.6-7.489-.393-.676-.751-1.282-1.068-1.83-1.567-2.741-2.16-3.957-2.16-3.957s-3.766,5.168-9.347,12.211c-2.341,2.958-5.009,6.243-7.852,9.625-9.6,11.413-15.456,14.294-15.456,14.294s-14-3.013-19.35-5.345a53.1,53.1,0,0,1-8.091-4.207l6.828-14.251,11.406-23.828-20.7,15.29-4.683,3.462s.417-3.233,1.462-8.1a121.3,121.3,0,0,1,5.655-19.124c5.321-13.4,8.934-17.766,8.934-17.766a50.487,50.487,0,0,1,19.076-2.491c10.62.572,15.025,2.807,15.354,2.975-.373-.312-6.348-5.429-12.516-7.4-6.353-2.035-16.244-2.13-16.244-2.13l4.375-6.9a32.953,32.953,0,0,1,14.407,3.046c7.754,3.5,13.326,10.47,13.326,10.47a76.845,76.845,0,0,0-9.785-14.515c-2.268-2.494-4.053-4.357-5.364-5.682-1.856-1.871-2.765-2.679-2.765-2.679s12.193-8.592,24.874-9.233c.469-.022.918-.045,1.352-.06,11.422-.538,12.624.081,12.624.081s.039,5.266-.195,11.007l0,.009a90.963,90.963,0,0,1-.936,10.833l3.074-9.386,5.978-18.3s14.161,7.9,20.574,16.6S762.828,434.047,762.828,434.047Z" transform="translate(0 -19.04)" fill="url(#ae)"/>
        <path d="M824.738,443.541c-4.967,2.435-11.017,4.6-11.017,4.6a61.393,61.393,0,0,0,16.647-1.966c8.759-2.321,10.673-4.574,10.673-4.574l.849,5.935s-5.622,4.354-16.445,4.575a94.609,94.609,0,0,1-11.167-.193s2.313,10.873,4.249,23.771.8,18.817.8,18.817-8.273,9.491-12.093,12.551a44.356,44.356,0,0,1-6.178,4.32l-3.554-8.863-9.371-23.406-1.339,28.68a92.406,92.406,0,0,1-12.016-18.459c-5.065-10.5-5.831-15.383-5.831-15.383a59.977,59.977,0,0,1,7.547-16.048c5.52-8.345,8.9-10.572,8.9-10.572a34.313,34.313,0,0,0-10.062,6.254c-4.136,3.986-8.827,11.658-8.827,11.658l-1.84-6.68a34.192,34.192,0,0,1,8.477-9.79,29.9,29.9,0,0,1,12.141-5.429,44.675,44.675,0,0,0-12.765.748A78.837,78.837,0,0,0,764,446.468s.872-13.587,6.469-23.786,6.565-10.885,6.565-10.885,8.434,6.967,11.811,11.249l-11.39-20.2s8.521-5.595,15.957-7.572a21.67,21.67,0,0,1,3.07-.6c7.917-.882,18.7,7.7,18.7,7.7L812.5,418.819l6.914-13.424s11.192,6.4,14.806,17.129,3.285,13.191,3.285,13.191A132.4,132.4,0,0,1,824.738,443.541Z" transform="translate(0 -19.04)" fill="url(#af)"/>
        <g mask="url(#ag)">
          <path d="M729.694,437.762a75.381,75.381,0,0,1-5.115,28.558c-.105.283-.214.557-.323.83-.686,1.758-1.408,3.391-2.112,4.893-1.567-2.741-2.16-3.957-2.16-3.957s-3.766,5.168-9.347,12.211c-2.341,2.958-5.009,6.243-7.852,9.625-9.6,11.413-15.456,14.294-15.456,14.294s-14-3.013-19.35-5.345a53.1,53.1,0,0,1-8.091-4.207l6.828-14.251,11.406-23.828-20.7,15.29-4.683,3.462s.417-3.233,1.462-8.1a121.309,121.309,0,0,1,5.655-19.124c5.321-13.4,8.934-17.766,8.934-17.766a50.485,50.485,0,0,1,19.076-2.491c10.62.572,15.025,2.807,15.354,2.975-.373-.312-6.348-5.429-12.516-7.4-6.353-2.035-16.243-2.13-16.243-2.13l4.375-6.9a32.953,32.953,0,0,1,14.407,3.046c7.754,3.5,13.326,10.47,13.326,10.47a76.844,76.844,0,0,0-9.785-14.515c-2.268-2.495-4.053-4.357-5.364-5.682-1.856-1.872-2.765-2.679-2.765-2.679s12.193-8.592,24.874-9.233c.469-.022.918-.045,1.352-.06C719.539,401.916,729.233,417.191,729.694,437.762Z" transform="translate(0 -19.04)" opacity="0.47" fill="url(#ah)"/>
        </g>
        <g mask="url(#ai)">
          <path d="M805.89,451.5c-1.546,28.122-6.093,44.388-8.385,51.011l-9.371-23.406-1.339,28.68a92.406,92.406,0,0,1-12.016-18.459c-5.065-10.5-5.831-15.383-5.831-15.383a59.977,59.977,0,0,1,7.547-16.048c5.52-8.345,8.9-10.572,8.9-10.572a34.313,34.313,0,0,0-10.062,6.254c-4.136,3.986-8.827,11.658-8.827,11.658l-1.84-6.68a34.192,34.192,0,0,1,8.477-9.79,29.9,29.9,0,0,1,12.141-5.429,44.675,44.675,0,0,0-12.765.748A78.837,78.837,0,0,0,764,446.468s.872-13.587,6.469-23.786,6.565-10.885,6.565-10.885,8.434,6.967,11.811,11.249l-11.39-20.2s8.521-5.595,15.957-7.572l3.07-.6S807.987,413.31,805.89,451.5Z" transform="translate(0 -19.04)" opacity="0.47" fill="url(#aj)"/>
        </g>
        <polygon points="832.924 400.406 816.335 413.188 833.773 402.294 832.924 400.406" fill="#365326"/>
        <path d="M698.7,447.587s-12.321,10.912-20.307,21.919S664.3,491.1,664.3,491.1s15.047-18.219,20.974-24.982S698.7,447.587,698.7,447.587Z" transform="translate(0 -19.04)" fill="#365326"/>
        <polygon points="794.091 402.856 786.192 378.973 788.473 377.835 794.091 402.856" fill="#365326"/>
        <polygon points="745.427 377.516 738.723 391.22 748.141 379.634 745.427 377.516" fill="#365326"/>
        <path d="M809.44,505.083s-4.155-9.573-8.238-21.022-4.481-18-4.481-18,3.257,13.122,7.627,22.669,6.719,14.308,6.719,14.308Z" transform="translate(0 -19.04)" fill="#365326"/>
        <path d="M696.453,486.653a49.412,49.412,0,0,0,10.067-9c4.659-5.563,8.768-11.66,8.768-11.66s-4.086,10.23-8.128,13.819S696.453,486.653,696.453,486.653Z" transform="translate(0 -19.04)" fill="#365326"/>
        <path d="M792.264,469.223a141.786,141.786,0,0,0,3.51,18.8c2.393,8.712,3.03,10.222,3.03,10.222s-4.358-8.589-5.8-13.815S792.264,469.223,792.264,469.223Z" transform="translate(0 -19.04)" fill="#365326"/>
        <path d="M712.914,397.768s1.289,1.446,4.382,11.851,3.277,14.718,3.277,14.718.029-9.006-1.978-15.725A31.021,31.021,0,0,0,712.914,397.768Z" transform="translate(0 -19.04)" fill="#365326"/>
        <path d="M664.452,442.8a61.509,61.509,0,0,1,17.344-7.073A45.872,45.872,0,0,1,698.31,434.7a134.554,134.554,0,0,0-17.18,3.368C672.406,440.442,664.452,442.8,664.452,442.8Z" transform="translate(0 -19.04)" fill="#365326"/>
      </g>
      <g>
        <path d="M744.809,377.711l8.7-17.577-12.637,12.1s-10.991-12.71-11.63-26.744.593-16.713.593-16.713,10.955-2.464,17.618-2.874c2.306-.143,4.748-.192,6.957-.19,2.075,0,3.955.044,5.313.1,1.226.033,2.039.071,2.2.078-.156-.074-.987-.446-2.355-.97-1.114-.44-2.59-.993-4.336-1.559a76.878,76.878,0,0,0-13.5-3.183c-11.07-1.519-14.078.146-14.078.146l1-7.22s8.072-2.3,20.866,2.628c3.126,1.2,5.6,2.209,7.514,3.014.66.287,1.256.541,1.79.774,2.655,1.181,3.749,1.774,3.749,1.774s.465-6.731,1.465-16.205c.417-3.977.937-8.439,1.549-13.1,2.076-15.728,5.39-21.995,5.39-21.995s12.917-6.931,18.443-8.615a49.531,49.531,0,0,1,8.7-2l1.612,16.178,2.7,27.042,9.156-26.318,2.07-5.957s1.287,2.911,2.884,7.571a122.194,122.194,0,0,1,5.019,19.359c2.411,14.474,1.666,20.451,1.666,20.451a62.031,62.031,0,0,1-14.277,14.811c-8.934,6.651-13.645,7.783-14,7.867.46,0,7.9.165,13.914-2.362,6.2-2.6,14.3-9.151,14.3-9.151l-.09,8.549a35.834,35.834,0,0,1-13.261,7.175,35.225,35.225,0,0,1-16.118.407s7.806,4.037,15.27,5.26c3.1.511,5.492.831,7.226,1.031,2.453.28,3.6.328,3.6.328s-5.6,15.166-15.6,24.185c-.371.332-.725.652-1.07.955-9.028,8.092-10.318,8.393-10.318,8.393s-2.681-4.261-5.38-9.091l-.008-.005a83.066,83.066,0,0,1-4.688-9.447l2.22,9.7,4.343,18.907s-15.5,3.057-25.1.272S744.809,377.711,744.809,377.711Z" transform="translate(0 -19.04)" fill="url(#ak)"/>
        <path d="M689.63,411.468c2.819-5.311,6.655-11.127,6.655-11.127A74.323,74.323,0,0,0,683.721,413.1c-5.963,7.759-6.388,10.876-6.388,10.876l-3.678-4.262s2.386-7.312,11.086-14.745a109.742,109.742,0,0,1,9.188-7.326s-7.354-7.3-15.42-16.505-10.123-14.78-10.123-14.78,1.959-13.271,3.53-18.322a56.565,56.565,0,0,1,2.856-7.657l7.354,4.834,19.407,12.776-13.341-24.247a72.667,72.667,0,0,1,19.071,6.976c9.406,5.152,12.488,8.616,12.488,8.616a64.437,64.437,0,0,1,1.931,18.122c-.3,10.493-1.929,14.574-1.929,14.574a43.894,43.894,0,0,0,5.044-11.834c1.362-6.017,1.32-15.406,1.32-15.406l4.859,4.2A40.894,40.894,0,0,1,729,372.642a38.15,38.15,0,0,1-7.153,12.556,53.124,53.124,0,0,0,10.016-9.164c4.133-5.133,5.743-7.653,5.743-7.653s6.127,11.646,6.7,23.7.132,13.261.132,13.261-10.372-.02-15.276-1.243l19.437,8.811s-4.122,10.265-9.181,16.858a26.911,26.911,0,0,1-2.2,2.545c-6,6.023-19.1,6.265-19.1,6.265l-6.084-15.186,1.126,15.562s-12.333,2.289-20.673-4.023-9.312-8.538-9.312-8.538S686.807,416.788,689.63,411.468Z" transform="translate(0 -19.04)" fill="url(#al)"/>
        <g mask="url(#am)">
          <path d="M769.915,352.481A72.12,72.12,0,0,1,759.71,325.8c-.057-.3-.106-.6-.155-.892-.326-1.891-.56-3.7-.743-5.4,2.655,1.181,3.749,1.774,3.749,1.774s.465-6.731,1.465-16.205c.417-3.977.936-8.44,1.549-13.1,2.076-15.728,5.39-21.995,5.39-21.995s12.917-6.931,18.443-8.615a49.531,49.531,0,0,1,8.7-2l1.613,16.178,2.7,27.042,9.156-26.318,2.07-5.957s1.287,2.911,2.884,7.571a122.2,122.2,0,0,1,5.019,19.359c2.411,14.474,1.666,20.451,1.666,20.451a62.029,62.029,0,0,1-14.277,14.811c-8.934,6.651-13.645,7.783-14,7.867.46,0,7.9.165,13.914-2.362,6.2-2.6,14.3-9.151,14.3-9.151l-.09,8.549a35.834,35.834,0,0,1-13.261,7.175,35.226,35.226,0,0,1-16.118.407s7.806,4.037,15.27,5.26c3.1.511,5.492.831,7.226,1.031,2.453.28,3.6.328,3.6.328s-5.6,15.166-15.6,24.185c-.371.332-.725.652-1.07.955A58.759,58.759,0,0,1,769.915,352.481Z" transform="translate(0 -19.04)" opacity="0.47" fill="url(#an)"/>
        </g>
        <g mask="url(#ao)">
          <path d="M700.968,392.357c-12.892-23.931-17.375-40.22-18.841-47.148l19.407,12.776-13.341-24.247a72.667,72.667,0,0,1,19.071,6.976c9.406,5.152,12.488,8.616,12.488,8.616a64.437,64.437,0,0,1,1.931,18.122c-.3,10.493-1.929,14.574-1.929,14.574a43.894,43.894,0,0,0,5.044-11.834c1.362-6.017,1.32-15.406,1.32-15.406l4.859,4.2A40.894,40.894,0,0,1,729,372.642a38.15,38.15,0,0,1-7.153,12.556,53.124,53.124,0,0,0,10.016-9.164c4.133-5.133,5.743-7.653,5.743-7.653s6.127,11.646,6.7,23.7.132,13.261.132,13.261-10.372-.02-15.276-1.243l19.437,8.811s-4.122,10.265-9.181,16.858l-2.2,2.545S718.479,424.855,700.968,392.357Z" transform="translate(0 -19.04)" opacity="0.47" fill="url(#ap)"/>
        </g>
        <polygon points="695.09 417.531 702.163 396.008 693.448 416.563 695.09 417.531" fill="#365326"/>
        <path d="M790.2,323.714s4.541-17.14,5.5-31.453.606-27.02.606-27.02-3.083,24.916-4.505,34.394S790.2,323.714,790.2,323.714Z" transform="translate(0 -19.04)" fill="#365326"/>
        <polygon points="725.471 389.513 743.92 403.663 742.635 406.118 725.471 389.513" fill="#365326"/>
        <polygon points="777.841 377.531 776.403 361.882 774.566 377.626 777.841 377.531" fill="#365326"/>
        <path d="M671.117,351.114s8.2,5.009,17.284,11.594,12.7,11.649,12.7,11.649-9.255-8.5-17.615-13.344-12.67-7.146-12.67-7.146Z" transform="translate(0 -19.04)" fill="#365326"/>
        <path d="M772.377,290.4a61.875,61.875,0,0,0-3.665,14.076c-.994,7.652-1.271,15.369-1.271,15.369s-1.822-11.067-.337-16.7A73.547,73.547,0,0,1,772.377,290.4Z" transform="translate(0 -19.04)" fill="#365326"/>
        <path d="M703.145,368.8a116.093,116.093,0,0,0-12.316-12.95c-6.332-5.489-7.61-6.292-7.61-6.292s7.87,4.071,11.672,7.361S703.145,368.8,703.145,368.8Z" transform="translate(0 -19.04)" fill="#365326"/>
        <path d="M803.7,373.8s-1.777-.314-9.531-6.711S784.1,357.3,784.1,357.3s4.508,7.352,9.523,11.476A24.274,24.274,0,0,0,803.7,373.8Z" transform="translate(0 -19.04)" fill="#365326"/>
        <path d="M820.5,304.66a78.707,78.707,0,0,1-10.561,17.381c-6.793,8.311-12.93,11.9-12.93,11.9A166.851,166.851,0,0,0,809.3,319.685C815.207,311.909,820.5,304.66,820.5,304.66Z" transform="translate(0 -19.04)" fill="#365326"/>
      </g>
      <g>
        <path d="M718.16,374.5l16.816,5.756-13.094-11.434s8.212-15.252,19.9-19.177,14.235-3.152,14.235-3.152,4.581,11.746,6.449,19.137c.648,2.559,1.247,5.29,1.75,7.773.472,2.332.866,4.453,1.13,5.992.252,1.385.406,2.307.437,2.489.027-.192.151-1.211.281-2.868.117-1.352.246-3.136.324-5.228a115.66,115.66,0,0,0-.4-15.895c-1.247-12.784-3.34-15.784-3.34-15.784l6.319-.525s3.784,8.544,2.55,24.043c-.3,3.787-.585,6.792-.826,9.131-.091.807-.169,1.535-.244,2.188-.39,3.252-.64,4.618-.64,4.618s5.785-1.015,14.006-2.056c3.45-.44,7.334-.876,11.4-1.252,13.742-1.261,19.786,1.031,19.786,1.031s8.8,12.928,11.482,18.753a70.336,70.336,0,0,1,3.673,9.323l-13.279,5.508-22.2,9.216,24.294,4.274,5.5.965s-2.162,2.112-5.728,4.97a92.547,92.547,0,0,1-15.185,10.061c-11.66,6.015-16.872,6.544-16.872,6.544a57.694,57.694,0,0,1-15.757-12.657c-7.652-8.518-9.683-13.552-9.834-13.929.1.518,1.665,8.913,5.171,15.092,3.609,6.367,10.986,13.971,10.986,13.971l-7.233,1.852a42.4,42.4,0,0,1-9.083-13.26,52.8,52.8,0,0,1-4.025-18.015,88.38,88.38,0,0,0-.949,18.358c.277,3.6.554,6.36.781,8.354.324,2.82.546,4.119.546,4.119s-14.074-2.83-23.968-12.007c-.365-.341-.716-.666-1.05-.984-8.889-8.294-9.438-9.675-9.438-9.675s2.982-3.986,6.44-8.122l0-.01a73.655,73.655,0,0,1,6.9-7.426l-7.677,4.711-14.958,9.2s-6.121-16.721-5.964-28.141S718.16,374.5,718.16,374.5Z" transform="translate(0 -19.04)" fill="url(#aq)"/>
        <path d="M677.076,320.221c5.124,1.953,10.908,4.934,10.908,4.934a72.1,72.1,0,0,0-13.631-11.2c-7.908-4.927-10.635-4.692-10.635-4.692l2.756-5.106s6.714,1.01,14.972,9.087a116.992,116.992,0,0,1,8.28,8.649s4.48-9.931,10.4-21.1,10.156-14.75,10.156-14.75,11.643-.83,16.263-.22a39.931,39.931,0,0,1,7.112,1.46l-2.4,9.366-6.344,24.722,17.407-20.528a106.9,106.9,0,0,1-1.528,23.02c-2.2,11.745-4.415,16-4.415,16a45.262,45.262,0,0,1-14.847,6.31c-8.919,2.066-12.735,1.163-12.735,1.163s5.741,2.805,11.136,2.964,13.3-2.036,13.3-2.036l-2.437,6.42a27.063,27.063,0,0,1-11.968.9,30.15,30.15,0,0,1-12.227-5.168,53.715,53.715,0,0,0,10.019,9.16,84.651,84.651,0,0,0,7.768,4.7s-8.425,9.544-18.463,12.944-11.157,3.179-11.157,3.179-2.353-11.658-2.441-17.447l-2.993,23.85s-9.6-2.286-16.319-6.463a24.381,24.381,0,0,1-2.649-1.889c-6.453-5.367-9.649-20.03-9.649-20.03l11.422-10.305-12.871,4.82s-4.748-13.333-1.329-24.146,5.076-12.412,5.076-12.412A121.915,121.915,0,0,1,677.076,320.221Z" transform="translate(0 -19.04)" fill="url(#ar)"/>
        <g mask="url(#as)">
          <path d="M745.18,396.946a59.184,59.184,0,0,1,20.174-17.561c.241-.133.479-.255.717-.378,1.52-.8,3-1.475,4.385-2.068-.39,3.252-.64,4.618-.64,4.618s5.785-1.015,14.006-2.056c3.45-.44,7.334-.876,11.4-1.252,13.742-1.261,19.786,1.031,19.786,1.031s8.8,12.928,11.482,18.753a70.336,70.336,0,0,1,3.673,9.323l-13.279,5.508-22.2,9.216,24.294,4.274,5.5.965s-2.162,2.112-5.728,4.97a92.552,92.552,0,0,1-15.185,10.061c-11.66,6.015-16.872,6.544-16.872,6.544a57.692,57.692,0,0,1-15.757-12.656c-7.652-8.518-9.683-13.552-9.834-13.929.1.518,1.665,8.913,5.171,15.092,3.609,6.367,10.986,13.971,10.986,13.971l-7.233,1.852a42.4,42.4,0,0,1-9.083-13.26,52.8,52.8,0,0,1-4.025-18.015,88.379,88.379,0,0,0-.949,18.358c.277,3.6.554,6.36.781,8.354.324,2.82.546,4.119.546,4.119s-14.074-2.83-23.968-12.007c-.365-.341-.716-.666-1.05-.984C732.311,431.612,733.763,412.753,745.18,396.946Z" transform="translate(0 -19.04)" opacity="0.47" fill="url(#at)"/>
        </g>
        <g mask="url(#au)">
          <path d="M695.788,328.594c17.243-19.951,29.961-28.71,35.471-31.94l-6.344,24.722,17.407-20.528a106.9,106.9,0,0,1-1.528,23.02c-2.2,11.745-4.415,16-4.415,16a45.262,45.262,0,0,1-14.847,6.31c-8.919,2.066-12.735,1.163-12.735,1.163s5.741,2.805,11.136,2.964,13.3-2.036,13.3-2.036l-2.437,6.42a27.063,27.063,0,0,1-11.968.9,30.15,30.15,0,0,1-12.227-5.168,53.715,53.715,0,0,0,10.019,9.16,84.651,84.651,0,0,0,7.768,4.7s-8.425,9.544-18.463,12.944-11.157,3.179-11.157,3.179-2.353-11.658-2.441-17.447l-2.993,23.85s-9.6-2.286-16.319-6.463l-2.649-1.889S672.373,355.692,695.788,328.594Z" transform="translate(0 -19.04)" opacity="0.47" fill="url(#av)"/>
        </g>
        <polygon points="657.146 313.05 676.919 316.08 657.588 310.984 657.146 313.05" fill="#365326"/>
        <path d="M774.084,413.169s15.5,1.185,27.792-1a212.665,212.665,0,0,0,22.933-5.492s-21.724,2.229-30.044,2.8S774.084,413.169,774.084,413.169Z" transform="translate(0 -19.04)" fill="#365326"/>
        <polygon points="687.724 340.783 680.001 364.743 677.636 363.86 687.724 340.783" fill="#365326"/>
        <polygon points="709.796 396.883 722.669 391.692 708.968 393.225 709.796 396.883" fill="#365326"/>
        <path d="M723.762,285.633s-2.353,10.356-5.832,22.068S711,324.636,711,324.636s5.057-12.34,7.233-22.84,3.134-15.867,3.134-15.867Z" transform="translate(0 -19.04)" fill="#365326"/>
        <path d="M798.113,385.529a41.926,41.926,0,0,0-12.712-.9,124.746,124.746,0,0,0-13.255,2.084s8.92-4.575,14.009-4.193S798.113,385.529,798.113,385.529Z" transform="translate(0 -19.04)" fill="#365326"/>
        <path d="M716.16,325.657a131.019,131.019,0,0,0,8.112-16.8c3.184-8.368,3.569-9.988,3.569-9.988s-1.637,9.772-3.544,14.8S716.16,325.657,716.16,325.657Z" transform="translate(0 -19.04)" fill="#365326"/>
        <path d="M734.916,439.773s-.141-2.068,3.484-12.241,5.955-13.554,5.955-13.554-5.172,6.744-7.506,13.321A34.437,34.437,0,0,0,734.916,439.773Z" transform="translate(0 -19.04)" fill="#365326"/>
        <path d="M797.078,442.848A61.6,61.6,0,0,1,780,434.954a55.292,55.292,0,0,1-12.991-11.809A151.892,151.892,0,0,0,781.845,433.7C789.755,438.562,797.078,442.848,797.078,442.848Z" transform="translate(0 -19.04)" fill="#365326"/>
      </g>
      <polygon points="55.105 460.405 58.152 479.255 224.568 494.678 351.379 473.727 576.345 525.143 775.607 473.727 775.607 463.451 567.932 484.015 345.234 456.597 223.044 484.99 55.105 460.405" fill="#57110c"/>
      <polygon points="99.759 450.548 55.105 460.405 224.187 484.99 345.234 456.597 576.345 500.009 775.607 463.451 330.916 427.081 99.759 450.548" fill="url(#aw)"/>
      <path d="M71.349,313.58S89.414,399.07,93.71,429.162s8.1,53.346,8.1,53.346l89.72,10.259,148.366-28.2,242.071,28.2,113.153-10.943,55.218-200.389L659.709,73.006,297.346,198.895l-164.9,8.079Z" transform="translate(0 -19.04)" fill="url(#ax)"/>
      <polygon points="338.061 299.501 568.666 281.88 581.971 473.727 695.124 462.784 750.342 262.395 654.353 79.581 337.706 271.287 338.061 299.501" fill="#db5430"/>
      <polygon points="73.466 304.624 141.229 250.769 189.012 310.265 191.534 473.727 339.9 445.524 337.706 271.287 182.928 289.752 134.263 186.641 71.349 294.54 73.466 304.624" fill="#c6522f"/>
      <g>
        <path d="M49.012,314.933l21.326,5.331S95.091,281.8,106.9,261.619s29.489-60.741,29.489-60.741l-10.916-32.149s-17.645,44.146-32.77,71.565S49.012,314.933,49.012,314.933Z" transform="translate(0 -19.04)" fill="#57110c"/>
        <path d="M336.695,294.369,183.836,310s-1.371-2.239-3.7-6.443a503.252,503.252,0,0,1-27.921-59.818c-15.994-40.763-30.069-85.318-30.069-85.318s82.622,24.768,99.758,26.276c5.073.457,13.527.64,22.94.685h.091c20.975.046,46.566-.594,49.765-.685h.32l39.3,103.46Z" transform="translate(0 -19.04)" fill="url(#ay)"/>
        <path d="M784.746,284.468H749.33L650.624,91.323,682.307,19.04S716.58,137.854,744,199.546,784.746,284.468,784.746,284.468Z" transform="translate(0 -19.04)" fill="#57110c"/>
        <path d="M682.307,19.04l-.274.685c-3.747,9.185-44.235,108.487-73.619,163.506-30.846,57.671-52.37,91.716-52.37,91.716L336.695,294.369S329.2,280.979,321.249,264.8c-.366-.777-.777-1.6-1.142-2.422-4.432-9.048-8.866-18.781-12.156-27.419a260.422,260.422,0,0,1-12.932-50.267L317.09,124.51s44.921-8.454,84.313-15.994c23.123-4.387,44.326-8.5,53.42-10.373,3.336-.685,9.962-2.651,18.965-5.575h.091c23.671-7.631,63.7-21.615,102.317-35.324,41.311-14.715,81.068-29.11,97.793-35.187q2.673-.96,4.524-1.645L679.656,20c.685-.228,1.234-.457,1.691-.594Z" transform="translate(0 -19.04)" fill="url(#az)"/>
        <path d="M682.307,19.04S720.769,143.567,752,200.688s45.7,76.163,45.7,76.163l-12.948,7.616S757.708,243.53,732,181.267,676.373,32.9,676.373,32.9Z" transform="translate(0 -19.04)" fill="url(#ba)"/>
        <path d="M49.012,314.933l-5.9-7.712s27.7-33.416,48.173-69.594c16.748-29.6,30.846-79.209,30.846-79.209l3.34,10.311s-17.621,46.907-35.9,82.323A455.274,455.274,0,0,1,49.012,314.933Z" transform="translate(0 -19.04)" fill="url(#bb)"/>
        <path d="M556.067,274.948l6.855,8s47.982-93.68,67.4-133.666S679.993,43.209,679.993,43.209l2.314-24.169s-37.7,90.824-71.4,155.372S556.067,274.948,556.067,274.948Z" transform="translate(0 -19.04)" fill="#57110c"/>
        <polygon points="438.395 143.832 455.389 114.673 489.377 108.389 517.652 100.678 498.945 140.021 438.395 143.832" fill="#f79153" opacity="0.2"/>
        <polygon points="533.789 173.509 553.639 149.689 562.922 131.952 628.129 120.967 603.478 169.51 533.789 173.509" fill="#f79153" opacity="0.2"/>
        <polygon points="317.764 238.549 329.101 184.695 372.705 182.505 357.472 237.724 320.084 243.374 317.764 238.549" fill="#f79153" opacity="0.2"/>
        <polygon points="410.845 268.766 441.632 226.394 499.135 218.397 456.865 264.858 410.845 268.766" fill="#f79153" opacity="0.2"/>
        <path d="M473.879,92.568l-19.7,40.717L388.1,144.343l8.774-34.685,4.524-1.142c23.123-4.387,44.326-8.5,53.42-10.373,3.336-.685,9.962-2.651,18.965-5.575Z" transform="translate(0 -19.04)" fill="#f79153" opacity="0.2"/>
        <path d="M450.754,136.073c-.311.583-.622,1.206-.972,1.828v.039c-1.595,3.112-3.267,6.34-5.057,9.763l3.112-1.089h.039l2.645-.934c1.945-3.5,3.7-6.729,5.251-9.608Zm3.345-.156-.039.039-.078.117h1.789c.233-.428.467-.856.661-1.245Zm-3.345.156c-.311.583-.622,1.206-.972,1.828v.039c-1.595,3.112-3.267,6.34-5.057,9.763l3.112-1.089h.039l2.645-.934c1.945-3.5,3.7-6.729,5.251-9.608Zm3.345-.156-.039.039-.078.117h1.789c.233-.428.467-.856.661-1.245Zm-3.345.156c-.311.583-.622,1.206-.972,1.828v.039c-1.595,3.112-3.267,6.34-5.057,9.763l3.112-1.089h.039l2.645-.934c1.945-3.5,3.7-6.729,5.251-9.608Zm3.345-.156-.039.039-.078.117h1.789c.233-.428.467-.856.661-1.245ZM666.442,57.188a3.926,3.926,0,0,0-.583.272c-.156.078-.35.156-.506.233-6.418,3.112-17.5,8.363-31.429,14.7h-.078c-11.63,5.29-25.128,11.319-39.637,17.465,3.073-6.574,5.951-12.836,8.558-18.515,7.546-16.493,12.72-28.162,12.72-28.162L613.191,44s-4.823,11.125-12.331,27.423c-2.762,5.912-5.874,12.525-9.219,19.527C581.995,95,572,99.081,561.924,103.009c-4.318,1.673-8.674,3.345-12.992,4.94-1.05.389-2.023.778-3.073,1.128h-.039c-8.207,3.073-16.337,5.874-24.194,8.441,7.391-15.481,13.575-29.485,17.426-38.431,2.606-6.029,4.162-9.763,4.318-10.23l-3.229,1.089-3.579,1.284s-1.284,3.384-3.462,8.985c-3.5,8.908-9.335,23.417-15.987,38.742a304.615,304.615,0,0,1-34.152,8.908q-3.384.642-7,1.284c-2.217.389-4.512.817-6.846,1.206-1.634.311-3.306.622-4.979.895h-.078c-2.062.389-4.162.739-6.3,1.128,2.489-4.629,4.318-8.169,5.212-10.152,2.256-4.9,4.24-9.413,5.99-13.3,2.062-4.668,3.734-8.558,4.979-11.4,1.128-2.645,1.906-4.473,2.217-5.29l.233-.467v-.039l-2.528.817-.078.039-1.517.467-.039.039v.078h-.039c-.233.545-1.323,2.762-3.151,6.574-.039.039-.039.039,0,.078a.054.054,0,0,0,0,.078c-3.423,6.69-8.985,18.243-16.882,33.452-4.629.817-9.374,1.595-14.159,2.412a3.051,3.051,0,0,1-.545.078l-1.4.233c-3.423.583-6.846,1.167-10.308,1.75-11.864,1.945-23.883,3.89-35.475,5.718q.934-3.968,1.75-7.468c2.723-11.747,4.357-19.76,5.135-23.805.311-1.478.467-2.412.545-2.8a.681.681,0,0,0,.039-.194l-1.906.35-.856.156s-.272,1.128-.817,3.19l-.039.156c-1.089,4.473-3.229,12.992-5.718,22.95-.661,2.606-1.323,5.329-2.023,8.091-2.762.428-5.485.895-8.169,1.284h-.039c-2.023.35-4.045.661-6.029.972-10,1.595-19.41,3.073-27.812,4.357,1.167-5.057,2.334-10.113,3.345-14.7.895-4.006,1.712-7.663,2.334-10.58.972-4.59,1.595-7.468,1.595-7.468l-2.373.428s-.583,2.8-1.673,7.78c-.622,2.684-1.361,5.99-2.295,9.841-1.011,4.357-2.217,9.452-3.656,15.092-21.666,3.345-36.331,5.523-36.331,5.523l-.622,1.712s14.937-2.178,36.525-5.485c-1.517,5.951-3.19,12.447-5.135,19.41-22.327,2.062-37.77,3.5-37.77,3.5l-.078.156-.428,1.011h.078c1.206-.117,16.454-1.323,37.77-3.034-.661,2.373-1.323,4.823-2.023,7.313-.545,1.867-1.05,3.734-1.556,5.562-.661,2.412-1.323,4.823-1.984,7.2v.039c-.817,3.073-1.595,6.029-2.373,9.024l-18.632,1.05h-.039l-6.5.35-1.75.078-.778.039-1.089.078.156.622,1.089-.039.778-.039,1.867-.078,4.59-.233h.039l20.032-.895c-4.318,16.687-7.7,31.546-9.686,40.493v.039c-.661,3.034-1.167,5.329-1.517,6.846-.272,1.323-.428,2.023-.428,2.023v.039l.039.039.039.117c.078.156.117.272.194.428.039.078.078.117.117.194a.3.3,0,0,0,.078.194c.039.078.078.117.078.194.156.311.311.583.428.856l.039.156.934,1.867a.038.038,0,0,0,.039-.039v-.039a3.731,3.731,0,0,0,.117-.583l.117-.467c.039-.194.117-.389.156-.622.35-1.361.856-3.462,1.478-6.185v-.039c2.451-10.308,6.885-28.823,11.008-45.666l41.115-1.828c-3.19,12.175-7.585,28.318-11.786,43.721-.934,3.462-1.867,6.885-2.762,10.23L324.1,260.857c-.039,0-.078.039-.117.039h-.039l-3.112.467-.972.117-.194.039h-.039l.428.895h.039l.583,1.206h.039l.233-.039.856-.117,2.956-.428h.039l31.741-4.473c-2.606,9.569-4.94,18.126-6.652,24.389v.039c-1.789,6.457-2.878,10.464-2.878,10.464l2.295-.194s.895-3.579,3.151-11.825v-.039c1.478-5.523,3.579-13.147,6.379-23.144l27.19-3.851c-2.023,3.579-3.968,7-5.8,10.191-9.219,16.1-15.52,27.034-15.52,27.034h3.151s6.924-12.136,17.076-29.874c1.439-2.489,2.917-5.1,4.473-7.818l11.008-1.556,38.781-5.485c-16.532,23.028-29.874,41.037-29.874,41.037l1.517-.117,2.217-.194s13.109-18.01,29.407-41.193l52.162-7.352c-21.588,25.284-39.637,44.81-39.637,44.81h5.29s.156-.156.467-.506c3.034-3.306,20.421-22.288,39.987-45.2l82.191-11.592,1.867-3.19.272-.428v-.039l.272-.467H585.3l-81.335,11.942c11.008-12.953,22.522-26.878,32.4-39.793l65.426-2.917h.233l2.062-3.89h-.272l-65,3.618c7.935-10.541,14.664-20.227,18.943-27.89,1.673-2.917,3.384-6.107,5.212-9.569v-.039c.428-.817.856-1.634,1.323-2.489,1.245-.194,2.451-.389,3.7-.545h.039c24.739-3.773,46.872-7.352,55.507-8.752,2.217-.35,3.54-.583,3.812-.622h.039l.661-1.361.078-.156.117-.233,1.05-2.139h-.039c-.311.078-3.968.739-9.958,1.828-10.113,1.789-26.878,4.746-45.355,7.857H573.9c-2.723.428-5.407.856-8.169,1.323,2.062-3.968,4.162-8.207,6.34-12.564,3.267-6.535,6.613-13.381,9.919-20.3,3.034-6.3,6.029-12.642,8.908-18.827V96.9c.622-1.284,1.245-2.567,1.828-3.851,18.476-7.274,35.669-14.314,48.934-19.8h.078c8.947-3.734,16.1-6.729,20.577-8.635.194-.078.35-.156.506-.233h.039a4.745,4.745,0,0,1,.661-.272l4.045-1.75,3.89-7.624S669.671,55.593,666.442,57.188ZM383.577,170.108c14.47-1.167,29.251-2.334,43.021-3.423,2.878-.272,5.718-.467,8.48-.7-.467.934-.934,1.789-1.439,2.762-2.1,3.89-4.318,7.974-6.613,12.253-3,5.485-6.146,11.241-9.374,17.115l-42.36,2.334C378.442,189.4,381.2,179.249,383.577,170.108Zm43.643,17.271c4.24-7.507,8.363-14.859,12.214-21.744,11.63-.934,22.133-1.789,30.574-2.451,3.345-.272,6.379-.506,8.985-.739,1.556-.117,2.956-.194,4.24-.311,3.89-.311,8.635-.817,14-1.439-1.284,2.373-2.878,5.1-4.707,8.052,0,.039-.039.039-.078.117-1.517,2.684-3.345,5.485-5.329,8.558-3.423,5.407-7.352,11.28-11.514,17.5l-21.122,1.167h-.039L421.23,197.92C423.253,194.38,425.237,190.841,427.22,187.379Zm56.013-57.53c8.752-1.673,20.188-4.862,33.063-8.985-.35.778-.661,1.556-1.05,2.334-1.867,4.279-3.812,8.6-5.757,12.875-3.579,7.741-7.235,15.248-10.814,21.938-1.712.156-3.345.311-4.862.389-3.89.311-9.024.7-15.053,1.206-2.762.233-5.718.506-8.869.739-6.924.583-14.626,1.245-22.911,1.984h-.117c-.117,0-.233.039-.35.039-1.828.156-3.656.311-5.562.506a.3.3,0,0,0,.078-.156c3.462-6.146,6.652-11.9,9.491-17.037,1.945-3.5,3.7-6.729,5.251-9.608.233-.428.467-.856.661-1.245.039-.078.078-.117.117-.194.156-.039.311-.039.467-.078,4.24-.739,8.324-1.439,12.136-2.139,2.412-.428,4.746-.856,6.963-1.245C478.643,130.7,481.016,130.277,483.233,129.849Zm-93.433,15.6c11.981-1.867,24.194-3.812,35.981-5.718,4.006-.661,7.974-1.284,11.864-1.945.117,0,.194-.039.311-.039,3.423-.583,6.807-1.128,10.075-1.673,1.011-.156,2.023-.35,3-.506a3.215,3.215,0,0,1-.272.506c-.311.583-.622,1.206-.972,1.828v.039c-1.595,3.112-3.267,6.34-5.057,9.763-2.567,4.9-5.29,10.113-8.169,15.559-3.306.272-6.652.583-10.036.895-12.836,1.128-26.217,2.334-39.365,3.54h-.039c-.506.039-1.011.078-1.517.156h-.039l-1.4.117Q387.428,155.366,389.8,145.447Zm-45.9,7.079c8.791-1.323,18.554-2.84,28.823-4.434,1.478-.233,3-.467,4.512-.7,2.84-.428,5.757-.895,8.674-1.361-1.828,7.468-3.773,15.17-5.523,22.288-14.9,1.323-29.134,2.645-41.5,3.773C340.478,166.491,342.228,159.567,343.9,152.526Zm-8.635,33.18c1.206-4.784,2.295-8.869,3.151-11.981,12.214-.972,26.217-2.1,40.726-3.267h.078c.194,0,.428-.039.622-.039,0,.039-.039.078-.039.117-1.634,6.613-3.112,12.564-4.24,17-.778,3.19-1.984,7.7-3.384,13.109L330.909,202.9c.895-3.656,1.789-7.2,2.645-10.541C334.138,190.024,334.721,187.807,335.266,185.706Zm52.4,65.815-28.084,4.123c.972-3.423,1.984-7.079,3.112-11.047,2.917-10.386,6.457-22.639,10.58-37.07.583-1.906,1.089-3.734,1.634-5.64l41.7-1.867c-4.668,8.48-9.53,17.154-14.314,25.595C397.23,234.64,392.251,243.431,387.661,251.521Zm18.749-2.762h-.039l-15.287,2.256c4.9-8.6,10.269-18.049,15.831-27.812,4.357-7.663,8.791-15.52,13.225-23.339L450.6,198.5h.039l23.261-1.05c-3.968,5.835-8.13,11.825-12.37,17.893v.039c-6.652,9.53-13.5,19.177-19.955,28.2Zm91.41-13.42-53.018,7.78c6.768-9.647,14-20.032,21-30.34,3.579-5.212,7.079-10.386,10.425-15.442l16.3-.739,38.081-1.712C520.147,208.5,508.634,222.542,497.82,235.34Zm-.506-41.621h-.039l-19.332,1.05c4.279-6.418,8.285-12.6,11.825-18.282,1.712-2.723,3.306-5.29,4.784-7.741.739-1.206,1.478-2.412,2.217-3.656.039-.078.078-.078.078-.117.778-1.517,1.673-2.956,2.567-4.512.895-.117,1.789-.233,2.723-.311,8.6-1.05,18.438-2.373,28.746-3.851,9.413-1.323,19.254-2.762,28.9-4.2-1.167,1.984-2.334,3.968-3.5,5.874v.039c-.078.156-.156.233-.233.389a392.157,392.157,0,0,1-23.028,33.335Zm82.7-79.2c-3.656,7.157-7.429,14.431-11.28,21.549-2.412,4.512-4.9,8.947-7.352,13.264-9.763,1.595-19.721,3.112-29.212,4.473-9.8,1.439-19.1,2.645-27.112,3.54-1.4.156-2.8.311-4.123.428,3.929-7,7.818-14.353,11.553-21.705,2.451-4.823,4.823-9.686,7.118-14.392.389-.778.739-1.517,1.089-2.256,7.507-2.451,15.442-5.212,23.572-8.091,1.361-.506,2.723-.972,4.123-1.517h.039c5.1-1.828,10.191-3.7,15.365-5.6,8.83-3.345,17.7-6.768,26.334-10.152-.622,1.245-1.206,2.489-1.828,3.773Q584.329,106,580.011,114.523ZM454.1,135.917l-.039.039-.078.117h1.789c.233-.428.467-.856.661-1.245Zm-3.345.156c-.311.583-.622,1.206-.972,1.828v.039c-1.595,3.112-3.267,6.34-5.057,9.763l3.112-1.089h.039l2.645-.934c1.945-3.5,3.7-6.729,5.251-9.608Zm3.345-.156-.039.039-.078.117h1.789c.233-.428.467-.856.661-1.245Zm-3.345.156c-.311.583-.622,1.206-.972,1.828v.039c-1.595,3.112-3.267,6.34-5.057,9.763l3.112-1.089h.039l2.645-.934c1.945-3.5,3.7-6.729,5.251-9.608Z" transform="translate(0 -19.04)" fill="#57110c"/>
        <polygon points="249.684 233.399 244.837 208.79 244.18 205.188 279.119 204.64 289.497 235.629 249.684 233.399" fill="#f79153" opacity="0.2"/>
        <polygon points="186.201 235.629 178.382 219.708 174.966 205.806 210.668 205.806 214.762 234.867 186.201 235.629" fill="#f79153" opacity="0.2"/>
        <polygon points="300.159 259.25 289.497 235.629 315.963 235.058 326.912 257.05 300.159 259.25" fill="#f79153" opacity="0.2"/>
        <polygon points="132.432 170.438 169.921 175.222 166.598 152.226 122.128 139.378 132.432 170.438" fill="#f79153" opacity="0.2"/>
        <path d="M326.358,274.977a2.231,2.231,0,0,0-.156-.272c-.039-.039-.039-.117-.078-.194a.355.355,0,0,0-.117-.194l-.506.039-24.389,1.323c-3.851-7.429-7.741-15.092-10.075-20.032h25.789l-.467-1.011c0-.078-.039-.117-.078-.194a.3.3,0,0,1-.078-.194c-.039-.078-.078-.117-.117-.194-.078-.156-.117-.272-.194-.428l-.039-.117-.039-.039v-.039h-1.206l-24.739-.389c-.895-2.023-2.217-5.99-3.851-11.047s-3.5-11.2-5.368-17.543l21.511-.194,2.062-.039-.7-2.256s-.778.039-2.1.078h-.039c-3.656.078-11.63.272-21.277.545-1.439-4.823-2.878-9.647-4.162-14.2v-.039l-1.906-.545c1.4,4.784,2.878,9.88,4.357,14.859-10.075.272-21.705.622-32.207.972.7.156,1.361.35,2.023.506h.156c.389.117.7.194,1.05.311.428.117.817.194,1.167.311h.039l28.279-.272c2.956,10,5.679,19.216,7.157,23.805.428,1.323,1.05,2.956,1.75,4.707l-38.12-.545,39.793,2.217,10.658,23.611,2.217-.194c0-.039-.039-.039-.039-.078l3.345-.194.583-.039h.272l20.266-1.05.467-.039C326.981,276.144,326.669,275.56,326.358,274.977Zm0,0a2.231,2.231,0,0,0-.156-.272c-.039-.039-.039-.117-.078-.194a.355.355,0,0,0-.117-.194l-.506.039-24.389,1.323c-3.851-7.429-7.741-15.092-10.075-20.032h25.789l-.467-1.011c0-.078-.039-.117-.078-.194a.3.3,0,0,1-.078-.194c-.039-.078-.078-.117-.117-.194-.078-.156-.117-.272-.194-.428l-.039-.117-.039-.039v-.039h-1.206l-24.739-.389c-.895-2.023-2.217-5.99-3.851-11.047s-3.5-11.2-5.368-17.543l21.511-.194,2.062-.039-.7-2.256s-.778.039-2.1.078h-.039c-3.656.078-11.63.272-21.277.545-1.439-4.823-2.878-9.647-4.162-14.2v-.039l-1.906-.545c1.4,4.784,2.878,9.88,4.357,14.859-10.075.272-21.705.622-32.207.972.7.156,1.361.35,2.023.506h.156c.389.117.7.194,1.05.311.428.117.817.194,1.167.311h.039l28.279-.272c2.956,10,5.679,19.216,7.157,23.805.428,1.323,1.05,2.956,1.75,4.707l-38.12-.545,39.793,2.217,10.658,23.611,2.217-.194c0-.039-.039-.039-.039-.078l3.345-.194.583-.039h.272l20.266-1.05.467-.039C326.981,276.144,326.669,275.56,326.358,274.977Zm0,0a2.231,2.231,0,0,0-.156-.272c-.039-.039-.039-.117-.078-.194a.355.355,0,0,0-.117-.194l-.506.039-24.389,1.323c-3.851-7.429-7.741-15.092-10.075-20.032h25.789l-.467-1.011c0-.078-.039-.117-.078-.194a.3.3,0,0,1-.078-.194c-.039-.078-.078-.117-.117-.194-.078-.156-.117-.272-.194-.428l-.039-.117-.039-.039v-.039h-1.206l-24.739-.389c-.895-2.023-2.217-5.99-3.851-11.047s-3.5-11.2-5.368-17.543l21.511-.194,2.062-.039-.7-2.256s-.778.039-2.1.078h-.039c-3.656.078-11.63.272-21.277.545-1.439-4.823-2.878-9.647-4.162-14.2v-.039l-1.906-.545c1.4,4.784,2.878,9.88,4.357,14.859-10.075.272-21.705.622-32.207.972.7.156,1.361.35,2.023.506h.156c.389.117.7.194,1.05.311.428.117.817.194,1.167.311h.039l28.279-.272c2.956,10,5.679,19.216,7.157,23.805.428,1.323,1.05,2.956,1.75,4.707l-38.12-.545,39.793,2.217,10.658,23.611,2.217-.194c0-.039-.039-.039-.039-.078l3.345-.194.583-.039h.272l20.266-1.05.467-.039C326.981,276.144,326.669,275.56,326.358,274.977Zm-20.11,2.8h.272l20.266-1.05.467-.039c-.272-.545-.583-1.128-.895-1.712a2.231,2.231,0,0,0-.156-.272c-.039-.039-.039-.117-.078-.194a.355.355,0,0,0-.117-.194l-.506.039-24.389,1.323c-3.851-7.429-7.741-15.092-10.075-20.032h25.789l-.467-1.011c0-.078-.039-.117-.078-.194a.3.3,0,0,1-.078-.194c-.039-.078-.078-.117-.117-.194-.078-.156-.117-.272-.194-.428l-.039-.117-.039-.039v-.039h-1.206l-24.739-.389c-.895-2.023-2.217-5.99-3.851-11.047s-3.5-11.2-5.368-17.543l21.511-.194,2.062-.039-.7-2.256s-.778.039-2.1.078h-.039c-3.656.078-11.63.272-21.277.545-1.439-4.823-2.878-9.647-4.162-14.2v-.039c-.661-2.256-1.284-4.4-1.867-6.457,9.413-.078,17.154-.194,21.16-.272,1.867-.039,2.917-.078,2.917-.078l-.389-1.089s-1.011,0-2.84.039c-4.045.039-11.942.156-21.2.272-.078-.233-.117-.467-.194-.7-2.451-8.674-4.2-14.859-4.2-14.859a9.479,9.479,0,0,0-1.05.039l-.7.039s1.789,6.224,4.279,14.859c.078.194.117.428.194.622-4.629.039-9.491.078-14.353.078h-.233c-2.412.039-4.746.039-7.118.039h-9.724l-.545-3L237.9,185.317l-2.84-.039,2.139,11.747.7,3.851c-7.857-.039-14.042-.156-16.57-.428-2.023-.194-6.924-.856-13.42-1.75-.583-4.123-1.128-7.818-1.595-10.7-.506-3.345-.856-5.64-.934-6.34a.681.681,0,0,1-.039-.194l-.739-.156-1.906-.467-.583-.156a.3.3,0,0,0,.039.117v.039c.039.233.156.856.311,1.789v.117c.194,1.089.467,2.606.817,4.357.506,3,1.167,6.885,1.906,11.2-9.647-1.361-22.172-3.19-34.152-4.979-1.634-11.942-2.8-21.588-2.8-21.588l-1.634-.467-1.011-.311-.739-.194s1.712,9.958,3.929,22.211c-18.049-2.645-34.347-5.1-36.953-5.485a.12.12,0,0,0-.078-.039h-.078a1.088,1.088,0,0,0-.233-.039l.778,1.595c.039.078.078.194.117.272l.039.078.039.039.039.078.194.428.156.311s16.609,2.8,36.486,5.64c.545,3,1.089,6.107,1.673,9.219.272,1.634.583,3.267.856,4.862.972,5.212,1.867,10.23,2.723,14.626-14.7-.117-26.84-.311-29.6-.35h-.583v1.595h1.206l29.134-.272q.642,3.442,1.167,6.185c.506,2.489.895,4.473,1.206,5.718.545,2.373,2.8,7.546,5.99,14l-27-.428h-.545l1.556,4.629H185.12c4.006,7.974,8.947,17.232,13.536,25.75l-27.851,1.556h-.311v2.178l1.245-.078h.078l28.006-1.517a8.775,8.775,0,0,1,.428.856c5.173,9.53,9.686,17.621,11.553,20.966.583,1.089.934,1.673.934,1.673l3.773-.389s-.35-.622-1.011-1.75c-2.023-3.462-6.846-11.786-12.331-21.511l21.744-1.206c3.54,8.324,7.079,15.948,9.219,20.5.35.817.7,1.517.972,2.1.7,1.439,1.089,2.256,1.089,2.256h4.551s-.622-.972-1.634-2.684q-.583-.934-1.284-2.1c-2.684-4.512-6.885-11.825-11.008-20.149l25.673-1.4,3.54,19.371.428,2.489.622,3.345,1.673-1.828-.311-1.712-.428-2.528-3.384-19.254,44.81-2.412c3.229,6.535,6.224,12.37,7.974,15.793,1.05,2.023,1.673,3.229,1.673,3.229l3.112-.311s-.661-1.245-1.712-3.306c-1.867-3.462-4.9-9.219-8.13-15.481,0-.039-.039-.039-.039-.078l3.345-.194ZM178.507,236.662a44.283,44.283,0,0,1-1.323-4.94c-.428-1.828-.817-3.929-1.245-6.224l33.8-.311c.389,2.373.739,4.707,1.089,6.885,1.05,6.729,1.828,12.331,2.139,15.442a28.508,28.508,0,0,0,.778,4.4l-28.162-.428A129.993,129.993,0,0,1,178.507,236.662Zm35.553,7.857c-.194-2.334-.739-6.846-1.478-12.408-.272-2.178-.583-4.512-.934-6.963l26.489-.272,4.123-.039,1.4,7.585,3.656,19.994-21.511-.35-10.541-.156A48.615,48.615,0,0,1,214.06,244.52Zm32.091-12.058-1.323-7.624,5.757-.078h.039l28.279-.272c2.956,10,5.679,19.216,7.157,23.805.428,1.323,1.05,2.956,1.75,4.707l-38.12-.545Zm26.217-30.535c.545,1.867,1.128,3.851,1.673,5.874,1.4,4.784,2.878,9.88,4.357,14.859-10.075.272-21.705.622-32.207.972-.506,0-1.05.039-1.556.039l-.078-.467-2.412-13.692-1.323-7.546h2.645c3.54.039,7.157.039,10.736.039C260.5,202,266.689,201.965,272.368,201.927Zm-50.84-.389c4.434.156,9.452.272,14.664.35h.117c.583.039,1.206.039,1.789.039l2.567,14.081,1.167,6.535.233,1.206c-1.245.039-2.451.117-3.618.156-3.267.117-6.3.233-9.024.311-4.784.194-11.008.311-17.854.389-.389-2.878-.817-5.874-1.245-8.908-.583-4.2-1.167-8.441-1.75-12.447-.156-.895-.272-1.789-.389-2.645C213.088,201.071,217.639,201.382,221.528,201.538ZM173.412,210.1c-.233-1.673-.506-3.384-.739-5.1-.428-2.956-.856-5.951-1.245-8.83,11.28,1.595,23.455,3.151,34.152,4.2.156.972.35,1.984.545,3,.622,3.812,1.284,7.857,1.945,11.9.545,3.112,1.05,6.263,1.556,9.335-10.775.078-22.95.039-33.841-.039C175.007,220.247,174.19,215.269,173.412,210.1Zm30.029,71.027-1.517.078c-4.707-8.363-9.841-17.582-14.12-25.556H214.76c.778,2.606,1.789,5.523,2.917,8.558,1.828,5.057,4.045,10.464,6.263,15.754Zm22.288-1.245A178.5,178.5,0,0,1,218.572,263c-.895-2.489-1.712-4.94-2.373-7.352h31.7l4.162,22.755Zm28.473-1.595-3.968-22.639H288.9c2.528,5.951,5.99,13.3,9.374,20.188Zm72.156-3.306a2.231,2.231,0,0,0-.156-.272c-.039-.039-.039-.117-.078-.194a.355.355,0,0,0-.117-.194l-.506.039-24.389,1.323c-3.851-7.429-7.741-15.092-10.075-20.032h25.789l-.467-1.011c0-.078-.039-.117-.078-.194a.3.3,0,0,1-.078-.194c-.039-.078-.078-.117-.117-.194-.078-.156-.117-.272-.194-.428l-.039-.117-.039-.039v-.039h-1.206l-24.739-.389c-.895-2.023-2.217-5.99-3.851-11.047s-3.5-11.2-5.368-17.543l21.511-.194,2.062-.039-.7-2.256s-.778.039-2.1.078h-.039c-3.656.078-11.63.272-21.277.545-1.439-4.823-2.878-9.647-4.162-14.2v-.039l-1.906-.545c1.4,4.784,2.878,9.88,4.357,14.859-10.075.272-21.705.622-32.207.972.7.156,1.361.35,2.023.506h.156c.389.117.7.194,1.05.311.428.117.817.194,1.167.311h.039l28.279-.272c2.956,10,5.679,19.216,7.157,23.805.428,1.323,1.05,2.956,1.75,4.707l-38.12-.545,39.793,2.217,10.658,23.611,2.217-.194c0-.039-.039-.039-.039-.078l3.345-.194.583-.039h.272l20.266-1.05.467-.039C326.981,276.144,326.669,275.56,326.358,274.977Zm0,0a2.231,2.231,0,0,0-.156-.272c-.039-.039-.039-.117-.078-.194a.355.355,0,0,0-.117-.194l-.506.039-24.389,1.323c-3.851-7.429-7.741-15.092-10.075-20.032h25.789l-.467-1.011c0-.078-.039-.117-.078-.194a.3.3,0,0,1-.078-.194c-.039-.078-.078-.117-.117-.194-.078-.156-.117-.272-.194-.428l-.039-.117-.039-.039v-.039h-1.206l-24.739-.389c-.895-2.023-2.217-5.99-3.851-11.047s-3.5-11.2-5.368-17.543l21.511-.194,2.062-.039-.7-2.256s-.778.039-2.1.078h-.039c-3.656.078-11.63.272-21.277.545-1.439-4.823-2.878-9.647-4.162-14.2v-.039l-1.906-.545c1.4,4.784,2.878,9.88,4.357,14.859-10.075.272-21.705.622-32.207.972.7.156,1.361.35,2.023.506h.156c.389.117.7.194,1.05.311.428.117.817.194,1.167.311h.039l28.279-.272c2.956,10,5.679,19.216,7.157,23.805.428,1.323,1.05,2.956,1.75,4.707l-38.12-.545,39.793,2.217,10.658,23.611,2.217-.194c0-.039-.039-.039-.039-.078l3.345-.194.583-.039h.272l20.266-1.05.467-.039C326.981,276.144,326.669,275.56,326.358,274.977Z" transform="translate(0 -19.04)" fill="#57110c"/>
        <path d="M291.022,184.795l5.576-4.408s3.371,30.774,14.224,58.238c10.508,26.591,27.038,55.745,27.038,55.745h-1.143s-18.184-31.156-28.513-54.611S291.022,184.795,291.022,184.795Z" transform="translate(0 -19.04)" fill="#57110c"/>
        <path d="M682.307,19.04l-.274.685c-3.747,9.185-44.235,108.487-73.619,163.506-30.846,57.671-52.37,91.716-52.37,91.716L336.695,294.369S329.2,280.979,321.249,264.8l-1.188-2.376.046-.046c2.651-.96,87.511-32.811,153.773-79.149C540.187,136.894,575.146,59.665,576.2,57.243l.046-.046L673.99,22.056l4.524-1.645L679.656,20l1.691-.594Z" transform="translate(0 -19.04)" fill="#57110c" opacity="0.3"/>
        <path d="M336.695,294.369,183.836,310s-1.371-2.239-3.7-6.443l-.274-1.691S207.416,283.127,226.472,251c19.056-32.08,18.37-65.622,18.37-65.622h.091c20.975.046,46.566-.594,49.765-.685,3.153,11.516,8.683,32.171,10.693,43.139,2.285,12.384,21.021,46.292,28.926,60.321Z" transform="translate(0 -19.04)" fill="#57110c" opacity="0.3"/>
        <path d="M123.949,172.7s9.985,34.555,23.123,69.4,34.844,72.831,34.844,72.831l154.8-18.565,226.2-13.424v-8h-6.855L336.717,294.369l-152.9,15.614s-19.469-39.591-31.75-68.151-26.6-73.1-26.6-73.1Z" transform="translate(0 -19.04)" fill="#57110c"/>
      </g>
      <polygon points="75.36 313.783 189.205 322.734 337.86 311.316 570.911 314.252 739.642 301.224 738.665 304.772 571.083 316.731 337.86 313.601 189.267 326.743 75.964 316.71 75.36 313.783" fill="#57110c" opacity="0.2"/>
      <polygon points="82.667 349.789 189.622 349.789 338.888 340.829 574.201 361.691 731.662 330.184 730.906 332.93 574.352 363.868 338.574 343.019 189.698 354.727 82.99 351.418 82.667 349.789" fill="#57110c" opacity="0.2"/>
      <polygon points="88.588 380.349 190.328 395.569 339.023 375.864 575.504 380.472 719.806 373.209 719.08 375.845 575.775 384.389 339.288 378.72 190.382 399.089 89.287 384.111 88.588 380.349" fill="#57110c" opacity="0.2"/>
      <polygon points="97.418 435.33 190.942 435.33 339.9 414.707 578.826 428.383 707.94 416.273 707.454 418.035 579.095 432.252 338.812 417.373 191.005 439.455 97.933 438.722 97.418 435.33" fill="#57110c" opacity="0.2"/>
      <polygon points="567.932 271.287 748.587 268.766 749.139 266.76 567.932 268.766 567.932 271.287" fill="#57110c" opacity="0.2"/>
      <polygon points="578.196 233.985 725.882 219.545 729.547 222.791 576.345 237.617 578.196 233.985" fill="#57110c" opacity="0.2"/>
      <polygon points="596.909 190.788 711.725 184.219 711.725 187.504 596.909 192.502 596.909 190.788" fill="#57110c" opacity="0.2"/>
      <polygon points="616.118 149.284 699.729 152.802 697.73 149.689 619.187 146.945 616.118 149.284" fill="#57110c" opacity="0.2"/>
      <polygon points="82.667 281.88 172.982 279.428 171.409 276.409 82.667 279.144 82.667 281.88" fill="#57110c" opacity="0.2"/>
      <polygon points="103.373 242.198 157.504 247.928 158.17 249.381 103.373 244.483 103.373 242.198" fill="#57110c" opacity="0.2"/>
      <polygon points="704.698 238.654 657.924 160.274 602.336 243.581 704.698 238.654" fill="#f47d4c"/>
      <polygon points="699.729 238.893 654.317 163.149 659.886 161.085 706.155 239.973 699.729 238.893" fill="#398296"/>
      <path d="M608.9,264.665s33.713-28.377,49.631-37.394,26.328-10.666,26.328-10.666l29.023,48.224Z" transform="translate(0 -19.04)" fill="#fff" opacity="0.53" style="mix-blend-mode: color-dodge"/>
      <polygon points="647.601 175.744 685.734 234.486 703.465 236.606 657.924 160.274 647.601 175.744" opacity="0.82" fill="url(#bc)"/>
      <path d="M656.8,208.928l-1.011-1.556.039,1.595.272,19.76c.856-.506,1.673-1.011,2.451-1.439.233-.117.467-.272.7-.389V208.812Zm0,0-1.011-1.556.039,1.595.272,19.76c.856-.506,1.673-1.011,2.451-1.439.233-.117.467-.272.7-.389V208.812Zm44.888,35.592-2.023-3.384h-.039L684.88,216.591l-5.212-8.635-1.673-2.762-20.071-33.335-22.95,35.786L633.5,209.94l-25.828,40.22-2.373,3.7-8.4,13.109,117-2.139Zm-42.438-62.314,14,23.261,1.634,2.684,5.718,9.491,3.7,6.146-2.8,3.773-6.729,9.063-5.6,7.507-2.84,3.812-7.079,9.53Zm2.334,77.562,9.374-12.253,2.956-3.851,2.917-3.851,6.729-8.83,2.84-3.7,8.6,14.314,2.062,3.384,6.068,10.113.35.545,1.245,2.062-4.9.233h-.078l-2.451.117-2.567.117-4.629.233-28.551,1.439Zm-9.258-72.078,2.684-4.318.428-.7v.389l.039,1.05v.039l.311,22.288v.934l.039,1.595.272,19.76.272,16.648.039,3.54.156,10.113-7-9.452-2.451-3.306-5.562-7.468-11.319-15.248,8.519-13.848,1.478-2.373,7.585-12.292,4.512-7.313Zm-46.094,74.723,5.679-9.18L614.2,249.5l14.2-22.989,10.775,14.042,4.668,6.068,2.528,3.267,7.9,10.23.039.078-42.593,2.139-5.6.272ZM656.8,208.928l-1.011-1.556.039,1.595.272,19.76c.856-.506,1.673-1.011,2.451-1.439.233-.117.467-.272.7-.389V208.812Zm0,0-1.011-1.556.039,1.595.272,19.76c.856-.506,1.673-1.011,2.451-1.439.233-.117.467-.272.7-.389V208.812Zm0,0-1.011-1.556.039,1.595.272,19.76c.856-.506,1.673-1.011,2.451-1.439.233-.117.467-.272.7-.389V208.812Z" transform="translate(0 -19.04)" fill="#963d2f"/>
      <polygon points="680.576 379.149 707.94 266.25 609.904 271.473 623.689 379.149 680.576 379.149" fill="#f47d4c"/>
      <polygon points="676.373 379.149 703.465 266.25 707.94 266.25 680.576 379.149 676.373 379.149" fill="#d66e33"/>
      <path d="M705.419,295.694a184.29,184.29,0,0,0-48.972,38.66c-23.154,25.8-33.766,55.959-33.766,55.959l1.008,7.875h56.887Z" transform="translate(0 -19.04)" fill="#fff" opacity="0.53" style="mix-blend-mode: color-dodge"/>
      <polygon points="754.281 254.384 775.607 258.136 754.583 463.545 746.284 466.498 754.281 254.384" fill="#b44430"/>
      <polygon points="754.281 254.384 746.284 258.136 740.869 464.847 746.284 466.498 754.281 254.384" fill="url(#bd)"/>
      <path d="M336.717,296.368l1.6,42.557s59.392-2.672,129.414,40.181c57.374,35.112,82.355,109.946,82.355,109.946l31.883,3.715-15.325-217.1Z" transform="translate(0 -19.04)" fill="#88171a" opacity="0.47"/>
      <polygon points="539.684 265.428 557.684 490.87 565.353 491.995 552.518 264.666 539.684 265.428" fill="url(#be)"/>
      <polygon points="552.518 264.666 562.922 263.904 567.475 255 571.298 489.078 565.353 491.995 552.518 264.666" fill="#b44430"/>
      <polygon points="77.842 462.513 63.591 293.925 75.36 285.385 84.994 463.389 77.842 462.513" fill="url(#bf)"/>
      <polygon points="84.994 463.389 88.64 461.849 82.667 289.603 75.36 285.385 84.994 463.389" fill="#db5430"/>
      <polygon points="399.362 404.044 388.105 301.224 487.702 285.385 475.524 407.852 399.362 404.044" fill="#963d2f"/>
      <polygon points="404.197 399.089 398.409 305.158 480.666 295.893 470.955 403.283 404.197 399.089" fill="#fcb44c"/>
      <polygon points="475.524 407.852 479.238 406.71 490.793 287.494 487.702 285.385 475.524 407.852" fill="#57110c"/>
      <polygon points="407.501 399.297 400.694 304.901 398.409 305.158 404.197 399.089 407.501 399.297" fill="#f79247"/>
      <path d="M404.2,418.129s7.541-23.606,29.533-49.5a230.044,230.044,0,0,1,45.8-41.093l-8.571,94.787Z" transform="translate(0 -19.04)" fill="#fff" opacity="0.53" style="mix-blend-mode: color-dodge"/>
      <polygon points="430.969 301.224 434.016 403.283 436.491 403.283 436.301 295.893 430.969 301.224" fill="#963d2f"/>
      <polygon points="398.409 331.594 479.238 338.163 479.238 342.447 398.409 333.403 398.409 331.594" fill="#963d2f"/>
      <rect x="400.694" y="371.96" width="75.021" height="2.571" fill="#963d2f"/>
      <polygon points="606.098 269.023 603.764 274.419 615.076 383.575 619.187 386.149 606.098 269.023" fill="#57110c"/>
      <polygon points="596.909 247.928 595.767 243.581 652.946 154.404 657.924 152.802 596.909 247.928" fill="#57110c"/>
      <polygon points="119.029 465.437 99.254 318.772 171.277 308.495 169.921 471.256 119.029 465.437" fill="#fbb77a"/>
      <polygon points="171.277 308.495 174.966 312.268 173.122 471.622 169.921 471.256 171.277 308.495" fill="#57110c"/>
      <polygon points="125.469 466.173 106.144 323.109 163.066 319.884 163.066 470.472 125.469 466.173" fill="url(#bg)"/>
      <polygon points="134.605 467.217 128.983 326.743 163.066 331.594 163.066 319.884 106.144 323.109 125.469 466.173 134.605 467.217" fill="#57110c" opacity="0.3"/>
      <polygon points="125.469 466.173 106.144 323.109 163.066 319.884 162.876 321.598 110.514 325.025 128.603 466.173 125.469 466.173" fill="#57110c"/>
      <path d="M189.012,329.305l12.277,169,12.9-1.725,52.648-18.129s-13.069-60.918,10.295-98.972c27.229-44.35,61.185-40.555,61.185-40.555l-1.6-42.557L187.146,314.306Z" transform="translate(0 -19.04)" fill="#88171a" opacity="0.47"/>
      <polygon points="203.292 292.687 205.974 479.266 214.19 477.542 217.71 290.958 203.292 292.687" fill="#b44430"/>
      <polygon points="194.864 293.697 203.292 292.687 205.974 479.266 201.289 479.266 194.864 293.697" fill="url(#bh)"/>
      <path d="M615.019,287.269l-.233.039h-.35l-8.324.739.194,1.75,4.512,40.415.311,2.684,4.357,39.131.039.428.272,2.256,2.528,22.677.389,3.462.467,4.357h63.948l2.023-8.285.7-2.956,3.423-14.12.389-1.556,2.412-9.919,2.217-9.18.622-2.606,7.313-30.185.817-3.306,8.4-34.775.545-2.1,1.906-7.935Zm-5.1,3.229,18.593-1.011h.506l29.446-1.556-.039,1.128-1.284,35.008-42.243,5.29h-.039Zm5.368,42.126-.233-1.712h.039l41.932-3.384-.078,2.1-.156,4.357-.895,24.194-.233,6.263-.078,2.062-8.441-.35h-.039l-12.758-.545H634.2l-14.742-.622Zm7.391,57.686-2.139-16.532-.272-2.256-.156-1.089-.467-3.656h.039l9.258.622h.039l4.2.311,4.59.311h.039l8.83.583h.078l8.752.622L654.5,395.56l-.078,2.645H623.693l-.156-1.089Zm58.852,3.89-.739,2.956v.039l-.233,1.011H656.6l.156-2.762,1.556-26.023,24.545,1.712,4.2.272Zm8.285-34.113h-.039l-1.712,7.157-.156.622-4.24-.194-25.206-1.05.039-.35.117-2.412.311-4.823,1.712-29.212.039-.467.117-2.139,2.684-.233h.039l30.535-2.451,4.434-.35-.622,2.528-4.629,19.138-1.906,7.974-.895,3.656ZM707.207,288.4l-1.789,7.313L699.855,318.7l-4.551.583L668,322.7h-.039l-6.924.856,2.023-34.541.078-1.361,21.277-1.128h.272l.078-.039h.194l18.476-.972,4.512-.233-.233.972Z" transform="translate(0 -19.04)" fill="#963d2f"/>
    </g>
  </g>
</svg>
