<svg viewBox="0 0 425 318.6" xmlns="http://www.w3.org/2000/svg" xmlns:xlink="http://www.w3.org/1999/xlink"><defs><radialGradient id="ai" cx="257.9" cy="325.8" r="61.8" gradientTransform="matrix(2.0643 .04242 -.03868 1.8813 -261.8 -300.9)" gradientUnits="userSpaceOnUse"><stop stop-color="#369" offset="0"/><stop offset="1"/></radialGradient><radialGradient id="aj" cx="257.9" cy="325.8" r="61.8" gradientTransform="matrix(2.0643 .04242 -.03868 1.8813 -11.1 -300.9)" gradientUnits="userSpaceOnUse"><stop stop-color="#980101" offset="0"/><stop offset="1"/></radialGradient><radialGradient id="f" cx="2653.3" cy="104.7" r="194.4" gradientTransform="matrix(-.05461 .45244 -.54207 -.06543 369.8 -980)" gradientUnits="userSpaceOnUse"><stop stop-color="#fff" offset="0"/><stop stop-color="#ccc" stop-opacity="0" offset="1"/></radialGradient><radialGradient id="p" cx="483.8" cy="62.8" r="16.4" gradientTransform="matrix(1.5104 -.50471 .3286 .98332 -267.5 241.5)" gradientUnits="userSpaceOnUse" xlink:href="#a"/><radialGradient id="q" cx="461.3" cy="58.6" r="11.7" gradientTransform="matrix(1 0 0 .67997 0 18.6)" gradientUnits="userSpaceOnUse" xlink:href="#a"/><radialGradient id="r" cx="501.2" cy="73.2" r="9.5" gradientTransform="matrix(.99276 -.12016 .16375 1.353 -8.3 33.6)" gradientUnits="userSpaceOnUse" xlink:href="#a"/><radialGradient id="s" cx="521.7" cy="80.2" r="11.7" gradientTransform="matrix(.97807 -.20829 .2336 1.0969 -7.3 99.7)" gradientUnits="userSpaceOnUse" xlink:href="#a"/><radialGradient id="t" cx="475.4" cy="69.4" r="10.4" gradientTransform="matrix(1 0 0 1.0531 0 -3.7)" gradientUnits="userSpaceOnUse" xlink:href="#a"/><radialGradient id="u" cx="487.3" cy="72" r="6.2" gradientTransform="matrix(1 0 0 1.1741 0 -12)" gradientUnits="userSpaceOnUse" xlink:href="#a"/><radialGradient id="v" cx="425" cy="74" r="12.6" gradientTransform="matrix(1.7231 .02191 -.01286 1.0116 -306.3 -10.1)" gradientUnits="userSpaceOnUse" xlink:href="#a"/><radialGradient id="w" cx="461.5" cy="77.5" r="10.5" gradientTransform="matrix(.99658 -.08261 .15722 1.8966 -10.6 -30.5)" gradientUnits="userSpaceOnUse" xlink:href="#a"/><radialGradient id="x" cx="533.4" cy="90.8" r="18.8" gradientUnits="userSpaceOnUse" xlink:href="#a"/><radialGradient id="y" cx="420.2" cy="71.3" r="5.3" gradientTransform="matrix(1 0 0 1.2579 0 -17.8)" gradientUnits="userSpaceOnUse" xlink:href="#a"/><radialGradient id="z" cx="501.8" cy="85.9" r="11.9" gradientUnits="userSpaceOnUse" xlink:href="#a"/><radialGradient id="A" cx="465.8" cy="85.8" r="8.8" gradientTransform="matrix(1.7955 -.04419 .01948 .79123 -372.2 37)" gradientUnits="userSpaceOnUse" xlink:href="#a"/><radialGradient id="B" cx="490.5" cy="79.5" r="5" gradientTransform="matrix(1 0 0 1.4646 0 -38.3)" gradientUnits="userSpaceOnUse" xlink:href="#a"/><radialGradient id="C" cx="546.4" cy="106" r="13" gradientTransform="matrix(1 0 0 1.2457 0 -24.7)" gradientUnits="userSpaceOnUse" xlink:href="#a"/><radialGradient id="D" cx="514.8" cy="88.6" r="5.7" gradientTransform="matrix(1 0 0 .70841 0 24.8)" gradientUnits="userSpaceOnUse" xlink:href="#a"/><radialGradient id="E" cx="432.3" cy="95.1" r="18" gradientTransform="matrix(.9939 -.11024 .12241 1.1036 -9 36)" gradientUnits="userSpaceOnUse" xlink:href="#a"/><radialGradient id="F" cx="413.3" cy="85.7" r="3.6" gradientTransform="matrix(.95655 -.29158 .90387 2.9652 -59.5 -46.2)" gradientUnits="userSpaceOnUse" xlink:href="#a"/><radialGradient id="G" cx="449.2" cy="83.2" r="2.4" gradientTransform="matrix(1 0 0 .84949 0 12.5)" gradientUnits="userSpaceOnUse" xlink:href="#a"/><radialGradient id="H" cx="481.4" cy="90.4" r="8.1" gradientTransform="matrix(-.02263 -.99974 2.3842 -.05396 276.8 576.5)" gradientUnits="userSpaceOnUse" xlink:href="#a"/><radialGradient id="I" cx="463.4" cy="88.7" r="3.6" gradientTransform="matrix(1 0 0 .89947 0 9)" gradientUnits="userSpaceOnUse" xlink:href="#a"/><radialGradient id="J" cx="410" cy="91.5" r="13.7" gradientTransform="matrix(1 0 0 .63697 0 32.6)" gradientUnits="userSpaceOnUse" xlink:href="#a"/><radialGradient id="K" cx="485" cy="98" r="11.3" gradientTransform="matrix(1 0 0 .85507 0 14.5)" gradientUnits="userSpaceOnUse" xlink:href="#a"/><radialGradient id="L" cx="528.1" cy="103.5" r="5.5" gradientTransform="matrix(1 0 0 1.5203 0 -53.9)" gradientUnits="userSpaceOnUse" xlink:href="#a"/><radialGradient id="M" cx="463.1" cy="94.7" r="6.1" gradientTransform="matrix(1 0 0 .677 0 31.2)" gradientUnits="userSpaceOnUse" xlink:href="#a"/><radialGradient id="N" cx="416.5" cy="99.3" r="5.3" gradientTransform="matrix(1 0 0 .7449 0 25.3)" gradientUnits="userSpaceOnUse" xlink:href="#a"/><radialGradient id="O" cx="401.6" cy="99.8" r="6.4" gradientTransform="matrix(1 0 0 .68718 0 31.2)" gradientUnits="userSpaceOnUse" xlink:href="#a"/><radialGradient id="P" cx="417.7" cy="-152.8" r="11.9" gradientTransform="matrix(1 0 0 .80775 0 -29.4)" gradientUnits="userSpaceOnUse" xlink:href="#a"/><radialGradient id="S" cx="359.1" cy="-132.4" r="8.4" gradientTransform="matrix(1 0 0 1.2317 0 30.7)" gradientUnits="userSpaceOnUse" xlink:href="#a"/><radialGradient id="T" cx="371.8" cy="-128.2" r="3.5" gradientTransform="matrix(1 0 0 1.8904 0 114.1)" gradientUnits="userSpaceOnUse" xlink:href="#a"/><linearGradient id="b"><stop stop-color="#eee" offset="0"/><stop offset="1"/></linearGradient><linearGradient id="d"><stop offset="0"/><stop stop-color="#980101" offset=".5"/><stop offset="1"/></linearGradient><linearGradient id="c"><stop offset="0"/><stop stop-color="#eee" offset="1"/></linearGradient><linearGradient id="ae" x1="595" x2="308.6" y1="365.2" y2="210.2" gradientUnits="userSpaceOnUse"><stop stop-color="#980101" offset="0"/><stop stop-color="#980101" stop-opacity="0" offset="1"/></linearGradient><linearGradient id="af" x1="170.7" x2="451.4" y1="365.9" y2="213.1" gradientUnits="userSpaceOnUse"><stop stop-color="#369" offset="0"/><stop stop-color="#369" stop-opacity="0" offset="1"/></linearGradient><linearGradient id="a"><stop stop-color="#d98c26" offset="0"/><stop stop-color="#f9f3d4" offset="1"/></linearGradient><linearGradient id="o" x1="369.4" x2="370.3" y1="787" y2="859.5" gradientTransform="matrix(.03885 -.0011 .0011 .03885 -34.8 729)" gradientUnits="userSpaceOnUse"><stop offset="0"/><stop stop-opacity="0" offset="1"/></linearGradient><linearGradient id="Q" x1="231.7" x2="343.7" gradientTransform="rotate(-1.6 27318.2 2164.3) scale(.09745)" gradientUnits="userSpaceOnUse"><stop stop-color="#f9f9f9" offset="0"/><stop stop-color="#fff" offset="1"/></linearGradient><linearGradient id="R" x1="370.7" x2="442.4" y1="-247.1" y2="-239.3" gradientTransform="rotate(-1.6 27318.2 2164.3) scale(.09745)" gradientUnits="userSpaceOnUse"><stop stop-color="#ececec" offset="0"/><stop stop-color="#999" offset="1"/></linearGradient><linearGradient id="V" x1="409.8" x2="404.1" y1="600.4" y2="596.6" gradientUnits="userSpaceOnUse"><stop stop-color="#036" offset="0"/><stop stop-color="#69c" offset="1"/></linearGradient><linearGradient id="W" x1="408.9" x2="421.5" y1="614.9" y2="603.6" gradientUnits="userSpaceOnUse"><stop stop-color="#036" offset="0"/><stop stop-color="#ace" offset="1"/></linearGradient><linearGradient id="Z" x1="400" x2="460" y1="677" y2="676.2" gradientUnits="userSpaceOnUse"><stop offset="0"/><stop stop-color="#eee" offset=".5"/><stop offset="1"/></linearGradient><linearGradient id="ac" x1="278.3" x2="122.9" y1="179" y2="442.9" gradientTransform="matrix(-1 0 0 1 771.8 0)" gradientUnits="userSpaceOnUse" xlink:href="#b"/><linearGradient id="ad" x1="278.3" x2="122.9" y1="179" y2="442.9" gradientUnits="userSpaceOnUse" xlink:href="#b"/><linearGradient id="ah" x1="377.1" x2="375.7" y1="268.1" y2="458.1" gradientUnits="userSpaceOnUse" xlink:href="#b"/><linearGradient id="g" x1="173.3" x2="90" y1="348" y2="274.6" gradientUnits="userSpaceOnUse" xlink:href="#c"/><linearGradient id="h" x1="129.5" x2="47.7" y1="423.1" y2="324.1" gradientUnits="userSpaceOnUse" xlink:href="#c"/><linearGradient id="i" x1="217.3" x2="169.8" y1="284.4" y2="217.2" gradientUnits="userSpaceOnUse" xlink:href="#c"/><linearGradient id="j" x1="247.9" x2="218.7" y1="259.5" y2="209.3" gradientUnits="userSpaceOnUse" xlink:href="#c"/><linearGradient id="k" x1="335.2" x2="317.8" y1="268.1" y2="186.3" gradientUnits="userSpaceOnUse" xlink:href="#c"/><linearGradient id="l" x1="405.3" x2="354.7" y1="226.2" y2="168.5" gradientUnits="userSpaceOnUse" xlink:href="#c"/><linearGradient id="m" x1="430.1" x2="367.8" y1="186.4" y2="123.1" gradientUnits="userSpaceOnUse" xlink:href="#c"/><linearGradient id="X" x1="425.6" x2="437.5" y1="626.6" y2="651.6" gradientUnits="userSpaceOnUse" xlink:href="#b"/><linearGradient id="Y" x1="396.7" x2="461.1" y1="648.6" y2="646.4" gradientUnits="userSpaceOnUse" xlink:href="#d"/><linearGradient id="aa" x1="406.4" x2="455.9" y1="697.5" y2="696.7" gradientUnits="userSpaceOnUse" xlink:href="#d"/><filter id="ab"><feGaussianBlur stdDeviation="4"/></filter><filter id="e"><feGaussianBlur stdDeviation="2.7"/></filter><filter id="U"><feGaussianBlur stdDeviation="1.7"/></filter><filter id="n"><feGaussianBlur stdDeviation="3.1"/></filter><filter id="ag" x="0" y="-.1" width="1" height="1.2"><feGaussianBlur stdDeviation="4.1"/></filter></defs><path d="M439.2 144.4c-.5 0-1.1.2-1.5 0-24.5.7-49 1.5-73.6 2.7-1.3 7.5-.9 15.5-2.2 23.1-2.6 18.1-7.1 37.9-21.5 50.3-13 11-31.1 12.4-47.5 12.1-28.5-.5-57.1-4-85.5-.2a138.1 138.1 0 0 0-75 34.9C99.2 297.4 79 338.6 63.1 379.9a752.8 752.8 0 0 0-12 35.5c6.5.8 13.7.2 20.4.4 41.7-.2 83.3-.2 125-.7 4-17 7.4-34.4 12.4-51.2 8-27 17.6-54.7 35.7-76.7 11.4-14.2 29-24 47.6-23.4 23 .6 44.8 9.3 67.6 11.6A48 48 0 0 0 398 264c14.9-13.4 22.2-32.8 28.2-51.3 6.6-22.2 10.8-45 13.7-68-.1-.2-.4-.3-.7-.3zm-6.8 6.2h1.4c-.8 2 0 5.4-1.7 7-1.2.3-2.9.2-2.1-1.5.7-1.6-.4-4.3 1-5.4l1.4-.1zm-61 1.8c1.7.1-.4 2.9.1 4 .6 2-1.6 2.1-3.1 1.8.6-1.7-1-6 2-5.8h1zM369 166c2.8-.2 1.1 3.6.9 5.2-.8 1-3.4 1-2.7-1 .1-1.3-.2-4.2 1.8-4.2zm60.5 0h1.6c-.8 1.7.6 6.3-2.5 6-2.4.1 0-3.3-.6-4.5-.2-1.3.5-1.5 1.5-1.5zm-2 13.8h.4c2-.2-.4 2.7 0 3.5.3 2-1.3 3-3.1 2.4.8-1.7.2-5.6 2.6-5.9zm-60.1.5c2.2-.2.3 3.3.3 4.6.1 1.5-2.7 1.9-3.2 1 1-1.5-.1-5.7 2.4-5.6h.5zm56.6 13.8c2.9.2.6 4.3-.3 5.5-.8 1-2.7.4-1.8-1 .6-1.3.3-4.3 2.1-4.5zm-60 0h.5c1.5.4-.5 3.2-.4 4.1 0 1.9-2.5 2.2-3.7 1.7 1-1.8 1-5.5 3.6-5.7zm57.1 13.8c1.8 0-.3 3.2-.3 4.2.2 1.6-4 2.8-3 .4.6-1.6.7-4.5 2.9-4.6h.4zm-62.4.5c1.1 0 1.5 1 .5 2-.5 2.3-3.2 3.7-5.1 2.5 1.1-1.5 1.8-4.3 4-4.4l.6-.1zm-8.6 13.2c1.6 0 2.2.7.3 2a7.8 7.8 0 0 1-8.4 3.4c-2.5 0 1.7-1.8 2-2.6 1.6-1.3 3.2-2.7 5.3-2.7l.8-.1zm66 .6c2.2-.2.1 2.6-.1 3.8-.8 1.8-1.2 5.3-4 4.5-2.1-.5 1.5-4.7 1.8-6.8.3-.8.9-1.5 1.9-1.4l.5-.1zM330.7 233c2.2 0 5-.2 7 .9-1.4 1.8-4.7 2.3-6.8 3.3-3-.6-6.7-.7-9.4-2 2.5-1.6 6.2-1.9 9.2-2.2zM228 235.4l10.8 3.6c-9.1.9-18.7 1.4-27.4-1.9 5.4-.9 11-1.1 16.6-1.7zm21.3.3c4.9 0 9.2 2.5 13.7 4-6.8.8-13.3-1.6-19.6-3.9l5.9-.1zm17.3.5c5.4.3 10.4 2.8 15.5 4.6-6.8.9-13-2.4-19.3-4.4l3.7-.2zm42.3.8c4.4 0 8.6 1.4 12.9 2.2-6.6 2.5-13.5 0-19.9-1.7 2.4-.1 4.7-.5 7-.5zm-25.7.2c5.2 1.1 10.5 2.5 15.6 4.2-5.4-.1-10.6-2.4-15.6-4.2zm-83.7 2a39 39 0 0 1 10.7 2.3 28 28 0 0 1-16.6-1.2c2-.4 3.9-1 5.9-1.2zm207 1.2c1.3.1 3.8.2 2 2-1.7 2-2.3 6-5.2 6.7-1.3 0-4-.5-1.9-2.2 1.6-2 2.7-5.4 5.2-6.5zm-226.7 4.5c2.2.3 6 1 7.3 2-3.3 2-7.1 2.6-10.5.8-2.4-.3-2.5-1.4-.2-1.9 1-.4 2.2-1 3.4-1zm-20 9.6a5 5 0 0 1 2.2.6c1 .4 5 .5 2.8 1.7-3.2 2.1-7 5-11 2.6-1.7-.3-1.6-1.3 0-2 2-1.2 3.7-2.9 6-2.9zm125.7.7a42 42 0 0 1 13.8 4c-5.8-.6-11.5-2.6-17.2-3.9l3.4-.1zm108.7 0c1.5.2 3.9.1 4.8 1-2.5 2.2-5 6.7-8.9 4.8-.7-.4-4.3-.7-2-1.8 2.2-1 3.7-3.6 6.1-4zm-92.9 1.2h.3c10.8 1 20.6 6 30.7 9.6a222.4 222.4 0 0 1-31-9.6zm-30.3.4c3.6 0 7 1.5 10.5 2.3-5.3.9-10.9 3-16 .3-4.8-.6.6-1.5 2.6-2.1l2.9-.5zm68.8 7 .4.1c9 .8 17.4 4.2 25.7 7.4-8.6.5-16.3-4.1-24.3-6.7-.1 0-2.4-.8-1.8-.8zm-194.7.8c2 0 3.5 1 5.3 1.6-3.5 2.3-6.5 6.1-10.5 7.4-1.5-.4-4.4-.6-5-1.7 3.2-2.5 6.1-6.4 10.2-7.3zm232.4 0a24 24 0 0 1 7.9 2.2c-3.7 2.3-8.3 3.4-12.3 1.3-4.3-1.3-7-2.5-1-2.9 1.8-.2 3.6-.7 5.4-.7zm-126.4.3c2.6.4 5.1 1.2 7.7 1.9-3.3 1.6-6.6 5.5-10.4 3-1.1-.4-5-.9-2.2-2.1 1.6-1 3.2-2.2 5-2.8zm-13 11c.7 0 1.5.2 2.3.8h.2c1.3.5 5 .8 2.4 2.7-1.7 2.2-4 5-7.2 3.5-1.3-.3-5-1-2.8-3 1.5-1.5 3-3.8 5.1-4zm-109.7 3.4 1.3.3.5.2h.1c2.3.2 3.8 1.2 1.2 2.8l-7 7.5c-4.2-.8-7.3-2-2.6-5 2.3-1.6 3.7-6 6.5-5.8zm97.9 9.7c2 .8 6.3 1 6.9 2.4-1.8 2.1-3 5.8-5.5 6.8-2-.5-4.5-1-6.2-2 1.3-2.6 3-5.1 4.8-7.2zm-112.9 7c2.3 1 7.3.9 3.6 3.9-1.7 2-3.5 6-6.8 4.2-1.1-.3-3.6-.8-1.7-2.2 1.5-2 2.7-4.6 5-5.8zm103.6 7.4c2.5.5 5 1 7.4 1.8a96.7 96.7 0 0 1-5.1 10.3c-2.1-.8-5-1-6.7-2.3a50 50 0 0 1 4.4-9.8zm-115 9.4c1.5.3 4.4 1 4.3 2.1-2.4 3.4-4.2 7.7-7 10.6-1.6-.3-4-.6-4.7-1.9 2.2-3.6 3.7-8.1 7-10.7l.4-.1zm106.3 9.7c2 .5 5 .4 6.6 2a30 30 0 0 1-4.7 11c-2-.5-4.8-1-6.2-2.3a41 41 0 0 1 4.3-10.7zM90 333.2c.3 0 .7 0 1 .2l.6.2.3.1c5 .5-.6 5.3-1.1 8-1 3.5-2.8 4.9-6 2.7-2.1-.6.8-3.3.9-4.5 1.6-1.8 2-6.5 4.3-6.7zm109.4 12.2c2.4.5 4.7 1.4 7 2.2-1.6 3.8-2.3 8.5-4.2 12.1-2.2-.7-4.6-1.4-6.6-2.4 1.2-4 2-8.5 3.8-12zm-120.2 9.3c1.4.2 3.8.3 4.5 1.4-1.5 3.4-2.8 7.7-5 10.3-1.4-.7-5.4-.7-3.7-3 1.4-2.8 2.2-6.4 4.1-8.7h.1zm113.1 14.1c2.2.5 4.8 1 6.5 2.3-1 4.4-1.6 9.3-3.8 13.2-2 .1-4.6-.3-6.3-1.2a89 89 0 0 1 3.6-14.3zm-122 7.6c1.4.3 4.8 0 3.7 2.3-.8 2.5-1.5 5.6-3 7.6-1.4-.2-3.8-.1-4.5-1.1 1.3-2.8 1.7-6.5 3.7-8.8h.1zm116.2 16.1h.4c1.9.3 4.5 0 6 1a45.2 45.2 0 0 1-2.7 12l-6.5-1c.7-4 1.4-8.3 2.8-12zm-122.7 3.8c1.3.2 4.3.2 3 2.4l-2.9 8.5c-1.3-.3-4 .8-5-.2 1.6-3.4 1.8-7.9 4.3-10.5l.6-.2z" filter="url(#e)" opacity=".5" transform="translate(-40.2 -129.3)"/><path d="M428.8 129.8h-1.5c-24.6.7-49.1 1.4-73.6 2.6-1.4 7.5-1 15.5-2.2 23.1-2.6 18.2-7.2 38-21.6 50.3-13 11-31 12.5-47.5 12.1-28.5-.5-57-3.9-85.5-.2a138.2 138.2 0 0 0-75 35c-33.1 30-53.5 71.3-69.2 112.6a752.2 752.2 0 0 0-12 35.5c6.5.7 13.6 0 20.4.3 41.6-.1 83.3-.1 124.9-.7 4-17 7.5-34.3 12.5-51.2 8-27 17.6-54.6 35.6-76.6 11.4-14.3 29-24 47.7-23.5 23 .6 44.7 9.4 67.5 11.6a48 48 0 0 0 38.3-11.4c14.8-13.3 22.1-32.8 28.1-51.3 6.6-22.2 10.8-45 13.7-68 0-.2-.4-.3-.7-.2zm-6.9 6.1h1.5c-.8 2.1 0 5.4-1.7 7-1.2.3-3 .2-2.2-1.5.7-1.6-.4-4.3 1-5.4h1.4zm-61 1.8c1.7.2-.3 2.9.2 4 .6 2-1.7 2.1-3.2 1.9.6-1.8-1-6 2.1-5.8l1-.1zm55.4.5-.4 4A229 229 0 0 1 408 182c-1 2.1-4 0-5.8.4-14.4-1.4-29.4-2.3-43.4-4.2 3.3-13 5-26.4 5.8-39.8l51.7-.3zm-57.6 13.2c2.7-.2 1 3.7.8 5.2-.7 1-3.4 1-2.7-.9.2-1.4-.2-4.3 1.9-4.3zm60.4 0h1.7c-.9 1.8.5 6.3-2.6 6-2.4.1 0-3.3-.5-4.5-.3-1.3.5-1.5 1.4-1.5zm-2 13.8h.5c1.9-.1-.4 2.7 0 3.6.2 2-1.4 2.8-3.2 2.3.9-1.7.2-5.6 2.7-5.8zm-60.1.5c2.2-.2.4 3.4.4 4.6 0 1.6-2.8 2-3.3 1 1-1.5 0-5.6 2.4-5.5l.5-.1zm56.7 13.9c2.8.1.5 4.2-.4 5.5-.7.8-2.6.4-1.8-1.1.6-1.2.3-4.2 2.2-4.4zm-60 0h.5c1.5.3-.5 3.2-.5 4 0 2-2.5 2.3-3.7 1.7 1-1.8 1.1-5.5 3.7-5.7zm4.2 3h.1c16 2.4 32.3 3.4 48.2 6.4a104.7 104.7 0 0 1-14.3 33.6c-2 2.5-3.6 6.2-6.3 7.3-15.8-5-32.1-9.5-47.5-14.8 6.1-7.5 12.8-14.9 16.3-24.2 1.5-2.6 1.6-6 3.4-8.2h.1zm52.8 10.7c1.9.1-.2 3.2-.3 4.3.2 1.5-3.9 2.7-2.9.4.5-1.6.6-4.5 2.8-4.7h.4zm-62.4.5c1.2 0 1.6 1 .6 2-.6 2.3-3.3 3.7-5.2 2.6 1.1-1.6 1.8-4.4 4.1-4.5h.5zm-8.6 13.2c1.6 0 2.2.8.4 2a7.8 7.8 0 0 1-8.4 3.4c-2.5 0 1.7-1.8 2-2.5 1.5-1.3 3.2-2.8 5.3-2.8h.7zm66.1.6c2.2-.1 0 2.6-.2 3.8-.7 1.9-1.1 5.3-4 4.5-2-.5 1.5-4.7 1.8-6.8.4-.8 1-1.5 2-1.4h.4zm-71 10.2c3-.1 6.2 2 9.3 2.6l14.6 4.6c8 2.7 16.9 5 24.3 8a49.4 49.4 0 0 1-24 13.3 120 120 0 0 1-47.6-5.7c-14-4.1-28.2-7.8-41.7-13 .6-1 3.1.4 4.2.2 20.4 2.4 42.6 1.8 60.2-9.9h.6zm-14.6.5c2.2 0 5-.2 7 .9-1.5 1.9-4.7 2.3-6.9 3.3-3-.6-6.7-.7-9.4-2 2.5-1.6 6.2-1.8 9.3-2.2zm-102.7 2.5 10.8 3.5c-9 .9-18.7 1.4-27.4-1.8 5.5-1 11-1.2 16.6-1.7zm21.3.2c5 0 9.2 2.6 13.7 4-6.8.8-13.3-1.6-19.6-3.8l6-.2zm17.3.6c5.4.2 10.5 2.8 15.5 4.6-6.8.8-13-2.4-19.3-4.5l3.8-.1zm42.4.7c4.3 0 8.6 1.4 12.8 2.3-6.5 2.4-13.4-.2-19.8-1.8 2.3-.1 4.6-.5 7-.5zm-25.8.2c5.3 1.1 10.6 2.5 15.6 4.2-5.4 0-10.6-2.4-15.6-4.2zm-83.7 2a39 39 0 0 1 10.8 2.3c-5.5 1.6-11.3.6-16.7-1.2 2-.4 4-1 5.9-1.2zm207 1.2c1.4.2 3.8.3 2 2-1.6 2.1-2.3 6-5.2 6.7-1.3 0-4-.5-1.9-2.2 1.6-2 2.7-5.4 5.2-6.5zm-144.2 1.5 22.6 5.3c7.6 2 15.7 3.4 22.8 6.1-12.7-1.4-26.2-3.8-38.8.4-5.8 1.1-11.4 5-17.4 2.8-17.4-3.3-35-5.8-52.3-9.5-1.5-.6 1.6-1 2-1.2 20-3.9 40.7-3 61-3.9zm-82.5 3c2.3.3 6 1 7.3 2-3.2 2-7 2.6-10.5.9-2.3-.3-2.5-1.4-.2-2 1.1-.4 2.2-.9 3.4-1zm10.8 4 31.2 4.8c10.4 1.7 21.8 3.1 31.6 5.2-15.5 10.9-31.3 22.8-40.5 39.8-10 .1-20.5-1.5-30.8-2.2-18.1-1.6-36.3-3-54.4-5 13.1-14.5 29.5-26 46.5-35.7 5.3-2.7 10.7-5.7 16.4-7zm-30.9 5.6a5 5 0 0 1 2.4.6c.8.4 4.9.6 2.8 1.8-3.3 2-7.1 5-11 2.5-1.8-.3-1.7-1.3 0-2 2-1.2 3.7-2.8 5.8-2.9zm125.8.7c4.8.2 9.8 2.3 13.9 4-5.9-.6-11.5-2.6-17.3-3.8l3.5-.2zm108.8 0c1.4.2 3.8.2 4.7 1-2.4 2.2-5 6.7-8.9 4.8-.6-.4-4.2-.7-2-1.8 2.3-1 3.7-3.6 6.2-4zm-93 1.2h.3c10.8 1 20.7 6 30.8 9.6-10.6-2.5-21-5.6-31-9.6zm-30.3.5c3.6 0 7 1.4 10.5 2.2-5.3.9-10.8 3-16 .3-4.7-.6.6-1.5 2.6-2 1-.3 2-.5 3-.5zm68.8 7h.5c9 .9 17.3 4.2 25.6 7.4-8.6.5-16.3-4.1-24.3-6.6 0-.1-2.3-1-1.8-.9zm-194.7.7c2 0 3.6 1 5.3 1.6-3.5 2.3-6.5 6.2-10.4 7.4-1.5-.4-4.5-.6-5-1.6 3-2.6 6-6.5 10.1-7.4zm232.4 0c2.6.2 6.2 1.2 7.9 2.2-3.7 2.3-8.3 3.4-12.3 1.3-4.3-1.3-7-2.5-.9-2.8 1.8-.3 3.6-.7 5.4-.7zm-126.3.3c2.6.4 5 1.3 7.6 2-3.2 1.5-6.5 5.5-10.4 3-1.1-.5-5-1-2.1-2.2 1.5-1 3-2.2 4.9-2.8zm-13 11.1c.7 0 1.4.2 2.3.7h.1c1.3.5 5 .8 2.4 2.7-1.7 2.2-4 5-7.2 3.5-1.3-.3-5-1-2.8-2.9 1.6-1.6 3-3.9 5.2-4zm-109.8 3.3c.4 0 .9.1 1.3.4h.6v.1c2.4.3 3.8 1.2 1.3 2.8l-7.1 7.6c-4.1-.9-7.2-2-2.5-5.2 2.2-1.5 3.7-5.8 6.4-5.7zm98 9.7c2 .8 6.2 1 6.8 2.4-1.8 2.1-3 5.8-5.5 6.9-2-.5-4.5-1-6.2-2.1 1.3-2.6 3-5.1 4.8-7.2zm-101.5 7a4435.3 4435.3 0 0 1 85.7 7.1c-3.5 10-8.8 19.6-12.4 29.7a196.5 196.5 0 0 0-6.6 19c-32.9-.5-65.8-1.7-98.6-2.8 9-18.6 19.3-36.7 31.9-53zm-11.4 0c2.3 1 7.2 1 3.5 3.9-1.7 2-3.4 6-6.7 4.3-1.2-.3-3.7-.9-1.8-2.3 1.5-2 2.8-4.6 5-5.8zm103.6 7.4c2.4.5 5 1 7.3 1.9a96.7 96.7 0 0 1-5 10.2c-2.2-.8-5-1-6.7-2.3a50 50 0 0 1 4.4-9.7zm-115 9.4c1.4.3 4.3 1 4.3 2.1-2.5 3.4-4.3 7.7-7.1 10.6-1.5-.3-3.9-.6-4.7-1.9 2.3-3.5 3.7-8 7.1-10.7h.4zm106.2 9.7c2.1.5 5 .4 6.6 2a30 30 0 0 1-4.7 11c-2-.5-4.8-.9-6.2-2.3 1-3.6 2.3-7.7 4.3-10.7zM79.6 318.5c.4 0 .7 0 1.1.2l.6.2.3.1c5 .5-.7 5.3-1.2 8-.9 3.6-2.8 4.9-6 2.7-2-.6.8-3.2 1-4.5 1.5-1.7 2-6.4 4.2-6.7zM189 330.7c2.4.5 4.7 1.4 7 2.2-1.6 3.9-2.3 8.6-4.2 12.1-2.2-.7-4.5-1.4-6.5-2.4 1.1-3.9 2-8.5 3.7-12zM69 340c1.3.3 3.7.3 4.4 1.4-1.5 3.4-2.7 7.7-5 10.4-1.3-.8-5.4-.8-3.6-3.1 1.3-2.8 2.1-6.4 4-8.7h.2zm9.9.9h2.9c32.3 1 64.9 2 97 3.7-3.3 15.4-7.5 30.8-9.5 46.5.1 3.1-4.1 1.7-6 2.3-34.7.8-69.5 1-104.3 1 6.1-18 11.4-36.3 19.9-53.5zM182 354.2c2.2.5 4.8 1 6.5 2.2-1.1 4.4-1.6 9.4-3.9 13.2-2 .1-4.5-.3-6.2-1.2a89 89 0 0 1 3.6-14.2zm-122 7.5c1.4.3 4.8 0 3.7 2.4-.8 2.5-1.6 5.5-3 7.5-1.4-.2-3.8 0-4.6-1.1 1.3-2.8 1.8-6.5 3.7-8.8h.2zm116.2 16.1h.4c1.8.3 4.5 0 5.9 1.1a45.2 45.2 0 0 1-2.7 11.9l-6.5-1c.8-4 1.5-8.3 2.9-12zm-122.7 3.8c1.3.2 4.3.3 3 2.4l-3 8.5c-1.3-.3-4 .8-4.9-.2 1.6-3.3 1.7-7.9 4.3-10.5l.6-.2z" fill="url(#f)" transform="translate(-40.2 -129.3)"/><path d="M388.5.4c-.5 0-1.1.2-1.4 0-24.6.7-49.1 1.5-73.7 2.7-1.3 7.5-.9 15.4-2.2 23-2.6 18.2-7.1 38-21.5 50.4-13 11-31.1 12.4-47.5 12-28.5-.5-57.1-3.8-85.5-.1a138.2 138.2 0 0 0-75 34.9c-33.2 30.1-53.5 71.3-69.2 112.6A752.8 752.8 0 0 0 .4 271.4c6.5.8 13.7.1 20.5.3 41.6-.1 83.3 0 124.9-.6 4-17 7.5-34.4 12.5-51.2 8-27 17.5-54.7 35.6-76.7 11.4-14.2 29-24 47.7-23.5 23 .6 44.7 9.4 67.5 11.7a48 48 0 0 0 38.2-11.5c15-13.3 22.2-32.7 28.2-51.3 6.6-22.1 10.8-45 13.7-67.9-.1-.2-.4-.3-.7-.3zm-6.8 6.2h1.4c-.8 2 0 5.4-1.6 7-1.3.3-3 .2-2.2-1.5.7-1.6-.4-4.3 1-5.4l1.4-.1zm-61 1.7c1.7.2-.4 3 .1 4 .6 2.1-1.6 2.2-3 2 .5-1.8-1-6.1 2-5.9h.9zm-2.2 13.8c2.7-.2 1 3.6.8 5.1-.8 1.2-3.4 1.1-2.7-.8.2-1.4-.2-4.3 1.9-4.3zm60.4 0h1.7c-1 1.7.5 6.2-2.6 5.9-2.4.2 0-3.2-.5-4.4-.3-1.4.5-1.6 1.4-1.6zm-2 13.8h.5c1.9-.2-.5 2.7 0 3.5.2 2-1.4 2.9-3.2 2.4.8-1.8.2-5.6 2.6-5.9zm-60.1.4c2.2-.1.3 3.4.3 4.7.1 1.5-2.7 1.9-3.2 1 1-1.6 0-5.7 2.4-5.6h.5zm56.6 14c2.9 0 .6 4.1-.3 5.4-.7.9-2.6.4-1.8-1 .6-1.3.3-4.3 2.1-4.5zm-60 0h.6c1.5.2-.6 3.1-.5 4 0 1.9-2.5 2.2-3.7 1.7 1-1.8 1.1-5.5 3.6-5.8zM370.5 64c1.8 0-.3 3.2-.3 4.2.2 1.6-3.9 2.7-2.9.4.5-1.6.6-4.5 2.8-4.6h.4zm-62.4.5c1.2-.1 1.5 1 .5 2-.5 2.2-3.2 3.6-5.1 2.5 1.1-1.6 1.8-4.3 4-4.5h.6zm-8.6 13.2c1.6 0 2.2.7.4 2a7.8 7.8 0 0 1-8.4 3.3c-2.5.1 1.7-1.7 2-2.5 1.5-1.3 3.1-2.8 5.3-2.7l.7-.1zm66 .6c2.3-.2.1 2.5-.1 3.7-.7 2-1.2 5.3-4 4.5-2.1-.4 1.5-4.7 1.8-6.7.3-.9.9-1.5 1.9-1.5h.5zM280 89c2.2 0 5-.2 7 .8-1.4 2-4.6 2.4-6.8 3.4-3-.6-6.7-.8-9.4-2 2.5-1.7 6.2-1.9 9.2-2.2zm-102.6 2.4L188 95c-9.1.8-18.7 1.4-27.4-1.9 5.4-1 11-1.1 16.6-1.7zm21.3.2c4.9 0 9.2 2.6 13.7 4-6.8.8-13.3-1.5-19.6-3.8l6-.2zm17.3.6c5.4.3 10.5 2.8 15.5 4.6-6.8.8-13-2.4-19.3-4.4l3.8-.2zm42.4.8c4.3 0 8.5 1.4 12.8 2.2-6.6 2.4-13.5-.1-19.9-1.7 2.4-.2 4.7-.5 7-.5zm-25.8.2a129 129 0 0 1 15.6 4.2c-5.4-.1-10.6-2.5-15.6-4.2zM148.8 95a39 39 0 0 1 10.8 2.4 28 28 0 0 1-16.7-1.2c2-.4 3.9-1 5.9-1.2zm207 1.3c1.4.1 3.8.2 2 2-1.7 2-2.3 6-5.2 6.7-1.3 0-4-.5-1.9-2.2 1.6-2 2.7-5.4 5.2-6.5zm-226.7 4.4c2.2.4 6 1 7.3 2.1-3.2 2-7 2.6-10.5.8-2.4-.3-2.5-1.4-.2-2 1.1-.3 2.2-.8 3.4-.9zm-20 9.7c.6 0 1.4.1 2.3.5.8.4 4.8.6 2.7 1.8-3.2 2.1-7 5-11 2.6-1.7-.3-1.6-1.4 0-2 2-1.3 3.8-2.9 6-3zm125.7.7c4.8.2 9.7 2.2 13.8 4-5.8-.7-11.5-2.7-17.2-3.9l3.4-.1zm108.8 0c1.4.1 3.8.1 4.7 1-2.5 2.1-5 6.6-8.9 4.7-.6-.3-4.2-.6-2-1.7 2.2-1 3.7-3.6 6.2-4zm-93 1.1h.3c10.8 1.1 20.6 6 30.7 9.7a222.4 222.4 0 0 1-31-9.7zm-30.3.5c3.6 0 7 1.4 10.5 2.2-5.3 1-10.9 3-16 .4-4.8-.6.6-1.6 2.6-2.1 1-.2 2-.5 3-.5zm68.8 7h.5c9 .9 17.3 4.2 25.6 7.4-8.6.6-16.3-4-24.3-6.6-.1 0-2.4-.9-1.8-.8zm-194.7.7c2 .1 3.6 1 5.3 1.6-3.5 2.4-6.5 6.2-10.5 7.4-1.4-.4-4.4-.6-5-1.6 3.2-2.6 6.1-6.4 10.2-7.4zm232.4 0c2.6.3 6.2 1.3 7.9 2.2-3.7 2.4-8.3 3.4-12.3 1.3-4.3-1.3-7-2.4-.9-2.8 1.8-.3 3.5-.7 5.3-.7zm-126.3.3c2.5.4 5 1.3 7.6 2-3.3 1.5-6.5 5.5-10.4 3-1.1-.5-5-.9-2.1-2.2 1.5-1 3-2.1 4.9-2.8zm-13 11.2c.7 0 1.4.1 2.2.6h.2c1.3.6 5 .9 2.4 2.8-1.7 2.2-4 5-7.2 3.4-1.3-.3-5-1-2.8-2.8 1.6-1.7 3-4 5.2-4zm-109.8 3.3 1.3.3.6.1c2.4.3 3.8 1.2 1.3 2.8-2.3 2.6-4.8 5.1-7.2 7.6-4-.8-7.2-2-2.5-5.1 2.3-1.5 3.7-5.9 6.5-5.7zm98 9.7c2 .8 6.2 1 6.8 2.4-1.8 2-3 5.7-5.5 6.8-2-.5-4.5-1-6.2-2 1.3-2.6 3-5.2 4.8-7.2zm-113 7c2.4 1 7.3.9 3.6 3.8-1.7 2-3.5 6-6.7 4.3-1.2-.3-3.7-.8-1.8-2.3 1.5-2 2.7-4.5 5-5.8zm103.7 7.4c2.4.4 5 1 7.3 1.8a96.7 96.7 0 0 1-5 10.3c-2.2-.8-5.1-1-6.7-2.3a50 50 0 0 1 4.4-9.8zm-115 9.4c1.4.2 4.3 1 4.2 2-2.4 3.4-4.2 7.7-7 10.7-1.5-.4-3.9-.6-4.7-2 2.3-3.5 3.7-8 7.1-10.7h.4zm106.2 9.7c2 .5 5 .3 6.6 2a30 30 0 0 1-4.7 11c-2-.5-4.8-1-6.2-2.4a41 41 0 0 1 4.3-10.6zM39.4 189.2c.4 0 .7 0 1 .2l.7.1.3.2c5 .5-.7 5.3-1.2 8-.9 3.5-2.8 4.9-6 2.7-2-.7.8-3.3 1-4.6 1.5-1.7 2-6.4 4.2-6.6zm109.4 12.1c2.4.6 4.7 1.5 7 2.2-1.6 4-2.3 8.6-4.2 12.2-2.2-.8-4.5-1.4-6.5-2.4 1.1-4 2-8.6 3.7-12zm-120.2 9.3c1.4.3 3.8.3 4.5 1.5-1.5 3.3-2.8 7.6-5 10.3-1.3-.8-5.4-.7-3.7-3 1.4-2.9 2.2-6.4 4.1-8.7h.2zm113.2 14.2c2.1.5 4.7 1 6.5 2.3-1.1 4.4-1.6 9.3-3.9 13.2a13 13 0 0 1-6.2-1.2c.8-4.8 2-9.7 3.5-14.3zm-122 7.5c1.4.3 4.8.1 3.7 2.4-.9 2.5-1.6 5.5-3 7.6-1.4-.3-3.9-.1-4.6-1.2 1.3-2.7 1.8-6.4 3.7-8.7h.2zm116.1 16.2h.5c1.8.2 4.4 0 5.9 1a45.2 45.2 0 0 1-2.7 12l-6.5-1c.8-4 1.5-8.3 2.8-12zm-122.6 3.8c1.3.1 4.3.2 3 2.3l-3 8.5c-1.3-.2-4 .9-4.9-.1 1.6-3.4 1.7-8 4.3-10.6l.6-.1z" fill="#fff"/><path d="M388.5.4c-.5 0-1.1.2-1.4 0-24.6.7-49.1 1.5-73.7 2.7-1.3 7.5-.9 15.4-2.2 23-2.6 18.2-7.1 38-21.5 50.4-13 11-31 12.4-47.5 12-28.5-.5-57.1-3.8-85.5-.1a138.2 138.2 0 0 0-75 34.9c-33.2 30.1-53.5 71.3-69.2 112.6A752.2 752.2 0 0 0 .4 271.4c6.6.8 13.7.1 20.5.4 41.6-.2 83.3-.2 124.9-.7 4-17 7.5-34.4 12.5-51.2 8-27 17.6-54.7 35.6-76.7 11.4-14.2 29-24 47.7-23.4 23 .5 44.7 9.3 67.5 11.6a48 48 0 0 0 38.3-11.5c14.8-13.3 22-32.7 28.1-51.3 6.6-22.1 10.8-45 13.7-67.9-.1-.2-.4-.3-.7-.3zm-6.8 6.2h1.4c-.8 2 0 5.4-1.6 7-1.3.3-3 .2-2.2-1.5.7-1.6-.4-4.3 1-5.4l1.4-.1zm-61 1.7c1.7.2-.3 3 .1 4 .6 2.1-1.6 2.2-3 2 .5-1.8-1-6.1 2-5.9h.9zm55.4.5-.4 4a229 229 0 0 1-7.9 40c-1 2-4 0-5.9.4-14.4-1.4-29.4-2.4-43.3-4.3 3.3-13 5-26.4 5.7-39.8l51.8-.3zm-57.6 13.3c2.7-.2 1 3.6.8 5.1-.8 1.1-3.4 1.1-2.7-.8.2-1.4-.2-4.3 1.9-4.3zm60.4 0h1.7c-1 1.7.5 6.3-2.6 5.9-2.4.2 0-3.2-.5-4.4-.3-1.3.5-1.5 1.4-1.5zm-2 13.8h.5c1.9-.2-.5 2.7 0 3.5.2 2-1.4 2.9-3.2 2.4.8-1.7.2-5.6 2.6-5.9zm-60.1.4c2.2-.1.4 3.4.3 4.7.2 1.5-2.7 1.9-3.2 1 1-1.5 0-5.7 2.4-5.6h.5zm56.6 14c2.9 0 .6 4.2-.3 5.4-.7.9-2.6.4-1.8-1 .6-1.3.3-4.3 2.1-4.5zm-60 0h.6c1.5.3-.6 3.1-.5 4 0 1.9-2.5 2.2-3.7 1.7 1-1.8 1.1-5.5 3.6-5.8zm4.3 3h.1c16 2.3 32.3 3.3 48.2 6.4a105 105 0 0 1-14.3 33.6c-2 2.4-3.7 6.1-6.3 7.3-15.8-5-32.2-9.5-47.5-14.8 6.1-7.5 12.8-15 16.3-24.3 1.5-2.5 1.5-6 3.4-8.2h.1zM370.5 64c1.8 0-.3 3.2-.3 4.2.2 1.6-3.9 2.7-2.9.4.5-1.6.6-4.5 2.8-4.6h.4zm-62.4.5c1.2-.1 1.5 1 .6 2-.6 2.3-3.3 3.7-5.2 2.5 1.1-1.5 1.8-4.3 4.1-4.4l.5-.1zm-8.6 13.2c1.6 0 2.2.7.4 2a7.8 7.8 0 0 1-8.4 3.4c-2.5 0 1.7-1.8 2-2.6 1.5-1.3 3.1-2.8 5.3-2.7l.7-.1zm66.1.6c2.2-.2 0 2.6-.2 3.8-.7 1.8-1.2 5.2-4 4.5-2-.5 1.5-4.7 1.8-6.8.3-.9 1-1.5 1.9-1.5h.5zm-71.1 10.2c3-.1 6.3 2 9.4 2.6l14.6 4.6c8 2.6 16.8 4.9 24.2 8a49.4 49.4 0 0 1-24 13.2 120 120 0 0 1-47.5-5.7c-14-4-28.3-7.8-41.8-13 .7-.9 3.2.5 4.3.3 20.4 2.4 42.6 1.7 60.2-10h.6zm-14.6.5c2.2 0 5-.2 7 .8-1.4 2-4.6 2.4-6.8 3.4-3-.6-6.7-.7-9.4-2 2.5-1.7 6.2-1.9 9.2-2.2zm-102.6 2.4L188 95c-9.1.8-18.7 1.4-27.4-1.9 5.5-1 11-1.1 16.6-1.7zm21.3.3c4.9 0 9.2 2.5 13.7 4-6.8.8-13.3-1.6-19.6-3.9l6-.1zm17.3.5c5.4.3 10.5 2.8 15.5 4.6-6.8.9-13-2.4-19.3-4.4l3.8-.2zm42.4.8c4.3 0 8.5 1.4 12.8 2.2-6.5 2.5-13.5-.1-19.9-1.7 2.4-.2 4.7-.5 7-.5zm-25.8.2c5.2 1 10.6 2.4 15.6 4.2-5.4-.1-10.6-2.5-15.6-4.2zM148.8 95a39 39 0 0 1 10.8 2.4c-5.5 1.6-11.4.6-16.7-1.2 2-.4 3.9-1 5.9-1.2zm207 1.3c1.3.1 3.8.2 2 2-1.7 2-2.3 6-5.2 6.7-1.3 0-4-.5-1.9-2.2 1.6-2 2.7-5.4 5.2-6.5zm-144.2 1.5 22.6 5.3c7.5 2 15.7 3.3 22.8 6-12.7-1.3-26.3-3.8-38.8.5-5.8 1-11.4 4.9-17.4 2.7-17.4-3.2-35-5.7-52.3-9.4-1.5-.6 1.5-1 2-1.2 20-4 40.7-3 61-4zm-82.5 3c2.2.3 6 .9 7.3 2-3.2 2-7 2.6-10.5.8-2.4-.3-2.5-1.4-.2-2 1.1-.3 2.2-.8 3.4-.9zm10.8 3.9 31.2 4.9c10.4 1.7 21.8 3.1 31.6 5.1-15.5 10.9-31.3 22.8-40.5 39.9-10 0-20.6-1.6-30.8-2.2-18.1-1.7-36.3-3.1-54.4-5.1 13-14.4 29.5-26 46.5-35.6 5.2-2.7 10.7-5.7 16.4-7zm-30.9 5.7c.7 0 1.5.1 2.4.6.8.4 4.8.5 2.7 1.7-3.2 2.1-7 5-11 2.6-1.7-.3-1.6-1.4 0-2 2.1-1.3 3.8-2.9 6-3zm125.8.7c4.8.2 9.7 2.2 13.8 4-5.8-.7-11.5-2.6-17.2-3.9l3.4-.1zm108.8 0c1.4.1 3.8.1 4.7 1-2.5 2.1-5 6.7-8.9 4.7-.6-.3-4.2-.6-2-1.7 2.2-1 3.7-3.6 6.2-4zm-93 1.1h.3c10.8 1.1 20.6 6 30.7 9.7-10.5-2.5-21-5.7-31-9.7zm-30.3.5c3.6 0 7 1.5 10.5 2.3-5.3.8-10.9 2.9-16 .3-4.8-.6.6-1.6 2.6-2.1l3-.5zm68.8 7h.5c9 .9 17.3 4.3 25.6 7.4-8.6.6-16.3-4-24.3-6.6-.1 0-2.4-.9-1.8-.8zm-194.7.7c2 .1 3.6 1 5.3 1.7-3.5 2.3-6.5 6.1-10.5 7.3-1.5-.4-4.4-.6-5-1.6 3.2-2.5 6.1-6.4 10.2-7.4zm232.4 0c2.6.3 6.2 1.3 7.9 2.2-3.7 2.4-8.3 3.4-12.3 1.3-4.3-1.3-7-2.4-.9-2.8 1.8-.3 3.5-.7 5.3-.7zm-126.3.3c2.5.5 5 1.3 7.6 2-3.3 1.6-6.5 5.5-10.4 3-1.1-.5-5-.9-2.2-2.1 1.6-1.1 3.2-2.2 5-2.9zm-13 11.2c.7 0 1.4.1 2.2.7h.2c1.3.5 5 .8 2.4 2.7-1.7 2.2-4 5-7.2 3.4-1.3-.3-5-1-2.8-2.8 1.6-1.7 3-4 5.2-4zm-109.8 3.3 1.3.3.5.1h.1c2.3.3 3.8 1.2 1.3 2.9l-7.2 7.5c-4-.8-7.2-2-2.5-5.1 2.3-1.5 3.7-5.8 6.5-5.7zm97.9 9.7c2 .8 6.3 1 7 2.4-2 2-3 5.7-5.6 6.8-2-.5-4.5-1-6.2-2 1.3-2.6 3-5.2 4.8-7.2zm-101.5 6.9a4435.3 4435.3 0 0 1 85.8 7.2c-3.5 10-8.8 19.5-12.4 29.6a196.5 196.5 0 0 0-6.6 19c-32.9-.4-65.8-1.6-98.6-2.8A306 306 0 0 1 74 152zm-11.4.1c2.4 1 7.3.9 3.6 3.8-1.7 2-3.5 6.1-6.8 4.3-1.1-.3-3.6-.8-1.7-2.3 1.5-2 2.7-4.5 5-5.8zm103.7 7.4c2.4.5 4.9 1 7.3 1.8a96.7 96.7 0 0 1-5 10.3c-2.2-.8-5.1-1-6.7-2.3a50 50 0 0 1 4.4-9.8zm-115 9.4c1.4.2 4.3 1 4.2 2-2.4 3.4-4.2 7.7-7 10.7-1.5-.4-4-.6-4.7-2 2.3-3.5 3.7-8 7-10.7h.5zm106.2 9.7c2 .5 5 .4 6.6 2a30 30 0 0 1-4.7 11c-2-.5-4.8-1-6.2-2.3 1-3.6 2.3-7.7 4.3-10.7zM39.4 189.2c.3 0 .7 0 1 .2l.6.2h.4c4.9.6-.7 5.4-1.2 8-1 3.6-2.8 5-6 2.8-2.1-.7.8-3.3 1-4.6 1.5-1.7 2-6.4 4.2-6.6zm109.4 12.2c2.4.5 4.7 1.4 7 2.1-1.6 4-2.3 8.6-4.2 12.2-2.2-.7-4.6-1.4-6.6-2.4 1.2-4 2.1-8.5 3.8-12zm-120.2 9.3c1.4.2 3.8.3 4.5 1.4-1.5 3.4-2.8 7.7-5 10.3-1.4-.7-5.4-.7-3.7-3 1.4-2.9 2.2-6.4 4.1-8.7h.1zm10 .9h2.8c32.4 1 65 2 97.1 3.6-3.4 15.5-7.6 30.8-9.6 46.6.2 3.1-4 1.7-5.9 2.2-34.8.9-69.6 1-104.3 1 6.1-18 11.4-36.3 19.8-53.4zm103.1 13.2c2.2.5 4.8 1 6.6 2.3-1.1 4.4-1.6 9.3-4 13.2-1.9.1-4.4-.3-6.1-1.2a90 90 0 0 1 3.5-14.3zm-122 7.5h.1c1.3.3 4.7.1 3.6 2.4-.8 2.5-1.5 5.5-3 7.6-1.4-.3-3.8-.1-4.5-1.1 1.3-2.8 1.7-6.5 3.7-8.8h.2zM136 248.5h.5c1.8.2 4.4 0 5.9 1a45.2 45.2 0 0 1-2.7 12l-6.5-1c.7-4 1.4-8.3 2.8-12zm-122.6 3.8c1.3.1 4.2.2 3 2.3l-3 8.5c-1.3-.2-4 .9-5-.1 1.7-3.4 1.8-7.9 4.4-10.6l.6-.1z"/><path d="M115 282c-12 15.7-22 32.7-30.5 50.4-.4 1.9 3.1.5 4.1 1 30.5 1.2 61 2.2 91.5 3a392.6 392.6 0 0 1 18.3-45.5c1.3-2.6-3.2-1.3-4.5-2a5008 5008 0 0 0-78.9-6.8z" fill="url(#g)" transform="translate(-40.2 -129.3)"/><path d="M80.5 341.7c-3 1.6-3.5 5.9-5.2 8.7-5.8 13.9-10.5 28.3-15.2 42.6 3.6 1 8.1.2 12 .5 32 0 64-.3 96-1 2.1-15.1 5.8-30.2 9.2-45.1 1.2-2.3-1-2.5-2.7-2.3-31.4-1.3-62.8-2.6-94.1-3.4z" fill="url(#h)" transform="translate(-40.2 -129.3)"/><path d="M176.6 236c-17.5 7-33 18.1-47.5 30-3.6 3.4-7.8 6.8-10.4 10.6 27.3 1.7 54.6 5 82 6.8 3.4-1.9 4.6-6.4 7.2-9.2 8.7-12.1 21-20.8 32.9-29.5-5.4-1.6-12-2-17.7-3.1l-43.1-6.7-3.5 1.2z" fill="url(#i)" transform="translate(-40.2 -129.3)"/><path d="M231.2 228.5c-13.3.5-26.6.7-39.7 3.3 3 1.6 7.8 1.6 11.6 2.5 14.1 2.4 28.2 5.3 42.4 7.2 9.4-1.7 18.3-6 28-5.6 1.7-.3 16.7 1 16.7 1l-9.7-2.2c-10.2-2-20.2-5-30.4-6.7l-19 .5z" fill="url(#j)" transform="translate(-40.2 -129.3)"/><path d="M335 218.8c-5.7 2.7-11.3 6.2-17.7 7.7-12.7 4-26 3.1-39.1 3 1.8 1.6 5.8 1.9 8.4 3 21.7 6.3 43.6 14.8 66.6 13.3 10.5.3 20.2-5.2 27.8-12 .7-1.7-3-1.3-3.8-2.1-14-4.4-28-9-42.1-12.9z" fill="url(#k)" transform="translate(-40.2 -129.3)"/><path d="M358.7 183.8c-2.7 2.2-2.5 6.3-4.3 9.2-3.7 8.2-9.1 15.1-15.1 21.6 8.2 3.2 17.5 5.5 26.2 8.3 6.8 2 13.6 4.4 20.5 6 5-5 8.2-11.8 11.5-18 3-7 6.4-14 8-21.4-7.2-1.6-15.1-2-22.6-3-8-1-16.1-2-24.2-2.8z" fill="url(#l)" transform="translate(-40.2 -129.3)"/><path d="M389.8 139c-8.2.2-16.7-.4-24.8.9 0 12.6-2.6 25.2-5 37.5 1.9 1.4 5 .4 7.2 1 13 1 26.2 3 39.4 3.1 2.6-2.1 2.1-6.4 3.3-9.5 2.5-10.8 4.6-22 5.3-33h-25.4z" fill="url(#m)" transform="translate(-40.2 -129.3)"/><path d="M482.6 308.2c-3.9.8-3.9 6.5-8.1 7.3-3.7 1.1-7.8 1.2-10.7 4.3-.3-5.6-7.3-3-10.1-1.1-3.5 2.8-1.2 8.3-5.1 11-2.4 4.6-3.9-3.6-7.7-2.6-5 .2-4.2 6-5.2 9.4-1.2 3.3-4.6 5.6-8.1 4.4-4.7-.3-8.3 2.5-10.5 6.3-4.4 4.6-.2 12-.2 17.6 6.7 42.3 14 84.4 21.4 126.6-3.1 3.3-8.1 6.2-10 10 24.2 3.5 48.5 7.5 72.9 10.2 7.6-2.8 16-6.9 23.3-9-2.5 3.4-.8 9.7 4.2 9 4.5-.4 10.2.7 14-2 2.4-4.8-1.7-9.5-4.6-13 4-1.4 9.8-.2 12.7-3.3.8-4 4.5-8.6 1.2-12.7-3.3-4.8-9.4-1.4-13.9-1.8-2.9-2.7.3-8-.1-11.4 4.8-32.8 9.5-65.7 14.8-98.4.4-4.3 5.8-9 1-12.8-3.7-3.7-4.2-9.4-9-12.6-5.8-7-17.2-9.2-19.4-19-3.5-2.8-7.4 2.6-10.1 4.3-2.4-5.5-9.3-7.2-11.7-12.3-1.5-6.6-10.2-3.6-14.6-6-1.8-1.4-4-2.8-6.4-2.4z" filter="url(#n)" opacity=".5" transform="translate(-138.7 -221.2)"/><path d="M-27 760.1s9.1 1.5 10 1.3c.6 0 5.9-2.4 5.9-2.4l-14.4-.2z" fill="url(#o)" transform="translate(485.1 -5430.4) scale(7.5078)"/><path d="M339.2 83h.5c.3 0 .7.1 1 .3 1.4.5 2.6 1.5 2.7 2.1.3 1.4 4.3 2.2 8.7 1.8 3.6-.4 6 1.4 6.8 5.2.4 1.9 1.2 2.7 3.9 4 2 1 4.2 2.8 5.7 4.9l2.3 3.2 2-2c3.8-4 4.6-4.4 6.2-4.1 2.2.3 3.2 2 2.8 4.7-.2 1.6 0 2.3 1 2.4.7.2 2 1.3 2.7 2.5a5.3 5.3 0 0 0 4.1 2.8c2 .3 3 1 3.5 2.2.4 1.1 1.4 1.9 2.8 2.1 1.5.3 3 1.5 5 4.3 1.6 2.2 3.4 4.5 4 5.1s1.3 1.9 1.3 2.8c0 1.1.8 2.4 2.2 3.3 3 2.1 3.6 4.2 1.9 7.7-.8 1.5-1.8 3.1-2.3 3.5-.4.3-.5.7-.5 1.1l-5.4-.6-12-2.2-46-1-53-1.7-7.2 1.4-5.5.5-5.4-2.2c0-.8-.5-1.8-1.5-3.3-1.7-2.6-1.9-3.5-1.3-7.1.5-3.5.8-4.2 2-4.4 1 0 1.7-.7 1.8-1.4.3-2.3 2.9-4.6 4.7-4.3 1 .2 1.9 0 2-.5.5-1 3.5-.7 5.2.5.9.6 1.7 0 3.9-2.7 2.4-3 2.6-3.6 1.9-5-1.3-2-.8-3.8 1.8-5.7 2.9-2.1 5.2-1.7 7 1.3l1.5 2.4 1.7-1.7c2.8-2.6 3.8-4.7 3.2-7.1-.7-2.6 1-4.3 5.8-6 4.4-1.5 5.6-1.1 5.8 1.6l.2 2.2 2.8-2.7c2-2 3-2.5 4.2-2 2 1 5.9-.4 6.8-2.3.3-.9 1-1.5 1.3-1.4s.8-.6 1-1.4c.2-2 2-3.2 4-3.2h.4z"/><path d="M476.5 38.6a3.2 3.2 0 0 0-1.6.1c-2.7 1-3.5 3.3-1 2.7 1.2-.2 2.5 1 4 3.8 2.8 5.2 1 6-4.3 2.2-3.6-2.6-4-2.8-5-1.3-2 3.9 1.9 7 7.4 5.8 2.1-.5 2.1-.5-.1 1-1.7 1-2 1.7-1.2 2.3.6.4.8 1.2.4 1.6s.7 1.2 2.5 1.6 4.3 1.1 5.6 1.8c1.8.8 2 .7 1-.4-.6-.8-.8-1.4-.2-1.3s-.5-1.2-2.3-2.8c-2.1-1.8-3-3.3-2.5-4 .7-.8 1-.8 1.1.3.1.7.8 1.4 1.4 1.6s2.3 1.5 3.5 3c1.2 1.6 3 2.7 3.9 2.5 1.2-.3 1.4 0 .8 1.1-1.1 2 .1 2.2 2.1.4 1.2-1 1.4-1.9.8-3.8-.3-1.4-.4-2.7 0-3s.6.7.8 2c.3 3.2 2.4 2.3 2.2-1 0-1.3.1-1.7.3-1 .4 1.9 2.3 2.4 4 1 .9-.6 1-1.8.7-4.3-.6-3.8-2.2-4.7-4.4-2.2-1.2 1.5-1.3 1.4-.5-.7 1-2.2.7-2.4-2.3-2.2-1.8 0-4.9-.3-6.9-.8-2.8-.7-3.7-.4-4 1-.4 1.5-.6 1.3-.9-.7-.5-3-2.6-5.5-4.8-6.2l-.5-.1z" fill="url(#p)" transform="rotate(-1.6 2339.4 393) scale(.73163)"/><path d="M462.8 50.2a34.8 34.8 0 0 0-2.1-.1c-4.6-.3-5.7.2-7.8 2.7-3.1 3.9-3.2 4.4-.7 6.2 1.8 1.3 1.7 1.3-1.2.8-1.7-.3-3.5-.1-4 .4s-.3 1 .2 1.2.6 1 0 2.2c-1.1 2.8 1.3 3.2 4.2.8 1.3-1 3.5-2.3 5-2.8s2.8-1.6 2.7-2.4c0-1.9 3-6.2 4.2-6 .5.2.5.7 0 1.2s-.5 1.9-.1 3c.4 1.3.8 1.6 1.4.8.5-.6 2-.9 3.4-.6 3 .6 3-1.2.1-4.7a6.2 6.2 0 0 0-3.6-2.4l-1.7-.3z" fill="url(#q)" transform="rotate(-1.6 2339.4 393) scale(.73163)"/><path d="M316.4 93c-.3 0-.5.5-.6 1.2-.3 1.9-1.7 2.7-1.8 1 0-1-.4-1-2.6-.4-3.5 1-3.7 3-.3 3 1.7 0 3.1.5 4 1.5 1.3 1.2 1.8 1.3 3 .7 2-1.2 1.9-2.6-.2-3-1.5-.2-1.8-.5-1.2-1.7.4-.8.3-1.7 0-2l-.2-.2h-.1z" fill="#f9f3d4"/><path d="M503 57a9.2 9.2 0 0 0-4.7.4c-2.3 1-2.7 1.6-1.8 2.6.9.9.9 1.1 0 1-1.5-.3-2.4 3.6-1 4.9.5.5 1.5.5 2.2 0s2-.9 2.8-.7c1 .3.6.6-.9 1-1.3.2-2.4 1-2.6 1.7s.6 2.3 1.7 3.7c2 2.8 1.8 2.7 5.7 1.9 3.1-.7 4.2-2.8 2.3-4.2-.6-.5-.3-.6.8-.2 1.3.4 2.1 0 2.7-1.8.4-1.3 1.4-2.2 2.1-2 2 .3 2-1.2.2-3.8-1.3-2-4.4-3.5-7.6-4.2l-1.9-.4z" fill="url(#r)" transform="rotate(-1.6 2339.4 393) scale(.73163)"/><path d="M529.7 61.6c-1-.2-2 .6-4.5 2.9-2.1 2-3.5 3.7-3 3.8 1.2.2 5 6.7 4.9 8-.1.6-1.2-.7-2.5-2.9s-3-4-4-4.3-3.5-1-5.4-1.8c-3.3-1.3-3.6-1.2-4 1.3-.3 1.4 0 3.8.6 5.2s.6 2.7.1 2.6-1-1.3-1.2-2.6c-.2-1.5-.7-2.1-1.4-1.6-1.7 1.3-.8 4 2 6 8.3 6 15.6 4.3 17-3.9.3-1.3 1-2.5 1.6-2.8 2-.9 2.6-7.7.8-9.3-.3-.3-.6-.5-1-.6z" fill="url(#s)" transform="rotate(-1.6 2339.4 393) scale(.73163)"/><path d="M472.3 58.4c-.7 0-.9.6-.3 2 .8 1.8.8 1.9-.1.5-1.4-2-6.6-3.2-6.9-1.7 0 .6 1 1.4 2.4 1.6 1.8.4 2.6 1.3 2.7 3 0 1.8.7 2.3 3.4 2.5 1.8.1 3 .6 2.7 1s-1.3.6-2 .5c-2.6-.5-1.8 1.3 1.9 4.2a25.3 25.3 0 0 1 5.4 6.1c1.4 2.4 2 2.8 2.2 1.7.2-1-.1-2.4-.6-3.3-.8-1.3-.8-1.5.4-1 .8.4 1.6-.3 2.1-1.8.9-2.6-.6-3.6-2-1.2-.5.8-1.4 1.4-2 1.2-.9-.1-1-.4-.1-.8 2.2-1.1 2.9-3.7 2-7.8-.8-3.3-1.6-4.2-4.4-5-3.2-1-3.3-1-2 1.2 1.2 2.2 1.2 2.4-.8 3.3-1.3.6-2.3.5-2.6-.3-.2-.6.4-1 1.2-.8 2.1.4 2.3-1.5.2-3.3a8.5 8.5 0 0 0-2.5-1.7 1.6 1.6 0 0 0-.3 0z" fill="url(#t)" transform="rotate(-1.6 2339.4 393) scale(.73163)"/><path d="M492.3 61.5c-.1 0-.2.4-.2 1.4 0 1.2-1.3 3-2.7 4-3 1.9-3.5 6.6-.9 7.1.9.2 1.2-.3 1-1.2-.4-.8.4-.4 1.7.9s2.4 2.4 2.6 2.3h3.1c2.4 0 2.7-.2 2-1.7a4.5 4.5 0 0 0-2.7-2.2c-1.3-.2-1.6-.8-.9-2 .6-1 .3-2-.6-3a8.4 8.4 0 0 1-2-3.8 6.7 6.7 0 0 0-.4-1.8z" fill="url(#u)" transform="rotate(-1.6 2339.4 393) scale(.73163)"/><path d="M441 57c-1.6-.4-4.6 2.4-4.3 4.3.2 1.5 0 1.5-1.2-.1s-1.3-1.6-1 .2c.4 2.9-1.5 5.6-3.7 5.1-1-.2-2.2.3-2.6 1.1-.6 1-.2 1.4 1.2 1.1 1.9-.3 1.9-.3-.2.9-1.2.7-1.9 1.3-1.4 1.4s-.4.9-1.8 1.7l-2.6 1.5 3 3.1c4.5 4.5 10.8 6.3 14.3 4.3 1.5-1 3-1.4 3.4-1 .9.9 5-4.2 4.4-5.3-.3-.5-1.6 0-2.8 1.2-2.6 2.5-3.4.6-1.2-3.3 1-1.9 1-3.9-.4-9-1-3.6-2.2-6.7-2.8-7l-.3-.2z" fill="url(#v)" transform="rotate(-1.6 2339.4 393) scale(.73163)"/><path d="M462.9 60.2c-.9 0-1.6.5-3 1.8-1.7 1.4-2.8 3-2.6 3.6s-1 1.8-2.5 2.7c-4 2.3-5.4 10-2.7 14 2.2 3.4 2.7 3.6 3.8 1.5.5-.8.2-2.1-.8-3.2-1-.9-1.6-2.1-1.5-2.6s1.1 0 2.3 1.3 2.6 2 3.1 1.8 1.2.1 1.5.8c.6 1.9 2.6.6 2.3-1.4a3.9 3.9 0 0 1 1.1-3c1-.9 1.2-1.9.7-2.9-1-2.1-.1-7.6 1.1-7.3.6 0 .7.6.2 1.1s-.4 1 .2 1.2.5 1.2 0 2.5c-1 2.2-.9 2.2 2.3 0l3.3-2.5-1.8-3c-1-1.8-3-4-4.5-5.1a7 7 0 0 0-2.2-1.3h-.3z" fill="url(#w)" transform="rotate(-1.6 2339.4 393) scale(.73163)"/><path d="M313 100.3c.6.1.8.6.4 1.3-.3.6-.8.9-1.2.6-.9-.9-.4-2 .8-1.9zm30.5 2.7c.5.1.4.4-.3.8-1.6.7-1.8.7-1.1-.2.3-.4 1-.6 1.4-.6zm-15.6.1c.2 0 .5.2.8.7.6.7 1 1.3 1 1.5s-.6.2-1.2.1-1-.8-.9-1.5c0-.5.2-.8.3-.8z"/><path d="M324.2 103c-.4 0-1.3.5-2.1 1.3s-1.5 1.8-1.5 2.5c0 .9.5.8 2-.3 1.9-1.4 2.7-3.3 1.6-3.5z" fill="#f9f3d4"/><path d="M533.9 71.9h-.6c-3.5-.3-5.3 3.8-3 6.8 1.4 1.7 1.4 1.8 0 1-1.2-.8-2.4 0-4.8 3a20.6 20.6 0 0 1-5.6 5.1c-2.7 1.2-3.3 3.9-1.8 7.6 1.1 2.7 1 2.8-1 3-2.5.2-3.5 4.4-1.3 5.3.7.3.8.2.3-.3s-.8-1.2-.7-1.7c.1-.6.9-.5 1.9.4 2.9 2.6 3.7 2.1 4.5-2.4.6-3.3 1.3-4.5 3.2-5.1 1.4-.5 2-1.2 1.4-1.6-.6-.3-.8-1.2-.3-2s.3-1.7-.2-2.2c-.6-.6-1.1.2-1.5 2-.3 2.2-.7 2.6-1.3 1.6-1.6-2.5.3-5.3 3.2-4.9 1.5.3 3.3 0 4.1-.5s3.3-.8 5.5-.7l4 .2-3.4.4c-5.5.8-8.8 2.6-8.4 4.8.1 1.2.5 1.5.9.7 1-2 2.3-1.2 1.8 1-.4 1.4.1 1.8 3 2.1 2 .2 4 1 4.2 1.7.2.7-.4 1.1-1.7.8-3-.5-6.7 3.2-6 6 .4 1.1 1.2 1.9 1.7 1.6s1.6.4 2.3 1.5c2.3 3.7 9 3.5 9.7-.3 0-.7 1.8-2.8 3.9-4.8 4-3.7 5.4-8.4 3.5-11-.7-1-3-1.6-6.5-1.9-3.5-.2-4.8-.6-3.8-1.1 2.2-1.1-1.7-5.2-4.8-5-1.4.2-2.3-.3-2.1-1 0-.6.7-1 1.4-.7 1.7.8 3.2-5.7 1.7-7.7a5.6 5.6 0 0 0-2.9-1.6l-.6-.1z" fill="url(#x)" transform="rotate(-1.6 2339.4 393) scale(.73163)"/><path d="m312.7 104.4.8.8c.6.7 1.1 1.5 1 1.6 0 .7-.5.2-1.3-1.3l-.5-1.1z"/><path d="M418.2 62.4c-1.4-.3-7 4.2-5.8 4.6l1.8.7 2.4 1c1.3.4 1.3.5-.2 1.2-1.3.6-1.4.8-.4 1 .8.2.3.9-1.2 1.8-2.5 1.5-2.5 1.7-.8 2.5 1 .5 3.3.4 5.3-.2 2.9-.9 3.5-1.5 3.4-4-.1-3.1-2.8-8.3-4.5-8.7z" fill="url(#y)" transform="rotate(-1.6 2339.4 393) scale(.73163)"/><path d="M388 112.1c-.9 0-1.7 0-2 .4-.3.4 0 1.7.6 3 1.5 3 2.7 3.2 2.7.5 0-1.6 0-1.8.8-1 1 1.4 1.8 1 1.4-1-.1-.8-1.9-1.7-3.4-1.9z" fill="#f9f3d4"/><path d="M505.6 74.6c-.6-.2-3.3 1-6 2.4l-6.2 3.3c-.8.3-2 2-2.8 4-1.2 3-1 3.4 1.5 5.6a9.2 9.2 0 0 0 6.2 2.4c5 0 5.2-1.3.2-2.4-2.4-.5-4.8-1.7-5.3-2.6-.7-1.3-.6-1.4.5-.8.7.5 2.3.3 3.4-.4 1.8-1.2 2-1.1 1.7.5-.4 2 3.9 3.4 5.3 1.7.4-.5 1.2-.9 1.8-.8.7.2.6.6-.3 1.5-1 .9-1 1.8-.2 3.6 1 2.2 1.1 2.2.6-.6-.6-2.7-.6-2.6.4-.5.6 1.2.7 2.9.3 3.7-1 1.8 3.3 2.8 5.3 1.2 2-1.4 2-2.3.9-7.7-.7-3-1.5-4.4-2.6-4.4-1.2.1-1.6-.6-1.3-2.4.5-2.6-1.6-7-3.4-7.3z" fill="url(#z)" transform="rotate(-1.6 2339.4 393) scale(.73163)"/><path d="M472.2 72c-1.8-.2-2.9.4-4.3 2.4-2.6 3.6-2.6 4-.7 4.4.8.1 2-.7 2.7-2 .9-1.6 1.3-1.7 1.8-.5.7 2-4 5-5.9 3.7-.9-.6-1.4-.1-1.7 1.5-.3 2 0 2.3 1.8 2 1.5-.2 2 0 1.3.8-1.1 1.4 1.1 1.6 4.4.4a4.9 4.9 0 0 1 4.7.4c1.7 1.1 2.5 1 4-.5 1.6-1.8 1.6-2.4.7-4.8-1.4-4-4.6-7-8-7.7l-.8-.2z" fill="url(#A)" transform="rotate(-1.6 2339.4 393) scale(.73163)"/><path d="M488 75.1c-1-.2-1.5.5-1.8 2.3-.2 1.4-1.5 4.2-2.7 6.2l-2.2 3.7h2.8c2.7 0 2.7 0 .7 1.2-1.2.6-1.8 1.2-1.3 1.3 1.4.2 5-1.9 4.4-2.7-.2-.3.6-2.5 1.8-4.9 2-3.9 2.1-4.3.6-5.6a6 6 0 0 0-2.2-1.5z" fill="url(#B)" transform="rotate(-1.6 2339.4 393) scale(.73163)"/><path d="M552.8 84.5c-2-.5-8.2 1.7-8.4 3-.1.4 1.4.8 3.2.8 6.7.1 7.7 9 1.7 14.4a12.6 12.6 0 0 0-3.3 4c-.4 2 6.3 6.1 12 7.3 2.9.7 6 1.8 6.7 2.4.8.7 1.9.7 2.7 0 3.2-3.2 4.1-9.2 1.4-9.7-2.6-.5-6-3.8-5.2-5.1 1-1.7.5-4.8-.7-5-.4-.1-1 .8-1.2 2-.2 1.2-1.7 2.4-3.6 3-4 1.3-4.1-.2-.2-1.5 1.5-.6 2.7-1.4 2.8-1.8.5-2.7-1-6.7-2.7-7.4-1.1-.4-1.8-1-1.6-1.4.8-1.1-1.7-4.7-3.6-5z" fill="url(#C)" transform="rotate(-1.6 2339.4 393) scale(.73163)"/><path d="M511.5 81c-.4 0-.2.4.5 1 .9 1 1.4 2.1 1.3 2.9s.2 2 .7 3.1c.8 1.6 1.5 1.5 5-1 2.1-1.5 3.8-3 3.6-3.3-.6-.9-5 .4-5.3 1.6-.1.6-.6 1-1 1s-.7-1-.5-2c.3-1.2-.5-2-2.4-2.7a25.7 25.7 0 0 0-2-.5z" fill="url(#D)" transform="rotate(-1.6 2339.4 393) scale(.73163)"/><path d="M357.8 114.8h.4l1.8.6c2 .7 2.1 1 .9 1.2a3.7 3.7 0 0 1-2.8-.7c-1-.9-1.2-1.2-.3-1.1z"/><path d="M422 75.6c-.9-.1-1.8.2-3 .9-1.6.8-2.2 2.3-2.6 5.4-.4 4-.3 4.2 3.1 4.6 3.3.3 3.3.4 1.3 1.6-2 1.2-2 1.5-1 4.3.7 1.7 2.2 4 3.6 5.1 4 3.5 6 4.1 7.7 2.7.8-.7 3-1.4 4.5-1.4 2.3 0 3.2-.7 3.5-2.7.3-1.4 1-2.5 1.5-2.4s.8.9.4 1.6-.2 2.7.6 4.3c1.3 3 1.9 2.6 2.4-1.8.2-1 .3-1 .5-.3.3 1.2 3.1.8 7.7-1.2.8-.3-7.5-13-8.6-13.2-2.2-.4-6.5 1.4-7.3 3.2l-1.8 4c-.7 1.5-.5 2.2.7 2.4 1.2.2.3 1.1-2.6 2.8-4.8 2.9-6 2.9-8.1.3-1.8-2-1.3-8.5.6-8.9.7-.2.9 1.2.4 3.7-.8 3.5-.6 4 1.6 4.8 3.2 1 4.9-.5 6.3-6.4 1.2-4.5 1.1-4.8-1.7-6a19.6 19.6 0 0 1-5.5-4.3c-1.5-1.7-2.6-2.6-3.7-3h-.4z" fill="url(#E)" transform="rotate(-1.6 2339.4 393) scale(.73163)"/><path d="M313.4 115.1c.4 0 .5.5.2.9s-.9.6-1.3.6-.4-.5-.1-.9.8-.6 1.2-.6z"/><path d="M413 77c-4.3-.2-6.1 4-2.4 6.5 1.4.9 3.2 2.6 4 3.8 1.6 2.2 1.6 2.1.5-.7a8.4 8.4 0 0 1 0-5.9c1-2.6.8-3-1.3-3.5l-.9-.1z" fill="url(#F)" transform="rotate(-1.6 2339.4 393) scale(.73163)"/><path d="m391.2 121.7.7.1c1 .2 1.8.6 1.7.9s-.9.4-1.9.3-1.7-.6-1.7-1c0-.1.6-.3 1.2-.3z"/><path d="M449 81.1c-.9 0-1.7.4-2.2 1.6-.3 1 .3 1.7 2.3 2.2 2.6.6 2.8.4 2.1-1.6-.3-1.1-1-1.8-1.9-2l-.3-.2z" fill="url(#G)" transform="rotate(-1.6 2339.4 393) scale(.73163)"/><path d="M300.5 115.8h.6c1 .3 2 .9 2 1.7.1 1.1.1 1-.4 0s-.7-1.3-1.5-.4-1 1-1.4-.2c-.5-1.1-.6-1.1-.8 0-.1.8-.6 1.4-1 1.3s-.6-.7-.3-1.5 1.6-1.1 2.8-1zm87 6.6.3.7c.3.8.2 2 0 2.5-1 1.7-1 1.3-.7-1.5 0-1.2.2-1.7.4-1.7z"/><path d="M474 85.8c-2-.3-3.6 1-5.3 4.2-2.4 4.7-2.2 6.7.6 5 1-.7 1.7-2 1.6-3.3-.2-1.8.3-2 3.8-1.3l4 .8-4 3-4 2.8 3.8 2.2a74.4 74.4 0 0 1 5 3c1.3 1 1.7-.3.8-2.7-.3-1-1-1.5-1.7-1.2s-1.2-.5-1.2-1.7c-.1-2 .1-2 1.7-.7 1.3 1.2 2 1.2 2.8.2 2-2.3 1.7-4-.9-5.6a51.3 51.3 0 0 1-4.3-3.2 6 6 0 0 0-2.8-1.5z" fill="url(#H)" transform="rotate(-1.6 2339.4 393) scale(.73163)"/><path d="M463.3 85.5c-1.2-.3-2 .6-3 3.1-1 2.4-.8 2.7 2 3.3 4.4.8 6.4-2.7 3-5.2a6.5 6.5 0 0 0-2-1.2z" fill="url(#I)" transform="rotate(-1.6 2339.4 393) scale(.73163)"/><path d="M392.3 124.6h.1c.2.3-.1 1-.7 1.6-1.6 1.5-2 1.3-.7-.5.5-.8 1-1.2 1.3-1.1z"/><path d="M319.6 119.9c-.2 0-.3 0-.3.2-.2 1.1 3 4 3.5 3.2.3-.3.1-1-.3-1.5-.9-1.1-2.2-2-2.9-2z" fill="#f9f3d4"/><path d="M399.4 81.1c-1-.2-2 .5-2.3 2-1.2 4.9-2.1 6.6-4.1 8.2-1.2.9-2.3 2.8-2.6 4.3s0 2.8.5 3 2.2-1 3.6-2.2 3.4-2.1 4.4-2 2 0 2.4-.5c.4-.5 1.8 0 3.2 1.2 2.5 2 7 2.5 7.2.7.1-.5-.2-1-.8-1.2s-.9-.7-.8-1.3c.2-.7 1-.7 2.1 0 2 1 5-.1 5.5-2.2.1-.9-2.3-1.8-7.6-2.8-7.3-1.3-7.8-1.6-8.4-4-.4-1.9-1.3-3-2.3-3.2z" fill="url(#J)" transform="rotate(-1.6 2339.4 393) scale(.73163)"/><path d="M488 90.3c-1.3-.1-2.1.4-2.3 1.5-.2.8.2 2.1.7 3 .8 1.3.7 1.4-.5.6-1-.7-1.8-.3-2.6 1.6-2 5 .2 8.4 3.5 5.3 1-1 3.3-1 7-.3 4.6 1 6 1.7 7.8 4.3 2.4 3.7 3 4.1 3.4 2.1.6-3-2-7-4.3-6.8-2.8.2-3.8-1-2-2.7 1-1 .2-2-3.8-5a18.3 18.3 0 0 0-7-3.6z" fill="url(#K)" transform="rotate(-1.6 2339.4 393) scale(.73163)"/><path d="M527 95.2c-.8 0-1.6.2-2.2.9a16 16 0 0 0-1.9 4.8c-.7 2.9-.3 4.5 1.6 7.4 2.9 4.3 3 4.3 6.4 2.2l2.7-1.7-2.3-1.6c-1.3-.8-2.3-2.2-2.3-3l.2-3 .3-3.6c0-1.2-.6-2-1.6-2.3a3.4 3.4 0 0 0-.8-.1z" fill="url(#L)" transform="rotate(-1.6 2339.4 393) scale(.73163)"/><path d="M288.8 118.7c-.9 0-2 .3-2 1 0 .2 1.4.7 3.3 1s2.6.4 1.7 0-2-1-2-1.5c-.2-.2-.4-.4-.7-.4h-.3zm36.5 2.8a.5.5 0 0 0-.3 0c-.5.2-.9.8-1 1.2s.3.8.7.8.8-.4.9-1c0-.5 0-1-.3-1zm34.5 2.7c-.4 0-1 .2-1.6.6-1.4.7-1.4 1-.4 1.6.6.3 1 1 .6 1.3-.5.7-.5.7 1 .3 1-.2 1.6-2.9.8-3.6v-.1a1 1 0 0 0-.4 0zm-81.3-5.5c-1 0-3 1.6-3.2 3.2-.1.8 0 1.5.5 1.6 1 .2 3.6-3.3 3.2-4.4 0-.2-.2-.3-.5-.4zm90.3 7.3-2.4 1.4c-1.4.7-2.4 1.7-2.2 2.1l.4.8c.6 0 2-1.2 3-2.7l1.2-1.6z" fill="#f9f3d4"/><path d="M359.2 125.3c.4 0 .7.5.6.9s-.2.8-.4.7-.5-.4-.7-.9 0-.8.5-.7zm-78.7-5.6c-.2-.1-.5.2-.8.8-.7 1.3-.3 1.6.6.4.3-.4.5-1 .3-1.2z" fill="#f9f3d4"/><path d="M306.4 121.8h.2c.3.1.4.5.5 1.3.2 1 .1 2-.2 2.4-.7 1-1.6.7-2.5-1-.6-1.2-.5-1.5.8-2.3a3 3 0 0 1 1.2-.4zm45 4.1c.1 0 .2 0 .3.2.3.3.6 1 .5 1.3s-.4.7-.8.7-.6-.7-.5-1.4c0-.5.3-.8.5-.8z"/><path d="M461.4 92.7a4.4 4.4 0 0 0-1.6 0 16 16 0 0 1-4.3 0c-2.2-.4-3.2 2.3-1.3 3.5.8.5 1.1.3.8-.6-.2-.8.3-1.2 1.3-1 1.5.3 1.5.5-.3 2s-1.8 1.7-.3 3.2c1.2 1.3 2.3 1.3 5.2.3 2-.7 4-2 4.3-3 .7-1.7-1.4-3.9-3.8-4.4z" fill="url(#M)" transform="rotate(-1.6 2339.4 393) scale(.73163)"/><path d="M388.5 129.4c.2 0 .5.4.7 1s0 .7-.5.7-.7-.5-.6-1 .2-.7.4-.7zM274.3 124c-1.5-.2-1.6.3-2 3.6-.5 2.7-.3 4.3.5 5.4 1.4 2 4 2.4 5 .8l1-2.1c.3-.4-.3-.2-1.5.3-2.8 1.4-3.5 1.3-3.6-.8-.1-1 .2-1.6.9-1.5.5.1 1-.2 1.1-.7 0-.4-.5-.8-1.4-.7-1 .1-1.4-.2-1.3-1 .1-.8.6-1 1.5-.6.8.4 1.6.2 2-.5.8-1.7.8-1.7-1.5-2.1l-.7-.1z"/><path d="M373.2 132.8h-.3c-.5.3-.8.6-.9.8s.3.4.7.5.8-.3.8-.7c0-.4 0-.6-.3-.6z" fill="#f9f3d4"/><path d="M416.9 95.5c-2.2-.4-4.1.6-5.2 3a5.9 5.9 0 0 0-.3 3.6c.5 1.7 1 1.6 4.6-.7 2.3-1.5 4.7-2.6 5.5-2.5s0-.8-1.6-2a7.3 7.3 0 0 0-3-1.4z" fill="url(#N)" transform="rotate(-1.6 2339.4 393) scale(.73163)"/><path d="M400.2 95.5a7.9 7.9 0 0 0-1.3 0c-2.4.2-3 1-3.5 3.5s-.2 3.1 1.3 3.1c1 0 2.2.7 2.4 1.4.4 1 1 1 2 0 1.3-1.2 1-1.7-1.6-3-2.9-1.7-2.9-1.8-.4-1.4 1.5.3 2.9 1 3 1.7s1.8 1.4 3.4 1.8c2.6.5 2.8.3 2-1.9-.8-2.3-3.2-4.3-5.9-5a9 9 0 0 0-1.4-.2z" fill="url(#O)" transform="rotate(-1.6 2339.4 393) scale(.73163)"/><path d="M301.7 131.2c-.4-.1-.3.3.2.8s1.3 1 1.7 1.1.3-.4-.2-.9-1.3-1-1.7-1zm-21.8 2.6c-.3 0-.4 0-.5.4 0 .5.6 1.7 1.4 2.6 1.4 1.6 1.5 1.6 2 .3.5-1 0-1.7-1.3-2.6a4.9 4.9 0 0 0-1.6-.7z" fill="#f9f3d4"/><path d="m391.5 252.1-1.2.8s-1.9 4-2.4 6a14.3 14.3 0 0 0-.4 4.3c0 1.6.7 4 1.2 5.7l.7 2 4 .1c6.3 0 12.4-.9 13.3-2 .4-.5.3-.9-.6-1-1-.4-1-.8.7-2.4 2-2.3 2.6-7 1-9.8-1.8-2.8-8.2-4-11.1-1.9-1.4 1-5.2.2-5.3-1v-.8z"/><path d="M420.5-162.4a5.4 5.4 0 0 1 2.2.7c1.6.8 1.6.7-1.6 9.2a4.8 4.8 0 0 1-3.6 3c-1.8.4-2.4 1-2 2 .5.8 1.4 1.3 2 1.3 2.2-.2 6.6-5.6 6.1-7.3-.6-2 1.3-6.4 2.9-6.5 2.2-.2 2.6 3.4.5 5l-2 1.4 2.3.7c1.2.3 2.3 1 2.3 1.5.1 1.3-4.7 4-7 4-1.2 0-1.6.2-.9.5s1.3.8 1.4 1.3c.2 2-3.3 3-6.5 2-2.7-.9-3.3-1.6-3-3.5.3-2.3.3-2.2-1.1-.2-.8 1-1.4 2.4-1.3 2.8 0 1.5-3.9 1.2-5-.4a35 35 0 0 1 1.6-15.9c.4-.5 1.7-.5 3 0 1.6.8 2.2 1.7 2 3.2-.4 1.7 0 1.4 2.2-1.3 1.6-2.1 3.2-3.3 4.8-3.5h.7z" fill="url(#P)" transform="rotate(-1.6 13526.7 -3200.2) scale(.73163)"/><path d="M393.8 261.6c-.4 0-.5.4-.2.8s.6.6.8.6.3-.4.3-.8-.5-.7-.9-.6z"/><path d="m351.1 128.1 5.1-.4.1 155-1.9.1z" fill="#999"/><path d="M-18.7 739.5c-.5 0-1 .6-1 1.2a1.3 1.3 0 0 0-1.3-1c-.5 0-1 .4-1.1.8-.2-.4-.6-.7-1-.6-.6 0-1 .4-1 1-.3-.6-.7-1-1.2-.9-.4 0-.8.4-1 .9-.1-.5-.6-.8-1-.8-.5 0-1 .4-1 .9h-.1v.5a1.6 1.6 0 0 0 0 .3 334.7 334.7 0 0 0 3 18h.2c0 .1.5.3 4.8.8a136.6 136.6 0 0 1 3 .4l-.2-20.6c-.1-.5-.6-.9-1-.9z" fill="url(#Q)" transform="translate(485.1 -5430.4) scale(7.5078)"/><path d="M-16.8 739.7c-.2 0-.5.3-.6.6l.2 20.7c.3 0 .6-.2 1.1-.4l.7-.3.4-.2 1.9-.7.1-.1h.2v-.2l.9-6a354.7 354.7 0 0 0 1.7-11.3h-.1c-.1-.5-.3-1-.7-1-.3 0-.5.3-.7.7 0-.5-.3-.9-.6-1-.3 0-.6.3-.8.7 0-.5-.3-1-.7-1-.3 0-.6.3-.8.8 0-.6-.3-1-.7-1-.3-.1-.6.1-.7.6-.1-.5-.4-.9-.7-.9z" fill="url(#R)" transform="translate(485.1 -5430.4) scale(7.5078)"/><path d="m344.8 121.9-1.4.3.8 62.7a30.5 30.5 0 0 1 2.2 18 32.8 32.8 0 0 1-1.8 6.6l.5 40.8.3.2c.4.5.7 1.1.7 1.6v3.1c0 .6-.2 1.1-.4 1.6l-.5.7.3 24.2 3 .4-2.2-160.2a6.5 6.5 0 0 0-1.5 0zm-17.6 1.5-1.5.2 1.4 22 .5.2c.7.3 1.3.7 1.8 1.3l.8 1.3-1.6-25h-1.4zm-16.1 1-.8.1 1.7 23.7.7-.2a3.8 3.8 0 0 1 2.3.3l-1.7-23.7a7.2 7.2 0 0 0-2.2-.2zm-15.9 1h-.5l5.6 51.3a38.6 38.6 0 0 1 2.7-2l-1.2-11.3a3 3 0 0 1-1.3-.8 1.8 1.8 0 0 1-.1 0 3.6 3.6 0 0 1-.7-2l-1-9.9c0-.6 0-1.3.3-1.9a3 3 0 0 1 1-1.2l-2.3-22a7 7 0 0 0-2.5-.2zm-15.6.7c-.7 0-1.3.2-1.9.4l21.3 149 3 .4-3-21.1h-.1a2.5 2.5 0 0 1-1.5-.7 2.2 2.2 0 0 1-.7-1.6c0-.6.4-1.2.8-1.5l-.5-.7a3 3 0 0 1 0-2.8l.8-1-5.2-36.6a26.3 26.3 0 0 1-3.9-16.9c.2-1 .6-2.1 1-3.2l-9.1-63.7h-1zM313 154h-.2l.7.2h.2l-.7-.2zm17.7 3.2c-.4.5-.8.9-1.5 1-.5.2-1 0-1.4-.1l.8 12.9 3 1.2-1-15zm-15 3.4c-.5.3-1 .4-1.4.5-.5.2-1 .2-1.5.1l.7 9 2.9-.5-.7-9.1zM335 222l-2.8 1.8 1.7 27.3a4.3 4.3 0 0 1 2.6-.6h.3l-1.8-28.5zm-29.7 1 2.6 23.4c.4 0 .7.3 1 .6.4-.3 1-.5 1.4-.4.1 0 .3 0 .5.2l-2.4-22.1-3-1.6zm12.2 3.9 1.5 20.5 1.7.2c.3 0 .6.2 1 .4h.2l-1.4-21-3-.1zm4.5 25v.2c0 .3 0 .6-.2.8l.3.1v-1zm-12 10.6-.2.2h-.1l1.5 14.4 3 .4-1.6-14.1h-.9a2.5 2.5 0 0 1-1.4-.6l-.3-.3zm11.9.7a2.1 2.1 0 0 1-.5.6c-.4.3-.8.4-1.3.4l1 14.2 3 .5-1-14.4-.8-.5a1.5 1.5 0 0 1-.1 0c-.2-.2-.2-.5-.3-.8zm15.1 1.5-.4.5-.7.4a1.5 1.5 0 0 1-.1 0s-.2.1-.8 0h-.1l.9 14.8 3 .3-1-15c-.2 0-.4-.2-.5-.3-.2-.2-.2-.5-.3-.7zm22-141.7h-.2l.7 158.7 1.8-.7-.3-79.3c-1.3-4.4-1.9-9-1.4-12.6.2-1.7.7-3.5 1.3-5.4l-.3-60.5-.8-.2h-.9zm10.6 1.7-.6 47 1.8-1 .1-11-.2-.4c-.2-.5-.2-1-.2-1.4l.5-8.3v-.4l.4-24.2a3.8 3.8 0 0 0-1.8-.3zM381 127l-1 22c.7 0 1.2.4 1.5.6v.1l.3-.4 1-21.9a3.8 3.8 0 0 0-1.8-.4zm11.2 2.8-1.6 21 .1.6c.1.6.2 1.2.1 1.8l-.1 3c0 .4-.1.9-.4 1.3l-.2.4-1.2 15.5 1.7 1.8 3.4-44.8a3.9 3.9 0 0 0-1.6-.6h-.2zm9.8 1.7h-.4l-6 54.7c.7 3.2 1 6.7.7 10.2l7.2-64.7-.7-.2a3 3 0 0 0-.8 0zM380 153.7v.1zm1.2 5.1-.4.4a3 3 0 0 1-1 .4l-.5 9.4 1.9.1.4-10-.3-.1-.1-.2zm14.9 40.8a32.2 32.2 0 0 1-3 9.5l-6.8 61.7.5-.1 1-.5.5-.2 7.8-70.4zm-27.7 15L368 249h.2l.3-.2.6.2c.1-.2.2-.3.5-.3h.2l.4-32.8-1.8-1.4zm19.2 1.5c-.6.5-1.2 1-1.9 1.3l-2.2 29.5.3.4.4.9.4 3a6 6 0 0 1 0 1v1a3 3 0 0 1-.4 1l.4.4.1.3 3-38.8zm-10.3 2.8-1.2 28.7c.5 0 1 0 1.2.3l.4.5.2.4L379 219c-.6 0-1.2 0-1.8-.2zm-8.9 38.7h-.5l-.3 21 1.7-.7h.1l.2-13.8-.4-.5c-.3-.4-.3-.7-.4-1l-.3-1-.2-1.5a6.5 6.5 0 0 1-.1-1.1v-1l.2-.4zm15.4 4.5c-.2.2-.4.4-.7.4l-.6-.1-.2.2-.8 10.2 2-.8.6-9.7-.4-.2zm-6.7 1.2-.5.4c-.4 0-.6 0-.8-.2l-.3.3-.5 11.7 1.8-.7.5-11.5h-.2z" fill="#a00"/><path d="M318 168.2c-6.3.5-12.4 1.5-17.5 5.1-6.8 4.8-11.8 13-13 19.4s1.4 16 6.3 22.8 12 11 20.5 12.4c16.8 2.8 30.6-8.6 33.4-24.9s-6.5-31.6-23.3-34.5a26.8 26.8 0 0 0-6.3-.3zm.2 2.7c2-.2 4-.1 5.8.2 15.4 2.7 23.7 16.4 21.1 31.5s-14.9 25.3-30.3 22.7c-7.6-1.3-14.4-5-19-11.4s-6.7-15.2-5.7-20.7 5.5-13.2 11.9-17.7a31.1 31.1 0 0 1 16.2-4.7zm-11 77-.4.1-.2.5v3.4c0 .2-.2.3-.3.4l-.5.2c-.2 0-.4-.1-.5-.3l-.2-.4v-3.5c0-.1 0-.3-.2-.4l-.5-.3c-.2 0-.3 0-.5.2a.6.6 0 0 0-.2.4v3.5a2.5 2.5 0 0 0 .6 1.4l.6.5a2.4 2.4 0 0 0 2.3-.1l.7.4.7.2a2.2 2.2 0 0 0 1.6-.4l.4-.6.2-.7v-3.5c0-.2 0-.4-.2-.5l-.5-.2-.5.1a.6.6 0 0 0-.2.5v3.4l-.2.4c-.1.1-.4.2-.6.1l-.5-.2c-.2-.2-.2-.3-.2-.5v-3.4l-.1-.5c-.1-.2-.3-.2-.5-.2zm-7-.7-.7.1-.7.4-.4.5-.2.7.2.7c0 .2.2.5.4.6l.7.5.7.2h.7l.5.3.2.4-.2.4-.5.1-1.9-.2a.7.7 0 0 0-.5.1l-.2.5c0 .2 0 .3.2.5s.3.2.5.2l2 .2a2.2 2.2 0 0 0 1.4-.4 1.6 1.6 0 0 0 .6-1.3c0-.2 0-.5-.2-.7l-.4-.6-.7-.5-.7-.2h-.7l-.5-.3-.2-.4c0-.2.1-.3.2-.3l.5-.2 1.9.2.5-.1c.2-.1.2-.3.2-.5l-.2-.5c-.1-.2-.3-.2-.5-.2zm12.1 1.2-.5.1-.2.5v4.7l.1.5.5.2 3 .3.6-.1.2-.5c0-.2 0-.3-.2-.4l-.5-.2-2.3-.3v-1.1l1.6.1.5-.1c.2-.1.2-.2.2-.4l-.2-.5-.5-.2-1.6-.2v-1l2.3.1.5-.1c.1-.1.3-.2.3-.4l-.2-.5a.9.9 0 0 0-.5-.2zm5.2.5-.5.1-.2.4v4.8l.1.5.5.2 3 .3a.7.7 0 0 0 .6-.1l.2-.5c0-.2 0-.3-.2-.4l-.5-.3-2.4-.2v-1.1l1.7.1.5-.1.2-.4c0-.1 0-.4-.2-.5l-.5-.2-1.6-.2v-1.1l2.4.2.5-.1c.2-.1.2-.2.2-.4l-.2-.5-.5-.2zm5 .4a.7.7 0 0 0-.5.2l-.2.4c0 .2 0 .3.2.5l.5.2 1.2.1v4.2l.1.4.5.3c.2 0 .4 0 .5-.2.2 0 .2-.2.3-.4v-4.2l1.2.2c.2 0 .4 0 .5-.2l.3-.4c0-.2-.1-.3-.3-.5l-.5-.2zm21.4 2h-.3l-.2.2-.2.2a.5.5 0 0 0 0 .2v1.1a2.9 2.9 0 0 0-3 .1 2.1 2.1 0 0 0-.8 1.6c0 .3 0 .6.2.9l.5.8a3 3 0 0 0 2.8.7 2.4 2.4 0 0 0 1.4-1c.2-.3.2-.6.2-1v-3l-.1-.5a.9.9 0 0 0-.5-.2zm-7.5.8a2.6 2.6 0 0 0-1.9.5l-.5.7-.2.8v1.7l.1.5c.1.2.3.2.5.2l.5-.1c.2-.1.2-.3.2-.4v-1.8l.2-.4c0-.2.1-.2.2-.3l.4-.1h.9l.4.3.3.4v2.1l.2.5c.1.2.3.1.5.2s.4 0 .5-.2l.2-.4v-1.8c0-.3 0-.6-.2-.9l-.5-.7a3.3 3.3 0 0 0-1.8-.8zm-5.8-.5c-.5 0-1 0-1.4.2s-.8.5-1 1a1.8 1.8 0 0 0-.2.8 2 2 0 0 0 .2 1c.2.4.5.7 1 1s.8.5 1.3.6h.6l.5-.2h.2l.6.3.5-.1.2-.4V254a2.4 2.4 0 0 0-.6-1.6 2.7 2.7 0 0 0-1.6-1h-.2zm0 1.2a1.3 1.3 0 0 1 .8.4l.3.4v.8l-.3.3-.4.2a1.3 1.3 0 0 1-.9-.1 1.6 1.6 0 0 1-.6-.6l-.1-.5a.9.9 0 0 1 .3-.7l.4-.2h.5zm11.4 1 .4.2.4.3.3.3v.8l-.3.3-.4.3a1 1 0 0 1-.4 0 1.3 1.3 0 0 1-.9-.4 1 1 0 0 1-.3-.8v-.4c0-.2.2-.2.3-.3l.4-.2h.5zm-33.5 1.8-.6.1c-.2.1-.2.3-.2.5v4.8l.1.4c.1.2.4.3.6.3l.5-.2a.6.6 0 0 0 .2-.4v-.8h.9l1.4 1.5.5.2.5-.1c.2-.2.2-.3.2-.5l-.2-.4-.8-.8c.4-.2.7-.4 1-.8s.3-.7.3-1l-.2-1c-.1-.3-.3-.6-.6-.8l-.8-.6a2 2 0 0 0-1-.2zm-3.8-.3h-1c-.3 0-.6.3-.8.5a2 2 0 0 0-.8 1.5v1.6a2.5 2.5 0 0 0 1.6 2.2 3 3 0 0 0 1 .2l1.3-.1 1-.7v-.4c0-.2 0-.3-.2-.5l-.5-.2h-.4l-.2.3-.4.3-.5.1h-.1a1.4 1.4 0 0 1-.5-.2l-.4-.2-.2-.4-.1-.4v-1.5l.1-.4.3-.3.4-.2H304.9l.5.2.3.3.3.4.4.1.5-.1a.6.6 0 0 0 .2-.5.5.5 0 0 0 0-.2l-.1-.1c-.2-.4-.5-.7-.9-1a2.9 2.9 0 0 0-1.4-.3zm9.5.9h-.5c-.2 0-.2.3-.2.5v3.1l.1 1c.1.3.3.5.6.7l.8.6c.3.2.6.2 1 .3s.7 0 1-.1l.8-.4c.2-.2.5-.4.6-.7l.2-.8v-3.2l-.1-.5c-.1-.2-.3-.2-.5-.2l-.5.1-.2.4v3.2c0 .1 0 .3-.2.4l-.2.3-.4.2h-.5l-.4-.1-.4-.2-.3-.4v-3.6c0-.1 0-.3-.2-.4l-.5-.2zm13.5 1.2h-1c-.3 0-.6.3-.8.5a1.9 1.9 0 0 0-.8 1.6v1.5c0 .3 0 .6.2 1l.6.7.8.5c.3.1.6.3 1 .3.6 0 1 0 1.4-.2s.6-.4.8-.7l.1-.1v-.2l-.1-.5-.5-.2h-.5l-.2.3-.4.3h-.6a1.4 1.4 0 0 1-.5 0l-.4-.4-.2-.3-.1-.4v-1.6a1 1 0 0 1 .4-.6l.4-.2H327.9l.5.2.4.3c0 .1 0 .2.2.3l.4.2c.2 0 .4 0 .5-.2l.2-.4v-.2l-.1-.2-.9-.9a2.9 2.9 0 0 0-1.4-.4zm3.8.4-.5.1-.2.5-.1 4.7c0 .2 0 .4.2.5l.5.2h.5a.6.6 0 0 0 .3-.5v-1.6l2.3.2v1.6c0 .2 0 .3.2.5l.5.2h.2l.3-.2.1-.2a.5.5 0 0 0 0-.2l.2-4.8-.3-.4c-.2-.1-.3-.3-.5-.3l-.4.2c-.1.2-.3.2-.3.4v2l-2.3-.3v-1.9c0-.2 0-.4-.2-.5l-.5-.2zm5.7.5c-.2 0-.3 0-.5.2l-.2.4v.8a2.3 2.3 0 0 0 1 2l.7.3v1.8c0 .2 0 .4.2.5l.5.3c.2 0 .3 0 .5-.2a.6.6 0 0 0 .2-.4V262l.7-.2a1.9 1.9 0 0 0 1.1-1.7v-.8c0-.2 0-.4-.2-.5l-.5-.2h-.5c-.2 0-.2.3-.2.5v.9l-.3.6c-.2.2-.5.2-.8.2s-.5-.2-.7-.4-.3-.4-.3-.6v-.9c0-.2 0-.3-.2-.4l-.5-.3zm5.5.5c-.2 0-.4 0-.5.2l-.2.4v3.2l.1.5.5.2.5-.1c.2-.1.2-.3.2-.4v-3.3l-.1-.4a.9.9 0 0 0-.5-.3zm-20.8-1.9a2.7 2.7 0 0 0-1.8.5l-.6.7c-.2.3-.2.5-.2.9v3.1c0 .2 0 .3.2.4l.5.3c.2 0 .3 0 .5-.2l.2-.4V259l.1-.3.3-.3.4-.2h.9c.2 0 .3.2.4.3l.2.4.1.4v3.2c0 .1 0 .3.2.4l.5.2.4-.1.3-.4v-3.2c0-.3 0-.7-.2-1l-.6-.7-.8-.5c-.3-.1-.6-.3-1-.3zm-12.7 0 1 .1c.3 0 .4.1.5.2l.4.2.3.4v.8l-.3.3-.4.2h-.4l-1.2-.1zm33.4 6.7c-.2 0-.3 0-.5.2l-.2.4c0 .2 0 .3.2.4l.5.3c.2 0 .4 0 .5-.2.2 0 .2-.2.2-.4l-.2-.4c-.2-.1-.3-.3-.5-.3zm-19.4-118.8c-.2 0-.4.2-.6.5s-.1.5-.1.9l1 10c0 .4.2.7.3 1s.4.2.6.2.4-.3.6-.6.1-.6 0-.9l-.3-3.6c0-.6.1-1.1.4-1.6s.5-.7.9-.8l.5.1.5.4.4.7.2.8.3 3.5c0 .4.2.6.4.9s.3.2.6.2.4-.3.5-.5l.2-1-.4-3.6c0-.6-.2-1.2-.4-1.8s-.5-1-.8-1.3-.7-.6-1-.8-.9-.2-1.3-.1l-.7.2-.7.6-.2-2.3c0-.4-.1-.7-.3-.9s-.4-.2-.6-.2zm-18.3 3.5-3.6.7c-.3 0-.5.3-.6.6l-.1 1 1 9.9c0 .4 0 .7.2.9.2.2.4.3.7.3s.4-.2.5-.5l.2-1-.3-3 2-.4c.2 0 .3-.2.5-.5s.2-.6.1-1l-.3-1c-.2-.2-.4-.3-.6-.2l-2 .4-.2-3 2.7-.5c.3 0 .5-.2.6-.5s.2-.6.1-1l-.3-.9-.6-.3zm15.9 0-2.3.4-.7.4-.5.8a4.2 4.2 0 0 0-.3 2.2c0 .4 0 .8.2 1.1l.5.9.6.5c.2.1.5.2.8.1l1.3-.2c.3 0 .4 0 .4.4 0 .3 0 .5-.3.6l-2.3.4c-.2 0-.4.3-.5.6l-.1.9c0 .3.1.6.3.8s.4.3.6.3l2.3-.5c.3 0 .6-.1.8-.3l.5-.8.3-1c.2-.4.1-.9 0-1.3 0-.4 0-.7-.2-1l-.4-.8c-.2-.3-.4-.5-.7-.6l-.7-.1-1.4.2h-.3l-.2-.5.1-.4.2-.2 2.2-.4c.2 0 .4-.2.5-.5l.2-1-.3-.7c-.1-.2-.4-.4-.6-.3zm-7.8 1.5c-.4.1-.8.3-1.1.7l-.9 1.2a7 7 0 0 0-.6 3.5c0 .6.2 1.2.4 1.8s.5 1 .9 1.5.7.6 1 .8c.5.2.8.2 1.2 0 .4 0 .6 0 .9-.2l.7-.8c.1-.3.2-.5.1-.8v-.6c0-.2-.3-.4-.4-.5l-.5-.2a.5.5 0 0 0-.2.1l-.3.2-.2.2-.3.1c-.5.1-1-.2-1.3-.9l3.4-.7.6-.3c.2-.3.2-.6.1-.9a6 6 0 0 0-1.2-3.1c-.3-.4-.7-.7-1.1-.9s-.8-.2-1.2-.2zm-3.8.8h-.2l-1.1.7c-.4.3-.6.7-.9 1.2s-.4 1-.5 1.6v1.8l.3 3.6c0 .4.2.7.3 1s.4.2.6.1.4-.2.6-.4.2-.6.1-1l-.3-3.5a3.1 3.1 0 0 1 .3-1.6 1.5 1.5 0 0 1 .9-.9c.2 0 .4-.2.5-.5l.2-1a1.7 1.7 0 0 0-.4-.8c-.1-.2-.3-.2-.4-.3zm4 1.8.7.1c.2.1.4.4.6.8l-2.3.4.4-1c.1-.2.4-.2.7-.3z" fill="#a00"/><path d="M326 178.3h-1.1c-.7 0-1.4.2-2 .4a6.2 6.2 0 0 0-2.4 1c-.2.1-.4.3-.5.6a3.6 3.6 0 0 0-.4 1.7 4.7 4.7 0 0 0 .5 2l.5.5c.4.3.8.4 1.3.3l.2.4.2 1.4.1 1.4.1 1.4.3 1.3c.1.6.3 1.2.6 1.6s.6.6 1 .8.8.2 1.2.2l1.4-.1 1-.4c.3-.1.5-.4.6-.6l.2-.6v-.6l-.4-.8-.2-.6.6-.3 1.1-.4c.4-.2 1-.5 1.4-.9a4.6 4.6 0 0 0 1.6-2.3 5.6 5.6 0 0 0 .1-3.1 4.9 4.9 0 0 0-2.2-3.1 6.6 6.6 0 0 0-1.8-.8l-2-.4h-1zm-6 5.6c-.2-.4-.6-.8-1-1.2a5.3 5.3 0 0 0-3.6-1.4l-1 .1-1 .2-1.5.5-1.2.6-.7.7a5.3 5.3 0 0 0-.9 2.1 6.6 6.6 0 0 0-2.6-1.3 12.8 12.8 0 0 0-6.2 0 6 6 0 0 0-2.3 1c-.2 0-.4.3-.5.5a3.2 3.2 0 0 0-.4 1.8l.1 1c.2.7.5 1.2.9 1.5s.8.4 1.3.2l.2.5.2 1.3.1 1.4.2 1.4c0 .5 0 1 .2 1.4.1.6.4 1.1.6 1.5s.7.7 1 .8.8.3 1.3.3l1.4-.2c.4 0 .8-.2 1-.4l.5-.5c.2-.2.2-.4.2-.6v-.7a3 3 0 0 0-.3-.7c0-.3-.2-.4-.3-.6l.6-.3 1.1-.4a7 7 0 0 0 1.5-1l1-1 .5-1.2v.3a6 6 0 0 0 2.3 3.4l1.8.9a4.9 4.9 0 0 0 4.4-1.3 7.5 7.5 0 0 0 2.4-5 8.7 8.7 0 0 0-1-5.2l-.2-.4zm5.3-4.8c1 0 1.8 0 2.6.3s1.6.5 2.2 1 1.1 1.3 1.3 2.2l.1.4v.5a3.9 3.9 0 0 1-1.3 3.2l-1.2.8-1.1.5-.6.2a1.3 1.3 0 0 0-.4.3l-.3.4v.6l.3.8.2.7-.1.5-.7.2-1 .2a2 2 0 0 1-1-.1l-.6-.6-.4-1-.2-1.5-.2-1.5v-1.4l-.3-1.1a3.3 3.3 0 0 0-.2-.6l-.3-.5-.4-.2h-1l-.2-.4-.2-.6c-.2-.5-.2-1-.1-1.3l.3-.8.8-.5 1.2-.4 2.7-.3zm-11.1 3 1 .1a4.4 4.4 0 0 1 3.4 2 8 8 0 0 1 1 5.8l-.6 1.6a5.4 5.4 0 0 1-3.2 2.8h-1.5c-.5 0-1-.4-1.5-.7s-.8-.7-1.1-1.2a5.4 5.4 0 0 1-.9-2.7l.1-1.1.1-1v-.7c0-.2-.2-.5-.4-.6a1 1 0 0 0-.7-.1h-.1l-.2-.2v-.7c0-.3.2-.6.3-.8a4.7 4.7 0 0 1 .8-1.3l1-.5 1.4-.4 1.1-.2zm12.7-.3-.6.1-.6.2-.4.4V183.2l.1.2.1.4.3.3.3.2h.6c.7-.2 1.1-.5 1.4-.8s.5-.7.4-1a.7.7 0 0 0-.3-.4l-.6-.2h-.7zm.5 1.2h.3l.5.1a.5.5 0 0 1-.2.2l-.3.2a3 3 0 0 1-.4.2h-.5v-.2l-.1-.3h.1l.3-.2h.3zm-24.6 1.5c1 0 1.8 0 2.7.3s1.5.6 2.1 1.1 1.1 1.2 1.3 2.1a5 5 0 0 1 .2 1 3.9 3.9 0 0 1-1.4 3.2l-1.2.8-1 .4-.6.2-.5.3-.3.5v.6l.3.8.2.6c.1.3 0 .5-.1.6l-.7.2-1 .2a2 2 0 0 1-1-.2l-.5-.5-.4-1-.3-1.5-.2-1.5v-1.4a6.7 6.7 0 0 0-.4-1.8l-.4-.4c-.1-.2-.2-.2-.4-.3s-.4 0-.6 0h-.4l-.2-.3-.2-.6c-.1-.5-.2-1-.1-1.3l.3-.8.8-.6c.3-.2.8-.2 1.2-.3 1-.2 1.8-.4 2.8-.4zm11.8 0a.6.6 0 0 0-.2 0c-.2.1-.3.3-.4.6l-.2.7a6.9 6.9 0 0 0 0 1.4v.6l.1.7.4.8c.2.2.4.4.7.3h.1l.2-.1c.5-.4.8-.8 1-1.4s0-1.2 0-1.8c-.3-.7-.5-1.2-.8-1.5s-.6-.4-.9-.3zm.8 1.1.3.4.2.8v.2l.1.3v.8a1.7 1.7 0 0 1-.6 1v-.2l-.1-.3-.1-.7V186.2l.2-.6zm-11 1.7h-.6l-.5.3c-.3.1-.4.3-.5.4v.7l.1.2.2.3c0 .1 0 .3.2.4l.3.2h.6c.7-.2 1.1-.5 1.5-.8s.4-.7.3-1a.7.7 0 0 0-.3-.4l-.6-.3h-.7zm.5 1.1h.3c.3 0 .4.1.5.2a.5.5 0 0 1-.2.2l-.3.2-.3.1-.3.1h-.2l-.1-.2v-.4l.3-.1h.3zm33.2 3.6h-.4a4.5 4.5 0 0 0-1.7.5 1.8 1.8 0 0 0-.6.6 1.3 1.3 0 0 0-.3.5v.6l.4.7.6.7.7.7.5.6h-.1l-.1.1c-.2 0-.4 0-.6-.3l-.6-1-.7-1.2-.8-.9a1.9 1.9 0 0 0-.6-.1 4.6 4.6 0 0 0-.8 0h-1a9 9 0 0 0-1 .2l-1.4.5a2 2 0 0 0-.8.6l-.3.6-.1.8v.1h-.2c-.6-.5-1.4-.7-2.3-.8s-1.9-.2-3 0l-3.2.4-1.7.5a6 6 0 0 0-1.2.6l-.5.6-.3.9v1.6l-.2-.2a5.2 5.2 0 0 0-3.6-1.4l-1 .1a9 9 0 0 0-3.7 1.3l-.7.7a5.5 5.5 0 0 0-.9 2.3v.1l-.6-.7a5.4 5.4 0 0 0-3.3-1.3c-.8 0-1.6 0-2.5.2-.5.2-1.1.3-1.6.6l-1.4.6a2 2 0 0 0-.7.7 5.8 5.8 0 0 0-.8 2.3v1c0 .3.2.6.5.8s.6.3 1 .2v.3l-.1 1.5a7 7 0 0 0 1.1 3.8c.4.6 1 1.1 1.5 1.6s1.4.7 2.1.9a5.5 5.5 0 0 0 4.3-.9c.5-.4 1-.8 1.3-1.4s.5-1 .6-1.7 0-1.2 0-1.8c-.2-.5-.4-1-.7-1.3s-.6-.7-1-.8c.4-.2.7-.5.8-.8l.4-.8v-1.2l.5.1v.7l-.2 1.4a6 6 0 0 0 2.5 5.1c.5.4 1.1.7 1.8.9s1.3.1 2 0c1-.2 1.7-.7 2.4-1.3s1.2-1.4 1.6-2.2a8.8 8.8 0 0 0 0-7.2H318l.3.3.2.7.3 2.1.2 2.6v.5a3.8 3.8 0 0 0 .4 1.2l.7.7c.2.2.6.3 1 .3l1.7-.1a3.6 3.6 0 0 0 1.7-.9l.3-.5v-1.3l-.1-.8-.2-.7-.2-.6.7.9 1.1 1.3.9.8c.3.2.5.4.8.4a2 2 0 0 0 .9 0c.4 0 .7-.3 1-.6a4.5 4.5 0 0 0 1.4-2.7v-.9l.3.7c.2.6.5 1 .8 1.4s.7.6 1.2.7a4.2 4.2 0 0 0 3.4-.9l.4-.5v-.7l-.3-.8-.5-1-.3-.3-.3-.5-.2-.5a1.8 1.8 0 0 1-.2-.4v-.2l.4.2.4.7.4.9.5 1 .4.8.5.5c.4.4 1 .5 1.8.3l.6-.2.6-.3.5-.4.4-.4.6-1.6c.2-.6.2-1.2.2-2v-2a17.3 17.3 0 0 0-1-4 8 8 0 0 0-.7-1.7c-.3-.5-.7-1-1.1-1.2a2.5 2.5 0 0 0-1.4-.6h-.4zm-.9.7h.7l1 .5 1 1.7a14.5 14.5 0 0 1 1 6l-.1 1.8-.5 1.4-.6.5c-.3.2-.5.3-.9.3h-.5l-.5-.3c-.2-.1-.2-.4-.4-.6s-.2-.6-.3-.9a21 21 0 0 0-1-2l-.8-.5c-.3-.1-.5-.2-.8-.1s-.6.3-.7.6-.2.6 0 1l.3.8.5 1 .6.9.3.7c0 .2-.2.4-.4.5a4.1 4.1 0 0 1-1.7.4c-.3 0-.5 0-.6-.2-.4-.2-.7-.5-1-1a13.1 13.1 0 0 1-.5-2l-.3-1.1-.2-1.2-.2-1-.2-.8a3.4 3.4 0 0 0-.5-1.3.7.7 0 0 0-.7-.3 2.4 2.4 0 0 0-.4-.8v-.6l.1-.7.1-.4.6-.3.9-.3.8-.1.8-.2h.6l.4.1.6.5.4.8.5 1 .6.7c.2.3.4.4.7.5h.9a1.6 1.6 0 0 0 1-.6v-.7l-.4-.7-.7-.7-.7-.8-.4-.7c0-.1 0-.3.2-.4l.8-.3.6-.1zm-13.5 3.4 1.2.1c.8 0 1.4.3 2 .5s.8.7.9 1.2l-.1.8-.3 1-.5.8c-.1.3-.4.5-.6.7l-.5.8v.5c0 .3.1.5.3.7l.7.3h.8l.8.2c.3 0 .5 0 .6.2l.4.4v1c0 .5-.2 1-.4 1.3l-.2.3-.2.4-.3.3-.4.2h-.6c-.2 0-.4-.3-.6-.5l-.7-.7-.6-.9-.8-.9-.6-.6c-.1-.2-.3-.3-.4-.3h-.5l-.4.2-.2.4v1l.3.8.2.8.2.6v.6c0 .2-.1.3-.3.5s-.5.3-1 .4l-1 .2-.8-.2c-.2-.1-.2-.2-.3-.4l-.1-.4a3.2 3.2 0 0 1-.1-.6v-1.1l-.2-1.2-.1-1.4-.2-1.2c-.2-.7-.4-1.3-.7-1.6s-.6-.6-1-.5h-.2l-.3-.2a2 2 0 0 1-.3-.8c-.1-.6-.2-1 0-1.4s.2-.6.4-.8l1-.5 1.4-.4a19.4 19.4 0 0 1 4.3-.5zm-.2 2.1h-.4l-.5.1-.4.1-.2.1-.2.2v.1a4 4 0 0 0 0 1.5c0 .2.2.4.3.5h.4c.2 0 .5 0 .7-.2l.8-.6c.3-.2.4-.4.5-.6l.2-.6-.3-.4-.6-.2h-.3zm-12 1.1h.6a4.6 4.6 0 0 1 3.3 2l1 2.3a8 8 0 0 1 0 3.5c-.1.6-.3 1.2-.6 1.7s-.6 1-1 1.4c-.7.7-1.4 1.2-2.2 1.3-.5.2-1 .2-1.5 0l-1.5-.7-1.1-1.1a4.6 4.6 0 0 1-.8-2.7v-1.1l.1-1v-.7c0-.2-.2-.5-.4-.6-.2-.1-.5-.2-.7-.1-.1 0-.2 0-.2-.2v-.7a4.6 4.6 0 0 1 .6-1.6l.5-.5 1-.5 1.3-.5a7 7 0 0 1 1.7-.2zm17.9-.2h.4v.2l.2.4.4 2.1.4 2-.2-.2-.6-.5-.8-.2-.8-.1h-.5a1.4 1.4 0 0 1-.4-.2l.5-.8a7.2 7.2 0 0 0 1.4-2.7zm-5.4.3h.3l-.6.5-.6.4v-.7l.3-.1.4-.1h.2zm-23.4 2.4h1a4.4 4.4 0 0 1 3 1.6 3 3 0 0 1 .6 2.2c0 .2-.2.3-.3.4l-.7.4-.4.2h-.7v-.2l-.1-.2v-.2l-.1-.2-.1-.4a1.4 1.4 0 0 0-.3-.5l-.4-.3h-.7c-.2 0-.4.2-.5.3l-.3.6-.1.8v.9c0 .3.3.6.4.9l.5.6.6.4h.5l.4-.2.4-.2.3-.3.2-.1a.7.7 0 0 1 .2-.1h.5l.5.3c.2.1.3.4.4.6l.2.5a3.3 3.3 0 0 1-.5 2.8c-.2.4-.5.7-1 1s-.8.5-1.3.6a4.4 4.4 0 0 1-3.6-.6 5 5 0 0 1-2-3l-.2-1.3v-2.7c0-.2 0-.3-.2-.4s-.4-.2-.7-.1h-.5v-.9c0-.3 0-.5.2-.8 0-.3.2-.5.3-.7l.3-.4 1.3-.6 1.6-.5 1.3-.2zm11-.2h-.2a.6.6 0 0 0-.2.1l-.4.5-.2.8a6.9 6.9 0 0 0 0 1.4v.6l.1.6.4 1c.1.2.4.3.7.2h.1l.2-.1c.5-.4.8-.9 1-1.4s0-1.2 0-1.8c-.2-.7-.5-1.2-.8-1.5l-.7-.4zm.6 1.2.3.4.3.8v1.3a1.6 1.6 0 0 1-.5 1l-.1-.3-.1-.2a4.8 4.8 0 0 1-.1-1.6v-.8l.2-.6zm-10 3.2v.1l.1.2.1.4.3.7c0 .3.3.4.5.5h.1v.2h-.2l-.3.3-.4-.5-.2-.6a2.4 2.4 0 0 1 0-1.3zm75.8-37c-3.8.3-7.6 1.2-10.6 4.1-4.1 4-7.1 10.7-7.8 16.1s1 13.3 4 19 7.4 9.2 12.5 10.5c10.3 2.5 18.6-7 20.2-20.5s-4.2-26.4-14.4-29a12 12 0 0 0-3.9-.2zm.2 2.2c1.1-.1 2.3 0 3.5.2 9.4 2.3 14.5 13.8 13 26.4s-8.9 21-18.3 18.7c-4.6-1.1-8.8-4.3-11.6-9.6s-4.2-12.7-3.6-17.3 3.3-11 7.1-14.7c2.9-2.7 6.3-3.4 9.8-3.7zm-8.4 78.8-.2.2v.4l.5 3.4v.4l-.1.2-.2-.1a1.2 1.2 0 0 1-.2-.5l-.5-3.3-.1-.4-.2-.1-.2.2v.4l.6 3.4.1.7.3.6c0 .2.2.3.3.3l.3.1s.2 0 .2-.2l.2-.3.3.3h.3s.2 0 .3-.2l.1-.4.1-.6v-.7l-.6-3.4-.1-.4-.2-.2-.2.2v.5l.5 3.3v.4l-.1.2h-.2a1.3 1.3 0 0 1-.2-.5l-.5-3.3-.1-.5c-.1-.2-.1-.1-.2-.1zm-2.5.4-.2.2-.2.5v1.2l.2.7.2.5.3.4h.6l.1.2.1.3V255l-.7.1-.2.2v.5l.1.4.2.1h.7l.3-.3.1-.4.1-.6v-.7l-.2-.6-.3-.6c0-.2-.2-.2-.3-.3l-.3-.1h-.4v-.4c0-.1-.1-.3 0-.4v-.2l.7-.2.1-.2v-.4l-.1-.4c0-.2-.1-.2-.2-.2zm4.2-.7-.1.2v.5l.7 4.6.1.4.2.1 1.1-.1.2-.3v-.4l-.2-.4-.2-.2-.8.2-.2-1.1.6-.1.1-.2v-.9l-.3-.2-.6.1-.1-1 .8-.2.1-.2v-.4l-.1-.5c-.1-.2-.1-.1-.2 0zm1.8-.3-.1.2c-.1.2 0 .3 0 .4l.7 4.6c0 .2 0 .4.2.5l.2.1 1-.2.2-.2v-.4c0-.1 0-.3-.2-.5h-1l-.2-1 .6-.2.2-.2v-.4l-.2-.4-.2-.2-.6.1-.1-1 .8-.2.1-.2v-.9l-.3-.1zm1.8-.3-.2.2v.4l.2.4.2.2h.4l.6 4 .2.4.2.1.1-.2v-.5l-.6-4h.4l.2-.2v-.5l-.2-.4-.2-.2zm7.4-1.3-.1.2c-.1 0 0 0 0 .2v.2l.2 1-.5-.1c-.2 0-.2.1-.3.2l-.2.5-.1.8a4.9 4.9 0 0 0 .6 2.4l.3.4.4.1c.1 0 .2 0 .3-.2l.2-.6a4.3 4.3 0 0 0 0-1.6l-.4-3c0-.1 0-.3-.2-.4l-.2-.1zm-2.3 1.8-.4.2-.2.6v1.6l.3 1.6v.4l.3.2.1-.2v-.5l-.2-1.7V251l.2-.1h.2l.2.2.1.4.1.4.3 1.6.1.4.2.1.1-.2v-.4l-.2-1.7a4.1 4.1 0 0 0-.5-1.5l-.4-.4a.4.4 0 0 0-.3 0zm-2 .4c-.2 0-.4.2-.5.4l-.2 1a6 6 0 0 0 0 1l.2.4v.4l.6 1c.2.2.4.3.5.2h.2l.2-.3.3.2.1-.2c.1-.2 0-.3 0-.4l-.2-1.7a4.9 4.9 0 0 0-.5-1.4 1.8 1.8 0 0 0-.3-.4l-.4-.2zm.1 1.2h.2l.2.2a2.1 2.1 0 0 1 .2 1.1v.4l-.1.2-.2.1h-.1l-.2-.2-.1-.3-.1-.4a2 2 0 0 1 0-.8v-.2l.2-.1zm4-.7h.2l.1.2.2.3v.4l.1.4v.4l-.1.2-.2.1h-.2l-.1-.2-.2-.3v-.4a2 2 0 0 1 0-.8v-.2l.2-.1zm-11 6.7v.7l.7 4.6v.5l.3.1.1-.2v-1.3h.2l.7 1.1.2.2.2-.2v-.5l-.2-.4-.4-.7.2-.8a4.8 4.8 0 0 0-.2-2l-.3-.7-.4-.4a.5.5 0 0 0-.4 0zm-1.2.3c-.1 0-.3 0-.3.2l-.3.5v1.6l.3 1.5c0 .3 0 .6.2.9l.3.6c0 .2.2.3.3.4l.4.1c.2 0 .3-.1.4-.3l.2-.8v-.2a1.1 1.1 0 0 0-.1-.6l-.2-.2-.2.1v.3a1 1 0 0 1 0 .3.5.5 0 0 1-.2.2h-.3l-.1-.2-.2-.3v-.4l-.3-1.5a2.2 2.2 0 0 1 0-.7l.1-.2.2-.1h.2l.2.3.1.3h.2l.1-.1a1.2 1.2 0 0 0 0-.7v-.1a2.1 2.1 0 0 0-.5-.7l-.3-.2h-.2zm3.3-.6-.2.2v.4l.5 3 .2.9.3.7.4.4c.1 0 .2.1.4 0l.3-.1.2-.5v-1.7l-.5-3-.1-.4-.2-.1-.1.2v.4l.4 3a2.3 2.3 0 0 1 0 .8v.2l-.2.1h-.2l-.2-.2-.1-.3-.1-.4-.5-3a1 1 0 0 0-.1-.5l-.2-.1zm4.7-.8c-.1 0-.2 0-.3.2l-.2.5-.1.8v.8l.3 1.5.2.9.3.6.4.4.3.1c.2 0 .4-.1.5-.3l.2-.8v-.4l-.2-.4-.2-.2-.1.1v.3a1 1 0 0 1-.2.3.5.5 0 0 1-.1.2h-.2l-.2-.2-.1-.3-.1-.4-.3-1.5a2.2 2.2 0 0 1 0-.7l.1-.2.2-.1h.3l.1.3.1.3h.2l.2-.1a1.2 1.2 0 0 0 0-.7l-.1-.1a2.1 2.1 0 0 0-.5-.7l-.3-.2h-.2zm1.3-.3-.1.2v.5l.7 4.6.1.5c.1.2.2.1.2 0l.2-.1v-.5l-.2-1.5.7-.1.3 1.5.1.4.2.2.1-.1v-.2l.1-.2v-.2l-.7-4.6-.2-.4-.2-.2-.1.2v.5l.3 1.8-.8.2-.3-1.9-.2-.4-.2-.2zm2-.3-.1.2v1.3l.2.6.2.6.3.4.3.3.3 1.8.1.4.2.1.2-.2v-.4l-.3-1.8.2-.3.1-.5V256.7l-.1-.9-.2-.4-.2-.1-.1.2c-.1.2 0 .3 0 .4l.1.9v.6c0 .2-.1.3-.2.3l-.3-.2a2 2 0 0 1-.2-.6l-.1-.8-.2-.5-.2-.1zm2-.3c-.2 0-.2 0-.2.2v.4l.4 3.1.2.4.2.2.1-.2v-.5l-.4-3a1.2 1.2 0 0 0-.2-.5c0-.1-.1-.2-.2-.1zm-7.3 1.3c-.1 0-.3 0-.3.2l-.2.5-.1.7v1l.5 3 .1.4c.1.1.2.1.2 0l.2-.1v-.5l-.5-3a2 2 0 0 1 0-.7l.1-.3H376.4l.2.2.2.3v.4l.5 3 .2.4.2.2.1-.3c.1-.2 0-.2 0-.4l-.5-3a4.7 4.7 0 0 0-.5-1.6l-.3-.4h-.4zm-4.3 2 .4-.1h.2l.1.2.2.3v.4l.1.4v.3l-.1.2-.2.1-.4.1zm12.2 1.3-.1.2c-.1.2 0 .3 0 .4l.1.4.2.2.2-.2v-.5c0-.2 0-.3-.2-.4l-.2-.1zm2.6-112.8-.4.4-.2.7-.4 8.5.1.7c.1.2.2.3.3.2l.4-.3.2-.8.2-3c0-.5.1-1 .3-1.3s.4-.5.6-.6c.2 0 .3 0 .4.2l.2.3.2.6v.7l-.2 3c0 .2 0 .5.2.7l.3.2c.2 0 .3-.1.4-.4l.2-.7.1-3v-1.6c0-.5-.2-.8-.4-1.1l-.5-.8c-.2-.2-.5-.2-.7-.2a1.4 1.4 0 0 0-1 .6l.2-2c0-.3 0-.5-.2-.7l-.3-.3zm-11.4 1.4-2.2.2c-.2 0-.3.2-.4.4l-.2.8-.5 8.3.1.8c.1.2.2.3.4.3s.3-.2.4-.4l.2-.8.1-2.5 1.2-.2.4-.3.2-.8-.1-.8c-.1-.2-.2-.3-.4-.3l-1.2.2.2-2.5 1.7-.2.4-.4a2.1 2.1 0 0 0 0-1.6c0-.2-.1-.3-.3-.2zm9.6 1.3-1.4.2c-.2 0-.3.1-.5.3l-.4.5c-.2.2-.2.6-.3.9a5 5 0 0 0 .1 2.6l.3.6c.1.2.3.1.5.1l.8-.1c.2 0 .2.1.2.4s0 .4-.2.4l-1.4.2c-.2 0-.3.2-.4.4l-.2.8.1.7.3.3 1.5-.2c.2 0 .3-.1.5-.3l.4-.6.3-.8a5 5 0 0 0 .1-1.9c0-.3 0-.5-.2-.7l-.3-.5a.6.6 0 0 0-.4-.2l-1 .1-.1-.4v-.4l.2-.1 1.4-.2s.2 0 .3-.3l.2-.8v-.7c0-.2-.3-.3-.4-.3zm-4.8.6c-.3 0-.5.2-.8.4s-.4.6-.6 1a7.8 7.8 0 0 0-.7 4.3c0 .5.2 1 .3 1.3l.6.8c.2.2.5.2.7.2l.6-.2.5-.6.1-.6v-.6l-.1-.4-.3-.2-.1.1-.2.2h-.1a.5.5 0 0 1-.3.1c-.3 0-.5-.2-.6-.8l2-.3c.2 0 .4 0 .5-.2l.2-.7a6.5 6.5 0 0 0-.5-2.7c-.1-.4-.3-.6-.5-.8s-.5-.3-.7-.3zm-2.4.3h-.1l-.8.5-.6.9a7 7 0 0 0-.7 2.7l-.2 3 .1.9c.1.2.2.2.3.2l.4-.4.2-.7.2-3a3.6 3.6 0 0 1 .3-1.3l.3-.4.4-.2.3-.4a1.9 1.9 0 0 0 .1-1.5l-.2-.3zm2.2 1.9.4.1.3.7-1.4.2c0-.4.2-.6.3-.8s.3-.2.4-.2z" fill="#a00"/><path d="M382.9 177.5h-.7l-1.2.3c-.7.2-1.1.4-1.4.8-.2 0-.3.3-.3.5l-.2.7v1.6l.2.7.4.5c.2.3.5.3.8.2a10.7 10.7 0 0 1 .2 1.5v1.2l.2 1.2.1 1 .4 1.4c.1.4.4.5.6.7s.5.2.8.2l.8-.1.7-.4c.3 0 .2-.2.3-.4l.1-.5v-.6l-.2-.6-.2-.5.4-.2.7-.3a4 4 0 0 0 1.8-2.7 6.2 6.2 0 0 0 0-2.6c0-.6-.3-1.1-.5-1.5l-.8-1.1a4 4 0 0 0-2.4-1h-.6zm-3.6 4.6a4.8 4.8 0 0 0-1.6-1.9 2.5 2.5 0 0 0-1.8-.2 4.8 4.8 0 0 0-2.2 1l-.5.6a5 5 0 0 0-.5 1.8 3.7 3.7 0 0 0-1.6-1.2 5.9 5.9 0 0 0-2.5-.3l-1.3.3c-.6.2-1 .4-1.4.8l-.3.5-.1.7v1.6c.1.6.3 1 .5 1.2s.5.3.8.3l.1.3.2 1.2v1.1l.2 1.2v1l.5 1.4c.2.4.4.5.6.7s.5.2.8.2l.8-.1.6-.3.4-.5v-1c0-.3 0-.5-.2-.7s0-.3-.1-.5l.4-.2.6-.3.9-.8.6-.8c.2-.3.2-.7.3-1v.2a6 6 0 0 0 1.4 2.8c.4.4.8.6 1.2.7s.8.2 1.2 0c.5-.1 1-.4 1.4-1s.8-1 1-1.8a10 10 0 0 0-.2-6.6l-.2-.4zm3.2-4c.5 0 1 0 1.6.3.5.1 1 .5 1.3.9s.7 1 .8 1.8v.4a4.3 4.3 0 0 1-.1 2 3.6 3.6 0 0 1-1.3 1.7l-.7.3-.3.2-.3.3-.1.3v.5l.1.7.2.5-.1.5-.4.2-.7.1c-.2.1-.4 0-.5-.1l-.4-.5-.2-.9-.2-1.2-.1-1.2v-1.2l-.2-1-.1-.4-.2-.4-.3-.2a.6.6 0 0 0-.4 0l-.2-.1-.1-.2a4 4 0 0 1-.2-1.6c0-.3 0-.5.2-.7l.5-.4.7-.3a5.9 5.9 0 0 1 1.7-.3zm-6.7 2.5h.6l1.2.6c.4.3.6.6.8 1.1l.6 1.9a9 9 0 0 1-.3 4.3c-.1.5-.3.9-.6 1.2-.4.6-.8 1-1.3 1.1h-1c-.3 0-.5-.3-.8-.6l-.7-1a5 5 0 0 1-.5-2.3v-2.3c0-.2 0-.4-.2-.4l-.4-.2h-.1v-1.4l.3-.6.3-.4a4.8 4.8 0 0 1 2-1zm7.7-.2a1.4 1.4 0 0 0-.7.2l-.3.4v.7l.2.3.1.3.2.2h.4c.4-.2.7-.4.8-.7s.3-.5.3-.8a.6.6 0 0 0-.2-.3l-.4-.2a1.1 1.1 0 0 0-.4 0zm.3 1h.5a.4.4 0 0 1-.1.2l-.2.2-.2.1-.2.1h-.1v-.2l-.1-.3h.2l.2-.1zm-15 1.1a4 4 0 0 1 1.7.3c.5.2 1 .5 1.3.9s.7 1 .8 1.8v.4a4.3 4.3 0 0 1-.1 2 3.6 3.6 0 0 1-1.4 1.7l-.6.3-.3.2-.3.3-.2.3v.6l.2.6.1.5v.5l-.5.2-.6.1-.5-.1-.4-.5-.3-.9a7 7 0 0 1-.1-1.2l-.1-1.2-.1-1.2a14 14 0 0 0-.2-1.4l-.2-.4-.3-.2h-.6l-.1-.3a4 4 0 0 1-.2-1.6c0-.3 0-.5.2-.7l.4-.4.8-.3a5.8 5.8 0 0 1 1.6-.3zm7.2 0h-.1a1 1 0 0 0-.2.5 4.4 4.4 0 0 0-.2 1.3v1l.1.6.3.7c0 .2.2.3.4.2h.1c.4-.4.6-.8.6-1.3v-1.4c0-.6-.3-1-.5-1.3s-.3-.3-.5-.3zm.5 1 .2.3.1.7v.2l.1.2v.7a1.4 1.4 0 0 1-.3.8l-.1-.2v-.2l-.1-.6V184l.1-.5zm-6.6 1.3a1.4 1.4 0 0 0-.7.2l-.3.4v.7l.1.3.2.3.2.2h.4l.8-.7c.2-.2.3-.5.2-.7a.6.6 0 0 0-.2-.4l-.3-.2a1.1 1.1 0 0 0-.4 0zm.3 1h.2l.3.1a.4.4 0 0 1-.2.2l-.2.1-.2.2H369.8v-.5h.2l.2-.1zm20.2 3.1h-.3l-.4.2c-.3 0-.5.2-.6.3l-.4.5-.2.4v.4l.3.7.4.6.4.5.3.6h-.1c-.1 0-.3 0-.4-.3l-.3-.8-.5-1-.5-.7-.4-.1h-1.1a3.7 3.7 0 0 0-1.4.5l-.5.6a4.2 4.2 0 0 0-.3 1v.2a3 3 0 0 0-1.4-.7c-.6-.2-1.2-.2-1.8 0l-2 .3-1 .4c-.3.1-.6.3-.7.5l-.4.5-.2.7v1.4-.2l-1-.9-1.2-.3-.7.1a4.8 4.8 0 0 0-2.2 1l-.4.6a5 5 0 0 0-.5 2 3.5 3.5 0 0 0-1.3-1.3l-1.2-.4c-.5 0-1 0-1.4.2l-1 .4-.9.6c-.2.1-.3.3-.4.6l-.3.9-.2 1v.8l.3.7c.2.1.4.2.7.1v1.5a7.4 7.4 0 0 0 .6 3.2c.3.5.6 1 1 1.3s.8.6 1.2.8 1 .1 1.5 0l1.1-.7c.3-.3.6-.7.8-1.2l.3-1.4v-1.5c0-.4-.2-.8-.4-1l-.6-.8.5-.6.2-.7V199.5h.3V201.3a6.3 6.3 0 0 0 .5 3c.3.5.6.9 1 1.2.3.4.6.6 1 .8s.9.1 1.3 0c.5-.2 1-.6 1.4-1s.7-1.2 1-1.9l.4-2.3a9.5 9.5 0 0 0-.4-3.7h.3l.2.3v.5c.2.5.2 1.1.3 1.8l.1 2.2v.4a4.5 4.5 0 0 0 .3 1l.4.6c.2.2.4.2.7.3s.6 0 1-.1l.6-.4.4-.4.1-.4.1-.4a5.4 5.4 0 0 0-.1-1.3l-.2-.6v-.5l.4.7.7 1.2.5.6.5.4h.5c.2 0 .5-.3.7-.6a4.4 4.4 0 0 0 .8-2.2v-.7l.2.6c0 .4.2.8.4 1.1s.5.5.8.6.7.1 1.2 0l.5-.3a1.6 1.6 0 0 0 .6-.9v-.5c0-.2 0-.4-.2-.7l-.3-.8-.2-.3-.2-.4-.1-.4-.1-.4v-.1l.2.2.2.5.3.8.3.8.3.7c0 .2.2.3.3.4.2.3.6.4 1 .3l.4-.2.4-.2a2 2 0 0 0 .5-.7c.2-.3.3-.8.4-1.3l.1-1.6a17.2 17.2 0 0 0-1-6.5c-.3-.4-.5-.8-.8-1s-.5-.5-.8-.5h-.3zm-.6.6h.4l.6.5c.2.4.5.9.6 1.4a16.4 16.4 0 0 1 .8 5c0 .6 0 1-.2 1.5l-.3 1.2-.3.3c-.2.1-.3.3-.5.3h-.4l-.2-.3-.3-.5-.2-.7-.3-.9-.4-.7-.4-.5h-.5c-.2 0-.3.2-.4.4v.8c0 .2 0 .5.2.7l.3.8.4.8.2.6a.9.9 0 0 1-.3.4l-.4.2-.6.1-.4-.1c-.2-.2-.4-.5-.5-1l-.4-1.5-.2-1-.1-1-.1-.8-.2-.7c0-.5-.2-.8-.3-1-.1-.3-.2-.4-.4-.3a2.3 2.3 0 0 0-.3-.7v-1a1 1 0 0 1 .2-.4.7.7 0 0 1 .3-.3l.5-.2.5-.1h1.1c.2 0 .3.2.4.4l.3.7.3.7c0 .3.2.5.3.6l.4.5h.6l.3-.2.3-.3v-.6l-.2-.6-.5-.6-.4-.6-.3-.6c0-.1 0-.2.2-.3l.4-.3h.4zm-8.2 2.8h.8l1.1.5c.3.2.5.6.6 1a4 4 0 0 1-.2 1.5l-.3.7-.3.5-.4.7a.8.8 0 0 0 0 .5l.2.5.5.2.4.1.5.1.4.2.2.4v.9c0 .4 0 .7-.2 1v.3l-.2.3-.2.2a.8.8 0 0 1-.3.2l-.3-.1-.4-.4a6.8 6.8 0 0 1-.4-.6l-.4-.7-.5-.8-.3-.5-.3-.2h-.3s-.2 0-.2.2l-.1.3v.8l.1.6.2.7v1l-.1.5c-.1.2-.3.2-.5.3l-.7.1-.5-.1a1 1 0 0 1-.2-.4 6.3 6.3 0 0 1-.1-.8v-1l-.1-1-.1-1a12.1 12.1 0 0 0-.1-1.1c-.1-.6-.3-1-.5-1.4s-.4-.4-.6-.3h-.1l-.1-.2a3.5 3.5 0 0 1-.3-1.8c0-.3.1-.6.3-.8l.6-.4.8-.3a8.8 8.8 0 0 1 2.6-.4zm-.1 1.7h-.2l-.4.1h-.2v.2l-.2.1v.2a4.6 4.6 0 0 0 0 1.2c0 .2 0 .3.2.4h.2l.5-.2.4-.5c.1-.1.3-.3.3-.5.1-.2.2-.3.1-.5l-.2-.3-.3-.1h-.2zm-7.2 1h.3c.4 0 .8.2 1.1.5s.7.6 1 1.1.4 1.2.5 2a9 9 0 0 1-.3 4.2c-.1.5-.3.9-.6 1.2-.4.6-.9 1-1.3 1-.3.2-.6.2-1 0l-.8-.5-.7-1a4.8 4.8 0 0 1-.5-2.3V199.5a3.1 3.1 0 0 0 0-.6l-.2-.5a.6.6 0 0 0-.5 0l-.1-.2v-.6l.1-.7.3-.7c0-.2.2-.3.2-.3l.7-.5a3.9 3.9 0 0 1 1.8-.5zm10.8-.2h.3v.5a24.8 24.8 0 0 1 .6 3.5l-.1-.2-.4-.4-.5-.2-.5-.1h-.3a.8.8 0 0 1-.2-.1l.3-.7.4-1c.1-.3.3-.6.3-1v-.3zm-3.2.2-.2.4-.4.4V195.2l.2-.1h.2l.2-.1zm-14.3 1.8h.7l1 .6.7.8a3 3 0 0 1 .4 1.5v.4s0 .2-.2.3l-.3.3-.3.2h-.4v-.2l-.1-.1v-.4l-.1-.3-.2-.4-.2-.2c-.1 0-.3-.1-.4 0l-.4.2-.2.5v1.4l.3.7.3.6.3.3h.3l.3-.1.2-.3.2-.2h.1a.4.4 0 0 1 .1-.2h.4l.2.3.3.5.1.5a3.6 3.6 0 0 1-.2 2.2l-.6.9c-.2.3-.5.4-.9.5a2 2 0 0 1-1.1 0c-.4 0-.7-.3-1-.6l-.9-1c-.3-.5-.3-1-.4-1.5a6.8 6.8 0 0 1-.1-2V200.7l-.2-.4c-.2-.2-.2-.1-.4 0H364.6V199.5l.1-.7.2-.5.2-.4.7-.5 1-.4.8-.2zm6.7 0h-.1l-.1.1a.8.8 0 0 0-.3.4 4.4 4.4 0 0 0-.1 1.3v1a3.8 3.8 0 0 0 .3 1.3c.1.2.3.3.5.2h.1c.3-.4.5-.8.6-1.3s0-1 0-1.4a2.8 2.8 0 0 0-.5-1.3c-.1-.2-.3-.3-.4-.3zm.4 1 .1.3.2.7v1.5l-.3.4v-.4a5.6 5.6 0 0 1-.2-1.3v-.7l.2-.5zm-6 2.6V201l.2.5c0 .2.2.4.3.5h.1v.1h-.1v.1l-.2.2-.2-.4-.2-.5a2.5 2.5 0 0 1 0-1z" fill="#a00"/><g><path d="m390.2 267.9-.5-.1c-.4-.2-1-.3-1.8-.4-2.9-.4-3.6-.3-5.4 1-2.3 1.7-2.8 3-2 4.3.6 1 0 5.5-1 5.8-1.3.5-1.6 4.2-.4 6.1.7 1 1.9 2 2.7 2.2 1.8.4 6.7.2 8.9-.4.8-.2 2.4-.3 3.6-.2 2.8.3 3.3 0 4.3-2.8 1-3-.2-6.8-3-9a14.2 14.2 0 0 1-3.2-4c-.8-1.6-1.1-2.2-2.2-2.5z"/><path d="m362.6-142 1.3.5c2.6 1 2.9 1.5 3.4 4 .7 4 .1 6.6-1.6 6.8-.7 0-1.4.4-1.5.9s.2.8.9.7.3 0-.6.5c-2.3 1-2.4 2-.3 2 1.3 0 1.6.4 1.2 1.9-.3 1-1 1.7-1.5 1.4-.5-.3-1 0-1 .5 0 .6-1.4 1-3 .8-2.4-.2-3.3-.6-3.7-1.8-.6-1.5-.8-1.4-1.7.2-.6 1-1.5 1.8-2.1 1.6-1.5-.4-2.1-2.2-.7-1.9.7.2.6-.2-.1-.9-1.6-1.6-1-3.2 1.5-4.1 1.6-.6 2-1 1.4-2-.4-.7-.5-2-.2-3s.2-2.9-.2-4c-.7-2-.5-2.3 1.9-3.8 1.7-1 2.5-1.3 4.4-.9l2.2.7z" fill="url(#S)" transform="rotate(-1.6 13499.3 -4252.2) scale(.73163)"/><path d="M369.4-134.8h.1l1.5 1.3c2.4 2.2 5 8.2 4.1 9.8-.3.6-1.5 1.5-2.6 1.9-1.7.5-2 .4-3.4-1.5-1.7-2.4-.5-3.6 1.5-1.5.7.8 1.5 1.4 1.8 1.2.8-.5-1.6-6-3-7-.9-.5-1.2-1.6-.9-2.7.3-1 .4-1.4.8-1.5z" fill="url(#T)" transform="rotate(-1.6 13499.3 -4252.2) scale(.73163)"/></g><g><path d="M412.7 598.4c-1.7.6-4.3 1.6-4 3.8.6 1.5 2.4 2.2 3.5 3.2 5 3.7 10.3 7 15.4 10.7 1.4 4.2 3.3 8.3 4.4 12.6-4.4.4-9 .6-13.3 1.8-3.5 1-7 2.7-9.3 5.5.2 1.3-.4 3 .7 4 1.1 4.4 1.4 9.2 2.2 13.8 2.3 17.8 4 35.6 5.6 53.4 1.1 1.2 3 1.3 4.4 1.8a55.5 55.5 0 0 0 25.4 1.2l7.2-1.5c.4-2 0-4.3.1-6.3-.1-11.7-.2-23.3.9-35 1.1-8.9 2.4-17.9 4.6-26.6.3-.8 1-1.5.7-2.4a4.3 4.3 0 0 0-2.1-4.3c-5-2.9-10.7-4.3-16.5-4.8l-5-.2a271.5 271.5 0 0 0-5.5-16.6 284.2 284.2 0 0 0-19.2-14.1h-.2z" filter="url(#U)" opacity=".5" transform="translate(-353.7 -736.5) scale(1.4345)"/><path d="M225.6 124.3c-.7-1.4-.5-2.7.4-3.8 1-1.1 2.6-2 5.2-2.8l11.7 8.4c4.2 3.2 10.8 7.8 13.6 10.4 2.8 2.3 1.4 0 3 4.3 1.7 4.3 4 11.2 7 21.1a60.9 60.9 0 0 1 27.7 5.4c3.3 1.5 5.2 3.1 5.8 4.8l.4 4.6-1.1.8a372.4 372.4 0 0 0-6.8 39c-1.3 11.7-1.2 21.3-1.3 31.3a431.2 431.2 0 0 0 .4 27.7 88.4 88.4 0 0 1-27.2 3.7 79.4 79.4 0 0 1-25.8-5 1389.8 1389.8 0 0 0-11-97.3l-1.2-.5V172c2-3.4 5.7-5.8 11.2-7.6a78.2 78.2 0 0 1 21.6-3l-6.8-18.7c-4.5-3-9-6-13.5-9.2a1207 1207 0 0 1-13.3-9.3z" fill-rule="evenodd"/><path d="M407 596.3a6 6 0 0 0-2.5 1.5c-.5.6-.5 1.6-.3 1.9.4.2 1.5 0 2-.3.4-.3.7-1 1-1.6a4 4 0 0 0 .2-1.5h-.4z" fill="url(#V)" fill-rule="evenodd" transform="translate(-353.7 -736.5) scale(1.4345)"/><path d="M405.4 600.5c1 0 1.7-.2 2.2-.7.5-.5.9-1.3 1-2.3L426 610l7.8 23.4c-1 .4-1.6.5-2.2.3s-1-.8-1.3-1.6l-7.2-18.8 2.9.4c-.1-.1-1-.5-3-1l2.2-.8-2.5.3c.8-1.4 1.2-2.1 1.1-2.2l-1.4 2-17-11.7z" fill="url(#W)" fill-rule="evenodd" transform="translate(-353.7 -736.5) scale(1.4345)"/><path d="m432.6 627.2.4 1.5c2-.3 4.3-.1 7 .2a72 72 0 0 1 8.5 2.1c.2.2-4.8-.9-7.3-1.1a62.5 62.5 0 0 0-7.8-.3l1.1 3.4c.4 0 .7-.2.7-.7 0-.4-.7-1.7-.5-1.8.2-.1 1.3.9 1.5 1.3.3.4.2.8 0 1.3-.5.5-1.1 1.5-2.3 1.7-1.2.1-4.2-.5-5-.9-.8-.4-.6-1 .4-1.6l-.6-2.7a20.6 20.6 0 0 0-5.8 0c-2 .3-5.9 1.6-6.2 1.6-.4-.1 2-1.5 4-2 1.9-.5 4.3-.8 7.3-1l-.6-1c-3.4 0-6.5.2-9.6.8a41.5 41.5 0 0 0-8.6 2.8c-1.9.8-2.8 1.8-2.6 2.5.1.5 1 .6 3.4 1.1 2.4.6 6.1 1.8 11 2.1 4.8.3 12.6.1 17.6-.2a81.7 81.7 0 0 0 12-2.1c2.4-.6 2.9-.8 2.6-1.5-.3-.7-2.2-1.8-4.4-2.7-2.2-1-6-2-8.6-2.5a25.9 25.9 0 0 0-7.6-.3z" fill="url(#X)" fill-rule="evenodd" transform="translate(-353.7 -736.5) scale(1.4345)"/><path d="m231.4 177.6-.6-3 3.6.7.4 2.1 2.4.6.6-1.7 3.5.5.6 2.3 2.6.5 1-2.2 4.5.7.5 2.5 3.6.2 1-2.5 4 .2 1 2.4h3.2l1-2.6 4.4.2.7 2 3.2-.1.8-2.4 4-.2 1 1.6 3.8-.5.6-2 3.3-.8 1.7 1.9 2.6-.8 1.4-2.4 2.6-.8 1.7 1.7 2-.5-.2 1.8a184.1 184.1 0 0 1-26.6 4.9c-5.5.5-11 1.2-17.6.6a121 121 0 0 1-22.3-5z" fill="silver" fill-rule="evenodd"/><path d="M406.2 637.7a19 19 0 0 0 7.8 2.6c4 .7 10 1.8 15.8 1.7 5.9-.1 15-1.7 19-2.3 4-.7 5-1.5 5-1.5s-.9 2-1.4 5c-.5 2.9-.7 4-1 7.6-4.4 6.8-10 11-16.9 13.1-7 2-15 1.7-24.5-1l-1-7-2.8-18.2z" fill="url(#Y)" fill-rule="evenodd" transform="translate(-353.7 -736.5) scale(1.4345)"/><path d="M410.3 664.4c2.9 1.2 6.3 1.8 10.5 2 4.3.1 9.5 1 14.5-1 5-1.8 10-5.1 15.2-10.1a247 247 0 0 0-1.7 18.4 156.7 156.7 0 0 0-.1 15.8 52.9 52.9 0 0 1-18.9 3.6 42.2 42.2 0 0 1-17.3-3.7l-.7-8.4-1.5-16.6z" fill="url(#Z)" fill-rule="evenodd" transform="translate(-353.7 -736.5) scale(1.4345)"/><path d="M412.5 690.7c-.2.4 1.2 1 4.2 1.8s8.3 2.8 13.7 2.7c5.3-.1 11.3-1.3 18.1-3.5l-.2 10.4a55 55 0 0 1-16.9 2.7A61.7 61.7 0 0 1 414 702a90.7 90.7 0 0 0-1.4-11.3z" fill="url(#aa)" fill-rule="evenodd" transform="translate(-353.7 -736.5) scale(1.4345)"/></g><g><path transform="matrix(-.41078 0 0 .41078 356.6 158.8)" d="m153.8 290.7 180-105.5c18.2-17.5 48.2 18.8 50 33.6 1.1 13-10.5 32-23.5 31.5-14.9-.7-23.6-37.9-23.6-37.9l-77.4 74.2-79.2 83.5z" filter="url(#ab)" opacity=".3"/><path d="m624.3 276.4-191-100.9C415 158 385 194.4 383.2 209.2c-1.1 13 10.5 32 23.6 31.4 14.8-.6 23.5-37.8 23.5-37.8l78.6 65.7 80.4 102.8z" fill="url(#ac)" transform="translate(39.5 158.8) scale(.41078)"/><path d="m150.5 294.5 183.2-109.3c18.3-17.5 48.3 18.8 50.1 33.7 1.1 13-10.5 32-23.6 31.4-14.8-.7-23.5-37.9-23.5-37.9l-77.4 74.2-79.2 83.6z" filter="url(#ab)" opacity=".3" transform="translate(39.5 158.8) scale(.41078)"/><path d="m147.6 276.4 191-100.9c18.3-17.5 48.2 18.9 50 33.7 1.1 13-10.5 32-23.5 31.4-14.9-.6-23.6-37.8-23.6-37.8l-78.6 65.7-80.4 102.9z" fill="url(#ad)" transform="translate(39.5 158.8) scale(.41078)"/><path d="M464.8 288.8h84a19.8 19.8 0 0 1 19.8 19.8v23.3a19.8 19.8 0 0 1-19.8 19.8h-84a19.8 19.8 0 0 1-19.8-19.8v-23.3a19.8 19.8 0 0 1 19.8-19.8" fill="url(#ae)" transform="translate(39.5 158.8) scale(.41078)"/><path d="M214 288.8h84a19.8 19.8 0 0 1 19.9 19.8v23.3a19.8 19.8 0 0 1-19.8 19.8h-84a19.8 19.8 0 0 1-19.8-19.8v-23.3a19.8 19.8 0 0 1 19.8-19.8" fill="url(#af)" transform="translate(39.5 158.8) scale(.41078)"/><path transform="matrix(.39657 0 0 .41078 44.2 158.8)" d="M146 280.5v89.3h11.8l5.1 8.5H346c28.7-1 4.3-36.2 36-36.4s12 37.6 42.6 36.4h183.7l6.2-8.5 10.8.1v-89.4zm69.1 14.3h84a19.8 19.8 0 0 1 19.7 19.8v23.2a19.8 19.8 0 0 1-19.7 19.8h-84a19.8 19.8 0 0 1-19.8-19.8v-23.2a19.8 19.8 0 0 1 19.8-19.8zm250.7 0h84a19.8 19.8 0 0 1 19.8 19.8v23.2a19.8 19.8 0 0 1-19.8 19.8h-84a19.8 19.8 0 0 1-19.8-19.8v-23.2a19.8 19.8 0 0 1 19.8-19.8z" filter="url(#ag)" opacity=".6"/><path d="M145 274.5v89.3h11.8l5.1 8.5H345c28.7-1 4.3-36.2 36-36.4s12 37.6 42.6 36.4h183.7l6.2-8.5 10.8.1v-89.4zm69.1 14.3h84a19.8 19.8 0 0 1 19.7 19.8v23.2a19.8 19.8 0 0 1-19.7 19.9h-84a19.8 19.8 0 0 1-19.8-19.9v-23.2a19.8 19.8 0 0 1 19.8-19.8zm250.7 0h84a19.8 19.8 0 0 1 19.8 19.8v23.2a19.8 19.8 0 0 1-19.8 19.9h-84a19.8 19.8 0 0 1-19.8-19.9v-23.2a19.8 19.8 0 0 1 19.8-19.8z" fill="url(#ah)" transform="translate(39.5 158.8) scale(.41078)"/><path d="M214 288.8h84a19.8 19.8 0 0 1 19.9 19.8v23.3a19.8 19.8 0 0 1-19.8 19.8h-84a19.8 19.8 0 0 1-19.8-19.8v-23.3a19.8 19.8 0 0 1 19.8-19.8" fill="url(#ai)" opacity=".2" transform="translate(39.5 158.8) scale(.41078)"/><path d="M464.8 288.8h84a19.8 19.8 0 0 1 19.8 19.8v23.3a19.8 19.8 0 0 1-19.8 19.8h-84a19.8 19.8 0 0 1-19.8-19.8v-23.3a19.8 19.8 0 0 1 19.8-19.8" fill="url(#aj)" opacity=".2" transform="translate(39.5 158.8) scale(.41078)"/></g></svg>