<svg width="162" height="182" viewBox="0 0 162 182" fill="none" xmlns="http://www.w3.org/2000/svg">
<g opacity="0.6">
<path d="M133.964 79.625C133.964 80.7296 134.86 81.625 135.964 81.625H144.643C153.153 81.625 160 88.4043 160 96.6875V164.938C160 173.221 153.153 180 144.643 180H17.3571C8.8467 180 2 173.221 2 164.938V96.6875C2 88.4043 8.8467 81.625 17.3571 81.625H26.0357C27.1403 81.625 28.0357 80.7296 28.0357 79.625V54.0312C28.0357 25.3797 51.7695 2 81 2C110.231 2 133.964 25.3797 133.964 54.0312V79.625ZM107.036 81.625C108.14 81.625 109.036 80.7296 109.036 79.625V54.0312C109.036 38.7824 96.428 26.4375 81 26.4375C65.572 26.4375 52.9643 38.7824 52.9643 54.0312V79.625C52.9643 80.7296 53.8597 81.625 54.9643 81.625H107.036Z" stroke="#7141B7" stroke-width="4" stroke-linejoin="round"/>
<path d="M72.1998 133.116C72.1998 132.508 71.924 131.934 71.45 131.555C68.4845 129.18 66.7998 126.238 66.7998 123.601C66.7998 120.897 68.2842 118.183 70.91 116.08C73.5256 113.986 77.1348 112.627 80.9998 112.627C84.8648 112.627 88.474 113.986 91.0896 116.08C93.7154 118.183 95.1998 120.897 95.1998 123.601C95.1998 126.238 93.5151 129.18 90.5496 131.555C90.0756 131.934 89.7998 132.508 89.7998 133.116V145.225C89.7998 147.213 88.9955 148.801 87.5796 149.935C86.1252 151.1 83.9011 151.874 80.9998 151.874C78.0985 151.874 75.8744 151.1 74.42 149.935C73.0041 148.801 72.1998 147.213 72.1998 145.225V133.116Z" stroke="#7141B7" stroke-width="4" stroke-linejoin="round"/>
</g>
</svg>
