<svg width="33" height="23" viewBox="0 0 33 23" fill="none" xmlns="http://www.w3.org/2000/svg">
<path d="M15.0713 0.888895C12.1847 0.888895 10.1273 1.76356 8.64867 3.23556C7.20867 4.6729 6.414 6.58756 5.842 8.47823L4.91133 11.5582H1.78066C1.51545 11.5582 1.26109 11.6636 1.07356 11.8511C0.886019 12.0387 0.780663 12.293 0.780663 12.5582C0.780663 14.3489 1.79933 15.8689 3.278 16.6916L2.49266 18.6009C2.32899 18.9992 2.26586 19.4317 2.30885 19.8602C2.35183 20.2887 2.49962 20.7 2.73916 21.0578C2.9787 21.4157 3.30264 21.7091 3.68239 21.9122C4.06214 22.1152 4.48603 22.2217 4.91666 22.2222H7.842C8.858 22.2222 9.78067 21.6342 10.2127 20.7156L11.1553 18.7102C13.782 19.0742 16.446 19.0782 19.074 18.7236L20.01 20.7142C20.2212 21.1648 20.5563 21.5458 20.9761 21.8129C21.3959 22.0799 21.8831 22.2219 22.3807 22.2222H25.2767C25.7077 22.2227 26.1321 22.1169 26.5124 21.9141C26.8927 21.7113 27.2171 21.4178 27.4568 21.0596C27.6966 20.7015 27.8442 20.2897 27.8868 19.8608C27.9293 19.4319 27.8654 18.9992 27.7007 18.6009L26.9953 16.8889H30.1113C31.462 16.8889 32.778 15.8449 32.778 14.3742V12.8889C32.778 10.6156 30.8047 8.8929 28.5353 8.8929H24.6047L24.4793 8.47956C23.902 6.57023 23.062 4.65823 21.5753 3.22623C20.054 1.7609 17.9607 0.888895 15.0713 0.888895ZM26.418 14.8889L25.2087 10.8916H28.5353C29.8487 10.8916 30.778 11.8622 30.778 12.8876V14.3729C30.778 14.5542 30.5513 14.8876 30.1113 14.8876H26.418V14.8889ZM24.9953 17.2809L25.8513 19.3609C25.8902 19.4554 25.9053 19.558 25.8952 19.6596C25.8852 19.7613 25.8503 19.859 25.7937 19.944C25.7371 20.0291 25.6604 20.0989 25.5705 20.1474C25.4806 20.1959 25.3802 20.2216 25.278 20.2222H22.3807C22.263 20.2219 22.1479 20.1882 22.0488 20.1249C21.9496 20.0616 21.8705 19.9714 21.8207 19.8649L21.1193 18.3716C22.4349 18.0976 23.73 17.7332 24.9953 17.2809ZM9.11267 18.3529L8.40333 19.8649C8.3534 19.9717 8.27408 20.062 8.17466 20.1253C8.07525 20.1885 7.95985 20.2222 7.842 20.2222H4.91666C4.81467 20.2215 4.7144 20.1958 4.62464 20.1474C4.53487 20.099 4.45835 20.0292 4.40178 19.9444C4.3452 19.8595 4.31028 19.7621 4.3001 19.6606C4.28991 19.5591 4.30475 19.4567 4.34333 19.3622L5.186 17.3089C5.28466 17.3222 5.386 17.3302 5.486 17.3369C6.67162 17.7537 7.88306 18.0931 9.11267 18.3529ZM4.30733 13.5569L3.94466 14.7529C3.52151 14.4493 3.18952 14.0357 2.98466 13.5569H4.30733ZM7.75667 9.0569C8.29933 7.25823 8.97667 5.7329 10.0607 4.6529C11.1087 3.6089 12.6287 2.8889 15.0713 2.8889C17.5207 2.8889 19.0927 3.61156 20.186 4.6649C21.31 5.7489 22.026 7.27556 22.5647 9.0569L24.4673 15.3449C18.4564 17.5335 11.8663 17.5335 5.85533 15.3449L7.75667 9.0569Z" fill="white"/>
</svg>
