<svg xmlns="http://www.w3.org/2000/svg" width="175.878mm" height="194.981mm" viewBox="0 0 498.553 552.702">
  <title>автор (песня, поэт, мелодия)</title>
  <g>
    <path d="M417.212,80.4C216.625,174.617,124.339,264.21,188.726,312.163S566.652,480.082,632.25,432.891,617.8-13.816,417.212,80.4Z" transform="translate(-168.439 -29.618)" fill="#e6e5bd"/>
    <g>
      <path d="M557.7,525.945c41.654-7.547,68.019-15.893,68.019-15.893s-87.813-27.8-196.136-27.8-196.136,27.8-196.136,27.8,19.671,6.226,51.865,12.785c-70.076,10.2-116.873,25.019-116.873,25.019S277.293,582.32,411.572,582.32,654.7,547.856,654.7,547.856,616.61,535.8,557.7,525.945Z" transform="translate(-168.439 -29.618)" fill="#e6e5bd"/>
      <g>
        <path d="M322.706,511.358h23.882l4.19-32.21H511.619l6.009,32.21h30.325l-15.109-93.275h13.74V388.968H331.171v29.115h4.936Zm36.015-93.275H500.226l9.665,51.8H351.983Z" transform="translate(-168.439 -29.618)" fill="#a24027"/>
        <path d="M524.487,465.078c-1.152-13.826-6.707-37.579,8.709-44.822l-.352-2.173h13.74V414.59H331.171v3.493h4.936l-13.4,93.275h23.882l4.19-32.21H511.619l6.009,32.21h16.624A146.709,146.709,0,0,1,524.487,465.078Zm-172.5,4.808,6.739-51.8H500.226l9.665,51.8Z" transform="translate(-168.439 -29.618)" fill="#842e1b"/>
        <g>
          <ellipse cx="191.362" cy="366.039" rx="23.441" ry="1.861" fill="#842e1b"/>
          <ellipse cx="218.297" cy="377.159" rx="14.503" ry="1.861" fill="#842e1b"/>
          <ellipse cx="277.67" cy="379.262" rx="14.503" ry="1.861" fill="#842e1b"/>
          <ellipse cx="305.619" cy="373.908" rx="14.503" ry="1.861" fill="#842e1b"/>
          <ellipse cx="360.405" cy="379.262" rx="14.503" ry="1.861" fill="#842e1b"/>
          <ellipse cx="350.032" cy="370.848" rx="14.503" ry="1.861" fill="#842e1b"/>
        </g>
      </g>
      <g>
        <path d="M368.816,311.9s7.814-56.908,16.228-71.17l13.372,11.349s-9.874,37.636-11.69,54.928Z" transform="translate(-168.439 -29.618)" fill="#4a1710"/>
        <path d="M560.625,235.485c1.409-.766,3.484-.481,4.2.951.692,1.375-.09,2.988-.667,4.415-1.783,4.409-1.572,9.33-1.456,14.084a1.688,1.688,0,0,1-.818,1.79l-4.379,3.409C557.837,253.445,552.59,239.853,560.625,235.485Z" transform="translate(-168.439 -29.618)" fill="#f47d72"/>
        <path d="M499.687,550.892a101.713,101.713,0,0,0,29.833,11.9,7.859,7.859,0,0,0,3.053.258,8.2,8.2,0,0,0,3.452-1.883l15.248-11.878c-4.629-6.26-13.434-27.224-15.811-34.638a9.63,9.63,0,0,0-1.63-3.5,7.674,7.674,0,0,0-2.251-1.638c-7.852-4.179-17.626-3.983-25.8-.464C492.732,514.672,502.812,539.571,499.687,550.892Z" transform="translate(-168.439 -29.618)" fill="#e71d33"/>
        <path d="M516.112,538.467c-3.606,1.2-6.011,6.01-8.415,7.212-2.458,1.639-4.917.484-7.376-.8a22.727,22.727,0,0,1-.635,6.01,101.714,101.714,0,0,0,29.833,11.9,7.859,7.859,0,0,0,3.053.258,8.194,8.194,0,0,0,3.452-1.883l15.248-11.878a50.941,50.941,0,0,1-3.727-6.312,30.038,30.038,0,0,1-4.988,2.706C538.952,534.861,524.527,536.063,516.112,538.467Z" transform="translate(-168.439 -29.618)" fill="#fff"/>
        <path d="M301.926,512.2c-3.387,1.52-6.9,2.877-9.873,5.1-7.824,5.854-7.644,9.705-9.748,19.215,16.829,3.471,30.459,8.844,45.629-.235,8.1-4.849,15.276-13.88,24.6-12.408,2.1.332,4.281,1.21,6.281.481a8.37,8.37,0,0,0,3.408-2.982l6.024-7.634a3.8,3.8,0,0,0,.539-5.167l-4.878-9.882c-9.793-2.852-25.3-8.1-35.173-3.6C319.3,499.387,311.726,507.8,301.926,512.2Z" transform="translate(-168.439 -29.618)" fill="#e71d33"/>
        <path d="M368.788,508.569l-4.878-9.882c-9.793-2.852-25.3-8.1-35.173-3.6a47.351,47.351,0,0,0-6.336,3.573,18.39,18.39,0,0,1,8.589,2.543,90.666,90.666,0,0,0,34.861,10.819,25.477,25.477,0,0,1,3.152.663,3.418,3.418,0,0,0,.534-1.414A5.074,5.074,0,0,0,368.788,508.569Z" transform="translate(-168.439 -29.618)" fill="#a61e22"/>
        <path d="M339.4,518.032c-6.01,3.606-10.819,10.819-19.233,10.819,0-7.213-4.808-12.021-9.617-14.425a34.6,34.6,0,0,0-8.607-2.236l-.021.01c-3.387,1.52-6.9,2.877-9.873,5.1-7.823,5.854-7.644,9.706-9.748,19.215,16.829,3.471,30.459,8.844,45.629-.235,8.1-4.849,15.276-13.88,24.6-12.407,2.1.332,4.281,1.21,6.281.48a8.37,8.37,0,0,0,3.408-2.982l3.747-4.748C357.278,516.9,348.082,514.876,339.4,518.032Z" transform="translate(-168.439 -29.618)" fill="#fff"/>
        <path d="M504.418,327.421s28.244,50.625,13.093,62.679c-20.9,16.624-78.634,4.717-78.634,4.717l5.667-32.074,40.465-37.9Z" transform="translate(-168.439 -29.618)" fill="#11151f"/>
        <path d="M327.151,491.447l-2.7-6.118,8.106-5.79c6.056-7.949,9.572-67.147,9.731-70.5.348-14.869.389-29.768.482-44.766.022-3.508.058-7.1,1.29-10.385,1.324-3.532,3.918-6.416,6.455-9.207,5.561-6.119,11.865-12.636,20.08-13.577,6.928-.794,13.789,2.737,18.669,7.718a39.511,39.511,0,0,1,11.3,27.242c-13.531,40.554-21.148,75.236-28.681,117.319-.715,3.994,3.649,9.986,4.787,13.88a4.946,4.946,0,0,1-1.6,6.154l-6.659,6.983c-23.589-11.985-35.012-11.6-35.012-11.6l-14.349,2.356Z" transform="translate(-168.439 -29.618)" fill="#2c3045"/>
        <path d="M371.877,483.381c7.533-42.083,15.15-76.765,28.681-117.319a39.511,39.511,0,0,0-11.3-27.242,27.531,27.531,0,0,0-9.581-6.438c-17.926,24.3-29.458,54.014-23.447,87.078,3.606,15.627,8.415,48.084-10.819,58.9-2.4,1.2,7.212,7.212,10.819,12.021-11.437-5.719-21.363-1.612-30.976,3.329l-6.213,7.441,14.349-2.356s11.423-.385,35.012,11.6l6.659-6.983a4.946,4.946,0,0,0,1.6-6.154C375.525,493.366,371.162,487.375,371.877,483.381Z" transform="translate(-168.439 -29.618)" fill="#242738"/>
        <path d="M526.152,287.622c11.388,11.969,28.663-13.119,28.663-13.119s-28.549-44.933-30.152-45.634-25.19,9.242-25.19,9.242S514.345,275.213,526.152,287.622Z" transform="translate(-168.439 -29.618)" fill="#f79e83"/>
        <path d="M533.479,285.068c-19.838-7-22.679-35.524-.834-44.884-4.2-6.345-7.47-11.091-7.982-11.315-1.6-.7-25.19,9.242-25.19,9.242s14.871,37.1,26.679,49.511c6.034,6.342,13.719,2.28,19.613-2.941C541.74,286.459,537.67,286.973,533.479,285.068Z" transform="translate(-168.439 -29.618)" fill="#f47d72"/>
        <path d="M499.474,248.244l39.883-17.361-46.448-69.329-21.948-7.513-12.946.124-66.83,11.322H380.814s-1.44-.767-4.026,6.816l-11.6,8.325s8.6,45.784,26.968,105.112l4.792,65.242H503.967L488.1,228Z" transform="translate(-168.439 -29.618)" fill="#a6b84a"/>
        <path d="M495.49,241.152l3.983,7.091,39.883-17.361-10.58-15.792C521.094,227.617,510.726,238.488,495.49,241.152Z" transform="translate(-168.439 -29.618)" fill="#9ca43f"/>
        <path d="M492.909,161.553l-21.948-7.513-12.946.124-66.83,11.322H384c5.943,27.987,28.441,53.645,58.742,47.152,20.436-4.808,26.446-28.85,24.042-48.084,32.193,10.385,57.2,36.027,69.612,67.615l2.958-1.288Z" transform="translate(-168.439 -29.618)" fill="#bcc558"/>
        <path d="M490.364,245.522c-20.811-12.486-51.264-3-69.257,14-7.213,7.213-3.606,19.233-9.617,26.446-3.606,4.808-13.223-2.4-15.627-8.415-3.606-7.213,0-14.425,4.808-20.436-6.747-4.907-10.983-11.382-14-18.62h0c-2.9-6.948-4.67-14.6-6.436-22.251q0,1.415-.014,2.818c0,.224-.007.446-.009.669q-.013,1.087-.035,2.169c0,.234-.012.467-.018.7q-.027,1.069-.064,2.133c-.008.225-.018.45-.027.675q-.043,1.079-.1,2.152c-.011.21-.023.419-.035.628q-.063,1.1-.144,2.187c-.014.193-.028.385-.043.578q-.087,1.114-.195,2.22c-.017.177-.033.354-.051.531q-.115,1.135-.255,2.261c-.019.157-.036.315-.056.471-.1.774-.209,1.545-.325,2.314a72.035,72.035,0,0,1-4.781,17.419l9.852,1.722c2.485,8.832,5.216,18.149,8.218,27.847l4.792,65.242H503.967Z" transform="translate(-168.439 -29.618)" fill="#9ca43f"/>
        <path d="M345.015,243.137a40.242,40.242,0,0,1,19.268-17.191,40.244,40.244,0,0,1-19.268,17.191Z" transform="translate(-168.439 -29.618)" fill="#f15c69"/>
        <g>
          <g>
            <path d="M410.5,134.875V150.81l-19.317,14.677s12.036,30.192,36.64,29.773,30.191-41.1,30.191-41.1l-23.273-6.29v-13Z" transform="translate(-168.439 -29.618)" fill="#f79e83"/>
            <path d="M424.752,163.39c7.871-2.422,14.275-7.185,19.793-12.866l-9.8-2.649v-13H410.5V150.81l-4.854,3.688C410.872,159.988,416.562,165.437,424.752,163.39Z" transform="translate(-168.439 -29.618)" fill="#f47d72"/>
            <path d="M420.33,177.248l-.138-.235a6.231,6.231,0,0,0-.418-.64,7.433,7.433,0,0,0-2-1.815,11.543,11.543,0,0,0-3.643-1.441,32.385,32.385,0,0,0-4.9-.532,31.775,31.775,0,0,1-5.206-.617,12.68,12.68,0,0,1-4.081-1.671,7.924,7.924,0,0,1-2.148-2.025,5.908,5.908,0,0,1-.412-.674l-.126-.241.2.187a7.437,7.437,0,0,0,.578.5,9.062,9.062,0,0,0,2.391,1.318,15.641,15.641,0,0,0,3.9.858c1.5.157,3.2.16,5.038.268a19.3,19.3,0,0,1,5.265.926,10.332,10.332,0,0,1,3.806,2.324,6.828,6.828,0,0,1,1.635,2.476,5.155,5.155,0,0,1,.214.763Z" transform="translate(-168.439 -29.618)" fill="#f15c69"/>
            <path d="M451.785,158.624a7.644,7.644,0,0,1-.306.941,8.83,8.83,0,0,1-1.4,2.359c-1.453,1.87-4.222,3.69-7.287,5.132a26.373,26.373,0,0,0-7.095,4.386,9.19,9.19,0,0,0-1.573,2.01c-.3.538-.448.863-.448.863a6.926,6.926,0,0,1,.142-.98,7.788,7.788,0,0,1,1.057-2.545c1.227-2.047,3.876-4.146,7-5.62,3.077-1.453,5.78-2.644,7.468-3.993A10.963,10.963,0,0,0,451.2,159.4C451.585,158.918,451.785,158.624,451.785,158.624Z" transform="translate(-168.439 -29.618)" fill="#f15c69"/>
          </g>
          <g>
            <path d="M455.189,75.5s-.313-16.171-8.152-23.048c-3.359-2.947-8.371-3.369-13-2.887a112.781,112.781,0,0,1-23.34,0c-4.63-.481-9.642-.06-13,2.887-7.838,6.877-8.152,23.048-8.152,23.048s-1.268,16.091,1.561,24.358c0,0,4.623,27.917,10.78,34.794s20.483,8.187,20.483,8.187,14.324-1.31,20.482-8.187,11.634-34.713,11.634-34.713C457.311,91.668,455.189,75.5,455.189,75.5Z" transform="translate(-168.439 -29.618)" fill="#f79e83"/>
            <path d="M435.343,80.258c0-2.516-5.032-2.516-3.774-6.29A43.553,43.553,0,0,0,455.3,76.4c-.065-.576-.108-.908-.108-.908s-.313-16.171-8.152-23.048c-3.359-2.947-8.371-3.368-13-2.887a112.782,112.782,0,0,1-23.341,0c-4.63-.481-9.642-.06-13,2.887-7.839,6.877-8.152,23.048-8.152,23.048s-.037.478-.084,1.3c2.286-6.409,9.251-10.776,13.177-16.665C410.183,71.452,421.505,80.258,435.343,80.258Z" transform="translate(-168.439 -29.618)" fill="#f47d72"/>
            <g>
              <path d="M451.834,96.148s3.044-4.886,4.337-4.089,6.532,7.191,5,14.109-7.765,13.493-9.692,13.714-6.948-3.614-6.948-3.614Z" transform="translate(-168.439 -29.618)" fill="#f79e83"/>
              <path d="M393.225,96.148s-3.044-4.886-4.337-4.089-6.532,7.191-5,14.109,7.765,13.493,9.692,13.714,6.948-3.614,6.948-3.614Z" transform="translate(-168.439 -29.618)" fill="#f79e83"/>
            </g>
            <path d="M442.42,131.837c-7.8,13.228-30.507,10.221-39.313,1.415-13.848-21.072-13.168-50.1-8.407-77.235-4.925,7.728-5.157,19.479-5.157,19.479s-1.268,16.091,1.561,24.358c0,0,4.623,27.917,10.781,34.794s20.482,8.187,20.482,8.187,14.324-1.31,20.482-8.187,11.634-34.713,11.634-34.713c1.944-5.68,1.55-15.091,1.114-20.425C454.017,96.885,452.988,113.91,442.42,131.837Z" transform="translate(-168.439 -29.618)" fill="#fed1a0"/>
            <g>
              <path d="M391.712,100.1c-.178-.075-.351-.163-.527-.241v.114Z" transform="translate(-168.439 -29.618)" fill="#2d193e"/>
              <path d="M474.562,55.768c1.861-4.526,2.845-10.078,1.552-14.8-1.962,2.7-5.5,3.847-8.835,3.906-10.1.179-18.285-7.662-27.444-11.917-6.755-3.138-14.568-4.347-21.76-2.408s-13.413,6.628-15.744,13.7c-5.226-.488-9.7,3.588-13,7.674-5.947,7.376-10.7,15.91-18.156,21.756a7.031,7.031,0,0,0,.227,4.036,36.457,36.457,0,0,0,19.778,22.134c-.07-8.524-.091-17.163,1.876-25.456a41.743,41.743,0,0,1,5.718-13.533,30.95,30.95,0,0,1,4.761-5.618,30.766,30.766,0,0,1,2.69-1.787s.549,1.5.71,1.86a20.649,20.649,0,0,0,1,1.937c2.45,4.2,6.08,7.528,9.821,10.558a43.908,43.908,0,0,0,5.261,3.229c.67.4,1.632,1.093,3.29,1.953,0,0-3.118-6.84-3.934-8.146a44.287,44.287,0,0,0,5.447,4.307,44.312,44.312,0,0,0,9.927,4.213,47.2,47.2,0,0,0,10.332,2.577c2.131.2,4.293.11,6.394.52V99.936a31.328,31.328,0,0,0,1.549-8.515A51.966,51.966,0,0,0,470.7,70.212c.753-2.043,1.408-4.19,2.808-5.858a16.61,16.61,0,0,1-8.445,2.262A22.515,22.515,0,0,0,474.562,55.768Z" transform="translate(-168.439 -29.618)" fill="#2d193e"/>
              <path d="M450.141,51.138c4.912,2.947,8.842,1.965,13.755.982-2.947,3.93-4.912,8.842-10.807,9.825,9.3,1.162,16.88-3.522,22.742-9.983a21.645,21.645,0,0,0,.284-10.991c-1.962,2.7-5.5,3.847-8.835,3.906-10.1.179-18.285-7.662-27.444-11.917-6.755-3.138-14.568-4.347-21.76-2.408-7.085,1.91-13.221,6.5-15.631,13.4C418.053,32.688,435.542,43.352,450.141,51.138Z" transform="translate(-168.439 -29.618)" fill="#4b2c56"/>
              <g>
                <path d="M376.788,88.234a36.383,36.383,0,0,0,14.4,11.62c-.07-8.524-.091-17.163,1.876-25.456a41.746,41.746,0,0,1,5.718-13.533,30.95,30.95,0,0,1,4.761-5.618,15.976,15.976,0,0,1,1.649-1.141,6.17,6.17,0,0,1,1.723-2.969C390.751,57.872,381.976,72.452,376.788,88.234Z" transform="translate(-168.439 -29.618)" fill="#200f29"/>
                <path d="M417.719,58.015c.982,2.947.982,5.895,1.965,8.842a36.447,36.447,0,0,1-9.183-5.985,50.494,50.494,0,0,0,7.263,6.943,43.908,43.908,0,0,0,5.261,3.229c.67.4,1.632,1.093,3.29,1.953,0,0-3.118-6.84-3.934-8.146a44.287,44.287,0,0,0,5.447,4.307,44.312,44.312,0,0,0,9.927,4.213,47.2,47.2,0,0,0,10.332,2.577c2.131.2,4.293.11,6.394.52V99.936c.817-2.538,2.465-9.358,2.921-9.782a139.556,139.556,0,0,0,1.58-20.349C444.246,73.735,429.509,65.875,417.719,58.015Z" transform="translate(-168.439 -29.618)" fill="#200f29"/>
              </g>
            </g>
            <path d="M391.784,114.225l.348.241-.048.031a76.626,76.626,0,0,1-2.8-8.4l-.469-1.807a6.139,6.139,0,0,0-.491-1.52.984.984,0,0,0-.88-.6,1.363,1.363,0,0,0-.937.527,2.927,2.927,0,0,0-.5,1.757c0,.465,0,.73,0,.73s-.072-.25-.161-.717a3.012,3.012,0,0,1,.23-2.066,1.917,1.917,0,0,1,1.283-.942,1.745,1.745,0,0,1,1.715.843,6.028,6.028,0,0,1,.711,1.728l.512,1.8a76.653,76.653,0,0,1,1.844,8.66l.011.086-.059-.055Z" transform="translate(-168.439 -29.618)" fill="#d04b57"/>
            <path d="M389.875,112.215a4.03,4.03,0,0,1-.907-.643,4.936,4.936,0,0,1-1.445-2.311,2.023,2.023,0,0,1,.276-1.729,1.246,1.246,0,0,1,1.4-.5.927.927,0,0,1,.6.7.543.543,0,0,1-.038.31.571.571,0,0,0-.115-.25.688.688,0,0,0-.562-.245.676.676,0,0,0-.538.461,1.562,1.562,0,0,0-.005,1A15.332,15.332,0,0,0,389.875,112.215Z" transform="translate(-168.439 -29.618)" fill="#d04b57"/>
            <path d="M453.863,112.375a57.19,57.19,0,0,1,1.546-7.566c.294-1.034.56-1.973.9-2.891a2.817,2.817,0,0,1,1.885-1.885c.411-.077,1.034-.1.942.4.051.363.062.54.086.754l.055.608-.215-.572-.23-.63c-.022-.238-.273-.144-.486-.056a2.33,2.33,0,0,0-1.2,1.673c-.216.839-.441,1.868-.728,2.88A57.211,57.211,0,0,1,453.863,112.375Z" transform="translate(-168.439 -29.618)" fill="#d04b57"/>
            <path d="M454.019,114.5a18.665,18.665,0,0,0,2.521-4.56c.5-1.316.939-2.6.364-3.152a1.023,1.023,0,0,0-.9-.317.707.707,0,0,0-.355.185.7.7,0,0,1,.291-.336,1.261,1.261,0,0,1,1.272.047,1.942,1.942,0,0,1,.8,1.8,7.086,7.086,0,0,1-.495,2.155,8.618,8.618,0,0,1-2.209,3.223A6.834,6.834,0,0,1,454.019,114.5Z" transform="translate(-168.439 -29.618)" fill="#d04b57"/>
            <g>
              <path d="M413.731,79.428l-.7-.559a12.45,12.45,0,0,0-1.9-1.2,12.91,12.91,0,0,0-12.181.16,12.453,12.453,0,0,0-1.869,1.249l-.682.577a5.941,5.941,0,0,1,.118-.91,7.532,7.532,0,0,1,.939-2.386,8.806,8.806,0,0,1,2.731-2.839,8.775,8.775,0,0,1,9.6-.126,8.8,8.8,0,0,1,2.8,2.766,7.524,7.524,0,0,1,1,2.361A5.9,5.9,0,0,1,413.731,79.428Z" transform="translate(-168.439 -29.618)" fill="#200f29"/>
              <path d="M450.215,80.179l-.832-.4a20.952,20.952,0,0,0-2.2-.895,23.107,23.107,0,0,0-13.692-.313,20.914,20.914,0,0,0-2.234.794l-.849.366a7.5,7.5,0,0,1,.408-.85,9.614,9.614,0,0,1,1.561-2.086,10.938,10.938,0,0,1,16,.366,9.6,9.6,0,0,1,1.465,2.155A7.471,7.471,0,0,1,450.215,80.179Z" transform="translate(-168.439 -29.618)" fill="#200f29"/>
            </g>
            <path d="M418.6,105.924a1.848,1.848,0,0,1,.777.08,14.376,14.376,0,0,0,2.758.249,13.471,13.471,0,0,0,3.69-.779c1.566-.507.949.627.52,1.7a15.872,15.872,0,0,1-1.874,3.406,15.082,15.082,0,0,1-7.026-2.152,7.1,7.1,0,0,1,.921-2.362A.651.651,0,0,1,418.6,105.924Z" transform="translate(-168.439 -29.618)" fill="#f47d72"/>
            <path d="M420.67,85.363a29.161,29.161,0,0,1,.842,4.263,34.715,34.715,0,0,1-.276,10.517,34.259,34.259,0,0,1-1.535,5.609l-.473,1.217-.248.574-.11.175c-.066.07-.038.116.015.159a1.571,1.571,0,0,0,.155.154c.278.208.557.395.825.571a16.62,16.62,0,0,0,2.735,1.415c.687.273,1.085.4,1.085.4a10.233,10.233,0,0,1-1.167-.081,12.855,12.855,0,0,1-3.129-.8c-.32-.129-.654-.271-.993-.441-.234-.123-.505-.285-.772-.442l-.412-.249c-.114-.028-.015-.128-.016-.2l.064-.226.281-.944.16-.583.308-1.223c.409-1.675.807-3.52,1.164-5.468a92.417,92.417,0,0,0,1.291-10.109C420.636,87.027,420.67,85.363,420.67,85.363Z" transform="translate(-168.439 -29.618)" fill="#f15c69"/>
            <path d="M412.181,88.718l-.536-.4a10.562,10.562,0,0,0-1.5-.886,10.377,10.377,0,0,0-10.141.5,10.571,10.571,0,0,0-1.4,1.029l-.494.447a5.787,5.787,0,0,1,.228-.638,6.808,6.808,0,0,1,.966-1.615,7.614,7.614,0,0,1,11.468-.564,6.814,6.814,0,0,1,1.12,1.512A5.771,5.771,0,0,1,412.181,88.718Z" transform="translate(-168.439 -29.618)" fill="#200f29"/>
            <path d="M432.225,88.718a5.823,5.823,0,0,1,.29-.613,6.821,6.821,0,0,1,1.12-1.512,7.614,7.614,0,0,1,11.467.564,6.819,6.819,0,0,1,.966,1.615,5.8,5.8,0,0,1,.228.638l-.495-.447a10.571,10.571,0,0,0-1.4-1.029,10.377,10.377,0,0,0-10.141-.5,10.567,10.567,0,0,0-1.5.886Z" transform="translate(-168.439 -29.618)" fill="#200f29"/>
            <g>
              <ellipse cx="270.752" cy="61.611" rx="2.862" ry="5.699" fill="#200f29"/>
              <polygon points="265.081 59.452 271.544 60.225 264.236 62.203 265.081 59.452" fill="#fff"/>
            </g>
            <g>
              <ellipse cx="236.786" cy="62.203" rx="2.862" ry="5.698" fill="#200f29"/>
              <polygon points="231.115 60.044 237.577 60.817 230.269 62.795 231.115 60.044" fill="#fff"/>
            </g>
            <path d="M429.607,130.162c-15.876,1.522-15.876-12.5-15.876-12.5s.2-.089.578-.244c2.344-.911,11.8-4.177,26.208-3.477.456.022.922.044,1.389.078C441.905,114.02,442.783,128.9,429.607,130.162Z" transform="translate(-168.439 -29.618)" fill="#8c1825"/>
            <path d="M440.306,117.175c-.7,1.044-6.666,3.266-10.832,3.955s-10.832.556-13.054,0c-1.566-.389-2-2.5-2.111-3.711,2.344-.911,11.8-4.177,26.208-3.477C440.65,115.064,440.717,116.564,440.306,117.175Z" transform="translate(-168.439 -29.618)" fill="#fff"/>
            <path d="M438.862,122.611a14.224,14.224,0,0,1-20.377,3.852,17.668,17.668,0,0,1,4.884-1.988,9.611,9.611,0,0,1,5.283.04,1.022,1.022,0,0,0,.879.024c2.841-1.96,5.774-3.618,8.976-2.327C438.675,122.281,438.91,122.787,438.862,122.611Z" transform="translate(-168.439 -29.618)" fill="#b52026"/>
          </g>
        </g>
        <g>
          <path d="M460.371,252.657s27.92-6.2,34.384-2.934,18.841,13.394,26.02,34.386,8.217,52.177-8.825,62.117-27.526,9.335-33.162,17.014-14.657,33.253-23.889,38.587-43.687-3.607-43.687-3.607L457.54,289.164Z" transform="translate(-168.439 -29.618)" fill="#a24027"/>
          <path d="M494.755,249.723a8.369,8.369,0,0,0-2.425-.693c26,19.928,37.767,60.144,21.428,87.891-7.942,14.847-30.855,9.846-41.179,24.717-7.044,9.6-8.33,23.423-15.86,32.074-10.9,11.128-29.3,5.623-43.734.333l-1.774,4.175s34.455,8.942,43.687,3.607,18.253-30.909,23.889-38.587,16.12-7.073,33.162-17.014,16-41.125,8.825-62.117S501.219,252.99,494.755,249.723Z" transform="translate(-168.439 -29.618)" fill="#e17735"/>
          <path d="M412.87,291.024c-.3.039-.595.072-.89.1-14.748,1.637-30.7,3.963-41.107,14.542-6.237,6.341-9.677,15.007-11.183,23.772-2.642,15.375-2.279,35.038,7.731,47.934,6.043,7.785,15.527,11.983,24.762,15.426,8.378,3.123,17.059,5.91,26,6.012s18.283-2.821,24.185-9.538c3.563-4.054,5.644-9.165,7.661-14.171l11.24-27.888a16.379,16.379,0,0,1,12.226-10c11.116-2.033,22.782-.861,28.776-13.738a27.414,27.414,0,0,0,2.189-7.788c2.79-19.92-7.561-39.652-22.623-52.7a48.579,48.579,0,0,0-21.468-10.329c-21.115-4.718-31.248,20.353-41.145,34.25a10.5,10.5,0,0,1-2.923,3.1A8.754,8.754,0,0,1,412.87,291.024Z" transform="translate(-168.439 -29.618)" fill="#e17735"/>
          <circle cx="427.388" cy="325.773" r="21.241" transform="translate(-270.021 201.394) rotate(-27.16)" fill="#fff"/>
          <g>
            <path d="M442.022,318.266a16.435,16.435,0,1,1-4.889-5.75A16.448,16.448,0,0,1,442.022,318.266Z" transform="translate(-168.439 -29.618)" fill="#8a301e"/>
            <path d="M442.022,318.266a16.442,16.442,0,0,1-19.07,23.345,16.449,16.449,0,0,1,14.181-29.095A16.337,16.337,0,0,1,442.022,318.266Z" transform="translate(-168.439 -29.618)" fill="#711d16"/>
          </g>
          <g>
            <g>
              <polygon points="417.161 147.357 409.507 139.697 415.32 135.22 420.214 144.759 417.161 147.357" fill="#250e0d"/>
              <polygon points="428.334 138.03 420.68 130.37 426.493 125.892 431.387 135.431 428.334 138.03" fill="#250e0d"/>
              <polygon points="438.428 129.905 430.774 122.245 436.588 117.768 441.481 127.306 438.428 129.905" fill="#250e0d"/>
            </g>
            <polygon points="409.791 159.704 290.369 252.829 303.848 269.759 421.029 175.99 409.791 159.423 409.791 159.704" fill="#4a1710"/>
            <polygon points="430.527 174.577 470.325 145.7 450.066 119.213 409.788 153.494 409.791 159.423 421.029 175.99 421.305 175.769 430.527 174.577" fill="#e17735"/>
            <path d="M498.062,283.136c1.158-.993,91.836-74.644,91.836-74.644l9.832-1.055,37.825-26.587,1.209-5.531-39.8,28.877-9.222,1.192-93.4,74.741Z" transform="translate(-168.439 -29.618)" fill="#a24027"/>
            <g>
              <polygon points="461.431 152.154 468.593 160.092 462.559 164.267 458.171 154.52 461.431 152.154" fill="#250e0d"/>
              <polygon points="449.631 160.716 456.959 168.837 450.924 173.012 446.365 163.086 449.631 160.716" fill="#250e0d"/>
              <polygon points="439.145 168.325 446.463 176.436 440.429 180.612 435.943 170.648 439.145 168.325" fill="#250e0d"/>
            </g>
            <g>
              <polygon points="452.733 134.446 419.915 157.124 417.627 158.705 415.24 155.01 448.789 129.396 449.938 130.865 452.733 134.446" fill="#8a301e"/>
              <polygon points="461.074 142.89 425.218 166.947 422.929 168.48 420.486 164.791 457.012 137.888 458.156 139.301 461.074 142.89" fill="#8a301e"/>
            </g>
            <g>
              <polygon points="452.733 134.446 419.915 157.124 418.468 154.886 449.938 130.865 452.733 134.446" fill="#711d16"/>
              <polygon points="461.074 142.89 425.218 166.947 423.718 164.676 458.156 139.301 461.074 142.89" fill="#711d16"/>
            </g>
            <polygon points="420.567 150.944 423.3 154.785 425.658 153.156 422.854 149.197 420.567 150.944" fill="#250e0d"/>
            <polygon points="432.374 141.929 435.532 146.333 437.778 144.781 434.57 140.253 432.374 141.929" fill="#250e0d"/>
            <polygon points="442.685 134.057 446.257 138.922 448.715 137.223 444.946 132.33 442.685 134.057" fill="#250e0d"/>
            <polygon points="449.894 143.131 453.308 148.1 455.978 146.309 452.004 141.577 449.894 143.131" fill="#250e0d"/>
            <polygon points="439.292 150.94 442.178 155.568 444.797 153.811 441.339 149.432 439.292 150.94" fill="#250e0d"/>
            <polygon points="427.309 159.765 429.825 163.856 432.254 162.226 429.375 158.244 427.309 159.765" fill="#250e0d"/>
          </g>
          <rect x="370.923" y="258.185" width="248.615" height="1.065" transform="translate(-220.687 340.705) rotate(-39.105)" fill="#250e0d"/>
          <rect x="370.622" y="256.38" width="262.225" height="1.065" transform="translate(-217.976 344.946) rotate(-39.162)" fill="#250e0d"/>
          <rect x="370.273" y="254.449" width="276.596" height="1.065" transform="translate(-214.847 350.497) rotate(-39.334)" fill="#250e0d"/>
          <rect x="376.301" y="261.728" width="276.078" height="1.065" transform="matrix(0.783, -0.621, 0.621, 0.783, -220.041, 346.816)" fill="#250e0d"/>
          <rect x="376.406" y="263.4" width="262.765" height="1.065" transform="translate(-222.183 344.727) rotate(-38.588)" fill="#250e0d"/>
          <rect x="376.255" y="265.64" width="248.031" height="1.065" transform="translate(-225.212 340.58) rotate(-38.593)" fill="#250e0d"/>
          <polygon points="218.287 302.32 229.009 295.223 249.82 327.234 235.949 336.745 218.287 302.32" fill="#4a1710"/>
        </g>
        <path d="M557.219,241.377c-1.6-3.546-4.307-7.641-5.905-11.187-1.111-.548-2.75.041-3.8.669-1.31.781-.916,2.592-.369,3.933q3.459,8.479,7,16.931l-8.362-15.314c-1.957-2.294-3.753-4.329-6.423-5.526-2.149.336-2.785,1.983-3.47,3.863q2.131,1.827,4.332,3.584l3.659,11.146c.25.762,1.021.948.753,1.7l-5.11-5.789a7.85,7.85,0,0,0-3.643-2.744c-1.537-.409-5.281-.138-4.88,1.271l.318,1.118c-.83-1.1-1.148-2.092-2.6-1.947a3.029,3.029,0,0,0-2.554,2.846,7.31,7.31,0,0,0,1.17,3.814,53.782,53.782,0,0,0,7.293,10.362c-.6,3.47-1.978,6.394-2.265,9.9a5.747,5.747,0,0,0,.264,2.861,6.893,6.893,0,0,0,3.043,2.7l12.133,7.091c4.644-.639,6.8-5.282,8.924-9.084,2.317-4.155,4.672-8.421,5.252-13.056C562.8,253.959,559.98,247.5,557.219,241.377Z" transform="translate(-168.439 -29.618)" fill="#f79e83"/>
        <path d="M539.18,259.973l.016-.182a4.038,4.038,0,0,0,.023-.517,5.61,5.61,0,0,0-.355-1.82,35.354,35.354,0,0,0-3.085-5.386c-2.57-4.177-4.544-7.687-4.544-7.687a44.556,44.556,0,0,1,5.449,7.128,18.953,18.953,0,0,1,2.694,5.808,5.135,5.135,0,0,1,.006,1.972,3.5,3.5,0,0,1-.143.511Z" transform="translate(-168.439 -29.618)" fill="#d04b57"/>
        <path d="M538.611,280.1a23.761,23.761,0,0,1-2.287-1.066,10.465,10.465,0,0,1-4.539-4.208,6.525,6.525,0,0,1-.732-3.449,9.946,9.946,0,0,1,.594-2.74c.266-.741.53-1.314.714-1.708l.3-.608-.138.661c-.089.425-.225,1.038-.357,1.79a8.444,8.444,0,0,0,.568,5.566,13.541,13.541,0,0,0,3.883,4.25Z" transform="translate(-168.439 -29.618)" fill="#d04b57"/>
        <g>
          <path d="M411.5,334.356c.01.056.023.111.034.167C411.582,334.455,411.6,334.367,411.5,334.356Z" transform="translate(-168.439 -29.618)" fill="#f79e83"/>
          <path d="M435.025,332a6.854,6.854,0,0,0-1.074-2.012,26.491,26.491,0,0,1-2.635-5.078c-.035.08-.11.146-.168.063a13.071,13.071,0,0,0-2.292-2.244,9.207,9.207,0,0,0,.356-3.333c-2.413-3-4.622-5.983-7.036-8.984a.484.484,0,0,0-.309-.221c-.13-.009-.254.165-.158.253a89.278,89.278,0,0,1-24.125-11.795c-.684-.468,2.18,1.527,1.506,1.044-3.125.117-7.138-.1-10.1.907-7.381-3.811-25.507-13.793-32.519-18.147,4.225-9.1,15.656-38.371,15.656-38.371l-28.428-3.36c-7.814,17.943-14.928,52.661-14.928,52.661.173,1.844.467,3.692,1.749,4.855a35.308,35.308,0,0,0,7.952,5.37,81.812,81.812,0,0,0,8.932,3.62c11.135,4.011,22.839,8.095,33.973,12.106.616,1.331,1.95,2.433,2.647,3.724,2.1,3.9,7.18,3.532,10.988,5.8,1.862,1.11,1.9,3.333,3.08,5.154a36.322,36.322,0,0,1,2.621,4.524,43.244,43.244,0,0,0,1.926,4.289c2.322,3.892,6.923,5.682,11.191,7.208a9.01,9.01,0,0,0,1.667-3.176,5.1,5.1,0,0,0-1.593-1.734,15.586,15.586,0,0,1-4.1-2.982c-3.085-3.127-4.793-7.4-5.879-11.652,4.219,2.551,8.312,5.258,12.531,7.809a8.7,8.7,0,0,0,2.039,1,8.415,8.415,0,0,0,2.7.186q4.588-.2,9.154-.718c.427-1.021.336-1.922,1.107-2.716-.4-.419-1.172-.868-1.383-1.411a34.673,34.673,0,0,0,4.716-.691C435.537,333.806,435.215,332.743,435.025,332Z" transform="translate(-168.439 -29.618)" fill="#f79e83"/>
          <path d="M375.467,310.07c-14.425-6.011-33.659-3.606-40.871-18.031-4.808-8.415-1.2-21.638,8.415-28.85,6.4-5.33,14.681-4.041,22.343-2.005,3.612-9,6.774-17.1,6.774-17.1l-28.428-3.36c-7.814,17.943-14.928,52.661-14.928,52.661.173,1.844.467,3.692,1.749,4.855a35.308,35.308,0,0,0,7.952,5.37,81.776,81.776,0,0,0,8.932,3.62c11.135,4.011,22.839,8.095,33.974,12.106.616,1.331,1.95,2.433,2.647,3.724,1.244,2.306,3.525,3.119,5.969,3.867A40.528,40.528,0,0,0,375.467,310.07Z" transform="translate(-168.439 -29.618)" fill="#f47d72"/>
          <path d="M430.456,334.768l-.991-.056c-.639-.033-1.561-.127-2.7-.3a33.728,33.728,0,0,1-16.255-7.178c-.89-.724-1.58-1.343-2.035-1.793l-.709-.695.814.566c.517.371,1.284.882,2.24,1.489a59.738,59.738,0,0,0,16.055,7.09c1.093.3,1.987.521,2.609.652Z" transform="translate(-168.439 -29.618)" fill="#d04b57"/>
          <path d="M434.984,333.489a98.327,98.327,0,0,1-21.447-13.816s4.938,2.91,10.85,6.712S434.984,333.489,434.984,333.489Z" transform="translate(-168.439 -29.618)" fill="#d04b57"/>
          <path d="M418.573,314.354a16.929,16.929,0,0,1,1.791.8,20.052,20.052,0,0,1,7.155,6.1A16.931,16.931,0,0,1,428.6,322.9l-1.469-1.282-3.513-3.023-3.542-2.989Z" transform="translate(-168.439 -29.618)" fill="#d04b57"/>
          <path d="M356.474,282.692a36.2,36.2,0,0,1-11.059-5.529,36.2,36.2,0,0,1,11.059,5.529Z" transform="translate(-168.439 -29.618)" fill="#d04b57"/>
        </g>
        <polygon points="196.747 151.01 160.284 218.626 220.22 229.1 213.576 161.499 196.747 151.01" fill="#a6b84a"/>
        <path d="M365.186,180.627l-36.463,67.616,14.6,2.552c7.038-23.313,11.971-47.511,22.1-70.017Z" transform="translate(-168.439 -29.618)" fill="#bcc558"/>
        <path d="M388.663,258.715l-13.247-2.32-1.334-.228a71.775,71.775,0,0,0,4.784-17.418q.18-1.154.325-2.308c.024-.156.036-.313.06-.469.084-.757.168-1.515.253-2.26.012-.18.036-.361.048-.541.072-.733.132-1.479.193-2.212.024-.192.036-.385.048-.577.048-.733.1-1.455.144-2.188.012-.216.024-.421.036-.637.036-.709.072-1.431.1-2.152.012-.216.024-.445.024-.673.036-.709.048-1.419.072-2.128,0-.24.012-.469.012-.7.012-.721.024-1.455.036-2.176,0-.228.012-.445.012-.673.012-.926.012-1.875.012-2.813.89,3.823,1.767,7.657,2.789,11.4a91.242,91.242,0,0,0,3.642,10.855c0,.012.012.012.012.024Z" transform="translate(-168.439 -29.618)" fill="#9ca43f"/>
        <path d="M539.753,506.752l2.8-6.351-8.415-6.01c-6.287-8.252-9.937-69.708-10.1-73.19-.361-15.436-.4-30.9-.5-46.473-.023-3.641-.061-7.372-1.339-10.781-1.374-3.667-4.067-6.66-6.7-9.558-5.773-6.352-12.318-13.118-20.846-14.095-7.192-.824-14.315,2.841-19.381,8.012a41.018,41.018,0,0,0-11.726,28.281c14.046,42.1,21.954,78.105,29.774,121.793.742,4.147-3.788,10.366-4.969,14.41a5.134,5.134,0,0,0,1.659,6.388c2.3,2.416,6.75,7.013,9.054,9.429,24.488-12.442,39.944-4.493,39.944-4.493l9.158-7.283Z" transform="translate(-168.439 -29.618)" fill="#2c3045"/>
        <path d="M539.753,506.752l2.8-6.351-8.415-6.01c-6.287-8.252-9.937-69.708-10.1-73.19-.361-15.436-.4-30.9-.5-46.473-.023-3.641-.061-7.372-1.339-10.781-1.374-3.667-4.067-6.66-6.7-9.558-5.773-6.352-12.318-13.118-20.846-14.095-7.192-.824-14.315,2.841-19.381,8.012a41.081,41.081,0,0,0-11.711,27.781c6.017-10.531,14.57-23.267,24.9-19.135,34.861,13.223,20.436,60.1,24.042,90.157,2.4,15.627,6.01,31.254,9.617,46.882-3.606-3.606-9.617,1.2-9.617,6.01,4.808-1.2,9.617,0,10.819,6.01-12.838,1.07-23.052,6.907-31.4,15.167,2.354,2.45,5.371,5.576,7.136,7.428,24.488-12.442,39.944-4.493,39.944-4.493l9.158-7.283Z" transform="translate(-168.439 -29.618)" fill="#242738"/>
        <path d="M323.877,514.782c-.86.37-2-.3-3.4-1.119-.691-.425-1.491-.873-2.34-1.35-.874-.452-1.811-.921-2.83-1.356-1.028-.413-2.022-.744-2.96-1.042-.938-.263-1.82-.513-2.609-.7-1.566-.41-2.849-.743-3.2-1.613-.333-.8.509-2.13,2.637-3.011a10.21,10.21,0,0,1,3.9-.7,12.913,12.913,0,0,1,8.8,3.645,10.21,10.21,0,0,1,2.262,3.253C325.023,512.916,324.68,514.45,323.877,514.782Z" transform="translate(-168.439 -29.618)" fill="#fff"/>
        <path d="M331.413,510.01c-.885.306-1.982-.465-3.327-1.424-.664-.5-1.437-1.026-2.259-1.593-.848-.544-1.76-1.112-2.756-1.654-1.008-.521-1.99-.957-2.915-1.354-.93-.363-1.8-.7-2.586-.977-1.549-.576-2.8-1.051-3.045-1.956-.237-.837.766-2.057,2.992-2.7a10.49,10.49,0,0,1,3.979-.285,13.257,13.257,0,0,1,8.481,4.5,10.49,10.49,0,0,1,2,3.454C332.686,508.222,332.239,509.736,331.413,510.01Z" transform="translate(-168.439 -29.618)" fill="#fff"/>
        <path d="M536.172,530.011c-.5.8-2.223.62-4.59.444-.6-.043-1.228-.106-1.914-.114-.671-.061-1.4-.028-2.142-.052A32.741,32.741,0,0,0,518,531.731c-.7.243-1.407.427-2.031.684-.653.211-1.237.458-1.794.676-2.209.869-3.8,1.553-4.516.934-.66-.551-.238-2.479,1.791-4.71a12.408,12.408,0,0,1,1.808-1.639,16.755,16.755,0,0,1,2.36-1.525,19.344,19.344,0,0,1,12.531-1.9,16.756,16.756,0,0,1,2.706.758,12.406,12.406,0,0,1,2.212,1.031C535.666,527.572,536.64,529.29,536.172,530.011Z" transform="translate(-168.439 -29.618)" fill="#fff"/>
        <path d="M458.015,154.165s20.651,89.852,21.361,99.274l9.249,3.878,6.866-6.712s-16.448-87.546-24.529-96.565Z" transform="translate(-168.439 -29.618)" fill="#4a1710"/>
        <path d="M495.49,250.6s-16.448-87.546-24.529-96.565l-12.946.124s.7,3.034,1.837,8.032c19.827,21.377,24.408,50.831,30.976,79.292-2.4-2.4-6.01,0-7.213,1.2-3.137,3.137-2.633,8.092-.077,12.493l5.086,2.132Z" transform="translate(-168.439 -29.618)" fill="#691b0e"/>
        <circle cx="318.633" cy="221.209" r="2.054" fill="#fff"/>
      </g>
    </g>
    <g>
      <path d="M521.581,79.088l-.572-2.048-6.448-22.783-6.06,2.767s4.8,10.912,7.988,18.024a10.95,10.95,0,0,0-6.328,3.311c-3.422,3.422-4.372,8-2.14,10.239s6.817,1.273,10.229-2.14a10.283,10.283,0,0,0,3.339-7.315l.009-.009Z" transform="translate(-168.439 -29.618)" fill="#200f29"/>
      <path d="M274.7,287.685l.412,2.086,4.672,23.213,6.255-2.292s-3.941-11.249-6.575-18.586a10.949,10.949,0,0,0,6.564-2.814c3.676-3.148,4.976-7.636,2.923-10.043s-6.7-1.795-10.364,1.345a10.283,10.283,0,0,0-3.893,7.036l-.01.008Z" transform="translate(-168.439 -29.618)" fill="#200f29"/>
      <path d="M337.719,103.979l-.572-2.048L330.7,79.148l-30.346,1.938s7.791,16.593,9.675,20.791a10.95,10.95,0,0,0-6.328,3.311c-3.422,3.422-4.372,8-2.14,10.239s6.816,1.273,10.229-2.14a10.282,10.282,0,0,0,3.339-7.315l.009-.009-.018-.046-.572-2.048-4.531-16.009,16.657-1.327c1.683,3.815,4.091,9.255,5.953,13.405a10.951,10.951,0,0,0-6.328,3.311c-3.422,3.422-4.372,8-2.14,10.239s6.816,1.273,10.229-2.14a10.283,10.283,0,0,0,3.339-7.315l.009-.009Z" transform="translate(-168.439 -29.618)" fill="#200f29"/>
      <path d="M617.248,276.071l.565-1.631,6.231-18.181L602.9,243.523s-2.473,14.672-3.157,18.344a8.888,8.888,0,0,0-5.753-.716c-3.865.7-6.614,3.314-6.161,5.842s3.959,4,7.814,3.3a8.347,8.347,0,0,0,5.609-3.337l.01,0,.009-.039.565-1.631,4.378-12.775,11.726,6.815c-.64,3.323-1.549,8.066-2.225,11.7a8.888,8.888,0,0,0-5.753-.716c-3.865.7-6.614,3.314-6.161,5.842s3.959,4,7.814,3.3a8.346,8.346,0,0,0,5.609-3.337l.01,0Z" transform="translate(-168.439 -29.618)" fill="#200f29"/>
      <path d="M238.521,260.956l.565-1.631,6.231-18.181-21.142-12.735s-2.473,14.672-3.157,18.344a8.888,8.888,0,0,0-5.753-.716c-3.865.7-6.614,3.314-6.161,5.842s3.959,4,7.814,3.3a8.347,8.347,0,0,0,5.609-3.337l.01,0,.009-.039.565-1.631L227.49,237.4l11.726,6.815c-.64,3.323-1.549,8.066-2.225,11.7a8.888,8.888,0,0,0-5.753-.716c-3.865.7-6.614,3.314-6.161,5.842s3.959,4,7.814,3.3A8.346,8.346,0,0,0,238.5,261l.01,0Z" transform="translate(-168.439 -29.618)" fill="#200f29"/>
      <path d="M624.351,97.121a5.544,5.544,0,0,1,5.046.858,5.349,5.349,0,0,0-4.732-3.791c-1.965-.111-3.819.886-5.765,1.227a7.855,7.855,0,0,1-1.042.111c-1.789.092-5.368-1.319-5.368-1.319s6.179,13.989,7.986,18.02a10.953,10.953,0,0,0-6.324,3.311c-3.422,3.422-4.372,8-2.14,10.239s6.816,1.273,10.229-2.14a10.285,10.285,0,0,0,3.339-7.312l.007-.007-.014-.034a.072.072,0,0,0,0-.016L625,114.218l-.009-.014L619.2,99.049l.166-.055C621.058,98.431,622.627,97.554,624.351,97.121Z" transform="translate(-168.439 -29.618)" fill="#200f29"/>
      <path d="M525.3,116.579a5.544,5.544,0,0,1,3.739,3.5,5.349,5.349,0,0,0-1.861-5.771c-1.579-1.175-3.675-1.364-5.487-2.151a7.842,7.842,0,0,1-.931-.482c-1.544-.909-3.754-4.058-3.754-4.058s-2.548,15.079-3.26,19.439a10.951,10.951,0,0,0-7.1-.72c-4.741.971-8.054,4.267-7.425,7.367s4.988,4.817,9.717,3.848a10.284,10.284,0,0,0,6.814-4.264l.01,0,.007-.036c0-.005.006-.009.007-.015l.65-2.024c0-.005,0-.011,0-.016l3.518-15.836.169.045C521.831,115.858,523.623,115.991,525.3,116.579Z" transform="translate(-168.439 -29.618)" fill="#200f29"/>
      <path d="M274.519,147.9a5.544,5.544,0,0,1,3.739,3.5,5.349,5.349,0,0,0-1.861-5.771c-1.579-1.174-3.675-1.364-5.487-2.151a7.833,7.833,0,0,1-.931-.482c-1.544-.909-3.754-4.058-3.754-4.058s-2.548,15.079-3.259,19.439a10.952,10.952,0,0,0-7.1-.72c-4.741.971-8.054,4.267-7.425,7.367s4.988,4.817,9.717,3.848a10.284,10.284,0,0,0,6.814-4.264l.01,0,.007-.036c0-.005.006-.009.007-.015l.65-2.024c0-.005,0-.011,0-.016l3.518-15.836.169.045C271.049,147.184,272.841,147.316,274.519,147.9Z" transform="translate(-168.439 -29.618)" fill="#200f29"/>
      <path d="M312.53,176.135c-1.965-.111-3.819.885-5.765,1.227a6.372,6.372,0,0,1-.83.092l-.858-2.242.166-.055c1.688-.563,3.256-1.439,4.981-1.873a5.544,5.544,0,0,1,5.046.858,5.349,5.349,0,0,0-4.732-3.791c-1.965-.111-3.819.885-5.765,1.227a7.815,7.815,0,0,1-1.042.111c-1.789.092-5.368-1.319-5.368-1.319s6.346,14.353,7.979,18.015c-.184.018-.369.046-.553.074a11.355,11.355,0,0,0-5.765,3.238c-3.422,3.422-4.372,8-2.14,10.239a3.752,3.752,0,0,0,1.042.738c2.426,1.19,6.245.065,9.187-2.878a10.283,10.283,0,0,0,3.339-7.315h.009l-.018-.055-.572-2.048-.009-.009-3.6-9.436c1.679-.563,3.238-1.43,4.953-1.863a5.544,5.544,0,0,1,5.046.858A5.349,5.349,0,0,0,312.53,176.135Z" transform="translate(-168.439 -29.618)" fill="#200f29"/>
      <path d="M663.393,224.426c-1.009-1.365-2.692-2.046-3.991-3.149a5.479,5.479,0,0,1-.519-.5l1.015-1.8.128.08c1.3.81,2.749,1.368,3.987,2.273a4.782,4.782,0,0,1,2.211,3.821,4.614,4.614,0,0,0-.092-5.229c-1.009-1.365-2.692-2.046-3.991-3.15a6.754,6.754,0,0,1-.648-.631,16.181,16.181,0,0,1-2.083-4.289s-6.027,12.121-7.557,15.222c-.114-.112-.234-.219-.354-.327a9.8,9.8,0,0,0-5.325-2.041c-4.157-.385-7.716,1.506-7.974,4.222a3.242,3.242,0,0,0,.085,1.1c.547,2.265,3.4,4.179,6.973,4.51a8.87,8.87,0,0,0,6.694-1.815l.005.006.027-.043,1.044-1.508v-.011l4.279-7.587c1.3.8,2.733,1.361,3.966,2.26a4.782,4.782,0,0,1,2.211,3.821A4.614,4.614,0,0,0,663.393,224.426Z" transform="translate(-168.439 -29.618)" fill="#200f29"/>
    </g>
  </g>
</svg>
