<svg id="amusement_park" data-name="amusement park" xmlns="http://www.w3.org/2000/svg" viewBox="0 0 400 162"><defs><style>.cls-1{fill:#ddd;}.cls-2{fill:#b70400;}.cls-3{fill:#fff594;}.cls-4{fill:#f93d31;}.cls-5{fill:#8b011b;}.cls-6{fill:#fd9533;}.cls-7{fill:#6f0000;opacity:0.35;}.cls-8{fill:#590800;}.cls-9{fill:#60dade;}.cls-10{fill:#0800b2;opacity:0.18;}.cls-11{fill:#d8fff2;}</style></defs><title>Монтажная область 2</title><ellipse class="cls-1" cx="198.45" cy="145.81" rx="187.55" ry="2.59"/><polygon class="cls-2" points="230.11 92.3 230.11 123.44 67.69 123.44 62.14 67.73 132.99 65.44 135.42 92.3 230.11 92.3"/><polygon class="cls-3" points="75.22 123.44 72.41 67.39 110.61 66.16 110.61 123.44 75.22 123.44"/><polygon class="cls-3" points="115.13 66.16 115.13 123.44 117.13 123.44 120.47 65.85 115.13 66.16"/><path class="cls-4" d="M130.56,38.57l3.27,36.08,4.41,48.79h91.87l7.29-84.87Zm57.5,53.06V45.07l39.62,1.85-4.91,44.71ZM184,44.88l1.62,46.75H145.17l-4.5-48.78Z"/><path class="cls-5" d="M138.24,41.48,143,93h82l5.17-47.22Zm84.53,50.14h-77.6l-4.5-48.78,43.33,2,4.05.19,39.62,1.85Z"/><polygon class="cls-6" points="66.45 123.44 50.69 67.39 70.21 67.39 71.31 123.44 66.45 123.44"/><path class="cls-7" d="M71.08,111.57s25.29.22,43.54-11.57,17.14-34.55,17.14-34.55H133l5.25,58H71.31Z"/><polygon class="cls-5" points="66.45 123.44 69.87 136.35 230.11 129.89 230.11 123.44 66.45 123.44"/><polygon class="cls-4" points="58.57 95.42 29.8 141.4 71.71 140.74 58.57 95.42"/><polygon class="cls-3" points="33.98 141.34 59.27 97.84 59.52 99.11 36.26 141.3 33.98 141.34"/><polygon class="cls-3" points="41.38 141.22 60.77 103 61.2 104.77 43.94 141.18 41.38 141.22"/><polygon class="cls-3" points="48.95 141.1 62.14 107.72 62.73 109.74 51.68 141.06 48.95 141.1"/><polygon class="cls-3" points="55.84 140.99 64.38 115.46 64.95 117.42 58.13 140.99 55.84 140.99"/><polygon class="cls-3" points="61.53 140.9 66.7 123.44 67.27 125.42 63.92 140.85 61.53 140.9"/><path class="cls-7" d="M50.69,108s4,2.49,8.34,12.18,3.12,20.69,3.12,20.69l9.57-.15L58.57,95.42Z"/><polygon class="cls-6" points="123.63 14.56 242.98 25.82 241.53 38.56 123.36 38.84 123.63 14.56"/><circle class="cls-8" cx="97.37" cy="129.89" r="15.92"/><path class="cls-9" d="M111.12,129.89a13.75,13.75,0,0,1-27.5,0,13.75,13.75,0,0,1,27.5,0Z"/><circle class="cls-8" cx="97.37" cy="129.89" r="5.48"/><circle class="cls-3" cx="97.37" cy="129.89" r="2.48"/><path class="cls-10" d="M111.12,129.89a13.69,13.69,0,0,1-1.84,6.88c1.84-3.94,1.48-14.09-7.74-17.18-12.3-4.13-17.82,8.63-17.82,8.63a13.75,13.75,0,0,1,27.4,1.67Z"/><circle class="cls-8" cx="206.86" cy="129.89" r="15.92"/><path class="cls-9" d="M220.61,129.89a13.75,13.75,0,1,1-13.76-13.74A13.69,13.69,0,0,1,220.61,129.89Z"/><circle class="cls-8" cx="206.86" cy="129.89" r="5.58"/><circle class="cls-8" cx="152.11" cy="129.89" r="5.58"/><circle class="cls-3" cx="206.86" cy="129.89" r="2.14"/><path class="cls-10" d="M220.61,129.89a13.69,13.69,0,0,1-1.84,6.88c1.84-3.94,1.48-14.09-7.74-17.18-12.3-4.13-17.82,8.63-17.82,8.63a13.75,13.75,0,0,1,27.4,1.67Z"/><circle class="cls-8" cx="152.11" cy="129.89" r="15.92"/><path class="cls-9" d="M165.87,129.89a13.75,13.75,0,1,1-13.76-13.74A13.69,13.69,0,0,1,165.87,129.89Z"/><circle class="cls-8" cx="152.11" cy="129.89" r="5.85"/><circle class="cls-3" cx="152.11" cy="129.89" r="2.75"/><path class="cls-10" d="M165.87,129.89a13.69,13.69,0,0,1-1.84,6.88c1.84-3.94,1.48-14.09-7.74-17.18-12.3-4.13-17.82,8.63-17.82,8.63a13.75,13.75,0,0,1,27.4,1.67Z"/><path class="cls-7" d="M130.56,38.57l.79,8.72s31.28-5.52,67.17,5C230.11,61.48,233.76,81,233.76,81l3.65-42.44Z"/><polygon class="cls-11" points="222.77 91.63 227.68 46.92 140.68 42.85 145.17 91.63 222.77 91.63"/><polygon class="cls-5" points="188.06 45.07 188.06 91.63 185.62 91.63 184.01 44.88 188.06 45.07"/><polygon class="cls-3" points="134.15 97.8 232.95 100.03 232.95 103.03 134.15 100.36 134.15 97.8"/><polygon class="cls-7" points="136.16 100.42 136.29 101.46 231.62 105.92 231.87 103 136.16 100.42"/><polygon class="cls-4" points="73.99 67.33 64.95 27.87 85.02 29.42 81.12 67.11 73.99 67.33"/><polygon class="cls-2" points="64.95 27.87 66.61 37.57 84.75 36.66 85.02 29.42 64.95 27.87"/><polygon class="cls-8" points="156.7 128.94 202 129.89 202 131.61 157.37 132.17 156.7 128.94"/><polygon class="cls-8" points="101.52 128.27 146.82 129.23 146.82 130.94 102.19 131.5 101.52 128.27"/><polygon class="cls-8" points="67.52 126.26 93.14 129.16 93.36 130.59 68.65 130.16 67.52 126.26"/><polygon class="cls-8" points="211.24 128.94 230.84 128.08 230.84 130.12 211.24 132.17 211.24 128.94"/><polygon class="cls-6" points="71.31 67.43 68.12 54.41 86.07 54.41 85.02 66.99 71.31 67.43"/><polygon class="cls-4" points="263.77 123.44 258.35 67.24 293.74 68.35 302.03 75.04 339.69 76.19 348.83 68.25 383.07 70.53 368.8 124.04 263.77 123.44"/><polygon class="cls-5" points="263.77 123.44 263.77 128.94 368.8 132.37 368.8 124.04 263.77 123.44"/><circle class="cls-8" cx="283.4" cy="130.55" r="15.92"/><path class="cls-9" d="M297.15,130.55A13.75,13.75,0,1,1,283.4,116.8,13.69,13.69,0,0,1,297.15,130.55Z"/><circle class="cls-8" cx="283.4" cy="130.55" r="5.85"/><circle class="cls-3" cx="283.4" cy="130.55" r="2.75"/><path class="cls-10" d="M297.15,130.55a13.69,13.69,0,0,1-1.84,6.88c1.84-3.94,1.48-14.09-7.74-17.18-12.3-4.13-17.82,8.63-17.82,8.63a13.75,13.75,0,0,1,27.4,1.67Z"/><circle class="cls-8" cx="349.29" cy="130.55" r="15.92"/><path class="cls-9" d="M363,130.55a13.75,13.75,0,1,1-13.76-13.74A13.69,13.69,0,0,1,363,130.55Z"/><circle class="cls-8" cx="349.29" cy="130.55" r="5.85"/><circle class="cls-3" cx="349.29" cy="130.55" r="2.75"/><path class="cls-10" d="M363,130.55a13.69,13.69,0,0,1-1.84,6.88c1.84-3.94,1.48-14.09-7.74-17.18-12.3-4.13-17.82,8.63-17.82,8.63a13.75,13.75,0,0,1,27.4,1.67Z"/><polygon class="cls-8" points="230.43 119.77 263.42 119.77 263.77 122.33 230.11 126.46 230.11 123.44 230.43 119.77"/><polygon class="cls-3" points="301.74 123.66 301.02 76.81 302.59 76.81 302.59 123.66 301.74 123.66"/><polygon class="cls-7" points="258.7 70.87 258.81 71.96 292.46 70.87 302.59 78.95 340.41 78.67 352.11 70.53 381.84 75.18 382.29 73.48 348.4 69.39 338.19 77.45 301.31 76.1 293.31 69.03 258.7 70.87"/><polygon class="cls-3" points="258.35 67.24 258.7 70.87 293.03 69.82 301.02 76.81 339.69 77.53 350.11 69.53 382.29 73.48 383.07 70.53 348.83 68.25 339.69 76.19 302.03 75.04 293.74 68.35 258.35 67.24"/></svg>